<svg width="840" height="420" viewBox="0 0 840 420" fill="none" xmlns="http://www.w3.org/2000/svg">
<g clip-path="url(#clip0_2400_3073)">
<rect width="840" height="420" rx="24" fill="url(#paint0_linear_2400_3073)"/>
<line y1="27" x2="840" y2="27" stroke="url(#paint1_linear_2400_3073)" stroke-width="2"/>
<line y1="55" x2="840" y2="55" stroke="url(#paint2_linear_2400_3073)" stroke-width="2"/>
<line y1="83" x2="840" y2="83" stroke="url(#paint3_linear_2400_3073)" stroke-width="2"/>
<line y1="111" x2="840" y2="111" stroke="url(#paint4_linear_2400_3073)" stroke-width="2"/>
<line y1="139" x2="840" y2="139" stroke="url(#paint5_linear_2400_3073)" stroke-width="2"/>
<line y1="167" x2="840" y2="167" stroke="url(#paint6_linear_2400_3073)" stroke-width="2"/>
<line y1="195" x2="840" y2="195" stroke="url(#paint7_linear_2400_3073)" stroke-width="2"/>
<line y1="223" x2="840" y2="223" stroke="url(#paint8_linear_2400_3073)" stroke-width="2"/>
<line y1="251" x2="840" y2="251" stroke="url(#paint9_linear_2400_3073)" stroke-width="2"/>
<line y1="279" x2="840" y2="279" stroke="url(#paint10_linear_2400_3073)" stroke-width="2"/>
<line y1="307" x2="840" y2="307" stroke="url(#paint11_linear_2400_3073)" stroke-width="2"/>
<line y1="335" x2="840" y2="335" stroke="url(#paint12_linear_2400_3073)" stroke-width="2"/>
<line y1="363" x2="840" y2="363" stroke="url(#paint13_linear_2400_3073)" stroke-width="2"/>
<line y1="391" x2="840" y2="391" stroke="url(#paint14_linear_2400_3073)" stroke-width="2"/>
<line y1="419" x2="840" y2="419" stroke="url(#paint15_linear_2400_3073)" stroke-width="2"/>
<g filter="url(#filter0_f_2400_3073)">
<circle cx="739" cy="220" r="20" fill="#372014"/>
</g>
<path d="M750.975 228.087L750.04 229.855L754.001 231.95L752.916 227.603L750.975 228.087ZM750.975 228.087C750.04 229.855 750.04 229.855 750.039 229.855L750.038 229.854L750.034 229.852L750.024 229.846L749.992 229.829C749.966 229.815 749.931 229.796 749.887 229.771C749.798 229.722 749.673 229.651 749.517 229.559C749.205 229.376 748.768 229.107 748.242 228.756C747.194 228.057 745.784 227.02 744.325 225.665C742.759 224.211 741.082 222.338 739.758 220.071C739.023 221.955 738.151 223.605 737.32 224.966C736.466 226.363 735.643 227.475 735.028 228.243C734.72 228.628 734.463 228.928 734.278 229.136C734.186 229.241 734.112 229.322 734.059 229.379C734.032 229.408 734.011 229.431 733.995 229.448L733.976 229.469L733.969 229.476L733.966 229.478L733.965 229.479C733.965 229.48 733.964 229.48 732.523 228.094M750.975 228.087C752.916 227.603 752.916 227.602 752.915 227.602L752.915 227.6L752.914 227.597L752.912 227.589L752.905 227.561C752.899 227.538 752.891 227.505 752.88 227.464C752.858 227.382 752.826 227.265 752.784 227.116C752.7 226.819 752.575 226.393 752.405 225.864C752.066 224.807 751.548 223.333 750.828 221.644C749.809 219.257 748.363 216.387 746.407 213.646C749.66 213.305 752.748 212.478 755.215 211.65C756.988 211.054 758.477 210.446 759.527 209.984C760.053 209.753 760.47 209.558 760.759 209.419C760.904 209.35 761.017 209.294 761.096 209.255C761.135 209.236 761.166 209.22 761.187 209.209L761.214 209.196L761.222 209.192L761.224 209.19L761.225 209.19C761.226 209.189 761.226 209.189 760.309 207.412M760.309 207.412L761.226 209.189L765.772 206.845L760.842 205.484L760.309 207.412ZM760.309 207.412C760.842 205.484 760.841 205.484 760.84 205.483L760.839 205.483L760.836 205.482L760.826 205.479L760.796 205.471C760.771 205.465 760.736 205.456 760.693 205.445C760.606 205.422 760.483 205.392 760.326 205.355C760.013 205.281 759.567 205.184 759.011 205.08C757.901 204.874 756.343 204.644 754.537 204.545C752.5 204.434 750.073 204.487 747.588 204.971C748.519 202.957 749.244 200.846 749.793 199.002C750.331 197.193 750.723 195.556 750.981 194.37C751.11 193.776 751.207 193.294 751.271 192.956C751.303 192.788 751.327 192.655 751.343 192.564C751.352 192.518 751.358 192.482 751.362 192.457L751.367 192.428L751.369 192.419L751.369 192.416L751.369 192.415C751.369 192.415 751.37 192.415 749.397 192.082M749.397 192.082L751.37 192.415L752.24 187.246L748.148 190.521L749.397 192.082ZM749.397 192.082C748.148 190.521 748.147 190.521 748.147 190.521L748.146 190.522L748.143 190.524L748.136 190.53L748.113 190.549C748.094 190.564 748.068 190.585 748.036 190.612C747.972 190.666 747.882 190.742 747.768 190.84C747.542 191.036 747.223 191.32 746.837 191.686C746.065 192.419 745.017 193.486 743.891 194.842C742.672 196.311 741.341 198.143 740.172 200.28C739.204 197.828 737.915 195.774 736.679 194.16C735.583 192.729 734.513 191.624 733.712 190.872C733.31 190.496 732.974 190.205 732.732 190.005C732.611 189.905 732.514 189.827 732.444 189.772C732.408 189.744 732.38 189.722 732.359 189.706L732.332 189.686L732.323 189.679L732.32 189.676L732.318 189.675C732.318 189.675 732.317 189.674 731.122 191.278M731.122 191.278L732.317 189.674L729.067 187.253L729.122 191.305L731.122 191.278ZM731.122 191.278C729.122 191.305 729.122 191.306 729.122 191.306L729.122 191.308L729.122 191.311L729.123 191.321L729.123 191.352C729.124 191.377 729.125 191.412 729.126 191.456C729.129 191.545 729.134 191.67 729.142 191.829C729.158 192.146 729.187 192.599 729.24 193.16C729.346 194.281 729.549 195.843 729.935 197.631C730.448 200.001 731.299 202.84 732.728 205.586C728.84 205.36 725.453 206.142 722.849 207.116C721.053 207.788 719.616 208.555 718.62 209.16C718.121 209.463 717.73 209.726 717.458 209.92C717.321 210.016 717.214 210.096 717.138 210.153C717.1 210.182 717.069 210.206 717.046 210.224L717.018 210.246L717.008 210.254L717.005 210.257L717.003 210.258C717.002 210.258 717.001 210.259 718.253 211.819M718.253 211.819L717.001 210.259L713.734 212.88L717.827 213.773L718.253 211.819ZM718.253 211.819C717.827 213.773 717.827 213.773 717.827 213.773L717.828 213.773L717.831 213.774L717.84 213.776L717.872 213.783C717.898 213.788 717.936 213.796 717.984 213.806C718.081 213.826 718.222 213.855 718.401 213.89C718.758 213.959 719.272 214.055 719.907 214.16C721.174 214.37 722.935 214.622 724.909 214.786C727.073 214.966 729.624 215.054 732.1 214.816C731.021 217.178 730.555 219.68 730.371 221.793C730.212 223.625 730.255 225.265 730.337 226.446C730.378 227.039 730.43 227.521 730.472 227.86C730.493 228.03 730.511 228.165 730.525 228.26C730.532 228.308 730.538 228.346 730.542 228.373L730.548 228.406L730.55 228.417L730.55 228.421L730.55 228.423C730.551 228.423 730.551 228.424 732.523 228.094M732.523 228.094L730.551 228.424L731.208 232.346L733.964 229.48L732.523 228.094ZM751.913 226.321C751.913 226.321 751.913 226.321 751.912 226.32L751.913 226.321Z" fill="url(#paint16_radial_2400_3073)" stroke="black" stroke-width="4"/>
<g filter="url(#filter1_f_2400_3073)">
<circle cx="100" cy="219.996" r="20" fill="#372014"/>
</g>
<path d="M81.1086 220.102L79.4111 219.044L77.0416 222.847L81.4545 222.072L81.1086 220.102ZM81.1086 220.102C79.4111 219.044 79.4115 219.044 79.4119 219.043L79.4128 219.042L79.415 219.038L79.4212 219.028L79.4404 218.998C79.4562 218.973 79.478 218.939 79.5058 218.897C79.5614 218.812 79.6409 218.692 79.7435 218.543C79.9488 218.245 80.2476 217.828 80.6346 217.329C81.4066 216.333 82.5406 214.999 83.9952 213.64C85.5565 212.181 87.5443 210.641 89.8991 209.481C88.0722 208.614 86.4876 207.628 85.1893 206.702C83.8559 205.751 82.8051 204.851 82.0822 204.183C81.7203 203.849 81.4392 203.571 81.2445 203.373C81.1472 203.273 81.0713 203.194 81.0176 203.137C80.9908 203.108 80.9695 203.085 80.9538 203.068L80.9346 203.047L80.9281 203.04L80.9257 203.037L80.9247 203.036C80.9242 203.036 80.9238 203.035 82.409 201.696M81.1086 220.102C81.4545 222.072 81.4549 222.072 81.4555 222.072L81.4567 222.071L81.4597 222.071L81.4686 222.069L81.4968 222.064C81.5204 222.06 81.5532 222.054 81.5949 222.046C81.6783 222.03 81.7973 222.007 81.9488 221.975C82.2518 221.912 82.6855 221.818 83.225 221.686C84.3029 221.422 85.8097 221.01 87.5458 220.411C89.9987 219.564 92.9644 218.325 95.8368 216.568C95.9467 219.837 96.5532 222.975 97.2046 225.495C97.6728 227.306 98.1744 228.835 98.5603 229.915C98.7535 230.455 98.9184 230.885 99.0365 231.184C99.0956 231.333 99.143 231.449 99.1765 231.531C99.1933 231.571 99.2065 231.603 99.2161 231.625L99.2275 231.652L99.231 231.661L99.2322 231.664L99.2327 231.665C99.2329 231.665 99.233 231.666 101.071 230.877M101.071 230.877L99.233 231.666L101.25 236.366L102.956 231.544L101.071 230.877ZM101.071 230.877C102.956 231.544 102.957 231.544 102.957 231.543L102.957 231.542L102.959 231.538L102.962 231.529L102.972 231.499C102.98 231.475 102.992 231.441 103.006 231.399C103.034 231.314 103.074 231.193 103.122 231.039C103.217 230.733 103.346 230.294 103.489 229.747C103.773 228.654 104.113 227.117 104.339 225.322C104.594 223.298 104.714 220.873 104.407 218.361C106.349 219.431 108.404 220.304 110.205 220.983C111.97 221.647 113.576 222.155 114.74 222.496C115.324 222.667 115.798 222.797 116.13 222.885C116.296 222.929 116.426 222.962 116.517 222.985C116.562 222.997 116.597 223.005 116.622 223.011L116.651 223.019L116.659 223.021L116.662 223.021L116.663 223.022C116.663 223.022 116.664 223.022 117.135 221.078M117.135 221.078L116.664 223.022L121.757 224.256L118.781 219.942L117.135 221.078ZM117.135 221.078C118.781 219.942 118.781 219.942 118.78 219.941L118.78 219.94L118.778 219.937L118.772 219.929L118.755 219.905C118.741 219.885 118.722 219.858 118.698 219.824C118.649 219.756 118.579 219.661 118.49 219.541C118.31 219.301 118.049 218.963 117.711 218.552C117.035 217.73 116.045 216.609 114.772 215.39C113.393 214.07 111.66 212.612 109.611 211.295C112.125 210.503 114.266 209.363 115.963 208.244C117.468 207.252 118.646 206.264 119.453 205.518C119.857 205.144 120.17 204.829 120.387 204.602C120.496 204.488 120.58 204.397 120.64 204.33C120.67 204.297 120.694 204.271 120.712 204.251L120.734 204.226L120.741 204.217L120.744 204.214L120.745 204.213C120.746 204.212 120.746 204.211 119.231 202.906M119.231 202.906L120.746 204.211L123.392 201.141L119.346 200.909L119.231 202.906ZM119.231 202.906C119.346 200.909 119.345 200.909 119.345 200.909L119.343 200.909L119.34 200.909L119.33 200.908L119.299 200.907C119.274 200.905 119.239 200.904 119.195 200.902C119.107 200.898 118.981 200.894 118.822 200.891C118.504 200.885 118.051 200.882 117.487 200.895C116.362 200.921 114.789 201.013 112.978 201.272C110.578 201.615 107.686 202.263 104.846 203.495C105.346 199.632 104.806 196.198 104.019 193.532C103.476 191.693 102.813 190.205 102.28 189.169C102.013 188.65 101.778 188.241 101.604 187.955C101.518 187.812 101.446 187.7 101.394 187.62C101.368 187.58 101.346 187.547 101.33 187.523L101.31 187.494L101.303 187.483L101.3 187.479L101.299 187.478C101.299 187.477 101.298 187.476 99.6534 188.614M99.6534 188.614L101.298 187.476L98.9151 184.032L97.7345 188.05L99.6534 188.614ZM99.6534 188.614C97.7345 188.05 97.7344 188.051 97.7343 188.051L97.734 188.052L97.7331 188.055L97.7305 188.064L97.7217 188.094C97.7142 188.12 97.7036 188.158 97.6901 188.205C97.6632 188.301 97.6249 188.438 97.5774 188.615C97.4826 188.967 97.3511 189.472 97.2011 190.098C96.9017 191.347 96.5261 193.086 96.2225 195.043C95.8895 197.189 95.6209 199.727 95.6827 202.214C93.4031 200.97 90.941 200.329 88.8458 199.996C87.0298 199.707 85.3912 199.634 84.2072 199.632C83.6133 199.631 83.1285 199.648 82.7868 199.666C82.6159 199.675 82.4803 199.684 82.3844 199.691C82.3364 199.695 82.2983 199.698 82.2706 199.7L82.2369 199.703L82.226 199.704L82.2221 199.705L82.2205 199.705C82.2198 199.705 82.2192 199.705 82.409 201.696M82.409 201.696L82.2192 199.705L78.2607 200.082L80.9238 203.035L82.409 201.696ZM82.8043 221.162C82.8041 221.163 82.8043 221.162 82.8049 221.161L82.8043 221.162Z" fill="url(#paint17_radial_2400_3073)" stroke="black" stroke-width="4"/>
<g filter="url(#filter2_f_2400_3073)">
<circle cx="420" cy="371.004" r="20" fill="#372014"/>
</g>
<path d="M399.012 355.947L398.43 354.034L394.144 355.337L397.976 357.658L399.012 355.947ZM399.012 355.947C398.43 354.034 398.431 354.033 398.432 354.033L398.433 354.033L398.437 354.031L398.448 354.028L398.483 354.018C398.511 354.01 398.55 353.999 398.599 353.985C398.696 353.957 398.835 353.92 399.01 353.875C399.361 353.786 399.861 353.668 400.481 353.547C401.717 353.305 403.449 353.047 405.438 352.981C407.574 352.911 410.084 353.059 412.621 353.735C411.816 351.881 411.272 350.095 410.903 348.544C410.525 346.95 410.326 345.581 410.222 344.602C410.169 344.112 410.14 343.718 410.124 343.441C410.116 343.302 410.112 343.192 410.109 343.114C410.107 343.075 410.107 343.043 410.106 343.02L410.105 342.992L410.105 342.982L410.105 342.978L410.105 342.977C410.105 342.976 410.105 342.976 412.105 342.945M399.012 355.947C397.976 357.658 397.977 357.658 397.977 357.658L397.978 357.659L397.981 357.661L397.989 357.665L398.013 357.68C398.034 357.692 398.062 357.709 398.099 357.731C398.172 357.774 398.277 357.834 398.412 357.91C398.681 358.063 399.07 358.277 399.563 358.532C400.548 359.044 401.954 359.725 403.655 360.416C406.06 361.393 409.108 362.412 412.427 362.979C410.358 365.513 408.75 368.275 407.582 370.601C406.743 372.272 406.114 373.753 405.694 374.821C405.484 375.355 405.325 375.787 405.217 376.089C405.164 376.241 405.123 376.36 405.095 376.443C405.08 376.484 405.07 376.517 405.062 376.54L405.053 376.568L405.05 376.577L405.049 376.58L405.049 376.581C405.048 376.581 405.048 376.582 406.951 377.197M406.951 377.197L405.048 376.582L403.473 381.448L407.931 378.941L406.951 377.197ZM406.951 377.197C407.931 378.941 407.932 378.94 407.932 378.94L407.934 378.939L407.937 378.938L407.946 378.933L407.973 378.917C407.995 378.904 408.026 378.886 408.065 378.864C408.142 378.818 408.251 378.753 408.388 378.669C408.662 378.501 409.048 378.256 409.515 377.937C410.448 377.302 411.716 376.368 413.067 375.166C414.592 373.81 416.277 372.063 417.7 369.969C418.458 372.054 419.43 374.063 420.34 375.759C421.232 377.421 422.107 378.86 422.759 379.883C423.085 380.396 423.357 380.806 423.549 381.091C423.645 381.233 423.721 381.344 423.774 381.421C423.801 381.459 423.821 381.489 423.836 381.509L423.853 381.534L423.858 381.541L423.86 381.543L423.86 381.544C423.861 381.545 423.861 381.545 425.495 380.391M425.495 380.391L423.861 381.545L426.883 385.827L427.482 380.62L425.495 380.391ZM425.495 380.391C427.482 380.62 427.482 380.619 427.482 380.619L427.482 380.617L427.482 380.614L427.483 380.604L427.487 380.575C427.489 380.551 427.492 380.518 427.496 380.476C427.504 380.393 427.515 380.275 427.526 380.126C427.549 379.827 427.575 379.401 427.591 378.869C427.623 377.805 427.615 376.309 427.459 374.553C427.29 372.653 426.944 370.414 426.268 368.074C428.682 369.132 431.045 369.683 433.059 369.957C434.845 370.201 436.382 370.232 437.48 370.201C438.031 370.186 438.474 370.155 438.787 370.127C438.943 370.113 439.067 370.099 439.156 370.089C439.2 370.084 439.236 370.079 439.262 370.076L439.295 370.072L439.306 370.07L439.311 370.069L439.312 370.069C439.313 370.069 439.314 370.069 439.033 368.089M439.033 368.089L439.314 370.069L443.327 369.499L440.433 366.661L439.033 368.089ZM439.033 368.089C440.433 366.661 440.432 366.66 440.432 366.66L440.431 366.659L440.429 366.657L440.421 366.65L440.399 366.628C440.381 366.611 440.356 366.587 440.324 366.556C440.26 366.496 440.168 366.41 440.051 366.303C439.816 366.089 439.476 365.788 439.043 365.427C438.178 364.707 436.934 363.74 435.4 362.743C433.367 361.423 430.763 360.007 427.814 359.065C430.733 356.486 432.586 353.545 433.748 351.02C434.549 349.278 435.029 347.721 435.31 346.59C435.451 346.024 435.543 345.561 435.6 345.232C435.629 345.067 435.649 344.936 435.662 344.841C435.669 344.793 435.674 344.755 435.678 344.726L435.682 344.691L435.684 344.678L435.684 344.673L435.685 344.671C435.685 344.671 435.685 344.67 433.698 344.444M433.698 344.444L435.685 344.67L436.158 340.508L432.624 342.757L433.698 344.444ZM433.698 344.444C432.624 342.757 432.624 342.757 432.623 342.757L432.622 342.758L432.62 342.759L432.612 342.764L432.585 342.781C432.562 342.796 432.53 342.817 432.488 342.844C432.405 342.898 432.286 342.977 432.134 343.078C431.831 343.281 431.399 343.575 430.875 343.947C429.827 344.691 428.4 345.753 426.884 347.026C425.22 348.423 423.348 350.157 421.758 352.071C420.86 349.634 419.428 347.531 418.07 345.901C416.893 344.488 415.707 343.355 414.817 342.574C414.37 342.183 413.994 341.876 413.725 341.665C413.59 341.559 413.482 341.477 413.405 341.419C413.367 341.39 413.336 341.367 413.314 341.351L413.287 341.331L413.278 341.325L413.274 341.322L413.273 341.321C413.273 341.321 413.272 341.321 412.105 342.945M412.105 342.945L413.272 341.321L410.043 339L410.105 342.976L412.105 342.945ZM399.591 357.861C399.591 357.862 399.591 357.861 399.592 357.861L399.591 357.861Z" fill="url(#paint18_radial_2400_3073)" stroke="black" stroke-width="4"/>
<g filter="url(#filter3_f_2400_3073)">
<circle cx="418" cy="-55" r="165" fill="#FFF9F5"/>
</g>
<rect x="337.651" y="-14.8805" width="14" height="54" rx="7" transform="rotate(30 337.651 -14.8805)" fill="#E6DEDB" stroke="black" stroke-width="4"/>
<rect x="0.732051" y="-2.73205" width="14" height="54" rx="7" transform="matrix(-0.866025 0.5 0.5 0.866025 504.779 -12.8805)" fill="#E6DEDB" stroke="black" stroke-width="4"/>
<rect x="368" y="28" width="104" height="44" rx="8" fill="#ED656D" stroke="black" stroke-width="4"/>
</g>
<defs>
<filter id="filter0_f_2400_3073" x="679" y="160" width="120" height="120" filterUnits="userSpaceOnUse" color-interpolation-filters="sRGB">
<feFlood flood-opacity="0" result="BackgroundImageFix"/>
<feBlend mode="normal" in="SourceGraphic" in2="BackgroundImageFix" result="shape"/>
<feGaussianBlur stdDeviation="20" result="effect1_foregroundBlur_2400_3073"/>
</filter>
<filter id="filter1_f_2400_3073" x="40" y="159.996" width="120" height="120" filterUnits="userSpaceOnUse" color-interpolation-filters="sRGB">
<feFlood flood-opacity="0" result="BackgroundImageFix"/>
<feBlend mode="normal" in="SourceGraphic" in2="BackgroundImageFix" result="shape"/>
<feGaussianBlur stdDeviation="20" result="effect1_foregroundBlur_2400_3073"/>
</filter>
<filter id="filter2_f_2400_3073" x="360" y="311.004" width="120" height="120" filterUnits="userSpaceOnUse" color-interpolation-filters="sRGB">
<feFlood flood-opacity="0" result="BackgroundImageFix"/>
<feBlend mode="normal" in="SourceGraphic" in2="BackgroundImageFix" result="shape"/>
<feGaussianBlur stdDeviation="20" result="effect1_foregroundBlur_2400_3073"/>
</filter>
<filter id="filter3_f_2400_3073" x="53" y="-420" width="730" height="730" filterUnits="userSpaceOnUse" color-interpolation-filters="sRGB">
<feFlood flood-opacity="0" result="BackgroundImageFix"/>
<feBlend mode="normal" in="SourceGraphic" in2="BackgroundImageFix" result="shape"/>
<feGaussianBlur stdDeviation="100" result="effect1_foregroundBlur_2400_3073"/>
</filter>
<linearGradient id="paint0_linear_2400_3073" x1="420" y1="0" x2="420" y2="420" gradientUnits="userSpaceOnUse">
<stop stop-color="#E8E0DD"/>
<stop offset="1" stop-color="#D1C4B4"/>
</linearGradient>
<linearGradient id="paint1_linear_2400_3073" x1="0" y1="28.5" x2="840" y2="28.5" gradientUnits="userSpaceOnUse">
<stop stop-color="#C7BAB2"/>
<stop offset="0.5" stop-color="#AB9385"/>
<stop offset="1" stop-color="#C7BAB2"/>
</linearGradient>
<linearGradient id="paint2_linear_2400_3073" x1="0" y1="56.5" x2="840" y2="56.5" gradientUnits="userSpaceOnUse">
<stop stop-color="#C7BAB2"/>
<stop offset="0.5" stop-color="#AB9385"/>
<stop offset="1" stop-color="#C7BAB2"/>
</linearGradient>
<linearGradient id="paint3_linear_2400_3073" x1="0" y1="84.5" x2="840" y2="84.5" gradientUnits="userSpaceOnUse">
<stop stop-color="#C7BAB2"/>
<stop offset="0.5" stop-color="#AB9385"/>
<stop offset="1" stop-color="#C7BAB2"/>
</linearGradient>
<linearGradient id="paint4_linear_2400_3073" x1="0" y1="112.5" x2="840" y2="112.5" gradientUnits="userSpaceOnUse">
<stop stop-color="#C7BAB2"/>
<stop offset="0.5" stop-color="#AB9385"/>
<stop offset="1" stop-color="#C7BAB2"/>
</linearGradient>
<linearGradient id="paint5_linear_2400_3073" x1="0" y1="140.5" x2="840" y2="140.5" gradientUnits="userSpaceOnUse">
<stop stop-color="#C7BAB2"/>
<stop offset="0.5" stop-color="#AB9385"/>
<stop offset="1" stop-color="#C7BAB2"/>
</linearGradient>
<linearGradient id="paint6_linear_2400_3073" x1="0" y1="168.5" x2="840" y2="168.5" gradientUnits="userSpaceOnUse">
<stop stop-color="#C7BAB2"/>
<stop offset="0.5" stop-color="#AB9385"/>
<stop offset="1" stop-color="#C7BAB2"/>
</linearGradient>
<linearGradient id="paint7_linear_2400_3073" x1="0" y1="196.5" x2="840" y2="196.5" gradientUnits="userSpaceOnUse">
<stop stop-color="#C7BAB2"/>
<stop offset="0.5" stop-color="#AB9385"/>
<stop offset="1" stop-color="#C7BAB2"/>
</linearGradient>
<linearGradient id="paint8_linear_2400_3073" x1="0" y1="224.5" x2="840" y2="224.5" gradientUnits="userSpaceOnUse">
<stop stop-color="#C7BAB2"/>
<stop offset="0.5" stop-color="#AB9385"/>
<stop offset="1" stop-color="#C7BAB2"/>
</linearGradient>
<linearGradient id="paint9_linear_2400_3073" x1="0" y1="252.5" x2="840" y2="252.5" gradientUnits="userSpaceOnUse">
<stop stop-color="#C7BAB2"/>
<stop offset="0.5" stop-color="#AB9385"/>
<stop offset="1" stop-color="#C7BAB2"/>
</linearGradient>
<linearGradient id="paint10_linear_2400_3073" x1="0" y1="280.5" x2="840" y2="280.5" gradientUnits="userSpaceOnUse">
<stop stop-color="#C7BAB2"/>
<stop offset="0.5" stop-color="#AB9385"/>
<stop offset="1" stop-color="#C7BAB2"/>
</linearGradient>
<linearGradient id="paint11_linear_2400_3073" x1="0" y1="308.5" x2="840" y2="308.5" gradientUnits="userSpaceOnUse">
<stop stop-color="#C7BAB2"/>
<stop offset="0.5" stop-color="#AB9385"/>
<stop offset="1" stop-color="#C7BAB2"/>
</linearGradient>
<linearGradient id="paint12_linear_2400_3073" x1="0" y1="336.5" x2="840" y2="336.5" gradientUnits="userSpaceOnUse">
<stop stop-color="#C7BAB2"/>
<stop offset="0.5" stop-color="#AB9385"/>
<stop offset="1" stop-color="#C7BAB2"/>
</linearGradient>
<linearGradient id="paint13_linear_2400_3073" x1="0" y1="364.5" x2="840" y2="364.5" gradientUnits="userSpaceOnUse">
<stop stop-color="#C7BAB2"/>
<stop offset="0.5" stop-color="#AB9385"/>
<stop offset="1" stop-color="#C7BAB2"/>
</linearGradient>
<linearGradient id="paint14_linear_2400_3073" x1="0" y1="392.5" x2="840" y2="392.5" gradientUnits="userSpaceOnUse">
<stop stop-color="#C7BAB2"/>
<stop offset="0.5" stop-color="#AB9385"/>
<stop offset="1" stop-color="#C7BAB2"/>
</linearGradient>
<linearGradient id="paint15_linear_2400_3073" x1="0" y1="420.5" x2="840" y2="420.5" gradientUnits="userSpaceOnUse">
<stop stop-color="#C7BAB2"/>
<stop offset="0.5" stop-color="#AB9385"/>
<stop offset="1" stop-color="#C7BAB2"/>
</linearGradient>
<radialGradient id="paint16_radial_2400_3073" cx="0" cy="0" r="1" gradientUnits="userSpaceOnUse" gradientTransform="translate(739.259 209.717) rotate(-74.5099) scale(8.22512 7.55477)">
<stop stop-color="#284604"/>
<stop offset="1" stop-color="#76B72A"/>
</radialGradient>
<radialGradient id="paint17_radial_2400_3073" cx="0" cy="0" r="1" gradientUnits="userSpaceOnUse" gradientTransform="translate(100.263 209.716) rotate(19.5514) scale(8.22512 7.55477)">
<stop stop-color="#284604"/>
<stop offset="1" stop-color="#76B72A"/>
</radialGradient>
<radialGradient id="paint18_radial_2400_3073" cx="0" cy="0" r="1" gradientUnits="userSpaceOnUse" gradientTransform="translate(420.269 360.733) rotate(60.7077) scale(8.22512 7.55477)">
<stop stop-color="#284604"/>
<stop offset="1" stop-color="#76B72A"/>
</radialGradient>
<clipPath id="clip0_2400_3073">
<rect width="840" height="420" rx="24" fill="white"/>
</clipPath>
</defs>
</svg>
