<svg width="140" height="141" viewBox="0 0 140 141" fill="none" xmlns="http://www.w3.org/2000/svg">
<circle cx="70.0008" cy="70.2351" r="39.1765" fill="url(#paint0_linear_2400_3272)" stroke="black" stroke-width="4"/>
<circle cx="69.9998" cy="70.2342" r="30.9412" fill="url(#paint1_linear_2400_3272)" stroke="black" stroke-width="4"/>
<path d="M91.9995 47.9985L76.4707 63.5273" stroke="black" stroke-width="4"/>
<path d="M47.7661 47.9985L63.2949 63.5273" stroke="black" stroke-width="4"/>
<path d="M91.9995 92.0757L76.4707 76.5469" stroke="black" stroke-width="4"/>
<path d="M47.7661 92.0757L63.2949 76.5469" stroke="black" stroke-width="4"/>
<circle cx="70" cy="70" r="18" fill="url(#paint2_linear_2400_3272)" stroke="black" stroke-width="4"/>
<path d="M25.2939 6.66469C22.3198 4.98915 19.1818 5.22681 16.5429 6.18188C13.9296 7.12767 11.6411 8.82348 10.0665 10.3981C8.49184 11.9727 6.79603 14.2612 5.85025 16.8745C4.89517 19.5135 4.65751 22.6514 6.33305 25.6256C6.5493 26.0094 7.11222 26.8545 8.22628 27.006C9.32048 27.1548 10.077 26.5108 10.3564 26.2451C10.6982 25.9201 10.991 25.5151 11.2241 25.1686C11.4708 24.802 11.7357 24.3701 12.0055 23.9276C12.0316 23.8848 12.0579 23.8416 12.0845 23.798C13.1757 22.0074 14.6484 19.591 16.9539 17.2855C19.2593 14.9801 21.6758 13.5074 23.4664 12.4161C23.51 12.3895 23.5532 12.3632 23.596 12.3371C24.0385 12.0673 24.4704 11.8024 24.837 11.5557C25.1834 11.3226 25.5884 11.0298 25.9135 10.6881C26.1792 10.4086 26.8232 9.65212 26.6744 8.55792C26.5229 7.44386 25.6778 6.88093 25.2939 6.66469Z" fill="url(#paint3_linear_2400_3272)" stroke="black" stroke-width="4"/>
<path d="M18.4179 36.0171L15.7325 32.5645C12.0191 27.7901 12.442 20.9978 16.7189 16.7208C20.9958 12.4439 27.7881 12.0211 32.5625 15.7345L36.0151 18.4198C41.969 23.0507 42.517 31.8519 37.1834 37.1854C31.8499 42.5189 23.0487 41.971 18.4179 36.0171Z" fill="#E6DEDB" stroke="black" stroke-width="4"/>
<path d="M114.706 6.66469C117.68 4.98915 120.818 5.22681 123.457 6.18188C126.07 7.12767 128.359 8.82348 129.934 10.3981C131.508 11.9727 133.204 14.2612 134.15 16.8745C135.105 19.5135 135.342 22.6514 133.667 25.6256C133.451 26.0094 132.888 26.8545 131.774 27.006C130.68 27.1548 129.923 26.5108 129.644 26.2451C129.302 25.9201 129.009 25.5151 128.776 25.1686C128.529 24.802 128.264 24.3701 127.995 23.9276C127.968 23.8848 127.942 23.8416 127.916 23.798C126.824 22.0074 125.352 19.591 123.046 17.2855C120.741 14.9801 118.324 13.5074 116.534 12.4161C116.49 12.3895 116.447 12.3632 116.404 12.3371C115.962 12.0673 115.53 11.8024 115.163 11.5557C114.817 11.3226 114.412 11.0298 114.087 10.6881C113.821 10.4086 113.177 9.65212 113.326 8.55792C113.477 7.44386 114.322 6.88093 114.706 6.66469Z" fill="url(#paint4_linear_2400_3272)" stroke="black" stroke-width="4"/>
<path d="M121.582 36.0171L124.267 32.5645C127.981 27.7901 127.558 20.9978 123.281 16.7208C119.004 12.4439 112.212 12.0211 107.437 15.7345L103.985 18.4198C98.031 23.0507 97.483 31.8519 102.817 37.1854C108.15 42.5189 116.951 41.971 121.582 36.0171Z" fill="#E6DEDB" stroke="black" stroke-width="4"/>
<path d="M114.706 133.808C117.68 135.484 120.818 135.246 123.457 134.291C126.07 133.345 128.359 131.649 129.934 130.075C131.508 128.5 133.204 126.211 134.15 123.598C135.105 120.959 135.342 117.821 133.667 114.847C133.451 114.463 132.888 113.618 131.774 113.467C130.68 113.318 129.923 113.962 129.644 114.228C129.302 114.553 129.009 114.958 128.776 115.304C128.529 115.671 128.264 116.103 127.995 116.545C127.968 116.588 127.942 116.631 127.916 116.675C126.824 118.465 125.352 120.882 123.046 123.187C120.741 125.493 118.324 126.965 116.534 128.057C116.49 128.083 116.447 128.109 116.404 128.136C115.962 128.405 115.53 128.67 115.163 128.917C114.817 129.15 114.412 129.443 114.087 129.785C113.821 130.064 113.177 130.821 113.326 131.915C113.477 133.029 114.322 133.592 114.706 133.808Z" fill="url(#paint5_linear_2400_3272)" stroke="black" stroke-width="4"/>
<path d="M121.582 104.456L124.267 107.908C127.981 112.683 127.558 119.475 123.281 123.752C119.004 128.029 112.212 128.452 107.437 124.738L103.985 122.053C98.031 117.422 97.483 108.621 102.817 103.287C108.15 97.9537 116.951 98.5017 121.582 104.456Z" fill="#E6DEDB" stroke="black" stroke-width="4"/>
<path d="M25.2939 133.808C22.3198 135.484 19.1818 135.246 16.5429 134.291C13.9296 133.345 11.6411 131.649 10.0665 130.075C8.49184 128.5 6.79603 126.211 5.85025 123.598C4.89517 120.959 4.65751 117.821 6.33305 114.847C6.5493 114.463 7.11222 113.618 8.22628 113.467C9.32048 113.318 10.077 113.962 10.3564 114.228C10.6982 114.553 10.991 114.958 11.2241 115.304C11.4708 115.671 11.7357 116.103 12.0055 116.545C12.0316 116.588 12.0579 116.631 12.0845 116.675C13.1757 118.465 14.6484 120.882 16.9539 123.187C19.2593 125.493 21.6758 126.965 23.4664 128.057C23.51 128.083 23.5532 128.109 23.596 128.136C24.0385 128.405 24.4704 128.67 24.837 128.917C25.1834 129.15 25.5884 129.443 25.9135 129.785C26.1792 130.064 26.8232 130.821 26.6744 131.915C26.5229 133.029 25.6778 133.592 25.2939 133.808Z" fill="url(#paint6_linear_2400_3272)" stroke="black" stroke-width="4"/>
<path d="M18.4179 104.456L15.7325 107.908C12.0191 112.683 12.442 119.475 16.7189 123.752C20.9958 128.029 27.7881 128.452 32.5625 124.738L36.0151 122.053C41.969 117.422 42.517 108.621 37.1834 103.287C31.8499 97.9537 23.0487 98.5017 18.4179 104.456Z" fill="#E6DEDB" stroke="black" stroke-width="4"/>
<defs>
<linearGradient id="paint0_linear_2400_3272" x1="70.0008" y1="29.0586" x2="70.0008" y2="111.412" gradientUnits="userSpaceOnUse">
<stop stop-color="#FBFAFA"/>
<stop offset="0.02" stop-color="#F3E3CA"/>
<stop offset="1" stop-color="#C5B7A3"/>
</linearGradient>
<linearGradient id="paint1_linear_2400_3272" x1="69.9998" y1="37.293" x2="69.9998" y2="103.175" gradientUnits="userSpaceOnUse">
<stop stop-color="#EDDFC2"/>
<stop offset="1" stop-color="#D6C5AD"/>
</linearGradient>
<linearGradient id="paint2_linear_2400_3272" x1="70" y1="50" x2="70" y2="90" gradientUnits="userSpaceOnUse">
<stop stop-color="#C9AD93"/>
<stop offset="1" stop-color="#AF8370"/>
</linearGradient>
<linearGradient id="paint3_linear_2400_3272" x1="11.4807" y1="11.8123" x2="16.7216" y2="17.0532" gradientUnits="userSpaceOnUse">
<stop stop-color="#C9AD93"/>
<stop offset="1" stop-color="#AF8370"/>
</linearGradient>
<linearGradient id="paint4_linear_2400_3272" x1="128.519" y1="11.8123" x2="123.278" y2="17.0532" gradientUnits="userSpaceOnUse">
<stop stop-color="#C9AD93"/>
<stop offset="1" stop-color="#AF8370"/>
</linearGradient>
<linearGradient id="paint5_linear_2400_3272" x1="128.519" y1="128.66" x2="123.278" y2="123.419" gradientUnits="userSpaceOnUse">
<stop stop-color="#C9AD93"/>
<stop offset="1" stop-color="#AF8370"/>
</linearGradient>
<linearGradient id="paint6_linear_2400_3272" x1="11.4807" y1="128.66" x2="16.7216" y2="123.419" gradientUnits="userSpaceOnUse">
<stop stop-color="#C9AD93"/>
<stop offset="1" stop-color="#AF8370"/>
</linearGradient>
</defs>
</svg>
