<svg width="244" height="202" viewBox="0 0 244 202" fill="none" xmlns="http://www.w3.org/2000/svg">
<g filter="url(#filter0_d_96_1223)">
<circle cx="98" cy="107" r="90" fill="#0ABBEF"/>
</g>
<path d="M243.585 168.775C243.416 170.984 242.736 173.192 241.716 175.06C240.526 177.268 238.826 178.797 236.447 179.306C224.889 182.024 213.161 183.893 201.434 185.082C186.476 186.61 171.349 187.799 156.392 188.988C152.143 189.328 147.894 189.668 143.645 189.838C134.466 190.347 126.478 187.799 120.189 180.665C115.94 175.739 111.861 170.644 107.782 165.548C100.643 156.546 92.9944 148.053 84.1561 140.579C80.5868 137.522 76.6775 134.974 72.2584 133.106C71.4085 132.766 70.2188 132.596 70.2188 131.407C70.2188 130.048 71.5785 130.048 72.4283 129.709C78.7171 127.67 85.1759 126.651 91.6347 125.462C102.853 123.254 113.73 120.367 125.118 118.668C133.447 117.479 141.775 116.63 149.933 114.931C154.013 114.082 156.562 115.611 159.282 118.158C177.128 134.974 196.675 149.921 217.581 163C218.6 163.51 219.62 164.019 220.13 165.039C219.28 165.208 218.6 164.869 217.75 164.529C215.881 163.68 214.011 162.661 212.142 161.641C208.572 159.263 204.833 157.055 201.264 154.508C185.967 143.467 170.5 132.596 157.242 119.178C155.372 117.309 153.503 116.29 150.783 117.139C149.084 117.649 147.384 117.649 145.514 117.989C136.846 119.347 128.008 120.197 119.339 121.895C108.291 124.103 97.2436 126.312 86.3657 128.69C82.2864 129.539 78.2072 130.218 73.7881 131.577C77.5274 133.276 80.9267 135.314 83.9861 137.692C93.6743 145.335 101.833 154.338 109.311 164.019C111.521 166.737 113.73 169.455 116.11 172.173C119.169 176.759 122.909 180.665 127.498 183.893C130.047 185.591 132.767 186.61 135.826 186.78C139.905 187.12 142.625 185.082 143.135 181.005C143.475 178.967 143.135 176.928 142.285 175.06C141.095 172.512 141.265 172.173 144.155 172.512C144.495 172.512 144.664 172.512 145.004 172.512C153.163 173.192 161.321 172.173 169.65 171.493C182.907 170.474 195.995 169.285 209.082 167.926C213.161 167.586 217.071 167.247 220.98 166.058C227.439 165.039 233.217 163 236.957 157.055C238.147 155.017 239.166 155.187 240.696 157.055C242.736 159.433 243.755 162.491 243.925 165.718C244.095 168.945 243.925 167.926 243.925 168.945L243.585 168.775Z" fill="#050505"/>
<path d="M0.871094 139.219C2.06087 137.181 2.40079 134.803 3.25063 132.595C4.78033 129.028 6.47998 125.631 9.53939 122.913C12.4288 120.365 15.6582 118.836 19.3975 118.666C20.5873 118.666 20.7572 118.327 20.7572 117.138C20.7572 113.061 22.117 109.155 22.6269 105.078C23.9866 94.5469 26.7061 84.1857 28.0659 73.6547C28.2358 72.126 28.5758 70.7672 26.8761 69.5782C25.6863 68.7289 26.0263 67.2002 26.1962 66.0112C27.386 57.6883 28.7457 49.3654 31.1253 41.2123C31.9751 38.1549 32.825 34.7578 36.3943 33.2291C37.0741 32.8894 36.9042 32.3798 35.7144 32.0401C33.3349 31.1908 31.4652 29.6621 30.2754 27.454C27.0461 22.1885 29.7655 15.9038 35.8843 14.8847C37.584 14.545 38.0939 13.8656 38.4338 12.3369C39.7936 6.39191 44.7227 1.46605 50.5015 0.616773C55.0907 -0.0626495 59.3399 1.29622 62.7392 4.35362C65.4587 6.90145 67.8382 9.78899 68.6881 13.5258C68.6881 14.2052 69.028 14.5449 69.8778 14.3751C78.5462 12.8464 86.0248 16.5832 89.934 24.3966C92.4835 29.4922 93.5033 34.9276 92.8234 40.5328C92.3135 44.9491 90.2739 48.686 86.3647 51.4036C86.3647 51.5735 86.5347 51.7433 86.7046 51.9132C96.3928 56.1596 101.662 63.8031 103.191 74.1643C104.891 85.5446 99.4522 95.7359 88.9142 100.322C86.1947 101.511 83.3053 102.021 79.9059 101.511C79.9059 102.19 80.0759 102.7 80.2458 103.21C81.2656 106.946 80.7557 110.513 78.3762 113.571C74.4669 119.006 69.3679 122.573 62.5692 122.913C61.5494 122.913 61.2095 123.422 60.8696 124.272C57.3003 130.386 52.0313 133.614 44.8926 133.784C43.5329 133.784 42.1731 133.444 40.9834 132.934C40.1335 132.595 39.9636 132.595 39.6236 133.444C39.2837 134.293 39.2837 135.142 39.6236 135.992C40.1335 137.69 40.1335 139.559 40.3035 141.427C40.4735 144.315 39.1137 146.183 36.7342 147.372C30.9553 150.09 24.8365 151.279 18.3777 150.26C13.7886 149.58 9.53942 148.051 5.80014 145.504C3.76053 144.145 2.23083 142.446 0.871094 140.578V138.879V139.219ZM17.1879 125.291C16.5081 122.233 15.8282 122.064 13.2787 123.592C11.749 124.442 10.3893 125.631 9.19949 126.989C6.31004 130.047 5.12025 133.953 3.76051 137.69C2.7407 140.408 3.25064 141.427 5.97012 143.126C6.31005 143.805 7.15989 143.975 7.66979 144.485C8.85956 145.334 9.5394 145.334 10.5592 144.145C13.7886 140.408 15.8282 135.992 17.018 131.236C17.5279 129.367 18.0378 127.329 17.018 125.291H17.1879ZM30.6154 68.8988C31.4652 69.5782 32.655 69.5782 33.6748 69.748C37.0741 70.4275 37.754 70.0877 38.7738 66.8605C41.3233 58.5375 43.023 50.0448 44.2128 41.3821C44.7227 37.8152 44.2128 37.4755 40.6435 36.7961C37.2441 35.4372 36.5642 35.7769 35.2045 38.8343C35.0345 39.3439 34.8646 39.6836 34.6946 40.1932C31.8052 48.8558 30.2754 57.6883 29.2556 66.6906C29.2556 67.8796 29.5956 68.559 30.9553 68.7289L30.6154 68.8988ZM45.5725 47.1573C44.8926 50.8941 44.2128 54.461 43.3629 58.1979C42.6831 61.595 42.1731 64.9921 40.9834 68.2193C40.1335 70.5973 39.1137 72.8054 36.0543 72.9753C35.2045 72.9753 35.2045 73.8246 35.2045 74.3342C33.6748 83.8461 31.2952 93.1881 29.2556 102.53C28.0658 107.626 27.386 112.721 26.7061 117.987C26.7061 119.006 26.0262 120.025 27.5559 120.875C29.4256 121.894 31.1253 123.253 32.655 124.611C33.1649 124.951 33.5048 125.291 34.1847 125.121C37.9239 124.272 39.9636 125.631 40.3035 129.707C40.3035 131.066 40.9834 131.406 42.0032 131.745C48.6319 134.293 57.3003 128.518 59.1699 124.102C59.5098 123.253 59.5098 122.913 58.66 122.573C56.4504 121.724 54.9207 120.195 53.7309 118.157C53.051 116.798 52.5411 115.439 53.7309 114.25C55.0907 112.891 56.6204 113.231 57.9801 113.91C60.3596 115.099 61.5494 117.308 61.5494 119.855C61.5494 121.554 62.3993 121.554 63.759 121.554C69.5379 121.044 76.8465 115.439 78.3762 110.004C79.396 106.097 79.736 102.19 75.6568 99.4728C74.8069 98.9632 74.297 97.9441 73.7871 97.0948C73.4472 96.5852 73.4472 95.9058 73.7871 95.3962C74.297 94.8867 74.9769 95.0565 75.4868 95.3962C76.3366 95.9058 77.0164 96.7551 77.5264 97.6043C78.3762 99.4728 80.0759 99.9823 81.9455 99.9823C83.9851 99.9823 85.8548 99.6426 87.7244 98.9632C97.9224 94.7168 103.191 84.5255 100.812 73.315C98.9423 64.4825 94.5231 57.6883 85.8548 53.7816C84.4951 53.272 83.3053 52.9323 81.9455 53.6117C80.9257 54.1213 79.9059 54.1213 78.7161 53.9515C77.8663 53.9515 76.8465 53.7816 76.6765 52.5926C76.5065 51.4036 77.5264 51.0639 78.5462 50.7242C79.396 50.5543 80.4158 50.3845 81.0957 50.7242C83.1353 51.4036 84.665 50.3845 86.0247 49.1955C88.2343 47.4969 89.5941 45.119 90.104 42.4013C91.4637 35.4372 90.1039 28.8128 86.0247 22.8679C82.6254 18.1119 77.6963 15.9038 71.7475 16.4134C70.0478 16.4134 68.688 16.7531 68.1781 18.7913C67.8382 19.9803 66.6485 20.9994 65.2887 20.1502C63.929 19.3009 64.7788 18.1119 65.4587 17.2627C65.9686 16.5832 66.4785 16.2435 66.3085 15.2244C65.2887 9.44927 58.9999 3.84404 52.7112 3.33447C47.1022 2.82491 42.1732 8.26029 39.9636 13.5258C39.4537 14.8847 39.6236 15.5641 41.1533 16.0736C43.8728 17.0928 45.7425 19.3009 46.7623 22.0186C47.2722 23.3774 47.6121 24.9061 46.2524 26.0951C44.8926 27.2841 43.3629 26.7745 42.0032 26.0951C39.2837 24.5664 38.0939 21.8488 37.754 18.9612C37.754 17.7722 37.2441 17.4325 36.2243 17.6023C33.1649 18.1119 30.4454 21.3392 30.9553 24.0569C31.4652 27.9636 34.8646 30.8511 38.0939 30.3415C38.7738 30.3415 39.2837 30.3415 39.7936 30.8511C40.3035 31.3607 40.3035 32.0401 39.7936 32.5497C38.6038 33.7386 39.4537 34.0784 40.4735 34.2482C41.3233 34.4181 42.3431 34.7578 43.023 35.2674C44.5527 36.1166 46.4223 36.796 46.4223 39.174C46.4223 40.0233 47.2722 39.6836 47.952 39.8534C52.7111 40.8726 54.5808 43.0807 54.7507 48.0065C54.7507 48.686 54.7507 49.1955 54.7507 49.8749C53.561 60.7457 51.1814 71.4466 49.3118 82.3173C48.8019 85.3747 46.7623 86.224 43.8728 85.035C42.0032 84.3556 41.4933 83.3365 42.683 81.6379C44.0428 79.5997 44.8926 77.3916 45.4025 75.1834C46.9322 68.5591 47.6121 61.7648 48.462 54.9706C48.8019 52.083 49.1418 48.8558 45.4025 47.4969L45.5725 47.1573ZM33.5048 73.6547C33.6748 72.6356 33.1649 72.2958 30.9553 71.9561C29.5956 71.7863 30.1054 72.4657 29.9355 73.1451C27.8959 87.9226 24.1566 102.36 22.117 117.308C22.117 118.497 21.777 119.006 23.1368 119.176C24.3266 119.176 25.0064 119.686 25.1764 117.987C26.0262 111.872 26.8761 105.927 28.2358 99.9823C30.2754 91.3197 31.9751 82.4872 33.5048 73.8246V73.6547ZM39.9636 17.7722C40.3035 20.6597 41.1533 22.8679 43.5329 24.0569C43.8728 24.2267 44.3827 24.5664 44.8926 24.0569C45.4025 23.7172 44.8926 23.2076 44.8926 22.698C44.0428 20.32 42.5131 18.6215 39.9636 17.6023V17.7722ZM60.1897 120.875C60.1897 118.497 59.5098 116.628 57.6402 115.439C56.9603 114.93 56.1105 114.59 55.4306 115.439C54.7507 115.949 55.4306 116.798 55.6006 117.477C56.6204 119.176 57.9801 120.365 60.1897 121.044V120.875Z" fill="#080808"/>
<path d="M211.971 161.811C213.841 162.83 215.71 163.849 217.58 164.698C218.26 165.038 219.11 165.378 219.96 165.208C220.469 165.378 220.809 165.547 220.809 166.057C216.9 167.246 212.821 167.586 208.912 167.925C195.824 169.114 182.567 170.473 169.479 171.492C161.321 172.172 153.162 173.191 144.834 172.511C144.494 172.511 144.324 172.511 143.984 172.511C141.095 172.172 140.925 172.511 142.114 175.059C142.964 176.928 143.134 178.966 142.964 181.004C142.454 185.251 139.905 187.119 135.656 186.779C132.596 186.44 129.877 185.42 127.327 183.892C122.738 180.834 118.999 176.758 115.939 172.172C116.279 172.172 116.619 172.172 116.959 172.172C120.189 173.021 123.248 174.38 126.477 174.72C130.047 175.059 132.766 173.87 132.426 169.964C132.426 168.775 132.256 167.416 132.766 166.227C132.936 165.717 133.276 165.377 133.616 166.227C133.276 166.736 132.936 167.246 133.786 167.416C134.466 167.416 135.316 167.416 135.996 167.416C139.905 166.906 143.814 166.227 147.723 165.717C148.063 166.227 148.573 166.057 149.083 166.057C162.85 166.057 176.618 166.397 190.385 164.868C197.184 164.189 203.813 163 210.781 162.66C211.461 162.66 211.971 162.32 211.971 161.641V161.811Z" fill="#CFC9C9"/>
<path d="M211.971 161.813C211.971 162.492 211.461 162.832 210.781 162.832C203.982 163.002 197.184 164.191 190.385 165.04C176.618 166.569 162.85 166.059 149.083 166.229C148.573 166.229 148.063 166.229 147.723 165.889C149.083 165.55 150.443 165.38 151.632 165.04C153.445 164.7 154.748 164.191 155.542 163.511C151.972 163.341 148.743 163.851 145.344 164.191C141.434 164.7 137.355 165.04 133.446 166.399C133.106 165.55 132.766 165.889 132.596 166.399C132.086 167.588 132.086 168.947 132.256 170.136C132.596 174.042 129.876 175.231 126.307 174.892C123.078 174.552 119.848 173.363 116.789 172.344C116.449 172.344 116.109 172.344 115.769 172.344C113.56 169.626 111.18 166.908 108.97 164.191C101.492 154.509 93.3335 145.507 83.6453 137.863C80.5859 135.485 77.3565 133.447 73.4473 131.748C77.6965 130.22 81.9456 129.71 86.0248 128.861C97.0727 126.653 108.121 124.275 118.999 122.067C127.667 120.368 136.505 119.519 145.174 118.16C146.873 117.82 148.743 117.82 150.443 117.311C153.162 116.461 155.032 117.48 156.901 119.349C170.159 132.767 185.626 143.638 200.923 154.679C204.492 157.227 208.231 159.435 211.801 161.813H211.971ZM173.388 150.263C172.028 149.923 170.839 150.942 169.309 150.432C170.499 149.413 172.198 149.583 173.558 148.054C170.839 148.054 168.459 148.564 166.08 149.243C165.06 149.583 163.36 149.583 163.7 150.772C164.04 151.961 165.57 151.112 166.589 151.112L166.929 151.621C166.589 153.32 166.929 153.83 168.459 153.32C170.159 152.81 171.688 151.961 173.218 151.452C173.728 151.452 174.408 151.452 174.408 150.602C174.408 149.923 173.728 150.263 173.218 150.263H173.388ZM150.612 124.954C149.593 124.275 148.743 124.445 147.893 124.445C144.834 124.784 141.604 124.954 138.545 125.294C123.418 126.823 108.461 129.031 93.5035 131.918C91.1239 132.428 88.7443 132.937 86.3648 133.447C85.6849 133.447 85.175 133.787 85.345 134.636C85.345 135.315 86.1948 135.485 86.8747 135.315C87.2146 135.315 87.3846 135.315 87.7245 135.315C106.081 131.748 124.437 129.2 142.964 126.992C145.513 126.653 148.233 126.483 150.782 124.954H150.612ZM170.329 143.638C169.309 143.638 168.119 143.978 166.929 144.148C150.782 147.205 134.975 151.961 119.168 156.377C117.639 156.887 116.109 157.227 114.579 157.736C114.069 157.736 113.73 158.246 113.73 158.755C113.73 159.265 114.409 159.265 114.919 159.265C115.259 159.265 115.599 159.265 115.939 159.095C124.437 157.227 132.596 154.679 141.094 152.471C150.782 149.753 160.471 147.035 170.329 144.997C170.839 144.997 171.858 144.997 171.858 144.148C171.858 143.638 171.009 143.638 170.329 143.638ZM158.091 131.918C157.411 131.069 156.561 131.069 155.711 131.239C147.043 131.578 138.545 133.277 130.216 135.485C129.537 135.655 128.347 135.995 128.857 137.014C129.197 137.863 130.046 137.693 130.726 137.523C137.695 135.825 144.834 134.466 151.972 133.617C154.012 133.277 156.051 133.277 157.921 132.088L158.091 131.918ZM120.698 136.844C120.698 136.674 120.698 136.504 120.698 136.334C119.848 136.334 119.168 136.334 118.319 136.334C111.35 136.334 104.551 137.863 97.5827 139.222C97.2427 139.222 97.0728 139.222 96.7328 139.392C96.3929 139.562 96.0529 139.901 96.2229 140.411C96.2229 140.751 96.7328 140.92 97.0727 140.92C97.7526 140.92 98.4325 140.92 99.1124 140.751C101.832 140.241 104.721 139.732 107.441 139.222C111.86 138.543 116.279 137.693 120.528 137.014L120.698 136.844ZM138.375 140.751C142.964 140.071 147.553 139.052 152.142 138.033C152.482 138.033 153.162 138.203 153.162 137.523C153.162 136.844 152.482 137.014 151.972 137.014C147.213 137.014 142.624 138.203 138.035 138.882C137.355 138.882 136.505 139.222 136.845 140.071C136.845 140.92 137.695 140.751 138.545 140.751H138.375ZM115.429 143.129C114.919 142.789 114.749 142.619 114.579 142.619C110.33 141.77 106.251 142.959 102.172 144.148C101.662 144.148 101.152 144.827 101.492 145.337C101.832 146.016 102.342 146.016 103.022 145.846C107.101 144.997 111.01 144.148 115.259 143.129H115.429ZM109.82 147.885C107.781 147.545 105.741 147.885 103.701 148.054C103.192 148.054 103.192 148.564 103.362 149.074C103.532 149.583 104.041 149.753 104.551 149.583C106.251 149.074 108.291 148.904 109.82 147.885ZM175.768 153.32C174.408 153.66 173.048 153.83 171.688 154.169C171.179 154.169 170.669 154.509 170.839 155.188C171.009 155.698 171.518 155.868 172.028 155.528C173.388 154.849 174.748 154.679 175.768 153.32Z" fill="#FCFCFC"/>
<path d="M40.4734 36.9688C44.0427 37.6482 44.5526 37.9879 44.0427 41.5548C42.8529 50.2175 41.1532 58.7102 38.6037 67.0332C37.5839 70.2604 36.9041 70.6001 33.5047 69.9207C32.4849 69.7509 31.2951 69.581 30.4453 69.0714C31.1252 64.9949 31.6351 61.0882 32.315 57.0117C33.3348 51.4065 34.3546 45.9711 37.074 40.8754C37.9239 39.3467 38.6037 37.6482 40.4734 36.9688Z" fill="#76B62B"/>
<path d="M33.505 73.6561C31.9753 82.4886 30.4456 91.1513 28.236 99.8139C26.8763 105.759 25.8565 111.704 25.1766 117.819C25.0067 119.517 24.3268 119.177 23.137 119.008C21.7773 119.008 21.9473 118.328 22.1172 117.139C24.1568 102.362 27.8961 87.7541 29.9357 72.9767C29.9357 72.4671 29.5958 71.6179 30.9555 71.7877C33.1651 72.1274 33.675 72.4671 33.505 73.4863V73.6561Z" fill="#72B229"/>
<path d="M17.1885 125.289C18.0383 127.327 17.6984 129.366 17.1885 131.234C15.9987 135.99 13.9591 140.406 10.7298 144.143C9.70996 145.332 8.8601 145.502 7.8403 144.483C7.3304 143.973 6.48056 143.803 6.14062 143.124C7.3304 139.557 9.0301 136.33 10.8997 133.102C12.5994 130.215 14.469 127.327 17.1885 125.289Z" fill="#76B62B"/>
<path d="M17.1869 125.29C14.4674 127.328 12.5978 130.216 10.8982 133.103C9.02851 136.331 7.32881 139.558 6.13903 143.125C3.41955 141.426 3.07964 140.407 3.92948 137.689C5.28922 133.953 6.47901 130.046 9.36846 126.989C10.5582 125.63 11.918 124.611 13.4477 123.591C15.9972 122.063 16.677 122.402 17.3569 125.29H17.1869Z" fill="#F9FAF8"/>
<path d="M40.4738 36.9648C38.6042 37.6442 37.9243 39.1729 37.0745 40.8714C34.525 45.9671 33.3352 51.4025 32.3154 57.0077C31.6355 60.9144 31.1256 64.991 30.4458 69.0675C29.086 69.0675 28.7461 68.388 28.7461 67.0292C29.7659 58.0269 31.2956 49.1944 34.185 40.5317C34.185 40.0221 34.525 39.6825 34.695 39.1729C36.0547 36.1155 36.9045 35.7758 40.1339 37.1346L40.4738 36.9648Z" fill="#F4F6F3"/>
<path d="M133.445 166.224C137.355 164.865 141.434 164.526 145.343 164.016C148.573 163.506 151.972 162.997 155.541 163.337C154.748 164.016 153.445 164.526 151.632 164.865C150.272 165.205 148.912 165.375 147.723 165.715C143.813 166.224 139.904 166.904 135.995 167.413C135.315 167.413 134.465 167.413 133.785 167.413C132.766 167.413 133.105 166.734 133.615 166.224H133.445Z" fill="#111111"/>
<path d="M150.613 124.952C148.064 126.48 145.344 126.65 142.795 126.99C124.268 129.198 105.912 131.746 87.5554 135.313C87.2154 135.313 87.0455 135.313 86.7055 135.313C86.0257 135.313 85.3457 135.313 85.1758 134.633C85.1758 133.784 85.6857 133.614 86.1956 133.444C88.5751 132.935 90.9547 132.425 93.3342 131.916C108.291 129.028 123.249 126.82 138.376 125.291C141.435 124.952 144.664 124.612 147.724 124.442C148.574 124.442 149.424 124.102 150.443 124.952H150.613Z" fill="#0E0E0E"/>
<path d="M170.33 143.633C171.009 143.633 171.859 143.633 171.859 144.142C171.859 144.992 170.839 144.992 170.33 144.992C160.471 147.03 150.783 149.748 141.095 152.465C132.767 154.673 124.438 157.221 115.94 159.09C115.6 159.09 115.26 159.26 114.92 159.26C114.41 159.26 113.9 159.26 113.73 158.75C113.73 158.24 114.07 157.901 114.58 157.731C116.11 157.221 117.64 156.712 119.169 156.372C134.976 151.786 150.783 147.2 166.93 144.142C168.12 143.973 169.31 143.803 170.33 143.633Z" fill="#111111"/>
<path d="M158.091 131.912C156.221 133.101 154.012 133.101 152.142 133.44C145.003 134.46 137.865 135.818 130.896 137.347C130.046 137.517 129.196 137.687 129.027 136.838C128.687 135.818 129.706 135.479 130.386 135.309C138.715 133.271 147.213 131.402 155.881 131.062C156.561 131.062 157.411 131.062 158.261 131.742L158.091 131.912Z" fill="#111111"/>
<path d="M120.698 136.843C116.279 137.523 111.86 138.372 107.61 139.052C104.891 139.561 102.002 140.071 99.282 140.58C98.6022 140.58 97.9223 140.75 97.2424 140.75C96.9025 140.75 96.5625 140.75 96.3926 140.241C96.3926 139.731 96.3926 139.391 96.9025 139.221C97.0725 139.221 97.4124 139.052 97.7523 139.052C104.551 137.693 111.35 136.334 118.488 136.164C119.338 136.164 120.018 136.164 120.868 136.164C120.868 136.334 120.868 136.504 120.868 136.674L120.698 136.843Z" fill="#181818"/>
<path d="M166.76 151.112C165.74 151.112 164.21 151.961 163.87 150.772C163.53 149.583 165.23 149.414 166.25 149.244C168.629 148.564 170.839 148.055 173.728 148.055C172.539 149.414 170.839 149.414 169.479 150.433C171.009 150.942 172.199 149.923 173.558 150.263C173.558 150.603 173.558 150.942 173.558 151.452C172.029 152.131 170.329 152.811 168.799 153.32C167.27 153.83 166.93 153.32 167.27 151.622C167.27 151.622 167.27 151.282 167.27 151.112C167.1 151.112 166.93 151.112 166.76 151.112Z" fill="#181818"/>
<path d="M138.374 140.748C137.694 140.748 136.844 140.748 136.674 140.068C136.504 139.219 137.354 138.879 137.864 138.879C142.453 138.03 147.042 137.011 151.802 137.011C152.311 137.011 152.821 136.841 152.991 137.521C152.991 138.37 152.311 138.03 151.972 138.03C147.382 139.219 142.793 140.068 138.204 140.748H138.374Z" fill="#111111"/>
<path d="M115.43 143.125C111.181 143.975 107.102 144.994 103.192 145.843C102.512 145.843 102.003 145.843 101.663 145.333C101.323 144.654 101.663 144.314 102.343 144.144C106.422 142.955 110.501 141.766 114.75 142.616C114.92 142.616 115.09 142.786 115.6 143.125H115.43Z" fill="#111111"/>
<path d="M109.822 147.885C108.122 148.904 106.253 149.074 104.553 149.583C104.043 149.583 103.533 149.583 103.363 149.074C103.363 148.734 103.363 148.225 103.703 148.055C105.743 147.715 107.782 147.375 109.822 147.885Z" fill="#181818"/>
<path d="M175.767 153.32C174.747 154.679 173.218 155.019 172.028 155.528C171.518 155.698 171.008 155.528 170.838 155.189C170.668 154.509 171.178 154.17 171.688 154.17C173.048 153.83 174.407 153.66 175.767 153.32Z" fill="#373737"/>
<path d="M173.389 151.446C173.389 151.106 173.389 150.766 173.389 150.257C173.899 150.257 174.408 149.917 174.578 150.597C174.578 151.276 173.899 151.276 173.389 151.446Z" fill="#111111"/>
<path d="M166.76 151.109C166.93 151.109 167.1 151.109 167.27 151.109C167.27 151.109 167.27 151.449 167.27 151.619C167.27 151.619 166.93 151.279 166.93 151.109H166.76Z" fill="#FCFCFC"/>
<defs>
<filter id="filter0_d_96_1223" x="3" y="17" width="185" height="185" filterUnits="userSpaceOnUse" color-interpolation-filters="sRGB">
<feFlood flood-opacity="0" result="BackgroundImageFix"/>
<feColorMatrix in="SourceAlpha" type="matrix" values="0 0 0 0 0 0 0 0 0 0 0 0 0 0 0 0 0 0 127 0" result="hardAlpha"/>
<feOffset dx="-5" dy="5"/>
<feComposite in2="hardAlpha" operator="out"/>
<feColorMatrix type="matrix" values="0 0 0 0 0 0 0 0 0 0 0 0 0 0 0 0 0 0 1 0"/>
<feBlend mode="normal" in2="BackgroundImageFix" result="effect1_dropShadow_96_1223"/>
<feBlend mode="normal" in="SourceGraphic" in2="effect1_dropShadow_96_1223" result="shape"/>
</filter>
</defs>
</svg>
