<svg width="148" height="136" viewBox="0 0 148 136" fill="none" xmlns="http://www.w3.org/2000/svg">
<path d="M145.653 119.224L126.682 90.1523C126.682 90.1523 47.2246 94.6093 46.1026 95.7236C45.0827 96.7365 41.9207 105.347 41.6147 107.474C41.3087 109.601 42.2267 118.414 43.1447 119.73C44.0627 121.047 46.2046 124.086 47.2246 124.795C48.2446 125.504 51.4066 125.808 51.4066 125.808L145.653 119.224Z" fill="url(#paint0_linear_2310_99586)"/>
<path d="M143.817 110.311L130.557 92.1797L52.936 100.587C52.936 100.587 43.2461 111.73 43.2461 113.452C43.2461 115.072 44.3681 117.503 44.3681 117.503C44.3681 117.503 46.0001 118.618 47.224 118.922C48.346 119.225 143.817 110.311 143.817 110.311Z" fill="#D8D8D8"/>
<path d="M48.9609 115.981L143.208 106.155L136.17 96.8359L48.9609 115.981Z" fill="#D8D8D8"/>
<path d="M143.206 106.157L141.166 103.523L73.0312 113.552L143.206 106.157Z" fill="white"/>
<path d="M45.8992 121.957L142.39 116.082L143.716 110.207L43.7572 116.183C43.1452 118.412 45.2872 120.843 45.8992 121.957Z" fill="white"/>
<path d="M43.7578 116.793L142.288 101.802L143.614 93.293C143.614 93.293 51.7137 108.285 50.8977 108.285C50.1837 108.285 48.3478 106.968 46.2058 109.5C44.2678 112.032 43.7578 116.793 43.7578 116.793Z" fill="white"/>
<path d="M46.3076 109.5C46.3076 109.5 41.8197 115.78 43.4516 122.466C42.8396 120.946 2.04019 25.2228 1.83619 23.906C1.63219 22.5891 -1.12177 16.005 7.54812 11.9532H7.65011C10.0981 11.6493 90.983 0.202984 91.595 0.608163C92.207 1.01334 145.246 91.5708 145.246 91.5708L46.3076 109.5Z" fill="url(#paint1_linear_2310_99586)"/>
<path d="M46.3059 109.5L136.779 89.5449L88.9413 3.8496L7.64844 11.9532C10.0964 11.6493 90.9813 0.202984 91.5933 0.608163C92.2053 1.01334 145.245 91.5708 145.245 91.5708L46.3059 109.5Z" fill="white"/>
<path d="M7.54812 11.9531C-1.12177 16.0049 1.63219 22.5891 1.83619 23.9059C2.04019 25.1214 35.8017 104.233 43.0436 121.25L43.8596 114.767C44.2676 113.349 44.8796 112.032 45.3896 111.121L46.2056 108.993L7.54812 11.9531Z" fill="url(#paint2_linear_2310_99586)"/>
<path d="M14.3817 28.6677C12.2398 29.8833 10.3018 31.6053 9.2818 33.7325C8.56781 35.2519 8.15982 36.7713 7.85382 38.392C8.46581 39.9114 9.1798 41.5322 9.89379 43.1529C9.89379 42.4438 9.89379 41.7348 9.99579 41.127C10.5058 37.2778 12.3418 33.5299 15.6057 31.504L14.3817 28.6677ZM9.6898 21.1719C10.0978 20.868 10.6078 20.5642 11.0158 20.4629L10.0978 18.2344C6.52784 20.4629 4.07987 24.4134 3.67188 28.5664C4.07987 29.4781 4.48787 30.5923 4.99786 31.7066C4.99786 31.4027 4.99786 31.0988 4.99786 30.7949C4.99786 30.0859 5.09986 29.3768 5.20185 28.6677C5.60985 25.7302 7.24183 22.9952 9.6898 21.1719Z" fill="white"/>
<path d="M134.945 114.059C132.191 114.059 129.335 114.362 126.581 114.464C123.929 114.565 121.277 114.768 118.523 114.869C113.015 115.173 107.609 115.477 102.101 115.781C91.1872 116.388 80.2733 116.996 69.4615 117.604C66.4015 117.806 63.3416 117.908 60.2816 118.11C57.3236 118.313 54.2637 118.313 51.2037 118.819C50.9997 118.819 51.1017 119.123 51.2037 119.123C53.9577 119.225 56.8136 118.921 59.5676 118.819C62.2196 118.718 64.8715 118.516 67.6255 118.414C73.0314 118.11 78.4373 117.806 83.8433 117.503C94.7571 116.895 105.671 116.287 116.483 115.679C119.543 115.477 122.603 115.375 125.663 115.173C128.723 114.97 131.783 114.97 134.843 114.565C135.251 114.565 135.251 114.059 134.945 114.059Z" fill="#D8D8D8"/>
<path d="M123.622 112.844C108.731 113.755 93.8388 114.464 78.947 115.477C74.765 115.781 70.5831 116.085 66.2992 116.389C66.1972 116.389 66.1972 116.592 66.2992 116.592C81.191 115.984 96.0828 115.072 110.975 114.161L123.622 113.452C123.928 113.452 123.928 112.844 123.622 112.844Z" fill="#D8D8D8"/>
<path d="M136.678 99.5746C135.352 99.5746 134.128 99.8784 132.904 100.182C131.578 100.486 130.15 100.689 128.824 100.993C126.172 101.499 123.52 102.006 120.766 102.512C115.36 103.525 109.954 104.437 104.548 105.348C93.8385 107.07 83.0266 108.59 72.3168 110.211C69.3588 110.616 66.2989 111.021 63.3409 111.426C60.2809 111.831 57.017 112.034 53.957 112.743V112.844C56.609 112.844 59.261 112.439 61.9129 112.135C64.5649 111.831 67.3188 111.527 69.9708 111.122C75.4787 110.413 80.8847 109.704 86.2906 108.894C97.0004 107.273 107.812 105.551 118.42 103.626C121.378 103.12 124.438 102.512 127.396 102.006C128.926 101.702 130.354 101.398 131.884 101.195C133.516 100.891 135.148 100.689 136.678 100.081C136.882 99.7771 136.882 99.4733 136.678 99.5746Z" fill="#D8D8D8"/>
<path d="M120.562 100.281C113.728 101.294 106.996 102.408 100.264 103.523C93.5322 104.637 86.6983 105.549 79.8644 106.562C77.9264 106.865 75.9884 107.169 74.0505 107.473C72.3165 107.777 70.2765 107.878 68.6445 108.587V108.689C70.1745 108.891 71.9085 108.486 73.4385 108.182C75.1724 107.878 76.8044 107.676 78.5384 107.372C81.9043 106.865 85.3723 106.359 88.7383 105.751C95.5722 104.637 102.304 103.624 109.138 102.611C113.014 102.003 116.89 101.395 120.868 100.788C121.174 100.889 120.97 100.281 120.562 100.281Z" fill="#D8D8D8"/>
<path d="M7.95703 12.9674L46.3085 109.501L46.9205 108.083L10.099 12.4609" fill="white"/>
<path d="M49.3673 125.302C48.4493 124.896 44.4714 121.756 44.3694 117.401C44.1654 113.45 46.6134 110.614 47.9394 109.702C55.6912 108.487 63.4431 107.17 71.297 105.954C79.5589 104.637 87.8208 103.219 96.0827 101.801L119.95 97.7494H120.154L120.868 97.6481C129.028 96.23 137.29 94.8119 145.45 93.2925C145.552 93.2925 145.552 93.2925 145.654 93.2925L148 92.8873L146.776 90.7601C138.82 77.0853 130.66 63.5118 122.602 49.9383C118.522 43.1516 114.442 36.3648 110.362 29.5781C106.283 22.7913 102.101 16.0046 98.0207 9.31912L94.8587 4.25438L93.3287 1.72201L92.9207 1.11424L92.7167 0.810357C92.6147 0.709062 92.6147 0.607766 92.4108 0.405177C92.3088 0.303882 92.2067 0.202588 92.2067 0.101293C92.1047 -1.54972e-06 91.9008 0 91.7988 0C91.6968 0 91.5948 0 91.5948 0C91.4928 0 91.3908 0 91.3908 0H91.1868L90.3708 0.101293C86.3928 0.607767 82.5169 1.21554 78.5389 1.72201L54.8753 5.06474L43.0434 6.68545L31.2116 8.20487L7.5479 11.1424H7.3439L7.1399 10.9398C6.52791 11.2437 5.91592 11.5476 5.30393 11.8515C4.69194 12.2567 4.07994 12.5605 3.56995 13.067C2.95796 13.4722 2.54997 14.08 2.03997 14.5864L1.42798 15.4981C1.22398 15.802 1.12199 16.1059 0.917989 16.4097C0.305997 17.7266 0 19.246 0 20.6641C0 21.3732 0.101999 22.0823 0.203998 22.7913C0.305997 23.0952 0.305997 23.5004 0.407996 23.8043L0.509993 24.1081L0.713991 24.6146L1.12198 25.7289L1.42798 26.6405L2.14197 28.4638L3.56995 32.0091C4.48794 34.3389 5.50792 36.6687 6.42591 38.9985C8.36389 43.658 10.4039 48.3176 12.3418 52.9771L18.3598 66.9558C22.4397 76.2749 26.4176 85.5941 30.5996 94.8119C32.6396 99.4714 34.7815 104.03 36.8215 108.689L39.9835 115.577L41.6154 119.021L42.4314 120.743L42.8394 121.655C43.0434 121.959 43.2474 122.263 43.4514 122.567C44.6754 125.2 46.7154 127.125 48.6533 127.429C51.7133 127.935 144.226 121.148 144.94 121.047C145.654 120.845 146.164 119.933 145.45 119.224C144.94 118.515 50.1833 125.707 49.3673 125.302ZM42.2274 118.819L40.7994 115.273L37.9435 108.183C36.1075 103.422 34.1695 98.7624 32.3336 94.1028C28.5596 84.6824 24.6837 75.3633 20.8077 65.9429L14.9938 51.8629L9.17988 37.8842L6.22191 30.8949L4.69193 27.3496L3.26396 24.0069L3.16196 23.703C3.16196 23.5004 3.05996 23.2978 3.05996 23.0952L2.85596 22.1835C2.75396 21.5758 2.65196 21.0693 2.54997 20.4615C2.44797 19.3473 2.65196 18.3343 3.05996 17.3214C3.16196 17.1188 3.26396 16.8149 3.46795 16.6123L3.87595 15.9033C4.28394 15.4981 4.58994 15.0929 4.99793 14.6877C5.40593 14.2826 5.91592 13.9787 6.42591 13.6748C6.83391 13.3709 7.3439 13.1683 7.85389 12.8644L31.2116 9.21782L43.0434 7.39451L54.8753 5.7738C62.7292 4.65956 70.685 3.64661 78.5389 2.63366C82.5169 2.12719 86.4948 1.72201 90.3708 1.31683L91.0848 1.21554L91.1868 1.31683L91.3908 1.62071L91.7988 2.22848L93.3287 4.76085L96.2867 9.92688C104.141 23.703 111.994 37.479 119.95 51.1538C127.498 64.1196 134.944 77.1866 142.594 90.1523C135.148 91.4691 127.702 92.8873 120.256 94.3054L95.5727 99.0663C89.1468 100.282 82.6189 101.599 76.193 102.814C59.9752 105.448 47.2254 107.676 46.6134 107.879C44.9814 108.385 41.9214 112.741 42.3294 117.704C42.3294 118.312 42.4314 118.92 42.5334 119.528L42.2274 118.819Z" fill="black"/>
<path d="M115.564 106.055L107.098 107.372C109.546 110.005 117.196 119.324 113.32 131.581L118.624 127.327L122.193 132.999C122.193 132.999 126.987 115.982 115.564 106.055Z" fill="black"/>
<path d="M73.3401 81.3394C91.0284 81.3394 105.368 68.7318 105.368 53.1795C105.368 37.6272 91.0284 25.0195 73.3401 25.0195C55.6517 25.0195 41.3125 37.6272 41.3125 53.1795C41.3125 68.7318 55.6517 81.3394 73.3401 81.3394Z" fill="white"/>
<path d="M73.3392 24.8164C77.3172 24.8164 81.2951 25.4242 85.0691 26.5384C88.843 27.6527 92.617 29.476 95.8809 31.907C99.1449 34.3381 101.899 37.4782 103.837 41.2262C105.775 44.8728 106.693 49.0258 106.591 53.1789C106.489 57.332 105.265 61.3838 103.327 64.9291C101.389 68.4744 98.6349 71.5133 95.5749 74.0456C89.353 79.1104 81.3971 81.9466 73.3392 82.2505C65.2813 82.5544 56.9175 80.022 50.4915 74.856C47.3296 72.2223 44.5756 68.9809 42.6376 65.3343C40.6997 61.6877 39.6797 57.4333 39.6797 53.2802C39.6797 49.1271 40.8017 44.9741 42.7396 41.2262C44.6776 37.5795 47.5336 34.4394 50.7975 32.0083C54.0615 29.5773 57.7334 27.754 61.6094 26.6397C65.3833 25.4242 69.3613 24.8164 73.3392 24.8164ZM73.3392 25.1203C69.3613 25.1203 65.4853 25.8294 61.8134 27.3488C58.1414 28.7669 54.8775 30.8941 52.0215 33.4265C46.4116 38.5925 42.8416 45.7844 42.9436 53.1789C42.9436 60.5734 46.5136 67.7654 52.3275 72.6275C58.0394 77.4897 65.5873 80.3259 73.3392 80.6298C77.2152 80.7311 81.0911 80.2246 84.7631 79.0091C88.435 77.7935 91.903 75.8689 94.8609 73.3366C100.777 68.3731 104.245 60.6747 103.939 53.1789C103.735 45.6831 100.165 38.5925 94.5549 33.4265C91.699 30.8941 88.435 28.7669 84.7631 27.3488C81.1931 25.8294 77.2152 25.1203 73.3392 25.1203Z" fill="black"/>
<path d="M63.341 48.5188C63.137 48.4175 62.933 48.3162 62.831 48.1136C62.525 47.8097 62.321 47.1007 62.321 46.8981C62.321 46.5942 62.525 46.4929 62.627 46.4929C62.627 46.4929 62.729 46.4929 62.729 46.5942V46.7968C62.729 46.8981 62.831 46.9994 62.831 47.1007C63.035 47.3033 63.137 47.4046 63.239 47.4046C63.341 47.4046 63.647 47.1007 63.953 46.7968C64.157 46.5942 64.157 46.4929 64.157 46.2903L64.259 45.7839C64.259 45.5813 64.259 45.3787 64.259 45.1761C64.259 44.9735 64.259 44.8722 64.259 44.7709C64.259 44.6696 64.259 44.467 64.055 43.8593C63.851 43.3528 63.851 43.1502 63.545 42.8463C63.341 42.5424 63.137 42.3398 62.729 42.1372C62.423 41.9347 62.321 41.9346 62.117 42.0359C62.015 42.1372 61.811 42.3398 61.607 42.6437C61.505 42.745 61.505 42.8463 61.403 42.9476C61.301 43.0489 61.301 43.1502 61.199 43.2515C61.199 43.3528 61.097 43.5554 60.995 43.6567C60.893 43.8593 60.587 44.6696 60.485 44.9735C60.383 45.6826 60.383 45.8852 60.383 46.189V46.5942C60.383 46.5942 60.383 46.8981 60.383 47.202C60.383 47.5059 60.383 47.911 60.383 47.911C60.383 47.911 60.383 48.1136 60.383 48.2149C60.383 48.5188 60.383 48.7214 60.179 48.924C60.077 49.1266 60.077 49.1266 59.873 49.1266C59.669 49.1266 59.567 49.1266 59.363 48.8227C59.261 48.6201 59.261 48.5188 59.159 48.3162C59.159 48.2149 59.057 48.0123 59.057 47.8097C58.955 47.7085 58.955 47.6072 58.955 47.5059C58.955 47.4046 58.853 47.1007 58.751 46.6955C58.751 46.5942 58.649 46.189 58.547 45.7839C58.445 45.3787 58.343 45.0748 58.343 44.8722C58.241 44.5683 58.241 44.3657 58.241 44.1631C58.241 44.0618 58.241 43.8593 58.241 43.758C58.241 43.6567 58.241 43.4541 58.241 43.1502V42.6437C58.241 42.6437 58.241 42.4411 58.241 42.2385C58.241 41.8334 58.1391 41.4282 57.9351 40.8204C57.8331 40.6178 57.8331 40.5165 57.9351 40.3139V39.8075C57.9351 39.5036 57.9351 39.5036 57.8331 39.1997L57.7311 38.8958L57.8331 38.3893L57.7311 38.1867C57.5271 37.8829 57.5271 37.6803 57.7311 37.2751C57.7311 37.1738 57.6291 37.2751 57.5271 37.3764C57.5271 37.4777 57.3231 37.6803 57.2211 37.6803C57.0171 37.8829 56.7111 38.288 56.5071 38.5919C56.4051 38.8958 56.3031 38.9971 56.3031 39.5036C56.3031 39.8075 56.2011 39.9088 56.0991 39.9088C55.8951 40.1113 55.5891 39.9088 55.4871 39.6049L55.3851 39.301C55.2831 39.0984 55.2831 38.6932 55.3851 38.3893L55.4871 38.0855C55.4871 37.8829 55.5891 37.7816 55.7931 37.4777L56.3031 36.9712C56.4051 36.7686 56.6091 36.566 56.7111 36.4647L57.1191 36.0596C57.2211 35.9583 57.4251 35.857 57.5271 35.7557C57.6291 35.6544 57.8331 35.6544 57.8331 35.6544C57.9351 35.5531 58.3431 35.3505 58.4451 35.2492C58.547 35.2492 58.751 35.1479 58.751 35.1479C58.853 35.0466 58.955 35.0466 59.261 35.0466C59.771 34.9453 60.179 35.0466 60.485 35.0466C60.791 35.1479 61.199 35.1479 61.301 35.1479C61.403 35.1479 61.811 35.2492 61.913 35.3505C62.015 35.3505 62.117 35.4518 62.117 35.4518C62.219 35.4518 62.423 35.5531 62.627 35.6544C62.933 35.7557 63.035 35.7557 63.137 35.7557C63.443 35.7557 63.647 35.6544 63.749 35.5531C63.851 35.4518 63.851 35.4518 63.851 35.2492C63.851 35.0466 63.851 34.9453 63.953 34.9453C64.055 34.9453 64.157 35.0466 64.259 35.1479C64.259 35.2492 64.361 35.3505 64.361 35.5531C64.361 36.0596 64.259 36.2621 63.851 36.4647C63.647 36.566 63.545 36.566 63.239 36.6673C62.321 36.7686 62.015 36.7686 61.097 36.6673C60.995 36.6673 60.791 36.566 60.689 36.566C60.587 36.566 60.383 36.566 60.077 36.4647C59.771 36.3634 59.669 36.3634 59.465 36.4647C59.159 36.566 59.159 36.566 59.363 36.8699C59.363 37.0725 59.465 37.2751 59.465 37.3764C59.567 37.4777 59.567 37.7816 59.669 38.8958C59.873 40.5165 59.873 40.5165 59.975 40.7191C60.077 40.9217 60.077 41.2256 60.077 41.3269C60.077 41.4282 60.077 41.6308 60.077 41.8334C60.077 42.0359 60.077 42.2385 60.077 42.3398C60.077 42.4411 60.077 42.4411 60.077 42.2385C60.077 42.1372 60.179 41.9347 60.281 41.8334C60.383 41.7321 60.383 41.5295 60.485 41.4282C60.587 41.1243 60.689 40.9217 60.995 40.6178L61.301 40.3139C61.403 40.2126 61.505 40.1113 61.709 40.01C61.913 39.9088 62.015 39.8075 62.219 39.8075C62.729 39.7062 63.035 39.8075 63.443 40.01L63.953 40.3139C64.463 40.5165 64.667 40.7191 64.769 41.1243C64.769 41.2256 64.871 41.4282 64.973 41.5295C65.177 41.7321 65.279 42.036 65.279 42.1372C65.279 42.2385 65.381 42.3398 65.381 42.4411C65.381 42.5424 65.483 42.8463 65.585 43.0489L65.687 43.6567C65.8909 44.1631 65.8909 44.3657 65.8909 44.7709C65.8909 44.9735 65.8909 45.2774 65.8909 45.3787C65.8909 45.48 65.8909 45.6826 65.8909 45.7839C65.7889 45.9864 65.687 46.4929 65.585 46.6955L65.4829 46.9994C65.381 47.202 65.381 47.4046 65.075 47.6072C64.769 47.8097 64.667 47.911 64.361 48.0123C64.055 48.6201 63.545 48.6201 63.341 48.5188Z" fill="black"/>
<path d="M72.2142 46.3913C72.0102 46.3913 71.8062 46.1887 71.5002 45.9861C71.1943 45.6822 71.1943 45.6822 71.0923 45.277L70.8883 44.7706L70.7863 44.568C70.7863 44.568 70.3783 45.0744 70.2763 45.3783C70.1743 45.5809 70.0723 45.6822 69.9703 45.7835C69.5623 46.0874 69.1543 46.1887 68.7463 45.9861L68.4403 45.8848C68.2363 45.7835 68.1343 45.6822 67.9303 45.5809L67.6243 45.277C67.3183 44.9731 67.2163 44.8719 67.2163 44.3654C67.2163 44.0615 67.1143 43.9602 67.1143 43.8589C66.9103 43.555 66.9103 43.2511 67.0123 43.0485C67.0123 42.9472 67.1143 42.7447 67.1143 42.6434C67.1143 42.5421 67.1143 42.3395 67.2163 42.2382C67.2163 42.1369 67.3183 41.9343 67.3183 41.7317C67.3183 41.6304 67.4203 41.4278 67.4203 41.3265C67.4203 41.2252 67.5223 41.0227 67.5223 40.9214C67.6243 40.5162 68.0323 39.9084 68.5423 39.5032C68.5423 39.5032 68.7463 39.4019 68.9503 39.3006C69.3583 39.0981 69.5623 39.0981 69.9703 39.1993C70.3783 39.1993 70.4803 39.3006 70.5823 39.5032L70.8883 39.8071C70.9903 39.9084 71.0923 40.0097 71.1943 40.111L71.3983 40.4149C71.5003 40.5162 71.7043 41.1239 71.7043 41.5291C71.7043 41.7317 71.8062 41.833 71.8062 41.833C72.0102 41.833 72.2142 42.1369 72.3162 42.3395C72.3162 42.4408 72.4182 42.5421 72.4182 42.6434C72.5202 42.7447 72.5202 42.846 72.6222 42.9473L72.7242 43.4537L72.8262 44.0615C72.8262 44.1628 72.9282 44.3654 72.9282 44.4667C72.9282 44.568 73.0302 44.6693 73.0302 44.8719C73.1322 44.9731 73.1322 45.0744 73.1322 45.0744C73.1322 45.0744 73.3362 44.7706 73.5402 44.4667L73.7442 43.9602C73.8462 43.8589 73.9482 43.555 73.9482 43.4537L74.0502 43.1498L74.1522 42.846L74.3562 42.1369C74.4582 41.7317 74.4582 41.6304 74.6622 41.4278C74.7642 41.2252 74.8662 41.124 74.9682 41.124C75.0702 41.124 75.0702 41.124 75.1722 41.124C75.2742 41.2252 75.2742 41.2252 75.2742 41.7317C75.2742 42.1369 75.2742 42.2382 75.0702 42.5421L74.8662 43.1498C74.8662 43.3524 74.6622 43.6563 74.6622 43.8589C74.5602 44.0615 74.5602 44.1628 74.5602 44.2641C74.5602 44.3654 74.4582 44.6693 74.2542 45.0744L74.0502 45.4796C73.9482 45.6822 73.4382 46.29 73.3362 46.3913C72.8262 46.3913 72.5202 46.4926 72.2142 46.3913ZM69.8683 44.1628L70.0723 43.8589C70.0723 43.7576 70.1743 43.6563 70.1743 43.6563C70.1743 43.6563 70.2763 43.4537 70.3783 43.3524C70.4803 43.2511 70.4803 43.1498 70.4803 43.1498C70.4803 43.1498 70.5823 43.0485 70.6843 42.846C70.8883 42.5421 70.9903 42.2382 70.8883 42.1369C70.8883 42.1369 70.8883 42.0356 70.7863 42.0356C70.7863 41.9343 70.6843 41.9343 70.6843 41.833C70.5823 41.6304 70.5823 41.6304 70.3783 41.3265C70.1743 40.9214 69.9703 40.7188 69.8683 40.6175C69.8683 40.6175 69.7663 40.5162 69.6643 40.5162C69.5623 40.5162 69.4603 40.4149 69.4603 40.4149C69.3583 40.4149 69.0523 40.9214 69.0523 41.0226C69.0523 41.1239 69.0523 41.2252 69.0523 41.2252C69.0523 41.4278 69.0523 41.6304 68.9503 41.833C68.9503 41.9343 68.8483 42.0356 68.9503 42.2382C68.9503 42.3395 68.9503 42.5421 68.9503 42.7447C68.8483 43.0485 68.9503 43.6563 69.1543 43.8589C69.1543 43.9602 69.2563 44.0615 69.2563 44.1628C69.3583 44.3654 69.3583 44.568 69.4603 44.568C69.4603 44.568 69.7663 44.2641 69.8683 44.1628Z" fill="black"/>
<path d="M76.0908 50.0394C75.6828 49.9381 75.4788 49.8368 75.1728 49.4316C74.8668 49.0264 74.8668 48.9251 74.8668 48.52C74.8668 48.1148 74.9688 47.8109 75.1728 47.2031C75.3768 46.6967 75.4788 46.4941 75.9888 45.6837C76.6007 44.6708 76.8047 44.4682 76.9067 44.3669C77.0087 44.3669 77.0087 44.2656 77.1107 44.1643C77.1107 44.063 77.2127 43.9617 77.3147 43.8604C77.4167 43.7591 77.4167 43.6578 77.4167 43.4552C77.3147 43.1513 76.9067 42.9487 76.6007 42.9487C76.2948 42.9487 76.1928 42.8475 76.0908 42.7462C75.9888 42.5436 75.7848 42.0371 75.7848 41.7332V41.328L75.8868 40.9228C75.9888 40.619 75.9888 40.1125 75.8868 40.1125C75.6828 40.0112 75.1728 40.9229 75.1728 41.328C75.1728 41.6319 74.9688 41.9358 74.6628 41.9358C74.4588 41.9358 74.3568 41.9358 74.2548 41.7332C74.0508 41.5306 74.0508 41.328 74.0508 40.9228C74.0508 40.5177 74.0508 40.5177 74.3568 39.9099C74.3568 39.8086 74.7648 39.4034 74.9688 39.2008C75.0708 39.0995 75.1728 38.9982 75.2748 38.9982C75.8868 38.6944 76.3968 38.897 76.8047 39.4034C77.0087 39.7073 77.2127 40.1125 77.2127 40.619C77.2127 41.0241 77.2127 41.0241 77.1107 41.4293L77.0087 41.9358L77.2127 42.0371C77.3147 42.0371 77.5187 42.2397 77.6207 42.341C77.9267 42.6449 78.0287 42.7462 78.2327 42.8475L78.3347 42.7462C78.4367 42.6449 78.4367 42.5436 78.4367 42.5436C78.4367 42.5436 78.8447 42.1384 79.0487 41.8345C79.1507 41.7332 79.2527 41.5306 79.3547 41.4293C79.4567 41.328 79.5587 41.2267 79.6607 41.1254C79.7627 41.0241 79.8647 40.8216 79.9667 40.7203L80.1707 40.4164C80.2727 40.3151 80.6807 40.0112 80.7827 40.0112C80.9867 40.0112 81.0887 40.2138 80.9867 40.4164C80.8847 40.619 80.1707 41.6319 79.8647 42.0371C79.7627 42.2397 79.4567 42.5436 79.1507 42.9487C79.0487 43.05 78.9467 43.1513 78.8447 43.2526C78.5387 43.5565 78.5387 43.5565 78.7427 43.7591C78.7427 43.8604 78.8447 44.063 78.8447 44.1643C78.8447 44.2656 78.9467 44.4682 79.0487 44.5695C79.1507 44.772 79.1507 44.7721 79.2527 45.2785C79.5587 45.4811 79.5587 45.8863 79.5587 45.8863V46.1902C79.5587 46.3928 79.5587 46.4941 79.4567 46.5954C79.3547 46.8992 79.1507 47.9122 78.7427 48.6212C78.6407 48.9251 78.5387 48.9251 78.4367 49.0264C78.3347 49.1277 78.1307 49.229 78.1307 49.3303C77.9267 49.5329 77.4167 49.9381 77.2127 49.9381C77.1107 49.9381 76.9067 50.0394 76.7027 50.0394C76.4987 50.1407 76.3967 50.1407 76.0908 50.0394ZM76.9067 48.3174C77.2127 48.0135 77.5187 47.8109 77.7227 47.4057C77.9267 47.1018 77.9267 47.0005 78.0287 46.8992C78.0287 46.7979 78.0287 46.5954 78.1307 46.4941C78.1307 46.3928 78.2327 46.1902 78.2327 45.9876C78.2327 45.8863 78.2327 45.6837 78.2327 45.6837C78.2327 45.5824 78.2327 45.4811 78.2327 45.1772C78.2327 44.9746 78.1307 44.7721 78.1307 44.7721C78.1307 44.7721 77.5187 45.5824 77.5187 45.6837C77.5187 45.785 77.3147 46.0889 77.2127 46.2915C77.0087 46.5954 76.9067 46.8992 76.7027 47.3044C76.4987 47.7096 76.4987 47.9122 76.4987 48.2161C76.4987 48.3174 76.4987 48.4187 76.6007 48.4187C76.6007 48.52 76.7027 48.52 76.9067 48.3174Z" fill="black"/>
<path d="M85.9838 43.6569C85.7798 43.6569 85.5758 43.4543 85.2698 43.2517C84.9638 42.9478 84.9638 42.9478 84.8618 42.5427L84.6578 42.0362L84.5558 41.8336C84.5558 41.8336 84.1478 42.3401 84.0458 42.644C83.9438 42.8465 83.8418 42.9478 83.7398 43.0491C83.3318 43.353 82.9238 43.4543 82.5158 43.2517L82.2098 43.1504C82.0058 43.0491 81.9038 42.9478 81.6998 42.8465L81.3938 42.5427C81.0878 42.2388 80.9858 42.1375 80.9858 41.631C80.9858 41.3271 80.8838 41.2258 80.8838 41.1245C80.6798 40.8207 80.6798 40.5168 80.7818 40.3142C80.7818 40.2129 80.8838 40.0103 80.8838 39.909C80.8838 39.8077 80.8838 39.6051 80.9858 39.5038C80.9858 39.4025 81.0878 39.1999 81.0878 38.9973C81.0878 38.896 81.1898 38.6935 81.1898 38.5922C81.1898 38.4909 81.2918 38.2883 81.2918 38.187C81.3938 37.7818 81.8018 37.174 82.3118 36.7689C82.3118 36.7689 82.5158 36.6676 82.7198 36.5663C83.1278 36.3637 83.3318 36.3637 83.7398 36.465C84.1478 36.465 84.2498 36.5663 84.3518 36.7689L84.6578 37.0727C84.7598 37.174 84.8618 37.2753 84.9638 37.3766L85.1678 37.6805C85.2698 37.7818 85.4738 38.3896 85.4738 38.7948C85.4738 38.9973 85.5758 39.0986 85.5758 39.0986C85.7798 39.0986 85.9838 39.4025 86.0858 39.6051C86.0858 39.7064 86.1878 39.8077 86.1878 39.909C86.2898 40.0103 86.2898 40.1116 86.3918 40.2129L86.4938 40.7194L86.5958 41.3271C86.5958 41.4284 86.6978 41.631 86.6978 41.7323C86.6978 41.8336 86.7998 41.9349 86.7998 42.1375C86.9018 42.2388 86.9018 42.3401 86.9018 42.3401C86.9018 42.3401 87.1058 42.0362 87.3098 41.7323L87.5138 41.2258C87.6158 41.1245 87.7177 40.8206 87.7177 40.7194L87.8197 40.4155L87.9217 40.1116L88.1257 39.4025C88.2277 38.9973 88.2277 38.896 88.4317 38.6935C88.5337 38.4909 88.6357 38.3896 88.7377 38.3896C88.8397 38.3896 88.8397 38.3896 88.9417 38.3896C89.0437 38.4909 89.0437 38.4909 89.0437 38.9973C89.0437 39.4025 89.0437 39.5038 88.8397 39.8077L88.6357 40.4155C88.6357 40.6181 88.4317 40.9219 88.4317 41.1245C88.3297 41.3271 88.3297 41.4284 88.3297 41.5297C88.3297 41.631 88.2277 41.9349 88.0237 42.3401L87.8197 42.7453C87.7177 42.9478 87.2078 43.5556 87.1058 43.6569C86.5958 43.6569 86.1878 43.6569 85.9838 43.6569ZM83.6378 41.3271L83.8418 41.0232C83.8418 40.9219 83.9438 40.8206 83.9438 40.8206C83.9438 40.8206 84.0458 40.6181 84.1478 40.5168C84.2498 40.4155 84.2498 40.3142 84.2498 40.3142C84.2498 40.3142 84.3518 40.2129 84.4538 40.0103C84.6578 39.7064 84.7598 39.4025 84.6578 39.3012C84.6578 39.3012 84.6578 39.1999 84.5558 39.1999C84.5558 39.0986 84.4538 39.0986 84.4538 38.9973C84.3518 38.7948 84.3518 38.7948 84.1478 38.4909C83.9438 38.0857 83.7398 37.8831 83.6378 37.7818C83.6378 37.7818 83.5358 37.6805 83.4338 37.6805C83.3318 37.6805 83.2298 37.5792 83.2298 37.5792C83.1278 37.5792 82.8218 38.0857 82.8218 38.187C82.8218 38.2883 82.8218 38.3896 82.8218 38.3896C82.8218 38.5922 82.8218 38.7948 82.7198 38.9973C82.7198 39.0986 82.6178 39.1999 82.7198 39.4025C82.7198 39.5038 82.7198 39.7064 82.7198 39.909C82.6178 40.2129 82.7198 40.8206 82.9238 41.0232C82.9238 41.1245 83.0258 41.2258 83.0258 41.3271C83.1278 41.5297 83.1278 41.7323 83.2298 41.7323C83.1278 41.8336 83.5358 41.5297 83.6378 41.3271Z" fill="black"/>
<path d="M55.3837 73.5394C54.9757 73.4381 54.7717 73.3368 54.4657 72.9316C54.1597 72.5264 54.1597 72.4251 54.1597 72.02C54.1597 71.6148 54.2617 71.3109 54.4657 70.7031C54.6697 70.1966 54.7717 69.9941 55.2817 69.1837C55.8937 68.1708 56.0977 67.9682 56.1997 67.8669C56.3017 67.8669 56.3017 67.7656 56.4037 67.6643C56.4037 67.563 56.5057 67.4617 56.6077 67.3604C56.7097 67.2591 56.7097 67.1578 56.7097 66.9552C56.6077 66.6513 56.1997 66.4487 55.8937 66.4487C55.5877 66.4487 55.4857 66.3474 55.3837 66.2461C55.2817 66.0436 55.0777 65.5371 55.0777 65.2332V64.828L55.1797 64.4228C55.2817 64.119 55.2817 63.6125 55.1797 63.6125C54.9757 63.5112 54.4657 64.4228 54.4657 64.828C54.4657 65.1319 54.2617 65.4358 53.9557 65.4358C53.7517 65.4358 53.6497 65.4358 53.5477 65.2332C53.3437 65.0306 53.3438 64.828 53.3438 64.4228C53.3438 64.0177 53.3437 64.0177 53.6497 63.4099C53.6497 63.3086 54.0577 62.9034 54.2617 62.7008C54.3637 62.5995 54.4657 62.4982 54.5677 62.4982C55.1797 62.1944 55.6897 62.397 56.0977 62.9034C56.3017 63.2073 56.5057 63.6125 56.5057 64.119C56.5057 64.5241 56.5057 64.5241 56.4037 64.9293L56.3017 65.4358L56.5057 65.5371C56.6077 65.5371 56.8117 65.7397 56.9137 65.841C57.2197 66.1449 57.3217 66.2461 57.5257 66.3474L57.6277 66.2461C57.7297 66.1449 57.7297 66.0436 57.7297 66.0436C57.7297 66.0436 58.1377 65.6384 58.3417 65.3345C58.4437 65.2332 58.5457 65.0306 58.6477 64.9293C58.7497 64.828 58.8517 64.7267 58.9537 64.6254C59.0557 64.5241 59.1577 64.3215 59.2597 64.2203L59.4637 63.9164C59.5657 63.8151 59.9737 63.5112 60.0757 63.5112C60.2797 63.5112 60.3816 63.7138 60.2797 63.9164C60.1777 64.119 59.4637 65.1319 59.1577 65.5371C59.0557 65.7397 58.7497 66.0436 58.4437 66.4487C58.3417 66.55 58.2397 66.6513 58.1377 66.7526C58.1377 66.9552 58.1377 66.9552 58.2397 67.1578C58.2397 67.2591 58.3417 67.4617 58.3417 67.563C58.3417 67.6643 58.4437 67.8669 58.5457 67.9682C58.6477 68.1708 58.6477 68.1708 58.7497 68.6772C58.8517 68.9811 58.8517 69.285 58.8517 69.3863V69.6902C58.8517 69.8928 58.8517 69.9941 58.7497 70.0954C58.6477 70.3992 58.4437 71.4122 58.0357 72.1212C57.9337 72.4251 57.8317 72.4251 57.7297 72.5264C57.6277 72.6277 57.4237 72.729 57.4237 72.8303C57.2197 73.0329 56.7097 73.4381 56.5057 73.4381C56.4037 73.4381 56.1997 73.5394 55.9957 73.5394C55.7917 73.6407 55.6897 73.6407 55.3837 73.5394ZM56.1997 71.8174C56.5057 71.5135 56.8117 71.3109 57.0157 70.9057C57.2197 70.6018 57.2197 70.5005 57.3217 70.3992C57.3217 70.2979 57.3217 70.0954 57.4237 69.9941C57.4237 69.8928 57.5257 69.6902 57.5257 69.4876C57.5257 69.3863 57.5257 69.1837 57.5257 69.1837C57.5257 69.0824 57.5257 68.9811 57.5257 68.6772C57.5257 68.4746 57.4237 68.272 57.4237 68.272C57.4237 68.272 56.8117 69.0824 56.8117 69.1837C56.8117 69.285 56.6077 69.5889 56.5057 69.7915C56.3017 70.0954 56.1997 70.3992 55.9957 70.8044C55.7917 71.2096 55.7917 71.4122 55.7917 71.7161C55.7917 71.8174 55.7917 71.9187 55.8937 71.9187C55.8937 72.0199 55.9957 72.02 56.1997 71.8174Z" fill="black"/>
<path d="M61.0964 60.3692C61.3004 60.5718 61.3004 60.6731 61.3004 60.7744L61.6064 62.3951H61.8104C62.1164 62.2938 62.3204 62.1925 62.8304 61.7873C63.0344 61.5848 63.0344 61.3822 63.0344 61.1796C63.0344 60.977 63.0344 60.977 63.2384 60.2679C63.3404 59.964 63.5443 59.7615 63.8503 59.6602C64.0543 59.6602 64.3603 59.6602 64.4623 59.7614C64.5643 59.7614 64.6663 59.964 64.7683 60.1666C64.8703 60.4705 64.9723 60.5718 65.0743 60.8757C65.1763 61.1796 65.1763 61.3822 65.1763 61.4835C65.1763 61.5848 65.1763 61.686 65.1763 61.7873C65.1763 61.8886 65.1763 61.9899 65.1763 62.0912C65.1763 62.1925 65.1763 62.3951 65.1763 62.5977C65.1763 62.8003 65.2783 63.1042 65.2783 63.3068C65.2783 63.8132 65.2783 64.0158 65.4823 64.5223C65.5843 64.8262 65.6863 64.9275 65.8903 64.9275C65.9923 64.9275 66.2983 64.7249 66.5023 64.5223C66.7063 64.421 67.1143 63.8132 67.1143 63.7119C67.1143 63.6107 67.3183 63.4081 67.5223 63.1042L67.6243 62.9016C67.6243 62.9016 67.7263 62.5977 67.9303 62.2938L68.1343 61.9899C68.1343 61.8886 68.2363 61.8886 68.2363 61.8886C68.2363 61.8886 67.9303 62.8003 67.9303 62.9016L67.7263 63.4081C67.6243 63.6107 67.5223 63.9145 67.5223 63.9145L67.3183 64.1171C67.1143 64.5223 66.9103 64.8262 66.5023 65.1301C66.0943 65.434 66.0943 65.5353 65.7883 65.6365C65.3803 65.7378 65.2783 65.7378 64.8703 65.6365C64.6663 65.5353 64.5643 65.5353 64.2583 65.2314C64.0543 64.9275 63.8503 64.8262 63.8503 64.7249C63.6463 64.2184 63.4424 63.5094 63.2384 62.9016C63.2384 62.699 63.1364 62.4964 63.0344 62.4964L62.8304 62.699C62.6264 62.9016 62.2184 63.1042 61.9124 63.2055C61.6064 63.3068 61.6064 63.3068 61.7084 63.6107C61.7084 63.7119 61.7084 63.9145 61.7084 64.1171C61.7084 64.3197 61.7084 64.5223 61.7084 64.6236C61.7084 64.6236 61.7084 64.8262 61.7084 64.9275C61.7084 65.0288 61.7084 65.3327 61.7084 65.434C61.7084 65.8391 61.5044 66.2443 61.1984 66.2443C60.8924 66.3456 60.5864 66.0417 60.4844 65.8391C60.4844 65.7378 60.2804 65.3327 60.1784 65.1301C59.9744 64.8262 59.7704 63.9145 59.7704 63.5094C59.7704 63.3068 59.6684 63.2055 59.6684 63.1042C59.5664 62.9016 59.5664 62.8003 59.5664 62.5977C59.5664 62.3951 59.5664 62.1925 59.5664 62.0912C59.5664 61.9899 59.5664 61.7873 59.5664 61.5848C59.5664 61.1796 59.5664 60.7744 59.6684 60.5718C59.7704 60.3692 59.9744 60.1666 60.0764 60.1666C60.4844 59.964 60.7904 60.0653 61.0964 60.3692Z" fill="black"/>
<path d="M72.9291 65.6374C72.7251 65.6374 72.5211 65.4348 72.2151 65.2322C71.9091 64.9283 71.9091 64.9283 71.8071 64.5231L71.6031 64.0167L71.5011 63.8141C71.5011 63.8141 71.0931 64.3205 70.9911 64.6244C70.8891 64.827 70.7871 64.9283 70.6851 65.0296C70.2771 65.3335 69.8691 65.4348 69.4611 65.2322L69.1551 65.1309C68.9511 65.0296 68.8491 64.9283 68.6451 64.827L68.3391 64.5231C68.0331 64.2192 67.9311 64.1179 67.9311 63.6115C67.9311 63.3076 67.8292 63.2063 67.8292 63.105C67.6252 62.8011 67.6252 62.4972 67.7272 62.2946C67.7272 62.1933 67.8292 61.9908 67.8292 61.8895C67.8292 61.7882 67.8292 61.5856 67.9311 61.4843C67.9311 61.383 68.0331 61.1804 68.0331 60.9778C68.0331 60.8765 68.1352 60.6739 68.1352 60.5726C68.1352 60.4713 68.2371 60.2687 68.2371 60.1675C68.3391 59.7623 68.7471 59.1545 69.2571 58.7493C69.2571 58.7493 69.4611 58.648 69.6651 58.5467C70.0731 58.3441 70.2771 58.3441 70.6851 58.4454C71.0931 58.4454 71.1951 58.5467 71.2971 58.7493L71.6031 59.0532C71.7051 59.1545 71.8071 59.2558 71.9091 59.3571L72.1131 59.661C72.2151 59.7623 72.4191 60.37 72.4191 60.7752C72.4191 60.9778 72.5211 61.0791 72.5211 61.0791C72.7251 61.0791 72.9291 61.383 73.0311 61.5856C73.0311 61.6869 73.1331 61.7882 73.1331 61.8895C73.2351 61.9908 73.2351 62.0921 73.3371 62.1933L73.4391 62.6998L73.5411 63.3076C73.5411 63.4089 73.6431 63.6115 73.6431 63.7128C73.6431 63.8141 73.7451 63.9154 73.7451 64.1179C73.8471 64.2192 73.8471 64.3205 73.8471 64.3205C73.8471 64.3205 74.0511 64.0167 74.2551 63.7128L74.4591 63.2063C74.5611 63.105 74.6631 62.8011 74.6631 62.6998L74.7651 62.3959L74.8671 62.0921L75.0711 61.383C75.1731 60.9778 75.1731 60.8765 75.3771 60.6739C75.4791 60.4713 75.581 60.37 75.683 60.37C75.785 60.37 75.785 60.37 75.887 60.37C75.989 60.4713 75.989 60.4713 75.989 60.9778C75.989 61.383 75.989 61.4843 75.785 61.7882L75.581 62.3959C75.581 62.5985 75.3771 62.9024 75.3771 63.105C75.2751 63.3076 75.2751 63.4089 75.2751 63.5102C75.2751 63.6115 75.1731 63.9154 74.9691 64.3205L74.7651 64.7257C74.6631 64.9283 74.1531 65.5361 74.0511 65.6374C73.5411 65.6374 73.1331 65.6374 72.9291 65.6374ZM70.4811 63.3076L70.6851 63.0037C70.6851 62.9024 70.7871 62.8011 70.7871 62.8011C70.7871 62.8011 70.8891 62.5985 70.9911 62.4972C71.0931 62.3959 71.0931 62.2946 71.0931 62.2946C71.0931 62.2946 71.1951 62.1933 71.2971 61.9908C71.5011 61.6869 71.6031 61.383 71.5011 61.2817C71.5011 61.2817 71.5011 61.1804 71.3991 61.1804C71.3991 61.0791 71.2971 61.0791 71.2971 60.9778C71.1951 60.7752 71.1951 60.7752 70.9911 60.4713C70.7871 60.0662 70.5831 59.8636 70.4811 59.7623C70.4811 59.7623 70.3791 59.661 70.2771 59.661C70.1751 59.661 70.0731 59.5597 70.0731 59.5597C69.9711 59.5597 69.6651 60.0662 69.6651 60.1675C69.6651 60.2687 69.6651 60.37 69.6651 60.37C69.6651 60.5726 69.6651 60.7752 69.5631 60.9778C69.5631 61.0791 69.4611 61.1804 69.5631 61.383C69.5631 61.4843 69.5631 61.6869 69.5631 61.8895C69.4611 62.1933 69.5631 62.8011 69.7671 63.0037C69.7671 63.105 69.8691 63.2063 69.8691 63.3076C69.9711 63.5102 69.9711 63.7128 70.0731 63.7128C70.0731 63.8141 70.3791 63.5102 70.4811 63.3076Z" fill="black"/>
<path d="M76.1901 57.3302C76.3941 57.5328 76.3941 57.634 76.3941 57.7353L76.7001 59.3561H76.9041C77.2101 59.2548 77.4141 59.1535 77.9241 58.7483C78.1281 58.5457 78.1281 58.3431 78.1281 58.1405C78.1281 57.9379 78.1281 57.9379 78.3321 57.2289C78.4341 56.925 78.6381 56.7224 78.9441 56.6211C79.1481 56.6211 79.4541 56.6211 79.5561 56.7224C79.6581 56.7224 79.7601 56.925 79.8621 57.1276C79.9641 57.4315 80.0661 57.5328 80.1681 57.8366C80.2701 58.1405 80.2701 58.3431 80.2701 58.4444C80.2701 58.5457 80.2701 58.647 80.2701 58.7483C80.2701 58.8496 80.2701 58.9509 80.2701 59.0522C80.2701 59.1535 80.2701 59.3561 80.2701 59.5586C80.2701 59.7612 80.3721 60.0651 80.3721 60.2677C80.3721 60.7742 80.3721 60.9768 80.5761 61.4832C80.6781 61.7871 80.7801 61.8884 80.9841 61.8884C81.0861 61.8884 81.3921 61.6858 81.5961 61.4832C81.8001 61.3819 82.2081 60.7742 82.2081 60.6729C82.2081 60.5716 82.4121 60.369 82.6161 60.0651L82.718 59.8625C82.718 59.8625 82.8201 59.5586 83.024 59.2548L83.228 58.9509C83.228 58.8496 83.33 58.8496 83.33 58.8496C83.33 58.8496 83.024 59.7612 83.024 59.8625L82.82 60.369C82.718 60.5716 82.6161 60.8755 82.6161 60.8755L82.4121 61.0781C82.2081 61.4832 82.0041 61.7871 81.5961 62.091C81.1881 62.3949 81.1881 62.4962 80.8821 62.5975C80.4741 62.6988 80.3721 62.6988 79.9641 62.5975C79.7601 62.4962 79.6581 62.4962 79.3521 62.1923C79.1481 61.8884 78.9441 61.7871 78.9441 61.6858C78.7401 61.1794 78.5361 60.4703 78.3321 59.8625C78.3321 59.6599 78.2301 59.4573 78.1281 59.4573L77.9241 59.6599C77.7201 59.8625 77.3121 60.0651 77.0061 60.1664C76.7001 60.2677 76.7001 60.2677 76.8021 60.5716C76.8021 60.6729 76.8021 60.8755 76.8021 61.0781C76.8021 61.2807 76.8021 61.4832 76.8021 61.5845C76.8021 61.5845 76.8021 61.7871 76.8021 61.8884C76.8021 61.9897 76.8021 62.2936 76.8021 62.3949C76.8021 62.8001 76.5981 63.2053 76.2921 63.2053C75.9861 63.3065 75.6801 63.0027 75.5781 62.8001C75.5781 62.6988 75.3742 62.2936 75.2722 62.091C75.0682 61.7871 74.8642 60.8755 74.8642 60.4703C74.8642 60.2677 74.7622 60.1664 74.7622 60.0651C74.6602 59.8625 74.6602 59.7612 74.6602 59.5586C74.6602 59.3561 74.6602 59.1535 74.6602 59.0522C74.6602 58.9509 74.6602 58.7483 74.6602 58.5457C74.6602 58.1405 74.6602 57.7353 74.7622 57.5327C74.8642 57.3302 75.0682 57.1276 75.1701 57.1276C75.5781 56.925 75.8841 57.0263 76.1901 57.3302Z" fill="black"/>
<path d="M84.5531 63.3072C84.3491 63.2059 83.9411 62.8008 83.8391 62.5982C83.8391 62.4969 83.6351 62.3956 83.6351 62.2943C83.3291 61.9904 83.3291 61.7878 83.0231 60.7749C82.9211 60.471 82.9211 60.2684 82.8191 60.0658L82.7171 59.458C82.6151 59.0529 82.6151 58.9516 82.7171 58.6477C82.7171 58.5464 82.8191 58.3438 82.8191 58.1412C82.8191 57.2296 82.8191 57.1283 82.9211 56.9257C83.0231 56.4192 83.3291 56.014 83.6351 55.8114C83.7371 55.7101 83.8391 55.7101 84.0431 55.6088C84.3491 55.6088 84.4511 55.6088 84.6551 55.7101C84.8591 55.8114 84.9611 56.014 85.0631 56.2166C85.0631 56.3179 85.1651 56.5205 85.1651 56.6218C85.3691 57.027 85.3691 57.3309 85.2671 57.8373C85.2671 58.0399 85.2671 58.1412 85.2671 58.4451C85.2671 58.6477 85.2671 58.9516 85.2671 59.1542C85.2671 59.3567 85.2671 59.5593 85.2671 59.6606C85.2671 60.0658 85.3691 60.7749 85.3691 60.7749C85.3691 60.9775 85.3691 61.2813 85.4711 61.3826C85.5731 61.4839 85.8791 60.9775 85.8791 60.6736C85.9811 60.471 85.9811 60.2684 86.1851 59.8632C86.1851 59.7619 86.2871 59.6606 86.2871 59.5593C86.2871 59.5593 86.2871 59.3567 86.3891 59.2554C86.3891 59.1542 86.4911 59.0529 86.4911 58.9516C86.4911 58.9516 86.4911 58.8503 86.4911 58.749C86.5931 58.5464 86.5931 58.4451 86.5931 58.0399C86.5931 57.9386 86.5931 57.736 86.6951 57.6347C86.6951 57.5334 86.6951 57.3308 86.6951 57.027C86.5931 56.4192 86.5931 56.2166 86.8991 55.9127C87.1031 55.5075 87.3071 55.4062 87.6131 55.4062C87.9191 55.4062 88.123 55.6088 88.429 56.014C88.531 56.2166 88.633 56.2166 88.735 56.6218C88.939 57.3308 88.837 57.2296 88.837 57.8373C88.837 57.9386 88.837 58.1412 88.837 58.3438C88.837 58.4451 88.837 58.6477 88.837 58.8503C88.837 58.9516 88.837 59.1542 88.837 59.1542C88.837 59.1542 88.837 59.3567 88.837 59.5593L88.939 60.1671C88.939 60.471 88.939 60.471 89.041 60.5723C89.143 60.6736 89.245 60.6736 89.347 60.471L89.551 60.2684C89.653 60.1671 89.755 60.0658 89.755 59.9645C89.755 59.8632 89.857 59.6606 89.959 59.5593C90.061 59.458 90.061 59.3567 90.061 59.2554C90.061 59.1542 90.163 59.0529 90.163 58.9516C90.367 58.6477 90.367 58.5464 90.571 58.0399C90.775 57.4321 90.877 57.3308 90.979 57.2296C91.183 57.2296 91.285 57.3308 91.183 57.6347C91.183 57.8373 91.183 57.8373 90.979 58.5464C90.877 58.749 90.877 58.8503 90.877 58.8503C90.877 58.8503 90.877 58.9516 90.775 59.0529C90.775 59.1542 90.673 59.2555 90.673 59.3567L90.571 59.6606L90.367 60.1671C90.265 60.471 89.959 60.8762 89.551 61.2813C89.245 61.5852 89.041 61.6865 88.939 61.6865C88.633 61.6865 88.0211 61.2813 87.8171 60.9775L87.6131 60.6736C87.6131 60.5723 87.5111 60.471 87.4091 60.3697C87.4091 60.2684 87.3071 60.0658 87.2051 60.0658C87.1031 59.9645 87.0011 59.7619 86.8991 59.5593C86.8991 59.458 86.8991 59.5593 86.7971 59.7619L86.6951 60.3697C86.3891 61.5852 86.3891 61.3826 86.2871 61.8891C86.2871 61.9904 86.1851 62.193 86.1851 62.2943L86.0831 62.4969C85.9811 62.6995 85.7771 63.0034 85.6751 63.1046C85.5731 63.2059 85.4711 63.3072 85.1651 63.3072C84.8591 63.4085 84.8591 63.4085 84.6551 63.4085C84.7571 63.3072 84.5531 63.3072 84.5531 63.3072Z" fill="black"/>
<path d="M92.8188 61.5849C92.6148 61.4836 92.1048 61.0784 92.1048 60.8758C92.1048 60.7745 91.9008 60.6732 91.9008 60.572C91.5948 60.2681 91.6968 60.0655 91.2888 59.0525C91.1868 58.7486 91.0848 58.6474 91.0848 58.3435L90.9828 57.7357C90.9828 57.3305 90.8808 57.2292 90.9828 56.9253C90.9828 56.824 91.0848 56.6215 91.0848 56.4189C91.0848 55.5072 91.0848 55.4059 91.1868 55.2033C91.2888 54.6969 91.5948 54.2917 91.9008 54.0891C92.0028 53.9878 92.1048 53.9878 92.3088 53.8865C92.6148 53.8865 92.7168 53.8865 92.9208 53.9878C93.1248 54.0891 93.2268 54.2917 93.3288 54.4943C93.3288 54.5956 93.4308 54.7982 93.4308 54.8994C93.6348 55.3046 93.6348 55.6085 93.5328 56.115C93.5328 56.3176 93.5328 56.4189 93.5328 56.7227C93.5328 56.9253 93.5328 57.2292 93.5328 57.4318C93.5328 57.6344 93.5328 57.837 93.5328 57.9383C93.6348 58.3435 93.6348 59.0525 93.6348 59.0525C93.6348 59.2551 93.6348 59.559 93.7368 59.6603C93.8388 59.7616 94.0428 59.2551 94.1448 58.9512C94.2468 58.7486 94.3488 58.5461 94.4508 58.1409C94.4508 58.0396 94.5528 57.9383 94.5528 57.837C94.5528 57.837 94.5528 57.6344 94.6548 57.5331C94.6548 57.4318 94.7568 57.3305 94.7568 57.2292C94.7568 57.2292 94.7568 57.1279 94.7568 57.0266C94.8588 56.824 94.7568 56.7228 94.8588 56.3176C94.8588 56.2163 94.9608 56.0137 94.9608 55.9124C94.9608 55.8111 94.9608 55.6085 94.9608 55.3046C94.8588 54.6969 94.9608 54.4943 95.1648 54.1904C95.3688 53.7852 95.5728 53.6839 95.8788 53.6839C96.1848 53.6839 96.2868 53.8865 96.6948 54.2917C96.7968 54.4943 96.8988 54.4943 97.0008 54.8994C97.2048 55.6085 97.1027 55.5072 97.1027 56.115C97.1027 56.2163 97.1027 56.4189 97.1027 56.6215C97.1027 56.7227 97.1027 56.9253 97.1027 57.1279C97.1027 57.2292 97.1027 57.4318 97.1027 57.4318C97.1027 57.4318 97.1027 57.6344 97.1027 57.837L97.2048 58.4448C97.2048 58.7486 97.2047 58.7486 97.3067 58.8499C97.4087 58.9512 97.5107 58.9512 97.6127 58.7486L97.8167 58.5461C97.9187 58.4448 98.0207 58.3435 98.0207 58.2422C98.0207 58.1409 98.1227 57.9383 98.2247 57.837C98.3267 57.7357 98.3267 57.6344 98.3267 57.5331C98.3267 57.4318 98.4287 57.3305 98.4287 57.2292C98.6327 56.9253 98.6327 56.7228 98.8367 56.3176C99.0407 55.7098 99.1427 55.6085 99.2447 55.5072C99.4487 55.5072 99.4487 55.6085 99.4487 55.9124C99.4487 56.115 99.4487 56.2163 99.2447 56.824C99.1427 57.0266 99.1427 57.1279 99.1427 57.1279C99.1427 57.1279 99.1427 57.2292 99.0407 57.3305C99.0407 57.4318 98.9387 57.5331 98.9387 57.6344L98.8367 57.9383L98.6327 58.4448C98.5307 58.7486 98.2247 59.1538 97.8167 59.559C97.5107 59.8629 97.3068 59.9642 97.2048 59.9642C96.8988 59.9642 96.2868 59.559 96.0828 59.2551L95.8788 58.9512C95.8788 58.8499 95.7768 58.7486 95.6748 58.6473C95.6748 58.5461 95.5728 58.3435 95.4708 58.3435C95.3688 58.2422 95.2668 58.0396 95.1648 57.837C95.1648 57.7357 95.0628 57.837 95.0628 58.0396L94.9608 58.6473C94.7568 59.7616 94.6548 59.6603 94.5528 60.1668C94.5528 60.2681 94.4508 60.4707 94.4508 60.572L94.3488 60.7745C94.2468 60.9771 94.0428 61.281 93.9408 61.3823C93.8388 61.4836 93.7368 61.5849 93.4308 61.5849C93.1248 61.6862 93.1248 61.6862 92.9208 61.6862C93.0228 61.6862 92.9208 61.6862 92.8188 61.5849ZM93.6348 52.4684C93.4308 52.3671 93.3288 52.1645 93.4308 51.9619C93.4308 51.8606 93.5328 51.7593 93.7368 51.7593C93.8388 51.7593 93.9408 51.7593 94.0428 51.658C94.2468 51.5567 94.3488 51.3541 94.3488 51.1515C94.3488 51.0502 94.3488 51.0502 94.4508 50.9489C94.5528 50.8477 94.5528 50.8477 94.6548 50.8477C94.7568 50.8477 94.8588 51.0502 94.8588 51.2528C94.9608 51.5567 94.7568 51.8606 94.3488 52.2658C94.1448 52.3671 94.1448 52.3671 93.9408 52.4684C93.7368 52.5697 93.7368 52.5697 93.6348 52.4684Z" fill="black"/>
<defs>
<linearGradient id="paint0_linear_2310_99586" x1="41.5547" y1="107.98" x2="145.653" y2="107.98" gradientUnits="userSpaceOnUse">
<stop stop-color="#EC5F6C"/>
<stop offset="0.59" stop-color="#C0434D"/>
<stop offset="1" stop-color="#A7333C"/>
</linearGradient>
<linearGradient id="paint1_linear_2310_99586" x1="1.26172" y1="61.5317" x2="145.246" y2="61.5317" gradientUnits="userSpaceOnUse">
<stop stop-color="#EC5F6C"/>
<stop offset="0.59" stop-color="#C0434D"/>
<stop offset="1" stop-color="#A7333C"/>
</linearGradient>
<linearGradient id="paint2_linear_2310_99586" x1="1.26172" y1="66.6016" x2="46.2056" y2="66.6016" gradientUnits="userSpaceOnUse">
<stop stop-color="#EC5F6C"/>
<stop offset="0.59" stop-color="#C0434D"/>
<stop offset="1" stop-color="#A7333C"/>
</linearGradient>
</defs>
</svg>
