<svg width="203" height="203" viewBox="0 0 203 203" fill="none" xmlns="http://www.w3.org/2000/svg">
<mask id="mask0_2406_5566" style="mask-type:alpha" maskUnits="userSpaceOnUse" x="0" y="0" width="203" height="203">
<rect width="203" height="203" fill="#B64444"/>
</mask>
<g mask="url(#mask0_2406_5566)">
<g filter="url(#filter0_d_2406_5566)">
<circle cx="103.383" cy="90.8594" r="90" fill="#D2CCCC"/>
</g>
<path d="M4.04143 163.521C4.74549 160.849 4.72195 158.349 3.22752 155.891C2.75806 154.948 2.91453 153.899 3.39175 152.951C10.0337 136.867 16.7343 120.902 24.3542 105.421C33.4918 86.7226 43.8853 68.9124 55.1119 51.9592C61.1086 42.7541 66.6671 33.2137 73.1019 24.344C75.3629 21.2573 77.7256 18.1025 80.0883 14.9477C80.988 14.0306 82.0051 13.3493 83.0378 12.9721C83.9688 12.6629 84.8412 12.2358 85.7292 12.1127C93.5451 10.6509 101.295 10.963 109.032 12.0691C117.936 13.3377 126.683 15.6545 135.387 18.1573C147.182 21.4201 159.191 23.7527 171.201 26.0853C177.468 27.2333 183.563 29.1254 189.959 29.7153C192.494 29.9041 195.087 30.2108 197.481 31.7516L198.303 33.4025C198.033 35.3127 197.763 37.223 196.852 38.934C196.707 39.1882 196.723 39.4922 197.145 39.5236C199.32 40.8968 199.704 42.2122 198.737 44.9033C197.959 47.1541 196.801 49.1874 195.483 51.171C190.992 57.9523 187.656 65.6901 183.822 72.9746C177.168 85.7643 170.835 98.6535 165.539 112.263C162.754 119.475 160.028 126.804 157.563 134.114C154.278 143.862 150.292 153.292 145.868 162.388C141.025 172.549 136.343 182.76 131.602 192.854C130.417 195.377 129.114 197.665 127.432 199.735C125.996 201.482 124.557 202.132 122.53 201.603C119.659 201.01 116.815 199.928 113.971 198.846C104.418 195.182 94.5053 192.703 85.0814 188.481C69.7934 181.741 53.8914 178.399 38.1028 174.196C29.6178 171.861 20.859 170.338 12.3739 168.003C11.1495 167.722 9.96808 167.256 8.68497 166.857C7.56224 166.509 6.43948 166.16 5.79398 164.863C5.55925 164.391 5.1955 164.478 4.77301 164.447C4.53828 163.975 4.36221 163.621 4.12748 163.149L4.04143 163.521ZM113.485 181.248C113.485 181.248 113.427 181.13 113.368 181.012C112.492 180.341 111.471 179.924 110.348 179.576C109.91 179.24 109.429 179.091 109.049 178.873C104.175 176.164 99.2576 173.64 94.1525 171.557C94.0938 171.439 93.8747 171.271 93.7143 171.221C83.2107 166.465 72.5937 162.57 61.343 160.673C50.0923 158.775 38.7869 157.858 27.4697 157.734C27.1489 157.634 26.7851 157.721 26.4643 157.621C26.4643 157.621 26.3626 157.69 26.2022 157.64C26.2022 157.64 26.1435 157.522 26.0418 157.59C22.0204 157.139 17.9715 157.178 13.9657 157.031C14.0244 157.149 13.9814 157.335 13.9384 157.521C17.8425 157.736 21.7466 157.951 25.7094 158.284C25.8111 158.216 25.9714 158.266 26.2335 158.248C26.2335 158.248 26.3352 158.18 26.4956 158.229C26.7734 158.515 27.1372 158.428 27.501 158.342C30.9396 158.712 34.2764 159.149 37.715 159.519C50.7847 160.984 63.7568 163.616 76.5723 167.295C82.2876 168.97 87.9169 171.017 93.5893 172.877C98.753 175.079 103.858 177.162 109.022 179.363C109.46 179.699 109.84 179.916 110.262 179.948L110.321 180.066C111.197 180.736 112.218 181.153 113.239 181.57C113.458 181.737 113.618 181.787 113.838 181.955C115.794 183.16 117.851 184.298 119.893 185.131C120.754 185.498 121.673 185.983 122.471 185.134C123.414 184.031 124.196 182.878 125.08 181.657C124.482 181.271 124.016 181.426 123.508 181.767C122.084 182.72 120.629 183.066 118.88 182.823C117.131 182.579 115.571 181.895 113.908 181.279C113.849 181.161 113.587 181.179 113.427 181.13L113.485 181.248ZM13.0542 154.655C20.0174 155.022 26.8202 155.339 33.8265 155.52C45.5231 155.861 57.2236 157.3 68.7247 159.974C81.5089 163.045 93.5734 168.486 105.509 174.484C109.828 176.622 114.06 179.133 118.653 180.459C118.974 180.559 119.471 181.012 119.6 180.454C119.831 179.828 119.248 179.746 118.766 179.597C115.922 178.515 113.122 177.246 110.465 175.724C95.4042 167.259 79.7681 160.909 63.3693 157.115C53.0926 154.722 42.7729 152.515 32.2851 152.15C25.803 151.933 19.2936 152.205 12.9212 154.115C12.5417 153.897 12.2953 154.22 12.2092 154.592C12.487 154.877 12.8508 154.791 13.0542 154.655ZM5.72723 154.374C7.5306 153.638 8.95448 152.684 10.4527 152.152C18.1043 149.542 25.9242 149.179 33.7911 149.727C53.3859 151.224 72.2649 156.187 90.8467 163.551C98.6354 166.667 105.904 170.918 113.462 174.66C117.562 176.631 121.763 178.533 126.078 179.574C127.725 179.885 129.137 179.726 130.545 178.468C132.853 176.293 134.402 173.683 135.556 170.552C144.502 147.108 154.586 124.317 164.729 101.643C171.621 86.3352 178.952 71.3628 185.844 56.055C188.762 49.3837 192.381 43.0295 194.278 35.9415C194.579 34.6392 194.446 34.0993 193.221 33.8189C190.51 33.2764 187.772 33.2239 185.061 32.6814C178.415 31.3159 171.753 29.6464 165.004 28.3491C153.578 26.0977 142.178 23.3563 130.806 20.125C121.14 17.3234 111.446 15.0119 101.467 14.3066C95.7125 13.9159 90.0167 13.6432 84.4149 15.1942C82.9597 15.54 81.4458 15.7679 80.3583 17.1252C78.1403 20.0259 75.9224 22.9265 73.8648 25.877C68.4588 33.2714 63.71 41.1689 58.7421 48.8988C47.7345 66.0197 36.946 83.3084 27.867 102.125C20.6813 116.843 13.4956 131.561 7.98806 147.199C7.10795 149.518 6.38822 151.887 5.42206 154.578L5.72723 154.374ZM11.3175 161.792C11.6383 161.892 11.9004 161.874 12.2212 161.973C25.1579 162.899 37.9812 164.686 50.7067 167.64C62.5286 170.413 74.3661 173.49 85.8868 177.565C95.8036 181.142 105.533 185.159 115.219 189.363C117.64 190.414 118.833 190.086 121.098 188.097C119.772 187.885 118.532 187.301 117.394 186.648C110.082 182.584 102.556 179.45 94.9272 176.383C80.3708 170.568 65.4272 166.427 50.1394 163.775C38.4075 161.728 26.5192 160.729 14.6308 159.73C13.0426 159.536 11.4974 159.156 11.2745 161.978L11.3175 161.792ZM6.68586 161.75C9.77235 161.412 10.8872 159.565 10.003 156.698C9.82695 156.345 9.94037 155.482 9.41618 155.519C8.41081 155.406 7.71454 156.187 6.90088 156.732C6.18892 157.209 6.90478 157.83 7.13951 158.302C7.66765 159.363 8.51656 160.524 6.58412 161.818L6.68586 161.75Z" fill="#090909"/>
<path d="M5.72919 154.372C6.69535 151.681 7.41502 149.312 8.29513 146.993C13.9043 131.287 21.1487 116.687 28.1741 101.919C37.21 83.2883 47.9398 65.8817 59.0491 48.6927C64.017 40.9628 68.7658 33.0653 74.1719 25.6708C76.3311 22.6523 78.4474 19.8197 80.6653 16.9191C81.7528 15.5618 83.2667 15.3339 84.722 14.9881C90.3238 13.437 96.0195 13.7098 101.774 14.1005C111.753 14.8057 121.447 17.1173 131.113 19.9188C142.384 23.2183 153.783 25.9597 165.312 28.1429C172.06 29.4403 178.663 30.9919 185.368 32.4753C188.079 33.0178 190.759 32.9523 193.528 33.6128C194.753 33.8932 194.886 34.4331 194.585 35.7354C192.645 43.0094 189.128 49.2955 186.151 55.8489C179.259 71.1567 171.928 86.1291 165.036 101.437C154.893 124.111 144.809 146.902 135.863 170.346C134.651 173.359 133.102 175.969 130.852 178.262C129.503 179.638 128.091 179.797 126.385 179.367C121.968 178.395 117.826 176.611 113.769 174.454C106.211 170.712 98.8838 166.343 91.1538 163.345C72.572 155.981 53.6343 150.9 34.0982 149.52C26.2313 148.972 18.4114 149.336 10.7598 151.946C9.26155 152.478 7.83767 153.432 6.0343 154.168L5.72919 154.372ZM11.0257 148.938C11.4482 148.969 11.7103 148.951 11.812 148.883C17.6329 147.499 23.6768 147.382 29.5876 146.724C37.5366 145.802 45.4895 145.978 53.419 147.742C66.4067 150.677 79.2808 154.475 91.2906 160.895C99.0246 164.991 106.974 168.157 114.794 171.881C117.974 173.366 121.213 174.97 124.797 175.086C127.957 175.17 130.574 173.889 132.077 170.367C133.015 168.166 134.071 166.2 135.01 163.999C139.215 154.737 142.88 145.207 146.765 135.844C151.834 123.958 157.123 112.24 162.353 100.404C165.748 92.7846 168.822 85.0652 172.319 77.3772C178.042 64.8967 183.925 52.4659 188.889 39.5504C189.351 38.2979 189.175 37.9441 188.009 37.7816C181.613 37.1918 175.416 35.3677 169.149 34.2197C157.257 32.1229 145.521 28.9781 133.77 25.5292C123.141 22.4289 112.559 20.2404 101.704 18.8643C96.094 18.2194 90.4413 17.7606 84.8081 18.7037C83.9201 18.8268 83.1925 18.9998 82.4532 19.9667C75.5959 28.8048 69.2354 38.0964 63.3131 47.7233C58.6503 55.2488 54.1479 62.8241 49.5282 70.1635C42.8665 80.7573 36.5843 91.5686 31.1784 103.051C25.8742 114.465 20.8908 125.979 15.8057 137.56C14.2019 141.15 12.6999 144.672 11.1118 148.566L11.0257 148.938Z" fill="#F4F8F9"/>
<path d="M11.3172 161.792C11.5988 159.088 13.144 159.468 14.6735 159.544C26.5619 160.542 38.4502 161.541 50.1821 163.588C65.4699 166.241 80.4135 170.381 94.9699 176.197C102.598 179.263 110.184 182.515 117.436 186.462C118.575 187.114 119.815 187.698 121.141 187.911C118.876 189.899 117.683 190.227 115.261 189.176C105.575 184.973 95.8463 180.955 85.9295 177.378C74.3501 173.185 62.5713 170.226 50.7494 167.453C38.0239 164.5 25.2006 162.712 12.2639 161.787C11.9431 161.687 11.6811 161.705 11.3603 161.606L11.3172 161.792Z" fill="#F3F3F3"/>
<path d="M12.922 154.115C19.2944 152.206 25.8038 151.933 32.2859 152.151C42.7737 152.516 53.0935 154.722 63.3701 157.115C79.769 160.91 95.405 167.26 110.466 175.724C113.122 177.247 115.923 178.515 118.767 179.598C119.147 179.815 119.73 179.896 119.601 180.455C119.472 181.013 118.975 180.559 118.654 180.46C113.96 179.202 109.727 176.691 105.51 174.485C93.5743 168.486 81.4511 162.928 68.7256 159.974C57.2245 157.301 45.5826 155.98 33.8273 155.521C26.9228 155.272 19.9596 154.905 13.0551 154.655C12.9964 154.537 12.879 154.302 12.8203 154.184L12.922 154.115Z" fill="#EAEAEA"/>
<path d="M93.1824 173.148C87.51 171.287 81.8807 169.24 76.1654 167.565C63.3499 163.886 50.3779 161.255 37.3082 159.789C33.8696 159.42 30.5327 158.982 27.0941 158.612C27.0354 158.494 27.1215 158.122 27.1645 157.936C38.5404 158.178 49.7871 158.977 61.0378 160.875C72.2885 162.773 82.9642 166.785 93.4092 171.423C93.4679 171.541 93.7887 171.641 93.8474 171.759C93.3388 172.099 93.3701 172.707 93.0807 173.216L93.1824 173.148Z" fill="#EDEDED"/>
<path d="M93.1841 173.153C93.3719 172.713 93.4423 172.037 93.9508 171.696C93.9508 171.696 94.0095 171.814 93.9665 172C93.9665 172 94.0095 171.814 94.0525 171.628C99.1576 173.711 104.075 176.235 108.949 178.944C108.906 179.131 108.762 179.385 108.718 179.571C103.555 177.369 98.4496 175.286 93.2858 173.085L93.1841 173.153Z" fill="#DDDFE0"/>
<path d="M113.864 181.468C115.425 182.151 117.087 182.767 118.836 183.011C120.424 183.205 121.981 182.791 123.463 181.955C123.972 181.615 124.379 181.342 125.036 181.845C124.152 183.066 123.37 184.219 122.427 185.322C121.629 186.171 120.71 185.687 119.849 185.32C117.748 184.368 115.648 183.417 113.793 182.144C113.836 181.957 113.821 181.654 113.864 181.468Z" fill="#EAEAEA"/>
<path d="M6.68607 161.749C8.61852 160.455 7.66784 159.362 7.24141 158.232C7.00668 157.761 6.45121 157.19 7.00277 156.663C7.81643 156.118 8.51271 155.337 9.51807 155.45C9.94056 155.481 9.92885 156.275 10.1049 156.629C10.9891 159.496 9.87424 161.343 6.78775 161.681L6.68607 161.749Z" fill="#0BBAEE"/>
<path d="M25.3884 158.187C21.4843 157.972 17.5802 157.757 13.6174 157.424C13.5588 157.306 13.6018 157.12 13.6448 156.934C17.7093 157.199 21.6995 157.042 25.7209 157.493C25.5175 157.629 25.3141 157.765 25.3884 158.187Z" fill="#A9A9A9"/>
<path d="M113.036 181.706C112.015 181.289 110.994 180.872 110.117 180.201C110.16 180.015 110.203 179.829 110.247 179.643C111.369 179.992 112.289 180.477 113.267 181.079C113.224 181.265 113.079 181.52 113.036 181.706Z" fill="#A9A9A9"/>
<path d="M109.959 180.153C109.537 180.122 108.997 179.854 108.719 179.569C108.762 179.383 108.907 179.128 108.95 178.942C109.329 179.16 109.81 179.309 110.249 179.645C110.147 179.713 110.163 180.017 110.018 180.271L109.959 180.153Z" fill="#DDDFE0"/>
<path d="M12.9209 154.116C12.9796 154.234 13.097 154.47 13.1556 154.588C12.8505 154.792 12.5884 154.81 12.3107 154.525C12.4984 154.084 12.7019 153.948 13.0226 154.048L12.9209 154.116Z" fill="#A9A9A9"/>
<path d="M27.1385 158.432C26.8334 158.636 26.5126 158.537 26.1331 158.319C26.0745 158.201 26.1175 158.015 26.1019 157.711C26.4226 157.811 26.7865 157.725 27.1072 157.824C27.1659 157.942 27.0798 158.314 27.0368 158.5L27.1385 158.432Z" fill="#EDEDED"/>
<path d="M25.387 158.186C25.2109 157.832 25.5747 157.746 25.7195 157.491C25.7195 157.491 25.8211 157.423 25.8798 157.541L25.8525 158.031C25.7508 158.099 25.5904 158.049 25.3283 158.068L25.387 158.186Z" fill="#EDEDED"/>
<path d="M113.794 182.14C113.575 181.973 113.415 181.923 113.195 181.755C113.297 181.687 113.442 181.433 113.485 181.247C113.544 181.365 113.806 181.347 113.966 181.396C113.923 181.582 113.939 181.886 113.896 182.072L113.794 182.14Z" fill="#EAEAEA"/>
<path d="M25.9416 157.661C25.9416 157.661 26.0434 157.593 26.2038 157.642C26.2625 157.76 26.2194 157.946 26.2351 158.25C26.2351 158.25 26.1334 158.318 25.973 158.269C25.9143 158.151 26.059 157.897 26.0004 157.779L25.9416 157.661Z" fill="#EDEDED"/>
<path d="M93.9495 171.696C93.9495 171.696 93.9065 171.882 93.8635 172.068C93.8635 172.068 93.8048 171.95 93.8478 171.764L93.9495 171.696Z" fill="#EDEDED"/>
<path d="M110.247 179.644C110.204 179.83 110.161 180.016 110.118 180.202C110.118 180.202 110.118 180.202 110.059 180.084C110.161 180.016 110.145 179.712 110.29 179.458L110.247 179.644Z" fill="#DDDFE0"/>
<path d="M113.035 181.709C113.078 181.523 113.223 181.269 113.266 181.083C113.266 181.083 113.266 181.083 113.384 181.319C113.282 181.387 113.137 181.641 113.094 181.827L113.035 181.709Z" fill="#EAEAEA"/>
<path d="M11.0265 148.944C12.6733 145.168 14.2184 141.46 15.7205 137.939C20.8056 126.357 25.789 114.843 31.0932 103.429C36.4991 91.9469 42.7227 81.0176 49.443 70.5417C54.1645 63.1341 58.6081 55.4409 63.2279 48.1015C69.1502 38.4746 75.5107 29.183 82.368 20.3448C83.0056 19.4461 83.8936 19.323 84.7229 19.0819C90.356 18.1388 96.0088 18.5976 101.618 19.2424C112.415 20.5007 123.158 22.7389 133.685 25.9074C145.377 29.2383 157.07 32.5693 169.064 34.5979C175.331 35.7459 181.629 37.5018 187.924 38.1597C189.089 38.3222 189.265 38.676 188.804 39.9285C183.84 52.844 177.898 65.1569 172.234 77.7553C168.839 85.3752 165.604 93.0449 162.267 100.783C157.139 112.55 151.69 124.219 146.679 136.222C142.795 145.585 139.13 155.115 134.925 164.378C133.928 166.461 132.93 168.544 131.991 170.745C130.489 174.267 127.872 175.548 124.711 175.464C121.187 175.466 117.889 173.745 114.709 172.259C106.889 168.535 98.9394 165.369 91.2055 161.273C79.0353 154.803 66.3214 151.056 53.3338 148.12C45.506 146.288 37.4514 146.181 29.5024 147.103C23.5915 147.76 17.6494 147.81 11.7268 149.261C11.6251 149.329 11.363 149.347 10.9405 149.316L11.0265 148.944ZM70.2463 63.8396C70.129 63.6038 70.0273 63.6719 69.7652 63.6903C68.5251 63.1059 68.1926 63.8003 68.3139 65.134C68.5682 67.0076 69.9687 67.6418 71.1227 68.5983C71.2401 68.8341 71.6626 68.8656 71.5766 69.2376C71.3888 69.6779 71.0093 69.4603 70.7472 69.4787C70.3364 68.6532 69.781 68.082 69.0221 67.647C68.2044 67.0941 67.3751 67.3351 66.9409 68.0976C66.4637 69.0461 66.8745 69.8716 67.4887 70.5608C67.6647 70.9146 68.0871 70.946 68.3062 71.1137C66.4364 73.6239 64.8443 76.4198 63.9525 79.5327C60.9993 88.5859 59.6344 97.8332 63.527 107.018C63.9418 108.941 64.7633 110.592 65.8469 112.224C65.6748 112.969 64.8612 113.514 65.1272 114.593C64.5639 115.914 65.0608 116.367 66.1092 116.294C66.5317 116.325 66.9385 116.053 67.3023 115.966C67.4197 116.202 67.5957 116.556 67.6113 116.86C66.919 118.739 67.1693 119.514 68.9023 119.454C69.137 119.926 69.5439 119.653 69.9077 119.567C69.7356 120.311 69.5049 120.937 69.5518 121.849C69.6888 123.487 70.4477 123.922 71.6682 123.104C72.2784 122.696 72.787 122.355 73.3972 121.946C76.4838 125.696 80.3958 128.107 84.5386 129.892C91.9048 132.976 99.5135 134.64 107.447 133.414C107.623 133.768 107.799 134.122 107.975 134.476C108.327 135.183 108.883 135.754 109.669 135.699C110.396 135.526 110.569 134.782 110.639 134.106C110.768 133.548 110.897 132.99 110.983 132.618C111.48 133.071 111.601 134.405 112.329 134.232C113.158 133.991 112.411 132.762 112.642 132.136C113.256 132.825 113.972 133.446 114.962 133.255C116.202 133.839 115.615 132.66 115.744 132.102C115.916 131.358 116.19 130.545 117.168 131.148C117.606 131.484 118.017 132.309 118.627 131.9C119.136 131.56 118.42 130.939 118.447 130.449C118.678 129.822 118.427 129.047 119.257 128.806C119.754 129.259 120.278 129.222 120.845 129C124.002 127.986 127.041 126.736 129.889 124.828C131.618 123.67 133.347 122.512 134.067 120.143C134.489 120.175 134.971 120.324 135.436 120.17C136.383 120.164 136.672 119.656 136.246 118.527C136.578 117.832 135.819 117.397 135.89 116.721C136.414 116.685 136.997 116.766 137.521 116.729C138.206 116.742 139.094 116.619 139.148 115.639C139.363 114.709 138.851 113.952 137.947 113.771C137.947 113.771 137.889 113.653 137.728 113.603C137.552 113.249 137.478 112.827 137.826 112.437C138.264 112.772 138.702 113.108 138.859 112.06C140.068 112.036 140.705 111.137 141.182 110.189C141.66 109.24 140.537 108.892 140.083 108.252C140.024 108.134 139.966 108.017 139.907 107.899C140.255 107.508 140.764 107.168 140.893 106.609C143.017 101.885 144.135 97.0479 143.126 91.7495C140.532 79.1795 135.02 69.1931 124.571 63.4567C125.439 61.9317 125.142 60.2442 123.992 60.3857C122.74 60.5952 122.024 59.9741 121.046 59.3714C120.287 58.9364 119.72 59.1591 119.067 59.7539C119.208 58.4018 119.552 56.9135 118.05 56.3474C116.547 55.7814 116.043 57.2199 115.464 58.2366C115.464 58.2366 115.464 58.2366 115.362 58.3047C115.186 57.951 115.01 57.5972 114.936 57.1753C114.701 56.7036 114.408 56.1141 113.926 55.9647C113.504 55.9333 113.081 55.9017 112.643 55.5663C111.591 54.5417 110.66 54.8509 110.054 56.3576C109.823 56.9838 109.694 57.542 109.463 58.1682C108.688 57.4293 107.683 57.3165 106.678 57.2038C102.277 56.5354 97.8642 56.661 93.4085 56.9727C88.8512 57.3524 84.3994 58.762 80.2568 61.0651C80.1981 60.9472 80.0808 60.7114 80.0221 60.5935C79.9321 59.8677 79.6387 59.278 79.2005 58.9426C78.2655 58.1538 77.5966 58.4447 77.0764 59.5793C76.7556 59.4797 76.4935 59.498 76.1728 59.3984C75.0031 58.138 74.1737 58.379 73.4657 59.9538C73.278 60.394 73.3523 60.8159 73.325 61.3059C72.5113 61.8509 72.4409 62.527 73.0121 63.4022C73.5832 64.2774 74.3148 65.2024 74.9877 66.0095C74.3774 66.4183 73.8689 66.7589 73.3173 67.2855C72.6914 67.3903 72.4567 66.9187 72.2649 66.261C72.175 65.5351 71.6781 65.0818 71.3847 64.4922C71.2673 64.2564 71.0913 63.9026 70.7275 63.989C70.7275 63.989 70.5241 64.1253 70.4224 64.1934C70.4224 64.1934 70.4224 64.1934 70.262 64.1437C70.4654 64.0074 70.5671 63.9393 70.3911 63.5855L70.2463 63.8396Z" fill="#0BBAEE"/>
<path d="M73.2707 67.4725C73.8809 67.0637 74.3895 66.7231 74.941 66.1964C75.0427 66.1283 75.2462 65.992 75.4066 66.0418C76.8541 67.5879 78.2623 66.3302 79.4984 65.8166C88.66 61.8812 98.1816 60.8492 107.883 61.2689C108.728 61.3318 109.573 61.3947 110.246 62.2018C110.641 62.7233 111.15 62.3827 111.38 61.7564C111.584 61.6202 111.787 61.4839 111.83 61.2979C112.21 61.5154 112.429 61.6831 112.808 61.9006C113.102 62.4902 113.438 62.8937 114.048 62.4849C114.455 62.2124 114.643 61.7723 114.35 61.1827C114.655 60.9783 114.96 60.774 115.265 60.5696C115.5 61.0413 115.386 61.9033 115.926 62.1706L116.161 62.6422C117.342 63.1087 117.585 61.6886 118.355 61.3296C118.328 61.8196 118.301 62.3095 118.273 62.7996C118.246 63.2896 118.16 63.6617 118.598 63.9971C118.977 64.2146 119.224 63.8923 119.529 63.688C119.732 63.5517 120.037 63.3473 120.241 63.2111C120.358 63.4469 120.476 63.6827 120.17 63.8871C118.747 64.8408 119.768 65.2575 120.468 65.5746C121.285 66.1276 122.103 66.6805 122.921 67.2335C126.923 70.3702 130.432 74.1515 133.143 78.7817C134.872 81.7114 136.499 84.7091 137.56 87.9296C139.387 93.7809 138.679 99.4435 136.864 105.062C136.633 105.688 136.301 106.382 136.653 107.09C136.625 107.58 136.641 107.884 136.132 108.224C134.591 108.942 134.403 109.382 135.241 111.337C134.834 111.61 134.31 111.646 134.4 112.372C134.4 112.372 134.298 112.44 134.196 112.508C133.484 112.985 133.312 113.73 133.359 114.641C132.835 114.678 132.647 115.118 132.299 115.509C130.801 116.041 130.367 116.803 131.129 118.336C131.54 119.161 131.454 119.533 130.742 120.01C129.886 120.741 129.131 121.404 128.156 121.9C125.598 123.299 122.981 124.58 120.188 125.507C119.257 125.817 118.459 126.666 117.278 126.199C115.513 125.651 113.96 127.163 112.212 126.919C112.212 126.919 111.907 127.124 111.703 127.26C111.371 127.954 110.788 127.873 110.264 127.91C109.419 127.847 108.691 128.02 107.905 128.075C105.284 128.258 102.854 129.099 100.261 128.793C94.5495 128.216 89.0375 126.405 83.5686 124.408C80.4038 123.226 77.6146 121.164 75.1735 118.711C74.3402 117.854 73.4483 116.879 73.2683 115.428C73.4991 114.801 73.1196 114.584 72.6971 114.552C72.4037 113.963 71.8795 113.999 71.414 114.154C71.0957 112.061 70.3251 111.058 69.102 111.143C69.055 110.231 68.7616 109.642 67.8305 109.951C66.8016 107.338 65.9762 104.59 65.6749 101.804C65.0175 97.2132 64.8413 92.7716 66.136 88.2882C67.6615 83.1786 69.6252 78.4045 71.9682 73.8478C72.5902 72.645 73.3725 71.4921 73.9945 70.2894C74.327 69.595 75.0663 68.6281 73.6814 68.2979C73.5641 68.062 73.5054 67.9441 73.388 67.7083L73.2707 67.4725ZM83.9738 70.9947C83.9738 70.9947 84.1342 71.0445 84.2946 71.0942C84.4433 71.938 84.3299 72.8001 84.2165 73.6622C84.103 74.5243 83.8879 75.4545 84.6038 76.0756C85.4801 76.7464 86.0747 76.0337 86.6262 75.507C87.2365 75.0983 87.8898 74.5035 88.5587 74.2126C89.0672 73.872 89.6031 73.0414 90.0999 73.4948C90.5968 73.9481 89.9591 74.8468 89.7283 75.4731C88.8796 78.4 87.753 81.0413 87.225 84.0678C87.1116 84.9299 86.8104 86.2321 87.9332 86.5807C88.8955 86.8794 89.2553 85.6951 89.4705 84.7648C90.6087 81.3296 91.6883 77.7765 92.7092 74.1054C93.1121 72.735 93.558 71.1785 92.3453 70.1041C91.1326 69.0297 90.0881 70.2009 89.071 70.8822C88.4608 71.2909 87.6628 72.1399 87.2403 72.1084C86.278 71.8096 87.0016 70.5388 86.8529 69.695C86.5282 68.4975 86.3638 67.3498 85.1824 66.8833C84.001 66.4169 83.1444 67.1479 82.4481 67.9287C81.7518 68.7096 81.2159 69.5402 80.5783 70.439C79.0136 72.7449 77.8283 75.2682 76.6431 77.7916C76.2246 78.8581 75.9664 79.9743 77.0031 80.695C78.0398 81.4156 78.6774 80.5168 79.315 79.6181C79.6044 79.1097 79.8353 78.4834 80.2264 77.907C81.4703 75.5015 82.5539 73.0463 84.2359 70.9763L83.9738 70.9947ZM126.028 100.999C127.988 99.2151 129.756 96.773 130.108 93.3927C130.319 91.3646 129.904 89.4412 128.269 88.3354C128.05 88.1676 127.932 87.9319 127.756 87.5781C127.111 86.281 126.309 86.032 125.366 87.1351C124.263 88.1885 123.32 89.2916 122.612 90.8664C122.237 91.7468 121.697 91.4796 121.157 91.2123C120.457 90.8952 120.281 90.5414 120.453 89.7972C120.813 88.6128 121.274 87.3603 121.576 86.058C121.748 85.3138 121.963 84.3837 121.161 84.1347C120.3 83.7678 119.866 84.5303 119.534 85.2247C118.364 88.052 117.253 90.9972 116.083 93.8246C115.708 94.705 115.595 95.5671 115.642 96.479C115.614 96.969 115.849 97.4406 116.228 97.6581C116.71 97.8075 116.956 97.4853 117.144 97.045C117.84 96.2642 118.317 95.3156 118.634 94.3172C118.849 93.387 119.315 93.2325 120.117 93.4815C120.977 93.8484 120.95 94.3383 120.676 95.1506C120.445 95.7769 120.375 96.4529 120.305 97.1289C120.121 98.6671 120.199 100.187 121.513 101.193C122.828 102.2 124.181 101.922 125.867 100.95L126.028 100.999ZM94.689 85.9862C96.156 88.9341 99.3364 90.42 101.985 89.7467C102.712 89.5738 103.381 89.2829 103.992 88.8741C104.195 88.7379 104.543 88.3475 104.527 88.0435C104.555 87.5535 104.031 87.5902 103.769 87.6085C102.705 87.3779 101.539 87.2154 100.475 86.9848C99.5711 86.8039 98.6087 86.5051 97.8928 85.8841C96.6801 84.8097 96.9656 83.2034 97.2081 81.7832C97.4076 80.549 98.4286 80.9657 99.0545 80.8609C100.467 80.7012 101.938 80.6593 103.334 80.1955C105.094 79.6453 105.744 77.9526 105.067 76.0476C103.729 72.5415 99.6919 71.7866 97.2548 74.5195C96.0657 75.945 95.1973 77.47 94.8687 79.2623C94.3094 81.6809 94.0122 84.0812 94.7477 86.1041L94.689 85.9862ZM111.999 96.2456C112.449 95.7871 112.884 95.0245 113.157 94.2122C114.081 91.7072 114.843 89.1524 115.766 86.6474C116.126 85.463 116.588 84.2105 116.889 82.9082C117.163 82.0959 117.276 81.2338 116.357 80.749C115.438 80.2642 115.062 81.1446 114.628 81.9071C114.397 82.5334 114.209 82.9736 114.08 83.5317C113.216 86.1546 113.216 86.1546 110.955 85.1536C110.094 84.7867 110.02 84.3648 110.235 83.4346C110.595 82.2502 110.853 81.1339 111.111 80.0176C111.224 79.1556 111.236 78.3616 110.375 77.9948C109.515 77.6279 109.081 78.3904 108.748 79.0847C107.696 82.1479 106.702 85.3289 105.607 88.5781C105.333 89.3904 105.322 90.1844 105.47 91.0281C105.502 91.6361 105.635 92.1759 106.116 92.3253C106.656 92.5926 107.004 92.2022 107.293 91.6938C107.786 91.0492 108.22 90.2867 108.334 89.4246C108.662 87.6323 109.39 87.4594 110.79 88.0936C111.972 88.5601 112.046 88.9819 111.526 90.1165C110.963 91.4371 110.458 92.8758 110.333 94.5318C110.294 95.8158 111.01 96.4368 111.78 96.0779L111.999 96.2456ZM86.8848 90.7418C86.5797 90.9462 86.5954 91.2502 86.8145 91.4179C86.9905 91.7716 87.413 91.803 87.6321 91.9707C94.079 94.5704 100.338 97.6103 106.656 100.768C107.196 101.035 108.072 101.706 108.303 101.08C108.678 100.2 107.657 99.7829 107.016 99.5837C100.698 96.4259 94.4818 93.2 87.7455 91.1087C87.4247 91.0091 87.1039 90.9095 86.8418 90.9278L86.8848 90.7418ZM102.548 100.689C102.431 100.453 102.271 100.404 102.052 100.236C99.6575 98.6951 97.0756 97.5944 94.611 96.7296C94.2903 96.63 93.8091 96.4807 93.6801 97.0388C93.551 97.597 94.0322 97.7463 94.3099 98.0319C95.9295 98.8338 97.549 99.6357 99.2703 100.37C100.19 100.854 101.05 101.221 102.056 101.334C102.318 101.316 102.58 101.297 102.666 100.925C102.666 100.925 102.548 100.689 102.591 100.503L102.548 100.689Z" fill="#EB646C"/>
<path d="M71.296 113.918C71.8202 113.881 72.1841 113.794 72.5792 114.316C72.7552 114.67 72.8295 115.092 73.1503 115.191C73.3303 116.643 74.0619 117.568 75.0555 118.474C77.5983 120.859 80.2859 122.99 83.4506 124.171C88.9195 126.168 94.3728 127.861 100.143 128.556C102.737 128.863 105.268 127.954 107.787 127.838C108.573 127.783 109.359 127.728 110.146 127.673C110.729 127.755 111.253 127.718 111.585 127.024C111.687 126.955 111.933 126.633 112.094 126.683C113.842 126.927 115.395 125.415 117.16 125.963C118.282 126.311 119.08 125.462 120.07 125.271C122.863 124.343 125.48 123.062 128.038 121.663C128.954 121.05 129.768 120.505 130.624 119.774C131.234 119.365 131.364 118.807 131.011 118.1C130.307 116.684 130.785 115.736 132.181 115.272C132.858 117.177 134.333 118.233 135.937 118.731C136.465 119.792 136.175 120.301 135.127 120.374C134.704 120.343 134.18 120.379 133.758 120.348C133.202 119.777 132.651 120.303 132.244 120.576C128.512 123.704 124.311 125.89 119.976 127.535C119.409 127.758 118.959 128.216 119.049 128.942C118.322 129.115 118.47 129.959 118.239 130.585C117.829 129.76 117.418 128.934 117.066 128.227C116.831 127.755 116.452 127.537 116.045 127.81C115.536 128.151 115.509 128.641 115.642 129.18C115.994 129.888 116.405 130.713 116.96 131.284C116.041 130.8 115.869 131.544 115.536 132.238C115.184 131.531 115.036 130.687 114.625 129.862C114.331 129.272 113.995 128.868 113.385 129.277C112.876 129.618 112.908 130.226 113.099 130.883C113.569 131.827 114.242 132.634 114.754 133.391C113.764 133.582 113.048 132.961 112.434 132.272L112.317 132.036C111.906 131.211 111.871 129.505 110.838 129.882C109.5 130.464 110.568 131.793 110.776 132.754C110.647 133.312 110.517 133.871 110.431 134.243C110.259 134.987 110.189 135.663 109.461 135.836C108.675 135.891 108.178 135.437 107.767 134.612C107.591 134.258 107.415 133.905 107.239 133.551C107.587 133.16 108.331 133.291 108.241 132.566C108.108 132.026 107.482 132.131 107.001 131.981C106.942 131.863 106.68 131.882 106.418 131.9C101.79 132.956 97.3147 131.865 92.8981 130.893C86.0326 129.36 79.4841 126.828 74.3945 120.961C74.058 120.558 73.6199 120.222 73.17 120.681C72.6185 121.207 73.174 121.779 73.307 122.318C72.6968 122.727 72.1882 123.068 71.578 123.477C70.3575 124.294 69.5986 123.859 69.4616 122.221C69.3716 121.495 69.5437 120.751 69.8175 119.939C70.5138 119.158 71.2688 118.495 71.8477 117.479C72.1802 116.784 72.5127 116.09 71.8555 115.587C71.1396 114.966 70.7054 115.728 70.3142 116.305C69.6336 117.389 69.1133 118.524 68.9139 119.758C67.2239 119.632 66.9305 119.043 67.6228 117.164C68.4952 116.737 69.1328 115.838 69.8291 115.057C70.3376 114.717 70.9048 114.494 71.4721 114.271L71.296 113.918Z" fill="#F4F1F2"/>
<path d="M136.537 106.851C136.184 106.144 136.517 105.449 136.748 104.823C138.723 99.2548 139.271 93.5424 137.443 87.691C136.426 84.2845 134.799 81.2868 133.027 78.5432C130.214 73.9811 126.806 70.1316 122.804 66.9949C122.089 66.3738 121.169 65.889 120.352 65.3361C119.694 64.8329 118.732 64.5342 120.054 63.6486C120.258 63.5123 120.242 63.2083 120.125 62.9725C120.485 61.7881 121.807 60.9025 121.044 59.3695C121.92 60.0404 122.738 60.5933 123.99 60.3838C124.979 60.1925 125.277 61.88 124.569 63.4548C124.088 63.3054 123.548 63.0381 123.023 63.0748C122.601 63.0433 122.061 62.7761 121.932 63.3342C121.803 63.8923 122.343 64.1596 122.722 64.3771C125.128 65.124 126.912 67.0737 128.841 68.7691C134.759 74.3953 138.499 81.6381 140.714 89.9028C142.279 95.7725 141.09 101.286 138.997 106.618C138.285 107.095 137.573 107.572 136.697 106.901L136.537 106.851Z" fill="#F4F1F2"/>
<path d="M111.38 61.7561C111.208 62.5002 110.7 62.8408 110.246 62.2015C109.514 61.2764 108.728 61.3314 107.883 61.2685C98.1227 60.7309 88.6598 61.8809 79.4982 65.8163C78.2621 66.3298 76.8539 67.5876 75.4064 66.0415C75.2108 64.2858 75.1599 62.276 73.3799 61.4243C73.3056 61.0024 73.2312 60.5805 73.5207 60.0722C74.2483 59.8993 74.9133 58.5105 75.8209 59.7893C75.8561 61.4951 76.5016 62.7923 77.2489 64.0213C77.6596 64.8467 78.0078 64.4562 78.399 63.8798C79.9246 62.8579 78.6845 62.2735 78.0703 61.5844L77.5695 60.0331C77.945 59.1526 78.6726 58.9797 79.2986 58.8749C79.8971 59.2602 80.1318 59.7319 80.1201 60.5258C79.9167 60.6621 79.9324 60.966 80.1084 61.3198C79.4278 62.4046 79.8659 62.74 80.7539 62.6169C81.2781 62.5802 81.8453 62.3575 82.4125 62.1348C84.0125 61.5348 85.4951 60.699 87.052 60.285C94.0073 58.4563 100.939 58.2155 107.949 59.4945C109.013 59.7252 109.741 59.5522 109.604 57.9145C109.835 57.2882 109.905 56.6122 110.195 56.1039C110.699 54.6654 111.732 54.288 112.784 55.3126C113.281 55.766 113.645 55.6795 114.067 55.711C114.65 55.7922 114.944 56.3818 115.077 56.9216C114.114 56.6229 113.723 57.1994 113.348 58.0798C113.031 59.0781 112.933 60.2442 113.039 61.274L112.835 61.4102C112.456 61.1927 112.237 61.025 111.857 60.8075C111.912 59.8275 112.069 58.7794 112.065 57.6814C112.092 57.1914 111.959 56.6516 111.333 56.7564C110.911 56.7249 110.621 57.2333 110.695 57.6551C110.758 58.871 110.617 60.2231 111.408 61.2661L111.38 61.7561Z" fill="#F4F1F2"/>
<path d="M138.777 106.446C140.87 101.114 142.059 95.6007 140.494 89.731C138.221 81.3484 134.481 74.1055 128.621 68.5973C126.794 66.8337 125.01 64.8841 122.502 64.2053C122.182 64.1057 121.583 63.7205 121.712 63.1624C121.841 62.6042 122.424 62.6855 122.804 62.903C123.386 62.9842 123.868 63.1337 124.349 63.283C134.798 69.0194 140.31 79.0059 142.904 91.5758C144.015 96.8061 142.795 101.711 140.671 106.436C140.44 107.062 139.974 107.217 139.685 107.725C139.043 107.526 138.707 107.122 138.777 106.446Z" fill="#0E1113"/>
<path d="M73.4036 68.0076C74.8472 68.4557 74.1078 69.4226 73.7167 69.9991C73.0947 71.2018 72.3124 72.3547 71.6904 73.5574C69.3473 78.1141 67.3837 82.8884 65.8582 87.998C64.5635 92.4814 64.7397 96.9229 65.397 101.514C65.8587 104.349 66.5238 107.048 67.5527 109.661C67.0755 110.609 66.3792 111.39 65.6829 112.171C64.6579 110.656 63.7777 108.887 63.363 106.964C63.9498 108.143 64.6383 109.254 65.3856 110.483C65.9645 109.467 65.452 108.709 65.362 107.983C64.7399 105.098 63.5506 102.436 63.2923 99.4646C62.3805 88.9124 64.6765 79.356 70.239 70.9135C70.5284 70.4051 70.8766 70.0147 70.6849 69.357C70.947 69.3386 71.3852 69.6741 71.5143 69.1159C71.6003 68.7439 71.2795 68.6443 71.0604 68.4765C70.0081 67.4519 68.6076 66.8178 68.2516 65.0123C68.7601 64.6717 69.253 64.0271 69.7029 63.5686L69.8202 63.8044C69.8202 63.8044 69.8789 63.9223 69.9376 64.0402C69.4134 64.0769 69.1083 64.2813 69.1396 64.8892C69.1435 65.9871 71.2912 67.8502 72.3826 67.5909C72.6761 68.1805 72.9811 67.9761 73.388 67.7036L73.4036 68.0076Z" fill="#F4F1F2"/>
<path d="M70.6883 69.3594C70.9817 69.949 70.5318 70.4076 70.2423 70.9159C64.6798 79.3585 62.3839 88.9148 63.2957 99.467C63.5539 102.439 64.9037 105.151 65.3653 107.986C65.4553 108.712 66.0695 109.401 65.3889 110.486C64.7434 109.189 64.0548 108.078 63.3663 106.966C59.415 97.6641 60.8387 88.5348 63.7919 79.4816C64.7854 76.3005 66.2758 73.5728 68.1456 71.0625C68.9592 70.5175 69.3191 69.3332 70.4848 69.4957L70.6883 69.3594Z" fill="#0E1113"/>
<path d="M73.2913 122.011C73.26 121.403 72.7045 120.832 73.1544 120.373C73.6042 119.914 74.0424 120.25 74.3789 120.653C79.5271 126.639 86.0171 129.052 92.8825 130.585C97.2991 131.558 101.774 132.648 106.402 131.592C106.504 131.524 106.766 131.506 106.985 131.673C107.364 131.891 108.092 131.718 108.225 132.258C108.315 132.984 107.572 132.853 107.224 133.243C99.2903 134.469 91.7833 132.737 84.3154 129.72C80.0709 128.004 76.3193 125.643 73.174 121.775L73.2913 122.011Z" fill="#0E1113"/>
<path d="M109.458 58.165C109.696 59.7346 108.969 59.9075 107.803 59.7449C100.793 58.4659 93.8609 58.7067 86.9056 60.5354C85.3486 60.9494 83.866 61.7852 82.2661 62.3852C81.7575 62.7259 81.2333 62.7625 80.6074 62.8673C79.7194 62.9904 79.1796 62.7231 79.962 61.5702C80.0637 61.5021 80.1654 61.4339 80.2671 61.3658C84.4097 59.0627 88.8614 57.6531 93.4188 57.2734C97.8744 56.9617 102.228 56.7182 106.688 57.5045C107.693 57.6172 108.597 57.798 109.473 58.4689L109.458 58.165Z" fill="#0E1113"/>
<path d="M118.994 128.82C119.005 128.026 119.354 127.636 119.921 127.413C124.314 125.886 128.515 123.701 132.188 120.454C132.595 120.182 133.088 119.537 133.702 120.226C132.982 122.595 131.253 123.753 129.524 124.911C126.677 126.819 123.696 128.186 120.48 129.082C119.913 129.305 119.447 129.46 118.892 128.888L118.994 128.82Z" fill="#0E1113"/>
<path d="M138.776 106.45C138.765 107.244 138.999 107.716 139.684 107.729C139.743 107.847 139.801 107.965 139.86 108.083C140.212 108.79 141.437 109.07 140.959 110.019C140.482 110.968 139.903 111.984 138.636 111.89C138.006 110.897 137.579 109.767 136.601 109.165C136.062 108.897 135.682 108.68 135.467 109.61C135.178 110.118 135.936 110.553 135.487 111.012C135.428 110.894 135.369 110.776 135.209 110.726C134.43 108.889 134.559 108.331 136.101 107.613C136.609 107.273 136.594 106.969 136.621 106.479C137.497 107.15 138.15 106.555 138.921 106.196L138.776 106.45Z" fill="#EAEAEA"/>
<path d="M71.2981 113.915C70.7896 114.256 70.2224 114.478 69.6551 114.701C69.8859 114.075 70.2184 113.38 69.5182 113.063C68.9196 112.678 68.5285 113.255 68.196 113.949C67.8635 114.643 67.531 115.338 67.1985 116.032C66.8347 116.119 66.3692 116.273 66.0054 116.36C64.957 116.433 64.3585 116.048 65.0235 114.659C66.8425 114.227 67.6366 112.28 68.9431 111.09C70.234 110.959 71.0047 111.963 71.2551 114.101L71.2981 113.915Z" fill="#EAEAEA"/>
<path d="M115.868 62.0499C115.269 61.6647 115.34 60.9886 115.207 60.4488C115.293 60.0768 115.176 59.8409 114.956 59.6732L115.359 58.3028C115.359 58.3028 115.359 58.3028 115.461 58.2347C116.083 57.0319 116.588 55.5934 118.047 56.3455C119.549 56.9116 119.103 58.468 119.064 59.752C118.775 60.2603 118.587 60.7006 118.356 61.3268C117.585 61.6858 117.241 63.1741 116.161 62.6395C117.558 62.1757 117.8 60.7555 118.203 59.3851C118.332 58.827 118.403 58.1509 117.922 58.0016C117.382 57.7343 116.991 58.3107 116.701 58.8191C116.283 59.8855 116.024 61.0018 115.927 62.1678L115.868 62.0499Z" fill="#DDDFE0"/>
<path d="M133.126 114.164C133.079 113.252 133.251 112.507 133.963 112.031C134.479 113.886 135.735 114.774 137.151 115.712C137.91 116.147 138.157 115.825 138.11 114.913C138.094 114.609 137.918 114.256 137.844 113.834C138.646 114.083 139.158 114.84 139.045 115.702C138.83 116.632 138.043 116.687 137.417 116.792C136.893 116.829 136.31 116.747 135.786 116.784C134.953 115.927 134.221 115.002 133.388 114.145L133.126 114.164Z" fill="#DDDFE0"/>
<path d="M118.298 61.2108C118.587 60.7025 118.775 60.2623 119.006 59.6361C119.601 58.9233 120.227 58.8185 120.985 59.2535C121.748 60.7865 120.587 61.7219 120.066 62.8565C119.863 62.9928 119.558 63.1972 119.354 63.3334C119.049 63.5378 118.803 63.8601 118.423 63.6426C118.044 63.4251 118.071 62.935 118.099 62.445C118.126 61.955 118.153 61.4651 118.181 60.975L118.298 61.2108Z" fill="#0E1113"/>
<path d="M137.743 113.907C137.919 114.26 138.095 114.614 138.009 114.986C138.157 115.83 137.868 116.338 137.05 115.785C135.795 114.897 134.378 113.959 133.862 112.103C133.862 112.103 133.964 112.035 134.065 111.967C134.472 111.695 134.879 111.422 135.184 111.218C135.857 112.025 136.53 112.832 137.203 113.639C137.203 113.639 137.262 113.757 137.422 113.807L137.743 113.907Z" fill="#090909"/>
<path d="M70.6872 69.3569C69.5214 69.1943 69.0599 70.4468 68.3479 70.9237C68.1289 70.756 67.808 70.6564 67.5303 70.3708C66.8144 69.7497 66.4036 68.9243 66.9825 67.9077C67.5185 67.077 68.2461 66.9041 69.0637 67.457C69.8226 67.892 70.3781 68.4633 70.7889 69.2887L70.6872 69.3569Z" fill="#EDEDED"/>
<path d="M68.7978 119.518C68.9973 118.284 69.5175 117.149 70.1982 116.064C70.5893 115.488 71.0236 114.725 71.7395 115.346C72.3967 115.849 72.0642 116.544 71.7317 117.238C71.2545 118.187 70.3977 118.918 69.7014 119.699C69.3963 119.903 69.0325 119.989 68.6961 119.586L68.7978 119.518Z" fill="#1E1E1F"/>
<path d="M68.8824 110.973C67.5758 112.163 66.7817 114.11 64.9627 114.542C64.7553 113.58 65.569 113.035 65.6824 112.173C66.3787 111.392 67.1337 110.729 67.5523 109.663C68.4833 109.354 68.7767 109.943 68.8237 110.855L68.8824 110.973Z" fill="#1E1E1F"/>
<path d="M133.124 114.164C133.957 115.021 134.689 115.946 135.522 116.802C135.553 117.41 136.21 117.914 135.878 118.608C134.215 117.992 132.799 117.054 132.122 115.149C132.31 114.709 132.658 114.318 133.182 114.282L133.124 114.164Z" fill="#1E1E1F"/>
<path d="M73.2783 61.4919C75.0582 62.3436 75.0505 64.2356 75.3048 66.1091C75.2031 66.1772 74.9997 66.3134 74.8393 66.2636C74.1664 65.4565 73.5366 64.4634 72.8637 63.6563C72.2925 62.7811 72.3629 62.105 73.1766 61.56L73.2783 61.4919Z" fill="#1E1E1F"/>
<path d="M78.196 64.0116C77.9066 64.5199 77.5584 64.9104 77.0459 64.1531C76.3417 62.7381 75.6962 61.4409 75.6179 59.9211C75.7196 59.853 75.9231 59.7167 76.0248 59.6486C76.3455 59.7482 76.6076 59.7298 76.9284 59.8294C77.0458 60.0653 77.1044 60.1832 77.2218 60.419C77.4565 60.8907 77.5896 61.4305 77.7226 61.9703C77.8126 62.6961 77.9613 63.54 78.0513 64.2658L78.196 64.0116Z" fill="#1E1E1F"/>
<path d="M116.843 131.047C116.287 130.475 115.833 129.836 115.524 128.942C115.231 128.353 115.36 127.795 115.927 127.572C116.334 127.299 116.772 127.635 116.948 127.989C117.359 128.814 117.77 129.64 118.122 130.347C118.095 130.837 118.709 131.526 118.302 131.799C117.692 132.207 117.281 131.382 116.843 131.047Z" fill="#1E1E1F"/>
<path d="M115.361 58.305C115.173 58.7452 115.146 59.2352 114.958 59.6754C114.551 59.9479 114.262 60.4562 114.293 61.0641C113.886 61.3366 113.612 62.1489 112.955 61.6458C112.85 60.616 112.947 59.45 113.264 58.4516C113.479 57.5214 114.031 56.9948 114.993 57.2935C115.169 57.6473 115.345 58.001 115.42 58.4229L115.361 58.305Z" fill="#1E1E1F"/>
<path d="M114.8 133.202C114.331 132.259 113.615 131.637 113.145 130.694C112.852 130.104 112.821 129.497 113.431 129.088C113.939 128.747 114.436 129.2 114.671 129.672C115.023 130.38 115.332 131.273 115.582 132.049C115.395 132.489 116.04 133.786 114.8 133.202Z" fill="#1E1E1F"/>
<path d="M110.717 132.635C110.509 131.673 109.543 130.277 110.779 129.763C111.812 129.386 111.847 131.092 112.258 131.917L112.376 132.153C112.043 132.847 112.892 134.008 112.063 134.249C111.335 134.422 111.214 133.089 110.717 132.635Z" fill="#0E1113"/>
<path d="M67.2419 115.847C67.5744 115.153 67.907 114.459 68.2394 113.764C68.5289 113.256 68.9201 112.68 69.5616 112.879C70.3206 113.314 69.8277 113.958 69.6986 114.516C69.0023 115.297 68.4664 116.128 67.4923 116.623C67.375 116.387 67.1989 116.033 67.1833 115.73L67.2419 115.847Z" fill="#1E1E1F"/>
<path d="M72.4989 67.8312C71.5092 68.0224 69.2598 66.2274 69.2558 65.1295C69.2245 64.5216 69.6314 64.249 70.0539 64.2805C70.0539 64.2805 70.1125 64.3984 70.2142 64.3303C70.3316 64.5661 70.6524 64.6658 70.8714 64.8335C71.3409 65.7768 72.1741 66.6337 72.3385 67.7814L72.4989 67.8312Z" fill="#1E1E1F"/>
<path d="M136.56 109.348C137.437 110.018 137.965 111.08 138.594 112.073C138.54 113.053 138.102 112.717 137.562 112.45C137.034 111.389 135.954 110.854 135.426 109.793C135.731 109.589 136.095 109.502 136.56 109.348Z" fill="#090909"/>
<path d="M135.485 109.913C136.013 110.975 137.136 111.323 137.621 112.57C137.214 112.843 137.347 113.383 137.523 113.736C136.85 112.929 136.178 112.122 135.505 111.315C136.013 110.975 135.297 110.353 135.544 110.031L135.485 109.913Z" fill="#1E1E1F"/>
<path d="M72.5025 67.8297C72.2364 66.7501 71.5049 65.8251 71.0354 64.8818C71.0354 64.8818 71.0354 64.8818 71.0784 64.6958C71.0784 64.6958 71.0784 64.6958 71.1801 64.6277C71.6769 65.081 72.0721 65.6025 72.0603 66.3964C72.252 67.0542 72.5298 67.3397 73.1127 67.421C73.2301 67.6568 73.2887 67.7748 73.4061 68.0106C72.9993 68.2831 72.6941 68.4875 72.4007 67.8979L72.5025 67.8297Z" fill="#A9A9A9"/>
<path d="M77.3667 60.1641C77.2494 59.9283 77.1907 59.8103 77.0733 59.5745C77.5349 58.322 78.2038 58.0312 79.1975 58.9379C78.4699 59.1108 77.7423 59.2836 77.4685 60.0959L77.3667 60.1641Z" fill="#EAEAEA"/>
<path d="M76.13 59.5783C76.0283 59.6464 75.8249 59.7826 75.7232 59.8507C74.8156 58.572 74.2523 59.8926 73.423 60.1337C74.0724 58.4409 74.9603 58.3178 76.13 59.5783Z" fill="#EAEAEA"/>
<path d="M69.7613 63.6885C69.2528 64.0291 68.7598 64.6737 68.31 65.1322C68.1887 63.7985 68.5799 63.222 69.7613 63.6885Z" fill="#EAEAEA"/>
<path d="M80.2548 61.0649C80.1531 61.133 80.0514 61.2012 79.9497 61.2693C79.8323 61.0334 79.7149 60.7976 79.9614 60.4753C80.02 60.5932 80.1374 60.8291 80.1961 60.947L80.2548 61.0649Z" fill="#EAEAEA"/>
<path d="M70.9345 64.9484C70.8172 64.7126 70.4964 64.613 70.2773 64.4453C70.2773 64.4453 70.4807 64.3091 70.5825 64.2409C70.6998 64.4768 70.7585 64.5947 70.9776 64.7624C70.9776 64.7624 70.9776 64.7624 70.9345 64.9484Z" fill="#A9A9A9"/>
<path d="M70.9772 64.7636C70.8598 64.5278 70.8011 64.4099 70.582 64.2422C70.8872 64.0378 71.0632 64.3915 71.2392 64.7453C71.2392 64.7453 71.2392 64.7453 71.1375 64.8134L70.9772 64.7636Z" fill="#EAEAEA"/>
<path d="M70.0549 64.2749C70.0549 64.2749 69.9962 64.157 69.9375 64.0391C70.0392 63.9709 70.1409 63.9028 70.2426 63.8347C70.36 64.0705 70.317 64.2566 70.0549 64.2749Z" fill="#DDDFE0"/>
<path d="M70.2428 63.8401C70.1411 63.9082 70.0394 63.9763 69.9377 64.0444L69.8203 63.8086C70.0237 63.6723 70.1255 63.6043 70.3015 63.958L70.2428 63.8401Z" fill="#EAEAEA"/>
<path d="M83.9757 70.991C82.2937 73.061 81.2101 75.5163 79.9662 77.9217C79.6768 78.4301 79.446 79.0563 79.0548 79.6327C78.4759 80.6494 77.8382 81.5482 76.7428 80.7096C75.7062 79.989 75.8626 78.9409 76.3829 77.8063C77.5681 75.2829 78.7534 72.7595 80.318 70.4537C80.854 69.623 81.5502 68.8422 82.1879 67.9435C82.9272 66.9766 83.8426 66.3634 84.9223 66.898C86.1037 67.3645 86.268 68.5123 86.5927 69.7098C86.7414 70.5536 86.1194 71.7563 86.9801 72.1232C87.4613 72.2725 88.2006 71.3057 88.8108 70.8969C89.8279 70.2157 90.8723 69.0443 92.085 70.1187C93.2978 71.1931 92.8518 72.7496 92.449 74.1201C91.3694 77.6732 90.2898 81.2264 89.2103 84.7796C88.9364 85.5919 88.5766 86.7763 87.6729 86.5954C86.6089 86.3648 86.8513 84.9445 86.9648 84.0825C87.4928 81.056 88.7211 78.3466 89.4681 75.4878C89.6989 74.8616 90.2348 74.0309 89.8397 73.5094C89.3429 73.0561 88.807 73.8867 88.2984 74.2273C87.6882 74.6361 86.9762 75.1129 86.366 75.5217C85.7557 75.9304 85.1611 76.6432 84.3435 76.0902C83.6276 75.4692 83.8428 74.539 83.9562 73.6769C84.0697 72.8148 84.3434 72.0025 84.0344 71.1089L83.917 70.8731C83.917 70.8731 83.7136 71.0093 83.6119 71.0774L83.9757 70.991Z" fill="#100707"/>
<path d="M126.029 100.998C124.402 102.088 122.99 102.248 121.675 101.242C120.361 100.235 120.384 98.6475 120.466 97.1775C120.537 96.5015 120.709 95.7573 120.838 95.1991C121.112 94.3868 121.139 93.8968 120.278 93.5299C119.418 93.1631 119.113 93.3675 118.796 94.3658C118.479 95.3642 118.002 96.3127 117.305 97.0935C117 97.2979 116.813 97.7381 116.39 97.7066C115.909 97.5573 115.776 97.0175 115.803 96.5275C115.756 95.6156 115.971 94.6854 116.245 93.8731C117.356 90.9278 118.526 88.1005 119.695 85.2732C119.969 84.4609 120.403 83.6984 121.323 84.1832C122.183 84.55 121.968 85.4803 121.737 86.1066C121.377 87.2909 121.076 88.5932 120.615 89.8457C120.341 90.658 120.517 91.0118 121.319 91.2608C121.859 91.5281 122.399 91.7954 122.774 90.915C123.38 89.4083 124.425 88.237 125.528 87.1837C126.529 86.1984 127.273 86.3295 127.918 87.6266C128.036 87.8624 128.212 88.2162 128.431 88.3839C130.125 89.6077 130.481 91.4132 130.269 93.4413C129.917 96.8215 128.149 99.2636 126.189 101.048L126.029 100.998ZM124.535 98.5402C126.976 96.9052 128.302 93.0298 127.3 89.9273C127.007 89.3377 126.831 88.9839 126.338 89.6285C124.613 91.8845 123.427 94.4079 123.001 97.3662C122.872 97.9244 122.903 98.5323 123.342 98.8678C123.78 99.2032 124.128 98.8127 124.535 98.5402Z" fill="#100707"/>
<path d="M94.6919 85.9819C93.9564 83.9589 94.3554 81.4906 94.813 79.1401C95.1415 77.3478 96.0099 75.8228 97.1991 74.3974C99.6361 71.6644 103.572 72.4874 105.011 75.9253C105.79 77.7622 105.039 79.5231 103.278 80.0733C101.882 80.5371 100.411 80.5789 98.9988 80.7387C98.3729 80.8435 97.3518 80.4268 97.1523 81.661C96.9099 83.0812 96.5657 84.5696 97.8371 85.7619C98.6117 86.5009 99.5153 86.6817 100.419 86.8625C101.483 87.0932 102.649 87.2557 103.713 87.4863C104.034 87.5859 104.558 87.5493 104.472 87.9214C104.487 88.2253 104.139 88.6157 103.936 88.752C103.326 89.1607 102.657 89.4516 101.929 89.6245C99.2807 90.2978 96.1003 88.8119 94.6332 85.864L94.6919 85.9819ZM102.293 77.2747C100.931 75.3566 99.5189 75.5164 98.4353 77.9716C99.8045 77.9978 101.056 77.7883 102.293 77.2747Z" fill="#100707"/>
<path d="M112 96.2407C111.186 96.7857 110.513 95.9786 110.552 94.6946C110.576 93.1067 111.139 91.7861 111.745 90.2794C112.266 89.1448 112.09 88.7911 111.01 88.2565C109.668 87.7402 108.941 87.9131 108.553 89.5875C108.44 90.4496 108.006 91.2121 107.513 91.8566C107.165 92.2471 106.817 92.6375 106.335 92.4882C105.795 92.2209 105.721 91.7989 105.69 91.191C105.541 90.3472 105.655 89.4852 105.827 88.741C106.82 85.5599 107.872 82.4967 108.968 79.2475C109.241 78.4352 109.734 77.7906 110.595 78.1575C111.456 78.5244 111.444 79.3184 111.33 80.1805C111.072 81.2968 110.873 82.531 110.454 83.5974C110.18 84.4097 110.314 84.9495 111.174 85.3164C113.435 86.3175 113.435 86.3175 114.3 83.6945C114.429 83.1364 114.66 82.5101 114.847 82.0699C115.121 81.2576 115.555 80.4952 116.576 80.9118C117.437 81.2787 117.324 82.1408 117.108 83.071C116.749 84.2554 116.447 85.5577 115.986 86.8102C115.121 89.4332 114.3 91.87 113.377 94.375C113.103 95.1873 112.712 95.7638 112.219 96.4084L112 96.2407Z" fill="#100707"/>
<path d="M86.887 90.7395C87.1491 90.7212 87.4699 90.8207 87.7907 90.9203C94.4684 92.8937 100.641 96.3057 107.061 99.3953C107.601 99.6626 108.622 100.079 108.348 100.892C108.117 101.518 107.241 100.847 106.701 100.58C100.442 97.5399 94.0812 94.5681 87.6773 91.7824C87.3565 91.6828 87.1375 91.5151 86.8597 91.2294C86.7423 90.9936 86.625 90.7578 86.9301 90.5534L86.887 90.7395Z" fill="#220F10"/>
<path d="M102.548 100.686C102.548 100.686 102.665 100.922 102.622 101.108C102.477 101.362 102.215 101.38 102.012 101.516C101.006 101.404 100.087 100.919 99.2265 100.552C97.607 99.75 95.8857 99.0163 94.2662 98.2144C93.9454 98.1148 93.5073 97.7793 93.6363 97.2212C93.7654 96.6631 94.2466 96.8125 94.5673 96.9121C97.1923 97.8267 99.6724 98.9954 102.008 100.418C102.067 100.536 102.286 100.704 102.505 100.872L102.548 100.686Z" fill="#220F10"/>
<path d="M115.868 62.052C115.966 60.8859 116.224 59.7697 116.642 58.7032C116.873 58.0769 117.163 57.5686 117.863 57.8857C118.403 58.153 118.332 58.829 118.144 59.2692C117.683 60.5217 117.44 61.942 116.103 62.5237C116.044 62.4057 115.985 62.2878 115.868 62.052Z" fill="#1E1E1F"/>
<path d="M111.383 61.7531C110.593 60.7102 110.734 59.3582 110.671 58.1423C110.698 57.6523 110.886 57.212 111.309 57.2435C111.833 57.2068 112.068 57.6785 112.04 58.1685C111.986 59.1485 111.931 60.1286 111.833 61.2946C111.63 61.4309 111.426 61.5671 111.383 61.7531Z" fill="#1E1E1F"/>
<path d="M112.953 61.645C113.611 62.1481 113.826 61.2179 114.291 61.0633C114.585 61.6529 114.397 62.0932 113.99 62.3657C113.482 62.7063 113.043 62.3708 112.75 61.7812C112.75 61.7812 112.852 61.7131 112.953 61.645Z" fill="#A9A9A9"/>
<path d="M135.345 111.264C134.938 111.537 134.532 111.809 134.227 112.014C134.137 111.288 134.661 111.251 135.068 110.979C135.126 111.097 135.185 111.214 135.345 111.264Z" fill="#1E1E1F"/>
<path d="M114.29 61.059C114.258 60.4511 114.606 60.0607 114.955 59.6703C115.072 59.9061 115.189 60.142 115.205 60.4459C114.9 60.6503 114.595 60.8547 114.29 61.059Z" fill="#A9A9A9"/>
<path d="M73.2119 115.307C72.7894 115.276 72.7151 114.854 72.6408 114.432C73.0633 114.463 73.4427 114.681 73.2119 115.307Z" fill="#EAEAEA"/>
<path d="M78.1967 64.0117C78.1067 63.2858 77.958 62.4421 77.868 61.7163C78.4822 62.4054 79.7223 62.9898 78.1967 64.0117Z" fill="#EAEAEA"/>
<path d="M136.562 109.349C136.257 109.554 135.893 109.64 135.428 109.795C135.541 108.933 135.964 108.964 136.562 109.349Z" fill="#1E1E1F"/>
<path d="M83.9766 70.9883C83.9766 70.9883 84.18 70.852 84.2817 70.7839L84.399 71.0198C84.399 71.0198 84.2386 70.97 84.0782 70.9202L83.9766 70.9883Z" fill="#EB646C"/>
<path d="M124.535 98.5377C124.128 98.8102 123.721 99.0827 123.341 98.8652C122.903 98.5298 122.872 97.9218 123.001 97.3637C123.427 94.4053 124.613 91.882 126.338 89.6259C126.831 88.9813 127.108 89.267 127.3 89.9247C128.302 93.0272 126.976 96.9027 124.535 98.5377Z" fill="#EB646C"/>
<path d="M102.29 77.2743C101.054 77.7879 99.8023 77.9975 98.4332 77.9712C99.5167 75.516 100.87 75.2383 102.29 77.2743Z" fill="#EB646C"/>
</g>
<defs>
<filter id="filter0_d_2406_5566" x="8.38281" y="0.859375" width="185" height="185" filterUnits="userSpaceOnUse" color-interpolation-filters="sRGB">
<feFlood flood-opacity="0" result="BackgroundImageFix"/>
<feColorMatrix in="SourceAlpha" type="matrix" values="0 0 0 0 0 0 0 0 0 0 0 0 0 0 0 0 0 0 127 0" result="hardAlpha"/>
<feOffset dx="-5" dy="5"/>
<feComposite in2="hardAlpha" operator="out"/>
<feColorMatrix type="matrix" values="0 0 0 0 0 0 0 0 0 0 0 0 0 0 0 0 0 0 1 0"/>
<feBlend mode="normal" in2="BackgroundImageFix" result="effect1_dropShadow_2406_5566"/>
<feBlend mode="normal" in="SourceGraphic" in2="effect1_dropShadow_2406_5566" result="shape"/>
</filter>
</defs>
</svg>
