<svg width="131" height="93" viewBox="0 0 131 93" fill="none" xmlns="http://www.w3.org/2000/svg">
<path d="M129.227 1.67285V86.8882C129.227 89.5451 127.211 91.7099 124.776 91.7099H6.28098C3.84558 91.7099 1.83008 89.5451 1.83008 86.8882V1.67285H129.227Z" fill="url(#paint0_linear_2021_7680)"/>
<path d="M1.99805 1.87012C1.99805 1.87012 53.5614 70.5541 65.3185 70.5541C75.8999 70.5541 128.975 1.96852 128.975 1.96852C128.975 1.96852 126.875 3.44454 124.692 3.44454C102.857 3.44454 31.1389 3.44454 5.60916 3.44454C3.92957 3.44454 1.99805 1.87012 1.99805 1.87012Z" fill="black"/>
<path d="M78.1677 36.9005L81.2749 34.0469L124.02 83.4442L73.4648 39.8525L78.1677 36.9005Z" fill="black"/>
<path d="M53.5617 36.9006L49.7826 33.2598L7.45703 84.5267L57.5927 39.8526L53.5617 36.9006Z" fill="black"/>
<path d="M1.83008 1.67285C1.83008 1.67285 53.8133 64.748 65.6544 64.748C76.2358 64.748 129.311 1.67285 129.311 1.67285C129.311 1.67285 127.043 1.77125 124.86 1.77125C103.025 1.77125 31.3068 1.77125 5.7771 1.77125C4.09752 1.77125 1.83008 1.67285 1.83008 1.67285Z" fill="#76B82A"/>
<path d="M129.563 1.57422V85.5104L128.303 89.84L124.272 6.10067L4.68537 5.01826L3.42568 87.5768L2.16599 40.6395L1.83008 1.67262L129.563 1.57422Z" fill="white"/>
<path d="M129.227 0.0983996H113.187C107.812 0.0983996 102.437 0.0984019 97.1466 0.196803L81.1065 0.295203L65.1504 0.492006L49.1944 0.688809L33.3223 0.984011L1.83002 1.57442C1.57808 14.8586 1.32614 28.3395 1.15818 41.9189C0.90624 55.4982 0.822261 69.176 0.738281 82.8537V85.4122V86.6914C0.738281 86.8882 0.738281 87.1834 0.738281 87.4786C0.738281 87.7738 0.822261 88.069 0.906241 88.2658C1.32614 90.4306 2.83777 92.1035 4.60133 92.6939C5.44113 93.0875 6.44888 92.9891 7.12071 92.9891H9.30417H13.6711C19.4657 92.9891 25.2602 92.8907 30.9708 92.8907L65.6543 92.3003C77.2434 92.1035 88.7486 92.1035 100.338 92.2019C106.132 92.2019 111.927 92.3003 117.638 92.3987L122.004 92.4971H124.188C124.86 92.4971 125.784 92.5955 126.539 92.2019C128.135 91.7098 129.563 90.1354 129.982 88.1674C130.066 87.9706 130.066 87.6754 130.15 87.3802C130.15 87.1834 130.15 86.8882 130.15 86.6914V85.4122V82.8537C130.318 69.2744 130.402 55.7934 130.57 42.2141L130.738 1.57442V0L129.227 0.0983996ZM128.471 87.2818C128.471 87.4786 128.471 87.577 128.387 87.7738C128.135 89.1514 127.127 90.2338 125.951 90.7258C125.364 91.021 124.776 90.9226 124.02 91.021H121.836L117.47 91.1195C111.675 91.2178 105.88 91.2178 100.17 91.3163C88.5807 91.4146 77.0755 91.4146 65.4863 91.2178L30.8029 90.6274C25.0083 90.529 19.2137 90.529 13.5031 90.529H9.13621H6.95275C6.19694 90.529 5.69306 90.529 5.18919 90.3322C4.18144 89.9386 3.25766 89.053 3.00572 87.8722C2.92174 87.7738 2.92175 87.577 2.92175 87.4786C2.92175 87.2818 2.92175 87.1834 2.92175 86.9866V85.7074V83.149C2.83777 69.7664 2.75379 56.3839 2.50185 42.9029C2.41787 29.2251 2.16593 15.6458 1.91399 1.77122L34.0781 2.36162L50.0342 2.65683L65.9062 2.85363L81.7783 3.05043L97.5664 3.14884C102.857 3.14884 108.064 3.24724 113.355 3.24724H127.799L127.967 42.3125C128.051 55.8918 128.135 69.3728 128.387 82.9522V85.5106V86.7898C128.471 86.9866 128.471 87.085 128.471 87.2818Z" fill="black"/>
<path d="M35.1702 43.2969L7.45703 84.5269L38.4454 47.0361" fill="#EDFFFF"/>
<path d="M95.4666 42.9033L124.02 83.4446L92.1914 46.6426" fill="#EDFFFF"/>
<path d="M128.135 2.95202C128.135 2.95202 76.0678 64.5511 65.4025 64.5511C53.5614 64.5511 2.08203 2.06641 2.08203 2.06641L128.135 2.95202Z" fill="#EDFFFF"/>
<path d="M28.4492 32.5713C42.4738 49.1027 58.6818 66.5197 64.8963 66.5197C69.5151 66.5197 81.9441 55.3019 93.5332 41.9194C81.6081 54.3179 69.2632 64.2564 64.8963 64.2564C58.9337 64.2564 42.8937 48.4139 28.4492 32.5713Z" fill="black"/>
<path d="M40.7948 23.58C40.6269 23.3837 40.6269 23.2855 40.6269 22.991C40.5429 22.3038 40.3749 22.5001 40.207 21.9111C40.039 21.322 40.039 21.4202 40.039 20.9293C40.039 20.6348 40.039 20.5366 39.955 20.3403C39.955 20.1439 39.871 20.0458 39.871 19.8494C39.871 19.7512 39.871 19.5549 39.871 19.4567V19.3585H39.7031C39.4512 19.3585 39.2832 19.2604 39.1992 18.9658C39.1992 18.7695 39.1992 18.6713 39.4512 18.3768C39.5351 18.2786 39.7031 18.0823 39.7871 18.0823L39.955 17.9841V17.7877C39.955 17.5914 39.955 17.2969 39.955 17.1005C39.955 16.9042 39.955 16.7078 39.955 16.4133C39.955 16.217 39.955 16.1188 39.955 15.8243C39.955 15.5297 39.955 15.4316 39.955 15.0389C39.955 14.6462 39.955 14.548 39.955 14.3516C39.955 14.2535 40.039 14.0571 40.039 13.9589C40.039 13.8608 40.039 13.7626 40.123 13.6644C40.123 13.5662 40.207 13.4681 40.207 13.3699C40.207 13.2717 40.2909 13.1735 40.2909 13.0754C40.3749 12.879 40.5429 12.6827 40.7108 12.5845C40.7948 12.5845 40.8788 12.4863 40.9628 12.4863C41.2987 12.4863 41.5506 12.7808 41.7186 13.5662C41.8866 14.0571 41.8866 14.3516 41.9705 15.5297C41.9705 16.1188 42.1385 16.3151 41.9705 16.806C41.9705 17.0023 41.8866 17.1005 41.8866 17.1987C41.8866 17.2969 41.8866 17.2969 41.9705 17.395C42.0545 17.395 42.1385 17.395 42.2225 17.395C42.3065 17.395 42.4744 17.395 42.6424 17.395C42.8103 17.395 42.8943 17.395 42.9783 17.395C43.0623 17.395 43.1462 17.2969 43.3982 17.395H43.7341C43.8181 17.395 43.9021 17.395 43.9021 17.395C43.986 17.2969 43.986 16.7078 44.07 16.0206C44.07 15.5297 44.07 15.3334 44.154 14.6462C44.154 14.2535 44.154 14.2535 44.238 14.0571C44.322 13.9589 44.322 13.8608 44.322 13.6644C44.322 13.3699 44.4059 13.1735 44.5739 12.9772C44.6579 12.879 44.7419 12.879 44.8258 12.7809C44.9938 12.7809 45.1617 12.7808 45.2457 12.879C45.4137 12.9772 45.4977 13.2717 45.4977 13.4681C45.4977 13.5662 45.4977 13.6644 45.5816 13.7626C45.6656 13.9589 45.6656 13.9589 45.6656 14.1553C45.6656 14.6462 45.6656 15.6279 45.7496 16.217L45.8336 17.1987C45.8336 17.6896 45.8336 17.7877 45.9176 17.8859C45.9176 17.9841 46.0015 18.1804 46.0015 18.3768V18.7695C46.0015 18.8677 46.0015 18.9658 46.0015 19.1622C46.0015 19.3585 46.0015 19.4567 46.0015 19.5549C46.0855 19.8494 46.0855 19.9476 45.9176 20.3403C45.8336 20.733 45.8336 20.733 45.8336 21.4202C45.8336 23.0892 45.8336 23.0892 45.7496 23.3837C45.6656 23.7764 45.6656 23.7764 45.5816 23.8745C45.3297 24.1691 44.8258 23.9727 44.6579 23.3837L44.5739 23.0892C44.5739 22.991 44.5739 22.7946 44.4899 22.5983L44.4059 22.0092C44.4059 21.8129 44.322 21.6165 44.322 21.5184C44.322 21.4202 44.322 21.322 44.238 21.2238C44.238 21.1257 44.154 21.0275 44.154 20.9293C44.154 20.8311 44.154 20.6348 44.07 20.5366C44.07 20.3403 43.986 20.1439 43.986 19.9476C43.986 19.7512 43.9021 19.5549 43.9021 19.4567C43.8181 19.2604 43.8181 19.1622 43.8181 18.9658C43.8181 18.7695 43.8181 18.6713 43.7341 18.6713C43.6501 18.6713 42.9783 18.6713 42.8943 18.6713C42.8103 18.7695 42.2225 18.7695 42.0545 18.7695H41.8866V18.8677C41.8026 19.064 41.8026 19.2604 41.8866 19.5549C41.9705 19.7512 41.9705 20.1439 41.8866 20.2421C41.8866 20.3403 41.8866 20.6348 41.8866 21.0275C41.8866 21.7147 41.8866 21.9111 41.7186 22.2056C41.6346 22.4019 41.6346 22.4019 41.6346 22.5001C41.6346 22.6965 41.6346 22.991 41.5506 23.2855C41.5506 23.3837 41.4667 23.4819 41.4667 23.6782C41.3827 23.9727 41.2987 24.0709 41.0468 24.0709C41.0468 23.8745 40.8788 23.7764 40.7948 23.58Z" fill="black"/>
<path d="M50.2854 23.9724C50.1175 23.8742 49.9495 23.776 49.7815 23.4815C49.6136 23.187 49.6136 23.187 49.5296 22.7943L49.4456 22.3034V22.1071C49.4456 22.1071 49.0257 22.4998 48.9418 22.7943C48.8578 22.9906 48.7738 22.9906 48.6058 23.0888C48.1859 23.2852 47.934 23.2852 47.5981 23.0888L47.3461 22.8925C47.1782 22.7943 47.0942 22.6961 47.0102 22.4998L46.7583 22.1071C46.5903 21.8125 46.5063 21.6162 46.5903 21.2235C46.5903 20.929 46.5903 20.8308 46.5903 20.6345C46.5063 20.2418 46.5063 20.0454 46.5903 19.8491C46.6743 19.7509 46.6743 19.5545 46.6743 19.4564C46.6743 19.3582 46.7583 19.1618 46.8423 19.0637C46.9262 18.9655 47.0102 18.7691 47.0102 18.5728C47.0102 18.4746 47.0942 18.2783 47.1782 18.1801C47.2622 18.0819 47.3461 17.9837 47.3461 17.7874C47.5141 17.4929 47.934 16.9038 48.3539 16.6093C48.3539 16.6093 48.5219 16.5111 48.6898 16.5111C49.1097 16.413 49.2777 16.413 49.5296 16.5111C49.7815 16.6093 49.8655 16.7075 50.0335 16.9038L50.2014 17.1984C50.2854 17.2965 50.3694 17.4929 50.3694 17.591L50.4534 17.8856C50.5374 17.9837 50.5374 18.5728 50.5374 19.0637C50.5374 19.26 50.5374 19.3582 50.5374 19.4564C50.7053 19.4564 50.8733 19.8491 50.8733 20.0454C50.8733 20.1436 50.8733 20.2418 50.9573 20.3399C51.0412 20.4381 51.0412 20.5363 51.0412 20.7326V21.2235V21.8125C51.0412 21.9107 51.0412 22.1071 51.0412 22.2052C51.0412 22.3034 51.1252 22.4016 51.1252 22.5979C51.1252 22.7943 51.1252 22.7943 51.2092 22.7943C51.2092 22.7943 51.4611 22.5979 51.6291 22.3034L51.881 21.9107C51.965 21.8125 52.049 21.6162 52.133 21.518L52.3009 21.2235L52.3849 20.929L52.6368 20.3399C52.8048 19.9472 52.8048 19.8491 52.9728 19.6527C53.1407 19.4564 53.1407 19.4564 53.2247 19.4564C53.3087 19.4564 53.3087 19.4564 53.3927 19.5545C53.4766 19.6527 53.3927 19.7509 53.3087 20.1436C53.2247 20.5363 53.2247 20.6345 53.0567 20.8308L52.8048 21.3217C52.7208 21.518 52.5529 21.8125 52.4689 21.9107C52.3849 22.0089 52.3009 22.2052 52.3009 22.3034C52.3009 22.4016 52.133 22.6961 51.881 22.9906L51.6291 23.3833C51.5451 23.5797 51.0412 24.0706 50.9573 24.0706C50.7893 24.0706 50.4534 24.0706 50.2854 23.9724ZM48.6898 21.3217L48.8578 21.1253C48.8578 21.0272 48.9418 21.0271 48.9418 20.929C48.9418 20.929 49.0257 20.7326 49.1097 20.7326C49.1937 20.6345 49.2777 20.5363 49.2777 20.5363C49.2777 20.5363 49.3616 20.4381 49.4456 20.3399C49.6136 20.1436 49.7815 19.8491 49.7815 19.7509V19.6527C49.7815 19.5545 49.6976 19.4564 49.6976 19.4564C49.6976 19.26 49.6136 19.26 49.5296 18.8673C49.4456 18.4746 49.3616 18.1801 49.2777 18.0819C49.2777 18.0819 49.1937 17.9837 49.1097 17.8856C49.0257 17.8856 48.9418 17.7874 48.9418 17.7874C48.8578 17.7874 48.5219 18.1801 48.4379 18.2783C48.4379 18.3764 48.4379 18.4746 48.4379 18.4746C48.4379 18.671 48.3539 18.8673 48.2699 19.0637C48.1859 19.1618 48.1859 19.26 48.1859 19.4564C48.1859 19.5545 48.102 19.7509 48.102 19.9472C48.018 20.2418 47.934 20.8308 48.018 21.0271C48.018 21.1253 48.102 21.2235 48.102 21.4198C48.102 21.6162 48.1859 21.8125 48.1859 21.8125C48.2699 21.7144 48.6058 21.518 48.6898 21.3217Z" fill="black"/>
<path d="M56.4979 23.7764C56.4979 23.6783 56.4139 23.5801 56.3299 23.4819C56.246 23.3837 56.162 23.2856 56.162 23.1874C55.994 22.6965 55.91 22.6965 55.91 22.3038C55.91 22.1075 55.91 21.9111 55.8261 21.9111C55.8261 21.813 55.8261 21.7148 55.8261 21.5184C55.8261 21.4203 55.8261 21.2239 55.8261 21.0276C55.8261 20.5367 55.91 19.9476 55.91 19.7513C55.91 19.5549 55.994 19.555 55.91 19.3586C55.91 19.1623 55.91 19.0641 55.91 18.9659V18.5732C55.91 18.475 55.994 18.2787 55.994 18.1805C56.078 17.9842 56.162 17.2969 56.162 17.2969C56.078 17.1988 55.4062 17.9842 55.3222 18.1805C55.3222 18.2787 55.2382 18.3769 55.1542 18.475C54.9863 18.6714 54.8183 19.0641 54.8183 19.1623V19.4568C54.7343 19.6531 54.5664 20.0458 54.5664 20.144C54.5664 20.2422 54.5664 20.3403 54.4824 20.3403C54.4824 20.4385 54.3984 20.5367 54.3984 20.733C54.3984 20.9294 54.3144 21.1257 54.2305 21.2239L54.0625 21.5184C53.9785 21.7148 53.8106 21.813 53.6426 21.813C53.3907 21.813 53.2227 21.7148 53.1387 21.4203C53.0547 21.3221 52.8868 20.3403 52.8028 20.144C52.7188 19.9476 52.7188 19.8495 52.7188 19.5549C52.7188 19.3586 52.7188 19.0641 52.7188 18.9659C52.6348 18.475 52.8028 18.7696 52.8028 17.5915C52.8028 17.1988 52.8028 17.1988 53.0547 16.7079C53.2227 16.4134 53.3067 16.3152 53.5586 16.3152C53.7266 16.3152 53.8945 16.4134 53.9785 16.6097C54.1465 16.8061 54.2305 17.0024 54.2305 17.2969L54.3144 17.6896C54.3144 17.7878 54.3984 17.9842 54.3984 18.2787C54.3984 18.475 54.3984 18.6714 54.3984 18.6714C54.3984 18.6714 54.5664 18.3769 54.7343 18.0823C54.9863 17.5915 55.5741 16.7079 55.994 16.3152C56.3299 16.0207 56.3299 16.0207 56.4139 15.9225C56.4979 15.8243 56.6659 15.9225 56.8338 16.0207C57.0858 16.1188 57.1697 16.217 57.2537 16.5115L57.4217 16.8061C57.4217 16.8061 57.5056 16.9042 57.5056 17.0024C57.5896 17.1988 57.5896 17.1988 57.5896 17.9842C57.5896 18.7696 57.5896 19.0641 57.5056 19.5549C57.5056 19.7513 57.5056 19.8495 57.5056 19.9476C57.5056 20.144 57.5056 20.4385 57.3377 20.8312C57.3377 21.0276 57.3377 21.1257 57.3377 21.4203C57.3377 22.1075 57.2537 22.0093 57.3377 22.5002L57.4217 22.991C57.4217 23.2856 57.5057 23.3837 57.6736 23.2856C57.7576 23.2856 57.8416 23.2856 57.9255 23.0892C58.1775 22.7947 58.3454 22.5984 58.5134 22.402C58.5974 22.3038 58.6814 22.1075 58.6814 22.1075C58.7653 22.0093 59.0173 21.4203 59.1013 21.3221C59.1852 21.2239 59.3532 20.9294 59.3532 20.8312C59.3532 20.733 59.5212 20.3403 59.6891 20.144C59.7731 20.0458 59.941 19.7513 60.025 19.5549C60.277 19.0641 60.4449 18.9659 60.4449 19.2604C60.4449 19.3586 60.4449 19.4568 60.4449 19.5549C60.193 20.2422 60.277 20.0458 60.109 20.5367L60.025 20.8312L59.6051 21.7148C59.5212 21.9111 59.4372 22.0093 59.4372 22.0093C59.4372 22.0093 59.3532 22.1075 59.2692 22.2057C59.1013 22.5002 59.0173 22.6965 59.0173 22.6965C59.0173 22.6965 58.5974 23.2856 58.5134 23.4819C58.2615 23.7764 58.0095 24.071 57.8416 24.071C57.6736 24.1691 57.4217 24.1691 57.2537 24.1691C57.1697 24.5618 56.6659 24.1691 56.4979 23.7764Z" fill="black"/>
<path d="M61.1171 23.9725C60.9492 23.7762 60.6972 23.2853 60.6133 23.0889C60.6133 22.9908 60.5293 22.7944 60.4453 22.6962C60.2773 22.3035 60.2773 22.2054 60.1934 21.1255C60.1934 20.8309 60.1934 20.6346 60.1934 20.4382L60.2773 19.8492C60.2773 19.4565 60.2773 19.3583 60.4453 19.0638C60.4453 18.9656 60.5293 18.7693 60.6133 18.5729C60.7812 17.6893 60.7812 17.6894 60.8652 17.493C61.0331 17.1003 61.3691 16.7076 61.621 16.5113C61.789 16.4131 61.789 16.4131 62.0409 16.4131C62.2928 16.4131 62.3768 16.4131 62.5448 16.6094C62.7127 16.7076 62.7127 17.0021 62.7127 17.1985C62.7127 17.2967 62.7127 17.493 62.7967 17.5912C62.8807 17.9839 62.8807 18.2784 62.7127 18.7693C62.6288 18.9656 62.6288 19.0638 62.6288 19.3583C62.6288 19.5547 62.5448 19.8492 62.5448 20.0455C62.5448 20.2419 62.4608 20.4382 62.4608 20.5364C62.4608 20.9291 62.3768 21.6163 62.2928 21.6163C62.2089 21.8127 62.2089 22.1072 62.2928 22.2054C62.2928 22.3035 62.6288 21.9108 62.7967 21.6163C62.8807 21.42 62.9647 21.2236 63.2166 20.8309C63.3006 20.7328 63.3006 20.6346 63.3006 20.5364C63.3006 20.5364 63.3846 20.3401 63.3846 20.2419C63.4685 20.1437 63.4686 20.0455 63.4686 20.0455C63.4686 20.0455 63.4686 19.9474 63.5525 19.8492C63.6365 19.6528 63.6365 19.6528 63.7205 19.2601C63.7205 19.162 63.8045 18.9656 63.8045 18.8674C63.8045 18.7693 63.8885 18.5729 63.8885 18.2784C63.8885 17.6894 63.9724 17.493 64.2244 17.1985C64.4763 16.904 64.6443 16.8058 64.8122 16.8058C64.9802 16.904 65.1481 17.0021 65.4001 17.493C65.4841 17.6894 65.4841 17.6894 65.568 18.1802C65.568 18.8674 65.568 18.7693 65.4841 19.3583C65.4841 19.4565 65.4841 19.6528 65.4001 19.8492C65.4001 19.9474 65.3161 20.1437 65.3161 20.3401C65.3161 20.4382 65.3161 20.5364 65.2321 20.6346C65.2321 20.6346 65.2321 20.8309 65.2321 21.0273V21.6163C65.2321 21.9108 65.2321 21.9108 65.2321 22.009C65.3161 22.1072 65.4001 22.1072 65.4841 22.009L65.652 21.8127C65.736 21.8127 65.82 21.6163 65.9039 21.5181C65.9879 21.42 66.0719 21.3218 66.0719 21.2236C66.1559 21.2236 66.1559 21.0273 66.2399 21.0273C66.2399 20.9291 66.3239 20.8309 66.4078 20.7328C66.5758 20.5364 66.6598 20.3401 66.9117 19.9474C67.1636 19.4565 67.3316 19.2601 67.4156 19.2601C67.5835 19.2601 67.5835 19.4565 67.4996 19.751C67.4996 19.9474 67.4156 19.9474 67.1636 20.5364C67.0797 20.6346 67.0797 20.8309 67.0797 20.8309C67.0797 20.8309 67.0797 20.9291 66.9957 21.0273C66.9957 21.1255 66.9117 21.2236 66.9117 21.3218L66.7437 21.6163L66.4918 22.009C66.3238 22.3035 65.9879 22.5981 65.652 22.8926C65.3161 23.0889 65.2321 23.1871 65.0642 23.0889C64.8122 22.9908 64.3923 22.4999 64.3083 22.2054L64.2244 21.8127C64.2244 21.7145 64.1404 21.6163 64.1404 21.42C64.1404 21.3218 64.0564 21.1255 64.0564 21.0273C63.9724 20.9291 63.8885 20.6346 63.8885 20.5364C63.8885 20.4382 63.8884 20.5364 63.8045 20.7328L63.6365 21.2236C63.2166 22.3035 63.2166 22.1072 63.0487 22.4999C62.9647 22.5981 62.8807 22.7944 62.8807 22.7944L62.7967 22.9908C62.7127 23.1871 62.4608 23.4816 62.3768 23.4816C62.2928 23.5798 62.1249 23.5798 61.9569 23.5798C61.705 23.5798 61.621 23.5798 61.537 23.5798C61.2851 24.0707 61.2011 23.9725 61.1171 23.9725Z" fill="black"/>
<path d="M68.8436 23.4811C68.5917 23.4811 68.2558 23.2848 68.0039 22.9902C67.8359 22.7939 67.8359 22.7939 67.6679 22.4994L67.5 22.1067C67.416 21.9103 67.332 21.8121 67.332 21.6158C67.332 21.5176 67.332 21.4194 67.248 21.2231C67.1641 20.8304 67.1641 20.8304 67.1641 20.2414C67.1641 19.5541 67.248 19.2596 67.416 18.6706C67.5 18.4742 67.584 18.1797 67.584 18.1797C67.584 18.0815 67.6679 17.9833 67.6679 17.9833C67.8359 17.6888 67.9199 17.4925 68.0878 17.2961L68.3398 17.0016C68.5077 16.7071 68.8437 16.5107 69.0956 16.4126C69.1796 16.4126 69.2636 16.4126 69.3475 16.3144L69.5155 16.2162C69.5995 16.118 70.1033 16.118 70.3553 16.2162C70.6072 16.2162 70.7752 16.4126 70.8592 16.6089C70.9431 16.8053 71.0271 17.198 71.0271 17.3943C71.0271 17.5907 70.8592 17.6888 70.7752 17.787C70.6912 17.787 70.6072 17.787 70.3553 17.6888C70.1873 17.5906 70.0194 17.6888 69.7674 17.787C69.5995 17.8852 69.5995 17.8852 69.4315 18.1797C69.1796 18.5724 69.0956 18.9651 69.0116 19.2596L68.9276 19.8487C68.8437 20.1432 68.8436 20.2414 68.8436 20.9286C68.8436 21.9103 68.8437 21.8121 68.9276 22.303C68.9276 22.4012 69.0956 22.5975 69.2635 22.6957C69.3475 22.7939 69.4315 22.7939 69.5155 22.7939C69.6834 22.7939 69.7674 22.6957 70.1033 22.4994C70.4393 22.303 70.8591 21.714 71.1111 21.3213C71.1951 21.2231 71.279 21.0268 71.363 20.9286C71.447 20.8304 71.531 20.7322 71.615 20.6341C71.6989 20.4377 72.0349 19.8487 72.1189 19.7505H72.2028C72.2868 19.7505 72.2868 19.8487 72.1189 20.2414C71.9509 20.7322 71.7829 21.0268 71.699 21.1249C71.699 21.2231 71.615 21.3213 71.615 21.3213V21.4194C71.531 21.6158 71.0271 22.303 70.8592 22.4994C70.5232 22.8921 70.1033 23.2848 70.0194 23.2848C69.9354 23.2848 69.8514 23.2848 69.7674 23.3829C69.6834 23.4811 69.5995 23.4811 69.3475 23.4811C69.1796 23.4811 68.9276 23.4811 68.8436 23.4811Z" fill="black"/>
<path d="M75.8147 23.9724C75.6468 23.8742 75.4788 23.776 75.3108 23.4815C75.1429 23.187 75.1429 23.187 75.0589 22.7943L74.9749 22.3034V22.1071C74.9749 22.1071 74.555 22.4998 74.471 22.7943C74.3871 22.9906 74.3031 22.9906 74.1351 23.0888C73.7152 23.2852 73.4633 23.2852 73.1274 23.0888L72.8754 22.8925C72.7075 22.7943 72.6235 22.6961 72.5395 22.4998L72.2876 22.1071C72.1196 21.8125 72.0356 21.6162 72.1196 21.2235C72.1196 20.929 72.1196 20.8308 72.1196 20.6345C72.0356 20.2418 72.0356 20.0454 72.1196 19.8491C72.2036 19.7509 72.2036 19.5545 72.2036 19.4564C72.2036 19.3582 72.2876 19.1618 72.3716 19.0637C72.4555 18.9655 72.5395 18.7691 72.5395 18.5728C72.5395 18.4746 72.6235 18.2783 72.7075 18.1801C72.7915 18.0819 72.8754 17.9837 72.8754 17.7874C73.0434 17.4929 73.4633 16.9038 73.8832 16.6093C73.8832 16.6093 74.0511 16.5111 74.2191 16.5111C74.639 16.413 74.807 16.413 75.0589 16.5111C75.3108 16.6093 75.3948 16.7075 75.5628 16.9038L75.7307 17.1984C75.8147 17.2965 75.8987 17.4929 75.8987 17.591L75.9827 17.8856C76.0666 17.9837 76.0667 18.5728 76.0667 19.0637C76.0667 19.26 76.0667 19.3582 76.0667 19.4564C76.2346 19.4564 76.4026 19.8491 76.4026 20.0454C76.4026 20.1436 76.4026 20.2418 76.4865 20.3399C76.5705 20.4381 76.5705 20.5363 76.5705 20.7326V21.2235V21.8125C76.5705 21.9107 76.5705 22.1071 76.5705 22.2052C76.5705 22.3034 76.6545 22.4016 76.6545 22.5979C76.6545 22.7943 76.6545 22.7943 76.7385 22.7943C76.7385 22.7943 76.9904 22.5979 77.1584 22.3034L77.4103 21.9107C77.4943 21.8125 77.5783 21.6162 77.6623 21.518L77.8302 21.2235L77.9142 20.929L78.1661 20.3399C78.3341 19.9472 78.3341 19.8491 78.502 19.6527C78.67 19.4564 78.67 19.4564 78.754 19.4564C78.838 19.4564 78.838 19.4564 78.9219 19.5545C79.0059 19.6527 78.922 19.7509 78.838 20.1436C78.754 20.5363 78.754 20.6345 78.586 20.8308L78.3341 21.3217C78.2501 21.518 78.0822 21.8125 77.9982 21.9107C77.9142 22.0089 77.8302 22.2052 77.8302 22.3034C77.8302 22.4016 77.6623 22.6961 77.4103 22.9906L77.1584 23.3833C77.0744 23.5797 76.5705 24.0706 76.4865 24.0706C76.3186 24.0706 75.9827 24.0706 75.8147 23.9724ZM74.3031 21.3217L74.471 21.1253C74.471 21.0272 74.555 21.0271 74.555 20.929C74.555 20.929 74.639 20.7326 74.723 20.7326C74.807 20.6345 74.8909 20.5363 74.8909 20.5363C74.8909 20.5363 74.9749 20.4381 75.0589 20.3399C75.2269 20.1436 75.3948 19.8491 75.3948 19.7509V19.6527C75.3948 19.5545 75.3108 19.4564 75.3108 19.4564C75.3108 19.26 75.2269 19.26 75.1429 18.8673C75.0589 18.4746 74.9749 18.1801 74.8909 18.0819C74.8909 18.0819 74.807 17.9837 74.723 17.8856C74.639 17.8856 74.555 17.7874 74.555 17.7874C74.471 17.7874 74.1351 18.1801 74.0511 18.2783C74.0511 18.3764 74.0511 18.4746 74.0511 18.4746C74.0511 18.671 73.9672 18.8673 73.8832 19.0637C73.7992 19.1618 73.7992 19.26 73.7992 19.4564C73.7992 19.5545 73.7152 19.7509 73.7152 19.9472C73.6312 20.2418 73.5473 20.8308 73.6312 21.0271C73.6312 21.1253 73.7152 21.2235 73.7152 21.4198C73.7152 21.6162 73.7992 21.8125 73.7992 21.8125C73.8832 21.7144 74.1351 21.518 74.3031 21.3217Z" fill="black"/>
<path d="M79.6781 17.1984L79.7621 17.3948V17.6893C79.7621 17.9838 79.7621 18.5729 79.7621 18.7692V18.8674C79.8461 18.6711 80.098 18.3765 80.182 18.1802C80.266 17.9838 80.35 17.7875 80.5179 17.5911C80.6859 17.1984 81.0218 17.1003 81.2737 17.1984C81.3577 17.1984 81.6097 17.3948 81.6097 17.5911C81.6936 17.6893 81.6936 18.082 81.7776 18.671C81.7776 18.9656 81.7776 19.2601 81.8616 19.2601C81.8616 19.2601 81.9456 19.2601 82.1975 18.671C82.6174 17.7875 82.5334 17.9838 82.7854 17.5911C82.9533 17.3948 83.4572 16.8057 83.5412 16.8057C83.7091 16.7076 83.7931 16.7076 83.8771 16.8057C84.0451 16.9039 84.381 17.3948 84.465 17.7875C84.5489 18.1802 84.465 19.4564 84.381 19.751C84.381 19.8491 84.381 19.9473 84.381 20.0455C84.381 20.1437 84.381 20.2418 84.297 20.4382C84.297 20.5364 84.213 20.7327 84.213 20.9291C84.213 21.2236 84.213 21.3218 84.129 21.4199C84.0451 21.7145 83.9611 21.8126 84.0451 22.1072C84.0451 22.3035 84.0451 22.4017 84.0451 22.598C84.0451 22.6962 83.9611 22.8925 83.9611 22.8925C83.9611 22.9907 84.0451 23.1871 84.0451 23.2852C84.129 23.3834 84.465 23.0889 84.6329 22.8925L84.8009 22.6962C84.8849 22.598 84.8849 22.4998 84.8849 22.4998C84.8849 22.4998 84.8849 22.4017 84.9688 22.3035C84.9688 22.2053 85.0528 22.1071 85.1368 22.009C85.2208 21.9108 85.3048 21.7145 85.3048 21.6163C85.4727 21.3218 85.5567 21.1254 85.7247 20.9291C85.8086 20.8309 85.8086 20.7327 85.8086 20.7327C85.8086 20.7327 85.8086 20.6345 85.8926 20.5364C86.0606 20.34 86.1445 20.0455 86.2285 19.8491L86.3125 19.6528C86.3965 19.6528 86.4805 19.6528 86.5644 19.8491C86.5644 20.0455 86.5644 20.1437 86.3125 20.7327L86.2285 20.9291C86.2285 21.0272 86.1445 21.1254 86.1445 21.2236C86.0606 21.3218 86.0606 21.4199 85.9766 21.5181C85.8086 22.009 85.4727 22.598 85.3048 22.7944C85.2208 22.8925 85.1368 22.9907 85.1368 23.0889C85.0528 23.1871 84.7169 23.5798 84.5489 23.7761C84.381 23.8743 84.0451 24.0706 83.8771 24.0706C83.7092 24.0706 83.5412 23.9725 83.3732 23.8743C83.2892 23.7761 83.2053 23.6779 83.1213 23.4816C82.8693 22.8925 82.8693 22.7944 82.8693 21.8126C82.8693 21.0272 82.8694 20.9291 82.9533 20.7327C82.9533 20.6345 83.0373 20.4382 83.0373 20.2418C83.1213 19.1619 83.2053 18.9656 83.2053 18.7692C83.2893 18.5729 83.2893 18.1802 83.2053 18.1802C83.1213 18.1802 82.8694 18.671 82.6174 19.0637L82.3655 19.4564C82.2815 19.6528 81.9456 20.34 81.8616 20.5364C81.7776 20.8309 81.6097 21.1254 81.5257 21.2236C81.2737 21.4199 80.9378 21.2236 80.9378 20.8309L80.8538 20.4382C80.8538 20.2418 80.7699 19.4564 80.7699 19.1619C80.7699 18.9656 80.7699 18.4747 80.7699 18.3765C80.7699 18.2784 80.6859 18.3765 80.5179 18.5729L80.35 18.8674C80.182 19.0637 79.9301 19.6528 79.8461 19.8491C79.7621 19.9473 79.7621 20.0455 79.7621 20.0455C79.7621 20.0455 79.6781 20.2418 79.6781 20.34C79.5102 20.7327 79.5102 20.8309 79.4262 20.9291C79.4262 21.0272 79.3422 21.1254 79.3422 21.3218C79.3422 21.5181 79.3422 21.6163 79.2582 21.7145C79.0903 21.9108 78.8383 21.9108 78.5864 21.7145C78.4185 21.5181 78.4184 21.5181 78.3345 21.2236C78.2505 20.6345 78.2505 20.34 78.2505 20.2418C78.1665 20.0455 78.1665 19.9473 78.2505 19.6528C78.2505 19.4564 78.2505 19.4564 78.2505 19.1619C78.1665 18.8674 78.1665 18.7692 78.2505 18.4747C78.2505 18.3765 78.2505 18.2783 78.2505 18.082C78.2505 17.7875 78.2505 17.6893 78.4185 17.1984C78.4185 17.0021 78.6704 16.8057 78.7544 16.7076C79.1743 16.5112 79.4262 16.7076 79.6781 17.1984ZM83.0373 14.4496C83.0373 14.6459 82.9533 14.7441 82.7854 14.8422L82.5334 14.9404C82.4495 14.9404 82.1975 15.0386 81.9456 15.1368L81.3577 15.2349C81.1058 15.3331 80.6019 15.3331 80.434 15.2349C80.35 15.2349 80.266 15.2349 80.0141 15.2349C79.6781 15.2349 79.5942 15.3331 79.4262 15.5295C79.3422 15.6276 79.2582 15.7258 79.1743 15.7258C79.0063 15.7258 79.0063 15.7258 78.9223 15.6276C78.8383 15.5295 78.8383 15.4313 79.0063 15.2349C79.1743 14.8423 79.2582 14.7441 79.6781 14.6459C79.9301 14.5477 80.0141 14.5477 80.182 14.6459C80.7699 14.7441 80.8538 14.7441 81.1898 14.7441C81.3577 14.7441 81.5257 14.7441 81.5257 14.7441H81.7776C82.0296 14.7441 82.4495 14.5477 82.5334 14.5477L82.6174 14.4496C82.9533 14.155 83.0373 14.2532 83.0373 14.4496Z" fill="black"/>
<path d="M87.3202 23.6785C87.1523 23.5803 87.0683 23.4821 86.9003 23.2858C86.6484 22.8931 86.5644 22.7949 86.4804 22.5004C86.4804 22.4022 86.3965 22.2059 86.3125 22.1077C86.2285 21.9114 86.1445 21.6168 86.1445 21.4205C86.1445 21.3223 86.1445 21.2241 86.2285 21.126C86.3125 20.7333 86.3965 20.1442 86.3125 19.9479C86.3125 19.7515 86.3125 19.6533 86.3965 18.868C86.3965 18.6716 86.4804 18.4753 86.5644 18.1807C86.7324 17.788 86.7324 17.6899 86.7324 17.4935C86.7324 17.1008 86.8164 17.0026 86.9843 16.6099C87.2363 16.1191 87.2363 16.1191 87.4042 16.0209C87.5722 15.9227 87.9081 15.9227 87.9921 16.0209C88.0761 16.1191 88.244 16.2172 88.328 16.4136C88.412 16.6099 88.412 16.9045 88.328 17.3953C88.244 17.6899 88.244 17.9844 88.244 18.5734C88.244 19.3588 88.244 19.3588 88.244 19.457L88.5799 19.5552C88.9998 19.6533 89.0838 19.7515 89.2518 20.1442L89.4197 20.5369C89.5037 20.6351 89.5037 20.8314 89.5877 21.3223C89.5877 21.6168 89.5877 22.2059 89.5037 22.4022L89.3357 22.6968C89.1678 23.0894 88.9158 23.4821 88.5799 23.6785C88.328 23.8748 88.328 23.8748 87.9081 23.8748C87.5722 23.7767 87.5722 23.7767 87.3202 23.6785ZM88.9159 21.126C88.9159 21.0278 88.8319 20.9296 88.8319 20.8314C88.8319 20.7333 88.7479 20.6351 88.5799 20.4387C88.328 20.1442 88.0761 19.9479 88.0761 20.046C88.0761 20.1442 88.0761 20.3406 88.0761 20.6351C88.0761 20.8314 88.0761 20.9296 88.0761 21.126C88.0761 21.3223 88.0761 21.3223 88.16 21.5187C88.244 21.715 88.244 21.8132 88.244 22.1077C88.244 22.5986 88.328 22.6967 88.5799 22.5004C88.8319 22.4022 88.9998 21.5187 88.9159 21.126Z" fill="black"/>
<path d="M49.8651 42.1344C49.8651 42.0362 49.7811 41.938 49.6971 41.8399C49.6131 41.7417 49.5292 41.6435 49.5292 41.5453C49.3612 41.0545 49.2772 41.0545 49.2772 40.6618C49.2772 40.4654 49.2772 40.2691 49.1932 40.2691C49.1932 40.1709 49.1932 40.0727 49.1932 39.8764C49.1932 39.7782 49.1932 39.5819 49.1932 39.3855C49.1932 38.8946 49.2772 38.3056 49.2772 38.1092C49.2772 37.9129 49.3612 37.9129 49.2772 37.7165C49.2772 37.5202 49.2772 37.422 49.2772 37.3238V36.9312C49.2772 36.833 49.3612 36.6366 49.3612 36.5385C49.4452 36.3421 49.5292 35.6549 49.5292 35.6549C49.4452 35.5567 48.7733 36.3421 48.6894 36.5385C48.6894 36.6366 48.6054 36.7348 48.5214 36.833C48.3535 37.0293 48.1855 37.422 48.1855 37.5202L48.1015 37.7165C48.0175 37.9129 47.8496 38.3056 47.8496 38.4038C47.8496 38.5019 47.8496 38.6001 47.7656 38.6001C47.7656 38.6983 47.6816 38.7965 47.6816 38.9928C47.6816 39.1892 47.5976 39.3855 47.5137 39.4837L47.3457 39.7782C47.2617 39.9745 47.0938 40.0727 46.9258 40.0727C46.6739 40.0727 46.5059 39.9746 46.4219 39.68C46.3379 39.5819 46.17 38.6001 46.086 38.4038C46.002 38.2074 46.002 38.1092 46.002 37.8147C46.002 37.6184 46.002 37.3238 46.002 37.2257C45.9181 36.7348 46.086 37.0293 46.086 35.8512C46.086 35.4585 46.086 35.4585 46.3379 34.9677C46.5059 34.6731 46.5899 34.575 46.8418 34.575C47.0098 34.575 47.1777 34.6731 47.2617 34.8695C47.4297 35.0658 47.5137 35.2622 47.5137 35.5567L47.5976 35.9494C47.5976 36.0476 47.6816 36.2439 47.6816 36.5385C47.6816 36.7348 47.6816 36.9312 47.6816 36.9312C47.6816 36.9312 47.8496 36.6366 48.0175 36.3421C48.2695 35.8512 48.8573 34.9677 49.2772 34.575C49.6131 34.2804 49.6131 34.2804 49.6971 34.1823C49.7811 34.0841 49.9491 34.1823 50.117 34.2804C50.369 34.3786 50.4529 34.4768 50.5369 34.7713L50.7049 35.0658C50.7049 35.0658 50.7888 35.164 50.7888 35.2622C50.8728 35.4585 50.8728 35.4585 50.8728 36.2439C50.8728 37.0293 50.8728 37.3238 50.7888 37.8147C50.7888 38.0111 50.7888 38.1092 50.7888 38.2074C50.7888 38.4038 50.7889 38.6983 50.6209 39.091C50.6209 39.2873 50.6209 39.3855 50.6209 39.68C50.6209 40.3672 50.5369 40.2691 50.6209 40.7599L50.7049 41.2508C50.7049 41.5453 50.7889 41.6435 50.9568 41.5453C51.0408 41.5453 51.1248 41.5453 51.2087 41.349C51.4607 41.0545 51.6286 40.8581 51.7966 40.6618C51.8806 40.5636 51.9646 40.3673 51.9646 40.3673C52.0485 40.2691 52.3005 39.68 52.3845 39.5819C52.4684 39.4837 52.6364 39.1892 52.6364 39.091C52.6364 38.9928 52.8044 38.6001 52.9723 38.4038C53.0563 38.3056 53.2242 38.0111 53.3082 37.8147C53.5602 37.3238 53.7281 37.2257 53.7281 37.5202C53.7281 37.6184 53.7281 37.7165 53.7281 37.8147C53.4762 38.5019 53.5602 38.3056 53.3922 38.7965L53.3082 39.091L52.8883 39.9746C52.8044 40.1709 52.7204 40.2691 52.7204 40.2691C52.7204 40.2691 52.6364 40.3673 52.5524 40.4654C52.3845 40.7599 52.3005 40.9563 52.3005 40.9563C52.3005 40.9563 51.8806 41.5453 51.7966 41.7417C51.5447 42.0362 51.2927 42.3307 51.1248 42.3307C50.9568 42.4289 50.7049 42.4289 50.5369 42.4289C50.5369 42.9198 50.033 42.5271 49.8651 42.1344Z" fill="black"/>
<path d="M54.5683 42.3309C54.4003 42.1346 54.1484 41.6437 54.0644 41.4473C54.0644 41.3492 53.9805 41.1528 53.8965 41.0546C53.7285 40.6619 53.7285 40.5638 53.6445 39.4839C53.6445 39.1893 53.6445 38.993 53.6445 38.7966L53.7285 38.2076C53.7285 37.8149 53.7285 37.7167 53.8965 37.4222C53.8965 37.324 53.9804 37.1277 54.0644 36.9313C54.2324 36.0478 54.2324 36.0477 54.3164 35.8514C54.4843 35.4587 54.8202 35.066 55.0722 34.8697C55.2401 34.7715 55.2401 34.7715 55.4921 34.7715C55.744 34.7715 55.828 34.7715 55.996 34.9678C56.1639 35.066 56.1639 35.3605 56.1639 35.5569C56.1639 35.6551 56.1639 35.8514 56.2479 35.9496C56.3319 36.3423 56.3319 36.6368 56.1639 37.1277C56.0799 37.324 56.0799 37.4222 56.0799 37.7167C56.0799 37.9131 55.996 38.2076 55.996 38.4039C55.996 38.6003 55.912 38.7966 55.912 38.8948C55.912 39.2875 55.828 39.9747 55.744 39.9747C55.66 40.1711 55.66 40.4656 55.744 40.5638C55.744 40.6619 56.0799 40.2692 56.2479 39.9747C56.3319 39.7784 56.4158 39.582 56.6678 39.1893C56.7518 39.0912 56.7518 38.993 56.7518 38.8948C56.7518 38.8948 56.8357 38.6985 56.8357 38.6003C56.9197 38.5021 56.9197 38.4039 56.9197 38.4039C56.9197 38.4039 56.9197 38.3058 57.0037 38.2076C57.0877 38.0112 57.0877 38.0112 57.1717 37.6185C57.1717 37.5204 57.2556 37.324 57.2556 37.2258C57.2556 37.1277 57.3396 36.9313 57.3396 36.6368C57.3396 36.0478 57.4236 35.8514 57.6755 35.5569C57.9275 35.2624 58.0954 35.1642 58.2634 35.1642C58.4314 35.2624 58.5993 35.3605 58.8513 35.8514C58.9352 36.0477 58.9352 36.0478 59.0192 36.5386C59.0192 37.2258 59.0192 37.1277 58.9352 37.7167C58.9352 37.8149 58.9352 38.0112 58.8513 38.2076C58.8513 38.3058 58.7673 38.5021 58.7673 38.6985C58.7673 38.7966 58.7673 38.8948 58.6833 38.993C58.6833 38.993 58.6833 39.1893 58.6833 39.3857V39.9747C58.6833 40.2692 58.6833 40.2693 58.6833 40.3674C58.7673 40.4656 58.8513 40.4656 58.9352 40.3674L59.1032 40.1711C59.1872 40.1711 59.2711 39.9747 59.3551 39.8766C59.4391 39.7784 59.5231 39.6802 59.5231 39.582C59.6071 39.582 59.6071 39.3857 59.691 39.3857C59.691 39.2875 59.775 39.1893 59.859 39.0912C60.027 38.8948 60.1109 38.6985 60.3629 38.3058C60.6148 37.8149 60.7828 37.6185 60.8668 37.6185C61.0347 37.6185 61.0347 37.8149 60.9507 38.1094C60.9507 38.3058 60.8668 38.3058 60.6148 38.8948C60.5308 38.993 60.5308 39.1893 60.5308 39.1893C60.5308 39.1893 60.5308 39.2875 60.4469 39.3857C60.4469 39.4839 60.3629 39.582 60.3629 39.6802L60.1949 39.9747L59.943 40.3674C59.775 40.6619 59.4391 40.9565 59.1032 41.251C58.7673 41.4473 58.6833 41.5455 58.5153 41.4473C58.2634 41.3492 57.8435 40.8583 57.7595 40.5638L57.6755 40.1711C57.6755 40.0729 57.5916 39.9747 57.5916 39.7784C57.5916 39.6802 57.5076 39.4839 57.5076 39.3857C57.4236 39.2875 57.3396 38.993 57.3396 38.8948C57.3396 38.7966 57.3396 38.8948 57.2556 39.0912L57.0877 39.582C56.6678 40.6619 56.6678 40.4656 56.4998 40.8583C56.4159 40.9565 56.3319 41.1528 56.3319 41.1528L56.2479 41.3492C56.1639 41.5455 55.912 41.84 55.828 41.84C55.744 41.9382 55.5761 41.9382 55.4081 41.9382C55.1562 41.9382 55.0722 41.9382 54.9882 41.9382C54.6523 42.4291 54.5683 42.4291 54.5683 42.3309Z" fill="black"/>
<path d="M62.2108 41.8405C61.9589 41.8405 61.623 41.6441 61.371 41.3496C61.2031 41.1533 61.2031 41.1533 61.0351 40.8587L60.8672 40.466C60.7832 40.2697 60.6992 40.1715 60.6992 39.9752C60.6992 39.877 60.6992 39.7788 60.6152 39.5825C60.5312 39.1898 60.5312 39.1898 60.5312 38.6007C60.5312 37.9135 60.6152 37.619 60.7832 37.0299C60.8672 36.8336 60.9511 36.5391 60.9511 36.5391C60.9511 36.4409 61.0351 36.3427 61.0351 36.3427C61.2031 36.0482 61.2871 35.8518 61.455 35.6555L61.707 35.361C61.8749 35.0665 62.2108 34.8701 62.4628 34.7719C62.5468 34.7719 62.6307 34.7719 62.7147 34.6738L62.8827 34.5756C62.9666 34.4774 63.4705 34.4774 63.7225 34.5756C63.9744 34.5756 64.1424 34.7719 64.2263 34.9683C64.3103 35.1646 64.3943 35.5573 64.3943 35.7537C64.3943 35.95 64.2263 36.0482 64.1424 36.1464C64.0584 36.1464 63.9744 36.1464 63.7225 36.0482C63.5545 35.95 63.3865 36.0482 63.1346 36.1464C62.9666 36.2445 62.9666 36.2445 62.7987 36.5391C62.5468 36.9318 62.4628 37.3245 62.3788 37.619L62.2948 38.208C62.2108 38.5026 62.2108 38.6007 62.2108 39.2879C62.2108 40.2697 62.2108 40.1715 62.2948 40.6624C62.2948 40.7606 62.4628 40.9569 62.6307 41.0551C62.7147 41.1533 62.7987 41.1533 62.8827 41.1533C63.0506 41.1533 63.1346 41.0551 63.4705 40.8587C63.8064 40.6624 64.2263 40.0733 64.4783 39.6806C64.5623 39.5825 64.6462 39.3861 64.7302 39.2879C64.8142 39.1898 64.8982 39.0916 64.9822 38.9934C65.0661 38.7971 65.402 38.208 65.486 38.1099H65.57C65.654 38.1099 65.654 38.208 65.486 38.6007C65.3181 39.0916 65.1501 39.3861 65.0661 39.4843C65.0661 39.5825 64.9822 39.6806 64.9822 39.6806L64.8142 39.9752C64.7302 40.1715 64.2263 40.8587 64.0584 41.0551C63.7225 41.4478 63.3026 41.8405 63.2186 41.8405C63.1346 41.8405 63.0506 41.8405 62.9666 41.9387C62.8827 42.0368 62.7987 42.0368 62.5467 42.0368C62.5467 41.9387 62.2948 41.9387 62.2108 41.8405Z" fill="black"/>
<path d="M66.5761 42.0369C66.4081 41.9387 66.3242 41.8405 66.1562 41.6442C65.9043 41.2515 65.8203 41.1533 65.7363 40.8588C65.7363 40.7606 65.6523 40.5643 65.5683 40.4661C65.4844 40.2698 65.4004 39.9752 65.4004 39.7789C65.4004 39.6807 65.4004 39.5825 65.4844 39.4844C65.5683 39.0917 65.6523 38.5026 65.5683 38.3063C65.5683 38.1099 65.5683 38.0117 65.6523 37.2264C65.6523 37.03 65.7363 36.8337 65.8203 36.5391C65.9882 36.1464 65.9882 36.0483 65.9882 35.8519C65.9882 35.4592 66.0722 35.361 66.2402 34.9683C66.4921 34.4775 66.4921 34.4775 66.6601 34.3793C66.828 34.2811 67.164 34.2811 67.2479 34.3793C67.3319 34.4775 67.4999 34.5756 67.5838 34.772C67.6678 34.9683 67.6678 35.2629 67.5838 35.7537C67.4999 36.0483 67.4999 36.3428 67.4999 36.9318C67.4999 37.7172 67.4999 37.7172 67.4999 37.8154L67.8358 37.9136C68.2557 38.0118 68.3397 38.1099 68.5076 38.5026L68.6756 38.8953C68.7596 38.9935 68.7596 39.1898 68.8435 39.6807C68.8435 39.9752 68.8435 40.5643 68.7596 40.7606L68.5916 41.0552C68.4236 41.4479 68.1717 41.8405 67.8358 42.0369C67.5838 42.2332 67.5838 42.2332 67.1639 42.2332C66.828 42.2332 66.828 42.2332 66.5761 42.0369ZM68.1717 39.5825C68.1717 39.4844 68.0877 39.3862 68.0877 39.288C68.0877 39.1898 68.0037 39.0917 67.8358 38.8953C67.5838 38.6008 67.3319 38.4044 67.3319 38.5026C67.3319 38.6008 67.3319 38.7971 67.3319 39.0917C67.3319 39.288 67.3319 39.3862 67.3319 39.5825C67.3319 39.7789 67.3319 39.7789 67.4159 39.9752C67.4999 40.1716 67.4999 40.2698 67.4999 40.5643C67.4999 41.0552 67.5838 41.1533 67.8358 40.957C68.0877 40.7606 68.2557 39.9752 68.1717 39.5825Z" fill="black"/>
<path d="M73.2112 35.1644C73.2952 35.1644 73.3792 35.3607 73.5471 35.5571C73.6311 35.7534 73.6311 35.7534 73.7151 36.5388C73.7151 36.7352 73.7151 36.7352 73.6311 36.9315C73.6311 37.0297 73.5471 37.1279 73.5471 37.226C73.5471 37.3242 73.5471 37.5206 73.5471 37.6187C73.3792 38.306 73.3792 38.5023 73.3792 38.5023C73.4631 38.5023 73.883 38.1096 74.051 37.8151C74.6388 36.9315 75.0587 35.6552 75.1427 35.3607C75.2267 35.1644 75.3947 34.968 75.5626 34.968C75.8985 34.8699 76.1505 35.1644 76.3184 35.6552C76.4024 35.9498 76.4024 36.637 76.2345 36.8333C76.1505 36.9315 76.1505 37.0297 76.1505 37.1279C76.1505 37.1279 76.0665 38.0114 75.9825 38.2078C75.8985 38.4041 75.8985 38.6005 75.8985 38.6986C75.8985 38.6986 75.8985 38.895 75.8146 38.9932C75.7306 39.2877 75.7306 39.7786 75.8146 40.1713C75.8146 40.3676 75.9825 40.564 75.9825 40.564C76.1505 40.6621 76.5704 40.2694 76.7383 39.8767C76.8223 39.7786 76.9063 39.5822 76.9903 39.484C77.0742 39.3859 77.2422 39.1895 77.3262 38.9932L77.4941 38.6005C77.6621 38.4041 77.8301 37.9133 77.998 37.9133C78.166 37.9133 78.166 38.0114 78.082 38.4041C77.998 38.6987 77.914 38.7968 77.8301 39.0913L77.5781 39.484V39.5822L77.4941 39.7786L77.3262 40.0731C77.2422 40.2694 76.9903 40.6621 76.8223 40.7603C76.4024 41.0548 76.1505 41.2512 75.8985 41.2512C75.7306 41.2512 75.6466 41.153 75.4786 41.0548C75.2267 40.9567 75.1427 40.8585 75.0588 40.6621C74.8068 40.1713 74.7228 39.6804 74.7228 38.5023L74.8068 37.4224L74.5549 37.8151C74.3869 38.1096 74.051 38.306 73.967 38.5023L73.7991 38.6986C73.6311 38.895 73.3792 38.9932 73.2112 38.9932C73.1272 38.9932 73.0432 38.9932 72.9593 38.895C72.7913 38.7968 72.7913 38.7968 72.7073 38.6005C72.6233 38.5023 72.5394 38.306 72.5394 38.306C72.5394 38.2078 72.3714 38.0114 72.2874 38.306C72.2035 38.6005 72.1195 38.6987 72.0355 39.0913C72.0355 39.2877 71.8675 39.6804 71.6996 40.0731C71.5316 40.564 71.0277 40.8585 70.7758 40.9567C70.6078 41.0548 70.5239 40.9567 70.1879 40.8585C69.936 40.7603 69.852 40.6621 69.7681 40.4658C69.7681 40.3676 69.6001 40.2694 69.6001 40.1713C69.4321 40.0731 69.4321 39.9749 69.4321 39.3859C69.3481 38.895 69.3481 38.895 69.4321 38.6005L69.5161 38.306C69.5161 38.2078 69.6841 37.9133 69.852 37.8151C70.02 37.7169 70.3559 37.7169 70.4399 38.0114C70.5239 38.1096 70.6078 38.5023 70.6078 38.6986C70.6078 38.7968 70.6078 38.895 70.5239 38.9932C70.4399 39.0913 70.4399 39.1895 70.4399 39.5822C70.4399 39.9749 70.5239 40.1713 70.6078 40.2694C70.6918 40.3676 70.7758 40.2694 71.0277 39.8767C71.1117 39.7786 71.2797 39.3859 71.2797 39.2877C71.2797 39.1895 71.4476 38.895 71.5316 38.6986V38.5023C71.5316 38.5023 71.6156 38.306 71.6996 38.1096C71.9515 37.5206 72.0355 37.1279 72.2034 36.8333C72.2874 36.7352 72.2874 36.5388 72.3714 36.4406C72.3714 36.3425 72.4554 36.1461 72.4554 36.0479C72.4554 35.9498 72.5394 35.8516 72.5394 35.7534C72.6234 35.5571 72.6233 35.4589 72.7913 35.3607C72.8753 35.0662 73.0432 35.0662 73.2112 35.1644Z" fill="black"/>
<path d="M79.4253 41.5452C79.0054 41.3489 78.9214 41.2507 78.5015 40.5635C78.1656 39.8763 77.9137 39.6799 77.9137 39.3854L77.8297 38.8945C77.7457 38.011 77.6617 38.0109 77.7457 37.2256C77.7457 36.6365 77.7457 36.6365 77.8297 36.342C77.9137 36.0475 77.9977 35.7529 78.2496 35.4584C78.3336 35.3602 78.4176 35.1639 78.5015 34.9675C78.5855 34.7712 78.8374 34.3785 79.0894 34.084C79.1734 33.9858 79.2574 33.8876 79.4253 33.8876L79.7612 33.7895C80.0132 33.6913 80.2651 33.6913 80.3491 33.7895L80.601 33.9858C80.769 34.1822 80.769 34.1822 80.9369 34.4767L81.0209 34.5748C81.3568 34.673 81.6928 34.9675 81.7767 35.2621C81.8607 35.3602 81.8607 35.4584 81.8607 35.5566C81.8607 35.5566 81.8607 35.6548 81.9447 35.7529C82.0287 35.9493 82.1966 36.6365 82.1966 36.8329C82.1966 37.3237 82.1966 37.8146 82.1966 38.0109L82.1126 38.4036C82.1126 38.5018 82.0287 38.6982 82.0287 38.7963C81.8607 39.3854 81.8607 39.4836 81.6088 40.1708C81.4408 40.4653 81.1889 40.858 81.0209 41.0544C80.853 41.2507 80.601 41.3489 80.517 41.4471H80.2651C80.1811 41.4471 80.0132 41.4471 79.8452 41.4471C79.7612 41.6434 79.6772 41.6434 79.4253 41.5452ZM80.685 40.0726C80.685 40.0726 80.769 39.9744 80.853 39.8763C80.9369 39.7781 81.0209 39.6799 81.0209 39.4836L81.1049 39.189L81.1889 38.9927L81.2729 38.6C81.2729 38.4036 81.2729 38.3055 81.2729 38.2073C81.2729 38.1091 81.2729 37.9128 81.2729 37.7164C81.2729 37.4219 81.2728 37.3237 81.1889 37.0292L81.1049 36.6365C81.1049 36.6365 80.9369 36.2438 80.853 35.9493L80.769 35.6548C80.685 35.4584 80.601 35.4584 80.601 35.6548C80.601 35.8511 80.517 36.1456 80.3491 36.342C80.1811 36.5383 80.1811 36.7347 80.0971 37.0292C80.0971 37.1274 80.0132 37.4219 80.0132 37.5201C79.9292 37.7164 79.9292 37.8146 79.9292 38.0109C79.9292 38.1091 79.9292 38.4036 79.9292 38.6982C79.9292 38.9927 79.9292 39.2872 79.9292 39.5817L80.0132 39.9744L80.0971 40.0726C80.1811 40.1708 80.2651 40.269 80.2651 40.269C80.4331 40.269 80.601 40.1708 80.685 40.0726Z" fill="black"/>
<defs>
<linearGradient id="paint0_linear_2021_7680" x1="1.81362" y1="46.7203" x2="129.235" y2="46.7203" gradientUnits="userSpaceOnUse">
<stop stop-color="#76B82A"/>
<stop offset="0.5849" stop-color="#5C8E2B"/>
<stop offset="1" stop-color="#4C742C"/>
</linearGradient>
</defs>
</svg>
