<svg width="190" height="185" viewBox="0 0 190 185" fill="none" xmlns="http://www.w3.org/2000/svg">
<g filter="url(#filter0_d_2574_57)">
<circle cx="97" cy="90" r="90" fill="#0ABBEF"/>
</g>
<path d="M0.30272 145.923C0.30272 145.923 0.223624 145.923 0.144531 145.923V34.7132C0.144531 34.7132 0.223627 34.7132 0.30272 34.7132C0.30272 34.8712 0.30272 35.0293 0.30272 35.1874C0.30272 71.546 0.30272 107.905 0.30272 144.342C0.30272 144.896 0.30272 145.449 0.30272 145.923Z" fill="#181818"/>
<path d="M0.30272 145.923C0.30272 145.37 0.30272 144.817 0.30272 144.342C0.30272 107.984 0.30272 71.6251 0.30272 35.1874C0.30272 35.0293 0.30272 34.8712 0.30272 34.7132C0.539998 33.9228 1.17273 34.0022 1.72638 34.0022C7.50014 34.0022 13.2739 34.0022 18.9686 34.0022C75.2825 34.0022 131.596 34.0022 187.91 34.0022C188.227 34.0022 188.622 34.0022 188.938 34.0022C189.571 34.0813 189.888 34.4765 189.967 35.0298C189.967 35.3459 189.967 35.6621 189.967 35.9782C189.967 62.9311 189.967 89.8839 189.967 116.916C189.967 126.164 189.967 135.49 189.967 144.738C189.967 146.319 189.65 146.556 188.068 146.556C156.273 146.556 124.478 146.556 92.6037 146.556C68.6387 146.556 44.7527 146.556 20.7877 146.556C14.4603 146.556 8.05379 146.556 1.72638 146.556C1.09364 146.556 0.460901 146.556 0.144531 145.845L0.30272 145.923ZM95.2138 35.8992C64.5259 35.8992 33.838 35.8992 3.15005 35.8992C2.28003 35.8992 1.96366 36.0573 1.96366 37.0058C1.96366 72.574 1.96366 108.142 1.96366 143.711C1.96366 144.659 2.28003 144.817 3.15005 144.817C64.4468 144.817 125.744 144.817 187.04 144.817C188.068 144.817 188.227 144.501 188.227 143.631C188.227 108.142 188.227 72.6531 188.227 37.1638C188.227 35.8202 188.385 35.9782 186.961 35.9782C156.352 35.9782 125.823 35.9782 95.2138 35.9782V35.8992Z" fill="#030303"/>
<path d="M95.2138 35.8992C125.823 35.8992 156.353 35.8992 186.961 35.8992C188.306 35.8992 188.227 35.7411 188.227 37.0848C188.227 72.574 188.227 108.063 188.227 143.552C188.227 144.501 188.069 144.738 187.04 144.738C125.744 144.738 64.447 144.738 3.15023 144.738C2.28021 144.738 1.96384 144.58 1.96384 143.631C1.96384 108.063 1.96384 72.495 1.96384 36.9267C1.96384 35.9783 2.28021 35.8202 3.15023 35.8202C33.8381 35.8202 64.5261 35.8202 95.214 35.8202L95.2138 35.8992ZM79.87 138.494C79.4746 138.494 79 138.099 78.6836 138.573C78.2091 139.205 77.8136 139.838 77.8136 140.628C77.8136 140.944 77.6554 141.339 78.0509 141.418C78.4464 141.497 78.5255 141.102 78.7627 140.865C79.1582 140.312 79.3164 139.6 79.9491 139.205C79.9491 139.679 80.8191 140.154 79.9491 140.628C79.5536 140.865 79.3164 141.102 79.6327 141.576C79.87 141.893 80.2655 141.893 80.6609 141.655C81.2146 141.339 81.6101 140.944 81.531 140.312C81.4519 139.521 81.0564 138.731 80.4237 138.178C80.2655 138.02 80.0282 138.178 79.87 138.415V138.494ZM101.067 139.996C101.62 139.996 102.491 139.521 102.095 140.786C102.095 141.023 102.253 141.576 102.649 141.181C103.202 140.707 103.677 140.154 103.677 139.363C103.677 138.731 103.044 138.415 102.728 138.889C102.253 139.521 101.62 139.521 100.988 139.758C100.592 139.6 100.039 140.154 99.8804 139.442C99.8014 139.047 100.039 138.494 99.485 138.336C98.9313 138.178 98.7731 138.731 98.4568 138.968C98.3777 138.968 98.2195 139.047 98.1404 139.126C98.1404 139.126 98.0613 139.047 97.9822 138.968C97.9822 138.573 98.3777 138.02 97.7449 137.862C97.1913 137.703 96.954 138.099 96.7167 138.494C96.3213 139.205 95.7676 139.996 96.8749 140.707C97.0331 140.707 97.0331 140.865 97.0331 141.023C96.7958 141.655 97.2704 141.893 97.7449 142.051C98.3777 142.209 99.0104 142.051 99.2477 141.576C99.6432 140.707 100.355 140.47 101.067 140.154V139.996ZM94.9767 136.597C123.608 136.597 152.24 136.597 180.95 136.597C182.849 136.597 183.007 136.36 183.007 134.542C183.007 104.269 183.007 73.9968 183.007 43.6452C183.007 41.7482 182.769 41.5111 180.95 41.5111C123.608 41.5111 66.187 41.5111 8.84489 41.5111C6.94667 41.5111 6.78848 41.6692 6.78848 43.5661C6.78848 73.9177 6.78848 104.19 6.78848 134.542C6.78848 136.36 7.02576 136.597 8.7658 136.597C37.4764 136.597 66.2661 136.597 94.9767 136.597ZM136.579 140.233C136.579 138.81 135.314 137.387 133.969 137.387C132.704 137.387 130.489 138.968 130.568 140.47C130.568 142.051 131.834 143.315 133.416 143.315C135.156 143.315 136.658 141.814 136.658 140.154L136.579 140.233ZM84.5365 139.679C84.6156 140.312 84.3783 141.102 85.011 141.181C85.5647 141.26 85.5647 140.47 85.8811 140.075C86.0392 139.838 86.1183 139.521 86.1183 139.284C86.1183 139.047 86.1183 138.81 85.8811 138.652C85.2483 138.178 84.6156 139.6 83.9828 138.652C83.9828 138.573 83.5874 138.81 83.4292 138.968C83.1128 139.521 82.7174 140.075 82.7174 140.786C82.7174 141.023 82.7173 141.339 82.9546 141.418C83.271 141.497 83.4292 141.418 83.5874 141.181C83.9037 140.707 84.2201 140.233 84.5365 139.679ZM140.534 141.497C141.404 141.497 142.195 140.865 142.195 139.996C142.195 139.284 141.641 138.889 140.929 138.81C140.139 138.81 139.189 139.521 139.189 140.233C139.189 140.944 139.743 141.497 140.534 141.497ZM145.042 141.497C145.833 141.497 146.466 140.944 146.466 140.233C146.466 139.521 145.754 138.889 145.042 138.889C144.172 138.889 143.54 139.363 143.54 139.996C143.54 140.707 144.33 141.497 145.121 141.497H145.042ZM87.7002 142.051C88.2538 142.051 88.6493 141.655 88.8866 141.181C89.2029 140.707 89.4402 140.233 89.7566 139.679C89.9148 139.363 90.3102 138.968 89.7566 138.652C89.282 138.336 88.9657 138.652 88.7284 139.047C88.5702 139.205 88.4911 139.442 88.3329 139.679C88.0956 140.154 87.9375 140.707 87.2256 140.865C86.9884 140.865 86.8302 141.181 86.9092 141.418C86.9883 141.814 87.3838 141.893 87.7002 141.972V142.051ZM148.918 141.26C149.788 141.26 150.262 140.786 150.262 140.154C150.262 139.363 149.63 138.81 148.839 138.81C148.206 138.81 147.652 139.442 147.731 140.154C147.731 140.944 148.364 141.181 148.918 141.26ZM104.705 140.549C104.705 140.865 104.705 141.497 105.338 141.181C105.812 140.944 106.287 140.47 106.603 139.996C106.841 139.6 106.761 139.205 106.366 138.889C105.971 138.573 105.496 138.652 105.18 139.047C104.863 139.442 104.626 139.996 104.626 140.549H104.705ZM91.6548 141.576C92.6039 141.497 92.8412 140.628 93.3158 139.996C93.4739 139.679 93.553 139.363 93.2367 139.205C92.9203 138.968 92.5248 139.047 92.2875 139.363C91.8921 139.838 91.4966 140.391 91.1803 140.865C90.8639 141.339 91.1803 141.576 91.6548 141.576ZM107.552 140.154C107.552 140.47 107.552 140.786 107.79 140.865C108.027 140.944 108.185 140.707 108.343 140.549C108.66 140.233 108.897 139.917 109.134 139.521C109.292 139.205 109.292 138.81 108.976 138.573C108.66 138.336 108.343 138.494 108.106 138.81C107.79 139.205 107.711 139.679 107.552 140.154ZM94.0276 141.102C94.2649 141.102 95.214 139.917 95.214 139.521C95.214 139.284 95.1349 139.126 94.8976 139.047C94.6603 138.968 94.423 139.047 94.2649 139.126C93.8694 139.6 93.6321 140.154 93.553 140.707C93.553 140.944 93.6321 141.023 94.0276 141.023V141.102ZM111.112 141.26C111.428 141.26 112.456 140.154 112.456 139.758C112.456 139.205 111.982 139.047 111.586 139.284C111.033 139.679 110.953 140.312 110.795 140.944C110.795 141.102 110.874 141.26 111.112 141.181V141.26ZM75.6781 140.47C76.0736 140.154 76.7063 139.917 76.8645 139.284C76.8645 138.968 76.6272 138.81 76.39 138.889C75.7572 139.047 75.599 139.6 75.3617 140.154C75.3617 140.391 75.3617 140.47 75.6781 140.47Z" fill="#626262"/>
<path d="M94.9767 136.597C66.2661 136.597 37.4764 136.597 8.7658 136.597C7.02576 136.597 6.78848 136.36 6.78848 134.542C6.78848 104.19 6.78848 73.9177 6.78848 43.5661C6.78848 41.7482 7.02576 41.5111 8.84489 41.5111C66.187 41.5111 123.608 41.5111 180.95 41.5111C182.849 41.5111 183.007 41.7482 183.007 43.6452C183.007 73.9177 183.007 104.19 183.007 134.542C183.007 136.36 182.769 136.597 180.95 136.597C152.319 136.597 123.687 136.597 94.9767 136.597ZM11.6127 133.277C15.3301 133.672 18.8102 133.356 22.2902 133.277C28.1431 132.961 33.9959 132.803 39.8488 132.645C41.0352 132.645 41.9052 132.328 42.8543 131.38C47.4417 126.163 52.1872 121.105 56.8537 115.967C76.5477 94.2308 96.2418 72.4156 115.936 50.6004C117.597 48.7035 119.337 46.8855 121.156 44.9095C120.681 44.9095 120.444 44.9095 120.128 44.9095C117.359 44.9095 114.591 45.0676 111.902 45.1466C105.575 45.2257 99.2473 45.1466 92.9199 44.8305C92.2871 44.8305 91.8126 44.9886 91.4171 45.4628C90.1517 46.9646 88.8862 48.3873 87.6207 49.81C63.0229 76.9209 38.346 104.032 13.7482 131.143C13.1155 131.854 12.4828 132.565 11.7709 133.356L11.6127 133.277ZM57.7237 132.407C58.3564 132.407 58.831 132.407 59.2265 132.407C62.3902 132.565 65.633 132.249 68.7967 132.249C69.4294 132.249 69.8249 132.091 70.2203 131.617C79.8696 120.63 89.598 109.723 99.2473 98.7361C114.117 81.9795 128.828 65.1439 143.776 48.4663C144.725 47.3598 145.754 46.2532 146.782 45.1466C146.624 45.1466 146.624 44.9886 146.545 45.0676C142.274 45.1466 137.924 45.0676 133.653 44.9095C133.178 44.9095 132.941 45.1466 132.703 45.3838C130.647 47.9131 128.591 50.3633 126.455 52.8926C104.705 78.2646 82.7169 103.479 60.8083 128.692C59.7801 129.878 58.831 130.985 57.7237 132.328V132.407Z" fill="black"/>
<path d="M136.578 140.233C136.578 141.893 135.076 143.395 133.336 143.395C131.754 143.395 130.567 142.13 130.488 140.549C130.488 139.048 132.703 137.467 133.889 137.467C135.234 137.467 136.499 138.811 136.499 140.312L136.578 140.233ZM133.336 142.288C134.601 142.288 135.471 141.419 135.471 140.312C135.471 139.364 134.68 138.494 133.731 138.494C132.545 138.494 131.437 139.443 131.437 140.47C131.437 141.498 132.228 142.288 133.257 142.288H133.336Z" fill="#080606"/>
<path d="M98.1404 139.126C98.2195 139.126 98.3777 139.047 98.4568 138.968C98.7731 138.731 99.0104 138.178 99.485 138.336C100.118 138.494 99.8014 139.047 99.8804 139.442C100.039 140.154 100.671 139.679 100.988 139.758C100.988 139.838 100.988 139.917 100.988 139.996C100.276 140.312 99.5643 140.628 99.1688 141.419C98.9316 141.972 98.2988 142.13 97.6661 141.893C97.1915 141.735 96.7961 141.498 96.9543 140.865C96.9543 140.707 96.9543 140.628 96.7961 140.549C95.7679 139.917 96.2424 139.126 96.6379 138.336C96.8752 137.941 97.1124 137.546 97.6661 137.704C98.2988 137.941 97.9034 138.415 97.9034 138.81C97.9034 138.889 97.8243 138.968 97.7452 139.047C97.7452 139.047 97.7452 139.047 97.8243 138.968C97.9034 138.968 97.9825 138.968 98.0616 138.889L98.1404 139.126Z" fill="#050505"/>
<path d="M84.5365 139.679C84.141 140.233 83.9037 140.707 83.5874 141.181C83.4292 141.418 83.1919 141.576 82.9546 141.418C82.6383 141.339 82.7174 141.023 82.7174 140.786C82.7174 140.075 83.1128 139.521 83.4292 138.968C83.5874 138.81 83.9037 138.573 83.9828 138.652C84.6947 139.521 85.2483 138.178 85.8811 138.652C86.1183 138.81 86.1974 139.047 86.1183 139.284C86.1183 139.521 86.0392 139.838 85.8811 140.075C85.6438 140.47 85.5647 141.26 85.011 141.181C84.3783 141.102 84.6156 140.312 84.5365 139.679Z" fill="#050505"/>
<path d="M140.533 141.496C139.742 141.496 139.188 141.022 139.188 140.232C139.188 139.599 140.138 138.73 140.929 138.809C141.64 138.809 142.115 139.204 142.194 139.994C142.194 140.785 141.482 141.496 140.533 141.496ZM141.166 140.152C141.166 139.836 140.849 139.678 140.612 139.678C140.375 139.678 140.138 139.836 140.138 140.152C140.138 140.39 140.296 140.627 140.612 140.627C140.929 140.627 141.166 140.548 141.245 140.232L141.166 140.152Z" fill="#060705"/>
<path d="M145.042 141.497C144.251 141.497 143.46 140.707 143.46 139.995C143.46 139.363 144.093 138.889 144.963 138.889C145.754 138.889 146.387 139.521 146.387 140.232C146.387 140.944 145.754 141.497 144.963 141.497L145.042 141.497ZM145.437 140.153C145.279 139.837 144.963 139.679 144.646 139.6C144.409 139.6 144.33 139.758 144.33 139.916C144.33 140.312 144.646 140.47 144.963 140.47C145.2 140.47 145.437 140.47 145.437 140.074V140.153Z" fill="#060705"/>
<path d="M87.7002 142.051C87.3838 141.972 86.9881 141.893 86.909 141.498C86.909 141.182 86.9881 140.944 87.2254 140.944C87.8582 140.786 88.0163 140.233 88.3327 139.759C88.4909 139.522 88.57 139.285 88.7282 139.127C88.9654 138.81 89.2818 138.415 89.7564 138.731C90.2309 139.048 89.9146 139.443 89.7564 139.759C89.5191 140.233 89.2027 140.786 88.8864 141.261C88.6491 141.735 88.2536 142.051 87.7 142.13L87.7002 142.051Z" fill="#060606"/>
<path d="M79.87 138.494C80.0282 138.257 80.2657 138.177 80.4239 138.256C81.0567 138.81 81.4521 139.521 81.5312 140.39C81.6103 141.023 81.1358 141.418 80.6612 141.734C80.2657 141.892 79.8703 141.971 79.633 141.655C79.3166 141.26 79.633 140.944 79.9494 140.706C80.7403 140.232 79.9494 139.758 79.9494 139.284C79.9494 139.047 79.9494 138.81 79.9494 138.572L79.87 138.494Z" fill="#050505"/>
<path d="M148.917 141.26C148.363 141.181 147.81 140.944 147.73 140.153C147.73 139.442 148.205 138.81 148.838 138.81C149.55 138.81 150.182 139.363 150.261 140.153C150.261 140.786 149.787 141.26 148.917 141.26ZM149.233 140.153C149.075 139.916 149.075 139.521 148.68 139.521C148.442 139.521 148.363 139.758 148.363 139.916C148.363 140.232 148.521 140.469 148.838 140.469C149.075 140.469 149.233 140.469 149.233 140.153Z" fill="#050505"/>
<path d="M104.705 140.549C104.705 139.917 104.942 139.443 105.259 139.048C105.575 138.652 105.971 138.573 106.445 138.889C106.841 139.206 106.92 139.522 106.682 139.996C106.366 140.549 105.891 140.945 105.417 141.182C104.784 141.498 104.863 140.865 104.784 140.549L104.705 140.549Z" fill="#080808"/>
<path d="M79.87 138.494C79.87 138.731 79.8699 138.967 79.8699 139.205C79.2371 139.6 79.0789 140.311 78.6835 140.864C78.5253 141.102 78.3671 141.497 77.9716 141.418C77.5762 141.339 77.7344 140.864 77.7344 140.627C77.7344 139.837 78.2089 139.205 78.6044 138.572C78.9998 138.098 79.3953 138.572 79.7908 138.493L79.87 138.494Z" fill="#060606"/>
<path d="M91.6548 141.576C91.1012 141.576 90.8639 141.339 91.1803 140.865C91.4966 140.312 91.8921 139.838 92.2875 139.363C92.5248 139.047 92.8412 138.968 93.2367 139.205C93.553 139.442 93.553 139.758 93.3158 139.996C92.9203 140.707 92.6039 141.497 91.6548 141.576Z" fill="#060606"/>
<path d="M101.067 139.996C101.067 139.917 101.066 139.838 101.066 139.759C101.699 139.522 102.332 139.522 102.806 138.889C103.123 138.415 103.756 138.81 103.756 139.364C103.756 140.154 103.281 140.707 102.727 141.182C102.332 141.498 102.095 141.023 102.174 140.786C102.49 139.522 101.699 139.917 101.145 139.996L101.067 139.996Z" fill="#080808"/>
<path d="M107.552 140.154C107.632 139.758 107.79 139.284 108.106 138.81C108.343 138.494 108.66 138.336 108.976 138.573C109.292 138.81 109.372 139.205 109.134 139.521C108.897 139.917 108.581 140.233 108.343 140.549C108.185 140.707 108.106 140.944 107.79 140.865C107.552 140.786 107.473 140.47 107.552 140.154Z" fill="#0A0A0A"/>
<path d="M94.0276 141.102C93.6321 141.102 93.4739 141.023 93.553 140.786C93.7112 140.233 93.8693 139.6 94.2648 139.205C94.423 139.047 94.6603 139.047 94.8975 139.126C95.0557 139.126 95.2139 139.363 95.2139 139.6C95.2139 139.996 94.2648 141.181 94.0275 141.181L94.0276 141.102Z" fill="#080808"/>
<path d="M111.112 141.26C110.953 141.26 110.795 141.182 110.795 141.024C110.874 140.391 110.953 139.759 111.586 139.364C111.981 139.127 112.377 139.285 112.456 139.838C112.456 140.154 111.427 141.261 111.111 141.34L111.112 141.26Z" fill="#0A0A0A"/>
<path d="M75.6781 140.47C75.3617 140.47 75.2827 140.312 75.3617 140.154C75.5199 139.6 75.6781 139.047 76.39 138.889C76.6272 138.889 76.9436 138.968 76.8645 139.284C76.7854 139.917 76.1527 140.154 75.6781 140.47Z" fill="#080808"/>
<path d="M11.6127 133.277C12.3246 132.486 12.9569 131.696 13.5896 131.064C38.1874 103.953 62.8643 76.8418 87.4621 49.7309C88.7275 48.3082 90.0721 46.8854 91.2585 45.3837C91.654 44.9094 92.1285 44.6723 92.7613 44.7513C99.0887 45.0675 105.416 45.2256 111.743 45.0675C114.512 45.0675 117.28 44.9094 119.969 44.8304C120.285 44.8304 120.602 44.8304 120.997 44.8304C119.178 46.8064 117.517 48.6243 115.777 50.5213C96.0831 72.2575 76.3891 94.0726 56.695 115.888C52.0286 121.025 47.283 126.163 42.6957 131.301C41.8256 132.328 40.9556 132.565 39.6901 132.565C33.8373 132.723 27.9844 132.882 22.1316 133.198C18.6515 133.356 15.1715 133.672 11.4541 133.198L11.6127 133.277Z" fill="#FDFDFD"/>
<path d="M57.7246 132.408C58.8319 131.064 59.8601 129.879 60.8092 128.772C82.7179 103.558 104.706 78.3441 126.456 52.9721C128.592 50.5218 130.648 47.9925 132.704 45.4632C132.942 45.1471 133.179 44.9099 133.653 44.989C137.924 45.1471 142.275 45.2261 146.546 45.1471C146.546 45.1471 146.625 45.1471 146.783 45.2261C145.755 46.3327 144.806 47.4392 143.777 48.5458C128.829 65.2234 114.118 82.059 99.2482 98.8156C89.5198 109.723 79.8705 120.71 70.2212 131.696C69.8258 132.171 69.3512 132.329 68.7976 132.329C65.6339 132.329 62.3911 132.645 59.2274 132.487C58.8319 132.487 58.3573 132.487 57.7246 132.487V132.408Z" fill="#FDFDFD"/>
<path d="M133.337 142.288C132.309 142.288 131.439 141.419 131.518 140.47C131.518 139.443 132.625 138.494 133.811 138.494C134.681 138.494 135.551 139.364 135.551 140.312C135.551 141.498 134.602 142.367 133.416 142.288H133.337Z" fill="#E8626A"/>
<path d="M98.1396 139.127C98.0605 139.127 97.9814 139.127 97.9023 139.206C97.9023 139.127 97.9814 139.048 98.0605 138.969C98.0605 138.969 98.1396 139.048 98.2187 139.127H98.1396Z" fill="#626262"/>
<path d="M97.823 139.205C97.823 139.205 97.823 139.205 97.7441 139.284L97.823 139.205Z" fill="#626262"/>
<path d="M141.166 140.154C141.166 140.47 140.85 140.549 140.533 140.549C140.217 140.549 140.059 140.391 140.059 140.075C140.059 139.838 140.296 139.601 140.533 139.601C140.77 139.601 141.087 139.759 141.087 140.075L141.166 140.154Z" fill="#699E2C"/>
<path d="M145.437 140.153C145.437 140.47 145.2 140.549 144.963 140.549C144.646 140.549 144.409 140.391 144.33 139.996C144.33 139.759 144.33 139.601 144.646 139.68C144.963 139.68 145.279 139.917 145.437 140.233L145.437 140.153Z" fill="#699E2C"/>
<path d="M149.234 140.154C149.234 140.391 149.076 140.549 148.839 140.47C148.522 140.47 148.364 140.233 148.364 139.917C148.364 139.759 148.364 139.442 148.68 139.522C149.076 139.522 149.076 139.917 149.234 140.154Z" fill="#5E8630"/>
<defs>
<filter id="filter0_d_2574_57" x="2" y="0" width="185" height="185" filterUnits="userSpaceOnUse" color-interpolation-filters="sRGB">
<feFlood flood-opacity="0" result="BackgroundImageFix"/>
<feColorMatrix in="SourceAlpha" type="matrix" values="0 0 0 0 0 0 0 0 0 0 0 0 0 0 0 0 0 0 127 0" result="hardAlpha"/>
<feOffset dx="-5" dy="5"/>
<feComposite in2="hardAlpha" operator="out"/>
<feColorMatrix type="matrix" values="0 0 0 0 0 0 0 0 0 0 0 0 0 0 0 0 0 0 1 0"/>
<feBlend mode="normal" in2="BackgroundImageFix" result="effect1_dropShadow_2574_57"/>
<feBlend mode="normal" in="SourceGraphic" in2="effect1_dropShadow_2574_57" result="shape"/>
</filter>
</defs>
</svg>
