<svg width="60" height="234" viewBox="0 0 60 234" fill="none" xmlns="http://www.w3.org/2000/svg">
<path d="M31.7483 9.22997C33.1633 9.22997 34.5783 9.49511 35.9048 9.76024C46.2516 11.7929 54.4761 19.0398 58.0134 28.938C61.1971 38.0407 59.7822 47.497 54.2108 55.3625C51.823 58.7208 48.8162 61.6373 45.2789 63.6699C43.1564 64.9072 40.8571 65.791 38.4694 66.498C36.0816 67.205 35.9932 67.1166 34.8435 67.3818C33.6939 67.6469 32.1021 67.4701 32.1021 68.619C32.1905 84.8803 32.2789 101.142 32.3674 117.314C32.5443 149.395 32.7211 181.476 32.9864 213.557C32.9864 213.91 32.9864 214.352 32.9864 214.882C33.517 214.529 33.9592 214.087 34.6667 214.352C34.932 214.529 35.1088 214.175 35.2857 213.998C35.7279 213.645 36.0816 213.203 36.5238 212.85C37.6735 212.054 38.2925 212.142 39.0884 213.203C39.619 212.673 40.1496 212.231 40.8571 211.877C42.0952 211.347 42.8027 211.877 42.7143 213.203C42.7143 213.645 42.5374 213.998 42.4489 214.44C42.3605 214.882 42.1836 215.236 42.0952 215.766C44.4829 215.324 46.6938 215.678 48.8162 216.473C49.789 216.826 50.6734 217.445 51.4693 218.152C53.4148 219.92 53.857 221.864 52.7958 224.25C51.6462 226.901 49.5237 228.669 47.136 229.995C43.687 232.027 39.8843 232.823 35.9932 233.264C30.864 233.883 25.6464 234.237 20.5171 233.441C17.8641 232.999 15.2995 232.381 12.8233 231.32C11.0546 230.525 9.63968 229.288 8.66689 227.52C7.60568 225.311 7.78254 223.366 9.37436 221.51C10.7009 219.92 12.4696 219.036 14.4151 218.506C14.9458 218.329 15.1226 218.24 14.8573 217.71C14.3267 216.385 14.7689 215.589 16.1838 215.412C16.3607 215.412 16.626 215.412 16.8029 215.412C17.9525 215.678 18.8369 215.943 19.5444 214.44C19.9865 213.468 21.313 213.733 22.1974 214.175C22.728 214.44 22.9933 214.529 23.1702 213.733C23.347 212.673 24.2314 212.408 25.1157 213.026C25.4695 213.291 25.8232 213.645 26.3538 214.087C26.3538 213.468 26.3538 213.026 26.3538 212.584C26.0885 167.159 25.7348 121.822 25.4695 76.3961C25.4695 73.7448 25.4695 71.0052 25.4695 68.3539C25.4695 67.7353 25.381 67.4701 24.6736 67.2934C16.0954 65.8793 8.31314 60.5767 3.97984 53.0647C-1.23781 44.0503 -1.41468 32.5614 3.97984 23.547C5.04105 21.7795 6.19071 20.1887 7.60567 18.6863C13.7961 11.9697 22.8164 8.52298 31.8368 9.05324L31.7483 9.22997ZM12.558 220.45C10.9662 220.98 9.46279 222.659 9.28592 224.073C9.81653 223.985 10.3472 223.808 10.8778 223.72C11.4968 223.72 12.3811 223.808 12.558 223.19C12.7349 221.952 13.0886 220.892 13.8845 219.831C13.4424 219.831 13.0886 219.831 12.9117 220.185C12.7349 220.185 12.558 220.185 12.558 220.362V220.45ZM10.8778 224.692C8.66689 224.869 8.40158 225.311 9.4628 227.343C10.4356 229.376 10.6125 229.376 12.2043 227.697C12.6465 227.343 13.0886 226.99 13.4424 226.636C13.6192 226.548 13.7077 226.371 13.7077 226.106C13.3539 224.692 12.558 224.25 11.2315 224.604C11.1431 224.604 11.0546 224.692 10.9662 224.78L10.8778 224.692ZM20.2518 230.79C19.9865 231.143 19.8097 231.409 19.5444 231.762C19.1022 232.292 19.1022 232.557 19.8981 232.646C21.1362 232.823 22.2858 233.088 23.5239 233.088C24.6441 233.147 25.3516 232.616 25.6463 231.497C25.8232 230.967 26.0885 230.348 26.2654 229.818C26.5307 229.288 26.2654 229.199 25.7348 229.199C24.8504 229.199 23.8776 229.288 22.9933 229.199C21.4899 228.934 20.694 229.553 20.1634 230.878L20.2518 230.79ZM26.5307 231.674C26.5307 231.85 26.4423 232.027 26.3538 232.116C25.9117 232.999 26.177 233.176 27.1497 233.176C28.1225 233.176 29.1837 232.999 30.1565 232.911C30.9524 232.911 31.483 232.734 31.3946 231.85C31.3946 231.055 31.3946 230.348 31.483 229.553C31.483 229.288 31.6599 228.934 31.2177 228.934C29.9797 228.934 28.6531 228.934 27.5035 229.199C26.796 229.376 26.9729 230.613 26.6191 231.32C26.6191 231.32 26.6191 231.497 26.6191 231.585L26.5307 231.674ZM12.9117 228.315C12.6464 228.581 12.3811 228.846 12.0274 229.022C11.2315 229.553 11.4968 229.906 12.2043 230.26C13.6192 231.055 15.0342 231.409 16.5376 231.85C18.3063 232.381 18.3063 232.292 19.1906 230.613C19.6328 230.171 19.9865 229.553 20.3403 228.934C18.7484 228.581 17.245 228.315 15.8301 227.608C14.3267 226.813 14.3267 226.813 13.0886 228.05C13.0886 228.05 13.0886 228.139 13.0002 228.227L12.9117 228.315ZM39.4422 231.497C39 230.525 38.9116 229.199 38.1156 228.581C37.3197 227.962 36.0816 228.581 35.0204 228.669H34.8435C33.0159 228.787 32.1905 229.788 32.3674 231.674C32.5443 232.116 31.7483 232.999 32.898 232.911C35.0204 232.823 37.2313 232.469 39.3537 232.116C39.8843 232.027 39.8843 231.762 39.619 231.409L39.4422 231.497ZM42.3605 231.32C43.8639 231.055 45.102 230.348 46.4285 229.641C47.9319 228.846 47.9319 228.934 46.6938 227.608C45.8979 226.725 45.2788 226.548 44.2176 227.078C43.4217 227.432 42.5374 227.52 41.7415 227.874C40.8571 228.227 39.4422 227.697 39.2653 228.669C39.0884 229.464 39.8843 230.525 40.4149 231.32C41.034 232.381 41.7415 231.409 42.3605 231.32ZM42.9795 226.283C45.2789 226.018 47.136 224.869 48.5509 223.101C49.5237 221.776 49.5237 220.362 48.5509 219.389C47.4013 218.24 45.9863 217.445 44.3061 217.357C43.1564 216.915 42.0068 216.385 40.8571 217.533C40.6803 216.915 41.1224 216.561 41.034 216.208C41.5646 215.412 41.653 214.529 41.8299 213.645C41.8299 213.468 41.9183 213.203 41.8299 213.026C41.5646 212.85 41.3877 213.026 41.1224 213.115C40.4149 213.468 39.8843 214.087 39.3537 214.617C39.1768 214.882 39 215.147 38.6463 215.059C38.2041 214.971 38.2041 214.529 38.2041 214.175C38.2041 213.291 37.7619 213.38 37.2313 213.733C36.6122 214.087 36.0816 214.705 35.6395 215.236C35.3742 215.501 35.1973 215.766 34.7551 215.589C33.7823 215.324 33.4286 215.589 33.1633 216.738C32.5442 218.24 34.7551 217.445 34.6667 218.594C34.6667 218.771 34.8435 218.771 34.932 218.771C35.1089 218.771 35.1973 218.682 35.2857 218.594C35.6395 218.506 35.9932 218.329 36.4354 218.329C37.4082 218.152 38.0272 218.771 37.9388 219.743C37.9388 220.096 37.8503 220.362 37.7619 220.715C37.7619 221.069 37.6735 221.599 37.2313 221.599C36.6122 221.599 36.966 220.98 36.966 220.627C37.0544 218.948 36.966 218.859 35.3742 219.566C35.1973 219.566 35.0204 219.743 34.932 219.831C34.4898 220.008 34.1361 220.538 33.6939 220.096C33.2517 219.743 33.6939 219.301 33.6939 218.947C33.6939 218.947 33.6939 218.859 33.517 218.771C33.0748 219.036 32.7211 219.389 32.2789 219.743C31.7483 220.185 31.7483 220.98 31.0409 221.245C30.864 220.892 31.0409 220.538 31.2177 220.362C32.1905 219.213 31.9252 217.887 31.9252 216.561C31.8368 192.169 31.6599 167.866 31.483 143.474C31.3946 122.352 31.2177 101.23 31.1293 80.108C31.1293 76.7497 31.1293 73.4797 31.1293 70.1214C31.1293 69.4144 31.0409 69.1493 30.245 69.5028C29.6259 69.8563 28.9184 70.033 28.2994 70.2098C27.5919 70.4749 26.3538 69.8563 26.3538 71.5354C26.7076 119.877 27.0613 168.131 27.3266 216.473C27.3266 218.417 27.8572 220.008 29.0953 221.422C29.3606 222.041 29.8912 222.129 30.3334 222.571C30.5987 223.366 31.1293 224.25 30.5102 225.399C30.1565 224.604 30.1565 223.897 29.8028 223.278C29.5375 222.924 29.3606 222.659 28.9184 222.659C28.4763 222.659 28.4763 223.101 28.3878 223.455C28.211 224.073 28.1225 224.604 28.2994 225.222C28.2994 225.487 28.5647 225.841 28.2994 226.018C27.9456 226.194 27.7688 225.752 27.5919 225.576C27.2382 225.222 26.8844 224.869 26.4422 224.692C26.0001 224.515 25.4695 224.25 25.0273 224.692C24.5851 225.134 24.8504 225.664 25.0273 226.106C25.0273 226.283 25.381 226.371 25.2042 226.636C24.4967 226.371 24.0545 225.664 24.2314 224.957C24.4082 224.25 24.8504 223.985 25.6463 223.897C26.3538 223.897 27.0613 224.78 27.415 224.427C27.8572 224.073 27.5035 223.013 27.9456 222.483C28.3878 221.864 28.1225 221.334 27.7688 220.892C27.5919 220.538 27.3266 220.45 27.0613 220.892C26.3538 221.952 26.177 221.952 25.381 220.892C24.8504 220.273 24.4967 219.478 23.7008 219.124C23.4355 219.389 23.5239 219.655 23.5239 219.92C23.5239 220.273 23.6124 220.715 23.1702 220.803C22.8164 220.98 22.5511 220.715 22.1974 220.45C21.9321 220.185 21.5784 219.92 21.313 219.743C20.9593 219.566 20.6056 219.301 20.2518 219.655C19.8981 219.92 19.9865 220.362 20.075 220.627C20.4287 221.687 20.6056 222.924 21.5783 223.72C21.8436 223.985 22.109 224.25 22.109 224.604C22.109 224.869 22.2858 225.134 21.9321 225.222C21.6668 225.311 21.5784 225.045 21.4899 224.869C21.1362 224.515 20.7824 223.985 20.2518 224.162C19.7212 224.427 19.6328 225.045 19.5444 225.576C19.5444 225.841 19.7212 226.283 19.3675 226.283C18.9253 226.283 18.8369 225.929 18.7484 225.576C18.7484 225.311 18.7484 225.045 18.66 224.869C18.3063 224.25 17.8641 223.631 17.0682 223.72C16.1838 223.72 16.4491 224.604 16.5376 225.222C15.6532 224.78 15.5648 224.25 16.007 223.543C16.5376 222.748 17.3335 222.748 18.3063 223.366C18.5716 223.543 18.66 224.25 19.1906 223.631C19.5444 223.278 20.075 222.924 19.5444 222.217C19.279 221.864 19.1906 221.422 19.1022 221.069C18.8369 220.185 18.7484 219.389 19.5444 218.771C20.2518 218.152 21.0477 218.417 21.7552 218.771C22.1974 219.036 22.3743 219.036 22.5511 218.506C22.9049 217.622 23.5239 217.445 24.2314 218.152C24.762 218.594 25.1157 219.124 25.5579 219.655C25.7348 219.831 25.8232 220.185 26.0885 220.008C26.3538 219.92 26.2654 219.655 26.2654 219.478C26.2654 218.594 26.2654 217.622 26.2654 216.738C26.3538 215.589 26.0001 214.882 25.0273 214.264C24.6736 214.087 24.4083 213.645 24.0545 213.91C23.7008 214.087 23.8776 214.529 23.8776 214.882C23.8776 215.854 23.5239 216.031 22.728 215.678C22.1974 215.501 21.7552 215.236 21.2246 215.147C20.1634 214.971 19.6328 215.501 19.7212 216.473C19.8097 217.533 19.5443 217.71 18.5716 217.268C17.8641 216.915 17.0682 216.738 16.2723 216.826C15.5648 216.826 15.3879 217.268 15.6532 217.799C15.9185 218.329 16.1838 218.859 16.4491 219.389C16.5376 219.654 16.8913 219.831 16.626 220.096C16.4491 220.273 16.1838 220.096 16.007 219.92C15.6532 219.655 15.3879 219.743 15.1226 220.008C12.7349 222.306 13.1771 225.222 16.0954 226.725C17.9525 227.608 19.8981 227.962 21.9321 228.139C26.5307 228.492 31.0409 228.139 35.6395 227.697C38.1157 227.432 40.6802 227.343 42.9795 226.371V226.283ZM16.1838 20.3654C16.1838 20.6306 16.0954 20.8073 15.7417 20.7189C14.4151 20.0119 13.2655 19.0398 12.0274 18.156C11.6737 17.8909 11.4083 17.2722 10.9662 17.6257C10.2587 18.156 9.81653 18.863 9.37436 19.57C9.28593 19.7468 9.55122 19.8352 9.72809 19.9235C11.143 20.6306 12.4696 21.6027 13.8845 22.3981C14.4151 22.9284 14.9458 23.4586 15.7417 24.1656C14.592 23.9005 13.8845 23.4586 13.0886 23.1051C12.0274 22.3981 11.0546 21.7795 9.99341 21.0725C8.75533 20.1887 8.75531 20.1887 7.9594 21.5143C7.6941 21.8678 7.69411 22.0446 8.13628 22.3097C9.37437 23.0167 10.524 23.7237 11.7621 24.5191C14.1498 26.1983 16.5376 27.8774 18.8369 29.5566C18.7484 29.7333 18.66 29.8217 18.5716 29.9985C16.007 28.4961 13.6192 26.7285 10.9662 25.4029C9.99339 24.6959 8.93219 24.0772 8.04784 23.3702C7.34036 22.84 7.07506 22.9284 6.72132 23.6354C4.51045 27.7007 3.18394 31.9428 2.91864 36.5383C2.38803 44.669 4.68733 51.6507 10.3471 57.5719C10.524 57.7487 10.7009 58.1906 11.1431 58.1022C11.5852 59.0744 12.4696 59.4278 13.4424 60.1349C13.3539 57.8371 13.177 55.8928 13.177 53.8601C13.177 50.3251 13.3539 46.79 13.7961 43.3433C14.3267 39.278 16.626 36.7151 20.7824 35.9197C25.8232 34.8592 30.864 34.5057 35.9932 35.1243C37.4082 35.3011 37.4081 35.3011 37.4966 33.887C37.585 32.3846 37.7619 30.9706 37.9388 29.4682C38.0272 28.4961 38.2925 28.4077 39.1769 28.938C40.5034 29.7333 41.8299 30.7055 43.068 31.6776C45.8979 33.887 48.5509 36.2732 51.4693 38.3059C52.7074 39.1896 52.7074 39.6315 51.4693 40.5153C48.9931 42.3712 46.5169 44.2271 44.0408 46.083C42.449 47.2319 40.8571 48.2924 39.1769 49.1762C38.2041 49.7064 37.8503 49.5297 37.7619 48.3808C37.7619 46.6133 37.7619 44.8457 37.6735 43.0782C37.6735 42.2828 37.4081 41.9293 36.6122 41.8409C32.898 41.3991 29.1837 41.5758 25.4695 42.3712C23.3471 42.8131 22.0205 44.1387 21.4899 46.1714C20.8709 48.5575 20.6056 50.9437 20.7824 53.4182C20.9593 56.6882 21.3131 59.9581 21.4899 63.228C21.4899 63.9351 21.9321 64.1118 22.4627 64.2886C28.2109 65.9677 33.9592 65.8793 39.619 63.8467C41.2993 63.2281 42.9795 62.521 44.5714 61.4605C42.1836 59.8697 39.9728 58.279 37.7619 56.7766C37.585 56.5998 37.3197 56.5114 37.1429 56.3347C37.0544 56.3347 36.966 56.1579 37.0544 55.9812C37.0544 55.8044 37.2313 55.8044 37.4082 55.8928C37.6735 55.8928 37.8503 56.0695 38.1156 56.1579C40.5918 57.3068 42.9796 58.7208 45.2789 60.2232C45.5442 60.4 45.8095 60.7535 46.1632 60.4884C46.8707 59.9581 47.6666 59.5162 48.2856 58.8092C46.8707 58.0138 45.5441 57.1301 44.2176 56.2463C44.0408 56.0695 43.687 55.9812 43.8639 55.716C44.0408 55.3625 44.3945 55.5393 44.5714 55.716C45.8094 56.2463 46.9591 56.6882 48.1087 57.3068C49.0815 57.8371 49.8774 58.0138 50.4081 56.7766C50.7618 56.7766 50.9387 56.4231 51.1156 56.2463C55.9795 49.9716 58.8094 42.9898 57.7482 34.9476C56.6869 26.9053 53.3264 20.2771 46.3401 15.6815C44.3061 14.3558 42.2721 12.8534 39.8843 12.2348C32.9864 10.3789 26.1769 10.644 19.4559 12.8534C16.7144 13.7372 14.3267 15.2396 12.0274 17.0071C13.6192 18.0676 15.1226 19.1282 16.3607 20.4538L16.1838 20.3654ZM38.8231 29.4682C38.4694 31.5009 38.1156 33.3568 37.7619 35.3011C37.7619 35.5662 37.7619 35.9197 37.2313 35.9197C32.898 35.9197 28.5647 35.9197 24.3198 36.45C22.728 36.6267 21.1362 36.8035 19.6328 37.3337C17.3335 38.2175 15.3879 39.5431 14.8573 42.2828C13.7961 48.1157 13.8845 54.1253 14.0614 60.0465C14.0614 60.4 14.0614 60.7535 14.4151 61.0186C16.2723 62.1675 18.2178 63.1397 20.4287 63.8467C20.2518 61.4605 19.9865 59.2511 19.8096 57.0417C19.5443 53.4182 19.3675 49.7948 20.3403 46.1714C20.9593 44.0503 22.1974 42.3712 24.4083 41.8409C28.4763 40.7804 32.5442 40.692 36.7007 41.2223C37.8503 41.399 38.2041 41.9293 38.2041 42.9898C38.2041 44.4922 38.2925 45.9946 38.3809 47.497C38.3809 48.1157 38.5578 48.2924 39.1769 47.9389C43.3333 45.376 47.0476 42.1944 51.1156 39.278C47.0476 36.0081 43.068 32.8265 38.9115 29.4682H38.8231ZM50.0543 223.19C49.789 223.19 49.6122 223.366 49.3469 223.631C48.9047 224.073 48.4625 224.515 48.0203 225.045C47.5782 225.576 46.5169 225.753 46.6054 226.371C46.6938 226.99 47.5781 227.343 48.1087 227.874C48.4625 228.227 48.6394 228.139 48.9931 227.874C49.8774 227.167 50.6734 226.371 51.2924 225.399C51.6461 224.869 52.2652 224.162 51.9115 223.631C51.6462 223.19 50.6734 223.278 49.9659 223.19H50.0543ZM51.1156 220.185C50.3196 220.185 50.2312 220.185 50.2312 221.864C50.2312 223.013 51.3809 222.394 51.9999 222.659C52.5305 222.924 52.4421 222.306 52.4421 222.041C52.4421 220.715 51.9999 220.185 51.0271 220.185H51.1156ZM51.0271 219.301C50.4081 218.329 49.0815 217.533 47.9319 217.622C49.2584 217.975 49.5237 219.743 51.0271 219.301Z" fill="#0B0D0D"/>
<path d="M50.051 56.7752C49.5204 58.0125 48.7245 57.8357 47.7517 57.3055C46.6021 56.6868 45.364 56.2449 44.2143 55.7147C43.949 55.6263 43.5953 55.4495 43.5069 55.7147C43.4184 55.9798 43.6837 56.1566 43.8606 56.2449C45.0987 57.2171 46.4252 58.1008 47.9286 58.8079C47.3096 59.5149 46.5136 59.9567 45.8061 60.487C45.364 60.7521 45.1871 60.487 44.9218 60.2219C42.6225 58.7195 40.3232 57.3055 37.7586 56.1566C37.4933 56.0682 37.3164 55.9798 37.0511 55.8914C36.8742 55.8914 36.7858 55.8914 36.6974 55.9798C36.6089 56.1566 36.6974 56.2449 36.7858 56.3333C36.9627 56.5101 37.1395 56.5984 37.4049 56.7752C39.6157 58.2776 41.915 59.8684 44.2143 61.4591C42.6225 62.5197 41.0307 63.2267 39.262 63.8453C33.6022 65.878 27.8539 65.9664 22.1057 64.2872C21.5751 64.1105 21.1329 63.9337 21.1329 63.2267C20.956 59.9567 20.6023 56.6868 20.4254 53.4169C20.2485 50.9423 20.5138 48.5562 21.1329 46.17C21.6635 44.049 22.99 42.8117 25.1124 42.3698C28.8267 41.5744 32.541 41.4861 36.2552 41.8396C37.0511 41.8396 37.3164 42.2815 37.3164 43.0768C37.4049 44.8444 37.3164 46.6119 37.4049 48.3794C37.4049 49.5283 37.7586 49.7051 38.8198 49.1748C40.5001 48.291 42.1803 47.2305 43.6837 46.0816C46.1599 44.2257 48.6361 42.3698 51.1122 40.5139C52.3503 39.6302 52.3503 39.0999 51.1122 38.3045C48.1939 36.2719 45.5408 33.8857 42.7109 31.6763C41.4728 30.7041 40.2348 29.732 38.8198 28.9366C38.0239 28.4063 37.7586 28.4947 37.5817 29.4669C37.4049 30.9693 37.228 32.3833 37.1396 33.8857C37.0511 35.2997 37.1395 35.2997 35.6362 35.123C30.5069 34.5043 25.4662 34.8578 20.4254 35.9183C16.269 36.8021 14.0581 39.2766 13.4391 43.342C12.9969 46.877 12.7316 50.3237 12.82 53.8588C12.82 55.8914 12.9969 57.8357 13.0853 60.1335C12.201 59.4265 11.2282 59.073 10.786 58.1009C10.6092 57.8357 10.4323 57.5706 10.2554 57.3055C7.51394 52.8866 5.47995 48.1143 5.03777 42.9001C4.41873 36.2718 6.27585 30.439 10.6976 25.4015C13.3506 26.7272 15.7384 28.5831 18.303 29.9971C18.3914 29.8203 18.4798 29.732 18.5683 29.5552C16.1805 27.8761 13.7928 26.1969 11.4935 24.5178C11.9357 24.0759 12.3778 23.634 12.82 23.1921C13.6159 23.5456 14.3234 23.9875 15.4731 24.2526C14.7656 23.5456 14.235 23.0154 13.6159 22.4851C14.235 21.9548 14.854 21.4246 15.4731 20.8943C15.7384 20.8943 15.9152 20.8943 15.9152 20.5408C16.888 20.0106 17.7724 19.4803 18.7452 18.95C27.6771 13.4707 41.2076 14.9731 48.5476 24.7829C54.7381 33.0019 56.7721 46.5235 49.8741 56.7752C49.8741 56.7752 49.8742 56.9519 49.9626 57.0403L50.051 56.7752Z" fill="#0ABAED"/>
<path d="M28.7994 70.1207C29.4184 69.8556 30.1259 69.6788 30.7449 69.4137C31.5408 69.0602 31.6293 69.3253 31.6293 70.0324C31.6293 73.3907 31.6293 76.6606 31.6293 80.0189C31.7177 101.141 31.8946 122.263 31.983 143.385C32.1599 167.777 32.2483 192.08 32.4252 216.472C32.4252 217.798 32.6905 219.124 31.7177 220.272C31.5408 220.538 31.4524 220.891 31.5408 221.156C31.2755 221.598 31.0102 222.128 30.7449 222.57C30.3912 222.128 29.7721 222.04 29.5068 221.421C30.0375 221.068 29.7721 220.538 29.7721 220.096C29.6837 202.067 29.5068 184.038 29.4184 166.009C29.2415 146.125 29.1531 126.151 28.9762 106.267C28.9762 94.2475 28.7994 82.2283 28.7109 70.2975L28.7994 70.1207Z" fill="#0CB9EB"/>
<path d="M38.9035 29.4688C42.9715 32.7387 47.0395 36.0086 51.1075 39.2785C47.128 42.1066 43.3253 45.2881 39.1688 47.9394C38.5498 48.2929 38.4614 48.2046 38.3729 47.4976C38.3729 45.9952 38.1961 44.4928 38.1961 42.9903C38.1961 41.9298 37.8423 41.3996 36.6927 41.2228C32.5362 40.6926 28.4682 40.7809 24.4002 41.8415C22.1894 42.3717 20.9513 43.9625 20.3322 46.1719C19.3595 49.707 19.5364 53.4188 19.8017 57.0422C19.9785 59.2516 20.1554 61.4611 20.4207 63.8472C18.2098 63.1402 16.2643 62.2564 14.4071 61.0192C14.0534 60.754 14.0534 60.4005 14.0534 60.047C13.8765 54.1258 13.7881 48.2046 14.8493 42.2833C15.3799 39.6321 17.237 38.218 19.6248 37.3343C21.1282 36.804 22.72 36.6272 24.3118 36.4505C28.6451 35.8319 32.9784 35.8319 37.2233 35.9202C37.7539 35.9202 37.6655 35.5667 37.7539 35.3016C38.1076 33.4457 38.4614 31.5898 38.8151 29.4688H38.9035Z" fill="#FBFBFB"/>
<path d="M50.6853 56.7759C50.6853 56.7759 50.5969 56.5991 50.5969 56.5108C57.4948 46.2591 55.4608 32.8259 49.2704 24.5185C41.9303 14.7087 28.3998 13.2063 19.4679 18.6856C18.5835 19.2159 17.6108 19.7461 16.638 20.2764C15.3999 18.9507 13.8965 17.9786 12.3047 16.8297C14.604 15.0622 16.9917 13.5598 19.7332 12.676C26.4542 10.4666 33.3521 10.2015 40.1616 12.0574C42.5494 12.676 44.5833 14.1784 46.6173 15.5041C53.6037 20.0113 56.9642 26.7279 58.0254 34.7702C59.0866 42.8124 56.2567 49.7941 51.3928 56.0689C51.2159 56.334 51.0391 56.5991 50.6853 56.5991V56.7759Z" fill="#FBFCFC"/>
<path d="M28.1955 70.1196C28.1955 82.1388 28.3724 94.158 28.4609 106.089C28.6377 125.974 28.7262 145.947 28.903 165.831C28.9915 183.86 29.1683 201.889 29.2568 219.918C29.2568 220.36 29.5221 220.89 28.9915 221.243C27.7534 219.829 27.2228 218.327 27.2228 216.294C26.9575 167.952 26.6037 119.699 26.25 71.3569C26.25 69.6777 27.3996 70.2964 28.1955 70.0312V70.1196Z" fill="#F6F8F9"/>
<path d="M30.5179 222.48C30.7832 222.038 31.0485 221.508 31.3138 221.066C32.0213 220.801 32.0212 220.006 32.5519 219.564C32.9056 219.21 33.3478 218.857 33.7899 218.592C33.7899 218.592 33.9668 218.68 33.9668 218.769C33.9668 219.21 33.5246 219.652 33.9668 219.917C34.409 220.271 34.7627 219.741 35.2049 219.652C35.3818 219.652 35.5586 219.476 35.6471 219.387C37.2389 218.68 37.3273 218.769 37.2389 220.448C37.2389 220.801 36.8852 221.332 37.5042 221.42C37.9464 221.42 38.0348 220.89 38.0348 220.536C38.0348 220.183 38.1232 219.917 38.2117 219.564C38.2117 218.592 37.6811 218.062 36.7083 218.15C36.3546 218.15 36.0008 218.327 35.5586 218.415C35.3818 218.415 35.2933 218.503 35.2049 218.592C35.028 218.592 34.8512 218.592 34.9396 218.415C35.028 217.266 32.8172 218.062 33.4362 216.559C33.7899 216.559 34.1437 216.294 34.409 216.559C35.2049 217.266 35.4702 216.559 35.8239 216.117C36.7083 214.968 37.5926 215.057 38.3885 216.294C38.477 216.471 38.3885 216.913 38.8307 216.913C39.0076 216.471 39.1845 216.029 39.5382 215.675C40.2457 214.88 40.8647 214.968 41.3069 216.029C41.3953 216.471 40.9532 216.824 41.13 217.355C42.2797 216.206 43.4293 216.824 44.579 217.178C44.7558 217.62 45.2865 217.62 45.6402 217.973C48.3817 220.359 48.647 222.127 45.9939 224.336C45.1096 225.043 44.0484 225.397 43.3409 226.192C40.9532 227.164 38.477 227.341 36.0008 227.518C31.4906 227.96 26.892 228.313 22.2934 227.96C20.2594 227.783 18.3139 227.518 16.4568 226.546C13.5384 225.043 13.0962 222.127 15.484 219.829C15.7493 219.564 16.0146 219.387 16.3683 219.741C16.5452 219.829 16.8105 220.094 16.9873 219.917C17.2526 219.652 16.9874 219.387 16.8105 219.21C16.5452 218.68 16.1915 218.15 16.0146 217.62C15.7493 217.001 16.0146 216.648 16.6336 216.648C17.4295 216.648 18.2254 216.736 18.9329 217.089C19.9057 217.62 20.171 217.355 20.0826 216.294C19.9941 215.233 20.5247 214.792 21.586 214.968C22.1166 215.057 22.5588 215.322 23.0894 215.499C23.9737 215.852 24.239 215.675 24.239 214.703C24.239 214.35 24.0621 213.908 24.4159 213.731C24.8581 213.466 25.1233 213.908 25.3886 214.085C26.273 214.615 26.7152 215.41 26.6267 216.559C26.5383 217.443 26.6267 218.415 26.6267 219.299C26.6267 219.476 26.6267 219.741 26.4499 219.829C26.0961 220.006 26.0077 219.652 25.9193 219.476C25.4771 218.945 25.1233 218.415 24.5927 217.973C23.8853 217.266 23.1778 217.443 22.9125 218.327C22.7356 218.857 22.5587 218.857 22.1166 218.592C21.4091 218.15 20.6132 217.885 19.9057 218.592C19.1098 219.21 19.2867 220.094 19.4635 220.89C19.552 221.331 19.6404 221.773 19.9057 222.038C20.4363 222.745 19.9057 223.099 19.552 223.453C19.1098 223.983 18.9329 223.364 18.6676 223.187C17.6948 222.48 16.8989 222.48 16.3683 223.364C15.9261 224.071 16.0146 224.601 16.8989 225.043C16.8989 224.425 16.5452 223.629 17.4295 223.541C18.2254 223.541 18.6676 224.071 19.0214 224.69C19.1098 224.867 19.0214 225.22 19.1098 225.397C19.1982 225.75 19.2867 226.192 19.7288 226.104C20.0826 226.104 19.9057 225.662 19.9057 225.397C19.9057 224.778 20.0826 224.16 20.6132 223.983C21.1438 223.806 21.4975 224.336 21.8513 224.69C22.0281 224.867 22.0281 225.132 22.2934 225.043C22.5587 224.955 22.4703 224.601 22.4703 224.425C22.4703 224.071 22.205 223.806 21.9397 223.541C20.9669 222.746 20.7901 221.597 20.4363 220.448C20.3479 220.094 20.2594 219.741 20.6132 219.476C20.9669 219.21 21.3207 219.476 21.6744 219.564C22.0281 219.741 22.2934 220.006 22.5587 220.271C22.824 220.536 23.0894 220.801 23.5315 220.624C23.9737 220.448 23.7968 220.006 23.8853 219.741C23.8853 219.476 23.8853 219.21 24.0621 218.945C24.858 219.299 25.2118 220.183 25.7424 220.713C26.6267 221.685 26.7152 221.685 27.4227 220.713C27.688 220.271 27.8648 220.448 28.1301 220.713C28.4839 221.243 28.7492 221.685 28.307 222.304C27.8648 222.922 28.1301 223.894 27.7764 224.248C27.3342 224.601 26.7152 223.718 26.0077 223.718C25.3002 223.718 24.7696 224.071 24.5927 224.778C24.4159 225.485 24.858 226.192 25.5655 226.457C25.7424 226.192 25.5655 226.104 25.3886 225.927C25.1233 225.485 24.858 224.955 25.3886 224.513C25.8308 224.071 26.3614 224.336 26.8036 224.513C27.2458 224.69 27.688 225.043 27.9533 225.397C28.1301 225.574 28.307 226.104 28.6607 225.839C28.926 225.662 28.6607 225.308 28.6607 225.043C28.4839 224.425 28.6607 223.894 28.7492 223.276C28.8376 222.922 28.926 222.569 29.2798 222.48C29.722 222.48 29.9873 222.746 30.1641 223.099C30.6063 223.629 30.5179 224.336 30.8716 225.22C31.4906 224.071 30.96 223.276 30.6947 222.392L30.5179 222.48ZM43.0756 220.978C43.0756 221.155 43.0756 221.332 43.0756 221.42C43.0756 222.215 42.7219 223.011 42.4566 223.806C42.4566 224.071 42.3681 224.425 42.6334 224.513C42.9871 224.601 43.164 224.425 43.2525 224.16C43.6062 223.276 43.9599 222.48 43.9599 221.508C43.9599 220.094 43.164 219.564 41.9259 220.271C41.13 220.713 40.511 221.42 39.8035 222.038C39.6266 222.215 39.4498 222.569 39.096 222.392C38.0348 221.508 37.4158 222.392 36.7083 223.011C36.0008 223.629 35.3818 224.248 35.2933 225.308C36.0892 224.778 36.7083 224.071 37.4158 223.453C37.7695 223.099 38.2117 222.746 38.3885 223.629C38.477 224.16 38.9192 224.16 39.3613 223.806C39.6266 223.541 39.8919 223.276 40.1572 223.011C40.9532 222.304 41.5722 221.332 42.7218 220.978H43.0756Z" fill="#73B32A"/>
<path d="M11.4914 25.3132C7.0697 30.3507 5.21255 36.1835 5.8316 42.8118C6.27377 48.026 8.30779 52.7983 11.0493 57.2171C11.2261 57.4823 11.403 57.7474 11.5799 58.0125C11.1377 58.1893 10.9608 57.7474 10.7839 57.4823C5.12412 51.6494 2.82483 44.5793 3.35544 36.4487C3.70917 31.8531 4.94725 27.5226 7.15812 23.5457C7.60029 22.8387 7.86559 22.6619 8.48464 23.2806C9.36898 24.0759 10.4302 24.6946 11.403 25.3132H11.4914Z" fill="#F8FAFB"/>
<path d="M40.7061 231.323C40.1754 230.527 39.3795 229.467 39.5564 228.671C39.8217 227.611 41.2367 228.229 42.0326 227.876C42.8285 227.522 43.8013 227.522 44.5087 227.081C45.57 226.55 46.2774 226.815 46.9849 227.611C48.1346 228.848 48.223 228.848 46.7196 229.643C45.3931 230.262 44.155 231.057 42.6516 231.323C42.0326 230.704 41.3251 231.499 40.7061 231.323Z" fill="#CDC7C7"/>
<path d="M32.9009 231.675C32.783 229.849 33.6084 228.847 35.3771 228.67H35.554C36.6152 228.67 37.9417 227.963 38.6492 228.582C39.3567 229.112 39.5335 230.438 39.9757 231.498C37.588 231.498 35.2002 231.852 32.8125 231.675H32.9009Z" fill="#CEC8C8"/>
<path d="M43.565 226.284C44.3609 225.489 45.4221 225.135 46.218 224.428C48.8711 222.219 48.6058 220.451 45.8643 218.065C45.5106 217.8 44.98 217.8 44.8031 217.27C46.4833 217.358 47.8983 218.153 49.048 219.302C50.0207 220.274 50.1092 221.777 49.048 223.014C47.633 224.87 45.7759 225.93 43.4766 226.196L43.565 226.284Z" fill="#F4F5F3"/>
<path d="M50.1235 223.189C50.831 223.366 51.8038 223.189 52.0691 223.631C52.4228 224.161 51.7154 224.868 51.45 225.399C50.9194 226.371 50.0351 227.166 49.1507 227.873C48.797 228.138 48.6201 228.227 48.2664 227.873C47.7358 227.343 46.8515 226.901 46.763 226.371C46.6746 225.752 47.7358 225.575 48.178 225.045C48.6201 224.603 49.0623 224.161 49.5045 223.631C49.6813 223.366 49.8582 223.101 50.212 223.189H50.1235Z" fill="#CAC5C5"/>
<path d="M41.5035 216.031C41.0613 215.058 40.4423 214.882 39.7348 215.677C39.3811 216.031 39.2042 216.472 39.0273 216.914C38.5852 216.914 38.6736 216.472 38.5852 216.296C37.7892 215.058 36.9049 214.97 36.0206 216.119C35.6668 216.649 35.4015 217.356 34.6056 216.561C34.3403 216.296 33.8981 216.561 33.6328 216.561C33.8981 215.412 34.2519 215.147 35.2247 215.412C35.6668 215.5 35.8437 215.324 36.109 215.058C36.6396 214.528 37.0818 213.91 37.7008 213.556C38.2314 213.203 38.762 213.114 38.6736 213.998C38.6736 214.351 38.6736 214.705 39.1158 214.882C39.4695 214.97 39.6464 214.617 39.8232 214.44C40.3538 213.821 40.8845 213.291 41.5919 212.937C41.7688 212.849 42.0341 212.672 42.2994 212.849C42.4763 213.026 42.3879 213.203 42.2994 213.468C42.1226 214.351 42.0341 215.235 41.5035 216.031Z" fill="#F4F5F3"/>
<path d="M16.2286 20.7167C15.6096 21.2469 14.9905 21.7772 14.3715 22.3074C12.9565 21.5121 11.7184 20.5399 10.215 19.8329C10.0382 19.8329 9.77288 19.6561 9.86132 19.4794C10.3035 18.7724 10.7457 17.977 11.4531 17.5351C11.8953 17.1816 12.2491 17.8886 12.5144 18.0654C13.7524 18.9491 14.9021 19.9213 16.2286 20.6283V20.7167Z" fill="#F6F6F6"/>
<path d="M13.19 228.317C13.19 228.317 13.19 228.229 13.2784 228.141C14.5165 226.903 14.5165 226.903 16.0199 227.699C17.4349 228.406 19.0267 228.671 20.5301 229.024C20.2648 229.643 19.911 230.262 19.3804 230.704C17.0811 230.439 14.9587 229.731 13.1016 228.317H13.19Z" fill="#CDC7C7"/>
<path d="M12.8191 228.316C14.6762 229.73 16.7987 230.437 19.098 230.703C18.2136 232.382 18.2136 232.382 16.4449 231.94C14.9415 231.498 13.4382 231.056 12.1116 230.349C11.4042 229.996 11.2273 229.642 11.9348 229.112C12.2885 228.935 12.5538 228.582 12.8191 228.405V228.316Z" fill="#F6F6F6"/>
<path d="M27.1588 231.673C27.1588 231.584 27.1588 231.496 27.1588 231.408C27.5125 230.701 27.3356 229.463 28.0431 229.287C29.1928 228.933 30.5193 229.022 31.7574 229.022C32.1995 229.022 32.1111 229.375 32.0227 229.64C32.0227 230.436 32.0227 231.143 31.9342 231.938C30.3424 231.761 28.7506 231.673 27.0703 231.761L27.1588 231.673Z" fill="#CEC8C8"/>
<path d="M20.5312 230.79C21.0619 229.465 21.8578 228.846 23.3612 229.111C24.2455 229.288 25.2183 229.111 26.1027 229.111C26.6333 229.111 26.8986 229.111 26.6333 229.73C26.368 230.26 26.1911 230.879 26.0142 231.409C24.2455 231.144 22.3884 230.967 20.6197 230.702L20.5312 230.79Z" fill="#CAC5C5"/>
<path d="M20.5262 230.789C22.2949 231.054 24.152 231.231 25.9207 231.496C25.6259 232.674 24.9184 233.205 23.7983 233.087C22.5602 233.087 21.3221 232.822 20.1724 232.645C19.3765 232.557 19.465 232.203 19.8187 231.761C20.084 231.496 20.2609 231.143 20.5262 230.789Z" fill="#F4F5F3"/>
<path d="M13.5134 23.1041C13.0712 23.546 12.6291 23.9879 12.1869 24.4298C10.9488 23.7228 9.79915 22.9274 8.56106 22.2204C8.11889 21.9553 8.11888 21.7785 8.38418 21.425C9.18009 20.0994 9.18011 20.0994 10.4182 20.9831C11.391 21.6901 12.4522 22.3088 13.5134 23.0158V23.1041Z" fill="#F6F6F6"/>
<path d="M12.4059 227.696C10.814 229.375 10.7256 229.375 9.66439 227.343C8.69161 225.31 8.86849 224.957 11.0794 224.691C11.1678 225.84 11.7868 226.812 12.3174 227.696H12.4059Z" fill="#F6F6F6"/>
<path d="M32.1862 231.673C34.5739 231.761 36.9617 231.496 39.3494 231.496C39.7031 231.85 39.7031 232.115 39.0841 232.203C36.9617 232.557 34.8392 232.91 32.6283 232.999C31.4787 232.999 32.2746 232.203 32.0977 231.761L32.1862 231.673Z" fill="#F4F5F3"/>
<path d="M26.6172 231.672C28.209 231.672 29.8009 231.672 31.4811 231.849C31.4811 232.732 31.039 232.909 30.243 232.909C29.2703 232.909 28.2091 233.086 27.2363 233.174C26.3519 233.174 25.9982 232.998 26.4404 232.114C26.4404 231.937 26.6172 231.76 26.6172 231.672Z" fill="#FBFBFB"/>
<path d="M12.7225 227.695C12.1034 226.811 11.5728 225.839 11.4844 224.69C11.5728 224.69 11.6612 224.601 11.7497 224.513C13.1646 224.16 13.8721 224.69 14.2258 226.015C14.2258 226.281 14.2258 226.369 13.9605 226.546C13.5184 226.899 13.0762 227.253 12.7225 227.606V227.695Z" fill="#CAC5C5"/>
<path d="M51.6553 220.184C52.6281 220.184 53.0702 220.714 53.0702 222.039C53.0702 222.393 53.0702 222.923 52.6281 222.658C52.009 222.393 50.8594 223.012 50.8594 221.863C50.8594 220.184 50.8594 220.184 51.7437 220.184H51.6553Z" fill="#CAC5C5"/>
<path d="M11.4356 223.629C10.905 223.718 10.3744 223.894 9.84375 223.983C10.0206 222.569 11.524 220.978 13.1158 220.359C13.1158 220.713 12.939 220.89 12.7621 221.155C12.1431 221.862 11.7009 222.657 11.524 223.629H11.4356Z" fill="#F4F5F3"/>
<path d="M10.7525 223.632C10.9294 222.66 11.3715 221.864 11.9906 221.157C12.1675 220.892 12.4328 220.715 12.3443 220.362C12.4328 220.362 12.6096 220.185 12.698 220.185C12.7865 219.743 13.1402 219.831 13.6708 219.831C12.9634 220.892 12.5212 221.953 12.3443 223.19C12.2559 223.808 11.2831 223.632 10.6641 223.72L10.7525 223.632Z" fill="#CAC5C5"/>
<path d="M51.314 219.3C49.8106 219.654 49.5453 217.975 48.2188 217.621C49.3684 217.621 50.6949 218.328 51.314 219.3Z" fill="#CAC5C5"/>
<path d="M41.0156 231.318C41.6347 231.495 42.3421 230.699 42.9612 231.318C42.3421 231.406 41.6347 232.378 41.0156 231.318Z" fill="#CEC8C8"/>
<path d="M13.4787 220.272C13.3903 220.272 13.2134 220.448 13.125 220.448C13.125 220.183 13.3019 220.183 13.4787 220.272Z" fill="#F4F5F3"/>
<path d="M42.7019 220.981C41.5523 221.335 40.9333 222.219 40.1373 223.014C39.872 223.279 39.6067 223.544 39.3414 223.809C38.9877 224.163 38.5455 224.163 38.3687 223.633C38.1918 222.66 37.7496 223.102 37.3959 223.456C36.6884 224.074 36.0693 224.693 35.2734 225.312C35.2734 224.251 35.9809 223.633 36.6884 223.014C37.3074 222.395 38.0149 221.6 39.0761 222.395C39.4299 222.66 39.6067 222.219 39.7836 222.042C40.4027 221.423 41.1101 220.716 41.906 220.274C43.1441 219.567 43.9401 220.009 43.9401 221.512C43.9401 222.484 43.5863 223.279 43.2326 224.163C43.1441 224.428 42.8788 224.693 42.6135 224.516C42.2598 224.428 42.3482 224.074 42.4367 223.809C42.6135 223.014 43.0557 222.307 43.0557 221.423C43.0557 221.246 43.0557 221.158 43.0557 220.981H42.7019Z" fill="#0A1004"/>
<path d="M41.0117 26L11.0117 38C11.0117 38 11.0117 57.5 13.5117 60C16.0117 62.5 20.0117 64 22.0107 64C24.0098 64 24.5117 57.5 24.5117 57.5L49.0117 52.5L54.0117 39L41.0117 26Z" fill="#0ABAED"/>
<mask id="path-33-outside-1_2394_3543" maskUnits="userSpaceOnUse" x="19.1953" y="26" width="21" height="26" fill="black">
<rect fill="white" x="19.1953" y="26" width="21" height="26"/>
<path d="M24.2193 49.152C23.7393 49.2 23.4513 49.056 23.2593 48.624C23.1153 48.24 23.1633 47.952 23.4033 47.568C23.7393 47.04 24.3633 47.088 24.9873 47.04L24.8913 46.8C24.6993 46.416 24.5073 45.36 24.4593 44.448C24.3633 42.768 24.0753 43.248 24.1713 42.192C24.2193 41.664 24.2193 40.656 24.2193 39.408C24.2193 39.024 24.2193 38.64 24.3153 38.304C24.4593 37.584 24.5073 36.48 24.6513 35.52C24.6993 35.184 24.6993 34.752 24.6993 34.608L24.6513 34.368L24.1233 35.184C24.0273 35.328 23.7393 35.664 23.5473 35.856C22.7313 36.672 21.8193 36.816 21.6753 36.144C21.5793 35.76 22.0113 34.608 22.4433 34.176L22.9233 33.6L23.7873 32.448C24.3633 31.68 24.9393 30.72 24.9393 30.48C24.9393 30.144 25.1793 29.424 25.3713 29.136C25.4673 28.944 25.6593 28.8 25.8033 28.704C26.1393 28.512 26.7153 28.512 27.0513 28.656C27.5313 28.848 27.7233 29.04 28.1073 29.856C28.4913 30.672 28.5393 30.96 28.6353 31.92C28.6833 32.352 28.7793 32.688 28.8753 32.88C29.0673 33.36 29.0673 33.936 28.8753 34.416C28.7313 34.752 28.7313 34.848 28.7793 35.472C28.7793 35.952 28.7793 36.24 28.7313 36.432C28.6833 36.576 28.6353 37.056 28.6353 37.68C28.6353 38.448 28.5873 38.784 28.4913 39.072C28.3953 39.408 28.3953 39.552 28.4433 39.84C28.5393 40.32 28.5393 40.704 28.3953 41.136C28.2993 41.376 28.2513 41.664 28.2513 41.952L28.2033 42.816C28.1073 43.152 28.1073 43.344 28.2033 43.728C28.3473 44.352 28.3473 44.832 28.2033 45.216C28.1553 45.36 28.0593 45.744 28.0113 46.032C27.9633 46.32 27.8673 46.704 27.7713 46.896C27.5793 47.232 27.5793 47.28 28.1553 47.424C28.6353 47.568 28.8273 47.76 28.8273 48.144C28.8273 48.816 28.2033 49.008 25.7553 49.104L24.2193 49.152ZM32.5162 49.152C32.0362 49.2 31.7482 49.056 31.5562 48.624C31.4122 48.24 31.4602 47.952 31.7002 47.568C32.0362 47.04 32.6602 47.088 33.2842 47.04L33.1882 46.8C32.9962 46.416 32.8042 45.36 32.7562 44.448C32.6602 42.768 32.3722 43.248 32.4682 42.192C32.5162 41.664 32.5162 40.656 32.5162 39.408C32.5162 39.024 32.5162 38.64 32.6122 38.304C32.7562 37.584 32.8042 36.48 32.9482 35.52C32.9962 35.184 32.9962 34.752 32.9962 34.608L32.9482 34.368L32.4202 35.184C32.3242 35.328 32.0362 35.664 31.8442 35.856C31.0282 36.672 30.1162 36.816 29.9722 36.144C29.8762 35.76 30.3082 34.608 30.7402 34.176L31.2202 33.6L32.0842 32.448C32.6602 31.68 33.2362 30.72 33.2362 30.48C33.2362 30.144 33.4762 29.424 33.6682 29.136C33.7642 28.944 33.9562 28.8 34.1002 28.704C34.4362 28.512 35.0122 28.512 35.3482 28.656C35.8282 28.848 36.0202 29.04 36.4042 29.856C36.7882 30.672 36.8362 30.96 36.9322 31.92C36.9802 32.352 37.0762 32.688 37.1722 32.88C37.3642 33.36 37.3642 33.936 37.1722 34.416C37.0282 34.752 37.0282 34.848 37.0762 35.472C37.0762 35.952 37.0762 36.24 37.0282 36.432C36.9802 36.576 36.9322 37.056 36.9322 37.68C36.9322 38.448 36.8842 38.784 36.7882 39.072C36.6922 39.408 36.6922 39.552 36.7402 39.84C36.8362 40.32 36.8362 40.704 36.6922 41.136C36.5962 41.376 36.5482 41.664 36.5482 41.952L36.5002 42.816C36.4042 43.152 36.4042 43.344 36.5002 43.728C36.6442 44.352 36.6442 44.832 36.5002 45.216C36.4522 45.36 36.3562 45.744 36.3082 46.032C36.2602 46.32 36.1642 46.704 36.0682 46.896C35.8762 47.232 35.8762 47.28 36.4522 47.424C36.9322 47.568 37.1242 47.76 37.1242 48.144C37.1242 48.816 36.5002 49.008 34.0522 49.104L32.5162 49.152Z"/>
</mask>
<path d="M24.2193 49.152C23.7393 49.2 23.4513 49.056 23.2593 48.624C23.1153 48.24 23.1633 47.952 23.4033 47.568C23.7393 47.04 24.3633 47.088 24.9873 47.04L24.8913 46.8C24.6993 46.416 24.5073 45.36 24.4593 44.448C24.3633 42.768 24.0753 43.248 24.1713 42.192C24.2193 41.664 24.2193 40.656 24.2193 39.408C24.2193 39.024 24.2193 38.64 24.3153 38.304C24.4593 37.584 24.5073 36.48 24.6513 35.52C24.6993 35.184 24.6993 34.752 24.6993 34.608L24.6513 34.368L24.1233 35.184C24.0273 35.328 23.7393 35.664 23.5473 35.856C22.7313 36.672 21.8193 36.816 21.6753 36.144C21.5793 35.76 22.0113 34.608 22.4433 34.176L22.9233 33.6L23.7873 32.448C24.3633 31.68 24.9393 30.72 24.9393 30.48C24.9393 30.144 25.1793 29.424 25.3713 29.136C25.4673 28.944 25.6593 28.8 25.8033 28.704C26.1393 28.512 26.7153 28.512 27.0513 28.656C27.5313 28.848 27.7233 29.04 28.1073 29.856C28.4913 30.672 28.5393 30.96 28.6353 31.92C28.6833 32.352 28.7793 32.688 28.8753 32.88C29.0673 33.36 29.0673 33.936 28.8753 34.416C28.7313 34.752 28.7313 34.848 28.7793 35.472C28.7793 35.952 28.7793 36.24 28.7313 36.432C28.6833 36.576 28.6353 37.056 28.6353 37.68C28.6353 38.448 28.5873 38.784 28.4913 39.072C28.3953 39.408 28.3953 39.552 28.4433 39.84C28.5393 40.32 28.5393 40.704 28.3953 41.136C28.2993 41.376 28.2513 41.664 28.2513 41.952L28.2033 42.816C28.1073 43.152 28.1073 43.344 28.2033 43.728C28.3473 44.352 28.3473 44.832 28.2033 45.216C28.1553 45.36 28.0593 45.744 28.0113 46.032C27.9633 46.32 27.8673 46.704 27.7713 46.896C27.5793 47.232 27.5793 47.28 28.1553 47.424C28.6353 47.568 28.8273 47.76 28.8273 48.144C28.8273 48.816 28.2033 49.008 25.7553 49.104L24.2193 49.152ZM32.5162 49.152C32.0362 49.2 31.7482 49.056 31.5562 48.624C31.4122 48.24 31.4602 47.952 31.7002 47.568C32.0362 47.04 32.6602 47.088 33.2842 47.04L33.1882 46.8C32.9962 46.416 32.8042 45.36 32.7562 44.448C32.6602 42.768 32.3722 43.248 32.4682 42.192C32.5162 41.664 32.5162 40.656 32.5162 39.408C32.5162 39.024 32.5162 38.64 32.6122 38.304C32.7562 37.584 32.8042 36.48 32.9482 35.52C32.9962 35.184 32.9962 34.752 32.9962 34.608L32.9482 34.368L32.4202 35.184C32.3242 35.328 32.0362 35.664 31.8442 35.856C31.0282 36.672 30.1162 36.816 29.9722 36.144C29.8762 35.76 30.3082 34.608 30.7402 34.176L31.2202 33.6L32.0842 32.448C32.6602 31.68 33.2362 30.72 33.2362 30.48C33.2362 30.144 33.4762 29.424 33.6682 29.136C33.7642 28.944 33.9562 28.8 34.1002 28.704C34.4362 28.512 35.0122 28.512 35.3482 28.656C35.8282 28.848 36.0202 29.04 36.4042 29.856C36.7882 30.672 36.8362 30.96 36.9322 31.92C36.9802 32.352 37.0762 32.688 37.1722 32.88C37.3642 33.36 37.3642 33.936 37.1722 34.416C37.0282 34.752 37.0282 34.848 37.0762 35.472C37.0762 35.952 37.0762 36.24 37.0282 36.432C36.9802 36.576 36.9322 37.056 36.9322 37.68C36.9322 38.448 36.8842 38.784 36.7882 39.072C36.6922 39.408 36.6922 39.552 36.7402 39.84C36.8362 40.32 36.8362 40.704 36.6922 41.136C36.5962 41.376 36.5482 41.664 36.5482 41.952L36.5002 42.816C36.4042 43.152 36.4042 43.344 36.5002 43.728C36.6442 44.352 36.6442 44.832 36.5002 45.216C36.4522 45.36 36.3562 45.744 36.3082 46.032C36.2602 46.32 36.1642 46.704 36.0682 46.896C35.8762 47.232 35.8762 47.28 36.4522 47.424C36.9322 47.568 37.1242 47.76 37.1242 48.144C37.1242 48.816 36.5002 49.008 34.0522 49.104L32.5162 49.152Z" fill="white"/>
<path d="M24.2193 49.152L24.1568 47.153L24.0884 47.1551L24.0203 47.1619L24.2193 49.152ZM23.2593 48.624L21.3867 49.3262L21.4075 49.3819L21.4317 49.4363L23.2593 48.624ZM23.4033 47.568L21.716 46.4942L21.7116 46.5011L21.7073 46.508L23.4033 47.568ZM24.9873 47.04L25.1407 49.0341L27.8555 48.8253L26.8443 46.2972L24.9873 47.04ZM24.8913 46.8L26.7483 46.0572L26.7174 45.98L26.6802 45.9056L24.8913 46.8ZM24.4593 44.448L26.4566 44.3429L26.4561 44.3339L24.4593 44.448ZM24.1713 42.192L26.1631 42.3731H26.1631L24.1713 42.192ZM24.3153 38.304L26.2384 38.8534L26.2606 38.7756L26.2765 38.6962L24.3153 38.304ZM24.6513 35.52L26.6292 35.8167L26.6312 35.8028L24.6513 35.52ZM24.6993 34.608H26.6993V34.41L26.6605 34.2158L24.6993 34.608ZM24.6513 34.368L26.6125 33.9758L25.6469 29.1478L22.9722 33.2815L24.6513 34.368ZM24.1233 35.184L25.7874 36.2934L25.795 36.282L25.8025 36.2705L24.1233 35.184ZM23.5473 35.856L22.1331 34.4418L22.1331 34.4418L23.5473 35.856ZM21.6753 36.144L23.6309 35.7249L23.6238 35.6918L23.6156 35.6589L21.6753 36.144ZM22.4433 34.176L23.8575 35.5902L23.9217 35.5261L23.9798 35.4564L22.4433 34.176ZM22.9233 33.6L24.4598 34.8804L24.4926 34.841L24.5233 34.8L22.9233 33.6ZM23.7873 32.448L25.3873 33.648H25.3873L23.7873 32.448ZM25.3713 29.136L27.0354 30.2454L27.1045 30.1418L27.1602 30.0304L25.3713 29.136ZM25.8033 28.704L24.811 26.9675L24.7512 27.0017L24.6939 27.0399L25.8033 28.704ZM27.0513 28.656L26.2635 30.4943L26.2859 30.5039L26.3085 30.513L27.0513 28.656ZM28.6353 31.92L26.6452 32.119L26.6463 32.1299L26.6475 32.1409L28.6353 31.92ZM28.8753 32.88L30.7323 32.1372L30.7014 32.06L30.6642 31.9856L28.8753 32.88ZM28.8753 34.416L30.7136 35.2038L30.7232 35.1814L30.7323 35.1588L28.8753 34.416ZM28.7793 35.472H30.7793V35.3952L30.7734 35.3186L28.7793 35.472ZM28.7313 36.432L30.6287 37.0645L30.653 36.9916L30.6716 36.9171L28.7313 36.432ZM28.4913 39.072L26.5939 38.4395L26.5802 38.4808L26.5683 38.5226L28.4913 39.072ZM28.4433 39.84L26.4705 40.1688L26.4758 40.2006L26.4822 40.2322L28.4433 39.84ZM28.3953 41.136L30.2523 41.8788L30.2741 41.8242L30.2927 41.7685L28.3953 41.136ZM28.2513 41.952L30.2482 42.0629L30.2513 42.0075V41.952H28.2513ZM28.2033 42.816L30.1264 43.3654L30.1878 43.1503L30.2002 42.9269L28.2033 42.816ZM28.2033 43.728L30.1521 43.2783L30.148 43.2606L30.1436 43.2429L28.2033 43.728ZM28.2033 45.216L26.3307 44.5138L26.3177 44.5484L26.3059 44.5835L28.2033 45.216ZM27.7713 46.896L29.5078 47.8883L29.5353 47.8401L29.5602 47.7904L27.7713 46.896ZM28.1553 47.424L28.73 45.5083L28.6855 45.495L28.6404 45.4837L28.1553 47.424ZM25.7553 49.104L25.8178 51.103L25.8257 51.1028L25.8337 51.1025L25.7553 49.104ZM24.0203 47.1619C23.9958 47.1644 24.2526 47.131 24.5795 47.3071C24.9303 47.4959 25.0654 47.7633 25.0869 47.8117L21.4317 49.4363C21.6452 49.9167 22.0204 50.4721 22.6831 50.8289C23.322 51.173 23.9628 51.1876 24.4183 51.1421L24.0203 47.1619ZM25.132 47.9218C25.1486 47.966 25.2012 48.1411 25.1672 48.3788C25.1372 48.5891 25.0602 48.6905 25.0993 48.628L21.7073 46.508C21.5064 46.8295 21.2854 47.2669 21.2074 47.8132C21.1254 48.3869 21.2261 48.898 21.3867 49.3262L25.132 47.9218ZM25.0906 48.6418C25.0527 48.7013 25.003 48.7646 24.9404 48.8258C24.8779 48.8869 24.8117 48.937 24.7468 48.9766C24.6194 49.0544 24.5227 49.0761 24.5122 49.0784C24.5081 49.0792 24.5415 49.0721 24.6621 49.0637C24.7209 49.0596 24.781 49.0564 24.8651 49.0517C24.9429 49.0474 25.0396 49.0419 25.1407 49.0341L24.8339 45.0459C24.7461 45.0526 24.1165 45.0709 23.6625 45.1696C23.0498 45.3028 22.2582 45.6422 21.716 46.4942L25.0906 48.6418ZM26.8443 46.2972L26.7483 46.0572L23.0344 47.5428L23.1304 47.7828L26.8443 46.2972ZM26.6802 45.9056C26.7187 45.9827 26.7115 45.991 26.6787 45.8711C26.6517 45.7723 26.6201 45.6338 26.5886 45.4618C26.5253 45.1159 26.4758 44.7091 26.4565 44.3429L22.4621 44.5531C22.4908 45.0989 22.5614 45.6761 22.654 46.1822C22.7339 46.6187 22.8684 47.2263 23.1025 47.6944L26.6802 45.9056ZM26.4561 44.3339C26.4286 43.8543 26.3849 43.4804 26.326 43.1662C26.2636 42.8338 26.1911 42.6088 26.1458 42.469C26.1088 42.355 26.1387 42.4343 26.1491 42.5241C26.1565 42.5883 26.1449 42.5737 26.1631 42.3731L22.1795 42.0109C22.1498 42.3383 22.1381 42.6597 22.1755 42.9834C22.2159 43.3327 22.3058 43.595 22.3409 43.703C22.3675 43.7852 22.3791 43.8212 22.3946 43.9043C22.4137 44.0056 22.442 44.2017 22.4626 44.5621L26.4561 44.3339ZM26.1631 42.3731C26.2216 41.7293 26.2193 40.5978 26.2193 39.408H22.2193C22.2193 40.7142 22.217 41.5987 22.1795 42.0109L26.1631 42.3731ZM26.2193 39.408C26.2193 39.2038 26.22 39.0773 26.2272 38.9668C26.234 38.8607 26.2437 38.8349 26.2384 38.8534L22.3923 37.7546C22.2047 38.4109 22.2193 39.0928 22.2193 39.408H26.2193ZM26.2765 38.6962C26.3714 38.2218 26.4276 37.6644 26.4736 37.1986C26.5238 36.6902 26.5665 36.2346 26.6292 35.8167L22.6734 35.2233C22.5921 35.7654 22.5388 36.3418 22.493 36.8054C22.443 37.3116 22.4033 37.6662 22.3542 37.9118L26.2765 38.6962ZM26.6312 35.8028C26.7026 35.303 26.6993 34.7291 26.6993 34.608H22.6993C22.6993 34.6766 22.6992 34.7906 22.6946 34.9206C22.6896 35.0599 22.6808 35.1713 22.6714 35.2372L26.6312 35.8028ZM26.6605 34.2158L26.6125 33.9758L22.6902 34.7602L22.7382 35.0002L26.6605 34.2158ZM22.9722 33.2815L22.4442 34.0975L25.8025 36.2705L26.3305 35.4545L22.9722 33.2815ZM22.4592 34.0746C22.4811 34.0417 22.4853 34.039 22.4539 34.0786C22.4289 34.11 22.3942 34.1521 22.3528 34.2004C22.2654 34.3024 22.1813 34.3936 22.1331 34.4418L24.9615 37.2702C25.2005 37.0312 25.5894 36.5905 25.7874 36.2934L22.4592 34.0746ZM22.1331 34.4418C21.9023 34.6725 21.837 34.6151 22.0526 34.5816C22.1758 34.5625 22.5201 34.5384 22.912 34.7641C23.3541 35.0188 23.5662 35.4232 23.6309 35.7249L19.7197 36.5631C19.8564 37.2008 20.2365 37.8392 20.9156 38.2304C21.5446 38.5926 22.1948 38.6075 22.666 38.5343C23.5777 38.3929 24.3763 37.8555 24.9615 37.2702L22.1331 34.4418ZM23.6156 35.6589C23.6443 35.7738 23.6547 35.8675 23.6588 35.9284C23.663 35.991 23.6619 36.0387 23.6605 36.0672C23.6578 36.1212 23.652 36.1437 23.6552 36.1275C23.6578 36.1147 23.6644 36.086 23.6775 36.0424C23.6903 35.9997 23.7072 35.95 23.728 35.896C23.771 35.7841 23.8205 35.6804 23.8645 35.6032C23.8859 35.5658 23.9004 35.5444 23.9056 35.5372C23.9125 35.5276 23.8977 35.55 23.8575 35.5902L21.0291 32.7618C20.5193 33.2716 20.1811 33.9752 19.9946 34.46C19.8889 34.7348 19.7937 35.0389 19.7329 35.343C19.6872 35.5715 19.5983 36.0821 19.735 36.6291L23.6156 35.6589ZM23.9798 35.4564L24.4598 34.8804L21.3869 32.3196L20.9069 32.8956L23.9798 35.4564ZM24.5233 34.8L25.3873 33.648L22.1873 31.248L21.3233 32.4L24.5233 34.8ZM25.3873 33.648C25.7172 33.2081 26.0465 32.715 26.3017 32.2825C26.4279 32.0687 26.5535 31.8402 26.6545 31.6227C26.7044 31.5151 26.7621 31.3807 26.8112 31.2334C26.8467 31.1266 26.9393 30.8386 26.9393 30.48H22.9393C22.9393 30.3085 22.9634 30.1785 22.9769 30.1153C22.9919 30.045 23.0077 29.9946 23.0157 29.9706C23.031 29.9247 23.0393 29.9106 23.0262 29.9388C23.0011 29.9928 22.9467 30.0973 22.8569 30.2495C22.6802 30.549 22.4334 30.9199 22.1873 31.248L25.3873 33.648ZM26.9393 30.48C26.9393 30.5502 26.9336 30.5936 26.9327 30.6001C26.9314 30.61 26.9315 30.6061 26.9356 30.587C26.9441 30.5472 26.9605 30.4845 26.9851 30.4092C27.0094 30.3345 27.0348 30.2683 27.0554 30.2213C27.0602 30.2103 27.0641 30.2017 27.0671 30.1954C27.0701 30.1891 27.0717 30.1861 27.0717 30.1861C27.0716 30.1862 27.071 30.1874 27.0698 30.1896C27.0686 30.1917 27.0667 30.1951 27.0641 30.1997C27.0591 30.2083 27.0496 30.2241 27.0354 30.2454L23.7072 28.0266C23.4597 28.3978 23.2846 28.8543 23.1816 29.1708C23.0845 29.4691 22.9393 29.9821 22.9393 30.48H26.9393ZM27.1602 30.0304C27.0642 30.2223 26.9553 30.3264 26.9259 30.3536C26.8921 30.3848 26.8774 30.3917 26.9127 30.3681L24.6939 27.0399C24.5395 27.1428 23.9357 27.535 23.5825 28.2416L27.1602 30.0304ZM26.7956 30.4405C26.6733 30.5104 26.5807 30.5352 26.5455 30.5433C26.5059 30.5525 26.4845 30.5532 26.4799 30.5533C26.4747 30.5534 26.4639 30.5536 26.442 30.55C26.425 30.5473 26.3606 30.5359 26.2635 30.4943L27.8391 26.8177C27.3386 26.6032 26.8077 26.5433 26.3747 26.5547C25.9493 26.5659 25.3623 26.6525 24.811 26.9675L26.7956 30.4405ZM26.3085 30.513C26.3698 30.5375 26.3487 30.5334 26.2973 30.5011C26.2697 30.4836 26.238 30.461 26.2053 30.4334C26.1726 30.4058 26.1461 30.3793 26.1262 30.3571C26.0885 30.3151 26.0872 30.3025 26.122 30.362C26.1582 30.4239 26.2133 30.5283 26.2977 30.7076L29.917 29.0044C29.718 28.5817 29.4712 28.096 29.1045 27.6869C28.6656 27.1974 28.1877 26.9565 27.7941 26.799L26.3085 30.513ZM26.2977 30.7076C26.4658 31.0649 26.5106 31.2032 26.5367 31.3097C26.5702 31.4465 26.5956 31.6222 26.6452 32.119L30.6254 31.721C30.5791 31.2578 30.5324 30.8095 30.4219 30.3583C30.304 29.8768 30.1328 29.4631 29.917 29.0044L26.2977 30.7076ZM26.6475 32.1409C26.7106 32.7088 26.8482 33.2979 27.0865 33.7744L30.6642 31.9856C30.6833 32.0237 30.6898 32.0435 30.688 32.0384C30.6868 32.0351 30.6812 32.0186 30.6733 31.9881C30.6572 31.926 30.6375 31.8285 30.6231 31.6991L26.6475 32.1409ZM27.0184 33.6228C27.0153 33.6152 27.0159 33.6145 27.0171 33.6208C27.0182 33.6271 27.0193 33.6366 27.0193 33.648C27.0193 33.6594 27.0182 33.6689 27.0171 33.6752C27.0159 33.6815 27.0153 33.6807 27.0184 33.6732L30.7323 35.1588C31.115 34.202 31.115 33.094 30.7323 32.1372L27.0184 33.6228ZM27.037 33.6282C26.9325 33.872 26.8005 34.2108 26.7622 34.6699C26.734 35.009 26.7656 35.3703 26.7852 35.6254L30.7734 35.3186C30.7675 35.2415 30.7628 35.1788 30.7591 35.1247C30.7554 35.0705 30.7531 35.0317 30.7519 35.0028C30.7513 34.9888 30.7509 34.9786 30.7508 34.9715C30.7507 34.968 30.7506 34.9654 30.7506 34.9637C30.7506 34.9619 30.7506 34.9611 30.7506 34.9612C30.7506 34.9612 30.7506 34.965 30.7503 34.9719C30.75 34.9789 30.7495 34.9891 30.7484 35.0021C30.7461 35.0292 30.742 35.0632 30.7347 35.1018C30.7275 35.1405 30.7189 35.1744 30.7108 35.2017C30.7032 35.2276 30.6974 35.2428 30.6973 35.243C30.6973 35.2431 30.6984 35.2402 30.7011 35.2335C30.7039 35.2267 30.7079 35.2171 30.7136 35.2038L27.037 33.6282ZM26.7793 35.472C26.7793 35.7263 26.779 35.8743 26.7748 35.9831C26.7729 36.0326 26.7709 36.0512 26.771 36.0503C26.7711 36.0497 26.7752 36.0102 26.791 35.9469L30.6716 36.9171C30.7953 36.4224 30.7793 35.8129 30.7793 35.472H26.7793ZM26.8339 35.7995C26.7243 36.1285 26.6888 36.5105 26.6722 36.7099C26.649 36.9881 26.6353 37.32 26.6353 37.68H30.6353C30.6353 37.416 30.6456 37.1959 30.6584 37.0421C30.6649 36.9644 30.6709 36.9168 30.6739 36.8967C30.6754 36.8868 30.6747 36.8934 30.6707 36.9124C30.668 36.9252 30.6558 36.9831 30.6287 37.0645L26.8339 35.7995ZM26.6353 37.68C26.6353 38.0313 26.6239 38.2243 26.6115 38.3351C26.6059 38.3861 26.6008 38.4121 26.5987 38.4219C26.597 38.43 26.5959 38.4337 26.5939 38.4395L30.3887 39.7045C30.5889 39.1038 30.6353 38.5064 30.6353 37.68H26.6353ZM26.5683 38.5226C26.5016 38.7557 26.4334 39.0396 26.4161 39.3689C26.3986 39.7013 26.4389 39.9789 26.4705 40.1688L30.4161 39.5112C30.4079 39.4619 30.408 39.4555 30.4093 39.4692C30.411 39.4893 30.4132 39.5289 30.4105 39.5791C30.4079 39.6286 30.402 39.6639 30.3994 39.6768C30.3978 39.6854 30.4 39.6718 30.4144 39.6214L26.5683 38.5226ZM26.4822 40.2322C26.5104 40.3733 26.5106 40.4324 26.5101 40.4489C26.5099 40.4567 26.5093 40.4609 26.5086 40.4647C26.5079 40.4688 26.5055 40.4808 26.4979 40.5035L30.2927 41.7685C30.5742 40.9239 30.5494 40.1724 30.4045 39.4478L26.4822 40.2322ZM26.5384 40.3932C26.3305 40.9129 26.2513 41.4609 26.2513 41.952H30.2513C30.2513 41.9172 30.2544 41.8881 30.2577 41.8687C30.2593 41.8596 30.2605 41.8554 30.2603 41.8561C30.2601 41.8567 30.258 41.8645 30.2523 41.8788L26.5384 40.3932ZM26.2544 41.8411L26.2064 42.7051L30.2002 42.9269L30.2482 42.0629L26.2544 41.8411ZM26.2803 42.2666C26.2037 42.5344 26.1313 42.863 26.1313 43.254C26.1313 43.6296 26.1986 43.9554 26.263 44.2131L30.1436 43.2429C30.1284 43.182 30.1252 43.161 30.1256 43.1638C30.1267 43.1707 30.1313 43.204 30.1313 43.254C30.1313 43.3056 30.1264 43.3495 30.1215 43.3784C30.1175 43.4024 30.1156 43.4031 30.1264 43.3654L26.2803 42.2666ZM26.2545 44.1777C26.3026 44.3858 26.3113 44.5064 26.3113 44.562C26.3113 44.6116 26.3045 44.5836 26.3307 44.5138L30.076 45.9182C30.4155 45.013 30.3387 44.0869 30.1521 43.2783L26.2545 44.1777ZM26.3059 44.5835C26.2186 44.8457 26.1 45.3341 26.0385 45.7032L29.9841 46.3608C29.9979 46.278 30.0228 46.1586 30.0521 46.0367C30.0661 45.9785 30.0792 45.9273 30.0899 45.888C30.1022 45.8426 30.1059 45.8327 30.1007 45.8485L26.3059 44.5835ZM26.0385 45.7032C26.0251 45.7839 26.0028 45.8881 25.9781 45.9801C25.966 46.0248 25.9566 46.0546 25.9516 46.0692C25.9442 46.0906 25.9528 46.0609 25.9825 46.0016L29.5602 47.7904C29.7967 47.3174 29.93 46.6854 29.9841 46.3608L26.0385 45.7032ZM26.0348 45.9037C26.0088 45.9492 25.8641 46.1911 25.7719 46.4675C25.6606 46.8017 25.499 47.5731 26.0112 48.3414C26.4038 48.9303 26.9735 49.1432 27.1074 49.1947C27.3124 49.2736 27.5288 49.3289 27.6702 49.3643L28.6404 45.4837C28.4939 45.4471 28.4942 45.4424 28.5433 45.4613C28.5735 45.4729 28.6755 45.5133 28.8038 45.5949C28.9339 45.6777 29.1518 45.8413 29.3394 46.1226C29.8036 46.8189 29.6421 47.5063 29.5667 47.7325C29.5105 47.9009 29.4378 48.0108 29.5078 47.8883L26.0348 45.9037ZM27.5806 49.3397C27.7098 49.3784 27.4729 49.3371 27.2194 49.0695C27.0759 48.918 26.9654 48.7348 26.8983 48.5394C26.8354 48.3563 26.8273 48.2114 26.8273 48.144H30.8273C30.8273 47.5875 30.6728 46.8987 30.1232 46.3185C29.6537 45.8229 29.0808 45.6136 28.73 45.5083L27.5806 49.3397ZM26.8273 48.144C26.8273 47.9843 26.8737 47.6151 27.1667 47.2699C27.416 46.9761 27.668 46.9138 27.6142 46.9306C27.5693 46.9446 27.4138 46.982 27.0606 47.0188C26.7213 47.0542 26.2731 47.0822 25.6769 47.1055L25.8337 51.1025C27.0085 51.0564 28.0468 50.9856 28.8045 50.7494C29.2126 50.6222 29.7736 50.3799 30.2164 49.8581C30.7029 49.2849 30.8273 48.6397 30.8273 48.144H26.8273ZM25.6928 47.105L24.1568 47.153L24.2818 51.151L25.8178 51.103L25.6928 47.105ZM32.5162 49.152L32.4537 47.153L32.3853 47.1551L32.3172 47.1619L32.5162 49.152ZM31.5562 48.624L29.6835 49.3262L29.7044 49.3819L29.7286 49.4363L31.5562 48.624ZM31.7002 47.568L30.0129 46.4942L30.0085 46.5011L30.0042 46.508L31.7002 47.568ZM33.2842 47.04L33.4376 49.0341L36.1524 48.8253L35.1411 46.2972L33.2842 47.04ZM33.1882 46.8L35.0451 46.0572L35.0142 45.98L34.977 45.9056L33.1882 46.8ZM32.7562 44.448L34.7534 44.3429L34.7529 44.3339L32.7562 44.448ZM32.4682 42.192L34.46 42.3731L32.4682 42.192ZM32.6122 38.304L34.5352 38.8534L34.5575 38.7756L34.5733 38.6962L32.6122 38.304ZM32.9482 35.52L34.9261 35.8167L34.9281 35.8028L32.9482 35.52ZM32.9962 34.608H34.9962V34.41L34.9573 34.2158L32.9962 34.608ZM32.9482 34.368L34.9093 33.9758L33.9438 29.1478L31.269 33.2815L32.9482 34.368ZM32.4202 35.184L34.0843 36.2934L34.0919 36.282L34.0993 36.2705L32.4202 35.184ZM31.8442 35.856L30.43 34.4418L30.43 34.4418L31.8442 35.856ZM29.9722 36.144L31.9278 35.7249L31.9207 35.6918L31.9125 35.6589L29.9722 36.144ZM30.7402 34.176L32.1544 35.5902L32.2186 35.5261L32.2766 35.4564L30.7402 34.176ZM31.2202 33.6L32.7566 34.8804L32.7894 34.841L32.8202 34.8L31.2202 33.6ZM32.0842 32.448L33.6842 33.648H33.6842L32.0842 32.448ZM33.6682 29.136L35.3323 30.2454L35.4014 30.1418L35.457 30.0304L33.6682 29.136ZM34.1002 28.704L33.1079 26.9675L33.0481 27.0017L32.9908 27.0399L34.1002 28.704ZM35.3482 28.656L34.5604 30.4943L34.5828 30.5039L34.6054 30.513L35.3482 28.656ZM36.9322 31.92L34.9421 32.119L34.9432 32.1299L34.9444 32.1409L36.9322 31.92ZM37.1722 32.88L39.0291 32.1372L38.9982 32.06L38.961 31.9856L37.1722 32.88ZM37.1722 34.416L39.0105 35.2038L39.0201 35.1814L39.0291 35.1588L37.1722 34.416ZM37.0762 35.472H39.0762V35.3952L39.0703 35.3186L37.0762 35.472ZM37.0282 36.432L38.9256 37.0645L38.9498 36.9916L38.9685 36.9171L37.0282 36.432ZM36.7882 39.072L34.8908 38.4395L34.8771 38.4808L34.8651 38.5226L36.7882 39.072ZM36.7402 39.84L34.7674 40.1688L34.7727 40.2006L34.779 40.2322L36.7402 39.84ZM36.6922 41.136L38.5491 41.8788L38.571 41.8242L38.5896 41.7685L36.6922 41.136ZM36.5482 41.952L38.5451 42.0629L38.5482 42.0075V41.952H36.5482ZM36.5002 42.816L38.4232 43.3654L38.4847 43.1503L38.4971 42.9269L36.5002 42.816ZM36.5002 43.728L38.449 43.2783L38.4449 43.2606L38.4405 43.2429L36.5002 43.728ZM36.5002 45.216L34.6275 44.5138L34.6145 44.5484L34.6028 44.5835L36.5002 45.216ZM36.0682 46.896L37.8047 47.8883L37.8322 47.8401L37.857 47.7904L36.0682 46.896ZM36.4522 47.424L37.0269 45.5083L36.9824 45.495L36.9373 45.4837L36.4522 47.424ZM34.0522 49.104L34.1147 51.103L34.1226 51.1028L34.1306 51.1025L34.0522 49.104ZM32.3172 47.1619C32.2927 47.1644 32.5495 47.131 32.8764 47.3071C33.2271 47.4959 33.3623 47.7633 33.3838 47.8117L29.7286 49.4363C29.9421 49.9167 30.3172 50.4721 30.98 50.8289C31.6189 51.173 32.2597 51.1876 32.7152 51.1421L32.3172 47.1619ZM33.4288 47.9218C33.4454 47.966 33.4981 48.1411 33.4641 48.3788C33.4341 48.5891 33.3571 48.6905 33.3962 48.628L30.0042 46.508C29.8033 46.8295 29.5823 47.2669 29.5043 47.8132C29.4223 48.3869 29.5229 48.898 29.6835 49.3262L33.4288 47.9218ZM33.3875 48.6418C33.3496 48.7013 33.2998 48.7646 33.2373 48.8258C33.1748 48.8869 33.1086 48.937 33.0437 48.9766C32.9162 49.0544 32.8196 49.0761 32.809 49.0784C32.805 49.0792 32.8384 49.0721 32.959 49.0637C33.0177 49.0596 33.0778 49.0564 33.162 49.0517C33.2398 49.0474 33.3365 49.0419 33.4376 49.0341L33.1308 45.0459C33.043 45.0526 32.4134 45.0709 31.9593 45.1696C31.3467 45.3028 30.555 45.6422 30.0129 46.4942L33.3875 48.6418ZM35.1411 46.2972L35.0451 46.0572L31.3312 47.5428L31.4272 47.7828L35.1411 46.2972ZM34.977 45.9056C35.0156 45.9827 35.0084 45.991 34.9756 45.8711C34.9485 45.7723 34.917 45.6338 34.8855 45.4618C34.8222 45.1159 34.7727 44.7091 34.7534 44.3429L30.759 44.5531C30.7877 45.0989 30.8582 45.6761 30.9509 46.1822C31.0308 46.6187 31.1653 47.2263 31.3993 47.6944L34.977 45.9056ZM34.7529 44.3339C34.7255 43.8543 34.6818 43.4804 34.6229 43.1662C34.5604 42.8338 34.488 42.6088 34.4426 42.469C34.4057 42.355 34.4356 42.4343 34.446 42.5241C34.4534 42.5883 34.4417 42.5737 34.46 42.3731L30.4764 42.0109C30.4466 42.3383 30.435 42.6597 30.4724 42.9834C30.5128 43.3327 30.6027 43.595 30.6377 43.703C30.6644 43.7852 30.6759 43.8212 30.6915 43.9043C30.7106 44.0056 30.7389 44.2017 30.7594 44.5621L34.7529 44.3339ZM34.46 42.3731C34.5185 41.7293 34.5162 40.5978 34.5162 39.408H30.5162C30.5162 40.7142 30.5139 41.5987 30.4764 42.0109L34.46 42.3731ZM34.5162 39.408C34.5162 39.2038 34.5169 39.0773 34.524 38.9668C34.5309 38.8607 34.5405 38.8349 34.5352 38.8534L30.6891 37.7546C30.5016 38.4109 30.5162 39.0928 30.5162 39.408H34.5162ZM34.5733 38.6962C34.6682 38.2218 34.7245 37.6644 34.7705 37.1986C34.8207 36.6902 34.8634 36.2346 34.9261 35.8167L30.9703 35.2233C30.889 35.7654 30.8357 36.3418 30.7899 36.8054C30.7399 37.3116 30.7001 37.6662 30.651 37.9118L34.5733 38.6962ZM34.9281 35.8028C34.9995 35.303 34.9962 34.7291 34.9962 34.608H30.9962C30.9962 34.6766 30.9961 34.7906 30.9915 34.9206C30.9865 35.0599 30.9777 35.1713 30.9683 35.2372L34.9281 35.8028ZM34.9573 34.2158L34.9093 33.9758L30.987 34.7602L31.035 35.0002L34.9573 34.2158ZM31.269 33.2815L30.741 34.0975L34.0993 36.2705L34.6273 35.4545L31.269 33.2815ZM30.7561 34.0746C30.778 34.0417 30.7822 34.039 30.7508 34.0786C30.7258 34.11 30.6911 34.1521 30.6497 34.2004C30.5622 34.3024 30.4782 34.3936 30.43 34.4418L33.2584 37.2702C33.4974 37.0312 33.8863 36.5905 34.0843 36.2934L30.7561 34.0746ZM30.43 34.4418C30.1992 34.6725 30.1338 34.6151 30.3495 34.5816C30.4727 34.5625 30.8169 34.5384 31.2089 34.7641C31.651 35.0188 31.8631 35.4232 31.9278 35.7249L28.0166 36.5631C28.1533 37.2008 28.5334 37.8392 29.2125 38.2304C29.8414 38.5926 30.4917 38.6075 30.9629 38.5343C31.8745 38.3929 32.6732 37.8555 33.2584 37.2702L30.43 34.4418ZM31.9125 35.6589C31.9412 35.7738 31.9516 35.8675 31.9557 35.9284C31.9599 35.991 31.9588 36.0387 31.9574 36.0672C31.9547 36.1212 31.9488 36.1437 31.9521 36.1275C31.9547 36.1147 31.9613 36.086 31.9744 36.0424C31.9872 35.9997 32.0041 35.95 32.0249 35.896C32.0679 35.7841 32.1174 35.6804 32.1614 35.6032C32.1828 35.5658 32.1973 35.5444 32.2025 35.5372C32.2093 35.5276 32.1946 35.55 32.1544 35.5902L29.326 32.7618C28.8162 33.2716 28.478 33.9752 28.2915 34.46C28.1858 34.7348 28.0906 35.0389 28.0298 35.343C27.9841 35.5715 27.8952 36.0821 28.0319 36.6291L31.9125 35.6589ZM32.2766 35.4564L32.7566 34.8804L29.6837 32.3196L29.2037 32.8956L32.2766 35.4564ZM32.8202 34.8L33.6842 33.648L30.4842 31.248L29.6202 32.4L32.8202 34.8ZM33.6842 33.648C34.0141 33.2081 34.3433 32.715 34.5986 32.2825C34.7248 32.0687 34.8504 31.8402 34.9513 31.6227C35.0012 31.5151 35.059 31.3807 35.108 31.2334C35.1436 31.1266 35.2362 30.8386 35.2362 30.48H31.2362C31.2362 30.3085 31.2602 30.1785 31.2737 30.1153C31.2888 30.045 31.3046 29.9946 31.3126 29.9706C31.3279 29.9247 31.3361 29.9106 31.323 29.9388C31.298 29.9928 31.2436 30.0973 31.1538 30.2495C30.977 30.549 30.7303 30.9199 30.4842 31.248L33.6842 33.648ZM35.2362 30.48C35.2362 30.5502 35.2304 30.5936 35.2296 30.6001C35.2283 30.61 35.2284 30.6061 35.2325 30.587C35.241 30.5472 35.2574 30.4845 35.2819 30.4092C35.3062 30.3345 35.3317 30.2683 35.3523 30.2213C35.3571 30.2103 35.361 30.2017 35.364 30.1954C35.367 30.1891 35.3686 30.1861 35.3685 30.1861C35.3685 30.1862 35.3679 30.1874 35.3667 30.1896C35.3655 30.1917 35.3636 30.1951 35.361 30.1997C35.356 30.2083 35.3465 30.2241 35.3323 30.2454L32.0041 28.0266C31.7566 28.3978 31.5815 28.8543 31.4784 29.1708C31.3813 29.4691 31.2362 29.9821 31.2362 30.48H35.2362ZM35.457 30.0304C35.3611 30.2223 35.2522 30.3264 35.2227 30.3536C35.189 30.3848 35.1742 30.3917 35.2096 30.3681L32.9908 27.0399C32.8364 27.1428 32.2326 27.535 31.8793 28.2416L35.457 30.0304ZM35.0925 30.4405C34.9702 30.5104 34.8776 30.5352 34.8424 30.5433C34.8028 30.5525 34.7814 30.5532 34.7768 30.5533C34.7716 30.5534 34.7607 30.5536 34.7389 30.55C34.7219 30.5473 34.6575 30.5359 34.5604 30.4943L36.136 26.8177C35.6355 26.6032 35.1046 26.5433 34.6716 26.5547C34.2462 26.5659 33.6592 26.6525 33.1079 26.9675L35.0925 30.4405ZM34.6054 30.513C34.6667 30.5375 34.6455 30.5334 34.5942 30.5011C34.5666 30.4836 34.5349 30.461 34.5021 30.4334C34.4695 30.4058 34.443 30.3793 34.423 30.3571C34.3854 30.3151 34.3841 30.3025 34.4189 30.362C34.4551 30.4239 34.5102 30.5283 34.5946 30.7076L38.2138 29.0044C38.0149 28.5817 37.7681 28.096 37.4013 27.6869C36.9625 27.1974 36.4845 26.9565 36.091 26.799L34.6054 30.513ZM34.5946 30.7076C34.7627 31.0649 34.8075 31.2032 34.8336 31.3097C34.8671 31.4465 34.8924 31.6222 34.9421 32.119L38.9223 31.721C38.8759 31.2578 38.8293 30.8095 38.7188 30.3583C38.6009 29.8768 38.4297 29.4631 38.2138 29.0044L34.5946 30.7076ZM34.9444 32.1409C35.0075 32.7088 35.1451 33.2979 35.3833 33.7744L38.961 31.9856C38.9801 32.0237 38.9867 32.0435 38.9849 32.0384C38.9837 32.0351 38.9781 32.0186 38.9702 31.9881C38.9541 31.926 38.9343 31.8285 38.92 31.6991L34.9444 32.1409ZM35.3152 33.6228C35.3122 33.6152 35.3128 33.6145 35.3139 33.6208C35.3151 33.6271 35.3162 33.6366 35.3162 33.648C35.3162 33.6594 35.3151 33.6689 35.3139 33.6752C35.3128 33.6815 35.3122 33.6807 35.3152 33.6732L39.0291 35.1588C39.4119 34.202 39.4119 33.094 39.0291 32.1372L35.3152 33.6228ZM35.3339 33.6282C35.2294 33.872 35.0974 34.2108 35.0591 34.6699C35.0308 35.009 35.0625 35.3703 35.0821 35.6254L39.0703 35.3186C39.0644 35.2415 39.0597 35.1788 39.056 35.1247C39.0522 35.0705 39.05 35.0317 39.0487 35.0028C39.0481 34.9888 39.0478 34.9786 39.0476 34.9715C39.0476 34.968 39.0475 34.9654 39.0475 34.9637C39.0475 34.9619 39.0475 34.9611 39.0475 34.9612C39.0475 34.9612 39.0475 34.965 39.0472 34.9719C39.0469 34.9789 39.0464 34.9891 39.0453 35.0021C39.043 35.0292 39.0389 35.0632 39.0316 35.1018C39.0244 35.1405 39.0158 35.1744 39.0077 35.2017C39.0001 35.2276 38.9943 35.2428 38.9942 35.243C38.9941 35.2431 38.9953 35.2402 38.998 35.2335C39.0008 35.2267 39.0048 35.2171 39.0105 35.2038L35.3339 33.6282ZM35.0762 35.472C35.0762 35.7263 35.0759 35.8743 35.0717 35.9831C35.0698 36.0326 35.0678 36.0512 35.0679 36.0503C35.0679 36.0497 35.0721 36.0102 35.0879 35.9469L38.9685 36.9171C39.0922 36.4224 39.0762 35.8129 39.0762 35.472H35.0762ZM35.1308 35.7995C35.0212 36.1285 34.9857 36.5105 34.9691 36.7099C34.9459 36.9881 34.9322 37.32 34.9322 37.68H38.9322C38.9322 37.416 38.9425 37.1959 38.9553 37.0421C38.9618 36.9644 38.9678 36.9168 38.9708 36.8967C38.9723 36.8868 38.9716 36.8934 38.9676 36.9124C38.9649 36.9252 38.9527 36.9831 38.9256 37.0645L35.1308 35.7995ZM34.9322 37.68C34.9322 38.0313 34.9207 38.2243 34.9084 38.3351C34.9028 38.3861 34.8977 38.4121 34.8956 38.4219C34.8939 38.43 34.8928 38.4337 34.8908 38.4395L38.6856 39.7045C38.8858 39.1038 38.9322 38.5064 38.9322 37.68H34.9322ZM34.8651 38.5226C34.7985 38.7557 34.7303 39.0396 34.713 39.3689C34.6955 39.7013 34.7357 39.9789 34.7674 40.1688L38.713 39.5112C38.7048 39.4619 38.7049 39.4555 38.7061 39.4692C38.7079 39.4893 38.7101 39.5289 38.7074 39.5791C38.7048 39.6286 38.6988 39.6639 38.6963 39.6768C38.6946 39.6854 38.6969 39.6718 38.7112 39.6214L34.8651 38.5226ZM34.779 40.2322C34.8072 40.3733 34.8075 40.4324 34.807 40.4489C34.8068 40.4567 34.8062 40.4609 34.8055 40.4647C34.8048 40.4688 34.8024 40.4808 34.7948 40.5035L38.5896 41.7685C38.8711 40.9239 38.8463 40.1724 38.7013 39.4478L34.779 40.2322ZM34.8352 40.3932C34.6274 40.9129 34.5482 41.4609 34.5482 41.952H38.5482C38.5482 41.9172 38.5512 41.8881 38.5546 41.8687C38.5562 41.8596 38.5574 41.8554 38.5572 41.8561C38.557 41.8567 38.5548 41.8645 38.5491 41.8788L34.8352 40.3932ZM34.5513 41.8411L34.5033 42.7051L38.4971 42.9269L38.5451 42.0629L34.5513 41.8411ZM34.5771 42.2666C34.5006 42.5344 34.4282 42.863 34.4282 43.254C34.4282 43.6296 34.4955 43.9554 34.5599 44.2131L38.4405 43.2429C38.4252 43.182 38.4221 43.161 38.4225 43.1638C38.4236 43.1707 38.4282 43.204 38.4282 43.254C38.4282 43.3056 38.4233 43.3495 38.4184 43.3784C38.4144 43.4024 38.4125 43.4031 38.4232 43.3654L34.5771 42.2666ZM34.5514 44.1777C34.5994 44.3858 34.6082 44.5064 34.6082 44.562C34.6082 44.6116 34.6013 44.5836 34.6275 44.5138L38.3728 45.9182C38.7123 45.013 38.6356 44.0869 38.449 43.2783L34.5514 44.1777ZM34.6028 44.5835C34.5154 44.8457 34.3969 45.3341 34.3354 45.7032L38.281 46.3608C38.2948 46.278 38.3197 46.1586 38.349 46.0367C38.3629 45.9785 38.3761 45.9273 38.3868 45.888C38.3991 45.8426 38.4028 45.8327 38.3976 45.8485L34.6028 44.5835ZM34.3354 45.7032C34.3219 45.7839 34.2997 45.8881 34.275 45.9801C34.2629 46.0248 34.2535 46.0546 34.2485 46.0692C34.2411 46.0906 34.2497 46.0609 34.2793 46.0016L37.857 47.7904C38.0936 47.3174 38.2269 46.6854 38.281 46.3608L34.3354 45.7032ZM34.3317 45.9037C34.3057 45.9492 34.161 46.1911 34.0688 46.4675C33.9574 46.8017 33.7959 47.5731 34.3081 48.3414C34.7007 48.9303 35.2704 49.1432 35.4042 49.1947C35.6093 49.2736 35.8256 49.3289 35.9671 49.3643L36.9373 45.4837C36.7907 45.4471 36.7911 45.4424 36.8401 45.4613C36.8704 45.4729 36.9724 45.5133 37.1007 45.5949C37.2307 45.6777 37.4487 45.8413 37.6363 46.1226C38.1005 46.8189 37.9389 47.5063 37.8636 47.7325C37.8074 47.9009 37.7347 48.0108 37.8047 47.8883L34.3317 45.9037ZM35.8775 49.3397C36.0067 49.3784 35.7698 49.3371 35.5163 49.0695C35.3728 48.918 35.2622 48.7348 35.1951 48.5394C35.1322 48.3563 35.1242 48.2114 35.1242 48.144H39.1242C39.1242 47.5875 38.9697 46.8987 38.4201 46.3185C37.9506 45.8229 37.3777 45.6136 37.0269 45.5083L35.8775 49.3397ZM35.1242 48.144C35.1242 47.9843 35.1706 47.6151 35.4636 47.2699C35.7129 46.9761 35.9649 46.9138 35.911 46.9306C35.8662 46.9446 35.7107 46.982 35.3575 47.0188C35.0182 47.0542 34.5699 47.0822 33.9738 47.1055L34.1306 51.1025C35.3054 51.0564 36.3437 50.9856 37.1013 50.7494C37.5095 50.6222 38.0705 50.3799 38.5133 49.8581C38.9998 49.2849 39.1242 48.6397 39.1242 48.144H35.1242ZM33.9897 47.105L32.4537 47.153L32.5787 51.151L34.1147 51.103L33.9897 47.105Z" fill="black" mask="url(#path-33-outside-1_2394_3543)"/>
</svg>
