<svg width="60" height="234" viewBox="0 0 60 234" fill="none" xmlns="http://www.w3.org/2000/svg">
<path d="M31.7483 9.22997C33.1633 9.22997 34.5783 9.49511 35.9048 9.76024C46.2516 11.7929 54.4761 19.0398 58.0134 28.938C61.1971 38.0407 59.7822 47.497 54.2108 55.3625C51.823 58.7208 48.8162 61.6373 45.2789 63.6699C43.1564 64.9072 40.8571 65.791 38.4694 66.498C36.0816 67.205 35.9932 67.1166 34.8435 67.3818C33.6939 67.6469 32.1021 67.4701 32.1021 68.619C32.1905 84.8803 32.2789 101.142 32.3674 117.314C32.5443 149.395 32.7211 181.476 32.9864 213.557C32.9864 213.91 32.9864 214.352 32.9864 214.882C33.517 214.529 33.9592 214.087 34.6667 214.352C34.932 214.529 35.1088 214.175 35.2857 213.998C35.7279 213.645 36.0816 213.203 36.5238 212.85C37.6735 212.054 38.2925 212.142 39.0884 213.203C39.619 212.673 40.1496 212.231 40.8571 211.877C42.0952 211.347 42.8027 211.877 42.7143 213.203C42.7143 213.645 42.5374 213.998 42.4489 214.44C42.3605 214.882 42.1836 215.236 42.0952 215.766C44.4829 215.324 46.6938 215.678 48.8162 216.473C49.789 216.826 50.6734 217.445 51.4693 218.152C53.4148 219.92 53.857 221.864 52.7958 224.25C51.6462 226.901 49.5237 228.669 47.136 229.995C43.687 232.027 39.8843 232.823 35.9932 233.264C30.864 233.883 25.6464 234.237 20.5171 233.441C17.8641 232.999 15.2995 232.381 12.8233 231.32C11.0546 230.525 9.63968 229.288 8.66689 227.52C7.60568 225.311 7.78254 223.366 9.37436 221.51C10.7009 219.92 12.4696 219.036 14.4151 218.506C14.9458 218.329 15.1226 218.24 14.8573 217.71C14.3267 216.385 14.7689 215.589 16.1838 215.412C16.3607 215.412 16.626 215.412 16.8029 215.412C17.9525 215.678 18.8369 215.943 19.5444 214.44C19.9865 213.468 21.313 213.733 22.1974 214.175C22.728 214.44 22.9933 214.529 23.1702 213.733C23.347 212.673 24.2314 212.408 25.1157 213.026C25.4695 213.291 25.8232 213.645 26.3538 214.087C26.3538 213.468 26.3538 213.026 26.3538 212.584C26.0885 167.159 25.7348 121.822 25.4695 76.3961C25.4695 73.7448 25.4695 71.0052 25.4695 68.3539C25.4695 67.7353 25.381 67.4701 24.6736 67.2934C16.0954 65.8793 8.31314 60.5767 3.97984 53.0647C-1.23781 44.0503 -1.41468 32.5614 3.97984 23.547C5.04105 21.7795 6.19071 20.1887 7.60567 18.6863C13.7961 11.9697 22.8164 8.52298 31.8368 9.05324L31.7483 9.22997ZM12.558 220.45C10.9662 220.98 9.46279 222.659 9.28592 224.073C9.81653 223.985 10.3472 223.808 10.8778 223.72C11.4968 223.72 12.3811 223.808 12.558 223.19C12.7349 221.952 13.0886 220.892 13.8845 219.831C13.4424 219.831 13.0886 219.831 12.9117 220.185C12.7349 220.185 12.558 220.185 12.558 220.362V220.45ZM10.8778 224.692C8.66689 224.869 8.40158 225.311 9.4628 227.343C10.4356 229.376 10.6125 229.376 12.2043 227.697C12.6465 227.343 13.0886 226.99 13.4424 226.636C13.6192 226.548 13.7077 226.371 13.7077 226.106C13.3539 224.692 12.558 224.25 11.2315 224.604C11.1431 224.604 11.0546 224.692 10.9662 224.78L10.8778 224.692ZM20.2518 230.79C19.9865 231.143 19.8097 231.409 19.5444 231.762C19.1022 232.292 19.1022 232.557 19.8981 232.646C21.1362 232.823 22.2858 233.088 23.5239 233.088C24.6441 233.147 25.3516 232.616 25.6463 231.497C25.8232 230.967 26.0885 230.348 26.2654 229.818C26.5307 229.288 26.2654 229.199 25.7348 229.199C24.8504 229.199 23.8776 229.288 22.9933 229.199C21.4899 228.934 20.694 229.553 20.1634 230.878L20.2518 230.79ZM26.5307 231.674C26.5307 231.85 26.4423 232.027 26.3538 232.116C25.9117 232.999 26.177 233.176 27.1497 233.176C28.1225 233.176 29.1837 232.999 30.1565 232.911C30.9524 232.911 31.483 232.734 31.3946 231.85C31.3946 231.055 31.3946 230.348 31.483 229.553C31.483 229.288 31.6599 228.934 31.2177 228.934C29.9797 228.934 28.6531 228.934 27.5035 229.199C26.796 229.376 26.9729 230.613 26.6191 231.32C26.6191 231.32 26.6191 231.497 26.6191 231.585L26.5307 231.674ZM12.9117 228.315C12.6464 228.581 12.3811 228.846 12.0274 229.022C11.2315 229.553 11.4968 229.906 12.2043 230.26C13.6192 231.055 15.0342 231.409 16.5376 231.85C18.3063 232.381 18.3063 232.292 19.1906 230.613C19.6328 230.171 19.9865 229.553 20.3403 228.934C18.7484 228.581 17.245 228.315 15.8301 227.608C14.3267 226.813 14.3267 226.813 13.0886 228.05C13.0886 228.05 13.0886 228.139 13.0002 228.227L12.9117 228.315ZM39.4422 231.497C39 230.525 38.9116 229.199 38.1156 228.581C37.3197 227.962 36.0816 228.581 35.0204 228.669H34.8435C33.0159 228.787 32.1905 229.788 32.3674 231.674C32.5443 232.116 31.7483 232.999 32.898 232.911C35.0204 232.823 37.2313 232.469 39.3537 232.116C39.8843 232.027 39.8843 231.762 39.619 231.409L39.4422 231.497ZM42.3605 231.32C43.8639 231.055 45.102 230.348 46.4285 229.641C47.9319 228.846 47.9319 228.934 46.6938 227.608C45.8979 226.725 45.2788 226.548 44.2176 227.078C43.4217 227.432 42.5374 227.52 41.7415 227.874C40.8571 228.227 39.4422 227.697 39.2653 228.669C39.0884 229.464 39.8843 230.525 40.4149 231.32C41.034 232.381 41.7415 231.409 42.3605 231.32ZM42.9795 226.283C45.2789 226.018 47.136 224.869 48.5509 223.101C49.5237 221.776 49.5237 220.362 48.5509 219.389C47.4013 218.24 45.9863 217.445 44.3061 217.357C43.1564 216.915 42.0068 216.385 40.8571 217.533C40.6803 216.915 41.1224 216.561 41.034 216.208C41.5646 215.412 41.653 214.529 41.8299 213.645C41.8299 213.468 41.9183 213.203 41.8299 213.026C41.5646 212.85 41.3877 213.026 41.1224 213.115C40.4149 213.468 39.8843 214.087 39.3537 214.617C39.1768 214.882 39 215.147 38.6463 215.059C38.2041 214.971 38.2041 214.529 38.2041 214.175C38.2041 213.291 37.7619 213.38 37.2313 213.733C36.6122 214.087 36.0816 214.705 35.6395 215.236C35.3742 215.501 35.1973 215.766 34.7551 215.589C33.7823 215.324 33.4286 215.589 33.1633 216.738C32.5442 218.24 34.7551 217.445 34.6667 218.594C34.6667 218.771 34.8435 218.771 34.932 218.771C35.1089 218.771 35.1973 218.682 35.2857 218.594C35.6395 218.506 35.9932 218.329 36.4354 218.329C37.4082 218.152 38.0272 218.771 37.9388 219.743C37.9388 220.096 37.8503 220.362 37.7619 220.715C37.7619 221.069 37.6735 221.599 37.2313 221.599C36.6122 221.599 36.966 220.98 36.966 220.627C37.0544 218.948 36.966 218.859 35.3742 219.566C35.1973 219.566 35.0204 219.743 34.932 219.831C34.4898 220.008 34.1361 220.538 33.6939 220.096C33.2517 219.743 33.6939 219.301 33.6939 218.947C33.6939 218.947 33.6939 218.859 33.517 218.771C33.0748 219.036 32.7211 219.389 32.2789 219.743C31.7483 220.185 31.7483 220.98 31.0409 221.245C30.864 220.892 31.0409 220.538 31.2177 220.362C32.1905 219.213 31.9252 217.887 31.9252 216.561C31.8368 192.169 31.6599 167.866 31.483 143.474C31.3946 122.352 31.2177 101.23 31.1293 80.108C31.1293 76.7497 31.1293 73.4797 31.1293 70.1214C31.1293 69.4144 31.0409 69.1493 30.245 69.5028C29.6259 69.8563 28.9184 70.033 28.2994 70.2098C27.5919 70.4749 26.3538 69.8563 26.3538 71.5354C26.7076 119.877 27.0613 168.131 27.3266 216.473C27.3266 218.417 27.8572 220.008 29.0953 221.422C29.3606 222.041 29.8912 222.129 30.3334 222.571C30.5987 223.366 31.1293 224.25 30.5102 225.399C30.1565 224.604 30.1565 223.897 29.8028 223.278C29.5375 222.924 29.3606 222.659 28.9184 222.659C28.4763 222.659 28.4763 223.101 28.3878 223.455C28.211 224.073 28.1225 224.604 28.2994 225.222C28.2994 225.487 28.5647 225.841 28.2994 226.018C27.9456 226.194 27.7688 225.752 27.5919 225.576C27.2382 225.222 26.8844 224.869 26.4422 224.692C26.0001 224.515 25.4695 224.25 25.0273 224.692C24.5851 225.134 24.8504 225.664 25.0273 226.106C25.0273 226.283 25.381 226.371 25.2042 226.636C24.4967 226.371 24.0545 225.664 24.2314 224.957C24.4082 224.25 24.8504 223.985 25.6463 223.897C26.3538 223.897 27.0613 224.78 27.415 224.427C27.8572 224.073 27.5035 223.013 27.9456 222.483C28.3878 221.864 28.1225 221.334 27.7688 220.892C27.5919 220.538 27.3266 220.45 27.0613 220.892C26.3538 221.952 26.177 221.952 25.381 220.892C24.8504 220.273 24.4967 219.478 23.7008 219.124C23.4355 219.389 23.5239 219.655 23.5239 219.92C23.5239 220.273 23.6124 220.715 23.1702 220.803C22.8164 220.98 22.5511 220.715 22.1974 220.45C21.9321 220.185 21.5784 219.92 21.313 219.743C20.9593 219.566 20.6056 219.301 20.2518 219.655C19.8981 219.92 19.9865 220.362 20.075 220.627C20.4287 221.687 20.6056 222.924 21.5783 223.72C21.8436 223.985 22.109 224.25 22.109 224.604C22.109 224.869 22.2858 225.134 21.9321 225.222C21.6668 225.311 21.5784 225.045 21.4899 224.869C21.1362 224.515 20.7824 223.985 20.2518 224.162C19.7212 224.427 19.6328 225.045 19.5444 225.576C19.5444 225.841 19.7212 226.283 19.3675 226.283C18.9253 226.283 18.8369 225.929 18.7484 225.576C18.7484 225.311 18.7484 225.045 18.66 224.869C18.3063 224.25 17.8641 223.631 17.0682 223.72C16.1838 223.72 16.4491 224.604 16.5376 225.222C15.6532 224.78 15.5648 224.25 16.007 223.543C16.5376 222.748 17.3335 222.748 18.3063 223.366C18.5716 223.543 18.66 224.25 19.1906 223.631C19.5444 223.278 20.075 222.924 19.5444 222.217C19.279 221.864 19.1906 221.422 19.1022 221.069C18.8369 220.185 18.7484 219.389 19.5444 218.771C20.2518 218.152 21.0477 218.417 21.7552 218.771C22.1974 219.036 22.3743 219.036 22.5511 218.506C22.9049 217.622 23.5239 217.445 24.2314 218.152C24.762 218.594 25.1157 219.124 25.5579 219.655C25.7348 219.831 25.8232 220.185 26.0885 220.008C26.3538 219.92 26.2654 219.655 26.2654 219.478C26.2654 218.594 26.2654 217.622 26.2654 216.738C26.3538 215.589 26.0001 214.882 25.0273 214.264C24.6736 214.087 24.4083 213.645 24.0545 213.91C23.7008 214.087 23.8776 214.529 23.8776 214.882C23.8776 215.854 23.5239 216.031 22.728 215.678C22.1974 215.501 21.7552 215.236 21.2246 215.147C20.1634 214.971 19.6328 215.501 19.7212 216.473C19.8097 217.533 19.5443 217.71 18.5716 217.268C17.8641 216.915 17.0682 216.738 16.2723 216.826C15.5648 216.826 15.3879 217.268 15.6532 217.799C15.9185 218.329 16.1838 218.859 16.4491 219.389C16.5376 219.654 16.8913 219.831 16.626 220.096C16.4491 220.273 16.1838 220.096 16.007 219.92C15.6532 219.655 15.3879 219.743 15.1226 220.008C12.7349 222.306 13.1771 225.222 16.0954 226.725C17.9525 227.608 19.8981 227.962 21.9321 228.139C26.5307 228.492 31.0409 228.139 35.6395 227.697C38.1157 227.432 40.6802 227.343 42.9795 226.371V226.283ZM16.1838 20.3654C16.1838 20.6306 16.0954 20.8073 15.7417 20.7189C14.4151 20.0119 13.2655 19.0398 12.0274 18.156C11.6737 17.8909 11.4083 17.2722 10.9662 17.6257C10.2587 18.156 9.81653 18.863 9.37436 19.57C9.28593 19.7468 9.55122 19.8352 9.72809 19.9235C11.143 20.6306 12.4696 21.6027 13.8845 22.3981C14.4151 22.9284 14.9458 23.4586 15.7417 24.1656C14.592 23.9005 13.8845 23.4586 13.0886 23.1051C12.0274 22.3981 11.0546 21.7795 9.99341 21.0725C8.75533 20.1887 8.75531 20.1887 7.9594 21.5143C7.6941 21.8678 7.69411 22.0446 8.13628 22.3097C9.37437 23.0167 10.524 23.7237 11.7621 24.5191C14.1498 26.1983 16.5376 27.8774 18.8369 29.5566C18.7484 29.7333 18.66 29.8217 18.5716 29.9985C16.007 28.4961 13.6192 26.7285 10.9662 25.4029C9.99339 24.6959 8.93219 24.0772 8.04784 23.3702C7.34036 22.84 7.07506 22.9284 6.72132 23.6354C4.51045 27.7007 3.18394 31.9428 2.91864 36.5383C2.38803 44.669 4.68733 51.6507 10.3471 57.5719C10.524 57.7487 10.7009 58.1906 11.1431 58.1022C11.5852 59.0744 12.4696 59.4278 13.4424 60.1349C13.3539 57.8371 13.177 55.8928 13.177 53.8601C13.177 50.3251 13.3539 46.79 13.7961 43.3433C14.3267 39.278 16.626 36.7151 20.7824 35.9197C25.8232 34.8592 30.864 34.5057 35.9932 35.1243C37.4082 35.3011 37.4081 35.3011 37.4966 33.887C37.585 32.3846 37.7619 30.9706 37.9388 29.4682C38.0272 28.4961 38.2925 28.4077 39.1769 28.938C40.5034 29.7333 41.8299 30.7055 43.068 31.6776C45.8979 33.887 48.5509 36.2732 51.4693 38.3059C52.7074 39.1896 52.7074 39.6315 51.4693 40.5153C48.9931 42.3712 46.5169 44.2271 44.0408 46.083C42.449 47.2319 40.8571 48.2924 39.1769 49.1762C38.2041 49.7064 37.8503 49.5297 37.7619 48.3808C37.7619 46.6133 37.7619 44.8457 37.6735 43.0782C37.6735 42.2828 37.4081 41.9293 36.6122 41.8409C32.898 41.3991 29.1837 41.5758 25.4695 42.3712C23.3471 42.8131 22.0205 44.1387 21.4899 46.1714C20.8709 48.5575 20.6056 50.9437 20.7824 53.4182C20.9593 56.6882 21.3131 59.9581 21.4899 63.228C21.4899 63.9351 21.9321 64.1118 22.4627 64.2886C28.2109 65.9677 33.9592 65.8793 39.619 63.8467C41.2993 63.2281 42.9795 62.521 44.5714 61.4605C42.1836 59.8697 39.9728 58.279 37.7619 56.7766C37.585 56.5998 37.3197 56.5114 37.1429 56.3347C37.0544 56.3347 36.966 56.1579 37.0544 55.9812C37.0544 55.8044 37.2313 55.8044 37.4082 55.8928C37.6735 55.8928 37.8503 56.0695 38.1156 56.1579C40.5918 57.3068 42.9796 58.7208 45.2789 60.2232C45.5442 60.4 45.8095 60.7535 46.1632 60.4884C46.8707 59.9581 47.6666 59.5162 48.2856 58.8092C46.8707 58.0138 45.5441 57.1301 44.2176 56.2463C44.0408 56.0695 43.687 55.9812 43.8639 55.716C44.0408 55.3625 44.3945 55.5393 44.5714 55.716C45.8094 56.2463 46.9591 56.6882 48.1087 57.3068C49.0815 57.8371 49.8774 58.0138 50.4081 56.7766C50.7618 56.7766 50.9387 56.4231 51.1156 56.2463C55.9795 49.9716 58.8094 42.9898 57.7482 34.9476C56.6869 26.9053 53.3264 20.2771 46.3401 15.6815C44.3061 14.3558 42.2721 12.8534 39.8843 12.2348C32.9864 10.3789 26.1769 10.644 19.4559 12.8534C16.7144 13.7372 14.3267 15.2396 12.0274 17.0071C13.6192 18.0676 15.1226 19.1282 16.3607 20.4538L16.1838 20.3654ZM38.8231 29.4682C38.4694 31.5009 38.1156 33.3568 37.7619 35.3011C37.7619 35.5662 37.7619 35.9197 37.2313 35.9197C32.898 35.9197 28.5647 35.9197 24.3198 36.45C22.728 36.6267 21.1362 36.8035 19.6328 37.3337C17.3335 38.2175 15.3879 39.5431 14.8573 42.2828C13.7961 48.1157 13.8845 54.1253 14.0614 60.0465C14.0614 60.4 14.0614 60.7535 14.4151 61.0186C16.2723 62.1675 18.2178 63.1397 20.4287 63.8467C20.2518 61.4605 19.9865 59.2511 19.8096 57.0417C19.5443 53.4182 19.3675 49.7948 20.3403 46.1714C20.9593 44.0503 22.1974 42.3712 24.4083 41.8409C28.4763 40.7804 32.5442 40.692 36.7007 41.2223C37.8503 41.399 38.2041 41.9293 38.2041 42.9898C38.2041 44.4922 38.2925 45.9946 38.3809 47.497C38.3809 48.1157 38.5578 48.2924 39.1769 47.9389C43.3333 45.376 47.0476 42.1944 51.1156 39.278C47.0476 36.0081 43.068 32.8265 38.9115 29.4682H38.8231ZM50.0543 223.19C49.789 223.19 49.6122 223.366 49.3469 223.631C48.9047 224.073 48.4625 224.515 48.0203 225.045C47.5782 225.576 46.5169 225.753 46.6054 226.371C46.6938 226.99 47.5781 227.343 48.1087 227.874C48.4625 228.227 48.6394 228.139 48.9931 227.874C49.8774 227.167 50.6734 226.371 51.2924 225.399C51.6461 224.869 52.2652 224.162 51.9115 223.631C51.6462 223.19 50.6734 223.278 49.9659 223.19H50.0543ZM51.1156 220.185C50.3196 220.185 50.2312 220.185 50.2312 221.864C50.2312 223.013 51.3809 222.394 51.9999 222.659C52.5305 222.924 52.4421 222.306 52.4421 222.041C52.4421 220.715 51.9999 220.185 51.0271 220.185H51.1156ZM51.0271 219.301C50.4081 218.329 49.0815 217.533 47.9319 217.622C49.2584 217.975 49.5237 219.743 51.0271 219.301Z" fill="#0B0D0D"/>
<path d="M50.051 56.7752C49.5204 58.0125 48.7245 57.8357 47.7517 57.3055C46.6021 56.6868 45.364 56.2449 44.2143 55.7147C43.949 55.6263 43.5953 55.4495 43.5069 55.7147C43.4184 55.9798 43.6837 56.1566 43.8606 56.2449C45.0987 57.2171 46.4252 58.1008 47.9286 58.8079C47.3096 59.5149 46.5136 59.9567 45.8061 60.487C45.364 60.7521 45.1871 60.487 44.9218 60.2219C42.6225 58.7195 40.3232 57.3055 37.7586 56.1566C37.4933 56.0682 37.3164 55.9798 37.0511 55.8914C36.8742 55.8914 36.7858 55.8914 36.6974 55.9798C36.6089 56.1566 36.6974 56.2449 36.7858 56.3333C36.9627 56.5101 37.1395 56.5984 37.4049 56.7752C39.6157 58.2776 41.915 59.8684 44.2143 61.4591C42.6225 62.5197 41.0307 63.2267 39.262 63.8453C33.6022 65.878 27.8539 65.9664 22.1057 64.2872C21.5751 64.1105 21.1329 63.9337 21.1329 63.2267C20.956 59.9567 20.6023 56.6868 20.4254 53.4169C20.2485 50.9423 20.5138 48.5562 21.1329 46.17C21.6635 44.049 22.99 42.8117 25.1124 42.3698C28.8267 41.5744 32.541 41.4861 36.2552 41.8396C37.0511 41.8396 37.3164 42.2815 37.3164 43.0768C37.4049 44.8444 37.3164 46.6119 37.4049 48.3794C37.4049 49.5283 37.7586 49.7051 38.8198 49.1748C40.5001 48.291 42.1803 47.2305 43.6837 46.0816C46.1599 44.2257 48.6361 42.3698 51.1122 40.5139C52.3503 39.6302 52.3503 39.0999 51.1122 38.3045C48.1939 36.2719 45.5408 33.8857 42.7109 31.6763C41.4728 30.7041 40.2348 29.732 38.8198 28.9366C38.0239 28.4063 37.7586 28.4947 37.5817 29.4669C37.4049 30.9693 37.228 32.3833 37.1396 33.8857C37.0511 35.2997 37.1395 35.2997 35.6362 35.123C30.5069 34.5043 25.4662 34.8578 20.4254 35.9183C16.269 36.8021 14.0581 39.2766 13.4391 43.342C12.9969 46.877 12.7316 50.3237 12.82 53.8588C12.82 55.8914 12.9969 57.8357 13.0853 60.1335C12.201 59.4265 11.2282 59.073 10.786 58.1009C10.6092 57.8357 10.4323 57.5706 10.2554 57.3055C7.51394 52.8866 5.47995 48.1143 5.03777 42.9001C4.41873 36.2718 6.27585 30.439 10.6976 25.4015C13.3506 26.7272 15.7384 28.5831 18.303 29.9971C18.3914 29.8203 18.4798 29.732 18.5683 29.5552C16.1805 27.8761 13.7928 26.1969 11.4935 24.5178C11.9357 24.0759 12.3778 23.634 12.82 23.1921C13.6159 23.5456 14.3234 23.9875 15.4731 24.2526C14.7656 23.5456 14.235 23.0154 13.6159 22.4851C14.235 21.9548 14.854 21.4246 15.4731 20.8943C15.7384 20.8943 15.9152 20.8943 15.9152 20.5408C16.888 20.0106 17.7724 19.4803 18.7452 18.95C27.6771 13.4707 41.2076 14.9731 48.5476 24.7829C54.7381 33.0019 56.7721 46.5235 49.8741 56.7752C49.8741 56.7752 49.8742 56.9519 49.9626 57.0403L50.051 56.7752Z" fill="#0ABAED"/>
<path d="M28.7994 70.1207C29.4184 69.8556 30.1259 69.6788 30.7449 69.4137C31.5408 69.0602 31.6293 69.3253 31.6293 70.0324C31.6293 73.3907 31.6293 76.6606 31.6293 80.0189C31.7177 101.141 31.8946 122.263 31.983 143.385C32.1599 167.777 32.2483 192.08 32.4252 216.472C32.4252 217.798 32.6905 219.124 31.7177 220.272C31.5408 220.538 31.4524 220.891 31.5408 221.156C31.2755 221.598 31.0102 222.128 30.7449 222.57C30.3912 222.128 29.7721 222.04 29.5068 221.421C30.0375 221.068 29.7721 220.538 29.7721 220.096C29.6837 202.067 29.5068 184.038 29.4184 166.009C29.2415 146.125 29.1531 126.151 28.9762 106.267C28.9762 94.2475 28.7994 82.2283 28.7109 70.2975L28.7994 70.1207Z" fill="#0CB9EB"/>
<path d="M39.0598 29.4688C43.1278 32.7387 47.1958 36.0086 51.2638 39.2785C47.2842 42.1066 43.4815 45.2881 39.3251 47.9394C38.7061 48.2929 38.6176 48.2046 38.5292 47.4976C38.5292 45.9952 38.3523 44.4928 38.3523 42.9903C38.3523 41.9298 37.9986 41.3996 36.8489 41.2228C32.6925 40.6926 28.6245 40.7809 24.5565 41.8415C22.3456 42.3717 21.1075 43.9625 20.4885 46.1719C19.5157 49.707 19.6926 53.4188 19.9579 57.0422C20.1348 59.2516 20.3116 61.4611 20.5769 63.8472C18.3661 63.1402 16.4205 62.2564 14.5634 61.0192C14.2096 60.754 14.2097 60.4005 14.2097 60.047C14.0328 54.1258 13.9443 48.2046 15.0056 42.2833C15.5362 39.6321 17.3933 38.218 19.781 37.3343C21.2844 36.804 22.8762 36.6272 24.4681 36.4505C28.8014 35.8319 33.1347 35.8319 37.3795 35.9202C37.9101 35.9202 37.8217 35.5667 37.9101 35.3016C38.2639 33.4457 38.6176 31.5898 38.9714 29.4688H39.0598Z" fill="#FBFBFB"/>
<path d="M50.6853 56.7759C50.6853 56.7759 50.5969 56.5991 50.5969 56.5108C57.4948 46.2591 55.4608 32.8259 49.2704 24.5185C41.9303 14.7087 28.3998 13.2063 19.4679 18.6856C18.5835 19.2159 17.6108 19.7461 16.638 20.2764C15.3999 18.9507 13.8965 17.9786 12.3047 16.8297C14.604 15.0622 16.9917 13.5598 19.7332 12.676C26.4542 10.4666 33.3521 10.2015 40.1616 12.0574C42.5494 12.676 44.5833 14.1784 46.6173 15.5041C53.6037 20.0113 56.9642 26.7279 58.0254 34.7702C59.0866 42.8124 56.2567 49.7941 51.3928 56.0689C51.2159 56.334 51.0391 56.5991 50.6853 56.5991V56.7759Z" fill="#FBFCFC"/>
<path d="M28.1955 70.1196C28.1955 82.1388 28.3724 94.158 28.4609 106.089C28.6377 125.974 28.7262 145.947 28.903 165.831C28.9915 183.86 29.1683 201.889 29.2568 219.918C29.2568 220.36 29.5221 220.89 28.9915 221.243C27.7534 219.829 27.2228 218.327 27.2228 216.294C26.9575 167.952 26.6037 119.699 26.25 71.3569C26.25 69.6777 27.3996 70.2964 28.1955 70.0312V70.1196Z" fill="#F6F8F9"/>
<path d="M30.4671 222.48C30.7324 222.038 30.9977 221.508 31.263 221.066C31.9705 220.801 31.9705 220.006 32.5011 219.564C32.8548 219.21 33.297 218.857 33.7392 218.592C33.7392 218.592 33.916 218.68 33.916 218.769C33.916 219.21 33.4739 219.652 33.916 219.917C34.3582 220.271 34.7119 219.741 35.1541 219.652C35.331 219.652 35.5079 219.476 35.5963 219.387C37.1881 218.68 37.2766 218.769 37.1881 220.448C37.1881 220.801 36.8344 221.332 37.4534 221.42C37.8956 221.42 37.984 220.89 37.984 220.536C37.984 220.183 38.0725 219.917 38.1609 219.564C38.1609 218.592 37.6303 218.062 36.6575 218.15C36.3038 218.15 35.95 218.327 35.5078 218.415C35.331 218.415 35.2425 218.503 35.1541 218.592C34.9772 218.592 34.8004 218.592 34.8888 218.415C34.9773 217.266 32.7664 218.062 33.3854 216.559C33.7392 216.559 34.0929 216.294 34.3582 216.559C35.1541 217.266 35.4194 216.559 35.7732 216.117C36.6575 214.968 37.5419 215.057 38.3378 216.294C38.4262 216.471 38.3378 216.913 38.7799 216.913C38.9568 216.471 39.1337 216.029 39.4874 215.675C40.1949 214.88 40.8139 214.968 41.2561 216.029C41.3445 216.471 40.9024 216.824 41.0793 217.355C42.2289 216.206 43.3785 216.824 44.5282 217.178C44.7051 217.62 45.2357 217.62 45.5894 217.973C48.3309 220.359 48.5962 222.127 45.9432 224.336C45.0588 225.043 43.9976 225.397 43.2901 226.192C40.9024 227.164 38.4262 227.341 35.95 227.518C31.4399 227.96 26.8412 228.313 22.2426 227.96C20.2086 227.783 18.2631 227.518 16.406 226.546C13.4876 225.043 13.0455 222.127 15.4332 219.829C15.6985 219.564 15.9638 219.387 16.3175 219.741C16.4944 219.829 16.7597 220.094 16.9366 219.917C17.2019 219.652 16.9366 219.387 16.7597 219.21C16.4944 218.68 16.1407 218.15 15.9638 217.62C15.6985 217.001 15.9638 216.648 16.5828 216.648C17.3787 216.648 18.1747 216.736 18.8821 217.089C19.8549 217.62 20.1202 217.355 20.0318 216.294C19.9433 215.233 20.474 214.792 21.5352 214.968C22.0658 215.057 22.508 215.322 23.0386 215.499C23.9229 215.852 24.1882 215.675 24.1882 214.703C24.1882 214.35 24.0114 213.908 24.3651 213.731C24.8073 213.466 25.0726 213.908 25.3379 214.085C26.2222 214.615 26.6644 215.41 26.576 216.559C26.4875 217.443 26.576 218.415 26.576 219.299C26.576 219.476 26.576 219.741 26.3991 219.829C26.0453 220.006 25.9569 219.652 25.8685 219.476C25.4263 218.945 25.0726 218.415 24.542 217.973C23.8345 217.266 23.127 217.443 22.8617 218.327C22.6848 218.857 22.508 218.857 22.0658 218.592C21.3583 218.15 20.5624 217.885 19.8549 218.592C19.059 219.21 19.2359 220.094 19.4127 220.89C19.5012 221.331 19.5896 221.773 19.8549 222.038C20.3855 222.745 19.8549 223.099 19.5012 223.453C19.059 223.983 18.8821 223.364 18.6168 223.187C17.6441 222.48 16.8481 222.48 16.3175 223.364C15.8754 224.071 15.9638 224.601 16.8481 225.043C16.8481 224.425 16.4944 223.629 17.3787 223.541C18.1746 223.541 18.6168 224.071 18.9706 224.69C19.059 224.867 18.9706 225.22 19.059 225.397C19.1475 225.75 19.2359 226.192 19.678 226.104C20.0318 226.104 19.8549 225.662 19.8549 225.397C19.8549 224.778 20.0318 224.16 20.5624 223.983C21.093 223.806 21.4467 224.336 21.8005 224.69C21.9773 224.867 21.9773 225.132 22.2426 225.043C22.5079 224.955 22.4195 224.601 22.4195 224.425C22.4195 224.071 22.1542 223.806 21.8889 223.541C20.9161 222.746 20.7393 221.597 20.3855 220.448C20.2971 220.094 20.2087 219.741 20.5624 219.476C20.9161 219.21 21.2699 219.476 21.6236 219.564C21.9774 219.741 22.2427 220.006 22.508 220.271C22.7733 220.536 23.0386 220.801 23.4808 220.624C23.9229 220.448 23.746 220.006 23.8345 219.741C23.8345 219.476 23.8345 219.21 24.0113 218.945C24.8073 219.299 25.161 220.183 25.6916 220.713C26.576 221.685 26.6644 221.685 27.3719 220.713C27.6372 220.271 27.814 220.448 28.0793 220.713C28.4331 221.243 28.6984 221.685 28.2562 222.304C27.814 222.922 28.0793 223.894 27.7256 224.248C27.2834 224.601 26.6644 223.718 25.9569 223.718C25.2494 223.718 24.7188 224.071 24.542 224.778C24.3651 225.485 24.8073 226.192 25.5147 226.457C25.6916 226.192 25.5147 226.104 25.3379 225.927C25.0726 225.485 24.8073 224.955 25.3379 224.513C25.78 224.071 26.3106 224.336 26.7528 224.513C27.195 224.69 27.6372 225.043 27.9025 225.397C28.0794 225.574 28.2562 226.104 28.61 225.839C28.8753 225.662 28.61 225.308 28.61 225.043C28.4331 224.425 28.61 223.894 28.6984 223.276C28.7868 222.922 28.8753 222.569 29.229 222.48C29.6712 222.48 29.9365 222.746 30.1134 223.099C30.5555 223.629 30.4671 224.336 30.8208 225.22C31.4399 224.071 30.9092 223.276 30.6439 222.392L30.4671 222.48ZM43.0248 220.978C43.0248 221.155 43.0248 221.332 43.0248 221.42C43.0248 222.215 42.6711 223.011 42.4058 223.806C42.4058 224.071 42.3173 224.425 42.5826 224.513C42.9364 224.601 43.1132 224.425 43.2017 224.16C43.5554 223.276 43.9091 222.48 43.9091 221.508C43.9091 220.094 43.1132 219.564 41.8752 220.271C41.0792 220.713 40.4602 221.42 39.7527 222.038C39.5759 222.215 39.399 222.569 39.0452 222.392C37.984 221.508 37.365 222.392 36.6575 223.011C35.95 223.629 35.331 224.248 35.2426 225.308C36.0385 224.778 36.6575 224.071 37.365 223.453C37.7187 223.099 38.1609 222.746 38.3378 223.629C38.4262 224.16 38.8684 224.16 39.3106 223.806C39.5759 223.541 39.8412 223.276 40.1065 223.011C40.9024 222.304 41.5214 221.332 42.6711 220.978H43.0248Z" fill="#73B32A"/>
<path d="M11.4914 25.3132C7.0697 30.3507 5.21255 36.1835 5.8316 42.8118C6.27377 48.026 8.30779 52.7983 11.0493 57.2171C11.2261 57.4823 11.403 57.7474 11.5799 58.0125C11.1377 58.1893 10.9608 57.7474 10.7839 57.4823C5.12412 51.6494 2.82483 44.5793 3.35544 36.4487C3.70917 31.8531 4.94725 27.5226 7.15812 23.5457C7.60029 22.8387 7.86559 22.6619 8.48464 23.2806C9.36898 24.0759 10.4302 24.6946 11.403 25.3132H11.4914Z" fill="#F8FAFB"/>
<path d="M40.6514 231.323C40.1208 230.527 39.3248 229.467 39.5017 228.671C39.767 227.611 41.182 228.229 41.9779 227.876C42.7738 227.522 43.7466 227.522 44.4541 227.081C45.5153 226.55 46.2228 226.815 46.9302 227.611C48.0799 228.848 48.1683 228.848 46.6649 229.643C45.3384 230.262 44.1003 231.057 42.5969 231.323C41.9779 230.704 41.2704 231.499 40.6514 231.323Z" fill="#CDC7C7"/>
<path d="M32.9009 231.675C32.783 229.849 33.6084 228.847 35.3771 228.67H35.554C36.6152 228.67 37.9417 227.963 38.6492 228.582C39.3567 229.112 39.5335 230.438 39.9757 231.498C37.588 231.498 35.2002 231.852 32.8125 231.675H32.9009Z" fill="#CEC8C8"/>
<path d="M43.565 226.284C44.3609 225.489 45.4221 225.135 46.218 224.428C48.8711 222.219 48.6058 220.451 45.8643 218.065C45.5106 217.8 44.98 217.8 44.8031 217.27C46.4833 217.358 47.8983 218.153 49.048 219.302C50.0207 220.274 50.1092 221.777 49.048 223.014C47.633 224.87 45.7759 225.93 43.4766 226.196L43.565 226.284Z" fill="#F4F5F3"/>
<path d="M50.2798 223.189C50.9873 223.366 51.96 223.189 52.2254 223.631C52.5791 224.161 51.8716 224.868 51.6063 225.399C51.0757 226.371 50.1913 227.166 49.307 227.873C48.9533 228.138 48.7764 228.227 48.4226 227.873C47.892 227.343 47.0077 226.901 46.9193 226.371C46.8308 225.752 47.892 225.575 48.3342 225.045C48.7764 224.603 49.2186 224.161 49.6607 223.631C49.8376 223.366 50.0145 223.101 50.3682 223.189H50.2798Z" fill="#CAC5C5"/>
<path d="M41.5035 216.031C41.0613 215.058 40.4423 214.882 39.7348 215.677C39.3811 216.031 39.2042 216.472 39.0273 216.914C38.5852 216.914 38.6736 216.472 38.5852 216.296C37.7892 215.058 36.9049 214.97 36.0206 216.119C35.6668 216.649 35.4015 217.356 34.6056 216.561C34.3403 216.296 33.8981 216.561 33.6328 216.561C33.8981 215.412 34.2519 215.147 35.2247 215.412C35.6668 215.5 35.8437 215.324 36.109 215.058C36.6396 214.528 37.0818 213.91 37.7008 213.556C38.2314 213.203 38.762 213.114 38.6736 213.998C38.6736 214.351 38.6736 214.705 39.1158 214.882C39.4695 214.97 39.6464 214.617 39.8232 214.44C40.3538 213.821 40.8845 213.291 41.5919 212.937C41.7688 212.849 42.0341 212.672 42.2994 212.849C42.4763 213.026 42.3879 213.203 42.2994 213.468C42.1226 214.351 42.0341 215.235 41.5035 216.031Z" fill="#F4F5F3"/>
<path d="M16.2286 20.7167C15.6096 21.2469 14.9905 21.7772 14.3715 22.3074C12.9565 21.5121 11.7184 20.5399 10.215 19.8329C10.0382 19.8329 9.77288 19.6561 9.86132 19.4794C10.3035 18.7724 10.7457 17.977 11.4531 17.5351C11.8953 17.1816 12.2491 17.8886 12.5144 18.0654C13.7524 18.9491 14.9021 19.9213 16.2286 20.6283V20.7167Z" fill="#F6F6F6"/>
<path d="M13.1627 228.317C13.1627 228.317 13.1627 228.229 13.2511 228.141C14.4892 226.903 14.4892 226.903 15.9926 227.699C17.4075 228.406 18.9993 228.671 20.5027 229.024C20.2374 229.643 19.8837 230.262 19.3531 230.704C17.0538 230.439 14.9313 229.731 13.0742 228.317H13.1627Z" fill="#CDC7C7"/>
<path d="M12.8191 228.316C14.6762 229.73 16.7987 230.437 19.098 230.703C18.2136 232.382 18.2136 232.382 16.4449 231.94C14.9415 231.498 13.4382 231.056 12.1116 230.349C11.4042 229.996 11.2273 229.642 11.9348 229.112C12.2885 228.935 12.5538 228.582 12.8191 228.405V228.316Z" fill="#F6F6F6"/>
<path d="M26.3384 231.673C26.3384 231.584 26.3384 231.496 26.3384 231.408C26.6922 230.701 26.5153 229.463 27.2228 229.287C28.3724 228.933 29.699 229.022 30.9371 229.022C31.3792 229.022 31.2908 229.375 31.2023 229.64C31.2023 230.436 31.2023 231.143 31.1139 231.938C29.5221 231.761 27.9303 231.673 26.25 231.761L26.3384 231.673Z" fill="#CEC8C8"/>
<path d="M20.457 230.79C20.9876 229.465 21.7836 228.846 23.287 229.111C24.1713 229.288 25.1441 229.111 26.0284 229.111C26.559 229.111 26.8244 229.111 26.559 229.73C26.2937 230.26 26.1169 230.879 25.94 231.409C24.1713 231.144 22.3142 230.967 20.5455 230.702L20.457 230.79Z" fill="#CAC5C5"/>
<path d="M20.4988 230.789C22.2675 231.054 24.1247 231.231 25.8934 231.496C25.5986 232.674 24.8911 233.205 23.7709 233.087C22.5328 233.087 21.2948 232.822 20.1451 232.645C19.3492 232.557 19.4376 232.203 19.7914 231.761C20.0567 231.496 20.2335 231.143 20.4988 230.789Z" fill="#F4F5F3"/>
<path d="M13.5134 23.1041C13.0712 23.546 12.6291 23.9879 12.1869 24.4298C10.9488 23.7228 9.79915 22.9274 8.56106 22.2204C8.11889 21.9553 8.11888 21.7785 8.38418 21.425C9.18009 20.0994 9.18011 20.0994 10.4182 20.9831C11.391 21.6901 12.4522 22.3088 13.5134 23.0158V23.1041Z" fill="#F6F6F6"/>
<path d="M12.3277 227.696C10.7359 229.375 10.6475 229.375 9.58627 227.343C8.61349 225.31 8.79036 224.957 11.0012 224.691C11.0897 225.84 11.7087 226.812 12.2393 227.696H12.3277Z" fill="#F6F6F6"/>
<path d="M32.1862 231.673C34.5739 231.761 36.9617 231.496 39.3494 231.496C39.7031 231.85 39.7031 232.115 39.0841 232.203C36.9617 232.557 34.8392 232.91 32.6283 232.999C31.4787 232.999 32.2746 232.203 32.0977 231.761L32.1862 231.673Z" fill="#F4F5F3"/>
<path d="M26.7735 231.672C28.3653 231.672 29.9571 231.672 31.6374 231.849C31.6374 232.732 31.1952 232.909 30.3993 232.909C29.4265 232.909 28.3653 233.086 27.3925 233.174C26.5082 233.174 26.1544 232.998 26.5966 232.114C26.5966 231.937 26.7735 231.76 26.7735 231.672Z" fill="#FBFBFB"/>
<path d="M12.7225 227.695C12.1034 226.811 11.5728 225.839 11.4844 224.69C11.5728 224.69 11.6612 224.601 11.7497 224.513C13.1646 224.16 13.8721 224.69 14.2258 226.015C14.2258 226.281 14.2258 226.369 13.9605 226.546C13.5184 226.899 13.0762 227.253 12.7225 227.606V227.695Z" fill="#CAC5C5"/>
<path d="M51.6553 220.184C52.6281 220.184 53.0702 220.714 53.0702 222.039C53.0702 222.393 53.0702 222.923 52.6281 222.658C52.009 222.393 50.8594 223.012 50.8594 221.863C50.8594 220.184 50.8594 220.184 51.7437 220.184H51.6553Z" fill="#CAC5C5"/>
<path d="M11.4356 223.629C10.905 223.718 10.3744 223.894 9.84375 223.983C10.0206 222.569 11.524 220.978 13.1158 220.359C13.1158 220.713 12.939 220.89 12.7621 221.155C12.1431 221.862 11.7009 222.657 11.524 223.629H11.4356Z" fill="#F4F5F3"/>
<path d="M10.7525 223.632C10.9294 222.66 11.3715 221.864 11.9906 221.157C12.1675 220.892 12.4328 220.715 12.3443 220.362C12.4328 220.362 12.6096 220.185 12.698 220.185C12.7865 219.743 13.1402 219.831 13.6708 219.831C12.9634 220.892 12.5212 221.953 12.3443 223.19C12.2559 223.808 11.2831 223.632 10.6641 223.72L10.7525 223.632Z" fill="#CAC5C5"/>
<path d="M51.4937 219.3C49.9903 219.654 49.725 217.975 48.3984 217.621C49.5481 217.621 50.8746 218.328 51.4937 219.3Z" fill="#CAC5C5"/>
<path d="M41.0156 231.318C41.6347 231.495 42.3421 230.699 42.9612 231.318C42.3421 231.406 41.6347 232.378 41.0156 231.318Z" fill="#CEC8C8"/>
<path d="M13.4787 220.272C13.3903 220.272 13.2134 220.448 13.125 220.448C13.125 220.183 13.3019 220.183 13.4787 220.272Z" fill="#F4F5F3"/>
<path d="M42.7019 220.981C41.5523 221.335 40.9333 222.219 40.1373 223.014C39.872 223.279 39.6067 223.544 39.3414 223.809C38.9877 224.163 38.5455 224.163 38.3687 223.633C38.1918 222.66 37.7496 223.102 37.3959 223.456C36.6884 224.074 36.0693 224.693 35.2734 225.312C35.2734 224.251 35.9809 223.633 36.6884 223.014C37.3074 222.395 38.0149 221.6 39.0761 222.395C39.4299 222.66 39.6067 222.219 39.7836 222.042C40.4027 221.423 41.1101 220.716 41.906 220.274C43.1441 219.567 43.9401 220.009 43.9401 221.512C43.9401 222.484 43.5863 223.279 43.2326 224.163C43.1441 224.428 42.8788 224.693 42.6135 224.516C42.2598 224.428 42.3482 224.074 42.4367 223.809C42.6135 223.014 43.0557 222.307 43.0557 221.423C43.0557 221.246 43.0557 221.158 43.0557 220.981H42.7019Z" fill="#0A1004"/>
<path d="M40.957 26L10.957 38C10.957 38 10.957 57.5 13.457 60C15.957 62.5 19.957 64 21.9561 64C23.9551 64 24.457 57.5 24.457 57.5L48.957 52.5L53.957 39L40.957 26Z" fill="#0ABAED"/>
<mask id="path-33-outside-1_2394_3578" maskUnits="userSpaceOnUse" x="18.1406" y="26" width="24" height="26" fill="black">
<rect fill="white" x="18.1406" y="26" width="24" height="26"/>
<path d="M23.1646 49.152C22.6846 49.2 22.3966 49.056 22.2046 48.624C22.0606 48.24 22.1086 47.952 22.3486 47.568C22.6846 47.04 23.3086 47.088 23.9326 47.04L23.8366 46.8C23.6446 46.416 23.4526 45.36 23.4046 44.448C23.3086 42.768 23.0206 43.248 23.1166 42.192C23.1646 41.664 23.1646 40.656 23.1646 39.408C23.1646 39.024 23.1646 38.64 23.2606 38.304C23.4046 37.584 23.4526 36.48 23.5966 35.52C23.6446 35.184 23.6446 34.752 23.6446 34.608L23.5966 34.368L23.0686 35.184C22.9726 35.328 22.6846 35.664 22.4926 35.856C21.6766 36.672 20.7646 36.816 20.6206 36.144C20.5246 35.76 20.9566 34.608 21.3886 34.176L21.8686 33.6L22.7326 32.448C23.3086 31.68 23.8846 30.72 23.8846 30.48C23.8846 30.144 24.1246 29.424 24.3166 29.136C24.4126 28.944 24.6046 28.8 24.7486 28.704C25.0846 28.512 25.6606 28.512 25.9966 28.656C26.4766 28.848 26.6686 29.04 27.0526 29.856C27.4366 30.672 27.4846 30.96 27.5806 31.92C27.6286 32.352 27.7246 32.688 27.8206 32.88C28.0126 33.36 28.0126 33.936 27.8206 34.416C27.6766 34.752 27.6766 34.848 27.7246 35.472C27.7246 35.952 27.7246 36.24 27.6766 36.432C27.6286 36.576 27.5806 37.056 27.5806 37.68C27.5806 38.448 27.5326 38.784 27.4366 39.072C27.3406 39.408 27.3406 39.552 27.3886 39.84C27.4846 40.32 27.4846 40.704 27.3406 41.136C27.2446 41.376 27.1966 41.664 27.1966 41.952L27.1486 42.816C27.0526 43.152 27.0526 43.344 27.1486 43.728C27.2926 44.352 27.2926 44.832 27.1486 45.216C27.1006 45.36 27.0046 45.744 26.9566 46.032C26.9086 46.32 26.8126 46.704 26.7166 46.896C26.5246 47.232 26.5246 47.28 27.1006 47.424C27.5806 47.568 27.7726 47.76 27.7726 48.144C27.7726 48.816 27.1486 49.008 24.7006 49.104L23.1646 49.152ZM36.4535 49.344C35.6375 49.392 35.2535 49.296 34.6295 48.96C34.2455 48.72 32.9495 48.288 32.5175 48.24C31.9895 48.192 31.5575 48.336 31.0775 48.672C30.1175 49.392 29.0615 48.96 28.9175 47.712C28.9175 47.376 28.9175 47.28 29.1095 46.848C29.2535 46.56 29.3495 46.224 29.3975 45.936C29.3975 45.648 29.5415 45.264 29.5895 45.024L29.9735 44.016C30.1175 43.536 30.2615 43.344 30.5975 42.912C30.8375 42.624 31.1255 42.096 31.3655 41.616C31.7015 40.944 31.8935 40.656 32.2295 40.32C32.7095 39.792 33.0935 39.12 33.2855 38.592C33.3335 38.4 33.4775 38.112 33.5735 37.92C34.3895 36.672 34.8695 35.712 34.9175 35.232C34.9175 35.04 35.0615 34.56 35.2055 34.176C35.4455 33.456 35.4935 32.88 35.3015 31.92C35.2055 31.296 35.1095 31.104 34.8695 31.152L34.3895 31.248C34.1495 31.296 33.9575 31.392 33.9095 31.488L33.4775 31.968C33.0935 32.4 33.0455 32.592 33.0935 33.744C33.0935 34.56 33.0935 34.608 33.3335 35.04C33.6215 35.616 33.6215 35.76 33.3815 36.048C33.0455 36.384 32.5175 36.288 32.1335 35.808C31.8455 35.472 31.5095 34.8 31.4135 34.32C31.3175 33.696 31.3175 32.592 31.4135 32.208C31.7015 31.296 31.7495 31.152 32.0375 30.816L32.4695 30.144C32.6135 29.808 32.7575 29.664 33.1415 29.424L33.9575 28.896C34.3895 28.608 34.6295 28.464 34.8215 28.416L35.3015 28.368H35.9735C36.4535 28.368 36.5975 28.416 37.1255 28.656C37.7975 28.992 38.2295 29.376 38.4215 29.808C38.6615 30.24 38.9495 31.104 38.9495 31.344C38.9495 31.488 38.9975 31.824 39.0935 32.112C39.4295 33.168 39.0935 33.024 38.9495 34.512C38.8535 35.28 38.5655 36.336 38.3735 36.72C38.3255 36.864 38.1815 37.104 38.0855 37.2C37.9415 37.344 37.7495 37.728 37.6055 38.064C37.5095 38.4 37.3175 38.784 37.1735 38.928C37.0775 39.072 36.9335 39.408 36.7895 39.648C36.6935 39.888 36.5015 40.176 36.4055 40.32C36.2135 40.608 36.1175 40.752 36.0215 41.232C35.9735 41.424 35.7815 41.712 35.5415 42C35.3495 42.288 35.0135 42.72 34.8695 43.008C34.7255 43.344 34.5335 43.632 34.4855 43.776C34.3895 43.872 34.1975 44.208 34.0535 44.496C33.9095 44.784 33.6215 45.216 33.4295 45.456C33.0455 45.984 32.9975 46.128 33.2375 46.128C33.3335 46.128 33.5735 46.224 33.8135 46.32C34.5335 46.704 35.4935 47.04 36.3575 47.184C36.9815 47.28 36.9335 47.184 37.7495 46.992C37.9415 46.896 38.1815 46.608 38.1335 46.32C38.1335 45.792 38.0375 45.552 37.6535 45.312C37.3655 45.072 37.3175 45.024 37.3175 44.832C37.3175 44.4 37.8935 44.208 38.4215 44.448C38.8055 44.64 38.9975 44.88 39.2855 45.504C39.4775 45.936 39.4775 46.08 39.4775 46.56C39.4775 47.376 39.3335 47.76 38.8535 48.24C38.6615 48.432 38.3735 48.672 38.2295 48.72L37.8455 48.912C37.1735 49.344 37.2215 49.296 36.4535 49.344Z"/>
</mask>
<path d="M23.1646 49.152C22.6846 49.2 22.3966 49.056 22.2046 48.624C22.0606 48.24 22.1086 47.952 22.3486 47.568C22.6846 47.04 23.3086 47.088 23.9326 47.04L23.8366 46.8C23.6446 46.416 23.4526 45.36 23.4046 44.448C23.3086 42.768 23.0206 43.248 23.1166 42.192C23.1646 41.664 23.1646 40.656 23.1646 39.408C23.1646 39.024 23.1646 38.64 23.2606 38.304C23.4046 37.584 23.4526 36.48 23.5966 35.52C23.6446 35.184 23.6446 34.752 23.6446 34.608L23.5966 34.368L23.0686 35.184C22.9726 35.328 22.6846 35.664 22.4926 35.856C21.6766 36.672 20.7646 36.816 20.6206 36.144C20.5246 35.76 20.9566 34.608 21.3886 34.176L21.8686 33.6L22.7326 32.448C23.3086 31.68 23.8846 30.72 23.8846 30.48C23.8846 30.144 24.1246 29.424 24.3166 29.136C24.4126 28.944 24.6046 28.8 24.7486 28.704C25.0846 28.512 25.6606 28.512 25.9966 28.656C26.4766 28.848 26.6686 29.04 27.0526 29.856C27.4366 30.672 27.4846 30.96 27.5806 31.92C27.6286 32.352 27.7246 32.688 27.8206 32.88C28.0126 33.36 28.0126 33.936 27.8206 34.416C27.6766 34.752 27.6766 34.848 27.7246 35.472C27.7246 35.952 27.7246 36.24 27.6766 36.432C27.6286 36.576 27.5806 37.056 27.5806 37.68C27.5806 38.448 27.5326 38.784 27.4366 39.072C27.3406 39.408 27.3406 39.552 27.3886 39.84C27.4846 40.32 27.4846 40.704 27.3406 41.136C27.2446 41.376 27.1966 41.664 27.1966 41.952L27.1486 42.816C27.0526 43.152 27.0526 43.344 27.1486 43.728C27.2926 44.352 27.2926 44.832 27.1486 45.216C27.1006 45.36 27.0046 45.744 26.9566 46.032C26.9086 46.32 26.8126 46.704 26.7166 46.896C26.5246 47.232 26.5246 47.28 27.1006 47.424C27.5806 47.568 27.7726 47.76 27.7726 48.144C27.7726 48.816 27.1486 49.008 24.7006 49.104L23.1646 49.152ZM36.4535 49.344C35.6375 49.392 35.2535 49.296 34.6295 48.96C34.2455 48.72 32.9495 48.288 32.5175 48.24C31.9895 48.192 31.5575 48.336 31.0775 48.672C30.1175 49.392 29.0615 48.96 28.9175 47.712C28.9175 47.376 28.9175 47.28 29.1095 46.848C29.2535 46.56 29.3495 46.224 29.3975 45.936C29.3975 45.648 29.5415 45.264 29.5895 45.024L29.9735 44.016C30.1175 43.536 30.2615 43.344 30.5975 42.912C30.8375 42.624 31.1255 42.096 31.3655 41.616C31.7015 40.944 31.8935 40.656 32.2295 40.32C32.7095 39.792 33.0935 39.12 33.2855 38.592C33.3335 38.4 33.4775 38.112 33.5735 37.92C34.3895 36.672 34.8695 35.712 34.9175 35.232C34.9175 35.04 35.0615 34.56 35.2055 34.176C35.4455 33.456 35.4935 32.88 35.3015 31.92C35.2055 31.296 35.1095 31.104 34.8695 31.152L34.3895 31.248C34.1495 31.296 33.9575 31.392 33.9095 31.488L33.4775 31.968C33.0935 32.4 33.0455 32.592 33.0935 33.744C33.0935 34.56 33.0935 34.608 33.3335 35.04C33.6215 35.616 33.6215 35.76 33.3815 36.048C33.0455 36.384 32.5175 36.288 32.1335 35.808C31.8455 35.472 31.5095 34.8 31.4135 34.32C31.3175 33.696 31.3175 32.592 31.4135 32.208C31.7015 31.296 31.7495 31.152 32.0375 30.816L32.4695 30.144C32.6135 29.808 32.7575 29.664 33.1415 29.424L33.9575 28.896C34.3895 28.608 34.6295 28.464 34.8215 28.416L35.3015 28.368H35.9735C36.4535 28.368 36.5975 28.416 37.1255 28.656C37.7975 28.992 38.2295 29.376 38.4215 29.808C38.6615 30.24 38.9495 31.104 38.9495 31.344C38.9495 31.488 38.9975 31.824 39.0935 32.112C39.4295 33.168 39.0935 33.024 38.9495 34.512C38.8535 35.28 38.5655 36.336 38.3735 36.72C38.3255 36.864 38.1815 37.104 38.0855 37.2C37.9415 37.344 37.7495 37.728 37.6055 38.064C37.5095 38.4 37.3175 38.784 37.1735 38.928C37.0775 39.072 36.9335 39.408 36.7895 39.648C36.6935 39.888 36.5015 40.176 36.4055 40.32C36.2135 40.608 36.1175 40.752 36.0215 41.232C35.9735 41.424 35.7815 41.712 35.5415 42C35.3495 42.288 35.0135 42.72 34.8695 43.008C34.7255 43.344 34.5335 43.632 34.4855 43.776C34.3895 43.872 34.1975 44.208 34.0535 44.496C33.9095 44.784 33.6215 45.216 33.4295 45.456C33.0455 45.984 32.9975 46.128 33.2375 46.128C33.3335 46.128 33.5735 46.224 33.8135 46.32C34.5335 46.704 35.4935 47.04 36.3575 47.184C36.9815 47.28 36.9335 47.184 37.7495 46.992C37.9415 46.896 38.1815 46.608 38.1335 46.32C38.1335 45.792 38.0375 45.552 37.6535 45.312C37.3655 45.072 37.3175 45.024 37.3175 44.832C37.3175 44.4 37.8935 44.208 38.4215 44.448C38.8055 44.64 38.9975 44.88 39.2855 45.504C39.4775 45.936 39.4775 46.08 39.4775 46.56C39.4775 47.376 39.3335 47.76 38.8535 48.24C38.6615 48.432 38.3735 48.672 38.2295 48.72L37.8455 48.912C37.1735 49.344 37.2215 49.296 36.4535 49.344Z" fill="white"/>
<path d="M23.1646 49.152L23.1022 47.153L23.0337 47.1551L22.9656 47.1619L23.1646 49.152ZM22.2046 48.624L20.332 49.3262L20.3528 49.3819L20.377 49.4363L22.2046 48.624ZM22.3486 47.568L20.6613 46.4942L20.6569 46.5011L20.6526 46.508L22.3486 47.568ZM23.9326 47.04L24.086 49.0341L26.8008 48.8253L25.7896 46.2972L23.9326 47.04ZM23.8366 46.8L25.6936 46.0572L25.6627 45.98L25.6255 45.9056L23.8366 46.8ZM23.4046 44.448L25.4019 44.3429L25.4014 44.3339L23.4046 44.448ZM23.1166 42.192L25.1084 42.3731H25.1084L23.1166 42.192ZM23.2606 38.304L25.1837 38.8534L25.2059 38.7756L25.2218 38.6962L23.2606 38.304ZM23.5966 35.52L25.5745 35.8167L25.5765 35.8028L23.5966 35.52ZM23.6446 34.608H25.6446V34.41L25.6058 34.2158L23.6446 34.608ZM23.5966 34.368L25.5578 33.9758L24.5922 29.1478L21.9175 33.2815L23.5966 34.368ZM23.0686 35.184L24.7327 36.2934L24.7403 36.282L24.7478 36.2705L23.0686 35.184ZM22.4926 35.856L21.0784 34.4418L21.0784 34.4418L22.4926 35.856ZM20.6206 36.144L22.5762 35.7249L22.5691 35.6918L22.5609 35.6589L20.6206 36.144ZM21.3886 34.176L22.8028 35.5902L22.867 35.5261L22.9251 35.4564L21.3886 34.176ZM21.8686 33.6L23.4051 34.8804L23.4379 34.841L23.4686 34.8L21.8686 33.6ZM22.7326 32.448L24.3326 33.648H24.3326L22.7326 32.448ZM24.3166 29.136L25.9807 30.2454L26.0498 30.1418L26.1055 30.0304L24.3166 29.136ZM24.7486 28.704L23.7563 26.9675L23.6965 27.0017L23.6392 27.0399L24.7486 28.704ZM25.9966 28.656L25.2088 30.4943L25.2312 30.5039L25.2538 30.513L25.9966 28.656ZM27.5806 31.92L25.5906 32.119L25.5916 32.1299L25.5929 32.1409L27.5806 31.92ZM27.8206 32.88L29.6776 32.1372L29.6467 32.06L29.6095 31.9856L27.8206 32.88ZM27.8206 34.416L29.6589 35.2038L29.6685 35.1814L29.6776 35.1588L27.8206 34.416ZM27.7246 35.472H29.7246V35.3952L29.7187 35.3186L27.7246 35.472ZM27.6766 36.432L29.574 37.0645L29.5983 36.9916L29.6169 36.9171L27.6766 36.432ZM27.4366 39.072L25.5393 38.4395L25.5255 38.4808L25.5136 38.5226L27.4366 39.072ZM27.3886 39.84L25.4158 40.1688L25.4211 40.2006L25.4275 40.2322L27.3886 39.84ZM27.3406 41.136L29.1976 41.8788L29.2194 41.8242L29.238 41.7685L27.3406 41.136ZM27.1966 41.952L29.1935 42.0629L29.1966 42.0075V41.952H27.1966ZM27.1486 42.816L29.0717 43.3654L29.1331 43.1503L29.1455 42.9269L27.1486 42.816ZM27.1486 43.728L29.0974 43.2783L29.0933 43.2606L29.0889 43.2429L27.1486 43.728ZM27.1486 45.216L25.276 44.5138L25.263 44.5484L25.2513 44.5835L27.1486 45.216ZM26.7166 46.896L28.4531 47.8883L28.4807 47.8401L28.5055 47.7904L26.7166 46.896ZM27.1006 47.424L27.6753 45.5083L27.6308 45.495L27.5857 45.4837L27.1006 47.424ZM24.7006 49.104L24.7631 51.103L24.771 51.1028L24.779 51.1025L24.7006 49.104ZM22.9656 47.1619C22.9411 47.1644 23.1979 47.131 23.5248 47.3071C23.8756 47.4959 24.0107 47.7633 24.0322 47.8117L20.377 49.4363C20.5905 49.9167 20.9657 50.4721 21.6284 50.8289C22.2673 51.173 22.9082 51.1876 23.3636 51.1421L22.9656 47.1619ZM24.0773 47.9218C24.0939 47.966 24.1465 48.1411 24.1125 48.3788C24.0825 48.5891 24.0056 48.6905 24.0446 48.628L20.6526 46.508C20.4517 46.8295 20.2308 47.2669 20.1527 47.8132C20.0708 48.3869 20.1714 48.898 20.332 49.3262L24.0773 47.9218ZM24.0359 48.6418C23.998 48.7013 23.9483 48.7646 23.8857 48.8258C23.8232 48.8869 23.757 48.937 23.6921 48.9766C23.5647 49.0544 23.468 49.0761 23.4575 49.0784C23.4534 49.0792 23.4868 49.0721 23.6074 49.0637C23.6662 49.0596 23.7263 49.0564 23.8104 49.0517C23.8882 49.0474 23.9849 49.0419 24.086 49.0341L23.7792 45.0459C23.6914 45.0526 23.0618 45.0709 22.6078 45.1696C21.9951 45.3028 21.2035 45.6422 20.6613 46.4942L24.0359 48.6418ZM25.7896 46.2972L25.6936 46.0572L21.9797 47.5428L22.0757 47.7828L25.7896 46.2972ZM25.6255 45.9056C25.6641 45.9827 25.6568 45.991 25.624 45.8711C25.597 45.7723 25.5654 45.6338 25.5339 45.4618C25.4706 45.1159 25.4211 44.7091 25.4019 44.3429L21.4074 44.5531C21.4361 45.0989 21.5067 45.6761 21.5993 46.1822C21.6792 46.6187 21.8137 47.2263 22.0478 47.6944L25.6255 45.9056ZM25.4014 44.3339C25.374 43.8543 25.3303 43.4804 25.2713 43.1662C25.2089 42.8338 25.1364 42.6088 25.0911 42.469C25.0541 42.355 25.084 42.4343 25.0944 42.5241C25.1018 42.5883 25.0902 42.5737 25.1084 42.3731L21.1248 42.0109C21.0951 42.3383 21.0834 42.6597 21.1209 42.9834C21.1612 43.3327 21.2512 43.595 21.2862 43.703C21.3128 43.7852 21.3244 43.8212 21.34 43.9043C21.359 44.0056 21.3873 44.2017 21.4079 44.5621L25.4014 44.3339ZM25.1084 42.3731C25.1669 41.7293 25.1646 40.5978 25.1646 39.408H21.1646C21.1646 40.7142 21.1623 41.5987 21.1248 42.0109L25.1084 42.3731ZM25.1646 39.408C25.1646 39.2038 25.1653 39.0773 25.1725 38.9668C25.1793 38.8607 25.189 38.8349 25.1837 38.8534L21.3376 37.7546C21.15 38.4109 21.1646 39.0928 21.1646 39.408H25.1646ZM25.2218 38.6962C25.3167 38.2218 25.3729 37.6644 25.4189 37.1986C25.4692 36.6902 25.5118 36.2346 25.5745 35.8167L21.6188 35.2233C21.5374 35.7654 21.4841 36.3418 21.4383 36.8054C21.3883 37.3116 21.3486 37.6662 21.2995 37.9118L25.2218 38.6962ZM25.5765 35.8028C25.6479 35.303 25.6446 34.7291 25.6446 34.608H21.6446C21.6446 34.6766 21.6445 34.7906 21.6399 34.9206C21.6349 35.0599 21.6261 35.1713 21.6167 35.2372L25.5765 35.8028ZM25.6058 34.2158L25.5578 33.9758L21.6355 34.7602L21.6835 35.0002L25.6058 34.2158ZM21.9175 33.2815L21.3895 34.0975L24.7478 36.2705L25.2758 35.4545L21.9175 33.2815ZM21.4045 34.0746C21.4264 34.0417 21.4306 34.039 21.3992 34.0786C21.3742 34.11 21.3395 34.1521 21.2981 34.2004C21.2107 34.3024 21.1266 34.3936 21.0784 34.4418L23.9068 37.2702C24.1458 37.0312 24.5347 36.5905 24.7327 36.2934L21.4045 34.0746ZM21.0784 34.4418C20.8477 34.6725 20.7823 34.6151 20.9979 34.5816C21.1211 34.5625 21.4654 34.5384 21.8573 34.7641C22.2995 35.0188 22.5116 35.4232 22.5762 35.7249L18.665 36.5631C18.8017 37.2008 19.1818 37.8392 19.8609 38.2304C20.4899 38.5926 21.1401 38.6075 21.6113 38.5343C22.523 38.3929 23.3216 37.8555 23.9068 37.2702L21.0784 34.4418ZM22.5609 35.6589C22.5896 35.7738 22.6 35.8675 22.6041 35.9284C22.6084 35.991 22.6073 36.0387 22.6058 36.0672C22.6031 36.1212 22.5973 36.1437 22.6005 36.1275C22.6031 36.1147 22.6097 36.086 22.6228 36.0424C22.6357 35.9997 22.6525 35.95 22.6733 35.896C22.7164 35.7841 22.7658 35.6804 22.8098 35.6032C22.8312 35.5658 22.8457 35.5444 22.8509 35.5372C22.8578 35.5276 22.843 35.55 22.8028 35.5902L19.9744 32.7618C19.4646 33.2716 19.1264 33.9752 18.9399 34.46C18.8342 34.7348 18.739 35.0389 18.6782 35.343C18.6325 35.5715 18.5436 36.0821 18.6803 36.6291L22.5609 35.6589ZM22.9251 35.4564L23.4051 34.8804L20.3322 32.3196L19.8522 32.8956L22.9251 35.4564ZM23.4686 34.8L24.3326 33.648L21.1326 31.248L20.2686 32.4L23.4686 34.8ZM24.3326 33.648C24.6625 33.2081 24.9918 32.715 25.247 32.2825C25.3732 32.0687 25.4988 31.8402 25.5998 31.6227C25.6497 31.5151 25.7074 31.3807 25.7565 31.2334C25.792 31.1266 25.8846 30.8386 25.8846 30.48H21.8846C21.8846 30.3085 21.9087 30.1785 21.9222 30.1153C21.9372 30.045 21.953 29.9946 21.961 29.9706C21.9763 29.9247 21.9846 29.9106 21.9715 29.9388C21.9464 29.9928 21.892 30.0973 21.8022 30.2495C21.6255 30.549 21.3787 30.9199 21.1326 31.248L24.3326 33.648ZM25.8846 30.48C25.8846 30.5502 25.8789 30.5936 25.878 30.6001C25.8767 30.61 25.8768 30.6061 25.8809 30.587C25.8894 30.5472 25.9058 30.4845 25.9304 30.4092C25.9547 30.3345 25.9801 30.2683 26.0007 30.2213C26.0055 30.2103 26.0094 30.2017 26.0124 30.1954C26.0154 30.1891 26.017 30.1861 26.017 30.1861C26.0169 30.1862 26.0163 30.1874 26.0151 30.1896C26.0139 30.1917 26.012 30.1951 26.0094 30.1997C26.0044 30.2083 25.9949 30.2241 25.9807 30.2454L22.6525 28.0266C22.405 28.3978 22.2299 28.8543 22.1269 29.1708C22.0298 29.4691 21.8846 29.9821 21.8846 30.48H25.8846ZM26.1055 30.0304C26.0095 30.2223 25.9006 30.3264 25.8712 30.3536C25.8374 30.3848 25.8227 30.3917 25.858 30.3681L23.6392 27.0399C23.4848 27.1428 22.881 27.535 22.5278 28.2416L26.1055 30.0304ZM25.7409 30.4405C25.6186 30.5104 25.526 30.5352 25.4909 30.5433C25.4512 30.5525 25.4299 30.5532 25.4252 30.5533C25.42 30.5534 25.4092 30.5536 25.3874 30.55C25.3703 30.5473 25.3059 30.5359 25.2088 30.4943L26.7845 26.8177C26.2839 26.6032 25.753 26.5433 25.32 26.5547C24.8946 26.5659 24.3077 26.6525 23.7563 26.9675L25.7409 30.4405ZM25.2538 30.513C25.3151 30.5375 25.294 30.5334 25.2427 30.5011C25.215 30.4836 25.1833 30.461 25.1506 30.4334C25.1179 30.4058 25.0914 30.3793 25.0715 30.3571C25.0338 30.3151 25.0325 30.3025 25.0673 30.362C25.1035 30.4239 25.1586 30.5283 25.243 30.7076L28.8623 29.0044C28.6633 28.5817 28.4165 28.096 28.0498 27.6869C27.6109 27.1974 27.133 26.9565 26.7394 26.799L25.2538 30.513ZM25.243 30.7076C25.4112 31.0649 25.4559 31.2032 25.482 31.3097C25.5155 31.4465 25.5409 31.6222 25.5906 32.119L29.5707 31.721C29.5244 31.2578 29.4777 30.8095 29.3672 30.3583C29.2493 29.8768 29.0781 29.4631 28.8623 29.0044L25.243 30.7076ZM25.5929 32.1409C25.656 32.7088 25.7935 33.2979 26.0318 33.7744L29.6095 31.9856C29.6286 32.0237 29.6352 32.0435 29.6333 32.0384C29.6321 32.0351 29.6265 32.0186 29.6186 31.9881C29.6025 31.926 29.5828 31.8285 29.5684 31.6991L25.5929 32.1409ZM25.9637 33.6228C25.9607 33.6152 25.9612 33.6145 25.9624 33.6208C25.9635 33.6271 25.9646 33.6366 25.9646 33.648C25.9646 33.6594 25.9635 33.6689 25.9624 33.6752C25.9612 33.6815 25.9607 33.6807 25.9637 33.6732L29.6776 35.1588C30.0603 34.202 30.0603 33.094 29.6776 32.1372L25.9637 33.6228ZM25.9823 33.6282C25.8778 33.872 25.7458 34.2108 25.7075 34.6699C25.6793 35.009 25.7109 35.3703 25.7305 35.6254L29.7187 35.3186C29.7128 35.2415 29.7081 35.1788 29.7044 35.1247C29.7007 35.0705 29.6985 35.0317 29.6972 35.0028C29.6966 34.9888 29.6962 34.9786 29.6961 34.9715C29.696 34.968 29.696 34.9654 29.6959 34.9637C29.6959 34.9619 29.6959 34.9611 29.6959 34.9612C29.6959 34.9612 29.6959 34.965 29.6956 34.9719C29.6953 34.9789 29.6948 34.9891 29.6937 35.0021C29.6915 35.0292 29.6873 35.0632 29.6801 35.1018C29.6728 35.1405 29.6642 35.1744 29.6562 35.2017C29.6485 35.2276 29.6427 35.2428 29.6426 35.243C29.6426 35.2431 29.6437 35.2402 29.6465 35.2335C29.6492 35.2267 29.6532 35.2171 29.6589 35.2038L25.9823 33.6282ZM25.7246 35.472C25.7246 35.7263 25.7243 35.8743 25.7201 35.9831C25.7182 36.0326 25.7162 36.0512 25.7163 36.0503C25.7164 36.0497 25.7205 36.0102 25.7363 35.9469L29.6169 36.9171C29.7406 36.4224 29.7246 35.8129 29.7246 35.472H25.7246ZM25.7793 35.7995C25.6696 36.1285 25.6342 36.5105 25.6175 36.7099C25.5944 36.9881 25.5806 37.32 25.5806 37.68H29.5806C29.5806 37.416 29.5909 37.1959 29.6037 37.0421C29.6102 36.9644 29.6162 36.9168 29.6192 36.8967C29.6207 36.8868 29.62 36.8934 29.616 36.9124C29.6133 36.9252 29.6011 36.9831 29.574 37.0645L25.7793 35.7995ZM25.5806 37.68C25.5806 38.0313 25.5692 38.2243 25.5569 38.3351C25.5512 38.3861 25.5461 38.4121 25.544 38.4219C25.5423 38.43 25.5412 38.4337 25.5393 38.4395L29.334 39.7045C29.5342 39.1038 29.5806 38.5064 29.5806 37.68H25.5806ZM25.5136 38.5226C25.447 38.7557 25.3787 39.0396 25.3614 39.3689C25.3439 39.7013 25.3842 39.9789 25.4158 40.1688L29.3614 39.5112C29.3532 39.4619 29.3534 39.4555 29.3546 39.4692C29.3563 39.4893 29.3585 39.5289 29.3559 39.5791C29.3533 39.6286 29.3473 39.6639 29.3448 39.6768C29.3431 39.6854 29.3453 39.6718 29.3597 39.6214L25.5136 38.5226ZM25.4275 40.2322C25.4557 40.3733 25.4559 40.4324 25.4554 40.4489C25.4552 40.4567 25.4546 40.4609 25.454 40.4647C25.4532 40.4688 25.4508 40.4808 25.4433 40.5035L29.238 41.7685C29.5195 40.9239 29.4947 40.1724 29.3498 39.4478L25.4275 40.2322ZM25.4837 40.3932C25.2758 40.9129 25.1966 41.4609 25.1966 41.952H29.1966C29.1966 41.9172 29.1997 41.8881 29.203 41.8687C29.2046 41.8596 29.2058 41.8554 29.2056 41.8561C29.2055 41.8567 29.2033 41.8645 29.1976 41.8788L25.4837 40.3932ZM25.1997 41.8411L25.1517 42.7051L29.1455 42.9269L29.1935 42.0629L25.1997 41.8411ZM25.2256 42.2666C25.149 42.5344 25.0766 42.863 25.0766 43.254C25.0766 43.6296 25.1439 43.9554 25.2083 44.2131L29.0889 43.2429C29.0737 43.182 29.0705 43.161 29.0709 43.1638C29.072 43.1707 29.0766 43.204 29.0766 43.254C29.0766 43.3056 29.0717 43.3495 29.0668 43.3784C29.0628 43.4024 29.0609 43.4031 29.0717 43.3654L25.2256 42.2666ZM25.1998 44.1777C25.2479 44.3858 25.2566 44.5064 25.2566 44.562C25.2566 44.6116 25.2498 44.5836 25.276 44.5138L29.0213 45.9182C29.3608 45.013 29.284 44.0869 29.0974 43.2783L25.1998 44.1777ZM25.2513 44.5835C25.1639 44.8457 25.0454 45.3341 24.9838 45.7032L28.9294 46.3608C28.9432 46.278 28.9682 46.1586 28.9974 46.0367C29.0114 45.9785 29.0245 45.9273 29.0352 45.888C29.0475 45.8426 29.0512 45.8327 29.046 45.8485L25.2513 44.5835ZM24.9838 45.7032C24.9704 45.7839 24.9482 45.8881 24.9234 45.9801C24.9113 46.0248 24.9019 46.0546 24.8969 46.0692C24.8895 46.0906 24.8981 46.0609 24.9278 46.0016L28.5055 47.7904C28.742 47.3174 28.8753 46.6854 28.9294 46.3608L24.9838 45.7032ZM24.9801 45.9037C24.9541 45.9492 24.8094 46.1911 24.7173 46.4675C24.6059 46.8017 24.4444 47.5731 24.9565 48.3414C25.3491 48.9303 25.9188 49.1432 26.0527 49.1947C26.2577 49.2736 26.4741 49.3289 26.6156 49.3643L27.5857 45.4837C27.4392 45.4471 27.4395 45.4424 27.4886 45.4613C27.5188 45.4729 27.6208 45.5133 27.7491 45.5949C27.8792 45.6777 28.0972 45.8413 28.2847 46.1226C28.7489 46.8189 28.5874 47.5063 28.512 47.7325C28.4558 47.9009 28.3831 48.0108 28.4531 47.8883L24.9801 45.9037ZM26.5259 49.3397C26.6551 49.3784 26.4183 49.3371 26.1647 49.0695C26.0212 48.918 25.9107 48.7348 25.8436 48.5394C25.7807 48.3563 25.7726 48.2114 25.7726 48.144H29.7726C29.7726 47.5875 29.6181 46.8987 29.0685 46.3185C28.599 45.8229 28.0261 45.6136 27.6753 45.5083L26.5259 49.3397ZM25.7726 48.144C25.7726 47.9843 25.819 47.6151 26.112 47.2699C26.3613 46.9761 26.6133 46.9138 26.5595 46.9306C26.5146 46.9446 26.3591 46.982 26.0059 47.0188C25.6666 47.0542 25.2184 47.0822 24.6223 47.1055L24.779 51.1025C25.9538 51.0564 26.9921 50.9856 27.7498 50.7494C28.1579 50.6222 28.7189 50.3799 29.1617 49.8581C29.6483 49.2849 29.7726 48.6397 29.7726 48.144H25.7726ZM24.6382 47.105L23.1022 47.153L23.2271 51.151L24.7631 51.103L24.6382 47.105ZM36.4535 49.344L36.5709 51.3406L36.5783 51.3401L36.4535 49.344ZM34.6295 48.96L33.5695 50.656L33.6244 50.6903L33.6813 50.7209L34.6295 48.96ZM32.5175 48.24L32.7384 46.2522L32.7185 46.25L32.6986 46.2482L32.5175 48.24ZM31.0775 48.672L29.9306 47.0335L29.9037 47.0523L29.8775 47.072L31.0775 48.672ZM28.9175 47.712H26.9175V47.827L26.9307 47.9412L28.9175 47.712ZM29.1095 46.848L27.3206 45.9536L27.3003 45.9942L27.2819 46.0357L29.1095 46.848ZM29.3975 45.936L31.3703 46.2648L31.3975 46.1015V45.936H29.3975ZM29.5895 45.024L27.7205 44.312L27.6611 44.468L27.6283 44.6318L29.5895 45.024ZM29.9735 44.016L31.8425 44.728L31.8683 44.6602L31.8892 44.5907L29.9735 44.016ZM30.5975 42.912L29.0611 41.6316L29.0395 41.6575L29.0188 41.6841L30.5975 42.912ZM31.3655 41.616L33.1544 42.5104L33.1544 42.5104L31.3655 41.616ZM32.2295 40.32L33.6437 41.7342L33.6774 41.7006L33.7094 41.6653L32.2295 40.32ZM33.2855 38.592L35.1651 39.2755L35.2006 39.1779L35.2258 39.0771L33.2855 38.592ZM33.5735 37.92L31.8996 36.8255L31.8363 36.9222L31.7846 37.0256L33.5735 37.92ZM34.9175 35.232L36.9076 35.431L36.9175 35.3318V35.232H34.9175ZM35.2055 34.176L37.0782 34.8782L37.0912 34.8436L37.1029 34.8085L35.2055 34.176ZM35.3015 31.92L33.3248 32.2241L33.3316 32.2683L33.3403 32.3122L35.3015 31.92ZM34.8695 31.152L35.2617 33.1132H35.2617L34.8695 31.152ZM34.3895 31.248L34.7817 33.2092L34.7817 33.2092L34.3895 31.248ZM33.9095 31.488L35.3961 32.8259L35.5772 32.6246L35.6984 32.3824L33.9095 31.488ZM33.4775 31.968L31.9909 30.63L31.9827 30.6393L33.4775 31.968ZM33.0935 33.744H35.0935V33.7024L35.0918 33.6607L33.0935 33.744ZM33.3335 35.04L35.1224 34.1456L35.1029 34.1067L35.0818 34.0687L33.3335 35.04ZM33.3815 36.048L34.7957 37.4622L34.8599 37.3981L34.9179 37.3284L33.3815 36.048ZM32.1335 35.808L33.6952 34.5586L33.6741 34.5321L33.652 34.5064L32.1335 35.808ZM31.4135 34.32L29.4368 34.6241L29.4436 34.6683L29.4523 34.7122L31.4135 34.32ZM31.4135 32.208L29.5063 31.6057L29.488 31.6638L29.4732 31.7229L31.4135 32.208ZM32.0375 30.816L33.556 32.1176L33.6455 32.0132L33.7199 31.8975L32.0375 30.816ZM32.4695 30.144L34.1519 31.2255L34.2421 31.0852L34.3078 30.9318L32.4695 30.144ZM33.1415 29.424L34.2015 31.12L34.2148 31.1117L34.228 31.1031L33.1415 29.424ZM33.9575 28.896L35.044 30.5751L35.0555 30.5677L35.0669 30.5601L33.9575 28.896ZM34.8215 28.416L34.6225 26.4259L34.4776 26.4404L34.3364 26.4757L34.8215 28.416ZM35.3015 28.368V26.368H35.2018L35.1025 26.3779L35.3015 28.368ZM37.1255 28.656L38.0199 26.8671L37.9868 26.8506L37.9531 26.8353L37.1255 28.656ZM38.4215 29.808L36.5939 30.6203L36.63 30.7015L36.6732 30.7793L38.4215 29.808ZM39.0935 32.112L40.9994 31.5056L40.9952 31.4925L40.9909 31.4795L39.0935 32.112ZM38.9495 34.512L40.9341 34.7601L40.9375 34.7324L40.9402 34.7046L38.9495 34.512ZM38.3735 36.72L36.5846 35.8256L36.5211 35.9527L36.4761 36.0875L38.3735 36.72ZM37.6055 38.064L35.7672 37.2762L35.7173 37.3927L35.6825 37.5146L37.6055 38.064ZM37.1735 38.928L35.7593 37.5138L35.6193 37.6538L35.5094 37.8186L37.1735 38.928ZM36.7895 39.648L35.0745 38.619L34.9921 38.7564L34.9325 38.9052L36.7895 39.648ZM36.4055 40.32L34.7414 39.2106L34.7414 39.2106L36.4055 40.32ZM36.0215 41.232L37.9618 41.7171L37.9733 41.6709L37.9827 41.6242L36.0215 41.232ZM35.5415 42L34.0051 40.7196L33.9367 40.8017L33.8774 40.8906L35.5415 42ZM34.8695 43.008L33.0806 42.1136L33.0544 42.1661L33.0312 42.2202L34.8695 43.008ZM34.4855 43.776L35.8997 45.1902L36.2336 44.8564L36.3829 44.4085L34.4855 43.776ZM34.0535 44.496L32.2646 43.6016L34.0535 44.496ZM33.4295 45.456L31.8678 44.2066L31.8391 44.2425L31.812 44.2797L33.4295 45.456ZM33.8135 46.32L34.7547 44.5553L34.658 44.5037L34.5563 44.463L33.8135 46.32ZM36.3575 47.184L36.0287 49.1568L36.041 49.1588L36.0534 49.1607L36.3575 47.184ZM37.7495 46.992L38.2076 48.9388L38.435 48.8853L38.6439 48.7809L37.7495 46.992ZM38.1335 46.32H36.1335V46.4855L36.1607 46.6488L38.1335 46.32ZM37.6535 45.312L36.3731 46.8484L36.4779 46.9357L36.5935 47.008L37.6535 45.312ZM38.4215 44.448L39.3159 42.6591L39.2828 42.6426L39.2491 42.6273L38.4215 44.448ZM39.2855 45.504L41.1131 44.6917L41.1074 44.6788L41.1014 44.6659L39.2855 45.504ZM38.8535 48.24L37.4393 46.8258H37.4393L38.8535 48.24ZM38.2295 48.72L37.597 46.8226L37.4622 46.8676L37.3351 46.9311L38.2295 48.72ZM37.8455 48.912L36.9511 47.1231L36.8547 47.1714L36.764 47.2296L37.8455 48.912ZM36.3361 47.3475C36.0174 47.3662 35.9201 47.3472 35.8944 47.3416C35.876 47.3377 35.8101 47.3242 35.5777 47.1991L33.6813 50.7209C34.0729 50.9318 34.511 51.1343 35.0446 51.2504C35.5709 51.3647 36.0736 51.3698 36.5709 51.3405L36.3361 47.3475ZM35.6895 47.264C35.274 47.0043 34.6438 46.7725 34.232 46.6333C33.8125 46.4915 33.194 46.3029 32.7384 46.2522L32.2966 50.2278C32.2439 50.2219 32.2828 50.2234 32.4528 50.2694C32.5948 50.3079 32.7696 50.3614 32.951 50.4227C33.1328 50.4841 33.3029 50.5473 33.4371 50.6025C33.5997 50.6694 33.6231 50.6895 33.5695 50.656L35.6895 47.264ZM32.6986 46.2482C31.597 46.1481 30.7035 46.4925 29.9306 47.0335L32.2244 50.3105C32.3452 50.2259 32.3855 50.2181 32.3677 50.2236C32.3586 50.2263 32.3456 50.2292 32.3326 50.2304C32.3203 50.2316 32.3199 50.2303 32.3364 50.2318L32.6986 46.2482ZM29.8775 47.072C29.8289 47.1085 30.08 46.9188 30.4859 47.0946C30.896 47.2721 30.916 47.5838 30.9043 47.4827L26.9307 47.9412C27.063 49.0882 27.683 50.2399 28.8971 50.7654C30.107 51.2892 31.3661 50.9555 32.2775 50.272L29.8775 47.072ZM30.9175 47.712C30.9175 47.6905 30.9175 47.6729 30.9175 47.6565C30.9176 47.6404 30.9177 47.6277 30.9178 47.6172C30.918 47.5954 30.9183 47.5891 30.9182 47.5911C30.9181 47.5944 30.9173 47.609 30.9148 47.6313C30.9121 47.6543 30.9082 47.6805 30.9027 47.7082C30.8972 47.7357 30.8913 47.7584 30.8866 47.775C30.882 47.7908 30.8792 47.7984 30.8803 47.7954C30.8815 47.7921 30.8859 47.7802 30.8955 47.7569C30.9051 47.7336 30.9185 47.7023 30.9371 47.6603L27.2819 46.0357C27.1741 46.2781 27.0497 46.5769 26.9803 46.9238C26.9106 47.2725 26.9175 47.5846 26.9175 47.712H30.9175ZM30.8984 47.7424C31.1497 47.2398 31.2969 46.7049 31.3703 46.2648L27.4247 45.6072C27.415 45.6654 27.3992 45.7347 27.3779 45.8038C27.3563 45.8742 27.335 45.9249 27.3206 45.9536L30.8984 47.7424ZM31.3975 45.936C31.3975 46.021 31.3878 46.0674 31.3899 46.0554C31.3914 46.0474 31.3968 46.0208 31.4115 45.9639C31.4284 45.8986 31.4417 45.8528 31.4688 45.7535C31.4895 45.6776 31.5239 45.5501 31.5507 45.4162L27.6283 44.6318C27.6311 44.6179 27.6295 44.6284 27.6097 44.701C27.5963 44.7502 27.5646 44.8634 27.5395 44.9601C27.4943 45.1344 27.3975 45.5164 27.3975 45.936H31.3975ZM31.4585 45.736L31.8425 44.728L28.1045 43.304L27.7205 44.312L31.4585 45.736ZM31.8892 44.5907C31.9094 44.5231 31.9219 44.4917 31.9266 44.4805C31.93 44.4727 31.9311 44.4706 31.9341 44.4656C31.9392 44.457 31.9541 44.4329 31.9935 44.3789C32.036 44.3208 32.0898 44.251 32.1762 44.1399L29.0188 41.6841C28.6442 42.1658 28.3114 42.5961 28.0578 43.4413L31.8892 44.5907ZM32.1339 44.1924C32.5442 43.7 32.926 42.9672 33.1544 42.5104L29.5766 40.7216C29.4667 40.9414 29.3548 41.1541 29.2506 41.3339C29.199 41.4232 29.1541 41.4959 29.117 41.552C29.0778 41.6112 29.0591 41.6339 29.0611 41.6316L32.1339 44.1924ZM33.1544 42.5104C33.3102 42.1987 33.3987 42.0458 33.4616 41.9514C33.5103 41.8784 33.5548 41.8232 33.6437 41.7342L30.8153 38.9058C30.2654 39.4557 29.9597 39.9555 29.5766 40.7216L33.1544 42.5104ZM33.7094 41.6653C34.3696 40.9391 34.8869 40.0406 35.1651 39.2755L31.4059 37.9085C31.3001 38.1994 31.0494 38.6449 30.7496 38.9747L33.7094 41.6653ZM35.2258 39.0771C35.2116 39.1338 35.2003 39.1606 35.2058 39.146C35.2096 39.1361 35.2188 39.1136 35.2353 39.0767C35.27 38.9997 35.312 38.9151 35.3624 38.8144L31.7846 37.0256C31.7312 37.1324 31.4593 37.6508 31.3452 38.1069L35.2258 39.0771ZM35.2474 39.0145C35.6815 38.3507 36.0489 37.7293 36.3224 37.1824C36.5619 36.7034 36.8445 36.0622 36.9076 35.431L32.9274 35.033C32.9388 34.9192 32.9597 34.8932 32.9229 34.9942C32.8918 35.0794 32.8359 35.2112 32.7446 35.3936C32.5621 35.7587 32.2815 36.2413 31.8996 36.8255L35.2474 39.0145ZM36.9175 35.232C36.9175 35.3234 36.9096 35.387 36.9071 35.4067C36.9038 35.4313 36.9014 35.4422 36.9027 35.4359C36.9055 35.4219 36.9144 35.3829 36.9328 35.3175C36.9694 35.1874 37.023 35.0254 37.0782 34.8782L33.3328 33.4738C33.244 33.7106 33.1536 33.9806 33.0822 34.2345C33.0341 34.4055 32.9175 34.8234 32.9175 35.232H36.9175ZM37.1029 34.8085C37.4626 33.7291 37.5166 32.7976 37.2627 31.5278L33.3403 32.3122C33.4704 32.9624 33.4284 33.1829 33.3081 33.5435L37.1029 34.8085ZM37.2782 31.6159C37.2367 31.3456 37.1534 30.7955 36.8919 30.3202C36.7317 30.0288 36.426 29.6152 35.8822 29.3571C35.3311 29.0956 34.8107 29.1241 34.4773 29.1908L35.2617 33.1132C35.0483 33.1558 34.6299 33.1904 34.1673 32.9709C33.712 32.7548 33.4813 32.4192 33.3871 32.2478C33.3004 32.0903 33.2787 31.9822 33.287 32.0151C33.2917 32.0338 33.3048 32.0941 33.3248 32.2241L37.2782 31.6159ZM34.4773 29.1908L33.9973 29.2868L34.7817 33.2092L35.2617 33.1132L34.4773 29.1908ZM33.9973 29.2868C33.7391 29.3385 33.456 29.4247 33.1831 29.5611C33.0043 29.6505 32.4458 29.9433 32.1206 30.5936L35.6984 32.3824C35.5409 32.6974 35.3368 32.8836 35.2353 32.9665C35.1216 33.0592 35.0248 33.1124 34.9719 33.1389C34.867 33.1913 34.7999 33.2055 34.7817 33.2092L33.9973 29.2868ZM32.4229 30.1501L31.9909 30.6301L34.9641 33.3059L35.3961 32.8259L32.4229 30.1501ZM31.9827 30.6393C31.7011 30.956 31.3318 31.4203 31.17 32.1572C31.0505 32.7018 31.0735 33.3063 31.0952 33.8273L35.0918 33.6607C35.08 33.3794 35.0764 33.2029 35.0788 33.0814C35.0813 32.9591 35.0894 32.9584 35.077 33.0148C35.0697 33.0481 35.0568 33.0947 35.0354 33.1491C35.0138 33.204 34.9892 33.252 34.9661 33.2908C34.9263 33.3575 34.9018 33.3761 34.9723 33.2967L31.9827 30.6393ZM31.0935 33.744C31.0935 34.0612 31.0855 34.5003 31.1546 34.8876C31.2487 35.4144 31.4626 35.7906 31.5852 36.0113L35.0818 34.0687C35.0543 34.0191 35.039 33.9909 35.0294 33.9723C35.0203 33.9549 35.0229 33.9586 35.0303 33.9758C35.0387 33.9952 35.0515 34.0275 35.0644 34.0694C35.0774 34.1119 35.0864 34.1513 35.0924 34.1844C35.1025 34.2414 35.099 34.2575 35.0964 34.1705C35.0937 34.0811 35.0935 33.9596 35.0935 33.744H31.0935ZM31.5446 35.9344C31.6078 36.0608 31.6229 36.1005 31.6213 36.096C31.6201 36.0928 31.5663 35.9539 31.5572 35.7353C31.5464 35.4756 31.6022 35.2222 31.7017 35.0078C31.7816 34.8357 31.8668 34.7415 31.8451 34.7676L34.9179 37.3284C35.1307 37.0731 35.5915 36.4738 35.5538 35.5687C35.5272 34.9301 35.2374 34.3757 35.1224 34.1456L31.5446 35.9344ZM31.9673 34.6338C32.2847 34.3163 32.7446 34.1927 33.1473 34.2689C33.4966 34.3349 33.6607 34.5154 33.6952 34.5586L30.5718 37.0574C30.9903 37.5806 31.6104 38.0491 32.4037 38.1991C33.2504 38.3593 34.1423 38.1157 34.7957 37.4622L31.9673 34.6338ZM33.652 34.5064C33.6629 34.5191 33.6464 34.5011 33.6096 34.4422C33.5755 34.3876 33.5366 34.3179 33.4983 34.2396C33.46 34.1613 33.4282 34.0863 33.405 34.0226C33.3804 33.9552 33.3738 33.9234 33.3747 33.9278L29.4523 34.7122C29.5453 35.1772 29.7277 35.6343 29.9047 35.9964C30.0807 36.3563 30.3231 36.7691 30.615 37.1096L33.652 34.5064ZM33.3902 34.0159C33.3634 33.8415 33.3415 33.52 33.3415 33.174C33.3415 33.0093 33.3465 32.8648 33.3544 32.7554C33.3641 32.6202 33.3726 32.6176 33.3538 32.6931L29.4732 31.7229C29.3593 32.1787 29.3415 32.7733 29.3415 33.174C29.3415 33.632 29.3676 34.1745 29.4368 34.6241L33.3902 34.0159ZM33.3207 32.8103C33.3943 32.5772 33.4452 32.4167 33.4874 32.2913C33.5298 32.1653 33.5503 32.1149 33.5578 32.0976C33.56 32.0927 33.5491 32.117 33.5282 32.1487C33.5126 32.1723 33.5098 32.1715 33.556 32.1176L30.519 29.5144C30.2894 29.7823 30.0793 30.069 29.8932 30.4944C29.7558 30.8084 29.6352 31.1976 29.5063 31.6057L33.3207 32.8103ZM33.7199 31.8975L34.1519 31.2255L30.7871 29.0625L30.3551 29.7345L33.7199 31.8975ZM34.3078 30.9318C34.3173 30.9096 34.3098 30.9307 34.2839 30.9728C34.2547 31.0202 34.2156 31.0725 34.1695 31.1212C34.1265 31.1668 34.0959 31.1896 34.0975 31.1884C34.1027 31.1845 34.1301 31.1646 34.2015 31.12L32.0815 27.728C31.8535 27.8705 31.5442 28.0754 31.2615 28.3748C30.9491 28.7055 30.763 29.0487 30.6312 29.3562L34.3078 30.9318ZM34.228 31.1031L35.044 30.5751L32.871 27.2169L32.055 27.7449L34.228 31.1031ZM35.0669 30.5601C35.169 30.492 35.2512 30.4382 35.3196 30.3948C35.3885 30.351 35.4342 30.3238 35.4636 30.3071C35.4936 30.2902 35.4936 30.2917 35.4717 30.3014C35.4487 30.3115 35.3912 30.3351 35.3066 30.3563L34.3364 26.4757C33.7379 26.6253 33.1883 27.0051 32.8481 27.2319L35.0669 30.5601ZM35.0205 30.4061L35.5005 30.3581L35.1025 26.3779L34.6225 26.4259L35.0205 30.4061ZM35.3015 30.368H35.9735V26.368H35.3015V30.368ZM35.9735 30.368C36.0176 30.368 36.048 30.3686 36.0692 30.3693C36.09 30.37 36.0982 30.3708 36.0977 30.3708C36.0898 30.37 36.0623 30.3665 36.0296 30.358C36.0028 30.351 36.0007 30.3479 36.045 30.3657C36.095 30.3858 36.1675 30.4175 36.2979 30.4767L37.9531 26.8353C37.7101 26.7248 37.3892 26.5782 37.0334 26.486C36.6296 26.3813 36.277 26.368 35.9735 26.368V30.368ZM36.2311 30.4449C36.4542 30.5564 36.5724 30.6443 36.6248 30.6908C36.6741 30.7347 36.6364 30.716 36.5939 30.6203L40.2491 28.9957C39.7857 27.9531 38.8772 27.2958 38.0199 26.8671L36.2311 30.4449ZM36.6732 30.7793C36.6843 30.7994 36.7153 30.8609 36.7597 30.9671C36.8015 31.0672 36.8442 31.1807 36.882 31.2918C36.9205 31.4052 36.9473 31.4967 36.9619 31.5542C36.9692 31.5832 36.9695 31.5881 36.9669 31.5733C36.9655 31.5652 36.9618 31.5436 36.9583 31.5116C36.9551 31.4825 36.9495 31.4232 36.9495 31.344H40.9495C40.9495 31.0109 40.8712 30.6978 40.8396 30.5728C40.7927 30.3873 40.7325 30.1908 40.669 30.0042C40.5497 29.6532 40.3729 29.2023 40.1698 28.8367L36.6732 30.7793ZM36.9495 31.344C36.9495 31.7325 37.0422 32.2825 37.1961 32.7445L40.9909 31.4795C40.9874 31.4691 40.9813 31.4489 40.9742 31.4195C40.9672 31.3908 40.961 31.3603 40.9559 31.3313C40.9508 31.3018 40.9482 31.281 40.9472 31.2721C40.9468 31.268 40.9471 31.2705 40.9477 31.2793C40.9482 31.2866 40.9495 31.3094 40.9495 31.344H36.9495ZM37.1876 32.7184C37.2506 32.9162 37.2447 32.9456 37.2402 32.8932C37.2325 32.8019 37.2472 32.7247 37.2453 32.7338C37.2236 32.8357 37.0453 33.4259 36.9588 34.3194L40.9402 34.7046C40.9977 34.1101 41.0594 34.0283 41.1577 33.5662C41.2158 33.2933 41.2606 32.961 41.2258 32.5532C41.1943 32.1844 41.1044 31.8357 40.9994 31.5056L37.1876 32.7184ZM36.9649 34.2639C36.9311 34.5347 36.8564 34.8994 36.7641 35.2482C36.7191 35.4182 36.6744 35.5674 36.6354 35.6834C36.5912 35.8147 36.5716 35.8516 36.5846 35.8256L40.1624 37.6144C40.3557 37.2278 40.5176 36.6998 40.6309 36.2718C40.7546 35.8046 40.8719 35.2573 40.9341 34.7601L36.9649 34.2639ZM36.4761 36.0875C36.5021 36.0098 36.5247 35.9645 36.5269 35.96C36.5322 35.9492 36.5339 35.9467 36.5325 35.949C36.5309 35.9517 36.5342 35.9457 36.5454 35.9303C36.5514 35.9221 36.563 35.9065 36.5804 35.8854C36.5966 35.8657 36.6271 35.83 36.6713 35.7858L39.4997 38.6142C39.7208 38.3932 39.8801 38.1443 39.9625 38.007C40.0518 37.8581 40.1814 37.6208 40.2709 37.3525L36.4761 36.0875ZM36.6713 35.7858C36.3738 36.0833 36.1733 36.4469 36.0846 36.6118C35.9642 36.8353 35.8546 37.0722 35.7672 37.2762L39.4438 38.8518C39.5004 38.7198 39.5588 38.5967 39.6064 38.5082C39.6302 38.464 39.6419 38.4462 39.6403 38.4485C39.639 38.4505 39.6292 38.4654 39.6107 38.4893C39.5937 38.5112 39.5567 38.5572 39.4997 38.6142L36.6713 35.7858ZM35.6825 37.5146C35.6786 37.5282 35.6704 37.5533 35.6574 37.5862C35.6446 37.6186 35.6309 37.6491 35.6186 37.6736C35.6128 37.6854 35.6083 37.6936 35.6057 37.6981C35.603 37.7029 35.6038 37.7012 35.6086 37.6938C35.6129 37.6871 35.6249 37.6689 35.6453 37.6425C35.6558 37.6288 35.67 37.6111 35.688 37.5903C35.7058 37.5697 35.7295 37.5436 35.7593 37.5138L38.5877 40.3422C38.8934 40.0365 39.0931 39.669 39.1964 39.4624C39.3235 39.2081 39.443 38.9128 39.5285 38.6134L35.6825 37.5146ZM35.5094 37.8186C35.4263 37.9432 35.3606 38.0654 35.3239 38.135C35.2827 38.2132 35.2411 38.2966 35.2106 38.3576C35.1361 38.5068 35.0994 38.5776 35.0745 38.619L38.5045 40.677C38.6236 40.4784 38.7309 40.2612 38.7884 40.1464C38.8239 40.0754 38.8453 40.0328 38.8626 40C38.8844 39.9586 38.8727 39.9848 38.8376 40.0374L35.5094 37.8186ZM34.9325 38.9052C34.9409 38.8843 34.9426 38.8835 34.9308 38.906C34.9201 38.9264 34.9042 38.9549 34.8825 38.991C34.8378 39.0656 34.7899 39.1378 34.7414 39.2106L38.0696 41.4294C38.1364 41.3292 38.4582 40.8614 38.6465 40.3908L34.9325 38.9052ZM34.7414 39.2106C34.6603 39.3323 34.4948 39.5728 34.3568 39.8764C34.2112 40.1966 34.1256 40.5137 34.0603 40.8398L37.9827 41.6242C38.0134 41.4703 38.0238 41.4754 37.9982 41.5316C37.987 41.5563 37.9789 41.5687 37.9856 41.5577C37.99 41.5506 37.9978 41.538 38.0123 41.5159C38.0274 41.4928 38.0445 41.4671 38.0696 41.4294L34.7414 39.2106ZM34.0812 40.7469C34.0985 40.6778 34.117 40.6247 34.1302 40.5904C34.1437 40.5553 34.1553 40.5303 34.162 40.5166C34.1689 40.5024 34.1732 40.495 34.1734 40.4945C34.1738 40.4939 34.1716 40.4978 34.1662 40.5062C34.1549 40.5239 34.1356 40.5524 34.1069 40.591C34.0786 40.629 34.0445 40.6723 34.0051 40.7196L37.0779 43.2804C37.2354 43.0914 37.3986 42.8773 37.5408 42.6538C37.6613 42.4644 37.8591 42.1278 37.9618 41.7171L34.0812 40.7469ZM33.8774 40.8906C33.795 41.0142 33.7172 41.1168 33.549 41.3571C33.4273 41.5309 33.2267 41.8214 33.0806 42.1136L36.6584 43.9024C36.6497 43.9196 36.656 43.905 36.6925 43.848C36.726 43.7957 36.7699 43.731 36.826 43.6509C36.8836 43.5686 36.939 43.4914 37.0061 43.3969C37.0673 43.3108 37.1396 43.2085 37.2056 43.1094L33.8774 40.8906ZM33.0312 42.2202C33.0002 42.2925 32.9573 42.375 32.8857 42.5063C32.8569 42.5591 32.8081 42.6477 32.7669 42.7278C32.733 42.7937 32.6516 42.9531 32.5881 43.1435L36.3829 44.4085C36.3594 44.479 36.3379 44.5271 36.3311 44.5419C36.3231 44.5595 36.3193 44.5664 36.3241 44.5572C36.3369 44.5323 36.3541 44.5009 36.3973 44.4217C36.4697 44.289 36.5948 44.0595 36.7078 43.7958L33.0312 42.2202ZM33.0713 42.3618C32.8164 42.6166 32.6254 42.9454 32.5656 43.0465C32.4601 43.2252 32.3539 43.423 32.2646 43.6016L35.8424 45.3904C35.8971 45.281 35.9589 45.1668 36.0094 45.0815C36.0212 45.0613 36.0311 45.0452 36.0388 45.033C36.0467 45.0204 36.0504 45.0148 36.0502 45.0152C36.0499 45.0156 36.0479 45.0186 36.044 45.0239C36.0403 45.029 36.0337 45.038 36.0244 45.05C36.0153 45.0617 36.0012 45.0794 35.9825 45.1011C35.9644 45.1222 35.9365 45.1534 35.8997 45.1902L33.0713 42.3618ZM32.2646 43.6016C32.1959 43.739 31.9908 44.0528 31.8678 44.2066L34.9912 46.7054C35.2522 46.3792 35.6231 45.829 35.8424 45.3904L32.2646 43.6016ZM31.812 44.2797C31.7077 44.4231 31.5997 44.5764 31.5069 44.7251C31.4349 44.8405 31.2766 45.0998 31.1808 45.4257C31.0955 45.7155 30.8787 46.7465 31.7459 47.5578C32.3836 48.1543 33.1517 48.128 33.2375 48.128V44.128C33.2921 44.128 33.4366 44.1306 33.6235 44.175C33.8072 44.2186 34.1518 44.331 34.4786 44.6367C35.2993 45.4045 35.0735 46.3665 35.0182 46.5543C34.9524 46.7782 34.8631 46.9025 34.9006 46.8424C34.9173 46.8156 34.9593 46.7529 35.047 46.6323L31.812 44.2797ZM33.2375 48.128C33.1622 48.128 33.0994 48.1234 33.0533 48.1187C33.0063 48.1139 32.9673 48.1079 32.9382 48.1029C32.882 48.0931 32.8416 48.083 32.8235 48.0782C32.8036 48.0729 32.7923 48.0693 32.7919 48.0692C32.791 48.0689 32.7952 48.0702 32.8059 48.074C32.8283 48.0819 32.8616 48.0943 32.9097 48.1131C32.9576 48.1317 33.0091 48.1523 33.0707 48.177L34.5563 44.463C34.4477 44.4196 34.286 44.3546 34.1371 44.302C34.0617 44.2754 33.9586 44.2408 33.845 44.2108C33.7674 44.1903 33.5296 44.128 33.2375 44.128V48.128ZM32.8723 48.0847C33.7781 48.5678 34.9443 48.9761 36.0287 49.1568L36.6863 45.2112C36.0427 45.1039 35.2889 44.8402 34.7547 44.5553L32.8723 48.0847ZM36.0534 49.1607C36.4709 49.225 36.8904 49.2609 37.4006 49.1516C37.571 49.1151 37.7515 49.0607 37.8281 49.0386C37.9317 49.0089 38.0474 48.9765 38.2076 48.9388L37.2914 45.0452C37.0436 45.1035 36.8593 45.1551 36.7229 45.1944C36.6491 45.2156 36.6164 45.2252 36.5805 45.2352C36.5501 45.2436 36.5493 45.2432 36.5624 45.2404C36.6141 45.2293 36.6874 45.2207 36.7547 45.2217C36.7931 45.2223 36.7832 45.226 36.6616 45.2073L36.0534 49.1607ZM38.6439 48.7809C39.0976 48.554 39.4618 48.1973 39.7084 47.818C39.9587 47.4328 40.2384 46.784 40.1063 45.9912L36.1607 46.6488C36.0766 46.144 36.2603 45.7831 36.3546 45.638C36.4452 45.4987 36.5934 45.334 36.8551 45.2031L38.6439 48.7809ZM40.1335 46.32C40.1335 45.981 40.1124 45.4311 39.8534 44.8699C39.5636 44.242 39.1041 43.8601 38.7135 43.616L36.5935 47.008C36.5981 47.0109 36.539 46.9751 36.4597 46.894C36.372 46.8041 36.2861 46.686 36.2216 46.5461C36.1605 46.4138 36.1405 46.3095 36.1344 46.2687C36.1293 46.2348 36.1335 46.241 36.1335 46.32H40.1335ZM38.9339 43.7756C38.8988 43.7463 38.8743 43.7258 38.8551 43.7094C38.8358 43.6929 38.8296 43.6872 38.8309 43.6884C38.832 43.6894 38.8498 43.7057 38.8761 43.7336C38.9029 43.762 38.9462 43.8105 38.995 43.8777C39.1067 44.0313 39.2083 44.2284 39.2673 44.4595C39.3183 44.6591 39.3175 44.8109 39.3175 44.832H35.3175C35.3175 45.1523 35.3678 45.691 35.76 46.2303C35.9887 46.5447 36.3084 46.7945 36.3731 46.8484L38.9339 43.7756ZM39.3175 44.832C39.3175 45.1977 39.1858 45.5549 38.9547 45.8333C38.7396 46.0925 38.4936 46.2204 38.3201 46.2799C37.9892 46.3933 37.7361 46.3334 37.5939 46.2687L39.2491 42.6273C38.5789 42.3226 37.7738 42.2387 37.0229 42.4961C36.2405 42.7643 35.3175 43.536 35.3175 44.832H39.3175ZM37.5271 46.2369C37.5324 46.2395 37.5005 46.224 37.4533 46.1875C37.4303 46.1696 37.4079 46.1501 37.3869 46.1295C37.3661 46.1091 37.3501 46.091 37.339 46.0773C37.3179 46.0514 37.32 46.0485 37.3451 46.0925C37.3712 46.1384 37.4108 46.2148 37.4696 46.3421L41.1014 44.6659C40.9398 44.3157 40.7355 43.9133 40.44 43.5507C40.1019 43.1357 39.7199 42.8611 39.3159 42.6591L37.5271 46.2369ZM37.4579 46.3163C37.4907 46.3901 37.4985 46.4144 37.4974 46.411C37.4936 46.3996 37.4849 46.369 37.4786 46.33C37.4732 46.2963 37.4744 46.2845 37.4757 46.3216C37.4763 46.3409 37.4769 46.3681 37.4772 46.4093C37.4775 46.4512 37.4775 46.4982 37.4775 46.56H41.4775C41.4775 46.3692 41.4828 46.0379 41.4284 45.698C41.3655 45.3053 41.2422 44.9822 41.1131 44.6917L37.4579 46.3163ZM37.4775 46.56C37.4775 46.7096 37.4706 46.7931 37.4649 46.8362C37.4599 46.8739 37.4579 46.8639 37.4711 46.8285C37.4855 46.7897 37.5035 46.7594 37.5126 46.7464C37.5174 46.7394 37.5022 46.7628 37.4393 46.8258L40.2677 49.6542C40.6317 49.2903 40.991 48.8388 41.2199 48.2235C41.437 47.6401 41.4775 47.065 41.4775 46.56H37.4775ZM37.4393 46.8258C37.4196 46.8455 37.393 46.8708 37.3628 46.8977C37.3325 46.9248 37.3052 46.9477 37.2842 46.9642C37.2741 46.9722 37.2678 46.9769 37.2656 46.9785C37.2629 46.9804 37.2681 46.9766 37.2805 46.9686C37.2917 46.9614 37.3198 46.9437 37.3623 46.9215C37.3843 46.91 37.4141 46.8952 37.4508 46.879C37.487 46.863 37.5364 46.8429 37.597 46.8226L38.862 50.6174C39.3057 50.4695 39.6621 50.1833 39.7628 50.1038C39.9428 49.9617 40.1209 49.8011 40.2677 49.6542L37.4393 46.8258ZM37.3351 46.9311L36.9511 47.1231L38.7399 50.7009L39.1239 50.5089L37.3351 46.9311ZM36.764 47.2296C36.6806 47.2833 36.6186 47.3228 36.5678 47.3544C36.5168 47.3861 36.4898 47.4019 36.4769 47.4091C36.458 47.4197 36.5239 47.381 36.6361 47.349C36.7393 47.3195 36.8045 47.3184 36.7431 47.3232C36.7116 47.3257 36.6688 47.3283 36.5942 47.3325C36.5252 47.3364 36.4329 47.3414 36.3287 47.3479L36.5783 51.3401C36.7081 51.332 36.9287 51.321 37.0579 51.3108C37.2245 51.2976 37.4637 51.2725 37.7349 51.195C38.2475 51.0486 38.6736 50.7573 38.927 50.5944L36.764 47.2296Z" fill="black" mask="url(#path-33-outside-1_2394_3578)"/>
</svg>
