<svg width="160" height="176" viewBox="0 0 160 176" fill="none" xmlns="http://www.w3.org/2000/svg">
<path d="M158.579 97.8391C158.579 140.188 124.212 174.515 81.8146 174.515C70.5198 174.515 59.8039 172.082 50.1411 167.706C44.7389 165.265 39.6824 162.213 35.0439 158.64H35.0278C33.8863 157.757 32.7769 156.842 31.6916 155.91C25.1479 150.273 19.5689 143.552 15.2359 136.029C8.75649 124.779 5.05053 111.739 5.05053 97.8391C5.05053 55.4904 39.4251 21.1553 81.8226 21.1553C113.834 21.1553 141.271 40.7318 152.791 68.5548C156.521 77.5802 158.587 87.4648 158.587 97.8391H158.579Z" fill="url(#paint0_linear_2637_25411)"/>
<path d="M4.8486 96.8084C4.83249 91.8439 5.31582 86.8872 6.25831 82.0019C7.16053 77.1165 8.60247 72.3261 10.423 67.6783C14.1125 58.3985 19.6144 49.7521 26.6871 42.4676C30.2235 38.8332 34.1063 35.4919 38.3515 32.6335C39.4229 31.9446 40.4862 31.2241 41.5737 30.5511C42.6854 29.9097 43.7729 29.2367 44.9007 28.627C46.0445 28.049 47.1723 27.4393 48.3404 26.893C49.5165 26.3704 50.6684 25.8082 51.8606 25.3331C61.342 21.3742 71.6933 19.4422 81.9722 19.5451C92.2591 19.7035 102.482 21.8967 111.842 25.9191C116.522 27.9302 120.993 30.3927 125.166 33.2511C129.355 36.0936 133.262 39.3241 136.822 42.8793C143.959 49.9817 149.711 58.4064 153.674 67.5991C155.648 72.1994 157.187 76.9819 158.266 81.8752C159.329 86.7685 159.909 91.7726 159.99 96.7926C160.151 106.825 158.379 116.96 154.512 126.334C150.694 135.717 144.958 144.372 137.692 151.577C130.442 158.798 121.742 164.61 112.205 168.561C102.675 172.536 92.2994 174.507 81.9641 174.515C71.6289 174.444 61.2695 172.441 51.7801 168.418C42.2746 164.451 33.6793 158.489 26.6307 151.181C19.566 143.881 14.0722 135.226 10.3747 125.939C8.55414 121.291 7.12026 116.492 6.21804 111.607C5.29971 106.73 4.82443 101.773 4.8486 96.8084ZM5.25137 96.8084C5.29165 101.741 5.79109 106.674 6.81415 111.504C7.86942 116.318 9.36775 121.045 11.3977 125.543C15.4094 134.553 21.3383 142.653 28.5077 149.352C32.1004 152.701 36.0315 155.67 40.1721 158.291C41.2273 158.917 42.2585 159.574 43.3298 160.168C44.4173 160.738 45.4726 161.348 46.5762 161.894C47.6798 162.424 48.7673 162.987 49.887 163.485C51.0148 163.96 52.1265 164.475 53.2704 164.911C57.8298 166.692 62.5503 168.07 67.3595 168.98C72.1686 169.891 77.0664 170.327 81.9641 170.311C86.8619 170.287 91.7516 169.836 96.5527 168.901C101.354 167.967 106.058 166.566 110.593 164.768C119.672 161.15 128.018 155.742 135.01 148.956C141.986 142.162 147.673 134.054 151.556 125.147C153.489 120.689 154.996 116.049 156.059 111.298C157.106 106.547 157.686 101.686 157.783 96.8084C157.92 87.0614 156.188 77.2194 152.41 68.1296C148.672 59.0319 143.001 50.7022 135.896 43.7978C132.335 40.3535 128.42 37.2813 124.24 34.613C120.043 31.9684 115.596 29.7355 110.972 27.9619C101.732 24.3909 91.816 22.6885 81.9641 22.8469C77.0342 22.8944 72.1283 23.4487 67.3031 24.3751C62.4859 25.3252 57.7653 26.7504 53.2059 28.5478C52.062 28.9912 50.9504 29.5138 49.8226 29.9968C48.7029 30.4956 47.6234 31.0736 46.5118 31.6041C45.4162 32.1505 44.3529 32.7681 43.2735 33.3461C42.2101 33.9479 41.171 34.613 40.1157 35.2385C35.9832 37.8831 32.0521 40.8602 28.4593 44.2174C21.298 50.9398 15.3691 59.0477 11.3575 68.0584C9.31941 72.5557 7.82914 77.2828 6.78192 82.1048C5.75887 86.9347 5.26748 91.8676 5.23526 96.8084H5.25137Z" fill="black"/>
<path d="M58.8609 142.406L77.2448 168.889L80.1054 172.207C80.1054 172.207 67.1923 172.812 64.566 171.278C61.9397 169.745 55.5235 167.025 55.5235 167.025C55.5235 167.025 54.869 157.742 55.071 157.363C55.273 156.984 55.8306 147.855 55.8306 147.855" fill="#76B82A"/>
<path d="M58.6104 142.406L55.8144 148.113L55.0387 168.792L58.3114 169.293L56.8649 148.113L59.467 143.464" fill="white"/>
<path d="M121.342 153.408L123.718 154.925L122.255 163.756L111.588 165.871C111.588 165.871 117.657 158.913 117.956 158.404" fill="#76B82A"/>
<path d="M120.631 64.7985C120.219 63.6684 119.378 62.9743 118.199 62.7644C117.56 62.6514 116.889 62.6434 116.235 62.6676C114.441 62.7241 112.946 63.5877 111.5 64.5563C110.926 64.9518 110.368 65.3715 109.778 65.7509C109.431 65.9769 109.027 66.1383 108.639 65.8316C107.362 64.8065 106.085 63.7895 104.841 62.7241C104.259 62.2236 104.38 61.6506 104.704 60.9645C105.988 58.2201 107.241 55.4516 108.396 52.6508C109.293 50.4795 109.722 48.1711 109.754 45.8142C109.762 45.4429 109.665 44.9747 109.439 44.7164C108.631 43.7882 107.742 42.9407 106.885 42.0528C105.528 40.6403 103.863 39.8654 101.924 39.5668C99.6126 39.2036 97.3338 39.4215 95.0873 39.9946C92.7116 40.5999 90.352 41.2779 87.9762 41.9156C87.6934 41.9963 87.4105 42.077 87.1277 42.1497C87.1035 42.1577 87.0873 42.1658 87.063 42.1658C86.7317 42.2546 86.3923 42.3434 86.061 42.4322C82.9499 43.2393 79.8307 43.5138 76.7115 42.0367C76.5418 42.5452 76.364 42.9972 76.2428 43.4653C74.0933 52.0373 73.0105 60.7062 73.964 69.5445C74.3519 73.1041 75.4266 76.4457 77.5277 79.3918C79.4105 82.0312 81.7701 84.0249 85.0428 84.7836C87.556 85.3729 90.0449 85.1953 92.4772 84.5576C92.7197 84.4931 92.9702 84.4285 93.2126 84.3559C94.9661 83.8312 96.6631 83.1209 98.3924 82.5155C98.5379 82.4671 98.6914 82.459 98.8368 82.4348C97.8429 83.2662 96.7924 83.9603 95.6934 84.5092C93.059 85.8572 90.1499 86.4383 87.0388 86.4706C86.8368 91.5799 87.459 96.6408 86.0934 101.532C86.1742 101.572 86.255 101.621 86.3439 101.661C90.1257 103.469 100.469 104.688 104.267 103.776C104.324 103.631 104.396 103.477 104.437 103.316L107.928 89.9979C108.098 89.3279 108.3 88.658 108.413 87.9719C108.946 84.7352 109.439 81.4985 109.996 78.2618C110.231 76.9058 110.611 75.574 110.942 74.1534C111.548 74.3229 111.968 74.4924 112.405 74.5408C113.415 74.67 114.433 74.8072 115.451 74.7991C116.477 74.7991 117.318 74.3229 118.021 73.54C119.395 72.0144 120.316 70.2629 120.865 68.2934C121.197 67.0908 121.043 65.9285 120.631 64.7985ZM86.3519 58.5592C86.554 58.1394 86.7641 57.7278 87.0792 57.0901C87.3297 58.7771 86.1418 61.6748 83.8065 65.4765C83.8226 65.4845 83.8307 65.4846 83.8469 65.4846C84.0166 65.5411 84.1863 65.5895 84.356 65.646C84.5014 65.6863 84.655 65.7267 84.8004 65.7751C85.3257 65.9285 85.8509 66.0818 86.4247 66.2514C86.2065 66.4854 86.1338 66.6307 86.0449 66.6469C85.956 66.6711 85.859 66.6872 85.7701 66.6953C84.8166 66.8244 83.9438 66.5419 83.1438 65.9931C82.7479 65.7267 82.6428 65.3393 82.9822 64.9438C84.5822 63.0631 85.3095 60.7304 86.3519 58.5592ZM80.057 56.396C79.8226 56.8803 79.4913 57.3403 78.8367 57.1708C78.2549 57.0256 78.158 56.5251 78.1256 56.0166C78.1176 55.8552 78.1256 55.6857 78.1256 55.274C78.1984 54.7575 78.2873 53.9826 78.4327 53.2239C78.5539 52.5943 78.9903 52.2553 79.5236 52.2714C80.0408 52.2876 80.4772 52.675 80.566 53.3046C80.7196 54.3781 80.5257 55.4193 80.057 56.396ZM77.8266 48.1791C77.6974 48.3244 77.6327 48.5343 77.4792 48.8329C77.0186 48.2679 77.1075 47.9208 77.2529 47.606C77.7458 46.5487 78.6186 45.9433 79.7418 45.8464C81.3257 45.7173 82.7156 46.2985 83.8873 47.3558C84.1297 47.5818 84.2509 47.9531 84.4206 48.2518C84.3398 48.3406 84.2509 48.4213 84.1701 48.5101C83.8065 48.3567 83.4348 48.2276 83.0873 48.0581C82.6024 47.824 82.158 47.5334 81.665 47.3235C80.1135 46.6455 78.958 46.9038 77.8266 48.1791ZM83.3782 74.0727C82.8287 74.0162 82.2954 73.8709 81.7539 73.766C81.762 73.6449 81.7782 73.5238 81.7943 73.4108C82.8287 73.314 83.8711 73.2252 84.9136 73.1364C85.56 73.0799 86.1903 72.9507 86.8045 72.7812C87.8711 72.4826 88.8974 72.0306 89.9156 71.5624C90.2954 71.3849 90.5782 71.0055 90.9176 70.7149C91.354 70.9947 91.6664 71.5355 91.855 72.3373C90.6833 71.8692 89.9075 72.7167 89.0025 73.096C88.7196 73.209 88.4368 73.322 88.154 73.4189C86.6105 73.9597 85.0267 74.226 83.3782 74.0727ZM96.1136 60.238C95.9278 60.7546 95.5722 61.1985 94.9096 61.0129C94.3358 60.8515 94.1661 60.3349 94.2308 59.8506C94.4166 58.5672 94.6671 57.2919 94.95 56.0328C95.055 55.5888 95.3863 55.2095 95.9116 55.2417C96.4853 55.2821 96.7439 55.7099 96.8409 56.2265C96.8974 56.5413 96.8975 56.8722 96.9136 57.1951C96.9621 57.2112 97.0106 57.2273 97.0591 57.2435C96.7439 58.2444 96.4692 59.2533 96.1136 60.238ZM98.5136 49.858C98.0045 49.6078 97.5197 49.293 96.9863 49.0993C95.4914 48.5666 94.4005 48.8975 93.3984 50.1163C93.2045 50.3423 92.9944 50.5602 92.6954 50.8992C92.2833 49.8177 92.8166 49.1881 93.3742 48.6392C94.4974 47.5415 95.8631 47.5173 97.2611 47.9854C98.2631 48.3325 99.2571 48.7441 99.3217 50.2212C98.9823 50.0679 98.7399 49.971 98.5136 49.858ZM114.619 67.3006C114.853 67.7042 115.039 68.0836 115.281 68.4145C115.491 68.7132 115.807 68.9392 116.017 69.2378C116.704 70.2387 116.421 71.4817 115.362 72.0871C114.465 72.5956 113.528 72.8135 112.599 72.1355C112.429 72.0064 112.34 71.7804 112.154 71.5302C112.817 71.5867 113.374 71.7481 113.891 71.6593C115.419 71.401 115.766 70.4486 114.861 69.2136C114.57 68.8181 114.263 68.4226 114.069 67.9787C113.698 67.1231 114.045 66.5419 114.974 66.3966C115.621 66.2998 116.283 66.2998 116.93 66.211C117.479 66.1303 118.021 66.0011 118.716 65.8639C117.698 67.4379 116.049 66.7921 114.619 67.3006Z" fill="white"/>
<path d="M85.0428 84.7836C81.7701 84.0249 79.4105 82.0312 77.5277 79.3918C75.4266 76.4457 74.3519 73.1041 73.964 69.5445C73.0105 60.7062 74.0933 52.0373 76.2428 43.4653C76.364 42.9972 76.5418 42.5452 76.7115 42.0367C79.8307 43.5138 82.9499 43.2393 86.061 42.4322C86.3923 42.3434 86.7317 42.2546 87.063 42.1658C87.0792 42.1577 87.0954 42.1577 87.1115 42.1577H87.1277L87.9196 41.6573C87.9439 41.7461 87.96 41.8268 87.9762 41.9156C89.8752 49.8903 88.3398 58.6237 83.8469 65.4846C83.7822 65.5976 83.7095 65.7025 83.6368 65.8074C83.8711 65.6702 84.1135 65.6218 84.356 65.646C84.5095 65.6621 84.655 65.7025 84.8004 65.7751C85.1802 65.9527 85.5277 66.2917 85.7701 66.6953C85.9398 66.9778 86.0529 67.3007 86.0934 67.6154C86.2307 68.8181 85.7782 70.0288 85.9237 71.2234C85.9964 71.8127 86.3439 72.4099 86.8045 72.7812C87.2812 73.1687 87.8711 73.322 88.3964 72.9992C88.3075 73.1364 88.2267 73.2736 88.154 73.4189C86.8772 75.8323 87.0226 78.956 88.558 81.2241C89.6247 82.8061 91.3459 83.9281 93.2126 84.3559C92.9702 84.4285 92.7197 84.4931 92.4772 84.5576C90.0449 85.1953 87.556 85.3729 85.0428 84.7836Z" fill="#F4C6CC"/>
<path d="M96.1217 84.4608C95.0954 87.754 94.0611 91.0795 92.4853 94.1547C90.9984 97.0605 88.9944 99.7645 86.3439 101.661C86.255 101.621 86.1742 101.572 86.0934 101.532C87.459 96.6408 86.8368 91.5799 87.0388 86.4706C90.1499 86.4383 93.059 85.8572 95.6934 84.5092C95.8389 84.5011 95.9762 84.485 96.1217 84.4608Z" fill="#F4C6CC"/>
<path d="M139.079 112.711C138.546 110.734 137.407 109.612 135.443 109.184C133.229 108.708 131.007 108.449 128.768 108.724C128.348 108.772 127.928 108.845 127.508 108.934C127.063 109.023 126.603 109.184 126.021 108.934C126.643 108.272 127.338 108.014 128.081 107.844C128.138 107.828 128.195 107.812 128.251 107.804C130.263 107.368 132.259 107.675 134.255 107.933L135.467 108.078C135.483 107.997 135.508 107.909 135.524 107.82C130.732 103.736 125.714 99.9985 119.443 97.7869C120.235 99.3447 120.914 100.903 121.512 102.477C122.425 104.85 123.16 107.255 123.815 109.749C123.395 109.749 123.152 109.797 122.934 109.741C120.397 109.095 117.843 108.474 115.322 107.747C112.574 106.956 112.809 107.166 110.918 108.732C109.302 110.056 107.766 111.492 106.247 112.929C105.205 113.914 104.267 115.004 103.249 116.012C102.11 117.134 102.417 118.684 101.988 120.016C101.948 120.137 101.916 120.258 101.891 120.379C100.178 128.225 98.4651 136.078 96.7601 143.924C96.7035 144.166 96.7116 144.424 96.6712 144.828C98.1904 143.238 99.5641 141.785 100.946 140.324C100.502 140.001 99.9116 139.581 99.3459 139.17C99.3864 138.831 99.4025 138.581 99.4591 138.346C99.6126 137.79 99.7742 137.241 99.9601 136.7C101.641 131.873 104.453 127.692 107.483 123.632C107.912 123.059 108.267 122.389 108.534 121.719C110.085 117.837 112.057 114.221 114.942 111.153C115.257 110.822 115.605 110.516 115.936 110.201C116.001 110.266 116.065 110.322 116.13 110.387C114.239 113.422 112.194 116.384 110.788 119.709C113.463 117.256 115.863 114.535 118.974 112.614C118.958 112.816 118.885 112.953 118.78 113.066C116.841 115.068 114.893 117.07 112.946 119.072C107.524 124.625 103.265 130.953 100.332 138.145C100.227 138.395 100.162 138.669 100.106 138.839C108.388 142.915 115.799 148.17 123.104 153.747C124.259 154.635 125.423 155.523 126.578 156.427C127.572 154.901 128.566 153.392 129.528 151.866C133.14 146.144 135.896 140.025 137.924 133.584C139.007 130.13 139.532 126.562 139.847 122.954C140.146 119.491 139.976 116.093 139.079 112.711ZM110.594 139.477C110.053 138.839 109.592 138.29 109.237 137.878C110.118 136.651 111.079 135.61 111.685 134.391C112.283 133.173 112.526 131.784 112.97 130.315C113.924 131.074 114.837 131.8 115.863 132.616C114.263 135.021 112.849 137.483 110.594 139.477ZM123.007 129.169C122.247 128.031 121.568 126.998 120.849 125.924C124.445 125.359 126.102 122.865 127.136 119.572C128.251 119.984 129.269 120.355 130.409 120.775C127.92 123.6 125.512 126.336 123.007 129.169Z" fill="white"/>
<path d="M56.8649 102.775C61.0912 99.7887 65.9478 98.5537 71.1115 97.6094C70.9418 98.0371 70.8529 98.2874 70.7478 98.5295C69.568 101.185 68.3801 103.841 67.2165 106.512C67.0549 106.892 67.0468 107.336 66.9175 107.997C68.4933 107.675 69.6003 106.867 70.8367 106.415C72.1458 105.939 73.4307 105.398 74.7317 104.898C75.9923 104.414 77.2529 103.954 78.6105 103.445C78.8691 103.849 79.1438 104.196 79.3378 104.591C80.2671 106.464 81.1721 108.353 82.0772 110.233C82.1661 110.419 82.1903 110.653 82.3115 110.798C83.1115 111.735 82.7964 112.752 82.6348 113.793C82.0287 117.804 81.4873 121.832 80.8893 125.844C80.1943 130.469 79.4671 135.078 78.7559 139.703C78.5378 141.115 78.3438 142.536 78.1256 144.069C77.8024 143.94 77.5438 143.867 77.3256 143.738C71.4428 140.211 66.5458 135.57 62.2791 130.243C61.2528 128.967 60.7357 127.571 60.7518 125.836C60.7761 122.478 60.7033 119.096 60.3235 115.762C59.9841 112.8 59.2649 109.878 58.5377 106.98C58.1902 105.568 57.4548 104.252 56.8488 102.791L56.8649 102.775Z" fill="white"/>
<path d="M70.8448 106.407C70.8448 106.407 68.768 110.984 68.4448 110.984C68.1215 110.984 75.5155 107.723 77.2691 108.7C79.0226 109.676 82.6509 113.793 82.6509 113.793L82.8449 111.291L79.0873 103.122" fill="#76B82A"/>
<path d="M102.247 116.085C102.247 116.085 112.186 106.536 112.768 106.464C113.35 106.391 119.209 108.805 119.209 108.805L120.841 110.782L110.926 111.993L101.835 117.982" fill="#76B82A"/>
<path d="M120.671 153.222C119.896 154.304 119.233 155.329 118.473 156.273C117.487 157.484 116.494 158.679 115.459 159.849C113.116 162.545 110.635 165.104 107.839 167.364C104.542 170.035 101.027 172.376 96.9298 173.676C94.2065 174.539 91.3863 175.104 88.558 174.483C85.0267 173.708 81.8348 172.142 79.2327 169.527C76.5903 166.863 74.3196 163.893 72.267 160.769C67.7013 153.804 62.9821 146.935 57.8831 140.348C56.2831 138.274 54.473 136.361 52.6629 134.464C50.8366 132.535 48.6144 131.357 45.8992 131.058C43.7416 130.816 41.6164 130.291 39.4911 129.831C38.2143 129.549 36.9941 129.573 35.7497 130.009C33.0668 130.945 30.3193 131.623 27.5234 132.075C26.3921 132.261 25.3011 132.244 24.291 131.679C24.2021 131.631 24.1133 131.583 24.0244 131.526C22.7557 130.824 21.4789 130.114 20.2668 129.314C19.5072 128.814 19.5718 128.556 20.291 127.749C20.388 127.781 20.5254 127.789 20.6142 127.853C22.4163 129.339 24.5254 129.928 26.8123 129.815C27.7981 129.766 28.784 129.694 29.7698 129.605C30.8284 129.508 31.8789 129.403 32.9375 129.306C33.1638 129.29 33.3739 129.177 33.5759 128.951C32.2345 128.895 30.8931 128.822 29.5436 128.782C29.1234 128.774 28.7112 128.766 28.291 128.766C27.5638 128.757 26.8284 128.766 26.1011 128.749C23.992 128.693 22.1819 127.918 20.6951 126.425C19.5799 125.311 18.6425 124.076 18.0607 122.599C17.9395 122.292 17.8344 121.977 17.7779 121.655C17.5435 120.21 18.2142 119.532 19.4506 120.048C19.5961 120.113 19.7658 120.129 20.0082 120.194C20.2587 120.977 20.5415 121.784 20.7759 122.599C21.2365 124.213 22.287 125.279 23.7658 126.005C25.0425 126.627 26.3516 127.071 27.6931 127.361C29.487 127.757 31.3375 127.878 33.2204 127.805C34.1012 127.773 34.9012 127.708 35.6608 128.265C35.9921 128.507 36.4042 128.798 36.9941 128.41C36.1214 127.781 35.3699 127.28 34.2628 127.2C33.285 127.127 32.3153 127.03 31.3456 126.901C29.3496 126.635 27.3779 126.215 25.4708 125.489C24.8971 125.271 24.3476 124.988 23.8062 124.698C22.9496 124.229 22.3274 123.551 22.0122 122.599C21.4789 121.009 20.8243 119.427 20.9132 117.716C20.9536 117.046 21.1718 116.352 21.4466 115.73C21.6648 115.238 22.1496 114.923 22.7557 115.044C23.3132 115.165 23.8223 115.77 23.8627 116.376C23.8951 116.989 23.8627 117.611 23.8951 118.224C23.9597 119.75 24.6143 120.96 25.883 121.856C28.2022 123.487 30.7799 124.318 33.5355 124.689H33.5517C33.786 124.722 34.0284 124.754 34.2709 124.778C34.3113 124.778 34.3517 124.786 34.3921 124.778C35.5961 124.496 36.7194 124.681 37.7941 125.279C37.9477 125.359 38.1739 125.295 38.6345 125.295C37.7052 124.681 36.9618 124.286 36.1376 124.084C35.2567 123.866 34.3678 123.672 33.479 123.471C32.2507 123.188 31.0224 122.889 29.8264 122.51C28.6789 122.147 27.6365 121.412 26.5779 120.791C25.7537 120.298 25.3173 119.507 25.2203 118.563C25.0668 117.159 25.1638 115.77 25.6567 114.439C25.8264 113.987 26.0931 113.551 26.4001 113.171C27.0547 112.364 27.8143 112.251 28.6628 112.873C29.0264 113.139 29.3577 113.47 29.6163 113.833C29.6729 113.898 29.7133 113.954 29.7537 114.019C30.2709 114.81 30.6991 115.649 31.1436 116.481C31.4345 117.021 31.7092 117.578 31.984 118.119C32.5335 119.185 33.3981 119.629 34.5941 119.62C37.7537 119.588 40.9133 119.612 44.0729 119.62C44.8083 119.62 45.6164 119.338 46.1659 120.323C46.2305 120.218 46.2952 120.121 46.3598 120.016C46.2063 119.524 46.077 119.031 45.8911 118.555C45.4709 117.482 45.0346 116.424 44.582 115.367C43.9113 113.777 43.6689 112.122 43.8628 110.427C43.9517 109.636 44.2507 108.845 44.5901 108.11C44.8891 107.457 45.3416 107.319 46.0123 107.594C46.4164 107.763 46.8447 108.022 47.1113 108.353C47.7901 109.168 48.4689 110.007 48.9861 110.927C50.1093 112.889 51.5073 114.584 53.479 115.722C56.9942 117.756 58.6993 120.928 59.3619 124.794C59.4346 125.238 59.5397 125.674 59.5882 126.126C59.7659 128.079 60.6306 129.718 61.8427 131.219C64.1134 134.052 66.7316 136.53 69.5357 138.831C72.4286 141.204 75.4994 143.319 78.7155 145.232C82.1822 147.29 85.5115 149.542 88.5257 152.23C89.261 152.883 89.9641 153.578 90.651 154.28C92.1136 155.765 93.2287 157.46 93.8106 159.486C94.0207 160.196 94.2793 160.89 94.5459 161.576C94.6752 161.891 94.8853 162.174 95.0469 162.456C95.6853 162.287 95.6772 161.932 95.556 161.56C94.659 158.735 93.754 155.918 91.5318 153.771C91.1843 153.44 90.8772 153.061 90.6267 152.787C93.3257 150.002 96.0086 147.241 98.6995 144.465C99.7985 143.335 100.906 142.197 102.013 141.05C108.429 144.755 114.457 148.993 120.671 153.222Z" fill="white"/>
<path d="M127.136 50.3019C126.869 54.3619 125.391 57.9457 122.683 61.0048C122.166 61.586 121.625 62.1429 121.027 62.7806C119.572 61.4407 117.835 61.2228 115.976 61.4568C113.762 61.7393 111.968 62.829 110.376 64.3142C110.053 64.6209 109.77 64.968 109.399 65.3635C107.823 64.2577 106.223 63.281 104.946 61.8201C106.748 59.2694 107.984 56.5009 109.091 53.6759C109.908 51.6015 110.401 49.4544 110.473 47.2105C110.489 46.8958 110.481 46.581 110.457 46.2742C110.409 45.5801 110.247 44.9021 109.916 44.2402C108.081 40.5919 105.277 38.3883 101.083 38.1139C98.5055 37.9444 96.0086 38.348 93.5277 38.9614C90.5459 39.704 87.5641 40.4627 84.5661 41.1569C83.5317 41.391 82.457 41.5362 81.3984 41.5524C77.665 41.6008 73.9559 39.1148 72.5822 35.6682C73.0913 35.8781 73.5842 36.0395 74.0691 36.1364H74.0771C76.5014 36.6287 78.7236 35.8054 80.8812 34.5059C82.0044 33.836 83.1277 33.1257 84.3236 32.6091C87.362 31.2854 90.4813 31.3419 93.5601 32.4799C94.3197 32.7544 94.9742 33.2952 95.6772 33.7149C95.8954 33.8521 96.1136 34.0055 96.5419 34.288C96.3075 33.2629 95.75 32.8028 95.152 32.3992C93.9075 31.5517 92.4772 31.1724 90.9984 30.9867C87.7418 30.567 84.7277 31.2289 81.9075 32.9158C80.6469 33.6745 79.3378 34.3768 77.9802 34.9418C77.1721 35.2727 76.2266 35.3857 75.3377 35.4099C73.0185 35.4584 71.5802 34.0781 71.4347 31.7535C71.3296 29.9778 71.4993 28.2343 71.863 26.4263C72.0165 25.6433 72.2024 24.8362 72.4206 24.0129C73.1721 25.5546 74.2468 26.3859 75.6529 26.7169C76.4448 26.9025 77.2691 27.0074 78.0852 27.0155C80.5741 27.0639 82.9661 26.4424 85.3822 25.9501C87.8307 25.4416 90.2631 24.8281 92.7277 24.4487C94.9419 24.1017 97.1318 24.3277 99.2571 25.1833C99.7742 25.3931 100.251 25.6514 100.687 25.9501H100.695C101.293 26.3617 101.835 26.8379 102.336 27.3707L102.36 27.3949C102.425 27.4594 102.473 27.5159 102.53 27.5805C102.53 27.5805 102.532 27.5832 102.538 27.5886C102.586 27.637 102.627 27.6774 102.667 27.7258C102.877 27.9599 103.087 28.194 103.378 28.3554C102.683 26.9671 101.867 25.6918 100.51 24.8443C98.0288 23.3187 95.3055 22.7699 92.4691 23.2219C89.6328 23.6658 86.8449 24.36 84.0327 24.925C82.6267 25.2155 81.2125 25.49 79.7984 25.716C79.16 25.8209 78.4974 25.8048 77.8994 25.8371C76.7357 24.2147 75.6367 22.6972 75.8549 20.6228C75.9357 19.8722 76.1054 19.1619 76.364 18.4758C76.6307 17.7494 77.0105 17.0471 77.4953 16.361C77.6489 16.5306 77.7943 16.6193 77.8428 16.7485C78.6347 18.8794 80.3317 19.7672 82.4327 19.8722C84.6388 19.969 86.861 19.8641 89.0752 19.8157C89.859 19.7995 90.6348 19.7188 91.4106 19.622C95.4591 19.1215 99.4429 19.6058 103.403 20.4291C104.025 20.5583 104.655 20.8246 105.205 21.1556C107.192 22.3421 108.712 24.0129 109.794 26.0388C110.32 27.0155 110.813 28.0083 111.289 29.0092C111.289 29.0092 111.298 29.0092 111.298 29.0173C111.548 29.5338 111.807 30.0504 112.049 30.5751H112.057C112.235 30.9706 112.421 31.3499 112.607 31.7293C112.696 31.9311 112.792 32.1248 112.889 32.3185C113.011 32.5768 113.116 32.8351 113.342 33.3759C113.407 32.9077 113.479 32.6979 113.447 32.5203C112.736 28.759 111.055 25.4738 108.542 22.6084C108.324 22.3663 108.098 22.1322 107.879 21.8901C107.855 21.8659 107.855 21.8174 107.815 21.6802C109.512 22.2049 111.071 22.9152 112.582 23.7223C112.889 23.8837 113.1 24.2389 113.326 24.5295C114.958 26.6281 115.734 29.0818 116.089 31.6728C116.324 33.4566 116.461 35.2646 116.647 37.0565C116.712 37.6538 116.768 38.2592 116.881 38.8484C117.471 35.8942 117.641 29.9778 114.885 25.1671C116.049 25.3689 117.778 26.5716 118.417 27.6693C119.524 29.5742 120.138 31.6486 120.534 33.8037C120.889 35.757 120.889 37.7022 120.437 39.7766C121.35 38.7515 121.746 36.435 121.31 34.1185C120.954 32.1974 120.413 30.3168 119.944 28.3877C120.089 28.4765 120.348 28.5652 120.51 28.7428C121.649 29.9213 122.853 31.0513 123.871 32.3266C125.657 34.5786 126.069 37.1857 125.132 39.8735C124.655 41.2457 123.799 42.4887 123.087 43.7721C122.772 44.3371 122.296 44.4581 121.633 44.3936C119.176 44.1353 116.712 44.0546 114.263 44.4904C113.9 44.555 113.544 44.7084 113.188 44.8133C113.205 44.9263 113.221 45.0393 113.237 45.1442C113.819 45.1604 114.409 45.2088 114.99 45.1684C115.629 45.1119 116.073 45.3541 116.211 45.9433C116.429 46.8473 116.655 47.7675 116.687 48.6957C116.752 50.302 116.372 51.8678 115.896 53.4014C115.79 53.7485 115.718 54.0956 115.58 54.6283C117.665 51.892 118.611 48.0661 116.865 45.2734C117.98 44.9909 118.934 45.0393 119.79 45.903C121.544 47.6948 121.892 49.8257 121.39 52.1665C121.221 52.9575 120.938 53.7162 120.679 54.5718C123.152 52.8526 123.112 48.4939 120.566 45.3137C120.906 45.3137 121.172 45.2572 121.407 45.3137C122.546 45.6366 123.71 45.9191 124.809 46.3469C126.578 47.041 127.257 48.5181 127.136 50.2939V50.3019Z" fill="#ED6C2E"/>
<path d="M89.7782 152.06C86.6429 149.041 82.756 147.04 79.0873 144.804C79.8469 139.557 80.5822 134.375 81.3337 129.193C82.5055 121.211 83.4752 113.187 85.2449 105.302C85.2853 105.108 85.3418 104.914 85.4146 104.624C91.2651 106.924 97.3661 106.98 103.637 106.859C103.314 108.425 103.023 109.902 102.708 111.371C100.8 120.097 98.8773 128.814 96.9863 137.547C96.3884 140.308 95.9116 143.093 95.354 145.869C95.2974 146.168 95.1197 146.466 94.9176 146.701C94.5459 147.136 94.1096 147.516 93.7136 147.927C92.4368 149.259 91.1762 150.591 89.7782 152.06Z" fill="#76B82A"/>
<path d="M41.3093 82.5478C39.1679 84.8321 37.1396 86.9953 35.4588 89.4571C37.7133 87.5118 39.7174 85.3325 41.6487 83.024C42.0204 83.4518 42.3598 83.8312 42.7234 84.2509C41.1477 86.18 39.4992 88.1898 37.8507 90.1997C37.9396 90.2723 38.0204 90.3449 38.1093 90.4176C40.0568 88.7387 41.681 86.737 43.2729 84.6545C44.2346 85.3486 44.881 86.2285 45.2689 87.2858C45.4871 87.8589 45.4952 88.4804 44.9861 88.8759C44.3154 89.4086 44.2426 90.1189 44.178 90.8535C43.9032 93.961 43.6689 97.0605 43.378 100.168C43.1194 102.945 42.7558 105.713 42.5457 108.49C42.4487 109.814 42.6022 111.161 42.6426 112.598C42.5942 112.606 42.4083 112.679 42.2224 112.671C38.5699 112.598 34.9173 112.509 31.2648 112.437C30.6264 112.421 30.085 112.251 29.5678 111.848C28.5173 111.024 27.3618 110.814 26.1335 111.533C25.8991 111.67 25.6082 111.783 25.3335 111.791C24.2749 111.823 23.2163 111.799 21.9233 111.799C22.2547 111.347 22.4163 111.089 22.6102 110.855C23.5799 109.636 24.5658 108.425 25.5193 107.198C25.7133 106.948 25.8183 106.617 25.9638 106.327C25.883 106.278 25.8102 106.23 25.7294 106.181C25.5597 106.335 25.3739 106.48 25.2284 106.649C23.9031 108.159 22.586 109.676 21.2607 111.194C20.7112 111.815 18.9253 111.928 18.3516 111.379C17.996 111.04 18.0365 110.257 18.5698 110.007C19.4425 109.596 19.4748 108.926 19.3779 108.167C19.289 107.449 19.3779 106.859 19.8789 106.246C20.6223 105.318 20.5092 104.745 19.6203 103.219C19.9031 103.082 20.1698 102.945 20.4526 102.824C21.4223 102.42 22.2466 101.831 22.9254 101.04C24.0163 99.7645 23.9597 98.6183 22.7476 97.4802C22.5132 97.2542 22.2385 97.0686 21.9072 96.7941C22.1496 96.6165 22.3597 96.4551 22.5698 96.3098C22.8688 96.1 23.2001 95.9224 23.4829 95.6883C25.0183 94.3888 24.986 92.6696 23.4183 91.4023C23.1597 91.2005 22.9092 90.9907 22.6668 90.7727C22.6183 90.7324 22.6264 90.6275 22.594 90.4983C23.1193 90.3207 23.6607 90.1916 24.1698 89.9575C25.3577 89.4248 25.8668 88.2706 25.2931 87.1083C24.9456 86.398 24.3395 85.8007 23.7819 85.2195C23.4506 84.8724 22.9819 84.6545 22.5698 84.3962C22.1496 84.146 21.7213 83.92 21.1557 83.6052C21.4789 83.3066 21.7294 82.9998 22.0365 82.79C25.9234 80.1829 29.9961 77.8825 34.3032 75.8484C36.6143 78.052 38.9174 80.2555 41.3174 82.5397L41.3093 82.5478Z" fill="#0ABBEF"/>
<path d="M41.875 155.41C41.8346 155.587 41.8022 155.757 41.7537 155.934C41.1962 158.122 40.081 159.946 38.1497 161.27C36.2426 162.577 34.2466 162.311 32.8325 160.511C31.7497 159.123 30.6668 157.734 29.5032 156.411C27.7173 154.369 26.4567 152.06 25.6082 149.493C24.3476 145.659 23.6284 141.72 23.1759 137.725C23.0547 136.66 22.9496 135.594 22.8526 134.521C22.8203 134.165 22.7799 133.802 22.7476 133.439C22.7072 132.995 22.6991 132.543 22.6829 132.067C22.893 132.067 22.9415 132.051 22.9739 132.075C25.1153 133.358 27.386 133.156 29.6567 132.575C31.8385 132.018 33.9961 131.357 36.1699 130.783C36.8487 130.598 37.5517 130.517 38.3032 130.396C38.3598 130.388 38.4244 130.372 38.481 130.364C38.4972 130.412 38.5133 130.453 38.5295 130.501C39.677 133.778 40.9941 136.805 41.7295 140.05C42.877 145.167 42.9578 150.276 41.875 155.41Z" fill="white"/>
<path d="M103.281 114.543C103.419 112.082 107.677 93.3879 109.35 87.7136C109.714 87.9396 110.061 88.1414 110.384 88.3674C111.847 89.3844 113.035 90.684 114.134 92.0723C117.091 95.8094 119.063 100.079 120.793 104.478C121.269 105.689 121.746 106.9 122.271 108.256C120.631 107.884 119.136 107.537 117.625 107.206C116.502 106.964 115.37 106.771 114.263 106.488C113.164 106.214 112.251 106.456 111.427 107.206C110.401 108.143 109.342 109.063 108.308 109.991C106.7 111.436 105.091 112.897 103.281 114.535V114.543Z" fill="white"/>
<path d="M83.0711 110.023C82.4004 108.627 81.7459 107.215 81.0509 105.826C80.6307 104.987 80.1701 104.155 79.6772 103.356C79.0307 102.323 78.8933 102.299 77.7943 102.735C74.7802 103.921 71.7741 105.116 68.7599 106.31C68.6872 106.343 68.5983 106.327 68.469 106.343C68.469 106.238 68.4205 106.117 68.4529 106.036C69.5357 103.243 70.7721 100.531 72.2347 97.908C75.168 92.6534 79.7176 89.5539 85.3418 87.8347C85.5762 87.762 85.8105 87.7055 86.0449 87.6329C86.2307 88.3593 85.8913 97.4318 85.5843 98.9977C84.857 102.686 84.0812 106.375 83.3216 110.064C83.2408 110.048 83.16 110.04 83.0711 110.023Z" fill="white"/>
<path d="M52.4124 145.554C50.3356 149.122 47.8386 152.367 44.9376 155.297C44.1133 156.128 43.2487 156.935 42.2548 157.904C44.6709 150.131 44.5982 142.721 41.7457 135.57C41.2042 134.19 40.5497 132.817 39.7901 131.453C39.6608 131.211 39.5234 130.977 39.3861 130.735C39.4749 130.751 39.5638 130.767 39.6446 130.783C41.6487 131.155 43.4346 131.461 45.1962 131.841C45.6083 131.922 46.0043 132.22 46.3356 132.503C49.1073 134.868 50.8851 137.846 52.1942 141.147C52.3801 141.615 52.5498 142.084 52.7194 142.56C53.1073 143.658 53.0023 144.545 52.4124 145.554Z" fill="white"/>
<path d="M56.3316 103.114C58.5619 109.224 59.6771 115.375 59.6124 121.768C59.4508 121.412 59.2811 121.065 59.1276 120.71C58.2387 118.571 56.8407 116.844 54.9255 115.528C54.1498 114.995 53.3659 114.463 52.6306 113.874C51.1114 112.671 50.1255 111.089 49.4629 109.265C51.5073 106.988 53.5599 104.769 56.3235 103.114H56.3316Z" fill="#76B82A"/>
<path d="M22.8365 94.6874C22.1577 95.1879 21.39 95.6883 20.59 95.8901C17.689 96.6327 14.7314 97.0363 11.7172 96.7457C10.4081 96.6246 9.99601 96.221 9.89096 94.8973C9.85055 94.4614 9.85055 94.0256 9.88288 93.5978C9.96368 92.153 10.3758 90.7566 10.9819 89.3521C13.7859 90.5467 16.6142 90.5548 19.4344 90.5871C19.887 90.5952 20.3395 90.6032 20.792 90.5629C21.285 90.5225 21.6648 90.6839 21.9637 91.0795C22.3597 91.596 22.8042 92.0803 23.1516 92.6292C23.1678 92.6615 23.192 92.6857 23.2001 92.718C23.6526 93.4848 23.5638 94.1386 22.8365 94.6874Z" fill="white"/>
<path d="M23.3456 89.0535C22.2304 89.2956 21.0749 89.3441 19.9435 89.449C19.5799 89.4894 19.2082 89.4571 18.8365 89.4571C18.8365 89.4732 18.8365 89.4894 18.8284 89.5136C17.2849 89.3764 15.7253 89.3199 14.19 89.0777C13.2364 88.9324 12.3233 88.5289 11.4102 88.1737C10.8364 87.9558 10.7152 87.4553 10.8122 86.858C10.9091 86.2607 11.1354 85.7199 11.4506 85.2679C12.0081 84.4608 12.8728 83.9038 13.9637 83.6859C15.3859 83.4034 16.8243 83.4195 18.2223 83.7989C19.4102 84.1218 20.59 84.4689 21.7213 84.9289C22.7637 85.3487 23.588 86.1074 24.1294 87.1163C24.2425 87.3181 24.3234 87.5118 24.3638 87.6813C24.5577 88.3836 24.2345 88.8517 23.3456 89.0535Z" fill="white"/>
<path d="M22.5617 99.1107C22.586 99.4012 22.4324 99.7564 22.2547 100.007C21.7617 100.677 21.1637 101.225 20.4041 101.564C20.3314 101.605 20.2425 101.637 20.1617 101.669C17.689 102.606 15.1435 102.856 12.5415 102.372C11.2162 102.121 10.6586 101.427 10.6102 100.055V99.6676C10.6263 99.1107 10.6748 98.5295 10.7071 97.8757C13.9799 98.1663 16.994 97.8999 19.9759 97.2703C20.8324 97.0928 22.4728 98.247 22.5617 99.1107Z" fill="white"/>
<path d="M58.1013 141.987C57.2286 144.069 56.3074 146.111 54.8124 148.113C54.7073 141.938 52.3316 136.966 48.0406 132.648C48.4204 132.753 48.6629 132.801 48.8972 132.89C49.0831 132.963 49.2689 133.06 49.4386 133.181C52.8083 135.626 55.8225 138.427 58.1013 141.987Z" fill="#76B82A"/>
<path d="M43.3537 108.264C43.9841 102.323 44.8487 96.4228 44.9457 90.353C45.7053 90.3127 46.4245 90.2723 47.1598 90.2319C46.6588 95.5672 46.174 100.798 45.681 106.06C45.2123 106.302 44.6386 106.472 44.2507 106.835C43.8548 107.206 43.6447 107.78 43.3618 108.264H43.3537Z" fill="white"/>
<path d="M35.0709 75.5094C35.4426 75.2915 35.8143 75.0655 36.2668 74.7991C36.6143 75.0736 36.978 75.3238 37.2931 75.6224C40.4285 78.625 43.58 81.6196 46.6669 84.6706C47.378 85.3729 47.9841 86.2527 48.4366 87.1486C49.0265 88.3109 48.4285 89.2311 47.1437 89.4006C46.6669 89.4651 46.1901 89.5216 45.5356 89.6024C46.6507 88.2463 46.3113 87.0195 45.6002 85.8249C45.2851 85.3002 44.9214 84.7998 44.5012 84.3559C41.6083 81.2806 38.5214 78.4071 35.2083 75.7758C35.1517 75.7354 35.1436 75.6466 35.0709 75.5094Z" fill="white"/>
<path d="M85.5196 103.978C85.6085 103.566 85.6651 103.292 85.7297 103.017C85.7782 102.824 85.8428 102.638 85.9156 102.396C91.7095 104.882 97.7702 105.1 103.879 104.89C103.895 105.939 103.871 105.988 103.015 106.052C102.732 106.076 102.441 106.076 102.158 106.068C97.0348 105.939 91.9277 105.713 86.9418 104.349C86.5136 104.228 86.0853 104.115 85.5196 103.962V103.978Z" fill="white"/>
<path d="M19.1516 105.528C18.8769 105.891 18.4647 106.262 18.0365 106.399C16.388 106.916 14.7233 106.892 13.1152 106.238C11.8708 105.737 11.491 104.914 11.7496 103.437C13.8425 103.881 15.9435 103.865 18.0445 103.461C18.5051 103.372 18.7395 103.615 18.9415 103.937C19.2486 104.43 19.5476 104.987 19.1516 105.528Z" fill="white"/>
<path d="M24.8809 112.776C24.5739 113.478 24.3476 113.987 24.0648 114.632C23.4345 114.108 22.7476 113.639 21.9799 113.97C21.3011 114.269 20.7112 114.778 20.0082 115.246C19.7738 114.503 19.5152 113.688 19.2324 112.768H24.8809V112.776Z" fill="white"/>
<path d="M16.9617 107.739C17.5839 107.61 18.0526 107.505 18.6425 107.384C18.4971 108.143 18.7476 108.942 17.6405 109.265C17.4304 108.78 17.2122 108.296 16.9698 107.739H16.9617Z" fill="white"/>
<path d="M20.178 48.3325C18.6668 47.3236 16.986 46.8877 15.184 46.9523C13.5436 47.0088 11.9032 47.2187 10.2628 47.2106C9.04254 47.2106 7.79809 47.0976 6.61829 46.807C5.13949 46.4438 4.82434 45.7173 5.1799 44.216C5.52737 42.7309 7.13546 39.2843 8.2183 37.783C9.02638 37.9202 9.89911 38.0655 10.9658 38.2512C10.6021 38.7112 10.3516 39.018 10.1092 39.3247C9.26881 40.3901 8.45264 41.4717 8.07284 42.8035C7.70112 44.1111 8.11325 44.6761 9.47083 44.7084C9.91528 44.7165 10.3678 44.6196 10.8042 44.5228C11.7254 44.321 12.6466 44.1192 13.5597 43.869C15.1436 43.4331 16.7193 43.4815 18.3194 43.7963C21.1396 44.3452 21.8749 45.4026 21.3093 48.2276C21.5436 48.502 21.8184 48.8088 22.0527 49.1316C22.8931 50.2778 22.8366 51.5531 21.8992 52.6185C20.9295 53.7243 19.7173 54.3055 18.2385 54.3862C16.9295 54.4588 15.6123 54.5315 14.3193 54.7091C13.2931 54.8463 12.3476 55.2418 11.7739 56.2588C12.2183 56.7673 12.7678 56.8319 13.3416 56.8803C15.3294 57.0498 17.2688 56.622 19.2083 56.3395C20.0971 56.2104 20.978 56.0005 21.8749 55.8472C22.279 55.7745 22.6911 55.718 23.0951 55.7099C25.1234 55.6615 26.2871 56.9449 25.8911 58.9386C25.7214 59.7941 25.0669 60.5609 24.9052 61.4246C24.7517 62.2398 25.0911 63.1358 24.978 63.9671C24.7598 65.5572 23.7982 66.4209 22.182 66.6065C21.285 66.7115 20.38 66.663 19.4749 66.7276C18.5456 66.7922 17.6163 66.9052 16.7274 66.994C16.4204 68.0191 16.8486 68.6729 17.4385 69.2056C18.9981 70.5939 20.8406 71.3042 22.9254 71.3768C23.3214 71.393 23.7254 71.3768 24.283 71.3768C23.7093 72.4423 23.1921 73.4028 22.6184 74.4763C20.5658 74.1292 18.6183 73.5562 16.9618 72.2889C16.2264 71.7239 15.5395 71.0378 15.0143 70.2791C14.1981 69.1007 14.4486 67.9222 15.5234 67.002C15.7092 66.8406 15.9678 66.7276 16.0729 66.5258C16.881 64.9115 18.4244 64.3142 19.9517 63.7089C20.7921 63.3779 21.6648 63.1277 22.4729 62.7403C22.9982 62.49 23.4426 62.0461 23.9355 61.6748C23.3537 60.4318 22.5214 59.7054 21.3982 59.2937C20.3396 58.8982 19.2406 58.8659 18.1173 58.9224C16.9295 58.987 15.7335 59.0596 14.5537 59.0193C13.8264 58.9951 13.091 58.8175 12.3961 58.5915C11.5314 58.309 10.9173 57.7278 10.8122 56.7431C10.788 56.5413 10.7314 56.3395 10.6506 56.1539C10.0526 54.7333 10.5133 53.6033 11.6042 52.6347C12.5254 51.8194 13.6244 51.3997 14.8123 51.1818C16.2749 50.9154 17.6971 50.5361 18.9739 49.737C19.4911 49.4141 20.0325 49.0993 20.178 48.3406V48.3325Z" fill="#A25A9F"/>
<path d="M133.406 14.9807C132.922 15.0856 132.413 15.1906 131.75 15.3278C132.396 16.5708 132.59 17.7735 131.831 18.9842C131.079 20.1707 129.98 20.8487 128.639 21.0828C125.883 21.551 123.936 19.7833 123.685 16.5627C124.453 16.369 125.245 16.1672 126.029 15.9654C128.049 15.4408 129.899 14.5771 131.394 13.1C132.437 12.0669 132.615 10.6866 131.968 9.35484C131.378 8.14411 130.279 7.5226 128.808 7.73246C128.097 7.82932 127.346 8.05532 126.74 8.42661C124.485 9.80685 123.111 11.8247 122.716 14.4641C122.659 14.8596 122.578 15.2471 122.481 15.7717C121.56 15.5861 120.72 15.4247 119.887 15.2471C118.344 14.9161 117.552 13.8668 117.503 12.3736C117.471 11.5907 117.641 10.7189 118.004 10.0248C118.465 9.12884 119.152 8.32975 119.839 7.5791C121.212 6.08586 122.934 5.02849 124.833 4.08411C123.556 2.97831 122.376 1.96937 121.148 0.911991C118.336 2.90567 116.348 5.46435 115.459 8.82212C114.408 12.8175 118.021 17.0551 121.802 16.7807C122.077 16.7645 122.352 16.813 122.61 16.8291C123.023 18.8309 123.305 19.4039 124.542 20.7922C126.368 22.8424 128.881 23.3429 131.354 22.1402C133.762 20.9617 134.821 17.378 133.406 14.9807ZM129.52 10.4122C129.584 12.9467 126.901 15.3439 123.621 15.6022C124.162 12.3978 127.225 9.74228 129.52 10.4122Z" fill="#0ABBEF"/>
<path d="M38.2469 39.5426C39.3621 39.6959 40.5984 39.8735 42.053 40.0753C39.8227 43.7478 38.2388 47.5011 37.0429 51.5369C35.8873 51.327 34.8206 51.1333 33.7944 50.9477C35.2651 47.1702 36.7196 43.4573 38.2469 39.5426Z" fill="#FFED00"/>
<path d="M4.64649 130.412C5.63235 128.596 6.61821 126.949 7.44246 125.222C8.26671 123.503 8.92934 121.703 9.69702 119.846C10.7152 120.129 11.7334 120.411 12.7273 120.694C12.6627 121.663 9.37378 129.201 8.13741 131.235C6.99801 130.969 5.81013 130.695 4.64649 130.42V130.412Z" fill="#FFED00"/>
<path d="M0.404042 77.9713C0.525255 78.1085 0.66263 78.2377 0.7596 78.3991C1.74546 80.1022 3.21618 81.2322 5.01821 81.9506C7.62024 82.9838 7.22428 83.0403 6.43235 85.0904C6.12528 85.8815 6.03639 86.7532 5.89902 87.6007C5.7374 88.5451 5.28487 88.7953 4.61416 88.1496C3.13537 86.729 1.7293 85.2438 0.307072 83.7667C0.145455 83.6053 0 83.3389 0 83.1291C0.0323234 81.434 0.105051 79.739 0.161617 78.0359C0.242425 78.0198 0.323234 77.9955 0.404042 77.9794V77.9713Z" fill="#0ABBEF"/>
<path d="M64.5011 65.3554C65.4223 66.3805 66.295 67.3329 67.1354 68.3176C67.2405 68.4387 67.2647 68.7131 67.2082 68.8826C66.2789 71.8449 64.6627 74.339 62.19 76.2601C62.1334 76.3004 62.0364 76.2843 61.8344 76.3004C61.3172 75.6547 60.7677 74.9605 60.1455 74.1857C62.4405 73.4834 63.2728 71.6431 63.7819 69.6414C64.1213 68.3096 64.2425 66.9132 64.493 65.3554H64.5011Z" fill="#EC5F6C"/>
<path d="M46.8289 72.3372C46.8773 71.5139 46.9258 70.7552 46.9743 69.8835C50.5137 71.0377 52.3077 68.9472 53.8107 66.2916C54.3279 66.7275 54.7643 67.0907 55.2976 67.5427C55.1521 68.7696 54.8531 69.9642 53.8754 70.9005C52.2673 72.4341 49.1885 73.0959 46.8208 72.3372H46.8289Z" fill="#FFED00"/>
<path d="M104.404 0C105.39 0.10493 106.279 0.193717 107.305 0.306719C106.424 2.88155 106.109 5.52902 104.994 8.03927C103.734 7.51462 102.554 7.03033 101.325 6.52182C102.861 4.59272 103.855 2.46183 104.412 0.00807156L104.404 0Z" fill="#FFED00"/>
<path d="M54.1095 37.6215C54.6994 36.7417 55.2247 35.9669 55.7903 35.1194C57.1802 35.4341 58.2227 36.1525 58.5782 37.5408C59.0712 39.4376 59.5075 41.3829 57.5681 43.0214C56.1055 41.4152 55.3216 39.4296 54.1014 37.6296L54.1095 37.6215Z" fill="#EC5F6C"/>
<path d="M94.821 6.47342C94.3846 7.99088 93.9483 9.5164 93.5119 11.0258C92.5341 10.5899 88.4048 6.03756 87.6291 4.45553C87.9281 4.43132 88.1947 4.3506 88.4452 4.39096C89.8432 4.60082 94.0857 5.9972 94.821 6.47342Z" fill="#EE882C"/>
<path d="M123.726 82.8706C124.582 82.4832 125.285 82.1764 126.053 81.8294C126.618 83.5809 127.168 85.2678 127.75 87.0597C126.691 87.6974 125.657 88.327 124.469 89.0453C123.968 86.9306 123.806 84.9369 123.717 82.8706H123.726Z" fill="#EC5F6C"/>
<path d="M55.2733 9.79896C56.3965 9.7586 56.8894 10.2913 56.7925 11.1066C56.7763 11.268 56.7359 11.4375 56.6632 11.5828C55.742 13.3908 54.4086 14.7953 52.5096 15.5782C52.2268 15.6993 51.7096 15.667 51.5157 15.4813C51.346 15.3118 51.346 14.763 51.4914 14.5127C52.2753 13.1729 53.0672 11.8249 53.9803 10.5819C54.3036 10.146 54.9904 9.96846 55.2733 9.80703V9.79896Z" fill="#0ABBEF"/>
<path d="M63.3536 46.4195C66.0122 46.2581 66.9576 46.3791 69.1233 43.7397C69.2041 43.7559 69.293 43.7478 69.3576 43.7882C69.9475 44.1594 70.5294 44.5307 71.192 44.9585C70.9657 45.2249 70.8122 45.5235 70.5617 45.693C69.2526 46.5971 67.9435 47.5011 66.594 48.3405C66.198 48.5907 65.6728 48.7037 65.196 48.736C64.9374 48.7602 64.5495 48.5584 64.4041 48.3405C64.0081 47.7432 63.7091 47.0814 63.3455 46.4114L63.3536 46.4195Z" fill="#EE882C"/>
<path d="M137.52 67.5589C136.065 69.0845 134.667 70.5535 133.197 72.1032C132.574 71.3606 132.033 70.7068 131.419 69.9804C132.34 69.0603 133.197 68.1159 134.15 67.3006C135.33 66.2917 135.92 66.3724 137.52 67.5589Z" fill="#FFED00"/>
<path d="M60.679 84.9048C61.4951 84.3882 62.4083 83.807 63.3861 83.1936C63.483 83.4196 63.5477 83.5649 63.5961 83.7021C64.1726 85.3379 63.8763 86.7854 62.7073 88.0446C62.077 88.7226 61.479 89.4329 60.679 90.3369V84.9048Z" fill="#EC5F6C"/>
<path d="M138.781 34.958C139.201 35.3535 139.637 35.7732 140.122 36.2333C138.773 37.4924 137.504 38.6951 136.203 39.8655C136.025 40.0269 135.67 40.1318 135.435 40.0834C134.522 39.8978 133.625 39.6475 132.55 39.3731C133.795 38.6951 134.958 38.2027 135.96 37.4924C136.954 36.7902 137.787 35.8701 138.797 34.958H138.781Z" fill="#EC5F6C"/>
<path d="M49.3658 59.9555C49.4385 59.6407 49.4951 59.334 49.584 59.0354C50.3274 56.5251 51.1355 54.031 50.9011 51.3512C50.8446 50.7297 51.2082 50.4876 51.7981 50.4392C51.8708 50.5683 51.9678 50.6652 51.9678 50.7701C51.9921 52.3279 52.0567 53.8776 52.0082 55.4355C51.9597 57.0417 51.386 58.4704 50.1739 59.5923C50.0284 59.7295 49.8506 59.8506 49.6809 59.9555C49.6244 59.9878 49.5274 59.9555 49.3658 59.9555Z" fill="#0ABBEF"/>
<path d="M41.859 60.795C41.2206 62.6676 40.1378 63.951 38.6913 64.9277C38.1418 65.2989 37.6812 65.0003 37.7701 64.3546C37.9317 63.2084 38.3276 62.1349 39.0226 61.2067C39.1842 60.9887 39.5478 60.8434 39.8388 60.8192C40.4448 60.7627 41.0509 60.8031 41.859 60.8031V60.795Z" fill="#EC5F6C"/>
<path d="M127.128 119.572C128.243 119.984 129.261 120.355 130.4 120.775C127.92 123.6 125.504 126.336 123.007 129.169C122.247 128.031 121.56 126.998 120.849 125.924C124.445 125.359 126.101 122.857 127.136 119.564L127.128 119.572Z" fill="#0ABBEF"/>
<path d="M112.971 130.323C113.924 131.082 114.829 131.8 115.864 132.624C114.264 135.029 112.849 137.491 110.595 139.485C110.053 138.847 109.593 138.298 109.245 137.886C110.126 136.66 111.088 135.618 111.686 134.399C112.292 133.181 112.534 131.784 112.979 130.323H112.971Z" fill="#EC5F6C"/>
<path d="M97.0509 57.2515C96.7438 58.2523 96.461 59.2613 96.1135 60.246C95.9277 60.7626 95.564 61.1985 94.9095 61.0209C94.3357 60.8595 94.158 60.3429 94.2307 59.8586C94.4165 58.5752 94.6671 57.2999 94.9499 56.0407C95.0469 55.5968 95.3782 55.2174 95.9115 55.2497C96.4852 55.2901 96.7439 55.718 96.8409 56.2265C96.8974 56.5413 96.8894 56.8722 96.9136 57.1951L97.0509 57.2434V57.2515Z" fill="black"/>
<path d="M118.716 65.8639C117.689 67.4379 116.049 66.7921 114.619 67.3006C114.853 67.7042 115.039 68.0837 115.281 68.4227C115.491 68.7213 115.806 68.9473 116.017 69.246C116.703 70.2469 116.429 71.4899 115.37 72.0952C114.473 72.6118 113.528 72.8217 112.606 72.1437C112.437 72.0145 112.34 71.7885 112.162 71.5383C112.825 71.5948 113.382 71.7562 113.899 71.6674C115.427 71.4092 115.774 70.4567 114.869 69.2218C114.578 68.8263 114.271 68.4308 114.077 67.9868C113.705 67.1312 114.053 66.5501 114.982 66.4048C115.629 66.3079 116.291 66.2999 116.938 66.2111C117.487 66.1384 118.029 66.0012 118.724 65.864L118.716 65.8639Z" fill="black"/>
<path d="M87.0712 57.0901C87.3217 58.7771 86.1419 61.6748 83.7984 65.4765C84.655 65.7267 85.4873 65.9769 86.4166 66.2513C86.1984 66.4854 86.1338 66.6307 86.0368 66.6468C84.9701 66.8728 84.0085 66.5903 83.1358 65.993C82.7479 65.7267 82.6348 65.3392 82.9742 64.9437C84.5742 63.0711 85.3015 60.7304 86.3439 58.5591C86.5459 58.1394 86.756 57.7278 87.0712 57.0901Z" fill="black"/>
<path d="M81.7866 73.4109C82.829 73.3221 83.8634 73.2253 84.9058 73.1365C86.6917 72.9831 88.3159 72.3051 89.9078 71.5625C90.2876 71.3849 90.5782 71.0055 90.9176 70.7149C91.354 70.9947 91.6641 71.5356 91.8472 72.3374C90.6755 71.8692 89.8997 72.7087 88.9947 73.088C87.1846 73.8387 85.3341 74.2423 83.3704 74.0647C82.8209 74.0163 82.2876 73.8629 81.7381 73.758C81.7543 73.6369 81.7623 73.5239 81.7785 73.4028L81.7866 73.4109Z" fill="black"/>
<path d="M78.1258 55.2821C78.1986 54.7655 78.2794 53.9907 78.4248 53.2319C78.546 52.6024 78.9824 52.2553 79.5238 52.2795C80.041 52.2956 80.4693 52.6831 80.5582 53.3127C80.7117 54.3862 80.5178 55.4274 80.0491 56.4041C79.8147 56.8884 79.4834 57.3565 78.8289 57.1789C78.2551 57.0256 78.1499 56.5332 78.1256 56.0166C78.1176 55.8552 78.1256 55.6938 78.1256 55.274L78.1258 55.2821Z" fill="black"/>
<path d="M92.6875 50.9074C92.2834 49.8177 92.8087 49.1882 93.3663 48.6474C94.4895 47.5496 95.8552 47.5254 97.2532 47.9936C98.2552 48.3326 99.2491 48.7523 99.3138 50.2213C98.9744 50.068 98.7319 49.9792 98.5057 49.8662C97.9966 49.616 97.5117 49.2931 96.9784 49.1074C95.4834 48.5747 94.3925 48.9057 93.3905 50.1164C93.1966 50.3505 92.9945 50.5684 92.6875 50.9074Z" fill="black"/>
<path d="M84.1617 48.5101C83.798 48.3648 83.4263 48.2276 83.0788 48.0581C82.6021 47.824 82.1499 47.5334 81.665 47.3235C80.1135 46.6455 78.9495 46.9038 77.8182 48.1791C77.6889 48.3244 77.6243 48.5343 77.4707 48.8329C77.0101 48.2679 77.0909 47.9289 77.2445 47.606C77.7374 46.5567 78.6101 45.9433 79.7334 45.8464C81.3172 45.7092 82.7071 46.2985 83.8788 47.3558C84.1294 47.5818 84.2428 47.9531 84.4206 48.2518C84.3317 48.3406 84.2506 48.4213 84.1617 48.5101Z" fill="black"/>
<path d="M23.3456 89.0535C22.2304 89.2956 21.0749 89.3441 19.9435 89.449C19.5799 89.4894 19.2082 89.4571 18.8365 89.4571C18.8365 89.4732 18.8365 89.4894 18.8284 89.5136C17.2849 89.3764 15.7253 89.3199 14.19 89.0777C13.2364 88.9324 12.3233 88.5289 11.4102 88.1737C10.8364 87.9558 10.7152 87.4553 10.8122 86.858C10.9091 86.2607 11.1354 85.7199 11.4506 85.2679C13.5435 86.4948 15.9516 87.1486 18.3597 87.4473C20.3557 87.6975 22.3597 87.7136 24.3638 87.6813C24.5577 88.3836 24.2345 88.8517 23.3456 89.0535Z" fill="#F4C6CC"/>
<path d="M22.8365 94.6874C22.1577 95.1879 21.39 95.6883 20.59 95.8901C17.689 96.6327 14.7314 97.0363 11.7172 96.7457C10.4081 96.6246 9.99601 96.221 9.89096 94.8973C9.85055 94.4614 9.85055 94.0256 9.88288 93.5978C10.1576 93.8076 10.4566 93.9771 10.7718 94.0982C11.7091 94.4776 12.7354 94.5341 13.7374 94.5744C15.4667 94.6471 17.2041 94.6875 18.9011 94.413C20.4365 94.1547 21.9557 93.6381 23.2001 92.718C23.6526 93.4848 23.5638 94.1386 22.8365 94.6874Z" fill="#F4C6CC"/>
<path d="M18.9415 103.937C19.2486 104.43 19.5476 104.987 19.1516 105.528C18.8769 105.891 18.4647 106.262 18.0365 106.399C16.388 106.916 14.7233 106.892 13.1152 106.238C11.8708 105.737 11.491 104.914 11.7496 103.437C13.8425 103.881 15.9435 103.865 18.0445 103.461C18.5051 103.372 18.7395 103.615 18.9415 103.937Z" fill="#F4C6CC"/>
<path d="M20.4041 101.564C20.3314 101.605 20.2425 101.637 20.1617 101.669C17.689 102.606 15.1435 102.856 12.5415 102.372C11.2162 102.121 10.6586 101.427 10.6102 100.055V99.6676C13.6809 101.007 17.0506 101.653 20.4041 101.564Z" fill="#F4C6CC"/>
<path d="M41.7457 135.57C45.6406 136.45 49.2851 138.411 52.1942 141.147C50.8851 137.846 49.1073 134.868 46.3356 132.503C46.0043 132.22 45.6083 131.922 45.1962 131.841C43.4346 131.461 41.6487 131.155 39.6446 130.783L39.7901 131.453L41.7457 135.57Z" fill="#F4C6CC"/>
<path d="M41.875 155.41C41.8346 155.587 41.8022 155.757 41.7537 155.934C40.477 151.939 37.6083 148.614 34.481 145.788C31.2486 142.85 27.6607 140.292 24.687 137.087C24.0082 136.369 23.3617 135.602 22.9334 134.706C22.9011 134.642 22.8769 134.585 22.8526 134.521C22.8203 134.165 22.7799 133.802 22.7476 133.439C22.7072 132.995 22.6991 132.543 22.6829 132.067C22.893 132.067 22.9415 132.051 22.9739 132.075C25.1153 133.358 27.386 133.156 29.6567 132.575C31.8385 132.018 33.9961 131.357 36.1699 130.783C36.8487 130.598 37.5517 130.517 38.3032 130.396C38.3355 130.404 38.3598 130.412 38.3921 130.428C38.4406 130.453 38.4891 130.477 38.5295 130.501C39.677 133.778 40.9941 136.805 41.7295 140.05C42.877 145.167 42.9578 150.276 41.875 155.41Z" fill="#F4C6CC"/>
<path d="M20.6951 126.425C19.5799 125.311 18.6425 124.076 18.0607 122.599C17.9395 122.292 17.8344 121.977 17.7779 121.655C17.5435 120.21 18.2142 119.532 19.4506 120.048C19.5961 120.113 19.7658 120.129 20.0082 120.194C20.2587 120.977 20.5415 121.784 20.7759 122.599C21.2365 124.213 22.287 125.279 23.7658 126.005C25.0425 126.627 26.3516 127.071 27.6931 127.361H26.384C26.99 127.87 27.6284 128.338 28.291 128.766C27.5638 128.757 26.8284 128.766 26.1011 128.749C23.992 128.693 22.1819 127.918 20.6951 126.425Z" fill="#F4C6CC"/>
<path d="M29.7698 129.605C30.5214 129.984 31.2971 130.315 32.0971 130.582C31.3537 131.276 30.2951 131.502 29.285 131.518C28.283 131.534 27.2729 131.365 26.2628 131.365C25.5274 131.365 24.7678 131.453 24.0244 131.526C22.7557 130.824 21.4789 130.114 20.2668 129.314C19.5072 128.814 19.5718 128.556 20.291 127.749C20.388 127.781 20.5254 127.789 20.6142 127.853C22.4163 129.339 24.5254 129.928 26.8123 129.815C27.7981 129.766 28.784 129.694 29.7698 129.605Z" fill="#F4C6CC"/>
<path d="M29.8507 113.615C29.8507 113.615 29.8507 113.591 29.8426 113.575C29.8507 113.559 29.8668 113.543 29.883 113.526L29.8507 113.615Z" fill="#F4C6CC"/>
<path d="M25.2203 118.563C25.0668 117.159 25.1638 115.77 25.6567 114.439C25.8264 113.987 26.0931 113.551 26.4001 113.171C27.0547 112.364 27.8143 112.251 28.6628 112.873C29.0264 113.139 29.3577 113.47 29.6163 113.833C28.6789 114.995 28.4042 116.634 28.7436 118.103C29.1153 119.701 30.1496 121.09 31.4264 122.131C32.0567 122.647 32.7517 123.091 33.479 123.471C32.2507 123.188 31.0224 122.889 29.8264 122.51C28.6789 122.147 27.6365 121.412 26.5779 120.791C25.7537 120.298 25.3173 119.507 25.2203 118.563Z" fill="#F4C6CC"/>
<path d="M33.5355 124.689C31.7173 124.762 29.8991 124.576 28.1375 124.124C28.8648 125.367 30.0123 126.344 31.3456 126.901C29.3496 126.635 27.3779 126.215 25.4708 125.489C24.8971 125.271 24.3476 124.988 23.8062 124.698C22.9496 124.229 22.3274 123.551 22.0122 122.599C21.4789 121.009 20.8243 119.427 20.9132 117.716C20.9536 117.046 21.1718 116.352 21.4466 115.73C21.6648 115.238 22.1496 114.923 22.7557 115.044C23.3132 115.165 23.8223 115.77 23.8627 116.376C23.8951 116.989 23.8627 117.611 23.8951 118.224C23.9597 119.75 24.6143 120.96 25.883 121.856C28.2022 123.487 30.7799 124.318 33.5355 124.689Z" fill="#F4C6CC"/>
<path d="M120.671 153.222C119.896 154.304 119.233 155.329 118.473 156.273C117.487 157.484 116.494 158.679 115.459 159.849C112.825 156.314 107.669 149.663 105.18 148.113C102.344 146.362 99.5722 144.909 98.6995 144.465C98.5136 144.368 98.4166 144.319 98.4166 144.319L102.013 141.05C108.429 144.755 114.457 148.993 120.671 153.222Z" fill="#F4C6CC"/>
<path d="M110.53 46.2662H110.457C110.409 45.5801 110.247 44.9021 109.916 44.2402C108.081 40.5919 105.277 38.3883 101.083 38.1139C98.5055 37.9444 96.0086 38.348 93.5277 38.9614C90.5459 39.704 87.5641 40.4627 84.5661 41.1569C83.5317 41.391 82.457 41.5362 81.3984 41.5524C77.665 41.6008 73.9559 39.1148 72.5822 35.6682C73.0913 35.8781 73.5842 36.0395 74.0691 36.1364H74.0771C76.0085 37.1292 78.0206 37.9282 80.1701 38.1785C82.5701 38.4529 84.9944 38.0009 87.3701 37.557C92.857 36.5157 98.4974 35.4664 103.984 36.5077C105.827 36.8547 107.71 37.4843 108.994 38.8484C110.788 40.7614 111.015 43.6913 110.53 46.2662Z" fill="white"/>
<path d="M109.794 26.0388C110.32 27.0155 110.813 28.0083 111.289 29.0092C108.485 24.3922 103.128 21.4058 97.7055 21.543C94.5459 21.6237 91.4833 22.6649 88.3317 22.8506C85.5358 23.012 82.7075 22.4793 80.162 21.317C78.7075 20.647 77.3176 19.7511 76.364 18.4758C76.6307 17.7494 77.0105 17.0471 77.4953 16.361C77.6489 16.5306 77.7943 16.6193 77.8428 16.7485C78.6347 18.8794 80.3317 19.7672 82.4327 19.8722C84.6388 19.969 86.861 19.8641 89.0752 19.8157C89.859 19.7995 90.6348 19.7188 91.4106 19.622C95.4591 19.1215 99.4429 19.6058 103.403 20.4291C104.025 20.5583 104.655 20.8246 105.205 21.1556C107.192 22.3421 108.712 24.0129 109.794 26.0388Z" fill="white"/>
<path d="M102.821 27.7904C102.732 27.7177 102.635 27.6532 102.538 27.5886C102.538 27.5886 102.535 27.5859 102.53 27.5805C100.372 26.0469 97.7136 25.2075 95.0631 25.2559C92.7196 25.2963 90.4489 25.9823 88.2429 26.7734C86.0368 27.5644 83.863 28.4603 81.5681 28.9365C79.2812 29.4128 76.8246 29.437 74.6751 28.5249C73.5923 28.0648 72.6064 27.3303 71.863 26.4263C72.0165 25.6433 72.2024 24.8362 72.4206 24.0129C73.1721 25.5546 74.2468 26.3859 75.6529 26.7169C76.4448 26.9025 77.2691 27.0074 78.0852 27.0155C80.5741 27.0639 82.9661 26.4424 85.3822 25.9501C87.8307 25.4416 90.2631 24.8281 92.7277 24.4487C94.9419 24.1017 97.1318 24.3277 99.2571 25.1833C99.7742 25.3931 100.251 25.6514 100.687 25.9501H100.695L102.336 27.3707L102.36 27.3949L102.821 27.7904Z" fill="white"/>
<path d="M121.512 102.477C120.914 100.903 120.235 99.3447 119.443 97.7869C125.714 99.9985 130.732 103.736 135.524 107.82C135.508 107.909 135.483 107.997 135.467 108.078L134.255 107.933C132.259 107.675 130.263 107.368 128.251 107.804C128.195 107.812 128.138 107.828 128.081 107.844C126.279 105.624 124.057 103.76 121.512 102.477Z" fill="#76B82A"/>
<path d="M139.847 122.954C139.532 126.562 139.007 130.13 137.924 133.584C135.896 140.025 133.14 146.144 129.528 151.866C128.566 153.392 127.572 154.901 126.578 156.427C125.423 155.523 124.259 154.635 123.104 153.747C123.386 152.569 124.081 151.422 124.744 150.373C127.976 145.207 130.805 139.727 132.372 133.835C133.94 127.95 134.199 121.606 132.372 115.795C131.58 113.268 130.36 110.855 128.776 108.724C131.015 108.449 133.237 108.708 135.451 109.184C137.415 109.612 138.554 110.734 139.088 112.711C139.985 116.093 140.154 119.491 139.855 122.954H139.847Z" fill="#76B82A"/>
<path d="M140.3 112.453C139.831 110.839 139.088 109.426 137.859 108.256C134.538 105.1 130.934 102.323 127.031 99.9501C124.582 98.4569 121.988 97.1896 119.217 96.3663C118.748 96.2291 118.457 95.987 118.19 95.5834C117.334 94.2839 116.494 92.9601 115.532 91.7413C114.118 89.9656 112.55 88.3351 110.401 87.415C110.11 87.2939 109.835 87.1405 109.528 86.9872C109.859 84.9451 110.19 82.9675 110.514 80.9819C110.829 79.0206 111.136 77.0672 111.451 75.0816C111.928 75.2188 112.283 75.3399 112.639 75.4206C116.049 76.1229 118.166 75.2108 119.71 72.983C120.437 71.9418 121.1 70.8521 121.681 69.7302C122.449 68.2531 122.546 66.663 122.15 65.0568C122.021 64.5079 121.786 63.9832 121.601 63.4747C121.649 63.4021 121.665 63.3617 121.698 63.3375C121.916 63.1599 122.15 62.9824 122.368 62.8048C126.441 59.447 128.275 55.0319 128.445 49.8742C128.526 47.5173 127.354 45.9029 125.172 45.0231C124.72 44.8375 124.267 44.6761 123.742 44.4743C124.017 44.1353 124.259 43.8608 124.469 43.5703C126.449 40.8744 127.451 37.4117 126.142 34.0297C125.762 33.045 125.188 32.0602 124.388 31.1078C124.219 30.906 124.049 30.7042 123.871 30.5024C123.233 29.776 122.57 29.0657 121.835 28.4522C116.267 23.8595 110.013 20.6228 102.885 19.2184C99.4752 18.5484 96.049 18.274 92.5742 18.4758C92.0489 18.5 91.5237 18.5404 90.9984 18.5969C88.2752 18.8713 85.5115 18.9036 82.764 18.9117C81.3822 18.9197 80.2186 18.5404 79.4024 17.6202C79.0307 17.2086 78.7317 16.6839 78.5135 16.0301C78.158 14.9647 77.5277 14.892 76.8408 15.8203C76.3721 16.4579 75.9761 17.1198 75.6852 17.8059C75.1923 18.9278 74.9499 20.1063 75.0064 21.3816C75.0145 21.6802 75.0388 21.9789 75.0872 22.2856C75.2893 23.6012 76.0569 24.6102 76.8004 25.6756C74.8367 25.6353 73.8266 24.9088 73.2933 23.1815C73.164 22.7537 73.0993 22.3017 72.962 21.8739C72.9377 21.7932 72.8973 21.7125 72.8488 21.6318C72.7761 21.5026 72.6711 21.3654 72.5499 21.1636C72.3882 21.4058 72.2347 21.5672 72.1296 21.7286C72.0892 21.8013 72.0488 21.8739 72.0327 21.9466C71.4428 24.2873 70.6589 26.6119 70.3357 28.993C69.6407 34.1104 71.2407 38.3803 75.661 41.3667C75.8226 41.4797 75.9681 41.6169 76.1054 41.7299C76.0893 41.8591 76.0973 41.9479 76.065 42.0205C74.0206 48.05 73.1074 54.2974 72.7761 60.6174C72.6145 63.6362 72.8004 66.6872 72.9701 69.7141C73.1882 73.4673 74.3196 76.9623 76.4367 80.0941C78.659 83.3873 81.56 85.72 85.6247 86.3172C85.859 86.3576 86.0934 86.4222 86.5782 86.5432C86.2469 86.8257 86.0934 87.0598 85.8994 87.1002C85.4226 87.2051 84.9055 87.1648 84.4368 87.2778C79.2327 88.4966 75.1357 91.2974 72.3317 95.8659C71.9115 96.5439 71.4347 96.8426 70.6993 96.9475C69.6811 97.0928 68.671 97.3026 67.669 97.4963C60.4367 98.8927 54.3841 102.339 49.5598 107.917C49.4063 108.086 49.2285 108.24 49.0992 108.369C48.2346 107.61 47.4507 106.916 46.5457 106.125C46.6669 104.85 46.8204 103.429 46.9497 102C47.2568 98.5295 47.5881 95.0587 47.8305 91.5799C47.8871 90.8454 47.9841 90.2804 48.5982 89.7719C49.5518 88.9889 49.8103 87.9154 49.2851 86.7773C48.9457 86.0428 48.5336 85.3083 48.0164 84.6868C45.3174 81.4743 42.2144 78.6573 39.0547 75.9049C38.6265 75.5256 38.1174 75.235 37.6648 74.8798C36.881 74.2664 36.0487 74.1453 35.1436 74.5973C34.9254 74.7023 34.683 74.7668 34.4648 74.8718C29.4304 77.2045 24.5496 79.7873 20.1132 83.2258C19.3375 83.0079 18.5213 82.7173 17.6728 82.564C15.9193 82.2411 14.1657 82.2411 12.4768 82.9756C10.9253 83.6456 10.3677 85.0581 9.80207 86.4867C9.41419 87.4795 9.66469 88.3109 10.4485 88.9889C9.29298 90.4257 8.86469 91.9996 8.75156 93.6624C8.64651 95.1717 8.7354 96.6327 10.093 97.6174C9.31722 99.7725 9.01015 101.774 11.192 103.235C10.4647 105.092 10.9334 106.343 12.6384 107.134C13.0748 107.344 13.5597 107.497 14.0364 107.586C14.796 107.723 15.5718 107.78 16.4122 107.876C16.5253 109.006 17.3011 109.951 17.2203 111.17C17.196 111.509 17.6567 111.888 17.8991 112.251C18.1011 112.534 18.4243 112.784 18.489 113.091C18.9334 115.125 19.3294 117.175 19.7577 119.306C19.394 119.217 19.1354 119.136 18.8688 119.08C17.8506 118.87 17.0344 119.314 16.792 120.298C16.6708 120.799 16.5981 121.404 16.7516 121.872C17.1152 122.946 17.5678 124.011 18.1173 125.004C18.5213 125.747 19.1354 126.384 19.6526 127.054C18.4082 128.515 18.489 129.25 20.0324 130.364C20.6304 130.792 21.285 131.155 21.9799 131.591C21.9799 132.487 21.9557 133.431 21.988 134.367C22.0769 137.652 22.3516 140.897 22.9739 144.102C23.2728 145.635 23.6526 147.161 24.1375 148.67C24.2021 148.88 24.2668 149.082 24.3395 149.283C25.2042 151.899 26.3274 154.369 28.1698 156.483C29.5678 158.098 30.8931 159.768 32.2587 161.399C33.8668 163.32 36.38 163.707 38.4487 162.311C38.5376 162.254 38.6184 162.19 38.7073 162.133C39.5396 161.568 40.3638 160.987 41.0911 160.301L41.5517 159.865C44.6628 156.895 47.8629 153.997 50.3841 150.47C50.5457 150.252 50.7558 150.066 50.9497 149.865C51.273 149.986 51.5477 150.074 51.8063 150.196C52.7275 150.615 53.5356 150.591 54.2225 149.727C54.4568 149.437 54.8124 149.243 55.2972 148.864C55.1679 150.761 54.9902 152.391 54.9498 154.03C54.8609 158.13 54.7962 162.222 54.7397 166.323C54.7154 167.679 54.6993 169.043 54.675 170.399C54.675 170.431 54.675 170.471 54.6669 170.504C55.0548 170.657 55.4508 170.81 55.8548 170.948C55.9033 170.665 55.8871 170.366 55.8871 170.092C55.871 168.97 55.8629 167.848 55.8548 166.726C55.8306 164.813 55.8063 162.9 55.7255 160.987C55.5477 157.04 55.8548 153.117 55.9599 149.179C55.9841 148.339 56.1134 147.588 56.6063 146.87C57.1074 146.127 57.4791 145.296 57.8912 144.497C58.1498 143.997 58.376 143.48 58.6831 142.834C59.0387 143.302 59.3053 143.617 59.5235 143.948C62.1983 147.887 64.865 151.826 67.5316 155.773C70.1983 159.712 72.8569 163.659 75.5559 167.582C75.8711 168.034 75.9519 168.429 75.863 168.946C75.7499 169.64 75.6367 170.326 75.5478 171.02C75.4994 171.383 75.4509 171.739 75.4105 172.102C75.3701 172.449 75.3135 172.869 75.96 172.998C76.3883 172.417 76.4287 171.763 76.4287 171.085C76.4287 170.407 76.3963 169.785 76.6226 169.196C76.7196 169.204 76.7761 169.196 76.8004 169.22C77.3337 169.721 77.867 170.229 78.3923 170.738C78.562 170.899 78.7398 171.069 78.9176 171.214C81.2853 173.337 83.9358 174.733 86.8368 175.443C88.5257 175.863 90.3035 176.041 92.1621 175.992C95.6772 175.912 98.9015 174.757 101.94 173.07C102.134 172.965 102.32 172.86 102.514 172.747C106.271 170.568 109.576 167.905 112.558 164.91C115.168 162.311 117.528 159.454 119.758 156.459C120.364 155.644 120.93 154.804 121.544 153.925C122.118 154.304 122.554 154.603 122.982 154.885C122.982 155.143 123.007 155.345 122.974 155.547C122.764 156.951 122.554 158.356 122.344 159.768C122.085 161.496 121.819 163.223 121.568 164.958C121.972 164.732 122.368 164.498 122.764 164.248C123.007 162.513 123.249 160.769 123.483 159.034C123.5 158.897 123.524 158.759 123.54 158.622C123.669 157.638 123.702 156.645 123.791 155.499C124.51 156.096 125.067 156.572 125.641 157.032C125.795 157.153 125.94 157.234 126.085 157.266C126.376 157.339 126.643 157.242 126.91 156.903C127.071 156.693 127.249 156.491 127.427 156.29C127.879 155.781 128.34 155.281 128.712 154.724C135.362 144.707 140.227 134.028 141.092 121.832C141.318 118.652 141.18 115.528 140.3 112.453ZM110.392 88.3674C111.847 89.3844 113.035 90.6839 114.134 92.0723C117.091 95.8094 119.063 100.079 120.793 104.478C121.269 105.689 121.746 106.9 122.271 108.256C120.639 107.884 119.136 107.537 117.633 107.206C116.51 106.964 115.378 106.771 114.263 106.488C113.172 106.214 112.251 106.456 111.427 107.215C110.401 108.151 109.35 109.063 108.316 109.991C106.7 111.444 105.1 112.897 103.281 114.535C103.419 112.074 107.685 93.3799 109.358 87.7056C109.722 87.9396 110.061 88.1333 110.392 88.3674ZM103.645 106.851C103.322 108.425 103.039 109.894 102.716 111.363C100.809 120.089 98.8773 128.814 96.9944 137.539C96.3964 140.308 95.9197 143.093 95.3621 145.861C95.3055 146.16 95.1277 146.458 94.9257 146.693C94.554 147.128 94.1176 147.508 93.7217 147.927C92.4449 149.251 91.1762 150.591 89.7863 152.052C86.6429 149.033 82.756 147.04 79.0953 144.804C79.8469 139.549 80.5822 134.367 81.3418 129.193C82.5135 121.203 83.4832 113.187 85.2529 105.302C85.2934 105.1 85.3499 104.906 85.4226 104.624C91.2732 106.916 97.3742 106.98 103.645 106.851ZM85.5196 103.97C85.6085 103.558 85.6651 103.284 85.7378 103.009C85.7782 102.824 85.8428 102.638 85.9156 102.396C91.7095 104.882 97.7702 105.1 103.887 104.89C103.904 105.939 103.871 105.98 103.023 106.052C102.74 106.076 102.449 106.076 102.158 106.068C97.0429 105.939 91.9277 105.721 86.9418 104.357C86.5136 104.236 86.0853 104.123 85.5196 103.97ZM72.5822 35.6682C75.6044 36.9435 78.2873 36.0637 80.8812 34.5059C82.0044 33.836 83.1277 33.1257 84.3236 32.6091C87.362 31.2854 90.4813 31.3419 93.5601 32.4799C94.3197 32.7544 94.9742 33.2952 95.6772 33.7149C95.8954 33.8521 96.1136 34.0055 96.5419 34.288C96.3075 33.2629 95.75 32.8028 95.152 32.3992C93.9075 31.5517 92.4772 31.1724 90.9984 30.9867C87.7418 30.567 84.7277 31.2289 81.9075 32.9158C80.6469 33.6745 79.3378 34.3768 77.9802 34.9418C77.1721 35.2727 76.2266 35.3857 75.3377 35.4099C73.0185 35.4584 71.5802 34.0781 71.4347 31.7535C71.2812 29.2029 71.7095 26.7249 72.4206 24.0129C73.1721 25.5546 74.2468 26.3859 75.6529 26.7169C76.4448 26.9025 77.2691 27.0074 78.0852 27.0155C80.5741 27.0639 82.9661 26.4424 85.3822 25.9501C87.8307 25.4416 90.2631 24.8281 92.7277 24.4487C94.9419 24.1017 97.1318 24.3277 99.2571 25.1833C100.647 25.7483 101.706 26.6523 102.667 27.7258C102.877 27.9599 103.087 28.194 103.378 28.3554C102.683 26.9671 101.867 25.6918 100.51 24.8443C98.0288 23.3187 95.3055 22.7699 92.4691 23.2219C89.6328 23.6658 86.8449 24.36 84.0327 24.925C82.6267 25.2155 81.2125 25.49 79.7984 25.716C79.16 25.8209 78.4974 25.8048 77.8994 25.8371C77.7701 25.6595 77.6408 25.4738 77.5196 25.2963C77.5196 25.2963 77.5115 25.2963 77.5034 25.2801C77.3822 25.1106 77.261 24.933 77.1479 24.7635C77.1398 24.7555 77.1317 24.7474 77.1236 24.7313C76.9054 24.3922 76.6953 24.0452 76.5095 23.6981C76.3963 23.4802 76.2913 23.2622 76.2024 23.0362C76.1378 22.8748 76.0812 22.7134 76.0327 22.5439C75.9923 22.4066 75.96 22.2694 75.9276 22.1241C75.8872 21.9224 75.8549 21.7125 75.8388 21.5026C75.8388 21.4381 75.8307 21.3654 75.8307 21.3008C75.8226 21.0829 75.8307 20.8569 75.8549 20.6228C75.8711 20.4453 75.9034 20.2596 75.9276 20.0901C75.9923 19.6946 76.0893 19.3072 76.2105 18.9278C76.259 18.7664 76.3155 18.6049 76.3721 18.4516C76.461 18.2094 76.5579 17.9754 76.6792 17.7413C76.8165 17.4426 76.9782 17.1521 77.164 16.8615C77.2691 16.692 77.3741 16.5306 77.4953 16.361C77.6489 16.5306 77.7943 16.6193 77.8428 16.7485C77.9155 16.9422 77.9963 17.1278 78.0852 17.2973C78.1499 17.4265 78.2145 17.5476 78.2873 17.6606C78.3438 17.7494 78.4004 17.8381 78.465 17.9269C78.5135 18.0157 78.5782 18.0964 78.6509 18.1771C78.8448 18.4112 79.0549 18.6211 79.2893 18.8067C79.362 18.8713 79.4428 18.9278 79.5236 18.9843C79.7661 19.1538 80.0246 19.291 80.2994 19.4121C80.4206 19.4686 80.5418 19.517 80.6711 19.5574C80.76 19.5897 80.8489 19.6139 80.9378 19.6381C81.059 19.6704 81.1721 19.7027 81.2933 19.7269C81.5358 19.7753 81.7863 19.8157 82.0448 19.8399C82.1741 19.856 82.3034 19.8641 82.4327 19.8722C84.6388 19.969 86.861 19.8641 89.0752 19.8157C89.859 19.7995 90.6348 19.7188 91.4106 19.622C92.8651 19.4444 94.3116 19.3879 95.758 19.4363C96.0894 19.4363 96.4126 19.4605 96.7439 19.4847C97.0671 19.5009 97.3985 19.5251 97.7217 19.5574C97.9884 19.5816 98.247 19.6058 98.5055 19.6381C98.5783 19.6381 98.6429 19.6381 98.7076 19.6542L98.8773 19.6785C99.2167 19.7107 99.556 19.7592 99.8874 19.8076C100.106 19.8399 100.332 19.8722 100.55 19.9045C100.792 19.9448 101.027 19.9771 101.261 20.0255C101.625 20.082 101.98 20.1466 102.336 20.2193C102.691 20.2838 103.047 20.3565 103.403 20.4291C104.025 20.5583 104.655 20.8246 105.205 21.1556C105.415 21.2847 105.625 21.4138 105.827 21.5591C105.94 21.6318 106.053 21.7125 106.166 21.8013C106.174 21.7932 106.174 21.8013 106.174 21.8013C106.344 21.9224 106.514 22.0596 106.675 22.1887C106.869 22.3501 107.055 22.5116 107.241 22.6891C107.451 22.8748 107.645 23.0766 107.839 23.2864C108.033 23.4882 108.219 23.6981 108.388 23.916C108.405 23.9322 108.421 23.9564 108.437 23.9725C108.599 24.1662 108.752 24.3761 108.897 24.586C109.035 24.7716 109.156 24.9653 109.285 25.1671C109.358 25.2801 109.431 25.4012 109.504 25.5303C109.609 25.6918 109.706 25.8693 109.794 26.0388C110.893 28.089 111.863 30.2199 112.889 32.3185C113.011 32.5768 113.116 32.8351 113.342 33.3759C113.407 32.9077 113.479 32.6979 113.447 32.5203C113.399 32.2862 113.358 32.0522 113.302 31.8181C113.253 31.5921 113.197 31.358 113.132 31.132C113.091 30.9625 113.043 30.8011 112.994 30.6316C112.938 30.4298 112.881 30.2361 112.817 30.0423C112.631 29.4531 112.413 28.88 112.17 28.315C112.073 28.081 111.968 27.8469 111.855 27.6128C111.742 27.3787 111.629 27.1446 111.508 26.9186C111.37 26.6442 111.225 26.3778 111.063 26.1115C111.047 26.0792 111.031 26.0469 111.007 26.0146C110.853 25.7483 110.683 25.4819 110.522 25.2236C110.328 24.925 110.134 24.6344 109.924 24.3519C109.722 24.0613 109.512 23.7788 109.285 23.5044C109.1 23.2622 108.898 23.0201 108.687 22.786C108.663 22.7537 108.639 22.7134 108.607 22.6811C108.582 22.6569 108.566 22.6326 108.542 22.6084C108.324 22.3663 108.098 22.1322 107.879 21.8901C107.855 21.8659 107.855 21.8174 107.815 21.6802C109.512 22.2049 111.071 22.9152 112.582 23.7223C112.889 23.8837 113.1 24.2389 113.326 24.5295C113.374 24.594 113.431 24.6667 113.479 24.7313C113.479 24.7313 113.487 24.7313 113.487 24.7474C113.633 24.9411 113.77 25.1348 113.9 25.3366C113.94 25.3931 113.98 25.4577 114.021 25.5303C114.15 25.7402 114.279 25.9501 114.392 26.168C114.417 26.2083 114.441 26.2487 114.457 26.2891C114.586 26.5312 114.708 26.7814 114.821 27.0316C114.942 27.298 115.055 27.5644 115.152 27.8469C115.184 27.9357 115.217 28.0164 115.249 28.1052C115.298 28.2343 115.346 28.3715 115.386 28.5087C115.451 28.7105 115.516 28.9123 115.564 29.1141C115.629 29.324 115.685 29.5419 115.734 29.7598C115.815 30.0666 115.879 30.3733 115.936 30.6881V30.7042C115.993 31.0271 116.049 31.3499 116.089 31.6728C116.324 33.4566 116.461 35.2646 116.647 37.0565C116.712 37.6538 116.768 38.2592 116.881 38.8484C117.116 37.6619 117.285 36.0072 117.221 34.1346C117.221 33.9167 117.205 33.7068 117.197 33.4808C117.188 33.3759 117.18 33.271 117.172 33.166C117.14 32.6979 117.091 32.2136 117.019 31.7293C116.986 31.4549 116.938 31.1804 116.889 30.8979C116.792 30.341 116.663 29.776 116.518 29.211C116.437 28.9365 116.356 28.654 116.267 28.3715C116.195 28.1294 116.114 27.8792 116.025 27.637C115.944 27.4191 115.863 27.2012 115.774 26.9832C115.758 26.959 115.75 26.9348 115.742 26.9106C115.637 26.6684 115.532 26.4263 115.419 26.1922C115.306 25.9501 115.184 25.716 115.055 25.4819C115.007 25.377 114.942 25.272 114.885 25.1671C114.974 25.1833 115.071 25.2075 115.168 25.2317L115.314 25.2801C115.403 25.3043 115.5 25.3447 115.597 25.385C115.726 25.4335 115.847 25.49 115.976 25.5626C116.106 25.6272 116.235 25.6918 116.364 25.7725C116.494 25.8451 116.623 25.9258 116.744 26.0146C116.946 26.1518 117.14 26.2971 117.326 26.4505C117.487 26.5877 117.649 26.733 117.795 26.8783C118.045 27.1366 118.263 27.4029 118.417 27.6693C118.53 27.863 118.635 28.0487 118.732 28.2424C118.829 28.4361 118.926 28.6298 119.015 28.8235C119.087 28.9769 119.16 29.1303 119.225 29.2836C119.33 29.5177 119.427 29.7598 119.516 30.0101C119.532 30.0504 119.548 30.0908 119.556 30.1311C119.645 30.3652 119.726 30.5993 119.807 30.8414C119.831 30.9221 119.855 30.9948 119.871 31.0674C119.96 31.3338 120.033 31.6082 120.106 31.8746C120.17 32.1248 120.235 32.375 120.292 32.6333C120.38 33.0207 120.461 33.4082 120.534 33.8037C120.889 35.757 120.889 37.7022 120.437 39.7766C121.35 38.7515 121.746 36.435 121.31 34.1185C121.269 33.8763 121.221 33.6423 121.164 33.4001C121.124 33.1822 121.075 32.9642 121.027 32.7463C120.857 32.0118 120.679 31.2773 120.485 30.5428C120.308 29.8244 120.122 29.1141 119.944 28.3877C120.089 28.4765 120.348 28.5652 120.51 28.7428C121.649 29.9213 122.853 31.0513 123.871 32.3266C123.976 32.4638 124.081 32.601 124.178 32.7382C124.186 32.7463 124.195 32.7625 124.195 32.7705C124.267 32.8674 124.34 32.9642 124.397 33.0692C124.477 33.1902 124.55 33.3113 124.615 33.4324C124.639 33.4566 124.647 33.4727 124.647 33.497C124.736 33.6423 124.817 33.7956 124.881 33.9409C124.922 34.0135 124.954 34.0862 124.986 34.1588C125.043 34.2799 125.092 34.4091 125.14 34.5382C125.164 34.5947 125.188 34.6512 125.197 34.6996C125.245 34.8288 125.294 34.966 125.326 35.0951C125.35 35.1759 125.374 35.2566 125.399 35.3454C125.439 35.5149 125.479 35.6924 125.504 35.8619C125.528 35.9991 125.552 36.1283 125.56 36.2655C125.576 36.3543 125.584 36.4512 125.593 36.548C125.681 37.6296 125.528 38.7435 125.132 39.8735C124.655 41.2457 123.799 42.4887 123.087 43.7721C122.772 44.3371 122.296 44.4581 121.633 44.3936C119.176 44.1353 116.712 44.0546 114.263 44.4904C113.9 44.555 113.544 44.7084 113.188 44.8133C113.205 44.9263 113.221 45.0393 113.237 45.1442C113.819 45.1604 114.409 45.2088 114.99 45.1684C115.629 45.1119 116.073 45.3541 116.211 45.9433C116.429 46.8473 116.655 47.7675 116.687 48.6957C116.752 50.302 116.372 51.8678 115.896 53.4014C115.79 53.7485 115.718 54.0956 115.58 54.6283C117.665 51.892 118.611 48.0661 116.865 45.2734C117.98 44.9909 118.934 45.0393 119.79 45.903C121.544 47.6948 121.892 49.8257 121.39 52.1665C121.221 52.9575 120.938 53.7162 120.679 54.5718C123.152 52.8526 123.112 48.4939 120.566 45.3137C120.906 45.3137 121.172 45.2572 121.407 45.3137C122.546 45.6366 123.71 45.9191 124.809 46.3469C126.578 47.041 127.257 48.5181 127.136 50.2939C126.869 54.3539 125.391 57.9376 122.683 60.9968C122.166 61.5779 121.625 62.1348 121.027 62.7725C119.572 61.4326 117.835 61.2147 115.976 61.4488C113.762 61.7313 111.968 62.8209 110.376 64.3061C110.053 64.6128 109.77 64.9599 109.399 65.3554C107.823 64.2496 106.223 63.2729 104.946 61.812C106.748 59.2614 107.984 56.4928 109.091 53.6678C109.908 51.5934 110.401 49.4464 110.473 47.2025C110.514 46.1693 110.392 45.1846 109.916 44.2321C108.081 40.5838 105.277 38.3803 101.083 38.1058C98.5055 37.9363 96.0086 38.3399 93.5277 38.9533C90.5459 39.6959 87.5641 40.4546 84.5661 41.1488C83.5317 41.3829 82.457 41.5282 81.3984 41.5443C77.665 41.5927 73.9559 39.1067 72.5822 35.6601V35.6682ZM87.0388 86.4706C91.4429 86.4222 95.4348 85.2841 98.8368 82.4348C98.6914 82.459 98.5379 82.4671 98.3924 82.5155C96.4207 83.2016 94.4894 84.033 92.4772 84.5576C90.0449 85.1953 87.556 85.3729 85.0428 84.7836C81.7701 84.0249 79.4105 82.0312 77.5277 79.3918C75.4266 76.4457 74.3519 73.1041 73.964 69.5445C73.0105 60.7062 74.0933 52.0373 76.2428 43.4653C76.364 42.9972 76.5418 42.5452 76.7115 42.0367C79.8307 43.5138 82.9499 43.2393 86.061 42.4322C89.0833 41.6492 92.0732 40.7614 95.0873 39.9946C97.3338 39.4215 99.6126 39.2036 101.924 39.5668C103.863 39.8654 105.528 40.6403 106.885 42.0528C107.742 42.9407 108.631 43.7882 109.439 44.7164C109.665 44.9747 109.762 45.4429 109.754 45.8142C109.722 48.1711 109.293 50.4795 108.396 52.6508C107.241 55.4516 105.988 58.2201 104.704 60.9645C104.38 61.6506 104.259 62.2236 104.841 62.7241C106.085 63.7895 107.362 64.8065 108.639 65.8316C109.027 66.1383 109.431 65.9769 109.778 65.7509C110.368 65.3715 110.926 64.9518 111.5 64.5563C112.946 63.5877 114.441 62.7241 116.235 62.6676C116.889 62.6434 117.56 62.6514 118.199 62.7644C119.378 62.9743 120.219 63.6684 120.631 64.7985C121.043 65.9285 121.197 67.0908 120.865 68.2934C120.316 70.2629 119.395 72.0144 118.021 73.54C117.318 74.3229 116.477 74.7991 115.451 74.7991C114.433 74.8072 113.415 74.67 112.405 74.5408C111.968 74.4924 111.548 74.3229 110.942 74.1534C110.611 75.574 110.231 76.9058 109.996 78.2618C109.439 81.4985 108.946 84.7352 108.413 87.9719C108.3 88.658 108.098 89.3279 107.928 89.9979L104.437 103.316C104.396 103.477 104.324 103.631 104.267 103.776C100.38 104.712 89.6408 103.413 86.0934 101.532C87.459 96.6408 86.8368 91.5799 87.0388 86.4706ZM72.2347 97.8999C75.168 92.6534 79.7095 89.5539 85.3418 87.8347C85.5762 87.7621 85.8105 87.6975 86.0449 87.6329C86.2307 88.3593 85.8913 97.4318 85.5843 98.9977C84.8489 102.694 84.0812 106.375 83.3216 110.064C83.2408 110.048 83.16 110.04 83.0711 110.023C82.4004 108.627 81.7459 107.215 81.0509 105.826C80.6307 104.987 80.1701 104.155 79.6772 103.356C79.0307 102.323 78.8933 102.299 77.7943 102.735C74.7802 103.921 71.7741 105.116 68.7599 106.31C68.6872 106.335 68.5983 106.327 68.469 106.343C68.4609 106.23 68.4205 106.117 68.4529 106.028C69.5276 103.235 70.7721 100.523 72.2347 97.8999ZM71.1115 97.6013C70.9418 98.0291 70.861 98.2793 70.7559 98.5214C69.5761 101.177 68.3801 103.833 67.2246 106.504C67.0549 106.875 67.0549 107.319 66.9256 107.981C68.5013 107.667 69.6084 106.859 70.8448 106.399C72.1539 105.923 73.4387 105.382 74.7398 104.882C76.0004 104.406 77.261 103.937 78.6186 103.429C78.8772 103.833 79.1519 104.18 79.3458 104.575C80.2751 106.448 81.1802 108.336 82.0853 110.217C82.1741 110.403 82.1984 110.637 82.3277 110.782C83.1196 111.718 82.8125 112.735 82.6509 113.777C82.0448 117.796 81.5034 121.816 80.9054 125.828C80.2105 130.453 79.4751 135.061 78.7721 139.686C78.5539 141.099 78.36 142.52 78.1418 144.045C77.8186 143.916 77.56 143.851 77.3337 143.714C71.4509 140.187 66.5619 135.546 62.2953 130.218C61.269 128.943 60.7518 127.547 60.768 125.819C60.7922 122.462 60.7195 119.08 60.3397 115.746C60.0003 112.784 59.273 109.862 58.5538 106.964C58.2063 105.552 57.471 104.236 56.8649 102.767C61.0912 99.7806 65.9478 98.5537 71.1115 97.6013ZM56.3316 103.106C58.5619 109.216 59.6771 115.367 59.6124 121.768C59.4589 121.412 59.2811 121.065 59.1356 120.702C58.2468 118.563 56.8488 116.836 54.9336 115.52C54.1578 114.987 53.374 114.455 52.6386 113.865C51.1114 112.663 50.1336 111.081 49.471 109.257C51.5154 106.98 53.5679 104.761 56.3316 103.106ZM45.681 106.052C45.2123 106.294 44.6386 106.464 44.2507 106.835C43.8548 107.206 43.6447 107.78 43.3537 108.264C43.9841 102.323 44.8568 96.4228 44.9457 90.353C45.7053 90.3046 46.4164 90.2723 47.1598 90.2239C46.6669 95.5592 46.174 100.79 45.681 106.052ZM36.2749 74.7911C36.6143 75.0736 36.986 75.3157 37.3012 75.6224C40.4366 78.625 43.58 81.6115 46.6669 84.6626C47.3861 85.3729 47.9922 86.2446 48.4447 87.1405C49.0346 88.3028 48.4366 89.223 47.1517 89.3925C46.675 89.4571 46.1901 89.5136 45.5437 89.6024C46.6588 88.2383 46.3113 87.0114 45.6083 85.8249C45.2931 85.3002 44.9214 84.7917 44.5093 84.3478C41.6164 81.2725 38.5295 78.399 35.2163 75.7758C35.1598 75.7354 35.1436 75.6466 35.079 75.5094C35.4426 75.2834 35.8224 75.0655 36.2749 74.7911ZM10.8122 86.858C11.095 85.2195 12.2506 84.0249 13.9637 83.6859C15.3859 83.4034 16.8243 83.4195 18.2223 83.7989C19.4102 84.1218 20.59 84.4689 21.7213 84.9289C22.7637 85.3487 23.588 86.1074 24.1294 87.1163C24.6789 88.1334 24.4607 88.8033 23.3456 89.0535C22.2304 89.2956 21.0749 89.3441 19.9435 89.449C19.5799 89.4894 19.2082 89.4571 18.8365 89.4571C18.8365 89.4732 18.8365 89.4894 18.8284 89.5136C17.2849 89.3764 15.7253 89.3199 14.19 89.0777C13.2364 88.9324 12.3233 88.5289 11.4102 88.1737C10.8364 87.9558 10.7152 87.4553 10.8122 86.858ZM9.89096 94.8973C9.72934 92.9843 10.198 91.1763 10.9819 89.3521C13.7859 90.5467 16.6142 90.5548 19.4344 90.5871C19.887 90.5952 20.3395 90.6032 20.792 90.5629C21.285 90.5225 21.6648 90.6839 21.9637 91.0795C22.3597 91.596 22.8042 92.0803 23.1516 92.6292C23.6607 93.4364 23.5961 94.1144 22.8365 94.6874C22.1577 95.1879 21.39 95.6883 20.59 95.8901C17.689 96.6327 14.7314 97.0363 11.7172 96.7457C10.4081 96.6246 9.99601 96.221 9.89096 94.8973ZM10.6102 100.055C10.594 99.3689 10.6748 98.6829 10.7071 97.8757C13.9799 98.1663 16.994 97.8999 19.9759 97.2703C20.8324 97.0928 22.4728 98.247 22.5617 99.1107C22.586 99.4012 22.4324 99.7564 22.2547 100.007C21.7132 100.749 21.0344 101.338 20.1617 101.669C17.689 102.606 15.1435 102.856 12.5415 102.372C11.2162 102.121 10.6586 101.427 10.6102 100.055ZM13.1152 106.238C11.8708 105.737 11.491 104.914 11.7496 103.437C13.8425 103.881 15.9435 103.865 18.0445 103.461C18.5051 103.372 18.7395 103.615 18.9415 103.937C19.2486 104.43 19.5476 104.987 19.1516 105.528C18.8769 105.891 18.4647 106.262 18.0365 106.399C16.388 106.916 14.7233 106.892 13.1152 106.238ZM17.6405 109.265C17.4223 108.78 17.2122 108.296 16.9617 107.739C17.592 107.602 18.0526 107.505 18.6425 107.384C18.4971 108.143 18.7476 108.942 17.6405 109.265ZM18.3597 111.363C18.0122 111.024 18.0526 110.241 18.5779 109.991C19.4506 109.579 19.4829 108.91 19.386 108.151C19.289 107.432 19.394 106.843 19.8789 106.23C20.6223 105.302 20.5173 104.728 19.6203 103.203C19.9031 103.074 20.1779 102.928 20.4526 102.815C21.4223 102.412 22.2466 101.823 22.9254 101.024C24.0163 99.7483 23.9597 98.6102 22.7476 97.4721C22.5132 97.2461 22.2385 97.0524 21.9072 96.7861C22.1496 96.6085 22.3597 96.447 22.5698 96.3018C22.8769 96.0919 23.2082 95.9143 23.4829 95.6722C25.0264 94.3727 24.9941 92.6534 23.4183 91.3942C23.1678 91.1844 22.9092 90.9826 22.6668 90.7647C22.6183 90.7162 22.6264 90.6113 22.594 90.4902C23.1193 90.3127 23.6607 90.1835 24.1698 89.9494C25.3577 89.4167 25.8668 88.2625 25.2931 87.1083C24.9456 86.398 24.3395 85.8007 23.7819 85.2195C23.4506 84.8724 22.9819 84.6545 22.5698 84.3962C22.1496 84.146 21.7132 83.92 21.1557 83.6052C21.4708 83.3066 21.7213 83.0079 22.0365 82.798C25.9234 80.1829 29.988 77.8905 34.3032 75.8565C36.6143 78.06 38.9174 80.2636 41.3174 82.5478C39.1759 84.8321 37.1396 86.9952 35.4588 89.4571C37.7133 87.5118 39.7174 85.3325 41.6487 83.024C42.0204 83.4438 42.3598 83.8312 42.7315 84.2509C41.1477 86.18 39.5073 88.1898 37.8588 90.1997C37.9396 90.2723 38.0285 90.3449 38.1174 90.4176C40.0648 88.7387 41.681 86.737 43.281 84.6626C44.2426 85.3567 44.881 86.2285 45.277 87.2939C45.4871 87.867 45.5033 88.4804 44.9942 88.884C44.3315 89.4086 44.2507 90.127 44.1861 90.8535C43.9113 93.961 43.677 97.0686 43.3861 100.168C43.1275 102.945 42.7638 105.713 42.5618 108.49C42.4568 109.814 42.6103 111.161 42.6507 112.598C42.6022 112.606 42.4164 112.679 42.2386 112.671C38.586 112.598 34.9335 112.509 31.281 112.437C30.6426 112.421 30.1012 112.251 29.584 111.848C28.5254 111.016 27.3779 110.814 26.1496 111.525C25.9072 111.662 25.6163 111.775 25.3496 111.783C24.291 111.807 23.2324 111.791 21.9395 111.791C22.2708 111.339 22.4324 111.081 22.6264 110.847C23.5961 109.628 24.5819 108.417 25.5355 107.19C25.7294 106.932 25.8345 106.609 25.9799 106.31C25.8991 106.262 25.8264 106.214 25.7456 106.165C25.5759 106.319 25.39 106.464 25.2446 106.633C23.9112 108.151 22.594 109.668 21.2688 111.178C20.7274 111.807 18.9334 111.912 18.3597 111.363ZM44.8972 118.749C44.1942 118.7 43.5962 118.644 42.9901 118.628C40.3234 118.547 37.6567 118.418 34.9901 118.434C33.9153 118.442 33.3093 118.071 32.9052 117.118C32.4284 115.996 31.8628 114.915 31.2729 113.68C35.2325 113.736 39.0709 114.245 42.8123 113.413C43.5234 115.238 44.1942 116.933 44.8972 118.749ZM19.2324 112.776H24.889C24.5739 113.47 24.3476 113.987 24.0648 114.624C23.4345 114.108 22.7476 113.631 21.9799 113.97C21.3011 114.269 20.7193 114.778 20.0163 115.246C19.7819 114.503 19.5233 113.688 19.2324 112.776ZM41.7537 155.918C41.7133 156.088 41.6649 156.257 41.6164 156.419C41.5598 156.621 41.4951 156.814 41.4224 157C41.3739 157.129 41.3255 157.25 41.277 157.371C41.0911 157.839 40.8648 158.283 40.6063 158.703C40.5255 158.84 40.4285 158.985 40.3315 159.115C40.2345 159.268 40.1295 159.413 40.0083 159.55C39.9517 159.623 39.8951 159.688 39.8305 159.76C39.7416 159.873 39.6446 159.986 39.5396 160.091C39.3941 160.237 39.2487 160.382 39.0871 160.527C38.8042 160.794 38.4891 161.036 38.1497 161.27C38.0285 161.35 37.9153 161.423 37.7941 161.496C37.6163 161.601 37.4305 161.689 37.2446 161.77C37.1477 161.811 37.0426 161.851 36.9456 161.883C36.8487 161.915 36.7436 161.948 36.6466 161.972C36.5901 161.988 36.5254 162.004 36.4608 162.012C36.3961 162.028 36.3315 162.037 36.2668 162.045C36.1941 162.061 36.1214 162.069 36.0567 162.069C35.9598 162.077 35.8628 162.085 35.7658 162.085C34.6749 162.085 33.6567 161.56 32.8325 160.511C31.7497 159.123 30.6668 157.734 29.5032 156.411C29.3254 156.201 29.1476 155.991 28.9779 155.781C28.8729 155.652 28.7678 155.523 28.6708 155.386C28.283 154.877 27.9274 154.352 27.6042 153.82C27.491 153.634 27.3779 153.448 27.2729 153.263C27.1921 153.134 27.1274 153.004 27.0628 152.875C26.8284 152.456 26.6183 152.028 26.4325 151.592C26.3193 151.366 26.2224 151.14 26.1415 150.914C26.0688 150.761 26.0042 150.607 25.9476 150.446C25.8264 150.131 25.7133 149.816 25.6082 149.493C25.4466 149.017 25.3011 148.533 25.1638 148.049C25.0425 147.645 24.9294 147.241 24.8244 146.838C24.7759 146.676 24.7355 146.507 24.6951 146.337C24.6627 146.208 24.6304 146.079 24.5981 145.95C24.5335 145.684 24.4688 145.409 24.4042 145.135C24.2991 144.667 24.1941 144.19 24.0971 143.714C23.8951 142.721 23.7254 141.712 23.5718 140.711C23.4991 140.219 23.4264 139.719 23.3617 139.218C23.2971 138.718 23.2324 138.225 23.1759 137.725C23.0143 136.296 22.885 134.868 22.7476 133.439C22.7072 132.995 22.6991 132.543 22.6829 132.067C22.893 132.067 22.9415 132.051 22.9739 132.075C25.1153 133.358 27.386 133.156 29.6567 132.575C31.8385 132.018 33.9961 131.357 36.1699 130.783C36.9052 130.582 37.6648 130.509 38.481 130.364C39.6366 133.689 40.9861 136.756 41.7295 140.05C42.877 145.167 42.9578 150.276 41.875 155.41C41.8426 155.579 41.8022 155.749 41.7537 155.918ZM52.4124 145.554C50.3356 149.122 47.8386 152.367 44.9376 155.297C44.1133 156.128 43.2487 156.935 42.2548 157.904C45.2204 148.363 44.4366 139.372 39.3861 130.735C41.4952 131.131 43.3537 131.445 45.1962 131.841C45.6083 131.922 46.0043 132.22 46.3356 132.503C49.4952 135.199 51.3699 138.702 52.7194 142.56C53.1073 143.658 53.0023 144.545 52.4124 145.554ZM54.8205 148.113C54.7154 141.938 52.3397 136.966 48.0487 132.648C48.4285 132.753 48.6709 132.801 48.8972 132.89C49.0912 132.963 49.277 133.06 49.4386 133.181C52.8083 135.626 55.8225 138.427 58.1013 141.987C57.2286 144.069 56.3154 146.111 54.8205 148.113ZM118.473 156.273C117.738 157.169 117.003 158.057 116.251 158.937C115.887 159.373 115.516 159.801 115.136 160.22C114.893 160.503 114.643 160.777 114.392 161.052C114.15 161.326 113.9 161.601 113.649 161.867C113.293 162.254 112.93 162.642 112.558 163.013C112.34 163.247 112.106 163.481 111.871 163.707C111.613 163.974 111.338 164.24 111.063 164.498C110.675 164.886 110.279 165.257 109.875 165.604C109.641 165.83 109.39 166.048 109.148 166.258C109.124 166.282 109.1 166.306 109.075 166.323H109.067C108.663 166.686 108.251 167.025 107.839 167.364C104.542 170.035 101.027 172.376 96.9298 173.676C94.2065 174.539 91.3863 175.104 88.558 174.483C88.2429 174.41 87.9196 174.338 87.6125 174.249C87.5802 174.249 87.5479 174.233 87.5156 174.225C87.2085 174.144 86.9014 174.055 86.6024 173.958C86.3843 173.894 86.1661 173.821 85.956 173.74C85.754 173.668 85.5519 173.595 85.358 173.514C85.1398 173.434 84.9297 173.345 84.7277 173.256C84.4691 173.143 84.2186 173.03 83.9681 172.901C83.8388 172.844 83.7095 172.78 83.5802 172.707C83.055 172.441 82.5459 172.142 82.0529 171.819C81.7943 171.65 81.5438 171.48 81.2933 171.295C81.2772 171.287 81.2691 171.278 81.261 171.27C80.5499 170.754 79.8711 170.173 79.2327 169.527C76.5903 166.863 74.3196 163.893 72.267 160.769C67.7013 153.804 62.9821 146.935 57.8831 140.348C56.2831 138.274 54.473 136.361 52.6629 134.464C50.8366 132.535 48.6144 131.357 45.8992 131.058C43.7416 130.816 41.6164 130.291 39.4911 129.831C38.2143 129.549 36.9941 129.573 35.7497 130.009C33.0668 130.945 30.3193 131.623 27.5234 132.075C26.3921 132.261 25.3011 132.244 24.291 131.679C22.9334 130.921 21.5597 130.17 20.2668 129.314C19.5072 128.814 19.5718 128.556 20.291 127.749C20.388 127.781 20.5254 127.789 20.6142 127.853C22.4163 129.339 24.5254 129.928 26.8123 129.815C28.8567 129.718 30.8931 129.492 32.9375 129.306C33.1638 129.29 33.3739 129.177 33.5759 128.951C32.2345 128.895 30.8931 128.822 29.5436 128.782C28.3961 128.749 27.2486 128.774 26.1011 128.749C23.992 128.693 22.1819 127.918 20.6951 126.425C19.5799 125.311 18.6425 124.076 18.0607 122.599C17.9395 122.292 17.8344 121.977 17.7779 121.655C17.5435 120.21 18.2142 119.532 19.4506 120.048C19.5961 120.113 19.7658 120.129 20.0082 120.194C20.2587 120.977 20.5415 121.784 20.7759 122.599C21.2365 124.213 22.287 125.279 23.7658 126.005C26.7557 127.458 29.9395 127.934 33.2204 127.805C34.1012 127.773 34.9012 127.708 35.6608 128.265C35.9921 128.507 36.4042 128.798 36.9941 128.41C36.1214 127.781 35.3699 127.28 34.2628 127.2C31.2729 126.966 28.2991 126.57 25.4708 125.489C24.8971 125.271 24.3476 124.988 23.8062 124.698C22.9496 124.229 22.3274 123.551 22.0122 122.599C21.4789 121.009 20.8243 119.427 20.9132 117.716C20.9536 117.046 21.1718 116.352 21.4466 115.73C21.6648 115.238 22.1496 114.923 22.7557 115.044C23.3132 115.165 23.8223 115.77 23.8627 116.376C23.8951 116.989 23.8627 117.611 23.8951 118.224C23.9597 119.75 24.6143 120.96 25.883 121.856C28.4042 123.632 31.2406 124.463 34.2709 124.778C34.3113 124.778 34.3517 124.786 34.3921 124.778C35.5961 124.496 36.7194 124.681 37.7941 125.279C37.9477 125.359 38.1739 125.295 38.6345 125.295C37.7052 124.681 36.9618 124.286 36.1376 124.084C34.0285 123.567 31.887 123.164 29.8264 122.51C28.6789 122.147 27.6365 121.412 26.5779 120.791C25.7537 120.298 25.3173 119.507 25.2203 118.563C25.0668 117.159 25.1638 115.77 25.6567 114.439C25.8264 113.987 26.0931 113.551 26.4001 113.171C27.0547 112.364 27.8143 112.251 28.6628 112.873C29.083 113.179 29.4709 113.583 29.7537 114.019C30.2709 114.81 30.6991 115.649 31.1436 116.481C31.4345 117.021 31.7092 117.578 31.984 118.119C32.5335 119.185 33.3981 119.629 34.5941 119.62C37.7537 119.588 40.9133 119.612 44.0729 119.62C44.8083 119.62 45.6164 119.338 46.1659 120.323C46.2305 120.218 46.2952 120.121 46.3598 120.016C46.2063 119.524 46.077 119.031 45.8911 118.555C45.4709 117.482 45.0346 116.424 44.582 115.367C43.9113 113.777 43.6689 112.122 43.8628 110.427C43.9517 109.636 44.2507 108.845 44.5901 108.11C44.8891 107.457 45.3416 107.319 46.0123 107.594C46.4164 107.763 46.8447 108.022 47.1113 108.353C47.7901 109.168 48.4689 110.007 48.9861 110.927C50.1093 112.889 51.5073 114.584 53.479 115.722C56.9942 117.756 58.6993 120.928 59.3619 124.794C59.4346 125.238 59.5397 125.674 59.5882 126.126C59.7659 128.079 60.6306 129.718 61.8427 131.219C64.1134 134.052 66.7316 136.53 69.5357 138.831C72.4286 141.204 75.4994 143.319 78.7155 145.232C82.1822 147.29 85.5115 149.542 88.5257 152.23C89.261 152.883 89.9641 153.578 90.651 154.28C92.1136 155.765 93.2287 157.46 93.8106 159.486C94.0207 160.196 94.2793 160.89 94.5459 161.576C94.6752 161.891 94.8853 162.174 95.0469 162.456C95.6853 162.287 95.6772 161.932 95.556 161.56C94.659 158.735 93.754 155.918 91.5318 153.771C91.1843 153.44 90.8772 153.061 90.6267 152.787C94.4328 148.864 98.1985 144.981 102.013 141.05C108.429 144.755 114.457 148.993 120.671 153.222C119.896 154.304 119.233 155.329 118.473 156.273ZM139.847 122.954C139.532 126.562 139.007 130.13 137.924 133.584C135.896 140.025 133.14 146.144 129.528 151.866C128.566 153.392 127.572 154.901 126.578 156.427C118.134 149.865 109.706 143.561 100.106 138.839C100.162 138.669 100.227 138.395 100.332 138.145C103.265 130.953 107.524 124.625 112.946 119.072C114.893 117.07 116.841 115.068 118.78 113.066C118.885 112.953 118.958 112.816 118.974 112.614C115.863 114.535 113.463 117.256 110.788 119.709C112.194 116.384 114.239 113.422 116.13 110.387C116.065 110.322 116.001 110.266 115.936 110.201C115.605 110.516 115.257 110.822 114.942 111.153C112.057 114.221 110.085 117.837 108.534 121.719C108.267 122.389 107.912 123.059 107.483 123.632C104.453 127.692 101.641 131.873 99.9601 136.7C99.7742 137.241 99.6126 137.79 99.4591 138.346C99.4025 138.581 99.3864 138.831 99.3459 139.17C99.9116 139.581 100.502 140.001 100.946 140.324C99.5641 141.785 98.1904 143.238 96.6712 144.828C96.7116 144.424 96.7035 144.166 96.7601 143.924C98.4651 136.078 100.178 128.225 101.891 120.379C101.916 120.258 101.948 120.137 101.988 120.016C102.417 118.684 102.11 117.134 103.249 116.012C104.267 115.004 105.205 113.914 106.247 112.929C107.766 111.492 109.302 110.056 110.918 108.732C112.809 107.166 112.574 106.956 115.322 107.747C117.843 108.474 120.397 109.095 122.934 109.741C123.152 109.797 123.395 109.749 123.815 109.749C122.724 105.608 121.423 101.71 119.443 97.7869C125.714 99.9985 130.732 103.736 135.524 107.82C135.508 107.909 135.483 107.997 135.467 108.078L134.255 107.933C132.259 107.675 130.263 107.368 128.251 107.804C127.443 107.973 126.692 108.223 126.021 108.934C126.603 109.184 127.063 109.023 127.508 108.934C130.174 108.361 132.817 108.619 135.443 109.184C137.407 109.612 138.546 110.734 139.079 112.711C139.976 116.093 140.146 119.491 139.847 122.954Z" fill="black"/>
<defs>
<linearGradient id="paint0_linear_2637_25411" x1="0" y1="88" x2="160" y2="88" gradientUnits="userSpaceOnUse">
<stop stop-color="#A25A9F"/>
<stop offset="0.65" stop-color="#693068"/>
<stop offset="1" stop-color="#501D50"/>
</linearGradient>
</defs>
</svg>
