<svg width="160" height="165" viewBox="0 0 160 165" fill="none" xmlns="http://www.w3.org/2000/svg">
<path d="M158.126 83.8031C158.126 127.314 122.869 162.582 79.3718 162.582C67.7842 162.582 56.7904 160.083 46.877 155.586C41.3347 153.078 36.1471 149.943 31.3883 146.272H31.3718C30.2007 145.365 29.0625 144.424 27.9491 143.467C21.2357 137.676 15.512 130.77 11.0667 123.04C4.41925 111.49 0.617188 98.0921 0.617188 83.8031C0.617187 40.2926 35.8832 5.01562 79.3801 5.01562C112.221 5.01562 140.37 25.1291 152.188 53.7154C156.015 62.9884 158.135 73.1441 158.135 83.8031H158.126Z" fill="#945091"/>
<path d="M0.411911 83.8044C0.395416 78.6317 0.890262 73.4672 1.85521 68.3769C2.77892 63.2867 4.25521 58.2954 6.11913 53.4527C9.89645 43.7837 15.5294 34.7747 22.7707 27.1847C26.3913 23.3979 30.3665 19.9164 34.7129 16.9382C35.8098 16.2204 36.8985 15.4697 38.0119 14.7684C39.1501 14.1002 40.2635 13.3989 41.4181 12.7637C42.5892 12.1614 43.7439 11.5262 44.9397 10.9569C46.1439 10.4124 47.3233 9.82669 48.5439 9.33169C58.2511 5.20669 68.849 3.19369 79.3727 3.30094C89.9047 3.46594 100.371 5.75119 109.954 9.94219C114.746 12.0377 119.323 14.6034 123.595 17.5817C127.884 20.5434 131.884 23.9094 135.529 27.6137C142.837 35.0139 148.725 43.7919 152.783 53.3702C154.804 58.1634 156.379 63.1464 157.484 68.2449C158.573 73.3434 159.167 78.5574 159.249 83.7879C159.414 94.2407 157.6 104.801 153.641 114.569C149.731 124.345 143.859 133.362 136.42 140.87C128.997 148.394 120.09 154.449 110.325 158.566C100.569 162.707 89.9459 164.762 79.3645 164.77C68.783 164.696 58.1769 162.608 48.4614 158.417C38.7294 154.284 29.9294 148.072 22.7129 140.457C15.48 132.851 9.85521 123.833 6.06964 114.156C4.20573 109.313 2.73768 104.314 1.81397 99.2237C0.865519 94.1334 0.370674 88.9607 0.395416 83.7962L0.411911 83.8044ZM0.824282 83.8044C0.865519 88.9442 1.37686 94.0839 2.42428 99.1164C3.50469 104.132 5.03871 109.058 7.11707 113.744C11.2243 123.132 17.2944 131.572 24.6346 138.551C28.3129 142.041 32.3377 145.135 36.5769 147.866C37.6573 148.517 38.7129 149.202 39.8098 149.821C40.9233 150.415 42.0037 151.05 43.1336 151.619C44.2635 152.172 45.3769 152.758 46.5233 153.278C47.6779 153.773 48.816 154.309 49.9872 154.763C54.6552 156.619 59.4882 158.054 64.4119 159.003C69.3356 159.952 74.3501 160.406 79.3645 160.389C84.3789 160.364 89.3851 159.894 94.3006 158.921C99.216 157.947 104.033 156.487 108.676 154.614C117.971 150.844 126.515 145.209 133.674 138.139C140.816 131.06 146.639 122.612 150.614 113.331C152.593 108.686 154.136 103.852 155.224 98.9019C156.296 93.9519 156.89 88.8864 156.989 83.8044C157.129 73.6487 155.356 63.3939 151.488 53.9229C147.661 44.4437 141.855 35.7647 134.581 28.5707C130.936 24.9819 126.927 21.7809 122.647 19.0007C118.35 16.2452 113.797 13.9187 109.063 12.0707C99.6037 8.34994 89.4511 6.57619 79.3645 6.74119C74.3171 6.79069 69.2944 7.36819 64.3542 8.33344C59.4222 9.32344 54.5892 10.8084 49.9212 12.6812C48.7501 13.1432 47.6119 13.6877 46.4573 14.1909C45.3109 14.7107 44.2057 15.3129 43.0676 15.8657C41.9459 16.4349 40.8573 17.0784 39.7521 17.6807C38.6635 18.3077 37.5995 19.0007 36.5191 19.6524C32.2882 22.4079 28.2635 25.5099 24.5851 29.0079C17.2531 36.0122 11.183 44.4602 7.07583 53.8487C4.98923 58.5347 3.46346 63.4599 2.39129 68.4842C1.34387 73.5167 0.840777 78.6564 0.807787 83.8044H0.824282Z" fill="black"/>
<path d="M96.2089 4.33109C96.2089 4.33109 97.3523 4.64086 106.29 7.14467C114.251 9.37236 122.135 11.8916 129.797 15.0273C132.685 16.2085 135.375 17.753 137.799 19.7576C140.537 22.0312 141.386 24.9007 140.517 28.2658C138.924 34.4419 136.38 40.2034 132.872 45.5256C132.287 46.411 131.575 47.2317 130.826 47.9911C128.846 50.0065 126.366 50.9153 123.604 50.6808C120.355 50.402 117.112 50.021 113.908 49.4113C106.9 48.0662 99.9153 46.5921 92.938 45.089C90.3424 44.5346 85.2401 43.0858 85.2401 43.0858L91.2378 29.7675L85.2337 16.4588L96.2089 4.33109ZM120.468 32.7708C122.541 33.261 124.474 33.1333 126.337 32.1983C127.689 31.5137 128.245 30.3405 127.925 29.0628C127.581 27.7166 126.263 26.6035 124.913 26.6864C123.657 26.7629 122.37 26.883 121.168 27.2331C120.215 27.5029 119.286 28.0387 118.512 28.6564C117.542 29.4305 117.546 30.6049 118.468 31.4481C119.044 31.983 119.803 32.3372 120.48 32.7636L120.468 32.7708ZM103.033 28.8229C105.215 29.3313 107.311 28.779 109.144 27.2858C110.289 26.3601 110.508 25.0054 109.859 23.7144C109.32 22.639 108.331 22.2141 106.889 22.4495C106.042 22.5914 105.174 22.6965 104.348 22.9166C103.622 23.111 102.889 23.3759 102.239 23.7563C101.225 24.3422 100.499 25.2115 100.663 26.49C100.827 27.7684 101.788 28.3416 103.033 28.8229Z" fill="white"/>
<path d="M120.871 31.2343C120.306 30.931 119.3 30.9274 119.257 29.9816C119.217 29.1821 120.087 28.9113 120.663 28.5326C121.873 27.7173 123.236 27.6272 124.611 27.8833C125.127 27.9766 125.657 28.2918 126.038 28.6613C126.824 29.4275 126.662 30.4028 125.678 30.9135C124.176 31.694 122.587 31.8181 120.878 31.2466L120.871 31.2343Z" fill="#0ABBEF"/>
<path d="M103.125 27.3949C102.86 27.0973 102.19 26.6831 102.105 26.173C102.032 25.7385 102.522 25.0567 102.954 24.713C104.195 23.7397 105.649 23.2998 107.24 23.4875C108.016 23.5763 108.55 23.9549 108.741 24.7731C108.918 25.5669 108.494 26.0374 107.917 26.4161C106.558 27.3273 105.087 27.7524 103.128 27.3852L103.125 27.3949Z" fill="#0ABBEF"/>
<path d="M94.2997 1.90782C94.2997 1.90782 96.6669 2.89394 102.147 4.32734C111.241 6.70616 120.167 9.61187 128.977 12.8818C132.374 14.144 135.585 15.8355 138.428 18.1468C142.272 21.2704 143.396 24.8349 142.02 29.5832C140.326 35.3904 138.046 40.9403 134.705 46.0158C134.257 46.698 133.773 47.3604 133.267 47.9859C130.677 51.1813 127.313 52.8139 123.21 52.4674C119.869 52.1852 116.517 51.7445 113.218 51.0998C105.666 49.6123 98.1188 48.064 90.6105 46.3284C85.3911 45.1293 82.3794 44.2854 82.3794 44.2854L88.6473 29.6645L82.7308 16.3595L94.2997 1.90782ZM85.2277 43.0931C85.2277 43.0931 90.3397 44.5445 92.9256 45.0963C99.9029 46.5995 106.888 48.0735 113.896 49.4186C117.09 50.0257 120.343 50.4093 123.592 50.6881C126.364 50.9252 128.834 50.0138 130.814 47.9984C131.562 47.239 132.275 46.4183 132.859 45.5329C136.368 40.2107 138.924 34.4421 140.505 28.2731C141.374 24.908 140.522 22.0482 137.787 19.7649C135.365 17.7506 132.673 16.2158 129.784 15.0346C122.123 11.8989 114.236 9.38937 106.277 7.15196C97.3399 4.64814 96.2089 4.33145 96.2089 4.33145L85.2325 16.4593L91.2683 29.769L85.2277 43.0931Z" fill="black"/>
<path d="M120.467 32.7699C119.792 32.3338 119.031 31.9894 118.454 31.4544C117.535 30.6015 117.528 29.4368 118.499 28.6628C119.273 28.045 120.211 27.5118 121.154 27.2394C122.357 26.8894 123.642 26.779 124.899 26.6927C126.25 26.6098 127.568 27.7229 127.912 29.0691C128.234 30.3371 127.676 31.52 126.324 32.2047C124.47 33.1421 122.527 33.2673 120.455 32.7771L120.467 32.7699ZM120.868 31.2345C122.577 31.806 124.167 31.6819 125.668 30.9014C126.653 30.3907 126.814 29.4154 126.028 28.6492C125.647 28.2796 125.115 27.9741 124.602 27.8711C123.226 27.6151 121.873 27.7076 120.654 28.5204C120.075 28.9088 119.217 29.1724 119.247 29.9695C119.291 30.9153 120.297 30.9189 120.861 31.2222L120.868 31.2345Z" fill="black"/>
<path d="M103.033 28.8243C101.791 28.3333 100.818 27.7673 100.663 26.4913C100.506 25.2251 101.222 24.3533 102.239 23.7576C102.889 23.3773 103.62 23.122 104.348 22.9179C105.176 22.6881 106.032 22.5902 106.889 22.4508C108.331 22.2154 109.32 22.6403 109.859 23.7158C110.508 25.0068 110.289 26.3615 109.144 27.2872C107.311 28.7804 105.215 29.3327 103.033 28.8243ZM103.126 27.3951C105.076 27.7597 106.547 27.3346 107.915 26.426C108.492 26.0473 108.916 25.5767 108.739 24.783C108.558 23.9673 108.024 23.5887 107.238 23.4974C105.647 23.3096 104.193 23.7495 102.952 24.7229C102.522 25.0569 102.033 25.7387 102.104 26.1829C102.188 26.693 102.859 27.1071 103.123 27.4048L103.126 27.3951Z" fill="black"/>
<path d="M20.3285 62.8727C23.8254 61.0178 26.9066 58.6555 29.5682 55.7666C30.3742 54.8973 31.0965 53.9147 31.6894 52.8883C32.2439 51.9201 31.8982 51.5088 30.7832 51.6075C30.2411 51.6588 29.6956 51.7911 29.1595 51.8712C26.5909 52.279 24.0342 52.7446 21.4594 53.0733C17.6598 53.5534 14.4861 51.9452 12.7349 48.5571C11.8982 46.9304 11.2249 45.1696 10.7697 43.3942C9.52018 38.5362 8.92249 33.5743 8.79542 28.5558C8.68992 24.3267 10.5277 21.145 14.067 18.9095C16.6984 17.2428 19.5559 15.9917 22.4941 15.0356C27.145 13.5161 31.8113 11.9734 36.5647 10.8549C45.4221 8.7817 65.3346 4.44376 65.3346 4.44376L62.2509 19.2232L73.137 30.7386L71.2697 43.3789C71.2697 43.3789 62.8786 45.3269 60.3417 45.889C55.9503 46.8627 51.5689 47.8845 47.1931 48.8852C46.9521 48.9347 46.6787 49.0713 46.4661 49.0146C45.7818 48.8137 45.4869 49.2361 45.1168 49.6841C40.1638 55.7476 33.8511 59.7895 26.4193 62.1021C24.4732 62.7034 22.4286 62.923 20.3361 62.861L20.3285 62.8727ZM36.7574 25.286C36.5705 25.3546 36.0092 25.4098 35.6479 25.7052C34.1586 26.9159 32.9079 28.359 32.2323 30.1561C31.6594 31.6708 32.7037 33.1342 34.3368 33.2102C34.9662 33.2415 35.639 33.0931 36.2361 32.8698C37.7212 32.3231 38.9573 31.3956 39.9253 30.1413C40.7245 29.0926 41.4364 27.9613 40.7593 26.5731C40.2208 25.468 38.7649 24.9836 36.767 25.284L36.7574 25.286ZM52.668 29.5701C55.2026 28.9482 57.1323 27.4358 58.1784 24.8993C58.6967 23.6571 58.309 22.6013 57.1985 21.7444C56.1482 20.9355 55.1231 20.8851 54.0169 21.5648C53.5533 21.8511 53.0781 22.1298 52.6125 22.4064C51.0195 23.3571 49.7893 24.6553 49.2121 26.4422C48.6558 28.1846 49.6726 29.5632 51.4929 29.6209C51.8365 29.6306 52.1914 29.5978 52.668 29.5701Z" fill="white"/>
<path d="M37.0789 26.5057C38.0595 26.5351 38.9755 26.3969 39.4544 27.1626C39.976 27.9899 39.3371 28.6941 38.8501 29.3068C37.9318 30.4604 36.7805 31.3605 35.3348 31.7081C34.8183 31.8345 34.0653 31.7884 33.6835 31.4951C33.0963 31.033 33.3489 30.2575 33.7417 29.7245C34.4161 28.802 35.1371 27.91 35.922 27.0853C36.2368 26.7593 36.7863 26.6463 37.0905 26.5133L37.0789 26.5057Z" fill="#0ABBEF"/>
<path d="M52.4555 28.1876C52.0484 28.2111 51.7476 28.2629 51.4599 28.2316C50.6006 28.1572 50.2526 27.6861 50.3734 26.8071C50.6391 24.8732 53.2512 22.4768 55.15 22.4279C56.3387 22.3944 57.2251 23.5788 56.7213 24.6471C55.8396 26.5167 54.348 27.6677 52.4555 28.1876Z" fill="#0ABBEF"/>
<path d="M15.0765 63.1696C17.7014 62.1071 20.3128 61.0273 22.6082 59.3392C24.8518 57.6919 27.0177 55.96 28.989 53.5749C28.1791 53.6912 27.6642 53.777 27.1454 53.8436C24.8175 54.1516 22.4944 54.6295 20.1615 54.7174C16.7113 54.8443 14.016 53.2181 12.0019 50.4569C10.744 48.7359 9.9962 46.7593 9.45084 44.7411C8.01329 39.3591 7.24682 33.8692 7.21518 28.2884C7.18252 23.2404 9.55602 19.5364 13.8784 17.2002C16.8074 15.6129 19.9096 14.2814 23.0378 13.1254C29.2266 10.8273 35.6353 9.20754 42.0799 7.81152C47.5047 6.63532 68.5913 1.94796 68.5913 1.94796L65.1241 18.8579L75.9426 30.3817L73.6471 44.7245C73.6471 44.7245 56.183 48.5236 51.0333 49.5226C49.8553 49.7549 48.6592 49.8502 47.4631 49.9455C46.919 49.9871 46.5842 50.1665 46.2217 50.6028C41.2424 56.7823 34.8453 60.9521 27.3541 63.3171C23.8724 64.4152 20.2016 64.7884 16.5286 64.0266C16.0571 63.9326 15.6047 63.7845 15.137 63.6596L15.0785 63.1793L15.0765 63.1696ZM20.3303 62.8727C22.4228 62.9347 24.4674 62.7151 26.4135 62.1138C33.8453 59.8012 40.158 55.7592 45.111 49.6958C45.4715 49.2498 45.7761 48.8254 46.4604 49.0263C46.6749 49.0927 46.9483 48.956 47.1873 48.8968C51.5727 47.8942 55.9445 46.8743 60.3359 45.9007C62.8728 45.3386 71.2706 43.3787 71.2706 43.3787L73.1379 30.7382L62.252 19.2231L65.3356 4.44374C65.3356 4.44374 45.4163 8.79336 36.559 10.8666C31.8035 11.9754 27.1392 13.5278 22.4883 15.0473C19.5501 16.0034 16.6946 17.2641 14.0612 18.9212C10.5219 21.1566 8.69376 24.3364 8.78962 28.5674C8.91669 33.5859 9.51438 38.5479 10.7639 43.4058C11.2191 45.1813 11.8924 46.9421 12.7291 48.5688C14.4803 51.9569 17.6521 53.5554 21.4536 53.085C24.0304 52.7659 26.5851 52.2907 29.1537 51.8829C29.6995 51.8008 30.2333 51.6608 30.7774 51.6192C31.8924 51.5205 32.2401 51.9414 31.6836 52.9C31.0908 53.9263 30.3684 54.909 29.5624 55.7783C26.8989 58.6575 23.8196 61.0295 20.3227 62.8844L20.3303 62.8727Z" fill="black"/>
<path d="M36.8608 25.174C38.8587 24.8735 40.305 25.3599 40.8532 26.463C41.5303 27.8512 40.828 28.9805 40.0191 30.0312C39.0608 31.2835 37.817 32.2227 36.3299 32.7597C35.7328 32.983 35.058 33.1218 34.4307 33.1002C32.7975 33.0241 31.7456 31.5723 32.3262 30.046C33.0017 28.2489 34.2621 26.8039 35.7417 25.5951C36.103 25.2997 36.6547 25.2465 36.8512 25.1759L36.8608 25.174ZM37.1819 26.3942C36.8797 26.5368 36.3379 26.6382 36.0135 26.9662C35.2285 27.7909 34.4979 28.6848 33.8331 29.6054C33.4403 30.1384 33.1877 30.9139 33.7749 31.376C34.1587 31.6789 34.9097 31.7153 35.4262 31.589C36.8815 31.2394 38.0232 30.3413 38.9415 29.1877C39.4285 28.575 40.0674 27.8708 39.5458 27.0435C39.0669 26.2778 38.1509 26.416 37.1703 26.3865L37.1819 26.3942Z" fill="black"/>
<path d="M52.6691 29.5716C52.1906 29.5897 51.8472 29.6301 51.494 29.6224C49.6737 29.5647 48.6473 28.1881 49.2132 26.4437C49.7904 24.6569 51.013 23.3703 52.6136 22.408C53.0792 22.1313 53.5544 21.8527 54.018 21.5664C55.1318 20.875 56.1589 20.935 57.1996 21.746C58.3121 22.6125 58.6979 23.6586 58.1795 24.9008C57.1334 27.4373 55.1941 28.9517 52.6691 29.5716ZM52.4552 28.1886C54.3477 27.6687 55.8373 26.5081 56.721 24.6481C57.2248 23.5798 56.3481 22.3934 55.1497 22.4289C53.2509 22.4778 50.6388 24.8742 50.3731 26.8081C50.2523 27.6871 50.6003 28.1582 51.4596 28.2327C51.757 28.2619 52.0578 28.2101 52.4552 28.1886Z" fill="black"/>
</svg>
