<svg width="160" height="169" viewBox="0 0 160 169" fill="none" xmlns="http://www.w3.org/2000/svg">
<path d="M86.3071 161.92C126.89 161.92 159.788 128.974 159.788 88.3328C159.788 47.6917 126.89 14.7457 86.3071 14.7457C45.7245 14.7457 12.8258 47.6917 12.8258 88.3328C12.8258 128.974 45.7245 161.92 86.3071 161.92Z" fill="url(#paint0_linear_2637_17492)"/>
<path d="M88.466 72.5751C88.466 72.5751 98.2341 75.4803 100.906 75.5631C103.577 75.6458 113.382 74.9287 113.382 74.9287L82.5078 162.481C82.5078 162.481 70.1599 160.78 64.6516 158.978C59.1432 157.167 56.2789 155.521 56.2789 155.521L55.7005 154.933" fill="#76B82A"/>
<path d="M151.104 118.984C151.104 118.984 150.287 130.982 149.745 134.697C149.195 138.411 147.478 146.924 147.478 146.924C147.478 146.924 147.478 142.364 138.123 136.315C138.068 136.269 138.013 136.241 137.958 136.204C128.437 130.091 122.892 127.084 122.892 127.084H121.185L110.627 142.3L104.081 160.917C104.081 160.917 89.6769 162.26 86.8585 162.444C84.0401 162.646 81.2767 161.919 81.2767 161.919L100.932 107.373L109.847 85.5834C109.847 85.5834 111.251 78.0353 111.417 74.1555C111.582 70.2758 111.224 62.3875 111.224 62.3875L110.599 58.2227C110.599 58.2227 115.786 57.7722 118.89 61.6796C121.983 65.5869 125.83 71.5721 125.83 71.5721L126.721 72.942L127.189 73.6683L127.473 73.5488C127.473 73.5488 133.881 75.5806 138.554 80.3522C143.227 85.1145 149.617 92.1478 150.351 97.6181C151.077 103.088 151.095 118.984 151.095 118.984H151.104Z" fill="white"/>
<path d="M159.999 88.1855C160.018 93.0214 159.55 97.8482 158.659 102.601C157.796 107.364 156.428 112.025 154.693 116.558C151.177 125.595 145.935 134.035 139.178 141.142C135.799 144.691 132.091 147.945 128.033 150.74C127.005 151.411 125.995 152.119 124.948 152.772C123.892 153.397 122.846 154.059 121.772 154.647C120.679 155.208 119.596 155.806 118.485 156.339C117.365 156.845 116.254 157.396 115.116 157.865C106.045 161.736 96.1394 163.621 86.2978 163.501C76.4563 163.336 66.679 161.184 57.7371 157.249C53.2662 155.282 48.988 152.882 45.0036 150.087C41.0009 147.32 37.2736 144.166 33.8676 140.7C27.0464 133.787 21.5565 125.577 17.7557 116.622C15.8645 112.145 14.3956 107.483 13.3582 102.721C12.33 97.9585 11.7792 93.0766 11.6965 88.1947C11.5313 78.4217 13.2113 68.5384 16.9019 59.4089C20.5466 50.2611 26.0274 41.8212 32.9771 34.7971C39.9084 27.7547 48.2352 22.0821 57.3607 18.2207C66.477 14.341 76.4104 12.4195 86.307 12.4103C96.2037 12.4838 106.11 14.4421 115.189 18.3678C124.287 22.2384 132.504 28.0673 139.224 35.2017C145.972 42.3269 151.204 50.776 154.721 59.8135C156.456 64.346 157.824 69.0164 158.677 73.7788C159.559 78.532 160.018 83.3679 159.99 88.1947L159.999 88.1855ZM159.586 88.1855C159.55 83.3863 159.072 78.578 158.081 73.8891C157.071 69.2003 155.639 64.6034 153.683 60.2364C149.837 51.4747 144.163 43.6048 137.305 37.1048C123.553 24.1232 105.017 16.6302 86.2978 16.7865C81.6249 16.8141 76.9612 17.2462 72.3801 18.1564C67.799 19.0574 63.3189 20.4181 58.9857 22.1649C50.3284 25.6769 42.3688 30.9266 35.6945 37.5093C29.0386 44.1105 23.6129 51.9803 19.8948 60.6409C18.0495 64.9712 16.6081 69.4853 15.5891 74.0914C14.5792 78.7067 14.0284 83.4323 13.9274 88.1763C13.7897 97.6551 15.4238 107.235 19.0318 116.07C22.5939 124.924 28.0104 133.033 34.7948 139.735C38.1917 143.082 41.9373 146.07 45.9309 148.662C49.9428 151.227 54.1842 153.388 58.6001 155.116C67.4226 158.573 76.8878 160.219 86.2887 160.053C90.9891 159.998 95.6712 159.465 100.271 158.555C104.87 157.626 109.369 156.247 113.72 154.5C114.813 154.068 115.868 153.563 116.943 153.094C118.008 152.606 119.045 152.046 120.101 151.531C121.147 150.997 122.157 150.4 123.195 149.839C124.214 149.251 125.196 148.616 126.206 148C130.144 145.435 133.908 142.548 137.342 139.294C144.191 132.775 149.864 124.896 153.702 116.135C155.648 111.768 157.08 107.161 158.09 102.473C159.072 97.7746 159.54 92.9754 159.568 88.1671L159.586 88.1855Z" fill="black"/>
<path d="M140.583 138.706C139.289 141.05 138.013 143.404 136.737 145.767C138.894 147.274 141.244 148.837 143.879 148.819C144.439 148.819 144.99 148.736 145.541 148.644C146.064 148.561 146.615 148.442 147.001 148.074C147.634 147.458 147.524 146.392 147.147 145.583C146.744 144.718 146.101 143.983 145.467 143.275C144.219 141.887 142.943 140.535 141.63 139.221" fill="#76B82A"/>
<path d="M89.3826 65.1369C89.4469 67.417 87.9321 71.7381 87.6934 74.8731C87.6934 75.0202 87.6475 75.2041 87.6016 75.4064C86.6193 79.6079 78.366 95.4397 78.366 95.4397L71.4713 115.464L60.7117 113.073C60.7117 113.073 56.0113 90.0889 54.7627 88.7558C53.5784 87.4686 51.3016 88.48 51.0813 88.5719C51.2098 88.3972 52.2564 87.009 52.6787 86.4849C53.1286 85.9149 56.6356 82.7063 59.2337 80.3618C61.8318 78.0174 71.2602 72.5839 71.2602 72.5839L74.1429 71.6553L72.5363 69.6419L80.4132 64.1991L84.9393 61.0825L85.4258 60.7883L89.4377 61.7076C89.4377 61.7076 89.3092 62.8569 89.3735 65.1369H89.3826Z" fill="white"/>
<path d="M67.4051 154.638C66.7442 154.721 62.0345 154.822 55.7917 154.923H55.7275C41.4241 155.162 19.1521 155.42 19.1521 155.42C19.1521 155.42 17.5914 155.696 16.8753 153.278C16.1592 150.869 9.10852 127.084 9.10852 127.084L5.36285 116.778L0.772561 99.0342C0.772561 99.0342 -0.549441 94.0972 4.90382 94.373L50.0355 88.7096C50.0355 88.7096 55.1124 87.4041 55.6999 88.9211C56.2967 90.438 56.5445 92.1941 56.5445 92.1941L69.1219 151.301C69.1219 151.301 69.5809 154.372 67.396 154.638H67.4051Z" fill="#A0A0A0"/>
<path d="M89.3826 65.1369C89.4469 67.417 87.9321 71.7381 87.6934 74.8731C87.6934 75.0202 87.6475 75.2041 87.6016 75.4064C87.5833 75.4064 87.5841 75.4063 87.5658 75.4063C86.8864 73.3469 86.1979 71.2783 85.5185 69.2188C85.0595 67.8306 84.5454 66.3688 83.4162 65.4678C82.5532 64.7966 81.4791 64.53 80.4325 64.2082L84.9585 61.0915L85.4451 60.7973L89.457 61.7167C89.457 61.7167 89.3284 62.8659 89.3927 65.146L89.3826 65.1369Z" fill="#76B82A"/>
<path d="M108.939 90.1251C109.884 88.4794 110.885 86.8613 111.941 85.2708C112.491 84.4341 113.07 83.5975 113.887 83.0183C115.236 82.0437 116.999 81.9242 118.652 81.915C120.782 81.915 122.911 82.0345 125.023 82.292C125.344 82.3287 125.675 82.3747 125.941 82.5678C126.207 82.7608 127.355 85.1145 127.548 87.036C122.719 87.0176 119.561 87.5692 115.053 89.2884C110.545 91.0077 106.405 93.9497 103.761 97.995L108.948 90.1251H108.939Z" fill="#76B82A"/>
<path d="M75.8429 72.7311C74.7412 74.2757 73.8323 75.949 73.1346 77.7142C77.0272 78.9186 80.9748 79.9483 84.9592 80.8033C85.0326 80.3344 85.207 79.8839 85.4733 79.4978C82.7375 78.0268 80.2495 76.1053 78.1196 73.8344" fill="#76B82A"/>
<path d="M120.441 126.846C118.531 125.2 115.988 124.556 113.537 123.959C112.518 123.711 111.481 123.462 110.434 123.545C110.37 124.051 110.857 124.446 111.279 124.74C113.849 126.505 116.282 128.482 118.541 130.624C118.981 130.045 119.422 129.466 119.863 128.887" fill="#76B82A"/>
<path d="M151.104 118.984C151.104 118.984 150.287 130.982 149.745 134.697C149.195 138.411 147.478 146.924 147.478 146.924C147.478 146.924 147.478 142.364 138.123 136.315C140.042 133.336 140.997 129.714 141.786 126.22C142.631 122.441 143.365 118.635 143.999 114.811C144.953 108.954 145.66 102.969 144.788 97.0942C143.916 91.2285 141.309 85.4089 136.645 81.7405C134.35 79.9202 131.642 78.6882 128.906 77.6769L126.73 72.9421L127.198 73.6684L127.483 73.5489C127.483 73.5489 133.891 75.5807 138.564 80.3523C143.237 85.1147 149.626 92.1479 150.361 97.6182C151.086 103.089 151.104 118.984 151.104 118.984Z" fill="#76B82A"/>
<path d="M140.491 138.052C140.436 138.117 135.974 146.814 135.883 146.97C135.782 147.127 126.831 159.584 125.334 161.322C123.847 163.069 117.411 167.077 113.133 168.116C108.864 169.155 102.658 163.574 102.658 163.574L72.0501 141.555C72.0501 141.555 68.5431 141.141 67.01 141.003C65.486 140.875 61.52 136.949 61.52 136.949C61.52 136.949 58.3711 138.668 56.333 139.339C55.8648 139.496 55.4516 139.588 55.1579 139.597C53.8818 139.615 53.3952 137.216 53.2483 136.241C53.2116 136.002 53.1932 135.846 53.1932 135.846C53.1932 135.846 52.0824 136.333 50.4941 136.756C49.6495 136.986 49.1446 136.333 48.8508 135.634C48.5938 135.027 48.4928 134.402 48.4744 134.32C48.4377 134.182 48.1715 132.416 48.0337 131.515C47.9878 131.194 47.9603 130.991 47.9603 130.991C47.9603 130.991 47.8501 130.927 47.6665 130.817C47.2534 130.541 46.4914 129.953 45.8396 128.978C44.894 127.571 47.6573 125.549 47.6573 125.549L51.3571 123.719L51.3112 123.701L49.0895 122.846L47.2534 122.147C47.2534 122.147 46.4639 120.97 46.5281 119.986C46.5924 119.003 54.35 117.394 55.6995 116.971C56.8287 116.622 59.9134 115.886 60.9049 115.656C61.1069 115.61 61.217 115.583 61.217 115.583L60.96 114.286L60.6662 112.797L67.8821 112.972C67.8821 112.972 69.3418 113.376 71.738 115.472C74.1433 117.559 80.0372 131.663 81.6163 134.715C83.1953 137.749 102.842 141.325 102.842 141.325L110.618 142.318L121.175 127.102C122.47 127.102 124.692 128.068 127.179 129.419C133.083 132.619 140.482 138.006 140.482 138.071L140.491 138.052Z" fill="#F4C6CC"/>
<path d="M127.18 129.401C126.464 132.159 125.188 134.816 123.93 137.39C121.947 141.445 119.964 145.508 117.981 149.572C116.989 151.604 115.649 153.902 113.409 154.187C112.372 154.325 111.325 153.976 110.343 153.636C101.741 150.657 93.2393 147.384 84.8391 143.854C83.0305 143.09 81.2036 142.309 79.6521 141.123C79.1104 140.709 78.6055 140.25 78.2475 139.67C77.8894 139.1 77.6966 138.448 77.5038 137.795C75.3097 130.578 72.2893 123.618 68.5252 117.09C68.0754 116.318 67.5888 115.518 66.8268 115.086C66.175 114.709 65.3947 114.636 64.6418 114.581C63.4208 114.479 62.1906 114.378 60.9696 114.277L60.6758 112.788L67.8918 112.962C67.8918 112.962 69.3515 113.367 71.7476 115.463C74.1529 117.55 80.0469 131.653 81.6259 134.706C83.205 137.74 102.851 141.316 102.851 141.316L110.627 142.309L121.185 127.093C122.479 127.093 124.701 128.059 127.189 129.41L127.18 129.401Z" fill="white"/>
<path d="M63.2457 117.936C60.9138 117.283 58.4442 118.046 56.1399 118.8C53.652 119.619 51.1549 120.428 48.6669 121.246C48.6669 121.807 48.823 122.358 49.0984 122.846L47.2623 122.147C47.2623 122.147 46.4728 120.97 46.537 119.986C46.6013 119.003 54.3589 117.394 55.7084 116.971C56.8376 116.621 59.9223 115.886 60.9138 115.656C61.7584 116.336 62.3184 117.366 63.2457 117.936Z" fill="white"/>
<path d="M61.9696 122.018C58.5912 122.79 55.2678 123.838 52.0546 125.144C50.2277 125.888 48.1804 127.029 47.9325 128.996C47.8591 129.594 47.9142 130.311 47.6847 130.826C47.2715 130.55 46.5095 129.961 45.8577 128.987C44.9121 127.58 47.6755 125.558 47.6755 125.558L51.3752 123.728L51.3293 123.71C52.7156 123.066 54.0927 122.358 55.5432 121.88C57.6364 121.172 60.0509 120.951 61.9788 122.036L61.9696 122.018Z" fill="white"/>
<path d="M63.6134 128.151C60.85 129.052 58.0775 129.944 55.305 130.835C53.2852 131.488 51.1186 132.261 49.9527 134.035C49.6589 134.485 49.4478 134.982 49.1081 135.386C49.0346 135.478 48.952 135.561 48.8602 135.644C48.6031 135.037 48.5022 134.412 48.4838 134.329C48.4471 134.191 48.1808 132.426 48.0431 131.525C48.1441 131.433 48.2451 131.36 48.3553 131.286C48.8143 130.964 49.3376 130.78 49.8517 130.578C52.0734 129.76 54.2951 128.923 56.5168 128.096C57.4532 127.756 58.3988 127.397 59.3995 127.323C60.8409 127.213 62.2547 127.7 63.6134 128.169V128.151Z" fill="white"/>
<path d="M61.7133 132.665C61.5021 133.189 61.0431 133.566 60.6025 133.924C60.0149 134.393 59.4365 134.871 58.849 135.349C57.8115 136.186 56.7374 137.05 55.4705 137.455C55.5256 138.163 55.8377 138.843 56.3427 139.34C55.8745 139.496 55.4613 139.588 55.1676 139.597C53.8915 139.615 53.4049 137.216 53.258 136.241L61.7133 132.665Z" fill="white"/>
<path d="M61.227 116.254V115.96C61.2454 116.116 61.2454 116.208 61.227 116.254Z" fill="white"/>
<path d="M66.019 154.712L20.1529 155.475C18.7299 155.503 17.463 154.574 17.059 153.213L5.71186 118.93L0.763531 99.0068C0.139252 96.8923 1.55306 94.7133 3.73804 94.4375L52.2941 88.2777C54.1761 88.0386 55.9204 89.2798 56.3152 91.1369L61.2176 115.96L59.914 115.896L54.9748 93.8951C54.6535 92.4517 53.2856 91.5047 51.8259 91.6978L6.13417 97.8208C4.39904 98.0507 3.27901 99.7883 3.79312 101.462L17.3345 147.596C18.023 149.931 20.0978 151.586 22.5307 151.733L66.019 154.721V154.712Z" fill="white"/>
<path d="M5.1874 115.886C5.1874 115.886 8.15273 118.709 8.59339 119.297C9.03406 119.886 9.19931 121.642 9.19931 121.642V122.23C9.19931 122.23 10.3285 124.409 10.4754 124.951C10.6223 125.494 10.4754 127.921 10.4754 127.921L10.8518 127.664C10.8518 127.664 12.0361 128.114 11.8433 129.585C11.6505 131.056 10.8794 131.838 10.402 131.442C9.92458 131.047 8.56585 129.502 8.26289 129.493C7.95993 129.484 7.87731 127.562 7.67534 127.673C7.47336 127.783 5.76578 125.788 5.82086 124.455C5.87594 123.122 5.82086 122.478 5.82086 122.478C5.82086 122.478 3.8195 120.906 4.17754 119.472C4.53558 118.038 5.19658 115.896 5.19658 115.896L5.1874 115.886Z" fill="#F4C6CC"/>
<path d="M21.2554 94.916C21.2554 95.201 33.7409 104.404 33.7409 104.404L25.0745 94.0701" fill="white"/>
<path d="M27.526 94.0602L33.732 99.7603L29.8211 93.481L27.526 94.0602Z" fill="white"/>
<path d="M40.0463 153.452L35.4652 145.261L43.8563 153.452" fill="white"/>
<path d="M39.753 143.689L45.6469 154.225H49.3283L39.753 143.689Z" fill="white"/>
<path d="M8.16269 103.484C9.52153 103.484 10.6231 102.381 10.6231 101.02C10.6231 99.6595 9.52153 98.5564 8.16269 98.5564C6.80386 98.5564 5.7023 99.6595 5.7023 101.02C5.7023 102.381 6.80386 103.484 8.16269 103.484Z" fill="white"/>
<path d="M14.4425 100.965C15.2639 100.965 15.9298 100.298 15.9298 99.4757C15.9298 98.6531 15.2639 97.9863 14.4425 97.9863C13.6211 97.9863 12.9553 98.6531 12.9553 99.4757C12.9553 100.298 13.6211 100.965 14.4425 100.965Z" fill="white"/>
<path d="M124.555 35.4408C124.224 36.2498 123.738 36.9853 123.242 37.6933C122.241 39.1183 121.167 40.4974 120.029 41.8029C119.955 41.8856 119.873 41.9776 119.753 41.9592C119.671 41.9592 119.616 41.8948 119.551 41.8397C118.45 40.7916 116.742 40.5801 115.264 40.9571C113.786 41.3432 112.501 42.235 111.307 43.1728C111.087 43.3475 110.857 43.5221 110.619 43.6876C110.233 44.1749 109.838 44.6622 109.425 45.131C108.296 44.2301 107.057 43.4578 105.735 42.8418C106.579 41.8213 107.057 40.5525 107.488 39.3022C108.681 35.8177 109.645 32.2689 110.371 28.6558C110.472 28.1409 110.573 27.5893 110.417 27.0836C110.417 27.0561 110.407 27.0377 110.389 27.0193C110.251 26.6056 109.958 26.2746 109.664 25.9436C108.048 24.1048 106.285 22.1742 103.926 21.5674C101.704 21.0065 99.3908 21.7053 97.1415 22.1282C95.5257 22.4316 93.8916 22.5879 92.2483 22.6063C91.9361 22.6063 91.6148 22.5971 91.3119 22.5235C90.4948 22.7809 89.6777 23.0384 88.8515 23.259C86.2534 23.9669 83.2605 24.4174 81.0388 22.9097C80.185 22.3304 79.524 21.5214 78.9732 20.6664C78.5876 20.0688 78.2479 19.4528 77.9633 18.8092C77.8807 18.6437 77.8164 18.4782 77.743 18.3036C77.5043 17.7244 77.3023 17.1268 77.1462 16.52C76.421 13.8262 76.4393 10.921 77.2748 8.25475C78.7712 9.70737 80.7083 10.7003 82.7556 11.0772C82.6546 10.9577 82.5536 10.8382 82.4618 10.7279C81.5896 9.62463 80.9837 8.3375 80.644 6.96762C80.1299 4.9266 80.2401 2.72928 81.0296 0.780199C82.6729 2.50863 85.0966 3.27172 87.4744 3.52914C89.843 3.78657 92.2391 3.63027 94.6077 3.84173C97.7842 4.13593 100.86 5.11967 103.898 6.13099C106.423 6.97681 108.948 7.85023 111.335 9.03622C113.474 10.0843 115.475 11.3898 117.32 12.8976C118.716 14.0376 120.01 15.3064 121.195 16.6763C122.517 18.2024 123.747 20.0688 123.526 22.0822C123.306 24.0221 121.819 25.5299 120.405 26.863L120.203 27.2675C120.203 27.2675 120.12 27.2583 120.075 27.2491C120.075 27.2491 120.075 27.2675 120.075 27.2767C120.056 27.3319 120.038 27.3778 120.02 27.4238C120.13 27.4238 120.24 27.4422 120.332 27.4514C122.058 27.6812 123.6 28.8396 124.399 30.3842C125.188 31.938 125.225 33.8319 124.573 35.4408H124.555Z" fill="#ED6C2E"/>
<path d="M120.396 48.3307C120.203 49.0938 119.956 49.8661 119.497 50.528C118.707 51.6681 117.394 52.3484 116.054 52.6886C114.714 53.0288 113.318 53.0747 111.941 53.2034C111.647 53.231 111.344 53.2678 111.115 53.4425C110.821 53.6631 110.573 54.0217 110.61 54.3803C111.188 60.5585 111.822 71.0302 111.5 71.4531C111.308 72.0507 113.043 75.4616 108.856 75.3973C109.178 76.7028 89.522 74.5422 88.9253 72.3173C88.8794 72.1335 89.063 70.0649 89.1089 69.3385C89.1456 68.4376 89.1915 67.5458 89.2282 66.6448C89.2925 64.9991 89.3751 63.3534 89.4486 61.6985C87.8879 62.2134 86.2354 61.3308 84.9134 60.3562C83.5914 59.3817 82.3612 58.2508 81.4339 56.8902C79.607 54.1964 79.1388 50.8223 78.9552 47.5677C78.4961 39.4311 79.4876 31.2027 81.8562 23.4064L81.8103 23.627C84.6471 23.6454 87.4747 23.4983 90.284 23.1673C92.5791 22.9099 94.8559 22.533 97.1052 22.0457C99.2075 21.5952 101.392 21.0344 103.486 21.5308C105.964 22.11 107.874 24.0315 109.637 25.8611C109.921 26.1553 110.215 26.4587 110.362 26.8357C110.564 27.3413 110.472 27.9205 110.38 28.4538C109.637 32.9127 108.856 37.4913 106.561 41.3894C106.332 41.7756 106.084 42.1525 105.992 42.5846C105.964 42.7041 105.955 42.8328 105.946 42.9524C106.791 43.6235 107.654 44.2855 108.535 44.8923C108.709 45.0118 108.902 45.1405 109.113 45.1221C109.297 45.1037 109.444 44.9842 109.582 44.8647C110.573 44.0005 111.298 42.8328 112.4 42.1249C113.043 41.7112 113.777 41.4722 114.521 41.2975C115.861 40.9757 117.339 40.8562 118.551 41.5181C119.653 42.1249 120.369 43.3201 120.617 44.5521C120.855 45.7932 120.69 47.0804 120.378 48.3123L120.396 48.3307Z" fill="white"/>
<path d="M101.548 59.4734C100.648 59.8412 99.9688 60.6043 99.4088 61.3674C98.8304 62.1396 98.197 62.8475 97.4533 63.4727C95.5346 65.0724 93.267 65.8815 90.8709 66.4423C90.421 66.5527 89.7141 66.8101 89.2184 66.663C89.2826 65.0173 89.3653 63.3716 89.4387 61.7167C74.3275 60.7973 79.0555 31.4232 81.8464 23.4246L81.8005 23.6452C84.6373 23.6636 87.4649 23.5165 90.2741 23.1855C90.8158 26.2287 89.9436 29.3178 89.7325 32.4069C89.5764 34.6686 89.7967 36.5993 89.5397 38.8609C89.0531 41.8213 86.6754 45.1587 86.6754 45.1587L88.6033 46.0873C88.6033 46.0873 89.4112 47.7054 89.3102 48.6431C89.2092 49.5809 89.0531 50.6198 89.5948 51.4013C89.8518 51.769 90.265 52.0632 90.3568 52.5045C90.4027 52.7803 90.3292 53.047 90.2558 53.3136C89.6499 55.5661 89.4387 58.1219 90.6597 60.0986C90.9443 60.5583 91.3115 60.9812 91.7981 61.2202C92.2204 61.4225 92.6886 61.5053 93.1568 61.5236C96.1956 61.6707 98.7294 60.3836 101.53 59.4918L101.548 59.4734Z" fill="#F4C6CC"/>
<path d="M110.397 27.0386C110.26 26.6341 109.966 26.2939 109.672 25.9721C108.056 24.1334 106.294 22.2027 103.934 21.5959C101.712 21.0351 99.399 21.7338 97.1498 22.1567C95.534 22.4601 93.8998 22.6164 92.2565 22.6348C91.9444 22.6348 91.623 22.6256 91.3201 22.552C90.503 22.8095 89.6859 23.0669 88.8597 23.2875C86.2616 23.9955 83.2687 24.446 81.047 22.9382C80.1932 22.359 79.5322 21.5499 78.9814 20.6949C78.5958 20.0973 78.2561 19.4813 77.9715 18.8377C77.8063 18.801 77.641 18.7366 77.485 18.6631C77.4666 18.4056 77.4574 18.139 77.4666 17.8724C77.5492 18.0287 77.6502 18.185 77.7512 18.3321C77.8797 18.5344 78.0266 18.7182 78.1735 18.8929C79.3486 20.2352 81.1297 21.0535 82.9199 21.3293C85.1232 21.6694 87.3724 21.3109 89.5666 20.888C92.229 20.3731 94.8913 19.7479 97.5996 19.5733C100.308 19.4078 103.117 19.702 105.541 20.9247C107.946 22.1475 109.938 24.3816 110.416 27.0478L110.397 27.0386Z" fill="white"/>
<path d="M102.317 13.486C97.5343 9.80853 90.9885 8.53979 85.1772 10.1395C84.2775 10.3877 83.3595 10.7003 82.4506 10.7371C81.5784 9.63385 80.9725 8.34672 80.6328 6.97684C81.3489 7.32621 82.1293 7.55605 82.9096 7.66637C84.8651 7.94219 86.8389 7.62041 88.8036 7.4825C91.3741 7.29862 94.0089 7.44572 96.4142 8.3651C98.8196 9.29368 100.986 10.2314 101.941 12.6218L102.327 13.4769L102.317 13.486Z" fill="white"/>
<path d="M97.0494 18.4232L93.423 16.75C92.3214 16.1524 90.724 16.3638 89.4846 16.5477C88.236 16.7316 87.0517 17.1637 85.8582 17.5774C83.7743 18.3037 81.6168 18.984 79.4043 18.9932C78.9912 18.9932 78.5689 18.9657 78.1557 18.8829C78.0915 18.8737 78.018 18.8553 77.9538 18.8277C77.7885 18.791 77.6233 18.7266 77.4672 18.6531C77.4488 18.3956 77.4397 18.129 77.4488 17.8624C77.5315 18.0187 77.6325 18.175 77.7334 18.3221C77.4947 17.7429 77.2928 17.1453 77.1367 16.5385C78.679 17.32 80.5978 17.2372 82.3054 16.8143C84.2608 16.3362 86.1245 15.472 88.1167 15.1594C91.4033 14.6538 95.0755 15.7478 97.0585 18.4232H97.0494Z" fill="white"/>
<path d="M123.508 22.0921C123.287 24.0319 121.8 25.5397 120.386 26.8728L120.184 27.2773C120.184 27.2773 120.102 27.2682 120.056 27.259C120.056 27.259 120.056 27.2773 120.056 27.2865L117.09 26.5418C118.21 26.6246 119.367 26.1557 120.102 25.3007C120.524 24.8042 120.808 24.1974 121.001 23.5723C121.58 21.6599 121.295 19.5546 120.505 17.725C119.707 15.8862 118.431 14.2957 117.017 12.8891C117.109 12.8891 117.21 12.8983 117.301 12.9166C118.697 14.0567 119.991 15.3254 121.176 16.6953C122.498 18.2215 123.728 20.0878 123.508 22.1012V22.0921Z" fill="white"/>
<path d="M114.382 50.7302C114.547 50.7761 114.722 50.6842 114.768 50.5187V50.4911C114.859 50.1877 115.208 49.8935 115.465 49.3695C115.585 49.1029 115.621 48.7535 115.548 48.4685C115.484 48.1743 115.355 47.9261 115.199 47.7054C114.887 47.2641 114.52 46.9699 114.254 46.6665C113.978 46.3723 113.85 46.0413 113.877 45.7471C113.905 45.4805 114.125 45.2874 114.501 45.2599C114.887 45.2139 115.282 45.3242 115.759 45.4253C116.218 45.5081 116.76 45.5816 117.237 45.2966C117.715 45.0024 117.806 44.4692 117.852 44.0279C117.687 44.4508 117.476 44.9013 117.099 45.0208C116.732 45.1495 116.31 45.0392 115.897 44.9013C115.502 44.7542 115.006 44.5703 114.474 44.5703C114.208 44.5703 113.905 44.6347 113.629 44.8186C113.363 44.9932 113.17 45.3058 113.115 45.6184C113.005 46.2436 113.308 46.8136 113.638 47.1906C113.969 47.5767 114.327 47.8617 114.547 48.1651C114.777 48.4869 114.869 48.7995 114.768 49.0753C114.694 49.3327 114.419 49.6177 114.244 50.0314C113.721 49.9303 113.207 49.8016 112.693 49.6545C112.078 49.4982 111.481 49.2684 110.875 49.0477C111.389 49.4338 111.968 49.7464 112.546 50.0406C113.133 50.3164 113.749 50.5463 114.382 50.7302Z" fill="black"/>
<path d="M101.758 31.8735C102.126 28.0488 96.5621 26.2193 95.3686 31.2667C97.2782 29.6945 100.592 30.3565 101.758 31.8735Z" fill="black"/>
<path d="M88.1159 29.6951C87.868 25.6591 83.4338 24.896 82.2128 28.7022C83.9112 27.9851 86.3073 28.1138 88.1159 29.6951Z" fill="black"/>
<path d="M86.1506 45.2416C87.3349 46.3724 90.2543 46.069 90.2543 46.069C90.2543 46.069 88.9047 45.1496 87.3991 44.8094C89.9238 41.3985 90.6582 35.9834 90.6582 35.9834C90.6582 35.9834 88.9139 41.2606 86.1414 45.2416H86.1506Z" fill="black"/>
<path d="M93.1936 50.133C93.1936 50.133 93.4782 51.0064 94.0566 51.3557C94.2586 49.9491 94.0015 49.2779 93.1477 48.5608C92.9916 49.2687 93.1202 49.8755 93.1202 49.8755C90.0355 51.7511 86.4642 52.3303 86.4642 52.3303C86.4642 52.3303 90.9444 53.8105 93.1936 50.133Z" fill="black"/>
<path d="M99.1597 42.7776C98.4252 42.7224 97.6449 42.9707 97.0757 43.4947C96.4973 44.0096 96.1576 44.791 96.1576 45.5817C96.1576 46.3724 96.5065 47.1538 97.0757 47.6687C97.654 48.1927 98.4252 48.441 99.1597 48.3858C100.665 48.2939 101.785 46.9424 101.758 45.5817C101.758 46.262 101.455 46.9332 100.959 47.3837C100.463 47.825 99.7931 48.0364 99.1597 47.9813C97.8744 47.8893 96.9471 46.7309 96.9747 45.5817C96.9471 44.4417 97.8744 43.2833 99.1597 43.1913C99.7839 43.1362 100.454 43.3384 100.959 43.7889C101.464 44.2302 101.758 44.9014 101.758 45.5909C101.785 44.2302 100.665 42.8787 99.1597 42.7868V42.7776Z" fill="black"/>
<path d="M97.5632 40.4058C98.1158 40.4058 98.5638 39.138 98.5638 37.5741C98.5638 36.0102 98.1158 34.7424 97.5632 34.7424C97.0105 34.7424 96.5625 36.0102 96.5625 37.5741C96.5625 39.138 97.0105 40.4058 97.5632 40.4058Z" fill="black"/>
<path d="M84.2144 32.4719C83.6452 32.4719 83.177 33.8141 83.177 35.4598C83.177 37.1055 83.636 38.4478 84.2144 38.4478C84.7928 38.4478 85.2518 37.1055 85.2518 35.4598C85.2518 33.8141 84.7928 32.4719 84.2144 32.4719Z" fill="black"/>
<path d="M151.994 104.799C151.838 101.269 151.517 97.5453 150.067 94.1528C148.653 90.7695 146.514 87.7999 144.117 85.1521C141.703 82.5135 139.142 80.0403 136.305 77.8614C133.633 75.8755 130.631 74.1931 127.381 73.4943C126.427 71.6648 125.371 69.8904 124.251 68.1711C122.635 65.7624 121.019 63.3076 118.871 61.2758C117.797 60.2737 116.567 59.4187 115.208 58.8578C113.968 58.343 112.61 58.1131 111.288 58.2327C111.251 57.5891 111.233 56.9547 111.251 56.3295C111.288 55.5665 111.398 54.831 111.554 54.1046C113.666 54.4448 115.896 54.0495 117.769 52.9462C119.862 51.6867 121.322 49.4066 121.542 46.9886C121.662 45.7843 121.506 44.5247 120.982 43.4123C120.716 42.8331 120.349 42.2814 119.89 41.8034C121.533 40.4335 123.103 38.9165 124.278 37.0134C124.912 35.9929 125.417 34.8528 125.646 33.5841C125.876 32.3246 125.665 30.8627 124.948 29.7227C124.242 28.5919 123.213 27.7369 122.075 27.176C121.625 26.9646 121.157 26.7899 120.698 26.652C121.322 25.9624 122.038 25.3465 122.644 24.6018C123.021 24.1329 123.379 23.6088 123.581 23.002C123.792 22.4045 123.865 21.7609 123.819 21.1265C123.737 19.8486 123.223 18.6718 122.589 17.6237C121.946 16.5664 121.194 15.6286 120.386 14.7184C117.136 11.0961 112.885 8.48505 108.405 6.73823C103.897 4.98222 99.2061 3.96171 94.4506 3.32734C92.0453 3.01475 89.6033 3.16185 87.354 2.95958C86.2248 2.84926 85.1139 2.62861 84.1041 2.17811C83.0942 1.73681 82.1762 1.09324 81.5427 0.219834L81.5243 0.192253C81.4693 0.118702 81.405 0.0635397 81.3224 0.0359583C81.0745 -0.0651734 80.7991 0.0543459 80.6981 0.302578C79.9728 2.10456 79.8259 4.09042 80.1564 5.95676C80.4319 7.53809 81.0837 9.04587 82.0293 10.3146C81.2581 10.3422 80.5328 10.1859 79.8718 9.80896C78.9905 9.32169 78.2928 8.51263 77.9715 7.59325C77.9072 7.40938 77.7695 7.24389 77.5767 7.15195C77.1911 6.96808 76.7321 7.12437 76.5485 7.51051V7.5289C75.5662 9.55153 75.5478 11.8224 75.8507 13.8726C76.1904 15.932 76.7413 17.9455 77.7511 19.8302C78.2652 20.768 78.8803 21.6689 79.679 22.432C80.285 23.0112 80.9919 23.5169 81.7722 23.8663C78.8344 29.1159 74.4645 54.3988 84.71 61.1103C82.5159 62.1216 80.386 63.2249 78.2836 64.3833C75.9517 65.6704 73.6015 67.1598 71.7378 69.2836L71.7011 69.3296C71.4349 69.6881 71.4992 70.203 71.8664 70.4696C72.4356 70.9017 73.014 71.3246 73.5831 71.7475C71.4257 72.1704 69.3142 72.8692 67.3036 73.7702C65.1095 74.7447 63.0255 75.9675 61.07 77.3649C59.1238 78.7808 57.306 80.3713 55.6902 82.1549C54.1203 83.8649 52.7341 85.7405 51.6232 87.7723L44.1594 88.6457L31.426 90.1995C22.9431 91.2751 14.4603 92.3784 5.99578 93.5736L3.61801 93.9046C3.36095 93.9413 3.09471 93.9781 2.76421 94.0425C1.52484 94.3551 0.496613 95.3388 0.147751 96.5524C-0.0358603 97.15 -0.0450409 97.8027 0.101848 98.4095L0.524155 99.9725L1.36877 103.071C2.54388 107.19 3.66391 111.327 4.88493 115.427C4.02195 111.226 3.05799 107.061 2.14912 102.869L1.43303 99.7334L1.08417 98.1797C1.00154 97.7384 1.02909 97.2787 1.17598 96.865C1.46057 96.0191 2.19502 95.3664 3.03963 95.1825C3.23242 95.1457 3.49866 95.1181 3.77408 95.0906L4.57279 94.9986L6.17021 94.8239C11.9631 94.1896 17.7561 93.5 23.5398 92.7921C24.1641 93.6747 24.8068 94.5297 25.4678 95.3664C26.3032 96.4329 27.1478 97.481 28.02 98.5106C28.8829 99.5404 29.7918 100.552 30.7191 101.545C31.6555 102.538 32.6286 103.503 33.7303 104.367C33.1703 103.08 32.4817 101.894 31.7289 100.745C30.9761 99.5955 30.1682 98.4923 29.2777 97.4442C28.3964 96.3961 27.4324 95.4032 26.4042 94.4838C25.6881 93.8494 24.9353 93.2518 24.1274 92.7186C25.3392 92.5715 26.5511 92.4244 27.7629 92.2773C27.8823 92.599 28.0291 92.9024 28.1944 93.1874C28.4882 93.6931 28.8279 94.1528 29.2134 94.5757C29.599 94.9986 30.0213 95.3848 30.4987 95.7249C30.9761 96.0559 31.4902 96.3593 32.1145 96.5432C31.9768 95.8904 31.7197 95.348 31.4443 94.8423C31.1505 94.3459 30.8109 93.8862 30.4345 93.4633C30.0581 93.0403 29.6357 92.6634 29.1675 92.3232C29.0757 92.2589 28.9656 92.2037 28.8646 92.1394C29.7918 92.029 30.7282 91.9187 31.6555 91.7992L44.3798 90.1535L50.7327 89.2985L52.3209 89.087C52.8993 89.0135 53.2849 88.9399 53.698 89.0227C54.5243 89.1514 55.2587 89.7582 55.5525 90.558L58.3159 102.979C59.2706 107.07 60.1703 111.161 61.171 115.271C61.1343 115.243 61.0976 115.207 61.0517 115.17C60.8864 115.041 60.611 114.876 60.2989 114.82C59.6562 114.729 59.2523 114.958 58.9677 115.032L58.0221 115.335C56.7643 115.749 55.4974 116.144 54.2213 116.521C52.9544 116.917 51.6783 117.284 50.4022 117.643L48.4835 118.176C47.8775 118.36 47.088 118.452 46.3628 119.123C46.0047 119.463 45.7936 119.987 45.8211 120.484C45.8395 120.971 46.0231 121.385 46.2526 121.707C46.6933 122.369 47.4277 122.828 48.1071 123.021C48.9517 123.26 49.7963 123.361 50.6317 123.38C49.4658 124.023 48.3274 124.713 47.2257 125.494C48.8782 125.136 50.4665 124.63 52.0363 124.069C53.597 123.509 55.1394 122.902 56.6542 122.221L57.7834 121.707C57.9578 121.624 58.0955 121.569 58.169 121.559C58.2241 121.541 58.2883 121.541 58.4444 121.578C59.1788 121.78 60.0418 122.047 60.8589 122.203C62.5114 122.552 64.2006 122.736 65.8898 122.654L61.2077 120.971L58.885 120.088C58.6464 120.006 58.2883 119.932 57.9303 119.987C57.5906 120.033 57.3335 120.144 57.1316 120.226L55.984 120.723C54.4692 121.385 52.9728 122.12 51.5039 122.902C51.3662 122.975 51.2285 123.049 51.0907 123.122C50.136 122.939 49.2087 122.672 48.3825 122.277C47.8041 122.01 47.4002 121.651 47.1431 121.155C47.0238 120.916 46.9595 120.677 46.9779 120.493C46.9962 120.309 47.0788 120.171 47.2165 120.061C47.5103 119.822 48.1254 119.721 48.7956 119.583L50.7694 119.151C52.0823 118.838 53.3767 118.48 54.6712 118.103C55.9565 117.698 57.2417 117.275 58.4995 116.815L59.4451 116.457C59.7847 116.319 60.0234 116.245 60.051 116.255C60.0694 116.255 60.0969 116.255 60.1979 116.319L60.5835 116.595C60.8589 116.797 61.1435 116.99 61.4281 117.174C63.7049 118.691 66.2203 119.84 68.846 120.456C66.459 119.197 64.2281 117.781 62.1809 116.135C61.9238 115.933 61.6759 115.721 61.4281 115.501C61.3363 115.427 61.2536 115.354 61.1618 115.28C60.5192 111.152 59.7756 107.015 59.0778 102.878L57.9486 96.5432L57.3703 93.3713L56.9296 90.9993C56.8837 90.7603 56.8378 90.4385 56.7184 90.1259C56.3053 88.894 55.2128 87.9194 53.9275 87.6712C53.6062 87.6068 53.2757 87.5792 52.9544 87.5976C52.6055 87.616 52.4036 87.6528 52.119 87.6896L51.715 87.7355C53.3124 86.1082 54.9099 84.5361 56.5807 83.0467C58.325 81.5021 60.1244 80.0219 62.0156 78.6796C63.8885 77.3098 65.8531 76.0594 67.8728 74.8918C69.764 73.8069 71.7103 72.8048 73.7025 71.8303C73.8402 71.9314 73.9779 72.0417 74.1248 72.1429C72.2611 73.4392 70.5903 75.0389 69.1489 76.7765C67.524 78.5877 66.0643 80.4816 64.6137 82.4307C63.1999 84.389 61.8596 86.43 60.7395 88.5906C59.6103 90.7511 58.6923 93.0312 58.1873 95.4124C59.3349 93.2702 60.5376 91.2292 61.8412 89.2433C63.154 87.2667 64.5219 85.3176 65.9357 83.4053L70.1313 77.5856C71.3982 75.7193 72.7569 73.9632 74.2166 72.2256C75.6212 73.2645 77.035 74.285 78.4764 75.2687C79.5964 76.0502 80.7348 76.8041 81.8824 77.5488C82.8923 78.1924 83.8929 78.8084 84.7834 79.599L83.5257 82.2284C82.525 84.3614 81.5886 86.522 80.6522 88.6825C79.7433 90.8522 78.862 93.0403 78.0174 95.2377C77.2003 97.4442 76.374 99.6507 75.6304 101.885C74.1432 106.243 72.8671 110.665 71.7838 115.142C71.3523 114.618 70.8841 114.113 70.37 113.662C70.067 113.395 69.7273 113.147 69.3325 112.963C68.9286 112.779 68.5063 112.706 68.1115 112.669C67.3128 112.623 66.5692 112.623 65.7888 112.614C64.2557 112.605 62.7134 112.669 61.1894 112.807C62.7225 112.853 64.2465 112.936 65.7705 113.055C66.5233 113.12 67.3036 113.184 68.0289 113.294C68.7633 113.395 69.3142 113.726 69.8191 114.26C70.8749 115.299 71.6736 116.576 72.4998 117.864C73.3077 119.151 74.0973 120.447 74.8133 121.78C76.2455 124.446 77.4114 127.232 78.5315 130.091C79.0915 131.516 79.679 132.941 80.2758 134.357L80.386 134.624V134.642C80.8358 135.24 80.5237 134.817 80.6246 134.946L80.6522 134.973L80.7073 135.019L80.8266 135.111L81.2948 135.488C81.607 135.736 81.9375 135.966 82.268 136.196C82.929 136.646 83.6175 137.051 84.3336 137.41C85.0497 137.768 85.7933 138.072 86.5461 138.338C87.3173 138.605 88.0609 138.789 88.7954 139C90.2826 139.405 91.7699 139.8 93.2755 140.149C96.2775 140.83 99.2979 141.446 102.346 141.887C103.87 142.108 105.394 142.319 106.918 142.485C108.451 142.65 109.975 142.751 111.453 143.009C112.931 143.248 114.391 143.661 115.649 144.48C116.897 145.279 117.98 146.447 118.412 147.936C118.155 146.401 117.145 145.059 115.896 144.121C114.639 143.156 113.124 142.595 111.618 142.218C111.361 142.154 111.095 142.108 110.838 142.052C111.894 141.05 112.848 139.975 113.748 138.871C114.73 137.676 115.658 136.444 116.539 135.175C117.42 133.907 118.247 132.601 119.027 131.268C119.761 130.018 120.441 128.731 121.019 127.37C121.891 127.765 122.763 128.161 123.617 128.574C127.905 130.661 131.999 133.107 135.855 135.883C137.324 136.932 138.738 138.053 140.124 139.202C136.562 145.62 132.44 151.688 127.813 157.323C126.619 158.758 125.398 160.173 124.141 161.552C122.947 162.932 121.524 164.035 119.973 164.954C118.412 165.855 116.741 166.572 114.997 166.986C114.125 167.197 113.243 167.335 112.371 167.363C111.655 167.409 110.847 167.087 110.021 166.756C106.707 165.285 103.53 163.235 100.39 161.221C97.2415 159.199 94.166 157.066 91.0721 154.942C84.9212 150.649 78.7977 146.3 72.6835 141.933C78.4121 146.806 84.2877 151.504 90.3285 155.981C93.3397 158.234 96.4152 160.412 99.5366 162.527C101.107 163.575 102.695 164.596 104.32 165.57C105.954 166.545 107.597 167.492 109.387 168.273C109.846 168.457 110.296 168.641 110.81 168.779C111.077 168.834 111.297 168.935 111.609 168.953C111.903 168.981 112.233 169.018 112.454 168.99C113.454 168.944 114.437 168.788 115.391 168.549C117.301 168.08 119.119 167.299 120.79 166.296C122.442 165.276 124.003 164.007 125.233 162.518C126.482 161.102 127.675 159.631 128.823 158.132C131.788 154.308 134.45 150.253 136.782 146.024C138.655 147.366 140.702 148.571 143.08 149.04C143.695 149.159 144.338 149.196 144.971 149.168C145.596 149.15 146.284 149.058 146.945 148.69C147.266 148.497 147.579 148.221 147.781 147.854C147.983 147.495 148.065 147.072 148.047 146.686C148.028 146.3 147.946 145.951 147.836 145.629C149.617 139.267 150.627 132.693 151.288 126.11C151.976 119.05 152.251 111.943 151.985 104.827L151.994 104.799ZM80.0646 47.3472C80.7073 47.3472 81.4509 46.9611 81.8181 46.6577C82.5617 46.0325 82.9382 45.1407 82.9382 44.2581C82.9382 44.6994 82.8096 45.1407 82.5617 45.4993C82.3231 45.8578 81.9742 46.1428 81.5886 46.2899C81.0378 46.529 80.4502 46.4738 79.9728 46.2899C79.6974 43.8628 79.8168 42.309 79.8168 42.309C80.3217 41.8034 81.1388 42.0516 81.5335 42.2171C81.9283 42.3642 82.2955 42.6308 82.5434 42.9985C82.8004 43.3571 82.929 43.8168 82.9382 44.2673C82.9382 43.3663 82.5434 42.4561 81.763 41.8309C81.3775 41.5183 80.6706 41.1414 79.8259 41.1874C79.6332 35.9837 80.7899 27.4427 81.9099 23.9398C82.1211 24.0318 82.3322 24.1145 82.5526 24.188C84.7559 24.8592 86.9042 24.3995 88.8504 24.0869C92.7889 23.425 96.7457 22.717 100.666 21.9999C101.63 21.8436 102.594 21.7517 103.53 21.862C104.467 21.954 105.348 22.3401 106.147 22.8917C107.735 24.0134 108.928 25.6315 110.627 26.7163C110.627 26.7163 108.956 35.8734 105.008 43.2192C106.009 45.5912 109.947 45.3705 109.947 45.3705L111.82 42.6124L109.626 44.3592C109.626 44.3592 107.717 44.1754 106.835 42.7595C110.397 35.0091 110.709 26.6152 110.709 26.6152C110.709 26.6152 108.056 23.7743 106.459 22.4504C105.669 21.7977 104.696 21.2736 103.64 21.0897C102.594 20.8783 101.538 20.9426 100.528 21.0438C98.5176 21.2736 96.5529 21.5494 94.5608 21.816L88.6117 22.6435C86.6379 22.9377 84.6916 23.2135 83.0208 22.6711C81.3866 22.1562 80.1197 20.7863 79.2567 19.1866C80.5971 19.4349 82.0201 19.2786 83.3329 18.9568C85.013 18.5431 86.5645 17.9271 88.0976 17.5134C89.6308 17.0904 91.1272 16.9158 92.6696 17.21C94.2211 17.4858 95.7634 18.1018 97.37 18.681C96.1215 17.5225 94.6893 16.5388 92.9909 15.9688C92.1554 15.6654 91.2282 15.5367 90.3193 15.5367C89.4105 15.5367 88.5108 15.693 87.6661 15.932C85.9677 16.3917 84.4529 17.1364 82.9473 17.7524C81.708 18.2397 80.4319 18.6442 79.0731 18.8189C78.6416 17.9455 78.2928 17.0077 78.0082 16.0423C78.458 16.2538 78.9538 16.3733 79.4404 16.4101C80.3951 16.4745 81.2306 16.3457 82.066 16.217C82.9014 16.0791 83.7369 15.8861 84.5539 15.6286C85.371 15.362 86.1789 15.0494 86.9684 14.5713C86.0687 14.3691 85.2058 14.3415 84.3428 14.3507C83.4798 14.3691 82.6352 14.4518 81.7998 14.5989C80.9551 14.7276 80.1289 14.9667 79.3761 15.123C78.862 15.2333 78.357 15.2977 77.8062 15.2885C77.6685 14.746 77.5492 14.1944 77.4574 13.6428C77.237 12.3189 77.2095 10.9766 77.4757 9.71702C77.9531 10.287 78.5315 10.7743 79.1925 11.1145C80.3768 11.7764 81.864 11.8684 83.0942 11.5926C84.3428 11.3351 85.4353 10.8479 86.5278 10.5445C87.6111 10.2043 88.7403 10.0296 89.8787 9.91928C91.0171 9.80896 92.1646 9.83654 93.3122 9.96525C94.4506 10.1032 95.5982 10.2962 96.6998 10.6548C98.9215 11.3167 101.006 12.4568 102.842 13.937C101.189 12.2545 99.1327 10.9398 96.9018 10.0756C94.6709 9.19297 92.2473 8.77006 89.8236 8.8528C88.6117 8.88958 87.3907 9.04587 86.2156 9.35846C85.0221 9.65266 83.9297 10.0756 82.8555 10.2411C82.6168 10.2778 82.3873 10.3054 82.1578 10.3146C81.3591 8.95394 80.8542 7.43696 80.7165 5.9016C80.5879 4.39382 80.7991 2.88603 81.304 1.49777C81.9467 2.25166 82.7637 2.84006 83.6359 3.26298C84.7743 3.8238 86.0045 4.1272 87.2163 4.30188C88.4373 4.47656 89.64 4.51333 90.8151 4.5685C91.9902 4.62366 93.1286 4.7156 94.2853 4.88109C96.5805 5.20287 98.9032 5.66256 101.171 6.21419C101.437 6.27854 101.703 6.35209 101.979 6.41645C102.86 7.11518 103.732 7.81391 104.568 8.52183C105.871 9.65266 107.12 10.8019 108.194 12.1074C109.296 13.3853 110.241 14.7828 111.022 16.2814C111.811 17.78 112.362 19.3981 112.747 21.1449C113.05 19.3797 112.83 17.495 112.206 15.7665C111.912 14.8931 111.499 14.0749 111.049 13.2658C110.572 12.4752 110.03 11.7397 109.452 11.0317C108.258 9.63428 106.854 8.44828 105.33 7.48293C105.174 7.3818 105.017 7.29905 104.861 7.20712C105.871 7.51051 106.872 7.85068 107.863 8.22763C108.901 8.62296 109.929 9.06426 110.93 9.54234C111.297 10.1859 111.664 10.8203 112.004 11.4455C112.545 12.4568 113.032 13.4865 113.473 14.5254C113.904 15.5643 114.308 16.6308 114.648 17.7248C114.988 18.8189 115.281 19.9405 115.603 21.1357C115.961 19.9589 116.034 18.6994 115.906 17.4766C115.777 16.2446 115.474 15.031 114.988 13.891C114.51 12.751 113.849 11.6845 113.069 10.7375C113.023 10.6824 112.968 10.6272 112.922 10.572C114.115 11.234 115.263 11.9695 116.365 12.7786C116.456 13.3026 116.557 13.8083 116.649 14.3047C116.805 15.1046 116.934 15.8861 117.053 16.6675C117.172 17.449 117.264 18.2305 117.347 19.0395C117.439 19.8486 117.494 20.6668 117.613 21.5678C118.164 20.8415 118.467 19.9773 118.641 19.1039C118.807 18.2213 118.816 17.3111 118.678 16.4285C118.55 15.5919 118.302 14.7736 117.925 14.0197C118.495 14.507 119.055 15.0034 119.587 15.5459C121.184 17.1916 122.791 19.0119 123.186 21.2276C123.379 22.3217 123.066 23.4525 122.396 24.3995C121.864 25.1626 121.212 25.8705 120.661 26.652C119.982 26.4497 119.293 26.3026 118.605 26.2291C116.254 25.9624 113.913 26.0176 111.618 26.4497C112.545 26.5509 113.454 26.6612 114.363 26.7899C114.189 27.5989 114.014 28.3436 113.776 29.0699C113.528 29.8974 113.234 30.7064 112.949 31.5523L112.123 34.0438C111.839 34.8712 111.526 35.6711 111.132 36.5537C112.022 36.1492 112.729 35.4229 113.271 34.6322C113.812 33.8323 114.207 32.9589 114.501 32.0763C114.795 31.1937 115.006 30.2468 115.043 29.2722C115.061 28.4448 114.942 27.5897 114.602 26.8267C115.327 26.9278 116.043 27.0381 116.759 27.1668C116.668 27.8288 116.585 28.454 116.475 29.0516C116.346 29.8146 116.181 30.5318 115.979 31.2581C115.777 31.9844 115.548 32.7107 115.309 33.4646C115.07 34.2185 114.813 34.9908 114.648 35.8642C115.382 35.3769 115.961 34.7425 116.456 34.0438C116.943 33.3359 117.329 32.5452 117.558 31.6994C117.953 30.2376 117.889 28.6103 117.2 27.268C117.586 27.3415 117.98 27.4151 118.366 27.4978C118.651 27.5622 118.935 27.6357 119.22 27.7185C119.174 28.3528 119.137 28.9596 119.073 29.548C118.999 30.3479 118.898 31.1202 118.761 31.8832C118.623 32.6463 118.458 33.4094 118.247 34.1725C118.045 34.9448 117.788 35.7171 117.531 36.5905C118.329 36.1492 118.944 35.4688 119.431 34.7057C119.908 33.9335 120.23 33.0692 120.386 32.1775C120.542 31.2857 120.542 30.3663 120.367 29.4837C120.257 28.9412 120.074 28.4172 119.826 27.9207C120.689 28.2149 121.487 28.6011 122.167 29.1067C122.259 29.5388 122.314 29.9526 122.286 30.3295C122.268 31.0374 122.139 31.8097 122.02 32.5544C121.891 33.2991 121.726 34.0438 121.515 34.7793C121.313 35.5332 121.038 36.2595 120.725 37.0961C121.542 36.7376 122.203 36.0756 122.69 35.3309C123.177 34.577 123.489 33.7128 123.636 32.8394C123.737 32.1866 123.783 31.5339 123.7 30.8535C124.59 32.4533 124.085 34.5678 123.186 36.4434C122.314 38.2913 121.038 39.9922 119.817 41.7574C119.44 41.3804 119.009 41.0587 118.504 40.838C117.347 40.3048 116.052 40.4427 114.988 40.838C113.913 41.2333 112.977 41.8493 112.077 42.4929C113.087 42.0516 114.106 41.6195 115.144 41.3988C116.172 41.1782 117.228 41.2333 118.054 41.7206C118.871 42.1987 119.477 43.0353 119.817 43.9547C120.147 44.8741 120.22 45.8854 120.092 46.8507C119.78 48.7998 118.641 50.6018 116.934 51.5855C115.254 52.6244 113.133 52.937 111.159 52.5693H111.113C110.746 52.4957 110.379 52.7256 110.287 53.1025C110.021 54.1874 109.938 55.2998 109.993 56.3847C110.039 57.4696 110.195 58.5269 110.397 59.5566C110.792 61.616 111.306 63.6018 111.444 65.698C111.765 63.6202 111.536 61.4781 111.37 59.4279C111.343 59.0509 111.324 58.6832 111.306 58.3062C112.628 58.2786 113.932 58.6096 115.107 59.1704C116.401 59.7864 117.54 60.669 118.522 61.6895C120.496 63.7489 121.956 66.268 123.48 68.7044C124.967 71.1683 126.298 73.715 127.427 76.3444C128.4 78.5969 129.162 80.9229 129.741 83.2857C126.996 82.4767 124.177 81.8883 121.322 81.5849C119.679 81.4194 117.962 81.3458 116.236 81.732C114.501 82.0997 112.894 83.0651 111.673 84.2787C110.865 85.0601 110.195 85.9519 109.608 86.8713C109.801 86.3105 109.984 85.7589 110.177 85.1888C110.535 84.1591 110.829 83.1111 111.123 82.0354C111.38 80.9597 111.6 79.8748 111.774 78.79C112.086 76.6019 112.233 74.4045 112.178 72.2072C112.123 70.0099 111.912 67.831 111.444 65.6796C111.233 67.8677 111.095 70.0191 110.902 72.1612C110.81 73.099 110.719 74.0276 110.618 74.9562C109.011 75.0573 107.432 75.1308 105.853 75.0481C103.989 75.0297 102.135 74.9286 100.28 74.6987C98.4258 74.4965 96.5805 74.2023 94.726 73.8805C92.8715 73.5495 91.0079 73.2553 89.1626 72.7772H89.1259L89.1167 72.768H89.0891L88.9698 72.7405C89.236 71.674 89.438 70.5891 89.5298 69.4951C89.7134 67.1506 89.6216 64.8246 89.3186 62.5262C90.1816 62.5629 91.0354 62.517 91.8708 62.4434C93.0827 62.3331 94.2762 62.14 95.4513 61.8642C97.7923 61.2758 100.069 60.43 102.126 59.2348C82.1854 67.8861 80.6981 51.5488 80.0646 47.3748V47.3472ZM88.9147 72.8876L88.9882 72.9335H88.9973L89.0432 72.9703C90.7049 73.9816 92.5502 74.616 94.3863 75.1676C96.2408 75.7009 98.1412 76.087 100.069 76.2985C101.997 76.5007 103.952 76.5283 105.89 76.2801C107.487 76.1605 109.066 75.7928 110.562 75.232C110.443 76.326 110.296 77.4201 110.131 78.505C110.103 78.6888 110.076 78.8635 110.048 79.0474C108.313 79.0566 106.615 78.9738 104.916 78.8451C103.925 78.7532 102.924 78.6888 101.942 78.5785C100.95 78.4958 99.9681 78.3946 98.9858 78.2659C97.0212 78.0453 95.0749 77.7143 93.1469 77.2914C91.4118 76.8961 89.7134 76.3812 88.0058 75.7652C88.3547 74.8183 88.676 73.8621 88.9331 72.8784L88.9147 72.8876ZM82.4057 76.9236C81.3775 76.0226 80.3401 75.1308 79.2843 74.2666C77.4206 72.7129 75.5203 71.2235 73.5923 69.7525C75.1347 68.1344 77.0259 66.8105 78.9538 65.4866C80.9551 64.1259 82.9382 62.7192 84.8661 61.2206C85.8668 61.8458 87.0051 62.2779 88.1619 62.425C88.5383 62.471 88.9147 62.4986 89.2819 62.517C89.2268 64.8338 89.1534 67.1414 88.7127 69.3755C88.3272 71.6556 87.5284 73.8161 86.5737 75.9307L84.8661 79.5071C84.1867 78.5233 83.2595 77.7143 82.3873 76.9328L82.4057 76.9236ZM85.1048 135.948C84.453 135.626 83.8195 135.258 83.2044 134.854C82.9014 134.651 82.5985 134.44 82.3139 134.219L81.8824 133.879L81.8273 133.833L81.7814 133.732L80.0004 129.512C78.8069 126.69 77.5675 123.83 75.9609 121.164C75.1714 119.831 74.3268 118.526 73.4271 117.275C72.9222 116.586 72.408 115.878 71.8572 115.207L76.879 102.354C78.6141 98.005 80.3676 93.6563 82.2037 89.3536C83.9939 85.0142 85.9586 80.8126 87.7671 76.418C87.8222 76.2709 87.8773 76.1146 87.9324 75.9583C89.3921 77.0615 91.0538 77.9166 92.7889 78.5326C94.726 79.2313 96.7549 79.6542 98.7838 79.9116C100.822 80.1415 102.86 80.2334 104.898 80.1415C106.615 80.0679 108.35 79.8473 110.002 79.3416C109.709 81.1712 109.323 82.9731 108.919 84.8211C108.598 86.3197 108.313 87.8551 108.203 89.3996C107.643 90.5396 107.12 91.6981 106.679 92.8565L103.09 101.894C100.712 107.925 98.3615 113.965 96.048 120.015L94.3221 124.557L93.4774 126.837L92.743 129.154C91.8525 131.994 90.9528 134.826 90.0898 137.667C89.8236 137.593 89.5573 137.52 89.2819 137.446C87.7855 137.033 86.4268 136.61 85.1139 135.939L85.1048 135.948ZM115.226 134.229C114.345 135.497 113.519 136.803 112.738 138.136C112.013 139.386 111.334 140.664 110.755 142.025C109.534 141.786 108.304 141.62 107.101 141.418C105.596 141.17 104.09 140.912 102.594 140.627C99.6009 140.039 96.6264 139.405 93.6794 138.642C92.4951 138.338 91.3017 138.026 90.1265 137.695C91.2007 134.927 92.2381 132.142 93.2755 129.365L94.1293 127.094L95.0932 124.86L96.9936 120.392C99.5183 114.434 102.015 108.458 104.476 102.482L108.148 93.5C108.736 91.9831 109.406 90.5488 110.14 89.1514C110.884 87.7631 111.728 86.476 112.803 85.4187C113.877 84.3614 115.144 83.5891 116.585 83.2765C118.026 82.9456 119.587 82.9823 121.157 83.1294C124.315 83.4328 127.464 84.0488 130.503 84.9774H130.521C130.631 85.0142 130.76 85.0234 130.888 84.9958C131.274 84.9038 131.513 84.5269 131.421 84.1408C130.567 80.4357 129.172 76.9144 127.436 73.5863C128.878 74.0552 130.264 74.6711 131.568 75.425C133.073 76.3168 134.496 77.3465 135.818 78.4958C137.149 79.6266 138.416 80.8402 139.628 82.1089C140.84 83.3777 142.043 84.6556 143.163 85.9979C144.806 87.9746 146.33 90.0616 147.514 92.3048C145.311 91.5693 142.887 91.505 140.574 91.8911C137.911 92.3508 135.359 93.4357 133.073 94.8607C130.76 96.2674 128.703 98.005 126.702 99.761C124.737 101.545 122.773 103.301 120.918 105.286C119.082 107.3 117.576 109.534 116.108 111.731C114.657 113.938 113.17 116.163 111.93 118.544C111.306 119.73 110.728 120.953 110.25 122.203C110.131 122.516 110.021 122.837 109.901 123.15C109.846 123.315 109.773 123.518 109.764 123.794C109.745 124.079 109.883 124.391 110.048 124.566C110.388 124.934 110.663 125.044 110.93 125.246L111.756 125.798C113.968 127.232 116.144 128.712 118.394 130.11C118.265 130.257 118.136 130.404 118.017 130.551C117.044 131.746 116.108 132.978 115.226 134.247V134.229ZM118.394 130.082C116.365 128.39 114.281 126.772 112.233 125.117L111.453 124.511C111.205 124.308 110.884 124.097 110.792 123.95C110.737 123.867 110.746 123.858 110.755 123.812C111.178 123.757 111.609 123.812 112.022 123.913C112.591 124.042 113.161 124.253 113.73 124.456C114.868 124.832 115.988 125.274 117.099 125.706C118.403 126.212 119.688 126.763 120.964 127.333C120.046 128.207 119.201 129.144 118.403 130.101L118.394 130.082ZM146.394 147.753C146.018 148.01 145.485 148.157 144.925 148.203C144.365 148.267 143.796 148.277 143.218 148.221C140.996 148.047 138.875 147.017 136.828 145.969C138.04 143.762 139.169 141.51 140.197 139.221C140.629 139.579 141.07 139.929 141.492 140.296C143.31 141.841 145.072 143.432 146.321 145.335C146.615 145.785 146.844 146.282 146.881 146.714C146.918 147.146 146.761 147.486 146.394 147.743V147.753ZM150.452 115.418C150.406 118.939 150.232 122.46 150.021 125.982C149.791 129.503 149.488 133.015 149.084 136.518C148.763 139.497 148.313 142.448 147.762 145.399C147.661 145.151 147.542 144.912 147.422 144.691C146.156 142.466 144.301 140.775 142.529 139.147C140.721 137.52 138.829 135.994 136.865 134.559C132.899 131.746 128.667 129.301 124.196 127.416C121.965 126.46 119.688 125.642 117.365 124.952C116.199 124.63 115.033 124.308 113.858 124.051C113.271 123.913 112.692 123.757 112.077 123.683C111.646 123.637 111.205 123.646 110.783 123.748C110.801 123.683 110.829 123.61 110.865 123.509C110.994 123.214 111.123 122.911 111.26 122.617C111.802 121.44 112.399 120.282 113.069 119.16C114.4 116.917 115.887 114.756 117.411 112.596C118.917 110.426 120.386 108.274 122.139 106.39C123.874 104.487 125.848 102.712 127.758 100.901C129.667 99.0991 131.641 97.3982 133.771 95.9272C135.901 94.4746 138.233 93.2978 140.748 92.6726C141.997 92.3508 143.291 92.1485 144.595 92.1394C145.605 92.1394 146.615 92.2405 147.606 92.4519C147.992 93.1966 148.341 93.9505 148.644 94.732C149.947 97.8947 150.25 101.352 150.369 104.864C150.526 108.376 150.535 111.897 150.461 115.409L150.452 115.418Z" fill="black"/>
<path d="M64.4216 138.329C64.0727 138.044 63.7239 137.759 63.3934 137.446C63.2281 137.29 63.0812 137.125 62.916 136.968C62.7599 136.83 62.5855 136.527 62.0622 136.306C61.8051 136.205 61.493 136.196 61.2451 136.251C60.9972 136.306 60.8044 136.408 60.6576 136.509C60.3546 136.711 60.1802 136.886 60.0149 137.024C59.6752 137.309 59.308 137.566 58.9408 137.805C58.2064 138.292 57.3617 138.706 56.563 138.945C55.7551 139.166 54.9105 139.193 54.3138 138.66C53.7813 138.219 53.5243 137.428 53.3131 136.628L55.3879 135.709L57.8759 134.514C58.6837 134.109 59.5375 133.649 60.2536 133.272C61.6766 132.565 63.5311 132.978 65.3397 133.328C64.5501 132.831 63.7239 132.399 62.8058 132.114C61.8969 131.838 60.8136 131.755 59.813 132.077C59.3264 132.224 58.8857 132.417 58.4726 132.592L57.2057 133.107L54.7086 134.201L52.2482 135.378C51.4403 135.819 50.6507 136.141 50.1366 136.049C49.8887 136.012 49.6776 135.838 49.4664 135.497C49.2553 135.166 49.0625 134.734 48.8973 134.339C48.5759 133.557 48.2913 132.656 48.8422 131.866C48.4474 132.114 48.172 132.592 48.0985 133.089C48.0067 133.585 48.0526 134.081 48.1261 134.56C48.2179 135.047 48.3189 135.479 48.5025 135.975C48.6677 136.454 49.0992 137.042 49.7419 137.272C50.3753 137.511 50.9904 137.428 51.4862 137.299C52.0003 137.171 52.4501 136.978 52.8633 136.812L53.1479 136.683C53.0928 137.502 53.1479 138.375 53.6987 139.184C54.0384 139.653 54.58 139.984 55.14 140.131C55.7001 140.287 56.2692 140.26 56.8017 140.195C57.885 140.039 58.8123 139.616 59.7303 139.129C60.1802 138.881 60.6025 138.577 61.0156 138.255C61.2268 138.09 61.4012 137.934 61.5114 137.869C61.5573 137.915 61.6307 137.98 61.7225 138.081C61.9061 138.255 62.0806 138.449 62.2733 138.614C62.6589 138.954 63.0445 139.285 63.4668 139.57C64.3114 140.14 65.202 140.637 66.1567 140.977C66.4413 141.087 66.7259 141.179 67.0105 141.262C67.5522 144.728 68.2132 148.231 68.7457 151.632C68.8099 152.441 68.4611 153.251 67.8643 153.765C67.5614 154.023 67.2125 154.207 66.8361 154.299C66.6525 154.345 66.4597 154.363 66.2577 154.372H65.5692L59.969 154.326C57.8758 154.317 55.7827 154.326 53.6803 154.326C53.6161 154.004 53.5151 153.71 53.3957 153.416C53.1846 152.929 52.9183 152.487 52.597 152.083C52.2757 151.678 51.9085 151.311 51.4862 150.998C51.0547 150.685 50.5865 150.419 49.9989 150.272C50.0815 150.879 50.2835 151.366 50.5038 151.835C50.7334 152.294 51.0088 152.717 51.3117 153.103C51.6239 153.49 51.9727 153.857 52.3583 154.179C52.4134 154.225 52.4777 154.271 52.5328 154.317C51.5504 154.317 50.5773 154.317 49.595 154.317C49.1268 153.379 48.5759 152.497 47.97 151.66C47.208 150.594 46.3818 149.582 45.4821 148.626C44.5916 147.67 43.6184 146.787 42.6177 145.96L39.5882 143.514C40.0747 144.765 40.8826 145.859 41.718 146.87C42.5535 147.872 43.4073 148.819 44.2886 149.757C45.1699 150.695 46.0696 151.605 47.0061 152.497C47.6579 153.122 48.3281 153.729 49.035 154.317C47.4375 154.317 45.8401 154.335 44.2427 154.354C43.8663 153.563 43.4073 152.837 42.9207 152.129C42.2689 151.191 41.562 150.299 40.7908 149.472C40.0196 148.635 39.1842 147.863 38.3029 147.155C37.4124 146.438 36.4759 145.785 35.4202 145.27C36.0169 146.282 36.6963 147.183 37.4032 148.065C38.1101 148.939 38.8353 149.784 39.5973 150.603C40.3501 151.421 41.1397 152.212 41.9659 152.975C42.48 153.453 43.0217 153.922 43.5817 154.372C41.5803 154.391 39.579 154.4 37.5776 154.418L26.3865 154.593L20.7863 154.712L20.0886 154.731H19.7398C19.648 154.731 19.5653 154.731 19.4735 154.731C19.1155 154.703 18.7758 154.574 18.4637 154.391C18.1607 154.198 17.8945 153.94 17.7109 153.627C17.619 153.471 17.5456 153.306 17.4813 153.131L17.2702 152.46C15.1311 145.592 12.8819 138.761 10.5592 131.949C10.5959 131.949 10.6326 131.949 10.6694 131.949C10.9631 131.912 11.3212 131.811 11.615 131.59C12.1933 131.139 12.3861 130.496 12.3678 129.944C12.3678 129.365 12.0923 128.869 11.7986 128.519C11.5231 128.207 11.211 127.977 10.8713 127.784C11.1467 127.416 11.2569 127.011 11.2845 126.671C11.3212 126.267 11.2661 125.908 11.1743 125.586C10.8071 124.253 9.93491 123.343 9.00767 122.598C9.34735 122.286 9.59523 121.9 9.71458 121.477C9.85228 121.017 9.87065 120.511 9.71458 120.033C9.56769 119.528 9.20964 119.16 8.97095 118.939C7.97945 118.002 6.94204 117.091 5.78529 116.301C6.42793 117.551 7.1991 118.682 8.00699 119.785C8.21814 120.07 8.30077 120.245 8.32831 120.41C8.35585 120.585 8.32831 120.787 8.24568 120.971C8.08961 121.348 7.77748 121.569 7.32763 121.661C6.46465 121.854 5.40889 121.219 4.88559 120.217C4.35312 119.215 4.24295 117.873 4.79379 116.586C3.67376 117.468 3.19637 119.188 3.7013 120.705C3.93082 121.477 4.43575 122.166 5.10593 122.681C5.25282 122.792 5.41807 122.893 5.5925 122.975C5.50069 123.325 5.40889 123.674 5.32626 124.033C5.22528 124.649 5.03248 125.164 5.10593 125.936C5.13347 126.313 5.33544 126.791 5.62004 127.094C5.90464 127.407 6.21678 127.609 6.51056 127.784C6.75843 127.931 7.02467 128.041 7.30009 128.142C7.09811 128.767 7.12565 129.494 7.42861 130.147C7.8601 131.084 8.78734 131.774 9.83392 131.949C10.0451 131.976 10.2562 131.985 10.4857 131.976C12.2484 138.963 14.0937 145.914 16.04 152.846L16.2328 153.526C16.3154 153.802 16.4164 154.069 16.5633 154.317C16.8387 154.814 17.2426 155.246 17.72 155.567C18.1974 155.889 18.7483 156.091 19.3266 156.156C19.4735 156.174 19.6112 156.174 19.7581 156.183H26.4049L37.6051 156.091C45.069 155.99 52.5328 155.871 59.9966 155.659L65.5967 155.494L66.3036 155.466C66.579 155.448 66.8453 155.402 67.1115 155.328C67.6348 155.172 68.1214 154.896 68.507 154.519C69.2965 153.784 69.7096 152.662 69.5535 151.605C69.1404 149.702 68.6814 147.946 68.2499 146.107C67.8735 144.516 67.4787 142.926 67.0748 141.335C68.6998 141.804 70.4165 141.924 72.0323 141.602C70.1044 141.299 68.3142 140.719 66.68 139.864C65.8721 139.423 65.0918 138.945 64.3941 138.375L64.4216 138.329ZM6.69417 126.037C6.56564 125.917 6.48301 125.844 6.40957 125.642C6.27186 125.246 6.2535 124.566 6.18006 124.005C6.13415 123.702 6.08825 123.389 6.03317 123.086C6.55646 123.27 7.12565 123.343 7.68567 123.233C8.13552 123.141 8.58537 122.948 8.96177 122.635C8.98931 122.617 9.00767 122.589 9.02603 122.571C9.42998 123.702 9.91655 124.768 9.95327 125.752C9.95327 126.009 9.95327 126.239 9.89819 126.423C9.85229 126.616 9.76048 126.745 9.7054 126.782C9.65031 126.809 9.59523 126.846 9.41162 126.846C9.24637 126.855 8.98931 126.828 8.73225 126.782C8.22732 126.699 7.74075 126.543 7.26336 126.34C7.02467 126.248 6.83188 126.138 6.69417 126.028V126.037ZM10.1461 130.275C9.20046 130.11 8.31913 129.457 7.91518 128.271C8.08961 128.317 8.26405 128.381 8.43848 128.409C8.76898 128.464 9.09948 128.51 9.52178 128.473C9.92573 128.437 10.4674 128.271 10.8162 127.866C10.8162 127.866 10.8162 127.857 10.8254 127.848C11.0641 128.62 11.2936 129.347 11.1008 129.797C11.0182 130.055 10.853 130.238 10.752 130.266C10.6969 130.294 10.4398 130.321 10.1369 130.266L10.1461 130.275Z" fill="black"/>
<path d="M45.9305 130C46.2059 130.478 46.564 130.928 47.0873 131.259C47.6014 131.618 48.3725 131.682 48.9417 131.563C49.5293 131.452 49.9883 131.278 50.4565 131.121L51.8703 130.653L54.6796 129.641L57.4613 128.547C57.9112 128.354 58.3977 128.143 58.8109 127.986C59.2423 127.83 59.5912 127.738 59.9768 127.756C60.3716 127.775 60.8489 127.913 61.3447 128.014L62.8136 128.326C63.7959 128.51 64.7782 128.703 65.7881 128.814C64.8884 128.345 63.9703 127.95 63.0523 127.554L61.666 126.984C61.207 126.8 60.7388 126.598 60.1512 126.488C59.5453 126.359 58.8935 126.46 58.3794 126.616C57.8469 126.773 57.4062 126.938 56.9288 127.095L54.1196 128.106L51.3379 129.2L49.9608 129.779C49.5018 129.963 49.0335 130.193 48.6571 130.322C48.2624 130.45 47.9686 130.459 47.6106 130.322C47.2525 130.184 46.9037 129.899 46.6099 129.558C46.0223 128.887 45.6092 127.95 45.8479 126.957C45.242 127.821 45.4164 129.08 45.9489 130.018L45.9305 130Z" fill="black"/>
<path d="M7.99774 104.018C9.63188 103.779 10.6509 102.335 10.6326 100.975C10.6326 101.664 10.3021 102.344 9.77877 102.758C9.25548 103.172 8.57611 103.319 7.99774 103.199C6.80426 102.951 6.1708 101.894 6.18916 100.975C6.17998 100.055 6.80426 99.0071 7.99774 98.7496C8.57611 98.6301 9.25548 98.768 9.77877 99.1909C10.3021 99.6046 10.6326 100.285 10.6326 100.975C10.6601 99.6138 9.64106 98.1704 7.99774 97.9222C7.19903 97.8027 6.30851 98.0325 5.63833 98.6025C4.95897 99.1634 4.54584 100.064 4.54584 100.965C4.54584 101.866 4.95897 102.767 5.63833 103.328C6.30851 103.898 7.20821 104.128 7.99774 104.008V104.018Z" fill="black"/>
<path d="M12.8356 101.058C13.3129 101.425 13.928 101.545 14.4422 101.425C15.5071 101.168 16.0212 100.239 16.012 99.4487C16.012 99.8624 15.8009 100.267 15.4704 100.478C15.1399 100.699 14.7451 100.727 14.4422 100.607C14.1392 100.488 13.9372 100.267 13.8362 100.055C13.7261 99.8348 13.6985 99.6418 13.6985 99.4487C13.6985 99.2556 13.7352 99.0534 13.8362 98.8419C13.9372 98.6304 14.1392 98.4098 14.4422 98.2903C14.7451 98.1708 15.1399 98.1983 15.4704 98.419C15.7917 98.6305 16.012 99.035 16.012 99.4487C16.012 98.658 15.5071 97.7203 14.4422 97.4628C13.928 97.3433 13.3038 97.4628 12.8356 97.8306C12.3582 98.1983 12.0552 98.8143 12.0552 99.4395C12.0552 100.065 12.3582 100.69 12.8356 101.048V101.058Z" fill="black"/>
<defs>
<linearGradient id="paint0_linear_2637_17492" x1="0" y1="84.5" x2="160.01" y2="84.5" gradientUnits="userSpaceOnUse">
<stop stop-color="#EE882C"/>
<stop offset="0.16" stop-color="#EF8F28"/>
<stop offset="0.42" stop-color="#F2A51F"/>
<stop offset="0.73" stop-color="#F8C80F"/>
<stop offset="1" stop-color="#FFED00"/>
</linearGradient>
</defs>
</svg>
