<svg width="50" height="50" viewBox="0 0 50 50" fill="none" xmlns="http://www.w3.org/2000/svg">
<rect x="1.5" y="1.5" width="47" height="47" rx="23.5" stroke="black" stroke-width="3"/>
<path d="M25.0001 49.0226C38.0815 49.0226 48.6861 38.2673 48.6861 25.0001C48.6861 11.7328 38.0815 0.977539 25.0001 0.977539C11.9186 0.977539 1.31396 11.7328 1.31396 25.0001C1.31396 38.2673 11.9186 49.0226 25.0001 49.0226Z" fill="#76B82A"/>
<path d="M42.9745 9.05766C45.0487 11.4328 46.7883 14.1472 47.9927 17.0652C49.1971 20.051 49.9331 23.2404 50 26.5656C50 29.8908 49.3978 33.2159 48.0596 36.2696C46.7214 39.3233 44.6472 42.0377 42.1715 44.2093C39.629 46.3808 36.6849 47.9416 33.6071 48.8916C30.5292 49.8417 27.3176 50.181 24.1059 49.9095C17.7495 49.5024 11.5938 46.7879 7.04388 42.1056C4.76895 39.7983 2.89547 37.0161 1.6911 33.8945C0.486719 30.7729 -0.11547 27.4478 0.0183499 24.0548C0.15217 17.3366 3.16311 10.6184 8.11444 6.13967C10.5901 3.90028 13.5341 2.13592 16.6789 1.11801C19.8237 0.100109 23.1692 -0.239193 26.4477 0.167969C29.6594 0.57513 32.8042 1.66089 35.5475 3.15382C38.3577 4.71461 40.8334 6.68255 42.9076 9.05766H42.9745ZM42.7068 9.3291C40.6326 7.02185 38.0231 5.18963 35.2129 4.036C32.4027 2.88238 29.3249 2.40736 26.3808 2.47522C23.4368 2.54308 20.4928 3.22168 17.8164 4.30744C15.14 5.39321 12.6643 6.95399 10.5232 8.92194C8.38208 10.8899 6.70933 13.265 5.37114 15.8437C4.09985 18.4902 3.36384 21.3404 3.0962 24.2584C2.69474 30.0943 4.56822 36.2018 8.31517 40.8841C10.1886 43.1914 12.5974 45.2272 15.3407 46.5844C18.0171 47.9416 21.0949 48.7559 24.1059 48.8238C27.1168 48.8916 30.1947 48.2809 32.938 47.1273C35.6813 45.9058 38.157 44.2093 40.2312 42.1056C44.3796 37.9661 47.1229 32.4694 47.8589 26.4299C48.1934 23.444 48.0596 20.3225 47.1229 17.3366C46.253 14.3508 44.7141 11.5685 42.6399 9.26124L42.7068 9.3291Z" fill="black"/>
<mask id="path-4-outside-1_2946_28627" maskUnits="userSpaceOnUse" x="18" y="10" width="14" height="30" fill="black">
<rect fill="white" x="18" y="10" width="14" height="30"/>
<path d="M23.7819 36.248C23.2619 36.3 22.9499 36.144 22.7419 35.676C22.5859 35.26 22.6379 34.948 22.8979 34.532C23.2619 33.96 23.9379 34.012 24.6139 33.96L24.5099 33.7C24.3019 33.284 24.0939 32.14 24.0419 31.152C23.9379 29.332 23.6259 29.852 23.7299 28.708C23.7819 28.136 23.7819 27.044 23.7819 25.692C23.7819 25.276 23.7819 24.86 23.8859 24.496C24.0419 23.716 24.0939 22.52 24.2499 21.48C24.3019 21.116 24.3019 20.648 24.3019 20.492L24.2499 20.232L23.6779 21.116C23.5739 21.272 23.2619 21.636 23.0539 21.844C22.1699 22.728 21.1819 22.884 21.0259 22.156C20.9219 21.74 21.3899 20.492 21.8579 20.024L22.3779 19.4L23.3139 18.152C23.9379 17.32 24.5619 16.28 24.5619 16.02C24.5619 15.656 24.8219 14.876 25.0299 14.564C25.1339 14.356 25.3419 14.2 25.4979 14.096C25.8619 13.888 26.4859 13.888 26.8499 14.044C27.3699 14.252 27.5779 14.46 27.9939 15.344C28.4099 16.228 28.4619 16.54 28.5659 17.58C28.6179 18.048 28.7219 18.412 28.8259 18.62C29.0339 19.14 29.0339 19.764 28.8259 20.284C28.6699 20.648 28.6699 20.752 28.7219 21.428C28.7219 21.948 28.7219 22.26 28.6699 22.468C28.6179 22.624 28.5659 23.144 28.5659 23.82C28.5659 24.652 28.5139 25.016 28.4099 25.328C28.3059 25.692 28.3059 25.848 28.3579 26.16C28.4619 26.68 28.4619 27.096 28.3059 27.564C28.2019 27.824 28.1499 28.136 28.1499 28.448L28.0979 29.384C27.9939 29.748 27.9939 29.956 28.0979 30.372C28.2539 31.048 28.2539 31.568 28.0979 31.984C28.0459 32.14 27.9419 32.556 27.8899 32.868C27.8379 33.18 27.7339 33.596 27.6299 33.804C27.4219 34.168 27.4219 34.22 28.0459 34.376C28.5659 34.532 28.7739 34.74 28.7739 35.156C28.7739 35.884 28.0979 36.092 25.4459 36.196L23.7819 36.248Z"/>
</mask>
<path d="M23.7819 36.248C23.2619 36.3 22.9499 36.144 22.7419 35.676C22.5859 35.26 22.6379 34.948 22.8979 34.532C23.2619 33.96 23.9379 34.012 24.6139 33.96L24.5099 33.7C24.3019 33.284 24.0939 32.14 24.0419 31.152C23.9379 29.332 23.6259 29.852 23.7299 28.708C23.7819 28.136 23.7819 27.044 23.7819 25.692C23.7819 25.276 23.7819 24.86 23.8859 24.496C24.0419 23.716 24.0939 22.52 24.2499 21.48C24.3019 21.116 24.3019 20.648 24.3019 20.492L24.2499 20.232L23.6779 21.116C23.5739 21.272 23.2619 21.636 23.0539 21.844C22.1699 22.728 21.1819 22.884 21.0259 22.156C20.9219 21.74 21.3899 20.492 21.8579 20.024L22.3779 19.4L23.3139 18.152C23.9379 17.32 24.5619 16.28 24.5619 16.02C24.5619 15.656 24.8219 14.876 25.0299 14.564C25.1339 14.356 25.3419 14.2 25.4979 14.096C25.8619 13.888 26.4859 13.888 26.8499 14.044C27.3699 14.252 27.5779 14.46 27.9939 15.344C28.4099 16.228 28.4619 16.54 28.5659 17.58C28.6179 18.048 28.7219 18.412 28.8259 18.62C29.0339 19.14 29.0339 19.764 28.8259 20.284C28.6699 20.648 28.6699 20.752 28.7219 21.428C28.7219 21.948 28.7219 22.26 28.6699 22.468C28.6179 22.624 28.5659 23.144 28.5659 23.82C28.5659 24.652 28.5139 25.016 28.4099 25.328C28.3059 25.692 28.3059 25.848 28.3579 26.16C28.4619 26.68 28.4619 27.096 28.3059 27.564C28.2019 27.824 28.1499 28.136 28.1499 28.448L28.0979 29.384C27.9939 29.748 27.9939 29.956 28.0979 30.372C28.2539 31.048 28.2539 31.568 28.0979 31.984C28.0459 32.14 27.9419 32.556 27.8899 32.868C27.8379 33.18 27.7339 33.596 27.6299 33.804C27.4219 34.168 27.4219 34.22 28.0459 34.376C28.5659 34.532 28.7739 34.74 28.7739 35.156C28.7739 35.884 28.0979 36.092 25.4459 36.196L23.7819 36.248Z" fill="white"/>
<path d="M23.7819 36.248L23.6882 33.2495L23.5855 33.2527L23.4833 33.2629L23.7819 36.248ZM22.7419 35.676L19.9329 36.7294L19.9642 36.8129L20.0004 36.8944L22.7419 35.676ZM22.8979 34.532L20.3669 32.9214L20.3603 32.9317L20.3539 32.942L22.8979 34.532ZM24.6139 33.96L24.8439 36.9512L28.9161 36.6379L27.3993 32.8458L24.6139 33.96ZM24.5099 33.7L27.2953 32.5858L27.2489 32.47L27.1931 32.3584L24.5099 33.7ZM24.0419 31.152L27.0377 30.9943L27.037 30.9809L24.0419 31.152ZM23.7299 28.708L26.7175 28.9796L23.7299 28.708ZM23.8859 24.496L26.7704 25.3202L26.8038 25.2034L26.8276 25.0843L23.8859 24.496ZM24.2499 21.48L27.2167 21.925L27.2182 21.9146L27.2197 21.9043L24.2499 21.48ZM24.3019 20.492H27.3019V20.1949L27.2436 19.9036L24.3019 20.492ZM24.2499 20.232L27.1916 19.6436L25.7432 12.4018L21.7311 18.6022L24.2499 20.232ZM23.6779 21.116L26.174 22.7801L26.1854 22.763L26.1966 22.7458L23.6779 21.116ZM23.0539 21.844L20.9325 19.7227L20.9325 19.7227L23.0539 21.844ZM21.0259 22.156L23.9593 21.5274L23.9486 21.4777L23.9363 21.4284L21.0259 22.156ZM21.8579 20.024L23.9792 22.1453L24.0754 22.0491L24.1625 21.9446L21.8579 20.024ZM22.3779 19.4L24.6825 21.3206L24.7317 21.2615L24.7779 21.2L22.3779 19.4ZM23.3139 18.152L25.7139 19.952V19.952L23.3139 18.152ZM25.0299 14.564L27.526 16.2281L27.6296 16.0727L27.7131 15.9056L25.0299 14.564ZM25.4979 14.096L24.0094 11.4913L23.9197 11.5425L23.8338 11.5999L25.4979 14.096ZM26.8499 14.044L25.6681 16.8014L25.7017 16.8158L25.7357 16.8294L26.8499 14.044ZM28.5659 17.58L25.5807 17.8785L25.5824 17.8949L25.5842 17.9113L28.5659 17.58ZM28.8259 18.62L31.6113 17.5058L31.5649 17.39L31.5091 17.2783L28.8259 18.62ZM28.8259 20.284L31.5833 21.4658L31.5977 21.4321L31.6113 21.3982L28.8259 20.284ZM28.7219 21.428H31.7219V21.3128L31.713 21.1979L28.7219 21.428ZM28.6699 22.468L31.5159 23.4167L31.5523 23.3074L31.5803 23.1956L28.6699 22.468ZM28.4099 25.328L25.5638 24.3793L25.5432 24.4412L25.5253 24.5038L28.4099 25.328ZM28.3579 26.16L25.3987 26.6532L25.4066 26.7009L25.4161 26.7484L28.3579 26.16ZM28.3059 27.564L31.0913 28.6782L31.124 28.5963L31.1519 28.5127L28.3059 27.564ZM28.1499 28.448L31.1452 28.6144L31.1499 28.5313V28.448H28.1499ZM28.0979 29.384L30.9824 30.2082L31.0746 29.8855L31.0932 29.5504L28.0979 29.384ZM28.0979 30.372L31.021 29.6974L31.0149 29.6708L31.0083 29.6444L28.0979 30.372ZM28.0979 31.984L25.2889 30.9306L25.2694 30.9826L25.2518 31.0353L28.0979 31.984ZM27.6299 33.804L30.2346 35.2924L30.2759 35.2201L30.3131 35.1456L27.6299 33.804ZM28.0459 34.376L28.9079 31.5025L28.8411 31.4825L28.7735 31.4656L28.0459 34.376ZM25.4459 36.196L25.5396 39.1945L25.5515 39.1942L25.5634 39.1937L25.4459 36.196ZM23.4833 33.2629C23.5466 33.2566 24.0118 33.2165 24.5672 33.5156C25.1583 33.8339 25.411 34.2949 25.4833 34.4576L20.0004 36.8944C20.2807 37.5251 20.7934 38.2981 21.7226 38.7984C22.6159 39.2795 23.4972 39.2914 24.0804 39.2331L23.4833 33.2629ZM25.5508 34.6226C25.6057 34.769 25.6947 35.1016 25.6337 35.5283C25.6064 35.7196 25.5567 35.8714 25.5139 35.9748C25.4932 36.025 25.4745 36.0625 25.462 36.0862C25.4557 36.0982 25.4506 36.1071 25.4472 36.113C25.4439 36.1188 25.4419 36.1219 25.4419 36.122L20.3539 32.942C20.1025 33.3442 19.8011 33.9304 19.694 34.6797C19.5811 35.4704 19.722 36.167 19.9329 36.7294L25.5508 34.6226ZM25.4288 36.1426C25.2697 36.3927 25.0465 36.6112 24.7875 36.7693C24.5482 36.9154 24.3495 36.9666 24.2761 36.9825C24.2126 36.9964 24.2014 36.9919 24.3192 36.9837C24.3758 36.9798 24.4339 36.9766 24.5278 36.9714C24.6123 36.9667 24.7248 36.9603 24.8439 36.9512L24.3838 30.9688C24.133 30.9881 24.2887 30.9714 23.9043 30.9981C23.6938 31.0126 23.3642 31.0406 23.0016 31.1195C22.1976 31.2942 21.1102 31.7534 20.3669 32.9214L25.4288 36.1426ZM27.3993 32.8458L27.2953 32.5858L21.7244 34.8142L21.8284 35.0742L27.3993 32.8458ZM27.1931 32.3584C27.271 32.5141 27.2802 32.584 27.25 32.4738C27.2285 32.3953 27.1993 32.2694 27.1683 32.1002C27.1058 31.7588 27.0566 31.3537 27.0377 30.9943L21.046 31.3097C21.0791 31.9383 21.1599 32.5992 21.2664 33.1808C21.3538 33.658 21.5155 34.4195 21.8266 35.0416L27.1931 32.3584ZM27.037 30.9809C27.0059 30.4365 26.9553 29.9943 26.8831 29.6097C26.8057 29.1975 26.7145 28.9144 26.6615 28.751C26.6211 28.6262 26.6784 28.7833 26.7003 28.972C26.7176 29.1224 26.7002 29.1705 26.7175 28.9796L20.7422 28.4364C20.7075 28.8175 20.6901 29.2295 20.74 29.6611C20.7943 30.1309 20.9167 30.4863 20.9542 30.602C20.9792 30.6791 20.979 30.6787 20.9861 30.7167C20.9984 30.7822 21.0259 30.9575 21.0467 31.3231L27.037 30.9809ZM26.7175 28.9796C26.7853 28.234 26.7819 26.9568 26.7819 25.692H20.7819C20.7819 27.1312 20.7784 28.038 20.7422 28.4364L26.7175 28.9796ZM26.7819 25.692C26.7819 25.5839 26.7819 25.5036 26.7831 25.4281C26.7843 25.3547 26.7863 25.3041 26.7886 25.2676C26.7939 25.1861 26.7984 25.2223 26.7704 25.3202L21.0013 23.6718C20.76 24.5164 20.7819 25.3793 20.7819 25.692H26.7819ZM26.8276 25.0843C26.9399 24.5226 27.0043 23.8766 27.0533 23.3804C27.1086 22.8203 27.1526 22.3519 27.2167 21.925L21.2831 21.035C21.1911 21.6481 21.1311 22.2977 21.0824 22.7906C21.0274 23.3474 20.9878 23.6894 20.9441 23.9077L26.8276 25.0843ZM27.2197 21.9043C27.3068 21.2945 27.3019 20.6136 27.3019 20.492H21.3019C21.3019 20.565 21.3017 20.6758 21.2973 20.8009C21.2923 20.9399 21.2841 21.0269 21.28 21.0557L27.2197 21.9043ZM27.2436 19.9036L27.1916 19.6436L21.3081 20.8203L21.3601 21.0803L27.2436 19.9036ZM21.7311 18.6022L21.1591 19.4862L26.1966 22.7458L26.7686 21.8618L21.7311 18.6022ZM21.1817 19.4519C21.208 19.4125 21.2254 19.3894 21.2262 19.3882C21.229 19.3845 21.2263 19.3882 21.2169 19.4001C21.1975 19.4244 21.1667 19.4619 21.1271 19.5081C21.0882 19.5535 21.0474 19.5997 21.0096 19.641C20.9703 19.6841 20.9439 19.7113 20.9325 19.7227L25.1752 23.9653C25.4537 23.6868 25.917 23.1657 26.174 22.7801L21.1817 19.4519ZM20.9325 19.7227C20.7564 19.8988 20.8383 19.7127 21.3068 19.64C21.5641 19.6001 22.1442 19.572 22.7815 19.939C23.4941 20.3495 23.8473 21.0047 23.9593 21.5274L18.0925 22.7846C18.2825 23.6713 18.8176 24.58 19.787 25.1383C20.681 25.6532 21.5926 25.6674 22.2269 25.569C23.4494 25.3793 24.4673 24.6732 25.1752 23.9653L20.9325 19.7227ZM23.9363 21.4284C23.9819 21.6107 23.9991 21.7625 24.0061 21.8663C24.0133 21.9725 24.0117 22.0574 24.0088 22.1146C24.0033 22.2244 23.9901 22.2908 23.9879 22.3015C23.9839 22.3217 23.9922 22.278 24.0274 22.1864C24.0607 22.0998 24.0967 22.0262 24.1212 21.9833C24.1325 21.9635 24.1326 21.9656 24.1184 21.9854C24.1066 22.0018 24.0619 22.0626 23.9792 22.1453L19.7365 17.9027C19.0619 18.5774 18.6445 19.4678 18.4273 20.0326C18.3 20.3635 18.1816 20.739 18.1044 21.1248C18.0499 21.3973 17.9203 22.1032 18.1154 22.8836L23.9363 21.4284ZM24.1625 21.9446L24.6825 21.3206L20.0732 17.4794L19.5532 18.1034L24.1625 21.9446ZM24.7779 21.2L25.7139 19.952L20.9139 16.352L19.9779 17.6L24.7779 21.2ZM25.7139 19.952C26.0887 19.4522 26.4626 18.8925 26.7555 18.3963C26.8998 18.1518 27.0507 17.8784 27.1758 17.6087C27.2376 17.4757 27.3139 17.2991 27.3804 17.0992C27.4267 16.9602 27.5619 16.5454 27.5619 16.02H21.5619C21.5619 15.7565 21.5989 15.554 21.6209 15.4508C21.6453 15.3368 21.6717 15.2517 21.6873 15.205C21.7172 15.115 21.7399 15.0689 21.7334 15.0829C21.7221 15.1073 21.6779 15.1947 21.5882 15.3467C21.4131 15.6435 21.163 16.0198 20.9139 16.352L25.7139 19.952ZM27.5619 16.02C27.5619 16.0849 27.559 16.1372 27.5562 16.1739C27.5534 16.2113 27.55 16.2402 27.5475 16.2594C27.5426 16.2962 27.5386 16.314 27.5394 16.3101C27.5415 16.3002 27.5512 16.2606 27.5705 16.2013C27.5894 16.143 27.6076 16.0969 27.6179 16.0734C27.6226 16.0627 27.6208 16.0678 27.6111 16.0864C27.6032 16.1015 27.5756 16.1537 27.526 16.2281L22.5337 12.8999C22.2025 13.3968 21.9848 13.9765 21.8652 14.3437C21.7546 14.6836 21.5619 15.3431 21.5619 16.02H27.5619ZM27.7131 15.9056C27.5492 16.2335 27.3559 16.4247 27.2792 16.4954C27.196 16.5722 27.1389 16.6075 27.162 16.5921L23.8338 11.5999C23.6621 11.7143 22.8365 12.2426 22.3466 13.2224L27.7131 15.9056ZM26.9863 16.7007C26.7679 16.8255 26.5877 16.8777 26.4906 16.9003C26.3867 16.9244 26.3072 16.931 26.2528 16.9325C26.1975 16.9339 26.1337 16.931 26.0566 16.9185C25.9866 16.9071 25.8488 16.8789 25.6681 16.8014L28.0316 11.2866C27.3508 10.9948 26.6494 10.9199 26.0949 10.9345C25.5519 10.9488 24.7664 11.0587 24.0094 11.4913L26.9863 16.7007ZM25.7357 16.8294C25.7776 16.8462 25.7034 16.8202 25.5883 16.7475C25.4546 16.6632 25.3292 16.5569 25.2272 16.4431C25.1382 16.3439 25.1049 16.2807 25.124 16.3132C25.1452 16.3495 25.1928 16.4374 25.2794 16.6214L30.7083 14.0666C30.4899 13.6025 30.1797 12.979 29.6946 12.4379C29.1013 11.7761 28.4544 11.4547 27.964 11.2586L25.7357 16.8294ZM25.2794 16.6214C25.4516 16.9874 25.4738 17.0798 25.483 17.1171C25.5032 17.1998 25.5262 17.3333 25.5807 17.8785L31.551 17.2815C31.5015 16.7867 31.4465 16.2442 31.3108 15.6899C31.1639 15.0902 30.9521 14.5846 30.7083 14.0666L25.2794 16.6214ZM25.5842 17.9113C25.6589 18.5832 25.8252 19.3269 26.1426 19.9616L31.5091 17.2783C31.5293 17.3187 31.5439 17.3515 31.5538 17.3751C31.5638 17.399 31.5705 17.4171 31.5746 17.4286C31.5825 17.4507 31.5835 17.4567 31.5803 17.4446C31.5774 17.4333 31.572 17.4104 31.5658 17.3761C31.5596 17.342 31.5531 17.2994 31.5475 17.2487L25.5842 17.9113ZM26.0404 19.7342C25.9933 19.6163 25.9819 19.5215 25.9819 19.452C25.9819 19.3825 25.9933 19.2877 26.0404 19.1698L31.6113 21.3982C32.1054 20.1629 32.1054 18.7411 31.6113 17.5058L26.0404 19.7342ZM26.0684 19.1022C25.9417 19.398 25.7586 19.8612 25.7062 20.4899C25.6688 20.9385 25.7113 21.4054 25.7307 21.6581L31.713 21.1979C31.7066 21.1147 31.7018 21.0497 31.698 20.9948C31.6942 20.9398 31.6923 20.9051 31.6913 20.883C31.6891 20.8322 31.694 20.8863 31.6855 20.9881C31.6809 21.0438 31.6727 21.1089 31.6593 21.1806C31.6458 21.2523 31.6297 21.3167 31.6135 21.3713C31.5846 21.4692 31.5594 21.5214 31.5833 21.4658L26.0684 19.1022ZM25.7219 21.428C25.7219 21.5611 25.7218 21.6658 25.7211 21.7575C25.7204 21.8493 25.7191 21.9091 25.7176 21.9497C25.716 21.9914 25.7149 21.9906 25.7178 21.9636C25.7207 21.937 25.7307 21.8553 25.7594 21.7404L31.5803 23.1956C31.7458 22.5335 31.7219 21.7394 31.7219 21.428H25.7219ZM25.8238 21.5193C25.6693 21.9828 25.6262 22.4907 25.6087 22.6999C25.5814 23.0272 25.5659 23.41 25.5659 23.82H31.5659C31.5659 23.554 31.5763 23.3388 31.588 23.1981C31.594 23.1266 31.5986 23.094 31.5985 23.095C31.5984 23.0959 31.5949 23.1194 31.5864 23.1597C31.5799 23.1906 31.5591 23.2871 31.5159 23.4167L25.8238 21.5193ZM25.5659 23.82C25.5659 24.1869 25.5537 24.3615 25.5452 24.4377C25.5417 24.4691 25.5404 24.4695 25.5447 24.4492C25.5496 24.4262 25.5567 24.4006 25.5638 24.3793L31.2559 26.2767C31.5162 25.4957 31.5659 24.7395 31.5659 23.82H25.5659ZM25.5253 24.5038C25.4454 24.7836 25.353 25.1595 25.3295 25.6058C25.3058 26.057 25.3612 26.4283 25.3987 26.6532L31.317 25.6668C31.3025 25.5797 31.332 25.717 31.3212 25.9212C31.3107 26.1205 31.2704 26.2364 31.2944 26.1522L25.5253 24.5038ZM25.4161 26.7484C25.4384 26.8599 25.4288 26.8586 25.4306 26.7958C25.4315 26.7639 25.435 26.727 25.4418 26.6893C25.4485 26.652 25.4562 26.6262 25.4598 26.6153L31.1519 28.5127C31.5142 27.4258 31.477 26.4586 31.2996 25.5716L25.4161 26.7484ZM25.5204 26.4498C25.2486 27.1293 25.1499 27.8314 25.1499 28.448H31.1499C31.1499 28.4558 31.1494 28.4721 31.1445 28.5005C31.1399 28.527 31.1271 28.5887 31.0913 28.6782L25.5204 26.4498ZM25.1545 28.2816L25.1025 29.2176L31.0932 29.5504L31.1452 28.6144L25.1545 28.2816ZM25.2133 28.5598C25.1185 28.8916 25.0199 29.3294 25.0199 29.8585C25.0199 30.3643 25.1108 30.7931 25.1874 31.0996L31.0083 29.6444C30.9809 29.5349 31.0199 29.6517 31.0199 29.8585C31.0199 30.0886 30.9732 30.2404 30.9824 30.2082L25.2133 28.5598ZM25.1747 31.0466C25.195 31.1345 25.2054 31.1967 25.2105 31.2365C25.2157 31.2763 25.2149 31.2878 25.2149 31.2755C25.2149 31.2473 25.2196 31.1154 25.2889 30.9306L30.9068 33.0374C31.3561 31.8394 31.2409 30.6503 31.021 29.6974L25.1747 31.0466ZM25.2518 31.0353C25.1407 31.3685 25.003 31.9411 24.9307 32.3748L30.849 33.3612C30.8598 33.2969 30.8822 33.1879 30.911 33.0676C30.9245 33.0114 30.9367 32.9641 30.9458 32.9304C30.9574 32.8877 30.9568 32.8941 30.9439 32.9327L25.2518 31.0353ZM24.9307 32.3748C24.9263 32.4013 24.9194 32.438 24.9101 32.4805C24.901 32.5228 24.8913 32.5624 24.8825 32.5951C24.8782 32.611 24.8747 32.6231 24.8722 32.6313C24.8697 32.6397 24.869 32.6414 24.8706 32.6369C24.872 32.6329 24.8774 32.6172 24.8876 32.592C24.8972 32.5683 24.9164 32.5227 24.9466 32.4624L30.3131 35.1456C30.6279 34.516 30.7879 33.7281 30.849 33.3612L24.9307 32.3748ZM25.0251 32.3156C25.0061 32.3488 24.804 32.6842 24.6733 33.0763C24.5137 33.555 24.2715 34.6947 25.0297 35.8321C25.6086 36.7004 26.4432 37.0073 26.6114 37.072C26.8865 37.1778 27.166 37.2484 27.3183 37.2864L28.7735 31.4656C28.6137 31.4256 28.6592 31.4312 28.7653 31.472C28.8269 31.4957 28.993 31.5624 29.1958 31.6915C29.4012 31.8221 29.7357 32.0744 30.022 32.5039C30.7283 33.5633 30.486 34.612 30.3654 34.9737C30.2737 35.2488 30.1496 35.4412 30.2346 35.2924L25.0251 32.3156ZM27.1838 37.2495C27.2776 37.2776 26.8523 37.1807 26.427 36.7317C26.1893 36.4808 26.0072 36.1791 25.8959 35.855C25.7909 35.5494 25.7739 35.2972 25.7739 35.156H31.7739C31.7739 34.4013 31.5621 33.428 30.7827 32.6053C30.1234 31.9093 29.3341 31.6304 28.9079 31.5025L27.1838 37.2495ZM25.7739 35.156C25.7739 34.8465 25.8597 34.2352 26.3395 33.6698C26.7538 33.1817 27.1961 33.0507 27.2117 33.0459C27.2406 33.0369 27.1355 33.0704 26.7735 33.1082C26.4323 33.1438 25.9675 33.1732 25.3283 33.1983L25.5634 39.1937C26.8157 39.1446 28.0531 39.0683 28.9971 38.7741C29.5131 38.6133 30.2902 38.2873 30.9141 37.5522C31.6036 36.7398 31.7739 35.8295 31.7739 35.156H25.7739ZM25.3522 33.1975L23.6882 33.2495L23.8756 39.2465L25.5396 39.1945L25.3522 33.1975Z" fill="black" mask="url(#path-4-outside-1_2946_28627)"/>
</svg>
