<svg width="50" height="50" viewBox="0 0 50 50" fill="none" xmlns="http://www.w3.org/2000/svg">
<rect x="1.5" y="1.5" width="47" height="47" rx="23.5" stroke="black" stroke-width="3"/>
<path d="M25.0001 49.0226C38.0815 49.0226 48.6861 38.2673 48.6861 25.0001C48.6861 11.7328 38.0815 0.977539 25.0001 0.977539C11.9186 0.977539 1.31396 11.7328 1.31396 25.0001C1.31396 38.2673 11.9186 49.0226 25.0001 49.0226Z" fill="#76B82A"/>
<path d="M42.9745 9.05766C45.0487 11.4328 46.7883 14.1472 47.9927 17.0652C49.1971 20.051 49.9331 23.2404 50 26.5656C50 29.8908 49.3978 33.2159 48.0596 36.2696C46.7214 39.3233 44.6472 42.0377 42.1715 44.2093C39.629 46.3808 36.6849 47.9416 33.6071 48.8916C30.5292 49.8417 27.3176 50.181 24.1059 49.9095C17.7495 49.5024 11.5938 46.7879 7.04388 42.1056C4.76895 39.7983 2.89547 37.0161 1.6911 33.8945C0.486719 30.7729 -0.11547 27.4478 0.0183499 24.0548C0.15217 17.3366 3.16311 10.6184 8.11444 6.13967C10.5901 3.90028 13.5341 2.13592 16.6789 1.11801C19.8237 0.100109 23.1692 -0.239193 26.4477 0.167969C29.6594 0.57513 32.8042 1.66089 35.5475 3.15382C38.3577 4.71461 40.8334 6.68255 42.9076 9.05766H42.9745ZM42.7068 9.3291C40.6326 7.02185 38.0231 5.18963 35.2129 4.036C32.4027 2.88238 29.3249 2.40736 26.3808 2.47522C23.4368 2.54308 20.4928 3.22168 17.8164 4.30744C15.14 5.39321 12.6643 6.95399 10.5232 8.92194C8.38208 10.8899 6.70933 13.265 5.37114 15.8437C4.09985 18.4902 3.36384 21.3404 3.0962 24.2584C2.69474 30.0943 4.56822 36.2018 8.31517 40.8841C10.1886 43.1914 12.5974 45.2272 15.3407 46.5844C18.0171 47.9416 21.0949 48.7559 24.1059 48.8238C27.1168 48.8916 30.1947 48.2809 32.938 47.1273C35.6813 45.9058 38.157 44.2093 40.2312 42.1056C44.3796 37.9661 47.1229 32.4694 47.8589 26.4299C48.1934 23.444 48.0596 20.3225 47.1229 17.3366C46.253 14.3508 44.7141 11.5685 42.6399 9.26124L42.7068 9.3291Z" fill="black"/>
<mask id="path-4-outside-1_2946_28641" maskUnits="userSpaceOnUse" x="16" y="10" width="18" height="30" fill="black">
<rect fill="white" x="16" y="10" width="18" height="30"/>
<path d="M27.4379 36.456C26.5539 36.508 26.1379 36.404 25.4619 36.04C25.0459 35.78 23.6419 35.312 23.1739 35.26C22.6019 35.208 22.1339 35.364 21.6139 35.728C20.5739 36.508 19.4299 36.04 19.2739 34.688C19.2739 34.324 19.2739 34.22 19.4819 33.752C19.6379 33.44 19.7419 33.076 19.7939 32.764C19.7939 32.452 19.9499 32.036 20.0019 31.776L20.4179 30.684C20.5739 30.164 20.7299 29.956 21.0939 29.488C21.3539 29.176 21.6659 28.604 21.9259 28.084C22.2899 27.356 22.4979 27.044 22.8619 26.68C23.3819 26.108 23.7979 25.38 24.0059 24.808C24.0579 24.6 24.2139 24.288 24.3179 24.08C25.2019 22.728 25.7219 21.688 25.7739 21.168C25.7739 20.96 25.9299 20.44 26.0859 20.024C26.3459 19.244 26.3979 18.62 26.1899 17.58C26.0859 16.904 25.9819 16.696 25.7219 16.748L25.2019 16.852C24.9419 16.904 24.7339 17.008 24.6819 17.112L24.2139 17.632C23.7979 18.1 23.7459 18.308 23.7979 19.556C23.7979 20.44 23.7979 20.492 24.0579 20.96C24.3699 21.584 24.3699 21.74 24.1099 22.052C23.7459 22.416 23.1739 22.312 22.7579 21.792C22.4459 21.428 22.0819 20.7 21.9779 20.18C21.8739 19.504 21.8739 18.308 21.9779 17.892C22.2899 16.904 22.3419 16.748 22.6539 16.384L23.1219 15.656C23.2779 15.292 23.4339 15.136 23.8499 14.876L24.7339 14.304C25.2019 13.992 25.4619 13.836 25.6699 13.784L26.1899 13.732H26.9179C27.4379 13.732 27.5939 13.784 28.1659 14.044C28.8939 14.408 29.3619 14.824 29.5699 15.292C29.8299 15.76 30.1419 16.696 30.1419 16.956C30.1419 17.112 30.1939 17.476 30.2979 17.788C30.6619 18.932 30.2979 18.776 30.1419 20.388C30.0379 21.22 29.7259 22.364 29.5179 22.78C29.4659 22.936 29.3099 23.196 29.2059 23.3C29.0499 23.456 28.8419 23.872 28.6859 24.236C28.5819 24.6 28.3739 25.016 28.2179 25.172C28.1139 25.328 27.9579 25.692 27.8019 25.952C27.6979 26.212 27.4899 26.524 27.3859 26.68C27.1779 26.992 27.0739 27.148 26.9699 27.668C26.9179 27.876 26.7099 28.188 26.4499 28.5C26.2419 28.812 25.8779 29.28 25.7219 29.592C25.5659 29.956 25.3579 30.268 25.3059 30.424C25.2019 30.528 24.9939 30.892 24.8379 31.204C24.6819 31.516 24.3699 31.984 24.1619 32.244C23.7459 32.816 23.6939 32.972 23.9539 32.972C24.0579 32.972 24.3179 33.076 24.5779 33.18C25.3579 33.596 26.3979 33.96 27.3339 34.116C28.0099 34.22 27.9579 34.116 28.8419 33.908C29.0499 33.804 29.3099 33.492 29.2579 33.18C29.2579 32.608 29.1539 32.348 28.7379 32.088C28.4259 31.828 28.3739 31.776 28.3739 31.568C28.3739 31.1 28.9979 30.892 29.5699 31.152C29.9859 31.36 30.1939 31.62 30.5059 32.296C30.7139 32.764 30.7139 32.92 30.7139 33.44C30.7139 34.324 30.5579 34.74 30.0379 35.26C29.8299 35.468 29.5179 35.728 29.3619 35.78L28.9459 35.988C28.2179 36.456 28.2699 36.404 27.4379 36.456Z"/>
</mask>
<path d="M27.4379 36.456C26.5539 36.508 26.1379 36.404 25.4619 36.04C25.0459 35.78 23.6419 35.312 23.1739 35.26C22.6019 35.208 22.1339 35.364 21.6139 35.728C20.5739 36.508 19.4299 36.04 19.2739 34.688C19.2739 34.324 19.2739 34.22 19.4819 33.752C19.6379 33.44 19.7419 33.076 19.7939 32.764C19.7939 32.452 19.9499 32.036 20.0019 31.776L20.4179 30.684C20.5739 30.164 20.7299 29.956 21.0939 29.488C21.3539 29.176 21.6659 28.604 21.9259 28.084C22.2899 27.356 22.4979 27.044 22.8619 26.68C23.3819 26.108 23.7979 25.38 24.0059 24.808C24.0579 24.6 24.2139 24.288 24.3179 24.08C25.2019 22.728 25.7219 21.688 25.7739 21.168C25.7739 20.96 25.9299 20.44 26.0859 20.024C26.3459 19.244 26.3979 18.62 26.1899 17.58C26.0859 16.904 25.9819 16.696 25.7219 16.748L25.2019 16.852C24.9419 16.904 24.7339 17.008 24.6819 17.112L24.2139 17.632C23.7979 18.1 23.7459 18.308 23.7979 19.556C23.7979 20.44 23.7979 20.492 24.0579 20.96C24.3699 21.584 24.3699 21.74 24.1099 22.052C23.7459 22.416 23.1739 22.312 22.7579 21.792C22.4459 21.428 22.0819 20.7 21.9779 20.18C21.8739 19.504 21.8739 18.308 21.9779 17.892C22.2899 16.904 22.3419 16.748 22.6539 16.384L23.1219 15.656C23.2779 15.292 23.4339 15.136 23.8499 14.876L24.7339 14.304C25.2019 13.992 25.4619 13.836 25.6699 13.784L26.1899 13.732H26.9179C27.4379 13.732 27.5939 13.784 28.1659 14.044C28.8939 14.408 29.3619 14.824 29.5699 15.292C29.8299 15.76 30.1419 16.696 30.1419 16.956C30.1419 17.112 30.1939 17.476 30.2979 17.788C30.6619 18.932 30.2979 18.776 30.1419 20.388C30.0379 21.22 29.7259 22.364 29.5179 22.78C29.4659 22.936 29.3099 23.196 29.2059 23.3C29.0499 23.456 28.8419 23.872 28.6859 24.236C28.5819 24.6 28.3739 25.016 28.2179 25.172C28.1139 25.328 27.9579 25.692 27.8019 25.952C27.6979 26.212 27.4899 26.524 27.3859 26.68C27.1779 26.992 27.0739 27.148 26.9699 27.668C26.9179 27.876 26.7099 28.188 26.4499 28.5C26.2419 28.812 25.8779 29.28 25.7219 29.592C25.5659 29.956 25.3579 30.268 25.3059 30.424C25.2019 30.528 24.9939 30.892 24.8379 31.204C24.6819 31.516 24.3699 31.984 24.1619 32.244C23.7459 32.816 23.6939 32.972 23.9539 32.972C24.0579 32.972 24.3179 33.076 24.5779 33.18C25.3579 33.596 26.3979 33.96 27.3339 34.116C28.0099 34.22 27.9579 34.116 28.8419 33.908C29.0499 33.804 29.3099 33.492 29.2579 33.18C29.2579 32.608 29.1539 32.348 28.7379 32.088C28.4259 31.828 28.3739 31.776 28.3739 31.568C28.3739 31.1 28.9979 30.892 29.5699 31.152C29.9859 31.36 30.1939 31.62 30.5059 32.296C30.7139 32.764 30.7139 32.92 30.7139 33.44C30.7139 34.324 30.5579 34.74 30.0379 35.26C29.8299 35.468 29.5179 35.728 29.3619 35.78L28.9459 35.988C28.2179 36.456 28.2699 36.404 27.4379 36.456Z" fill="white"/>
<path d="M27.4379 36.456L27.6141 39.4508L27.625 39.4502L27.4379 36.456ZM25.4619 36.04L23.8719 38.584L23.9542 38.6354L24.0396 38.6814L25.4619 36.04ZM23.1739 35.26L23.5052 32.2783L23.4754 32.275L23.4455 32.2723L23.1739 35.26ZM21.6139 35.728L19.8935 33.2703L19.8532 33.2985L19.8139 33.328L21.6139 35.728ZM19.2739 34.688H16.2739V34.8605L16.2937 35.0319L19.2739 34.688ZM19.4819 33.752L16.7986 32.4104L16.7681 32.4713L16.7405 32.5336L19.4819 33.752ZM19.7939 32.764L22.7531 33.2572L22.7939 33.0123V32.764H19.7939ZM20.0019 31.776L17.1984 30.708L17.1093 30.9421L17.0602 31.1877L20.0019 31.776ZM20.4179 30.684L23.2214 31.752L23.2601 31.6503L23.2914 31.546L20.4179 30.684ZM21.0939 29.488L18.7892 27.5674L18.7569 27.6063L18.7258 27.6462L21.0939 29.488ZM21.9259 28.084L24.6092 29.4256V29.4256L21.9259 28.084ZM22.8619 26.68L24.9832 28.8013L25.0337 28.7508L25.0817 28.698L22.8619 26.68ZM24.0059 24.808L26.8253 25.8332L26.8785 25.6868L26.9163 25.5356L24.0059 24.808ZM24.3179 24.08L21.807 22.4383L21.7121 22.5833L21.6346 22.7384L24.3179 24.08ZM25.7739 21.168L28.759 21.4665L28.7739 21.3176V21.168H25.7739ZM26.0859 20.024L28.8949 21.0774L28.9144 21.0254L28.932 20.9727L26.0859 20.024ZM26.1899 17.58L23.2248 18.0362L23.235 18.1025L23.2482 18.1683L26.1899 17.58ZM25.7219 16.748L26.3103 19.6897L26.3103 19.6897L25.7219 16.748ZM25.2019 16.852L25.7902 19.7937L25.7903 19.7937L25.2019 16.852ZM24.6819 17.112L26.9118 19.1189L27.1835 18.817L27.3652 18.4536L24.6819 17.112ZM24.2139 17.632L21.984 15.6251L21.9778 15.632L21.9717 15.6389L24.2139 17.632ZM23.7979 19.556H26.7979V19.4935L26.7953 19.4311L23.7979 19.556ZM24.0579 20.96L26.7412 19.6184L26.712 19.5601L26.6804 19.5031L24.0579 20.96ZM24.1099 22.052L26.2312 24.1733L26.3275 24.0771L26.4146 23.9725L24.1099 22.052ZM22.7579 21.792L25.1005 19.9179L25.0688 19.8782L25.0357 19.8396L22.7579 21.792ZM21.9779 20.18L19.0128 20.6362L19.023 20.7025L19.0362 20.7683L21.9779 20.18ZM21.9779 17.892L19.1172 16.9886L19.0896 17.0757L19.0675 17.1644L21.9779 17.892ZM22.6539 16.384L24.9317 18.3364L25.0659 18.1798L25.1774 18.0063L22.6539 16.384ZM23.1219 15.656L25.6454 17.2783L25.7808 17.0678L25.8793 16.8378L23.1219 15.656ZM23.8499 14.876L25.4399 17.42L25.4599 17.4075L25.4797 17.3947L23.8499 14.876ZM24.7339 14.304L26.3637 16.8227L26.3809 16.8115L26.398 16.8002L24.7339 14.304ZM25.6699 13.784L25.3714 10.7989L25.1541 10.8206L24.9423 10.8736L25.6699 13.784ZM26.1899 13.732V10.732H26.0403L25.8914 10.7469L26.1899 13.732ZM28.1659 14.044L29.5075 11.3607L29.4579 11.3359L29.4073 11.3129L28.1659 14.044ZM29.5699 15.292L26.8285 16.5104L26.8827 16.6323L26.9474 16.7489L29.5699 15.292ZM30.2979 17.788L33.1567 16.8784L33.1505 16.8588L33.144 16.8393L30.2979 17.788ZM30.1419 20.388L33.1187 20.7601L33.1239 20.7186L33.128 20.677L30.1419 20.388ZM29.5179 22.78L26.8346 21.4384L26.7393 21.6291L26.6719 21.8313L29.5179 22.78ZM28.6859 24.236L25.9285 23.0542L25.8536 23.229L25.8013 23.4118L28.6859 24.236ZM28.2179 25.172L26.0966 23.0507L25.8865 23.2607L25.7218 23.5079L28.2179 25.172ZM27.8019 25.952L25.2294 24.4085L25.1058 24.6146L25.0165 24.8378L27.8019 25.952ZM27.3859 26.68L24.8898 25.0159L24.8898 25.0159L27.3859 26.68ZM26.9699 27.668L29.8803 28.3956L29.8976 28.3264L29.9116 28.2563L26.9699 27.668ZM26.4499 28.5L24.1452 26.5794L24.0426 26.7026L23.9538 26.8359L26.4499 28.5ZM25.7219 29.592L23.0386 28.2504L22.9992 28.3292L22.9645 28.4102L25.7219 29.592ZM25.3059 30.424L27.4272 32.5453L27.928 32.0445L28.152 31.3727L25.3059 30.424ZM24.8379 31.204L22.1546 29.8624V29.8624L24.8379 31.204ZM24.1619 32.244L21.8193 30.3699L21.7762 30.4237L21.7357 30.4795L24.1619 32.244ZM24.5779 33.18L25.9897 30.5329L25.8447 30.4556L25.6921 30.3946L24.5779 33.18ZM27.3339 34.116L26.8407 37.0752L26.8592 37.0783L26.8777 37.0811L27.3339 34.116ZM28.8419 33.908L29.529 36.8283L29.8701 36.748L30.1835 36.5913L28.8419 33.908ZM29.2579 33.18H26.2579V33.4283L26.2987 33.6732L29.2579 33.18ZM28.7379 32.088L26.8174 34.3927L26.9745 34.5236L27.1479 34.632L28.7379 32.088ZM29.5699 31.152L30.9115 28.4687L30.8619 28.4439L30.8113 28.4209L29.5699 31.152ZM30.5059 32.296L33.2473 31.0776L33.2387 31.0581L33.2298 31.0388L30.5059 32.296ZM30.0379 35.26L27.9166 33.1387L27.9166 33.1387L30.0379 35.26ZM29.3619 35.78L28.4132 32.934L28.211 33.0014L28.0203 33.0967L29.3619 35.78ZM28.9459 35.988L27.6043 33.3047L27.4596 33.377L27.3236 33.4645L28.9459 35.988ZM27.2617 33.4612C26.9537 33.4793 26.9328 33.4559 27.0092 33.4725C27.0966 33.4915 27.1029 33.5163 26.8842 33.3986L24.0396 38.6814C24.4969 38.9277 25.0492 39.1865 25.7346 39.3355C26.409 39.4821 27.0381 39.4847 27.6141 39.4508L27.2617 33.4612ZM27.0519 33.496C26.5086 33.1565 25.7384 32.8788 25.2981 32.73C24.8464 32.5773 24.0987 32.3443 23.5052 32.2783L22.8426 38.2416C22.757 38.2321 22.7183 38.2219 22.7515 38.2291C22.7743 38.2341 22.8188 38.2447 22.8859 38.2629C23.0205 38.2993 23.1934 38.352 23.3767 38.414C23.5606 38.4762 23.7276 38.5384 23.853 38.59C23.9155 38.6157 23.9537 38.6331 23.9706 38.6411C23.9971 38.6538 23.9532 38.6348 23.8719 38.584L27.0519 33.496ZM23.4455 32.2723C22.0132 32.1421 20.8528 32.5988 19.8935 33.2703L23.3343 38.1857C23.4155 38.1288 23.3809 38.1671 23.2567 38.2053C23.1943 38.2245 23.1254 38.2387 23.055 38.2457C22.9856 38.2525 22.9325 38.2504 22.9023 38.2477L23.4455 32.2723ZM19.8139 33.328C19.941 33.2327 20.5276 32.9182 21.3041 33.2543C22.0867 33.5931 22.2416 34.2357 22.2541 34.3441L16.2937 35.0319C16.4622 36.4923 17.2671 38.0449 18.9207 38.7607C20.5682 39.4738 22.2468 39.0033 23.4139 38.128L19.8139 33.328ZM22.2739 34.688C22.2739 34.6387 22.2739 34.6138 22.2741 34.594C22.2743 34.5762 22.2745 34.5805 22.2738 34.5967C22.2717 34.6397 22.2647 34.7319 22.2416 34.8473C22.2194 34.9587 22.1933 35.0357 22.1843 35.0607C22.1786 35.0767 22.185 35.0567 22.2233 34.9704L16.7405 32.5336C16.6189 32.8072 16.4522 33.2003 16.3582 33.6707C16.2635 34.1438 16.2739 34.5668 16.2739 34.688H22.2739ZM22.1652 35.0936C22.4822 34.4597 22.6631 33.7974 22.7531 33.2572L16.8347 32.2708C16.8302 32.2981 16.8215 32.337 16.8096 32.3757C16.804 32.3937 16.7993 32.4068 16.7962 32.4146C16.7931 32.4227 16.7933 32.4209 16.7986 32.4104L22.1652 35.0936ZM22.7939 32.764C22.7939 32.9215 22.7756 33.0236 22.7729 33.0391C22.7691 33.0605 22.769 33.0549 22.7824 33.0034C22.7886 32.9796 22.796 32.9518 22.8063 32.9146C22.8133 32.889 22.831 32.825 22.8418 32.7855C22.8549 32.7374 22.8714 32.6759 22.888 32.6098C22.9044 32.5445 22.9246 32.4596 22.9436 32.3643L17.0602 31.1877C17.0693 31.1418 17.0744 31.1289 17.0532 31.2068C17.0415 31.2497 17.0033 31.3863 16.9744 31.4976C16.9423 31.6216 16.9 31.7948 16.8653 31.9901C16.8317 32.1794 16.7939 32.4505 16.7939 32.764H22.7939ZM22.8054 32.844L23.2214 31.752L17.6144 29.616L17.1984 30.708L22.8054 32.844ZM23.2914 31.546C23.3068 31.4947 23.3106 31.49 23.3014 31.5117C23.2901 31.5384 23.2744 31.5696 23.2588 31.5959C23.2464 31.6167 23.2463 31.6137 23.2792 31.5687C23.3167 31.5175 23.3674 31.4514 23.462 31.3298L18.7258 27.6462C18.3039 28.1887 17.8648 28.7542 17.5444 29.822L23.2914 31.546ZM23.3986 31.4086C23.914 30.7901 24.3666 29.9108 24.6092 29.4256L19.2426 26.7424C19.1278 26.9721 19.0148 27.1861 18.9136 27.3609C18.8636 27.4473 18.8238 27.5113 18.795 27.5549C18.7632 27.603 18.7614 27.6009 18.7892 27.5674L23.3986 31.4086ZM24.6092 29.4256C24.773 29.098 24.8506 28.9687 24.8901 28.9096C24.9053 28.8867 24.9138 28.8762 24.9196 28.8691C24.9266 28.8608 24.9437 28.8408 24.9832 28.8013L20.7406 24.5587C20.0557 25.2435 19.6772 25.8732 19.2426 26.7424L24.6092 29.4256ZM25.0817 28.698C25.8721 27.8286 26.4879 26.7609 26.8253 25.8332L21.1865 23.7828C21.1568 23.8644 21.0889 24.0164 20.9784 24.2005C20.8695 24.3821 20.7503 24.543 20.6421 24.662L25.0817 28.698ZM26.9163 25.5356C26.902 25.5929 26.8888 25.6352 26.881 25.6591C26.8729 25.684 26.8669 25.6999 26.8648 25.7053C26.8615 25.7141 26.8645 25.7054 26.8782 25.6751C26.8911 25.6464 26.908 25.6104 26.9299 25.5654C26.952 25.52 26.9745 25.4751 27.0012 25.4216L21.6346 22.7384C21.5945 22.8187 21.2465 23.4762 21.0955 24.0804L26.9163 25.5356ZM26.8288 25.7217C27.3099 24.986 27.726 24.284 28.0412 23.6536C28.3055 23.125 28.6743 22.3133 28.759 21.4665L22.7888 20.8695C22.8109 20.6487 22.8584 20.5473 22.8301 20.6251C22.8104 20.6791 22.7639 20.7917 22.6746 20.9704C22.4958 21.328 22.21 21.822 21.807 22.4383L26.8288 25.7217ZM28.7739 21.168C28.7739 21.2464 28.7703 21.3104 28.7668 21.3557C28.7633 21.4019 28.759 21.4391 28.7556 21.4653C28.749 21.5157 28.7427 21.5471 28.7414 21.5538C28.7396 21.5623 28.7399 21.5602 28.7434 21.5461C28.7467 21.5326 28.7519 21.5127 28.7594 21.4862C28.7745 21.4325 28.7949 21.3658 28.8195 21.2914C28.8439 21.2175 28.8699 21.144 28.8949 21.0774L23.2769 18.9706C23.1737 19.2459 23.0681 19.5609 22.9835 19.8618C22.9338 20.0382 22.7739 20.5951 22.7739 21.168H28.7739ZM28.932 20.9727C29.3716 19.6537 29.4326 18.4964 29.1316 16.9917L23.2482 18.1683C23.3206 18.5303 23.3204 18.6861 23.3173 18.7472C23.315 18.7923 23.3084 18.8698 23.2399 19.0753L28.932 20.9727ZM29.155 17.1238C29.1127 16.8484 29.0077 16.1083 28.6431 15.4452C28.4164 15.0332 27.9735 14.429 27.1763 14.0507C26.368 13.6671 25.6087 13.7112 25.1335 13.8063L26.3103 19.6897C25.9651 19.7588 25.3163 19.8094 24.6039 19.4713C23.9026 19.1385 23.5409 18.6188 23.3858 18.3368C23.3074 18.1942 23.2617 18.0776 23.238 18.0109C23.2136 17.9424 23.2019 17.8965 23.199 17.8851C23.1951 17.8695 23.2048 17.9062 23.2248 18.0362L29.155 17.1238ZM25.1336 13.8063L24.6136 13.9103L25.7903 19.7937L26.3103 19.6897L25.1336 13.8063ZM24.6136 13.9103C24.2763 13.9777 23.8966 14.092 23.5223 14.2792C23.2891 14.3958 22.4763 14.8149 21.9986 15.7704L27.3652 18.4536C27.1239 18.9361 26.8092 19.2254 26.6449 19.3594C26.4626 19.5081 26.3023 19.5974 26.2055 19.6458C26.0132 19.742 25.8675 19.7783 25.7902 19.7937L24.6136 13.9103ZM22.452 15.1051L21.984 15.6251L26.4438 19.6389L26.9118 19.1189L22.452 15.1051ZM21.9717 15.6389C21.6293 16.024 21.1203 16.6554 20.9002 17.6583C20.7434 18.3727 20.7779 19.1395 20.8005 19.6809L26.7953 19.4311C26.7827 19.1291 26.7798 18.9594 26.7819 18.8549C26.784 18.7492 26.7904 18.8089 26.7606 18.9447C26.7441 19.0203 26.7177 19.1135 26.677 19.2169C26.6359 19.3212 26.5889 19.4138 26.5421 19.4922C26.4971 19.5675 26.4592 19.6182 26.443 19.639C26.4286 19.6575 26.4278 19.657 26.4561 19.6251L21.9717 15.6389ZM20.7979 19.556C20.7979 19.8618 20.7859 20.4304 20.8771 20.9414C21.0057 21.6616 21.3015 22.1758 21.4354 22.4169L26.6804 19.5031C26.6516 19.4512 26.6396 19.4289 26.6348 19.4195C26.6307 19.4117 26.6427 19.4342 26.6609 19.4762C26.6805 19.5215 26.7056 19.5856 26.7298 19.6644C26.7542 19.744 26.7717 19.8195 26.7837 19.8866C26.7952 19.9508 26.7996 19.9966 26.8011 20.0143C26.8024 20.0303 26.8017 20.0272 26.8006 19.9933C26.7996 19.9593 26.7988 19.9097 26.7984 19.8334C26.7979 19.757 26.7979 19.669 26.7979 19.556H20.7979ZM21.3746 22.3016C21.4394 22.4311 21.4395 22.442 21.4217 22.394C21.4046 22.3479 21.3159 22.1058 21.301 21.7479C21.2835 21.3284 21.3728 20.9221 21.5343 20.5742C21.6045 20.4229 21.6754 20.3108 21.7222 20.2427C21.7677 20.1764 21.8015 20.136 21.8052 20.1314L26.4146 23.9725C26.6837 23.6496 27.3499 22.7957 27.2958 21.4981C27.2584 20.6002 26.8538 19.8436 26.7412 19.6184L21.3746 22.3016ZM21.9886 19.9307C22.5348 19.3845 23.3146 19.174 24.0111 19.3058C24.6276 19.4224 24.9687 19.7532 25.1005 19.9179L20.4153 23.6661C20.9631 24.3508 21.7983 24.9936 22.8957 25.2012C24.0732 25.424 25.321 25.0835 26.2312 24.1733L21.9886 19.9307ZM25.0357 19.8396C25.062 19.8704 25.0752 19.8888 25.0764 19.8904C25.0782 19.8929 25.0737 19.8868 25.0639 19.8711C25.0434 19.8383 25.015 19.7881 24.9851 19.7269C24.9551 19.6657 24.9325 19.6113 24.9183 19.5723C24.902 19.5278 24.9084 19.5352 24.9196 19.5917L19.0362 20.7683C19.1557 21.3658 19.3842 21.9314 19.5948 22.3621C19.8037 22.7895 20.1024 23.3036 20.4801 23.7444L25.0357 19.8396ZM24.943 19.7238C24.9228 19.5922 24.8999 19.2901 24.8999 18.9385C24.8999 18.7753 24.9049 18.6391 24.9117 18.5446C24.9133 18.5224 24.9148 18.5051 24.9161 18.4925C24.9173 18.4797 24.9181 18.474 24.918 18.4748C24.9179 18.4751 24.9164 18.4866 24.9127 18.5074C24.9092 18.527 24.9017 18.5662 24.8883 18.6196L19.0675 17.1644C18.9166 17.7681 18.8999 18.505 18.8999 18.9385C18.8999 19.4579 18.929 20.0918 19.0128 20.6362L24.943 19.7238ZM24.8387 18.7954C24.9191 18.5407 24.9717 18.375 25.0144 18.2481C25.0574 18.1205 25.0705 18.0924 25.0644 18.1065C25.0501 18.139 25.0164 18.208 24.9644 18.2868C24.9203 18.3535 24.8924 18.3822 24.9317 18.3364L20.3761 14.4316C20.0918 14.7634 19.8116 15.1435 19.5674 15.7015C19.3964 16.0926 19.2505 16.5664 19.1172 16.9886L24.8387 18.7954ZM25.1774 18.0063L25.6454 17.2783L20.5984 14.0337L20.1304 14.7617L25.1774 18.0063ZM25.8793 16.8378C25.8787 16.8393 25.8524 16.9011 25.7969 16.9911C25.7365 17.0891 25.6598 17.1912 25.5694 17.2869C25.4089 17.4569 25.2859 17.5162 25.4399 17.42L22.2599 12.332C21.9979 12.4958 21.5889 12.7631 21.2074 13.1671C20.7813 13.6182 20.5321 14.0831 20.3645 14.4742L25.8793 16.8378ZM25.4797 17.3947L26.3637 16.8227L23.1042 11.7853L22.2202 12.3573L25.4797 17.3947ZM26.398 16.8002C26.5062 16.728 26.5894 16.6736 26.6561 16.6312C26.7236 16.5884 26.7602 16.5669 26.7756 16.5582C26.7822 16.5544 26.7799 16.5559 26.7699 16.561C26.76 16.5661 26.7395 16.5762 26.7099 16.5893C26.6519 16.6148 26.5445 16.6577 26.3975 16.6944L24.9423 10.8736C24.1245 11.078 23.4001 11.5877 23.0698 11.8078L26.398 16.8002ZM25.9684 16.7691L26.4884 16.7171L25.8914 10.7469L25.3714 10.7989L25.9684 16.7691ZM26.1899 16.732H26.9179V10.732H26.1899V16.732ZM26.9179 16.732C26.9591 16.732 26.9819 16.7325 26.9925 16.7329C27.0024 16.7333 26.9951 16.7332 26.9757 16.7315C26.9552 16.7296 26.9241 16.7259 26.8853 16.7193C26.8459 16.7126 26.8068 16.7041 26.7695 16.6945C26.6955 16.6753 26.6581 16.6588 26.6848 16.6695C26.6987 16.6751 26.7236 16.6854 26.7652 16.7037C26.807 16.722 26.8579 16.7448 26.9245 16.7751L29.4073 11.3129C29.1529 11.1972 28.7414 11.0073 28.2753 10.8865C27.737 10.747 27.2732 10.732 26.9179 10.732V16.732ZM26.8243 16.7273C26.9179 16.7741 26.9827 16.8124 27.0244 16.8396C27.0661 16.8668 27.0782 16.8787 27.0698 16.8712C27.0538 16.857 26.9323 16.744 26.8285 16.5104L32.3113 14.0736C31.6962 12.6896 30.5135 11.8637 29.5075 11.3607L26.8243 16.7273ZM26.9474 16.7489C26.9404 16.7362 26.9434 16.7406 26.9555 16.7663C26.9669 16.7905 26.9822 16.8247 27.0006 16.8687C27.038 16.9584 27.0777 17.0636 27.1131 17.1677C27.1497 17.2752 27.1718 17.3526 27.1808 17.3882C27.1854 17.4064 27.1807 17.3908 27.1733 17.3487C27.1695 17.3267 27.1627 17.2853 27.1565 17.2291C27.1508 17.1772 27.1419 17.0811 27.1419 16.956H33.1419C33.1419 16.4814 33.032 16.0529 32.9974 15.9161C32.9398 15.6884 32.8677 15.4538 32.7937 15.2363C32.6572 14.8347 32.447 14.2935 32.1924 13.8351L26.9474 16.7489ZM27.1419 16.956C27.1419 17.4787 27.2609 18.1638 27.4519 18.7367L33.144 16.8393C33.1487 16.8537 33.1484 16.8546 33.1452 16.8415C33.1423 16.8293 33.1391 16.8142 33.1365 16.7995C33.1338 16.7839 33.1336 16.7796 33.1347 16.7897C33.1353 16.7953 33.1368 16.8099 33.1383 16.8329C33.1396 16.8536 33.1419 16.8966 33.1419 16.956H27.1419ZM27.4391 18.6976C27.4986 18.8844 27.4722 18.8497 27.4599 18.7052C27.4426 18.5023 27.471 18.3334 27.4806 18.2882C27.4808 18.2874 27.479 18.2958 27.4729 18.3207C27.4663 18.3478 27.459 18.3767 27.4463 18.4271C27.423 18.5201 27.3885 18.6574 27.3528 18.8205C27.2781 19.1615 27.2069 19.5719 27.1559 20.099L33.128 20.677C33.1843 20.0952 33.2268 20.1124 33.3492 19.5368C33.4238 19.1861 33.4847 18.7409 33.4382 18.1952C33.3966 17.7078 33.2793 17.2636 33.1567 16.8784L27.4391 18.6976ZM27.1651 20.0159C27.1343 20.262 27.0623 20.6192 26.9688 20.9723C26.9238 21.1423 26.8805 21.286 26.8451 21.3913C26.802 21.5195 26.7951 21.5174 26.8346 21.4384L32.2012 24.1216C32.4511 23.6217 32.6441 22.9796 32.769 22.5077C32.9095 21.9768 33.0455 21.346 33.1187 20.7601L27.1651 20.0159ZM26.6719 21.8313C26.7158 21.6996 26.7571 21.6142 26.7695 21.5891C26.7865 21.5545 26.7997 21.5313 26.8089 21.516C26.8178 21.5013 26.8346 21.4742 26.863 21.4351C26.8813 21.4098 26.956 21.3073 27.0846 21.1787L31.3272 25.4213C31.6388 25.1098 31.8528 24.7715 31.9539 24.603C32.0654 24.4171 32.2398 24.1011 32.364 23.7287L26.6719 21.8313ZM27.0846 21.1787C26.6684 21.5949 26.4027 22.0854 26.3045 22.2677C26.159 22.538 26.0296 22.8183 25.9285 23.0542L31.4433 25.4178C31.4691 25.3576 31.496 25.2977 31.5222 25.2424C31.5489 25.1861 31.5711 25.1424 31.5873 25.1123C31.5951 25.0978 31.5997 25.0899 31.6008 25.088C31.6022 25.0856 31.5974 25.094 31.5863 25.1108C31.5759 25.1266 31.5528 25.1608 31.5171 25.207C31.4987 25.2307 31.4745 25.2608 31.4444 25.2955C31.4147 25.3299 31.3756 25.373 31.3272 25.4213L27.0846 21.1787ZM25.8013 23.4118C25.8055 23.3973 25.8058 23.3986 25.8004 23.4124C25.7952 23.4254 25.7902 23.4362 25.7881 23.4404C25.7846 23.4473 25.7944 23.4264 25.8227 23.3826C25.8375 23.3598 25.8637 23.3207 25.9023 23.2706C25.9388 23.2233 26.0032 23.144 26.0966 23.0507L30.3392 27.2933C30.7678 26.8647 31.0322 26.3685 31.1547 26.1236C31.3129 25.8071 31.4622 25.4393 31.5705 25.0602L25.8013 23.4118ZM25.7218 23.5079C25.6072 23.6798 25.5199 23.8431 25.477 23.9244C25.4274 24.0185 25.3781 24.1174 25.3461 24.1814C25.3084 24.2568 25.2828 24.3079 25.2589 24.3537C25.2348 24.3997 25.2262 24.414 25.2294 24.4085L30.3744 27.4955C30.4557 27.36 30.525 27.2313 30.5773 27.1311C30.6298 27.0306 30.6789 26.9322 30.7127 26.8646C30.7522 26.7856 30.7712 26.748 30.7849 26.7218C30.8055 26.6829 30.7766 26.7422 30.7141 26.8361L25.7218 23.5079ZM25.0165 24.8378C25.039 24.7815 25.0541 24.754 25.0502 24.7615C25.0478 24.7659 25.0389 24.7824 25.0214 24.8115C24.9843 24.8734 24.9425 24.9368 24.8898 25.0159L29.8821 28.3441C29.9423 28.2538 30.345 27.6721 30.5873 27.0662L25.0165 24.8378ZM24.8898 25.0159C24.8081 25.1385 24.5898 25.4542 24.4078 25.8546C24.2145 26.2799 24.106 26.6906 24.0282 27.0797L29.9116 28.2563C29.925 28.1896 29.9301 28.1763 29.9244 28.1955C29.9212 28.2064 29.915 28.2257 29.9055 28.2515C29.8957 28.2778 29.8839 28.3068 29.87 28.3374C29.8561 28.368 29.8425 28.3948 29.8307 28.4168C29.8192 28.4382 29.811 28.4517 29.8092 28.4547C29.8079 28.4568 29.8114 28.4509 29.8243 28.4313C29.8381 28.4101 29.8544 28.3856 29.8821 28.3441L24.8898 25.0159ZM24.0595 26.9404C24.0879 26.8267 24.1191 26.7365 24.1433 26.6737C24.1678 26.6099 24.1903 26.5608 24.2063 26.528C24.2226 26.4946 24.2357 26.4707 24.2435 26.457C24.2514 26.443 24.2563 26.4354 24.2569 26.4344C24.2575 26.4334 24.2486 26.4473 24.2274 26.4758C24.2068 26.5035 24.1793 26.5385 24.1452 26.5794L28.7546 30.4206C28.9408 30.1971 29.1405 29.936 29.3189 29.6556C29.4646 29.4266 29.7363 28.9717 29.8803 28.3956L24.0595 26.9404ZM23.9538 26.8359C23.8701 26.9613 23.8085 27.0402 23.6087 27.3256C23.4786 27.5114 23.2277 27.8721 23.0386 28.2504L28.4052 30.9336C28.3773 30.9895 28.3667 31.0013 28.3986 30.9514C28.4261 30.9086 28.4662 30.8491 28.5241 30.7664C28.5843 30.6804 28.6405 30.602 28.7159 30.496C28.7824 30.4024 28.867 30.2827 28.9461 30.1641L23.9538 26.8359ZM22.9645 28.4102C22.948 28.4488 22.9187 28.5075 22.8412 28.6494C22.813 28.7012 22.7536 28.809 22.703 28.9073C22.6753 28.9613 22.6386 29.0346 22.6004 29.1187C22.5642 29.1986 22.5106 29.3231 22.4599 29.4753L28.152 31.3727C28.1142 31.4859 28.0785 31.5665 28.0642 31.5981C28.0555 31.6172 28.0487 31.6313 28.0448 31.6392C28.0428 31.6434 28.0413 31.6465 28.0403 31.6484C28.0393 31.6504 28.0388 31.6514 28.0388 31.6514C28.0388 31.6515 28.0391 31.6507 28.04 31.649C28.0409 31.6474 28.0421 31.6451 28.0438 31.6419C28.0472 31.6355 28.0518 31.6269 28.058 31.6154C28.0721 31.5893 28.0857 31.5645 28.1086 31.5226C28.1872 31.3785 28.3399 31.0992 28.4793 30.7738L22.9645 28.4102ZM23.1846 28.3027C22.8223 28.665 22.5657 29.1132 22.5086 29.2098C22.3828 29.4228 22.2585 29.6545 22.1546 29.8624L27.5212 32.5456C27.5457 32.4966 27.5732 32.4438 27.601 32.3922C27.6292 32.3401 27.6543 32.2958 27.6742 32.2622C27.6839 32.2458 27.6907 32.2347 27.6945 32.2286C27.6987 32.222 27.6969 32.2251 27.6895 32.2359C27.6856 32.2416 27.6791 32.2511 27.6701 32.2636C27.6612 32.2759 27.6481 32.2937 27.631 32.3156C27.6143 32.3371 27.5902 32.3672 27.5594 32.4031C27.5293 32.438 27.4849 32.4876 27.4272 32.5453L23.1846 28.3027ZM22.1546 29.8624C22.157 29.8576 22.1457 29.8802 22.1152 29.9315C22.0867 29.9796 22.0508 30.0372 22.01 30.0994C21.9216 30.2343 21.8476 30.3345 21.8193 30.3699L26.5045 34.1181C26.816 33.7288 27.2522 33.0835 27.5212 32.5456L22.1546 29.8624ZM21.7357 30.4795C21.6192 30.6396 21.4884 30.8247 21.3721 31.011C21.2869 31.1476 21.0638 31.5085 20.9263 31.976C20.8047 32.3895 20.4776 33.9217 21.7687 35.1295C22.7155 36.0152 23.8501 35.972 23.9539 35.972V29.972C24.0484 29.972 24.2757 29.9768 24.5648 30.0455C24.849 30.113 25.3727 30.2848 25.8677 30.7479C27.1085 31.9086 26.7716 33.366 26.6825 33.669C26.6211 33.8777 26.5501 34.0238 26.5206 34.082C26.487 34.1484 26.4628 34.1867 26.4626 34.1871C26.4607 34.1901 26.4686 34.1773 26.4919 34.1436C26.5145 34.1108 26.5457 34.0669 26.5881 34.0085L21.7357 30.4795ZM23.9539 35.972C23.736 35.972 23.5686 35.9466 23.4873 35.9326C23.3961 35.9167 23.328 35.8997 23.2925 35.8904C23.2249 35.8725 23.1903 35.8594 23.2089 35.866C23.2213 35.8703 23.2482 35.8802 23.2963 35.899C23.344 35.9176 23.3963 35.9384 23.4637 35.9654L25.6921 30.3946C25.5791 30.3494 25.3867 30.2719 25.2059 30.208C25.114 30.1756 24.9786 30.13 24.8249 30.0894C24.725 30.063 24.3821 29.972 23.9539 29.972V35.972ZM23.1661 35.8271C24.2247 36.3916 25.5741 36.8641 26.8407 37.0752L27.8271 31.1568C27.2217 31.0559 26.4911 30.8004 25.9897 30.5329L23.1661 35.8271ZM26.8777 37.0811C27.0984 37.1151 27.3779 37.1515 27.6835 37.1563C28.0326 37.1617 28.344 37.1255 28.6385 37.0624C28.8592 37.0151 29.0923 36.9448 29.1573 36.9261C29.2626 36.8958 29.3738 36.8648 29.529 36.8283L28.1548 30.9877C27.868 31.0552 27.6542 31.1152 27.4995 31.1597C27.4139 31.1843 27.3867 31.1924 27.3528 31.2018C27.3272 31.2089 27.3441 31.2036 27.3813 31.1956C27.4243 31.1864 27.4891 31.1746 27.5686 31.1664C27.6485 31.1582 27.7197 31.1561 27.7773 31.157C27.8749 31.1585 27.9074 31.1689 27.7901 31.1509L26.8777 37.0811ZM30.1835 36.5913C30.824 36.2711 31.3254 35.776 31.6627 35.257C32.0057 34.7293 32.4053 33.816 32.2171 32.6868L26.2987 33.6732C26.1625 32.856 26.4581 32.2547 26.6321 31.987C26.8004 31.728 27.0678 31.4409 27.5003 31.2247L30.1835 36.5913ZM32.2579 33.18C32.2579 32.7815 32.2363 32.0366 31.8778 31.2598C31.4731 30.383 30.8338 29.8602 30.3279 29.544L27.1479 34.632C27.058 34.5758 26.6787 34.313 26.43 33.7742C26.2275 33.3354 26.2579 33.0065 26.2579 33.18H32.2579ZM30.6585 29.7833C30.5724 29.7116 30.5647 29.704 30.5766 29.7148C30.5849 29.7225 30.7182 29.842 30.8651 30.044C31.0427 30.2882 31.2014 30.5969 31.2937 30.9583C31.3738 31.2724 31.3739 31.5163 31.3739 31.568H25.3739C25.3739 32.0084 25.4443 32.7915 26.0127 33.573C26.3356 34.0171 26.7803 34.3618 26.8174 34.3927L30.6585 29.7833ZM31.3739 31.568C31.3739 32.1616 31.1613 32.7362 30.7888 33.185C30.4402 33.605 30.0343 33.8206 29.7304 33.9248C29.1465 34.125 28.6518 34.03 28.3285 33.8831L30.8113 28.4209C29.9161 28.014 28.8233 27.893 27.7844 28.2492C26.6984 28.6215 25.3739 29.7141 25.3739 31.568H31.3739ZM28.2283 33.8353C28.1963 33.8193 28.1135 33.7748 28.0108 33.6952C27.904 33.6125 27.8164 33.5236 27.7512 33.4435C27.6919 33.3708 27.6689 33.3271 27.6797 33.346C27.692 33.3676 27.7239 33.4272 27.782 33.5532L33.2298 31.0388C33.0474 30.6436 32.7909 30.13 32.4026 29.6535C31.9505 29.0986 31.4375 28.7317 30.9115 28.4687L28.2283 33.8353ZM27.7645 33.5144C27.7783 33.5455 27.7848 33.5615 27.7868 33.5665C27.7886 33.5711 27.7845 33.5612 27.7775 33.5399C27.7702 33.5178 27.7605 33.4858 27.7506 33.4457C27.7406 33.405 27.7321 33.3634 27.7256 33.3225C27.7125 33.2407 27.7118 33.1911 27.7124 33.2102C27.7128 33.2208 27.7133 33.2422 27.7136 33.2829C27.7139 33.3246 27.7139 33.3723 27.7139 33.44H33.7139C33.7139 33.2538 33.7218 32.8218 33.6502 32.3745C33.566 31.8479 33.401 31.4233 33.2473 31.0776L27.7645 33.5144ZM27.7139 33.44C27.7139 33.5795 27.7073 33.6309 27.7075 33.6295C27.7087 33.6202 27.7195 33.5471 27.7592 33.4403C27.8009 33.3283 27.8542 33.2334 27.9015 33.1655C27.9425 33.1066 27.961 33.0943 27.9166 33.1387L32.1592 37.3813C32.6052 36.9354 33.0791 36.3482 33.3826 35.5327C33.6682 34.7652 33.7139 34.0275 33.7139 33.44H27.7139ZM27.9166 33.1387C27.8888 33.1664 27.846 33.2045 27.8215 33.2239C27.8095 33.2333 27.8314 33.2149 27.8837 33.1813C27.911 33.1638 27.9631 33.1315 28.036 33.0933C28.1022 33.0587 28.2332 32.994 28.4132 32.934L30.3106 38.626C30.9462 38.4142 31.4357 38.0149 31.5393 37.9331C31.7618 37.7575 31.979 37.5616 32.1592 37.3813L27.9166 33.1387ZM28.0203 33.0967L27.6043 33.3047L30.2875 38.6713L30.7035 38.4633L28.0203 33.0967ZM27.3236 33.4645C27.2796 33.4927 27.2415 33.5172 27.2073 33.539C27.1731 33.5607 27.1451 33.5784 27.1216 33.593C27.098 33.6077 27.0813 33.6178 27.0698 33.6247C27.0583 33.6315 27.0545 33.6336 27.0567 33.6324C27.0602 33.6305 27.0982 33.6093 27.1608 33.5817C27.1929 33.5676 27.2305 33.5522 27.2732 33.5367C27.3161 33.5211 27.3608 33.5066 27.4067 33.4934C27.4526 33.4803 27.4959 33.4697 27.5356 33.4613C27.575 33.4528 27.6085 33.447 27.6343 33.4431C27.6598 33.4392 27.6779 33.4371 27.6862 33.4362C27.6943 33.4353 27.6952 33.4353 27.686 33.4361C27.6767 33.4368 27.6614 33.4379 27.6365 33.4394C27.6115 33.441 27.582 33.4427 27.5436 33.4449C27.4707 33.449 27.3671 33.4546 27.2508 33.4618L27.625 39.4502C27.7398 39.443 28.012 39.429 28.1583 39.4174C28.3606 39.4015 28.6832 39.3688 29.0551 39.2626C29.4403 39.1525 29.7485 39.0015 29.9836 38.8701C30.1895 38.755 30.4023 38.6182 30.5682 38.5115L27.3236 33.4645Z" fill="black" mask="url(#path-4-outside-1_2946_28641)"/>
</svg>
