<svg width="50" height="50" viewBox="0 0 50 50" fill="none" xmlns="http://www.w3.org/2000/svg">
<rect x="1.5" y="1.5" width="47" height="47" rx="23.5" stroke="black" stroke-width="3"/>
<path d="M25.0001 49.0226C38.0815 49.0226 48.6861 38.2673 48.6861 25.0001C48.6861 11.7328 38.0815 0.977539 25.0001 0.977539C11.9186 0.977539 1.31396 11.7328 1.31396 25.0001C1.31396 38.2673 11.9186 49.0226 25.0001 49.0226Z" fill="#76B82A"/>
<path d="M42.9745 9.05766C45.0487 11.4328 46.7883 14.1472 47.9927 17.0652C49.1971 20.051 49.9331 23.2404 50 26.5656C50 29.8908 49.3978 33.2159 48.0596 36.2696C46.7214 39.3233 44.6472 42.0377 42.1715 44.2093C39.629 46.3808 36.6849 47.9416 33.6071 48.8916C30.5292 49.8417 27.3176 50.181 24.1059 49.9095C17.7495 49.5024 11.5938 46.7879 7.04388 42.1056C4.76895 39.7983 2.89547 37.0161 1.6911 33.8945C0.486719 30.7729 -0.11547 27.4478 0.0183499 24.0548C0.15217 17.3366 3.16311 10.6184 8.11444 6.13967C10.5901 3.90028 13.5341 2.13592 16.6789 1.11801C19.8237 0.100109 23.1692 -0.239193 26.4477 0.167969C29.6594 0.57513 32.8042 1.66089 35.5475 3.15382C38.3577 4.71461 40.8334 6.68255 42.9076 9.05766H42.9745ZM42.7068 9.3291C40.6326 7.02185 38.0231 5.18963 35.2129 4.036C32.4027 2.88238 29.3249 2.40736 26.3808 2.47522C23.4368 2.54308 20.4928 3.22168 17.8164 4.30744C15.14 5.39321 12.6643 6.95399 10.5232 8.92194C8.38208 10.8899 6.70933 13.265 5.37114 15.8437C4.09985 18.4902 3.36384 21.3404 3.0962 24.2584C2.69474 30.0943 4.56822 36.2018 8.31517 40.8841C10.1886 43.1914 12.5974 45.2272 15.3407 46.5844C18.0171 47.9416 21.0949 48.7559 24.1059 48.8238C27.1168 48.8916 30.1947 48.2809 32.938 47.1273C35.6813 45.9058 38.157 44.2093 40.2312 42.1056C44.3796 37.9661 47.1229 32.4694 47.8589 26.4299C48.1934 23.444 48.0596 20.3225 47.1229 17.3366C46.253 14.3508 44.7141 11.5685 42.6399 9.26124L42.7068 9.3291Z" fill="black"/>
<mask id="path-4-outside-1_2946_28663" maskUnits="userSpaceOnUse" x="16" y="10" width="18" height="30" fill="black">
<rect fill="white" x="16" y="10" width="18" height="30"/>
<path d="M26.3398 36.092C25.8198 35.624 25.6118 35.052 25.6638 34.376C25.6638 34.064 25.6118 33.648 25.5598 33.44C25.5078 33.128 25.5078 32.92 25.5598 32.556C25.7158 31.672 25.8198 30.06 25.8198 26.732C25.8198 25.328 25.8718 24.132 25.8718 23.976L25.9238 23.716L25.7678 23.924C25.4038 24.444 24.8838 24.912 24.6758 24.964L24.1038 25.224C23.4798 25.536 22.4918 25.432 21.8678 25.068C21.5558 24.912 21.3998 24.704 20.6198 23.56C20.2558 23.04 19.9958 22.156 19.9438 21.428L19.7358 20.336C19.6318 20.024 19.5278 19.66 19.5278 19.452C19.5278 19.088 19.7878 18.048 20.0478 17.32C20.1518 17.112 20.2038 16.8 20.2038 16.54C20.2038 15.864 20.3598 15.396 20.6718 14.98C21.2958 14.148 21.6598 13.836 22.2838 13.628C22.9078 13.472 23.4278 13.576 23.6878 13.992C23.9998 14.356 24.2598 16.124 24.1038 16.904C23.9998 17.84 23.9478 22.728 24.0518 22.832C24.1558 22.988 24.7798 22.52 25.1958 22.052C25.6638 21.532 25.6638 21.428 25.7678 20.908C25.7678 20.7 25.8718 20.284 25.9758 20.024C26.1838 19.556 26.1838 19.504 26.1838 18.256C26.1838 16.8 26.1318 17.06 26.8598 15.864C27.4318 14.876 28.0558 14.564 28.8878 14.772C29.5638 14.98 30.0318 15.708 30.1878 16.8C30.3958 18.36 30.6038 18.204 30.2918 20.596C30.2918 20.96 30.2398 21.844 30.1878 22.624C30.1878 23.976 30.1878 24.028 29.9278 24.704C29.7198 25.328 29.7198 25.432 29.7198 26.42C29.6678 27.46 29.6158 28.76 29.4598 30.008C29.4078 30.372 29.4078 30.892 29.4078 31.204C29.4598 31.516 29.4598 31.776 29.3558 31.984C29.3038 32.14 29.2518 32.868 29.2518 33.752C29.1998 35.104 29.1998 35.26 29.0438 35.52C28.4198 36.716 27.2238 36.976 26.3398 36.092Z"/>
</mask>
<path d="M26.3398 36.092C25.8198 35.624 25.6118 35.052 25.6638 34.376C25.6638 34.064 25.6118 33.648 25.5598 33.44C25.5078 33.128 25.5078 32.92 25.5598 32.556C25.7158 31.672 25.8198 30.06 25.8198 26.732C25.8198 25.328 25.8718 24.132 25.8718 23.976L25.9238 23.716L25.7678 23.924C25.4038 24.444 24.8838 24.912 24.6758 24.964L24.1038 25.224C23.4798 25.536 22.4918 25.432 21.8678 25.068C21.5558 24.912 21.3998 24.704 20.6198 23.56C20.2558 23.04 19.9958 22.156 19.9438 21.428L19.7358 20.336C19.6318 20.024 19.5278 19.66 19.5278 19.452C19.5278 19.088 19.7878 18.048 20.0478 17.32C20.1518 17.112 20.2038 16.8 20.2038 16.54C20.2038 15.864 20.3598 15.396 20.6718 14.98C21.2958 14.148 21.6598 13.836 22.2838 13.628C22.9078 13.472 23.4278 13.576 23.6878 13.992C23.9998 14.356 24.2598 16.124 24.1038 16.904C23.9998 17.84 23.9478 22.728 24.0518 22.832C24.1558 22.988 24.7798 22.52 25.1958 22.052C25.6638 21.532 25.6638 21.428 25.7678 20.908C25.7678 20.7 25.8718 20.284 25.9758 20.024C26.1838 19.556 26.1838 19.504 26.1838 18.256C26.1838 16.8 26.1318 17.06 26.8598 15.864C27.4318 14.876 28.0558 14.564 28.8878 14.772C29.5638 14.98 30.0318 15.708 30.1878 16.8C30.3958 18.36 30.6038 18.204 30.2918 20.596C30.2918 20.96 30.2398 21.844 30.1878 22.624C30.1878 23.976 30.1878 24.028 29.9278 24.704C29.7198 25.328 29.7198 25.432 29.7198 26.42C29.6678 27.46 29.6158 28.76 29.4598 30.008C29.4078 30.372 29.4078 30.892 29.4078 31.204C29.4598 31.516 29.4598 31.776 29.3558 31.984C29.3038 32.14 29.2518 32.868 29.2518 33.752C29.1998 35.104 29.1998 35.26 29.0438 35.52C28.4198 36.716 27.2238 36.976 26.3398 36.092Z" fill="white"/>
<path d="M26.3398 36.092L28.4611 33.9707L28.4053 33.9149L28.3467 33.8621L26.3398 36.092ZM25.6638 34.376L28.655 34.6061L28.6638 34.4912V34.376H25.6638ZM25.5598 33.44L22.6006 33.9332L22.6203 34.0514L22.6494 34.1676L25.5598 33.44ZM25.5598 32.556L22.6055 32.0346L22.5969 32.0831L22.59 32.1317L25.5598 32.556ZM25.8718 23.976L22.9301 23.3876L22.8718 23.6789V23.976H25.8718ZM25.9238 23.716L28.8656 24.3043L23.5238 21.916L25.9238 23.716ZM25.7678 23.924L23.3678 22.124L23.3383 22.1633L23.3101 22.2036L25.7678 23.924ZM24.6758 24.964L23.9482 22.0536L23.6831 22.1198L23.4344 22.2329L24.6758 24.964ZM24.1038 25.224L22.8624 22.4929L22.8118 22.5159L22.7622 22.5407L24.1038 25.224ZM21.8678 25.068L23.3794 22.4767L23.2959 22.4279L23.2094 22.3847L21.8678 25.068ZM20.6198 23.56L23.0985 21.87L23.0881 21.8547L23.0775 21.8396L20.6198 23.56ZM19.9438 21.428L22.9362 21.2143L22.9237 21.0391L22.8908 20.8667L19.9438 21.428ZM19.7358 20.336L22.6828 19.7747L22.6453 19.5776L22.5819 19.3873L19.7358 20.336ZM20.0478 17.32L17.3645 15.9784L17.2835 16.1404L17.2226 16.311L20.0478 17.32ZM20.6718 14.98L18.2718 13.18L18.2718 13.18L20.6718 14.98ZM22.2838 13.628L21.5562 10.7176L21.4444 10.7455L21.3351 10.7819L22.2838 13.628ZM23.6878 13.992L21.1438 15.582L21.2633 15.7732L21.41 15.9444L23.6878 13.992ZM24.1038 16.904L21.1621 16.3156L21.1365 16.4433L21.1222 16.5727L24.1038 16.904ZM24.0518 22.832L26.548 21.1679L26.3832 20.9207L26.1731 20.7107L24.0518 22.832ZM25.1958 22.052L22.9659 20.0451L22.9597 20.052L22.9536 20.0589L25.1958 22.052ZM25.7678 20.908L28.7096 21.4963L28.7678 21.2051V20.908H25.7678ZM25.9758 20.024L23.2344 18.8056L23.2114 18.8573L23.1904 18.9098L25.9758 20.024ZM26.8598 15.864L29.4224 17.4238L29.4396 17.3957L29.4561 17.3671L26.8598 15.864ZM28.8878 14.772L29.7701 11.9047L29.6933 11.881L29.6154 11.8616L28.8878 14.772ZM30.1878 16.8L33.1615 16.4035L33.1596 16.3896L33.1577 16.3757L30.1878 16.8ZM30.2918 20.596L27.317 20.208L27.2918 20.4012V20.596H30.2918ZM30.1878 22.624L27.1945 22.4244L27.1878 22.5241V22.624H30.1878ZM29.9278 24.704L27.1278 23.6271L27.1033 23.6907L27.0818 23.7553L29.9278 24.704ZM29.7198 26.42L32.7161 26.5698L32.7198 26.495V26.42H29.7198ZM29.4598 30.008L32.4297 30.4323L32.4334 30.4062L32.4366 30.3801L29.4598 30.008ZM29.4078 31.204H26.4078V31.4523L26.4486 31.6972L29.4078 31.204ZM29.3558 31.984L26.6725 30.6424L26.5772 30.8331L26.5098 31.0353L29.3558 31.984ZM29.2518 33.752L32.2496 33.8673L32.2518 33.8097V33.752H29.2518ZM29.0438 35.52L26.4713 33.9765L26.4254 34.0531L26.3841 34.1323L29.0438 35.52ZM28.3467 33.8621C28.4009 33.9109 28.5096 34.0337 28.5857 34.2308C28.6599 34.4228 28.6579 34.5679 28.655 34.6061L22.6726 34.1459C22.5534 35.6966 23.0819 37.196 24.3329 38.3219L28.3467 33.8621ZM28.6638 34.376C28.6638 33.8503 28.5889 33.1872 28.4702 32.7124L22.6494 34.1676C22.6422 34.1387 22.6386 34.1209 22.6378 34.1173C22.6369 34.1126 22.6374 34.1145 22.6388 34.1233C22.6419 34.1418 22.6465 34.173 22.6511 34.2129C22.6556 34.2523 22.6592 34.2912 22.6614 34.3251C22.6637 34.3605 22.6638 34.3776 22.6638 34.376H28.6638ZM28.519 32.9468C28.5148 32.9218 28.5157 32.9228 28.5174 32.9403C28.5182 32.9492 28.5191 32.9611 28.5198 32.9752C28.5205 32.9893 28.5208 33.0036 28.5208 33.0175C28.5208 33.0313 28.5205 33.0426 28.5201 33.0508C28.5197 33.0588 28.5194 33.0625 28.5195 33.0609C28.5197 33.0592 28.5203 33.0522 28.5219 33.0388C28.5235 33.0252 28.526 33.0062 28.5297 32.9803L22.59 32.1317C22.5014 32.752 22.4906 33.2731 22.6006 33.9332L28.519 32.9468ZM28.5142 33.0774C28.7215 31.9027 28.8198 30.0467 28.8198 26.732H22.8198C22.8198 30.0733 22.7102 31.4413 22.6055 32.0346L28.5142 33.0774ZM28.8198 26.732C28.8198 26.0653 28.8322 25.4434 28.8448 24.9649C28.8511 24.726 28.8574 24.5245 28.8622 24.3687C28.8659 24.2522 28.8718 24.0763 28.8718 23.976H22.8718C22.8718 23.9537 22.8713 23.9858 22.8652 24.1813C22.8603 24.3375 22.8536 24.552 22.8469 24.8071C22.8334 25.3166 22.8198 25.9947 22.8198 26.732H28.8198ZM28.8136 24.5644L28.8656 24.3043L22.9821 23.1276L22.9301 23.3876L28.8136 24.5644ZM23.5238 21.916L23.3678 22.124L28.1678 25.724L28.3238 25.516L23.5238 21.916ZM23.3101 22.2036C23.2579 22.2783 23.1771 22.3695 23.1138 22.4287C23.0828 22.4577 23.0929 22.4443 23.1483 22.4051C23.1763 22.3852 23.243 22.3394 23.3434 22.2853C23.3951 22.2574 23.4684 22.2204 23.5604 22.1819C23.6499 22.1445 23.7818 22.0952 23.9482 22.0536L25.4034 27.8744C26.0261 27.7188 26.4779 27.3994 26.6177 27.3003C26.8405 27.1424 27.0423 26.9698 27.2128 26.8103C27.5525 26.4925 27.9138 26.0897 28.2255 25.6444L23.3101 22.2036ZM23.4344 22.2329L22.8624 22.4929L25.3452 27.9551L25.9172 27.6951L23.4344 22.2329ZM22.7622 22.5407C22.9419 22.4508 23.0778 22.424 23.1352 22.4154C23.1965 22.4063 23.2264 22.4092 23.227 22.4092C23.2288 22.4094 23.2309 22.4093 23.2412 22.4123C23.2487 22.4145 23.2981 22.4292 23.3794 22.4767L20.3562 27.6593C21.1162 28.1026 21.9681 28.3272 22.7447 28.3898C23.5012 28.4508 24.496 28.382 25.4455 27.9073L22.7622 22.5407ZM23.2094 22.3847C23.2461 22.403 23.305 22.4344 23.3756 22.4797C23.4478 22.526 23.5164 22.5765 23.5792 22.6293C23.7 22.7306 23.7584 22.8058 23.7412 22.7848C23.7206 22.7596 23.6661 22.6892 23.55 22.525C23.4372 22.3653 23.2943 22.1572 23.0985 21.87L18.1411 25.25C18.501 25.7779 18.8195 26.2445 19.0974 26.5842C19.4758 27.0467 19.9097 27.4431 20.5262 27.7513L23.2094 22.3847ZM23.0775 21.8396C23.1141 21.8918 23.1162 21.9061 23.0972 21.8645C23.0801 21.827 23.0557 21.7656 23.03 21.6828C22.9753 21.5065 22.9445 21.3301 22.9362 21.2143L16.9514 21.6417C17.0294 22.7331 17.3984 24.1894 18.1621 25.2804L23.0775 21.8396ZM22.8908 20.8667L22.6828 19.7747L16.7888 20.8973L16.9968 21.9893L22.8908 20.8667ZM22.5819 19.3873C22.5635 19.3323 22.547 19.2804 22.5329 19.2335C22.5186 19.1857 22.509 19.1503 22.5032 19.1274C22.5005 19.1165 22.4995 19.1116 22.4996 19.1123C22.4997 19.1126 22.5018 19.1225 22.5049 19.1408C22.5078 19.1584 22.5129 19.1919 22.5176 19.2384C22.52 19.2622 22.5225 19.2918 22.5244 19.3264C22.5263 19.3608 22.5278 19.4031 22.5278 19.452H16.5278C16.5278 19.9434 16.6328 20.3843 16.6824 20.5826C16.747 20.8412 16.8248 21.0898 16.8898 21.2847L22.5819 19.3873ZM22.5278 19.452C22.5278 19.5154 22.5251 19.5626 22.5233 19.588C22.5214 19.6147 22.5195 19.6316 22.5189 19.6365C22.5179 19.6447 22.5193 19.6314 22.5262 19.5925C22.5402 19.5138 22.5656 19.3931 22.6035 19.2389C22.6805 18.9257 22.7823 18.5829 22.873 18.329L17.2226 16.311C17.0533 16.7851 16.8951 17.3263 16.7771 17.8061C16.6872 18.1716 16.5278 18.8568 16.5278 19.452H22.5278ZM22.7311 18.6616C23.1161 17.8916 23.2038 17.07 23.2038 16.54H17.2038C17.2038 16.4827 17.2084 16.4378 17.2178 16.3882C17.2232 16.36 17.2331 16.3146 17.252 16.2542C17.2699 16.1966 17.3039 16.0997 17.3645 15.9784L22.7311 18.6616ZM23.2038 16.54C23.2038 16.433 23.2161 16.454 23.1882 16.5448C23.1745 16.5893 23.1552 16.6372 23.1309 16.684C23.107 16.7302 23.0847 16.7628 23.0718 16.78L18.2718 13.18C17.5136 14.191 17.2038 15.3163 17.2038 16.54H23.2038ZM23.0718 16.78C23.201 16.6077 23.2894 16.4993 23.3508 16.4294C23.4104 16.3618 23.4277 16.35 23.4102 16.3647C23.3869 16.3844 23.3437 16.4162 23.2884 16.4462C23.2366 16.4744 23.2091 16.4819 23.2325 16.474L21.3351 10.7819C20.7161 10.9883 20.1222 11.2895 19.5454 11.7753C19.0324 12.2073 18.622 12.7131 18.2718 13.18L23.0718 16.78ZM23.0114 16.5384C22.9995 16.5414 22.9445 16.5543 22.8512 16.5581C22.7583 16.5619 22.6059 16.5574 22.4133 16.5105C21.9779 16.4046 21.4734 16.1093 21.1438 15.582L26.2318 12.402C24.9418 10.338 22.6792 10.4368 21.5562 10.7176L23.0114 16.5384ZM21.41 15.9444C21.2749 15.7867 21.1894 15.6491 21.1433 15.5687C21.0945 15.4836 21.0641 15.4173 21.0485 15.3814C21.019 15.3131 21.0134 15.2858 21.023 15.3191C21.0417 15.3844 21.0738 15.5246 21.1021 15.7209C21.1297 15.9115 21.1456 16.0991 21.1495 16.2491C21.1514 16.3227 21.15 16.3713 21.1486 16.3953C21.1469 16.425 21.1467 16.3927 21.1621 16.3156L27.0456 17.4923C27.2262 16.589 27.1384 15.5408 27.0405 14.8631C26.9843 14.4744 26.9027 14.0556 26.7898 13.6627C26.7208 13.4226 26.5069 12.6711 25.9656 12.0396L21.41 15.9444ZM21.1222 16.5727C21.0497 17.225 21.0124 18.8534 21 20.1512C20.9933 20.8407 20.9931 21.5195 21.0019 22.0435C21.0061 22.3 21.013 22.5509 21.0248 22.7573C21.0303 22.8527 21.0397 22.9921 21.0581 23.1369C21.0663 23.2017 21.0852 23.3407 21.1248 23.5064C21.1441 23.5868 21.1838 23.7405 21.2563 23.9244C21.3009 24.0375 21.4848 24.5076 21.9305 24.9533L26.1731 20.7107C26.6156 21.1531 26.7963 21.6177 26.8378 21.7229C26.9073 21.8989 26.9439 22.0425 26.9602 22.1106C26.9939 22.2516 27.0072 22.3572 27.0102 22.3802C27.018 22.4416 27.0179 22.4643 27.015 22.4143C27.0102 22.3299 27.0049 22.1745 27.001 21.9435C26.9935 21.4925 26.9933 20.8713 26.9997 20.2088C27.006 19.549 27.0187 18.868 27.0358 18.3011C27.0444 18.0172 27.0539 17.7702 27.0637 17.573C27.0686 17.4746 27.0734 17.3943 27.0777 17.3318C27.0799 17.3009 27.0817 17.2769 27.0833 17.2592C27.0848 17.2409 27.0856 17.2337 27.0855 17.2353L21.1222 16.5727ZM21.5557 24.4961C22.245 25.5301 23.2957 25.8295 23.9825 25.8596C24.5795 25.8857 25.0441 25.7335 25.2504 25.6578C25.6965 25.4939 26.0492 25.2594 26.2369 25.1269C26.6638 24.8256 27.093 24.4333 27.438 24.0451L22.9536 20.0589C22.9284 20.0872 22.8894 20.1271 22.8442 20.1679C22.7971 20.2106 22.7709 20.2292 22.7768 20.2251C22.7805 20.2225 22.8085 20.2027 22.8591 20.1738C22.9017 20.1493 23.014 20.0872 23.1815 20.0257C23.3082 19.9792 23.7036 19.8416 24.245 19.8653C24.8762 19.893 25.8846 20.1729 26.548 21.1679L21.5557 24.4961ZM27.4257 24.0589C27.6818 23.7744 28.0699 23.3312 28.3455 22.73C28.6004 22.1738 28.6928 21.5803 28.7096 21.4963L22.8261 20.3196C22.8188 20.356 22.8119 20.3909 22.8064 20.4186C22.8006 20.448 22.7963 20.47 22.7923 20.4893C22.7841 20.5299 22.7822 20.5371 22.7839 20.5299C22.7903 20.5037 22.8208 20.3835 22.8911 20.23C22.9613 20.0769 23.032 19.9755 23.0577 19.9408C23.0682 19.9266 23.0687 19.9271 23.0523 19.9466C23.0359 19.9661 23.0088 19.9974 22.9659 20.0451L27.4257 24.0589ZM28.7678 20.908C28.7678 21.0012 28.7623 21.0707 28.7588 21.1072C28.755 21.1465 28.7511 21.1731 28.7492 21.1849C28.7458 21.2065 28.745 21.2063 28.75 21.1856C28.7545 21.1669 28.7602 21.1462 28.7655 21.129C28.7716 21.1093 28.7714 21.1129 28.7612 21.1382L23.1904 18.9098C23.0732 19.2029 22.9805 19.5151 22.9156 19.7854C22.8634 20.0032 22.7678 20.439 22.7678 20.908H28.7678ZM28.7172 21.2424C28.8548 20.933 29.0593 20.4653 29.1384 19.7731C29.1891 19.3298 29.1838 18.7802 29.1838 18.256H23.1838C23.1838 18.5785 23.1837 18.7854 23.181 18.941C23.1782 19.1014 23.1735 19.1243 23.1772 19.0919C23.18 19.0675 23.1861 19.023 23.1984 18.9649C23.2111 18.9052 23.2266 18.8491 23.2424 18.8003C23.2672 18.7237 23.2883 18.6843 23.2344 18.8056L28.7172 21.2424ZM29.1838 18.256C29.1838 18.1608 29.1836 18.0731 29.1834 17.9946C29.1832 17.9146 29.183 17.8467 29.183 17.7842C29.183 17.6552 29.1839 17.582 29.1855 17.5341C29.1886 17.4394 29.192 17.5864 29.128 17.8052C29.0647 18.0216 28.9827 18.1444 29.0361 18.0531C29.0632 18.0069 29.1017 17.9439 29.1722 17.8301C29.2376 17.7245 29.3239 17.5857 29.4224 17.4238L24.2972 14.3042C24.1725 14.509 23.9659 14.8378 23.858 15.022C23.7164 15.2639 23.511 15.6369 23.3696 16.1198C23.2276 16.6051 23.1986 17.0349 23.1887 17.3383C23.18 17.6026 23.1838 17.9573 23.1838 18.256H29.1838ZM29.4561 17.3671C29.5981 17.1218 29.5432 17.3286 29.18 17.5209C28.9847 17.6242 28.7658 17.6875 28.5506 17.7055C28.3471 17.7225 28.2076 17.6943 28.1602 17.6824L29.6154 11.8616C28.6446 11.6189 27.4931 11.6249 26.3727 12.2181C25.3464 12.7614 24.6935 13.6182 24.2635 14.3609L29.4561 17.3671ZM28.0056 17.6393C27.5428 17.4969 27.294 17.2088 27.2077 17.0744C27.1367 16.9636 27.1829 16.9788 27.218 17.2243L33.1577 16.3757C32.9386 14.842 32.1066 12.6236 29.7701 11.9047L28.0056 17.6393ZM27.2141 17.1965C27.2763 17.6627 27.3397 18.0065 27.3838 18.2498C27.4292 18.5007 27.4398 18.5731 27.4458 18.6422C27.4554 18.7549 27.469 19.0427 27.317 20.208L33.2666 20.984C33.4266 19.7573 33.4922 18.9271 33.4239 18.1298C33.3908 17.7439 33.3299 17.4133 33.2876 17.18C33.244 16.939 33.2033 16.7173 33.1615 16.4035L27.2141 17.1965ZM27.2918 20.596C27.2918 20.8371 27.2491 21.6055 27.1945 22.4244L33.1812 22.8236C33.2306 22.0825 33.2918 21.0829 33.2918 20.596H27.2918ZM27.1878 22.624C27.1878 22.9738 27.1877 23.196 27.1843 23.365C27.181 23.5336 27.1754 23.5704 27.1774 23.5543C27.1828 23.5097 27.1952 23.4533 27.2062 23.4166C27.2084 23.4094 27.206 23.4183 27.1927 23.4551C27.1786 23.4939 27.1593 23.545 27.1278 23.6271L32.7278 25.7809C32.8612 25.4342 33.0518 24.9487 33.1333 24.2807C33.1936 23.7858 33.1878 23.2023 33.1878 22.624H27.1878ZM27.0818 23.7553C26.965 24.1055 26.8283 24.5325 26.7652 25.0849C26.715 25.524 26.7198 26.0045 26.7198 26.42H32.7198C32.7198 26.1616 32.72 26.0051 32.7224 25.8843C32.7248 25.7689 32.7285 25.7479 32.7264 25.7661C32.725 25.7782 32.7225 25.7958 32.7188 25.8159C32.717 25.8252 32.7153 25.8331 32.714 25.8392C32.7133 25.8422 32.7127 25.8445 32.7123 25.8462C32.712 25.8478 32.7117 25.8486 32.7117 25.8486C32.7141 25.8396 32.726 25.7964 32.7739 25.6527L27.0818 23.7553ZM26.7236 26.2702C26.6691 27.3589 26.6218 28.5255 26.483 29.6359L32.4366 30.3801C32.6098 28.9945 32.6665 27.5611 32.7161 26.5698L26.7236 26.2702ZM26.49 29.5837C26.4014 30.2035 26.4078 30.9597 26.4078 31.204H32.4078C32.4078 31.0445 32.408 30.8793 32.4129 30.7164C32.4153 30.6367 32.4186 30.5687 32.4225 30.5134C32.4265 30.4551 32.4299 30.4303 32.4297 30.4323L26.49 29.5837ZM26.4486 31.6972C26.4551 31.736 26.4359 31.6469 26.4441 31.4832C26.4529 31.3064 26.496 30.9954 26.6725 30.6424L32.0391 33.3256C32.5846 32.2346 32.4442 31.1741 32.367 30.7108L26.4486 31.6972ZM26.5098 31.0353C26.3865 31.4052 26.3478 31.7692 26.338 31.8526C26.3175 32.028 26.302 32.2189 26.2902 32.4079C26.2663 32.7901 26.2518 33.2561 26.2518 33.752H32.2518C32.2518 33.3639 32.2634 33.0239 32.2785 32.7821C32.2862 32.6591 32.2934 32.5835 32.2972 32.5509C32.2992 32.534 32.2979 32.5488 32.2915 32.5856C32.2882 32.6048 32.2814 32.6415 32.2702 32.6904C32.2601 32.7342 32.2389 32.8217 32.2019 32.9327L26.5098 31.0353ZM26.254 33.6367C26.2407 33.9843 26.2316 34.2293 26.2226 34.4221C26.2182 34.516 26.2144 34.5857 26.2108 34.6387C26.2073 34.6924 26.2048 34.7172 26.2042 34.7231C26.2022 34.7415 26.2137 34.6126 26.2731 34.4239C26.3043 34.3248 26.3419 34.23 26.3833 34.1424C26.4227 34.0592 26.4572 34.0001 26.4713 33.9765L31.6163 37.0635C31.7339 36.8674 31.8818 36.5892 31.9965 36.2245C32.1014 35.8911 32.1454 35.59 32.1694 35.3679C32.2099 34.9936 32.2265 34.4666 32.2496 33.8673L26.254 33.6367ZM26.3841 34.1323C26.3858 34.129 26.5851 33.7754 27.1634 33.652C27.805 33.5152 28.2874 33.797 28.4611 33.9707L24.2185 38.2133C25.2762 39.271 26.7987 39.8648 28.4152 39.52C29.9685 39.1886 31.0778 38.107 31.7036 36.9077L26.3841 34.1323Z" fill="black" mask="url(#path-4-outside-1_2946_28663)"/>
</svg>
