<svg width="50" height="50" viewBox="0 0 50 50" fill="none" xmlns="http://www.w3.org/2000/svg">
<rect x="1.5" y="1.5" width="47" height="47" rx="23.5" stroke="black" stroke-width="3"/>
<path d="M25.0001 49.0226C38.0815 49.0226 48.6861 38.2673 48.6861 25.0001C48.6861 11.7328 38.0815 0.977539 25.0001 0.977539C11.9186 0.977539 1.31396 11.7328 1.31396 25.0001C1.31396 38.2673 11.9186 49.0226 25.0001 49.0226Z" fill="#76B82A"/>
<path d="M42.9745 9.05766C45.0487 11.4328 46.7883 14.1472 47.9927 17.0652C49.1971 20.051 49.9331 23.2404 50 26.5656C50 29.8908 49.3978 33.2159 48.0596 36.2696C46.7214 39.3233 44.6472 42.0377 42.1715 44.2093C39.629 46.3808 36.6849 47.9416 33.6071 48.8916C30.5292 49.8417 27.3176 50.181 24.1059 49.9095C17.7495 49.5024 11.5938 46.7879 7.04388 42.1056C4.76895 39.7983 2.89547 37.0161 1.6911 33.8945C0.486719 30.7729 -0.11547 27.4478 0.0183499 24.0548C0.15217 17.3366 3.16311 10.6184 8.11444 6.13967C10.5901 3.90028 13.5341 2.13592 16.6789 1.11801C19.8237 0.100109 23.1692 -0.239193 26.4477 0.167969C29.6594 0.57513 32.8042 1.66089 35.5475 3.15382C38.3577 4.71461 40.8334 6.68255 42.9076 9.05766H42.9745ZM42.7068 9.3291C40.6326 7.02185 38.0231 5.18963 35.2129 4.036C32.4027 2.88238 29.3249 2.40736 26.3808 2.47522C23.4368 2.54308 20.4928 3.22168 17.8164 4.30744C15.14 5.39321 12.6643 6.95399 10.5232 8.92194C8.38208 10.8899 6.70933 13.265 5.37114 15.8437C4.09985 18.4902 3.36384 21.3404 3.0962 24.2584C2.69474 30.0943 4.56822 36.2018 8.31517 40.8841C10.1886 43.1914 12.5974 45.2272 15.3407 46.5844C18.0171 47.9416 21.0949 48.7559 24.1059 48.8238C27.1168 48.8916 30.1947 48.2809 32.938 47.1273C35.6813 45.9058 38.157 44.2093 40.2312 42.1056C44.3796 37.9661 47.1229 32.4694 47.8589 26.4299C48.1934 23.444 48.0596 20.3225 47.1229 17.3366C46.253 14.3508 44.7141 11.5685 42.6399 9.26124L42.7068 9.3291Z" fill="black"/>
<mask id="path-4-outside-1_2946_28674" maskUnits="userSpaceOnUse" x="16" y="11" width="18" height="28" fill="black">
<rect fill="white" x="16" y="11" width="18" height="28"/>
<path d="M24.5935 35.156C23.7615 35.364 23.3975 35.312 22.4615 34.74L21.6295 34.272C21.3175 34.168 20.8495 33.804 20.6935 33.492C20.5895 33.336 20.4335 32.92 20.3295 32.504L20.1735 31.62C20.0695 31.152 20.5375 30.216 20.9535 30.06C21.2135 29.956 21.7335 30.008 21.9935 30.164C22.2535 30.32 22.2015 30.684 21.9415 30.892C21.7855 30.996 21.7335 31.1 21.7335 31.152C21.7335 31.36 21.9415 31.672 22.1495 31.776C22.5135 31.984 23.3975 32.14 23.7615 32.088C24.1775 32.036 25.0615 31.516 25.2695 31.256L25.6335 30.788C25.7375 30.632 25.8415 30.424 25.8935 30.216C25.9455 29.956 26.1015 29.488 26.3095 29.124L26.6215 28.448L26.5695 27.928C26.5175 27.616 26.5175 27.304 26.5695 26.94C26.6215 26.42 26.6215 26.368 26.4655 25.952C26.3615 25.744 26.2055 25.38 26.2055 25.12C26.0495 24.548 25.9455 24.288 25.4775 23.924C24.9055 23.404 24.6455 23.3 24.0735 23.3C23.6055 23.3 23.5015 23.3 23.1895 23.508L22.2535 24.08C21.5255 24.444 21.1095 24.496 20.6415 24.132C20.1215 23.872 20.0695 23.56 19.9655 22.416L19.8615 20.856C19.8095 20.544 19.8095 20.232 19.8095 20.18C19.8615 20.128 19.8095 19.452 19.7575 18.724C19.7055 17.528 19.7055 17.372 19.8095 17.008C20.0695 16.176 20.6415 15.344 21.1615 15.084C21.5255 14.928 22.0975 14.928 22.6695 15.032C23.0335 15.136 23.9175 15.136 25.1135 14.98C25.6335 14.876 27.0375 14.928 27.5575 15.032L28.7015 15.188C29.5335 15.292 29.6895 15.396 29.6895 15.864C29.6895 16.436 29.1695 16.8 27.7135 17.06C26.7775 17.268 26.7775 17.268 26.2575 17.164C25.6335 16.956 23.7615 17.008 23.3975 17.164C23.1375 17.268 23.1375 17.268 23.1895 17.58C23.3455 18.672 23.3455 18.724 22.9815 20.232C22.7215 21.22 22.7215 21.22 23.0855 21.012L23.9695 20.596C24.6455 20.336 24.5935 20.388 26.2055 20.388L27.1415 20.856C28.0255 21.272 28.1295 21.324 28.5975 21.896C29.1695 22.624 29.6895 23.56 30.0015 24.808C30.2615 25.9 30.4175 27.668 30.2095 28.24C30.1575 28.396 30.0535 28.864 30.0015 29.228C29.9495 29.644 29.8455 30.008 29.6895 30.268C29.5855 30.528 29.3775 30.996 29.2735 31.36C29.1695 31.724 29.0135 32.14 28.8575 32.348C28.7535 32.504 28.2335 33.076 27.7135 33.596C26.7255 34.584 26.2575 34.896 25.5815 34.948L24.5935 35.156Z"/>
</mask>
<path d="M24.5935 35.156C23.7615 35.364 23.3975 35.312 22.4615 34.74L21.6295 34.272C21.3175 34.168 20.8495 33.804 20.6935 33.492C20.5895 33.336 20.4335 32.92 20.3295 32.504L20.1735 31.62C20.0695 31.152 20.5375 30.216 20.9535 30.06C21.2135 29.956 21.7335 30.008 21.9935 30.164C22.2535 30.32 22.2015 30.684 21.9415 30.892C21.7855 30.996 21.7335 31.1 21.7335 31.152C21.7335 31.36 21.9415 31.672 22.1495 31.776C22.5135 31.984 23.3975 32.14 23.7615 32.088C24.1775 32.036 25.0615 31.516 25.2695 31.256L25.6335 30.788C25.7375 30.632 25.8415 30.424 25.8935 30.216C25.9455 29.956 26.1015 29.488 26.3095 29.124L26.6215 28.448L26.5695 27.928C26.5175 27.616 26.5175 27.304 26.5695 26.94C26.6215 26.42 26.6215 26.368 26.4655 25.952C26.3615 25.744 26.2055 25.38 26.2055 25.12C26.0495 24.548 25.9455 24.288 25.4775 23.924C24.9055 23.404 24.6455 23.3 24.0735 23.3C23.6055 23.3 23.5015 23.3 23.1895 23.508L22.2535 24.08C21.5255 24.444 21.1095 24.496 20.6415 24.132C20.1215 23.872 20.0695 23.56 19.9655 22.416L19.8615 20.856C19.8095 20.544 19.8095 20.232 19.8095 20.18C19.8615 20.128 19.8095 19.452 19.7575 18.724C19.7055 17.528 19.7055 17.372 19.8095 17.008C20.0695 16.176 20.6415 15.344 21.1615 15.084C21.5255 14.928 22.0975 14.928 22.6695 15.032C23.0335 15.136 23.9175 15.136 25.1135 14.98C25.6335 14.876 27.0375 14.928 27.5575 15.032L28.7015 15.188C29.5335 15.292 29.6895 15.396 29.6895 15.864C29.6895 16.436 29.1695 16.8 27.7135 17.06C26.7775 17.268 26.7775 17.268 26.2575 17.164C25.6335 16.956 23.7615 17.008 23.3975 17.164C23.1375 17.268 23.1375 17.268 23.1895 17.58C23.3455 18.672 23.3455 18.724 22.9815 20.232C22.7215 21.22 22.7215 21.22 23.0855 21.012L23.9695 20.596C24.6455 20.336 24.5935 20.388 26.2055 20.388L27.1415 20.856C28.0255 21.272 28.1295 21.324 28.5975 21.896C29.1695 22.624 29.6895 23.56 30.0015 24.808C30.2615 25.9 30.4175 27.668 30.2095 28.24C30.1575 28.396 30.0535 28.864 30.0015 29.228C29.9495 29.644 29.8455 30.008 29.6895 30.268C29.5855 30.528 29.3775 30.996 29.2735 31.36C29.1695 31.724 29.0135 32.14 28.8575 32.348C28.7535 32.504 28.2335 33.076 27.7135 33.596C26.7255 34.584 26.2575 34.896 25.5815 34.948L24.5935 35.156Z" fill="white"/>
<path d="M24.5935 35.156L23.9755 32.2204L23.9205 32.2319L23.8659 32.2456L24.5935 35.156ZM22.4615 34.74L24.0259 32.1802L23.9796 32.1519L23.9323 32.1253L22.4615 34.74ZM21.6295 34.272L23.1003 31.6573L22.8503 31.5167L22.5782 31.426L21.6295 34.272ZM20.6935 33.492L23.3768 32.1504L23.2933 31.9833L23.1897 31.8279L20.6935 33.492ZM20.3295 32.504L17.3752 33.0254L17.3935 33.1293L17.4191 33.2316L20.3295 32.504ZM20.1735 31.62L23.1279 31.0986L23.1164 31.0336L23.1021 30.9692L20.1735 31.62ZM20.9535 30.06L22.0069 32.869L22.0374 32.8575L22.0677 32.8454L20.9535 30.06ZM21.9935 30.164L20.4501 32.7365H20.4501L21.9935 30.164ZM21.9415 30.892L23.6056 33.3882L23.714 33.3159L23.8156 33.2346L21.9415 30.892ZM22.1495 31.776L23.638 29.1713L23.5657 29.13L23.4912 29.0927L22.1495 31.776ZM23.7615 32.088L23.3894 29.1112L23.3633 29.1144L23.3373 29.1182L23.7615 32.088ZM25.2695 31.256L27.6122 33.1301L27.625 33.114L27.6376 33.0978L25.2695 31.256ZM25.6335 30.788L28.0016 32.6298L28.0689 32.5433L28.1297 32.4521L25.6335 30.788ZM25.8935 30.216L28.804 30.9436L28.8213 30.8744L28.8353 30.8043L25.8935 30.216ZM26.3095 29.124L28.9143 30.6124L28.9789 30.4994L29.0334 30.3812L26.3095 29.124ZM26.6215 28.448L29.3454 29.7052L29.688 28.9629L29.6067 28.1495L26.6215 28.448ZM26.5695 27.928L29.5547 27.6295L29.5449 27.5317L29.5287 27.4348L26.5695 27.928ZM26.5695 26.94L29.5394 27.3643L29.5484 27.3015L29.5547 27.2385L26.5695 26.94ZM26.4655 25.952L29.2745 24.8986L29.2192 24.7512L29.1488 24.6104L26.4655 25.952ZM26.2055 25.12H29.2055V24.7182L29.0998 24.3306L26.2055 25.12ZM25.4775 23.924L23.4595 26.1438L23.5448 26.2213L23.6357 26.2921L25.4775 23.924ZM23.1895 23.508L24.7539 26.0678L24.8044 26.037L24.8536 26.0042L23.1895 23.508ZM22.2535 24.08L23.5952 26.7633L23.7092 26.7063L23.8179 26.6398L22.2535 24.08ZM20.6415 24.132L22.4834 21.7639L22.2489 21.5816L21.9832 21.4487L20.6415 24.132ZM19.9655 22.416L16.9722 22.6156L16.9746 22.6516L16.9779 22.6876L19.9655 22.416ZM19.8615 20.856L22.8549 20.6564L22.8451 20.5088L22.8207 20.3628L19.8615 20.856ZM19.8095 20.18L17.6882 18.0587L16.8095 18.9373V20.18H19.8095ZM19.7575 18.724L16.7604 18.8543L16.7622 18.8961L16.7652 18.9377L19.7575 18.724ZM19.8095 17.008L16.9461 16.1132L16.9351 16.1484L16.925 16.1838L19.8095 17.008ZM21.1615 15.084L19.9798 12.3266L19.8988 12.3613L19.8199 12.4007L21.1615 15.084ZM22.6695 15.032L23.4937 12.1474L23.3516 12.1068L23.2062 12.0804L22.6695 15.032ZM25.1135 14.98L25.5016 17.9548L25.6023 17.9417L25.7019 17.9217L25.1135 14.98ZM27.5575 15.032L26.9692 17.9737L27.0602 17.9919L27.1522 18.0045L27.5575 15.032ZM28.7015 15.188L28.2962 18.1605L28.3128 18.1628L28.3294 18.1648L28.7015 15.188ZM27.7135 17.06L27.1862 14.1067L27.1242 14.1178L27.0628 14.1314L27.7135 17.06ZM26.2575 17.164L25.3089 20.01L25.4861 20.0691L25.6692 20.1057L26.2575 17.164ZM23.3975 17.164L24.5117 19.9494L24.5457 19.9358L24.5793 19.9214L23.3975 17.164ZM23.1895 17.58L26.1594 17.1557L26.1545 17.1212L26.1487 17.0868L23.1895 17.58ZM22.9815 20.232L25.8828 20.9955L25.8906 20.9658L25.8978 20.9359L22.9815 20.232ZM23.0855 21.012L21.8082 18.2975L21.7005 18.3482L21.5971 18.4073L23.0855 21.012ZM23.9695 20.596L22.8926 17.796L22.7908 17.8351L22.6922 17.8815L23.9695 20.596ZM26.2055 20.388L27.5472 17.7047L26.9138 17.388H26.2055V20.388ZM27.1415 20.856L25.7999 23.5393L25.8318 23.5553L25.8642 23.5705L27.1415 20.856ZM28.5975 21.896L30.9565 20.0425L30.9382 20.0192L30.9194 19.9963L28.5975 21.896ZM30.0015 24.808L32.92 24.1131L32.9161 24.0967L32.912 24.0804L30.0015 24.808ZM30.2095 28.24L27.3902 27.2148L27.3763 27.2529L27.3635 27.2913L30.2095 28.24ZM30.0015 29.228L27.0317 28.8037L27.028 28.8298L27.0247 28.8559L30.0015 29.228ZM29.6895 30.268L27.1171 28.7245L26.9934 28.9306L26.9041 29.1538L29.6895 30.268ZM29.2735 31.36L32.1581 32.1842L29.2735 31.36ZM28.8575 32.348L26.4575 30.548L26.4076 30.6146L26.3614 30.6839L28.8575 32.348ZM27.7135 33.596L25.5922 31.4747H25.5922L27.7135 33.596ZM25.5815 34.948L25.3515 31.9568L25.1557 31.9719L24.9635 32.0124L25.5815 34.948ZM23.8659 32.2456C23.7992 32.2623 23.7608 32.2704 23.7415 32.274C23.723 32.2775 23.7327 32.2749 23.7628 32.2721C23.7947 32.2691 23.8464 32.2662 23.9128 32.2687C23.9802 32.2713 24.0502 32.2789 24.1194 32.2919C24.2604 32.3183 24.3383 32.3556 24.3242 32.3492C24.3154 32.3451 24.2878 32.3319 24.236 32.3033C24.1841 32.2747 24.1159 32.2352 24.0259 32.1802L20.8972 37.2998C21.4179 37.6181 22.1341 38.0242 23.0137 38.1891C23.9673 38.3679 24.7725 38.2036 25.3212 38.0664L23.8659 32.2456ZM23.9323 32.1253L23.1003 31.6573L20.1588 36.8867L20.9908 37.3547L23.9323 32.1253ZM22.5782 31.426C22.762 31.4872 22.8734 31.5517 22.9068 31.5715C22.9511 31.5978 22.9789 31.6187 22.9981 31.6343C23.0163 31.6492 23.0538 31.6813 23.1052 31.7392C23.1472 31.7865 23.263 31.9226 23.3768 32.1504L18.0103 34.8336C18.3601 35.5332 18.8825 36.0205 19.208 36.2857C19.5489 36.5634 20.0625 36.9119 20.6809 37.118L22.5782 31.426ZM23.1897 31.8279C23.2198 31.8731 23.2434 31.9116 23.2604 31.9407C23.2777 31.9701 23.2912 31.9947 23.301 32.0131C23.32 32.0489 23.3313 32.073 23.3351 32.0815C23.3395 32.091 23.3402 32.093 23.3375 32.0866C23.3351 32.0805 23.3307 32.0695 23.3248 32.0536C23.3127 32.0209 23.2977 31.9774 23.282 31.9264C23.2663 31.8757 23.252 31.8244 23.24 31.7764L17.4191 33.2316C17.4975 33.5453 17.5949 33.8583 17.6983 34.1374C17.7751 34.3449 17.9388 34.7683 18.1974 35.1561L23.1897 31.8279ZM23.2839 31.9826L23.1279 31.0986L17.2192 32.1414L17.3752 33.0254L23.2839 31.9826ZM23.1021 30.9692C23.2112 31.4602 23.132 31.8064 23.1172 31.8709C23.0921 31.9806 23.0642 32.0399 23.0518 32.0646C23.0404 32.0875 23.004 32.1577 22.9149 32.2613C22.8664 32.3175 22.5784 32.6547 22.0069 32.869L19.9002 27.251C19.1207 27.5433 18.6182 28.056 18.3682 28.3462C18.0776 28.6838 17.8527 29.0465 17.6853 29.3814C17.5169 29.7181 17.3655 30.1089 17.2689 30.5306C17.1826 30.9071 17.0839 31.5458 17.245 32.2708L23.1021 30.9692ZM22.0677 32.8454C21.7646 32.9667 21.5276 32.9928 21.4338 33.0004C21.3196 33.0098 21.2338 33.0055 21.175 32.9996C21.1152 32.9936 21.039 32.9816 20.9442 32.9548C20.8628 32.9319 20.6786 32.8736 20.4501 32.7365L23.537 27.5915C22.8843 27.1999 22.2038 27.0726 21.7721 27.0294C21.3666 26.9888 20.615 26.9643 19.8394 27.2746L22.0677 32.8454ZM20.4501 32.7365C19.463 32.1442 19.0941 31.0847 19.1761 30.2241C19.2485 29.4638 19.6363 28.8943 20.0675 28.5494L23.8156 33.2346C24.5068 32.6817 25.0506 31.8262 25.149 30.7929C25.257 29.6593 24.7841 28.3398 23.537 27.5915L20.4501 32.7365ZM20.2774 28.3958C19.9502 28.614 19.6159 28.9085 19.3378 29.2978C19.1103 29.6163 18.7335 30.2627 18.7335 31.152H24.7335C24.7335 31.6097 24.6265 31.9706 24.5378 32.1973C24.4424 32.4411 24.3265 32.6365 24.2202 32.7852C24.0072 33.0835 23.7769 33.274 23.6056 33.3882L20.2774 28.3958ZM18.7335 31.152C18.7335 32.0995 19.1353 32.819 19.3674 33.1671C19.6224 33.5495 20.0838 34.0972 20.8079 34.4593L23.4912 29.0927C23.7794 29.2368 23.9723 29.401 24.0819 29.5069C24.1991 29.6203 24.2891 29.733 24.3597 29.8389C24.4293 29.9433 24.5075 30.0823 24.5752 30.2609C24.6361 30.422 24.7335 30.7335 24.7335 31.152H18.7335ZM20.6611 34.3807C21.2917 34.741 22.0081 34.9041 22.4027 34.9781C22.7883 35.0504 23.4987 35.156 24.1858 35.0578L23.3373 29.1182C23.4673 29.0996 23.5577 29.0982 23.5874 29.0981C23.6237 29.0979 23.6401 29.0995 23.6334 29.099C23.618 29.0978 23.5719 29.0928 23.5084 29.0809C23.4447 29.0689 23.4011 29.0571 23.3872 29.0528C23.3815 29.0511 23.3971 29.0555 23.4299 29.0688C23.4585 29.0803 23.5345 29.1121 23.638 29.1713L20.6611 34.3807ZM24.1337 35.0648C24.9745 34.9597 25.7445 34.5455 26.0697 34.3617C26.3018 34.2305 26.5427 34.079 26.7672 33.916C26.9353 33.794 27.2994 33.5211 27.6122 33.1301L22.9269 29.3819C22.9965 29.295 23.0569 29.2313 23.0956 29.1923C23.136 29.1517 23.1685 29.1223 23.1888 29.1046C23.2275 29.0708 23.2481 29.0564 23.2421 29.0607C23.2294 29.07 23.1843 29.1005 23.1174 29.1383C23.05 29.1764 23.0034 29.1977 22.9918 29.2025C22.9872 29.2044 23.0108 29.1942 23.0594 29.1793C23.0998 29.1669 23.2171 29.1327 23.3894 29.1112L24.1337 35.0648ZM27.6376 33.0978L28.0016 32.6298L23.2655 28.9462L22.9015 29.4142L27.6376 33.0978ZM28.1297 32.4521C28.3765 32.082 28.6499 31.5599 28.804 30.9436L22.9831 29.4884C23.0122 29.372 23.0454 29.2939 23.0645 29.2528C23.0846 29.2097 23.1075 29.1688 23.1374 29.1239L28.1297 32.4521ZM28.8353 30.8043C28.8273 30.8442 28.8236 30.8529 28.8306 30.829C28.8365 30.8089 28.8463 30.7783 28.8597 30.7418C28.873 30.7053 28.8867 30.6719 28.899 30.6446C28.9119 30.6161 28.9179 30.606 28.9143 30.6124L23.7048 27.6356C23.3234 28.3031 23.0615 29.0792 22.9518 29.6276L28.8353 30.8043ZM29.0334 30.3812L29.3454 29.7052L23.8977 27.1908L23.5857 27.8668L29.0334 30.3812ZM29.6067 28.1495L29.5547 27.6295L23.5844 28.2265L23.6364 28.7465L29.6067 28.1495ZM29.5287 27.4348C29.5291 27.4373 29.5297 27.4416 29.5301 27.4466C29.5306 27.4516 29.5305 27.4543 29.5305 27.4535C29.5305 27.4527 29.5305 27.4267 29.5394 27.3643L23.5997 26.5157C23.5111 27.136 23.5003 27.7611 23.6104 28.4212L29.5287 27.4348ZM29.5547 27.2385C29.5708 27.0768 29.6299 26.601 29.5807 26.1085C29.5237 25.5393 29.3431 25.0815 29.2745 24.8986L23.6566 27.0054C23.6734 27.0502 23.6818 27.0735 23.6862 27.086C23.6904 27.0981 23.6859 27.086 23.6779 27.0588C23.6693 27.0297 23.6558 26.9805 23.6426 26.9163C23.6289 26.8502 23.6178 26.7793 23.6104 26.7055C23.5957 26.5586 23.6019 26.4572 23.6022 26.452C23.6023 26.4501 23.6016 26.4617 23.5984 26.4969C23.5953 26.5322 23.5909 26.5765 23.5844 26.6415L29.5547 27.2385ZM29.1488 24.6104C29.1351 24.5829 29.1275 24.5625 29.13 24.5699C29.1321 24.5758 29.1462 24.6164 29.1616 24.6865C29.1751 24.7476 29.2055 24.9022 29.2055 25.12H23.2055C23.2055 25.7553 23.3755 26.2894 23.4631 26.5411C23.5696 26.8475 23.692 27.1131 23.7823 27.2936L29.1488 24.6104ZM29.0998 24.3306C29.0237 24.0516 28.8773 23.5051 28.5633 22.9556C28.2071 22.3323 27.7552 21.8949 27.3194 21.5559L23.6357 26.2921C23.6613 26.312 23.6246 26.2863 23.5624 26.2188C23.4925 26.1432 23.4184 26.0454 23.3538 25.9324C23.2933 25.8265 23.2658 25.75 23.2628 25.7415C23.2617 25.7384 23.2653 25.7482 23.2742 25.7779C23.2832 25.8081 23.2948 25.8491 23.3113 25.9094L29.0998 24.3306ZM27.4956 21.7042C27.1589 21.3981 26.6536 20.9641 25.978 20.6685C25.2251 20.3391 24.5431 20.3 24.0735 20.3V26.3C24.1349 26.3 24.0876 26.3036 23.9881 26.288C23.8698 26.2694 23.7238 26.2314 23.5731 26.1655C23.4322 26.1038 23.3472 26.0439 23.3307 26.0318C23.3218 26.0253 23.3561 26.0498 23.4595 26.1438L27.4956 21.7042ZM24.0735 20.3C23.964 20.3 23.4551 20.2851 22.955 20.3904C22.2854 20.5313 21.8086 20.8231 21.5254 21.0118L24.8536 26.0042C24.8777 25.9881 24.8111 26.035 24.6917 26.0923C24.5488 26.1609 24.3781 26.2223 24.1911 26.2616C24.0257 26.2965 23.909 26.3006 23.903 26.3008C23.8985 26.301 23.9069 26.3006 23.9393 26.3003C23.9724 26.3 24.0118 26.3 24.0735 26.3V20.3ZM21.6252 20.9482L20.6892 21.5202L23.8179 26.6398L24.7539 26.0678L21.6252 20.9482ZM20.9119 21.3967C20.7969 21.4542 20.7687 21.4614 20.7977 21.4515C20.83 21.4406 20.9742 21.3943 21.1964 21.3829C21.4386 21.3705 21.71 21.4028 21.9787 21.4967C22.234 21.586 22.4035 21.7018 22.4834 21.7639L18.7997 26.5001C19.4915 27.0381 20.4028 27.4315 21.5037 27.3751C22.4061 27.3288 23.1556 26.9831 23.5952 26.7633L20.9119 21.3967ZM21.9832 21.4487C22.0436 21.4789 22.2668 21.5972 22.5046 21.8472C22.7606 22.1162 22.9011 22.3969 22.9711 22.5919C23.0263 22.7455 23.0283 22.8223 23.012 22.7077C22.9966 22.5995 22.9799 22.438 22.9532 22.1444L16.9779 22.6876C17.0167 23.115 17.0742 23.9233 17.324 24.6191C17.4849 25.0676 17.7425 25.5466 18.1578 25.983C18.5548 26.4003 18.9795 26.6551 19.2999 26.8153L21.9832 21.4487ZM22.9589 22.2164L22.8549 20.6564L16.8682 21.0556L16.9722 22.6156L22.9589 22.2164ZM22.8207 20.3628C22.8207 20.3628 22.819 20.3522 22.8169 20.3308C22.8149 20.3101 22.8132 20.2868 22.8119 20.2628C22.8094 20.2152 22.8095 20.1836 22.8095 20.18H16.8095C16.8095 20.2551 16.807 20.777 16.9024 21.3492L22.8207 20.3628ZM21.9309 22.3013C22.4655 21.7667 22.6436 21.1811 22.6848 21.0473C22.7533 20.8252 22.7827 20.6399 22.7959 20.5447C22.8233 20.3471 22.8284 20.1772 22.8301 20.0923C22.8338 19.9037 22.8262 19.7079 22.819 19.5593C22.8039 19.2495 22.7744 18.8524 22.7499 18.5103L16.7652 18.9377C16.7927 19.3236 16.8152 19.6285 16.8261 19.8517C16.8319 19.9696 16.8308 19.998 16.8313 19.9735C16.8313 19.9707 16.8323 19.8678 16.8529 19.72C16.8626 19.6497 16.8878 19.485 16.9514 19.2789C16.9841 19.1728 17.0407 19.0105 17.1354 18.8226C17.225 18.6449 17.3943 18.3526 17.6882 18.0587L21.9309 22.3013ZM22.7547 18.5937C22.7416 18.2925 22.7327 18.0777 22.7277 17.912C22.7226 17.7429 22.723 17.6676 22.7239 17.6373C22.7244 17.6195 22.7238 17.6668 22.7109 17.7455C22.6984 17.8222 22.6838 17.8682 22.6941 17.8322L16.925 16.1838C16.6603 17.1103 16.7145 17.7988 16.7604 18.8543L22.7547 18.5937ZM22.673 17.9028C22.688 17.8546 22.7126 17.7914 22.7472 17.7214C22.7817 17.6515 22.8178 17.592 22.8479 17.5488C22.8802 17.5026 22.8891 17.4987 22.862 17.5251C22.847 17.5398 22.8138 17.5706 22.7607 17.6103C22.7085 17.6493 22.623 17.7074 22.5032 17.7673L19.8199 12.4007C18.9163 12.8525 18.2957 13.5878 17.9282 14.1142C17.5178 14.702 17.1708 15.3942 16.9461 16.1132L22.673 17.9028ZM22.3433 17.8414C22.1797 17.9115 22.0554 17.9384 21.9977 17.9487C21.9365 17.9596 21.9059 17.9597 21.9125 17.9596C21.9173 17.9594 21.9409 17.9593 21.9832 17.963C22.0246 17.9666 22.0754 17.9732 22.1329 17.9836L23.2062 12.0804C22.4663 11.9459 21.1719 11.8157 19.9798 12.3266L22.3433 17.8414ZM21.8454 17.9166C22.4764 18.0969 23.1615 18.1104 23.6264 18.1031C24.1803 18.0945 24.8168 18.0441 25.5016 17.9548L24.7255 12.0052C24.2143 12.0719 23.8108 12.0995 23.5327 12.1039C23.3934 12.106 23.31 12.1019 23.2754 12.0992C23.2183 12.0946 23.315 12.0964 23.4937 12.1474L21.8454 17.9166ZM25.7019 17.9217C25.6293 17.9363 25.5968 17.9378 25.6255 17.9351C25.6471 17.9331 25.69 17.93 25.7561 17.9274C25.8894 17.9224 26.0629 17.9217 26.2545 17.9269C26.4446 17.932 26.628 17.9422 26.7784 17.9549C26.9506 17.9693 27.0045 17.9808 26.9692 17.9737L28.1459 12.0903C27.6254 11.9862 26.9349 11.9431 26.4166 11.9291C25.9397 11.9162 25.1523 11.9128 24.5252 12.0383L25.7019 17.9217ZM27.1522 18.0045L28.2962 18.1605L29.1069 12.2155L27.9629 12.0595L27.1522 18.0045ZM28.3294 18.1648C28.511 18.1875 28.5416 18.1972 28.5048 18.1884C28.4862 18.1839 28.1803 18.1155 27.8175 17.8682C27.3638 17.5588 27.013 17.1044 26.8276 16.5865C26.7494 16.3679 26.7177 16.1854 26.7037 16.0715C26.6899 15.9595 26.6895 15.8823 26.6895 15.864H32.6895C32.6895 15.6311 32.6783 15.1279 32.4767 14.5647C32.2361 13.8923 31.7943 13.3177 31.1976 12.9108C30.6918 12.566 30.1909 12.4229 29.9091 12.355C29.609 12.2828 29.3081 12.2405 29.0737 12.2112L28.3294 18.1648ZM26.6895 15.864C26.6895 15.5264 26.7741 15.1086 27.0162 14.707C27.245 14.3273 27.5183 14.122 27.6576 14.035C27.7862 13.9546 27.8401 13.9495 27.7375 13.9817C27.6428 14.0115 27.4695 14.0561 27.1862 14.1067L28.2409 20.0133C29.0507 19.8687 30.0179 19.6352 30.8375 19.123C31.2888 18.841 31.7831 18.4212 32.1549 17.8043C32.54 17.1654 32.6895 16.4876 32.6895 15.864H26.6895ZM27.0628 14.1314C26.9438 14.1579 26.8486 14.179 26.766 14.197C26.6833 14.215 26.6255 14.2271 26.5825 14.2356C26.5394 14.2441 26.5249 14.2462 26.5282 14.2457C26.5331 14.245 26.5652 14.2402 26.6158 14.2366C26.6696 14.2328 26.7328 14.231 26.8018 14.2334C26.8699 14.2357 26.9243 14.2413 26.9585 14.2458C26.9884 14.2497 27.0001 14.2523 26.9769 14.248C26.9508 14.2432 26.9167 14.2364 26.8459 14.2223L25.6692 20.1057C25.8691 20.1457 26.3925 20.2679 27.0433 20.2214C27.5048 20.1884 28.0155 20.0661 28.3643 19.9886L27.0628 14.1314ZM27.2062 14.3179C26.6941 14.1472 26.1635 14.0904 25.8425 14.0642C25.4612 14.0331 25.0623 14.0237 24.6971 14.0277C24.3323 14.0317 23.9544 14.0497 23.6127 14.0837C23.4252 14.1024 22.7919 14.1597 22.2158 14.4066L24.5793 19.9214C24.4188 19.9902 24.2944 20.0246 24.2454 20.0375C24.1869 20.0528 24.1485 20.06 24.1387 20.0618C24.1209 20.065 24.1407 20.0608 24.2077 20.0541C24.339 20.0411 24.5363 20.0298 24.763 20.0273C24.9893 20.0248 25.1982 20.0316 25.3547 20.0444C25.4323 20.0507 25.4755 20.0568 25.4882 20.0589C25.5137 20.063 25.4395 20.0536 25.3089 20.01L27.2062 14.3179ZM22.2834 14.3786C22.2601 14.3879 22.1976 14.4127 22.1355 14.4392C22.0748 14.465 21.9527 14.5183 21.8115 14.5953C21.5347 14.7463 20.9001 15.1388 20.4933 15.9524C20.1161 16.7068 20.1558 17.396 20.1712 17.6117C20.1869 17.8314 20.2273 18.0547 20.2304 18.0732L26.1487 17.0868C26.1258 16.9493 26.1467 17.0556 26.1559 17.1843C26.1648 17.309 26.211 17.9332 25.8598 18.6356C25.479 19.3972 24.8899 19.7507 24.6846 19.8627C24.5263 19.949 24.3766 20.0035 24.5117 19.9494L22.2834 14.3786ZM20.2197 18.0043C20.3071 18.6164 20.2857 18.5684 20.2894 18.5199C20.2902 18.5094 20.2882 18.5521 20.2526 18.7231C20.2153 18.9024 20.1587 19.141 20.0653 19.5281L25.8978 20.9359C26.0578 20.2731 26.223 19.6132 26.2717 18.9801C26.3274 18.2556 26.228 17.6356 26.1594 17.1557L20.2197 18.0043ZM20.0803 19.4685C20.0213 19.6929 19.9565 19.9373 19.9117 20.1343C19.8889 20.2345 19.857 20.383 19.8337 20.5483C19.8167 20.6686 19.7674 21.0287 19.8259 21.467C19.8804 21.8764 20.1366 23.0676 21.3862 23.75C22.4857 24.3506 23.505 24.0596 23.723 23.9957C24.0443 23.9015 24.2897 23.7719 24.3576 23.7364C24.4512 23.6874 24.5439 23.6339 24.574 23.6167L21.5971 18.4073C21.5362 18.4421 21.5492 18.4341 21.5742 18.4211C21.5917 18.4119 21.6374 18.3883 21.7016 18.3598C21.7618 18.3331 21.8789 18.2838 22.0354 18.2379C22.2062 18.1878 23.1889 17.8981 24.2621 18.4842C25.4852 19.1522 25.7251 20.3134 25.7732 20.674C25.8252 21.0636 25.7791 21.3562 25.7747 21.3873C25.764 21.4635 25.7541 21.5011 25.7621 21.4656C25.7791 21.3912 25.8118 21.2651 25.8828 20.9955L20.0803 19.4685ZM24.3629 23.7265L25.2469 23.3105L22.6922 17.8815L21.8082 18.2975L24.3629 23.7265ZM25.0465 23.396C25.223 23.3281 25.2181 23.334 25.1719 23.3467C25.0762 23.373 24.9869 23.3843 24.9503 23.3869C24.9467 23.3871 24.9646 23.3858 25.0201 23.3848C25.076 23.3838 25.1508 23.3835 25.2607 23.3839C25.4598 23.3846 25.8023 23.388 26.2055 23.388V17.388C25.8028 17.388 25.5473 17.3849 25.2817 17.384C25.0551 17.3832 24.7853 17.3834 24.5228 17.4021C23.7896 17.4545 23.293 17.642 22.8926 17.796L25.0465 23.396ZM24.8639 23.0713L25.7999 23.5393L28.4832 18.1727L27.5472 17.7047L24.8639 23.0713ZM25.8642 23.5705C26.0988 23.6809 26.2219 23.7394 26.31 23.7845C26.3889 23.8248 26.3652 23.8172 26.3052 23.7752C26.2296 23.7223 26.1721 23.6688 26.1473 23.6433C26.142 23.6378 26.1688 23.6651 26.2757 23.7957L30.9194 19.9963C30.6657 19.6862 30.3034 19.25 29.7459 18.8598C29.2912 18.5415 28.7667 18.3052 28.4189 18.1415L25.8642 23.5705ZM26.2386 23.7495C26.5706 24.172 26.8896 24.7294 27.0911 25.5356L32.912 24.0804C32.4895 22.3906 31.7685 21.076 30.9565 20.0425L26.2386 23.7495ZM27.0831 25.5029C27.1691 25.8639 27.2523 26.4137 27.2884 26.9285C27.3061 27.1812 27.3086 27.3744 27.3038 27.4957C27.3014 27.5555 27.2982 27.5691 27.3015 27.546C27.3027 27.538 27.3201 27.4075 27.3902 27.2148L33.0289 29.2652C33.2461 28.6679 33.2857 28.0654 33.2989 27.7363C33.3152 27.3311 33.3015 26.9068 33.2737 26.5095C33.2188 25.7243 33.094 24.8441 32.92 24.1131L27.0831 25.5029ZM27.3635 27.2913C27.2313 27.688 27.096 28.3535 27.0317 28.8037L32.9714 29.6523C32.9851 29.5566 33.0101 29.4191 33.039 29.2846C33.0528 29.2202 33.0647 29.1693 33.0728 29.1366C33.0769 29.1204 33.0786 29.1145 33.0778 29.1174C33.0773 29.1191 33.0755 29.1256 33.0724 29.136C33.0694 29.1458 33.0638 29.1641 33.0556 29.1887L27.3635 27.2913ZM27.0247 28.8559C27.0153 28.9313 27.0058 28.9622 27.0082 28.9542C27.0098 28.9488 27.0166 28.9263 27.0319 28.8901C27.0469 28.8544 27.0737 28.7968 27.1171 28.7245L32.262 31.8115C32.7163 31.0544 32.8994 30.2318 32.9784 29.6001L27.0247 28.8559ZM26.9041 29.1538C26.8761 29.2239 26.5492 29.9751 26.389 30.5358L32.1581 32.1842C32.1666 32.1544 32.198 32.0617 32.267 31.8892C32.2981 31.8112 32.3306 31.7326 32.3661 31.6473C32.3977 31.5711 32.4398 31.47 32.475 31.3822L26.9041 29.1538ZM26.389 30.5358C26.3757 30.5824 26.3608 30.6301 26.3455 30.6752C26.33 30.7209 26.3166 30.7565 26.3068 30.7806C26.3021 30.7922 26.2993 30.7984 26.2987 30.7996C26.2981 30.801 26.3011 30.7942 26.3083 30.7804C26.3151 30.7671 26.329 30.741 26.3507 30.7053C26.3617 30.6871 26.3758 30.6647 26.393 30.639C26.4101 30.6134 26.4316 30.5827 26.4575 30.548L31.2575 34.148C31.5689 33.7329 31.7621 33.2929 31.8633 33.0444C31.9839 32.7485 32.0828 32.4478 32.1581 32.1842L26.389 30.5358ZM26.3614 30.6839C26.3946 30.6341 26.4207 30.5988 26.4319 30.5839C26.4447 30.5668 26.4528 30.5565 26.4543 30.5547C26.4567 30.5517 26.4488 30.5616 26.4272 30.587C26.3842 30.6373 26.317 30.7133 26.2275 30.8112C26.0493 31.0061 25.8202 31.2467 25.5922 31.4747L29.8349 35.7173C30.1269 35.4253 30.4178 35.1199 30.6556 34.8598C30.8189 34.6813 31.1485 34.3199 31.3537 34.0121L26.3614 30.6839ZM25.5922 31.4747C25.3684 31.6985 25.2068 31.851 25.0845 31.9578C24.9621 32.0648 24.9114 32.0974 24.9134 32.0962C24.9246 32.089 24.9919 32.0482 25.1033 32.0107C25.217 31.9724 25.3096 31.9601 25.3515 31.9568L25.8116 37.9392C27.6779 37.7956 28.8338 36.7184 29.8349 35.7173L25.5922 31.4747ZM24.9635 32.0124L23.9755 32.2204L25.2116 38.0916L26.1996 37.8836L24.9635 32.0124Z" fill="black" mask="url(#path-4-outside-1_2946_28674)"/>
</svg>
