<svg width="50" height="50" viewBox="0 0 50 50" fill="none" xmlns="http://www.w3.org/2000/svg">
<rect x="1.5" y="1.5" width="47" height="47" rx="23.5" stroke="black" stroke-width="3"/>
<path d="M25.0001 49.0226C38.0815 49.0226 48.6861 38.2673 48.6861 25.0001C48.6861 11.7328 38.0815 0.977539 25.0001 0.977539C11.9186 0.977539 1.31396 11.7328 1.31396 25.0001C1.31396 38.2673 11.9186 49.0226 25.0001 49.0226Z" fill="#76B82A"/>
<path d="M42.9745 9.05766C45.0487 11.4328 46.7883 14.1472 47.9927 17.0652C49.1971 20.051 49.9331 23.2404 50 26.5656C50 29.8908 49.3978 33.2159 48.0596 36.2696C46.7214 39.3233 44.6472 42.0377 42.1715 44.2093C39.629 46.3808 36.6849 47.9416 33.6071 48.8916C30.5292 49.8417 27.3176 50.181 24.1059 49.9095C17.7495 49.5024 11.5938 46.7879 7.04388 42.1056C4.76895 39.7983 2.89547 37.0161 1.6911 33.8945C0.486719 30.7729 -0.11547 27.4478 0.0183499 24.0548C0.15217 17.3366 3.16311 10.6184 8.11444 6.13967C10.5901 3.90028 13.5341 2.13592 16.6789 1.11801C19.8237 0.100109 23.1692 -0.239193 26.4477 0.167969C29.6594 0.57513 32.8042 1.66089 35.5475 3.15382C38.3577 4.71461 40.8334 6.68255 42.9076 9.05766H42.9745ZM42.7068 9.3291C40.6326 7.02185 38.0231 5.18963 35.2129 4.036C32.4027 2.88238 29.3249 2.40736 26.3808 2.47522C23.4368 2.54308 20.4928 3.22168 17.8164 4.30744C15.14 5.39321 12.6643 6.95399 10.5232 8.92194C8.38208 10.8899 6.70933 13.265 5.37114 15.8437C4.09985 18.4902 3.36384 21.3404 3.0962 24.2584C2.69474 30.0943 4.56822 36.2018 8.31517 40.8841C10.1886 43.1914 12.5974 45.2272 15.3407 46.5844C18.0171 47.9416 21.0949 48.7559 24.1059 48.8238C27.1168 48.8916 30.1947 48.2809 32.938 47.1273C35.6813 45.9058 38.157 44.2093 40.2312 42.1056C44.3796 37.9661 47.1229 32.4694 47.8589 26.4299C48.1934 23.444 48.0596 20.3225 47.1229 17.3366C46.253 14.3508 44.7141 11.5685 42.6399 9.26124L42.7068 9.3291Z" fill="black"/>
<mask id="path-4-outside-1_2946_28685" maskUnits="userSpaceOnUse" x="15" y="10" width="20" height="30" fill="black">
<rect fill="white" x="15" y="10" width="20" height="30"/>
<path d="M27.3292 36.404C27.1212 36.404 25.3012 35.988 24.9892 35.884L24.2092 35.728C23.3252 35.572 22.9092 35.312 22.5452 34.792C22.3892 34.584 22.0772 34.22 21.8172 34.064C21.2972 33.648 20.9852 33.232 20.7252 32.712C20.6212 32.452 20.3092 32.036 20.1012 31.724C19.5812 31.048 19.3212 30.424 19.2172 29.956C19.2172 29.696 19.0612 29.28 18.9572 28.968C18.6452 28.188 18.4892 27.148 18.4892 26.056C18.4892 25.588 18.4892 25.016 18.4372 24.756C18.3332 24.34 18.3332 24.236 18.4892 23.768C18.6972 22.988 18.7492 22.572 19.1132 21.012C19.3212 20.128 19.3732 19.92 19.7372 19.348L20.4132 18.152C20.7772 17.372 21.5572 16.28 21.9732 16.02C22.1292 15.864 22.3892 15.656 22.4932 15.5C23.0132 14.824 23.2212 14.616 23.8452 14.512C24.0012 14.46 24.3132 14.304 24.4172 14.252C24.8852 13.94 25.5612 13.836 26.1852 13.888C26.5492 13.888 26.8612 13.888 27.0172 13.836C27.3812 13.732 28.0052 13.784 28.3692 13.992C28.5252 14.096 29.0972 14.616 29.6172 15.136C30.6572 16.176 30.6572 16.28 31.1772 17.164C31.1772 19.14 31.1772 19.296 31.0212 19.608L30.7612 20.18C30.5012 21.064 29.7732 21.376 29.2012 20.856C28.9412 20.596 28.7332 20.284 28.5772 19.712C28.5252 19.452 28.3172 18.932 28.1612 18.568C27.9012 17.944 27.8492 17.84 27.5372 17.58C27.1732 17.32 26.9652 17.216 26.4972 17.268C26.3932 17.268 26.2372 17.424 26.0812 17.632C25.9252 17.788 25.5612 18.152 25.2492 18.36C24.7812 18.776 24.6772 18.932 24.3652 19.452C24.2092 19.764 24.0012 20.128 23.8972 20.232C23.6892 20.44 23.6892 20.492 23.6372 21.428C23.6372 22.208 23.5852 22.416 23.4292 22.832C23.1692 23.456 23.0652 23.82 23.1692 23.82C23.2212 23.82 23.3252 23.716 23.4812 23.56C24.0532 23.092 24.5212 22.988 25.0932 23.144L25.8732 23.3C26.0292 23.3 26.4972 23.508 26.8612 23.664L27.8492 24.132C28.3172 24.288 28.8892 24.808 29.2532 25.328C29.3572 25.484 29.6172 25.744 29.8252 25.9C30.6052 26.524 30.9172 27.044 31.0212 27.876C31.0732 28.084 31.1772 28.552 31.3332 28.968C31.5412 29.592 31.5932 29.8 31.5932 30.632C31.6452 31.204 31.5932 31.724 31.5412 31.88C31.3332 32.712 31.5412 33.284 30.6572 34.48C30.2412 35 29.7732 35.416 29.3052 35.572L28.5772 35.936C28.1612 36.196 27.6412 36.404 27.3292 36.404ZM27.1212 32.296C27.4852 32.296 27.5372 32.296 27.6932 32.14C27.7452 32.036 27.8492 31.828 27.8492 31.724L27.9532 30.944C28.0572 30.476 28.1092 30.268 28.0572 29.956C27.9532 29.436 27.5372 28.656 27.0692 28.136L26.4452 27.408C26.0812 26.94 24.9892 25.9 24.5732 25.692C24.3652 25.588 24.0012 25.484 23.7412 25.432C23.3252 25.38 23.3252 25.38 23.3772 25.536C23.5332 26.004 23.5332 26.368 23.4292 26.836C23.2732 27.408 23.3252 27.564 23.7412 28.084C23.8972 28.292 24.1052 28.76 24.2612 29.072C24.9892 30.84 24.9372 30.788 25.4572 31.256C25.7172 31.464 26.0292 31.776 26.0812 31.88C26.2372 32.192 26.5492 32.296 27.1212 32.296Z"/>
</mask>
<path d="M27.3292 36.404C27.1212 36.404 25.3012 35.988 24.9892 35.884L24.2092 35.728C23.3252 35.572 22.9092 35.312 22.5452 34.792C22.3892 34.584 22.0772 34.22 21.8172 34.064C21.2972 33.648 20.9852 33.232 20.7252 32.712C20.6212 32.452 20.3092 32.036 20.1012 31.724C19.5812 31.048 19.3212 30.424 19.2172 29.956C19.2172 29.696 19.0612 29.28 18.9572 28.968C18.6452 28.188 18.4892 27.148 18.4892 26.056C18.4892 25.588 18.4892 25.016 18.4372 24.756C18.3332 24.34 18.3332 24.236 18.4892 23.768C18.6972 22.988 18.7492 22.572 19.1132 21.012C19.3212 20.128 19.3732 19.92 19.7372 19.348L20.4132 18.152C20.7772 17.372 21.5572 16.28 21.9732 16.02C22.1292 15.864 22.3892 15.656 22.4932 15.5C23.0132 14.824 23.2212 14.616 23.8452 14.512C24.0012 14.46 24.3132 14.304 24.4172 14.252C24.8852 13.94 25.5612 13.836 26.1852 13.888C26.5492 13.888 26.8612 13.888 27.0172 13.836C27.3812 13.732 28.0052 13.784 28.3692 13.992C28.5252 14.096 29.0972 14.616 29.6172 15.136C30.6572 16.176 30.6572 16.28 31.1772 17.164C31.1772 19.14 31.1772 19.296 31.0212 19.608L30.7612 20.18C30.5012 21.064 29.7732 21.376 29.2012 20.856C28.9412 20.596 28.7332 20.284 28.5772 19.712C28.5252 19.452 28.3172 18.932 28.1612 18.568C27.9012 17.944 27.8492 17.84 27.5372 17.58C27.1732 17.32 26.9652 17.216 26.4972 17.268C26.3932 17.268 26.2372 17.424 26.0812 17.632C25.9252 17.788 25.5612 18.152 25.2492 18.36C24.7812 18.776 24.6772 18.932 24.3652 19.452C24.2092 19.764 24.0012 20.128 23.8972 20.232C23.6892 20.44 23.6892 20.492 23.6372 21.428C23.6372 22.208 23.5852 22.416 23.4292 22.832C23.1692 23.456 23.0652 23.82 23.1692 23.82C23.2212 23.82 23.3252 23.716 23.4812 23.56C24.0532 23.092 24.5212 22.988 25.0932 23.144L25.8732 23.3C26.0292 23.3 26.4972 23.508 26.8612 23.664L27.8492 24.132C28.3172 24.288 28.8892 24.808 29.2532 25.328C29.3572 25.484 29.6172 25.744 29.8252 25.9C30.6052 26.524 30.9172 27.044 31.0212 27.876C31.0732 28.084 31.1772 28.552 31.3332 28.968C31.5412 29.592 31.5932 29.8 31.5932 30.632C31.6452 31.204 31.5932 31.724 31.5412 31.88C31.3332 32.712 31.5412 33.284 30.6572 34.48C30.2412 35 29.7732 35.416 29.3052 35.572L28.5772 35.936C28.1612 36.196 27.6412 36.404 27.3292 36.404ZM27.1212 32.296C27.4852 32.296 27.5372 32.296 27.6932 32.14C27.7452 32.036 27.8492 31.828 27.8492 31.724L27.9532 30.944C28.0572 30.476 28.1092 30.268 28.0572 29.956C27.9532 29.436 27.5372 28.656 27.0692 28.136L26.4452 27.408C26.0812 26.94 24.9892 25.9 24.5732 25.692C24.3652 25.588 24.0012 25.484 23.7412 25.432C23.3252 25.38 23.3252 25.38 23.3772 25.536C23.5332 26.004 23.5332 26.368 23.4292 26.836C23.2732 27.408 23.3252 27.564 23.7412 28.084C23.8972 28.292 24.1052 28.76 24.2612 29.072C24.9892 30.84 24.9372 30.788 25.4572 31.256C25.7172 31.464 26.0292 31.776 26.0812 31.88C26.2372 32.192 26.5492 32.296 27.1212 32.296Z" fill="white"/>
<path d="M24.9892 35.884L25.9379 33.038L25.7607 32.9789L25.5776 32.9423L24.9892 35.884ZM24.2092 35.728L24.7976 32.7863L24.7642 32.7796L24.7306 32.7736L24.2092 35.728ZM22.5452 34.792L25.0029 33.0716L24.9747 33.0313L24.9452 32.992L22.5452 34.792ZM21.8172 34.064L19.9432 36.4066L20.1007 36.5327L20.2737 36.6365L21.8172 34.064ZM20.7252 32.712L17.9398 33.8262L17.9861 33.942L18.042 34.0536L20.7252 32.712ZM20.1012 31.724L22.5974 30.0599L22.541 29.9754L22.4791 29.8949L20.1012 31.724ZM19.2172 29.956H16.2172V30.2853L16.2887 30.6068L19.2172 29.956ZM18.9572 28.968L21.8033 28.0193L21.7754 27.9357L21.7427 27.8538L18.9572 28.968ZM18.4372 24.756L21.379 24.1677L21.365 24.0977L21.3477 24.0284L18.4372 24.756ZM18.4892 23.768L21.3353 24.7167L21.3643 24.6296L21.3879 24.541L18.4892 23.768ZM19.1132 21.012L16.193 20.3249L16.1917 20.3303L19.1132 21.012ZM19.7372 19.348L22.2682 20.9586L22.3103 20.8925L22.3489 20.8242L19.7372 19.348ZM20.4132 18.152L23.0249 19.6282L23.0824 19.5265L23.1318 19.4207L20.4132 18.152ZM21.9732 16.02L23.5632 18.564L23.853 18.3829L24.0946 18.1413L21.9732 16.02ZM22.4932 15.5L20.1154 13.6709L20.0534 13.7514L19.9971 13.8359L22.4932 15.5ZM23.8452 14.512L24.3384 17.4712L24.5706 17.4325L24.7939 17.3581L23.8452 14.512ZM24.4172 14.252L25.7589 16.9353L25.9259 16.8518L26.0813 16.7481L24.4172 14.252ZM26.1852 13.888L25.9361 16.8776L26.0605 16.888H26.1852V13.888ZM27.0172 13.836L26.1931 10.9514L26.1304 10.9693L26.0686 10.9899L27.0172 13.836ZM28.3692 13.992L30.0333 11.4958L29.9474 11.4385L29.8577 11.3873L28.3692 13.992ZM29.6172 15.136L31.7386 13.0147L31.7386 13.0147L29.6172 15.136ZM31.1772 17.164H34.1772V16.3471L33.763 15.6429L31.1772 17.164ZM31.0212 19.608L28.338 18.2664L28.3131 18.316L28.2901 18.3666L31.0212 19.608ZM30.7612 20.18L28.0301 18.9386L27.9427 19.1309L27.8831 19.3335L30.7612 20.18ZM29.2012 20.856L27.0799 22.9773L27.1304 23.0278L27.1832 23.0758L29.2012 20.856ZM28.5772 19.712L25.6355 20.3003L25.6558 20.4017L25.6829 20.5014L28.5772 19.712ZM28.1612 18.568L25.392 19.7218L25.3978 19.7358L25.4038 19.7498L28.1612 18.568ZM27.5372 17.58L29.4578 15.2753L29.3719 15.2038L29.2809 15.1388L27.5372 17.58ZM26.4972 17.268V20.268H26.6634L26.8285 20.2497L26.4972 17.268ZM26.0812 17.632L28.2025 19.7533L28.3533 19.6026L28.4812 19.432L26.0812 17.632ZM25.2492 18.36L23.5851 15.8638L23.4118 15.9794L23.2561 16.1178L25.2492 18.36ZM24.3652 19.452L21.7928 17.9085L21.7335 18.0073L21.6819 18.1104L24.3652 19.452ZM23.8972 20.232L21.7759 18.1107L21.7759 18.1107L23.8972 20.232ZM23.6372 21.428L20.6419 21.2616L20.6372 21.3447V21.428H23.6372ZM23.4292 22.832L26.1985 23.9858L26.2192 23.936L26.2382 23.8854L23.4292 22.832ZM23.4812 23.56L21.5815 21.2381L21.4657 21.3329L21.3599 21.4387L23.4812 23.56ZM25.0932 23.144L24.3039 26.0383L24.4036 26.0655L24.5049 26.0857L25.0932 23.144ZM25.8732 23.3L25.2849 26.2417L25.5762 26.3H25.8732V23.3ZM26.8612 23.664L28.1455 20.9528L28.0947 20.9287L28.043 20.9066L26.8612 23.664ZM27.8492 24.132L26.565 26.8432L26.7287 26.9208L26.9006 26.9781L27.8492 24.132ZM29.2532 25.328L31.7494 23.6639L31.7305 23.6355L31.7109 23.6076L29.2532 25.328ZM29.8252 25.9L31.6993 23.5574L31.6627 23.5281L31.6252 23.5L29.8252 25.9ZM31.0212 27.876L28.0444 28.2481L28.0669 28.4279L28.1108 28.6036L31.0212 27.876ZM31.3332 28.968L34.1793 28.0193L34.1617 27.9666L34.1422 27.9146L31.3332 28.968ZM31.5932 30.632H28.5932V30.7681L28.6056 30.9036L31.5932 30.632ZM31.5412 31.88L28.6952 30.9313L28.6588 31.0406L28.6308 31.1524L31.5412 31.88ZM30.6572 34.48L32.9998 36.3541L33.0357 36.3093L33.0698 36.2632L30.6572 34.48ZM29.3052 35.572L28.3566 32.726L28.1543 32.7934L27.9636 32.8887L29.3052 35.572ZM28.5772 35.936L27.2356 33.2527L27.1081 33.3165L26.9872 33.392L28.5772 35.936ZM27.6932 32.14L29.8146 34.2613L30.1588 33.9171L30.3765 33.4816L27.6932 32.14ZM27.8492 31.724L24.8756 31.3275L24.8492 31.5249V31.724H27.8492ZM27.9532 30.944L25.0247 30.2932L24.9966 30.4194L24.9796 30.5475L27.9532 30.944ZM28.0572 29.956L31.0164 29.4628L31.0085 29.4151L30.999 29.3677L28.0572 29.956ZM27.0692 28.136L24.7915 30.0884L24.8151 30.1159L24.8394 30.1429L27.0692 28.136ZM26.4452 27.408L24.0772 29.2498L24.121 29.3062L24.1675 29.3604L26.4452 27.408ZM24.5732 25.692L23.2316 28.3753L23.2316 28.3753L24.5732 25.692ZM23.7412 25.432L24.3296 22.4903L24.2221 22.4688L24.1133 22.4552L23.7412 25.432ZM23.3772 25.536L26.2233 24.5873L26.2233 24.5873L23.3772 25.536ZM23.4292 26.836L26.3235 27.6254L26.3423 27.5565L26.3578 27.4868L23.4292 26.836ZM23.7412 28.084L26.1412 26.284L26.1131 26.2465L26.0838 26.2099L23.7412 28.084ZM24.2612 29.072L27.0353 27.9298L26.9935 27.8284L26.9445 27.7304L24.2612 29.072ZM25.4572 31.256L23.4503 33.4859L23.5151 33.5442L23.5831 33.5986L25.4572 31.256ZM27.3292 33.404C27.4357 33.404 27.517 33.4101 27.5524 33.413C27.5942 33.4165 27.6252 33.4201 27.6405 33.422C27.6699 33.4256 27.6825 33.428 27.6694 33.4258C27.6448 33.4218 27.5911 33.4121 27.5036 33.3947C27.3327 33.3608 27.1027 33.3115 26.8568 33.2562C26.6126 33.2012 26.3693 33.1441 26.1746 33.0962C26.0768 33.0721 25.9989 33.0522 25.9434 33.0374C25.8693 33.0176 25.8831 33.0197 25.9379 33.038L24.0406 38.73C24.3719 38.8405 25.0743 39.0051 25.5397 39.1098C25.8138 39.1715 26.0973 39.2327 26.3359 39.28C26.4531 39.3033 26.5781 39.3269 26.6941 39.346C26.7199 39.3503 27.0157 39.404 27.3292 39.404V33.404ZM25.5776 32.9423L24.7976 32.7863L23.6209 38.6697L24.4009 38.8257L25.5776 32.9423ZM24.7306 32.7736C24.4696 32.7276 24.5205 32.7054 24.6776 32.7958C24.7625 32.8446 24.8441 32.9062 24.9131 32.9725C24.9779 33.0348 25.0073 33.0778 25.0029 33.0716L20.0875 36.5124C20.4611 37.046 20.9631 37.5811 21.6868 37.9972C22.364 38.3866 23.0649 38.5724 23.6879 38.6824L24.7306 32.7736ZM24.9452 32.992C24.8064 32.8068 24.6141 32.5721 24.3926 32.3395C24.2056 32.1431 23.8409 31.7796 23.3607 31.4915L20.2737 36.6365C20.2015 36.5932 20.1488 36.5555 20.1168 36.5315C20.0838 36.5069 20.0618 36.4882 20.0509 36.4787C20.0311 36.4615 20.0305 36.4592 20.0478 36.4775C20.0635 36.4939 20.0834 36.5162 20.1046 36.5413C20.1259 36.5667 20.1404 36.5855 20.1452 36.592L24.9452 32.992ZM23.6913 31.7214C23.589 31.6395 23.5448 31.5887 23.5231 31.5614C23.5006 31.5331 23.4645 31.4824 23.4085 31.3704L18.042 34.0536C18.4798 34.9294 19.0569 35.6976 19.9432 36.4066L23.6913 31.7214ZM23.5107 31.5978C23.3283 31.1419 23.0563 30.7353 22.9484 30.5734C22.8735 30.4611 22.7975 30.3513 22.7393 30.267C22.6748 30.1737 22.6322 30.1122 22.5974 30.0599L17.6051 33.3881C17.6742 33.4918 17.7487 33.5993 17.8045 33.6799C17.8664 33.7695 17.914 33.8384 17.9561 33.9016C17.9989 33.9658 18.0188 33.9983 18.0246 34.0083C18.0267 34.0119 18.0197 34.0002 18.0072 33.9757C17.9956 33.9531 17.9699 33.9014 17.9398 33.8262L23.5107 31.5978ZM22.4791 29.8949C22.3438 29.7189 22.2599 29.5726 22.2096 29.4676C22.1582 29.3602 22.1452 29.3024 22.1458 29.3052L16.2887 30.6068C16.4956 31.5381 16.9586 32.5589 17.7234 33.5531L22.4791 29.8949ZM22.2172 29.956C22.2172 29.3566 22.061 28.8263 22.0026 28.6292C21.9317 28.39 21.8266 28.0892 21.8033 28.0193L16.1112 29.9167C16.1277 29.9661 16.1444 30.0153 16.1585 30.0567C16.1735 30.1008 16.186 30.1373 16.1984 30.1741C16.2233 30.2483 16.2392 30.2977 16.2498 30.3338C16.2548 30.3505 16.257 30.3589 16.2573 30.3602C16.2578 30.3619 16.2549 30.3511 16.2506 30.3299C16.2465 30.3094 16.239 30.2691 16.2321 30.2127C16.2255 30.1579 16.2172 30.0695 16.2172 29.956H22.2172ZM21.7427 27.8538C21.6189 27.5443 21.4892 26.9154 21.4892 26.056H15.4892C15.4892 27.3806 15.6716 28.8317 16.1718 30.0822L21.7427 27.8538ZM21.4892 26.056C21.4892 25.8311 21.4894 25.528 21.4816 25.2447C21.4755 25.026 21.4614 24.5796 21.379 24.1677L15.4955 25.3443C15.4732 25.2327 15.4719 25.1768 15.4757 25.2274C15.4782 25.261 15.4814 25.3207 15.4839 25.4113C15.489 25.596 15.4892 25.8129 15.4892 26.056H21.4892ZM21.3477 24.0284C21.3245 23.9359 21.3318 23.9557 21.3413 24.0142C21.3546 24.0969 21.371 24.2425 21.3623 24.4242C21.3539 24.6004 21.3258 24.7297 21.3128 24.7821C21.3037 24.8188 21.3023 24.8156 21.3353 24.7167L15.6432 22.8193C15.5679 23.0452 15.3975 23.5434 15.3691 24.1388C15.3394 24.7638 15.4762 25.2811 15.5268 25.4836L21.3477 24.0284ZM21.3879 24.541C21.5999 23.7461 21.7308 22.9965 22.0348 21.6937L16.1917 20.3303C15.7677 22.1475 15.7945 22.2299 15.5905 22.995L21.3879 24.541ZM22.0335 21.6991C22.0875 21.4696 22.1213 21.3276 22.1503 21.2161C22.1777 21.111 22.1889 21.0805 22.1884 21.0819C22.1876 21.0842 22.1849 21.0913 22.1808 21.1005C22.1769 21.1096 22.1744 21.1141 22.1755 21.112C22.1797 21.104 22.2014 21.0636 22.2682 20.9586L17.2062 17.7374C16.9634 18.119 16.7337 18.5218 16.5451 19.0441C16.3888 19.4769 16.2833 19.9411 16.193 20.3249L22.0335 21.6991ZM22.3489 20.8242L23.0249 19.6282L17.8015 16.6758L17.1255 17.8718L22.3489 20.8242ZM23.1318 19.4207C23.1667 19.3459 23.2288 19.228 23.3185 19.0798C23.4062 18.935 23.5046 18.7869 23.6016 18.6532C23.7017 18.5154 23.7803 18.4203 23.8255 18.3705C23.8475 18.3463 23.8457 18.3504 23.8204 18.3734C23.8035 18.3888 23.7151 18.4691 23.5632 18.564L20.3832 13.476C19.9235 13.7633 19.575 14.1264 19.3848 14.3357C19.1554 14.5882 18.9383 14.8636 18.7458 15.1288C18.3712 15.645 17.9768 16.2788 17.6947 16.8833L23.1318 19.4207ZM24.0946 18.1413C24.0829 18.153 24.0861 18.1492 24.1311 18.1079C24.1591 18.0823 24.2369 18.0117 24.2997 17.9532C24.3675 17.8899 24.4668 17.7954 24.5711 17.685C24.6655 17.585 24.8297 17.4036 24.9894 17.1641L19.9971 13.8359C20.0561 13.7473 20.1077 13.6824 20.1391 13.6446C20.1717 13.6053 20.1968 13.5782 20.209 13.5653C20.2218 13.5517 20.2285 13.5452 20.2266 13.5471C20.2248 13.5489 20.2186 13.5549 20.2058 13.5668C20.1929 13.5789 20.1772 13.5933 20.1554 13.6132C20.1445 13.6232 20.1337 13.633 20.1208 13.6448C20.1085 13.656 20.0945 13.6688 20.0802 13.6819C20.052 13.7076 20.0173 13.7396 19.9806 13.7741C19.9442 13.8084 19.8997 13.8509 19.8519 13.8987L24.0946 18.1413ZM24.8711 17.3291C24.9967 17.1658 25.0555 17.0941 25.087 17.0584C25.1135 17.0283 25.065 17.0884 24.9555 17.1723C24.8293 17.2691 24.6807 17.3533 24.5274 17.4127C24.3925 17.4649 24.3097 17.476 24.3384 17.4712L23.352 11.5528C22.7314 11.6563 22.0105 11.8698 21.3049 12.4107C20.7478 12.8378 20.3393 13.3797 20.1154 13.6709L24.8711 17.3291ZM24.7939 17.3581C25.2044 17.2212 25.753 16.9382 25.7589 16.9353L23.0756 11.5687C23.0239 11.5945 22.9483 11.6323 22.8733 11.6675C22.836 11.6851 22.8111 11.6962 22.7989 11.7015C22.7934 11.7039 22.7971 11.7022 22.8086 11.6977C22.8179 11.694 22.8493 11.6817 22.8966 11.6659L24.7939 17.3581ZM26.0813 16.7481C25.9866 16.8113 25.911 16.8445 25.8691 16.8604C25.8268 16.8765 25.8047 16.8804 25.8069 16.88C25.8086 16.8797 25.8232 16.8771 25.8499 16.8759C25.8762 16.8747 25.906 16.8751 25.9361 16.8776L26.4344 10.8984C25.4262 10.8143 23.9874 10.933 22.7531 11.7558L26.0813 16.7481ZM26.1852 16.888C26.3463 16.888 26.5901 16.8886 26.8155 16.8784C26.9653 16.8716 27.4547 16.8524 27.9659 16.6821L26.0686 10.9899C26.187 10.9505 26.284 10.9277 26.3467 10.9148C26.4112 10.9015 26.4609 10.8943 26.49 10.8906C26.5201 10.8867 26.5398 10.885 26.5463 10.8845C26.5532 10.884 26.5527 10.8842 26.543 10.8846C26.5215 10.8856 26.4828 10.8867 26.4174 10.8873C26.352 10.888 26.2794 10.888 26.1852 10.888V16.888ZM27.8414 16.7206C27.6677 16.7702 27.5461 16.7799 27.4996 16.7825C27.4443 16.7856 27.4061 16.7834 27.3792 16.7805C27.3526 16.7777 27.3075 16.7713 27.2422 16.7529C27.1837 16.7364 27.0518 16.6944 26.8808 16.5967L29.8577 11.3873C29.1937 11.0079 28.5021 10.8656 28.0073 10.8135C27.511 10.7612 26.8545 10.7625 26.1931 10.9514L27.8414 16.7206ZM26.7051 16.4882C26.6553 16.4549 26.6201 16.4289 26.6051 16.4177C26.588 16.4049 26.5778 16.3967 26.5759 16.3952C26.573 16.3929 26.5828 16.4007 26.6082 16.4224C26.6585 16.4654 26.7345 16.5326 26.8324 16.6221C27.0273 16.8002 27.2679 17.0293 27.4959 17.2573L31.7386 13.0147C31.4465 12.7227 31.1412 12.4318 30.881 12.1939C30.7025 12.0307 30.3411 11.701 30.0333 11.4958L26.7051 16.4882ZM27.4959 17.2573C28.006 17.7674 28.1231 17.9144 28.1711 17.98C28.1911 18.0073 28.2183 18.0469 28.2818 18.1537C28.3159 18.2112 28.3538 18.2765 28.4072 18.3687C28.4583 18.457 28.5203 18.5642 28.5914 18.6851L33.763 15.6429C33.5858 15.3417 33.326 14.8642 33.0133 14.437C32.6714 13.9696 32.2685 13.5446 31.7386 13.0147L27.4959 17.2573ZM28.1772 17.164C28.1772 17.663 28.1772 18.0288 28.1749 18.311C28.1725 18.6011 28.1679 18.7502 28.1631 18.8303C28.1582 18.9119 28.1581 18.8194 28.1979 18.6572C28.2485 18.4513 28.3213 18.2996 28.338 18.2664L33.7045 20.9496C33.7991 20.7604 33.9305 20.4722 34.0249 20.0875C34.1086 19.7466 34.1377 19.4331 34.1523 19.1897C34.1788 18.7495 34.1772 18.0932 34.1772 17.164H28.1772ZM28.2901 18.3666L28.0301 18.9386L33.4923 21.4214L33.7523 20.8494L28.2901 18.3666ZM27.8831 19.3335C27.9239 19.1948 28.1458 18.6198 28.9089 18.2903C29.3032 18.12 29.7661 18.0594 30.229 18.1505C30.6835 18.24 31.0144 18.4499 31.2193 18.6362L27.1832 23.0758C28.2355 24.0324 29.7954 24.443 31.2875 23.7987C32.6227 23.2222 33.3385 22.0492 33.6393 21.0265L27.8831 19.3335ZM31.3226 18.7347C31.3291 18.7413 31.3507 18.7636 31.3785 18.7991C31.4069 18.8354 31.4331 18.8744 31.455 18.9126C31.4998 18.9911 31.4965 19.014 31.4715 18.9226L25.6829 20.5014C25.9689 21.55 26.4314 22.3289 27.0799 22.9773L31.3226 18.7347ZM31.519 19.1237C31.3934 18.4957 31.04 17.6693 30.9187 17.3862L25.4038 19.7498C25.4706 19.9056 25.5426 20.0814 25.5992 20.2324C25.6275 20.3078 25.646 20.3612 25.6561 20.3928C25.6709 20.4386 25.6548 20.3969 25.6355 20.3003L31.519 19.1237ZM30.9305 17.4142C30.8322 17.1784 30.6578 16.7434 30.4195 16.3584C30.0899 15.826 29.7202 15.494 29.4578 15.2753L25.6167 19.8847C25.6593 19.9202 25.6149 19.8864 25.5461 19.8134C25.5083 19.7732 25.4665 19.725 25.4238 19.6695C25.3813 19.6141 25.3461 19.562 25.3179 19.5166C25.2662 19.4331 25.2473 19.3855 25.2683 19.4316C25.2776 19.452 25.2917 19.4839 25.3133 19.5345C25.3349 19.5851 25.36 19.6451 25.392 19.7218L30.9305 17.4142ZM29.2809 15.1388C29.079 14.9946 28.622 14.6666 28.0049 14.461C27.3145 14.2308 26.6812 14.2291 26.1659 14.2863L26.8285 20.2497C26.7813 20.2549 26.486 20.2792 26.1075 20.153C25.8025 20.0514 25.6315 19.9054 25.7935 20.0212L29.2809 15.1388ZM26.4972 14.268C25.7531 14.268 25.2016 14.5331 24.9363 14.6827C24.6434 14.8479 24.4254 15.0298 24.2907 15.1522C24.021 15.3974 23.8137 15.6554 23.6812 15.832L28.4812 19.432C28.5048 19.4006 28.4535 19.4766 28.3268 19.5918C28.2636 19.6492 28.1138 19.7791 27.8843 19.9086C27.6824 20.0224 27.1893 20.268 26.4972 20.268V14.268ZM23.9599 15.5107C23.8827 15.5879 23.7952 15.675 23.7009 15.761C23.6549 15.8031 23.6173 15.8356 23.5892 15.8586C23.5581 15.884 23.5578 15.8821 23.5851 15.8638L26.9133 20.8562C27.5199 20.4518 28.0989 19.8569 28.2025 19.7533L23.9599 15.5107ZM23.2561 16.1178C22.9715 16.3708 22.6791 16.648 22.3966 17.0049C22.1341 17.3364 21.9358 17.6701 21.7928 17.9085L26.9377 20.9955C27.0167 20.8638 27.0581 20.7963 27.0885 20.7494C27.1134 20.7108 27.1143 20.7121 27.1009 20.7291C27.0653 20.774 27.0589 20.7652 27.2423 20.6022L23.2561 16.1178ZM21.6819 18.1104C21.6574 18.1594 21.63 18.2122 21.6021 18.2638C21.5739 18.3159 21.5488 18.3602 21.529 18.3938C21.5192 18.4102 21.5124 18.4213 21.5086 18.4274C21.5045 18.434 21.5062 18.4309 21.5136 18.4201C21.5175 18.4144 21.5241 18.4049 21.5331 18.3924C21.542 18.3801 21.5551 18.3623 21.5721 18.3404C21.5888 18.3189 21.6129 18.2888 21.6438 18.2529C21.6738 18.218 21.7182 18.1684 21.7759 18.1107L26.0186 22.3533C26.3808 21.991 26.6374 21.5428 26.6945 21.4462C26.8203 21.2332 26.9446 21.0014 27.0485 20.7936L21.6819 18.1104ZM21.7759 18.1107C21.7063 18.1802 21.45 18.4317 21.2227 18.8003C20.9665 19.2158 20.8399 19.6181 20.7718 19.9451C20.7137 20.2241 20.6914 20.4868 20.6791 20.6494C20.6657 20.8267 20.654 21.0431 20.6419 21.2616L26.6326 21.5944C26.6465 21.3449 26.6543 21.2038 26.662 21.1016C26.6709 20.9847 26.6713 21.0459 26.6457 21.1689C26.61 21.3399 26.5257 21.6317 26.3297 21.9497C26.1625 22.2208 25.9841 22.3878 26.0186 22.3533L21.7759 18.1107ZM20.6372 21.428C20.6372 21.5941 20.6343 21.6948 20.631 21.7565C20.6279 21.8147 20.6254 21.8176 20.63 21.7888C20.6358 21.7529 20.6447 21.7163 20.6519 21.6919C20.6554 21.6802 20.6522 21.6934 20.6202 21.7786L26.2382 23.8854C26.3381 23.6191 26.4731 23.2423 26.5535 22.7442C26.6254 22.2981 26.6372 21.8561 26.6372 21.428H20.6372ZM20.66 21.6782C20.52 22.0142 20.3651 22.4114 20.2659 22.7801C20.2302 22.9126 20.1209 23.3194 20.1299 23.8089C20.1339 24.0231 20.1599 24.6572 20.5571 25.3293C21.0928 26.236 22.0746 26.82 23.1692 26.82V20.82C23.6129 20.82 24.1384 20.9214 24.6507 21.2169C25.1608 21.511 25.5055 21.9095 25.7227 22.277C26.1066 22.9268 26.1258 23.5275 26.1289 23.6978C26.1333 23.9364 26.1053 24.1139 26.0934 24.1832C26.0789 24.2666 26.0643 24.3224 26.0596 24.3399C26.0513 24.3706 26.0785 24.2738 26.1985 23.9858L20.66 21.6782ZM23.1692 26.82C24.0609 26.82 24.6804 26.425 24.808 26.3453C25.0273 26.2082 25.1895 26.0694 25.2618 26.0062C25.4067 25.8794 25.5539 25.7299 25.6026 25.6813L21.3599 21.4387C21.2525 21.5461 21.2697 21.5266 21.3107 21.4908C21.3309 21.4731 21.4477 21.37 21.628 21.2573C21.7223 21.1984 21.8864 21.1035 22.1072 21.0179C22.3196 20.9356 22.691 20.82 23.1692 20.82V26.82ZM25.3809 25.8819C25.4498 25.8255 25.3176 25.9527 25.0148 26.0284C24.6773 26.1128 24.4052 26.0659 24.3039 26.0383L25.8826 20.2497C25.2092 20.0661 24.4172 19.9932 23.5596 20.2076C22.7368 20.4133 22.0846 20.8265 21.5815 21.2381L25.3809 25.8819ZM24.5049 26.0857L25.2849 26.2417L26.4616 20.3583L25.6816 20.2023L24.5049 26.0857ZM25.8732 26.3C25.7229 26.3 25.6013 26.2879 25.5216 26.2776C25.439 26.267 25.3724 26.2544 25.327 26.2448C25.2395 26.2263 25.1803 26.2085 25.1623 26.203C25.1402 26.1962 25.132 26.193 25.1415 26.1964C25.15 26.1995 25.1664 26.2056 25.1923 26.2158C25.2458 26.2368 25.3143 26.2651 25.4018 26.3023C25.4445 26.3204 25.4885 26.3393 25.5354 26.3595C25.5803 26.3788 25.6317 26.4009 25.6795 26.4214L28.043 20.9066C27.8961 20.8436 27.624 20.7247 27.3862 20.6312C27.265 20.5836 27.0997 20.5213 26.9222 20.4669C26.8327 20.4394 26.7085 20.4041 26.5641 20.3737C26.4407 20.3477 26.188 20.3 25.8732 20.3V26.3ZM25.577 26.3752L26.565 26.8432L29.1335 21.4208L28.1455 20.9528L25.577 26.3752ZM26.9006 26.9781C26.8109 26.9482 26.7442 26.9182 26.7017 26.8972C26.6585 26.8759 26.63 26.8588 26.616 26.85C26.6016 26.8409 26.5963 26.8367 26.5994 26.8391C26.6024 26.8413 26.6105 26.8476 26.6232 26.8586C26.6497 26.8816 26.6834 26.9141 26.7184 26.953C26.7536 26.992 26.7798 27.0259 26.7955 27.0484L31.7109 23.6076C31.3867 23.1444 30.9874 22.7019 30.5573 22.3284C30.1615 21.9847 29.5567 21.5389 28.7979 21.2859L26.9006 26.9781ZM26.7571 26.9921C27.1071 27.5172 27.6425 28.013 28.0252 28.3L31.6252 23.5C31.6493 23.5181 31.6562 23.5249 31.6476 23.5172C31.6405 23.511 31.6307 23.5018 31.6216 23.4927C31.6115 23.4826 31.6126 23.483 31.6243 23.4965C31.6306 23.5038 31.644 23.5195 31.6626 23.5432C31.68 23.5655 31.7112 23.6066 31.7494 23.6639L26.7571 26.9921ZM27.9511 28.2426C28.0664 28.3348 28.121 28.3888 28.1409 28.41C28.1574 28.4275 28.1386 28.4103 28.109 28.3613C28.0948 28.3379 28.0811 28.3119 28.0688 28.2847C28.0566 28.2577 28.048 28.2343 28.0424 28.2169C28.0314 28.1823 28.0365 28.1846 28.0444 28.2481L33.9981 27.5039C33.9072 26.7766 33.6997 26.0122 33.2445 25.2587C32.8072 24.5348 32.2441 23.9932 31.6993 23.5574L27.9511 28.2426ZM28.1108 28.6036C28.1358 28.7036 28.2913 29.4001 28.5242 30.0214L34.1422 27.9146C34.1126 27.8357 34.0765 27.7194 34.0369 27.571C33.9915 27.4005 33.976 27.3258 33.9317 27.1484L28.1108 28.6036ZM28.4872 29.9167C28.5924 30.2324 28.586 30.239 28.5821 30.2152C28.5789 30.1966 28.5932 30.2548 28.5932 30.632H34.5932C34.5932 30.1772 34.5815 29.7154 34.5004 29.2288C34.4184 28.737 34.282 28.3276 34.1793 28.0193L28.4872 29.9167ZM28.6056 30.9036C28.6109 30.962 28.6138 31.0232 28.6146 31.0834C28.6153 31.1437 28.6137 31.1961 28.6114 31.2358C28.6103 31.2553 28.6091 31.2694 28.6083 31.2776C28.6074 31.2863 28.6073 31.2854 28.6088 31.2754C28.61 31.267 28.6142 31.2384 28.6234 31.194C28.6282 31.1711 28.6354 31.1385 28.6458 31.0982C28.6558 31.0593 28.6717 31.0016 28.6952 30.9313L34.3873 32.8287C34.547 32.3496 34.5861 31.8418 34.6011 31.5882C34.622 31.2327 34.6217 30.8093 34.5809 30.3604L28.6056 30.9036ZM28.6308 31.1524C28.5316 31.5491 28.488 31.8948 28.4626 32.0985C28.4331 32.3361 28.4278 32.3752 28.4186 32.4182C28.4171 32.4254 28.4189 32.421 28.4138 32.432C28.4047 32.4518 28.3637 32.5358 28.2447 32.6968L33.0698 36.2632C33.7463 35.3479 34.1063 34.5158 34.2868 33.6688C34.3622 33.3153 34.3992 32.9806 34.4167 32.8396C34.4385 32.6647 34.4468 32.6269 34.4517 32.6076L28.6308 31.1524ZM28.3146 32.6059C28.2595 32.6748 28.2106 32.7303 28.1694 32.7733C28.1278 32.8168 28.0996 32.8417 28.0867 32.8524C28.0731 32.8637 28.0846 32.8525 28.1226 32.8299C28.1602 32.8075 28.2385 32.7653 28.3566 32.726L30.2539 38.418C31.5525 37.9852 32.469 37.0176 32.9998 36.3541L28.3146 32.6059ZM27.9636 32.8887L27.2356 33.2527L29.9189 38.6193L30.6469 38.2553L27.9636 32.8887ZM26.9872 33.392C26.9672 33.4045 26.9399 33.4201 26.909 33.4355C26.8778 33.4511 26.8542 33.461 26.8428 33.4653C26.8285 33.4708 26.849 33.4617 26.9036 33.4488C26.9324 33.4419 26.9804 33.4317 27.0452 33.4227C27.1084 33.414 27.2056 33.404 27.3292 33.404V39.404C28.0295 39.404 28.6419 39.2011 28.9856 39.0697C29.3939 38.9135 29.8011 38.7088 30.1672 38.48L26.9872 33.392ZM27.1212 35.296C27.1889 35.296 27.3321 35.2966 27.4671 35.291C27.6039 35.2853 27.8837 35.2692 28.2128 35.1869C29.0895 34.9678 29.6151 34.4608 29.8146 34.2613L25.5719 30.0187C25.5728 30.0178 25.7017 29.8848 25.9108 29.7436C26.1664 29.5711 26.4554 29.4416 26.7576 29.3661C27.0087 29.3033 27.1976 29.297 27.2173 29.2962C27.2354 29.2954 27.2355 29.296 27.1212 29.296V35.296ZM30.3765 33.4816C30.3978 33.4391 30.482 33.273 30.56 33.0858C30.5994 32.9912 30.6572 32.8442 30.7092 32.6683C30.749 32.5338 30.8492 32.1775 30.8492 31.724H24.8492C24.8492 31.4999 24.8759 31.3231 24.8952 31.2192C24.9157 31.1089 24.9391 31.0226 24.9551 30.9682C24.986 30.8638 25.0146 30.7948 25.0215 30.7782C25.0345 30.747 25.0407 30.7369 25.01 30.7984L30.3765 33.4816ZM30.8229 32.1205L30.9269 31.3405L24.9796 30.5475L24.8756 31.3275L30.8229 32.1205ZM30.8818 31.5948C30.9544 31.2681 31.1823 30.4581 31.0164 29.4628L25.0981 30.4492C25.088 30.3891 25.0789 30.3068 25.0777 30.2107C25.0767 30.1159 25.0838 30.0425 25.0889 30.0035C25.093 29.9725 25.0949 29.9703 25.0831 30.0274C25.0775 30.0541 25.0703 30.0876 25.0602 30.1335C25.0494 30.1822 25.0392 30.2278 25.0247 30.2932L30.8818 31.5948ZM30.999 29.3677C30.7663 28.204 30.0396 26.9518 29.2991 26.1291L24.8394 30.1429C24.8576 30.1632 24.8923 30.2053 24.9366 30.2695C24.98 30.3325 25.0226 30.4022 25.06 30.4714C25.098 30.5418 25.1222 30.5961 25.1343 30.6269C25.1494 30.6651 25.1337 30.6354 25.1155 30.5443L30.999 29.3677ZM29.347 26.1836L28.723 25.4556L24.1675 29.3604L24.7915 30.0884L29.347 26.1836ZM28.8133 25.5662C28.4821 25.1403 27.9784 24.6338 27.5716 24.2555C27.3505 24.0499 27.1083 23.836 26.8711 23.645C26.686 23.4961 26.3275 23.215 25.9149 23.0087L23.2316 28.3753C23.1561 28.3375 23.1037 28.306 23.0795 28.291C23.0532 28.2747 23.0388 28.2646 23.038 28.2641C23.0366 28.2631 23.0423 28.2671 23.0557 28.2772C23.0688 28.2872 23.0865 28.301 23.109 28.3191C23.2049 28.3963 23.3365 28.5106 23.4859 28.6495C23.6329 28.7862 23.7761 28.9272 23.8946 29.0504C24.0256 29.1867 24.0798 29.2532 24.0772 29.2498L28.8133 25.5662ZM25.9149 23.0087C25.3584 22.7305 24.6941 22.5632 24.3296 22.4903L23.1529 28.3737C23.1635 28.3759 23.1858 28.3807 23.2165 28.3885C23.2468 28.3961 23.2769 28.4045 23.3032 28.4125C23.3307 28.4209 23.3438 28.4257 23.3424 28.4252C23.341 28.4247 23.3317 28.4212 23.3156 28.4143C23.3002 28.4078 23.271 28.395 23.2316 28.3753L25.9149 23.0087ZM24.1133 22.4552C24.0365 22.4456 23.8864 22.4262 23.7542 22.415C23.6839 22.4091 23.5538 22.3995 23.3981 22.4011C23.2683 22.4024 22.946 22.411 22.5596 22.5214C22.1472 22.6392 21.445 22.9381 20.9162 23.6806C20.3914 24.4175 20.3407 25.167 20.3559 25.5619C20.3701 25.9315 20.4503 26.2162 20.4726 26.2957C20.4889 26.3539 20.504 26.4014 20.5125 26.428C20.5209 26.4539 20.5291 26.4784 20.5312 26.4847L26.2233 24.5873C26.2096 24.5464 26.2298 24.6044 26.2492 24.6735C26.2632 24.7233 26.3381 24.9829 26.3515 25.3313C26.3658 25.7051 26.3187 26.4376 25.8036 27.161C25.2843 27.8902 24.5975 28.1793 24.2079 28.2906C23.8442 28.3945 23.552 28.3998 23.461 28.4008C23.3441 28.402 23.2615 28.3948 23.2489 28.3937C23.232 28.3923 23.238 28.3924 23.3691 28.4088L24.1133 22.4552ZM20.5312 26.4847C20.5331 26.4905 20.526 26.4701 20.5182 26.429C20.5101 26.3862 20.5039 26.3349 20.5022 26.2797C20.4986 26.1653 20.5167 26.1131 20.5007 26.1852L26.3578 27.4868C26.5608 26.5733 26.5769 25.6481 26.2233 24.5873L20.5312 26.4847ZM20.5349 26.0466C20.4422 26.3867 20.2086 27.2368 20.4667 28.2324C20.6958 29.1158 21.2346 29.753 21.3986 29.9581L26.0838 26.2099C25.9914 26.0943 25.999 26.0965 26.033 26.1505C26.0785 26.2226 26.1964 26.4245 26.2747 26.7266C26.4418 27.3712 26.2603 27.8573 26.3235 27.6254L20.5349 26.0466ZM21.3412 29.884C21.2978 29.8261 21.271 29.7841 21.2615 29.7689C21.2507 29.7518 21.2472 29.7452 21.2516 29.753C21.2618 29.771 21.2829 29.8105 21.318 29.8806C21.3524 29.9495 21.3889 30.025 21.4338 30.1181C21.4745 30.2026 21.5272 30.3121 21.578 30.4136L26.9445 27.7304C26.9173 27.6759 26.8854 27.6099 26.8384 27.5124C26.7956 27.4235 26.7411 27.3105 26.6845 27.1974C26.6039 27.0361 26.4038 26.6341 26.1412 26.284L21.3412 29.884ZM21.4872 30.2142C21.7959 30.964 22.0554 31.6258 22.2938 32.07C22.463 32.3855 22.6615 32.6814 22.9225 32.9717C23.1311 33.2038 23.3599 33.4045 23.4503 33.4859L27.4641 29.0261C27.2946 28.8735 27.3348 28.9052 27.3843 28.9602C27.486 29.0733 27.5544 29.184 27.5807 29.233C27.5817 29.2349 27.5504 29.1748 27.4474 28.9299C27.3474 28.6925 27.2263 28.3937 27.0353 27.9298L21.4872 30.2142ZM23.5831 33.5986C23.5938 33.6071 23.6164 33.626 23.6472 33.6538C23.6774 33.681 23.7051 33.7075 23.7259 33.7283C23.7504 33.7528 23.7481 33.7522 23.7261 33.7267C23.7154 33.7142 23.6834 33.6767 23.6409 33.6194C23.6189 33.5899 23.5867 33.5449 23.5494 33.4872C23.5143 33.433 23.458 33.3418 23.398 33.2216L28.7645 30.5384C28.5677 30.1448 28.3124 29.8576 28.2706 29.8091C28.1673 29.6893 28.0611 29.5782 27.9686 29.4857C27.7853 29.3024 27.5601 29.0964 27.3313 28.9134L23.5831 33.5986ZM23.398 33.2216C23.8275 34.0807 24.5365 34.6851 25.3683 35.005C26.0558 35.2695 26.7179 35.296 27.1212 35.296V29.296C26.9525 29.296 27.1727 29.2705 27.5222 29.405C27.7273 29.4839 27.9797 29.6181 28.226 29.8377C28.4749 30.0597 28.6495 30.3084 28.7645 30.5384L23.398 33.2216Z" fill="black" mask="url(#path-4-outside-1_2946_28685)"/>
</svg>
