<svg width="50" height="50" viewBox="0 0 50 50" fill="none" xmlns="http://www.w3.org/2000/svg">
<rect x="1.5" y="1.5" width="47" height="47" rx="23.5" stroke="black" stroke-width="3"/>
<path d="M25.0001 49.0226C38.0815 49.0226 48.6861 38.2673 48.6861 25.0001C48.6861 11.7328 38.0815 0.977539 25.0001 0.977539C11.9186 0.977539 1.31396 11.7328 1.31396 25.0001C1.31396 38.2673 11.9186 49.0226 25.0001 49.0226Z" fill="#76B82A"/>
<path d="M42.9745 9.05766C45.0487 11.4328 46.7883 14.1472 47.9927 17.0652C49.1971 20.051 49.9331 23.2404 50 26.5656C50 29.8908 49.3978 33.2159 48.0596 36.2696C46.7214 39.3233 44.6472 42.0377 42.1715 44.2093C39.629 46.3808 36.6849 47.9416 33.6071 48.8916C30.5292 49.8417 27.3176 50.181 24.1059 49.9095C17.7495 49.5024 11.5938 46.7879 7.04388 42.1056C4.76895 39.7983 2.89547 37.0161 1.6911 33.8945C0.486719 30.7729 -0.11547 27.4478 0.0183499 24.0548C0.15217 17.3366 3.16311 10.6184 8.11444 6.13967C10.5901 3.90028 13.5341 2.13592 16.6789 1.11801C19.8237 0.100109 23.1692 -0.239193 26.4477 0.167969C29.6594 0.57513 32.8042 1.66089 35.5475 3.15382C38.3577 4.71461 40.8334 6.68255 42.9076 9.05766H42.9745ZM42.7068 9.3291C40.6326 7.02185 38.0231 5.18963 35.2129 4.036C32.4027 2.88238 29.3249 2.40736 26.3808 2.47522C23.4368 2.54308 20.4928 3.22168 17.8164 4.30744C15.14 5.39321 12.6643 6.95399 10.5232 8.92194C8.38208 10.8899 6.70933 13.265 5.37114 15.8437C4.09985 18.4902 3.36384 21.3404 3.0962 24.2584C2.69474 30.0943 4.56822 36.2018 8.31517 40.8841C10.1886 43.1914 12.5974 45.2272 15.3407 46.5844C18.0171 47.9416 21.0949 48.7559 24.1059 48.8238C27.1168 48.8916 30.1947 48.2809 32.938 47.1273C35.6813 45.9058 38.157 44.2093 40.2312 42.1056C44.3796 37.9661 47.1229 32.4694 47.8589 26.4299C48.1934 23.444 48.0596 20.3225 47.1229 17.3366C46.253 14.3508 44.7141 11.5685 42.6399 9.26124L42.7068 9.3291Z" fill="black"/>
<mask id="path-4-outside-1_2946_28696" maskUnits="userSpaceOnUse" x="15" y="11" width="20" height="28" fill="black">
<rect fill="white" x="15" y="11" width="20" height="28"/>
<path d="M25.1077 35.884C24.8477 35.884 24.6397 35.884 24.3797 35.78C23.4957 35.364 23.1837 34.74 23.3397 33.648C23.3917 33.336 23.3917 33.232 23.1837 32.868C22.9757 32.504 22.9757 32.348 22.9757 31.828C22.9757 31.464 22.9237 30.944 22.8717 30.58C22.7157 29.852 22.6637 28.656 22.6637 27.98C21.7797 27.876 21.5197 27.928 21.3117 27.408C21.2077 27.148 21.2597 26.888 21.5197 26.576C21.8317 26.264 21.9877 26.212 22.5597 26.108C22.8717 26.108 23.0797 26.056 23.1317 25.952C23.1317 25.9 23.1837 25.536 23.1837 25.12C23.1837 24.548 23.2357 24.236 23.3397 23.924C23.3917 23.716 23.4437 23.404 23.4437 23.248C23.4437 22.78 23.5997 22.26 23.9117 21.584C24.4837 20.44 24.5357 20.232 24.5877 19.608C24.6397 18.984 24.6917 18.88 25.2117 17.892L24.8997 17.944C24.7437 17.996 24.4317 18.1 24.2757 18.204C24.0677 18.256 23.7557 18.412 23.5477 18.464C23.2357 18.568 22.6117 18.828 21.8317 19.192C21.3637 19.348 20.8957 19.868 20.3237 20.7C20.0117 21.22 19.5437 21.324 19.1797 21.012C18.8677 20.752 18.7637 19.816 19.0237 18.984C19.1277 18.672 19.2317 18.464 19.4917 18.204C19.9597 17.736 20.6877 17.372 21.5197 17.112L23.7037 16.332C25.1597 15.864 26.1477 15.396 26.8757 14.72C27.0837 14.564 27.3437 14.408 27.4477 14.356C27.9677 14.2 28.7477 14.408 29.1117 14.824C29.3197 15.084 29.7877 16.592 29.7877 17.06C29.7877 17.216 29.7357 17.476 29.6837 17.684C29.4757 18.308 29.3197 19.296 29.3197 20.18C29.2677 22.104 28.8517 20.96 28.4877 25.224C28.4357 25.796 28.4357 25.796 29.4237 25.9C30.3077 25.952 30.9317 26.056 31.0877 26.264C31.1397 26.368 31.1917 26.576 31.0877 26.68C31.0357 26.784 30.6717 26.94 30.5677 26.888C30.5677 26.836 30.2037 26.888 29.7877 26.992C29.3717 27.044 28.8517 27.148 28.6437 27.148H28.2277C28.1237 27.72 28.0197 28.24 28.1237 28.968C28.1237 29.384 28.1237 29.696 28.0197 30.216C27.9677 30.58 27.9157 31.152 27.9157 31.672C27.9157 32.192 27.8637 32.556 27.8117 32.712C27.7597 32.816 27.7077 33.18 27.6557 33.44C27.6037 34.272 27.4477 34.74 27.1877 34.74C27.1357 34.74 26.9277 34.844 26.7717 35C25.7837 35.728 25.5237 35.832 25.1077 35.884Z"/>
</mask>
<path d="M25.1077 35.884C24.8477 35.884 24.6397 35.884 24.3797 35.78C23.4957 35.364 23.1837 34.74 23.3397 33.648C23.3917 33.336 23.3917 33.232 23.1837 32.868C22.9757 32.504 22.9757 32.348 22.9757 31.828C22.9757 31.464 22.9237 30.944 22.8717 30.58C22.7157 29.852 22.6637 28.656 22.6637 27.98C21.7797 27.876 21.5197 27.928 21.3117 27.408C21.2077 27.148 21.2597 26.888 21.5197 26.576C21.8317 26.264 21.9877 26.212 22.5597 26.108C22.8717 26.108 23.0797 26.056 23.1317 25.952C23.1317 25.9 23.1837 25.536 23.1837 25.12C23.1837 24.548 23.2357 24.236 23.3397 23.924C23.3917 23.716 23.4437 23.404 23.4437 23.248C23.4437 22.78 23.5997 22.26 23.9117 21.584C24.4837 20.44 24.5357 20.232 24.5877 19.608C24.6397 18.984 24.6917 18.88 25.2117 17.892L24.8997 17.944C24.7437 17.996 24.4317 18.1 24.2757 18.204C24.0677 18.256 23.7557 18.412 23.5477 18.464C23.2357 18.568 22.6117 18.828 21.8317 19.192C21.3637 19.348 20.8957 19.868 20.3237 20.7C20.0117 21.22 19.5437 21.324 19.1797 21.012C18.8677 20.752 18.7637 19.816 19.0237 18.984C19.1277 18.672 19.2317 18.464 19.4917 18.204C19.9597 17.736 20.6877 17.372 21.5197 17.112L23.7037 16.332C25.1597 15.864 26.1477 15.396 26.8757 14.72C27.0837 14.564 27.3437 14.408 27.4477 14.356C27.9677 14.2 28.7477 14.408 29.1117 14.824C29.3197 15.084 29.7877 16.592 29.7877 17.06C29.7877 17.216 29.7357 17.476 29.6837 17.684C29.4757 18.308 29.3197 19.296 29.3197 20.18C29.2677 22.104 28.8517 20.96 28.4877 25.224C28.4357 25.796 28.4357 25.796 29.4237 25.9C30.3077 25.952 30.9317 26.056 31.0877 26.264C31.1397 26.368 31.1917 26.576 31.0877 26.68C31.0357 26.784 30.6717 26.94 30.5677 26.888C30.5677 26.836 30.2037 26.888 29.7877 26.992C29.3717 27.044 28.8517 27.148 28.6437 27.148H28.2277C28.1237 27.72 28.0197 28.24 28.1237 28.968C28.1237 29.384 28.1237 29.696 28.0197 30.216C27.9677 30.58 27.9157 31.152 27.9157 31.672C27.9157 32.192 27.8637 32.556 27.8117 32.712C27.7597 32.816 27.7077 33.18 27.6557 33.44C27.6037 34.272 27.4477 34.74 27.1877 34.74C27.1357 34.74 26.9277 34.844 26.7717 35C25.7837 35.728 25.5237 35.832 25.1077 35.884Z" fill="white"/>
<path d="M25.1077 35.884V38.884H25.2944L25.4798 38.8608L25.1077 35.884ZM24.3797 35.78L23.1023 38.4945L23.1828 38.5324L23.2655 38.5654L24.3797 35.78ZM23.3397 33.648L20.3805 33.1548L20.3747 33.1892L20.3698 33.2237L23.3397 33.648ZM22.8717 30.58L25.8415 30.1557L25.8268 30.0529L25.8051 29.9514L22.8717 30.58ZM22.6637 27.98H25.6637V25.3123L23.0142 25.0005L22.6637 27.98ZM21.3117 27.408L24.0971 26.2938L21.3117 27.408ZM21.5197 26.576L19.3983 24.4547L19.3021 24.5509L19.215 24.6554L21.5197 26.576ZM22.5597 26.108V23.108H22.2891L22.023 23.1564L22.5597 26.108ZM23.1317 25.952L25.8149 27.2936L26.1317 26.6602V25.952H23.1317ZM23.3397 23.924L26.1857 24.8727L26.2221 24.7634L26.2501 24.6516L23.3397 23.924ZM23.9117 21.584L21.2284 20.2424L21.2074 20.2843L21.1878 20.3268L23.9117 21.584ZM24.5877 19.608L27.5773 19.8571V19.8571L24.5877 19.608ZM25.2117 17.892L27.8664 19.2892L30.6824 13.9388L24.7185 14.9328L25.2117 17.892ZM24.8997 17.944L24.4065 14.9848L24.1743 15.0235L23.951 15.0979L24.8997 17.944ZM24.2757 18.204L25.0033 21.1144L25.5074 20.9884L25.9398 20.7001L24.2757 18.204ZM23.5477 18.464L22.8201 15.5536L22.7083 15.5815L22.599 15.6179L23.5477 18.464ZM21.8317 19.192L22.7803 22.038L22.944 21.9835L23.1003 21.9105L21.8317 19.192ZM20.3237 20.7L17.8515 19.0004L17.7989 19.0769L17.7512 19.1565L20.3237 20.7ZM19.1797 21.012L21.132 18.7342L21.1162 18.7207L21.1002 18.7073L19.1797 21.012ZM19.0237 18.984L16.1776 18.0353L16.1687 18.0622L16.1602 18.0892L19.0237 18.984ZM19.4917 18.204L21.613 20.3253L21.613 20.3253L19.4917 18.204ZM21.5197 17.112L22.4145 19.9754L22.472 19.9575L22.5287 19.9372L21.5197 17.112ZM23.7037 16.332L22.7856 13.4759L22.7399 13.4906L22.6946 13.5068L23.7037 16.332ZM26.8757 14.72L25.0757 12.32L24.9497 12.4145L24.8343 12.5216L26.8757 14.72ZM27.4477 14.356L26.5856 11.4825L26.3376 11.5569L26.106 11.6727L27.4477 14.356ZM29.1117 14.824L31.4543 12.9499L31.4129 12.8983L31.3694 12.8485L29.1117 14.824ZM29.6837 17.684L32.5297 18.6327L32.5661 18.5234L32.5941 18.4116L29.6837 17.684ZM29.3197 20.18L32.3186 20.2611L32.3197 20.2205V20.18H29.3197ZM28.4877 25.224L31.4753 25.4956L31.4761 25.4874L31.4768 25.4792L28.4877 25.224ZM29.4237 25.9L29.1096 28.8835L29.1784 28.8908L29.2475 28.8948L29.4237 25.9ZM31.0877 26.264L33.7709 24.9224L33.65 24.6804L33.4877 24.464L31.0877 26.264ZM31.0877 26.68L28.9663 24.5587L28.6221 24.9029L28.4044 25.3384L31.0877 26.68ZM30.5677 26.888H27.5677V28.7421L29.226 29.5713L30.5677 26.888ZM29.7877 26.992L30.1598 29.9688L30.3395 29.9464L30.5153 29.9024L29.7877 26.992ZM28.2277 27.148V24.148H25.7239L25.276 26.6113L28.2277 27.148ZM28.1237 28.968H31.1237V28.7548L31.0935 28.5437L28.1237 28.968ZM28.0197 30.216L25.0779 29.6276L25.0616 29.7093L25.0498 29.7917L28.0197 30.216ZM27.8117 32.712L30.4949 34.0536L30.5903 33.8629L30.6577 33.6607L27.8117 32.712ZM27.6557 33.44L24.7139 32.8517L24.6741 33.0505L24.6615 33.2529L27.6557 33.44ZM26.7717 35L28.5513 37.4152L28.7332 37.2811L28.893 37.1213L26.7717 35ZM25.1077 32.884C25.0346 32.884 25.0143 32.8838 25.0018 32.8835C24.9957 32.8833 25.0253 32.8838 25.075 32.8893C25.1277 32.8952 25.1966 32.9059 25.2756 32.9251C25.3549 32.9444 25.4285 32.9684 25.4938 32.9946L23.2655 38.5654C24.1184 38.9066 24.8569 38.884 25.1077 38.884V32.884ZM25.657 33.0655C25.619 33.0476 25.9427 33.197 26.163 33.6462C26.3602 34.0482 26.2772 34.2981 26.3095 34.0723L20.3698 33.2237C20.2461 34.0899 20.2411 35.1978 20.7763 36.2888C21.3347 37.427 22.2563 38.0964 23.1023 38.4945L25.657 33.0655ZM26.2988 34.1412C26.3217 34.0042 26.4328 33.4319 26.3135 32.7561C26.1985 32.1047 25.9195 31.609 25.7884 31.3796L20.5789 34.3564C20.6558 34.491 20.4808 34.2293 20.4048 33.7989C20.3246 33.3441 20.4096 32.9798 20.3805 33.1548L26.2988 34.1412ZM25.7884 31.3796C25.7796 31.3642 25.8128 31.4198 25.853 31.5215C25.8989 31.6374 25.9351 31.7651 25.9573 31.8925C25.9767 32.0041 25.9778 32.0741 25.9771 32.0544C25.976 32.0241 25.9757 31.9745 25.9757 31.828H19.9757C19.9757 31.9931 19.9657 32.4587 20.046 32.9205C20.1513 33.5259 20.3704 33.9915 20.5789 34.3564L25.7884 31.3796ZM25.9757 31.828C25.9757 31.2619 25.9027 30.5844 25.8415 30.1557L19.9018 31.0043C19.9446 31.3036 19.9757 31.6661 19.9757 31.828H25.9757ZM25.8051 29.9514C25.7192 29.5505 25.6637 28.6204 25.6637 27.98H19.6637C19.6637 28.6916 19.7122 30.1535 19.9382 31.2086L25.8051 29.9514ZM23.0142 25.0005C22.8817 24.985 22.7635 24.9726 22.6695 24.9629C22.5675 24.9523 22.5094 24.9463 22.4592 24.9404C22.3285 24.925 22.4568 24.9309 22.6552 24.9949C22.9249 25.0819 23.3039 25.2653 23.645 25.6188C23.9478 25.9326 24.0707 26.2279 24.0971 26.2938L18.5262 28.5222C18.6566 28.8481 18.89 29.3319 19.3277 29.7855C19.8037 30.2787 20.3419 30.5531 20.8131 30.7051C21.213 30.8341 21.5851 30.879 21.7582 30.8993C21.86 30.9113 21.9688 30.9224 22.051 30.9309C22.1413 30.9403 22.2246 30.949 22.3131 30.9595L23.0142 25.0005ZM24.0971 26.2938C24.2546 26.6877 24.3207 27.1893 24.1976 27.7064C24.0888 28.1633 23.8796 28.4303 23.8243 28.4966L19.215 24.6554C18.8997 25.0337 18.5345 25.5867 18.3607 26.3166C18.1726 27.1067 18.2647 27.8683 18.5262 28.5222L24.0971 26.2938ZM23.641 28.6973C23.6665 28.6718 23.6214 28.7201 23.5287 28.7893C23.4196 28.8709 23.2862 28.9509 23.1383 29.0152C23.0054 29.073 22.9125 29.0952 22.9106 29.0957C22.9091 29.0961 22.9212 29.0931 22.9548 29.0863C22.9884 29.0796 23.0329 29.0711 23.0963 29.0596L22.023 23.1564C21.7842 23.1998 21.2631 23.288 20.746 23.5128C20.1067 23.7908 19.6798 24.1732 19.3983 24.4547L23.641 28.6973ZM22.5597 29.108C22.8448 29.108 23.2648 29.0881 23.7161 28.9677C24.0031 28.8912 25.1839 28.5556 25.8149 27.2936L20.4484 24.6104C20.7538 23.9995 21.1971 23.6467 21.4919 23.4653C21.7841 23.2855 22.0381 23.2055 22.1702 23.1703C22.3134 23.1321 22.4205 23.1186 22.4711 23.1135C22.5259 23.108 22.5573 23.108 22.5597 23.108V29.108ZM26.1317 25.952C26.1317 26.0515 26.1263 26.1272 26.1254 26.1414C26.1236 26.1674 26.122 26.1854 26.1217 26.1882C26.1213 26.1926 26.1215 26.1904 26.1244 26.1621C26.1291 26.1161 26.1377 26.032 26.1464 25.9324C26.1635 25.7349 26.1837 25.4463 26.1837 25.12H20.1837C20.1837 25.2097 20.1778 25.3111 20.1689 25.4126C20.1646 25.4625 20.1602 25.5051 20.1552 25.555C20.1532 25.5746 20.1493 25.6126 20.1461 25.6485C20.1444 25.6671 20.1416 25.6987 20.1391 25.736C20.1374 25.7614 20.1317 25.846 20.1317 25.952H26.1317ZM26.1837 25.12C26.1837 24.9195 26.1932 24.8441 26.1945 24.8344C26.1948 24.8322 26.1936 24.8409 26.1901 24.8556C26.1867 24.8702 26.184 24.8778 26.1857 24.8727L20.4936 22.9753C20.2594 23.678 20.1837 24.3291 20.1837 25.12H26.1837ZM26.2501 24.6516C26.3236 24.3575 26.4437 23.7677 26.4437 23.248H20.4437C20.4437 23.2167 20.4443 23.1906 20.445 23.1708C20.4457 23.1508 20.4466 23.1344 20.4474 23.1222C20.4489 23.0985 20.4504 23.0834 20.451 23.0785C20.4515 23.0729 20.4517 23.0724 20.451 23.0771C20.4504 23.0816 20.4494 23.0888 20.4479 23.0986C20.4446 23.119 20.4405 23.1422 20.4361 23.1642C20.434 23.1748 20.4321 23.1834 20.4307 23.1897C20.4293 23.1962 20.4287 23.1984 20.4292 23.1964L26.2501 24.6516ZM26.4437 23.248C26.4437 23.3517 26.4257 23.3864 26.4452 23.3182C26.4669 23.2425 26.5185 23.0947 26.6355 22.8412L21.1878 20.3268C20.8154 21.1336 20.4437 22.1277 20.4437 23.248H26.4437ZM26.5949 22.9256C26.8725 22.3706 27.1229 21.853 27.2907 21.3497C27.4955 20.7353 27.545 20.2452 27.5773 19.8571L21.598 19.3589C21.5863 19.4991 21.5815 19.525 21.5824 19.5197C21.5837 19.5121 21.5864 19.4977 21.5908 19.4804C21.5928 19.4724 21.5946 19.4655 21.5962 19.4602C21.5977 19.455 21.5986 19.4522 21.5986 19.4523C21.5974 19.456 21.5802 19.5065 21.5186 19.6425C21.4564 19.7798 21.3662 19.9667 21.2284 20.2424L26.5949 22.9256ZM27.5773 19.8571C27.5887 19.7205 27.5925 19.7136 27.5866 19.7466C27.5756 19.8078 27.5564 19.8773 27.5364 19.9311C27.5251 19.9617 27.5287 19.9447 27.5881 19.8253C27.6484 19.7041 27.7314 19.5458 27.8664 19.2892L22.5569 16.4948C22.3394 16.9081 22.0806 17.3878 21.9119 17.8419C21.6829 18.4584 21.6307 18.9667 21.598 19.3589L27.5773 19.8571ZM24.7185 14.9328L24.4065 14.9848L25.3929 20.9032L25.7049 20.8512L24.7185 14.9328ZM23.951 15.0979C23.8774 15.1225 23.695 15.1828 23.5003 15.2585C23.36 15.3131 22.9804 15.462 22.6116 15.7079L25.9398 20.7001C25.8666 20.7489 25.8075 20.7825 25.7719 20.8018C25.7347 20.822 25.7071 20.8353 25.6924 20.8422C25.6772 20.8494 25.6682 20.8532 25.6669 20.8537C25.6653 20.8544 25.6678 20.8533 25.675 20.8505C25.6904 20.8445 25.7136 20.836 25.7455 20.8248C25.7776 20.8137 25.8086 20.8033 25.8483 20.7901L23.951 15.0979ZM23.5481 15.2936C23.343 15.3448 23.1686 15.4065 23.0663 15.4442C22.9588 15.4838 22.8543 15.5258 22.7975 15.5486C22.7243 15.5778 22.6988 15.5878 22.6828 15.5937C22.6616 15.6015 22.719 15.5788 22.8201 15.5536L24.2753 21.3744C24.4803 21.3232 24.6547 21.2615 24.757 21.2238C24.8645 21.1842 24.969 21.1422 25.0258 21.1194C25.099 21.0902 25.1245 21.0802 25.1405 21.0743C25.1617 21.0665 25.1043 21.0892 25.0033 21.1144L23.5481 15.2936ZM22.599 15.6179C22.1144 15.7795 21.3603 16.1014 20.563 16.4734L23.1003 21.9105C23.4622 21.7417 23.7789 21.6011 24.0321 21.4942C24.3006 21.3809 24.4508 21.3252 24.4963 21.31L22.599 15.6179ZM20.883 16.3459C20.0063 16.6382 19.3757 17.1804 18.968 17.5989C18.5458 18.0322 18.1737 18.5318 17.8515 19.0004L22.7958 22.3996C22.9147 22.2266 23.014 22.0906 23.0973 21.9842C23.1815 21.8767 23.2366 21.8156 23.2653 21.7861C23.2953 21.7553 23.2763 21.7799 23.2084 21.8278C23.1387 21.877 22.9953 21.9664 22.7803 22.038L20.883 16.3459ZM17.7512 19.1565C17.8722 18.9548 18.2487 18.4626 19.0215 18.2632C19.8818 18.0412 20.6629 18.3321 21.132 18.7342L17.2273 23.2898C18.0604 24.0039 19.2575 24.3988 20.5208 24.0728C21.6966 23.7694 22.4631 22.9652 22.8961 22.2435L17.7512 19.1565ZM21.1002 18.7073C21.3641 18.9272 21.5289 19.1521 21.6248 19.3073C21.7226 19.4656 21.7783 19.5993 21.8089 19.6839C21.8676 19.8466 21.8752 19.9444 21.8757 19.9503C21.8763 19.9576 21.8776 19.9094 21.8871 19.8788L16.1602 18.0892C15.9098 18.8906 15.833 19.7264 15.8986 20.4747C15.9317 20.8511 16.0074 21.2837 16.1653 21.721C16.3059 22.1106 16.6077 22.7738 17.2591 23.3167L21.1002 18.7073ZM21.8697 19.9327C21.8919 19.8662 21.8687 19.951 21.7954 20.0776C21.714 20.2182 21.6334 20.3049 21.613 20.3253L17.3703 16.0827C16.7025 16.7505 16.3892 17.4005 16.1776 18.0353L21.8697 19.9327ZM21.613 20.3253C21.581 20.3573 21.6142 20.3152 21.7705 20.2326C21.9207 20.1533 22.1347 20.0629 22.4145 19.9754L20.6248 14.2486C19.5854 14.5734 18.3304 15.1226 17.3703 16.0827L21.613 20.3253ZM22.5287 19.9372L24.7127 19.1572L22.6946 13.5068L20.5106 14.2868L22.5287 19.9372ZM24.6217 19.1881C26.2 18.6808 27.6985 18.0498 28.917 16.9184L24.8343 12.5216C24.5968 12.7422 24.1193 13.0472 22.7856 13.4759L24.6217 19.1881ZM28.6757 17.12C28.6813 17.1158 28.6958 17.1052 28.7191 17.0895C28.7417 17.0742 28.7664 17.0581 28.7907 17.043C28.8152 17.0276 28.8336 17.0167 28.8428 17.0114C28.8472 17.0089 28.8464 17.0095 28.8404 17.0127C28.8361 17.0151 28.8179 17.025 28.7893 17.0393L26.106 11.6727C25.8235 11.814 25.411 12.0685 25.0757 12.32L28.6757 17.12ZM28.3097 17.2295C28.077 17.2993 27.8967 17.3064 27.7957 17.3037C27.6889 17.3009 27.605 17.2854 27.5384 17.2669C27.472 17.2486 27.3863 17.2172 27.2845 17.1591C27.1871 17.1036 27.0246 16.9946 26.8539 16.7995L31.3694 12.8485C30.693 12.0754 29.8257 11.6743 29.1379 11.4841C28.4482 11.2933 27.5267 11.2002 26.5856 11.4825L28.3097 17.2295ZM26.7691 16.6981C26.7099 16.6241 26.6652 16.5603 26.6347 16.5145C26.6035 16.4676 26.5795 16.4281 26.5628 16.3994C26.5303 16.3439 26.5109 16.3046 26.5042 16.291C26.4916 16.2652 26.4955 16.2705 26.5146 16.3187C26.5516 16.4125 26.604 16.562 26.6586 16.7407C26.7128 16.918 26.7564 17.0825 26.7833 17.2029C26.7896 17.2312 26.7942 17.2535 26.7973 17.2701C26.8006 17.287 26.8017 17.2942 26.8015 17.2927C26.8014 17.2922 26.7986 17.2745 26.7957 17.2428C26.7929 17.2141 26.7877 17.1496 26.7877 17.06H32.7877C32.7877 16.5874 32.6909 16.1277 32.6393 15.8966C32.5719 15.5945 32.4855 15.278 32.3967 14.9873C32.3083 14.698 32.2047 14.3925 32.0955 14.1158C32.0437 13.9844 31.8308 13.4206 31.4543 12.9499L26.7691 16.6981ZM26.7877 17.06C26.7877 16.9985 26.7901 16.9504 26.7922 16.9199C26.7943 16.8885 26.7968 16.8653 26.7983 16.852C26.8011 16.8272 26.8029 16.8192 26.8008 16.8311C26.799 16.8414 26.7956 16.8591 26.7903 16.8834C26.7851 16.9072 26.7793 16.9323 26.7732 16.9564L32.5941 18.4116C32.6438 18.2128 32.7877 17.6269 32.7877 17.06H26.7877ZM26.8376 16.7353C26.512 17.7122 26.3197 19.0271 26.3197 20.18H32.3197C32.3197 19.5649 32.4393 18.9038 32.5297 18.6327L26.8376 16.7353ZM26.3208 20.0989C26.3107 20.4694 26.2863 20.5473 26.2928 20.5185C26.2951 20.5083 26.2956 20.5114 26.2781 20.5647C26.2672 20.5982 26.2562 20.6305 26.2347 20.694C26.2154 20.7512 26.1904 20.8258 26.1634 20.9102C25.9116 21.6969 25.6901 22.7241 25.4985 24.9688L31.4768 25.4792C31.6492 23.4599 31.8177 22.9271 31.8779 22.7388C31.8866 22.7116 32.0549 22.2405 32.145 21.8419C32.2555 21.3532 32.3026 20.8526 32.3186 20.2611L26.3208 20.0989ZM25.5 24.9524C25.4982 24.9722 25.4447 25.4181 25.4876 25.8519C25.5529 26.5114 25.8557 27.4809 26.8092 28.1695C27.476 28.6511 28.1805 28.7595 28.3488 28.7882C28.6048 28.8319 28.9049 28.862 29.1096 28.8835L29.7377 22.9165C29.609 22.9029 29.5201 22.8935 29.4469 22.8849C29.3719 22.8762 29.3508 22.8725 29.3578 22.8737C29.3585 22.8738 29.4535 22.8891 29.5933 22.9337C29.7313 22.9779 30.0115 23.0811 30.3221 23.3055C30.6655 23.5535 30.9727 23.8967 31.1856 24.3239C31.3826 24.7193 31.4394 25.0681 31.4584 25.2607C31.4766 25.4443 31.4681 25.5736 31.4678 25.5791C31.4673 25.5879 31.4674 25.5828 31.4753 25.4956L25.5 24.9524ZM29.2475 28.8948C29.6433 28.9181 29.8522 28.9472 29.9275 28.9626C29.9671 28.9708 29.8761 28.9567 29.7188 28.8902C29.6352 28.855 29.4926 28.7881 29.3246 28.6742C29.1589 28.5619 28.916 28.3685 28.6877 28.064L33.4877 24.464C32.9828 23.7909 32.3452 23.4863 32.0535 23.3631C31.7077 23.2171 31.3762 23.1347 31.1298 23.0844C30.6331 22.9828 30.088 22.9339 29.5998 22.9052L29.2475 28.8948ZM28.4044 27.6056C28.2859 27.3687 28.1862 27.0778 28.1565 26.7211C28.133 26.4386 28.1018 25.4232 28.9663 24.5587L33.209 28.8013C34.1775 27.8328 34.1723 26.6614 34.1358 26.2229C34.0931 25.7102 33.9414 25.2633 33.7709 24.9224L28.4044 27.6056ZM28.4044 25.3384C28.6215 24.9042 28.8918 24.6358 29.0082 24.5273C29.1485 24.3964 29.2718 24.3093 29.3459 24.2603C29.4939 24.1626 29.6179 24.1043 29.7049 24.0685C29.7873 24.0345 29.9392 23.9783 30.1531 23.9397C30.26 23.9204 30.4501 23.893 30.6938 23.8992C30.9061 23.9046 31.3777 23.9389 31.9093 24.2047L29.226 29.5713C29.7836 29.8501 30.2893 29.8909 30.5416 29.8973C30.8253 29.9045 31.0614 29.8727 31.2179 29.8444C31.5309 29.788 31.7965 29.696 31.9894 29.6165C32.1869 29.5352 32.4182 29.4217 32.6523 29.2671C32.7502 29.2024 33.3783 28.8069 33.7709 28.0216L28.4044 25.3384ZM33.5677 26.888C33.5677 25.8792 33.0795 25.1002 32.5521 24.6333C32.1031 24.2358 31.6495 24.0732 31.443 24.0089C31.0211 23.8775 30.6651 23.8703 30.5643 23.8683C30.2877 23.8628 30.0459 23.893 29.9283 23.909C29.6446 23.9477 29.3372 24.0123 29.0601 24.0816L30.5153 29.9024C30.5777 29.8868 30.6336 29.8743 30.6783 29.8653C30.7261 29.8557 30.7459 29.853 30.739 29.854C30.7351 29.8545 30.7122 29.8576 30.6744 29.8607C30.6434 29.8632 30.5598 29.8694 30.4443 29.8671C30.3841 29.8659 30.0598 29.8623 29.6595 29.7377C29.4637 29.6767 29.0183 29.5182 28.5749 29.1257C28.053 28.6637 27.5677 27.8903 27.5677 26.888H33.5677ZM29.4156 24.0152C29.1472 24.0487 28.8357 24.1003 28.6745 24.1255C28.5753 24.141 28.5158 24.1496 28.4796 24.1541C28.4629 24.1562 28.4661 24.1555 28.4835 24.154C28.4955 24.153 28.5553 24.148 28.6437 24.148V30.148C28.8924 30.148 29.1184 30.1209 29.2238 30.1078C29.3565 30.0912 29.4921 30.0705 29.6008 30.0535C29.8556 30.0137 30.0122 29.9873 30.1598 29.9688L29.4156 24.0152ZM28.6437 24.148H28.2277V30.148H28.6437V24.148ZM25.276 26.6113C25.1757 27.1634 24.9729 28.1257 25.1538 29.3923L31.0935 28.5437C31.0776 28.4327 31.078 28.3538 31.0859 28.2651C31.0972 28.138 31.1194 28.0138 31.1793 27.6847L25.276 26.6113ZM25.1237 28.968C25.1237 29.1908 25.1226 29.2741 25.1173 29.3534C25.1134 29.4117 25.1055 29.4898 25.0779 29.6276L30.9614 30.8043C31.1254 29.9846 31.1237 29.4315 31.1237 28.968H25.1237ZM25.0498 29.7917C24.9812 30.2722 24.9157 30.9876 24.9157 31.672H30.9157C30.9157 31.3163 30.9541 30.8878 30.9895 30.6403L25.0498 29.7917ZM24.9157 31.672C24.9157 31.7523 24.9136 31.8207 24.9107 31.8766C24.9078 31.9329 24.9042 31.9731 24.9015 31.9972C24.8986 32.0231 24.8978 32.0219 24.9025 31.9972C24.905 31.9842 24.91 31.9592 24.9186 31.9243C24.9268 31.8911 24.9417 31.8351 24.9656 31.7633L30.6577 33.6607C30.866 33.0357 30.9157 32.2796 30.9157 31.672H24.9157ZM25.1284 31.3704C25.0231 31.5808 24.9621 31.7627 24.9336 31.8523C24.9002 31.957 24.8759 32.0496 24.8596 32.116C24.8274 32.2467 24.8027 32.3717 24.7866 32.4562C24.7699 32.5439 24.7533 32.6376 24.742 32.7004C24.7288 32.7736 24.7205 32.8188 24.7139 32.8517L30.5974 34.0283C30.6075 33.9778 30.6168 33.9291 30.6248 33.8855C30.6329 33.842 30.6406 33.7994 30.6473 33.762C30.6545 33.7219 30.6601 33.691 30.666 33.658C30.6718 33.6264 30.6765 33.6007 30.6807 33.5788C30.6849 33.5567 30.6877 33.543 30.6892 33.5356C30.691 33.5273 30.6898 33.5336 30.6857 33.5501C30.6835 33.559 30.6798 33.5735 30.6746 33.5925C30.6695 33.6112 30.6616 33.6386 30.6507 33.6727C30.6402 33.7059 30.624 33.754 30.6016 33.8122C30.5902 33.8419 30.5761 33.877 30.5591 33.9162C30.5422 33.9552 30.5209 34.0017 30.4949 34.0536L25.1284 31.3704ZM24.6615 33.2529C24.6411 33.5797 24.6098 33.5762 24.6707 33.4035C24.6995 33.322 24.8212 32.9881 25.1491 32.6296C25.5324 32.2103 26.2316 31.74 27.1877 31.74V37.74C28.2737 37.74 29.0899 37.2112 29.5772 36.6782C30.0091 36.2059 30.2218 35.703 30.3286 35.4005C30.5456 34.7858 30.6182 34.1323 30.6498 33.6271L24.6615 33.2529ZM27.1877 31.74C26.5127 31.74 25.9913 31.9801 25.9688 31.9895C25.7924 32.063 25.6363 32.1448 25.507 32.2202C25.2549 32.3672 24.9464 32.5827 24.6503 32.8787L28.893 37.1213C28.753 37.2613 28.6264 37.3468 28.5303 37.4028C28.4791 37.4327 28.3944 37.4788 28.2765 37.5279C28.2189 37.5519 28.1195 37.5909 27.9889 37.6283C27.9048 37.6525 27.5978 37.74 27.1877 37.74V31.74ZM24.9921 32.5848C24.764 32.7529 24.6054 32.8645 24.492 32.9399C24.3771 33.0163 24.3406 33.034 24.3547 33.0268C24.3809 33.0133 24.4582 32.977 24.5706 32.9445C24.6788 32.9132 24.7536 32.9049 24.7356 32.9072L25.4798 38.8608C25.9606 38.8007 26.4818 38.6794 27.0956 38.3642C27.5709 38.1201 28.0526 37.7826 28.5513 37.4152L24.9921 32.5848Z" fill="black" mask="url(#path-4-outside-1_2946_28696)"/>
</svg>
