<svg width="131" height="312" viewBox="0 0 131 312" fill="none" xmlns="http://www.w3.org/2000/svg">
<mask id="mask0_2987_12976" style="mask-type:alpha" maskUnits="userSpaceOnUse" x="0" y="0" width="131" height="312">
<rect width="131" height="312" fill="#A25A9F"/>
</mask>
<g mask="url(#mask0_2987_12976)">
<path d="M77.173 70.8725C76.658 70.8725 52.7484 70.8725 52.7484 70.8725L66.7263 156.642L71.5818 155.753L83.8677 155.012" fill="#0ABBEF"/>
<path d="M36.5634 286.555C36.122 286.777 35.9012 286.851 35.9748 286.777C36.122 286.481 36.4898 284.703 36.8576 282.185L36.3427 282.481C36.3427 282.259 37.0783 273.816 37.0783 273.816L40.6832 224.783L41.051 224.709V219.08L43.1109 186.861L44.0673 185.454L65.1078 155.753L82.6906 155.012L89.4588 185.084C89.4588 185.084 89.3117 185.528 89.0174 186.195C91.1509 185.824 95.2707 184.565 98.2135 183.676C100.273 183.01 101.818 182.565 101.818 182.565L104.614 220.043C104.614 220.043 106.453 244.559 106.674 247.151C106.894 249.744 109.322 277.223 109.322 277.223C109.322 277.223 112.265 300.257 112.339 300.85C112.339 301.072 112.78 302.998 113.221 305.516C114.325 311.071 116.017 319.515 116.017 319.515L117.268 325.884L119.254 333.587L118.96 333.736C118.96 333.736 118.739 333.81 118.445 333.587C118.15 333.365 114.031 332.106 114.031 332.106L113.957 332.032C113.736 332.106 113.516 332.254 113.295 332.254C109.469 332.847 105.717 333.884 102.039 335.217C97.9928 336.624 94.1672 338.476 90.5624 340.55C89.606 333.884 88.6496 327.218 87.7668 320.552C87.5461 318.774 87.2518 316.922 86.2954 315.293C86.0747 314.849 85.7069 314.478 85.6333 313.96C85.2655 312.627 86.4426 311.367 87.5461 310.479C85.9276 310.775 84.5298 309.071 84.6034 307.442C84.6769 305.812 85.7804 304.405 86.9575 303.368C85.0448 294.85 83.647 286.259 82.8377 277.519L83.0584 276.334C83.132 274.186 82.5434 272.038 82.3963 269.89C82.3963 269.594 82.3963 269.297 82.3963 268.927C82.3963 268.927 82.1756 263.372 82.0285 263.298C81.8813 263.15 82.9113 259.817 83.2791 257.447C83.647 255.077 81.2192 249.448 81.2192 249.448C81.2192 249.448 80.4835 246.485 80.1893 245.3C79.895 244.115 78.0558 235.893 78.0558 235.893L75.2602 219.451L75.0395 218.265L74.9659 217.451C74.8924 217.451 74.7452 217.525 74.6717 217.525L72.3175 229.82L68.6391 249.299L65.7699 264.705L65.3285 268.927C65.3285 268.927 65.3285 268.927 65.2549 268.927C65.6228 269.89 66.1378 270.779 66.7263 271.594C66.947 271.964 67.2413 272.26 67.3149 272.705C67.3884 274.038 65.1814 274.186 64.5193 275.371C63.71 276.926 65.9906 278.408 65.9906 280.185C65.9906 280.704 65.8435 281.148 65.6963 281.593C64.3721 285.666 64.225 290.11 64.0778 294.406C64.0043 296.998 63.9307 299.665 63.8571 302.257C63.5629 312.923 63.5629 323.588 64.5928 334.18C64.74 335.587 64.8871 337.069 64.0778 338.254C63.71 338.846 63.1215 339.291 62.4593 339.661C59.8845 341.142 56.7946 341.364 53.8519 341.068C50.9092 340.772 48.04 339.883 45.1708 339.216C42.4488 338.55 39.2854 338.18 37.2255 340.031C36.9312 340.253 36.6369 340.624 36.2691 340.698C36.1219 340.772 35.9013 340.772 35.6805 340.698C34.9449 340.624 34.1356 340.253 33.7678 340.772C32.5907 339.365 32.37 337.365 32.2964 335.513C31.34 319.07 35.1656 302.85 36.5634 286.555ZM37.4462 277.963C37.2255 279 37.0783 280.111 37.0048 281.148C37.1519 280.185 37.299 279.074 37.4462 277.963Z" fill="url(#paint0_linear_2987_12976)"/>
<path d="M75.1866 219.376L77.9822 235.819C77.9822 235.819 79.8214 244.041 80.1157 245.226C80.41 246.411 81.1456 249.373 81.1456 249.373C81.1456 249.373 83.5734 255.077 83.2056 257.373C82.8377 259.743 81.8078 263.076 81.9549 263.224C82.102 263.372 82.3227 268.853 82.3227 268.853C82.3227 269.149 82.3227 269.52 82.3227 269.816C82.4699 271.964 83.132 274.112 82.9849 276.26L82.7642 277.445C83.5734 286.111 84.8976 294.776 86.884 303.294C85.7069 304.331 84.6034 305.738 84.5298 307.368C84.4562 308.997 85.854 310.701 87.4725 310.405C86.4426 311.293 85.2655 312.552 85.5597 313.886C85.7069 314.404 86.0012 314.774 86.2219 315.219C87.1782 316.774 87.3989 318.626 87.6932 320.478C88.6496 327.144 89.606 333.81 90.4888 340.476C94.0936 338.402 97.9192 336.55 101.965 335.143L101.892 335.069C97.6985 330.403 95.1972 324.477 92.7694 318.7C92.4016 317.885 92.1073 317.071 92.0337 316.182C91.9602 314.256 93.5051 312.552 93.5051 310.553C92.1809 310.849 90.7831 310.849 89.5324 310.405C89.9738 309.442 90.7831 308.701 91.5188 307.886C92.9901 306.405 94.3144 304.85 95.4179 303.146C95.1236 303.516 94.7558 303.887 94.3143 304.183C93.1373 305.072 91.5188 305.442 90.1945 304.85C89.8267 304.701 89.4589 304.405 89.2381 304.035C88.9439 303.368 89.1646 302.628 89.5324 302.035C89.9003 301.442 90.4152 300.924 90.7095 300.331C93.4315 298.184 95.6386 295.073 97.6249 292.11C95.7857 293.147 93.2844 294.036 91.8866 292.554C91.2245 291.888 91.0038 290.851 90.8566 289.888C89.4588 280.704 89.091 271.371 89.8267 262.113C89.9738 259.817 90.2681 257.521 90.0474 255.225C89.8267 253.225 89.3117 251.299 88.7967 249.373C87.4725 244.929 85.854 240.56 83.9412 236.338C80.8514 229.375 76.9523 222.635 75.5545 215.155C75.5545 216.414 75.3338 217.895 75.1866 219.376Z" fill="#174075"/>
<path d="M32.2228 335.513C32.2964 337.365 32.5171 339.365 33.6942 340.772C34.062 340.179 34.8713 340.624 35.607 340.698C36.9312 338.55 38.2554 336.402 39.5796 334.254C39.7268 333.958 39.9475 333.662 40.0211 333.365C40.1682 332.995 40.1682 332.625 40.2418 332.254C40.536 330.847 41.7867 329.81 43.1109 329.366C44.4351 328.921 45.9065 328.995 47.3043 329.069C46.2008 327.736 45.0237 326.477 43.773 325.292C45.9801 324.181 48.555 323.885 50.9091 324.625C49.3642 321.292 44.3616 320.7 42.9638 317.293C42.5224 316.256 42.5224 315.071 42.5224 313.96C42.5224 304.405 42.8166 294.776 43.3316 285.222C43.8466 281.889 44.3616 278.482 44.803 275.149C46.2008 264.187 46.7158 253.151 48.04 242.189C49.5849 229.45 52.1598 216.858 55.7646 204.563C56.721 201.378 57.751 198.045 60.0316 195.601C62.2386 193.083 67.9034 189.379 70.9933 190.713C70.7725 188.491 68.4919 188.491 68.1977 186.269L44.0673 185.602L43.1109 187.009L41.051 219.228V224.857L40.6832 224.931L37.0783 273.964C37.0783 273.964 36.3427 282.407 36.3427 282.629L36.8576 282.333C36.4898 284.851 36.1219 286.629 35.9748 286.925C35.9012 286.999 36.1219 286.925 36.5634 286.703C35.1656 302.85 31.34 319.07 32.2228 335.513Z" fill="#174075"/>
<path d="M39.8004 35.4686C40.0946 36.2834 40.6096 36.95 41.051 37.6906C42.0074 39.0979 43.0374 40.4311 44.1409 41.6902C44.2144 41.7643 44.288 41.8384 44.4352 41.8384C44.5087 41.8384 44.5823 41.7643 44.6559 41.6902C45.7594 40.6533 47.3779 40.4311 48.7757 40.8014C50.1735 41.1718 51.4241 42.0606 52.6012 42.9494C52.8219 43.0975 53.0426 43.3197 53.2633 43.4678C53.6312 43.9122 53.999 44.4307 54.4404 44.8751C55.5439 43.9863 56.721 43.2456 58.0453 42.6531C57.236 41.6902 56.7946 40.4311 56.3532 39.246C55.1761 35.839 54.2933 32.4319 53.5576 28.8767C53.484 28.3582 53.3369 27.8397 53.484 27.3213V27.2472C53.6312 26.8769 53.9254 26.5065 54.2197 26.2103C55.7646 24.4327 57.4567 22.581 59.8109 21.9144C61.9444 21.3959 64.225 22.0625 66.3585 22.4329C67.9034 22.7291 69.5219 22.8773 71.0668 22.8773C71.3611 22.8773 71.6554 22.8773 71.9496 22.8032C72.7589 23.0254 73.5681 23.3217 74.3038 23.5439C76.8051 24.2105 79.7479 24.6549 81.8813 23.1735C82.6906 22.581 83.3527 21.8403 83.8677 21.0256C84.2355 20.4331 84.6034 19.8405 84.8241 19.248C84.8976 19.0999 84.9712 18.9517 85.0448 18.7295C85.2655 18.137 85.4862 17.6185 85.6333 17.026C86.369 14.4337 86.2954 11.545 85.4862 8.95271C84.0148 10.36 82.1756 11.3228 80.1893 11.6932C80.2628 11.545 80.41 11.471 80.4835 11.3228C81.2928 10.2859 81.9549 9.02678 82.2492 7.69357C82.7642 5.69377 82.617 3.54583 81.8813 1.69416C80.2628 3.3977 77.9086 4.13837 75.628 4.36057C73.3474 4.58277 70.9932 4.43463 68.7126 4.65683C65.6228 4.9531 62.68 5.91597 59.7373 6.87884C57.3096 7.69357 54.8818 8.58237 52.5276 9.69337C50.4677 10.7303 48.4814 11.9894 46.7158 13.4708C45.3915 14.5818 44.1409 15.8409 42.9638 17.1741C41.7131 18.6555 40.4625 20.5071 40.6832 22.4329C40.9039 24.2845 42.3752 25.7659 43.6995 27.0991L43.9202 27.4694C43.9937 27.4694 43.9937 27.4694 44.0673 27.4694C44.0673 27.5435 44.0673 27.5435 44.1409 27.6175C44.0673 27.6175 43.9202 27.6175 43.8466 27.6175C42.1545 27.8397 40.6832 28.9507 39.9475 30.5061C39.2118 32.0615 39.2118 33.8391 39.8004 35.4686Z" fill="#ED6C2E"/>
<path d="M43.8466 47.9859C44.0673 48.7266 44.288 49.4672 44.7294 50.1338C45.4651 51.2448 46.7893 51.9114 48.04 52.2077C49.3642 52.504 50.6884 52.578 52.0127 52.7262C52.3069 52.7262 52.6012 52.8002 52.8219 52.9484C53.1162 53.1706 53.1898 53.5409 53.3369 53.8372C54.7347 59.0219 54.3669 64.5028 55.5439 69.6875C55.6911 70.2059 55.8382 70.7244 56.1325 71.1688C56.2061 71.391 56.2061 71.6132 56.2796 71.9095C56.4268 72.7242 56.6475 73.539 56.7946 74.3537C56.7946 74.5018 56.8682 74.5759 56.9417 74.724C57.0153 74.7981 57.1624 74.8722 57.3096 74.8722C60.3994 75.6869 63.71 75.761 66.7999 75.0944C68.5655 74.724 70.2576 74.1315 71.8761 73.3908C72.5382 73.0945 73.1267 72.7983 73.7153 72.428C74.0095 72.2058 74.3774 71.8354 74.3774 71.391C74.3774 71.1688 74.3038 71.0207 74.2302 70.8725C74.2302 70.7985 74.1567 70.7244 74.0831 70.6503C74.2302 69.9837 74.2302 69.2431 74.2302 68.5024C74.2302 67.6136 74.1567 66.7248 74.0831 65.9101C74.0095 64.2806 73.936 62.7252 73.8624 61.0957C75.4073 61.6142 76.9523 60.7254 78.2765 59.7625C79.5272 58.7997 80.7778 57.6887 81.6606 56.3555C83.4263 53.7631 83.8677 50.4301 84.0884 47.2452C84.5298 39.3201 83.5734 31.3209 81.2928 23.7661L81.3664 23.9883C78.6443 23.9883 75.8487 23.8401 73.1267 23.5439C70.9197 23.3217 68.7126 22.9513 66.5056 22.4329C64.4457 21.9885 62.3858 21.47 60.3259 21.9144C57.8981 22.5069 56.0589 24.3586 54.3668 26.1362C54.0726 26.4325 53.7783 26.7287 53.6312 27.0991C53.4105 27.6175 53.5576 28.136 53.6312 28.6545C54.3669 33.0244 55.1025 37.4684 57.3096 41.2458C57.5303 41.6162 57.751 41.9865 57.8245 42.4309C57.8245 42.579 57.8246 42.6531 57.8981 42.8012C57.0889 43.4678 56.2796 44.0604 55.3968 44.727C55.2497 44.8751 55.029 44.9492 54.8083 44.9492C54.6611 44.9492 54.514 44.801 54.3668 44.727C53.4105 43.9122 52.6748 42.7272 51.6448 42.0606C51.0563 41.6902 50.3206 41.394 49.5849 41.2458C48.2607 40.9496 46.8629 40.8014 45.6858 41.468C44.5823 42.0606 43.9202 43.2456 43.6995 44.4307C43.4052 45.5417 43.5523 46.8008 43.8466 47.9859Z" fill="white"/>
<path d="M86.8104 72.4279C86.7368 72.3539 86.7368 72.2798 86.6633 72.2057C86.5161 72.2057 86.8104 72.3539 86.8104 72.4279Z" fill="white"/>
<path d="M7.7982 117.905L12.2859 119.979C12.2859 119.979 12.2859 119.979 12.3594 119.979C12.8744 120.275 16.8471 122.423 18.1713 123.164C19.5691 123.904 25.1603 127.237 25.1603 127.237L30.4572 129.682L36.2691 121.386C36.2691 121.386 37.814 126.275 38.844 129.608C39.3589 131.385 39.8004 132.718 39.8004 132.792C39.8739 132.941 43.773 147.828 43.773 147.828C43.773 147.828 44.7294 153.901 44.7294 154.938C44.7294 155.975 44.3616 160.864 44.3616 161.16V161.234L42.7431 183.454C42.7431 183.454 42.5224 186.343 42.5224 186.491C42.5224 186.639 60.1787 189.305 60.1787 189.305H70.3311C70.3311 189.305 71.2139 173.899 70.9197 171.233C70.699 169.455 70.4783 168.27 70.3311 167.604C70.184 165.308 69.9633 162.345 69.9633 162.345L67.0941 135.533L62.6065 100.573L59.958 86.2784L59.443 85.834C59.5902 85.9081 59.8109 85.9081 59.8845 85.834C59.958 85.76 59.958 85.6118 59.8845 85.5378C59.6638 84.1305 59.2223 82.7232 58.8545 81.316C57.0889 75.3906 55.6911 69.4653 54.5876 63.3918V63.0955C53.1898 63.3177 51.7184 63.5399 50.5413 64.4287C49.8792 64.9472 49.4378 65.6138 48.9228 66.2804C47.8929 67.8358 46.9365 69.5393 46.2008 71.3169C45.8329 72.0576 45.5387 72.8723 45.0973 73.5389L45.0237 73.4649L28.9858 85.5378L28.5444 85.9822L27.8823 86.6488L23.1004 89.9077C23.1004 89.9077 21.629 90.6484 20.3048 92.1297C18.907 93.611 12.8744 103.832 12.8744 103.832C12.8744 103.832 11.918 106.276 11.1088 108.35C10.1524 110.498 7.7982 117.905 7.7982 117.905Z" fill="white"/>
<path d="M73.8624 72.9464C73.8624 73.3908 74.0095 73.8352 74.0831 74.2796C74.3038 75.0943 74.5245 75.9091 74.7452 76.7979C75.2602 78.7977 75.7752 80.7975 76.2902 82.7973C76.3637 82.7232 76.4373 82.6492 76.5109 82.501L76.7316 84.9452L77.3937 93.611L78.7915 110.943L80.3364 134.866L82.617 159.605L84.3091 185.972C84.3091 185.972 84.3091 185.972 84.6769 186.343C85.1183 186.713 98.9491 183.454 99.1698 183.306C99.3905 183.232 106.085 180.269 106.085 180.269L103.584 159.975L101.083 133.533C101.083 133.533 100.494 124.645 101.083 118.201C101.671 111.757 102.113 85.1674 102.113 85.1674L102.995 79.0199L99.4641 76.5016L94.4615 74.2055C94.4615 74.2055 90.5624 72.9464 88.2082 72.4279C87.2518 72.2057 86.8104 72.1317 86.7368 72.2057C86.8104 72.2798 86.8104 72.3539 86.884 72.4279C86.8104 72.4279 86.5897 72.2057 86.7368 72.2057C85.854 70.6503 84.8976 69.0949 83.7205 67.7617C82.2492 66.1323 80.4835 64.725 78.4972 63.8362C77.0994 63.2437 75.7016 62.8733 74.1567 62.8733H74.0831L74.2302 68.6505L74.3038 70.6503C74.0095 71.391 73.7888 72.1317 73.8624 72.9464Z" fill="white"/>
<path d="M86.8104 72.4279C86.7368 72.3539 86.7368 72.2798 86.6633 72.2057C86.5161 72.2057 86.8104 72.3539 86.8104 72.4279Z" fill="white"/>
<path d="M121.682 105.462C121.682 105.462 118.518 112.424 116.753 114.276C114.913 116.127 109.543 119.979 109.543 119.979C109.543 119.979 104.246 123.016 102.848 123.46C101.45 123.904 101.083 123.978 101.083 123.978V99.5364L102.995 79.0199" fill="#0ABBEF"/>
<path d="M0.662105 143.754C0.809241 145.606 1.17707 147.458 2.42773 148.717C3.67839 149.976 22.2176 166.196 22.2176 166.196L35.5334 176.418C35.5334 176.418 37.0048 177.232 40.1682 176.196C43.3316 175.085 46.2744 173.825 46.2744 173.825C46.2744 173.825 48.1136 173.529 48.1871 173.603C48.2607 173.677 51.9391 177.158 52.9691 177.232C53.999 177.306 55.3232 176.27 55.3232 176.121C55.3232 175.973 56.1325 176.566 56.1325 176.566C56.1325 176.566 57.9717 177.455 58.4131 177.307C58.8545 177.158 59.3695 176.64 59.3695 176.64L59.6637 175.603L59.958 174.492C59.958 174.492 60.5466 174.492 60.6201 174.492C60.6937 174.492 61.7237 173.529 61.6501 172.862C61.5765 172.196 61.4294 171.307 61.4294 171.307C61.4294 171.307 62.9008 171.159 62.9743 170.492C63.1215 169.752 63.3422 168.937 63.3422 168.937L62.3858 166.789C62.3858 166.789 53.0426 160.123 52.9691 160.049C52.8955 160.049 44.2144 161.16 44.1409 161.234C44.0673 161.308 37.299 163.382 37.299 163.382C37.299 163.382 26.0431 150.124 25.9695 150.05C25.9695 149.976 19.7162 143.902 19.3484 143.606C18.907 143.31 18.392 142.94 18.4656 142.94C18.5392 142.94 19.1277 141.162 19.1277 141.162L24.6453 128.274L25.0867 127.311L16.4057 122.201L9.12245 118.572C9.12245 118.572 8.60746 119.757 7.94534 121.46C7.3568 122.793 6.69469 124.497 6.03258 126.275C4.70835 129.608 3.31056 133.163 2.86915 134.792C1.76563 138.421 0.514969 141.903 0.662105 143.754Z" fill="white"/>
<path d="M102.995 153.087L104.172 165.011L104.393 167.307L105.938 174.27C105.938 174.27 106.159 174.566 106.747 174.344C107.336 174.122 110.794 170.418 110.794 170.122C110.794 169.826 110.426 168.196 110.426 168.196L112.265 162.493L125.728 140.866C125.728 140.866 130.583 133.681 130.216 132.2C129.774 130.718 128.818 128.126 128.818 128.126L119.769 113.683L118.96 112.35C118.96 112.35 114.398 116.646 113.81 117.09C113.221 117.535 107.777 121.016 107.777 121.016L110.794 125.015L115.723 132.718L113.516 137.162L107.483 152.05L102.995 153.087Z" fill="white"/>
<path d="M33.7678 340.328C33.7678 340.624 33.7678 340.92 33.8413 341.142C33.9149 341.661 34.1356 342.253 34.2827 342.772C34.5034 343.957 34.2827 345.142 34.3563 346.401C34.4299 347.586 34.7977 348.919 35.9012 349.512C36.2691 349.734 36.7105 349.808 37.1519 349.808C42.8902 350.623 48.7021 349.29 54.514 349.438C55.5439 349.438 56.6475 349.586 57.6774 349.29C58.7074 349.067 59.7373 348.475 60.1787 347.512C60.3994 346.994 60.473 346.475 60.5466 345.957C60.6201 345.438 60.6937 344.92 60.7673 344.401C60.8408 344.031 60.8408 343.661 60.9144 343.29C60.988 342.549 61.1351 341.809 60.988 341.068C60.8408 340.105 60.2523 339.291 59.5902 338.476C58.5602 337.143 57.3831 335.884 56.1325 334.773C55.2497 333.958 54.2197 333.143 53.1897 332.551C50.9091 331.291 48.2607 330.995 45.7594 331.365C43.1845 331.736 40.8303 332.773 38.6233 334.18L38.6968 334.402C37.8876 334.476 37.2255 335.143 36.7105 335.735C36.0484 336.476 35.4598 337.217 34.8713 338.031C34.3563 338.698 33.8413 339.439 33.7678 340.328Z" fill="#0ABBEF"/>
<path d="M91.5923 341.142C91.7395 343.809 91.8866 346.475 92.0337 349.141C93.5787 349.29 95.1972 349.438 96.6685 348.919C97.8456 348.549 99.0963 347.66 100.273 348.105C100.641 348.253 100.935 348.475 101.303 348.623C102.186 348.993 103.216 348.919 104.172 348.845C113.516 348.179 122.932 348.993 132.349 348.179C133.453 348.105 134.777 347.882 135.365 346.919C135.88 346.105 135.66 344.92 135.145 344.105C135.071 343.957 134.998 343.883 134.924 343.735C134.85 343.586 134.777 343.438 134.85 343.216C134.85 343.068 134.998 342.92 135.071 342.772C135.733 341.809 135.66 340.402 135.071 339.365C134.483 338.328 133.526 337.513 132.57 336.846C129.48 334.847 125.728 333.884 122.05 334.032C121.682 334.032 121.387 334.032 121.02 334.106C120.431 334.18 119.842 334.18 119.254 334.106C118.15 333.884 117.341 332.921 116.679 332.032L116.311 331.884C107.851 332.995 99.6113 335.884 92.2544 340.179C92.0337 340.328 91.813 340.402 91.7395 340.624C91.5188 340.624 91.5923 340.846 91.5923 341.142Z" fill="#0ABBEF"/>
<path d="M6.03258 126.275C6.10615 126.275 6.10615 126.349 6.17972 126.349C7.20967 126.719 8.16605 127.089 9.196 127.46C9.93169 127.682 10.6674 127.904 11.4031 128.052C13.5365 128.496 15.7436 128.496 17.877 128.496C19.8634 128.496 21.8497 128.422 23.8361 128.348C24.1303 128.348 24.351 128.274 24.6453 128.274L25.0867 127.311L16.4057 122.201L9.12245 118.572C9.12245 118.572 8.60746 119.757 7.94534 121.46C7.43037 122.867 6.76826 124.571 6.03258 126.275Z" fill="#F4C6CC"/>
<path d="M0.662105 143.754C0.809241 145.606 1.17707 147.458 2.42773 148.717C3.67839 149.976 22.2176 166.196 22.2176 166.196L35.5334 176.418C35.5334 176.418 37.0048 177.232 40.1682 176.196C43.3316 175.085 46.2744 173.825 46.2744 173.825C46.2744 173.825 48.1136 173.529 48.1871 173.603C48.2607 173.677 51.9391 177.158 52.9691 177.232C53.999 177.306 55.3232 176.27 55.3232 176.121C55.3232 175.973 56.1325 176.566 56.1325 176.566C56.1325 176.566 57.9717 177.455 58.4131 177.307C58.8545 177.158 59.3695 176.64 59.3695 176.64L59.6637 175.603L57.8245 172.64C57.0889 173.751 55.3968 173.381 54.3668 172.566C53.3369 171.752 52.4541 170.566 51.2034 170.344C51.2034 170.863 51.2034 171.455 51.2034 171.974C47.2307 171.159 43.1109 170.937 38.9911 171.381C38.0347 171.455 37.1519 171.603 36.1955 171.381C35.3863 171.159 34.7242 170.715 33.9885 170.27C25.1603 164.345 17.1414 157.16 10.226 149.087C9.04887 147.754 7.87178 146.273 7.1361 144.643C4.85548 139.532 6.9154 133.607 8.82817 128.348C8.90174 128.052 9.04886 127.756 9.12243 127.534C9.6374 125.83 10.0053 123.978 9.04888 122.571C8.7546 122.127 8.31319 121.831 7.87178 121.534C7.28323 122.867 6.62111 124.571 5.959 126.349C4.63478 129.682 3.23699 133.237 2.79558 134.866C1.76562 138.421 0.514969 141.903 0.662105 143.754Z" fill="#F4C6CC"/>
<path d="M102.995 153.087L104.172 165.011C105.129 164.493 106.085 163.9 106.894 163.234C107.189 163.012 107.409 162.789 107.557 162.493C107.777 161.975 107.704 161.382 107.704 160.864C107.777 159.605 108.366 158.419 108.954 157.308C111.897 151.828 114.84 146.273 117.783 140.792C119.107 138.421 120.357 135.977 121.387 133.459C121.461 133.163 121.608 132.941 121.608 132.644C121.608 132.2 121.387 131.755 121.167 131.385C119.769 128.793 118.665 126.052 117.93 123.238C117.783 122.793 117.709 122.275 117.709 121.756C117.709 121.238 117.93 120.645 118.077 120.127C118.813 118.053 119.328 115.905 119.622 113.683L118.813 112.35C118.813 112.35 114.251 116.646 113.663 117.09C113.074 117.535 107.63 121.016 107.63 121.016L110.646 125.015L115.576 132.718L113.368 137.162L107.336 152.05L102.995 153.087Z" fill="#F4C6CC"/>
<path d="M62.0915 58.7997C62.9743 59.17 63.6364 59.9107 64.1514 60.6513C64.74 61.392 65.3285 62.0586 66.0642 62.7252C67.9034 64.2806 70.1104 65.0953 72.4646 65.6138C72.906 65.6879 73.5681 65.9841 74.0831 65.836C74.0095 64.2065 73.936 62.6511 73.8624 61.0217C75.4073 61.5401 76.9523 60.6513 78.2765 59.6885C79.5272 58.7256 80.7778 57.6146 81.6606 56.2814C83.4263 53.689 83.8677 50.356 84.0884 47.1712C84.5298 39.246 83.5734 31.2468 81.2928 23.692L81.3664 23.9142C78.6443 23.9142 75.8487 23.7661 73.1267 23.4698C72.6117 26.4325 73.421 29.4692 73.6417 32.4319C73.7888 34.6539 73.6417 36.8759 73.8624 39.0238C74.0831 41.2458 74.8188 43.4678 76.5109 44.9492C75.9959 45.3195 75.2602 45.3195 74.7452 45.6898C74.0095 46.2083 73.936 47.3193 74.0095 48.2081C74.0831 49.0969 74.2302 50.1338 73.7153 50.8745C73.4946 51.2448 73.0532 51.5411 72.9796 51.9114C72.906 52.2077 72.9796 52.4299 73.0532 52.7262C73.6417 54.9482 73.8624 57.3924 72.6853 59.3181C72.391 59.7625 72.0232 60.2069 71.5818 60.4291C71.1404 60.6513 70.699 60.7254 70.2576 60.7254C67.2413 60.9476 64.8135 59.6885 62.0915 58.7997Z" fill="#F4C6CC"/>
<path d="M53.484 27.2472C53.6312 26.8769 53.9254 26.5065 54.2197 26.2103C55.7646 24.4327 57.4567 22.581 59.8109 21.9144C61.9444 21.3959 64.225 22.0625 66.3585 22.4329C67.9034 22.7291 69.5219 22.8773 71.0668 22.8773C71.3611 22.8773 71.6554 22.8773 71.9496 22.8032C72.7589 23.0254 73.5681 23.3217 74.3038 23.5439C76.8051 24.2105 79.7479 24.6549 81.8813 23.1735C82.6906 22.581 83.3527 21.8403 83.8677 21.0256C84.2355 20.4331 84.6034 19.8405 84.8241 19.248C84.9712 19.248 85.1183 19.1739 85.2655 19.0999C85.2655 18.8777 85.2655 18.5814 85.2655 18.3592C85.1919 18.5073 85.1183 18.6555 84.9712 18.8036C84.8241 19.0258 84.6769 19.1739 84.5298 19.3221C83.3527 20.6553 81.6606 21.3959 79.9686 21.6922C77.8351 21.9885 75.628 21.6922 73.5681 21.2478C70.9933 20.7293 68.4184 20.1368 65.7699 19.9887C63.1215 19.8405 60.3994 20.1368 58.1188 21.3219C55.9118 22.5069 53.999 24.6549 53.484 27.2472Z" fill="white"/>
<path d="M61.3558 14.0633C65.9906 10.5081 72.3175 9.24897 77.9822 10.8044C78.865 11.0266 79.7479 11.3228 80.6307 11.3969C81.4399 10.36 82.102 9.10084 82.3963 7.76764C81.7342 8.13797 80.9249 8.36018 80.1893 8.43424C78.2765 8.73051 76.3637 8.36017 74.451 8.28611C71.9496 8.13797 69.4483 8.28611 67.0941 9.17491C64.74 10.0637 62.68 11.0266 61.7237 13.3226L61.3558 14.0633Z" fill="white"/>
<path d="M66.432 18.8777L69.9633 17.2482C71.0668 16.6557 72.6117 16.8779 73.7888 17.026C74.9659 17.1741 76.143 17.6185 77.3201 17.9889C79.3064 18.7295 81.4399 19.3961 83.5734 19.3961C83.9412 19.3961 84.3826 19.3961 84.7505 19.3221C84.8241 19.3221 84.8976 19.3221 84.9712 19.248C85.1183 19.248 85.2655 19.1739 85.4126 19.0999C85.4126 18.8777 85.4126 18.5814 85.4126 18.3592C85.339 18.5073 85.2655 18.6555 85.1183 18.8036C85.339 18.2111 85.5597 17.6926 85.7069 17.1001C84.2355 17.8407 82.3227 17.7667 80.7042 17.3963C78.7915 16.9519 77.0258 16.0631 75.1131 15.7669C71.8761 15.1743 68.3448 16.2853 66.432 18.8777Z" fill="white"/>
<path d="M40.8303 22.4329C41.051 24.2845 42.5224 25.7659 43.8466 27.0991L44.0673 27.4694C44.1409 27.4694 44.1409 27.4694 44.2144 27.4694L47.0836 26.7287C45.9801 26.8028 44.8766 26.3584 44.1409 25.5437C43.6995 25.0252 43.4788 24.5067 43.2581 23.8401C42.6695 21.9885 42.9638 19.9146 43.773 18.137C44.5087 16.3594 45.7594 14.804 47.1572 13.3967C47.0836 13.3967 46.9365 13.3967 46.8629 13.3967C45.5387 14.5077 44.288 15.7669 43.1109 17.1001C41.7867 18.6555 40.6096 20.5071 40.8303 22.4329Z" fill="white"/>
<path d="M89.9003 79.2421C87.9875 79.7606 86.0747 79.8346 84.0884 79.6124C83.7941 79.6124 83.4263 79.5384 83.2056 79.6865C83.0584 79.7606 82.9113 79.9087 82.7641 80.0568C80.6307 82.1307 78.7179 84.3527 77.0994 86.871C75.9959 84.0564 77.0994 80.8716 78.6443 78.3533C79.3064 77.2423 80.2628 75.9832 81.5871 75.9091C82.1756 75.835 82.6906 76.0572 83.2056 76.2054C84.6033 76.6498 86.0747 77.0942 87.4725 77.5386" fill="#0ABBEF"/>
<path d="M59.5902 85.834C60.1787 87.1672 60.473 88.6486 60.5466 90.1299C57.3831 87.982 54.0726 85.9081 50.8356 83.9083C50.3942 83.612 49.9528 83.3898 49.4378 83.3158C48.9228 83.2417 48.4814 83.3158 47.9664 83.3898C46.3479 83.6861 44.803 83.9083 43.1845 84.2046C43.2581 83.4639 43.3316 82.7973 43.4788 82.0566C43.4788 81.7604 43.5523 81.4641 43.6995 81.2419C43.9202 81.0197 44.2144 80.8716 44.5087 80.7975C46.2744 80.205 48.04 79.6124 49.8056 79.0199C50.1735 78.8718 50.6149 78.7236 50.9827 78.7977C52.4541 78.8718 53.1162 80.7975 54.4404 81.39" fill="#0ABBEF"/>
<path d="M7.7982 117.905L12.2859 119.979C12.2859 119.979 12.2859 119.979 12.3594 119.979C13.7572 120.571 15.155 121.164 16.4793 121.905C16.2586 119.312 16.7 116.646 17.2149 114.128C19.0541 106.054 22.2176 98.2773 26.9259 91.4631C27.9559 90.0558 29.0594 88.5745 30.6779 87.9079C32.6642 87.0932 34.8713 87.6857 36.9312 88.2782L35.092 87.0932C33.0321 86.2784 30.7515 85.9081 28.5444 85.9822L27.8823 86.6488L23.1004 89.9077C23.1004 89.9077 21.629 90.6484 20.3048 92.1297C18.907 93.611 12.8744 103.832 12.8744 103.832C12.8744 103.832 11.918 106.276 11.1088 108.35C10.1524 110.498 7.7982 117.905 7.7982 117.905Z" fill="#0ABBEF"/>
<path d="M35.3863 122.719L36.2691 121.46C36.2691 121.46 37.814 126.349 38.844 129.682C42.5224 124.201 43.6259 117.238 43.9937 110.498C44.1409 107.61 44.288 104.795 43.8466 101.907C43.5523 99.5364 42.8902 97.1663 42.0074 95.0183L42.081 95.833C42.5959 104.573 40.4625 113.461 36.0484 121.016C35.7541 121.534 35.4598 121.979 35.3127 122.571C35.3863 122.571 35.3863 122.645 35.3863 122.719Z" fill="#0ABBEF"/>
<path d="M73.5681 72.8723C73.5681 73.4649 73.7888 74.0574 74.0095 74.6499C74.2302 75.3165 74.5245 76.0572 74.7452 76.7238C74.8188 76.946 74.8924 77.1682 74.9659 77.4645C76.5109 75.0203 78.0558 72.5761 78.7179 69.7615C79.1593 67.8358 79.1593 65.6879 78.4236 63.8362C77.0258 63.2437 75.628 62.8733 74.0831 62.8733C74.2302 64.7991 74.3038 66.7248 74.1567 68.6505C74.0831 69.3171 74.0095 70.0578 73.8624 70.7244C73.7153 71.391 73.5681 72.1317 73.5681 72.8723Z" fill="#0ABBEF"/>
<path d="M33.7678 340.328C33.7678 340.624 33.7678 340.92 33.8413 341.142C34.2092 339.809 35.3863 338.698 36.5634 337.957C40.0211 335.661 44.3616 334.55 48.4814 335.143C52.6012 335.735 56.5003 337.957 59.0016 341.29C59.7373 342.253 60.3259 343.29 60.8408 344.401C60.9144 344.031 60.9144 343.661 60.988 343.29C61.0615 342.549 61.2087 341.809 61.0616 341.068C60.9144 340.105 60.3259 339.291 59.6637 338.476C58.6338 337.143 57.4567 335.884 56.2061 334.773C55.3232 333.958 54.2933 333.143 53.2633 332.551C50.9827 331.291 48.3343 330.995 45.8329 331.365C43.2581 331.736 40.9039 332.773 38.6968 334.18L38.7704 334.402C37.9612 334.476 37.299 335.143 36.7841 335.735C36.122 336.476 35.5334 337.217 34.9449 338.031C34.3563 338.698 33.8413 339.439 33.7678 340.328Z" fill="white"/>
<path d="M109.102 338.105L109.984 337.735C112.78 336.92 115.576 336.106 118.445 336.106C123.006 336.106 127.273 338.031 131.098 340.55C131.319 340.698 131.613 340.92 131.761 341.142C131.981 341.513 131.908 342.031 131.761 342.401C131.54 342.772 131.246 343.142 130.951 343.438C132.276 343.438 133.6 343.512 134.924 343.586C134.85 343.438 134.777 343.29 134.85 343.068C134.85 342.92 134.998 342.772 135.071 342.624C135.733 341.661 135.66 340.253 135.071 339.216C134.483 338.18 133.526 337.365 132.57 336.698C129.48 334.698 125.728 333.736 122.05 333.884C117.562 334.328 113.074 335.883 109.102 338.105Z" fill="white"/>
<path d="M79.4536 193.379C78.2765 199.378 77.0994 205.452 76.2166 211.525L79.4536 193.379Z" fill="#4C742C"/>
<path d="M75.628 214.488C75.628 214.636 75.7016 214.784 75.7016 214.858C75.8487 213.747 75.9959 212.636 76.143 211.525L75.628 214.488Z" fill="#4C742C"/>
<path d="M95.565 302.998C96.1536 302.257 96.6685 301.442 97.0364 300.628C96.595 301.442 96.08 302.257 95.565 302.998Z" fill="#4C742C"/>
<path d="M98.2135 183.602C100.568 200.712 100.862 218.043 102.039 235.301C103.069 250.559 104.687 265.816 106.894 281C107.557 285.444 108.292 289.888 109.396 294.258C110.352 298.109 111.676 301.887 113.295 305.516C112.78 302.924 112.412 300.998 112.412 300.85C112.339 300.257 109.396 277.223 109.396 277.223C109.396 277.223 106.968 249.744 106.747 247.151C106.527 244.559 104.687 220.043 104.687 220.043L101.892 182.565C101.818 182.491 100.273 183.01 98.2135 183.602Z" fill="white"/>
<path d="M60.1052 277.667C60.9144 278.556 62.0179 279.296 62.3122 280.407C62.4593 281 62.3858 281.593 62.3122 282.185C61.7237 288.851 62.2386 295.665 63.8571 302.183C63.9307 299.591 64.0043 296.924 64.0778 294.332C64.225 290.036 64.3721 285.666 65.6963 281.518C65.8435 281.074 65.9906 280.63 65.9906 280.111C65.9171 278.408 63.6364 276.852 64.5193 275.297C65.1814 274.112 67.462 273.964 67.3148 272.63C67.3148 272.186 67.0206 271.89 66.7263 271.519C66.0642 270.705 65.6228 269.816 65.2549 268.853H65.3285L65.7699 264.631L68.6391 249.225C69.5219 242.189 70.8461 235.153 72.2439 228.19C75.2602 213.081 78.3501 197.971 81.5871 182.936L66.2849 237.671C64.3721 245.374 62.4593 253.077 60.473 260.78C59.7373 263.668 59.0752 266.853 60.3994 269.446C60.9144 270.557 61.8708 271.816 61.2087 272.853C60.7673 273.519 59.8845 273.741 59.443 274.334C58.6338 275.371 59.2959 276.778 60.1052 277.667Z" fill="white"/>
<path d="M80.8514 23.4698C81.7342 25.6177 82.1756 27.9138 82.3963 30.2099C82.617 32.5059 82.8377 34.802 82.9849 37.0981C83.2791 41.6902 83.3527 46.2824 82.3227 50.7264C81.8813 52.9484 81.1456 55.0963 79.895 56.8739C78.7179 58.6515 76.8787 60.0588 74.7452 60.4291C73.7153 60.6513 72.5382 60.6513 71.4347 60.5773C70.3311 60.5773 69.154 60.4291 68.0505 60.281C65.7699 59.9847 63.5629 59.3181 61.4294 58.4293C63.4157 59.6144 65.6228 60.4291 67.9034 60.9476C69.0069 61.2439 70.184 61.392 71.3611 61.5401C72.5382 61.6142 73.7153 61.6883 74.8924 61.5401C76.143 61.392 77.3201 60.8735 78.3501 60.2069C79.38 59.5403 80.2628 58.6515 80.9985 57.6146C82.3963 55.6148 83.2056 53.2446 83.7205 50.9486C84.2355 48.6525 84.4562 46.2824 84.4562 43.9122C84.4562 41.5421 84.3091 39.246 84.0148 36.8759C83.7205 34.5798 83.3527 32.2837 82.9849 29.9877C82.617 27.8397 82.0285 25.5437 80.8514 23.4698Z" fill="black"/>
<path d="M51.8655 42.2828C50.9827 41.6902 50.0999 41.0977 49.0699 40.7274C48.04 40.357 46.7893 40.2089 45.6858 40.7274C44.5823 41.2458 43.773 42.2087 43.2581 43.2456C42.7431 44.3566 42.5959 45.5417 42.7431 46.7268C42.9638 49.0969 44.3616 51.2448 46.3479 52.504C48.3343 53.689 50.762 54.0594 53.0426 53.4668L52.2334 53.0224C52.8219 55.0222 53.2633 57.0221 53.7047 59.0959C54.1461 61.1698 54.4404 63.2437 54.7347 65.3175C54.8818 63.1696 54.8083 61.0957 54.5875 58.9478C54.3668 56.7999 53.999 54.726 53.484 52.6521C53.4105 52.2818 53.0426 52.1336 52.7484 52.1336C50.8356 52.504 48.7757 52.2077 47.0836 51.1708C45.3915 50.2079 44.288 48.4303 43.9937 46.5046C43.8466 45.5417 43.9202 44.5788 44.288 43.69C44.6559 42.8012 45.2444 41.9865 46.0536 41.468C46.8629 41.0236 47.8929 40.9496 48.9228 41.1718C49.9528 41.394 50.9091 41.8384 51.8655 42.2828Z" fill="black"/>
<path d="M53.0426 48.6525C52.4541 48.8747 51.8655 49.0969 51.277 49.245C50.6884 49.3932 50.0999 49.5413 49.5113 49.6894L49.8792 49.9116C49.732 49.3191 49.3642 49.0228 49.2906 48.6525C49.2171 48.3562 49.2906 48.06 49.5113 47.7637C49.732 47.4674 50.0999 47.1712 50.3942 46.8008C50.6884 46.4305 50.9827 45.912 50.9091 45.3195C50.8356 45.0232 50.6884 44.727 50.3942 44.5788C50.1735 44.4307 49.8792 44.3566 49.5849 44.3566C49.0699 44.3566 48.6285 44.5048 48.1871 44.6529C47.8193 44.801 47.3779 44.8751 47.01 44.727C46.6422 44.5788 46.4215 44.1344 46.2744 43.7641C46.3479 44.2085 46.4215 44.727 46.8629 45.0232C47.3043 45.3195 47.8193 45.2454 48.2607 45.1714C48.7021 45.0973 49.0699 44.9492 49.5113 45.0232C49.8792 45.0232 50.0999 45.2454 50.1735 45.5417C50.1735 45.838 50.0999 46.2083 49.8056 46.4305C49.5113 46.7268 49.2171 47.023 48.9228 47.4674C48.7757 47.6896 48.6285 47.9118 48.555 48.2081C48.4814 48.5044 48.555 48.8006 48.6285 49.0969C48.8492 49.6154 49.2171 49.9116 49.2906 50.2079C49.3642 50.356 49.5114 50.4301 49.6585 50.4301C50.247 50.282 50.8356 50.0598 51.4241 49.7635C52.0127 49.3191 52.5276 49.0228 53.0426 48.6525Z" fill="black"/>
<path d="M53.1898 26.8769C53.1162 28.2841 53.1898 29.6914 53.3369 31.0987C53.484 32.5059 53.7783 33.9132 54.1461 35.2464C54.514 36.6537 54.9554 37.9869 55.4704 39.246C55.9853 40.5792 56.5739 41.8384 57.3096 43.0975L57.5303 42.2828C57.0153 42.6531 56.5003 43.0234 55.9853 43.3197L55.1761 43.8382C54.9554 43.9863 54.5876 44.2826 54.4404 44.3566C54.3669 44.3566 54.3668 44.4307 54.2933 44.3566C54.2197 44.3566 54.1461 44.2826 53.999 44.2085C53.7783 43.9863 53.5576 43.7641 53.3369 43.5419C52.8955 43.0975 52.4541 42.6531 51.9391 42.2087C52.2334 42.8012 52.6012 43.3197 52.8955 43.8382C53.0426 44.1344 53.1898 44.3566 53.4105 44.6529C53.484 44.801 53.6312 44.9492 53.8519 45.0973C54.0726 45.2454 54.3668 45.2454 54.5876 45.1714C55.029 45.0232 55.2497 44.8751 55.5439 44.727L56.3532 44.2826C56.9417 43.9863 57.4567 43.69 58.0453 43.3938C58.3395 43.2456 58.4131 42.8753 58.3395 42.579V42.505C57.751 41.2458 57.236 39.9867 56.721 38.7276C56.2061 37.4684 55.7646 36.1352 55.3232 34.8761C54.8818 33.5429 54.514 32.2837 54.1461 30.9505C53.9254 29.5433 53.5576 28.2101 53.1898 26.8769Z" fill="black"/>
<path d="M44.7294 41.9865C43.4788 40.1348 42.081 38.3572 41.1246 36.4315C40.1682 34.5057 39.6532 32.3578 40.7567 30.7283C41.7867 29.0248 43.773 28.136 45.8329 27.6916C47.9664 27.2472 50.1735 26.9509 52.3805 26.7287C50.1735 26.3584 47.8929 26.2843 45.6122 26.5806C44.4352 26.7287 43.3316 27.025 42.2281 27.5435C41.1246 28.0619 40.1682 28.9507 39.5061 29.9877C38.844 31.0987 38.6233 32.5059 38.844 33.691C39.0647 34.9501 39.5797 35.9871 40.1682 37.024C41.3453 38.9498 42.9638 40.5052 44.7294 41.9865Z" fill="black"/>
<path d="M80.4835 11.6191C81.6606 10.2859 82.4699 8.58237 82.7641 6.7307C83.0584 4.9531 82.9113 3.02737 82.2492 1.24976C82.1756 1.02756 81.8813 0.953495 81.6606 1.02756C81.5871 1.02756 81.5135 1.10163 81.4399 1.1757C80.8514 2.0645 79.895 2.65703 78.9386 3.10143C77.9822 3.54583 76.8787 3.76803 75.7752 3.8421C73.5681 4.0643 71.214 3.91617 68.9333 4.21243C64.2985 4.80497 59.8109 5.8419 55.4704 7.54544C51.1299 9.24898 47.01 11.7672 43.9202 15.3225C43.1109 16.2113 42.3752 17.1001 41.7867 18.137C41.1981 19.1739 40.6832 20.2849 40.6096 21.5441C40.536 22.1366 40.6096 22.8032 40.8303 23.3217C41.051 23.9142 41.3453 24.4327 41.7131 24.8771C42.4488 25.7659 43.3316 26.5065 44.0673 27.4694C43.4788 26.5065 42.6695 25.6177 42.0074 24.7289C41.3453 23.8401 41.051 22.7291 41.1982 21.6181C41.3453 20.5812 41.8603 19.5443 42.5224 18.6555C43.1845 17.7667 43.9202 16.8779 44.7294 16.0631C47.8928 12.8042 51.8655 10.5822 56.0589 8.95271C58.1924 8.13797 60.3259 7.54544 62.5329 6.95291C64.74 6.43444 66.947 5.99004 69.2276 5.69377C70.3311 5.54564 71.4347 5.47157 72.6117 5.3975C73.7153 5.32344 74.8924 5.32344 76.0694 5.1753C77.2465 5.02717 78.4236 4.7309 79.5271 4.13837C80.6307 3.6199 81.6606 2.80516 82.3227 1.76823L81.5871 1.69416C82.3227 3.24956 82.617 5.02717 82.4699 6.80477C82.102 8.43424 81.5135 10.1378 80.4835 11.6191Z" fill="black"/>
<path d="M60.8408 14.5077C62.6065 13.0264 64.5928 11.9154 66.7999 11.3228C67.9034 10.9525 69.0069 10.8044 70.1104 10.6562C71.2139 10.5081 72.3175 10.5081 73.421 10.5822C74.5245 10.6562 75.628 10.8784 76.658 11.1747C77.6879 11.471 78.7915 11.9154 79.9686 12.2116C81.1457 12.5079 82.5434 12.3598 83.7205 11.7672C84.8976 11.1747 85.7804 10.1378 86.2954 8.87864L85.0448 8.95271C85.7804 10.5822 85.854 12.4338 85.5597 14.2855C85.2655 16.1372 84.6769 17.9889 83.8677 19.6183C83.0584 21.2478 81.7342 22.6551 80.1157 23.1735C78.4972 23.692 76.5844 23.3957 74.6716 23.1735L68.9333 22.3588C67.0206 22.0625 65.1078 21.8403 63.195 21.6181C62.2386 21.5441 61.2087 21.47 60.1787 21.6181C59.1488 21.7663 58.1924 22.2847 57.4567 22.9513C55.9118 24.2105 54.8818 25.914 53.3369 27.1731C54.9554 26.1362 56.1325 24.4327 57.6774 23.3957C58.4131 22.8773 59.2959 22.5069 60.2523 22.3588C61.1351 22.2847 62.0915 22.3588 63.0479 22.5069C66.8734 23.1735 70.699 23.8401 74.4509 24.5067C75.4073 24.6549 76.3637 24.8771 77.3937 24.8771C78.4236 24.9511 79.4536 24.8771 80.4835 24.5808C81.5135 24.2845 82.4699 23.6179 83.2056 22.8773C83.9412 22.1366 84.6033 21.2478 85.0448 20.359C86.0011 18.5073 86.5897 16.5816 86.884 14.5818C87.1782 12.582 87.1782 10.36 86.2219 8.43424C86.0747 8.06391 85.6333 7.91577 85.339 8.13797C85.1919 8.21204 85.0448 8.36017 84.9712 8.50831C84.6769 9.39711 83.9412 10.2118 83.132 10.7303C82.2492 11.2488 81.2928 11.3228 80.2628 11.1747C79.2329 11.0266 78.1294 10.5822 77.0258 10.2859C75.9223 9.98964 74.7452 9.84151 73.5681 9.76744C71.2139 9.69338 68.8598 10.0637 66.7263 10.9525C64.4457 11.6191 62.4593 12.8782 60.8408 14.5077Z" fill="black"/>
<path d="M85.854 15.7669C84.9712 15.915 84.2355 15.8409 83.4998 15.6928C82.7641 15.5447 81.9549 15.3225 81.1456 15.1743C80.3364 15.0262 79.5271 14.9521 78.7179 14.9521C77.9086 14.9521 77.0258 14.9521 76.2166 15.1003C76.9523 15.5447 77.7615 15.8409 78.5708 16.0631C79.38 16.2853 80.1893 16.5075 80.9985 16.6557C81.8078 16.8038 82.617 16.8779 83.4998 16.8779C84.3826 16.8038 85.339 16.4335 85.854 15.7669Z" fill="black"/>
<path d="M84.6769 19.3221C83.0584 19.248 81.5135 18.8036 80.0421 18.2111C78.5708 17.6185 77.0994 16.9519 75.4809 16.4335C74.6717 16.2113 73.7888 16.0631 72.906 16.0631C72.0232 16.0631 71.1404 16.2113 70.3311 16.5075C68.7126 17.026 67.3148 17.9889 66.0642 19.0999C67.6091 18.5073 69.0805 17.9148 70.6254 17.6185C72.0968 17.3223 73.5681 17.4704 75.1131 17.9148C76.5844 18.2851 78.1294 18.9517 79.7479 19.3221C81.3664 19.7665 83.132 19.9146 84.6769 19.3221Z" fill="black"/>
<path d="M63.1215 5.99004C61.503 6.5085 59.8845 7.32324 58.4867 8.21204C57.0153 9.17491 55.6911 10.2859 54.514 11.6932C53.9254 12.3598 53.4105 13.1004 52.9691 13.8411C52.5276 14.5818 52.1598 15.3965 51.8655 16.2853C51.277 17.9889 51.0563 19.7665 51.277 21.47C51.6448 19.7665 52.1598 18.2111 52.8955 16.7297C53.6312 15.2484 54.5875 13.9152 55.6175 12.656C56.6475 11.3969 57.8981 10.2859 59.1488 9.17491C60.3994 8.13797 61.7972 7.10104 63.1215 5.99004Z" fill="black"/>
<path d="M53.6312 9.10084C52.6012 9.69338 51.7184 10.5081 50.9827 11.3969C50.247 12.2857 49.5849 13.3226 49.1435 14.4337C48.7021 15.5447 48.4078 16.7297 48.2607 17.9148C48.1136 19.0999 48.1871 20.2849 48.4814 21.47C48.7757 20.2849 49.0699 19.248 49.3642 18.137C49.6585 17.1001 50.0999 16.0631 50.4677 15.0262C50.9091 13.9892 51.3506 13.0264 51.9391 12.0635C52.4541 11.1006 53.0426 10.1378 53.6312 9.10084Z" fill="black"/>
<path d="M47.8929 12.4338C47.2307 12.9523 46.7158 13.693 46.3479 14.5077C45.9801 15.2484 45.6858 16.1372 45.6122 16.9519C45.4651 17.8407 45.4651 18.6555 45.6122 19.5443C45.7594 20.4331 46.0536 21.2478 46.5686 21.9144L46.7893 19.4702C46.8629 18.6555 46.9365 17.9148 47.0836 17.1741C47.2307 16.4335 47.3043 15.6187 47.4514 14.878C47.5986 14.0633 47.8193 13.2486 47.8929 12.4338Z" fill="black"/>
<path d="M49.6585 26.6547C49.2171 27.4694 49.0699 28.4323 49.1435 29.3951C49.2171 30.358 49.3642 31.2468 49.6585 32.1356C49.9528 33.0244 50.3206 33.8392 50.8356 34.6539C51.3506 35.3946 52.0127 36.1352 52.8955 36.5796C52.5276 35.7649 52.1598 34.9501 51.8655 34.1354C51.5713 33.3207 51.3506 32.5059 51.0563 31.6912C50.762 30.8765 50.5413 30.0617 50.247 29.247C49.9528 28.4323 49.8056 27.6175 49.6585 26.6547Z" fill="black"/>
<path d="M47.3043 26.8769C46.3479 28.2841 46.2008 30.1358 46.6422 31.7653C46.8629 32.58 47.2307 33.3207 47.6721 34.0614C48.1136 34.728 48.7021 35.3946 49.3642 35.839C49.2171 35.0242 48.9228 34.2835 48.7021 33.5429C48.4814 32.8022 48.2607 32.1356 48.04 31.3949C47.8193 30.6543 47.6721 29.9877 47.5986 29.247C47.4514 28.4323 47.4514 27.6916 47.3043 26.8769Z" fill="black"/>
<path d="M44.9501 27.2472C44.4352 27.9138 44.1409 28.8026 43.9202 29.6173C43.773 30.5061 43.773 31.3949 43.9202 32.2097C44.0673 33.0985 44.3616 33.9132 44.803 34.6539C45.2444 35.3946 45.8329 36.0612 46.5686 36.5056C46.2744 35.6908 46.0536 34.9502 45.8329 34.2095C45.6122 33.4688 45.4651 32.7281 45.318 31.9875C45.1708 31.2468 45.0973 30.5061 45.0237 29.6914C45.0237 28.8767 45.0237 28.0619 44.9501 27.2472Z" fill="black"/>
<path d="M42.3752 28.136C41.7131 28.5804 41.051 29.3211 40.8303 30.2099C40.6096 31.0987 40.6096 31.9875 40.7567 32.8022C40.9039 33.6169 41.1981 34.5057 41.6396 35.2464C42.081 35.9871 42.7431 36.6537 43.4788 37.024C43.1845 36.2093 42.8902 35.5427 42.6695 34.802C42.4488 34.0614 42.3017 33.3947 42.1545 32.6541C42.0074 31.9134 41.9338 31.1727 41.9338 30.4321C41.9338 29.7655 42.1545 29.0248 42.3752 28.136Z" fill="black"/>
<path d="M68.0505 31.3949C67.9034 30.6543 67.6091 29.9877 67.0206 29.4692C66.7263 29.1729 66.3585 28.9507 65.917 28.8026C65.4756 28.6545 65.0342 28.6545 64.5928 28.7285C63.7836 28.8767 63.1215 29.3211 62.6065 29.9136C62.0915 30.5061 61.7972 31.1727 61.7972 31.9134C62.3858 31.469 62.8272 31.0246 63.3422 30.8024C63.8571 30.5061 64.3721 30.2839 64.8871 30.2099C65.4021 30.1358 65.7699 30.1358 66.2849 30.358C66.8734 30.5802 67.3884 31.0246 68.0505 31.3949Z" fill="black"/>
<path d="M80.7778 28.8767C80.6307 28.2101 80.2628 27.6175 79.7479 27.1731C79.4536 26.9509 79.0857 26.7287 78.7179 26.6547C78.3501 26.5806 77.8351 26.5806 77.4672 26.7287C76.7316 27.025 76.2166 27.4694 75.7752 27.9879C75.3338 28.5063 75.0395 29.1729 75.0395 29.8395C75.628 29.4692 76.0694 29.1729 76.5844 28.8767C77.0258 28.5804 77.5408 28.2841 77.9822 28.136C78.3501 27.9879 78.6443 27.9879 79.1593 28.136C79.6743 28.3582 80.1893 28.6545 80.7778 28.8767Z" fill="black"/>
<path d="M72.6117 35.9871C72.7589 38.2091 73.4946 40.357 74.5245 42.2828C74.8188 42.8012 75.0395 43.2456 75.3338 43.69C75.4809 43.9122 75.628 44.1344 75.7752 44.3566C75.8487 44.5048 75.9223 44.5788 75.9223 44.5788C75.9223 44.5788 75.9223 44.5788 75.9223 44.5048C75.9223 44.5048 75.9223 44.5048 75.8487 44.5048C74.9659 45.0232 73.936 45.4676 72.906 45.6898C74.0095 45.6898 75.1131 45.4676 76.143 45.0232C76.2166 45.0232 76.2902 44.9492 76.4373 44.801C76.5109 44.6529 76.5109 44.4307 76.5109 44.3566C76.4373 44.1344 76.3637 44.0604 76.2902 43.9122C76.143 43.69 75.9959 43.4678 75.8487 43.2456C75.5545 42.8012 75.3338 42.3568 75.0395 41.8384C74.1567 39.9867 73.3474 38.061 72.6117 35.9871Z" fill="black"/>
<path d="M76.658 51.8374C75.4809 51.5411 74.2302 51.393 73.1267 51.0226C72.0232 50.7264 70.9932 50.2079 70.0369 49.3932C70.2576 49.9857 70.699 50.5042 71.2139 50.8745C71.7289 51.2448 72.3175 51.5411 72.906 51.6892C74.2302 52.1336 75.4809 52.1336 76.658 51.8374Z" fill="black"/>
<path d="M70.2576 48.2081C69.8162 48.5784 69.5955 49.0228 69.4483 49.4672C69.3012 49.9116 69.2276 50.356 69.3012 50.9486C69.7426 50.5782 69.9633 50.1338 70.1104 49.6894C70.3311 49.245 70.4047 48.7266 70.2576 48.2081Z" fill="black"/>
<path d="M61.8708 45.3195C61.8708 46.6527 62.9008 47.9859 64.3721 48.06C65.1078 48.134 65.8435 47.8378 66.3585 47.3934C66.8734 46.8749 67.2413 46.1342 67.2413 45.3936C67.2413 44.6529 66.947 43.9122 66.3585 43.3938C65.8435 42.8753 65.0342 42.6531 64.3721 42.7272C62.9743 42.6531 61.8708 43.9863 61.8708 45.3195ZM61.8708 45.3195C61.8708 44.6529 62.1651 43.9863 62.6801 43.5419C63.195 43.0975 63.7836 42.8753 64.4457 42.9494C65.6963 43.0234 66.5792 44.1344 66.5792 45.3195C66.5792 46.4305 65.6963 47.6156 64.4457 47.6896C63.8571 47.7637 63.195 47.5415 62.6801 47.0971C62.1651 46.6527 61.8708 45.9861 61.8708 45.3195Z" fill="black"/>
<path d="M80.1157 43.9863C80.1157 44.8751 80.4835 45.6898 81.2192 46.2824C81.5871 46.5786 82.0285 46.8008 82.5434 46.8749C83.0584 46.949 83.5734 46.949 84.0884 46.7268C84.2355 46.6527 84.3091 46.5046 84.3826 46.3564V46.2083C84.6769 44.727 84.7505 43.1716 84.5298 41.6902V41.5421C84.5298 41.394 84.3826 41.2458 84.2355 41.1718C83.7205 40.9496 83.2056 40.8755 82.6906 40.9496C82.1756 41.0236 81.7342 41.2458 81.3663 41.5421C80.4835 42.2828 80.1157 43.1716 80.1157 43.9863ZM80.1157 43.9863C80.1157 43.5419 80.2628 43.0975 80.4835 42.7272C80.7042 42.3568 81.0721 42.1346 81.4399 41.9865C81.8078 41.8384 82.2492 41.8384 82.617 41.9124C82.9849 41.9865 83.2791 42.1346 83.5734 42.3568L83.2791 41.8384C83.132 43.3197 83.132 44.727 83.2056 46.2083L83.4998 45.7639C82.9849 46.1342 82.1756 46.3564 81.4399 45.9861C81.0721 45.838 80.7042 45.5417 80.4835 45.1714C80.2628 44.8751 80.1157 44.4307 80.1157 43.9863Z" fill="black"/>
<path d="M65.917 40.283C65.3888 40.283 64.9607 39.056 64.9607 37.5425C64.9607 36.029 65.3888 34.802 65.917 34.802C66.4452 34.802 66.8734 36.029 66.8734 37.5425C66.8734 39.056 66.4452 40.283 65.917 40.283Z" fill="black"/>
<path d="M78.865 38.3572C78.2962 38.3572 77.8351 37.064 77.8351 35.4686C77.8351 33.8733 78.2962 32.58 78.865 32.58C79.4339 32.58 79.895 33.8733 79.895 35.4686C79.895 37.064 79.4339 38.3572 78.865 38.3572Z" fill="black"/>
<path d="M73.5681 61.0217C73.3474 61.9845 73.2739 63.0215 73.2003 63.9843C73.1267 64.9472 73.1267 65.9101 73.1267 66.8729C73.1267 67.8358 73.1267 68.7987 73.2003 69.7615C73.2739 70.7244 73.3474 71.6873 73.5681 72.7242C73.936 71.7613 74.1567 70.7985 74.3038 69.8356C74.4509 68.8727 74.5245 67.8358 74.5245 66.8729C74.5245 65.9101 74.4509 64.8731 74.3038 63.9103C74.1567 62.9474 74.0095 61.9845 73.5681 61.0217Z" fill="black"/>
<path d="M7.7982 118.127C8.90172 114.35 10.226 110.72 11.8445 107.165C13.463 103.61 15.3022 100.129 17.4356 96.944C19.5691 93.7592 22.0704 90.6484 25.3074 88.7967C26.9259 87.9079 28.7651 87.2413 30.5308 87.1672C32.37 87.0191 34.2092 87.4635 35.7541 88.3523C37.299 89.3152 38.5497 90.7224 39.5061 92.2778C40.4625 93.9073 40.9774 95.6849 41.1981 97.5366C41.6396 101.314 40.9774 105.165 40.0211 108.869C38.0347 116.35 34.577 123.46 29.8686 129.608L30.5308 129.459C26.8524 127.237 23.1739 125.163 19.3484 123.238C15.5229 121.312 11.6973 119.534 7.72465 117.905C11.5502 119.757 15.3022 121.682 19.0541 123.83C22.7325 125.904 26.4109 128.052 30.0158 130.348C30.2365 130.496 30.5308 130.422 30.6779 130.274C35.6805 124.127 39.2854 116.942 41.3453 109.239C42.3752 105.462 43.1845 101.388 42.6695 97.3144C42.1545 93.3148 40.0946 89.2411 36.4898 87.0932C34.7241 85.9822 32.5171 85.6118 30.4572 85.76C28.3973 85.9081 26.411 86.6488 24.6453 87.6116C22.8797 88.6486 21.4083 90.0558 20.0841 91.5372C18.7599 93.0185 17.6563 94.648 16.6264 96.3515C14.5665 99.6845 12.8008 103.24 11.3295 106.869C9.85811 110.498 8.60745 114.276 7.7982 118.127Z" fill="#174075"/>
<path d="M32.2228 127.237C30.5308 125.756 28.6916 124.497 26.8524 123.312C25.0132 122.127 23.0268 121.016 21.114 119.979C19.1277 118.942 17.1414 118.053 15.0815 117.238C13.0216 116.424 10.9616 115.683 8.75461 115.164C10.6674 116.275 12.6537 117.312 14.5665 118.275L20.3784 121.312L26.2638 124.349C28.2502 125.312 30.2365 126.349 32.2228 127.237Z" fill="#174075"/>
<path d="M25.1603 126.793C24.2039 127.904 23.4682 129.163 22.7325 130.422C22.0704 131.681 21.4083 133.015 20.8933 134.348C20.3784 135.681 19.8634 137.088 19.4956 138.496C19.1277 139.903 18.8334 141.31 18.6863 142.791C19.422 141.532 20.0105 140.199 20.5255 138.866C21.1141 137.533 21.629 136.274 22.2176 134.94C22.7326 133.607 23.2475 132.274 23.7625 130.941C24.2775 129.607 24.7925 128.274 25.1603 126.793Z" fill="black"/>
<path d="M9.196 118.572C5.81187 125.015 3.08986 131.83 1.10352 138.866C0.588541 140.643 -4.76837e-07 142.421 -4.76837e-07 144.347C-4.76837e-07 145.31 0.147119 146.347 0.588528 147.235C1.02994 148.124 1.6185 148.939 2.28061 149.606C2.94273 150.272 3.60483 150.939 4.26694 151.531L6.2533 153.383L10.2995 157.012C15.7436 161.827 21.2612 166.493 27.0731 170.863C28.5444 171.974 29.9422 173.011 31.4871 174.048L33.6942 175.603L34.7977 176.344C35.1656 176.566 35.607 176.862 36.1219 177.01C37.1519 177.307 38.1083 176.936 38.9911 176.714C39.8739 176.418 40.6832 176.121 41.566 175.825C43.2581 175.159 44.9501 174.418 46.4951 173.603C44.803 174.344 43.1109 174.936 41.4188 175.455C40.536 175.751 39.7268 175.973 38.844 176.196C37.9611 176.418 37.0783 176.64 36.3427 176.344C35.607 176.047 34.9449 175.381 34.2092 174.862L32.0757 173.233C30.6779 172.122 29.2065 171.011 27.8087 169.9C22.144 165.382 16.7 160.641 11.3295 155.827L7.28324 152.198C5.95901 151.013 4.56122 149.754 3.31057 148.569C2.72202 147.976 2.20704 147.309 1.8392 146.569C1.47136 145.828 1.32421 145.013 1.32421 144.199C1.32421 142.495 1.76564 140.792 2.20705 139.014C4.04625 132.126 6.32685 125.238 9.196 118.572Z" fill="black"/>
<path d="M13.6101 140.199C16.185 141.236 18.4656 142.94 20.5255 144.865C22.5854 146.791 24.4246 148.865 26.2638 151.013L37.2255 163.826C37.4462 164.049 37.6669 164.123 37.9612 164.049C40.6096 163.16 43.2581 162.419 45.9065 161.752C47.2307 161.382 48.6285 161.086 49.9528 160.79C50.6149 160.641 51.277 160.493 51.9391 160.419C52.6012 160.345 53.1898 160.493 53.7783 160.79C54.3669 161.086 54.9554 161.456 55.5439 161.827L57.236 163.012C58.4131 163.826 59.5166 164.641 60.6201 165.456C61.7237 166.271 62.8272 167.159 63.2686 168.493C63.4893 169.159 63.3422 169.9 62.9008 170.418C62.5329 171.011 61.8708 171.381 61.1351 171.233C61.7972 171.455 62.5329 171.085 62.9743 170.492C63.4157 169.9 63.6364 169.159 63.4157 168.418C63.2686 167.678 62.8272 167.085 62.3858 166.567C61.9444 166.048 61.3558 165.604 60.8409 165.085C59.7373 164.197 58.6338 163.308 57.5303 162.493L55.8382 161.234C55.2497 160.79 54.7347 160.419 54.0726 160.049C53.4105 159.679 52.6012 159.456 51.8655 159.53C51.1299 159.53 50.3942 159.679 49.7321 159.753C48.3343 159.975 47.01 160.271 45.6122 160.493C42.8902 161.086 40.1682 161.678 37.4462 162.493L38.1819 162.715L26.6317 150.42C24.7189 148.346 22.8061 146.347 20.5991 144.495C18.6127 142.717 16.2586 141.088 13.6101 140.199Z" fill="black"/>
<path d="M73.6417 72.3539C72.2439 72.8723 70.8461 73.3167 69.4483 73.6871C68.0505 74.0574 66.6527 74.3537 65.2549 74.5759C63.8571 74.7981 62.4593 74.8721 60.988 74.9462C59.5902 74.9462 58.1188 74.9462 56.6475 74.8721C57.9717 75.5387 59.4431 75.9091 60.988 76.1313C62.4593 76.3535 64.0043 76.3535 65.4756 76.1313C66.947 75.9091 68.4184 75.4647 69.8162 74.8721C71.2875 74.2055 72.6117 73.3908 73.6417 72.3539Z" fill="black"/>
<path d="M59.8109 86.3525C60.473 90.6484 61.2087 94.9442 61.7972 99.166C62.3858 103.462 63.0479 107.758 63.5629 112.054C64.4457 120.645 65.917 129.237 67.0206 137.829C67.5355 142.125 68.0505 146.421 68.4184 150.791L69.4483 163.752C70.1104 172.418 70.2576 181.01 70.0369 189.676L70.8461 188.935C68.4919 188.861 66.1378 188.787 63.7836 188.713C61.4294 188.565 59.0752 188.417 56.721 188.194C54.3669 187.972 52.0127 187.75 49.6585 187.38C47.3043 187.083 44.9501 186.713 42.596 186.343L42.9638 186.787C43.1109 183.158 43.2581 179.603 43.3316 175.973C43.3316 175.899 43.3316 175.899 43.2581 175.899C43.1845 175.899 43.1845 175.899 43.1845 175.973C42.8167 179.529 42.4488 183.158 42.1545 186.713C42.1545 186.935 42.3017 187.083 42.4488 187.157C44.803 187.676 47.0836 188.12 49.4378 188.491C51.792 188.861 54.1461 189.231 56.5003 189.528C58.8545 189.824 61.2087 190.046 63.6364 190.194C65.9906 190.342 68.4184 190.49 70.7725 190.49C71.214 190.49 71.5818 190.12 71.5818 189.75C71.6554 185.38 71.5818 181.084 71.4347 176.714C71.3611 174.566 71.214 172.344 71.0668 170.196L70.8461 166.937C70.7725 165.826 70.6254 164.789 70.4783 163.678C69.3747 155.086 68.4184 146.421 67.5355 137.829C66.7263 129.163 65.9906 120.571 64.8871 111.906C64.2985 107.61 63.5629 103.314 62.7536 99.092C61.9444 94.7961 60.988 90.5743 59.958 86.3525C59.958 86.2784 59.8845 86.2784 59.8845 86.2784C59.8109 86.2784 59.8109 86.3525 59.8109 86.3525Z" fill="#174075"/>
<path d="M36.2691 121.386C36.8576 124.793 37.7404 128.052 38.7704 131.385C39.7268 134.644 40.8303 137.903 41.7131 141.162C42.6695 144.421 43.4052 147.68 43.9202 151.087C44.4352 154.42 44.5823 157.827 44.3616 161.234C45.1708 157.901 45.318 154.42 45.0237 150.939C44.7294 147.458 43.9937 144.125 43.1109 140.792C42.1545 137.459 41.051 134.274 39.8004 131.015C38.6233 127.83 37.4462 124.645 36.2691 121.386Z" fill="#174075"/>
<path d="M107.115 158.197C107.262 159.086 107.557 159.827 107.63 160.567C107.777 161.308 107.777 161.975 107.557 162.493C107.336 163.086 106.895 163.752 106.453 164.419C106.012 165.085 105.644 165.826 105.35 166.641C106.085 166.196 106.747 165.678 107.336 165.085C107.924 164.493 108.513 163.9 108.954 162.938C109.322 161.975 109.175 160.864 108.807 160.123C108.366 159.382 107.777 158.716 107.115 158.197Z" fill="black"/>
<path d="M108.513 162.493C108.439 163.53 108.954 164.419 109.102 165.234C109.322 166.048 109.102 166.493 108.587 167.307C108.145 168.122 107.704 168.863 107.189 169.455C106.674 170.048 106.012 170.566 105.055 170.715C105.497 171.011 106.012 171.011 106.527 170.937C107.042 170.863 107.557 170.641 107.998 170.344C108.881 169.752 109.396 168.863 109.911 168.048C110.131 167.678 110.426 167.159 110.499 166.567C110.573 165.974 110.426 165.308 110.205 164.863C109.69 163.826 109.028 163.308 108.513 162.493Z" fill="black"/>
<path d="M109.837 166.567C109.837 167.085 109.911 167.604 109.911 168.122L109.984 168.863C109.984 169.085 110.058 169.381 110.058 169.529C110.058 169.678 110.058 169.678 109.911 169.826C109.837 169.974 109.617 170.196 109.469 170.344C109.175 170.715 108.881 171.085 108.587 171.455L107.777 172.64C107.483 173.011 107.189 173.307 106.894 173.529C106.6 173.751 106.306 173.899 105.865 173.825C105.497 173.825 105.055 173.603 104.835 173.085C104.761 173.307 104.835 173.677 104.982 173.899C105.129 174.122 105.35 174.344 105.644 174.492C105.938 174.64 106.232 174.714 106.527 174.714C106.821 174.714 107.115 174.64 107.409 174.492C107.998 174.27 108.366 173.825 108.734 173.455C109.102 173.085 109.396 172.64 109.69 172.27C109.984 171.9 110.279 171.455 110.573 171.011C110.72 170.789 110.867 170.641 111.014 170.344C111.088 170.196 111.161 170.048 111.235 169.826C111.235 169.604 111.235 169.381 111.161 169.233C111.088 168.937 110.941 168.715 110.867 168.493L110.499 167.826C110.426 167.456 110.131 167.011 109.837 166.567Z" fill="black"/>
<path d="M76.4373 83.0195C76.658 87.3154 76.9523 91.6112 77.173 95.9812L78.0558 108.869C78.6443 117.461 79.3065 126.126 79.9686 134.718C80.3364 139.014 80.7042 143.31 81.0721 147.606L82.2492 160.493C82.6906 164.789 83.0584 169.085 83.4263 173.381C83.8677 177.677 84.0884 181.973 84.3091 186.269C84.3091 186.417 84.4562 186.491 84.5298 186.491C87.1047 186.417 89.6796 186.12 92.1809 185.528C94.6822 185.009 97.1835 184.269 99.6113 183.38C100.788 182.936 102.039 182.417 103.143 181.825C103.731 181.528 104.32 181.232 104.908 180.936C105.202 180.788 105.497 180.64 105.791 180.417C105.938 180.269 106.085 180.121 106.232 179.899C106.38 179.677 106.38 179.454 106.38 179.232C106.38 178.788 106.306 178.492 106.306 178.195L106.159 177.232L105.938 175.307L105.423 171.455C104.172 161.234 103.143 150.939 102.48 140.643L102.039 132.941C101.892 130.348 101.745 127.756 101.745 125.238C101.671 120.053 101.745 114.942 101.745 109.758C101.745 104.573 101.892 99.4623 102.039 94.2776C102.113 91.6853 102.26 89.093 102.407 86.5747C102.48 85.3156 102.554 83.9824 102.701 82.7232C102.775 81.4641 102.995 80.1309 103.143 78.8718C103.143 78.7236 103.069 78.5755 102.995 78.5014C101.745 77.5385 100.494 76.7238 99.1698 76.0572C97.8456 75.3165 96.4478 74.7981 95.05 74.2055C93.6522 73.6871 92.1809 73.2427 90.7095 72.8723C89.9738 72.6501 89.2381 72.5761 88.5025 72.3539C87.7668 72.2057 87.0311 72.1317 86.2954 71.9835C86.2219 71.9835 86.2219 71.9835 86.2219 72.0576C86.2219 72.1317 86.2219 72.1317 86.2954 72.1317C87.0311 72.2798 87.7668 72.4279 88.5025 72.5761C89.2381 72.7983 89.9738 72.9464 90.6359 73.1686C92.0337 73.613 93.5051 74.0574 94.8293 74.6499C96.2271 75.2425 97.5513 75.9091 98.802 76.5757C100.053 77.3163 101.377 78.1311 102.48 79.0199L102.333 78.6496C102.113 79.9087 101.892 81.1678 101.745 82.501C101.598 83.7602 101.45 85.0934 101.303 86.3525C101.083 88.9448 100.862 91.5372 100.715 94.1295C100.421 99.3142 100.273 104.499 100.126 109.684C100.053 114.868 99.9791 120.053 100.053 125.238C100.126 130.422 100.494 135.607 100.862 140.792C101.598 151.087 102.701 161.456 104.172 171.677L105.35 179.306C105.35 179.529 105.276 179.603 105.129 179.825C104.982 179.973 104.687 180.121 104.393 180.269C103.878 180.565 103.29 180.862 102.701 181.158C101.598 181.751 100.421 182.269 99.2434 182.787C96.8892 183.75 94.4615 184.565 91.9602 185.084C89.4588 185.602 86.9575 185.972 84.3826 186.046L84.8976 186.269C84.6033 181.973 84.3827 177.677 84.0148 173.381C83.647 169.085 83.4263 164.789 83.132 160.493L82.2492 147.606C81.9549 143.31 81.5871 139.014 81.2928 134.718C80.6307 126.126 79.8214 117.535 79.0857 108.943L77.9087 96.0552C77.4672 91.7594 77.0994 87.4635 76.5844 83.1676C76.5844 83.0936 76.5109 83.0936 76.5109 83.0936C76.5109 82.9454 76.4373 83.0195 76.4373 83.0195Z" fill="#174075"/>
<path d="M50.5413 164.863C51.277 165.011 52.0862 164.937 52.7484 164.937C53.1162 164.937 53.4105 165.011 53.7047 165.16C53.999 165.308 54.2197 165.456 54.4404 165.678C55.544 166.641 56.6475 167.604 57.6774 168.567C58.7074 169.53 59.7373 170.566 60.6202 171.677C60.8409 171.974 61.0616 172.27 61.2087 172.492C61.3558 172.788 61.4294 172.937 61.4294 173.233C61.3558 173.825 60.6937 174.27 60.0316 174.64C60.3994 174.566 60.7673 174.492 61.1351 174.344C61.503 174.196 61.8708 173.899 62.0915 173.455C62.3122 173.011 62.2386 172.418 62.0915 172.048C61.9444 171.603 61.7237 171.307 61.5765 171.011C60.8409 169.678 59.8109 168.493 58.7074 167.456C57.6038 166.419 56.3532 165.53 55.1761 164.715C54.8818 164.493 54.4404 164.271 53.999 164.197C53.5576 164.123 53.1162 164.123 52.7484 164.197C51.9391 164.419 51.277 164.715 50.5413 164.863Z" fill="black"/>
<path d="M48.4078 168.344C49.2907 168.418 50.1735 168.493 50.9827 168.567C51.4241 168.567 51.8655 168.567 52.1598 168.641C52.4541 168.715 52.6748 168.937 53.0426 169.233C54.2933 170.344 55.6175 171.455 56.8682 172.64C57.4567 173.233 58.1188 173.825 58.7074 174.418C58.8545 174.566 59.0016 174.714 59.0752 174.862C59.2224 175.01 59.2959 175.159 59.3695 175.233C59.3695 175.233 59.3695 175.307 59.3695 175.381C59.2959 175.529 59.2224 175.751 59.1488 175.899C59.0016 176.27 58.7809 176.566 58.5602 176.788C58.3395 177.01 58.1188 177.01 57.751 176.936C57.3832 176.862 56.9417 176.566 56.5003 176.492C56.0589 176.344 55.6911 176.27 55.2497 176.121C55.6175 176.344 55.9854 176.64 56.3532 176.862C56.721 177.084 57.0153 177.307 57.4567 177.603C57.6774 177.751 57.8981 177.825 58.1924 177.825C58.4867 177.825 58.7809 177.751 59.0752 177.603C59.5902 177.307 59.8845 176.936 60.1787 176.492C60.3259 176.27 60.3994 176.121 60.5466 175.899C60.6201 175.751 60.6937 175.603 60.6937 175.381C60.7673 175.159 60.6937 174.936 60.6202 174.714C60.473 174.344 60.3259 174.196 60.2523 173.974C60.1052 173.751 59.958 173.603 59.8109 173.381C59.2223 172.714 58.5602 172.122 57.9717 171.455C56.6475 170.27 55.3232 169.159 53.8519 168.196C53.484 167.974 53.0426 167.604 52.4541 167.604C51.9391 167.604 51.4977 167.678 51.0563 167.752C50.0999 167.974 49.2171 168.122 48.4078 168.344Z" fill="black"/>
<path d="M45.4651 170.048C47.2307 169.974 49.0699 169.9 50.5413 170.566C50.9091 170.715 51.277 170.937 51.4241 171.159C51.7184 171.455 51.9391 171.751 52.2334 172.122C52.7484 172.788 53.1898 173.529 53.6312 174.27C53.8519 174.64 53.999 175.01 54.1461 175.381C54.1461 175.455 54.2197 175.529 54.2197 175.603V175.677C54.2197 175.751 54.2197 175.899 54.1461 175.973C53.999 176.196 53.8519 176.344 53.5576 176.344C53.2633 176.418 52.9691 176.344 52.6012 176.195C51.9391 175.899 51.2034 175.381 50.5413 174.862C49.8792 174.344 49.2171 173.751 48.555 173.159L48.4814 173.085C48.4078 173.011 48.3343 173.011 48.2607 173.011C47.525 173.233 46.7158 173.455 45.9801 173.677C46.7893 173.677 47.5986 173.677 48.3343 173.603L48.04 173.529C48.555 174.27 49.1435 175.01 49.8056 175.677C50.4677 176.344 51.1298 176.936 52.0862 177.455C52.6012 177.677 53.1162 177.825 53.7783 177.751C54.4404 177.677 55.029 177.232 55.3968 176.714C55.5439 176.418 55.6911 176.121 55.6911 175.751C55.6911 175.677 55.6911 175.529 55.6911 175.455L55.6175 175.233C55.6175 175.085 55.5439 174.936 55.4704 174.862C55.2497 174.344 55.029 173.973 54.8083 173.529C54.2933 172.714 53.7783 171.974 53.1898 171.233C52.8955 170.863 52.6012 170.566 52.2334 170.196C51.792 169.826 51.3506 169.604 50.8356 169.455C49.8792 169.159 48.9228 169.159 48.04 169.233C47.1572 169.529 46.2743 169.752 45.4651 170.048Z" fill="black"/>
<path d="M46.8629 172.344C46.5686 172.344 46.3479 172.418 46.2008 172.492C46.0536 172.566 45.9801 172.64 45.9801 172.714C45.9801 172.788 45.9801 172.863 46.0536 173.011C46.1272 173.085 46.2743 173.233 46.5686 173.455C46.8629 173.455 47.0836 173.381 47.1572 173.381C47.3043 173.307 47.3779 173.233 47.3779 173.159C47.3779 173.085 47.3779 172.937 47.3043 172.862C47.3043 172.566 47.1572 172.492 46.8629 172.344Z" fill="black"/>
<path d="M45.6122 172.64C45.4651 172.937 45.4651 173.159 45.4651 173.307C45.4651 173.455 45.5387 173.603 45.6122 173.677C45.6858 173.751 45.833 173.825 45.9801 173.825C46.1272 173.825 46.3479 173.751 46.6422 173.603C46.7893 173.307 46.7893 173.085 46.7893 172.937C46.7893 172.788 46.7158 172.64 46.6422 172.566C46.5686 172.492 46.4215 172.418 46.2744 172.492C46.0536 172.418 45.9065 172.492 45.6122 172.64Z" fill="black"/>
<path d="M82.3227 155.235C81.2928 154.79 80.1893 154.568 79.1593 154.42C78.0558 154.346 76.9523 154.346 75.9223 154.42C74.8188 154.494 73.7888 154.642 72.7589 154.864C71.7289 155.086 70.699 155.309 69.5955 155.605C70.699 155.901 71.7289 155.975 72.8325 156.049C73.936 156.049 74.9659 156.049 75.9959 155.975C77.0258 155.901 78.0558 155.753 79.1593 155.679C80.1893 155.457 81.2192 155.383 82.3227 155.235Z" fill="black"/>
<path d="M82.5434 157.901C81.5135 157.605 80.41 157.457 79.38 157.383C78.3501 157.308 77.2465 157.234 76.2166 157.308C75.1866 157.308 74.0831 157.383 73.0532 157.531C72.5382 157.605 72.0232 157.679 71.5082 157.753C70.9933 157.901 70.4047 158.049 69.9633 158.345C70.4783 158.345 70.9933 158.345 71.5082 158.419C72.0232 158.494 72.5382 158.568 73.1267 158.568C74.1567 158.642 75.2602 158.716 76.2901 158.642C77.3201 158.642 78.4236 158.568 79.4536 158.419C80.41 158.419 81.5135 158.197 82.5434 157.901Z" fill="black"/>
<path d="M82.6906 160.345C81.6606 160.123 80.5571 160.049 79.5272 160.049C78.4972 160.049 77.3937 160.123 76.3637 160.197C75.3338 160.271 74.3038 160.493 73.2739 160.641C72.2439 160.864 71.214 161.086 70.184 161.382C71.214 161.678 72.3175 161.752 73.3474 161.752C74.3774 161.752 75.4809 161.752 76.5109 161.604C77.5408 161.456 78.5708 161.308 79.6007 161.086C80.6307 161.012 81.6606 160.79 82.6906 160.345Z" fill="black"/>
<path d="M45.7594 72.8723C43.9937 73.8352 42.3017 74.8721 40.6096 76.0572C38.9175 77.1682 37.299 78.3533 35.7541 79.5384C34.1356 80.7234 32.5907 81.9826 31.0457 83.3158C29.5008 84.5749 28.0295 85.9081 26.6317 87.3894C28.3973 86.4266 30.0894 85.3896 31.7814 84.2046C33.4735 83.0936 35.092 81.9085 36.6369 80.7234C38.2554 79.5384 39.8004 78.2792 41.3453 76.946C42.8902 75.6869 44.3616 74.3537 45.7594 72.8723Z" fill="#174075"/>
<path d="M46.2744 80.1309C45.3915 80.6494 44.5823 81.316 43.773 81.9826C43.0374 82.6492 42.3017 83.3898 41.566 84.1305C40.9039 84.8712 40.2418 85.6859 39.5796 86.5006C38.9911 87.3154 38.4026 88.2042 37.9612 89.167C38.844 88.6486 39.6532 87.982 40.4625 87.3154C41.1982 86.6488 41.9338 85.9081 42.6695 85.1674C43.3316 84.4268 43.9938 83.612 44.6559 82.7973C45.2444 81.9085 45.833 81.0938 46.2744 80.1309Z" fill="#174075"/>
<path d="M102.48 82.1307C101.45 81.316 100.347 80.6494 99.2434 79.9828C98.1399 79.3162 96.9628 78.7977 95.7857 78.2052C94.6086 77.6867 93.4315 77.1682 92.1809 76.7238C91.0038 76.2794 89.7531 75.9091 88.4289 75.6869C89.4589 76.5016 90.5624 77.1682 91.6659 77.8348C92.7694 78.4274 93.9465 79.0199 95.1236 79.6124C96.3007 80.1309 97.4778 80.6494 98.7284 81.0197C99.9791 81.5382 101.23 81.9085 102.48 82.1307Z" fill="#174075"/>
<path d="M118.813 112.202C121.387 116.35 123.889 120.497 126.316 124.719C126.905 125.756 127.494 126.867 128.009 127.904C128.524 128.941 129.039 130.052 129.406 131.163C129.48 131.311 129.48 131.459 129.48 131.533V131.83C129.48 131.904 129.406 132.052 129.406 132.126C129.406 132.2 129.333 132.348 129.259 132.496C129.039 133.015 128.818 133.533 128.524 134.052C128.009 135.088 127.42 136.199 126.831 137.236C124.477 141.458 121.902 145.606 119.401 149.754C116.9 153.901 114.398 158.049 111.897 162.271C111.897 162.271 111.897 162.271 111.897 162.345C111.382 164.271 110.794 166.196 110.279 168.122C111.014 166.271 111.676 164.419 112.412 162.493V162.567C115.208 158.568 117.93 154.568 120.578 150.42C121.902 148.346 123.227 146.347 124.477 144.199C125.728 142.125 126.979 140.051 128.156 137.903C128.744 136.866 129.333 135.755 129.848 134.644C130.142 134.052 130.363 133.533 130.583 132.866C130.657 132.718 130.657 132.57 130.731 132.348C130.731 132.126 130.804 131.978 130.804 131.755V131.459L130.731 131.163C130.731 131.015 130.657 130.793 130.583 130.644C129.774 128.2 128.45 126.126 127.199 124.053C124.624 119.979 121.829 116.053 118.813 112.202Z" fill="black"/>
<path d="M115.723 132.422C115.355 131.311 114.84 130.274 114.251 129.311C113.663 128.348 113.074 127.386 112.412 126.423C111.75 125.46 111.088 124.571 110.279 123.756C109.543 122.941 108.734 122.053 107.777 121.386C108.292 122.423 108.734 123.46 109.322 124.423C109.911 125.386 110.499 126.349 111.161 127.311C111.824 128.2 112.486 129.163 113.221 129.978C114.031 130.867 114.84 131.681 115.723 132.422Z" fill="black"/>
<path d="M121.682 131.015C120.505 130.496 119.033 130.496 117.783 131.089C117.12 131.311 116.605 131.755 116.017 132.2C115.796 132.422 115.502 132.644 115.281 132.941C115.061 133.237 114.84 133.459 114.619 133.755C113.148 136.051 112.191 138.421 111.088 140.866C110.131 143.31 109.175 145.754 108.292 148.198L107.189 151.457C106.747 151.679 106.085 151.902 105.497 152.05C104.908 152.198 104.246 152.42 103.657 152.568H103.584C103.29 152.642 103.069 152.939 103.143 153.235C103.143 153.309 103.216 153.457 103.29 153.531L106.159 156.42C106.527 156.716 106.747 157.012 106.747 157.308C106.747 157.605 106.6 158.049 106.38 158.419C106.159 158.79 105.938 159.234 105.717 159.605C105.276 160.345 104.687 161.086 104.172 161.827C104.835 161.234 105.497 160.567 106.085 159.827C106.38 159.456 106.674 159.086 106.894 158.716C107.115 158.345 107.483 157.901 107.483 157.308C107.483 157.012 107.409 156.716 107.262 156.42C107.115 156.197 106.968 155.975 106.821 155.827L104.172 152.716L104.025 153.679C104.687 153.531 105.35 153.457 105.938 153.309C106.6 153.161 107.189 153.013 107.924 152.642C108.072 152.568 108.145 152.568 108.292 152.346C108.366 152.198 108.439 152.198 108.439 152.124L108.513 151.976L108.734 151.457L109.102 150.568L109.764 148.717C110.646 146.273 111.529 143.828 112.486 141.384C112.927 140.199 113.442 138.94 113.883 137.755C114.398 136.57 114.84 135.311 115.502 134.274C116.091 133.163 116.973 132.274 118.003 131.607C119.107 131.015 120.431 130.793 121.682 131.015Z" fill="black"/>
<path d="M101.083 123.904C102.26 123.756 103.437 123.312 104.54 122.867C105.644 122.423 106.747 121.905 107.777 121.312C108.881 120.794 109.911 120.127 110.941 119.534C111.971 118.942 113.001 118.275 113.957 117.535C115.943 116.053 117.635 114.276 119.107 112.276C120.505 110.276 121.682 108.054 122.344 105.61C122.417 105.388 122.344 105.24 122.27 105.091C120.725 102.869 119.18 100.647 117.562 98.4254L112.78 91.8334C111.161 89.6114 109.543 87.4635 107.924 85.2415L105.423 81.9826C104.982 81.4641 104.614 80.8716 104.172 80.3531L102.848 78.7977C104.467 81.0197 105.791 83.3898 107.336 85.6118C108.807 87.9079 110.279 90.1299 111.824 92.426L116.385 99.166C117.93 101.388 119.475 103.61 121.02 105.832L120.872 105.24C120.284 107.387 119.18 109.535 117.93 111.461C116.605 113.387 115.061 115.164 113.221 116.646C111.382 118.127 109.396 119.46 107.336 120.719C106.306 121.386 105.276 121.979 104.246 122.497C103.363 123.09 102.26 123.682 101.083 123.904Z" fill="#174075"/>
<path d="M120.137 103.166C118.739 104.943 117.415 106.721 116.017 108.424C114.619 110.128 113.221 111.831 111.676 113.387C110.131 114.942 108.513 116.35 106.747 117.535C104.835 118.646 102.922 119.757 101.083 121.09C103.216 120.349 105.276 119.534 107.262 118.572C109.322 117.535 111.088 116.053 112.706 114.424C114.251 112.794 115.649 111.017 116.9 109.091C118.15 107.239 119.254 105.24 120.137 103.166Z" fill="#174075"/>
<path d="M101.671 348.845C101.23 348.105 100.347 347.734 99.4641 347.734C98.5813 347.66 97.7721 347.956 96.9628 348.179C96.2271 348.401 95.4914 348.697 94.8293 348.697L94.2408 348.771C94.0936 348.771 93.8729 348.771 93.7258 348.771C93.5787 348.771 93.358 348.771 93.2108 348.771H92.9166C92.843 348.771 92.6223 348.771 92.7694 348.771C92.7694 348.771 92.9166 348.845 92.9901 348.919C93.0637 348.993 93.0637 349.067 93.1373 349.141C93.1373 349.215 93.1373 349.067 93.1373 348.993L93.0637 348.401L92.9901 347.216C92.9166 346.401 92.843 345.66 92.6958 344.846C92.4751 343.29 92.2544 341.661 91.813 340.105C91.5923 341.735 91.5188 343.29 91.5188 344.92C91.5188 345.734 91.5188 346.549 91.5188 347.29L91.5923 348.475V349.067C91.5923 349.141 91.5923 349.216 91.6659 349.512C91.6659 349.66 91.7395 349.808 91.8866 349.956C92.0337 350.104 92.1809 350.178 92.328 350.252C92.6223 350.326 92.6223 350.327 92.7694 350.327H93.0637C93.2844 350.327 93.5051 350.327 93.7258 350.327C93.9465 350.327 94.1672 350.326 94.3879 350.252C94.6086 350.252 94.8293 350.178 94.9765 350.178C95.9328 349.956 96.6685 349.586 97.4042 349.216C98.1399 348.919 98.802 348.549 99.4641 348.401C100.2 348.327 101.009 348.401 101.671 348.845Z" fill="black"/>
<path d="M106.968 339.661C109.469 338.031 112.118 336.624 114.84 335.661C116.238 335.217 117.635 334.847 119.033 334.624C120.431 334.402 121.902 334.328 123.3 334.402C126.169 334.55 128.965 335.291 131.466 336.698C132.717 337.439 133.968 338.18 134.63 339.365C134.998 339.957 135.145 340.55 135.145 341.216C135.145 341.883 134.85 342.475 134.335 342.92L134.262 342.994C134.115 343.142 134.115 343.29 134.188 343.438C134.262 343.512 134.262 343.512 134.335 343.512C134.924 343.661 135.365 344.327 135.439 345.068C135.513 345.808 135.292 346.549 135.071 347.29C135.439 346.623 135.807 345.883 135.807 344.994C135.807 344.549 135.733 344.105 135.513 343.735C135.292 343.364 134.998 342.994 134.556 342.772L134.63 343.364C135.365 342.92 135.807 342.031 135.954 341.216C136.101 340.402 135.88 339.439 135.513 338.772C134.703 337.291 133.379 336.328 132.055 335.513C130.731 334.698 129.333 334.106 127.788 333.662C126.316 333.217 124.772 332.995 123.227 332.921C120.137 332.773 117.047 333.439 114.251 334.624C111.676 335.883 109.102 337.587 106.968 339.661Z" fill="black"/>
<path d="M134.85 347.66C132.128 347.808 129.406 347.882 126.611 347.882H118.371C115.649 347.882 112.854 347.956 110.131 348.105C107.409 348.253 104.614 348.401 101.892 348.771C104.614 349.067 107.409 349.216 110.131 349.29C112.854 349.364 115.649 349.438 118.371 349.364C121.093 349.364 123.889 349.29 126.611 349.067C129.406 348.771 132.202 348.401 134.85 347.66Z" fill="black"/>
<path d="M134.188 343.364L123.815 343.29C120.357 343.29 116.9 343.29 113.442 343.29C109.984 343.364 106.527 343.364 103.069 343.586C99.6112 343.735 96.1536 344.031 92.6958 344.549C96.1536 344.697 99.6112 344.697 103.069 344.772C106.527 344.846 109.984 344.846 113.442 344.846C116.9 344.772 120.357 344.697 123.815 344.475C127.273 344.253 130.731 343.883 134.188 343.364Z" fill="black"/>
<path d="M132.496 348.03C132.79 347.66 132.938 347.29 133.085 346.919C133.158 346.549 133.232 346.179 133.232 345.808C133.232 345.438 133.158 345.068 133.011 344.697C132.864 344.327 132.717 343.957 132.423 343.586C132.128 343.957 131.981 344.327 131.908 344.772C131.834 345.142 131.761 345.512 131.761 345.883C131.761 346.475 131.908 347.216 132.496 348.03Z" fill="black"/>
<path d="M128.818 343.661C128.524 344.105 128.376 344.475 128.303 344.846C128.229 345.216 128.156 345.586 128.229 346.031C128.229 346.401 128.303 346.771 128.45 347.216C128.597 347.586 128.744 347.956 129.112 348.327C129.406 347.956 129.553 347.512 129.627 347.142C129.701 346.771 129.774 346.327 129.701 345.957C129.701 345.586 129.627 345.142 129.48 344.772C129.259 344.401 129.112 344.031 128.818 343.661Z" fill="black"/>
<path d="M124.109 343.883C123.815 344.253 123.668 344.697 123.521 345.068C123.447 345.438 123.374 345.883 123.374 346.253C123.374 346.623 123.447 347.068 123.521 347.438C123.668 347.808 123.815 348.179 124.109 348.623C124.404 348.253 124.551 347.808 124.698 347.438C124.772 347.068 124.845 346.623 124.845 346.253C124.845 345.883 124.772 345.438 124.698 345.068C124.551 344.623 124.404 344.253 124.109 343.883Z" fill="black"/>
<path d="M120.137 343.957C119.842 344.327 119.695 344.772 119.548 345.142C119.475 345.512 119.401 345.883 119.401 346.327C119.401 346.697 119.475 347.068 119.548 347.512C119.695 347.882 119.842 348.253 120.137 348.697C120.431 348.327 120.578 347.882 120.725 347.512C120.799 347.142 120.872 346.771 120.872 346.327C120.872 345.957 120.799 345.586 120.725 345.142C120.652 344.697 120.505 344.327 120.137 343.957Z" fill="black"/>
<path d="M116.017 344.031C115.723 344.475 115.576 344.846 115.502 345.216C115.428 345.586 115.428 345.957 115.428 346.401C115.428 346.771 115.502 347.142 115.649 347.512C115.796 347.882 115.943 348.253 116.311 348.623C116.605 348.253 116.753 347.808 116.826 347.438C116.9 347.068 116.9 346.623 116.9 346.253C116.9 345.883 116.826 345.512 116.679 345.142C116.532 344.772 116.311 344.401 116.017 344.031Z" fill="black"/>
<path d="M112.559 348.623C112.854 348.253 113.001 347.882 113.148 347.438C113.221 347.068 113.295 346.697 113.295 346.253C113.295 345.883 113.221 345.512 113.148 345.068C113.001 344.697 112.854 344.327 112.559 343.957C112.265 344.327 112.118 344.697 111.971 345.142C111.897 345.512 111.824 345.883 111.824 346.327C111.824 346.697 111.897 347.068 111.971 347.438C112.118 347.882 112.265 348.253 112.559 348.623Z" fill="black"/>
<path d="M107.557 348.697C107.924 348.327 108.072 348.03 108.292 347.66C108.439 347.29 108.513 346.919 108.587 346.549C108.66 346.179 108.66 345.734 108.587 345.364C108.513 344.994 108.439 344.549 108.145 344.179C107.777 344.549 107.63 344.92 107.409 345.29C107.262 345.66 107.189 346.031 107.115 346.401C107.042 346.771 107.115 347.142 107.115 347.586C107.189 347.882 107.336 348.253 107.557 348.697Z" fill="black"/>
<path d="M104.099 348.697C104.393 348.327 104.54 347.956 104.687 347.586C104.835 347.216 104.835 346.845 104.835 346.475C104.835 346.105 104.761 345.734 104.687 345.364C104.54 344.994 104.393 344.623 104.099 344.253C103.805 344.623 103.658 344.994 103.51 345.364C103.363 345.734 103.363 346.105 103.363 346.475C103.363 346.845 103.437 347.216 103.51 347.586C103.658 347.956 103.805 348.327 104.099 348.697Z" fill="black"/>
<path d="M100.347 344.253C100.053 344.623 99.9055 344.92 99.7584 345.216C99.6848 345.512 99.6113 345.883 99.6113 346.179C99.6113 346.475 99.6848 346.845 99.7584 347.142C99.9055 347.438 100.053 347.808 100.347 348.105C100.641 347.734 100.788 347.438 100.935 347.142C101.009 346.845 101.083 346.475 101.083 346.179C101.083 345.883 101.009 345.512 100.935 345.216C100.788 344.846 100.641 344.549 100.347 344.253Z" fill="black"/>
<path d="M97.0364 348.771C97.3306 348.401 97.5513 348.03 97.6249 347.66C97.7721 347.29 97.772 346.919 97.8456 346.549C97.8456 346.179 97.8456 345.808 97.6985 345.438C97.6249 345.068 97.4778 344.697 97.1835 344.327C96.8892 344.697 96.6685 345.068 96.595 345.438C96.4478 345.808 96.4478 346.179 96.3743 346.549C96.3743 346.919 96.3743 347.29 96.5214 347.66C96.595 348.03 96.7421 348.401 97.0364 348.771Z" fill="black"/>
<path d="M94.4615 349.438C94.7558 348.993 94.9765 348.623 95.05 348.179C95.1972 347.734 95.1972 347.364 95.2707 346.919C95.2707 346.475 95.2707 346.105 95.1236 345.66C95.05 345.216 94.9029 344.846 94.6086 344.401C94.3143 344.846 94.0936 345.216 94.0201 345.66C93.8729 346.105 93.8729 346.475 93.7994 346.919C93.7994 347.364 93.7994 347.734 93.9465 348.179C94.0201 348.623 94.1672 349.067 94.4615 349.438Z" fill="black"/>
<path d="M60.8408 343.735C60.6201 344.475 60.6201 345.216 60.5466 345.957C60.473 346.697 60.3259 347.438 59.8845 347.956C59.5166 348.475 58.8545 348.845 58.1924 348.993C57.5303 349.141 56.7946 349.216 56.0589 349.216C53.1162 349.364 50.247 349.512 47.3043 349.586C44.3616 349.66 41.4924 349.66 38.6233 349.438C37.8876 349.364 37.1519 349.364 36.5634 349.216C36.2691 349.141 36.0484 348.993 35.9012 348.845C35.7541 348.697 35.607 348.549 35.5334 348.253C35.4598 347.956 35.3863 347.66 35.3863 347.29C35.3127 346.919 35.3127 346.623 35.3127 346.253C35.2391 345.586 35.3127 344.846 35.3863 344.179L34.4299 344.772C36.6369 345.438 38.9175 345.66 41.1982 345.586C43.4788 345.586 45.6858 345.29 47.8928 344.92C50.0999 344.549 52.2334 344.105 54.4404 343.809C56.6475 343.438 58.7809 343.29 61.0616 343.29C58.8545 342.994 56.6475 343.068 54.3668 343.142C52.1598 343.29 49.9528 343.586 47.7457 343.883C45.5387 344.105 43.4052 344.327 41.1982 344.327C39.0647 344.327 36.8576 344.031 34.8713 343.438C34.5034 343.29 34.062 343.512 33.9885 343.883C33.9885 343.957 33.9885 343.957 33.9885 344.031C33.9149 344.771 33.9149 345.586 33.9149 346.327C33.9149 346.697 33.9885 347.068 33.9885 347.512C34.062 347.882 34.062 348.253 34.2092 348.697C34.3563 349.141 34.577 349.586 35.0184 349.956C35.3863 350.327 35.8277 350.475 36.2691 350.623C37.1519 350.845 37.8876 350.845 38.6233 350.919C41.566 351.067 44.5087 350.993 47.4514 350.845C50.3942 350.697 53.3369 350.401 56.2061 350.03C56.9417 349.956 57.6774 349.808 58.4131 349.586C59.1488 349.364 59.8845 348.845 60.2523 348.179C60.6937 347.512 60.7673 346.697 60.7673 345.957C60.7673 345.216 60.7673 344.475 60.8408 343.735Z" fill="black"/>
<path d="M57.8246 349.364C58.266 348.993 58.5602 348.475 58.7809 347.956C59.0016 347.438 59.0752 346.845 59.0752 346.327C59.0752 345.808 59.0752 345.216 58.9281 344.697C58.7809 344.179 58.6338 343.66 58.266 343.142C57.9717 343.66 57.8246 344.179 57.751 344.697C57.6774 345.216 57.6038 345.734 57.6038 346.253C57.6038 346.771 57.6038 347.216 57.6038 347.734C57.6774 348.253 57.6774 348.771 57.8246 349.364Z" fill="black"/>
<path d="M54.2197 343.438C53.9254 343.957 53.7047 344.475 53.5576 344.994C53.4105 345.512 53.3369 346.031 53.3369 346.549C53.3369 347.586 53.4105 348.623 53.9254 349.734C54.2933 349.216 54.4404 348.697 54.5876 348.179C54.7347 347.66 54.8083 347.142 54.8083 346.623C54.8083 346.105 54.8083 345.586 54.7347 345.068C54.6611 344.549 54.514 343.957 54.2197 343.438Z" fill="black"/>
<path d="M50.1735 350.03C50.4677 349.512 50.6149 349.067 50.762 348.549C50.9092 348.03 50.9091 347.512 50.9827 347.068C50.9827 346.549 50.9827 346.031 50.8356 345.586C50.762 345.068 50.6149 344.549 50.3206 344.031C50.0263 344.549 49.8056 344.994 49.7321 345.512C49.5849 346.031 49.5849 346.549 49.5113 346.994C49.5113 347.512 49.5114 348.03 49.6585 348.475C49.7321 348.993 49.8792 349.512 50.1735 350.03Z" fill="black"/>
<path d="M46.4951 350.178C46.7893 349.734 47.01 349.29 47.1572 348.771C47.3043 348.327 47.3779 347.808 47.3779 347.364C47.3779 346.919 47.3779 346.401 47.3043 345.957C47.2307 345.512 47.0836 344.994 46.7893 344.549C46.4951 344.994 46.2744 345.512 46.1272 345.957C45.9801 346.401 45.9065 346.919 45.9065 347.364C45.9065 347.808 45.9065 348.327 45.9801 348.771C46.0537 349.216 46.2008 349.66 46.4951 350.178Z" fill="black"/>
<path d="M42.8902 350.252C43.1845 349.808 43.3316 349.364 43.4788 348.919C43.5523 348.475 43.6259 348.03 43.6259 347.586C43.6259 347.142 43.5523 346.697 43.4788 346.253C43.3316 345.808 43.1845 345.364 42.8902 344.92C42.5959 345.364 42.4488 345.808 42.3017 346.253C42.2281 346.697 42.1545 347.142 42.1545 347.586C42.1545 348.03 42.2281 348.475 42.3017 348.919C42.3752 349.364 42.5959 349.808 42.8902 350.252Z" fill="black"/>
<path d="M39.0647 350.178C39.4325 349.734 39.6532 349.364 39.8004 348.919C39.9475 348.475 40.0211 348.03 40.0946 347.66C40.1682 347.216 40.1682 346.771 40.0946 346.327C40.0211 345.883 39.9475 345.438 39.6532 344.92C39.2854 345.29 39.0647 345.734 38.9175 346.179C38.7704 346.623 38.6968 347.068 38.6233 347.512C38.5497 347.956 38.5497 348.401 38.6233 348.845C38.7704 349.216 38.844 349.66 39.0647 350.178Z" fill="black"/>
<path d="M36.2691 344.401C35.9748 344.846 35.8277 345.29 35.6805 345.734C35.607 346.179 35.5334 346.623 35.5334 347.068C35.5334 347.512 35.607 347.956 35.6805 348.401C35.8277 348.845 35.9748 349.29 36.2691 349.734C36.5634 349.29 36.7105 348.845 36.8576 348.401C36.9312 347.956 37.0048 347.512 37.0048 347.068C37.0048 346.623 36.9312 346.179 36.8576 345.734C36.7105 345.364 36.5634 344.92 36.2691 344.401Z" fill="black"/>
<path d="M34.6506 343.883C34.5034 343.068 34.2092 342.253 34.062 341.439C33.9149 340.624 34.2092 339.883 34.6506 339.216C35.5334 337.809 36.6369 336.624 37.8876 335.587C39.1382 334.55 40.536 333.736 42.0074 333.143C43.4788 332.55 45.0237 332.106 46.6422 331.958C48.2607 331.81 49.8792 331.884 51.3506 332.328C52.8219 332.773 54.2197 333.661 55.4704 334.698C56.0589 335.217 56.6475 335.809 57.3096 336.402C57.8981 336.995 58.4867 337.587 59.0752 338.18C60.1787 339.365 61.2087 340.846 61.0615 342.55C61.2822 341.735 61.2087 340.846 60.8408 340.031C60.5466 339.217 60.1052 338.476 59.5902 337.735C58.5602 336.328 57.4567 335.069 56.2796 333.884C55.029 332.625 53.5576 331.588 51.8655 330.995C50.1735 330.403 48.3343 330.329 46.6422 330.477C43.1109 330.773 39.8003 332.328 37.2255 334.698C35.9748 335.883 34.8713 337.291 34.062 338.846C33.8413 339.217 33.6942 339.661 33.6206 340.105C33.5471 340.55 33.6206 341.068 33.6942 341.439C33.9149 342.401 34.3563 343.142 34.6506 343.883Z" fill="black"/>
<path d="M118.739 333.662C118.665 333.291 118.592 332.995 118.371 332.773C118.224 332.55 118.003 332.328 117.783 332.18C117.562 332.032 117.341 331.958 117.047 331.884C116.753 331.81 116.458 331.81 116.091 331.958C116.164 332.328 116.238 332.625 116.458 332.847C116.605 333.069 116.826 333.291 117.047 333.439C117.268 333.587 117.488 333.662 117.783 333.736C118.003 333.736 118.298 333.81 118.739 333.662Z" fill="black"/>
<path d="M81.5135 182.195C79.8214 188.787 78.2765 195.453 76.8051 202.119C75.3338 208.785 74.0095 215.451 72.7589 222.191L71.0668 232.264C70.5518 235.597 69.9633 239.004 69.3747 242.337C68.1241 249.077 66.6527 255.669 65.1814 262.335L64.2985 266.113C64.225 266.557 64.0778 267.001 64.0778 267.52C64.0778 268.038 64.1514 268.705 64.4457 269.149C64.6664 269.594 64.9607 270.038 65.2549 270.334C65.8435 271.001 66.2849 271.668 66.2113 271.964C66.2113 272.186 66.1377 272.26 65.917 272.482C65.6963 272.705 65.4021 272.853 65.0342 273.075C64.6664 273.297 64.225 273.519 63.8571 273.89C63.4157 274.26 63.0479 274.927 62.9743 275.593C62.9007 276.334 63.195 276.926 63.4157 277.371C63.71 277.815 63.9307 278.185 64.225 278.556C64.4457 278.852 64.6664 279.222 64.8135 279.445C64.9607 279.741 64.9607 279.889 64.8871 280.037C64.8871 280.185 64.7399 280.333 64.4457 280.704C64.1514 281 63.7836 281.593 63.6364 282.111C63.3422 283.222 63.3422 284.111 63.3422 284.926L63.195 290.036C63.0479 293.443 62.9743 296.85 62.9008 300.257C62.8272 307.072 62.68 313.886 62.7536 320.7C62.7536 324.107 62.9743 327.588 63.5629 330.995C63.8571 332.699 64.3721 334.328 64.225 335.958C64.1514 336.772 63.9307 337.513 63.4893 338.18C63.0479 338.846 62.3858 339.439 61.5765 339.587C61.503 339.587 61.503 339.661 61.503 339.735C61.503 339.809 61.5765 339.809 61.6501 339.809C62.5329 339.735 63.3422 339.142 63.8571 338.476C64.4457 337.809 64.8135 336.92 64.9607 336.032C65.2549 334.254 64.8871 332.476 64.6664 330.847C64.2985 327.514 64.3721 324.107 64.4457 320.774C64.7399 313.96 65.0342 307.146 65.2549 300.331C65.3285 296.924 65.4021 293.517 65.4756 290.11L65.5492 285C65.5492 284.111 65.5492 283.296 65.6963 282.778C65.7699 282.481 65.8435 282.333 66.1377 281.963C66.3585 281.667 66.7999 281.148 66.947 280.407C67.0941 279.667 66.8734 279 66.6527 278.482C66.3585 277.963 66.0642 277.593 65.8435 277.297C65.3285 276.63 64.8871 276.038 64.9607 275.741C64.9607 275.593 65.0342 275.445 65.1814 275.223C65.4021 275.001 65.6963 274.853 66.0642 274.556C66.432 274.334 66.8734 274.038 67.2413 273.667C67.6827 273.297 67.9769 272.556 67.9769 271.89C67.9769 271.223 67.6827 270.631 67.3884 270.186C67.0941 269.742 66.7999 269.446 66.5056 269.149C66.2113 268.853 65.9906 268.557 65.8435 268.261C65.6963 267.964 65.6228 267.742 65.6228 267.446C65.6228 266.779 65.8435 265.89 65.9906 265.076L66.432 262.557C67.5355 255.817 68.7126 249.151 70.1104 242.411C70.7725 239.078 71.5818 235.745 72.3175 232.412L74.5981 222.413C76.0694 215.747 77.3201 209.081 78.4972 202.341C79.6743 195.601 80.7778 188.935 81.7342 182.121C81.7342 182.047 81.7342 181.973 81.6606 181.973C81.5871 182.121 81.5871 182.121 81.5135 182.195Z" fill="black"/>
<path d="M43.1109 186.861C42.5224 193.305 42.081 199.749 41.566 206.193L40.0946 225.524C39.1382 238.412 38.1819 251.225 37.1519 264.113C36.1955 277 35.092 289.814 33.9885 302.702L32.2964 321.959C32.0021 325.144 31.7079 328.403 31.7079 331.662C31.7079 334.921 32.0021 338.18 32.9585 341.216C32.1493 338.106 31.9286 334.847 32.0757 331.662C32.2228 328.477 32.6643 325.218 33.0321 322.033C33.7678 315.589 34.4299 309.219 35.092 302.776C36.4162 289.962 37.5197 277.074 38.5497 264.187C39.5061 251.299 40.4625 238.412 41.1982 225.524L42.2281 206.193C42.5224 199.749 42.8902 193.305 43.1109 186.861Z" fill="black"/>
<path d="M119.401 333.884C117.856 327.736 116.458 321.515 115.355 315.293C114.178 309.071 113.148 302.776 112.339 296.48C110.646 283.889 109.396 271.297 108.366 258.632L105.276 220.636L103.657 201.6C103.069 195.305 102.48 188.935 101.892 182.639C102.186 189.009 102.628 195.305 102.995 201.674L104.246 220.71C104.614 227.079 105.129 233.375 105.57 239.745L106.968 258.78C108.072 271.445 109.322 284.111 111.235 296.702C112.191 302.998 113.295 309.294 114.693 315.441C116.017 321.663 117.562 327.81 119.401 333.884Z" fill="black"/>
<path d="M74.8188 216.71C75.1131 220.339 75.5545 223.969 76.143 227.598C76.7316 231.227 77.3937 234.856 78.1294 238.412C78.865 241.967 79.7479 245.596 80.6307 249.151L82.0285 254.484C82.4699 256.262 82.7642 257.965 82.3227 259.595C82.102 260.409 81.8078 261.372 81.6606 262.335C81.5135 263.298 81.5135 264.261 81.5135 265.15C81.5871 267.001 81.6606 268.853 81.7342 270.631C81.9549 274.26 82.2492 277.963 82.5434 281.593C82.9113 285.222 83.3527 288.925 83.7941 292.554C84.0148 294.406 84.3091 296.184 84.7505 298.035C85.1919 299.887 85.854 301.665 86.8104 303.368L86.9575 302.405C86.2954 302.924 85.5597 303.516 84.8976 304.183C84.6033 304.553 84.3091 304.924 84.0884 305.368C83.8677 305.812 83.7205 306.331 83.647 306.849C83.5734 307.886 83.7941 309.071 84.7505 309.812C85.2655 310.182 85.7069 310.33 86.0747 310.479C86.2218 310.553 86.369 310.627 86.5161 310.701C86.5897 310.775 86.5897 310.775 86.6633 310.849C86.6633 310.923 86.6633 310.923 86.6633 310.997C86.5897 311.071 86.5161 311.219 86.369 311.367C86.0747 311.664 85.7069 311.886 85.4126 312.33C85.0448 312.775 84.8241 313.515 84.9712 314.108C85.1183 314.7 85.4126 315.145 85.6333 315.515C85.854 315.885 86.1483 316.256 86.2954 316.552C86.4426 316.848 86.5897 317.219 86.6633 317.589C86.8104 318.33 86.884 319.293 87.0311 320.107C87.9139 326.995 88.9439 333.884 89.9003 340.698C89.9003 340.92 90.1945 341.142 90.4152 341.068C90.4888 341.068 90.5624 341.068 90.5624 340.994C94.6086 338.624 98.802 336.624 103.216 334.995C107.63 333.365 112.118 332.18 116.753 331.365C112.118 331.958 107.483 333.069 102.995 334.55C98.5077 336.032 94.1672 337.957 90.0474 340.328L90.7095 340.698C89.8267 333.81 89.091 326.921 88.1346 320.033C87.9875 319.144 87.9139 318.33 87.7668 317.441C87.6932 316.996 87.5461 316.478 87.3254 316.034C87.1047 315.589 86.8104 315.219 86.5897 314.849C86.369 314.478 86.1483 314.182 86.1483 313.886C86.0747 313.589 86.1483 313.441 86.2954 313.219C86.5161 312.997 86.8104 312.701 87.1782 312.404C87.3254 312.256 87.5461 312.034 87.6932 311.738C87.8404 311.441 87.9139 310.997 87.8404 310.627C87.7668 310.256 87.5461 309.886 87.2518 309.738C87.0311 309.516 86.7368 309.442 86.5161 309.294C86.0747 309.071 85.7069 308.997 85.4862 308.775C85.0448 308.405 84.8241 307.738 84.8976 306.997C84.9712 306.331 85.339 305.664 85.854 305.072C86.369 304.479 87.0311 303.961 87.6932 303.442C87.9875 303.22 88.0611 302.85 87.9139 302.479C86.1483 299.443 85.6333 295.813 85.1183 292.258C84.6034 288.629 84.1619 285 83.7941 281.37C83.4263 277.741 83.132 274.112 82.9113 270.483C82.7641 268.631 82.6906 266.853 82.617 265.002C82.617 264.113 82.617 263.224 82.6906 262.335C82.8377 261.52 83.0584 260.632 83.2791 259.669C83.4998 258.706 83.5734 257.743 83.4263 256.78C83.3527 255.817 83.132 254.929 82.9113 253.966L81.4399 248.707C80.4835 245.152 79.6007 241.671 78.7179 238.041C77.2465 231.153 75.8487 223.969 74.8188 216.71Z" fill="black"/>
<path d="M98.802 290.332C97.8456 291.443 96.9628 292.554 96.08 293.665C95.1972 294.776 94.2408 295.813 93.2844 296.85C92.328 297.887 91.3716 298.924 90.4152 299.961C89.4589 300.998 88.4289 301.961 87.3989 303.072C88.7232 302.553 90.0474 301.739 91.1509 300.85C92.328 299.961 93.4315 298.998 94.3879 297.887C95.3443 296.776 96.2271 295.591 96.9628 294.332C97.7721 293.073 98.3606 291.74 98.802 290.332Z" fill="black"/>
<path d="M98.4342 298.924C97.1099 300.628 95.9328 302.405 94.5351 304.035C93.8729 304.849 93.1373 305.59 92.328 306.257C91.5188 306.923 90.7095 307.59 89.8267 308.331C89.606 308.553 89.3853 308.701 89.2381 308.923C89.1646 308.997 89.0174 309.145 88.8703 309.294C88.7232 309.442 88.6496 309.664 88.576 309.96C88.5025 310.256 88.6496 310.775 88.9439 310.923C89.2381 311.145 89.3853 311.219 89.5324 311.219C89.9003 311.293 90.2681 311.367 90.5624 311.367C91.2245 311.293 91.7395 311.145 92.2544 310.997C92.4751 310.923 92.7694 310.849 92.9166 310.849C92.9901 310.849 93.0637 310.849 93.0637 310.849C93.0637 310.849 92.9901 310.775 93.0637 310.775C93.0637 310.775 93.1373 310.923 93.0637 311.071C92.9901 311.219 92.843 311.367 92.6223 311.59C92.2544 311.96 91.8866 312.404 91.5188 312.775C90.7831 313.589 90.0474 314.33 89.2381 315.071C90.1945 314.552 91.1509 313.96 92.0337 313.367C92.4751 313.071 92.9166 312.701 93.2844 312.33C93.5051 312.182 93.7258 311.96 93.9465 311.664C94.1672 311.367 94.3143 310.849 94.0936 310.405C94.0201 310.182 93.7994 309.886 93.5051 309.812C93.2108 309.664 92.9901 309.664 92.843 309.738C92.4751 309.738 92.2544 309.812 91.9602 309.886C91.4452 309.96 90.9302 310.108 90.4888 310.108C90.2681 310.108 90.121 310.108 89.9003 310.034C89.8267 310.034 89.7531 309.96 89.8267 310.034C89.9003 310.108 89.9738 310.256 89.9003 310.33C89.8267 310.405 90.3417 309.886 90.7095 309.59C91.4452 308.849 92.328 308.257 93.1373 307.442C93.9465 306.627 94.6822 305.812 95.2707 304.924C96.6685 302.924 97.6249 300.998 98.4342 298.924Z" fill="black"/>
<path d="M60.1052 303.294C59.3695 307.368 58.7809 311.516 58.1924 315.589L57.3096 321.737C57.1624 322.774 57.0153 323.959 57.4567 325.144C57.8981 326.255 58.6338 327.144 59.2959 327.884C59.958 328.699 60.5466 329.44 60.6937 330.254C60.6937 330.477 60.7673 330.625 60.7673 330.847C60.7673 331.069 60.6937 331.143 60.7673 331.069L60.8408 330.995C60.8408 330.995 60.8408 330.995 60.7673 330.995C60.6201 330.995 60.473 330.847 60.3259 330.773C58.7074 329.662 57.1624 328.255 55.4704 326.996C54.6611 326.329 53.7047 325.736 52.8219 325.218C51.8655 324.699 50.8356 324.329 49.7321 324.107C48.6285 323.885 47.525 323.811 46.4215 323.959C45.318 324.107 44.2144 324.551 43.3316 325.218C43.1109 325.366 43.0374 325.736 43.1845 325.959C43.1845 326.033 43.2581 326.033 43.3316 326.107C44.803 327.218 46.3479 328.255 47.8193 329.366L48.04 328.625C46.3479 328.699 44.7294 328.995 43.1109 329.44C41.4924 329.884 39.9475 330.477 38.4761 331.217C40.0211 330.625 41.6396 330.18 43.2581 329.884C44.8766 329.588 46.4951 329.514 48.1136 329.514C48.3343 329.514 48.555 329.366 48.555 329.069C48.555 328.921 48.4814 328.847 48.4078 328.773C47.01 327.588 45.5387 326.477 44.0673 325.292V326.181C45.6122 325.144 47.6721 324.996 49.5113 325.514C51.4241 325.959 53.1162 326.995 54.6611 328.255C56.2796 329.44 57.8246 330.847 59.5902 332.032C59.8109 332.18 60.1052 332.402 60.473 332.476C60.6937 332.55 60.9144 332.551 61.1351 332.551C61.4294 332.551 61.7237 332.402 61.8708 332.18C62.3122 331.736 62.3122 331.291 62.3122 330.995C62.3122 330.699 62.3122 330.329 62.2386 330.032C61.9444 328.773 61.1351 327.884 60.473 327.07C59.8109 326.255 59.1488 325.514 58.8545 324.699C58.4867 323.885 58.5602 322.996 58.7074 321.959L59.2959 315.737C59.5166 311.59 59.8109 307.442 60.1052 303.294Z" fill="black"/>
<path d="M54.9554 63.0955C53.999 63.2437 53.0426 63.3177 52.1598 63.614C51.2034 63.9103 50.3942 64.5028 49.7321 65.2435C48.4814 66.7989 47.525 68.4283 46.5686 70.1319C45.6122 71.8354 44.803 73.5389 44.0673 75.3906C43.3316 77.1682 42.6695 79.0199 42.1545 80.8716C42.081 81.2419 42.2281 81.6122 42.596 81.6863C42.7431 81.7604 42.8902 81.7604 42.9638 81.6863L50.247 79.4643C50.6149 79.3162 51.0563 79.2421 51.4241 79.168L51.6448 79.094C51.5713 79.094 51.4977 79.0939 51.3506 79.0199C51.1298 78.9458 50.9827 78.6496 50.9827 78.5755C51.0563 78.6496 51.0563 78.7236 51.1299 78.7977C51.2034 78.8717 51.277 78.9458 51.277 78.9458L51.3506 79.0199L51.792 79.4643C54.2933 81.7604 56.8682 84.0564 59.3695 86.2784C59.6638 86.5006 60.0316 86.5006 60.2523 86.2044C60.3994 86.0562 60.473 85.76 60.3994 85.6118C59.443 82.3529 58.4867 79.094 57.5303 75.835L56.2061 70.9466L54.8818 65.9841C55.1025 67.6877 55.3968 69.3171 55.6911 71.0207C55.9853 72.7242 56.2796 74.3537 56.6475 76.0572C57.3831 79.3902 58.1924 82.7232 59.0752 85.9822L60.1052 85.3156L52.6012 78.4273L52.1598 77.983V78.057C52.1598 77.983 51.9391 77.6867 51.7184 77.6126C51.5713 77.5386 51.4977 77.5385 51.4241 77.5385H51.277C51.0563 77.5385 50.9827 77.6126 50.9092 77.6126C50.4677 77.7608 50.0999 77.8348 49.6585 77.983L47.2307 78.7236C45.6122 79.2421 43.9937 79.7605 42.3752 80.279L43.2581 81.0938C43.773 79.2421 44.3616 77.4645 45.0237 75.6869C45.6858 73.9093 46.4215 72.1317 47.2307 70.4281C47.6722 69.5393 48.04 68.7246 48.555 67.9099C48.9964 67.0951 49.4378 66.2063 50.0263 65.4657C50.5413 64.725 51.277 64.1325 52.1598 63.7621C53.1162 63.5399 54.0726 63.3177 54.9554 63.0955Z" fill="#174075"/>
<path d="M74.3774 62.7252C76.2901 63.2437 78.2029 63.7621 79.8214 64.725C81.5135 65.6879 82.7642 67.1692 83.7941 68.7987C84.8241 70.4281 85.7804 72.1317 86.7368 73.9093C87.6196 75.6869 88.5025 77.3904 89.3853 79.168L90.1945 78.1311C88.7967 77.6867 87.3989 77.2423 86.0747 76.7238C85.4126 76.4275 84.7505 76.1313 84.0884 75.835C83.7205 75.6869 83.3527 75.5387 82.9113 75.3906C82.4699 75.2425 81.9549 75.2425 81.4399 75.3906C80.9249 75.5387 80.5571 75.835 80.2628 76.0572C79.9686 76.2794 79.6743 76.5757 79.38 76.8719C78.7915 77.3904 78.3501 78.057 77.8351 78.6496C76.9523 79.9087 76.2902 81.39 75.9959 82.9454H76.9523C76.3637 81.1678 75.8487 79.4643 75.1866 77.7607L73.3474 72.5761C73.7153 74.3537 74.1567 76.1313 74.5981 77.9089C75.0395 79.6865 75.5545 81.4641 75.9223 83.1676C75.9959 83.4639 76.2166 83.612 76.5109 83.538C76.658 83.4639 76.8051 83.3898 76.8787 83.1676C77.2465 81.8344 77.9087 80.5012 78.7915 79.3902C79.2329 78.7977 79.6743 78.2792 80.1893 77.8348C80.7042 77.3904 81.2928 76.8719 81.7342 76.7979C82.1756 76.7238 82.7641 76.8719 83.4263 77.1682C84.0884 77.4645 84.7505 77.8348 85.4862 78.1311C86.884 78.7236 88.2818 79.2421 89.7531 79.6124C90.121 79.6865 90.5624 79.4643 90.6359 79.0939C90.7095 78.9458 90.6359 78.7236 90.5624 78.5755C89.6796 76.7979 88.7967 75.0203 87.7668 73.3167C86.8104 71.5391 85.7804 69.8356 84.5298 68.2061C83.3527 66.5767 81.8078 65.0953 79.9686 64.2065C78.2765 63.3177 76.2901 62.9474 74.3774 62.7252Z" fill="#174075"/>
</g>
<defs>
<linearGradient id="paint0_linear_2987_12976" x1="136.074" y1="175.946" x2="-0.0793568" y2="175.946" gradientUnits="userSpaceOnUse">
<stop stop-color="#0ABBEF"/>
<stop offset="0.2385" stop-color="#0D9BCF"/>
<stop offset="0.756" stop-color="#145A8E"/>
<stop offset="1" stop-color="#174075"/>
</linearGradient>
</defs>
</svg>
