<svg width="110" height="387" viewBox="0 0 110 387" fill="none" xmlns="http://www.w3.org/2000/svg">
<g clip-path="url(#clip0_2987_12981)">
<rect width="110" height="387" fill="#E2E2E2"/>
<path d="M98.1749 51.5058L68.8508 51.4824C69.3851 47.1018 69.5213 42.7208 69.5246 38.4724C69.528 34.2241 69.3987 29.9756 68.8713 25.7269L92.8879 25.746L118.762 25.501L144.637 25.2561L118.763 24.97L100.85 24.9557C101.384 20.7078 101.52 16.5924 101.523 12.4768C101.526 8.36119 101.397 4.2455 100.87 0.129498C100.336 4.24466 100.2 8.36014 100.196 12.4757C100.193 16.5913 100.322 20.707 100.85 24.823L93.0213 24.8168L43.7942 24.5121C44.3281 20.5297 44.4641 16.4142 44.4672 12.4314C44.4705 8.31581 44.3411 4.20012 43.8136 0.0841155C43.2796 4.19927 43.1436 8.31476 43.1403 12.4303C43.1372 16.4132 43.2666 20.5288 43.7942 24.5121L41.4058 24.5102L-10.2101 24.6019L-36.0843 24.5813C-36.0844 24.7141 -61.9589 25.0918 -61.9589 25.0918L-36.0849 25.3779L-10.2107 25.3985C-10.2108 25.5312 41.4047 25.8378 41.4047 25.8378L69.0039 25.8597C68.4699 29.9749 68.3338 34.2231 68.3304 38.4715C68.327 42.7198 68.4562 47.101 68.9836 51.3498L62.3492 51.3445L26.3907 51.3159C14.4488 51.3064 2.37387 51.5623 -9.56828 51.8184C2.37345 52.0934 14.448 52.2357 26.3899 52.378L43.3739 52.3915C42.8399 56.5067 42.7041 60.4894 42.7008 64.605C42.6975 68.7206 42.8269 72.8362 43.3544 76.9522C43.8884 72.8371 44.0244 68.7216 44.0277 64.606C44.0308 60.6232 43.9014 56.5075 43.3738 52.5243L62.3482 52.5394L98.3067 52.568L100.828 52.57C100.294 56.5524 100.158 60.6679 100.155 64.6507C100.152 68.7663 100.281 72.8819 100.808 76.9979C101.342 72.8828 101.478 68.7673 101.482 64.6517C101.485 60.6689 101.355 56.5532 100.828 52.57L116.352 52.5823C116.352 52.4496 134.398 52.0656 134.398 52.0656L116.353 51.7858L98.3074 51.7714L98.1749 51.5058Z" fill="#BFBAB8"/>
<path d="M98.1749 103.506L68.8508 103.482C69.3851 99.1018 69.5213 94.7208 69.5246 90.4724C69.528 86.2241 69.3987 81.9756 68.8713 77.7269L92.8879 77.746L118.762 77.501L144.637 77.2561L118.763 76.97L100.85 76.9557C101.384 72.7078 101.52 68.5924 101.523 64.4768C101.526 60.3612 101.397 56.2455 100.87 52.1295C100.336 56.2447 100.2 60.3601 100.196 64.4757C100.193 68.5913 100.322 72.707 100.85 76.823L93.0213 76.8168L43.7942 76.5121C44.3281 72.5297 44.4641 68.4142 44.4672 64.4314C44.4705 60.3158 44.3411 56.2001 43.8136 52.0841C43.2796 56.1993 43.1436 60.3148 43.1403 64.4303C43.1372 68.4132 43.2666 72.5288 43.7942 76.5121L41.4058 76.5102L-10.2101 76.6019L-36.0843 76.5813C-36.0844 76.7141 -61.9589 77.0918 -61.9589 77.0918L-36.0849 77.3779L-10.2107 77.3985C-10.2108 77.5312 41.4047 77.8378 41.4047 77.8378L69.0039 77.8597C68.4699 81.9749 68.3338 86.2231 68.3304 90.4715C68.327 94.7198 68.4562 99.101 68.9836 103.35L62.3492 103.345L26.3907 103.316C14.4488 103.306 2.37387 103.562 -9.56828 103.818C2.37345 104.093 14.448 104.236 26.3899 104.378L43.3739 104.392C42.8399 108.507 42.7041 112.489 42.7008 116.605C42.6975 120.721 42.8269 124.836 43.3544 128.952C43.8884 124.837 44.0244 120.722 44.0277 116.606C44.0308 112.623 43.9014 108.508 43.3738 104.524L62.3482 104.539L98.3067 104.568L100.828 104.57C100.294 108.552 100.158 112.668 100.155 116.651C100.152 120.766 100.281 124.882 100.808 128.998C101.342 124.883 101.478 120.767 101.482 116.652C101.485 112.669 101.355 108.553 100.828 104.57L116.352 104.582C116.352 104.45 134.398 104.066 134.398 104.066L116.353 103.786L98.3074 103.771L98.1749 103.506Z" fill="#BFBAB8"/>
<path d="M98.1749 295.506L68.8508 295.482C69.3851 291.102 69.5213 286.721 69.5246 282.472C69.528 278.224 69.3987 273.976 68.8713 269.727L92.8879 269.746L118.762 269.501L144.637 269.256L118.763 268.97L100.85 268.956C101.384 264.708 101.52 260.592 101.523 256.477C101.526 252.361 101.397 248.246 100.87 244.129C100.336 248.245 100.2 252.36 100.196 256.476C100.193 260.591 100.322 264.707 100.85 268.823L93.0213 268.817L43.7942 268.512C44.3281 264.53 44.4641 260.414 44.4672 256.431C44.4705 252.316 44.3411 248.2 43.8136 244.084C43.2796 248.199 43.1436 252.315 43.1403 256.43C43.1372 260.413 43.2666 264.529 43.7942 268.512L41.4058 268.51L-10.2101 268.602L-36.0843 268.581C-36.0844 268.714 -61.9589 269.092 -61.9589 269.092L-36.0849 269.378L-10.2107 269.398C-10.2108 269.531 41.4047 269.838 41.4047 269.838L69.0039 269.86C68.4699 273.975 68.3338 278.223 68.3304 282.471C68.327 286.72 68.4562 291.101 68.9836 295.35L62.3492 295.345L26.3907 295.316C14.4488 295.306 2.37387 295.562 -9.56828 295.818C2.37345 296.093 14.448 296.236 26.3899 296.378L43.3739 296.392C42.8399 300.507 42.7041 304.489 42.7008 308.605C42.6975 312.721 42.8269 316.836 43.3544 320.952C43.8884 316.837 44.0244 312.722 44.0277 308.606C44.0308 304.623 43.9014 300.508 43.3738 296.524L62.3482 296.539L98.3067 296.568L100.828 296.57C100.294 300.552 100.158 304.668 100.155 308.651C100.152 312.766 100.281 316.882 100.808 320.998C101.342 316.883 101.478 312.767 101.482 308.652C101.485 304.669 101.355 300.553 100.828 296.57L116.352 296.582C116.352 296.45 134.398 296.066 134.398 296.066L116.353 295.786L98.3074 295.771L98.1749 295.506Z" fill="#BFBAB8"/>
<path d="M63.1749 372.506L33.8508 372.482C34.3851 368.102 34.5213 363.721 34.5246 359.472C34.528 355.224 34.3987 350.976 33.8713 346.727L57.8879 346.746L83.7623 346.501L109.637 346.256L83.7627 345.97L65.8498 345.956C66.3839 341.708 66.5199 337.592 66.5232 333.477C66.5265 329.361 66.397 325.246 65.8696 321.129C65.3355 325.245 65.1996 329.36 65.1963 333.476C65.193 337.591 65.3224 341.707 65.8499 345.823L58.0213 345.817L8.79417 345.512C9.32809 341.53 9.46405 337.414 9.46722 333.431C9.4705 329.316 9.34108 325.2 8.8136 321.084C8.27957 325.199 8.14361 329.315 8.14034 333.43C8.13717 337.413 8.26659 341.529 8.79417 345.512L6.4058 345.51L-45.2101 345.602L-71.0843 345.581C-71.0844 345.714 -96.9589 346.092 -96.9589 346.092L-71.0849 346.378L-45.2107 346.398C-45.2108 346.531 6.40474 346.838 6.40474 346.838L34.0039 346.86C33.4699 350.975 33.3338 355.223 33.3304 359.471C33.327 363.72 33.4562 368.101 33.9836 372.35L27.3492 372.345L-8.60929 372.316C-20.5512 372.306 -32.6261 372.562 -44.5683 372.818C-32.6265 373.093 -20.552 373.236 -8.61014 373.378L8.37395 373.392C7.83992 377.507 7.70406 381.489 7.70079 385.605C7.69752 389.721 7.82693 393.836 8.35441 397.952C8.88844 393.837 9.0244 389.722 9.02767 385.606C9.03084 381.623 8.90143 377.508 8.37384 373.524L27.3482 373.539L63.3067 373.568L65.8278 373.57C65.2939 377.552 65.158 381.668 65.1548 385.651C65.1515 389.766 65.2809 393.882 65.8084 397.998C66.3424 393.883 66.4784 389.767 66.4817 385.652C66.4848 381.669 66.3554 377.553 65.8278 373.57L81.3524 373.582C81.3525 373.45 99.3984 373.066 99.3984 373.066L81.353 372.786L63.3074 372.771L63.1749 372.506Z" fill="#BFBAB8"/>
<path d="M49.55 32.2498L20.7965 31.9273L20.3738 31.924L19.489 98.8477C19.489 98.8477 18.0277 105.419 20.9264 108.419C23.825 111.42 26.0744 112.891 26.0744 112.891L57.1069 114.153L78.4245 112.954L80.1651 77.9188L80.7928 34.4582L52.5976 21.4239L48.5468 20.9583L20.3016 22.5464L20.7247 30.458" fill="white"/>
<path d="M23.1052 31.7541C22.254 52.7427 22.1789 73.7581 22.8825 94.7514C22.9991 98.1736 23.1409 101.659 24.2707 104.895C25.4005 108.13 29.306 111.599 32.5197 112.783C30.0115 113.26 25.5452 113.208 23.4785 111.71C22.0724 110.689 20.5651 108.64 20.1989 106.944C18.8414 100.623 19.1307 94.0145 19.6869 87.2395L20.3736 31.9185L23.4936 31.7268" fill="#0ABBEF"/>
<path d="M43.655 21.0546C34.3411 20.717 25.0254 20.4445 15.7085 20.248C15.5294 20.2418 15.3242 20.2533 15.2073 20.3899C15.1156 20.4925 15.1079 20.6446 15.1101 20.7799C15.124 22.7616 16.2292 24.5953 17.6092 26.0182C18.2186 26.6447 18.9008 27.2185 19.6957 27.58C20.8294 28.0904 22.1104 28.1376 23.3524 28.1653C24.4695 28.1891 25.5918 28.2073 26.7135 28.2146C25.5749 26.7511 24.5662 25.1883 23.6994 23.547C29.5849 23.2161 35.4645 22.8747 41.3497 22.5384C44.7244 22.3486 48.131 22.1463 51.3846 21.2484" fill="#0ABBEF"/>
<path d="M45.851 41.8015L45.2474 40.4108C41.2144 39.5867 37.1139 39.1023 33.0057 38.9649C30.9001 38.8937 28.7297 38.9237 26.7881 39.7478C24.8465 40.572 23.181 42.3556 23.099 44.4619C23.0751 45.097 23.1983 45.7455 23.5214 46.2907C24.2872 47.5801 25.9467 48.0014 27.4432 48.1231C28.8688 48.2379 30.3015 48.1899 31.7273 48.1151C35.1461 47.9392 38.5517 47.6231 41.9443 47.1724C38.89 46.992 35.8303 46.8119 32.776 46.6316C32.411 46.885 31.9492 47.0518 31.393 47.0831C30.9664 47.1071 30.5893 47.047 30.2572 46.9195C30.1021 46.9553 29.9356 46.9809 29.7628 46.9906C26.2801 47.1864 25.9873 41.7862 29.4592 41.591C29.7886 41.5725 30.0883 41.6044 30.3632 41.6756C30.6157 41.6397 30.8746 41.6198 31.1233 41.6112C36.0132 41.3958 40.9172 42.393 45.7875 41.9242C45.9117 41.9172 45.8548 41.6767 45.8453 41.7964L45.851 41.8015Z" fill="#0ABBEF"/>
<path d="M67.9573 53.862C55.2043 51.7028 42.1545 52.6477 29.2443 51.8353C28.2984 51.7747 27.4835 52.503 27.4448 53.4531C27.3033 57.1986 27.178 60.9431 27.0635 64.687C27.0321 65.6692 27.8465 66.4738 28.8295 66.424C41.5312 65.8398 54.2168 64.9695 66.8813 63.8187" fill="#0ABBEF"/>
<path d="M38.4012 101.993C38.4129 101.045 38.2178 99.9833 37.4399 99.442C37.0173 99.1516 36.4868 99.0623 35.9775 99.0584C35.4303 99.0567 34.8619 99.1591 34.4196 99.4818C33.9875 99.7932 33.7125 100.296 33.6231 100.827C33.5338 101.357 33.6238 101.899 33.8198 102.397C34.123 103.166 34.7252 103.858 35.5275 104.062C35.2351 103.677 34.9669 103.243 34.9345 102.762C34.8839 102.056 35.3925 101.372 36.0613 101.128C36.7301 100.885 37.5084 101.047 38.0841 101.459" fill="#0ABBEF"/>
<path d="M46.5641 102.076C46.2897 101.723 45.9985 101.36 45.5883 101.194C45.0839 100.989 44.4693 101.138 44.0618 101.502C43.6544 101.866 43.4304 102.409 43.3851 102.954C43.3438 103.471 43.5137 104.084 44.0052 104.251C43.2373 103.986 42.7467 103.255 42.3073 102.57C42.1647 102.345 42.016 102.11 41.9688 101.847C41.8613 101.284 42.2101 100.745 42.5869 100.317C42.9029 99.9636 43.2635 99.6346 43.7023 99.442C44.4901 99.0998 45.4709 99.2993 46.0947 99.8925C46.7185 100.486 46.9768 101.419 46.7802 102.259" fill="#0ABBEF"/>
<path d="M33.6168 106.097C33.2173 105.735 32.7095 105.471 32.1659 105.436C31.6223 105.402 31.06 105.612 30.7321 106.042C30.2174 106.716 30.4143 107.712 30.8612 108.435C30.4377 108.226 30.023 107.978 29.6901 107.645C29.3572 107.311 29.1154 106.865 29.089 106.395C29.0674 106.011 29.1926 105.636 29.3741 105.301C29.8859 104.384 30.9504 103.761 31.9882 103.914C33.026 104.066 33.9062 105.079 33.7806 106.12" fill="#0ABBEF"/>
<path d="M42.1101 106.383C41.7243 105.88 41.1253 105.534 40.4914 105.532C39.8575 105.53 39.2227 105.896 38.9738 106.478C38.6862 107.145 38.9358 107.921 39.2962 108.551C38.8086 108.454 38.4795 107.996 38.2437 107.56C37.9782 107.076 37.752 106.52 37.8845 105.987C38.0036 105.504 38.3948 105.141 38.7894 104.837C39.3345 104.416 39.9525 104.04 40.6368 103.975C41.321 103.909 42.0862 104.223 42.3548 104.858C42.5233 105.255 42.4837 105.707 42.3991 106.129" fill="#0ABBEF"/>
<path d="M50.612 107.216C50.9633 106.335 50.6743 105.241 49.9314 104.649C49.1886 104.057 48.0549 104.029 47.2786 104.576C46.5023 105.124 46.1511 106.2 46.4562 107.098C46.6639 107.709 47.1247 108.198 47.6092 108.626C47.2782 108.038 47.0416 107.298 47.3601 106.7C47.4871 106.455 47.6985 106.264 47.9282 106.111C48.3981 105.797 48.9847 105.634 49.5287 105.771C50.0727 105.909 50.5389 106.397 50.5543 106.96" fill="#0ABBEF"/>
<path d="M51.9421 103.994C51.5419 103.524 51.3695 102.867 51.5092 102.269C51.6489 101.671 52.1181 101.151 52.7041 100.978C53.2902 100.804 53.9836 100.998 54.373 101.469C54.7855 101.966 54.8352 102.656 54.8659 103.299C55.0002 102.799 55.134 102.287 55.1373 101.767C55.1405 101.247 54.9961 100.703 54.6446 100.327C54.4315 100.101 54.1518 99.9429 53.8589 99.8402C52.7823 99.4783 51.5032 99.9456 50.8459 100.876C50.6155 101.209 50.448 101.603 50.4816 102.007C50.5288 102.655 51.0496 103.151 51.5344 103.584" fill="#0ABBEF"/>
<path d="M60.823 101.35C59.9352 101.649 59.4008 102.741 59.7157 103.622C59.2469 103.183 59.1045 102.481 59.1551 101.839C59.2206 101.077 59.5512 100.311 60.159 99.8489C60.9485 99.2466 62.1584 99.2815 62.9097 99.9271C63.661 100.573 63.89 101.757 63.4193 102.634C63.0441 101.837 62.0808 101.371 61.2197 101.566" fill="#0ABBEF"/>
<path d="M58.7647 106.839C59.0571 106.259 58.9231 105.514 58.495 105.029C58.0669 104.544 57.3875 104.311 56.7411 104.375C56.0947 104.438 55.4958 104.77 55.0449 105.228C54.5125 105.778 54.1672 106.572 54.3552 107.315C54.5152 107.945 55.0474 108.451 55.6703 108.644C55.188 107.869 55.4272 106.729 56.1781 106.21C56.9289 105.691 58.0765 105.87 58.6316 106.592" fill="#0ABBEF"/>
<path d="M67.038 106.889C66.5779 106.124 65.478 105.828 64.695 106.257C63.912 106.685 63.5726 107.777 63.9694 108.572C63.4815 108.372 63.1305 107.91 62.9882 107.403C62.846 106.897 62.8912 106.353 63.0304 105.841C63.1028 105.588 63.1969 105.333 63.3641 105.129C63.5467 104.907 63.7985 104.763 64.0514 104.635C64.4937 104.41 64.9753 104.21 65.4754 104.241C66.1168 104.281 66.6937 104.714 67.0124 105.276C67.3124 105.795 67.4124 106.418 67.2937 107.004" fill="#0ABBEF"/>
<path d="M82.9597 31.4818L81.7889 104.207L81.6625 112.073C81.6352 113.9 80.1302 115.361 78.2979 115.334L33.7978 114.618L31.4285 114.578C29.2217 114.54 27.1562 113.93 25.3748 112.882L73.5237 113.657C75.3563 113.69 76.8613 112.229 76.8937 110.397L78.1616 31.4049L82.9597 31.4818Z" fill="url(#paint0_linear_2987_12981)"/>
<path d="M51.1677 28.7574L81.1056 29.2408C85.3886 29.3088 88.9124 25.8932 88.9806 21.6156L51.29 21.0101L51.168 28.7628L51.1677 28.7574Z" fill="white"/>
<path d="M88.9769 21.3557L88.9391 21.3578L88.8629 21.3512L88.7054 21.3438L86.2133 21.2402C84.5516 21.1657 82.8903 21.0966 81.2298 21.0437C77.9079 20.9217 74.5786 20.8598 71.2583 20.7648C64.884 20.5923 58.5147 20.6038 52.137 20.659C45.7687 20.3996 39.3974 20.1836 33.0202 20.1522C29.6936 20.1388 26.3706 20.0927 23.0405 20.112C21.3773 20.108 19.7154 20.1256 18.0484 20.1489L15.5525 20.1701L15.3959 20.1789L15.3197 20.1724L15.2819 20.1745C15.5074 19.9451 14.9524 20.4801 15.0094 20.4336L15.0285 20.7737C15.0461 20.9894 15.0363 21.2012 15.0809 21.4154L15.1815 22.0489L15.3463 22.6679C16.0067 25.0683 17.8649 27.0005 20.1433 27.9286C19.7752 27.9331 19.4071 27.9375 19.0337 27.9423L19.0175 27.9432C18.8606 27.9466 18.7323 28.073 18.736 28.2353L18.7629 30.4492L18.7635 30.46C18.7651 30.5845 18.8684 30.687 18.9929 30.6854C19.2743 30.6804 19.5617 30.6859 19.8434 30.6863C19.5039 48.927 19.2569 67.1734 19.0584 85.417L18.9317 99.1553C18.9316 100.309 18.8915 101.427 18.9199 102.606C18.9642 103.779 19.1707 104.949 19.5369 106.065C20.2583 108.3 21.6282 110.314 23.4244 111.816C23.9475 112.258 24.5169 112.654 25.1054 113.005C25.1303 113.063 25.1654 113.11 25.227 113.145C26.5093 113.89 27.9301 114.401 29.3849 114.65C30.1122 114.771 30.858 114.838 31.589 114.834L33.7622 114.853L42.4502 114.944C45.0955 114.98 47.7354 115.015 50.3807 115.051L64.0949 115.325L67.5283 115.408L69.2479 115.453C69.5991 115.438 69.957 115.445 70.3137 115.431L77.2081 115.606L78.2929 115.632C78.6886 115.637 79.0866 115.587 79.4645 115.469C80.2261 115.236 80.8968 114.738 81.3587 114.089C81.8154 113.446 82.0497 112.604 82.0291 111.852L82.0859 109.682L82.2164 104.296C82.2471 104.073 82.2725 103.849 82.2763 103.627C82.3347 103.028 82.3298 102.459 82.3408 101.884L82.3738 100.16L82.616 86.3556C82.8429 68.04 83.0152 49.7166 83.0632 31.6873C83.6872 31.7064 84.3109 31.72 84.9355 31.7499C85.0603 31.7537 85.1685 31.6556 85.1723 31.5308L85.1717 31.52L85.2692 29.3045C85.2766 29.147 85.1553 29.013 84.9978 29.0056L84.9816 29.0065C84.612 28.984 84.243 28.9722 83.8737 28.955C86.1765 28.0997 88.0973 26.2313 88.8354 23.8498L89.0174 23.233L89.1391 22.6032C89.187 22.3947 89.191 22.1778 89.2116 21.9654L89.2423 21.6441L89.241 21.6225C89.3032 21.6677 88.7631 21.1185 88.982 21.3499L88.9769 21.3557ZM51.6143 21.3817C51.782 21.3777 51.95 21.3791 52.118 21.3805C52.2863 21.3873 52.4546 21.3941 52.6229 21.4009C52.6431 22.5318 52.6583 23.6685 52.6908 24.8258L52.7866 28.5525C52.5271 28.5616 52.2619 28.5657 52.0022 28.5695C51.7412 28.5517 51.4805 28.5392 51.2144 28.5271L51.4333 24.8098C51.5036 23.6521 51.5592 22.5223 51.6149 21.3925L51.6143 21.3817ZM18.3812 26.549C17.0902 25.5545 16.1644 24.1169 15.7464 22.5588L15.6209 21.9646L15.5545 21.3617C15.5217 21.1631 15.5374 20.9618 15.5313 20.7563L15.5277 20.6915L15.5493 20.6903L18.0413 20.7939C19.703 20.8684 21.3644 20.9375 23.0249 20.9904C26.3467 21.1124 29.676 21.1744 32.9964 21.2693C38.98 21.4313 44.9708 21.4303 50.9591 21.3861C50.9779 22.5875 50.991 23.7839 51.0248 24.9628L51.1217 28.5161C48.8774 28.3877 46.6337 28.2701 44.3915 28.1795C41.5742 28.0725 38.7582 27.987 35.944 27.934C33.1298 27.881 30.3084 27.8934 27.4906 27.873C25.4483 27.8687 23.4071 27.886 21.3663 27.9086C21.0813 27.8488 20.796 27.7836 20.5202 27.6962C19.7425 27.4474 19.0316 27.0378 18.3812 26.549ZM20.1382 105.875C19.8075 104.81 19.6259 103.699 19.6012 102.584C19.5875 101.475 19.6407 100.302 19.6583 99.1686L19.9692 85.4308C20.3528 67.3013 20.6872 49.1638 20.9352 31.0312L36.0419 31.2164L51.6995 31.3761L59.1342 31.4293C59.2047 31.4308 59.2755 31.4376 59.346 31.4391C62.1524 31.5467 64.9802 31.6477 67.8469 31.6707C70.713 31.6829 73.5958 31.6075 76.4433 31.5774C76.9794 31.5743 77.5052 31.5827 78.0362 31.5853C77.8716 37.0383 77.712 42.4856 77.5854 47.9419L77.1885 64.485L76.8293 81.026L76.5406 97.5684L76.3992 105.842L76.3284 109.979C76.3213 110.142 76.3272 110.342 76.3186 110.478C76.3156 110.619 76.2911 110.761 76.2666 110.903C76.2065 111.183 76.108 111.454 75.9705 111.705C75.684 112.198 75.2526 112.618 74.7293 112.848C74.4705 112.965 74.1936 113.051 73.9084 113.083C73.7635 113.108 73.633 113.099 73.4656 113.108L72.9505 113.099L70.88 113.075L66.744 113.02L58.4721 112.911L25.385 112.583C24.8184 112.236 24.2763 111.844 23.77 111.412C22.0738 109.953 20.7945 108.01 20.1385 105.88L20.1382 105.875ZM69.2499 114.911L67.5321 114.899L64.0967 114.875L50.3562 114.711C50.0202 114.708 49.6893 114.7 49.3533 114.697C47.0542 114.653 44.7497 114.609 42.4508 114.57L33.7627 114.382L31.5932 114.33C30.8777 114.322 30.1748 114.248 29.4742 114.119C28.5052 113.935 27.5615 113.625 26.6664 113.215L58.4479 113.926L66.7171 114.084L70.8546 114.165L72.9207 114.206L73.398 114.217C72.5963 114.506 71.7682 114.71 70.9177 114.806C70.3655 114.908 69.8063 114.885 69.2448 114.916L69.2499 114.911ZM82.9168 31.6847C82.5868 43.349 82.2825 54.8928 82.0196 66.4017L81.6549 83.7121C81.5349 89.4768 81.4793 95.2324 81.3973 101L81.3776 103.731C81.3015 104.787 81.1432 105.825 80.7601 106.816C80.5949 107.345 80.3519 107.841 80.1204 108.347C79.8441 108.828 79.5904 109.324 79.2577 109.766C78.9535 110.232 78.5758 110.644 78.2206 111.07C77.8197 111.455 77.4417 111.861 76.995 112.2C76.995 112.2 76.995 112.2 76.9896 112.201C77.1711 111.865 77.308 111.506 77.3899 111.133C77.4276 110.936 77.4596 110.733 77.4645 110.533C77.48 110.326 77.4772 110.18 77.4831 109.995L77.5484 105.859L77.6737 97.5859L77.9135 81.0408L78.0827 64.4943L78.2196 47.9496C78.2652 42.4978 78.2835 37.0422 78.2909 31.5873C79.8407 31.5976 81.3859 31.6245 82.9273 31.6787L82.9168 31.6847ZM81.314 111.849C81.3423 112.546 81.1657 113.163 80.8013 113.714C80.4306 114.25 79.8912 114.675 79.2632 114.873C78.9494 114.977 78.627 115.023 78.297 115.03L77.2131 115.021L73.0028 114.992C73.4773 114.857 73.9452 114.701 74.4007 114.518C75.4924 114.089 76.5143 113.479 77.4375 112.75C77.9107 112.398 78.3259 111.979 78.7528 111.576C79.1395 111.132 79.5487 110.703 79.8786 110.213C80.2425 109.748 80.5217 109.223 80.8238 108.719C81.0032 108.346 81.1881 107.972 81.3507 107.59L81.3329 109.681L81.3197 111.854L81.314 111.849ZM88.7115 21.9339C88.6957 22.1352 88.7072 22.3404 88.6696 22.5375L88.5842 23.1381L88.4385 23.7259C87.973 25.2742 87.0011 26.6776 85.6734 27.6297C85.0116 28.0948 84.2808 28.488 83.4968 28.7054C83.2143 28.7863 82.9305 28.8456 82.6461 28.8941C80.6044 28.803 78.5683 28.7171 76.5283 28.6585C73.7129 28.5838 70.8959 28.4822 68.0772 28.4457C65.2585 28.4092 62.4413 28.3996 59.6257 28.4171C57.3788 28.4351 55.1331 28.4747 52.8886 28.5359L53.1007 24.9869C53.1755 23.8127 53.2275 22.6181 53.2846 21.4178C59.2672 21.6556 65.2527 21.8499 71.2398 21.8816C74.5664 21.895 77.8894 21.9411 81.2196 21.9218C82.8827 21.9258 84.5446 21.9082 86.2116 21.8849L88.7075 21.8637L88.7237 21.8628L88.722 21.9279L88.7115 21.9339Z" fill="black"/>
<path d="M33.9882 107.214C33.9733 108.2 33.1614 108.983 32.1748 108.968C31.1881 108.953 30.4058 108.141 30.4207 107.154C30.4357 106.168 31.2475 105.385 32.2342 105.4C33.2209 105.415 34.0032 106.227 33.9882 107.214Z" fill="white"/>
<path d="M42.3105 107.347C42.2956 108.334 41.4837 109.116 40.497 109.101C39.5104 109.086 38.7281 108.274 38.743 107.288C38.7579 106.301 39.5698 105.519 40.5565 105.534C41.5431 105.548 42.3254 106.36 42.3105 107.347Z" fill="white"/>
<path d="M50.6264 107.481C50.6115 108.467 49.7996 109.25 48.813 109.235C47.8263 109.22 47.044 108.408 47.0589 107.421C47.0739 106.434 47.8857 105.652 48.8724 105.667C49.8591 105.682 50.6414 106.494 50.6264 107.481Z" fill="white"/>
<path d="M58.9433 107.614C58.9284 108.601 58.1165 109.383 57.1299 109.368C56.1432 109.354 55.3609 108.542 55.3758 107.555C55.3908 106.568 56.2026 105.786 57.1893 105.801C58.1759 105.816 58.9583 106.628 58.9433 107.614Z" fill="white"/>
<path d="M67.2656 107.748C67.2506 108.734 66.4388 109.517 65.4521 109.502C64.4654 109.487 63.6831 108.675 63.6981 107.688C63.713 106.702 64.5249 105.919 65.5115 105.934C66.4982 105.949 67.2805 106.761 67.2656 107.748Z" fill="white"/>
<path d="M38.3725 102.628C38.3576 103.615 37.5457 104.397 36.5591 104.382C35.5724 104.367 34.7901 103.556 34.805 102.569C34.82 101.582 35.6318 100.8 36.6185 100.815C37.6051 100.83 38.3875 101.642 38.3725 102.628Z" fill="white"/>
<path d="M46.6978 102.714C46.6847 101.728 45.8752 100.94 44.8896 100.953C43.9041 100.966 43.1157 101.776 43.1287 102.761C43.1418 103.747 43.9513 104.535 44.9369 104.522C45.9224 104.509 46.7108 103.7 46.6978 102.714Z" fill="white"/>
<path d="M55.0112 102.895C54.9962 103.882 54.1844 104.664 53.1977 104.65C52.2111 104.635 51.4287 103.823 51.4437 102.836C51.4586 101.849 52.2705 101.067 53.2571 101.082C54.2438 101.097 55.0261 101.909 55.0112 102.895Z" fill="white"/>
<path d="M33.125 105.069C32.8567 104.921 32.5542 104.841 32.2446 104.826C31.6254 104.795 31.0083 105.09 30.6111 105.54C30.1971 105.981 30.0268 106.613 30.1277 107.155C30.2234 107.702 30.4712 108.159 30.8021 108.552C31.1215 108.935 31.5724 109.343 32.1727 109.423C32.7574 109.515 33.3962 109.219 33.6875 108.715C33.9895 108.21 34.0195 107.683 34.0474 107.216C34.0533 106.744 34.0344 106.214 33.7506 105.694C33.6064 105.442 33.3933 105.216 33.1304 105.068L33.125 105.069ZM33.2048 108.222C32.8287 108.373 32.5296 108.449 32.1817 108.523C31.8446 108.596 31.3736 108.601 31.0485 108.311C30.724 108.031 30.6052 107.556 30.7187 107.165C30.8321 106.774 31.065 106.484 31.3186 106.275C31.5942 106.07 31.9097 105.998 32.2229 105.98C32.5421 105.973 32.8547 106.042 33.2262 106.195C33.5977 106.347 33.9454 106.75 33.9334 107.211C33.9436 107.682 33.5754 108.071 33.2045 108.217L33.2048 108.222Z" fill="black"/>
<path d="M41.4419 105.202C41.1736 105.055 40.8711 104.975 40.5615 104.959C39.9423 104.929 39.3252 105.224 38.928 105.674C38.514 106.115 38.3437 106.747 38.4446 107.288C38.5403 107.836 38.7881 108.293 39.119 108.686C39.4384 109.069 39.8893 109.477 40.4896 109.557C41.0743 109.649 41.7131 109.353 42.0044 108.849C42.3064 108.344 42.3364 107.817 42.3643 107.35C42.3702 106.878 42.3513 106.348 42.0675 105.828C41.9233 105.576 41.7101 105.35 41.4473 105.202L41.4419 105.202ZM41.5271 108.356C41.151 108.507 40.8519 108.583 40.504 108.657C40.1666 108.725 39.6959 108.735 39.3708 108.444C39.0463 108.165 38.9275 107.689 39.041 107.298C39.1544 106.907 39.3873 106.618 39.6409 106.409C39.9165 106.204 40.232 106.132 40.5452 106.114C40.8644 106.107 41.177 106.176 41.5485 106.329C41.92 106.481 42.2676 106.884 42.2557 107.345C42.2659 107.816 41.8977 108.205 41.5268 108.35L41.5271 108.356Z" fill="black"/>
<path d="M49.7588 105.336C49.4905 105.189 49.188 105.108 48.8784 105.093C48.2592 105.063 47.6421 105.357 47.2449 105.808C46.8309 106.248 46.6606 106.881 46.7615 107.422C46.8572 107.969 47.105 108.426 47.4359 108.819C47.7553 109.202 48.2062 109.61 48.8065 109.69C49.3912 109.782 50.03 109.486 50.3213 108.982C50.6233 108.478 50.6533 107.951 50.6812 107.483C50.6871 107.012 50.6682 106.482 50.3843 105.962C50.2402 105.71 50.027 105.483 49.7642 105.336L49.7588 105.336ZM49.844 108.489C49.4679 108.64 49.1688 108.717 48.8209 108.79C48.4838 108.863 48.0128 108.868 47.6877 108.578C47.3632 108.298 47.2444 107.823 47.3578 107.432C47.4713 107.041 47.7042 106.751 47.9578 106.542C48.2334 106.337 48.5489 106.265 48.8621 106.248C49.1813 106.241 49.4939 106.31 49.8654 106.462C50.2369 106.615 50.5845 107.017 50.5725 107.479C50.5828 107.949 50.2146 108.338 49.8436 108.484L49.844 108.489Z" fill="black"/>
<path d="M58.7007 106.095C58.5566 105.843 58.3434 105.617 58.0805 105.469C57.8122 105.322 57.5098 105.241 57.2002 105.226C56.581 105.196 55.9638 105.491 55.5666 105.941C55.1527 106.381 54.9824 107.014 55.0832 107.555C55.179 108.102 55.4268 108.56 55.7576 108.953C56.0771 109.336 56.5279 109.744 57.1283 109.824C57.713 109.915 58.3518 109.619 58.643 109.115C58.9451 108.611 58.975 108.084 59.0029 107.617C59.0089 107.145 58.99 106.615 58.7061 106.095L58.7007 106.095ZM58.1657 108.622C57.7896 108.773 57.4906 108.85 57.1427 108.924C56.8052 108.991 56.3346 109.002 56.0095 108.711C55.685 108.431 55.5662 107.956 55.6796 107.565C55.7931 107.174 56.026 106.885 56.2796 106.675C56.5552 106.47 56.8707 106.398 57.1839 106.381C57.5031 106.374 57.8157 106.443 58.1872 106.595C58.5587 106.748 58.9063 107.151 58.8943 107.612C58.9045 108.082 58.5364 108.471 58.1654 108.617L58.1657 108.622Z" fill="black"/>
<path d="M38.1299 101.109C37.9858 100.858 37.7726 100.631 37.5097 100.483C37.2414 100.336 36.939 100.256 36.6294 100.24C36.0102 100.21 35.393 100.505 34.9958 100.955C34.5819 101.396 34.4116 102.028 34.5124 102.57C34.6082 103.117 34.856 103.574 35.1868 103.967C35.5063 104.35 35.9571 104.758 36.5575 104.838C37.1422 104.93 37.781 104.634 38.0722 104.13C38.3743 103.625 38.4042 103.098 38.4321 102.631C38.4381 102.159 38.4192 101.629 38.1353 101.109L38.1299 101.109ZM37.5949 103.637C37.2188 103.788 36.9198 103.864 36.5719 103.938C36.2344 104.006 35.7638 104.016 35.4387 103.725C35.1142 103.446 34.9954 102.97 35.1088 102.579C35.2223 102.188 35.4552 101.899 35.7088 101.69C35.9844 101.485 36.2999 101.413 36.6131 101.395C36.9323 101.388 37.2449 101.457 37.6164 101.61C37.9879 101.762 38.3355 102.165 38.3235 102.626C38.3337 103.097 37.9656 103.486 37.5946 103.631L37.5949 103.637Z" fill="black"/>
<path d="M46.4517 101.243C46.3075 100.991 46.0944 100.764 45.8315 100.617C45.5632 100.469 45.2608 100.389 44.9512 100.374C44.332 100.344 43.7148 100.638 43.3176 101.088C42.9036 101.529 42.7334 102.161 42.8342 102.703C42.93 103.25 43.1778 103.707 43.5086 104.1C43.8281 104.483 44.2789 104.891 44.8792 104.971C45.464 105.063 46.1028 104.767 46.394 104.263C46.6961 103.759 46.726 103.231 46.7539 102.764C46.7599 102.292 46.7409 101.763 46.4571 101.242L46.4517 101.243ZM45.9113 103.77C45.5352 103.921 45.2362 103.998 44.8882 104.071C44.5511 104.145 44.0801 104.149 43.7551 103.859C43.4306 103.579 43.3118 103.104 43.4252 102.713C43.5386 102.322 43.7715 102.033 44.0252 101.823C44.3007 101.618 44.6163 101.546 44.9295 101.529C45.2486 101.522 45.5613 101.591 45.9328 101.743C46.3042 101.896 46.6519 102.299 46.6399 102.76C46.6501 103.23 46.282 103.619 45.911 103.765L45.9113 103.77Z" fill="black"/>
<path d="M54.7681 101.376C54.6239 101.124 54.4108 100.898 54.1479 100.75C53.8796 100.603 53.5772 100.522 53.2676 100.507C52.6484 100.477 52.0312 100.772 51.634 101.222C51.22 101.662 51.0498 102.295 51.1506 102.836C51.2464 103.383 51.4942 103.841 51.825 104.234C52.1445 104.617 52.5953 105.025 53.1957 105.105C53.7804 105.196 54.4192 104.9 54.7104 104.397C55.0125 103.892 55.0424 103.365 55.0703 102.898C55.0763 102.426 55.0573 101.896 54.7735 101.376L54.7681 101.376ZM54.2277 103.904C53.8516 104.055 53.5526 104.131 53.2047 104.205C52.8672 104.273 52.3965 104.283 52.0715 103.992C51.747 103.713 51.6282 103.237 51.7416 102.846C51.855 102.455 52.0879 102.166 52.3416 101.957C52.6171 101.752 52.9327 101.68 53.2459 101.662C53.565 101.655 53.8777 101.724 54.2492 101.877C54.6206 102.029 54.9683 102.432 54.9563 102.893C54.9665 103.364 54.5984 103.753 54.2274 103.898L54.2277 103.904Z" fill="black"/>
<path d="M63.3335 103.029C63.3185 104.015 62.5067 104.798 61.52 104.783C60.5333 104.768 59.751 103.956 59.766 102.969C59.7809 101.983 60.5927 101.2 61.5794 101.215C62.5661 101.23 63.3484 102.042 63.3335 103.029Z" fill="white"/>
<path d="M67.0235 106.229C66.8793 105.977 66.6662 105.75 66.4033 105.603C66.135 105.455 65.8326 105.375 65.523 105.36C64.9038 105.329 64.2866 105.624 63.8894 106.074C63.4754 106.515 63.3051 107.147 63.406 107.689C63.5018 108.236 63.7496 108.693 64.0804 109.086C64.3998 109.469 64.8507 109.877 65.451 109.957C66.0358 110.049 66.6745 109.753 66.9658 109.249C67.2678 108.744 67.2978 108.217 67.3257 107.75C67.3317 107.278 67.3127 106.749 67.0289 106.228L67.0235 106.229ZM66.4831 108.756C66.107 108.907 65.808 108.984 65.46 109.057C65.1229 109.13 64.6519 109.135 64.3268 108.845C64.0024 108.565 63.8835 108.09 63.997 107.699C64.1104 107.308 64.3433 107.018 64.597 106.809C64.8725 106.604 65.1881 106.532 65.5012 106.515C65.8204 106.507 66.133 106.577 66.5045 106.729C66.876 106.881 67.2237 107.284 67.2117 107.746C67.2219 108.216 66.8538 108.605 66.4828 108.751L66.4831 108.756Z" fill="black"/>
<path d="M63.0855 101.51C62.9413 101.258 62.7282 101.032 62.4653 100.884C62.197 100.737 61.8946 100.656 61.585 100.641C60.9658 100.611 60.3486 100.906 59.9514 101.356C59.5374 101.796 59.3671 102.429 59.468 102.97C59.5638 103.517 59.8116 103.975 60.1424 104.368C60.4619 104.75 60.9127 105.158 61.513 105.238C62.0978 105.33 62.7366 105.034 63.0278 104.53C63.3299 104.026 63.3598 103.499 63.3877 103.031C63.3937 102.56 63.3747 102.03 63.0909 101.51L63.0855 101.51ZM62.5505 104.037C62.1744 104.188 61.8754 104.265 61.5274 104.338C61.1903 104.412 60.7193 104.416 60.3942 104.126C60.0698 103.846 59.951 103.371 60.0644 102.98C60.1778 102.589 60.4107 102.3 60.6644 102.09C60.9399 101.885 61.2555 101.813 61.5686 101.796C61.8878 101.789 62.2005 101.858 62.5719 102.01C62.9434 102.163 63.2911 102.566 63.2791 103.027C63.2893 103.497 62.9212 103.886 62.5502 104.032L62.5505 104.037Z" fill="black"/>
<path d="M73.4099 49.9749C69.7451 49.8234 66.0786 49.7371 62.4115 49.6399C58.7438 49.532 55.0769 49.4402 51.4123 49.3863C47.7463 49.3107 44.0775 49.2786 40.408 49.2358L29.4029 49.1666C29.3219 49.1712 29.2547 49.2291 29.2539 49.3104L29.2534 49.9767C29.2577 50.0523 29.3099 50.1143 29.3861 50.1209C33.0617 50.2717 36.7264 50.4232 40.4008 50.6499L51.4625 51.3388C55.1524 51.5539 58.8226 51.705 62.4883 51.8727C66.1479 52.0298 69.7902 52.1663 73.3937 52.2887L73.4507 50.0267C73.4507 50.0267 73.4321 49.9845 73.4105 49.9857L73.4099 49.9749Z" fill="black"/>
<path d="M41.534 47.0111L55.8654 18.862L81.4352 31.0581L72.6319 47.5105L41.534 47.0111Z" fill="url(#paint1_linear_2987_12981)"/>
<path d="M81.6098 30.6966L75.1569 27.7769C73.0008 26.8094 70.8645 25.8083 68.728 24.8017C64.4452 22.8109 60.2403 20.664 56.0256 18.5339C55.8527 18.4461 55.6452 18.5119 55.5571 18.6794L55.5472 18.6962C54.2867 21.0366 53.022 23.399 51.8183 25.785C50.6037 28.1716 49.4276 30.5669 48.2616 32.9508L44.8321 40.0661L41.4921 47.0409L56.8663 47.6498C59.4769 47.7414 62.0938 47.8488 64.7301 47.9173C67.3614 47.9914 69.9974 48.0545 72.6316 48.0851L72.637 48.0848C72.8431 48.0895 73.0425 47.9753 73.1453 47.78L77.4911 39.5244C78.9451 36.7723 80.3661 34.0111 81.7925 31.2497L81.7919 31.2389L81.8072 31.2218C81.8989 31.0216 81.8099 30.7883 81.6098 30.6966ZM76.5812 39.0447L72.296 46.934C69.8613 46.8867 67.4335 46.8661 64.9955 46.857C62.4489 46.843 59.8828 46.8682 57.305 46.8777L53.4661 46.9039L60.3189 43.1603L56.763 21.8236L59.195 42.0535L51.8359 46.9089L41.5755 46.982L49.1372 32.9178C50.3564 30.6122 51.5707 28.3176 52.7463 26.009C53.8791 23.8058 54.9564 21.5785 56.0327 19.3351C60.2335 21.2168 64.434 23.0932 68.5671 25.1195C70.6941 26.1483 72.8157 27.1773 74.9232 28.2451L80.8707 31.2311C79.4297 33.8309 77.9888 36.4306 76.5755 39.0396L76.5812 39.0447Z" fill="black"/>
<path d="M29.1687 53.5016L28.9897 64.6193L72.9952 65.3275L73.1742 54.2098L29.1687 53.5016Z" fill="white"/>
<path d="M73.1934 53.8384L73.1772 53.8393L62.1782 53.4936C58.5113 53.4018 54.8454 53.3263 51.176 53.2834L40.175 53.1923C36.5071 53.1765 32.84 53.1768 29.1691 53.2045L29.1583 53.2051C28.9957 53.2034 28.8677 53.3352 28.8714 53.4975L28.8808 59.0598L28.8305 64.6201C28.8303 64.7122 28.8993 64.7842 28.9914 64.7844C32.6669 64.8378 36.3478 64.9883 40.0552 65.1265C43.7571 65.2651 47.4858 65.3967 51.1762 65.4275C54.8667 65.4584 58.5569 65.4838 62.2011 65.4631L67.6543 65.4382L73.0345 65.3686L73.3102 59.866L73.5506 54.2192C73.5553 54.0131 73.3997 53.8485 73.1991 53.8435L73.1934 53.8384ZM72.9541 65.2864L67.3339 65.0391L61.7867 64.8364C58.0956 64.6972 54.4558 64.604 50.8109 64.5164C47.1713 64.4285 43.5646 64.4417 39.9312 64.4619C36.3574 64.484 32.757 64.5131 29.1517 64.4558L29.2762 59.0593L29.4518 53.8007C33.0184 53.9414 36.589 54.0548 40.1589 54.1574L51.1587 54.4219C54.8246 54.4974 58.4938 54.5349 62.1627 54.5669L72.8069 54.5752L72.8657 59.6689L72.9595 65.2861L72.9541 65.2864Z" fill="black"/>
<path d="M40.7072 56.1958L37.1437 56.2065C36.9862 56.1991 36.8794 56.3243 36.8714 56.471C36.8124 58.3106 36.7827 60.1918 36.769 62.0668C36.7667 62.2186 36.8871 62.3364 37.0388 62.3387C37.2014 62.3404 37.3085 62.2206 37.3108 62.0688C37.3192 60.2917 37.354 58.5022 37.4017 56.7499L40.4454 56.7413C40.5215 58.4812 40.5557 60.2451 40.5515 62.0003C40.5492 62.1521 40.6696 62.27 40.8214 62.2723C40.8214 62.2723 40.8322 62.2716 40.8376 62.2713C40.9779 62.2634 41.0904 62.1434 41.0933 62.0024C41.0977 60.1551 41.0578 58.2886 40.9768 56.4623C40.9686 56.3165 40.8485 56.2041 40.7078 56.2066L40.7072 56.1958Z" fill="black"/>
<path d="M45.3482 56.1783C44.6328 56.1698 43.9562 56.4679 43.4457 57.022C42.9403 57.5704 42.6561 58.2959 42.6458 59.0765C42.6355 59.8571 42.8937 60.5955 43.3803 61.1586C43.8727 61.7267 44.541 62.052 45.2565 62.0606C45.3159 62.0572 45.3756 62.0593 45.4295 62.0563C46.8172 61.9782 47.9327 60.7184 47.9589 59.1624C47.9869 57.5412 46.8122 56.2044 45.3482 56.1783ZM45.2639 61.5185C44.7056 61.512 44.182 61.2543 43.7884 60.8052C43.3888 60.3456 43.1757 59.7346 43.1882 59.0894C43.2006 58.4441 43.4321 57.8407 43.8455 57.3895C44.2181 56.984 44.6979 56.7512 45.2055 56.7226C45.2487 56.7202 45.2973 56.7175 45.3405 56.715C46.5063 56.7362 47.4397 57.8266 47.4165 59.1495C47.3934 60.4725 46.4192 61.5456 45.2582 61.5134L45.2639 61.5185Z" fill="black"/>
<path d="M52.5606 56.5204C52.4142 56.5178 52.2853 56.6334 52.283 56.7852C52.2575 57.7779 52.2105 58.7718 52.1527 59.7663C52.1371 59.778 52.1212 59.7843 52.111 59.7957C52.0393 59.8701 51.8437 59.8595 51.7354 59.8601C51.3665 59.8484 50.9813 59.8375 50.6386 59.716C50.3016 59.5995 50.045 59.3702 49.9599 59.1095C49.9082 58.9608 49.9087 58.7766 49.9053 58.6197C49.8931 57.9216 49.9023 57.217 49.9285 56.5276C49.9362 56.3755 49.8155 56.2523 49.6691 56.2497C49.5227 56.2471 49.3938 56.3626 49.3912 56.509C49.3656 57.2092 49.357 57.9247 49.3695 58.6282C49.3747 58.8175 49.3773 59.0556 49.4548 59.2788C49.5979 59.7041 49.9641 60.0518 50.4721 60.2237C50.8919 60.368 51.3368 60.3809 51.7277 60.3968C51.7871 60.3935 51.8579 60.4003 51.9389 60.3958C51.9983 60.3924 52.0574 60.3837 52.1216 60.3693C52.0829 60.9348 52.0497 61.5 52 62.0607C51.9866 62.2077 52.0971 62.3423 52.2441 62.3557C52.2549 62.3551 52.2711 62.3542 52.2819 62.3536C52.4115 62.3463 52.5248 62.2424 52.5334 62.1065C52.6942 60.3425 52.7941 58.5548 52.8359 56.792C52.8382 56.6402 52.7229 56.5167 52.5711 56.5144L52.5606 56.5204Z" fill="black"/>
<path d="M59.5708 56.4461L54.5775 56.3639C54.4257 56.3616 54.3079 56.482 54.2999 56.6287C54.2976 56.7805 54.4179 56.8983 54.5646 56.9063L56.7387 56.9412L56.6542 62.0863C56.6519 62.2381 56.7723 62.3559 56.919 62.3639C56.9244 62.3636 56.9298 62.3633 56.9406 62.3627C57.081 62.3548 57.1937 62.2401 57.1966 62.0991L57.2811 56.954L59.558 56.9885C59.558 56.9885 59.5688 56.9879 59.5796 56.9873C59.72 56.9794 59.8327 56.8647 59.8356 56.7237C59.8379 56.5719 59.7175 56.4541 59.5708 56.4461Z" fill="black"/>
<path d="M65.9709 60.0509C65.9667 59.9753 65.9411 59.9063 65.8952 59.8602C65.8521 59.5755 65.7928 59.2918 65.7285 59.0137C65.5877 58.4366 65.352 57.7132 64.7946 57.2408C64.2946 56.8248 63.6816 56.713 63.2526 56.6938C63.0681 56.6879 62.7918 56.6872 62.5381 56.7989C61.9188 57.0558 61.6871 57.7514 61.5516 58.3277C61.2557 59.6173 61.0703 60.9439 60.9983 62.2642C60.9903 62.4109 61.1059 62.5399 61.2526 62.5479C61.3939 62.5562 61.5282 62.4403 61.5362 62.2936C61.5739 61.6144 61.6439 60.9334 61.7413 60.2562L65.4062 60.3156C65.4958 61.0418 65.5098 61.7722 65.4425 62.5019C65.4291 62.6489 65.5396 62.7835 65.6866 62.7969C65.7028 62.796 65.7136 62.7954 65.7298 62.7945C65.8594 62.7872 65.9727 62.6833 65.9816 62.5528C66.0561 61.7578 66.0388 60.9679 65.9404 60.1826C65.9599 60.1436 65.9794 60.1046 65.9766 60.056L65.9709 60.0509ZM61.8246 59.7153C61.8981 59.2887 61.9773 58.8671 62.073 58.4501C62.1777 58 62.3481 57.465 62.7394 57.2968C62.8612 57.2466 63.0172 57.227 63.2236 57.2371C63.5656 57.2503 64.0579 57.3364 64.4388 57.6562C64.8821 58.0267 65.0793 58.644 65.1997 59.1464C65.2493 59.3548 65.2881 59.5639 65.3273 59.7783L61.8249 59.7207L61.8246 59.7153Z" fill="black"/>
<path d="M74.523 44.057C74.8052 44.7399 74.77 45.5598 74.424 46.2455C74.0837 46.9363 73.4379 47.4926 72.664 47.6986C72.2804 47.8122 71.8634 47.814 71.5224 47.8169L70.4454 47.8341L68.2909 47.8578C65.4209 47.8729 62.5494 47.861 59.6779 47.7516C56.8108 47.6257 53.9395 47.4243 51.0692 47.3365C48.1988 47.2487 45.3291 47.2692 42.4556 47.317C39.5826 47.3756 36.7136 47.4069 33.8418 47.3896L31.6909 47.3806L30.6127 47.3762C30.4231 47.376 30.2716 47.3791 30.0544 47.3697C29.8372 47.3602 29.6191 47.3346 29.4103 47.2813C28.5591 47.0746 27.8114 46.4937 27.3996 45.7206C26.977 44.9481 26.8969 44.0047 27.1861 43.176C27.4754 42.3472 28.1136 41.6559 28.9173 41.3074C29.3138 41.1334 29.7529 41.0437 30.1807 41.0413C30.5653 41.0414 30.9079 41.0655 31.2712 41.0721L35.5761 41.2417C38.4438 41.3784 41.3121 41.5259 44.1792 41.7493C44.2062 41.7478 44.2296 41.779 44.2311 41.8059C44.2327 41.8329 44.2069 41.8561 44.1799 41.8576C41.3058 41.9921 38.4325 42.0453 35.5644 42.0928L31.2599 42.1236L30.1985 42.1291C29.9117 42.1344 29.6337 42.1988 29.3752 42.3216C28.863 42.5563 28.4556 43.0179 28.2849 43.5475C28.1089 44.0774 28.1483 44.6818 28.4198 45.1757C28.6859 45.67 29.162 46.044 29.7011 46.1925C29.8389 46.2335 29.9754 46.2529 30.1167 46.2612C30.2583 46.2749 30.4641 46.2741 30.6378 46.2806L31.712 46.3123L33.866 46.3754C36.7357 46.4524 39.6028 46.5782 42.4711 46.7257C45.3391 46.8678 48.2106 46.9772 51.0818 46.9837C53.953 46.9902 56.8229 46.8776 59.6974 46.8459C62.5674 46.8308 65.4371 46.9078 68.3087 47.0172L70.4587 47.1076L71.5339 47.1554C71.9089 47.1777 72.2191 47.2036 72.5296 47.1374C73.1565 47.0155 73.7469 46.6302 74.105 46.063C74.4634 45.5012 74.585 44.7739 74.4217 44.0843C74.4201 44.0574 74.4345 44.024 74.4612 44.0171C74.4882 44.0156 74.5158 44.0249 74.5227 44.0516L74.523 44.057Z" fill="black"/>
</g>
<defs>
<linearGradient id="paint0_linear_2987_12981" x1="23.3271" y1="76.4615" x2="85.2927" y2="72.9775" gradientUnits="userSpaceOnUse">
<stop stop-color="#0ABBEF"/>
<stop offset="0.24" stop-color="#0D9ACF"/>
<stop offset="0.76" stop-color="#14598E"/>
<stop offset="1" stop-color="#174075"/>
</linearGradient>
<linearGradient id="paint1_linear_2987_12981" x1="40.8306" y1="34.5002" x2="81.5002" y2="32.2136" gradientUnits="userSpaceOnUse">
<stop stop-color="#FFED00"/>
<stop offset="0.09" stop-color="#FDE204"/>
<stop offset="0.71" stop-color="#F2A120"/>
<stop offset="1" stop-color="#EE882C"/>
</linearGradient>
<clipPath id="clip0_2987_12981">
<rect width="110" height="387" fill="white"/>
</clipPath>
</defs>
</svg>
