<svg width="132" height="258" viewBox="0 0 132 258" fill="none" xmlns="http://www.w3.org/2000/svg">
<mask id="mask0_2987_7890" style="mask-type:alpha" maskUnits="userSpaceOnUse" x="0" y="0" width="132" height="258">
<rect width="132" height="258" fill="#A25A9F"/>
</mask>
<g mask="url(#mask0_2987_7890)">
<path d="M78.173 70.873C77.658 70.873 53.7484 70.873 53.7484 70.873L67.7263 156.642L72.5818 155.754L84.8677 155.013" fill="#CA4A54"/>
<path d="M37.5634 286.555C37.122 286.778 36.9012 286.852 36.9748 286.778C37.122 286.481 37.4898 284.704 37.8576 282.185L37.3427 282.482C37.3427 282.26 38.0783 273.816 38.0783 273.816L41.6832 224.784L42.051 224.71V219.081L44.1109 186.862L45.0673 185.454L66.1078 155.754L83.6906 155.013L90.4588 185.084C90.4588 185.084 90.3117 185.528 90.0174 186.195C92.1509 185.825 96.2707 184.565 99.2135 183.677C101.273 183.01 102.818 182.566 102.818 182.566L105.614 220.043C105.614 220.043 107.453 244.56 107.674 247.152C107.894 249.744 110.322 277.223 110.322 277.223C110.322 277.223 113.265 300.258 113.339 300.85C113.339 301.073 113.78 302.998 114.221 305.517C115.325 311.072 117.017 319.515 117.017 319.515L118.268 325.885L120.254 333.588L119.96 333.736C119.96 333.736 119.739 333.81 119.445 333.588C119.15 333.366 115.031 332.107 115.031 332.107L114.957 332.032C114.736 332.106 114.516 332.255 114.295 332.255C110.469 332.847 106.717 333.884 103.039 335.217C98.9928 336.625 95.1672 338.476 91.5624 340.55C90.606 333.884 89.6496 327.218 88.7668 320.552C88.5461 318.774 88.2518 316.923 87.2954 315.293C87.0747 314.849 86.7069 314.479 86.6333 313.96C86.2655 312.627 87.4426 311.368 88.5461 310.479C86.9276 310.775 85.5298 309.072 85.6034 307.442C85.6769 305.813 86.7804 304.406 87.9575 303.369C86.0448 294.851 84.647 286.259 83.8377 277.519L84.0584 276.334C84.132 274.186 83.5434 272.038 83.3963 269.89C83.3963 269.594 83.3963 269.298 83.3963 268.928C83.3963 268.928 83.1756 263.373 83.0285 263.298C82.8813 263.15 83.9113 259.817 84.2791 257.447C84.647 255.077 82.2192 249.448 82.2192 249.448C82.2192 249.448 81.4835 246.485 81.1893 245.3C80.895 244.115 79.0558 235.894 79.0558 235.894L76.2602 219.451L76.0395 218.266L75.9659 217.451C75.8924 217.451 75.7452 217.525 75.6717 217.525L73.3175 229.82L69.6391 249.3L66.7699 264.706L66.3285 268.928C66.3285 268.928 66.3285 268.928 66.2549 268.928C66.6228 269.89 67.1378 270.779 67.7263 271.594C67.947 271.964 68.2413 272.261 68.3149 272.705C68.3884 274.038 66.1814 274.186 65.5193 275.371C64.71 276.927 66.9906 278.408 66.9906 280.186C66.9906 280.704 66.8435 281.149 66.6963 281.593C65.3721 285.667 65.225 290.111 65.0778 294.407C65.0043 296.999 64.9307 299.665 64.8571 302.258C64.5629 312.923 64.5629 323.589 65.5928 334.18C65.74 335.588 65.8871 337.069 65.0778 338.254C64.71 338.847 64.1215 339.291 63.4593 339.661C60.8845 341.143 57.7946 341.365 54.8519 341.069C51.9092 340.772 49.04 339.884 46.1708 339.217C43.4488 338.55 40.2854 338.18 38.2255 340.032C37.9312 340.254 37.6369 340.624 37.2691 340.698C37.1219 340.772 36.9013 340.772 36.6805 340.698C35.9449 340.624 35.1356 340.254 34.7678 340.772C33.5907 339.365 33.37 337.365 33.2964 335.514C32.34 319.071 36.1656 302.85 37.5634 286.555ZM38.4462 277.964C38.2255 279.001 38.0783 280.112 38.0048 281.149C38.1519 280.186 38.299 279.075 38.4462 277.964Z" fill="url(#paint0_linear_2987_7890)"/>
<path d="M76.1866 219.377L78.9822 235.82C78.9822 235.82 80.8214 244.041 81.1157 245.226C81.41 246.411 82.1456 249.374 82.1456 249.374C82.1456 249.374 84.5734 255.077 84.2056 257.373C83.8377 259.743 82.8078 263.076 82.9549 263.224C83.102 263.373 83.3227 268.853 83.3227 268.853C83.3227 269.15 83.3227 269.52 83.3227 269.816C83.4699 271.964 84.132 274.112 83.9849 276.26L83.7642 277.445C84.5734 286.111 85.8976 294.777 87.884 303.295C86.7069 304.331 85.6034 305.739 85.5298 307.368C85.4562 308.998 86.854 310.701 88.4725 310.405C87.4426 311.294 86.2655 312.553 86.5597 313.886C86.7069 314.405 87.0012 314.775 87.2219 315.219C88.1782 316.775 88.3989 318.626 88.6932 320.478C89.6496 327.144 90.606 333.81 91.4888 340.476C95.0936 338.402 98.9192 336.551 102.965 335.143L102.892 335.069C98.6985 330.403 96.1972 324.478 93.7694 318.7C93.4016 317.886 93.1073 317.071 93.0337 316.182C92.9602 314.256 94.5051 312.553 94.5051 310.553C93.1809 310.849 91.7831 310.849 90.5324 310.405C90.9738 309.442 91.7831 308.701 92.5188 307.887C93.9901 306.405 95.3144 304.85 96.4179 303.146C96.1236 303.517 95.7558 303.887 95.3143 304.183C94.1373 305.072 92.5188 305.442 91.1945 304.85C90.8267 304.702 90.4589 304.406 90.2381 304.035C89.9439 303.369 90.1646 302.628 90.5324 302.035C90.9003 301.443 91.4152 300.924 91.7095 300.332C94.4315 298.184 96.6386 295.073 98.6249 292.11C96.7857 293.147 94.2844 294.036 92.8866 292.555C92.2245 291.888 92.0038 290.851 91.8566 289.888C90.4588 280.704 90.091 271.372 90.8267 262.113C90.9738 259.817 91.2681 257.521 91.0474 255.225C90.8267 253.225 90.3117 251.3 89.7967 249.374C88.4725 244.93 86.854 240.56 84.9412 236.338C81.8514 229.376 77.9523 222.636 76.5545 215.155C76.5545 216.414 76.3338 217.896 76.1866 219.377Z" fill="#174075"/>
<path d="M33.2228 335.514C33.2964 337.365 33.5171 339.365 34.6942 340.772C35.062 340.18 35.8713 340.624 36.607 340.698C37.9312 338.55 39.2554 336.402 40.5796 334.254C40.7268 333.958 40.9475 333.662 41.0211 333.366C41.1682 332.995 41.1682 332.625 41.2418 332.255C41.536 330.847 42.7867 329.81 44.1109 329.366C45.4351 328.922 46.9065 328.996 48.3043 329.07C47.2008 327.737 46.0237 326.477 44.773 325.292C46.9801 324.181 49.555 323.885 51.9091 324.626C50.3642 321.293 45.3616 320.7 43.9638 317.293C43.5224 316.256 43.5224 315.071 43.5224 313.96C43.5224 304.406 43.8166 294.777 44.3316 285.222C44.8466 281.889 45.3616 278.482 45.803 275.149C47.2008 264.187 47.7158 253.151 49.04 242.189C50.5849 229.45 53.1598 216.859 56.7646 204.564C57.721 201.379 58.751 198.046 61.0316 195.601C63.2386 193.083 68.9034 189.38 71.9933 190.713C71.7725 188.491 69.4919 188.491 69.1977 186.269L45.0673 185.602L44.1109 187.01L42.051 219.229V224.858L41.6832 224.932L38.0783 273.964C38.0783 273.964 37.3427 282.408 37.3427 282.63L37.8576 282.334C37.4898 284.852 37.1219 286.629 36.9748 286.926C36.9012 287 37.1219 286.926 37.5634 286.704C36.1656 302.85 32.34 319.071 33.2228 335.514Z" fill="#174075"/>
<path d="M40.8004 35.469C41.0946 36.2838 41.6096 36.9504 42.051 37.691C43.0074 39.0983 44.0374 40.4315 45.1409 41.6907C45.2144 41.7647 45.288 41.8388 45.4352 41.8388C45.5087 41.8388 45.5823 41.7647 45.6559 41.6907C46.7594 40.6537 48.3779 40.4315 49.7757 40.8019C51.1735 41.1722 52.4241 42.061 53.6012 42.9498C53.8219 43.0979 54.0426 43.3201 54.2633 43.4683C54.6312 43.9127 54.999 44.4311 55.4404 44.8755C56.5439 43.9867 57.721 43.2461 59.0453 42.6535C58.236 41.6907 57.7946 40.4315 57.3532 39.2464C56.1761 35.8394 55.2933 32.4323 54.5576 28.8771C54.484 28.3586 54.3369 27.8402 54.484 27.3217V27.2476C54.6312 26.8773 54.9254 26.507 55.2197 26.2107C56.7646 24.4331 58.4567 22.5814 60.8109 21.9148C62.9444 21.3964 65.225 22.063 67.3585 22.4333C68.9034 22.7296 70.5219 22.8777 72.0668 22.8777C72.3611 22.8777 72.6554 22.8777 72.9496 22.8036C73.7589 23.0258 74.5681 23.3221 75.3038 23.5443C77.8051 24.2109 80.7479 24.6553 82.8813 23.174C83.6906 22.5814 84.3527 21.8408 84.8677 21.026C85.2355 20.4335 85.6034 19.841 85.8241 19.2484C85.8976 19.1003 85.9712 18.9522 86.0448 18.73C86.2655 18.1374 86.4862 17.6189 86.6333 17.0264C87.369 14.4341 87.2954 11.5455 86.4862 8.95313C85.0148 10.3604 83.1756 11.3233 81.1893 11.6936C81.2628 11.5455 81.41 11.4714 81.4835 11.3233C82.2928 10.2863 82.9549 9.0272 83.2492 7.694C83.7642 5.6942 83.617 3.54626 82.8813 1.69459C81.2628 3.39813 78.9086 4.13879 76.628 4.36099C74.3474 4.58319 71.9932 4.43506 69.7126 4.65726C66.6228 4.95353 63.68 5.9164 60.7373 6.87927C58.3096 7.694 55.8818 8.5828 53.5276 9.6938C51.4677 10.7307 49.4814 11.9899 47.7158 13.4712C46.3915 14.5822 45.1409 15.8413 43.9638 17.1745C42.7131 18.6559 41.4625 20.5076 41.6832 22.4333C41.9039 24.285 43.3752 25.7663 44.6995 27.0995L44.9202 27.4698C44.9937 27.4698 44.9937 27.4698 45.0673 27.4698C45.0673 27.5439 45.0673 27.5439 45.1409 27.618C45.0673 27.618 44.9202 27.618 44.8466 27.618C43.1545 27.8402 41.6832 28.9512 40.9475 30.5066C40.2118 32.062 40.2118 33.8396 40.8004 35.469Z" fill="#ED6C2E"/>
<path d="M44.8466 47.9863C45.0673 48.727 45.288 49.4677 45.7294 50.1343C46.4651 51.2453 47.7893 51.9119 49.04 52.2081C50.3642 52.5044 51.6884 52.5785 53.0127 52.7266C53.3069 52.7266 53.6012 52.8007 53.8219 52.9488C54.1162 53.171 54.1898 53.5413 54.3369 53.8376C55.7347 59.0223 55.3669 64.5032 56.5439 69.6879C56.6911 70.2064 56.8382 70.7248 57.1325 71.1692C57.2061 71.3914 57.2061 71.6136 57.2796 71.9099C57.4268 72.7246 57.6475 73.5394 57.7946 74.3541C57.7946 74.5022 57.8682 74.5763 57.9417 74.7244C58.0153 74.7985 58.1624 74.8726 58.3096 74.8726C61.3994 75.6873 64.71 75.7614 67.7999 75.0948C69.5655 74.7244 71.2576 74.1319 72.8761 73.3912C73.5382 73.095 74.1267 72.7987 74.7153 72.4284C75.0095 72.2062 75.3774 71.8358 75.3774 71.3914C75.3774 71.1692 75.3038 71.0211 75.2302 70.873C75.2302 70.7989 75.1567 70.7248 75.0831 70.6508C75.2302 69.9842 75.2302 69.2435 75.2302 68.5028C75.2302 67.614 75.1567 66.7252 75.0831 65.9105C75.0095 64.281 74.936 62.7256 74.8624 61.0962C76.4073 61.6146 77.9523 60.7258 79.2765 59.763C80.5272 58.8001 81.7778 57.6891 82.6606 56.3559C84.4263 53.7635 84.8677 50.4305 85.0884 47.2457C85.5298 39.3205 84.5734 31.3213 82.2928 23.7665L82.3664 23.9887C79.6443 23.9887 76.8487 23.8406 74.1267 23.5443C71.9197 23.3221 69.7126 22.9518 67.5056 22.4333C65.4457 21.9889 63.3858 21.4704 61.3259 21.9148C58.8981 22.5074 57.0589 24.359 55.3668 26.1366C55.0726 26.4329 54.7783 26.7292 54.6312 27.0995C54.4105 27.618 54.5576 28.1364 54.6312 28.6549C55.3669 33.0248 56.1025 37.4688 58.3096 41.2463C58.5303 41.6166 58.751 41.9869 58.8245 42.4313C58.8245 42.5795 58.8246 42.6535 58.8981 42.8017C58.0889 43.4683 57.2796 44.0608 56.3968 44.7274C56.2497 44.8755 56.029 44.9496 55.8083 44.9496C55.6611 44.9496 55.514 44.8015 55.3668 44.7274C54.4105 43.9127 53.6748 42.7276 52.6448 42.061C52.0563 41.6907 51.3206 41.3944 50.5849 41.2463C49.2607 40.95 47.8629 40.8019 46.6858 41.4685C45.5823 42.061 44.9202 43.2461 44.6995 44.4311C44.4052 45.5421 44.5523 46.8013 44.8466 47.9863Z" fill="white"/>
<path d="M87.8104 72.4284C87.7368 72.3543 87.7368 72.2802 87.6633 72.2062C87.5161 72.2062 87.8104 72.3543 87.8104 72.4284Z" fill="white"/>
<path d="M8.7982 117.905L13.2859 119.979C13.2859 119.979 13.2859 119.979 13.3594 119.979C13.8744 120.276 17.8471 122.423 19.1713 123.164C20.5691 123.905 26.1603 127.238 26.1603 127.238L31.4572 129.682L37.2691 121.387C37.2691 121.387 38.814 126.275 39.844 129.608C40.3589 131.386 40.8004 132.719 40.8004 132.793C40.8739 132.941 44.773 147.828 44.773 147.828C44.773 147.828 45.7294 153.902 45.7294 154.939C45.7294 155.976 45.3616 160.864 45.3616 161.16V161.234L43.7431 183.454C43.7431 183.454 43.5224 186.343 43.5224 186.491C43.5224 186.639 61.1787 189.306 61.1787 189.306H71.3311C71.3311 189.306 72.2139 173.9 71.9197 171.233C71.699 169.456 71.4783 168.271 71.3311 167.604C71.184 165.308 70.9633 162.345 70.9633 162.345L68.0941 135.533L63.6065 100.574L60.958 86.2789L60.443 85.8345C60.5902 85.9085 60.8109 85.9085 60.8845 85.8345C60.958 85.7604 60.958 85.6123 60.8845 85.5382C60.6638 84.1309 60.2223 82.7237 59.8545 81.3164C58.0889 75.391 56.6911 69.4657 55.5876 63.3922V63.096C54.1898 63.3182 52.7184 63.5404 51.5413 64.4292C50.8792 64.9476 50.4378 65.6142 49.9228 66.2808C48.8929 67.8362 47.9365 69.5398 47.2008 71.3174C46.8329 72.058 46.5387 72.8728 46.0973 73.5394L46.0237 73.4653L29.9858 85.5382L29.5444 85.9826L28.8823 86.6492L24.1004 89.9081C24.1004 89.9081 22.629 90.6488 21.3048 92.1301C19.907 93.6115 13.8744 103.833 13.8744 103.833C13.8744 103.833 12.918 106.277 12.1088 108.351C11.1524 110.499 8.7982 117.905 8.7982 117.905Z" fill="white"/>
<path d="M74.8624 72.9468C74.8624 73.3912 75.0095 73.8356 75.0831 74.28C75.3038 75.0948 75.5245 75.9095 75.7452 76.7983C76.2602 78.7981 76.7752 80.7979 77.2902 82.7977C77.3637 82.7237 77.4373 82.6496 77.5109 82.5014L77.7316 84.9457L78.3937 93.6115L79.7915 110.943L81.3364 134.867L83.617 159.605L85.3091 185.973C85.3091 185.973 85.3091 185.973 85.6769 186.343C86.1183 186.713 99.9491 183.454 100.17 183.306C100.391 183.232 107.085 180.27 107.085 180.27L104.584 159.975L102.083 133.533C102.083 133.533 101.494 124.645 102.083 118.202C102.671 111.758 103.113 85.1679 103.113 85.1679L103.995 79.0203L100.464 76.502L95.4615 74.206C95.4615 74.206 91.5624 72.9468 89.2082 72.4284C88.2518 72.2062 87.8104 72.1321 87.7368 72.2062C87.8104 72.2802 87.8104 72.3543 87.884 72.4284C87.8104 72.4284 87.5897 72.2062 87.7368 72.2062C86.854 70.6508 85.8976 69.0954 84.7205 67.7622C83.2492 66.1327 81.4835 64.7254 79.4972 63.8366C78.0994 63.2441 76.7016 62.8738 75.1567 62.8738H75.0831L75.2302 68.651L75.3038 70.6508C75.0095 71.3914 74.7888 72.1321 74.8624 72.9468Z" fill="white"/>
<path d="M87.8104 72.4284C87.7368 72.3543 87.7368 72.2802 87.6633 72.2062C87.5161 72.2062 87.8104 72.3543 87.8104 72.4284Z" fill="white"/>
<path d="M122.682 105.462C122.682 105.462 119.518 112.424 117.753 114.276C115.913 116.128 110.543 119.979 110.543 119.979C110.543 119.979 105.246 123.016 103.848 123.46C102.45 123.905 102.083 123.979 102.083 123.979V99.5368L103.995 79.0203" fill="#CA4A54"/>
<path d="M1.66211 143.755C1.80924 145.606 2.17707 147.458 3.42773 148.717C4.67839 149.976 23.2176 166.197 23.2176 166.197L36.5334 176.418C36.5334 176.418 38.0048 177.233 41.1682 176.196C44.3316 175.085 47.2744 173.826 47.2744 173.826C47.2744 173.826 49.1136 173.53 49.1871 173.604C49.2607 173.678 52.9391 177.159 53.9691 177.233C54.999 177.307 56.3232 176.27 56.3232 176.122C56.3232 175.974 57.1325 176.566 57.1325 176.566C57.1325 176.566 58.9717 177.455 59.4131 177.307C59.8545 177.159 60.3695 176.64 60.3695 176.64L60.6637 175.603L60.958 174.492C60.958 174.492 61.5466 174.492 61.6201 174.492C61.6937 174.492 62.7237 173.53 62.6501 172.863C62.5765 172.196 62.4294 171.308 62.4294 171.308C62.4294 171.308 63.9008 171.159 63.9743 170.493C64.1215 169.752 64.3422 168.937 64.3422 168.937L63.3858 166.789C63.3858 166.789 54.0426 160.123 53.9691 160.049C53.8955 160.049 45.2144 161.16 45.1409 161.234C45.0673 161.309 38.299 163.382 38.299 163.382C38.299 163.382 27.0431 150.124 26.9695 150.05C26.9695 149.976 20.7162 143.903 20.3484 143.607C19.907 143.31 19.392 142.94 19.4656 142.94C19.5392 142.94 20.1277 141.162 20.1277 141.162L25.6453 128.275L26.0867 127.312L17.4057 122.201L10.1225 118.572C10.1225 118.572 9.60746 119.757 8.94534 121.461C8.3568 122.794 7.69469 124.497 7.03258 126.275C5.70835 129.608 4.31056 133.163 3.86915 134.793C2.76563 138.422 1.51497 141.903 1.66211 143.755Z" fill="white"/>
<path d="M103.995 153.087L105.172 165.012L105.393 167.308L106.938 174.27C106.938 174.27 107.159 174.566 107.747 174.344C108.336 174.122 111.794 170.419 111.794 170.122C111.794 169.826 111.426 168.197 111.426 168.197L113.265 162.494L126.728 140.866C126.728 140.866 131.583 133.682 131.216 132.2C130.774 130.719 129.818 128.127 129.818 128.127L120.769 113.684L119.96 112.35C119.96 112.35 115.398 116.646 114.81 117.091C114.221 117.535 108.777 121.016 108.777 121.016L111.794 125.016L116.723 132.719L114.516 137.163L108.483 152.05L103.995 153.087Z" fill="white"/>
<path d="M34.7678 340.328C34.7678 340.624 34.7678 340.92 34.8413 341.143C34.9149 341.661 35.1356 342.254 35.2827 342.772C35.5034 343.957 35.2827 345.142 35.3563 346.401C35.4299 347.586 35.7977 348.92 36.9012 349.512C37.2691 349.734 37.7105 349.808 38.1519 349.808C43.8902 350.623 49.7021 349.29 55.514 349.438C56.5439 349.438 57.6475 349.586 58.6774 349.29C59.7074 349.068 60.7373 348.475 61.1787 347.512C61.3994 346.994 61.473 346.475 61.5466 345.957C61.6201 345.439 61.6937 344.92 61.7673 344.402C61.8408 344.031 61.8408 343.661 61.9144 343.291C61.988 342.55 62.1351 341.809 61.988 341.069C61.8408 340.106 61.2523 339.291 60.5902 338.476C59.5602 337.143 58.3831 335.884 57.1325 334.773C56.2497 333.958 55.2197 333.143 54.1897 332.551C51.9091 331.292 49.2607 330.996 46.7594 331.366C44.1845 331.736 41.8303 332.773 39.6233 334.18L39.6968 334.403C38.8876 334.477 38.2255 335.143 37.7105 335.736C37.0484 336.476 36.4598 337.217 35.8713 338.032C35.3563 338.698 34.8413 339.439 34.7678 340.328Z" fill="#CA4A54"/>
<path d="M92.5923 341.143C92.7395 343.809 92.8866 346.475 93.0337 349.142C94.5787 349.29 96.1972 349.438 97.6685 348.92C98.8456 348.549 100.096 347.661 101.273 348.105C101.641 348.253 101.935 348.475 102.303 348.623C103.186 348.994 104.216 348.92 105.172 348.846C114.516 348.179 123.932 348.994 133.349 348.179C134.453 348.105 135.777 347.883 136.365 346.92C136.88 346.105 136.66 344.92 136.145 344.105C136.071 343.957 135.998 343.883 135.924 343.735C135.85 343.587 135.777 343.439 135.85 343.217C135.85 343.068 135.998 342.92 136.071 342.772C136.733 341.809 136.66 340.402 136.071 339.365C135.483 338.328 134.526 337.513 133.57 336.847C130.48 334.847 126.728 333.884 123.05 334.032C122.682 334.032 122.387 334.032 122.02 334.106C121.431 334.18 120.842 334.18 120.254 334.106C119.15 333.884 118.341 332.921 117.679 332.032L117.311 331.884C108.851 332.995 100.611 335.884 93.2544 340.18C93.0337 340.328 92.813 340.402 92.7395 340.624C92.5188 340.624 92.5923 340.846 92.5923 341.143Z" fill="#CA4A54"/>
<path d="M7.03258 126.275C7.10615 126.275 7.10615 126.349 7.17972 126.349C8.20967 126.719 9.16605 127.09 10.196 127.46C10.9317 127.682 11.6674 127.904 12.4031 128.053C14.5365 128.497 16.7436 128.497 18.877 128.497C20.8634 128.497 22.8497 128.423 24.8361 128.349C25.1303 128.349 25.351 128.275 25.6453 128.275L26.0867 127.312L17.4057 122.201L10.1225 118.572C10.1225 118.572 9.60746 119.757 8.94534 121.461C8.43037 122.868 7.76826 124.571 7.03258 126.275Z" fill="#F4C6CC"/>
<path d="M1.66211 143.755C1.80924 145.606 2.17707 147.458 3.42773 148.717C4.67839 149.976 23.2176 166.197 23.2176 166.197L36.5334 176.418C36.5334 176.418 38.0048 177.233 41.1682 176.196C44.3316 175.085 47.2744 173.826 47.2744 173.826C47.2744 173.826 49.1136 173.53 49.1871 173.604C49.2607 173.678 52.9391 177.159 53.9691 177.233C54.999 177.307 56.3232 176.27 56.3232 176.122C56.3232 175.974 57.1325 176.566 57.1325 176.566C57.1325 176.566 58.9717 177.455 59.4131 177.307C59.8545 177.159 60.3695 176.64 60.3695 176.64L60.6637 175.603L58.8245 172.641C58.0889 173.752 56.3968 173.381 55.3668 172.567C54.3369 171.752 53.4541 170.567 52.2034 170.345C52.2034 170.863 52.2034 171.456 52.2034 171.974C48.2307 171.159 44.1109 170.937 39.9911 171.382C39.0347 171.456 38.1519 171.604 37.1955 171.382C36.3863 171.159 35.7242 170.715 34.9885 170.271C26.1603 164.345 18.1414 157.161 11.226 149.088C10.0489 147.754 8.87178 146.273 8.1361 144.643C5.85548 139.533 7.9154 133.608 9.82817 128.349C9.90174 128.053 10.0489 127.756 10.1224 127.534C10.6374 125.831 11.0053 123.979 10.0489 122.572C9.7546 122.127 9.31319 121.831 8.87178 121.535C8.28323 122.868 7.62111 124.571 6.959 126.349C5.63478 129.682 4.23699 133.237 3.79558 134.867C2.76562 138.422 1.51497 141.903 1.66211 143.755Z" fill="#F4C6CC"/>
<path d="M103.995 153.087L105.172 165.012C106.129 164.493 107.085 163.901 107.894 163.234C108.189 163.012 108.409 162.79 108.557 162.494C108.777 161.975 108.704 161.383 108.704 160.864C108.777 159.605 109.366 158.42 109.954 157.309C112.897 151.828 115.84 146.273 118.783 140.792C120.107 138.422 121.357 135.978 122.387 133.459C122.461 133.163 122.608 132.941 122.608 132.645C122.608 132.2 122.387 131.756 122.167 131.386C120.769 128.793 119.665 126.053 118.93 123.238C118.783 122.794 118.709 122.275 118.709 121.757C118.709 121.238 118.93 120.646 119.077 120.127C119.813 118.054 120.328 115.906 120.622 113.684L119.813 112.35C119.813 112.35 115.251 116.646 114.663 117.091C114.074 117.535 108.63 121.016 108.63 121.016L111.646 125.016L116.576 132.719L114.368 137.163L108.336 152.05L103.995 153.087Z" fill="#F4C6CC"/>
<path d="M63.0915 58.8001C63.9743 59.1704 64.6364 59.9111 65.1514 60.6518C65.74 61.3924 66.3285 62.059 67.0642 62.7256C68.9034 64.281 71.1104 65.0958 73.4646 65.6142C73.906 65.6883 74.5681 65.9846 75.0831 65.8364C75.0095 64.207 74.936 62.6516 74.8624 61.0221C76.4073 61.5406 77.9523 60.6518 79.2765 59.6889C80.5272 58.726 81.7778 57.615 82.6606 56.2818C84.4263 53.6895 84.8677 50.3565 85.0884 47.1716C85.5298 39.2464 84.5734 31.2472 82.2928 23.6924L82.3664 23.9146C79.6443 23.9146 76.8487 23.7665 74.1267 23.4702C73.6117 26.4329 74.421 29.4696 74.6417 32.4323C74.7888 34.6543 74.6417 36.8763 74.8624 39.0242C75.0831 41.2463 75.8188 43.4683 77.5109 44.9496C76.9959 45.3199 76.2602 45.3199 75.7452 45.6903C75.0095 46.2087 74.936 47.3197 75.0095 48.2085C75.0831 49.0973 75.2302 50.1343 74.7153 50.8749C74.4946 51.2453 74.0532 51.5415 73.9796 51.9119C73.906 52.2081 73.9796 52.4303 74.0532 52.7266C74.6417 54.9486 74.8624 57.3928 73.6853 59.3185C73.391 59.7629 73.0232 60.2074 72.5818 60.4296C72.1404 60.6518 71.699 60.7258 71.2576 60.7258C68.2413 60.948 65.8135 59.6889 63.0915 58.8001Z" fill="#F4C6CC"/>
<path d="M54.484 27.2476C54.6312 26.8773 54.9254 26.507 55.2197 26.2107C56.7646 24.4331 58.4567 22.5814 60.8109 21.9148C62.9444 21.3964 65.225 22.063 67.3585 22.4333C68.9034 22.7296 70.5219 22.8777 72.0668 22.8777C72.3611 22.8777 72.6554 22.8777 72.9496 22.8036C73.7589 23.0258 74.5681 23.3221 75.3038 23.5443C77.8051 24.2109 80.7479 24.6553 82.8813 23.174C83.6906 22.5814 84.3527 21.8408 84.8677 21.026C85.2355 20.4335 85.6034 19.841 85.8241 19.2484C85.9712 19.2484 86.1183 19.1744 86.2655 19.1003C86.2655 18.8781 86.2655 18.5818 86.2655 18.3596C86.1919 18.5077 86.1183 18.6559 85.9712 18.804C85.8241 19.0262 85.6769 19.1744 85.5298 19.3225C84.3527 20.6557 82.6606 21.3964 80.9686 21.6926C78.8351 21.9889 76.628 21.6926 74.5681 21.2482C71.9933 20.7298 69.4184 20.1372 66.7699 19.9891C64.1215 19.841 61.3994 20.1372 59.1188 21.3223C56.9118 22.5074 54.999 24.6553 54.484 27.2476Z" fill="white"/>
<path d="M62.3558 14.0637C66.9906 10.5085 73.3175 9.2494 78.9822 10.8048C79.865 11.027 80.7479 11.3233 81.6307 11.3973C82.4399 10.3604 83.102 9.10127 83.3963 7.76807C82.7342 8.1384 81.9249 8.3606 81.1893 8.43467C79.2765 8.73094 77.3637 8.3606 75.451 8.28654C72.9496 8.1384 70.4483 8.28654 68.0941 9.17534C65.74 10.0641 63.68 11.027 62.7237 13.3231L62.3558 14.0637Z" fill="white"/>
<path d="M67.432 18.8781L70.9633 17.2486C72.0668 16.6561 73.6117 16.8783 74.7888 17.0264C75.9659 17.1745 77.143 17.6189 78.3201 17.9893C80.3064 18.73 82.4399 19.3966 84.5734 19.3966C84.9412 19.3966 85.3826 19.3965 85.7505 19.3225C85.8241 19.3225 85.8976 19.3225 85.9712 19.2484C86.1183 19.2484 86.2655 19.1744 86.4126 19.1003C86.4126 18.8781 86.4126 18.5818 86.4126 18.3596C86.339 18.5077 86.2655 18.6559 86.1183 18.804C86.339 18.2115 86.5597 17.693 86.7069 17.1005C85.2355 17.8411 83.3227 17.7671 81.7042 17.3967C79.7915 16.9523 78.0258 16.0635 76.1131 15.7673C72.8761 15.1747 69.3448 16.2857 67.432 18.8781Z" fill="white"/>
<path d="M41.8303 22.4333C42.051 24.285 43.5224 25.7663 44.8466 27.0995L45.0673 27.4698C45.1409 27.4698 45.1409 27.4698 45.2144 27.4698L48.0836 26.7292C46.9801 26.8032 45.8766 26.3588 45.1409 25.5441C44.6995 25.0256 44.4788 24.5072 44.2581 23.8406C43.6695 21.9889 43.9638 19.915 44.773 18.1374C45.5087 16.3598 46.7594 14.8044 48.1572 13.3971C48.0836 13.3971 47.9365 13.3971 47.8629 13.3971C46.5387 14.5081 45.288 15.7673 44.1109 17.1005C42.7867 18.6559 41.6096 20.5076 41.8303 22.4333Z" fill="white"/>
<path d="M90.9003 79.2425C88.9875 79.761 87.0747 79.8351 85.0884 79.6129C84.7941 79.6129 84.4263 79.5388 84.2056 79.6869C84.0584 79.761 83.9113 79.9091 83.7641 80.0573C81.6307 82.1311 79.7179 84.3531 78.0994 86.8714C76.9959 84.0569 78.0994 80.872 79.6443 78.3537C80.3064 77.2427 81.2628 75.9836 82.5871 75.9095C83.1756 75.8354 83.6906 76.0576 84.2056 76.2058C85.6033 76.6502 87.0747 77.0946 88.4725 77.539" fill="#CA4A54"/>
<path d="M60.5902 85.8345C61.1787 87.1677 61.473 88.649 61.5466 90.1303C58.3831 87.9824 55.0726 85.9085 51.8356 83.9087C51.3942 83.6125 50.9528 83.3903 50.4378 83.3162C49.9228 83.2421 49.4814 83.3162 48.9664 83.3903C47.3479 83.6865 45.803 83.9087 44.1845 84.205C44.2581 83.4643 44.3316 82.7977 44.4788 82.0571C44.4788 81.7608 44.5523 81.4645 44.6995 81.2423C44.9202 81.0201 45.2144 80.872 45.5087 80.7979C47.2744 80.2054 49.04 79.6128 50.8056 79.0203C51.1735 78.8722 51.6149 78.724 51.9827 78.7981C53.4541 78.8722 54.1162 80.7979 55.4404 81.3905" fill="#CA4A54"/>
<path d="M8.7982 117.905L13.2859 119.979C13.2859 119.979 13.2859 119.979 13.3594 119.979C14.7572 120.572 16.155 121.164 17.4793 121.905C17.2586 119.313 17.7 116.646 18.2149 114.128C20.0541 106.055 23.2176 98.2777 27.9259 91.4635C28.9559 90.0563 30.0594 88.5749 31.6779 87.9083C33.6642 87.0936 35.8713 87.6861 37.9312 88.2787L36.092 87.0936C34.0321 86.2789 31.7515 85.9085 29.5444 85.9826L28.8823 86.6492L24.1004 89.9081C24.1004 89.9081 22.629 90.6488 21.3048 92.1301C19.907 93.6115 13.8744 103.833 13.8744 103.833C13.8744 103.833 12.918 106.277 12.1088 108.351C11.1524 110.499 8.7982 117.905 8.7982 117.905Z" fill="#CA4A54"/>
<path d="M36.3863 122.72L37.2691 121.461C37.2691 121.461 38.814 126.349 39.844 129.682C43.5224 124.201 44.6259 117.239 44.9937 110.499C45.1409 107.61 45.288 104.796 44.8466 101.907C44.5523 99.5368 43.8902 97.1667 43.0074 95.0187L43.081 95.8335C43.5959 104.573 41.4625 113.461 37.0484 121.016C36.7541 121.535 36.4598 121.979 36.3127 122.572C36.3863 122.572 36.3863 122.646 36.3863 122.72Z" fill="#CA4A54"/>
<path d="M74.5681 72.8728C74.5681 73.4653 74.7888 74.0578 75.0095 74.6504C75.2302 75.317 75.5245 76.0576 75.7452 76.7242C75.8188 76.9464 75.8924 77.1687 75.9659 77.4649C77.5109 75.0207 79.0558 72.5765 79.7179 69.762C80.1593 67.8362 80.1593 65.6883 79.4236 63.8366C78.0258 63.2441 76.628 62.8738 75.0831 62.8738C75.2302 64.7995 75.3038 66.7252 75.1567 68.651C75.0831 69.3176 75.0095 70.0582 74.8624 70.7248C74.7153 71.3914 74.5681 72.1321 74.5681 72.8728Z" fill="#CA4A54"/>
<path d="M34.7678 340.328C34.7678 340.624 34.7678 340.92 34.8413 341.143C35.2092 339.809 36.3863 338.698 37.5634 337.958C41.0211 335.662 45.3616 334.551 49.4814 335.143C53.6012 335.736 57.5003 337.958 60.0016 341.291C60.7373 342.254 61.3259 343.291 61.8408 344.402C61.9144 344.031 61.9144 343.661 61.988 343.291C62.0615 342.55 62.2087 341.809 62.0616 341.069C61.9144 340.106 61.3259 339.291 60.6637 338.476C59.6338 337.143 58.4567 335.884 57.2061 334.773C56.3232 333.958 55.2933 333.143 54.2633 332.551C51.9827 331.292 49.3343 330.996 46.8329 331.366C44.2581 331.736 41.9039 332.773 39.6968 334.18L39.7704 334.403C38.9612 334.477 38.299 335.143 37.7841 335.736C37.122 336.476 36.5334 337.217 35.9449 338.032C35.3563 338.698 34.8413 339.439 34.7678 340.328Z" fill="white"/>
<path d="M110.102 338.106L110.984 337.736C113.78 336.921 116.576 336.106 119.445 336.106C124.006 336.106 128.273 338.032 132.098 340.55C132.319 340.698 132.613 340.92 132.761 341.143C132.981 341.513 132.908 342.031 132.761 342.402C132.54 342.772 132.246 343.142 131.951 343.439C133.276 343.439 134.6 343.513 135.924 343.587C135.85 343.439 135.777 343.291 135.85 343.068C135.85 342.92 135.998 342.772 136.071 342.624C136.733 341.661 136.66 340.254 136.071 339.217C135.483 338.18 134.526 337.365 133.57 336.699C130.48 334.699 126.728 333.736 123.05 333.884C118.562 334.329 114.074 335.884 110.102 338.106Z" fill="white"/>
<path d="M80.4536 193.379C79.2765 199.379 78.0994 205.452 77.2166 211.526L80.4536 193.379Z" fill="#4C742C"/>
<path d="M76.628 214.488C76.628 214.637 76.7016 214.785 76.7016 214.859C76.8487 213.748 76.9959 212.637 77.143 211.526L76.628 214.488Z" fill="#4C742C"/>
<path d="M96.565 302.998C97.1536 302.258 97.6685 301.443 98.0364 300.628C97.595 301.443 97.08 302.258 96.565 302.998Z" fill="#4C742C"/>
<path d="M99.2135 183.603C101.568 200.712 101.862 218.044 103.039 235.301C104.069 250.559 105.687 265.817 107.894 281C108.557 285.444 109.292 289.888 110.396 294.258C111.352 298.11 112.676 301.887 114.295 305.517C113.78 302.924 113.412 300.998 113.412 300.85C113.339 300.258 110.396 277.223 110.396 277.223C110.396 277.223 107.968 249.744 107.747 247.152C107.527 244.56 105.687 220.043 105.687 220.043L102.892 182.566C102.818 182.492 101.273 183.01 99.2135 183.603Z" fill="white"/>
<path d="M61.1052 277.667C61.9144 278.556 63.0179 279.297 63.3122 280.408C63.4593 281 63.3858 281.593 63.3122 282.185C62.7237 288.852 63.2386 295.666 64.8571 302.184C64.9307 299.591 65.0043 296.925 65.0778 294.332C65.225 290.037 65.3721 285.667 66.6963 281.519C66.8435 281.075 66.9906 280.63 66.9906 280.112C66.9171 278.408 64.6364 276.853 65.5193 275.297C66.1814 274.112 68.462 273.964 68.3148 272.631C68.3148 272.186 68.0206 271.89 67.7263 271.52C67.0642 270.705 66.6228 269.816 66.2549 268.853H66.3285L66.7699 264.632L69.6391 249.226C70.5219 242.189 71.8461 235.153 73.2439 228.191C76.2602 213.081 79.3501 197.972 82.5871 182.936L67.2849 237.671C65.3721 245.374 63.4593 253.077 61.473 260.78C60.7373 263.669 60.0752 266.854 61.3994 269.446C61.9144 270.557 62.8708 271.816 62.2087 272.853C61.7673 273.52 60.8845 273.742 60.443 274.334C59.6338 275.371 60.2959 276.779 61.1052 277.667Z" fill="white"/>
<path d="M81.8514 23.4702C82.7342 25.6182 83.1756 27.9142 83.3963 30.2103C83.617 32.5064 83.8377 34.8024 83.9849 37.0985C84.2791 41.6907 84.3527 46.2828 83.3227 50.7268C82.8813 52.9488 82.1456 55.0967 80.895 56.8743C79.7179 58.6519 77.8787 60.0592 75.7452 60.4296C74.7153 60.6518 73.5382 60.6518 72.4347 60.5777C71.3311 60.5777 70.154 60.4295 69.0505 60.2814C66.7699 59.9851 64.5629 59.3186 62.4294 58.4297C64.4157 59.6148 66.6228 60.4295 68.9034 60.948C70.0069 61.2443 71.184 61.3924 72.3611 61.5405C73.5382 61.6146 74.7153 61.6887 75.8924 61.5405C77.143 61.3924 78.3201 60.8739 79.3501 60.2073C80.38 59.5407 81.2628 58.6519 81.9985 57.615C83.3963 55.6152 84.2056 53.2451 84.7205 50.949C85.2355 48.6529 85.4562 46.2828 85.4562 43.9127C85.4562 41.5425 85.3091 39.2465 85.0148 36.8763C84.7205 34.5802 84.3527 32.2842 83.9849 29.9881C83.617 27.8402 83.0285 25.5441 81.8514 23.4702Z" fill="black"/>
<path d="M52.8655 42.2832C51.9827 41.6907 51.0999 41.0981 50.0699 40.7278C49.04 40.3575 47.7893 40.2093 46.6858 40.7278C45.5823 41.2463 44.773 42.2091 44.2581 43.2461C43.7431 44.3571 43.5959 45.5421 43.7431 46.7272C43.9638 49.0973 45.3616 51.2453 47.3479 52.5044C49.3343 53.6895 51.762 54.0598 54.0426 53.4673L53.2334 53.0229C53.8219 55.0227 54.2633 57.0225 54.7047 59.0964C55.1461 61.1702 55.4404 63.2441 55.7347 65.318C55.8818 63.17 55.8083 61.0962 55.5875 58.9482C55.3668 56.8003 54.999 54.7264 54.484 52.6525C54.4105 52.2822 54.0426 52.1341 53.7484 52.1341C51.8356 52.5044 49.7757 52.2081 48.0836 51.1712C46.3915 50.2083 45.288 48.4307 44.9937 46.505C44.8466 45.5421 44.9202 44.5793 45.288 43.6905C45.6559 42.8017 46.2444 41.9869 47.0536 41.4685C47.8629 41.0241 48.8929 40.95 49.9228 41.1722C50.9528 41.3944 51.9091 41.8388 52.8655 42.2832Z" fill="black"/>
<path d="M54.0426 48.6529C53.4541 48.8751 52.8655 49.0973 52.277 49.2455C51.6884 49.3936 51.0999 49.5417 50.5113 49.6899L50.8792 49.9121C50.732 49.3195 50.3642 49.0233 50.2906 48.6529C50.2171 48.3567 50.2906 48.0604 50.5113 47.7641C50.732 47.4679 51.0999 47.1716 51.3942 46.8013C51.6884 46.4309 51.9827 45.9125 51.9091 45.3199C51.8356 45.0237 51.6884 44.7274 51.3942 44.5793C51.1735 44.4311 50.8792 44.3571 50.5849 44.3571C50.0699 44.3571 49.6285 44.5052 49.1871 44.6533C48.8193 44.8015 48.3779 44.8755 48.01 44.7274C47.6422 44.5793 47.4215 44.1349 47.2744 43.7645C47.3479 44.2089 47.4215 44.7274 47.8629 45.0237C48.3043 45.3199 48.8193 45.2459 49.2607 45.1718C49.7021 45.0977 50.0699 44.9496 50.5113 45.0237C50.8792 45.0237 51.0999 45.2459 51.1735 45.5421C51.1735 45.8384 51.0999 46.2087 50.8056 46.4309C50.5113 46.7272 50.2171 47.0235 49.9228 47.4679C49.7757 47.6901 49.6285 47.9123 49.555 48.2085C49.4814 48.5048 49.555 48.8011 49.6285 49.0973C49.8492 49.6158 50.2171 49.9121 50.2906 50.2083C50.3642 50.3565 50.5114 50.4305 50.6585 50.4305C51.247 50.2824 51.8356 50.0602 52.4241 49.7639C53.0127 49.3195 53.5276 49.0233 54.0426 48.6529Z" fill="black"/>
<path d="M54.1898 26.8773C54.1162 28.2846 54.1898 29.6918 54.3369 31.0991C54.484 32.5064 54.7783 33.9136 55.1461 35.2468C55.514 36.6541 55.9554 37.9873 56.4704 39.2464C56.9853 40.5797 57.5739 41.8388 58.3096 43.0979L58.5303 42.2832C58.0153 42.6535 57.5003 43.0239 56.9853 43.3201L56.1761 43.8386C55.9554 43.9867 55.5876 44.283 55.4404 44.3571C55.3669 44.3571 55.3668 44.4311 55.2933 44.3571C55.2197 44.3571 55.1461 44.283 54.999 44.2089C54.7783 43.9867 54.5576 43.7645 54.3369 43.5423C53.8955 43.0979 53.4541 42.6535 52.9391 42.2091C53.2334 42.8017 53.6012 43.3201 53.8955 43.8386C54.0426 44.1349 54.1898 44.3571 54.4105 44.6533C54.484 44.8015 54.6312 44.9496 54.8519 45.0977C55.0726 45.2459 55.3668 45.2459 55.5876 45.1718C56.029 45.0237 56.2497 44.8755 56.5439 44.7274L57.3532 44.283C57.9417 43.9867 58.4567 43.6905 59.0453 43.3942C59.3395 43.2461 59.4131 42.8757 59.3395 42.5795V42.5054C58.751 41.2463 58.236 39.9871 57.721 38.728C57.2061 37.4689 56.7646 36.1356 56.3232 34.8765C55.8818 33.5433 55.514 32.2842 55.1461 30.951C54.9254 29.5437 54.5576 28.2105 54.1898 26.8773Z" fill="black"/>
<path d="M45.7294 41.9869C44.4788 40.1352 43.081 38.3576 42.1246 36.4319C41.1682 34.5062 40.6532 32.3582 41.7567 30.7288C42.7867 29.0252 44.773 28.1364 46.8329 27.692C48.9664 27.2476 51.1735 26.9514 53.3805 26.7292C51.1735 26.3588 48.8929 26.2848 46.6122 26.581C45.4352 26.7292 44.3316 27.0254 43.2281 27.5439C42.1246 28.0624 41.1682 28.9512 40.5061 29.9881C39.844 31.0991 39.6233 32.5064 39.844 33.6914C40.0647 34.9506 40.5797 35.9875 41.1682 37.0244C42.3453 38.9502 43.9638 40.5056 45.7294 41.9869Z" fill="black"/>
<path d="M81.4835 11.6195C82.6606 10.2863 83.4699 8.5828 83.7641 6.73113C84.0584 4.95353 83.9113 3.02779 83.2492 1.25019C83.1756 1.02799 82.8813 0.953922 82.6606 1.02799C82.5871 1.02799 82.5135 1.10206 82.4399 1.17612C81.8514 2.06492 80.895 2.65746 79.9386 3.10186C78.9822 3.54626 77.8787 3.76846 76.7752 3.84253C74.5681 4.06473 72.214 3.91659 69.9333 4.21286C65.2985 4.8054 60.8109 5.84233 56.4704 7.54587C52.1299 9.2494 48.01 11.7677 44.9202 15.3229C44.1109 16.2117 43.3752 17.1005 42.7867 18.1374C42.1981 19.1744 41.6832 20.2854 41.6096 21.5445C41.536 22.137 41.6096 22.8036 41.8303 23.3221C42.051 23.9146 42.3453 24.4331 42.7131 24.8775C43.4488 25.7663 44.3316 26.507 45.0673 27.4698C44.4788 26.507 43.6695 25.6182 43.0074 24.7294C42.3453 23.8406 42.051 22.7296 42.1982 21.6186C42.3453 20.5816 42.8603 19.5447 43.5224 18.6559C44.1845 17.7671 44.9202 16.8783 45.7294 16.0635C48.8928 12.8046 52.8655 10.5826 57.0589 8.95313C59.1924 8.1384 61.3259 7.54587 63.5329 6.95333C65.74 6.43487 67.947 5.99046 70.2276 5.6942C71.3311 5.54606 72.4347 5.472 73.6117 5.39793C74.7153 5.32386 75.8924 5.32386 77.0694 5.17573C78.2465 5.0276 79.4236 4.73133 80.5271 4.13879C81.6307 3.62033 82.6606 2.80559 83.3227 1.76866L82.5871 1.69459C83.3227 3.24999 83.617 5.0276 83.4699 6.8052C83.102 8.43467 82.5135 10.1382 81.4835 11.6195Z" fill="black"/>
<path d="M61.8408 14.5081C63.6065 13.0268 65.5928 11.9158 67.7999 11.3233C68.9034 10.9529 70.0069 10.8048 71.1104 10.6567C72.2139 10.5085 73.3175 10.5085 74.421 10.5826C75.5245 10.6567 76.628 10.8789 77.658 11.1751C78.6879 11.4714 79.7915 11.9158 80.9686 12.2121C82.1457 12.5083 83.5434 12.3602 84.7205 11.7677C85.8976 11.1751 86.7804 10.1382 87.2954 8.87907L86.0448 8.95313C86.7804 10.5826 86.854 12.4343 86.5597 14.2859C86.2655 16.1376 85.6769 17.9893 84.8677 19.6188C84.0584 21.2482 82.7342 22.6555 81.1157 23.174C79.4972 23.6924 77.5844 23.3962 75.6716 23.174L69.9333 22.3592C68.0206 22.063 66.1078 21.8408 64.195 21.6186C63.2386 21.5445 62.2087 21.4704 61.1787 21.6186C60.1488 21.7667 59.1924 22.2852 58.4567 22.9518C56.9118 24.2109 55.8818 25.9144 54.3369 27.1736C55.9554 26.1366 57.1325 24.4331 58.6774 23.3962C59.4131 22.8777 60.2959 22.5074 61.2523 22.3592C62.1351 22.2852 63.0915 22.3592 64.0479 22.5074C67.8734 23.174 71.699 23.8406 75.4509 24.5072C76.4073 24.6553 77.3637 24.8775 78.3937 24.8775C79.4236 24.9516 80.4536 24.8775 81.4835 24.5812C82.5135 24.285 83.4699 23.6184 84.2056 22.8777C84.9412 22.137 85.6033 21.2482 86.0448 20.3594C87.0011 18.5078 87.5897 16.582 87.884 14.5822C88.1782 12.5824 88.1782 10.3604 87.2219 8.43467C87.0747 8.06434 86.6333 7.9162 86.339 8.1384C86.1919 8.21247 86.0448 8.3606 85.9712 8.50874C85.6769 9.39754 84.9412 10.2123 84.132 10.7307C83.2492 11.2492 82.2928 11.3233 81.2628 11.1751C80.2329 11.027 79.1294 10.5826 78.0258 10.2863C76.9223 9.99007 75.7452 9.84194 74.5681 9.76787C72.2139 9.6938 69.8598 10.0641 67.7263 10.9529C65.4457 11.6195 63.4593 12.8787 61.8408 14.5081Z" fill="black"/>
<path d="M86.854 15.7673C85.9712 15.9154 85.2355 15.8413 84.4998 15.6932C83.7641 15.5451 82.9549 15.3229 82.1456 15.1747C81.3364 15.0266 80.5271 14.9525 79.7179 14.9525C78.9086 14.9525 78.0258 14.9525 77.2166 15.1007C77.9523 15.5451 78.7615 15.8413 79.5708 16.0635C80.38 16.2857 81.1893 16.5079 81.9985 16.6561C82.8078 16.8042 83.617 16.8783 84.4998 16.8783C85.3826 16.8042 86.339 16.4339 86.854 15.7673Z" fill="black"/>
<path d="M85.6769 19.3225C84.0584 19.2484 82.5135 18.804 81.0421 18.2115C79.5708 17.6189 78.0994 16.9523 76.4809 16.4339C75.6717 16.2117 74.7888 16.0635 73.906 16.0635C73.0232 16.0635 72.1404 16.2117 71.3311 16.5079C69.7126 17.0264 68.3148 17.9893 67.0642 19.1003C68.6091 18.5077 70.0805 17.9152 71.6254 17.6189C73.0968 17.3227 74.5681 17.4708 76.1131 17.9152C77.5844 18.2856 79.1294 18.9522 80.7479 19.3225C82.3664 19.7669 84.132 19.915 85.6769 19.3225Z" fill="black"/>
<path d="M64.1215 5.99046C62.503 6.50893 60.8845 7.32366 59.4867 8.21247C58.0153 9.17533 56.6911 10.2863 55.514 11.6936C54.9254 12.3602 54.4105 13.1009 53.9691 13.8415C53.5276 14.5822 53.1598 15.3969 52.8655 16.2857C52.277 17.9893 52.0563 19.7669 52.277 21.4704C52.6448 19.7669 53.1598 18.2115 53.8955 16.7301C54.6312 15.2488 55.5875 13.9156 56.6175 12.6565C57.6475 11.3973 58.8981 10.2863 60.1488 9.17534C61.3994 8.1384 62.7972 7.10147 64.1215 5.99046Z" fill="black"/>
<path d="M54.6312 9.10127C53.6012 9.6938 52.7184 10.5085 51.9827 11.3973C51.247 12.2861 50.5849 13.3231 50.1435 14.4341C49.7021 15.5451 49.4078 16.7301 49.2607 17.9152C49.1136 19.1003 49.1871 20.2854 49.4814 21.4704C49.7757 20.2854 50.0699 19.2484 50.3642 18.1374C50.6585 17.1005 51.0999 16.0635 51.4677 15.0266C51.9091 13.9897 52.3506 13.0268 52.9391 12.0639C53.4541 11.1011 54.0426 10.1382 54.6312 9.10127Z" fill="black"/>
<path d="M48.8929 12.4343C48.2307 12.9527 47.7158 13.6934 47.3479 14.5081C46.9801 15.2488 46.6858 16.1376 46.6122 16.9523C46.4651 17.8411 46.4651 18.6559 46.6122 19.5447C46.7594 20.4335 47.0536 21.2482 47.5686 21.9148L47.7893 19.4706C47.8629 18.6559 47.9365 17.9152 48.0836 17.1745C48.2307 16.4339 48.3043 15.6191 48.4514 14.8785C48.5986 14.0637 48.8193 13.249 48.8929 12.4343Z" fill="black"/>
<path d="M50.6585 26.6551C50.2171 27.4698 50.0699 28.4327 50.1435 29.3956C50.2171 30.3584 50.3642 31.2472 50.6585 32.136C50.9528 33.0248 51.3206 33.8396 51.8356 34.6543C52.3506 35.395 53.0127 36.1356 53.8955 36.58C53.5276 35.7653 53.1598 34.9506 52.8655 34.1358C52.5713 33.3211 52.3506 32.5064 52.0563 31.6916C51.762 30.8769 51.5413 30.0622 51.247 29.2474C50.9528 28.4327 50.8056 27.618 50.6585 26.6551Z" fill="black"/>
<path d="M48.3043 26.8773C47.3479 28.2846 47.2008 30.1362 47.6422 31.7657C47.8629 32.5804 48.2307 33.3211 48.6721 34.0618C49.1136 34.7284 49.7021 35.395 50.3642 35.8394C50.2171 35.0246 49.9228 34.284 49.7021 33.5433C49.4814 32.8026 49.2607 32.136 49.04 31.3954C48.8193 30.6547 48.6721 29.9881 48.5986 29.2474C48.4514 28.4327 48.4514 27.692 48.3043 26.8773Z" fill="black"/>
<path d="M45.9501 27.2476C45.4352 27.9142 45.1409 28.803 44.9202 29.6178C44.773 30.5066 44.773 31.3954 44.9202 32.2101C45.0673 33.0989 45.3616 33.9136 45.803 34.6543C46.2444 35.395 46.8329 36.0616 47.5686 36.506C47.2744 35.6912 47.0536 34.9506 46.8329 34.2099C46.6122 33.4692 46.4651 32.7286 46.318 31.9879C46.1708 31.2472 46.0973 30.5066 46.0237 29.6918C46.0237 28.8771 46.0237 28.0624 45.9501 27.2476Z" fill="black"/>
<path d="M43.3752 28.1364C42.7131 28.5808 42.051 29.3215 41.8303 30.2103C41.6096 31.0991 41.6096 31.9879 41.7567 32.8026C41.9039 33.6174 42.1981 34.5062 42.6396 35.2468C43.081 35.9875 43.7431 36.6541 44.4788 37.0244C44.1845 36.2097 43.8902 35.5431 43.6695 34.8024C43.4488 34.0618 43.3017 33.3952 43.1545 32.6545C43.0074 31.9138 42.9338 31.1732 42.9338 30.4325C42.9338 29.7659 43.1545 29.0252 43.3752 28.1364Z" fill="black"/>
<path d="M69.0505 31.3954C68.9034 30.6547 68.6091 29.9881 68.0206 29.4696C67.7263 29.1734 67.3585 28.9512 66.917 28.803C66.4756 28.6549 66.0342 28.6549 65.5928 28.729C64.7836 28.8771 64.1215 29.3215 63.6065 29.914C63.0915 30.5066 62.7972 31.1732 62.7972 31.9138C63.3858 31.4694 63.8272 31.025 64.3422 30.8028C64.8571 30.5066 65.3721 30.2844 65.8871 30.2103C66.4021 30.1362 66.7699 30.1362 67.2849 30.3584C67.8734 30.5806 68.3884 31.025 69.0505 31.3954Z" fill="black"/>
<path d="M81.7778 28.8771C81.6307 28.2105 81.2628 27.618 80.7479 27.1736C80.4536 26.9514 80.0857 26.7292 79.7179 26.6551C79.3501 26.581 78.8351 26.581 78.4672 26.7292C77.7316 27.0254 77.2166 27.4698 76.7752 27.9883C76.3338 28.5068 76.0395 29.1734 76.0395 29.84C76.628 29.4696 77.0694 29.1734 77.5844 28.8771C78.0258 28.5808 78.5408 28.2846 78.9822 28.1364C79.3501 27.9883 79.6443 27.9883 80.1593 28.1364C80.6743 28.3586 81.1893 28.6549 81.7778 28.8771Z" fill="black"/>
<path d="M73.6117 35.9875C73.7589 38.2095 74.4946 40.3575 75.5245 42.2832C75.8188 42.8017 76.0395 43.2461 76.3338 43.6905C76.4809 43.9127 76.628 44.1349 76.7752 44.3571C76.8487 44.5052 76.9223 44.5793 76.9223 44.5793C76.9223 44.5793 76.9223 44.5793 76.9223 44.5052C76.9223 44.5052 76.9223 44.5052 76.8487 44.5052C75.9659 45.0237 74.936 45.4681 73.906 45.6903C75.0095 45.6903 76.1131 45.4681 77.143 45.0237C77.2166 45.0237 77.2902 44.9496 77.4373 44.8015C77.5109 44.6533 77.5109 44.4311 77.5109 44.3571C77.4373 44.1349 77.3637 44.0608 77.2902 43.9127C77.143 43.6905 76.9959 43.4683 76.8487 43.2461C76.5545 42.8017 76.3338 42.3573 76.0395 41.8388C75.1567 39.9871 74.3474 38.0614 73.6117 35.9875Z" fill="black"/>
<path d="M77.658 51.8378C76.4809 51.5415 75.2302 51.3934 74.1267 51.0231C73.0232 50.7268 71.9932 50.2083 71.0369 49.3936C71.2576 49.9861 71.699 50.5046 72.2139 50.8749C72.7289 51.2453 73.3175 51.5415 73.906 51.6897C75.2302 52.1341 76.4809 52.1341 77.658 51.8378Z" fill="black"/>
<path d="M71.2576 48.2085C70.8162 48.5789 70.5955 49.0233 70.4483 49.4677C70.3012 49.9121 70.2276 50.3565 70.3012 50.949C70.7426 50.5787 70.9633 50.1343 71.1104 49.6899C71.3311 49.2455 71.4047 48.727 71.2576 48.2085Z" fill="black"/>
<path d="M62.8708 45.3199C62.8708 46.6531 63.9008 47.9863 65.3721 48.0604C66.1078 48.1345 66.8435 47.8382 67.3585 47.3938C67.8734 46.8753 68.2413 46.1347 68.2413 45.394C68.2413 44.6533 67.947 43.9127 67.3585 43.3942C66.8435 42.8757 66.0342 42.6535 65.3721 42.7276C63.9743 42.6535 62.8708 43.9867 62.8708 45.3199ZM62.8708 45.3199C62.8708 44.6533 63.1651 43.9867 63.6801 43.5423C64.195 43.0979 64.7836 42.8757 65.4457 42.9498C66.6963 43.0239 67.5792 44.1349 67.5792 45.3199C67.5792 46.4309 66.6963 47.616 65.4457 47.6901C64.8571 47.7641 64.195 47.5419 63.6801 47.0975C63.1651 46.6531 62.8708 45.9865 62.8708 45.3199Z" fill="black"/>
<path d="M81.1157 43.9867C81.1157 44.8755 81.4835 45.6903 82.2192 46.2828C82.5871 46.5791 83.0285 46.8013 83.5434 46.8753C84.0584 46.9494 84.5734 46.9494 85.0884 46.7272C85.2355 46.6531 85.3091 46.505 85.3826 46.3569V46.2087C85.6769 44.7274 85.7505 43.172 85.5298 41.6907V41.5425C85.5298 41.3944 85.3826 41.2463 85.2355 41.1722C84.7205 40.95 84.2056 40.8759 83.6906 40.95C83.1756 41.0241 82.7342 41.2463 82.3663 41.5425C81.4835 42.2832 81.1157 43.172 81.1157 43.9867ZM81.1157 43.9867C81.1157 43.5423 81.2628 43.0979 81.4835 42.7276C81.7042 42.3573 82.0721 42.1351 82.4399 41.9869C82.8078 41.8388 83.2492 41.8388 83.617 41.9129C83.9849 41.9869 84.2791 42.1351 84.5734 42.3573L84.2791 41.8388C84.132 43.3201 84.132 44.7274 84.2056 46.2087L84.4998 45.7643C83.9849 46.1347 83.1756 46.3569 82.4399 45.9865C82.0721 45.8384 81.7042 45.5421 81.4835 45.1718C81.2628 44.8755 81.1157 44.4311 81.1157 43.9867Z" fill="black"/>
<path d="M66.917 40.2834C66.3888 40.2834 65.9607 39.0564 65.9607 37.5429C65.9607 36.0294 66.3888 34.8024 66.917 34.8024C67.4452 34.8024 67.8734 36.0294 67.8734 37.5429C67.8734 39.0564 67.4452 40.2834 66.917 40.2834Z" fill="black"/>
<path d="M79.865 38.3577C79.2962 38.3577 78.8351 37.0644 78.8351 35.469C78.8351 33.8737 79.2962 32.5804 79.865 32.5804C80.4339 32.5804 80.895 33.8737 80.895 35.469C80.895 37.0644 80.4339 38.3577 79.865 38.3577Z" fill="black"/>
<path d="M74.5681 61.0221C74.3474 61.985 74.2739 63.0219 74.2003 63.9848C74.1267 64.9476 74.1267 65.9105 74.1267 66.8734C74.1267 67.8362 74.1267 68.7991 74.2003 69.762C74.2739 70.7248 74.3474 71.6877 74.5681 72.7246C74.936 71.7618 75.1567 70.7989 75.3038 69.836C75.4509 68.8732 75.5245 67.8362 75.5245 66.8734C75.5245 65.9105 75.4509 64.8736 75.3038 63.9107C75.1567 62.9478 75.0095 61.985 74.5681 61.0221Z" fill="black"/>
<path d="M8.7982 118.128C9.90172 114.35 11.226 110.721 12.8445 107.166C14.463 103.61 16.3022 100.129 18.4356 96.9445C20.5691 93.7596 23.0704 90.6488 26.3074 88.7971C27.9259 87.9083 29.7651 87.2417 31.5308 87.1677C33.37 87.0195 35.2092 87.4639 36.7541 88.3527C38.299 89.3156 39.5497 90.7229 40.5061 92.2783C41.4625 93.9077 41.9774 95.6853 42.1981 97.537C42.6396 101.314 41.9774 105.166 41.0211 108.869C39.0347 116.35 35.577 123.46 30.8686 129.608L31.5308 129.46C27.8524 127.238 24.1739 125.164 20.3484 123.238C16.5229 121.312 12.6973 119.535 8.72465 117.905C12.5502 119.757 16.3022 121.683 20.0541 123.831C23.7325 125.905 27.4109 128.053 31.0158 130.349C31.2365 130.497 31.5308 130.423 31.6779 130.275C36.6805 124.127 40.2854 116.943 42.3453 109.24C43.3752 105.462 44.1845 101.388 43.6695 97.3148C43.1545 93.3152 41.0946 89.2415 37.4898 87.0936C35.7241 85.9826 33.5171 85.6123 31.4572 85.7604C29.3973 85.9085 27.411 86.6492 25.6453 87.6121C23.8797 88.649 22.4083 90.0563 21.0841 91.5376C19.7599 93.0189 18.6563 94.6484 17.6264 96.3519C15.5665 99.6849 13.8008 103.24 12.3295 106.869C10.8581 110.499 9.60745 114.276 8.7982 118.128Z" fill="#174075"/>
<path d="M33.2228 127.238C31.5308 125.756 29.6916 124.497 27.8524 123.312C26.0132 122.127 24.0268 121.016 22.114 119.979C20.1277 118.942 18.1414 118.054 16.0815 117.239C14.0216 116.424 11.9616 115.683 9.75461 115.165C11.6674 116.276 13.6537 117.313 15.5665 118.276L21.3784 121.312L27.2638 124.349C29.2502 125.312 31.2365 126.349 33.2228 127.238Z" fill="#174075"/>
<path d="M26.1603 126.793C25.2039 127.904 24.4682 129.164 23.7325 130.423C23.0704 131.682 22.4083 133.015 21.8933 134.348C21.3784 135.681 20.8634 137.089 20.4956 138.496C20.1277 139.903 19.8334 141.31 19.6863 142.792C20.422 141.533 21.0105 140.199 21.5255 138.866C22.1141 137.533 22.629 136.274 23.2176 134.941C23.7326 133.608 24.2475 132.274 24.7625 130.941C25.2775 129.608 25.7925 128.275 26.1603 126.793Z" fill="black"/>
<path d="M10.196 118.572C6.81187 125.016 4.08986 131.83 2.10352 138.866C1.58854 140.644 1 142.421 1 144.347C1 145.31 1.14712 146.347 1.58853 147.236C2.02994 148.125 2.6185 148.939 3.28061 149.606C3.94273 150.273 4.60483 150.939 5.26694 151.532L7.2533 153.383L11.2995 157.013C16.7436 161.827 22.2612 166.493 28.0731 170.863C29.5444 171.974 30.9422 173.011 32.4871 174.048L34.6942 175.603L35.7977 176.344C36.1656 176.566 36.607 176.863 37.1219 177.011C38.1519 177.307 39.1083 176.937 39.9911 176.714C40.8739 176.418 41.6832 176.122 42.566 175.826C44.2581 175.159 45.9501 174.418 47.4951 173.604C45.803 174.344 44.1109 174.937 42.4188 175.455C41.536 175.752 40.7268 175.974 39.844 176.196C38.9611 176.418 38.0783 176.64 37.3427 176.344C36.607 176.048 35.9449 175.381 35.2092 174.863L33.0757 173.233C31.6779 172.122 30.2065 171.011 28.8087 169.9C23.144 165.382 17.7 160.642 12.3295 155.828L8.28324 152.198C6.95901 151.013 5.56122 149.754 4.31057 148.569C3.72202 147.976 3.20704 147.31 2.8392 146.569C2.47136 145.829 2.32421 145.014 2.32421 144.199C2.32421 142.496 2.76564 140.792 3.20705 139.014C5.04625 132.126 7.32685 125.238 10.196 118.572Z" fill="black"/>
<path d="M14.6101 140.199C17.185 141.236 19.4656 142.94 21.5255 144.866C23.5854 146.791 25.4246 148.865 27.2638 151.013L38.2255 163.827C38.4462 164.049 38.6669 164.123 38.9612 164.049C41.6096 163.16 44.2581 162.42 46.9065 161.753C48.2307 161.383 49.6285 161.086 50.9528 160.79C51.6149 160.642 52.277 160.494 52.9391 160.42C53.6012 160.346 54.1898 160.494 54.7783 160.79C55.3669 161.086 55.9554 161.457 56.5439 161.827L58.236 163.012C59.4131 163.827 60.5166 164.642 61.6201 165.456C62.7237 166.271 63.8272 167.16 64.2686 168.493C64.4893 169.16 64.3422 169.9 63.9008 170.419C63.5329 171.011 62.8708 171.382 62.1351 171.233C62.7972 171.456 63.5329 171.085 63.9743 170.493C64.4157 169.9 64.6364 169.16 64.4157 168.419C64.2686 167.678 63.8272 167.086 63.3858 166.567C62.9444 166.049 62.3558 165.604 61.8409 165.086C60.7373 164.197 59.6338 163.308 58.5303 162.494L56.8382 161.234C56.2497 160.79 55.7347 160.42 55.0726 160.049C54.4105 159.679 53.6012 159.457 52.8655 159.531C52.1299 159.531 51.3942 159.679 50.7321 159.753C49.3343 159.975 48.01 160.272 46.6122 160.494C43.8902 161.086 41.1682 161.679 38.4462 162.494L39.1819 162.716L27.6317 150.421C25.7189 148.347 23.8061 146.347 21.5991 144.495C19.6127 142.718 17.2586 141.088 14.6101 140.199Z" fill="black"/>
<path d="M74.6417 72.3543C73.2439 72.8728 71.8461 73.3172 70.4483 73.6875C69.0505 74.0578 67.6527 74.3541 66.2549 74.5763C64.8571 74.7985 63.4593 74.8726 61.988 74.9466C60.5902 74.9466 59.1188 74.9466 57.6475 74.8726C58.9717 75.5392 60.4431 75.9095 61.988 76.1317C63.4593 76.3539 65.0043 76.3539 66.4756 76.1317C67.947 75.9095 69.4184 75.4651 70.8162 74.8726C72.2875 74.206 73.6117 73.3912 74.6417 72.3543Z" fill="black"/>
<path d="M60.8109 86.3529C61.473 90.6488 62.2087 94.9447 62.7972 99.1665C63.3858 103.462 64.0479 107.758 64.5629 112.054C65.4457 120.646 66.917 129.238 68.0206 137.829C68.5355 142.125 69.0505 146.421 69.4184 150.791L70.4483 163.753C71.1104 172.419 71.2576 181.01 71.0369 189.676L71.8461 188.935C69.4919 188.861 67.1378 188.787 64.7836 188.713C62.4294 188.565 60.0752 188.417 57.721 188.195C55.3669 187.973 53.0127 187.75 50.6585 187.38C48.3043 187.084 45.9501 186.713 43.596 186.343L43.9638 186.787C44.1109 183.158 44.2581 179.603 44.3316 175.974C44.3316 175.9 44.3316 175.9 44.2581 175.9C44.1845 175.9 44.1845 175.9 44.1845 175.974C43.8167 179.529 43.4488 183.158 43.1545 186.713C43.1545 186.936 43.3017 187.084 43.4488 187.158C45.803 187.676 48.0836 188.121 50.4378 188.491C52.792 188.861 55.1461 189.232 57.5003 189.528C59.8545 189.824 62.2087 190.046 64.6364 190.195C66.9906 190.343 69.4184 190.491 71.7725 190.491C72.214 190.491 72.5818 190.12 72.5818 189.75C72.6554 185.38 72.5818 181.084 72.4347 176.714C72.3611 174.566 72.214 172.344 72.0668 170.197L71.8461 166.938C71.7725 165.827 71.6254 164.79 71.4783 163.679C70.3747 155.087 69.4184 146.421 68.5355 137.829C67.7263 129.164 66.9906 120.572 65.8871 111.906C65.2985 107.61 64.5629 103.314 63.7536 99.0924C62.9444 94.7965 61.988 90.5747 60.958 86.3529C60.958 86.2789 60.8845 86.2789 60.8845 86.2789C60.8109 86.2789 60.8109 86.3529 60.8109 86.3529Z" fill="#174075"/>
<path d="M37.2691 121.387C37.8576 124.794 38.7404 128.053 39.7704 131.386C40.7268 134.644 41.8303 137.903 42.7131 141.162C43.6695 144.421 44.4052 147.68 44.9202 151.087C45.4352 154.42 45.5823 157.827 45.3616 161.234C46.1708 157.901 46.318 154.42 46.0237 150.939C45.7294 147.458 44.9937 144.125 44.1109 140.792C43.1545 137.459 42.051 134.274 40.8004 131.015C39.6233 127.83 38.4462 124.645 37.2691 121.387Z" fill="#174075"/>
<path d="M108.115 158.198C108.262 159.087 108.557 159.827 108.63 160.568C108.777 161.309 108.777 161.975 108.557 162.494C108.336 163.086 107.895 163.753 107.453 164.419C107.012 165.086 106.644 165.827 106.35 166.641C107.085 166.197 107.747 165.678 108.336 165.086C108.924 164.493 109.513 163.901 109.954 162.938C110.322 161.975 110.175 160.864 109.807 160.123C109.366 159.383 108.777 158.716 108.115 158.198Z" fill="black"/>
<path d="M109.513 162.494C109.439 163.531 109.954 164.419 110.102 165.234C110.322 166.049 110.102 166.493 109.587 167.308C109.145 168.123 108.704 168.863 108.189 169.456C107.674 170.048 107.012 170.567 106.055 170.715C106.497 171.011 107.012 171.011 107.527 170.937C108.042 170.863 108.557 170.641 108.998 170.345C109.881 169.752 110.396 168.863 110.911 168.049C111.131 167.678 111.426 167.16 111.499 166.567C111.573 165.975 111.426 165.308 111.205 164.864C110.69 163.827 110.028 163.308 109.513 162.494Z" fill="black"/>
<path d="M110.837 166.567C110.837 167.086 110.911 167.604 110.911 168.123L110.984 168.863C110.984 169.086 111.058 169.382 111.058 169.53C111.058 169.678 111.058 169.678 110.911 169.826C110.837 169.974 110.617 170.197 110.469 170.345C110.175 170.715 109.881 171.085 109.587 171.456L108.777 172.641C108.483 173.011 108.189 173.307 107.894 173.53C107.6 173.752 107.306 173.9 106.865 173.826C106.497 173.826 106.055 173.604 105.835 173.085C105.761 173.307 105.835 173.678 105.982 173.9C106.129 174.122 106.35 174.344 106.644 174.492C106.938 174.641 107.232 174.715 107.527 174.715C107.821 174.715 108.115 174.641 108.409 174.492C108.998 174.27 109.366 173.826 109.734 173.455C110.102 173.085 110.396 172.641 110.69 172.27C110.984 171.9 111.279 171.456 111.573 171.011C111.72 170.789 111.867 170.641 112.014 170.345C112.088 170.197 112.161 170.048 112.235 169.826C112.235 169.604 112.235 169.382 112.161 169.234C112.088 168.937 111.941 168.715 111.867 168.493L111.499 167.826C111.426 167.456 111.131 167.012 110.837 166.567Z" fill="black"/>
<path d="M77.4373 83.0199C77.658 87.3158 77.9523 91.6117 78.173 95.9816L79.0558 108.869C79.6443 117.461 80.3065 126.127 80.9686 134.719C81.3364 139.014 81.7042 143.31 82.0721 147.606L83.2492 160.494C83.6906 164.79 84.0584 169.086 84.4263 173.381C84.8677 177.677 85.0884 181.973 85.3091 186.269C85.3091 186.417 85.4562 186.491 85.5298 186.491C88.1047 186.417 90.6796 186.121 93.1809 185.528C95.6822 185.01 98.1835 184.269 100.611 183.38C101.788 182.936 103.039 182.418 104.143 181.825C104.731 181.529 105.32 181.232 105.908 180.936C106.202 180.788 106.497 180.64 106.791 180.418C106.938 180.27 107.085 180.121 107.232 179.899C107.38 179.677 107.38 179.455 107.38 179.233C107.38 178.788 107.306 178.492 107.306 178.196L107.159 177.233L106.938 175.307L106.423 171.456C105.172 161.234 104.143 150.939 103.48 140.644L103.039 132.941C102.892 130.349 102.745 127.756 102.745 125.238C102.671 120.053 102.745 114.943 102.745 109.758C102.745 104.573 102.892 99.4627 103.039 94.2781C103.113 91.6857 103.26 89.0934 103.407 86.5751C103.48 85.316 103.554 83.9828 103.701 82.7236C103.775 81.4645 103.995 80.1313 104.143 78.8722C104.143 78.724 104.069 78.5759 103.995 78.5018C102.745 77.539 101.494 76.7242 100.17 76.0576C98.8456 75.317 97.4478 74.7985 96.05 74.206C94.6522 73.6875 93.1809 73.2431 91.7095 72.8728C90.9738 72.6506 90.2381 72.5765 89.5025 72.3543C88.7668 72.2062 88.0311 72.1321 87.2954 71.984C87.2219 71.984 87.2219 71.984 87.2219 72.058C87.2219 72.1321 87.2219 72.1321 87.2954 72.1321C88.0311 72.2802 88.7668 72.4284 89.5025 72.5765C90.2381 72.7987 90.9738 72.9468 91.6359 73.169C93.0337 73.6134 94.5051 74.0578 95.8293 74.6504C97.2271 75.2429 98.5513 75.9095 99.802 76.5761C101.053 77.3168 102.377 78.1315 103.48 79.0203L103.333 78.65C103.113 79.9091 102.892 81.1682 102.745 82.5014C102.598 83.7606 102.45 85.0938 102.303 86.3529C102.083 88.9453 101.862 91.5376 101.715 94.1299C101.421 99.3146 101.273 104.499 101.126 109.684C101.053 114.869 100.979 120.053 101.053 125.238C101.126 130.423 101.494 135.607 101.862 140.792C102.598 151.087 103.701 161.457 105.172 171.678L106.35 179.307C106.35 179.529 106.276 179.603 106.129 179.825C105.982 179.973 105.687 180.121 105.393 180.27C104.878 180.566 104.29 180.862 103.701 181.158C102.598 181.751 101.421 182.269 100.243 182.788C97.8892 183.751 95.4615 184.565 92.9602 185.084C90.4588 185.602 87.9575 185.973 85.3826 186.047L85.8976 186.269C85.6033 181.973 85.3827 177.677 85.0148 173.381C84.647 169.086 84.4263 164.79 84.132 160.494L83.2492 147.606C82.9549 143.31 82.5871 139.014 82.2928 134.719C81.6307 126.127 80.8214 117.535 80.0857 108.943L78.9087 96.0557C78.4672 91.7598 78.0994 87.4639 77.5844 83.1681C77.5844 83.094 77.5109 83.094 77.5109 83.094C77.5109 82.9459 77.4373 83.0199 77.4373 83.0199Z" fill="#174075"/>
<path d="M51.5413 164.864C52.277 165.012 53.0862 164.938 53.7484 164.938C54.1162 164.938 54.4105 165.012 54.7047 165.16C54.999 165.308 55.2197 165.456 55.4404 165.678C56.544 166.641 57.6475 167.604 58.6774 168.567C59.7074 169.53 60.7373 170.567 61.6202 171.678C61.8409 171.974 62.0616 172.27 62.2087 172.493C62.3558 172.789 62.4294 172.937 62.4294 173.233C62.3558 173.826 61.6937 174.27 61.0316 174.641C61.3994 174.566 61.7673 174.492 62.1351 174.344C62.503 174.196 62.8708 173.9 63.0915 173.455C63.3122 173.011 63.2386 172.419 63.0915 172.048C62.9444 171.604 62.7237 171.308 62.5765 171.011C61.8409 169.678 60.8109 168.493 59.7074 167.456C58.6038 166.419 57.3532 165.53 56.1761 164.716C55.8818 164.493 55.4404 164.271 54.999 164.197C54.5576 164.123 54.1162 164.123 53.7484 164.197C52.9391 164.419 52.277 164.716 51.5413 164.864Z" fill="black"/>
<path d="M49.4078 168.345C50.2907 168.419 51.1735 168.493 51.9827 168.567C52.4241 168.567 52.8655 168.567 53.1598 168.641C53.4541 168.715 53.6748 168.937 54.0426 169.234C55.2933 170.345 56.6175 171.456 57.8682 172.641C58.4567 173.233 59.1188 173.826 59.7074 174.418C59.8545 174.566 60.0016 174.715 60.0752 174.863C60.2224 175.011 60.2959 175.159 60.3695 175.233C60.3695 175.233 60.3695 175.307 60.3695 175.381C60.2959 175.529 60.2224 175.752 60.1488 175.9C60.0016 176.27 59.7809 176.566 59.5602 176.788C59.3395 177.011 59.1188 177.011 58.751 176.937C58.3832 176.863 57.9417 176.566 57.5003 176.492C57.0589 176.344 56.6911 176.27 56.2497 176.122C56.6175 176.344 56.9854 176.64 57.3532 176.863C57.721 177.085 58.0153 177.307 58.4567 177.603C58.6774 177.751 58.8981 177.825 59.1924 177.825C59.4867 177.825 59.7809 177.751 60.0752 177.603C60.5902 177.307 60.8845 176.937 61.1787 176.492C61.3259 176.27 61.3994 176.122 61.5466 175.9C61.6201 175.752 61.6937 175.603 61.6937 175.381C61.7673 175.159 61.6937 174.937 61.6202 174.715C61.473 174.344 61.3259 174.196 61.2523 173.974C61.1052 173.752 60.958 173.604 60.8109 173.381C60.2223 172.715 59.5602 172.122 58.9717 171.456C57.6475 170.271 56.3232 169.16 54.8519 168.197C54.484 167.975 54.0426 167.604 53.4541 167.604C52.9391 167.604 52.4977 167.678 52.0563 167.752C51.0999 167.975 50.2171 168.123 49.4078 168.345Z" fill="black"/>
<path d="M46.4651 170.048C48.2307 169.974 50.0699 169.9 51.5413 170.567C51.9091 170.715 52.277 170.937 52.4241 171.159C52.7184 171.456 52.9391 171.752 53.2334 172.122C53.7484 172.789 54.1898 173.53 54.6312 174.27C54.8519 174.641 54.999 175.011 55.1461 175.381C55.1461 175.455 55.2197 175.529 55.2197 175.603V175.677C55.2197 175.752 55.2197 175.9 55.1461 175.974C54.999 176.196 54.8519 176.344 54.5576 176.344C54.2633 176.418 53.9691 176.344 53.6012 176.196C52.9391 175.9 52.2034 175.381 51.5413 174.863C50.8792 174.344 50.2171 173.752 49.555 173.159L49.4814 173.085C49.4078 173.011 49.3343 173.011 49.2607 173.011C48.525 173.233 47.7158 173.455 46.9801 173.678C47.7893 173.678 48.5986 173.678 49.3343 173.604L49.04 173.53C49.555 174.27 50.1435 175.011 50.8056 175.677C51.4677 176.344 52.1298 176.937 53.0862 177.455C53.6012 177.677 54.1162 177.825 54.7783 177.751C55.4404 177.677 56.029 177.233 56.3968 176.714C56.5439 176.418 56.6911 176.122 56.6911 175.752C56.6911 175.677 56.6911 175.529 56.6911 175.455L56.6175 175.233C56.6175 175.085 56.5439 174.937 56.4704 174.863C56.2497 174.344 56.029 173.974 55.8083 173.53C55.2933 172.715 54.7783 171.974 54.1898 171.233C53.8955 170.863 53.6012 170.567 53.2334 170.197C52.792 169.826 52.3506 169.604 51.8356 169.456C50.8792 169.16 49.9228 169.16 49.04 169.234C48.1572 169.53 47.2743 169.752 46.4651 170.048Z" fill="black"/>
<path d="M47.8629 172.344C47.5686 172.344 47.3479 172.419 47.2008 172.493C47.0536 172.567 46.9801 172.641 46.9801 172.715C46.9801 172.789 46.9801 172.863 47.0536 173.011C47.1272 173.085 47.2743 173.233 47.5686 173.455C47.8629 173.455 48.0836 173.381 48.1572 173.381C48.3043 173.307 48.3779 173.233 48.3779 173.159C48.3779 173.085 48.3779 172.937 48.3043 172.863C48.3043 172.567 48.1572 172.493 47.8629 172.344Z" fill="black"/>
<path d="M46.6122 172.641C46.4651 172.937 46.4651 173.159 46.4651 173.307C46.4651 173.455 46.5387 173.604 46.6122 173.678C46.6858 173.752 46.833 173.826 46.9801 173.826C47.1272 173.826 47.3479 173.752 47.6422 173.604C47.7893 173.307 47.7893 173.085 47.7893 172.937C47.7893 172.789 47.7158 172.641 47.6422 172.567C47.5686 172.493 47.4215 172.419 47.2744 172.493C47.0536 172.419 46.9065 172.493 46.6122 172.641Z" fill="black"/>
<path d="M83.3227 155.235C82.2928 154.791 81.1893 154.568 80.1593 154.42C79.0558 154.346 77.9523 154.346 76.9223 154.42C75.8188 154.494 74.7888 154.643 73.7589 154.865C72.7289 155.087 71.699 155.309 70.5955 155.605C71.699 155.902 72.7289 155.976 73.8325 156.05C74.936 156.05 75.9659 156.05 76.9959 155.976C78.0258 155.902 79.0558 155.754 80.1593 155.679C81.1893 155.457 82.2192 155.383 83.3227 155.235Z" fill="black"/>
<path d="M83.5434 157.901C82.5135 157.605 81.41 157.457 80.38 157.383C79.3501 157.309 78.2465 157.235 77.2166 157.309C76.1866 157.309 75.0831 157.383 74.0532 157.531C73.5382 157.605 73.0232 157.679 72.5082 157.753C71.9933 157.901 71.4047 158.05 70.9633 158.346C71.4783 158.346 71.9933 158.346 72.5082 158.42C73.0232 158.494 73.5382 158.568 74.1267 158.568C75.1567 158.642 76.2602 158.716 77.2901 158.642C78.3201 158.642 79.4236 158.568 80.4536 158.42C81.41 158.42 82.5135 158.198 83.5434 157.901Z" fill="black"/>
<path d="M83.6906 160.346C82.6606 160.123 81.5571 160.049 80.5272 160.049C79.4972 160.049 78.3937 160.123 77.3637 160.198C76.3338 160.272 75.3038 160.494 74.2739 160.642C73.2439 160.864 72.214 161.086 71.184 161.383C72.214 161.679 73.3175 161.753 74.3474 161.753C75.3774 161.753 76.4809 161.753 77.5109 161.605C78.5408 161.457 79.5708 161.309 80.6007 161.086C81.6307 161.012 82.6606 160.79 83.6906 160.346Z" fill="black"/>
<path d="M46.7594 72.8728C44.9937 73.8356 43.3017 74.8726 41.6096 76.0576C39.9175 77.1686 38.299 78.3537 36.7541 79.5388C35.1356 80.7238 33.5907 81.983 32.0457 83.3162C30.5008 84.5753 29.0295 85.9085 27.6317 87.3899C29.3973 86.427 31.0894 85.3901 32.7814 84.205C34.4735 83.094 36.092 81.9089 37.6369 80.7239C39.2554 79.5388 40.8004 78.2796 42.3453 76.9464C43.8902 75.6873 45.3616 74.3541 46.7594 72.8728Z" fill="#174075"/>
<path d="M47.2744 80.1313C46.3915 80.6498 45.5823 81.3164 44.773 81.983C44.0374 82.6496 43.3017 83.3903 42.566 84.1309C41.9039 84.8716 41.2418 85.6863 40.5796 86.5011C39.9911 87.3158 39.4026 88.2046 38.9612 89.1675C39.844 88.649 40.6532 87.9824 41.4625 87.3158C42.1982 86.6492 42.9338 85.9085 43.6695 85.1679C44.3316 84.4272 44.9938 83.6125 45.6559 82.7977C46.2444 81.9089 46.833 81.0942 47.2744 80.1313Z" fill="#174075"/>
<path d="M103.48 82.1311C102.45 81.3164 101.347 80.6498 100.243 79.9832C99.1399 79.3166 97.9628 78.7981 96.7857 78.2056C95.6086 77.6871 94.4315 77.1686 93.1809 76.7242C92.0038 76.2798 90.7531 75.9095 89.4289 75.6873C90.4589 76.502 91.5624 77.1686 92.6659 77.8352C93.7694 78.4278 94.9465 79.0203 96.1236 79.6129C97.3007 80.1313 98.4778 80.6498 99.7284 81.0201C100.979 81.5386 102.23 81.9089 103.48 82.1311Z" fill="#174075"/>
<path d="M119.813 112.202C122.387 116.35 124.889 120.498 127.316 124.72C127.905 125.756 128.494 126.867 129.009 127.904C129.524 128.941 130.039 130.052 130.406 131.163C130.48 131.311 130.48 131.46 130.48 131.534V131.83C130.48 131.904 130.406 132.052 130.406 132.126C130.406 132.2 130.333 132.348 130.259 132.497C130.039 133.015 129.818 133.533 129.524 134.052C129.009 135.089 128.42 136.2 127.831 137.237C125.477 141.459 122.902 145.606 120.401 149.754C117.9 153.902 115.398 158.05 112.897 162.271C112.897 162.271 112.897 162.271 112.897 162.345C112.382 164.271 111.794 166.197 111.279 168.123C112.014 166.271 112.676 164.419 113.412 162.494V162.568C116.208 158.568 118.93 154.568 121.578 150.421C122.902 148.347 124.227 146.347 125.477 144.199C126.728 142.125 127.979 140.051 129.156 137.903C129.744 136.866 130.333 135.755 130.848 134.644C131.142 134.052 131.363 133.533 131.583 132.867C131.657 132.719 131.657 132.571 131.731 132.348C131.731 132.126 131.804 131.978 131.804 131.756V131.46L131.731 131.163C131.731 131.015 131.657 130.793 131.583 130.645C130.774 128.201 129.45 126.127 128.199 124.053C125.624 119.979 122.829 116.054 119.813 112.202Z" fill="black"/>
<path d="M116.723 132.422C116.355 131.311 115.84 130.275 115.251 129.312C114.663 128.349 114.074 127.386 113.412 126.423C112.75 125.46 112.088 124.571 111.279 123.757C110.543 122.942 109.734 122.053 108.777 121.387C109.292 122.423 109.734 123.46 110.322 124.423C110.911 125.386 111.499 126.349 112.161 127.312C112.824 128.201 113.486 129.164 114.221 129.978C115.031 130.867 115.84 131.682 116.723 132.422Z" fill="black"/>
<path d="M122.682 131.015C121.505 130.497 120.033 130.497 118.783 131.089C118.12 131.311 117.605 131.756 117.017 132.2C116.796 132.422 116.502 132.645 116.281 132.941C116.061 133.237 115.84 133.459 115.619 133.756C114.148 136.052 113.191 138.422 112.088 140.866C111.131 143.31 110.175 145.754 109.292 148.199L108.189 151.458C107.747 151.68 107.085 151.902 106.497 152.05C105.908 152.198 105.246 152.421 104.657 152.569H104.584C104.29 152.643 104.069 152.939 104.143 153.235C104.143 153.309 104.216 153.457 104.29 153.531L107.159 156.42C107.527 156.716 107.747 157.013 107.747 157.309C107.747 157.605 107.6 158.05 107.38 158.42C107.159 158.79 106.938 159.235 106.717 159.605C106.276 160.346 105.687 161.086 105.172 161.827C105.835 161.234 106.497 160.568 107.085 159.827C107.38 159.457 107.674 159.087 107.894 158.716C108.115 158.346 108.483 157.901 108.483 157.309C108.483 157.013 108.409 156.716 108.262 156.42C108.115 156.198 107.968 155.976 107.821 155.828L105.172 152.717L105.025 153.68C105.687 153.532 106.35 153.457 106.938 153.309C107.6 153.161 108.189 153.013 108.924 152.643C109.072 152.569 109.145 152.569 109.292 152.346C109.366 152.198 109.439 152.198 109.439 152.124L109.513 151.976L109.734 151.458L110.102 150.569L110.764 148.717C111.646 146.273 112.529 143.829 113.486 141.385C113.927 140.199 114.442 138.94 114.883 137.755C115.398 136.57 115.84 135.311 116.502 134.274C117.091 133.163 117.973 132.274 119.003 131.608C120.107 131.015 121.431 130.793 122.682 131.015Z" fill="black"/>
<path d="M102.083 123.905C103.26 123.757 104.437 123.312 105.54 122.868C106.644 122.423 107.747 121.905 108.777 121.312C109.881 120.794 110.911 120.127 111.941 119.535C112.971 118.942 114.001 118.276 114.957 117.535C116.943 116.054 118.635 114.276 120.107 112.276C121.505 110.276 122.682 108.054 123.344 105.61C123.417 105.388 123.344 105.24 123.27 105.092C121.725 102.87 120.18 100.648 118.562 98.4258L113.78 91.8339C112.161 89.6119 110.543 87.4639 108.924 85.2419L106.423 81.983C105.982 81.4645 105.614 80.872 105.172 80.3535L103.848 78.7981C105.467 81.0201 106.791 83.3903 108.336 85.6123C109.807 87.9083 111.279 90.1303 112.824 92.4264L117.385 99.1665C118.93 101.388 120.475 103.61 122.02 105.832L121.872 105.24C121.284 107.388 120.18 109.536 118.93 111.462C117.605 113.387 116.061 115.165 114.221 116.646C112.382 118.128 110.396 119.461 108.336 120.72C107.306 121.387 106.276 121.979 105.246 122.498C104.363 123.09 103.26 123.683 102.083 123.905Z" fill="#174075"/>
<path d="M121.137 103.166C119.739 104.944 118.415 106.721 117.017 108.425C115.619 110.128 114.221 111.832 112.676 113.387C111.131 114.943 109.513 116.35 107.747 117.535C105.835 118.646 103.922 119.757 102.083 121.09C104.216 120.35 106.276 119.535 108.262 118.572C110.322 117.535 112.088 116.054 113.706 114.424C115.251 112.795 116.649 111.017 117.9 109.091C119.15 107.24 120.254 105.24 121.137 103.166Z" fill="#174075"/>
<path d="M102.671 348.846C102.23 348.105 101.347 347.735 100.464 347.735C99.5813 347.661 98.7721 347.957 97.9628 348.179C97.2271 348.401 96.4914 348.697 95.8293 348.697L95.2408 348.772C95.0936 348.772 94.8729 348.772 94.7258 348.772C94.5787 348.772 94.358 348.772 94.2108 348.772H93.9166C93.843 348.772 93.6223 348.772 93.7694 348.772C93.7694 348.772 93.9166 348.846 93.9901 348.92C94.0637 348.994 94.0637 349.068 94.1373 349.142C94.1373 349.216 94.1373 349.068 94.1373 348.994L94.0637 348.401L93.9901 347.216C93.9166 346.401 93.843 345.661 93.6958 344.846C93.4751 343.291 93.2544 341.661 92.813 340.106C92.5923 341.735 92.5188 343.291 92.5188 344.92C92.5188 345.735 92.5188 346.55 92.5188 347.29L92.5923 348.475V349.068C92.5923 349.142 92.5923 349.216 92.6659 349.512C92.6659 349.66 92.7395 349.808 92.8866 349.957C93.0337 350.105 93.1809 350.179 93.328 350.253C93.6223 350.327 93.6223 350.327 93.7694 350.327H94.0637C94.2844 350.327 94.5051 350.327 94.7258 350.327C94.9465 350.327 95.1672 350.327 95.3879 350.253C95.6086 350.253 95.8293 350.179 95.9765 350.179C96.9328 349.957 97.6685 349.586 98.4042 349.216C99.1399 348.92 99.802 348.549 100.464 348.401C101.2 348.327 102.009 348.401 102.671 348.846Z" fill="black"/>
<path d="M107.968 339.661C110.469 338.032 113.118 336.625 115.84 335.662C117.238 335.217 118.635 334.847 120.033 334.625C121.431 334.403 122.902 334.329 124.3 334.403C127.169 334.551 129.965 335.291 132.466 336.699C133.717 337.439 134.968 338.18 135.63 339.365C135.998 339.958 136.145 340.55 136.145 341.217C136.145 341.883 135.85 342.476 135.335 342.92L135.262 342.994C135.115 343.142 135.115 343.291 135.188 343.439C135.262 343.513 135.262 343.513 135.335 343.513C135.924 343.661 136.365 344.328 136.439 345.068C136.513 345.809 136.292 346.55 136.071 347.29C136.439 346.624 136.807 345.883 136.807 344.994C136.807 344.55 136.733 344.105 136.513 343.735C136.292 343.365 135.998 342.994 135.556 342.772L135.63 343.365C136.365 342.92 136.807 342.031 136.954 341.217C137.101 340.402 136.88 339.439 136.513 338.773C135.703 337.291 134.379 336.328 133.055 335.514C131.731 334.699 130.333 334.106 128.788 333.662C127.316 333.218 125.772 332.995 124.227 332.921C121.137 332.773 118.047 333.44 115.251 334.625C112.676 335.884 110.102 337.587 107.968 339.661Z" fill="black"/>
<path d="M135.85 347.661C133.128 347.809 130.406 347.883 127.611 347.883H119.371C116.649 347.883 113.854 347.957 111.131 348.105C108.409 348.253 105.614 348.401 102.892 348.772C105.614 349.068 108.409 349.216 111.131 349.29C113.854 349.364 116.649 349.438 119.371 349.364C122.093 349.364 124.889 349.29 127.611 349.068C130.406 348.772 133.202 348.401 135.85 347.661Z" fill="black"/>
<path d="M135.188 343.365L124.815 343.291C121.357 343.291 117.9 343.291 114.442 343.291C110.984 343.365 107.527 343.365 104.069 343.587C100.611 343.735 97.1536 344.031 93.6958 344.55C97.1536 344.698 100.611 344.698 104.069 344.772C107.527 344.846 110.984 344.846 114.442 344.846C117.9 344.772 121.357 344.698 124.815 344.476C128.273 344.253 131.731 343.883 135.188 343.365Z" fill="black"/>
<path d="M133.496 348.031C133.79 347.661 133.938 347.29 134.085 346.92C134.158 346.55 134.232 346.179 134.232 345.809C134.232 345.439 134.158 345.068 134.011 344.698C133.864 344.328 133.717 343.957 133.423 343.587C133.128 343.957 132.981 344.328 132.908 344.772C132.834 345.142 132.761 345.513 132.761 345.883C132.761 346.475 132.908 347.216 133.496 348.031Z" fill="black"/>
<path d="M129.818 343.661C129.524 344.105 129.376 344.476 129.303 344.846C129.229 345.216 129.156 345.587 129.229 346.031C129.229 346.401 129.303 346.772 129.45 347.216C129.597 347.586 129.744 347.957 130.112 348.327C130.406 347.957 130.553 347.512 130.627 347.142C130.701 346.772 130.774 346.327 130.701 345.957C130.701 345.587 130.627 345.142 130.48 344.772C130.259 344.402 130.112 344.031 129.818 343.661Z" fill="black"/>
<path d="M125.109 343.883C124.815 344.253 124.668 344.698 124.521 345.068C124.447 345.439 124.374 345.883 124.374 346.253C124.374 346.624 124.447 347.068 124.521 347.438C124.668 347.809 124.815 348.179 125.109 348.623C125.404 348.253 125.551 347.809 125.698 347.438C125.772 347.068 125.845 346.624 125.845 346.253C125.845 345.883 125.772 345.439 125.698 345.068C125.551 344.624 125.404 344.253 125.109 343.883Z" fill="black"/>
<path d="M121.137 343.957C120.842 344.328 120.695 344.772 120.548 345.142C120.475 345.513 120.401 345.883 120.401 346.327C120.401 346.698 120.475 347.068 120.548 347.512C120.695 347.883 120.842 348.253 121.137 348.697C121.431 348.327 121.578 347.883 121.725 347.512C121.799 347.142 121.872 346.772 121.872 346.327C121.872 345.957 121.799 345.587 121.725 345.142C121.652 344.698 121.505 344.328 121.137 343.957Z" fill="black"/>
<path d="M117.017 344.031C116.723 344.476 116.576 344.846 116.502 345.216C116.428 345.587 116.428 345.957 116.428 346.401C116.428 346.772 116.502 347.142 116.649 347.512C116.796 347.883 116.943 348.253 117.311 348.623C117.605 348.253 117.753 347.809 117.826 347.438C117.9 347.068 117.9 346.624 117.9 346.253C117.9 345.883 117.826 345.513 117.679 345.142C117.532 344.772 117.311 344.402 117.017 344.031Z" fill="black"/>
<path d="M113.559 348.623C113.854 348.253 114.001 347.883 114.148 347.438C114.221 347.068 114.295 346.698 114.295 346.253C114.295 345.883 114.221 345.513 114.148 345.068C114.001 344.698 113.854 344.328 113.559 343.957C113.265 344.328 113.118 344.698 112.971 345.142C112.897 345.513 112.824 345.883 112.824 346.327C112.824 346.698 112.897 347.068 112.971 347.438C113.118 347.883 113.265 348.253 113.559 348.623Z" fill="black"/>
<path d="M108.557 348.697C108.924 348.327 109.072 348.031 109.292 347.661C109.439 347.29 109.513 346.92 109.587 346.55C109.66 346.179 109.66 345.735 109.587 345.364C109.513 344.994 109.439 344.55 109.145 344.179C108.777 344.55 108.63 344.92 108.409 345.29C108.262 345.661 108.189 346.031 108.115 346.401C108.042 346.772 108.115 347.142 108.115 347.586C108.189 347.883 108.336 348.253 108.557 348.697Z" fill="black"/>
<path d="M105.099 348.697C105.393 348.327 105.54 347.957 105.687 347.586C105.835 347.216 105.835 346.846 105.835 346.475C105.835 346.105 105.761 345.735 105.687 345.364C105.54 344.994 105.393 344.624 105.099 344.253C104.805 344.624 104.658 344.994 104.51 345.364C104.363 345.735 104.363 346.105 104.363 346.475C104.363 346.846 104.437 347.216 104.51 347.586C104.658 347.957 104.805 348.327 105.099 348.697Z" fill="black"/>
<path d="M101.347 344.253C101.053 344.624 100.906 344.92 100.758 345.216C100.685 345.513 100.611 345.883 100.611 346.179C100.611 346.475 100.685 346.846 100.758 347.142C100.906 347.438 101.053 347.809 101.347 348.105C101.641 347.735 101.788 347.438 101.935 347.142C102.009 346.846 102.083 346.475 102.083 346.179C102.083 345.883 102.009 345.513 101.935 345.216C101.788 344.846 101.641 344.55 101.347 344.253Z" fill="black"/>
<path d="M98.0364 348.772C98.3306 348.401 98.5513 348.031 98.6249 347.661C98.7721 347.29 98.772 346.92 98.8456 346.55C98.8456 346.179 98.8456 345.809 98.6985 345.439C98.6249 345.068 98.4778 344.698 98.1835 344.328C97.8892 344.698 97.6685 345.068 97.595 345.439C97.4478 345.809 97.4478 346.179 97.3743 346.55C97.3743 346.92 97.3743 347.29 97.5214 347.661C97.595 348.031 97.7421 348.401 98.0364 348.772Z" fill="black"/>
<path d="M95.4615 349.438C95.7558 348.994 95.9765 348.623 96.05 348.179C96.1972 347.735 96.1972 347.364 96.2707 346.92C96.2707 346.475 96.2707 346.105 96.1236 345.661C96.05 345.216 95.9029 344.846 95.6086 344.402C95.3143 344.846 95.0936 345.216 95.0201 345.661C94.8729 346.105 94.8729 346.475 94.7994 346.92C94.7994 347.364 94.7994 347.735 94.9465 348.179C95.0201 348.623 95.1672 349.068 95.4615 349.438Z" fill="black"/>
<path d="M61.8408 343.735C61.6201 344.476 61.6201 345.216 61.5466 345.957C61.473 346.698 61.3259 347.438 60.8845 347.957C60.5166 348.475 59.8545 348.846 59.1924 348.994C58.5303 349.142 57.7946 349.216 57.0589 349.216C54.1162 349.364 51.247 349.512 48.3043 349.586C45.3616 349.66 42.4924 349.66 39.6233 349.438C38.8876 349.364 38.1519 349.364 37.5634 349.216C37.2691 349.142 37.0484 348.994 36.9012 348.846C36.7541 348.697 36.607 348.549 36.5334 348.253C36.4598 347.957 36.3863 347.661 36.3863 347.29C36.3127 346.92 36.3127 346.624 36.3127 346.253C36.2391 345.587 36.3127 344.846 36.3863 344.179L35.4299 344.772C37.6369 345.439 39.9175 345.661 42.1982 345.587C44.4788 345.587 46.6858 345.29 48.8928 344.92C51.0999 344.55 53.2334 344.105 55.4404 343.809C57.6475 343.439 59.7809 343.291 62.0616 343.291C59.8545 342.994 57.6475 343.068 55.3668 343.142C53.1598 343.291 50.9528 343.587 48.7457 343.883C46.5387 344.105 44.4052 344.328 42.1982 344.328C40.0647 344.328 37.8576 344.031 35.8713 343.439C35.5034 343.291 35.062 343.513 34.9885 343.883C34.9885 343.957 34.9885 343.957 34.9885 344.031C34.9149 344.772 34.9149 345.587 34.9149 346.327C34.9149 346.698 34.9885 347.068 34.9885 347.512C35.062 347.883 35.062 348.253 35.2092 348.697C35.3563 349.142 35.577 349.586 36.0184 349.957C36.3863 350.327 36.8277 350.475 37.2691 350.623C38.1519 350.845 38.8876 350.845 39.6233 350.919C42.566 351.068 45.5087 350.994 48.4514 350.845C51.3942 350.697 54.3369 350.401 57.2061 350.031C57.9417 349.957 58.6774 349.808 59.4131 349.586C60.1488 349.364 60.8845 348.846 61.2523 348.179C61.6937 347.512 61.7673 346.698 61.7673 345.957C61.7673 345.216 61.7673 344.476 61.8408 343.735Z" fill="black"/>
<path d="M58.8246 349.364C59.266 348.994 59.5602 348.475 59.7809 347.957C60.0016 347.438 60.0752 346.846 60.0752 346.327C60.0752 345.809 60.0752 345.216 59.9281 344.698C59.7809 344.179 59.6338 343.661 59.266 343.142C58.9717 343.661 58.8246 344.179 58.751 344.698C58.6774 345.216 58.6038 345.735 58.6038 346.253C58.6038 346.772 58.6038 347.216 58.6038 347.735C58.6774 348.253 58.6774 348.772 58.8246 349.364Z" fill="black"/>
<path d="M55.2197 343.439C54.9254 343.957 54.7047 344.476 54.5576 344.994C54.4105 345.513 54.3369 346.031 54.3369 346.55C54.3369 347.586 54.4105 348.623 54.9254 349.734C55.2933 349.216 55.4404 348.697 55.5876 348.179C55.7347 347.661 55.8083 347.142 55.8083 346.624C55.8083 346.105 55.8083 345.587 55.7347 345.068C55.6611 344.55 55.514 343.957 55.2197 343.439Z" fill="black"/>
<path d="M51.1735 350.031C51.4677 349.512 51.6149 349.068 51.762 348.549C51.9092 348.031 51.9091 347.512 51.9827 347.068C51.9827 346.55 51.9827 346.031 51.8356 345.587C51.762 345.068 51.6149 344.55 51.3206 344.031C51.0263 344.55 50.8056 344.994 50.7321 345.513C50.5849 346.031 50.5849 346.55 50.5113 346.994C50.5113 347.512 50.5114 348.031 50.6585 348.475C50.7321 348.994 50.8792 349.512 51.1735 350.031Z" fill="black"/>
<path d="M47.4951 350.179C47.7893 349.734 48.01 349.29 48.1572 348.772C48.3043 348.327 48.3779 347.809 48.3779 347.364C48.3779 346.92 48.3779 346.401 48.3043 345.957C48.2307 345.513 48.0836 344.994 47.7893 344.55C47.4951 344.994 47.2744 345.513 47.1272 345.957C46.9801 346.401 46.9065 346.92 46.9065 347.364C46.9065 347.809 46.9065 348.327 46.9801 348.772C47.0537 349.216 47.2008 349.66 47.4951 350.179Z" fill="black"/>
<path d="M43.8902 350.253C44.1845 349.808 44.3316 349.364 44.4788 348.92C44.5523 348.475 44.6259 348.031 44.6259 347.586C44.6259 347.142 44.5523 346.698 44.4788 346.253C44.3316 345.809 44.1845 345.364 43.8902 344.92C43.5959 345.364 43.4488 345.809 43.3017 346.253C43.2281 346.698 43.1545 347.142 43.1545 347.586C43.1545 348.031 43.2281 348.475 43.3017 348.92C43.3752 349.364 43.5959 349.808 43.8902 350.253Z" fill="black"/>
<path d="M40.0647 350.179C40.4325 349.734 40.6532 349.364 40.8004 348.92C40.9475 348.475 41.0211 348.031 41.0946 347.661C41.1682 347.216 41.1682 346.772 41.0946 346.327C41.0211 345.883 40.9475 345.439 40.6532 344.92C40.2854 345.29 40.0647 345.735 39.9175 346.179C39.7704 346.624 39.6968 347.068 39.6233 347.512C39.5497 347.957 39.5497 348.401 39.6233 348.846C39.7704 349.216 39.844 349.66 40.0647 350.179Z" fill="black"/>
<path d="M37.2691 344.402C36.9748 344.846 36.8277 345.29 36.6805 345.735C36.607 346.179 36.5334 346.624 36.5334 347.068C36.5334 347.512 36.607 347.957 36.6805 348.401C36.8277 348.846 36.9748 349.29 37.2691 349.734C37.5634 349.29 37.7105 348.846 37.8576 348.401C37.9312 347.957 38.0048 347.512 38.0048 347.068C38.0048 346.624 37.9312 346.179 37.8576 345.735C37.7105 345.364 37.5634 344.92 37.2691 344.402Z" fill="black"/>
<path d="M35.6506 343.883C35.5034 343.068 35.2092 342.254 35.062 341.439C34.9149 340.624 35.2092 339.884 35.6506 339.217C36.5334 337.81 37.6369 336.625 38.8876 335.588C40.1382 334.551 41.536 333.736 43.0074 333.143C44.4788 332.551 46.0237 332.107 47.6422 331.958C49.2607 331.81 50.8792 331.884 52.3506 332.329C53.8219 332.773 55.2197 333.662 56.4704 334.699C57.0589 335.217 57.6475 335.81 58.3096 336.402C58.8981 336.995 59.4867 337.587 60.0752 338.18C61.1787 339.365 62.2087 340.846 62.0615 342.55C62.2822 341.735 62.2087 340.846 61.8408 340.032C61.5466 339.217 61.1052 338.476 60.5902 337.736C59.5602 336.328 58.4567 335.069 57.2796 333.884C56.029 332.625 54.5576 331.588 52.8655 330.996C51.1735 330.403 49.3343 330.329 47.6422 330.477C44.1109 330.773 40.8003 332.329 38.2255 334.699C36.9748 335.884 35.8713 337.291 35.062 338.847C34.8413 339.217 34.6942 339.661 34.6206 340.106C34.5471 340.55 34.6206 341.069 34.6942 341.439C34.9149 342.402 35.3563 343.142 35.6506 343.883Z" fill="black"/>
<path d="M119.739 333.662C119.665 333.292 119.592 332.995 119.371 332.773C119.224 332.551 119.003 332.329 118.783 332.181C118.562 332.032 118.341 331.958 118.047 331.884C117.753 331.81 117.458 331.81 117.091 331.958C117.164 332.329 117.238 332.625 117.458 332.847C117.605 333.069 117.826 333.292 118.047 333.44C118.268 333.588 118.488 333.662 118.783 333.736C119.003 333.736 119.298 333.81 119.739 333.662Z" fill="black"/>
<path d="M82.5135 182.195C80.8214 188.787 79.2765 195.453 77.8051 202.119C76.3338 208.785 75.0095 215.451 73.7589 222.191L72.0668 232.265C71.5518 235.598 70.9633 239.005 70.3747 242.338C69.1241 249.078 67.6527 255.67 66.1814 262.336L65.2985 266.113C65.225 266.557 65.0778 267.002 65.0778 267.52C65.0778 268.039 65.1514 268.705 65.4457 269.15C65.6664 269.594 65.9607 270.039 66.2549 270.335C66.8435 271.001 67.2849 271.668 67.2113 271.964C67.2113 272.187 67.1377 272.261 66.917 272.483C66.6963 272.705 66.4021 272.853 66.0342 273.075C65.6664 273.298 65.225 273.52 64.8571 273.89C64.4157 274.26 64.0479 274.927 63.9743 275.594C63.9007 276.334 64.195 276.927 64.4157 277.371C64.71 277.816 64.9307 278.186 65.225 278.556C65.4457 278.852 65.6664 279.223 65.8135 279.445C65.9607 279.741 65.9607 279.889 65.8871 280.038C65.8871 280.186 65.7399 280.334 65.4457 280.704C65.1514 281 64.7836 281.593 64.6364 282.111C64.3422 283.222 64.3422 284.111 64.3422 284.926L64.195 290.037C64.0479 293.444 63.9743 296.851 63.9008 300.258C63.8272 307.072 63.68 313.886 63.7536 320.7C63.7536 324.107 63.9743 327.588 64.5629 330.996C64.8571 332.699 65.3721 334.329 65.225 335.958C65.1514 336.773 64.9307 337.513 64.4893 338.18C64.0479 338.847 63.3858 339.439 62.5765 339.587C62.503 339.587 62.503 339.661 62.503 339.735C62.503 339.809 62.5765 339.809 62.6501 339.809C63.5329 339.735 64.3422 339.143 64.8571 338.476C65.4457 337.81 65.8135 336.921 65.9607 336.032C66.2549 334.254 65.8871 332.477 65.6664 330.847C65.2985 327.514 65.3721 324.107 65.4457 320.774C65.7399 313.96 66.0342 307.146 66.2549 300.332C66.3285 296.925 66.4021 293.518 66.4756 290.111L66.5492 285C66.5492 284.111 66.5492 283.297 66.6963 282.778C66.7699 282.482 66.8435 282.334 67.1377 281.963C67.3585 281.667 67.7999 281.149 67.947 280.408C68.0941 279.667 67.8734 279.001 67.6527 278.482C67.3585 277.964 67.0642 277.593 66.8435 277.297C66.3285 276.63 65.8871 276.038 65.9607 275.742C65.9607 275.594 66.0342 275.445 66.1814 275.223C66.4021 275.001 66.6963 274.853 67.0642 274.557C67.432 274.334 67.8734 274.038 68.2413 273.668C68.6827 273.297 68.9769 272.557 68.9769 271.89C68.9769 271.224 68.6827 270.631 68.3884 270.187C68.0941 269.742 67.7999 269.446 67.5056 269.15C67.2113 268.853 66.9906 268.557 66.8435 268.261C66.6963 267.965 66.6228 267.742 66.6228 267.446C66.6228 266.78 66.8435 265.891 66.9906 265.076L67.432 262.558C68.5355 255.818 69.7126 249.152 71.1104 242.412C71.7725 239.079 72.5818 235.746 73.3175 232.413L75.5981 222.414C77.0694 215.748 78.3201 209.082 79.4972 202.342C80.6743 195.601 81.7778 188.935 82.7342 182.121C82.7342 182.047 82.7342 181.973 82.6606 181.973C82.5871 182.121 82.5871 182.121 82.5135 182.195Z" fill="black"/>
<path d="M44.1109 186.862C43.5224 193.305 43.081 199.749 42.566 206.193L41.0946 225.524C40.1382 238.412 39.1819 251.226 38.1519 264.113C37.1955 277.001 36.092 289.814 34.9885 302.702L33.2964 321.959C33.0021 325.144 32.7079 328.403 32.7079 331.662C32.7079 334.921 33.0021 338.18 33.9585 341.217C33.1493 338.106 32.9286 334.847 33.0757 331.662C33.2228 328.477 33.6643 325.218 34.0321 322.033C34.7678 315.59 35.4299 309.22 36.092 302.776C37.4162 289.963 38.5197 277.075 39.5497 264.187C40.5061 251.3 41.4625 238.412 42.1982 225.524L43.2281 206.193C43.5224 199.749 43.8902 193.305 44.1109 186.862Z" fill="black"/>
<path d="M120.401 333.884C118.856 327.737 117.458 321.515 116.355 315.293C115.178 309.072 114.148 302.776 113.339 296.48C111.646 283.889 110.396 271.298 109.366 258.632L106.276 220.636L104.657 201.601C104.069 195.305 103.48 188.935 102.892 182.64C103.186 189.009 103.628 195.305 103.995 201.675L105.246 220.71C105.614 227.08 106.129 233.375 106.57 239.745L107.968 258.78C109.072 271.446 110.322 284.111 112.235 296.703C113.191 302.998 114.295 309.294 115.693 315.441C117.017 321.663 118.562 327.811 120.401 333.884Z" fill="black"/>
<path d="M75.8188 216.71C76.1131 220.34 76.5545 223.969 77.143 227.598C77.7316 231.228 78.3937 234.857 79.1294 238.412C79.865 241.967 80.7479 245.596 81.6307 249.152L83.0285 254.485C83.4699 256.262 83.7642 257.966 83.3227 259.595C83.102 260.41 82.8078 261.373 82.6606 262.336C82.5135 263.298 82.5135 264.261 82.5135 265.15C82.5871 267.002 82.6606 268.853 82.7342 270.631C82.9549 274.26 83.2492 277.964 83.5434 281.593C83.9113 285.222 84.3527 288.926 84.7941 292.555C85.0148 294.407 85.3091 296.184 85.7505 298.036C86.1919 299.887 86.854 301.665 87.8104 303.369L87.9575 302.406C87.2954 302.924 86.5597 303.517 85.8976 304.183C85.6033 304.554 85.3091 304.924 85.0884 305.368C84.8677 305.813 84.7205 306.331 84.647 306.85C84.5734 307.887 84.7941 309.072 85.7505 309.812C86.2655 310.183 86.7069 310.331 87.0747 310.479C87.2218 310.553 87.369 310.627 87.5161 310.701C87.5897 310.775 87.5897 310.775 87.6633 310.849C87.6633 310.923 87.6633 310.923 87.6633 310.998C87.5897 311.072 87.5161 311.22 87.369 311.368C87.0747 311.664 86.7069 311.886 86.4126 312.331C86.0448 312.775 85.8241 313.516 85.9712 314.108C86.1183 314.701 86.4126 315.145 86.6333 315.516C86.854 315.886 87.1483 316.256 87.2954 316.552C87.4426 316.849 87.5897 317.219 87.6633 317.589C87.8104 318.33 87.884 319.293 88.0311 320.108C88.9139 326.996 89.9439 333.884 90.9003 340.698C90.9003 340.92 91.1945 341.143 91.4152 341.069C91.4888 341.069 91.5624 341.069 91.5624 340.995C95.6086 338.624 99.802 336.625 104.216 334.995C108.63 333.366 113.118 332.181 117.753 331.366C113.118 331.958 108.483 333.069 103.995 334.551C99.5077 336.032 95.1672 337.958 91.0474 340.328L91.7095 340.698C90.8267 333.81 90.091 326.922 89.1346 320.034C88.9875 319.145 88.9139 318.33 88.7668 317.441C88.6932 316.997 88.5461 316.478 88.3254 316.034C88.1047 315.59 87.8104 315.219 87.5897 314.849C87.369 314.479 87.1483 314.182 87.1483 313.886C87.0747 313.59 87.1483 313.442 87.2954 313.22C87.5161 312.997 87.8104 312.701 88.1782 312.405C88.3254 312.257 88.5461 312.034 88.6932 311.738C88.8404 311.442 88.9139 310.997 88.8404 310.627C88.7668 310.257 88.5461 309.887 88.2518 309.738C88.0311 309.516 87.7368 309.442 87.5161 309.294C87.0747 309.072 86.7069 308.998 86.4862 308.776C86.0448 308.405 85.8241 307.739 85.8976 306.998C85.9712 306.331 86.339 305.665 86.854 305.072C87.369 304.48 88.0311 303.961 88.6932 303.443C88.9875 303.221 89.0611 302.85 88.9139 302.48C87.1483 299.443 86.6333 295.814 86.1183 292.259C85.6034 288.629 85.1619 285 84.7941 281.371C84.4263 277.741 84.132 274.112 83.9113 270.483C83.7641 268.631 83.6906 266.854 83.617 265.002C83.617 264.113 83.617 263.224 83.6906 262.336C83.8377 261.521 84.0584 260.632 84.2791 259.669C84.4998 258.706 84.5734 257.743 84.4263 256.781C84.3527 255.818 84.132 254.929 83.9113 253.966L82.4399 248.707C81.4835 245.152 80.6007 241.671 79.7179 238.042C78.2465 231.154 76.8487 223.969 75.8188 216.71Z" fill="black"/>
<path d="M99.802 290.333C98.8456 291.444 97.9628 292.555 97.08 293.666C96.1972 294.777 95.2408 295.814 94.2844 296.851C93.328 297.888 92.3716 298.925 91.4152 299.962C90.4589 300.998 89.4289 301.961 88.3989 303.072C89.7232 302.554 91.0474 301.739 92.1509 300.85C93.328 299.962 94.4315 298.999 95.3879 297.888C96.3443 296.777 97.2271 295.592 97.9628 294.332C98.7721 293.073 99.3606 291.74 99.802 290.333Z" fill="black"/>
<path d="M99.4342 298.925C98.1099 300.628 96.9328 302.406 95.5351 304.035C94.8729 304.85 94.1373 305.591 93.328 306.257C92.5188 306.924 91.7095 307.59 90.8267 308.331C90.606 308.553 90.3853 308.701 90.2381 308.924C90.1646 308.998 90.0174 309.146 89.8703 309.294C89.7232 309.442 89.6496 309.664 89.576 309.961C89.5025 310.257 89.6496 310.775 89.9439 310.923C90.2381 311.146 90.3853 311.22 90.5324 311.22C90.9003 311.294 91.2681 311.368 91.5624 311.368C92.2245 311.294 92.7395 311.146 93.2544 310.997C93.4751 310.923 93.7694 310.849 93.9166 310.849C93.9901 310.849 94.0637 310.849 94.0637 310.849C94.0637 310.849 93.9901 310.775 94.0637 310.775C94.0637 310.775 94.1373 310.923 94.0637 311.072C93.9901 311.22 93.843 311.368 93.6223 311.59C93.2544 311.96 92.8866 312.405 92.5188 312.775C91.7831 313.59 91.0474 314.33 90.2381 315.071C91.1945 314.553 92.1509 313.96 93.0337 313.368C93.4751 313.071 93.9166 312.701 94.2844 312.331C94.5051 312.183 94.7258 311.96 94.9465 311.664C95.1672 311.368 95.3143 310.849 95.0936 310.405C95.0201 310.183 94.7994 309.886 94.5051 309.812C94.2108 309.664 93.9901 309.664 93.843 309.738C93.4751 309.738 93.2544 309.812 92.9602 309.886C92.4452 309.961 91.9302 310.109 91.4888 310.109C91.2681 310.109 91.121 310.109 90.9003 310.035C90.8267 310.035 90.7531 309.961 90.8267 310.035C90.9003 310.109 90.9738 310.257 90.9003 310.331C90.8267 310.405 91.3417 309.886 91.7095 309.59C92.4452 308.85 93.328 308.257 94.1373 307.442C94.9465 306.628 95.6822 305.813 96.2707 304.924C97.6685 302.924 98.6249 300.998 99.4342 298.925Z" fill="black"/>
<path d="M61.1052 303.295C60.3695 307.368 59.7809 311.516 59.1924 315.59L58.3096 321.737C58.1624 322.774 58.0153 323.959 58.4567 325.144C58.8981 326.255 59.6338 327.144 60.2959 327.885C60.958 328.699 61.5466 329.44 61.6937 330.255C61.6937 330.477 61.7673 330.625 61.7673 330.847C61.7673 331.07 61.6937 331.144 61.7673 331.07L61.8408 330.996C61.8408 330.996 61.8408 330.996 61.7673 330.996C61.6201 330.996 61.473 330.847 61.3259 330.773C59.7074 329.662 58.1624 328.255 56.4704 326.996C55.6611 326.329 54.7047 325.737 53.8219 325.218C52.8655 324.7 51.8356 324.33 50.7321 324.107C49.6285 323.885 48.525 323.811 47.4215 323.959C46.318 324.107 45.2144 324.552 44.3316 325.218C44.1109 325.366 44.0374 325.737 44.1845 325.959C44.1845 326.033 44.2581 326.033 44.3316 326.107C45.803 327.218 47.3479 328.255 48.8193 329.366L49.04 328.625C47.3479 328.699 45.7294 328.996 44.1109 329.44C42.4924 329.885 40.9475 330.477 39.4761 331.218C41.0211 330.625 42.6396 330.181 44.2581 329.885C45.8766 329.588 47.4951 329.514 49.1136 329.514C49.3343 329.514 49.555 329.366 49.555 329.07C49.555 328.922 49.4814 328.848 49.4078 328.774C48.01 327.588 46.5387 326.477 45.0673 325.292V326.181C46.6122 325.144 48.6721 324.996 50.5113 325.515C52.4241 325.959 54.1162 326.996 55.6611 328.255C57.2796 329.44 58.8246 330.847 60.5902 332.032C60.8109 332.181 61.1052 332.403 61.473 332.477C61.6937 332.551 61.9144 332.551 62.1351 332.551C62.4294 332.551 62.7237 332.403 62.8708 332.181C63.3122 331.736 63.3122 331.292 63.3122 330.996C63.3122 330.699 63.3122 330.329 63.2386 330.033C62.9444 328.774 62.1351 327.885 61.473 327.07C60.8109 326.255 60.1488 325.515 59.8545 324.7C59.4867 323.885 59.5602 322.996 59.7074 321.959L60.2959 315.738C60.5166 311.59 60.8109 307.442 61.1052 303.295Z" fill="black"/>
<path d="M55.9554 63.096C54.999 63.2441 54.0426 63.3182 53.1598 63.6144C52.2034 63.9107 51.3942 64.5032 50.7321 65.2439C49.4814 66.7993 48.525 68.4288 47.5686 70.1323C46.6122 71.8358 45.803 73.5394 45.0673 75.391C44.3316 77.1686 43.6695 79.0203 43.1545 80.872C43.081 81.2423 43.2281 81.6127 43.596 81.6867C43.7431 81.7608 43.8902 81.7608 43.9638 81.6867L51.247 79.4647C51.6149 79.3166 52.0563 79.2425 52.4241 79.1684L52.6448 79.0944C52.5713 79.0944 52.4977 79.0944 52.3506 79.0203C52.1298 78.9462 51.9827 78.65 51.9827 78.5759C52.0563 78.65 52.0563 78.724 52.1299 78.7981C52.2034 78.8722 52.277 78.9463 52.277 78.9463L52.3506 79.0203L52.792 79.4647C55.2933 81.7608 57.8682 84.0569 60.3695 86.2789C60.6638 86.5011 61.0316 86.5011 61.2523 86.2048C61.3994 86.0567 61.473 85.7604 61.3994 85.6123C60.443 82.3533 59.4867 79.0944 58.5303 75.8354L57.2061 70.947L55.8818 65.9846C56.1025 67.6881 56.3968 69.3176 56.6911 71.0211C56.9853 72.7246 57.2796 74.3541 57.6475 76.0576C58.3831 79.3906 59.1924 82.7237 60.0752 85.9826L61.1052 85.316L53.6012 78.4278L53.1598 77.9834V78.0574C53.1598 77.9834 52.9391 77.6871 52.7184 77.613C52.5713 77.539 52.4977 77.539 52.4241 77.539H52.277C52.0563 77.539 51.9827 77.613 51.9092 77.613C51.4677 77.7612 51.0999 77.8353 50.6585 77.9834L48.2307 78.724C46.6122 79.2425 44.9937 79.761 43.3752 80.2794L44.2581 81.0942C44.773 79.2425 45.3616 77.4649 46.0237 75.6873C46.6858 73.9097 47.4215 72.1321 48.2307 70.4286C48.6722 69.5398 49.04 68.725 49.555 67.9103C49.9964 67.0956 50.4378 66.2068 51.0263 65.4661C51.5413 64.7254 52.277 64.1329 53.1598 63.7626C54.1162 63.5404 55.0726 63.3182 55.9554 63.096Z" fill="#174075"/>
<path d="M75.3774 62.7256C77.2901 63.2441 79.2029 63.7625 80.8214 64.7254C82.5135 65.6883 83.7642 67.1696 84.7941 68.7991C85.8241 70.4286 86.7804 72.1321 87.7368 73.9097C88.6196 75.6873 89.5025 77.3908 90.3853 79.1684L91.1945 78.1315C89.7967 77.6871 88.3989 77.2427 87.0747 76.7242C86.4126 76.428 85.7505 76.1317 85.0884 75.8354C84.7205 75.6873 84.3527 75.5392 83.9113 75.391C83.4699 75.2429 82.9549 75.2429 82.4399 75.391C81.9249 75.5392 81.5571 75.8354 81.2628 76.0576C80.9686 76.2798 80.6743 76.5761 80.38 76.8724C79.7915 77.3908 79.3501 78.0574 78.8351 78.65C77.9523 79.9091 77.2902 81.3904 76.9959 82.9458H77.9523C77.3637 81.1682 76.8487 79.4647 76.1866 77.7612L74.3474 72.5765C74.7153 74.3541 75.1567 76.1317 75.5981 77.9093C76.0395 79.6869 76.5545 81.4645 76.9223 83.1681C76.9959 83.4643 77.2166 83.6125 77.5109 83.5384C77.658 83.4643 77.8051 83.3903 77.8787 83.1681C78.2465 81.8349 78.9087 80.5016 79.7915 79.3906C80.2329 78.7981 80.6743 78.2796 81.1893 77.8352C81.7042 77.3908 82.2928 76.8724 82.7342 76.7983C83.1756 76.7242 83.7641 76.8724 84.4263 77.1686C85.0884 77.4649 85.7505 77.8352 86.4862 78.1315C87.884 78.724 89.2818 79.2425 90.7531 79.6128C91.121 79.6869 91.5624 79.4647 91.6359 79.0944C91.7095 78.9462 91.6359 78.7241 91.5624 78.5759C90.6796 76.7983 89.7967 75.0207 88.7668 73.3172C87.8104 71.5396 86.7804 69.836 85.5298 68.2066C84.3527 66.5771 82.8078 65.0958 80.9686 64.207C79.2765 63.3181 77.2901 62.9478 75.3774 62.7256Z" fill="#174075"/>
</g>
<defs>
<linearGradient id="paint0_linear_2987_7890" x1="137.074" y1="175.947" x2="0.920643" y2="175.947" gradientUnits="userSpaceOnUse">
<stop stop-color="#0ABBEF"/>
<stop offset="0.2385" stop-color="#0D9BCF"/>
<stop offset="0.756" stop-color="#145A8E"/>
<stop offset="1" stop-color="#174075"/>
</linearGradient>
</defs>
</svg>
