<svg width="110" height="374" viewBox="0 0 110 374" fill="none" xmlns="http://www.w3.org/2000/svg">
<g clip-path="url(#clip0_2987_7028)">
<rect width="110" height="374" fill="url(#paint0_linear_2987_7028)"/>
<rect width="113" height="142" transform="translate(0 -1)" fill="url(#paint1_linear_2987_7028)"/>
<path d="M63.6908 244.441C64.8075 245.13 66.0227 245.327 67.3035 244.802L75.0544 165.869L73.2809 146.382L63.6908 244.474V244.441Z" fill="black"/>
<path d="M100.409 242.243C101.525 242.932 102.741 243.129 104.021 242.604L104.875 234.337L101.164 234.665L100.442 242.243H100.409Z" fill="black"/>
<path d="M88.0272 235.879L88.5198 247.656C89.7678 248.312 90.9502 248.411 92.0997 247.394L91.7712 235.452L88.0272 235.879Z" fill="black"/>
<path d="M122.61 232.729L118.801 233.09L120.377 245.13C121.527 245.622 123.005 245.556 123.924 244.835L122.643 232.762L122.61 232.729Z" fill="black"/>
<path d="M67.1723 81.5238L81.8529 236.436L129.705 232.073L113.743 78.8664L67.1723 81.5238Z" fill="white"/>
<path d="M129.967 232.04C125.238 184.011 119.326 126.797 114.104 78.8336C114.104 77.7838 67.5334 81.819 67.1393 81.4909C71.6387 131.587 76.4009 186.931 81.8856 236.6C95.4168 235.091 116.666 234.009 130 232.04H129.967ZM105.762 234.074C99.0295 234.698 88.6512 235.682 81.9841 236.272C77.5504 186.472 72.3284 131.423 67.205 81.5565L113.382 79.2601C118.144 127.092 124.154 184.044 129.376 231.811L105.729 234.074H105.762Z" fill="black"/>
<path d="M70.8504 84.8044L84.9071 232.762L126.256 229.088L111.148 82.4095L70.8504 84.8044Z" fill="#0ABBEF"/>
<path d="M74.0033 118.005L95.3181 83.361L102.346 82.9345L74.8572 127.059L74.0033 118.005Z" fill="white"/>
<path d="M75.4812 133.752L106.879 82.9344L109.769 82.5079L75.941 136.934L75.4812 133.752Z" fill="white"/>
<path d="M82.6411 209.141L118.439 153.304L118.801 159.866L83.4621 217.671L82.6411 209.141Z" fill="white"/>
<path d="M-32.8991 231.45H-40.8799V245.36H-32.8991V231.45Z" fill="#D1CDCB"/>
<path d="M-11.8141 61.4134H-42.7518V231.45H-11.8141V61.4134Z" fill="white"/>
<path d="M-11.8141 231.45C-11.9783 231.45 -42.7848 231.614 -42.9161 231.614C-43.2117 183.716 -43.2117 110.197 -43.2774 61.4134V60.9213C-42.2264 60.9213 -12.4382 60.9213 -11.3873 60.9213C-11.3873 108.622 -11.6828 183.191 -11.847 231.417L-11.8141 231.45ZM-11.8141 231.45C-12.044 183.257 -12.2412 109.048 -12.274 61.4134L-11.8142 61.8726H-42.7519L-42.2593 61.4134C-42.2593 110.426 -42.3578 183.29 -42.5877 231.45L-42.7191 231.319L-11.7814 231.45L-11.8141 231.45Z" fill="black"/>
<path d="M74.5616 62.4303L69.5696 62.5287C68.9784 88.774 65.727 235.649 65.8584 245.392H59.3555V231.122C59.3227 231.122 -8.59579 230.958 -8.59579 230.958C-8.59579 234.599 -8.66147 241.718 -8.69432 245.392L-15.1643 244.835C-15.6241 235.78 -15.7883 177.286 -15.8868 166.952H-15.5256C-16.2481 155.437 -18.2187 77.3573 -18.6128 63.9394C-19.4338 63.9394 -21.1088 63.9722 -21.9299 64.005V56.4595L-21.0103 52.2275C-21.0103 52.2275 2.20942 52.3259 2.24226 52.2931C4.67261 48.3235 9.56616 40.2531 15.5764 37.6942C29.1732 32.5435 38.4348 33.3637 49.0758 42.6152C51.6375 44.846 51.2434 44.2883 52.163 46.4535C53.1811 48.6516 54.9218 51.9978 55.8742 53.8022C56.1041 53.8022 73.5435 55.1801 74.3646 55.2457L74.5945 62.3975L74.5616 62.4303Z" fill="white"/>
<path d="M21.9479 156.454C12.0294 155.47 1.84818 157.241 -7.87322 157.897C-11.8143 129.684 -11.3874 100.486 -12.2084 72.0098C-2.28998 70.4679 8.6466 71.5833 18.9263 71.2225V71.649C19.3861 71.6161 19.8131 71.5505 20.24 71.5177C21.3567 98.7144 20.5356 129.159 21.915 156.454H21.9479Z" fill="#D1CDCB"/>
<path d="M61.2605 173.546H-8.95696V195.527H61.2605V173.546Z" fill="#D1CDCB"/>
<path d="M61.3263 200.152H-8.92402V221.641H61.3263V200.152Z" fill="#D1CDCB"/>
<path d="M65.9898 230.63C65.9898 234.074 65.9241 241.849 65.8913 245.36H59.3885V231.089C59.3556 231.089 -8.56285 230.925 -8.56285 230.925C-8.56285 234.566 -8.62854 241.685 -8.66138 245.36L-15.1314 244.802V230.597H66.0227L65.9898 230.63Z" fill="#D1CDCB"/>
<path d="M28.4179 211.011C28.4507 215.145 23.9841 215.145 24.017 211.011C23.9841 206.878 28.4507 206.878 28.4179 211.011Z" fill="white"/>
<path d="M28.188 182.863C28.2208 186.997 23.7543 186.997 23.7871 182.863C23.7543 178.73 28.2208 178.73 28.188 182.863Z" fill="white"/>
<path d="M-7.54474 176.597C-6.32956 177.22 -5.0487 177.45 -3.80068 177.68C-5.50849 177.417 -7.24915 177.188 -8.95696 177.581V173.546H12.8177L13.4417 173.776C6.5119 174.793 -0.516419 174.366 -7.44621 175.055C-7.47905 175.547 -7.51189 176.072 -7.54474 176.597Z" fill="white"/>
<path d="M5.23103 183.946C0.501699 184.438 -4.22763 184.668 -8.95696 184.635V180.632C-6.23103 180.6 -3.47225 180.796 -0.779161 181.288L-0.943371 181.551C-3.20951 181.682 -5.47565 181.781 -7.74179 181.912C-8.10306 181.879 -7.97169 182.535 -8.20158 182.634C-3.80068 183.979 0.797283 182.83 5.19819 183.946H5.23103Z" fill="white"/>
<path d="M-8.10307 189.556C-8.39866 190.245 -7.84033 191.294 -7.24916 191.36C-7.61043 191.688 -8.03739 191.918 -8.46434 192.049C-8.23444 192.869 -7.67612 193.492 -7.05211 193.624L-8.07023 193.788C-5.37714 195.428 -2.02719 194.772 0.994323 195.494H-8.95698V188.276C-7.87317 187.85 -6.75653 187.981 -5.63988 188.079C-1.7973 188.539 2.01244 187.817 5.82218 187.489C1.32275 188.965 -3.43943 188.965 -8.10307 189.523V189.556Z" fill="white"/>
<path d="M61.2933 173.546V181.551C60.2424 181.551 59.1914 181.518 58.1733 181.42C58.9943 180.6 61.1291 180.534 60.7022 178.992C58.5674 178.566 56.3998 179.386 54.265 178.992C56.2356 178.598 58.2061 178.041 60.1438 177.352C60.0453 176.597 60.735 175.318 60.1438 174.793C57.3522 174.268 54.5278 173.973 51.7033 173.907C54.0351 173.612 58.9287 173.481 61.3262 173.546H61.2933Z" fill="white"/>
<path d="M61.2934 182.863V195.527H53.6739C55.6445 194.969 57.6151 194.444 59.5856 193.919C60.1439 193.525 59.914 192.476 60.1439 191.852C59.2243 191.754 58.3376 191.59 57.4508 191.294C58.3047 191.196 59.1586 190.966 59.9797 190.573C58.9944 190.409 58.042 190.245 57.0567 190.113C58.3047 189.654 59.5528 189.195 60.7351 188.539C58.2062 188.539 55.6773 188.342 53.1485 188.014C55.8087 187.522 58.5018 187.259 61.162 187.03C60.2425 186.472 59.29 185.914 58.3704 185.357L61.2934 182.896V182.863Z" fill="white"/>
<path d="M61.3263 200.152L61.3261 203.728C60.4394 203.334 59.5526 203.105 58.633 203.006C58.9943 202.613 59.4212 202.285 59.881 202.055C59.881 201.793 59.6511 201.694 59.4541 201.727C54.1007 202.35 48.6817 201.825 43.4597 200.119H61.3589L61.3263 200.152Z" fill="white"/>
<path d="M61.3261 211.536V213.701C59.4869 213.275 57.582 212.455 55.71 212.914C54.7904 213.144 53.8708 213.734 52.9512 213.439C50.5865 212.717 47.992 213.439 45.5616 212.323V212.192C47.9591 211.438 50.488 211.372 52.9184 211.995C53.7394 212.356 54.3963 211.47 55.1188 211.274C57.1222 210.88 59.454 212.75 61.2932 211.503L61.3261 211.536Z" fill="white"/>
<path d="M61.3261 208.485V210.093C59.5197 209.896 57.6477 210.289 55.8414 209.732C57.582 208.813 59.4212 208.157 61.3261 208.485Z" fill="white"/>
<path d="M61.3262 216.359L61.3263 221.641L51.9332 221.641C54.3307 220.82 56.8267 220.624 59.3228 220.328C59.9468 220.361 60.0453 219.639 60.4066 219.311C59.7169 219.41 58.9943 219.311 58.3047 219.114C59.0272 218.59 59.684 217.999 60.3409 217.277C59.1914 216.72 57.4836 216.752 56.1699 216.391L61.359 216.326L61.3262 216.359Z" fill="white"/>
<path d="M5.65799 203.925C5.72367 203.925 5.78936 203.925 5.85504 203.925C4.01586 205.697 1.58551 204.417 -0.549262 205.04C-2.78256 206.418 -5.08154 204.319 -7.38052 204.844C-7.64326 208.124 -7.11778 207.435 -4.12911 207.993C-5.70555 208.387 -7.31483 208.551 -8.95696 208.485V200.152C-6.85504 200.152 5.42809 200.054 7.20159 200.316C2.34089 200.316 -2.45413 201.825 -7.28199 201.858C-6.98641 202.449 -7.64326 203.564 -7.11778 203.892C-4.62174 204.45 -2.12571 205.697 0.238959 204.089C2.80068 203.367 1.32277 205.237 5.62515 203.925H5.65799Z" fill="white"/>
<path d="M5.8222 203.892C4.14723 203.4 2.40657 203.466 0.830128 202.711C-0.187992 202.58 -1.14043 203.597 -2.19139 203.663C-3.63646 203.531 -5.08154 202.908 -6.55945 202.974C-7.15062 202.908 -8.95696 203.138 -8.3658 204.023C-7.44621 204.844 -6.23103 204.45 -5.11438 204.614C-4.26047 204.745 -3.43941 205.237 -2.55266 205.27C-0.713475 205.139 1.12571 203.892 2.99774 204.811L5.8222 203.859V203.892Z" fill="white"/>
<path d="M-8.07012 214.062C-6.00104 214.981 -3.86627 215.703 -1.69866 216.227C-2.09277 216.227 -8.79265 215.867 -8.92402 215.801V211.897C-5.83682 212.717 -2.61825 212.652 0.534643 212.323C-5.17997 215.67 -8.72697 211.372 -8.03728 214.029L-8.07012 214.062Z" fill="white"/>
<path d="M17.6783 112.362C17.5798 113.117 18.6307 116.758 17.744 116.725C17.0543 116.692 16.0362 116.135 15.8063 117.119C15.018 119.448 15.4121 122.204 15.3793 124.664C15.6749 126.009 14.7225 136.901 17.5141 134.146C18.8278 137.721 19.2219 139.263 14.6568 138.509C12.1936 133.227 13.1132 126.633 13.2774 120.728C13.7372 117.873 12.8833 110.23 17.6454 112.362H17.6783Z" fill="white"/>
<path d="M43.8539 128.207C44.1495 129.585 43.8539 131.16 43.0657 132.144C43.9524 132.144 45.3318 132.505 45.4304 133.686C44.8392 134.867 43.1642 135.195 42.1789 135.983C43.0657 136.737 43.7882 137.885 44.1823 139.23C44.248 139.559 44.3794 139.887 44.7407 139.952C47.4009 140.707 48.0578 145.398 45.1348 146.317C40.8981 147.891 36.2344 146.776 31.8007 147.038C31.4723 147.071 31.308 146.809 31.3409 146.481C31.3737 140.379 30.5198 134.113 31.308 128.076C35.4462 127.879 39.6829 128.043 43.8539 128.175V128.207Z" fill="url(#paint2_linear_2987_7028)"/>
<path d="M-22.0939 62.9552C-22.1924 59.5105 -22.0939 55.9346 -21.3385 52.4899C-13.3578 51.5057 -5.08142 51.9322 2.8008 52.3915C7.10318 36.9068 28.0239 30.4439 41.6536 37.5301C41.6536 37.5301 41.6207 37.5301 41.5879 37.4973C48.4191 40.8764 53.4769 47.2081 55.8744 54.3271C54.7578 49.931 52.3931 45.7974 49.2402 42.4511C47.1383 40.2203 44.6751 38.3175 41.9163 36.9396L41.982 37.0052C28.0239 29.4597 7.23455 36.71 2.50522 52.1947C-5.27848 51.1121 -13.1935 51.0464 -20.9772 51.9978C-22.9478 51.6042 -22.3566 61.4789 -22.1267 62.9552H-22.0939ZM48.8461 42.812C48.8133 42.7792 48.7804 42.6808 48.7804 42.648L48.8461 42.812Z" fill="black"/>
<path d="M24.8709 185.881C28.7463 187.915 29.7973 179.943 25.9875 179.681C29.0419 179.943 28.9434 185.619 25.9875 185.914C23.0317 185.619 22.9332 179.943 25.9875 179.681C23.1959 179.976 22.8018 184.405 24.8709 185.881Z" fill="black"/>
<path d="M25.0679 213.997C28.9433 216.031 29.9943 208.059 26.1845 207.796C29.2389 208.059 29.1403 213.734 26.1845 214.029C23.2287 213.734 23.1302 208.059 26.1845 207.796C23.3929 208.091 22.9988 212.52 25.0679 213.997Z" fill="black"/>
<path d="M15.0837 112.46C15.5435 111.935 16.1675 111.87 16.7259 112.034C15.7077 111.083 14.3283 112.493 13.9671 113.576C9.79607 115.052 11.8323 127.125 11.471 131.094C11.6353 133.883 11.3397 137.065 12.5877 139.591C13.8686 141.396 17.1528 141.396 17.744 139.001C19.3533 139.066 17.941 133.489 17.4484 134.08C14.6239 137.032 16.1347 123.844 15.6749 122.532C15.8391 121.121 14.7881 117.349 16.5288 116.692C17.317 116.889 18.2366 117.644 18.368 116.168C17.5469 110.787 17.2842 110.295 17.941 116.102C17.8754 116.627 17.5798 116.43 17.2185 116.2C14.0328 114.921 15.0509 120.826 14.9524 122.565C15.3793 124.14 14.394 137.229 17.5141 134.506C17.8425 135.589 18.565 137.393 17.8754 138.345C16.0033 139.165 14.2298 138.049 14.1641 135.917C13.8686 130.406 14.2298 124.533 13.9999 119.055C14.0656 116.824 13.5073 114.199 15.018 112.46H15.0837Z" fill="black"/>
<path d="M31.6036 138.87C32.5561 139.526 34.3296 139.755 35.5776 140.083V139.099C34.2639 139.001 32.9502 138.87 31.6036 138.87Z" fill="black"/>
<path d="M34.7894 87.4617C30.1915 87.5929 30.3228 87.7569 34.7894 88.1834V87.4617Z" fill="black"/>
<path d="M75.4157 54.9176C72.9197 53.1789 68.8472 53.999 66.0227 53.835C62.9684 53.9334 59.6513 53.7038 56.7283 54.0646C62.2458 55.3113 69.0114 54.4255 74.3648 56.1971C74.102 57.903 73.9378 59.6418 73.8721 61.3805C41.8834 62.7584 9.63201 61.8398 -22.291 63.9722C-21.2729 64.3331 -19.7949 64.1362 -18.6126 64.2675C-17.1019 112.395 -15.6239 204.581 -15.5254 245.589L-8.62847 245.524C-8.16867 240.865 -8.66131 235.583 -8.52994 230.728C13.803 230.99 37.0556 230.794 59.4214 231.056C59.5527 233.418 59.0601 243.162 59.4542 245.491C60.9978 245.36 64.7419 245.786 66.1213 245.327C67.1065 188.67 68.9786 120.892 69.7011 63.5457C71.0477 63.1849 75.5142 64.2675 75.4157 62.3647C75.0544 60.4619 76.3025 55.9018 75.5142 54.852L75.4157 54.9176ZM-8.85837 245.196L-15.3284 245.13C-15.0656 240.701 -14.9342 235.518 -14.8686 231.122C-13.4892 233.91 -11.2559 235.682 -8.79268 237.355C-8.79268 239.947 -8.85837 242.571 -8.85837 245.163V245.196ZM65.7928 238.044C65.7928 239.848 65.76 243.457 65.76 245.228C64.2164 245.228 61.0963 245.228 59.5527 245.228C59.5527 240.865 59.4871 235.616 59.4214 231.253C60.2753 234.73 63.1983 234.796 65.8257 235.911V238.011L65.7928 238.044ZM69.4055 67.6794C56.4327 66.9904 43.3614 66.9904 30.4214 67.6794C30.3228 66.3343 30.4214 64.9236 30.2243 63.6113C29.9616 91.3657 30.7826 119.218 30.8812 147.006C30.7498 147.006 30.7498 147.137 30.8812 147.137C31.0454 153.436 31.1111 159.833 31.4723 166.099C31.6365 163.179 31.538 160.128 31.6037 157.176C32.9502 157.438 34.2639 157.537 35.5777 157.602V156.027C34.2311 156.224 32.9174 156.454 31.6037 156.88C31.6037 153.665 31.6037 150.45 31.6037 147.268C32.9174 147.465 34.2639 147.596 35.5777 147.695V146.874C34.2639 146.874 32.9174 146.94 31.6037 147.006C31.6037 143.266 31.538 139.493 31.4723 135.753C32.8189 136.179 34.1654 136.442 35.5777 136.475V135.392C34.1983 135.261 32.8517 135.326 31.4723 135.589C31.4723 134.244 31.4395 132.899 31.4066 131.554C32.786 131.915 34.1654 132.144 35.5448 132.275V131.16C34.1654 131.127 32.786 131.16 31.3738 131.357C31.3738 130.274 31.3738 129.159 31.341 128.076C32.7532 128.371 34.1654 128.47 35.5448 128.24V127.551C34.1326 127.322 32.7204 127.486 31.341 127.879C31.2753 125.222 31.2096 122.598 31.1439 119.94C32.5561 119.809 34.0997 120.17 35.5448 120.104V119.317C35.085 119.317 34.6252 119.382 34.1654 119.415C33.7056 118.103 33.3444 116.758 32.9502 115.413C33.7713 115.052 34.6581 115.019 35.5448 115.085V114.166C34.9208 114.133 34.2968 114.166 33.6728 114.33C33.41 114.232 33.213 113.969 33.0816 113.674C33.1473 113.871 33.6728 114.265 33.6399 114.002C32.162 112.69 33.7713 110.426 35.5448 110.689V109.803C35.3149 109.836 35.0522 109.901 34.7894 109.967C34.3953 108.852 34.0997 107.703 33.9355 106.522C34.461 106.555 35.0193 106.588 35.5448 106.588V105.702C35.2492 105.702 34.9208 105.702 34.6252 105.702C34.3625 105.374 34.1983 104.98 34.0997 104.521C34.1654 104.784 34.7237 105.341 34.7566 105.046C33.6399 104.193 34.2311 101.733 35.5777 101.404V100.552C35.2492 100.683 34.9208 100.912 34.6581 101.175C32.8846 101.47 31.9978 103.078 32.0963 104.849C30.3885 107.342 32.8517 108.425 30.914 110.426C30.6513 101.601 30.914 92.7436 30.7826 83.8858C32.0963 84.2795 33.41 84.6075 34.7894 84.7388C34.7894 83.9186 34.888 82.1142 34.3953 81.3925C34.5267 81.3925 34.6581 81.3925 34.7894 81.4253V81.0644C34.6252 81.0972 34.4938 81.13 34.3296 81.1957C34.1654 80.7364 33.9027 80.3099 33.7385 79.8834C34.0669 79.5225 34.4282 79.2273 34.8223 79.0632V77.9806C33.41 78.1446 33.6399 76.2747 34.8223 76.2419V75.0608C34.4938 74.864 34.5595 74.3391 34.8223 74.0438V69.4837C33.8042 69.9758 31.0782 70.96 32.1292 72.5019C32.589 74.1422 30.6513 75.0936 30.6841 76.734C30.6184 73.7158 30.5199 70.6976 30.4214 67.7122C43.3942 68.4011 56.4655 68.4011 69.4055 67.7122C69.2085 74.4047 69.0114 81.0972 68.8472 87.7898C68.683 87.7898 68.5188 87.7898 68.3546 87.7898V88.0194C68.5188 88.0194 68.683 87.9866 68.8472 87.9538C68.2889 107.408 67.5335 141.166 67.2708 156.782V156.979C67.2708 157.372 67.2379 158.718 67.2708 159.111L67.1065 166.952C39.88 167.346 11.4712 165.082 -15.4597 167.838C-5.11431 168.888 5.26394 168.395 15.6094 167.641C32.786 167.313 50.0612 170.954 67.1065 167.214C66.7453 187.719 66.4169 210.224 65.8585 230.63C39.3874 230.433 11.6026 230.465 -14.77 230.761C-14.8686 177.745 -16.7077 118.136 -18.5141 64.3987C-3.80061 65.1861 10.9786 64.2675 25.6592 63.6441C25.5935 65.022 25.495 66.3999 25.4621 67.7778C12.4893 67.0888 -0.582032 67.0888 -13.5549 67.7778C-0.582032 68.4667 12.4893 68.4667 25.4621 67.7778C25.5935 100.584 25.2979 133.686 27.6626 166.394C28.1552 132.21 26.4474 97.8286 25.8562 63.6441C40.1099 63.5785 55.3489 64.1691 69.6354 63.7098C69.6026 65.0548 69.5369 66.4327 69.504 67.7778L69.4055 67.6794ZM30.7169 78.2431C30.7498 78.8008 31.341 79.5553 30.7498 79.9818C30.7498 79.3913 30.7498 78.8336 30.7169 78.2431ZM33.41 106.358C33.41 106.358 33.4429 106.358 33.4757 106.358C33.4757 106.424 33.4757 106.49 33.5086 106.555C33.5086 106.49 33.4429 106.424 33.41 106.358Z" fill="black"/>
<path d="M31.5707 123.516C32.556 123.943 34.3295 123.779 35.5775 123.91V123.155C34.2309 123.221 32.9172 123.352 31.5707 123.516Z" fill="black"/>
<path d="M-22.2582 63.9066C-22.2582 63.9066 -22.2911 63.9066 -22.3239 63.9394C-22.2582 63.9394 -22.2254 63.8738 -22.2582 63.9066Z" fill="black"/>
<path d="M-22.3896 64.005C-22.3896 64.005 -22.3567 64.005 -22.3239 64.005C-22.3239 64.005 -22.3239 63.9722 -22.3239 63.9394C-22.3896 63.9394 -22.4553 64.005 -22.3896 64.005Z" fill="black"/>
<path d="M22.2106 124.172C20.6341 106.621 22.1449 88.9052 20.1415 71.3865C20.0758 99.4361 20.3057 127.912 22.2763 155.929C22.9331 145.431 22.6047 134.736 22.1777 124.172H22.2106Z" fill="black"/>
<path d="M-9.51529 125.681C-11.5515 107.835 -10.2378 89.8238 -11.9785 72.0098C-8.03737 73.1581 -3.99773 72.7644 -0.0237814 72.1083C6.57758 72.1083 14.2956 73.683 20.2401 70.96C13.4417 69.4181 6.74179 70.9928 -0.0237814 71.4193C-4.06342 70.8616 -8.16874 70.5663 -12.1755 71.7474C-12.3397 71.8786 -12.1755 72.0098 -12.0113 72.0098C-12.3397 100.552 -11.4858 129.487 -8.23443 157.897C-7.87316 147.76 -8.85844 136.245 -9.48244 125.681H-9.51529Z" fill="black"/>
<path d="M22.5062 156.651C16.2005 154.584 9.86184 156.06 3.52322 156.815C-0.122307 156.585 -4.91732 156.355 -7.80747 158.455C-3.96489 159.144 -0.187992 158.389 3.55606 157.504C9.69763 157.176 16.8902 158.882 22.5062 156.651Z" fill="black"/>
<path d="M-8.95706 195.428C13.9014 195.658 38.4019 195.822 61.2932 195.297C61.129 189.785 61.9172 178.533 61.2932 173.251C39.2887 172.923 13.0803 172.988 -8.92422 173.251C-9.38401 180.304 -9.05559 188.243 -8.92422 195.395L-8.95706 195.428ZM-8.79284 193.624C-6.85513 194.247 -4.81889 194.444 -2.78265 194.083C-4.65468 193.033 -6.82229 192.836 -8.79284 193.525C-8.79284 192.771 -8.79284 192.049 -8.79284 191.294C-7.97178 191.885 -7.11787 191.885 -6.29681 191.196C-7.08503 190.507 -7.97178 190.507 -8.79284 191.065C-8.79284 190.113 -8.79284 189.162 -8.79284 188.178H-8.72716C-4.95026 188.178 -1.14052 189.26 2.63637 188.276C6.052 187.161 9.53332 188.342 12.8833 187.358C9.23773 187.489 5.59221 186.177 1.94668 187.358C-1.60032 188.178 -5.24584 187.292 -8.79284 188.145C-8.79284 186.931 -8.79284 185.75 -8.79284 184.536C-3.60372 185.028 1.58541 184.799 6.7417 183.88C1.55257 183.388 -3.6694 183.585 -8.79284 184.503C-8.79284 183.224 -8.79284 181.977 -8.79284 180.698C-5.73848 180.928 -2.61844 181.977 0.403079 181.092C-2.65128 180.567 -5.73848 179.484 -8.79284 180.6C-8.79284 179.583 -8.79284 178.566 -8.79284 177.549C-4.9831 178.139 -1.27189 178.401 2.57069 178.336C-1.07484 176.991 -4.9831 176.696 -8.79284 177.45C-8.79284 176.236 -8.79284 174.99 -8.79284 173.776C13.5073 174.071 38.7632 174.137 60.9976 173.776V178.697C56.2026 178.073 51.3091 178.139 46.4812 178.926C51.3419 179.582 56.2026 179.517 61.0305 178.762V181.485C58.8957 180.468 56.4654 180.304 54.2649 181.157C56.531 181.748 58.7315 181.846 61.0305 181.584C61.0305 182.666 61.0305 184.175 61.0305 185.291C60.1766 184.602 59.0928 184.536 58.1732 185.127C58.9942 185.881 60.0452 186.013 61.0305 185.488V187.915C56.4654 187.489 51.8346 186.373 47.4008 188.375C51.9659 187.784 56.5967 188.932 61.0633 187.915V191.59C59.5526 190.868 57.9104 190.802 56.334 191.458C57.8776 192.213 59.5526 192.279 61.0962 191.655V195.133C38.3363 194.608 13.8357 194.772 -8.95706 195.002C-8.95706 194.509 -8.95706 194.05 -8.95706 193.558L-8.79284 193.624Z" fill="black"/>
<path d="M-8.92401 222.001C13.6388 222.231 38.6649 222.395 61.3263 221.87C61.1949 216.129 61.9174 205.368 61.3263 199.824C39.3217 199.496 13.1134 199.562 -8.89117 199.824C-9.31812 206.878 -9.02254 214.817 -8.89117 221.969L-8.92401 222.001ZM-8.82548 221.641C-8.82548 220.919 -8.82548 220.197 -8.82548 219.475C-7.08483 220.591 -4.95006 220.558 -3.24224 219.278C-5.17995 219.114 -6.88777 219.18 -8.82548 219.377C-8.82548 218.196 -8.82548 217.015 -8.82548 215.834C-6.36229 216.391 -3.73488 216.949 -1.30453 216.162C-3.76773 215.506 -6.2966 214.981 -8.82548 215.768C-8.82548 214.522 -8.82548 213.308 -8.82548 212.061C-2.94666 214.128 1.06014 212.52 6.70906 210.814C4.04881 210.683 1.35572 211.306 -1.14032 211.963C-3.60351 212.422 -6.23092 211.766 -8.82548 211.995C-8.82548 210.814 -8.82548 209.666 -8.82548 208.485C-6.92061 209.076 -5.04858 209.076 -3.17656 208.321C-4.9829 207.632 -6.9863 207.665 -8.82548 208.321C-8.82548 207.14 -8.82548 205.959 -8.82548 204.778C-5.54122 204.351 -2.65108 206.91 0.600338 205.172C2.14394 204.975 4.04881 205.795 5.36252 204.384C6.90612 203.499 7.79287 206.484 9.82911 204.384C7.79287 205.959 7.00464 202.744 5.16546 203.63C3.4248 204.909 2.30815 203.827 0.501812 204.122C-2.58539 205.861 -5.67259 203.466 -8.79264 204.712C-8.79264 203.269 -8.79264 201.793 -8.79264 200.349C13.3433 200.644 38.8291 200.71 60.9979 200.349V203.203C60.2425 202.514 59.1258 202.481 58.3704 203.203C59.2572 203.827 60.0783 203.925 61.0307 203.531V205.565C57.0896 204.68 52.3931 203.499 49.0103 206.517C52.9514 204.778 56.9582 206.189 61.0307 205.631C61.0307 206.681 61.0307 208.977 61.0635 209.994C59.2572 209.01 56.9582 208.78 55.1847 209.994C57.1553 210.224 59.1258 210.453 61.0635 210.125C61.0635 210.978 61.0635 212.487 61.0964 213.373C59.1915 212.947 57.3852 212.061 55.4475 212.192C54.7249 212.389 54.1337 213.144 53.4112 212.98C52.4588 212.422 51.0137 212.225 49.9627 212.389C47.7295 212.389 45.2334 210.946 43.1643 212.553C45.4633 211.569 47.6309 213.34 49.9299 213.406C51.2764 213.275 52.0647 213.472 53.247 214.029C54.1338 214.292 54.8563 213.373 55.546 213.111C57.3195 212.947 59.2244 213.505 61.0307 213.439V216.293C59.2572 215.407 57.3523 215.407 55.5788 216.293C57.3852 216.851 59.1915 216.851 61.0307 216.359V218.983C59.9469 218.36 58.666 218.491 57.6808 219.278C58.7974 219.935 60.0454 219.803 61.0635 219.049V221.772C38.2379 221.247 13.7702 221.411 -9.02254 221.641H-8.82548Z" fill="black"/>
<path d="M32.8188 44.9444C31.3409 42.9432 29.2061 41.5654 27.4655 39.925C23.7214 42.8776 20.1416 43.8946 21.2911 49.5373L21.521 53.9662C21.521 54.0646 21.5866 54.1631 21.6523 54.1631C34.658 53.3429 33.7712 58.1983 32.786 44.9444H32.8188ZM30.3885 51.6698C29.9287 52.2931 29.1733 52.8508 28.4507 53.4413C26.2503 53.6054 24.017 53.8022 21.8165 53.7366C21.8165 51.637 21.9151 48.2251 21.8822 46.1911C22.0793 44.3211 24.3454 43.4353 25.4621 41.9918C26.2174 42.1559 27.0057 42.1559 27.7282 42.4183C30.9139 46.027 30.684 46.9456 30.4213 51.637L30.3885 51.6698Z" fill="black"/>
<path d="M36.4972 53.3429C36.6615 53.6054 36.8913 53.6382 37.0556 53.6382C38.4678 53.6382 39.88 53.9006 41.2594 53.9663C41.8177 53.9335 42.803 54.2943 43.1314 53.5398C43.854 49.2421 44.051 47.5362 40.1099 45.0757C34.9865 48.4876 36.2673 47.3393 36.4972 53.3429ZM36.6615 52.5556C36.8914 51.2105 37.0227 49.7998 36.8585 48.4548C37.8109 47.6018 38.7634 46.716 39.6501 45.7318C41.4565 48.4876 41.2923 49.9311 40.9967 53.0805C40.0114 52.8836 36.333 54.1959 36.6615 52.5884V52.5556Z" fill="black"/>
<path d="M19.0906 48.2251C18.6637 46.5519 16.7259 45.7974 15.5108 44.8132C11.8652 47.2409 11.1755 47.897 11.7339 52.3259C11.8652 53.0148 11.4711 54.4255 12.6206 54.1631C21.0283 54.4255 18.5651 55.9674 19.0906 48.2251ZM15.8392 53.5726C14.9196 53.4413 11.7995 54.6224 12.0623 53.1461C12.2593 49.9638 11.7339 48.6188 14.2956 46.3223C14.8868 47.044 15.6093 47.7002 16.0691 48.4875C16.0691 50.0951 16.3975 52.0963 15.8063 53.5726H15.8392Z" fill="black"/>
<path d="M35.5776 151.074C30.684 151.238 30.7826 151.467 35.5776 151.828V151.074Z" fill="black"/>
<path d="M-21.8311 52.2931L-43.4744 56.9516L-42.7519 65.3173L-22.3239 64.005" fill="white"/>
<path d="M-21.8311 52.2931C-28.9908 54.1631 -36.1835 55.8362 -43.4088 57.4437L-43.0147 56.9188C-42.7848 59.3465 -42.4892 62.824 -42.2922 65.2845L-42.7848 64.858C-35.9864 64.4643 -29.1552 64.1363 -22.3239 64.005C-29.2537 64.7596 -36.2163 65.3173 -43.1789 65.8422C-43.4417 63.0208 -43.7701 59.3793 -44 56.5908C-36.6433 55.016 -29.2536 53.5397 -21.8311 52.2931Z" fill="black"/>
<path d="M36.3001 66.3343H33.7056V161.145L36.3658 161.211" fill="white"/>
<path d="M36.3 66.3999C35.4461 66.4327 34.5594 66.4655 33.7055 66.4983L33.8697 66.3342C34.0667 97.8941 34.4609 129.585 33.8697 161.145L33.7383 161.014C34.6251 161.047 35.5118 161.112 36.3986 161.145V161.244C35.479 161.244 34.5265 161.276 33.6069 161.276C32.9829 129.618 33.377 97.8285 33.6069 66.1702C34.5265 66.1702 35.4133 66.2358 36.3329 66.2686V66.367L36.3 66.3999Z" fill="black"/>
<path d="M65.8585 71.2224L36.3001 66.3343L36.3001 161.178L64.4791 157.11L65.8585 71.2224Z" fill="#D1CDCB"/>
<path d="M65.8255 71.2225C57.1222 70.0086 44.7734 68.0074 36.2343 66.6951L36.6613 66.3343C36.924 97.927 36.1358 129.651 36.5956 161.178L36.2343 160.85C43.2298 159.767 57.3521 157.668 64.3804 156.618L63.9863 157.077C64.3148 128.962 65.0373 99.4689 65.8255 71.1896V71.2225ZM65.8912 71.1896C65.7598 99.6657 65.5299 129.192 64.9059 157.536C57.6806 158.553 43.5582 160.522 36.3 161.506L35.9388 161.572C36.3986 129.749 35.6432 97.7301 35.8731 65.9078C44.6749 67.3185 56.958 69.6477 65.8584 71.1896H65.8912Z" fill="black"/>
<path d="M-21.5685 52.2931C-21.1744 56.2299 -21.4371 60.2323 -22.4224 64.1035C-22.8165 60.1667 -22.521 56.1643 -21.5685 52.2931Z" fill="black"/>
</g>
<defs>
<linearGradient id="paint0_linear_2987_7028" x1="55" y1="243.021" x2="55" y2="374" gradientUnits="userSpaceOnUse">
<stop stop-color="#676767"/>
<stop offset="1" stop-color="#A0A0A0"/>
</linearGradient>
<linearGradient id="paint1_linear_2987_7028" x1="56.5" y1="0" x2="56.5" y2="86.7778" gradientUnits="userSpaceOnUse">
<stop stop-color="white"/>
<stop offset="1" stop-color="#F0F0F0"/>
</linearGradient>
<linearGradient id="paint2_linear_2987_7028" x1="-43.9277" y1="141.165" x2="129.534" y2="141.165" gradientUnits="userSpaceOnUse">
<stop stop-color="#FDE204"/>
<stop offset="0.7" stop-color="#F2A120"/>
<stop offset="1" stop-color="#EE882C"/>
</linearGradient>
<clipPath id="clip0_2987_7028">
<rect width="110" height="374" fill="white"/>
</clipPath>
</defs>
</svg>
