<svg width="132" height="275" viewBox="0 0 132 275" fill="none" xmlns="http://www.w3.org/2000/svg">
<mask id="mask0_2987_7033" style="mask-type:alpha" maskUnits="userSpaceOnUse" x="0" y="0" width="132" height="275">
<rect width="132" height="275" fill="#A25A9F"/>
</mask>
<g mask="url(#mask0_2987_7033)">
<path d="M77.173 70.8729C76.658 70.8729 52.7484 70.8729 52.7484 70.8729L66.7263 156.642L71.5818 155.753L83.8677 155.013" fill="#0ABBEF"/>
<path d="M36.5634 286.555C36.122 286.778 35.9012 286.852 35.9748 286.778C36.122 286.481 36.4898 284.704 36.8576 282.185L36.3427 282.482C36.3427 282.259 37.0783 273.816 37.0783 273.816L40.6832 224.784L41.051 224.71V219.081L43.1109 186.861L44.0673 185.454L65.1078 155.753L82.6906 155.013L89.4588 185.084C89.4588 185.084 89.3117 185.528 89.0174 186.195C91.1509 185.825 95.2707 184.565 98.2135 183.677C100.273 183.01 101.818 182.566 101.818 182.566L104.614 220.043C104.614 220.043 106.453 244.56 106.674 247.152C106.894 249.744 109.322 277.223 109.322 277.223C109.322 277.223 112.265 300.258 112.339 300.85C112.339 301.072 112.78 302.998 113.221 305.516C114.325 311.071 116.017 319.515 116.017 319.515L117.268 325.885L119.254 333.588L118.96 333.736C118.96 333.736 118.739 333.81 118.445 333.588C118.15 333.366 114.031 332.106 114.031 332.106L113.957 332.032C113.736 332.106 113.516 332.255 113.295 332.255C109.469 332.847 105.717 333.884 102.039 335.217C97.9928 336.625 94.1672 338.476 90.5624 340.55C89.606 333.884 88.6496 327.218 87.7668 320.552C87.5461 318.774 87.2518 316.923 86.2954 315.293C86.0747 314.849 85.7069 314.479 85.6333 313.96C85.2655 312.627 86.4426 311.368 87.5461 310.479C85.9276 310.775 84.5298 309.072 84.6034 307.442C84.6769 305.813 85.7804 304.405 86.9575 303.369C85.0448 294.851 83.647 286.259 82.8377 277.519L83.0584 276.334C83.132 274.186 82.5434 272.038 82.3963 269.89C82.3963 269.594 82.3963 269.298 82.3963 268.927C82.3963 268.927 82.1756 263.372 82.0285 263.298C81.8813 263.15 82.9113 259.817 83.2791 257.447C83.647 255.077 81.2192 249.448 81.2192 249.448C81.2192 249.448 80.4835 246.485 80.1893 245.3C79.895 244.115 78.0558 235.894 78.0558 235.894L75.2602 219.451L75.0395 218.266L74.9659 217.451C74.8924 217.451 74.7452 217.525 74.6717 217.525L72.3175 229.82L68.6391 249.3L65.7699 264.706L65.3285 268.927C65.3285 268.927 65.3285 268.927 65.2549 268.927C65.6228 269.89 66.1378 270.779 66.7263 271.594C66.947 271.964 67.2413 272.26 67.3149 272.705C67.3884 274.038 65.1814 274.186 64.5193 275.371C63.71 276.927 65.9906 278.408 65.9906 280.186C65.9906 280.704 65.8435 281.149 65.6963 281.593C64.3721 285.667 64.225 290.111 64.0778 294.406C64.0043 296.999 63.9307 299.665 63.8571 302.258C63.5629 312.923 63.5629 323.589 64.5928 334.18C64.74 335.588 64.8871 337.069 64.0778 338.254C63.71 338.847 63.1215 339.291 62.4593 339.661C59.8845 341.143 56.7946 341.365 53.8519 341.069C50.9092 340.772 48.04 339.883 45.1708 339.217C42.4488 338.55 39.2854 338.18 37.2255 340.032C36.9312 340.254 36.6369 340.624 36.2691 340.698C36.1219 340.772 35.9013 340.772 35.6805 340.698C34.9449 340.624 34.1356 340.254 33.7678 340.772C32.5907 339.365 32.37 337.365 32.2964 335.514C31.34 319.071 35.1656 302.85 36.5634 286.555ZM37.4462 277.964C37.2255 279.001 37.0783 280.112 37.0048 281.149C37.1519 280.186 37.299 279.075 37.4462 277.964Z" fill="url(#paint0_linear_2987_7033)"/>
<path d="M75.1866 219.377L77.9822 235.82C77.9822 235.82 79.8214 244.041 80.1157 245.226C80.41 246.411 81.1456 249.374 81.1456 249.374C81.1456 249.374 83.5734 255.077 83.2056 257.373C82.8377 259.743 81.8078 263.076 81.9549 263.224C82.102 263.372 82.3227 268.853 82.3227 268.853C82.3227 269.15 82.3227 269.52 82.3227 269.816C82.4699 271.964 83.132 274.112 82.9849 276.26L82.7642 277.445C83.5734 286.111 84.8976 294.777 86.884 303.294C85.7069 304.331 84.6034 305.739 84.5298 307.368C84.4562 308.998 85.854 310.701 87.4725 310.405C86.4426 311.294 85.2655 312.553 85.5597 313.886C85.7069 314.404 86.0012 314.775 86.2219 315.219C87.1782 316.775 87.3989 318.626 87.6932 320.478C88.6496 327.144 89.606 333.81 90.4888 340.476C94.0936 338.402 97.9192 336.55 101.965 335.143L101.892 335.069C97.6985 330.403 95.1972 324.478 92.7694 318.7C92.4016 317.886 92.1073 317.071 92.0337 316.182C91.9602 314.256 93.5051 312.553 93.5051 310.553C92.1809 310.849 90.7831 310.849 89.5324 310.405C89.9738 309.442 90.7831 308.701 91.5188 307.887C92.9901 306.405 94.3144 304.85 95.4179 303.146C95.1236 303.517 94.7558 303.887 94.3143 304.183C93.1373 305.072 91.5188 305.442 90.1945 304.85C89.8267 304.702 89.4589 304.405 89.2381 304.035C88.9439 303.369 89.1646 302.628 89.5324 302.035C89.9003 301.443 90.4152 300.924 90.7095 300.332C93.4315 298.184 95.6386 295.073 97.6249 292.11C95.7857 293.147 93.2844 294.036 91.8866 292.555C91.2245 291.888 91.0038 290.851 90.8566 289.888C89.4588 280.704 89.091 271.372 89.8267 262.113C89.9738 259.817 90.2681 257.521 90.0474 255.225C89.8267 253.225 89.3117 251.3 88.7967 249.374C87.4725 244.93 85.854 240.56 83.9412 236.338C80.8514 229.376 76.9523 222.636 75.5545 215.155C75.5545 216.414 75.3338 217.895 75.1866 219.377Z" fill="#174075"/>
<path d="M32.2228 335.514C32.2964 337.365 32.5171 339.365 33.6942 340.772C34.062 340.18 34.8713 340.624 35.607 340.698C36.9312 338.55 38.2554 336.402 39.5796 334.254C39.7268 333.958 39.9475 333.662 40.0211 333.366C40.1682 332.995 40.1682 332.625 40.2418 332.255C40.536 330.847 41.7867 329.81 43.1109 329.366C44.4351 328.922 45.9065 328.996 47.3043 329.07C46.2008 327.737 45.0237 326.477 43.773 325.292C45.9801 324.181 48.555 323.885 50.9091 324.626C49.3642 321.293 44.3616 320.7 42.9638 317.293C42.5224 316.256 42.5224 315.071 42.5224 313.96C42.5224 304.405 42.8166 294.777 43.3316 285.222C43.8466 281.889 44.3616 278.482 44.803 275.149C46.2008 264.187 46.7158 253.151 48.04 242.189C49.5849 229.45 52.1598 216.859 55.7646 204.563C56.721 201.379 57.751 198.046 60.0316 195.601C62.2386 193.083 67.9034 189.38 70.9933 190.713C70.7725 188.491 68.4919 188.491 68.1977 186.269L44.0673 185.602L43.1109 187.01L41.051 219.229V224.858L40.6832 224.932L37.0783 273.964C37.0783 273.964 36.3427 282.408 36.3427 282.63L36.8576 282.334C36.4898 284.852 36.1219 286.629 35.9748 286.926C35.9012 287 36.1219 286.926 36.5634 286.704C35.1656 302.85 31.34 319.071 32.2228 335.514Z" fill="#174075"/>
<path d="M39.8004 35.469C40.0946 36.2837 40.6096 36.9503 41.051 37.691C42.0074 39.0983 43.0374 40.4315 44.1409 41.6906C44.2144 41.7647 44.288 41.8387 44.4352 41.8387C44.5087 41.8387 44.5823 41.7647 44.6559 41.6906C45.7594 40.6537 47.3779 40.4315 48.7757 40.8018C50.1735 41.1721 51.4241 42.0609 52.6012 42.9497C52.8219 43.0979 53.0426 43.3201 53.2633 43.4682C53.6312 43.9126 53.999 44.4311 54.4404 44.8755C55.5439 43.9867 56.721 43.246 58.0453 42.6535C57.236 41.6906 56.7946 40.4315 56.3532 39.2464C55.1761 35.8393 54.2933 32.4322 53.5576 28.877C53.484 28.3586 53.3369 27.8401 53.484 27.3216V27.2476C53.6312 26.8772 53.9254 26.5069 54.2197 26.2106C55.7646 24.433 57.4567 22.5814 59.8109 21.9148C61.9444 21.3963 64.225 22.0629 66.3585 22.4332C67.9034 22.7295 69.5219 22.8776 71.0668 22.8776C71.3611 22.8776 71.6554 22.8776 71.9496 22.8036C72.7589 23.0258 73.5681 23.322 74.3038 23.5442C76.8051 24.2108 79.7479 24.6552 81.8813 23.1739C82.6906 22.5814 83.3527 21.8407 83.8677 21.026C84.2355 20.4334 84.6034 19.8409 84.8241 19.2484C84.8976 19.1002 84.9712 18.9521 85.0448 18.7299C85.2655 18.1374 85.4862 17.6189 85.6333 17.0263C86.369 14.434 86.2954 11.5454 85.4862 8.95307C84.0148 10.3603 82.1756 11.3232 80.1893 11.6935C80.2628 11.5454 80.41 11.4713 80.4835 11.3232C81.2928 10.2863 81.9549 9.02714 82.2492 7.69393C82.7642 5.69413 82.617 3.54619 81.8813 1.69452C80.2628 3.39806 77.9086 4.13873 75.628 4.36093C73.3474 4.58313 70.9932 4.43499 68.7126 4.65719C65.6228 4.95346 62.68 5.91633 59.7373 6.8792C57.3096 7.69393 54.8818 8.58273 52.5276 9.69373C50.4677 10.7307 48.4814 11.9898 46.7158 13.4711C45.3915 14.5821 44.1409 15.8413 42.9638 17.1745C41.7131 18.6558 40.4625 20.5075 40.6832 22.4332C40.9039 24.2849 42.3752 25.7662 43.6995 27.0994L43.9202 27.4698C43.9937 27.4698 43.9937 27.4698 44.0673 27.4698C44.0673 27.5438 44.0673 27.5438 44.1409 27.6179C44.0673 27.6179 43.9202 27.6179 43.8466 27.6179C42.1545 27.8401 40.6832 28.9511 39.9475 30.5065C39.2118 32.0619 39.2118 33.8395 39.8004 35.469Z" fill="#ED6C2E"/>
<path d="M43.8466 47.9863C44.0673 48.7269 44.288 49.4676 44.7294 50.1342C45.4651 51.2452 46.7893 51.9118 48.04 52.2081C49.3642 52.5043 50.6884 52.5784 52.0127 52.7265C52.3069 52.7265 52.6012 52.8006 52.8219 52.9487C53.1162 53.1709 53.1898 53.5413 53.3369 53.8375C54.7347 59.0222 54.3669 64.5032 55.5439 69.6878C55.6911 70.2063 55.8382 70.7248 56.1325 71.1692C56.2061 71.3914 56.2061 71.6136 56.2796 71.9098C56.4268 72.7246 56.6475 73.5393 56.7946 74.354C56.7946 74.5022 56.8682 74.5762 56.9417 74.7244C57.0153 74.7984 57.1624 74.8725 57.3096 74.8725C60.3994 75.6872 63.71 75.7613 66.7999 75.0947C68.5655 74.7244 70.2576 74.1318 71.8761 73.3912C72.5382 73.0949 73.1267 72.7986 73.7153 72.4283C74.0095 72.2061 74.3774 71.8358 74.3774 71.3914C74.3774 71.1692 74.3038 71.021 74.2302 70.8729C74.2302 70.7988 74.1567 70.7248 74.0831 70.6507C74.2302 69.9841 74.2302 69.2434 74.2302 68.5028C74.2302 67.614 74.1567 66.7252 74.0831 65.9104C74.0095 64.281 73.936 62.7256 73.8624 61.0961C75.4073 61.6146 76.9523 60.7258 78.2765 59.7629C79.5272 58.8 80.7778 57.689 81.6606 56.3558C83.4263 53.7635 83.8677 50.4305 84.0884 47.2456C84.5298 39.3205 83.5734 31.3212 81.2928 23.7664L81.3664 23.9886C78.6443 23.9886 75.8487 23.8405 73.1267 23.5442C70.9197 23.322 68.7126 22.9517 66.5056 22.4332C64.4457 21.9888 62.3858 21.4704 60.3259 21.9148C57.8981 22.5073 56.0589 24.359 54.3668 26.1366C54.0726 26.4328 53.7783 26.7291 53.6312 27.0994C53.4105 27.6179 53.5576 28.1364 53.6312 28.6548C54.3669 33.0248 55.1025 37.4688 57.3096 41.2462C57.5303 41.6165 57.751 41.9869 57.8245 42.4313C57.8245 42.5794 57.8246 42.6535 57.8981 42.8016C57.0889 43.4682 56.2796 44.0607 55.3968 44.7273C55.2497 44.8755 55.029 44.9495 54.8083 44.9495C54.6611 44.9495 54.514 44.8014 54.3668 44.7273C53.4105 43.9126 52.6748 42.7275 51.6448 42.0609C51.0563 41.6906 50.3206 41.3943 49.5849 41.2462C48.2607 40.9499 46.8629 40.8018 45.6858 41.4684C44.5823 42.0609 43.9202 43.246 43.6995 44.4311C43.4052 45.5421 43.5523 46.8012 43.8466 47.9863Z" fill="white"/>
<path d="M86.8104 72.4283C86.7368 72.3542 86.7368 72.2802 86.6633 72.2061C86.5161 72.2061 86.8104 72.3542 86.8104 72.4283Z" fill="white"/>
<path d="M7.7982 117.905L12.2859 119.979C12.2859 119.979 12.2859 119.979 12.3594 119.979C12.8744 120.275 16.8471 122.423 18.1713 123.164C19.5691 123.905 25.1603 127.238 25.1603 127.238L30.4572 129.682L36.2691 121.386C36.2691 121.386 37.814 126.275 38.844 129.608C39.3589 131.385 39.8004 132.719 39.8004 132.793C39.8739 132.941 43.773 147.828 43.773 147.828C43.773 147.828 44.7294 153.902 44.7294 154.939C44.7294 155.976 44.3616 160.864 44.3616 161.16V161.234L42.7431 183.454C42.7431 183.454 42.5224 186.343 42.5224 186.491C42.5224 186.639 60.1787 189.306 60.1787 189.306H70.3311C70.3311 189.306 71.2139 173.9 70.9197 171.233C70.699 169.456 70.4783 168.271 70.3311 167.604C70.184 165.308 69.9633 162.345 69.9633 162.345L67.0941 135.533L62.6065 100.574L59.958 86.2788L59.443 85.8344C59.5902 85.9085 59.8109 85.9085 59.8845 85.8344C59.958 85.7603 59.958 85.6122 59.8845 85.5381C59.6638 84.1309 59.2223 82.7236 58.8545 81.3163C57.0889 75.391 55.6911 69.4656 54.5876 63.3922V63.0959C53.1898 63.3181 51.7184 63.5403 50.5413 64.4291C49.8792 64.9476 49.4378 65.6142 48.9228 66.2808C47.8929 67.8362 46.9365 69.5397 46.2008 71.3173C45.8329 72.058 45.5387 72.8727 45.0973 73.5393L45.0237 73.4652L28.9858 85.5381L28.5444 85.9825L27.8823 86.6491L23.1004 89.9081C23.1004 89.9081 21.629 90.6487 20.3048 92.1301C18.907 93.6114 12.8744 103.833 12.8744 103.833C12.8744 103.833 11.918 106.277 11.1088 108.351C10.1524 110.499 7.7982 117.905 7.7982 117.905Z" fill="white"/>
<path d="M73.8624 72.9468C73.8624 73.3912 74.0095 73.8356 74.0831 74.28C74.3038 75.0947 74.5245 75.9094 74.7452 76.7982C75.2602 78.798 75.7752 80.7979 76.2902 82.7977C76.3637 82.7236 76.4373 82.6495 76.5109 82.5014L76.7316 84.9456L77.3937 93.6114L78.7915 110.943L80.3364 134.867L82.617 159.605L84.3091 185.973C84.3091 185.973 84.3091 185.973 84.6769 186.343C85.1183 186.713 98.9491 183.454 99.1698 183.306C99.3905 183.232 106.085 180.27 106.085 180.27L103.584 159.975L101.083 133.533C101.083 133.533 100.494 124.645 101.083 118.202C101.671 111.758 102.113 85.1678 102.113 85.1678L102.995 79.0202L99.4641 76.502L94.4615 74.2059C94.4615 74.2059 90.5624 72.9468 88.2082 72.4283C87.2518 72.2061 86.8104 72.132 86.7368 72.2061C86.8104 72.2802 86.8104 72.3542 86.884 72.4283C86.8104 72.4283 86.5897 72.2061 86.7368 72.2061C85.854 70.6507 84.8976 69.0953 83.7205 67.7621C82.2492 66.1326 80.4835 64.7253 78.4972 63.8365C77.0994 63.244 75.7016 62.8737 74.1567 62.8737H74.0831L74.2302 68.6509L74.3038 70.6507C74.0095 71.3914 73.7888 72.132 73.8624 72.9468Z" fill="white"/>
<path d="M86.8104 72.4283C86.7368 72.3542 86.7368 72.2802 86.6633 72.2061C86.5161 72.2061 86.8104 72.3542 86.8104 72.4283Z" fill="white"/>
<path d="M121.682 105.462C121.682 105.462 118.518 112.424 116.753 114.276C114.913 116.128 109.543 119.979 109.543 119.979C109.543 119.979 104.246 123.016 102.848 123.46C101.45 123.905 101.083 123.979 101.083 123.979V99.5367L102.995 79.0202" fill="#0ABBEF"/>
<path d="M0.662105 143.755C0.809241 145.606 1.17707 147.458 2.42773 148.717C3.67839 149.976 22.2176 166.197 22.2176 166.197L35.5334 176.418C35.5334 176.418 37.0048 177.233 40.1682 176.196C43.3316 175.085 46.2744 173.826 46.2744 173.826C46.2744 173.826 48.1136 173.529 48.1871 173.604C48.2607 173.678 51.9391 177.159 52.9691 177.233C53.999 177.307 55.3232 176.27 55.3232 176.122C55.3232 175.974 56.1325 176.566 56.1325 176.566C56.1325 176.566 57.9717 177.455 58.4131 177.307C58.8545 177.159 59.3695 176.64 59.3695 176.64L59.6637 175.603L59.958 174.492C59.958 174.492 60.5466 174.492 60.6201 174.492C60.6937 174.492 61.7237 173.529 61.6501 172.863C61.5765 172.196 61.4294 171.307 61.4294 171.307C61.4294 171.307 62.9008 171.159 62.9743 170.493C63.1215 169.752 63.3422 168.937 63.3422 168.937L62.3858 166.789C62.3858 166.789 53.0426 160.123 52.9691 160.049C52.8955 160.049 44.2144 161.16 44.1409 161.234C44.0673 161.308 37.299 163.382 37.299 163.382C37.299 163.382 26.0431 150.124 25.9695 150.05C25.9695 149.976 19.7162 143.903 19.3484 143.606C18.907 143.31 18.392 142.94 18.4656 142.94C18.5392 142.94 19.1277 141.162 19.1277 141.162L24.6453 128.275L25.0867 127.312L16.4057 122.201L9.12245 118.572C9.12245 118.572 8.60746 119.757 7.94534 121.461C7.3568 122.794 6.69469 124.497 6.03258 126.275C4.70835 129.608 3.31056 133.163 2.86915 134.793C1.76563 138.422 0.514969 141.903 0.662105 143.755Z" fill="white"/>
<path d="M102.995 153.087L104.172 165.012L104.393 167.308L105.938 174.27C105.938 174.27 106.159 174.566 106.747 174.344C107.336 174.122 110.794 170.419 110.794 170.122C110.794 169.826 110.426 168.197 110.426 168.197L112.265 162.494L125.728 140.866C125.728 140.866 130.583 133.682 130.216 132.2C129.774 130.719 128.818 128.127 128.818 128.127L119.769 113.684L118.96 112.35C118.96 112.35 114.398 116.646 113.81 117.091C113.221 117.535 107.777 121.016 107.777 121.016L110.794 125.016L115.723 132.719L113.516 137.163L107.483 152.05L102.995 153.087Z" fill="white"/>
<path d="M33.7678 340.328C33.7678 340.624 33.7678 340.92 33.8413 341.143C33.9149 341.661 34.1356 342.254 34.2827 342.772C34.5034 343.957 34.2827 345.142 34.3563 346.401C34.4299 347.586 34.7977 348.92 35.9012 349.512C36.2691 349.734 36.7105 349.808 37.1519 349.808C42.8902 350.623 48.7021 349.29 54.514 349.438C55.5439 349.438 56.6475 349.586 57.6774 349.29C58.7074 349.068 59.7373 348.475 60.1787 347.512C60.3994 346.994 60.473 346.475 60.5466 345.957C60.6201 345.438 60.6937 344.92 60.7673 344.402C60.8408 344.031 60.8408 343.661 60.9144 343.291C60.988 342.55 61.1351 341.809 60.988 341.069C60.8408 340.106 60.2523 339.291 59.5902 338.476C58.5602 337.143 57.3831 335.884 56.1325 334.773C55.2497 333.958 54.2197 333.143 53.1897 332.551C50.9091 331.292 48.2607 330.995 45.7594 331.366C43.1845 331.736 40.8303 332.773 38.6233 334.18L38.6968 334.403C37.8876 334.477 37.2255 335.143 36.7105 335.736C36.0484 336.476 35.4598 337.217 34.8713 338.032C34.3563 338.698 33.8413 339.439 33.7678 340.328Z" fill="#0ABBEF"/>
<path d="M91.5923 341.143C91.7395 343.809 91.8866 346.475 92.0337 349.142C93.5787 349.29 95.1972 349.438 96.6685 348.92C97.8456 348.549 99.0963 347.66 100.273 348.105C100.641 348.253 100.935 348.475 101.303 348.623C102.186 348.994 103.216 348.92 104.172 348.846C113.516 348.179 122.932 348.994 132.349 348.179C133.453 348.105 134.777 347.883 135.365 346.92C135.88 346.105 135.66 344.92 135.145 344.105C135.071 343.957 134.998 343.883 134.924 343.735C134.85 343.587 134.777 343.439 134.85 343.216C134.85 343.068 134.998 342.92 135.071 342.772C135.733 341.809 135.66 340.402 135.071 339.365C134.483 338.328 133.526 337.513 132.57 336.847C129.48 334.847 125.728 333.884 122.05 334.032C121.682 334.032 121.387 334.032 121.02 334.106C120.431 334.18 119.842 334.18 119.254 334.106C118.15 333.884 117.341 332.921 116.679 332.032L116.311 331.884C107.851 332.995 99.6113 335.884 92.2544 340.18C92.0337 340.328 91.813 340.402 91.7395 340.624C91.5188 340.624 91.5923 340.846 91.5923 341.143Z" fill="#0ABBEF"/>
<path d="M6.03258 126.275C6.10615 126.275 6.10615 126.349 6.17972 126.349C7.20967 126.719 8.16605 127.09 9.196 127.46C9.93169 127.682 10.6674 127.904 11.4031 128.052C13.5365 128.497 15.7436 128.497 17.877 128.497C19.8634 128.497 21.8497 128.423 23.8361 128.349C24.1303 128.349 24.351 128.275 24.6453 128.275L25.0867 127.312L16.4057 122.201L9.12245 118.572C9.12245 118.572 8.60746 119.757 7.94534 121.461C7.43037 122.868 6.76826 124.571 6.03258 126.275Z" fill="#F4C6CC"/>
<path d="M0.662105 143.755C0.809241 145.606 1.17707 147.458 2.42773 148.717C3.67839 149.976 22.2176 166.197 22.2176 166.197L35.5334 176.418C35.5334 176.418 37.0048 177.233 40.1682 176.196C43.3316 175.085 46.2744 173.826 46.2744 173.826C46.2744 173.826 48.1136 173.529 48.1871 173.604C48.2607 173.678 51.9391 177.159 52.9691 177.233C53.999 177.307 55.3232 176.27 55.3232 176.122C55.3232 175.974 56.1325 176.566 56.1325 176.566C56.1325 176.566 57.9717 177.455 58.4131 177.307C58.8545 177.159 59.3695 176.64 59.3695 176.64L59.6637 175.603L57.8245 172.641C57.0889 173.752 55.3968 173.381 54.3668 172.567C53.3369 171.752 52.4541 170.567 51.2034 170.345C51.2034 170.863 51.2034 171.456 51.2034 171.974C47.2307 171.159 43.1109 170.937 38.9911 171.382C38.0347 171.456 37.1519 171.604 36.1955 171.382C35.3863 171.159 34.7242 170.715 33.9885 170.271C25.1603 164.345 17.1414 157.161 10.226 149.087C9.04887 147.754 7.87178 146.273 7.1361 144.643C4.85548 139.533 6.9154 133.607 8.82817 128.349C8.90174 128.052 9.04886 127.756 9.12243 127.534C9.6374 125.83 10.0053 123.979 9.04888 122.572C8.7546 122.127 8.31319 121.831 7.87178 121.535C7.28323 122.868 6.62111 124.571 5.959 126.349C4.63478 129.682 3.23699 133.237 2.79558 134.867C1.76562 138.422 0.514969 141.903 0.662105 143.755Z" fill="#F4C6CC"/>
<path d="M102.995 153.087L104.172 165.012C105.129 164.493 106.085 163.901 106.894 163.234C107.189 163.012 107.409 162.79 107.557 162.494C107.777 161.975 107.704 161.383 107.704 160.864C107.777 159.605 108.366 158.42 108.954 157.309C111.897 151.828 114.84 146.273 117.783 140.792C119.107 138.422 120.357 135.978 121.387 133.459C121.461 133.163 121.608 132.941 121.608 132.645C121.608 132.2 121.387 131.756 121.167 131.385C119.769 128.793 118.665 126.053 117.93 123.238C117.783 122.794 117.709 122.275 117.709 121.757C117.709 121.238 117.93 120.646 118.077 120.127C118.813 118.053 119.328 115.906 119.622 113.684L118.813 112.35C118.813 112.35 114.251 116.646 113.663 117.091C113.074 117.535 107.63 121.016 107.63 121.016L110.646 125.016L115.576 132.719L113.368 137.163L107.336 152.05L102.995 153.087Z" fill="#F4C6CC"/>
<path d="M62.0915 58.8C62.9743 59.1703 63.6364 59.911 64.1514 60.6517C64.74 61.3924 65.3285 62.059 66.0642 62.7256C67.9034 64.281 70.1104 65.0957 72.4646 65.6142C72.906 65.6882 73.5681 65.9845 74.0831 65.8364C74.0095 64.2069 73.936 62.6515 73.8624 61.022C75.4073 61.5405 76.9523 60.6517 78.2765 59.6888C79.5272 58.7259 80.7778 57.6149 81.6606 56.2817C83.4263 53.6894 83.8677 50.3564 84.0884 47.1715C84.5298 39.2464 83.5734 31.2472 81.2928 23.6924L81.3664 23.9146C78.6443 23.9146 75.8487 23.7664 73.1267 23.4702C72.6117 26.4328 73.421 29.4696 73.6417 32.4322C73.7888 34.6542 73.6417 36.8762 73.8624 39.0242C74.0831 41.2462 74.8188 43.4682 76.5109 44.9495C75.9959 45.3199 75.2602 45.3199 74.7452 45.6902C74.0095 46.2087 73.936 47.3197 74.0095 48.2085C74.0831 49.0973 74.2302 50.1342 73.7153 50.8749C73.4946 51.2452 73.0532 51.5415 72.9796 51.9118C72.906 52.2081 72.9796 52.4303 73.0532 52.7265C73.6417 54.9485 73.8624 57.3927 72.6853 59.3185C72.391 59.7629 72.0232 60.2073 71.5818 60.4295C71.1404 60.6517 70.699 60.7258 70.2576 60.7258C67.2413 60.948 64.8135 59.6888 62.0915 58.8Z" fill="#F4C6CC"/>
<path d="M53.484 27.2476C53.6312 26.8772 53.9254 26.5069 54.2197 26.2106C55.7646 24.433 57.4567 22.5814 59.8109 21.9148C61.9444 21.3963 64.225 22.0629 66.3585 22.4332C67.9034 22.7295 69.5219 22.8776 71.0668 22.8776C71.3611 22.8776 71.6554 22.8776 71.9496 22.8036C72.7589 23.0258 73.5681 23.322 74.3038 23.5442C76.8051 24.2108 79.7479 24.6552 81.8813 23.1739C82.6906 22.5814 83.3527 21.8407 83.8677 21.026C84.2355 20.4334 84.6034 19.8409 84.8241 19.2484C84.9712 19.2484 85.1183 19.1743 85.2655 19.1002C85.2655 18.878 85.2655 18.5817 85.2655 18.3595C85.1919 18.5077 85.1183 18.6558 84.9712 18.804C84.8241 19.0262 84.6769 19.1743 84.5298 19.3224C83.3527 20.6556 81.6606 21.3963 79.9686 21.6926C77.8351 21.9888 75.628 21.6926 73.5681 21.2482C70.9933 20.7297 68.4184 20.1372 65.7699 19.989C63.1215 19.8409 60.3994 20.1372 58.1188 21.3222C55.9118 22.5073 53.999 24.6552 53.484 27.2476Z" fill="white"/>
<path d="M61.3558 14.0637C65.9906 10.5085 72.3175 9.24934 77.9822 10.8047C78.865 11.0269 79.7479 11.3232 80.6307 11.3973C81.4399 10.3603 82.102 9.1012 82.3963 7.768C81.7342 8.13833 80.9249 8.36054 80.1893 8.4346C78.2765 8.73087 76.3637 8.36054 74.451 8.28647C71.9496 8.13833 69.4483 8.28647 67.0941 9.17527C64.74 10.0641 62.68 11.0269 61.7237 13.323L61.3558 14.0637Z" fill="white"/>
<path d="M66.432 18.878L69.9633 17.2485C71.0668 16.656 72.6117 16.8782 73.7888 17.0263C74.9659 17.1745 76.143 17.6189 77.3201 17.9892C79.3064 18.7299 81.4399 19.3965 83.5734 19.3965C83.9412 19.3965 84.3826 19.3965 84.7505 19.3224C84.8241 19.3224 84.8976 19.3224 84.9712 19.2484C85.1183 19.2484 85.2655 19.1743 85.4126 19.1002C85.4126 18.878 85.4126 18.5817 85.4126 18.3595C85.339 18.5077 85.2655 18.6558 85.1183 18.804C85.339 18.2114 85.5597 17.6929 85.7069 17.1004C84.2355 17.8411 82.3227 17.767 80.7042 17.3967C78.7915 16.9523 77.0258 16.0635 75.1131 15.7672C71.8761 15.1747 68.3448 16.2857 66.432 18.878Z" fill="white"/>
<path d="M40.8303 22.4332C41.051 24.2849 42.5224 25.7662 43.8466 27.0994L44.0673 27.4698C44.1409 27.4698 44.1409 27.4698 44.2144 27.4698L47.0836 26.7291C45.9801 26.8032 44.8766 26.3588 44.1409 25.544C43.6995 25.0256 43.4788 24.5071 43.2581 23.8405C42.6695 21.9888 42.9638 19.915 43.773 18.1374C44.5087 16.3597 45.7594 14.8043 47.1572 13.3971C47.0836 13.3971 46.9365 13.3971 46.8629 13.3971C45.5387 14.5081 44.288 15.7672 43.1109 17.1004C41.7867 18.6558 40.6096 20.5075 40.8303 22.4332Z" fill="white"/>
<path d="M89.9003 79.2425C87.9875 79.7609 86.0747 79.835 84.0884 79.6128C83.7941 79.6128 83.4263 79.5387 83.2056 79.6869C83.0584 79.7609 82.9113 79.9091 82.7641 80.0572C80.6307 82.1311 78.7179 84.3531 77.0994 86.8713C75.9959 84.0568 77.0994 80.8719 78.6443 78.3537C79.3064 77.2427 80.2628 75.9835 81.5871 75.9094C82.1756 75.8354 82.6906 76.0576 83.2056 76.2057C84.6033 76.6501 86.0747 77.0945 87.4725 77.5389" fill="#0ABBEF"/>
<path d="M59.5902 85.8344C60.1787 87.1676 60.473 88.6489 60.5466 90.1303C57.3831 87.9823 54.0726 85.9085 50.8356 83.9087C50.3942 83.6124 49.9528 83.3902 49.4378 83.3161C48.9228 83.2421 48.4814 83.3161 47.9664 83.3902C46.3479 83.6865 44.803 83.9087 43.1845 84.2049C43.2581 83.4643 43.3316 82.7977 43.4788 82.057C43.4788 81.7607 43.5523 81.4645 43.6995 81.2423C43.9202 81.0201 44.2144 80.8719 44.5087 80.7979C46.2744 80.2053 48.04 79.6128 49.8056 79.0202C50.1735 78.8721 50.6149 78.724 50.9827 78.798C52.4541 78.8721 53.1162 80.7979 54.4404 81.3904" fill="#0ABBEF"/>
<path d="M7.7982 117.905L12.2859 119.979C12.2859 119.979 12.2859 119.979 12.3594 119.979C13.7572 120.572 15.155 121.164 16.4793 121.905C16.2586 119.313 16.7 116.646 17.2149 114.128C19.0541 106.055 22.2176 98.2776 26.9259 91.4635C27.9559 90.0562 29.0594 88.5749 30.6779 87.9083C32.6642 87.0935 34.8713 87.6861 36.9312 88.2786L35.092 87.0935C33.0321 86.2788 30.7515 85.9085 28.5444 85.9825L27.8823 86.6491L23.1004 89.9081C23.1004 89.9081 21.629 90.6487 20.3048 92.1301C18.907 93.6114 12.8744 103.833 12.8744 103.833C12.8744 103.833 11.918 106.277 11.1088 108.351C10.1524 110.499 7.7982 117.905 7.7982 117.905Z" fill="#0ABBEF"/>
<path d="M35.3863 122.72L36.2691 121.461C36.2691 121.461 37.814 126.349 38.844 129.682C42.5224 124.201 43.6259 117.239 43.9937 110.499C44.1409 107.61 44.288 104.795 43.8466 101.907C43.5523 99.5368 42.8902 97.1666 42.0074 95.0187L42.081 95.8334C42.5959 104.573 40.4625 113.461 36.0484 121.016C35.7541 121.535 35.4598 121.979 35.3127 122.572C35.3863 122.572 35.3863 122.646 35.3863 122.72Z" fill="#0ABBEF"/>
<path d="M73.5681 72.8727C73.5681 73.4652 73.7888 74.0578 74.0095 74.6503C74.2302 75.3169 74.5245 76.0576 74.7452 76.7242C74.8188 76.9464 74.8924 77.1686 74.9659 77.4649C76.5109 75.0206 78.0558 72.5764 78.7179 69.7619C79.1593 67.8362 79.1593 65.6882 78.4236 63.8365C77.0258 63.244 75.628 62.8737 74.0831 62.8737C74.2302 64.7994 74.3038 66.7252 74.1567 68.6509C74.0831 69.3175 74.0095 70.0582 73.8624 70.7248C73.7153 71.3914 73.5681 72.132 73.5681 72.8727Z" fill="#0ABBEF"/>
<path d="M33.7678 340.328C33.7678 340.624 33.7678 340.92 33.8413 341.143C34.2092 339.809 35.3863 338.698 36.5634 337.958C40.0211 335.662 44.3616 334.551 48.4814 335.143C52.6012 335.736 56.5003 337.958 59.0016 341.291C59.7373 342.254 60.3259 343.291 60.8408 344.402C60.9144 344.031 60.9144 343.661 60.988 343.291C61.0615 342.55 61.2087 341.809 61.0616 341.069C60.9144 340.106 60.3259 339.291 59.6637 338.476C58.6338 337.143 57.4567 335.884 56.2061 334.773C55.3232 333.958 54.2933 333.143 53.2633 332.551C50.9827 331.292 48.3343 330.995 45.8329 331.366C43.2581 331.736 40.9039 332.773 38.6968 334.18L38.7704 334.403C37.9612 334.477 37.299 335.143 36.7841 335.736C36.122 336.476 35.5334 337.217 34.9449 338.032C34.3563 338.698 33.8413 339.439 33.7678 340.328Z" fill="white"/>
<path d="M109.102 338.106L109.984 337.736C112.78 336.921 115.576 336.106 118.445 336.106C123.006 336.106 127.273 338.032 131.098 340.55C131.319 340.698 131.613 340.92 131.761 341.143C131.981 341.513 131.908 342.031 131.761 342.402C131.54 342.772 131.246 343.142 130.951 343.439C132.276 343.439 133.6 343.513 134.924 343.587C134.85 343.439 134.777 343.291 134.85 343.068C134.85 342.92 134.998 342.772 135.071 342.624C135.733 341.661 135.66 340.254 135.071 339.217C134.483 338.18 133.526 337.365 132.57 336.699C129.48 334.699 125.728 333.736 122.05 333.884C117.562 334.328 113.074 335.884 109.102 338.106Z" fill="white"/>
<path d="M79.4536 193.379C78.2765 199.379 77.0994 205.452 76.2166 211.526L79.4536 193.379Z" fill="#4C742C"/>
<path d="M75.628 214.488C75.628 214.637 75.7016 214.785 75.7016 214.859C75.8487 213.748 75.9959 212.637 76.143 211.526L75.628 214.488Z" fill="#4C742C"/>
<path d="M95.565 302.998C96.1536 302.258 96.6685 301.443 97.0364 300.628C96.595 301.443 96.08 302.258 95.565 302.998Z" fill="#4C742C"/>
<path d="M98.2135 183.603C100.568 200.712 100.862 218.044 102.039 235.301C103.069 250.559 104.687 265.817 106.894 281C107.557 285.444 108.292 289.888 109.396 294.258C110.352 298.11 111.676 301.887 113.295 305.516C112.78 302.924 112.412 300.998 112.412 300.85C112.339 300.258 109.396 277.223 109.396 277.223C109.396 277.223 106.968 249.744 106.747 247.152C106.527 244.56 104.687 220.043 104.687 220.043L101.892 182.566C101.818 182.492 100.273 183.01 98.2135 183.603Z" fill="white"/>
<path d="M60.1052 277.667C60.9144 278.556 62.0179 279.297 62.3122 280.408C62.4593 281 62.3858 281.593 62.3122 282.185C61.7237 288.851 62.2386 295.666 63.8571 302.183C63.9307 299.591 64.0043 296.925 64.0778 294.332C64.225 290.037 64.3721 285.667 65.6963 281.519C65.8435 281.074 65.9906 280.63 65.9906 280.112C65.9171 278.408 63.6364 276.853 64.5193 275.297C65.1814 274.112 67.462 273.964 67.3148 272.631C67.3148 272.186 67.0206 271.89 66.7263 271.52C66.0642 270.705 65.6228 269.816 65.2549 268.853H65.3285L65.7699 264.632L68.6391 249.226C69.5219 242.189 70.8461 235.153 72.2439 228.191C75.2602 213.081 78.3501 197.972 81.5871 182.936L66.2849 237.671C64.3721 245.374 62.4593 253.077 60.473 260.78C59.7373 263.669 59.0752 266.854 60.3994 269.446C60.9144 270.557 61.8708 271.816 61.2087 272.853C60.7673 273.52 59.8845 273.742 59.443 274.334C58.6338 275.371 59.2959 276.779 60.1052 277.667Z" fill="white"/>
<path d="M80.8514 23.4702C81.7342 25.6181 82.1756 27.9142 82.3963 30.2102C82.617 32.5063 82.8377 34.8024 82.9849 37.0984C83.2791 41.6906 83.3527 46.2827 82.3227 50.7267C81.8813 52.9487 81.1456 55.0967 79.895 56.8743C78.7179 58.6519 76.8787 60.0592 74.7452 60.4295C73.7153 60.6517 72.5382 60.6517 71.4347 60.5776C70.3311 60.5776 69.154 60.4295 68.0505 60.2813C65.7699 59.9851 63.5629 59.3185 61.4294 58.4297C63.4157 59.6148 65.6228 60.4295 67.9034 60.9479C69.0069 61.2442 70.184 61.3923 71.3611 61.5405C72.5382 61.6145 73.7153 61.6886 74.8924 61.5405C76.143 61.3923 77.3201 60.8739 78.3501 60.2073C79.38 59.5407 80.2628 58.6519 80.9985 57.6149C82.3963 55.6151 83.2056 53.245 83.7205 50.9489C84.2355 48.6529 84.4562 46.2827 84.4562 43.9126C84.4562 41.5425 84.3091 39.2464 84.0148 36.8762C83.7205 34.5802 83.3527 32.2841 82.9849 29.988C82.617 27.8401 82.0285 25.544 80.8514 23.4702Z" fill="black"/>
<path d="M51.8655 42.2831C50.9827 41.6906 50.0999 41.0981 49.0699 40.7277C48.04 40.3574 46.7893 40.2093 45.6858 40.7277C44.5823 41.2462 43.773 42.2091 43.2581 43.246C42.7431 44.357 42.5959 45.5421 42.7431 46.7271C42.9638 49.0973 44.3616 51.2452 46.3479 52.5043C48.3343 53.6894 50.762 54.0597 53.0426 53.4672L52.2334 53.0228C52.8219 55.0226 53.2633 57.0224 53.7047 59.0963C54.1461 61.1702 54.4404 63.244 54.7347 65.3179C54.8818 63.17 54.8083 61.0961 54.5875 58.9481C54.3668 56.8002 53.999 54.7263 53.484 52.6525C53.4105 52.2821 53.0426 52.134 52.7484 52.134C50.8356 52.5043 48.7757 52.2081 47.0836 51.1711C45.3915 50.2083 44.288 48.4307 43.9937 46.5049C43.8466 45.5421 43.9202 44.5792 44.288 43.6904C44.6559 42.8016 45.2444 41.9869 46.0536 41.4684C46.8629 41.024 47.8929 40.9499 48.9228 41.1721C49.9528 41.3943 50.9091 41.8387 51.8655 42.2831Z" fill="black"/>
<path d="M53.0426 48.6529C52.4541 48.8751 51.8655 49.0973 51.277 49.2454C50.6884 49.3935 50.0999 49.5417 49.5113 49.6898L49.8792 49.912C49.732 49.3195 49.3642 49.0232 49.2906 48.6529C49.2171 48.3566 49.2906 48.0603 49.5113 47.7641C49.732 47.4678 50.0999 47.1715 50.3942 46.8012C50.6884 46.4309 50.9827 45.9124 50.9091 45.3199C50.8356 45.0236 50.6884 44.7273 50.3942 44.5792C50.1735 44.4311 49.8792 44.357 49.5849 44.357C49.0699 44.357 48.6285 44.5051 48.1871 44.6533C47.8193 44.8014 47.3779 44.8755 47.01 44.7273C46.6422 44.5792 46.4215 44.1348 46.2744 43.7645C46.3479 44.2089 46.4215 44.7273 46.8629 45.0236C47.3043 45.3199 47.8193 45.2458 48.2607 45.1717C48.7021 45.0977 49.0699 44.9495 49.5113 45.0236C49.8792 45.0236 50.0999 45.2458 50.1735 45.5421C50.1735 45.8383 50.0999 46.2087 49.8056 46.4309C49.5113 46.7271 49.2171 47.0234 48.9228 47.4678C48.7757 47.69 48.6285 47.9122 48.555 48.2085C48.4814 48.5047 48.555 48.801 48.6285 49.0973C48.8492 49.6157 49.2171 49.912 49.2906 50.2083C49.3642 50.3564 49.5114 50.4305 49.6585 50.4305C50.247 50.2823 50.8356 50.0601 51.4241 49.7639C52.0127 49.3195 52.5276 49.0232 53.0426 48.6529Z" fill="black"/>
<path d="M53.1898 26.8772C53.1162 28.2845 53.1898 29.6918 53.3369 31.099C53.484 32.5063 53.7783 33.9136 54.1461 35.2468C54.514 36.654 54.9554 37.9872 55.4704 39.2464C55.9853 40.5796 56.5739 41.8387 57.3096 43.0979L57.5303 42.2831C57.0153 42.6535 56.5003 43.0238 55.9853 43.3201L55.1761 43.8385C54.9554 43.9867 54.5876 44.2829 54.4404 44.357C54.3669 44.357 54.3668 44.4311 54.2933 44.357C54.2197 44.357 54.1461 44.2829 53.999 44.2089C53.7783 43.9867 53.5576 43.7645 53.3369 43.5423C52.8955 43.0979 52.4541 42.6535 51.9391 42.2091C52.2334 42.8016 52.6012 43.3201 52.8955 43.8385C53.0426 44.1348 53.1898 44.357 53.4105 44.6533C53.484 44.8014 53.6312 44.9495 53.8519 45.0977C54.0726 45.2458 54.3668 45.2458 54.5876 45.1717C55.029 45.0236 55.2497 44.8755 55.5439 44.7273L56.3532 44.2829C56.9417 43.9867 57.4567 43.6904 58.0453 43.3941C58.3395 43.246 58.4131 42.8757 58.3395 42.5794V42.5053C57.751 41.2462 57.236 39.9871 56.721 38.7279C56.2061 37.4688 55.7646 36.1356 55.3232 34.8764C54.8818 33.5432 54.514 32.2841 54.1461 30.9509C53.9254 29.5436 53.5576 28.2104 53.1898 26.8772Z" fill="black"/>
<path d="M44.7294 41.9869C43.4788 40.1352 42.081 38.3576 41.1246 36.4318C40.1682 34.5061 39.6532 32.3582 40.7567 30.7287C41.7867 29.0252 43.773 28.1364 45.8329 27.692C47.9664 27.2476 50.1735 26.9513 52.3805 26.7291C50.1735 26.3588 47.8929 26.2847 45.6122 26.581C44.4352 26.7291 43.3316 27.0254 42.2281 27.5438C41.1246 28.0623 40.1682 28.9511 39.5061 29.988C38.844 31.099 38.6233 32.5063 38.844 33.6914C39.0647 34.9505 39.5797 35.9874 40.1682 37.0244C41.3453 38.9501 42.9638 40.5055 44.7294 41.9869Z" fill="black"/>
<path d="M80.4835 11.6195C81.6606 10.2863 82.4699 8.58273 82.7641 6.73106C83.0584 4.95346 82.9113 3.02773 82.2492 1.25012C82.1756 1.02792 81.8813 0.953855 81.6606 1.02792C81.5871 1.02792 81.5135 1.10199 81.4399 1.17606C80.8514 2.06486 79.895 2.65739 78.9386 3.10179C77.9822 3.54619 76.8787 3.76839 75.7752 3.84246C73.5681 4.06466 71.214 3.91653 68.9333 4.21279C64.2985 4.80533 59.8109 5.84226 55.4704 7.5458C51.1299 9.24934 47.01 11.7676 43.9202 15.3228C43.1109 16.2116 42.3752 17.1004 41.7867 18.1374C41.1981 19.1743 40.6832 20.2853 40.6096 21.5444C40.536 22.137 40.6096 22.8036 40.8303 23.322C41.051 23.9146 41.3453 24.433 41.7131 24.8774C42.4488 25.7662 43.3316 26.5069 44.0673 27.4698C43.4788 26.5069 42.6695 25.6181 42.0074 24.7293C41.3453 23.8405 41.051 22.7295 41.1982 21.6185C41.3453 20.5816 41.8603 19.5446 42.5224 18.6558C43.1845 17.767 43.9202 16.8782 44.7294 16.0635C47.8928 12.8045 51.8655 10.5825 56.0589 8.95307C58.1924 8.13833 60.3259 7.5458 62.5329 6.95327C64.74 6.4348 66.947 5.9904 69.2276 5.69413C70.3311 5.546 71.4347 5.47193 72.6117 5.39786C73.7153 5.3238 74.8924 5.3238 76.0694 5.17566C77.2465 5.02753 78.4236 4.73126 79.5271 4.13873C80.6307 3.62026 81.6606 2.80552 82.3227 1.76859L81.5871 1.69452C82.3227 3.24993 82.617 5.02753 82.4699 6.80513C82.102 8.4346 81.5135 10.1381 80.4835 11.6195Z" fill="black"/>
<path d="M60.8408 14.5081C62.6065 13.0267 64.5928 11.9157 66.7999 11.3232C67.9034 10.9529 69.0069 10.8047 70.1104 10.6566C71.2139 10.5085 72.3175 10.5085 73.421 10.5825C74.5245 10.6566 75.628 10.8788 76.658 11.1751C77.6879 11.4713 78.7915 11.9157 79.9686 12.212C81.1457 12.5083 82.5434 12.3601 83.7205 11.7676C84.8976 11.1751 85.7804 10.1381 86.2954 8.879L85.0448 8.95307C85.7804 10.5825 85.854 12.4342 85.5597 14.2859C85.2655 16.1375 84.6769 17.9892 83.8677 19.6187C83.0584 21.2482 81.7342 22.6554 80.1157 23.1739C78.4972 23.6924 76.5844 23.3961 74.6716 23.1739L68.9333 22.3592C67.0206 22.0629 65.1078 21.8407 63.195 21.6185C62.2386 21.5444 61.2087 21.4704 60.1787 21.6185C59.1488 21.7666 58.1924 22.2851 57.4567 22.9517C55.9118 24.2108 54.8818 25.9144 53.3369 27.1735C54.9554 26.1366 56.1325 24.433 57.6774 23.3961C58.4131 22.8776 59.2959 22.5073 60.2523 22.3592C61.1351 22.2851 62.0915 22.3592 63.0479 22.5073C66.8734 23.1739 70.699 23.8405 74.4509 24.5071C75.4073 24.6552 76.3637 24.8774 77.3937 24.8774C78.4236 24.9515 79.4536 24.8774 80.4835 24.5812C81.5135 24.2849 82.4699 23.6183 83.2056 22.8776C83.9412 22.137 84.6033 21.2482 85.0448 20.3594C86.0011 18.5077 86.5897 16.5819 86.884 14.5821C87.1782 12.5823 87.1782 10.3603 86.2219 8.4346C86.0747 8.06427 85.6333 7.91613 85.339 8.13833C85.1919 8.2124 85.0448 8.36054 84.9712 8.50867C84.6769 9.39747 83.9412 10.2122 83.132 10.7307C82.2492 11.2491 81.2928 11.3232 80.2628 11.1751C79.2329 11.0269 78.1294 10.5825 77.0258 10.2863C75.9223 9.99 74.7452 9.84187 73.5681 9.7678C71.2139 9.69374 68.8598 10.0641 66.7263 10.9529C64.4457 11.6195 62.4593 12.8786 60.8408 14.5081Z" fill="black"/>
<path d="M85.854 15.7672C84.9712 15.9153 84.2355 15.8413 83.4998 15.6931C82.7641 15.545 81.9549 15.3228 81.1456 15.1747C80.3364 15.0265 79.5271 14.9525 78.7179 14.9525C77.9086 14.9525 77.0258 14.9525 76.2166 15.1006C76.9523 15.545 77.7615 15.8413 78.5708 16.0635C79.38 16.2857 80.1893 16.5079 80.9985 16.656C81.8078 16.8041 82.617 16.8782 83.4998 16.8782C84.3826 16.8041 85.339 16.4338 85.854 15.7672Z" fill="black"/>
<path d="M84.6769 19.3224C83.0584 19.2484 81.5135 18.804 80.0421 18.2114C78.5708 17.6189 77.0994 16.9523 75.4809 16.4338C74.6717 16.2116 73.7888 16.0635 72.906 16.0635C72.0232 16.0635 71.1404 16.2116 70.3311 16.5079C68.7126 17.0263 67.3148 17.9892 66.0642 19.1002C67.6091 18.5077 69.0805 17.9151 70.6254 17.6189C72.0968 17.3226 73.5681 17.4708 75.1131 17.9152C76.5844 18.2855 78.1294 18.9521 79.7479 19.3224C81.3664 19.7668 83.132 19.915 84.6769 19.3224Z" fill="black"/>
<path d="M63.1215 5.9904C61.503 6.50887 59.8845 7.3236 58.4867 8.2124C57.0153 9.17527 55.6911 10.2863 54.514 11.6935C53.9254 12.3601 53.4105 13.1008 52.9691 13.8415C52.5276 14.5821 52.1598 15.3969 51.8655 16.2857C51.277 17.9892 51.0563 19.7668 51.277 21.4704C51.6448 19.7668 52.1598 18.2114 52.8955 16.7301C53.6312 15.2487 54.5875 13.9155 55.6175 12.6564C56.6475 11.3973 57.8981 10.2863 59.1488 9.17527C60.3994 8.13834 61.7972 7.1014 63.1215 5.9904Z" fill="black"/>
<path d="M53.6312 9.1012C52.6012 9.69374 51.7184 10.5085 50.9827 11.3973C50.247 12.2861 49.5849 13.323 49.1435 14.434C48.7021 15.545 48.4078 16.7301 48.2607 17.9152C48.1136 19.1002 48.1871 20.2853 48.4814 21.4704C48.7757 20.2853 49.0699 19.2484 49.3642 18.1374C49.6585 17.1004 50.0999 16.0635 50.4677 15.0265C50.9091 13.9896 51.3506 13.0267 51.9391 12.0639C52.4541 11.101 53.0426 10.1381 53.6312 9.1012Z" fill="black"/>
<path d="M47.8929 12.4342C47.2307 12.9527 46.7158 13.6933 46.3479 14.5081C45.9801 15.2487 45.6858 16.1375 45.6122 16.9523C45.4651 17.8411 45.4651 18.6558 45.6122 19.5446C45.7594 20.4334 46.0536 21.2482 46.5686 21.9148L46.7893 19.4706C46.8629 18.6558 46.9365 17.9151 47.0836 17.1745C47.2307 16.4338 47.3043 15.6191 47.4514 14.8784C47.5986 14.0637 47.8193 13.2489 47.8929 12.4342Z" fill="black"/>
<path d="M49.6585 26.655C49.2171 27.4698 49.0699 28.4326 49.1435 29.3955C49.2171 30.3584 49.3642 31.2472 49.6585 32.136C49.9528 33.0248 50.3206 33.8395 50.8356 34.6542C51.3506 35.3949 52.0127 36.1356 52.8955 36.58C52.5276 35.7652 52.1598 34.9505 51.8655 34.1358C51.5713 33.321 51.3506 32.5063 51.0563 31.6916C50.762 30.8768 50.5413 30.0621 50.247 29.2474C49.9528 28.4326 49.8056 27.6179 49.6585 26.655Z" fill="black"/>
<path d="M47.3043 26.8772C46.3479 28.2845 46.2008 30.1362 46.6422 31.7656C46.8629 32.5804 47.2307 33.321 47.6721 34.0617C48.1136 34.7283 48.7021 35.3949 49.3642 35.8393C49.2171 35.0246 48.9228 34.2839 48.7021 33.5432C48.4814 32.8026 48.2607 32.136 48.04 31.3953C47.8193 30.6546 47.6721 29.988 47.5986 29.2474C47.4514 28.4326 47.4514 27.692 47.3043 26.8772Z" fill="black"/>
<path d="M44.9501 27.2476C44.4352 27.9142 44.1409 28.803 43.9202 29.6177C43.773 30.5065 43.773 31.3953 43.9202 32.21C44.0673 33.0988 44.3616 33.9136 44.803 34.6542C45.2444 35.3949 45.8329 36.0615 46.5686 36.5059C46.2744 35.6912 46.0536 34.9505 45.8329 34.2098C45.6122 33.4692 45.4651 32.7285 45.318 31.9878C45.1708 31.2472 45.0973 30.5065 45.0237 29.6918C45.0237 28.877 45.0237 28.0623 44.9501 27.2476Z" fill="black"/>
<path d="M42.3752 28.1364C41.7131 28.5808 41.051 29.3214 40.8303 30.2102C40.6096 31.099 40.6096 31.9878 40.7567 32.8026C40.9039 33.6173 41.1981 34.5061 41.6396 35.2468C42.081 35.9874 42.7431 36.654 43.4788 37.0244C43.1845 36.2096 42.8902 35.543 42.6695 34.8024C42.4488 34.0617 42.3017 33.3951 42.1545 32.6544C42.0074 31.9138 41.9338 31.1731 41.9338 30.4324C41.9338 29.7658 42.1545 29.0252 42.3752 28.1364Z" fill="black"/>
<path d="M68.0505 31.3953C67.9034 30.6546 67.6091 29.988 67.0206 29.4696C66.7263 29.1733 66.3585 28.9511 65.917 28.803C65.4756 28.6548 65.0342 28.6548 64.5928 28.7289C63.7836 28.877 63.1215 29.3214 62.6065 29.914C62.0915 30.5065 61.7972 31.1731 61.7972 31.9138C62.3858 31.4694 62.8272 31.025 63.3422 30.8028C63.8571 30.5065 64.3721 30.2843 64.8871 30.2102C65.4021 30.1362 65.7699 30.1362 66.2849 30.3584C66.8734 30.5806 67.3884 31.025 68.0505 31.3953Z" fill="black"/>
<path d="M80.7778 28.877C80.6307 28.2104 80.2628 27.6179 79.7479 27.1735C79.4536 26.9513 79.0857 26.7291 78.7179 26.655C78.3501 26.581 77.8351 26.581 77.4672 26.7291C76.7316 27.0254 76.2166 27.4698 75.7752 27.9882C75.3338 28.5067 75.0395 29.1733 75.0395 29.8399C75.628 29.4696 76.0694 29.1733 76.5844 28.877C77.0258 28.5808 77.5408 28.2845 77.9822 28.1364C78.3501 27.9882 78.6443 27.9882 79.1593 28.1364C79.6743 28.3586 80.1893 28.6548 80.7778 28.877Z" fill="black"/>
<path d="M72.6117 35.9874C72.7589 38.2094 73.4946 40.3574 74.5245 42.2831C74.8188 42.8016 75.0395 43.246 75.3338 43.6904C75.4809 43.9126 75.628 44.1348 75.7752 44.357C75.8487 44.5051 75.9223 44.5792 75.9223 44.5792C75.9223 44.5792 75.9223 44.5792 75.9223 44.5051C75.9223 44.5051 75.9223 44.5051 75.8487 44.5051C74.9659 45.0236 73.936 45.468 72.906 45.6902C74.0095 45.6902 75.1131 45.468 76.143 45.0236C76.2166 45.0236 76.2902 44.9495 76.4373 44.8014C76.5109 44.6533 76.5109 44.4311 76.5109 44.357C76.4373 44.1348 76.3637 44.0607 76.2902 43.9126C76.143 43.6904 75.9959 43.4682 75.8487 43.246C75.5545 42.8016 75.3338 42.3572 75.0395 41.8387C74.1567 39.9871 73.3474 38.0613 72.6117 35.9874Z" fill="black"/>
<path d="M76.658 51.8377C75.4809 51.5415 74.2302 51.3933 73.1267 51.023C72.0232 50.7267 70.9932 50.2083 70.0369 49.3935C70.2576 49.9861 70.699 50.5045 71.2139 50.8749C71.7289 51.2452 72.3175 51.5415 72.906 51.6896C74.2302 52.134 75.4809 52.134 76.658 51.8377Z" fill="black"/>
<path d="M70.2576 48.2085C69.8162 48.5788 69.5955 49.0232 69.4483 49.4676C69.3012 49.912 69.2276 50.3564 69.3012 50.9489C69.7426 50.5786 69.9633 50.1342 70.1104 49.6898C70.3311 49.2454 70.4047 48.7269 70.2576 48.2085Z" fill="black"/>
<path d="M61.8708 45.3199C61.8708 46.6531 62.9008 47.9863 64.3721 48.0603C65.1078 48.1344 65.8435 47.8381 66.3585 47.3937C66.8734 46.8753 67.2413 46.1346 67.2413 45.3939C67.2413 44.6533 66.947 43.9126 66.3585 43.3941C65.8435 42.8757 65.0342 42.6535 64.3721 42.7275C62.9743 42.6535 61.8708 43.9867 61.8708 45.3199ZM61.8708 45.3199C61.8708 44.6533 62.1651 43.9867 62.6801 43.5423C63.195 43.0979 63.7836 42.8757 64.4457 42.9497C65.6963 43.0238 66.5792 44.1348 66.5792 45.3199C66.5792 46.4309 65.6963 47.6159 64.4457 47.69C63.8571 47.7641 63.195 47.5419 62.6801 47.0975C62.1651 46.6531 61.8708 45.9865 61.8708 45.3199Z" fill="black"/>
<path d="M80.1157 43.9867C80.1157 44.8755 80.4835 45.6902 81.2192 46.2827C81.5871 46.579 82.0285 46.8012 82.5434 46.8753C83.0584 46.9493 83.5734 46.9493 84.0884 46.7271C84.2355 46.6531 84.3091 46.5049 84.3826 46.3568V46.2087C84.6769 44.7273 84.7505 43.1719 84.5298 41.6906V41.5425C84.5298 41.3943 84.3826 41.2462 84.2355 41.1721C83.7205 40.9499 83.2056 40.8759 82.6906 40.9499C82.1756 41.024 81.7342 41.2462 81.3663 41.5425C80.4835 42.2831 80.1157 43.1719 80.1157 43.9867ZM80.1157 43.9867C80.1157 43.5423 80.2628 43.0979 80.4835 42.7275C80.7042 42.3572 81.0721 42.135 81.4399 41.9869C81.8078 41.8387 82.2492 41.8387 82.617 41.9128C82.9849 41.9869 83.2791 42.135 83.5734 42.3572L83.2791 41.8387C83.132 43.3201 83.132 44.7273 83.2056 46.2087L83.4998 45.7643C82.9849 46.1346 82.1756 46.3568 81.4399 45.9865C81.0721 45.8383 80.7042 45.5421 80.4835 45.1717C80.2628 44.8755 80.1157 44.4311 80.1157 43.9867Z" fill="black"/>
<path d="M65.917 40.2833C65.3888 40.2833 64.9607 39.0564 64.9607 37.5428C64.9607 36.0293 65.3888 34.8024 65.917 34.8024C66.4452 34.8024 66.8734 36.0293 66.8734 37.5428C66.8734 39.0564 66.4452 40.2833 65.917 40.2833Z" fill="black"/>
<path d="M78.865 38.3576C78.2962 38.3576 77.8351 37.0643 77.8351 35.469C77.8351 33.8736 78.2962 32.5804 78.865 32.5804C79.4339 32.5804 79.895 33.8736 79.895 35.469C79.895 37.0643 79.4339 38.3576 78.865 38.3576Z" fill="black"/>
<path d="M73.5681 61.022C73.3474 61.9849 73.2739 63.0218 73.2003 63.9847C73.1267 64.9476 73.1267 65.9104 73.1267 66.8733C73.1267 67.8362 73.1267 68.799 73.2003 69.7619C73.2739 70.7248 73.3474 71.6876 73.5681 72.7246C73.936 71.7617 74.1567 70.7988 74.3038 69.836C74.4509 68.8731 74.5245 67.8362 74.5245 66.8733C74.5245 65.9104 74.4509 64.8735 74.3038 63.9106C74.1567 62.9478 74.0095 61.9849 73.5681 61.022Z" fill="black"/>
<path d="M7.7982 118.127C8.90172 114.35 10.226 110.721 11.8445 107.166C13.463 103.61 15.3022 100.129 17.4356 96.9444C19.5691 93.7595 22.0704 90.6487 25.3074 88.7971C26.9259 87.9083 28.7651 87.2417 30.5308 87.1676C32.37 87.0195 34.2092 87.4639 35.7541 88.3527C37.299 89.3155 38.5497 90.7228 39.5061 92.2782C40.4625 93.9077 40.9774 95.6853 41.1981 97.5369C41.6396 101.314 40.9774 105.166 40.0211 108.869C38.0347 116.35 34.577 123.46 29.8686 129.608L30.5308 129.46C26.8524 127.238 23.1739 125.164 19.3484 123.238C15.5229 121.312 11.6973 119.535 7.72465 117.905C11.5502 119.757 15.3022 121.683 19.0541 123.831C22.7325 125.905 26.4109 128.052 30.0158 130.349C30.2365 130.497 30.5308 130.423 30.6779 130.274C35.6805 124.127 39.2854 116.942 41.3453 109.239C42.3752 105.462 43.1845 101.388 42.6695 97.3147C42.1545 93.3151 40.0946 89.2415 36.4898 87.0935C34.7241 85.9825 32.5171 85.6122 30.4572 85.7603C28.3973 85.9085 26.411 86.6491 24.6453 87.612C22.8797 88.6489 21.4083 90.0562 20.0841 91.5375C18.7599 93.0189 17.6563 94.6483 16.6264 96.3519C14.5665 99.6849 12.8008 103.24 11.3295 106.869C9.85811 110.499 8.60745 114.276 7.7982 118.127Z" fill="#174075"/>
<path d="M32.2228 127.238C30.5308 125.756 28.6916 124.497 26.8524 123.312C25.0132 122.127 23.0268 121.016 21.114 119.979C19.1277 118.942 17.1414 118.053 15.0815 117.239C13.0216 116.424 10.9616 115.683 8.75461 115.165C10.6674 116.276 12.6537 117.313 14.5665 118.276L20.3784 121.312L26.2638 124.349C28.2502 125.312 30.2365 126.349 32.2228 127.238Z" fill="#174075"/>
<path d="M25.1603 126.793C24.2039 127.904 23.4682 129.163 22.7325 130.423C22.0704 131.682 21.4083 133.015 20.8933 134.348C20.3784 135.681 19.8634 137.089 19.4956 138.496C19.1277 139.903 18.8334 141.31 18.6863 142.792C19.422 141.533 20.0105 140.199 20.5255 138.866C21.1141 137.533 21.629 136.274 22.2176 134.941C22.7326 133.607 23.2475 132.274 23.7625 130.941C24.2775 129.608 24.7925 128.275 25.1603 126.793Z" fill="black"/>
<path d="M9.196 118.572C5.81187 125.016 3.08986 131.83 1.10352 138.866C0.588541 140.644 -4.76837e-07 142.421 -4.76837e-07 144.347C-4.76837e-07 145.31 0.147119 146.347 0.588528 147.236C1.02994 148.125 1.6185 148.939 2.28061 149.606C2.94273 150.272 3.60483 150.939 4.26694 151.532L6.2533 153.383L10.2995 157.013C15.7436 161.827 21.2612 166.493 27.0731 170.863C28.5444 171.974 29.9422 173.011 31.4871 174.048L33.6942 175.603L34.7977 176.344C35.1656 176.566 35.607 176.862 36.1219 177.011C37.1519 177.307 38.1083 176.937 38.9911 176.714C39.8739 176.418 40.6832 176.122 41.566 175.826C43.2581 175.159 44.9501 174.418 46.4951 173.604C44.803 174.344 43.1109 174.937 41.4188 175.455C40.536 175.751 39.7268 175.974 38.844 176.196C37.9611 176.418 37.0783 176.64 36.3427 176.344C35.607 176.048 34.9449 175.381 34.2092 174.863L32.0757 173.233C30.6779 172.122 29.2065 171.011 27.8087 169.9C22.144 165.382 16.7 160.642 11.3295 155.827L7.28324 152.198C5.95901 151.013 4.56122 149.754 3.31057 148.569C2.72202 147.976 2.20704 147.31 1.8392 146.569C1.47136 145.828 1.32421 145.014 1.32421 144.199C1.32421 142.495 1.76564 140.792 2.20705 139.014C4.04625 132.126 6.32685 125.238 9.196 118.572Z" fill="black"/>
<path d="M13.6101 140.199C16.185 141.236 18.4656 142.94 20.5255 144.866C22.5854 146.791 24.4246 148.865 26.2638 151.013L37.2255 163.827C37.4462 164.049 37.6669 164.123 37.9612 164.049C40.6096 163.16 43.2581 162.419 45.9065 161.753C47.2307 161.383 48.6285 161.086 49.9528 160.79C50.6149 160.642 51.277 160.494 51.9391 160.42C52.6012 160.346 53.1898 160.494 53.7783 160.79C54.3669 161.086 54.9554 161.457 55.5439 161.827L57.236 163.012C58.4131 163.827 59.5166 164.641 60.6201 165.456C61.7237 166.271 62.8272 167.16 63.2686 168.493C63.4893 169.16 63.3422 169.9 62.9008 170.419C62.5329 171.011 61.8708 171.382 61.1351 171.233C61.7972 171.456 62.5329 171.085 62.9743 170.493C63.4157 169.9 63.6364 169.16 63.4157 168.419C63.2686 167.678 62.8272 167.086 62.3858 166.567C61.9444 166.049 61.3558 165.604 60.8409 165.086C59.7373 164.197 58.6338 163.308 57.5303 162.494L55.8382 161.234C55.2497 160.79 54.7347 160.42 54.0726 160.049C53.4105 159.679 52.6012 159.457 51.8655 159.531C51.1299 159.531 50.3942 159.679 49.7321 159.753C48.3343 159.975 47.01 160.272 45.6122 160.494C42.8902 161.086 40.1682 161.679 37.4462 162.494L38.1819 162.716L26.6317 150.421C24.7189 148.347 22.8061 146.347 20.5991 144.495C18.6127 142.718 16.2586 141.088 13.6101 140.199Z" fill="black"/>
<path d="M73.6417 72.3542C72.2439 72.8727 70.8461 73.3171 69.4483 73.6874C68.0505 74.0578 66.6527 74.354 65.2549 74.5762C63.8571 74.7984 62.4593 74.8725 60.988 74.9466C59.5902 74.9466 58.1188 74.9466 56.6475 74.8725C57.9717 75.5391 59.4431 75.9094 60.988 76.1316C62.4593 76.3538 64.0043 76.3538 65.4756 76.1316C66.947 75.9094 68.4184 75.465 69.8162 74.8725C71.2875 74.2059 72.6117 73.3912 73.6417 72.3542Z" fill="black"/>
<path d="M59.8109 86.3529C60.473 90.6487 61.2087 94.9446 61.7972 99.1664C62.3858 103.462 63.0479 107.758 63.5629 112.054C64.4457 120.646 65.917 129.238 67.0206 137.829C67.5355 142.125 68.0505 146.421 68.4184 150.791L69.4483 163.753C70.1104 172.418 70.2576 181.01 70.0369 189.676L70.8461 188.935C68.4919 188.861 66.1378 188.787 63.7836 188.713C61.4294 188.565 59.0752 188.417 56.721 188.195C54.3669 187.972 52.0127 187.75 49.6585 187.38C47.3043 187.084 44.9501 186.713 42.596 186.343L42.9638 186.787C43.1109 183.158 43.2581 179.603 43.3316 175.974C43.3316 175.9 43.3316 175.9 43.2581 175.9C43.1845 175.9 43.1845 175.9 43.1845 175.974C42.8167 179.529 42.4488 183.158 42.1545 186.713C42.1545 186.936 42.3017 187.084 42.4488 187.158C44.803 187.676 47.0836 188.121 49.4378 188.491C51.792 188.861 54.1461 189.232 56.5003 189.528C58.8545 189.824 61.2087 190.046 63.6364 190.194C65.9906 190.343 68.4184 190.491 70.7725 190.491C71.214 190.491 71.5818 190.12 71.5818 189.75C71.6554 185.38 71.5818 181.084 71.4347 176.714C71.3611 174.566 71.214 172.344 71.0668 170.196L70.8461 166.938C70.7725 165.827 70.6254 164.79 70.4783 163.679C69.3747 155.087 68.4184 146.421 67.5355 137.829C66.7263 129.163 65.9906 120.572 64.8871 111.906C64.2985 107.61 63.5629 103.314 62.7536 99.0923C61.9444 94.7965 60.988 90.5747 59.958 86.3529C59.958 86.2788 59.8845 86.2788 59.8845 86.2788C59.8109 86.2788 59.8109 86.3529 59.8109 86.3529Z" fill="#174075"/>
<path d="M36.2691 121.386C36.8576 124.794 37.7404 128.052 38.7704 131.385C39.7268 134.644 40.8303 137.903 41.7131 141.162C42.6695 144.421 43.4052 147.68 43.9202 151.087C44.4352 154.42 44.5823 157.827 44.3616 161.234C45.1708 157.901 45.318 154.42 45.0237 150.939C44.7294 147.458 43.9937 144.125 43.1109 140.792C42.1545 137.459 41.051 134.274 39.8004 131.015C38.6233 127.83 37.4462 124.645 36.2691 121.386Z" fill="#174075"/>
<path d="M107.115 158.198C107.262 159.086 107.557 159.827 107.63 160.568C107.777 161.308 107.777 161.975 107.557 162.494C107.336 163.086 106.895 163.753 106.453 164.419C106.012 165.086 105.644 165.827 105.35 166.641C106.085 166.197 106.747 165.678 107.336 165.086C107.924 164.493 108.513 163.901 108.954 162.938C109.322 161.975 109.175 160.864 108.807 160.123C108.366 159.383 107.777 158.716 107.115 158.198Z" fill="black"/>
<path d="M108.513 162.494C108.439 163.53 108.954 164.419 109.102 165.234C109.322 166.049 109.102 166.493 108.587 167.308C108.145 168.123 107.704 168.863 107.189 169.456C106.674 170.048 106.012 170.567 105.055 170.715C105.497 171.011 106.012 171.011 106.527 170.937C107.042 170.863 107.557 170.641 107.998 170.345C108.881 169.752 109.396 168.863 109.911 168.049C110.131 167.678 110.426 167.16 110.499 166.567C110.573 165.975 110.426 165.308 110.205 164.864C109.69 163.827 109.028 163.308 108.513 162.494Z" fill="black"/>
<path d="M109.837 166.567C109.837 167.086 109.911 167.604 109.911 168.123L109.984 168.863C109.984 169.085 110.058 169.382 110.058 169.53C110.058 169.678 110.058 169.678 109.911 169.826C109.837 169.974 109.617 170.196 109.469 170.345C109.175 170.715 108.881 171.085 108.587 171.456L107.777 172.641C107.483 173.011 107.189 173.307 106.894 173.529C106.6 173.752 106.306 173.9 105.865 173.826C105.497 173.826 105.055 173.604 104.835 173.085C104.761 173.307 104.835 173.678 104.982 173.9C105.129 174.122 105.35 174.344 105.644 174.492C105.938 174.64 106.232 174.715 106.527 174.715C106.821 174.715 107.115 174.64 107.409 174.492C107.998 174.27 108.366 173.826 108.734 173.455C109.102 173.085 109.396 172.641 109.69 172.27C109.984 171.9 110.279 171.456 110.573 171.011C110.72 170.789 110.867 170.641 111.014 170.345C111.088 170.196 111.161 170.048 111.235 169.826C111.235 169.604 111.235 169.382 111.161 169.234C111.088 168.937 110.941 168.715 110.867 168.493L110.499 167.826C110.426 167.456 110.131 167.012 109.837 166.567Z" fill="black"/>
<path d="M76.4373 83.0199C76.658 87.3157 76.9523 91.6116 77.173 95.9815L78.0558 108.869C78.6443 117.461 79.3065 126.127 79.9686 134.718C80.3364 139.014 80.7042 143.31 81.0721 147.606L82.2492 160.494C82.6906 164.79 83.0584 169.085 83.4263 173.381C83.8677 177.677 84.0884 181.973 84.3091 186.269C84.3091 186.417 84.4562 186.491 84.5298 186.491C87.1047 186.417 89.6796 186.121 92.1809 185.528C94.6822 185.01 97.1835 184.269 99.6113 183.38C100.788 182.936 102.039 182.417 103.143 181.825C103.731 181.529 104.32 181.232 104.908 180.936C105.202 180.788 105.497 180.64 105.791 180.418C105.938 180.27 106.085 180.121 106.232 179.899C106.38 179.677 106.38 179.455 106.38 179.233C106.38 178.788 106.306 178.492 106.306 178.196L106.159 177.233L105.938 175.307L105.423 171.456C104.172 161.234 103.143 150.939 102.48 140.644L102.039 132.941C101.892 130.349 101.745 127.756 101.745 125.238C101.671 120.053 101.745 114.943 101.745 109.758C101.745 104.573 101.892 99.4627 102.039 94.278C102.113 91.6857 102.26 89.0933 102.407 86.5751C102.48 85.3159 102.554 83.9827 102.701 82.7236C102.775 81.4644 102.995 80.1312 103.143 78.8721C103.143 78.724 103.069 78.5758 102.995 78.5018C101.745 77.5389 100.494 76.7242 99.1698 76.0576C97.8456 75.3169 96.4478 74.7984 95.05 74.2059C93.6522 73.6874 92.1809 73.243 90.7095 72.8727C89.9738 72.6505 89.2381 72.5764 88.5025 72.3542C87.7668 72.2061 87.0311 72.132 86.2954 71.9839C86.2219 71.9839 86.2219 71.9839 86.2219 72.058C86.2219 72.132 86.2219 72.132 86.2954 72.132C87.0311 72.2802 87.7668 72.4283 88.5025 72.5764C89.2381 72.7986 89.9738 72.9468 90.6359 73.169C92.0337 73.6134 93.5051 74.0578 94.8293 74.6503C96.2271 75.2428 97.5513 75.9094 98.802 76.576C100.053 77.3167 101.377 78.1314 102.48 79.0202L102.333 78.6499C102.113 79.909 101.892 81.1682 101.745 82.5014C101.598 83.7605 101.45 85.0937 101.303 86.3529C101.083 88.9452 100.862 91.5375 100.715 94.1299C100.421 99.3146 100.273 104.499 100.126 109.684C100.053 114.869 99.9791 120.053 100.053 125.238C100.126 130.423 100.494 135.607 100.862 140.792C101.598 151.087 102.701 161.457 104.172 171.678L105.35 179.307C105.35 179.529 105.276 179.603 105.129 179.825C104.982 179.973 104.687 180.121 104.393 180.27C103.878 180.566 103.29 180.862 102.701 181.158C101.598 181.751 100.421 182.269 99.2434 182.788C96.8892 183.751 94.4615 184.565 91.9602 185.084C89.4588 185.602 86.9575 185.973 84.3826 186.047L84.8976 186.269C84.6033 181.973 84.3827 177.677 84.0148 173.381C83.647 169.085 83.4263 164.79 83.132 160.494L82.2492 147.606C81.9549 143.31 81.5871 139.014 81.2928 134.718C80.6307 126.127 79.8214 117.535 79.0857 108.943L77.9087 96.0556C77.4672 91.7597 77.0994 87.4639 76.5844 83.168C76.5844 83.0939 76.5109 83.0939 76.5109 83.0939C76.5109 82.9458 76.4373 83.0199 76.4373 83.0199Z" fill="#174075"/>
<path d="M50.5413 164.864C51.277 165.012 52.0862 164.938 52.7484 164.938C53.1162 164.938 53.4105 165.012 53.7047 165.16C53.999 165.308 54.2197 165.456 54.4404 165.678C55.544 166.641 56.6475 167.604 57.6774 168.567C58.7074 169.53 59.7373 170.567 60.6202 171.678C60.8409 171.974 61.0616 172.27 61.2087 172.493C61.3558 172.789 61.4294 172.937 61.4294 173.233C61.3558 173.826 60.6937 174.27 60.0316 174.64C60.3994 174.566 60.7673 174.492 61.1351 174.344C61.503 174.196 61.8708 173.9 62.0915 173.455C62.3122 173.011 62.2386 172.418 62.0915 172.048C61.9444 171.604 61.7237 171.307 61.5765 171.011C60.8409 169.678 59.8109 168.493 58.7074 167.456C57.6038 166.419 56.3532 165.53 55.1761 164.716C54.8818 164.493 54.4404 164.271 53.999 164.197C53.5576 164.123 53.1162 164.123 52.7484 164.197C51.9391 164.419 51.277 164.716 50.5413 164.864Z" fill="black"/>
<path d="M48.4078 168.345C49.2907 168.419 50.1735 168.493 50.9827 168.567C51.4241 168.567 51.8655 168.567 52.1598 168.641C52.4541 168.715 52.6748 168.937 53.0426 169.234C54.2933 170.345 55.6175 171.456 56.8682 172.641C57.4567 173.233 58.1188 173.826 58.7074 174.418C58.8545 174.566 59.0016 174.715 59.0752 174.863C59.2224 175.011 59.2959 175.159 59.3695 175.233C59.3695 175.233 59.3695 175.307 59.3695 175.381C59.2959 175.529 59.2224 175.751 59.1488 175.9C59.0016 176.27 58.7809 176.566 58.5602 176.788C58.3395 177.011 58.1188 177.011 57.751 176.937C57.3832 176.862 56.9417 176.566 56.5003 176.492C56.0589 176.344 55.6911 176.27 55.2497 176.122C55.6175 176.344 55.9854 176.64 56.3532 176.862C56.721 177.085 57.0153 177.307 57.4567 177.603C57.6774 177.751 57.8981 177.825 58.1924 177.825C58.4867 177.825 58.7809 177.751 59.0752 177.603C59.5902 177.307 59.8845 176.937 60.1787 176.492C60.3259 176.27 60.3994 176.122 60.5466 175.9C60.6201 175.751 60.6937 175.603 60.6937 175.381C60.7673 175.159 60.6937 174.937 60.6202 174.715C60.473 174.344 60.3259 174.196 60.2523 173.974C60.1052 173.752 59.958 173.604 59.8109 173.381C59.2223 172.715 58.5602 172.122 57.9717 171.456C56.6475 170.271 55.3232 169.16 53.8519 168.197C53.484 167.974 53.0426 167.604 52.4541 167.604C51.9391 167.604 51.4977 167.678 51.0563 167.752C50.0999 167.974 49.2171 168.123 48.4078 168.345Z" fill="black"/>
<path d="M45.4651 170.048C47.2307 169.974 49.0699 169.9 50.5413 170.567C50.9091 170.715 51.277 170.937 51.4241 171.159C51.7184 171.456 51.9391 171.752 52.2334 172.122C52.7484 172.789 53.1898 173.529 53.6312 174.27C53.8519 174.64 53.999 175.011 54.1461 175.381C54.1461 175.455 54.2197 175.529 54.2197 175.603V175.677C54.2197 175.751 54.2197 175.9 54.1461 175.974C53.999 176.196 53.8519 176.344 53.5576 176.344C53.2633 176.418 52.9691 176.344 52.6012 176.196C51.9391 175.9 51.2034 175.381 50.5413 174.863C49.8792 174.344 49.2171 173.752 48.555 173.159L48.4814 173.085C48.4078 173.011 48.3343 173.011 48.2607 173.011C47.525 173.233 46.7158 173.455 45.9801 173.678C46.7893 173.678 47.5986 173.678 48.3343 173.604L48.04 173.529C48.555 174.27 49.1435 175.011 49.8056 175.677C50.4677 176.344 51.1298 176.937 52.0862 177.455C52.6012 177.677 53.1162 177.825 53.7783 177.751C54.4404 177.677 55.029 177.233 55.3968 176.714C55.5439 176.418 55.6911 176.122 55.6911 175.751C55.6911 175.677 55.6911 175.529 55.6911 175.455L55.6175 175.233C55.6175 175.085 55.5439 174.937 55.4704 174.863C55.2497 174.344 55.029 173.974 54.8083 173.529C54.2933 172.715 53.7783 171.974 53.1898 171.233C52.8955 170.863 52.6012 170.567 52.2334 170.196C51.792 169.826 51.3506 169.604 50.8356 169.456C49.8792 169.16 48.9228 169.16 48.04 169.234C47.1572 169.53 46.2743 169.752 45.4651 170.048Z" fill="black"/>
<path d="M46.8629 172.344C46.5686 172.344 46.3479 172.418 46.2008 172.493C46.0536 172.567 45.9801 172.641 45.9801 172.715C45.9801 172.789 45.9801 172.863 46.0536 173.011C46.1272 173.085 46.2743 173.233 46.5686 173.455C46.8629 173.455 47.0836 173.381 47.1572 173.381C47.3043 173.307 47.3779 173.233 47.3779 173.159C47.3779 173.085 47.3779 172.937 47.3043 172.863C47.3043 172.567 47.1572 172.493 46.8629 172.344Z" fill="black"/>
<path d="M45.6122 172.641C45.4651 172.937 45.4651 173.159 45.4651 173.307C45.4651 173.455 45.5387 173.604 45.6122 173.678C45.6858 173.752 45.833 173.826 45.9801 173.826C46.1272 173.826 46.3479 173.752 46.6422 173.604C46.7893 173.307 46.7893 173.085 46.7893 172.937C46.7893 172.789 46.7158 172.641 46.6422 172.567C46.5686 172.493 46.4215 172.418 46.2744 172.493C46.0536 172.418 45.9065 172.493 45.6122 172.641Z" fill="black"/>
<path d="M82.3227 155.235C81.2928 154.791 80.1893 154.568 79.1593 154.42C78.0558 154.346 76.9523 154.346 75.9223 154.42C74.8188 154.494 73.7888 154.642 72.7589 154.865C71.7289 155.087 70.699 155.309 69.5955 155.605C70.699 155.902 71.7289 155.976 72.8325 156.05C73.936 156.05 74.9659 156.05 75.9959 155.976C77.0258 155.902 78.0558 155.753 79.1593 155.679C80.1893 155.457 81.2192 155.383 82.3227 155.235Z" fill="black"/>
<path d="M82.5434 157.901C81.5135 157.605 80.41 157.457 79.38 157.383C78.3501 157.309 77.2465 157.235 76.2166 157.309C75.1866 157.309 74.0831 157.383 73.0532 157.531C72.5382 157.605 72.0232 157.679 71.5082 157.753C70.9933 157.901 70.4047 158.049 69.9633 158.346C70.4783 158.346 70.9933 158.346 71.5082 158.42C72.0232 158.494 72.5382 158.568 73.1267 158.568C74.1567 158.642 75.2602 158.716 76.2901 158.642C77.3201 158.642 78.4236 158.568 79.4536 158.42C80.41 158.42 81.5135 158.198 82.5434 157.901Z" fill="black"/>
<path d="M82.6906 160.346C81.6606 160.123 80.5571 160.049 79.5272 160.049C78.4972 160.049 77.3937 160.123 76.3637 160.197C75.3338 160.272 74.3038 160.494 73.2739 160.642C72.2439 160.864 71.214 161.086 70.184 161.383C71.214 161.679 72.3175 161.753 73.3474 161.753C74.3774 161.753 75.4809 161.753 76.5109 161.605C77.5408 161.457 78.5708 161.308 79.6007 161.086C80.6307 161.012 81.6606 160.79 82.6906 160.346Z" fill="black"/>
<path d="M45.7594 72.8727C43.9937 73.8356 42.3017 74.8725 40.6096 76.0576C38.9175 77.1686 37.299 78.3536 35.7541 79.5387C34.1356 80.7238 32.5907 81.9829 31.0457 83.3161C29.5008 84.5753 28.0295 85.9085 26.6317 87.3898C28.3973 86.4269 30.0894 85.39 31.7814 84.2049C33.4735 83.0939 35.092 81.9089 36.6369 80.7238C38.2554 79.5387 39.8004 78.2796 41.3453 76.9464C42.8902 75.6872 44.3616 74.354 45.7594 72.8727Z" fill="#174075"/>
<path d="M46.2744 80.1312C45.3915 80.6497 44.5823 81.3163 43.773 81.9829C43.0374 82.6495 42.3017 83.3902 41.566 84.1309C40.9039 84.8715 40.2418 85.6863 39.5796 86.501C38.9911 87.3157 38.4026 88.2045 37.9612 89.1674C38.844 88.6489 39.6532 87.9823 40.4625 87.3157C41.1982 86.6491 41.9338 85.9085 42.6695 85.1678C43.3316 84.4271 43.9938 83.6124 44.6559 82.7977C45.2444 81.9089 45.833 81.0941 46.2744 80.1312Z" fill="#174075"/>
<path d="M102.48 82.131C101.45 81.3163 100.347 80.6497 99.2434 79.9831C98.1399 79.3165 96.9628 78.7981 95.7857 78.2055C94.6086 77.6871 93.4315 77.1686 92.1809 76.7242C91.0038 76.2798 89.7531 75.9094 88.4289 75.6872C89.4589 76.502 90.5624 77.1686 91.6659 77.8352C92.7694 78.4277 93.9465 79.0203 95.1236 79.6128C96.3007 80.1313 97.4778 80.6497 98.7284 81.02C99.9791 81.5385 101.23 81.9088 102.48 82.131Z" fill="#174075"/>
<path d="M118.813 112.202C121.387 116.35 123.889 120.498 126.316 124.719C126.905 125.756 127.494 126.867 128.009 127.904C128.524 128.941 129.039 130.052 129.406 131.163C129.48 131.311 129.48 131.46 129.48 131.534V131.83C129.48 131.904 129.406 132.052 129.406 132.126C129.406 132.2 129.333 132.348 129.259 132.496C129.039 133.015 128.818 133.533 128.524 134.052C128.009 135.089 127.42 136.2 126.831 137.237C124.477 141.459 121.902 145.606 119.401 149.754C116.9 153.902 114.398 158.05 111.897 162.271C111.897 162.271 111.897 162.271 111.897 162.345C111.382 164.271 110.794 166.197 110.279 168.123C111.014 166.271 111.676 164.419 112.412 162.494V162.568C115.208 158.568 117.93 154.568 120.578 150.421C121.902 148.347 123.227 146.347 124.477 144.199C125.728 142.125 126.979 140.051 128.156 137.903C128.744 136.866 129.333 135.755 129.848 134.644C130.142 134.052 130.363 133.533 130.583 132.867C130.657 132.719 130.657 132.571 130.731 132.348C130.731 132.126 130.804 131.978 130.804 131.756V131.46L130.731 131.163C130.731 131.015 130.657 130.793 130.583 130.645C129.774 128.201 128.45 126.127 127.199 124.053C124.624 119.979 121.829 116.054 118.813 112.202Z" fill="black"/>
<path d="M115.723 132.422C115.355 131.311 114.84 130.274 114.251 129.312C113.663 128.349 113.074 127.386 112.412 126.423C111.75 125.46 111.088 124.571 110.279 123.757C109.543 122.942 108.734 122.053 107.777 121.386C108.292 122.423 108.734 123.46 109.322 124.423C109.911 125.386 110.499 126.349 111.161 127.312C111.824 128.201 112.486 129.163 113.221 129.978C114.031 130.867 114.84 131.682 115.723 132.422Z" fill="black"/>
<path d="M121.682 131.015C120.505 130.497 119.033 130.497 117.783 131.089C117.12 131.311 116.605 131.756 116.017 132.2C115.796 132.422 115.502 132.645 115.281 132.941C115.061 133.237 114.84 133.459 114.619 133.756C113.148 136.052 112.191 138.422 111.088 140.866C110.131 143.31 109.175 145.754 108.292 148.199L107.189 151.458C106.747 151.68 106.085 151.902 105.497 152.05C104.908 152.198 104.246 152.42 103.657 152.569H103.584C103.29 152.643 103.069 152.939 103.143 153.235C103.143 153.309 103.216 153.457 103.29 153.531L106.159 156.42C106.527 156.716 106.747 157.013 106.747 157.309C106.747 157.605 106.6 158.049 106.38 158.42C106.159 158.79 105.938 159.235 105.717 159.605C105.276 160.346 104.687 161.086 104.172 161.827C104.835 161.234 105.497 160.568 106.085 159.827C106.38 159.457 106.674 159.086 106.894 158.716C107.115 158.346 107.483 157.901 107.483 157.309C107.483 157.013 107.409 156.716 107.262 156.42C107.115 156.198 106.968 155.976 106.821 155.827L104.172 152.717L104.025 153.68C104.687 153.531 105.35 153.457 105.938 153.309C106.6 153.161 107.189 153.013 107.924 152.643C108.072 152.569 108.145 152.569 108.292 152.346C108.366 152.198 108.439 152.198 108.439 152.124L108.513 151.976L108.734 151.458L109.102 150.569L109.764 148.717C110.646 146.273 111.529 143.829 112.486 141.384C112.927 140.199 113.442 138.94 113.883 137.755C114.398 136.57 114.84 135.311 115.502 134.274C116.091 133.163 116.973 132.274 118.003 131.608C119.107 131.015 120.431 130.793 121.682 131.015Z" fill="black"/>
<path d="M101.083 123.905C102.26 123.757 103.437 123.312 104.54 122.868C105.644 122.423 106.747 121.905 107.777 121.312C108.881 120.794 109.911 120.127 110.941 119.535C111.971 118.942 113.001 118.276 113.957 117.535C115.943 116.054 117.635 114.276 119.107 112.276C120.505 110.276 121.682 108.054 122.344 105.61C122.417 105.388 122.344 105.24 122.27 105.092C120.725 102.87 119.18 100.648 117.562 98.4257L112.78 91.8338C111.161 89.6118 109.543 87.4639 107.924 85.2419L105.423 81.9829C104.982 81.4645 104.614 80.8719 104.172 80.3534L102.848 78.798C104.467 81.02 105.791 83.3902 107.336 85.6122C108.807 87.9083 110.279 90.1303 111.824 92.4263L116.385 99.1664C117.93 101.388 119.475 103.61 121.02 105.832L120.872 105.24C120.284 107.388 119.18 109.536 117.93 111.461C116.605 113.387 115.061 115.165 113.221 116.646C111.382 118.128 109.396 119.461 107.336 120.72C106.306 121.386 105.276 121.979 104.246 122.497C103.363 123.09 102.26 123.683 101.083 123.905Z" fill="#174075"/>
<path d="M120.137 103.166C118.739 104.944 117.415 106.721 116.017 108.425C114.619 110.128 113.221 111.832 111.676 113.387C110.131 114.943 108.513 116.35 106.747 117.535C104.835 118.646 102.922 119.757 101.083 121.09C103.216 120.35 105.276 119.535 107.262 118.572C109.322 117.535 111.088 116.054 112.706 114.424C114.251 112.795 115.649 111.017 116.9 109.091C118.15 107.24 119.254 105.24 120.137 103.166Z" fill="#174075"/>
<path d="M101.671 348.846C101.23 348.105 100.347 347.735 99.4641 347.735C98.5813 347.66 97.7721 347.957 96.9628 348.179C96.2271 348.401 95.4914 348.697 94.8293 348.697L94.2408 348.771C94.0936 348.771 93.8729 348.771 93.7258 348.771C93.5787 348.771 93.358 348.771 93.2108 348.771H92.9166C92.843 348.771 92.6223 348.771 92.7694 348.771C92.7694 348.771 92.9166 348.846 92.9901 348.92C93.0637 348.994 93.0637 349.068 93.1373 349.142C93.1373 349.216 93.1373 349.068 93.1373 348.994L93.0637 348.401L92.9901 347.216C92.9166 346.401 92.843 345.661 92.6958 344.846C92.4751 343.291 92.2544 341.661 91.813 340.106C91.5923 341.735 91.5188 343.291 91.5188 344.92C91.5188 345.735 91.5188 346.549 91.5188 347.29L91.5923 348.475V349.068C91.5923 349.142 91.5923 349.216 91.6659 349.512C91.6659 349.66 91.7395 349.808 91.8866 349.957C92.0337 350.105 92.1809 350.179 92.328 350.253C92.6223 350.327 92.6223 350.327 92.7694 350.327H93.0637C93.2844 350.327 93.5051 350.327 93.7258 350.327C93.9465 350.327 94.1672 350.327 94.3879 350.253C94.6086 350.253 94.8293 350.179 94.9765 350.179C95.9328 349.957 96.6685 349.586 97.4042 349.216C98.1399 348.92 98.802 348.549 99.4641 348.401C100.2 348.327 101.009 348.401 101.671 348.846Z" fill="black"/>
<path d="M106.968 339.661C109.469 338.032 112.118 336.625 114.84 335.662C116.238 335.217 117.635 334.847 119.033 334.625C120.431 334.403 121.902 334.328 123.3 334.403C126.169 334.551 128.965 335.291 131.466 336.699C132.717 337.439 133.968 338.18 134.63 339.365C134.998 339.958 135.145 340.55 135.145 341.217C135.145 341.883 134.85 342.476 134.335 342.92L134.262 342.994C134.115 343.142 134.115 343.291 134.188 343.439C134.262 343.513 134.262 343.513 134.335 343.513C134.924 343.661 135.365 344.327 135.439 345.068C135.513 345.809 135.292 346.549 135.071 347.29C135.439 346.624 135.807 345.883 135.807 344.994C135.807 344.55 135.733 344.105 135.513 343.735C135.292 343.365 134.998 342.994 134.556 342.772L134.63 343.365C135.365 342.92 135.807 342.031 135.954 341.217C136.101 340.402 135.88 339.439 135.513 338.772C134.703 337.291 133.379 336.328 132.055 335.514C130.731 334.699 129.333 334.106 127.788 333.662C126.316 333.217 124.772 332.995 123.227 332.921C120.137 332.773 117.047 333.44 114.251 334.625C111.676 335.884 109.102 337.587 106.968 339.661Z" fill="black"/>
<path d="M134.85 347.66C132.128 347.809 129.406 347.883 126.611 347.883H118.371C115.649 347.883 112.854 347.957 110.131 348.105C107.409 348.253 104.614 348.401 101.892 348.771C104.614 349.068 107.409 349.216 110.131 349.29C112.854 349.364 115.649 349.438 118.371 349.364C121.093 349.364 123.889 349.29 126.611 349.068C129.406 348.771 132.202 348.401 134.85 347.66Z" fill="black"/>
<path d="M134.188 343.365L123.815 343.291C120.357 343.291 116.9 343.291 113.442 343.291C109.984 343.365 106.527 343.365 103.069 343.587C99.6112 343.735 96.1536 344.031 92.6958 344.55C96.1536 344.698 99.6112 344.698 103.069 344.772C106.527 344.846 109.984 344.846 113.442 344.846C116.9 344.772 120.357 344.698 123.815 344.476C127.273 344.253 130.731 343.883 134.188 343.365Z" fill="black"/>
<path d="M132.496 348.031C132.79 347.66 132.938 347.29 133.085 346.92C133.158 346.549 133.232 346.179 133.232 345.809C133.232 345.438 133.158 345.068 133.011 344.698C132.864 344.327 132.717 343.957 132.423 343.587C132.128 343.957 131.981 344.327 131.908 344.772C131.834 345.142 131.761 345.513 131.761 345.883C131.761 346.475 131.908 347.216 132.496 348.031Z" fill="black"/>
<path d="M128.818 343.661C128.524 344.105 128.376 344.476 128.303 344.846C128.229 345.216 128.156 345.587 128.229 346.031C128.229 346.401 128.303 346.772 128.45 347.216C128.597 347.586 128.744 347.957 129.112 348.327C129.406 347.957 129.553 347.512 129.627 347.142C129.701 346.772 129.774 346.327 129.701 345.957C129.701 345.587 129.627 345.142 129.48 344.772C129.259 344.402 129.112 344.031 128.818 343.661Z" fill="black"/>
<path d="M124.109 343.883C123.815 344.253 123.668 344.698 123.521 345.068C123.447 345.438 123.374 345.883 123.374 346.253C123.374 346.624 123.447 347.068 123.521 347.438C123.668 347.809 123.815 348.179 124.109 348.623C124.404 348.253 124.551 347.809 124.698 347.438C124.772 347.068 124.845 346.624 124.845 346.253C124.845 345.883 124.772 345.438 124.698 345.068C124.551 344.624 124.404 344.253 124.109 343.883Z" fill="black"/>
<path d="M120.137 343.957C119.842 344.327 119.695 344.772 119.548 345.142C119.475 345.513 119.401 345.883 119.401 346.327C119.401 346.698 119.475 347.068 119.548 347.512C119.695 347.883 119.842 348.253 120.137 348.697C120.431 348.327 120.578 347.883 120.725 347.512C120.799 347.142 120.872 346.772 120.872 346.327C120.872 345.957 120.799 345.587 120.725 345.142C120.652 344.698 120.505 344.327 120.137 343.957Z" fill="black"/>
<path d="M116.017 344.031C115.723 344.476 115.576 344.846 115.502 345.216C115.428 345.587 115.428 345.957 115.428 346.401C115.428 346.772 115.502 347.142 115.649 347.512C115.796 347.883 115.943 348.253 116.311 348.623C116.605 348.253 116.753 347.809 116.826 347.438C116.9 347.068 116.9 346.624 116.9 346.253C116.9 345.883 116.826 345.513 116.679 345.142C116.532 344.772 116.311 344.402 116.017 344.031Z" fill="black"/>
<path d="M112.559 348.623C112.854 348.253 113.001 347.883 113.148 347.438C113.221 347.068 113.295 346.698 113.295 346.253C113.295 345.883 113.221 345.513 113.148 345.068C113.001 344.698 112.854 344.327 112.559 343.957C112.265 344.327 112.118 344.698 111.971 345.142C111.897 345.513 111.824 345.883 111.824 346.327C111.824 346.698 111.897 347.068 111.971 347.438C112.118 347.883 112.265 348.253 112.559 348.623Z" fill="black"/>
<path d="M107.557 348.697C107.924 348.327 108.072 348.031 108.292 347.66C108.439 347.29 108.513 346.92 108.587 346.549C108.66 346.179 108.66 345.735 108.587 345.364C108.513 344.994 108.439 344.55 108.145 344.179C107.777 344.55 107.63 344.92 107.409 345.29C107.262 345.661 107.189 346.031 107.115 346.401C107.042 346.772 107.115 347.142 107.115 347.586C107.189 347.883 107.336 348.253 107.557 348.697Z" fill="black"/>
<path d="M104.099 348.697C104.393 348.327 104.54 347.957 104.687 347.586C104.835 347.216 104.835 346.846 104.835 346.475C104.835 346.105 104.761 345.735 104.687 345.364C104.54 344.994 104.393 344.624 104.099 344.253C103.805 344.624 103.658 344.994 103.51 345.364C103.363 345.735 103.363 346.105 103.363 346.475C103.363 346.846 103.437 347.216 103.51 347.586C103.658 347.957 103.805 348.327 104.099 348.697Z" fill="black"/>
<path d="M100.347 344.253C100.053 344.624 99.9055 344.92 99.7584 345.216C99.6848 345.513 99.6113 345.883 99.6113 346.179C99.6113 346.475 99.6848 346.846 99.7584 347.142C99.9055 347.438 100.053 347.809 100.347 348.105C100.641 347.735 100.788 347.438 100.935 347.142C101.009 346.846 101.083 346.475 101.083 346.179C101.083 345.883 101.009 345.513 100.935 345.216C100.788 344.846 100.641 344.55 100.347 344.253Z" fill="black"/>
<path d="M97.0364 348.771C97.3306 348.401 97.5513 348.031 97.6249 347.66C97.7721 347.29 97.772 346.92 97.8456 346.549C97.8456 346.179 97.8456 345.809 97.6985 345.438C97.6249 345.068 97.4778 344.698 97.1835 344.327C96.8892 344.698 96.6685 345.068 96.595 345.438C96.4478 345.809 96.4478 346.179 96.3743 346.549C96.3743 346.92 96.3743 347.29 96.5214 347.66C96.595 348.031 96.7421 348.401 97.0364 348.771Z" fill="black"/>
<path d="M94.4615 349.438C94.7558 348.994 94.9765 348.623 95.05 348.179C95.1972 347.735 95.1972 347.364 95.2707 346.92C95.2707 346.475 95.2707 346.105 95.1236 345.661C95.05 345.216 94.9029 344.846 94.6086 344.402C94.3143 344.846 94.0936 345.216 94.0201 345.661C93.8729 346.105 93.8729 346.475 93.7994 346.92C93.7994 347.364 93.7994 347.735 93.9465 348.179C94.0201 348.623 94.1672 349.068 94.4615 349.438Z" fill="black"/>
<path d="M60.8408 343.735C60.6201 344.476 60.6201 345.216 60.5466 345.957C60.473 346.698 60.3259 347.438 59.8845 347.957C59.5166 348.475 58.8545 348.846 58.1924 348.994C57.5303 349.142 56.7946 349.216 56.0589 349.216C53.1162 349.364 50.247 349.512 47.3043 349.586C44.3616 349.66 41.4924 349.66 38.6233 349.438C37.8876 349.364 37.1519 349.364 36.5634 349.216C36.2691 349.142 36.0484 348.994 35.9012 348.846C35.7541 348.697 35.607 348.549 35.5334 348.253C35.4598 347.957 35.3863 347.66 35.3863 347.29C35.3127 346.92 35.3127 346.624 35.3127 346.253C35.2391 345.587 35.3127 344.846 35.3863 344.179L34.4299 344.772C36.6369 345.438 38.9175 345.661 41.1982 345.587C43.4788 345.587 45.6858 345.29 47.8928 344.92C50.0999 344.55 52.2334 344.105 54.4404 343.809C56.6475 343.439 58.7809 343.291 61.0616 343.291C58.8545 342.994 56.6475 343.068 54.3668 343.142C52.1598 343.291 49.9528 343.587 47.7457 343.883C45.5387 344.105 43.4052 344.327 41.1982 344.327C39.0647 344.327 36.8576 344.031 34.8713 343.439C34.5034 343.291 34.062 343.513 33.9885 343.883C33.9885 343.957 33.9885 343.957 33.9885 344.031C33.9149 344.772 33.9149 345.587 33.9149 346.327C33.9149 346.698 33.9885 347.068 33.9885 347.512C34.062 347.883 34.062 348.253 34.2092 348.697C34.3563 349.142 34.577 349.586 35.0184 349.957C35.3863 350.327 35.8277 350.475 36.2691 350.623C37.1519 350.845 37.8876 350.845 38.6233 350.919C41.566 351.068 44.5087 350.993 47.4514 350.845C50.3942 350.697 53.3369 350.401 56.2061 350.031C56.9417 349.957 57.6774 349.808 58.4131 349.586C59.1488 349.364 59.8845 348.846 60.2523 348.179C60.6937 347.512 60.7673 346.698 60.7673 345.957C60.7673 345.216 60.7673 344.476 60.8408 343.735Z" fill="black"/>
<path d="M57.8246 349.364C58.266 348.994 58.5602 348.475 58.7809 347.957C59.0016 347.438 59.0752 346.846 59.0752 346.327C59.0752 345.809 59.0752 345.216 58.9281 344.698C58.7809 344.179 58.6338 343.661 58.266 343.142C57.9717 343.661 57.8246 344.179 57.751 344.698C57.6774 345.216 57.6038 345.735 57.6038 346.253C57.6038 346.772 57.6038 347.216 57.6038 347.735C57.6774 348.253 57.6774 348.771 57.8246 349.364Z" fill="black"/>
<path d="M54.2197 343.439C53.9254 343.957 53.7047 344.476 53.5576 344.994C53.4105 345.513 53.3369 346.031 53.3369 346.549C53.3369 347.586 53.4105 348.623 53.9254 349.734C54.2933 349.216 54.4404 348.697 54.5876 348.179C54.7347 347.66 54.8083 347.142 54.8083 346.624C54.8083 346.105 54.8083 345.587 54.7347 345.068C54.6611 344.55 54.514 343.957 54.2197 343.439Z" fill="black"/>
<path d="M50.1735 350.031C50.4677 349.512 50.6149 349.068 50.762 348.549C50.9092 348.031 50.9091 347.512 50.9827 347.068C50.9827 346.549 50.9827 346.031 50.8356 345.587C50.762 345.068 50.6149 344.55 50.3206 344.031C50.0263 344.55 49.8056 344.994 49.7321 345.513C49.5849 346.031 49.5849 346.549 49.5113 346.994C49.5113 347.512 49.5114 348.031 49.6585 348.475C49.7321 348.994 49.8792 349.512 50.1735 350.031Z" fill="black"/>
<path d="M46.4951 350.179C46.7893 349.734 47.01 349.29 47.1572 348.771C47.3043 348.327 47.3779 347.809 47.3779 347.364C47.3779 346.92 47.3779 346.401 47.3043 345.957C47.2307 345.513 47.0836 344.994 46.7893 344.55C46.4951 344.994 46.2744 345.513 46.1272 345.957C45.9801 346.401 45.9065 346.92 45.9065 347.364C45.9065 347.809 45.9065 348.327 45.9801 348.771C46.0537 349.216 46.2008 349.66 46.4951 350.179Z" fill="black"/>
<path d="M42.8902 350.253C43.1845 349.808 43.3316 349.364 43.4788 348.92C43.5523 348.475 43.6259 348.031 43.6259 347.586C43.6259 347.142 43.5523 346.698 43.4788 346.253C43.3316 345.809 43.1845 345.364 42.8902 344.92C42.5959 345.364 42.4488 345.809 42.3017 346.253C42.2281 346.698 42.1545 347.142 42.1545 347.586C42.1545 348.031 42.2281 348.475 42.3017 348.92C42.3752 349.364 42.5959 349.808 42.8902 350.253Z" fill="black"/>
<path d="M39.0647 350.179C39.4325 349.734 39.6532 349.364 39.8004 348.92C39.9475 348.475 40.0211 348.031 40.0946 347.66C40.1682 347.216 40.1682 346.772 40.0946 346.327C40.0211 345.883 39.9475 345.438 39.6532 344.92C39.2854 345.29 39.0647 345.735 38.9175 346.179C38.7704 346.624 38.6968 347.068 38.6233 347.512C38.5497 347.957 38.5497 348.401 38.6233 348.846C38.7704 349.216 38.844 349.66 39.0647 350.179Z" fill="black"/>
<path d="M36.2691 344.402C35.9748 344.846 35.8277 345.29 35.6805 345.735C35.607 346.179 35.5334 346.624 35.5334 347.068C35.5334 347.512 35.607 347.957 35.6805 348.401C35.8277 348.846 35.9748 349.29 36.2691 349.734C36.5634 349.29 36.7105 348.846 36.8576 348.401C36.9312 347.957 37.0048 347.512 37.0048 347.068C37.0048 346.624 36.9312 346.179 36.8576 345.735C36.7105 345.364 36.5634 344.92 36.2691 344.402Z" fill="black"/>
<path d="M34.6506 343.883C34.5034 343.068 34.2092 342.254 34.062 341.439C33.9149 340.624 34.2092 339.883 34.6506 339.217C35.5334 337.81 36.6369 336.625 37.8876 335.588C39.1382 334.551 40.536 333.736 42.0074 333.143C43.4788 332.551 45.0237 332.106 46.6422 331.958C48.2607 331.81 49.8792 331.884 51.3506 332.329C52.8219 332.773 54.2197 333.662 55.4704 334.699C56.0589 335.217 56.6475 335.81 57.3096 336.402C57.8981 336.995 58.4867 337.587 59.0752 338.18C60.1787 339.365 61.2087 340.846 61.0615 342.55C61.2822 341.735 61.2087 340.846 60.8408 340.032C60.5466 339.217 60.1052 338.476 59.5902 337.736C58.5602 336.328 57.4567 335.069 56.2796 333.884C55.029 332.625 53.5576 331.588 51.8655 330.995C50.1735 330.403 48.3343 330.329 46.6422 330.477C43.1109 330.773 39.8003 332.329 37.2255 334.699C35.9748 335.884 34.8713 337.291 34.062 338.847C33.8413 339.217 33.6942 339.661 33.6206 340.106C33.5471 340.55 33.6206 341.069 33.6942 341.439C33.9149 342.402 34.3563 343.142 34.6506 343.883Z" fill="black"/>
<path d="M118.739 333.662C118.665 333.292 118.592 332.995 118.371 332.773C118.224 332.551 118.003 332.329 117.783 332.181C117.562 332.032 117.341 331.958 117.047 331.884C116.753 331.81 116.458 331.81 116.091 331.958C116.164 332.329 116.238 332.625 116.458 332.847C116.605 333.069 116.826 333.292 117.047 333.44C117.268 333.588 117.488 333.662 117.783 333.736C118.003 333.736 118.298 333.81 118.739 333.662Z" fill="black"/>
<path d="M81.5135 182.195C79.8214 188.787 78.2765 195.453 76.8051 202.119C75.3338 208.785 74.0095 215.451 72.7589 222.191L71.0668 232.264C70.5518 235.597 69.9633 239.005 69.3747 242.338C68.1241 249.078 66.6527 255.67 65.1814 262.336L64.2985 266.113C64.225 266.557 64.0778 267.002 64.0778 267.52C64.0778 268.039 64.1514 268.705 64.4457 269.15C64.6664 269.594 64.9607 270.038 65.2549 270.335C65.8435 271.001 66.2849 271.668 66.2113 271.964C66.2113 272.186 66.1377 272.26 65.917 272.483C65.6963 272.705 65.4021 272.853 65.0342 273.075C64.6664 273.297 64.225 273.52 63.8571 273.89C63.4157 274.26 63.0479 274.927 62.9743 275.594C62.9007 276.334 63.195 276.927 63.4157 277.371C63.71 277.816 63.9307 278.186 64.225 278.556C64.4457 278.852 64.6664 279.223 64.8135 279.445C64.9607 279.741 64.9607 279.889 64.8871 280.038C64.8871 280.186 64.7399 280.334 64.4457 280.704C64.1514 281 63.7836 281.593 63.6364 282.111C63.3422 283.222 63.3422 284.111 63.3422 284.926L63.195 290.037C63.0479 293.444 62.9743 296.851 62.9008 300.258C62.8272 307.072 62.68 313.886 62.7536 320.7C62.7536 324.107 62.9743 327.588 63.5629 330.995C63.8571 332.699 64.3721 334.328 64.225 335.958C64.1514 336.773 63.9307 337.513 63.4893 338.18C63.0479 338.847 62.3858 339.439 61.5765 339.587C61.503 339.587 61.503 339.661 61.503 339.735C61.503 339.809 61.5765 339.809 61.6501 339.809C62.5329 339.735 63.3422 339.143 63.8571 338.476C64.4457 337.81 64.8135 336.921 64.9607 336.032C65.2549 334.254 64.8871 332.477 64.6664 330.847C64.2985 327.514 64.3721 324.107 64.4457 320.774C64.7399 313.96 65.0342 307.146 65.2549 300.332C65.3285 296.925 65.4021 293.518 65.4756 290.111L65.5492 285C65.5492 284.111 65.5492 283.296 65.6963 282.778C65.7699 282.482 65.8435 282.334 66.1377 281.963C66.3585 281.667 66.7999 281.149 66.947 280.408C67.0941 279.667 66.8734 279.001 66.6527 278.482C66.3585 277.964 66.0642 277.593 65.8435 277.297C65.3285 276.63 64.8871 276.038 64.9607 275.742C64.9607 275.594 65.0342 275.445 65.1814 275.223C65.4021 275.001 65.6963 274.853 66.0642 274.557C66.432 274.334 66.8734 274.038 67.2413 273.668C67.6827 273.297 67.9769 272.557 67.9769 271.89C67.9769 271.224 67.6827 270.631 67.3884 270.187C67.0941 269.742 66.7999 269.446 66.5056 269.15C66.2113 268.853 65.9906 268.557 65.8435 268.261C65.6963 267.965 65.6228 267.742 65.6228 267.446C65.6228 266.78 65.8435 265.891 65.9906 265.076L66.432 262.558C67.5355 255.818 68.7126 249.152 70.1104 242.412C70.7725 239.079 71.5818 235.746 72.3175 232.413L74.5981 222.414C76.0694 215.748 77.3201 209.082 78.4972 202.341C79.6743 195.601 80.7778 188.935 81.7342 182.121C81.7342 182.047 81.7342 181.973 81.6606 181.973C81.5871 182.121 81.5871 182.121 81.5135 182.195Z" fill="black"/>
<path d="M43.1109 186.861C42.5224 193.305 42.081 199.749 41.566 206.193L40.0946 225.524C39.1382 238.412 38.1819 251.226 37.1519 264.113C36.1955 277.001 35.092 289.814 33.9885 302.702L32.2964 321.959C32.0021 325.144 31.7079 328.403 31.7079 331.662C31.7079 334.921 32.0021 338.18 32.9585 341.217C32.1493 338.106 31.9286 334.847 32.0757 331.662C32.2228 328.477 32.6643 325.218 33.0321 322.033C33.7678 315.59 34.4299 309.22 35.092 302.776C36.4162 289.962 37.5197 277.075 38.5497 264.187C39.5061 251.3 40.4625 238.412 41.1982 225.524L42.2281 206.193C42.5224 199.749 42.8902 193.305 43.1109 186.861Z" fill="black"/>
<path d="M119.401 333.884C117.856 327.737 116.458 321.515 115.355 315.293C114.178 309.072 113.148 302.776 112.339 296.48C110.646 283.889 109.396 271.298 108.366 258.632L105.276 220.636L103.657 201.601C103.069 195.305 102.48 188.935 101.892 182.64C102.186 189.009 102.628 195.305 102.995 201.675L104.246 220.71C104.614 227.08 105.129 233.375 105.57 239.745L106.968 258.78C108.072 271.446 109.322 284.111 111.235 296.703C112.191 302.998 113.295 309.294 114.693 315.441C116.017 321.663 117.562 327.811 119.401 333.884Z" fill="black"/>
<path d="M74.8188 216.71C75.1131 220.34 75.5545 223.969 76.143 227.598C76.7316 231.227 77.3937 234.857 78.1294 238.412C78.865 241.967 79.7479 245.596 80.6307 249.152L82.0285 254.484C82.4699 256.262 82.7642 257.966 82.3227 259.595C82.102 260.41 81.8078 261.373 81.6606 262.336C81.5135 263.298 81.5135 264.261 81.5135 265.15C81.5871 267.002 81.6606 268.853 81.7342 270.631C81.9549 274.26 82.2492 277.964 82.5434 281.593C82.9113 285.222 83.3527 288.926 83.7941 292.555C84.0148 294.406 84.3091 296.184 84.7505 298.036C85.1919 299.887 85.854 301.665 86.8104 303.369L86.9575 302.406C86.2954 302.924 85.5597 303.517 84.8976 304.183C84.6033 304.554 84.3091 304.924 84.0884 305.368C83.8677 305.813 83.7205 306.331 83.647 306.85C83.5734 307.887 83.7941 309.072 84.7505 309.812C85.2655 310.183 85.7069 310.331 86.0747 310.479C86.2218 310.553 86.369 310.627 86.5161 310.701C86.5897 310.775 86.5897 310.775 86.6633 310.849C86.6633 310.923 86.6633 310.923 86.6633 310.997C86.5897 311.072 86.5161 311.22 86.369 311.368C86.0747 311.664 85.7069 311.886 85.4126 312.331C85.0448 312.775 84.8241 313.516 84.9712 314.108C85.1183 314.701 85.4126 315.145 85.6333 315.516C85.854 315.886 86.1483 316.256 86.2954 316.552C86.4426 316.849 86.5897 317.219 86.6633 317.589C86.8104 318.33 86.884 319.293 87.0311 320.108C87.9139 326.996 88.9439 333.884 89.9003 340.698C89.9003 340.92 90.1945 341.143 90.4152 341.069C90.4888 341.069 90.5624 341.069 90.5624 340.994C94.6086 338.624 98.802 336.625 103.216 334.995C107.63 333.366 112.118 332.181 116.753 331.366C112.118 331.958 107.483 333.069 102.995 334.551C98.5077 336.032 94.1672 337.958 90.0474 340.328L90.7095 340.698C89.8267 333.81 89.091 326.922 88.1346 320.034C87.9875 319.145 87.9139 318.33 87.7668 317.441C87.6932 316.997 87.5461 316.478 87.3254 316.034C87.1047 315.59 86.8104 315.219 86.5897 314.849C86.369 314.479 86.1483 314.182 86.1483 313.886C86.0747 313.59 86.1483 313.442 86.2954 313.219C86.5161 312.997 86.8104 312.701 87.1782 312.405C87.3254 312.257 87.5461 312.034 87.6932 311.738C87.8404 311.442 87.9139 310.997 87.8404 310.627C87.7668 310.257 87.5461 309.886 87.2518 309.738C87.0311 309.516 86.7368 309.442 86.5161 309.294C86.0747 309.072 85.7069 308.998 85.4862 308.775C85.0448 308.405 84.8241 307.738 84.8976 306.998C84.9712 306.331 85.339 305.665 85.854 305.072C86.369 304.48 87.0311 303.961 87.6932 303.443C87.9875 303.22 88.0611 302.85 87.9139 302.48C86.1483 299.443 85.6333 295.814 85.1183 292.259C84.6034 288.629 84.1619 285 83.7941 281.371C83.4263 277.741 83.132 274.112 82.9113 270.483C82.7641 268.631 82.6906 266.854 82.617 265.002C82.617 264.113 82.617 263.224 82.6906 262.336C82.8377 261.521 83.0584 260.632 83.2791 259.669C83.4998 258.706 83.5734 257.743 83.4263 256.781C83.3527 255.818 83.132 254.929 82.9113 253.966L81.4399 248.707C80.4835 245.152 79.6007 241.671 78.7179 238.042C77.2465 231.153 75.8487 223.969 74.8188 216.71Z" fill="black"/>
<path d="M98.802 290.333C97.8456 291.444 96.9628 292.555 96.08 293.666C95.1972 294.777 94.2408 295.814 93.2844 296.851C92.328 297.888 91.3716 298.925 90.4152 299.961C89.4589 300.998 88.4289 301.961 87.3989 303.072C88.7232 302.554 90.0474 301.739 91.1509 300.85C92.328 299.961 93.4315 298.999 94.3879 297.888C95.3443 296.777 96.2271 295.592 96.9628 294.332C97.7721 293.073 98.3606 291.74 98.802 290.333Z" fill="black"/>
<path d="M98.4342 298.925C97.1099 300.628 95.9328 302.406 94.5351 304.035C93.8729 304.85 93.1373 305.591 92.328 306.257C91.5188 306.924 90.7095 307.59 89.8267 308.331C89.606 308.553 89.3853 308.701 89.2381 308.924C89.1646 308.998 89.0174 309.146 88.8703 309.294C88.7232 309.442 88.6496 309.664 88.576 309.96C88.5025 310.257 88.6496 310.775 88.9439 310.923C89.2381 311.146 89.3853 311.22 89.5324 311.22C89.9003 311.294 90.2681 311.368 90.5624 311.368C91.2245 311.294 91.7395 311.146 92.2544 310.997C92.4751 310.923 92.7694 310.849 92.9166 310.849C92.9901 310.849 93.0637 310.849 93.0637 310.849C93.0637 310.849 92.9901 310.775 93.0637 310.775C93.0637 310.775 93.1373 310.923 93.0637 311.071C92.9901 311.22 92.843 311.368 92.6223 311.59C92.2544 311.96 91.8866 312.405 91.5188 312.775C90.7831 313.59 90.0474 314.33 89.2381 315.071C90.1945 314.553 91.1509 313.96 92.0337 313.368C92.4751 313.071 92.9166 312.701 93.2844 312.331C93.5051 312.182 93.7258 311.96 93.9465 311.664C94.1672 311.368 94.3143 310.849 94.0936 310.405C94.0201 310.183 93.7994 309.886 93.5051 309.812C93.2108 309.664 92.9901 309.664 92.843 309.738C92.4751 309.738 92.2544 309.812 91.9602 309.886C91.4452 309.96 90.9302 310.109 90.4888 310.109C90.2681 310.109 90.121 310.109 89.9003 310.035C89.8267 310.035 89.7531 309.96 89.8267 310.035C89.9003 310.109 89.9738 310.257 89.9003 310.331C89.8267 310.405 90.3417 309.886 90.7095 309.59C91.4452 308.849 92.328 308.257 93.1373 307.442C93.9465 306.627 94.6822 305.813 95.2707 304.924C96.6685 302.924 97.6249 300.998 98.4342 298.925Z" fill="black"/>
<path d="M60.1052 303.294C59.3695 307.368 58.7809 311.516 58.1924 315.59L57.3096 321.737C57.1624 322.774 57.0153 323.959 57.4567 325.144C57.8981 326.255 58.6338 327.144 59.2959 327.885C59.958 328.699 60.5466 329.44 60.6937 330.255C60.6937 330.477 60.7673 330.625 60.7673 330.847C60.7673 331.07 60.6937 331.144 60.7673 331.07L60.8408 330.995C60.8408 330.995 60.8408 330.995 60.7673 330.995C60.6201 330.995 60.473 330.847 60.3259 330.773C58.7074 329.662 57.1624 328.255 55.4704 326.996C54.6611 326.329 53.7047 325.737 52.8219 325.218C51.8655 324.7 50.8356 324.329 49.7321 324.107C48.6285 323.885 47.525 323.811 46.4215 323.959C45.318 324.107 44.2144 324.552 43.3316 325.218C43.1109 325.366 43.0374 325.737 43.1845 325.959C43.1845 326.033 43.2581 326.033 43.3316 326.107C44.803 327.218 46.3479 328.255 47.8193 329.366L48.04 328.625C46.3479 328.699 44.7294 328.996 43.1109 329.44C41.4924 329.884 39.9475 330.477 38.4761 331.218C40.0211 330.625 41.6396 330.181 43.2581 329.884C44.8766 329.588 46.4951 329.514 48.1136 329.514C48.3343 329.514 48.555 329.366 48.555 329.07C48.555 328.922 48.4814 328.848 48.4078 328.773C47.01 327.588 45.5387 326.477 44.0673 325.292V326.181C45.6122 325.144 47.6721 324.996 49.5113 325.515C51.4241 325.959 53.1162 326.996 54.6611 328.255C56.2796 329.44 57.8246 330.847 59.5902 332.032C59.8109 332.181 60.1052 332.403 60.473 332.477C60.6937 332.551 60.9144 332.551 61.1351 332.551C61.4294 332.551 61.7237 332.403 61.8708 332.181C62.3122 331.736 62.3122 331.292 62.3122 330.995C62.3122 330.699 62.3122 330.329 62.2386 330.033C61.9444 328.773 61.1351 327.885 60.473 327.07C59.8109 326.255 59.1488 325.515 58.8545 324.7C58.4867 323.885 58.5602 322.996 58.7074 321.959L59.2959 315.738C59.5166 311.59 59.8109 307.442 60.1052 303.294Z" fill="black"/>
<path d="M54.9554 63.0959C53.999 63.244 53.0426 63.3181 52.1598 63.6144C51.2034 63.9106 50.3942 64.5032 49.7321 65.2438C48.4814 66.7992 47.525 68.4287 46.5686 70.1322C45.6122 71.8358 44.803 73.5393 44.0673 75.391C43.3316 77.1686 42.6695 79.0202 42.1545 80.8719C42.081 81.2422 42.2281 81.6126 42.596 81.6867C42.7431 81.7607 42.8902 81.7607 42.9638 81.6867L50.247 79.4647C50.6149 79.3165 51.0563 79.2424 51.4241 79.1684L51.6448 79.0943C51.5713 79.0943 51.4977 79.0943 51.3506 79.0202C51.1298 78.9462 50.9827 78.6499 50.9827 78.5759C51.0563 78.6499 51.0563 78.724 51.1299 78.798C51.2034 78.8721 51.277 78.9462 51.277 78.9462L51.3506 79.0202L51.792 79.4647C54.2933 81.7607 56.8682 84.0568 59.3695 86.2788C59.6638 86.501 60.0316 86.501 60.2523 86.2047C60.3994 86.0566 60.473 85.7603 60.3994 85.6122C59.443 82.3533 58.4867 79.0943 57.5303 75.8354L56.2061 70.947L54.8818 65.9845C55.1025 67.688 55.3968 69.3175 55.6911 71.021C55.9853 72.7246 56.2796 74.354 56.6475 76.0576C57.3831 79.3906 58.1924 82.7236 59.0752 85.9825L60.1052 85.3159L52.6012 78.4277L52.1598 77.9833V78.0574C52.1598 77.9833 51.9391 77.687 51.7184 77.613C51.5713 77.5389 51.4977 77.5389 51.4241 77.5389H51.277C51.0563 77.5389 50.9827 77.613 50.9092 77.613C50.4677 77.7611 50.0999 77.8352 49.6585 77.9833L47.2307 78.724C45.6122 79.2424 43.9937 79.7609 42.3752 80.2794L43.2581 81.0941C43.773 79.2424 44.3616 77.4648 45.0237 75.6872C45.6858 73.9096 46.4215 72.132 47.2307 70.4285C47.6722 69.5397 48.04 68.725 48.555 67.9102C48.9964 67.0955 49.4378 66.2067 50.0263 65.466C50.5413 64.7254 51.277 64.1328 52.1598 63.7625C53.1162 63.5403 54.0726 63.3181 54.9554 63.0959Z" fill="#174075"/>
<path d="M74.3774 62.7255C76.2901 63.244 78.2029 63.7625 79.8214 64.7253C81.5135 65.6882 82.7642 67.1696 83.7941 68.799C84.8241 70.4285 85.7804 72.132 86.7368 73.9096C87.6196 75.6872 88.5025 77.3908 89.3853 79.1684L90.1945 78.1314C88.7967 77.687 87.3989 77.2426 86.0747 76.7242C85.4126 76.4279 84.7505 76.1316 84.0884 75.8354C83.7205 75.6872 83.3527 75.5391 82.9113 75.391C82.4699 75.2428 81.9549 75.2428 81.4399 75.391C80.9249 75.5391 80.5571 75.8354 80.2628 76.0576C79.9686 76.2798 79.6743 76.576 79.38 76.8723C78.7915 77.3908 78.3501 78.0574 77.8351 78.6499C76.9523 79.909 76.2902 81.3904 75.9959 82.9458H76.9523C76.3637 81.1682 75.8487 79.4646 75.1866 77.7611L73.3474 72.5764C73.7153 74.354 74.1567 76.1316 74.5981 77.9092C75.0395 79.6868 75.5545 81.4644 75.9223 83.168C75.9959 83.4643 76.2166 83.6124 76.5109 83.5383C76.658 83.4643 76.8051 83.3902 76.8787 83.168C77.2465 81.8348 77.9087 80.5016 78.7915 79.3906C79.2329 78.798 79.6743 78.2796 80.1893 77.8352C80.7042 77.3908 81.2928 76.8723 81.7342 76.7982C82.1756 76.7242 82.7641 76.8723 83.4263 77.1686C84.0884 77.4648 84.7505 77.8352 85.4862 78.1314C86.884 78.724 88.2818 79.2424 89.7531 79.6128C90.121 79.6868 90.5624 79.4646 90.6359 79.0943C90.7095 78.9462 90.6359 78.724 90.5624 78.5759C89.6796 76.7982 88.7967 75.0206 87.7668 73.3171C86.8104 71.5395 85.7804 69.836 84.5298 68.2065C83.3527 66.577 81.8078 65.0957 79.9686 64.2069C78.2765 63.3181 76.2901 62.9477 74.3774 62.7255Z" fill="#174075"/>
</g>
<defs>
<linearGradient id="paint0_linear_2987_7033" x1="136.074" y1="175.947" x2="-0.0793568" y2="175.947" gradientUnits="userSpaceOnUse">
<stop stop-color="#0ABBEF"/>
<stop offset="0.2385" stop-color="#0D9BCF"/>
<stop offset="0.756" stop-color="#145A8E"/>
<stop offset="1" stop-color="#174075"/>
</linearGradient>
</defs>
</svg>
