<svg width="363" height="351" viewBox="0 0 363 351" fill="none" xmlns="http://www.w3.org/2000/svg">
<mask id="mask0_2181_2650" style="mask-type:alpha" maskUnits="userSpaceOnUse" x="0" y="0" width="363" height="351">
<rect width="363" height="351" fill="#D9D9D9"/>
</mask>
<g mask="url(#mask0_2181_2650)">
<g filter="url(#filter0_d_2181_2650)">
<ellipse cx="181.896" cy="170" rx="168.896" ry="170" fill="#D2C5BC"/>
</g>
<path d="M53.7294 45.6693L52.9013 45.6865L52.764 46.5033C45.9336 87.1445 47.0459 155.861 49.8515 214.328C51.2552 243.581 53.0846 270.299 54.5631 289.703C55.3023 299.406 55.9539 307.281 56.4207 312.73C56.654 315.455 56.8412 317.573 56.9701 319.011C57.0346 319.73 57.0844 320.278 57.1182 320.647L57.1566 321.065L57.1663 321.171L57.1688 321.197L57.1694 321.204C57.1696 321.206 57.1697 321.206 58.1653 321.114L57.1697 321.206L57.2603 322.178L58.2342 322.111L327.033 303.547L329.688 303.364L327.569 301.754C321.675 297.274 316.278 289.9 311.361 280.32C306.452 270.754 302.059 259.063 298.138 246.03C290.295 219.963 284.369 188.63 279.953 158.415C275.538 128.206 272.638 99.1436 270.841 77.6317C269.943 66.8766 269.32 58.0104 268.923 51.8338C268.724 48.7455 268.581 46.3298 268.488 44.6866C268.442 43.865 268.408 43.2366 268.385 42.8138C268.374 42.6024 268.366 42.4425 268.36 42.3355L268.354 42.2149L268.353 42.1848L268.352 42.1774C268.352 42.1758 268.352 42.175 267.353 42.2246L268.352 42.175L268.304 41.2046L267.333 41.2248L53.7294 45.6693Z" fill="#D6CCC6" stroke="black" stroke-width="2"/>
<path d="M60.3529 36.7806L59.5248 36.7978L59.3875 37.6146C52.5571 78.2558 53.6695 146.972 56.475 205.44C57.8787 234.692 59.7082 261.41 61.1866 280.815C61.9259 290.517 62.5774 298.392 63.0442 303.841C63.2776 306.566 63.4648 308.685 63.5937 310.122C63.6581 310.841 63.708 311.39 63.7417 311.759L63.7801 312.176L63.7899 312.282L63.7924 312.309L63.793 312.315C63.7931 312.317 63.7932 312.318 64.7889 312.225L63.7932 312.318L63.8838 313.29L64.8578 313.222L333.656 294.659L336.311 294.475L334.192 292.865C328.298 288.385 322.901 281.011 317.985 271.432C313.075 261.865 308.683 250.174 304.761 237.141C296.919 211.075 290.992 179.741 286.576 149.526C282.162 119.317 279.261 90.2549 277.464 68.7431C276.566 57.9879 275.944 49.1217 275.546 42.9451C275.347 39.8569 275.205 37.4411 275.112 35.7979C275.065 34.9763 275.031 34.3479 275.009 33.9251C274.998 33.7138 274.989 33.5538 274.984 33.4468L274.978 33.3263L274.976 33.2962L274.976 33.2887C274.976 33.2871 274.976 33.2864 273.977 33.3359L274.976 33.2864L274.928 32.3159L273.956 32.3362L60.3529 36.7806Z" fill="#EADED7" stroke="black" stroke-width="2"/>
<path d="M67.7563 26.9432L66.1033 27.052L65.9015 28.6964C60.8653 69.7272 65.0376 138.43 70.4322 196.699C73.133 225.871 76.1467 252.49 78.4851 271.815C79.6544 281.478 80.6549 289.319 81.3633 294.745C81.7175 297.458 81.9986 299.567 82.1913 300.999C82.2877 301.714 82.3619 302.261 82.4121 302.628L82.469 303.045L82.4836 303.15L82.4872 303.177L82.4882 303.184C82.4884 303.186 82.4885 303.186 84.4696 302.911L82.4885 303.186L82.7558 305.12L84.6958 304.898L352.403 274.275L357.692 273.67L353.315 270.643C347.404 266.555 341.776 259.577 336.472 250.286C331.184 241.02 326.3 229.599 321.816 216.788C312.849 191.168 305.55 160.186 299.802 130.22C294.057 100.266 289.873 71.3848 287.126 49.988C285.752 39.291 284.738 30.468 284.068 24.3209C283.732 21.2474 283.483 18.843 283.317 17.2081C283.235 16.3906 283.173 15.7655 283.132 15.3453C283.111 15.1352 283.096 14.9764 283.086 14.8703L283.075 14.751L283.072 14.7214L283.071 14.7142C283.071 14.7127 283.071 14.712 281.08 14.9008L283.071 14.712L282.889 12.7774L280.949 12.9051L67.7563 26.9432Z" fill="#FFF7F2" stroke="black" stroke-width="4"/>
<path d="M114.559 159.445C171.698 162.181 207.901 159.021 273.519 152.223C214.895 163.891 179.549 166.329 116.766 166.112L114.559 159.445Z" fill="#B1A39A"/>
<path d="M120.115 207.193C177.307 208.352 213.411 204.194 278.82 195.589C220.535 208.87 185.268 212.281 122.503 213.795L120.115 207.193Z" fill="#B1A39A"/>
<path d="M160.817 128.622L208.083 124.444C208.083 124.444 214.627 152.494 212.446 193.076L243.714 189.495C243.714 189.495 225.213 237.239 203.72 261.111C186.995 237.836 152.091 199.044 152.091 199.044L188.449 195.463C184.086 162.639 160.817 128.622 160.817 128.622Z" fill="#0ABAEE" stroke="black" stroke-width="4"/>
<path d="M102.65 96.1769L101.585 96.1894C100.631 96.1947 100.46 96.1496 100.114 96.0035C99.3624 95.6591 99.1211 95.3941 98.4211 94.0924C98.0431 93.4433 97.6652 92.7943 97.5463 92.6897C97.3015 92.3688 97.1054 91.9325 97.014 91.3772C96.9997 91.1537 96.856 90.6579 96.6635 90.2775C96.5233 89.8376 96.4461 89.5059 96.4212 89.1147C96.3892 88.6117 96.3227 88.4476 96.0006 87.795L95.6191 87.09L95.5374 85.8046C95.4947 85.134 95.4556 84.5192 95.3962 84.4669C95.3368 84.4147 95.1452 84.932 95.0131 85.5017C94.9262 85.9001 94.7382 86.4734 94.2194 88.0219L93.8053 89.4515C93.6732 90.0212 93.4852 90.5945 93.3805 90.7134L93.0843 91.3498C92.9867 91.5805 92.7464 92.2133 92.4954 92.6784C92.1504 93.4301 91.9482 93.7799 91.4772 94.3152C90.7446 95.1481 90.42 95.3373 89.6935 95.3841C89.3023 95.4093 89.0752 95.3678 88.6103 95.1172C88.0896 94.8702 87.9113 94.7133 87.4287 94.1832C86.6453 93.3358 85.7005 91.7132 85.0874 90.0131C84.9436 89.5173 84.5993 87.6316 84.5495 86.8491C84.5841 86.5102 84.4581 86.2939 84.2585 85.8017C83.94 85.2049 83.94 85.2049 83.9496 84.4748C84.001 83.5175 83.9868 83.294 83.8812 82.5151C83.8527 82.068 83.8385 81.8445 83.929 81.502C84.0717 81.1 84.0646 80.9882 83.9173 80.4365C83.8117 79.6577 83.8391 79.207 84.0759 78.5184C84.2258 78.2281 84.2675 78.001 84.2142 77.1627C84.1715 76.492 84.2025 76.0972 84.3453 75.6952C84.5227 74.9543 84.6406 74.161 84.7336 72.9766C84.8098 72.4105 84.9313 71.6732 84.9623 71.2784C85.1361 70.4816 85.1316 69.5279 84.9604 69.4828C84.4467 69.3475 83.2893 71.4423 83.05 72.9728C82.9595 73.3154 82.9285 73.7102 82.8762 73.7697C82.8239 73.8291 82.7786 74.0004 82.7893 74.1681C82.7964 74.2798 82.7583 74.5629 82.6084 74.8531C82.5144 75.1397 82.4239 75.4823 82.4346 75.6499C82.3655 76.3278 81.6425 76.4305 81.324 75.8337C81.1945 75.5615 81.0559 73.3819 81.1987 72.9799C81.2439 72.8086 81.282 72.5256 81.2714 72.3579C81.2465 71.9667 81.6083 70.5966 81.9914 69.5618C82.2841 68.8696 83.1869 67.1841 83.5009 66.8271C83.6579 66.6487 83.9267 66.463 84.1431 66.3368C84.3595 66.2107 84.74 66.0178 84.9529 65.8357C85.2252 65.706 85.5463 65.4608 85.7104 65.3941C86.5309 65.0607 87.9077 65.5332 88.9217 66.4779C89.5755 67.0531 90.146 68.0826 90.2445 68.7496C90.3146 68.9696 90.3989 69.4131 90.532 69.7412C90.6757 70.237 90.6971 70.5723 90.7087 71.6377L90.6822 72.9862C90.6299 73.0457 90.6237 73.8317 90.6283 74.7854C90.647 75.9627 90.6338 76.6369 90.5398 76.9235C90.5052 77.2625 90.4706 77.6014 90.5692 78.2684C90.6225 79.1067 90.6296 79.2185 90.4416 79.7918C90.3511 80.1343 90.2749 80.7004 90.2403 81.0393C90.2306 81.7694 89.9984 83.4118 89.915 83.866C89.8698 84.0373 89.7865 84.4916 89.8113 84.8828L89.6695 86.1826C89.5755 86.4693 89.4922 86.9236 89.51 87.203L89.3717 88.5587C89.2609 89.4637 89.2609 89.4637 89.4641 90.0117C89.5972 90.3399 89.6922 90.951 89.7694 91.2828C89.8786 92.1175 90.0853 92.7214 90.2565 92.7665C90.6025 92.9126 91.0176 92.3808 91.4459 91.1748L91.9301 89.9651C92.2751 89.2134 92.5571 88.3535 92.6333 87.7874C92.6715 87.5044 92.8559 86.8752 93.0475 86.3578C93.1867 85.8999 93.3676 85.2149 93.4057 84.9319C93.4438 84.6488 93.5236 84.1386 93.6699 83.7925C93.7604 83.45 93.8996 82.9921 93.8854 82.7685C93.9687 82.3143 94.0556 81.9158 94.3722 80.717L94.7446 79.5146C94.7863 79.2874 94.8244 79.0044 94.8102 78.7809C94.796 78.5573 94.8793 78.103 94.9698 77.7605C95.1542 77.1313 95.1471 77.0195 95.0557 76.4643C94.9536 75.7413 94.9704 75.123 95.2001 74.3226C95.2941 74.0359 95.3703 73.4699 95.4013 73.0751C95.4288 72.6244 95.4598 72.2295 95.5157 72.2259C95.568 72.1665 95.5431 71.7752 95.5183 71.384C95.5457 70.9333 95.5696 70.4268 95.6565 70.0283C95.747 69.6858 95.8268 69.1756 95.8649 68.8926C95.9376 68.2706 96.3313 67.4035 96.7429 66.8159C97.5695 65.6964 98.8513 65.5577 99.8653 66.5025C100.281 66.8685 100.411 67.1407 100.495 67.5842C100.565 67.8042 100.709 68.3 100.905 68.7363C101.248 69.7242 101.351 70.4472 101.267 70.9015C101.173 71.1881 101.142 74.2204 101.206 75.2264C101.277 76.3441 101.421 77.7377 101.635 78.4534C101.807 79.3963 101.832 79.7875 101.547 80.5915C101.463 81.0458 101.422 81.273 101.43 82.2826C101.484 84.0187 101.44 85.0877 101.273 85.9963C101.099 86.7931 101.106 86.9049 101.194 87.4043C101.356 88.1795 101.377 88.5148 101.193 89.144C100.959 89.8885 101.037 90.2202 101.55 92.993C101.792 94.1558 101.914 94.3163 102.41 94.1721C102.69 94.1541 102.798 94.091 102.895 93.8603C102.996 93.6854 103.042 93.5142 103.038 93.4583C103.035 93.4024 103.129 93.1158 103.278 92.8255C103.575 92.1892 103.637 91.3995 103.381 90.911C103.311 90.691 103.3 90.5233 103.349 90.408C103.544 89.9465 104.069 90.2494 104.45 90.9543C104.702 91.387 104.706 91.4429 104.699 92.2289C104.621 93.6369 104.555 94.3707 104.458 94.6014C104.21 95.1224 103.736 95.6019 103.191 95.8614L102.65 96.1769ZM108.406 74.8748C109.234 74.6531 109.93 75.0011 110.542 75.8034C110.913 76.3407 110.979 76.5047 111 76.8401L111.148 80.927L111.539 80.9018C112.322 80.8514 112.758 80.655 114.098 79.6708C114.576 79.2472 114.831 78.838 114.795 78.2791C114.763 77.7761 114.76 77.7202 115.607 76.0383C115.952 75.2866 116.542 74.8558 117.212 74.8126C117.659 74.7838 118.463 75.0687 118.764 75.386C118.883 75.4906 119.138 75.9792 119.338 76.4713C119.608 77.1835 119.678 77.4034 119.742 78.4094C119.791 79.1918 119.764 79.6425 119.67 79.9291C119.625 80.1004 119.534 80.4429 119.548 80.6665C119.559 80.8341 119.524 81.1731 119.483 81.4002C119.385 81.631 119.361 82.1375 119.334 82.5882C119.359 82.9795 119.3 83.825 119.228 84.4469C119.023 85.6385 119.062 86.2533 119.357 87.3566C119.577 88.1842 119.819 88.4492 120.154 88.4276C120.434 88.4096 121.303 87.9608 121.84 87.5895C122.27 87.2812 123.432 86.1402 123.686 85.731C123.84 85.4966 124.258 85.0207 124.785 84.4817L125.099 84.1248C125.092 84.013 125.455 83.5407 126.072 82.6592L126.641 81.8931C126.742 81.7182 127.018 81.6444 127.025 81.7561C127.032 81.8679 125.986 83.9554 125.881 84.0744L125.278 85.1795C124.975 85.7041 124.616 86.2322 124.567 86.3476L124.096 86.883C123.43 87.8799 122.903 88.4189 121.824 89.1056C120.805 89.8447 120.749 89.8483 119.974 90.0104C119.031 90.1834 118.692 90.1491 117.819 89.6442C117.238 89.3449 117.12 89.2403 116.563 88.4344C116.07 87.7367 115.822 87.3599 115.744 87.0282C115.439 85.7572 115.102 83.9832 114.891 82.4255C114.852 81.8108 114.708 81.315 114.652 81.3186L114.17 81.6863C113.528 82.1766 112.599 82.5731 111.876 82.6758C111.209 82.7749 111.154 82.7785 111.2 83.505C111.214 83.7286 111.138 84.2947 111.061 84.8607C110.926 85.3745 110.846 85.8847 110.857 86.0524C110.864 86.1641 110.773 86.5067 110.679 86.7933C110.589 87.1358 110.453 87.6496 110.419 87.9885C110.315 89.0053 109.75 89.8273 109.023 89.8741C108.353 89.9173 107.521 89.1853 107.482 88.5705C107.46 88.2352 107.232 87.2959 107.026 86.692C106.752 85.9239 106.498 83.6957 106.606 82.7348C106.637 82.34 106.563 82.0641 106.423 81.6242C106.283 81.1843 106.268 80.9608 106.285 80.3424C106.316 79.9476 106.452 79.4338 106.549 79.2031C106.647 78.9723 106.734 78.5739 106.758 78.0673C106.757 77.1695 107.028 76.142 107.283 75.7328C107.537 75.3236 108.075 74.9522 108.406 74.8748ZM132.254 91.7447C131.81 91.8293 131.192 91.8131 130.909 91.7752C130.231 91.7066 129.137 91.272 128.263 90.7671C127.676 90.356 127.617 90.3037 127.242 89.7106L126.62 88.7406C126.312 88.3115 126.179 87.9834 126.15 87.5363C126.14 87.3686 126.059 86.981 125.926 86.6529C125.586 85.7208 125.582 85.6649 125.486 84.156C125.369 82.3117 125.491 81.5744 126.013 80.0817C126.201 79.5084 126.441 78.8757 126.431 78.708C126.476 78.5368 126.626 78.2465 126.727 78.0717C127.131 77.3722 127.326 76.9107 127.846 76.26L128.519 75.3749C129.084 74.5528 129.943 73.9364 130.77 73.7147C131.102 73.6372 131.322 73.5669 131.535 73.3849L132.073 73.0135C132.397 72.8243 133.85 72.7307 134.584 72.7957C135.262 72.8642 135.842 73.1636 136.209 73.645C136.52 74.1299 136.808 75.1215 136.78 75.5722C136.749 75.967 136.443 76.4357 136.118 76.625C135.846 76.7547 135.678 76.7655 134.878 76.5365C134.476 76.394 133.812 76.549 133.156 76.8158C132.776 77.0086 132.667 77.0717 132.211 77.8306C131.6 78.8239 131.27 79.7992 131.159 80.7042L130.975 82.2312C130.857 83.0244 130.812 83.1956 130.978 84.9245C131.135 87.3836 131.239 87.2646 131.478 88.3715C131.555 88.7033 131.915 89.0729 132.432 89.264C132.778 89.4101 132.89 89.4029 133.281 89.3777C133.781 89.2894 133.997 89.1632 134.852 88.4909C135.763 87.8149 136.907 86.3944 137.619 85.2263C137.765 84.8802 138.128 84.4079 138.337 84.1699C138.546 83.932 138.801 83.5228 138.954 83.2884C139.251 82.652 140.171 81.246 140.328 81.0675C140.433 80.9485 140.489 80.9449 140.66 80.99C140.891 81.0874 140.849 81.3145 140.459 82.2375C139.922 83.5066 139.633 84.2548 139.49 84.6568C139.449 84.8839 139.299 85.1742 139.194 85.2931L138.79 85.9926C138.598 86.51 137.308 88.2766 136.624 88.994C135.738 90.0612 134.569 91.0905 134.181 91.1716C134.013 91.1824 133.685 91.3157 133.469 91.4419C133.144 91.6312 132.924 91.7015 132.254 91.7447ZM152.153 66.8379C152.537 66.7009 152.827 66.8506 152.912 67.2941C152.996 67.7376 152.738 68.0909 152.197 68.4063L151.436 68.7921C151.219 68.9182 150.504 69.1327 149.84 69.2877L148.181 69.6751C147.41 69.8932 145.96 70.0427 145.562 69.9561C145.219 69.8659 144.996 69.8803 144.385 69.9758C143.442 70.1488 143.225 70.2749 142.699 70.8139C142.385 71.1708 142.28 71.2898 142.056 71.3042C141.665 71.3294 141.55 71.2807 141.364 71.0121C141.179 70.7435 141.172 70.6317 141.517 69.8799C141.956 68.8416 142.277 68.5964 143.377 68.245C144.037 68.0341 144.316 68.0161 144.938 68.0883C146.8 68.249 146.912 68.2418 147.914 68.1211C148.473 68.0851 148.972 67.9968 148.969 67.9409L149.744 67.7787C150.575 67.613 151.619 67.2651 151.885 67.0236L152.153 66.8379ZM140.753 73.7451C141.622 73.2963 142.548 73.7417 143.353 74.9244L143.671 75.5211L143.658 76.1954C143.599 77.0409 143.688 78.4381 143.825 78.8221L143.899 79.0979C144.205 78.6292 144.819 77.6918 145.067 77.1708C145.363 76.5345 145.625 76.237 145.977 75.5971C146.527 74.5515 147.344 74.1622 148.204 74.4435C148.546 74.5337 149.193 74.9971 149.323 75.2693C149.567 75.5902 149.736 76.4772 149.888 77.9826C149.994 78.7614 150.096 79.4843 150.155 79.5366C150.218 79.6448 150.319 79.4699 151.061 77.907C152.156 75.7041 152.076 76.2143 152.732 75.0497C153.091 74.5215 154.511 73.0272 154.947 72.8307C155.328 72.6378 155.663 72.6162 156.009 72.7623C156.641 73.0021 157.498 74.1254 157.782 75.061C158.063 75.9408 158.105 79.249 157.868 79.9376C157.826 80.1648 157.792 80.5037 157.806 80.7273C157.82 80.9508 157.733 81.3492 157.695 81.6322C157.605 81.9748 157.574 82.3696 157.609 82.9284C157.652 83.5991 157.61 83.8262 157.523 84.2247C157.241 85.0846 157.196 85.2558 157.295 85.9229C157.383 86.4223 157.397 86.6458 157.258 87.1037C157.167 87.4462 157.133 87.7851 157.143 87.9528C157.165 88.2881 157.361 88.7244 157.479 88.829C157.773 89.0345 158.74 88.355 159.256 87.6483L159.72 87.0012C159.877 86.8227 160.03 86.5884 160.027 86.5325C160.023 86.4766 160.124 86.3017 160.226 86.1269C160.327 85.952 160.525 85.5464 160.619 85.2598C160.769 84.9695 160.964 84.508 161.118 84.2737C161.578 83.5707 161.77 83.0533 162.174 82.3538C162.327 82.1195 162.425 81.8887 162.421 81.8328C162.418 81.777 162.515 81.5462 162.62 81.4272C162.979 80.899 163.38 80.1437 163.523 79.7417L163.83 79.273C164.102 79.1432 164.392 79.2929 164.525 79.621C164.606 80.0086 164.523 80.4629 163.934 81.7915L163.749 82.4207C163.76 82.5883 163.614 82.9345 163.46 83.1688C163.307 83.4032 163.161 83.7493 163.063 83.98C162.589 85.3573 161.836 86.7526 161.205 87.4106C161.052 87.6449 160.79 87.9424 160.692 88.1731C160.546 88.5192 159.6 89.5341 159.014 90.0208C158.588 90.3849 157.548 90.7886 157.045 90.821C156.542 90.8534 155.969 90.6659 155.501 90.3594C155.207 90.1538 155.025 89.9411 154.707 89.3443C153.888 87.9381 153.877 87.7704 153.717 85.2555C153.586 83.1876 153.627 82.9605 153.767 82.5026C153.808 82.2754 153.944 81.7617 153.919 81.3705C154.031 78.7258 154.101 78.0479 154.243 77.6459C154.383 77.188 154.319 76.182 154.151 76.1928C153.927 76.2072 153.16 77.379 152.564 78.5958L151.965 79.7568C151.714 80.2218 150.874 82.0155 150.682 82.5329C150.393 83.2811 149.94 84.0959 149.783 84.2743C149.029 84.7718 148.103 84.3265 147.931 83.3836L147.706 82.5002C147.562 82.0044 147.319 79.9438 147.336 79.3254C147.363 78.8747 147.275 77.4775 147.215 77.4252C147.093 77.2648 146.88 77.4468 146.524 78.0309L145.963 78.9088C145.6 79.3811 144.917 80.9964 144.614 81.5209C144.457 81.6994 144.415 81.9266 144.419 81.9824C144.422 82.0383 144.276 82.3844 144.13 82.7306C143.642 83.8843 143.589 83.9438 143.499 84.2863C143.454 84.4576 143.37 84.9119 143.339 85.3067C143.319 85.8692 143.27 85.9845 143.117 86.2189C142.642 86.6984 141.804 86.7524 141.098 86.2367C140.511 85.8256 140.448 85.7174 140.342 84.9386C140.075 83.3846 139.98 82.7734 139.847 82.4453C139.647 81.9531 139.626 81.6178 139.758 81.0481C139.838 80.5379 139.834 80.482 139.687 79.9304C139.473 79.2146 139.448 78.8234 139.58 78.2538C139.618 77.9707 139.66 77.7436 139.579 77.356C139.481 76.6889 139.578 76.4582 139.828 75.0953C139.915 74.6969 140.428 73.9343 140.753 73.7451ZM167.382 96.2718C166.823 96.3078 166.767 96.3114 166.474 96.1059C166.239 95.9526 165.998 95.6876 165.743 95.199C165.365 94.5499 165.298 94.3859 165.207 93.8306C165.122 93.3871 164.989 93.059 164.8 92.7345C164.548 92.3018 164.534 92.0782 164.428 91.2994C164.33 90.6324 164.19 90.1925 164.05 89.7526C163.916 89.4244 163.78 89.0404 163.766 88.8169L163.583 87.7063C163.372 87.0465 163.362 86.8788 163.386 86.3722C163.465 85.8621 163.399 85.698 163.315 85.2545C163.171 84.7587 163.16 84.5911 163.156 83.6374C163.171 81.2234 163.405 81.3767 163.124 80.4969C163.051 80.2211 162.966 79.7776 162.945 79.4422C162.906 78.8275 163.225 76.7867 163.482 75.5356C163.569 75.1372 163.705 74.6234 163.691 74.3999L163.756 73.6662C163.798 73.439 163.822 72.9324 163.797 72.5412C163.754 71.8706 163.939 71.2414 164.2 70.944L164.594 70.0769C164.936 69.2692 165.194 68.9159 165.742 68.7123C166.615 68.3193 167.478 68.6566 168.104 69.6824C168.72 70.5406 168.864 71.0364 169.057 72.3146C169.184 73.4287 169.188 73.4846 169.024 74.4491C168.883 75.7489 168.918 76.3078 169.176 75.9545L169.476 75.374C169.769 74.6817 170.131 74.2094 170.431 73.629C170.532 73.4541 170.738 73.1603 170.951 72.9782L171.631 72.2049C171.896 71.9633 172.106 71.7254 172.218 71.7182C172.273 71.7146 172.546 71.5848 172.87 71.3956C173.576 71.0134 173.907 70.9359 174.704 71.1091C176.014 71.4175 176.101 71.0191 177.758 72.3714C178.527 72.9952 178.709 73.208 179.021 73.6929C179.21 74.0175 179.517 74.4466 179.699 74.6593C180.063 75.0848 180.259 75.5211 180.417 76.2404C180.431 76.464 180.568 76.848 180.694 77.0644C180.886 77.4448 180.894 77.5565 180.926 78.0595C180.92 79.7433 180.743 80.4843 180.677 81.218C180.608 81.8958 180.372 82.5845 179.768 83.6895C179.221 84.791 178.701 85.4418 177.892 85.9429C177.085 86.4998 176.642 86.5845 175.412 86.6637C174.515 86.6654 174.347 86.6762 174.113 86.523L173.309 86.238C172.055 85.926 170.754 84.8875 170.24 83.8544C169.977 83.2541 169.963 83.0305 170.154 82.5131C170.398 81.9363 170.828 81.628 171.226 81.7146C171.457 81.812 171.649 82.1924 171.67 82.5277C171.692 82.863 172.108 83.2291 172.569 83.4238C173.086 83.615 173.254 83.6042 174.26 83.5394L174.727 82.9481C174.989 82.6506 175.191 82.3009 175.24 82.1855C175.289 82.0702 175.421 81.5005 175.497 80.9344C175.57 80.3125 175.695 79.631 175.789 79.3444C176.025 78.6557 175.965 77.7057 175.569 76.7772L175.1 75.5729C174.823 74.749 174.393 74.1594 173.935 74.0205C173.418 73.8294 173.142 73.9033 172.545 74.2223C172.109 74.4188 171.952 74.5972 171.432 75.248C171.066 75.6644 170.762 76.189 170.665 76.4197C170.564 76.5946 170.361 76.9443 170.204 77.1228C169.898 77.5915 169.462 78.6857 169.243 79.6538C169.062 80.3389 169.069 80.4506 169.155 81.7919C169.406 84.8621 169.432 86.1511 169.348 86.6054C169.262 87.0038 169.269 87.1156 169.353 87.5591C169.5 88.1108 169.569 90.0704 169.447 90.8077C169.364 91.262 169.278 92.5583 169.255 93.9626C169.242 94.6369 169.19 94.6964 168.886 95.2209C168.736 95.5112 168.422 95.8681 168.262 95.9907C167.997 96.2322 167.885 96.2394 167.382 96.2718ZM188.384 100.474C187.587 100.301 187.472 100.253 187.049 99.7748C186.332 99.0915 186.325 98.9797 186.327 98.1378C186.299 97.6907 186.323 97.1841 186.368 97.0129C186.396 96.5622 187.131 94.8874 187.438 94.4187C187.64 94.069 187.943 93.5444 188.135 93.027C188.18 92.8558 188.33 92.5655 188.49 92.443C188.745 92.0338 188.944 91.6282 189.46 90.9215C189.92 90.2185 190.485 89.3964 190.635 89.1062C190.684 88.9908 190.942 88.6375 191.203 88.3401C191.884 87.5667 192.079 87.1052 192.085 86.3192C192.158 85.6973 192.091 85.5332 191.881 84.8734C191.6 83.9936 191.565 83.4347 191.753 82.8614C191.791 82.5784 191.881 82.2359 191.871 82.0682C191.85 81.7329 191.447 80.6926 191.394 80.7521L191.095 81.3326C190.007 83.6473 188.65 85.2498 187.547 85.5454C187.103 85.63 185.919 85.538 185.51 85.2837C184.64 84.8348 183.723 83.6592 183.366 82.4477L182.956 81.2957C182.812 80.7999 182.735 80.4682 182.653 79.1828C182.589 78.1768 182.606 77.5585 182.641 77.2195C182.679 76.9365 182.762 76.4822 182.741 76.1469C182.779 75.8638 182.806 75.4131 182.904 75.1824C182.945 74.9552 183.032 74.5568 183.067 74.2179C183.161 73.9313 183.244 73.477 183.338 73.1903C183.492 72.956 183.579 72.5576 183.673 72.271C183.756 71.8167 184.056 71.2362 184.265 70.9982C184.373 70.9352 184.474 70.7603 184.575 70.5854C184.826 70.1203 185.088 69.8229 185.36 69.6931C185.902 69.3777 186.642 69.5544 187.065 70.0322C187.489 70.51 187.552 70.6182 187.616 72.5219C187.716 74.0868 187.734 74.3662 187.56 75.163C187.442 75.9563 187.463 76.2916 187.507 77.86C187.565 79.652 187.568 79.7079 187.377 80.2253C187.185 80.7427 187.192 80.8544 187.246 81.6928C187.317 82.8105 187.475 83.5298 187.698 83.5154C187.866 83.5046 188.613 82.8954 188.871 82.542C189.847 81.1323 190.05 80.7826 190.304 80.3734L190.597 79.6812C190.743 79.335 191.211 78.7438 191.541 77.7685C191.785 77.1916 191.83 77.0204 191.791 76.4056C191.812 75.8431 191.853 75.616 192 75.2699C192.097 75.0391 192.181 74.5848 192.271 74.2423C192.337 73.5086 192.629 72.8163 192.898 72.6307C193.163 72.3891 193.666 72.3567 194.016 72.5587C194.362 72.7047 194.666 73.0779 194.806 73.5178L195.135 74.2822C195.324 74.6068 195.328 74.6627 195.3 75.1134C195.221 75.6235 195.221 75.6235 195.722 77.3308C195.999 78.1547 196.115 79.1012 196.277 79.8764C196.287 80.0441 196.305 80.3235 196.263 80.5507C196.169 80.8373 196.232 80.9455 196.373 81.3854C196.502 81.6576 196.628 81.874 196.684 81.8704C196.74 81.8668 196.953 81.6847 197.106 81.4504C197.734 80.7365 199.995 78.3463 200.368 78.0416L201.063 77.4918C201.328 77.2503 201.545 77.1241 201.656 77.1169C201.936 77.0989 202.177 77.3639 202.195 77.6434C202.23 78.2023 201.658 78.9125 198.26 82.835C197.475 83.7274 196.799 84.5566 196.806 84.6683C196.757 84.7837 196.778 85.119 196.919 85.5589C197.076 86.2783 197.08 86.3342 196.993 86.7326C196.899 87.0192 196.865 87.3581 196.889 87.7493C197.013 88.8076 196.903 90.6104 196.764 91.0683C196.666 91.299 196.534 91.8687 196.503 92.2635C196.416 92.6619 196.228 93.2352 196.082 93.5813C195.932 93.8715 195.744 94.4448 195.65 94.7315C195.42 95.5319 194.761 96.6405 194.133 97.3544C193.816 97.6554 193.505 98.0682 193.401 98.1872C193.199 98.5369 191.656 99.8708 191.059 100.19C190.462 100.509 189.289 100.584 188.384 100.474ZM188.361 98.3435C188.591 98.4409 188.647 98.4373 189.251 98.23C189.635 98.0931 189.96 97.9038 190.176 97.7776C190.494 97.4766 191.313 96.2454 191.714 95.49L192.063 94.7942C192.164 94.6193 192.258 94.3327 192.3 94.1055L192.425 93.4241C192.522 93.1933 192.508 92.9698 192.483 92.5786C192.395 92.0792 192.384 91.9115 192.527 91.5095C192.666 91.0516 192.666 91.0516 192.509 90.3323C192.372 89.9483 192.298 89.6725 192.242 89.6761C192.131 89.6833 192.134 89.7391 191.039 91.0443C190.624 91.576 190.156 92.1673 190.003 92.4017L189.539 93.0488C189.434 93.1678 189.284 93.458 189.18 93.577C189.134 93.7483 189.037 93.979 188.932 94.098C188.828 94.217 188.73 94.4477 188.685 94.619C188.64 94.7902 188.594 94.9615 188.538 94.9651C188.542 95.021 188.385 95.1994 188.291 95.4861C187.991 96.0665 187.825 96.9751 187.912 97.4745C188.011 98.1416 188.07 98.1939 188.361 98.3435ZM213.011 85.3079C212.177 85.4178 212.065 85.425 211.663 85.2825C210.692 85.0084 210.052 84.6568 209.461 84.1898C208.986 83.7715 208.195 82.8123 208.185 82.6447C208.181 82.5888 208.059 82.4283 207.88 82.2715C207.635 81.9505 207.499 81.5665 207.211 80.575C207.134 80.2432 207.005 79.971 207.005 79.971C206.893 79.9782 206.538 81.4601 206.605 81.6241C206.612 81.7359 206.581 82.1307 206.32 83.3259L205.941 84.4166C205.599 85.2242 205.334 85.4658 204.775 85.5018C204.104 85.545 203.633 85.1826 203.366 84.5263C203.3 84.3622 203.167 84.0341 202.985 83.8214C202.799 83.5527 202.663 83.1687 202.523 82.7288C202.386 82.3448 202.246 81.9049 202.186 81.8526C202.123 81.7445 202.035 81.2451 202.003 80.7421C201.908 80.1309 201.758 79.5234 201.617 79.0835C201.481 78.6995 201.333 78.1478 201.319 77.9242C201.305 77.7007 201.228 77.369 201.161 77.2049C200.962 76.7127 200.964 75.8708 201.131 74.9622C201.26 74.3367 201.294 73.9977 201.244 73.2153L201.18 72.2094L201.511 71.2341C201.835 70.147 202.295 69.444 202.78 69.1321C202.941 69.0096 203.217 68.9357 203.44 68.9213C204.223 68.8709 204.869 69.3343 205.555 70.4124C206.003 71.2814 206.088 71.7249 205.861 72.5812C205.729 73.1509 205.677 73.2104 205.797 74.2127C205.906 75.0474 205.92 75.271 205.826 75.5576C205.683 75.9596 205.683 75.9596 205.795 75.9524C205.907 75.9452 206.266 75.4171 206.562 74.7807C206.866 74.2561 207.598 73.4233 208.398 72.7545C209.085 72.093 209.996 71.417 210.052 71.4134L210.589 71.0421C211.444 70.3697 212.258 69.9245 212.705 69.8957C213.037 69.8183 213.092 69.8147 213.218 70.031C213.281 70.1392 213.348 70.3032 213.351 70.3591C213.306 70.5304 213.254 70.5899 213.03 70.6043C212.639 70.6295 211.938 71.0675 211.358 71.666C210.832 72.2049 210.406 72.5691 210.092 72.926C209.774 73.227 209.067 74.451 208.973 74.7377C208.924 74.8531 208.77 75.0874 208.617 75.3217C208.46 75.5002 208.261 75.9058 208.164 76.1366C208.021 76.5386 207.965 76.5422 208.14 76.6432C208.776 76.9389 209.248 77.3013 209.44 77.6817C209.566 77.898 209.633 78.0621 209.636 78.118C209.643 78.2298 209.892 78.6066 210.144 79.0393C210.462 79.636 210.655 80.0164 210.736 80.4041C210.809 80.6799 210.946 81.0639 211.009 81.1721C211.072 81.2803 211.261 81.6048 211.335 81.8806C211.482 82.4323 211.73 82.8091 212.321 83.2761C212.618 83.5375 212.789 83.5826 213.013 83.5682C213.404 83.543 214.05 83.1086 214.137 82.7102L214.541 82.0107C214.695 81.7764 214.893 81.3708 214.991 81.14L215.392 80.3847C215.493 80.2098 215.887 79.3427 216.277 78.4197C216.904 76.8081 217.252 76.1123 217.472 76.042C217.689 75.9158 217.871 76.1285 217.833 76.4116C217.798 76.7505 217.311 78.802 217.029 79.6619L216.852 80.4029L216.727 81.0843C216.633 81.371 216.539 81.6576 216.542 81.7135C216.55 81.8253 216.152 82.6365 215.64 83.399C215.336 83.9236 214.649 84.5851 214.115 85.0124C213.954 85.1349 213.623 85.2124 213.011 85.3079ZM218.85 67.7042C220.062 67.3455 221.072 68.2344 221.22 69.6839C221.249 70.131 221.2 70.2463 220.949 70.7114C220.702 71.2324 220.656 71.4037 220.549 72.3646C220.48 73.0424 220.355 73.7239 220.212 74.1259C219.923 74.874 219.53 76.6389 219.42 77.5439C219.385 77.8828 219.242 78.2848 219.201 78.512C219.051 78.8022 219.061 78.9699 219.142 79.3575C219.216 79.6333 219.241 80.0245 219.206 80.3635C219.172 80.7024 219.182 80.87 219.238 80.8664C219.402 80.7998 219.877 80.3203 220.236 79.7921L220.752 79.0854C220.857 78.9665 220.958 78.7916 220.954 78.7357L221.209 78.3265C221.31 78.1516 221.666 77.5676 222.021 76.9835C222.875 75.4133 222.778 75.6441 223.078 75.0636L223.576 74.0775C224.029 73.2627 224.615 71.8782 224.698 71.4239C224.771 70.802 225.074 70.2774 225.395 70.0322C225.664 69.8466 225.776 69.8394 226.174 69.926C227.023 70.0396 227.345 70.6923 227.336 72.3202L227.393 73.2144C227.562 74.1014 227.65 75.4986 227.612 75.7816C227.567 75.9529 227.655 76.4522 227.799 76.948C227.939 77.3879 228.079 77.8278 228.03 77.9432C228.037 78.055 228.045 78.1667 228.104 78.219C228.219 78.2677 228.324 78.1487 228.802 77.7251C229.654 76.9969 230.572 76.4327 230.858 76.5265C231.148 76.6761 230.998 76.9664 230.524 77.4459L229.833 78.0515C229.568 78.2931 228.765 78.906 228.346 79.3819L228.032 79.7388C227.993 81.7615 228.021 82.2086 227.359 84.1592C227.123 84.8478 226.973 85.1381 226.662 85.5509C225.937 86.4955 225.123 86.9407 223.845 87.1352C223.286 87.1712 223.23 87.1748 222.773 87.036C221.798 86.706 221.416 86.001 221.516 84.9284C221.6 84.4741 221.649 84.3587 222.064 83.8269C222.378 83.47 222.744 83.0536 222.957 82.8715C223.54 82.3289 223.805 82.0874 224.115 81.6746C224.429 81.3177 224.471 81.0905 224.351 80.0882C224.33 79.7528 224.305 79.3616 224.402 79.1309C224.583 78.4458 224.557 77.1568 224.41 76.6051C224.336 76.3293 224.21 76.113 224.158 76.1725L223.757 76.9278C223.06 78.3195 222.907 78.5538 222.806 78.7287C222.649 78.9071 222.046 80.0122 221.693 80.6522C221.195 81.6382 220.138 82.6603 219.422 82.8748C218.867 82.9667 217.969 82.9684 217.567 82.8259C216.935 82.5861 216.519 82.2201 216.319 81.7279L215.871 80.8589C215.619 80.4262 215.475 79.9304 215.299 78.9316C215.152 78.38 215.138 78.1564 215.221 77.7021C215.312 77.3596 215.35 77.0766 215.28 76.8566C215.262 76.5772 215.293 76.1824 215.411 75.3891C215.487 74.8231 215.623 74.3093 215.619 74.2534C215.675 74.2498 215.661 74.0263 215.643 73.7468C215.615 73.2997 215.712 73.069 216.106 72.2019C216.204 71.9711 216.392 71.3978 216.475 70.9436C216.589 70.0944 216.687 69.8637 217.506 68.6325C217.709 68.2827 218.41 67.8447 218.85 67.7042ZM224.187 83.6901C224.232 83.5189 224.068 83.5856 223.751 83.8866C223.322 84.1948 223.063 84.5481 223.078 84.7717C222.991 85.1701 223.4 85.4243 223.661 85.1269C223.762 84.952 224.149 83.9732 224.187 83.6901ZM236.619 86.4246C236.392 86.3831 236.106 86.2893 235.987 86.1848C235.571 85.8188 234.654 84.6432 234.399 84.1547C234.325 83.8788 234.077 83.502 233.951 83.2857C233.335 82.4275 233.422 82.0291 232.979 79.4762C232.825 78.8128 232.793 78.3098 232.761 77.8068L232.829 76.2312C232.821 75.2216 232.859 74.9386 233.204 74.1869C233.301 73.9561 233.437 73.4423 233.52 72.988C233.832 70.8355 233.874 70.6084 234.125 70.1433C234.616 69.0454 235.45 68.0377 236.208 67.5961C236.588 67.4033 236.7 67.3961 237.315 67.3565C238.101 67.362 238.328 67.4034 238.859 67.8181C239.272 68.1283 239.531 68.6727 239.57 69.2875C239.584 69.511 239.672 70.0104 239.801 70.2827C240.145 71.2706 240.083 72.0603 239.71 73.2627C239.571 73.7206 239.536 74.0595 239.527 74.7896C239.503 75.2962 239.441 76.0858 239.354 76.4843C239.323 76.8791 239.243 77.3892 239.201 77.6164C239.157 78.6854 239.033 80.2647 238.988 80.436C238.849 80.8938 238.895 81.6204 239.077 81.8331C239.199 81.9936 240.085 80.9264 240.43 80.1747C240.73 79.5942 240.925 79.1327 241.483 78.1989C241.633 77.9087 241.727 77.6221 241.72 77.5103C241.716 77.4544 241.863 77.1083 242.012 76.818C242.162 76.5278 242.256 76.2412 242.253 76.1853C242.249 76.1294 242.343 75.8428 242.441 75.612C242.636 75.1505 242.681 74.9793 242.844 74.0148C242.938 73.7281 243.022 73.2738 243.119 73.0431C243.21 72.7006 243.244 72.3616 243.254 71.6315C243.214 70.119 243.353 69.6611 244.089 68.8841C244.766 68.0549 245.311 67.7954 245.877 67.8711C246.502 67.9992 246.977 68.4175 247.614 69.611C247.926 70.096 247.933 70.2078 248.112 71.2624C248.282 73.0472 248.096 72.7786 248.077 74.2389C248.042 74.5778 248.019 75.0844 247.932 75.4828C247.841 75.8253 247.761 76.3355 247.783 76.6708C247.745 76.9538 247.71 77.2928 247.665 77.464C247.672 77.5758 247.641 77.9706 247.666 78.3618L247.646 79.8221C247.637 80.5522 247.64 80.6081 247.822 80.8208C248.06 81.03 248.287 81.0715 248.605 80.7704L249.191 80.2838C249.407 80.1576 249.669 79.8601 249.875 79.5663C250.025 79.2761 250.227 78.9263 250.384 78.7479C250.544 78.6253 250.694 78.3351 250.739 78.1638C250.785 77.9926 250.987 77.6428 251.144 77.4644C251.611 76.8731 251.866 76.4639 252.465 75.303C253.225 74.0194 253.536 73.6066 253.815 73.5886C254.262 73.5598 254.399 73.9438 254.169 74.7443C254.082 75.1427 253.981 75.3175 253.347 76.8174C253.145 77.1671 253.055 77.5096 253.058 77.5655C253.065 77.6773 252.968 77.908 252.811 78.0865C252.713 78.3173 252.563 78.6075 252.518 78.7788L252.173 79.5305L251.518 80.695C251.113 81.3945 250.164 82.3535 249.093 83.152C248.234 83.7685 247.85 83.9054 247.396 83.8225C246.603 83.7052 245.295 82.5549 244.962 81.7346L244.57 80.862C244.5 80.642 244.363 80.258 244.234 79.9858C244.157 79.6541 244.024 79.3259 243.842 79.1132C243.541 78.7959 243.338 78.2478 243.313 77.8566C243.302 77.6889 243.25 77.7484 243.003 78.2694L242.525 79.5908C241.467 82.3526 241.49 81.846 241.062 83.052C240.916 83.3981 240.717 83.8038 240.612 83.9227L240.313 84.5032C240.118 84.9647 239.493 85.7344 239.113 85.9273C238.844 86.113 238.46 86.2499 237.905 86.3418C237.129 86.504 237.017 86.5112 236.619 86.4246ZM267.639 79.9371C265.963 80.0451 264.984 79.6592 264.25 78.6964C263.882 78.215 263.231 76.798 263.007 75.9146L262.733 75.1466C262.67 75.0384 262.266 75.7378 262.026 76.3706C261.879 76.7167 261.06 77.9479 260.596 78.5951C260.181 79.1269 259.001 79.9885 258.338 80.1435C258.009 80.2768 257.332 80.2083 255.962 79.8476C255.106 79.6221 254.875 79.5248 254.459 79.1588C253.98 78.6846 253.004 77.4568 252.983 77.1214C252.674 75.7945 252.667 75.6828 252.75 75.2285C252.886 74.7147 253.242 74.1306 253.563 73.8855C253.936 73.5808 254.558 73.653 254.967 73.9072C255.439 74.2697 256.069 75.3514 256.29 76.1789C256.364 76.4547 257.084 77.194 257.493 77.4482C257.839 77.5943 258.398 77.5583 258.719 77.3131C259.152 77.0608 260.142 75.8746 260.341 75.469L260.693 74.8291C260.899 74.5352 261.631 72.8046 261.725 72.518C261.766 72.2908 261.654 72.298 261.277 72.5468C260.743 72.974 260.185 73.01 259.44 72.7773C259.154 72.6836 258.077 71.6306 257.828 71.2538L257.615 70.5381C257.541 70.2622 257.401 69.8224 257.327 69.5465C257.131 69.1102 257.124 68.9984 257.112 67.933C257.135 66.5286 257.271 66.0148 257.975 64.7349C258.627 63.5145 258.627 63.5145 259.549 63.0062L260.303 62.5087L261.141 62.4547C262.147 62.3899 262.262 62.4386 262.86 63.0173C263.577 63.7007 263.521 63.7043 263.997 65.0204L264.389 64.9952C264.668 64.9772 264.899 65.0745 265.129 65.1719C265.947 65.6804 265.707 66.3131 266.183 67.6292C266.53 68.6731 266.597 68.8372 266.521 69.4032C266.486 69.7422 266.546 70.6922 266.607 71.6423C266.802 74.7161 266.689 73.8255 266.961 76.3332C267.5 76.8597 267.741 77.1247 268.579 77.0707C268.803 77.0563 268.911 76.9933 269.326 76.4615C270.163 75.5097 270.557 74.6426 270.612 73.7412C270.594 73.4617 270.569 73.0705 270.503 72.9065C270.37 72.5784 270.52 72.2881 270.799 72.2701C271.078 72.2521 271.32 72.5172 271.635 73.058C271.96 73.7666 271.902 74.6121 271.592 75.9227C271.185 77.464 270.687 78.4501 269.944 79.1153C269.249 79.665 268.757 79.8651 267.639 79.9371ZM260.455 71.0846C260.567 71.0774 261.101 70.6502 261.306 70.3564C261.519 70.1743 262.077 69.2405 262.377 68.6601C262.478 68.4852 262.516 68.2022 262.519 67.3602L262.504 66.2389L262.182 65.5863C262.045 65.2022 261.797 64.8254 261.737 64.7732C261.618 64.6686 261.503 64.6199 261.447 64.6235C261.391 64.6271 261.283 64.6902 261.178 64.8092C260.917 65.1066 260.212 66.3865 260.223 66.5542C260.23 66.6659 260.192 66.949 260.094 67.1797C260 67.4664 259.921 67.9765 259.886 68.3155C259.8 69.6117 260.12 71.1062 260.455 71.0846Z" fill="black"/>
</g>
<defs>
<filter id="filter0_d_2181_2650" x="3" y="0" width="347.792" height="350" filterUnits="userSpaceOnUse" color-interpolation-filters="sRGB">
<feFlood flood-opacity="0" result="BackgroundImageFix"/>
<feColorMatrix in="SourceAlpha" type="matrix" values="0 0 0 0 0 0 0 0 0 0 0 0 0 0 0 0 0 0 127 0" result="hardAlpha"/>
<feOffset dx="-10" dy="10"/>
<feComposite in2="hardAlpha" operator="out"/>
<feColorMatrix type="matrix" values="0 0 0 0 0 0 0 0 0 0 0 0 0 0 0 0 0 0 1 0"/>
<feBlend mode="normal" in2="BackgroundImageFix" result="effect1_dropShadow_2181_2650"/>
<feBlend mode="normal" in="SourceGraphic" in2="effect1_dropShadow_2181_2650" result="shape"/>
</filter>
</defs>
</svg>
