<svg width="107" height="163" viewBox="0 0 107 163" fill="none" xmlns="http://www.w3.org/2000/svg">
<path d="M106.069 36.6649C106.069 43.8602 96.1487 43.7003 93.4287 48.657C92.3087 50.5758 92.1486 52.0148 89.9086 52.8143C87.6686 53.6138 84.1487 53.9336 81.4287 54.2534C79.6687 54.5732 78.8688 55.0528 78.8688 57.1315C79.3488 76.4787 78.8688 95.826 78.8688 115.173C78.8688 121.409 78.8687 127.805 78.3887 134.041C78.0687 139.477 78.0687 145.233 76.1487 150.35C74.0687 155.627 69.1087 159.624 63.3487 160.903C57.5887 162.182 47.9887 163.781 40.6287 162.182C35.5087 161.063 30.3887 157.865 27.8287 153.068C25.2687 148.271 25.2687 139.477 25.4287 133.081C25.4287 127.325 24.3087 121.409 24.6287 115.653C24.9487 109.897 24.6287 101.103 24.3087 94.0672C24.1487 82.2349 23.3487 70.4027 23.6687 58.5705C23.6687 58.2507 23.6687 57.9309 23.6687 57.6111C22.2287 55.8523 21.9087 53.7737 21.7487 51.5351C16.7887 52.8143 13.2687 50.5758 11.6687 45.4591C11.6687 45.1394 4.30868 43.8602 3.66868 43.5404C2.22868 42.9008 0.948715 41.7816 0.308715 40.1826C-1.77128 34.2665 7.18866 31.7082 11.3487 31.3884C11.3487 30.9087 11.6687 30.2691 11.8287 29.6296C12.6287 26.9114 14.7087 26.1119 17.1087 25.7921C19.8287 25.4723 22.3887 25.1525 25.2687 24.8327C24.7887 22.914 24.7887 20.8354 24.7887 18.7567C25.4287 8.20366 34.3887 2.28756 43.9887 0.688612C51.0287 -0.590546 58.3887 0.0490334 65.4287 1.48809C70.3887 2.44745 76.3088 2.76724 80.4688 6.12503C83.5088 8.52346 84.7887 12.5208 84.7887 16.1984C84.7887 17.1578 83.0288 26.1119 82.8688 26.1119C84.8954 26.8581 86.8687 28.0839 88.7887 29.7895C89.2687 30.2691 89.7487 29.9494 90.2287 29.9494C92.1487 29.9494 93.9087 29.6296 95.8287 29.6296C100.469 29.4697 103.829 31.5483 105.909 35.7056C106.069 36.0254 106.229 36.505 106.229 36.8248L106.069 36.6649ZM10.8687 33.467C8.14868 33.9467 5.74873 35.2259 3.82873 37.1446C2.54873 38.4238 2.70868 39.0634 4.46868 39.8628C6.38868 41.6217 8.9487 41.4618 11.1887 42.1014V33.7868C11.1887 33.7868 11.1887 33.6269 11.1887 33.467C11.1887 33.467 11.0287 33.467 10.8687 33.467ZM47.3487 147.312C47.3487 147.632 47.5087 147.632 47.8287 147.632C48.6287 148.431 49.5887 148.431 50.5487 148.751C54.5487 149.711 55.8287 148.751 56.6287 144.754C57.2687 141.556 57.4287 138.198 57.4287 134.84C57.9087 121.569 58.7086 108.298 58.7086 95.0265C58.7086 83.8339 58.2286 72.4814 57.9086 61.2887C57.9086 60.3294 57.5887 60.0096 56.7887 59.5299C52.3087 57.4513 47.9887 54.8929 43.8287 52.1747C43.3487 51.8549 43.0287 51.2154 42.3887 51.3753C42.2287 53.6138 42.7086 55.8523 42.7086 57.9309C42.7086 73.1209 43.3486 88.1511 43.5086 103.181C43.6686 115.813 43.0287 128.285 43.9887 140.916C44.1487 143.475 44.7887 146.033 47.3487 147.472V147.312ZM31.6687 24.353C46.5487 23.3937 61.4286 23.8734 76.3086 25.1525C75.8286 20.9952 75.5087 17.1578 74.2287 13.4802C73.9087 12.5208 73.5887 11.5615 72.6287 11.0818C71.6687 9.96251 70.5488 9.48282 69.2688 9.16303C65.5888 7.88388 61.9088 7.56409 58.0688 7.2443C51.1888 6.92451 44.4687 7.56409 37.5887 8.36356C33.9087 8.84324 31.0287 10.2823 29.5887 13.9599C28.6287 16.6781 28.4687 19.3963 28.7887 22.1145C28.9487 23.8734 29.7487 24.8327 31.6687 24.353ZM85.9086 45.9388C86.2286 45.7789 86.2287 45.2993 86.3887 44.9795C87.0287 41.7816 86.7087 38.4238 86.3887 35.2259C85.7487 29.3098 87.0288 29.9494 80.4688 28.99C72.7888 27.8707 64.9486 27.5509 57.1086 27.2311C44.1486 26.7515 31.3487 27.2311 18.3887 28.5103C15.1887 28.8301 14.7087 29.3098 14.5487 32.5077C14.3887 36.3451 14.7087 40.3425 15.0287 44.18C15.0287 45.2993 15.0287 46.5784 16.4687 47.3779C18.0687 48.4971 19.9887 48.1774 21.7487 48.8169C21.7487 48.1774 21.7487 47.5378 21.7487 47.0581C22.0687 44.8196 22.2287 42.4211 23.5087 40.3425C24.1487 39.2232 25.1087 38.5837 26.5487 38.5837C29.5887 38.7436 31.8287 40.8222 32.1487 43.8602C32.1487 44.6597 32.4687 45.619 32.6287 46.4185C43.6687 47.0581 54.5487 45.7789 65.5887 46.7383C65.5887 45.619 65.5887 44.6597 65.5887 43.7003C65.5887 41.142 66.8686 39.2232 69.1086 37.9441C72.4686 36.0254 75.5086 37.9441 75.5086 41.7816C75.5086 43.3805 75.5087 44.9795 76.1487 46.5784C77.4287 46.5784 78.5487 46.5784 79.8287 46.5784C81.9087 46.5784 83.9888 46.8982 86.0688 45.9388H85.9086ZM61.2688 49.2966C61.2688 50.4159 61.5887 51.2154 61.5887 52.1747C61.5887 64.4866 62.3887 76.6386 62.3887 88.9505C62.3887 96.3057 62.3888 103.661 62.0688 111.016C61.7488 119.97 61.5888 128.924 61.2688 137.878C61.2688 140.916 60.7887 143.794 60.1487 146.832C59.5087 149.711 58.2287 152.269 55.0287 152.589C49.2687 153.388 42.2287 151.15 40.6287 143.475C40.1487 140.756 39.8287 138.038 39.8287 135.32C39.8287 124.127 39.8287 112.935 39.8287 101.742C39.8287 95.6661 39.8287 89.4302 39.6687 83.3542C39.3487 75.6793 39.3487 68.0043 39.6687 60.4893C39.8287 56.9716 39.6687 53.4539 40.3087 49.7763H32.4687C32.4687 52.0148 33.2687 54.2534 32.4687 56.4919C31.6687 59.0502 29.5887 59.8497 27.0287 59.8497C27.0287 60.6492 27.0287 61.2887 27.0287 61.9283C26.7087 74.7199 27.8287 87.5115 27.8287 100.303C27.8287 115.653 28.7887 131.003 29.7487 146.513C29.9087 149.87 30.0687 152.749 32.7887 155.147C35.5087 157.545 37.2687 157.705 39.8287 158.185C46.0687 159.144 52.9487 159.144 59.1887 158.185C63.6687 157.385 67.3487 155.467 68.7887 150.51C69.4287 148.271 69.7487 146.193 69.7487 143.954C69.9087 130.523 69.5888 117.252 70.0688 103.821C70.3888 96.7854 70.0687 89.5901 70.5487 82.5547C70.7087 78.8772 70.8687 75.3595 71.0287 71.6819C71.3487 67.5246 71.6687 63.5273 71.9887 59.37C64.9487 59.0502 65.9087 53.7737 65.5887 49.2966C63.9887 49.2966 62.7086 49.6164 61.1086 49.6164L61.2688 49.2966ZM89.2688 32.028C89.5888 35.066 89.9087 37.7842 90.2287 40.5024C94.3887 39.0634 98.8687 39.2232 102.229 36.0254C99.0287 31.2285 93.9087 33.1472 89.4287 32.028H89.2688ZM71.9887 40.8222C69.9087 41.3019 69.1086 42.2612 69.1086 44.6597C69.1086 46.7383 69.4287 48.8169 69.4287 50.8956C69.4287 52.0148 69.4287 53.1341 69.7487 54.0935C69.7487 54.733 70.0686 55.2127 70.7086 55.3726C71.5086 55.3726 71.8286 55.0528 72.3086 54.4133C72.9486 53.4539 72.9487 52.1747 72.9487 51.0555C72.9487 47.5378 72.3087 44.18 71.8287 40.6623L71.9887 40.8222ZM26.5487 42.4211C25.2687 46.0987 25.5887 49.7763 25.7487 53.4539C25.7487 53.9336 26.0687 54.5731 26.5487 54.8929C27.0287 55.5325 27.6687 56.0122 28.6287 55.6924C29.4287 55.5325 29.4287 54.5731 29.4287 54.0935C29.7487 51.0555 29.7487 47.8576 29.4287 44.8196C29.2687 43.3805 28.4687 42.581 26.7087 42.4211H26.5487Z" fill="#040303"/>
<path d="M61.2688 49.2966C62.8688 49.2966 64.1486 48.9768 65.7486 48.9768C66.0686 53.4539 64.9486 58.8903 72.1486 59.0502C71.8286 63.2075 71.5087 67.2048 71.1887 71.3621C70.8687 75.0397 70.8686 78.5574 70.7086 82.2349C70.3886 89.2703 70.5487 96.4656 70.2287 103.501C69.5887 116.932 70.2286 130.203 69.9086 143.635C69.9086 145.873 69.5886 148.112 68.9486 150.19C67.5086 154.987 63.8286 157.066 59.3486 157.865C54.5486 158.665 49.5887 158.825 44.6287 158.345C39.6687 157.865 34.8687 158.025 32.7887 155.307C30.7087 152.589 29.9087 145.553 29.4287 142.036C28.7887 137.399 29.1086 132.762 28.9486 128.125C28.7886 123.488 28.4686 119.331 28.1486 114.853C27.9886 109.897 28.1487 105.1 27.9887 100.143C27.9887 87.3516 26.8687 74.56 27.1887 61.7684C27.1887 61.1288 27.1887 60.4893 27.1887 59.6898C29.7487 59.6898 31.6687 58.8903 32.6287 56.332C33.4287 54.0935 32.6287 51.8549 32.6287 49.6164H40.4686C39.8286 53.294 39.9887 56.8117 39.8287 60.3294C39.5087 68.0043 39.5087 75.6793 39.8287 83.1943C39.9887 89.2703 39.9887 95.5062 39.9887 101.582C39.9887 112.775 39.9887 123.967 39.9887 135.16C39.9887 137.878 40.1487 140.597 40.7887 143.315C42.3887 150.99 49.4287 153.228 55.1887 152.429C58.2287 151.949 59.6686 149.391 60.3086 146.673C60.9486 143.794 61.2687 140.756 61.4287 137.718C61.7487 128.764 61.9087 119.81 62.2287 110.856C62.5487 103.501 62.5486 96.1458 62.5486 88.7906C62.5486 76.4787 61.5886 64.3267 61.7486 52.0148C61.7486 51.2154 61.5887 50.256 61.4287 49.1367L61.2688 49.2966Z" fill="#616161"/>
<path d="M43.9887 52.0148C48.1487 54.733 52.4686 57.2914 56.9486 59.37C57.7486 59.6898 58.0687 60.1695 58.0687 61.1288C58.3887 72.3215 59.0287 83.674 58.8687 94.8666C58.8687 108.138 57.9087 121.409 57.5887 134.68C57.5887 138.038 57.2687 141.236 56.7887 144.594C56.1487 148.591 54.7086 149.551 50.7086 148.591C49.7486 148.431 48.6287 148.271 47.9887 147.472C47.9887 147.312 47.9886 146.992 47.5086 147.152C47.1886 146.193 46.8687 145.393 46.8687 144.434C46.5487 140.437 46.0687 136.279 46.0687 132.282C46.0687 118.691 45.7487 105.26 46.3887 91.6687C46.8687 81.7553 46.0687 71.8418 45.5887 61.9283C45.4287 58.5705 45.1086 55.2127 44.1486 51.8549L43.9887 52.0148Z" fill="#EA5E6B"/>
<path d="M85.9086 45.9388C83.9886 46.8982 81.7487 46.4185 79.6687 46.5784C78.5487 46.5784 77.2687 46.5784 75.9887 46.5784C75.5087 44.9795 75.3486 43.3805 75.3486 41.7816C75.3486 37.9441 72.3086 36.1852 68.9486 37.9441C66.7086 39.2232 65.4287 41.142 65.4287 43.7003C65.4287 44.6597 65.4287 45.619 65.4287 46.7383C54.3887 45.7789 43.5086 46.8982 32.4687 46.4185C32.4687 45.619 32.1487 44.6597 31.9887 43.8602C31.5087 40.8222 29.4287 38.7436 26.3887 38.5837C24.9487 38.5837 24.1486 39.2232 23.3486 40.3425C22.0686 42.4211 21.9087 44.8196 21.5887 47.0581C21.5887 47.6977 21.5887 48.1774 21.5887 48.8169C19.8287 48.0175 17.9087 48.4971 16.3087 47.3779C17.1087 47.0581 17.1087 46.4185 17.1087 45.7789C17.1087 42.7409 17.4287 39.8628 17.1087 36.8248C16.7887 33.467 17.5887 32.8275 20.7887 32.3478C25.4287 31.5483 30.0687 31.3884 34.7087 31.2285C45.5887 30.9087 56.3087 31.0686 67.0287 32.3478C71.0287 32.8275 75.1887 32.8275 79.1887 33.7868C82.2287 34.5863 83.9886 36.505 84.9486 39.3831C85.5886 41.4618 85.5886 43.7003 85.7486 45.7789L85.9086 45.9388Z" fill="#EA5E6B"/>
<path d="M72.6287 10.9219C73.5887 11.4016 73.9087 12.5208 74.2287 13.3203C75.5087 16.9979 75.9886 20.8354 76.3086 24.9926C61.2686 23.5536 46.5486 23.0739 31.6686 24.1931C31.6686 23.5536 31.6686 23.0739 31.6686 22.4343C31.3486 16.3583 33.4287 13.3203 39.1887 11.5615C42.8687 10.4422 46.7086 10.4422 50.5486 10.1224C57.9086 9.80262 65.2687 10.2823 72.7887 10.9219H72.6287Z" fill="#616161"/>
<path d="M85.9086 45.9388C85.7486 43.8602 85.7486 41.6217 85.1086 39.543C84.3086 36.6649 82.3886 34.7462 79.3486 33.9467C75.3486 32.9874 71.1886 32.9874 67.1886 32.5077C56.4686 31.2285 45.5886 31.0686 34.8686 31.3884C30.2286 31.3884 25.5886 31.7082 20.9486 32.5077C17.5886 33.1472 16.9486 33.7868 17.2686 36.9847C17.4286 40.0227 17.1086 42.9008 17.2686 45.9388C17.2686 46.5784 17.2686 47.218 16.4686 47.5378C15.1886 46.7383 15.1887 45.4591 15.0287 44.3399C14.7087 40.5024 14.3886 36.6649 14.5486 32.6676C14.7086 29.4697 15.1886 28.99 18.3886 28.6702C31.1886 27.2311 44.1486 26.9114 57.1086 27.391C64.9486 27.7108 72.6287 28.0306 80.4687 29.1499C87.0287 30.1092 85.7486 29.4697 86.3886 35.3858C86.7086 38.5837 87.1886 41.7816 86.3886 45.1394C86.3886 45.4591 86.3886 45.9388 85.9086 46.0987L85.9086 45.9388Z" fill="#FDFDFD"/>
<path d="M43.9887 52.0148C44.9487 55.2127 45.2688 58.7304 45.4288 62.0882C45.9088 72.0017 46.7088 81.9151 46.2288 91.8286C45.5888 105.42 45.9086 118.851 45.9086 132.442C45.9086 136.439 46.3886 140.597 46.7086 144.594C46.7086 145.553 47.1887 146.353 47.3487 147.312C44.6287 146.033 44.1487 143.475 43.9887 140.756C43.0287 128.285 43.8286 115.653 43.5086 103.021C43.3486 87.9911 42.5486 72.8012 42.7086 57.771C42.7086 55.5325 42.2287 53.4539 42.3887 51.2154C43.1887 51.2154 43.5088 51.695 43.8288 52.0148H43.9887Z" fill="#FDFDFD"/>
<path d="M72.6287 10.9219C65.2687 10.4422 57.9086 9.80261 50.3886 10.1224C46.5486 10.2823 42.7087 10.2823 39.0287 11.5615C33.2687 13.3203 31.0287 16.5182 31.5087 22.4343C31.5087 23.0739 31.5087 23.5536 31.5087 24.1931C29.5887 24.8327 28.7887 23.7135 28.6287 21.9546C28.3087 19.0765 28.4687 16.3583 29.4287 13.8C30.8687 10.1224 33.7487 8.68335 37.4287 8.20366C44.1487 7.40419 51.0286 6.60472 57.9086 7.0844C61.7486 7.2443 65.5886 7.56408 69.1086 9.00314C70.3886 9.48282 71.6687 9.9625 72.4687 10.9219L72.6287 10.9219Z" fill="#FDFDFD"/>
<path d="M89.2688 32.028C93.7488 33.1472 98.8688 31.2285 102.069 36.0254C98.7088 39.3831 94.2288 39.0634 90.0688 40.5024C89.7488 37.6243 89.4286 34.9061 89.1086 32.028H89.2688Z" fill="#616161"/>
<path d="M71.9887 40.8222C72.4687 44.3399 72.9486 47.6977 73.1086 51.2154C73.1086 52.3346 73.1088 53.4539 72.4688 54.5732C72.1487 55.0528 71.6688 55.5325 70.8688 55.5325C70.2288 55.5325 70.0686 54.8929 69.9086 54.2534C69.5886 53.1341 69.5887 52.1747 69.5887 51.0555C69.5887 48.9768 69.2688 46.8982 69.2688 44.8196C69.2688 42.581 70.0686 41.4618 72.1486 40.9821L71.9887 40.8222Z" fill="#EA5E6B"/>
<path d="M26.5487 42.4211C28.3087 42.4211 28.9486 43.3805 29.2686 44.8196C29.7486 47.8576 29.5886 51.0555 29.2686 54.0935C29.2686 54.5731 29.2686 55.5325 28.4686 55.6924C27.6686 55.8523 27.0286 55.3726 26.3886 54.8929C26.0686 54.4132 25.5886 53.9336 25.5886 53.4539C25.4286 49.7763 25.1086 46.0987 26.3886 42.4211H26.5487Z" fill="#EA5E6B"/>
<path d="M4.46868 39.8628C2.70868 39.0634 2.54873 38.4238 3.82873 37.1446C5.90873 35.2259 8.14868 33.9467 10.8687 33.467C10.8687 33.6269 10.8686 33.6269 11.1886 33.6269V36.0254C8.78863 37.1446 6.38861 37.9441 4.46861 39.7029L4.46868 39.8628Z" fill="#FDFDFD"/>
<path d="M4.46868 39.8628C6.38868 38.104 8.94867 37.3045 11.1887 36.1853L11.1887 42.1014C8.7887 41.4618 6.38868 41.6217 4.46868 39.8628Z" fill="#616161"/>
<path d="M11.1886 33.6269C11.0286 33.6269 10.8687 33.6269 10.8687 33.467C10.8687 33.467 11.0287 33.467 11.1887 33.467C11.1887 33.467 11.1887 33.6269 11.1887 33.7868L11.1886 33.6269Z" fill="#616161"/>
<path d="M47.3487 147.312C47.6687 147.312 47.8287 147.312 47.8287 147.632C47.5087 147.632 47.3487 147.632 47.3487 147.312Z" fill="#FDFDFD"/>
</svg>
