<svg width="44" height="47" viewBox="0 0 44 47" fill="none" xmlns="http://www.w3.org/2000/svg">
<g id="Vector">
<path d="M2 45H42V19.4803C42 17.7418 41.2976 16.0745 40.0474 14.8452C38.7971 13.6158 37.1014 12.9252 35.3333 12.9252H8.66667C6.89856 12.9252 5.20286 13.6158 3.95262 14.8452C2.70238 16.0745 2 17.7418 2 19.4803V45Z" fill="#E693E3"/>
<path d="M21.9987 2L25.2542 5.5791C25.8351 6.19317 26.2241 6.95864 26.3747 7.78414C26.5252 8.60964 26.431 9.4603 26.1033 10.2346C25.7756 11.0089 25.2282 11.6741 24.5265 12.1509C23.8248 12.6276 22.9983 12.8957 22.1459 12.9233C21.2934 12.9508 20.4509 12.7365 19.7188 12.3061C18.9868 11.8756 18.3962 11.2471 18.0176 10.4957C17.6389 9.74417 17.4881 8.90141 17.5833 8.06798C17.6785 7.23455 18.0155 6.44564 18.5542 5.79542L21.9987 2Z" fill="#E693E3"/>
<path d="M2 25.6051C2.69333 25.9001 3.45333 26.0509 4.22222 26.0356C5.08777 26.0534 5.94472 25.8638 6.71906 25.4831C7.4934 25.1024 8.16184 24.5421 8.66667 23.8505C9.17149 23.159 9.83994 22.5987 10.6143 22.218C11.3886 21.8373 12.2456 21.6476 13.1111 21.6655C13.9767 21.6476 14.8336 21.8373 15.6079 22.218C16.3823 22.5987 17.0507 23.159 17.5556 23.8505C18.0604 24.5421 18.7288 25.1024 19.5032 25.4831C20.2775 25.8638 21.1345 26.0534 22 26.0356C22.8655 26.0534 23.7225 25.8638 24.4968 25.4831C25.2712 25.1024 25.9396 24.5421 26.4444 23.8505C26.9493 23.159 27.6177 22.5987 28.3921 22.218C29.1664 21.8373 30.0233 21.6476 30.8889 21.6655C31.7544 21.6476 32.6114 21.8373 33.3857 22.218C34.1601 22.5987 34.8285 23.159 35.3333 23.8505C35.8382 24.5421 36.5066 25.1024 37.2809 25.4831C38.0553 25.8638 38.9122 26.0534 39.7778 26.0356C40.5556 26.0509 41.3156 25.9001 42 25.6051M2 45H42V19.4803C42 17.7418 41.2976 16.0745 40.0474 14.8452C38.7971 13.6158 37.1014 12.9252 35.3333 12.9252H8.66667C6.89856 12.9252 5.20286 13.6158 3.95262 14.8452C2.70238 16.0745 2 17.7418 2 19.4803V45ZM21.9987 2L25.2542 5.5791C25.8351 6.19317 26.2241 6.95864 26.3747 7.78414C26.5252 8.60964 26.431 9.4603 26.1033 10.2346C25.7756 11.0089 25.2282 11.6741 24.5265 12.1509C23.8248 12.6276 22.9983 12.8957 22.1459 12.9233C21.2934 12.9508 20.4509 12.7365 19.7188 12.3061C18.9868 11.8756 18.3962 11.2471 18.0176 10.4957C17.6389 9.74417 17.4881 8.90141 17.5833 8.06798C17.6785 7.23455 18.0155 6.44564 18.5542 5.79542L21.9987 2Z" stroke="black" stroke-width="4" stroke-linecap="round" stroke-linejoin="round"/>
</g>
</svg>
