<svg width="44" height="39" viewBox="0 0 44 39" fill="none" xmlns="http://www.w3.org/2000/svg">
<g id="Vector">
<path d="M5.37422 37L42 36.9825V29.3263C40.8212 29.3263 39.6907 28.8654 38.8572 28.0449C38.0237 27.2245 37.5554 26.1117 37.5554 24.9514C37.5554 23.7911 38.0237 22.6783 38.8572 21.8578C39.6907 21.0374 40.8212 20.5764 42 20.5764V12.9203H4.83865" fill="#FFED00"/>
<path d="M42 12.9203L21.1451 2C15.5627 2.2625 10.5714 5.10621 7.08463 9.4921C3.92229 13.4733 2 18.7254 2 24.485C2 29.1159 3.24303 33.4213 5.37422 37" fill="#FFED00"/>
<path d="M28.6676 21.6702V21.6921Z" fill="#FFED00"/>
<path d="M13.1115 21.6702V21.6921Z" fill="#FFED00"/>
<path d="M19.7784 28.2326V28.2545Z" fill="#FFED00"/>
<path d="M42 12.9203V20.5764C40.8212 20.5764 39.6907 21.0374 38.8572 21.8578C38.0237 22.6783 37.5554 23.7911 37.5554 24.9514C37.5554 26.1117 38.0237 27.2245 38.8572 28.0449C39.6907 28.8654 40.8212 29.3263 42 29.3263V36.9825L5.37422 37C3.24303 33.4213 2 29.1159 2 24.485C2 18.7254 3.92229 13.4733 7.08463 9.4921C10.5714 5.10621 15.5627 2.2625 21.1451 2L42 12.9203ZM42 12.9203H4.83865M28.6676 21.6702V21.6921M13.1115 21.6702V21.6921M19.7784 28.2326V28.2545" stroke="black" stroke-width="4" stroke-linecap="round" stroke-linejoin="round"/>
</g>
</svg>
