<svg width="44" height="42" viewBox="0 0 44 42" fill="none" xmlns="http://www.w3.org/2000/svg">
<g id="Frame 484">
<path id="Vector 49" d="M28 19.3607L42 14.7705L36.5 33.7869L22 41L7.5 33.7869L2 14.7705L16 19.3607L22 1L28 19.3607Z" fill="#E793E3"/>
<g id="Vector">
<path d="M22 2C24.0156 4.4372 25.593 7.39579 26.6249 10.6744C27.6568 13.9531 28.119 17.4748 27.98 21" fill="#945091"/>
<path d="M16.0202 21C15.8813 17.4748 16.3435 13.9531 17.3754 10.6744C18.4073 7.39579 19.9844 4.4372 22 2" fill="#945091"/>
<path d="M22 40C16.6957 40 11.6086 37.331 7.85786 32.58C4.10714 27.8291 2 21.3855 2 14.6667C4.62644 14.6667 7.22716 15.3219 9.65367 16.5951C12.0802 17.8682 14.285 19.7342 16.1421 22.0866C17.9993 24.439 19.4725 27.2318 20.4776 30.3054C21.4827 33.3789 22 36.6732 22 40ZM22 40C27.3043 40 32.3914 37.331 36.1421 32.58C39.8929 27.8291 42 21.3855 42 14.6667C36.6957 14.6667 31.6086 17.3357 27.8579 22.0866C24.1071 26.8375 22 33.2812 22 40ZM27.98 21C28.119 17.4748 27.6568 13.9531 26.6249 10.6744C25.593 7.39579 24.0156 4.4372 22 2C19.9844 4.4372 18.4073 7.39579 17.3754 10.6744C16.3435 13.9531 15.8813 17.4748 16.0202 21" stroke="black" stroke-width="4" stroke-linecap="round" stroke-linejoin="round"/>
</g>
</g>
</svg>
