<svg width="206" height="283" viewBox="0 0 206 283" fill="none" xmlns="http://www.w3.org/2000/svg">
<path d="M105.12 0.325768C117.28 0.485809 129.6 1.92618 141.44 5.127C164 11.3686 182.4 24.1719 197.28 42.2565C199.84 45.2973 201.92 48.8182 204.64 51.6989C205.28 52.3391 205.28 53.1393 204.96 53.9395C204 56.3401 203.04 58.7407 202.24 61.3014C201.92 62.4216 201.28 62.4216 200.48 62.1016C198.88 61.3014 197.28 60.6612 195.68 59.861C195.68 63.5419 195.68 67.2229 195.68 70.9038C195.52 111.234 195.36 151.404 195.2 191.735C195.2 219.902 195.2 248.229 195.2 276.396C195.2 278.317 194.24 279.757 193.76 281.358C193.76 281.838 193.12 281.998 192.64 281.998C190.4 281.998 188.32 282.638 186.08 282.478C169.44 282.318 152.8 282.158 136.16 281.998C105.76 281.678 75.2 281.358 44.8 281.038C43.2 281.038 41.9199 280.717 40.6399 279.917C33.4399 275.756 26.56 271.115 19.68 266.634C18.56 265.834 17.92 264.393 16.48 263.913C16 263.753 15.84 262.953 16 262.313C16.96 253.19 16.32 244.228 16.32 235.106C15.84 172.21 15.36 109.154 14.72 46.2575C14.72 45.7774 14.88 45.2973 14.4 44.6571C12.96 46.0975 11.52 47.5378 10.08 48.8182C9.59998 49.2983 9.27998 49.9384 8.47998 49.7784C5.75998 49.2983 2.72 49.7784 0.8 46.7376C0.64 46.4176 0.16 46.2575 0 46.0975C0 45.7774 0 45.2973 0 44.9772C0.8 43.8569 1.44 42.8966 2.4 41.7764C5.92 37.6153 9.91998 33.9344 14.08 30.4135C22.4 23.2116 31.04 16.3299 41.28 11.6887C60.64 3.04646 82.08 -0.154353 103.2 0.00568797C104 0.00568797 104.8 0.00568797 105.6 0.00568797L105.12 0.325768ZM48.32 86.9079C48.32 86.5878 48.32 86.4278 48 86.4278C48 86.1077 48 85.9477 47.68 85.9477C47.68 85.4675 47.3599 85.3075 47.0399 85.1475C45.2799 83.7071 44.16 81.1464 41.28 81.9466C37.76 81.9466 34.08 81.9466 30.56 81.7866C28.96 81.7866 28.6399 82.1067 28.6399 83.7071C28.7999 123.237 28.96 162.607 29.12 202.137C29.12 221.502 29.12 240.867 29.12 260.232C28.8 261.833 29.12 262.473 30.88 262.473C42.56 262.473 54.24 262.633 65.92 262.793C87.36 262.953 108.96 263.113 130.4 263.273C130.88 263.273 131.52 263.593 132.16 262.953C130.08 260.392 127.84 257.992 125.76 255.591C124.96 254.631 124 253.991 124 252.55C124.96 251.75 125.6 252.55 126.08 253.19C128.32 255.591 130.4 257.992 132.64 260.392C133.6 261.513 134.08 263.113 135.68 263.273C138.24 263.433 140.64 263.273 143.52 263.273C142.88 262.473 142.56 261.833 142.08 261.353C138.08 256.071 134.08 250.79 129.92 245.668C130.88 243.908 131.52 245.188 132.16 245.829C136.32 250.47 140.32 255.431 144.16 260.392C145.12 262.793 146.72 263.753 149.44 263.433C153.28 263.113 157.12 263.433 160.96 263.433C162.08 263.433 162.72 263.273 162.4 261.993C162.4 261.513 162.4 261.032 162.4 260.552C162.56 249.67 162.72 238.787 162.88 227.744C163.2 194.615 163.52 161.487 163.84 128.359C163.84 113.955 164.16 99.5511 164.32 84.9874C164.32 84.1872 164.8 83.227 163.2 83.227C154.24 82.9069 145.28 82.7468 136.16 82.7468C135.52 82.7468 134.72 82.5868 133.76 83.0669C135.52 85.1475 137.12 87.228 138.72 89.3085C139.04 89.7886 140 89.9487 139.52 90.9089C139.36 90.5888 139.04 90.5889 138.56 90.5889C136.64 88.3483 134.56 86.2677 132.64 84.0272C131.68 82.9069 130.72 82.5868 129.28 82.9069C128.16 82.7468 127.04 82.7468 125.76 82.9069C127.36 85.4675 129.92 87.388 131.04 90.2688C130.08 90.4288 129.76 89.6286 129.28 89.4686C127.52 87.5481 125.6 85.7876 123.84 83.8671C122.88 82.7468 121.92 82.4268 120.64 82.7468C120.16 82.7468 119.68 82.7468 119.36 82.7468C98.4 82.7468 77.5999 82.7468 56.6399 82.5868C56.3199 82.5868 55.84 82.4268 55.52 82.9069C60.48 88.8284 65.28 94.7499 68.32 102.112C67.2 101.792 67.2 100.831 66.56 100.511C62.56 94.7499 58.24 89.1485 53.76 83.7071C52.8 82.4268 51.68 81.9466 50.08 82.4268C48.96 82.2667 47.84 82.2667 46.56 82.4268C47.84 84.5073 49.76 86.1077 50.72 88.5083C49.6 88.5083 49.4399 87.388 48.6399 87.388C48.6399 87.068 48.64 86.9079 48.32 87.0679V86.9079ZM8.8 38.5755C6.4 40.176 4.48002 42.4165 2.72002 44.6571C1.92002 45.4573 2.72 45.7774 3.2 46.2575C3.68 46.7376 4.15998 46.8977 4.47998 46.2575C5.91998 43.6969 7.36 41.2962 8.8 38.7356C8.96 38.7356 9.11996 38.7356 8.95996 38.4155C8.79996 38.4155 8.79994 38.4155 8.63994 38.5755H8.8ZM27.52 31.3737C26.56 31.6938 26.4 30.7335 26.08 30.2534C25.76 29.7733 25.6 29.1331 24.8 29.6133C23.36 30.5735 21.76 31.2137 20.16 32.494C22.08 32.494 22.08 34.0944 22.88 34.8946C24.48 33.7743 26.08 32.654 27.52 31.5337C28.96 30.7335 30.56 30.0934 32 29.1331C33.12 28.493 32 27.8528 32 27.2126C32 26.7325 32 26.0924 30.88 26.4124C28.48 27.0526 27.52 28.3329 27.52 30.7335C27.52 31.0536 27.52 31.2137 27.52 31.5337V31.3737ZM142.24 20.651C140.96 19.5307 139.36 19.6907 137.92 19.2106C137.6 19.2106 137.12 19.0506 137.12 19.6907C137.12 21.6112 135.84 23.2116 135.04 24.812C135.2 24.812 135.36 25.1321 135.52 25.1321C136.96 25.6122 138.56 25.9323 140 26.4124C140.64 26.7325 141.12 26.8926 141.76 27.2126C145.6 28.653 145.6 28.653 147.04 24.812C147.36 24.0118 147.36 22.8915 148.48 22.8915C149.28 24.0118 148.32 24.9721 148.16 25.9323C148 27.0526 146.4 28.0128 147.2 28.9731C147.84 29.7733 149.28 29.9333 150.4 30.5735C151.2 30.8936 151.52 30.7335 151.84 29.9333C152.32 28.493 152.8 26.8926 153.44 25.4522C153.6 24.812 153.44 24.4919 152.96 24.3319C151.52 23.8518 150.24 22.8915 148.8 22.7315C147.04 21.7713 145.12 20.971 143.04 20.651C143.04 20.651 142.88 20.651 142.72 20.651H142.24ZM101.44 19.0506C103.68 19.0506 105.76 19.6907 108 19.5307C109.92 19.8508 111.84 20.0108 113.6 20.3309C114.72 20.4909 115.04 20.1708 114.88 19.0506C114.88 17.6102 114.88 16.1698 115.52 14.7295C114.56 14.7295 113.6 14.4094 112.64 14.2493C110.187 13.9292 108.64 14.9428 108 17.2901C108 17.6102 108 18.0903 107.84 18.4104C107.36 18.7305 106.88 19.8508 106.72 18.4104C106.72 16.97 106.72 15.5297 107.04 13.7692H101.28C98.72 13.4491 96.16 13.6092 93.6 13.7692C92 13.7692 90.2399 13.7692 88.6399 13.7692C87.3599 13.7692 85.6 13.4491 84.96 14.0893C84.16 14.8895 84.96 16.6499 84.96 17.9303C83.2 17.9303 83.68 16.4899 83.68 15.6897C83.36 14.0893 82.56 13.6092 81.12 13.9292C79.04 14.2493 77.1199 14.2493 75.0399 14.4094C71.5199 14.7295 71.52 14.8895 71.36 18.7305C72.8 18.7305 74.24 18.7305 75.68 18.7305C76.96 18.7305 77.44 18.4104 77.12 17.1301C77.12 16.3299 76.4799 15.0495 77.4399 15.0495C78.5599 15.0495 78.2399 16.3299 78.2399 17.1301C78.2399 18.2504 78.56 18.7305 79.68 18.5704C81.44 18.5704 83.2 18.5704 84.96 18.4104C87.68 18.4104 90.4 18.5704 92.96 18.7305C95.52 18.7305 98.24 19.0506 100.8 19.0506H101.44ZM37.92 23.3717C38.72 23.3717 39.52 23.3717 39.52 24.4919C39.52 25.7723 40.1599 25.9323 41.4399 25.4522C46.5599 23.5317 51.68 21.7713 57.28 20.4909C55.84 19.8508 56.96 17.6102 55.52 17.7702C53.92 17.7702 51.84 17.7702 51.2 20.0108C49.92 18.8905 41.76 20.971 37.92 23.3717C36.48 23.3717 35.2 24.1719 34.08 24.812C32.8 25.6122 33.92 26.5725 34.08 27.5327C34.24 28.493 35.04 27.6928 35.36 27.5327C36.48 27.2126 37.76 26.8926 38.4 26.2524C39.04 25.6122 37.6 24.652 37.92 23.6917C37.92 23.6917 37.92 23.5317 37.92 23.3717ZM136.48 18.8905C132.96 17.6102 129.28 16.81 125.44 16.1698C125.28 18.4104 124.8 20.3309 123.52 22.0913C126.56 22.8915 129.6 23.5317 132.48 24.3319C133.76 24.652 133.92 24.3319 134.24 23.2116C134.72 21.6112 134.72 19.8508 136.48 19.0506C136.48 19.0506 136.64 19.0506 136.8 19.0506H136.48V18.8905ZM165.6 260.392C165.387 262.313 166.24 263.273 168.16 263.273C168.8 263.273 169.44 263.273 170.08 263.273C171.36 263.273 171.84 262.793 171.84 261.353C172.32 221.822 172.8 182.292 173.44 142.762C173.92 111.394 174.08 80.1862 174.88 48.8182C174.88 47.6979 174.88 46.7376 173.6 46.2575C171.52 44.6571 169.44 43.2167 166.88 41.9364C166.88 42.5766 166.88 42.8966 166.88 43.3768C166.4 113.475 166.08 183.573 165.6 253.831C165.6 256.071 165.6 258.312 165.6 260.552V260.392ZM22.08 27.6928C22.88 27.3727 23.52 27.0526 24.32 26.5725C32.8 21.7712 41.76 18.0903 51.2 15.6897C61.92 12.809 72.96 11.5286 84 10.8885C98.08 10.0883 112 10.5684 125.92 13.129C141.92 16.0098 156.64 22.0913 170.72 30.0934C173.92 32.0139 177.28 33.7743 180.16 36.335C182.08 37.9354 183.84 39.5358 186.08 40.6561C189.28 42.2565 192.16 44.177 195.36 46.0975C195.36 45.1372 194.72 44.8171 194.4 44.337C190.88 39.8559 186.88 35.8549 182.72 32.0139C166.4 16.81 147.2 8.00773 125.12 4.96695C113.28 3.36654 101.44 3.04646 89.6 3.68663C75.04 4.48683 60.96 7.04749 47.2 12.1688C37.76 15.6897 29.44 20.971 21.76 27.3727C21.6 27.3727 21.44 27.5327 21.28 27.6928C21.6 27.8528 21.76 27.6928 22.08 27.6928ZM25.28 260.392C25.6 259.272 25.6 258.152 25.6 257.031C25.92 183.733 26.24 110.434 26.56 37.1352C26.56 36.6551 26.8799 36.1749 26.2399 35.6948C23.3599 37.7753 20.32 39.8559 17.6 42.2565C16.48 42.7366 16.16 43.3768 16.16 44.6571C16.16 47.2178 16.32 49.6184 16.32 52.179C16.96 112.835 17.76 173.49 18.4 234.306C18.4 242.628 18.3999 250.95 19.0399 259.272C19.0399 260.552 18.56 262.313 19.52 262.953C20.32 263.593 22.08 262.953 23.2 262.953C25.12 263.273 25.6 262.313 25.12 260.712L25.28 260.392ZM135.04 63.3819C135.573 64.9823 137.28 65.6758 140.16 65.4624C139.68 64.3421 139.04 63.3819 138.56 62.2616C137.6 60.1811 136.16 58.2606 135.84 55.86C136.96 55.2198 137.28 56.02 137.6 56.8202C138.72 59.0608 139.84 61.3014 140.96 63.5419C141.28 65.4624 142.4 65.9425 144.16 65.7825C146.24 65.7825 148.48 65.7825 150.72 65.7825C152.96 65.7825 152.96 65.7825 152.8 63.3819C152.96 57.7805 153.28 52.3391 153.6 46.7376C153.6 45.7774 153.28 45.6173 152.48 45.7774C150.08 45.7774 147.68 45.9374 145.28 45.9374C112.8 45.4573 80.16 44.9772 47.68 44.4971C44.64 44.4971 41.76 44.4971 38.72 44.4971C37.44 44.0169 37.12 44.6571 37.12 45.9374C37.12 50.7387 37.12 55.6999 37.28 60.5012C37.28 61.9415 36.4799 63.862 37.4399 64.6622C38.3999 65.6225 40.32 64.9823 41.92 64.9823C72.32 65.3024 102.72 64.9823 133.12 65.4624C133.44 65.4624 133.76 65.4624 133.92 65.1423C133.6 64.5022 133.12 63.862 132.8 63.0618C132.32 62.1016 131.36 61.1413 132 59.861C134.08 60.021 133.92 62.2616 134.88 63.3819H135.04ZM28.48 34.4145C28.48 48.018 28.48 61.6214 28.48 75.2249C28.48 79.2259 28.48 79.2259 32.32 79.2259C75.84 79.2259 119.2 80.5063 162.72 80.0261C164.48 80.0261 164.48 79.2259 164.32 77.9456C164.32 65.7825 164.64 53.6194 164.8 41.4563C164.8 40.8161 164.8 40.336 164 40.0159C163.2 39.5358 162.24 39.2157 161.44 38.7356C160.48 38.2555 160.16 38.4155 160.16 39.3757C160.16 40.6561 160.16 42.0964 160.16 43.3768C160.16 44.8171 159.68 45.6173 158.24 45.2973C157.92 45.2973 157.6 45.2973 157.28 45.2973C156 45.2973 155.52 45.2973 155.52 47.0577C155.52 52.8192 155.52 58.7407 155.2 64.5022C155.2 67.3829 154.88 67.543 152 67.543C147.52 67.543 142.88 67.543 138.4 67.543C104.8 67.3829 71.0399 67.0628 37.4399 66.9028C36.1599 66.9028 35.52 66.5827 35.52 64.9823C35.2 58.5807 35.0399 52.179 35.0399 45.7774C35.0399 45.1372 35.36 44.337 34.4 44.0169C32.48 43.3768 32.32 41.9364 32.48 40.176C32.48 38.5755 32.6399 37.1352 32.6399 35.5348C32.6399 34.0944 33.28 33.6143 34.72 33.7743C36.48 33.7743 38.24 33.7743 40.16 33.7743C76.8 33.9344 113.44 34.2544 150.08 34.5745C150.72 34.5745 151.36 34.5745 152 34.5745C151.52 33.9344 150.88 33.7743 150.4 33.4542C139.68 28.493 128.48 25.6122 116.96 23.5317C109.44 22.2514 101.76 21.7712 94.08 21.4512C81.76 20.971 69.5999 20.651 57.4399 23.2116C47.9999 25.2922 38.7199 28.1729 30.2399 32.8141C29.5999 33.1342 28.6399 33.2942 28.6399 34.2544L28.48 34.4145ZM191.2 277.677C191.36 277.677 191.68 277.677 191.84 277.517C191.84 273.196 191.84 268.714 191.84 264.393C191.84 244.388 191.84 224.223 192.16 204.218C192.48 179.252 192.48 154.445 192.64 129.479C192.64 112.674 192.64 96.0302 192.8 79.2259C192.8 72.6643 193.12 65.9425 193.28 59.3809C193.28 58.5807 193.12 58.2606 192.48 57.9405C188.8 55.6999 185.28 53.2993 181.44 51.3788C179.84 50.5786 178.4 49.2983 176.64 48.8182C176.64 49.2983 176.64 49.6184 176.64 49.9385C176.64 70.9038 176.64 92.0292 176.32 112.995C176 134.28 175.84 155.405 175.68 176.691C175.36 204.378 175.36 232.065 174.88 259.752C174.88 263.753 175.84 266.154 179.2 268.394C183.52 271.275 187.36 274.796 191.36 277.997L191.2 277.677ZM115.84 20.4909C116.64 20.651 117.44 20.811 118.24 20.971C121.44 21.5045 123.253 20.1708 123.68 16.97V16.6499C123.68 16.0098 123.68 15.6897 122.88 15.6897C121.28 15.5297 119.68 15.2096 117.92 14.8895C117.12 14.8895 116.8 14.8895 116.64 15.8497C116.64 17.4501 116 18.8905 115.52 20.4909H115.84ZM161.92 28.653C161.76 28.813 161.6 28.9731 161.44 29.2932C160.64 30.8936 159.84 32.654 159.2 34.2544C160.64 35.0546 161.92 35.6948 163.36 36.495C163.36 36.495 163.36 36.495 163.52 36.495C164.32 36.9751 164.64 36.8151 164.8 35.8548C164.96 34.4145 165.6 33.1342 166.24 32.0139C166.24 31.6938 166.88 31.2137 166.56 31.0536C165.12 30.2534 163.52 29.4532 161.92 28.653ZM160.32 28.3329C160.32 28.1195 159.627 27.6394 158.24 26.8926C155.2 25.4522 155.2 25.2922 154.24 28.493C153.92 29.6133 152.16 30.5735 153.28 31.6938C154.08 32.494 155.52 32.8141 156.8 33.2942C157.12 33.2942 157.6 33.6143 157.76 33.2942C158.56 31.6938 159.36 30.0934 160.16 28.493L160.32 28.3329ZM178.08 38.4155C177.6 39.8559 177.12 41.1362 176.64 42.4165C176.32 43.3768 176.64 44.177 177.44 44.8171C180.64 47.0577 180.64 47.2178 182.08 43.5368C182.4 42.8967 182.88 42.4165 182.08 41.6163C180.8 40.496 179.68 39.2157 178.08 38.2555V38.4155ZM166.56 36.335C166.56 37.9354 168 39.6958 169.44 39.8559C169.76 39.8559 170.08 39.8559 170.24 39.5358C170.88 38.0954 171.52 36.6551 172.16 35.2147C172.16 34.8946 172.16 34.5745 172 34.4145C170.72 33.7743 169.6 32.3339 168.32 32.654C167.36 32.8141 167.04 34.5745 166.72 35.6948C166.72 36.0149 166.72 36.495 166.72 36.495L166.56 36.335ZM174.56 42.8967C175.04 41.6163 175.36 40.336 175.84 39.0557C176.48 37.4553 175.52 35.8549 173.92 35.5348C173.6 35.5348 173.44 35.5348 173.28 35.6948C172.48 37.2952 171.36 39.0557 171.2 40.6561C171.2 41.4563 173.12 42.2565 174.24 42.8967C174.24 42.8967 174.24 42.8967 174.56 42.8967ZM16.32 40.0159C17.44 39.0557 18.56 38.2555 19.52 37.4553C20.8 36.495 21.92 35.6948 20.16 34.2544C19.68 33.9344 20.1599 33.1342 19.8399 32.494C19.1999 32.9741 18.72 33.2942 18.08 33.7743C16.0533 35.268 15.4667 37.3486 16.32 40.0159ZM66.72 19.2106C67.68 19.2106 68.4799 18.8905 69.4399 18.8905C70.2399 18.8905 70.4 18.4104 70.4 17.7702C70.4 14.8895 70.4 14.8895 67.68 15.2096C67.2 15.2096 66.88 15.3696 66.4 15.3696C64.16 15.3696 64.96 17.2901 64.96 18.4104C64.96 20.0108 66.24 18.7305 66.72 19.2106ZM57.76 20.4909C59.36 20.1708 60.96 20.0108 62.56 19.6907C64.48 19.2106 63.2 17.7702 63.36 16.6499C63.36 15.5297 62.4 16.3299 61.92 16.3299C59.68 16.6499 57.12 16.81 57.76 20.4909ZM9.27998 42.8967C8.31998 44.177 7.36 45.6173 6.4 46.8977C5.92 47.5378 6.08002 47.8579 6.72002 48.178C7.20002 48.4981 7.67996 48.8182 8.15996 48.178C8.63996 47.5378 9.12 46.8977 9.6 46.4176C11.04 45.2973 11.1999 44.177 9.43994 42.8967H9.27998ZM12.32 43.0567C12.48 43.0567 12.64 43.2167 12.8 43.3768C13.28 42.7366 13.92 42.0964 14.4 41.4563C15.2 40.176 14.4 39.2157 13.6 38.4155C12.8 37.9354 12.64 39.0557 12.16 39.3757C10.4 40.8161 12.32 41.7764 12.48 42.8967L12.32 43.0567Z" fill="#04090A"/>
<path d="M29.2798 260.393C29.2798 241.028 29.2798 221.663 29.2798 202.298C29.2798 162.768 28.9598 123.398 28.7998 83.8676C28.7998 82.2672 29.1198 81.7871 30.7198 81.9471C34.2398 82.1071 37.9197 81.9471 41.4397 82.1071C43.0397 84.8278 45.2797 86.7483 47.8397 88.3487C48.9597 88.9889 48.7998 87.8686 48.9598 87.3885C49.7598 87.3885 49.9197 88.3487 51.0397 88.5088C50.0797 86.1082 48.1598 84.5077 46.8798 82.4272C48.1598 82.2672 49.2798 82.2672 50.3998 82.4272C50.5598 83.8676 51.8397 84.5077 52.6397 85.468C56.6397 89.9491 60.3197 94.7504 64.6397 99.0715C65.2797 99.7116 65.7598 100.672 66.8798 100.512C67.5198 100.832 67.5197 101.792 68.6397 102.112C65.5997 94.7504 60.7997 88.6688 55.8397 82.9073C56.1597 82.4272 56.4798 82.5873 56.9598 82.5873C77.9198 82.5873 98.7198 82.5873 119.68 82.7473C120.16 82.7473 120.64 82.7473 120.96 82.7473C122.88 85.9481 125.6 88.1887 128.48 90.1092C129.28 90.5893 129.76 90.5893 129.44 89.469C130.08 89.469 130.24 90.4293 131.2 90.2692C130.08 87.3885 127.68 85.628 125.92 82.9073C127.2 82.7473 128.32 82.7473 129.44 82.9073C132.16 86.7483 135.52 89.9491 139.2 92.8299C139.68 93.15 140.16 93.6301 140.64 93.15C140.96 93.15 141.44 93.47 141.28 93.15C141.28 92.6698 140.96 91.7096 140 92.0297C140.64 91.7096 140 91.2295 140 91.0694C139.84 90.7493 139.52 91.0694 139.36 91.2295C140 90.2692 139.04 90.1092 138.56 89.6291C136.96 87.5485 135.2 85.468 133.6 83.3875C134.56 82.9073 135.2 83.0674 136 83.0674C144.96 83.0674 153.92 83.2274 163.04 83.5475C164.64 83.5475 164.16 84.6678 164.16 85.308C164.16 99.7116 163.84 114.115 163.68 128.679C163.36 161.808 163.04 194.936 162.72 228.064C162.72 238.947 162.4 249.83 162.24 260.873C156.16 260.873 150.08 260.873 144 260.873C140.16 255.912 136.16 251.11 132 246.309C131.36 245.669 130.72 244.389 129.76 246.149C128.8 247.269 129.44 248.23 129.92 249.19C131.52 252.231 133.92 254.631 136 257.352C136.8 258.472 138.08 259.432 138.56 261.033H132.48C130.24 258.632 128.16 256.232 125.92 253.831C125.44 253.191 124.8 252.391 123.84 253.191C122.24 253.351 122.88 254.471 123.36 255.111C124.64 257.032 125.92 258.792 127.52 261.033H29.1198L29.2798 260.393ZM145.28 169.169C145.12 169.169 144.96 169.169 144.8 169.169C144.64 149.324 144.32 129.479 144.16 109.634C144.16 105.473 144.16 105.473 139.84 105.473C109.28 105.953 78.5598 106.433 47.9998 107.074C45.2798 107.074 45.1197 107.234 45.4397 109.794C45.4397 110.594 45.4397 111.395 45.4397 112.355C45.4397 119.397 45.4397 126.599 45.4397 133.64C45.4397 165.648 45.1198 197.657 44.9598 229.665C44.9598 233.026 45.2798 233.346 48.4798 233.186C78.8798 233.186 109.44 232.866 139.84 232.706C140.8 232.706 141.6 232.706 142.56 232.706C145.28 232.386 145.44 232.066 145.28 229.505C145.28 228.545 145.28 227.744 145.28 226.784C145.28 207.579 145.28 188.374 145.28 169.329V169.169ZM94.3998 104.193C99.8398 104.193 103.84 100.352 103.84 95.0704C103.84 90.1092 99.1998 85.308 94.3998 85.468C87.9998 85.628 85.5998 89.6291 85.2798 95.7106C84.9598 100.352 89.2798 104.193 94.3998 104.193Z" fill="#1AC9FD"/>
<path d="M191.2 277.677C187.2 274.476 183.36 270.955 179.04 268.074C175.68 265.834 174.72 263.433 174.72 259.432C175.2 231.745 175.2 204.058 175.52 176.371C175.68 155.085 176 133.96 176.16 112.674C176.48 91.7091 176.64 70.5837 176.48 49.6183C176.48 49.2983 176.48 48.9782 176.48 48.498C178.24 48.9782 179.68 50.2585 181.28 51.0587C185.12 52.9792 188.64 55.3798 192.32 57.6204C192.96 57.9405 193.12 58.2605 193.12 59.0607C192.96 65.6224 192.64 72.3441 192.64 78.9058C192.64 95.7101 192.64 112.354 192.48 129.159C192.48 154.125 192.48 178.931 192 203.898C191.84 223.903 191.84 244.068 191.68 264.073C191.68 268.394 191.68 272.875 191.68 277.197C191.52 277.197 191.2 277.197 191.04 277.357L191.2 277.677Z" fill="#0096C2"/>
<path d="M28.48 34.4141C28.48 33.4538 29.44 33.2938 30.08 32.9737C38.72 28.3325 47.84 25.4518 57.28 23.3712C69.28 20.6505 81.6 20.9706 93.92 21.6108C101.6 21.9309 109.28 22.411 116.8 23.6913C128.32 25.7719 139.52 28.8126 150.24 33.6139C150.88 33.9339 151.36 34.094 151.84 34.7341C151.2 34.7341 150.56 34.7341 149.92 34.7341C113.28 34.4141 76.64 34.254 40 33.9339C38.24 33.9339 36.48 33.9339 34.56 33.9339C33.12 33.9339 32.48 34.4141 32.48 35.6944C32.48 37.2948 32.48 38.7352 32.32 40.3356C32.16 42.096 32.3199 43.5364 34.2399 44.1766C35.1999 44.4966 34.88 45.2968 34.88 45.937C34.88 52.3386 35.04 58.7403 35.36 65.1419C35.36 66.5823 36 66.9024 37.28 67.0624C70.88 67.2224 104.64 67.5425 138.24 67.7026C142.72 67.7026 147.36 67.7026 151.84 67.7026C154.72 67.7026 154.88 67.7026 155.04 64.6618C155.2 58.9003 155.36 52.9788 155.36 47.2173C155.36 45.6169 155.84 45.2968 157.12 45.4569C157.44 45.4569 157.76 45.4569 158.08 45.4569C159.68 45.777 160.16 44.9768 160 43.5364C160 42.2561 160 40.8157 160 39.5354C160 38.4151 160.32 38.255 161.28 38.8952C162.08 39.3753 162.88 39.8555 163.84 40.1755C164.48 40.4956 164.64 40.9757 164.64 41.6159C164.48 53.779 164.32 65.9421 164.16 77.9452C163.2 77.4651 162.24 77.6251 161.28 77.6251C148.96 77.6251 136.8 77.6251 124.48 77.6251C94.08 77.305 63.68 76.9849 33.28 76.8249C30.56 76.8249 30.56 76.8249 30.4 73.9442C30.24 63.3815 30.08 52.8188 29.92 42.2561C29.92 40.0155 29.76 37.935 29.6 35.6944C29.6 34.5741 29.12 34.094 28 34.4141H28.48Z" fill="#1AC9FC"/>
<path d="M38.7197 44.3369C41.7597 44.3369 44.6397 44.3369 47.6797 44.3369C80.1597 44.817 112.8 45.2972 145.28 45.7773C147.68 45.7773 150.08 45.7773 152.48 45.6172C153.28 45.6172 153.6 45.6172 153.6 46.5775C153.28 52.1789 153.12 57.6203 152.8 63.2217C148.8 63.2217 144.96 63.2217 140.96 63.2217C139.84 60.9812 138.72 58.7406 137.6 56.5C137.28 55.8599 136.96 54.8996 135.84 55.5398C135.2 55.0597 135.2 53.6193 134.08 54.2594C133.12 54.7396 133.76 55.6998 134.08 56.5C134.88 58.7406 135.68 60.9812 136.96 63.0617C136.16 63.0617 135.52 63.0617 135.04 63.0617C134.08 61.9414 134.4 59.7008 132.16 59.5408C131.84 58.9006 131.52 58.1004 131.04 57.4603C130.72 56.9801 130.24 56.1799 129.6 56.6601C128.8 56.9801 128.96 57.7803 129.28 58.5806C129.6 59.5408 130.08 60.501 130.56 61.3012C131.2 62.5816 130.88 63.0617 129.44 63.0617C99.9996 63.0617 70.3997 63.0617 40.9597 63.0617C39.6797 63.0617 39.3597 62.5816 39.3597 61.4613C38.8797 56.5 39.1996 51.6988 39.0396 46.7375C39.0396 45.9373 39.0397 45.1371 38.7197 44.3369Z" fill="#58D7FD"/>
<path d="M17.5995 42.0968C20.3195 39.6962 23.1995 37.6157 26.2395 35.5352C26.8795 36.0153 26.5595 36.4954 26.5595 36.9755C26.2395 110.274 25.9195 183.573 25.5995 256.872C25.5995 257.992 25.5995 259.112 25.2795 260.233C24.9595 260.233 24.4795 260.233 24.1595 260.233C22.3995 260.553 21.7595 259.752 21.7595 257.992C21.7595 253.831 21.7595 249.51 21.5995 245.349C21.2795 229.025 21.1195 212.7 20.7995 196.376C20.7995 189.174 20.7995 182.133 20.4795 174.931C20.1595 165.808 20.3195 156.846 19.9995 147.724C19.6795 135.401 19.5195 122.917 19.1995 110.594C18.8795 98.5913 18.5595 86.4282 18.3995 74.4251C18.2395 65.4628 18.0795 56.5005 17.9195 47.5382C17.9195 45.6177 17.5995 43.8573 17.4395 41.9368L17.5995 42.0968Z" fill="#58D6FB"/>
<path d="M21.7598 27.3728C29.4398 20.9712 37.7598 15.6899 47.1998 12.169C60.7998 7.04765 75.0398 4.48699 89.5998 3.68679C101.44 3.04662 113.28 3.20666 125.12 4.96711C147.04 8.00789 166.4 16.8101 182.72 32.014C186.88 35.855 190.88 40.0161 194.4 44.3372C194.72 44.8173 195.36 45.1374 195.36 46.0976C192.16 44.1771 189.28 42.2566 186.08 40.6562C183.84 39.536 182.08 37.9356 180.16 36.3351C177.28 33.9345 174.08 32.014 170.72 30.0935C156.64 22.0915 141.92 16.0099 125.92 13.1292C112 10.5685 98.0798 10.0884 83.9998 10.8886C72.9598 11.5288 61.9198 12.9692 51.1998 15.6899C41.7598 18.0905 32.7998 21.7714 24.3198 26.5726C23.6798 27.0528 22.8798 27.3728 22.0798 27.6929C22.0798 27.6929 21.9198 27.5329 21.7598 27.3728Z" fill="#0094C0"/>
<path d="M165.6 260.392C165.6 258.152 165.6 255.911 165.6 253.671C166.08 183.573 166.4 113.475 166.88 43.2167C166.88 42.8967 166.88 42.4165 166.88 41.7764C169.28 43.0567 171.52 44.4971 173.6 46.0975C172.8 46.5776 172.64 47.2178 172.64 48.018C172.64 50.0985 172.32 52.019 172.32 54.0995C172.16 61.3014 172.32 68.6632 172 75.8651C171.68 84.6673 172 93.3095 171.68 102.112C171.36 111.074 171.68 120.196 171.36 129.159C171.04 137.161 171.36 145.323 171.04 153.325C170.72 166.928 170.72 180.372 170.56 193.975C170.56 199.257 170.56 204.378 170.4 209.659C169.92 225.343 169.76 240.867 169.44 256.551C169.44 260.072 169.44 260.072 165.92 260.072L165.6 260.392Z" fill="#58D6FB"/>
<path d="M17.6005 42.0966C17.6005 44.0171 18.0805 45.7775 18.0805 47.698C18.2405 56.6603 18.4004 65.6226 18.5604 74.5849C18.8804 86.5879 19.0404 98.7511 19.3604 110.754C19.6804 123.077 19.8404 135.56 20.1604 147.884C20.3204 157.006 20.1604 165.968 20.6404 175.091C20.9604 182.292 20.8004 189.334 20.9604 196.536C21.2804 212.86 21.4404 229.184 21.7604 245.509C21.7604 249.67 22.0805 253.991 21.9205 258.152C21.9205 260.072 22.4005 260.712 24.3205 260.392C24.6405 260.392 25.1204 260.392 25.4404 260.392C25.7604 261.993 25.4405 262.953 23.5205 262.633C22.2405 262.633 20.6404 263.113 19.8404 262.633C18.8804 261.993 19.3604 260.232 19.3604 258.952C18.8804 250.63 18.8805 242.308 18.7205 233.986C17.9205 173.33 17.2804 112.675 16.6404 51.8591C16.6404 49.2984 16.6405 46.8978 16.4805 44.3371C16.4805 43.2169 16.8005 42.4166 17.9205 41.9365L17.6005 42.0966Z" fill="#F6F9FA"/>
<path d="M165.6 260.393C169.12 260.393 168.96 260.393 169.12 256.872C169.44 241.188 169.6 225.504 170.08 209.98C170.08 204.698 170.24 199.577 170.24 194.296C170.4 180.692 170.4 167.249 170.72 153.645C170.88 145.643 170.72 137.481 171.04 129.479C171.36 120.517 171.04 111.395 171.36 102.432C171.68 93.63 171.36 84.9878 171.68 76.1856C172 68.9837 171.68 61.6219 172 54.42C172 52.3395 172.16 50.419 172.32 48.3385C172.32 47.5383 172.48 46.8981 173.28 46.418C174.56 46.8981 174.72 47.8583 174.56 48.9786C173.76 80.3466 173.6 111.555 173.12 142.923C172.48 182.453 172 221.983 171.52 261.513C171.52 262.953 171.04 263.433 169.76 263.433C169.12 263.433 168.48 263.433 167.84 263.433C165.92 263.433 165.067 262.473 165.28 260.553L165.6 260.393Z" fill="#F3F9FA"/>
<path d="M28.4805 34.4143C29.6005 34.0942 29.9205 34.7344 30.0805 35.6946C30.0805 37.9352 30.4005 40.0157 30.4005 42.2563C30.5605 52.819 30.7205 63.3817 30.8805 73.9444C30.8805 76.8252 30.8804 76.6651 33.7604 76.8252C64.1604 77.1452 94.5604 77.3053 124.96 77.6254C137.28 77.6254 149.44 77.9454 161.76 77.6254C162.72 77.6254 163.68 77.6254 164.64 77.9454C164.8 79.2258 164.96 79.8659 163.04 80.026C119.52 80.5061 76.1604 79.2258 32.6404 79.2258C28.8004 79.2258 28.8005 79.2258 28.8005 75.2247C28.8005 61.6213 28.8005 48.0178 28.8005 34.4143H28.4805Z" fill="#F2F7F8"/>
<path d="M29.28 260.393H127.68C126.08 258.152 124.8 256.392 123.52 254.471C123.04 253.831 122.4 252.711 124 252.551C124 253.831 125.12 254.631 125.76 255.592C127.84 258.152 129.92 260.553 132.16 262.953C131.52 263.434 131.04 263.274 130.4 263.274C108.96 263.274 87.3601 262.953 65.9201 262.793C54.2401 262.793 42.56 262.473 30.88 262.473C28.96 262.473 28.6401 261.833 29.1201 260.233L29.28 260.393Z" fill="#F2F7F8"/>
<path d="M38.7195 44.337C39.1995 45.1372 39.0394 45.9374 39.0394 46.7376C39.0394 51.6989 39.0394 56.5001 39.3594 61.4614C39.3594 62.5817 39.6794 63.0618 40.9594 63.0618C70.3994 63.0618 99.9994 63.0618 129.439 63.0618C130.879 63.0618 131.359 62.7417 130.559 61.3014C130.079 60.3411 129.599 59.5409 129.279 58.5807C128.959 57.9405 128.799 57.1403 129.599 56.6602C130.399 56.3401 130.719 56.9803 131.039 57.4604C131.519 58.1005 131.839 58.7407 132.159 59.5409C131.519 60.8212 132.479 61.6215 132.959 62.7417C133.279 63.5419 133.759 64.1821 134.079 64.8223C133.919 65.3024 133.439 65.1424 133.279 65.1424C102.879 64.6622 72.4795 65.1423 42.0795 64.6622C40.4795 64.6622 38.7195 65.1424 37.5995 64.3421C36.6395 63.5419 37.4394 61.6214 37.4394 60.1811C37.4394 55.3799 37.4395 50.4186 37.2795 45.6174C37.2795 44.337 37.4395 43.6969 38.8795 44.177L38.7195 44.337Z" fill="#F2F7F8"/>
<path d="M136.479 19.0507C134.719 20.0109 134.719 21.7714 134.239 23.2117C133.919 24.332 133.599 24.6521 132.479 24.332C129.599 23.5318 126.56 22.8916 123.52 22.0914C124.8 20.491 125.279 18.4105 125.439 16.1699C129.279 16.8101 132.959 17.6103 136.479 18.8906V19.0507Z" fill="#F6F9FA"/>
<path d="M38.0801 23.3719C41.9201 20.9713 50.0801 18.8908 51.3601 20.0111C52.0001 17.7705 54.0801 17.9305 55.6801 17.7705C57.1201 17.7705 56.16 19.851 57.44 20.4912C51.84 21.6115 46.7201 23.532 41.6001 25.4525C40.3201 25.9326 39.8401 25.7726 39.6801 24.4922C39.6801 23.3719 38.8801 23.3719 38.0801 23.3719Z" fill="#19C3F5"/>
<path d="M132.64 260.393H138.72C138.08 258.792 136.96 257.832 136.16 256.712C134.08 253.991 131.68 251.59 130.08 248.55C129.6 247.589 128.96 246.629 129.92 245.509C133.92 250.79 137.92 255.911 142.08 261.193C142.56 261.833 142.88 262.313 143.52 263.113C140.64 263.113 138.24 263.113 135.68 263.113C134.08 263.113 133.6 261.193 132.64 260.233V260.393Z" fill="#F2F7F8"/>
<path d="M144.16 260.392C150.24 260.392 156.32 260.392 162.4 260.392C162.4 260.873 162.4 261.353 162.4 261.833C162.56 263.113 161.92 263.273 160.96 263.273C157.12 263.273 153.28 263.113 149.44 263.273C146.72 263.433 145.12 262.473 144.16 260.232V260.392Z" fill="#F3F9FA"/>
<path d="M85.4398 18.2507C83.6798 18.2507 81.9199 18.2507 80.1599 18.4107C78.8799 18.4107 78.7199 18.0906 78.7199 16.9704C78.7199 16.1702 79.0399 14.7298 77.9199 14.8898C76.9599 14.8898 77.4399 16.3302 77.5999 16.9704C77.7599 18.2507 77.4399 18.7308 76.1599 18.5708C74.7199 18.5708 73.2798 18.5708 71.8398 18.5708C71.9998 14.7298 71.9999 14.7298 75.5199 14.2497C77.5999 14.0896 79.6799 13.9296 81.5999 13.7695C83.1999 13.6095 83.8399 13.7695 84.1599 15.53C84.1599 16.3302 83.8398 17.7706 85.4398 17.7706C85.4398 17.7706 85.4398 18.0906 85.4398 18.2507Z" fill="#19C3F5"/>
<path d="M66.7203 100.351C65.6003 100.511 65.1203 99.551 64.4803 98.9109C60.1603 94.5898 56.4803 89.7885 52.4803 85.3074C51.6803 84.3471 50.4002 83.707 50.2402 82.2666C51.8402 81.7865 52.8003 82.2666 53.9203 83.5469C58.5603 88.9883 62.7203 94.5898 66.7203 100.351Z" fill="#F2F7F8"/>
<path d="M115.84 20.4905C116.32 18.8901 116.8 17.4497 116.96 15.8493C116.96 14.889 117.44 14.729 118.24 14.889C119.84 15.2091 121.44 15.3692 123.2 15.6892C123.84 15.6892 124 16.1694 124 16.6495V16.9696C123.573 20.1704 121.76 21.5041 118.56 20.9706C117.76 20.9706 116.96 20.6505 116.16 20.4905H115.84Z" fill="#F6F9FA"/>
<path d="M85.4403 18.2505C85.4403 18.2505 85.4403 17.9304 85.4403 17.7704C85.4403 16.4901 84.4803 14.7296 85.4403 13.9294C86.0803 13.2892 87.8404 13.6093 89.1204 13.6093C90.7204 13.6093 92.4804 13.6093 94.0804 13.6093C93.4404 15.0497 93.7604 16.4901 93.9204 17.7704C93.9204 18.0905 93.9204 18.4105 93.9204 18.7306C91.2004 18.7306 88.4804 18.5706 85.9204 18.4105L85.4403 18.2505Z" fill="#1AC9FC"/>
<path d="M108 18.4101C108 18.09 108 17.6099 108.16 17.2898C108.8 14.9425 110.347 13.9289 112.8 14.249C113.76 14.249 114.72 14.5691 115.68 14.7291C115.2 16.1695 114.88 17.6099 115.04 19.0502C115.04 20.1705 114.88 20.4906 113.76 20.3306C111.84 20.0105 110.08 19.8505 108.16 19.5304C108.16 19.2103 108.16 18.7302 108.16 18.4101H108Z" fill="#19C3F5"/>
<path d="M161.92 28.6533C163.52 29.4535 165.12 30.2537 166.56 31.0539C167.04 31.374 166.56 31.6941 166.24 32.0142C165.6 33.2945 164.96 34.4148 164.8 35.8552C164.8 36.8154 164.16 36.9755 163.52 36.4953C163.52 36.4953 163.52 36.4953 163.36 36.4953C161.92 35.6951 160.64 35.055 159.2 34.2548C160 32.6543 160.8 30.8939 161.44 29.2935C161.44 29.1334 161.76 28.9734 161.92 28.6533Z" fill="#19C3F5"/>
<path d="M160.32 28.3326C159.52 29.933 158.72 31.5334 157.92 33.1338C157.76 33.614 157.28 33.4539 156.96 33.1338C155.84 32.6537 154.4 32.4937 153.44 31.5334C152.16 30.4131 154.08 29.4529 154.4 28.3326C155.36 25.1318 155.52 25.2918 158.4 26.7322C159.787 27.3724 160.48 27.8525 160.48 28.1726L160.32 28.3326Z" fill="#19C3F5"/>
<path d="M142.56 20.6513C144.64 20.9713 146.56 21.6115 148.32 22.7318C147.04 22.7318 147.04 24.0121 146.88 24.6523C145.44 28.4933 145.6 28.4933 141.6 27.0529C140.96 26.8928 140.48 26.5728 139.84 26.2527C139.84 26.0926 140 25.7726 140.16 25.6125C142.08 24.4922 143.04 22.2517 142.4 20.4912L142.56 20.6513Z" fill="#F6F9FA"/>
<path d="M93.5996 18.5704C93.5996 18.2503 93.5996 17.9302 93.5996 17.6101C95.0396 18.4103 94.7196 16.9699 94.8796 16.4898C94.8796 15.3695 95.9996 13.9292 93.9196 13.449C96.4796 13.129 99.0396 13.129 101.6 13.449C101.6 13.6091 101.6 13.7691 101.6 13.9292C101.12 13.9292 100.64 13.9292 100.64 14.4093C100.64 15.5296 100.32 16.8099 101.28 17.7701C101.28 18.0902 101.44 18.4103 101.6 18.7304C99.0396 18.7304 96.3196 18.4103 93.7596 18.4103L93.5996 18.5704Z" fill="#19C3F5"/>
<path d="M148.48 22.8916C150.08 22.8916 151.36 24.0119 152.64 24.492C153.28 24.6521 153.44 24.9721 153.12 25.6123C152.64 27.0527 152.16 28.6531 151.52 30.0934C151.2 30.8936 150.88 31.0537 150.08 30.7336C148.96 30.2535 147.52 30.0934 146.88 29.1332C146.24 28.173 147.68 27.2127 147.84 26.0924C147.84 25.1322 148.96 24.1719 148.16 23.0516L148.48 22.8916Z" fill="#19C3F5"/>
<path d="M101.44 19.0509C101.44 18.7308 101.28 18.4107 101.12 18.0906C101.92 16.8103 101.6 15.53 101.44 14.2497C101.44 14.0896 101.44 13.9296 101.44 13.7695C103.2 13.7695 105.12 13.7695 107.2 13.7695C106.88 15.53 106.72 16.9704 106.88 18.4107C106.88 19.8511 107.52 18.8908 108 18.4107C108 18.7308 108 19.2109 108 19.531C105.76 19.691 103.68 19.0509 101.44 19.0509Z" fill="#F6F9FA"/>
<path d="M178.08 38.416C179.52 39.3763 180.8 40.6566 182.08 41.7769C182.88 42.417 182.4 43.0572 182.08 43.6974C180.64 47.3783 180.64 47.2183 177.44 44.9777C176.48 44.3375 176.32 43.5373 176.64 42.5771C177.12 41.2967 177.6 40.0164 178.08 38.5761V38.416Z" fill="#19C3F5"/>
<path d="M140.32 25.6125C140.32 25.7725 140.16 26.0926 140 26.2527C138.56 25.7725 136.96 25.4525 135.52 24.9723C135.36 24.9723 135.2 24.8123 135.04 24.6523C136 23.0518 137.12 21.4514 137.12 19.5309C137.12 18.8908 137.6 18.8908 137.92 19.0508C139.36 19.5309 141.12 19.5309 142.24 20.4912C140.96 21.9316 140.16 23.532 140.32 25.6125Z" fill="#19C3F5"/>
<path d="M166.56 36.335C166.56 36.335 166.56 35.8549 166.56 35.5348C166.88 34.4145 167.2 32.6541 168.16 32.494C169.44 32.174 170.56 33.6143 171.84 34.2545C172.16 34.4145 172.16 34.7346 172 35.0547C171.36 36.4951 170.72 37.9354 170.08 39.3758C170.08 39.6959 169.76 39.8559 169.28 39.6959C167.84 39.5358 166.4 37.7754 166.4 36.175L166.56 36.335Z" fill="#19C3F5"/>
<path d="M135.04 63.3818C135.68 63.3818 136.32 63.3818 136.96 63.3818C135.68 61.3013 134.88 59.0607 134.08 56.8201C133.76 56.0199 133.12 55.0597 134.08 54.5796C135.2 54.0994 135.2 55.3798 135.84 55.8599C136.16 58.2605 137.6 60.181 138.56 62.2615C139.04 63.3818 139.68 64.342 140.16 65.4623C137.174 65.6757 135.467 64.9822 135.04 63.3818Z" fill="#F2F7F8"/>
<path d="M141.12 63.2217C145.12 63.2217 148.96 63.2217 152.96 63.2217C153.12 65.6223 153.12 65.6223 150.88 65.6223C148.64 65.6223 146.56 65.3022 144.32 65.6223C142.56 65.6223 141.44 65.3022 141.12 63.3817V63.2217Z" fill="#F3F9FA"/>
<path d="M140.8 92.9892C140.16 93.4693 139.68 92.9892 139.36 92.6691C135.68 89.7883 132.32 86.5875 129.6 82.7465C130.88 82.4265 132 82.7465 132.96 83.8668C134.88 86.1074 136.96 88.1879 138.88 90.4285C139.04 90.7486 139.04 91.2287 139.52 90.7486C139.52 91.3888 139.52 91.7088 140.32 91.5488C140 92.189 140.8 92.349 140.96 92.8291L140.8 92.9892Z" fill="#F2F7F8"/>
<path d="M174.56 42.8967C174.56 42.8967 174.4 42.8967 174.24 42.8967C173.12 42.2565 171.04 41.6164 171.2 40.6561C171.2 38.8957 172.48 37.2953 173.28 35.6949C173.28 35.3748 173.6 35.3748 173.92 35.5348C175.68 35.8549 176.48 37.4553 175.84 39.0557C175.36 40.336 175.04 41.6164 174.56 42.8967Z" fill="#19C3F5"/>
<path d="M16.3197 40.0161C15.4664 37.4554 16.053 35.3749 18.0797 33.7745C18.5597 33.2943 19.1996 32.9743 19.8396 32.4941C19.9996 33.1343 19.8396 33.7745 20.1596 34.2546C21.9196 35.695 20.7997 36.4952 19.5197 37.4554C18.3997 38.2556 17.4397 39.0558 16.3197 40.0161Z" fill="#19C3F5"/>
<path d="M66.7202 19.2104C66.2402 18.7303 64.8002 20.0106 64.9602 18.4102C64.9602 17.2899 64.1602 15.5295 66.4002 15.3694C66.8802 15.3694 67.2002 15.3694 67.6802 15.2094C70.5602 14.8893 70.4002 14.8893 70.4002 17.77C70.4002 18.4102 70.2401 18.8903 69.4401 18.8903C68.4801 18.8903 67.6802 19.0504 66.7202 19.2104Z" fill="#19C3F5"/>
<path d="M129.28 89.3081C129.6 90.4284 129.12 90.4284 128.32 89.9483C125.28 88.0278 122.56 85.7872 120.8 82.5864C122.08 82.2663 123.04 82.5864 124 83.7067C125.76 85.6272 127.52 87.3876 129.44 89.3081H129.28Z" fill="#F2F7F8"/>
<path d="M57.7598 20.4907C56.9598 16.8097 59.5198 16.6497 61.9198 16.3296C62.3998 16.3296 63.3598 15.5294 63.3598 16.6497C63.3598 17.6099 64.4798 19.2104 62.5598 19.6905C60.9598 20.1706 59.3598 20.3306 57.7598 20.4907Z" fill="#19C3F5"/>
<path d="M48.8003 87.388C48.8003 88.0281 48.8003 89.1484 47.6803 88.3482C45.1203 86.7478 42.7203 84.8273 41.2803 82.1066C44.3203 81.3064 45.2802 83.8671 47.0402 85.3074C47.0402 85.7875 47.2003 85.9476 47.6803 86.1076C47.6803 86.4277 47.6803 86.5878 48.0003 86.5878C48.0003 86.9078 48.0003 87.0679 48.3203 87.0679C48.3203 87.388 48.3202 87.548 48.6402 87.548L48.8003 87.388Z" fill="#F2F7F8"/>
<path d="M27.6803 31.3734C26.0803 32.4936 24.6402 33.6139 23.0402 34.7342C22.0802 33.934 22.2403 32.1736 20.3203 32.3336C21.9203 31.0533 23.5203 30.2531 24.9603 29.4529C25.7603 28.9727 25.9202 29.4529 26.2402 30.093C26.5602 30.7332 26.7203 31.5334 27.6803 31.2133V31.3734Z" fill="#19C3F5"/>
<path d="M27.5195 31.3742C27.5195 31.0541 27.5195 30.8941 27.5195 30.574C27.5195 28.1734 28.6395 27.0531 30.8795 26.2529C31.8395 25.9328 31.8395 26.733 31.9995 27.0531C32.1595 27.6932 33.2795 28.3334 31.9995 28.9736C30.5595 29.7738 28.9595 30.574 27.5195 31.3742Z" fill="#19C3F5"/>
<path d="M37.9198 23.3721V23.6922C37.5998 24.6524 39.0398 25.6126 38.3998 26.2528C37.5998 27.053 36.3198 27.2131 35.3598 27.5331C34.8798 27.5331 34.2398 28.4934 34.0798 27.5331C33.9198 26.7329 32.7998 25.6126 34.0798 24.8124C35.1998 24.1723 36.4798 23.3721 37.9198 23.3721Z" fill="#19C3F5"/>
<path d="M8.95979 38.7352C7.51979 41.2959 5.91981 43.6965 4.47981 46.2572C3.99981 47.0574 3.67983 46.8973 3.19983 46.2572C2.71983 45.777 1.91985 45.457 2.71985 44.6567C4.63985 42.4162 6.39983 40.1756 8.79983 38.5752L8.95979 38.7352Z" fill="#0094C0"/>
<path d="M9.27952 42.8965C11.1995 44.1768 10.8795 45.2971 9.43948 46.4174C8.79948 46.8975 8.31954 47.5377 7.99954 48.1778C7.51954 48.818 7.1995 48.658 6.5595 48.1778C5.9195 47.6977 5.91948 47.3776 6.23948 46.8975C7.19948 45.6172 8.15956 44.1768 9.11956 42.8965H9.27952Z" fill="#19C3F5"/>
<path d="M12.3201 43.0571C12.3201 41.9368 10.24 40.8165 12.0001 39.5362C12.4801 39.2161 12.8 38.0958 13.44 38.5759C14.4 39.2161 15.04 40.3364 14.24 41.6167C13.76 42.2569 13.28 42.897 12.64 43.5372C12.48 43.5372 12.32 43.3772 12.16 43.2171L12.3201 43.0571Z" fill="#19C3F5"/>
<path d="M140.32 25.6125C140.32 23.692 140.96 21.9316 142.24 20.4912C142.24 20.4912 142.4 20.4912 142.56 20.4912C143.2 22.2517 142.24 24.3322 140.32 25.6125Z" fill="#081112"/>
<path d="M139.52 90.7488C139.04 91.0689 139.04 90.7488 138.88 90.4287C139.2 90.4287 139.52 90.4287 139.84 90.7488H139.52Z" fill="#081112"/>
<path d="M22.0803 27.6931C21.7603 27.6931 21.6003 27.8532 21.2803 27.6931C21.4403 27.6931 21.6003 27.5331 21.7603 27.373C21.7603 27.373 21.9203 27.5331 22.0803 27.6931Z" fill="#0094C0"/>
<path d="M47.6801 86.1078C47.2001 86.1078 47.04 85.7877 47.04 85.3076C47.36 85.4677 47.8401 85.6277 47.6801 86.1078Z" fill="#1AC9FD"/>
<path d="M8.7998 38.5759C8.7998 38.5759 8.79982 38.2559 9.11982 38.4159C9.11982 38.4159 9.11977 38.736 8.95977 38.736L8.7998 38.5759Z" fill="#0094C0"/>
<path d="M48 86.5875C47.68 86.5875 47.52 86.4275 47.68 86.1074C48 86.1074 48.16 86.1074 48 86.5875Z" fill="#1AC9FD"/>
<path d="M48.3203 86.9079C48.0003 86.9079 47.8403 86.9079 48.0003 86.4277C48.3203 86.4277 48.4803 86.4277 48.3203 86.9079Z" fill="#1AC9FD"/>
<path d="M48.7998 87.3883C48.4798 87.3883 48.3198 87.3883 48.4798 86.9082C48.7998 86.9082 48.9598 86.9082 48.7998 87.3883Z" fill="#1AC9FD"/>
<path d="M145.28 169.169C145.28 188.374 145.28 207.579 145.28 226.624C145.28 227.584 145.28 228.384 145.28 229.344C145.28 232.065 145.28 232.225 142.56 232.545C141.6 232.545 140.8 232.545 139.84 232.545C109.44 232.545 78.88 232.865 48.48 233.025C45.12 233.025 44.96 232.865 44.96 229.504C44.96 197.496 45.2799 165.488 45.4399 133.48C45.4399 126.438 45.4399 119.236 45.4399 112.194C45.4399 111.394 45.4399 110.594 45.4399 109.634C45.1199 107.073 45.28 106.913 48 106.913C78.56 106.433 109.28 105.953 139.84 105.312C144 105.312 144.16 105.312 144.16 109.474C144.32 129.319 144.64 149.164 144.8 169.009C144.96 169.009 145.12 169.009 145.28 169.009V169.169ZM89.28 108.833C88.8 108.833 88.3199 108.833 87.8399 108.833C75.6799 109.153 63.52 109.314 51.36 109.634C51.36 110.754 51.36 111.714 51.36 112.834C51.36 123.717 51.1999 134.6 51.0399 145.483C50.8799 173.33 51.3599 201.017 51.0399 228.864C51.0399 230.785 51.68 231.105 53.28 230.785C53.92 230.785 54.3999 230.785 55.0399 230.785C83.1999 230.785 111.2 230.465 139.36 230.304C142.72 230.304 142.72 230.304 142.72 226.784C142.72 203.418 142.4 180.052 142.4 156.686C142.4 141.162 142.4 125.638 142.24 110.114C142.72 108.513 141.92 108.193 140.48 108.193C129.44 108.353 118.4 108.513 107.36 108.673C104.48 108.673 101.6 108.673 98.2399 108.673C101.92 113.955 105.44 118.596 107.68 124.037C106.56 124.517 106.4 123.397 106.08 122.917C103.04 118.916 100.64 114.595 97.4399 110.754C96.7999 109.153 95.8399 108.673 94.2399 108.833C92.6399 108.833 91.0399 108.833 89.4399 108.833H89.28ZM49.4399 171.569C49.4399 158.606 49.4399 147.083 49.4399 135.72C49.4399 127.558 49.4399 119.236 49.4399 111.074C49.4399 110.594 50.08 109.794 48.8 109.794C47.84 109.794 47.52 110.114 47.52 110.914C47.52 113.315 47.52 115.715 47.52 118.116C47.52 154.605 47.52 191.254 47.52 227.744C47.52 228.544 47.52 229.344 47.52 229.984C47.52 230.464 47.68 230.625 48.16 230.625C48.64 230.625 48.8 230.304 48.8 229.824C48.8 229.504 48.8 229.184 48.8 228.864C48.8 209.179 48.8 189.494 49.28 171.409L49.4399 171.569Z" fill="#050E10"/>
<path d="M94.4004 104.193C89.2804 104.193 84.9604 100.352 85.2804 95.7104C85.6004 89.6288 88.1604 85.6278 94.4004 85.4678C99.3604 85.4678 103.84 90.109 103.84 95.0702C103.84 100.352 99.8404 104.193 94.4004 104.193ZM87.5204 94.5901C87.5204 98.9112 90.2404 101.792 94.5604 101.792C98.4004 101.792 101.6 98.9112 101.6 95.0702C101.6 91.3893 98.0803 87.5483 94.2403 87.3883C90.4003 87.3883 87.5204 90.269 87.5204 94.5901Z" fill="#050E10"/>
<path d="M140.8 92.9898C140.8 92.5097 139.84 92.3497 140.16 91.7095C141.12 91.3894 141.28 92.3497 141.44 92.8298C141.44 93.3099 140.96 92.9898 140.8 92.8298V92.9898Z" fill="#081112"/>
<path d="M140.16 91.5488C139.52 91.7088 139.2 91.5488 139.36 90.7486C139.36 90.4285 139.84 90.2685 140 90.5885C140.16 90.9086 140.64 91.2287 140 91.5488H140.16Z" fill="#081112"/>
<path d="M93.9197 13.6094C95.9997 13.9295 95.0396 15.5299 94.8796 16.6502C94.8796 17.1303 95.0396 18.5706 93.5996 17.7704C93.5996 16.3301 93.2796 15.0497 93.7596 13.6094H93.9197Z" fill="#081112"/>
<path d="M101.6 14.0889C101.6 15.3692 101.92 16.8096 101.28 17.9299C100.32 16.9696 100.64 15.6893 100.64 14.569C100.64 13.9289 101.12 13.9289 101.6 14.0889Z" fill="#081112"/>
<path d="M97.4402 110.594C100.64 114.435 103.04 118.756 106.08 122.757C106.4 123.238 106.72 124.358 107.68 123.878C108.32 124.198 108.64 124.998 109.44 125.158C109.76 124.358 109.28 123.878 108.96 123.398C107.36 120.197 105.6 117.316 103.68 114.275C103.04 113.315 101.6 112.035 102.24 111.075C102.72 110.114 104.64 110.594 105.92 110.594C118.08 110.594 130.08 110.594 142.24 110.114C142.24 125.638 142.24 141.162 142.4 156.686C142.4 180.052 142.72 203.418 142.72 226.784C142.72 230.305 142.72 230.305 139.36 230.305C111.2 230.305 83.2002 230.625 55.0402 230.785C54.4002 230.785 53.9203 230.785 53.2803 230.785C53.2803 230.305 53.2803 229.825 53.2803 229.505C53.2803 190.775 53.2803 152.045 53.2803 113.315C53.2803 111.715 53.6003 111.235 55.2003 111.235C64.6403 111.235 74.2403 111.075 83.6803 110.914C85.1203 110.914 85.9203 111.235 86.5603 112.355C87.6803 114.275 89.1203 116.036 90.8803 117.476C91.3603 117.796 92.0003 118.756 92.3203 117.316C92.6403 117.316 92.8003 117.956 93.2803 117.796C93.7603 117.636 93.2803 117.156 93.2803 116.836C92.3203 114.915 91.2002 112.835 90.2402 110.914C92.6402 110.914 94.8803 110.914 97.2803 110.914L97.4402 110.594ZM67.6803 182.133C66.7203 182.133 66.5603 182.453 66.4003 183.413C65.9203 185.814 65.9203 188.214 66.0803 190.615C66.0803 192.695 67.8403 194.136 69.9203 194.296C73.9203 194.616 77.7603 193.816 81.6003 192.695C81.9203 192.695 82.0803 192.215 82.0803 191.895C82.4003 191.575 83.2002 191.575 83.0402 190.935C82.8802 190.135 82.0802 190.135 81.4402 190.295C78.5602 190.295 75.5202 190.615 72.6402 190.615C69.6002 190.615 69.6003 190.615 69.2803 187.414C69.1203 185.654 69.2803 183.573 67.6803 182.133ZM109.92 152.525C109.6 153.805 110.4 153.645 111.2 153.645C113.44 153.645 115.52 153.645 117.6 153.965C120.48 154.286 120.48 154.446 120.64 157.166C120.64 159.247 120.96 161.487 121.12 163.728C121.92 163.088 121.6 162.448 121.92 161.968C122.56 162.448 123.04 162.448 123.2 161.487C123.68 159.407 124.32 157.326 124.16 155.086C124 153.165 123.36 151.245 121.28 150.765C117.76 149.804 114.08 149.964 110.56 150.765C109.76 150.925 108.8 151.245 109.6 152.525H109.92ZM88.9603 191.575C89.1203 192.695 90.0803 192.695 90.8803 192.695C93.4403 193.015 96.1603 193.336 98.7203 193.656C104.48 194.456 110.24 194.936 116.16 195.416C122.24 195.896 124.64 190.455 122.72 185.013C122.4 184.213 122.08 184.373 121.6 184.693C121.12 183.573 120.64 184.053 120.48 184.693C120 185.814 119.68 186.934 119.36 188.214C118.4 190.935 118.08 191.095 115.2 191.095C114.72 191.095 114.24 191.095 113.6 191.095C105.44 190.295 97.2803 190.295 88.9603 190.455C88.4803 190.455 87.8403 190.135 87.6803 190.935C87.6803 191.415 88.4803 191.255 88.8003 191.575H88.9603ZM74.0803 161.007C78.2403 165.008 82.4003 169.169 86.5603 173.17C87.2003 173.811 88.1603 175.251 88.9603 174.611C89.9203 173.811 88.4802 172.85 87.8402 172.21C83.8402 167.729 78.8803 164.208 74.8803 159.727C74.5603 159.247 74.0803 159.247 73.6003 159.247C73.2803 158.767 72.9603 158.767 72.4803 158.927C72.1603 158.447 72.4803 157.326 71.5203 157.486C70.8803 157.486 70.8803 158.447 70.8803 159.087C70.8803 160.367 70.8803 161.487 70.8803 162.768C70.4003 170.45 70.0803 178.132 70.7203 185.974C71.0403 189.335 71.3603 189.815 74.7203 189.655C88.1603 189.174 101.76 189.014 115.2 190.295C117.76 190.615 118.56 189.815 118.72 187.254C118.88 183.893 119.2 180.532 119.36 177.171C119.68 171.89 120 166.769 120.32 161.487C120.32 160.847 120.64 159.887 119.52 159.887C118.72 159.887 118.88 160.847 118.72 161.487C117.92 169.97 116.96 178.452 116.8 187.094C116.8 188.374 116.32 188.854 115.04 188.694C112 188.374 108.8 188.054 105.76 187.734C105.6 187.094 104.96 186.934 104.48 186.774C98.7203 185.814 92.9603 185.333 87.2003 185.654C83.3603 185.974 79.5203 185.814 75.6803 185.974C74.7203 185.974 74.2402 185.654 74.2402 184.693C74.0802 176.851 73.6002 169.169 74.2402 161.327L74.0803 161.007ZM74.2402 153.965C73.6002 153.965 72.6403 153.165 72.1603 153.965C71.6803 154.766 72.8003 155.246 73.2803 155.886C78.2403 161.807 84.1603 166.769 89.9203 171.89C92.9603 174.611 94.8802 174.451 98.2402 172.37C105.6 167.889 112.32 162.448 119.36 157.486C120.64 156.686 120.32 156.046 119.2 155.406C118.56 155.086 118.08 154.926 117.44 154.926C114.88 154.926 112.32 154.606 109.76 154.606C97.9203 154.446 86.2403 154.126 74.4003 153.965H74.2402ZM95.5203 176.851C96.6403 176.851 98.0803 176.371 99.2003 175.571C104.96 171.89 110.56 167.889 115.52 162.928C116 162.448 117.12 161.968 116.48 161.167C115.84 160.527 115.2 161.487 114.56 161.968C109.76 165.648 105.12 169.329 100.16 172.69C98.4003 173.971 96.4802 174.931 94.2402 175.091C93.6002 175.091 92.3203 174.771 92.4803 175.891C92.4803 176.691 93.7603 176.851 94.5603 176.851C94.7203 176.851 94.8803 176.851 95.5203 176.851ZM137.12 160.527C137.12 160.047 137.12 159.727 136.48 159.407C135.84 159.087 135.2 159.407 134.72 159.727C132.64 161.968 130.4 164.208 128.64 166.769C128.32 167.249 127.84 167.729 128.48 168.209C128.96 168.529 129.44 168.209 129.92 167.889C132.64 166.129 134.72 163.728 136.64 161.327C136.8 161.167 136.96 160.687 136.96 160.527H137.12ZM57.4402 168.369C57.1202 168.369 56.6403 168.369 56.1603 168.369C55.5203 168.369 54.5603 168.369 54.5603 169.009C54.5603 169.81 55.3603 169.81 56.0003 169.97C58.4003 170.61 60.8003 171.09 63.2003 171.57C64.0003 171.73 64.8003 171.73 65.1203 170.77C65.4403 169.649 64.4803 169.329 63.6803 169.169C61.7603 168.529 59.6802 168.209 57.4402 168.049V168.369ZM137.28 183.733C137.28 182.933 136.96 182.613 136.48 182.293C134.08 181.172 131.68 180.052 129.12 179.252C128.8 179.252 128.32 178.932 128.16 179.412C128.16 179.732 128.16 180.052 128.48 180.212C130.56 182.133 133.12 183.573 135.84 184.533C136.64 184.693 137.28 184.533 137.44 183.733H137.28ZM133.28 171.41C132 171.41 130.56 171.41 129.12 171.89C128.8 171.89 128.48 172.21 128.48 172.37C128.48 172.69 128.64 173.01 128.96 173.01C131.36 173.971 133.76 174.291 136.16 173.811C136.8 173.811 137.28 173.17 137.28 172.53C137.28 171.73 136.64 171.41 136 171.41C135.2 171.41 134.4 171.41 133.44 171.41H133.28ZM57.4402 159.567C59.8402 161.807 62.4003 163.568 65.2803 165.008C65.7603 165.328 66.2403 165.168 66.5603 164.688C66.8803 164.208 66.7202 163.568 66.2402 163.408C63.5202 161.647 60.8003 159.727 57.2803 159.567H57.4402ZM56.0003 179.092C58.5603 178.452 61.1203 177.492 63.2003 175.891C63.6803 175.571 63.8403 175.091 63.6803 174.611C63.3603 174.131 62.8803 174.131 62.5603 174.291C60.1603 175.411 57.6003 176.371 55.5203 177.812C55.2003 177.972 54.8802 178.292 55.0402 178.772C55.0402 179.252 55.6803 179.092 56.1603 179.092H56.0003Z" fill="#58D7FD"/>
<path d="M92.4802 117.156C92.1602 118.596 91.5201 117.636 91.0401 117.316C89.2801 115.876 88.0002 114.115 86.7202 112.195C85.9202 111.074 85.1201 110.594 83.8401 110.754C74.4001 110.914 64.8002 111.074 55.3602 111.074C53.7602 111.074 53.4401 111.555 53.4401 113.155C53.4401 151.885 53.4401 190.615 53.4401 229.345C53.4401 229.825 53.4401 230.305 53.4401 230.625C51.8401 231.105 51.2002 230.625 51.2002 228.705C51.6802 200.857 51.2002 173.17 51.2002 145.323C51.2002 134.44 51.6802 123.558 51.5202 112.675C51.5202 111.715 51.5202 110.594 51.5202 109.474C63.5202 109.154 75.8402 108.994 88.0002 108.674C88.0002 109.634 88.4802 110.434 88.9602 111.234C90.2402 113.155 91.3601 115.075 92.6401 116.996L92.4802 117.156Z" fill="#F2F7F8"/>
<path d="M49.4396 171.569C48.9596 189.654 48.9597 209.339 48.9597 229.024C48.9597 229.344 48.9597 229.664 48.9597 229.984C48.9597 230.464 48.9597 230.784 48.3197 230.784C47.8397 230.784 47.6797 230.464 47.6797 230.144C47.6797 229.344 47.6797 228.544 47.6797 227.904C47.6797 191.414 47.6797 154.765 47.6797 118.276C47.6797 115.875 47.6797 113.474 47.6797 111.074C47.6797 110.274 47.9997 109.793 48.9597 109.954C50.2397 109.954 49.5997 110.754 49.5997 111.234C49.5997 119.396 49.5997 127.718 49.5997 135.88C49.5997 147.243 49.5997 158.766 49.5997 171.729L49.4396 171.569Z" fill="#54CFF3"/>
<path d="M142.08 109.954C129.92 110.274 117.92 110.434 105.76 110.434C104.48 110.434 102.72 110.114 102.08 110.914C101.44 111.874 102.88 113.154 103.52 114.115C105.44 116.995 107.2 120.036 108.8 123.237C109.12 123.717 109.6 124.197 109.28 124.997C108.48 124.997 108.16 124.037 107.52 123.717C105.28 118.276 101.76 113.635 98.0801 108.353C101.44 108.353 104.32 108.353 107.2 108.353C118.24 108.353 129.28 108.033 140.32 107.873C141.92 107.873 142.56 108.193 142.08 109.794V109.954Z" fill="#F2F7F8"/>
<path d="M92.4799 117.156C91.1999 115.236 90.0799 113.315 88.7999 111.395C88.3199 110.594 87.8398 109.794 87.8398 108.834C88.3198 108.834 88.7999 108.834 89.2799 108.834C89.2799 109.634 89.9198 110.114 90.2398 110.754C91.1998 112.675 92.3199 114.595 93.2799 116.676C93.2799 116.996 93.7599 117.476 93.2799 117.636C92.7999 117.796 92.6399 117.316 92.3199 117.156H92.4799Z" fill="#081112"/>
<path d="M90.3995 110.754C89.9195 110.114 89.4395 109.634 89.4395 108.834C91.0395 108.834 92.6395 108.834 94.2395 108.834C95.8395 108.834 96.9595 109.154 97.4395 110.754C95.0395 110.754 92.7995 110.754 90.3995 110.754Z" fill="#F2F7F8"/>
<path d="M87.52 94.5895C87.52 90.2684 90.3999 87.3877 94.2399 87.3877C98.0799 87.3877 101.76 91.2287 101.6 95.0697C101.6 98.9106 98.4 101.791 94.56 101.791C90.24 101.791 87.36 98.9106 87.52 94.5895ZM98.08 93.1492C98.08 91.3887 97.12 90.2684 95.68 89.7883C94.08 89.3082 92.48 89.3082 91.36 90.9086C90.24 92.349 90.56 94.1094 91.68 95.2297C92.64 96.1899 93.28 97.3102 93.28 98.7506C93.28 99.3908 93.5999 99.8709 94.2399 100.031C94.7199 100.031 95.36 100.031 95.36 99.5508C95.68 97.4703 96.96 95.8699 98.08 94.1094C98.24 93.7893 98.2399 93.4692 98.2399 93.3092L98.08 93.1492Z" fill="#88DCF5"/>
<path d="M105.44 187.254C108.48 187.574 111.68 187.894 114.72 188.214C116 188.214 116.48 187.894 116.48 186.613C116.64 178.131 117.6 169.489 118.4 161.007C118.4 160.367 118.4 159.567 119.2 159.406C120.32 159.406 120 160.367 120 161.007C119.68 166.288 119.36 171.41 119.04 176.691C118.88 180.052 118.72 183.413 118.4 186.773C118.24 189.334 117.44 190.134 114.88 189.814C101.44 188.374 87.8404 188.694 74.4004 189.174C71.2004 189.174 70.7204 188.854 70.4004 185.493C69.7604 177.811 70.0804 170.129 70.5604 162.287C70.5604 161.007 70.5604 159.887 70.5604 158.606C70.5604 157.966 70.5604 157.166 71.2004 157.006C72.1604 157.006 71.8404 157.966 72.1604 158.446C72.1604 159.887 72.1604 161.327 72.1604 162.767C71.6804 169.009 71.3604 175.251 71.5204 181.492C71.5204 183.093 71.5203 184.533 71.8403 186.133C72.0003 187.254 72.4804 187.574 73.6004 187.414C79.8404 186.773 86.2404 186.613 92.4804 186.773C96.8004 186.773 100.96 186.773 105.28 186.773L105.44 187.254Z" fill="#081112"/>
<path d="M74.2395 153.965C86.0795 154.125 97.7595 154.445 109.6 154.605C112.16 154.605 114.72 154.925 117.28 154.925C117.92 154.925 118.559 155.085 119.039 155.405C120.159 156.045 120.48 156.686 119.2 157.486C112.16 162.447 105.44 167.728 98.0795 172.37C94.7195 174.45 92.7995 174.61 89.7595 171.889C83.9995 166.768 78.0795 161.807 73.1195 155.885C72.6395 155.405 71.6795 154.925 71.9995 153.965C72.4795 153.005 73.4395 153.965 74.0795 153.965H74.2395ZM77.5995 155.885C76.6395 155.405 75.5195 155.565 74.3995 155.565C75.0395 156.686 75.8395 157.486 76.6395 158.126C80.9595 161.807 85.2795 165.648 89.5995 169.329C90.5595 170.129 91.5195 170.769 92.6395 171.409C93.7595 172.21 95.0395 172.049 96.1595 171.409C101.759 167.568 107.519 164.047 112.639 159.726C113.759 158.926 115.039 158.126 116.159 157.326C103.199 156.526 90.3995 155.725 77.5995 155.885Z" fill="#081112"/>
<path d="M105.44 187.254C101.12 187.254 96.9596 187.254 92.6396 187.254C86.2396 187.254 79.9997 187.254 73.7597 187.894C72.6397 187.894 72.1597 187.574 71.9997 186.614C71.6797 185.173 71.6797 183.573 71.6797 181.973C71.6797 175.731 71.8397 169.489 72.3197 163.248C72.3197 161.807 72.3197 160.367 72.3197 158.927C72.7997 158.927 73.1196 158.927 73.4396 159.247C73.2796 159.727 73.5997 160.207 73.7597 160.687C73.7597 160.847 73.7597 161.167 74.0797 161.167C73.2797 168.849 73.9197 176.691 74.0797 184.533C74.0797 185.494 74.5597 185.974 75.5197 185.814C79.3597 185.814 83.1996 185.814 87.0396 185.494C92.7996 185.013 98.5597 185.494 104.32 186.614C104.8 186.614 105.44 186.774 105.6 187.574L105.44 187.254Z" fill="#F6F9FA"/>
<path d="M121.6 184.853C122.08 184.533 122.4 184.373 122.72 185.173C124.64 190.615 122.24 196.056 116.16 195.576C110.4 195.096 104.48 194.616 98.72 193.815C96.16 193.495 93.44 193.175 90.88 192.855C90.08 192.855 89.12 192.855 88.96 191.735C93.6 191.895 98.3999 191.735 103.04 192.055C107.36 192.535 111.68 193.015 116 193.175C118.88 193.335 120.16 192.375 120.8 189.494C121.28 187.894 121.28 186.293 121.6 184.853Z" fill="#1AC9FC"/>
<path d="M121.6 184.853C121.28 186.453 121.28 188.054 120.8 189.494C120 192.215 118.88 193.335 116 193.175C111.68 192.855 107.36 192.535 103.04 192.055C98.3998 191.575 93.5999 191.895 88.9599 191.735C88.6399 191.415 87.8398 191.735 87.8398 191.094C87.8398 190.294 88.6399 190.614 89.1199 190.614C97.2799 190.614 105.6 190.454 113.76 191.254C114.24 191.254 114.72 191.254 115.36 191.254C118.24 191.254 118.56 191.094 119.52 188.374C119.84 187.253 120.16 186.133 120.64 184.853C120.96 184.053 121.28 183.572 121.76 184.853H121.6Z" fill="#081112"/>
<path d="M95.5205 176.851C94.8805 176.851 94.7204 176.851 94.5604 176.851C93.7604 176.851 92.4805 176.851 92.4805 175.891C92.4805 174.771 93.6004 175.251 94.2404 175.091C96.4804 174.931 98.4004 173.971 100.16 172.69C105.12 169.329 109.76 165.648 114.56 161.967C115.04 161.487 115.84 160.527 116.48 161.167C117.12 161.967 116.001 162.448 115.521 162.928C110.561 167.889 105.12 171.89 99.2005 175.571C97.9205 176.371 96.6405 176.851 95.5205 176.851Z" fill="#081112"/>
<path d="M109.92 152.525C109.12 151.404 110.24 150.924 110.88 150.764C114.4 149.964 118.08 149.804 121.6 150.764C123.68 151.404 124.32 153.165 124.48 155.085C124.64 157.326 124 159.406 123.52 161.487C123.36 162.447 122.88 162.447 122.24 161.967C122.08 159.886 122.88 157.966 122.72 155.885C122.72 154.445 122.24 153.005 120.64 152.685C117.12 151.884 113.6 151.564 110.08 152.364L109.92 152.525Z" fill="#19C3F5"/>
<path d="M67.6799 182.133C69.2799 183.573 69.1199 185.493 69.2799 187.414C69.5999 190.615 69.4398 190.615 72.6398 190.615C75.5198 190.615 78.5598 190.455 81.4398 190.295C82.0798 190.295 82.8798 190.295 83.0398 190.935C83.0398 191.575 82.3999 191.575 82.0799 191.895C81.1199 191.895 80.1599 191.895 79.1999 192.055C76.4799 192.375 73.9199 192.375 71.1999 192.055C68.7999 191.895 67.8399 191.095 67.6799 188.694C67.5199 186.454 67.3599 184.053 67.6799 181.812V182.133Z" fill="#081112"/>
<path d="M67.68 182.132C67.36 184.372 67.36 186.773 67.68 189.014C67.84 191.414 68.8 192.214 71.2 192.374C73.92 192.534 76.48 192.534 79.2 192.374C80.16 192.374 81.12 192.374 82.08 192.214C82.08 192.535 82.08 192.855 81.6 193.015C77.76 193.975 73.92 194.935 69.92 194.615C67.84 194.455 66.08 193.015 66.08 190.934C66.08 188.533 65.76 186.133 66.4 183.732C66.56 182.932 66.88 182.452 67.68 182.452V182.132Z" fill="#1AC9FC"/>
<path d="M73.7602 160.526C73.7602 160.046 73.1202 159.726 73.4402 159.086C73.9202 159.086 74.4003 159.086 74.7203 159.566C78.7203 164.047 83.5202 167.728 87.6802 172.049C88.3202 172.689 89.7602 173.65 88.8002 174.45C88.0002 175.25 87.2002 173.81 86.4002 173.01C82.2402 169.008 78.0803 164.847 73.9203 160.846C73.9203 160.846 73.7602 160.526 73.6002 160.366L73.7602 160.526Z" fill="#081112"/>
<path d="M109.92 152.525C113.44 151.725 116.96 152.045 120.48 152.845C122.08 153.165 122.56 154.446 122.56 156.046C122.56 158.126 121.92 160.047 122.08 162.127C121.76 162.608 122.08 163.248 121.28 163.888C121.12 161.487 120.8 159.407 120.8 157.326C120.8 154.606 120.64 154.446 117.76 154.125C115.68 153.805 113.44 153.805 111.36 153.805C110.56 153.805 109.76 153.805 110.08 152.685L109.92 152.525Z" fill="#081112"/>
<path d="M137.12 160.527C137.12 160.847 136.96 161.167 136.8 161.327C134.72 163.728 132.8 166.288 130.08 167.889C129.6 168.209 129.12 168.529 128.64 168.209C128 167.729 128.64 167.088 128.8 166.768C130.4 164.048 132.64 161.967 134.88 159.727C135.36 159.246 136 158.926 136.64 159.406C137.12 159.727 137.12 160.047 137.28 160.527H137.12Z" fill="#050E10"/>
<path d="M57.4396 168.369C59.6796 168.369 61.7596 168.849 63.6796 169.489C64.4796 169.81 65.4396 170.13 65.1196 171.09C64.7996 172.05 63.9996 172.05 63.1996 171.89C60.7996 171.41 58.3996 170.77 55.9996 170.29C55.3596 170.29 54.5596 170.13 54.5596 169.329C54.5596 168.529 55.5196 168.849 56.1596 168.689C56.6396 168.689 57.1196 168.689 57.4396 168.689V168.369Z" fill="#081112"/>
<path d="M137.28 183.733C137.12 184.533 136.48 184.853 135.68 184.533C132.96 183.733 130.4 182.293 128.32 180.212C128.16 180.052 127.84 179.732 128 179.412C128.16 178.932 128.64 179.092 128.96 179.252C131.52 180.052 133.92 181.012 136.32 182.293C136.8 182.613 137.28 182.933 137.12 183.733H137.28Z" fill="#081112"/>
<path d="M133.28 171.409C134.4 171.409 135.2 171.409 135.84 171.409C136.48 171.409 137.12 171.729 137.12 172.529C137.12 173.33 136.8 173.81 136 173.81C133.44 174.29 131.04 173.81 128.8 173.01C128.48 173.01 128.16 172.69 128.32 172.369C128.32 172.049 128.8 171.889 128.96 171.889C130.4 171.569 132 171.409 133.12 171.409H133.28Z" fill="#081112"/>
<path d="M57.4395 159.566C60.9595 159.726 63.6795 161.647 66.3995 163.407C66.8795 163.727 67.0395 164.208 66.7195 164.688C66.3995 165.168 65.9195 165.328 65.4395 165.008C62.5595 163.407 59.9995 161.647 57.5995 159.566H57.4395Z" fill="#081112"/>
<path d="M55.9999 179.091C55.5199 179.091 55.0399 179.091 54.8799 178.771C54.8799 178.291 55.0399 178.131 55.3599 177.811C57.5999 176.371 59.9999 175.25 62.3999 174.29C62.8799 174.13 63.3599 174.13 63.5199 174.61C63.8399 175.09 63.5198 175.57 63.0398 175.89C60.7998 177.651 58.3998 178.611 55.8398 179.091H55.9999Z" fill="#081112"/>
<path d="M98.0798 93.15C98.0798 93.31 98.0799 93.7901 97.9199 93.9502C96.7999 95.7106 95.5198 97.151 95.1998 99.3915C95.1998 99.8717 94.5598 100.032 94.0798 99.8717C93.4398 99.8717 93.1199 99.2315 93.1199 98.5913C93.1199 97.151 92.6399 96.1907 91.5199 95.0704C90.3999 93.7901 90.0798 92.1897 91.1998 90.7493C92.3198 89.309 93.9199 89.1489 95.5199 89.629C97.1199 90.1092 97.9199 91.3895 97.9199 92.9899L98.0798 93.15Z" fill="#04090A"/>
<path d="M77.5996 155.886C90.3996 155.886 103.2 156.526 116.16 157.326C115.04 158.126 113.76 158.927 112.64 159.727C112.32 158.927 111.68 159.247 111.04 159.407C109.44 159.727 108.16 160.527 106.72 161.487C103.52 163.568 100.32 165.808 97.2796 167.889C95.9996 168.689 94.7196 169.169 93.2796 168.369C87.5196 165.008 82.2396 160.847 77.5996 155.886Z" fill="#58D7FD"/>
<path d="M77.6004 155.886C82.2404 160.847 87.5204 164.848 93.2804 168.369C94.7204 169.169 96.0004 168.689 97.2804 167.889C100.48 165.648 103.68 163.567 106.72 161.487C108 160.527 109.44 159.887 111.04 159.406C111.68 159.406 112.32 158.926 112.64 159.726C107.36 164.048 101.76 167.569 96.1604 171.409C95.0404 172.21 93.7603 172.21 92.6403 171.409C91.6803 170.769 90.5604 170.129 89.6004 169.329C85.2804 165.648 80.9603 161.807 76.6403 158.126C75.8403 157.486 75.0404 156.686 74.4004 155.565C75.5204 155.565 76.6404 155.565 77.6004 155.886Z" fill="#F2F7F8"/>
<path d="M73.7598 160.526C73.7598 160.526 73.9198 160.846 74.0798 161.006C73.7598 161.006 73.7598 160.846 73.7598 160.526Z" fill="#58D7FD"/>
</svg>
