<svg width="212" height="220" viewBox="0 0 212 220" fill="none" xmlns="http://www.w3.org/2000/svg">
<path d="M106.672 200.019C164.48 200.019 211.342 179.639 211.342 154.499C211.342 129.359 164.48 108.979 106.672 108.979C48.8645 108.979 2.00219 129.359 2.00219 154.499C2.00219 179.639 48.8645 200.019 106.672 200.019Z" fill="url(#paint0_linear_2310_97399)"/>
<path d="M211.332 154.499C211.302 157.059 210.802 159.589 209.912 161.989C209.052 164.399 207.682 166.599 206.182 168.659L205.012 170.179L203.732 171.599C203.312 172.089 202.862 172.539 202.392 172.969L201.012 174.299C199.082 175.979 197.092 177.589 194.962 179.009C186.492 184.769 176.952 188.769 167.222 191.849C162.342 193.369 157.392 194.699 152.402 195.799C147.402 196.889 142.362 197.779 137.292 198.519C132.222 199.239 127.132 199.749 122.022 200.149C116.912 200.519 111.792 200.699 106.672 200.779C101.552 200.799 96.4222 200.709 91.3022 200.429C86.1822 200.129 81.0722 199.709 75.9722 199.079C65.7922 197.799 55.6622 195.879 45.7922 192.889C35.9622 189.879 26.2622 185.989 17.5822 180.169C15.4022 178.729 13.3622 177.089 11.3722 175.369L9.94219 173.999C9.46219 173.549 8.99219 173.089 8.55219 172.579L7.21219 171.109L5.98219 169.539C4.41219 167.399 2.95219 165.099 2.03219 162.529C1.07219 159.989 0.522187 157.269 0.492188 154.519C0.522187 151.769 1.07219 149.049 2.03219 146.509C2.96219 143.939 4.41219 141.649 5.98219 139.499L7.21219 137.929L8.55219 136.459C8.99219 135.959 9.45219 135.489 9.94219 135.039L11.3722 133.669C13.3622 131.949 15.4022 130.309 17.5822 128.869C26.2522 123.039 35.9522 119.149 45.7822 116.139C55.6422 113.139 65.7822 111.229 75.9622 109.949C81.0522 109.319 86.1722 108.899 91.2922 108.599C96.4122 108.319 101.542 108.229 106.662 108.249C111.782 108.329 116.902 108.509 122.012 108.879C127.122 109.269 132.212 109.789 137.282 110.509C142.352 111.239 147.392 112.139 152.392 113.229C157.392 114.329 162.332 115.669 167.212 117.189C176.952 120.269 186.492 124.269 194.952 130.029C197.082 131.439 199.072 133.059 201.002 134.739L202.382 136.069C202.852 136.509 203.302 136.959 203.722 137.439L205.002 138.859L206.172 140.379C207.672 142.439 209.042 144.629 209.902 147.049C210.792 149.439 211.292 151.979 211.322 154.539L211.332 154.499ZM211.332 154.499C211.292 151.939 210.782 149.409 209.882 147.019C209.012 144.609 207.632 142.429 206.132 140.379L204.952 138.869L203.662 137.449C203.242 136.969 202.792 136.519 202.322 136.079L200.942 134.759C199.012 133.089 197.022 131.489 194.892 130.089C186.402 124.389 176.822 120.539 167.092 117.559C157.322 114.599 147.272 112.689 137.162 111.419C132.102 110.789 127.022 110.369 121.942 110.079C116.852 109.799 111.762 109.709 106.672 109.729C101.582 109.809 96.4922 109.989 91.4122 110.359C86.3422 110.749 81.2722 111.259 76.2422 111.979C71.2122 112.709 66.2022 113.599 61.2522 114.679C56.2922 115.769 51.3922 117.089 46.5622 118.599C36.9222 121.639 27.5022 125.609 19.2222 131.239C17.1422 132.619 15.2022 134.199 13.3322 135.819L12.0022 137.109C11.5522 137.529 11.1122 137.969 10.7122 138.429L9.47219 139.799L8.35219 141.249C6.92219 143.209 5.62219 145.289 4.82219 147.549C3.99219 149.789 3.53219 152.139 3.50219 154.499C3.53219 156.869 3.99219 159.219 4.82219 161.459C5.62219 163.719 6.92219 165.789 8.35219 167.759L9.47219 169.209L10.7122 170.579C11.1122 171.049 11.5522 171.479 12.0022 171.899L13.3322 173.189C15.2022 174.809 17.1322 176.389 19.2222 177.769C27.5022 183.409 36.9222 187.369 46.5622 190.409C51.3922 191.919 56.2922 193.239 61.2522 194.329C66.2122 195.409 71.2122 196.299 76.2522 197.029C81.2822 197.749 86.3522 198.259 91.4222 198.649C96.5022 199.019 101.582 199.199 106.682 199.279C111.772 199.299 116.872 199.209 121.952 198.929C127.042 198.629 132.122 198.209 137.172 197.579C147.282 196.309 157.342 194.399 167.102 191.439C176.832 188.459 186.422 184.609 194.902 178.909C197.032 177.509 199.022 175.899 200.952 174.239L202.332 172.919C202.802 172.489 203.252 172.039 203.672 171.549L204.962 170.129L206.142 168.619C207.642 166.569 209.022 164.389 209.892 161.979C210.792 159.589 211.302 157.059 211.342 154.499H211.332Z" fill="black"/>
<path d="M105.342 26.509L52.2922 22.929L51.5122 22.879L42.9322 146.339C42.9322 146.339 39.5522 158.319 44.5922 164.159C49.6322 169.999 53.6322 172.949 53.6322 172.949L110.792 178.499H150.272L157.122 113.999L162.792 33.829L112.092 6.83897L104.662 5.55897H52.3522L52.3122 20.209" fill="white"/>
<path d="M56.5722 22.849C52.8222 61.509 50.5022 100.299 49.6222 139.129C49.4822 145.459 49.3822 151.909 51.1322 157.999C52.8822 164.089 59.7322 170.899 65.5422 173.419C60.8622 174.039 52.6222 173.479 48.9622 170.499C46.4722 168.469 43.9022 164.529 43.4022 161.359C41.5522 149.549 42.7722 137.379 44.5022 124.929L51.5122 22.869L57.2922 22.839" fill="#0ABBEF"/>
<path d="M95.6222 5.22897C78.4622 3.63897 61.2922 2.16897 44.1122 0.838972C43.7822 0.808972 43.4022 0.808972 43.1722 1.04897C42.9922 1.22897 42.9622 1.50897 42.9522 1.75897C42.7722 5.41897 44.6222 8.91897 47.0222 11.689C48.0822 12.909 49.2822 14.039 50.7122 14.789C52.7522 15.849 55.1122 16.069 57.4022 16.249C59.4622 16.409 61.5322 16.559 63.6022 16.689C61.6522 13.869 59.9522 10.879 58.5222 7.75897C69.4222 7.75897 80.3122 7.73897 91.2122 7.72897C97.4622 7.72897 103.772 7.70897 109.872 6.38897" fill="#0ABBEF"/>
<path d="M97.5222 43.759L96.5522 41.129C89.1922 39.189 81.6722 37.869 74.1022 37.189C70.2222 36.839 66.2122 36.669 62.5422 37.989C58.8722 39.309 55.6122 42.429 55.2422 46.309C55.1322 47.479 55.2922 48.689 55.8322 49.729C57.1122 52.189 60.1322 53.139 62.8822 53.519C65.5022 53.879 68.1522 53.939 70.7922 53.949C77.1222 53.979 83.4422 53.749 89.7522 53.269C84.1322 52.619 78.5022 51.969 72.8822 51.319C72.1822 51.749 71.3122 52.009 70.2822 52.009C69.4922 52.009 68.8022 51.859 68.2022 51.589C67.9122 51.639 67.6022 51.669 67.2822 51.669C60.8322 51.669 60.8522 41.669 67.2822 41.669C67.8922 41.669 68.4422 41.759 68.9422 41.919C69.4122 41.879 69.8922 41.869 70.3522 41.879C79.4022 41.989 88.3522 44.339 97.3922 43.979C97.6222 43.979 97.5422 43.529 97.5122 43.749L97.5222 43.759Z" fill="#0ABBEF"/>
<path d="M137.082 68.319C113.762 63.009 89.5722 63.399 65.8222 60.559C64.0822 60.349 62.5022 61.609 62.3322 63.359C61.6822 70.259 61.0622 77.159 60.4622 84.059C60.3022 85.869 61.7222 87.439 63.5422 87.449C87.0522 87.689 110.562 87.399 134.062 86.589" fill="#0ABBEF"/>
<path d="M77.5222 154.109C77.6422 152.359 77.3922 150.379 76.0122 149.299C75.2622 148.719 74.2922 148.499 73.3522 148.439C72.3422 148.379 71.2822 148.509 70.4322 149.059C69.6022 149.589 69.0422 150.489 68.8222 151.459C68.6022 152.429 68.7122 153.439 69.0222 154.379C69.5022 155.829 70.5422 157.169 72.0022 157.629C71.5022 156.889 71.0522 156.059 71.0422 155.169C71.0222 153.859 72.0322 152.649 73.2922 152.269C74.5522 151.889 75.9722 152.269 76.9922 153.089" fill="#0ABBEF"/>
<path d="M92.5822 155.109C92.1122 154.429 91.6122 153.729 90.8722 153.379C89.9622 152.949 88.8122 153.159 88.0222 153.789C87.2322 154.419 86.7622 155.399 86.6222 156.399C86.4922 157.349 86.7422 158.499 87.6322 158.859C86.2422 158.289 85.4122 156.889 84.6722 155.579C84.4322 155.149 84.1822 154.699 84.1222 154.209C83.9822 153.159 84.6822 152.199 85.4222 151.449C86.0422 150.829 86.7422 150.259 87.5722 149.949C89.0622 149.399 90.8522 149.869 91.9422 151.029C93.0322 152.189 93.4122 153.939 92.9622 155.469" fill="#0ABBEF"/>
<path d="M68.2622 161.189C67.5622 160.479 66.6522 159.939 65.6522 159.819C64.6522 159.699 63.5922 160.029 62.9422 160.789C61.9222 161.979 62.1822 163.839 62.9322 165.219C62.1722 164.789 61.4322 164.289 60.8522 163.639C60.2722 162.989 59.8722 162.139 59.8722 161.269C59.8722 160.559 60.1422 159.879 60.5122 159.279C61.5522 157.639 63.5822 156.599 65.4822 156.989C67.3822 157.379 68.9022 159.339 68.5622 161.249" fill="#0ABBEF"/>
<path d="M83.9122 162.599C83.2522 161.629 82.1822 160.929 81.0122 160.859C79.8422 160.789 78.6322 161.399 78.1122 162.449C77.5122 163.649 77.8922 165.109 78.4922 166.309C77.6022 166.079 77.0422 165.199 76.6522 164.369C76.2122 163.449 75.8522 162.399 76.1522 161.429C76.4222 160.549 77.1822 159.919 77.9422 159.399C78.9922 158.679 80.1722 158.049 81.4422 157.999C82.7122 157.949 84.0922 158.609 84.5222 159.809C84.7922 160.559 84.6722 161.389 84.4722 162.159" fill="#0ABBEF"/>
<path d="M99.5222 165.019C100.262 163.429 99.8422 161.379 98.5322 160.209C97.2222 159.039 95.1322 158.869 93.6422 159.799C92.1522 160.729 91.3922 162.679 91.8622 164.369C92.1822 165.519 92.9822 166.469 93.8322 167.309C93.2822 166.189 92.9222 164.799 93.5722 163.729C93.8322 163.289 94.2422 162.959 94.6822 162.699C95.5822 162.169 96.6822 161.929 97.6722 162.239C98.6622 162.549 99.4722 163.499 99.4422 164.539" fill="#0ABBEF"/>
<path d="M102.312 159.209C101.622 158.299 101.372 157.069 101.692 155.979C102.012 154.889 102.932 153.979 104.032 153.719C105.132 153.459 106.392 153.889 107.062 154.799C107.772 155.759 107.792 157.039 107.782 158.229C108.082 157.319 108.382 156.389 108.442 155.429C108.502 154.469 108.292 153.449 107.682 152.719C107.312 152.279 106.812 151.959 106.282 151.739C104.332 150.959 101.922 151.689 100.612 153.339C100.152 153.929 99.8022 154.639 99.8222 155.389C99.8422 156.589 100.752 157.559 101.602 158.409" fill="#0ABBEF"/>
<path d="M118.982 155.249C117.312 155.709 116.212 157.669 116.702 159.329C115.882 158.469 115.692 157.159 115.852 155.979C116.052 154.579 116.742 153.199 117.912 152.409C119.432 151.379 121.662 151.569 122.982 152.839C124.302 154.109 124.602 156.319 123.642 157.889C123.032 156.379 121.302 155.419 119.692 155.689" fill="#0ABBEF"/>
<path d="M114.612 165.169C115.212 164.129 115.042 162.739 114.302 161.799C113.562 160.859 112.332 160.359 111.132 160.409C109.932 160.459 108.792 161.009 107.912 161.809C106.872 162.769 106.152 164.199 106.422 165.589C106.652 166.769 107.582 167.759 108.712 168.179C107.902 166.699 108.462 164.619 109.902 163.739C111.342 162.859 113.442 163.309 114.392 164.699" fill="#0ABBEF"/>
<path d="M129.882 166.119C129.112 164.659 127.112 163.999 125.622 164.709C124.132 165.419 123.392 167.399 124.042 168.909C123.162 168.489 122.562 167.599 122.352 166.649C122.142 165.699 122.282 164.699 122.592 163.769C122.752 163.309 122.952 162.849 123.282 162.489C123.642 162.099 124.122 161.859 124.602 161.649C125.442 161.279 126.352 160.959 127.272 161.069C128.452 161.209 129.472 162.069 130.002 163.139C130.502 164.129 130.622 165.289 130.342 166.359" fill="#0ABBEF"/>
<path d="M167.102 28.559L156.342 177.209C156.102 180.579 153.172 183.119 149.792 182.879L63.3422 176.619C59.2722 176.319 55.5222 174.979 52.3422 172.859L141.152 179.289C144.532 179.539 147.462 176.999 147.712 173.619L158.252 27.919L167.102 28.559Z" fill="url(#paint1_linear_2310_97399)"/>
<path d="M108.692 20.229L163.912 24.229C171.812 24.799 178.672 18.859 179.242 10.969L109.722 5.93897L108.692 20.239V20.229Z" fill="white"/>
<path d="M179.262 10.489H179.192L179.052 10.469L178.762 10.439L174.172 9.98897C171.112 9.67897 168.052 9.37897 164.992 9.10897C158.872 8.53897 152.732 8.07897 146.612 7.55897C134.862 6.57897 123.102 5.93897 111.322 5.37897C99.5922 4.23897 87.8522 3.17897 76.0822 2.45897C69.9422 2.08897 63.8122 1.65897 57.6622 1.34897C54.5922 1.16897 51.5222 1.02897 48.4422 0.898972L43.8322 0.678972H43.5422L43.4022 0.658972H43.3322C43.7722 0.258972 42.6922 1.18897 42.8022 1.10897V1.73897C42.8122 2.13897 42.7722 2.52897 42.8322 2.92897L42.9522 4.10897L43.1922 5.26897C44.1622 9.76897 47.3922 13.529 51.5022 15.479C50.8222 15.449 50.1422 15.419 49.4522 15.389H49.4222C49.1322 15.379 48.8822 15.599 48.8722 15.899L48.6922 19.989V20.009C48.6822 20.239 48.8622 20.439 49.0922 20.449C49.6122 20.469 50.1422 20.509 50.6622 20.539C48.1422 54.179 45.7922 87.839 43.5322 121.499L41.8722 146.849C41.7522 148.979 41.5622 151.039 41.4922 153.219C41.4522 155.389 41.7122 157.569 42.2722 159.669C43.3722 163.869 45.6922 167.729 48.8522 170.689C49.7722 171.559 50.7822 172.349 51.8322 173.059C51.8722 173.169 51.9322 173.259 52.0422 173.329C54.3322 174.839 56.9022 175.929 59.5622 176.539C60.8922 176.839 62.2622 177.039 63.6122 177.109L67.6222 177.369L83.6522 178.439C88.5322 178.779 93.4022 179.119 98.2822 179.459L123.572 181.389L129.902 181.899L133.072 182.159C133.722 182.169 134.382 182.219 135.042 182.229L147.752 183.269L149.752 183.429C150.482 183.479 151.222 183.429 151.932 183.249C153.362 182.899 154.652 182.049 155.572 180.899C156.482 179.759 157.002 178.229 157.042 176.839L157.372 172.839L158.172 162.909C158.252 162.499 158.322 162.089 158.352 161.679C158.522 160.579 158.572 159.529 158.652 158.469L158.892 155.289L160.772 129.829C163.092 96.039 165.312 62.229 167.272 28.949C168.422 29.049 169.572 29.139 170.722 29.259C170.952 29.279 171.162 29.109 171.182 28.879V28.859L171.592 24.779C171.622 24.489 171.412 24.229 171.122 24.199H171.092C170.412 24.119 169.732 24.059 169.052 23.989C173.392 22.649 177.132 19.399 178.742 15.079L179.142 13.959L179.432 12.809C179.542 12.429 179.572 12.029 179.632 11.639L179.722 11.049V11.009C179.832 11.099 178.892 10.029 179.272 10.479L179.262 10.489ZM110.282 6.65897C110.592 6.66897 110.902 6.68897 111.212 6.70897C111.522 6.73897 111.832 6.76897 112.142 6.79897C112.062 8.88897 111.972 10.989 111.912 13.129L111.702 20.019C111.222 20.009 110.732 19.989 110.252 19.969C109.772 19.909 109.292 19.859 108.802 19.809L109.592 12.969C109.842 10.839 110.062 8.75897 110.282 6.67897V6.65897ZM48.3922 12.749C46.1122 10.779 44.5522 8.02897 43.9422 5.10897L43.7722 3.99897L43.7122 2.87897C43.6722 2.50897 43.7222 2.13897 43.7322 1.75897V1.63897H43.7722L48.3622 2.08897C51.4222 2.39897 54.4822 2.69897 57.5422 2.96897C63.6622 3.53897 69.8022 3.99897 75.9222 4.51897C86.9522 5.43897 98.0122 6.05897 109.072 6.59897C108.982 8.81897 108.882 11.029 108.822 13.209L108.632 19.779C104.502 19.309 100.372 18.859 96.2422 18.459C91.0522 17.969 85.8622 17.519 80.6722 17.129C75.4822 16.739 70.2722 16.469 65.0722 16.139C61.3022 15.919 57.5322 15.739 53.7622 15.569C53.2422 15.429 52.7222 15.279 52.2222 15.089C50.8122 14.549 49.5422 13.719 48.3922 12.749ZM43.4022 159.379C42.9022 157.379 42.6822 155.309 42.7522 153.249C42.8422 151.199 43.0622 149.039 43.2122 146.949L45.2122 121.619C47.8022 88.189 50.3022 54.739 52.6422 21.289L80.5122 23.199L109.402 25.119L123.122 25.989C123.252 25.999 123.382 26.019 123.512 26.029C128.682 26.519 133.892 26.999 139.182 27.339C144.472 27.659 149.802 27.819 155.062 28.059C156.052 28.109 157.022 28.179 158.002 28.239C157.132 38.289 156.272 48.329 155.472 58.389L153.022 88.889L150.642 119.389L146.712 172.789C146.682 173.089 146.672 173.459 146.642 173.709C146.622 173.969 146.562 174.229 146.502 174.489C146.362 174.999 146.152 175.489 145.872 175.939C145.292 176.819 144.452 177.549 143.462 177.919C142.972 178.109 142.452 178.239 141.922 178.269C141.652 178.299 141.412 178.269 141.102 178.269L140.152 178.199L136.332 177.939L113.442 176.349L52.3922 172.309C51.3822 171.609 50.4222 170.829 49.5322 169.979C46.5522 167.109 44.3922 163.389 43.4022 159.389V159.379ZM133.132 181.159L123.622 180.559L98.2722 178.829C97.6522 178.789 97.0422 178.739 96.4222 178.699C92.1822 178.379 87.9322 178.059 83.6922 177.749L67.6722 176.499L63.6722 176.179C62.3522 176.089 61.0622 175.879 59.7822 175.569C58.0122 175.129 56.3022 174.459 54.6922 173.609L113.292 178.219L139.982 180.239L140.862 180.309C139.352 180.759 137.802 181.049 136.222 181.139C135.192 181.269 134.162 181.169 133.122 181.169L133.132 181.159ZM167.002 28.929C165.182 50.429 163.422 71.709 161.742 92.929L159.272 124.849C158.452 135.479 157.752 146.099 157.002 156.739L156.682 161.779C156.432 163.719 156.032 165.619 155.222 167.409C154.862 168.369 154.362 169.259 153.882 170.169C153.322 171.029 152.802 171.919 152.142 172.699C151.532 173.529 150.792 174.249 150.092 174.999C149.312 175.669 148.572 176.379 147.712 176.959C147.712 176.959 147.712 176.959 147.702 176.959C148.072 176.359 148.362 175.709 148.552 175.029C148.642 174.669 148.722 174.299 148.752 173.929C148.802 173.549 148.812 173.279 148.842 172.939L152.642 119.529L154.672 88.999L156.642 58.469C157.292 48.409 157.892 38.339 158.472 28.269C161.332 28.449 164.182 28.659 167.022 28.919L167.002 28.929ZM155.722 176.759C155.702 178.049 155.312 179.169 154.582 180.149C153.842 181.099 152.802 181.829 151.622 182.129C151.032 182.289 150.432 182.339 149.822 182.319L147.822 182.189L140.052 181.699C140.942 181.499 141.822 181.259 142.682 180.969C144.742 180.289 146.692 179.269 148.472 178.019C149.382 177.419 150.192 176.689 151.022 175.989C151.782 175.209 152.582 174.459 153.242 173.589C153.962 172.769 154.532 171.829 155.142 170.929C155.512 170.259 155.892 169.589 156.232 168.899L155.982 172.759L155.732 176.769L155.722 176.759ZM178.712 11.529C178.662 11.899 178.662 12.279 178.572 12.639L178.352 13.739L178.022 14.809C177.002 17.619 175.062 20.109 172.512 21.729C171.242 22.519 169.852 23.169 168.382 23.489C167.852 23.609 167.322 23.689 166.792 23.749C163.032 23.369 159.282 22.999 155.522 22.679C150.332 22.249 145.142 21.769 139.942 21.409C134.742 21.049 129.542 20.739 124.342 20.479C120.192 20.279 116.042 20.119 111.892 19.999L112.652 13.469C112.912 11.309 113.132 9.10897 113.362 6.89897C124.382 7.95897 135.412 8.93897 146.462 9.61897C152.602 9.98897 158.732 10.419 164.882 10.729C167.952 10.909 171.022 11.049 174.102 11.179L178.712 11.399H178.742L178.732 11.519L178.712 11.529Z" fill="black"/>
<path d="M68.8322 163.289C68.7022 165.109 67.1222 166.469 65.3022 166.339C63.4822 166.209 62.1222 164.629 62.2522 162.809C62.3822 160.989 63.9622 159.629 65.7822 159.759C67.6022 159.889 68.9622 161.469 68.8322 163.289Z" fill="white"/>
<path d="M84.1822 164.399C84.0522 166.219 82.4722 167.579 80.6522 167.449C78.8322 167.319 77.4722 165.739 77.6022 163.919C77.7322 162.099 79.3122 160.739 81.1322 160.869C82.9522 160.999 84.3122 162.579 84.1822 164.399Z" fill="white"/>
<path d="M99.5222 165.509C99.3922 167.329 97.8122 168.689 95.9922 168.559C94.1722 168.429 92.8122 166.849 92.9422 165.029C93.0722 163.209 94.6522 161.849 96.4722 161.979C98.2922 162.109 99.6522 163.689 99.5222 165.509Z" fill="white"/>
<path d="M114.862 166.619C114.732 168.439 113.152 169.799 111.332 169.669C109.512 169.539 108.152 167.959 108.282 166.139C108.412 164.319 109.992 162.959 111.812 163.089C113.632 163.219 114.992 164.799 114.862 166.619Z" fill="white"/>
<path d="M130.212 167.729C130.082 169.549 128.502 170.909 126.682 170.779C124.862 170.649 123.502 169.069 123.632 167.249C123.762 165.429 125.342 164.069 127.162 164.199C128.982 164.329 130.342 165.909 130.212 167.729Z" fill="white"/>
<path d="M92.7641 156.301C92.8423 154.48 91.4296 152.941 89.6088 152.863C87.7879 152.784 86.2484 154.197 86.1702 156.018C86.0919 157.839 87.5046 159.378 89.3255 159.457C91.1463 159.535 92.6858 158.122 92.7641 156.301Z" fill="white"/>
<path d="M108.092 157.499C107.962 159.319 106.382 160.679 104.562 160.549C102.742 160.419 101.382 158.839 101.512 157.019C101.642 155.199 103.222 153.839 105.042 153.969C106.862 154.099 108.222 155.679 108.092 157.499Z" fill="white"/>
<path d="M67.4622 159.239C66.9822 158.939 66.4322 158.759 65.8622 158.699C64.7222 158.579 63.5522 159.059 62.7722 159.849C61.9622 160.619 61.5822 161.769 61.7122 162.779C61.8322 163.799 62.2422 164.669 62.8122 165.429C63.3622 166.169 64.1522 166.969 65.2522 167.179C66.3222 167.409 67.5322 166.929 68.1222 166.029C68.7322 165.129 68.8422 164.159 68.9422 163.299C69.0022 162.429 69.0222 161.449 68.5522 160.459C68.3122 159.979 67.9422 159.539 67.4722 159.239H67.4622ZM67.2822 165.069C66.5722 165.309 66.0122 165.419 65.3622 165.519C64.7322 165.619 63.8622 165.579 63.2922 165.009C62.7222 164.459 62.5522 163.569 62.8022 162.859C63.0522 162.149 63.5122 161.639 64.0022 161.279C64.5322 160.929 65.1222 160.829 65.7022 160.829C66.2922 160.849 66.8622 161.009 67.5322 161.329C68.2022 161.649 68.8022 162.429 68.7322 163.279C68.7022 164.149 67.9822 164.829 67.2822 165.059V165.069Z" fill="black"/>
<path d="M82.8022 160.349C82.3222 160.049 81.7722 159.869 81.2022 159.809C80.0622 159.689 78.8922 160.169 78.1122 160.959C77.3022 161.729 76.9222 162.879 77.0522 163.889C77.1722 164.909 77.5822 165.779 78.1522 166.539C78.7022 167.279 79.4922 168.079 80.5922 168.289C81.6622 168.519 82.8722 168.039 83.4622 167.139C84.0722 166.239 84.1822 165.269 84.2822 164.409C84.3422 163.539 84.3622 162.559 83.8922 161.569C83.6522 161.089 83.2822 160.649 82.8122 160.349H82.8022ZM82.6322 166.179C81.9222 166.419 81.3622 166.529 80.7122 166.629C80.0822 166.719 79.2122 166.689 78.6422 166.119C78.0722 165.569 77.9022 164.679 78.1522 163.969C78.4022 163.259 78.8622 162.749 79.3522 162.389C79.8822 162.039 80.4722 161.939 81.0522 161.939C81.6422 161.959 82.2122 162.119 82.8822 162.439C83.5522 162.759 84.1522 163.539 84.0822 164.389C84.0522 165.259 83.3322 165.939 82.6322 166.169V166.179Z" fill="black"/>
<path d="M98.1422 161.459C97.6622 161.159 97.1122 160.979 96.5422 160.919C95.4022 160.799 94.2322 161.279 93.4522 162.069C92.6422 162.839 92.2622 163.989 92.3922 164.999C92.5122 166.019 92.9222 166.889 93.4922 167.649C94.0422 168.389 94.8322 169.189 95.9322 169.399C97.0022 169.629 98.2122 169.149 98.8022 168.249C99.4122 167.349 99.5222 166.379 99.6222 165.519C99.6822 164.649 99.7022 163.669 99.2322 162.679C98.9922 162.199 98.6222 161.759 98.1522 161.459H98.1422ZM97.9722 167.289C97.2622 167.529 96.7022 167.639 96.0522 167.739C95.4222 167.839 94.5522 167.799 93.9822 167.229C93.4122 166.679 93.2422 165.789 93.4922 165.079C93.7422 164.369 94.2022 163.859 94.6922 163.499C95.2222 163.149 95.8122 163.049 96.3922 163.049C96.9822 163.069 97.5522 163.229 98.2222 163.549C98.8922 163.869 99.4922 164.649 99.4222 165.499C99.3922 166.369 98.6722 167.049 97.9722 167.279V167.289Z" fill="black"/>
<path d="M114.572 163.789C114.332 163.309 113.962 162.869 113.492 162.569C113.012 162.269 112.462 162.089 111.892 162.029C110.752 161.909 109.582 162.389 108.802 163.179C107.992 163.949 107.612 165.099 107.742 166.109C107.862 167.129 108.272 167.999 108.842 168.759C109.392 169.499 110.182 170.299 111.282 170.509C112.352 170.739 113.562 170.259 114.152 169.359C114.762 168.459 114.872 167.489 114.972 166.629C115.032 165.759 115.052 164.779 114.582 163.789H114.572ZM113.322 168.399C112.612 168.639 112.052 168.749 111.402 168.849C110.772 168.939 109.902 168.909 109.332 168.339C108.762 167.789 108.592 166.899 108.842 166.189C109.092 165.479 109.552 164.969 110.042 164.609C110.572 164.259 111.162 164.159 111.742 164.159C112.332 164.179 112.902 164.339 113.572 164.659C114.242 164.979 114.842 165.759 114.772 166.609C114.742 167.479 114.022 168.159 113.322 168.389V168.399Z" fill="black"/>
<path d="M77.1122 152.449C76.8722 151.969 76.5022 151.529 76.0322 151.229C75.5522 150.929 75.0022 150.749 74.4322 150.689C73.2922 150.569 72.1222 151.049 71.3422 151.839C70.5322 152.609 70.1522 153.759 70.2822 154.769C70.4022 155.789 70.8122 156.659 71.3822 157.419C71.9322 158.159 72.7222 158.959 73.8222 159.169C74.8922 159.399 76.1022 158.919 76.6922 158.019C77.3022 157.119 77.4122 156.149 77.5122 155.289C77.5722 154.419 77.5922 153.439 77.1222 152.449H77.1122ZM75.8622 157.059C75.1522 157.299 74.5922 157.409 73.9422 157.509C73.3122 157.599 72.4422 157.569 71.8722 156.999C71.3022 156.449 71.1322 155.559 71.3822 154.849C71.6322 154.139 72.0922 153.629 72.5822 153.269C73.1122 152.919 73.7022 152.819 74.2822 152.819C74.8722 152.839 75.4422 152.999 76.1122 153.319C76.7822 153.639 77.3822 154.419 77.3122 155.269C77.2822 156.139 76.5622 156.819 75.8622 157.049V157.059Z" fill="black"/>
<path d="M92.4622 153.559C92.2222 153.079 91.8522 152.639 91.3822 152.339C90.9022 152.039 90.3522 151.859 89.7822 151.799C88.6422 151.679 87.4722 152.159 86.6922 152.949C85.8822 153.719 85.5022 154.869 85.6322 155.879C85.7522 156.899 86.1622 157.769 86.7322 158.529C87.2822 159.269 88.0722 160.069 89.1722 160.279C90.2422 160.509 91.4522 160.029 92.0422 159.129C92.6522 158.229 92.7622 157.259 92.8622 156.399C92.9222 155.529 92.9422 154.549 92.4722 153.559H92.4622ZM91.2022 158.169C90.4922 158.409 89.9322 158.519 89.2822 158.619C88.6522 158.719 87.7822 158.679 87.2122 158.109C86.6422 157.559 86.4722 156.669 86.7222 155.959C86.9722 155.249 87.4322 154.739 87.9222 154.379C88.4522 154.029 89.0422 153.929 89.6222 153.929C90.2122 153.949 90.7822 154.109 91.4522 154.429C92.1222 154.749 92.7222 155.529 92.6522 156.379C92.6222 157.249 91.9022 157.929 91.2022 158.159V158.169Z" fill="black"/>
<path d="M107.802 154.669C107.562 154.189 107.192 153.749 106.722 153.449C106.242 153.149 105.692 152.969 105.122 152.909C103.982 152.789 102.812 153.269 102.032 154.059C101.222 154.829 100.842 155.979 100.972 156.989C101.092 158.009 101.502 158.879 102.072 159.639C102.622 160.379 103.412 161.179 104.512 161.389C105.582 161.619 106.792 161.139 107.382 160.239C107.992 159.339 108.102 158.369 108.202 157.509C108.262 156.639 108.282 155.659 107.812 154.669H107.802ZM106.542 159.279C105.832 159.519 105.272 159.629 104.622 159.729C103.992 159.819 103.122 159.789 102.552 159.219C101.982 158.669 101.812 157.779 102.062 157.069C102.312 156.359 102.772 155.849 103.262 155.489C103.792 155.139 104.382 155.039 104.962 155.039C105.552 155.059 106.122 155.219 106.792 155.539C107.462 155.859 108.062 156.639 107.992 157.489C107.962 158.359 107.242 159.039 106.542 159.269V159.279Z" fill="black"/>
<path d="M123.442 158.609C123.312 160.429 121.732 161.789 119.912 161.659C118.092 161.529 116.732 159.949 116.862 158.129C116.992 156.309 118.572 154.949 120.392 155.079C122.212 155.209 123.572 156.789 123.442 158.609Z" fill="white"/>
<path d="M129.922 164.899C129.682 164.419 129.312 163.979 128.842 163.679C128.362 163.379 127.812 163.199 127.242 163.139C126.102 163.019 124.932 163.499 124.152 164.289C123.342 165.059 122.962 166.209 123.092 167.219C123.212 168.239 123.622 169.109 124.192 169.869C124.742 170.609 125.532 171.409 126.632 171.619C127.702 171.849 128.912 171.369 129.502 170.469C130.112 169.569 130.222 168.599 130.322 167.739C130.382 166.869 130.402 165.889 129.932 164.899H129.922ZM128.662 169.509C127.952 169.749 127.392 169.859 126.742 169.959C126.112 170.059 125.242 170.019 124.672 169.449C124.102 168.899 123.932 168.009 124.182 167.299C124.432 166.589 124.892 166.079 125.382 165.719C125.912 165.369 126.502 165.269 127.082 165.269C127.672 165.289 128.242 165.449 128.912 165.769C129.582 166.089 130.182 166.869 130.112 167.719C130.082 168.589 129.362 169.269 128.662 169.499V169.509Z" fill="black"/>
<path d="M123.142 155.779C122.902 155.299 122.532 154.859 122.062 154.559C121.582 154.259 121.032 154.079 120.462 154.019C119.322 153.899 118.152 154.379 117.372 155.169C116.562 155.939 116.182 157.089 116.312 158.099C116.432 159.119 116.842 159.989 117.412 160.749C117.962 161.489 118.752 162.289 119.852 162.499C120.922 162.729 122.132 162.249 122.722 161.349C123.332 160.449 123.442 159.479 123.542 158.619C123.602 157.749 123.622 156.769 123.152 155.779H123.142ZM121.892 160.389C121.182 160.629 120.622 160.739 119.972 160.839C119.342 160.939 118.472 160.899 117.902 160.329C117.332 159.779 117.162 158.889 117.412 158.179C117.662 157.469 118.122 156.959 118.612 156.599C119.142 156.249 119.732 156.149 120.312 156.149C120.902 156.169 121.472 156.329 122.142 156.649C122.812 156.969 123.412 157.749 123.342 158.599C123.312 159.469 122.592 160.149 121.892 160.379V160.389Z" fill="black"/>
<path d="M147.552 61.709C140.802 61.049 134.042 60.509 127.282 59.949C120.522 59.369 113.762 58.819 107.002 58.339C100.242 57.819 93.4722 57.379 86.7022 56.919L66.3922 55.649C66.2422 55.649 66.1122 55.749 66.1022 55.899L66.0322 57.129C66.0322 57.269 66.1222 57.389 66.2622 57.409C73.0322 58.069 79.7822 58.729 86.5422 59.529L106.892 61.949C113.682 62.729 120.442 63.389 127.192 64.079C133.932 64.749 140.642 65.379 147.282 65.979L147.622 61.809C147.622 61.809 147.592 61.729 147.552 61.729V61.709Z" fill="black"/>
<path d="M89.0122 52.929L118.392 2.44897L164.332 27.619L146.372 57.079L89.0122 52.929Z" fill="url(#paint2_linear_2310_97399)"/>
<path d="M164.692 26.969L153.082 20.909C149.202 18.899 145.362 16.829 141.522 14.749C133.822 10.629 126.282 6.22897 118.722 1.85897C118.412 1.67897 118.022 1.77897 117.842 2.07897L117.822 2.10897C115.252 6.29897 112.672 10.529 110.202 14.809C107.712 19.089 105.292 23.389 102.892 27.669L95.8222 40.449L88.9322 52.979L117.252 55.699C122.062 56.139 126.882 56.609 131.742 57.009C136.592 57.419 141.452 57.809 146.312 58.139H146.322C146.702 58.169 147.082 57.979 147.292 57.629L156.172 42.839C159.142 37.909 162.052 32.959 164.972 28.009V27.989L165.002 27.959C165.192 27.599 165.052 27.159 164.692 26.969ZM154.542 41.859L145.812 55.979C141.322 55.639 136.842 55.349 132.342 55.079C127.642 54.789 122.902 54.569 118.142 54.319L111.052 53.969L124.092 47.769L119.742 8.00897L122.132 45.609L108.042 53.809L89.0922 52.879L104.512 27.699C107.002 23.569 109.482 19.459 111.892 15.319C114.212 11.369 116.432 7.36897 118.652 3.33897C126.212 7.24897 133.772 11.149 141.192 15.319C145.012 17.439 148.822 19.559 152.602 21.749L163.272 27.879C160.342 32.529 157.412 37.179 154.532 41.849L154.542 41.859Z" fill="black"/>
<path d="M65.5103 63.628L64.026 84.1344L145.194 90.0095L146.678 69.5031L65.5103 63.628Z" fill="white"/>
<path d="M146.752 68.819H146.722L126.452 67.039C119.692 66.489 112.932 65.969 106.162 65.509L85.8622 64.199C79.0922 63.789 72.3222 63.409 65.5422 63.079H65.5222C65.2222 63.059 64.9722 63.289 64.9622 63.589L64.4022 73.859L63.7322 84.119C63.7222 84.289 63.8422 84.429 64.0122 84.439C70.7922 84.919 77.5722 85.579 84.4022 86.219C91.2222 86.859 98.0922 87.489 104.902 87.929C111.712 88.369 118.522 88.799 125.252 89.139L135.322 89.659L145.262 90.089L146.342 79.959L147.372 69.559C147.402 69.179 147.132 68.859 146.762 68.829L146.752 68.819ZM145.122 89.929L134.772 88.889L124.552 87.939C117.752 87.299 111.042 86.749 104.322 86.209C97.6122 85.669 90.9522 85.319 84.2422 84.979C77.6422 84.649 70.9922 84.329 64.3422 83.849L65.1322 73.899L66.0022 64.209C72.5722 64.839 79.1522 65.419 85.7322 65.979L106.012 67.609C112.772 68.129 119.542 68.579 126.312 69.019L145.962 70.139L145.542 79.549L145.132 89.929H145.122Z" fill="black"/>
<path d="M86.5322 69.799L79.9522 69.449C79.6622 69.419 79.4522 69.639 79.4222 69.909C79.1222 73.299 78.8722 76.769 78.6522 80.229C78.6322 80.509 78.8422 80.739 79.1222 80.759C79.4222 80.779 79.6322 80.569 79.6522 80.289C79.8522 77.009 80.1022 73.709 80.3722 70.479L85.9922 70.779C85.9522 73.999 85.8322 77.259 85.6422 80.499C85.6222 80.779 85.8322 81.009 86.1122 81.029C86.1122 81.029 86.1322 81.029 86.1422 81.029C86.4022 81.029 86.6222 80.819 86.6422 80.559C86.8422 77.149 86.9622 73.699 87.0022 70.319C87.0022 70.049 86.7922 69.829 86.5322 69.819V69.799Z" fill="black"/>
<path d="M95.1022 70.249C93.7822 70.159 92.5022 70.639 91.5022 71.609C90.5122 72.569 89.9122 73.879 89.8122 75.319C89.7122 76.759 90.1122 78.149 90.9522 79.239C91.8022 80.339 93.0022 81.009 94.3222 81.099C94.4322 81.099 94.5422 81.109 94.6422 81.109C97.2122 81.109 99.4022 78.899 99.6122 76.029C99.8322 73.039 97.8022 70.449 95.1022 70.249ZM94.3922 80.099C93.3622 80.029 92.4222 79.499 91.7422 78.629C91.0522 77.739 90.7222 76.589 90.8122 75.399C90.9022 74.209 91.3922 73.119 92.2022 72.329C92.9322 71.619 93.8422 71.239 94.7822 71.239C94.8622 71.239 94.9522 71.239 95.0322 71.239C97.1822 71.399 98.7922 73.509 98.6122 75.949C98.4322 78.389 96.5222 80.269 94.3822 80.089L94.3922 80.099Z" fill="black"/>
<path d="M108.382 71.629C108.112 71.609 107.862 71.809 107.842 72.089C107.692 73.919 107.502 75.749 107.292 77.579C107.262 77.599 107.232 77.609 107.212 77.629C107.072 77.759 106.712 77.719 106.512 77.709C105.832 77.649 105.122 77.589 104.502 77.329C103.892 77.079 103.442 76.629 103.312 76.139C103.232 75.859 103.252 75.519 103.262 75.229C103.312 73.939 103.402 72.639 103.522 71.369C103.552 71.089 103.342 70.849 103.072 70.829C102.802 70.809 102.552 71.009 102.532 71.279C102.412 72.569 102.322 73.889 102.272 75.189C102.262 75.539 102.242 75.979 102.362 76.399C102.582 77.199 103.222 77.879 104.142 78.249C104.902 78.559 105.722 78.629 106.442 78.699C106.552 78.699 106.682 78.719 106.832 78.719C106.942 78.719 107.052 78.709 107.172 78.689C107.042 79.729 106.922 80.769 106.772 81.799C106.732 82.069 106.922 82.329 107.192 82.369C107.212 82.369 107.242 82.369 107.262 82.369C107.502 82.369 107.722 82.189 107.752 81.939C108.232 78.699 108.602 75.409 108.862 72.159C108.882 71.879 108.682 71.639 108.402 71.619L108.382 71.629Z" fill="black"/>
<path d="M121.332 72.219L112.122 71.549C111.842 71.529 111.612 71.739 111.582 72.009C111.562 72.289 111.772 72.519 112.042 72.549L116.052 72.839L115.362 82.329C115.342 82.609 115.552 82.839 115.822 82.869C115.832 82.869 115.842 82.869 115.862 82.869C116.122 82.869 116.342 82.669 116.362 82.409L117.052 72.919L121.252 73.219C121.252 73.219 121.272 73.219 121.292 73.219C121.552 73.219 121.772 73.019 121.792 72.759C121.812 72.479 121.602 72.249 121.332 72.219Z" fill="black"/>
<path d="M132.772 79.539C132.772 79.399 132.732 79.269 132.652 79.179C132.602 78.649 132.522 78.119 132.432 77.599C132.232 76.519 131.872 75.159 130.892 74.229C130.012 73.409 128.892 73.139 128.102 73.059C127.762 73.029 127.252 72.999 126.772 73.179C125.602 73.589 125.102 74.849 124.792 75.899C124.112 78.249 123.632 80.679 123.362 83.109C123.332 83.379 123.532 83.629 123.802 83.659C124.062 83.689 124.322 83.489 124.352 83.219C124.492 81.969 124.692 80.719 124.942 79.479L131.702 79.969C131.792 81.319 131.742 82.669 131.542 84.009C131.502 84.279 131.692 84.539 131.962 84.579C131.992 84.579 132.012 84.579 132.042 84.579C132.282 84.579 132.502 84.399 132.532 84.159C132.752 82.699 132.802 81.239 132.702 79.779C132.742 79.709 132.782 79.639 132.782 79.549L132.772 79.539ZM125.152 78.489C125.332 77.709 125.522 76.939 125.742 76.179C125.982 75.359 126.352 74.389 127.092 74.119C127.322 74.039 127.612 74.019 127.992 74.059C128.622 74.119 129.522 74.329 130.192 74.959C130.972 75.689 131.272 76.849 131.442 77.789C131.512 78.179 131.562 78.569 131.612 78.969L125.152 78.499V78.489Z" fill="black"/>
<path d="M150.222 50.899C150.672 52.189 150.522 53.699 149.812 54.929C149.112 56.169 147.862 57.129 146.412 57.429C145.692 57.599 144.922 57.559 144.292 57.529L142.302 57.449L138.322 57.269C133.022 56.999 127.722 56.679 122.432 56.179C117.152 55.649 111.872 54.979 106.582 54.519C101.292 54.059 95.9922 53.799 90.6822 53.589C85.3722 53.399 80.0722 53.159 74.7722 52.829L68.8122 52.469C68.4622 52.449 68.1822 52.439 67.7822 52.399C67.3822 52.359 66.9822 52.289 66.6022 52.169C65.0522 51.699 63.7322 50.549 63.0522 49.079C62.3522 47.609 62.3022 45.859 62.9222 44.359C63.5422 42.859 64.7922 41.649 66.3122 41.089C67.0622 40.809 67.8822 40.689 68.6722 40.729C69.3822 40.769 70.0122 40.849 70.6822 40.899L78.6122 41.659C83.8922 42.209 89.1722 42.779 94.4422 43.489C94.4922 43.489 94.5322 43.549 94.5322 43.599C94.5322 43.649 94.4822 43.689 94.4322 43.689C89.1122 43.639 83.8022 43.439 78.5022 43.229L70.5522 42.839L68.5922 42.739C68.0622 42.719 67.5422 42.809 67.0522 43.009C66.0822 43.389 65.2822 44.199 64.9122 45.159C64.5322 46.119 64.5422 47.239 64.9922 48.179C65.4322 49.119 66.2722 49.859 67.2522 50.189C67.5022 50.279 67.7522 50.329 68.0122 50.359C68.2722 50.399 68.6522 50.419 68.9722 50.449L74.9222 50.959C80.2122 51.399 85.4922 51.929 90.7722 52.499C96.0522 53.059 101.342 53.559 106.642 53.869C111.942 54.179 117.252 54.269 122.562 54.509C127.862 54.779 133.152 55.219 138.442 55.719L142.402 56.109L144.382 56.309C145.072 56.389 145.642 56.469 146.222 56.379C147.392 56.219 148.522 55.569 149.242 54.559C149.962 53.559 150.262 52.229 150.032 50.939C150.032 50.889 150.062 50.829 150.112 50.819C150.162 50.819 150.212 50.839 150.222 50.889V50.899Z" fill="black"/>
<path d="M96.3422 218.949C104.941 218.949 111.912 211.978 111.912 203.379C111.912 194.78 104.941 187.809 96.3422 187.809C87.7431 187.809 80.7722 194.78 80.7722 203.379C80.7722 211.978 87.7431 218.949 96.3422 218.949Z" fill="white"/>
<path d="M105.652 190.779C108.922 193.219 111.502 196.779 112.382 200.979C113.332 205.139 112.242 209.779 109.552 213.149C106.862 216.549 102.812 218.589 98.6922 219.109C94.5722 219.679 90.2522 218.739 86.7422 216.359C83.2122 214.029 80.6522 210.119 79.9722 205.839C79.2322 201.569 80.2822 196.969 82.9222 193.469C85.5322 189.969 89.6522 187.609 93.9222 187.309C98.1922 186.939 102.372 188.349 105.652 190.779ZM105.532 190.949C102.262 188.499 97.9322 187.799 94.1322 188.669C90.3322 189.549 86.9322 191.709 84.7122 194.789C82.4822 197.839 81.4022 201.739 81.9122 205.539C82.4122 209.329 84.3722 212.939 87.4222 215.439C90.4622 217.939 94.6422 219.119 98.5922 218.439C102.552 217.779 106.012 215.299 108.152 212.119C110.342 208.939 111.372 205.079 111.082 201.169C110.782 197.279 108.842 193.339 105.532 190.949Z" fill="black"/>
<path d="M90.9022 209.219C90.8322 209.009 90.9022 208.739 91.0022 208.569C91.1722 208.299 91.4522 208.329 91.7222 208.259C91.9522 208.209 91.9122 208.259 91.8922 208.009C91.8422 207.429 91.6622 206.859 91.6022 206.269C91.5322 205.639 91.5022 204.999 91.5122 204.359C91.5122 203.719 91.5622 203.079 91.6122 202.439C91.6422 202.119 91.6722 201.799 91.7122 201.479C91.7422 201.219 91.8522 200.839 91.7822 200.599C91.5822 200.649 91.3422 201.149 91.1822 201.319C90.9522 201.549 90.6822 201.749 90.3622 201.809C90.2822 201.829 90.1922 201.829 90.1122 201.809C89.8922 201.719 89.9222 201.399 90.0122 201.179C90.4122 200.169 91.3022 199.499 91.7722 198.529C91.9622 198.139 91.9822 197.669 92.2222 197.309C92.2822 197.189 92.4022 197.099 92.4822 197.049C92.6922 196.929 93.0422 196.929 93.2422 197.019C93.8022 197.259 93.9922 197.969 94.1422 198.509C94.5322 199.929 94.2922 201.479 94.2022 202.929C94.1522 203.789 94.0922 204.659 94.0222 205.519C93.9622 206.289 94.0422 207.279 93.7222 207.989C93.5822 208.299 93.5822 208.389 93.9122 208.469C94.1322 208.529 94.3722 208.749 94.3222 208.999C94.2622 209.279 93.9522 209.349 93.7122 209.379C93.0022 209.469 92.2922 209.529 91.5822 209.539C91.3722 209.539 91.1322 209.529 90.9922 209.359C90.9522 209.319 90.9322 209.259 90.9122 209.209L90.9022 209.219Z" fill="black"/>
<path d="M97.9522 208.839C97.1922 208.589 96.5122 208.199 96.0822 207.509C94.7022 205.259 94.7622 202.389 96.0222 200.109C96.5622 199.139 97.3922 198.079 98.4922 197.779C98.8822 197.669 99.2822 197.559 99.6922 197.589C100.602 197.669 101.262 198.419 101.682 199.169C102.792 201.149 102.692 203.369 102.112 205.499L101.992 205.789C101.932 205.849 101.872 205.999 101.842 206.109C101.752 206.369 101.552 206.779 101.432 206.929C100.982 207.499 100.762 208.099 100.122 208.509C99.4922 208.909 98.6622 209.109 97.9522 208.829V208.839ZM99.6422 207.369C99.7122 207.319 99.7722 207.269 99.8322 207.209C100.282 206.749 100.582 206.059 100.812 205.459C101.092 204.759 101.282 204.039 101.412 203.299C101.512 202.719 101.572 202.129 101.462 201.559C101.312 200.779 100.722 199.959 99.9622 199.669C99.7722 199.599 99.5622 199.589 99.3822 199.679C99.2522 199.749 99.1522 199.879 99.0722 200.009C98.5022 200.899 98.1422 202.019 98.0222 203.059C97.9322 203.799 97.9522 204.539 98.0422 205.279C98.1222 205.879 98.1822 206.659 98.5822 207.149C98.7722 207.389 99.0822 207.549 99.3822 207.479C99.4722 207.459 99.5622 207.419 99.6422 207.359V207.369Z" fill="black"/>
<defs>
<linearGradient id="paint0_linear_2310_97399" x1="0.492188" y1="109.915" x2="211.332" y2="109.915" gradientUnits="userSpaceOnUse">
<stop stop-color="#76B82A"/>
<stop offset="0.26" stop-color="#73B42A"/>
<stop offset="0.49" stop-color="#6DA92A"/>
<stop offset="0.72" stop-color="#61972A"/>
<stop offset="0.93" stop-color="#517D2B"/>
<stop offset="1" stop-color="#4C742C"/>
</linearGradient>
<linearGradient id="paint1_linear_2310_97399" x1="0.492188" y1="109.918" x2="211.342" y2="109.918" gradientUnits="userSpaceOnUse">
<stop stop-color="#0ABBEF"/>
<stop offset="0.24" stop-color="#0D9ACF"/>
<stop offset="0.76" stop-color="#14598E"/>
<stop offset="1" stop-color="#174075"/>
</linearGradient>
<linearGradient id="paint2_linear_2310_97399" x1="58.41" y1="221.153" x2="222.454" y2="57.2887" gradientUnits="userSpaceOnUse">
<stop stop-color="#A3A3A3"/>
<stop offset="1" stop-color="#ECECEC"/>
</linearGradient>
</defs>
</svg>
