<?xml version="1.0" encoding="UTF-8"?>
<svg id="Layer_2" data-name="Layer 2" xmlns="http://www.w3.org/2000/svg" xmlns:xlink="http://www.w3.org/1999/xlink" viewBox="0 0 205.6 149.93">
  <defs>
    <style>
      .cls-1 {
        fill: url(#_Безымянный_градиент_10-2);
      }

      .cls-1, .cls-2, .cls-3, .cls-4, .cls-5, .cls-6, .cls-7, .cls-8, .cls-9, .cls-10, .cls-11, .cls-12, .cls-13, .cls-14, .cls-15, .cls-16, .cls-17, .cls-18, .cls-19, .cls-20, .cls-21, .cls-22, .cls-23, .cls-24, .cls-25, .cls-26, .cls-27, .cls-28, .cls-29, .cls-30, .cls-31, .cls-32, .cls-33, .cls-34, .cls-35, .cls-36, .cls-37, .cls-38, .cls-39, .cls-40, .cls-41, .cls-42, .cls-43 {
        stroke-width: 0px;
      }

      .cls-2 {
        fill: url(#_Безымянный_градиент_4);
      }

      .cls-3 {
        fill: url(#_Безымянный_градиент_4-4);
      }

      .cls-4 {
        fill: url(#_Безымянный_градиент_2);
      }

      .cls-5 {
        fill: #000;
      }

      .cls-6 {
        fill: #0abbef;
      }

      .cls-7 {
        fill: url(#_Безымянный_градиент_4-3);
      }

      .cls-8 {
        fill: url(#_Безымянный_градиент_10-18);
      }

      .cls-9 {
        fill: url(#_Безымянный_градиент_10-24);
      }

      .cls-10 {
        fill: url(#_Безымянный_градиент_9);
      }

      .cls-11 {
        fill: url(#_Безымянный_градиент_10-16);
      }

      .cls-12 {
        fill: url(#_Безымянный_градиент_10-13);
      }

      .cls-13 {
        fill: url(#_Безымянный_градиент_10-12);
      }

      .cls-14 {
        fill: url(#_Безымянный_градиент_4-6);
      }

      .cls-15 {
        fill: url(#_Безымянный_градиент_10-23);
      }

      .cls-16 {
        fill: url(#_Безымянный_градиент_10-20);
      }

      .cls-17 {
        fill: url(#_Безымянный_градиент_10-7);
      }

      .cls-18 {
        fill: url(#_Безымянный_градиент_4-8);
      }

      .cls-19 {
        fill: url(#_Безымянный_градиент_10-25);
      }

      .cls-20 {
        fill: url(#_Безымянный_градиент_10-6);
      }

      .cls-21 {
        fill: url(#_Безымянный_градиент_10);
      }

      .cls-22 {
        fill: url(#_Безымянный_градиент_4-2);
      }

      .cls-23 {
        fill: url(#_Безымянный_градиент_4-7);
      }

      .cls-24 {
        fill: url(#_Безымянный_градиент_4-5);
      }

      .cls-25 {
        fill: url(#_Безымянный_градиент_10-5);
      }

      .cls-26 {
        fill: url(#_Безымянный_градиент_10-15);
      }

      .cls-27 {
        fill: url(#_Безымянный_градиент_10-21);
      }

      .cls-28 {
        fill: url(#_Безымянный_градиент_10-17);
      }

      .cls-29 {
        fill: url(#_Безымянный_градиент_10-3);
      }

      .cls-30 {
        fill: url(#_Безымянный_градиент_4-9);
      }

      .cls-31 {
        fill: url(#_Безымянный_градиент_4-11);
      }

      .cls-32 {
        fill: url(#_Безымянный_градиент_10-22);
      }

      .cls-33 {
        fill: url(#_Безымянный_градиент_10-11);
      }

      .cls-34 {
        fill: url(#_Безымянный_градиент_4-12);
      }

      .cls-35 {
        fill: url(#_Безымянный_градиент_10-9);
      }

      .cls-36 {
        fill: #fff;
      }

      .cls-37 {
        fill: url(#_Безымянный_градиент_10-10);
      }

      .cls-38 {
        fill: url(#_Безымянный_градиент_10-14);
      }

      .cls-39 {
        fill: url(#_Безымянный_градиент_10-19);
      }

      .cls-40 {
        fill: url(#_Безымянный_градиент_7);
      }

      .cls-41 {
        fill: url(#_Безымянный_градиент_10-4);
      }

      .cls-42 {
        fill: url(#_Безымянный_градиент_4-10);
      }

      .cls-43 {
        fill: url(#_Безымянный_градиент_10-8);
      }
    </style>
    <linearGradient id="_Безымянный_градиент_2" data-name="Безымянный градиент 2" x1="1.5" y1="84.33" x2="205.6" y2="84.33" gradientUnits="userSpaceOnUse">
      <stop offset="0" stop-color="#76b82a"/>
      <stop offset=".26" stop-color="#73b42a"/>
      <stop offset=".49" stop-color="#6da92a"/>
      <stop offset=".72" stop-color="#61972a"/>
      <stop offset=".93" stop-color="#517d2b"/>
      <stop offset="1" stop-color="#4c742c"/>
    </linearGradient>
    <linearGradient id="_Безымянный_градиент_9" data-name="Безымянный градиент 9" x1="45.05" y1="40.22" x2="45.05" y2="10.7" gradientUnits="userSpaceOnUse">
      <stop offset="0" stop-color="#ee882c"/>
      <stop offset=".19" stop-color="#ee8c2a"/>
      <stop offset=".4" stop-color="#f09824"/>
      <stop offset=".6" stop-color="#f4ad1b"/>
      <stop offset=".8" stop-color="#f9c90f"/>
      <stop offset="1" stop-color="#ffed00"/>
    </linearGradient>
    <linearGradient id="_Безымянный_градиент_7" data-name="Безымянный градиент 7" x1="139.49" y1="40.22" x2="139.49" y2="10.7" gradientUnits="userSpaceOnUse">
      <stop offset="0" stop-color="#ee882c"/>
      <stop offset=".29" stop-color="#f2a120"/>
      <stop offset=".91" stop-color="#fde204"/>
      <stop offset="1" stop-color="#ffed00"/>
    </linearGradient>
    <linearGradient id="_Безымянный_градиент_10" data-name="Безымянный градиент 10" x1="84.92" y1="89.75" x2="98.96" y2="89.75" gradientUnits="userSpaceOnUse">
      <stop offset="0" stop-color="#ffed00"/>
      <stop offset=".09" stop-color="#fde204"/>
      <stop offset=".71" stop-color="#f2a120"/>
      <stop offset="1" stop-color="#ee882c"/>
    </linearGradient>
    <linearGradient id="_Безымянный_градиент_10-2" data-name="Безымянный градиент 10" x1="36.57" y1="54.73" x2="39.98" y2="54.73" xlink:href="#_Безымянный_градиент_10"/>
    <linearGradient id="_Безымянный_градиент_10-3" data-name="Безымянный градиент 10" x1="41.62" y1="59.5" x2="45.03" y2="59.5" xlink:href="#_Безымянный_градиент_10"/>
    <linearGradient id="_Безымянный_градиент_10-4" data-name="Безымянный градиент 10" x1="36.49" y1="64.52" x2="39.9" y2="64.52" xlink:href="#_Безымянный_градиент_10"/>
    <linearGradient id="_Безымянный_градиент_10-5" data-name="Безымянный градиент 10" x1="41.76" y1="64.72" x2="45.17" y2="64.72" xlink:href="#_Безымянный_градиент_10"/>
    <linearGradient id="_Безымянный_градиент_10-6" data-name="Безымянный градиент 10" x1="36.49" y1="59.72" x2="39.9" y2="59.72" xlink:href="#_Безымянный_градиент_10"/>
    <linearGradient id="_Безымянный_градиент_10-7" data-name="Безымянный градиент 10" x1="41.62" y1="54.73" x2="45.03" y2="54.73" xlink:href="#_Безымянный_градиент_10"/>
    <linearGradient id="_Безымянный_градиент_10-8" data-name="Безымянный градиент 10" x1="15.69" y1="82.35" x2="19.1" y2="82.35" xlink:href="#_Безымянный_градиент_10"/>
    <linearGradient id="_Безымянный_градиент_10-9" data-name="Безымянный градиент 10" x1="20.82" y1="82.35" x2="24.23" y2="82.35" xlink:href="#_Безымянный_градиент_10"/>
    <linearGradient id="_Безымянный_градиент_10-10" data-name="Безымянный градиент 10" x1="15.77" y1="87.25" x2="19.18" y2="87.25" xlink:href="#_Безымянный_градиент_10"/>
    <linearGradient id="_Безымянный_градиент_10-11" data-name="Безымянный градиент 10" x1="20.82" y1="87.34" x2="24.23" y2="87.34" xlink:href="#_Безымянный_градиент_10"/>
    <linearGradient id="_Безымянный_градиент_10-12" data-name="Безымянный градиент 10" x1="20.82" y1="92.22" x2="24.23" y2="92.22" xlink:href="#_Безымянный_градиент_10"/>
    <linearGradient id="_Безымянный_градиент_10-13" data-name="Безымянный градиент 10" x1="15.69" y1="92.34" x2="19.1" y2="92.34" xlink:href="#_Безымянный_градиент_10"/>
    <linearGradient id="_Безымянный_градиент_10-14" data-name="Безымянный градиент 10" x1="159.22" y1="82.35" x2="162.63" y2="82.35" xlink:href="#_Безымянный_градиент_10"/>
    <linearGradient id="_Безымянный_градиент_10-15" data-name="Безымянный градиент 10" x1="164.35" y1="82.35" x2="167.76" y2="82.35" xlink:href="#_Безымянный_градиент_10"/>
    <linearGradient id="_Безымянный_градиент_10-16" data-name="Безымянный градиент 10" x1="159.3" y1="87.25" x2="162.71" y2="87.25" xlink:href="#_Безымянный_градиент_10"/>
    <linearGradient id="_Безымянный_градиент_10-17" data-name="Безымянный градиент 10" x1="164.35" y1="87.34" x2="167.76" y2="87.34" xlink:href="#_Безымянный_градиент_10"/>
    <linearGradient id="_Безымянный_градиент_10-18" data-name="Безымянный градиент 10" x1="164.35" y1="92.22" x2="167.76" y2="92.22" xlink:href="#_Безымянный_градиент_10"/>
    <linearGradient id="_Безымянный_градиент_10-19" data-name="Безымянный градиент 10" x1="159.22" y1="92.34" x2="162.63" y2="92.34" xlink:href="#_Безымянный_градиент_10"/>
    <linearGradient id="_Безымянный_градиент_10-20" data-name="Безымянный градиент 10" x1="138.27" y1="82.35" x2="141.68" y2="82.35" xlink:href="#_Безымянный_градиент_10"/>
    <linearGradient id="_Безымянный_градиент_10-21" data-name="Безымянный градиент 10" x1="143.4" y1="82.35" x2="146.81" y2="82.35" xlink:href="#_Безымянный_градиент_10"/>
    <linearGradient id="_Безымянный_градиент_10-22" data-name="Безымянный градиент 10" x1="138.35" y1="87.25" x2="141.76" y2="87.25" xlink:href="#_Безымянный_градиент_10"/>
    <linearGradient id="_Безымянный_градиент_10-23" data-name="Безымянный градиент 10" x1="143.4" y1="87.34" x2="146.81" y2="87.34" xlink:href="#_Безымянный_градиент_10"/>
    <linearGradient id="_Безымянный_градиент_10-24" data-name="Безымянный градиент 10" x1="143.4" y1="92.22" x2="146.81" y2="92.22" xlink:href="#_Безымянный_градиент_10"/>
    <linearGradient id="_Безымянный_градиент_10-25" data-name="Безымянный градиент 10" x1="138.27" y1="92.34" x2="141.68" y2="92.34" xlink:href="#_Безымянный_градиент_10"/>
    <linearGradient id="_Безымянный_градиент_4" data-name="Безымянный градиент 4" x1="143.42" y1="59.75" x2="147.2" y2="59.75" gradientUnits="userSpaceOnUse">
      <stop offset="0" stop-color="#0abbef"/>
      <stop offset=".24" stop-color="#0d9acf"/>
      <stop offset=".76" stop-color="#14598e"/>
      <stop offset="1" stop-color="#174075"/>
    </linearGradient>
    <linearGradient id="_Безымянный_градиент_4-2" data-name="Безымянный градиент 4" x1="138.19" y1="54.73" x2="141.97" y2="54.73" xlink:href="#_Безымянный_градиент_4"/>
    <linearGradient id="_Безымянный_градиент_4-3" data-name="Безымянный градиент 4" x1="138.19" y1="59.83" x2="141.97" y2="59.83" xlink:href="#_Безымянный_градиент_4"/>
    <linearGradient id="_Безымянный_градиент_4-4" data-name="Безымянный градиент 4" x1="138.19" y1="64.72" x2="141.97" y2="64.72" xlink:href="#_Безымянный_градиент_4"/>
    <linearGradient id="_Безымянный_градиент_4-5" data-name="Безымянный градиент 4" y1="64.72" x2="146.93" y2="64.72" xlink:href="#_Безымянный_градиент_4"/>
    <linearGradient id="_Безымянный_градиент_4-6" data-name="Безымянный градиент 4" y1="54.69" y2="54.69" xlink:href="#_Безымянный_градиент_4"/>
    <linearGradient id="_Безымянный_градиент_4-7" data-name="Безымянный градиент 4" x1="41.53" y1="87.39" x2="45.03" y2="87.39" xlink:href="#_Безымянный_градиент_4"/>
    <linearGradient id="_Безымянный_градиент_4-8" data-name="Безымянный градиент 4" x1="36.3" y1="82.36" x2="40.07" y2="82.36" xlink:href="#_Безымянный_градиент_4"/>
    <linearGradient id="_Безымянный_градиент_4-9" data-name="Безымянный градиент 4" x1="36.3" y1="87.47" x2="40.07" y2="87.47" xlink:href="#_Безымянный_градиент_4"/>
    <linearGradient id="_Безымянный_градиент_4-10" data-name="Безымянный градиент 4" x1="36.3" y1="92.35" x2="40.07" y2="92.35" xlink:href="#_Безымянный_градиент_4"/>
    <linearGradient id="_Безымянный_градиент_4-11" data-name="Безымянный градиент 4" x1="41.53" y1="92.35" x2="45.03" y2="92.35" xlink:href="#_Безымянный_градиент_4"/>
    <linearGradient id="_Безымянный_градиент_4-12" data-name="Безымянный градиент 4" x1="41.53" y1="82.33" x2="45.3" y2="82.33" xlink:href="#_Безымянный_градиент_4"/>
  </defs>
  <g id="_1" data-name="1">
    <g id="_7" data-name="7">
      <g>
        <ellipse class="cls-4" cx="103.55" cy="84.33" rx="102.05" ry="45.52"/>
        <path class="cls-5" d="M205.6,84.33c-.03,2.51-.5,5-1.33,7.36-.82,2.38-2.12,4.55-3.54,6.6-2.95,4.06-6.72,7.47-10.81,10.35-8.21,5.78-17.52,9.83-27.03,12.94-19.1,6.19-39.25,8.79-59.33,9.02-5.02.02-10.05-.07-15.07-.36-5.02-.3-10.03-.74-15.03-1.37-9.98-1.31-19.91-3.24-29.56-6.26-9.62-3.04-19.08-6.98-27.51-12.83-4.2-2.92-8.09-6.41-11.18-10.64-1.49-2.14-2.87-4.42-3.75-6.94-.9-2.51-1.41-5.17-1.45-7.86.03-2.69.55-5.35,1.44-7.86.88-2.52,2.26-4.8,3.75-6.94,3.1-4.23,6.99-7.71,11.18-10.64,8.42-5.86,17.89-9.79,27.51-12.84,9.65-3.03,19.58-4.96,29.56-6.27,4.99-.63,10.01-1.07,15.03-1.37,5.02-.28,10.05-.37,15.07-.36,20.07.24,40.22,2.83,59.33,9.03,9.52,3.11,18.82,7.16,27.03,12.94,4.1,2.88,7.86,6.29,10.81,10.35,1.42,2.06,2.73,4.23,3.54,6.6.83,2.36,1.3,4.85,1.33,7.36ZM205.6,84.33c-.04-2.51-.52-4.99-1.36-7.35-.82-2.37-2.14-4.53-3.56-6.58-2.96-4.04-6.73-7.43-10.83-10.29-8.23-5.73-17.58-9.62-27.1-12.63-9.55-3-19.4-4.91-29.3-6.21-4.96-.63-9.94-1.06-14.92-1.36-4.99-.28-9.98-.37-14.97-.35-19.94.23-39.96,2.82-58.87,8.95-9.42,3.07-18.6,7.08-26.62,12.73-4,2.81-7.65,6.12-10.46,10-1.35,1.96-2.59,4.01-3.35,6.24-.78,2.21-1.21,4.52-1.24,6.84.03,2.33.46,4.63,1.24,6.84.76,2.22,2,4.28,3.35,6.24,2.82,3.88,6.46,7.19,10.46,10,8.02,5.65,17.21,9.66,26.62,12.73,18.91,6.14,38.93,8.72,58.87,8.95,4.99.02,9.99-.07,14.97-.35,4.99-.3,9.96-.73,14.92-1.36,9.9-1.3,19.76-3.21,29.3-6.21,9.52-3.01,18.87-6.9,27.1-12.63,4.1-2.86,7.87-6.25,10.83-10.29,1.43-2.05,2.74-4.21,3.56-6.58.84-2.36,1.32-4.84,1.36-7.35Z"/>
      </g>
      <g>
        <g>
          <polyline class="cls-36" points="89.73 5.87 48.68 38.39 48.68 42.08 135.57 42.08 135.57 37.42"/>
          <rect class="cls-36" x="9.65" y="44.55" width="162.39" height="63.39"/>
          <polygon class="cls-10" points="79.05 10.7 78.95 10.76 77.92 11.54 45.47 35.64 48.69 40.22 12.45 39.63 11.05 39.61 20.76 10.7 79.05 10.7"/>
          <polygon class="cls-40" points="173.72 39.76 171.72 39.79 135.22 40.22 105.25 13.72 105.73 11.56 105.93 10.7 163.21 10.7 173.72 39.76"/>
          <rect class="cls-36" x="6.9" y="39.61" width="170.77" height="4.23"/>
          <path class="cls-6" d="M91.42,5.87s-43.46,34.47-42.73,34.35,10.86,0,10.86,0l31.67-26.67,30.9,16.27-30.7-23.94Z"/>
          <polyline class="cls-6" points="9.65 44.55 51.85 43.84 53.68 48.13 11.78 48.13 9.65 77.85"/>
          <rect class="cls-6" x="33.73" y="70.03" width="13.95" height="1.34"/>
          <rect class="cls-6" x="135.57" y="70.03" width="13.95" height="1.34"/>
          <rect class="cls-6" x="156.76" y="70.03" width="13.95" height="1.34"/>
          <rect class="cls-6" x="136.07" y="97.78" width="13.95" height="1.34"/>
          <rect class="cls-6" x="157.27" y="97.78" width="13.95" height="1.34"/>
          <rect class="cls-6" x="12.6" y="70.03" width="13.95" height="1.34"/>
          <rect class="cls-6" x="34.4" y="97.56" width="13.95" height="1.34"/>
          <rect class="cls-6" x="13.27" y="97.56" width="13.95" height="1.34"/>
          <path class="cls-6" d="M112.95,47.4h55.83l1.55,1.55,1.7,31.09.48-35.93-61.56.44s-60.13-1.58-60.16-1.42,2.25,5,2.25,5"/>
          <path class="cls-6" d="M88.61,67.16c1.88.75,4.07.59,5.89-.29s3.28-2.42,4.21-4.22c-.15,1.02-.32,2.04-.68,3s-.91,1.87-1.72,2.51c-.55.44-1.21.75-1.9.93-2.15.57-4.59-.17-6.06-1.82"/>
          <path class="cls-6" d="M91.9,53.98c.16,1.94.24,3.88.22,5.82.3-.12.62-.21.95-.26.02-1.23.04-2.47.06-3.7,0-.1.01-.22.09-.29.07-.06.17-.05.25-.05,1.2.09,2.37.5,3.37,1.16-.97-1.73-2.82-2.94-4.8-3.13"/>
          <path class="cls-6" d="M90.25,53.67c-1.34.5-2.63,1.2-3.63,2.22s-1.7,2.38-1.76,3.8c.46-.12.93-.17,1.4-.15.45-1.41,1.4-2.66,2.63-3.47.57-.38,1.27-.67,1.93-.48.17-.6.21-1.23.1-1.85"/>
          <path class="cls-6" d="M90.63,60.58c-1.89.03-3.78.04-5.67.02.21,1.19.91,2.24,1.67,3.19.48.59.98,1.16,1.52,1.7-.83-.95-1.05-2.26-1.24-3.5,0-.06-.02-.12.02-.16.04-.05.1-.06.17-.07,1.18-.14,2.36-.27,3.55-.41"/>
          <path class="cls-6" d="M92.18,60.79c-.13,1.75-.17,3.5-.12,5.25.29-1.11.59-2.22.88-3.33.04-.14.08-.29.19-.4.08-.08.19-.12.3-.16,1.48-.52,3.07-.71,4.5-1.36.1-.05.16-.24.05-.22"/>
          <rect class="cls-21" x="84.92" y="72.62" width="14.05" height="34.25"/>
          <polyline class="cls-6" points="50.79 47.49 50.79 55.3 52.45 54.73 51.62 97.78 49.84 98.45 49.84 101.76 48.35 102.31 48.68 106.87 55.51 106.87 55.51 48.23"/>
          <polyline class="cls-6" points="66.8 47.49 66.8 55.3 68.46 54.73 67.63 97.78 65.85 98.45 65.85 101.76 64.36 102.31 64.69 106.87 71.51 106.87 71.51 48.23"/>
          <polyline class="cls-6" points="102.9 47.27 102.9 55.08 104.56 54.5 103.73 97.55 101.95 98.22 101.95 101.53 100.46 102.08 100.79 106.65 107.62 106.65 107.62 48"/>
          <polyline class="cls-6" points="122.09 47.27 122.09 55.08 123.75 54.5 122.92 97.55 121.14 98.22 121.14 101.53 119.64 102.08 119.98 106.65 126.8 106.65 126.8 48"/>
          <rect class="cls-1" x="36.57" y="52.94" width="3.41" height="3.57"/>
          <rect class="cls-29" x="41.62" y="57.71" width="3.41" height="3.57"/>
          <rect class="cls-41" x="36.49" y="62.74" width="3.41" height="3.57"/>
          <rect class="cls-25" x="41.76" y="62.93" width="3.41" height="3.57"/>
          <rect class="cls-20" x="36.49" y="57.94" width="3.41" height="3.57"/>
          <rect class="cls-17" x="41.62" y="52.94" width="3.41" height="3.57"/>
          <rect class="cls-43" x="15.69" y="80.56" width="3.41" height="3.57"/>
          <rect class="cls-35" x="20.82" y="80.56" width="3.41" height="3.57"/>
          <rect class="cls-37" x="15.77" y="85.46" width="3.41" height="3.57"/>
          <rect class="cls-33" x="20.82" y="85.56" width="3.41" height="3.57"/>
          <rect class="cls-13" x="20.82" y="90.43" width="3.41" height="3.57"/>
          <rect class="cls-12" x="15.69" y="90.55" width="3.41" height="3.57"/>
          <rect class="cls-38" x="159.22" y="80.56" width="3.41" height="3.57"/>
          <rect class="cls-26" x="164.35" y="80.56" width="3.41" height="3.57"/>
          <rect class="cls-11" x="159.3" y="85.46" width="3.41" height="3.57"/>
          <rect class="cls-28" x="164.35" y="85.56" width="3.41" height="3.57"/>
          <rect class="cls-8" x="164.35" y="90.43" width="3.41" height="3.57"/>
          <rect class="cls-39" x="159.22" y="90.55" width="3.41" height="3.57"/>
          <rect class="cls-16" x="138.27" y="80.56" width="3.41" height="3.57"/>
          <rect class="cls-27" x="143.4" y="80.56" width="3.41" height="3.57"/>
          <rect class="cls-32" x="138.35" y="85.46" width="3.41" height="3.57"/>
          <rect class="cls-15" x="143.4" y="85.56" width="3.41" height="3.57"/>
          <rect class="cls-9" x="143.4" y="90.43" width="3.41" height="3.57"/>
          <rect class="cls-19" x="138.27" y="90.55" width="3.41" height="3.57"/>
          <rect class="cls-6" x="9.66" y="107.39" width="164.66" height="4.53"/>
          <polygon class="cls-36" points="79.05 11.47 77.92 11.54 24.23 14.52 12.6 39.61 12.45 39.63 10.28 39.59 20.76 10.7 78.94 10.7 78.95 10.76 79.05 11.47"/>
          <polygon class="cls-36" points="173.72 39.76 171.12 39.79 169.88 39.61 158.25 14.52 105.13 11.56 105.33 10.7 162.61 10.7 173.72 39.76"/>
          <g>
            <rect class="cls-2" x="143.42" y="58" width="3.78" height="3.51"/>
            <rect class="cls-22" x="138.19" y="52.97" width="3.78" height="3.51"/>
            <rect class="cls-7" x="138.19" y="58.08" width="3.78" height="3.51"/>
            <rect class="cls-3" x="138.19" y="62.96" width="3.78" height="3.51"/>
            <rect class="cls-24" x="143.42" y="62.96" width="3.51" height="3.51"/>
            <rect class="cls-14" x="143.42" y="52.94" width="3.78" height="3.51"/>
          </g>
          <g>
            <rect class="cls-23" x="41.53" y="85.64" width="3.51" height="3.51"/>
            <rect class="cls-18" x="36.3" y="80.61" width="3.78" height="3.51"/>
            <rect class="cls-30" x="36.3" y="85.71" width="3.78" height="3.51"/>
            <rect class="cls-42" x="36.3" y="90.6" width="3.78" height="3.51"/>
            <rect class="cls-31" x="41.53" y="90.6" width="3.51" height="3.51"/>
            <rect class="cls-34" x="41.53" y="80.58" width="3.78" height="3.51"/>
          </g>
          <polygon class="cls-36" points="138.44 35.64 136.18 38.42 135.22 39.61 91.96 7.25 48.7 39.61 47.74 38.42 45.47 35.64 91.96 1.11 138.44 35.64"/>
          <polygon class="cls-36" points="51.24 44.55 52.45 46.8 60.15 46.8 61.35 44.55 51.24 44.55"/>
          <rect class="cls-36" x="52.45" y="46.8" width="7.7" height="6.37"/>
          <rect class="cls-36" x="53.71" y="53.16" width="4.87" height="46.59"/>
          <polygon class="cls-36" points="61.8 103.57 61.8 107.39 50.79 107.39 50.79 103.57 52.45 103.57 52.45 99.75 60.16 99.75 60.16 103.57 61.8 103.57"/>
          <polygon class="cls-36" points="67.94 44.55 69.15 46.8 76.85 46.8 78.05 44.55 67.94 44.55"/>
          <rect class="cls-36" x="69.15" y="46.8" width="7.7" height="6.37"/>
          <rect class="cls-36" x="70.41" y="53.16" width="4.87" height="46.59"/>
          <polygon class="cls-36" points="78.49 103.57 78.49 107.39 67.49 107.39 67.49 103.57 69.15 103.57 69.15 99.75 76.85 99.75 76.85 103.57 78.49 103.57"/>
          <polygon class="cls-36" points="104.04 44.55 105.25 46.8 112.95 46.8 114.15 44.55 104.04 44.55"/>
          <rect class="cls-36" x="105.25" y="46.8" width="7.7" height="6.37"/>
          <rect class="cls-36" x="106.51" y="53.16" width="4.87" height="46.59"/>
          <polygon class="cls-36" points="114.59 103.57 114.59 107.39 103.59 107.39 103.59 103.57 105.25 103.57 105.25 99.75 112.96 99.75 112.96 103.57 114.59 103.57"/>
          <polygon class="cls-36" points="122.57 44.55 123.78 46.8 131.48 46.8 132.68 44.55 122.57 44.55"/>
          <rect class="cls-36" x="123.78" y="46.8" width="7.7" height="6.37"/>
          <rect class="cls-36" x="125.04" y="53.16" width="4.87" height="46.59"/>
          <polygon class="cls-36" points="133.13 103.57 133.13 107.39 122.12 107.39 122.12 103.57 123.78 103.57 123.78 99.75 131.49 99.75 131.49 103.57 133.13 103.57"/>
        </g>
        <g>
          <path class="cls-5" d="M177.07,39.21c-1.16-.05-2.33-.11-3.49-.15l-4.57-13.81c-1.62-4.91-3.33-9.88-5.09-14.81l-.18-.49h-.53c-5.12-.05-10.24-.03-15.36.08l-15.36.34c-5.12.1-10.24.06-15.36.02-3.87-.03-7.74-.11-11.61-.19l-1.33-1.02c-3.87-2.96-7.81-5.86-11.71-8.79l-.52-.39-.54.39-11.63,8.62-1.58,1.19c-3.79.09-7.58.16-11.37.19-5.12.04-10.24.08-15.36-.02l-15.36-.34c-5.12-.11-10.24-.13-15.36-.09h-.53s-.18.5-.18.5c-1.76,4.93-3.47,9.9-5.09,14.81l-4.57,13.81c-1.16.04-2.33.1-3.49.15l-.42.02.02.38c.1,1.74.23,3.44.34,5,.77.05,1.56.08,2.34.13.07,10.26.16,20.53.17,30.79l.03,15.85-.06,15.55h-.15s.01.46.01.46l.15,4.53v.33h.32c3.79-.09,7.55-.1,11.36.03s7.68.32,11.52.35c3.82,0,7.6-.08,11.35-.18,1.29-.03,2.56-.08,3.84-.13h.26c7.34-.13,14.66-.18,22.02-.08,7.36.11,14.78.31,22.19.37,7.39.04,14.74-.05,22.05-.15,5.8-.1,11.59-.21,17.3-.35,2.81.14,5.65.26,8.55.34,3.75.1,7.53.19,11.35.18,3.84-.03,7.71-.22,11.52-.35s7.57-.12,11.35-.03h.32v-.33s.16-4.53.16-4.53v-.45s-.48-.02-.48-.02c-.57-.03-1.15-.04-1.73-.06l.36-31.15.17-15.91.11-14.98c1.31-.06,2.63-.13,3.91-.21.11-1.56.24-3.26.34-5l.02-.38-.42-.02ZM117.13,11c5.12-.04,10.24-.07,15.36.03l15.36.34c4.94.1,9.89.12,14.84.08,1.68,4.56,3.41,9.07,5.23,13.65l5.5,13.95c-2.27-.1-4.54-.18-6.81-.23-3.49-.08-6.98-.14-10.46-.13-3.49-.01-6.98.09-10.47.13-1.55.02-3.1.06-4.65.1-1.65-.02-3.3-.04-4.95-.05l.9-1.17,1.54-2.07-22.74-17.6-8.98-6.86c3.44-.08,6.89-.14,10.33-.17ZM91.96,2.21c3.59,2.65,7.15,5.32,10.78,7.93.07.05.15.11.22.16l1.28.92,10.38,7.49,23.73,16.94-1.67,1.9c-.38.42-.76.87-1.15,1.32-.07.08-.15.17-.22.26-.03,0-.06,0-.09,0h-.21l-4.95-3.9-5.35-4.13c-2.24-1.73-4.47-3.47-6.72-5.18-.02-.03-.05-.04-.07-.06-1.31-1-2.62-1.99-3.93-2.98l-5.3-4.03c-5.32-4.13-10.7-8.27-16.13-12.3l-.52-.52-.64.48-10.77,8.14-10.75,8.18-3.18,2.46-15.42,11.91-2.51,1.82-.21-.27-2.39-3.02c7.71-5.53,15.39-11.09,23.03-16.71l10.63-7.81,1.04-.76.43-.32,10.66-7.93ZM121.65,103.57c.1,1.03.16,2.05.19,3.07-2.24-.04-4.48-.09-6.72-.11-.12-1.11-.3-2.16-.47-3.02-.38-.07-.83-.16-1.31-.23.15-1.18.27-2.35.35-3.53l.05-.68-.79-.06c-.49-.04-.98-.06-1.47-.09.17-3.42.29-6.93.43-10.45.12-3.86.24-7.74.29-11.67.08-3.92.07-7.88.02-11.83-.03-3.64-.09-7.28-.18-10.9.3,0,.61.01.91,0l.93-.04-.03-.86c-.09-2.17-.4-4.33-.76-6.04h.02l.11-.18c.39-.59.84-1.15,1.27-1.73,2.71-.04,5.41-.09,8.12-.15.04.19.08.39.13.6.1.41.25.85.42,1.28.15,1.02.33,2.03.35,3.04.02,1.06-.06,2.12-.21,3.18l-.05.41.53.07c.27.03.53.06.8.1.13,3.69.23,7.38.19,11.07v.09c-.48-.04-.96-.11-1.44-.18-.13-.02-.25-.02-.38-.04.12-.04.22-.09.3-.18.21-.2.17-.54.15-.67l-.04-.53c-.01-.36-.01-.72,0-1.07v-.27c.01-.07.04-.19,0-.32-.06-.25-.3-.46-.58-.47-1.42-.17-2.85-.22-4.27-.22h-.53s-.14.02-.14.02c-.04,0-.08,0-.19.01-.18.03-.34.12-.46.24s-.21.29-.23.46c-.02.2.01.24.01.34.02.18.06.35.08.53.06.36.13.71.17,1.07.04.18.01.34.08.55.07.19.27.33.47.32.71-.02,1.42.12,2.13.22.13.02.25.03.38.04-.12.04-.22.1-.3.18-.21.21-.18.54-.15.67l.04.54c.01.35.01.71-.01,1.06v.27c-.02.08-.04.19,0,.32.06.25.3.46.58.47,1.42.17,2.83.22,4.25.23-.08,2.65-.2,5.31-.29,7.97-.16,3.45-.16,6.9-.12,10.35-.03,0-.08,0-.16,0-.17.02-.34.11-.46.24-.12.12-.2.28-.23.45-.02.21.01.24.02.35.01.17.05.35.08.53.05.36.12.71.16,1.07.04.18.01.34.08.55.08.19.27.32.47.31.03,0,.07.01.1.01,0,.14.01.28.01.42-.54-.03-1.09-.11-1.63-.19-.71-.12-1.43-.14-2.14-.09l-.53.05-.3.04c-.15.03-.28.11-.37.21-.21.2-.18.54-.15.67l.04.53c.01.36.01.71-.01,1.07v.27c-.02.07-.04.19,0,.32.06.25.3.46.58.47,1.42.17,2.85.22,4.27.22h.32c.05,1.51.11,3.03.18,4.55-.28.01-.56.02-.84.03l-.89.04.04.81c.05,1.08.09,2.17.17,3.25l-.98.1-.52.05.05.42ZM103.11,103.57c.1.93.16,1.86.19,2.79h-.41l-3.88-.02.17-7.61.15-8.65c.06-2.89.05-5.81.07-8.72.02-2.91,0-5.83-.02-8.74v-.42h-.42c-4.68.03-9.37.09-14.05.19h-.24v.23c.06,2.89.1,5.77.11,8.65-.01,2.89-.02,5.77-.09,8.65-.05,2.89-.14,5.77-.14,8.65-.04,2.59-.01,5.17,0,7.76-1.85.01-3.7.01-5.56.02-.11-1.04-.29-2.02-.45-2.84-.38-.07-.84-.16-1.32-.23.16-1.18.28-2.35.36-3.53l.05-.68-.79-.06c-.49-.04-.98-.06-1.48-.09.17-3.42.3-6.93.44-10.45.11-3.86.24-7.74.29-11.67.08-3.92.07-7.88.02-11.83-.03-3.64-.09-7.28-.18-10.9.3,0,.6.01.91,0l.93-.04-.03-.86c-.09-2.17-.41-4.33-.77-6.04h.02l.12-.18c.45-.68.98-1.32,1.46-1.98.85.02,1.71.04,2.56.06l10.82.24c4.06.06,8.11.07,12.17.05.03.12.05.23.08.35.1.41.25.85.42,1.28.15,1.02.32,2.03.35,3.04.02,1.06-.06,2.12-.21,3.18l-.05.41.53.07c.26.03.53.06.8.1.13,3.69.23,7.38.19,11.07-.02,3.88-.23,7.77-.36,11.65-.18,3.88-.16,7.76-.11,11.64.06,3.59.15,7.18.32,10.77-.28.01-.56.02-.84.03l-.89.04.04.81c.05,1.08.09,2.17.17,3.25l-.98.1-.52.05.04.42ZM93,103.65l-.16-2.5c-.1-1.59-.05-3.17.04-4.76,1.53.11,3.06.15,4.59.18-.03,1.47,0,2.93.08,4.43.08,1.64.2,3.32.33,5.12-1.76-.15-3.31-.29-4.85-.33.01-.72.01-1.43-.03-2.14ZM97.94,106.18c.13-1.54.25-3.19.33-4.89.09-1.68.12-3.43.08-5.14v-.45s-.44.01-.44.01c-1.75.04-3.51.07-5.26.2l-.25.02v.22c.12,1.66.16,3.33.06,5l-.16,2.5c-.04.83-.04,1.66-.02,2.5v.15h-.38c-.69,0-1.38.01-2.07.01.49-.04.96-.09,1.42-.13.13-1.54.25-3.19.33-4.89.09-1.68.12-3.43.08-5.14v-.45s-.44.01-.44.01c-.2,0-.4.01-.6.01.25-.05.48-.13.63-.2.17-.45.29-1.06.37-1.71.03-.32.05-.66.05-1-.01-.34-.04-.67-.07-1l-.03-.41h-.07c.03-.43.06-.86.08-1.3.09-1.68.12-3.43.08-5.14v-.45s-.44.01-.44.01c-1.75.04-3.51.07-5.26.2l-.25.02v.22c.11,1.66.16,3.33.06,5l-.16,2.5c-.04.83-.04,1.66-.02,2.5v.38h.37c1.37-.03,2.75-.12,4.02-.23.02.13.03.25.05.38l.04.25c-1.37.03-2.74.07-4.11.17l-.25.02v.22c.11,1.66.16,3.33.06,5l-.16,2.5c-.04.83-.04,1.66-.02,2.5v.17h-.33c.03-2.58.05-5.16.02-7.75,0-2.88-.1-5.76-.15-8.65-.07-2.88-.08-5.76-.08-8.65,0-2.8.04-5.6.1-8.41,4.46.1,8.92.15,13.39.18-.02,2.72-.05,5.43-.02,8.15.02,2.86.01,5.7.06,8.58l.15,8.65.18,7.92h-2.59c.56-.06,1.1-.11,1.62-.16ZM86.31,103.65l-.16-2.5c-.1-1.59-.05-3.17.04-4.76,1.53.11,3.06.15,4.59.18-.03,1.47,0,2.93.08,4.43.08,1.64.2,3.32.33,5.12-1.76-.15-3.32-.29-4.86-.33.01-.72.02-1.43-.02-2.14ZM89.88,94.77s-.03.03-.05.04c-.21.14-3.5-.36-3.5-.21.01-.72.02-1.43-.02-2.14l-.16-2.5c-.1-1.59-.05-3.17.04-4.76,1.53.11,3.06.15,4.59.18-.03,1.47,0,2.93.08,4.43.02.39.19,1.02.08,1.4-.11.4-.43.33-.86.42.12.59.1,1.2.04,1.8-.03.28-.02,1.09-.25,1.34ZM90.7,94.89c.03-.42.02-.83-.1-1.24-.07-.31-.15-.61-.14-.92-.01-.22.02-.43.06-.65.1.02.19.04.29.06,0,.17-.03.34-.04.5-.01.28.02.56.05.84.06.44.14.91.25,1.44-.12-.01-.25-.02-.37-.03ZM91.09,95c.03.15.06.3.1.46-.22-.06-.39-.11-.54-.17.01-.08.03-.16.04-.25.13-.01.27-.02.4-.04ZM67.01,103.57c.1.96.16,1.92.19,2.88-1.63.02-3.25.04-4.88.06-.12-1.1-.3-2.14-.47-3-.37-.07-.83-.16-1.31-.23.15-1.18.27-2.35.36-3.53l.05-.68-.8-.06c-.49-.04-.98-.06-1.47-.09.17-3.42.3-6.93.43-10.45.03-1.02.06-2.05.09-3.07,1.36.15,2.72.2,4.08.21l.53-.02h.13s.09,0,.19-.02c.18-.02.35-.11.47-.24.12-.12.2-.28.23-.45.02-.21-.01-.24-.02-.34,0-.18-.05-.36-.08-.54-.05-.35-.12-.71-.16-1.07-.04-.18-.01-.34-.08-.55-.08-.19-.27-.32-.47-.31-.71.01-1.42-.12-2.13-.23-.71-.12-1.43-.14-2.14-.09l-.45.05c.04-1.66.08-3.32.1-5,.07-3.14.06-6.31.04-9.48.1-.04.19-.1.26-.17.12-.12.2-.29.23-.46.02-.2-.01-.24-.01-.34-.02-.18-.06-.35-.08-.53-.06-.36-.13-.71-.17-1.07-.04-.18-.01-.34-.08-.55-.04-.09-.1-.17-.18-.22v-.5c.41.05.82.11,1.23.17.13.02.25.02.38.04-.12.04-.22.1-.3.18-.21.2-.17.54-.15.67l.04.53c0,.36,0,.72,0,1.07l-.02.27c0,.07-.03.19.01.32.06.25.3.46.58.47,1.42.17,2.85.22,4.27.22h.53s.14-.02.14-.02c.04,0,.08,0,.19-.01.18-.03.34-.12.46-.24s.21-.29.23-.46c.02-.2,0-.24,0-.34-.02-.18-.06-.35-.08-.53-.06-.36-.13-.71-.17-1.07-.04-.18-.01-.34-.08-.55-.07-.19-.27-.33-.47-.32-.71.02-1.42-.12-2.13-.22-.13-.02-.25-.03-.38-.04.12-.04.22-.1.3-.18.21-.2.18-.54.15-.67l-.04-.54c-.01-.35-.01-.71.01-1.06v-.27c.02-.08.04-.19,0-.32-.06-.25-.3-.46-.58-.47-1.38-.17-2.77-.21-4.16-.22-.03-1.95-.07-3.88-.11-5.82.3,0,.6.01.9,0l.94-.04-.04-.86c-.08-2.17-.4-4.33-.76-6.04h.02l.12-.18c.46-.71,1.03-1.37,1.52-2.07l.02-.02c1.98-.02,3.97-.02,5.96-.02.05.25.1.52.18.83.1.41.25.85.42,1.28.15,1.02.32,2.03.35,3.04.02,1.06-.06,2.12-.21,3.18l-.06.41.53.07c.27.03.54.06.81.1.12,3.69.22,7.38.19,11.07-.02,3.88-.24,7.77-.37,11.65-.08,1.83-.11,3.65-.13,5.48-.23-.03-.45-.06-.68-.1-.13-.02-.25-.02-.38-.04.12-.03.22-.09.3-.18.21-.2.17-.54.15-.67l-.04-.53c-.01-.36-.01-.71,0-1.07v-.27c.01-.07.04-.18,0-.32-.06-.25-.3-.45-.58-.47-1.42-.17-2.85-.21-4.27-.22l-.53.02h-.14s-.08,0-.19.01c-.18.03-.34.12-.46.24-.12.13-.21.29-.23.46-.02.21.01.24.01.34.02.18.06.36.08.53.06.36.13.72.17,1.07.04.19,0,.34.08.55.07.19.27.33.47.32.71-.01,1.42.12,2.13.23.13.02.25.02.38.03-.12.04-.22.1-.3.18-.21.21-.18.54-.15.67l.04.54c.01.35.01.71-.01,1.07v.26c-.02.08-.04.19,0,.33.06.24.3.45.58.46,1.19.15,2.38.19,3.56.21.01.84.02,1.68.03,2.51.06,3.59.15,7.18.31,10.77-.28.01-.56.02-.83.03l-.89.04.04.81c.04,1.08.09,2.17.17,3.25l-.99.1-.51.05.04.42ZM49.22,40.54l.13-.11c.1-.09.21-.18.31-.26,6.86.15,13.68.22,20.51.26l10.71.06c3.58-.01,7.14,0,10.73-.04,7.16-.05,14.38-.19,21.61-.29,6.8-.13,13.63-.27,20.56-.45.28.24.56.48.84.72l.16.13c.03.78.05,1.55.08,2.33l-5.05-.16-5.41-.12c-3.6-.07-7.21-.15-10.81-.18-4.76-.04-9.51-.08-14.27-.07-2.34-.02-4.67-.06-7.01-.07-7.26-.06-14.56-.01-21.83.04-7.11.03-14.22.13-21.3.29l.04-2.08ZM55.94,34.75l14.82-10.73,10.89-8,10.3-7.62c4.99,3.75,10.02,7.4,15.1,11.05l6.13,4.53c3.61,2.68,7.26,5.32,10.92,7.95l4.14,3c1.76,1.54,3.52,3.06,5.3,4.57-6.45-.18-13-.31-19.58-.44-7.19-.1-14.39-.24-21.66-.29-3.62-.04-7.26-.03-10.9-.04l-10.92.06c-6.51.04-13.01.1-19.49.23,1.66-1.41,3.31-2.84,4.95-4.27ZM127.63,52.33c-.64.03-1.29.07-1.93.12-.5.05-1,.12-1.51.19-.1-.89-.17-1.77-.15-2.66.02-.83.15-1.66.27-2.48.42.04.83.07,1.25.06h.01s.09,0,.13,0c.64.02,1.29-.04,1.93-.15.03-.01.07-.02.1-.02.74-.09,1.52-.19,2.35-.32.43-.02.87-.01,1.3.02-.31,1.98-.59,3.6-.73,5.16-1.01-.02-2.01.02-3.02.07ZM130.34,91.02c.53-.09,1.06-.16,1.59-.15.16,0,.31.12.35.27.02.13-.02.34-.03.51-.05.36-.12.71-.17,1.07-.06.3-.11.88-.14.72h0s-.07-.01-.07-.01h-.14s-.53-.03-.53-.03c-.31.01-.63.02-.94.03.03-.8.06-1.61.09-2.41ZM125.39,68.46s-.08-3.65-.08-3.65c-.04-3.65.06-7.31.18-10.96.07,0,.14.02.21.02.64.06,1.29.09,1.93.13.54.03,1.07.05,1.61.07-.09,3.54-.15,7.06-.18,10.58-.04,3.82-.06,7.62.02,11.47.05,3.6.16,7.24.27,10.91-.03-.01-.06-.02-.09-.02-1.16-.14-2.31-.19-3.47-.21.03-3.45.03-6.89-.12-10.34-.09-2.67-.21-5.33-.29-8h.01ZM129.48,90.52h-.06s.04-.01.06-.02v.02ZM129.5,91.13c.03.77.06,1.54.09,2.31-.89.03-1.78.08-2.67.19-.08.02-.18-.03-.23-.12-.04-.06-.04-.32-.05-.47-.02-.36-.02-.71-.01-1.07l.04-.53c.01-.21.04-.28.12-.32.04-.02.08-.03.11-.02.02.01.16.02.23.03l.53.06c.62.04,1.23.02,1.84-.06ZM129.39,89.99s-.08.02-.11.02c-.02,0-.16-.02-.23-.03l-.53-.06c-.71-.05-1.43-.03-2.14.09-.21.03-.43.06-.65.1.02-.67.03-1.34.05-2.01v-.42c1.16-.02,2.32-.06,3.48-.2.03-.01.07,0,.11.01,0,.09,0,.17.01.25.02.72.05,1.45.08,2.18-.02.02-.04.05-.07.07ZM125.66,93.64s.01-.03.01-.05c.01-.14,0-.2-.01-.26.03-.96.05-1.92.07-2.88.21.04.43.07.65.1.13.02.25.02.38.04-.12.04-.22.09-.3.18-.21.2-.17.54-.15.67l.04.53c.01.36.01.71-.01,1.07v.27c-.01.07-.04.19,0,.32.06.25.3.46.58.47.9.11,1.8.16,2.7.19.06,1.52.12,3.07.19,4.62-.72-.03-1.45-.06-2.18-.08-.72-.01-1.45,0-2.17.02.08-1.74.15-3.48.2-5.21ZM131.26,46.5c-.22,0-.44.03-.66.03-.83-.16-1.75-.28-2.71-.37-.33-.04-.67-.06-1.02-.08-.39-.04-.78-.07-1.17-.05-.09,0-.18.01-.26.01-.48.01-.95.04-1.41.09-.13-.14-.27-.29-.43-.45-.18-.18-.38-.39-.58-.62.84-.02,1.68-.04,2.52-.07.9.13,1.73.25,2.52.34.8.08,1.55.11,2.3.07.44-.01.88-.04,1.34-.07-.14.39-.28.78-.44,1.17ZM107.14,76.46c-.13-3.88-.35-7.77-.36-11.65-.04-3.65.06-7.31.18-10.96.07,0,.14.02.21.02.64.06,1.29.09,1.93.13.53.03,1.07.05,1.61.07-.09,3.54-.15,7.06-.18,10.58-.05,3.82-.06,7.62.02,11.47.05,3.83.18,7.71.29,11.62.14,3.68.27,7.38.44,11.17-.73-.03-1.45-.06-2.18-.08-.72-.01-1.45,0-2.17.02.17-3.58.26-7.16.31-10.75.05-3.88.07-7.76-.1-11.64ZM109.1,52.33c-.64.03-1.29.07-1.93.12-.5.05-1,.12-1.51.19-.1-.89-.17-1.77-.15-2.66.02-.83.14-1.66.27-2.48.42.04.83.07,1.25.06.05,0,.1,0,.14,0,.64.02,1.29-.04,1.93-.15.03-.01.07-.02.1-.02.74-.09,1.52-.19,2.35-.32.43-.02.87-.01,1.3.02-.31,1.98-.59,3.6-.73,5.16-1.01-.02-2.01.02-3.02.07ZM112.73,46.5c-.22,0-.44.03-.66.03-.83-.16-1.75-.28-2.71-.37-.33-.04-.67-.06-1.02-.08-.39-.04-.78-.07-1.17-.05-.09,0-.18.01-.27.01-.47.01-.94.04-1.4.09-.13-.14-.27-.29-.43-.45-.11-.11-.23-.24-.36-.37,1.48-.01,2.95-.02,4.42-.03.13.01.27.03.4.05.8.08,1.54.11,2.3.07.44-.01.88-.04,1.33-.07-.13.39-.27.78-.43,1.17ZM71.04,76.46c-.13-3.88-.35-7.77-.36-11.65-.04-3.65.06-7.31.18-10.96.07,0,.14.02.21.02.64.06,1.28.09,1.93.13.53.03,1.07.05,1.61.07-.09,3.54-.15,7.06-.18,10.58-.05,3.82-.06,7.62.02,11.47.05,3.83.17,7.71.29,11.62.14,3.68.27,7.38.44,11.17-.73-.03-1.46-.06-2.18-.08-.73-.01-1.45,0-2.17.02.16-3.58.26-7.16.31-10.75.01-.84.02-1.68.03-2.52.01,0-.05-7.24-.13-9.12ZM73,52.33c-.65.03-1.29.07-1.93.12-.5.05-1.01.12-1.51.19-.1-.89-.17-1.77-.15-2.66.02-.83.14-1.66.27-2.48.42.04.83.07,1.24.06h.01s.09,0,.14,0c.64.02,1.28-.04,1.93-.15.03-.01.06-.02.1-.02.74-.09,1.51-.19,2.35-.32.43-.02.86-.01,1.3.02-.32,1.98-.59,3.6-.73,5.16-1.01-.02-2.02.02-3.02.07ZM76.63,46.5c-.22,0-.44.03-.66.03-.83-.16-1.75-.28-2.71-.37-.33-.04-.68-.06-1.02-.08-.39-.04-.78-.07-1.17-.05-.09,0-.18.01-.27.01-.47.01-.94.04-1.4.09-.13-.14-.27-.29-.43-.45-.24-.23-.5-.52-.77-.85h1.54c1.35.19,2.56.37,3.69.5.79.08,1.54.11,2.3.07.44-.01.88-.04,1.33-.07-.13.39-.27.78-.43,1.17ZM53.84,44.94c1.03.15,1.99.29,2.89.39.8.08,1.55.11,2.3.07.44-.01.89-.04,1.34-.07-.14.39-.28.78-.44,1.17-.22,0-.44.03-.66.03-.83-.16-1.75-.28-2.7-.37-.34-.04-.68-.06-1.03-.08-.39-.04-.78-.07-1.17-.05-.08,0-.17.01-.26.01-.47.01-.94.04-1.41.09-.13-.14-.27-.29-.43-.45-.2-.2-.42-.44-.64-.7.73-.02,1.47-.03,2.21-.04ZM52.98,47.5c.42.04.83.07,1.25.06h.01s.09,0,.13,0c.65.02,1.29-.04,1.93-.15.03-.01.07-.02.1-.02.75-.09,1.52-.19,2.35-.32.44-.02.87-.01,1.3.02-.31,1.98-.59,3.6-.73,5.16-1-.02-2.01.02-3.02.07-.64.03-1.28.07-1.93.12-.5.05-1,.12-1.5.19-.11-.89-.17-1.77-.16-2.66.02-.83.15-1.66.27-2.48ZM54.34,76.46c-.1-3.1-.25-6.19-.32-9.28.03.01.06.02.09.02,1.2.15,2.4.19,3.61.21-.03,2.89-.03,5.79.03,8.71.06,3.83.18,7.71.3,11.62.13,3.68.26,7.38.44,11.17-.73-.03-1.46-.06-2.19-.08-.72-.01-1.44,0-2.17.02.17-3.58.26-7.16.32-10.75.05-3.88.06-7.76-.11-11.64ZM57.72,60.96c.01.13.03.26.05.39-.01.81-.02,1.61-.03,2.42-.25-.04-.5-.08-.75-.11-.71-.12-1.42-.14-2.14-.09l-.53.06-.3.03s-.02.01-.03.01c-.01-3.27.06-6.55.17-9.82.07,0,.14.02.21.02.65.06,1.29.09,1.93.13.54.03,1.07.05,1.61.07-.05,2.1-.09,4.2-.12,6.29-.05.08-.08.16-.09.25-.02.21.01.24.02.35ZM53.98,64.22s.08-.03.11-.02c.02.01.16.02.23.03l.53.06c.72.05,1.43.03,2.14-.09.25-.04.5-.08.75-.11,0,.18-.01.37-.01.56,0,.62,0,1.25-.01,1.87-1.2.02-2.41.06-3.61.21-.03.01-.07,0-.1-.01-.01-.64-.03-1.27-.03-1.91,0-.2.01-.39,0-.59ZM56.3,100.67c1.06-.03,2.12-.07,3.18-.14.08,1.01.18,2.03.33,3.04l.05.4.29-.05c.47-.08.97-.19,1.58-.29-.15,1.09-.33,2.02-.45,2.89-.15,0-.3.01-.46.01-3.25.01-6.5.02-9.75.05.02-.83.07-1.66.15-2.49l1.23.12.57.06.07-.7c.09-.98.13-1.96.17-2.94,1.02.03,2.03.05,3.04.04ZM59.22,84.9c.02-.83.05-1.65.07-2.48l.46.05c.71.05,1.43.03,2.14-.09.71-.11,1.42-.24,2.13-.23.16.01.31.12.35.27.02.14-.02.35-.04.51-.04.36-.11.72-.16,1.07-.06.31-.11.88-.14.73-.01,0-.01-.01-.01-.01,0-.01-.04-.01-.08-.01h-.13l-.53-.02c-1.36,0-2.71.05-4.06.21ZM63.54,63.11s-.16-.02-.23-.03l-.53-.06c-.71-.05-1.43-.03-2.14.09-.41.06-.82.12-1.24.17,0-.83-.01-1.65-.03-2.48,1.39-.01,2.77-.05,4.15-.22.08-.02.18.02.23.12.05.05.04.31.05.47.02.35.02.71,0,1.06l-.04.54c-.01.21-.04.28-.12.32-.04.02-.08.02-.11.02ZM64.06,64.2c.71-.11,1.42-.24,2.13-.23.16,0,.31.12.35.27.02.13-.02.34-.03.51-.05.36-.12.71-.17,1.07-.06.3-.11.88-.14.72h-.01s-.07-.01-.07-.01h-.14s-.53-.03-.53-.03c-1.42,0-2.85.06-4.27.23-.08.02-.18-.03-.23-.12-.04-.06-.04-.32-.05-.47-.02-.35-.02-.71-.01-1.07l.04-.53c.02-.21.04-.28.12-.32.04-.02.08-.03.11-.02.02.01.16.02.23.03l.53.06c.72.05,1.43.03,2.14-.09ZM59.41,64.16s.05.05.06.08c.02.13-.02.34-.04.51,0,.03,0,.05-.01.08,0-.23,0-.45-.01-.67ZM63.48,78.97h.14l.53.02c1.42-.01,2.85-.05,4.27-.23.08-.02.18.03.23.12.05.06.04.32.05.47.02.36.02.71.01,1.07l-.04.53c-.01.22-.04.28-.12.32-.04.02-.08.03-.11.02-.02,0-.16-.02-.23-.03l-.53-.05c-.72-.06-1.43-.04-2.14.08-.71.11-1.42.24-2.13.23-.16,0-.31-.12-.35-.27-.02-.13.02-.34.03-.51.05-.35.12-.71.17-1.07.06-.3.11-.88.14-.72h0s.04.01.08.02ZM66.06,82.38s.16.02.23.03l.53.06c.71.05,1.43.03,2.14-.09.22-.03.45-.07.68-.1-.01.81,0,1.62,0,2.43-1.19.01-2.37.06-3.56.2-.08.02-.18-.02-.23-.11-.05-.06-.04-.32-.05-.47-.02-.36-.02-.72-.01-1.07l.04-.54c.01-.21.04-.27.12-.32.04-.02.08-.02.11-.02ZM67.91,104.09l1.23.12.58.06.06-.7c.1-.98.14-1.96.18-2.94,1.01.03,2.02.05,3.04.04,1.06-.03,2.12-.07,3.18-.14.08,1.01.18,2.03.32,3.04l.06.4.29-.05c.46-.08.96-.19,1.58-.29-.15,1.03-.31,1.91-.43,2.73-2.68.02-5.37.05-8.06.06-.72.01-1.45.02-2.17.03.02-.79.07-1.58.14-2.36ZM104.02,104.09l1.23.12.57.06.07-.7c.09-.98.13-1.96.17-2.94,1.01.03,2.03.05,3.04.04,1.06-.03,2.12-.07,3.18-.14.08,1.01.18,2.03.32,3.04l.06.4.29-.05c.47-.08.97-.19,1.58-.29-.16,1.09-.33,2.01-.45,2.88-.07,0-.14,0-.21,0l-9.99-.13c.02-.76.06-1.52.14-2.28ZM117.85,61.84h.14s.53.03.53.03c1.42-.01,2.85-.06,4.27-.23.08-.02.18.03.23.12.05.06.04.32.05.47.02.35.02.71.01,1.07l-.04.53c-.01.21-.04.28-.12.32-.04.02-.08.03-.11.02-.02-.01-.16-.02-.23-.03l-.53-.06c-.72-.05-1.43-.03-2.14.09-.71.11-1.42.24-2.13.23-.16,0-.31-.12-.35-.27-.02-.13.02-.34.04-.51.04-.36.11-.71.16-1.07.06-.3.11-.88.14-.72h0s.04.01.08.01ZM120.43,65.26s.16.02.23.03l.53.06c.71.05,1.43.03,2.14-.09.48-.07.96-.14,1.43-.18,0,.83-.01,1.66-.03,2.49h-.01c-1.42,0-2.85.05-4.27.22-.08.02-.18-.02-.23-.11-.05-.06-.04-.32-.05-.48-.02-.35-.02-.71-.01-1.06l.04-.54c.01-.21.04-.28.12-.32.04-.02.08-.02.11-.02ZM124.42,93.41h-.3c-1.42,0-2.85.05-4.27.22-.08.02-.18-.03-.23-.12-.05-.06-.04-.32-.05-.47-.02-.36-.02-.71-.01-1.07l.04-.53c.01-.21.04-.28.12-.32.04-.02.08-.03.11-.02.02.01.16.02.23.03l.53.06c.71.05,1.43.03,2.14-.09.54-.09,1.09-.16,1.63-.2.02.84.03,1.68.06,2.51ZM124.35,90.23s-.07.01-.1.01c-.16-.01-.31-.12-.35-.27-.02-.14.02-.34.04-.51.04-.36.11-.71.16-1.07.06-.31.11-.88.14-.73,0,0,0,.02,0,.02h.05v.42c0,.71.03,1.42.05,2.13ZM122.55,104.09l1.23.12.57.06.07-.7c.09-.98.13-1.96.17-2.94,1.01.03,2.03.05,3.04.04,1.06-.03,2.12-.07,3.18-.14.08,1.01.18,2.03.32,3.04l.06.4.29-.05c.47-.08.97-.19,1.58-.29-.17,1.19-.36,2.18-.47,3.12-.74-.06-1.48-.1-2.22-.11-.92-.03-1.83-.03-2.75.03-.22.02-.43.04-.65.07-.23-.01-.45-.01-.68-.01-.48-.01-.96-.02-1.44-.03-.82-.02-1.63-.03-2.45-.05.02-.85.07-1.71.15-2.56ZM131.87,103.28c.15-1.18.27-2.35.35-3.53l.06-.68-.8-.06c-.49-.04-.98-.06-1.47-.09.07-1.53.14-3.06.21-4.62.32.01.65.02.97.02h.53s.14-.02.14-.02c.04,0,.08,0,.19-.01.18-.03.34-.12.46-.24s.21-.29.23-.46c.02-.2-.01-.24-.01-.34-.02-.18-.06-.36-.08-.53-.06-.36-.13-.71-.17-1.07-.04-.18-.01-.34-.08-.55-.07-.19-.27-.33-.47-.32-.52.01-1.05-.06-1.57-.14.02-.73.05-1.45.08-2.17.12-3.86.24-7.74.29-11.67.08-3.92.07-7.88.02-11.83-.03-3.64-.08-7.28-.18-10.9.31,0,.61.01.91,0l.93-.04-.03-.86c-.09-2.17-.4-4.33-.76-6.04h.02l.11-.18c.47-.71,1.03-1.37,1.53-2.07l.08-.12c.48-.01.96-.02,1.43-.04h.13v.16h.3c3.51-.08,7-.08,10.54.06,3.53.13,7.13.32,10.68.33,3.55.01,7.05-.09,10.53-.18,1.63-.05,3.24-.12,4.84-.19l.1,14.68.17,15.78.34,29.32.03,2.18c-3.14-.11-6.28-.2-9.42-.25-3.77-.04-7.53-.14-11.29-.13-3.77-.01-7.53.06-11.29.15-1.92.04-3.84.1-5.76.18h-1.01c-.12-1.21-.32-2.36-.5-3.29-.38-.07-.83-.16-1.31-.23ZM16.05,25.1c1.82-4.58,3.55-9.09,5.23-13.65,4.95.04,9.9.02,14.84-.08l15.36-.34c5.12-.1,10.24-.07,15.36-.03,3.36.03,6.73.09,10.09.16l-8.7,6.56c-7.72,5.79-15.4,11.64-23.05,17.52l-.42.32.33.39,2.44,2.93c-1.57,0-3.13.02-4.7.05-1.51-.05-3.03-.09-4.54-.11-3.49-.04-6.98-.14-10.47-.13-3.48-.01-6.97.05-10.46.13-2.27.05-4.54.13-6.81.23l5.5-13.95ZM9.64,43.37h-.47v.47c0,.18,0,.36.01.54-.74.04-1.47.07-2.22.11l.31-4.47c3.36.15,6.73.3,10.09.37,3.49.09,6.98.15,10.46.14,2.86,0,5.71-.06,8.57-.1l2.58.06c3.06.06,6.13.12,9.2.14l.04,2.01h-.03v.47s-38.54.26-38.54.26ZM10.45,44.32c-.11,0-.22.01-.34.01h0s.34-.01.34-.01ZM43.16,111.39c-3.78-.09-7.52-.19-11.22-.17-3.69.02-7.35.21-11.06.34-3.61.13-7.26.12-10.89.04l.12-3.72c3.61.14,7.22.25,10.83.31,3.77.03,7.53.14,11.29.12,3.77,0,7.53-.06,11.29-.14,1.33-.04,2.67-.08,4-.13l.06,3.5c-1.48-.05-2.96-.11-4.42-.15ZM44.2,106.64c-.23,0-.45-.02-.68-.02-3.76-.09-7.52-.16-11.29-.15-3.76-.01-7.52.09-11.29.13-3.56.05-7.13.16-10.7.3h-.27l-.06-15.52.03-15.85c0-10.25.1-20.49.17-30.74,2.27.11,4.56.22,6.89.29,3.48.09,6.98.19,10.53.18,3.55,0,7.15-.2,10.68-.33,3.37-.13,6.69-.14,10.02-.07v.17h.46c.86-.03,1.72-.03,2.57-.05.05.21.09.44.15.68.1.41.25.85.42,1.28.15,1.02.33,2.03.35,3.04.02,1.06-.05,2.12-.2,3.18l-.06.41.53.07c.27.03.54.06.8.1.13,3.69.23,7.38.19,11.07-.02,3.88-.23,7.77-.36,11.65-.17,3.88-.16,7.76-.11,11.64.06,3.59.15,7.18.32,10.77-.28.01-.56.02-.84.03l-.89.04.04.81c.05,1.08.09,2.17.17,3.25l-.98.1-.52.05.05.42c.1,1.01.16,2.01.19,3.02h-.27l-6.04.05ZM48.37,111.54l.07-3.53c1.18-.04,2.36-.09,3.54-.14.7.01,1.41.01,2.11.01.14.02.27.03.4.05l.24,3.67c-2.12-.02-4.24-.03-6.36-.06ZM113.5,111.38c-7.34-.1-14.63-.19-21.88-.15-7.24.06-14.46.26-21.74.38-4.98.06-9.98.04-14.98,0l.23-3.61c.39.04.77.08,1.16.11.92.07,1.84.06,2.75.03.92,0,1.84-.07,2.75-.14l.65-.05h0c2.5.02,5,.06,7.5.08.8,0,1.59.01,2.39.02.22.02.44.04.66.06.91.07,1.83.06,2.75.03.5,0,1-.03,1.5-.06,4.89.04,9.78.08,14.66.07l10.99-.06,5.29-.07c.3.03.61.07.91.09.92.07,1.83.06,2.75.03.92,0,1.83-.07,2.75-.14l.64-.05v-.03c3-.03,6-.08,9-.16.21.02.43.03.64.06.92.1,1.83.22,2.75.29.41.03.82.04,1.23.05l.23,3.53c-5.23-.13-10.41-.22-15.58-.31ZM131.62,111.75c-.8-.02-1.59-.04-2.39-.06l.24-3.53c.3-.01.6-.01.9-.02.92,0,1.84-.07,2.75-.14l.65-.05h0c.61.02,1.23.04,1.85.06l.14,3.56c-1.36.05-2.75.11-4.14.18ZM173.86,107.88l.12,3.72c-3.63.08-7.28.09-10.89-.04-3.71-.13-7.37-.32-11.06-.34-3.7-.02-7.44.08-11.22.17-1.62.05-3.26.11-4.9.17l.14-3.53c1.46.05,2.93.1,4.4.14,3.76.08,7.52.15,11.29.14,3.76.02,7.52-.09,11.29-.12,3.61-.06,7.22-.17,10.83-.31ZM173.22,44.3v-.46s.01-.71.01-.71h-.72c-12.31-.06-24.62-.15-36.93-.16.03-.78.06-1.57.08-2.34,3.12-.02,6.23-.08,9.34-.14l2.58-.06c2.86.04,5.71.1,8.57.1,3.48.01,6.97-.05,10.46-.14,3.36-.07,6.73-.22,10.09-.37l.31,4.47c-1.28-.07-2.53-.13-3.79-.19Z"/>
          <path class="cls-5" d="M96.17,53.92c-1.53-1.37-3.73-1.96-5.77-1.63-2.05.32-3.87,1.53-5.06,3.14-1.23,1.59-1.78,3.65-1.62,5.68.17,2.03,1.22,4,2.87,5.28.8.65,1.76,1.13,2.76,1.41.5.16,1.02.23,1.54.26.52.06,1.05.02,1.57-.03,2.07-.28,4.02-1.45,5.15-3.16,1.19-1.7,1.55-3.79,1.32-5.75-.27-1.95-1.18-3.87-2.76-5.2ZM97.16,64.52c-1.25,1.43-2.98,2.38-4.82,2.59-1.83.2-3.77-.22-5.26-1.36-1.5-1.11-2.56-2.82-2.89-4.7-.3-1.88.14-3.94,1.38-5.45,1.2-1.53,3.06-2.43,4.92-2.6,1.87-.19,3.78.27,5.35,1.35,1.58,1.06,2.76,2.83,3,4.78.24,1.96-.4,3.97-1.68,5.39Z"/>
          <path class="cls-5" d="M90.88,60.13c-.99.02-1.99.05-2.98.1-.5.03-1,.08-1.5.12-.5-.04-.99-.09-1.49-.12l-.4-.03.05.44c.17,1.58.86,3.16,2.04,4.28.55.54,1.21.97,1.9,1.28.03.02.06.04.08.05.74.33,1.49.52,2.33.5.08-.64.16-1.36.22-2.1.13-1.3.23-2.68.21-4.06v-.47s-.46.01-.46.01ZM88.88,65.7s-.05-.03-.07-.05c-.59-.39-1.12-.84-1.58-1.35-.48-.53-.89-1.12-1.24-1.74-.28-.52-.47-1.08-.62-1.65.34-.03.68-.06,1.03-.09.5.05,1,.09,1.5.12.84.05,1.68.07,2.53.09,0,1.08.09,2.18.2,3.34.06.73.14,1.49.22,2.32-.65-.29-1.36-.6-1.97-.99Z"/>
          <path class="cls-5" d="M90.8,53.09c-.53.11-1.03.29-1.51.5-1.02.37-1.96.95-2.69,1.76-.55.59-.98,1.29-1.28,2.02-.15.39-.26.77-.34,1.16-.15.36-.28.72-.37,1.11l-.07.3.37.04c1.01.11,2.04.08,3.03.03.97.05,1.97.08,2.94-.03l.33-.03-.03-.27c-.04-.44-.08-.87-.11-1.31.16-1.51.29-3.17.27-4.82v-.56s-.54.1-.54.1ZM90.61,59.36c-.86-.08-1.69-.05-2.57,0-.03,0-.07.01-.1.01-.06,0-.12-.01-.18-.01-.85-.05-1.67-.08-2.51-.01.02-.23.05-.47.1-.7.16-.35.33-.69.53-1,.38-.62.83-1.19,1.35-1.69.52-.49,1.09-.92,1.71-1.28.21-.12.44-.22.66-.32.28-.09.55-.17.83-.24.02,1.32.13,2.66.28,4.12-.03.37-.07.74-.1,1.12Z"/>
          <path class="cls-5" d="M96.44,60.35c-.5-.04-1-.09-1.5-.12-.99-.05-1.99-.08-2.98-.1h-.46s0,.46,0,.46c-.02,1.38.08,2.76.2,4.06.07.74.14,1.46.23,2.1.84.02,1.59-.17,2.32-.5.03-.01.05-.03.08-.04.7-.32,1.35-.75,1.91-1.29,1.17-1.12,1.87-2.7,2.04-4.28l.05-.44-.41.03c-.49.03-.98.08-1.48.12ZM96.84,62.56c-.34.62-.75,1.21-1.23,1.74-.47.51-1,.97-1.58,1.35-.03.02-.05.04-.07.05-.61.39-1.32.7-1.98.99.09-.83.17-1.59.23-2.32.11-1.16.19-2.26.2-3.34.84-.02,1.69-.04,2.53-.09.5-.03,1-.07,1.5-.12.34.03.69.06,1.03.09-.15.57-.34,1.13-.63,1.65Z"/>
          <path class="cls-5" d="M97.8,57.75c-.35-.9-.86-1.73-1.56-2.4-.58-.56-1.26-1.01-1.99-1.33-.41-.17-.81-.3-1.23-.39-.33-.14-.66-.27-1.01-.37l-.31-.08-.03.37c-.05.52-.1,1.07-.09,1.6,0,.52.02,1.04.05,1.55-.03.45-.05.91-.05,1.37-.01.54.04,1.08.09,1.61l.03.31.26-.02c.41-.04.82-.08,1.24-.11.52.06,1.05.11,1.6.16,1.02.07,2.08.13,3.12.12h.54s-.08-.53-.08-.53c-.1-.65-.31-1.27-.58-1.86ZM95.08,59.35c-.56.04-1.15.1-1.75.16-.35-.02-.71-.06-1.06-.09.04-.4.07-.8.06-1.19.01-.49-.02-.97-.05-1.47,0-.03-.01-.06-.01-.1,0-.06.01-.12.02-.18.02-.5.05-.99.04-1.47.01-.38-.02-.76-.06-1.14.22.03.43.07.64.12.37.17.73.35,1.05.57.61.4,1.17.87,1.65,1.4.48.53.89,1.12,1.23,1.75.11.19.18.4.27.6.1.3.19.61.25.92-.75.01-1.5.05-2.28.12Z"/>
          <path class="cls-5" d="M91.65,73.32c-1.98.02-3.95.09-5.92.22.14,0,.07,4.79.05,5.23l-.16,2.5c-.04.83-.04,1.66-.02,2.5v.38h.37c1.84-.04,3.69-.19,5.29-.35.37-.04.32-3.7.33-4.05.03-.91.14-6.43.06-6.43ZM86.33,83.41c.01-.72.02-1.43-.02-2.14l-.16-2.5c-.1-1.59-.05-3.17.04-4.76,1.53.11,3.06.15,4.59.18-.03,1.47,0,2.93.08,4.43.08,1.64.2,3.33.33,5.12-1.76-.15-3.32-.29-4.86-.33Z"/>
          <path class="cls-5" d="M98.34,73.32h-.43c-1.75.05-3.51.08-5.26.21l-.25.02v.22c.12,1.66.16,3.33.06,5l-.16,2.5c-.04.83-.04,1.66-.02,2.5v.38h.37c1.84-.04,3.69-.19,5.29-.35.13-1.54.25-3.19.33-4.89.09-1.68.12-3.43.08-5.14v-.45ZM93.03,83.41c.01-.72.01-1.43-.03-2.14l-.16-2.5c-.1-1.59-.05-3.17.04-4.76,1.53.11,3.06.15,4.59.18-.03,1.47,0,2.93.08,4.43.08,1.64.2,3.33.33,5.12-1.76-.15-3.31-.29-4.85-.33Z"/>
          <path class="cls-5" d="M98.34,84.51h-.43c-1.75.05-3.51.08-5.26.21l-.25.02v.22c.12,1.66.16,3.33.06,5l-.11,1.66h-.04s.03.18.03.18l-.04.66c-.02.43-.01.87-.01,1.31-.14.57-.1,1.15-.01,1.72l.06.33.24-.03c.37-.05.71-.17.92-.27.02-.07.05-.14.07-.22,1.53-.05,3.03-.18,4.37-.31.13-1.54.25-3.19.33-4.89.09-1.68.12-3.43.08-5.14v-.45ZM93.03,93.12c-.01-.22-.02-.44-.03-.66l-.02-.33s.05,0,.08,0c-.02.17-.03.34-.04.5-.01.16,0,.32.01.48ZM93.07,93.48c.05.35.11.72.19,1.12h-.23c.01-.48.01-.96,0-1.43.02.1.03.21.04.31ZM92.99,95.32c.14,0,.28,0,.42,0,.01.05.02.1.03.15-.18-.05-.32-.09-.45-.14ZM93.74,94.62c.05-.26.09-.53.13-.81.03-.32.05-.66.05-1-.01-.34-.04-.67-.07-1l-.03-.41-.35.02c-.18.02-.35.05-.53.08l-.1-1.54c-.1-1.59-.05-3.17.04-4.76,1.53.11,3.06.15,4.59.18-.03,1.47,0,2.93.08,4.43.08,1.64.2,3.32.33,5.12-1.49-.13-2.83-.25-4.14-.31Z"/>
          <path class="cls-5" d="M119.1,66.88c-.05-.36-.12-.71-.16-1.07-.04-.18,0-.34-.08-.55-.08-.19-.27-.32-.47-.31-.71.01-1.42-.12-2.13-.23-.71-.12-1.43-.14-2.14-.09l-.53.06-.3.04c-.15.02-.28.1-.37.2-.21.2-.18.54-.15.67l.04.54c.01.35.01.71,0,1.06v.27c-.02.08-.04.19,0,.32.06.25.3.46.58.47,1.42.18,2.84.22,4.27.23l.53-.02h.13s.09,0,.19-.02c.18-.02.35-.11.47-.24.12-.12.2-.28.23-.45.02-.21-.01-.24-.02-.35-.01-.17-.05-.35-.08-.53ZM118.7,65.81c-.04.36-.11.71-.16,1.07-.06.31-.11.88-.14.73-.01,0-.01-.02-.01-.02h-.21s-.53-.02-.53-.02c-1.43,0-2.85.05-4.27.22-.08.02-.18-.02-.23-.11-.05-.06-.04-.32-.05-.48-.02-.35-.02-.71-.01-1.06l.04-.54c.01-.21.04-.28.12-.32.04-.02.07-.02.11-.02,0,.01.16.02.23.03l.53.06c.71.05,1.43.03,2.14-.09.71-.11,1.42-.24,2.13-.23.16.01.31.12.35.27.02.14-.02.34-.04.51Z"/>
          <path class="cls-5" d="M22.65,56.82c.62-.06,1.2-.16,1.69-.28.2-.99.4-2.3.43-3.6v-.45s-.46-.01-.46-.01c-.6-.01-1.19.03-1.79.06-.59.02-1.19.08-1.78.17l-.27.03.03.2c.07.6.13,1.19.1,1.79-.04.59-.16,1.19-.22,1.78l-.04.33.4.03c.63.05,1.29.01,1.91-.05ZM20.95,53.2c.52.07,1.05.13,1.57.15.45.02.9.04,1.35.05.06.93.23,1.89.41,3.08-.71-.11-1.32-.21-1.89-.28-.46-.05-.9-.07-1.34-.05-.07-.48-.15-.95-.17-1.42-.03-.51.01-1.02.07-1.53Z"/>
          <path class="cls-5" d="M15.41,56.77l.2-.02c.59-.08,1.19-.13,1.78-.1.6.03,1.2.16,1.79.22l.33.03.03-.39c.05-.64.01-1.29-.05-1.91s-.17-1.2-.28-1.69c-1-.21-2.3-.4-3.6-.43h-.45s-.01.46-.01.46c-.01.6.02,1.19.05,1.79.02.59.09,1.19.17,1.78l.04.26ZM16.02,54.73c.02-.45.04-.91.04-1.36.94-.06,1.9-.22,3.09-.4-.11.7-.22,1.31-.28,1.88-.05.47-.07.91-.06,1.35-.47.07-.94.15-1.42.17-.5.03-1.01-.01-1.52-.07.07-.52.13-1.05.15-1.57Z"/>
          <path class="cls-5" d="M22.65,61.82c.62-.07,1.2-.17,1.69-.28.2-1,.4-2.3.43-3.6v-.45s-.46-.01-.46-.01c-.6-.02-1.19.02-1.79.05-.59.02-1.19.09-1.78.17l-.27.04.03.2c.07.59.13,1.19.1,1.78-.04.6-.16,1.19-.22,1.79l-.04.32.4.04c.63.05,1.29.01,1.91-.05ZM20.95,58.2c.52.07,1.05.12,1.57.14.45.02.9.04,1.35.05.06.93.23,1.9.41,3.09-.71-.12-1.32-.22-1.89-.28-.46-.05-.9-.07-1.34-.06-.07-.47-.15-.95-.17-1.42-.03-.51.01-1.01.07-1.52Z"/>
          <path class="cls-5" d="M15.22,61.83l.39.04c.64.05,1.3.01,1.91-.05.62-.07,1.2-.17,1.69-.28.21-1,.4-2.3.43-3.6v-.45s-.46-.01-.46-.01c-.59-.02-1.19.02-1.79.05-.59.02-1.19.09-1.78.17l-.26.04.02.2c.08.59.13,1.19.1,1.78-.03.6-.16,1.19-.22,1.79l-.03.32ZM15.82,58.2c.52.07,1.05.12,1.57.14.46.02.91.04,1.36.05.06.93.22,1.9.4,3.09-.7-.12-1.31-.22-1.88-.28-.47-.05-.91-.07-1.35-.06-.07-.47-.15-.95-.17-1.42-.03-.51.01-1.01.07-1.52Z"/>
          <path class="cls-5" d="M22.65,66.81c.62-.06,1.2-.16,1.69-.28.2-.99.4-2.3.43-3.6v-.45s-.46-.01-.46-.01c-.6-.01-1.19.03-1.79.06-.59.01-1.19.08-1.78.16l-.27.04.03.2c.07.6.13,1.19.1,1.79-.04.59-.16,1.19-.22,1.78l-.04.33.4.03c.63.05,1.29.01,1.91-.05ZM20.95,63.19c.52.07,1.05.13,1.57.15.45.02.9.04,1.35.05.06.93.23,1.89.41,3.08-.71-.11-1.32-.22-1.89-.28-.46-.05-.9-.07-1.34-.05-.07-.48-.15-.95-.17-1.42-.03-.51.01-1.02.07-1.53Z"/>
          <path class="cls-5" d="M17.52,66.81c.62-.06,1.2-.16,1.69-.28.21-.99.4-2.3.43-3.6v-.45s-.46-.01-.46-.01c-.59-.01-1.19.03-1.79.06-.59.01-1.19.08-1.78.16l-.26.04.02.2c.08.6.13,1.19.1,1.79-.03.59-.16,1.19-.22,1.78l-.03.33.39.03c.64.05,1.3.01,1.91-.05ZM15.75,64.72c-.03-.51.01-1.02.07-1.53.52.07,1.05.13,1.57.15.46.02.91.04,1.36.05.06.93.22,1.89.4,3.08-.7-.11-1.31-.22-1.88-.28-.47-.05-.91-.07-1.35-.05-.07-.48-.15-.95-.17-1.42Z"/>
          <path class="cls-5" d="M26,67.81c0-1.31,0-2.63-.07-3.95l-.14-4.24c-.06-2.82-.03-5.65.07-8.47v-.23h-.24c-1.92-.08-3.84-.13-5.76-.16l-5.76-.07h-.46s0,.46,0,.46c-.02,2.88.03,5.77.12,8.61.06,2.75.19,5.44.29,8.06-.5.02-1,.04-1.51.07l-.22.02v.19c.06.69.14,1.36.19,1.96,1.12.11,2.31.17,3.51.23,1.21.05,2.44.09,3.69.09s2.53-.09,3.77-.15c1.25-.08,2.47-.08,3.7-.05h.15s0-.15,0-.15c.01-.64.06-1.29.08-1.93v-.22s-.23-.02-.23-.02c-.39-.02-.78-.03-1.18-.05ZM14.44,59.48c.08-2.65.12-5.26.11-7.88l5.31-.07c1.84-.03,3.69-.08,5.53-.14.09,2.74.12,5.49.06,8.23l-.14,4.24c-.06,1.29-.06,2.57-.07,3.86l-1.04.02c-.23-.01-.45-.03-.68-.03-1.22-.02-2.44-.07-3.66-.07s-2.44.02-3.66.07c-.69.02-1.37.07-2.06.1.11-2.84.23-5.61.3-8.33ZM23.56,69.83c-1.2-.06-2.37-.16-3.55-.16s-2.4.05-3.63.1c-1.24.06-2.49.12-3.81.23.05-.61.12-1.15.16-1.68,1.16.08,2.31.14,3.47.17,1.22.05,2.44.08,3.66.07,1.22,0,2.44-.04,3.66-.06.22-.01.44-.03.66-.03l1.44.02h.39v-.1c.32-.02.63-.02.94-.04.03.51.06,1.02.07,1.53-1.16.02-2.32.02-3.46-.05Z"/>
          <path class="cls-5" d="M43.45,56.82c.62-.06,1.2-.16,1.69-.28.2-.99.4-2.3.43-3.6v-.45s-.46-.01-.46-.01c-.6-.01-1.19.03-1.79.06-.59.02-1.19.08-1.78.17l-.26.03.02.2c.08.6.13,1.19.1,1.79-.03.59-.16,1.19-.22,1.78l-.04.33.4.03c.63.05,1.29.01,1.91-.05ZM41.75,53.2c.52.07,1.05.13,1.57.15.45.02.9.04,1.35.05.07.93.23,1.89.41,3.08-.7-.11-1.32-.21-1.89-.28-.46-.05-.9-.07-1.34-.05-.07-.48-.15-.95-.17-1.42-.03-.51,0-1.02.07-1.53Z"/>
          <path class="cls-5" d="M36.21,56.77l.2-.02c.6-.08,1.19-.13,1.79-.1.59.03,1.19.16,1.78.22l.33.03.03-.39c.05-.64.01-1.29-.05-1.91s-.16-1.2-.28-1.69c-.99-.21-2.3-.4-3.6-.43h-.45s-.01.46-.01.46c-.01.6.03,1.19.05,1.79.02.59.09,1.19.17,1.78l.04.26ZM36.82,54.73c.02-.45.04-.91.04-1.36.94-.06,1.9-.22,3.09-.4-.11.7-.22,1.31-.28,1.88-.05.47-.07.91-.05,1.35-.48.07-.95.15-1.42.17-.51.03-1.02-.01-1.53-.07.07-.52.13-1.05.15-1.57Z"/>
          <path class="cls-5" d="M43.45,61.82c.62-.07,1.2-.17,1.69-.28.2-1,.4-2.3.43-3.6v-.45s-.46-.01-.46-.01c-.6-.02-1.19.02-1.79.05-.59.02-1.19.09-1.78.17l-.26.04.02.2c.08.59.13,1.19.1,1.78-.03.6-.16,1.19-.22,1.79l-.04.32.4.04c.63.05,1.29.01,1.91-.05ZM41.75,58.2c.52.07,1.05.12,1.57.14.45.02.9.04,1.35.05.07.93.23,1.9.41,3.09-.7-.12-1.32-.22-1.89-.28-.46-.05-.9-.07-1.34-.06-.07-.47-.15-.95-.17-1.42-.03-.51,0-1.01.07-1.52Z"/>
          <path class="cls-5" d="M36.02,61.83l.39.04c.64.05,1.3.01,1.91-.05.62-.07,1.2-.17,1.69-.28.21-1,.41-2.3.43-3.6v-.45s-.46-.01-.46-.01c-.59-.02-1.19.02-1.78.05-.6.02-1.19.09-1.79.17l-.26.04.02.2c.08.59.13,1.19.1,1.78-.03.6-.16,1.19-.22,1.79l-.03.32ZM36.62,58.2c.53.07,1.05.12,1.58.14.45.02.9.04,1.35.05.06.93.22,1.9.4,3.09-.7-.12-1.31-.22-1.88-.28-.47-.05-.91-.07-1.35-.06-.06-.47-.14-.95-.17-1.42-.03-.51,0-1.01.07-1.52Z"/>
          <path class="cls-5" d="M43.45,66.81c.62-.06,1.2-.16,1.69-.28.2-.99.4-2.3.43-3.6v-.45s-.46-.01-.46-.01c-.6-.01-1.19.03-1.79.06-.59.01-1.19.08-1.78.16l-.26.04.02.2c.08.6.13,1.19.1,1.79-.03.59-.16,1.19-.22,1.78l-.04.33.4.03c.63.05,1.29.01,1.91-.05ZM41.75,63.19c.52.07,1.05.13,1.57.15.45.02.9.04,1.35.05.07.93.23,1.89.41,3.08-.7-.11-1.32-.22-1.89-.28-.46-.05-.9-.07-1.34-.05-.07-.48-.15-.95-.17-1.42-.03-.51,0-1.02.07-1.53Z"/>
          <path class="cls-5" d="M38.32,66.81c.62-.06,1.2-.16,1.69-.28.21-.99.41-2.3.43-3.6v-.45s-.46-.01-.46-.01c-.59-.01-1.19.03-1.78.06-.6.01-1.19.08-1.79.16l-.26.04.02.2c.08.6.13,1.19.1,1.79-.03.59-.16,1.19-.22,1.78l-.03.33.39.03c.64.05,1.3.01,1.91-.05ZM36.55,64.72c-.03-.51,0-1.02.07-1.53.53.07,1.05.13,1.58.15.45.02.9.04,1.35.05.06.93.22,1.89.4,3.08-.7-.11-1.31-.22-1.88-.28-.47-.05-.91-.07-1.35-.05-.06-.48-.14-.95-.17-1.42Z"/>
          <path class="cls-5" d="M46.81,67.81c-.02-1.31-.02-2.63-.08-3.95l-.14-4.24c-.06-2.82-.03-5.65.07-8.47v-.23s-.24-.01-.24-.01c-1.92-.07-3.84-.12-5.76-.15l-5.76-.07h-.46s0,.46,0,.46c-.02,2.88.03,5.77.12,8.61.06,2.75.19,5.44.3,8.06-.51.02-1.01.04-1.52.07l-.22.02v.19c.06.69.14,1.36.19,1.96,1.12.11,2.31.17,3.51.23,1.21.05,2.44.09,3.69.09s2.53-.09,3.77-.15c1.25-.08,2.47-.08,3.7-.05h.15s0-.15,0-.15c.01-.64.06-1.29.08-1.93v-.22s-.23-.02-.23-.02c-.39-.02-.78-.03-1.17-.05ZM35.24,59.48c.08-2.65.12-5.26.11-7.88l5.31-.07c1.84-.03,3.69-.08,5.53-.14.09,2.74.12,5.49.06,8.23l-.14,4.24c-.06,1.29-.06,2.57-.07,3.86l-1.04.02c-.23-.01-.45-.03-.68-.03-1.22-.02-2.44-.07-3.66-.07s-2.44.02-3.66.07c-.69.02-1.37.07-2.06.1.11-2.84.23-5.61.3-8.33ZM44.36,69.83c-1.2-.06-2.36-.16-3.55-.16s-2.4.05-3.63.1c-1.24.06-2.49.12-3.81.23.05-.61.12-1.15.16-1.68,1.16.08,2.32.14,3.47.17,1.22.05,2.44.08,3.66.07,1.22,0,2.44-.04,3.66-.06.22-.01.44-.03.67-.03l1.43.02h.39v-.1c.32-.02.63-.02.94-.04.03.51.06,1.02.07,1.53-1.16.02-2.32.02-3.46-.05Z"/>
          <path class="cls-5" d="M145.33,56.82c.62-.06,1.2-.16,1.69-.28.2-.99.4-2.3.43-3.6v-.45h-.46c-.6-.02-1.19.02-1.79.05-.59.02-1.19.08-1.78.17l-.27.03.03.2c.07.6.13,1.19.1,1.79-.04.59-.16,1.19-.22,1.78l-.04.33.4.03c.63.05,1.29.01,1.91-.05ZM143.63,53.2c.52.07,1.05.13,1.57.15.45.02.9.04,1.35.05.06.93.23,1.89.41,3.08-.71-.11-1.32-.21-1.89-.28-.46-.05-.9-.07-1.35-.05-.06-.48-.14-.95-.16-1.42-.03-.51.01-1.02.07-1.53Z"/>
          <path class="cls-5" d="M138.09,56.77l.2-.02c.59-.08,1.19-.13,1.78-.1.6.03,1.19.16,1.79.22l.33.03.03-.39c.05-.64.01-1.29-.05-1.91s-.17-1.2-.28-1.69c-1-.21-2.3-.4-3.6-.43h-.45s-.01.46-.01.46c-.01.6.02,1.19.05,1.79.02.59.09,1.19.17,1.78l.04.26ZM138.69,54.73c.03-.45.05-.91.05-1.36.94-.06,1.9-.22,3.09-.4-.11.7-.22,1.31-.28,1.88-.05.47-.07.91-.06,1.35-.47.07-.94.15-1.42.17-.5.03-1.01-.01-1.52-.07.07-.52.13-1.05.14-1.57Z"/>
          <path class="cls-5" d="M145.33,61.82c.62-.07,1.2-.17,1.69-.28.2-1,.4-2.3.43-3.6v-.45h-.46c-.6-.03-1.19.01-1.79.04-.59.02-1.19.09-1.78.17l-.27.04.03.2c.07.59.13,1.19.1,1.78-.04.6-.16,1.19-.22,1.79l-.04.32.4.04c.63.05,1.29.01,1.91-.05ZM143.63,58.2c.52.07,1.05.12,1.57.14.45.02.9.04,1.35.05.06.93.23,1.9.41,3.09-.71-.12-1.32-.22-1.89-.28-.46-.05-.9-.07-1.35-.06-.06-.47-.14-.95-.16-1.42-.03-.51.01-1.01.07-1.52Z"/>
          <path class="cls-5" d="M137.9,61.83l.39.04c.64.05,1.29.01,1.91-.05.62-.07,1.2-.17,1.69-.28.21-1,.4-2.3.43-3.6v-.45s-.46-.01-.46-.01c-.6-.02-1.19.02-1.79.05-.59.02-1.19.09-1.78.17l-.26.04.02.2c.08.59.13,1.19.1,1.78-.03.6-.16,1.19-.22,1.79l-.03.32ZM138.5,58.2c.52.07,1.05.12,1.57.14.46.02.91.04,1.36.05.06.93.22,1.9.4,3.09-.7-.12-1.31-.22-1.88-.28-.47-.05-.91-.07-1.35-.06-.07-.47-.15-.95-.17-1.42-.03-.51,0-1.01.07-1.52Z"/>
          <path class="cls-5" d="M145.33,66.81c.62-.06,1.2-.16,1.69-.28.2-.99.4-2.3.43-3.6v-.45h-.46c-.6-.02-1.19.02-1.79.05-.59.01-1.19.08-1.78.16l-.27.04.03.2c.07.6.13,1.19.1,1.79-.04.59-.16,1.19-.22,1.78l-.04.33.4.03c.63.05,1.29.01,1.91-.05ZM143.63,63.19c.52.07,1.05.13,1.57.15.45.02.9.04,1.35.05.06.93.23,1.89.41,3.08-.71-.11-1.32-.22-1.89-.28-.46-.05-.9-.07-1.35-.05-.06-.48-.14-.95-.16-1.42-.03-.51.01-1.02.07-1.53Z"/>
          <path class="cls-5" d="M140.2,66.81c.62-.06,1.2-.16,1.69-.28.21-.99.4-2.3.43-3.6v-.45s-.46-.01-.46-.01c-.6-.01-1.19.03-1.79.06-.59.01-1.19.08-1.78.16l-.26.04.02.2c.08.6.13,1.19.1,1.79-.03.59-.16,1.19-.22,1.78l-.03.33.39.03c.64.05,1.29.01,1.91-.05ZM138.43,64.72c-.03-.51,0-1.02.07-1.53.52.07,1.05.13,1.57.15.46.02.91.04,1.36.05.06.93.22,1.89.4,3.08-.7-.11-1.31-.22-1.88-.28-.47-.05-.91-.07-1.35-.05-.07-.48-.15-.95-.17-1.42Z"/>
          <path class="cls-5" d="M135.19,70.06c1.12.11,2.31.17,3.51.23,1.21.05,2.44.09,3.69.09s2.53-.09,3.77-.15c1.25-.08,2.47-.08,3.7-.05h.15s0-.15,0-.15c.01-.64.06-1.29.08-1.93v-.22s-.23-.02-.23-.02c-.39-.02-.79-.03-1.18-.05-.01-1.31-.01-2.63-.07-3.95l-.14-4.24c-.06-2.82-.03-5.65.07-8.47v-.23h-.24c-1.92-.08-3.84-.13-5.76-.16l-5.76-.07h-.46s0,.46,0,.46c-.02,2.88.03,5.77.12,8.61.06,2.75.19,5.44.29,8.06-.5.02-1,.04-1.51.07l-.22.02v.19c.06.69.14,1.36.19,1.96ZM137.12,59.48c.08-2.65.12-5.26.11-7.88l5.31-.07c1.84-.03,3.69-.08,5.53-.14.09,2.74.12,5.49.06,8.23l-.14,4.24c-.06,1.29-.06,2.57-.07,3.86l-1.04.02c-.23-.01-.45-.03-.68-.03-1.22-.02-2.44-.07-3.66-.07s-2.44.02-3.66.07c-.69.02-1.37.07-2.06.1.11-2.84.23-5.61.3-8.33ZM135.41,68.32c1.16.08,2.31.14,3.47.17,1.22.05,2.44.08,3.66.07,1.22,0,2.44-.04,3.66-.06.22-.01.44-.03.66-.03l1.44.02h.39v-.1c.32-.02.63-.02.94-.04.03.51.06,1.02.07,1.53-1.16.02-2.32.02-3.46-.05-1.2-.06-2.37-.16-3.55-.16s-2.4.05-3.63.1c-1.24.06-2.49.12-3.81.23.05-.61.12-1.15.16-1.68Z"/>
          <path class="cls-5" d="M155.99,70.06c1.12.11,2.31.17,3.51.23,1.21.05,2.44.09,3.69.09s2.53-.09,3.77-.15c1.25-.08,2.47-.08,3.7-.05h.15s0-.15,0-.15c.01-.64.06-1.29.08-1.93v-.22s-.23-.02-.23-.02c-.39-.02-.78-.03-1.17-.05-.02-1.31-.02-2.63-.08-3.95l-.14-4.24c-.06-2.82-.03-5.65.07-8.47v-.23s-.24-.01-.24-.01c-1.92-.07-3.84-.12-5.76-.15l-5.76-.07h-.46s0,.46,0,.46c-.02,2.88.03,5.77.12,8.61.06,2.75.19,5.44.29,8.06-.5.02-1,.04-1.51.07l-.22.02v.19c.06.69.14,1.36.19,1.96ZM157.92,59.48c.08-2.65.12-5.26.11-7.88l5.31-.07c1.84-.03,3.69-.08,5.53-.14.09,2.74.12,5.49.06,8.23l-.14,4.24c-.06,1.29-.06,2.57-.07,3.86l-1.04.02c-.23-.01-.45-.03-.68-.03-1.22-.02-2.44-.07-3.66-.07s-2.44.02-3.66.07c-.69.02-1.37.07-2.06.1.11-2.84.23-5.61.3-8.33ZM156.21,68.32c1.16.08,2.32.14,3.47.17,1.22.05,2.44.08,3.66.07,1.22,0,2.44-.04,3.66-.06.22-.01.44-.03.67-.03l1.43.02h.39v-.1c.32-.02.63-.02.94-.04.03.51.06,1.02.07,1.53-1.16.02-2.32.02-3.46-.05-1.2-.06-2.36-.16-3.55-.16s-2.4.05-3.63.1c-1.24.06-2.49.12-3.81.23.05-.61.12-1.15.16-1.68Z"/>
          <path class="cls-5" d="M166.13,56.82c.62-.06,1.2-.16,1.69-.28.2-.99.4-2.3.43-3.6v-.45s-.46-.01-.46-.01c-.6-.01-1.19.03-1.79.06-.59.02-1.19.08-1.78.17l-.26.03.02.2c.08.6.13,1.19.1,1.79-.04.59-.16,1.19-.22,1.78l-.04.33.4.03c.63.05,1.29.01,1.91-.05ZM164.43,53.2c.52.07,1.05.13,1.57.15.45.02.9.04,1.35.05.06.93.23,1.89.41,3.08-.7-.11-1.32-.21-1.89-.28-.46-.05-.9-.07-1.34-.05-.07-.48-.15-.95-.17-1.42-.03-.51,0-1.02.07-1.53Z"/>
          <path class="cls-5" d="M158.89,56.77l.2-.02c.6-.08,1.19-.13,1.79-.1.59.03,1.19.16,1.78.22l.33.03.03-.39c.05-.64.01-1.29-.05-1.91s-.17-1.2-.28-1.69c-1-.21-2.3-.4-3.6-.43h-.45s-.01.46-.01.46c-.01.6.02,1.19.05,1.79.02.59.09,1.19.17,1.78l.04.26ZM159.5,54.73c.02-.45.04-.91.04-1.36.94-.06,1.9-.22,3.09-.4-.11.7-.22,1.31-.28,1.88-.05.47-.07.91-.05,1.35-.48.07-.95.15-1.42.17-.51.03-1.02-.01-1.53-.07.07-.52.13-1.05.15-1.57Z"/>
          <path class="cls-5" d="M166.13,61.82c.62-.07,1.2-.17,1.69-.28.2-1,.4-2.3.43-3.6v-.45s-.46-.01-.46-.01c-.6-.02-1.19.02-1.79.05-.59.02-1.19.09-1.78.17l-.26.04.02.2c.08.59.13,1.19.1,1.78-.04.6-.16,1.19-.22,1.79l-.04.32.4.04c.63.05,1.29.01,1.91-.05ZM164.43,58.2c.52.07,1.05.12,1.57.14.45.02.9.04,1.35.05.06.93.23,1.9.41,3.09-.7-.12-1.32-.22-1.89-.28-.46-.05-.9-.07-1.34-.06-.07-.47-.15-.95-.17-1.42-.03-.51,0-1.01.07-1.52Z"/>
          <path class="cls-5" d="M158.7,61.83l.39.04c.64.05,1.3.01,1.91-.05.62-.07,1.2-.17,1.69-.28.21-1,.41-2.3.43-3.6v-.45s-.46-.01-.46-.01c-.59-.02-1.19.02-1.78.05-.6.02-1.19.09-1.79.17l-.26.04.02.2c.08.59.13,1.19.1,1.78-.03.6-.16,1.19-.22,1.79l-.03.32ZM159.3,58.2c.53.07,1.05.12,1.58.14.45.02.9.04,1.35.05.06.93.22,1.9.4,3.09-.7-.12-1.31-.22-1.88-.28-.47-.05-.91-.07-1.35-.06-.07-.47-.14-.95-.17-1.42-.03-.51.01-1.01.07-1.52Z"/>
          <path class="cls-5" d="M166.13,66.81c.62-.06,1.2-.16,1.69-.28.2-.99.4-2.3.43-3.6v-.45s-.46-.01-.46-.01c-.6-.01-1.19.03-1.79.06-.59.01-1.19.08-1.78.16l-.26.04.02.2c.08.6.13,1.19.1,1.79-.04.59-.16,1.19-.22,1.78l-.04.33.4.03c.63.05,1.29.01,1.91-.05ZM164.43,63.19c.52.07,1.05.13,1.57.15.45.02.9.04,1.35.05.06.93.23,1.89.41,3.08-.7-.11-1.32-.22-1.89-.28-.46-.05-.9-.07-1.34-.05-.07-.48-.15-.95-.17-1.42-.03-.51,0-1.02.07-1.53Z"/>
          <path class="cls-5" d="M161,66.81c.62-.06,1.2-.16,1.69-.28.21-.99.41-2.3.43-3.6v-.45s-.46-.01-.46-.01c-.59-.01-1.19.03-1.78.06-.6.01-1.19.08-1.79.16l-.26.04.02.2c.08.6.13,1.19.1,1.79-.03.59-.16,1.19-.22,1.78l-.03.33.39.03c.64.05,1.3.01,1.91-.05ZM159.23,64.72c-.03-.51.01-1.02.07-1.53.53.07,1.05.13,1.58.15.45.02.9.04,1.35.05.06.93.22,1.89.4,3.08-.7-.11-1.31-.22-1.88-.28-.47-.05-.91-.07-1.35-.05-.07-.48-.14-.95-.17-1.42Z"/>
          <path class="cls-5" d="M22.65,84.44c.62-.06,1.2-.16,1.69-.28.2-.99.4-2.3.43-3.6v-.45s-.46-.01-.46-.01c-.6-.01-1.19.03-1.79.06-.59.02-1.19.08-1.78.17l-.27.03.03.2c.07.6.13,1.19.1,1.79-.04.59-.16,1.19-.22,1.78l-.04.33.4.03c.63.05,1.29.02,1.91-.05ZM20.95,80.83c.52.07,1.05.12,1.57.14.45.02.9.04,1.35.05.06.93.23,1.89.41,3.08-.71-.11-1.32-.21-1.89-.27-.46-.05-.9-.08-1.34-.06-.07-.47-.15-.95-.17-1.42-.03-.51.01-1.02.07-1.52Z"/>
          <path class="cls-5" d="M15.41,84.4l.2-.03c.59-.07,1.19-.13,1.78-.1.6.04,1.2.16,1.79.22l.33.04.03-.4c.05-.63.01-1.29-.05-1.91s-.17-1.2-.28-1.69c-1-.2-2.3-.4-3.6-.43h-.45s-.01.46-.01.46c-.01.6.02,1.19.05,1.79.02.59.09,1.19.17,1.78l.04.27ZM16.02,82.35c.02-.45.04-.9.04-1.35.94-.06,1.9-.23,3.09-.41-.11.71-.22,1.32-.28,1.89-.05.46-.07.9-.06,1.34-.47.07-.94.15-1.42.17-.5.03-1.01-.01-1.52-.07.07-.52.13-1.05.15-1.57Z"/>
          <path class="cls-5" d="M22.65,89.44c.62-.06,1.2-.17,1.69-.28.2-1,.4-2.3.43-3.6v-.45s-.46-.01-.46-.01c-.6-.01-1.19.02-1.79.05-.59.02-1.19.09-1.78.17l-.27.04.03.2c.07.59.13,1.19.1,1.78-.04.6-.16,1.19-.22,1.79l-.04.33.4.03c.63.05,1.29.01,1.91-.05ZM20.95,85.82c.52.07,1.05.13,1.57.14.45.03.9.05,1.35.05.06.94.23,1.9.41,3.09-.71-.11-1.32-.22-1.89-.28-.46-.05-.9-.07-1.34-.06-.07-.47-.15-.94-.17-1.42-.03-.5.01-1.01.07-1.52Z"/>
          <path class="cls-5" d="M15.22,89.46l.39.03c.64.05,1.3.01,1.91-.05.62-.06,1.2-.17,1.69-.28.21-1,.4-2.3.43-3.6v-.45s-.46-.01-.46-.01c-.59-.01-1.19.02-1.79.05-.59.02-1.19.09-1.78.17l-.26.04.02.2c.08.59.13,1.19.1,1.78-.03.6-.16,1.19-.22,1.79l-.03.33ZM15.82,85.82c.52.07,1.05.13,1.57.14.46.03.91.05,1.36.05.06.94.22,1.9.4,3.09-.7-.11-1.31-.22-1.88-.28-.47-.05-.91-.07-1.35-.06-.07-.47-.15-.94-.17-1.42-.03-.5.01-1.01.07-1.52Z"/>
          <path class="cls-5" d="M22.65,94.43c.62-.06,1.2-.16,1.69-.28.2-.99.4-2.3.43-3.6v-.45s-.46-.01-.46-.01c-.6-.01-1.19.03-1.79.06-.59.02-1.19.08-1.78.17l-.27.03.03.2c.07.6.13,1.19.1,1.79-.04.59-.16,1.19-.22,1.78l-.04.33.4.03c.63.05,1.29.01,1.91-.05ZM20.95,90.81c.52.07,1.05.13,1.57.15.45.02.9.04,1.35.05.06.93.23,1.89.41,3.08-.71-.11-1.32-.21-1.89-.27-.46-.06-.9-.08-1.34-.06-.07-.47-.15-.95-.17-1.42-.03-.51.01-1.02.07-1.53Z"/>
          <path class="cls-5" d="M17.52,94.43c.62-.06,1.2-.16,1.69-.28.21-.99.4-2.3.43-3.6v-.45s-.46-.01-.46-.01c-.59-.01-1.19.03-1.79.06-.59.02-1.19.08-1.78.17l-.26.03.02.2c.08.6.13,1.19.1,1.79-.03.59-.16,1.19-.22,1.78l-.03.33.39.03c.64.05,1.3.01,1.91-.05ZM15.75,92.34c-.03-.51.01-1.02.07-1.53.52.07,1.05.13,1.57.15.46.02.91.04,1.36.05.06.93.22,1.89.4,3.08-.7-.11-1.31-.21-1.88-.27-.47-.06-.91-.08-1.35-.06-.07-.47-.15-.95-.17-1.42Z"/>
          <path class="cls-5" d="M26,95.44c0-1.32,0-2.64-.07-3.96l-.14-4.23c-.06-2.83-.03-5.66.07-8.48v-.23h-.24c-1.92-.08-3.84-.13-5.76-.16l-5.76-.07h-.46s0,.46,0,.46c-.02,2.88.03,5.77.12,8.62.06,2.74.19,5.43.29,8.05-.5.03-1,.04-1.51.07l-.22.02v.19c.06.7.14,1.36.19,1.96,1.12.11,2.31.17,3.51.23,1.21.05,2.44.1,3.69.1,1.25,0,2.53-.1,3.77-.16,1.25-.08,2.47-.08,3.7-.04h.15v-.16c.01-.64.06-1.28.08-1.93v-.22s-.23-.01-.23-.01c-.39-.03-.78-.03-1.18-.05ZM14.44,87.1c.08-2.65.12-5.26.11-7.88l5.31-.06c1.84-.04,3.69-.08,5.53-.15.09,2.74.12,5.49.06,8.24l-.14,4.23c-.06,1.29-.06,2.58-.07,3.86l-1.04.02c-.23-.01-.45-.03-.68-.03-1.22-.02-2.44-.07-3.66-.07s-2.44.02-3.66.07c-.69.02-1.37.07-2.06.1.11-2.84.23-5.61.3-8.33ZM23.56,97.45c-1.2-.06-2.37-.15-3.55-.15s-2.4.04-3.63.09c-1.24.06-2.49.12-3.81.23.05-.6.12-1.15.16-1.68,1.16.08,2.31.14,3.47.18,1.22.05,2.44.07,3.66.06,1.22,0,2.44-.04,3.66-.06.22-.01.44-.02.66-.03l1.44.02h.39s0-.1,0-.1c.32-.02.63-.02.94-.04.03.51.06,1.02.07,1.53-1.16.03-2.32.03-3.46-.05Z"/>
          <path class="cls-5" d="M43.45,84.44c.62-.06,1.2-.16,1.69-.28.2-.99.4-2.3.43-3.6v-.45s-.46-.01-.46-.01c-.6-.01-1.19.03-1.79.06-.59.02-1.19.08-1.78.17l-.26.03.02.2c.08.6.13,1.19.1,1.79-.03.59-.16,1.19-.22,1.78l-.04.33.4.03c.63.05,1.29.02,1.91-.05ZM41.75,80.83c.52.07,1.05.12,1.57.14.45.02.9.04,1.35.05.07.93.23,1.89.41,3.08-.7-.11-1.32-.21-1.89-.27-.46-.05-.9-.08-1.34-.06-.07-.47-.15-.95-.17-1.42-.03-.51,0-1.02.07-1.52Z"/>
          <path class="cls-5" d="M36.21,84.4l.2-.03c.6-.07,1.19-.13,1.79-.1.59.04,1.19.16,1.78.22l.33.04.03-.4c.05-.63.01-1.29-.05-1.91s-.16-1.2-.28-1.69c-.99-.2-2.3-.4-3.6-.43h-.45s-.01.46-.01.46c-.01.6.03,1.19.05,1.79.02.59.09,1.19.17,1.78l.04.27ZM36.82,82.35c.02-.45.04-.9.04-1.35.94-.06,1.9-.23,3.09-.41-.11.71-.22,1.32-.28,1.89-.05.46-.07.9-.05,1.34-.48.07-.95.15-1.42.17-.51.03-1.02-.01-1.53-.07.07-.52.13-1.05.15-1.57Z"/>
          <path class="cls-5" d="M43.45,89.44c.62-.06,1.2-.17,1.69-.28.2-1,.4-2.3.43-3.6v-.45s-.46-.01-.46-.01c-.6-.01-1.19.02-1.79.05-.59.02-1.19.09-1.78.17l-.26.04.02.2c.08.59.13,1.19.1,1.78-.03.6-.16,1.19-.22,1.79l-.04.33.4.03c.63.05,1.29.01,1.91-.05ZM41.75,85.82c.52.07,1.05.13,1.57.14.45.03.9.05,1.35.05.07.94.23,1.9.41,3.09-.7-.11-1.32-.22-1.89-.28-.46-.05-.9-.07-1.34-.06-.07-.47-.15-.94-.17-1.42-.03-.5,0-1.01.07-1.52Z"/>
          <path class="cls-5" d="M36.02,89.46l.39.03c.64.05,1.3.01,1.91-.05.62-.06,1.2-.17,1.69-.28.21-1,.41-2.3.43-3.6v-.45s-.46-.01-.46-.01c-.59-.01-1.19.02-1.78.05-.6.02-1.19.09-1.79.17l-.26.04.02.2c.08.59.13,1.19.1,1.78-.03.6-.16,1.19-.22,1.79l-.03.33ZM36.62,85.82c.53.07,1.05.13,1.58.14.45.03.9.05,1.35.05.06.94.22,1.9.4,3.09-.7-.11-1.31-.22-1.88-.28-.47-.05-.91-.07-1.35-.06-.06-.47-.14-.94-.17-1.42-.03-.5,0-1.01.07-1.52Z"/>
          <path class="cls-5" d="M43.45,94.43c.62-.06,1.2-.16,1.69-.28.2-.99.4-2.3.43-3.6v-.45s-.46-.01-.46-.01c-.6-.01-1.19.03-1.79.06-.59.02-1.19.08-1.78.17l-.26.03.02.2c.08.6.13,1.19.1,1.79-.03.59-.16,1.19-.22,1.78l-.04.33.4.03c.63.05,1.29.01,1.91-.05ZM41.75,90.81c.52.07,1.05.13,1.57.15.45.02.9.04,1.35.05.07.93.23,1.89.41,3.08-.7-.11-1.32-.21-1.89-.27-.46-.06-.9-.08-1.34-.06-.07-.47-.15-.95-.17-1.42-.03-.51,0-1.02.07-1.53Z"/>
          <path class="cls-5" d="M38.32,94.43c.62-.06,1.2-.16,1.69-.28.21-.99.41-2.3.43-3.6v-.45s-.46-.01-.46-.01c-.59-.01-1.19.03-1.78.06-.6.02-1.19.08-1.79.17l-.26.03.02.2c.08.6.13,1.19.1,1.79-.03.59-.16,1.19-.22,1.78l-.03.33.39.03c.64.05,1.3.01,1.91-.05ZM36.55,92.34c-.03-.51,0-1.02.07-1.53.53.07,1.05.13,1.58.15.45.02.9.04,1.35.05.06.93.22,1.89.4,3.08-.7-.11-1.31-.21-1.88-.27-.47-.06-.91-.08-1.35-.06-.06-.47-.14-.95-.17-1.42Z"/>
          <path class="cls-5" d="M46.81,95.44c-.02-1.32-.02-2.64-.08-3.96l-.14-4.23c-.06-2.83-.03-5.66.07-8.48v-.23s-.24-.01-.24-.01c-1.92-.07-3.84-.12-5.76-.15l-5.76-.07h-.46s0,.46,0,.46c-.02,2.88.03,5.77.12,8.62.06,2.74.19,5.43.3,8.05-.51.03-1.01.04-1.52.07l-.22.02v.19c.06.7.14,1.36.19,1.96,1.12.11,2.31.17,3.51.23,1.21.05,2.44.1,3.69.1,1.25,0,2.53-.1,3.77-.16,1.25-.08,2.47-.08,3.7-.04h.15v-.16c.01-.64.06-1.28.08-1.93v-.22s-.23-.01-.23-.01c-.39-.03-.78-.03-1.17-.05ZM35.24,87.1c.08-2.65.12-5.26.11-7.88l5.31-.06c1.84-.04,3.69-.08,5.53-.15.09,2.74.12,5.49.06,8.24l-.14,4.23c-.06,1.29-.06,2.58-.07,3.86l-1.04.02c-.23-.01-.45-.03-.68-.03-1.22-.02-2.44-.07-3.66-.07s-2.44.02-3.66.07c-.69.02-1.37.07-2.06.1.11-2.84.23-5.61.3-8.33ZM44.36,97.45c-1.2-.06-2.36-.15-3.55-.15s-2.4.04-3.63.09c-1.24.06-2.49.12-3.81.23.05-.6.12-1.15.16-1.68,1.16.08,2.32.14,3.47.18,1.22.05,2.44.07,3.66.06,1.22,0,2.44-.04,3.66-.06.22-.01.44-.02.67-.03l1.43.02h.39s0-.1,0-.1c.32-.02.63-.02.94-.04.03.51.06,1.02.07,1.53-1.16.03-2.32.03-3.46-.05Z"/>
          <path class="cls-5" d="M145.33,84.44c.62-.06,1.2-.16,1.69-.28.2-.99.4-2.3.43-3.6v-.45h-.46c-.6-.02-1.19.02-1.79.05-.59.02-1.19.08-1.78.17l-.27.03.03.2c.07.6.13,1.19.1,1.79-.04.59-.16,1.19-.22,1.78l-.04.33.4.03c.63.05,1.29.02,1.91-.05ZM143.63,80.83c.52.07,1.05.12,1.57.14.45.02.9.04,1.35.05.06.93.23,1.89.41,3.08-.71-.11-1.32-.21-1.89-.27-.46-.05-.9-.08-1.35-.06-.06-.47-.14-.95-.16-1.42-.03-.51.01-1.02.07-1.52Z"/>
          <path class="cls-5" d="M138.09,84.4l.2-.03c.59-.07,1.19-.13,1.78-.1.6.04,1.19.16,1.79.22l.33.04.03-.4c.05-.63.01-1.29-.05-1.91s-.17-1.2-.28-1.69c-1-.2-2.3-.4-3.6-.43h-.45s-.01.46-.01.46c-.01.6.02,1.19.05,1.79.02.59.09,1.19.17,1.78l.04.27ZM138.69,82.35c.03-.45.05-.9.05-1.35.94-.06,1.9-.23,3.09-.41-.11.71-.22,1.32-.28,1.89-.05.46-.07.9-.06,1.34-.47.07-.94.15-1.42.17-.5.03-1.01-.01-1.52-.07.07-.52.13-1.05.14-1.57Z"/>
          <path class="cls-5" d="M145.33,89.44c.62-.06,1.2-.17,1.69-.28.2-1,.4-2.3.43-3.6v-.45h-.46c-.6-.02-1.19.01-1.79.04-.59.02-1.19.09-1.78.17l-.27.04.03.2c.07.59.13,1.19.1,1.78-.04.6-.16,1.19-.22,1.79l-.04.33.4.03c.63.05,1.29.01,1.91-.05ZM143.63,85.82c.52.07,1.05.13,1.57.14.45.03.9.05,1.35.05.06.94.23,1.9.41,3.09-.71-.11-1.32-.22-1.89-.28-.46-.05-.9-.07-1.35-.06-.06-.47-.14-.94-.16-1.42-.03-.5.01-1.01.07-1.52Z"/>
          <path class="cls-5" d="M137.9,89.46l.39.03c.64.05,1.29.01,1.91-.05s1.2-.17,1.69-.28c.21-1,.4-2.3.43-3.6v-.45s-.46-.01-.46-.01c-.6-.01-1.19.02-1.79.05-.59.02-1.19.09-1.78.17l-.26.04.02.2c.08.59.13,1.19.1,1.78-.03.6-.16,1.19-.22,1.79l-.03.33ZM138.5,85.82c.52.07,1.05.13,1.57.14.46.03.91.05,1.36.05.06.94.22,1.9.4,3.09-.7-.11-1.31-.22-1.88-.28-.47-.05-.91-.07-1.35-.06-.07-.47-.15-.94-.17-1.42-.03-.5,0-1.01.07-1.52Z"/>
          <path class="cls-5" d="M145.33,94.43c.62-.06,1.2-.16,1.69-.28.2-.99.4-2.3.43-3.6v-.45h-.46c-.6-.02-1.19.02-1.79.05-.59.02-1.19.08-1.78.17l-.27.03.03.2c.07.6.13,1.19.1,1.79-.04.59-.16,1.19-.22,1.78l-.04.33.4.03c.63.05,1.29.01,1.91-.05ZM143.63,90.81c.52.07,1.05.13,1.57.15.45.02.9.04,1.35.05.06.93.23,1.89.41,3.08-.71-.11-1.32-.21-1.89-.27-.46-.06-.9-.08-1.35-.06-.06-.47-.14-.95-.16-1.42-.03-.51.01-1.02.07-1.53Z"/>
          <path class="cls-5" d="M140.2,94.43c.62-.06,1.2-.16,1.69-.28.21-.99.4-2.3.43-3.6v-.45s-.46-.01-.46-.01c-.6-.01-1.19.03-1.79.06-.59.02-1.19.08-1.78.17l-.26.03.02.2c.08.6.13,1.19.1,1.79-.03.59-.16,1.19-.22,1.78l-.03.33.39.03c.64.05,1.29.01,1.91-.05ZM138.43,92.34c-.03-.51,0-1.02.07-1.53.52.07,1.05.13,1.57.15.46.02.91.04,1.36.05.06.93.22,1.89.4,3.08-.7-.11-1.31-.21-1.88-.27-.47-.06-.91-.08-1.35-.06-.07-.47-.15-.95-.17-1.42Z"/>
          <path class="cls-5" d="M135.19,97.68c1.12.11,2.31.17,3.51.23,1.21.05,2.44.1,3.69.1,1.25,0,2.53-.1,3.77-.16,1.25-.08,2.47-.08,3.7-.04h.15v-.16c.01-.64.06-1.28.08-1.93v-.22s-.23-.01-.23-.01c-.39-.03-.79-.03-1.18-.05-.01-1.32-.01-2.64-.07-3.96l-.14-4.23c-.06-2.83-.03-5.66.07-8.48v-.23h-.24c-1.92-.08-3.84-.13-5.76-.16l-5.76-.07h-.46s0,.46,0,.46c-.02,2.88.03,5.77.12,8.62.06,2.74.19,5.43.29,8.05-.5.03-1,.04-1.51.07l-.22.02v.19c.06.7.14,1.36.19,1.96ZM137.12,87.1c.08-2.65.12-5.26.11-7.88l5.31-.06c1.84-.04,3.69-.08,5.53-.15.09,2.74.12,5.49.06,8.24l-.14,4.23c-.06,1.29-.06,2.58-.07,3.86l-1.04.02c-.23-.01-.45-.03-.68-.03-1.22-.02-2.44-.07-3.66-.07s-2.44.02-3.66.07c-.69.02-1.37.07-2.06.1.11-2.84.23-5.61.3-8.33ZM135.41,95.94c1.16.08,2.31.14,3.47.18,1.22.05,2.44.07,3.66.06,1.22,0,2.44-.04,3.66-.06.22-.01.44-.02.66-.03l1.44.02h.39s0-.1,0-.1c.32-.02.63-.02.94-.04.03.51.06,1.02.07,1.53-1.16.03-2.32.03-3.46-.05-1.2-.06-2.37-.15-3.55-.15s-2.4.04-3.63.09c-1.24.06-2.49.12-3.81.23.05-.6.12-1.15.16-1.68Z"/>
          <path class="cls-5" d="M166.13,84.44c.62-.06,1.2-.16,1.69-.28.2-.99.4-2.3.43-3.6v-.45s-.46-.01-.46-.01c-.6-.01-1.19.03-1.79.06-.59.02-1.19.08-1.78.17l-.26.03.02.2c.08.6.13,1.19.1,1.79-.04.59-.16,1.19-.22,1.78l-.04.33.4.03c.63.05,1.29.02,1.91-.05ZM164.43,80.83c.52.07,1.05.12,1.57.14.45.02.9.04,1.35.05.06.93.23,1.89.41,3.08-.7-.11-1.32-.21-1.89-.27-.46-.05-.9-.08-1.34-.06-.07-.47-.15-.95-.17-1.42-.03-.51,0-1.02.07-1.52Z"/>
          <path class="cls-5" d="M158.89,84.4l.2-.03c.6-.07,1.19-.13,1.79-.1.59.04,1.19.16,1.78.22l.33.04.03-.4c.05-.63.01-1.29-.05-1.91s-.17-1.2-.28-1.69c-1-.2-2.3-.4-3.6-.43h-.45s-.01.46-.01.46c-.01.6.02,1.19.05,1.79.02.59.09,1.19.17,1.78l.04.27ZM159.5,82.35c.02-.45.04-.9.04-1.35.94-.06,1.9-.23,3.09-.41-.11.71-.22,1.32-.28,1.89-.05.46-.07.9-.05,1.34-.48.07-.95.15-1.42.17-.51.03-1.02-.01-1.53-.07.07-.52.13-1.05.15-1.57Z"/>
          <path class="cls-5" d="M166.13,89.44c.62-.06,1.2-.17,1.69-.28.2-1,.4-2.3.43-3.6v-.45s-.46-.01-.46-.01c-.6-.01-1.19.02-1.79.05-.59.02-1.19.09-1.78.17l-.26.04.02.2c.08.59.13,1.19.1,1.78-.04.6-.16,1.19-.22,1.79l-.04.33.4.03c.63.05,1.29.01,1.91-.05ZM164.43,85.82c.52.07,1.05.13,1.57.14.45.03.9.05,1.35.05.06.94.23,1.9.41,3.09-.7-.11-1.32-.22-1.89-.28-.46-.05-.9-.07-1.34-.06-.07-.47-.15-.94-.17-1.42-.03-.5,0-1.01.07-1.52Z"/>
          <path class="cls-5" d="M158.7,89.46l.39.03c.64.05,1.3.01,1.91-.05.62-.06,1.2-.17,1.69-.28.21-1,.41-2.3.43-3.6v-.45s-.46-.01-.46-.01c-.59-.01-1.19.02-1.78.05-.6.02-1.19.09-1.79.17l-.26.04.02.2c.08.59.13,1.19.1,1.78-.03.6-.16,1.19-.22,1.79l-.03.33ZM159.3,85.82c.53.07,1.05.13,1.58.14.45.03.9.05,1.35.05.06.94.22,1.9.4,3.09-.7-.11-1.31-.22-1.88-.28-.47-.05-.91-.07-1.35-.06-.07-.47-.14-.94-.17-1.42-.03-.5.01-1.01.07-1.52Z"/>
          <path class="cls-5" d="M166.13,94.43c.62-.06,1.2-.16,1.69-.28.2-.99.4-2.3.43-3.6v-.45s-.46-.01-.46-.01c-.6-.01-1.19.03-1.79.06-.59.02-1.19.08-1.78.17l-.26.03.02.2c.08.6.13,1.19.1,1.79-.04.59-.16,1.19-.22,1.78l-.04.33.4.03c.63.05,1.29.01,1.91-.05ZM164.43,90.81c.52.07,1.05.13,1.57.15.45.02.9.04,1.35.05.06.93.23,1.89.41,3.08-.7-.11-1.32-.21-1.89-.27-.46-.06-.9-.08-1.34-.06-.07-.47-.15-.95-.17-1.42-.03-.51,0-1.02.07-1.53Z"/>
          <path class="cls-5" d="M161,94.43c.62-.06,1.2-.16,1.69-.28.21-.99.41-2.3.43-3.6v-.45s-.46-.01-.46-.01c-.59-.01-1.19.03-1.78.06-.6.02-1.19.08-1.79.17l-.26.03.02.2c.08.6.13,1.19.1,1.79-.03.59-.16,1.19-.22,1.78l-.03.33.39.03c.64.05,1.3.01,1.91-.05ZM159.23,92.34c-.03-.51.01-1.02.07-1.53.53.07,1.05.13,1.58.15.45.02.9.04,1.35.05.06.93.22,1.89.4,3.08-.7-.11-1.31-.21-1.88-.27-.47-.06-.91-.08-1.35-.06-.07-.47-.14-.95-.17-1.42Z"/>
          <path class="cls-5" d="M155.99,97.68c1.12.11,2.31.17,3.51.23,1.21.05,2.44.1,3.69.1,1.25,0,2.53-.1,3.77-.16,1.25-.08,2.47-.08,3.7-.04h.15v-.16c.01-.64.06-1.28.08-1.93v-.22s-.23-.01-.23-.01c-.39-.03-.78-.03-1.17-.05-.02-1.32-.02-2.64-.08-3.96l-.14-4.23c-.06-2.83-.03-5.66.07-8.48v-.23s-.24-.01-.24-.01c-1.92-.07-3.84-.12-5.76-.15l-5.76-.07h-.46s0,.46,0,.46c-.02,2.88.03,5.77.12,8.62.06,2.74.19,5.43.29,8.05-.5.03-1,.04-1.51.07l-.22.02v.19c.06.7.14,1.36.19,1.96ZM157.92,87.1c.08-2.65.12-5.26.11-7.88l5.31-.06c1.84-.04,3.69-.08,5.53-.15.09,2.74.12,5.49.06,8.24l-.14,4.23c-.06,1.29-.06,2.58-.07,3.86l-1.04.02c-.23-.01-.45-.03-.68-.03-1.22-.02-2.44-.07-3.66-.07s-2.44.02-3.66.07c-.69.02-1.37.07-2.06.1.11-2.84.23-5.61.3-8.33ZM156.21,95.94c1.16.08,2.32.14,3.47.18,1.22.05,2.44.07,3.66.06,1.22,0,2.44-.04,3.66-.06.22-.01.44-.02.66-.03l1.44.02h.39s0-.1,0-.1c.32-.02.63-.02.94-.04.03.51.06,1.02.07,1.53-1.16.03-2.32.03-3.46-.05-1.2-.06-2.36-.15-3.55-.15s-2.4.04-3.63.09c-1.24.06-2.49.12-3.81.23.05-.6.12-1.15.16-1.68Z"/>
          <path class="cls-5" d="M172.32,103.92c-.06-.36-.13-.71-.17-1.07-.04-.18-.01-.34-.08-.55-.07-.19-.27-.32-.47-.31-.71.01-1.42-.12-2.13-.23-.13-.02-.25-.02-.38-.04.12-.04.22-.09.3-.18.21-.2.18-.54.15-.67l-.04-.53c0-.36,0-.71.01-1.07v-.27c.02-.07.04-.19,0-.32-.06-.25-.3-.46-.58-.47-1.42-.17-2.85-.22-4.27-.22h-.53s-.14.02-.14.02c-.03,0-.08,0-.19.01-.17.03-.34.12-.46.24-.12.12-.2.29-.23.46-.02.2,0,.24.02.34.01.18.05.36.07.53.06.36.13.71.17,1.07.04.18.01.34.08.55.08.19.27.33.47.32.71-.02,1.42.12,2.13.22.13.03.25.03.38.04-.12.04-.22.1-.3.18-.21.21-.17.54-.15.67l.04.54c.01.35.01.71-.01,1.06v.27c-.01.08-.04.19,0,.32.06.25.3.46.58.47,1.42.18,2.85.22,4.27.23l.53-.02h.14s.08,0,.19-.02c.18-.02.34-.11.46-.24.12-.12.21-.28.23-.45.01-.05.01-.09.01-.13,0-.1-.02-.14-.02-.22-.02-.17-.06-.35-.08-.53ZM166.05,101.21c-.71.11-1.42.24-2.13.23-.16,0-.31-.12-.35-.27-.02-.13.02-.34.04-.51.04-.36.11-.71.16-1.07.06-.3.11-.88.14-.72h0s.04.01.08.01h.14s.53.03.53.03c1.42-.01,2.85-.06,4.27-.23.08-.02.18.03.23.12.05.06.04.32.05.47.02.36.02.71.01,1.07l-.04.53c-.01.21-.04.28-.12.32-.04.02-.08.03-.11.02-.02-.01-.16-.02-.23-.03l-.53-.06c-.71-.05-1.43-.03-2.14.09ZM171.91,102.85c-.04.36-.11.71-.16,1.07-.06.31-.11.88-.14.73-.01,0-.01-.02-.01-.02h-.21l-.53-.02c-1.42,0-2.85.05-4.27.22-.08.02-.18-.02-.23-.11-.05-.06-.04-.32-.05-.48-.02-.35-.02-.71,0-1.06l.04-.54c.01-.21.04-.28.12-.32.04-.02.08-.02.11-.02.02.01.16.02.23.03l.53.06c.72.05,1.43.03,2.14-.09.71-.11,1.42-.24,2.13-.23.16.01.31.12.35.27.02.14-.02.34-.04.51Z"/>
          <path class="cls-5" d="M160.26,101.67l-.53.06-.3.04c-.15.02-.28.1-.37.2-.21.21-.18.54-.15.67l.04.54c.01.35.01.71-.01,1.06v.27c-.02.08-.04.19,0,.32.06.25.3.46.58.47,1.42.18,2.85.22,4.27.23l.53-.02h.14s.08,0,.19-.02c.17-.02.34-.11.46-.24.12-.12.2-.28.23-.45.02-.21-.01-.24-.02-.35-.01-.17-.05-.35-.07-.53-.06-.36-.13-.71-.17-1.07-.04-.18-.01-.34-.08-.55-.08-.19-.27-.32-.47-.31-.71.01-1.42-.12-2.13-.23-.71-.12-1.43-.14-2.14-.09ZM164.88,102.34c.02.14-.02.34-.04.51-.04.36-.11.71-.16,1.07-.06.31-.11.88-.14.73-.01,0-.01-.02-.01-.02h-.21l-.53-.02c-1.42,0-2.85.05-4.27.22-.08.02-.18-.02-.23-.11-.05-.06-.04-.32-.05-.48-.02-.35-.02-.71-.01-1.06l.04-.54c.01-.21.04-.28.12-.32.04-.02.08-.02.11-.02.02.01.16.02.23.03l.53.06c.71.05,1.43.03,2.14-.09.71-.11,1.42-.24,2.13-.23.16.01.31.12.35.27Z"/>
        </g>
      </g>
      <g>
        <circle class="cls-36" cx="97.6" cy="134.04" r="15.57"/>
        <path class="cls-5" d="M106.91,121.44c3.27,2.44,5.85,6,6.73,10.2.95,4.16-.14,8.8-2.83,12.17-2.69,3.4-6.74,5.44-10.86,5.96-4.12.57-8.44-.37-11.95-2.75-3.53-2.33-6.09-6.24-6.77-10.52-.74-4.27.31-8.87,2.95-12.37,2.61-3.5,6.73-5.86,11-6.16,4.27-.37,8.45,1.04,11.73,3.47ZM106.79,121.61c-3.27-2.45-7.6-3.15-11.4-2.28-3.8.88-7.2,3.04-9.42,6.12-2.23,3.05-3.31,6.95-2.8,10.75.5,3.79,2.46,7.4,5.51,9.9,3.04,2.5,7.22,3.68,11.17,3,3.96-.66,7.42-3.14,9.56-6.32,2.19-3.18,3.22-7.04,2.93-10.95-.3-3.89-2.24-7.83-5.55-10.22Z"/>
        <path class="cls-5" d="M97.15,139.96c-.09-.03-.17-.08-.25-.14-.47-.36-.4-1.25-.47-1.77l-.27-2.33c0-.05-.01-.11-.05-.14-.04-.04-.1-.03-.16-.03-.16,0-.33-.03-.44-.15-.15-.16-.12-.44.02-.61s.38-.24.6-.26c.08,0,.16,0,.22-.06.07-.06.08-.16.08-.25.08-1.49.62-2.91,1.15-4.3-.3-.05-.54.1-.81.21-.27.11-.53.24-.79.36-.52.23-.82.52-1.14.98-.18.29-.44.35-.64.17-.23-.19-.2-.69-.15-.95.08-.38.36-.71.69-.91.42-.27.91-.38,1.39-.52.86-.26,1.7-.64,2.43-1.17.13-.1.27-.2.43-.23.15-.03.3.02.45.07.35.14.55.53.65.88.22.75-.09,1.69-.21,2.44-.08.52-.17,1.04-.25,1.56-.05.27-.09.53-.14.8-.03.19-.12.47-.02.66.06.1.19.12.31.13.24.02.47.04.71.06.11,0,.23.02.32.08s.16.18.11.28c-.05.11-.19.14-.31.15-.42.05-.84.1-1.26.16-.03,0-.07.01-.09.04-.02.02-.02.05-.02.08-.05,1.05-.11,2.1-.2,3.15-.02.27-.05.54-.17.78-.26.51-1.18,1.02-1.74.82Z"/>
      </g>
    </g>
  </g>
</svg>