<svg width="660" height="458" viewBox="0 0 660 458" fill="none" xmlns="http://www.w3.org/2000/svg">
<g clip-path="url(#clip0_2562_124886)">
<path d="M660 117.198C660 95.107 642.091 77.1984 620 77.1984H613.5C606.5 61.6984 598.5 34.1982 646 0.69836C578.5 -2.80164 546 40.6984 543.5 77.1984H40C17.9086 77.1984 0 95.107 0 117.198V416.698C0 438.79 17.9086 456.698 40 456.698H620C642.091 456.698 660 438.79 660 416.698V117.198Z" fill="white"/>
<path d="M613.5 79.6984H611.886L611.222 78.2273C607.641 70.2986 603.628 58.9271 606.879 45.1251C609.85 32.513 618.78 18.3016 638.657 3.00017C577.455 2.90462 548.312 43.5274 545.994 77.3692L545.835 79.6984H543.5H40C19.2893 79.6984 2.5 96.4877 2.5 117.198V416.698C2.5 437.409 19.2893 454.198 40 454.198H620C640.711 454.198 657.5 437.409 657.5 416.698V117.198C657.5 96.4877 640.711 79.6984 620 79.6984H613.5Z" stroke="black" stroke-width="5"/>
</g>
<defs>
<clipPath id="clip0_2562_124886">
<rect width="660" height="457" fill="white" transform="translate(0 0.5)"/>
</clipPath>
</defs>
</svg>
