<svg width="141" height="168" viewBox="0 0 141 168" fill="none" xmlns="http://www.w3.org/2000/svg">
<g clip-path="url(#clip0_2093_8621)">
<path d="M70.5645 167.098C109.224 167.098 140.564 135.746 140.564 97.0718C140.564 58.3976 109.224 27.0459 70.5645 27.0459C31.9045 27.0459 0.564453 58.3976 0.564453 97.0718C0.564453 135.746 31.9045 167.098 70.5645 167.098Z" fill="url(#paint0_linear_2093_8621)"/>
<mask id="mask0_2093_8621" style="mask-type:alpha" maskUnits="userSpaceOnUse" x="0" y="0" width="141" height="168">
<path d="M70.5645 167.489C109.224 167.489 140.564 136.137 140.564 97.4632C140.564 58.789 109.224 0 70.5645 0C31.9045 0 0.564453 58.789 0.564453 97.4632C0.564453 136.137 31.9045 167.489 70.5645 167.489Z" fill="url(#paint1_linear_2093_8621)"/>
</mask>
<g mask="url(#mask0_2093_8621)">
<path d="M122.64 50.2492C128.792 57.0396 133.776 64.9971 137.064 73.5911C140.458 82.1852 142.049 91.522 141.943 100.859C141.731 110.196 139.716 119.532 135.686 128.126C131.761 136.721 125.928 144.36 118.928 150.62C111.822 156.773 103.549 161.548 94.7461 164.519C90.2916 166.004 85.7309 167.065 81.1703 167.596C76.6097 168.232 71.9431 168.338 67.2764 168.126C48.8219 167.171 30.7916 159.002 17.9582 145.315C11.5946 138.524 6.39763 130.461 3.10975 121.654C-0.178131 112.848 -1.76899 103.405 -1.34475 93.9623C-0.920504 84.5194 1.30672 75.1826 5.23096 66.5886C9.1552 57.9945 14.9886 50.2492 21.9886 43.8832C28.9886 37.6233 37.2613 32.6366 46.2765 29.5597C55.1856 26.4828 64.731 25.3157 74.0643 26.0584C83.3977 26.8011 92.5188 29.3475 100.792 33.4854C109.064 37.6233 116.489 43.3527 122.64 50.1431V50.2492ZM122.322 50.4614C119.246 47.0662 115.852 43.9893 112.14 41.3368C108.428 38.6843 104.504 36.3501 100.261 34.5464C91.8825 30.939 82.9734 28.9231 73.9583 28.817C55.928 28.4987 38.2159 35.0769 25.0644 47.1723C11.9129 59.0555 3.64002 76.2436 2.68548 94.0684C2.15518 102.981 3.42793 111.999 6.29157 120.487C9.26126 128.975 13.7158 136.933 19.6552 143.723C25.5946 150.514 32.9128 156.243 41.0795 160.169C49.2462 164.094 58.2613 166.322 67.2764 166.747C71.837 166.959 76.3977 166.641 80.8522 165.898C85.3068 165.155 89.6552 163.882 93.8976 162.291C102.276 159.108 110.019 154.121 116.489 147.967C123.064 141.813 128.367 134.599 132.292 126.535C132.822 125.58 133.246 124.519 133.67 123.458C134.095 122.397 134.519 121.336 134.943 120.381C135.367 119.32 135.686 118.259 136.004 117.198C136.322 116.137 136.64 115.076 136.958 114.015C138.125 109.665 138.867 105.209 139.292 100.753C140.034 91.7342 138.867 82.6096 136.11 74.0155C134.731 69.6655 132.822 65.5275 130.489 61.6019C128.155 57.6762 125.398 53.9627 122.428 50.5675L122.322 50.4614Z" fill="black"/>
<path d="M96.2339 61.4025C96.2339 62.146 96.2339 62.8895 96.2339 63.5758C96.2339 63.9761 96.1168 64.4337 95.8243 64.834C94.3616 67.2933 87.5747 70.9536 85.4684 68.7803C84.8833 71.8115 83.1865 80.3904 82.6014 83.3073C82.9525 84.9659 83.8301 92.2865 85.0588 94.6314C81.0217 99.0924 70.8412 110.245 66.6286 114.82C66.5116 114.592 57.4429 93.8307 57.3259 93.6019C57.7354 92.5725 58.496 90.6851 59.1981 89.3125C60.2513 87.082 60.7778 79.8185 60.7778 79.8185C60.7778 79.7613 56.5068 73.2414 56.4482 73.1842C57.2089 60.659 58.613 46.9899 59.0226 31.8911C67.2722 29.1458 64.6394 28.917 75.5219 30.0037C80.6122 30.404 85.9949 30.8616 85.9949 30.8616C87.9257 36.2949 93.601 51.5081 95.5903 56.8842C95.5903 56.8842 95.5903 56.8843 95.5903 56.9414C96.5264 58.1425 96.2339 59.8011 96.2339 61.3453V61.4025Z" fill="white"/>
<path d="M67.9742 79.0752C67.9156 79.304 67.9742 79.1896 67.8572 79.4183C66.3945 85.3664 63.586 90.9713 59.6074 95.6611C58.6128 95.1463 57.7937 94.5744 57.3257 93.6021C57.3257 93.7165 57.2086 93.8881 57.2086 94.0025C59.0809 89.6558 60.017 84.6229 60.1925 79.8759C51.5333 80.8482 47.6718 68.4945 47.4962 61.7458C47.2622 55.855 50.3047 37.3817 50.3632 36.1235C50.8897 35.6087 50.9482 35.7803 51.9429 35.2084C52.0014 35.2084 52.0599 35.1512 52.1184 35.094C54.3417 34.1789 61.7137 29.6607 63.352 29.6035C63.6445 30.5758 63.9956 31.6625 63.8201 32.6919C63.2935 41.7856 61.1287 50.7648 57.4427 59.1721C58.3788 59.1721 59.3149 59.2865 60.2511 59.3437C61.8308 64.777 57.9107 71.011 60.7191 76.2155C62.0648 78.732 65.5753 80.6766 67.9742 79.0752Z" fill="#F4C6CC"/>
<path d="M82.7764 84.2793C83.0689 86.0523 84.5316 93.6017 84.473 94.3452C83.7124 91.5428 82.9519 85.7663 82.7764 84.2793Z" fill="#F4C6CC"/>
<path d="M84.8826 70.3817L85.3506 68.7803C85.3506 68.7803 82.7763 83.6504 82.7178 83.9363C82.7178 83.9363 83.7125 73.6417 84.8241 70.3817H84.8826Z" fill="#F4C6CC"/>
<path d="M91.728 68.5518C88.7441 70.0388 85.6432 68.8949 85.4092 68.8377C85.6432 68.8949 88.8611 69.9244 91.728 68.5518Z" fill="#F4C6CC"/>
<path d="M95.7657 64.7764C95.7657 64.7764 95.1806 66.435 92.4893 68.0936C95.9998 65.9202 98.5156 57.5701 93.2498 55.5684C97.9305 56.9982 96.7604 62.3171 95.7072 64.7764H95.7657Z" fill="#F4C6CC"/>
<path d="M82.7764 84.2793C83.0689 86.0523 84.5316 93.6017 84.473 94.3452C83.7124 91.5428 82.9519 85.7663 82.7764 84.2793Z" fill="white"/>
<path d="M84.8826 70.3817L85.3506 68.7803C85.3506 68.7803 82.7763 83.6504 82.7178 83.9363C82.7178 83.9363 83.7125 73.6417 84.8241 70.3817H84.8826Z" fill="white"/>
<path d="M91.728 68.5518C88.7441 70.0388 85.6432 68.8949 85.4092 68.8377C85.6432 68.8949 88.8611 69.9244 91.728 68.5518Z" fill="white"/>
<path d="M95.7657 64.7764C95.7657 64.7764 95.1806 66.435 92.4893 68.0936C95.9998 65.9202 98.5156 57.5701 93.2498 55.5684C97.9305 56.9982 96.7604 62.3171 95.7072 64.7764H95.7657Z" fill="white"/>
<path d="M99.5096 46.5893C100.27 48.1907 96.2331 56.0261 95.8821 56.3693C95.531 56.9412 95.7066 57.2272 94.8874 56.7124C92.0205 53.8528 87.9835 55.5114 85.7602 57.3416C84.707 58.5426 83.4784 59.6865 82.4837 57.4559C82.0156 57.5703 80.2603 58.1423 80.0263 57.0556H78.2711L82.1912 50.7644L85.8771 40.3553C84.1804 34.4645 76.3403 33.0347 69.5533 32.4628C64.9897 32.1768 55.8624 34.007 52.4104 35.1508C48.9584 36.2947 49.0754 35.8371 44.9798 33.721C40.8842 31.6049 45.2724 18.3362 45.2724 18.3362C45.2724 18.3362 46.5595 18.8509 48.1978 20.0519C49.836 21.253 51.5913 20.6811 51.5913 20.6811C50.5381 18.4505 49.1924 13.9895 50.7722 11.1299C50.8892 11.3015 52.4104 12.96 53.171 13.3032C56.974 14.3327 69.3778 13.5892 73.2394 13.6464C78.2126 13.0172 86.8718 16.506 86.8718 16.506C91.9035 18.7365 94.8289 22.6828 97.7544 26.8579C98.9245 31.1473 98.6905 36.0087 96.7012 38.9827C96.7012 38.9827 97.3448 39.6118 97.4033 39.7262C100.095 40.8129 99.7436 45.1595 99.6266 46.6465L99.5096 46.5893Z" fill="url(#paint2_linear_2093_8621)"/>
<path d="M72.5372 32.6916C66.9204 31.5478 57.0325 33.6067 52.3518 35.0365C48.8998 36.1804 49.0168 35.7229 44.9212 33.6067C40.8256 31.4906 45.2138 18.2219 45.2138 18.2219C45.2138 18.2219 46.5009 18.7366 48.1392 19.9377C49.7774 21.1387 51.5327 20.5668 51.5327 20.5668C50.4795 18.3363 49.1338 13.8753 50.7136 11.0156C50.8306 11.1872 52.3518 12.8458 53.1124 13.1889C56.9739 14.2184 69.3192 13.4749 73.1808 13.5321C81.84 13.5321 89.5631 16.7349 93.3661 21.2531C86.2281 17.9931 78.271 16.3345 70.3723 16.4489C64.463 16.5633 58.3782 17.65 52.7029 15.9342C51.8837 17.8216 52.1763 20.1665 53.522 21.7678C50.8891 22.2254 48.1977 22.2254 45.5648 21.7678C42.8734 40.3555 63.0003 27.7159 72.5372 32.7488V32.6916Z" fill="white"/>
<path d="M126.248 261.862C124.024 266.724 124.024 266.781 123.673 266.895C122.62 266.895 120.572 266.667 119.929 266.266C119.929 266.266 117.413 267.181 116.711 267.067C114.605 266.609 112.791 266.438 110.685 266.152C110.685 266.152 107.818 267.467 107.291 267.067C105.711 265.466 104.834 261.576 104.249 259.861C102.786 260.776 99.451 261.119 98.0468 259.232C98.0468 259.232 97.5787 257.401 97.7542 257.001C98.2223 255.686 98.9829 251.167 99.3924 250.138C99.3924 250.138 102.844 244.476 104.015 243.446C105.185 242.417 106.765 240.53 106.765 240.53C106.296 229.32 102.201 192.945 105.009 182.422C104.19 178.933 101.908 168.696 101.148 165.378L105.77 150.451C107.525 150.337 118.934 149.708 120.397 149.65C120.338 156.628 121.567 177.904 120.397 184.767C122.62 193.403 124.434 231.15 124.258 239.729C127.535 239.729 128.12 257.344 126.306 261.862H126.248Z" fill="white"/>
<path d="M120.339 149.65L120.456 154.397C115.073 160.46 108.93 165.836 102.26 170.469L101.09 165.436L105.712 150.508C107.467 150.394 118.876 149.765 120.339 149.708V149.65Z" fill="#F4C6CC"/>
<path d="M126.248 261.862C124.025 266.724 124.025 266.781 123.674 266.895C122.621 266.895 120.573 266.667 119.929 266.266C119.929 266.266 117.413 267.181 116.711 267.067C114.371 266.609 114.605 266.667 112.089 266.381C112.499 255.972 116.126 245.791 116.419 235.382C114.605 210.046 107.058 184.938 109.69 159.202L117.882 149.765L120.339 149.65C120.28 156.628 121.509 177.904 120.339 184.767C122.562 193.403 124.376 231.15 124.2 239.729C127.477 239.729 128.062 257.344 126.248 261.862Z" fill="#F4C6CC"/>
<path d="M36.0288 206.043C35.6193 207.873 34.3906 213.078 33.9225 215.022C24.2101 214.793 26.0239 212.792 22.8645 206.043C24.2687 202.611 24.9122 203.126 23.9176 199.294C10.1096 188.37 -6.62374 179.448 -13.1182 159.031C-13.1182 159.031 -12.9427 151.081 -10.3683 147.478C-7.79393 143.932 1.45039 130.263 1.45039 130.263C4.20028 132.779 11.9819 139.985 14.7903 142.674C13.7956 143.932 6.01404 153.826 5.25343 154.798C14.3807 162.348 24.9122 179.448 32.2258 188.027C32.1673 188.714 31.9332 190.315 32.2258 190.944C32.8109 193.232 35.5022 204.098 35.9703 206.157L36.0288 206.043Z" fill="white"/>
<path d="M14.848 142.559C14.0874 143.531 5.9547 153.826 5.48663 154.512C3.43884 153.597 1.2155 153.082 -1.00781 152.968C3.38031 147.706 5.83768 140.957 5.77917 134.151L14.848 142.559Z" fill="#F4C6CC"/>
<path d="M32.05 189.914C30.0607 190.486 28.13 191.402 26.4332 192.603C19.4707 177.504 6.30637 166.065 -5.92188 154.684C-2.76243 153.311 1.74272 151.939 5.19471 151.424C5.66277 151.939 6.18935 152.453 6.65741 152.911C6.59891 153.025 5.31173 154.627 5.31173 154.627C14.439 162.176 24.9705 179.277 32.2841 187.856L32.1085 189.857L32.05 189.914Z" fill="#F4C6CC"/>
<path d="M84.7661 95.0889C84.5904 95.2033 84.3563 95.2604 84.1807 95.3748L84.3563 95.2032C84.4734 95.2032 84.649 95.1461 84.7661 95.0889Z" fill="white"/>
<path d="M50.4219 35.8369C46.5018 59.7435 43.4594 90.5703 78.7984 75.5858C43.5179 93.9447 42.9913 60.201 50.4219 35.8369Z" fill="black"/>
<path d="M61.1289 50.7646C61.1874 54.0246 59.7832 57.1702 58.262 59.9727L57.6769 58.886C59.2566 59.2864 61.0119 59.2864 62.6501 59.5151C60.7193 60.3158 58.5545 60.659 56.4482 60.3158C57.6769 56.9415 59.2566 53.8531 61.1289 50.7646Z" fill="black"/>
<path d="M67.623 43.5006C68.1496 40.069 74.0004 40.1834 74.41 43.615C72.1282 42.4139 69.9049 42.3567 67.623 43.5006Z" fill="black"/>
<path d="M51.4746 41.6713C52.2352 38.0109 58.5541 38.8116 58.3201 42.5292C56.2723 40.8134 53.8735 40.4702 51.4746 41.6713Z" fill="black"/>
<path d="M85.8192 40.184C81.4311 30.2897 63.118 32.8062 54.4003 35.2083C40.8849 41.8426 40.8263 23.9413 45.2729 16.1631C53.7566 28.3451 66.5115 10.3294 76.2238 22.8546C66.1604 11.5877 54.3417 29.3174 44.8634 18.1648L46.2676 17.9932C44.3953 22.8546 42.7571 30.7472 47.1452 34.5791C50.5387 35.723 54.3417 33.0349 57.8522 32.6918C66.6285 31.4907 82.1917 30.1181 85.8777 40.1268L85.8192 40.184Z" fill="black"/>
<path d="M96.8182 38.5825C101.967 28.1734 92.1961 17.6499 81.9571 15.6482C74.7606 12.3882 51.0647 17.364 50.1871 10.9584H51.1232C49.719 14.2756 50.0115 18.1647 51.8838 21.1959C49.2509 17.8215 49.0169 13.1317 50.7721 9.2998C51.7083 15.6482 61.3622 12.1022 65.9258 12.6742C71.3671 12.5026 77.0424 12.5598 82.4837 14.0468C93.2492 16.1629 103.547 28.1734 96.8767 38.5825H96.8182Z" fill="black"/>
<path d="M104.892 259.403C103.02 260.947 99.6266 261.462 97.7543 259.632C96.4671 257.344 97.8713 254.599 98.1638 252.197C99.0415 247.164 102.786 243.103 106.765 240.129L106.531 240.758C104.717 221.484 101.499 201.982 104.015 182.651V182.765C103.02 177.103 101.85 170.583 100.972 164.921C102.318 170.526 103.839 176.931 105.126 182.593C105.126 185.682 104.775 188.77 104.541 191.801C104.541 207.358 106.94 225.488 108.052 241.044C103.956 244.018 100.329 247.45 99.1585 252.483C98.8075 254.656 97.3447 257.23 98.2223 259.403C99.8606 261.176 103.079 260.833 104.951 259.518L104.892 259.403Z" fill="black"/>
<path d="M85.5853 57.8564C85.9364 57.3417 86.4045 56.9414 86.8725 56.5982C86.8725 56.5982 86.8725 56.5982 86.931 56.5982C101.792 48.8772 98.4572 74.3851 85.1758 69.3522C85.2343 69.3522 85.3513 69.3522 85.4098 69.3522L85.9363 68.9518C84.2981 73.756 83.8301 78.9606 83.1865 83.9363V83.8219C83.596 87.5395 83.8885 91.3142 84.7662 94.9745L84.5322 94.3454C81.6068 85.8237 82.2503 76.6728 84.9417 68.1511C85.1172 68.1511 85.4683 68.1511 85.6438 68.2083H85.5853C97.2285 72.4406 100.329 50.1354 86.931 56.5982C86.4044 56.8842 85.9364 57.2845 85.5268 57.7421L85.5853 57.8564Z" fill="black"/>
<path d="M87.1063 65.9782C88.218 65.921 90.0318 65.5206 89.5637 64.148C88.9786 63.0041 85.9361 62.661 87.1063 60.7736C88.0424 59.2294 89.9733 60.4305 91.2605 59.9157C92.2551 59.0578 90.7924 57.7424 89.5637 58.0856C93.1912 56.6557 93.1912 61.9747 89.4466 61.0024C88.9201 61.0024 88.3935 60.9452 88.101 61.3455C87.867 61.7459 88.3935 61.8603 88.7446 62.0891C91.8455 63.4045 90.2658 67.0076 87.1063 65.921V65.9782Z" fill="black"/>
<path d="M85.9355 40.0695C101.967 32.9776 103.664 46.9898 95.3554 57.1701C101.148 46.5894 101.85 35.4369 85.9355 40.0695Z" fill="black"/>
<path d="M85.9355 40.0693C85.0578 46.3605 82.425 52.3658 78.6805 57.5703L78.1539 56.8268C80.8453 56.4264 83.0686 54.4819 84.0047 51.9654C83.5952 55.2254 80.4942 57.6847 77.2178 58.0278C80.9038 52.423 83.7121 46.4177 85.9355 40.0693Z" fill="black"/>
<path d="M80.0264 57.1132C82.6007 58.1427 84.239 54.368 85.7017 52.7666C86.0528 55.2831 82.1912 60.0301 80.0264 57.1132Z" fill="black"/>
<path d="M82.1914 57.2273C85.2338 60.8304 86.4625 54.1389 87.5741 52.1943C88.4518 55.2255 84.4732 62.9466 82.1914 57.2273Z" fill="black"/>
<path d="M91.0847 51.6221C91.7283 52.9947 91.0262 54.8821 89.5635 55.454C89.6805 54.0242 90.1485 52.7659 91.0847 51.6221Z" fill="black"/>
<path d="M91.7872 55.3399C91.7287 53.9673 92.3138 52.8234 93.1914 51.7939C93.8935 53.1094 93.0744 54.768 91.7872 55.3399Z" fill="black"/>
<path d="M94.7126 52.8809C95.7073 53.7387 95.2393 55.6261 93.9521 55.9121C93.8936 54.7682 94.1276 53.8531 94.7126 52.8809Z" fill="black"/>
<path d="M55.9795 67.1218C59.4315 66.8359 62.825 67.3506 66.1015 66.0352C63.6441 68.8376 59.1389 68.4373 55.9795 67.1218Z" fill="black"/>
<path d="M65.6338 64.7764C66.687 65.4627 67.3305 66.3778 67.7401 67.5788C66.3359 67.5788 65.2243 66.0918 65.6338 64.7764Z" fill="black"/>
<path d="M47.6133 23.4834C57.8522 30.5753 72.7134 20.7953 82.5428 35.7798C71.3092 23.3118 55.9215 32.4626 47.6133 23.4834Z" fill="black"/>
<path d="M88.7446 39.2117C87.5744 36.0089 86.5798 32.6346 85.7021 29.3174C88.6861 31.4907 89.9732 35.7802 88.7446 39.2117Z" fill="black"/>
<path d="M90.3828 30.4609C92.2551 32.7486 92.6061 36.1802 91.2019 38.8111C90.1487 36.123 89.8563 33.3206 90.3828 30.4609Z" fill="black"/>
<path d="M72.1862 49.5638C72.1862 53.8532 69.3193 53.8532 69.3193 49.5638C69.3193 45.2743 72.1862 45.2743 72.1862 49.5638Z" fill="black"/>
<path d="M55.9792 48.7054C55.9792 52.9948 53.1123 52.9948 53.1123 48.7054C53.1123 44.4159 55.9792 44.4159 55.9792 48.7054Z" fill="black"/>
<path d="M1.68397 129.805C-3.52327 138.212 -10.7198 146.448 -12.5335 156.228C-10.1932 175.959 10.2262 186.997 24.0342 199.237C8.70497 188.256 -12.358 176.645 -14.1133 156.228C-12.1825 146.047 -4.4009 137.926 1.68397 129.805Z" fill="black"/>
<path d="M-1.59277 152.567C8.7632 153.025 11.9812 160.632 17.715 167.609C22.7467 174.186 27.8369 181.107 32.3421 188.027C26.7838 181.907 21.401 175.158 16.3693 168.639C10.5185 161.547 8.47066 154.626 -1.59277 152.567Z" fill="black"/>
<path d="M14.8484 142.559C12.6836 147.248 9.40711 151.423 5.31152 154.683C7.47633 149.994 10.7528 145.819 14.8484 142.559Z" fill="black"/>
<path d="M120.339 148.964C120.983 160.174 121.334 172.413 121.568 183.68V183.565C125.137 201.81 124.201 221.255 124.318 239.729C124.318 239.671 125.839 241.273 125.839 241.273C125.839 241.273 124.201 239.843 124.142 239.786C122.504 221.141 123.265 202.325 119.93 183.851C119.93 172.584 119.988 160.231 120.398 149.021L120.339 148.964Z" fill="black"/>
<path d="M128.939 236.755C123.673 238.642 111.504 240.244 104.717 235.783C104.6 228.405 103.02 190.6 104.424 182.25L101.499 168.638L97.2861 184.309C96.8766 196.491 98.8073 221.999 100.27 234.181C94.4192 237.041 73.4733 237.327 70.5479 236.755C71.7765 202.211 74.7604 145.304 80.5528 111.389C80.5528 111.389 83.5952 116.479 83.5952 116.536C83.7122 114.248 89.1535 92.2291 86.1111 88.2256L90.7332 94.6884L114.195 107.156C117.237 105.155 120.572 106.241 123.205 109.272C124.317 110.931 124.083 125.63 124.083 125.63C124.083 125.63 124.727 156.8 124.727 157.086C124.961 175.044 127.593 218.453 128.822 236.698L128.939 236.755Z" fill="#A7A7AE"/>
<path d="M128.939 236.755C124.434 238.471 111.562 240.187 105.302 236.069C106.004 236.298 116.126 239.386 124.141 233.953C123.556 218.568 121.801 131.578 121.567 112.075C121.684 108.872 117.764 106.127 114.722 106.871C117.237 105.041 120.982 106.699 122.854 108.758C125.078 113.905 123.79 120.139 124.2 125.63C124.2 125.63 124.843 156.8 124.843 157.086C125.019 175.044 127.71 218.454 128.939 236.698V236.755Z" fill="white"/>
<path d="M59.4902 106.184C57.7349 125.172 54.2244 161.489 52.4692 180.306C52.6447 193.86 52.5862 221.313 52.3522 234.925L28.5393 232.122L33.3369 187.398C33.3369 187.398 33.8635 184.138 34.6826 176.931C35.5603 169.725 34.8582 164.749 34.5656 162.576C32.9859 153.425 31.1136 142.559 29.885 134.38C28.7733 135.524 11.5133 150.623 11.5718 151.881C11.5718 151.881 10.9868 152.739 11.0453 152.796C9.93362 153.654 11.3963 155.37 9.93361 156.628C10.3432 158.401 8.99747 159.43 7.47625 159.43C12.9175 164.463 24.2682 176.588 29.2999 182.193C26.4915 185.911 19.7045 194.833 16.7791 198.607L1.85947 183.852L-11.539 166.465C-15.5175 160.689 -15.4005 154.569 -11.7145 149.079C-1.3585 133.522 -3.23076 132.15 11.6889 113.333C22.5129 101.266 26.901 99.3781 30.0605 100.636C30.236 100.293 30.6456 99.4925 30.8211 99.1494C36.906 97.0904 49.3097 92.9154 55.4531 90.8564C54.2829 93.7161 54.1659 108.872 53.9904 112.132L59.4902 106.127V106.184Z" fill="#A7A7AE"/>
<path d="M54.4002 92.9727C50.1876 98.12 43.108 109.215 40.1826 115.163L48.4908 121.569L41.4113 129.462L46.9111 154.112L45.0973 130.262L53.9906 120.482L44.1026 113.791L54.4587 93.0298L54.4002 92.9727Z" fill="white"/>
<path d="M30.4115 100.35L29.1243 105.555C29.1243 105.555 22.9225 104.182 18.4758 111.217C14.0292 118.252 -11.3049 152.396 -10.7198 157.371C-10.1347 162.347 15.4919 192.945 15.4919 192.945L24.6192 188.37L16.7791 198.722L1.85947 183.966L-11.539 166.579C-15.5175 160.803 -15.4005 154.683 -11.7145 149.193C-1.3585 133.636 -3.23077 132.264 11.6889 113.447C22.5129 101.38 26.901 99.4924 30.0605 100.751L30.353 100.179C30.353 100.293 30.353 100.35 30.353 100.35H30.4115Z" fill="white"/>
<path d="M59.2557 83.993L55.3942 91.8855C54.458 97.0329 53.5219 107.556 53.5219 112.704C53.5219 112.646 59.5482 106.241 59.5482 106.241C58.3196 126.258 52.3517 166.808 52.5272 187.111L72.6541 187.34L75.3455 153.425L88.1003 113.962V92.7434C87.0472 89.9982 85.1749 85.6515 83.3026 83.3066C82.542 86.3379 79.9676 93.1438 77.9784 98.8059C75.755 104.754 71.718 108.872 68.8511 113.39C65.4576 105.269 59.1387 93.2582 59.2557 83.9358V83.993Z" fill="#EEFCFF"/>
<path d="M60.3674 105.212L67.9149 115.85L65.6331 138.727L61.6545 118.023L58.4951 116.822L59.4897 105.555" fill="#B6DBE0"/>
<path d="M55.1607 151.424C54.5756 157.429 50.831 181.907 52.8203 187.398C52.8203 187.398 63.3519 187.741 63.2348 187.569C63.1178 187.398 63.8199 176.703 63.8199 176.703L60.4264 184.71L58.1446 180.42L57.15 183.566C54.8096 182.136 55.9798 148.736 55.7457 145.876" fill="#B6DBE0"/>
<path d="M133.269 416.168C128.823 408.161 117.94 407.933 110.626 403.586C106.472 401.527 102.962 398.553 99.5099 395.579C98.5738 394.607 98.1057 395.407 97.5791 396.265C97.5791 393.749 97.111 391.175 96.0579 388.888C99.8609 388.258 103.605 387.458 106.999 385.57C101.616 336.499 98.1642 285.998 94.8877 236.755H94.7122C95.9994 285.998 99.3929 335.984 105.595 384.884C96.9355 389.002 86.8136 389.116 77.3937 389.288C76.165 373.102 75.1119 355.601 74.2343 339.416C74.2343 339.359 74.2343 339.187 74.1758 339.187L71.4259 334.84C71.8355 325.632 69.8462 316.367 68.8515 307.216C66.1601 286.684 63.1177 263.807 60.0168 243.389H59.8412C60.1338 246.535 61.1284 255.114 61.421 257.973C59.7828 267.01 57.3839 280.622 55.8041 289.83C50.3629 321.457 44.7461 356.402 39.9484 387.915C29.8265 388.087 19.8216 385.685 9.99216 383.511C13.3271 371.329 15.3749 358.919 16.311 346.336C21.4013 308.875 26.8425 270.842 31.1136 233.266C38.4272 234.239 45.7407 236.297 53.1713 235.954C53.1713 226.518 53.1713 203.183 53.1713 194.032C53.9319 194.318 54.751 194.204 55.3361 193.632C54.751 193.06 53.9319 192.945 53.1713 193.231V187.569C59.3731 188.256 65.6335 188.256 71.8939 187.569C71.8354 189.628 71.7769 191.687 71.7184 193.746C70.6653 193.346 69.4951 193.289 68.442 193.746C68.8515 190.372 68.3249 188.77 64.4634 189.171C62.0646 189.571 56.9743 188.198 55.7456 190.601C55.4531 191.23 55.6286 192.202 55.6286 192.831C55.5701 194.261 55.2776 196.377 57.2083 196.777C58.7296 196.892 60.2508 196.777 61.772 196.777C64.1124 196.377 68.676 197.692 68.3834 194.089C69.3781 194.661 70.6068 194.718 71.6599 194.318C71.1919 208.445 71.1334 222.571 70.5483 236.698C69.8462 236.869 70.8993 237.899 71.6014 237.899C81.5478 238.185 91.7283 238.07 101.207 234.696C99.6269 217.367 96.4675 199.751 98.0472 182.365C99.3929 178.018 100.505 173.614 101.616 169.21C102.201 172.127 103.43 177.961 103.898 180.821C104.893 186.425 102.552 192.03 102.669 197.692C102.494 210.618 103.313 223.544 104.132 236.469C111.972 239.901 121.275 240.987 129.291 237.556C128.355 214.621 126.365 188.141 125.722 165.207C125.605 148.221 125.195 130.834 124.259 113.905C125.078 108.3 119.578 103.039 114.195 106.813C107.057 103.21 98.4567 98.4059 91.1432 94.8028C88.2178 91.314 85.8774 87.0246 83.303 83.3643C90.2655 92.4579 85.1754 104.354 83.6542 114.363C83.4201 113.848 79.9681 105.955 79.8511 105.727C77.7448 107.271 73.5322 110.359 71.4259 111.903C77.1597 103.153 81.1967 93.5446 83.303 83.3643C81.0212 90.0558 78.7394 96.8045 75.2874 103.039C73.1226 106.527 70.4897 109.73 68.91 113.505C64.8144 103.325 59.0807 93.2586 59.9583 82.0488C58.2615 84.9657 56.7403 87.9397 55.3361 91.0281C49.1927 93.0298 36.8475 97.0333 30.7041 99.0351C30.353 99.607 30.119 100.122 29.9435 100.694C14.8483 99.2066 -3.81581 135.524 -10.7783 147.077C-18.8524 158.058 -12.6506 166.58 -5.33703 175.73C1.15739 184.652 8.29541 193.06 17.0132 200.037C21.2258 194.89 26.7255 187.912 30.8796 182.594C23.449 174.987 16.1355 166.179 7.94436 159.373C9.87514 159.945 11.9814 157.944 10.4602 156.228C11.7474 155.713 11.8644 154.054 11.3378 152.968C12.8591 150.223 15.843 148.678 18.1248 146.505C22.2204 142.902 26.316 139.07 29.885 134.952C31.1137 145.819 33.6295 156.628 34.5071 167.495C33.3955 189.285 30.2945 210.961 27.8372 232.637C28.9489 232.809 30.119 233.037 31.2307 233.209C27.2521 257.802 23.5076 283.653 20.2896 308.36C16.4281 333.582 16.7206 359.49 9.29005 384.083C11.6889 384.712 14.0877 385.284 16.5451 385.856C15.1409 389.174 14.4388 392.719 14.3218 396.265C13.0931 393.291 10.8112 397.295 9.23152 398.153C5.13594 401.642 0.338261 404.215 -4.69345 406.16C-10.6613 408.562 -18.677 410.049 -21.4854 416.397C-11.0709 424.29 4.43384 419.085 16.077 416.626C16.077 417.026 16.077 418.628 16.077 419.028C20.9917 419.028 25.9649 419.028 30.8796 418.971V418.513V413.652L31.5817 413.252C33.2199 408.219 31.9913 402.213 32.2253 396.837C30.7041 395.236 29.5339 395.751 28.1297 397.123C28.9489 394.264 29.1244 391.29 28.7148 388.373C32.9274 389.059 37.14 389.631 41.5282 389.288C48.7247 346.737 55.8627 301.669 61.8305 258.889C64.1123 283.767 69.0271 310.248 70.4898 335.184C70.6068 335.184 73.3567 339.587 73.4737 339.645L74.4683 352.055C75.4044 364.237 76.3406 377.678 77.1012 389.974C79.266 390.031 81.4893 390.031 83.6542 389.974C83.1861 392.376 83.3616 394.836 84.0637 397.123C82.6595 395.751 81.4893 395.35 79.9681 396.895C80.1436 402.271 78.9149 408.276 80.6117 413.309L81.3138 413.709C81.3138 413.881 81.3138 419.085 81.3138 419.028C86.2285 419.028 91.2017 419.028 96.1164 419.085C96.1164 418.742 96.1164 417.084 96.1164 416.683C107.76 419.142 123.264 424.347 133.679 416.454V416.168H133.269ZM68.0324 195.405C66.3356 197.921 62.1231 195.919 59.4902 196.377C58.203 196.377 56.2723 196.72 55.8627 195.062C55.8627 193.346 54.8681 189.743 57.6179 189.685C60.1923 189.8 63.0007 189.8 65.5751 189.857C68.8515 189.342 68.0324 193.46 68.0324 195.462V195.405ZM49.6023 121.34L40.7675 114.706C45.2727 107.328 49.4852 99.7786 54.5755 92.8011C53.1713 99.9501 53.2883 107.328 52.7032 114.534C53.2883 113.848 58.7296 107.328 59.4317 106.413C57.2084 126.602 53.9319 158.401 51.8841 178.876C49.2512 162.519 45.9748 145.361 42.7568 129.061L49.6608 122.541L50.3629 121.855L49.6023 121.283V121.34ZM58.203 186.997C58.6126 186.425 58.554 185.796 58.086 185.282C57.3839 185.625 57.0914 186.368 57.3839 187.055C56.8573 187.055 56.3893 187.055 55.8627 187.169C56.0967 186.425 55.7456 185.739 54.9265 185.51C54.5169 186.082 54.634 186.769 55.1021 187.226C54.4585 187.226 53.8149 187.341 53.1128 187.455C53.5808 163.606 57.969 130.148 59.4317 106.527L59.9583 105.898C62.2986 109.273 64.6389 112.59 66.9793 115.964C65.5751 138.841 64.1123 164.178 63.0592 186.997C61.4209 186.997 59.7242 186.997 58.086 187.112L58.203 186.997ZM70.7238 236.583C70.7238 236.469 70.8408 236.412 70.9578 236.412C70.8993 236.412 70.8408 236.526 70.7238 236.583ZM72.128 237.613C72.3035 237.27 72.245 237.327 72.3035 237.098C72.479 237.327 72.479 237.556 72.128 237.613ZM99.9779 99.7214C104.542 102.009 109.281 105.155 113.786 107.442C113.084 110.359 112.967 113.276 113.61 116.25C115.307 113.676 115.424 110.245 114.078 107.557C116.711 105.898 120.924 105.955 122.445 109.158C123.908 113.676 123.03 119.51 123.557 124.257C123.908 137.754 123.966 151.824 124.083 165.321C124.551 187.912 126.482 213.992 127.594 236.583C120.514 239.271 112.44 238.299 105.536 235.554C104.659 222.972 103.605 210.389 103.605 197.807C103.605 192.831 104.893 187.912 104.776 182.937C103.957 178.304 102.728 173.786 101.616 169.21C105.829 152.339 110.334 134.266 113.61 117.165C108.579 138.498 103.02 160.632 96.877 181.621C94.5952 198.893 98.0471 216.452 99.3928 233.667C90.6751 236.412 81.3723 236.526 72.3035 236.297C72.8301 218.11 72.8886 199.98 73.4737 181.85C76.1066 175.444 78.6224 168.982 81.1383 162.576C85.5264 155.198 91.4357 144.961 95.7068 137.526C99.1588 138.155 102.728 138.441 106.238 138.555C106.238 137.125 106.238 135.581 106.238 134.151C103.313 134.094 100.388 134.151 97.5206 134.437C97.8131 133.923 101.265 127.86 101.441 127.517C98.7492 125.458 96.1164 123.342 93.425 121.283L99.1003 115.793L99.4514 115.449C96.9355 109.273 93.8931 100.808 91.1432 94.86L99.9779 99.7214ZM97.2865 134.78C99.6854 135.238 102.143 135.524 104.542 135.696C104.542 136.039 104.542 136.382 104.542 136.782C101.675 136.725 98.8078 136.782 95.9994 137.068C96.0579 136.954 97.1695 135.009 97.2865 134.838V134.78ZM86.2285 108.643C87.1646 102.524 89.3294 94.574 86.4625 88.6832C92.1963 96.061 94.4197 106.527 97.7546 115.106C97.4036 115.392 91.0847 121.283 90.9677 121.397C93.7176 123.571 96.4675 125.744 99.2174 127.917C93.1325 138.555 85.9944 151.252 80.0851 162.004C77.8033 168.524 75.6385 175.101 73.4737 181.678C74.5853 158.63 77.8618 134.666 80.5532 111.732C81.3138 113.448 83.5371 118.252 84.2392 119.91C84.5318 118.137 85.8189 110.531 86.17 108.643H86.2285ZM74.9364 111.389L79.0905 108.357L80.5532 111.617C76.8672 136.725 72.8886 161.947 71.8939 187.341C71.2503 187.283 70.6068 187.169 69.9632 187.169C70.5483 186.711 70.8408 186.025 70.6068 185.339C69.6706 185.51 69.0855 186.254 69.2026 187.112C68.676 187.112 68.1494 187.055 67.5644 186.997C68.0324 186.425 68.0909 185.682 67.5644 185.053C66.8038 185.453 66.4527 186.197 66.6867 186.94C65.5166 186.94 64.2878 186.883 63.1177 186.826C63.7613 179.105 64.3464 170.983 64.9315 163.205C65.7506 164.635 67.7399 165.836 69.3196 164.807C68.0324 163.606 66.8037 162.519 64.99 162.576L65.107 160.689C66.4527 161.146 67.9154 160.574 68.442 159.259C67.2718 158.687 65.9261 158.973 65.1655 159.945C65.575 154.169 66.2186 145.19 66.6282 139.47C67.3303 140.271 68.2664 140.557 69.3781 140.271C69.3196 138.956 67.9739 138.098 66.6867 138.441V137.411C68.1494 137.812 69.6706 137.183 70.3727 135.924C69.144 135.352 67.7399 135.581 66.8037 136.496C66.9207 135.066 68.0324 118.195 68.1494 116.25C69.2611 115.449 73.7077 112.247 74.9364 111.331V111.389ZM59.2561 84.7941C58.8466 95.0316 65.107 104.24 68.8515 113.505C68.676 113.905 68.325 114.992 68.2079 115.449C65.5166 111.56 62.8251 107.728 60.1338 103.896C60.0167 104.011 54.2829 110.988 53.9904 111.331C54.5755 102.238 54.0489 92.8011 59.2561 84.7941ZM24.8532 138.155C20.0556 142.616 13.8537 146.562 10.9283 152.51C9.87512 150.737 7.88583 149.536 5.72102 149.479C7.18373 151.309 10.7527 153.139 9.8166 155.713C7.59329 153.311 3.90728 151.938 0.689318 152.853C2.73711 153.311 13.4441 157.486 7.5348 159.145C5.60402 157.658 3.38069 156.342 0.864836 156.056V156.228C9.7581 158.63 21.2843 175.788 28.4223 182.651C24.9703 186.997 19.9971 193.117 16.6621 197.406C8.58793 191.115 1.80098 182.937 -4.57643 175.044C-9.08157 169.096 -16.2781 162.462 -13.7622 154.398C-9.02307 144.446 18.6514 97.834 29.8265 100.865C26.8425 111.846 28.2468 123.399 29.5924 134.495C27.9542 135.638 26.3745 136.897 24.8532 138.155ZM33.1614 198.836C34.1561 184.996 37.374 170.869 34.4486 157.028C31.9328 138.212 25.6724 118.195 31.0552 99.4926C37.0815 97.3765 49.2513 93.1442 55.2776 91.0281C50.1289 99.0922 43.7514 106.699 38.8952 115.049L39.3633 115.449L47.73 122.084L41.1186 128.203L40.7675 128.546C44.1025 145.361 47.7886 162.976 51.7671 179.677C51.5331 195.176 51.5331 218.911 51.4746 234.524C44.044 234.01 36.7304 232.523 29.4169 231.322C30.7041 220.512 31.9328 209.703 33.1029 198.893L33.1614 198.836ZM25.5554 395.979C25.6139 396.895 25.7309 397.752 25.9649 398.667C25.3798 399.125 24.5607 399.869 23.9756 400.383C24.5607 396.38 25.0288 391.862 25.2628 387.801C25.6139 387.858 25.9649 387.915 26.316 387.972C25.5553 390.546 25.3798 393.291 25.5554 395.979ZM25.0288 387.744C23.449 391.747 22.981 396.208 23.9171 400.383C23.332 400.898 21.6938 402.328 21.1087 402.785C22.3374 398.324 22.0448 391.804 22.2204 387.172C23.1565 387.343 24.0926 387.572 25.0288 387.744ZM16.0185 395.179C16.7206 392.205 17.3057 389.231 17.4227 386.199C18.0078 386.314 18.5344 386.428 19.1194 386.543C17.5982 391.061 16.6621 395.751 16.6036 400.555C16.2525 399.868 15.6089 398.725 15.1994 398.096C15.5504 397.123 15.843 396.151 16.077 395.179H16.0185ZM17.6567 397.123C18.5344 393.635 19.1194 390.146 19.2365 386.543C19.7045 386.657 20.1726 386.771 20.6406 386.829C19.1779 392.433 18.4758 398.267 18.5344 404.044L16.6036 400.555C17.0717 399.411 17.3642 398.267 17.7152 397.123H17.6567ZM16.3695 385.914C16.6621 385.971 16.9546 386.028 17.2472 386.142C16.7791 387.115 16.4281 388.144 16.1355 389.231C16.3111 388.144 16.3695 387.057 16.3695 385.971V385.914ZM15.1409 394.206C15.1409 394.035 15.2579 393.863 15.2579 393.692C15.0824 395.122 14.9653 396.494 15.0824 397.924C14.7898 397.466 14.5558 397.009 14.2633 396.551C14.6143 395.751 14.9068 395.007 15.1409 394.206ZM16.8961 415.94C21.2843 415.768 25.6139 415.025 29.768 413.538V417.999C25.4383 417.999 21.1672 417.999 16.8961 417.999V415.94ZM28.3637 397.18C28.8318 396.837 29.2999 396.437 29.8265 396.208C30.4115 396.208 30.9966 396.666 31.4062 397.066C31.2892 402.213 31.6987 407.475 30.8796 412.565C30.7041 412.622 29.885 413.08 29.768 413.194V413.423C25.3798 413.538 21.0502 414.338 16.8961 415.768V415.253C5.31148 417.77 -9.72517 422.86 -20.4907 416.111C-18.8525 413.194 -15.576 411.479 -12.5921 410.049C-11.1294 412.451 -10.1932 414.967 -9.54964 417.713C-8.555 414.91 -9.84219 411.593 -12.2995 409.877C-11.5389 409.534 -10.7198 409.191 -9.90067 408.905C-9.14007 411.536 -8.43799 414.224 -7.7359 416.912C-6.85827 414.167 -7.73587 410.964 -9.60813 408.848C-6.09763 407.59 -2.47013 406.217 0.806341 404.444C0.981867 406.16 1.74245 407.704 3.08814 408.733C3.08814 407.018 2.32756 405.473 1.09888 404.272C1.68397 403.929 2.32754 403.586 2.91263 403.243C3.02964 404.558 3.73176 405.759 4.90192 406.446C5.07745 405.073 4.37536 403.758 3.2637 403.014C3.79027 402.671 4.31682 402.328 4.8434 401.985C4.96041 403.414 5.77954 404.73 7.00821 405.416C7.00821 403.986 6.3061 402.614 5.13594 401.813C5.66251 401.47 6.18911 401.127 6.65717 400.726C6.89121 402.442 7.82732 404.101 9.23152 405.13C9.1145 403.357 8.23688 401.699 6.89119 400.555C7.41776 400.154 7.88583 399.754 8.35389 399.354C8.70494 401.413 9.7581 403.357 11.3963 404.73C11.1623 402.614 10.0507 400.669 8.52945 399.182C10.1092 397.924 11.3963 396.323 13.0346 395.293C13.4441 395.693 13.7952 396.265 14.1462 396.78C15.1994 398.324 17.8908 402.9 18.9439 404.558L18.5928 403.986C20.1141 398.382 20.8162 392.605 20.8162 386.771C21.2258 386.886 21.6938 386.943 22.1034 387.057C20.4651 392.148 20.9332 397.524 21.1087 402.728C20.4066 403.357 19.646 404.044 18.8854 404.558C21.9863 402.271 25.2628 399.297 28.3637 397.009V397.18ZM27.7202 390.203C27.3106 392.548 27.1936 394.893 27.6031 397.238C27.0766 397.638 26.55 398.096 26.0234 398.553C26.667 395.064 26.8425 391.518 26.4915 388.03C27.0181 388.144 27.6032 388.201 28.1297 388.316C27.9542 388.945 27.7787 389.574 27.6616 390.203H27.7202ZM97.4036 396.609C97.1111 397.009 96.877 397.466 96.643 397.867C96.76 396.723 96.7015 395.579 96.643 394.435C96.877 395.179 97.1111 395.865 97.4621 396.551L97.4036 396.609ZM94.9462 391.061C95.1802 393.463 95.5899 395.808 96.526 398.096C96.1164 398.725 95.5313 399.869 95.1803 400.498C95.1803 396.666 94.4782 392.834 93.1325 389.231C93.7176 389.173 94.3026 389.116 94.8877 389.002C94.8877 389.688 94.8877 390.317 94.9462 391.004V391.061ZM95.7653 388.945C95.7653 389.688 95.7653 390.432 95.8238 391.118C95.6483 390.375 95.3558 389.688 95.0633 389.002C95.2973 389.002 95.5313 388.945 95.7653 388.888V388.945ZM92.0793 389.345C92.3718 389.345 92.6644 389.288 92.8984 389.231C92.8984 393.063 93.6006 396.952 95.0633 400.555L93.1325 404.044C93.308 399.125 92.6644 394.149 91.3187 389.402C91.5528 389.402 91.7868 389.402 92.0208 389.345H92.0793ZM89.622 396.037C89.6805 398.324 89.856 400.612 90.5581 402.843C90.0315 402.385 88.3348 400.898 87.8082 400.44C88.6859 396.952 88.3933 393.177 87.0476 389.803C87.9837 389.803 88.9199 389.688 89.7975 389.631C89.622 391.804 89.622 393.92 89.622 396.094V396.037ZM85.9945 391.747C85.8775 391.118 85.7604 390.432 85.5264 389.803C85.9945 389.803 86.404 389.803 86.8721 389.745C86.8721 393.291 87.1061 396.837 87.7497 400.326C87.1646 399.811 86.3455 399.125 85.7604 398.61C86.404 396.38 86.404 393.978 86.053 391.69L85.9945 391.747ZM84.2977 393.52C84.1807 392.262 84.0051 391.061 83.5956 389.917C84.1807 389.917 84.7658 389.917 85.2923 389.917C84.8828 392.834 84.9413 395.751 85.5849 398.667C85.0583 398.21 84.5903 397.81 84.0637 397.409C84.3562 396.151 84.3562 394.893 84.2977 393.635V393.52ZM94.7707 415.94V417.999C90.4996 417.999 86.2285 417.999 81.9574 417.999V413.538C86.053 414.967 90.3826 415.768 94.7707 415.94ZM128.472 418.17C117.413 421.03 105.595 417.941 94.7707 415.253V415.768C90.6166 414.338 86.287 413.538 81.8989 413.423V413.194C81.7819 413.137 80.9042 412.68 80.7872 412.565C79.9681 407.475 80.3191 402.213 80.2606 397.066C80.7287 396.666 81.3138 396.265 81.8403 396.208C85.6434 398.553 89.1539 402.099 92.7814 404.673C92.0208 404.158 91.2602 403.414 90.5581 402.843C90.8506 398.439 91.0847 393.863 89.9145 389.574C90.3241 389.574 90.7336 389.517 91.1432 389.459C91.0847 394.378 91.6698 399.354 93.074 404.101L92.7229 404.673C93.7761 403.014 96.4089 398.439 97.5206 396.895C97.8131 396.38 98.2227 395.808 98.6323 395.407C100.329 396.494 101.616 398.096 103.137 399.297C101.558 400.784 100.504 402.728 100.27 404.844C101.909 403.472 102.962 401.527 103.313 399.468C103.781 399.869 104.308 400.269 104.776 400.669C103.43 401.813 102.494 403.472 102.435 405.245C103.898 404.215 104.776 402.557 105.01 400.841C105.536 401.184 106.004 401.584 106.531 401.927C105.361 402.785 104.6 404.101 104.659 405.531C105.946 404.844 106.706 403.472 106.823 402.099C107.35 402.442 107.877 402.785 108.403 403.129C107.291 403.872 106.589 405.187 106.765 406.56C107.935 405.874 108.579 404.616 108.754 403.357C109.339 403.7 109.924 404.044 110.568 404.387C109.339 405.531 108.579 407.132 108.579 408.848C109.924 407.818 110.685 406.274 110.861 404.558C114.137 406.331 117.764 407.704 121.275 408.962C119.344 411.078 118.525 414.281 119.403 417.026C120.105 414.338 120.807 411.65 121.568 409.019C122.387 409.305 123.147 409.648 123.966 409.992C121.509 411.65 120.222 415.025 121.216 417.827C121.802 415.082 122.796 412.565 124.259 410.163C127.243 411.593 130.519 413.252 132.158 416.226C131.104 417.141 129.817 417.827 128.472 418.285V418.17Z" fill="black"/>
</g>
</g>
<defs>
<linearGradient id="paint0_linear_2093_8621" x1="0.564453" y1="97.0718" x2="140.671" y2="97.0718" gradientUnits="userSpaceOnUse">
<stop stop-color="#A25A9F"/>
<stop offset="0.6" stop-color="#693068"/>
<stop offset="1" stop-color="#501D50"/>
</linearGradient>
<linearGradient id="paint1_linear_2093_8621" x1="0.564453" y1="97.4633" x2="140.671" y2="97.4633" gradientUnits="userSpaceOnUse">
<stop stop-color="#A25A9F"/>
<stop offset="0.6" stop-color="#693068"/>
<stop offset="1" stop-color="#501D50"/>
</linearGradient>
<linearGradient id="paint2_linear_2093_8621" x1="43.1661" y1="-30.7352" x2="99.6266" y2="-30.7352" gradientUnits="userSpaceOnUse">
<stop stop-color="#EB6B2C"/>
<stop offset="1" stop-color="#D2681A"/>
</linearGradient>
<clipPath id="clip0_2093_8621">
<rect width="140" height="167.489" fill="white" transform="translate(0.564453)"/>
</clipPath>
</defs>
</svg>
