<svg width="342" height="957" viewBox="0 0 342 957" fill="none" xmlns="http://www.w3.org/2000/svg">
<path d="M260.045 121.112C260.045 122.846 260.045 124.58 260.045 126.18C260.045 127.114 259.778 128.181 259.112 129.115C255.778 134.85 240.312 143.386 235.512 138.318C234.178 145.387 230.312 165.395 228.978 172.197C229.778 176.065 231.778 193.138 234.578 198.607C225.378 209.011 202.178 235.02 192.578 245.691C192.312 245.157 171.645 196.74 171.378 196.206C172.312 193.805 174.045 189.404 175.645 186.202C178.045 181 179.245 164.061 179.245 164.061C179.245 163.927 169.512 148.722 169.378 148.588C171.112 119.378 174.312 87.4992 175.245 52.2862C194.045 45.8838 188.045 45.3503 212.845 47.8845C224.445 48.8182 236.712 49.8853 236.712 49.8853C241.112 62.5566 254.045 98.0364 258.578 110.574C258.578 110.574 258.578 110.574 258.578 110.708C260.712 113.509 260.045 117.377 260.045 120.978V121.112Z" fill="white"/>
<path d="M195.645 162.327C195.512 162.861 195.645 162.594 195.378 163.127C192.045 176.999 185.645 190.071 176.578 201.008C174.312 199.808 172.445 198.474 171.378 196.206C171.378 196.473 171.112 196.873 171.112 197.14C175.378 187.003 177.512 175.265 177.912 164.195C158.178 166.462 149.378 137.651 148.978 121.912C148.445 108.174 155.379 65.0912 155.512 62.1568C156.712 60.9564 156.845 61.3565 159.112 60.0227C159.245 60.0227 159.379 59.8893 159.512 59.7559C164.579 57.6218 181.378 47.0846 185.112 46.9512C185.778 49.2187 186.579 51.7529 186.179 54.1538C184.979 75.3617 180.045 96.3027 171.645 115.91C173.778 115.91 175.912 116.177 178.045 116.31C181.645 128.981 172.712 143.52 179.112 155.658C182.178 161.527 190.178 166.062 195.645 162.327Z" fill="#F4C6CC"/>
<path d="M229.512 174.465C230.178 178.6 233.512 196.206 233.378 197.94C231.645 191.404 229.912 177.933 229.512 174.465Z" fill="#F4C6CC"/>
<path d="M234.178 142.052L235.245 138.317C235.245 138.317 229.378 172.997 229.245 173.664C229.245 173.664 231.512 149.655 234.045 142.052H234.178Z" fill="#F4C6CC"/>
<path d="M249.778 137.784C242.978 141.252 235.912 138.584 235.378 138.451C235.912 138.584 243.245 140.985 249.778 137.784Z" fill="#F4C6CC"/>
<path d="M259.112 128.981C259.112 128.981 257.778 132.85 251.645 136.718C259.645 131.649 265.378 112.175 253.378 107.507C264.045 110.841 261.378 123.246 258.978 128.981H259.112Z" fill="#F4C6CC"/>
<path d="M229.512 174.465C230.178 178.6 233.512 196.206 233.378 197.94C231.645 191.404 229.912 177.933 229.512 174.465Z" fill="white"/>
<path d="M234.178 142.052L235.245 138.317C235.245 138.317 229.378 172.997 229.245 173.664C229.245 173.664 231.512 149.655 234.045 142.052H234.178Z" fill="white"/>
<path d="M249.778 137.784C242.978 141.252 235.912 138.584 235.378 138.451C235.912 138.584 243.245 140.985 249.778 137.784Z" fill="white"/>
<path d="M259.112 128.981C259.112 128.981 257.778 132.85 251.645 136.718C259.645 131.649 265.378 112.175 253.378 107.507C264.045 110.841 261.378 123.246 258.978 128.981H259.112Z" fill="white"/>
<path d="M267.645 86.5654C269.379 90.3001 260.179 108.574 259.379 109.374C258.579 110.708 258.979 111.375 257.112 110.174C250.579 103.505 241.379 107.373 236.312 111.641C233.912 114.442 231.112 117.11 228.845 111.908C227.779 112.175 223.779 113.509 223.245 110.974H219.245L228.179 96.3023L236.579 72.0267C232.712 58.2883 214.845 54.9537 199.379 53.6199C188.979 52.953 168.179 57.2212 160.312 59.8889C152.445 62.5565 152.712 61.4895 143.379 56.5543C134.045 51.6191 144.045 20.6744 144.045 20.6744C144.045 20.6744 146.979 21.8748 150.712 24.6759C154.445 27.4769 158.445 26.1431 158.445 26.1431C156.045 20.9411 152.979 10.5373 156.579 3.86816C156.845 4.26831 160.312 8.13641 162.045 8.93671C170.712 11.3376 198.979 9.60362 207.779 9.737C219.112 8.26979 238.845 16.4061 238.845 16.4061C250.312 21.6081 256.979 30.8115 263.645 40.5484C266.312 50.5521 265.779 61.8896 261.245 68.8255C261.245 68.8255 262.712 70.2927 262.845 70.5595C268.979 73.0938 268.179 83.2308 267.912 86.6988L267.645 86.5654Z" fill="url(#paint0_linear_2093_8822)"/>
<path d="M206.178 54.1536C193.378 51.4859 170.845 56.2877 160.178 59.6223C152.311 62.2899 152.578 61.2229 143.245 56.2877C133.911 51.3525 143.911 20.4078 143.911 20.4078C143.911 20.4078 146.845 21.6082 150.578 24.4093C154.311 27.2103 158.311 25.8765 158.311 25.8765C155.911 20.6745 152.845 10.2707 156.445 3.60156C156.711 4.00171 160.178 7.86981 161.911 8.67011C170.711 11.071 198.845 9.33702 207.645 9.4704C227.378 9.4704 244.978 16.9398 253.645 27.4771C237.378 19.8742 219.245 16.0061 201.245 16.2729C187.778 16.5397 173.911 19.0739 160.978 15.0725C159.111 19.4741 159.778 24.9428 162.845 28.6775C156.845 29.7446 150.711 29.7446 144.711 28.6775C138.578 72.0269 184.445 42.5493 206.178 54.287V54.1536Z" fill="white"/>
<path d="M328.578 588.618C323.512 599.955 323.512 600.089 322.712 600.355C320.312 600.355 315.645 599.822 314.178 598.888C314.178 598.888 308.445 601.022 306.845 600.755C302.045 599.688 297.912 599.288 293.112 598.621C293.112 598.621 286.578 601.689 285.378 600.755C281.778 597.021 279.778 587.951 278.445 583.949C275.112 586.083 267.512 586.884 264.312 582.482C264.312 582.482 263.245 578.214 263.645 577.28C264.712 574.212 266.445 563.675 267.378 561.274C267.378 561.274 275.245 548.069 277.912 545.668C280.578 543.268 284.178 538.866 284.178 538.866C283.112 512.723 273.778 427.892 280.178 403.349C278.312 395.213 273.112 371.337 271.378 363.601L281.912 328.788C285.912 328.521 311.912 327.054 315.245 326.921C315.112 343.194 317.912 392.812 315.245 408.818C320.312 428.959 324.445 516.991 324.045 536.999C331.512 536.999 332.845 578.08 328.712 588.618H328.578Z" fill="white"/>
<path d="M315.112 326.921L315.378 337.992C303.112 352.13 289.112 364.668 273.912 375.472L271.245 363.735L281.778 328.922C285.778 328.655 311.778 327.188 315.112 327.054V326.921Z" fill="#F4C6CC"/>
<path d="M328.578 588.618C323.512 599.955 323.512 600.089 322.712 600.355C320.312 600.355 315.645 599.822 314.178 598.888C314.178 598.888 308.445 601.022 306.845 600.755C301.512 599.688 302.045 599.822 296.312 599.155C297.245 574.879 305.512 551.137 306.178 526.861C302.045 467.773 284.845 409.218 290.845 349.196L309.512 327.188L315.112 326.921C314.978 343.194 317.778 392.812 315.112 408.818C320.178 428.959 324.312 516.991 323.912 536.999C331.378 536.999 332.712 578.08 328.578 588.618Z" fill="#F4C6CC"/>
<path d="M122.979 458.436C122.045 462.704 119.245 474.842 118.179 479.377C96.0452 478.844 100.179 474.175 92.9785 458.436C96.1785 450.433 97.6452 451.634 95.3785 442.697C63.9118 417.221 25.7785 396.413 10.9785 348.796C10.9785 348.796 11.3785 330.255 17.2452 321.852C23.1119 313.583 44.1785 281.704 44.1785 281.704C50.4452 287.573 68.1785 304.379 74.5785 310.648C72.3119 313.583 54.5785 336.658 52.8452 338.925C73.6452 356.532 97.6452 396.413 114.312 416.421C114.179 418.021 113.645 421.756 114.312 423.223C115.645 428.558 121.779 453.901 122.845 458.703L122.979 458.436Z" fill="white"/>
<path d="M121.512 464.972L118.178 479.244C118.178 479.244 115.645 479.244 112.445 478.977C109.111 473.242 94.5782 458.436 107.378 456.036C100.578 452.301 99.3782 437.095 110.045 443.498C104.312 437.229 106.578 426.291 114.312 422.823C116.578 432.427 123.245 455.102 121.378 464.839L121.512 464.972Z" fill="#F4C6CC"/>
<path d="M74.5782 310.382C72.8448 312.649 54.3115 336.658 53.2448 338.259C48.5782 336.125 43.5115 334.924 38.4448 334.657C48.4448 322.386 54.0448 306.647 53.9115 290.774L74.5782 310.382Z" fill="#F4C6CC"/>
<path d="M113.912 420.822C109.378 422.156 104.978 424.29 101.112 427.091C85.2451 391.878 55.2451 365.202 27.3784 338.658C34.5784 335.457 44.8451 332.256 52.7118 331.056C53.7784 332.256 54.9784 333.457 56.0451 334.524C55.9118 334.79 52.9784 338.525 52.9784 338.525C73.7784 356.132 97.7784 396.013 114.445 416.02L114.045 420.689L113.912 420.822Z" fill="#F4C6CC"/>
<path d="M105.512 290.908L79.6453 315.45C68.0453 304.113 50.4452 286.906 38.7119 275.435C64.5786 236.488 97.9119 214.48 100.312 213.546L105.379 291.041L105.512 290.908Z" fill="#76B82A"/>
<path d="M62.0449 257.428C55.3783 267.032 49.5116 275.702 49.5116 275.702C52.3116 280.103 68.445 305.313 70.845 309.047C63.5116 300.644 47.5116 282.237 40.0449 273.568C67.7783 233.419 97.1116 215.546 100.045 213.679L98.9783 224.083C98.9783 224.083 68.5783 247.958 61.9116 257.428H62.0449Z" fill="white"/>
<path d="M258.312 416.021C255.912 434.294 259.645 457.369 259.645 457.369L255.512 459.237H119.112C119.112 459.237 119.112 459.237 119.112 458.97C118.712 457.369 114.178 446.699 114.178 446.432C118.445 434.027 116.312 432.427 113.778 420.689C114.045 422.823 119.778 369.737 112.045 330.122C106.712 291.575 94.9784 252.36 100.312 213.279C123.778 207.544 147.512 202.475 170.978 196.873C174.978 206.076 188.312 236.488 192.578 246.091L230.978 201.675C231.245 201.408 232.578 199.807 232.845 199.541C233.112 199.541 233.512 199.407 233.778 199.274L300.578 227.818C302.312 266.232 265.645 371.338 258.312 415.621V416.021Z" fill="#76B82A"/>
<path d="M109.378 218.748C108.712 220.348 112.578 308.514 113.112 336.525C114.312 333.057 91.5117 224.616 100.578 213.412C124.045 207.677 147.645 202.608 171.112 197.14C172.045 199.274 176.045 208.344 176.978 210.611C168.445 208.21 163.645 204.342 163.378 204.342C162.712 204.342 110.045 218.748 109.378 218.748Z" fill="white"/>
<path d="M233.912 199.674C233.512 199.941 232.978 200.074 232.578 200.341L232.978 199.941C233.245 199.941 233.645 199.807 233.912 199.674Z" fill="white"/>
<path d="M280.445 329.455L317.912 324.653C317.912 324.653 313.245 258.496 312.178 248.225C311.112 237.821 299.111 229.818 299.111 229.818L280.312 329.455H280.445Z" fill="#76B82A"/>
<path d="M280.445 329.455C292.445 326.921 304.978 324.92 317.111 322.919L315.778 324.787C314.445 308.514 313.112 290.774 312.178 274.502C310.978 259.696 313.512 239.289 298.978 229.818C315.645 238.355 313.645 258.362 315.512 274.235C316.978 291.041 318.178 309.314 318.978 326.254C306.312 327.588 293.245 328.788 280.578 329.455H280.445Z" fill="black"/>
<path d="M100.445 213.546C76.7116 230.485 56.9783 252.627 40.4449 276.503L40.1783 273.968C53.6449 287.173 67.5116 300.912 80.5783 314.517H78.7116C87.5116 306.514 96.4449 298.644 105.378 291.041C96.9783 299.978 88.3116 308.781 79.6449 317.451C65.1116 303.979 50.3116 289.707 36.0449 275.702C52.9783 251.16 74.045 228.351 100.178 213.546H100.445Z" fill="black"/>
<path d="M172.445 200.34C171.778 199.807 171.112 199.007 170.712 198.073C148.445 203.008 123.245 208.743 101.112 214.212C96.445 248.491 107.245 282.904 111.778 316.783C118.178 351.063 119.912 386.276 114.978 420.955C115.778 426.691 119.378 435.094 116.712 440.829C116.578 441.63 114.712 446.298 114.978 447.098C116.445 450.966 118.578 455.635 119.512 459.503C119.512 459.503 119.512 459.77 119.245 459.77C119.245 459.77 119.245 459.503 119.245 459.369H119.112C117.778 455.368 115.512 450.833 113.912 446.965C114.712 441.496 117.778 436.561 115.378 430.959C115.378 430.826 112.978 421.222 112.978 421.089C115.112 403.882 115.245 386.409 114.578 368.936C112.978 316.917 92.3117 265.298 99.9117 213.012C122.845 207.943 148.712 201.808 171.512 196.339C171.512 196.606 171.245 196.872 171.245 197.273L172.578 200.34H172.445Z" fill="black"/>
<path d="M302.445 230.352C299.512 256.762 296.978 282.504 289.778 308.247C285.512 319.718 281.645 331.322 278.179 342.927C267.912 380.274 253.378 418.155 260.045 457.502C259.912 457.502 255.912 459.37 255.645 459.37V458.97C255.512 458.97 259.378 457.102 259.378 457.102C249.778 403.349 273.512 350.93 287.645 299.978C292.845 276.769 295.779 252.894 298.579 229.285C282.445 222.349 249.912 208.21 233.778 201.141L231.112 201.941C231.778 201.141 232.979 199.674 233.645 199.007C233.645 198.74 233.512 198.473 233.378 198.073H233.912C251.245 204.609 284.712 219.815 301.112 228.351L302.312 230.352H302.445Z" fill="black"/>
<path d="M273.245 909.936L218.045 911.804C211.512 842.578 191.112 642.237 180.045 572.878C170.845 637.169 134.712 841.378 127.512 908.736L93.3783 902.334L65.9116 897.132L114.978 495.517C116.045 487.514 118.978 465.105 120.045 457.369H255.378C275.778 592.753 269.112 773.219 273.245 909.803V909.936Z" fill="url(#paint1_linear_2093_8822)"/>
<path d="M81.2449 901C82.3116 908.336 76.9782 919.674 90.0449 921.408C102.445 921.408 104.045 920.874 110.845 917.673L112.845 906.069L81.2449 901Z" fill="#746963"/>
<path d="M131.245 479.377C131.245 479.377 74.5783 886.328 74.7116 886.861C74.8449 887.395 92.8449 901.933 93.3783 902.333L65.9116 897.132L114.978 495.516L118.445 469.507C141.378 469.24 190.312 470.04 213.512 470.707L131.245 479.377Z" fill="white"/>
<path d="M341.778 951.418V954.753C339.245 954.753 224.445 955.019 220.712 955.019C218.712 947.017 218.845 921.941 229.378 915.005C229.378 914.738 259.779 911.803 260.179 911.403C268.179 912.07 289.245 926.075 296.179 929.944C296.312 929.944 298.045 929.677 298.312 929.543C298.712 929.01 315.112 926.342 321.778 929.543C328.445 932.745 327.245 929.944 331.245 934.479C335.245 939.014 336.712 936.879 338.712 941.681C340.712 946.616 341.645 951.151 341.645 951.151L341.778 951.418Z" fill="#9B928E"/>
<path d="M341.778 951.418V954.753H335.912C331.912 935.679 311.778 929.41 294.312 931.144C295.245 930.477 297.245 929.543 298.445 929.677C298.845 929.143 315.245 926.476 321.912 929.677C328.578 932.878 327.378 930.077 331.378 934.612C335.378 939.147 336.845 937.013 338.845 941.815C340.845 946.75 341.778 951.285 341.778 951.285V951.418Z" fill="white"/>
<path d="M224.712 955.153H220.712C218.712 947.151 218.978 921.941 229.378 915.139L230.712 917.006C221.645 927.01 222.178 942.749 224.712 955.153Z" fill="white"/>
<path d="M231.645 912.471L231.245 917.939C236.845 923.541 264.045 922.875 261.512 910.87L231.645 912.337V912.471Z" fill="#746963"/>
<path d="M123.378 948.083L121.512 955.286L4.31158 955.019H0.578263C0.578263 955.019 0.178263 942.081 5.9116 938.346C11.3783 934.745 21.2449 928.476 28.7116 928.743C37.5116 928.743 45.1116 931.411 47.3782 929.81C58.4449 922.741 69.5115 916.072 79.1115 911.67C84.4449 923.141 90.4449 921.54 99.5116 921.674C99.7783 922.074 110.845 918.206 110.845 917.806C110.845 917.539 111.645 914.738 111.645 914.738C111.645 914.738 115.378 916.472 117.112 920.34C124.178 927.276 123.512 943.148 123.245 948.217L123.378 948.083Z" fill="#9B928E"/>
<path d="M51.245 932.345C34.1784 930.744 9.37836 935.813 4.31169 954.753H0.578378C-2.22162 929.81 32.3117 925.942 51.245 932.345Z" fill="white"/>
<path d="M80.9784 915.405C69.2451 919.006 58.1785 924.475 47.2451 929.81C47.2451 929.81 47.2451 929.677 47.2451 929.543C58.3118 922.474 69.3784 915.805 78.9784 911.403C79.7784 912.204 80.4451 914.204 80.8451 915.271L80.9784 915.405Z" fill="white"/>
<path d="M205.245 93.5008C205.245 103.505 198.712 103.505 198.712 93.5008C198.712 83.4971 205.245 83.4971 205.245 93.5008Z" fill="black"/>
<path d="M168.445 91.5008C168.445 101.505 161.912 101.505 161.912 91.5008C161.912 81.4971 168.445 81.4971 168.445 91.5008Z" fill="black"/>
<path d="M266.845 562.475C264.445 531.93 260.178 487.38 254.978 457.503L255.378 457.903L120.045 458.436L121.112 457.503C105.245 582.349 83.5116 770.818 67.9116 897.265L66.4449 895.264L128.045 906.869L125.778 908.603C136.845 815.768 166.578 652.508 180.312 559.94C195.245 661.311 209.645 808.432 219.512 911.537L218.045 910.337L273.245 908.603L272.045 909.803C271.645 817.903 268.845 678.117 267.778 585.15C269.645 679.185 273.912 818.169 274.578 911.004H273.378L218.178 913.138H216.845C206.845 814.701 192.578 669.848 178.178 573.145H181.912C168.978 654.375 142.845 817.636 129.778 898.732V898.466C129.778 900.066 129.512 909.536 129.378 911.004L127.245 910.603L65.6449 898.866L63.9116 898.599C79.9116 770.285 102.312 582.882 119.112 456.436C120.178 456.436 254.578 456.969 255.778 456.969C260.712 486.847 264.712 531.93 266.845 562.475Z" fill="black"/>
<path d="M341.245 946.483C336.845 926.742 311.911 924.342 295.778 929.81C286.445 923.808 277.645 916.739 267.512 912.07H259.512C259.512 923.408 239.645 921.674 231.512 918.339C240.845 923.541 259.378 926.609 262.445 912.737C265.378 913.804 268.311 915.138 271.111 916.605C267.111 917.672 264.178 922.341 265.512 926.476C267.512 923.275 269.778 919.94 272.445 917.406C273.778 918.073 275.111 918.873 276.445 919.54C272.178 919.94 267.512 924.608 269.378 929.143C271.245 925.142 274.445 922.874 277.778 920.34C279.245 921.14 280.712 922.074 282.178 922.874C277.912 923.141 274.178 927.809 275.512 932.078C277.778 928.61 280.178 925.942 283.512 923.675C284.578 924.342 285.645 924.875 286.712 925.409C282.712 925.409 278.312 930.344 280.845 934.212C282.045 930.477 284.845 928.476 287.645 925.942C290.312 927.409 292.978 928.743 295.645 929.944C292.845 930.877 290.045 932.078 287.512 933.545C305.645 927.409 335.112 926.342 340.845 949.417C300.712 947.683 260.578 947.55 220.445 949.417C219.378 937.28 219.778 923.275 230.178 915.138C230.445 916.339 230.712 917.406 231.245 918.606C232.312 916.739 232.712 914.338 232.312 912.204H229.645C229.645 913.004 229.912 913.938 230.045 914.738C215.245 921.807 215.912 941.548 220.578 954.886C220.578 954.886 220.578 955.02 220.578 955.153C220.578 955.153 220.578 955.02 220.578 954.886C260.845 956.62 301.245 956.62 341.512 954.886C341.512 955.02 341.512 955.286 341.512 955.42C342.045 952.485 341.911 949.418 341.111 946.483H341.245ZM220.712 954.753C220.712 952.885 220.578 951.151 220.445 949.284C222.178 949.284 223.778 949.417 225.512 949.551C224.178 951.018 224.311 953.286 225.778 954.486C224.045 954.486 222.445 954.486 220.712 954.753ZM234.445 954.219C231.778 954.219 228.978 954.486 226.312 954.619C227.245 953.552 227.512 952.085 226.845 950.751C226.712 950.351 226.445 950.084 226.045 949.684C228.845 949.684 231.778 949.951 234.578 950.084C233.512 951.285 233.512 953.019 234.578 954.353L234.445 954.219ZM244.312 953.286C244.312 953.552 244.445 953.686 244.578 953.952C241.645 953.952 238.578 953.953 235.645 954.219C236.578 953.019 236.578 951.285 235.645 950.084C238.712 950.084 241.778 950.218 244.845 950.351C244.178 951.151 243.912 952.352 244.178 953.419L244.312 953.286ZM258.978 950.485C258.312 951.418 258.178 952.619 258.578 953.686C254.445 953.686 250.312 953.686 246.312 953.952C247.112 952.885 247.245 951.552 246.845 950.351C250.978 950.351 254.978 950.485 259.111 950.618L258.978 950.485ZM271.512 953.286C271.512 953.286 271.512 953.419 271.512 953.552C267.778 953.552 264.045 953.552 260.312 953.552C260.978 952.619 261.112 951.552 260.712 950.485C264.445 950.485 268.045 950.485 271.778 950.485C271.245 951.285 271.112 952.219 271.378 953.152L271.512 953.286ZM284.178 953.552C280.712 953.552 277.112 953.552 273.645 953.552C274.178 952.619 274.312 951.685 273.912 950.618C277.378 950.618 280.845 950.618 284.312 950.618C283.778 951.552 283.778 952.485 284.045 953.419L284.178 953.552ZM295.378 953.552C292.312 953.552 289.245 953.552 286.312 953.552C286.845 952.752 286.845 951.818 286.578 950.885C286.578 950.885 286.578 950.751 286.578 950.618C289.645 950.618 292.712 950.618 295.645 950.618C295.112 951.552 294.978 952.619 295.512 953.552H295.378ZM297.378 953.552C297.912 952.619 297.912 951.552 297.645 950.485C300.578 950.485 303.378 950.485 306.312 950.485C305.778 951.418 305.778 952.485 306.312 953.552C306.312 953.552 306.311 953.686 306.445 953.819C303.511 953.819 300.445 953.819 297.512 953.819L297.378 953.552ZM316.845 953.952C313.912 953.952 310.978 953.819 308.045 953.819C308.578 952.752 308.578 951.552 308.045 950.485C310.978 950.485 314.045 950.485 316.978 950.351C316.178 951.418 316.045 952.885 316.845 954.086V953.952ZM325.378 954.219C322.978 954.219 320.712 954.219 318.312 954.086C318.978 953.152 319.112 951.952 318.712 950.885C318.712 950.751 318.578 950.485 318.445 950.351C320.711 950.351 322.978 950.351 325.245 950.218C324.312 951.418 324.312 953.152 325.245 954.353L325.378 954.219ZM326.578 954.219C327.378 953.152 327.512 951.818 326.978 950.751C326.978 950.485 326.712 950.218 326.578 950.084C328.712 950.084 330.712 949.951 332.845 949.818L332.578 954.619C330.578 954.619 328.578 954.486 326.578 954.353V954.219ZM332.578 954.486C332.712 952.885 332.845 951.285 332.845 949.684C335.512 949.684 338.178 949.417 340.712 949.284C341.112 951.018 341.378 952.885 341.512 954.753C338.578 954.619 335.512 954.486 332.578 954.353V954.486Z" fill="black"/>
<path d="M179.645 102.038C180.045 100.171 180.178 98.3035 180.178 96.3027C176.045 103.505 172.312 110.708 169.512 118.578C174.445 119.378 179.245 118.578 183.645 116.71C180.578 116.31 177.645 116.177 174.712 115.643C176.845 111.375 178.712 106.707 179.645 101.905V102.038Z" fill="black"/>
<path d="M202.712 77.4958C205.512 77.4958 207.778 78.2961 210.445 79.7633C209.512 71.7603 196.179 71.6269 194.979 79.4965C197.645 78.1627 200.045 77.4958 202.712 77.4958Z" fill="black"/>
<path d="M166.845 69.492C163.112 68.9584 158.845 71.3593 158.178 75.094C163.645 72.293 169.245 72.9599 173.778 77.0948C174.045 73.2267 170.578 70.0255 166.712 69.492H166.845Z" fill="black"/>
<path d="M140.178 54.2867C141.912 60.8225 148.845 64.6906 155.378 62.9566C148.178 93.2345 132.445 160.193 177.778 165.528C176.712 176.198 174.445 186.469 170.045 196.206C170.045 196.206 169.778 196.873 169.645 197.14C176.445 214.213 184.845 233.153 192.312 250.092C206.578 233.553 220.578 216.613 233.778 199.274V199.674C233.912 199.674 233.778 199.14 233.778 199.14C234.045 198.874 234.312 198.473 234.445 198.207C234.178 198.473 233.912 198.74 233.645 199.007C228.978 179.533 230.445 159.125 236.178 140.052C252.845 145.921 267.245 124.846 258.712 110.574C270.712 96.569 277.912 62.4231 249.112 67.625C251.645 61.6228 250.845 54.1533 246.712 49.0848C245.645 55.4872 246.312 61.6228 248.312 67.7584C246.578 68.0251 244.845 68.4253 243.112 68.8254C245.645 60.9559 242.712 51.3523 236.045 46.2838C237.912 53.8866 240.178 61.6228 242.712 68.9588C240.578 69.6257 238.578 70.426 236.578 71.4931C272.178 60.8225 271.512 85.765 258.578 110.441C257.778 109.507 256.845 108.573 255.645 108.04C257.912 106.706 258.578 103.105 256.445 101.371C255.245 103.372 254.578 105.239 254.578 107.506C253.378 106.973 252.045 106.573 250.712 106.439C252.978 104.705 254.445 101.371 252.978 98.7032C250.978 100.971 249.778 103.372 249.778 106.439C248.312 106.439 246.845 106.439 245.512 106.973C248.178 105.239 249.512 101.504 248.178 98.4364C246.178 100.971 244.978 103.905 244.712 107.24C242.578 107.773 240.578 108.707 238.845 109.907C240.178 106.706 240.845 103.238 240.312 99.9036C237.912 103.638 235.378 118.711 229.112 112.708C233.378 110.708 235.778 105.906 235.912 101.237C232.578 104.972 229.112 113.375 223.245 111.508C227.912 109.24 231.512 104.439 232.178 99.3701C230.445 104.305 226.578 108.307 221.645 110.041C229.245 98.5698 234.578 85.3649 236.445 71.7599C231.378 86.4319 224.978 100.571 216.578 113.642C218.712 113.242 221.112 112.842 222.978 111.775C223.645 113.909 226.578 113.909 228.312 113.108C230.578 119.244 237.245 115.509 238.445 110.708C269.245 95.2352 262.312 147.121 235.512 137.517H235.645C235.245 137.384 234.445 137.517 234.045 137.517C227.912 157.392 226.445 178.733 233.112 198.607L233.378 199.407C219.512 213.546 206.178 228.351 192.978 243.29C186.578 228.618 179.112 211.945 172.312 197.54V197.273C172.578 196.473 172.978 195.272 173.245 194.472C176.845 185.402 177.512 175.665 177.512 165.928C192.445 166.862 207.912 162.994 220.045 154.457C140.312 189.003 146.312 118.844 155.112 63.2234C176.312 56.0207 224.445 46.2838 236.045 72.0266C209.512 22.1415 172.845 50.9522 148.978 33.0789C167.512 53.4864 201.778 33.479 226.978 60.0222C207.512 50.2853 183.912 51.2189 163.378 56.821C138.178 69.4924 139.245 38.8143 144.712 22.9418C166.578 44.1497 192.045 6.1356 214.178 31.6117C195.512 8.80325 178.578 28.6773 157.778 26.143C154.712 20.1408 154.045 12.9381 156.045 6.53574C164.978 17.4731 209.378 7.33604 227.245 14.8055C250.578 19.4739 272.845 44.0163 261.112 68.2919C276.178 44.0163 252.712 16.0059 228.312 11.0708C215.912 7.73619 203.112 7.6028 190.578 7.86957C180.178 6.40236 158.178 14.6721 156.045 0C152.445 8.40311 152.445 18.4068 157.512 26.143C151.645 24.8092 146.978 20.8077 143.645 16.0059C137.778 27.877 135.778 41.8821 139.645 54.6869L140.178 54.2867Z" fill="black"/>
<path d="M274.312 383.208C275.112 388.41 276.978 398.681 277.912 403.883C277.512 409.351 276.978 415.087 276.312 420.556C273.912 459.903 280.045 499.251 283.645 538.466C274.845 545.268 266.711 554.738 264.711 566.076C260.978 579.147 261.112 591.285 278.312 584.083C276.712 593.553 282.578 610.092 293.378 599.022C296.045 601.956 300.978 602.489 304.178 599.822C307.112 602.756 312.578 603.023 315.378 599.555C326.445 607.024 329.245 591.819 330.845 583.949C334.178 569.144 335.245 552.071 326.711 538.733C326.845 539.133 326.978 539.666 327.111 540.066L324.045 536.865C323.645 493.916 325.912 448.566 317.645 406.15C317.112 380.007 316.312 351.463 314.978 325.32C314.045 351.463 313.912 380.274 313.912 406.55C321.512 449.633 319.778 493.516 323.512 536.999C323.512 536.999 326.978 540.066 326.978 540.2C332.178 557.406 328.445 575.013 325.378 592.219C325.378 598.088 321.245 601.822 315.512 599.288C316.978 597.554 317.645 595.153 317.512 592.886C320.045 593.286 321.911 590.885 320.711 588.484C319.111 588.351 317.245 588.484 316.978 590.218C317.112 590.618 317.245 591.285 316.445 591.552C316.445 591.685 316.445 591.819 316.445 592.086C313.778 596.354 310.311 599.555 305.111 598.488C306.045 597.154 306.445 595.42 305.912 593.953C308.312 594.753 310.445 591.552 308.445 589.685C305.778 589.951 305.378 590.352 304.578 592.886C304.578 593.019 304.845 593.153 304.845 593.286C302.712 597.821 297.778 597.821 293.378 598.355C294.578 596.354 294.845 593.82 294.578 591.685C296.978 592.753 299.512 590.485 298.578 587.817C295.778 587.15 294.045 588.484 293.912 591.285C293.912 591.285 294.178 591.419 294.312 591.552C293.778 596.087 288.845 601.156 284.578 597.954C280.045 590.218 281.911 579.548 279.778 570.744C279.778 571.278 279.512 571.811 279.512 572.212C278.978 570.611 276.978 570.744 275.912 572.078C275.912 574.479 276.845 575.413 279.111 574.346C278.578 577.413 278.178 580.615 278.178 583.682C261.245 589.551 262.578 578.614 266.578 566.343C269.245 554.605 277.512 546.602 286.845 539.666C284.178 503.386 278.845 461.104 278.845 424.824C279.378 417.621 280.045 410.552 280.178 403.349C277.245 390.278 273.911 375.205 270.711 362.134C271.645 368.136 273.112 376.806 274.178 382.942L274.312 383.208Z" fill="black"/>
<path d="M248.712 117.643C245.512 118.711 238.979 115.909 238.712 121.512C238.845 124.98 243.645 124.98 244.845 127.514C245.912 130.715 241.779 131.515 239.245 131.782C246.445 134.316 250.045 125.913 242.979 122.845C242.045 122.312 240.979 122.045 241.512 121.111C242.179 120.178 243.379 120.178 244.579 120.311C253.112 122.579 253.245 110.174 244.845 113.509C247.512 112.575 250.979 115.643 248.712 117.777V117.643Z" fill="black"/>
<path d="M180.445 136.851C184.178 136.718 188.178 135.517 190.845 132.85C191.645 134.45 193.245 135.651 195.111 135.517C194.311 132.716 192.712 130.715 190.312 128.981C189.912 130.182 190.045 131.249 190.445 132.316C183.245 134.984 175.778 133.783 168.312 134.45C172.045 136.051 176.178 136.851 180.312 136.718L180.445 136.851Z" fill="black"/>
<path d="M12.8452 361.867C28.5785 398.414 64.1785 420.155 95.2452 442.43C94.3119 444.965 94.4452 448.032 95.7785 450.567C90.0452 454.835 88.9785 464.305 96.9785 466.706C91.9119 472.975 100.979 478.977 106.979 477.91C104.179 474.042 98.1785 472.842 98.5785 467.373C101.779 468.707 105.112 469.64 108.579 469.64C101.112 462.838 90.7119 464.038 96.5785 451.634C100.045 455.769 105.512 456.702 110.579 457.503C103.512 451.9 94.1785 448.299 99.9119 437.762C102.979 441.23 107.512 443.497 112.045 443.898C95.3785 432.827 100.579 429.225 114.179 419.488C106.445 420.822 92.0452 427.358 99.1118 436.962C97.3785 438.295 95.9118 440.163 95.1118 442.43C63.6452 414.02 17.3785 388.41 12.0452 342.393C16.1785 319.451 32.5785 300.378 44.4452 280.771C28.4452 304.112 -1.68812 331.456 12.5785 362.001L12.8452 361.867Z" fill="black"/>
<path d="M44.3118 334.924C41.9118 334.39 39.5118 334.257 37.1118 333.723C60.0451 338.525 64.7118 354.664 78.0451 371.204C89.6451 386.409 101.778 402.149 114.445 416.42C104.312 400.281 92.5784 384.142 81.1118 368.803C72.4451 359.066 65.5118 344.26 53.7785 337.991C62.5785 330.522 69.7785 321.052 74.5785 310.515C65.5118 317.851 58.3118 327.321 53.2452 337.858C50.3118 336.524 47.2451 335.724 44.1785 335.057L44.3118 334.924Z" fill="black"/>
<path d="M290.178 436.295C291.645 430.559 292.445 424.824 291.645 418.955C287.245 425.624 285.912 434.294 288.178 441.897C289.112 440.03 289.778 438.162 290.312 436.295H290.178Z" fill="black"/>
<path d="M170.578 464.572C198.712 464.838 228.045 464.572 256.045 462.704C210.712 459.903 164.578 459.903 119.245 462.704C136.312 463.905 153.378 464.305 170.578 464.572Z" fill="black"/>
<path d="M257.111 469.507C211.111 466.706 164.445 466.706 118.445 469.507C164.445 472.308 211.111 472.308 257.111 469.507Z" fill="black"/>
<path d="M120.045 921.407C118.045 918.473 115.245 915.939 112.045 914.605C112.578 911.937 112.845 909.403 112.445 906.602C109.378 909.536 108.712 914.738 110.845 918.473C111.378 917.273 111.645 916.205 111.912 915.005C122.312 923.141 122.712 937.28 121.645 949.284C81.5117 947.55 41.3784 947.417 1.24503 949.284C6.97836 926.209 36.445 927.276 54.5784 933.412C52.045 931.945 49.245 930.744 46.445 929.811C49.245 928.61 51.7784 927.276 54.445 925.809C57.245 928.343 60.045 930.344 61.245 934.079C63.9117 930.211 59.5117 925.275 55.3783 925.275C56.445 924.742 57.5117 924.075 58.5784 923.542C61.9117 925.809 64.3117 928.61 66.5784 931.945C67.7784 927.676 64.1783 923.008 59.7783 922.741C61.245 921.941 62.7117 921.007 64.1784 920.207C67.5117 922.741 70.845 925.009 72.5784 929.01C74.3117 924.475 69.7783 919.807 65.3783 919.407C66.7117 918.606 68.045 917.939 69.3783 917.273C72.045 919.94 74.3117 923.141 76.3117 926.343C77.645 922.341 74.7117 917.673 70.7117 916.472C73.5117 915.005 76.445 913.671 79.3783 912.604C82.445 926.476 100.978 923.275 110.312 918.206C101.378 921.674 78.9784 923.675 82.845 908.736L82.1784 909.003C82.7117 905.935 82.7117 902.734 81.3783 899.666C79.7783 902.734 79.5117 906.335 80.045 909.67C67.5117 914.071 57.245 922.608 46.1783 929.677C27.245 922.341 -3.42165 930.211 0.311682 955.287C0.311682 955.153 0.311682 954.886 0.311682 954.753C40.5783 956.62 80.9784 956.62 121.245 954.753C121.245 954.753 121.245 954.886 121.245 955.02C121.245 955.02 121.245 954.886 121.245 954.753C124.712 944.082 126.445 931.278 119.778 921.407H120.045ZM115.245 953.419C115.378 953.819 115.645 954.22 115.912 954.62C113.245 954.62 110.445 954.353 107.778 954.22C108.712 953.019 108.712 951.152 107.778 949.951C110.578 949.951 113.512 949.685 116.312 949.551C115.245 950.485 114.845 951.952 115.378 953.286L115.245 953.419ZM97.9117 951.819C97.9117 951.285 97.5117 950.752 97.1116 950.218C100.178 950.218 103.245 950.085 106.312 949.951C105.512 951.285 105.512 952.886 106.312 954.086C103.378 954.086 100.312 953.953 97.3783 953.819C97.645 953.153 97.7784 952.352 97.645 951.685L97.9117 951.819ZM81.1116 952.352C81.1116 952.752 81.3783 953.286 81.645 953.686C77.9117 953.686 74.1783 953.686 70.445 953.686C70.845 952.752 70.7117 951.685 70.1784 950.752C73.9117 950.752 77.5117 950.752 81.245 950.752C80.9784 951.285 80.9783 951.952 81.1116 952.486V952.352ZM55.5117 952.219C55.5117 952.619 55.645 953.152 55.9117 953.553C52.845 953.553 49.7783 953.553 46.845 953.553C47.245 952.619 47.245 951.552 46.7117 950.618C49.7783 950.618 52.7117 950.618 55.7784 950.618C55.5117 951.152 55.5117 951.685 55.5117 952.219ZM36.045 950.752C36.045 950.752 36.045 950.618 35.9117 950.485C38.845 950.485 41.645 950.485 44.5784 950.485C44.1784 951.552 44.3117 952.619 44.845 953.553C41.9117 953.553 38.845 953.553 35.9117 953.553C36.445 952.619 36.445 951.552 36.045 950.485V950.752ZM23.5117 953.553C23.5117 953.686 23.645 953.819 23.7784 953.953C21.3784 953.953 19.1117 953.953 16.7117 954.086C17.5117 952.752 17.5117 951.152 16.7117 949.951C18.9783 949.951 21.245 949.951 23.5117 950.085C22.845 951.152 22.845 952.352 23.5117 953.419V953.553ZM15.1117 953.553C15.1117 953.819 15.3783 953.953 15.5117 954.22C13.5117 954.22 11.5117 954.353 9.51167 954.486L9.24503 949.685C11.3784 949.685 13.3783 949.818 15.5117 949.951C14.7117 951.018 14.5784 952.352 15.1117 953.553ZM1.37833 949.418C4.045 949.418 6.7117 949.685 9.24503 949.818C9.24503 951.419 9.24501 953.019 9.51167 954.62C6.57834 954.62 3.5117 954.886 0.578364 955.02C0.578364 953.152 0.844999 951.285 1.37833 949.551V949.418ZM25.3783 953.953C26.045 952.752 26.045 951.285 25.245 950.218C28.1784 950.218 31.245 950.351 34.1783 950.351C33.645 951.418 33.5117 952.619 34.1783 953.686C31.245 953.686 28.3117 953.686 25.3783 953.819V953.953ZM57.9117 953.553C58.3117 952.619 58.1783 951.552 57.645 950.752C61.1117 950.752 64.5783 950.752 68.045 950.752C67.7783 951.685 67.9117 952.752 68.3117 953.686C64.845 953.686 61.245 953.686 57.7784 953.686L57.9117 953.553ZM83.645 953.686C84.045 952.619 83.9117 951.419 83.245 950.485C87.3784 950.485 91.3784 950.485 95.5117 950.218C94.9784 951.419 95.245 952.752 96.045 953.819C91.9117 953.819 87.7783 953.686 83.645 953.553V953.686ZM116.445 954.62C117.912 953.286 118.045 951.152 116.712 949.685C118.445 949.685 120.045 949.684 121.778 949.418C121.778 951.152 121.512 953.019 121.512 954.886C119.778 954.886 118.178 954.753 116.445 954.62Z" fill="black"/>
<path d="M115.512 834.309C137.512 776.954 154.578 717.732 166.445 657.443C166.178 662.112 127.112 897.265 127.645 901.8C115.378 895.798 104.978 886.461 97.1117 875.391C100.178 877.258 104.045 877.792 107.512 877.125C100.312 872.189 95.9117 863.653 95.7783 854.983C101.778 855.65 107.778 856.184 113.778 856.85C105.512 850.181 100.178 839.777 99.7783 829.24C104.178 832.575 109.778 834.309 115.245 834.309H115.512Z" fill="black"/>
<path d="M179.779 572.212C179.779 573.946 179.245 578.081 178.845 579.815C179.112 577.28 179.512 574.746 179.779 572.212Z" fill="black"/>
<path d="M257.245 901.399C258.712 900.599 260.045 899.799 261.512 898.999C257.112 898.999 252.845 897.932 248.978 895.797C256.178 895.264 262.845 890.062 265.112 883.126C259.245 886.327 252.445 887.394 245.912 886.194C268.978 856.85 267.912 815.501 271.512 779.621C271.912 803.763 273.512 880.859 273.378 903.667C268.045 903.667 262.578 902.6 257.378 901.266L257.245 901.399Z" fill="black"/>
<defs>
<linearGradient id="paint0_linear_2093_8822" x1="139.245" y1="59.222" x2="267.779" y2="59.222" gradientUnits="userSpaceOnUse">
<stop stop-color="#EB6B2C"/>
<stop offset="1" stop-color="#D2681A"/>
</linearGradient>
<linearGradient id="paint1_linear_2093_8822" x1="65.9116" y1="684.653" x2="273.245" y2="684.653" gradientUnits="userSpaceOnUse">
<stop stop-color="#0ABBEF"/>
<stop offset="0.2" stop-color="#0D9ACF"/>
<stop offset="0.8" stop-color="#14598E"/>
<stop offset="1" stop-color="#174075"/>
</linearGradient>
</defs>
</svg>
