<svg width="282" height="188" viewBox="0 0 282 188" fill="none" xmlns="http://www.w3.org/2000/svg">
<path d="M252.534 2.09668H29.0669C23.6176 2.09668 19.2002 6.51576 19.2002 11.967V159.355C19.2002 164.806 23.6176 169.225 29.0669 169.225H252.534C257.983 169.225 262.4 164.806 262.4 159.355V11.967C262.4 6.51576 257.983 2.09668 252.534 2.09668Z" fill="white"/>
<path d="M252.533 169.358C177.733 169.358 102.8 172.026 27.9999 170.559C16.1332 169.492 17.8666 155.62 18.1333 147.217C18.6666 105.868 18.6666 62.7858 18.3999 21.5705C17.8666 13.0341 17.4666 1.29635 29.0666 1.02958C102.267 0.229287 175.6 -0.170837 248.8 0.0959285C265.333 -1.2379 264.933 11.5668 264.267 24.2382C264.133 63.1859 262.933 110.67 262.667 149.885C262.933 157.888 263.6 169.359 252.533 169.625V169.358ZM252.533 168.958C263.067 168.692 262.4 157.354 262 149.618C261.467 105.735 260.533 55.183 260.267 11.5668C261.467 -1.50466 223.867 5.96476 214.267 4.09741C167.067 4.09741 119.733 3.83064 72.5333 3.43049C57.9999 3.43049 43.4666 3.1637 28.9333 3.03032C18.9333 3.03032 19.8666 14.2345 19.9999 21.4372C19.5999 62.6524 19.7333 105.735 20.2666 147.084C20.5333 154.153 18.2666 168.425 29.5999 167.625C103.867 166.291 178.133 168.692 252.4 168.825L252.533 168.958Z" fill="black"/>
<path d="M251.733 16.1021H30V155.22H251.733V16.1021Z" fill="url(#paint0_linear_2095_5826)"/>
<path d="M166.8 13.9677L164.4 18.1026L86.1337 153.353L84.1337 156.821C70.8004 156.821 57.467 156.554 44.1337 156.42L45.6003 153.753L120.8 17.8358L122.934 14.1011C136.667 14.1011 153.2 13.9677 166.8 13.9677Z" fill="white"/>
<path d="M209.201 13.9679L206.801 18.2361L128.534 153.62L126.667 156.821C120.667 156.821 114.801 156.821 108.801 156.821L110.667 153.353L185.601 18.1027L188.001 13.8345C194.801 13.8345 202.667 13.8345 209.334 13.8345L209.201 13.9679Z" fill="white"/>
<path d="M251.734 14.1011C178.667 14.768 101.467 12.1004 28.9337 16.1018C29.6003 60.5183 29.6003 110.803 28.9337 155.22C101.067 159.755 178.534 155.487 252 155.22C250.8 113.871 257.334 52.7821 252 14.1011H251.734ZM250.4 85.0606L251.467 154.953C177.734 153.753 103.6 152.686 29.867 153.886C30.267 153.886 30.667 153.886 31.067 153.886C30.4003 110.27 31.067 17.0355 31.067 17.0355C103.6 17.8358 250.4 17.8358 249.734 17.9692C250 40.2441 250.134 62.519 250.4 85.0606Z" fill="black"/>
<path d="M137.867 9.69947C136.8 5.83138 142.8 4.3642 143.734 8.2323C144.8 12.1004 138.8 13.5676 137.867 9.69947Z" fill="black"/>
<path d="M280.8 168.825C190.534 166.424 90.9337 166.824 0.800408 168.291C-3.06626 176.428 7.86703 187.365 16.667 186.431C30.9337 186.431 45.3337 186.431 59.6004 186.431C128.267 188.432 196.8 186.698 265.467 185.898C274.134 186.298 282.934 177.095 280.934 168.825H280.8Z" fill="black"/>
<defs>
<linearGradient id="paint0_linear_2095_5826" x1="0" y1="93.5904" x2="281.221" y2="93.5904" gradientUnits="userSpaceOnUse">
<stop stop-color="#0ABBEF"/>
<stop offset="0.2" stop-color="#0D9ACF"/>
<stop offset="0.8" stop-color="#14598E"/>
<stop offset="1" stop-color="#174075"/>
</linearGradient>
</defs>
</svg>
