<svg width="343" height="957" viewBox="0 0 343 957" fill="none" xmlns="http://www.w3.org/2000/svg">
<path d="M312.533 495.768C312.667 496.968 313.6 497.635 314.533 498.302C314.8 498.435 315.067 498.702 315.2 498.835C320.933 504.037 328.933 512.04 333.466 521.911L334.4 523.911L332.133 523.111C330.4 522.044 328.667 520.844 327.067 519.51C325.867 518.576 324.8 517.642 323.6 516.709C319.333 513.107 314.933 509.373 309.2 507.639C302.267 505.638 299.466 500.036 296.8 494.567C296.533 493.9 296.267 493.367 295.867 492.7C294.533 495.634 297.066 499.236 299.6 502.97C302.8 507.639 306.533 512.841 302.8 517.376L302.667 517.509C300.533 518.043 299.467 516.709 298.667 515.642C296 512.44 292.933 509.639 290 507.105C283.067 500.97 276.667 495.234 274.533 485.097V484.697L274.8 484.564C278 483.23 281.066 481.229 284.133 479.228C285.6 478.295 287.067 477.361 288.533 476.427C292.267 474.16 296.133 472.292 300.266 471.759H300.4C302.4 472.692 304.666 473.493 306.8 474.293C311.866 476.16 317.067 478.028 320.667 482.163L326.8 487.898L319.867 483.496H319.6C319.2 483.363 318.8 483.23 318.4 482.963C317.867 482.696 317.333 482.296 316.4 482.429C317.867 483.897 319.466 485.23 320.933 486.564C326.666 491.633 332.266 496.435 334.266 504.438L334.933 506.705L332.8 504.037C328.133 498.035 323.6 492.433 316.8 488.565C316.533 490.166 317.333 490.566 318.266 491.099C318.533 491.099 318.666 491.366 318.8 491.499C329.066 499.636 334.933 508.439 336 517.376V518.043H335.466C333.6 517.909 332.933 516.709 332.4 515.775C332.267 515.508 332.133 515.375 332 515.108C331.333 514.174 330.4 512.974 329.333 511.64C324.933 505.771 317.6 495.901 312.4 495.501L312.533 495.768Z" fill="white"/>
<path d="M312.534 495.768C312.667 496.968 313.6 497.635 314.534 498.302C314.8 498.435 315.067 498.702 315.2 498.835C320.934 504.037 328.934 512.04 333.467 521.911L334.4 523.911L332.134 523.111C330.4 522.044 328.667 520.844 327.067 519.51C326.934 519.243 326.8 518.976 326.667 518.709C325.067 516.042 323.2 513.508 321.334 510.84C317.6 505.771 314 500.703 310.267 495.768C307.734 492.3 305.2 488.832 302.134 485.897C298.134 482.029 293.2 479.095 288.4 476.427C292.134 474.16 296 472.292 300.134 471.759H300.267C302.267 472.692 304.534 473.493 306.667 474.293C311.734 476.16 316.934 478.028 320.534 482.163L326.667 487.898L319.734 483.496H319.467C319.067 483.363 318.667 483.23 318.267 482.963C317.734 482.696 317.2 482.296 316.267 482.429C317.734 483.897 319.334 485.23 320.8 486.564C326.534 491.633 332.134 496.435 334.134 504.438L334.8 506.705L332.667 504.037C328 498.035 323.467 492.433 316.667 488.565C316.4 490.166 317.2 490.566 318.134 491.099C318.4 491.099 318.534 491.366 318.667 491.499C328.934 499.636 334.8 508.439 335.867 517.376V518.043H335.334C333.467 517.909 332.8 516.709 332.267 515.775C332.134 515.508 332 515.375 331.867 515.108C331.2 514.174 330.267 512.974 329.2 511.64C324.8 505.771 317.467 495.901 312.267 495.501L312.534 495.768Z" fill="#F4C6CC"/>
<path d="M122.4 486.964C122.4 501.77 62.6665 488.032 52.9331 485.497C47.4665 484.83 46.3998 481.496 46.9331 477.228C47.9998 470.825 52.9331 462.289 53.5998 457.354C62.9331 430.544 70.3997 400.799 76.9331 373.723C83.1997 348.913 71.3331 318.502 67.4664 292.759C64.5331 276.087 61.5998 261.548 67.4664 243.675C71.4664 230.603 71.1997 217.532 70.9331 204.46C70.7997 199.125 70.6664 193.789 70.9331 188.454C74.9331 186.187 79.8665 184.319 83.8665 183.652L84.2664 185.92C82.7997 188.588 82.2664 191.389 82.2664 194.19C82.2664 195.39 82.3998 196.59 82.6665 197.924C83.8664 204.327 87.4664 211.129 90.2664 217.798C90.2664 217.798 90.2664 217.798 90.2664 217.932C91.333 220.333 92.1331 222.733 92.7998 225.001C93.4664 227.402 93.7331 229.936 93.5997 232.204C93.333 235.672 91.9997 238.873 88.9331 241.807C79.8664 251.144 89.9997 274.753 100.933 301.429C112.533 329.84 125.066 361.718 121.466 382.926C121.466 389.862 121.733 396.798 122 403.734C122.8 431.477 123.733 458.954 122.533 486.831L122.4 486.964Z" fill="#E8E1DD"/>
<path d="M296.799 469.492C295.199 470.292 293.599 471.092 292.133 471.893C285.199 475.761 278.666 480.696 271.066 482.563C265.466 467.891 251.999 446.283 243.999 420.674C229.599 375.057 220.266 321.971 218.933 310.9C217.599 273.953 227.199 236.339 223.866 199.392C223.733 197.658 223.599 195.924 223.333 194.19C242.533 188.855 244.266 212.597 247.466 225.668C253.066 252.878 259.199 289.559 262.533 321.17C263.733 347.98 281.333 373.19 285.599 398.399C291.066 419.207 296.266 439.881 301.866 460.689C303.333 464.823 300.266 467.758 296.933 469.358L296.799 469.492Z" fill="#E8E1DD"/>
<path d="M239.333 473.626C239.333 482.696 227.2 482.296 221.066 485.764C211.2 488.165 188.133 502.57 184.666 486.297C177.066 437.213 172 404.667 174.266 373.322C174.533 369.454 174.933 365.586 175.466 361.585C179.066 333.708 189.6 305.431 204.133 263.682C205.733 255.546 203.733 249.143 198.133 244.608C194.133 241.407 193.333 237.806 195.466 232.604C200.266 219.265 206.133 207.528 208.133 193.256C208.266 192.189 208.4 191.122 208.533 190.055C213.466 191.389 220.933 192.856 222 198.858C222 198.991 222 199.125 222 199.258C223.6 212.73 221.2 226.201 220.533 239.54C219.2 273.952 214.4 308.899 212.133 343.045C214.666 367.32 223.866 391.062 228.133 415.205C232 433.478 238.133 452.818 239.066 471.759C239.066 472.426 239.066 472.959 239.066 473.626H239.333Z" fill="#E8E1DD"/>
<path d="M70.2664 188.988C69.9998 194.457 69.7332 199.926 69.3332 205.394C68.9332 213.397 68.3998 221.267 67.7332 229.27C62.7998 249.277 57.3331 268.751 64.7998 289.559C67.4665 297.428 52.5332 317.036 50.2665 324.372C48.2665 327.573 51.1999 362.786 58.9332 382.26C51.5999 383.46 45.8665 387.195 41.4665 393.197C38.7998 396.798 36.6665 401.2 35.0665 406.402C28.1332 395.865 22.7998 385.728 18.3998 374.657C15.7332 367.988 13.7332 361.185 10.9332 353.449C2.39986 330.907 15.5998 307.299 21.3332 285.557C30.2665 266.217 41.8665 178.184 70.2664 189.122V188.988Z" fill="#E8E1DD"/>
<path d="M175.734 349.847C182 327.439 188.534 304.497 195.734 282.756C198.8 271.952 207.067 256.746 197.2 247.543C189.067 242.474 191.467 234.605 194.8 227.269C215.467 182.986 208.8 179.651 167.2 154.842L168.8 159.243C190.4 189.788 175.333 228.869 175.333 263.282C173.333 289.558 172.933 317.035 173.467 346.913C173.067 347.846 173.734 349.714 175.734 349.847Z" fill="#E8E1DD"/>
<path d="M109.466 213.397C115.733 258.213 121.067 302.763 120.4 347.046C118.667 346.913 117.866 345.579 117.866 344.378C109.733 313.567 94.5331 287.157 86.5331 256.479C85.0665 250.077 88.6664 246.075 91.9998 241.941C95.4664 237.672 98.6665 233.271 95.7332 226.201C93.7332 218.999 91.0665 211.396 87.0665 202.192C77.5998 182.052 110.4 169.247 121.733 156.709C123.067 161.644 120 165.646 117.6 169.78C116.8 171.114 116.133 172.448 115.6 173.915C109.733 185.786 107.733 198.591 109.466 213.397Z" fill="#E8E1DD"/>
<path d="M239.333 473.626C239.333 482.696 227.2 482.296 221.066 485.764C211.2 488.165 188.133 502.57 184.666 486.297C177.066 437.213 172 404.667 174.266 373.322C174.933 382.792 176.666 392.129 178.533 401.466C180.266 410.269 182 418.939 183.733 427.742C185.066 434.411 186.4 441.081 187.733 447.75C189.333 455.619 191.066 463.889 196.133 470.158C197.466 471.759 198.933 473.092 200.666 474.026C203.6 475.493 206.933 475.76 210.266 475.76C220.133 475.894 230.4 475.493 239.466 471.759C239.466 472.426 239.466 472.959 239.466 473.626H239.333Z" fill="white"/>
<path d="M122.4 486.964C122.4 501.769 62.6665 488.031 52.9331 485.497C47.4665 484.83 46.3998 481.495 46.9331 477.227C55.7331 478.694 64.5331 480.695 73.4664 480.695C82.3997 480.695 93.0664 478.161 99.5997 471.225C103.866 466.823 106.4 461.088 108.8 455.486C112.8 445.882 116.933 436.279 118.8 426.142C119.333 423.607 119.6 420.94 120 418.405C120.666 413.604 121.333 408.802 121.866 404C122.666 431.744 123.6 459.22 122.4 487.097V486.964Z" fill="white"/>
<path d="M172.134 83.2147C166.267 73.7446 157.067 68.0091 148.667 61.34C146.134 66.6753 139.2 56.0047 130.267 62.5404C129.733 62.9406 129.067 62.9406 128.267 62.1403C133.2 56.0047 139.467 58.0054 145.734 59.4726C136.267 50.2692 126.534 41.7327 124.4 27.7275C122.134 29.5949 119.733 31.729 117.6 34.1299C109.333 42.533 102.134 52.6701 100.534 58.4055C109.334 57.7386 110.267 58.0054 111.867 62.0069C78.4003 54.1373 97.8669 121.362 112 132.966C117.067 138.035 123.067 140.036 129.467 140.302C140.134 140.703 151.734 135.767 160.4 130.432C160.4 129.098 161.867 130.432 160.667 130.832C155.067 139.636 146.934 146.571 137.467 151.106C133.6 152.974 129.467 154.441 125.334 155.508C123.734 168.179 115.6 178.45 113.067 190.588C112.4 193.656 112.134 196.99 112.4 200.458C134.4 207.394 155.867 205.793 176.933 196.99C178.4 166.846 165.467 185.653 165.067 151.373C163.334 150.173 160.933 150.84 160.267 148.439C161.333 146.972 163.6 148.172 164.267 146.038C163.6 139.902 164.534 133.633 166.534 127.498C168.134 131.766 166.534 136.168 167.467 141.37C172.934 129.899 171.2 118.828 172.534 106.823C204.267 120.295 200.934 67.2088 172 83.4815L172.134 83.2147ZM102.4 77.6126C101.867 74.1447 104.267 68.1425 107.467 72.144C111.2 77.3459 103.6 88.2832 102.4 77.6126ZM113.467 94.1521C116.934 87.483 116.8 80.1469 117.734 72.9442C118 70.9435 118.4 68.8094 119.067 66.8087C121.2 72.2773 120 83.3481 116.267 94.819C116.133 95.3525 115.867 96.0195 115.734 96.553C115.734 96.553 116 96.8197 116.134 96.9531C118 98.6871 120.534 97.8868 121.867 99.7542C121.6 100.021 121.2 100.288 120.667 100.421C117.067 101.755 110.934 98.4203 113.467 94.1521ZM137.6 80.0135C134.133 74.0113 142.133 64.4078 142.933 75.7453C143.2 78.9465 140.667 84.015 137.6 80.0135ZM184 95.2192C184.267 97.2199 184.8 99.7542 182.134 100.955C180.534 101.622 179.067 102.288 177.334 100.688C182.4 98.8205 183.334 97.7534 178.667 94.1521C172.534 87.8831 183.734 86.2825 188.534 86.5493C186.134 90.284 182.267 89.0836 179.6 91.0843C181.467 93.2184 184.134 91.7512 186.134 92.8183C188 93.8853 190.134 94.6856 190.667 97.3533C187.734 98.4203 186.667 94.6856 183.867 95.3525L184 95.2192Z" fill="white"/>
<path d="M129.6 140.17C123.2 139.903 117.067 137.902 112.133 132.834C97.8667 121.229 78.5334 54.1379 112 61.8741C110.4 57.8726 109.333 57.6058 100.667 58.2727C102.267 52.5373 109.467 42.4002 117.733 33.9971C118 46.9352 118.267 60.0067 117.867 72.9448C117.6 80.2808 117.2 87.4835 116.4 94.8196C116.4 95.4865 116.267 96.2868 116.133 96.9537C116.133 97.8874 115.867 98.6876 115.867 99.6213C117.467 99.8881 119.2 100.155 120.8 100.422C121.6 102.956 120.8 105.757 120.8 108.425C120.8 111.092 121.733 114.293 124.267 115.094C125.2 115.36 126.267 115.36 126.8 116.161C127.2 116.694 127.2 117.361 127.2 118.028C127.2 123.764 126.133 129.499 127.467 135.101C127.867 136.835 128.667 138.702 129.733 140.303L129.6 140.17Z" fill="#F4C6CC"/>
<path d="M137.733 150.974C135.2 159.644 130.266 167.513 125.066 174.983C121.333 180.184 117.2 185.253 113.333 190.455C115.866 178.184 124 168.047 125.6 155.375C129.866 154.308 133.866 152.841 137.733 150.974Z" fill="#F4C6CC"/>
<path d="M222.134 198.858C218.267 197.391 214.4 196.057 210.534 194.59C209.734 194.323 209.067 194.056 208.4 193.522C208.534 192.455 208.667 191.388 208.8 190.321C213.734 191.655 221.2 193.122 222.267 199.125L222.134 198.858Z" fill="white"/>
<path d="M301.867 460.821C303.334 464.956 300.267 467.891 296.933 469.491C295.333 470.292 293.733 471.092 292.267 471.892C294.933 465.09 293.734 456.286 291.867 448.684C283.867 414.671 273.2 381.325 260 349.047C257.333 342.644 254.667 336.109 253.067 329.44C251.6 323.304 250.934 316.902 250.4 310.633L242.4 223.8C241.734 216.998 240.8 209.529 235.734 205.127C233.334 202.993 230.134 201.792 227.067 200.725C226 200.325 225.067 199.925 224 199.525C223.867 197.791 223.733 196.057 223.467 194.323C242.667 188.988 244.4 212.73 247.6 225.801C253.2 253.011 259.333 289.692 262.667 321.303C263.867 348.113 281.467 373.322 285.734 398.532C291.2 419.339 296.4 440.014 302 460.821H301.867Z" fill="white"/>
<path d="M117.6 169.781C113.2 172.715 108.933 175.916 105.067 179.651C101.733 182.719 98.5331 186.32 97.1998 190.722C96.1331 194.59 96.533 198.858 97.5997 202.726C98.533 206.728 99.9998 210.463 100.666 214.464C102.266 224.468 98.9331 235.272 91.8665 242.608C91.8665 242.474 91.8664 242.208 91.9998 242.074C95.4664 237.806 98.6665 233.404 95.7332 226.335C93.7332 219.132 91.0665 211.53 87.0665 202.326C77.5998 182.185 110.4 169.381 121.733 156.843C123.067 161.778 120 165.779 117.6 169.914V169.781Z" fill="white"/>
<path d="M70.2664 188.988C69.9998 194.456 69.7332 199.925 69.3332 205.394C67.4665 206.728 65.5998 208.062 63.9998 209.662C56.5332 216.598 51.9998 226.202 47.7332 235.405C43.9998 243.408 40.2665 251.544 37.5999 260.081C35.1999 267.55 33.7332 275.286 32.2665 283.023C28.7999 301.163 25.3331 319.436 25.4665 337.843C25.5998 356.25 29.5999 375.19 39.8665 390.529C40.3999 391.329 41.0665 392.263 41.4665 393.063C38.7998 396.665 36.6665 401.066 35.0665 406.268C28.1332 395.731 22.7998 385.594 18.3998 374.523C15.7332 367.854 13.7332 361.051 10.9332 353.315C2.39986 330.774 15.5998 307.165 21.3332 285.423C30.2665 266.083 41.8665 178.05 70.2664 188.988Z" fill="white"/>
<path d="M82.5338 197.791C78.6672 199.925 74.6671 201.926 70.8004 204.46C70.6671 199.125 70.5338 193.789 70.8004 188.454C74.8004 186.187 79.7339 184.319 83.7339 183.652L84.1338 185.92C82.0004 189.655 81.7338 193.789 82.5338 197.924V197.791Z" fill="white"/>
<path d="M240.666 627.95C236 585.935 231.866 528.447 229.6 485.631C227.333 486.164 225.2 486.698 223.2 487.365C216.133 489.632 209.6 492.834 202.266 494.568C186.4 499.103 183.333 490.966 182.4 476.961C177.466 443.082 175.733 409.736 174 374.657C174 373.323 174 367.187 173.333 362.786C172.933 360.251 172.4 358.251 171.466 358.117C170.133 357.984 126 360.651 123.066 360.785C123.066 360.785 123.066 360.785 122.933 360.785C120.666 361.452 123.333 375.323 123.6 377.324C124.666 413.738 125.733 447.884 124 484.697C123.866 488.032 123.6 492.033 120.666 493.234C104.266 496.835 89.9997 493.234 70.3997 490.299C68.6664 490.033 66.933 489.766 65.0663 489.499C63.333 488.966 61.1997 488.432 59.333 490.299C62.6663 542.185 70.533 590.47 76.133 641.422C80.3996 686.105 76.9329 730.522 74.2663 775.205C71.4663 787.476 83.9996 795.479 94.133 792.678C97.1996 791.877 99.9996 790.01 102.133 787.076C88.3996 779.473 114.666 775.738 120.133 774.938C122.133 774.671 119.2 781.874 118.8 782.407C116 786.676 105.6 789.21 106.933 795.212C113.2 800.547 122.666 800.414 132.933 798.013H133.2C147.466 794.545 163.333 786.942 174.266 783.608C175.333 783.341 176.266 783.074 177.066 782.807C175.733 786.542 173.6 792.411 172 796.412C181.733 799.48 200.133 795.345 210.8 790.81C211.333 790.544 211.866 790.41 212.266 790.143C213.333 789.743 214.4 789.477 215.466 789.343C219.2 788.943 221.6 790.544 217.6 795.212C215.466 808.417 244.533 798.413 250.533 795.479C260 789.21 277.466 784.942 279.333 773.071C278 753.463 242.933 663.697 240.533 627.817L240.666 627.95Z" fill="#D390D3"/>
<path d="M173.067 362.918C172.4 362.918 171.733 363.052 171.067 363.185C154.667 364.786 138.267 365.719 121.733 365.986C121.733 364.252 122 362.652 122.533 360.918C122.533 360.918 122.533 360.918 122.667 360.918C125.6 360.784 169.733 358.117 171.067 358.25C172 358.25 172.533 360.384 172.933 362.918H173.067Z" fill="white"/>
<path d="M202.266 494.701C206.533 538.317 208 582.2 212.4 625.816C215.2 652.893 219.066 679.836 225.466 706.246C223.333 697.309 219.6 688.639 217.066 679.836C214.533 671.033 211.866 661.029 209.6 651.559C203.866 627.15 201.6 602.207 200.8 577.131C199.866 551.655 198.4 526.846 194.533 501.637C190.666 476.427 193.6 495.901 193.2 493.1" fill="white"/>
<path d="M93.8665 792.811C83.7331 795.612 71.1998 787.609 73.9998 775.338C76.6664 730.654 80.1331 686.238 75.8665 641.555C70.2665 590.603 62.5331 542.318 59.0664 490.432C60.9331 488.565 63.0664 489.098 64.7997 489.632C66.6664 489.899 68.3997 490.165 70.1331 490.432C68.9331 581.933 90.1331 673.433 81.9998 764.667C81.5998 768.935 81.1997 773.47 82.2664 777.605C83.8664 784.007 88.5331 788.943 93.8665 792.811Z" fill="white"/>
<path d="M279.467 773.203C277.467 785.074 260 789.343 250.667 795.612C244.8 798.679 215.6 808.55 217.733 795.345C225.6 795.345 233.467 794.811 241.067 792.677C252.267 789.476 262.8 782.14 267.067 771.336C228.667 682.77 221.467 584.067 223.2 487.498C225.333 486.831 227.466 486.164 229.6 485.764C231.866 528.579 236 586.067 240.667 628.083C243.067 664.096 278.267 753.729 279.467 773.337V773.203Z" fill="white"/>
<path d="M176.8 781.073L174.267 783.741C163.334 787.076 147.467 794.678 133.2 798.013H132.934C134 797.613 166.4 784.808 167.867 773.871C169.467 762.8 167.334 701.311 167.334 701.311L176.934 781.073H176.8Z" fill="white"/>
<path d="M202.267 728.12L220.133 787.876C220.133 787.876 208.267 791.744 206.8 792.144C205.333 792.544 202.267 728.12 202.267 728.12Z" fill="white"/>
<path d="M120 774.938C120 774.938 114.134 773.604 111.867 774.671C109.601 775.871 99.8672 696.108 99.8672 696.108L120 774.804V774.938Z" fill="white"/>
<path d="M133.2 893.781C131.466 893.781 129.733 893.781 128.133 893.915C91.0663 895.515 99.7329 906.186 72.2662 910.854C64.5329 910.721 30.3996 918.057 16.933 913.922C13.0663 912.721 10.7996 910.587 11.4663 906.986C11.9996 898.85 16.2663 894.982 25.1997 894.848C25.4663 895.782 25.733 896.582 25.9996 897.249C30.933 909.52 45.7329 896.449 54.1329 892.047C56.1329 895.915 58.1329 900.45 63.7329 898.583C68.1329 897.116 72.533 895.382 72.6663 889.646C92.6663 885.511 109.333 875.908 126.933 866.304C128.933 865.237 130.933 864.037 132.933 862.97C138.266 873.24 135.2 883.377 133.2 893.648V893.781Z" fill="#CEAE9F"/>
<path d="M133.2 893.782C131.467 893.782 129.734 893.782 128.134 893.915C128.4 892.581 128.667 891.381 128.934 890.047C129.334 888.179 129.734 886.312 130 884.445C130.534 879.51 129.467 874.574 128.134 869.773C127.867 868.706 127.467 867.505 126.934 866.438C128.934 865.371 130.934 864.171 132.934 863.104C138.267 873.374 135.2 883.511 133.2 893.782Z" fill="white"/>
<path d="M272.667 933.663C272.667 938.331 271.2 942.333 267.2 945.134C250 954.47 243.6 942.599 238.8 928.461C236 920.324 233.867 911.388 230.533 905.519C231.6 904.185 232.8 903.518 234.133 903.118C236.533 909.52 238.8 915.923 241.067 922.325C242.667 926.86 243.467 927.394 248 926.727C275.6 920.191 265.2 916.056 262.133 894.315C266.8 892.981 267.333 905.119 268.533 908.187C268.933 915.256 272.8 925.526 272.533 933.796L272.667 933.663Z" fill="#CEAE9F"/>
<path d="M265.067 889.38C265.067 889.78 265.067 890.047 265.067 890.447C264.667 890.447 264.4 890.447 264 890.447C251.2 889.38 239.333 894.715 229.733 902.851C225.733 898.85 224.267 893.515 227.6 890.047C228.533 889.113 229.733 888.179 231.467 887.512C240.933 882.844 266.133 870.706 265.2 889.513L265.067 889.38Z" fill="#CEAE9F"/>
<path d="M265.066 889.379C264.666 889.779 264.266 890.046 263.866 890.313C251.066 889.246 239.199 894.581 229.599 902.718C225.599 898.716 224.133 893.381 227.466 889.913C227.999 891.113 228.533 892.18 229.2 893.247C229.466 893.781 230 894.314 230.533 894.448C231.066 894.448 231.466 894.181 231.866 894.048C241.6 888.179 253.733 888.712 265.066 889.513V889.379Z" fill="white"/>
<path d="M272.667 933.663C272.667 938.331 271.2 942.333 267.2 945.134C250 954.471 243.6 942.599 238.8 928.461C240 930.595 241.2 932.596 242.533 934.597C243.867 936.597 245.2 938.465 247.067 939.932C252 943.667 259.2 942.866 264.667 939.932C267.6 938.331 270.266 936.064 272.8 933.796L272.667 933.663Z" fill="white"/>
<path d="M90.7996 908.186C84.3996 918.59 70.933 917.923 61.1997 920.458C53.0664 920.058 13.4663 927.794 13.333 915.923C39.0663 918.59 65.1996 914.455 90.133 907.52C90.2663 907.786 90.533 907.92 90.6663 908.186H90.7996Z" fill="#CEAE9F"/>
<path d="M177.6 218.865C172.133 275.153 171.066 315.434 172.133 357.85C155.866 358.917 139.733 361.318 123.333 360.518C120.266 337.976 122.8 314.501 120.266 290.892C118.666 259.68 111.466 231.537 111.066 200.725C132 208.862 154.266 207.795 177.6 198.058C177.6 204.994 178.133 211.796 177.6 218.732V218.865Z" fill="white"/>
<path d="M177.734 199.258C163.467 211.13 144.667 215.798 126.534 220.066C130.934 262.348 135.2 306.231 122.267 347.447C123.867 298.629 114 249.277 111.2 200.859C132.134 208.995 154.4 207.928 177.734 198.191V199.258Z" fill="#E8E1DD"/>
<path d="M211.466 95.8867C205.733 60.0068 191.2 5.58667 146.666 5.18652C136.4 5.45329 130.933 6.78712 127.2 18.1246C128 16.2573 128.8 13.1895 125.6 13.4563C129.2 14.1232 131.333 11.3221 132 7.7208C80.2664 -5.08394 82.3997 58.673 77.9997 92.4188C76.5331 109.759 69.8664 135.368 86.6664 148.573C91.3331 146.706 86.6664 139.503 89.1998 135.902C90.5331 143.238 95.9997 152.441 106.266 150.707C106.8 147.639 103.866 144.705 104.666 141.637C109.466 148.84 130.266 152.708 124.4 140.97C101.2 134.968 95.9998 104.957 93.0665 86.9501C88.9331 62.4077 107.866 38.6656 125.866 23.8601C125.466 41.7334 141.2 53.471 154.266 64.0083C158 65.2087 170.533 81.8815 171.866 74.8123C172.8 76.6796 171.866 80.4143 174.133 80.9479C176.133 80.9479 178 80.1476 178.8 78.4136C202.4 79.7474 202.533 108.958 181.2 111.759C179.066 112.693 173.6 108.558 172.933 112.026C174.666 124.431 173.333 135.368 168.666 145.505C167.6 150.307 170.533 150.307 173.466 147.639C170 153.241 181.466 149.773 183.466 147.773C179.466 154.175 191.866 149.64 193.466 147.372C192.266 148.173 192.4 150.307 194.133 150.173C217.6 145.105 213.333 113.76 211.466 96.0201V95.8867Z" fill="#564C47"/>
<path d="M229.333 486.964C237.067 583.4 246 679.035 282.133 769.869C286.8 781.607 253.867 796.279 244.933 800.814C249.2 824.289 249.333 848.431 259.467 870.439C260.4 878.442 268.8 879.243 267.333 887.246C266.933 901.518 286 942.199 268 948.868C237.2 963.941 236.133 923.659 227.467 904.585C224.133 900.184 222.133 895.515 223.867 889.647C222.933 857.101 215.867 825.489 206.933 794.278C200.667 797.479 164 807.349 170.533 792.277C171.6 789.743 175.733 788.409 174.133 785.208C162.133 788.409 151.333 795.612 138.933 798.013C136.267 809.884 134.267 821.355 130 832.692C120.8 864.037 144.133 854.7 137.867 884.845C133.733 894.315 140.4 912.988 126.133 913.789C119.733 914.589 113.2 915.389 106.8 915.123C98.3999 915.656 100.933 907.253 100.533 901.651C96.9333 902.985 94 904.852 92.6666 908.32C88.1333 925.927 36.6666 922.992 20.3999 924.593C8.79995 925.66 7.86666 912.588 8.53333 903.785C10 896.716 15.3333 891.914 22.6666 892.181C32.4 891.514 40.7999 885.512 50.1333 882.577C48.2666 872.84 62 870.84 66.6666 878.042C94.1333 858.435 98.9333 822.422 100.133 791.61C90.1333 797.212 69.8667 794.811 71.2 779.873C71.8667 745.727 75.8667 711.581 75.7334 677.435C73.2 614.745 57.8666 552.855 58.6666 490.032C50.9333 487.898 39.4666 486.431 43.7333 475.627C46.6666 465.623 50.1333 455.753 53.0666 445.749C33.0666 439.747 45.4667 424.541 38.5333 411.07C25.7333 408.135 11.4666 363.585 6.39995 350.514C-1.06672 323.971 16.8 297.961 22 272.218C31.7333 249.677 36.7999 187.12 65.7333 185.253C72.1333 185.653 77.5999 180.985 84.1333 181.518C85.9999 181.518 87.3333 180.851 88.6666 179.517C98.9333 170.447 109.333 160.977 121.733 155.108C122.8 153.908 122.267 152.441 122.8 150.707C118.133 150.573 113.733 150.84 110 148.973C108.4 150.573 110.8 151.374 109.733 153.108C102.8 154.575 96.6666 152.574 91.5999 147.506C89.3332 149.239 92 150.573 91.3333 152.307C89.7333 154.041 88 153.108 86.4 152.174C68.1334 139.236 74.3999 112.292 76.1333 93.2188C79.7333 73.3448 78.9333 52.6704 85.2 33.33C92.4 10.5215 114.4 2.51857 136.533 5.98652C155.467 2.2518 171.6 7.45373 184.4 21.8591C206.8 50.5363 217.2 100.155 211.6 135.768C209.733 144.304 202.4 152.841 192.933 150.573C184.8 150.84 176.4 151.507 168.267 150.573C164.533 157.776 203.333 167.913 208.933 187.12C213.2 188.454 217.467 189.521 221.067 192.322C222.267 193.256 223.333 192.856 224.533 192.589C235.467 190.321 240.667 193.122 244.8 203.526C253.733 233.804 256.933 265.549 262.4 296.627C265.867 313.834 264.133 332.374 271.467 348.647C278.667 363.319 283.333 378.924 287.467 394.664C293.2 416.538 298.667 438.413 304.667 460.288C305.867 464.556 304.4 467.49 301.733 470.425C312.8 476.16 331.867 481.896 333.333 496.435C334.8 501.77 340.533 506.305 337.733 512.707C337.733 516.442 339.2 518.309 336 521.377C342 541.518 313.867 509.373 307.067 510.04C306.8 532.581 294.8 515.375 286.267 508.839C279.6 503.904 274.933 497.502 272.133 489.632C271.6 488.031 271.067 486.431 269.333 485.364C254.267 447.75 232.4 409.069 228.4 368.521C228.933 366.52 228.8 364.519 227.733 362.518C220.667 350.914 220.133 337.176 217.067 324.771C216.533 335.308 213.733 345.579 217.067 356.383C226.8 391.062 233.867 426.409 241.467 461.622C244 475.894 243.733 482.163 228.933 487.365L229.333 486.964ZM147.733 60.54C147.333 60.2733 146.933 59.473 146.267 60.1399C145.467 61.2069 147.333 61.6071 147.867 62.4074C147.333 64.5415 145.6 62.6741 144.267 62.4074C134.933 57.4722 132.267 63.8746 128.267 62.4074C133.2 56.2718 139.467 58.2725 145.733 59.7397C136.267 50.5363 126.533 41.9998 124.4 28.128C113.733 36.9313 102.4 51.47 100.533 58.6727C109.333 58.0058 110.267 58.2725 111.867 62.274C78.4 54.5378 97.7333 121.496 112 133.234C125.467 146.572 146.533 139.236 160.533 130.699C160.533 130.833 160.8 130.966 160.933 131.099C153.067 143.504 140 152.041 125.6 155.642C123.6 171.648 111.333 183.652 112.667 200.592C134.667 207.528 156.133 205.927 177.2 197.124C178.667 166.846 165.733 185.92 165.333 151.507C163.6 150.307 161.2 150.973 160.533 148.573C161.6 147.105 163.867 148.306 164.533 146.172C163.867 140.036 164.8 133.767 166.8 127.631C168.4 131.9 166.8 136.301 167.733 141.637C173.2 130.166 171.467 119.095 172.8 107.091C204.533 120.429 201.2 67.4759 172.267 83.7486C166.133 73.8783 156.4 68.1428 147.867 61.0736L147.733 60.54ZM322 484.697C322.667 486.964 323.733 483.63 322 484.697C318.133 477.761 307.467 475.894 300.267 472.426C291.2 473.493 283.333 481.362 274.933 485.097C277.867 499.502 290.4 505.238 299.067 515.375C299.867 516.442 300.8 517.776 302.667 517.242C309.333 508.972 291.067 498.835 296.133 491.766C299.467 498.168 301.733 504.971 309.467 507.238C318.8 509.906 324.533 517.909 332.4 522.711C335.067 525.512 331.2 517.642 330.4 517.109C326 510.44 320.933 504.437 314.933 499.236C313.733 498.168 312 497.368 312.133 495.234C321.067 495.234 328.933 513.374 335.733 517.776C334.4 507.238 326.8 498.702 318.667 492.3C317.6 491.499 315.6 490.966 316.533 488.165C324.133 492.166 328.8 498.302 333.867 504.838C331.2 494.567 322.8 489.499 315.467 482.429C319.067 481.496 319.467 484.163 322.133 484.697H322ZM13.3333 916.99C11.2 926.86 84.6667 919.791 87.8667 910.588C88.8 909.921 38.1333 919.124 13.3333 916.99ZM170.667 158.043C170.133 157.376 169.6 156.576 168.533 157.109C168.133 158.309 168.533 158.976 169.733 159.243C191.067 189.521 176.133 229.136 176.133 263.282C175.067 291.425 171.733 321.97 175.333 348.913C182.8 319.836 192.933 291.559 200.933 262.748C205.467 249.276 187.333 246.209 191.467 234.471C207.867 188.454 216.267 185.786 170.667 157.909V158.043ZM82.2666 184.853C78.5332 185.52 75.0666 186.853 71.4666 188.854C70.9333 207.261 73.7333 226.068 68 243.941C65.4666 252.611 63.8666 261.548 64.9333 270.618C67.3333 293.56 73.1999 315.968 77.4666 338.643C84.1333 365.986 72.1333 392.529 66.1333 418.939C65.5999 428.81 41.4666 483.63 49.4666 483.763C59.0666 487.231 121.333 500.97 121.733 487.098C120.933 437.88 126.4 386.794 113.467 338.91C107.2 319.702 99.6 300.896 91.8667 282.222C87.8667 269.684 76.6667 252.744 88.4 241.54C103.6 225.534 73.7333 204.06 83.2 186.053C84.1333 185.119 83.1999 184.186 82.2666 184.986V184.853ZM201.333 496.168C192.533 498.035 183.333 498.702 181.467 485.63C174.8 448.15 175.2 409.069 170.8 371.855C168.933 372.255 166.933 372.655 164.667 373.056C167.156 377.235 168.133 380.303 167.6 382.259C164.667 379.858 164 376.257 161.867 373.589C160.4 373.056 159.067 373.322 157.467 373.989C157.733 380.392 157.467 386.927 154.8 392.93C152.8 386.527 155.333 380.392 155.2 373.722C151.333 373.722 147.733 373.989 144.133 374.523C143.067 381.459 144.133 388.928 138.267 394.397C132.933 390.262 135.467 384.393 134.933 378.524C132.133 380.925 131.867 384.526 128.4 386.26C129.2 381.459 132.133 378.391 133.867 374.523C130.4 374.256 127.467 373.589 124.4 373.856C120.8 394.93 134.267 485.23 120.133 494.567C100.4 499.902 79.2 491.233 59.7333 491.099C63.2 559.791 79.8666 627.55 78.7999 696.375C77.5999 725.186 75.0667 753.863 74.5333 782.674C76.4 793.077 93.3333 794.945 100.667 788.276C90.4 790.01 95.0666 748.528 92.1333 739.858C89.7333 719.717 87.8667 699.576 86.4 679.435H87.5999C92.1332 712.781 96.4 746.394 97.3333 780.54C104.4 777.205 109.867 773.737 117.6 774.537C108.667 728.787 91.4667 684.104 87.8667 637.553C94.6667 673.167 103.6 708.646 113.467 743.726C114.8 754.663 126.933 777.072 117.333 785.075C113.867 788.276 108.533 789.876 107.067 794.678C126.4 807.883 155.467 785.475 175.733 782.007C170.933 752.929 168 724.252 166.133 695.041C170.267 713.982 172.267 733.322 174.4 752.529C175.067 767.201 182.4 783.341 172.4 795.745C188.4 801.08 203.333 790.81 218.267 786.542C212 764.4 205.867 742.259 199.6 720.117C208.8 741.192 215.2 765.201 220.533 788.009C221.067 790.81 220.533 792.944 219.2 795.078C218.4 796.145 217.067 797.079 217.733 798.813C240.133 805.215 264.133 789.343 279.333 774.137C243.2 682.37 230 585.534 227.333 487.498C218.8 489.499 211.333 493.633 202.8 495.768C215.467 586.201 205.467 682.103 250.267 765.201C199.067 686.105 213.067 585.801 200.933 496.301L201.333 496.168ZM271.6 482.029C280.533 479.228 288 473.093 296.533 468.958C299.733 467.224 302.533 465.223 301.2 460.955C290.133 422.674 284 382.526 266.667 346.379C256.667 323.304 256 182.452 224.267 194.856C228.133 210.462 223.333 226.601 223.6 242.474C222.8 263.282 220.667 284.089 219.067 304.897C226 366.386 245.867 425.075 271.6 482.029ZM209.2 190.988C207.6 205.927 201.067 219.132 196.133 233.004C194.267 237.539 194.4 240.873 198.533 244.208C208.533 251.944 205.333 264.615 201.733 274.886C192.8 303.296 183.067 331.574 176.267 360.651C173.2 390.262 178.933 420.673 180.533 450.418C181.733 462.422 183.2 474.293 185.333 486.164C186 493.233 192.667 493.9 198.533 492.433C210.933 489.365 222.8 484.163 234.8 479.895C241.467 476.961 238.267 467.891 238 462.155C230.267 425.075 222.533 387.861 212.267 351.448C210.8 342.244 213.067 332.774 213.333 323.571C215.867 295.56 219.067 267.55 220.267 239.406C220.8 226.068 223.333 212.596 221.733 199.125C220.8 193.256 214.4 192.189 209.467 190.721L209.2 190.988ZM176.4 200.192C155.6 208.461 134.267 210.595 112.533 202.726C117.2 254.745 124.533 306.898 124.267 359.317C139.867 359.984 155.2 357.717 170.933 356.65C168.133 304.23 175.2 252.344 176.4 200.192ZM34.7999 404.801C38.7999 393.196 45.2 384.26 58 381.592C47.8666 357.45 54.2666 324.771 31.6 311.566C36.6666 307.698 45.0666 317.702 47.4666 321.436C47.9999 315.701 41.4666 311.7 42.1333 305.831C45.8666 307.298 46.7999 308.765 50.7999 320.236C55.7333 313.3 57.8666 304.764 63.0666 297.828C64.9333 295.027 65.0666 292.626 64.1333 289.558C56.7999 269.284 62.1333 249.01 67.0666 229.002C68.1333 215.797 68.6666 202.593 69.4666 189.254C40.9333 181.385 31.4667 265.549 21.8667 285.423C1.33333 340.243 6.79993 353.582 34.7999 404.667V404.801ZM195.6 147.372C226.133 142.304 202.933 61.4737 193.867 42.6667C184.4 19.3248 161.867 2.91873 136.133 8.78756C129.867 10.1214 126.4 23.0595 128.133 29.0617C134 50.8031 156.4 60.1399 170.8 75.3455C169.867 66.5422 165.2 59.3396 162.267 51.3366C169.2 59.3396 172.8 68.8098 174.8 79.4804C181.6 77.613 175.867 65.7419 176.133 60.6734C179.333 65.6086 179.467 71.344 180.4 76.8127C211.467 78.6801 198.4 120.295 174.667 110.959C176.8 123.63 175.2 135.234 169.333 146.972C176 144.304 178.533 138.969 181.733 134.034C182.533 140.57 177.867 144.171 174.4 148.573C189.467 147.639 188.667 135.501 192.533 124.83C194 134.034 190.4 142.57 183.733 149.106C200.533 147.906 197.2 130.032 202.133 130.433C201.467 136.568 199.6 142.304 195.333 147.239L195.6 147.372ZM121.333 157.909C87.2 187.654 77.6 179.784 96.4 226.068C102.4 239.806 84.5333 243.674 87.2 256.346C95.8667 286.89 110.4 316.368 119.733 346.112C120.4 301.562 114.8 257.413 108.8 213.397C107.2 199.658 108.8 186.186 114.933 173.648C116.8 168.313 121.733 163.778 121.333 157.909ZM118.133 778.672C112.667 775.738 108.267 778.272 103.733 780.406C102.933 784.274 106 788.676 100.933 791.344C105.333 822.822 96.2666 861.77 68.2666 881.11C69.4667 883.378 69.8666 885.778 71.5999 887.779C93.1999 883.111 111.333 872.04 130.4 861.236C116 842.562 133.067 819.354 136.667 799.48C131.2 798.946 125.6 802.014 119.733 801.614C113.733 802.414 99.2 798.146 106 790.143C109.6 785.341 115.733 784.274 118.133 778.539V778.672ZM124 142.837C94.1333 136.301 82.6666 76.5459 98.9332 53.6041C104.8 43.2003 112.4 33.9969 121.733 26.6608C125.733 24.6601 125.067 19.5916 126.533 15.7235C115.467 14.1229 106.4 23.593 99.8667 31.1958C99.4667 31.596 99.0666 32.5297 97.5999 31.9961C105.067 20.9254 113.6 12.2555 128.267 13.0558C128.933 11.5886 130.4 10.5215 130.533 8.92094C99.3333 1.05137 82.3999 33.7301 82.7999 60.8068C83.3333 86.683 65.5999 129.232 87.4666 148.706C86.9333 143.104 85.5999 137.902 89.5999 132.7C91.3332 141.37 94.2666 151.107 104.8 150.44C103.6 147.105 102.267 144.038 103.333 140.303C109.333 145.238 114.933 149.64 123.067 147.506C123.6 146.172 124.4 144.971 124 142.97V142.837ZM25.2 894.982C16.2667 894.982 12.1333 898.983 11.4666 907.12C8.39993 923.126 62.3999 910.854 72.2666 910.988C100.8 906.053 90.4 894.582 133.2 893.915C135.2 883.644 138.267 873.641 132.933 863.237C113.067 873.907 94.9333 885.378 72.6666 889.913C72.4 895.782 68.1333 897.383 63.7333 898.85C58 900.717 56.1333 896.182 54.1333 892.314C45.3333 896.849 29.2 911.255 25.3333 894.982H25.2ZM209.6 792.677C211.467 805.215 215.867 817.22 218.8 829.624C225.6 848.298 223.333 867.372 226.667 886.845C236.667 881.51 246.8 877.509 257.867 876.042C255.2 863.904 248.267 853.633 247.2 841.229C246.267 828.157 245.067 814.952 242.933 802.014C235.867 802.681 209.2 808.95 215.6 794.811C216.533 793.344 218.267 792.144 217.733 789.876C214.667 789.876 212.4 791.21 209.733 792.944L209.6 792.677ZM68.5333 390.929C80 360.918 72.1333 330.24 66.1333 299.962C61.0666 307.965 57.7333 315.968 52.2666 323.571C49.3333 326.905 50.5333 330.506 51.4666 334.241C55.1999 345.979 56.6667 388.528 68.5333 390.795V390.929ZM230.533 905.386C236 917.924 239.067 931.529 245.867 943.4C250 951.403 260.667 947.935 267.067 945C278.267 937.531 269.067 918.991 268.533 907.92C267.333 904.719 266.933 892.848 262.267 894.048C265.333 915.789 275.6 919.924 248.133 926.46C243.6 927.127 242.8 926.46 241.2 922.058C238.8 915.656 236.533 909.254 234.267 902.851C232.933 903.252 231.733 903.918 230.667 905.252L230.533 905.386ZM245.333 923.659C252.133 923.259 257.333 919.658 263.467 917.924C263.2 909.387 260.667 901.518 259.333 893.515C250.4 893.781 242.667 895.782 235.867 901.651C239.733 908.587 242.667 915.923 245.2 923.792L245.333 923.659ZM264.933 890.447C266.933 870.173 240.933 882.577 231.2 887.379C223.467 890.447 224.4 897.516 229.467 902.718C239.467 894.448 251.6 888.98 264.8 890.447H264.933ZM171.2 368.387C170.933 365.186 171.6 362.118 170.533 359.317C154.933 360.117 139.6 363.185 123.6 361.451C123.867 364.919 123.067 368.12 124.267 371.455C139.867 370.788 155.333 371.322 171.2 368.387ZM115.733 903.118C117.867 905.519 116.133 908.854 118.133 911.388C119.333 910.988 120.8 911.521 122.4 910.454C122.4 906.986 121.6 903.252 124.267 899.65C125.867 903.252 124.667 906.986 125.867 910.187C133.067 911.254 132.533 902.184 132.267 897.116C121.867 897.383 112.133 898.05 102.533 901.117C104.667 904.719 101.467 913.789 107.6 911.655C107.867 908.187 107.2 904.719 110 901.918C110.267 905.119 110.4 908.32 110.667 911.521C112.267 912.188 113.467 912.188 115.067 911.121C114.533 908.587 113.733 905.786 115.867 903.118H115.733ZM43.2 413.337C44.2667 412.67 45.3333 412.27 45.4666 411.336C47.3333 401.866 58 399.599 62.6666 391.596C60.2666 390.395 59.8666 387.994 59.4666 385.727C46.9333 385.727 33.7333 401.866 43.3333 413.337H43.2ZM59.0666 876.308C48.6666 876.042 55.1999 887.512 57.4666 892.714C59.4666 898.183 63.0666 896.849 67.3333 894.448C73.6 891.781 64.2666 876.175 59.0666 876.308ZM50.9333 885.245C43.2 888.179 35.6 891.114 28.2666 894.715C30.1333 899.383 31.4667 900.717 33.8667 899.65C40.2667 896.716 46.8 893.781 52.9333 890.313C52.5333 888.579 52.1333 887.112 50.9333 885.378V885.245ZM58.7999 427.076C62.9333 420.673 53.2 417.739 54 404C48.6666 409.069 48.3999 409.736 50.1333 415.871C51.7333 420.406 52.4 427.076 58.6666 427.209L58.7999 427.076ZM64 395.064C55.7333 403.6 54.9333 411.07 61.6 418.272C64 410.803 66.1333 403.2 64 395.064ZM46 415.471C41.7333 418.272 49.6 439.48 56.6666 435.879C57.0666 434.278 58 432.944 57.8667 430.944C48.9333 429.476 48.5333 421.473 46 415.471ZM43.7333 429.61C42.1333 434.945 50.9333 446.683 55.3333 440.147C49.0666 439.08 46.5333 434.278 43.7333 429.61ZM142 374.79C136.533 374.256 134.667 375.19 135.6 377.591C136.267 378.391 137.067 377.19 138 378.124C138 381.725 136.933 385.594 138.4 390.395C140.933 384.793 141.067 379.858 142.133 374.79H142ZM98.1333 784.408C99.0666 785.075 100 786.142 101.333 785.075C101.2 784.007 101.333 782.94 100.133 782.407C99.1999 782.94 98.3999 783.474 98.1333 784.408Z" fill="#141414"/>
<path d="M118.133 778.672C115.733 784.408 109.467 785.475 106 790.277C99.1999 798.146 113.867 802.548 119.733 801.748C125.467 802.148 131.067 799.213 136.667 799.614C133.067 819.354 116 842.696 130.4 861.37C111.333 872.174 93.1999 883.244 71.5999 887.913C69.8665 885.779 69.4666 883.511 68.2666 881.244C95.4666 863.104 101.6 829.625 102.267 799.213C102.4 796.679 103.333 793.878 100.933 791.344C106 788.809 102.933 784.274 103.733 780.406C108.133 778.272 112.533 775.738 118.133 778.672Z" fill="white"/>
<path d="M209.6 792.677C212.267 791.077 214.533 789.743 217.6 789.609C218.133 791.877 216.4 793.077 215.467 794.545C209.2 808.816 235.733 802.414 242.8 801.747C244.933 814.685 246.134 827.89 247.067 840.962C248.134 853.5 255.067 863.637 257.734 875.775C246.667 877.108 236.534 881.243 226.534 886.579C223.2 867.238 225.467 848.031 218.667 829.357C215.733 816.953 211.333 805.082 209.467 792.41L209.6 792.677Z" fill="white"/>
<path d="M245.333 923.659C242.8 915.789 239.867 908.586 236 901.517C242.667 895.648 250.533 893.648 259.467 893.381C260.8 901.517 263.2 909.253 263.6 917.79C257.467 919.524 252.267 923.259 245.467 923.525L245.333 923.659Z" fill="#CEAE9F"/>
<path d="M115.734 903.118C113.6 905.786 114.4 908.587 114.934 911.121C113.467 912.188 112.134 912.188 110.534 911.522C110.267 908.32 110.134 905.119 109.867 901.918C107.067 904.719 107.734 908.187 107.467 911.655C101.467 913.789 104.534 904.719 102.4 901.118C112 898.05 121.734 897.383 132.134 897.116C132.267 902.185 132.934 911.255 125.734 910.188C124.534 906.987 125.734 903.385 124.134 899.651C121.467 903.252 122.267 906.987 122.267 910.454C120.8 911.522 119.334 910.988 118 911.388C115.867 908.854 117.734 905.519 115.6 903.118H115.734Z" fill="#CEAE9F"/>
<path d="M43.2003 413.337C33.7337 401.866 46.9336 385.727 59.3336 385.727C59.7336 388.127 60.1337 390.395 62.5337 391.595C57.867 399.465 47.3336 401.732 45.3336 411.336C45.3336 412.27 44.1336 412.67 43.067 413.337H43.2003Z" fill="#F4C6CC"/>
<path d="M67.3329 894.448C63.0663 896.849 59.4662 898.183 57.4662 892.714C56.5329 890.58 54.7996 887.379 53.9996 884.311C52.7996 880.043 53.0663 876.175 59.0663 876.308C60.2663 876.308 61.733 877.108 63.1996 878.576C67.733 882.977 71.9996 892.447 67.1996 894.448H67.3329Z" fill="#CEAE9F"/>
<path d="M52.9333 890.18C46.7999 893.781 40.2666 896.582 33.8666 899.517C31.7333 900.45 30.5332 899.517 28.7999 895.915C28.6666 895.515 28.3999 895.115 28.2666 894.582C35.5999 891.114 43.1999 888.046 50.9333 885.111C51.3333 885.778 51.7332 886.312 51.9999 886.979C52.5333 888.046 52.7999 888.979 53.0666 890.18H52.9333Z" fill="#CEAE9F"/>
<path d="M58.7998 427.076C52.5331 427.076 51.8665 420.407 50.2665 415.738C48.5331 409.603 48.7998 408.936 54.1331 403.867C53.3331 417.739 63.0665 420.54 58.9331 426.942L58.7998 427.076Z" fill="#F4C6CC"/>
<path d="M64.0004 395.063C66.1337 403.2 64.0004 410.669 61.6004 418.272C54.9337 411.069 55.6004 403.6 64.0004 395.063Z" fill="#F4C6CC"/>
<path d="M45.9998 415.472C48.3998 421.474 48.9332 429.477 57.8665 430.944C58.1332 432.945 57.0665 434.412 56.6665 435.879C49.5998 439.481 41.7332 418.139 45.9998 415.472Z" fill="white"/>
<path d="M43.7335 429.609C46.5335 434.278 49.0668 438.946 55.3335 440.147C50.9335 446.682 42.2668 434.945 43.7335 429.609Z" fill="white"/>
<path d="M98.1328 784.408C98.5328 783.474 99.1995 782.807 100.133 782.407C101.199 782.941 101.066 784.141 101.333 785.075C99.9995 786.142 99.0661 785.075 98.1328 784.408Z" fill="#A25A9F"/>
<path d="M147.733 60.5396C148.133 60.8064 148.4 61.0732 148.8 61.3399C148.533 61.6067 148.267 62.0068 147.867 62.2736C147.467 62.0068 147.2 61.7401 146.8 61.3399C147.066 61.0732 147.333 60.8064 147.733 60.4062V60.5396Z" fill="white"/>
<path d="M146.801 61.4739C145.066 60.6736 146.801 59.073 147.735 60.5402C147.468 60.807 147.201 61.0738 146.801 61.4739Z" fill="white"/>
<path d="M115.6 96.5529C117.467 98.687 120.267 97.7534 121.734 99.7541C118.401 102.555 110.534 98.9538 113.467 94.152C117.867 85.4822 116.401 75.8786 119.067 66.8086C121.334 72.544 120.001 84.5485 115.734 96.5529H115.6Z" fill="#141414"/>
<path d="M188.533 86.416C186.133 90.1507 182.267 88.9503 179.6 90.951C181.467 93.0851 184.133 91.6179 186.133 92.685C188 93.7521 190.133 94.5524 190.667 97.22C187.733 98.2871 186.667 94.5524 183.867 95.2193C184.133 97.22 184.667 99.7543 182 100.955C180.4 101.622 178.933 102.289 177.2 100.688C182.267 98.8206 183.2 97.7535 178.533 94.1522C172.533 87.8832 183.6 86.2826 188.4 86.5494L188.533 86.416Z" fill="#141414"/>
<path d="M142.933 75.6118C143.2 78.813 140.667 83.8815 137.6 79.8801C134.133 73.8778 142.133 64.4077 142.933 75.6118Z" fill="#141414"/>
<path d="M102.4 77.6134C101.866 74.2788 104.266 68.1432 107.333 72.1447C111.066 77.3466 103.466 88.284 102.4 77.6134Z" fill="#141414"/>
<path d="M160.533 130.299C160.533 128.965 162.001 130.299 160.933 130.699C160.933 130.565 160.667 130.432 160.533 130.299Z" fill="#141414"/>
<path d="M138.667 111.892C137.6 110.025 136.534 108.691 134.667 107.49C134.267 108.691 134.4 109.758 134.8 110.825C127.6 113.492 120.134 112.292 112.667 112.959C119.6 115.893 129.067 116.827 135.067 111.225C135.867 112.826 137.467 114.026 139.334 113.893C139.067 113.092 138.8 112.425 138.534 111.758L138.667 111.892Z" fill="black"/>
<path d="M25.1997 894.981C25.4663 895.915 25.733 896.715 25.9996 897.382C24.3996 898.183 22.7996 898.983 21.4663 900.05C18.6663 902.317 16.7996 905.652 16.3996 909.253C16.2663 910.854 16.3996 912.588 16.933 914.055C13.0663 912.855 10.7996 910.721 11.4663 907.119C11.9996 898.983 16.2663 895.115 25.1997 894.981Z" fill="white"/>
<path d="M50.9338 885.245C51.3338 885.912 51.7337 886.446 52.0004 887.112C48.8004 887.112 42.4004 890.314 40.9338 890.847C36.9338 892.448 32.9338 894.182 28.9338 896.049C28.8004 895.649 28.5337 895.249 28.4004 894.715C35.7337 891.247 43.3337 888.18 51.0671 885.245H50.9338Z" fill="white"/>
<path d="M63.2001 878.576C61.0668 878.842 59.0668 879.376 57.2001 880.443C55.7335 881.377 54.5335 882.71 53.8668 884.311C52.6668 880.043 52.9335 876.175 58.9335 876.308C60.1335 876.308 61.6001 877.108 63.0668 878.576H63.2001Z" fill="white"/>
</svg>
