<svg width="343" height="957" viewBox="0 0 343 957" fill="none" xmlns="http://www.w3.org/2000/svg">
<path d="M313.334 495.7C320.267 503.303 326.667 513.173 326.267 523.844C324.134 523.443 324.267 521.709 323.734 520.509C319.201 512.506 315.067 502.102 307.067 497.434C305.734 499.568 307.467 500.635 308.534 501.835C314.534 509.572 320.801 518.108 323.067 527.712C322.934 527.845 322.801 527.978 322.667 528.112C322.667 528.112 322.534 528.245 322.401 528.379C315.467 521.443 310.267 512.773 301.067 508.371C296.001 505.437 293.734 500.768 292.534 495.3C292.267 493.966 292.534 492.365 290.667 491.298C286.801 500.502 301.067 509.838 293.601 517.975C288.534 515.44 287.467 508.505 282.667 505.037C268.801 492.499 272.801 472.625 264.801 457.019C257.734 438.745 248.934 420.872 243.067 402.199C248.534 398.464 254.401 396.196 260.534 394.196C266.134 392.462 271.734 390.994 277.201 388.86C285.067 413.136 277.201 440.746 288.001 463.688C295.067 473.825 308.001 476.226 315.734 485.296C315.067 486.496 314.401 485.563 313.601 485.563C312.801 484.629 312.401 485.563 312.667 486.363C319.734 495.033 326.667 502.769 328.401 514.774C323.867 505.837 320.267 497.167 312.001 491.565C310.667 493.832 312.401 494.633 313.467 495.566L313.334 495.7Z" fill="white"/>
<path d="M313.334 495.7C320.267 503.302 326.667 513.173 326.267 523.843C324.134 523.443 324.267 521.709 323.734 520.509C319.2 512.506 315.067 502.102 307.067 497.434C305.734 499.568 307.467 500.635 308.534 501.835C314.534 509.571 320.8 518.108 323.067 527.712C322.934 527.845 322.8 527.978 322.667 528.112C316.534 518.108 310.934 507.437 303.334 498.634C297.734 492.098 291.067 486.496 285.867 479.56C272.934 462.087 271.734 438.879 266 417.804C263.867 410.068 261.067 402.332 260.667 394.462C266.267 392.728 271.867 391.261 277.334 389.127C285.2 413.403 277.334 439.679 288 462.621C290.534 466.222 294.667 469.29 299.067 472.091C307.2 477.159 316.667 482.895 321.734 488.764C321.467 489.297 323.6 491.698 324.934 495.833C326.534 500.902 327.467 508.371 328.534 515.04C324 506.104 320.4 497.434 312.134 491.832C310.8 494.099 312.534 494.899 313.6 495.833L313.334 495.7Z" fill="#F4C6CC"/>
<path d="M178.134 80.6127C172 70.609 162.534 64.8736 154.134 58.0711C153.867 58.3379 153.6 58.738 153.334 59.0048C153.334 59.4049 153.467 59.9385 153.6 60.8721C147.334 57.4042 141.334 57.004 134.8 59.4049C139.2 53.2693 145.067 54.8699 151.201 56.3371C144.534 49.1344 137.334 42.5987 133.201 34.0622C131.867 31.2612 130.8 28.3268 130.267 24.9922C120.4 32.595 107.867 48.7343 106.401 55.6702C114.001 54.203 115.734 54.7365 118.134 59.2715C84.4005 49.5346 103.6 118.093 117.334 129.431C122.8 135.3 129.6 137.434 136.8 137.3C147.2 137.3 158.401 132.365 167.067 127.43C161.734 135.033 155.467 141.168 148.134 145.703C143.067 148.771 137.6 151.039 131.467 152.506C128 164.51 121.067 175.715 126.8 187.986C127.734 191.054 128.667 194.121 129.6 197.056C135.734 216.396 142.134 235.737 150.267 254.41C154.667 244.407 156.534 233.202 160.134 222.665C164.134 206.526 172.401 191.72 175.067 175.314C178.534 159.975 170.8 160.642 171.334 148.371C169.6 147.304 167.201 147.704 166.401 145.437C167.201 143.703 169.467 144.903 170.401 143.303C169.867 136.9 170.401 130.498 172.401 124.362C172.801 124.362 173.067 124.362 173.467 124.362V136.9C178.534 126.496 178.267 115.292 178.401 103.421C208.934 118.627 208.667 63.4064 178.267 80.4794L178.134 80.6127ZM110.934 79.5457C107.867 76.6113 107.2 71.5427 109.334 68.8751C115.334 65.1404 115.2 76.2111 110.934 79.5457ZM118.667 92.6172C123.467 83.6805 122.267 73.5435 124.667 64.2067C125.067 64.2067 125.467 64.2067 125.734 64.3401C125.867 66.8743 126.001 69.4086 125.867 71.8095C125.601 79.1455 124.4 86.3482 121.334 93.2841C122.667 96.0851 126.267 94.4846 127.6 96.8854C126.667 97.419 125.467 97.5524 124.267 97.5524C121.067 97.5524 117.601 95.4182 118.534 92.4838L118.667 92.6172ZM143.201 76.6113C140.401 69.9421 148 62.3393 148.8 72.4764C149.467 75.9444 145.734 81.413 143.201 76.6113ZM191.067 92.3504C190.667 92.6172 190.4 93.0173 190 93.2841C190 97.9525 188.801 98.8862 183.201 98.3526C184.134 96.4853 186.934 97.2856 187.6 95.1515C187.6 93.2841 185.467 92.4838 184.401 91.15C178.667 85.1478 189.6 83.8139 194.134 83.5472C192.667 87.8154 188 86.0814 185.334 88.7491C189.867 89.8162 194.8 89.1492 196.667 94.6179C194 95.5516 193.067 92.6172 191.201 92.4838L191.067 92.3504Z" fill="white"/>
<path d="M136.8 137.3C129.734 137.3 122.934 135.3 117.334 129.431C103.6 118.093 84.4005 49.5346 118.134 59.2715C115.734 54.8699 113.867 54.3364 106.401 55.6702C107.734 48.7343 120.267 32.595 130.267 24.9922C130.8 28.3268 131.867 31.2612 133.201 34.0622C132.534 46.8669 129.334 59.4049 126.134 71.9429C124.667 77.2782 123.334 82.7469 122 88.0822C121.2 91.5501 121.067 96.3519 124.401 97.6857C124.401 97.6857 124.401 97.6857 124.534 97.6857C125.467 97.9525 126.534 98.0859 127.201 98.7528C128.267 99.6865 128.267 101.42 128.267 102.888C128.267 106.889 129.6 111.691 133.467 112.491C131.867 118.894 131.201 125.829 133.734 132.098C134.534 133.966 135.6 135.833 136.934 137.434L136.8 137.3Z" fill="#F4C6CC"/>
<path d="M148 145.57C143.867 163.31 137.6 180.65 129.6 197.056C128.667 193.988 127.734 190.92 126.8 187.986C121.067 175.715 128 164.377 131.467 152.506C137.6 151.039 143.067 148.771 148.134 145.704L148 145.57Z" fill="#F4C6CC"/>
<path d="M234.934 202.658C234.934 203.191 234.667 203.591 234.534 204.125C228.401 229.601 224.401 255.611 220.934 281.62C218.134 298.56 215.334 315.633 210.134 332.039C208.534 337.107 209.867 342.043 211.067 346.978C212.934 354.981 218.134 363.384 211.601 370.72C206.934 377.922 196.267 374.321 188.401 376.855C191.201 372.187 196.134 369.786 198.134 364.584C186.267 369.253 189.201 379.923 172.401 376.855C175.201 371.387 176.801 365.518 181.734 361.25C182.667 365.384 181.467 368.852 180.401 372.987C192.401 357.648 178.001 347.378 170.001 377.122C163.334 379.39 158.134 374.455 151.867 375.522C152.534 365.518 152.134 356.048 152.134 346.311C158.801 348.312 165.201 352.18 172.401 350.179C165.734 348.312 159.067 346.978 152.667 343.376C157.467 330.305 141.734 334.573 152.667 318.834C161.601 320.968 169.867 318.834 178.134 315.366C174.534 322.569 167.201 324.036 161.067 328.037C165.734 330.438 172.134 329.238 178.134 325.103C175.467 324.303 173.601 326.837 170.801 326.17C175.467 321.768 181.867 318.967 183.201 310.964C173.334 313.499 164.667 318.834 154.267 316.033C158.001 303.362 139.867 295.359 144.667 282.687C149.334 268.949 153.201 254.944 157.867 241.205C162.267 229.601 162.934 210.127 179.201 209.994C188.267 213.062 189.867 226.4 197.601 231.335C199.601 230.935 199.601 228.934 200.001 227.6C202.134 220.664 204.534 213.862 207.201 207.059C208.667 203.325 210.534 199.723 209.601 195.855C209.334 194.788 208.934 193.588 208.134 192.521C207.601 191.72 206.934 190.92 206.001 189.986C206.401 189.986 206.801 190.253 207.334 190.386C216.267 192.654 239.734 193.188 234.801 202.658H234.934Z" fill="white"/>
<path d="M279.2 357.249C276 357.516 272.933 357.916 269.867 358.583C259.067 360.583 237.867 367.386 232.667 372.855C230.667 369.52 230.8 362.051 229.734 358.849C229.734 355.648 234.134 352.847 230.4 349.779C220.134 340.709 230.4 328.838 229.333 317.901C227.2 321.102 226.667 324.303 225.333 327.238C224 326.704 224.133 325.504 223.867 324.57C223.2 318.034 220.134 311.499 220.4 305.096C226.134 271.751 231.6 238.271 236.133 204.926C236.267 203.725 236.4 202.525 236.667 201.324C253.067 195.055 256.267 262.68 258.8 274.285C260.667 289.49 262.8 304.696 264.133 319.902C265.067 325.104 263.467 332.039 269.333 334.707C278.133 338.842 270.8 343.777 274.667 348.312C277.467 350.446 277.467 353.781 279.2 357.115V357.249Z" fill="white"/>
<path d="M234.934 202.657C234.934 203.191 234.667 203.591 234.534 204.125C232.667 203.458 228.267 201.857 222.401 198.256C215.334 193.988 210.534 195.455 209.601 195.855H209.467L208.134 192.387L207.334 190.253C216.267 192.52 239.734 193.054 234.801 202.524L234.934 202.657Z" fill="#D1CDCB"/>
<path d="M269.867 358.582V347.244C269.867 347.244 268 342.843 265.334 341.109C262.667 339.375 254.134 332.572 255.734 324.303C257.467 316.033 247.6 229.468 245.467 219.864C243.734 211.994 238 206.659 236.134 205.059C236.267 203.858 236.4 202.658 236.667 201.457C253.067 195.188 256.267 262.813 258.8 274.418C260.667 289.623 262.8 304.829 264.134 320.034C265.067 325.236 263.467 332.172 269.334 334.84C278.134 338.975 270.8 343.91 274.667 348.445C277.467 350.579 277.467 353.914 279.201 357.248C276.001 357.515 272.934 357.915 269.867 358.582Z" fill="#D1CDCB"/>
<path d="M150.267 315.233C141.867 313.365 133.467 310.965 125.2 308.297C132.133 313.766 140.667 315.366 148.8 318.167C148.8 320.168 147.733 321.635 146.8 322.969C139.867 332.439 154 334.84 149.067 341.643C140.933 336.441 133.2 330.839 126.267 323.503C127.6 331.772 141.2 338.842 147.6 343.777C148.133 344.177 148.133 344.177 148 347.111C144.4 346.711 140.667 346.044 136 346.178C140.133 349.512 143.6 348.312 148.133 349.512C149.2 358.049 148.533 366.452 148.667 374.988C143.733 375.522 138.533 373.388 134.4 376.722C127.467 378.189 119.6 375.922 112.533 374.855C113.6 369.119 115.067 363.517 114.133 357.649C111.6 362.984 111.467 368.719 111.6 374.455C101.067 377.256 95.4668 362.184 94.4001 354.981C98.6667 356.581 99.8667 360.85 102.533 364.051C101.067 344.844 79.4667 346.845 100 372.988C88.4 375.522 85.6001 361.25 81.0667 353.514C76.2668 337.108 88.8001 318.968 81.7334 302.695C65.4668 268.949 72.5334 269.082 75.2001 235.603C74.2667 235.603 74 236.137 73.8667 236.804C71.3334 252.943 62.4001 270.55 70.4001 286.289C74.0001 294.559 62.6666 305.229 60.9333 314.433C50.1333 303.095 37.2 304.162 23.6 305.496C22.4 305.496 21.2 305.763 20 305.896C24 299.76 16.2666 295.359 17.6 287.489C26.2666 286.556 34.5333 285.889 43.4667 287.489C41.3333 293.358 34.9333 291.357 30.2666 292.024C29.3333 294.158 30.8 294.559 31.8667 294.959C31.8667 294.959 32.1333 294.959 32.1333 295.092C40.1333 299.494 45.2001 300.694 49.7334 298.96C45.4667 297.626 42.4 297.36 38.5334 294.959C41.0667 294.025 43.6 293.358 45.3333 291.624C45.8667 291.091 46.4 290.29 46.8 289.49C50 279.22 27.4667 283.621 21.7334 284.155C19.2001 285.355 18.2666 283.888 19.6 281.487C30.8 253.877 37.6 222.665 55.2 198.656C56.4 201.324 57.6 203.992 58.8 206.526C62 213.595 65.2 220.531 70.1333 226.667C68.6667 217.997 64.5334 210.394 61.0667 202.391C60.1334 200.257 59.3334 198.256 58.5334 195.989C69.2 191.721 80.0001 188.92 91.7334 187.186C92.0001 189.186 92.2667 191.054 92.6667 193.054C95.0667 204.259 100.4 214.796 100.267 226.667C100.4 229.601 101.867 230.268 104.267 228.267C110.933 224.933 117.6 211.728 125.467 217.063C128.8 219.864 133.867 221.732 135.6 226C139.6 236.67 143.733 247.208 147.867 257.878C149.333 267.082 142.133 276.018 140.667 285.222C138.8 293.892 147.467 300.828 150.4 308.564C152 311.498 151.867 311.632 150.133 315.366L150.267 315.233Z" fill="white"/>
<path d="M114.667 357.648C116.001 361.916 116.667 366.318 116.667 370.72C116.667 370.986 116.667 371.253 116.8 371.52C116.934 371.787 117.334 371.92 117.734 372.054C123.334 373.788 129.467 374.188 134.267 377.656C133.6 377.255 130.801 377.656 130.001 377.656C128.401 377.656 126.934 377.656 125.334 377.656C122.267 377.656 119.334 377.389 116.401 376.855C113.467 376.322 112.934 376.055 112.534 373.921C112.134 371.787 112.934 369.119 113.467 366.852C114.267 363.784 115.2 360.583 114.8 357.248L114.667 357.648Z" fill="white"/>
<path d="M148.534 314.833C149.867 315.366 151.201 315.9 152.534 316.3C158.001 318.034 164.001 317.1 169.601 316.166C174.267 315.366 179.334 314.432 182.801 311.231C172.667 312.032 162.401 311.231 152.401 309.231C151.601 305.496 147.867 303.095 145.601 300.027C142.001 294.959 142.267 288.156 143.334 282.021C142.534 286.956 141.867 291.757 142.134 296.693C142.401 301.628 143.734 306.563 146.934 310.431C146.534 309.898 140.267 310.965 139.334 310.965C136.801 310.965 134.267 310.965 131.601 310.965C136.934 313.099 143.067 312.832 148.534 314.699V314.833Z" fill="#D1CDCB"/>
<path d="M126.934 324.169C127.867 326.036 128.8 327.904 129.734 329.771C131.467 332.972 133.334 336.173 135.734 338.841C138.267 341.509 141.467 343.509 145.067 343.91C142.667 344.843 140.267 345.91 137.867 346.844C139.867 347.511 141.867 348.044 144 348.445C146 356.448 147.2 364.717 147.734 372.987C147.734 374.454 148.134 376.455 149.6 376.855C149.067 366.051 152.134 354.714 149.6 344.043C147.2 342.442 142.8 339.375 140.8 337.374" fill="#D1CDCB"/>
<path d="M75.0669 237.604C75.0669 237.604 65.7335 269.349 68.8002 278.953C71.8669 288.423 83.6002 302.962 83.6002 309.764C83.6002 316.567 77.4668 338.575 78.2668 345.377C79.0668 352.18 81.3335 364.851 83.6002 367.119C85.8668 369.386 92.8002 374.188 92.8002 374.188L101.467 375.522C101.467 375.522 85.2002 368.319 84.8002 355.381C84.4002 342.443 94.8003 315.099 91.2003 305.496C87.6003 295.892 73.3336 281.087 72.5336 272.95C71.8669 264.814 74.9335 237.471 74.9335 237.471L75.0669 237.604Z" fill="#D1CDCB"/>
<path d="M64.4007 325.237L64.1339 325.504C61.7339 327.638 61.2006 330.572 60.6673 333.64C60.534 334.707 60.2673 335.774 60.0006 336.841L59.734 338.175L58.9339 337.108C54.5339 331.639 49.2007 328.571 43.2007 328.171C36.2673 327.638 28.5339 330.572 20.9339 336.308C19.8673 337.108 18.6673 338.042 17.6006 339.109L17.0674 339.642L16.6673 338.975C14.4007 335.374 15.6007 332.439 16.6673 329.905C17.4673 327.771 18.2673 325.904 17.334 323.77C16.0007 321.502 15.6007 318.834 15.2007 316.3V315.367C15.0674 315.367 15.0674 315.367 15.0674 315.367C15.2007 312.432 17.8673 310.298 22.6673 308.964C22.6673 308.964 22.6673 308.964 22.8006 308.964C22.934 308.964 23.0673 308.964 23.334 308.964C27.4673 308.03 32.6674 307.63 37.734 308.03C43.0674 308.431 48.4006 309.364 52.2673 311.098C54.6673 312.165 56.534 313.499 57.4673 314.966L58.1339 316.167L56.8006 315.9C56.0006 315.9 55.2007 315.633 54.4007 315.5C51.2007 314.966 48.0007 314.566 44.534 314.7C46.534 315.233 48.6673 315.633 50.6673 315.9C56.6673 316.834 62.2673 317.634 64.534 324.97V325.37L64.4007 325.237Z" fill="#D1CDCB"/>
<path d="M53.6003 310.964C53.0669 310.964 52.5337 310.831 51.867 310.697C50.5337 310.564 49.0671 310.431 47.7337 310.164C45.8671 309.897 44.0003 309.764 42.0003 309.764C36.667 309.764 31.4671 311.631 26.4004 313.365C24.5337 314.032 22.5336 314.699 20.8003 315.633C19.867 316.166 18.8004 316.833 18.5337 317.9C18.1337 319.234 19.2003 320.701 20.1336 321.635C21.2003 322.702 22.2671 323.769 22.4004 325.236C22.4004 326.97 20.9336 328.437 20.1336 329.904C19.867 330.305 19.7337 330.705 19.867 331.105C19.867 331.372 20.1336 331.638 20.2669 331.772C21.0669 333.106 21.067 334.573 20.8003 336.04C19.7336 336.84 18.5336 337.774 17.467 338.841L16.9336 339.375L16.5337 338.708C14.267 335.106 15.467 332.172 16.5337 329.638C17.3337 327.504 18.1337 325.636 17.2004 323.502C15.867 321.235 15.4671 318.567 15.0671 316.033V315.099C14.9337 315.099 14.9336 315.099 14.9336 315.099C15.0669 312.165 17.7337 310.03 22.5337 308.697C22.5337 308.697 22.5337 308.697 22.667 308.697C23.067 308.697 23.467 308.697 23.867 308.563C27.067 308.03 30.267 308.03 33.467 307.896C34.8003 307.896 36.1336 307.763 37.467 307.63C39.3336 307.63 41.2003 307.496 42.9336 307.63C46.1336 307.763 49.3337 308.563 52.0003 310.297L53.6003 310.964Z" fill="white"/>
<path d="M43.6003 287.089C41.4669 292.958 35.0671 290.957 30.4004 291.624C29.4671 293.758 30.9337 294.159 32.0003 294.559L25.6003 295.492C25.6003 295.492 24.4004 302.562 23.7337 305.096C22.5337 305.096 21.3336 305.363 20.1336 305.496C24.1336 299.361 16.4004 294.959 17.7337 287.089C26.4004 286.156 34.6669 285.489 43.6003 287.089Z" fill="white"/>
<path d="M30.2671 272.683C27.8671 277.085 37.4672 274.417 43.8672 277.218C50.4005 280.153 55.3338 284.421 51.3338 287.889C49.8671 289.223 47.7337 290.29 45.6004 291.224C46.1337 290.69 46.6672 289.89 47.0672 289.089C50.2672 278.819 27.7338 283.221 22.0005 283.754C19.4671 284.955 18.5338 283.487 19.8672 281.086C31.0672 253.476 37.8671 222.265 55.4671 198.256C56.6671 200.924 57.8672 203.591 59.0672 206.125C52.9339 220.531 32.2671 268.815 30.2671 272.55V272.683Z" fill="#D1CDCB"/>
<path d="M92.8008 192.788C85.3341 194.655 64.5342 201.057 61.0675 202.125C60.1342 199.99 59.3342 197.99 58.5342 195.722C69.2008 191.454 80.0009 188.653 91.7342 186.919C92.0009 188.92 92.2675 190.787 92.6675 192.788H92.8008Z" fill="#D1CDCB"/>
<path d="M268.534 828.756C268.4 828.623 268.134 828.356 268 828.223C272 821.153 268.267 799.945 268.534 792.743C266 748.593 261.067 704.043 252.667 660.16C250.667 606.807 244.667 560.79 237.067 509.571C232 470.223 223.867 430.609 209.867 393.528C190.8 398.597 115.6 396.596 101.467 394.462C96.1336 393.662 91.0669 392.195 86.1336 389.394C76.4002 404.599 66.267 420.205 62.4003 439.012H62.1336C61.7336 443.013 59.7336 446.215 60.6669 450.483H60.0003C52.9336 503.436 62.8003 557.589 67.3336 610.275C72.5336 649.49 67.3336 689.638 69.3336 730.72C71.0669 760.197 73.3336 790.075 76.6669 819.553C77.0669 819.953 77.4669 820.486 78.0003 820.62C76.5336 821.42 77.7337 826.488 77.7337 827.689C78.8003 827.689 81.2002 827.689 84.2669 828.223C103.467 830.623 153.334 839.56 144.8 825.555H146.4C145.467 705.377 147.734 605.34 151.2 490.898C152.8 502.502 154.267 513.973 155.734 525.444C160.8 565.992 165.334 605.74 173.467 646.022C185.734 708.178 190.667 768.067 196.534 830.357C188.134 843.828 237.2 840.76 243.6 841.027C253.867 840.494 261.734 838.359 269.6 834.491L269.2 832.891C269.2 831.69 269.867 830.223 268.534 828.623V828.756ZM195.734 423.673C199.334 423.673 209.734 418.604 210.267 423.406C212.267 429.275 214.267 435.544 214.667 442.08C206.534 438.478 199.467 430.742 195.334 423.806H195.734V423.673Z" fill="url(#paint0_linear_2093_9342)"/>
<path d="M97.7334 439.545C97.4667 440.879 94.8001 442.48 93.7334 443.28C87.7334 448.215 80.8 451.817 73.4666 454.218C73.0666 454.351 72.5333 454.484 72 454.618C69.2 465.688 67.7333 477.559 68.9333 489.297C73.5999 536.248 88.9334 631.616 83.7334 654.025C78.4001 676.566 85.4666 812.75 85.4666 812.75L84.4001 828.356C81.2001 827.956 78.9334 827.822 77.8667 827.822C77.8667 826.488 76.6666 821.553 78.1333 820.753C77.7333 820.486 77.2 819.953 76.8 819.686C73.4666 790.208 71.0666 760.331 69.4666 730.853C67.4666 689.771 72.6666 649.623 67.4666 610.409C65.7333 596.937 64.8 583.332 63.3333 569.727C61.8667 555.988 60.4 542.117 59.3333 528.378C58.2667 515.307 57.7334 502.102 57.7334 489.03C57.7334 465.288 59.4666 440.079 69.5999 418.204C74.2666 408.067 80.2666 398.73 86.2666 389.394C91.1999 392.195 96.2666 393.662 101.6 394.462C101.6 394.462 83.3333 417.937 74 448.215C77.8667 447.415 81.7333 446.215 85.3333 444.614C89.0667 443.013 92.2667 440.746 95.7334 438.612C96.8001 437.945 98.4 437.545 97.8667 439.545H97.7334Z" fill="white"/>
<path d="M269.734 834.625C261.867 838.493 254.001 840.627 243.734 841.16C237.334 840.894 188.267 843.961 196.667 830.49C190.667 768.2 185.867 708.311 173.6 646.155C165.467 605.874 160.934 566.125 155.867 525.577C162.267 562.791 191.6 733.921 198 769C205.2 808.482 205.201 820.219 205.201 820.219C205.201 820.219 234.4 829.156 268.667 828.756C270 830.356 269.467 831.824 269.334 833.024L269.734 834.625Z" fill="white"/>
<path d="M135.734 873.839C130.934 876.24 124.533 878.508 117.467 880.642C99.4668 886.11 76.4002 890.379 61.2002 890.779C80.1335 879.575 96.6668 862.768 103.6 841.694C104.533 839.026 105.2 836.359 105.734 833.558C115.067 833.558 124.133 835.425 133.6 834.625C134.267 848.23 134.267 861.168 135.867 873.839H135.734Z" fill="white"/>
<path d="M135.734 873.839C130.934 876.24 124.534 878.508 117.467 880.642C117.201 879.308 117.067 878.107 116.801 876.774C115.867 872.105 115.067 867.303 113.601 862.768C111.201 855.299 107.334 848.63 103.601 841.694C104.534 839.026 105.201 836.359 105.734 833.558C115.067 833.558 124.134 835.425 133.601 834.625C134.267 848.23 134.267 861.168 135.867 873.839H135.734Z" fill="#F4C6CC"/>
<path d="M62.4006 399.397C64.6673 394.329 69.3338 390.594 74.2671 387.793C75.8671 386.859 77.6005 386.059 79.4672 386.192C81.3338 386.192 83.2005 387.393 83.6005 389.26C83.8671 390.594 83.2006 391.928 82.5339 393.128C81.7339 394.729 80.9339 396.329 80.0005 398.063C79.2005 399.664 78.2672 401.398 77.3339 402.865C74.5339 407.4 70.8006 411.402 68.5339 416.203C64.4006 424.74 64.9339 435.144 60.4006 443.547C58.9339 440.612 55.7339 439.279 53.2006 437.278C49.7339 434.61 47.4672 430.075 48.6672 425.94C48.9339 424.873 49.4672 423.94 49.8672 423.006C51.7339 418.871 48.9339 416.87 49.8672 412.335C50.4006 410.201 55.0671 405.533 56.2671 403.665C57.8671 400.998 60.8005 399.264 63.4672 397.797" fill="white"/>
<path d="M252.934 919.99C248 926.259 240.134 921.724 235.334 917.056C214.667 898.115 230.267 867.037 222.4 843.028C229.867 843.028 237.067 843.428 244.4 843.028C248.8 853.699 249.6 865.437 255.067 875.84C261.067 889.846 264.934 907.852 253.067 919.99H252.934Z" fill="#F4C6CC"/>
<path d="M235.2 917.188C214.533 898.248 230.133 867.17 222.267 843.161C225.867 843.161 229.333 843.161 232.667 843.295C234.667 867.837 230.933 892.913 235.333 917.188H235.2Z" fill="white"/>
<path d="M189.068 146.503C188.934 146.503 188.801 146.503 188.801 146.237C188.801 146.103 188.801 145.97 188.801 145.836C197.201 139.834 198.001 131.831 198.801 123.295V122.761C197.601 123.428 197.201 125.829 196.668 128.763C195.468 135.566 193.601 145.703 179.334 146.103C179.201 146.103 179.068 146.103 179.068 145.836C179.068 145.836 179.068 145.57 179.068 145.436C183.468 141.568 187.201 137.833 187.468 132.231C184.401 137.3 181.334 141.968 175.601 144.503C175.601 144.503 175.334 144.503 175.334 144.369C175.334 144.236 175.334 143.969 175.334 143.969C181.201 130.897 181.334 118.626 180.801 108.356V108.089C180.801 108.089 180.801 108.089 181.068 108.089C183.201 108.756 185.201 109.156 187.201 109.156C197.334 109.156 203.734 100.086 203.868 91.4162C204.001 83.9468 199.468 75.1436 185.868 74.4767C185.734 74.4767 185.601 74.3433 185.601 74.2099V73.4096C185.067 68.341 184.534 63.2725 182.134 58.4707C181.601 59.6712 182.267 62.4722 182.934 65.1399C183.867 69.1413 184.801 73.4096 183.201 75.4103C182.668 76.2106 181.734 76.4774 180.534 76.4774H180.267C180.134 76.4774 180.001 76.4774 180.001 76.2106C178.268 67.9409 175.468 57.537 168.668 49.9342C169.601 52.3351 170.668 54.6026 171.734 56.8702C173.868 61.5385 176.134 66.3403 176.934 71.5422V71.809L176.134 72.4759C176.134 72.4759 176.001 72.4759 175.868 72.4759C175.734 72.4759 175.734 72.4759 175.601 72.4759C171.734 68.4744 166.668 64.3396 161.334 60.0713C143.601 45.7994 123.601 29.6601 138.001 7.65195C141.468 5.38444 145.468 4.31738 150.401 4.31738C155.334 4.31738 162.001 5.7846 167.068 7.11843C192.268 14.7212 202.801 43.3985 208.534 64.3396C214.001 86.2143 221.734 125.029 211.468 139.034C209.068 142.235 205.868 143.969 201.868 144.236C201.868 144.236 201.601 144.236 201.601 144.102C201.601 144.102 201.601 143.836 201.601 143.702C202.001 143.035 202.401 142.235 202.801 141.568C205.201 137.433 207.601 133.165 207.334 127.963C206.134 128.63 205.468 130.497 204.801 132.898C203.068 138.367 200.667 145.97 188.934 146.503H189.068Z" fill="#564C47"/>
<path d="M150.801 4.45109C156.401 4.45109 162.268 5.9183 167.335 7.25213C191.868 14.7216 202.401 41.6649 208.535 64.2065C212.668 80.4792 227.334 142.235 202.134 143.703C204.801 138.767 208.401 133.699 207.868 127.43C203.068 128.764 206.535 145.437 189.068 146.103C198.001 139.701 198.535 131.031 199.335 122.361C194.001 123.295 200.401 145.17 179.468 145.837C184.268 141.702 188.268 137.567 188.001 131.165C184.801 136.5 181.601 141.702 175.601 144.236C180.934 132.365 181.868 121.028 181.068 108.356C183.335 109.156 185.335 109.423 187.335 109.423C207.068 109.423 213.334 75.2773 186.134 73.9434C185.601 68.4747 185.068 62.8727 182.401 57.6708C179.735 60.0716 188.401 75.9442 180.801 75.9442C173.201 75.9442 180.668 75.9442 180.535 75.9442C178.535 66.0739 175.335 55.67 168.001 48.2006C170.668 55.9368 175.468 63.0061 176.801 71.2758C176.534 71.5425 176.268 71.8093 176.001 71.9427C159.601 54.7363 119.868 35.9294 138.401 7.51889C142.001 5.118 146.268 4.18432 150.668 4.18432M150.801 3.78418C145.734 3.78418 141.601 4.85124 138.268 7.11875C138.268 7.11875 138.134 7.11874 138.134 7.25213C123.601 29.527 143.734 45.7997 161.468 60.0717C166.801 64.3399 171.868 68.4748 175.735 72.4762C175.735 72.6096 176.001 72.743 176.268 72.743C176.534 72.743 176.535 72.743 176.668 72.6096L177.468 71.9427C177.601 71.8093 177.735 71.5426 177.735 71.4092C176.935 66.0739 174.668 61.2721 172.535 56.6037C171.735 55.0031 171.068 53.2691 170.268 51.6685C176.001 59.138 178.534 68.4748 180.134 76.211C180.134 76.4777 180.401 76.7445 180.801 76.7445C180.801 76.7445 180.935 76.7445 181.068 76.7445C182.401 76.7445 183.335 76.3443 184.001 75.544C185.735 73.4099 184.668 69.1417 183.735 65.0068C183.335 63.1394 182.801 61.0053 182.801 59.6715C184.668 64.0731 185.201 68.8749 185.601 73.5433V74.3436C185.601 74.6104 186.001 74.8771 186.268 74.8771C199.601 75.544 204.135 83.9472 203.868 91.55C203.601 100.086 197.468 109.023 187.468 109.023C177.468 109.023 183.468 108.623 181.335 107.956C181.335 107.956 181.201 107.956 181.068 107.956C180.935 107.956 180.801 107.956 180.668 108.089C180.535 108.223 180.401 108.49 180.401 108.623C181.068 118.893 180.801 131.031 175.068 143.969C174.801 144.103 174.668 144.503 174.934 144.77C174.934 145.036 175.334 145.17 175.468 145.17C175.601 145.17 175.601 145.17 175.735 145.17C181.068 142.902 184.268 138.501 187.068 133.966C186.401 138.634 182.934 141.969 178.934 145.437C178.668 145.57 178.668 145.97 178.801 146.237C178.801 146.504 179.201 146.637 179.468 146.637C194.001 146.237 195.868 135.833 197.068 129.03C197.468 126.896 197.868 124.896 198.535 123.829C197.735 132.098 196.935 139.834 188.668 145.703C188.401 145.837 188.268 146.237 188.401 146.504C188.401 146.77 188.801 146.904 189.068 146.904C201.068 146.37 203.601 138.367 205.335 133.032C206.001 131.031 206.401 129.431 207.201 128.63C207.201 133.432 204.934 137.434 202.801 141.302C202.401 141.969 202.001 142.769 201.601 143.436C201.601 143.703 201.601 143.969 201.601 144.103C201.601 144.236 202.001 144.369 202.134 144.369C206.268 144.103 209.601 142.369 212.001 139.034C222.401 124.896 214.668 85.9479 209.068 64.0731C203.335 43.1321 192.801 14.3214 167.468 6.58521C162.401 5.25139 156.401 3.78418 150.801 3.78418Z" fill="#564C47"/>
<path d="M111.068 147.971C99.7342 147.171 97.0675 139.301 95.3341 130.898C92.4008 135.033 92.9342 139.434 93.7342 144.37V144.636C93.6009 144.77 93.3342 144.903 93.2008 145.17C93.2008 145.17 93.0674 145.17 92.9341 145.17C92.8007 145.17 92.8008 145.17 92.6675 145.17C78.4008 132.365 81.8675 109.823 85.0675 90.0828C86.1342 83.0135 87.2008 76.3444 87.4674 70.4756C88.8008 26.7261 102.534 4.45117 128.401 4.45117C154.268 4.45117 133.867 4.71794 136.801 5.11809C136.934 5.11809 137.068 5.25146 137.068 5.51823C136.934 6.71867 136.267 7.65236 135.601 8.45265C135.201 8.98618 134.934 9.38633 134.667 9.91986C134.667 9.91986 134.534 10.0532 134.401 10.0532C133.868 10.0532 133.467 10.0532 132.934 10.0532C118.801 10.0532 110.667 19.1233 104.801 28.3267C105.467 28.0599 105.868 27.5264 106.401 26.8594C106.534 26.5927 106.801 26.4593 106.934 26.1925C112.934 19.5234 121.067 11.9206 130.667 11.9206C140.267 11.9206 132.134 11.9206 132.801 11.9206C132.801 11.9206 133.068 11.9206 133.068 12.054V12.3207C132.534 13.6546 132.267 15.1218 132.001 16.4556C131.467 18.9899 131.067 21.7909 128.534 23.1247C120.001 29.6605 112.667 38.0636 106.267 48.6008C96.5341 61.2722 95.2008 87.5486 103.334 109.823C109.201 126.096 118.534 136.367 129.734 138.901C129.868 138.901 130.001 139.034 130.001 139.168C130.267 141.702 130.268 142.902 129.734 143.703C129.068 144.503 127.867 144.636 126.134 144.77C125.467 144.77 124.801 144.903 124.267 144.903C119.867 144.903 116.934 142.636 113.734 140.235C112.534 139.301 111.201 138.367 109.867 137.434C109.201 140.768 110.134 143.703 111.734 147.037V147.304C111.734 147.304 111.601 147.437 111.467 147.437L111.068 147.971Z" fill="#564C47"/>
<path d="M128.134 4.9843C130.801 4.9843 133.601 5.25106 136.534 5.65121C136.268 7.38518 134.934 8.58563 134.267 10.0528C133.734 10.0528 133.334 10.0528 132.801 10.0528C119.067 10.0528 110.801 18.456 104.001 29.1266C105.601 29.1266 106.268 27.7927 107.068 26.8591C113.068 20.1899 121.068 12.5871 130.534 12.5871C140.001 12.5871 131.868 12.5871 132.534 12.5871C130.801 16.1884 131.734 21.257 128.134 23.2577C118.934 30.327 111.734 38.9969 105.734 48.8672C88.2676 71.4089 99.3342 133.032 129.334 139.701C129.868 144.236 129.601 144.636 125.734 144.903C125.068 144.903 124.401 145.036 123.868 145.036C117.734 145.036 114.268 140.368 109.201 137.3C108.401 140.901 109.201 144.102 111.068 147.704C99.8676 146.903 97.2008 139.167 95.4675 130.231C92.0008 134.766 92.5342 139.701 93.3342 144.636C93.0675 144.769 92.9341 145.036 92.8008 145.169C73.7341 127.963 86.8008 93.1502 87.6008 70.7419C88.5341 41.9313 94.9341 5.11769 128.134 5.11769M128.134 4.31738C113.067 4.31738 101.868 11.9202 95.0676 26.7257C90.1342 37.5297 87.4674 51.935 86.9341 70.6086C86.6674 76.4774 85.7342 83.1465 84.5342 90.2158C81.4675 110.09 77.8674 132.765 92.2674 145.703C92.2674 145.703 92.5342 145.836 92.6675 145.836C92.8008 145.836 93.0675 145.836 93.2009 145.57C93.3342 145.436 93.4676 145.303 93.7342 145.169C93.8676 145.036 94.0008 144.769 94.0008 144.503C93.2008 139.968 92.8009 135.833 95.0676 131.965C96.8009 140.101 99.7341 147.704 110.934 148.504C111.201 148.504 111.334 148.504 111.467 148.237C111.467 148.104 111.601 147.837 111.467 147.57C110.001 144.503 109.067 141.702 109.467 138.634C110.667 139.434 111.867 140.234 112.934 141.168C116.134 143.569 119.201 145.97 123.734 145.97C128.268 145.97 125.068 145.97 125.734 145.836C127.601 145.836 128.801 145.57 129.467 144.636C130.267 143.702 130.134 142.235 129.868 139.834C129.868 139.567 129.601 139.301 129.334 139.301C118.268 136.766 109.068 126.629 103.201 110.357C95.2009 88.0817 96.4008 61.9387 106.134 49.4007C112.534 38.8635 119.734 30.5938 128.267 24.058C130.801 22.5908 131.334 19.7898 131.868 17.1221C132.134 15.7883 132.401 14.3211 132.934 12.9873C132.934 12.8539 132.934 12.5871 132.934 12.3203C132.934 12.187 132.668 12.0536 132.401 11.9202C131.734 11.9202 130.934 11.9202 130.267 11.9202C120.667 11.9202 112.668 19.2562 106.668 25.9254C112.401 17.9224 120.001 10.7198 132.534 10.7198C133.068 10.7198 133.468 10.7198 134.001 10.7198C134.268 10.7198 134.534 10.5864 134.668 10.3196C134.934 9.78607 135.201 9.38593 135.601 8.85239C136.267 8.0521 136.934 6.98504 137.068 5.7846C137.068 5.38445 136.934 5.11768 136.534 4.9843C133.601 4.45077 130.801 4.31738 128.001 4.31738H128.134Z" fill="#564C47"/>
<path d="M66.9334 390.194C63.0667 397.263 53.4667 399.397 51.6 407.4C51.6 409.401 49.0667 411.002 48.2667 409.401C43.0667 395.263 11.0668 349.512 22.5335 338.442C65.7335 309.097 45.8668 368.853 67.0668 390.194H66.9334Z" fill="white"/>
<path d="M22.4004 910.786C23.6004 908.919 25.3336 908.519 26.8003 907.718C37.2003 903.45 46.8003 896.381 57.467 893.313C84.5336 893.713 110.8 885.71 136 877.44C137.2 883.576 138.4 889.712 139.734 896.114C100.667 900.516 62.0004 913.187 22.4004 910.653V910.786Z" fill="#E8E1DD"/>
<path d="M196.933 226.934C188.4 215.196 183.067 199.057 167.2 211.461C170.8 196.122 180 181.317 178.534 164.644C178.534 159.442 172.533 154.64 173.6 149.038C191.067 156.908 196.267 180.917 206.267 195.722C208 204.392 198.8 216.663 197.067 226.8L196.933 226.934Z" fill="#D1CDCB"/>
<path d="M127.201 157.708C124.267 166.511 120.534 172.914 123.334 181.984C126.001 194.388 130.134 205.592 132.534 217.997C119.067 205.726 114.267 217.197 103.601 224.933C104.134 213.862 92.2674 190.92 96.5341 185.852C106.401 173.981 110.267 160.509 127.201 157.841V157.708Z" fill="#D1CDCB"/>
<path d="M281.867 363.917C279.601 366.185 276.401 367.252 274.401 370.32C278.001 370.32 279.867 367.252 282.934 366.452C285.067 370.587 285.734 375.255 286.534 379.923C280.401 384.592 273.334 386.859 266.401 389.26C255.467 388.193 248.001 397.93 237.601 400.197C232.267 394.996 234.934 387.259 232.534 380.857C231.467 375.788 232.267 374.721 236.934 372.454C242.801 369.519 281.067 354.581 281.734 363.917H281.867Z" fill="#D1CDCB"/>
<path d="M133.467 379.79C133.734 385.659 132.667 389.527 132.534 395.262C118.934 394.328 105.334 394.862 92.2669 390.727C88.4002 389.393 87.867 388.593 88.5337 384.458C89.067 381.524 88.667 378.456 90.4004 375.521C104.667 376.722 118.667 379.39 133.334 379.656L133.467 379.79Z" fill="#B28B79"/>
<path d="M261.068 913.987C262.801 925.858 260.401 967.474 242.934 943.465C238.134 935.462 231.867 926.525 230.801 917.322C240.667 929.86 254.534 929.193 260.934 913.987H261.068Z" fill="#E8E1DD"/>
<path d="M186.667 395.662C179.601 396.996 172.667 396.596 165.334 397.13C166.667 391.528 166.267 386.326 166.134 380.857C181.201 381.524 189.467 376.455 186.667 395.662Z" fill="#B28B79"/>
<path d="M207.6 392.595C201.6 394.462 196.001 394.996 189.867 395.796C189.334 390.594 190.534 385.392 187.867 380.324C194.401 379.523 200.4 378.723 206.934 377.923C208.8 382.591 207.467 387.393 207.6 392.462V392.595Z" fill="#B28B79"/>
<path d="M114.267 908.386C113.067 906.652 112.801 905.318 112.801 903.85C117.334 901.983 135.467 899.449 140.801 899.982C141.334 902.25 142.401 904.517 142.401 907.719C133.068 909.453 123.734 908.519 114.401 908.519L114.267 908.386Z" fill="#CEAE9F"/>
<path d="M150.001 397.53C145.734 397.129 136.667 399.264 136.401 392.995C137.467 388.726 133.067 378.189 140.134 378.589C145.867 378.856 151.601 378.989 157.067 379.923C162.667 380.857 162.667 380.723 162.801 386.592C163.201 397.263 159.867 398.33 150.001 397.53ZM147.734 379.523C142.267 379.256 138.267 378.989 139.067 385.659C138.667 394.862 139.067 395.262 148.001 396.463C157.467 397.796 158.801 395.129 159.334 386.592C160.134 380.723 151.867 379.123 147.734 379.523Z" fill="#EACC4B"/>
<path d="M196.534 423.539C201.334 423.006 204.934 422.072 209.068 422.339C211.334 427.541 212.401 433.01 214.001 439.412C206.401 435.41 201.468 430.075 196.534 423.406V423.539Z" fill="#174075"/>
<path d="M178.267 148.638C178.001 149.705 175.734 148.371 176.667 147.571C177.067 146.904 179.067 147.971 178.267 148.638Z" fill="white"/>
<path d="M299.067 511.172L299.334 510.905C299.468 511.305 299.734 511.572 299.334 511.839C299.334 511.706 299.067 511.439 299.067 511.305V511.172Z" fill="white"/>
<path d="M322.801 527.711C323.868 528.378 322.801 529.445 322.134 528.378C322.401 528.111 322.534 527.844 322.801 527.711Z" fill="white"/>
<path d="M93.3344 144.503C94.1348 145.303 92.9342 146.37 92.8008 145.036C92.9342 144.903 93.201 144.636 93.3344 144.503Z" fill="white"/>
<path d="M201.734 144.904C201.468 144.904 201.334 144.637 201.067 144.637C201.334 144.103 201.601 144.503 202.001 144.637C202.001 144.637 201.868 144.904 201.734 144.904Z" fill="white"/>
<path d="M153.067 57.2705C153.467 57.5373 153.734 57.804 154.134 58.0708C153.867 58.3376 153.6 58.6043 153.334 59.0045C152.934 58.7377 152.534 58.471 152.134 58.2042C152.4 57.9374 152.801 57.6707 153.067 57.4039V57.2705Z" fill="white"/>
<path d="M152.001 58.0707C150.267 57.137 152.001 55.5364 152.935 57.2704C152.668 57.5372 152.268 57.804 152.001 58.0707Z" fill="white"/>
<path d="M176.934 71.4092C177.735 72.3429 176.534 73.5433 176.134 72.0761C176.401 71.8093 176.667 71.5426 176.934 71.4092Z" fill="white"/>
<path d="M111.601 826.889C108.934 826.489 106.534 826.222 104.267 825.955C103.467 824.888 104.001 824.221 104.534 823.421C109.245 823.243 111.601 824.399 111.601 826.889Z" fill="#141414"/>
<path d="M93.6001 823.954C95.6001 819.419 98.6668 823.287 100.667 822.354C101.733 823.287 101.6 824.088 100.933 825.421C98.6668 825.421 96.2668 825.288 93.4668 824.088L93.6001 823.954Z" fill="#141414"/>
<path d="M124.134 827.155C123.734 826.222 123.601 825.421 124.134 824.621C125.467 823.954 127.067 824.621 128.401 824.488C129.067 825.421 129.467 826.222 129.067 827.422C127.334 828.089 125.601 827.555 124.001 827.289L124.134 827.155Z" fill="#141414"/>
<path d="M85.6003 820.353C87.7336 820.086 89.7336 820.353 91.6003 821.153C91.867 823.554 90.667 823.954 88.8003 823.421C87.2003 823.021 84.8003 823.688 85.6003 820.353Z" fill="#141414"/>
<path d="M114.8 827.156C114.267 824.621 115.2 823.821 116.933 824.088C118.667 824.355 121.334 823.154 121.2 826.889C119.067 827.689 117.067 826.889 114.8 827.156Z" fill="#141414"/>
<path d="M132.267 824.755C134.667 824.399 136.045 825.111 136.4 826.889C133.733 827.512 132.355 826.8 132.267 824.755Z" fill="#141414"/>
<path d="M207.867 831.157C208.134 831.957 207.867 832.624 207.467 833.424C205.734 833.824 204.134 833.157 202.667 832.491C203.111 830.623 204.845 830.179 207.867 831.157Z" fill="#141414"/>
<path d="M237.2 834.625C235.2 830.356 242.934 829.823 241.734 833.958C240.4 834.891 238.8 834.625 237.2 834.625Z" fill="#141414"/>
<path d="M210.667 833.958C210.134 829.556 217.067 830.623 215.2 834.491C213.734 834.625 212.267 834.758 210.667 833.958Z" fill="#141414"/>
<path d="M245.734 833.692C245.556 831.646 246.711 830.49 249.2 830.224C249.734 830.891 250.267 831.691 250 832.758C248.8 833.958 247.2 833.425 245.734 833.692Z" fill="#141414"/>
<path d="M253.334 832.891C253.334 830.579 254.534 829.334 256.934 829.156C258.267 832.624 255.467 832.224 253.334 832.891Z" fill="#141414"/>
<path d="M233.2 834.625C231.334 835.025 229.6 834.892 227.6 834.892C227.2 833.024 227.2 831.691 229.467 831.824C231.2 831.824 233.734 831.024 233.067 834.758L233.2 834.625Z" fill="#141414"/>
<path d="M223.867 834.758C221.734 834.758 220.001 835.025 218.134 834.491C217.467 831.156 219.734 831.69 221.467 831.557C223.334 831.557 224.667 831.957 223.867 834.624V834.758Z" fill="#141414"/>
<path d="M261.201 830.89C260.134 828.756 262.801 826.355 263.734 828.889C263.734 830.623 262.801 830.89 261.201 830.89Z" fill="#141414"/>
<path d="M125.734 64.4732C126.401 74.4769 125.334 84.2139 121.468 93.5507C122.801 96.3517 126.401 94.7511 127.734 97.152C124.268 99.0193 117.468 96.8852 118.668 92.7503C123.468 83.8137 122.268 73.6766 124.668 64.3398C125.068 64.3398 125.468 64.3399 125.734 64.4732Z" fill="#141414"/>
<path d="M190.001 93.2838C190.001 97.9522 188.801 98.8859 183.201 98.3523C184.134 96.485 186.934 97.4187 187.6 95.1512C187.6 93.2838 185.467 92.4835 184.267 91.1497C178.534 85.1475 189.467 83.8136 194.001 83.5469C192.534 87.8151 187.867 86.0811 185.201 88.7488C189.734 89.8159 194.667 89.1489 196.534 94.6176C193.867 95.5513 192.934 92.6169 191.067 92.4835C190.134 91.6832 189.201 92.2167 190.001 93.4172V93.2838Z" fill="#141414"/>
<path d="M148.8 72.4767C149.467 75.9447 145.734 81.4133 143.2 76.6116C140.4 69.8091 148 62.3396 148.8 72.4767Z" fill="#141414"/>
<path d="M110.934 79.5458C107.867 76.6114 107.201 71.5428 109.467 68.8752C115.467 65.1405 115.334 76.2112 110.934 79.5458Z" fill="#141414"/>
<path d="M147.733 379.523C151.867 378.989 160.133 380.723 159.333 386.592C158.8 395.128 157.333 397.663 148 396.462C138.933 395.262 138.667 394.862 139.067 385.658C138.267 379.123 142.267 379.256 147.733 379.523ZM156.267 384.458C151.467 382.057 146.4 382.59 141.6 382.59C142.133 386.192 139.733 391.661 144.133 392.861C152.267 394.462 157.6 395.395 156.267 384.458Z" fill="#141414"/>
<path d="M190.001 93.2839C189.2 92.0835 190.134 91.55 191.068 92.3503C190.668 92.617 190.401 93.0172 190.001 93.2839Z" fill="white"/>
<path d="M156.267 384.458C157.601 395.395 152.267 394.462 144.134 392.861C139.734 391.661 142.134 386.192 141.601 382.591C146.401 382.591 151.467 382.057 156.267 384.458Z" fill="#B28B79"/>
<path d="M142.934 109.157C141.867 107.289 140.8 105.955 138.934 104.755C138.534 105.955 138.667 107.022 139.067 108.089C131.867 110.757 124.4 109.557 116.934 110.224C123.867 113.158 133.334 114.092 139.334 108.49C140.134 110.09 141.734 111.291 143.6 111.157C143.334 110.357 143.067 109.69 142.8 109.023L142.934 109.157Z" fill="black"/>
<path d="M330.267 510.638C324 468.89 297.334 483.028 288.4 457.419C284.134 434.343 285.334 410.601 281.067 387.66C285.067 385.125 291.734 383.525 290.134 377.389C288.534 365.118 280.934 354.314 278 342.976C280.934 333.506 267.867 332.839 268.667 324.036C266.4 292.958 260 262.413 256.267 231.468C253.6 219.197 254.934 197.856 237.734 198.523C238.667 189.586 211.6 187.452 204.934 185.852C197.2 172.513 192.134 156.908 179.067 149.038C191.067 144.37 208 154.373 215.6 138.768C227.2 107.423 211.734 44.5994 190.667 18.9899C176.667 2.05031 158.267 0.449721 137.734 2.85061C95.7337 -3.41838 86.0003 35.5294 84.8003 71.676C83.3336 90.2162 69.3336 147.838 97.467 149.438C98.1336 147.571 95.467 146.37 96.667 144.636C98.267 143.969 98.667 145.303 99.3337 145.97C103.467 150.105 108.8 150.905 114.267 150.772C120.134 149.838 111.2 145.437 111.467 142.502C116.4 146.904 122.267 148.371 128.8 147.971C128.8 150.772 128.134 153.173 127.6 155.574C103.734 156.507 105.467 177.582 91.2004 184.251C80.5337 185.051 70.4004 187.719 60.4004 191.32C40.0004 202.258 34.2669 236.804 24.9336 256.811C21.7336 270.283 9.73373 284.822 16.4004 298.693C18.8004 302.695 18.4004 305.629 14.4004 308.297C7.33373 313.365 14.8004 321.235 14.4004 327.371C8.0004 347.111 37.3337 392.061 46.4004 411.802C51.0671 423.139 39.7337 435.944 58.5337 441.946C59.2004 441.413 59.3336 440.612 59.467 439.812C52.1336 436.478 49.3336 432.743 50.1336 426.874C52.9336 431.676 55.467 435.944 60.667 437.011C47.3337 504.503 65.7336 573.195 68.2669 640.953C66.8003 702.576 68.267 764.065 76.667 825.155C77.067 829.156 76.9336 829.69 82.1336 830.49C89.3336 831.157 96.5336 832.091 103.6 832.757C90.9336 878.508 55.867 888.245 19.2004 908.652C9.06703 923.724 102.667 904.784 110 903.85C110.934 906.385 110.667 910.386 114 910.653C123.2 911.186 132.4 911.453 141.467 910.386C147.067 910.253 146 905.451 144.8 901.316C138.534 879.441 137.2 856.9 136.267 834.225C151.2 833.558 148.267 821.42 148.8 809.816C149.2 712.18 146.667 614.41 153.2 516.907C163.067 621.213 190.667 722.717 193.734 827.689C191.6 843.828 208.267 840.627 220.134 842.494C222.134 855.966 221.467 869.037 221.067 882.509C218.534 896.381 239.2 969.608 259.067 950.268C276 914.654 256.934 877.307 248.534 842.228C256.267 840.894 269.467 839.16 271.6 830.89C272.4 796.344 267.867 762.065 265.6 727.652C256.534 671.898 252.267 615.877 246.534 559.59C241.467 497.834 223.867 437.545 210.8 378.723C210 375.522 214 373.921 215.334 371.52C227.2 354.447 205.334 345.911 218.534 315.5C220.667 318.434 224 334.573 222.934 338.175C220.8 344.31 226.534 348.045 228.934 352.847C224.534 358.315 227.6 366.318 230.534 372.187C225.6 378.056 231.2 385.525 230.534 392.328C230.8 398.464 233.867 401.931 239.467 403.532C248.267 430.209 263.734 454.751 267.867 482.761C268.4 497.7 281.067 507.037 288.667 518.641C291.2 523.576 297.867 521.176 298.8 516.107C299.334 514.64 298.4 512.906 300 511.439C307.067 511.839 328.4 547.719 326.4 526.644C328.8 525.444 329.6 523.31 329.2 520.509C329.6 517.174 331.734 514.106 330.267 510.505V510.638ZM323.334 496.233L186 159.442C193.6 171.18 199.467 183.717 206.267 195.855C208 204.659 198.8 216.796 197.067 226.933C188.534 215.196 183.2 199.056 167.334 211.461C170.934 196.122 180.134 181.317 178.667 164.644C178.667 159.442 173.734 156.507 174.667 150.905C179.067 153.039 183.2 155.04 186 159.308L323.334 496.233ZM138.534 7.78577C154.934 -0.617334 177.867 8.18592 188.934 22.0577C205.6 35.9295 234 142.502 202.134 143.836C204.8 138.901 208.4 133.832 207.867 127.563C203.067 128.897 206.534 145.57 189.067 146.237C198 139.835 198.534 131.165 199.334 122.495C194 123.429 200.4 145.303 179.467 145.97C184.267 141.835 188.267 137.7 188 131.298C185.067 136.1 177.2 142.902 175.734 144.103C181.334 132.765 182 120.894 181.2 108.49C205.734 116.626 216.134 75.6775 186.267 74.0769C185.734 68.6083 185.2 63.0062 182.534 57.8043C179.867 60.3385 188.667 76.3444 180.667 76.0777C178.667 66.2074 175.467 55.8035 168.134 48.3341C170.8 56.0703 175.6 63.1396 176.934 71.4093C163.467 60.2051 118.534 33.2619 138.667 7.78577H138.534ZM125.734 144.903C118.4 145.97 114.8 140.635 109.2 137.3C108.4 140.902 109.2 144.103 111.067 147.704C99.8671 146.904 97.2003 139.168 95.467 130.231C92.0003 134.766 92.5337 139.701 93.3337 144.636C73.467 127.563 86.6669 93.5508 87.6003 70.7424C88.5336 39.6642 95.867 -0.884099 136.534 5.78503C136.267 7.51901 134.934 8.71944 134.267 10.1867C119.6 9.51974 111.067 18.1896 104 29.127C112.4 22.858 120.134 10.8536 132.667 12.7209C130.934 16.3223 131.867 21.3908 128.267 23.3915C119.067 30.4608 111.867 39.1307 105.867 49.001C88.4004 71.5427 99.467 133.165 129.467 139.835C130 144.37 129.734 144.77 125.867 145.036L125.734 144.903ZM131.334 152.506C146.4 148.771 158.134 140.101 166.934 127.43C152.4 135.7 130.934 143.836 117.334 129.431C103.467 118.093 84.4003 49.5345 118.134 59.2715C115.734 54.8698 113.867 54.3363 106.4 55.6701C107.734 48.7342 120.267 32.5949 130.267 24.9921C132.4 38.4638 142.4 46.7335 151.2 56.2037C145.067 54.7365 139.2 53.2692 134.8 59.2715C141.334 56.8706 147.334 57.2707 153.6 60.7387C153.467 59.805 153.334 59.2715 153.334 58.8713C152.8 58.2044 150.8 57.6709 151.734 56.6038C152.4 55.9369 152.8 56.7372 153.2 57.1373C162 64.2066 171.867 70.0755 178.267 80.4793C208.667 63.4063 208.934 118.627 178.267 103.421C178.267 115.292 178.267 126.496 173.334 136.9V124.362C172.934 124.362 172.667 124.362 172.267 124.362C170.267 130.498 169.867 136.9 170.267 143.303C169.334 144.903 167.067 143.703 166.267 145.437C167.067 147.704 169.334 147.171 171.2 148.371C170.8 160.776 178.4 159.975 174.934 175.448C172.267 191.987 164 206.659 160 222.799C156.4 233.202 154.534 244.54 150.134 254.544C140.667 233.069 133.467 210.527 126.534 188.119C120.8 175.848 127.734 164.51 131.2 152.639L131.334 152.506ZM96.4004 185.718C106.267 173.847 110.134 160.376 127.067 157.708C113.867 178.516 128.134 197.056 132.4 217.863C118.934 205.592 114.134 217.063 103.467 224.799C104 213.729 92.1337 190.787 96.4004 185.718ZM32.4004 294.692C40.4004 299.093 45.467 300.294 50.0003 298.56C45.7337 297.226 42.667 296.959 38.8003 294.558C42.1336 293.358 45.4671 292.558 47.0671 289.09C50.2671 278.819 27.7337 283.221 22.0003 283.754C19.467 284.955 18.5337 283.488 19.867 281.087C31.067 253.477 37.867 222.265 55.467 198.256C60.0003 207.86 63.7337 217.863 70.4004 226.4C68.5337 215.463 62.4003 206.259 58.8003 195.722C69.467 191.454 80.267 188.653 92.0003 186.919C93.467 200.39 100.667 212.395 100.534 226.4C100.667 229.334 102.134 230.001 104.534 228.001C111.2 224.666 117.867 211.461 125.734 216.796C140.534 224.666 140.934 243.873 148.134 257.611C147.067 284.822 130.667 278.419 150.667 308.43C152.267 311.365 152.134 311.498 150.4 315.233C142 313.365 133.6 310.965 125.334 308.297C132.267 313.766 140.8 315.366 148.934 318.167C148.934 320.168 147.867 321.635 146.934 322.969C140 332.439 154.134 334.84 149.2 341.643C141.067 336.441 133.334 330.839 126.4 323.503C128 334.973 150.267 340.976 148.267 347.111C144.667 346.711 140.934 346.044 136.267 346.178C140.4 349.512 143.867 348.312 148.4 349.512C149.467 358.049 148.8 366.452 148.934 374.988C144 375.522 138.8 373.388 134.667 376.722C127.734 378.189 119.867 375.922 112.667 374.855C113.734 369.119 115.2 363.517 114.267 357.648C111.734 362.984 111.6 368.719 111.734 374.455C101.2 377.256 95.6004 362.183 94.5337 354.981C98.8004 356.581 100 360.85 102.667 364.051C101.2 344.844 79.6003 346.844 100.134 372.987C88.5336 375.522 85.7337 361.25 81.2004 353.514C76.4004 337.108 88.9337 318.967 81.867 302.695C65.6004 268.949 72.667 269.082 75.3337 235.603C74.4003 235.603 74.1337 236.137 74.0003 236.804C71.467 252.943 62.5337 270.55 70.5337 286.289C74.1337 294.558 62.8004 305.229 61.0671 314.432C49.3337 302.028 34.9336 304.429 20.1336 305.896C24.1336 299.76 16.4004 295.359 17.7337 287.489C26.4004 286.689 34.6669 285.889 43.6003 287.489C41.4669 293.358 35.0671 291.357 30.4004 292.024C29.3337 294.425 31.3337 294.558 32.4004 295.092V294.692ZM153.6 445.814C153.334 448.615 152.667 451.15 149.067 451.95C147.067 435.144 145.067 418.604 143.867 401.531C147.334 401.531 150.4 401.265 153.6 401.665C154.4 416.203 154.8 431.142 153.6 445.814ZM150 397.53C145.734 397.13 136.667 399.264 136.4 392.995C137.467 388.727 133.067 378.189 140.134 378.59C145.867 378.856 151.6 378.99 157.067 379.923C162.667 380.857 162.667 380.724 162.8 386.592C163.2 397.263 159.867 398.33 150 397.53ZM133.067 387.793C132.8 390.194 132.667 392.461 132.534 395.262C118.934 394.329 105.334 394.862 92.2669 390.727C88.4003 389.393 87.867 388.593 88.5337 384.458C89.067 381.524 88.6671 378.456 90.4004 375.522C104.667 376.722 118.667 379.39 133.334 379.657C133.6 382.724 133.334 385.259 132.934 387.66L133.067 387.793ZM66.2669 419.938C66.2669 421.539 65.467 422.739 64.667 424.073C57.467 424.073 56.5337 414.336 55.2004 408.867C54.667 404.999 57.7336 403.132 60.1336 400.598C60.0003 408.467 61.4669 413.136 66.2669 419.805V419.938ZM70.0003 392.061C70.267 400.331 70.267 400.464 74.667 404.599C72.4003 408.601 70.267 412.602 67.867 416.737C60.0004 404.999 62.4003 399.664 70.0003 392.061ZM81.3337 386.059C77.3337 383.525 74.5337 383.791 69.2004 387.126C61.867 374.188 51.6003 355.648 60.8003 341.376C64.0003 338.308 62.4004 332.439 65.0671 328.971C69.0671 325.37 66.0003 321.368 63.467 318.167C66.9336 309.764 70.1336 301.761 73.467 293.758C91.2003 320.035 61.067 348.845 88.5337 371.92C84.8004 378.056 86.0004 385.259 84.5337 392.195C82.9337 390.594 83.7336 388.993 82.8003 387.393C79.467 391.261 78.9336 396.596 76.2669 400.731C71.2003 394.996 73.2003 389.527 81.467 386.059H81.3337ZM17.467 328.704C21.067 323.636 10.5337 314.966 17.7337 311.231C30.2671 307.497 46.1337 305.496 56.667 314.966C51.7337 314.299 47.2003 313.232 41.467 314.166C50.0003 318.034 60.5337 314.432 63.7337 324.97C60.2671 328.038 60.5336 332.439 59.467 336.574C47.2003 321.368 30.267 326.837 17.2004 338.441C15.6004 334.573 15.7336 331.505 17.6003 328.571L17.467 328.704ZM49.867 410.068C48.667 410.335 48.4003 409.934 48.2669 409.534C40.8003 394.595 32.6671 379.923 25.7337 364.718C16.9337 344.577 15.6003 337.641 38.667 330.839C59.067 324.97 50.1336 373.521 66.9336 390.327C63.0669 397.396 53.4669 399.531 51.6003 407.534C51.4669 409.001 50.667 409.801 50.0003 410.068H49.867ZM51.6003 411.802C54.1336 418.604 55.0669 426.607 63.6003 428.208C62.5336 430.342 62.667 432.209 61.467 433.543C54.5336 431.809 48.6669 419.271 51.6003 411.802ZM69.867 885.043C87.3337 873.172 101.334 854.365 105.6 833.558C114.934 833.558 123.867 835.425 133.467 834.625C134.134 848.23 134.134 861.168 135.734 873.839C118.934 882.109 82.267 890.379 61.2004 890.779C64.0004 888.111 67.3337 887.044 69.867 885.043ZM142.267 907.585C132.934 909.319 123.6 908.385 114.267 908.385C113.067 906.651 112.8 905.318 112.8 903.85C117.334 901.983 135.467 899.449 140.8 899.982C141.334 902.25 142.4 904.517 142.4 907.718L142.267 907.585ZM136.134 877.574C137.334 883.71 138.534 889.845 139.867 896.248C100.8 900.649 62.1337 913.32 22.5337 910.786C33.3337 903.984 45.7336 897.848 57.6003 893.313C84.6669 893.847 110.934 885.71 136.134 877.441V877.574ZM148.934 525.577C143.334 624.814 144.934 724.317 144.534 823.687C142.534 823.954 141.2 824.088 139.734 824.221C139.734 826.088 140.978 827.155 143.467 827.422C145.867 837.026 88.1336 825.822 79.6003 826.088C79.4669 824.488 79.3337 823.421 79.2004 822.62C79.867 821.02 81.3336 822.62 82.1336 821.286C82.4003 819.019 80.1337 819.953 78.667 818.752C67.867 749.527 74.4003 679.634 69.3337 610.142C64.8003 557.856 55.3337 505.036 61.7337 452.484C80.0004 450.75 98.1336 441.279 108.8 426.741C106.4 425.407 105.467 427.408 104.267 428.341C92.4003 438.745 78.667 447.815 62.667 450.216C61.867 446.881 63.467 443.814 63.867 440.746C83.7337 436.611 100.8 427.941 105.067 419.538C103.334 418.871 102.534 420.205 101.467 420.872C90.267 428.875 78.5337 435.811 64.5337 438.078C68.267 420.738 77.467 406.333 86.667 391.928C104.134 400.864 124.267 394.462 141.867 401.398C142.134 443.013 152.534 483.695 148.667 525.444L148.934 525.577ZM258.267 944.799C250.934 966.14 230.8 925.325 230.8 917.322C240.667 929.86 254.534 929.193 260.934 913.987C262 924.525 261.2 934.795 258.267 944.799ZM254.934 875.973C260.934 889.979 264.8 907.985 252.934 920.123C249.467 923.858 245.334 924.258 240.534 921.19C231.734 915.588 226 907.852 224.934 897.048C222.267 878.908 227.6 861.301 222.267 843.295C230 843.295 237.067 843.695 244.267 843.295C248.667 853.965 249.467 865.703 254.934 876.107V875.973ZM222.934 442.613C220.134 442.88 218.4 441.413 216.667 440.879C216.134 434.477 214.267 428.608 212.267 422.739C210 415.67 200.934 421.672 195.467 421.806C193.867 419.671 192.134 417.404 190.4 415.003C190.4 427.408 209.867 444.881 223.734 447.948C207.067 447.948 194.267 436.211 186.534 422.472C192 441.546 205.734 450.349 224.667 451.95C247.334 563.991 254.134 679.234 266.8 792.876C267.6 802.613 267.734 812.483 267.734 822.22C267.734 823.821 268.267 825.688 266.4 826.889C265.6 827.422 265.6 828.889 266.4 829.289C268.534 830.49 267.067 831.957 267.467 833.291C246.4 842.361 222.267 839.96 200.4 835.959C198.4 835.425 197.467 834.225 197.734 832.091C198.267 831.29 199.6 832.091 200 830.89C188.267 706.711 161.6 579.731 149.6 453.684C163.867 451.683 154.667 413.136 156.667 401.398C173.867 397.663 191.2 400.064 208.8 395.529C215.067 410.601 218.267 426.474 223.067 442.346L222.934 442.613ZM213.867 439.545C206.267 435.544 201.334 430.209 196.4 423.539C201.2 423.006 204.8 422.072 208.934 422.339C211.2 427.541 212.267 433.01 213.867 439.412V439.545ZM166.134 380.857C181.2 381.524 189.467 376.455 186.667 395.663C179.6 396.996 172.667 396.596 165.334 397.13C166.667 391.528 166.267 386.326 166.134 380.857ZM207.6 392.595C201.6 394.462 196 394.996 189.867 395.796C189.334 390.594 190.534 385.392 187.867 380.324C194.4 379.523 200.4 378.723 206.934 377.923C208.8 382.591 207.467 387.393 207.6 392.461V392.595ZM210.134 332.039C205.734 344.31 218.8 356.448 213.2 367.919C209.334 378.189 197.467 374.321 188.267 376.989C191.067 372.321 196 369.92 198 364.718C186.134 369.386 189.067 380.057 172.267 376.989C175.067 371.52 176.667 365.651 181.6 361.383C182.534 365.518 181.334 368.986 180.267 373.121C192.267 357.782 177.867 347.511 169.867 377.256C163.2 379.523 158 374.588 151.734 375.655C152.4 365.651 152 356.181 152 346.444C158.667 348.445 165.067 352.313 172.267 350.312C165.6 348.445 158.934 347.111 152.534 343.51C157.2 330.438 141.6 334.707 152.667 318.967C161.6 321.102 169.867 318.967 178.134 315.5C174.534 322.702 167.2 324.169 161.067 328.171C165.867 330.572 172.134 329.371 178.134 325.236C175.467 324.436 173.6 326.97 170.8 326.304C175.467 321.902 181.867 319.101 183.2 311.098C173.334 313.632 164.667 319.101 154.267 316.166C158 303.495 139.867 295.492 144.667 282.821C149.334 269.082 153.2 255.077 157.867 241.339C162.267 229.734 162.934 210.261 179.2 210.127C188.267 213.195 189.867 226.533 197.6 231.468C199.6 231.068 199.6 229.068 200 227.734C202.134 220.798 204.534 213.995 207.2 207.193C209.334 201.724 212.4 196.255 206 190.12C213.6 192.788 240 192.921 234.8 202.791C223.6 245.34 222.667 289.89 210 332.172L210.134 332.039ZM229.734 358.849C229.734 355.648 234.134 352.847 230.4 349.912C220.134 340.842 230.4 328.971 229.334 318.034C227.2 321.235 226.667 324.436 225.334 327.371C223.867 326.97 224.134 325.637 223.867 324.703C223.2 318.167 220.134 311.765 220.4 305.229C226.4 270.683 232 236.003 236.667 201.324C257.867 197.589 259.867 301.895 264.267 320.035C265.2 325.236 263.6 332.172 269.467 334.84C278.267 338.975 270.934 343.91 274.8 348.445C277.6 350.579 277.6 353.914 279.334 357.248C264.8 358.449 252 363.384 238.934 367.652C239.734 364.584 248.134 354.447 251.6 352.313C252.267 355.381 248.4 356.581 248.8 359.516C251.067 360.316 252.534 358.582 254.4 357.915C252.667 353.78 259.2 350.579 256.934 345.644C249.467 344.177 238 363.517 232.8 368.986C230.8 365.651 230.934 362.05 229.867 358.849H229.734ZM252.4 350.713C252.667 350.713 252.8 350.446 253.067 350.312C253.067 350.312 253.334 350.579 253.467 350.713C253.067 350.846 252.8 351.246 252.534 350.713H252.4ZM237.6 368.186C237.334 368.186 237.2 367.786 237.467 367.519C238 367.519 238.267 367.919 237.6 368.186ZM237.734 400.198C232.4 394.996 235.067 387.259 232.667 380.857C231.6 375.788 232.4 374.721 237.067 372.454C242.934 369.52 281.2 354.581 281.867 363.917C279.6 366.185 276.4 367.252 274.4 370.32C278 370.32 279.867 367.252 282.934 366.452C285.067 370.587 285.734 375.255 286.534 379.923C280.4 384.592 273.334 386.859 266.4 389.26C255.467 388.193 248 397.93 237.6 400.198H237.734ZM299.467 511.705C299.467 511.572 299.2 511.305 299.2 511.172L299.467 510.905C299.6 511.305 299.867 511.572 299.467 511.839V511.705ZM311.867 491.698C310.534 493.966 312.267 494.766 313.334 495.699C320.267 503.302 326.667 513.173 326.267 523.843C319.334 516.374 316.934 502.635 306.934 497.433C305.6 499.568 307.334 500.635 308.4 501.835C314.4 509.571 320.667 517.974 322.934 527.711C324 528.245 322.934 529.445 322.267 528.378C315.334 521.442 310.134 512.772 300.934 508.371C295.867 505.436 293.6 500.768 292.4 495.299C292.134 493.965 292.4 492.365 290.534 491.298C286.667 500.501 300.934 509.838 293.467 517.974C288.4 515.44 287.334 508.504 282.534 505.036C268.667 492.498 272.667 472.624 264.667 457.019C257.6 438.745 248.8 420.872 242.934 402.198C253.334 394.996 265.6 393.395 277.067 388.86C284.934 413.136 270.267 445.414 287.867 463.688C295.334 471.424 317.2 481.828 324.134 495.299C323.467 496.5 314.267 485.562 313.6 485.562C313.334 485.829 312.934 486.096 312.667 486.363C319.734 495.033 326.667 502.769 328.4 514.773C323.867 505.837 320.267 497.167 312 491.565L311.867 491.698Z" fill="#141414"/>
<defs>
<linearGradient id="paint0_linear_2093_9342" x1="57.6003" y1="615.344" x2="269.867" y2="615.344" gradientUnits="userSpaceOnUse">
<stop stop-color="#0ABBEF"/>
<stop offset="0.2" stop-color="#0D9ACF"/>
<stop offset="0.8" stop-color="#14598E"/>
<stop offset="1" stop-color="#174075"/>
</linearGradient>
</defs>
</svg>
