<svg width="661" height="548" viewBox="0 0 661 548" fill="none" xmlns="http://www.w3.org/2000/svg">
<g clip-path="url(#clip0_2562_124529)">
<path d="M614 79.9991H612.386L611.722 78.5281C608.141 70.5994 604.128 59.2278 607.379 45.4258C610.35 32.8138 619.28 18.6024 639.157 3.30092C577.955 3.20537 548.812 43.8282 546.494 77.67L546.335 79.9991H544H40.5C19.7893 79.9991 3 96.7885 3 117.499V506.999C3 527.71 19.7893 544.499 40.5 544.499H620.5C641.211 544.499 658 527.71 658 506.999V117.499C658 96.7885 641.211 79.9991 620.5 79.9991H614Z" fill="white" stroke="black" stroke-width="5"/>
</g>
<defs>
<clipPath id="clip0_2562_124529">
<rect width="660" height="547" fill="white" transform="translate(0.5 0.5)"/>
</clipPath>
</defs>
</svg>
