<svg width="661" height="458" viewBox="0 0 661 458" fill="none" xmlns="http://www.w3.org/2000/svg">
<g clip-path="url(#clip0_2562_124553)">
<path d="M0.5 117.198C0.5 95.107 18.4086 77.1984 40.5 77.1984H47C54 61.6984 62 34.1982 14.5 0.69836C82 -2.80164 114.5 40.6984 117 77.1984H620.5C642.591 77.1984 660.5 95.107 660.5 117.198V416.698C660.5 438.79 642.591 456.698 620.5 456.698H40.5C18.4086 456.698 0.5 438.79 0.5 416.698V117.198Z" fill="white"/>
<path d="M47 79.6984H48.6141L49.2784 78.2273C52.8591 70.2986 56.8723 58.9271 53.6209 45.1251C50.6498 32.513 41.7201 18.3016 21.8425 3.00011C83.0447 2.90456 112.188 43.5274 114.506 77.3692L114.665 79.6984H117H620.5C641.211 79.6984 658 96.4877 658 117.198V416.698C658 437.409 641.211 454.198 620.5 454.198H40.5C19.7893 454.198 3 437.409 3 416.698V117.198C3 96.4877 19.7893 79.6984 40.5 79.6984H47Z" stroke="black" stroke-width="5"/>
</g>
<defs>
<clipPath id="clip0_2562_124553">
<rect width="660" height="457" fill="white" transform="translate(0.5 0.5)"/>
</clipPath>
</defs>
</svg>
