<svg width="661" height="413" viewBox="0 0 661 413" fill="none" xmlns="http://www.w3.org/2000/svg">
<g clip-path="url(#clip0_2562_124531)">
<path d="M0.5 117.499C0.5 95.4077 18.4086 77.4991 40.5 77.4991H47C54 61.9991 62 34.499 14.5 0.999141C82 -2.50086 114.5 40.9991 117 77.4991H620.5C642.591 77.4991 660.5 95.4077 660.5 117.499V372.499C660.5 394.59 642.591 412.499 620.5 412.499H40.5C18.4086 412.499 0.5 394.59 0.5 372.499V117.499Z" fill="white"/>
<path d="M47 79.9991H48.6141L49.2784 78.5281C52.8591 70.5994 56.8723 59.2278 53.6209 45.4258C50.6498 32.8138 41.7201 18.6024 21.8425 3.30092C83.0447 3.20537 112.188 43.8282 114.506 77.67L114.665 79.9991H117H620.5C641.211 79.9991 658 96.7885 658 117.499V372.499C658 393.21 641.211 409.999 620.5 409.999H40.5C19.7893 409.999 3 393.21 3 372.499V117.499C3 96.7885 19.7893 79.9991 40.5 79.9991H47Z" stroke="black" stroke-width="5"/>
</g>
<defs>
<clipPath id="clip0_2562_124531">
<rect width="660" height="412" fill="white" transform="translate(0.5 0.5)"/>
</clipPath>
</defs>
</svg>
