<svg width="973" height="582" viewBox="0 0 973 582" fill="none" xmlns="http://www.w3.org/2000/svg">
<g clip-path="url(#clip0_2562_124559)">
<path d="M926 79.9991H924.386L923.722 78.5281C920.141 70.5994 916.128 59.2278 919.379 45.4258C922.35 32.8138 931.28 18.6024 951.157 3.30092C889.955 3.20537 860.812 43.8282 858.494 77.67L858.335 79.9991H856H41C20.2893 79.9991 3.5 96.7885 3.5 117.499V541.499C3.5 562.21 20.2893 578.999 41 578.999H932.5C953.211 578.999 970 562.21 970 541.499V117.499C970 96.7885 953.211 79.9991 932.5 79.9991H926Z" fill="white" stroke="black" stroke-width="5"/>
</g>
<defs>
<clipPath id="clip0_2562_124559">
<rect width="972" height="581" fill="white" transform="translate(0.5 0.5)"/>
</clipPath>
</defs>
</svg>
