<svg width="660" height="412" viewBox="0 0 660 412" fill="none" xmlns="http://www.w3.org/2000/svg">
<g filter="url(#filter0_b_2636_120972)">
<path d="M660 116.999C660 94.9077 642.091 76.9991 620 76.9991H613.5C606.5 61.4991 598.5 33.999 646 0.499141C578.5 -3.00086 546 40.4991 543.5 76.9991H40C17.9086 76.9991 0 94.9077 0 116.999V371.999C0 394.09 17.9086 411.999 40 411.999H620C642.091 411.999 660 394.09 660 371.999L660 116.999Z" fill="white"/>
<path d="M613.5 79.4991H611.886L611.222 78.0281C607.641 70.0994 603.628 58.7278 606.879 44.9258C609.85 32.3138 618.78 18.1024 638.657 2.80091C577.455 2.70536 548.312 43.3282 545.994 77.17L545.835 79.4991H543.5H40C19.2893 79.4991 2.5 96.2885 2.5 116.999V371.999C2.5 392.71 19.2893 409.499 40 409.499H620C640.711 409.499 657.5 392.71 657.5 371.999V116.999C657.5 96.2885 640.711 79.4991 620 79.4991H613.5Z" stroke="black" stroke-width="5"/>
</g>
<defs>
<filter id="filter0_b_2636_120972" x="-30" y="-29.6992" width="720" height="471.699" filterUnits="userSpaceOnUse" color-interpolation-filters="sRGB">
<feFlood flood-opacity="0" result="BackgroundImageFix"/>
<feGaussianBlur in="BackgroundImageFix" stdDeviation="15"/>
<feComposite in2="SourceAlpha" operator="in" result="effect1_backgroundBlur_2636_120972"/>
<feBlend mode="normal" in="SourceGraphic" in2="effect1_backgroundBlur_2636_120972" result="shape"/>
</filter>
</defs>
</svg>
