<svg width="661" height="548" viewBox="0 0 661 548" fill="none" xmlns="http://www.w3.org/2000/svg">
<g clip-path="url(#clip0_2562_124557)">
<path d="M47 79.9991H48.6141L49.2784 78.5281C52.8591 70.5994 56.8723 59.2278 53.6209 45.4258C50.6498 32.8138 41.7201 18.6024 21.8425 3.30092C83.0447 3.20537 112.188 43.8282 114.506 77.67L114.665 79.9991H117H620.5C641.211 79.9991 658 96.7885 658 117.499V506.999C658 527.71 641.211 544.499 620.5 544.499H40.5C19.7893 544.499 3 527.71 3 506.999V117.499C3 96.7885 19.7893 79.9991 40.5 79.9991H47Z" fill="white" stroke="black" stroke-width="5"/>
</g>
<defs>
<clipPath id="clip0_2562_124557">
<rect width="660" height="547" fill="white" transform="translate(0.5 0.5)"/>
</clipPath>
</defs>
</svg>
