<svg width="661" height="630" viewBox="0 0 661 630" fill="none" xmlns="http://www.w3.org/2000/svg">
<g clip-path="url(#clip0_2562_124573)">
<path d="M0.5 117.499C0.5 95.4077 18.4086 77.4991 40.5 77.4991H47C54 61.9991 62 34.499 14.5 0.999141C82 -2.50086 114.5 40.9991 117 77.4991H620.5C642.591 77.4991 660.5 95.4077 660.5 117.499V588.999C660.5 611.09 642.591 628.999 620.5 628.999H40.5C18.4086 628.999 0.5 611.09 0.5 588.999V117.499Z" fill="white"/>
<path d="M47 79.9991H48.6141L49.2784 78.5281C52.8591 70.5994 56.8723 59.2278 53.6209 45.4258C50.6498 32.8138 41.7201 18.6024 21.8425 3.3009C83.0447 3.20535 112.188 43.8282 114.506 77.67L114.665 79.9991H117H620.5C641.211 79.9991 658 96.7885 658 117.499V588.999C658 609.71 641.211 626.499 620.5 626.499H40.5C19.7893 626.499 3 609.71 3 588.999V117.499C3 96.7885 19.7893 79.9991 40.5 79.9991H47Z" stroke="black" stroke-width="5"/>
</g>
<defs>
<clipPath id="clip0_2562_124573">
<rect width="660" height="629" fill="white" transform="translate(0.5 0.5)"/>
</clipPath>
</defs>
</svg>
