<svg width="1054" height="552" viewBox="0 0 1054 552" fill="none" xmlns="http://www.w3.org/2000/svg">
<g clip-path="url(#clip0_2562_124539)">
<path d="M877.502 253.002C978.502 351.002 913.639 537.317 732.502 479.502C659.002 579.002 500.502 565.002 429.002 493.002C392.502 566.002 259.001 567.002 216.002 493.002C39.5014 550.002 -58.4978 378.502 39.5016 262.502C-3.49842 166.502 83.0019 54.5017 204.502 101.002C256.502 -17.4983 409.002 -24.9983 495.502 61.5017C551.002 11.0017 674.502 6.00177 715.502 91.0018C819.001 42.5018 930.001 141.002 877.502 253.002Z" fill="white"/>
<path d="M875.239 251.941L874.482 253.555L875.761 254.796C925.497 303.055 934.297 372.953 908.575 423.549C895.729 448.818 874.27 469.294 844.926 479.933C815.573 490.575 778.134 491.442 733.262 477.12L731.555 476.575L730.491 478.016C694.324 526.977 637.168 548.126 580.005 548.064C522.798 548.002 465.978 526.688 430.776 491.24L428.323 488.77L426.766 491.884C409.083 527.249 367.675 545.503 324.932 545.627C282.211 545.75 239.081 527.744 218.164 491.746L217.151 490.003L215.234 490.623C127.899 518.827 60.4873 490.436 26.8789 441.217C-6.78331 391.919 -6.88224 321.279 41.4113 264.115L42.4257 262.914L41.7832 261.48C20.7035 214.418 31.373 163.48 62.1545 130.006C92.8668 96.6076 143.771 80.4356 203.608 103.337L205.834 104.188L206.791 102.006C232.397 43.6553 282.695 12.6525 337.328 6.8628C392.019 1.06692 451.021 20.5564 493.734 63.2694L495.421 64.9558L497.185 63.3508C524.348 38.6347 568.389 24.9107 610.762 27.9329C653.071 30.9506 693.243 50.6083 713.251 92.0879L714.325 94.3145L716.563 93.2656C767.346 69.4684 819.871 81.7474 853.276 113.623C886.635 145.455 901.025 196.928 875.239 251.941Z" stroke="black" stroke-width="5"/>
<path d="M926.5 115.5C893.363 115.5 866.5 96.4721 866.5 73C866.5 49.5279 893.363 30.5 926.5 30.5C959.637 30.5 986.5 49.5279 986.5 73C986.5 96.4721 959.637 115.5 926.5 115.5Z" fill="white"/>
<path d="M869 73C869 83.7097 875.125 93.6495 885.519 101.012C895.907 108.37 910.388 113 926.5 113C942.612 113 957.093 108.37 967.481 101.012C977.875 93.6495 984 83.7097 984 73C984 62.2903 977.875 52.3505 967.481 44.988C957.093 37.6298 942.612 33 926.5 33C910.388 33 895.907 37.6298 885.519 44.988C875.125 52.3505 869 62.2903 869 73Z" stroke="black" stroke-width="5"/>
<path d="M1020 48.5C1001.5 48.5 986.5 37.7548 986.5 24.5C986.5 11.2452 1001.5 0.5 1020 0.5C1038.5 0.5 1053.5 11.2452 1053.5 24.5C1053.5 37.7548 1038.5 48.5 1020 48.5Z" fill="white"/>
<path d="M989 24.5C989 30.1138 992.172 35.4291 997.768 39.4383C1003.36 43.4443 1011.21 46 1020 46C1028.79 46 1036.64 43.4443 1042.23 39.4383C1047.83 35.4291 1051 30.1138 1051 24.5C1051 18.8862 1047.83 13.5709 1042.23 9.56172C1036.64 5.55571 1028.79 3 1020 3C1011.21 3 1003.36 5.55571 997.768 9.56172C992.172 13.5709 989 18.8862 989 24.5Z" stroke="black" stroke-width="5"/>
</g>
<defs>
<clipPath id="clip0_2562_124539">
<rect width="1053" height="551" fill="white" transform="translate(0.5 0.5)"/>
</clipPath>
</defs>
</svg>
