<svg width="661" height="413" viewBox="0 0 661 413" fill="none" xmlns="http://www.w3.org/2000/svg">
<g clip-path="url(#clip0_2562_124535)">
<path d="M660.5 117.198C660.5 95.107 642.591 77.1984 620.5 77.1984H614C607 61.6984 599 34.1982 646.5 0.69836C579 -2.80164 546.5 40.6984 544 77.1984H40.5C18.4086 77.1984 0.5 95.107 0.5 117.198V372.198C0.5 394.29 18.4086 412.198 40.5 412.198H620.5C642.591 412.198 660.5 394.29 660.5 372.198V117.198Z" fill="white"/>
<path d="M614 79.6984H612.386L611.722 78.2273C608.141 70.2986 604.128 58.9271 607.379 45.1251C610.35 32.513 619.28 18.3016 639.157 3.00011C577.955 2.90456 548.812 43.5274 546.494 77.3692L546.335 79.6984H544H40.5C19.7893 79.6984 3 96.4877 3 117.198V372.198C3 392.909 19.7893 409.698 40.5 409.698H620.5C641.211 409.698 658 392.909 658 372.198V117.198C658 96.4877 641.211 79.6984 620.5 79.6984H614Z" stroke="black" stroke-width="5"/>
</g>
<defs>
<clipPath id="clip0_2562_124535">
<rect width="660" height="412" fill="white" transform="translate(0.5 0.5)"/>
</clipPath>
</defs>
</svg>
