<svg width="332" height="990" viewBox="0 0 332 990" fill="none" xmlns="http://www.w3.org/2000/svg">
<path d="M332 989.269L8.95996 913.639V0.31979H328.48" fill="#FDFDFD"/>
<path d="M8.8 877.023C8.8 873.345 8.79994 869.668 8.63994 866.15C7.99994 807.149 7.51998 748.148 6.87998 689.146C6.23998 625.189 5.59996 561.231 4.95996 497.273C4.31996 432.355 3.67994 367.598 3.03994 302.681C2.39994 238.723 1.76002 174.605 1.12002 110.647C0.80002 74.8307 0.48 39.0143 0 3.35779C0 2.39842 0 1.59895 0 0.639579H1.92002C2.56002 1.91874 2.55996 3.1979 2.55996 4.47705C2.87996 36.9357 3.19998 69.3943 3.67998 101.853C4.31998 157.017 4.96 212.34 5.6 267.504C6.08 302.841 6.40002 338.177 6.72002 373.514C7.36002 433.635 7.99994 493.755 8.63994 553.875C9.11994 601.204 9.59994 648.533 10.2399 696.022C10.7199 741.432 11.2 786.842 11.68 832.412C11.68 840.087 11.68 847.922 12.16 855.597C12.48 861.673 12.64 867.909 12.16 873.985C12.16 874.784 12.64 874.784 13.12 874.944C16 875.584 18.88 876.223 21.76 876.863C24.32 877.503 26.88 878.142 29.6 878.782C29.6 877.822 29.6 877.183 29.6 876.543C29.44 862.312 29.12 848.242 28.96 834.011C28.48 795.317 28 756.622 27.36 718.087C26.72 680.832 26.24 643.417 25.76 606.161C25.28 566.667 24.8 527.013 24.16 487.519C23.52 455.54 23.2 423.561 22.72 391.742C22.24 355.606 21.76 319.47 21.12 283.493C20.64 248.476 20.16 213.46 19.68 178.443C18.88 124.078 18.2399 69.7141 17.4399 15.3499C17.4399 11.6723 16.9599 7.83484 18.2399 4.15726C18.8799 3.83747 19.2 3.99737 19.36 4.63695C19.84 6.2359 20.48 7.67495 20.48 9.43379C20.96 39.0143 21.44 68.435 21.92 98.0155C22.56 140.548 23.1999 183.08 23.8399 225.452C24.3199 262.547 24.7999 299.643 25.4399 336.898C26.2399 388.384 26.8799 439.711 27.8399 491.197C28.3199 519.818 28.64 548.439 29.12 577.06C29.12 577.38 28.7999 578.02 29.4399 578.179C30.7199 577.06 32.3199 576.261 33.4399 574.822C35.8399 573.702 37.76 571.624 40 570.185C40.96 569.545 41.12 568.906 41.12 567.786C40.64 542.523 40.3199 517.26 39.8399 491.836C39.3599 457.779 38.7199 423.721 38.2399 389.664C37.9199 363.441 37.44 337.218 37.12 310.835C36.64 278.057 36.32 245.279 35.68 212.5C35.36 198.429 35.36 184.519 35.2 170.448C34.4 115.764 33.76 61.2397 32.96 6.55569C32.96 5.59632 32.96 4.63695 32.96 3.67758C33.76 3.1979 33.28 2.07863 34.4 1.59895C34.88 2.87811 35.52 3.99737 35.52 5.59632C35.52 9.75358 35.5199 13.9108 35.8399 18.0681C36.1599 34.2175 36.48 50.3668 36.8 66.5162C36.8 69.5542 36.8 72.5922 37.12 75.7901C37.12 78.8281 37.12 82.026 37.12 85.064C37.12 85.3838 36.6399 85.8635 37.4399 85.8635C38.0799 85.7036 38.72 85.3838 39.36 85.2239C44.48 83.3052 49.7599 81.8661 55.1999 81.2265C61.4399 80.587 67.84 80.587 74.08 82.3458C73.76 81.5463 73.6 80.9068 73.28 80.2672C66.88 64.1178 60.8 47.8085 55.52 31.1795C52.32 21.1061 49.12 11.1926 46.4 0.959369C47.36 0.959369 48.16 0.959369 49.12 0.959369C49.12 1.27916 49.4399 1.59895 49.4399 2.07863C57.2799 29.2607 66.5601 55.9632 76.9601 82.3458C77.2801 82.9854 77.4399 83.625 78.2399 83.7849C81.5999 84.9041 84.6399 86.663 87.8399 88.102C93.4399 90.6603 99.1999 92.2593 105.6 91.9395C110.56 91.6197 115.2 90.0207 119.68 88.4218C121.44 87.7822 121.6 87.1426 120.8 85.5437C109.12 57.2423 96.9599 29.2607 84.7999 1.11926H87.8399C88.9599 4.47705 90.7201 7.67495 92.1601 10.8728C102.88 35.017 113.28 59.321 123.36 83.625C124.48 86.1833 124.48 86.1833 127.04 85.2239C137.76 81.2265 148.8 80.1073 160.16 82.3458C165.44 83.4651 170.08 85.8635 174.72 88.2619C176.64 89.3812 178.72 90.3405 181.28 90.8202C180.96 90.0207 180.8 89.3812 180.48 88.9015C171.2 65.8766 162.08 42.6919 154.4 19.0275C152.48 13.1114 150.24 7.19526 148.8 1.11926H151.84C151.68 1.91874 152 2.55832 152.32 3.1979C158.56 21.4259 164.96 39.6539 172 57.5621C176.16 68.2751 180.48 78.988 184.48 89.8609C185.12 91.4598 185.6 91.7796 187.2 91.4598C191.68 90.8202 195.84 89.3812 200 88.102C205.28 86.5031 210.56 85.3838 216.16 86.3432C219.04 86.8229 221.92 87.7822 224.96 88.5817C224.8 88.102 224.64 87.7822 224.48 87.4624C220.16 77.7089 216.32 67.9553 212.32 58.2017C204.8 39.8138 197.92 21.1061 188 3.83747C187.52 3.038 187.52 2.07863 187.52 1.27916H188.64C189.6 2.07863 190.4 3.038 191.04 4.15726C194.88 10.5531 198.24 17.2686 201.28 23.9842C210.4 44.4507 218.24 65.397 226.56 86.1833C227.52 88.5817 228.48 90.3405 231.36 90.0208C232.16 90.0208 232.96 90.3405 233.76 90.6603C236 91.2999 236 91.2999 235.84 89.0614C235.52 62.8386 235.36 36.6159 235.2 10.5531C235.2 9.43379 235.2 8.31453 235.36 7.19526C235.68 6.2359 235.68 5.27653 236.64 4.15726C237.44 6.076 237.92 7.83484 237.92 9.75358C238.24 37.8951 238.72 66.0365 239.04 94.3379C239.2 108.089 239.52 122 239.68 135.751C240.48 204.026 241.28 272.461 242.08 340.736C242.56 382.468 243.04 424.041 243.52 465.773C244 508.785 244.48 551.957 245.12 594.968C245.6 637.82 246.24 680.672 246.72 723.684C247.2 758.541 247.52 793.398 248 828.415C248.48 860.714 248.96 893.012 249.44 925.471C249.44 926.43 249.6 927.549 249.12 928.509C248.64 929.468 248.96 929.628 249.92 929.788C252.48 930.268 255.04 931.067 257.6 931.547C263.04 932.666 268.32 934.265 273.76 935.065C273.92 935.065 274.24 935.065 274.4 935.224C274.56 935.224 274.72 935.384 274.88 935.384C289.12 938.742 303.52 942.1 317.76 945.298C321.12 946.097 324.32 947.217 327.68 947.217V951.054C326.08 951.054 324.64 950.574 323.04 950.095C298.08 944.338 273.28 938.582 248.32 932.986C210.56 924.352 172.8 915.717 135.04 907.083C105.12 900.207 75.3599 893.492 45.4399 886.616C32.9599 883.738 20.48 880.86 8 877.982L8.8 877.023ZM183.84 307.318C188.48 305.079 193.44 303.96 198.56 303.8C201.28 303.8 202.4 304.759 202.56 307.638C202.56 308.757 202.56 309.876 202.56 310.835C202.56 312.434 203.04 312.434 204.32 312.115C209.6 311.155 214.72 309.556 219.84 308.117C221.92 307.478 223.52 308.117 224.8 309.876C225.6 310.995 226.4 312.274 227.68 313.234C228 312.434 228.16 311.635 228.48 310.995C229.12 308.277 229.6 305.399 230.4 302.521C231.04 299.803 232.48 299.483 234.72 301.242C236.16 302.521 237.6 303.8 239.2 305.239C239.2 302.681 239.04 300.282 239.2 297.884C239.52 295.166 238.24 293.567 236.32 291.968C229.92 286.851 222.72 282.694 216.48 277.098C215.68 276.298 215.2 277.098 214.72 277.577C212.8 279.496 211.52 281.895 210.24 284.293C209.12 286.372 207.68 287.97 205.6 289.25C197.6 294.366 190.56 300.762 183.36 306.838C183.04 306.838 182.88 307.158 182.56 307.318C183.04 307.638 183.36 307.638 183.68 307.318H183.84ZM242.4 600.725C242.56 597.527 242.56 597.527 239.52 597.047C236.48 596.567 233.28 596.248 230.24 595.768C216.96 594.009 203.52 592.41 190.24 590.651C175.84 588.732 161.44 586.974 147.2 585.055C146.4 585.055 145.76 585.055 145.12 585.695C144.48 586.334 143.52 587.293 143.68 585.215C143.68 584.255 143.04 584.575 142.56 584.575C138.4 583.936 134.24 583.456 130.08 582.976C119.52 581.697 108.96 580.258 98.3999 578.979C88.9599 577.7 79.36 576.581 69.92 575.301C61.92 574.182 53.92 573.063 46.08 572.103C44.8 571.944 43.2 571.624 42.08 572.583C40 574.182 38.08 575.781 36.16 577.38C33.92 578.819 32.16 580.738 29.6 582.017C32 582.177 34.08 582.337 36 582.656C45.44 583.776 55.04 585.055 64.48 586.334C74.56 587.613 84.64 589.052 94.72 590.331C105.92 591.77 116.96 593.369 128.16 594.808C139.36 596.247 150.4 597.847 161.6 599.286C172.64 600.725 183.68 602.164 194.88 603.603C205.12 604.882 215.2 606.321 225.44 607.6C230.56 608.24 235.84 608.879 240.96 609.679C242.4 609.839 243.04 609.679 242.88 607.92C242.72 605.521 242.88 603.123 242.88 600.885L242.4 600.725ZM214.88 913.639C214.88 914.278 214.88 915.078 214.88 915.717C214.88 916.996 215.36 918.435 214.24 919.395C213.6 920.034 213.92 920.354 214.56 920.514C216.16 920.834 217.92 921.314 219.52 921.633C220.32 921.793 220.64 921.633 220.64 920.674C220.64 918.755 220.64 916.677 220.64 914.758C220.64 913.799 220.64 912.999 220.64 912.04C220.8 879.261 221.12 846.323 221.12 813.545C221.44 760.14 221.28 706.735 221.92 653.33C221.92 651.251 221.92 649.173 221.92 646.614C219.2 650.932 215.52 654.129 216.64 659.566C216.96 660.845 216.64 662.124 216.64 663.403C216 733.117 215.36 802.991 214.88 872.706C214.88 886.297 214.88 899.888 214.88 913.479V913.639ZM48.6399 882.619C50.0799 883.259 51.68 883.419 53.28 883.898C57.12 884.698 57.12 884.698 57.12 880.86C57.12 842.006 57.12 803.311 57.12 764.457C57.12 718.887 57.2799 673.157 57.4399 627.587C57.4399 625.508 56.48 623.59 57.92 621.351C58.72 620.072 59.3599 619.592 60.7999 619.752C65.5999 620.552 70.5601 621.191 75.3601 621.831C85.6001 623.27 95.84 624.549 106.08 625.828C117.28 627.267 128.48 628.706 139.68 630.145C149.92 631.424 160.16 632.863 170.4 634.143C181.6 635.582 192.8 637.021 204 638.62C210.24 639.419 216.48 640.379 222.72 641.338C223.52 641.338 224.32 641.498 224.48 642.457C224.64 643.257 223.84 643.576 223.04 643.896C224.8 644.536 224.96 645.815 224.96 647.094C224.96 660.046 224.96 672.997 224.96 685.948C224.64 755.982 224.16 826.016 223.84 896.05C223.84 904.525 223.36 912.839 223.84 921.314C223.84 922.273 224.16 922.593 225.12 922.753C226.88 923.072 228.8 923.552 230.56 924.032C235.04 925.151 239.68 926.11 244.16 927.23C244.64 927.23 245.6 928.029 245.6 926.59C245.6 924.512 245.6 922.433 245.6 920.514C245.6 919.235 245.6 917.796 245.6 916.517C244.96 898.609 245.28 880.54 244.96 862.632C244.48 829.214 244.48 795.796 243.84 762.378C243.52 749.906 243.52 737.595 243.52 725.123C243.2 688.347 242.72 651.571 242.4 614.635C242.4 613.196 242.08 612.557 240.48 612.397C234.4 611.757 228.32 610.798 222.24 609.998C210.08 608.4 197.76 606.801 185.6 605.202C174.4 603.763 163.2 602.324 152 600.885C141.6 599.605 131.36 598.166 120.96 596.887C110.72 595.608 100.64 594.169 90.3999 592.89C80.1599 591.611 69.92 590.172 59.68 588.892C50.08 587.613 40.48 586.654 30.88 584.735C29.6 584.415 29.28 584.735 29.28 586.174C29.6 597.527 29.76 608.879 29.92 620.232C30.24 645.335 30.7199 670.599 31.0399 695.702C31.5199 731.998 32.1599 768.294 32.6399 804.59C32.9599 826.176 33.2799 847.922 33.4399 869.508C33.4399 872.386 33.6 875.264 33.76 878.142C33.76 878.782 33.76 879.421 34.56 879.581C39.2 880.54 43.68 881.82 48.32 882.619H48.6399ZM103.52 575.781C103.52 576.581 104.32 576.421 104.96 576.581C114.72 577.86 124.48 579.139 134.08 580.258C134.56 580.258 135.36 580.578 135.36 579.618C138.08 574.182 141.76 569.385 145.28 564.428C153.28 553.076 160.64 541.084 169.28 530.051C169.76 529.411 170.4 528.612 171.04 528.132C171.36 527.972 171.68 527.813 172 528.132C172.32 528.292 172.32 528.612 172.16 528.932C172 529.891 171.36 530.531 170.88 531.33C160 547.48 148.96 563.629 138.08 579.778C137.76 580.098 136.64 580.578 138.08 580.898C140 581.217 142.08 581.377 144 581.697C144.64 581.697 145.28 581.857 145.44 581.058C147.36 578.339 149.28 575.461 151.2 572.743C151.68 572.103 152.32 571.464 152.8 570.824C153.12 570.505 153.6 570.505 154.08 570.664C154.56 570.984 154.56 571.464 154.4 571.784C154.08 572.423 153.76 573.223 153.44 573.862C152 576.261 150.4 578.819 148.96 581.217C147.52 582.816 149.28 582.337 149.76 582.337C155.36 583.136 160.96 583.776 166.4 584.415C176.96 585.695 187.68 587.134 198.24 588.413C208.8 589.692 219.52 591.131 230.08 592.41C233.6 592.89 237.12 593.21 240.8 593.689C241.6 593.689 242.4 593.849 242.08 592.57C242.08 591.77 242.08 590.971 242.08 590.012C241.92 574.342 241.76 558.672 241.44 543.003C240.96 504.148 240.64 465.454 240.16 426.599C240.16 425.16 239.68 424.84 238.24 424.68C233.6 424.361 228.96 423.721 224.8 421.483C220.8 419.404 216.48 417.805 212.32 415.726C209.28 414.287 206.4 414.127 203.2 415.726C192.64 420.523 182.08 425.16 171.36 429.957C164.16 433.155 157.12 436.992 149.44 439.391C146.56 440.35 143.84 440.35 141.12 439.071C137.92 437.792 134.72 437.472 131.36 437.952C124.32 438.751 117.28 440.35 110.24 441.949C97.4399 444.827 84.7999 447.865 72.6399 452.982C70.0799 454.101 67.68 454.421 65.12 453.781C62.88 453.302 60.4799 452.822 58.2399 452.502C53.7599 451.863 49.44 450.424 44.96 452.982C43.68 453.781 43.52 454.421 43.52 455.54C43.68 467.372 43.84 479.205 44 491.037C44.32 510.384 44.64 529.571 44.8 548.919C44.8 550.997 44.8 553.236 44.8 555.315C44.96 555.315 45.1199 555.315 45.4399 555.315C46.5599 553.716 47.5199 551.957 48.6399 550.358C54.5599 540.924 61.12 531.97 68.32 523.495C68.8 522.856 69.4399 521.737 70.3999 522.376C71.3599 523.176 70.4 523.975 70.08 524.615C68.8 526.374 67.6799 528.292 66.2399 529.891C58.8799 539.325 52.96 549.878 45.6 559.472C44.96 560.271 45.12 561.071 45.28 561.87C45.44 562.67 46.4 562.19 46.88 562.35C53.76 562.83 60.8 562.67 67.68 563.469C76.8 564.429 85.7601 565.868 94.5601 568.746C98.2401 570.025 101.28 571.784 103.2 575.301L103.52 575.781ZM139.2 346.492C139.84 345.053 140.64 343.614 141.28 342.175C142.4 340.096 143.52 338.018 145.28 336.419C151.84 330.662 158.08 324.267 165.44 319.31C170.56 315.632 175.2 311.475 179.84 307.158C187.52 299.963 195.52 293.087 204.48 287.331C206.08 286.372 207.36 284.932 208.16 283.334C209.6 280.615 211.2 277.897 213.28 275.818C215.04 274.06 216.16 273.9 218.08 275.818C219.68 277.417 221.44 278.856 223.2 280.136C228.32 283.813 233.6 287.331 238.4 291.328C238.4 291.328 238.72 291.328 239.04 291.328C238.72 268.463 238.56 245.758 238.24 222.893C230.88 235.045 222.88 246.718 213.6 257.91C213.6 256.951 214.08 256.471 214.4 255.992C221.6 244.319 229.12 232.647 235.84 220.655C236.16 220.015 236.48 219.376 237.12 219.376C238.56 219.376 238.24 218.416 238.24 217.617C238.24 205.145 237.92 192.833 237.76 180.361C237.76 179.882 237.76 179.242 237.76 178.762C236.96 179.242 236.64 179.882 236.16 180.521C223.36 202.427 210.4 224.172 196.32 245.279C194.88 247.517 193.44 249.916 192 252.154C191.68 252.634 191.52 253.433 190.72 253.113C191.04 252.634 191.2 252.154 191.52 251.834C196.8 242.4 202.08 232.967 207.52 223.693C216.64 207.863 225.6 192.193 234.72 176.364C235.2 175.564 235.52 174.445 236.48 174.285C237.6 173.966 237.6 173.326 237.6 172.367C237.28 151.26 237.12 129.994 236.96 108.888C236.96 103.932 236.8 98.9749 236.8 93.8582C236.8 92.5791 236.32 92.4192 235.2 92.4192C233.76 92.5791 232.48 93.0588 231.04 92.8989C228.32 92.5791 225.76 91.9395 223.2 91.14C217.76 89.3812 212.16 88.2619 206.56 89.8609C202.88 90.8202 199.36 91.7796 195.84 93.0588C187.84 95.9369 180.32 95.2973 173.12 90.9801C172.16 90.5004 171.2 90.0208 170.24 89.5411C160.64 84.2645 150.4 83.9447 140 85.5437C133.12 86.5031 126.88 89.3812 120.64 92.0994C112.64 95.4572 104.48 96.5764 95.9999 94.4978C91.3599 93.3785 87.2 91.2999 82.88 89.3812C78.08 87.1426 73.2799 85.2239 67.8399 84.5843C57.7599 83.625 48.16 85.2239 38.88 89.0614C37.76 89.5411 37.4399 90.0208 37.4399 91.14C37.5999 99.1348 37.76 107.13 37.76 115.124C37.76 121.52 38.08 127.756 38.08 134.152C38.08 134.791 38.08 135.431 38.08 136.07C38.4 158.296 38.88 180.361 39.2 202.587C39.2 204.186 39.2 205.625 39.52 207.224C39.52 207.703 39.52 208.183 39.52 208.503C39.84 226.891 40.16 245.438 40.48 263.826C40.64 273.58 40.96 283.334 41.12 293.087C41.12 293.567 40.7999 294.046 41.4399 294.366C41.7599 293.887 42.0799 293.567 42.2399 293.087C50.8799 279.176 59.3599 265.265 68.6399 251.834C69.1199 251.035 69.7599 250.235 70.2399 249.436C70.5599 248.956 71.04 248.476 71.68 248.956C72.32 249.276 72.3199 249.916 71.9999 250.555C71.3599 251.674 70.8799 252.634 70.2399 253.753C64.9599 261.908 59.8401 270.062 54.5601 278.217C50.2401 285.092 46.56 292.288 41.28 298.524C40.96 298.843 40.96 299.163 40.96 299.643C40.96 302.361 40.96 304.919 40.96 307.638C41.6 307.158 41.76 306.678 42.08 306.039C44 302.041 46.4001 298.364 48.9601 294.846C49.4401 294.206 50.0799 293.087 51.0399 293.887C52.1599 294.526 51.3599 295.486 51.0399 296.285C49.1199 299.483 47.52 303.001 45.12 305.719C41.44 309.876 40.96 314.353 41.12 319.63C41.6 330.662 41.6 341.855 41.76 352.888C41.76 353.208 41.76 353.527 41.76 353.847C42.08 369.997 42.24 386.146 42.56 402.295C42.56 402.775 42.3999 403.255 43.0399 403.894C45.1199 402.135 47.1999 400.217 49.4399 398.458C59.1999 389.823 69.1199 381.349 79.9999 374.154C85.4399 370.476 91.3601 369.037 97.7601 369.677C101.76 369.996 105.76 370.156 109.6 369.037C117.92 366.319 125.92 362.481 133.28 357.685C134.08 357.205 134.72 356.565 135.2 355.766C136.8 352.888 138.08 350.01 139.04 346.812L139.2 346.492ZM68.9601 881.02C68.9601 882.619 68.9601 884.218 68.9601 885.817C68.9601 886.936 69.2799 887.416 70.3999 887.736C83.1999 890.614 95.9999 893.492 108.8 896.37C138.88 903.246 168.96 910.121 199.04 916.837C203.36 917.796 207.52 918.755 212 919.715C211.04 917.156 212 914.758 211.36 912.36C211.36 909.481 211.68 906.603 211.68 903.725C212 863.432 212.48 823.138 212.8 783.005C213.12 741.592 213.44 700.339 213.76 658.926C213.76 655.728 213.76 655.568 210.56 655.249C202.4 654.129 194.08 653.01 185.92 651.891C174.24 650.292 162.56 648.693 150.88 647.094C140.32 645.655 129.76 644.216 119.2 642.777C107.36 641.178 95.6799 639.579 83.8399 637.98C78.5599 637.181 73.2799 636.541 67.8399 635.742C67.0399 635.742 66.56 635.422 66.72 636.701C66.88 642.137 67.0399 647.414 67.0399 652.85C67.6799 725.443 68.1599 798.035 68.7999 870.627C68.7999 873.985 68.96 877.502 69.12 880.86L68.9601 881.02ZM240.32 423.082C240.32 417.805 240.32 412.688 240.32 407.572C240.32 406.932 240.32 406.293 239.36 406.612C234.72 407.412 230.24 407.092 225.92 405.333C223.68 404.374 221.28 403.574 218.88 402.775C213.28 400.696 207.68 400.376 201.92 401.496C198.88 401.975 196 402.615 192.96 403.415C192.16 403.574 191.2 404.214 190.72 403.095C190.24 401.975 191.2 401.656 192 401.336C193.28 400.536 194.56 399.897 195.68 399.097C202.4 394.46 209.92 392.542 218.08 392.861C221.76 392.861 225.44 392.861 228.96 393.181C231.52 393.501 233.6 393.021 235.36 390.943C236.48 389.664 237.92 388.544 239.36 387.585C240 387.105 240.16 386.785 240.16 385.986C240 371.915 239.84 358.004 239.68 343.934C239.68 342.974 239.36 342.495 238.4 342.175C236.16 341.695 234.08 341.535 231.84 342.495C229.44 343.614 227.04 344.413 224.8 345.373C219.68 347.611 214.72 350.01 209.44 351.928C207.04 352.728 205.44 354.007 203.84 355.766C197.28 362.641 190.4 369.517 184.16 376.872C183.2 378.151 181.92 378.791 180.32 379.27C177.76 379.91 175.2 380.23 172.48 380.23C162.4 380.23 152.32 380.23 142.4 380.07C139.84 380.07 137.6 380.709 135.52 382.308C132.16 385.027 128.96 387.745 125.76 390.623C119.04 397.019 112.32 403.414 105.76 409.97C103.84 411.729 101.92 413.328 99.1999 413.648C94.8799 414.127 90.4 414.607 86.08 415.247C80.32 416.046 74.2399 415.886 68.6399 417.165C60.6399 418.924 52.64 420.044 44.48 418.285C43.2 417.965 43.36 418.764 43.36 419.564C43.36 429.797 43.68 440.03 43.68 450.264C43.68 451.383 44 451.543 44.96 451.063C47.36 449.624 49.9199 449.144 52.6399 449.624C55.9999 450.104 59.3601 450.583 62.5601 451.383C66.8801 452.342 70.88 452.822 74.88 450.264C75.68 449.784 76.4799 449.624 77.4399 449.304C92.9599 443.868 108.96 440.19 124.96 437.152C131.36 435.873 137.92 435.233 144.16 438.112C145.28 438.591 146.72 438.431 148 438.112C151.52 437.152 154.88 435.873 158.24 434.274C173.44 427.399 188.48 420.363 203.84 413.808C207.04 412.369 209.92 412.529 212.96 413.808C218.08 416.046 223.04 418.285 228.16 420.683C230.4 421.642 232.64 422.282 234.88 422.442C236.8 422.442 238.56 422.762 240.48 423.241L240.32 423.082ZM239.52 324.426H239.36C239.36 321.229 239.04 317.871 239.36 314.673C240 310.036 237.92 306.998 234.24 304.44C233.12 303.64 232.64 303.32 232.32 305.079C231.68 308.277 231.04 311.475 229.44 314.353C228.48 316.112 227.36 316.272 225.92 314.833C224.8 313.714 224 312.434 222.88 311.315C222.24 310.516 221.44 310.196 220.32 310.516C214.56 312.274 208.48 313.394 202.72 314.833C200.8 315.312 199.84 314.833 199.84 312.754C199.84 311.155 199.84 309.716 199.84 308.117C199.84 306.838 199.36 306.358 198.08 306.358C194.56 306.678 191.04 306.998 187.84 308.437C180.64 311.635 174.08 315.952 167.68 320.429C160.64 325.546 154.56 331.942 148.16 337.698C146.72 338.977 145.6 340.416 144.64 342.015C142.24 346.012 140.48 350.17 138.56 354.327C137.44 356.885 135.68 358.804 133.28 360.243C127.68 363.601 121.76 366.319 115.84 369.037C110.56 371.436 104.96 373.034 99.1999 372.395C91.3599 371.595 84.64 373.834 78.72 378.631C78.4 378.791 78.0801 379.111 77.7601 379.27C67.3601 386.626 57.76 394.78 48.32 403.255C46.72 404.694 44.16 405.653 43.36 407.412C42.56 409.331 43.36 411.889 43.36 414.287C43.36 415.886 43.6799 416.526 45.4399 415.886C46.0799 415.566 46.88 415.886 47.68 415.886C52.48 416.686 57.12 416.686 61.92 415.886C65.76 415.087 69.4399 414.287 73.4399 413.808C81.1199 413.168 88.8 412.209 96.48 411.409C100 411.089 102.88 409.65 105.28 407.092C109.44 402.775 113.76 398.618 118.24 394.46C123.52 389.344 128.8 384.227 134.72 379.75C136.96 377.991 139.52 377.192 142.4 377.352C150.72 377.512 159.2 377.512 167.52 377.671C170.4 377.671 173.44 377.671 176.32 377.352C178.72 377.032 181.12 376.712 182.88 374.633C188.64 367.918 195.04 361.682 201.12 355.126C203.36 352.728 205.92 351.129 208.64 349.85C216.32 346.492 224.16 343.134 231.84 339.776C233.92 338.817 236 338.497 238.08 339.297C239.68 339.936 239.84 339.297 239.84 337.858C239.84 333.381 239.84 328.744 239.84 324.267L239.52 324.426ZM60.32 622.95C60.32 623.11 60.3201 623.27 60.1601 623.43C61.7601 625.988 63.3601 628.386 64.9601 631.105C65.6001 632.384 66.5599 632.704 67.8399 632.863C75.3599 633.823 82.7199 634.942 90.2399 635.901C109.28 638.46 128.48 641.018 147.52 643.736C168.48 646.614 189.6 649.492 210.56 652.531C212.96 652.85 214.4 652.531 215.68 650.292C216.96 647.894 218.88 645.815 220.64 643.576C167.04 636.701 113.76 629.825 60.48 622.79L60.32 622.95ZM59.9999 629.026C59.9999 635.901 59.9999 642.937 59.9999 649.812C60.1599 727.521 60 805.07 60.48 882.779C60.48 883.259 60.48 883.738 60.48 884.058C60 885.177 60.4799 885.497 61.4399 885.657C61.9199 885.657 62.4 885.817 62.88 885.977C64.3733 886.297 65.12 885.657 65.12 884.058C65.12 883.099 65.12 881.979 65.12 881.02C64.96 853.998 64.7999 826.976 64.6399 799.953C64.3199 746.709 63.84 693.623 63.52 640.378C63.52 638.78 62.8801 636.861 64.1601 635.422C64.3201 635.262 64.3201 634.942 64.1601 634.782C61.9201 633.503 61.5999 630.785 59.9999 629.026ZM100.48 575.781C99.2 574.022 97.92 573.223 96.48 572.583C92.96 570.984 89.12 570.025 85.28 569.225C74.56 566.827 63.5199 565.868 52.6399 565.388C51.3599 565.388 49.9199 565.228 48.6399 565.068C45.4399 564.908 45.28 565.068 45.6 568.266C45.6 568.906 45.76 569.225 46.56 569.385C48.8 569.545 51.1999 569.865 53.4399 570.185C63.3599 571.464 73.2801 572.583 83.3601 573.862C88.9601 574.502 94.5599 575.301 100.64 576.101L100.48 575.781Z" fill="#070707"/>
<path d="M274.4 933.945C268.96 933.146 263.52 931.547 258.24 930.428C255.68 929.948 253.12 929.148 250.56 928.669C249.6 928.509 249.28 928.349 249.76 927.39C250.24 926.43 250.08 925.471 250.08 924.352C249.6 892.053 249.12 859.754 248.64 827.296C248.16 792.438 247.68 757.581 247.36 722.564C246.88 679.713 246.24 636.861 245.76 593.849C245.28 550.837 244.8 507.666 244.16 464.654C243.68 422.922 243.2 381.349 242.72 339.616C241.92 271.341 241.12 202.906 240.32 134.631C240.16 120.88 240 106.97 239.68 93.2186C239.36 65.0772 238.88 36.9357 238.56 8.63432C238.56 6.71558 238.08 4.95674 237.28 3.038C236.32 3.99737 236.48 5.11663 236 6.076C235.36 4.15726 236 2.23853 235.68 0.31979H266.4C266.08 1.43905 265.92 2.39842 266.08 3.51768C266.24 15.5098 266.08 27.342 266.4 39.3341C266.88 58.3616 266.4 77.3891 266.88 96.4165C267.36 112.886 266.88 129.515 267.2 145.984C267.68 163.093 267.2 180.201 267.52 197.31C268 215.698 267.52 233.926 267.84 252.314C268.32 269.583 267.84 286.851 268.16 304.28C268.64 326.185 268.16 347.931 268.48 369.837C268.96 391.582 268.32 413.328 268.8 435.234C269.28 452.662 268.8 470.091 269.12 487.519C269.6 503.988 269.12 520.298 269.44 536.767C269.92 559.792 269.76 582.816 269.76 606.001C269.76 664.842 270.24 723.684 269.76 782.525C269.6 800.913 269.6 819.141 269.92 837.529C270.4 859.594 269.6 881.66 270.4 903.885C270.56 911.24 270.4 918.435 270.4 925.791C270.4 928.989 270.4 931.867 273.76 933.626C273.76 933.626 273.76 933.785 273.76 933.945H274.4Z" fill="#D1CBCB"/>
<path d="M328.48 946.257C325.12 946.257 321.76 944.978 318.56 944.339C304.16 941.141 289.92 937.783 275.68 934.425C275.52 934.425 275.36 934.425 275.2 934.265C275.2 934.265 275.36 933.785 275.52 933.785C278.08 933.626 279.68 932.346 280.32 929.788C280.32 929.628 280.64 929.468 280.96 929.468C280.96 930.588 280.96 931.707 280.96 932.666C280.96 933.785 281.76 934.425 282.88 934.425C284 934.425 284.64 933.945 284.8 932.986C284.8 932.506 284.96 932.027 284.96 931.547C284.64 906.603 284.48 881.66 284.16 856.556C283.84 831.773 283.68 807.149 283.36 782.365C283.04 758.381 282.88 734.397 282.56 710.572C282.24 684.829 281.92 658.926 281.76 633.183C281.76 629.985 281.76 626.947 281.76 623.75C285.92 625.029 290.24 624.869 294.4 625.189C299.04 625.668 303.84 625.508 308.48 626.148C310.72 626.468 313.12 626.468 315.36 626.628C319.84 626.947 324.16 628.067 328.64 628.067V946.417L328.48 946.257Z" fill="#D1CBCB"/>
<path d="M328.48 88.2619V327.624C328.32 327.624 328 327.624 327.84 327.944C324.8 330.343 321.6 332.741 318.56 335.139C317.76 335.779 317.28 335.939 316.48 335.299C311.04 330.982 304.96 327.145 299.68 322.508C295.36 318.83 291.04 314.993 284.8 315.153C283.52 315.153 282.4 315.153 281.12 314.993C278.4 314.833 278.4 314.833 278.4 312.115C277.92 274.22 277.6 236.324 277.12 198.429C276.8 175.884 276.64 153.339 276.48 130.794C276.48 118.322 276.48 105.85 276 93.3785C276 92.2593 276 91.7796 277.44 91.9395C278.56 91.9395 279.84 91.7796 281.12 91.6197C286.56 90.6603 291.52 88.4218 296.64 86.663C302.88 84.5843 309.28 83.4651 316 85.064C320.32 86.0234 324.48 87.3025 328.64 88.4218L328.48 88.2619Z" fill="#AFE8F9"/>
<path d="M21.92 876.543C19.04 875.904 16.16 875.264 13.28 874.624C12.8 874.624 12.32 874.624 12.32 873.665C12.8 867.589 12.32 861.353 12.32 855.277C12 847.602 11.9999 839.767 11.8399 832.092C11.3599 786.682 10.88 741.272 10.4 695.702C9.92 648.373 9.44 601.044 8.8 553.556C8.16 493.435 7.51998 433.315 6.87998 373.194C6.55998 337.858 6.07996 302.521 5.75996 267.184C5.11996 212.02 4.47994 156.697 3.83994 101.533C3.51994 69.0745 3.20002 36.6159 2.72002 4.15726C2.72002 2.87811 2.71998 1.43905 2.07998 0.31979H13.28C13.12 1.27916 12.8 2.23853 12.8 3.1979C12.96 20.1467 12.48 37.2555 13.12 54.2043C13.6 64.7574 13.1199 75.4703 13.4399 86.0234C13.9199 96.4165 13.44 106.97 13.76 117.363C14.24 129.515 13.76 141.827 14.08 153.979C14.56 165.651 14.08 177.163 14.4 188.836C14.88 199.389 14.4 209.942 14.72 220.495C15.2 230.408 14.7199 240.482 15.0399 250.395C15.5199 260.788 15.04 271.341 15.36 281.735C15.84 291.488 15.36 301.402 15.68 311.155C16.16 321.708 15.68 332.261 16 342.814C16.48 352.888 16 362.801 16.32 372.875C16.8 384.547 16.32 396.219 16.8 407.892C17.28 417.645 16.8 427.399 17.12 437.152C17.6 446.746 17.1199 456.34 17.4399 465.933C17.9199 476.486 17.44 487.039 17.76 497.592C18.24 511.343 17.76 525.094 18.08 538.845C18.24 554.355 18.56 570.025 17.92 585.535C17.76 590.012 17.92 594.489 18.08 598.966C18.56 608.879 18.08 618.953 18.4 628.866C18.88 638.14 18.4 647.414 18.72 656.688C19.2 665.482 18.7199 674.436 19.0399 683.23C19.5199 696.981 19.04 710.732 19.52 724.483C20 736.155 19.5199 747.828 19.8399 759.5C20.1599 770.853 20.16 782.365 20.32 793.718C20.32 797.395 20.4799 800.913 20.6399 804.59C20.6399 813.864 20.9599 822.978 21.4399 832.252C21.7599 837.209 21.4399 842.166 21.4399 847.282C21.4399 857.036 21.6 866.789 20.96 876.543H21.92Z" fill="#D0CACA"/>
<path d="M328.48 381.669V535.008C325.76 535.008 323.04 535.008 320.32 534.368C314.72 533.409 309.28 531.65 303.84 530.371C296.96 528.772 295.04 529.731 292.64 536.447C292.64 536.767 292.48 537.087 292.32 537.406C289.6 547.64 287.84 558.033 287.68 568.586C287.68 573.862 289.28 576.101 294.4 577.7C296.64 578.339 299.04 578.819 301.44 579.459C301.28 580.258 300.96 581.058 300.8 581.857C299.52 586.814 297.6 591.611 296.8 596.887C296.8 598.006 295.84 597.847 295.2 597.687C291.2 597.047 287.04 596.887 283.04 596.727C281.6 596.727 281.12 596.248 281.12 594.809C280.96 564.269 280.64 533.729 280.32 503.189C280.16 480.164 279.84 457.139 279.52 434.114C279.52 433.315 279.36 432.515 280 431.716C284.64 426.919 287.36 421.003 290.72 415.407C291.2 414.767 291.52 413.968 291.68 413.168C291.84 412.688 291.68 412.209 291.2 411.889C290.72 411.569 290.4 411.889 289.92 412.209C289.12 412.688 288.64 413.648 288 414.447C285.12 418.764 282.4 423.082 279.52 427.399C279.36 427.399 279.2 427.399 279.04 427.399C279.04 424.041 279.04 420.683 279.04 417.325C279.04 416.846 279.36 416.686 279.68 416.366C282.08 414.127 283.84 411.249 285.28 408.371C287.84 403.414 290.4 398.458 292.96 393.501C293.6 392.222 294.08 390.463 295.04 389.983C296.16 389.504 297.6 390.943 298.72 391.582C301.92 393.661 305.12 393.661 308.48 391.742C314.4 388.544 320.48 385.346 326.56 382.148C327.04 381.829 327.52 381.349 328.32 381.509L328.48 381.669Z" fill="#98CAD3"/>
<path d="M328.48 381.669C327.68 381.349 327.36 381.989 326.72 382.308C320.64 385.506 314.56 388.544 308.64 391.902C305.28 393.661 302.08 393.661 298.88 391.742C297.76 390.943 296.32 389.504 295.2 390.143C294.24 390.623 293.76 392.382 293.12 393.661C290.56 398.618 288 403.574 285.44 408.531C284 411.409 282.24 414.127 279.84 416.526C279.52 416.846 279.2 417.006 279.2 417.485C279.2 420.843 279.2 424.201 279.2 427.559C279.36 427.559 279.52 427.559 279.68 427.559C282.56 423.241 285.28 418.924 288.16 414.607C288.64 413.808 289.28 413.008 290.08 412.369C290.4 412.209 290.88 411.729 291.36 412.049C291.84 412.369 292 412.848 291.84 413.328C291.52 414.127 291.2 414.927 290.88 415.566C287.52 421.163 284.8 427.079 280.16 431.876C279.52 432.515 279.68 433.475 279.68 434.274C279.84 457.299 280.16 480.324 280.48 503.349C280.8 533.889 281.12 564.428 281.28 594.968C281.28 596.407 281.6 596.887 283.2 596.887C287.36 596.887 291.36 597.207 295.36 597.847C296 597.847 296.8 598.166 296.96 597.047C297.76 591.93 299.52 587.134 300.96 582.017C301.12 581.217 301.44 580.418 301.6 579.619C299.2 578.979 296.8 578.659 294.56 577.86C289.44 576.261 287.84 574.022 287.84 568.746C287.84 558.193 289.6 547.799 292.48 537.566C292.48 537.246 292.64 536.927 292.8 536.607C295.04 529.891 297.12 528.932 304 530.531C309.44 531.81 314.88 533.569 320.48 534.528C323.2 535.008 325.92 535.328 328.64 535.168V537.406C325.92 537.246 323.36 537.086 320.64 536.767C314.56 535.967 308.8 534.048 302.72 532.609C297.76 531.49 296.96 531.81 295.2 536.607C295.04 537.086 294.88 537.566 294.72 538.046C293.6 541.564 292.96 545.401 292.16 549.079C290.88 555.794 290.08 562.67 290.08 569.545C290.08 572.103 291.2 573.702 293.44 574.662C295.04 575.461 296.8 575.781 298.56 576.101C308.48 578.179 318.56 577.7 328.48 577.7V580.418C324.64 580.418 320.8 580.418 316.96 580.418C315.36 580.418 314.88 580.418 314.56 582.337C313.76 586.654 312.48 590.971 311.52 595.288C311.2 596.407 310.56 597.527 310.88 598.326C311.36 599.445 312.96 598.806 313.92 598.806C318.72 599.286 323.52 599.925 328.32 599.925V603.763C323.2 603.763 318.24 602.963 313.12 602.643C304 602.004 294.88 601.204 285.76 600.245C280.48 599.765 280.48 599.605 281.44 604.882C281.12 607.76 281.44 610.798 281.44 613.676C281.44 614.316 281.76 614.476 282.4 614.476C288.8 614.316 295.04 615.115 301.28 615.595C310.24 616.394 319.36 617.194 328.32 617.833V621.671C322.88 621.191 317.6 620.871 312.16 620.392C307.52 620.072 302.88 619.432 298.24 619.113C292.64 618.633 287.04 617.993 281.6 617.034V623.59C281.6 626.787 281.6 629.826 281.6 633.023C281.92 658.766 282.24 684.669 282.4 710.412C282.72 734.397 282.88 758.381 283.2 782.205C283.52 806.989 283.68 831.613 284 856.396C284.32 881.34 284.48 906.284 284.8 931.387C284.8 931.867 284.8 932.346 284.64 932.826C284.32 933.785 283.68 934.425 282.72 934.265C281.6 934.265 280.96 933.626 280.8 932.506C280.8 931.387 280.8 930.268 280.8 929.308C280.64 912.359 280.32 895.411 280.16 878.462C279.68 842.166 279.36 805.71 279.04 769.414C278.72 732.158 278.24 694.743 277.92 657.487C277.6 633.823 277.44 610.158 277.28 586.494C276.96 549.558 276.48 512.623 276.16 475.687C275.84 438.751 275.36 401.975 275.04 365.04C274.72 329.063 274.24 293.247 273.92 257.271C273.6 233.766 273.44 210.422 273.28 186.917C272.8 128.076 272.16 69.2344 271.68 10.2333C271.68 6.87547 272 3.67758 269.92 0.799474C269.92 0.799474 269.92 0.479684 269.92 0.31979C270.88 0.31979 272 0.31979 272.96 0.31979C273.6 2.23853 274.56 3.99737 275.68 5.75621C275.84 6.2359 276 6.87547 276.32 7.35516C280.48 15.8296 283.84 24.6238 287.2 33.418C292.96 48.4481 298.24 63.4782 304.32 78.3484C304.96 79.7875 305.6 80.4271 307.2 80.2672C310.4 79.9474 313.76 80.2672 316.8 81.0666C320.64 82.026 324.64 83.1453 328.48 84.1046V88.2619C324.32 87.1426 320 85.8635 315.84 84.9041C309.28 83.3052 302.88 84.4244 296.48 86.5031C291.36 88.2619 286.4 90.5004 280.96 91.4598C279.84 91.6197 278.56 91.9395 277.28 91.7796C276 91.7796 275.84 92.0994 275.84 93.2186C276.32 105.69 276.16 118.162 276.32 130.634C276.64 153.179 276.8 175.724 276.96 198.27C277.44 236.165 277.76 274.06 278.24 311.955C278.24 314.513 278.24 314.513 280.96 314.833C282.24 314.833 283.36 314.993 284.64 314.993C290.88 314.993 295.2 318.67 299.52 322.348C304.8 326.985 310.88 330.662 316.32 335.139C317.12 335.779 317.76 335.619 318.4 334.98C321.44 332.581 324.48 330.183 327.68 327.784C327.84 327.784 328.16 327.624 328.32 327.464V332.101C327.84 332.421 327.36 332.581 326.88 332.901C323.04 335.619 319.36 338.497 316 341.695C313.6 343.774 311.04 344.413 308 343.934C306.88 343.774 305.92 343.934 305.12 344.413C296.48 349.21 288 354.487 279.52 359.763C279.04 360.083 278.72 360.403 278.72 360.882C278.72 365.36 278.72 369.837 278.72 374.633C279.84 374.154 280.8 373.674 281.76 373.194C290.88 368.877 291.2 368.877 300.16 373.674C301.12 374.154 301.44 374.154 302.08 373.194C303.04 371.595 304.16 370.156 305.12 368.557C305.44 368.078 305.92 367.278 306.56 367.758C307.2 368.238 306.56 368.877 306.4 369.357C305.76 370.636 305.12 371.755 304.48 372.875C304 373.674 302.88 374.633 303.36 375.273C304 376.232 305.28 376.872 306.56 377.192C307.36 377.192 308.16 377.032 308.96 376.712C315.68 374.793 321.92 372.075 328.32 369.677L328.32 381.509L328.48 381.669ZM275.04 13.4312C275.04 14.5504 275.04 15.6697 275.04 16.9488C275.2 31.1795 275.36 45.4101 275.52 59.6407C275.52 68.7547 275.68 77.7089 275.84 86.8229C275.84 87.7822 276.32 87.9421 277.12 87.9421C279.04 87.9421 280.8 87.4624 282.56 86.9827C288.64 85.3838 294.4 82.6656 300.48 81.2265C302.08 80.9068 300.96 80.1073 300.8 79.6276C295.04 65.5569 289.92 51.1663 284.64 36.9357C281.92 29.5805 279.2 22.2254 275.84 15.19C275.84 14.7103 275.52 14.2306 275.52 13.5911C274.72 11.9921 275.36 10.0734 274.88 8.31453C274.88 10.0734 274.4 11.8322 274.88 13.5911L275.04 13.4312ZM295.36 333.381C295.84 333.7 296.32 333.86 296.8 334.18C300.64 335.619 304.64 336.898 308.64 338.018C309.44 338.177 310.56 338.337 310.56 339.297C310.56 341.855 311.84 340.256 312.48 339.776C313.28 339.297 314.08 338.817 314.56 338.018C315.68 337.538 315.2 337.058 314.56 336.578C307.36 331.462 300.32 326.025 293.28 320.589C290.88 318.67 288 317.871 284.96 317.711C283.2 317.711 281.44 317.551 279.84 317.391C278.72 317.391 278.24 317.391 278.24 318.67C278.24 320.269 278.24 321.868 278.24 323.467C278.24 324.746 277.92 326.185 278.24 327.305C278.72 328.744 280.64 328.104 281.76 328.584C286.08 330.343 290.56 331.782 295.04 333.54L295.36 333.381ZM305.92 340.096C296.32 337.378 287.68 333.061 278.56 330.343C278.56 338.977 278.56 347.611 278.88 356.565C287.84 350.809 296.64 345.373 305.92 340.096ZM279.36 413.648C279.36 413.648 279.52 413.648 279.68 413.648C279.84 413.328 280 413.008 280.16 412.688C284 405.333 288 397.818 291.84 390.463C293.12 388.065 292.64 387.105 289.76 386.945C289.12 386.945 288.48 386.945 287.84 387.105C285.28 387.745 282.72 388.864 280.32 389.983C279.36 390.463 279.04 391.103 279.2 392.062C279.2 396.219 279.2 400.217 279.2 404.374C279.2 407.412 279.2 410.45 279.2 413.488L279.36 413.648ZM312.64 580.418C309.92 580.258 307.2 579.938 304.64 579.778C304 579.778 304 579.938 303.84 580.418C302.4 585.854 300.8 591.291 299.36 596.727C299.2 597.527 299.36 597.846 300.16 598.006C302.56 598.006 304.8 598.326 307.2 598.486C308 598.486 308.32 598.326 308.48 597.527C309.44 591.771 311.04 586.174 312.64 580.578V580.418ZM274.56 6.87547C274.56 6.87547 274.56 6.87547 274.72 6.87547H274.56Z" fill="#050505"/>
<path d="M269.76 0.31979C269.76 0.31979 269.76 0.639579 269.76 0.799474C271.84 3.67758 271.36 6.87547 271.52 10.2333C272 69.0745 272.48 127.916 273.12 186.917C273.28 210.422 273.6 233.766 273.76 257.271C274.08 293.247 274.56 329.063 274.88 365.04C275.2 401.975 275.68 438.751 276 475.687C276.32 512.623 276.8 549.558 277.12 586.494C277.44 610.158 277.6 633.823 277.76 657.487C278.08 694.743 278.56 732.158 278.88 769.414C279.2 805.71 279.68 842.166 280 878.462C280.16 895.411 280.48 912.359 280.64 929.308C280.48 929.308 280.16 929.468 280 929.628C279.36 932.027 277.76 933.306 275.2 933.626C275.2 933.626 275.04 933.945 274.88 934.105C274.72 934.105 274.4 934.105 274.24 933.945V933.626C270.88 932.027 270.72 928.989 270.88 925.791C270.88 918.435 271.04 911.24 270.88 903.885C270.24 881.82 270.88 859.754 270.4 837.529C269.92 819.141 270.08 800.913 270.24 782.525C270.88 723.684 270.56 664.842 270.24 606.001C270.24 582.976 270.4 559.951 269.92 536.767C269.6 520.298 269.92 503.988 269.6 487.519C269.12 470.091 269.6 452.662 269.28 435.234C268.64 413.488 269.28 391.742 268.96 369.837C268.48 347.931 268.96 326.185 268.64 304.28C268.16 287.011 268.64 269.583 268.32 252.314C267.84 233.926 268.32 215.698 268 197.31C267.52 180.201 268 163.093 267.68 145.984C267.2 129.515 267.68 112.886 267.36 96.4165C266.88 77.3891 267.36 58.3616 266.88 39.3341C266.56 27.342 266.88 15.5098 266.56 3.51768C266.56 2.39842 266.56 1.43905 266.88 0.31979C267.84 0.31979 268.96 0.31979 269.92 0.31979H269.76Z" fill="#F9F9F9"/>
<path d="M21.92 876.543C22.56 866.789 22.4 857.036 22.4 847.282C22.4 842.326 22.56 837.369 22.4 832.252C21.92 822.978 21.6 813.864 21.6 804.59C21.6 800.913 21.44 797.395 21.28 793.718C21.28 782.365 21.12 770.853 20.8 759.5C20.48 747.828 20.8 736.155 20.48 724.483C20 710.732 20.48 696.981 20 683.23C19.68 674.276 20 665.482 19.68 656.688C19.2 647.414 19.68 638.14 19.36 628.866C18.88 618.953 19.3599 608.879 19.0399 598.966C18.8799 594.489 18.56 590.012 18.88 585.535C19.68 570.025 19.3599 554.355 19.0399 538.845C18.8799 525.094 19.04 511.343 18.72 497.592C18.4 487.039 18.72 476.486 18.4 465.933C17.92 456.34 18.4 446.746 18.08 437.152C17.6 427.399 18.08 417.645 17.76 407.892C17.28 396.219 17.76 384.547 17.28 372.875C16.8 362.801 17.28 352.888 16.96 342.814C16.48 332.261 16.9599 321.708 16.6399 311.155C16.1599 301.242 16.64 291.488 16.32 281.735C15.84 271.182 16.32 260.788 16 250.395C15.52 240.482 16 230.408 15.68 220.495C15.2 209.942 15.68 199.389 15.36 188.836C14.88 177.163 15.3599 165.651 15.0399 153.979C14.5599 141.827 15.04 129.515 14.72 117.363C14.24 106.81 14.72 96.4165 14.4 86.0234C13.92 75.4703 14.4 64.7574 14.08 54.2043C13.44 37.2555 14.08 20.1467 13.76 3.1979C13.76 2.23853 13.9199 1.27916 14.2399 0.31979H18.88C19.04 1.43905 19.04 2.55832 19.68 3.35779C18.4 7.03537 18.72 10.7129 18.88 14.5504C19.52 68.9146 20.32 123.279 21.12 177.643C21.6 212.66 22.08 247.677 22.56 282.694C23.04 318.83 23.52 354.966 24.16 390.943C24.64 422.922 24.96 454.901 25.6 486.72C26.24 526.214 26.72 565.868 27.2 605.362C27.68 642.617 28.16 680.032 28.8 717.288C29.44 755.982 29.92 794.677 30.4 833.212C30.4 847.442 30.8799 861.513 31.0399 875.744C31.0399 876.383 31.0399 877.183 31.0399 877.982C28.3199 877.343 25.76 876.703 23.2 876.063L21.92 876.543Z" fill="#FCFCFC"/>
<path d="M328.48 976.158C321.12 974.559 313.92 972.8 306.56 971.201C289.76 967.683 272.96 963.846 256.16 960.008C238.56 956.011 221.12 951.854 203.52 947.856C186.08 943.859 168.64 939.861 151.2 935.864C135.52 932.346 119.68 928.669 104 925.151C85.2799 920.834 66.4 916.677 47.68 912.36C35.68 909.641 23.68 906.923 11.52 904.205C9.60002 903.725 9.12002 903.086 9.12002 901.167C9.12002 896.21 9.12002 891.253 9.12002 886.137C15.84 887.736 22.56 889.175 29.28 890.774C65.76 899.248 102.24 907.563 138.72 916.037C161.44 921.314 184.32 926.43 207.04 931.707C225.6 936.024 244.16 940.181 262.72 944.498C278.72 948.176 294.72 951.854 310.56 955.531C316.48 956.81 322.4 958.089 328.32 959.529V975.998L328.48 976.158Z" fill="#D1CBCB"/>
<path d="M149.6 0.31979C151.04 6.39579 153.28 12.3119 155.2 18.228C162.88 41.8924 172.16 65.0772 181.28 88.102C181.44 88.7416 181.76 89.2213 182.08 90.0208C179.68 89.5411 177.6 88.5817 175.52 87.4624C170.88 85.064 166.08 82.6656 160.96 81.5463C149.6 79.3078 138.72 80.4271 127.84 84.4244C125.12 85.3838 125.12 85.3838 124.16 82.8255C114.08 58.3616 103.68 34.0576 92.9601 10.0734C91.5201 6.87547 89.7599 3.67758 88.6399 0.31979H149.76H149.6Z" fill="#ED646C"/>
<path d="M18.72 3.51768C18.08 2.55832 18.08 1.43905 17.92 0.479684H27.8399C27.3599 1.91874 27.8399 3.51768 27.8399 4.95674C27.9999 16.9488 27.52 29.1008 28.16 41.0929C28.64 49.0877 28.16 57.2423 28.48 65.2371C28.96 73.0719 28.48 81.0666 28.8 88.9015C29.28 97.8556 28.8 106.97 29.12 115.924C29.6 123.918 29.1199 132.073 29.4399 140.068C29.9199 148.222 29.44 156.537 29.76 164.692C30.24 173.006 29.76 181.321 30.08 189.635C30.56 198.11 30.08 206.424 30.4 214.899C30.88 223.053 30.4 231.208 30.72 239.362C31.2 247.517 30.7199 255.512 31.0399 263.666C31.5199 271.341 31.04 279.176 31.36 286.851C31.84 295.326 31.36 303.64 31.68 312.115C32.16 320.589 31.68 328.904 32 337.378C32.48 345.213 32 353.208 32.32 361.042C32.8 369.037 32.3199 377.032 32.6399 385.027C33.1199 392.702 32.64 400.536 32.96 408.211C33.44 415.886 32.96 423.721 33.28 431.396C33.76 438.431 33.28 445.627 33.6 452.662C34.08 460.497 33.6 468.492 33.92 476.326C34.4 484.481 33.9199 492.476 34.2399 500.63C34.7199 511.024 34.24 521.257 34.56 531.65C34.88 542.523 34.56 553.396 34.56 564.269C34.56 564.908 34.5599 565.548 34.2399 566.027C32.1599 568.266 32 571.144 32.48 574.022C31.36 575.461 29.76 576.261 28.48 577.38C27.84 577.06 28.16 576.58 28.16 576.261C27.68 547.64 27.52 519.018 26.88 490.397C25.92 438.911 25.28 387.585 24.48 336.099C24 299.003 23.52 261.908 22.88 224.652C22.24 182.12 21.6 139.588 20.96 97.216C20.48 67.6355 20 38.2148 19.52 8.63432C19.52 6.87547 18.88 5.43642 18.4 3.83747C18.24 3.1979 17.76 3.038 17.28 3.35779L18.72 3.51768Z" fill="#D0CACA"/>
<path d="M85.4399 0.31979C97.5999 28.4613 109.6 56.4428 121.44 84.7442C122.08 86.3432 122.08 86.9827 120.32 87.6223C115.68 89.3812 111.2 90.9801 106.24 91.14C99.9999 91.4598 94.08 89.8609 88.48 87.3025C85.28 85.8635 82.24 84.2645 78.88 82.9854C78.08 82.6656 77.9199 82.1859 77.5999 81.5463C67.3599 55.1637 57.92 28.4613 50.08 1.27916C50.08 0.959369 49.7601 0.479684 49.7601 0.159895C61.6001 0.159895 73.5999 0.159895 85.4399 0.159895V0.31979Z" fill="#FDFDFD"/>
<path d="M188.32 0.31979C188.32 1.27916 188.32 2.07863 188.8 2.87811C198.72 20.1467 205.76 38.8544 213.12 57.2423C217.12 66.9959 220.96 76.9094 225.28 86.5031C225.28 86.8229 225.6 87.1426 225.76 87.6223C222.72 86.663 219.84 85.8635 216.96 85.3838C211.36 84.2645 206.08 85.3838 200.8 87.1426C196.48 88.4218 192.32 89.8609 188 90.5004C186.4 90.8202 185.92 90.5004 185.28 88.9015C181.28 78.1885 176.96 67.3157 172.8 56.6027C165.76 38.6945 159.36 20.4665 153.12 2.23853C152.96 1.59895 152.48 0.959369 152.64 0.159895H188.32V0.31979Z" fill="#FDFDFD"/>
<path d="M33.7599 574.182C33.4399 571.304 33.44 568.586 35.52 566.187C36 565.708 35.8399 564.908 35.8399 564.428C35.8399 553.556 36.1599 542.683 35.8399 531.81C35.5199 521.417 35.84 511.184 35.52 500.79C35.2 492.636 35.52 484.641 35.2 476.486C34.72 468.492 35.1999 460.657 34.8799 452.822C34.3999 445.787 34.8799 438.591 34.5599 431.556C34.0799 423.881 34.5599 416.046 34.2399 408.371C33.7599 400.696 34.24 392.861 33.92 385.186C33.44 377.192 33.92 369.197 33.6 361.202C33.12 353.208 33.5999 345.373 33.2799 337.538C32.7999 329.063 33.2799 320.749 32.9599 312.274C32.4799 303.8 32.9599 295.486 32.6399 287.011C32.1599 279.336 32.64 271.501 32.32 263.826C31.84 255.672 32.32 247.677 32 239.522C31.52 231.368 31.9999 223.213 31.6799 215.058C31.1999 206.584 31.6799 198.27 31.3599 189.795C30.8799 181.481 31.3599 173.166 31.0399 164.852C30.5599 156.537 31.04 148.382 30.72 140.228C30.24 132.233 30.72 124.078 30.4 116.084C29.92 107.129 30.3999 98.0155 30.0799 89.0614C29.5999 81.0667 30.0799 73.2318 29.7599 65.397C29.2799 57.4022 29.7599 49.2476 29.4399 41.2528C28.7999 29.2607 29.44 17.1087 29.12 5.11663C29.12 3.67758 28.64 2.07863 29.12 0.639579H34.0799C34.0799 1.59895 34.0799 2.55832 34.5599 3.51768C34.5599 4.47705 34.5599 5.43642 34.5599 6.39579C35.3599 61.0798 36 115.604 36.8 170.288C36.96 184.359 36.7999 198.27 37.2799 212.34C38.0799 245.119 38.4 277.897 38.72 310.676C39.04 336.898 39.5199 363.281 39.8399 389.504C40.3199 423.561 40.7999 457.619 41.4399 491.676C41.7599 516.94 42.24 542.363 42.72 567.626C42.72 568.746 42.56 569.385 41.6 570.025C39.36 571.464 37.5999 573.543 35.0399 574.662L33.7599 574.182Z" fill="#FCFCFC"/>
<path d="M328.48 84.1046C324.64 83.1453 320.64 82.026 316.8 81.0666C313.6 80.2672 310.4 79.9474 307.2 80.2672C305.6 80.4271 304.96 79.9474 304.32 78.3484C298.08 63.4782 292.8 48.4481 287.2 33.418C283.84 24.6238 280.48 15.8296 276.32 7.35516C276 6.87547 275.84 6.2359 275.68 5.75621C276.48 3.99737 275.68 2.23853 276 0.31979H308.32C309.6 2.07863 310.4 3.99737 311.36 6.076C316.64 17.4285 321.92 28.941 327.36 40.2935C327.68 40.9331 327.52 42.0523 328.64 42.2122V83.9447L328.48 84.1046Z" fill="#FDFDFD"/>
<path d="M236 0.31979C236.32 2.23853 235.68 4.15726 236.32 6.076C236.32 7.19526 236.16 8.31453 236.16 9.43379C236.32 35.6565 236.64 61.8793 236.8 87.9421C236.8 90.1806 236.8 90.1806 234.72 89.5411C233.92 89.3812 233.12 88.9015 232.32 88.9015C229.44 89.0614 228.48 87.4624 227.52 85.064C219.36 64.2777 211.36 43.3315 202.24 22.865C199.2 15.9895 195.84 9.43379 192 3.038C191.36 1.91874 190.56 0.959369 189.6 0.159895H236V0.31979Z" fill="#ED646C"/>
<path d="M8.8 877.023C21.28 879.901 33.7599 882.779 46.2399 885.657C75.9999 892.533 105.92 899.248 135.84 906.124C173.6 914.758 211.36 923.392 249.12 932.027C274.08 937.783 298.88 943.539 323.84 949.135C325.44 949.455 326.88 950.095 328.48 950.095V955.851C327.04 956.011 325.6 955.371 324.16 955.051C296.96 948.815 269.76 942.58 242.56 936.344C223.52 932.027 204.64 927.55 185.6 923.232C167.84 919.235 150.24 915.078 132.48 911.08C123.36 909.002 114.24 906.923 104.96 904.844C81.9201 899.568 59.04 894.291 36 889.015C27.04 886.936 18.08 884.858 9.12002 882.939C9.44002 881.02 8.48002 879.101 9.12002 877.023H8.8Z" fill="#CEC8C8"/>
<path d="M47.04 0.31979C49.76 10.5531 52.8001 20.4665 56.1601 30.5399C61.4401 47.169 67.5201 63.4782 73.9201 79.6276C74.2401 80.2672 74.4001 80.9068 74.7201 81.7062C68.3201 79.9474 62.08 79.9474 55.84 80.587C50.4 81.2265 45.12 82.5057 40 84.5843C39.36 84.9041 38.72 85.064 38.08 85.2239C37.92 75.95 38.08 66.6761 37.76 57.2423C37.44 48.1283 37.76 38.8544 37.6 29.7404C37.28 19.9868 37.44 10.2333 37.44 0.479684H47.3601L47.04 0.31979Z" fill="#ED646C"/>
<path d="M328.48 577.7C318.4 577.7 308.48 578.179 298.56 576.101C296.8 575.781 295.04 575.301 293.44 574.662C291.2 573.702 290.08 572.103 290.08 569.545C290.08 562.67 290.88 555.794 292.16 549.079C292.8 545.401 293.44 541.723 294.72 538.046C294.72 537.566 295.04 537.086 295.2 536.607C296.96 531.81 297.92 531.49 302.72 532.609C308.64 534.048 314.56 535.967 320.64 536.767C323.2 537.086 325.92 537.246 328.64 537.406L328.64 577.7L328.48 577.7Z" fill="#FDFDFD"/>
<path d="M328.48 369.837C322.08 372.235 315.68 375.113 309.12 376.872C308.32 377.032 307.52 377.512 306.72 377.352C305.44 377.192 304.16 376.552 303.52 375.433C303.04 374.793 304.16 373.834 304.64 373.034C305.28 371.915 306.08 370.796 306.56 369.517C306.72 369.037 307.36 368.398 306.72 367.918C305.92 367.438 305.6 368.238 305.28 368.717C304.16 370.156 303.04 371.755 302.24 373.354C301.6 374.314 301.28 374.314 300.32 373.834C291.36 369.037 291.04 369.037 281.92 373.354C280.96 373.834 280.16 374.154 278.88 374.793C278.88 369.996 278.88 365.519 278.88 361.042C278.88 360.403 279.2 360.083 279.68 359.923C288.16 354.647 296.64 349.37 305.28 344.573C306.24 344.094 307.04 343.774 308.16 344.094C311.2 344.733 313.76 344.094 316.16 341.855C319.68 338.817 323.2 335.779 327.04 333.061C327.52 332.741 328 332.421 328.48 332.261V369.837Z" fill="#98CAD2"/>
<path d="M328.48 989.269C322.88 988.31 317.6 986.87 312 985.591C276 977.277 240.16 968.962 204.16 960.488C167.68 952.013 131.2 943.539 94.88 935.065C77.12 930.907 59.52 926.75 41.76 922.753C31.52 920.354 21.12 917.956 10.88 915.557C9.59998 915.238 8.63998 912.999 9.27998 911.88C9.59998 911.4 9.91994 911.56 10.2399 911.72C19.9999 913.958 29.76 916.357 39.52 918.595C48.32 920.674 56.9601 922.593 65.7601 924.671C99.3601 932.506 132.96 940.341 166.56 948.176C207.04 957.61 247.52 967.044 287.84 976.477C300.8 979.515 313.76 982.553 326.72 985.591C327.2 985.591 327.84 986.071 328.32 985.591V989.429L328.48 989.269Z" fill="#070707"/>
<path d="M8.95996 882.779C17.92 884.858 26.8799 886.936 35.8399 888.855C58.8799 894.132 81.7599 899.408 104.8 904.685C113.92 906.763 123.04 908.842 132.32 910.92C150.08 914.918 167.84 918.915 185.44 923.072C204.48 927.39 223.36 931.867 242.4 936.184C269.6 942.42 296.8 948.656 324 954.892C325.44 955.211 326.72 955.851 328.32 955.691L328.32 959.529C322.4 958.249 316.48 956.97 310.56 955.531C294.56 951.854 278.56 948.176 262.72 944.498C244.16 940.181 225.6 936.024 207.04 931.707C184.32 926.43 161.44 921.314 138.72 916.037C102.24 907.723 65.76 899.248 29.28 890.774C22.56 889.175 15.84 887.736 9.12002 886.137C9.12002 885.018 9.12002 883.738 9.12002 882.619L8.95996 882.779Z" fill="#050505"/>
<path d="M328.48 617.993C319.52 617.194 310.4 616.394 301.44 615.755C295.2 615.275 288.8 614.476 282.56 614.635C281.92 614.635 281.6 614.635 281.6 613.836C281.6 610.958 281.28 607.92 281.6 605.042C282.88 605.362 284.16 605.841 285.44 606.161C292 607.76 298.72 608.08 305.28 608.4C312.96 608.719 320.8 608.4 328.48 608.879V618.153V617.993Z" fill="#D0CACA"/>
<path d="M311.2 0.31979C316.64 0.31979 321.92 0.31979 327.36 0.31979C328.32 0.31979 328.48 0.479684 328.48 1.43905C328.48 12.6317 328.48 23.9842 328.48 35.1768C328.32 34.8571 328 34.6972 328 34.3774C322.72 23.1847 317.28 11.9921 311.36 1.11926C311.36 0.799474 311.04 0.639579 311.36 0.159895L311.2 0.31979Z" fill="#ED646C"/>
<path d="M328.48 599.925C323.68 599.925 318.88 599.286 314.08 598.806C312.96 598.806 311.52 599.286 311.04 598.326C310.72 597.527 311.36 596.248 311.68 595.288C312.8 590.971 313.92 586.654 314.72 582.337C315.04 580.578 315.52 580.418 317.12 580.418C320.96 580.418 324.8 580.418 328.64 580.418V599.925H328.48Z" fill="#98CAD2"/>
<path d="M281.76 623.75L281.76 617.194C287.36 618.153 292.96 618.953 298.4 619.272C303.04 619.592 307.68 620.072 312.32 620.552C317.76 621.031 323.04 621.351 328.48 621.831V627.907C324 627.907 319.68 626.787 315.2 626.468C312.96 626.308 310.72 626.308 308.32 625.988C303.68 625.508 298.88 625.508 294.24 625.029C290.08 624.549 285.76 624.709 281.6 623.59L281.76 623.75Z" fill="#FCFCFC"/>
<path d="M328.48 608.719C320.8 608.4 312.96 608.559 305.28 608.24C298.56 607.92 292 607.6 285.44 606.001C284.16 605.681 282.88 605.202 281.6 604.882C280.64 599.605 280.64 599.605 285.92 600.245C295.04 601.204 304.16 602.004 313.28 602.643C318.4 602.963 323.36 603.603 328.48 603.763V608.719Z" fill="#FCFCFC"/>
<path d="M311.2 0.31979C311.04 0.639579 311.2 0.959369 311.2 1.27916C317.12 12.152 322.56 23.3446 327.84 34.5373C327.84 34.8571 328.16 35.017 328.32 35.3367V42.2122C327.2 42.2122 327.2 41.093 327.04 40.2935C321.76 28.941 316.48 17.4285 311.04 6.076C310.08 4.15726 309.28 2.07863 308 0.31979H311.2Z" fill="#070707"/>
<path d="M37.12 0.31979C37.12 10.0734 37.12 19.827 37.28 29.5805C37.6 38.6945 37.2799 47.9684 37.4399 57.0824C37.7599 66.3563 37.4399 75.7901 37.7599 85.064C36.9599 85.064 37.4399 84.4244 37.4399 84.2645C37.4399 81.2265 37.4399 78.0286 37.4399 74.9906C37.4399 71.9526 37.76 68.9146 37.12 65.7168C36.8 49.5674 36.4799 33.418 36.1599 17.2686C36.1599 13.1114 35.9999 8.95411 35.8399 4.79684C35.8399 3.35779 35.2 2.23853 34.72 0.799474C33.76 1.27916 34.08 2.55832 33.28 2.87811C32.96 1.91874 32.64 0.959369 32.8 0H36.9599L37.12 0.31979Z" fill="#CEC8C8"/>
<path d="M275.84 0.31979C275.52 2.07863 276.16 3.99737 275.52 5.75621C274.4 3.99737 273.44 2.23853 272.8 0.31979H275.84Z" fill="#D0CACA"/>
<path d="M68.9601 881.02C68.9601 877.662 68.6399 874.145 68.6399 870.787C67.9999 798.195 67.52 725.602 66.88 653.01C66.88 647.574 66.8801 642.297 66.5601 636.861C66.5601 635.582 67.04 635.742 67.68 635.901C72.96 636.701 78.24 637.341 83.68 638.14C95.52 639.739 107.2 641.338 119.04 642.937C129.6 644.376 140.16 645.815 150.72 647.254C162.4 648.853 174.08 650.452 185.76 652.051C193.92 653.17 202.24 654.289 210.4 655.409C213.6 655.888 213.6 655.888 213.6 659.086C213.28 700.499 213.12 741.752 212.64 783.165C212.32 823.458 211.84 863.752 211.52 903.885C211.52 906.763 211.36 909.641 211.2 912.519C210.4 912.519 209.6 912.52 208.8 912.36C201.6 910.761 194.24 909.162 187.04 907.563C170.4 903.725 153.76 899.888 137.12 896.05C120.16 892.053 103.2 887.896 86.2399 884.058C80.4799 882.779 74.8801 881.34 68.9601 881.34V881.02Z" fill="#D1CBCB"/>
<path d="M38.2399 133.832C38.2399 127.436 37.92 121.2 37.92 114.804C37.92 106.81 37.76 98.815 37.6 90.8202C37.6 89.701 37.9199 89.2213 39.0399 88.7416C48.3199 84.9041 57.9199 83.3052 67.9999 84.2645C73.2799 84.7442 78.2399 86.663 83.0399 89.0614C87.3599 91.14 91.5201 93.2187 96.1601 94.178C104.64 96.0968 112.8 94.9775 120.8 91.7796C127.04 89.0614 133.44 86.3432 140.16 85.2239C150.56 83.625 160.8 84.1046 170.4 89.2213C171.36 89.701 172.32 90.1806 173.28 90.6603C180.48 94.9775 188 95.6171 196 92.739C199.52 91.4598 203.2 90.5004 206.72 89.5411C212.48 87.9421 217.92 89.0614 223.36 90.8202C225.92 91.6197 228.48 92.2593 231.2 92.5791C232.64 92.739 233.92 92.2593 235.36 92.0994C236.48 92.0994 236.96 92.0994 236.96 93.5384C236.96 98.4952 236.96 103.452 237.12 108.569C237.28 129.675 237.6 150.941 237.76 172.047C237.76 173.006 237.76 173.646 236.64 173.965C235.68 174.285 235.2 175.245 234.88 176.044C225.76 191.714 216.64 207.543 207.68 223.373C202.24 232.807 196.96 242.241 191.68 251.514C191.36 251.994 191.2 252.314 190.88 252.794C191.84 253.273 192 252.314 192.16 251.834C193.6 249.596 195.04 247.197 196.48 244.959C210.56 223.853 223.52 201.947 236.32 180.201C236.64 179.562 237.12 178.922 237.92 178.443C237.92 178.922 237.92 179.562 237.92 180.042C237.92 192.513 238.24 204.825 238.4 217.297C238.4 218.096 238.72 219.056 237.28 219.056C236.64 219.056 236.32 219.855 236 220.335C229.28 232.327 221.92 243.999 214.56 255.672C214.24 256.151 213.76 256.631 213.76 257.59C222.88 246.558 230.88 234.726 238.4 222.574C238.72 245.279 238.88 268.143 239.2 291.008C238.88 291.008 238.72 291.008 238.56 291.008C233.6 287.011 228.48 283.493 223.36 279.816C221.6 278.537 219.84 277.098 218.24 275.499C216.48 273.74 215.36 273.74 213.44 275.499C211.2 277.737 209.76 280.296 208.32 283.014C207.36 284.773 206.24 286.052 204.64 287.011C195.68 292.767 187.68 299.643 180 306.838C175.36 311.155 170.72 315.312 165.6 318.99C158.4 324.107 152.16 330.343 145.44 336.099C143.68 337.698 142.4 339.776 141.44 341.855C140.8 343.294 140 344.733 139.36 346.172C138.88 345.852 138.4 345.373 138.08 345.053C132.8 339.616 126.56 335.939 119.36 333.381C108.8 329.703 97.92 328.904 86.88 330.343C75.84 331.782 65.5999 335.459 55.9999 341.375C50.8799 344.413 46.72 348.571 42.4 352.408C42.24 341.215 42.4 330.183 41.76 319.15C41.6 313.873 42.08 309.396 45.76 305.239C48.16 302.521 49.76 299.003 51.68 295.805C52.16 295.166 52.8 294.206 51.68 293.407C50.72 292.767 50.0799 293.727 49.5999 294.366C47.0399 297.884 44.64 301.561 42.72 305.559C42.4 306.039 42.24 306.678 41.6 307.158C41.6 304.44 41.6 301.881 41.6 299.163C41.6 298.843 41.6 298.364 41.92 298.044C47.2 291.808 50.8799 284.613 55.1999 277.737C60.4799 269.583 65.6 261.428 70.88 253.273C71.52 252.314 72.1599 251.195 72.6399 250.075C72.9599 249.436 72.96 248.796 72.32 248.476C71.68 248.157 71.2 248.476 70.88 248.956C70.24 249.756 69.76 250.555 69.28 251.355C60 264.786 51.52 278.697 42.88 292.607C42.56 293.087 42.4 293.407 42.08 293.887C41.44 293.567 41.76 292.927 41.76 292.607C41.6 282.854 41.28 273.1 41.12 263.347C40.8 244.959 40.48 226.411 40.16 208.023C40.16 207.543 40.16 207.064 40.16 206.744C49.28 206.904 58.4 206.744 67.52 206.904C80.8 207.064 93.9199 207.703 107.2 207.703C134.4 207.703 161.6 208.663 188.64 207.064C194.72 206.744 200.8 206.584 206.72 206.264C209.44 206.264 212.16 205.785 214.88 205.465C216.32 205.465 216.8 204.825 215.84 203.386C214.4 201.307 213.12 199.229 211.68 197.31C206.4 190.914 199.84 187.716 191.52 189.315C190.08 189.635 189.12 189.315 188.64 187.557C187.36 181.96 183.36 180.042 178.08 181.96C175.36 182.92 173.12 184.519 170.72 185.958C170.72 185.318 170.72 184.519 170.72 183.879C171.52 180.841 171.36 177.643 170.72 174.605C168.48 162.773 160.64 156.697 148.96 155.737C142.08 155.098 135.52 157.017 129.44 160.055C126.72 161.494 124.32 163.253 121.76 164.852C121.76 164.212 121.76 163.572 121.92 162.933C122.56 160.055 123.04 157.017 123.2 154.139C123.68 146.144 122.24 138.469 118.88 131.274C115.36 123.599 110.24 117.683 102.24 114.485C95.3599 111.766 88.1599 110.807 80.6399 111.447C73.1199 112.086 65.9199 114.165 59.1999 117.363C51.0399 121.2 44 126.637 38.4 133.832H38.2399Z" fill="#AFE8F9"/>
<path d="M138.08 579.619C148.96 563.469 160 547.32 170.88 531.17C171.36 530.371 172 529.731 172.16 528.772C172.16 528.452 172.16 528.132 172 527.973C171.68 527.813 171.36 527.973 171.04 527.973C170.24 528.452 169.76 529.252 169.28 529.891C160.64 540.924 153.28 552.756 145.28 564.269C141.76 569.225 138.08 574.022 135.36 579.459C133.28 579.139 131.36 578.979 129.28 578.659C124.64 578.02 119.84 577.38 115.2 576.9C111.36 576.421 107.36 576.101 103.52 575.621C101.6 572.103 98.56 570.345 94.88 569.066C86.24 566.028 77.1199 564.748 67.9999 563.789C61.1199 562.989 54.0799 562.99 47.1999 562.67C46.5599 562.67 45.76 563.149 45.6 562.19C45.44 561.391 45.44 560.591 45.92 559.792C53.28 550.198 59.2001 539.805 66.5601 530.211C67.8401 528.452 69.1199 526.693 70.3999 524.935C70.8799 524.295 71.84 523.336 70.72 522.696C69.76 521.897 69.1199 523.176 68.6399 523.815C61.5999 532.45 54.8801 541.244 48.9601 550.678C48.0001 552.277 46.88 554.035 45.76 555.634C45.6 555.634 45.44 555.634 45.12 555.634C45.12 553.556 45.12 551.317 45.12 549.239C44.8 529.891 44.64 510.704 44.32 491.357C44.16 479.524 43.9999 467.692 43.8399 455.86C43.8399 454.581 44.16 453.941 45.28 453.302C49.6 450.583 54.0801 452.023 58.5601 452.822C60.9601 453.142 63.1999 453.621 65.4399 454.101C67.9999 454.741 70.4001 454.421 72.9601 453.302C85.1201 448.185 97.7601 445.307 110.56 442.269C117.6 440.67 124.48 439.071 131.68 438.272C135.04 437.952 138.4 438.112 141.44 439.391C144.16 440.51 146.88 440.51 149.76 439.711C157.44 437.312 164.48 433.475 171.68 430.277C182.24 425.48 192.96 420.843 203.52 416.046C206.72 414.607 209.6 414.607 212.64 416.046C216.8 418.125 221.12 419.724 225.12 421.802C229.44 424.041 233.92 424.681 238.56 425C240 425 240.48 425.32 240.48 426.919C240.8 465.773 241.28 504.468 241.76 543.322C241.92 558.992 242.08 574.662 242.4 590.331C242.4 591.131 242.4 591.93 242.4 592.89C238.08 592.41 233.76 591.771 229.28 591.291C223.52 590.651 217.76 590.012 212 589.212C206.24 588.573 200.48 587.773 194.88 586.974C188.16 586.174 181.44 585.375 174.72 584.575C167.68 583.776 160.64 582.976 153.6 581.857C152.16 581.697 150.56 582.017 149.12 581.058C150.56 578.659 152.16 576.101 153.6 573.702C153.92 573.063 154.24 572.423 154.56 571.624C154.56 571.144 154.56 570.664 154.24 570.505C153.76 570.345 153.28 570.345 152.96 570.664C152.32 571.304 151.84 571.944 151.36 572.583C149.44 575.301 147.52 578.18 145.6 580.898C143.04 580.578 140.48 580.578 138.08 579.778V579.619ZM45.6 542.843C48.48 540.284 50.3999 537.566 51.9999 534.688C63.1999 515.661 75.36 497.113 88.48 479.205C88.8 478.725 89.1199 478.245 89.4399 477.766C89.5999 477.446 89.9199 476.966 89.4399 476.486C88.9599 476.167 88.6401 476.327 88.1601 476.486C87.5201 477.126 86.8799 477.925 86.2399 478.565C77.4399 489.598 69.6 501.27 61.92 513.102C56.64 521.417 51.52 529.731 46.88 538.366C46.24 539.485 45.6 540.604 45.6 542.523V542.843Z" fill="#98CAD3"/>
<path d="M48.6399 882.619C43.9999 881.979 39.36 880.54 34.88 879.581C33.92 879.421 34.08 878.782 34.08 878.142C34.08 875.264 33.92 872.386 33.76 869.508C33.44 847.922 33.28 826.176 32.96 804.59C32.48 768.294 31.84 731.998 31.36 695.702C31.04 670.599 30.5599 645.335 30.2399 620.232C30.0799 608.879 29.92 597.527 29.6 586.174C29.6 584.895 29.76 584.575 31.2 584.735C40.8 586.494 50.3999 587.453 59.9999 588.892C70.2399 590.331 80.48 591.611 90.72 592.89C100.96 594.169 111.04 595.608 121.28 596.887C131.68 598.166 141.92 599.605 152.32 600.885C163.52 602.324 174.72 603.763 185.92 605.202C198.08 606.801 210.4 608.4 222.56 609.998C228.64 610.798 234.72 611.757 240.8 612.397C242.4 612.557 242.72 613.196 242.72 614.635C243.04 651.411 243.52 688.187 243.84 725.123C243.84 737.595 243.84 749.906 244.16 762.378C244.8 795.796 244.8 829.214 245.28 862.632C245.6 880.54 245.28 898.609 245.92 916.517C245.92 917.796 245.92 919.235 245.92 920.514C241.44 919.555 236.96 918.435 232.48 917.476C231.84 917.476 231.36 917.316 231.52 916.357C232 912.679 232.16 908.842 232.16 905.164C232.16 895.731 232.16 886.297 232.8 876.863C233.28 869.028 233.44 861.353 233.6 853.518C233.92 843.445 233.12 833.372 232.96 823.298C232.64 807.149 233.28 790.999 232.16 774.85C231.84 769.573 232 764.297 231.84 759.02C231.68 747.668 231.68 736.156 232 724.803C232.48 711.852 232.16 698.9 232.8 685.948C233.28 675.395 232.32 664.842 231.84 654.289C231.68 650.292 231.2 646.455 230.24 642.617C229.6 640.219 228.16 638.62 225.92 637.66C224.32 637.021 222.72 636.861 221.12 636.541C216 635.742 210.88 634.942 205.92 634.143C198.72 633.183 191.52 632.544 184.32 631.265C172.8 629.346 161.12 627.907 149.6 626.468C141.92 625.508 134.08 624.549 126.4 623.27C115.36 621.351 104.32 619.752 93.28 618.473C85.28 617.514 77.28 617.194 69.28 616.394C66.72 616.234 64.0001 616.394 61.7601 615.435C59.3601 614.476 57.92 615.435 56.48 616.714C55.68 617.514 55.0401 618.473 54.5601 619.592C52.1601 623.749 52 628.546 51.52 633.023C50.88 639.259 51.04 645.495 50.72 651.731C50.4 662.284 50.7199 672.837 50.2399 683.39C50.0799 686.588 50.24 689.946 49.92 693.144C49.28 700.659 48.9599 708.334 48.7999 715.849C48.6399 724.163 48.8 732.478 48.48 740.792C48.32 749.107 48.48 757.422 48.48 765.736C48.64 783.005 48.96 800.273 48.32 817.542C48 824.417 47.6799 831.453 47.8399 838.328C47.8399 843.924 47.9999 849.361 47.8399 854.957C47.6799 858.795 47.8399 862.632 47.8399 866.63C47.9999 872.066 48.1599 877.502 48.6399 882.779V882.619Z" fill="#D1CBCB"/>
<path d="M121.6 165.011C124.16 163.412 126.56 161.494 129.28 160.215C135.36 157.177 141.92 155.258 148.8 155.897C160.48 157.017 168.32 163.093 170.56 174.765C171.2 177.803 171.2 181.001 170.56 184.039C170.4 184.678 170.56 185.478 170.56 186.118C170.56 186.118 170.56 186.118 170.56 185.958C172.96 184.519 175.2 182.76 177.92 181.96C183.36 180.201 187.2 181.96 188.48 187.557C188.96 189.475 189.92 189.635 191.36 189.315C199.84 187.716 206.24 190.914 211.52 197.31C213.12 199.229 214.4 201.308 215.68 203.386C216.64 204.825 216.16 205.305 214.72 205.465C212 205.785 209.28 206.104 206.56 206.264C200.48 206.584 194.4 206.744 188.48 207.064C161.28 208.663 134.24 207.703 107.04 207.703C93.7599 207.703 80.6401 207.064 67.3601 206.904C58.2401 206.904 49.12 206.904 40 206.744C40 205.145 39.84 203.706 39.68 202.107C39.2 179.882 38.88 157.816 38.56 135.591C38.56 134.951 38.56 134.312 38.56 133.672C44.16 126.477 51.2001 121.04 59.3601 117.203C66.0801 114.005 73.2799 111.926 80.7999 111.287C88.3199 110.647 95.3599 111.607 102.4 114.325C110.4 117.363 115.68 123.439 119.04 131.114C122.4 138.309 123.84 145.984 123.36 153.979C123.2 157.017 122.56 159.895 122.08 162.773C122.08 163.412 122.08 164.052 121.92 164.692C121.92 164.692 121.92 164.692 121.92 164.852C121.92 164.852 121.92 164.852 122.08 164.852L121.6 165.011Z" fill="#FEFEFE"/>
<path d="M240.32 423.082C238.4 422.602 236.64 422.282 234.72 422.282C232.32 422.282 230.08 421.483 228 420.523C223.04 418.125 217.92 415.886 212.8 413.648C209.76 412.209 206.88 412.209 203.68 413.648C188.32 420.203 173.28 427.239 158.08 434.114C154.72 435.553 151.36 436.992 147.84 437.952C146.56 438.272 145.28 438.591 144 437.952C137.76 435.074 131.36 435.713 124.8 436.992C108.64 440.03 92.8 443.708 77.28 449.144C76.48 449.464 75.52 449.624 74.72 450.104C70.72 452.502 66.7199 452.182 62.3999 451.223C59.0399 450.424 55.68 450.104 52.48 449.464C49.76 448.984 47.2 449.464 44.8 450.903C43.84 451.543 43.52 451.223 43.52 450.104C43.52 439.87 43.36 429.637 43.2 419.404C43.2 418.604 43.2 417.805 44.32 418.125C52.48 420.044 60.48 418.764 68.48 417.006C74.24 415.726 80.16 415.726 85.92 415.087C90.24 414.607 94.7199 413.968 99.0399 413.488C101.76 413.168 103.68 411.729 105.6 409.81C112.32 403.414 118.88 396.859 125.6 390.463C128.64 387.425 132 384.707 135.36 382.148C137.44 380.55 139.68 379.91 142.24 379.91C152.32 379.91 162.4 380.07 172.32 380.07C174.88 380.07 177.6 379.75 180.16 379.11C181.76 378.791 182.88 377.991 184 376.712C190.24 369.357 196.96 362.641 203.68 355.606C205.28 353.847 206.88 352.568 209.28 351.768C214.56 350.01 219.52 347.451 224.64 345.213C227.04 344.253 229.44 343.294 231.68 342.335C233.92 341.375 236 341.535 238.24 342.015C239.2 342.175 239.52 342.654 239.52 343.774C239.52 357.844 239.84 371.755 240 385.826C240 386.466 239.84 386.945 239.2 387.425C237.76 388.384 236.48 389.504 235.2 390.783C233.44 392.702 231.36 393.181 228.8 393.021C225.12 392.702 221.44 392.861 217.92 392.702C209.76 392.382 202.24 394.3 195.52 398.937C194.24 399.737 192.96 400.536 191.84 401.176C191.2 401.656 190.08 401.975 190.56 402.935C191.04 404.054 192 403.414 192.8 403.255C195.68 402.455 198.72 401.816 201.76 401.336C207.52 400.217 213.12 400.536 218.72 402.615C221.12 403.414 223.36 404.214 225.76 405.173C230.08 407.092 234.72 407.252 239.2 406.452C240.32 406.293 240.16 406.772 240.16 407.412C240.16 412.529 240.16 417.645 240.16 422.922L240.32 423.082Z" fill="#FDFDFD"/>
<path d="M239.52 324.426C239.52 328.904 239.52 333.54 239.52 338.018C239.52 339.457 239.52 340.096 237.76 339.457C235.68 338.657 233.6 338.977 231.52 339.936C223.84 343.294 216 346.652 208.32 350.01C205.44 351.289 202.88 352.888 200.8 355.286C194.72 361.842 188.48 368.078 182.56 374.793C180.8 376.872 178.4 377.032 176 377.512C173.12 377.991 170.08 377.991 167.2 377.831C158.88 377.831 150.4 377.831 142.08 377.512C139.2 377.512 136.64 378.311 134.4 379.91C128.48 384.387 123.2 389.504 117.92 394.62C113.6 398.778 109.12 402.935 104.96 407.252C102.4 409.81 99.68 411.249 96.16 411.569C88.48 412.369 80.8 413.168 73.12 413.968C69.28 414.287 65.4399 415.247 61.5999 416.046C56.7999 417.006 52.16 417.006 47.3601 416.046C46.5601 416.046 45.76 415.726 45.12 416.046C43.52 416.686 43.0399 416.046 43.0399 414.447C43.0399 412.209 42.2399 409.49 43.0399 407.572C43.8399 405.813 46.2399 404.854 47.9999 403.414C57.4399 394.94 67.0399 386.785 77.4399 379.43C77.7599 379.27 78.0799 378.951 78.3999 378.791C84.3199 373.994 91.04 371.755 98.88 372.555C104.8 373.194 110.24 371.755 115.52 369.197C121.44 366.479 127.36 363.761 132.96 360.403C135.36 358.964 137.12 357.045 138.24 354.487C140.16 350.329 142.08 346.172 144.32 342.175C145.28 340.576 146.4 339.137 147.84 337.858C154.24 331.942 160.16 325.546 167.36 320.589C173.76 316.112 180.32 311.635 187.52 308.597C190.72 307.158 194.24 306.838 197.76 306.518C199.04 306.518 199.68 306.998 199.52 308.277C199.52 309.876 199.52 311.315 199.52 312.914C199.52 314.993 200.48 315.472 202.4 314.993C208.32 313.554 214.24 312.434 220 310.676C221.12 310.356 221.76 310.676 222.56 311.475C223.52 312.594 224.48 313.873 225.6 314.993C227.04 316.432 228 316.272 229.12 314.513C230.88 311.635 231.36 308.437 232 305.239C232.32 303.48 232.8 303.8 233.92 304.6C237.44 307.158 239.68 310.036 239.04 314.833C238.56 318.031 239.04 321.388 239.04 324.586H239.2L239.52 324.426Z" fill="#98CAD2"/>
<path d="M48.6399 882.619C48.1599 877.183 48 871.746 47.84 866.47C47.84 862.632 47.68 858.795 47.84 854.797C48.16 849.201 48 843.765 47.84 838.168C47.84 831.133 48.16 824.258 48.32 817.382C48.96 800.113 48.64 782.845 48.48 765.576C48.48 757.262 48.16 748.947 48.48 740.633C48.64 732.318 48.4799 724.003 48.7999 715.689C48.9599 708.174 49.44 700.499 49.92 692.984C50.24 689.786 49.92 686.428 50.24 683.23C50.88 672.677 50.24 662.124 50.72 651.571C50.88 645.335 50.72 639.099 51.52 632.864C52 628.227 52.1601 623.59 54.5601 619.432C55.2001 618.473 55.68 617.354 56.48 616.554C57.92 615.115 59.3601 614.316 61.7601 615.275C64.0001 616.234 66.72 616.075 69.28 616.234C77.28 616.874 85.28 617.354 93.28 618.313C104.32 619.592 115.52 621.191 126.4 623.11C134.08 624.389 141.92 625.349 149.6 626.308C161.12 627.747 172.8 629.346 184.32 631.105C191.52 632.224 198.72 632.864 205.92 633.983C211.04 634.622 216.16 635.582 221.12 636.381C222.72 636.541 224.32 636.861 225.92 637.5C228.32 638.46 229.6 640.059 230.24 642.457C231.36 646.295 231.68 650.132 231.84 654.13C232.32 664.683 233.28 675.236 232.8 685.789C232.16 698.74 232.32 711.692 232 724.643C231.68 736.156 231.68 747.508 231.84 758.861C231.84 764.137 231.84 769.414 232.16 774.69C233.28 790.839 232.64 806.989 232.96 823.138C233.12 833.212 233.92 843.285 233.6 853.358C233.44 861.193 233.12 868.868 232.8 876.703C232.32 886.137 232.16 895.571 232.16 905.004C232.16 908.842 232 912.519 231.52 916.197C231.52 917.156 231.84 917.156 232.48 917.316C236.96 918.276 241.44 919.395 245.92 920.354C245.92 922.433 245.92 924.512 245.92 926.43C245.92 927.869 244.96 927.23 244.48 927.07C240 926.111 235.36 924.991 230.88 923.872C229.12 923.392 227.36 922.913 225.44 922.593C224.48 922.433 224.32 922.113 224.16 921.154C223.52 912.679 224 904.365 224.16 895.89C224.48 825.856 224.96 755.823 225.28 685.789C225.28 672.837 225.28 659.886 225.28 646.934C225.28 645.495 225.28 644.376 223.36 643.736C224.32 643.417 224.96 643.097 224.8 642.297C224.64 641.338 223.68 641.178 223.04 641.178C216.8 640.219 210.56 639.259 204.32 638.46C193.12 637.021 181.92 635.582 170.72 633.983C160.48 632.704 150.24 631.265 140 629.985C128.8 628.546 117.6 627.107 106.4 625.668C96.1599 624.389 85.92 622.95 75.68 621.671C70.88 621.031 65.92 620.392 61.12 619.592C59.68 619.432 59.04 619.752 58.24 621.191C56.96 623.27 57.7601 625.349 57.7601 627.427C57.6001 672.997 57.44 718.727 57.44 764.297C57.44 803.151 57.44 841.846 57.44 880.7C57.44 884.538 57.4399 884.538 53.5999 883.738C51.9999 883.419 50.4001 883.259 48.9601 882.459L48.6399 882.619Z" fill="#FCFCFC"/>
<path d="M42.08 352.568C46.4 348.73 50.72 344.573 55.68 341.535C65.28 335.779 75.5201 332.101 86.5601 330.502C97.7601 329.063 108.48 329.863 119.04 333.54C126.08 336.099 132.48 339.616 137.76 345.213C138.08 345.692 138.56 346.012 139.04 346.332C138.08 349.37 136.64 352.408 135.2 355.286C134.72 356.086 134.08 356.725 133.28 357.205C125.76 361.842 117.92 365.839 109.6 368.557C105.76 369.837 101.76 369.677 97.7601 369.197C91.2001 368.557 85.4399 369.996 79.9999 373.674C69.1199 381.029 59.3599 389.504 49.4399 397.978C47.3599 399.737 45.2799 401.656 43.0399 403.414C42.3999 402.935 42.56 402.295 42.56 401.816C42.24 385.666 42.08 369.517 41.76 353.367C41.76 353.048 41.76 352.728 41.76 352.408L42.08 352.568Z" fill="#FDFDFD"/>
<path d="M214.88 913.639C214.88 900.048 214.88 886.457 214.88 872.866C215.52 803.151 216 733.277 216.64 663.563C216.64 662.284 216.8 661.005 216.64 659.726C215.52 654.289 219.36 650.932 221.92 646.774C221.92 649.333 221.92 651.411 221.92 653.49C221.28 706.895 221.44 760.3 221.12 813.705C221.12 846.483 220.8 879.421 220.64 912.2C220.64 913.159 220.64 913.959 220.64 914.918C218.72 914.598 216.8 914.118 214.88 913.799L214.88 913.639Z" fill="#CEC8C8"/>
<path d="M60.32 622.95C113.6 629.825 166.88 636.701 220.48 643.736C218.72 646.135 216.8 648.053 215.52 650.452C214.24 652.69 212.8 653.01 210.4 652.69C189.44 649.652 168.48 646.774 147.36 643.896C128.32 641.338 109.12 638.62 90.08 636.061C82.56 635.102 75.2 633.983 67.68 633.023C66.4 632.864 65.4399 632.384 64.7999 631.265C63.3599 628.706 61.5999 626.148 59.9999 623.59C59.9999 623.43 60.0001 623.27 60.1601 623.11L60.32 622.95Z" fill="#CEC8C8"/>
<path d="M242.4 600.725C242.4 603.123 242.4 605.521 242.4 607.76C242.4 609.359 241.92 609.679 240.48 609.519C235.36 608.879 230.08 608.08 224.96 607.44C214.72 606.161 204.64 604.722 194.4 603.443C183.36 602.004 172.16 600.565 161.12 599.126C149.92 597.687 138.88 596.088 127.68 594.649C116.48 593.21 105.44 591.611 94.2399 590.172C84.1599 588.892 74.0799 587.453 63.9999 586.174C54.5599 584.895 44.96 583.776 35.52 582.497C33.44 582.177 31.52 582.017 29.12 581.857C31.68 580.418 33.6 578.499 35.68 577.22C37.12 578.819 38.7199 579.139 40.6399 578.499C41.5999 578.18 42.4 578.179 43.36 578.339C46.4 578.979 49.44 579.299 52.48 579.619C57.28 580.258 61.92 580.898 66.72 581.377C72 582.017 77.44 582.657 82.72 583.456C87.36 584.096 91.84 584.735 96.48 585.215C101.44 585.854 106.4 586.334 111.2 586.974C115.04 587.453 119.04 587.933 122.88 588.413C127.84 589.052 132.64 589.852 137.6 590.491C142.72 591.131 147.84 591.93 152.8 592.57C157.6 593.21 162.4 593.689 167.2 594.169C170.56 594.489 174.08 594.809 177.44 594.968C182.88 595.288 188.16 595.928 193.6 596.407C196.8 596.727 200 596.887 203.36 597.207C208.48 597.846 213.76 598.326 218.88 598.966C223.68 599.605 228.32 600.245 233.12 600.725C236.16 601.044 239.2 602.004 242.08 600.405L242.4 600.725Z" fill="#D0CACA"/>
<path d="M242.4 600.725C239.36 602.164 236.48 601.364 233.44 601.044C228.64 600.565 224 599.925 219.2 599.286C214.08 598.646 208.8 598.006 203.68 597.527C200.48 597.207 197.28 596.887 193.92 596.727C188.48 596.248 183.2 595.608 177.76 595.288C174.4 595.128 170.88 594.809 167.52 594.489C162.72 594.009 157.92 593.37 153.12 592.89C148 592.25 142.88 591.451 137.92 590.811C132.96 590.172 128.16 589.372 123.2 588.733C119.36 588.253 115.36 587.773 111.52 587.294C106.56 586.654 101.6 586.174 96.7999 585.535C92.1599 585.055 87.6799 584.415 83.0399 583.776C77.7599 583.136 72.3199 582.337 67.0399 581.697C62.2399 581.058 57.5999 580.578 52.7999 579.938C49.7599 579.619 46.72 579.139 43.68 578.659C42.72 578.499 41.76 578.659 40.96 578.819C39.04 579.299 37.28 578.979 36 577.54C37.92 575.941 39.84 574.182 41.92 572.743C43.04 571.784 44.64 572.104 45.92 572.263C53.92 573.223 61.9201 574.502 69.7601 575.461C79.2001 576.74 88.7999 577.86 98.2399 579.139C108.8 580.578 119.36 581.857 129.92 583.136C134.08 583.616 138.24 584.255 142.4 584.735C142.72 584.735 143.52 584.415 143.52 585.375C143.52 587.453 144.48 586.334 144.96 585.854C145.6 585.215 146.24 585.215 147.04 585.215C161.44 587.134 175.84 588.892 190.08 590.811C203.36 592.57 216.8 594.169 230.08 595.928C233.12 596.248 236.32 596.727 239.36 597.207C242.4 597.687 242.4 597.687 242.24 600.885L242.4 600.725Z" fill="#FCFCFC"/>
<path d="M59.9999 629.026C61.5999 630.785 62.0801 633.503 64.1601 634.782C64.4801 634.942 64.4801 635.262 64.1601 635.422C62.8801 636.861 63.36 638.78 63.52 640.378C63.84 693.623 64.1599 746.709 64.6399 799.953C64.7999 826.976 64.96 853.998 65.12 881.02C65.12 881.979 65.12 883.099 65.12 884.058C65.12 885.657 64.3733 886.297 62.88 885.977C62.4 885.977 61.9199 885.657 61.4399 885.657C60.4799 885.657 59.84 885.177 60.48 884.058C60.64 883.738 60.48 883.099 60.48 882.779C60 805.07 60.3199 727.521 59.9999 649.812C59.9999 642.937 59.9999 636.061 59.9999 629.026Z" fill="#CEC8C8"/>
<path d="M68.9601 881.02C74.8801 881.02 80.6399 882.459 86.2399 883.738C103.2 887.576 120.16 891.733 137.12 895.73C153.76 899.568 170.4 903.405 187.04 907.243C194.24 908.842 201.6 910.441 208.8 912.04C209.6 912.2 210.4 912.36 211.2 912.2C211.68 914.598 210.72 916.997 211.84 919.555C207.36 918.596 203.2 917.636 198.88 916.677C168.8 909.801 138.72 902.926 108.64 896.21C95.8399 893.332 83.0399 890.294 70.2399 887.576C69.1199 887.256 68.6398 886.936 68.7998 885.657C68.7998 884.058 68.7998 882.459 68.7998 880.86L68.9601 881.02Z" fill="#FCFCFC"/>
<path d="M183.52 306.998C190.88 300.922 197.76 294.526 205.76 289.41C207.68 288.13 209.28 286.531 210.4 284.453C211.52 282.054 212.96 279.816 214.88 277.737C215.36 277.258 215.68 276.618 216.64 277.258C222.88 282.694 230.08 286.851 236.48 292.128C238.4 293.727 239.68 295.326 239.36 298.044C239.04 300.442 239.36 302.681 239.36 305.399C237.76 303.96 236.32 302.681 234.88 301.402C232.8 299.643 231.36 299.963 230.56 302.681C229.76 305.399 229.28 308.277 228.64 311.155C228.48 311.955 228.16 312.594 227.84 313.394C226.4 312.434 225.76 311.155 224.96 310.036C223.68 308.117 222.08 307.638 220 308.277C214.88 309.716 209.76 311.155 204.48 312.274C203.2 312.594 202.56 312.434 202.72 310.995C202.72 309.876 202.72 308.757 202.72 307.797C202.72 305.079 201.44 303.96 198.72 303.96C193.6 304.12 188.64 305.239 184 307.478C184 307.478 183.84 307.318 183.68 307.158L183.52 306.998Z" fill="#FCFCFC"/>
<path d="M100.48 575.781C94.4 574.982 88.7999 574.342 83.1999 573.543C73.2799 572.263 63.36 571.144 53.28 569.865C51.04 569.545 48.64 569.385 46.4 569.066C45.6 569.066 45.4399 568.746 45.4399 567.946C45.1199 564.748 45.44 564.588 48.48 564.748C49.76 564.748 51.2 565.068 52.48 565.068C63.52 565.548 74.4 566.507 85.12 568.906C88.96 569.705 92.64 570.824 96.32 572.263C97.76 572.903 99.04 573.702 100.32 575.461L100.48 575.781Z" fill="#F9F9F9"/>
<path d="M149.12 581.058C150.4 582.017 152 581.537 153.6 581.857C160.64 582.816 167.68 583.776 174.72 584.575C181.44 585.375 188.16 586.174 194.88 586.974C200.64 587.613 206.4 588.413 212 589.212C217.76 589.852 223.52 590.491 229.28 591.291C233.6 591.771 237.92 592.25 242.4 592.89C242.72 594.169 241.92 594.169 241.12 594.009C237.6 593.529 234.08 593.21 230.4 592.73C219.84 591.451 209.12 590.012 198.56 588.733C188 587.453 177.28 586.014 166.72 584.735C161.12 584.096 155.52 583.296 150.08 582.657C149.6 582.657 147.84 583.136 149.28 581.537L149.12 581.058Z" fill="#CEC8C8"/>
<path d="M214.88 913.639C216.8 913.958 218.72 914.438 220.64 914.758C220.64 916.677 220.64 918.755 220.64 920.674C220.64 921.633 220.32 921.793 219.52 921.633C217.92 921.154 216.16 920.834 214.56 920.514C213.92 920.514 213.6 920.194 214.24 919.395C215.2 918.435 214.72 916.996 214.88 915.717C214.88 915.078 214.88 914.278 214.88 913.639Z" fill="#F9F9F9"/>
<path d="M103.52 575.781C107.36 576.261 111.36 576.581 115.2 577.06C119.84 577.7 124.64 578.179 129.28 578.819C131.36 579.139 133.28 579.299 135.36 579.618C135.36 580.578 134.72 580.258 134.08 580.258C124.32 578.979 114.56 577.86 104.96 576.581C104.48 576.581 103.68 576.581 103.52 575.781Z" fill="#CEC8C8"/>
<path d="M138.08 579.619C140.48 580.418 143.04 580.578 145.6 580.738C145.44 581.537 144.8 581.537 144.16 581.377C142.24 581.058 140.16 580.898 138.24 580.578C136.8 580.418 137.92 579.938 138.24 579.459L138.08 579.619Z" fill="#CEC8C8"/>
<path d="M37.12 65.8766C37.76 68.9146 37.4399 71.9526 37.4399 75.1505C37.1199 72.1125 37.12 69.0745 37.12 65.8766Z" fill="#ED646C"/>
<path d="M183.84 307.318C183.52 307.797 183.2 307.797 182.72 307.318C183.04 307.318 183.2 306.998 183.52 306.838C183.52 306.838 183.68 306.998 183.84 307.158L183.84 307.318Z" fill="#FCFCFC"/>
<path d="M275.84 14.8702C279.2 21.9056 281.92 29.2607 284.64 36.6159C289.92 50.8465 294.88 65.2371 300.8 79.3078C300.96 79.7875 302.08 80.587 300.48 80.9068C294.4 82.3458 288.64 85.064 282.56 86.663C280.8 87.1426 279.04 87.4624 277.12 87.6223C276.32 87.6223 275.84 87.6223 275.84 86.5031C275.84 77.3891 275.68 68.435 275.52 59.321C276 58.5215 275.84 57.722 275.84 56.9225C275.84 42.8518 275.84 28.7811 275.84 14.7103V14.8702Z" fill="#ED646C"/>
<path d="M305.92 340.096C296.64 345.373 287.84 350.969 278.88 356.565C278.4 347.611 278.56 338.817 278.56 330.343C287.84 333.221 296.48 337.378 305.92 340.096Z" fill="#FCFCFC"/>
<path d="M295.36 333.381C290.88 331.782 286.56 330.183 282.08 328.424C280.8 327.944 279.04 328.424 278.56 327.145C278.08 326.025 278.56 324.586 278.56 323.307C278.56 321.708 278.56 320.109 278.56 318.51C278.56 317.231 279.04 317.071 280.16 317.231C281.92 317.391 283.52 317.551 285.28 317.551C288.32 317.711 291.2 318.51 293.6 320.429C300.64 325.866 307.68 331.302 314.88 336.419C315.52 336.898 316.16 337.378 314.88 337.858C308.64 336.259 302.4 334.5 296 332.901C296 332.901 295.68 333.061 295.52 333.221L295.36 333.381Z" fill="#AFE8F9"/>
<path d="M279.36 413.648C279.36 410.61 279.36 407.572 279.36 404.534C279.36 400.377 279.36 396.379 279.36 392.222C279.36 391.262 279.52 390.623 280.48 390.143C282.88 389.024 285.28 387.905 288 387.265C288.64 387.265 289.28 386.945 289.92 387.105C292.8 387.265 293.28 388.225 292 390.623C288.16 397.978 284.16 405.493 280.32 412.848C280.16 413.168 280 413.488 279.84 413.808C279.84 413.808 279.68 413.808 279.52 413.808L279.36 413.648Z" fill="#98CAD2"/>
<path d="M312.64 580.418C311.04 586.014 309.44 591.771 308.48 597.367C308.48 598.166 308 598.486 307.2 598.326C304.8 598.166 302.56 598.007 300.16 597.847C299.2 597.847 299.04 597.367 299.36 596.567C300.96 591.131 302.4 585.695 303.84 580.258C303.84 579.779 304.16 579.459 304.64 579.619C307.36 579.938 309.92 580.098 312.64 580.258V580.418Z" fill="#FCFCFC"/>
<path d="M295.36 333.381C295.36 333.381 295.68 333.061 295.84 333.061C302.08 334.66 308.32 336.259 314.72 338.018C314.24 338.817 313.44 339.297 312.64 339.776C312 340.256 310.88 341.855 310.72 339.297C310.72 338.337 309.6 338.337 308.8 338.018C304.8 336.898 300.8 335.619 296.96 334.18C296.48 334.02 296 333.7 295.52 333.381H295.36Z" fill="#98CAD2"/>
<path d="M275.84 14.8702C275.84 28.941 275.84 43.0117 275.84 57.0824C275.84 57.8819 276 58.6814 275.52 59.4809C275.36 45.2502 275.2 31.0196 275.04 16.7889C275.04 15.6697 275.04 14.5504 275.04 13.2713C275.2 13.2713 275.36 13.2713 275.52 13.2713C275.52 13.7509 275.84 14.2306 275.84 14.8702Z" fill="#CEC8C8"/>
<path d="M275.52 13.4312C275.36 13.4312 275.2 13.4312 275.04 13.4312C274.4 11.6723 275.04 9.91348 275.04 8.15463C275.52 9.91348 275.04 11.6723 275.68 13.4312H275.52Z" fill="#070707"/>
<path d="M274.56 6.87547C274.56 6.87547 274.56 6.87547 274.4 6.87547L274.56 6.87547Z" fill="#070707"/>
<path d="M45.6 542.843C45.6 540.924 46.24 539.805 46.88 538.686C51.52 530.051 56.64 521.577 61.92 513.422C69.6 501.59 77.4399 489.918 86.2399 478.885C86.8799 478.085 87.5201 477.446 88.1601 476.806C88.4801 476.486 88.9599 476.327 89.4399 476.806C89.9199 477.126 89.7599 477.606 89.4399 478.085C89.1199 478.565 88.8 479.045 88.48 479.524C75.52 497.433 63.3599 515.98 51.9999 535.008C50.3999 537.886 48.48 540.604 45.6 543.163L45.6 542.843Z" fill="#070707"/>
<path d="M121.6 165.011C121.6 165.011 121.6 165.011 121.44 165.011C121.44 165.011 121.44 165.011 121.44 164.852L121.6 165.011Z" fill="#AFE8F9"/>
<path d="M170.24 186.117C170.24 186.117 170.24 186.118 170.24 186.277V186.117Z" fill="#AFE8F9"/>
</svg>
