<svg width="124" height="80" viewBox="0 0 124 80" fill="none" xmlns="http://www.w3.org/2000/svg">
<path d="M103.2 0.480103C103.2 0.320062 103.2 0.160041 103.04 0H103.36C103.2 0 103.04 0.160021 103.2 0.480103Z" fill="#646464"/>
<path d="M103.2 0.480103C108.32 0.799893 110.88 4.31713 112.96 8.3145C117.76 18.0681 121.76 27.9816 123.52 38.8545C124.32 43.4914 123.2 47.3288 120.32 51.4861C117.6 55.3236 114.24 57.4022 110.4 59.0012C87.2 68.5948 63.04 74.9906 38.24 78.988C33.12 79.7875 28 79.6276 23.04 78.1885C19.52 77.2292 17.28 75.1505 15.68 71.7927C12.96 66.0365 9.75998 60.4402 6.87998 54.684C3.83998 48.608 0.96 42.532 0 35.6565C0 34.3774 0 33.0982 0 31.819C0.48 26.5425 3.84004 23.8243 8.64004 22.2254C23.2 17.2686 38.0801 13.2713 52.9601 9.59369C65.7601 6.39579 78.72 3.67758 91.68 1.59895C92 1.91874 92.16 1.91874 92.48 1.59895C96.16 0.959369 99.84 0.63956 103.52 0.479665L103.2 0.480103ZM26.5601 75.6303C26.5601 75.6303 26.56 75.6303 26.4 75.6303C26.4 75.6303 26.4 75.6302 26.4 75.7901C26.72 75.7901 26.88 75.95 27.2 76.1099C28.64 76.1099 30.08 76.4297 31.52 76.4297C38.08 76.4297 44.64 75.3104 51.04 73.8714C54.08 73.2318 57.12 73.0719 59.84 71.6329C60.8 71.473 61.92 71.313 62.88 71.1531C71.2 69.0745 79.52 66.836 87.68 64.4376C92.64 62.8387 97.6 61.3996 102.4 59.321C104.96 58.5215 107.36 57.5621 109.76 56.2829C110.56 56.2829 111.36 56.2829 111.84 55.1636C111.04 55.1636 110.4 55.3235 109.76 55.9631C107.2 56.7626 104.8 57.5621 102.4 58.8413C98.08 59.9606 94.0801 61.5595 89.7601 62.6787C79.8401 65.5568 69.76 68.4349 59.84 71.1531C58.72 71.313 57.6 71.6328 56.48 71.7927C46.88 74.0313 37.12 75.95 27.2 75.6303C27.04 75.6303 26.7201 75.6303 26.5601 75.6303ZM63.84 12.9515C69.28 11.5124 74.88 10.2333 80.32 8.79421C80.8 8.79421 81.76 8.79421 81.6 7.99474C81.44 7.03537 80.48 7.51503 80 7.67493C75.04 8.79419 70.24 9.91347 65.28 11.0327C64.48 11.1926 64 11.5124 63.68 12.3119C63.36 12.3119 62.88 12.6317 63.04 13.1113C63.04 13.4311 63.52 13.2712 63.84 13.1113V12.9515ZM77.6 58.0418C75.52 59.321 74.08 61.2396 72 63.1584C73.12 63.1584 73.9201 63.1585 74.5601 62.8387C87.8401 59.321 100.96 55.3236 113.76 50.5268C118.24 48.7679 120.32 46.3695 119.52 40.2935C118.08 28.9409 113.92 18.3879 108.64 8.3145C106.24 3.83745 102.24 2.71819 97.6 3.67756C92.96 4.63693 88.48 5.59629 84 6.71555C83.2 6.87545 81.6 6.71556 81.92 7.67493C82.24 8.95409 83.52 7.99472 84.32 7.67493C88.96 6.55567 93.76 5.7562 98.4 5.43641C101.76 5.27652 104.16 6.39577 105.92 9.27388C107.52 11.9921 108.8 14.7103 109.44 17.5884C108.96 19.9868 110.4 22.2254 110.56 24.6238C109.44 24.304 109.44 23.1847 109.12 22.3853C107.68 18.8676 106.88 15.19 105.12 11.6723C104.8 10.0734 104.16 8.7942 102.56 7.83483C102.24 6.87546 101.44 6.71556 100.8 6.87546C95.84 7.19524 90.88 7.99473 86.08 9.43378C83.84 9.43378 81.76 10.2333 79.68 11.1926C79.2 10.8728 78.72 11.1926 78.24 11.1926C74.72 12.152 71.36 12.9514 67.84 13.9108C64 15.0301 59.84 15.5098 57.44 19.5071C57.44 19.5071 57.2801 19.5071 56.9601 19.5071C56.9601 19.5071 56.8 19.1874 56.8 19.0275C57.12 17.3219 56.4267 16.6823 54.72 17.1087C54.08 17.1087 53.44 17.4285 52.8 17.5884C50.72 18.0681 48.48 18.3879 46.88 20.4665C45.92 21.9056 44.6401 23.1847 43.3601 24.4639C41.7601 26.2227 40 27.9816 38.24 29.5805C37.92 29.9003 37.4401 30.38 36.9601 29.9003C36.4801 29.4206 36.96 29.1008 37.28 28.7811C37.6 27.9816 38.08 27.342 38.72 26.7024C40.16 25.1034 41.6 23.3446 43.04 21.5858C43.36 21.266 43.84 20.7863 43.52 20.3066C43.2 19.8269 42.56 20.3066 42.08 20.3066C41.28 20.4665 40.64 20.7863 39.84 20.9462C36.8 21.7457 33.76 22.5452 30.72 23.3446C30.08 23.5045 29.28 23.6644 29.12 22.8649C28.8 22.0655 29.76 21.9056 30.4 21.7457C31.68 21.266 32.96 20.7863 34.24 20.3066C39.2 19.8269 47.68 16.7889 48.64 14.7103C43.52 16.1493 38.72 17.1087 33.92 18.8676C29.12 19.8269 24.48 21.5858 19.84 22.8649C15.52 24.1441 11.2 25.2634 7.2 27.1821C5.6 27.9816 4.64002 29.1008 4.32002 30.8597C3.68002 34.2175 4.32004 37.2555 5.44004 40.4534C8.64004 50.0471 13.76 58.6814 18.24 67.6355C19.2 69.5543 20.96 70.5135 23.04 70.3536C24.8 71.313 26.72 71.4729 28.64 71.4729C36.16 71.7927 43.52 70.3536 50.72 68.7547C52.64 68.4349 53.9201 67.6355 55.3601 66.0366C60.1601 60.9199 65.44 55.9632 70.24 50.8466C72.48 48.2882 74.72 45.57 77.44 43.6513C79.84 44.6107 78.08 45.8898 77.44 46.6892C74.8801 49.7272 72.16 52.6054 69.6 55.6434C68.48 56.9226 66.72 57.8819 66.4 59.8006C63.52 61.2397 61.6 64.1178 59.04 65.8766C59.04 65.8766 58.56 66.0365 58.88 66.3563C58.88 66.5162 59.2 66.836 59.52 66.6761C64.16 65.5568 68.8 64.4376 71.04 59.4808C71.36 59.4808 71.52 59.4808 71.84 59.0012C73.44 56.7626 75.68 55.1637 77.6 53.245C78.08 52.7653 78.88 52.1257 79.68 52.9252C80.32 53.5648 79.84 54.3642 79.52 55.0038C79.04 55.8033 77.9201 56.2829 77.7601 57.4022L77.6 58.0418ZM52.8 15.6697C54.72 15.19 56.8 14.7103 58.88 14.0707C59.2 14.0707 59.52 13.591 59.84 13.2712C60 13.1114 60.3201 12.7916 60.1601 12.4718C60.0001 12.152 59.5201 12.152 59.3601 12.3119C57.7601 12.6317 56.32 13.1114 54.72 13.4312C53.92 13.591 52.96 13.751 52.32 14.5504C52.16 14.7103 51.84 15.0301 52 15.3499C52 15.6697 52.48 15.6697 52.8 15.6697ZM25.12 75.6303C25.28 75.6303 25.6 75.6302 25.44 75.3104C25.44 75.1505 25.12 74.9906 24.8 74.9906C24.8 74.9906 24.48 74.9906 24.48 75.1505C24.48 75.6302 24.8 75.4704 25.12 75.6303Z" fill="#0A0A0A"/>
<path d="M92.1596 1.59893C91.9997 1.91872 91.6799 2.07862 91.3601 1.59893C91.52 1.43904 91.8398 1.27914 92.1596 1.59893Z" fill="#646464"/>
<path d="M34.4 20.4665C33.12 20.9462 31.8401 21.4259 30.5601 21.9055C30.0801 22.0654 29.12 22.2253 29.28 23.0248C29.44 23.8243 30.24 23.6644 30.88 23.5045C33.92 22.705 36.96 21.9055 40 21.1061C40.8 20.9462 41.4401 20.6264 42.2401 20.4665C42.7201 20.4665 43.36 19.9868 43.68 20.4665C44 20.9462 43.52 21.4259 43.2 21.7457C41.76 23.5045 40.48 25.2633 38.88 26.8623C38.24 27.5019 37.9201 28.1415 37.4401 28.9409C37.2801 29.2607 36.6401 29.7404 37.1201 30.0602C37.6001 30.5399 38.08 30.0602 38.4 29.7404C40.16 27.9816 41.9201 26.3826 43.5201 24.6238C44.8001 23.3446 45.9201 22.0655 47.0401 20.6264C48.4801 18.5478 50.7201 18.3879 52.9601 17.7483C53.6001 17.5884 54.24 17.4285 54.88 17.2686C56.5867 16.8422 57.2801 17.4818 56.9601 19.1874C56.9601 19.1874 56.9601 19.5071 57.1201 19.667C57.2801 19.667 57.44 19.667 57.6 19.667C59.84 15.6697 64 15.0301 68 14.0707C71.52 13.1113 74.88 12.3119 78.4 11.3525C78.88 11.3525 79.3601 11.0327 79.8401 11.3525C76.9601 14.5504 73.9201 17.5884 71.0401 20.6264C63.3601 28.6211 55.52 36.4559 48 44.7705C41.6 51.9657 35.84 59.6408 29.6 66.836C28.32 68.2751 27.68 68.435 26.4 66.836C22.72 62.6788 20.16 57.722 18.08 52.6054C18.88 52.6054 19.68 52.6054 20.48 52.6054C21.76 52.4455 22.56 51.6459 22.88 50.3668C23.04 49.0876 22.2401 48.2882 21.1201 47.6487C19.3601 46.8492 18.2401 47.1689 16.3201 49.0876C13.7601 44.4507 12.3201 39.494 11.3601 34.3774C11.2001 33.0982 11.68 32.2987 12.8 31.6591C16 29.9003 19.36 28.4612 22.88 27.5019C24.16 27.0222 24.96 26.3826 24.8 24.9436C24.8 24.4639 25.6 23.9842 24.8 23.3446C24.32 23.0248 23.8401 23.0248 23.3601 23.3446C19.0401 25.1035 14.24 25.9029 10.08 27.9816C6.88002 29.5805 5.44002 32.6185 6.08002 35.9763C6.72002 39.3341 8.00008 42.3721 9.44008 45.4101C10.0801 46.6892 10.4 48.2882 11.68 49.2476V49.5673C12 50.5267 12.48 51.1663 13.28 51.4861C13.44 52.4454 13.9201 53.245 14.2401 54.0444C16.9601 59.6408 19.52 65.237 23.2 70.1938C20.96 70.1938 19.2 69.3943 18.4 67.4755C13.92 58.5214 8.80004 49.8871 5.60004 40.2934C4.64004 37.2554 4.00002 34.0575 4.48002 30.6998C4.80002 28.9409 5.7601 27.6618 7.3601 27.0222C11.3601 25.1035 15.68 23.9842 20 22.705C24.64 21.266 29.28 19.667 34.08 18.7076C34.08 19.1873 34.0801 19.6671 34.2401 20.1467L34.4 20.4665Z" fill="#626262"/>
<path d="M11.68 49.8871L11.68 49.5673C12.64 49.8871 12.48 49.2475 12.32 48.7679C10.88 45.8897 10.72 42.532 9.44003 39.6539C8.96003 38.5347 8.64001 37.2555 8.32001 35.9763C7.68001 33.418 8.47997 31.1794 10.88 29.9003C15.2 27.6618 20 26.3826 24.64 24.9436C24.64 26.3826 24 27.0222 22.72 27.5019C19.2 28.6211 15.84 29.9003 12.64 31.6591C11.52 32.2987 10.88 33.0982 11.2 34.3774C12.16 39.494 13.6001 44.4507 16.1601 49.0877C16.3201 50.3668 16.8 51.4861 17.92 52.4455C20 57.5621 22.72 62.3589 26.24 66.6761C27.52 68.275 28.16 68.1151 29.44 66.6761C35.68 59.4808 41.44 51.8059 47.84 44.6106C55.2 36.2961 63.2 28.4612 70.88 20.4665C73.76 17.4285 76.96 14.3905 79.68 11.1926C81.76 10.2333 83.68 9.43378 86.08 9.43378C86.08 10.3932 85.6 11.0327 85.12 11.8322C82.08 15.5098 78.72 18.8676 75.84 22.705C71.84 27.6618 67.2 32.2987 62.88 37.0956C56.16 44.4507 49.44 52.1256 43.3601 59.9605C41.7601 62.0391 40.16 64.1178 38.4 66.1964C38.24 66.5162 37.76 66.836 38.08 67.1558C38.24 67.6354 38.72 67.4756 39.04 67.3157C41.44 66.9959 43.84 66.6761 46.24 66.1964C48 65.8766 49.92 66.1964 51.2 64.5975C53.44 62.1991 55.52 59.8006 57.6 57.4022C62.72 51.8059 67.36 45.7299 72.64 40.2935C80.16 32.4586 87.68 24.4639 95.04 16.3092C97.6 13.4311 99.68 10.0734 102.72 7.67493C104.16 8.4744 104.96 9.91345 105.28 11.5124C103.84 12.9514 103.04 14.8702 101.76 16.4691C96.64 22.705 91.2001 28.781 85.76 34.6971C83.04 37.7351 80.16 40.4534 77.6 43.6513C74.88 45.7299 72.8 48.4481 70.4 50.8466C65.6 56.1231 60.32 60.9199 55.52 66.0366C54.24 67.4756 52.8 68.275 50.88 68.7547C43.52 70.3536 36.32 71.6328 28.8 71.4729C26.88 71.4729 24.96 71.4729 23.2 70.3536C19.52 65.3969 16.96 59.6407 14.24 54.2043C13.76 53.4048 13.44 52.4455 13.28 51.646C13.12 50.6867 13.12 49.5674 11.68 49.7273V49.8871Z" fill="#F7F7F7"/>
<path d="M77.6 43.971C80 40.7731 83.0401 38.0549 85.7601 35.0169C91.2001 28.9409 96.6401 23.0248 101.76 16.7889C103.04 15.19 103.84 13.2713 105.28 11.8322C107.04 15.19 107.84 19.0275 109.28 22.5452C109.6 23.3446 109.6 24.4639 110.72 24.7837C110.56 22.3853 109.12 20.1467 109.6 17.7483C110.88 19.6671 111.36 21.9056 112.16 23.9842C113.12 26.7024 114.08 29.4206 114.24 32.2987C112.8 32.1388 112.64 32.9383 112.8 34.0576C113.28 36.1362 113.76 38.2148 114.24 40.2934C114.72 42.532 114.24 44.2908 112.32 45.57C111.36 46.2095 109.92 46.5293 109.76 47.9684C109.12 48.4481 108.48 48.9278 107.68 48.608C106.4 48.608 105.28 48.9278 104.16 49.4075C100.64 50.6866 97.2801 51.9658 93.7601 53.245C91.0401 54.2044 88.32 54.8439 85.92 56.6027C85.6 56.6027 85.2801 56.6027 84.9601 56.6027C82.5601 56.9225 80.3201 58.0418 77.7601 58.0418C77.9201 56.9226 79.04 56.4429 79.52 55.6434C80 55.0038 80.48 54.2043 79.68 53.5647C78.88 52.7652 78.24 53.4048 77.6 53.8845C75.68 55.8032 73.44 57.4023 71.84 59.6408C71.68 59.9606 71.52 60.1204 71.04 60.1204C69.6 60.1204 68.16 60.1204 66.5601 60.1204C66.7201 58.0418 68.6401 57.2423 69.7601 55.9631C72.3201 52.9251 75.04 50.0471 77.6 47.009C78.24 46.2096 80 44.9304 77.6 43.971Z" fill="#626262"/>
<path d="M102.56 7.99474C99.36 10.3932 97.4399 13.7509 94.88 16.629C87.52 24.6238 80.16 32.7784 72.4799 40.6133C67.2 46.0497 62.56 52.1257 57.44 57.722C55.36 60.1204 53.12 62.5189 51.04 64.9173C49.76 66.3563 47.68 66.1964 46.08 66.5162C43.68 66.9959 41.28 67.1558 38.88 67.6355C38.56 67.6355 38.08 67.7953 37.92 67.4756C37.76 66.9959 37.92 66.836 38.24 66.5162C39.84 64.4376 41.44 62.3589 43.2 60.2803C49.44 52.4455 56 44.7705 62.72 37.4154C67.04 32.6185 71.68 28.1415 75.68 23.0248C78.72 19.3473 81.92 15.8296 84.96 12.152C85.6 11.5124 85.92 10.713 85.92 9.75359C90.72 8.31454 95.68 7.51505 100.64 7.19526C101.44 7.19526 102.24 7.19527 102.4 8.15464L102.56 7.99474Z" fill="#646464"/>
<path d="M113.92 32.1388C113.92 29.2607 112.8 26.5425 111.84 23.8243C111.04 21.7457 110.56 19.5072 109.28 17.5884C108.64 14.5504 107.2 11.8322 105.76 9.27387C104 6.39576 101.6 5.27651 98.24 5.4364C93.44 5.75619 88.8001 6.71555 84.1601 7.67492C83.3601 7.83482 82.0801 8.79418 81.7601 7.67492C81.6001 6.71555 83.2 6.87544 83.84 6.71554C88.32 5.59628 92.96 4.63692 97.44 3.67755C102.08 2.71818 106.08 3.67754 108.48 8.31449C113.76 18.3879 117.92 28.9409 119.36 40.2934C120.16 46.3694 118.08 48.7679 113.6 50.5267C100.8 55.3236 87.68 59.321 74.4 62.8387C73.76 62.9986 72.96 62.9985 71.84 63.1584C73.92 61.2396 75.36 59.321 77.44 58.0418C80 58.0418 82.24 56.9225 84.64 56.6027C85.28 57.4022 85.76 57.0824 86.4 56.6027C87.52 56.6027 88.48 55.9632 89.6 55.6434C95.04 54.2043 100.16 51.9658 105.44 50.2069C106.4 49.8871 107.04 49.4075 107.2 48.4481C108 48.7679 108.64 48.1283 109.28 47.8085C114.4 47.3288 116.32 44.7705 115.52 39.8138C115.04 37.2555 114.4 34.6972 113.76 32.1388H113.92Z" fill="#F1F1F1"/>
<path d="M102.56 59.321C97.7601 61.3996 92.8 62.8387 87.84 64.4376C79.68 66.9959 71.36 69.2344 63.04 71.1531C62.08 71.313 61.12 71.473 60 71.6329C60 71.473 60 71.1532 60 70.9933C69.92 68.1152 80 65.397 89.92 62.5189C94.08 61.2397 98.2401 59.6407 102.56 58.6814C102.56 58.8412 102.56 59.0012 102.56 59.321Z" fill="#525252"/>
<path d="M66.5601 60.1204C68.0001 60.1204 69.44 60.1204 71.04 60.1204C68.8 65.0772 64.16 66.1964 59.52 67.3157C59.2 67.3157 59.04 67.3157 58.88 66.9959C58.56 66.6761 58.88 66.5162 59.04 66.5162C61.76 64.7574 63.52 61.8793 66.4 60.4402L66.5601 60.1204Z" fill="#EBEBEB"/>
<path d="M60 70.9933C60 71.1532 60 71.473 60 71.6329C57.28 72.912 54.08 73.2318 51.2 73.8714C44.8 75.3104 38.4 76.4297 31.68 76.4297C30.24 76.4297 28.8001 76.2698 27.3601 76.1099C27.3601 76.1099 27.3601 75.7902 27.3601 75.6303C37.2801 75.95 47.04 74.0313 56.64 71.7927C57.76 71.473 58.88 71.313 60 71.1531V70.9933Z" fill="#484848"/>
<path d="M34.4 20.4665C34.4 19.9868 34.4 19.5072 34.24 19.0275C38.88 17.2686 43.8401 16.3092 48.9601 14.8702C47.8401 16.7889 39.5201 19.9868 34.5601 20.4665L34.4 20.4665Z" fill="#DDDDDD"/>
<path d="M63.68 12.152C64 11.3525 64.48 11.0327 65.28 10.8728C70.24 9.75354 75.04 8.63427 80 7.51501C80.48 7.51501 81.44 6.87545 81.6 7.83482C81.6 8.63429 80.8 8.63429 80.32 8.63429C74.88 10.0733 69.28 11.5124 63.84 12.7916C63.84 12.4718 63.84 12.3119 63.84 11.9921L63.68 12.152Z" fill="#F1F1F1"/>
<path d="M52.8 15.6697C52.48 15.6697 52.16 15.6697 52 15.3499C52 15.0301 52 14.7103 52.32 14.5504C52.96 13.751 53.76 13.591 54.72 13.4312C56.32 12.9515 57.7601 12.6317 59.3601 12.3119C59.6801 12.3119 60.0001 12.3119 60.1601 12.4718C60.3201 12.7916 60.16 13.1114 59.84 13.2712C59.52 13.591 59.2 14.0707 58.88 14.0707C56.8 14.7103 54.88 15.19 52.8 15.6697Z" fill="#525252"/>
<path d="M102.56 59.321C102.56 59.1611 102.56 59.0011 102.56 58.6814C104.8 57.4022 107.36 56.6027 109.92 55.8033V56.1231C107.52 57.4022 105.12 58.3615 102.56 59.161L102.56 59.321Z" fill="#484848"/>
<path d="M109.92 56.1231C109.92 56.1231 109.92 55.9632 109.92 55.8033C110.56 55.3236 111.2 55.0038 112 55.0038C111.68 56.1231 110.72 56.1231 109.92 56.1231Z" fill="#171717"/>
<path d="M25.12 75.6303C24.7999 75.6303 24.48 75.6306 24.48 75.1505C24.48 75.1505 24.8 74.8306 24.8 74.9906C24.9601 74.9906 25.28 75.1504 25.44 75.3104C25.44 75.4705 25.4402 75.4702 25.12 75.6303Z" fill="#1B1B1B"/>
<path d="M63.68 12.152C63.68 12.4718 63.6796 12.6317 63.6796 12.9515C63.3597 13.1114 63.0399 13.2713 62.88 12.9515C62.88 12.4718 63.1999 12.3119 63.5197 12.152L63.68 12.152Z" fill="#D6D6D6"/>
<path d="M27.2 75.6303C27.2 75.6303 27.2 75.95 27.2 76.1099C26.8802 76.1099 26.7198 75.95 26.4 75.7901H27.0397L27.2 75.6303Z" fill="#1B1B1B"/>
<path d="M44.32 19.9868L44.4799 20.1467H44.32V19.9868Z" fill="#626262"/>
<path d="M26.5601 75.6303C26.5601 75.6303 26.5601 75.6302 26.5601 75.4703C26.5601 75.4703 26.56 75.4703 26.7199 75.4703L26.5601 75.6303Z" fill="#1B1B1B"/>
<path d="M24.64 25.1034C20 26.5425 15.1999 27.6618 10.8799 30.0602C8.63994 31.1794 7.83998 33.5779 8.31998 36.1362C8.63998 37.4154 8.96 38.6945 9.44 39.8138C10.72 42.6919 10.88 46.0497 12.32 48.9278C12.48 49.4075 12.64 50.0471 11.68 49.7273C10.4 48.7679 10.08 47.1689 9.44 45.8898C8 42.8518 6.71994 39.6539 6.07994 36.456C5.27994 32.9383 6.87994 30.0602 10.0799 28.4612C14.3999 26.3826 19.04 25.5831 23.36 23.8243C23.84 23.6644 24.32 23.5045 24.8 23.8243C25.44 24.304 24.8 24.7837 24.8 25.4232L24.64 25.1034Z" fill="#0F0F0F"/>
<path d="M17.7601 52.7652C16.8001 51.8059 16.16 50.6866 16 49.4075C17.92 47.4887 19.04 47.009 20.8 47.9684C21.92 48.4481 22.7201 49.2476 22.5601 50.6866C22.4001 51.9658 21.4401 52.7653 20.1601 52.9252C19.3601 52.9252 18.5601 52.9252 17.7601 52.9252V52.7652Z" fill="#0A0A0A"/>
<path d="M11.68 49.8871C13.12 49.8871 13.12 51.0064 13.28 51.8059C12.48 51.3262 11.84 50.6866 11.68 49.8871Z" fill="#1B1B1B"/>
<path d="M113.92 32.1388C114.56 34.6972 115.2 37.2554 115.68 39.8138C116.64 44.7705 114.72 47.3288 109.44 47.8085C109.6 46.3694 111.04 46.0497 112 45.4101C113.92 43.971 114.4 42.2122 113.92 40.1336C113.44 38.0549 112.96 35.9763 112.48 33.8976C112.32 32.7784 112.48 31.979 113.92 32.1388Z" fill="#171717"/>
<path d="M107.36 48.608C107.2 49.5674 106.56 50.047 105.6 50.3668C100.32 52.1256 95.2001 54.3642 89.7601 55.8033C88.6401 56.1231 87.84 56.9225 86.5601 56.7626C86.2401 56.7626 85.92 56.7626 85.6 56.7626C88 55.0038 90.72 54.3642 93.44 53.4048C96.96 52.1257 100.32 50.8465 103.84 49.5673C104.96 49.0877 106.08 48.9277 107.36 48.7679V48.608Z" fill="#1B1B1B"/>
<path d="M85.6004 56.6027C85.9206 56.6027 86.2408 56.6027 86.561 56.6027C85.9206 57.0829 85.2802 57.2429 84.8 56.6027C85.1202 56.6027 85.4404 56.6027 85.7606 56.6027H85.6004Z" fill="#484848"/>
</svg>
