<svg width="187" height="187" viewBox="0 0 187 187" fill="none" xmlns="http://www.w3.org/2000/svg">
<mask id="mask0_2558_4550" style="mask-type:alpha" maskUnits="userSpaceOnUse" x="0" y="0" width="187" height="187">
<rect width="187" height="187" fill="#D9D9D9"/>
</mask>
<g mask="url(#mask0_2558_4550)">
<g filter="url(#filter0_d_2558_4550)">
<circle cx="96" cy="91" r="90" fill="#0BB8EB"/>
</g>
<mask id="mask1_2558_4550" style="mask-type:alpha" maskUnits="userSpaceOnUse" x="6" y="1" width="180" height="180">
<circle cx="96" cy="91" r="90" fill="white"/>
</mask>
<g mask="url(#mask1_2558_4550)">
<path d="M202.998 480.706L3.57031 434.016V-129.817H200.825" fill="#FDFDFD"/>
<path d="M3.4717 411.412C3.4717 409.142 3.47167 406.871 3.37289 404.7C2.97779 368.276 2.68149 331.851 2.28639 295.427C1.89129 255.943 1.49617 216.459 1.10107 176.975C0.70597 136.899 0.310857 96.921 -0.0842438 56.8446C-0.479345 17.3605 -0.874398 -22.2223 -1.2695 -61.7065C-1.46705 -83.8176 -1.66461 -105.929 -1.96094 -127.941C-1.96094 -128.533 -1.96094 -129.027 -1.96094 -129.619H-0.775622C-0.380521 -128.829 -0.380558 -128.04 -0.380558 -127.25C-0.183007 -107.212 0.0145555 -87.1737 0.310881 -67.1355C0.705982 -33.0805 1.1011 1.0733 1.4962 35.1283C1.79252 56.9433 1.99008 78.7583 2.18764 100.573C2.58274 137.688 2.97779 174.803 3.37289 211.918C3.66922 241.137 3.96554 270.355 4.36064 299.672C4.65697 327.706 4.95332 355.739 5.24964 383.872C5.24964 388.61 5.24963 393.447 5.54596 398.185C5.74351 401.936 5.84228 405.785 5.54596 409.536C5.54596 410.03 5.84232 410.03 6.13865 410.129C7.9166 410.524 9.69452 410.918 11.4725 411.313C13.0529 411.708 14.6333 412.103 16.3125 412.498C16.3125 411.906 16.3125 411.511 16.3125 411.116C16.2137 402.331 16.0161 393.644 15.9174 384.859C15.621 360.971 15.3247 337.083 14.9296 313.294C14.5345 290.294 14.2382 267.196 13.9419 244.197C13.6455 219.815 13.3492 195.335 12.9541 170.954C12.559 151.212 12.3615 131.47 12.0652 111.826C11.7688 89.5177 11.4725 67.2092 11.0774 44.9994C10.7811 23.3818 10.4847 1.76426 10.1884 -19.8533C9.69453 -53.4148 9.29941 -86.9763 8.80553 -120.538C8.80553 -122.808 8.5092 -125.177 9.29941 -127.448C9.69451 -127.645 9.89207 -127.546 9.99084 -127.151C10.2872 -126.164 10.6823 -125.276 10.6823 -124.19C10.9786 -105.929 11.275 -87.766 11.5713 -69.5046C11.9664 -43.2476 12.3614 -16.9907 12.7565 9.16754C13.0529 32.0683 13.3492 54.9691 13.7443 77.9686C14.2382 109.753 14.6333 141.439 15.2259 173.224C15.5222 190.893 15.7198 208.562 16.0162 226.231C16.0162 226.429 15.8186 226.824 16.2137 226.922C17.0039 226.231 17.9916 225.738 18.6831 224.849C20.1647 224.159 21.35 222.875 22.7329 221.987C23.3255 221.592 23.4243 221.197 23.4243 220.506C23.128 204.91 22.9304 189.314 22.6341 173.619C22.3377 152.594 21.9426 131.568 21.6463 110.543C21.4488 94.3545 21.1525 78.166 20.9549 61.8788C20.6586 41.6432 20.461 21.4076 20.0659 1.172C19.8684 -7.51451 19.8684 -16.1023 19.7696 -24.7888C19.2757 -58.5477 18.8806 -92.2079 18.3867 -125.967C18.3867 -126.559 18.3867 -127.151 18.3867 -127.744C18.8806 -128.04 18.5843 -128.731 19.2757 -129.027C19.5721 -128.237 19.9672 -127.546 19.9672 -126.559C19.9672 -123.993 19.9671 -121.426 20.1647 -118.86C20.3622 -108.89 20.5598 -98.9202 20.7574 -88.9505C20.7574 -87.075 20.7574 -85.1995 20.9549 -83.2253C20.9549 -81.3498 20.9549 -79.3756 20.9549 -77.5001C20.9549 -77.3027 20.6586 -77.0066 21.1524 -77.0066C21.5475 -77.1053 21.9427 -77.3027 22.3378 -77.4014C25.4986 -78.5859 28.7581 -79.4743 32.1165 -79.8692C35.9687 -80.264 39.9198 -80.264 43.772 -79.1782C43.5744 -79.6717 43.4757 -80.0666 43.2781 -80.4614C39.3271 -90.4312 35.5737 -100.5 32.3141 -110.765C30.3386 -116.984 28.3631 -123.104 26.6839 -129.422C27.2765 -129.422 27.7704 -129.422 28.3631 -129.422C28.3631 -129.224 28.5606 -129.027 28.5606 -128.731C33.4006 -111.95 39.1296 -95.4654 45.55 -79.1782C45.7475 -78.7833 45.8463 -78.3885 46.3401 -78.2898C48.4144 -77.5988 50.2911 -76.513 52.2666 -75.6246C55.7238 -74.0452 59.2797 -73.0581 63.2307 -73.2556C66.2927 -73.453 69.1572 -74.4401 71.9229 -75.4272C73.0095 -75.822 73.1082 -76.2169 72.6143 -77.204C65.4037 -94.6757 57.8968 -111.95 50.3899 -129.323H52.2666C52.9581 -127.25 54.0447 -125.276 54.9336 -123.302C61.5516 -108.396 67.972 -93.3925 74.1948 -78.3885C74.8862 -76.8091 74.8862 -76.8091 76.4666 -77.4014C83.0845 -79.8692 89.9001 -80.5601 96.9131 -79.1782C100.173 -78.4872 103.037 -77.0066 105.902 -75.5259C107.087 -74.8349 108.371 -74.2427 109.951 -73.9465C109.754 -74.4401 109.655 -74.8349 109.458 -75.1311C103.729 -89.3453 98.0983 -103.658 93.3571 -118.267C92.1718 -121.92 90.789 -125.572 89.9 -129.323H91.7767C91.678 -128.829 91.8756 -128.435 92.0731 -128.04C95.9254 -116.787 99.8763 -105.534 104.222 -94.4783C106.791 -87.8647 109.458 -81.2511 111.927 -74.5388C112.322 -73.5517 112.618 -73.3543 113.606 -73.5517C116.372 -73.9465 118.94 -74.8349 121.508 -75.6246C124.768 -76.6117 128.027 -77.3027 131.484 -76.7104C133.262 -76.4143 135.04 -75.822 136.917 -75.3285C136.818 -75.6246 136.72 -75.822 136.621 -76.0195C133.954 -82.0408 131.583 -88.0621 129.114 -94.0834C124.471 -105.435 120.224 -116.984 114.1 -127.645C113.804 -128.138 113.804 -128.731 113.804 -129.224H114.495C115.088 -128.731 115.582 -128.138 115.977 -127.448C118.347 -123.499 120.422 -119.353 122.298 -115.207C127.929 -102.573 132.769 -89.6415 137.905 -76.8091C138.498 -75.3285 139.09 -74.2427 140.868 -74.4401C141.362 -74.4401 141.856 -74.2427 142.35 -74.0452C143.733 -73.6504 143.733 -73.6504 143.634 -75.0323C143.436 -91.2208 143.337 -107.409 143.239 -123.499C143.239 -124.19 143.239 -124.881 143.337 -125.572C143.535 -126.164 143.535 -126.757 144.128 -127.448C144.622 -126.263 144.918 -125.177 144.918 -123.993C145.115 -106.62 145.412 -89.2466 145.609 -71.7749C145.708 -63.2858 145.906 -54.698 146.004 -46.2089C146.498 -4.05965 146.992 38.1884 147.486 80.3376C147.782 106.101 148.079 131.766 148.375 157.529C148.671 184.082 148.968 210.734 149.363 237.287C149.659 263.741 150.054 290.196 150.351 316.749C150.647 338.268 150.844 359.787 151.141 381.404C151.437 401.344 151.733 421.283 152.03 441.321C152.03 441.913 152.128 442.604 151.832 443.197C151.536 443.789 151.733 443.888 152.326 443.986C153.906 444.282 155.487 444.776 157.067 445.072C160.426 445.763 163.685 446.75 167.044 447.244C167.142 447.244 167.34 447.244 167.439 447.343C167.537 447.343 167.636 447.441 167.735 447.441C176.526 449.514 185.416 451.587 194.207 453.561C196.281 454.055 198.256 454.746 200.331 454.746V457.115C199.343 457.115 198.454 456.819 197.466 456.523C182.057 452.969 166.747 449.415 151.338 445.961C128.027 440.63 104.716 435.3 81.4053 429.969C62.9344 425.725 44.5622 421.579 26.0912 417.335C18.3867 415.558 10.6823 413.781 2.97783 412.004L3.4717 411.412ZM111.532 59.7072C114.396 58.3253 117.458 57.6343 120.619 57.5356C122.298 57.5356 122.99 58.1278 123.089 59.9046C123.089 60.5956 123.089 61.2866 123.089 61.8788C123.089 62.8659 123.385 62.8659 124.175 62.6685C127.435 62.0763 130.595 61.0891 133.756 60.2008C135.04 59.8059 136.028 60.2008 136.818 61.2866C137.312 61.9775 137.806 62.7672 138.596 63.3595C138.794 62.8659 138.893 62.3724 139.09 61.9775C139.485 60.2995 139.781 58.5227 140.275 56.7459C140.67 55.0678 141.56 54.8704 142.942 55.9562C143.831 56.7459 144.72 57.5356 145.708 58.424C145.708 56.8446 145.609 55.364 145.708 53.8833C145.906 52.2052 145.115 51.2181 143.93 50.231C139.979 47.0723 135.534 44.5058 131.682 41.051C131.188 40.5574 130.892 41.051 130.595 41.3471C129.41 42.5316 128.62 44.0123 127.83 45.4929C127.138 46.7762 126.249 47.7633 124.965 48.5529C120.026 51.7117 115.68 55.6601 111.236 59.4111C111.038 59.4111 110.939 59.6085 110.742 59.7072C111.038 59.9046 111.235 59.9046 111.433 59.7072H111.532ZM147.684 240.841C147.782 238.866 147.782 238.866 145.906 238.57C144.029 238.274 142.053 238.077 140.177 237.781C131.978 236.695 123.681 235.708 115.483 234.622C106.593 233.437 97.7032 232.352 88.9122 231.167C88.4184 231.167 88.0233 231.167 87.6282 231.562C87.2331 231.957 86.6405 232.549 86.7392 231.266C86.7392 230.673 86.3442 230.871 86.0479 230.871C83.4797 230.476 80.9115 230.18 78.3433 229.884C71.8242 229.094 65.305 228.206 58.7858 227.416C52.958 226.626 47.0316 225.935 41.2039 225.146C36.2651 224.455 31.3263 223.764 26.4863 223.171C25.6961 223.073 24.7084 222.875 24.0169 223.468C22.7329 224.455 21.5475 225.442 20.3622 226.429C18.9794 227.317 17.8929 228.502 16.3125 229.291C17.7941 229.39 19.0782 229.489 20.2635 229.686C26.0912 230.377 32.0177 231.167 37.8455 231.957C44.0683 232.746 50.2912 233.635 56.514 234.424C63.4283 235.313 70.2438 236.3 77.1581 237.188C84.0723 238.077 90.8877 239.064 97.802 239.952C104.618 240.841 111.433 241.729 118.347 242.617C124.669 243.407 130.892 244.295 137.213 245.085C140.374 245.48 143.634 245.875 146.795 246.368C147.684 246.467 148.079 246.368 147.98 245.283C147.881 243.802 147.98 242.321 147.98 240.939L147.684 240.841ZM130.694 434.017C130.694 434.411 130.694 434.905 130.694 435.3C130.694 436.09 130.991 436.978 130.299 437.57C129.904 437.965 130.102 438.162 130.497 438.261C131.484 438.459 132.571 438.755 133.559 438.952C134.053 439.051 134.25 438.952 134.25 438.36C134.25 437.175 134.25 435.892 134.25 434.708C134.25 434.115 134.25 433.622 134.25 433.03C134.349 412.794 134.546 392.46 134.546 372.224C134.744 339.255 134.645 306.285 135.04 273.316C135.04 272.033 135.04 270.75 135.04 269.17C133.361 271.836 131.089 273.81 131.781 277.166C131.978 277.956 131.781 278.745 131.781 279.535C131.386 322.573 130.991 365.709 130.694 408.747C130.694 417.137 130.694 425.528 130.694 433.918V434.017ZM28.0667 414.867C28.9557 415.262 29.9435 415.36 30.9312 415.656C33.3018 416.15 33.3018 416.15 33.3018 413.781C33.3018 389.794 33.3018 365.907 33.3018 341.92C33.3018 313.787 33.4006 285.556 33.4993 257.424C33.4993 256.141 32.9067 254.956 33.7957 253.574C34.2896 252.785 34.6846 252.488 35.5736 252.587C38.5369 253.081 41.599 253.476 44.5622 253.87C50.8839 254.759 57.2054 255.548 63.527 256.338C70.4413 257.226 77.3556 258.115 84.2698 259.003C90.5915 259.793 96.913 260.681 103.235 261.471C110.149 262.359 117.063 263.248 123.977 264.235C127.83 264.728 131.682 265.321 135.534 265.913C136.028 265.913 136.522 266.012 136.621 266.604C136.72 267.098 136.226 267.295 135.732 267.492C136.818 267.887 136.917 268.677 136.917 269.467C136.917 277.462 136.917 285.458 136.917 293.453C136.72 336.688 136.423 379.923 136.226 423.158C136.226 428.39 135.929 433.523 136.226 438.755C136.226 439.347 136.423 439.544 137.016 439.643C138.102 439.841 139.288 440.137 140.374 440.433C143.14 441.124 146.004 441.716 148.77 442.407C149.066 442.407 149.659 442.901 149.659 442.012C149.659 440.729 149.659 439.446 149.659 438.261C149.659 437.471 149.659 436.583 149.659 435.793C149.264 424.738 149.462 413.584 149.264 402.528C148.968 381.898 148.968 361.267 148.573 340.637C148.375 332.937 148.375 325.337 148.375 317.637C148.177 294.934 147.881 272.23 147.684 249.428C147.684 248.54 147.486 248.145 146.498 248.046C142.745 247.652 138.991 247.059 135.238 246.566C127.731 245.579 120.125 244.592 112.618 243.604C105.704 242.716 98.7898 241.828 91.8755 240.939C85.4551 240.15 79.1336 239.261 72.7132 238.472C66.3916 237.682 60.1686 236.793 53.847 236.004C47.5254 235.214 41.2038 234.326 34.8822 233.536C28.9557 232.746 23.0292 232.154 17.1027 230.97C16.3125 230.772 16.1149 230.97 16.1149 231.858C16.3125 238.866 16.4113 245.875 16.51 252.883C16.7076 268.381 17.0039 283.977 17.2014 299.474C17.4978 321.882 17.8929 344.289 18.1892 366.696C18.3867 380.022 18.5843 393.447 18.6831 406.773C18.6831 408.549 18.7818 410.326 18.8806 412.103C18.8806 412.498 18.8806 412.893 19.3745 412.991C22.239 413.584 25.0047 414.373 27.8692 414.867H28.0667ZM61.9467 225.442C61.9467 225.935 62.4406 225.837 62.8357 225.935C68.861 226.725 74.8862 227.515 80.8127 228.206C81.109 228.206 81.603 228.403 81.603 227.811C83.2821 224.455 85.5539 221.493 87.727 218.433C92.6657 211.425 97.2094 204.022 102.543 197.211C102.84 196.816 103.235 196.322 103.63 196.026C103.827 195.927 104.025 195.829 104.222 196.026C104.42 196.125 104.42 196.322 104.321 196.52C104.222 197.112 103.827 197.507 103.531 198C96.8143 207.97 89.9988 217.94 83.2821 227.91C83.0845 228.107 82.3931 228.403 83.2821 228.601C84.4674 228.798 85.7514 228.897 86.9367 229.094C87.3318 229.094 87.727 229.193 87.8257 228.699C89.011 227.021 90.1963 225.244 91.3816 223.566C91.6779 223.171 92.073 222.777 92.3694 222.382C92.5669 222.184 92.8633 222.184 93.1596 222.283C93.4559 222.48 93.4559 222.777 93.3571 222.974C93.1596 223.369 92.962 223.862 92.7645 224.257C91.8755 225.738 90.8878 227.317 89.9989 228.798C89.1099 229.785 90.1964 229.489 90.4927 229.489C93.9499 229.982 97.4069 230.377 100.765 230.772C107.284 231.562 113.902 232.45 120.422 233.24C126.941 234.03 133.559 234.918 140.078 235.708C142.251 236.004 144.424 236.201 146.696 236.497C147.19 236.497 147.684 236.596 147.486 235.806C147.486 235.313 147.486 234.819 147.486 234.227C147.387 224.553 147.288 214.88 147.091 205.206C146.795 181.22 146.597 157.332 146.301 133.345C146.301 132.457 146.004 132.259 145.115 132.161C142.251 131.963 139.386 131.568 136.818 130.186C134.349 128.903 131.682 127.916 129.114 126.633C127.237 125.744 125.459 125.646 123.484 126.633C116.964 129.594 110.445 132.457 103.827 135.418C99.3825 137.392 95.0363 139.761 90.2951 141.242C88.5172 141.834 86.838 141.834 85.1589 141.044C83.1833 140.255 81.2079 140.057 79.1336 140.354C74.7875 140.847 70.4413 141.834 66.0952 142.821C58.1932 144.598 50.3899 146.474 42.883 149.632C41.3026 150.323 39.821 150.521 38.2406 150.126C36.8578 149.83 35.3761 149.534 33.9932 149.336C31.2275 148.941 28.5606 148.053 25.7949 149.632C25.0047 150.126 24.9059 150.521 24.9059 151.212C25.0047 158.516 25.1035 165.821 25.2023 173.125C25.3998 185.069 25.5974 196.915 25.6961 208.858C25.6961 210.142 25.6961 211.524 25.6961 212.807C25.7949 212.807 25.8936 212.807 26.0912 212.807C26.7826 211.82 27.3753 210.734 28.0667 209.747C31.7214 203.923 35.7712 198.395 40.2161 193.164C40.5124 192.769 40.9075 192.078 41.5001 192.473C42.0928 192.966 41.5002 193.46 41.3026 193.854C40.5124 194.94 39.821 196.125 38.932 197.112C34.3883 202.936 30.7337 209.451 26.19 215.373C25.7949 215.867 25.8937 216.36 25.9924 216.854C26.0912 217.348 26.6839 217.051 26.9802 217.15C31.2275 217.446 35.5736 217.348 39.821 217.841C45.4512 218.433 50.9826 219.322 56.4153 221.099C58.6871 221.888 60.5637 222.974 61.749 225.146L61.9467 225.442ZM83.9735 83.8912C84.3686 83.0028 84.8625 82.1144 85.2576 81.2261C85.949 79.9428 86.6405 78.6596 87.727 77.6725C91.7768 74.1189 95.629 70.1705 100.173 67.1105C103.333 64.8401 106.198 62.2737 109.062 59.6085C113.804 55.1665 118.742 50.922 124.274 47.3684C125.262 46.7762 126.052 45.8878 126.546 44.9007C127.435 43.2226 128.422 41.5445 129.706 40.2613C130.793 39.1755 131.484 39.0768 132.67 40.2613C133.657 41.2484 134.744 42.1368 135.83 42.9265C138.991 45.1968 142.251 47.3684 145.214 49.8362C145.214 49.8362 145.412 49.8362 145.609 49.8362C145.412 35.7206 145.313 21.7037 145.115 7.58817C140.572 15.0901 135.633 22.296 129.904 29.2057C129.904 28.6135 130.2 28.3173 130.398 28.0212C134.843 20.8153 139.485 13.6095 143.634 6.20623C143.831 5.81139 144.029 5.41654 144.424 5.41654C145.313 5.41654 145.115 4.82427 145.115 4.33072C145.115 -3.36868 144.918 -10.9694 144.819 -18.6688C144.819 -18.9649 144.819 -19.3597 144.819 -19.6559C144.325 -19.3597 144.128 -18.9649 143.831 -18.5701C135.929 -5.04675 127.929 8.37785 119.236 21.4076C118.347 22.7896 117.458 24.2702 116.569 25.6522C116.372 25.9483 116.273 26.4418 115.779 26.2444C115.977 25.9483 116.076 25.6522 116.273 25.4547C119.533 19.6308 122.792 13.8069 126.151 8.08172C131.781 -1.6906 137.312 -11.3642 142.942 -21.1365C143.239 -21.6301 143.436 -22.321 144.029 -22.4198C144.72 -22.6172 144.72 -23.012 144.72 -23.6043C144.523 -36.634 144.424 -49.7625 144.325 -62.7923C144.325 -65.8523 144.226 -68.9123 144.226 -72.071C144.226 -72.8607 143.93 -72.9594 143.239 -72.9594C142.35 -72.8607 141.559 -72.5646 140.67 -72.6633C138.991 -72.8607 137.411 -73.2556 135.83 -73.7491C132.472 -74.8349 129.015 -75.5259 125.558 -74.5388C123.286 -73.9465 121.113 -73.3543 118.94 -72.5646C114.001 -70.7878 109.359 -71.1826 104.914 -73.8478C104.321 -74.144 103.729 -74.4401 103.136 -74.7362C97.2094 -77.9937 90.8877 -78.1911 84.4674 -77.204C80.22 -76.6117 76.3678 -74.8349 72.5156 -73.1569C67.5768 -71.0839 62.5392 -70.393 57.3042 -71.6762C54.4397 -72.3672 51.8716 -73.6504 49.2046 -74.8349C46.2414 -76.2169 43.2781 -77.4014 39.9197 -77.7962C33.6969 -78.3885 27.7704 -77.4014 22.0414 -75.0323C21.35 -74.7362 21.1524 -74.4401 21.1524 -73.7491C21.2512 -68.8136 21.35 -63.8781 21.35 -58.9426C21.35 -54.9942 21.5476 -51.1445 21.5476 -47.196C21.5476 -46.8012 21.5476 -46.4064 21.5476 -46.0115C21.7451 -32.2908 22.0414 -18.6688 22.239 -4.94804C22.239 -3.96094 22.239 -3.07255 22.4366 -2.08545C22.4366 -1.78931 22.4366 -1.49318 22.4366 -1.29576C22.6341 10.0559 22.8316 21.5063 23.0292 32.858C23.128 38.8793 23.3255 44.9007 23.4243 50.922C23.4243 51.2181 23.2267 51.5142 23.6218 51.7117C23.8194 51.4155 24.0169 51.2181 24.1157 50.922C29.4496 42.3342 34.6846 33.7464 40.4136 25.4547C40.7099 24.9612 41.105 24.4676 41.4014 23.9741C41.5989 23.6779 41.8953 23.3818 42.2904 23.6779C42.6855 23.8754 42.6854 24.2702 42.4879 24.665C42.0928 25.356 41.7965 25.9483 41.4014 26.6393C38.1418 31.6735 34.981 36.7077 31.7215 41.7419C29.0545 45.9865 26.7826 50.4284 23.5231 54.2781C23.3255 54.4756 23.3255 54.673 23.3255 54.9691C23.3255 56.6472 23.3255 58.2265 23.3255 59.9046C23.7206 59.6085 23.8194 59.3124 24.0169 58.9175C25.2022 56.4498 26.6839 54.1794 28.2643 52.0078C28.5607 51.613 28.9557 50.922 29.5483 51.4155C30.2398 51.8104 29.7459 52.4026 29.5483 52.8962C28.363 54.8704 27.3753 57.042 25.8937 58.7201C23.6219 61.2866 23.3255 64.0505 23.4243 67.3079C23.7206 74.1189 23.7206 81.0286 23.8194 87.8396C23.8194 88.0371 23.8194 88.2345 23.8194 88.4319C24.0169 98.4016 24.1157 108.371 24.3133 118.341C24.3133 118.637 24.2145 118.933 24.6096 119.328C25.8936 118.242 27.1777 117.058 28.5606 115.972C34.5859 110.642 40.7099 105.41 47.4266 100.968C50.785 98.6978 54.4398 97.8094 58.3908 98.2042C60.8602 98.4016 63.3294 98.5004 65.7001 97.8094C70.8364 96.1313 75.7752 93.7623 80.3188 90.8009C80.8127 90.5048 81.2078 90.11 81.5041 89.6164C82.4918 87.8396 83.2821 86.0628 83.8747 84.0886L83.9735 83.8912ZM40.6112 413.88C40.6112 414.867 40.6112 415.854 40.6112 416.841C40.6112 417.532 40.8087 417.828 41.5001 418.026C49.4021 419.802 57.3042 421.579 65.2062 423.356C83.7759 427.6 102.346 431.845 120.915 435.991C123.582 436.583 126.151 437.175 128.916 437.768C128.324 436.188 128.916 434.708 128.521 433.227C128.521 431.45 128.719 429.673 128.719 427.897C128.916 403.022 129.213 378.147 129.41 353.37C129.608 327.804 129.805 302.337 130.003 276.771C130.003 274.797 130.003 274.698 128.027 274.501C122.99 273.81 117.853 273.119 112.816 272.428C105.605 271.441 98.3947 270.454 91.1841 269.467C84.6649 268.578 78.1457 267.69 71.6266 266.801C64.3172 265.814 57.1066 264.827 49.7973 263.84C46.5377 263.347 43.2781 262.952 39.9197 262.458C39.4259 262.458 39.1296 262.261 39.2284 263.05C39.3271 266.407 39.4259 269.664 39.4259 273.02C39.821 317.835 40.1173 362.649 40.5124 407.464C40.5124 409.536 40.6112 411.708 40.71 413.781L40.6112 413.88ZM146.4 131.173C146.4 127.916 146.4 124.757 146.4 121.599C146.4 121.204 146.4 120.809 145.807 121.006C142.942 121.5 140.177 121.302 137.51 120.217C136.127 119.624 134.645 119.131 133.164 118.637C129.706 117.354 126.249 117.157 122.693 117.848C120.817 118.144 119.039 118.539 117.162 119.032C116.668 119.131 116.076 119.526 115.779 118.835C115.483 118.144 116.075 117.946 116.569 117.749C117.36 117.255 118.15 116.86 118.841 116.367C122.99 113.504 127.632 112.32 132.67 112.517C134.942 112.517 137.213 112.517 139.386 112.715C140.967 112.912 142.251 112.616 143.337 111.333C144.029 110.543 144.918 109.852 145.807 109.26C146.202 108.964 146.301 108.766 146.301 108.273C146.202 99.5862 146.103 90.9984 146.004 82.3119C146.004 81.7196 145.807 81.4235 145.214 81.2261C143.831 80.9299 142.547 80.8312 141.164 81.4235C139.683 82.1144 138.201 82.608 136.818 83.2003C133.657 84.5822 130.595 86.0628 127.336 87.2474C125.854 87.7409 124.866 88.5306 123.879 89.6164C119.829 93.861 115.582 98.1055 111.729 102.646C111.137 103.436 110.347 103.831 109.359 104.127C107.778 104.522 106.198 104.719 104.519 104.719C98.2959 104.719 92.073 104.719 85.949 104.62C84.3686 104.62 82.9858 105.015 81.7017 106.002C79.6274 107.68 77.652 109.358 75.6764 111.135C71.5279 115.084 67.3793 119.032 63.3295 123.079C62.1442 124.165 60.9588 125.152 59.2797 125.35C56.6127 125.646 53.8471 125.942 51.1801 126.337C47.6242 126.83 43.8707 126.731 40.4136 127.521C35.4748 128.607 30.5361 129.298 25.4986 128.212C24.7084 128.015 24.8071 128.508 24.8071 129.002C24.8071 135.319 25.0047 141.637 25.0047 147.954C25.0047 148.645 25.2022 148.744 25.7949 148.448C27.2765 147.559 28.8569 147.263 30.5361 147.559C32.6104 147.855 34.6847 148.152 36.6602 148.645C39.3272 149.237 41.7965 149.534 44.2659 147.954C44.7597 147.658 45.2536 147.559 45.8463 147.362C55.4274 144.006 65.305 141.735 75.1826 139.86C79.1336 139.07 83.1834 138.675 87.0356 140.452C87.727 140.748 88.6159 140.65 89.4061 140.452C91.5792 139.86 93.6535 139.07 95.7278 138.083C105.111 133.839 114.396 129.495 123.879 125.448C125.854 124.56 127.632 124.659 129.509 125.448C132.67 126.83 135.732 128.212 138.893 129.693C140.275 130.285 141.658 130.68 143.041 130.779C144.226 130.779 145.313 130.976 146.498 131.272L146.4 131.173ZM145.906 70.2692H145.807C145.807 68.295 145.609 66.2221 145.807 64.2479C146.202 61.3853 144.918 59.5098 142.646 57.9304C141.955 57.4369 141.658 57.2395 141.461 58.3253C141.066 60.2995 140.67 62.2737 139.683 64.0505C139.09 65.1363 138.399 65.235 137.51 64.3466C136.818 63.6556 136.324 62.8659 135.633 62.175C135.238 61.6814 134.744 61.484 134.053 61.6814C130.497 62.7672 126.743 63.4582 123.187 64.3466C122.002 64.6427 121.409 64.3466 121.409 63.0633C121.409 62.0762 121.409 61.1879 121.409 60.2008C121.409 59.4111 121.113 59.1149 120.323 59.1149C118.15 59.3124 115.977 59.5098 114.001 60.3982C109.556 62.3724 105.507 65.0376 101.556 67.8014C97.2094 70.9602 93.456 74.9086 89.505 78.4622C88.616 79.2518 87.9245 80.1402 87.3319 81.1273C85.8502 83.5951 84.7638 86.1616 83.5785 88.728C82.887 90.3074 81.8005 91.4919 80.3188 92.3803C76.8617 94.4532 73.207 96.1313 69.5523 97.8094C66.2927 99.29 62.8356 100.277 59.2797 99.8823C54.4397 99.3887 50.2912 100.771 46.6365 103.732C46.4389 103.831 46.2414 104.028 46.0439 104.127C39.6235 108.668 33.6969 113.702 27.8692 118.933C26.8814 119.822 25.301 120.414 24.8071 121.5C24.3133 122.684 24.8071 124.264 24.8071 125.744C24.8071 126.731 25.0047 127.126 26.0912 126.731C26.4863 126.534 26.9802 126.731 27.4741 126.731C30.4373 127.225 33.3018 127.225 36.2651 126.731C38.6357 126.238 40.9075 125.744 43.3769 125.448C48.1181 125.053 52.8593 124.461 57.6005 123.968C59.7736 123.77 61.5515 122.882 63.0332 121.302C65.6013 118.637 68.2682 116.071 71.0339 113.504C74.2935 110.346 77.5532 107.187 81.2078 104.423C82.5907 103.337 84.171 102.844 85.949 102.942C91.0853 103.041 96.3205 103.041 101.457 103.14C103.235 103.14 105.111 103.14 106.889 102.942C108.371 102.745 109.853 102.547 110.939 101.264C114.495 97.1184 118.446 93.2687 122.2 89.2216C123.582 87.7409 125.163 86.7538 126.842 85.9641C131.583 83.8912 136.423 81.8183 141.164 79.7454C142.448 79.1531 143.733 78.9557 145.017 79.4493C146.004 79.8441 146.103 79.4493 146.103 78.5609C146.103 75.797 146.103 72.9344 146.103 70.1705L145.906 70.2692ZM35.2773 254.561C35.2773 254.66 35.2774 254.759 35.1786 254.857C36.1663 256.437 37.1541 257.917 38.1419 259.596C38.537 260.385 39.1295 260.583 39.9197 260.681C44.5622 261.274 49.1058 261.965 53.7483 262.557C65.5025 264.136 77.3556 265.716 89.1099 267.394C102.049 269.17 115.088 270.947 128.027 272.823C129.509 273.02 130.398 272.823 131.188 271.441C131.978 269.96 133.164 268.677 134.25 267.295C101.16 263.05 68.2683 258.806 35.3761 254.463L35.2773 254.561ZM35.0797 258.312C35.0797 262.557 35.0797 266.9 35.0797 271.145C35.1785 319.118 35.0798 366.992 35.3761 414.966C35.3761 415.262 35.3761 415.558 35.3761 415.755C35.0798 416.446 35.3761 416.644 35.9687 416.742C36.2651 416.742 36.5614 416.841 36.8577 416.94C37.7796 417.137 38.2406 416.742 38.2406 415.755C38.2406 415.163 38.2406 414.472 38.2406 413.88C38.1418 397.198 38.043 380.516 37.9442 363.834C37.7467 330.963 37.4504 298.191 37.2529 265.321C37.2529 264.334 36.8578 263.149 37.648 262.261C37.7468 262.162 37.7468 261.965 37.648 261.866C36.2651 261.076 36.0675 259.398 35.0797 258.312ZM60.0699 225.442C59.2797 224.356 58.4895 223.862 57.6005 223.468C55.4275 222.48 53.0569 221.888 50.6863 221.395C44.0683 219.914 37.2528 219.322 30.5361 219.026C29.7459 219.026 28.8569 218.927 28.0667 218.828C26.0912 218.729 25.9925 218.828 26.19 220.802C26.19 221.197 26.2888 221.395 26.7826 221.493C28.1655 221.592 29.6471 221.789 31.03 221.987C37.154 222.777 43.2782 223.468 49.501 224.257C52.9581 224.652 56.4152 225.146 60.1687 225.639L60.0699 225.442Z" fill="#070707"/>
<path d="M167.439 446.552C164.08 446.058 160.722 445.071 157.462 444.38C155.882 444.084 154.302 443.591 152.721 443.295C152.129 443.196 151.931 443.097 152.227 442.505C152.524 441.913 152.425 441.32 152.425 440.629C152.129 420.69 151.832 400.75 151.536 380.712C151.24 359.193 150.943 337.675 150.746 316.057C150.449 289.603 150.054 263.148 149.758 236.595C149.462 210.042 149.165 183.39 148.77 156.837C148.474 131.074 148.178 105.409 147.881 79.6458C147.387 37.4965 146.894 -4.75145 146.4 -46.9007C146.301 -55.3898 146.202 -63.9776 146.005 -72.4667C145.807 -89.8397 145.511 -107.213 145.313 -124.684C145.313 -125.869 145.017 -126.955 144.523 -128.139C143.93 -127.547 144.029 -126.856 143.733 -126.264C143.338 -127.448 143.733 -128.633 143.535 -129.817H162.5C162.302 -129.126 162.204 -128.534 162.302 -127.843C162.401 -120.44 162.302 -113.135 162.5 -105.732C162.796 -93.9855 162.5 -82.239 162.796 -70.4925C163.093 -60.3253 162.796 -50.0595 162.994 -39.8923C163.29 -29.3303 162.994 -18.7683 163.191 -8.20631C163.488 3.14537 163.191 14.3984 163.389 25.75C163.685 36.4107 163.389 47.0715 163.587 57.8309C163.883 71.3542 163.587 84.7788 163.784 98.3021C164.08 111.727 163.685 125.151 163.982 138.675C164.278 149.434 163.982 160.193 164.179 170.953C164.476 181.12 164.179 191.188 164.377 201.356C164.673 215.57 164.574 229.784 164.574 244.097C164.574 280.423 164.871 316.748 164.574 353.073C164.476 364.425 164.476 375.678 164.673 387.03C164.969 400.652 164.475 414.274 164.969 427.994C165.068 432.535 164.969 436.977 164.969 441.518C164.969 443.492 164.969 445.269 167.044 446.355C167.044 446.355 167.044 446.453 167.044 446.552H167.439Z" fill="#D1CBCB"/>
<path d="M200.828 -75.5265V72.2428C200.729 72.2428 200.532 72.2428 200.433 72.4402C198.556 73.9208 196.581 75.4015 194.704 76.8821C194.21 77.277 193.914 77.3757 193.42 76.9809C190.062 74.3157 186.308 71.9466 183.048 69.084C180.382 66.8137 177.715 64.4446 173.862 64.5434C173.072 64.5434 172.381 64.5434 171.591 64.4446C169.911 64.3459 169.911 64.3459 169.911 62.6679C169.615 39.2735 169.418 15.8792 169.121 -7.51513C168.924 -21.4333 168.825 -35.3514 168.726 -49.2696C168.726 -56.969 168.726 -64.6684 168.43 -72.3678C168.43 -73.0588 168.43 -73.3549 169.319 -73.2562C170.01 -73.2562 170.8 -73.3549 171.591 -73.4536C174.949 -74.0459 178.011 -75.4278 181.172 -76.5136C185.024 -77.7969 188.975 -78.4878 193.123 -77.5007C195.79 -76.9085 198.359 -76.1188 200.927 -75.4278L200.828 -75.5265Z" fill="#AFE8F9"/>
<path d="M11.5685 411.115C9.79051 410.72 8.01253 410.325 6.23458 409.93C5.93825 409.93 5.64195 409.93 5.64195 409.338C5.93828 405.587 5.64195 401.738 5.64195 397.987C5.4444 393.248 5.44435 388.412 5.34558 383.674C5.04925 355.64 4.75296 327.606 4.45664 299.474C4.16031 270.255 3.86399 241.037 3.46888 211.72C3.07378 174.605 2.67867 137.49 2.28357 100.375C2.08602 78.56 1.78968 56.7451 1.59213 34.9301C1.19703 0.875031 0.801917 -33.2787 0.406816 -67.3338C0.209266 -87.372 0.0117633 -107.41 -0.284562 -127.448C-0.284562 -128.238 -0.284587 -129.126 -0.679688 -129.817H6.23458C6.1358 -129.225 5.93827 -128.633 5.93827 -128.041C6.03704 -117.577 5.74073 -107.015 6.13583 -96.552C6.43215 -90.0371 6.13578 -83.4235 6.33333 -76.9087C6.62966 -70.4925 6.33334 -63.9776 6.53089 -57.5615C6.82722 -50.0595 6.53091 -42.4588 6.72846 -34.9568C7.02478 -27.7509 6.72847 -20.6438 6.92602 -13.438C7.22234 -6.92307 6.92603 -0.4082 7.12358 6.10668C7.41991 12.2267 7.12353 18.4455 7.32108 24.5655C7.61741 30.9817 7.3211 37.4966 7.51865 43.9127C7.81497 49.934 7.51866 56.0541 7.71621 62.0754C8.01253 68.5903 7.71622 75.1052 7.91377 81.62C8.2101 87.8388 7.91378 93.9588 8.11133 100.178C8.40766 107.383 8.11132 114.589 8.40765 121.795C8.70397 127.816 8.40766 133.838 8.60521 139.859C8.90154 145.782 8.60516 151.704 8.80271 157.627C9.09904 164.142 8.80272 170.657 9.00027 177.172C9.2966 185.661 9.00029 194.15 9.19784 202.639C9.29661 212.214 9.49419 221.887 9.09909 231.462C9.00031 234.226 9.09906 236.99 9.19784 239.754C9.49416 245.874 9.19785 252.093 9.3954 258.213C9.69173 263.938 9.39541 269.663 9.59296 275.388C9.88929 280.817 9.59291 286.345 9.79046 291.774C10.0868 300.263 9.79051 308.752 10.0868 317.241C10.3832 324.447 10.0868 331.653 10.2843 338.859C10.4819 345.867 10.4819 352.975 10.5807 359.983C10.5807 362.253 10.6794 364.425 10.7782 366.695C10.7782 372.421 10.9758 378.047 11.2721 383.772C11.4696 386.832 11.2721 389.892 11.2721 393.051C11.2721 399.072 11.3709 405.094 10.9758 411.115H11.5685Z" fill="#D0CACA"/>
<path d="M200.826 105.608V200.271C199.147 200.271 197.468 200.271 195.789 199.876C192.332 199.284 188.973 198.198 185.615 197.408C181.368 196.421 180.182 197.013 178.701 201.159C178.701 201.357 178.602 201.554 178.503 201.751C176.824 208.069 175.737 214.485 175.639 221C175.639 224.257 176.626 225.639 179.787 226.626C181.17 227.021 182.652 227.317 184.133 227.712C184.034 228.206 183.837 228.699 183.738 229.193C182.948 232.253 181.763 235.214 181.269 238.472C181.269 239.163 180.676 239.064 180.281 238.965C177.812 238.57 175.243 238.472 172.774 238.373C171.885 238.373 171.589 238.077 171.589 237.188C171.49 218.335 171.292 199.481 171.095 180.627C170.996 166.413 170.799 152.199 170.601 137.985C170.601 137.491 170.502 136.997 170.897 136.504C173.762 133.543 175.441 129.89 177.515 126.435C177.812 126.041 178.009 125.547 178.108 125.054C178.207 124.757 178.108 124.461 177.812 124.264C177.515 124.066 177.318 124.264 177.021 124.461C176.528 124.757 176.231 125.35 175.836 125.843C174.058 128.508 172.379 131.174 170.601 133.839C170.502 133.839 170.403 133.839 170.305 133.839C170.305 131.766 170.305 129.693 170.305 127.62C170.305 127.324 170.502 127.225 170.7 127.028C172.181 125.646 173.268 123.869 174.157 122.092C175.737 119.032 177.318 115.972 178.898 112.912C179.293 112.122 179.59 111.037 180.182 110.741C180.874 110.444 181.763 111.333 182.454 111.728C184.43 113.011 186.405 113.011 188.479 111.826C192.134 109.852 195.888 107.878 199.641 105.904C199.937 105.706 200.234 105.41 200.728 105.509L200.826 105.608Z" fill="#98CAD3"/>
<path d="M200.824 105.607C200.33 105.409 200.132 105.804 199.737 106.002C195.984 107.976 192.23 109.851 188.575 111.924C186.501 113.01 184.526 113.01 182.55 111.825C181.859 111.332 180.97 110.443 180.278 110.838C179.686 111.134 179.389 112.22 178.994 113.01C177.414 116.07 175.833 119.13 174.253 122.19C173.364 123.967 172.278 125.645 170.796 127.125C170.598 127.323 170.401 127.422 170.401 127.718C170.401 129.791 170.401 131.864 170.401 133.937C170.5 133.937 170.598 133.937 170.697 133.937C172.475 131.271 174.154 128.606 175.932 125.941C176.229 125.447 176.624 124.954 177.118 124.559C177.315 124.46 177.611 124.164 177.908 124.362C178.204 124.559 178.303 124.855 178.204 125.151C178.006 125.645 177.809 126.138 177.611 126.533C175.537 129.988 173.858 133.64 170.994 136.602C170.598 136.997 170.697 137.589 170.697 138.082C170.796 152.297 170.993 166.511 171.191 180.725C171.389 199.579 171.586 218.433 171.685 237.286C171.685 238.175 171.882 238.471 172.87 238.471C175.438 238.471 177.908 238.668 180.377 239.063C180.772 239.063 181.266 239.26 181.365 238.569C181.859 235.411 182.945 232.449 183.834 229.291C183.933 228.797 184.131 228.304 184.229 227.81C182.748 227.415 181.266 227.218 179.883 226.724C176.722 225.737 175.735 224.355 175.735 221.098C175.735 214.583 176.821 208.167 178.599 201.849C178.599 201.652 178.698 201.454 178.797 201.257C180.18 197.111 181.464 196.519 185.711 197.506C189.069 198.296 192.428 199.381 195.885 199.974C197.564 200.27 199.243 200.467 200.922 200.369V201.75C199.243 201.652 197.663 201.553 195.984 201.356C192.23 200.862 188.674 199.678 184.921 198.789C181.859 198.098 181.365 198.296 180.278 201.257C180.18 201.553 180.081 201.849 179.982 202.145C179.291 204.317 178.896 206.686 178.402 208.956C177.611 213.102 177.118 217.347 177.118 221.591C177.118 223.171 177.809 224.158 179.192 224.75C180.18 225.244 181.266 225.441 182.353 225.638C188.477 226.922 194.7 226.625 200.824 226.625V228.304C198.453 228.304 196.082 228.304 193.712 228.304C192.724 228.304 192.428 228.304 192.23 229.488C191.736 232.153 190.946 234.818 190.353 237.484C190.156 238.175 189.761 238.866 189.958 239.359C190.255 240.05 191.242 239.655 191.835 239.655C194.798 239.951 197.762 240.346 200.725 240.346V242.715C197.564 242.715 194.502 242.222 191.341 242.024C185.711 241.629 180.081 241.136 174.451 240.544C171.191 240.248 171.191 240.149 171.784 243.406C171.586 245.183 171.784 247.059 171.784 248.835C171.784 249.23 171.981 249.329 172.376 249.329C176.327 249.23 180.18 249.724 184.032 250.02C189.563 250.513 195.193 251.007 200.725 251.402V253.771C197.366 253.475 194.107 253.277 190.749 252.981C187.884 252.784 185.02 252.389 182.155 252.191C178.698 251.895 175.241 251.5 171.882 250.908V254.955C171.882 256.93 171.882 258.805 171.882 260.779C172.08 276.672 172.277 292.663 172.376 308.555C172.574 323.362 172.673 338.168 172.87 352.876C173.068 368.176 173.166 383.377 173.364 398.678C173.562 414.076 173.66 429.475 173.858 444.973C173.858 445.269 173.858 445.565 173.759 445.861C173.562 446.453 173.167 446.848 172.574 446.749C171.882 446.749 171.487 446.355 171.389 445.664C171.389 444.973 171.389 444.282 171.389 443.689C171.29 433.226 171.092 422.763 170.994 412.3C170.697 389.892 170.5 367.386 170.302 344.979C170.104 321.98 169.808 298.881 169.611 275.882C169.413 261.273 169.314 246.664 169.216 232.055C169.018 209.252 168.722 186.45 168.524 163.648C168.327 140.846 168.03 118.143 167.833 95.3408C167.635 73.131 167.339 51.0199 167.141 28.8101C166.944 14.2996 166.845 -0.112062 166.746 -14.6225C166.45 -50.9479 166.055 -87.2732 165.758 -123.697C165.758 -125.77 165.956 -127.744 164.672 -129.521C164.672 -129.521 164.672 -129.719 164.672 -129.817C165.265 -129.817 165.956 -129.817 166.549 -129.817C166.944 -128.633 167.536 -127.547 168.228 -126.461C168.327 -126.165 168.425 -125.77 168.623 -125.474C171.191 -120.242 173.265 -114.813 175.34 -109.384C178.895 -100.106 182.155 -90.8268 185.909 -81.6468C186.304 -80.7584 186.699 -80.3635 187.686 -80.4622C189.662 -80.6597 191.736 -80.4622 193.613 -79.9687C195.984 -79.3764 198.453 -78.6854 200.824 -78.0932V-75.5267C198.255 -76.2177 195.588 -77.0074 193.02 -77.5996C188.971 -78.5867 185.02 -77.8958 181.069 -76.6125C177.908 -75.5267 174.846 -74.1448 171.487 -73.5525C170.796 -73.4538 170.006 -73.2564 169.216 -73.3551C168.425 -73.3551 168.327 -73.1577 168.327 -72.4667C168.623 -64.7673 168.524 -57.0679 168.623 -49.3685C168.82 -35.4503 168.919 -21.5322 169.018 -7.61404C169.314 15.7803 169.512 39.1746 169.808 62.569C169.808 64.1483 169.808 64.1483 171.487 64.3458C172.278 64.3458 172.969 64.4445 173.759 64.4445C177.611 64.4445 180.278 66.7148 182.945 68.9851C186.205 71.8477 189.958 74.1181 193.317 76.882C193.811 77.2768 194.206 77.1781 194.601 76.7833C196.477 75.3026 198.354 73.822 200.33 72.3413C200.428 72.3413 200.626 72.2426 200.725 72.1439V75.0065C200.429 75.2039 200.132 75.3026 199.836 75.5C197.465 77.1781 195.193 78.9549 193.119 80.9291C191.637 82.2123 190.057 82.6072 188.18 82.311C187.489 82.2123 186.896 82.311 186.402 82.6072C181.069 85.5685 175.833 88.8259 170.598 92.0834C170.302 92.2808 170.105 92.4782 170.105 92.7743C170.105 95.5382 170.105 98.3021 170.105 101.263C170.796 100.967 171.389 100.671 171.981 100.375C177.611 97.7098 177.809 97.7098 183.34 100.671C183.933 100.967 184.131 100.967 184.526 100.375C185.118 99.3879 185.81 98.4995 186.402 97.5124C186.6 97.2163 186.896 96.7227 187.291 97.0189C187.687 97.315 187.291 97.7098 187.193 98.006C186.797 98.7957 186.402 99.4866 186.007 100.178C185.711 100.671 185.02 101.263 185.316 101.658C185.711 102.251 186.501 102.645 187.291 102.843C187.785 102.843 188.279 102.744 188.773 102.547C192.922 101.362 196.774 99.684 200.725 98.2034V105.508L200.824 105.607ZM167.833 -121.723C167.833 -121.032 167.833 -120.341 167.833 -119.552C167.931 -110.766 168.03 -101.981 168.129 -93.1959C168.129 -87.5694 168.228 -82.0416 168.327 -76.4151C168.327 -75.8229 168.623 -75.7241 169.117 -75.7241C170.302 -75.7241 171.389 -76.0203 172.475 -76.3164C176.229 -77.3035 179.784 -78.9816 183.538 -79.87C184.526 -80.0674 183.834 -80.5609 183.735 -80.8571C180.18 -89.5436 177.019 -98.4275 173.759 -107.213C172.08 -111.753 170.401 -116.294 168.327 -120.637C168.327 -120.933 168.129 -121.23 168.129 -121.624C167.635 -122.612 168.03 -123.796 167.734 -124.882C167.734 -123.796 167.438 -122.71 167.734 -121.624L167.833 -121.723ZM180.377 75.7962C180.673 75.9936 180.97 76.0923 181.266 76.2897C183.637 77.1781 186.106 77.9678 188.575 78.6588C189.069 78.7575 189.761 78.8562 189.761 79.4484C189.761 81.0278 190.551 80.0407 190.946 79.7446C191.44 79.4484 191.934 79.1523 192.23 78.6588C192.922 78.3626 192.625 78.0665 192.23 77.7704C187.785 74.6116 183.439 71.2555 179.093 67.8993C177.611 66.7148 175.834 66.2213 173.957 66.1225C172.87 66.1225 171.784 66.0238 170.796 65.9251C170.104 65.9251 169.808 65.9251 169.808 66.7148C169.808 67.7019 169.808 68.689 169.808 69.6761C169.808 70.4658 169.611 71.3542 169.808 72.0452C170.104 72.9336 171.29 72.5387 171.981 72.8349C174.648 73.9207 177.414 74.809 180.18 75.8949L180.377 75.7962ZM186.896 79.942C180.97 78.2639 175.636 75.5987 170.006 73.9207C170.006 79.251 170.006 84.5814 170.203 90.1092C175.735 86.5556 181.167 83.1994 186.896 79.942ZM170.5 125.349C170.5 125.349 170.598 125.349 170.697 125.349C170.796 125.151 170.895 124.954 170.994 124.756C173.364 120.216 175.833 115.576 178.204 111.036C178.994 109.555 178.698 108.963 176.92 108.864C176.525 108.864 176.13 108.864 175.735 108.963C174.154 109.358 172.574 110.049 171.092 110.74C170.5 111.036 170.302 111.431 170.401 112.023C170.401 114.589 170.401 117.057 170.401 119.624C170.401 121.499 170.401 123.375 170.401 125.25L170.5 125.349ZM191.045 228.304C189.366 228.205 187.686 228.007 186.106 227.909C185.711 227.909 185.711 228.007 185.612 228.304C184.723 231.66 183.736 235.016 182.847 238.372C182.748 238.866 182.847 239.063 183.34 239.162C184.822 239.162 186.205 239.359 187.686 239.458C188.18 239.458 188.378 239.359 188.477 238.866C189.069 235.312 190.057 231.857 191.045 228.402V228.304ZM167.536 -125.77C167.536 -125.77 167.536 -125.77 167.635 -125.77H167.536Z" fill="#050505"/>
<path d="M164.577 -129.817C164.577 -129.817 164.577 -129.62 164.577 -129.521C165.861 -127.744 165.565 -125.77 165.664 -123.697C165.96 -87.372 166.256 -51.0466 166.651 -14.6225C166.75 -0.112085 166.948 14.2996 167.046 28.81C167.244 51.0198 167.54 73.1309 167.738 95.3408C167.935 118.143 168.232 140.846 168.429 163.648C168.627 186.45 168.923 209.252 169.121 232.054C169.318 246.664 169.417 261.273 169.516 275.882C169.713 298.881 170.01 321.98 170.207 344.979C170.405 367.386 170.701 389.892 170.899 412.299C170.997 422.763 171.195 433.226 171.294 443.689C171.195 443.689 170.997 443.788 170.899 443.887C170.503 445.367 169.516 446.157 167.935 446.355C167.935 446.355 167.837 446.552 167.738 446.651C167.639 446.651 167.441 446.651 167.343 446.552V446.355C165.268 445.367 165.17 443.492 165.268 441.518C165.268 436.977 165.367 432.535 165.268 427.994C164.873 414.372 165.268 400.75 164.972 387.03C164.676 375.678 164.775 364.425 164.873 353.073C165.268 316.748 165.071 280.423 164.873 244.097C164.873 229.883 164.972 215.669 164.676 201.356C164.478 191.188 164.676 181.12 164.478 170.953C164.182 160.193 164.478 149.434 164.281 138.675C163.886 125.25 164.281 111.825 164.083 98.3021C163.787 84.7788 164.083 71.3542 163.886 57.8309C163.589 47.1701 163.886 36.4107 163.688 25.75C163.392 14.3983 163.688 3.14535 163.49 -8.20633C163.194 -18.7683 163.49 -29.3303 163.293 -39.8923C162.997 -50.0595 163.293 -60.3254 163.095 -70.4925C162.799 -82.239 163.095 -93.9856 162.799 -105.732C162.602 -113.135 162.799 -120.44 162.602 -127.843C162.602 -128.534 162.602 -129.126 162.799 -129.817C163.392 -129.817 164.083 -129.817 164.676 -129.817L164.577 -129.817Z" fill="#F9F9F9"/>
<path d="M11.5727 411.115C11.9678 405.094 11.869 399.072 11.869 393.051C11.869 389.991 11.9678 386.931 11.869 383.772C11.5727 378.047 11.3752 372.421 11.3752 366.695C11.3752 364.425 11.2764 362.253 11.1776 359.983C11.1776 352.975 11.0788 345.867 10.8813 338.859C10.6837 331.653 10.8813 324.447 10.6837 317.241C10.3874 308.752 10.6837 300.263 10.3874 291.774C10.1899 286.246 10.3874 280.817 10.1899 275.388C9.89353 269.663 10.1898 263.938 9.99229 258.213C9.69596 252.093 9.99228 245.874 9.79473 239.754C9.69595 236.99 9.49843 234.226 9.69598 231.462C10.1899 221.887 9.99228 212.214 9.79473 202.639C9.69595 194.15 9.79478 185.661 9.59723 177.172C9.39967 170.657 9.59721 164.142 9.39966 157.627C9.10334 151.704 9.39965 145.782 9.2021 139.859C8.90577 133.838 9.20209 127.816 9.00454 121.795C8.70821 114.589 9.00455 107.383 8.70822 100.178C8.4119 93.9588 8.70821 87.8388 8.51066 81.62C8.21434 75.1052 8.51065 68.5903 8.3131 62.0754C8.01677 55.9554 8.31315 49.934 8.1156 43.9127C7.81927 37.3978 8.11558 30.9817 7.91803 24.5655C7.62171 18.4455 7.91802 12.2267 7.72047 6.10668C7.42415 -0.4082 7.72046 -6.92307 7.52291 -13.438C7.22658 -20.6438 7.5229 -27.7509 7.32535 -34.9568C7.02902 -42.4588 7.32539 -50.0595 7.12784 -57.5615C6.83152 -64.0763 7.12783 -70.4925 6.93028 -76.9087C6.63396 -83.4235 6.93027 -90.0371 6.73272 -96.552C6.33762 -107.015 6.73271 -117.577 6.53516 -128.041C6.53516 -128.633 6.63392 -129.225 6.83147 -129.817H9.69598C9.79475 -129.126 9.79475 -128.435 10.1899 -127.942C9.39965 -125.672 9.5972 -123.401 9.69598 -121.032C10.0911 -87.4707 10.585 -53.9092 11.0789 -20.3477C11.3752 1.26988 11.6715 22.8874 11.9678 44.505C12.2641 66.8135 12.5604 89.122 12.9555 111.332C13.2519 131.074 13.4494 150.816 13.8445 170.459C14.2396 194.841 14.536 219.321 14.8323 243.702C15.1286 266.702 15.425 289.8 15.8201 312.8C16.2152 336.687 16.5115 360.575 16.8078 384.365C16.8078 393.15 17.1041 401.836 17.2029 410.621C17.2029 411.016 17.2029 411.51 17.2029 412.003C15.5237 411.609 13.9433 411.214 12.3629 410.819L11.5727 411.115Z" fill="#FCFCFC"/>
<path d="M9.59213 -127.843C9.19703 -128.436 9.19703 -129.126 9.09825 -129.719H15.2223C14.9259 -128.83 15.2223 -127.843 15.2223 -126.955C15.321 -119.552 15.0247 -112.05 15.4198 -104.646C15.7162 -99.7108 15.4198 -94.6766 15.6174 -89.7411C15.9137 -84.9043 15.6174 -79.9688 15.815 -75.132C16.1113 -69.6042 15.815 -63.9777 16.0125 -58.4499C16.3088 -53.5144 16.0125 -48.4802 16.21 -43.5447C16.5063 -38.5105 16.21 -33.3775 16.4076 -28.3433C16.7039 -23.2104 16.4076 -18.0774 16.6051 -12.9445C16.9015 -7.71285 16.6052 -2.57993 16.8027 2.65172C17.099 7.68594 16.8027 12.7202 17.0003 17.7544C17.2966 22.7886 17.0002 27.7241 17.1978 32.7584C17.4941 37.4964 17.1978 42.3332 17.3953 47.0713C17.6917 52.303 17.3953 57.4359 17.5929 62.6676C17.8892 67.8992 17.5929 73.0322 17.7905 78.2638C18.0868 83.1006 17.7905 88.0361 17.988 92.8729C18.2843 97.8084 17.988 102.744 18.1855 107.679C18.4819 112.418 18.1855 117.254 18.3831 121.992C18.6794 126.731 18.3831 131.567 18.5807 136.305C18.877 140.649 18.5807 145.091 18.7782 149.434C19.0745 154.271 18.7782 159.206 18.9758 164.043C19.2721 169.077 18.9757 174.013 19.1733 179.047C19.4696 185.463 19.1733 191.781 19.3708 198.197C19.5684 204.909 19.3708 211.621 19.3708 218.334C19.3708 218.729 19.3708 219.123 19.1733 219.419C17.8892 220.801 17.7904 222.578 18.0868 224.355C17.3953 225.243 16.4076 225.737 15.6174 226.428C15.2223 226.23 15.4198 225.934 15.4198 225.737C15.1235 208.068 15.0247 190.399 14.6296 172.73C14.037 140.945 13.6419 109.259 13.148 77.4741C12.8517 54.5733 12.5554 31.6725 12.1603 8.67305C11.7652 -17.5839 11.37 -43.8408 10.9749 -69.999C10.6786 -88.2604 10.3823 -106.423 10.086 -124.685C10.086 -125.77 9.69089 -126.659 9.39456 -127.646C9.29579 -128.041 8.99945 -128.139 8.70312 -127.942L9.59213 -127.843Z" fill="#D0CACA"/>
<path d="M18.879 224.455C18.6814 222.678 18.6814 221 19.9655 219.519C20.2618 219.223 20.163 218.729 20.163 218.433C20.163 211.721 20.3606 205.009 20.163 198.296C19.9655 191.88 20.1631 185.563 19.9655 179.147C19.768 174.112 19.9655 169.177 19.768 164.143C19.4716 159.207 19.7679 154.37 19.5704 149.534C19.2741 145.19 19.5704 140.748 19.3728 136.405C19.0765 131.667 19.3728 126.83 19.1753 122.092C18.8789 117.354 19.1753 112.517 18.9778 107.779C18.6814 102.844 18.9778 97.9081 18.7802 92.9726C18.4839 88.037 18.7802 83.2002 18.5826 78.3634C18.2863 73.1318 18.5826 67.9989 18.3851 62.7672C18.0888 57.5356 18.3851 52.4026 18.1875 47.171C17.8912 42.4329 18.1876 37.5961 17.99 32.858C17.6937 27.8238 17.99 22.8883 17.7925 17.854C17.4961 12.8198 17.7924 7.78558 17.5949 2.75136C17.2986 -2.48029 17.5949 -7.61322 17.3973 -12.8449C17.101 -17.9778 17.3973 -23.1107 17.1998 -28.2437C16.9034 -33.3766 17.1998 -38.4108 17.0023 -43.4451C16.7059 -48.3806 17.0023 -53.4148 16.8047 -58.3503C16.5084 -63.8781 16.8047 -69.5046 16.6071 -75.0324C16.3108 -79.9679 16.6071 -84.8047 16.4096 -89.6415C16.1133 -94.577 16.4096 -99.6112 16.212 -104.547C15.8169 -111.95 16.2121 -119.452 16.0145 -126.855C16.0145 -127.744 15.7182 -128.731 16.0145 -129.619H19.0765C19.0765 -129.027 19.0765 -128.435 19.3728 -127.842C19.3728 -127.25 19.3728 -126.658 19.3728 -126.066C19.8667 -92.3067 20.2618 -58.6464 20.7557 -24.8875C20.8545 -16.201 20.7557 -7.61322 21.052 1.07329C21.5459 21.3089 21.7435 41.5445 21.941 61.7801C22.1386 77.9686 22.4349 94.2558 22.6324 110.444C22.9287 131.47 23.2251 152.495 23.6202 173.52C23.8177 189.116 24.1141 204.811 24.4104 220.408C24.4104 221.098 24.3116 221.493 23.719 221.888C22.3361 222.777 21.2496 224.06 19.6691 224.751L18.879 224.455Z" fill="#FCFCFC"/>
<path d="M200.823 98.3024C196.872 99.783 192.921 101.56 188.872 102.646C188.378 102.744 187.884 103.04 187.39 102.942C186.6 102.843 185.81 102.448 185.415 101.757C185.118 101.362 185.81 100.77 186.106 100.277C186.501 99.5856 186.995 98.8946 187.291 98.105C187.39 97.8088 187.785 97.414 187.39 97.1179C186.896 96.8217 186.699 97.3153 186.501 97.6114C185.81 98.4998 185.118 99.4869 184.624 100.474C184.229 101.066 184.032 101.066 183.439 100.77C177.908 97.8088 177.71 97.8088 172.08 100.474C171.487 100.77 170.993 100.968 170.203 101.362C170.203 98.4011 170.203 95.6372 170.203 92.8733C170.203 92.4785 170.401 92.281 170.697 92.1823C175.932 88.9249 181.167 85.6675 186.501 82.7062C187.094 82.41 187.588 82.2126 188.279 82.41C190.156 82.8049 191.736 82.41 193.218 81.0281C195.391 79.1526 197.564 77.2771 199.934 75.599C200.231 75.4016 200.527 75.2042 200.823 75.1055V98.3024Z" fill="#98CAD2"/>
<path d="M21.6451 -47.395C21.6451 -51.3434 21.4476 -55.1931 21.4476 -59.1415C21.4476 -64.077 21.3488 -69.0126 21.25 -73.9481C21.25 -74.639 21.4475 -74.9352 22.1389 -75.2313C27.8679 -77.6003 33.7944 -78.5874 40.0172 -77.9952C43.2768 -77.6991 46.3389 -76.5145 49.3021 -75.0339C51.9691 -73.7506 54.5373 -72.4674 57.4018 -71.8751C62.6369 -70.6906 67.6743 -71.3816 72.6131 -73.3558C76.4653 -75.0339 80.4164 -76.712 84.565 -77.4029C90.9854 -78.39 97.3069 -78.0939 103.233 -74.9352C103.826 -74.639 104.419 -74.3429 105.011 -74.0468C109.456 -71.3816 114.099 -70.9868 119.037 -72.7635C121.21 -73.5532 123.482 -74.1455 125.655 -74.7377C129.211 -75.7249 132.57 -75.0339 135.928 -73.9481C137.509 -73.4545 139.089 -73.0597 140.768 -72.8623C141.657 -72.7635 142.447 -73.0597 143.336 -73.1584C144.028 -73.1584 144.324 -73.1584 144.324 -72.27C144.324 -69.21 144.324 -66.15 144.423 -62.9912C144.522 -49.9615 144.719 -36.833 144.818 -23.8032C144.818 -23.211 144.818 -22.8161 144.126 -22.6187C143.534 -22.4213 143.237 -21.829 143.04 -21.3355C137.41 -11.6619 131.779 -1.88956 126.248 7.88275C122.89 13.7067 119.63 19.5306 116.371 25.2558C116.173 25.5519 116.074 25.7493 115.877 26.0454C116.469 26.3416 116.568 25.7493 116.667 25.4532C117.556 24.0712 118.445 22.5906 119.334 21.2086C128.026 8.17889 136.027 -5.34442 143.929 -18.769C144.126 -19.1639 144.423 -19.5587 144.917 -19.8548C144.917 -19.5587 144.917 -19.1639 144.917 -18.8677C144.917 -11.1683 145.114 -3.56764 145.213 4.13176C145.213 4.62531 145.41 5.21758 144.521 5.21758C144.126 5.21758 143.929 5.71113 143.731 6.00726C139.583 13.4105 135.039 20.6164 130.495 27.8222C130.298 28.1184 130.002 28.4145 130.002 29.0067C135.632 22.1957 140.57 14.8912 145.213 7.3892C145.41 21.4061 145.509 35.5216 145.707 49.6372C145.509 49.6372 145.411 49.6372 145.312 49.6372C142.25 47.1694 139.089 44.9978 135.928 42.7275C134.842 41.9378 133.755 41.0494 132.767 40.0623C131.681 38.9765 130.989 38.9765 129.804 40.0623C128.421 41.4443 127.532 43.0236 126.643 44.7017C126.051 45.7875 125.359 46.5772 124.371 47.1694C118.84 50.723 113.901 54.9676 109.16 59.4095C106.295 62.0747 103.431 64.6412 100.27 66.9115C95.8253 70.0702 91.973 73.9199 87.8245 77.4735C86.738 78.4606 85.9478 79.7438 85.3551 81.0271C84.96 81.9155 84.4662 82.8039 84.0711 83.6923C83.7748 83.4948 83.4784 83.1987 83.2808 83.0013C80.0213 79.6451 76.1691 77.3748 71.7242 75.7954C65.205 73.5251 58.4883 73.0315 51.6728 73.9199C44.8573 74.8083 38.5356 77.0787 32.6091 80.7309C29.4483 82.6064 26.8802 85.1729 24.2133 87.5419C24.1145 80.6322 24.2132 73.8212 23.8181 67.0102C23.7194 63.7528 24.0157 60.9889 26.2875 58.4224C27.7691 56.7443 28.7569 54.5727 29.9422 52.5985C30.2385 52.2037 30.6336 51.6114 29.9422 51.1179C29.3496 50.723 28.9544 51.3153 28.6581 51.7101C27.0777 53.8817 25.5961 56.1521 24.4108 58.6198C24.2133 58.916 24.1145 59.3108 23.7194 59.6069C23.7194 57.9289 23.7194 56.3495 23.7194 54.6714C23.7194 54.474 23.7194 54.1779 23.9169 53.9805C27.1765 50.1308 29.4483 45.6888 32.1152 41.4442C35.3748 36.41 38.5357 31.3758 41.7952 26.3416C42.1903 25.7493 42.5854 25.0583 42.8817 24.3674C43.0793 23.9725 43.0793 23.5777 42.6842 23.3803C42.2891 23.1828 41.9928 23.3803 41.7952 23.6764C41.4001 24.17 41.1038 24.6635 40.8075 25.1571C35.0785 33.4487 29.8434 42.0365 24.5096 50.6243C24.312 50.9204 24.2132 51.1179 24.0157 51.414C23.6206 51.2166 23.8181 50.8217 23.8181 50.6243C23.7194 44.603 23.5218 38.5817 23.4231 32.5603C23.2255 21.2086 23.0279 9.75824 22.8304 -1.59344C22.8304 -1.88957 22.8304 -2.18569 22.8304 -2.38311C28.4606 -2.2844 34.0908 -2.38312 39.721 -2.28441C47.9193 -2.1857 56.0188 -1.79086 64.2172 -1.79086C81.009 -1.79086 97.8008 -1.19859 114.494 -2.18569C118.247 -2.38311 122.001 -2.48182 125.655 -2.67924C127.335 -2.67924 129.014 -2.97537 130.693 -3.17279C131.582 -3.17279 131.878 -3.56764 131.286 -4.45603C130.397 -5.73926 129.606 -7.0225 128.717 -8.20702C125.458 -12.1554 121.408 -14.1296 116.272 -13.1425C115.383 -12.9451 114.79 -13.1425 114.494 -14.2284C113.704 -17.6832 111.234 -18.8677 107.975 -17.6832C106.295 -17.0909 104.913 -16.1038 103.431 -15.2154C103.431 -15.6103 103.431 -16.1038 103.431 -16.4987C103.925 -18.3742 103.826 -20.3484 103.431 -22.2239C102.048 -29.5284 97.2082 -33.2794 89.9976 -33.8717C85.7503 -34.2665 81.7004 -33.082 77.947 -31.2065C76.2678 -30.3181 74.7862 -29.2323 73.2058 -28.2452C73.2058 -28.64 73.2058 -29.0349 73.3046 -29.4297C73.6997 -31.2065 73.9959 -33.082 74.0947 -34.8588C74.391 -39.7943 73.5021 -44.5324 71.4278 -48.9744C69.2548 -53.7125 66.0939 -57.3647 61.1552 -59.3389C56.9078 -61.017 52.4629 -61.6093 47.8205 -61.2144C43.1781 -60.8196 38.7332 -59.5364 34.5846 -57.5622C29.5471 -55.1931 25.201 -51.837 21.7439 -47.395H21.6451Z" fill="#AFE8F9"/>
<path d="M83.2802 227.81C89.9969 217.84 96.8124 207.871 103.529 197.901C103.825 197.407 104.221 197.012 104.319 196.42C104.319 196.223 104.319 196.025 104.221 195.927C104.023 195.828 103.825 195.927 103.628 195.927C103.134 196.223 102.838 196.716 102.541 197.111C97.2075 203.922 92.6639 211.227 87.7251 218.334C85.552 221.394 83.2803 224.355 81.6011 227.711C80.317 227.514 79.1317 227.415 77.8476 227.218C74.9831 226.823 72.0198 226.428 69.1553 226.132C66.7847 225.836 64.3154 225.638 61.9448 225.342C60.7595 223.171 58.8827 222.085 56.6109 221.295C51.277 219.42 45.6468 218.63 40.0166 218.038C35.7693 217.544 31.4232 217.544 27.1758 217.347C26.7807 217.347 26.2869 217.643 26.1881 217.051C26.0894 216.557 26.0894 216.063 26.3857 215.57C30.9294 209.647 34.5841 203.231 39.1277 197.309C39.9179 196.223 40.708 195.137 41.4982 194.051C41.7946 193.656 42.3873 193.064 41.6959 192.669C41.1032 192.176 40.7081 192.965 40.4117 193.36C36.0656 198.69 31.9171 204.12 28.2624 209.943C27.6698 210.931 26.9783 212.016 26.2869 213.003C26.1881 213.003 26.0894 213.003 25.8918 213.003C25.8918 211.72 25.8918 210.338 25.8918 209.055C25.6943 197.111 25.5955 185.266 25.3979 173.322C25.2992 166.017 25.2003 158.713 25.1016 151.408C25.1016 150.619 25.2991 150.224 25.9906 149.829C28.6575 148.151 31.4233 149.039 34.189 149.533C35.6706 149.73 37.0534 150.026 38.4362 150.322C40.0166 150.717 41.4983 150.52 43.0787 149.829C50.5857 146.67 58.3889 144.893 66.2909 143.018C70.637 142.031 74.8843 141.044 79.3292 140.55C81.4035 140.353 83.4777 140.451 85.3545 141.241C87.0336 141.932 88.7129 141.932 90.4909 141.438C95.2321 139.958 99.5781 137.589 104.023 135.615C110.542 132.653 117.16 129.791 123.679 126.829C125.655 125.941 127.433 125.941 129.309 126.829C131.878 128.113 134.545 129.1 137.014 130.383C139.681 131.765 142.447 132.16 145.311 132.357C146.2 132.357 146.496 132.555 146.496 133.542C146.694 157.528 146.99 181.416 147.287 205.403C147.385 215.076 147.484 224.75 147.682 234.424C147.682 234.917 147.682 235.411 147.682 236.003C145.015 235.707 142.348 235.312 139.582 235.016C136.026 234.621 132.47 234.226 128.914 233.733C125.358 233.338 121.803 232.844 118.345 232.351C114.197 231.857 110.048 231.364 105.9 230.87C101.554 230.376 97.2075 229.883 92.8614 229.192C91.9724 229.093 90.9847 229.291 90.0957 228.698C90.9847 227.218 91.9724 225.638 92.8614 224.158C93.0589 223.763 93.2566 223.368 93.4541 222.874C93.4541 222.578 93.454 222.282 93.2565 222.184C92.9602 222.085 92.6639 222.085 92.4664 222.282C92.0713 222.677 91.7749 223.072 91.4786 223.467C90.2933 225.145 89.1079 226.922 87.9226 228.6C86.3422 228.402 84.7618 228.402 83.2802 227.909V227.81ZM26.1881 205.107C27.9661 203.527 29.1513 201.849 30.1391 200.072C37.0533 188.326 44.5603 176.875 52.6599 165.82C52.8574 165.524 53.055 165.228 53.2525 164.932C53.3513 164.734 53.5488 164.438 53.2525 164.142C52.9562 163.944 52.7587 164.043 52.4624 164.142C52.0673 164.537 51.6721 165.03 51.277 165.425C45.8444 172.236 41.0044 179.442 36.2632 186.747C33.0036 191.879 29.8428 197.012 26.9783 202.343C26.5832 203.034 26.1881 203.725 26.1881 204.909V205.107Z" fill="#98CAD3"/>
<path d="M146.398 131.172C145.213 130.876 144.126 130.679 142.941 130.679C141.459 130.679 140.076 130.185 138.792 129.593C135.73 128.112 132.57 126.73 129.409 125.348C127.532 124.46 125.754 124.46 123.779 125.348C114.296 129.395 105.011 133.739 95.6277 137.983C93.5534 138.872 91.4791 139.76 89.306 140.352C88.5158 140.55 87.7256 140.747 86.9354 140.352C83.0832 138.576 79.1321 138.97 75.0824 139.76C65.1061 141.636 55.3274 143.906 45.7461 147.262C45.2523 147.459 44.6596 147.558 44.1658 147.854C41.6964 149.335 39.2269 149.137 36.56 148.545C34.4857 148.052 32.4115 147.854 30.436 147.459C28.7568 147.163 27.1764 147.459 25.6948 148.348C25.1021 148.743 24.9046 148.545 24.9046 147.854C24.9046 141.537 24.8058 135.219 24.707 128.902C24.707 128.408 24.707 127.915 25.3985 128.112C30.436 129.297 35.3747 128.507 40.3135 127.421C43.8694 126.632 47.5241 126.632 51.08 126.237C53.747 125.941 56.5126 125.546 59.1796 125.25C60.8587 125.052 62.044 124.164 63.2293 122.979C67.3779 119.031 71.4277 114.984 75.5762 111.035C77.453 109.16 79.5273 107.482 81.6016 105.902C82.8857 104.915 84.2685 104.52 85.8489 104.52C92.0717 104.52 98.2946 104.619 104.419 104.619C105.999 104.619 107.678 104.422 109.259 104.027C110.246 103.829 110.938 103.336 111.629 102.546C115.481 98.0056 119.63 93.8597 123.779 89.5165C124.766 88.4307 125.754 87.641 127.236 87.1474C130.495 86.0616 133.557 84.4823 136.718 83.1003C138.2 82.508 139.681 81.9158 141.064 81.3235C142.447 80.7313 143.731 80.83 145.114 81.1261C145.707 81.2248 145.904 81.5209 145.904 82.2119C145.904 90.8984 146.102 99.4862 146.201 108.173C146.201 108.568 146.102 108.864 145.707 109.16C144.818 109.752 144.027 110.443 143.237 111.233C142.151 112.417 140.867 112.713 139.286 112.615C137.014 112.417 134.743 112.516 132.57 112.417C127.532 112.22 122.89 113.404 118.741 116.267C117.951 116.761 117.161 117.254 116.469 117.649C116.074 117.945 115.383 118.142 115.679 118.735C115.975 119.426 116.568 119.031 117.062 118.932C118.84 118.439 120.717 118.044 122.593 117.748C126.149 117.057 129.606 117.254 133.064 118.537C134.545 119.031 135.928 119.524 137.41 120.117C140.077 121.301 142.941 121.4 145.707 120.906C146.398 120.808 146.299 121.104 146.299 121.499C146.299 124.657 146.299 127.816 146.299 131.074L146.398 131.172Z" fill="#FDFDFD"/>
<path d="M145.906 70.2691C145.906 73.033 145.906 75.8956 145.906 78.6595C145.906 79.5479 145.906 79.9427 144.82 79.5479C143.536 79.0543 142.251 79.2517 140.967 79.844C136.226 81.9169 131.386 83.9898 126.645 86.0627C124.867 86.8524 123.287 87.8395 122.002 89.3202C118.249 93.3673 114.397 97.217 110.742 101.363C109.656 102.646 108.174 102.745 106.692 103.041C104.914 103.337 103.038 103.337 101.26 103.238C96.1234 103.238 90.8883 103.238 85.752 103.041C83.9741 103.041 82.3936 103.534 81.0108 104.522C77.3561 107.285 74.0966 110.444 70.837 113.603C68.1701 116.169 65.4044 118.736 62.8362 121.401C61.2558 122.98 59.5766 123.869 57.4036 124.066C52.6624 124.56 47.9211 125.053 43.1799 125.547C40.8093 125.744 38.4386 126.337 36.068 126.83C33.1048 127.422 30.2404 127.422 27.2771 126.83C26.7833 126.83 26.2894 126.633 25.8943 126.83C24.9065 127.225 24.6101 126.83 24.6101 125.843C24.6101 124.461 24.1162 122.783 24.6101 121.598C25.104 120.513 26.5856 119.92 27.6721 119.032C33.4999 113.8 39.4264 108.766 45.8468 104.225C46.0444 104.127 46.2419 103.929 46.4394 103.831C50.0941 100.869 54.2427 99.4873 59.0827 99.9809C62.7374 100.376 66.0958 99.4873 69.3554 97.908C73.01 96.2299 76.6648 94.5518 80.1219 92.4789C81.6035 91.5905 82.69 90.406 83.3814 88.8266C84.5667 86.2602 85.7521 83.6937 87.1349 81.2259C87.7276 80.2388 88.4189 79.3505 89.3079 78.5608C93.2589 74.9085 96.9137 70.9601 101.359 67.9001C105.31 65.1362 109.359 62.3723 113.804 60.4968C115.78 59.6084 117.953 59.411 120.126 59.2135C120.916 59.2135 121.311 59.5097 121.212 60.2994C121.212 61.2865 121.212 62.1749 121.212 63.162C121.212 64.4452 121.805 64.7413 122.99 64.4452C126.645 63.5568 130.3 62.8658 133.856 61.78C134.547 61.5826 134.942 61.78 135.436 62.2736C136.029 62.9645 136.621 63.7542 137.313 64.4452C138.202 65.3336 138.794 65.2349 139.486 64.1491C140.572 62.3723 140.869 60.3981 141.264 58.4239C141.461 57.338 141.758 57.5355 142.449 58.029C144.622 59.6084 146.005 61.3852 145.61 64.3465C145.313 66.3207 145.61 68.3936 145.61 70.3678H145.709L145.906 70.2691Z" fill="#98CAD2"/>
<path d="M24.0179 87.6406C26.6848 85.2716 29.3517 82.7051 32.4138 80.8296C38.3403 77.276 44.662 75.0057 51.4774 74.0186C58.3917 73.1302 65.0096 73.6237 71.5287 75.8941C75.8749 77.4734 79.8259 79.6451 83.0855 83.0999C83.2831 83.3961 83.5793 83.5935 83.8757 83.7909C83.283 85.6664 82.394 87.5419 81.505 89.3187C81.2087 89.8122 80.8136 90.2071 80.3198 90.5032C75.6773 93.3658 70.8373 95.8336 65.701 97.5116C63.3304 98.3013 60.8611 98.2026 58.3917 97.9065C54.3419 97.5116 50.7859 98.4 47.4276 100.67C40.7108 105.211 34.6856 110.443 28.5615 115.674C27.2774 116.76 25.9934 117.945 24.6105 119.03C24.2154 118.734 24.3142 118.34 24.3142 118.043C24.1166 108.074 24.0179 98.1039 23.8203 88.1342C23.8203 87.9367 23.8203 87.7393 23.8203 87.5419L24.0179 87.6406Z" fill="#FDFDFD"/>
<path d="M111.336 59.5087C115.88 55.7577 120.127 51.8093 125.066 48.6505C126.251 47.8609 127.239 46.8737 127.93 45.5905C128.622 44.1099 129.511 42.7279 130.696 41.4447C130.992 41.1486 131.19 40.7537 131.782 41.1486C135.635 44.5047 140.08 47.0712 144.031 50.3286C145.216 51.3157 146.006 52.3028 145.809 53.9809C145.611 55.4615 145.809 56.8435 145.809 58.5216C144.821 57.6332 143.932 56.8435 143.043 56.0538C141.759 54.968 140.87 55.1654 140.376 56.8435C139.882 58.5216 139.586 60.2983 139.191 62.0751C139.092 62.5687 138.894 62.9635 138.697 63.4571C137.808 62.8648 137.413 62.0751 136.919 61.3842C136.129 60.1996 135.141 59.9035 133.857 60.2984C130.696 61.1867 127.535 62.0751 124.275 62.7661C123.485 62.9635 123.09 62.8648 123.189 61.9764C123.189 61.2855 123.189 60.5945 123.189 60.0022C123.189 58.3241 122.399 57.6332 120.72 57.6332C117.559 57.7319 114.497 58.4229 111.632 59.8048C111.632 59.8048 111.533 59.7061 111.435 59.6074L111.336 59.5087Z" fill="#FCFCFC"/>
<path d="M111.531 59.7063C111.334 60.0024 111.136 60.0024 110.84 59.7063C111.037 59.7063 111.136 59.5089 111.334 59.4102C111.334 59.4102 111.432 59.5089 111.531 59.6076V59.7063Z" fill="#FCFCFC"/>
<path d="M186.899 79.9422C181.17 83.1997 175.737 86.6545 170.206 90.1094C169.909 84.5816 170.008 79.1525 170.008 73.9209C175.737 75.6977 181.071 78.2642 186.899 79.9422Z" fill="#FCFCFC"/>
<path d="M180.378 75.7963C177.612 74.8092 174.945 73.822 172.18 72.7362C171.39 72.4401 170.303 72.7362 170.007 71.9465C169.71 71.2556 170.007 70.3672 170.007 69.5775C170.007 68.5904 170.007 67.6033 170.007 66.6162C170.007 65.8265 170.303 65.7278 170.994 65.8265C172.081 65.9252 173.069 66.0239 174.155 66.0239C176.032 66.1226 177.81 66.6162 179.291 67.8007C183.638 71.1569 187.984 74.513 192.429 77.6717C192.824 77.9679 193.219 78.264 192.429 78.5601C188.576 77.573 184.724 76.4872 180.773 75.5001C180.773 75.5001 180.576 75.5988 180.477 75.6975L180.378 75.7963Z" fill="#AFE8F9"/>
<path d="M170.5 125.349C170.5 123.474 170.5 121.598 170.5 119.723C170.5 117.156 170.5 114.688 170.5 112.122C170.5 111.53 170.599 111.135 171.191 110.839C172.673 110.148 174.155 109.457 175.834 109.062C176.229 109.062 176.624 108.864 177.019 108.963C178.797 109.062 179.093 109.654 178.303 111.135C175.933 115.675 173.463 120.315 171.093 124.856C170.994 125.053 170.895 125.25 170.796 125.448C170.796 125.448 170.698 125.448 170.599 125.448L170.5 125.349Z" fill="#98CAD2"/>
<path d="M180.379 75.7961C180.379 75.7961 180.576 75.5986 180.675 75.5986C184.527 76.5857 188.38 77.5728 192.331 78.6586C192.034 79.1522 191.54 79.4483 191.047 79.7445C190.651 80.0406 189.96 81.0277 189.861 79.4483C189.861 78.8561 189.17 78.8561 188.676 78.6586C186.207 77.9677 183.737 77.178 181.367 76.2896C181.07 76.1909 180.774 75.9935 180.478 75.7961H180.379Z" fill="#98CAD2"/>
<path d="M26.1875 205.108C26.1875 203.923 26.5826 203.232 26.9777 202.541C29.8422 197.211 33.003 191.979 36.2626 186.945C41.0038 179.64 45.8437 172.434 51.2764 165.623C51.6715 165.13 52.0667 164.735 52.4618 164.34C52.6593 164.143 52.9556 164.044 53.2519 164.34C53.5482 164.538 53.4494 164.834 53.2519 165.13C53.0543 165.426 52.8568 165.722 52.6593 166.018C44.6585 177.074 37.1515 188.524 30.1384 200.271C29.1507 202.048 27.9655 203.726 26.1875 205.305V205.108Z" fill="#070707"/>
</g>
</g>
<defs>
<filter id="filter0_d_2558_4550" x="1" y="1" width="185" height="185" filterUnits="userSpaceOnUse" color-interpolation-filters="sRGB">
<feFlood flood-opacity="0" result="BackgroundImageFix"/>
<feColorMatrix in="SourceAlpha" type="matrix" values="0 0 0 0 0 0 0 0 0 0 0 0 0 0 0 0 0 0 127 0" result="hardAlpha"/>
<feOffset dx="-5" dy="5"/>
<feComposite in2="hardAlpha" operator="out"/>
<feColorMatrix type="matrix" values="0 0 0 0 0 0 0 0 0 0 0 0 0 0 0 0 0 0 1 0"/>
<feBlend mode="normal" in2="BackgroundImageFix" result="effect1_dropShadow_2558_4550"/>
<feBlend mode="normal" in="SourceGraphic" in2="effect1_dropShadow_2558_4550" result="shape"/>
</filter>
</defs>
</svg>
