<svg id="Layer_2" data-name="Layer 2" xmlns="http://www.w3.org/2000/svg" viewBox="0 0 192.61 216.34"><defs><linearGradient id="_Безымянный_градиент_6" data-name="Безымянный градиент 6" x1=".25" y1="118.18" x2="191.23" y2="118.18" gradientUnits="userSpaceOnUse"><stop offset="0" stop-color="#a25a9f"/><stop offset=".65" stop-color="#693068"/><stop offset="1" stop-color="#501d50"/></linearGradient><linearGradient id="_Безымянный_градиент_17" data-name="Безымянный градиент 17" x1="66.34" y1="99.96" x2="66.34" y2="2.19" gradientUnits="userSpaceOnUse"><stop offset="0" stop-color="#ffed00"/><stop offset=".19" stop-color="#fee801"/><stop offset=".39" stop-color="#fcdc07"/><stop offset=".6" stop-color="#f8c710"/><stop offset=".81" stop-color="#f3aa1d"/><stop offset="1" stop-color="#ee882c"/></linearGradient><style>.cls-1{fill:#000}.cls-1,.cls-2,.cls-5{stroke-width:0}.cls-2{fill:#f4c6cc}.cls-5{fill:#fff}</style></defs><g id="_Наведение" data-name="Наведение"><g id="_2" data-name="2"><path d="M191.23 118.18c0 52.74-42.75 95.49-95.49 95.49-14.05 0-27.38-3.03-39.4-8.48a94.58 94.58 0 0 1-18.78-11.29h-.02c-1.42-1.1-2.8-2.24-4.15-3.4a95.796 95.796 0 0 1-20.47-24.76C4.86 151.74.25 135.5.25 118.18.25 65.44 43 22.69 95.74 22.69c39.82 0 73.95 24.38 88.28 59.03 4.64 11.24 7.21 23.55 7.21 36.47z" style="fill:url(#_Безымянный_градиент_6);stroke-width:0"/><path class="cls-1" d="M192.6 118.18c-.11-6.34-.82-12.66-2.15-18.84a100.47 100.47 0 0 0-5.7-18.03 100.025 100.025 0 0 0-20.92-31.23c-4.42-4.48-9.27-8.57-14.47-12.15a96.092 96.092 0 0 0-16.54-9.27 96.675 96.675 0 0 0-37.08-8.05c-.96 0-1.93 0-2.89.01-.6.01-1.21.03-1.81.06-3.58.13-7.16.47-10.7 1.02-.57.08-1.13.17-1.69.27-.59.1-1.18.21-1.77.33-.55.1-1.1.21-1.64.33-.41.08-.82.17-1.23.26-.6.14-1.21.28-1.81.43-.31.07-.61.15-.91.23-.5.13-1 .26-1.5.4a90.337 90.337 0 0 0-11.43 3.97c-1.48.6-2.91 1.32-4.37 1.97-.54.25-1.07.52-1.59.8-.45.22-.89.45-1.33.69-.45.23-.9.47-1.35.7-1.4.77-2.75 1.62-4.13 2.43-.35.22-.71.45-1.06.67l-1.62 1.08-1.32.87c-5.26 3.61-10.09 7.83-14.47 12.42-8.79 9.19-15.62 20.12-20.2 31.84-2.26 5.87-4.05 11.92-5.17 18.09-1.17 6.17-1.78 12.43-1.75 18.7-.04 6.27.56 12.54 1.71 18.7 1.12 6.18 2.9 12.23 5.16 18.11 4.59 11.72 11.41 22.65 20.18 31.88 8.75 9.23 19.41 16.76 31.22 21.77 11.78 5.08 24.63 7.6 37.47 7.7 10.86-.01 21.75-1.79 32.01-5.39.49-.16.98-.34 1.46-.52 1.37-.5 2.73-1.04 4.07-1.61 11.32-4.77 21.69-11.7 30.44-20.26.27-.26.54-.52.8-.79.14-.13.27-.27.4-.4 9.02-9.11 16.14-20.03 20.88-31.88 4.8-11.84 7-24.64 6.8-37.31zm-2.74 0a94.48 94.48 0 0 1-2.14 18.3c-1.31 6-3.18 11.86-5.58 17.49-4.8 11.18-11.79 21.36-20.38 29.91l-.16.16c-.29.29-.59.58-.89.85a93.406 93.406 0 0 1-29.42 19.12 109.9 109.9 0 0 1-4.39 1.65c-.56.2-1.12.39-1.68.57a95.115 95.115 0 0 1-11.37 3c-5.96 1.18-12.03 1.74-18.11 1.77-6.08.03-12.16-.52-18.14-1.67-5.97-1.15-11.82-2.9-17.49-5.14-1.42-.55-2.79-1.21-4.2-1.8-1.39-.62-2.73-1.34-4.11-2.01-1.36-.68-2.68-1.45-4.02-2.18-1.33-.75-2.61-1.58-3.92-2.37-5.14-3.31-10.02-7.06-14.48-11.29-8.91-8.46-16.26-18.7-21.24-30.07-2.53-5.68-4.39-11.65-5.7-17.73C1.16 130.65.55 124.41.5 118.18c.04-6.23.64-12.47 1.91-18.56 1.31-6.09 3.16-12.07 5.69-17.74 4.98-11.38 12.33-21.63 21.22-30.11 4.28-4.07 8.96-7.7 13.87-10.94.2-.14.4-.27.6-.4.33-.2.67-.41 1-.61.97-.61 1.93-1.21 2.92-1.78 1.34-.73 2.66-1.51 4.02-2.2 1.37-.67 2.71-1.4 4.1-2.03 1.41-.61 2.78-1.27 4.2-1.83.21-.08.42-.17.63-.25.53-.21 1.07-.42 1.6-.61a97.775 97.775 0 0 1 15.28-4.42c4.65-.91 9.38-1.54 14.13-1.79.6-.04 1.2-.07 1.8-.09.75-.03 1.51-.04 2.27-.05 12.23-.19 24.54 1.95 36.01 6.46a94.947 94.947 0 0 1 16.47 8.4 92.227 92.227 0 0 1 14.47 11.6c8.81 8.72 15.86 19.24 20.5 30.73 4.69 11.48 6.84 23.91 6.67 36.22z"/><g><path class="cls-2" d="M59.54 98.31c.2.54.39 1.09.59 1.63.18.49-.02 1.3.72 1.32.36 0 .77-.54 1.07-.9.42-.49.74-1.09 1.65-1.16-.07 3.47 1.44 6.18 3.91 8.4 2.55 2.29 5.53 2.84 8.84 1.99.36 1.16-.26 2.06-.52 3-.51 1.86-1.55 3.42-3 4.68-2.45 2.14-5.64 2.08-7.99-.16-1.59-1.51-2.56-3.4-3.2-5.46-1.06-3.4-1.72-6.89-2.19-10.42-.12-.94-.23-1.89-.35-2.83.15-.03.31-.05.46-.08z"/><path class="cls-2" d="M53.47 100.18c.14.01.22 0 .24.02 1.43 1.61 1.54 1.6 2.83-.22.43-.61.9-1.19 1.58-2.09.07.78.13 1.2.14 1.62.11 3.82.59 7.59 1.59 11.29.85 3.15 2.19 6 4.79 8.14-2.24 1.24-4.98.71-6.4-1.24s-2.29-4.17-3.03-6.46c-1.16-3.6-1.37-7.34-1.74-11.07z"/><path class="cls-5" d="m164.52 187.77-1 .56L128.16 208l-1.56.87c-.45-.88-.92-1.76-1.38-2.64-3.05-5.75-6.25-11.42-9.67-16.97-.29-.48-.53-.88-1.2-1.02-6.29-1.29-11.59-4.51-16.41-8.62-5.22-4.47-8.77-10.11-11.27-16.43-.42-1.06-.82-2.11-1.22-3.17-1.21-3.17-2.35-6.36-3.5-9.54-.58-1.6-1.3-3.04-2.47-4.32-2.32-2.53-3.96-5.53-5.4-8.62-.71-1.52-1.41-3.05-2.07-4.59-.32-.74-.85-1.03-1.64-1.12-5.59-.61-10.24-3.18-14.17-7.08-2.67-2.65-3.22-6.27-1.67-9.71.29-.63.46-1.16.19-1.86-1.39-3.6-1.89-7.37-2.02-11.2-.03-.71-.04-1.42-.07-2.13-.04-.75-.4-1.37-.92-1.74l1.04-.95 11.21-10.28 12.48-11.43 14.9-5.31 1.81-.65c-.03.37-.07.73-.1 1.09-.01.1.04.2.09.4.57.18 1.18.38 1.8.58 4.56 1.48 8.86 3.56 13.06 5.82 6.58 3.56 12.92 7.52 18.86 12.07 1.45 1.11 2.83 2.32 4.22 3.51 2.89 2.46 4.65 5.62 5.5 9.28 1.51 6.48 2.8 13 3.71 19.59 1.69 12.24 3.76 24.42 8.26 36 3.52 9.05 7.5 17.9 13.11 25.91.03.05.07.09.1.14.91 1.31 1.84 2.59 2.76 3.89z"/><path class="cls-2" d="M98.64 167.74c-4.42-2.51-8.85-5.04-13.19-7.72-.18-.46-.35-.93-.53-1.39-1.01-2.71-1.99-5.43-2.97-8.15-.58-1.6-1.3-3.04-2.47-4.32-2.32-2.53-3.96-5.53-5.4-8.62-.71-1.52-1.41-3.05-2.07-4.59-.32-.74-.85-1.03-1.64-1.12-5.59-.61-10.24-3.18-14.17-7.08-2.67-2.65-3.22-6.27-1.67-9.71.29-.63.46-1.16.19-1.86-1.39-3.6-1.89-7.37-2.02-11.2-.03-.71-.04-1.42-.07-2.13v-.06c-.05-.72-.4-1.32-.91-1.68l1.04-.95 11.21-10.28 11.99 11.76a58.421 58.421 0 0 0 8.67 19.75c1.61 2.34 3.42 4.62 4.31 7.32 1.03 3.09.78 6.44.5 9.69-.42 5.04-.87 10.18.23 15.13 1.41 6.36 5.23 11.88 8.98 17.21z"/><path class="cls-5" d="M84.99 158.57s-.04.05-.07.06c-1.01-2.71-1.99-5.43-2.97-8.15-.58-1.6-1.3-3.04-2.47-4.32-2.32-2.53-3.96-5.53-5.4-8.62-.71-1.52-1.41-3.05-2.07-4.59-.32-.74-.85-1.03-1.64-1.12-5.59-.61-10.24-3.18-14.17-7.08-2.67-2.65-3.22-6.27-1.67-9.71.29-.63.46-1.16.19-1.86-1.39-3.6-1.89-7.37-2.02-11.2-.03-.71-.04-1.42-.07-2.13v-.06c.25-.31.51-.61.77-.91l2.03 2.02c-.08 3.9-.14 7.91 1.17 11.59 1.31 3.68 4.32 7.02 8.18 7.57-2.4.99-5.04 1.41-7.63 1.2 2.48 3.24 6.14 5.55 10.14 6.37 1.8.38 3.72.48 5.32 1.39 1.62.93 2.69 2.55 3.7 4.12 4.47 6.95 9.07 14.33 9.41 22.58.04 1-.02 2.11-.72 2.85z"/><path class="cls-2" d="M119.05 83.94c.39 1.42.6 2.88.58 4.36-.01 1.38-.23 2.81-1 3.94-1.12 1.64-3.13 2.36-4.81 3.4a12.736 12.736 0 0 0-4.95 5.79c4.61-1.46 9.83-.92 14.04 1.48-2.71.64-5.09 2.57-6.29 5.08-1.19 2.52-1.18 5.58.03 8.09l-10.14-15.22A103.63 103.63 0 0 0 91.4 85.41c-.61-.51-1.27-1.07-1.45-1.85-.1-.44-.04-.9.03-1.34.6-4.02 1.2-8.04 1.79-12.06.01-.06.02-.12.03-.19l27.25 13.97z"/><path d="M92.14 30.26c-.1-1.79-.26-3.58-.47-5.35-.18-1.42-.39-2.83-.63-4.23-.67-3.94-1.59-7.82-2.68-11.67-.32-1.12-.72-2.21-1.11-3.3-.12-.35-.25-.7-.37-1.05-.7.45-1.23 1-1.8 1.07-.56.06-1.16-.39-1.78-.63-1.64 1.42-2.2 1.3-4.13-1.03-.85.93-1.7 1.89-3.12 1.87-1.47-.03-2.2-1.09-3-2.2-.89 1.2-1.91 1.9-3.39 1.84-1.53-.07-2.33-1.22-3.31-2.2-.91 1.26-1.89 2.19-3.4 2.28-1.6.09-2.38-1.08-3.12-2.22-3 2.25-4.13 2.14-6.45-.58-2.73 2.88-4.31 2.9-6.94-.67-.72 1.11-1.56 2-2.97 2.11-1.32.11-2.36-.58-3.65-1.28.4 1.25.74 2.25 1.03 3.26 1.45 4.95 2.21 10.03 2.65 15.13.4 4.59.74 9.18 1.02 13.77.11 1.55.2 3.1.27 4.64.08 1.26.14 2.53.2 3.79.39 8.33.23 16.66-.45 24.98-.75 9.08-2.37 18.01-4.49 26.86-.09.38-.13.77-.23 1.34 1.29-.7 2.46-1.15 3.75-.6 1.29.56 1.69 1.92 2.49 2.99.28-.33.47-.56.67-.79 1.94-2.21 4.03-2.63 6.02-1.23.45.31.9.72 1.34 1.23.32.37.64.73 1.02 1.16.58-.73 1.04-1.4 1.6-1.98 1.33-1.4 2.86-1.29 3.98.26.23.32.44.65.53.79.85-.29 1.53-.67 2.24-.73 1.35-.12 2.15.93 2.94 1.79 2.1-1.52 2.52-1.53 4.43-.22q1.61-.36 3.17.5c.87-.54.4-1.17.25-1.69-.17-.61-.33-1.22-.48-1.83-.6-2.39-1.06-4.8-.97-7.31.14-3.89 2.25-6.5 6.05-7.34 2.82-.61 5.56-.34 8.21.77.5.2 1 .41 1.56.64.16-.55.28-.93.39-1.32 1.1-3.86 1.8-7.78 2.33-11.74.2-1.52.38-3.05.55-4.58.74-6.78 1-13.58.97-20.39-.02-4.97-.45-9.94-.72-14.91zM75.61 13.83h1.09c.07.34.12.67.16 1.01.04.25.07.51.09.76.03.24.05.48.06.72.04.48.05.95.05 1.43.01.96-.03 1.92-.08 2.88-.02.36-.04.73-.07 1.09-.07 1.09-.15 2.18-.19 3.27h-1.58c.15-3.73.31-7.4.47-11.16zm-16.13.29c.01-.61.1-1.18 1.07-.85.54 3.61.37 7.3.45 11.08-.43 0-.68.02-.92-.01-.19-.02-.37-.09-.61-.15-.04-.44-.12-.83-.11-1.23.03-2.95.07-5.89.12-8.84zm2.78 17c-.13.4-.54.71-.72.93-.09 0-.18-.02-.26-.04-.17-.03-.32-.09-.45-.16a1.14 1.14 0 0 1-.33-.28.38.38 0 0 1-.09-.13c-.03-.05-.05-.1-.07-.15a.684.684 0 0 1 .02-.4c.14-.35.55-.72.91-.82.53-.14 1.16.54.99 1.05zm.04-17.63c1.03-.35 1.08-.34 1.21.48.1.65.15 1.31.15 1.97.02 2.77 0 5.54 0 8.46h-1.37V13.49zm3.06 17.81c-.17-.42.43-.98.94-.93.52.06 1.07.3 1.01.9-.05.38-.48.72-.88 1.28-.49-.55-.91-.85-1.07-1.25zm.95-17.71c.71-.26 1.25-.36 1.27.52.1 3.49.06 6.98-.28 10.54-.46-.03-.84-.06-1.4-.11-.03-3.7.33-7.32.41-10.95zm3.8.98c.03-.63.07-1.29 1.23-.95.04 3.23.07 6.51-.06 9.93-.01.39-.02.78-.04 1.18h-1.4c-.02-.28-.05-.53-.06-.78-.02-.15-.03-.3-.02-.44.11-2.98.22-5.96.35-8.94zm.09 16.89c.02-.59.39-.88.97-.91.64-.03 1.12.34 1.18 1.18-.21.18-.5.6-.89.73-.55.17-1.29-.45-1.26-1zm-13.83-1.45c.32.12.56.44 1.05.85-.53.33-.86.7-1.14.66-.29-.04-.66-.42-.76-.73-.14-.41.43-.93.85-.78zm.23-5.84c-.13-.4-.23-.72-.36-1.12-.08.39-.15.68-.22 1.01H54.5c0-3.7-.06-7.33.46-11.06 1.31.05 1.34.05 1.36 1.11.03 1.88.03 3.76.04 5.64.01.45.01.9.23 1.35.05-1.47.09-2.93.16-4.4.05-.91.14-1.82.23-2.73.04-.38.01-.95.59-.83.24.06.48.58.53.91.11.65.11 1.32.11 1.98.01 2.64.01 5.28.01 8.06-.63.03-1.1.05-1.62.08zm-6 6.89s-.06-.11-.09-.17a.976.976 0 0 1-.11-.43c-.03-.49.48-.87 1.04-.84.58.03 1 .43.95 1.2-.25.15-.62.53-1.03.58-.04 0-.07.01-.1.01-.09 0-.17-.01-.24-.04a.512.512 0 0 1-.21-.1.7.7 0 0 1-.21-.21zm2.15-7.12c-.1-.17-.2-.26-.2-.34.08-3.23.14-6.46.26-9.69.03-.96.15-.99 1.31-.88.29 3.61.21 7.22-.25 10.91h-1.12zM74 23.46c-.01.44-.07.89-.12 1.42h-1.66c-.12-3.8.21-7.5.37-11.14.82-.29 1.13-.04 1.18.62.08.85.22 1.71.23 2.57.03 2.17.01 4.35 0 6.53zm2.26 9.04c-.56.09-1.14-.35-1.21-.9-.07-.56.39-1.07.98-1.11.62-.03 1.12.39 1.13.97 0 .6-.33.95-.9 1.04zm2.3-7.39c.11-3.78.21-7.47.32-11.13.94-.39 1.13.14 1.18.72.12 1.47.22 2.94.26 4.42.04 1.97.01 3.95.01 6.18-.75-.08-1.18-.12-1.77-.19zm2.11 7.31c-.6.1-1.25-.4-1.31-1.24.23-.18.55-.57.95-.68.57-.16 1.15.32 1.19.86.03.57-.24.96-.83 1.06zm4.16-.13c-.54-.02-1.21-.56-1.09-1.03.1-.4.47-.74.63-.98.8-.04 1.39.44 1.45.94.07.54-.43 1.08-.99 1.07zm4.55-.28c-.54.11-1.07-.52-.98-1.06.09-.53.44-.76.96-.74.55.01.93.43.88 1.24-.19.13-.5.48-.86.56z" style="fill:url(#_Безымянный_градиент_17);stroke-width:0"/><path class="cls-2" d="M74.81 100.29c.97 2.63 1.83 4.96 2.68 7.28-4.92 2.94-12.51-1.56-12.84-7.75.3.42.5.7.71.96.64.81 1.06.85 1.9.21.12-.09.22-.21.34-.31 1.06-.87 1.15-.91 2.14.03.53.5 1.01.55 1.65.31.35-.13.9-.3 1.12-.13.92.68 1.6.37 2.3-.59zM77.69 109.24c1.14.65 1.3 1.82 1.87 2.71.62.98 1.16 2.02 1.77 3.01.58.95 1.19 1.88 1.81 2.81.61.93 1.25 1.84 1.9 2.79-.58.73-1.14 1.43-1.78 2.25-1.2-1.14-2.34-2.33-3.61-3.38-1.24-1.03-2.61-1.9-4.02-2.91 1.32-2.2 2.17-4.58 2.07-7.29z"/><path class="cls-1" d="M161.76 183.88s-.07-.09-.1-.14c-5.61-8.01-9.59-16.86-13.11-25.91-4.5-11.58-6.57-23.76-8.26-36-.91-6.59-2.2-13.11-3.71-19.59-.85-3.66-2.61-6.82-5.5-9.28-1.39-1.19-2.77-2.4-4.22-3.51-5.94-4.55-12.28-8.51-18.86-12.07-4.2-2.26-8.5-4.34-13.06-5.82-.62-.2-1.23-.4-1.8-.58-.05-.2-.1-.3-.09-.4.03-.36.07-.72.1-1.09.4-4.07.86-8.15 1.13-12.25.27-4.1.44-8.23.38-12.34-.08-4.92-.44-9.84-.71-14.76-.1-1.78-.25-3.55-.48-5.32-.16-1.4-.37-2.8-.62-4.2a75.37 75.37 0 0 0-1.19-5.52c-.72-2.85-1.65-5.65-2.66-8.41-.47-1.32-1.32-2.51-2.02-3.74-.16-.28-.42-.5-.63-.74-.25.28-.53.54-.72.86-.24.39-.12 1.01-.81 1.23-.16-.35-.26-.69-.45-.97-.21-.31-.49-.77-.77-.79-.27-.02-.63.39-.86.68-.35.46-.63.98-.99 1.55-.35-.27-.59-.38-.71-.57-.3-.47-.53-.99-.81-1.47-.56-.95-.99-.98-1.71-.11-.26.32-.48.66-.75.97-1.34 1.52-2.53 1.37-3.38-.43-.16-.32-.21-.69-.39-.99-.18-.28-.44-.67-.7-.7-.24-.03-.59.3-.8.55-.31.39-.5.88-.81 1.28-1.02 1.29-2.44 1.32-3.5.08-.27-.3-.48-.65-.69-1-.93-1.46-1.16-1.44-2.17.04-.36.54-.78 1.09-1.29 1.48-1.03.79-2.06.55-2.67-.59-.26-.48-.3-1.07-.52-1.58-.13-.29-.38-.69-.64-.73-.24-.04-.6.26-.82.49-.49.51-.85 1.16-1.4 1.59-1.18.94-2.29.71-3.07-.56-.3-.48-.48-1.02-.75-1.5-.47-.85-.94-.87-1.45-.07-.3.48-.51 1.01-.82 1.46-1.01 1.49-2.22 1.53-3.31.12-.46-.6-.79-1.31-1.22-1.94-.54-.78-1.11-.79-1.69-.03-.25.32-.42.7-.64 1.04-.82 1.24-1.73 1.59-3.13 1.09-.56-.2-1.07-.57-1.59-.88-.68-.41-1.36-.83-2.04-1.25-.09.73.04 1.26.17 1.78.6 2.47 1.3 4.92 1.76 7.41 1.34 7.3 2.03 14.68 2.42 22.09.08 1.47.17 2.95.27 4.42.1 1.52.2 3.05.29 4.57.14 2.23.25 4.46.29 6.69.21 11.13-.12 22.26-2.09 33.26-.9 5.04-1.96 10.06-2.95 15.09-.12.59-.27 1.19-.42 1.78-.12.49-.34 1.01.17 1.4.57.43.93-.08 1.33-.35.29-.21.56-.45.85-.65 1.81-1.24 3.09-.87 3.98 1.16.16.37.22.79.4 1.15.22.42.53.79.8 1.19.4-.28.85-.51 1.18-.86.48-.51.83-1.16 1.34-1.65.46-.46.99-.9 1.58-1.14.75-.31 1.5-.19 2.06.21.52.37.88.99.92 1.74.03.71.04 1.42.07 2.13.13 3.83.63 7.6 2.02 11.2.27.7.1 1.23-.19 1.86-1.55 3.44-1 7.06 1.67 9.71 3.93 3.9 8.58 6.47 14.17 7.08.79.09 1.32.38 1.64 1.12.66 1.54 1.36 3.07 2.07 4.59 1.44 3.09 3.08 6.09 5.4 8.62 1.17 1.28 1.89 2.72 2.47 4.32 1.53 4.25 3.06 8.5 4.72 12.71 2.5 6.32 6.05 11.96 11.27 16.43 4.82 4.11 10.12 7.33 16.41 8.62.67.14.91.54 1.2 1.02 3.42 5.55 6.62 11.22 9.67 16.97.46.88.93 1.76 1.38 2.64.2.37.4.74.59 1.12.16.33.31.7.56.96.49-.16.98-.34 1.46-.52 0-.02-.01-.04-.01-.06-.1-.59-.38-1.16-.67-1.69-.12-.23-.24-.45-.37-.68-.41-.78-.83-1.57-1.26-2.34-2.05-3.83-4.1-7.66-6.22-11.45-.97-1.72-2.16-3.32-3.31-4.93-.94-1.31-2.15-2.11-3.83-2.47-4.51-.95-8.37-3.34-12.05-6.01-6.5-4.72-10.79-11.12-13.66-18.52-1.68-4.35-3.22-8.76-4.88-13.13-.39-1.03-.86-2.1-1.56-2.93-2.5-2.98-4.49-6.27-6.09-9.81-.69-1.52-1.4-3.04-2.1-4.57-.45-.96-1.18-1.43-2.26-1.54-4.96-.54-9.23-2.68-12.97-5.9-.9-.77-1.71-1.77-2.27-2.82-1.03-1.93-1.05-4-.26-6.31.54.98.95 1.73 1.36 2.48 1.35 2.49 3.5 3.46 6.23 3.17.95-.1 1.9-.33 2.81-.63.55-.18 1.01-.26 1.6-.14 2.39.47 4.54-.09 6.37-1.72.42-.37.82-.75 1.22-1.11 2.57 1.73 6.27 5.11 7.53 7.09-1.99 6.4-2.02 11.37.08 13.56l-.16-2.83c-.27-4.46.49-8.7 2.59-12.67.17-.33.43-.6.65-.9 2.04 1.87 2.8 4.11 2.75 6.67-.03 1.58-.03 3.15-.05 4.73-.03 5.53-.3 11.07.59 16.58.74 4.53 2.15 8.77 4.87 12.52 1.98 2.74 4.51 4.94 7.03 7.15.03 0 .15-.08.25-.14-1.53-1.91-3.04-3.81-4.56-5.71-3.42-4.28-5.36-9.16-6.1-14.58-.53-3.94-.65-7.89-.58-11.86.06-3.15.05-6.3.06-9.45 0-2.15-.6-4.1-1.99-5.79-.55-.66-1.03-1.39-1.56-2.07-5.66-7.39-9.2-15.76-11.3-24.76-.44-1.91-.54-3.94-.48-5.9.09-3.13 1.72-4.77 4.81-5.36 3.22-.62 6.2.04 8.9 1.77 1.83 1.17 3.57 2.52 5.19 3.97 6.04 5.42 11.47 11.38 15.7 18.36 1.36 2.26 2.9 4.42 4.42 6.59.84 1.2 1.81 2.32 2.75 3.45.18.21.53.28.8.41.08-.09.17-.18.25-.26-2.6-4.43-5.31-8.79-8.19-13.24 1.08-.45 1.95-.86 2.85-1.19 2.55-.95 5.16-1.72 8.07-1.67-.3-.78-.86-.9-1.36-1.06-1.31-.41-2.62-.2-3.92.08-2.13.47-4.14 1.24-6.02 2.47.72-2.59 2.37-4.63 3.94-6.83-1.19-.38-1.89.14-2.49.85-1.16 1.39-2.11 2.92-2.6 4.88C102.68 95.1 96.69 89.22 90.13 84l2.78-11.21c1.93.71 3.8 1.32 5.62 2.08 4.7 1.96 9.18 4.35 13.56 6.94 5.95 3.52 11.73 7.3 17.04 11.76 3.14 2.63 5.08 5.88 5.96 9.84 1.47 6.59 2.77 13.21 3.66 19.91.94 7.1 2.19 14.15 3.87 21.12 2.46 10.28 6.4 19.99 11.17 29.41 1.98 3.92 4.28 7.59 6.92 11.04.89 1.17 1.82 2.32 2.81 3.44.06.08.13.15.2.23.27-.26.54-.52.8-.79-.92-1.3-1.85-2.58-2.76-3.89zM58.23 117.71c-1.42-1.95-2.29-4.17-3.02-6.46-1.17-3.59-1.38-7.33-1.74-11.07.14.01.21 0 .24.03 1.43 1.61 1.53 1.6 2.83-.22.43-.61.9-1.2 1.58-2.09.07.78.12 1.2.14 1.62.11 3.82.59 7.59 1.58 11.29.85 3.15 2.2 6 4.79 8.14-2.24 1.24-4.98.71-6.4-1.24zm14.58-.45c-2.44 2.14-5.63 2.09-7.99-.15-1.59-1.51-2.56-3.4-3.2-5.47-1.07-3.4-1.73-6.89-2.19-10.42-.13-.94-.24-1.88-.35-2.83.15-.03.3-.05.46-.08.19.54.39 1.09.59 1.63.18.48-.02 1.3.72 1.31.36.01.77-.53 1.07-.9.42-.49.74-1.09 1.66-1.16-.07 3.47 1.43 6.18 3.91 8.4 2.55 2.29 5.53 2.84 8.84 1.99.37 1.17-.26 2.06-.52 3-.51 1.86-1.55 3.42-3 4.68zm6.74-5.31c.63.98 1.16 2.02 1.77 3.02.58.95 1.19 1.88 1.8 2.81.62.92 1.25 1.83 1.91 2.79-.58.72-1.14 1.43-1.79 2.24-1.2-1.14-2.34-2.33-3.61-3.38-1.24-1.02-2.61-1.9-4.01-2.91 1.32-2.19 2.16-4.57 2.06-7.28 1.15.64 1.3 1.81 1.87 2.71zm-4.74-11.66c.97 2.63 1.83 4.96 2.68 7.27-4.91 2.95-12.51-1.56-12.84-7.75.31.42.5.7.71.96.64.81 1.06.86 1.9.21.12-.09.22-.21.34-.3 1.05-.88 1.14-.91 2.14.02.53.5 1.01.56 1.65.31.35-.13.9-.3 1.12-.13.92.68 1.6.37 2.3-.59zm14.2-18.41c-.11.39-.23.77-.39 1.32-.56-.23-1.06-.44-1.56-.64-2.65-1.11-5.39-1.38-8.21-.77-3.8.84-5.91 3.45-6.05 7.34-.11 3.15.64 6.14 1.45 9.14.15.52.62 1.15-.25 1.69q-1.56-.86-3.17-.5c-1.91-1.31-2.33-1.3-4.43.22-.79-.86-1.59-1.91-2.94-1.79-.71.06-1.39.44-2.24.73-.09-.14-.3-.47-.53-.79-1.12-1.55-2.65-1.66-3.98-.26-.56.58-1.02 1.25-1.6 1.98-.38-.43-.7-.79-1.02-1.16-.44-.51-.89-.92-1.34-1.23-1.99-1.4-4.08-.98-6.02 1.23-.2.23-.39.46-.67.79-.8-1.07-1.2-2.43-2.49-2.99-1.29-.55-2.46-.1-3.75.6.1-.57.14-.96.23-1.34 2.12-8.85 3.74-17.78 4.49-26.86.68-8.32.84-16.65.45-24.98-.06-1.26-.12-2.53-.2-3.79-.07-1.54-.16-3.09-.27-4.64-.28-4.59-.62-9.18-1.02-13.77-.44-5.1-1.2-10.18-2.65-15.13-.29-1.01-.63-2.01-1.03-3.26 1.29.7 2.33 1.39 3.65 1.28 1.41-.11 2.25-1 2.97-2.11 2.63 3.57 4.21 3.55 6.94.67 2.32 2.72 3.45 2.83 6.45.58.74 1.14 1.52 2.31 3.12 2.22 1.51-.09 2.49-1.02 3.4-2.28.98.98 1.78 2.13 3.31 2.2 1.48.06 2.5-.64 3.39-1.84.8 1.11 1.53 2.17 3 2.2 1.42.02 2.27-.94 3.12-1.87C81.1 6.4 81.66 6.52 83.3 5.1c.62.24 1.22.69 1.78.63.57-.07 1.1-.62 1.8-1.07.49 1.43 1.06 2.87 1.48 4.35 1.09 3.85 2.01 7.73 2.68 11.67.24 1.4.45 2.81.63 4.23.21 1.77.37 3.56.47 5.35.27 4.97.7 9.94.72 14.91.03 6.81-.23 13.61-.97 20.39-.17 1.53-.35 3.06-.55 4.58-.53 3.96-1.23 7.88-2.33 11.74z"/><path class="cls-1" d="M117.98 117.9c2.1.1 4.62 1.97 4.8 3.46-.91 0-3.2-1.63-4.8-3.46zM54.97 13c1.31.06 1.33.06 1.35 1.12.03 1.88.03 3.76.05 5.64 0 .45 0 .89.22 1.34.05-1.47.09-2.93.16-4.4.05-.91.14-1.82.23-2.73.04-.38.01-.95.59-.83.24.05.48.57.53.91.11.65.11 1.32.11 1.98v8.06c-.63.03-1.1.05-1.61.08-.13-.4-.23-.71-.36-1.12-.08.39-.15.68-.22 1.01H54.5c0-3.7-.06-7.33.46-11.06zM72.59 13.75c.82-.29 1.13-.04 1.19.61.07.86.22 1.71.23 2.57.03 2.18 0 4.35 0 6.53 0 .45-.07.89-.12 1.42h-1.66c-.12-3.8.21-7.49.36-11.13zM76.72 25h-1.58c.16-3.74.31-7.4.47-11.17h1.1c.73 3.72.17 7.42.02 11.17zM80.33 25.3c-.75-.08-1.17-.12-1.77-.18.11-3.79.21-7.48.32-11.14.95-.39 1.14.14 1.18.73.12 1.47.22 2.94.26 4.41.04 1.98.01 3.95.01 6.18zM67.3 24.65c-.46-.04-.84-.07-1.4-.11-.03-3.71.33-7.32.41-10.95.7-.27 1.24-.36 1.27.52.1 3.49.06 6.98-.28 10.54zM54.13 13.04c.28 3.61.21 7.22-.26 10.9h-1.11c-.11-.17-.21-.25-.2-.33.08-3.23.14-6.46.26-9.7.03-.95.15-.99 1.32-.87zM63.67 24.4H62.3V13.49c1.03-.35 1.09-.34 1.21.48.1.65.15 1.31.15 1.97.02 2.77 0 5.55 0 8.47zM61 24.35c-.43 0-.67.02-.91 0-.19-.02-.38-.09-.61-.15-.04-.44-.12-.83-.11-1.23.03-2.95.07-5.89.12-8.84.01-.61.1-1.18 1.07-.85.54 3.62.36 7.3.45 11.08zM71.24 24.73h-1.4c-.03-.44-.1-.83-.08-1.22.11-2.98.22-5.96.35-8.94.03-.63.07-1.29 1.23-.95.05 3.6.08 7.26-.1 11.11zM84.37 30.28c.8-.03 1.4.44 1.46.94.07.54-.44 1.09-1 1.07-.53-.02-1.2-.56-1.09-1.02.1-.41.47-.75.63-.99zM76.04 30.5c.62-.04 1.12.38 1.12.97 0 .6-.32.95-.89 1.04-.57.09-1.14-.35-1.21-.9-.07-.56.39-1.08.98-1.11zM72.36 31.73c-.21.18-.51.6-.9.73-.55.18-1.28-.45-1.26-.99.02-.59.39-.88.98-.91.64-.03 1.12.34 1.18 1.18zM52.39 30.82c-.25.15-.62.53-1.02.58-.54.06-.93-.35-.96-.93-.03-.49.48-.88 1.04-.85.59.03 1 .43.95 1.2zM61.54 32.06c-.85-.06-1.38-.65-1.17-1.17.14-.35.55-.72.91-.82.52-.14 1.15.54.99 1.05-.13.4-.54.71-.72.94zM79.36 31.18c.24-.18.55-.57.95-.68.57-.16 1.15.31 1.19.86.04.57-.23.96-.82 1.06-.6.1-1.25-.4-1.31-1.24zM66.43 32.56c-.49-.55-.9-.85-1.06-1.25-.17-.42.43-.98.93-.93.53.06 1.08.3 1.01.89-.04.38-.48.72-.88 1.29zM90.24 31.46c-.19.13-.5.48-.86.55-.54.11-1.07-.52-.98-1.05.09-.53.44-.76.96-.75.56.02.94.44.89 1.25zM57.42 30.87c-.54.33-.87.7-1.14.66-.29-.04-.66-.42-.77-.73-.14-.41.43-.93.85-.78.32.11.56.44 1.05.85z"/><path class="cls-5" d="M87.25 5.71c-1.98 2.96-6.65 4.03-9.54 1.79-1.84 1.15-4.68-.25-4.88-2.41-1.08 2.71-5.19 3.56-7.25 1.49-1.61 1.79-5.14.91-5.72-1.43-.98 2.38-4.49 3.21-6.43 1.53-2.29 1.85-6.26.78-7.32-1.97.02 1.11-1.2 2.06-2.27 1.76 2.13 14.51 4.26 29.07 4.42 43.73s-1.72 29.52-7.35 43.06c2.27-.56 4.85.66 5.85 2.78.2-2.05 2.05-3.8 4.09-3.89 2.05-.09 4.05 1.49 4.43 3.5 1.9-2.82 6.96-2.4 8.38.69 2.08-1.37 5.05-1.17 6.94.45 1-.21 2.11-.37 3.17-.35.15.61.31 1.22.48 1.83.15.52.62 1.15-.25 1.69q-1.56-.86-3.17-.5c-1.91-1.31-2.33-1.3-4.43.22-.79-.86-1.59-1.91-2.94-1.79-.71.06-1.39.44-2.24.73-.09-.14-.3-.47-.53-.79-1.12-1.55-2.65-1.66-3.98-.26-.56.58-1.02 1.25-1.6 1.98-.38-.43-.7-.79-1.02-1.16-.44-.51-.89-.92-1.34-1.23-1.99-1.4-4.08-.98-6.02 1.23-.2.23-.39.46-.67.79-.8-1.07-1.2-2.43-2.49-2.99-1.29-.55-2.46-.1-3.75.6.1-.57.14-.96.23-1.34 2.12-8.85 3.74-17.78 4.49-26.86.68-8.32.84-16.65.45-24.98-.06-1.26-.12-2.53-.2-3.79-.07-1.54-.16-3.09-.27-4.64-.28-4.59-.62-9.18-1.02-13.77-.44-5.1-1.2-10.18-2.65-15.13-.29-1.01-.63-2.01-1.03-3.26 1.29.7 2.33 1.39 3.65 1.28 1.41-.11 2.25-1 2.97-2.11 2.63 3.57 4.21 3.55 6.94.67 2.32 2.72 3.45 2.83 6.45.58.74 1.14 1.52 2.31 3.12 2.22 1.51-.09 2.49-1.02 3.4-2.28.98.98 1.78 2.13 3.31 2.2 1.48.06 2.5-.64 3.39-1.84.8 1.11 1.53 2.17 3 2.2 1.42.02 2.27-.94 3.12-1.87C81.1 6.4 81.66 6.52 83.3 5.1c.62.24 1.22.69 1.78.63.57-.07 1.1-.62 1.8-1.07.12.35.25.7.37 1.05z"/><path class="cls-1" d="m52.62 41.64.8 4.17 35.9 1.34v-4.48M53.03 50.99l.31 4.17 13.98 1.34v-4.48M53.03 64.31l.74 3.04 33.48.99v-3.28"/></g></g></g></svg>