<svg width="192" height="215" viewBox="0 0 192 215" fill="none" xmlns="http://www.w3.org/2000/svg">
<path d="M190.241 119.387C190.241 171.854 147.713 214.382 95.246 214.382C81.2688 214.382 68.0079 211.368 56.0502 205.946C49.3651 202.922 43.1077 199.141 37.3676 194.714H37.3477C35.935 193.62 34.5622 192.486 33.2192 191.332C25.1214 184.348 18.2174 176.022 12.8553 166.7C4.83708 152.763 0.250977 136.607 0.250977 119.387C0.250977 66.9202 42.7893 24.3819 95.256 24.3819C134.87 24.3819 168.823 48.6355 183.078 83.1059C187.694 94.2877 190.251 106.534 190.251 119.387H190.241Z" fill="url(#paint0_linear_2310_99578)"/>
<path d="M0.00108629 118.11C-0.018851 111.959 0.579269 105.818 1.7456 99.7658C2.86209 93.7132 4.64648 87.7783 6.8994 82.02C11.465 70.5231 18.2736 59.8109 27.0261 50.786C31.4024 46.2834 36.2073 42.1437 41.4608 38.6024C42.7866 37.7489 44.1025 36.8563 45.4482 36.0224C46.8239 35.2278 48.1697 34.394 49.5653 33.6387C50.9808 32.9226 52.3764 32.1672 53.8219 31.4904C55.2773 30.8429 56.7028 30.1464 58.1782 29.5578C69.9113 24.653 82.721 22.2594 95.4411 22.387C108.171 22.5832 120.821 25.3004 132.405 30.2838C138.197 32.7754 143.729 35.8262 148.893 39.3675C154.077 42.8892 158.912 46.8916 163.318 51.2961C172.15 60.0954 179.268 70.5329 184.172 81.9219C186.614 87.6214 188.518 93.5464 189.854 99.6088C191.17 105.671 191.888 111.871 191.988 118.09C192.187 130.519 189.994 143.076 185.209 154.69C180.484 166.315 173.386 177.037 164.394 185.963C155.423 194.91 144.656 202.11 132.853 207.005C121.061 211.93 108.221 214.372 95.4311 214.382C82.6413 214.294 69.8216 211.812 58.0785 206.829C46.3155 201.914 35.6789 194.527 26.9563 185.473C18.2138 176.428 11.4152 165.706 6.83959 154.2C4.58667 148.441 2.81225 142.497 1.69576 136.444C0.559331 130.401 -0.0288197 124.261 0.00108629 118.11ZM0.499519 118.11C0.549363 124.221 1.16742 130.333 2.43344 136.317C3.73933 142.281 5.59351 148.137 8.10561 153.709C13.07 164.873 20.4069 174.908 29.279 183.207C33.7251 187.356 38.5898 191.035 43.7137 194.282C45.0196 195.057 46.2956 195.871 47.6214 196.607C48.9672 197.313 50.2731 198.069 51.6388 198.745C53.0045 199.403 54.3502 200.099 55.7359 200.717C57.1315 201.306 58.5072 201.943 59.9227 202.483C65.565 204.69 71.4066 206.397 77.3579 207.525C83.3092 208.653 89.3701 209.193 95.4311 209.173C101.492 209.144 107.543 208.585 113.484 207.427C119.426 206.27 125.247 204.533 130.86 202.306C142.094 197.823 152.422 191.123 161.075 182.716C169.708 174.3 176.745 164.255 181.55 153.219C183.943 147.696 185.807 141.947 187.123 136.062C188.419 130.176 189.137 124.153 189.256 118.11C189.426 106.034 187.282 93.8407 182.607 82.5792C177.982 71.3079 170.964 60.9881 162.171 52.434C157.765 48.1668 152.92 44.3607 147.747 41.0548C142.553 37.7784 137.05 35.012 131.328 32.8147C119.894 28.3905 107.623 26.2814 95.4311 26.4776C89.3303 26.5365 83.2594 27.2231 77.2881 28.3709C71.3269 29.548 65.4852 31.3138 59.843 33.5406C58.4274 34.0899 57.0517 34.7374 55.6561 35.3358C54.2705 35.9538 52.9347 36.6699 51.559 37.3271C50.2033 38.004 48.8874 38.7691 47.5516 39.4852C46.2357 40.2308 44.9498 41.0548 43.6439 41.8298C38.53 45.1062 33.6653 48.7946 29.2192 52.9539C20.3571 61.2824 13.0202 71.3275 8.05577 82.4909C5.53369 88.0628 3.68949 93.9192 2.39357 99.8933C1.12755 105.877 0.519457 111.989 0.479582 118.11H0.499519Z" fill="black"/>
<path d="M59.0409 98.3126C59.2409 98.8526 59.4309 99.4026 59.6309 99.9426C59.8109 100.433 59.6109 101.243 60.3509 101.263C60.7109 101.263 61.1209 100.723 61.4209 100.363C61.8409 99.8726 62.1609 99.2726 63.0709 99.2026C63.0009 102.673 64.5109 105.383 66.9809 107.603C69.5309 109.893 72.5109 110.443 75.8209 109.593C76.1809 110.753 75.5609 111.653 75.3009 112.593C74.7909 114.453 73.7509 116.013 72.3009 117.273C69.8509 119.413 66.6609 119.353 64.3109 117.113C62.7209 115.603 61.7509 113.713 61.1109 111.653C60.0509 108.253 59.3909 104.763 58.9209 101.233C58.8009 100.293 58.6909 99.3426 58.5709 98.4026C58.7209 98.3726 58.8809 98.3526 59.0309 98.3226L59.0409 98.3126Z" fill="#F4C6CC"/>
<path d="M52.9709 100.183C53.1109 100.193 53.1909 100.183 53.2109 100.203C54.6409 101.813 54.7509 101.803 56.0409 99.9826C56.4709 99.3726 56.9409 98.7926 57.6209 97.8926C57.6909 98.6726 57.7509 99.0926 57.7609 99.5126C57.8709 103.333 58.3509 107.103 59.3509 110.803C60.2009 113.953 61.5409 116.803 64.1409 118.943C61.9009 120.183 59.1609 119.653 57.7409 117.703C56.3209 115.753 55.4509 113.533 54.7109 111.243C53.5509 107.643 53.3409 103.903 52.9709 100.173V100.183Z" fill="#F4C6CC"/>
<path d="M164.021 187.773L163.021 188.333L127.661 208.003L126.101 208.873C125.651 207.993 125.181 207.113 124.721 206.233C121.671 200.483 118.471 194.813 115.051 189.263C114.761 188.783 114.521 188.383 113.851 188.243C107.561 186.953 102.261 183.733 97.4409 179.623C92.2209 175.153 88.6709 169.513 86.1709 163.193C85.7509 162.133 85.3509 161.083 84.9509 160.023C83.7409 156.853 82.6009 153.663 81.4509 150.483C80.8709 148.883 80.1509 147.443 78.9809 146.163C76.6609 143.633 75.0209 140.633 73.5809 137.543C72.8709 136.023 72.1709 134.493 71.5109 132.953C71.1909 132.213 70.6609 131.923 69.8709 131.833C64.2809 131.223 59.6309 128.653 55.7009 124.753C53.0309 122.103 52.4809 118.483 54.0309 115.043C54.3209 114.413 54.4909 113.883 54.2209 113.183C52.8309 109.583 52.3309 105.813 52.2009 101.983C52.1709 101.273 52.1609 100.563 52.1309 99.8526C52.0909 99.1026 51.7309 98.4826 51.2109 98.1126L52.2509 97.1626L75.9409 75.4526L90.8409 70.1426L92.6509 69.4926C92.6209 69.8626 92.5809 70.2226 92.5509 70.5826C92.5409 70.6826 92.5909 70.7826 92.6409 70.9826C93.2109 71.1626 93.8209 71.3626 94.4409 71.5626C99.0009 73.0426 103.301 75.1226 107.501 77.3826C114.081 80.9426 120.421 84.9026 126.361 89.4526C127.811 90.5626 129.191 91.7726 130.581 92.9626C133.471 95.4226 135.231 98.5826 136.081 102.243C137.591 108.723 138.881 115.243 139.791 121.833C141.481 134.073 143.551 146.253 148.051 157.833C151.571 166.883 155.551 175.733 161.161 183.743C161.191 183.793 161.231 183.833 161.261 183.883C162.171 185.193 163.101 186.473 164.021 187.773Z" fill="white"/>
<path d="M98.1409 167.743C93.7209 165.233 89.2909 162.703 84.9509 160.023C84.7709 159.563 84.6009 159.093 84.4209 158.633C83.4109 155.923 82.4309 153.203 81.4509 150.483C80.8709 148.883 80.1509 147.443 78.9809 146.163C76.6609 143.633 75.0209 140.633 73.5809 137.543C72.8709 136.023 72.1709 134.493 71.5109 132.953C71.1909 132.213 70.6609 131.923 69.8709 131.833C64.2809 131.223 59.6309 128.653 55.7009 124.753C53.0309 122.103 52.4809 118.483 54.0309 115.043C54.3209 114.413 54.4909 113.883 54.2209 113.183C52.8309 109.583 52.3309 105.813 52.2009 101.983C52.1709 101.273 52.1609 100.563 52.1309 99.8526C52.1309 99.8326 52.1309 99.8126 52.1309 99.7926C52.0809 99.0726 51.7309 98.4726 51.2209 98.1126L52.2609 97.1626L63.4709 86.8826L75.4609 98.6426C77.0909 105.693 80.0509 112.423 84.1309 118.393C85.7409 120.733 87.5509 123.013 88.4409 125.713C89.4709 128.803 89.2209 132.153 88.9409 135.403C88.5209 140.443 88.0709 145.583 89.1709 150.533C90.5809 156.893 94.4009 162.413 98.1509 167.743H98.1409Z" fill="#F4C6CC"/>
<path d="M84.4909 158.573C84.4909 158.573 84.4509 158.623 84.4209 158.633C83.4109 155.923 82.4309 153.203 81.4509 150.483C80.8709 148.883 80.1509 147.443 78.9809 146.163C76.6609 143.633 75.0209 140.633 73.5809 137.543C72.8709 136.023 72.1709 134.493 71.5109 132.953C71.1909 132.213 70.6609 131.923 69.8709 131.833C64.2809 131.223 59.6309 128.653 55.7009 124.753C53.0309 122.103 52.4809 118.483 54.0309 115.043C54.3209 114.413 54.4909 113.883 54.2209 113.183C52.8309 109.583 52.3309 105.813 52.2009 101.983C52.1709 101.273 52.1609 100.563 52.1309 99.8526C52.1309 99.8326 52.1309 99.8126 52.1309 99.7926C52.3809 99.4826 52.6409 99.1826 52.9009 98.8826L54.9309 100.903C54.8509 104.803 54.7909 108.813 56.1009 112.493C57.4109 116.173 60.4209 119.513 64.2809 120.063C61.8809 121.053 59.2409 121.473 56.6509 121.263C59.1309 124.503 62.7909 126.813 66.7909 127.633C68.5909 128.013 70.5109 128.113 72.1109 129.023C73.7309 129.953 74.8009 131.573 75.8109 133.143C80.2809 140.093 84.8809 147.473 85.2209 155.723C85.2609 156.723 85.2009 157.833 84.5009 158.573H84.4909Z" fill="white"/>
<path d="M118.551 83.9426C118.941 85.3626 119.151 86.8226 119.131 88.3026C119.121 89.6826 118.901 91.1126 118.131 92.2426C117.011 93.8826 115.001 94.6026 113.321 95.6426C111.131 97.0126 109.371 99.0626 108.371 101.433C112.981 99.9726 118.201 100.513 122.411 102.913C119.701 103.553 117.321 105.483 116.121 107.993C114.931 110.513 114.941 113.573 116.151 116.083L106.011 100.863C101.531 95.2026 96.4609 90.0226 90.9009 85.4126C90.2909 84.9026 89.6309 84.3426 89.4509 83.5626C89.3509 83.1226 89.4109 82.6626 89.4809 82.2226C90.0809 78.2026 90.6809 74.1826 91.2709 70.1626C91.2809 70.1026 91.2909 70.0426 91.3009 69.9726L118.551 83.9426Z" fill="#F4C6CC"/>
<path d="M91.6409 30.2626C91.5409 28.4726 91.3809 26.6826 91.1709 24.9126C90.9909 23.4926 90.7809 22.0826 90.5409 20.6826C89.8709 16.7426 88.9509 12.8626 87.8609 9.0126C87.5409 7.8926 87.1409 6.8026 86.7509 5.7126C86.6309 5.3626 86.5009 5.0126 86.3809 4.6626C85.6809 5.1126 85.1509 5.6626 84.5809 5.7326C84.0209 5.7926 83.4209 5.3426 82.8009 5.1026C81.1609 6.5226 80.6009 6.4026 78.6709 4.0726C77.8209 5.0026 76.9709 5.9626 75.5509 5.9426C74.0809 5.9126 73.3509 4.8526 72.5509 3.7426C71.6609 4.9426 70.6409 5.6426 69.1609 5.5826C67.6309 5.5126 66.8309 4.3626 65.8509 3.3826C64.9409 4.6426 63.9609 5.5726 62.4509 5.6626C60.8509 5.7526 60.0709 4.5826 59.3309 3.4426C56.3309 5.6926 55.2009 5.5826 52.8809 2.8626C50.1509 5.7426 48.5709 5.7626 45.9409 2.1926C45.2209 3.3026 44.3809 4.1926 42.9709 4.3026C41.6509 4.4126 40.6109 3.7226 39.3209 3.0226C39.7209 4.2726 40.0609 5.2726 40.3509 6.2826C41.8009 11.2326 42.5609 16.3126 43.0009 21.4126C43.4009 26.0026 43.7409 30.5926 44.0209 35.1826C44.1309 36.7326 44.2209 38.2826 44.2909 39.8226C44.3709 41.0826 44.4309 42.3526 44.4909 43.6126C44.8809 51.9426 44.7209 60.2726 44.0409 68.5926C43.2909 77.6726 41.6709 86.6026 39.5509 95.4526C39.4609 95.8326 39.4209 96.2226 39.3209 96.7926C40.6109 96.0926 41.7809 95.6426 43.0709 96.1926C44.3609 96.7526 44.7609 98.1126 45.5609 99.1826C45.8409 98.8526 46.0309 98.6226 46.2309 98.3926C48.1709 96.1826 50.2609 95.7626 52.2509 97.1626C52.7009 97.4726 53.1509 97.8826 53.5909 98.3926C53.9109 98.7626 54.2309 99.1226 54.6109 99.5526C55.1909 98.8226 55.6509 98.1526 56.2109 97.5726C57.5409 96.1726 59.0709 96.2826 60.1909 97.8326C60.4209 98.1526 60.6309 98.4826 60.7209 98.6226C61.5709 98.3326 62.2509 97.9526 62.9609 97.8926C64.3109 97.7726 65.1109 98.8226 65.9009 99.6826C68.0009 98.1626 68.4209 98.1526 70.3309 99.4626C71.4042 99.2226 72.4609 99.3893 73.5009 99.9626C74.3709 99.4226 73.9009 98.7926 73.7509 98.2726C73.5809 97.6626 73.4209 97.0526 73.2709 96.4426C72.6709 94.0526 72.2109 91.6426 72.3009 89.1326C72.4409 85.2426 74.5509 82.6326 78.3509 81.7926C81.1709 81.1826 83.9109 81.4526 86.5609 82.5626C87.0609 82.7626 87.5609 82.9726 88.1209 83.2026C88.2809 82.6526 88.4009 82.2726 88.5109 81.8826C89.6109 78.0226 90.3109 74.1026 90.8409 70.1426C91.0409 68.6226 91.2209 67.0926 91.3909 65.5626C92.1309 58.7826 92.3909 51.9826 92.3609 45.1726C92.3409 40.2026 91.9109 35.2326 91.6409 30.2626ZM75.1109 13.8326H76.2009C76.2709 14.1726 76.3209 14.5026 76.3609 14.8426C76.4009 15.0926 76.4309 15.3526 76.4509 15.6026C76.4809 15.8426 76.5009 16.0826 76.5109 16.3226C76.5509 16.8026 76.5609 17.2726 76.5609 17.7526C76.5709 18.7126 76.5309 19.6726 76.4809 20.6326C76.4609 20.9926 76.4409 21.3626 76.4109 21.7226C76.3409 22.8126 76.2609 23.9026 76.2209 24.9926H74.6409C74.7909 21.2626 74.9509 17.5926 75.1109 13.8326ZM58.9809 14.1226C58.9909 13.5126 59.0809 12.9426 60.0509 13.2726C60.5909 16.8826 60.4209 20.5726 60.5009 24.3526C60.0709 24.3526 59.8209 24.3726 59.5809 24.3426C59.3909 24.3226 59.2109 24.2526 58.9709 24.1926C58.9309 23.7526 58.8509 23.3626 58.8609 22.9626C58.8909 20.0126 58.9309 17.0726 58.9809 14.1226ZM61.7609 31.1226C61.6309 31.5226 61.2209 31.8326 61.0409 32.0526C60.9509 32.0526 60.8609 32.0326 60.7809 32.0126C60.6109 31.9826 60.4609 31.9226 60.3309 31.8526C60.2009 31.7726 60.0809 31.6826 60.0009 31.5726C59.9609 31.5326 59.9309 31.4926 59.9109 31.4426C59.8809 31.3926 59.8609 31.3426 59.8409 31.2926C59.8109 31.1626 59.8109 31.0226 59.8609 30.8926C60.0009 30.5426 60.4109 30.1726 60.7709 30.0726C61.3009 29.9326 61.9309 30.6126 61.7609 31.1226ZM61.8009 13.4926C62.8309 13.1426 62.8809 13.1526 63.0109 13.9726C63.1109 14.6226 63.1609 15.2826 63.1609 15.9426C63.1809 18.7126 63.1609 21.4826 63.1609 24.4026H61.7909V13.4926H61.8009ZM64.8609 31.3026C64.6909 30.8826 65.2909 30.3226 65.8009 30.3726C66.3209 30.4326 66.8709 30.6726 66.8109 31.2726C66.7609 31.6526 66.3309 31.9926 65.9309 32.5526C65.4409 32.0026 65.0209 31.7026 64.8609 31.3026ZM65.8109 13.5926C66.5209 13.3326 67.0609 13.2326 67.0809 14.1126C67.1809 17.6026 67.1409 21.0926 66.8009 24.6526C66.3409 24.6226 65.9609 24.5926 65.4009 24.5426C65.3709 20.8426 65.7309 17.2226 65.8109 13.5926ZM69.6109 14.5726C69.6409 13.9426 69.6809 13.2826 70.8409 13.6226C70.8809 16.8526 70.9109 20.1326 70.7809 23.5526C70.7709 23.9426 70.7609 24.3326 70.7409 24.7326H69.3409C69.3209 24.4526 69.2909 24.2026 69.2809 23.9526C69.2609 23.8026 69.2509 23.6526 69.2609 23.5126C69.3709 20.5326 69.4809 17.5526 69.6109 14.5726ZM69.7009 31.4626C69.7209 30.8726 70.0909 30.5826 70.6709 30.5526C71.3109 30.5226 71.7909 30.8926 71.8509 31.7326C71.6409 31.9126 71.3509 32.3326 70.9609 32.4626C70.4109 32.6326 69.6709 32.0126 69.7009 31.4626ZM55.8709 30.0126C56.1909 30.1326 56.4309 30.4526 56.9209 30.8626C56.3909 31.1926 56.0609 31.5626 55.7809 31.5226C55.4909 31.4826 55.1209 31.1026 55.0209 30.7926C54.8809 30.3826 55.4509 29.8626 55.8709 30.0126ZM56.1009 24.1726C55.9709 23.7726 55.8709 23.4526 55.7409 23.0526C55.6609 23.4426 55.5909 23.7326 55.5209 24.0626H54.0009C54.0009 20.3626 53.9409 16.7326 54.4609 13.0026C55.7709 13.0526 55.8009 13.0526 55.8209 14.1126C55.8509 15.9926 55.8509 17.8726 55.8609 19.7526C55.8709 20.2026 55.8709 20.6526 56.0909 21.1026C56.1409 19.6326 56.1809 18.1726 56.2509 16.7026C56.3009 15.7926 56.3909 14.8826 56.4809 13.9726C56.5209 13.5926 56.4909 13.0226 57.0709 13.1426C57.3109 13.2026 57.5509 13.7226 57.6009 14.0526C57.7109 14.7026 57.7109 15.3726 57.7109 16.0326C57.7209 18.6726 57.7209 21.3126 57.7209 24.0926C57.0909 24.1226 56.6209 24.1426 56.1009 24.1726ZM50.1009 31.0626C50.1009 31.0626 50.0409 30.9526 50.0109 30.8926C49.9409 30.7726 49.9109 30.6226 49.9009 30.4626C49.8709 29.9726 50.3809 29.5926 50.9409 29.6226C51.5209 29.6526 51.9409 30.0526 51.8909 30.8226C51.6409 30.9726 51.2709 31.3526 50.8609 31.4026C50.8209 31.4026 50.7909 31.4126 50.7609 31.4126C50.6709 31.4126 50.5909 31.4026 50.5209 31.3726C50.4409 31.3526 50.3709 31.3226 50.3109 31.2726C50.2309 31.2226 50.1609 31.1526 50.1009 31.0626ZM52.2509 23.9426C52.1509 23.7726 52.0509 23.6826 52.0509 23.6026C52.1309 20.3726 52.1909 17.1426 52.3109 13.9126C52.3409 12.9526 52.4609 12.9226 53.6209 13.0326C53.9109 16.6426 53.8309 20.2526 53.3709 23.9426H52.2509ZM73.5009 23.4626C73.4909 23.9026 73.4309 24.3526 73.3809 24.8826H71.7209C71.6009 21.0826 71.9309 17.3826 72.0909 13.7426C72.9109 13.4526 73.2209 13.7026 73.2709 14.3626C73.3509 15.2126 73.4909 16.0726 73.5009 16.9326C73.5309 19.1026 73.5109 21.2826 73.5009 23.4626ZM75.7609 32.5026C75.2009 32.5926 74.6209 32.1526 74.5509 31.6026C74.4809 31.0426 74.9409 30.5326 75.5309 30.4926C76.1509 30.4626 76.6509 30.8826 76.6609 31.4626C76.6609 32.0626 76.3309 32.4126 75.7609 32.5026ZM78.0609 25.1126C78.1709 21.3326 78.2709 17.6426 78.3809 13.9826C79.3209 13.5926 79.5109 14.1226 79.5609 14.7026C79.6809 16.1726 79.7809 17.6426 79.8209 19.1226C79.8609 21.0926 79.8309 23.0726 79.8309 25.3026C79.0809 25.2226 78.6509 25.1826 78.0609 25.1126ZM80.1709 32.4226C79.5709 32.5226 78.9209 32.0226 78.8609 31.1826C79.0909 31.0026 79.4109 30.6126 79.8109 30.5026C80.3809 30.3426 80.9609 30.8226 81.0009 31.3626C81.0309 31.9326 80.7609 32.3226 80.1709 32.4226ZM84.3309 32.2926C83.7909 32.2726 83.1209 31.7326 83.2409 31.2626C83.3409 30.8626 83.7109 30.5226 83.8709 30.2826C84.6709 30.2426 85.2609 30.7226 85.3209 31.2226C85.3909 31.7626 84.8909 32.3026 84.3309 32.2926ZM88.8809 32.0126C88.3409 32.1226 87.8109 31.4926 87.9009 30.9526C87.9909 30.4226 88.3409 30.1926 88.8609 30.2126C89.4109 30.2226 89.7909 30.6426 89.7409 31.4526C89.5509 31.5826 89.2409 31.9326 88.8809 32.0126Z" fill="url(#paint1_linear_2310_99578)"/>
<path d="M74.3109 100.293C75.2809 102.923 76.1409 105.253 76.9909 107.573C72.0709 110.513 64.4809 106.013 64.1509 99.8226C64.4509 100.243 64.6509 100.523 64.8609 100.783C65.5009 101.593 65.9209 101.633 66.7609 100.993C66.8809 100.903 66.9809 100.783 67.1009 100.683C68.1609 99.8126 68.2509 99.7726 69.2409 100.713C69.7709 101.213 70.2509 101.263 70.8909 101.023C71.2409 100.893 71.7909 100.723 72.0109 100.893C72.9309 101.573 73.6109 101.263 74.3109 100.303V100.293Z" fill="#F4C6CC"/>
<path d="M77.1909 109.243C78.3309 109.893 78.4909 111.063 79.0609 111.953C79.6809 112.933 80.2209 113.973 80.8309 114.963C81.4109 115.913 82.0209 116.843 82.6409 117.773C83.2509 118.703 83.8909 119.613 84.5409 120.563C83.9609 121.293 83.4009 121.993 82.7609 122.813C81.5609 121.673 80.4209 120.483 79.1509 119.433C77.9109 118.403 76.5409 117.533 75.1309 116.523C76.4509 114.323 77.3009 111.943 77.2009 109.233L77.1909 109.243Z" fill="#F4C6CC"/>
<path d="M161.261 183.883C161.261 183.883 161.191 183.793 161.161 183.743C155.551 175.733 151.571 166.883 148.051 157.833C143.551 146.253 141.481 134.073 139.791 121.833C138.881 115.243 137.591 108.723 136.081 102.243C135.231 98.5826 133.471 95.4226 130.581 92.9626C129.191 91.7726 127.811 90.5626 126.361 89.4526C120.421 84.9026 114.081 80.9426 107.501 77.3826C103.301 75.1226 99.0009 73.0426 94.4409 71.5626C93.8209 71.3626 93.2109 71.1626 92.6409 70.9826C92.5909 70.7826 92.5409 70.6826 92.5509 70.5826C92.5809 70.2226 92.6209 69.8626 92.6509 69.4926C93.0509 65.4226 93.5109 61.3426 93.7809 57.2426C94.0509 53.1426 94.2209 49.0126 94.1609 44.9026C94.0809 39.9826 93.7209 35.0626 93.4509 30.1426C93.3509 28.3626 93.2009 26.5926 92.9709 24.8226C92.8109 23.4226 92.6009 22.0226 92.3509 20.6226C92.0209 18.7726 91.6309 16.9326 91.1609 15.1026C90.4409 12.2526 89.5109 9.4526 88.5009 6.6926C88.0309 5.3726 87.1809 4.1826 86.4809 2.9526C86.3209 2.6726 86.0609 2.4526 85.8509 2.2126C85.6009 2.4926 85.3209 2.7526 85.1309 3.0726C84.8909 3.4626 85.0109 4.0826 84.3209 4.3026C84.1609 3.9526 84.0609 3.6126 83.8709 3.3326C83.6609 3.0226 83.3809 2.5626 83.1009 2.5426C82.8309 2.5226 82.4709 2.9326 82.2409 3.2226C81.8909 3.6826 81.6109 4.2026 81.2509 4.7726C80.9009 4.5026 80.6609 4.3926 80.5409 4.2026C80.2409 3.7326 80.0109 3.2126 79.7309 2.7326C79.1709 1.7826 78.7409 1.7526 78.0209 2.6226C77.7609 2.9426 77.5409 3.2826 77.2709 3.5926C75.9309 5.1126 74.7409 4.9626 73.8909 3.1626C73.7309 2.8426 73.6809 2.4726 73.5009 2.1726C73.3209 1.8926 73.0609 1.5026 72.8009 1.4726C72.5609 1.4426 72.2109 1.7726 72.0009 2.0226C71.6909 2.4126 71.5009 2.9026 71.1909 3.3026C70.1709 4.5926 68.7509 4.6226 67.6909 3.3826C67.4209 3.0826 67.2109 2.7326 67.0009 2.3826C66.0709 0.922597 65.8409 0.942597 64.8309 2.4226C64.4709 2.9626 64.0509 3.5126 63.5409 3.9026C62.5109 4.6926 61.4809 4.4526 60.8709 3.3126C60.6109 2.8326 60.5709 2.2426 60.3509 1.7326C60.2209 1.4426 59.9709 1.0426 59.7109 1.0026C59.4709 0.962597 59.1109 1.2626 58.8909 1.4926C58.4009 2.0026 58.0409 2.6526 57.4909 3.0826C56.3109 4.0226 55.2009 3.7926 54.4209 2.5226C54.1209 2.0426 53.9409 1.5026 53.6709 1.0226C53.2009 0.172597 52.7309 0.152597 52.2209 0.952597C51.9209 1.4326 51.7109 1.9626 51.4009 2.4126C50.3909 3.9026 49.1809 3.9426 48.0909 2.5326C47.6309 1.9326 47.3009 1.2226 46.8709 0.592597C46.3309 -0.187403 45.7609 -0.197403 45.1809 0.562597C44.9309 0.882597 44.7609 1.2626 44.5409 1.6026C43.7209 2.8426 42.8109 3.1926 41.4109 2.6926C40.8509 2.4926 40.3409 2.1226 39.8209 1.8126C39.1409 1.4026 38.4609 0.982597 37.7809 0.562597C37.6909 1.2926 37.8209 1.8226 37.9509 2.3426C38.5509 4.8126 39.2509 7.2626 39.7109 9.7526C41.0509 17.0526 41.7409 24.4326 42.1309 31.8426C42.2109 33.3126 42.3009 34.7926 42.4009 36.2626C42.5009 37.7826 42.6009 39.3126 42.6909 40.8326C42.8309 43.0626 42.9409 45.2926 42.9809 47.5226C43.1909 58.6526 42.8609 69.7826 40.8909 80.7826C39.9909 85.8226 38.9309 90.8426 37.9409 95.8726C37.8209 96.4626 37.6709 97.0626 37.5209 97.6526C37.4009 98.1426 37.1809 98.6626 37.6909 99.0526C38.2609 99.4826 38.6209 98.9726 39.0209 98.7026C39.3109 98.4926 39.5809 98.2526 39.8709 98.0526C41.6809 96.8126 42.9609 97.1826 43.8509 99.2126C44.0109 99.5826 44.0709 100.003 44.2509 100.363C44.4709 100.783 44.7809 101.153 45.0509 101.553C45.4509 101.273 45.9009 101.043 46.2309 100.693C46.7109 100.183 47.0609 99.5326 47.5709 99.0426C48.0309 98.5826 48.5609 98.1426 49.1509 97.9026C49.9009 97.5926 50.6509 97.7126 51.2109 98.1126C51.7309 98.4826 52.0909 99.1026 52.1309 99.8526C52.1609 100.563 52.1709 101.273 52.2009 101.983C52.3309 105.813 52.8309 109.583 54.2209 113.183C54.4909 113.883 54.3209 114.413 54.0309 115.043C52.4809 118.483 53.0309 122.103 55.7009 124.753C59.6309 128.653 64.2809 131.223 69.8709 131.833C70.6609 131.923 71.1909 132.213 71.5109 132.953C72.1709 134.493 72.8709 136.023 73.5809 137.543C75.0209 140.633 76.6609 143.633 78.9809 146.163C80.1509 147.443 80.8709 148.883 81.4509 150.483C82.9809 154.733 84.5109 158.983 86.1709 163.193C88.6709 169.513 92.2209 175.153 97.4409 179.623C102.261 183.733 107.561 186.953 113.851 188.243C114.521 188.383 114.761 188.783 115.051 189.263C118.471 194.813 121.671 200.483 124.721 206.233C125.181 207.113 125.651 207.993 126.101 208.873C126.301 209.243 126.501 209.613 126.691 209.993C126.851 210.323 127.001 210.693 127.251 210.953C127.741 210.793 128.231 210.613 128.711 210.433C128.711 210.413 128.701 210.393 128.701 210.373C128.601 209.783 128.321 209.213 128.031 208.683C127.911 208.453 127.791 208.233 127.661 208.003C127.251 207.223 126.831 206.433 126.401 205.663C124.351 201.833 122.301 198.003 120.181 194.213C119.211 192.493 118.021 190.893 116.871 189.283C115.931 187.973 114.721 187.173 113.041 186.813C108.531 185.863 104.671 183.473 100.991 180.803C94.4909 176.083 90.2009 169.683 87.3309 162.283C85.6509 157.933 84.1109 153.523 82.4509 149.153C82.0609 148.123 81.5909 147.053 80.8909 146.223C78.3909 143.243 76.4009 139.953 74.8009 136.413C74.1109 134.893 73.4009 133.373 72.7009 131.843C72.2509 130.883 71.5209 130.413 70.4409 130.303C65.4809 129.763 61.2109 127.623 57.4709 124.403C56.5709 123.633 55.7609 122.633 55.2009 121.583C54.1709 119.653 54.1509 117.583 54.9409 115.273C55.4809 116.253 55.8909 117.003 56.3009 117.753C57.6509 120.243 59.8009 121.213 62.5309 120.923C63.4809 120.823 64.4309 120.593 65.3409 120.293C65.8909 120.113 66.3509 120.033 66.9409 120.153C69.3309 120.623 71.4809 120.063 73.3109 118.433C73.7309 118.063 74.1309 117.683 74.5309 117.323C77.1009 119.053 80.8009 122.433 82.0609 124.413C80.0709 130.813 80.0409 135.783 82.1409 137.973C82.0809 136.913 82.0309 136.023 81.9809 135.143C81.7109 130.683 82.4709 126.443 84.5709 122.473C84.7409 122.143 85.0009 121.873 85.2209 121.573C87.2609 123.443 88.0209 125.683 87.9709 128.243C87.9409 129.823 87.9409 131.393 87.9209 132.973C87.8909 138.503 87.6209 144.043 88.5109 149.553C89.2509 154.083 90.6609 158.323 93.3809 162.073C95.3609 164.813 97.8909 167.013 100.411 169.223C100.441 169.223 100.561 169.143 100.661 169.083C99.1309 167.173 97.6209 165.273 96.1009 163.373C92.6809 159.093 90.7409 154.213 90.0009 148.793C89.4709 144.853 89.3509 140.903 89.4209 136.933C89.4809 133.783 89.4709 130.633 89.4809 127.483C89.4809 125.333 88.8809 123.383 87.4909 121.693C86.9409 121.033 86.4609 120.303 85.9309 119.623C80.2709 112.233 76.7309 103.863 74.6309 94.8626C74.1909 92.9526 74.0909 90.9226 74.1509 88.9626C74.2409 85.8326 75.8709 84.1926 78.9609 83.6026C82.1809 82.9826 85.1609 83.6426 87.8609 85.3726C89.6909 86.5426 91.4309 87.8926 93.0509 89.3426C99.0909 94.7626 104.521 100.723 108.751 107.703C110.111 109.963 111.651 112.123 113.171 114.293C114.011 115.493 114.981 116.613 115.921 117.743C116.101 117.953 116.451 118.023 116.721 118.153C116.801 118.063 116.891 117.973 116.971 117.893C114.371 113.463 111.661 109.103 108.781 104.653C109.861 104.203 110.731 103.793 111.631 103.463C114.181 102.513 116.791 101.743 119.701 101.793C119.401 101.013 118.841 100.893 118.341 100.733C117.031 100.323 115.721 100.533 114.421 100.813C112.291 101.283 110.281 102.053 108.401 103.283C109.121 100.693 110.771 98.6526 112.341 96.4526C111.151 96.0726 110.451 96.5926 109.851 97.3026C108.691 98.6926 107.741 100.223 107.251 102.183C102.181 95.1026 96.1909 89.2226 89.6309 84.0026C90.5409 80.3326 91.4409 76.7026 92.4109 72.7926C94.3409 73.5026 96.2109 74.1126 98.0309 74.8726C102.731 76.8326 107.211 79.2226 111.591 81.8126C117.541 85.3326 123.321 89.1126 128.631 93.5726C131.771 96.2026 133.711 99.4526 134.591 103.413C136.061 110.003 137.361 116.623 138.251 123.323C139.191 130.423 140.441 137.473 142.121 144.443C144.581 154.723 148.521 164.433 153.291 173.853C155.271 177.773 157.571 181.443 160.211 184.893C161.101 186.063 162.031 187.213 163.021 188.333C163.081 188.413 163.151 188.483 163.221 188.563C163.491 188.303 163.761 188.043 164.021 187.773C163.101 186.473 162.171 185.193 161.261 183.883ZM57.7309 117.713C56.3109 115.763 55.4409 113.543 54.7109 111.253C53.5409 107.663 53.3309 103.923 52.9709 100.183C53.1109 100.193 53.1809 100.183 53.2109 100.213C54.6409 101.823 54.7409 101.813 56.0409 99.9926C56.4709 99.3826 56.9409 98.7926 57.6209 97.9026C57.6909 98.6826 57.7409 99.1026 57.7609 99.5226C57.8709 103.343 58.3509 107.113 59.3409 110.813C60.1909 113.963 61.5409 116.813 64.1309 118.953C61.8909 120.193 59.1509 119.663 57.7309 117.713ZM72.3109 117.263C69.8709 119.403 66.6809 119.353 64.3209 117.113C62.7309 115.603 61.7609 113.713 61.1209 111.643C60.0509 108.243 59.3909 104.753 58.9309 101.223C58.8009 100.283 58.6909 99.3426 58.5809 98.3926C58.7309 98.3626 58.8809 98.3426 59.0409 98.3126C59.2309 98.8526 59.4309 99.4026 59.6309 99.9426C59.8109 100.423 59.6109 101.243 60.3509 101.253C60.7109 101.263 61.1209 100.723 61.4209 100.353C61.8409 99.8626 62.1609 99.2626 63.0809 99.1926C63.0109 102.663 64.5109 105.373 66.9909 107.593C69.5409 109.883 72.5209 110.433 75.8309 109.583C76.2009 110.753 75.5709 111.643 75.3109 112.583C74.8009 114.443 73.7609 116.003 72.3109 117.263ZM79.0509 111.953C79.6809 112.933 80.2109 113.973 80.8209 114.973C81.4009 115.923 82.0109 116.853 82.6209 117.783C83.2409 118.703 83.8709 119.613 84.5309 120.573C83.9509 121.293 83.3909 122.003 82.7409 122.813C81.5409 121.673 80.4009 120.483 79.1309 119.433C77.8909 118.413 76.5209 117.533 75.1209 116.523C76.4409 114.333 77.2809 111.953 77.1809 109.243C78.3309 109.883 78.4809 111.053 79.0509 111.953ZM74.3109 100.293C75.2809 102.923 76.1409 105.253 76.9909 107.563C72.0809 110.513 64.4809 106.003 64.1509 99.8126C64.4609 100.233 64.6509 100.513 64.8609 100.773C65.5009 101.583 65.9209 101.633 66.7609 100.983C66.8809 100.893 66.9809 100.773 67.1009 100.683C68.1509 99.8026 68.2409 99.7726 69.2409 100.703C69.7709 101.203 70.2509 101.263 70.8909 101.013C71.2409 100.883 71.7909 100.713 72.0109 100.883C72.9309 101.563 73.6109 101.253 74.3109 100.293ZM88.5109 81.8826C88.4009 82.2726 88.2809 82.6526 88.1209 83.2026C87.5609 82.9726 87.0609 82.7626 86.5609 82.5626C83.9109 81.4526 81.1709 81.1826 78.3509 81.7926C74.5509 82.6326 72.4409 85.2426 72.3009 89.1326C72.1909 92.2826 72.9409 95.2726 73.7509 98.2726C73.9009 98.7926 74.3709 99.4226 73.5009 99.9626C72.4609 99.3893 71.4042 99.2226 70.3309 99.4626C68.4209 98.1526 68.0009 98.1626 65.9009 99.6826C65.1109 98.8226 64.3109 97.7726 62.9609 97.8926C62.2509 97.9526 61.5709 98.3326 60.7209 98.6226C60.6309 98.4826 60.4209 98.1526 60.1909 97.8326C59.0709 96.2826 57.5409 96.1726 56.2109 97.5726C55.6509 98.1526 55.1909 98.8226 54.6109 99.5526C54.2309 99.1226 53.9109 98.7626 53.5909 98.3926C53.1509 97.8826 52.7009 97.4726 52.2509 97.1626C50.2609 95.7626 48.1709 96.1826 46.2309 98.3926C46.0309 98.6226 45.8409 98.8526 45.5609 99.1826C44.7609 98.1126 44.3609 96.7526 43.0709 96.1926C41.7809 95.6426 40.6109 96.0926 39.3209 96.7926C39.4209 96.2226 39.4609 95.8326 39.5509 95.4526C41.6709 86.6026 43.2909 77.6726 44.0409 68.5926C44.7209 60.2726 44.8809 51.9426 44.4909 43.6126C44.4309 42.3526 44.3709 41.0826 44.2909 39.8226C44.2209 38.2826 44.1309 36.7326 44.0209 35.1826C43.7409 30.5926 43.4009 26.0026 43.0009 21.4126C42.5609 16.3126 41.8009 11.2326 40.3509 6.2826C40.0609 5.2726 39.7209 4.2726 39.3209 3.0226C40.6109 3.7226 41.6509 4.4126 42.9709 4.3026C44.3809 4.1926 45.2209 3.3026 45.9409 2.1926C48.5709 5.7626 50.1509 5.7426 52.8809 2.8626C55.2009 5.5826 56.3309 5.6926 59.3309 3.4426C60.0709 4.5826 60.8509 5.7526 62.4509 5.6626C63.9609 5.5726 64.9409 4.6426 65.8509 3.3826C66.8309 4.3626 67.6309 5.5126 69.1609 5.5826C70.6409 5.6426 71.6609 4.9426 72.5509 3.7426C73.3509 4.8526 74.0809 5.9126 75.5509 5.9426C76.9709 5.9626 77.8209 5.0026 78.6709 4.0726C80.6009 6.4026 81.1609 6.5226 82.8009 5.1026C83.4209 5.3426 84.0209 5.7926 84.5809 5.7326C85.1509 5.6626 85.6809 5.1126 86.3809 4.6626C86.8709 6.0926 87.4409 7.5326 87.8609 9.0126C88.9509 12.8626 89.8709 16.7426 90.5409 20.6826C90.7809 22.0826 90.9909 23.4926 91.1709 24.9126C91.3809 26.6826 91.5409 28.4726 91.6409 30.2626C91.9109 35.2326 92.3409 40.2026 92.3609 45.1726C92.3909 51.9826 92.1309 58.7826 91.3909 65.5626C91.2209 67.0926 91.0409 68.6226 90.8409 70.1426C90.3109 74.1026 89.6109 78.0226 88.5109 81.8826Z" fill="black"/>
<path d="M117.481 117.903C119.581 118.003 122.101 119.873 122.281 121.363C121.371 121.363 119.081 119.733 117.481 117.903Z" fill="black"/>
<path d="M54.4709 13.0026C55.7809 13.0626 55.8009 13.0626 55.8209 14.1226C55.8509 16.0026 55.8509 17.8826 55.8709 19.7626C55.8709 20.2126 55.8709 20.6526 56.0909 21.1026C56.1409 19.6326 56.1809 18.1726 56.2509 16.7026C56.3009 15.7926 56.3909 14.8826 56.4809 13.9726C56.5209 13.5926 56.4909 13.0226 57.0709 13.1426C57.3109 13.1926 57.5509 13.7126 57.6009 14.0526C57.7109 14.7026 57.7109 15.3726 57.7109 16.0326C57.7109 18.6726 57.7109 21.3026 57.7109 24.0926C57.0809 24.1226 56.6109 24.1426 56.1009 24.1726C55.9709 23.7726 55.8709 23.4626 55.7409 23.0526C55.6609 23.4426 55.5909 23.7326 55.5209 24.0626H54.0009C54.0009 20.3626 53.9409 16.7326 54.4609 13.0026L54.4709 13.0026Z" fill="black"/>
<path d="M72.0909 13.7526C72.9109 13.4626 73.2209 13.7126 73.2809 14.3626C73.3509 15.2226 73.5009 16.0726 73.5109 16.9326C73.5409 19.1126 73.5109 21.2826 73.5109 23.4626C73.5109 23.9126 73.4409 24.3526 73.3909 24.8826H71.7309C71.6109 21.0826 71.9409 17.3926 72.0909 13.7526Z" fill="black"/>
<path d="M74.6409 25.0026C74.8009 21.2626 74.9509 17.6026 75.1109 13.8326L76.2109 13.8326C76.9409 17.5526 76.3809 21.2526 76.2309 25.0026H74.6409Z" fill="black"/>
<path d="M79.8309 25.3026C79.0809 25.2226 78.6609 25.1826 78.0609 25.1226C78.1709 21.3326 78.2709 17.6426 78.3809 13.9826C79.3309 13.5926 79.5209 14.1226 79.5609 14.7126C79.6809 16.1826 79.7809 17.6526 79.8209 19.1226C79.8609 21.1026 79.8309 23.0726 79.8309 25.3026Z" fill="black"/>
<path d="M66.8009 24.6526C66.3409 24.6126 65.9609 24.5826 65.4009 24.5426C65.3709 20.8326 65.7309 17.2226 65.8109 13.5926C66.5109 13.3226 67.0509 13.2326 67.0809 14.1126C67.1809 17.6026 67.1409 21.0926 66.8009 24.6526Z" fill="black"/>
<path d="M53.6309 13.0426C53.9109 16.6526 53.8409 20.2626 53.3709 23.9426H52.2609C52.1509 23.7726 52.0509 23.6926 52.0609 23.6126C52.1409 20.3826 52.2009 17.1526 52.3209 13.9126C52.3509 12.9626 52.4709 12.9226 53.6409 13.0426H53.6309Z" fill="black"/>
<path d="M63.1709 24.4026H61.8009V13.4926C62.8309 13.1426 62.8909 13.1526 63.0109 13.9726C63.1109 14.6226 63.1609 15.2826 63.1609 15.9426C63.1809 18.7126 63.1609 21.4926 63.1609 24.4126L63.1709 24.4026Z" fill="black"/>
<path d="M60.5009 24.3526C60.0709 24.3526 59.8309 24.3726 59.5909 24.3526C59.4009 24.3326 59.2109 24.2626 58.9809 24.2026C58.9409 23.7626 58.8609 23.3726 58.8709 22.9726C58.9009 20.0226 58.9409 17.0826 58.9909 14.1326C59.0009 13.5226 59.0909 12.9526 60.0609 13.2826C60.6009 16.9026 60.4209 20.5826 60.5109 24.3626L60.5009 24.3526Z" fill="black"/>
<path d="M70.7409 24.7326H69.3409C69.3109 24.2926 69.2409 23.9026 69.2609 23.5126C69.3709 20.5326 69.4809 17.5526 69.6109 14.5726C69.6409 13.9426 69.6809 13.2826 70.8409 13.6226C70.8909 17.2226 70.9209 20.8826 70.7409 24.7326Z" fill="black"/>
<path d="M83.8709 30.2826C84.6709 30.2526 85.2709 30.7226 85.3309 31.2226C85.4009 31.7626 84.8909 32.3126 84.3309 32.2926C83.8009 32.2726 83.1309 31.7326 83.2409 31.2726C83.3409 30.8626 83.7109 30.5226 83.8709 30.2826Z" fill="black"/>
<path d="M75.5409 30.5026C76.1609 30.4626 76.6609 30.8826 76.6609 31.4726C76.6609 32.0726 76.3409 32.4226 75.7709 32.5126C75.2009 32.6026 74.6309 32.1626 74.5609 31.6126C74.4909 31.0526 74.9509 30.5326 75.5409 30.5026Z" fill="black"/>
<path d="M71.8609 31.7326C71.6509 31.9126 71.3509 32.3326 70.9609 32.4626C70.4109 32.6426 69.6809 32.0126 69.7009 31.4726C69.7209 30.8826 70.0909 30.5926 70.6809 30.5626C71.3209 30.5326 71.8009 30.9026 71.8609 31.7426V31.7326Z" fill="black"/>
<path d="M51.8909 30.8226C51.6409 30.9726 51.2709 31.3526 50.8709 31.4026C50.3309 31.4626 49.9409 31.0526 49.9109 30.4726C49.8809 29.9826 50.3909 29.5926 50.9509 29.6226C51.5409 29.6526 51.9509 30.0526 51.9009 30.8226H51.8909Z" fill="black"/>
<path d="M61.0409 32.0626C60.1909 32.0026 59.6609 31.4126 59.8709 30.8926C60.0109 30.5426 60.4209 30.1726 60.7809 30.0726C61.3009 29.9326 61.9309 30.6126 61.7709 31.1226C61.6409 31.5226 61.2309 31.8326 61.0509 32.0626H61.0409Z" fill="black"/>
<path d="M78.8609 31.1826C79.1009 31.0026 79.4109 30.6126 79.8109 30.5026C80.3809 30.3426 80.9609 30.8126 81.0009 31.3626C81.0409 31.9326 80.7709 32.3226 80.1809 32.4226C79.5809 32.5226 78.9309 32.0226 78.8709 31.1826H78.8609Z" fill="black"/>
<path d="M65.9309 32.5626C65.4409 32.0126 65.0309 31.7126 64.8709 31.3126C64.7009 30.8926 65.3009 30.3326 65.8009 30.3826C66.3309 30.4426 66.8809 30.6826 66.8109 31.2726C66.7709 31.6526 66.3309 31.9926 65.9309 32.5626Z" fill="black"/>
<path d="M89.7409 31.4626C89.5509 31.5926 89.2409 31.9426 88.8809 32.0126C88.3409 32.1226 87.8109 31.4926 87.9009 30.9626C87.9909 30.4326 88.3409 30.2026 88.8609 30.2126C89.4209 30.2326 89.8009 30.6526 89.7509 31.4626H89.7409Z" fill="black"/>
<path d="M56.9209 30.8726C56.3809 31.2026 56.0509 31.5726 55.7809 31.5326C55.4909 31.4926 55.1209 31.1126 55.0109 30.8026C54.8709 30.3926 55.4409 29.8726 55.8609 30.0226C56.1809 30.1326 56.4209 30.4626 56.9109 30.8726H56.9209Z" fill="black"/>
<path d="M86.7509 5.7126C84.7709 8.6726 80.1009 9.7426 77.2109 7.5026C75.3709 8.6526 72.5309 7.2526 72.3309 5.0926C71.2509 7.8026 67.1409 8.6526 65.0809 6.5826C63.4709 8.3726 59.9409 7.4926 59.3609 5.1526C58.3809 7.5326 54.8709 8.3626 52.9309 6.6826C50.6409 8.5326 46.6709 7.4626 45.6109 4.7126C45.6309 5.8226 44.4109 6.7726 43.3409 6.4726C45.4709 20.9826 47.6009 35.5426 47.7609 50.2026C47.9209 64.8626 46.0409 79.7226 40.4109 93.2626C42.6809 92.7026 45.2609 93.9226 46.2609 96.0426C46.4609 93.9926 48.3109 92.2426 50.3509 92.1526C52.4009 92.0626 54.4009 93.6426 54.7809 95.6526C56.6809 92.8326 61.7409 93.2526 63.1609 96.3426C65.2409 94.9726 68.2109 95.1726 70.1009 96.7926C71.1009 96.5826 72.2109 96.4226 73.2709 96.4426C73.4209 97.0526 73.5809 97.6626 73.7509 98.2726C73.9009 98.7926 74.3709 99.4226 73.5009 99.9626C72.4609 99.3893 71.4042 99.2226 70.3309 99.4626C68.4209 98.1526 68.0009 98.1626 65.9009 99.6826C65.1109 98.8226 64.3109 97.7726 62.9609 97.8926C62.2509 97.9526 61.5709 98.3326 60.7209 98.6226C60.6309 98.4826 60.4209 98.1526 60.1909 97.8326C59.0709 96.2826 57.5409 96.1726 56.2109 97.5726C55.6509 98.1526 55.1909 98.8226 54.6109 99.5526C54.2309 99.1226 53.9109 98.7626 53.5909 98.3926C53.1509 97.8826 52.7009 97.4726 52.2509 97.1626C50.2609 95.7626 48.1709 96.1826 46.2309 98.3926C46.0309 98.6226 45.8409 98.8526 45.5609 99.1826C44.7609 98.1126 44.3609 96.7526 43.0709 96.1926C41.7809 95.6426 40.6109 96.0926 39.3209 96.7926C39.4209 96.2226 39.4609 95.8326 39.5509 95.4526C41.6709 86.6026 43.2909 77.6726 44.0409 68.5926C44.7209 60.2726 44.8809 51.9426 44.4909 43.6126C44.4309 42.3526 44.3709 41.0826 44.2909 39.8226C44.2209 38.2826 44.1309 36.7326 44.0209 35.1826C43.7409 30.5926 43.4009 26.0026 43.0009 21.4126C42.5609 16.3126 41.8009 11.2326 40.3509 6.2826C40.0609 5.2726 39.7209 4.2726 39.3209 3.0226C40.6109 3.7226 41.6509 4.4126 42.9709 4.3026C44.3809 4.1926 45.2209 3.3026 45.9409 2.1926C48.5709 5.7626 50.1509 5.7426 52.8809 2.8626C55.2009 5.5826 56.3309 5.6926 59.3309 3.4426C60.0709 4.5826 60.8509 5.7526 62.4509 5.6626C63.9609 5.5726 64.9409 4.6426 65.8509 3.3826C66.8309 4.3626 67.6309 5.5126 69.1609 5.5826C70.6409 5.6426 71.6609 4.9426 72.5509 3.7426C73.3509 4.8526 74.0809 5.9126 75.5509 5.9426C76.9709 5.9626 77.8209 5.0026 78.6709 4.0726C80.6009 6.4026 81.1609 6.5226 82.8009 5.1026C83.4209 5.3426 84.0209 5.7926 84.5809 5.7326C85.1509 5.6626 85.6809 5.1126 86.3809 4.6626C86.5009 5.0126 86.6309 5.3626 86.7509 5.7126Z" fill="white"/>
<path d="M52.1209 41.6426L52.9209 45.8126L88.8209 47.1526V42.6726" fill="black"/>
<path d="M52.5309 50.9926L52.8409 55.1626L66.8209 56.5026V52.0226" fill="black"/>
<path d="M52.5309 64.3126L53.2709 67.3526L86.7509 68.3426V65.0626" fill="black"/>
<defs>
<linearGradient id="paint0_linear_2310_99578" x1="0" y1="107.191" x2="192" y2="107.191" gradientUnits="userSpaceOnUse">
<stop stop-color="#A25A9F"/>
<stop offset="0.65" stop-color="#693068"/>
<stop offset="1" stop-color="#501D50"/>
</linearGradient>
<linearGradient id="paint1_linear_2310_99578" x1="52.74" y1="216.227" x2="213.088" y2="67.4281" gradientUnits="userSpaceOnUse">
<stop stop-color="#A3A3A3"/>
<stop offset="1" stop-color="#ECECEC"/>
</linearGradient>
</defs>
</svg>
