<svg id="Layer_2" data-name="Layer 2" xmlns="http://www.w3.org/2000/svg" xmlns:xlink="http://www.w3.org/1999/xlink" viewBox="0 0 192.62 195.74"><defs><linearGradient id="_Безымянный_градиент_8" data-name="Безымянный градиент 8" x1="79.95" y1="28.45" x2="145.68" y2="28.45" gradientUnits="userSpaceOnUse"><stop offset="0" stop-color="#ed6c2e"/><stop offset=".05" stop-color="#eb6b2c"/><stop offset="1" stop-color="#d2681a"/></linearGradient><linearGradient id="_Безымянный_градиент_4-5" data-name="Безымянный градиент 4" x1="69.6" y1="182.37" x2="86.96" y2="182.37" xlink:href="#_Безымянный_градиент_4"/><linearGradient id="_Безымянный_градиент_4" data-name="Безымянный градиент 4" x1="21.11" y1="37.11" x2="187.9" y2="37.11" gradientUnits="userSpaceOnUse"><stop offset="0" stop-color="#0abbef"/><stop offset=".24" stop-color="#0d9acf"/><stop offset=".76" stop-color="#14598e"/><stop offset="1" stop-color="#174075"/></linearGradient><linearGradient id="_Безымянный_градиент_14" data-name="Безымянный градиент 14" x1="2.28" y1="121.15" x2="93.44" y2="121.15" gradientUnits="userSpaceOnUse"><stop offset="0" stop-color="#76b82a"/><stop offset=".58" stop-color="#5b8d2b"/><stop offset="1" stop-color="#4c742c"/></linearGradient><linearGradient id="_Безымянный_градиент_4-2" data-name="Безымянный градиент 4" x1="30.81" y1="169.78" x2="96.31" y2="169.78" xlink:href="#_Безымянный_градиент_4"/><linearGradient id="_Безымянный_градиент_4-3" data-name="Безымянный градиент 4" x1="134.66" y1="94.24" x2="192.17" y2="94.24" xlink:href="#_Безымянный_градиент_4"/><linearGradient id="_Безымянный_градиент_11" data-name="Безымянный градиент 11" x1=".26" y1="97.57" x2="191.24" y2="97.57" gradientUnits="userSpaceOnUse"><stop offset="0" stop-color="#ee882c"/><stop offset=".16" stop-color="#ef8f28"/><stop offset=".42" stop-color="#f2a51f"/><stop offset=".73" stop-color="#f8c80f"/><stop offset="1" stop-color="#ffed00"/></linearGradient><linearGradient id="_Безымянный_градиент_14-2" data-name="Безымянный градиент 14" x1="115.16" y1="147.53" x2="138.74" y2="147.53" xlink:href="#_Безымянный_градиент_14"/><linearGradient id="_Безымянный_градиент_14-3" data-name="Безымянный градиент 14" x1="13.91" y1="38.08" x2="82.47" y2="38.08" xlink:href="#_Безымянный_градиент_14"/><linearGradient id="_Безымянный_градиент_8-2" data-name="Безымянный градиент 8" x1="128.48" y1="49.56" x2="148.19" y2="49.56" xlink:href="#_Безымянный_градиент_8"/><linearGradient id="_Безымянный_градиент_4-4" data-name="Безымянный градиент 4" x1="64.2" y1="176.27" x2="87.81" y2="176.27" xlink:href="#_Безымянный_градиент_4"/><style>.cls-14,.cls-4,.cls-7,.cls-8{stroke-width:0}.cls-4{fill:#000}.cls-7{fill:#76b82a}.cls-8{fill:#f4c6cc}.cls-14{fill:#fff}</style></defs><g id="_Наведение" data-name="Наведение"><g id="_3" data-name="3"><path d="M191.24 97.58c0 52.74-42.75 95.49-95.49 95.49-14.05 0-27.38-3.03-39.4-8.48a94.58 94.58 0 0 1-18.78-11.29h-.02c-1.42-1.1-2.8-2.24-4.15-3.4a95.796 95.796 0 0 1-20.47-24.76C4.87 131.13.26 114.89.26 97.58c0-52.74 42.75-95.5 95.49-95.5 39.82 0 73.95 24.38 88.28 59.03 4.64 11.24 7.21 23.55 7.21 36.47z" style="fill:url(#_Безымянный_градиент_11);stroke-width:0"/><path d="M21.11 38.01s9.85-13.28 19.35-18.3S59.64 9.15 59.64 9.15s21-9.26 36.12-7.07c15.11 2.19 33.89 5.55 40.64 8.39 6.75 2.85 20.88 11.97 30.63 23.55 9.75 11.59 16.68 24.27 16.68 24.27l4.2 14.19" style="fill:url(#_Безымянный_градиент_4);stroke-width:0"/><path d="M13.19 49.56s-8.52 17.03-10.14 25C1.44 82.53-.58 94.96.5 104.23c1.08 9.28 1.45 11.35 1.45 11.35L73.78 93.4l29.12-13.22-5.55-43.4-14.89-2.75-69.16 13.8" style="fill:#0abbef;stroke-width:0"/><path d="m93.44 92.32-11.53 51.84-51.1 22.83s-8.38-8.23-16.86-20.12c-2.28-3.2-4.18-6.96-5.73-10.76a68.34 68.34 0 0 1-1.53-4.01c-1.38-3.9-2.4-7.64-3.11-10.59-.9-3.74-1.3-6.23-1.3-6.23s11.13-8.75 20.63-13.65c2.91-1.5 6.5-2.96 10.07-4.26 8.06-2.93 16.05-5.05 16.05-5.05s5.2-4.91 13.17-10.29c7.96-5.38 18.33-6.72 18.33-6.72l12.91 17.01z" style="fill:url(#_Безымянный_градиент_14);stroke-width:0"/><path d="m63.21 152.93-32.4 14.05s17.1 14.64 28.72 18.76c11.62 4.12 25.43 6.58 25.43 6.58l11.35-20.55-9.35-24.55" style="fill:url(#_Безымянный_градиент_4-2);stroke-width:0"/><path d="M150.1 64.06s15.82.03 20.18 0 16.51 4.63 16.51 4.63l.9 3.01s6.93 19.84 3.55 31.72-4.54 21.01-4.54 21.01l-49.29-35.9-2.75-14.88" style="fill:url(#_Безымянный_градиент_4-3);stroke-width:0"/><path d="M129.99 39.14s6.04-1.87 7.96-2.37 5.67-.75 5.67-.75 3.57-8.75 1.33-11.58c-2.24-2.83-11.91-7.75-11.91-7.75s-10.13-2.77-12.59-2.83c-2.46-.07-5.89 1.83-5.89 1.83s-11.52-.42-14.6.42c-3.08.83-10.09 1.42-10.09 1.42s-4.29.33-4.77-.17-1.15-1.33-1.15-1.33-1.08 2.9 0 4.92c1.08 2.01 3.34 6.33 3.34 6.33s-5.83 1.17-7.33-1.67c0 0 2.5 10.42 7.42 14.67s11.2 2.58 15.35 1.58c0 0 5.25-4.61 12.16-7.22 6.9-2.61 13.23.95 15.11 4.5" style="fill:url(#_Безымянный_градиент_8);stroke-width:0"/><path class="cls-14" d="M148.18 69.45c-1.12 1.81-4.4 3.04-4.4 3.04l-5.05 1.41s-.48 4.5 0 7.63c.49 3.13 1.3 5.19 1.3 5.19l-4 11.15-2.12 5.98s-8.81 1.14-12.41.82c-2.08-.19-3.08-.28-3.55-.32-.35-.03-.42-.03-.42-.03l-2.98-8.54-1.28-5.04s-8.74-2.65-10.49-5.52c-1.75-2.88-5.76-10.19-5.76-10.19l-3.58-15.44-2.16-12.55.37-3.26s3.89-.22 8.62-1.6c1.43-.41 2.95-.93 4.45-1.59 6.46-2.81 8.76-5.93 12.01-6.62 3.24-.69 5.95-.35 9.22 1.58 3.27 1.92 4.39 4.17 4.39 4.17l.75 4.18 15.19 11.32s3 1.62 3.25 5c.25 3.37-.22 7.42-1.35 9.23z"/><path d="M117.77 106.86s10.13 2.29 17.76-.71-.75 79.6-.75 79.6l-16 4.65-3.62-85.73" style="stroke-width:0;fill:url(#_Безымянный_градиент_14-2)"/><path class="cls-14" d="m101.28 101.63 15.57 18.45 2.31 34.7 1 24.21-1.5 2.55 2.84 1.69-1.1 3.06.49 3.45s-34.57 5.23-35.28.17l2.86-12.37-2.06-5.31 2.12-3.94-3.44-20.19M167.66 101.03s-8.08-6.08-11.88-7.38c-3.79-1.29-8.58-2.33-8.58-2.33l-14.5 24.46s-2.16 8.76-1.29 24.25 1.29 44.24 1.29 44.24 18.33-8.11 25.71-15.99 10.6-10.52 10.6-10.52"/><path class="cls-8" d="m166.25 147.09 3.64 10.67 12.03-18.99h-3.39"/><path style="fill:url(#_Безымянный_градиент_14-3);stroke-width:0" d="m20.34 38.98 59.75-10.64 2.38 5.69-68.56 13.8"/><path class="cls-14" d="M108.47 89.99c-.99 1.28-1.89 2.48-2.83 3.66-.31.39-.71.72-1.08 1.07q-3.7 3.45-5.42 8.21a428.127 428.127 0 0 0-11.56 37.05c-.04.15-.08.3-.11.45-1.07 5.03-3.71 8.75-7.42 11.57-1.4 1.07-2.96 2.01-4.64 2.85-1.58.79-3.29 1.32-4.95 1.94-1.37.52-2.45.09-3.35-1.04-1.61-2.02-2.65-4.31-3.37-6.77-1.06-3.62-1.69-7.33-2-11.07-.14-1.68.2-3.45.64-5.1 1.02-3.88 2.22-7.7 3.38-11.54.35-1.16.78-2.31 1.22-3.59 2.61 1.06 5.14 2.09 7.81 3.18-.2.37-.36.72-.58 1.02-1.33 1.87-2.72 3.69-3.99 5.58-4.71 7.03-6.19 14.69-4.38 22.97.21.93.23.93 1.04 1.56.54-.49.36-1.09.29-1.68-.23-2.02-.63-4.03-.63-6.05 0-5.99 1.55-11.56 5.15-16.43 4.32-5.86 8.28-11.94 11.67-18.39 2.36-4.51 4.33-9.18 5.85-14.04.54-1.71.81-3.44.5-5.25-.11-.61-.3-1.06-.76-1.4-.65-.49-1.34-.92-1.99-1.41-1.48-1.14-3.04-2.21-4.39-3.5-1.6-1.52-2.16-3.48-1.87-5.71.39-3.09 1.62-5.85 3.15-8.51.05-.09.11-.17.17-.26 1.9-2.72 5.12-2.74 7.08-.01.38.53.66 1.09.89 1.68.39 1.02.58 2.1.71 3.19.12 1.1.1 2.24-.03 3.35-.12 1.13-1.01 2.25-1.63 2.18-1.13-.15-1.35-1.16-1.54-2.02-.19-.87-.32-1.75-.45-2.63-.09-.63-.18-1.26-.29-1.88-.12-.66-.35-1.31-.53-1.96l-.42.03c-.09.75-.18 1.51-.28 2.37h-3.21c.5 1.15.88 1.29 3.35 1.33.06.35.11.73.19 1.11.18.89.29 1.81.59 2.67.04.12.09.23.14.34.89 2.17 2.36 2.51 4.4 1.06.1.02.23 0 .28.06.91.87 2.13.06 3.02.5.99.49 1.87.72 2.88.28 1.33 1.77 2.55 3.57 3.94 5.23 1.39 1.65 3.21 2.79 5.36 3.75z"/><path class="cls-7" d="M188.36 127.73c-.38 1.24-.8 2.47-1.23 3.69-.08.21-.15.43-.23.64-.73.74-1.48 1.46-2.29 2.09-.8.63-1.62 1.24-2.44 1.84-.57.42-1.14.82-1.72 1.22l-.09.06c-2.62 1.81-5.33 3.48-8.1 5.04-.27.15-.55.31-.83.46-.95.53-1.9 1.04-2.86 1.53-.34.18-.69.36-1.04.54-.08.04-.17.09-.25.12-.45.24-.91.47-1.37.69-.71.36-1.43.71-2.15 1.05-.4.2-.83.33-1.33.53-.24-.54-.48-.98-.64-1.45-1.86-5.22-3.6-10.48-4.55-15.95-.73-4.22-1.24-8.46-.5-12.73a24.43 24.43 0 0 1 2.86-7.99c.58-1.01 1.31-1.95 2.11-2.79.89-.94 1.86-1.79 2.88-2.57h.01c1.03-.77 2.11-1.47 3.23-2.12.26.16.45.24.6.37 6.43 5.4 12.1 11.47 16.32 18.77.41.7.79 1.42 1.17 2.14.83 1.6 1.61 3.22 2.44 4.82zM88.93 89.95c-.04.27-.06.55-.09.84-.08.76-.15 1.56-.35 2.32-1.34 4.97-3.3 9.71-5.64 14.27-2.1 4.11-4.59 8.01-6.91 12-.13.22-.29.41-.5.7-3.14-2.16-6.59-3.36-10.04-4.93-.3-.13-.6-.27-.9-.41.16-.73.23-1.49.51-2.16 3.63-8.66 9.18-15.74 17.28-20.66 1.3-.79 2.66-1.49 3.99-2.22q1.17-.63 2.65.25z"/><path d="M145.81 54.06c-1.13-.14-2.03-.35-2.93-.36-2.62-.01-4.8.97-6.17 3.26-1.03 1.73-1.85 3.59-2.77 5.39-1.71-.43-3.56-.89-5.45-1.37 1.72-7.04 3.8-14.03 2.13-21.55 1.32-.47 2.69-.97 4.07-1.43.78-.26 1.25.26 1.62.83.84 1.32 1.25 2.78 1.31 4.33.06 1.36.01 2.73.01 4.02 1.54-2.02.94-6.7-1.3-9.61 1.72-.91 2.78-.76 3.93.69 1.34 1.69 1.96 3.65 1.93 5.81v2c1.69-2.09.88-5.8-2.02-9.31.62.03 1.11-.03 1.54.1 4.8 1.44 6.73 3.89 6.46 8.77-.17 2.97-1.27 5.71-2.35 8.42z" style="fill:url(#_Безымянный_градиент_8-2);stroke-width:0"/><path class="cls-14" d="M109.13 90.26c1.24.21 2.33.4 3.43.58.51 2.12.91 4.27 1.54 6.34.73 2.37 1.68 4.67 2.49 7.01.16.45.32.99.21 1.43-.86 3.68-1.08 7.43-1.11 11.19 0 .15-.06.29-.12.62-.28-.34-.49-.59-.69-.83-1.25-1.46-2.39-3.04-3.78-4.36-2.99-2.82-6.32-2.63-9.7.17-.41.34-.79.73-1.43 1.33.23-1.02.4-1.71.54-2.4.77-3.57 1.56-7.13 2.3-10.7.33-1.62.81-3.05 2.2-4.17 1.98-1.58 3.34-3.66 4.1-6.22zM146.77 112.09c-.97-.69-1.76-1.32-2.62-1.85-2.68-1.66-4.97-1.59-7.48.31-1.04.79-1.92 1.8-2.86 2.72-.32.31-.59.65-1.12.88.45-2.58.92-5.15 1.35-7.73.83-4.89 2.74-9.43 4.6-13.99.33-.8.66-1.59.94-2.41.69-1.95 1.07-3.91.31-5.95-.12-.32-.11-.68-.22-1.36.93.54 1.68.88 2.34 1.37 2.98 2.24 4.27 5.33 4.38 8.97.14 4.97.25 9.94.36 14.92.03 1.31 0 2.62 0 4.1z"/><path d="M81.66 178.61c-1.02.35-1.96.67-3.1 1.06v-3.85c-.96.85-1.04 1.16-1.16 4.28l-1.78.81c.08-1.5.14-2.76.21-4.02-.1-.03-.2-.06-.31-.09-.14.21-.36.41-.42.64-.21.89-.52 1.79-.52 2.68 0 1.13-.61 1.6-1.49 2.01-1.24.58-2.42 1.29-3.68 1.83-2.17.95-4.86-.49-5.2-2.83-.09-.62.2-1.42.59-1.94a8.01 8.01 0 0 1 2.12-1.94c1.8-1.13 3.6-2.33 5.56-3.12 4.96-2.02 10.01-3.84 15.33-5.85-.38.77-.63 1.3-.9 1.81-.31.58-.62 1.16-.95 1.74-.62 1.09-.52 2.11.19 3.13.56.82 1.04 1.69 1.61 2.62-1.77.25-3.3.47-4.9.7-.51-1.21.47-2.57-.34-3.87-.87 1.3-.77 2.69-.86 4.2z" style="fill:url(#_Безымянный_градиент_4-4);stroke-width:0"/><path d="M86.82 178.99c.07.21.13.31.13.4v2.49c-.32.1-.6.18-.88.26-2.71.81-5.45 1.56-8.14 2.45-2.63.86-5.25 1.52-8.34.93 5.55-3.09 10.98-5.76 17.22-6.53z" style="fill:url(#_Безымянный_градиент_4-5);stroke-width:0"/><path class="cls-14" d="M93.58 79.27c1.27-4.93-.18-9.8-3.72-12.64 1.26-.6 3.3-.45 4.19.36.24.22.34.6.45.93.81 2.61 1.6 5.22 2.42 7.83.42 1.35-.45 3.28-1.74 3.82-.56.23-1.07.27-1.59-.3zM133.53 104.31c-.13.63-.24 1.17-.37 1.81-3.21.45-6.4.95-9.65.63-1.71-.17-3.41-.47-5.11-.71-.47-.07-.77-.25-.56-.97 1.69.15 3.42.38 5.16.43 1.72.05 3.46.01 5.17-.19 1.75-.2 3.47-.64 5.36-1zM98.93 80.18h-2.28c.47-.74.81-1.26 1.26-1.96.35.67.62 1.19 1.02 1.96zM69.66 51.41c.48-.36.78-.57 1.08-.79.69-.51 1.32-1.15 2.08-1.52 2.42-1.17 4.85.55 4.65 3.25-.03.45-.21.88-.29 1.33-.05.31-.04.64-.06 1.13.46-.16.74-.21.98-.34.4-.22.76-.51 1.15-.74 1.58-.88 2.34-.86 3.32.05 1.2 1.11 1.73 2.94 1.1 4.15-.18.34-.64.65-1.02.74-5.5 1.41-11.03 2.73-16.52 4.19-8.14 2.16-16.31 4.22-24.21 7.19-.47.18-.96.32-1.44.49-.21-1.72 1.25-4.39 2.98-5.63 1.96-1.4 4.1-1.21 6.38-.55.13-.8.21-1.38.33-1.96.37-1.9 1.64-2.76 3.55-2.35.64.14 1.24.45 1.87.62.36.1.76.09 1.14.13 0-.37.09-.78-.02-1.12-1.34-4.18-.24-7.84 2.48-11.06 1.59-1.88 3.69-2.83 6.23-2.5 2.42.32 3.61 1.49 3.98 3.89.06.38.14.76.27 1.4zM15.3 91.53c0-1.62.8-2.78 2.04-3.7 1.28-.95 2.78-.78 4.33-.71.3-.62.54-1.22.86-1.78.76-1.33 1.56-1.57 2.9-.84.57.31 1.09.7 1.84 1.19.23-.74.43-1.33.59-1.93 1.01-3.85 3.53-6.18 7.3-7.2 1.19-.32 2.42-.29 3.56.32 1.55.83 2.57 1.98 2.35 3.88-.02.2 0 .4.04.6.02.09.1.17.26.43.4-.12.88-.2 1.31-.4 2.65-1.26 5.38-1.27 8.21-.43-.46.13-.92.27-1.39.37-5.43 1.25-10.92 2.32-16.29 3.8-6.01 1.66-11.96 3.56-17.57 6.36-.08.04-.19.03-.35.04z"/><path class="cls-8" d="M124.05 87.88c-2.04 5.59-4.08 11.18-6.11 16.77-.35-.03-.42-.03-.42-.03l-2.98-8.54-1.28-5.04s-8.74-2.65-10.49-5.52c-1.75-2.88-5.76-10.19-5.76-10.19l-3.58-15.44-2.16-12.55.37-3.26s3.89-.22 8.62-1.6h2.22c4.03 8.32 5.1 18.04 2.97 27.05l2.7.78c-.6 2.96 1.09 6.23 3.86 7.45-.59 3.13.62 6.53 3.06 8.58 2.43 2.05 6 2.66 8.98 1.54zM89.5 77.73c-.19-.87-.32-1.75-.45-2.63.01-.04.03-.07.04-.11.58-1.55 1.61-2.93 2.9-3.96.39 1.02.58 2.1.71 3.19.12 1.1.1 2.24-.03 3.35-.12 1.13-1.01 2.25-1.63 2.18-1.13-.15-1.35-1.16-1.54-2.02z"/><path class="cls-8" d="M108.47 89.99c-.99 1.28-1.89 2.48-2.83 3.66-.31.39-.71.72-1.08 1.07q-3.7 3.45-5.42 8.21a428.127 428.127 0 0 0-11.56 37.05c-.04.15-.08.3-.11.45-1.07 5.03-3.71 8.75-7.42 11.57-.13.03-.27.06-.41.09 6.16-18.46 11.16-37.3 14.98-56.38.42-2.1.82-4.32.07-6.32-.88-2.37-3.17-3.9-4.59-6a9.223 9.223 0 0 1-1.51-4.28c.89 2.17 2.36 2.51 4.4 1.06.1.02.23 0 .28.06.91.87 2.13.06 3.02.5.99.49 1.87.72 2.88.28 1.33 1.77 2.55 3.57 3.94 5.23 1.39 1.65 3.21 2.79 5.36 3.75z"/><path class="cls-4" d="M83.49 53.2c-1.11-1.31-2.17-1.56-3.81-.96-.32.12-.63.24-.98.36-.34-4.7-4.01-6.65-8.23-3.49-.11-.24-.23-.45-.31-.68-.75-2.09-2.32-3.13-4.44-3.45-2.65-.39-4.97.38-6.83 2.25-2.96 2.97-4.29 6.58-3.79 10.8.05.38.04.77.06 1.18-4.05-.82-5.13-.18-6.33 3.74-2.55-.66-4.87-.1-6.72 1.76-1.78 1.8-2.93 3.93-2.74 6.86 1.55-.42 2.86-.73 4.16-1.12 7.49-2.22 14.95-4.53 22.46-6.66 5.61-1.6 11.27-3 16.92-4.45.84-.21 1.32-.65 1.57-1.45.56-1.76.17-3.31-.99-4.69zm.18 4.73c-.17.34-.63.65-1.02.75-5.5 1.41-11.03 2.73-16.52 4.19-8.14 2.16-16.31 4.22-24.21 7.19-.48.18-.96.32-1.45.48-.21-1.72 1.25-4.39 2.99-5.62 1.96-1.41 4.09-1.22 6.38-.56.13-.79.21-1.38.32-1.96.37-1.9 1.65-2.76 3.55-2.34.64.13 1.24.44 1.87.62.37.1.76.08 1.14.12 0-.37.09-.77-.02-1.11-1.34-4.18-.23-7.84 2.48-11.06 1.59-1.88 3.69-2.83 6.23-2.5 2.43.32 3.61 1.49 3.98 3.89.06.38.14.75.27 1.4.48-.36.78-.58 1.08-.8.69-.51 1.31-1.15 2.07-1.51 2.42-1.18 4.85.55 4.65 3.24-.04.45-.21.89-.29 1.33-.05.32-.04.64-.06 1.14.45-.16.74-.22.98-.35.4-.22.76-.51 1.16-.73 1.57-.89 2.34-.87 3.32.05 1.2 1.11 1.73 2.93 1.1 4.14zM42.28 80.28c-.04-.08-.12-.16-.13-.25-.55-3.11-3.12-5.04-6.22-4.67-4.1.5-7.72 3.59-8.87 7.57-.11.38-.23.77-.35 1.15-3.48-1.23-3.9-1.08-5.52 2.11-4.52.09-7.16 2.55-6.51 5.95.69.43 1.28-.03 1.86-.27 7.81-3.21 15.8-5.84 24.04-7.69 3.57-.8 7.15-1.53 10.72-2.32.6-.13 1.16-.41 1.79-.64-1.47-2.16-5.32-2.43-10.81-.94zm7.23 1.05c-5.44 1.25-10.92 2.32-16.29 3.8-6.01 1.66-11.96 3.56-17.57 6.36-.08.04-.19.02-.35.04 0-1.62.8-2.78 2.03-3.7 1.29-.95 2.79-.78 4.34-.71.29-.61.54-1.22.86-1.78.76-1.33 1.56-1.56 2.9-.84.56.31 1.08.7 1.84 1.19.23-.74.44-1.33.59-1.93 1.01-3.85 3.53-6.18 7.3-7.2 1.2-.33 2.42-.29 3.56.31 1.55.83 2.57 1.98 2.35 3.89-.02.19.01.4.04.6.01.09.1.17.26.43.4-.12.89-.2 1.31-.4 2.65-1.26 5.38-1.27 8.21-.44-.46.13-.92.27-1.38.38zM144.71 58.67c.48.92.16 1.46-.39 1.92-.91.76-1.94 1.28-3.11 1.51-.67.13-1.33.33-1.99.49.14 1.1.91 1.3 1.59 1.63.63.3 1.31.58 1.83 1.03.94.83.97 1.86.23 2.85-1.3 1.73-4.79 1.85-6.49.04.53.05.89.12 1.25.11 1-.02 2.02 0 3-.15.66-.1 1.31-.52 1.37-1.25.05-.69-.59-1-1.14-1.27-.41-.2-.89-.3-1.23-.57-.5-.4-1.03-.85-1.34-1.39-.53-.94-.17-1.79.85-2.2.46-.19.97-.28 1.47-.36 1.6-.27 2.89-1.12 4.11-2.38zM106.57 58.08c1.2 1.82 1 3.79-1.01 10.93 1.21.35 2.43.71 3.65 1.07 0 .1-.02.2-.03.3-.21.1-.41.26-.63.28-1.35.13-2.62-.19-3.81-.82-.56-.29-.79-.7-.47-1.37 1.35-2.89 1.83-5.99 2.13-9.14.03-.37.1-.74.17-1.24zM114.55 56.71c.12-.85.07-1.4.29-1.83.17-.34.63-.68 1-.74.3-.05.83.25.97.54.76 1.52 1.1 3.16.88 4.85-.09.67-.67 1.03-1.3 1.11-.58.07-.97-.34-1.11-.86-.3-1.11-.53-2.25-.73-3.07zM100.57 59.97c-.13 1.27-.42 1.89-1.1 2.04-.66.15-1.29-.33-1.62-1.5-.27-.96-.43-1.98-.48-2.98-.05-.98.41-1.57 1.04-1.62.81-.07 1.22.46 1.42 1.13.29.96.5 1.95.75 2.92zM113.95 72.48c1.18.79 2.02 1.75 2.73 2.83.08.12.05.46-.06.54-.17.14-.5.26-.66.18-.43-.23-.81-.56-1.3-.92-2.12 2.64-4.6 4.54-8.13 4.21-.06-.13-.11-.25-.17-.38.43-.13.86-.3 1.3-.38 2.56-.44 4.37-1.99 6-3.89.59-.69-.06-1.35.28-2.2zM111.49 50.91c-.57-2.3.78-4.49 2.79-4.94 2.02-.45 3.8.26 5.44 1.37.19.13.22.5.33.77-.3.11-.62.33-.91.29-.39-.04-.75-.29-1.12-.44-.57-.21-1.12-.47-1.71-.61-1.67-.38-2.83.13-3.73 1.61-.33.55-.63 1.13-1.08 1.95zM93.18 51.01c.07-.53.04-.82.15-1.05.64-1.37 2.34-2.28 3.9-2.1 1.61.19 2.99.94 4.23 1.92.24.19.45.74.35.99-.2.5-.67.28-1.03.08-.62-.34-1.22-.71-1.85-1.04-1.97-1.04-3.65-.78-4.97.66-.15.16-.37.26-.78.55z"/><path class="cls-14" d="M188.36 127.73c-.38 1.24-.8 2.47-1.23 3.69-.98-1.85-1.97-3.69-2.96-5.54-2.45-4.59-4.92-9.21-8.19-13.26-3.05-3.79-6.87-7.08-11.38-8.87 1.03-.77 2.11-1.47 3.23-2.12.26.16.45.24.6.37 6.43 5.4 12.1 11.47 16.32 18.77.41.7.79 1.42 1.17 2.14.83 1.6 1.61 3.22 2.44 4.82zM88.93 89.95c-.04.27-.06.55-.09.84-5.08 1.64-9.49 5.05-13.04 9.07-3.83 4.34-6.76 9.37-9.67 14.37-.19.34-.43.7-.73.92-.3-.13-.6-.27-.9-.41.16-.73.23-1.49.51-2.16 3.63-8.66 9.18-15.74 17.28-20.66 1.3-.79 2.66-1.49 3.99-2.22q1.17-.63 2.65.25z"/><path class="cls-7" d="M132.7 115.16c.86-.91 1.72-1.83 2.61-2.71.88-.87 1.8-1.73 2.93-2.23 1.74-.77 3.87-.57 5.43.51.31.21.6.47.74.81.11.26.12.56.13.84.03.73.05 1.45.08 2.18-1.46-.26-3-.05-4.35.59-1.04.49-1.95 1.22-2.84 1.94-1.8 1.46-3.61 2.92-5.41 4.37.63-2.08-.01-4.18 0-6.35M102.18 112.81c.08 1.49-.14 3-.63 4.42 2.15-1.34 4.86-1.56 7.33-1.01s4.74 1.78 6.84 3.18c-.29-1.3-1.09-2.41-1.92-3.45-.96-1.19-1.98-2.35-3.21-3.26s-2.66-1.59-4.19-1.73-3.13.28-4.25 1.32"/><path class="cls-14" d="M50.99 122.55c-14.93 1.6-29.31 6.63-42.77 13.32a68.34 68.34 0 0 1-1.53-4.01l.08-.22c2.29-1.4 4.8-2.39 7.33-3.28 11.81-4.14 24.38-6.13 36.89-5.81zM54.36 92.46s-19.41 7-28.75 11.15c-7.13 3.18-17.52 13.13-22.03 17.66-.9-3.74-1.3-6.23-1.3-6.23s11.13-8.75 20.63-13.65c2.91-1.5 6.5-2.96 10.07-4.26 9.62-2.53 21.38-4.67 21.38-4.67z"/><path class="cls-4" d="M192.61 97.58c-.03-1.62-.1-3.24-.21-4.85-.3-4.71-.95-9.39-1.94-13.99-.36-1.67-.77-3.34-1.21-4.99a101.05 101.05 0 0 0-4.49-13.04 100.197 100.197 0 0 0-20.92-31.23 99.518 99.518 0 0 0-14.47-12.15 95.808 95.808 0 0 0-16.55-9.27A96.82 96.82 0 0 0 95.75 0C82.98-.14 70.13 2.3 58.36 7.31c-1.48.6-2.92 1.31-4.37 1.97-1.45.68-2.85 1.46-4.27 2.19-1.4.76-2.75 1.62-4.13 2.42-1.35.85-2.67 1.76-4 2.63-5.26 3.61-10.09 7.82-14.48 12.42a93.766 93.766 0 0 0-8 9.58 94.025 94.025 0 0 0-5.64 8.66c-.23.39-.46.78-.68 1.18-2.24 4-4.21 8.16-5.87 12.42-2.26 5.87-4.05 11.92-5.17 18.09C.59 85.04-.02 91.31 0 97.58c-.03 6.27.57 12.54 1.72 18.7 1.12 6.18 2.9 12.23 5.16 18.11 4.58 11.72 11.41 22.65 20.18 31.88 8.74 9.22 19.41 16.76 31.22 21.77 11.78 5.08 24.63 7.6 37.47 7.7 12.38-.01 24.8-2.33 36.28-7.01.38-.14.75-.29 1.12-.45.05-.02.09-.04.14-.06 11.84-4.99 22.64-12.34 31.64-21.46 1.88-1.9 3.68-3.88 5.38-5.93.33-.38.64-.76.95-1.14a95.907 95.907 0 0 0 13.91-23.27c.23-.51.43-1.02.64-1.53.38-.93.74-1.87 1.09-2.82.52-1.44 1.01-2.88 1.46-4.34.21-.66.4-1.32.59-1.99a94.692 94.692 0 0 0 3.28-17.89c.31-3.42.43-6.85.38-10.27zm-4.88 18.3c-.38 1.73-.8 3.45-1.28 5.15-.16.63-.34 1.25-.53 1.88a97.926 97.926 0 0 1-3.77 10.46c-.57 1.32-1.16 2.62-1.79 3.9-.4.83-.81 1.65-1.23 2.46a95.546 95.546 0 0 1-9.82 15.1c-.31.4-.64.8-.96 1.19a96.88 96.88 0 0 1-6.75 7.42 93.08 93.08 0 0 1-28.54 19.22c-.44.19-.88.38-1.33.56-.14.06-.29.12-.44.18a99.092 99.092 0 0 1-10.21 3.5c-.39.11-.78.21-1.17.32-2 .53-4.02 1-6.05 1.4-5.96 1.19-12.04 1.75-18.11 1.78-3.2.02-6.41-.13-9.6-.45-.42-.03-.84-.08-1.25-.13a88.94 88.94 0 0 1-7.29-1.09c-5.97-1.15-11.83-2.9-17.49-5.14-1.42-.55-2.8-1.21-4.2-1.8-1.39-.63-2.74-1.34-4.11-2.01-1.1-.56-2.18-1.17-3.27-1.77-.25-.14-.5-.27-.75-.41-.28-.16-.56-.32-.84-.49-1.03-.61-2.05-1.26-3.08-1.88-.53-.34-1.05-.69-1.58-1.04-.45-.29-.89-.6-1.33-.91a93.99 93.99 0 0 1-8.83-6.86c-.36-.3-.72-.62-1.08-.95-.56-.5-1.11-1.01-1.66-1.53-8.91-8.46-16.27-18.7-21.25-30.08-.29-.66-.58-1.33-.85-2-.07-.16-.13-.31-.19-.47-2-4.92-3.53-10.05-4.65-15.25-.06-.28-.12-.56-.17-.84v-.02C1.11 109.46.55 103.52.5 97.58c.04-6.23.65-12.47 1.92-18.57 1.31-6.08 3.16-12.06 5.69-17.73 2.04-4.68 4.48-9.15 7.27-13.39.29-.46.59-.91.89-1.35 1.8-2.63 3.72-5.16 5.77-7.59.4-.49.82-.98 1.25-1.46 1.92-2.2 3.94-4.31 6.04-6.32 4.46-4.25 9.34-8 14.47-11.34 1.31-.8 2.59-1.63 3.91-2.39 1.35-.73 2.67-1.51 4.03-2.2 1.37-.68 2.71-1.4 4.1-2.03 1.4-.61 2.78-1.27 4.2-1.83C65.7 9.1 71.56 7.31 77.55 6.1c5.98-1.17 12.08-1.87 18.2-1.93 12.23-.19 24.54 1.95 36.01 6.46a94.856 94.856 0 0 1 16.46 8.4c5.19 3.37 10.06 7.25 14.47 11.6 8.82 8.71 15.87 19.24 20.5 30.73.87 2.12 1.65 4.27 2.34 6.45.28.85.53 1.7.77 2.56 2.54 8.84 3.69 18.05 3.57 27.21a94.48 94.48 0 0 1-2.14 18.3z"/><path class="cls-4" d="M140.68 73.83c5.18-.52 8.23-3.18 9.45-8.25.08-.34.21-.66.32-.99 1.84.07 3.62.18 5.39.21 5.74.1 11.49-.02 17.21.64 3.81.45 7.47 1.37 10.86 3.29.87.49 1.67 1.04 2.39 1.64 1.18.98 2.16 2.11 2.95 3.38-.36-1.32-.74-2.64-1.15-3.94-.78-.74-1.63-1.41-2.57-2-1.25-.81-2.63-1.5-4.16-2.08-3.31-1.26-6.77-1.83-10.26-2.09-6.24-.46-12.5-.47-18.75-.05-.58.04-1.18.05-1.9.09.17-3.59-.51-6.73-3.56-8.87.26-.47.46-.82.64-1.17 1.61-3.11 2.77-6.33 2.49-9.92-.27-3.5-1.92-6.03-5.28-7.32-.28-.11-.55-.24-.72-.31.7-1.2 1.6-2.29 2.03-3.54 1.24-3.63.54-7.02-1.77-10.06-1.22-1.6-2.81-2.77-4.58-3.72-5.01-2.71-10.29-4.55-16.01-5.08-3.34-.3-6.59-.16-9.67 1.34-.42.21-.97.25-1.44.21-1.47-.1-2.93-.35-4.39-.43-4.3-.22-8.51.44-12.7 1.31-2.28.47-4.6.88-6.92 1.08-1.62.14-3.25-.16-4.33-1.7-.23-.32-.7-.48-1.06-.71-.22.37-.49.71-.66 1.1-.12.27-.13.6-.14.9-.07 2.45.5 4.76 1.76 6.84.44.72 1.15 1.27 1.79 1.84.43.39.95.45 1.58 0-3.08-2.09-4.01-5.02-4-8.72 2.21 2 4.58 2.16 7.06 1.77 1.66-.27 3.32-.51 4.95-.88 5.91-1.36 11.84-1.84 17.84-.71 4.46.83 8.48 2.55 11.61 5.91 1.45 1.55 2.69 3.3 4.02 4.96.22.27.47.51.7.77-.03-1.66-.78-2.92-1.63-4.11-3.18-4.46-7.48-7.34-12.77-8.85.63-.21 1.2-.28 1.77-.37 5.08-.8 6.75-.32 10.58 3.03.16.13.31.26.46.41 2.18 2.12 4 4.47 4.52 7.59.03.18.13.35.2.52.16-.68.15-1.33.02-1.96-.68-3.27-2.38-5.9-5.03-7.93-.4-.31-.77-.65-1.35-1.14 6.36.34 8.41 4.57 9.69 9.58.53-2.92-1.03-5.13-2.38-7.44 2.59 1.07 5.09 2.15 7.28 3.84 4.46 3.44 5.06 9.69 1.5 13.84-3.31-.29-6.35.75-9.31 2.19-1.08.52-2.26.83-3.26 1.18-.69-.45-.69-1.31-1.66-1.44.29.59.41 1.13.74 1.45 1.11 1.06 1.18 2.41 1.21 3.77.03 1.32.09 2.66-.09 3.96-.63 4.53-1.47 9.03-2.86 13.4-.47 1.49-.31 1.88 1.2 2.31 1.85.53 3.72 1.02 5.58 1.52.18.05.38 0 .62 0 .08-.24.18-.42.21-.61.35-2.28 1.55-4.17 2.86-5.99 1.49-2.08 3.62-2.77 6.04-2.4 2.52.38 4.19 1.93 4.99 4.37.56 1.68.56 3.41.31 5.13-.72 4.8-3.74 8.41-9.37 8.34-1.51-.01-1.74.2-1.89 1.7-.03.4-.04.81-.04 1.22 0 3.32.49 6.59 1.23 9.81.28 1.19.27 2.29-.15 3.41-.78 2.09-1.59 4.18-2.37 6.27-.99 2.66-1.95 5.32-2.96 8.06-5.16 1.39-10.43 1.67-15.84.51-2.31-3.96-3.06-8.48-4.48-13 3.42.11 6.43-.53 9.29-1.83 2.85-1.3 5.56-2.8 7.23-5.64-1.16.61-2.28 1.28-3.35 2.01-4.13 2.85-8.62 4.48-13.72 4.27-2.24-.09-4.29-.69-6.17-1.91-1.95-1.27-3.46-2.97-4.78-4.87-2.48-3.59-4.21-7.52-5.41-11.71-2.07-7.19-3.37-14.54-4.18-21.97-.19-1.65-.23-3.32-.33-5.01.51 0 .82-.04 1.11.01 2.31.38 4.56.05 6.77-.62 3.62-1.11 6.94-2.85 10.13-4.86 1.64-1.03 3.27-2.06 4.95-3.01 4.2-2.38 9.03-1.95 12.8 1.07.1.07.25.08.37.11-.26-.52-.61-.94-1.04-1.25-3.09-2.23-8.25-3.82-12.94-1.13-1.76 1.01-3.5 2.06-5.23 3.13-3.12 1.93-6.38 3.57-9.93 4.55-4.79 1.33-8.82.15-12.14-3.54-1.54-1.71-2.89-3.56-3.77-5.7-.69-1.69-1.28-3.42-1.9-5.14-.11-.29-.12-.61-.21-1.14.42.28.62.42.82.57 2.09 1.54 4.41 1.86 6.79.96 1.55-.59 3.04-1.4 4.47-2.26 1.3-.78 2.47-1.78 3.7-2.68 4.18-3.04 8.53-3.25 12.99-.67 1.49.86 2.92 1.83 4.4 2.74.21.13.48.15.72.22l.17-.26c-.56-.56-1.06-1.22-1.7-1.67a40.21 40.21 0 0 0-3.76-2.3c-4.02-2.14-8.15-2-12.19-.2-1.7.75-3.16 2.02-4.75 3.01-1.21.74-2.42 1.49-3.7 2.1-2.53 1.24-4.92.86-7.15-.8-.83-.63-1.66-1.25-2.6-1.95-.49 1.56.36 2.91.28 4.36-1.9.26-3.76.48-5.6.77-7.38 1.16-14.77 2.23-22.12 3.54-8.85 1.57-17.67 3.3-26.49 5.06-.61.12-1.21.25-1.81.39-1.4.32-2.79.67-4.18 1.04-.28.38-.55.76-.82 1.14l3.75-.72c8.35-1.59 16.62-3.17 24.89-4.72 10.92-2.05 21.89-3.74 32.87-5.41.6 1.7 1.14 3.26 1.73 4.93-7.1 1.2-14.02 2.37-21.03 3.56.36-1.03.67-1.91.98-2.78-.11-.05-.21-.09-.31-.13-1.05.81-1.41 2.09-1.94 3.25-1.54.3-3.01.6-4.66.93.45-1.12.81-2.02 1.17-2.93-1.44.63-1.71 1.96-2.31 3.16-1.09.23-2.21.47-3.42.72.32-1.4 1.36-2.35 1.3-3.7-1.05.86-1.74 1.95-2.3 3.14-.16.34-.39.79-.68.89-.85.28-1.75.41-2.83.63.29-.72.54-1.21.69-1.73.15-.54.62-1.04.19-1.97-.55 1.03-1.08 1.82-1.4 2.69-.36.96-.92 1.4-1.95 1.59-2.7.49-5.36 1.14-8.05 1.7-4.47.94-8.92 1.97-13.42 2.76-1.77.31-3.54.64-5.29 1.01-.94.2-1.87.41-2.8.65-.23.39-.46.78-.68 1.18l2.59-.48c6.02-1.09 12.07-2.04 18.05-3.44 10.33-2.42 20.76-4.42 31.17-6.53 5.76-1.17 11.56-2.19 17.39-3.29 2.24 3.93 5.01 7.23 9.2 9.07.03 7.33 1.16 14.52 2.61 21.83-1.89-.71-3.43-.59-4.9.41-.28.2-.76.18-1.14.14-1.11-.12-2.19.02-3.01.77-.81.74-1.6 1.59-2.15 2.53-.79 1.35-1.42 2.81-2 4.27-.3.74-.65 1.1-1.47 1.26-1.79.36-3.56.84-5.31 1.37-1.2.36-2.35.87-3.62 1.35-.52-1.33-1-2.61-1.51-3.88-.48-1.17-.94-2.35-1.49-3.5-.22-.45-.64-.81-1-1.26-.76.64-.62 1.34-.65 1.97-.09 2.69-.18 5.38-.22 8.08-.01.9-.33 1.41-1.17 1.49-1.51-1.85-1.7-4.39-3.67-6.17-.2.65-.39 1.01-.42 1.39-.21 2.12-.45 4.25-.51 6.38-.04.96-.28 1.55-1.08 2.13-3.21 2.33-6.43 4.64-9.21 7.5-.23.23-.58.42-.9.46-4.29.63-8.45 1.77-12.57 3.06-.27.08-.58.06-.88.1-.46-.82-.86-1.59-1.33-2.31-.89-1.35-1.8-2.7-2.76-4.01-.3-.42-.65-.98-1.49-.58-.5 2.96.08 5.98.28 9-2.82 1.33-5.55 2.62-8.31 3.92-.56-.76-1.03-1.35-1.47-1.97-.78-1.07-1.51-2.17-2.33-3.2-.24-.31-.74-.41-1.12-.6-.19.39-.43.76-.55 1.16-.09.33-.06.71-.02 1.06.16 1.72.35 3.44.51 5.16.04.36.01.73.01 1.43-.42-.5-.63-.7-.78-.93-.6-.95-1.17-1.91-1.77-2.85-1.49-2.3-2.98-4.61-4.51-6.88-.31-.46-.82-.79-1.2-1.14-.93.6-.81 1.37-.77 2.05.23 3.55.49 7.09.77 10.64.1 1.31.29 2.61.42 3.84-1.24 1.02-2.4 1.92-3.51 2.89-1.05.93-2.2 1.81-2.71 3.22v.02c2-1.3 3.9-2.72 5.82-4.13 4.63-3.43 9.57-6.34 14.74-8.86.28-.13.59-.17.97-.27-.06.26-.06.37-.11.45-.22.4-.46.8-.69 1.19-4.43 7.62-8.25 15.52-10.71 24.02-.17.59-.48.94-1.02 1.22-1.3.69-2.57 1.43-3.84 2.18-.13.08-.23.18-.34.29-.1.12-.2.24-.31.35l.18.27c.11-.05.21-.1.32-.15 3.64-1.76 7.31-3.37 11.2-4.5 4.01-1.16 8.03-2.27 12.36-2.89-1.72 4.93-3.83 9.48-4.22 14.52 2.07-4.78 3.8-9.68 5.19-14.73 1.18-.17 2.27-.33 3.53-.5-.75 2.27-1.47 4.36-2.14 6.47-.66 2.09-1.41 4.16-1.36 6.42 2.24-4.07 3.36-8.53 4.57-13.06 1.47-.14 2.91-.28 4.51-.43-.6 1.98-1.18 3.76-1.68 5.55-.49 1.74-1.17 3.47-.72 5.35 1.61-3.48 2.54-7.15 3.44-11.03 3.61-.16 7.23-.31 10.85-.47-1.15-.81-2.42-.97-3.66-.97-3.05.01-6.1.02-9.14.25-9.02.67-17.78 2.58-26.21 5.9-.29.12-.61.14-1.09.25 1.16-2.84 2.1-5.53 3.34-8.08 2.99-6.12 6.12-12.17 9.2-18.23.18-.35.44-.74.76-.9 1.72-.83 3.46-1.6 5.2-2.39-.65 1.6-1.48 2.97-2.26 4.36-.79 1.43-1.56 2.86-2.29 4.31-.73 1.45-1.4 2.93-2.09 4.41-.69 1.47-1.33 2.96-2.03 4.43-.7 1.47-1.47 2.9-2.16 4.38-.65 1.4-1.49 2.74-1.71 4.32.22-.12.35-.28.43-.45 3.89-8.52 8.56-16.62 12.9-24.9.45-.87.89-1.67 2-1.87.94-.16 1.77-.81 2.82-.74-1.6 2.71-3.21 5.29-4.67 7.96-1.43 2.63-2.79 5.31-4.02 8.04-1.24 2.72-2.74 5.31-3.65 8.18.4-.42.67-.9.93-1.38 1.14-2.16 2.23-4.34 3.41-6.48 2.96-5.39 5.95-10.76 8.94-16.13.17-.3.35-.73.62-.82 1.42-.43 2.86-.78 4.6-1.23-2.71 5.04-5.54 9.59-7.76 14.47.29-.14.51-.33.67-.57 2.74-4.22 5.43-8.47 7.48-13.08.35-.78.79-1.21 1.66-1.32 2.32-.29 4.62-.75 6.94-.96 4.35-.39 8.72-.69 13.09-.16 2.32.28 4.63.65 6.93 1.04.79.14 1.26.01 1.43-.89-3.83-.85-7.61-1.67-11.49-1.69-3.81-.02-7.62.1-11.65.17 5.15-4.23 10.12-8.35 16.1-11.04-1.71 2.93-3.81 5.61-4.78 9 .22-.07.35-.07.38-.13 1.85-3.03 3.69-6.07 5.53-9.11.15-.25.24-.61.46-.72.88-.42 1.73-.96 2.9-1.2-1.54 2.74-3.44 5.05-4.12 7.99.33-.2.57-.45.74-.74 1.37-2.26 2.82-4.48 4.03-6.82.6-1.15 1.4-1.57 2.75-1.84-.72 1.34-1.39 2.46-1.94 3.64-.55 1.19-1.45 2.29-1.19 3.78.49-.51.9-1.06 1.21-1.67.91-1.75 1.77-3.54 2.68-5.3.2-.39.44-.92.79-1.05 1.26-.45 2.58-.76 4.06-1.18-.14.93-.22 1.62-.35 2.3-.54 2.84.33 5.23 2.35 7.21.9.89 1.93 1.64 2.9 2.46l.94.78c-1.02.56-1.92 1.04-2.8 1.54-9.02 5.01-15.25 12.48-19.28 21.89-.31.74-.56 1.53-.72 2.32-.25 1.29.16 2 1.33 2.59.44.23.88.44 1.33.67-.2.58-.37 1.06-.54 1.54-1.63 4.54-3.15 9.12-4.19 13.84-.44 1.98-.93 3.96-.66 6.02.57 4.49 1.21 8.96 2.89 13.39-.82.33-1.53.6-2.23.9-7.43 3.14-14.87 6.28-22.31 9.43-2.5 1.06-5 2.12-7.5 3.19-.25.11-.51.22-.76.33-.52.23-1.31.28-1.21 1.13.06.5.66.52 1.73.06l1.32-.57c1.7-.74 3.4-1.49 5.13-2.16 8.86-3.43 17.39-7.6 26.19-11.43.19.32.41.78.69 1.19.65.96 1.28 1.95 2.01 2.86 1.2 1.49 2.73 1.92 4.62 1.4 4.76-1.32 8.89-3.71 12.46-7.09.47-.44.87-.96 1.31-1.45.11.04.23.09.35.13.13 1.17.26 2.35.41 3.63-2.94 1.37-5.77 2.74-8.64 4.02-4.78 2.14-9.58 4.22-14.36 6.34-4.45 1.98-8.88 4.01-13.34 5.98-2.66 1.17-5.34 2.28-8 3.44-.27.11-.55.23-.82.35-.51.23-1.36.44-.97 1.24.35.69 1.02.2 1.49 0 .54-.23 1.09-.45 1.63-.68 3.63-1.5 7.27-2.99 10.86-4.6 5.56-2.49 11.06-5.11 16.59-7.66 5.25-2.43 10.7-4.43 15.73-7.71.24 1.57.46 3.05.67 4.4-5.08 2.34-9.99 4.55-14.85 6.86-8.13 3.85-16.23 7.74-24.34 11.63-1.09.52-2.19 1.05-3.28 1.57-.13.06-.32.11-.38.22-.15.25-.4.65-.31.76.18.23.58.46.83.41.59-.12 1.16-.36 1.71-.62 1.01-.47 2.02-.95 3.02-1.44 1.84-.86 3.68-1.73 5.51-2.61 8.7-4.19 17.39-8.37 26.08-12.57 1.69-.82 3.35-1.7 5.02-2.55.35-.18.7-.35 1.14-.57.45 2.61.88 5.09 1.33 7.64-2.33.72-4.56 1.4-6.77 2.12-4.11 1.34-8.19 2.75-11.99 4.84-1.79.99-3.49 2.11-4.88 3.63-1.57 1.72-1.65 3.71-.18 5.51.51.61 1.12 1.28 1.82 1.58 1.72.73 3.48 1.42 5.29 1.81 2.24.49 4.45-.04 6.59-.76 1.79-.59 3.55-1.23 5.35-1.79 1.08-.34 2.21-.55 3.48-.86-.51 2.26-.98 4.34-1.43 6.39-.08.32-.15.64-.22.96-.12.52-.44 1.08.28 1.55.18-.12.46-.21.54-.39.22-.46.36-.95.5-1.44l.15-.55c.69-2.56 1.37-5.11 2.04-7.68.1-.39.1-.8.16-1.2.11-.78.09-1.62.37-2.34.36-.91.29-1.69-.18-2.47-.37-.61-.73-1.23-1.17-1.78-.63-.8-.61-1.56-.1-2.39.45-.73.81-1.52 1.28-2.25.63-.96.7-1.96.46-3.06-.34-1.59-.58-3.2-.89-4.79-.83-4.18-1.65-8.37-2.53-12.54-.11-.51-.07-.87.22-1.26 1.49-2.05 2.31-4.4 2.97-6.81 3.36-12.46 7.04-24.82 11.58-36.91.22-.6.46-1.19.69-1.79.16.24.2.45.16.63-.53 2.33-1.08 4.65-1.6 6.99-.33 1.53-.63 3.08-.92 4.62-.11.54-.23 1.12.6 1.5.31-.37.62-.75.94-1.12.6-.69 1.11-1.48 1.81-2.05 3.14-2.53 5.75-2.53 8.45-.05 2.32 2.12 4.13 4.62 5.33 7.53.32.78.55 1.65.61 2.5.58 7.9 1.13 15.81 1.65 23.72.19 2.79.26 5.59.4 8.38.37 7.31.75 14.62 1.13 21.93.04.88-.07 1.66-.64 2.42-.74 1.01-.62 1.6.2 2.6.17.19.33.4.53.55.5.41.64.93.42 1.5-.4 1.04-.41 1.99-.21 2.89.33 1.53 1.26 2.91 1.89 4.37.02.05.18.05.5.12.06-.36.24-.74.15-1.04-.27-.92-.57-1.84-1.01-2.69-.18-.36-.31-.72-.36-1.08-.08-.41-.08-.83.02-1.27.09-.4.18-.8.3-1.19.31-.91.14-1.68-.6-2.34-.36-.34-.66-.75-1.08-1.23 1.12-1.13 1.38-2.45 1.29-3.94-.45-7.26-.82-14.52-1.21-21.78-.13-2.38-.2-4.77-.37-7.16-.36-5.22-.74-10.44-1.15-15.66-.25-3.24-.6-6.47-.86-9.71-.2-2.63-.47-5.27-.47-7.9 0-2.47.33-4.94.5-7.33 2.71.25 5.23.56 7.75.71 2.58.15 5.13-.24 7.72-1.01-.03.34-.04.54-.06.73-.42 3.07-.99 6.12-1.23 9.21-.81 10.29-.97 20.61-.75 30.94.25 11.75.56 23.5.85 35.25.04 1.46.07 2.93.11 4.39.01.31-.04.64.07.91.03.07.07.14.12.21.13.19.32.37.5.6.39-.33.56-.69.62-1.05.07-.34.04-.68.04-1.01-.04-1.54-.08-3.07-.13-4.61-.17-6.19-.36-12.38-.53-18.57-.19-7.31-.5-14.63-.5-21.95-.01-8.24.27-16.47.45-24.7.01-.49.15-1.02.39-1.43 1.11-1.92 2.56-3.54 4.35-4.84 2.03-1.49 4.15-1.57 6.26-.23 1.07.68 2.04 1.5 3.08 2.24.26.19.57.3 1.12.57.33-3.89-.03-7.53 0-11.17.04-3.65-.16-7.3-.25-10.95 6.21 1.23 16.96 6.44 19.45 9.44-.35.2-.71.4-1.06.59-6.33 3.5-9.53 9.04-10.61 16.02-.63 4.09-.11 8.12.59 12.12.98 5.57 2.71 10.94 4.72 16.22.2.52.42 1.04.71 1.52.63 1.06.98 1.17 2.12.75.64-.23 1.27-.5 1.86-.74 1.06 2.89 2.1 5.69 3.14 8.47.24.65.48 1.29.72 1.93.37.98.79 1.94 1.24 2.88.33-.38.64-.76.95-1.14l-1.95-4.86-2.79-6.96c-.11-.27-.19-.54-.27-.78 3.25-1.78 6.47-3.41 9.56-5.27 1.12-.67 2.23-1.38 3.32-2.09 1.94-1.28 3.86-2.61 5.82-3.89.08.2.15.39.22.58.23-.51.43-1.02.64-1.53.38-.93.74-1.87 1.09-2.82-.73.73-1.48 1.45-2.29 2.08-.8.63-1.62 1.24-2.44 1.84-.57.42-1.14.82-1.72 1.22l-.09.06c-2.62 1.81-5.33 3.48-8.1 5.04-.27.15-.55.31-.83.46-.95.53-1.9 1.04-2.86 1.53-.34.18-.69.36-1.04.54-.08.04-.17.09-.25.12-.45.24-.91.47-1.37.69-.71.36-1.43.71-2.15 1.05-.4.2-.83.33-1.33.53-.24-.54-.48-.98-.64-1.45-1.86-5.22-3.6-10.48-4.55-15.95-.73-4.22-1.24-8.46-.5-12.73a24.43 24.43 0 0 1 2.86-7.99c.58-1.01 1.31-1.95 2.11-2.79 1.78-1.89 3.89-3.39 6.12-4.69.26.16.45.24.6.37 6.43 5.4 12.1 11.47 16.32 18.77.41.7.79 1.42 1.17 2.14.83 1.6 1.61 3.22 2.44 4.82.21-.66.4-1.32.59-1.99-.79-1.6-1.62-3.17-2.5-4.71-2.49-4.36-5.37-8.47-8.88-12.19-3.72-3.93-7.64-7.6-12.11-10.66-4.82-3.29-9.95-5.91-15.74-7.05-.84-.16-1.67-.38-2.51-.58-.97-4.49-3.43-7.7-7.75-9.32-.38-2.45-.62-4.84-.33-7.27.64-.05 1.09-.08 1.55-.13zm2.19-20.12c-2.62-.01-4.8.97-6.17 3.26-1.03 1.73-1.85 3.59-2.77 5.39-1.71-.43-3.56-.89-5.45-1.37 1.72-7.03 3.8-14.02 2.14-21.55 1.32-.47 2.68-.97 4.06-1.43.78-.26 1.26.26 1.62.84.84 1.31 1.25 2.78 1.31 4.32.06 1.36.02 2.73.02 4.02 1.54-2.02.94-6.7-1.3-9.61 1.72-.91 2.78-.76 3.93.69 1.33 1.69 1.96 3.65 1.93 5.81v2.01c1.69-2.1.89-5.8-2.02-9.31.62.03 1.11-.03 1.54.1 4.81 1.44 6.73 3.89 6.46 8.76-.17 2.97-1.27 5.72-2.35 8.43-1.13-.15-2.04-.35-2.94-.36zM86.08 182.15c-2.72.81-5.45 1.56-8.14 2.45-2.63.86-5.25 1.52-8.34.93 5.55-3.09 10.98-5.76 17.22-6.54.07.22.13.31.13.4.01.81.01 1.61.01 2.5-.32.09-.6.17-.88.26zm.83-12.05c-.31.58-.62 1.16-.95 1.73-.63 1.09-.52 2.11.19 3.13.56.82 1.04 1.69 1.61 2.62-1.77.26-3.3.48-4.9.71-.51-1.22.47-2.58-.34-3.87-.87 1.3-.77 2.69-.86 4.19-1.02.35-1.96.67-3.1 1.06v-3.85c-.96.85-1.04 1.16-1.17 4.28l-1.78.81c.08-1.49.14-2.75.21-4.01-.1-.03-.2-.06-.31-.09-.14.21-.35.41-.41.64-.22.89-.52 1.79-.52 2.68 0 1.13-.61 1.6-1.49 2.01-1.24.58-2.42 1.29-3.68 1.83-2.17.95-4.86-.49-5.2-2.83-.09-.61.2-1.42.59-1.93.57-.76 1.31-1.45 2.12-1.95 1.8-1.12 3.6-2.33 5.55-3.12 4.97-2.02 10.01-3.84 15.33-5.86-.38.77-.62 1.3-.89 1.82zm12.02-89.92h-2.27c.47-.74.81-1.26 1.25-1.96.35.68.62 1.19 1.02 1.96zM94.05 67c.23.21.34.6.44.93.81 2.6 1.6 5.22 2.42 7.83.42 1.35-.45 3.27-1.74 3.81-.56.23-1.07.27-1.59-.3 1.26-4.93-.18-9.8-3.72-12.64 1.26-.6 3.3-.45 4.19.37zM64.5 114.74c.16-.73.23-1.49.51-2.16 3.63-8.66 9.18-15.74 17.28-20.66 1.3-.79 2.66-1.49 3.99-2.22q1.17-.63 2.65.25c-.13.99-.16 2.11-.44 3.16-1.34 4.97-3.3 9.71-5.64 14.27-2.1 4.11-4.59 8.01-6.91 12-.13.22-.29.41-.5.7-3.41-2.35-7.2-3.56-10.94-5.34zm34.64-11.81a428.127 428.127 0 0 0-11.56 37.05c-.04.15-.08.3-.11.45-1.47 6.94-5.95 11.38-12.06 14.42-1.58.79-3.29 1.32-4.95 1.94-1.37.52-2.45.09-3.35-1.04-1.61-2.02-2.65-4.31-3.37-6.77-1.06-3.62-1.69-7.33-2-11.07-.14-1.68.2-3.45.64-5.1 1.02-3.88 2.22-7.7 3.38-11.54.35-1.16.78-2.31 1.22-3.59 2.61 1.06 5.14 2.09 7.81 3.18-.2.37-.36.72-.58 1.02-1.33 1.87-2.72 3.69-3.99 5.58-4.71 7.03-6.19 14.69-4.38 22.97.21.93.23.93 1.04 1.56.54-.49.36-1.09.29-1.68-.23-2.02-.63-4.03-.63-6.05 0-5.99 1.55-11.56 5.15-16.43 4.32-5.86 8.28-11.94 11.67-18.39 2.36-4.51 4.33-9.18 5.85-14.04.54-1.71.81-3.44.5-5.25-.11-.61-.3-1.06-.76-1.4-.65-.49-1.34-.92-1.99-1.41-1.48-1.14-3.04-2.21-4.39-3.5-1.6-1.52-2.16-3.48-1.87-5.71.39-3.09 1.62-5.85 3.15-8.51.05-.09.11-.17.17-.26 1.9-2.72 5.12-2.74 7.08-.01 1.03 1.45 1.4 3.16 1.6 4.87.12 1.1.1 2.24-.03 3.35-.12 1.13-1.01 2.25-1.63 2.18-1.13-.15-1.35-1.16-1.54-2.02-.33-1.49-.47-3.01-.74-4.51-.12-.66-.35-1.31-.53-1.96l-.42.03c-.09.75-.18 1.51-.28 2.37h-3.21c.5 1.15.88 1.29 3.35 1.33.06.35.11.73.19 1.11.18.89.29 1.81.59 2.67.88 2.47 2.4 2.92 4.54 1.4.1.02.23 0 .28.06.91.87 2.13.06 3.02.5.99.49 1.87.72 2.88.28 1.33 1.77 2.55 3.57 3.94 5.23 1.39 1.65 3.21 2.79 5.36 3.75-.99 1.28-1.89 2.48-2.83 3.66-.31.39-.71.72-1.08 1.07q-3.7 3.45-5.42 8.21zm17.67 2.71c-.86 3.68-1.07 7.42-1.1 11.18 0 .15-.06.3-.12.62-.29-.34-.49-.58-.7-.82-1.25-1.47-2.39-3.05-3.78-4.36-2.98-2.82-6.32-2.63-9.7.17-.41.34-.79.73-1.43 1.33.24-1.03.4-1.71.55-2.4.77-3.56 1.56-7.13 2.3-10.7.33-1.62.8-3.05 2.2-4.17 1.98-1.58 3.34-3.66 4.1-6.22 1.24.21 2.34.39 3.43.58.51 2.12.91 4.27 1.55 6.34.72 2.37 1.67 4.67 2.49 7.01.16.45.32 1 .21 1.44zm6.7 1.12c-1.71-.17-3.4-.47-5.11-.72-.47-.06-.77-.25-.56-.97 1.69.15 3.43.39 5.17.44 1.72.04 3.46.01 5.16-.19 1.75-.2 3.47-.64 5.36-1-.13.63-.24 1.17-.37 1.81-3.2.44-6.4.95-9.65.63zm16.09-16.71c.69-1.95 1.07-3.92.31-5.95-.12-.32-.12-.68-.22-1.36.92.54 1.68.88 2.33 1.37 2.98 2.24 4.28 5.33 4.38 8.97.14 4.97.25 9.94.36 14.91.03 1.31.01 2.62.01 4.11-.97-.69-1.77-1.32-2.62-1.85-2.69-1.65-4.97-1.59-7.48.31-1.04.79-1.92 1.8-2.86 2.73-.31.3-.59.65-1.11.88.45-2.58.91-5.15 1.35-7.73.83-4.89 2.74-9.43 4.6-13.98.33-.8.66-1.6.95-2.41z"/></g></g></svg>