<svg width="205" height="192" viewBox="0 0 205 192" fill="none" xmlns="http://www.w3.org/2000/svg">
<path d="M200.237 97.0047C200.237 149.471 157.709 192 105.242 192C91.2649 192 78.004 188.985 66.0463 183.564C59.3612 180.539 53.1038 176.759 47.3637 172.332H47.3438C45.9311 171.238 44.5583 170.104 43.2153 168.95C35.1175 161.966 28.2135 153.64 22.8514 144.318C14.8332 130.381 10.2471 114.225 10.2471 97.0047C10.2471 44.5381 52.7854 1.99977 105.252 1.99977C144.866 1.99977 178.819 26.2534 193.074 60.7238C197.69 71.9055 200.247 84.1517 200.247 97.0047H200.237Z" fill="url(#paint0_linear_2310_97367)"/>
<path d="M9.99718 95.7277C9.97724 89.5771 10.5754 83.4362 11.7417 77.3836C12.8582 71.3311 14.6426 65.3962 16.8955 59.6379C21.4611 48.141 28.2697 37.4288 37.0222 28.4039C41.3985 23.9012 46.2034 19.7615 51.4568 16.2202C52.7827 15.3668 54.0985 14.4741 55.4443 13.6403C56.82 12.8457 58.1658 12.0119 59.5614 11.2565C60.9769 10.5404 62.3725 9.78509 63.818 9.10823C65.2734 8.46079 66.6989 7.7643 68.1743 7.17572C79.9074 2.27088 92.7171 -0.122688 105.437 0.0048382C118.167 0.201032 130.817 2.91832 142.401 7.90164C148.193 10.3933 153.725 13.4441 158.889 16.9854C164.073 20.5071 168.908 24.5094 173.314 28.914C182.146 37.7133 189.264 48.1508 194.168 59.5398C196.611 65.2392 198.515 71.1643 199.85 77.2267C201.166 83.2891 201.884 89.4888 201.984 95.7081C202.183 108.137 199.99 120.693 195.205 132.308C190.48 143.933 183.382 154.655 174.39 163.581C165.419 172.528 154.652 179.728 142.85 184.623C131.057 189.548 118.217 191.99 105.427 192C92.6374 191.912 79.8177 189.43 68.0746 184.447C56.3116 179.532 45.675 172.145 36.9524 163.091C28.2099 154.046 21.4113 143.324 16.8357 131.818C14.5828 126.059 12.8083 120.115 11.6919 114.062C10.5554 108.019 9.96727 101.878 9.99718 95.7277ZM10.4956 95.7277C10.5455 101.839 11.1635 107.951 12.4295 113.935C13.7354 119.899 15.5896 125.755 18.1017 131.327C23.0661 142.491 30.403 152.526 39.2751 160.825C43.7212 164.974 48.5859 168.653 53.7098 171.9C55.0157 172.675 56.2916 173.489 57.6175 174.225C58.9632 174.931 60.2691 175.686 61.6348 176.363C63.0006 177.021 64.3463 177.717 65.732 178.335C67.1276 178.924 68.5033 179.561 69.9188 180.101C75.5611 182.308 81.4027 184.015 87.354 185.143C93.3053 186.271 99.3662 186.811 105.427 186.791C111.488 186.762 117.539 186.202 123.48 185.045C129.422 183.887 135.243 182.151 140.856 179.924C152.09 175.441 162.418 168.741 171.071 160.334C179.704 151.918 186.742 141.872 191.546 130.837C193.939 125.314 195.803 119.565 197.119 113.679C198.415 107.794 199.133 101.771 199.252 95.7277C199.422 83.652 197.278 71.4586 192.603 60.1971C187.978 48.9257 180.96 38.6059 172.167 30.0519C167.761 25.7847 162.916 21.9785 157.743 18.6727C152.549 15.3962 147.046 12.6299 141.324 10.4325C129.89 6.00837 117.619 3.89928 105.427 4.09548C99.3264 4.15434 93.2554 4.84101 87.2842 5.98875C81.323 7.16591 75.4813 8.93165 69.8391 11.1585C68.4235 11.7078 67.0478 12.3552 65.6522 12.9536C64.2666 13.5716 62.9308 14.2877 61.5551 14.945C60.1994 15.6219 58.8835 16.387 57.5477 17.1031C56.2318 17.8487 54.9459 18.6727 53.64 19.4476C48.5261 22.7241 43.6614 26.4125 39.2153 30.5718C30.3532 38.9002 23.0163 48.9454 18.0519 60.1088C15.5298 65.6807 13.6856 71.5371 12.3897 77.5112C11.1236 83.4951 10.5156 89.6065 10.4757 95.7277H10.4956Z" fill="black"/>
<path d="M203.237 142.052C203.237 167.352 182.737 187.852 157.437 187.852C150.697 187.852 144.307 186.402 138.537 183.782C135.317 182.322 132.297 180.502 129.527 178.372C128.847 177.842 128.187 177.302 127.537 176.742C123.637 173.372 120.307 169.362 117.717 164.862C113.847 158.142 111.637 150.352 111.637 142.052C111.637 116.752 132.147 96.2524 157.437 96.2524C176.537 96.2524 192.907 107.942 199.777 124.562C202.007 129.952 203.237 135.862 203.237 142.052Z" fill="url(#paint1_linear_2310_97367)"/>
<path d="M124.947 174.762C122.817 172.642 120.897 170.312 119.197 167.832C117.487 165.362 116.037 162.702 114.817 159.942C112.397 154.412 111.007 148.392 110.867 142.292C110.797 139.242 111.007 136.182 111.567 133.172C111.727 132.422 111.857 131.672 112.037 130.922C112.227 130.182 112.397 129.432 112.617 128.702C112.857 127.972 113.067 127.232 113.327 126.512C113.597 125.792 113.847 125.072 114.137 124.362C116.437 118.672 119.967 113.482 124.337 109.202C128.737 104.942 133.977 101.572 139.647 99.3624C142.477 98.2524 145.417 97.4224 148.397 96.8924C151.377 96.3424 154.407 96.0824 157.427 96.1024C163.477 96.1424 169.507 97.3324 175.117 99.5924C177.917 100.732 180.617 102.132 183.167 103.772C185.717 105.422 188.097 107.322 190.287 109.432C194.647 113.662 198.247 118.752 200.637 124.392C203.047 130.022 204.337 136.142 204.367 142.282C204.407 148.422 203.237 154.582 200.907 160.292C198.597 166.002 195.077 171.222 190.727 175.572C186.337 179.892 181.127 183.392 175.407 185.672C169.707 187.972 163.527 189.042 157.437 188.872C151.337 188.722 145.307 187.322 139.777 184.902C137.017 183.672 134.357 182.232 131.887 180.512C129.407 178.812 127.077 176.892 124.957 174.752L124.947 174.762ZM125.107 174.592C127.237 176.692 129.557 178.592 132.057 180.232C134.567 181.852 137.217 183.242 139.997 184.312C145.547 186.482 151.517 187.462 157.407 187.302C160.357 187.222 163.287 186.842 166.147 186.222C166.857 186.042 167.577 185.892 168.277 185.702C168.977 185.492 169.687 185.302 170.377 185.072C171.067 184.832 171.767 184.622 172.447 184.362C173.127 184.092 173.817 183.842 174.487 183.552C177.167 182.392 179.747 181.002 182.157 179.362C184.577 177.722 186.827 175.852 188.877 173.782C190.927 171.712 192.797 169.462 194.417 167.032C196.037 164.612 197.417 162.032 198.557 159.352C200.827 153.982 202.027 148.152 202.067 142.302C202.097 136.452 201.017 130.592 198.837 125.132C197.747 122.412 196.387 119.782 194.797 117.302C193.207 114.822 191.367 112.502 189.317 110.372C185.197 106.142 180.257 102.652 174.767 100.352C169.297 98.0324 163.337 96.8524 157.397 96.8824C154.427 96.9024 151.457 97.2324 148.557 97.8524C145.657 98.4824 142.827 99.4024 140.127 100.592C134.707 102.952 129.807 106.402 125.717 110.612C123.667 112.712 121.827 115.012 120.197 117.442C118.577 119.882 117.197 122.472 116.047 125.172C115.757 125.842 115.517 126.532 115.247 127.212C114.987 127.902 114.777 128.602 114.547 129.292C114.317 129.992 114.137 130.702 113.927 131.402C113.737 132.112 113.587 132.832 113.407 133.542C112.797 136.412 112.417 139.342 112.347 142.292C112.207 148.182 113.187 154.152 115.357 159.702C116.427 162.482 117.827 165.142 119.447 167.642C121.087 170.142 122.997 172.462 125.097 174.592H125.107Z" fill="black"/>
<path d="M187.777 154.302C186.147 155.712 184.587 155.922 182.887 155.262C182.557 155.132 182.267 154.902 181.937 154.792C181.587 154.672 181.127 154.452 180.847 154.572C180.327 154.802 180.527 155.322 180.667 155.772C180.897 156.532 181.087 157.302 181.317 158.142C179.297 158.712 178.167 157.082 176.457 156.462C176.477 157.132 176.497 157.522 176.497 157.902C176.497 159.192 175.797 159.652 174.647 159.072C174.287 158.892 173.997 158.572 173.647 158.382C173.147 158.102 172.797 158.252 172.607 158.822C171.857 161.002 171.677 161.042 169.767 159.662C169.567 159.522 169.337 159.422 168.967 159.222C168.137 160.282 167.377 161.822 165.577 160.332C168.787 157.342 171.147 153.792 172.437 149.532C172.987 149.512 173.487 149.462 173.977 149.492C175.307 149.562 176.367 149.072 177.137 148.002C177.547 147.432 177.977 146.832 178.207 146.172C179.077 143.682 179.327 141.122 178.737 138.522C178.327 136.722 177.887 136.162 176.147 135.192C177.857 132.352 177.497 129.242 177.177 126.112C176.727 129.102 176.917 132.242 174.997 134.912C174.497 131.342 174.037 127.792 172.987 124.342C172.567 127.922 173.797 131.372 173.877 135.172C170.697 129.682 170.247 123.642 168.827 117.472C168.267 118.222 167.937 118.632 167.647 119.072C164.627 123.572 161.117 127.632 157.157 131.332C154.337 133.962 151.127 135.982 147.637 137.572C147.017 137.852 146.347 138.012 145.697 138.232C145.127 132.482 147.387 127.802 150.367 123.312C149.267 123.692 148.867 124.692 148.297 125.502C147.657 126.412 147.117 127.402 146.607 128.392C146.137 129.322 145.767 130.302 145.257 131.232C144.747 128.622 145.457 126.182 146.417 123.602C144.297 124.812 143.507 129.262 144.457 133.572C143.747 134.342 142.967 134.572 141.887 134.232C140.137 133.692 139.347 134.152 138.787 135.922C137.797 139.042 137.897 142.132 139.307 145.132C140.237 147.102 141.547 148.072 143.617 148.462C144.687 150.802 145.737 153.102 146.877 155.602C146.547 155.902 146.077 156.322 145.587 156.752C145.001 156.412 144.081 156.482 142.827 156.962C142.987 155.952 143.597 154.902 142.457 153.912C141.977 154.452 141.607 154.982 141.127 155.392C140.637 155.812 140.077 156.192 139.477 156.452C138.927 156.692 138.307 156.832 137.707 156.882C137.077 156.942 136.427 156.842 135.537 156.812C136.327 155.862 137.217 155.182 136.567 153.932C133.087 155.552 129.957 155.502 127.537 151.782C130.447 151.052 131.597 148.772 132.677 146.462C135.047 141.412 136.527 136.102 137.557 130.632C138.287 126.732 139.247 122.892 141.187 119.362C142.857 116.332 144.987 113.722 147.827 111.722C150.667 109.722 153.787 108.922 157.217 109.642C158.147 109.842 159.067 110.182 159.927 110.592C160.477 110.862 160.907 111.382 161.357 111.762C163.177 111.132 165.047 110.312 166.997 109.862C168.557 109.502 170.217 109.432 171.827 109.512C173.957 109.612 175.677 110.672 176.947 112.432C178.197 114.162 178.837 116.132 179.247 118.192C180.507 124.562 180.537 131.022 180.657 137.472C180.717 140.772 180.907 144.062 181.087 147.362C181.127 148.062 181.317 148.772 181.577 149.432C182.647 152.152 184.367 154.122 187.767 154.312L187.777 154.302Z" fill="url(#paint2_linear_2310_97367)"/>
<path d="M143.807 143.562C143.247 144.162 143.317 144.832 143.317 145.452C143.317 146.042 143.437 146.642 143.517 147.322C142.297 147.122 141.567 146.382 141.047 145.532C139.087 142.352 139.107 139.022 140.407 135.442C141.797 135.402 143.137 135.352 144.627 135.312C144.547 136.062 144.427 136.992 144.337 137.922C144.207 139.332 144.627 139.732 145.987 139.372C149.427 138.462 152.507 136.762 155.287 134.612C160.117 130.882 164.147 126.392 167.437 121.252C167.677 120.872 167.897 120.482 168.417 120.112C168.497 120.672 168.607 121.232 168.657 121.792C169.107 127.012 170.397 131.992 172.857 136.642C172.977 136.862 173.057 137.112 173.197 137.322C173.717 138.122 174.327 138.092 174.787 137.232C174.957 136.932 175.077 136.602 175.217 136.272C176.197 136.162 176.717 136.722 176.997 137.462C177.277 138.212 177.457 139.022 177.537 139.822C177.727 141.702 177.587 143.582 177.107 145.412C176.977 145.902 176.817 146.392 176.567 146.822C175.717 148.302 174.907 148.592 173.057 148.112C173.117 147.172 173.187 146.222 173.257 145.262C173.147 145.232 173.037 145.212 172.927 145.182C172.787 145.402 172.587 145.602 172.507 145.842C171.917 147.572 171.457 149.362 170.747 151.032C169.157 154.752 166.837 157.952 163.287 160.032C160.007 161.952 154.997 161.992 151.547 158.672C150.457 157.622 149.407 156.482 148.557 155.232C146.247 151.842 144.597 148.152 144.077 144.032C144.057 143.912 143.947 143.802 143.807 143.562Z" fill="#A25A9F"/>
<path d="M150.707 169.882C150.297 166.752 151.267 163.652 151.027 160.272C152.177 160.892 153.117 161.562 154.167 161.932C155.297 162.332 156.527 162.592 157.727 162.662C158.877 162.732 160.067 162.582 161.187 162.332C162.307 162.082 163.367 161.592 164.577 161.162C164.437 164.042 164.287 166.872 164.147 169.682C161.207 170.292 152.997 170.422 150.707 169.882Z" fill="#A25A9F"/>
<path d="M161.847 110.722C164.827 108.712 167.997 107.802 171.457 107.952C174.587 108.082 176.967 109.522 178.617 112.172C179.787 114.062 180.437 116.162 180.727 118.332C181.177 121.652 181.567 124.982 181.747 128.332C182.027 133.502 182.057 138.692 182.287 143.872C182.357 145.432 182.627 147.002 183.017 148.522C183.247 149.422 183.787 150.292 184.357 151.042C185.377 152.392 186.777 153.002 188.507 152.722C188.797 152.672 189.097 152.702 189.397 152.692C189.807 153.302 189.497 153.812 189.217 154.272C188.067 156.112 186.407 157.002 184.227 156.862C183.637 156.822 183.057 156.672 182.337 156.552C182.407 156.982 182.497 157.312 182.517 157.652C182.607 158.872 181.917 159.652 180.707 159.512C179.767 159.402 178.847 159.072 177.807 158.802C177.447 159.432 177.187 160.412 176.177 160.462C175.387 160.502 174.597 160.342 173.727 160.262C172.257 162.162 171.647 162.282 169.287 160.932C168.477 162.162 167.287 162.462 165.847 161.962C165.807 164.692 165.767 167.322 165.727 170.052C166.507 170.082 167.207 170.142 167.907 170.132C169.467 170.112 170.347 170.952 170.797 172.352C170.907 172.682 170.997 173.022 171.117 173.442C172.427 173.542 173.737 173.622 175.047 173.742C178.807 174.092 182.207 175.562 185.527 177.252C186.047 177.512 186.787 177.832 186.347 178.592C185.947 179.282 185.357 178.792 184.877 178.552C181.817 177.002 178.587 175.972 175.197 175.442C173.797 175.222 172.387 175.032 170.977 174.852C170.227 174.762 169.757 174.412 169.627 173.642C169.577 173.342 169.457 173.052 169.347 172.772C169.087 172.102 168.647 171.722 167.867 171.702C166.617 171.672 165.367 171.542 164.047 171.452C164.227 172.312 164.407 173.202 164.637 174.332C163.147 173.692 163.447 172.312 162.797 171.462C161.877 171.492 160.917 171.522 159.787 171.552C159.817 172.622 159.857 173.652 159.887 174.802C159.361 174.409 159.004 173.369 158.817 171.682C157.787 171.712 156.747 171.742 155.657 171.782C155.477 172.612 155.297 173.472 155.077 174.472C154.107 173.582 154.767 172.682 154.607 171.682C153.327 171.562 151.987 171.442 150.577 171.322C149.937 172.592 150.117 174.152 149.117 175.272C148.864 174.866 148.987 173.559 149.487 171.352C148.987 171.312 148.487 171.332 148.017 171.232C146.897 171.002 146.077 171.212 145.537 172.382C145.077 173.382 144.087 173.562 143.057 173.472C140.817 173.272 138.597 173.352 136.377 173.742C133.767 174.192 131.217 174.822 128.797 175.952C128.157 176.252 127.487 176.522 126.797 176.682C126.537 176.742 126.057 176.542 125.917 176.312C125.657 175.882 125.987 175.562 126.397 175.362C131.027 173.112 135.857 171.692 141.047 171.742C141.557 171.742 142.067 171.732 142.567 171.772C143.447 171.852 144.117 171.652 144.577 170.782C145.027 169.922 145.867 169.692 146.797 169.762C147.597 169.822 148.387 169.892 149.237 169.962C149.357 168.322 149.437 166.812 149.597 165.302C149.777 163.632 149.997 161.972 150.267 160.322C150.357 159.762 150.297 159.372 149.897 158.952C149.157 158.182 148.477 157.362 147.707 156.482C147.417 156.752 147.127 157.002 146.857 157.272C146.277 157.842 145.677 158.202 144.817 157.822C144.547 157.702 144.157 157.782 143.847 157.862C143.357 157.992 142.907 158.252 142.417 158.352C141.387 158.572 141.137 158.452 140.337 157.482C139.677 157.632 138.997 157.872 138.307 157.922C137.457 157.982 136.577 157.992 135.747 157.822C134.697 157.612 134.467 157.162 134.527 156.192C133.277 156.112 132.007 156.142 130.787 155.912C128.547 155.492 127.177 153.942 126.257 151.972C125.757 150.902 126.097 150.342 127.337 150.282C128.357 150.232 129.107 149.782 129.647 149.012C130.287 148.102 130.887 147.152 131.367 146.152C133.627 141.402 135.087 136.392 136.087 131.232C136.587 128.642 137.187 126.062 137.987 123.552C139.547 118.662 142.147 114.412 146.247 111.192C148.367 109.522 150.707 108.322 153.417 108.082C156.547 107.802 159.517 108.202 161.887 110.732L161.847 110.722ZM187.777 154.302C184.367 154.112 182.657 152.142 181.587 149.422C181.327 148.772 181.137 148.052 181.097 147.352C180.917 144.062 180.727 140.762 180.667 137.462C180.547 131.012 180.527 124.552 179.257 118.182C178.847 116.122 178.207 114.152 176.957 112.422C175.687 110.672 173.967 109.612 171.837 109.502C170.227 109.422 168.567 109.492 167.007 109.852C165.057 110.302 163.187 111.122 161.367 111.752C160.917 111.372 160.487 110.852 159.937 110.582C159.077 110.172 158.157 109.822 157.227 109.632C153.797 108.912 150.677 109.712 147.837 111.712C144.997 113.722 142.857 116.322 141.197 119.352C139.257 122.882 138.297 126.722 137.567 130.622C136.537 136.092 135.057 141.402 132.687 146.452C131.597 148.762 130.457 151.042 127.547 151.772C129.967 155.492 133.097 155.542 136.577 153.922C137.227 155.162 136.337 155.842 135.547 156.802C136.437 156.842 137.087 156.932 137.717 156.872C138.317 156.822 138.937 156.682 139.487 156.442C140.077 156.182 140.637 155.802 141.137 155.382C141.617 154.972 141.987 154.442 142.467 153.902C143.607 154.892 142.997 155.942 142.837 156.952C144.091 156.472 145.011 156.402 145.597 156.742C146.077 156.312 146.557 155.882 146.887 155.592C145.737 153.082 144.687 150.792 143.627 148.452C141.567 148.072 140.247 147.092 139.317 145.122C137.907 142.132 137.807 139.042 138.797 135.912C139.357 134.142 140.147 133.682 141.897 134.222C142.977 134.552 143.767 134.332 144.467 133.562C143.517 129.242 144.307 124.792 146.427 123.592C145.457 126.162 144.757 128.612 145.267 131.222C145.777 130.292 146.147 129.312 146.617 128.382C147.127 127.392 147.667 126.402 148.307 125.492C148.867 124.682 149.267 123.682 150.377 123.302C147.397 127.792 145.137 132.472 145.707 138.222C146.357 138.002 147.027 137.842 147.647 137.562C151.137 135.972 154.347 133.952 157.167 131.322C161.127 127.632 164.637 123.562 167.657 119.062C167.947 118.622 168.287 118.212 168.837 117.462C170.257 123.632 170.697 129.682 173.887 135.162C173.807 131.362 172.577 127.912 172.997 124.332C174.047 127.782 174.507 131.342 175.007 134.902C176.927 132.232 176.737 129.092 177.187 126.102C177.507 129.232 177.867 132.342 176.157 135.182C177.907 136.152 178.337 136.712 178.747 138.512C179.337 141.112 179.097 143.672 178.217 146.162C177.987 146.822 177.557 147.422 177.147 147.992C176.377 149.052 175.317 149.552 173.987 149.482C173.487 149.452 172.987 149.502 172.447 149.522C171.157 153.782 168.797 157.332 165.587 160.322C167.387 161.802 168.147 160.262 168.977 159.212C169.337 159.412 169.577 159.512 169.777 159.652C171.687 161.032 171.867 160.992 172.617 158.812C172.817 158.242 173.157 158.092 173.657 158.372C174.007 158.562 174.297 158.882 174.657 159.062C175.807 159.642 176.517 159.182 176.507 157.892C176.507 157.502 176.487 157.112 176.467 156.452C178.177 157.072 179.307 158.702 181.327 158.132C181.097 157.292 180.907 156.522 180.677 155.762C180.537 155.312 180.327 154.792 180.857 154.562C181.137 154.442 181.587 154.652 181.947 154.782C182.277 154.902 182.567 155.132 182.897 155.252C184.597 155.912 186.167 155.702 187.787 154.292L187.777 154.302ZM143.807 143.562C143.947 143.802 144.057 143.912 144.077 144.032C144.607 148.152 146.257 151.842 148.557 155.232C149.407 156.482 150.457 157.622 151.547 158.672C154.997 161.992 160.007 161.952 163.287 160.032C166.837 157.952 169.147 154.742 170.747 151.032C171.467 149.362 171.917 147.572 172.507 145.842C172.587 145.602 172.787 145.402 172.927 145.182C173.037 145.212 173.147 145.232 173.257 145.262C173.187 146.222 173.127 147.172 173.057 148.112C174.907 148.602 175.717 148.312 176.567 146.822C176.817 146.392 176.977 145.892 177.107 145.412C177.597 143.572 177.737 141.702 177.537 139.822C177.457 139.022 177.267 138.212 176.997 137.462C176.727 136.722 176.197 136.172 175.217 136.272C175.067 136.602 174.947 136.932 174.787 137.232C174.317 138.092 173.717 138.122 173.197 137.322C173.057 137.112 172.977 136.862 172.857 136.642C170.387 131.992 169.097 127.012 168.657 121.792C168.607 121.232 168.497 120.672 168.417 120.112C167.897 120.482 167.677 120.872 167.437 121.252C164.147 126.402 160.117 130.892 155.287 134.612C152.507 136.762 149.427 138.462 145.987 139.372C144.627 139.732 144.207 139.322 144.337 137.922C144.417 136.992 144.537 136.062 144.627 135.312C143.137 135.362 141.797 135.402 140.407 135.442C139.107 139.022 139.097 142.352 141.047 145.532C141.567 146.382 142.297 147.122 143.517 147.322C143.437 146.642 143.327 146.052 143.317 145.452C143.317 144.832 143.237 144.172 143.807 143.562ZM150.707 169.882C153.007 170.412 161.217 170.282 164.147 169.682C164.287 166.872 164.427 164.042 164.577 161.162C163.367 161.592 162.297 162.082 161.187 162.332C160.057 162.582 158.867 162.732 157.727 162.662C156.527 162.592 155.307 162.332 154.167 161.932C153.117 161.562 152.177 160.892 151.027 160.272C151.257 163.652 150.287 166.752 150.707 169.882Z" fill="black"/>
<path d="M116.517 162.372C108.647 163.142 101.137 161.852 94.1075 158.132C93.5875 157.862 93.1475 157.582 92.5775 158.042C92.4075 158.182 92.0975 158.172 91.8475 158.212C87.3475 159.012 82.8475 159.782 78.3475 160.602C75.7475 161.082 73.1775 161.742 70.5775 162.142C63.5575 163.222 56.5275 164.282 49.4775 165.202C46.2675 165.622 43.0075 165.802 39.7675 165.892C37.0075 165.972 34.5875 164.912 32.7475 162.792C32.0475 161.992 31.3875 161.132 30.8575 160.222C27.6875 154.722 25.4875 148.842 24.2675 142.622C23.6075 139.232 24.6175 136.432 27.4675 134.332C29.9875 132.472 32.7575 131.102 35.6975 130.092C43.4975 127.422 51.4875 125.392 59.5275 123.642C68.5575 121.682 77.6475 119.972 86.7675 118.412C91.6575 117.572 96.6375 117.182 101.597 116.762C104.727 116.502 107.887 116.542 111.017 117.062C115.207 117.752 118.187 120.002 119.757 124.002C121.627 128.742 123.027 133.632 123.777 138.672C124.047 140.512 124.117 142.422 123.977 144.282C123.677 148.142 121.337 150.902 117.597 151.952C115.057 152.672 112.477 153.242 109.917 153.872C109.377 154.002 108.817 154.092 108.287 154.262C107.197 154.612 107.037 155.142 107.937 155.822C108.897 156.552 109.967 157.182 111.057 157.682C114.687 159.332 118.507 160.322 122.517 160.682C120.587 161.562 118.577 162.172 116.517 162.372ZM89.0575 134.772C88.9675 136.342 90.0775 137.122 91.2475 137.782C92.6375 138.572 94.1675 138.962 95.7775 138.882C96.4175 138.852 97.1075 138.722 97.6875 138.442C99.1875 137.722 99.5975 135.952 98.4575 134.752C97.1075 133.332 95.3675 132.482 93.4975 131.932C93.0375 131.802 92.4975 131.962 92.2975 131.972C90.3075 132.482 89.1375 133.512 89.0675 134.752L89.0575 134.772ZM80.1975 141.872C81.8775 141.102 82.2875 139.412 81.0775 138.002C79.8375 136.552 78.1775 135.832 76.3075 135.572C75.7575 135.492 75.2075 135.422 74.6575 135.332C73.3475 135.132 72.4075 135.582 71.7475 136.752C71.0475 138.002 71.1075 139.132 72.0775 140.092C74.0575 142.052 76.4675 142.702 79.0875 142.282C79.5375 142.112 79.8875 142.012 80.2075 141.862L80.1975 141.872ZM46.0175 147.082C46.9875 146.292 47.0575 145.132 46.1375 144.302C45.3975 143.642 44.5075 143.062 43.5775 142.732C42.4075 142.322 41.1375 142.122 39.8875 141.972C38.5475 141.812 37.1675 142.832 36.7475 144.152C36.3475 145.402 36.8375 146.602 38.1375 147.362C39.9275 148.402 41.8475 148.642 43.9375 148.272C44.6375 147.882 45.4075 147.582 46.0175 147.082ZM63.9875 143.192C64.2175 141.942 63.5475 141.032 62.5775 140.392C61.9575 139.982 61.2475 139.672 60.5375 139.432C59.7275 139.162 58.8775 139.002 58.0375 138.812C56.6175 138.492 55.6075 138.862 55.0075 139.892C54.2875 141.142 54.4275 142.502 55.5075 143.482C57.2475 145.072 59.2975 145.742 61.4975 145.372C62.7575 144.962 63.7575 144.452 63.9875 143.192Z" fill="white"/>
<path d="M92.4675 133.262C91.5675 133.682 90.6475 133.902 90.5075 134.812C90.3475 135.782 91.2175 136.192 91.9175 136.572C93.2375 137.292 94.6675 137.682 96.1575 137.432C96.6975 137.342 97.3775 137.012 97.6175 136.572C97.9875 135.912 97.4375 135.282 96.8675 134.942C95.8775 134.342 94.8475 133.792 93.7775 133.342C93.3475 133.162 92.7975 133.282 92.4575 133.262H92.4675Z" fill="#0ABBEF"/>
<path d="M78.7275 140.912C79.1175 140.772 79.4175 140.702 79.6775 140.562C80.4475 140.152 80.5875 139.572 80.1275 138.802C79.1075 137.092 75.7175 135.882 73.9275 136.592C72.7975 137.032 72.4475 138.492 73.3375 139.292C74.8975 140.692 76.7575 141.182 78.7275 140.922V140.912Z" fill="#0ABBEF"/>
<path d="M43.6175 146.722C44.1975 146.452 45.1975 146.502 45.2975 145.572C45.3775 144.772 44.5375 144.462 43.9875 144.042C42.8275 143.162 41.4775 142.992 40.1075 143.162C39.5975 143.222 39.0375 143.502 38.6475 143.852C37.8175 144.562 37.9175 145.542 38.8775 146.112C40.3275 146.972 41.8975 147.192 43.6375 146.722H43.6175Z" fill="#0ABBEF"/>
<path d="M61.4775 143.952C61.7675 143.672 62.4575 143.302 62.5675 142.802C62.6675 142.372 62.2175 141.662 61.8075 141.302C60.6375 140.262 59.2175 139.742 57.6175 139.832C56.8375 139.872 56.2875 140.222 56.0575 141.022C55.8375 141.802 56.2275 142.292 56.7775 142.702C58.0775 143.682 59.5175 144.202 61.4775 143.952Z" fill="#0ABBEF"/>
<path d="M127.677 159.352C127.297 159.652 126.927 159.962 126.527 160.242C123.387 162.412 119.797 163.512 116.107 163.852C108.157 164.602 100.517 163.232 93.4175 159.412C92.9175 159.142 92.5275 159.112 91.9975 159.282C90.8375 159.662 89.6775 160.052 88.4875 160.302C83.2675 161.402 78.0575 162.602 72.8075 163.492C65.2475 164.762 57.6575 165.862 50.0575 166.902C46.7475 167.352 43.3875 167.592 40.0475 167.682C35.9475 167.782 32.6975 165.972 30.3175 162.642C29.8475 161.982 29.4075 161.302 28.9975 160.592C25.9775 155.352 24.0275 149.702 22.6875 143.832C21.5975 139.032 22.9175 135.552 26.9275 132.672C29.8875 130.552 33.1775 129.052 36.6375 127.992C45.5875 125.262 54.6275 122.892 63.8075 121.072C69.3375 119.972 74.8475 118.772 80.3875 117.732C86.9775 116.492 93.6075 115.482 100.317 115.182C103.707 115.032 107.127 115.052 110.497 115.382C115.467 115.862 119.157 118.392 121.117 123.132C123.287 128.372 124.747 133.802 125.517 139.412C125.807 141.522 125.887 143.662 125.387 145.772C124.587 149.162 122.717 151.742 119.437 152.982C117.217 153.822 114.857 154.292 112.557 154.922C112.047 155.062 111.537 155.192 110.727 155.402C113.517 156.852 116.227 157.622 118.977 158.272C121.787 158.942 124.657 158.922 127.537 158.882L127.677 159.352ZM111.057 157.682C109.957 157.182 108.897 156.552 107.937 155.822C107.037 155.142 107.197 154.612 108.287 154.262C108.817 154.092 109.377 154.002 109.917 153.872C112.477 153.242 115.057 152.672 117.597 151.952C121.337 150.892 123.677 148.142 123.977 144.282C124.117 142.422 124.047 140.512 123.777 138.672C123.027 133.632 121.627 128.752 119.757 124.002C118.187 120.002 115.207 117.752 111.017 117.062C107.897 116.542 104.727 116.502 101.597 116.762C96.6475 117.182 91.6675 117.572 86.7675 118.412C77.6575 119.972 68.5675 121.682 59.5275 123.642C51.4875 125.392 43.4975 127.422 35.6975 130.092C32.7575 131.092 29.9875 132.472 27.4675 134.332C24.6075 136.432 23.5975 139.232 24.2675 142.622C25.4875 148.852 27.6875 154.732 30.8575 160.222C31.3875 161.142 32.0475 161.992 32.7475 162.792C34.5975 164.902 37.0075 165.962 39.7675 165.892C43.0075 165.802 46.2675 165.622 49.4775 165.202C56.5275 164.282 63.5575 163.222 70.5775 162.142C73.1875 161.742 75.7575 161.082 78.3475 160.602C82.8375 159.782 87.3475 159.012 91.8475 158.212C92.0975 158.172 92.3975 158.182 92.5775 158.042C93.1375 157.582 93.5875 157.862 94.1075 158.132C101.137 161.852 108.647 163.142 116.517 162.372C118.577 162.172 120.587 161.562 122.517 160.682C118.507 160.322 114.697 159.332 111.057 157.682Z" fill="black"/>
<path d="M93.4875 131.942C95.3575 132.482 97.0975 133.342 98.4475 134.762C99.5875 135.952 99.1775 137.732 97.6775 138.452C97.0975 138.732 96.4175 138.852 95.7675 138.892C94.1675 138.972 92.6375 138.582 91.2375 137.792C90.0675 137.132 88.9575 136.352 89.0475 134.782C89.1175 133.532 90.2775 132.512 92.2775 132.002C92.4775 131.992 93.0275 131.832 93.4775 131.962L93.4875 131.942ZM90.5075 134.812C90.3475 135.782 91.2175 136.192 91.9175 136.572C93.2375 137.292 94.6675 137.682 96.1575 137.432C96.6975 137.342 97.3775 137.012 97.6175 136.572C97.9875 135.912 97.4375 135.282 96.8675 134.942C95.8775 134.342 94.8475 133.792 93.7775 133.342C93.3475 133.162 92.7975 133.282 92.4575 133.262C91.5575 133.682 90.6375 133.902 90.4975 134.812L90.5075 134.812Z" fill="black"/>
<path d="M72.0775 140.092C71.1075 139.132 71.0475 137.992 71.7475 136.752C72.4075 135.582 73.3475 135.122 74.6575 135.332C75.2075 135.422 75.7575 135.492 76.3075 135.572C78.1775 135.832 79.8375 136.552 81.0775 138.002C82.2875 139.412 81.8775 141.102 80.1975 141.872C79.8775 142.022 79.5375 142.122 79.0775 142.292C76.4675 142.712 74.0575 142.052 72.0675 140.102L72.0775 140.092ZM79.6875 140.562C80.4575 140.152 80.5975 139.572 80.1375 138.802C79.1175 137.092 75.7275 135.882 73.9375 136.592C72.8075 137.032 72.4575 138.492 73.3475 139.292C74.9075 140.692 76.7675 141.182 78.7375 140.922C79.1275 140.782 79.4275 140.712 79.6875 140.572V140.562Z" fill="black"/>
<path d="M38.1375 147.362C36.8275 146.602 36.3475 145.402 36.7475 144.152C37.1675 142.832 38.5375 141.802 39.8875 141.972C41.1375 142.122 42.3975 142.322 43.5775 142.732C44.5075 143.062 45.3975 143.642 46.1375 144.302C47.0575 145.132 46.9875 146.292 46.0175 147.082C45.4075 147.582 44.6375 147.882 43.9375 148.272C41.8575 148.642 39.9275 148.402 38.1375 147.362ZM45.2975 145.572C45.3775 144.772 44.5375 144.462 43.9875 144.042C42.8275 143.162 41.4775 142.992 40.1075 143.162C39.5975 143.222 39.0375 143.502 38.6475 143.852C37.8175 144.562 37.9175 145.542 38.8775 146.112C40.3275 146.972 41.8975 147.192 43.6375 146.722C44.2175 146.452 45.2175 146.502 45.3175 145.572H45.2975Z" fill="black"/>
<path d="M55.5075 143.492C54.4275 142.502 54.2875 141.142 55.0075 139.902C55.6075 138.862 56.6175 138.502 58.0375 138.822C58.8775 139.012 59.7275 139.162 60.5375 139.442C61.2475 139.682 61.9575 139.982 62.5775 140.402C63.5475 141.052 64.2175 141.952 63.9875 143.202C63.7575 144.462 62.7575 144.972 61.4975 145.382C59.2975 145.752 57.2475 145.082 55.5075 143.492ZM62.5675 142.802C62.6675 142.372 62.2175 141.662 61.8075 141.302C60.6375 140.262 59.2175 139.742 57.6175 139.832C56.8375 139.872 56.2875 140.222 56.0575 141.022C55.8375 141.802 56.2275 142.292 56.7775 142.702C58.0775 143.682 59.5175 144.202 61.4775 143.952C61.7675 143.672 62.4575 143.302 62.5675 142.802Z" fill="black"/>
<path d="M92.2275 63.8124C92.2275 89.1124 71.7275 109.612 46.4275 109.612C39.6875 109.612 33.2975 108.162 27.5275 105.542C24.3075 104.082 21.2875 102.262 18.5175 100.132C17.8375 99.6024 17.1775 99.0624 16.5275 98.5024C12.6275 95.1324 9.29748 91.1224 6.70748 86.6224C2.83748 79.9024 0.62748 72.1124 0.62748 63.8124C0.62748 38.5224 21.1375 18.0124 46.4275 18.0124C65.5275 18.0124 81.8975 29.7024 88.7675 46.3224C90.9975 51.7124 92.2275 57.6224 92.2275 63.8124Z" fill="url(#paint3_linear_2310_97367)"/>
<path d="M63.5975 56.0824C63.5475 54.5824 63.2175 53.1024 62.9975 51.5224C60.2575 52.6324 57.5975 52.9524 54.9275 52.4124C54.5775 52.3424 54.2175 52.2524 53.8675 52.1524C51.7375 51.5324 49.6275 50.7724 47.5975 49.8624C45.1075 48.7524 42.7675 48.6724 40.5775 50.3824C39.2575 51.4124 38.2475 52.7824 38.4675 54.5424C38.7775 57.0124 39.3475 59.4424 40.3875 61.7324C40.8575 62.7424 41.3075 63.7724 41.7075 64.8124C42.0675 65.7624 41.9575 66.1424 41.1075 66.5724C40.1575 67.0524 39.1675 67.4724 38.1575 67.8024C37.1675 68.1224 36.5975 67.8324 36.2475 66.8524C35.8175 65.6224 34.9575 64.8124 33.8675 64.2124C32.3075 63.3624 30.1675 63.5224 28.9875 64.5924C27.6475 65.8024 27.6075 67.3424 28.0575 68.9524C28.5475 70.6624 29.5075 72.0624 30.9275 73.1624C31.8675 73.8824 32.8875 74.1524 34.0675 73.8924C35.2875 73.6324 35.4475 73.7124 35.8075 74.9324C36.2375 76.4424 36.6575 77.9724 36.9275 79.5124C37.6375 83.6624 37.9675 87.8724 39.0275 91.9624C39.2675 92.8724 39.4075 93.8224 39.6275 94.9224C43.1075 94.8624 46.4975 94.8324 49.8775 94.7224C50.1475 94.7224 50.4075 94.7124 50.6775 94.7024C51.5475 94.6724 52.3975 94.2924 53.2575 94.0724C53.2075 92.2024 53.1075 90.5324 53.1275 88.8624C53.1575 87.1924 53.3075 85.5324 53.4075 83.8224C52.1675 83.6124 50.8675 83.4524 49.5875 83.1624C48.5175 82.9124 47.3775 82.7724 46.4375 82.1624C46.2475 82.0524 46.0775 81.9124 45.9075 81.7524C45.9475 81.6124 45.9875 81.4724 46.0275 81.3324C46.1175 81.3524 46.2175 81.3624 46.3075 81.3724C46.9475 81.4724 47.6075 81.5324 48.2275 81.7024C50.2075 82.2224 52.1975 82.5524 54.2475 82.5224C58.8175 82.4624 61.6775 80.3424 62.7575 75.9424C63.3075 73.6824 63.7575 71.3424 63.8175 69.0324C63.9275 64.7224 63.7575 60.4024 63.5975 56.0824ZM32.6075 70.4324C31.7575 70.3224 31.2275 69.8024 31.2175 68.9124C31.2175 68.2324 31.3475 67.5424 31.4575 66.5324C30.5875 66.9424 29.9575 67.2324 29.1875 67.5924C29.1075 66.4424 29.9475 65.5824 31.0675 65.5524C32.0375 65.5224 32.5575 66.1124 32.5175 67.2324C32.4875 67.8824 32.4375 68.5224 32.3975 69.3524C33.1775 69.3424 33.8975 69.3324 34.6075 69.3224C34.3575 70.1324 33.6075 70.5524 32.6075 70.4324ZM47.9275 54.9324C49.2475 54.5224 50.4775 55.2624 50.9775 56.7624C50.1075 56.5024 49.1975 55.9724 48.3775 56.0724C47.5575 56.1724 46.8175 56.9124 46.0475 57.3724C45.7275 56.3024 46.4375 55.3924 47.9275 54.9324ZM49.4875 63.8424C49.1075 64.5124 48.2475 64.4824 48.1275 63.7824C47.9675 62.8724 48.0675 61.9024 48.1675 60.9724C48.1975 60.7824 48.7075 60.5024 48.9875 60.5124C49.2675 60.5324 49.6475 60.8224 49.7575 61.0824C49.9275 61.4824 49.8875 61.9624 49.9575 62.4924C49.8175 62.9124 49.7275 63.4224 49.4875 63.8424ZM57.1575 74.6124C56.0775 74.7424 55.0175 74.7824 54.0175 74.5424C53.2575 74.3624 52.5475 74.0224 51.8775 73.4424C51.4575 73.6924 51.0975 73.9124 50.5375 74.2424C50.6075 72.9424 51.3175 72.3624 52.2075 71.5424C52.0975 73.1524 53.0475 73.5224 54.1075 73.7224C54.1575 73.7324 54.1975 73.7424 54.2475 73.7524C55.2375 73.9224 56.2375 74.0324 57.2375 74.1624C57.2075 74.3124 57.1775 74.4624 57.1575 74.6124ZM55.1975 69.9924C54.9075 69.9924 54.6075 69.9824 54.2875 69.9324C54.2275 69.9324 54.1775 69.9324 54.1175 69.9124C54.1275 69.8924 54.1475 69.8724 54.1575 69.8624C54.8575 68.9124 55.8675 69.3424 56.4675 68.7024C55.4075 66.7124 54.5475 64.6024 54.7375 62.2424C54.8475 62.2124 54.9675 62.1724 55.0775 62.1424C55.3975 63.1324 55.6675 64.1324 56.0275 65.1024C56.1175 65.3724 56.2175 65.6424 56.3275 65.9024C56.8375 67.0824 57.5275 68.1724 58.2075 69.4324C57.1575 69.6824 56.2375 69.9724 55.1975 69.9924ZM60.9675 62.4624C60.7975 62.7124 60.3575 63.0124 60.1475 62.9424C59.8275 62.8524 59.4475 62.4924 59.3875 62.1824C59.2575 61.5424 59.2375 60.8624 59.3275 60.2124C59.3675 59.8924 59.7175 59.4324 59.9875 59.3724C60.2875 59.3124 60.8075 59.5824 60.9675 59.8524C61.2175 60.2524 61.2475 60.7924 61.3475 61.2224C61.2075 61.7024 61.1775 62.1424 60.9675 62.4624ZM60.6375 56.2524C59.5875 55.6724 58.7075 55.8124 57.9275 56.7024C57.8075 56.8424 57.6075 56.9124 57.4175 57.0324C57.3175 55.9024 57.8875 55.0624 58.8775 54.7624C59.9775 54.4324 61.2675 55.0424 61.9975 56.5024C61.3675 56.3924 60.9475 56.4124 60.6375 56.2524Z" fill="white"/>
<path d="M53.4075 83.8224C53.3075 85.5324 53.1575 87.1924 53.1275 88.8624C53.1075 90.5324 53.2075 92.2024 53.2575 94.0724C52.3975 94.2924 51.5475 94.6724 50.6775 94.7024C50.4075 94.7124 50.1475 94.7224 49.8775 94.7224C48.2875 90.6724 47.1275 86.4524 46.4375 82.1624C47.3775 82.7724 48.5175 82.9124 49.5875 83.1624C50.8675 83.4524 52.1675 83.6124 53.4075 83.8224Z" fill="#F4C6CC"/>
<path d="M63.8175 69.0324C63.7575 71.3424 63.3075 73.6824 62.7575 75.9424C61.6775 80.3424 58.8175 82.4624 54.2475 82.5224C52.1975 82.5524 50.2075 82.2224 48.2275 81.7024C47.6075 81.5324 46.9475 81.4724 46.3075 81.3724C46.3075 81.3524 46.2975 81.3324 46.2975 81.3124C48.9375 82.0524 51.7675 80.2524 53.0275 77.8224C53.5575 76.7924 53.8575 75.6824 54.0175 74.5424C54.0675 74.2724 54.0975 73.9924 54.1075 73.7224C54.2275 72.4224 54.1775 71.0924 54.0675 69.7924C54.0975 69.8124 54.1275 69.8424 54.1575 69.8624C54.1975 69.8824 54.2375 69.9124 54.2875 69.9324C54.5675 70.0724 54.8875 70.0824 55.1975 69.9924C55.8275 69.8224 56.4275 69.2624 56.5975 68.6024C56.8875 67.5324 56.4575 66.4224 56.1075 65.3724C56.0775 65.2824 56.0475 65.1924 56.0275 65.1024C54.6875 61.0324 54.3175 56.6424 54.9275 52.4124C57.5975 52.9524 60.2575 52.6324 62.9975 51.5224C63.2175 53.1024 63.5475 54.5824 63.5975 56.0824C63.7575 60.4024 63.9275 64.7224 63.8175 69.0324Z" fill="#F4C6CC"/>
<path d="M39.3375 95.9624L41.7575 108.102C41.7575 108.102 49.6875 109.172 52.4275 108.602C55.1675 108.032 55.5075 108.102 55.5075 108.102C55.5075 108.102 54.0875 94.7424 53.8975 94.7024C53.7075 94.6624 50.3975 94.8924 48.2975 95.2324C46.1975 95.5724 39.3375 95.7324 39.3375 95.7324" fill="#76B82A"/>
<path d="M74.0175 100.352C74.0175 100.352 66.0875 94.3324 64.2575 93.7624C62.4275 93.1924 62.0075 92.9424 62.0075 92.9424L53.8975 95.9724L56.5075 108.112C56.5075 108.112 71.3675 103.442 74.0175 100.362V100.352Z" fill="white"/>
<path d="M28.5875 92.9324L18.0075 98.6024C18.0075 98.6024 27.0875 105.102 32.2575 106.602C37.4275 108.102 41.7575 109.182 41.7575 109.182L38.6775 98.6824" fill="white"/>
<path d="M64.9475 33.0724C65.5375 35.0224 65.3575 36.8924 64.4975 38.6324C63.1775 38.9324 61.9275 38.4724 60.6675 38.1324C59.1975 37.7324 57.7475 37.1824 56.2575 36.9824C53.0775 36.5624 50.0775 37.1124 47.5275 39.2624C46.3275 40.2724 45.9275 41.1224 45.9075 42.7124C46.2875 42.3524 46.5875 42.1124 46.8175 41.8224C49.4875 38.5324 52.9975 37.7824 56.9675 38.4724C57.7675 38.6124 58.5475 38.8724 59.3075 39.1524C61.9475 40.1124 64.5975 40.5924 67.3675 39.2124C67.5575 41.0924 67.1275 42.7524 66.5875 44.3624C66.4775 44.6824 66.0575 44.9624 65.7175 45.1424C64.6875 45.6924 63.5875 45.7424 62.4575 45.5424C61.6075 45.3924 60.7575 45.2424 59.8975 45.1624C59.4475 45.1224 58.9775 45.2224 58.5275 45.4624C60.9375 45.8624 63.1875 47.2124 65.7475 46.2724C65.3575 48.2524 64.8375 48.8124 63.0775 48.8224C62.0775 48.8224 61.0575 48.6524 60.0875 48.3924C58.6675 48.0024 57.3075 47.4224 55.8975 47.0024C54.5575 46.6024 53.1875 46.4224 51.7075 46.8024C51.8775 47.0324 51.9275 47.1524 51.9775 47.1624C54.2075 47.1824 56.2275 48.0124 58.2875 48.7524C59.8375 49.3124 61.4675 49.6824 63.0975 50.1424C62.7175 50.7124 61.9775 50.9124 61.2775 51.1124C59.5475 51.6124 57.7675 51.7424 55.9975 51.5024C53.2075 51.1124 50.5675 50.3024 48.1375 48.8024C45.4475 47.1524 42.1175 47.4924 39.7675 49.5124C38.7175 50.4124 38.2075 51.6124 37.8275 53.0224C37.1175 52.7124 36.4975 52.4124 35.8475 52.1724C34.0175 51.4824 32.1175 51.1324 30.1675 51.2424C29.4575 51.2824 29.0275 51.0724 28.6275 50.5324C27.8175 49.4524 27.2575 48.2724 27.0475 46.9424C26.8475 45.7024 27.0275 44.5224 27.7575 43.4524C28.8875 41.8024 30.2575 40.4424 32.1575 39.5824C30.6975 41.6124 30.3375 43.8324 30.8675 46.2224C31.1175 47.3624 31.0875 47.3724 31.9975 48.2624C31.9975 47.8224 32.0175 47.5124 31.9875 47.2024C31.8875 46.0924 31.7175 44.9824 31.6675 43.8724C31.6075 42.4924 32.1475 41.2924 33.0375 40.2524C34.3575 38.7224 36.0975 37.8324 37.9675 37.1024C36.5075 39.0324 35.2175 40.9924 35.0775 43.4824C35.0075 44.6924 34.9975 45.8824 35.5775 47.3924C35.7575 46.8224 35.8775 46.5824 35.8975 46.3424C35.9975 45.3324 35.9675 44.3024 36.1775 43.3124C37.1775 38.6324 41.6075 35.0524 46.5775 34.6824C49.5575 34.4624 52.4575 34.8924 55.3675 35.3624C56.2175 35.5024 57.0775 35.6224 57.9375 35.6624C60.5775 35.8024 62.9775 35.1824 64.9775 33.0924L64.9475 33.0724Z" fill="url(#paint4_linear_2310_97367)"/>
<path d="M40.9375 65.5424C39.6975 66.0524 38.5975 66.5024 37.4075 66.9924C37.1475 66.5324 36.9275 66.2024 36.7575 65.8524C34.8775 62.0724 30.7875 61.3124 27.6675 64.1524C27.5575 64.2524 27.4175 64.3124 27.2575 64.4124C26.1275 62.7024 25.5275 60.8224 25.3575 58.8324C25.1575 56.5424 26.1675 54.6824 27.7975 53.1624C28.6175 52.3924 29.6475 52.1724 30.7875 52.3824C30.3975 53.4524 29.9575 54.4524 29.6775 55.4924C29.4075 56.4924 29.2275 57.5424 30.1575 58.5024C30.2075 57.6824 30.1575 56.8424 30.3275 56.0424C30.5075 55.1624 30.7675 54.2624 31.1875 53.4724C31.7875 52.3324 31.9975 52.3224 33.4075 52.6824C32.7575 54.7524 32.2075 56.8224 33.5875 58.8224C33.5975 56.8424 33.0975 54.8224 34.3575 52.7724C35.3775 53.0924 36.4175 53.4224 37.6275 53.8024C37.5675 57.9724 39.1475 61.7024 40.9375 65.5324V65.5424Z" fill="url(#paint5_linear_2310_97367)"/>
<path d="M36.4575 83.6524C37.8375 91.0424 39.1275 98.0024 40.4275 104.972C40.3575 105.002 40.2875 105.042 40.2075 105.072C40.0375 104.822 39.8475 104.582 39.7075 104.312C39.0275 103.012 38.3875 101.682 37.6975 100.392C36.7275 98.5824 35.1375 97.6724 33.1475 97.4924C31.3875 97.3324 29.6175 97.2724 27.6575 97.1624C29.8475 92.1524 32.5375 87.7124 36.4475 83.6524H36.4575Z" fill="white"/>
<path d="M62.9675 97.4924C59.3541 97.8724 56.8775 99.349 55.5375 101.922C54.6775 96.4824 54.0275 91.2024 54.2375 85.5924C58.7675 88.5624 60.5775 93.1024 62.9675 97.4924Z" fill="white"/>
<path d="M29.1975 97.9124L27.3275 99.8024C28.9675 99.7924 30.6675 99.7824 32.1675 100.442C33.3475 100.962 34.3175 101.852 35.2375 102.742C37.0775 104.512 38.8275 106.372 40.4975 108.312C40.1975 106.382 39.2875 104.622 38.3875 102.892C37.7075 101.582 36.9875 100.232 35.7975 99.3624C34.1875 98.1824 32.0475 98.1124 30.0575 98.0824" fill="#76B82A"/>
<path d="M55.9575 104.082C56.0975 103.142 56.2375 102.192 56.5975 101.312C56.9575 100.432 57.5475 99.6124 58.3875 99.1724C59.2475 98.7224 60.2775 98.7124 61.2175 98.9324C62.1575 99.1524 63.0275 99.6024 63.8875 100.042C62.4575 101.252 60.5475 101.972 59.5975 103.592C59.0375 104.542 58.9075 105.682 58.9375 106.782C58.9475 107.092 58.9675 107.422 58.7875 107.682C58.5375 108.062 57.9975 108.102 57.5375 108.062C57.0775 108.022 56.5775 107.952 56.1975 108.202C55.8675 106.572 55.9175 104.862 56.3475 103.262" fill="#76B82A"/>
<path d="M58.4575 34.4024C57.3475 34.8524 56.1375 35.1024 54.9575 35.2224C54.8575 35.2324 54.7575 35.2424 54.6575 35.2424C52.4375 35.4524 50.1775 35.3324 47.9775 35.6724C42.5975 36.5324 37.8175 40.4624 35.9175 45.5724C35.9175 45.5724 35.9075 45.5824 35.9175 45.5924C35.8775 45.6724 35.8475 45.7624 35.8175 45.8424L35.5375 43.7024C35.3875 41.0624 36.9375 38.5024 39.1075 36.9724C41.2675 35.4324 43.9575 34.8024 46.5975 34.6324C49.2475 34.4524 51.8975 34.7024 54.5475 34.7624C55.7775 34.7924 57.0175 34.7824 58.2075 34.4724C58.2875 34.4524 58.3775 34.4224 58.4575 34.4024Z" fill="white"/>
<path d="M46.5275 41.2524C48.5575 38.6624 51.9275 37.1724 55.2075 37.4224C57.6575 37.6124 59.9475 38.6724 62.3575 39.1324C63.4175 39.3324 64.5175 39.4024 65.5575 39.1424C66.5975 38.8824 67.5875 38.2524 68.0975 37.3024C68.1375 38.7124 68.1675 40.1424 67.8775 41.5324C67.5875 42.9224 66.9375 44.2724 65.8175 45.1424C64.0175 46.5524 61.3875 46.4124 59.2875 45.5224C60.5775 45.3524 61.9075 45.1624 63.0175 44.4824C64.1275 43.8024 64.9575 42.4824 64.6575 41.2224C62.7875 42.1624 60.5375 41.8724 58.5275 41.2824C56.5175 40.6924 54.5675 39.8224 52.4875 39.6124C50.4075 39.4024 48.0575 40.0524 46.9675 41.8324" fill="white"/>
<path d="M36.9775 39.3024C35.4275 39.7324 33.9575 40.4424 32.6475 41.3824C32.1775 41.7224 31.7175 42.1024 31.3775 42.5824C31.0375 43.0624 30.8275 43.6424 30.8975 44.2324C31.1975 42.3024 32.1375 40.4824 33.5375 39.1224C34.9375 37.7624 36.7775 36.8724 38.7175 36.6224" fill="white"/>
<path d="M31.7875 41.1124C29.6675 41.6524 27.9575 43.5324 27.5975 45.6824C27.2375 47.8324 28.2675 50.1624 30.1075 51.3524C29.5975 51.4524 29.0775 51.2124 28.7075 50.8424C28.3375 50.4724 28.0975 50.0124 27.8675 49.5524C27.3575 48.5524 26.8475 47.5224 26.7275 46.4124C26.5675 44.8124 27.2575 43.2124 28.3375 42.0224C29.4175 40.8324 30.8375 40.0024 32.2975 39.3424" fill="white"/>
<path d="M29.1875 67.5924C29.1075 66.4424 29.9475 65.5824 31.0675 65.5524C32.0375 65.5224 32.5575 66.1124 32.5175 67.2324C32.4975 67.8724 32.4475 68.5224 32.3975 69.3524C33.1775 69.3424 33.8975 69.3324 34.6075 69.3224C34.3575 70.1324 33.6075 70.5524 32.6075 70.4224C31.7575 70.3124 31.2175 69.7924 31.2175 68.9124C31.2175 68.2324 31.3475 67.5424 31.4575 66.5324C30.5875 66.9424 29.9475 67.2324 29.1875 67.5924Z" fill="black"/>
<path d="M54.1175 69.9124C54.8175 68.8924 55.8575 69.3524 56.4675 68.7024C55.4075 66.7124 54.5575 64.6024 54.7375 62.2424C54.8575 62.2124 54.9675 62.1724 55.0875 62.1424C55.4975 63.4024 55.8175 64.6924 56.3375 65.9024C56.8375 67.0824 57.5375 68.1824 58.2175 69.4424C56.8175 69.7724 55.6475 70.1624 54.1275 69.9224L54.1175 69.9124Z" fill="black"/>
<path d="M49.9575 62.4824C49.8175 62.9024 49.7275 63.4124 49.4875 63.8324C49.1075 64.5024 48.2575 64.4824 48.1275 63.7724C47.9675 62.8624 48.0675 61.8924 48.1675 60.9624C48.1875 60.7724 48.7075 60.4824 48.9775 60.5024C49.2575 60.5224 49.6475 60.8024 49.7575 61.0724C49.9275 61.4724 49.8875 61.9524 49.9475 62.4824H49.9575Z" fill="black"/>
<path d="M61.3475 61.2124C61.2075 61.7024 61.1775 62.1324 60.9675 62.4624C60.8075 62.7124 60.3675 63.0124 60.1475 62.9424C59.8375 62.8524 59.4575 62.4824 59.3875 62.1724C59.2575 61.5324 59.2375 60.8524 59.3275 60.2124C59.3675 59.8924 59.7175 59.4324 59.9975 59.3724C60.2975 59.3124 60.8075 59.5724 60.9775 59.8524C61.2275 60.2524 61.2475 60.7924 61.3475 61.2224V61.2124Z" fill="black"/>
<path d="M50.9775 56.7524C50.1075 56.5024 49.2075 55.9624 48.3775 56.0624C47.5575 56.1624 46.8175 56.9024 46.0475 57.3624C45.7375 56.2924 46.4475 55.3824 47.9375 54.9224C49.2575 54.5124 50.4875 55.2524 50.9875 56.7424L50.9775 56.7524Z" fill="black"/>
<path d="M57.1575 74.6124C55.2775 74.8424 53.4375 74.8024 51.8875 73.4424C51.4675 73.6924 51.1075 73.9124 50.5475 74.2424C50.6175 72.9424 51.3275 72.3624 52.2175 71.5424C52.1075 73.2224 53.1375 73.5624 54.2575 73.7524C55.2475 73.9224 56.2475 74.0324 57.2475 74.1724C57.2175 74.3224 57.1875 74.4724 57.1675 74.6224L57.1575 74.6124Z" fill="black"/>
<path d="M62.0075 56.4924C61.3775 56.3824 60.9575 56.4124 60.6475 56.2424C59.5975 55.6724 58.7175 55.8124 57.9375 56.7024C57.8175 56.8424 57.6175 56.9124 57.4275 57.0324C57.3375 55.9024 57.8975 55.0624 58.8975 54.7624C59.9875 54.4324 61.2875 55.0424 62.0175 56.5024L62.0075 56.4924Z" fill="black"/>
<path d="M14.1375 31.1924C16.2575 29.0624 18.5875 27.1424 21.0675 25.4424C23.5375 23.7324 26.1975 22.2824 28.9575 21.0624C34.4875 18.6424 40.5075 17.2524 46.6075 17.1124C49.6575 17.0424 52.7175 17.2524 55.7275 17.8124C56.4775 17.9724 57.2275 18.1024 57.9775 18.2824C58.7175 18.4724 59.4675 18.6424 60.1975 18.8624C60.9275 19.1024 61.6675 19.3124 62.3875 19.5724C63.1075 19.8424 63.8275 20.0924 64.5375 20.3824C70.2275 22.6824 75.4175 26.2124 79.6975 30.5824C83.9575 34.9824 87.3275 40.2224 89.5375 45.8924C90.6475 48.7224 91.4775 51.6624 92.0075 54.6424C92.5575 57.6224 92.8175 60.6524 92.7975 63.6724C92.7575 69.7224 91.5675 75.7524 89.3075 81.3624C88.1675 84.1624 86.7675 86.8624 85.1275 89.4124C83.4775 91.9624 81.5775 94.3424 79.4675 96.5324C75.2375 100.892 70.1475 104.492 64.5075 106.882C58.8775 109.292 52.7575 110.582 46.6175 110.612C40.4775 110.652 34.3175 109.482 28.6075 107.152C22.8975 104.842 17.6775 101.322 13.3275 96.9724C9.00748 92.5824 5.50748 87.3724 3.22748 81.6524C0.91748 75.9324 -0.15252 69.7624 0.0174798 63.6624C0.16748 57.5624 1.56748 51.5324 3.98748 46.0024C5.21748 43.2424 6.65748 40.5824 8.37748 38.1124C10.0775 35.6324 11.9975 33.3024 14.1375 31.1824V31.1924ZM14.3075 31.3624C12.2075 33.4924 10.3075 35.8124 8.66748 38.3124C7.04748 40.8224 5.65748 43.4724 4.58748 46.2524C2.41748 51.8024 1.43748 57.7724 1.59748 63.6624C1.67748 66.6124 2.05748 69.5424 2.67748 72.4024C2.85748 73.1124 3.00748 73.8324 3.19748 74.5324C3.40748 75.2324 3.59748 75.9424 3.82748 76.6324C4.06748 77.3224 4.27748 78.0224 4.53748 78.7024C4.80748 79.3824 5.05748 80.0724 5.34748 80.7424C6.50748 83.4224 7.89748 86.0024 9.53748 88.4124C11.1775 90.8324 13.0475 93.0824 15.1175 95.1324C17.1875 97.1824 19.4375 99.0524 21.8675 100.672C24.2875 102.292 26.8675 103.672 29.5475 104.812C34.9175 107.082 40.7475 108.282 46.5975 108.322C52.4475 108.352 58.3075 107.272 63.7675 105.092C66.4875 104.002 69.1175 102.642 71.5975 101.052C74.0775 99.4624 76.3975 97.6224 78.5275 95.5724C82.7575 91.4524 86.2475 86.5124 88.5475 81.0224C90.8675 75.5524 92.0475 69.5924 92.0175 63.6524C91.9975 60.6824 91.6675 57.7124 91.0475 54.8124C90.4175 51.9124 89.4975 49.0824 88.3075 46.3824C85.9475 40.9624 82.4975 36.0624 78.2875 31.9724C76.1875 29.9224 73.8875 28.0824 71.4575 26.4524C69.0175 24.8324 66.4275 23.4524 63.7275 22.3024C63.0575 22.0124 62.3675 21.7724 61.6875 21.5024C60.9975 21.2424 60.2975 21.0324 59.6075 20.8024C58.9075 20.5724 58.1975 20.3924 57.4975 20.1824C56.7875 19.9924 56.0675 19.8424 55.3575 19.6624C52.4875 19.0524 49.5575 18.6724 46.6075 18.6024C40.7175 18.4624 34.7475 19.4424 29.1975 21.6124C26.4175 22.6824 23.7575 24.0824 21.2575 25.7024C18.7575 27.3424 16.4375 29.2524 14.3075 31.3524V31.3624Z" fill="black"/>
<path d="M66.2275 38.3324C66.8175 38.0224 67.3675 37.7324 68.1175 37.3424C68.7875 40.0324 68.1775 42.4424 67.4475 44.8324C66.7175 47.2524 65.5675 49.4424 63.5675 51.0224C65.0775 57.1224 65.3075 63.2024 64.9475 69.3024C64.8075 71.6724 64.2975 74.0324 63.7675 76.3524C62.7875 80.6824 59.9475 83.0224 55.5775 83.5524C55.3275 83.5824 55.0775 83.6224 54.8275 83.6724C54.7275 83.6924 54.6375 83.7324 54.5175 83.7724C54.1875 84.2424 54.3175 84.6124 54.8275 84.8524C57.8475 86.2524 59.6575 88.8124 61.2375 91.5824C61.6075 92.2424 62.0675 92.5824 62.8075 92.8524C64.6175 93.4924 66.4175 94.2024 68.1175 95.1024C69.9975 96.0924 71.7575 97.3124 73.5675 98.4524C73.9975 98.7224 74.4375 99.0124 74.7675 99.3824C74.9575 99.5924 74.9375 99.9924 75.0075 100.312C74.6775 100.332 74.3275 100.432 74.0275 100.352C73.6975 100.262 73.4275 99.9824 73.1275 99.8024C70.2575 98.0724 67.3975 96.3324 64.5175 94.6124C63.9675 94.2824 63.3575 94.0524 62.4375 93.6224C63.0275 94.8824 63.4875 95.8124 63.9075 96.7624C64.5875 98.3124 64.4275 98.5724 62.7075 98.7524C61.7475 98.8524 60.7775 98.8824 59.8275 99.0124C58.4975 99.1924 57.5975 99.9624 57.1575 101.222C56.4075 103.332 55.7575 105.462 56.1975 107.762C56.2975 108.272 56.5475 108.882 55.8575 109.242C55.1475 109.112 55.2475 108.522 55.1875 108.052C54.7475 104.782 54.3075 101.512 53.8575 98.2424C53.8075 97.9024 53.7175 97.5624 53.6475 97.2624C49.2275 97.6824 44.9075 98.1024 40.3775 98.5424C40.4275 98.9524 40.4775 99.4224 40.5575 99.8924C41.0575 102.792 41.5675 105.692 42.0675 108.592C42.0975 108.792 42.2075 109.012 42.1575 109.192C42.0575 109.542 41.8675 109.862 41.7175 110.202C41.4875 109.982 41.1675 109.792 41.0375 109.522C40.0975 107.552 39.1975 105.562 38.2675 103.582C37.8975 102.802 37.4475 102.062 37.0575 101.292C36.2075 99.6024 34.8175 98.6924 32.9575 98.5124C31.4375 98.3724 29.9175 98.3024 28.3975 98.2124C28.0475 98.1924 27.6775 98.2424 27.3375 98.1824C26.5075 98.0424 26.2975 97.6924 26.5875 96.9024C26.7875 96.3824 27.0575 95.8924 27.2975 95.3824C27.5375 94.8824 27.7675 94.3824 28.1175 93.6324C27.6175 93.8024 27.2975 93.8624 27.0175 94.0024C24.2975 95.4724 21.5775 96.9524 18.8575 98.4324C18.3675 98.7024 17.8875 98.9924 17.3775 99.2024C17.2075 99.2724 16.8375 99.1524 16.7375 99.0024C16.6475 98.8624 16.7175 98.5224 16.8375 98.3424C16.9675 98.1424 17.2175 98.0124 17.4275 97.8724C20.6875 95.6724 24.0775 93.7424 27.8375 92.5524C28.6175 92.3024 29.1375 91.8924 29.5475 91.1824C30.2875 89.9124 31.0575 88.6324 31.9775 87.4924C33.3075 85.8424 34.7775 84.3024 36.4475 82.4224C35.9875 80.2324 35.4575 77.6624 34.9475 75.2324C34.6375 75.1024 34.5375 75.0124 34.4575 75.0324C32.5375 75.5424 30.9575 74.8824 29.5875 73.5824C27.2475 71.3624 26.1475 68.7224 26.8575 65.5024C23.6075 61.1124 23.0675 55.4924 27.8975 51.7424C27.6975 51.4224 27.4375 51.1124 27.2875 50.7624C26.8075 49.6524 26.2675 48.5524 25.9375 47.4024C25.4475 45.6824 25.8975 44.0924 26.9475 42.6624C28.9875 39.8724 31.8075 38.2624 35.0175 37.2124C35.4475 37.0724 35.8775 36.9424 36.2975 36.7824C38.7575 35.8424 41.1775 34.7524 43.6975 33.9924C45.2275 33.5224 46.8975 33.3624 48.5075 33.3924C50.7875 33.4324 53.0575 33.7624 55.3375 33.9724C57.3575 34.1624 59.3675 34.5124 61.3875 33.8624C62.5275 33.5024 63.5475 33.0424 64.2775 32.0224C64.8275 31.2424 65.3775 31.2624 65.7575 32.1024C66.1275 32.9124 66.3875 33.8324 66.4475 34.7124C66.5175 35.8624 66.3475 37.0224 66.2675 38.3724L66.2275 38.3324ZM45.9075 81.7524C45.9475 81.6124 45.9875 81.4724 46.0275 81.3224C46.7675 81.4424 47.5175 81.5024 48.2275 81.6924C50.2075 82.2224 52.1975 82.5424 54.2475 82.5124C58.8175 82.4524 61.6675 80.3324 62.7475 75.9224C63.2975 73.6624 63.7575 71.3324 63.8075 69.0124C63.9175 64.7024 63.7375 60.3824 63.5875 56.0624C63.5375 54.5624 63.1975 53.0824 62.9775 51.5024C59.8875 52.7524 56.8675 52.9924 53.8575 52.1224C51.7275 51.5124 49.6175 50.7424 47.5875 49.8424C45.0975 48.7224 42.7475 48.6524 40.5575 50.3624C39.2475 51.3924 38.2275 52.7624 38.4475 54.5224C38.7575 56.9924 39.3275 59.4224 40.3675 61.7124C40.8275 62.7324 41.2875 63.7524 41.6875 64.7924C42.0475 65.7424 41.9375 66.1224 41.0875 66.5524C40.1375 67.0324 39.1475 67.4524 38.1375 67.7824C37.1375 68.1124 36.5675 67.8224 36.2275 66.8424C35.7975 65.6124 34.9275 64.8024 33.8475 64.2024C32.2875 63.3524 30.1475 63.5124 28.9675 64.5824C27.6275 65.7924 27.5875 67.3324 28.0375 68.9424C28.5275 70.6624 29.4875 72.0624 30.9075 73.1524C31.8475 73.8824 32.8675 74.1424 34.0475 73.8924C35.2675 73.6324 35.4275 73.7024 35.7775 74.9324C36.2175 76.4424 36.6275 77.9724 36.8975 79.5124C37.6075 83.6624 37.9475 87.8624 39.0075 91.9524C39.2475 92.8724 39.3875 93.8124 39.6075 94.9224C43.3575 94.8624 47.0075 94.8324 50.6575 94.7024C51.5275 94.6724 52.3875 94.2924 53.2475 94.0724C53.1975 92.2024 53.0975 90.5224 53.1175 88.8524C53.1375 87.1924 53.2975 85.5324 53.3975 83.8124C52.1575 83.6024 50.8475 83.4524 49.5775 83.1524C48.2875 82.8524 46.9075 82.7124 45.8875 81.7424L45.9075 81.7524ZM64.9475 33.0724C62.9375 35.1624 60.5475 35.7924 57.9075 35.6424C57.0475 35.5924 56.1875 35.4724 55.3375 35.3424C52.4275 34.8724 49.5275 34.4424 46.5475 34.6624C41.5775 35.0324 37.1475 38.6124 36.1475 43.2924C35.9375 44.2724 35.9675 45.3124 35.8675 46.3224C35.8375 46.5724 35.7275 46.8024 35.5475 47.3724C34.9675 45.8724 34.9775 44.6724 35.0475 43.4624C35.1875 40.9724 36.4775 39.0024 37.9375 37.0824C36.0675 37.8124 34.3375 38.7024 33.0075 40.2324C32.1075 41.2724 31.5775 42.4724 31.6375 43.8524C31.6775 44.9624 31.8575 46.0724 31.9575 47.1824C31.9875 47.4924 31.9575 47.8024 31.9675 48.2424C31.0575 47.3524 31.0975 47.3424 30.8375 46.2024C30.3075 43.8124 30.6675 41.6024 32.1275 39.5624C30.2275 40.4224 28.8575 41.7824 27.7275 43.4324C26.9875 44.5124 26.8175 45.6824 27.0175 46.9224C27.2275 48.2524 27.7875 49.4324 28.5975 50.5124C28.9975 51.0424 29.4275 51.2624 30.1375 51.2224C32.0875 51.1224 33.9875 51.4624 35.8175 52.1524C36.4675 52.3924 37.0875 52.7024 37.7975 53.0024C38.1775 51.5924 38.6875 50.3924 39.7375 49.4924C42.0875 47.4624 45.4175 47.1324 48.1075 48.7824C50.5375 50.2724 53.1775 51.0924 55.9675 51.4824C57.7475 51.7324 59.5275 51.6024 61.2475 51.0924C61.9475 50.8924 62.6975 50.6824 63.0675 50.1224C61.4375 49.6624 59.8175 49.2924 58.2575 48.7324C56.1975 47.9924 54.1875 47.1524 51.9475 47.1424C51.8975 47.1424 51.8475 47.0124 51.6775 46.7824C53.1675 46.4024 54.5375 46.5824 55.8675 46.9824C57.2775 47.4024 58.6375 47.9824 60.0575 48.3724C61.0175 48.6324 62.0475 48.8124 63.0475 48.8024C64.8075 48.8024 65.3275 48.2424 65.7175 46.2524C63.1575 47.1924 60.9075 45.8424 58.4975 45.4424C58.9475 45.2024 59.4175 45.1024 59.8675 45.1424C60.7275 45.2224 61.5775 45.3724 62.4275 45.5224C63.5575 45.7224 64.6675 45.6724 65.6875 45.1224C66.0275 44.9424 66.4475 44.6724 66.5575 44.3424C67.1075 42.7224 67.5375 41.0724 67.3375 39.1924C64.5575 40.5824 61.9175 40.1024 59.2775 39.1324C58.5175 38.8524 57.7375 38.5924 56.9375 38.4524C52.9675 37.7624 49.4575 38.5124 46.7875 41.8024C46.5575 42.0924 46.2475 42.3224 45.8775 42.6924C45.8975 41.1124 46.2975 40.2524 47.4975 39.2424C50.0375 37.0924 53.0375 36.5424 56.2275 36.9624C57.7275 37.1624 59.1675 37.7124 60.6375 38.1124C61.9075 38.4524 63.1575 38.9124 64.4675 38.6124C65.3375 36.8724 65.5075 35.0024 64.9175 33.0524L64.9475 33.0724ZM40.9375 65.5424C39.1475 61.7124 37.5675 57.9824 37.6275 53.8124C36.4175 53.4324 35.3875 53.1024 34.3575 52.7824C33.0975 54.8324 33.5975 56.8524 33.5875 58.8324C32.2175 56.8324 32.7675 54.7624 33.4075 52.6924C31.9975 52.3324 31.7875 52.3424 31.1875 53.4824C30.7675 54.2724 30.5075 55.1724 30.3275 56.0524C30.1675 56.8524 30.2075 57.6924 30.1575 58.5124C29.2175 57.5524 29.4075 56.4924 29.6775 55.5024C29.9575 54.4624 30.3975 53.4624 30.7875 52.3924C29.6575 52.1924 28.6275 52.4024 27.7975 53.1724C26.1675 54.6924 25.1575 56.5624 25.3575 58.8424C25.5275 60.8324 26.1275 62.7124 27.2575 64.4224C27.4175 64.3224 27.5575 64.2624 27.6675 64.1624C30.7875 61.3224 34.8775 62.0824 36.7575 65.8624C36.9275 66.2124 37.1475 66.5424 37.4075 67.0024C38.5975 66.5124 39.6975 66.0624 40.9375 65.5524V65.5424ZM36.4575 83.6524C32.5475 87.7124 29.8575 92.1524 27.6675 97.1624C29.6275 97.2724 31.3975 97.3324 33.1575 97.4924C35.1475 97.6724 36.7375 98.5824 37.7075 100.392C38.3975 101.692 39.0475 103.012 39.7175 104.312C39.8575 104.582 40.0475 104.822 40.2175 105.072C40.2875 105.042 40.3575 105.002 40.4375 104.972C39.1375 98.0124 37.8475 91.0424 36.4675 83.6524H36.4575ZM62.9675 97.4924C60.5775 93.1024 58.7675 88.5624 54.2375 85.5924C54.0375 91.2024 54.6775 96.4824 55.5375 101.922C56.8775 99.3557 59.3541 97.879 62.9675 97.4924ZM53.4075 94.8824C48.8575 96.4624 44.3075 95.3824 39.7675 95.8324C39.8875 96.3724 39.9875 96.8424 40.0875 97.2724C42.6175 97.4624 52.2575 96.5824 53.4775 96.0624C53.4575 95.7324 53.4375 95.3824 53.4175 94.8924L53.4075 94.8824Z" fill="black"/>
<path d="M84.8875 77.1824C88.7475 76.0524 92.2975 74.3324 95.5375 72.0024C96.5175 71.3024 97.4375 70.4724 98.2375 69.5724C98.9875 68.7224 98.7275 68.2424 97.5975 68.1124C97.0475 68.0524 96.4775 68.0724 95.9275 68.0424C93.2875 67.9224 90.6475 67.8624 88.0175 67.6624C84.1375 67.3624 81.3075 65.1124 80.2575 61.3824C79.7575 59.5924 79.4475 57.7024 79.3575 55.8424C79.1075 50.7524 79.5275 45.6924 80.4275 40.6724C81.1875 36.4424 83.6675 33.6524 87.6475 32.1524C90.6075 31.0324 93.7075 30.3724 96.8275 30.0224C101.767 29.4624 106.727 28.8824 111.687 28.7424C120.927 28.4924 130.177 28.3924 139.417 28.5524C147.647 28.6924 155.877 29.1324 164.047 30.2224C167.127 30.6324 170.107 31.4424 172.947 32.7624C176.157 34.2624 177.697 36.8124 177.707 40.2724C177.727 46.6224 176.727 52.8124 174.687 58.8224C174.347 59.8224 173.867 60.7924 173.337 61.7124C171.937 64.1524 169.777 65.6524 167.057 66.1224C163.857 66.6724 160.637 67.1224 157.397 67.3424C150.307 67.8124 143.207 68.1524 136.107 68.4624C133.467 68.5824 130.827 68.4324 128.187 68.4724C123.617 68.5424 119.047 68.6624 114.487 68.7624C114.237 68.7624 113.937 68.8424 113.737 68.7424C113.097 68.4024 112.717 68.7624 112.257 69.1324C106.087 74.1524 98.9775 76.8824 91.1075 77.6624C89.0475 77.8624 86.9675 77.6624 84.8975 77.1724L84.8875 77.1824ZM108.927 43.1424C108.727 43.1724 108.157 43.1124 107.737 43.3324C106.007 44.2324 104.467 45.4124 103.427 47.0624C102.547 48.4524 103.287 50.1224 104.897 50.5324C105.517 50.6924 106.217 50.6824 106.857 50.5824C108.447 50.3424 109.867 49.6724 111.087 48.6224C112.097 47.7424 113.037 46.7624 112.647 45.2424C112.337 44.0324 110.987 43.2524 108.937 43.1424H108.927ZM123.887 50.6624C126.537 50.5624 128.767 49.4524 130.327 47.1424C131.097 46.0124 130.927 44.8824 129.997 43.8024C129.117 42.7824 128.107 42.5224 126.867 42.9724C126.347 43.1624 125.817 43.3424 125.297 43.5224C123.517 44.1424 122.027 45.1824 121.087 46.8424C120.177 48.4624 120.907 50.0424 122.707 50.4724C123.047 50.5524 123.407 50.5924 123.887 50.6624ZM159.527 49.6624C161.647 49.6124 163.477 49.0024 165.037 47.6324C166.167 46.6324 166.407 45.3624 165.777 44.2124C165.107 43.0024 163.557 42.2624 162.277 42.6824C161.087 43.0724 159.877 43.5124 158.807 44.1524C157.957 44.6524 157.197 45.4024 156.607 46.1924C155.867 47.1824 156.167 48.3124 157.267 48.8924C157.957 49.2624 158.777 49.4124 159.537 49.6524L159.527 49.6624ZM141.737 50.2524C143.967 50.1924 145.847 49.1324 147.237 47.2324C148.107 46.0524 147.977 44.6924 147.027 43.6124C146.237 42.7124 145.177 42.5524 143.847 43.1424C143.067 43.4924 142.257 43.8124 141.517 44.2324C140.867 44.6024 140.227 45.0424 139.697 45.5724C138.867 46.3924 138.387 47.4124 138.867 48.6024C139.347 49.7924 140.417 50.1024 141.737 50.2524Z" fill="white"/>
<path d="M108.997 44.4224C109.967 44.6524 110.907 44.7024 111.227 45.5624C111.577 46.4924 110.797 47.0624 110.187 47.5724C109.037 48.5324 107.707 49.1924 106.197 49.2424C105.657 49.2624 104.917 49.0624 104.597 48.6924C104.107 48.1124 104.517 47.3924 105.017 46.9424C105.877 46.1624 106.777 45.4224 107.727 44.7624C108.107 44.5024 108.677 44.5024 109.007 44.4324L108.997 44.4224Z" fill="#0ABBEF"/>
<path d="M123.957 49.2424C123.547 49.1824 123.237 49.1724 122.957 49.0824C122.117 48.8324 121.867 48.2924 122.167 47.4424C122.827 45.5724 125.917 43.7224 127.817 44.0624C129.007 44.2724 129.647 45.6324 128.927 46.5924C127.667 48.2724 125.947 49.1124 123.957 49.2424Z" fill="#0ABBEF"/>
<path d="M159.527 48.0824C158.907 47.9324 157.937 48.1824 157.657 47.2824C157.417 46.5224 158.187 46.0424 158.647 45.5324C159.607 44.4424 160.897 44.0124 162.287 43.9124C162.807 43.8724 163.397 44.0424 163.857 44.3024C164.807 44.8424 164.897 45.8224 164.077 46.5624C162.827 47.6924 161.327 48.2124 159.537 48.0924L159.527 48.0824Z" fill="#0ABBEF"/>
<path d="M141.467 48.8524C141.137 48.6324 140.387 48.4024 140.177 47.9324C139.997 47.5324 140.297 46.7524 140.627 46.3124C141.577 45.0624 142.867 44.2724 144.447 44.0524C145.217 43.9424 145.827 44.1724 146.217 44.9124C146.587 45.6324 146.297 46.1924 145.837 46.7024C144.757 47.9224 143.447 48.7024 141.467 48.8424V48.8524Z" fill="#0ABBEF"/>
<path d="M79.5975 76.4024C82.4275 75.8824 85.2475 75.3424 87.8775 74.1324C90.4475 72.9524 92.9575 71.6724 95.4075 69.7024C94.5775 69.6524 94.0475 69.6324 93.5175 69.5924C91.1375 69.4224 88.7275 69.4224 86.3875 69.0324C82.9275 68.4524 80.5775 66.2824 79.1375 63.1224C78.2375 61.1524 77.8975 59.0324 77.7675 56.9124C77.4375 51.2624 77.7975 45.6424 78.9075 40.0824C79.9075 35.0524 83.0275 31.8524 87.8075 30.4124C91.0475 29.4324 94.4075 28.7424 97.7575 28.2324C104.387 27.2124 111.097 26.9124 117.797 26.8424C123.437 26.7824 129.077 26.8824 134.717 26.8824C144.077 26.8824 153.407 27.4324 162.717 28.3624C166.307 28.7224 169.827 29.5424 173.147 31.0524C177.637 33.0924 179.617 36.2424 179.487 41.1624C179.317 47.1824 178.517 53.1024 176.577 58.8324C176.317 59.6024 176.017 60.3624 175.687 61.0924C173.997 64.8224 171.167 67.2424 167.127 67.9424C163.837 68.5124 160.497 68.9324 157.157 69.1424C149.507 69.6124 141.847 70.0224 134.177 70.2424C128.847 70.4024 123.507 70.2424 118.177 70.1824C116.957 70.1724 115.747 70.0224 114.537 69.8724C113.987 69.8024 113.617 69.9124 113.167 70.2724C106.947 75.4024 99.7275 78.2424 91.7875 79.0624C88.0975 79.4424 84.3675 79.0624 80.8675 77.5524C80.4175 77.3624 79.9975 77.1224 79.5575 76.9024L79.5975 76.4124V76.4024ZM84.8875 77.1824C86.9575 77.6724 89.0375 77.8724 91.0975 77.6724C98.9675 76.8924 106.077 74.1624 112.247 69.1424C112.697 68.7724 113.087 68.4124 113.727 68.7524C113.927 68.8624 114.227 68.7824 114.477 68.7724C119.047 68.6724 123.607 68.5524 128.177 68.4824C130.817 68.4424 133.467 68.5924 136.097 68.4724C143.197 68.1624 150.297 67.8224 157.387 67.3524C160.617 67.1324 163.847 66.6824 167.047 66.1324C169.777 65.6624 171.927 64.1624 173.327 61.7224C173.857 60.8024 174.337 59.8324 174.677 58.8324C176.717 52.8224 177.727 46.6224 177.697 40.2824C177.687 36.8224 176.147 34.2824 172.937 32.7724C170.097 31.4424 167.117 30.6424 164.037 30.2324C155.867 29.1424 147.637 28.7124 139.407 28.5624C130.167 28.4024 120.917 28.5024 111.677 28.7524C106.717 28.8824 101.757 29.4724 96.8175 30.0324C93.6975 30.3824 90.5975 31.0524 87.6375 32.1624C83.6575 33.6624 81.1875 36.4524 80.4175 40.6824C79.5175 45.7024 79.0975 50.7624 79.3475 55.8524C79.4375 57.7124 79.7475 59.6024 80.2475 61.3924C81.2975 65.1224 84.1275 67.3624 88.0075 67.6724C90.6375 67.8824 93.2775 67.9324 95.9175 68.0524C96.4775 68.0824 97.0375 68.0524 97.5875 68.1224C98.7175 68.2524 98.9775 68.7424 98.2275 69.5824C97.4275 70.4824 96.5075 71.3124 95.5275 72.0124C92.2875 74.3324 88.7375 76.0624 84.8775 77.1924L84.8875 77.1824Z" fill="black"/>
<path d="M108.927 43.1424C110.977 43.2524 112.317 44.0324 112.637 45.2424C113.027 46.7624 112.097 47.7424 111.077 48.6224C109.867 49.6724 108.437 50.3524 106.847 50.5824C106.207 50.6824 105.507 50.6824 104.887 50.5324C103.277 50.1224 102.527 48.4624 103.417 47.0624C104.457 45.4124 106.007 44.2324 107.727 43.3324C108.147 43.1124 108.707 43.1724 108.917 43.1424H108.927ZM108.997 44.4224C108.667 44.5024 108.107 44.4924 107.717 44.7524C106.767 45.4124 105.857 46.1524 105.007 46.9324C104.507 47.3824 104.097 48.1024 104.587 48.6824C104.907 49.0624 105.647 49.2524 106.187 49.2324C107.707 49.1824 109.027 48.5224 110.177 47.5624C110.787 47.0524 111.567 46.4824 111.217 45.5524C110.897 44.6924 109.957 44.6424 108.987 44.4124L108.997 44.4224Z" fill="black"/>
<path d="M123.887 50.6624C123.407 50.5824 123.057 50.5524 122.707 50.4724C120.907 50.0424 120.167 48.4624 121.087 46.8424C122.027 45.1824 123.507 44.1524 125.297 43.5224C125.817 43.3424 126.347 43.1624 126.867 42.9724C128.117 42.5124 129.127 42.7824 129.997 43.8024C130.927 44.8924 131.097 46.0124 130.327 47.1424C128.767 49.4524 126.527 50.5624 123.887 50.6624ZM123.957 49.2424C125.947 49.1124 127.667 48.2624 128.927 46.5924C129.647 45.6324 129.017 44.2724 127.817 44.0624C125.917 43.7224 122.827 45.5724 122.167 47.4424C121.867 48.2924 122.117 48.8324 122.957 49.0824C123.247 49.1724 123.557 49.1824 123.957 49.2424Z" fill="black"/>
<path d="M159.527 49.6624C158.767 49.4124 157.947 49.2724 157.257 48.9024C156.157 48.3124 155.857 47.1924 156.597 46.2024C157.187 45.4124 157.957 44.6624 158.797 44.1624C159.867 43.5224 161.077 43.0924 162.267 42.6924C163.547 42.2724 165.097 43.0124 165.767 44.2224C166.397 45.3624 166.157 46.6424 165.027 47.6424C163.477 49.0124 161.637 49.6224 159.517 49.6724L159.527 49.6624ZM159.527 48.0824C161.317 48.2024 162.817 47.6824 164.067 46.5524C164.887 45.8124 164.797 44.8324 163.847 44.2924C163.387 44.0324 162.797 43.8724 162.277 43.9024C160.887 44.0024 159.607 44.4324 158.637 45.5224C158.177 46.0424 157.417 46.5124 157.647 47.2724C157.927 48.1724 158.897 47.9224 159.517 48.0724L159.527 48.0824Z" fill="black"/>
<path d="M141.737 50.2524C140.417 50.0924 139.337 49.7924 138.867 48.6024C138.397 47.4224 138.867 46.4024 139.697 45.5724C140.227 45.0424 140.867 44.6124 141.517 44.2324C142.257 43.8024 143.057 43.4924 143.847 43.1424C145.177 42.5524 146.237 42.7124 147.027 43.6124C147.977 44.6924 148.107 46.0524 147.237 47.2324C145.847 49.1324 143.967 50.1924 141.737 50.2524ZM141.467 48.8524C143.437 48.7124 144.747 47.9324 145.837 46.7124C146.297 46.2024 146.587 45.6424 146.217 44.9224C145.837 44.1824 145.227 43.9524 144.447 44.0624C142.867 44.2824 141.577 45.0724 140.627 46.3224C140.297 46.7524 139.997 47.5324 140.177 47.9424C140.387 48.4124 141.137 48.6424 141.467 48.8624V48.8524Z" fill="black"/>
<defs>
<linearGradient id="paint0_linear_2310_97367" x1="0" y1="96" x2="204.368" y2="96" gradientUnits="userSpaceOnUse">
<stop stop-color="#0ABBEF"/>
<stop offset="0.24" stop-color="#0D9ACF"/>
<stop offset="0.76" stop-color="#14598E"/>
<stop offset="1" stop-color="#174075"/>
</linearGradient>
<linearGradient id="paint1_linear_2310_97367" x1="-0.022311" y1="96" x2="204.368" y2="96" gradientUnits="userSpaceOnUse">
<stop stop-color="#A25A9F"/>
<stop offset="0.65" stop-color="#693068"/>
<stop offset="1" stop-color="#501D50"/>
</linearGradient>
<linearGradient id="paint2_linear_2310_97367" x1="102.184" y1="192.008" x2="102.184" y2="0.0380114" gradientUnits="userSpaceOnUse">
<stop stop-color="#A25A9F"/>
<stop offset="0.07" stop-color="#975194"/>
<stop offset="0.32" stop-color="#783A76"/>
<stop offset="0.56" stop-color="#612A61"/>
<stop offset="0.79" stop-color="#542054"/>
<stop offset="1" stop-color="#501D50"/>
</linearGradient>
<linearGradient id="paint3_linear_2310_97367" x1="56.1374" y1="193.652" x2="199.458" y2="35.5839" gradientUnits="userSpaceOnUse">
<stop stop-color="#A3A3A3"/>
<stop offset="1" stop-color="#ECECEC"/>
</linearGradient>
<linearGradient id="paint4_linear_2310_97367" x1="-0.221872" y1="96.0481" x2="204.34" y2="96.0481" gradientUnits="userSpaceOnUse">
<stop stop-color="#ED6C2E"/>
<stop offset="0.05" stop-color="#EB6B2C"/>
<stop offset="1" stop-color="#D2681A"/>
</linearGradient>
<linearGradient id="paint5_linear_2310_97367" x1="0.0672743" y1="96.0344" x2="204.368" y2="96.0344" gradientUnits="userSpaceOnUse">
<stop stop-color="#ED6C2E"/>
<stop offset="0.05" stop-color="#EB6B2C"/>
<stop offset="1" stop-color="#D2681A"/>
</linearGradient>
</defs>
</svg>
