<?xml version="1.0" encoding="UTF-8"?>
<svg id="Layer_2" data-name="Layer 2" xmlns="http://www.w3.org/2000/svg" xmlns:xlink="http://www.w3.org/1999/xlink" viewBox="0 0 198.5 218.05">
  <defs>
    <style>
      .cls-1 {
        fill: #000;
      }

      .cls-1, .cls-2, .cls-3, .cls-4, .cls-5, .cls-6, .cls-7, .cls-8, .cls-9, .cls-10, .cls-11 {
        stroke-width: 0px;
      }

      .cls-2 {
        fill: #0abbef;
      }

      .cls-3 {
        fill: #a25a9f;
      }

      .cls-4 {
        fill: #76b82a;
      }

      .cls-5 {
        fill: #f4c6cc;
      }

      .cls-6 {
        fill: #ec5f6c;
      }

      .cls-7 {
        fill: #ed6c2e;
      }

      .cls-8 {
        fill: #ee882c;
      }

      .cls-9 {
        fill: #fff;
      }

      .cls-10 {
        fill: #ffed00;
      }

      .cls-11 {
        fill: url(#_Безымянный_градиент_11);
      }
    </style>
    <linearGradient id="_Безымянный_градиент_11" data-name="Безымянный градиент 11" x1="6.13" y1="119.38" x2="197.11" y2="119.38" gradientUnits="userSpaceOnUse">
      <stop offset="0" stop-color="#ee882c"/>
      <stop offset=".16" stop-color="#ef8f28"/>
      <stop offset=".42" stop-color="#f2a51f"/>
      <stop offset=".73" stop-color="#f8c80f"/>
      <stop offset="1" stop-color="#ffed00"/>
    </linearGradient>
  </defs>
  <g id="_Наведение" data-name="Наведение">
    <g id="_8" data-name="8">
      <path class="cls-11" d="M197.11,119.38c0,52.74-42.75,95.49-95.49,95.49-14.05,0-27.38-3.03-39.4-8.48-6.72-3.04-13.01-6.84-18.78-11.29h-.02c-1.42-1.1-2.8-2.24-4.15-3.4-8.14-7.02-15.08-15.39-20.47-24.76-8.06-14-12.67-30.24-12.67-47.56,0-52.74,42.75-95.49,95.49-95.49,39.82,0,73.95,24.38,88.28,59.03,4.64,11.24,7.21,23.55,7.21,36.47Z"/>
      <path class="cls-4" d="M72.84,176.43l22.75,32.81,3.54,4.11s-15.98.75-19.23-1.15-11.19-5.27-11.19-5.27c0,0-.81-11.5-.56-11.97s.94-11.78.94-11.78"/>
      <polyline class="cls-9" points="72.53 176.43 69.07 183.5 68.11 209.12 72.16 209.74 70.37 183.5 73.59 177.74"/>
      <path class="cls-4" d="M150.16,190.06l2.94,1.88-1.81,10.94-13.2,2.62s7.51-8.62,7.88-9.25"/>
      <path class="cls-1" d="M75.04,28.49c-.93-.61-1.76-1.37-2.67-2.03-.11-.08-.23-.16-.34-.23-1.18.37-2.36.77-3.52,1.2.03.19.06.38.11.57.03.15.07.3.11.45.06.22.12.43.19.64.08.25.18.48.28.71.02.06.05.12.08.18.11.26.23.51.37.75.14.26.3.52.47.76.01.03.03.06.05.08,2.54-.9,5.11-1.69,7.72-2.38-.92.18-1.87-.07-2.85-.7ZM198.49,119.38c-.11-6.34-.82-12.66-2.15-18.84-1.34-6.18-3.24-12.23-5.7-18.03-4.92-11.62-12.06-22.26-20.92-31.23-.55-.56-1.11-1.11-1.67-1.65-.66-.65-1.33-1.28-2.01-1.9-3.39-3.11-7-5.99-10.79-8.61-.65-.45-1.3-.89-1.96-1.33-2.43-1.61-4.94-3.11-7.52-4.49-1.11-.6-2.24-1.18-3.39-1.73-.64-.32-1.29-.63-1.95-.93-.57-.27-1.15-.53-1.73-.78-1.42-.62-2.85-1.21-4.3-1.76h-.01c-.99-.38-1.99-.74-3-1.09,0,0,0-.01-.01,0-3.02-1.04-6.09-1.93-9.2-2.65-.01-.01-.02-.01-.03-.01-2.51-.59-5.04-1.07-7.59-1.46-4.28-.65-8.6-1.01-12.93-1.08-1.12-.01-2.25,0-3.37.02-.46,0-.92.02-1.38.05-.66.02-1.33.05-1.99.1-.41.02-.82.04-1.23.08-2.69.19-5.37.5-8.03.93h-.01c-1.61.26-3.2.55-4.79.9-1.18.25-2.36.52-3.52.82-1.78.45-3.54.96-5.28,1.52-1.18.37-2.36.77-3.52,1.2-1.05.38-2.1.78-3.13,1.22-.38.14-.76.3-1.14.46-1.48.61-2.92,1.32-4.37,1.98-1.45.68-2.85,1.46-4.27,2.18-1.4.77-2.75,1.63-4.13,2.43-1.35.84-2.67,1.76-4,2.63-5.26,3.61-10.09,7.82-14.48,12.42-6.25,6.54-11.51,13.96-15.67,21.92-.13.24-.25.47-.37.71-1.54,3-2.93,6.08-4.15,9.21-2.26,5.87-4.05,11.91-5.17,18.09-.08.44-.16.88-.23,1.33-.45,2.51-.8,5.05-1.04,7.59-.33,3.25-.49,6.51-.48,9.78-.03,6.27.57,12.53,1.72,18.7.8,4.4,1.93,8.74,3.34,12.99.56,1.72,1.17,3.43,1.82,5.12.06.16.13.32.2.48-.01.01,0,.01,0,.01,4.06,10.25,9.85,19.88,17.16,28.27.83.97,1.69,1.92,2.59,2.85h0c.07.1.15.18.23.26,4.19,4.42,8.83,8.47,13.83,12.02.37.27.75.53,1.13.79,5.09,3.52,10.54,6.54,16.26,8.96,1.15.5,2.31.97,3.49,1.41.48.19.97.38,1.47.55,10.38,3.77,21.45,5.66,32.51,5.75,1.94,0,3.89-.06,5.83-.18,6.3-.37,12.58-1.35,18.69-2.94,4.44-1.14,8.79-2.61,13.02-4.4,3.88-1.63,7.65-3.52,11.27-5.65.5-.28.99-.57,1.48-.88,6.88-4.18,13.24-9.21,18.89-14.93,9.02-9.1,16.14-20.03,20.88-31.88,4.8-11.83,6.99-24.64,6.8-37.3ZM195.75,119.38c-.12,6.16-.83,12.3-2.14,18.3-1.31,5.99-3.18,11.86-5.58,17.48-4.83,11.26-11.88,21.5-20.55,30.08-3.06,3.02-6.34,5.83-9.79,8.39-.54.42-1.1.82-1.66,1.21-1.06.76-2.13,1.49-3.22,2.19-.47.31-.94.61-1.41.91-3.88,2.42-7.92,4.55-12.11,6.37-.7.3-1.41.6-2.12.89-.73.29-1.46.58-2.19.86h-.01c-4.95,1.87-10.04,3.34-15.23,4.36-5.96,1.19-12.04,1.75-18.11,1.78-.36,0-.72,0-1.07-.01-.97,0-1.93-.02-2.9-.07-1.03-.02-2.05-.08-3.08-.16-.36-.02-.72-.04-1.09-.08-3.35-.27-6.69-.72-10-1.36-4.88-.94-9.69-2.27-14.37-3.96-.46-.16-.92-.33-1.38-.5-.58-.22-1.16-.44-1.74-.67-1.42-.55-2.8-1.21-4.2-1.8-1.39-.63-2.74-1.34-4.11-2.01-1.36-.69-2.68-1.45-4.02-2.18-.76-.43-1.51-.89-2.25-1.34-.5-.32-1-.63-1.51-.93-.05-.04-.11-.07-.16-.1-5.14-3.31-10.02-7.06-14.48-11.29-1.67-1.58-3.27-3.21-4.82-4.91h-.01c-.68-.76-1.35-1.52-2.01-2.3-5.86-6.84-10.77-14.55-14.41-22.87-.1-.24-.21-.47-.3-.71t0-.01c-.79-1.79-1.5-3.6-2.14-5.45-1.34-3.77-2.41-7.64-3.25-11.55-1.28-6.1-1.9-12.33-1.95-18.56.02-3.33.2-6.65.57-9.96.25-2.38.6-4.75,1.05-7.1.1-.5.2-1.01.3-1.51,1.31-6.08,3.16-12.06,5.69-17.73,1.07-2.44,2.24-4.82,3.52-7.15.79-1.45,1.62-2.87,2.5-4.27,4.25-6.87,9.4-13.16,15.2-18.7,4.46-4.24,9.34-7.99,14.47-11.33,1.31-.8,2.59-1.63,3.91-2.4,1.35-.73,2.67-1.5,4.03-2.19,1.37-.68,2.71-1.4,4.1-2.04,1.4-.6,2.78-1.26,4.2-1.82.28-.11.57-.23.85-.33,1.13-.45,2.26-.87,3.4-1.28,2.54-.9,5.11-1.69,7.72-2.38.15-.02.3-.06.45-.11,1.69-.45,3.38-.84,5.09-1.18,1.93-.38,3.88-.71,5.83-.98.3-.04.59-.08.89-.12.89-.12,1.78-.22,2.67-.31.34-.04.68-.08,1.02-.1,2.59-.25,5.19-.39,7.79-.42,11.48-.19,23.02,1.69,33.88,5.66.65.23,1.29.47,1.93.72.07.03.13.05.2.08,1.64.64,3.26,1.33,4.86,2.07.46.21.92.42,1.38.65h.01c1.35.64,2.68,1.32,4.01,2.03.4.22.8.44,1.2.66,1.55.86,3.07,1.77,4.56,2.72h.01c.15.09.29.18.43.27.67.44,1.34.88,2,1.33,2.89,1.98,5.66,4.12,8.3,6.41.17.15.34.29.5.44,1.26,1.11,2.48,2.25,3.67,3.42,8.82,8.71,15.87,19.24,20.5,30.73,4.7,11.47,6.84,23.9,6.68,36.22ZM75.04,28.49c-.93-.61-1.76-1.37-2.67-2.03-.11-.08-.23-.16-.34-.23-1.18.37-2.36.77-3.52,1.2.03.19.06.38.11.57.03.15.07.3.11.45.06.22.12.43.19.64.08.25.18.48.28.71.02.06.05.12.08.18.11.26.23.51.37.75.14.26.3.52.47.76.01.03.03.06.05.08,2.54-.9,5.11-1.69,7.72-2.38-.92.18-1.87-.07-2.85-.7Z"/>
      <path class="cls-9" d="M149.28,80.28c-.51-1.4-1.55-2.26-3.01-2.52-.79-.14-1.62-.15-2.43-.12-2.22.07-4.07,1.14-5.86,2.34-.71.49-1.4,1.01-2.13,1.48-.43.28-.93.48-1.41.1-1.58-1.27-3.16-2.53-4.7-3.85-.72-.62-.57-1.33-.17-2.18,1.59-3.4,3.14-6.83,4.57-10.3,1.11-2.69,1.64-5.55,1.68-8.47.01-.46-.11-1.04-.39-1.36-1-1.15-2.1-2.2-3.16-3.3-1.68-1.75-3.74-2.71-6.14-3.08-2.86-.45-5.68-.18-8.46.53-2.94.75-5.86,1.59-8.8,2.38-.35.1-.7.2-1.05.29-.03.01-.05.02-.08.02-.41.11-.83.22-1.24.33-3.85,1-7.71,1.34-11.57-.49-.21.63-.43,1.19-.58,1.77-2.66,10.62-4,21.36-2.82,32.31.48,4.41,1.81,8.55,4.41,12.2,2.33,3.27,5.25,5.74,9.3,6.68,3.11.73,6.19.51,9.2-.28.3-.08.61-.16.91-.25,2.17-.65,4.27-1.53,6.41-2.28.18-.06.37-.07.55-.1-1.23,1.03-2.53,1.89-3.89,2.57-3.26,1.67-6.86,2.39-10.71,2.43-.25,6.33.52,12.6-1.17,18.66.1.05.2.11.31.16,4.68,2.24,17.48,3.75,22.18,2.62.07-.18.16-.37.21-.57l4.32-16.5c.21-.83.46-1.66.6-2.51.66-4.01,1.27-8.02,1.96-12.03.29-1.68.76-3.33,1.17-5.09.75.21,1.27.42,1.81.48,1.25.16,2.51.33,3.77.32,1.27,0,2.31-.59,3.18-1.56,1.7-1.89,2.84-4.06,3.52-6.5.41-1.49.22-2.93-.29-4.33ZM106.86,72.55c.25-.52.51-1.03.9-1.82.31,2.09-1.16,5.68-4.05,10.39.02.01.03.01.05.01.21.07.42.13.63.2.18.05.37.1.55.16.65.19,1.3.38,2.01.59-.27.29-.36.47-.47.49-.11.03-.23.05-.34.06-1.18.16-2.26-.19-3.25-.87-.49-.33-.62-.81-.2-1.3,1.98-2.33,2.88-5.22,4.17-7.91ZM99.07,69.87c-.29.6-.7,1.17-1.51.96-.72-.18-.84-.8-.88-1.43-.01-.2,0-.41,0-.92.09-.64.2-1.6.38-2.54.15-.78.69-1.2,1.35-1.18.64.02,1.18.5,1.29,1.28.19,1.33-.05,2.62-.63,3.83ZM96.31,59.69c-.16.18-.24.44-.43.81-.57-.7-.46-1.13-.28-1.52.61-1.31,1.69-2.06,3.08-2.18,1.96-.16,3.68.56,5.13,1.87.3.28.45.74.66,1.11-.1.11-.21.21-.31.32-.45-.19-.91-.35-1.34-.56-.6-.29-1.15-.65-1.76-.91-1.92-.84-3.35-.52-4.75,1.06ZM103.18,91.77c-.68-.07-1.34-.25-2.01-.38.01-.15.03-.3.05-.44,1.28-.12,2.57-.23,3.86-.34.8-.07,1.58-.23,2.34-.44,1.32-.37,2.59-.93,3.85-1.51.47-.22.82-.69,1.24-1.05q.81.52,1.16,2.01c-1.45-.58-2.41.47-3.53.94-.35.14-.7.28-1.05.4-1.91.67-3.87,1-5.91.81ZM118.94,74.63c-.23.64-.67,1.19-1.49.96-.71-.2-.92-.84-.84-1.44.23-1.59.54-3.17.89-4.73.13-.55.54-1.02,1.19-.98.71.05,1.03.58,1.15,1.22.07.39.07.8.09,1.2.06.02.12.04.18.06-.39,1.24-.73,2.49-1.17,3.71ZM121.91,61.77c-.63-.31-1.23-.7-1.89-.94-1.85-.66-3.2-.25-4.44,1.26-.24.28-.5.55-.87.97-.51-1.34.15-2.12.84-2.8,1.39-1.36,3.08-1.39,4.81-.81,1.24.43,2.47.94,2.55,2.77-.42-.19-.72-.31-1-.45ZM141.84,83.38c.29.5.52.97.82,1.38.26.37.65.65.91,1.02.85,1.24.5,2.78-.81,3.53-1.11.63-2.27.9-3.42.06-.21-.16-.32-.44-.55-.75.82.07,1.51.27,2.15.16,1.89-.32,2.32-1.5,1.2-3.03-.36-.49-.74-.98-.98-1.53-.46-1.06-.03-1.78,1.12-1.96.8-.12,1.62-.12,2.42-.23.68-.1,1.35-.26,2.21-.43-1.26,1.95-3.3,1.15-5.07,1.78Z"/>
      <path class="cls-5" d="M105.24,105.04c-4.05-.94-6.97-3.41-9.3-6.68-2.6-3.65-3.93-7.79-4.41-12.2-1.18-10.95.16-21.69,2.82-32.31.15-.58.37-1.14.58-1.77,3.86,1.83,7.72,1.49,11.57.49.41-.11.83-.22,1.24-.33.02-.01.04-.01.06-.01h.02s.98-.62.98-.62c.03.11.05.21.07.32,2.35,9.88.45,20.7-5.11,29.2-.08.14-.17.27-.26.4.29-.17.59-.23.89-.2.19.02.37.07.55.16.47.22.9.64,1.2,1.14.21.35.35.75.4,1.14.17,1.49-.39,2.99-.21,4.47.09.73.52,1.47,1.09,1.93.59.48,1.32.67,1.97.27-.11.17-.21.34-.3.52-1.58,2.99-1.4,6.86.5,9.67,1.32,1.96,3.45,3.35,5.76,3.88-.3.09-.61.17-.91.25-3.01.79-6.09,1.01-9.2.28Z"/>
      <path class="cls-5" d="M118.95,104.64c-1.27,4.08-2.55,8.2-4.5,12.01-1.84,3.6-4.32,6.95-7.6,9.3-.11-.05-.21-.11-.31-.16,1.69-6.06.92-12.33,1.17-18.66,3.85-.04,7.45-.76,10.71-2.43.18-.01.35-.03.53-.06Z"/>
      <path class="cls-9" d="M172.11,139.64c-.66-2.45-2.07-3.84-4.5-4.37-2.74-.59-5.49-.91-8.26-.57-.52.06-1.04.15-1.56.26-.55.11-1.12.31-1.84,0,.77-.82,1.63-1.14,2.55-1.35.07-.02.14-.04.21-.05,2.49-.54,4.96-.16,7.43.16l1.5.18c.02-.1.05-.21.07-.32-5.93-5.06-12.14-9.69-19.9-12.43.98,1.93,1.82,3.86,2.56,5.81,1.13,2.94,2.04,5.92,2.85,9.01-.52,0-.82.06-1.09-.01-3.14-.8-6.3-1.57-9.42-2.47-3.4-.98-3.11-.72-5.45,1.22-2,1.64-3.9,3.42-5.78,5.2-1.29,1.22-2.45,2.57-3.71,3.82-1.41,1.39-1.03,3.31-1.56,4.96-.05.15-.09.3-.12.45-2.12,9.72-4.24,19.45-6.35,29.17-.07.3-.06.62-.11,1.12,1.88-1.97,3.58-3.77,5.29-5.58-.55-.4-1.28-.92-1.98-1.43.05-.42.07-.73.14-1.02.19-.69.39-1.37.62-2.04,2.08-5.98,5.56-11.16,9.31-16.19.53-.71.97-1.54,1.3-2.37,1.92-4.81,4.36-9.29,7.93-13.09.39-.41.82-.79,1.23-1.18.08.08.16.15.24.23-2.34,3.76-4.87,7.43-6.61,11.55,3.31-3.04,6.28-6.41,10.13-8.79-.02.25-.11.42-.24.56-2.4,2.48-4.81,4.96-7.22,7.44-6.71,6.88-11.98,14.72-15.61,23.63-.13.31-.21.65-.28.86,10.25,5.05,19.42,11.56,28.46,18.47,1.43,1.1,2.87,2.2,4.3,3.32,1.23-1.89,2.46-3.76,3.65-5.65,4.47-7.09,7.88-14.67,10.39-22.65,1.34-4.28,1.99-8.7,2.38-13.17.37-4.29.16-8.5-.95-12.69ZM136.86,172.8c-.67-.79-1.24-1.47-1.68-1.98,1.09-1.52,2.28-2.81,3.03-4.32.74-1.51,1.04-3.23,1.59-5.05,1.18.94,2.31,1.84,3.58,2.85-1.98,2.98-3.73,6.03-6.52,8.5ZM152.22,160.03c-.94-1.41-1.78-2.69-2.67-4.02,4.45-.7,6.5-3.79,7.78-7.87,1.38.51,2.64.97,4.05,1.49-3.08,3.5-6.06,6.89-9.16,10.4Z"/>
      <path class="cls-9" d="M70.37,127.33c5.23-3.7,11.24-5.23,17.63-6.4-.21.53-.32.84-.45,1.14-1.46,3.29-2.93,6.58-4.37,9.89-.2.47-.21,1.02-.37,1.84,1.95-.4,3.32-1.4,4.85-1.96,1.62-.59,3.21-1.26,4.82-1.88,1.56-.6,3.12-1.17,4.8-1.8.32.5.66.93.9,1.42,1.15,2.32,2.27,4.66,3.39,6.99.11.23.14.52.29.7.99,1.16.6,2.42.4,3.71-.75,4.97-1.42,9.96-2.16,14.93-.86,5.73-1.76,11.44-2.64,17.17-.27,1.75-.51,3.51-.78,5.41-.4-.16-.72-.25-.99-.41-7.28-4.37-13.34-10.12-18.62-16.72-1.27-1.58-1.91-3.31-1.89-5.46.03-4.16-.06-8.35-.53-12.48-.42-3.67-1.31-7.29-2.21-10.88-.43-1.75-1.34-3.38-2.09-5.19Z"/>
      <path class="cls-4" d="M87.67,131.83s-2.57,5.67-2.97,5.67,8.75-4.04,10.92-2.83,6.66,6.31,6.66,6.31l.24-3.1-4.65-10.12"/>
      <path class="cls-4" d="M126.53,143.82s12.3-11.83,13.02-11.92,7.97,2.9,7.97,2.9l2.02,2.45-12.27,1.5-11.25,7.42"/>
      <path class="cls-9" d="M149.33,189.83c-.96,1.34-1.78,2.61-2.72,3.78-1.22,1.5-2.45,2.98-3.73,4.43-2.9,3.34-5.97,6.51-9.43,9.31-4.08,3.31-8.43,6.21-13.5,7.82-3.37,1.07-6.86,1.77-10.36,1-4.37-.96-8.32-2.9-11.54-6.14-3.27-3.3-6.08-6.98-8.62-10.85-5.65-8.63-11.49-17.14-17.8-25.3-1.98-2.57-4.22-4.94-6.46-7.29-2.26-2.39-5.01-3.85-8.37-4.22-2.67-.3-5.3-.95-7.93-1.52-1.58-.35-3.09-.32-4.63.22-3.32,1.16-6.72,2-10.18,2.56-1.4.23-2.75.21-4-.49-.11-.06-.22-.12-.33-.19-1.57-.87-3.15-1.75-4.65-2.74-.94-.62-.86-.94.03-1.94.12.04.29.05.4.13,2.23,1.84,4.84,2.57,7.67,2.43,1.22-.06,2.44-.15,3.66-.26,1.31-.12,2.61-.25,3.92-.37.28-.02.54-.16.79-.44-1.66-.07-3.32-.16-4.99-.21-.52-.01-1.03-.02-1.55-.02-.9-.01-1.81,0-2.71-.02-2.61-.07-4.85-1.03-6.69-2.88-1.38-1.38-2.54-2.91-3.26-4.74-.15-.38-.28-.77-.35-1.17-.29-1.79.54-2.63,2.07-1.99.18.08.39.1.69.18.31.97.66,1.97.95,2.98.57,2,1.87,3.32,3.7,4.22,1.58.77,3.2,1.32,4.86,1.68,2.22.49,4.51.64,6.84.55,1.09-.04,2.08-.12,3.02.57.41.3.92.66,1.65.18-1.08-.78-2.01-1.4-3.38-1.5-1.21-.09-2.41-.21-3.61-.37-2.47-.33-4.91-.85-7.27-1.75-.71-.27-1.39-.62-2.06-.98-1.06-.58-1.83-1.42-2.22-2.6-.66-1.97-1.47-3.93-1.36-6.05.05-.83.32-1.69.66-2.46.27-.61.87-1,1.62-.85.69.15,1.32.9,1.37,1.65.04.76,0,1.53.04,2.29.08,1.89.89,3.39,2.46,4.5,2.87,2.02,6.06,3.05,9.47,3.51h.02c.29.04.59.08.89.11.05,0,.1.01.15,0,1.49-.35,2.88-.12,4.21.62.19.1.47.02,1.04.02-1.15-.76-2.07-1.25-3.09-1.5-1.09-.27-2.19-.51-3.29-.76-1.52-.35-3.04-.72-4.52-1.19-1.42-.45-2.71-1.36-4.02-2.13-1.02-.61-1.56-1.59-1.68-2.76-.19-1.74-.07-3.46.54-5.11.21-.56.54-1.1.92-1.57.81-1,1.75-1.14,2.8-.37.45.33.86.74,1.18,1.19.07.08.12.15.17.23.64.98,1.17,2.02,1.72,3.05.36.67.7,1.36,1.04,2.03.68,1.32,1.75,1.87,3.23,1.86,3.91-.04,7.82-.01,11.73,0,.91,0,1.91-.35,2.59.87.08-.13.16-.25.24-.38-.19-.61-.35-1.22-.58-1.81-.52-1.33-1.06-2.64-1.62-3.95-.83-1.97-1.13-4.02-.89-6.12.11-.98.48-1.96.9-2.87.37-.81.93-.98,1.76-.64.5.21,1.03.53,1.36.94.84,1.01,1.68,2.05,2.32,3.19,1.39,2.43,3.12,4.53,5.56,5.94,4.35,2.52,6.46,6.45,7.28,11.24.09.55.22,1.09.28,1.65.22,2.42,1.29,4.45,2.79,6.31,2.81,3.51,6.05,6.58,9.52,9.43,3.58,2.94,7.38,5.56,11.36,7.93,4.29,2.55,8.41,5.34,12.14,8.67.91.81,1.78,1.67,2.63,2.54,1.81,1.84,3.19,3.94,3.91,6.45.26.88.58,1.74.91,2.59.16.39.42.74.62,1.09.79-.21.78-.65.63-1.11-1.11-3.5-2.23-6.99-4.98-9.65-.43-.41-.81-.88-1.12-1.22,3.34-3.45,6.66-6.87,9.99-10.31,1.36-1.4,2.73-2.81,4.1-4.23,7.94,4.59,15.4,9.84,23.09,15.08Z"/>
      <path class="cls-7" d="M157.33,62.32c-.33,5.03-2.16,9.47-5.51,13.26-.64.72-1.31,1.41-2.05,2.2-1.8-1.66-3.95-1.93-6.25-1.64-2.74.35-4.96,1.7-6.93,3.54-.4.38-.75.81-1.21,1.3-1.95-1.37-3.93-2.58-5.51-4.39,2.23-3.16,3.76-6.59,5.13-10.09,1.01-2.57,1.62-5.23,1.71-8.01.02-.39.01-.78-.02-1.16-.06-.86-.26-1.7-.67-2.52-2.27-4.52-5.74-7.25-10.93-7.59-3.19-.21-6.28.29-9.35,1.05-3.69.92-7.38,1.86-11.09,2.72-1.28.29-2.61.47-3.92.49-4.62.06-9.21-3.02-10.91-7.29.63.26,1.24.46,1.84.58h.01c3,.61,5.75-.41,8.42-2.02,1.39-.83,2.78-1.71,4.26-2.35,3.76-1.64,7.62-1.57,11.43-.16.94.34,1.75,1.01,2.62,1.53.27.17.54.36,1.07.71-.29-1.27-.98-1.84-1.72-2.34-1.54-1.05-3.31-1.52-5.14-1.75-4.03-.52-7.76.3-11.25,2.39-1.56.94-3.18,1.81-4.86,2.51-1,.41-2.17.55-3.27.58-2.87.06-4.65-1.65-4.83-4.53-.13-2.2.08-4.36.53-6.6.19-.97.42-1.97.69-2.99.93,1.91,2.26,2.94,4,3.35.98.23,2,.36,3.01.37,3.08.06,6.04-.71,9.03-1.32,3.03-.63,6.04-1.39,9.09-1.86,2.74-.43,5.45-.15,8.08.91.64.26,1.23.58,1.77.95h.01c.74.51,1.41,1.1,2.03,1.76l.03.03c.08.08.14.15.21.23t.01.01c.06.06.11.11.16.17.26.29.52.58.88.78-.86-1.72-1.87-3.3-3.55-4.35-3.07-1.89-6.44-2.57-9.95-2.01-3.51.55-6.96,1.41-10.44,2.11-1.74.36-3.49.7-5.24.98-.79.13-1.61.11-2.35.15-1.44-2.01-2.8-3.89-2.53-6.46.1-.93.31-1.81.63-2.66.33-.9.8-1.77,1.4-2.62.19.21.37.32.43.48.98,2.64,3.08,3.74,5.68,3.87,2.73.12,5.48-.01,8.22-.07.97-.02,1.93-.12,2.89-.24,5.01-.62,9.94-.02,14.84,1,.77.16,1.55.49,2.23.9,2.46,1.47,4.34,3.54,5.68,6.05.65,1.21,1.26,2.44,1.85,3.68,0,0,.01,0,.01.01.31.64.63,1.28.93,1.93h.01c.22.49.45.96.68,1.43.11.25.23.49.35.73.15.32.28.64.56,1.31.08-.58.17-.84.13-1.06-.88-4.66-2.96-8.73-6.07-12.28-.27-.3-.55-.59-.82-.89-.03-.03-.03-.09-.08-.26,2.1.65,4.03,1.53,5.9,2.53.38.2.64.64.92,1,2.02,2.6,2.98,5.64,3.42,8.85.29,2.21.46,4.45.69,6.67.08.74.15,1.49.29,2.22.73-3.66.94-10.99-2.47-16.95,1.44.25,3.58,1.74,4.37,3.1,1.37,2.36,2.13,4.93,2.62,7.6.44,2.42.44,4.83-.12,7.4,1.13-1.27,1.62-4.14,1.08-7.01-.44-2.38-1.11-4.71-1.69-7.1.18.11.5.22.7.44,1.41,1.46,2.9,2.86,4.16,4.44,2.21,2.79,2.72,6.02,1.56,9.35-.59,1.7-1.65,3.24-2.53,4.83-.39.7-.98.85-1.8.77-3.04-.32-6.09-.42-9.12.12-.45.08-.89.27-1.33.4.02.14.04.28.06.41.72.02,1.45.08,2.17.03.79-.07,1.34.23,1.51.96.27,1.12.55,2.26.59,3.41.08,1.99-.39,3.93-.98,5.83-.13.43-.22.86-.39,1.52,2.58-3.39,3.75-8.13,1.59-11.59,1.38-.35,2.56-.29,3.62.78,2.17,2.22,2.6,4.86,1.98,7.76-.21.98-.56,1.92-.88,2.98,3.06-2.13,3.01-7.53-.14-11.47.42,0,.75-.07,1.04,0,1.41.4,2.85.75,4.21,1.28,2.19.86,3.03,2.69,2.88,4.89Z"/>
      <path class="cls-4" d="M111.1,188.39c-3.88-3.74-8.69-6.22-13.23-8.99.94-6.5,1.85-12.92,2.78-19.34,1.45-9.89,2.65-19.83,4.84-29.6.05-.24.12-.48.21-.84,7.24,2.85,14.79,2.92,22.55,2.77-.4,1.94-.76,3.77-1.15,5.59-2.36,10.81-4.74,21.61-7.08,32.43-.74,3.42-1.33,6.87-2.02,10.31-.07.37-.29.74-.54,1.03-.46.54-1,1.01-1.49,1.52-1.58,1.65-3.14,3.3-4.87,5.12Z"/>
      <path class="cls-2" d="M51.12,102.27c-2.65,2.83-5.16,5.51-7.24,8.56,2.79-2.41,5.27-5.11,7.66-7.97.46.53.88,1,1.33,1.52-1.95,2.39-3.99,4.88-6.03,7.37.11.09.21.18.32.27,2.41-2.08,4.42-4.56,6.39-7.14,1.19.86,1.99,1.95,2.47,3.26.27.71.28,1.48-.35,1.97-.83.66-.92,1.54-1,2.45-.34,3.85-.63,7.69-.99,11.54-.32,3.44-.77,6.87-1.03,10.31-.12,1.64.07,3.31.12,5.09-.06.01-.29.1-.52.09-4.52-.09-9.04-.2-13.56-.29-.79-.02-1.46-.23-2.1-.73-1.3-1.02-2.73-1.28-4.25-.39-.29.17-.65.31-.99.32-1.31.04-2.62.01-4.22.01.41-.56.61-.88.85-1.17,1.2-1.51,2.42-3.01,3.6-4.53.24-.31.37-.72.55-1.08-.1-.06-.19-.12-.29-.18-.21.19-.44.37-.62.58-1.64,1.87-3.27,3.75-4.91,5.63-.68.77-2.89.91-3.6.23-.44-.42-.39-1.39.27-1.7,1.08-.51,1.12-1.34,1-2.28-.11-.89,0-1.62.62-2.38.92-1.15.78-1.86-.32-3.75.35-.17.68-.34,1.03-.49,1.2-.5,2.22-1.23,3.06-2.21,1.35-1.58,1.28-3-.22-4.41-.29-.28-.63-.51-1.04-.85.3-.22.56-.42.82-.6.37-.26.78-.48,1.13-.77,1.9-1.61,1.86-3.74-.08-5.31-.32-.25-.63-.51-.93-.78-.06-.05-.05-.18-.09-.34.65-.22,1.32-.38,1.95-.67,1.47-.66,2.1-2.09,1.39-3.53-.43-.88-1.18-1.62-1.87-2.34-.41-.43-.99-.7-1.5-1.02-.52-.31-1.05-.59-1.75-.98.4-.37.71-.75,1.09-1.01,4.81-3.23,9.85-6.08,15.18-8.6,2.86,2.73,5.71,5.46,8.68,8.29Z"/>
      <path class="cls-9" d="M51.82,192.54c-.05.22-.09.43-.15.65-.69,2.71-2.07,4.97-4.46,6.61-2.36,1.62-4.83,1.29-6.58-.94-1.34-1.72-2.68-3.44-4.12-5.08-2.21-2.53-3.77-5.39-4.82-8.57-1.56-4.75-2.45-9.63-3.01-14.58-.15-1.32-.28-2.64-.4-3.97-.04-.44-.09-.89-.13-1.34-.05-.55-.06-1.11-.08-1.7.26,0,.32-.02.36.01,2.65,1.59,5.46,1.34,8.27.62,2.7-.69,5.37-1.51,8.06-2.22.84-.23,1.71-.33,2.64-.48.07-.01.15-.03.22-.04.02.06.04.11.06.17,1.42,4.06,3.05,7.81,3.96,11.83,1.42,6.34,1.52,12.67.18,19.03Z"/>
      <path class="cls-9" d="M127.81,141.91c.17-3.05,5.44-26.21,7.51-33.24.45.28.88.53,1.28.81,1.81,1.26,3.28,2.87,4.64,4.59,3.66,4.63,6.1,9.92,8.24,15.37.59,1.5,1.18,3,1.83,4.68-2.03-.46-3.88-.89-5.75-1.3-1.39-.3-2.79-.54-4.16-.89-1.36-.34-2.49-.04-3.51.89-1.27,1.16-2.58,2.3-3.86,3.45-1.99,1.79-3.98,3.6-6.22,5.63Z"/>
      <path class="cls-9" d="M102.8,136.31c-.83-1.73-1.64-3.48-2.5-5.2-.52-1.04-1.09-2.07-1.7-3.06-.8-1.28-.97-1.31-2.33-.77-3.73,1.47-7.45,2.95-11.18,4.43-.09.04-.2.02-.36.04,0-.13-.06-.28-.02-.38,1.34-3.46,2.87-6.82,4.68-10.07,3.63-6.51,9.26-10.35,16.22-12.48.29-.09.58-.16.87-.25.23.9-.19,12.14-.57,14.08-.9,4.57-1.86,9.14-2.8,13.71-.1-.02-.2-.03-.31-.05Z"/>
      <path class="cls-9" d="M64.86,180.33c-2.57,4.42-5.66,8.44-9.25,12.07-1.02,1.03-2.09,2.03-3.32,3.23,2.99-9.63,2.9-18.81-.63-27.67-.67-1.71-1.48-3.41-2.42-5.1-.16-.3-.33-.59-.5-.89.11.02.22.04.32.06,2.48.46,4.69.84,6.87,1.31.51.1,1,.47,1.41.82,3.43,2.93,5.63,6.62,7.25,10.71.23.58.44,1.16.65,1.75.48,1.36.35,2.46-.38,3.71Z"/>
      <path class="cls-4" d="M69.71,127.75c2.76,7.57,4.14,15.19,4.06,23.11-.2-.44-.41-.87-.6-1.31-1.1-2.65-2.83-4.79-5.2-6.42-.96-.66-1.93-1.32-2.84-2.05-1.88-1.49-3.1-3.45-3.92-5.71,2.53-2.82,5.07-5.57,8.49-7.62Z"/>
      <path class="cls-9" d="M28.26,117.31c-.84.62-1.79,1.24-2.78,1.49-3.59.92-7.25,1.42-10.98,1.06-1.62-.15-2.13-.65-2.26-2.29-.05-.54-.05-1.08-.01-1.61.1-1.79.61-3.52,1.36-5.26,3.47,1.48,6.97,1.49,10.46,1.53.56.01,1.12.02,1.68-.03.61-.05,1.08.15,1.45.64.49.64,1.04,1.24,1.47,1.92.02.04.05.07.06.11.56.95.45,1.76-.45,2.44Z"/>
      <path class="cls-9" d="M28.89,110.33c-1.38.3-2.81.36-4.21.49-.45.05-.91.01-1.37.01,0,.02,0,.04-.01.07-1.91-.17-3.84-.24-5.74-.54-1.18-.18-2.31-.68-3.44-1.12-.71-.27-.86-.89-.74-1.63.12-.74.4-1.41.79-1.97.69-1,1.76-1.69,3.11-1.96,1.76-.35,3.54-.33,5.27.14,1.47.4,2.93.83,4.33,1.4,1.29.52,2.31,1.46,2.98,2.71.14.25.24.49.29.7.24.87-.16,1.45-1.26,1.7Z"/>
      <path class="cls-9" d="M27.92,122.79c.03.36-.16.8-.38,1.11-.61.83-1.35,1.51-2.29,1.93-.09.05-.2.09-.3.13-3.06,1.16-6.21,1.47-9.43.87-1.64-.31-2.33-1.17-2.39-2.87v-.48c.02-.69.08-1.41.12-2.22,4.05.36,7.78.03,11.47-.75,1.06-.22,3.09,1.21,3.2,2.28Z"/>
      <path class="cls-4" d="M71.9,175.91c-1.08,2.58-2.22,5.11-4.07,7.59-.13-7.65-3.07-13.81-8.38-19.16.47.13.77.19,1.06.3.23.09.46.21.67.36,4.17,3.03,7.9,6.5,10.72,10.91Z"/>
      <path class="cls-9" d="M53.65,134.13c.78-7.36,1.85-14.67,1.97-22.19.94-.05,1.83-.1,2.74-.15-.62,6.61-1.22,13.09-1.83,19.61-.58.3-1.29.51-1.77.96-.49.46-.75,1.17-1.1,1.77Z"/>
      <path class="cls-9" d="M43.4,93.55c.46-.27.92-.55,1.48-.88.43.34.88.65,1.27,1.02,3.88,3.72,7.78,7.43,11.6,11.21.88.87,1.63,1.96,2.19,3.07.73,1.44-.01,2.58-1.6,2.79-.59.08-1.18.15-1.99.25,1.38-1.68.96-3.2.08-4.68-.39-.65-.84-1.27-1.36-1.82-3.58-3.81-7.4-7.37-11.5-10.63-.07-.05-.08-.16-.17-.33Z"/>
      <path class="cls-9" d="M105.83,128.82c.11-.51.18-.85.26-1.19.06-.24.14-.47.23-.77,7.17,3.08,14.67,3.35,22.23,3.09.02,1.3-.01,1.36-1.07,1.44-.35.03-.71.03-1.06.02-6.34-.16-12.66-.44-18.83-2.13-.53-.15-1.06-.29-1.76-.48Z"/>
      <path class="cls-9" d="M23.7,130.74c-.34.45-.85.91-1.38,1.08-2.04.64-4.1.61-6.09-.2-1.54-.62-2.01-1.64-1.69-3.47,2.59.55,5.19.53,7.79.03.57-.11.86.19,1.11.59.38.61.75,1.3.26,1.97Z"/>
      <path class="cls-9" d="M30.79,139.72c-.38.87-.66,1.5-1.01,2.3-.78-.65-1.63-1.23-2.58-.82-.84.37-1.57,1-2.44,1.58-.29-.92-.61-1.93-.96-3.07h6.99Z"/>
      <path class="cls-9" d="M20.99,133.48c.77-.16,1.35-.29,2.08-.44-.18.94.13,1.93-1.24,2.33-.26-.6-.53-1.2-.83-1.89Z"/>
      <path class="cls-3" d="M24.97,59.88c-1.87-1.25-3.95-1.79-6.18-1.71-2.03.07-4.06.33-6.09.32-1.51,0-3.05-.14-4.51-.5-1.83-.45-2.22-1.35-1.78-3.21.43-1.84,2.42-6.11,3.76-7.97,1,.17,2.08.35,3.4.58-.45.57-.76.95-1.06,1.33-1.04,1.32-2.05,2.66-2.52,4.31-.46,1.62.05,2.32,1.73,2.36.55.01,1.11-.11,1.65-.23,1.14-.25,2.28-.5,3.41-.81,1.96-.54,3.91-.48,5.89-.09,3.49.68,4.4,1.99,3.7,5.49.29.34.63.72.92,1.12,1.04,1.42.97,3-.19,4.32-1.2,1.37-2.7,2.09-4.53,2.19-1.62.09-3.25.18-4.85.4-1.27.17-2.44.66-3.15,1.92.55.63,1.23.71,1.94.77,2.46.21,4.86-.32,7.26-.67,1.1-.16,2.19-.42,3.3-.61.5-.09,1.01-.16,1.51-.17,2.51-.06,3.95,1.53,3.46,4-.21,1.06-1.02,2.01-1.22,3.08-.19,1.01.23,2.12.09,3.15-.27,1.97-1.46,3.04-3.46,3.27-1.11.13-2.23.07-3.35.15-1.15.08-2.3.22-3.4.33-.38,1.27.15,2.08.88,2.74,1.93,1.72,4.21,2.6,6.79,2.69.49.02.99,0,1.68,0-.71,1.32-1.35,2.51-2.06,3.84-2.54-.43-4.95-1.14-7-2.71-.91-.7-1.76-1.55-2.41-2.49-1.01-1.46-.7-2.92.63-4.06.23-.2.55-.34.68-.59,1-2,2.91-2.74,4.8-3.49,1.04-.41,2.12-.72,3.12-1.2.65-.31,1.2-.86,1.81-1.32-.72-1.54-1.75-2.44-3.14-2.95-1.31-.49-2.67-.53-4.06-.46-1.47.08-2.95.17-4.41.12-.9-.03-1.81-.25-2.67-.53-1.07-.35-1.83-1.07-1.96-2.29-.03-.25-.1-.5-.2-.73-.74-1.76-.17-3.16,1.18-4.36,1.14-1.01,2.5-1.53,3.97-1.8,1.81-.33,3.57-.8,5.15-1.79.64-.4,1.31-.79,1.49-1.73Z"/>
      <path class="cls-2" d="M165.09,18.56c-.6.13-1.23.26-2.05.43.8,1.54,1.04,3.03.1,4.53-.93,1.47-2.29,2.31-3.95,2.6-3.41.58-5.82-1.61-6.13-5.6.95-.24,1.93-.49,2.9-.74,2.5-.65,4.79-1.72,6.64-3.55,1.29-1.28,1.51-2.99.71-4.64-.73-1.5-2.09-2.27-3.91-2.01-.88.12-1.81.4-2.56.86-2.79,1.71-4.49,4.21-4.98,7.48-.07.49-.17.97-.29,1.62-1.14-.23-2.18-.43-3.21-.65-1.91-.41-2.89-1.71-2.95-3.56-.04-.97.17-2.05.62-2.91.57-1.11,1.42-2.1,2.27-3.03,1.7-1.85,3.83-3.16,6.18-4.33-1.58-1.37-3.04-2.62-4.56-3.93-3.48,2.47-5.94,5.64-7.04,9.8-1.3,4.95,3.17,10.2,7.85,9.86.34-.02.68.04,1,.06.51,2.48.86,3.19,2.39,4.91,2.26,2.54,5.37,3.16,8.43,1.67,2.98-1.46,4.29-5.9,2.54-8.87ZM160.28,12.9c.08,3.14-3.24,6.11-7.3,6.43.67-3.97,4.46-7.26,7.3-6.43Z"/>
      <path class="cls-10" d="M47.33,48.99c1.38.19,2.91.41,4.71.66-2.76,4.55-4.72,9.2-6.2,14.2-1.43-.26-2.75-.5-4.02-.73,1.82-4.68,3.62-9.28,5.51-14.13Z"/>
      <path class="cls-10" d="M5.75,161.57c1.22-2.25,2.44-4.29,3.46-6.43,1.02-2.13,1.84-4.36,2.79-6.66,1.26.35,2.52.7,3.75,1.05-.08,1.2-4.15,10.54-5.68,13.06-1.41-.33-2.88-.67-4.32-1.01Z"/>
      <path class="cls-2" d="M.5,96.6c.15.17.32.33.44.53,1.22,2.11,3.04,3.51,5.27,4.4,3.22,1.28,2.73,1.35,1.75,3.89-.38.98-.49,2.06-.66,3.11-.2,1.17-.76,1.48-1.59.68-1.83-1.76-3.57-3.6-5.33-5.43-.2-.2-.38-.53-.38-.79.04-2.1.13-4.2.2-6.31.1-.02.2-.05.3-.07Z"/>
      <path class="cls-6" d="M79.82,80.97c1.14,1.27,2.22,2.45,3.26,3.67.13.15.16.49.09.7-1.15,3.67-3.15,6.76-6.21,9.14-.07.05-.19.03-.44.05-.64-.8-1.32-1.66-2.09-2.62,2.84-.87,3.87-3.15,4.5-5.63.42-1.65.57-3.38.88-5.31Z"/>
      <path class="cls-10" d="M57.95,89.62c.06-1.02.12-1.96.18-3.04,4.38,1.43,6.6-1.16,8.46-4.45.64.54,1.18.99,1.84,1.55-.18,1.52-.55,3-1.76,4.16-1.99,1.9-5.8,2.72-8.73,1.78Z"/>
      <path class="cls-10" d="M129.2,0c1.22.13,2.32.24,3.59.38-1.09,3.19-1.48,6.47-2.86,9.58-1.56-.65-3.02-1.25-4.54-1.88,1.9-2.39,3.13-5.03,3.82-8.07Z"/>
      <path class="cls-6" d="M66.96,46.61c.73-1.09,1.38-2.05,2.08-3.1,1.72.39,3.01,1.28,3.45,3,.61,2.35,1.15,4.76-1.25,6.79-1.81-1.99-2.78-4.45-4.29-6.68Z"/>
      <path class="cls-8" d="M117.34,8.02c-.54,1.88-1.08,3.77-1.62,5.64-1.21-.54-6.32-6.18-7.28-8.14.37-.03.7-.13,1.01-.08,1.73.26,6.98,1.99,7.89,2.58Z"/>
      <path class="cls-6" d="M153.11,102.67c1.06-.48,1.93-.86,2.88-1.29.7,2.17,1.38,4.26,2.1,6.48-1.31.79-2.59,1.57-4.06,2.46-.62-2.62-.82-5.09-.93-7.65Z"/>
      <path class="cls-2" d="M68.4,12.14c1.39-.05,2,.61,1.88,1.62-.02.2-.07.41-.16.59-1.14,2.24-2.79,3.98-5.14,4.95-.35.15-.99.11-1.23-.12-.21-.21-.21-.89-.03-1.2.97-1.66,1.95-3.33,3.08-4.87.4-.54,1.25-.76,1.6-.96Z"/>
      <path class="cls-8" d="M78.4,57.51c3.29-.2,4.46-.05,7.14-3.32.1.02.21.01.29.06.73.46,1.45.92,2.27,1.45-.28.33-.47.7-.78.91-1.62,1.12-3.24,2.24-4.91,3.28-.49.31-1.14.45-1.73.49-.32.03-.8-.22-.98-.49-.49-.74-.86-1.56-1.31-2.39Z"/>
      <path class="cls-10" d="M170.18,83.7c-1.8,1.89-3.53,3.71-5.35,5.63-.77-.92-1.44-1.73-2.2-2.63,1.14-1.14,2.2-2.31,3.38-3.32,1.46-1.25,2.19-1.15,4.17.32Z"/>
      <path class="cls-6" d="M75.09,111.91v-6.72c1.01-.64,2.14-1.36,3.35-2.12.12.28.2.46.26.63q1.07,3.04-1.1,5.38c-.78.84-1.52,1.72-2.51,2.84Z"/>
      <path class="cls-6" d="M171.74,43.31c.52.49,1.06,1.01,1.66,1.58-1.67,1.56-3.24,3.05-4.85,4.5-.22.2-.66.33-.95.27-1.13-.23-2.24-.54-3.57-.88,1.54-.84,2.98-1.45,4.22-2.33,1.23-.87,2.26-2.01,3.51-3.14Z"/>
      <path class="cls-2" d="M61.09,74.28c.09-.39.16-.77.27-1.14.92-3.11,1.92-6.2,1.63-9.52-.07-.77.38-1.07,1.11-1.13.09.16.21.28.21.41.03,1.93.11,3.85.05,5.78-.06,1.99-.77,3.76-2.27,5.15-.18.17-.4.32-.61.45-.07.04-.19,0-.39,0Z"/>
      <path class="cls-6" d="M51.8,75.32c-.79,2.32-2.13,3.91-3.92,5.12-.68.46-1.25.09-1.14-.71.2-1.42.69-2.75,1.55-3.9.2-.27.65-.45,1.01-.48.75-.07,1.5-.02,2.5-.02Z"/>
      <path class="cls-1" d="M120.1,70.93c-.38,1.24-.73,2.49-1.16,3.71-.23.64-.68,1.18-1.49.96-.71-.2-.93-.84-.84-1.44.23-1.59.54-3.17.89-4.73.12-.55.53-1.02,1.19-.98.71.05,1.03.58,1.15,1.21.07.39.06.8.09,1.2l.17.06Z"/>
      <path class="cls-1" d="M146.91,81.6c-1.27,1.95-3.3,1.15-5.07,1.78.29.5.52.97.82,1.39.26.37.65.65.91,1.02.85,1.24.51,2.78-.8,3.53-1.11.64-2.28.9-3.42.06-.21-.16-.33-.44-.55-.75.82.07,1.51.27,2.15.16,1.89-.32,2.32-1.5,1.2-3.03-.36-.49-.74-.98-.98-1.53-.46-1.06-.03-1.78,1.12-1.96.8-.12,1.62-.13,2.42-.24.68-.09,1.35-.26,2.21-.43Z"/>
      <path class="cls-1" d="M107.75,70.73c.31,2.09-1.15,5.68-4.05,10.39,1.06.31,2.09.62,3.24.96-.27.29-.35.47-.47.49-1.32.28-2.51-.07-3.59-.81-.48-.33-.62-.81-.2-1.3,1.98-2.32,2.88-5.22,4.17-7.91.25-.52.51-1.03.9-1.82Z"/>
      <path class="cls-1" d="M101.21,90.95c1.29-.11,2.57-.23,3.86-.34,2.21-.19,4.22-1.03,6.19-1.95.47-.22.83-.69,1.25-1.05q.81.52,1.15,2.01c-1.45-.58-2.41.46-3.53.93-2.24.93-4.53,1.43-6.96,1.21-.68-.06-1.34-.25-2.02-.38.02-.15.03-.29.05-.44Z"/>
      <path class="cls-1" d="M96.68,68.49c.09-.64.19-1.6.37-2.54.15-.78.69-1.21,1.36-1.18.64.02,1.17.5,1.28,1.28.19,1.33-.05,2.62-.63,3.83-.29.6-.7,1.18-1.51.96-.71-.19-.84-.8-.87-1.44-.01-.2,0-.4,0-.92Z"/>
      <path class="cls-1" d="M114.7,63.07c-.5-1.35.15-2.13.84-2.8,1.39-1.36,3.08-1.39,4.81-.81,1.24.42,2.47.94,2.55,2.76-.42-.19-.72-.3-1-.44-.63-.31-1.23-.71-1.89-.94-1.85-.66-3.2-.25-4.44,1.25-.24.29-.49.56-.87.98Z"/>
      <path class="cls-1" d="M104.15,60.1c-.45-.18-.91-.35-1.34-.56-.59-.29-1.15-.65-1.75-.91-1.92-.84-3.36-.52-4.76,1.06-.16.18-.24.44-.43.81-.57-.7-.47-1.12-.28-1.52.61-1.3,1.69-2.06,3.08-2.18,1.96-.17,3.68.56,5.13,1.87.31.28.45.74.67,1.11-.11.11-.21.21-.32.32Z"/>
      <path class="cls-2" d="M157.32,148.14c1.38.51,2.64.97,4.05,1.49-3.07,3.5-6.06,6.89-9.15,10.4-.94-1.41-1.79-2.69-2.67-4.02,4.45-.7,6.5-3.8,7.78-7.88Z"/>
      <path class="cls-6" d="M139.8,161.46c1.18.94,2.3,1.83,3.58,2.85-1.98,2.98-3.73,6.03-6.52,8.5-.67-.79-1.24-1.47-1.67-1.98,1.09-1.52,2.28-2.81,3.02-4.32.75-1.51,1.05-3.24,1.6-5.05Z"/>
      <path class="cls-5" d="M28.89,110.33c-1.38.3-2.81.36-4.21.49-.45.05-.91.01-1.37.01,0,.02,0,.04-.01.07-1.91-.17-3.84-.24-5.74-.54-1.18-.18-2.31-.68-3.44-1.12-.71-.27-.86-.89-.74-1.63.12-.74.4-1.41.79-1.97,2.59,1.52,5.57,2.33,8.55,2.7,2.47.31,4.95.33,7.43.29.24.87-.16,1.45-1.26,1.7Z"/>
      <path class="cls-5" d="M28.26,117.31c-.84.62-1.79,1.24-2.78,1.49-3.59.92-7.25,1.42-10.98,1.06-1.62-.15-2.13-.65-2.26-2.29-.05-.54-.05-1.08-.01-1.61.34.26.71.47,1.1.62,1.16.47,2.43.54,3.67.59,2.14.09,4.29.14,6.39-.2,1.9-.32,3.78-.96,5.32-2.1.56.95.45,1.76-.45,2.44Z"/>
      <path class="cls-5" d="M23.44,128.77c.38.61.75,1.3.26,1.97-.34.45-.85.91-1.38,1.08-2.04.64-4.1.61-6.09-.2-1.54-.62-2.01-1.64-1.69-3.47,2.59.55,5.19.53,7.79.03.57-.11.86.19,1.11.59Z"/>
      <path class="cls-5" d="M25.25,125.83c-.09.05-.2.09-.3.13-3.06,1.16-6.21,1.47-9.43.87-1.64-.31-2.33-1.17-2.39-2.87v-.48c3.8,1.66,7.97,2.46,12.12,2.35Z"/>
      <path class="cls-5" d="M51.66,167.96c4.82,1.09,9.33,3.52,12.93,6.91-1.62-4.09-3.82-7.78-7.25-10.71-.41-.35-.9-.72-1.41-.82-2.18-.47-4.39-.85-6.87-1.31l.18.83,2.42,5.1Z"/>
      <path class="cls-5" d="M51.82,192.54c-.05.22-.09.43-.15.65-1.58-4.95-5.13-9.07-9-12.57-4-3.64-8.44-6.81-12.12-10.78-.84-.89-1.64-1.84-2.17-2.95-.04-.08-.07-.15-.1-.23-.04-.44-.09-.89-.13-1.34-.05-.55-.06-1.11-.08-1.7.26,0,.32-.02.36.01,2.65,1.59,5.46,1.34,8.27.62,2.7-.69,5.37-1.51,8.06-2.22.84-.23,1.71-.33,2.64-.48.04.01.07.02.11.04.06.03.12.06.17.09,1.42,4.06,3.05,7.81,3.96,11.83,1.42,6.34,1.52,12.67.18,19.03Z"/>
      <path class="cls-5" d="M25.61,156.63c-1.38-1.38-2.54-2.91-3.26-4.74-.15-.38-.28-.77-.35-1.17-.29-1.79.54-2.63,2.07-1.99.18.08.39.1.69.18.31.97.66,1.97.95,2.98.57,2,1.87,3.32,3.7,4.22,1.58.77,3.2,1.32,4.86,1.68h-1.62c.75.63,1.54,1.21,2.36,1.74-.9-.01-1.81,0-2.71-.02-2.61-.07-4.85-1.03-6.69-2.88Z"/>
      <path class="cls-5" d="M36.84,160.57c.93.47,1.89.88,2.88,1.21-.92.86-2.23,1.14-3.48,1.16-1.24.02-2.49-.19-3.74-.19-.91,0-1.85.11-2.77.2-1.57-.87-3.15-1.75-4.65-2.74-.94-.62-.86-.94.03-1.94.12.04.29.05.4.13,2.23,1.84,4.84,2.57,7.67,2.43,1.22-.06,2.44-.15,3.66-.26Z"/>
      <path class="cls-5" d="M36.94,140.76s0-.03-.01-.05c.01-.02.03-.04.05-.06l-.04.11Z"/>
      <path class="cls-5" d="M31.21,146.89c-.19-1.74-.07-3.46.54-5.11.21-.56.54-1.1.92-1.57.81-1,1.75-1.14,2.8-.37.45.33.86.74,1.18,1.19-1.16,1.44-1.5,3.47-1.08,5.29.46,1.98,1.74,3.7,3.32,4.99.78.64,1.64,1.19,2.54,1.66-1.52-.35-3.04-.72-4.52-1.19-1.42-.45-2.71-1.36-4.02-2.13-1.02-.61-1.56-1.59-1.68-2.76Z"/>
      <path class="cls-5" d="M41.5,154.48c-2.25.09-4.5-.14-6.68-.7.9,1.54,2.32,2.75,3.97,3.44-2.47-.33-4.91-.85-7.27-1.75-.71-.27-1.39-.62-2.06-.98-1.06-.58-1.83-1.42-2.22-2.6-.66-1.97-1.47-3.93-1.36-6.05.05-.83.32-1.69.66-2.46.27-.61.87-1,1.62-.85.69.15,1.32.9,1.37,1.65.04.76,0,1.53.04,2.29.08,1.89.89,3.39,2.46,4.5,2.87,2.02,6.06,3.05,9.47,3.51Z"/>
      <path class="cls-5" d="M149.33,189.83c-.96,1.34-1.78,2.61-2.72,3.78-1.22,1.5-2.45,2.98-3.73,4.43-3.26-4.38-9.64-12.62-12.72-14.54-3.51-2.17-6.94-3.97-8.02-4.52-.23-.12-.35-.18-.35-.18l4.45-4.05c7.94,4.59,15.4,9.84,23.09,15.08Z"/>
      <path class="cls-9" d="M136.78,57.32h-.09c-.06-.85-.26-1.69-.67-2.51-2.27-4.52-5.74-7.25-10.93-7.59-3.19-.21-6.28.29-9.35,1.05-3.69.92-7.38,1.86-11.09,2.72-1.28.29-2.61.47-3.92.49-4.62.06-9.21-3.02-10.91-7.29.63.26,1.24.46,1.84.58h.01c2.39,1.23,4.88,2.22,7.54,2.53,2.97.34,5.97-.22,8.91-.77,6.79-1.29,13.77-2.59,20.56-1.3,2.28.43,4.61,1.21,6.2,2.9,2.22,2.37,2.5,6,1.9,9.19Z"/>
      <path class="cls-9" d="M135.87,32.26c.65,1.21,1.26,2.44,1.85,3.68-3.47-5.72-10.1-9.42-16.81-9.25-3.91.1-7.7,1.39-11.6,1.62-3.46.2-6.96-.46-10.11-1.9-1.8-.83-3.52-1.94-4.7-3.52.33-.9.8-1.77,1.4-2.62.19.21.37.32.43.48.98,2.64,3.08,3.74,5.68,3.87,2.73.12,5.48-.01,8.22-.07.97-.02,1.93-.12,2.89-.24,5.01-.62,9.94-.02,14.84,1,.77.16,1.55.49,2.23.9,2.46,1.47,4.34,3.54,5.68,6.05Z"/>
      <path class="cls-9" d="M127.24,34.43c-.11-.09-.23-.17-.35-.25t-.01-.01c-2.67-1.9-5.96-2.94-9.24-2.88-2.9.05-5.71.9-8.44,1.88s-5.42,2.09-8.26,2.68c-2.83.59-5.87.62-8.53-.51-1.34-.57-2.56-1.48-3.48-2.6.19-.97.42-1.97.69-2.99.93,1.91,2.26,2.94,4,3.35.98.23,2,.36,3.01.37,3.08.06,6.04-.71,9.03-1.32,3.03-.63,6.04-1.39,9.09-1.86,2.74-.43,5.45-.15,8.08.91.64.26,1.23.58,1.77.95h.01l2.03,1.76.03.03.57.49Z"/>
      <path class="cls-4" d="M150.37,126.96c-.74-1.95-1.58-3.88-2.56-5.81,7.76,2.74,13.97,7.37,19.9,12.43-.02.11-.05.22-.07.32l-1.5-.18c-2.47-.32-4.94-.7-7.43-.16-.07.01-.14.03-.21.05-2.23-2.75-4.98-5.06-8.13-6.65Z"/>
      <path class="cls-4" d="M173.06,152.33c-.39,4.47-1.04,8.89-2.38,13.17-2.51,7.98-5.92,15.56-10.39,22.65-1.19,1.89-2.42,3.76-3.65,5.65-1.43-1.12-2.87-2.22-4.3-3.32.35-1.46,1.21-2.88,2.03-4.18,4-6.4,7.5-13.19,9.44-20.49,1.94-7.29,2.26-15.15,0-22.35-.98-3.13-2.49-6.12-4.45-8.76,2.77-.34,5.52-.02,8.26.57,2.43.53,3.84,1.92,4.5,4.37,1.11,4.19,1.32,8.4.95,12.69Z"/>
      <path class="cls-1" d="M173.62,139.32c-.58-2-1.5-3.75-3.02-5.2-4.11-3.91-8.57-7.35-13.4-10.29-3.03-1.85-6.24-3.42-9.67-4.44-.58-.17-.94-.47-1.27-.97-1.06-1.61-2.1-3.25-3.29-4.76-1.75-2.2-3.69-4.22-6.35-5.36-.36-.15-.7-.34-1.08-.53.41-2.53.82-4.98,1.22-7.44.39-2.43.77-4.85,1.16-7.31.59.17,1.03.32,1.47.42,4.22.87,6.84-.26,8.75-3.02.9-1.29,1.72-2.64,2.44-4.03.95-1.83,1.07-3.8.58-5.79-.16-.68-.45-1.33-.68-1.96.06-.09.08-.14.12-.17.27-.22.56-.44.83-.66,5.04-4.16,7.31-9.63,7.52-16.02.1-2.92-1.35-4.92-4.05-6.01-.56-.23-1.12-.43-1.77-.68.34-.42.64-.76.9-1.12,2.45-3.34,3.69-7.63,2.07-11.82-.47-1.22-1.18-2.44-2.17-3.62-.21-.25-.42-.5-.64-.75-.79-.9-1.61-1.78-2.52-2.54-6.89-5.69-14.63-9.7-23.45-11.44-4.22-.83-8.46-1.17-12.76-.92-.65.03-1.3.08-1.95.15-3.37.34-6.79.38-10.19.39-1.71.01-3.15-.46-4.16-1.6-.46-.51-.83-1.16-1.1-1.97-.44-1.32-1.22-1.41-2.07-.26-.58.79-1.07,1.61-1.43,2.46-.61,1.39-.91,2.85-.84,4.43.01.37.04.74.1,1.12.25,1.63,1.2,2.88,2.12,4.2-2.43-.05-3.68-.95-4.34-3.09-.16-.53-.24-1.09-.41-1.62-.03-.1-.08-.2-.14-.3-.09-.16-.22-.33-.37-.58-.2.3-.39.5-.52.7-.05.09-.1.18-.12.27-.73,2.9-1.7,5.78-2.1,8.73-.86,6.34,1.12,11.63,6.59,15.33.2.14.38.31.55.45-.02.16-.01.27-.05.36-2.53,7.47-3.66,15.21-4.07,23.04-.2,3.74.03,7.52.24,11.27.27,4.65,1.67,8.98,4.29,12.86,2.75,4.08,6.34,6.97,11.37,7.71.29.05.58.13,1.18.28-.41.35-.6.64-.84.69-.59.13-1.23.08-1.81.22-6.44,1.51-11.51,4.98-14.98,10.64-.52.84-1.11,1.21-2.02,1.34-1.26.18-2.51.44-3.75.68-8.95,1.73-16.44,6-22.41,12.91-.19.21-.41.4-.57.56-1.07-.94-2.04-1.8-3.16-2.78.15-1.58.34-3.34.5-5.11.38-4.3.79-8.6,1.09-12.91.07-.91.19-1.61.95-2.24,1.18-.97,1.5-2.3.85-3.71-.42-.91-.93-1.82-1.57-2.59-3.34-3.98-7.18-7.47-11.09-10.88-.53-.47-1.16-.83-1.72-1.27-.97-.76-2-.91-3.12-.35-.27.13-.57.21-.84.34-6.23,2.89-12.27,6.09-17.76,10.35-.96-.27-1.97-.63-3.02-.82-2.17-.4-4.34-.4-6.43.51-1.92.83-2.61,2.58-3.31,4.35-.48,1.23-.17,2.26.8,3.1-1.43,1.78-1.96,3.73-2.1,5.79-.13,1.87-.02,3.68,1.66,4.9-.96,2.67-1.34,5.15,1.36,6.96-.9,2.3-.32,3.85,1.79,4.83.54.26,1.14.45,1.73.56.94.17,1.9.24,2.94.36.14,1.4,1.1,2.57,1,4.08-.03.42.54.89.84,1.34.25.35.65.66.73,1.04.55,2.52,1.04,5.06,1.57,7.7-.45-.11-.77-.21-1.1-.28-1.26-.26-2.27.29-2.57,1.51-.15.62-.24,1.37-.05,1.95.45,1.33,1.01,2.65,1.69,3.88.5.92,1.26,1.71,1.9,2.54-1.54,1.81-1.44,2.72.47,4.1.74.53,1.55.98,2.41,1.52,0,1.11-.03,2.28.01,3.44.11,4.07.45,8.09,1.22,12.06.37,1.9.84,3.79,1.44,5.66.08.26.16.51.25.76,1.07,3.24,2.46,6.3,4.74,8.92,1.73,2,3.37,4.07,5.06,6.09,1.99,2.38,5.1,2.86,7.66,1.13.11-.07.21-.15.32-.22,1.03-.7,2.05-1.42,2.95-2.27l.57-.54c3.85-3.68,7.81-7.27,10.93-11.64.2-.27.46-.5.7-.75.4.15.74.26,1.06.41,1.14.52,2.14.49,2.99-.58.29-.36.73-.6,1.33-1.07-.16,2.35-.38,4.37-.43,6.4-.11,5.08-.19,10.15-.26,15.23-.03,1.68-.05,3.37-.08,5.05,0,.04,0,.09-.01.13.48.19.97.38,1.47.55.06-.35.04-.72.04-1.06-.02-1.39-.03-2.78-.04-4.17-.03-2.37-.06-4.74-.16-7.11-.22-4.89.16-9.75.29-14.63.03-1.04.19-1.97.8-2.86.62-.92,1.08-1.95,1.59-2.94.32-.62.6-1.26.98-2.06.44.58.77.97,1.04,1.38,3.31,4.88,6.61,9.76,9.91,14.65,3.3,4.88,6.59,9.77,9.93,14.63.39.56.49,1.05.38,1.69-.14.86-.28,1.71-.39,2.57-.06.45-.12.89-.17,1.34-.05.43-.12.95.68,1.11.53-.72.58-1.53.58-2.37s-.04-1.61.24-2.34c.12.01.19,0,.22.03.66.62,1.32,1.25,1.97,1.88.21.2.43.41.65.59,2.93,2.63,6.21,4.36,9.8,5.24,2.09.52,4.29.74,6.59.68,4.35-.1,8.34-1.53,12.1-3.62.24-.13.47-.26.71-.4,4.65-2.7,8.74-6,12.43-9.71,3.23-3.22,6.15-6.76,8.91-10.47.75-1.01,1.45-2.05,2.21-3.14.71.47,1.25.84,1.78,1.19,0,.32.03.57-.01.82-.26,1.74-.52,3.48-.78,5.23-.32,2.14-.65,4.28-.96,6.43.5-.28.99-.57,1.48-.88.3-2.15.6-4.31.89-6.46.02-.17.05-.34.07-.51.16-1.22.2-2.45.31-3.87.89.74,1.58,1.33,2.29,1.9.19.15.37.25.55.29.36.09.69-.03,1.02-.45.2-.26.42-.51.64-.76.56-.63,1.13-1.25,1.59-1.94,8.23-12.41,14.25-25.64,15.32-40.75.28-3.94.11-7.81-.98-11.62ZM136.61,109.48c1.8,1.26,3.27,2.87,4.63,4.59,3.66,4.63,6.1,9.92,8.24,15.37.59,1.5,1.18,3,1.83,4.68-2.02-.46-3.88-.89-5.74-1.3-1.39-.3-2.79-.54-4.17-.89-1.35-.34-2.49-.04-3.51.9-1.27,1.16-2.57,2.29-3.85,3.44-2,1.8-3.98,3.6-6.23,5.63.17-3.05,5.45-26.21,7.52-33.24.45.29.87.53,1.28.82ZM128.26,132.38c-.4,1.95-.75,3.77-1.15,5.59-2.36,10.81-4.75,21.62-7.08,32.43-.74,3.43-1.33,6.88-2.02,10.31-.07.37-.29.74-.54,1.03-.46.54-1,1.01-1.49,1.53-1.58,1.64-3.15,3.3-4.87,5.11-3.89-3.74-8.7-6.21-13.23-8.98.93-6.51,1.84-12.93,2.78-19.34,1.45-9.9,2.65-19.83,4.84-29.6.05-.25.12-.49.21-.84,7.24,2.84,14.79,2.92,22.55,2.76ZM105.83,128.81c.11-.51.18-.85.27-1.19.05-.23.13-.46.22-.76,7.17,3.08,14.67,3.35,22.24,3.09.02,1.3-.02,1.35-1.07,1.44-.35.03-.71.03-1.07.02-6.33-.16-12.66-.43-18.83-2.12-.53-.15-1.06-.29-1.76-.48ZM89.82,44.19c3.74,1.58,7.06.49,10.27-1.44,1.39-.83,2.78-1.71,4.26-2.35,3.76-1.64,7.62-1.57,11.43-.16.94.34,1.75,1.01,2.62,1.53.27.17.54.36,1.07.71-.29-1.27-.98-1.84-1.72-2.34-1.54-1.05-3.31-1.52-5.14-1.75-4.03-.52-7.76.3-11.25,2.39-1.56.94-3.18,1.81-4.86,2.51-1,.41-2.17.55-3.27.58-2.87.06-4.65-1.65-4.83-4.53-.19-3.16.34-6.23,1.22-9.59.93,1.91,2.26,2.94,4,3.35.98.23,2,.36,3.01.37,3.08.06,6.04-.71,9.03-1.32,3.03-.63,6.04-1.39,9.09-1.86,2.74-.43,5.45-.15,8.08.91,1.72.7,3.03,1.82,4.22,3.15.26.29.52.58.88.78-.86-1.72-1.87-3.3-3.55-4.35-3.07-1.89-6.44-2.57-9.95-2.01-3.51.55-6.96,1.41-10.44,2.11-1.74.36-3.49.7-5.24.98-.79.13-1.61.11-2.35.15-.16-.22-.32-.45-.47-.67,0,0-.01,0-.02-.02-.15-.21-.3-.43-.44-.64-.01-.01-.02-.02-.03-.04-.27-.42-.53-.85-.76-1.28-.14-.27-.27-.54-.38-.82-.08-.2-.15-.4-.21-.61-.05-.17-.09-.34-.13-.52-.05-.25-.09-.51-.11-.77,0-.08-.01-.17-.01-.25-.01-.27,0-.55.03-.84.02-.22.06-.45.09-.66.08-.49.2-.97.35-1.44.06-.2.13-.4.2-.59.11-.3.23-.59.38-.88.17-.37.37-.73.6-1.09.13-.21.26-.41.41-.62.19.21.37.32.43.48.09.24.19.47.3.68.08.16.16.31.25.45.07.11.14.22.22.33.06.11.14.21.23.31.24.29.5.55.79.78.09.08.19.15.29.22.3.21.62.38.96.53.15.07.3.13.46.18.11.04.22.07.33.1.15.04.29.08.44.11.3.06.61.11.93.14.16.02.32.03.48.04,2.73.12,5.48-.01,8.22-.07.97-.02,1.93-.12,2.89-.24,1.8-.22,3.59-.29,5.38-.23.41,0,.81.03,1.22.06.4.02.81.05,1.21.09.33.03.65.06.97.1.09,0,.17,0,.25.02l.21.03c.42.04.84.1,1.25.16.27.04.55.08.82.12.3.05.59.09.88.15.45.07.89.15,1.33.24.44.08.88.17,1.32.26.77.16,1.55.49,2.23.9.26.16.52.32.77.5.14.09.28.19.42.3.01-.01.01,0,.01,0,.21.15.42.32.62.48.24.2.47.4.7.62.26.23.5.48.74.74.24.25.47.51.68.78.02.02.04.05.06.07.2.24.39.5.57.76.17.23.32.47.48.72.09.14.18.29.27.45.13.2.25.42.36.63,1.36,2.54,2.56,5.18,3.83,7.78.15.32.28.64.56,1.31.08-.58.17-.84.13-1.06-.06-.29-.11-.58-.18-.87-.06-.28-.13-.57-.21-.85-.05-.21-.11-.41-.17-.62-.07-.25-.14-.49-.22-.73-.23-.73-.5-1.44-.8-2.14-.12-.29-.25-.58-.39-.87s-.28-.58-.43-.86c-.17-.34-.35-.67-.55-1-.02-.04-.04-.08-.07-.12-.19-.33-.4-.66-.6-.98-.24-.37-.48-.73-.74-1.08-.25-.36-.51-.71-.79-1.05-.23-.3-.48-.6-.74-.89-.03-.04-.06-.09-.1-.13-.03-.03-.05-.06-.08-.09-.27-.3-.55-.59-.82-.89-.03-.03-.03-.09-.08-.26,2.1.65,4.03,1.53,5.9,2.53.38.2.64.64.92,1,.06.08.13.17.19.25,0,0,.01,0,.01.02.18.24.35.48.51.73.05.07.1.15.15.24.16.26.32.52.46.79.03.05.06.1.08.15.16.3.31.61.45.92.15.33.29.66.41,1.01.04.11.08.21.12.32.06.16.12.33.17.5.08.25.16.5.22.75.08.26.15.53.21.8.1.38.18.76.25,1.15v.02c.07.4.14.8.19,1.2.29,2.21.46,4.45.69,6.67.08.74.15,1.49.29,2.22.29-1.47.5-3.52.42-5.84,0-.27-.02-.53-.03-.81-.01-.13-.02-.26-.03-.39-.04-.58-.1-1.18-.19-1.78-.04-.34-.1-.68-.16-1.03-.12-.69-.28-1.39-.46-2.09-.1-.34-.2-.69-.31-1.04-.09-.3-.19-.61-.3-.91-.1-.27-.2-.54-.31-.81-.02-.03-.03-.06-.04-.09-.13-.3-.26-.6-.4-.89-.14-.3-.29-.59-.45-.88-.06-.13-.14-.26-.21-.39.11.02.23.05.35.08l.18.06c.11.03.23.08.35.13.16.06.31.13.47.22.16.08.32.16.48.26.16.09.32.19.47.3.25.17.49.35.72.54.2.17.4.35.58.53.31.32.58.65.77.98.14.24.27.47.39.71s.24.48.35.72c.09.19.18.38.26.57.13.29.25.59.36.9.02.05.04.1.05.15.11.29.21.58.31.88.03.1.06.19.08.28.11.33.2.67.29,1,.08.31.16.62.23.94.11.48.21.96.3,1.45.44,2.42.44,4.83-.12,7.4,1.13-1.27,1.62-4.14,1.08-7.01-.05-.3-.11-.59-.18-.89-.05-.27-.11-.54-.17-.81-.21-.91-.43-1.82-.67-2.73-.22-.89-.45-1.77-.67-2.67.18.11.5.22.7.44,1.41,1.46,2.9,2.86,4.16,4.44.13.17.26.34.38.51.01.01.02.03.02.04.09.12.18.24.25.37.1.15.19.3.27.45.03.03.04.05.04.08.11.18.21.37.29.55.05.09.09.18.13.27.07.15.13.31.19.47.03.07.06.14.07.2.06.16.12.33.16.49.03.1.06.2.09.31.05.21.1.43.13.64.03.17.06.33.07.5.02.11.03.23.04.35.11,1.34-.08,2.72-.57,4.12-.59,1.7-1.65,3.24-2.53,4.83-.39.7-.98.85-1.8.77-3.04-.32-6.09-.42-9.12.12-.45.08-.89.27-1.33.4.02.14.04.28.06.41.72.02,1.45.08,2.17.03.79-.07,1.34.23,1.51.96.27,1.12.55,2.26.59,3.41.08,1.99-.39,3.93-.98,5.83-.13.43-.22.86-.39,1.52,2.58-3.39,3.75-8.13,1.59-11.59,1.38-.35,2.56-.29,3.62.78,2.17,2.22,2.6,4.86,1.98,7.76-.21.98-.56,1.92-.88,2.98,3.06-2.13,3.01-7.53-.14-11.47.42,0,.75-.07,1.04,0,1.41.4,2.85.75,4.21,1.28,2.19.86,3.03,2.69,2.88,4.89-.33,5.03-2.16,9.47-5.51,13.26-.64.72-1.31,1.41-2.05,2.2-1.8-1.66-3.95-1.93-6.25-1.64-2.74.35-4.96,1.7-6.93,3.54-.4.38-.75.81-1.21,1.3-1.95-1.37-3.93-2.58-5.51-4.39,2.23-3.16,3.76-6.59,5.13-10.09,1.01-2.57,1.62-5.23,1.71-8.01.05-1.28-.1-2.5-.69-3.68-2.27-4.52-5.74-7.25-10.93-7.59-3.19-.21-6.28.29-9.35,1.05-3.69.92-7.38,1.86-11.09,2.72-1.28.29-2.61.47-3.92.49-4.62.06-9.21-3.02-10.91-7.29ZM107.71,107.13c5.45-.06,10.39-1.47,14.6-5-.18.03-.37.04-.55.1-2.44.85-4.83,1.88-7.32,2.53-3.01.79-6.09,1.01-9.2.28-4.05-.94-6.97-3.41-9.3-6.68-2.6-3.65-3.93-7.79-4.41-12.2-1.18-10.95.16-21.69,2.82-32.31.15-.58.37-1.14.58-1.77,3.86,1.83,7.72,1.49,11.57.49,3.74-.97,7.44-2.07,11.17-3.02,2.78-.71,5.6-.98,8.46-.53,2.4.37,4.46,1.33,6.14,3.08,1.06,1.1,2.16,2.15,3.16,3.3.28.32.4.9.39,1.36-.04,2.92-.57,5.78-1.68,8.47-1.43,3.47-2.98,6.9-4.57,10.3-.4.85-.55,1.56.17,2.18,1.54,1.32,3.12,2.58,4.7,3.85.48.38.98.18,1.41-.1.73-.47,1.42-.99,2.13-1.48,1.79-1.2,3.64-2.27,5.86-2.34.81-.03,1.64-.02,2.43.12,1.46.26,2.5,1.12,3.01,2.52.51,1.4.7,2.84.29,4.33-.68,2.44-1.82,4.61-3.52,6.5-.87.97-1.91,1.56-3.18,1.56-1.26.01-2.52-.16-3.77-.32-.54-.06-1.06-.27-1.81-.48-.41,1.76-.88,3.41-1.17,5.09-.69,4.01-1.3,8.02-1.96,12.03-.14.85-.39,1.68-.6,2.51l-4.32,16.5c-.05.2-.14.39-.21.57-4.81,1.16-18.1-.45-22.49-2.78,1.69-6.06.92-12.33,1.17-18.66ZM89.39,121.29c3.63-6.5,9.25-10.34,16.22-12.47.29-.09.58-.17.87-.25.23.9-.19,12.14-.57,14.08-.91,4.58-1.86,9.14-2.8,13.71-.1-.02-.2-.03-.31-.05-.83-1.73-1.64-3.48-2.5-5.2-.52-1.04-1.09-2.07-1.7-3.06-.8-1.28-.97-1.31-2.33-.77-3.73,1.47-7.45,2.95-11.18,4.43-.09.03-.2.02-.36.04-.01-.14-.06-.28-.02-.39,1.33-3.46,2.87-6.82,4.68-10.07ZM88,120.92c-.21.53-.31.84-.44,1.14-1.46,3.29-2.94,6.58-4.37,9.89-.21.46-.21,1.01-.37,1.83,1.95-.39,3.32-1.39,4.85-1.96,1.62-.59,3.21-1.26,4.82-1.88,1.56-.59,3.12-1.17,4.8-1.8.32.5.66.93.9,1.42,1.15,2.32,2.27,4.66,3.39,6.99.11.23.14.52.3.7.98,1.16.6,2.42.4,3.71-.75,4.98-1.42,9.96-2.16,14.93-.86,5.73-1.77,11.44-2.64,17.17-.27,1.75-.51,3.51-.78,5.4-.4-.16-.72-.24-1-.41-7.28-4.37-13.33-10.12-18.61-16.72-1.27-1.58-1.91-3.31-1.89-5.45.03-4.16-.06-8.35-.53-12.48-.42-3.67-1.32-7.29-2.21-10.88-.43-1.75-1.34-3.38-2.09-5.2,5.23-3.7,11.24-5.22,17.63-6.4ZM69.71,127.74c2.76,7.57,4.14,15.19,4.06,23.12-.19-.44-.41-.87-.59-1.32-1.1-2.65-2.83-4.79-5.2-6.42-.96-.66-1.93-1.32-2.84-2.05-1.89-1.49-3.1-3.45-3.92-5.71,2.53-2.82,5.07-5.57,8.49-7.62ZM56.53,131.39c-.58.3-1.29.51-1.77.97-.49.46-.75,1.17-1.11,1.77.78-7.36,1.86-14.67,1.97-22.19.94-.06,1.82-.1,2.74-.16-.61,6.61-1.22,13.09-1.83,19.61ZM44.89,92.66c.42.35.88.65,1.27,1.03,3.88,3.72,7.77,7.42,11.59,11.2.89.88,1.64,1.96,2.2,3.07.73,1.44-.01,2.58-1.6,2.79-.59.08-1.19.15-1.99.26,1.38-1.69.95-3.21.08-4.68-.39-.65-.85-1.28-1.36-1.83-3.58-3.81-7.4-7.37-11.5-10.62-.07-.05-.09-.16-.17-.33.45-.28.92-.55,1.48-.89ZM13.38,107.61c.35-2.03,1.78-3.51,3.9-3.93,1.76-.35,3.54-.33,5.27.14,1.47.4,2.93.83,4.33,1.4,1.29.52,2.31,1.46,2.98,2.71.68,1.26.41,2.09-.97,2.4-1.38.3-2.81.36-4.21.49-.45.05-.91.01-1.37.01,0,.02,0,.04-.01.07-1.91-.17-3.84-.24-5.74-.54-1.18-.18-2.31-.68-3.44-1.12-.71-.27-.86-.89-.74-1.63ZM12.24,117.57c-.2-2.37.38-4.61,1.35-6.87,3.47,1.48,6.97,1.49,10.46,1.53.56.01,1.12.02,1.68-.03.61-.05,1.08.15,1.45.64.49.64,1.04,1.24,1.47,1.92.63,1,.55,1.84-.39,2.55-.84.62-1.79,1.24-2.78,1.49-3.59.92-7.25,1.42-10.98,1.06-1.62-.15-2.13-.65-2.26-2.29ZM13.13,123.96c-.02-.85.08-1.7.12-2.7,4.05.36,7.78.03,11.47-.75,1.06-.22,3.09,1.21,3.2,2.28.03.36-.16.8-.38,1.11-.67.92-1.51,1.65-2.59,2.06-3.06,1.16-6.21,1.47-9.43.87-1.64-.31-2.33-1.17-2.39-2.87ZM16.23,131.62c-1.54-.62-2.01-1.64-1.69-3.47,2.59.55,5.19.53,7.79.03.57-.11.86.19,1.11.59.38.61.75,1.3.26,1.97-.34.45-.85.91-1.38,1.08-2.04.64-4.1.61-6.09-.2ZM21.83,135.37c-.27-.6-.53-1.2-.84-1.89.78-.17,1.35-.29,2.08-.44-.18.94.13,1.93-1.24,2.33ZM22.72,137.97c-.43-.42-.38-1.39.27-1.7,1.08-.51,1.12-1.34,1-2.28-.12-.89.01-1.62.61-2.38.92-1.15.79-1.86-.32-3.75.35-.16.69-.34,1.03-.48,1.2-.5,2.22-1.23,3.06-2.22,1.35-1.58,1.28-2.99-.22-4.4-.29-.28-.63-.52-1.04-.85.3-.22.56-.42.82-.6.38-.26.79-.48,1.13-.78,1.91-1.61,1.87-3.74-.08-5.3-.31-.26-.63-.51-.93-.78-.06-.06-.05-.19-.09-.34.65-.22,1.32-.38,1.95-.67,1.47-.66,2.1-2.09,1.39-3.52-.43-.88-1.18-1.62-1.87-2.34-.41-.43-.99-.7-1.5-1.02-.52-.31-1.06-.59-1.75-.98.39-.37.7-.74,1.09-1,4.81-3.24,9.84-6.08,15.18-8.6,2.86,2.73,5.71,5.46,8.68,8.29-2.65,2.83-5.17,5.51-7.25,8.56,2.79-2.41,5.27-5.11,7.66-7.97.46.52.88,1,1.34,1.52-1.96,2.39-3.99,4.88-6.03,7.37.1.09.21.18.32.27,2.41-2.08,4.41-4.56,6.39-7.13,1.19.86,1.98,1.94,2.47,3.26.26.71.28,1.47-.35,1.97-.82.65-.92,1.54-1,2.44-.34,3.85-.63,7.7-.99,11.54-.32,3.44-.77,6.87-1.02,10.31-.13,1.64.06,3.31.11,5.09-.06.01-.29.1-.51.09-4.52-.09-9.04-.2-13.56-.29-.79-.02-1.46-.23-2.1-.73-1.31-1.03-2.73-1.28-4.25-.4-.3.17-.66.31-.99.32-1.31.03-2.62.01-4.22.01.41-.56.61-.88.85-1.17,1.2-1.51,2.42-3.01,3.6-4.53.24-.32.37-.72.55-1.09-.1-.06-.19-.12-.29-.18-.21.19-.44.37-.62.58-1.65,1.88-3.28,3.76-4.92,5.63-.67.78-2.89.91-3.6.23ZM55.56,147.12c-.87-.06-1.61-.13-2.36-.15-3.3-.1-6.6-.26-9.9-.24-1.33.01-2.08-.45-2.58-1.63-.59-1.39-1.29-2.73-2.02-4.26,4.9.07,9.65.7,14.28-.33.88,2.26,1.71,4.36,2.58,6.61ZM23.8,139.72h7c-.39.86-.67,1.5-1.02,2.29-.78-.64-1.63-1.23-2.58-.81-.84.37-1.56,1-2.43,1.58-.29-.92-.61-1.93-.97-3.06ZM51.67,193.17c-.05.21-.11.42-.17.62-.07.25-.15.49-.24.72-.06.16-.12.31-.18.46-.23.58-.51,1.13-.83,1.65-.1.17-.22.35-.34.51-.12.19-.25.37-.4.54-.07.09-.14.17-.22.26-.11.14-.23.28-.36.41-.18.18-.36.36-.56.54-.35.33-.74.63-1.16.92-.15.1-.29.19-.44.28-.22.13-.45.24-.68.34-.12.05-.25.1-.37.14-.12.04-.25.08-.37.11-.07.02-.15.04-.23.05-.08.02-.16.03-.24.04-.09.02-.18.03-.26.03-.12.01-.24.02-.36.02-1.35,0-2.61-.65-3.63-1.95-1.34-1.72-2.68-3.44-4.12-5.08-.22-.26-.44-.52-.65-.78-.13-.16-.26-.32-.38-.49-.48-.63-.92-1.28-1.32-1.94-.14-.23-.28-.46-.41-.69-.1-.16-.18-.32-.26-.48-.29-.52-.55-1.05-.78-1.59h0c-.14-.28-.26-.56-.36-.84-.09-.19-.17-.38-.24-.58-.15-.39-.29-.78-.42-1.18-.2-.59-.38-1.19-.55-1.79-.15-.5-.29-1-.42-1.5-.06-.2-.11-.41-.16-.62-.04-.16-.08-.32-.12-.48-.08-.33-.16-.67-.24-1.01-.13-.58-.26-1.17-.38-1.76-.25-1.23-.46-2.48-.65-3.72-.09-.61-.18-1.23-.26-1.85s-.16-1.23-.23-1.85c-.2-1.77-.36-3.54-.53-5.31-.05-.55-.06-1.11-.08-1.7.26,0,.32-.02.36.01,2.65,1.59,5.46,1.34,8.27.62,2.7-.69,5.37-1.51,8.06-2.22.91-.25,1.85-.34,2.86-.52,1.43,4.12,3.1,7.92,4.02,12,1.42,6.34,1.52,12.67.18,19.03-.04.21-.09.42-.15.63ZM64.86,180.33c-2.57,4.42-5.66,8.44-9.25,12.07-1.02,1.03-2.09,2.03-3.32,3.23,3.67-11.82,2.7-22.96-3.55-33.66,2.61.49,4.91.88,7.19,1.37.51.1,1,.47,1.41.82,3.91,3.34,6.23,7.68,7.9,12.46.48,1.36.35,2.46-.38,3.71ZM67.84,183.5c-.13-7.65-3.07-13.81-8.38-19.16.47.13.77.19,1.05.3.24.09.47.21.67.36,4.17,3.03,7.9,6.5,10.72,10.91-1.08,2.58-2.21,5.11-4.06,7.59ZM146.61,193.61c-.91,1.11-1.82,2.21-2.75,3.3-.45.54-.91,1.07-1.38,1.59-.3.35-.61.69-.92,1.03-.3.34-.61.68-.92,1.01-.44.48-.89.96-1.35,1.42-.27.29-.56.58-.85.86-.32.33-.66.66-1,.98-.48.48-.97.94-1.47,1.37-.29.28-.6.55-.9.81-.03.03-.06.06-.09.08h-.01c-.5.45-1.01.87-1.52,1.29-4.08,3.31-8.43,6.21-13.5,7.82-3.37,1.07-6.86,1.77-10.36,1-.39-.09-.79-.18-1.17-.29-.04,0-.08-.02-.12-.03-.38-.1-.76-.21-1.13-.33-.27-.08-.54-.17-.8-.27-.25-.09-.5-.18-.74-.28-.27-.1-.53-.21-.78-.32-.32-.14-.63-.28-.94-.44-.16-.07-.32-.15-.48-.24-.65-.33-1.28-.7-1.89-1.1-.32-.21-.63-.42-.94-.65-.02-.01-.03-.02-.04-.03-.88-.64-1.72-1.36-2.51-2.16-3.27-3.3-6.08-6.98-8.62-10.85-5.65-8.63-11.49-17.14-17.8-25.3-1.98-2.57-4.22-4.94-6.46-7.29-2.26-2.39-5.01-3.85-8.37-4.22-2.67-.3-5.3-.95-7.93-1.52-1.58-.35-3.09-.32-4.63.22-3.32,1.16-6.72,2-10.18,2.56-1.4.23-2.75.21-4-.49-1.68-.94-3.38-1.87-4.98-2.93-.94-.62-.86-.94.03-1.94.12.04.29.05.4.13,2.23,1.84,4.84,2.57,7.67,2.43,2.53-.12,5.05-.4,7.58-.63.28-.02.54-.16.79-.44-1.66-.07-3.32-.16-4.99-.21-1.42-.04-2.84-.01-4.26-.04-2.61-.07-4.85-1.03-6.69-2.88-1.38-1.38-2.54-2.91-3.26-4.74-.15-.38-.28-.77-.35-1.17-.29-1.79.54-2.63,2.07-1.99.18.08.39.1.69.18.31.97.66,1.97.95,2.98.57,2,1.87,3.32,3.7,4.22,3.7,1.8,7.64,2.39,11.7,2.23,1.09-.04,2.08-.12,3.02.57.41.3.92.66,1.65.18-1.08-.78-2.01-1.4-3.38-1.5-3.7-.29-7.38-.78-10.88-2.12-.71-.27-1.39-.62-2.06-.98-1.06-.58-1.83-1.42-2.22-2.6-.66-1.97-1.47-3.93-1.36-6.05.05-.83.32-1.69.66-2.46.27-.61.87-1,1.62-.85.69.15,1.32.9,1.37,1.65.04.76,0,1.53.04,2.29.08,1.89.89,3.39,2.46,4.5,3.12,2.2,6.63,3.23,10.38,3.62.05,0,.1.01.15,0,1.49-.35,2.88-.12,4.21.62.19.1.47.02,1.04.02-1.15-.76-2.07-1.25-3.09-1.5-2.61-.64-5.26-1.14-7.81-1.95-1.42-.45-2.71-1.36-4.02-2.13-1.02-.61-1.56-1.59-1.68-2.76-.19-1.74-.07-3.46.54-5.11.21-.56.54-1.1.92-1.57.81-1,1.75-1.14,2.8-.37.52.38,1,.88,1.35,1.42.64.98,1.17,2.02,1.72,3.05.36.67.7,1.36,1.04,2.03.68,1.32,1.75,1.87,3.23,1.86,3.91-.04,7.82-.01,11.73,0,.91,0,1.91-.35,2.59.87.08-.13.16-.25.24-.38-.19-.61-.35-1.22-.58-1.81-.52-1.33-1.06-2.64-1.62-3.95-.83-1.97-1.13-4.02-.89-6.12.11-.98.48-1.96.9-2.87.37-.81.93-.98,1.76-.64.5.21,1.03.53,1.36.94.84,1.01,1.68,2.05,2.32,3.19,1.39,2.43,3.12,4.53,5.56,5.94,4.35,2.52,6.46,6.45,7.28,11.24.09.55.22,1.09.28,1.65.22,2.42,1.29,4.45,2.79,6.31,2.81,3.51,6.05,6.58,9.52,9.43,3.58,2.94,7.38,5.56,11.36,7.93,4.29,2.55,8.41,5.34,12.14,8.67.91.81,1.78,1.67,2.63,2.54,1.81,1.84,3.19,3.94,3.91,6.45.26.88.58,1.74.91,2.59.16.39.42.74.62,1.09.79-.21.78-.65.63-1.11-1.11-3.5-2.23-6.99-4.98-9.65-.43-.41-.81-.88-1.12-1.22,4.71-4.86,9.37-9.67,14.09-14.54,7.94,4.59,15.4,9.84,23.09,15.08-.96,1.34-1.78,2.61-2.72,3.78ZM173.06,152.33c-.39,4.47-1.04,8.89-2.38,13.17-2.51,7.98-5.92,15.56-10.39,22.65-1.19,1.89-2.42,3.76-3.65,5.65-10.45-8.13-20.88-15.94-32.76-21.79.07-.21.15-.55.28-.86,3.63-8.91,8.9-16.75,15.61-23.63,2.41-2.48,4.82-4.96,7.22-7.44.13-.14.22-.31.24-.56-3.85,2.38-6.82,5.75-10.13,8.79,1.74-4.12,4.27-7.79,6.61-11.55-.08-.08-.16-.15-.24-.23-.41.39-.84.77-1.23,1.18-3.57,3.8-6.01,8.28-7.93,13.09-.33.83-.77,1.66-1.3,2.37-3.75,5.03-7.23,10.21-9.31,16.19-.23.67-.43,1.35-.62,2.04-.07.29-.09.6-.14,1.02.7.51,1.43,1.03,1.98,1.43-1.71,1.81-3.41,3.61-5.29,5.58.05-.5.04-.82.11-1.12,2.11-9.72,4.23-19.45,6.35-29.17.03-.15.07-.3.12-.45.53-1.65.15-3.57,1.56-4.96,1.26-1.25,2.42-2.6,3.71-3.82,1.88-1.78,3.78-3.56,5.78-5.2,2.34-1.94,2.05-2.2,5.45-1.22,3.12.9,6.28,1.67,9.42,2.47.27.07.57.01,1.09.01-1.35-5.13-2.96-9.96-5.41-14.82,7.76,2.74,13.97,7.37,19.9,12.43-.02.11-.05.22-.07.32l-1.5-.18c-2.47-.32-4.94-.7-7.43-.16-1,.21-1.93.52-2.76,1.4.72.31,1.29.11,1.84,0,3.3-.71,6.57-.39,9.82.31,2.43.53,3.84,1.92,4.5,4.37,1.11,4.19,1.32,8.4.95,12.69Z"/>
    </g>
  </g>
</svg>