<svg width="403" height="329" viewBox="0 0 403 329" fill="none" xmlns="http://www.w3.org/2000/svg">
<path d="M402.08 193.739C395.36 197.257 388.48 200.614 381.76 204.132C378.88 205.571 376 207.33 373.12 208.449C372.32 208.769 372 208.929 372.48 209.728C373.6 211.647 374.4 213.566 375.52 215.485C376.16 216.604 376 217.083 374.88 217.723C365.44 222.68 356 227.956 347.04 233.713C329.28 244.745 312.64 257.217 296.16 270.169C285.76 278.323 276.32 287.117 266.4 295.752C264.48 297.511 262.24 298.63 260.16 300.069C259.36 300.549 258.4 300.868 257.6 300.708C253.12 299.589 248.64 301.028 244.32 301.828C228.64 304.866 212.96 307.104 197.28 309.663C184 311.901 171.04 315.099 158.08 318.297C152 319.736 145.92 321.015 140 322.774C134.88 324.213 129.92 325.812 124.64 326.771C115.04 328.53 105.28 328.85 95.68 327.891C92.16 327.571 88.64 327.091 85.28 326.771C82.56 326.451 80.96 325.012 80.32 322.614C79.04 317.977 77.76 313.34 76.48 308.863C71.68 292.234 66.88 275.605 60.32 259.615C56.8 251.301 52.64 243.306 49.12 234.992C40.8 215.325 31.52 196.137 22.56 176.63C15.68 161.76 8.95999 146.73 2.23999 131.86C1.43999 129.941 0.8 128.022 0 126.103C0 125.144 0 124.345 0 123.385C2.24 119.708 5.91999 117.469 9.43999 115.231C11.04 114.111 12.48 113.152 14.08 112.193C15.52 111.233 16.8 110.594 16.8 108.515C16.8 106.916 18.4 106.276 19.68 105.797C24 104.198 28.48 103.079 32.8 101.799C45.92 97.9619 59.04 93.8046 72.32 90.7666C82.24 88.5281 92.32 86.2896 102.24 84.6906C102.72 84.6906 103.2 84.5307 103.68 84.051C107.52 80.5333 112.16 79.4141 117.12 78.6146C126.72 77.1756 136.32 76.536 145.92 75.7365C154.24 75.0969 160.16 78.6146 164.64 85.1703C165.12 85.9698 165.76 86.6094 166.08 87.4088C166.88 90.4468 168.96 91.4062 172 91.4062C178.08 91.5661 184 93.165 189.92 94.4442C192.16 86.7692 196.64 80.2136 201.28 73.8178C214.88 54.9502 231.68 39.1206 250.4 25.5295C261.44 17.5348 272.16 9.54008 283.84 2.50471C286.4 0.90576 287.36 1.38545 288.16 4.26356C288.48 5.54272 288.64 6.82188 288.8 8.26093C289.12 10.3396 289.44 10.4994 291.2 9.54007C297.6 6.50207 304 3.1443 310.88 1.06566C315.04 -0.213493 315.04 -1.33278 316.96 3.94375C326.88 30.4863 338.56 56.3893 349.6 82.612C365.28 120.027 383.04 156.483 401.76 192.46C401.92 192.779 401.92 193.419 402.56 193.419V193.739H402.08ZM183.2 203.173C185.44 203.173 187.68 202.533 189.76 201.574C193.44 199.815 197.44 199.335 201.44 200.614C202.24 200.934 203.68 200.614 203.36 202.373C202.56 202.533 201.92 202.053 201.28 202.053C200 201.254 198.4 201.254 196.96 201.414C191.2 202.213 185.92 204.452 180.48 206.211C176.8 207.33 173.76 209.888 170.72 212.447C168.8 214.045 168.16 215.485 169.12 217.883C170.24 220.761 170.08 220.761 172.96 219.322C176.8 218.043 180.8 217.243 184.96 217.403C189.12 217.403 193.12 218.043 197.12 218.842C198.4 219.322 199.68 220.601 200.64 220.601C202.56 220.601 204.96 220.121 206.56 219.002C209.76 216.924 210.24 213.406 208.48 209.888C205.28 212.127 202.56 214.845 199.84 217.723C199.2 218.363 198.56 219.162 197.6 218.203C197.44 217.243 198.08 216.604 198.72 215.804C200.64 213.566 202.72 211.487 205.12 209.888C207.253 208.396 207.893 206.424 207.04 203.972C206.08 200.934 205.28 197.736 204.32 194.698C204.16 193.899 203.84 193.259 203.68 192.46C203.68 192.14 203.2 191.98 202.88 192.14C202.56 192.14 202.56 192.14 202.56 192.62C202.88 194.059 201.92 194.059 200.96 193.739C199.2 193.419 197.6 193.739 196.32 194.858C194.56 196.457 192.64 196.937 190.4 195.977C189.44 195.658 188.48 195.658 187.84 196.457C185.12 198.216 183.68 201.094 181.44 203.333C182.4 203.652 182.88 203.173 183.52 202.853L183.2 203.173ZM173.6 221.241C173.12 221.241 172.8 221.401 172.32 221.561C170.72 221.88 170.72 222.52 171.2 224.119C171.84 226.357 173.76 226.517 175.2 227.317C176 227.956 177.12 227.956 177.92 227.637C184.64 225.558 191.2 223.479 197.92 221.401C197.76 220.761 197.28 220.921 196.96 220.761C194.08 219.802 191.04 219.802 188 219.482C183.04 218.842 178.24 219.482 173.6 221.241ZM172 196.297C171.52 195.817 170.88 195.658 170.4 195.977C169.12 196.617 167.68 197.257 167.2 198.855C166.56 200.454 166.88 202.373 165.28 203.492C165.28 203.492 165.28 203.972 165.28 204.132C166.08 207.01 167.04 209.888 168 212.926C168.8 211.967 169.6 211.167 170.24 210.368C172.8 208.289 175.52 206.371 178.56 204.931C178.88 204.931 179.2 204.612 179.36 204.452C180.16 201.574 182.56 199.815 184.16 197.416C184.96 196.137 187.2 195.018 186.72 193.899C186.24 192.779 183.84 192.46 182.4 191.82C181.28 191.34 180.48 191.5 180 192.779C179.68 193.579 179.2 194.378 178.4 194.219C176.48 193.899 176.64 195.178 176.48 196.457C176.32 198.216 175.52 198.376 173.92 197.576C173.28 197.097 172.96 196.457 172 196.297ZM165.6 198.216C166.4 196.777 166.72 195.178 167.68 193.899C168.64 192.779 169.76 192.3 171.04 193.099C172.64 194.219 173.12 193.419 173.6 191.98C173.76 191.34 173.92 190.701 174.08 190.061C174.72 187.823 175.68 187.183 177.92 187.823C181.28 188.622 184.48 189.741 187.52 191.5C188.64 192.14 189.12 192.14 190.08 191.34C193.76 188.143 197.6 186.863 202.08 190.061H202.4V190.381C202.72 190.221 202.72 190.061 202.4 189.901C201.28 185.105 199.68 180.468 197.92 175.991C197.92 175.671 197.44 175.191 197.12 174.871C194.88 173.112 192.48 171.194 189.28 172.953C188.64 173.272 188 173.272 187.2 173.432C186.08 173.432 185.92 174.072 185.92 175.031C186.08 177.43 186.24 179.828 186.4 182.226C186.4 183.346 186.88 184.785 185.28 185.105C184 185.424 183.68 183.985 183.04 183.346C183.04 183.186 182.72 183.026 182.56 182.706C181.44 185.264 180.16 185.424 178.24 183.506C176.48 181.747 174.88 179.668 173.44 177.589C172.8 176.79 172.32 176.47 171.2 176.95C168.16 178.389 164.96 179.508 161.92 180.787C161.44 180.947 160.8 181.267 160.96 181.907C160.16 183.506 158.72 185.264 159.2 187.023C160.64 191.98 162.56 196.777 164.32 202.053C164.8 200.295 164.96 199.015 165.28 197.896L165.6 198.216ZM293.76 36.0826C293.6 33.6842 292.48 31.6056 291.84 29.367C290.08 23.4509 288.32 17.5348 286.56 11.4588C286.56 11.139 286.56 10.9791 286.4 10.6594C286.4 10.3396 286.24 9.85986 286.08 9.54007C285.92 8.90049 285.76 8.26093 285.6 7.46145C284.96 5.22293 284.8 5.22292 282.88 6.50208C274.08 12.0984 265.6 18.1744 257.28 24.2504C232 42.3185 210.08 63.4246 193.92 90.2869C193.12 91.726 192.8 93.0052 193.12 94.6041C192.8 96.5228 193.12 98.4416 193.6 100.36C196.64 111.393 199.68 122.426 203.52 133.139C214.72 164.798 226.56 196.137 237.44 227.796C243.68 246.184 250.56 264.572 256.96 282.8C258.56 287.277 259.84 291.914 261.44 296.711C262.24 295.912 263.04 295.272 263.68 294.632C269.44 289.196 274.88 283.6 280.8 278.483C308.8 255.138 338.24 233.553 370.56 216.444C371.68 215.964 371.84 215.644 371.2 214.365C360.8 198.056 351.36 181.107 343.04 163.679C324.32 124.185 308.32 83.5713 295.68 41.519C295.04 39.6003 294.72 37.5217 293.92 35.7628L293.76 36.0826ZM167.84 105.157C168.48 104.677 168.96 104.038 168.64 103.079C166.72 97.6421 164.8 92.2057 161.76 87.4088C158.4 82.1323 154.08 78.4547 147.2 78.7745C136.64 79.0943 126.24 79.8938 115.84 81.3328C113.44 81.6526 110.88 82.2922 108.32 83.5713C110.72 83.7312 112.8 83.8911 114.72 84.051C116 84.3708 117.12 84.6906 118.4 85.1703C124.96 87.4088 130.4 90.9265 133.6 97.4822C134.88 100.2 136.16 103.079 137.28 106.276C137.6 105.797 137.76 105.477 137.92 105.157C139.84 101.799 141.76 98.2817 144.32 95.2437C144.64 94.764 145.12 93.9645 145.92 94.6041C146.56 95.0838 145.92 95.7234 145.92 96.203C144 100.041 142.24 103.878 139.68 107.396C138.24 109.474 138.56 111.073 139.36 112.992C139.84 112.992 140 112.512 140.16 112.193C141.44 109.314 143.04 106.596 144.96 104.198C145.28 103.718 145.76 102.759 146.56 103.238C147.36 103.718 146.88 104.518 146.56 105.157C145.12 109.314 143.2 113.472 140.96 117.309C140.64 118.109 140.48 118.588 140.64 119.388C141.92 125.464 143.04 131.7 143.84 137.936C144 139.375 143.68 140.974 144.8 142.093C144.96 142.732 144.32 143.212 144.48 144.012C146.08 154.245 147.52 164.638 148.64 175.031C148.96 177.589 148.96 180.308 149.12 183.346C151.68 178.549 154.24 174.232 156.64 169.915C157.76 167.836 159.04 165.757 160.48 163.839C163.2 160.321 164.64 160.161 167.84 163.199C173.44 168.475 178.72 174.072 183.2 180.627C183.52 180.947 183.52 181.587 184.32 181.587C182.56 167.836 180.96 154.085 178.08 140.014C177.44 141.133 177.12 141.773 176.96 142.573C176.16 144.012 175.36 145.611 174.4 147.05C173.92 147.849 173.28 149.608 172.32 148.968C171.04 148.329 172 146.89 172.32 145.93C173.44 143.372 174.88 140.814 176.32 138.255C178.4 136.337 176.32 134.418 176.48 132.019C175.68 132.979 175.52 133.459 175.36 134.098C173.92 136.497 172.64 139.055 171.2 141.453C169.44 144.331 167.68 147.05 165.92 149.928C165.6 150.407 165.28 150.887 164.64 150.567C164 150.407 164.16 149.608 164.32 149.288C164.64 148.329 164.8 147.369 165.28 146.41C168 140.654 171.52 135.217 174.72 129.781C175.2 129.461 175.52 128.981 175.36 128.342C174.24 124.185 173.12 120.027 172 115.87C171.36 116.19 171.2 116.51 171.04 116.989C170.08 118.428 168.96 119.867 168 121.307C167.68 121.786 167.2 122.746 166.4 122.106C165.76 121.626 166.4 120.987 166.72 120.507C167.84 118.588 169.44 116.829 170.4 114.751C171.2 114.431 171.36 113.791 171.2 112.992C170.72 111.073 170.08 109.155 169.44 107.076C168.8 107.715 168.48 108.195 168.32 108.835C167.68 109.794 167.04 110.594 166.56 111.553C164.96 114.111 163.36 116.67 161.76 119.228C161.44 119.708 161.28 120.347 160.64 119.867C160.16 119.548 160.32 119.068 160.64 118.588C160.64 118.269 160.8 117.949 160.96 117.629C162.72 113.472 165.44 109.954 167.68 106.117L167.84 105.157ZM136.64 137.776C136.64 135.377 135.52 133.778 133.12 133.139C132.16 132.819 131.2 132.179 130.24 131.7C123.04 127.542 115.36 125.304 107.36 123.225C104.64 122.586 101.6 122.426 99.36 124.504C92.64 130.421 86.24 136.816 80.64 143.852C77.92 147.209 75.04 150.567 73.12 154.405C71.36 158.082 72 159.361 75.84 160.801C76.48 160.96 77.12 161.12 77.6 161.28C81.92 162.559 83.2 164.158 83.68 168.795C84.16 174.392 85.6 179.668 88.64 184.465C89.76 186.224 91.04 187.183 93.12 187.023C94.08 187.023 95.04 187.023 96 186.704C102.24 185.904 108.32 184.305 114.4 183.026C123.2 181.267 132.16 179.988 140.96 177.909C143.68 177.27 143.68 177.27 142.88 174.232C142.88 173.752 142.88 173.272 142.88 172.953C140.32 161.28 139.04 149.448 136.64 137.776ZM298.72 39.6003C299.52 43.2779 300.96 46.9555 302.08 50.4731C302.4 51.5924 302.72 51.5924 303.52 51.1127C305.76 49.8335 308.16 48.5544 310.56 47.2752C315.68 44.7169 316.16 44.8768 319.2 49.8336C325.76 60.7064 330.72 72.5386 334.72 84.6906C335.68 87.5687 334.88 89.6474 332.16 90.9265C327.68 93.0051 324 96.0431 320.16 98.7613C319.36 99.4009 319.52 99.7207 319.68 100.52C321.12 104.358 322.72 108.035 324.16 111.873C324.64 112.992 324.8 114.111 325.6 115.071C328.48 112.832 331.52 111.233 334.72 109.954C337.76 108.675 338.88 108.995 340.8 111.713C342.08 113.312 343.04 115.071 343.84 116.989C345.44 120.507 347.04 124.025 348.64 127.542C352.32 135.537 356 143.532 359.52 151.527C361.12 155.044 360.32 157.283 357.28 159.521C354.56 161.44 352 163.519 349.28 165.437C348.32 166.077 348.32 166.717 348.8 167.676C355.84 180.947 362.88 194.059 370.4 207.01H370.72C378.88 201.734 387.2 196.937 396.16 192.939C397.44 192.3 396.8 191.82 396.48 191.021C380.32 158.242 363.84 125.464 349.44 91.726C339.52 68.3814 328.8 45.5164 319.68 21.852C317.44 16.0958 315.04 10.3396 314.08 4.26356C313.92 3.1443 313.28 2.98439 312.32 3.30418C304.8 5.38281 297.76 8.90049 291.36 13.2177C290.4 13.8572 290.56 14.6567 291.04 15.4562C292.96 23.6108 295.36 31.7654 298.4 39.6003H298.72ZM128 118.908C129.6 119.708 131.2 120.507 133.12 121.466C131.36 114.271 129.6 107.556 126.08 101.48C123.04 96.0431 118.88 92.0458 112.96 89.9671C109.92 88.8479 106.88 88.2083 103.84 87.2489C102.08 86.6094 100.32 86.7693 98.72 87.7286C96 88.3682 93.44 89.1677 90.72 89.6474C74.24 92.8453 57.92 97.1624 41.76 101.959C34.88 104.038 28 105.957 21.28 107.875C19.68 108.355 19.04 108.995 19.52 110.913C21.28 117.149 23.2 123.225 25.28 129.301C31.36 147.689 39.52 165.278 45.76 183.506C53.6 206.051 61.6 228.436 70.72 250.501C74.24 258.816 77.6 267.131 80.96 275.605C84.96 285.678 89.12 295.912 90.4 306.784C91.2 312.86 94.56 314.619 99.36 315.739C105.44 317.178 111.52 317.018 117.6 316.378C120.64 316.058 123.68 316.378 126.4 314.939C136 310.302 146.08 306.465 156.16 302.947C173.6 296.871 191.52 292.714 210.24 293.034C216.96 293.034 223.52 293.673 230.08 294.153C236.16 294.473 242.08 294.952 248 295.912C251.2 296.391 254.56 296.871 257.92 297.351C257.44 295.752 256.96 294.313 256.48 293.034C247.84 268.889 239.2 244.745 230.72 220.601C224 201.414 217.12 182.226 210.08 163.039C204.64 148.009 198.88 132.979 194.56 117.469C192.8 111.233 191.68 104.837 189.12 98.7613C188.8 98.1218 188.8 97.4822 188 97.1624C181.44 95.7233 174.88 94.4442 168.16 92.3656C169.44 95.5635 170.72 98.6015 171.68 101.799C178.56 122.905 183.2 144.651 184.96 166.717C185.28 170.554 185.28 170.554 189.12 169.435C189.76 169.275 190.56 169.275 189.76 168.316C189.44 167.996 189.44 167.356 189.76 167.036C190.08 166.717 190.56 166.877 191.04 167.036C192.32 168.156 193.76 168.316 195.52 168.156C196.8 167.996 198.24 168.475 198.72 169.755C199.36 171.833 200.96 172.473 202.72 173.272C203.52 173.592 204.32 174.072 205.12 174.392C205.92 174.871 206.88 175.511 206.4 176.63C205.92 177.749 204.8 177.909 203.84 177.749C203.2 177.749 202.72 177.27 202.08 177.27C202.08 177.589 202.08 177.749 202.08 178.069C205.44 188.462 208.64 198.855 211.52 209.249C211.52 209.728 211.52 210.368 212.64 210.208C213.76 210.048 213.92 211.167 213.44 211.807C212.48 213.406 212.8 215.005 212.96 216.604C212.96 219.002 212.48 219.962 210.08 220.761C209.12 221.081 208.16 221.561 207.68 222.36C207.2 223.159 206.24 223.639 205.6 222.84C204.64 221.88 203.84 222.36 203.04 222.52C195.52 224.758 188 227.157 180.48 229.395C179.84 229.555 179.36 229.875 179.52 230.675C179.52 231.794 178.72 232.753 177.6 232.273C175.36 231.474 173.12 230.834 170.88 230.195C170.4 230.195 169.92 229.555 169.76 229.235C169.12 227.796 168.16 226.837 166.88 226.038C166.08 225.398 165.12 224.599 166.88 224.119C167.68 223.959 167.2 223.479 167.04 223.159C163.68 211.967 160.96 200.774 156.64 189.901C155.68 190.541 154.88 192.3 153.28 191.021C151.68 189.741 153.28 188.462 153.76 187.343C153.76 187.183 153.92 187.023 154.08 186.863C154.72 185.584 155.84 184.465 154.88 182.866C153.6 180.947 153.6 179.988 155.52 179.508C158.24 179.029 159.2 177.11 160.16 175.031C160.16 174.711 160.48 174.392 160.64 174.072C160.8 173.592 161.12 173.272 161.76 173.432C162.24 173.592 162.4 174.072 162.24 174.551C162.24 175.351 162.08 175.991 161.92 176.95C164.64 175.991 167.2 175.191 169.6 174.232C170.72 173.912 169.92 173.272 169.6 172.953C168 170.874 166.08 168.795 164.48 166.717C163.52 165.438 163.04 165.597 161.92 166.717C158.08 170.554 155.2 175.031 152.8 179.828C151.68 182.067 150.4 184.305 148.96 186.384C147.84 187.983 146.72 187.823 145.6 186.064C144.48 184.305 144.16 182.386 143.84 180.308C143.68 179.029 143.36 178.229 141.76 179.029C140.48 179.828 138.88 180.148 137.28 180.627C131.04 182.386 124.48 183.186 118.08 184.465C110.24 185.904 102.4 187.983 94.4 189.102C89.28 189.741 87.04 188.782 84.48 184.305C81.44 179.188 80.16 173.752 79.68 167.996C79.52 165.757 78.4 164.318 76.16 163.839C74.56 163.519 72.8 162.879 71.36 162.24C68.64 160.96 67.36 158.562 67.84 155.684C68.16 153.765 68.8 152.006 69.92 150.407C74.72 143.372 80 136.656 86.08 130.58C91.2 125.464 96.32 120.507 102.24 116.19C105.28 114.111 108.64 113.472 112.16 114.111C117.28 115.071 122.08 116.829 126.88 118.428L128 118.908ZM108 322.934C105.44 322.934 102.88 322.934 100.32 322.454C95.84 321.815 91.36 321.015 87.36 318.457C86.24 317.817 85.12 317.018 84.96 315.579C83.68 307.264 80.8 299.429 78.4 291.435C71.68 268.41 62.08 246.344 52.8 224.279C48.64 214.525 43.84 205.091 39.2 195.658C32.32 181.427 26.24 167.036 20.48 152.326C16.16 141.613 11.04 131.06 9.27998 119.548C9.11998 118.428 8.63996 118.908 8.15996 119.228C6.87996 120.187 5.59997 121.307 4.31997 122.426C3.35997 123.385 3.03997 124.185 3.51997 125.464C3.99997 127.223 4.63999 128.981 5.43999 130.58C12.8 146.73 20.16 163.039 27.52 179.188C39.36 204.612 51.2 230.195 61.92 256.098C66.56 267.29 70.56 278.803 74.24 290.475C77.44 300.549 80.16 310.622 83.2 320.695C83.84 322.774 85.12 323.733 87.36 323.733C88.48 323.733 89.6 323.733 90.72 324.053C96.64 324.853 102.4 324.693 108 322.774V322.934ZM117.92 318.936C114.56 318.936 111.2 318.936 107.84 318.936C102.4 318.777 97.12 317.657 92.16 315.259C90.72 314.459 89.76 313.5 89.44 311.901C88.8 309.183 88.16 306.625 87.52 303.906C82.4 284.879 75.04 266.651 67.2 248.583C62.56 237.87 58.24 226.997 54.4 216.124C47.68 197.576 41.28 178.709 33.76 160.481C27.68 145.77 22.08 131.06 17.6 115.71C17.28 114.751 17.28 113.632 16.48 112.672C15.36 113.632 14.4 114.591 13.44 115.39C12.16 116.35 11.84 117.469 12 119.068C12.48 122.905 13.6 126.583 14.88 130.101C20.48 145.451 27.04 160.641 33.44 175.671C44.32 201.254 56.64 226.357 66.88 252.26C74.56 271.608 81.76 291.115 86.56 311.421C87.52 315.099 89.28 316.858 92.48 317.977C93.12 318.137 93.76 318.457 94.56 318.617C102.24 320.535 110.08 320.375 118.08 318.936H117.92ZM104.96 119.867C115.84 122.106 125.76 126.103 135.36 132.019C135.04 128.502 134.4 125.943 131.04 124.504C125.76 122.106 120.48 120.027 115.04 118.748C111.68 117.949 108.32 117.629 105.12 120.027L104.96 119.867ZM201.12 191.98C197.6 189.102 194.72 190.221 192 192.3C191.36 192.78 189.92 193.259 190.4 194.059C190.88 195.018 192.32 194.698 193.44 194.378C193.76 194.378 194.08 194.059 194.4 193.739C196.32 192.3 198.24 191.34 201.12 191.82V191.98ZM179.68 190.221C179.04 190.061 178.72 189.901 178.4 189.741C176 189.102 175.84 189.102 175.2 191.5C174.88 192.62 174.56 193.739 173.92 194.698C173.28 195.658 173.92 195.658 174.56 195.977C174.72 194.698 174.72 193.099 176 192.939C177.92 192.939 178.4 191.5 179.52 190.221H179.68Z" fill="#050606"/>
<path d="M295.68 41.9987C308.32 83.8911 324.32 124.504 343.04 164.158C351.36 181.587 360.8 198.536 371.2 214.845C372 216.124 371.68 216.284 370.56 216.924C338.24 234.032 308.8 255.618 280.8 278.963C274.72 284.079 269.28 289.676 263.68 295.112C263.04 295.752 262.24 296.391 261.44 297.191C259.84 292.394 258.56 287.757 256.96 283.28C250.4 264.892 243.68 246.664 237.44 228.276C226.56 196.617 214.72 165.278 203.52 133.618C199.68 122.746 196.64 111.873 193.6 100.84C193.12 99.0811 192.8 97.1624 193.12 95.0838C193.76 95.0838 193.92 94.6041 194.24 94.1244C196.32 91.2463 198.56 88.2083 200.64 85.3302C204.96 79.574 209.12 73.6579 214.08 68.5412C216.16 66.3027 218.24 64.0642 220.32 61.8257C222.72 59.1075 224.96 56.3892 227.68 53.9908C231.84 50.4731 236 46.9555 240 43.4378C244 39.9201 248 36.4024 252.48 33.3644C261.12 27.4483 269.92 21.5322 278.88 16.0958C282.24 14.0171 282.08 14.0171 283.2 17.6947C285.44 24.89 287.04 32.2451 289.92 39.1206C291.36 42.4784 292.8 43.4378 295.84 42.1586L295.68 41.9987ZM210.4 79.8938C210.08 78.9344 210.56 77.8151 209.44 77.6552C208.32 77.6552 208.48 78.9344 208.32 79.574C207.84 81.013 207.52 82.612 206.24 83.7312C203.84 85.65 202.72 88.2083 203.2 91.0864C203.52 93.3249 203.52 95.2437 202.56 97.3223C202.08 98.4416 202.56 99.5608 204 99.5608C205.12 99.5608 205.28 100.04 205.44 100.84C207.68 107.715 210.4 114.271 213.28 120.667C213.6 121.307 214.24 121.946 212.96 122.586C212.32 122.746 212.48 123.705 212.96 123.705C215.2 124.185 215.84 126.263 216.96 127.702C217.92 128.822 219.04 129.941 220.48 129.141C222.24 128.022 224 127.542 225.92 127.862C226.56 127.862 227.2 127.383 227.36 126.903C227.68 126.263 227.36 125.624 226.88 125.464C225.76 124.984 226.24 124.504 226.88 124.025C231.68 119.228 236.64 114.751 242.24 110.913C247.52 107.396 252.48 103.558 257.76 100.04C259.68 98.7613 260 97.0025 259.52 94.9239C257.76 86.6093 254.72 78.6146 251.84 70.7798C250.72 67.9016 250.24 64.384 247.04 62.4652C246.88 62.4652 246.88 61.9856 246.72 61.8257C245.28 58.6278 244 57.9882 240.8 59.4272C239.36 60.0668 238.08 60.5465 236.8 59.4272C236.32 59.1075 235.84 58.9476 235.52 59.4272C235.2 59.9069 235.52 60.2267 235.84 60.7064C236.16 61.0262 236.32 61.346 236.64 61.6658C227.68 67.422 219.04 73.6579 210.4 79.8938ZM291.68 55.1101C291.68 54.7903 291.52 54.1507 291.36 53.671C289.12 47.9148 286.88 42.1586 284.48 36.5623C283.68 34.4837 282.4 32.5649 281.28 30.4863C280.48 29.2071 279.52 29.0472 278.24 30.0066C272.8 34.1639 267.2 38.1612 261.6 42.3185C258.72 44.3971 256 46.4757 253.6 49.194C252.16 50.7929 251.2 52.232 252 54.7903C254.56 62.3053 257.12 69.8204 260 77.1755C260 77.6552 260.32 77.975 260.64 78.4547C260.96 78.9344 261.28 79.2542 261.92 79.2542C262.56 79.2542 262.88 78.7745 262.88 78.2948C262.88 77.6552 263.36 77.3354 263.84 77.0157C268.96 72.5386 274.4 68.5412 280.32 65.1834C283.68 63.1048 287.04 61.0262 290.08 58.4679C291.04 57.6684 291.84 56.8689 291.84 55.4299L291.68 55.1101Z" fill="#FEFEFE"/>
<path d="M155.68 183.186C156.64 184.785 155.52 185.904 154.88 187.183C154.88 187.343 154.72 187.503 154.56 187.663C153.92 188.782 152.48 190.061 154.08 191.34C155.52 192.62 156.48 190.861 157.44 190.221C161.76 201.094 164.48 212.447 167.84 223.479C167.84 223.799 168.48 224.279 167.68 224.439C165.76 224.918 166.72 225.718 167.68 226.357C168.96 227.157 169.92 228.116 170.56 229.555C170.72 230.035 171.2 230.515 171.68 230.515C173.92 231.154 176.16 231.794 178.4 232.593C179.36 232.913 180.32 232.114 180.32 230.994C180.32 230.195 180.64 229.875 181.28 229.715C188.8 227.477 196.32 225.078 203.84 222.84C204.64 222.52 205.6 222.2 206.4 223.159C207.2 223.959 208 223.319 208.48 222.68C209.12 221.72 209.92 221.401 210.88 221.081C213.28 220.281 213.92 219.482 213.76 216.924C213.76 215.325 213.44 213.726 214.24 212.127C214.56 211.487 214.56 210.368 213.44 210.528C212.32 210.688 212.48 210.048 212.32 209.568C209.44 199.015 206.24 188.622 202.88 178.389C202.88 178.229 202.88 177.909 202.88 177.589C203.52 177.589 204.16 177.909 204.64 178.069C205.76 178.229 206.72 178.069 207.2 176.95C207.68 175.831 206.72 175.191 205.92 174.711C205.12 174.232 204.32 173.912 203.52 173.592C201.92 172.793 200.32 172.153 199.52 170.074C199.04 168.795 197.6 168.316 196.32 168.475C194.56 168.635 193.12 168.475 191.84 167.356C191.52 167.036 191.04 166.877 190.56 167.356C190.24 167.676 190.24 168.156 190.56 168.635C191.36 169.595 190.56 169.595 189.92 169.755C186.08 170.874 186.08 170.874 185.76 167.036C183.84 144.811 179.36 123.225 172.48 102.119C171.52 99.0811 170.08 96.0431 168.96 92.6853C175.52 94.764 182.24 96.0431 188.8 97.4822C189.76 97.6421 189.76 98.4416 189.92 99.0811C192.48 104.997 193.6 111.553 195.36 117.789C199.68 133.299 205.28 148.169 210.88 163.359C217.92 182.546 224.8 201.574 231.52 220.921C240 245.065 248.64 269.209 257.28 293.353C257.76 294.792 258.24 296.072 258.72 297.67C255.2 297.191 252 296.551 248.8 296.231C242.88 295.432 236.8 294.952 230.88 294.473C224.32 293.993 217.6 293.513 211.04 293.353C192.32 293.033 174.4 297.031 156.96 303.267C146.88 306.784 136.8 310.462 127.2 315.259C124.48 316.538 121.28 316.378 118.4 316.698C112.32 317.337 106.08 317.497 100.16 316.058C95.3599 314.939 92 313.18 91.2 307.104C89.92 296.231 85.7599 286.158 81.7599 275.925C78.3999 267.45 75.0399 259.136 71.5199 250.821C62.3999 228.756 54.3999 206.371 46.5599 183.825C40.3199 165.597 32.16 147.849 26.08 129.621C24 123.545 22.0799 117.469 20.3199 111.233C19.8399 109.314 20.32 108.675 22.08 108.195C28.96 106.276 35.8399 104.198 42.5599 102.279C58.7199 97.4822 75.0399 93.165 91.5199 89.9671C94.2399 89.4874 96.7999 88.688 99.5199 88.0484C101.44 89.1677 103.68 89.6473 105.44 91.0864C111.68 96.203 117.6 101.639 122.72 108.035C125.44 111.393 127.68 114.911 128.8 119.228C124 117.469 119.2 115.71 114.08 114.911C110.4 114.271 107.04 114.911 104.16 116.989C98.2399 121.147 93.12 126.103 88 131.38C82.08 137.456 76.64 144.171 71.84 151.207C70.72 152.806 70.0799 154.565 69.7599 156.483C69.2799 159.361 70.56 161.76 73.28 163.039C74.88 163.839 76.4799 164.318 78.0799 164.638C80.3199 165.118 81.28 166.557 81.6 168.795C82.08 174.551 83.36 180.148 86.4 185.105C89.12 189.582 91.1999 190.541 96.3199 189.901C104.32 188.942 112 186.703 120 185.264C126.4 184.145 132.8 183.346 139.2 181.427C139.84 186.224 141.28 191.021 141.6 195.817C141.6 196.617 142.24 196.937 142.88 196.457C143.36 196.137 144 195.817 144.48 195.498C148.96 191.82 152.8 187.663 156.48 183.346L155.68 183.186ZM93.28 245.865C92.96 245.865 92.7999 245.865 92.4799 245.865C91.84 245.865 90.72 245.385 90.4 246.344C90.08 247.463 91.36 247.623 92 247.783C94.24 248.263 95.3599 249.702 96.1599 251.781C97.4399 254.819 98.5599 255.138 101.76 254.019C103.2 253.539 104.64 252.74 106.4 253.539C107.04 253.859 108.16 253.539 108.16 252.58C108.16 251.301 109.12 251.461 109.92 251.141C120.64 247.783 131.52 244.585 142.24 241.228C143.2 240.908 144.16 240.268 145.28 241.228C145.92 241.707 146.72 241.228 147.04 240.588C148 238.989 149.44 238.03 150.88 236.91C152 236.111 152.96 234.992 152.32 233.713C151.36 231.794 152.16 230.035 152.48 228.116C152.64 227.317 153.28 226.357 152.16 225.878C151.2 225.558 151.04 226.677 150.56 227.157C150.56 227.157 150.4 227.157 150.24 227.157C148.32 220.921 146.56 214.685 144.64 208.449C144.96 208.449 145.12 208.449 145.12 208.449C146.72 208.449 148.16 208.129 148.16 206.371C148.16 204.612 146.56 205.251 145.6 204.931C144.32 204.612 143.2 204.452 142.72 202.693C142.08 200.614 140.32 199.335 138.72 200.135C136.8 201.094 135.52 200.454 133.92 199.655C133.12 199.175 132.16 198.696 131.36 198.376C130.88 198.216 130.56 198.056 130.24 198.376C129.92 198.855 130.24 199.175 130.4 199.655C131.2 200.614 132 201.414 132.96 202.213C120.64 207.969 106.88 209.568 93.9199 214.845C94.3999 213.886 94.7199 213.566 94.88 213.086C95.2 212.447 96 211.807 95.2 211.007C94.4 210.368 93.92 211.327 93.28 211.807C91.2 213.726 89.92 216.284 87.2 217.563C86.72 217.883 86.24 218.363 86.24 219.002C86.24 220.281 85.44 221.081 84.8 222.04C84.16 223 83.36 223.959 82.88 224.918C82.3999 225.718 82.4 226.517 83.2 227.157C84 227.796 84.8 227.477 85.44 226.837C86.08 226.357 86.3999 225.398 87.3599 225.078C89.2799 231.954 91.04 238.829 93.44 245.385C93.44 245.385 93.2799 245.545 93.1199 245.705L93.28 245.865ZM189.76 277.524C196.8 275.925 203.84 274.326 210.88 272.727C211.52 272.727 212 272.407 212.32 273.526C212.64 274.965 214.08 275.445 215.2 274.326C215.84 273.846 216.32 273.047 216.64 272.407C217.12 271.767 217.44 271.288 218.4 271.128C220.8 270.648 221.6 269.529 221.12 267.131C220.8 265.212 221.12 263.453 222.08 261.854C222.4 261.214 223.2 260.575 222.4 259.775C221.44 258.816 220.96 260.095 220.16 260.255C219.2 255.298 217.92 250.342 216.64 245.385C217.92 245.385 219.04 245.385 219.36 243.946C219.68 242.507 218.56 241.867 217.6 241.547C215.52 240.908 214.88 239.309 214.4 237.39C213.6 233.872 212.8 233.393 209.28 234.352C207.36 234.832 205.44 235.631 203.52 234.192C203.2 233.872 202.88 233.872 202.56 234.192C202.24 234.512 202.24 234.832 202.56 235.311C203.52 236.431 202.56 236.431 201.76 236.751C199.68 237.39 197.76 238.03 195.68 238.669C183.36 242.027 170.72 244.425 158.4 247.783C155.68 248.583 153.12 249.222 150.24 249.862C150.4 249.222 150.56 249.062 150.72 248.903C150.88 247.783 152.48 246.664 151.2 245.705C150.08 245.065 149.28 246.664 148.64 247.464C146.88 249.862 144.96 251.781 141.76 252.42C140 252.74 139.36 254.019 140.16 255.778C140.96 257.537 140.64 259.136 139.2 260.415C138.88 260.735 138.56 261.214 138.24 261.694C137.6 262.494 137.28 263.293 137.76 264.252C138.24 265.212 139.2 265.372 140.32 265.212C140.32 265.532 140.64 265.851 140.64 266.331C141.12 270.968 142.56 275.285 143.84 279.762C143.52 280.722 144.48 280.882 144.8 281.361C144.8 282.001 144.8 282.64 144.96 283.28C145.92 286.638 147.04 289.995 148 293.353C148.64 295.112 149.44 295.272 151.2 294.473C155.36 292.394 159.68 290.315 164 288.556C172.16 285.359 180.16 282.001 188.48 279.442C189.28 279.283 190.08 279.123 189.92 278.003L189.76 277.524Z" fill="#FDFDFD"/>
<path d="M291.36 15.4562C290.88 14.6567 290.72 13.8572 291.68 13.2177C298.24 8.90049 305.12 5.38281 312.64 3.30418C313.6 2.98439 314.24 3.1443 314.4 4.26356C315.36 10.3396 317.76 16.0958 320 21.852C329.12 45.5164 339.84 68.5413 349.76 91.726C364.16 125.464 380.64 158.082 396.8 191.021C397.12 191.66 397.76 192.3 396.48 192.939C387.52 196.937 379.2 201.574 371.04 207.01L370.72 207.01C363.04 194.059 356.16 180.947 349.12 167.676C348.64 166.717 348.64 166.077 349.6 165.437C352.32 163.519 354.88 161.44 357.6 159.521C360.64 157.283 361.44 155.044 359.84 151.527C356.32 143.532 352.48 135.537 348.96 127.542C347.36 124.025 345.76 120.507 344.16 116.989C343.36 115.071 342.24 113.312 341.12 111.713C339.2 109.155 338.08 108.835 335.04 109.954C331.84 111.233 328.8 112.832 325.92 115.071C325.12 114.111 324.96 112.832 324.48 111.873C323.04 108.195 321.44 104.358 320 100.52C319.68 99.8806 319.68 99.4009 320.48 98.7614C324.32 95.8832 328 92.8453 332.48 90.9265C335.2 89.6474 336 87.5687 335.04 84.6906C331.04 72.5386 326.08 60.8663 319.52 49.8336C316.48 44.8768 316 44.7169 310.88 47.2752C308.48 48.3945 306.08 49.8335 303.84 51.1127C302.88 51.5924 302.72 51.5924 302.4 50.4731C301.28 46.7956 299.84 43.2779 299.04 39.6003C304.48 38.1612 309.92 37.8414 315.52 38.0013C316 38.0013 316.64 37.8414 317.12 37.6816C319.04 36.8821 320.8 36.4024 322.88 36.5623C324.16 36.5623 324 36.0826 323.68 35.2831C322.88 33.5243 322.4 31.7654 321.44 30.3264C316.96 23.4509 315.36 15.6161 314.24 7.62134C314.08 6.34218 313.6 6.1823 312.48 6.66198C309.6 7.78124 306.56 8.9005 303.68 10.1797C299.68 11.9385 295.84 13.8572 291.84 15.6161L291.36 15.4562Z" fill="#FDFDFD"/>
<path d="M136.64 137.776C139.04 149.448 140.32 161.28 142.88 172.953C142.88 173.432 142.88 173.912 142.88 174.232C141.12 174.551 139.36 175.031 137.6 175.351C127.84 176.95 117.92 178.389 108.48 181.107C103.84 182.386 99.04 183.346 94.24 183.026C91.52 182.866 90.72 182.067 89.76 179.668C88.16 175.831 87.52 171.833 86.88 167.836C86.24 163.839 84.48 160.801 80.16 159.681C79.36 159.521 78.56 159.042 77.76 158.562C75.04 157.283 75.04 157.283 76.8 154.725C84 144.971 91.84 135.697 100.8 127.383C101.92 126.423 103.2 126.103 104.64 126.263C114.88 127.862 124.48 131.38 133.28 136.976C134.4 137.616 135.36 138.255 136.64 137.616L136.64 137.776Z" fill="#0ABAEE"/>
<path d="M170.56 113.632C169.6 115.71 168.16 117.469 166.88 119.388C166.56 119.867 165.92 120.507 166.56 120.987C167.36 121.626 167.84 120.667 168.16 120.187C169.28 118.748 170.24 117.309 171.2 115.87C171.2 116.35 171.52 116.829 171.68 117.309C172.96 120.987 173.44 124.984 174.72 128.662C171.52 134.098 168 139.535 165.28 145.291C164.8 146.25 164.48 147.209 164.32 148.169C164.32 148.649 164 149.288 164.64 149.448C165.28 149.608 165.6 149.128 165.92 148.808C167.68 145.93 169.44 143.212 171.2 140.334C172.64 137.936 173.92 135.537 175.36 132.979C175.68 134.418 176 135.697 176.32 137.136C175.04 139.694 173.6 142.253 172.32 144.811C171.84 145.77 170.88 147.209 172.32 147.849C173.44 148.329 173.92 146.73 174.4 145.93C175.36 144.491 176.16 142.892 176.96 141.453C178.4 151.367 179.68 161.28 180.64 171.513C178.24 169.115 175.84 167.036 173.76 164.798C171.36 162.399 168.96 159.841 166.08 157.922C163.52 156.004 161.6 156.323 159.68 158.882C158.72 160.161 157.76 161.6 156.96 163.039C155.04 166.237 152.96 169.435 150.56 172.633C150.08 165.597 148.32 159.042 147.2 152.326C146.72 148.489 146.24 144.811 144.8 141.133C143.68 139.854 144 138.255 143.84 136.976C143.04 130.74 141.92 124.504 140.64 118.428C140.48 117.629 140.64 116.989 140.96 116.35C143.04 112.512 145.12 108.355 146.56 104.198C146.72 103.558 147.2 102.759 146.56 102.279C145.76 101.799 145.28 102.759 144.96 103.238C143.2 105.797 141.6 108.515 140.16 111.233C140.16 111.553 140 112.033 139.36 112.033C138.56 110.114 138.24 108.515 139.68 106.436C142.24 103.079 144.16 99.0811 145.92 95.2437C146.08 94.764 146.72 94.1244 145.92 93.6447C145.12 93.165 144.8 93.9645 144.32 94.2843C141.76 97.3223 139.84 100.84 137.92 104.198C137.76 104.518 137.6 104.837 137.28 105.317C136.16 102.119 135.04 99.4009 133.6 96.5228C130.4 89.9671 124.96 86.6094 118.4 84.2109C117.28 83.7312 116 83.5713 114.72 83.0917C118.24 82.2922 121.76 81.9724 125.28 81.6526C131.04 81.1729 136.64 79.7339 142.4 80.2136C150.24 80.8531 156.48 84.051 160.8 90.7666C163.52 95.0838 165.6 99.5608 167.68 104.358C165.44 108.195 162.72 111.713 160.96 115.87C160.96 116.19 160.64 116.51 160.64 116.829C160.48 117.309 160.32 117.789 160.64 118.109C161.28 118.428 161.6 117.789 161.76 117.469C163.36 114.911 164.96 112.352 166.56 109.794C167.2 108.835 167.84 108.035 168.32 107.076C169.12 108.995 169.92 110.913 170.4 112.832L170.56 113.632Z" fill="#174074"/>
<path d="M108 322.934C102.24 324.853 96.48 325.012 90.72 324.213C89.6 324.213 88.4799 323.893 87.3599 323.893C85.1199 323.893 83.84 322.934 83.2 320.855C80.16 310.782 77.44 300.708 74.24 290.635C70.56 278.963 66.56 267.61 61.92 256.258C51.2 230.355 39.36 204.772 27.52 179.348C20 163.199 12.8 146.89 5.43998 130.74C4.63998 128.981 3.99996 127.383 3.51996 125.624C3.19996 124.345 3.51996 123.385 4.31996 122.586C5.43996 121.466 6.71995 120.347 8.15995 119.388C8.63995 119.068 9.11997 118.588 9.27997 119.708C11.04 131.38 16.16 141.773 20.48 152.486C26.4 167.036 32.48 181.587 39.2 195.817C43.84 205.411 48.64 214.685 52.8 224.439C62.08 246.504 71.68 268.57 78.4 291.594C80.8 299.589 83.68 307.424 84.96 315.739C85.12 317.178 86.2399 317.817 87.3599 318.617C91.1999 321.175 95.68 321.974 100.32 322.614C102.88 322.934 105.44 322.934 108 323.094L108 322.934Z" fill="#CDC7C7"/>
<path d="M117.92 318.936C109.92 320.375 102.24 320.535 94.4 318.617C93.76 318.457 93.1199 318.297 92.3199 317.977C89.1199 316.858 87.36 315.099 86.4 311.421C81.44 291.115 74.2399 271.608 66.7199 252.26C56.4799 226.357 44.3199 201.254 33.2799 175.671C26.8799 160.641 20.3199 145.451 14.7199 130.101C13.4399 126.583 12.3199 122.905 11.8399 119.068C11.6799 117.469 11.8399 116.35 13.2799 115.39C14.3999 114.591 15.3599 113.632 16.3199 112.672C16.9599 113.632 17.1199 114.751 17.4399 115.71C21.9199 130.9 27.52 145.77 33.6 160.481C41.12 178.709 47.5199 197.576 54.2399 216.124C58.2399 227.157 62.5599 237.87 67.0399 248.583C74.7199 266.651 82.2399 284.879 87.3599 303.906C87.9999 306.625 88.6399 309.183 89.2799 311.901C89.5999 313.5 90.56 314.619 92 315.259C96.96 317.817 102.24 318.777 107.68 318.936C111.04 318.936 114.4 318.936 117.76 318.936H117.92Z" fill="#CDC7C7"/>
<path d="M291.36 15.4562C295.36 13.6974 299.2 11.7786 303.2 10.0198C306.08 8.7406 309.12 7.62134 312 6.50208C313.12 6.02239 313.6 6.1823 313.76 7.46146C314.88 15.4562 316.48 23.1311 320.96 30.1665C321.92 31.7655 322.56 33.5243 323.2 35.1232C323.52 35.9227 323.68 36.5623 322.4 36.4024C320.32 36.2425 318.56 36.7222 316.64 37.5217C316.16 37.6815 315.52 38.0014 315.04 37.8415C309.44 37.6816 304 38.0014 298.56 39.4404C295.52 31.6056 293.12 23.6108 291.2 15.2963L291.36 15.4562Z" fill="#CDC7C7"/>
<path d="M295.68 41.9987C292.8 43.2779 291.2 42.4784 289.76 38.9607C286.72 32.0852 285.28 24.7301 283.04 17.5348C281.92 13.8572 282.08 13.8572 278.72 15.9359C269.76 21.5322 261.12 27.2884 252.32 33.2045C247.84 36.2425 244 39.9201 239.84 43.2779C235.68 46.7956 231.68 50.3133 227.52 53.8309C224.8 56.0695 222.56 58.9476 220.16 61.6658C218.08 63.9043 216 66.1428 213.92 68.3813C208.96 73.6579 204.8 79.574 200.48 85.1703C198.24 88.0484 196.16 90.9265 194.08 93.9645C193.76 94.4442 193.6 94.764 192.96 94.9239C192.8 93.3249 192.96 92.0458 193.76 90.6067C209.92 63.7444 231.84 42.6383 257.12 24.5702C265.6 18.4942 273.92 12.4182 282.72 6.82186C284.8 5.54271 284.8 5.54272 285.44 7.78124C285.6 8.42082 285.76 9.06041 285.92 9.85988C285.44 10.4995 285.44 10.8192 286.24 10.9791C286.24 11.2989 286.24 11.4588 286.4 11.7786C285.92 11.9385 285.92 12.2583 286.08 12.738C287.84 20.4129 289.92 28.0879 292.48 35.6029C292.64 36.0826 292.8 36.8821 293.6 36.4024C294.4 38.3211 294.88 40.2399 295.36 42.1586L295.68 41.9987Z" fill="#E6DEDB"/>
<path d="M136.64 137.776C135.36 138.415 134.24 137.776 133.28 137.136C124.48 131.7 115.04 128.022 104.64 126.423C103.2 126.263 101.92 126.423 100.8 127.542C91.84 135.857 83.9999 145.131 76.7999 154.884C75.0399 157.283 75.0399 157.443 77.7599 158.722C78.5599 159.042 79.3599 159.521 80.1599 159.841C84.3199 160.96 86.0799 163.998 86.8799 167.996C87.5199 171.993 88.1599 175.991 89.7599 179.828C90.7199 182.226 91.6799 182.866 94.2399 183.186C99.1999 183.506 103.84 182.706 108.48 181.267C118.08 178.549 127.84 177.11 137.6 175.511C139.36 175.191 141.12 174.871 142.88 174.392C143.68 177.27 143.68 177.43 140.96 178.069C132.16 180.148 123.36 181.427 114.4 183.186C108.32 184.465 102.24 186.064 95.9999 186.863C95.0399 186.863 94.0799 186.863 93.1199 187.183C91.0399 187.503 89.5999 186.384 88.6399 184.625C85.5999 179.828 84.1599 174.551 83.6799 168.955C83.1999 164.318 81.92 162.879 77.6 161.44C76.96 161.28 76.3199 161.12 75.8399 160.96C72.1599 159.681 71.3599 158.242 73.1199 154.565C75.0399 150.727 77.9199 147.369 80.6399 144.012C86.2399 136.816 92.6399 130.58 99.3599 124.664C101.6 122.586 104.64 122.746 107.36 123.385C115.2 125.464 123.04 127.702 130.24 131.86C131.2 132.339 132.16 132.979 133.12 133.299C135.52 133.938 136.64 135.537 136.64 137.936L136.64 137.776Z" fill="#FDFDFD"/>
<path d="M202.4 190.221H202.08C197.76 187.183 193.76 188.302 190.08 191.5C189.12 192.3 188.48 192.3 187.52 191.66C184.48 189.901 181.28 188.782 177.92 187.983C175.68 187.503 174.72 187.983 174.08 190.221C173.92 190.861 173.76 191.5 173.6 192.14C173.12 193.419 172.64 194.378 171.04 193.259C169.76 192.3 168.64 192.779 167.68 194.059C166.72 195.338 166.4 196.937 165.6 198.376C164 193.899 163.36 189.262 161.44 184.785C161.12 184.145 161.28 183.346 161.12 182.546C161.12 181.907 161.6 181.587 162.08 181.427C165.12 180.148 168.32 178.869 171.36 177.589C172.48 177.11 172.96 177.589 173.6 178.229C175.2 180.308 176.64 182.386 178.4 184.145C180.32 186.064 181.6 185.744 182.72 183.346C182.88 183.506 183.04 183.825 183.2 183.985C183.84 184.625 184.16 186.064 185.44 185.744C186.88 185.264 186.56 183.825 186.56 182.866C186.56 180.468 186.4 178.069 186.08 175.671C186.08 174.711 186.08 174.072 187.36 174.072C188 174.072 188.8 174.072 189.44 173.592C192.64 171.833 194.88 173.592 197.28 175.511C197.6 175.831 197.92 176.15 198.08 176.63C199.68 181.267 201.28 185.904 202.56 190.541C202.56 190.541 202.56 190.541 202.56 190.701L202.4 190.221Z" fill="#0ABAEE"/>
<path d="M206.88 203.972C207.733 206.424 207.093 208.396 204.96 209.888C202.56 211.487 200.48 213.566 198.56 215.804C198.08 216.444 197.28 217.083 197.44 218.203C197.28 218.363 197.12 218.523 196.96 218.842C192.96 218.043 188.96 217.563 184.8 217.403C180.64 217.403 176.64 218.043 172.8 219.322C172.48 218.203 172.16 217.083 171.84 216.124C171.52 215.485 171.68 214.845 172.16 214.365C175.04 211.647 178.08 208.929 181.76 207.17C182.56 206.85 183.2 206.69 184.16 206.85C186.4 207.49 188.64 207.17 190.4 205.891C192.64 204.132 195.2 203.333 197.92 202.853C199.04 202.853 200.16 202.373 201.28 202.053C202.08 202.053 202.56 202.533 203.36 202.373C204.48 203.013 205.44 203.812 206.88 203.972Z" fill="#74B62A"/>
<path d="M144.8 141.133C146.24 144.651 146.72 148.489 147.2 152.326C148.16 159.042 149.92 165.597 150.56 172.633C152.96 169.435 155.2 166.397 156.96 163.039C157.76 161.6 158.72 160.161 159.68 158.882C161.44 156.323 163.52 156.004 166.08 157.922C168.96 160.001 171.36 162.399 173.76 164.798C176 167.036 178.24 169.115 180.64 171.513C179.68 161.28 178.4 151.367 176.96 141.453C176.96 140.654 177.44 140.014 178.08 138.895C180.96 152.806 182.56 166.717 184.32 180.468C183.68 180.468 183.52 179.828 183.2 179.508C178.88 173.112 173.44 167.516 167.84 162.08C164.48 159.042 163.2 159.042 160.48 162.719C159.04 164.638 157.76 166.717 156.64 168.795C154.24 173.112 151.84 177.43 149.12 182.226C148.96 179.188 148.8 176.63 148.64 173.912C147.52 163.519 146.08 153.126 144.48 142.892C144.48 142.093 144.96 141.773 144.8 140.974V141.133Z" fill="#F4F5F6"/>
<path d="M128 118.908C127.04 114.591 124.64 111.073 121.92 107.715C116.8 101.32 111.04 95.8832 104.64 90.7666C102.88 89.3275 100.64 88.8479 98.72 87.7286C100.32 86.7693 101.92 86.6094 103.84 87.2489C106.88 88.2083 109.92 88.8479 112.96 89.9671C118.88 92.2057 123.2 96.0431 126.08 101.48C129.44 107.556 131.2 114.271 133.12 121.466C131.2 120.507 129.6 119.708 128 118.908Z" fill="#CDC7C7"/>
<path d="M155.68 183.186C152 187.663 148 191.66 143.68 195.338C143.2 195.658 142.56 195.977 142.08 196.297C141.28 196.777 140.8 196.297 140.8 195.658C140.48 190.701 139.04 186.064 138.4 181.267C139.84 180.787 141.44 180.308 142.88 179.668C144.48 178.709 144.8 179.668 144.96 180.947C145.28 183.026 145.6 184.945 146.72 186.703C147.68 188.462 148.96 188.622 150.08 187.023C151.52 184.945 152.8 182.706 153.92 180.468C156.32 175.671 159.2 171.194 163.04 167.356C164.16 166.397 164.64 166.077 165.6 167.356C167.2 169.435 168.96 171.513 170.72 173.592C171.04 173.912 171.84 174.392 170.72 174.871C168.16 175.671 165.76 176.63 163.04 177.589C163.04 176.63 163.36 175.831 163.36 175.191C163.36 174.711 163.36 174.232 162.88 174.072C162.4 173.912 162.08 174.232 161.76 174.711C161.6 175.031 161.44 175.351 161.28 175.671C160.48 177.909 159.36 179.668 156.64 180.148C154.72 180.468 154.72 181.587 156 183.506L155.68 183.186Z" fill="#CDC7C7"/>
<path d="M167.84 105.157C165.92 100.52 163.84 95.8832 160.96 91.5661C156.64 84.8505 150.24 81.6526 142.56 81.013C136.8 80.5333 131.2 81.9724 125.44 82.4521C121.92 82.7719 118.4 83.0916 114.88 83.8911C112.8 83.8911 110.88 83.5714 108.48 83.4115C111.04 82.1323 113.6 81.4927 116 81.1729C126.4 79.7339 136.8 78.9344 147.36 78.6146C154.08 78.4547 158.56 81.9724 161.92 87.2489C164.96 92.2057 166.88 97.6421 168.8 102.919C169.12 103.878 168.8 104.518 168 104.997L167.84 105.157Z" fill="#F4F5F6"/>
<path d="M172 196.297C172.8 196.297 173.28 197.097 173.92 197.576C175.36 198.536 176.16 198.216 176.48 196.457C176.48 195.178 176.48 194.059 178.4 194.219C179.2 194.219 179.68 193.579 180 192.779C180.48 191.66 181.28 191.34 182.4 191.82C183.84 192.46 186.24 192.779 186.72 193.899C187.2 195.018 184.96 196.137 184.16 197.416C182.56 199.815 180.16 201.574 179.36 204.452C179.36 204.612 178.88 204.772 178.56 204.931C175.52 206.371 172.8 208.289 170.24 210.368C169.12 208.289 169.44 206.37 171.04 204.612C172 203.492 172 202.213 171.52 200.774C171.2 199.815 170.88 199.015 170.56 198.056C170.24 196.937 170.56 196.137 171.84 196.137L172 196.297Z" fill="#A8A8A7"/>
<path d="M173.6 221.241C178.24 219.482 183.04 218.842 188 219.482C191.04 219.802 194.08 219.802 196.96 220.761C197.28 220.761 197.76 220.761 197.92 221.401C191.2 223.479 184.64 225.558 177.92 227.637C176.96 227.956 176 227.956 175.2 227.317C175.2 225.238 173.92 223.319 173.6 221.241Z" fill="#4C742D"/>
<path d="M206.88 203.972C205.6 203.972 204.48 203.013 203.36 202.373C203.68 200.774 202.24 200.934 201.44 200.614C197.44 199.175 193.44 199.815 189.76 201.574C187.68 202.533 185.44 203.013 183.2 203.173C183.2 202.373 183.84 201.893 184.32 201.254C185.28 199.655 187.04 198.536 187.52 196.617C188.32 195.817 189.28 195.817 190.08 196.137C192.32 197.097 194.24 196.617 196 195.018C197.28 193.899 198.88 193.419 200.64 193.899C201.6 194.059 202.56 194.219 202.24 192.779C202.24 192.46 202.24 192.3 202.56 192.3C202.88 192.3 203.2 192.3 203.36 192.62C203.68 193.259 203.84 194.059 204 194.858C204.96 197.896 205.76 201.094 206.72 204.132L206.88 203.972Z" fill="#A8A8A7"/>
<path d="M104.96 119.867C108.16 117.469 111.52 117.789 114.88 118.588C120.48 119.867 125.76 121.946 130.88 124.345C134.24 125.943 134.88 128.342 135.2 131.86C125.6 125.943 115.68 121.946 104.8 119.708L104.96 119.867Z" fill="#0ABAEE"/>
<path d="M201.28 202.053C200.16 202.373 199.04 202.693 197.92 202.853C195.2 203.173 192.64 204.132 190.4 205.891C188.64 207.33 186.4 207.49 184.16 206.85C183.2 206.69 182.56 206.85 181.76 207.17C178.08 208.929 175.04 211.647 172.16 214.365C171.68 214.845 171.52 215.325 171.84 216.124C172.16 217.243 172.48 218.363 172.8 219.322C169.92 220.921 170.08 220.761 168.96 217.883C168 215.485 168.64 214.045 170.56 212.447C173.6 210.048 176.64 207.49 180.32 206.211C185.76 204.452 191.04 202.213 196.8 201.414C198.24 201.254 199.68 201.414 201.12 202.053L201.28 202.053Z" fill="#F4F5F6"/>
<path d="M172 196.297C170.72 196.297 170.4 197.097 170.72 198.216C171.04 199.175 171.36 199.975 171.68 200.934C172 202.213 172.16 203.652 171.2 204.772C169.6 206.53 169.28 208.449 170.4 210.528C169.76 211.327 168.96 212.127 168.16 213.086C167.2 210.048 166.4 207.17 165.44 204.292C165.44 204.132 165.44 203.652 165.44 203.652C167.04 202.533 166.72 200.614 167.36 199.015C168 197.416 169.28 196.777 170.56 196.137C171.04 195.817 171.68 195.977 172.16 196.457L172 196.297Z" fill="#F4F5F6"/>
<path d="M196.96 218.682C197.12 218.523 197.28 218.363 197.44 218.043C198.4 218.842 199.04 218.043 199.68 217.563C202.4 214.845 205.12 211.967 208.32 209.728C210.08 213.246 209.6 216.764 206.4 218.842C204.8 219.962 202.4 220.441 200.48 220.441C199.68 220.441 198.24 219.162 196.96 218.682Z" fill="#4C742D"/>
<path d="M161.28 182.386C161.28 183.186 161.28 183.985 161.6 184.625C163.36 189.102 164 193.739 165.76 198.216C165.44 199.495 165.12 200.614 164.8 202.373C162.88 197.097 161.12 192.3 159.68 187.343C159.2 185.584 160.64 183.985 161.44 182.226L161.28 182.386Z" fill="#F4F5F6"/>
<path d="M293.76 36.0826C292.96 36.5623 292.8 35.7628 292.64 35.2831C290.08 27.7681 288 20.253 286.24 12.4182C286.24 11.9385 286.24 11.6187 286.56 11.4588C288.32 17.3749 290.08 23.291 291.84 29.367C292.48 31.6056 293.6 33.6842 293.76 36.0826Z" fill="#F4F5F6"/>
<path d="M201.12 191.98C198.24 191.5 196.16 192.3 194.4 193.899C194.08 194.059 193.76 194.378 193.44 194.538C192.32 194.858 190.88 195.018 190.4 194.218C189.92 193.419 191.36 192.939 192 192.46C194.72 190.381 197.6 189.262 201.12 192.14L201.12 191.98Z" fill="#F4F5F6"/>
<path d="M174.88 128.662C173.44 124.984 173.12 120.987 171.84 117.309C171.68 116.829 171.52 116.35 171.36 115.87C171.36 115.39 171.68 115.071 172.32 114.751C173.44 118.908 174.56 123.065 175.68 127.223C175.84 127.862 175.52 128.342 175.04 128.662H174.88Z" fill="#E6DEDB"/>
<path d="M173.6 221.241C173.92 223.319 175.04 225.238 175.2 227.317C173.6 226.517 171.84 226.357 171.2 224.119C170.72 222.68 170.88 221.88 172.32 221.561C172.8 221.561 173.12 221.401 173.6 221.241Z" fill="#F4F5F6"/>
<path d="M179.68 190.221C178.56 191.5 178.08 192.779 176.16 192.939C174.88 192.939 174.88 194.698 174.72 195.977C174.08 195.658 173.28 195.658 174.08 194.698C174.72 193.739 175.04 192.62 175.36 191.5C176 189.262 176.16 189.102 178.56 189.741C178.88 189.741 179.2 189.901 179.84 190.221L179.68 190.221Z" fill="#F4F5F6"/>
<path d="M170.56 113.632C170.08 111.553 169.28 109.634 168.48 107.875C168.48 107.236 168.8 106.756 169.6 106.117C170.24 108.195 170.72 110.114 171.36 112.033C171.52 112.832 171.36 113.472 170.56 113.791V113.632Z" fill="#E6DEDB"/>
<path d="M187.52 196.617C187.04 198.536 185.28 199.655 184.32 201.254C183.84 201.893 183.36 202.373 183.2 203.173C182.56 203.333 182.08 203.812 181.12 203.652C183.36 201.254 184.8 198.376 187.52 196.777L187.52 196.617Z" fill="#E6DEDB"/>
<path d="M176.32 137.296C176 135.857 175.68 134.578 175.36 133.139C175.36 132.499 175.68 132.019 176.48 131.06C176.48 133.458 178.4 135.377 176.32 137.296Z" fill="#E6DEDB"/>
<path d="M286.4 10.8192C285.6 10.6593 285.44 10.3395 286.08 9.69996C286.08 10.0198 286.24 10.4994 286.4 10.8192Z" fill="#F4F5F6"/>
<path d="M202.56 190.061C202.72 190.061 202.72 190.381 202.56 190.541C202.56 190.541 202.56 190.381 202.4 190.221C202.4 190.221 202.4 190.221 202.4 190.061L202.56 190.061Z" fill="#0ABAEE"/>
<path d="M210.4 79.8938C219.04 73.498 227.52 67.422 236.64 61.6658C236.32 61.346 236.16 61.0262 235.84 60.7064C235.52 60.3866 235.36 59.9069 235.52 59.4272C235.84 58.7877 236.48 59.1075 236.8 59.4272C238.24 60.5465 239.52 60.0668 240.8 59.4272C244.16 57.9882 245.28 58.4679 246.72 61.8257C246.72 61.9856 246.72 62.4652 247.04 62.4652C250.24 64.2241 250.72 67.7418 251.84 70.7798C254.88 78.6146 257.92 86.6093 259.52 94.9239C260 97.0025 259.52 98.7613 257.76 100.04C252.48 103.558 247.52 107.396 242.24 110.913C236.64 114.751 231.68 119.388 226.88 124.025C226.24 124.664 225.92 124.984 226.88 125.464C227.36 125.784 227.68 126.263 227.36 126.903C227.04 127.542 226.56 128.022 225.92 127.862C223.84 127.542 222.24 127.862 220.48 129.141C219.04 130.101 217.76 128.981 216.96 127.702C215.84 126.263 215.2 124.185 212.96 123.705C212.32 123.705 212.32 122.746 212.96 122.586C214.24 122.106 213.6 121.466 213.28 120.667C210.4 114.111 207.68 107.556 205.44 100.84C205.28 100.04 204.96 99.5608 204 99.5608C202.56 99.5608 202.08 98.4416 202.56 97.3223C203.52 95.2437 203.52 93.165 203.2 91.0864C202.72 88.0484 203.68 85.4901 206.24 83.7312C207.68 82.612 207.84 81.013 208.32 79.574C208.64 78.9344 208.32 77.6552 209.44 77.6552C210.56 77.6552 210.08 78.9344 210.4 79.8938ZM250.08 102.119C252.32 100.84 254.56 99.5608 256.8 98.2816C257.92 97.6421 258.08 93.4848 257.12 92.8452C256.96 92.8452 256.64 92.8452 256.48 92.8452C254.4 93.4848 252.16 93.3249 250.24 94.2843C248.48 94.2843 246.88 94.6041 245.28 94.9239C244.32 95.5635 243.36 94.1244 242.56 94.764C238.72 97.1624 234.24 98.7613 231.2 102.279C230.08 103.558 228.64 104.198 227.04 104.358C223.68 104.837 220.8 106.116 218.4 108.675C217.28 109.954 216.8 112.033 214.56 112.193C214.56 112.193 214.24 112.672 214.08 112.992C213.28 114.431 214.24 115.55 214.88 116.67C216.32 120.187 216.96 124.185 221.92 124.344C222.88 124.344 223.52 124.345 224.16 123.705C231.68 115.39 240.8 108.995 250.08 102.759C250.08 102.759 250.24 102.599 250.4 102.439L250.08 102.119ZM243.68 75.5766C243.2 75.4167 242.72 75.5766 242.24 75.8964C233.6 79.574 229.44 87.4088 225.12 94.9239C224.8 95.4036 225.12 96.3629 224.16 96.203C223.36 96.203 223.2 95.2437 223.04 94.6041C223.04 93.8046 223.2 93.3249 223.52 92.6853C224 91.5661 224.96 90.7666 225.12 89.4874C226.24 88.3682 226.88 86.9291 227.84 85.4901C230.4 81.3328 233.92 77.975 238.24 75.8964C241.6 74.1375 244.96 72.5386 248.48 71.4193C248.96 71.4193 249.44 71.0995 249.6 70.7798C250.08 69.9803 247.52 66.1428 246.4 65.9829C244.16 65.5032 241.92 65.1834 239.84 63.9043C239.04 63.2647 238.4 63.9043 237.76 64.2241C229.44 69.5006 221.28 75.0969 213.28 81.013C210.88 82.7719 208.96 84.5307 208.96 87.7286C208.96 88.688 208.64 89.8072 208.32 90.7666C206.88 94.6041 207.04 98.2817 208.8 102.119C210.24 105.157 211.2 108.355 212.32 111.393C212.64 112.033 212.64 112.033 213.12 111.393C214.08 111.553 214.24 110.753 214.56 110.274C217.28 105.957 220.8 102.919 226.08 102.119C227.2 102.119 228.16 101.48 228.8 100.68C230.72 98.4415 233.28 96.8426 235.84 95.2437C239.2 93.165 243.04 91.8859 246.56 90.127C249.12 89.1677 251.52 87.8885 254.24 87.4088C255.04 87.4088 254.88 86.9291 254.72 86.4494C253.28 82.2922 251.84 78.1349 250.4 73.9776C250.24 73.498 250.08 73.0183 249.44 73.3381C247.36 74.2974 245.12 74.6172 243.2 75.5766H243.68ZM250.24 91.0864C250.24 91.0864 250.24 91.2463 250.24 91.4062C252.16 91.0864 253.92 90.6067 255.84 90.2869C256.48 90.2869 256.48 89.8072 256.32 89.3276C256.16 88.688 255.84 89.1677 255.52 89.3276C253.76 89.9671 252.16 90.6067 250.4 91.2463L250.24 91.0864Z" fill="#070808"/>
<path d="M291.68 55.1101C291.68 56.709 290.88 57.5085 289.92 58.1481C286.88 60.7064 283.52 62.9449 280.16 64.8637C274.24 68.3813 268.8 72.2188 263.68 76.6959C263.2 77.0156 262.72 77.3354 262.72 77.975C262.72 78.4547 262.4 78.9344 261.76 78.9344C261.12 78.9344 260.8 78.6146 260.48 78.1349C260.32 77.8151 260 77.3354 259.84 76.8558C256.96 69.5006 254.4 61.9856 251.84 54.4705C251.04 51.9122 251.84 50.4731 253.44 48.8742C255.84 46.3159 258.72 44.2372 261.44 41.9987C266.88 37.8414 272.48 33.8441 278.08 29.6868C279.36 28.7274 280.32 28.8873 281.12 30.1665C282.24 32.0852 283.52 34.1639 284.32 36.2425C286.72 41.9987 288.96 47.7549 291.2 53.3512C291.36 53.8309 291.52 54.4705 291.52 54.7903L291.68 55.1101ZM262.24 75.0969C268.16 69.1808 275.2 65.1834 281.92 60.8663C284.16 59.4272 286.24 57.8283 288.32 56.3892C288.96 55.9095 289.28 55.4299 288.96 54.4705C285.92 47.4351 283.68 40.2399 280.16 33.3644C279.52 32.0852 279.2 31.9253 278.08 32.8847C269.76 39.1206 261.44 45.1966 253.12 51.2726C252.48 51.7523 252.8 51.9122 252.96 52.232C256.48 59.5871 259.04 67.422 262.24 75.2568V75.0969Z" fill="#070808"/>
<path d="M139.84 264.892C138.88 265.052 137.92 264.892 137.28 263.933C136.8 262.973 137.28 262.174 137.76 261.374C138.08 260.895 138.24 260.415 138.72 260.095C140.16 258.816 140.48 257.217 139.68 255.458C138.88 253.699 139.68 252.42 141.28 252.1C144.48 251.621 146.4 249.542 148.16 247.144C148.8 246.344 149.6 244.745 150.72 245.385C152.16 246.184 150.56 247.463 150.24 248.583C150.24 248.903 150.08 249.062 149.76 249.542C152.64 248.743 155.36 248.103 157.92 247.463C170.24 243.946 182.88 241.707 195.2 238.349C197.28 237.87 199.2 237.07 201.28 236.431C201.92 236.271 202.88 236.111 202.08 234.992C201.76 234.672 201.92 234.192 202.08 233.872C202.4 233.553 202.72 233.553 203.04 233.872C204.96 235.311 206.88 234.672 208.8 234.032C212.32 233.073 213.12 233.553 213.92 237.07C214.4 238.989 215.04 240.588 217.12 241.228C218.08 241.547 219.2 242.187 218.88 243.626C218.56 245.065 217.44 245.065 216.16 245.065C217.44 250.022 218.72 254.979 219.68 259.935C220.48 259.615 220.96 258.496 221.92 259.456C222.72 260.255 221.92 260.895 221.6 261.534C220.64 263.133 220.32 264.892 220.64 266.811C221.12 269.209 220.16 270.328 217.92 270.808C217.12 270.968 216.64 271.448 216.16 272.087C215.68 272.727 215.36 273.526 214.72 274.006C213.6 275.125 212 274.646 211.84 273.207C211.68 272.087 211.2 272.247 210.4 272.407C203.36 274.006 196.32 275.605 189.28 277.204C188.64 277.204 188 277.364 187.36 277.524C179.04 279.602 171.04 282.48 163.04 285.359C161.76 285.838 160.48 285.838 159.84 287.437C159.52 288.077 158.72 288.237 158.08 287.917C156.32 287.117 154.56 287.917 152.8 288.077C150.24 288.556 149.44 288.077 148.96 285.678C148.32 282.8 146.56 281.361 144 280.562C143.52 280.082 142.56 279.922 143.04 278.963C144 278.483 144.96 278.963 145.76 278.963C146.56 279.123 146.88 278.963 146.56 278.163C144.96 272.887 143.36 267.77 141.44 262.653C140.64 263.293 140 263.933 139.36 264.412L139.84 264.892ZM162.56 266.011C162.24 266.011 161.92 266.011 161.76 266.331C159.68 266.971 158.08 268.41 156.48 269.849C154.24 271.608 152.32 273.526 150.4 275.605C149.28 276.724 149.92 279.922 151.52 281.041C153.28 281.841 155.2 282.64 156.8 283.6C158.08 284.399 159.2 284.399 160.64 283.919C168.64 281.201 176.48 278.003 184.64 275.925C187.52 275.285 189.6 274.006 191.36 271.767C195.36 267.13 200.16 264.092 206.72 264.412C207.52 264.412 208.32 264.092 208.8 263.613C211.2 261.694 213.92 260.575 217.12 260.895C217.76 260.895 217.92 260.735 217.6 260.095C216.96 254.819 215.2 249.862 214.08 244.745C214.08 244.266 213.6 243.946 213.12 243.626C211.52 242.667 209.92 241.707 208.32 240.588C206.72 238.509 204.96 238.19 202.56 239.309C200.48 240.268 198.24 240.748 196 241.387C181.12 245.225 166.08 248.423 151.2 252.42C149.12 253.06 147.68 253.859 147.04 255.938C146.56 256.737 146.08 257.537 145.76 258.176C144.16 259.615 144 261.214 144.96 262.973C145.76 264.732 146.4 266.491 147.04 268.25C147.68 270.169 148.48 272.247 149.12 274.486C149.6 273.846 149.76 273.526 150.08 273.207C152.8 270.488 155.36 267.61 158.56 265.532C161.92 263.293 165.44 261.694 169.76 262.334C170.88 262.494 171.68 262.014 172.48 261.214C174.24 259.615 176.32 258.336 178.56 257.857C180.8 257.537 181.76 256.418 182.56 254.499C184.64 249.382 188.8 248.423 193.12 251.941C194.24 252.9 195.52 253.539 196.96 253.859C199.36 254.499 201.6 255.298 203.2 257.217C203.68 257.857 204.32 257.697 204.96 257.377C206.88 256.737 208.8 256.098 210.72 256.418C212.96 256.737 215.52 256.737 216.8 259.296C216.32 259.935 216 260.255 215.04 259.775C213.28 258.816 211.36 257.857 209.12 258.656C207.52 258.816 205.76 259.136 204.32 259.615C203.36 259.935 202.72 259.615 202.24 258.976C201.12 257.377 199.68 256.418 197.76 256.098C195.36 255.618 193.28 254.819 191.36 253.06C188.8 250.821 186.4 251.461 184.8 254.499C184.32 255.298 184 256.098 183.84 256.897C183.36 258.176 182.56 258.976 181.12 259.296C178.4 259.775 175.84 260.735 173.76 262.813C172.64 263.933 171.2 264.412 169.6 264.252C167.52 264.093 165.6 264.252 163.68 265.372C163.2 265.372 162.88 265.372 162.72 265.851L162.56 266.011ZM217.12 263.453C215.52 263.293 213.92 263.453 212.8 264.252C209.92 266.491 206.72 267.131 203.2 267.131C202.88 267.131 202.72 267.131 202.4 267.131C198.08 268.09 194.88 270.648 191.68 273.846C192.48 274.166 192.8 273.846 193.28 273.846C197.92 272.727 202.56 271.448 207.2 270.648C211.68 270.009 215.36 268.57 216.96 263.933C216.96 263.933 216.96 263.773 216.96 263.453H217.12ZM212 238.829C211.787 237.337 211.04 236.857 209.76 237.39C210.24 238.03 211.04 238.349 212 238.829Z" fill="#070808"/>
<path d="M93.6 245.545C91.2 238.989 89.4399 232.114 87.52 225.238C86.56 225.558 86.24 226.517 85.6 226.997C84.96 227.637 84.1599 227.796 83.3599 227.317C82.5599 226.677 82.56 225.878 83.04 225.078C83.68 224.119 84.3199 223.159 84.9599 222.2C85.5999 221.241 86.4 220.441 86.4 219.162C86.4 218.523 86.7199 218.043 87.3599 217.723C89.9199 216.444 91.36 213.886 93.44 211.967C93.92 211.487 94.3999 210.528 95.3599 211.167C96.1599 211.807 95.36 212.606 95.04 213.246C94.88 213.726 94.56 214.205 94.08 215.005C107.04 209.728 120.64 208.129 133.12 202.373C132.32 201.574 131.36 200.614 130.56 199.815C130.24 199.495 130.08 199.015 130.4 198.536C130.72 198.056 131.2 198.216 131.52 198.536C132.32 199.015 133.28 199.335 134.08 199.815C135.68 200.774 136.96 201.254 138.88 200.295C140.48 199.495 142.24 200.774 142.88 202.853C143.36 204.612 144.48 204.772 145.76 205.091C146.72 205.251 148.48 204.612 148.32 206.53C148.32 208.289 146.88 208.769 145.28 208.609C145.28 208.609 144.96 208.609 144.8 208.609C146.72 214.845 148.48 221.081 150.4 227.317H150.72C151.2 226.837 151.36 225.558 152.32 226.038C153.44 226.517 152.8 227.477 152.64 228.276C152.32 230.035 151.52 231.794 152.48 233.872C153.12 235.152 152 236.271 151.04 237.07C149.6 238.19 148 238.989 147.2 240.748C146.88 241.387 145.92 241.867 145.44 241.387C144.32 240.588 143.36 241.228 142.4 241.387C131.68 244.745 120.8 247.943 110.08 251.301C109.28 251.461 108.48 251.461 108.32 252.74C108.32 253.699 107.2 254.019 106.56 253.699C104.8 252.9 103.52 253.699 101.92 254.179C98.88 255.298 97.6 254.979 96.32 251.941C95.52 250.022 94.3999 248.423 92.1599 247.943C91.5199 247.943 90.2399 247.623 90.5599 246.504C90.8799 245.545 91.84 246.184 92.64 246.024C92.96 246.024 93.12 246.024 93.44 246.024C93.44 246.024 93.5999 246.024 93.7599 246.184C93.7599 246.184 93.7599 245.865 93.7599 245.705L93.6 245.545ZM98.72 246.824C98.88 246.824 99.1999 246.824 99.3599 246.984C100.8 247.463 102.24 247.943 103.68 248.583C104.48 248.903 105.12 248.903 105.92 248.583C112 246.664 118.08 244.905 124.16 242.986C130.88 240.908 137.6 239.309 144.16 236.591C147.36 235.311 148.32 233.073 147.36 229.875C145.28 223.16 143.52 216.444 141.92 209.728C141.6 208.129 140.96 207.17 139.52 206.69C137.6 204.772 135.52 204.612 132.96 205.731C126.24 208.609 119.36 210.848 112.32 212.447C105.6 214.045 99.04 216.604 92.48 218.682C90.88 219.162 89.76 220.281 90.08 221.88C92.16 229.875 94.24 238.03 97.28 245.705C97.6 246.344 97.7599 246.984 98.5599 246.664L98.72 246.824Z" fill="#070808"/>
<path d="M144.48 281.041C147.04 281.841 148.8 283.28 149.44 286.158C149.92 288.716 150.88 288.876 153.28 288.556C155.04 288.237 156.64 287.437 158.56 288.397C159.2 288.716 160 288.397 160.32 287.917C160.96 286.478 162.4 286.318 163.52 285.838C171.52 282.96 179.52 280.082 187.84 278.003C188.48 278.003 189.12 277.843 189.76 277.684C189.76 278.803 188.96 278.803 188.32 279.123C180 281.681 172 285.039 163.84 288.237C159.52 289.996 155.2 292.074 151.04 294.153C149.28 294.952 148.48 294.792 147.84 293.034C146.72 289.676 145.76 286.318 144.8 282.96C144.64 282.321 144.8 281.681 144.64 281.041H144.48Z" fill="#CDC7C7"/>
<path d="M139.84 264.892C140.48 264.412 141.12 263.773 141.92 263.133C143.84 268.25 145.6 273.526 147.04 278.643C147.36 279.442 147.04 279.762 146.24 279.442C145.28 279.123 144.48 278.803 143.52 279.442C142.08 275.125 140.8 270.648 140.32 266.011C140.32 265.691 140.16 265.372 140 264.892L139.84 264.892Z" fill="#CDC7C7"/>
<path d="M213.28 111.393C212.8 111.873 212.64 112.033 212.48 111.393C211.36 108.355 210.24 105.157 208.96 102.119C207.2 98.2817 207.04 94.6041 208.48 90.7666C208.8 89.8072 209.12 88.8479 209.12 87.7286C209.12 84.5307 211.04 82.7719 213.44 81.013C221.44 75.0969 229.6 69.6605 237.92 64.2241C238.56 63.7444 239.2 63.2647 240 63.9043C241.92 65.1834 244.32 65.6631 246.56 65.9829C247.52 66.1428 250.08 69.9803 249.76 70.7798C249.6 71.0995 248.96 71.2594 248.64 71.4193C245.12 72.5386 241.76 74.2974 238.4 75.8964C234.08 78.1349 230.56 81.4927 228 85.4901C227.2 86.7692 226.56 88.3682 225.28 89.4874C224.64 89.1676 223.84 88.688 223.04 89.3276C221.76 88.5281 220.96 89.3275 220.32 90.2869C217.76 93.9645 216.64 98.2817 215.68 102.759C215.36 103.398 215.04 104.198 214.88 104.837C214.4 107.076 214.24 109.314 213.44 111.393H213.28Z" fill="#FDFDFD"/>
<path d="M245.12 94.6041C246.72 94.4442 248.48 93.9645 250.08 93.9645C250.72 95.5634 250.88 97.1624 250.72 98.7613C250.56 99.8806 249.92 100.84 250.08 102.119C250.08 102.119 249.92 102.279 249.76 102.439C240.64 108.835 231.36 115.071 223.84 123.385C223.2 124.025 222.56 124.025 221.6 124.025C216.64 123.865 216 119.708 214.56 116.35C215.04 115.71 215.52 114.911 215.84 114.271C217.92 110.114 221.12 107.236 225.92 106.276C228 105.797 230.56 105.797 232.16 104.038C235.2 100.68 239.36 99.0811 242.88 96.3629C243.68 95.8832 244.8 95.7234 244.96 94.6041H245.12Z" fill="#4C742D"/>
<path d="M213.28 111.393C214.08 109.314 214.24 106.916 214.72 104.837C214.88 104.038 215.36 103.398 215.52 102.759C216.64 103.398 216.96 102.759 217.28 101.959C218.24 99.0811 219.52 96.203 220.48 93.3249C220.96 91.726 222.4 90.9265 222.88 89.4874C223.68 89.0078 224.32 89.4874 225.12 89.6473C225.12 90.9265 224 91.726 223.52 92.8452C223.2 93.4848 222.88 94.1244 223.04 94.764C223.04 95.5635 223.36 96.203 224.16 96.3629C225.12 96.5228 224.8 95.5634 225.12 95.0838C229.44 87.4088 233.6 79.7339 242.24 76.0563C242.72 75.8964 243.2 75.5766 243.68 75.7365C244.48 75.7365 245.12 76.2162 245.76 76.3761C246.4 76.536 246.56 77.0157 246.24 77.4953C245.12 78.7745 245.12 80.5333 245.12 81.9724C245.12 84.6906 244.8 87.7286 247.04 89.9671C243.52 91.726 239.68 93.0051 236.32 95.0838C233.76 96.6827 231.2 98.2817 229.28 100.52C228.48 101.32 227.52 101.959 226.56 101.959C221.28 102.759 217.6 105.797 215.04 110.114C214.72 110.594 214.4 111.553 213.6 111.233L213.28 111.393Z" fill="#A8A8A7"/>
<path d="M247.04 89.9671C244.8 87.7286 245.12 84.6906 245.12 81.9724C245.12 80.3735 245.12 78.7745 246.24 77.4953C246.72 77.0157 246.4 76.536 245.76 76.3761C245.12 76.2162 244.48 75.7365 243.68 75.7365C245.6 74.6172 247.84 74.2974 249.92 73.498C250.56 73.1782 250.72 73.498 250.88 74.1376C252.32 78.2948 253.76 82.4521 255.2 86.6094C255.36 87.089 255.52 87.4088 254.72 87.5687C252 88.0484 249.6 89.3276 247.04 90.2869V89.9671Z" fill="#FDFDFD"/>
<path d="M245.12 94.6041C245.12 95.8833 243.84 95.8832 243.04 96.3629C239.52 99.0811 235.36 100.68 232.32 104.038C230.72 105.797 228.32 105.957 226.08 106.276C221.28 107.236 218.08 109.954 216 114.271C215.68 115.071 215.2 115.71 214.72 116.35C214.08 115.231 213.12 114.271 213.92 112.672C213.92 112.352 214.24 111.873 214.4 111.873C216.64 111.713 217.12 109.634 218.24 108.355C220.64 105.797 223.52 104.518 226.88 104.038C228.48 103.718 229.92 103.079 231.04 101.959C234.24 98.4416 238.56 96.8426 242.4 94.4442C243.36 93.8046 244.16 95.2437 245.12 94.6041Z" fill="#F4F5F6"/>
<path d="M250.08 102.119C249.76 101 250.56 99.8806 250.72 98.7613C251.04 97.1624 250.72 95.5634 250.08 93.9645C252 93.0051 254.24 93.165 256.32 92.5255C256.48 92.5255 256.8 92.5255 256.96 92.5255C258.08 93.3249 257.92 97.3223 256.64 97.9619C254.4 99.4009 252.16 100.68 249.92 101.959L250.08 102.119Z" fill="#F4F5F6"/>
<path d="M250.24 91.0864C252 90.4468 253.6 89.8072 255.36 89.1677C255.68 89.1677 256 88.688 256.16 89.1677C256.16 89.6473 256.32 89.9671 255.68 90.127C253.76 90.4468 252 90.9265 250.08 91.2463C250.08 91.2463 250.08 91.0864 250.08 90.9265L250.24 91.0864Z" fill="#E6DEDB"/>
<path d="M249.76 102.279C249.76 102.279 249.92 102.119 250.08 101.959C250.08 101.959 249.92 102.119 249.76 102.279Z" fill="#F4F5F6"/>
<path d="M262.24 75.0969C259.04 67.2621 256.48 59.5871 252.96 52.0721C252.8 51.7523 252.48 51.4325 253.12 51.1127C261.44 45.0367 269.76 38.8008 278.08 32.7248C279.2 31.9253 279.52 32.0852 280.16 33.2045C283.52 40.08 285.92 47.2752 288.96 54.3106C289.44 55.27 288.96 55.7497 288.32 56.2293C286.24 57.8283 284.16 59.4272 281.92 60.7064C275.2 65.0235 268.16 69.0209 262.24 74.937V75.0969Z" fill="#FEFEFE"/>
<path d="M145.6 258.496C146.08 257.697 146.56 256.897 146.88 256.258C153.6 254.019 160.8 253.22 167.52 250.821C172.32 249.062 177.12 247.783 182.08 247.144C191.04 245.865 199.2 242.507 208 240.908C209.6 241.867 211.2 242.986 212.8 243.946C213.28 244.266 213.6 244.585 213.76 245.065C215.04 250.182 216.64 255.298 217.28 260.415C216.96 260.415 216.48 260.415 216.48 259.935C215.2 257.377 212.64 257.537 210.4 257.057C208.48 256.737 206.4 257.377 204.64 258.017C204 258.176 203.52 258.496 202.88 257.857C201.28 255.938 198.88 255.138 196.64 254.499C195.2 254.179 193.92 253.539 192.8 252.58C188.48 249.062 184.48 249.862 182.24 255.138C181.44 257.057 180.48 258.176 178.24 258.496C175.84 258.816 173.92 260.095 172.16 261.854C171.36 262.654 170.56 263.133 169.44 262.973C165.28 262.334 161.76 264.093 158.24 266.171C155.04 268.25 152.48 271.128 149.76 273.846C148.32 268.889 147.2 263.773 145.44 258.816L145.6 258.496Z" fill="#0ABAEE"/>
<path d="M216.64 259.775C216.64 260.255 217.12 260.255 217.44 260.255C217.76 260.895 217.6 261.055 216.96 261.055C213.76 260.735 211.04 261.854 208.64 263.773C208 264.252 207.36 264.572 206.56 264.572C200.16 264.252 195.2 267.29 191.2 271.927C189.28 274.166 187.2 275.285 184.48 276.085C176.32 278.163 168.48 281.361 160.48 284.079C159.2 284.559 158.08 284.559 156.64 283.76C154.88 282.8 153.12 282.001 151.36 281.201C151.04 279.442 150.56 277.684 150.24 275.765C152.16 273.686 154.24 271.767 156.32 270.009C157.76 270.169 160.96 268.09 161.6 266.491C161.92 266.491 162.24 266.491 162.4 266.171C162.72 266.171 163.2 266.171 163.36 265.691C165.12 266.811 166.72 267.61 168.8 266.651C169.12 266.651 169.6 266.491 169.92 266.651C171.04 267.61 171.84 266.971 172.8 266.171C175.68 263.933 179.04 262.334 182.56 261.694C184.32 261.374 185.28 260.255 185.76 258.496C185.92 257.697 186.08 257.057 186.24 256.258C186.56 255.458 186.56 254.499 187.52 254.339C188.48 254.339 189.12 254.979 189.6 255.778C190.56 257.217 191.68 258.017 193.44 258.176C195.36 258.176 197.12 258.976 198.88 260.095C200.32 261.055 202.08 262.174 204.16 261.854C205.6 261.694 206.88 261.374 208.32 261.055C209.12 260.895 210.24 261.055 210.4 260.095C210.4 259.136 208.96 260.095 208.64 259.136C210.88 258.496 212.64 259.456 214.56 260.255C215.52 260.735 215.84 260.575 216.32 259.775H216.64ZM188.16 270.488C188.64 270.488 189.28 270.808 189.44 270.009C189.44 269.369 189.12 269.209 188.64 268.889C186.72 268.09 184.8 267.61 182.72 267.29C178.88 266.651 175.36 268.09 171.84 269.689C171.04 270.009 170.56 270.808 171.04 271.608C171.36 272.407 172.16 272.247 172.96 272.087C173.6 271.927 174.24 271.608 174.88 271.448C177.76 270.169 180.8 269.529 184 270.009C185.44 270.169 186.72 270.488 188.16 270.648V270.488Z" fill="#999999"/>
<path d="M208 240.748C199.2 242.347 190.88 245.865 182.08 246.984C177.12 247.623 172.16 249.062 167.52 250.661C160.8 253.06 153.6 253.859 146.88 256.098C147.52 254.019 148.96 253.06 151.04 252.58C165.92 248.583 180.96 245.385 195.84 241.547C198.08 240.908 200.32 240.428 202.4 239.469C204.8 238.35 206.56 238.669 208.16 240.748H208Z" fill="#F4F5F6"/>
<path d="M208.96 259.136C209.28 260.095 210.88 259.136 210.72 260.095C210.72 261.055 209.28 260.735 208.64 261.055C207.36 261.534 205.92 261.694 204.48 261.854C202.4 262.174 200.64 261.055 199.2 260.095C197.44 258.816 195.68 258.176 193.76 258.176C192 258.176 190.72 257.377 189.92 255.778C189.44 254.979 188.8 254.179 187.84 254.339C186.88 254.339 186.72 255.458 186.56 256.258C186.24 256.897 186.24 257.697 186.08 258.496C185.6 260.255 184.8 261.374 182.88 261.694C179.2 262.334 176 263.933 173.12 266.171C172.16 266.811 171.36 267.45 170.24 266.651C170.08 266.491 169.44 266.651 169.12 266.651C167.04 267.61 165.28 266.811 163.68 265.691C165.44 264.572 167.52 264.412 169.6 264.572C171.2 264.572 172.64 264.252 173.76 263.133C175.68 261.055 178.24 260.095 181.12 259.615C182.56 259.296 183.36 258.656 183.84 257.217C184.16 256.418 184.48 255.618 184.8 254.819C186.4 251.781 188.8 251.141 191.36 253.38C193.28 255.138 195.36 255.938 197.76 256.418C199.68 256.737 201.28 257.697 202.24 259.296C202.72 260.095 203.36 260.415 204.32 259.935C205.92 259.296 207.52 259.136 209.12 258.976L208.96 259.136Z" fill="#F4F5F6"/>
<path d="M217.12 263.453C217.12 263.773 217.12 263.933 217.12 263.933C215.52 268.57 211.84 270.009 207.36 270.648C202.72 271.448 198.08 272.727 193.44 273.846C192.96 273.846 192.64 274.166 191.84 273.846C194.88 270.648 198.24 268.09 202.56 267.131C202.88 267.131 203.04 267.131 203.36 267.131C206.88 267.131 210.08 266.331 212.96 264.252C214.08 263.453 215.68 263.293 217.28 263.453L217.12 263.453Z" fill="#4C742D"/>
<path d="M145.6 258.496C147.36 263.453 148.48 268.57 149.92 273.526C149.6 273.846 149.44 274.166 148.96 274.805C148.16 272.567 147.52 270.648 146.88 268.57C146.24 266.811 145.76 264.892 144.8 263.293C143.84 261.374 144 259.775 145.6 258.496Z" fill="#F4F5F6"/>
<path d="M161.76 266.491C161.12 268.09 157.76 270.169 156.48 270.009C158.08 268.729 159.68 267.29 161.76 266.491Z" fill="#E6DEDB"/>
<path d="M150.24 275.605C150.56 277.364 151.04 279.123 151.36 281.041C149.76 279.922 149.12 276.724 150.24 275.605Z" fill="#E6DEDB"/>
<path d="M212 238.829C211.2 238.349 210.4 238.19 209.76 237.39C210.933 236.751 211.68 237.23 212 238.829Z" fill="#0ABAEE"/>
<path d="M163.52 265.691C163.36 266.171 162.88 266.171 162.56 266.171C162.72 265.691 163.2 265.691 163.52 265.691Z" fill="#E6DEDB"/>
<path d="M162.56 266.011C162.56 266.491 162.08 266.491 161.76 266.331C161.76 265.851 162.24 265.851 162.56 266.011Z" fill="#E6DEDB"/>
<path d="M144 236.591C137.44 239.309 130.72 240.908 124 242.986C117.92 244.905 111.84 246.824 105.76 248.583C104.96 248.743 104.32 248.903 103.52 248.583C102.08 247.943 100.64 247.464 99.2 246.984C99.52 246.344 99.6799 245.705 100.16 245.225C102.08 243.466 102.24 241.228 101.92 238.829C103.2 238.829 103.2 238.03 103.2 237.23C103.2 235.311 103.68 233.393 104.64 231.794C105.28 230.834 105.44 230.035 105.28 228.916C104.96 226.837 104.96 224.758 106.88 223.16C107.68 222.52 108.16 222.36 108.96 223.16C110.08 224.279 110.56 225.718 111.04 227.157C111.36 228.596 112 229.395 113.76 229.715C115.36 229.875 116.8 229.875 118.4 230.035C120 230.035 121.76 230.035 122.4 231.634C123.2 233.713 123.84 235.471 126.4 236.111C127.2 236.271 127.68 238.03 128.64 236.91C129.44 235.951 128.32 235.152 127.68 234.352C127.2 233.872 126.72 233.553 126.08 233.393C125.6 233.393 125.28 233.073 125.12 232.593C124.48 228.916 121.6 227.956 118.56 227.637C118.08 227.637 117.28 227.796 117.44 226.837C117.44 224.758 119.68 221.88 121.76 221.401C122.56 221.241 123.04 220.761 123.2 219.802C123.36 219.002 123.52 218.363 123.84 217.563C124.64 215.804 125.6 215.485 127.04 216.604C127.68 217.083 128.16 217.563 129.12 217.563C130.88 217.563 131.36 218.682 131.52 220.122C131.52 220.921 131.52 221.72 131.52 222.36C131.52 223 131.52 223.959 132.32 223.959C133.44 223.959 133.28 223.159 133.44 222.36C133.44 221.88 133.12 221.081 133.92 220.921C134.56 220.921 135.04 221.081 135.52 221.561C136 222.04 136.48 222.52 136.8 223.16C137.76 224.918 138.72 226.517 139.52 228.276C139.84 229.076 140.16 229.555 141.12 229.076C141.28 231.794 143.84 233.553 144.16 236.271L144 236.591Z" fill="#74B62A"/>
<path d="M144 236.591C143.68 233.872 141.12 232.114 140.96 229.395C141.44 228.916 141.44 228.116 141.28 227.637C140 225.078 139.36 221.88 136.8 220.281C134.72 219.162 132.48 218.363 131.04 216.444C131.04 216.284 130.56 216.124 130.4 216.124C129.28 216.124 128.48 215.485 127.68 215.005C125.76 213.726 123.84 213.886 122.88 215.804C121.76 218.043 120.32 219.642 118.24 221.081C116.64 222.2 116.32 224.439 115.84 226.357C115.84 226.997 115.84 227.637 114.88 227.637C114.08 227.637 113.6 227.317 113.28 226.517C112.96 225.718 112.64 224.758 112.32 224.119C111.36 222.36 109.92 221.081 107.84 221.081C106.08 221.081 104.64 222.84 103.84 225.238C103.52 226.357 103.36 227.637 103.84 228.756C104.16 229.715 103.84 230.355 103.36 230.994C102.08 233.393 100.96 235.791 102.24 238.669C102.56 241.068 102.4 243.306 100.48 245.065C100 245.545 99.84 246.184 99.52 246.824C99.3599 246.824 99.04 246.824 98.88 246.664C96.96 238.989 94.8799 231.314 92.3199 223.639C91.5199 221.241 91.52 221.081 94.08 220.441C100.8 218.842 107.36 216.924 113.92 214.685C117.76 213.246 121.44 211.167 125.6 210.368C129.76 209.568 133.6 208.129 137.6 207.33C138.24 207.33 139.2 207.01 139.68 206.371C141.12 206.85 141.76 207.81 142.08 209.409C143.52 216.284 145.28 223 147.52 229.555C148.48 232.753 147.52 234.992 144.32 236.271L144 236.591Z" fill="#0ABAEE"/>
<path d="M139.52 206.69C139.04 207.33 138.24 207.49 137.44 207.65C133.44 208.449 129.44 209.888 125.44 210.688C121.28 211.487 117.76 213.566 113.76 215.005C107.2 217.403 100.64 219.162 93.9199 220.761C91.3599 221.401 91.3599 221.401 92.1599 223.959C94.7199 231.474 96.7999 239.149 98.7199 246.984C97.9199 247.144 97.6 246.504 97.44 246.024C94.24 238.349 92.16 230.195 90.24 222.2C89.92 220.761 91.04 219.642 92.64 219.002C99.2 216.764 105.6 214.365 112.48 212.766C119.52 211.007 126.4 208.929 133.12 206.051C135.68 204.931 137.76 205.091 139.68 207.01L139.52 206.69Z" fill="#F4F5F6"/>
<path d="M93.6 245.545C93.6 245.545 93.6 245.865 93.6 246.024C93.6 246.024 93.44 246.024 93.28 245.865C93.28 245.865 93.44 245.705 93.6 245.545Z" fill="#FDFDFD"/>
<path d="M223.04 89.3276C222.56 90.7666 221.12 91.726 220.64 93.165C219.68 96.0431 218.56 98.9212 217.44 101.799C217.12 102.759 216.8 103.238 215.68 102.599C216.64 98.2817 217.76 93.9645 220.32 90.127C220.96 89.3276 221.76 88.3682 223.04 89.1676L223.04 89.3276Z" fill="#070808"/>
<path d="M188.16 270.488C186.72 270.328 185.44 270.009 184 269.849C180.8 269.529 177.76 270.009 174.88 271.288C174.24 271.608 173.6 271.767 172.96 271.927C172.32 272.087 171.52 272.247 171.04 271.448C170.72 270.648 171.04 269.849 171.84 269.529C175.2 267.93 178.72 266.491 182.72 267.131C184.8 267.45 186.72 267.93 188.64 268.729C189.12 268.889 189.6 269.209 189.44 269.849C189.44 270.488 188.64 270.328 188.16 270.328L188.16 270.488Z" fill="#070808"/>
<path d="M102.08 238.829C100.8 236.111 102.08 233.553 103.2 231.154C103.52 230.355 103.84 229.715 103.68 228.916C103.36 227.796 103.52 226.517 103.68 225.398C104.32 223 105.76 221.241 107.68 221.241C109.76 221.241 111.2 222.52 112.16 224.279C112.64 225.078 112.8 225.878 113.12 226.677C113.44 227.477 113.92 227.637 114.72 227.796C115.68 227.796 115.52 227.157 115.68 226.517C116.16 224.599 116.48 222.36 118.08 221.241C120.16 219.802 121.6 218.203 122.72 215.964C123.68 214.045 125.6 213.886 127.52 215.165C128.32 215.804 129.28 216.284 130.24 216.284C130.56 216.284 130.88 216.284 130.88 216.604C132.32 218.682 134.72 219.322 136.64 220.441C139.2 221.88 140 225.078 141.12 227.796C141.44 228.276 141.28 229.076 140.8 229.555C139.84 230.035 139.52 229.555 139.2 228.756C138.4 226.997 137.44 225.238 136.48 223.639C136.16 223 135.68 222.52 135.2 222.04C134.72 221.56 134.24 221.241 133.6 221.401C132.8 221.561 133.12 222.36 133.12 222.84C133.12 223.639 133.12 224.598 132 224.439C131.04 224.439 131.2 223.479 131.2 222.84C131.2 222.04 131.2 221.241 131.2 220.601C131.2 219.162 130.56 218.043 128.8 218.043C128 218.043 127.36 217.563 126.72 217.083C125.12 216.124 124.16 216.284 123.52 218.043C123.2 218.682 123.04 219.482 122.88 220.281C122.72 221.081 122.24 221.561 121.44 221.88C119.36 222.52 117.28 225.238 117.12 227.317C117.12 228.276 117.76 228.116 118.24 228.116C121.44 228.436 124.16 229.395 124.8 233.073C124.8 233.553 125.28 233.713 125.76 233.872C126.4 233.872 127.04 234.352 127.36 234.832C128 235.631 129.28 236.431 128.32 237.39C127.36 238.509 126.88 236.751 126.08 236.591C123.68 235.951 123.04 234.032 122.08 232.114C121.44 230.675 119.52 230.515 118.08 230.515C116.48 230.515 115.04 230.515 113.44 230.195C111.84 230.035 111.2 229.076 110.72 227.637C110.4 226.197 109.76 224.758 108.64 223.639C107.84 222.84 107.36 223 106.56 223.639C104.8 225.238 104.64 227.317 104.96 229.395C105.12 230.515 104.96 231.314 104.32 232.273C103.2 233.872 102.72 235.791 102.88 237.71C102.88 238.509 102.88 239.469 101.6 239.309L102.08 238.829Z" fill="#070808"/>
</svg>
