<svg width="211" height="219" fill="none" xmlns="http://www.w3.org/2000/svg"><path d="M106.18 199.46c57.807 0 104.67-20.38 104.67-45.52 0-25.14-46.863-45.52-104.67-45.52-57.808 0-104.67 20.38-104.67 45.52 0 25.14 46.862 45.52 104.67 45.52z" fill="url(#a)"/><path d="M210.84 153.94c-.03 2.56-.53 5.09-1.42 7.49-.86 2.41-2.23 4.61-3.73 6.67l-1.17 1.52-1.28 1.42c-.42.49-.87.94-1.34 1.37l-1.38 1.33c-1.93 1.68-3.92 3.29-6.05 4.71-8.47 5.76-18.01 9.76-27.74 12.84-4.88 1.52-9.83 2.85-14.82 3.95-5 1.09-10.04 1.98-15.11 2.72-5.07.72-10.16 1.23-15.27 1.63-5.11.37-10.23.55-15.35.63-5.12.02-10.25-.07-15.37-.35-5.12-.3-10.23-.72-15.33-1.35-10.18-1.28-20.31-3.2-30.18-6.19-9.83-3.01-19.53-6.9-28.21-12.72-2.18-1.44-4.22-3.08-6.21-4.8l-1.43-1.37c-.48-.45-.95-.91-1.39-1.42l-1.34-1.47-1.23-1.57c-1.57-2.14-3.03-4.44-3.95-7.01-.96-2.54-1.51-5.26-1.54-8.01.03-2.75.58-5.47 1.54-8.01.93-2.57 2.38-4.86 3.95-7.01l1.23-1.57 1.34-1.47c.44-.5.9-.97 1.39-1.42l1.43-1.37c1.99-1.72 4.03-3.36 6.21-4.8 8.67-5.83 18.37-9.72 28.2-12.73 9.86-3 20-4.91 30.18-6.19 5.09-.63 10.21-1.05 15.33-1.35 5.12-.28 10.25-.37 15.37-.35 5.12.08 10.24.26 15.35.63 5.11.39 10.2.91 15.27 1.63 5.07.73 10.11 1.63 15.11 2.72 5 1.1 9.94 2.44 14.82 3.96 9.74 3.08 19.28 7.08 27.74 12.84 2.13 1.41 4.12 3.03 6.05 4.71l1.38 1.33c.47.44.92.89 1.34 1.37l1.28 1.42 1.17 1.52c1.5 2.06 2.87 4.25 3.73 6.67.89 2.39 1.39 4.93 1.42 7.49l.01-.04zm0 0c-.04-2.56-.55-5.09-1.45-7.48-.87-2.41-2.25-4.59-3.75-6.64l-1.18-1.51-1.29-1.42c-.42-.48-.87-.93-1.34-1.37l-1.38-1.32c-1.93-1.67-3.92-3.27-6.05-4.67-8.49-5.7-18.07-9.55-27.8-12.53-9.77-2.96-19.82-4.87-29.93-6.14-5.06-.63-10.14-1.05-15.22-1.34-5.09-.28-10.18-.37-15.27-.35-5.09.08-10.18.26-15.26.63-5.07.39-10.14.9-15.17 1.62-5.03.73-10.04 1.62-14.99 2.7-4.96 1.09-9.86 2.41-14.69 3.92-9.64 3.04-19.06 7.01-27.34 12.64-2.08 1.38-4.02 2.96-5.89 4.58l-1.33 1.29c-.45.42-.89.86-1.29 1.32l-1.24 1.37-1.12 1.45c-1.43 1.96-2.73 4.04-3.53 6.3-.83 2.24-1.29 4.59-1.32 6.95.03 2.37.49 4.72 1.32 6.96.8 2.26 2.1 4.33 3.53 6.3l1.12 1.45 1.24 1.37c.4.47.84.9 1.29 1.32l1.33 1.29c1.87 1.62 3.8 3.2 5.89 4.58 8.28 5.64 17.7 9.6 27.34 12.64 4.83 1.51 9.73 2.83 14.69 3.92 4.96 1.08 9.96 1.97 15 2.7 5.03.72 10.1 1.23 15.17 1.62 5.08.37 10.16.55 15.26.63 5.09.02 10.19-.07 15.27-.35 5.09-.3 10.17-.72 15.22-1.35 10.11-1.27 20.17-3.18 29.93-6.14 9.73-2.98 19.32-6.83 27.8-12.53 2.13-1.4 4.12-3.01 6.05-4.67l1.38-1.32c.47-.43.92-.88 1.34-1.37l1.29-1.42 1.18-1.51c1.5-2.05 2.88-4.23 3.75-6.64.9-2.39 1.41-4.92 1.45-7.48h-.01z" fill="#000"/><path d="M104.85 25.95 51.8 22.37l-.78-.05-8.58 123.46s-3.38 11.98 1.66 17.82 9.04 8.79 9.04 8.79l57.16 5.55h39.48l6.85-64.5 5.67-80.17-50.7-26.99L104.17 5H51.86l-.04 14.65" fill="#fff"/><path d="M56.08 22.29c-3.75 38.66-6.07 77.45-6.95 116.28-.14 6.33-.24 12.78 1.51 18.87 1.75 6.09 8.6 12.9 14.41 15.42-4.68.62-12.92.06-16.58-2.92-2.49-2.03-5.06-5.97-5.56-9.14-1.85-11.81-.63-23.98 1.1-36.43l7.01-102.06 5.78-.03M95.13 4.67A3416.46 3416.46 0 0 0 43.62.28c-.33-.03-.71-.03-.94.21-.18.18-.21.46-.22.71-.18 3.66 1.67 7.16 4.07 9.93 1.06 1.22 2.26 2.35 3.69 3.1 2.04 1.06 4.4 1.28 6.69 1.46 2.06.16 4.13.31 6.2.44a58.722 58.722 0 0 1-5.08-8.93c10.9 0 21.79-.02 32.69-.03 6.25 0 12.56-.02 18.66-1.34" fill="#0ABBEF"/><path d="m97.03 43.2-.97-2.63c-7.36-1.94-14.88-3.26-22.45-3.94-3.88-.35-7.89-.52-11.56.8-3.67 1.32-6.93 4.44-7.3 8.32-.11 1.17.05 2.38.59 3.42 1.28 2.46 4.3 3.41 7.05 3.79 2.62.36 5.27.42 7.91.43 6.33.03 12.65-.2 18.96-.68l-16.87-1.95c-.7.43-1.57.69-2.6.69-.79 0-1.48-.15-2.08-.42-.29.05-.6.08-.92.08-6.45 0-6.43-10 0-10 .61 0 1.16.09 1.66.25.47-.04.95-.05 1.41-.04 9.05.11 18 2.46 27.04 2.1.23 0 .15-.45.12-.23l.01.01zM136.59 67.76c-23.32-5.31-47.51-4.92-71.26-7.76a3.128 3.128 0 0 0-3.49 2.8c-.65 6.9-1.27 13.8-1.87 20.7a3.115 3.115 0 0 0 3.08 3.39c23.51.24 47.02-.05 70.52-.86M77.03 153.551c.12-1.75-.13-3.73-1.51-4.81-.75-.58-1.72-.8-2.66-.86-1.01-.06-2.07.07-2.92.62-.83.53-1.39 1.43-1.61 2.4-.22.97-.11 1.98.2 2.92.48 1.45 1.52 2.79 2.98 3.25-.5-.74-.95-1.57-.96-2.46-.02-1.31.99-2.52 2.25-2.9 1.26-.38 2.68 0 3.7.82M92.09 154.55c-.47-.68-.97-1.38-1.71-1.73-.91-.43-2.06-.219-2.85.411s-1.26 1.61-1.4 2.61c-.13.95.12 2.099 1.01 2.459-1.39-.57-2.22-1.97-2.96-3.28-.24-.43-.49-.88-.55-1.37-.14-1.05.56-2.01 1.3-2.76.62-.62 1.32-1.19 2.15-1.5 1.49-.55 3.28-.08 4.37 1.08 1.09 1.16 1.47 2.91 1.02 4.44M67.77 160.631c-.7-.71-1.61-1.25-2.61-1.37-1-.12-2.06.21-2.71.97-1.02 1.19-.76 3.05-.01 4.43-.76-.43-1.5-.93-2.08-1.58-.58-.65-.98-1.5-.98-2.37 0-.71.27-1.39.64-1.99 1.04-1.64 3.07-2.68 4.97-2.29 1.9.39 3.42 2.35 3.08 4.26M83.42 162.04c-.66-.97-1.73-1.67-2.9-1.74-1.17-.07-2.38.54-2.9 1.59-.6 1.2-.22 2.66.38 3.86-.89-.23-1.45-1.11-1.84-1.94-.44-.92-.8-1.97-.5-2.94.27-.88 1.03-1.51 1.79-2.03 1.05-.72 2.23-1.35 3.5-1.4 1.27-.05 2.65.61 3.08 1.81.27.75.15 1.58-.05 2.35M99.03 164.46c.74-1.59.32-3.64-.99-4.81-1.31-1.17-3.4-1.34-4.89-.41-1.49.93-2.25 2.88-1.78 4.57.32 1.15 1.12 2.1 1.97 2.94-.55-1.12-.91-2.51-.26-3.58.26-.44.67-.77 1.11-1.03.9-.53 2-.77 2.99-.46.99.31 1.8 1.26 1.77 2.3M101.82 158.65c-.69-.91-.94-2.14-.62-3.23.32-1.09 1.24-2 2.34-2.26 1.1-.26 2.36.17 3.03 1.08.71.96.73 2.24.72 3.43.3-.91.6-1.84.66-2.8.06-.96-.15-1.98-.76-2.71-.37-.44-.87-.76-1.4-.98-1.95-.78-4.36-.05-5.67 1.6-.46.59-.81 1.3-.79 2.05.02 1.2.93 2.17 1.78 3.02M118.491 154.691c-1.67.46-2.771 2.42-2.281 4.08-.82-.86-1.01-2.17-.85-3.35.2-1.4.891-2.78 2.061-3.57 1.52-1.03 3.75-.84 5.07.43 1.32 1.27 1.619 3.48.659 5.05-.61-1.51-2.339-2.47-3.949-2.2M114.12 164.61c.6-1.04.43-2.43-.31-3.37s-1.97-1.44-3.17-1.39c-1.2.05-2.34.6-3.22 1.4-1.04.96-1.76 2.39-1.49 3.78.23 1.18 1.16 2.17 2.29 2.59-.81-1.48-.25-3.56 1.19-4.44 1.44-.88 3.54-.43 4.49.96M129.39 165.56c-.77-1.46-2.77-2.12-4.26-1.41-1.49.71-2.23 2.69-1.58 4.2-.88-.42-1.48-1.31-1.69-2.26-.21-.95-.07-1.95.24-2.88.16-.46.36-.92.69-1.28.36-.39.84-.63 1.32-.84.84-.37 1.75-.69 2.67-.58 1.18.14 2.2 1 2.73 2.07.5.99.62 2.15.34 3.22" fill="#0ABBEF"/><path d="m166.61 28-9.71 134.14-1.05 14.51a6.126 6.126 0 0 1-6.55 5.67l-82.08-5.94-4.37-.32c-4.07-.3-7.82-1.64-11-3.76l88.81 6.43c3.38.25 6.31-2.29 6.56-5.67l10.54-145.7 8.85.64z" fill="url(#b)"/><path d="m108.2 19.67 55.22 4c7.9.57 14.76-5.37 15.33-13.26l-69.52-5.03-1.03 14.3v-.01z" fill="#fff"/><path d="M178.77 9.93h-.07l-.14-.02-.29-.03-4.59-.45c-3.06-.31-6.12-.61-9.18-.88-6.12-.57-12.26-1.03-18.38-1.55-11.75-.98-23.51-1.62-35.29-2.18C99.1 3.68 87.36 2.62 75.59 1.9c-6.14-.37-12.27-.8-18.42-1.11C54.1.61 51.03.47 47.95.34L43.34.12h-.29L42.91.1h-.07c.44-.4-.64.53-.53.45v.63c.01.4-.03.79.03 1.19l.12 1.18.24 1.16c.97 4.5 4.2 8.26 8.31 10.21l-2.05-.09h-.03a.527.527 0 0 0-.55.51l-.18 4.09v.02c-.01.23.17.43.4.44.52.02 1.05.06 1.57.09-2.52 33.64-4.87 67.3-7.13 100.96l-1.66 25.35c-.12 2.13-.31 4.19-.38 6.37-.04 2.17.22 4.35.78 6.45 1.1 4.2 3.42 8.06 6.58 11.02.92.87 1.93 1.66 2.98 2.37.04.11.1.2.21.27 2.29 1.51 4.86 2.6 7.52 3.21 1.33.3 2.7.5 4.05.57l4.01.26 16.03 1.07 14.63 1.02 25.29 1.93 6.33.51 3.17.26c.65.01 1.31.06 1.97.07l12.71 1.04 2 .16c.73.05 1.47 0 2.18-.18 1.43-.35 2.72-1.2 3.64-2.35.91-1.14 1.43-2.67 1.47-4.06l.33-4 .8-9.93c.08-.41.15-.82.18-1.23.17-1.1.22-2.15.3-3.21l.24-3.18 1.88-25.46c2.32-33.79 4.54-67.6 6.5-100.88 1.15.1 2.3.19 3.45.31.23.02.44-.15.46-.38v-.02l.41-4.08a.528.528 0 0 0-.47-.58h-.03c-.68-.08-1.36-.14-2.04-.21 4.34-1.34 8.08-4.59 9.69-8.91l.4-1.12.29-1.15c.11-.38.14-.78.2-1.17l.09-.59v-.04c.11.09-.83-.98-.45-.53l-.01.01zM109.79 6.1c.31.01.62.03.93.05l.93.09c-.08 2.09-.17 4.19-.23 6.33l-.21 6.89c-.48-.01-.97-.03-1.45-.05-.48-.06-.96-.11-1.45-.16l.79-6.84c.25-2.13.47-4.21.69-6.29V6.1zM47.9 12.19c-2.28-1.97-3.84-4.72-4.45-7.64l-.17-1.11-.06-1.12c-.04-.37.01-.74.02-1.12v-.12h.04l4.59.45c3.06.31 6.12.61 9.18.88 6.12.57 12.26 1.03 18.38 1.55 11.03.92 22.09 1.54 33.15 2.08-.09 2.22-.19 4.43-.25 6.61l-.19 6.57c-4.13-.47-8.26-.92-12.39-1.32-5.19-.49-10.38-.94-15.57-1.33-5.19-.39-10.4-.66-15.6-.99-3.77-.22-7.54-.4-11.31-.57-.52-.14-1.04-.29-1.54-.48-1.41-.54-2.68-1.37-3.83-2.34zm-4.99 146.63c-.5-2-.72-4.07-.65-6.13.09-2.05.31-4.21.46-6.3l2-25.33c2.59-33.43 5.09-66.88 7.43-100.33l27.87 1.91 28.89 1.92 13.72.87c.13.01.26.03.39.04 5.17.49 10.38.97 15.67 1.31 5.29.32 10.62.48 15.88.72.99.05 1.96.12 2.94.18-.87 10.05-1.73 20.09-2.53 30.15l-2.45 30.5-2.38 30.5-2.25 30.51-1.12 15.26-.56 7.63c-.03.3-.04.67-.07.92-.02.26-.08.52-.14.78-.14.51-.35 1-.63 1.45-.58.88-1.42 1.61-2.41 1.98-.49.19-1.01.32-1.54.35-.27.03-.51 0-.82 0l-.95-.07-3.82-.26-7.63-.53-15.26-1.06-61.05-4.04c-1.01-.7-1.97-1.48-2.86-2.33-2.98-2.87-5.14-6.59-6.13-10.59v-.01zm89.73 21.78-3.17-.2-6.34-.4-25.35-1.73c-.62-.04-1.23-.09-1.85-.13-4.24-.32-8.49-.64-12.73-.95l-16.02-1.25-4-.32c-1.32-.09-2.61-.3-3.89-.61-1.77-.44-3.48-1.11-5.09-1.96l58.6 4.61 15.25 1.15 7.63.58 3.81.29.88.07c-1.51.45-3.06.74-4.64.83-1.03.13-2.06.03-3.1.03l.01-.01zm33.87-152.23c-1.82 21.5-3.58 42.78-5.26 64l-2.47 31.92c-.82 10.63-1.52 21.25-2.27 31.89l-.32 5.04c-.25 1.94-.65 3.84-1.46 5.63-.36.96-.86 1.85-1.34 2.76-.56.86-1.08 1.75-1.74 2.53-.61.83-1.35 1.55-2.05 2.3-.78.67-1.52 1.38-2.38 1.96h-.01c.37-.6.66-1.25.85-1.93.09-.36.17-.73.2-1.1.05-.38.06-.65.09-.99l.55-7.63 1.09-15.26 2.16-30.52 2.03-30.53 1.97-30.53c.65-10.06 1.25-20.13 1.83-30.2 2.86.18 5.71.39 8.55.65l-.02.01zM155.23 176.2c-.02 1.29-.41 2.41-1.14 3.39-.74.95-1.78 1.68-2.96 1.98-.59.16-1.19.21-1.8.19l-2-.13-7.77-.49c.89-.2 1.77-.44 2.63-.73 2.06-.68 4.01-1.7 5.79-2.95.91-.6 1.72-1.33 2.55-2.03.76-.78 1.56-1.53 2.22-2.4.72-.82 1.29-1.76 1.9-2.66.37-.67.75-1.34 1.09-2.03l-.25 3.86-.25 4.01-.01-.01zm22.99-165.23c-.05.37-.05.75-.14 1.11l-.22 1.1-.33 1.07c-1.02 2.81-2.96 5.3-5.51 6.92-1.27.79-2.66 1.44-4.13 1.76-.53.12-1.06.2-1.59.26a715.2 715.2 0 0 0-11.27-1.07c-5.19-.43-10.38-.91-15.58-1.27-5.2-.36-10.4-.67-15.6-.93-4.15-.2-8.3-.36-12.45-.48l.76-6.53c.26-2.16.48-4.36.71-6.57 11.02 1.06 22.05 2.04 33.1 2.72 6.14.37 12.27.8 18.42 1.11 3.07.18 6.14.32 9.22.45l4.61.22h.03l-.01.12-.02.01z" fill="#000"/><path d="M68.34 162.73a3.295 3.295 0 0 1-3.53 3.05 3.295 3.295 0 0 1-3.05-3.53 3.295 3.295 0 0 1 3.53-3.05c1.82.13 3.18 1.71 3.05 3.53zM83.69 163.84a3.295 3.295 0 0 1-3.53 3.05 3.295 3.295 0 0 1-3.05-3.53 3.295 3.295 0 0 1 3.53-3.05c1.82.13 3.18 1.71 3.05 3.53zM99.03 164.951a3.295 3.295 0 0 1-3.53 3.05 3.295 3.295 0 0 1-3.05-3.53 3.295 3.295 0 0 1 3.53-3.05c1.82.13 3.18 1.71 3.05 3.53zM114.37 166.06a3.295 3.295 0 0 1-3.53 3.05 3.295 3.295 0 0 1-3.05-3.53 3.295 3.295 0 0 1 3.53-3.05c1.82.13 3.18 1.71 3.05 3.53zM129.72 167.17a3.295 3.295 0 0 1-3.53 3.05 3.295 3.295 0 0 1-3.05-3.53 3.295 3.295 0 0 1 3.53-3.05c1.82.13 3.18 1.71 3.05 3.53zM76.91 154.72a3.295 3.295 0 0 1-3.53 3.05 3.295 3.295 0 0 1-3.05-3.53 3.295 3.295 0 0 1 3.53-3.05c1.82.13 3.18 1.71 3.05 3.53zM92.272 155.742a3.3 3.3 0 1 0-6.593-.283 3.3 3.3 0 0 0 6.593.283zM107.6 156.94a3.295 3.295 0 0 1-3.53 3.05 3.295 3.295 0 0 1-3.05-3.53 3.295 3.295 0 0 1 3.53-3.05c1.82.13 3.18 1.71 3.05 3.53z" fill="#fff"/><path d="M66.97 158.68c-.48-.3-1.03-.48-1.6-.54-1.14-.12-2.31.36-3.09 1.15-.81.77-1.19 1.92-1.06 2.93.12 1.02.53 1.89 1.1 2.65.55.74 1.34 1.54 2.44 1.75 1.07.23 2.28-.25 2.87-1.15.61-.9.72-1.87.82-2.73.06-.87.08-1.85-.39-2.84a3.09 3.09 0 0 0-1.08-1.22h-.01zm-.18 5.83c-.71.24-1.27.35-1.92.45-.63.1-1.5.06-2.07-.51-.57-.55-.74-1.44-.49-2.15s.71-1.22 1.2-1.58c.53-.35 1.12-.45 1.7-.45.59.02 1.16.18 1.83.5.67.32 1.27 1.1 1.2 1.95-.03.87-.75 1.55-1.45 1.78v.01zM82.31 159.791c-.48-.3-1.03-.48-1.6-.54-1.14-.12-2.31.36-3.09 1.15-.81.77-1.19 1.92-1.06 2.93.12 1.02.53 1.89 1.1 2.65.55.74 1.34 1.54 2.44 1.75 1.07.23 2.28-.25 2.87-1.15.61-.9.72-1.87.82-2.73.06-.87.08-1.85-.39-2.84a3.09 3.09 0 0 0-1.08-1.22h-.01zm-.17 5.83c-.71.24-1.27.35-1.92.45-.63.09-1.5.06-2.07-.51-.57-.55-.74-1.44-.49-2.15s.71-1.22 1.2-1.58c.53-.35 1.12-.45 1.7-.45.59.02 1.16.18 1.83.5.67.32 1.27 1.1 1.2 1.95-.03.87-.75 1.55-1.45 1.78v.01zM97.65 160.901c-.48-.3-1.03-.48-1.6-.54-1.14-.12-2.31.36-3.09 1.15-.81.77-1.19 1.92-1.06 2.93.12 1.02.53 1.89 1.1 2.65.55.74 1.34 1.54 2.44 1.75 1.07.23 2.28-.25 2.87-1.15.61-.9.72-1.87.82-2.73.06-.87.08-1.85-.39-2.84a3.09 3.09 0 0 0-1.08-1.22h-.01zm-.17 5.83c-.71.24-1.27.35-1.92.45-.63.1-1.5.06-2.07-.51-.57-.55-.74-1.44-.49-2.15s.71-1.22 1.2-1.58c.53-.35 1.12-.45 1.7-.45.59.02 1.16.18 1.83.5.67.32 1.27 1.1 1.2 1.95-.03.87-.75 1.55-1.45 1.78v.01zM114.081 163.23a3.09 3.09 0 0 0-1.08-1.22c-.48-.3-1.03-.48-1.6-.54-1.14-.12-2.31.36-3.09 1.15-.81.77-1.19 1.92-1.06 2.93.12 1.02.53 1.89 1.1 2.65.55.74 1.34 1.54 2.44 1.75 1.07.23 2.28-.25 2.87-1.15.61-.9.72-1.87.82-2.73.06-.87.08-1.85-.39-2.84h-.01zm-1.25 4.61c-.71.24-1.27.35-1.92.45-.63.09-1.5.06-2.07-.51-.57-.55-.74-1.44-.49-2.15s.71-1.22 1.2-1.58c.53-.35 1.12-.45 1.7-.45.59.02 1.16.18 1.83.5.67.32 1.27 1.1 1.2 1.95-.03.87-.75 1.55-1.45 1.78v.01zM76.62 151.891a3.09 3.09 0 0 0-1.08-1.22c-.48-.3-1.03-.48-1.6-.54-1.14-.12-2.31.36-3.09 1.15-.81.77-1.19 1.92-1.06 2.93.12 1.02.53 1.89 1.1 2.65.55.74 1.34 1.54 2.44 1.75 1.07.23 2.28-.25 2.87-1.15.61-.9.72-1.87.82-2.73.06-.87.08-1.85-.39-2.84h-.01zm-1.25 4.61c-.71.24-1.27.35-1.92.45-.63.09-1.5.06-2.07-.51-.57-.55-.74-1.44-.49-2.15s.71-1.22 1.2-1.58c.53-.35 1.12-.45 1.7-.45.59.02 1.16.18 1.83.5.67.32 1.27 1.1 1.2 1.95-.03.87-.75 1.55-1.45 1.78v.01zM91.97 153.001a3.09 3.09 0 0 0-1.08-1.22c-.48-.3-1.03-.48-1.6-.54-1.14-.12-2.31.36-3.09 1.15-.81.77-1.19 1.92-1.06 2.93.12 1.02.53 1.89 1.1 2.65.55.74 1.34 1.54 2.44 1.75 1.07.23 2.28-.25 2.87-1.15.61-.9.72-1.87.82-2.73.06-.87.08-1.85-.39-2.84h-.01zm-1.26 4.61c-.71.24-1.27.35-1.92.45-.63.1-1.5.06-2.07-.51-.57-.55-.74-1.44-.49-2.15s.71-1.22 1.2-1.58c.53-.35 1.12-.45 1.7-.45.59.02 1.16.18 1.83.5.67.32 1.27 1.1 1.2 1.95-.03.87-.75 1.55-1.45 1.78v.01zM107.31 154.11a3.09 3.09 0 0 0-1.08-1.22c-.48-.3-1.03-.48-1.6-.54-1.14-.12-2.31.36-3.09 1.15-.81.77-1.19 1.92-1.06 2.93.12 1.02.53 1.89 1.1 2.65.55.74 1.34 1.54 2.44 1.75 1.07.23 2.28-.25 2.87-1.15.61-.9.72-1.87.82-2.73.06-.87.08-1.85-.39-2.84h-.01zm-1.26 4.61c-.71.24-1.27.35-1.92.45-.63.09-1.5.06-2.07-.51-.57-.55-.74-1.44-.49-2.15s.71-1.22 1.2-1.58c.53-.35 1.12-.45 1.7-.45.59.02 1.16.18 1.83.5.67.32 1.27 1.1 1.2 1.95-.03.87-.75 1.55-1.45 1.78v.01z" fill="#000"/><path d="M122.95 158.05a3.295 3.295 0 0 1-3.53 3.05 3.295 3.295 0 0 1-3.05-3.53 3.295 3.295 0 0 1 3.53-3.05c1.82.13 3.18 1.71 3.05 3.53z" fill="#fff"/><path d="M129.43 164.341a3.09 3.09 0 0 0-1.08-1.22c-.48-.3-1.03-.48-1.6-.54-1.14-.12-2.31.36-3.09 1.15-.81.77-1.19 1.92-1.06 2.93.12 1.02.53 1.89 1.1 2.65.55.74 1.34 1.54 2.44 1.75 1.07.23 2.28-.25 2.87-1.15.61-.9.72-1.87.82-2.73.06-.87.08-1.85-.39-2.84h-.01zm-1.26 4.61c-.71.24-1.27.35-1.92.45-.63.1-1.5.06-2.07-.51-.57-.55-.74-1.44-.49-2.15s.71-1.22 1.2-1.58c.53-.35 1.12-.45 1.7-.45.59.02 1.16.18 1.83.5.67.32 1.27 1.1 1.2 1.95-.03.87-.75 1.55-1.45 1.78v.01zM122.65 155.221a3.09 3.09 0 0 0-1.08-1.22c-.48-.3-1.03-.48-1.6-.54-1.14-.12-2.31.36-3.09 1.15-.81.77-1.19 1.92-1.06 2.93.12 1.02.53 1.89 1.1 2.65.55.74 1.34 1.54 2.44 1.75 1.07.23 2.28-.25 2.87-1.15.61-.9.72-1.87.82-2.73.06-.87.08-1.85-.39-2.84h-.01zm-1.25 4.61c-.71.24-1.27.35-1.92.45-.63.1-1.5.06-2.07-.51-.57-.55-.74-1.44-.49-2.15s.71-1.22 1.2-1.58c.53-.35 1.12-.45 1.7-.45.59.02 1.16.18 1.83.5.67.32 1.27 1.1 1.2 1.95-.03.87-.75 1.55-1.45 1.78v.01zM147.06 61.15c-6.75-.66-13.51-1.2-20.27-1.76-6.76-.58-13.52-1.13-20.28-1.61-6.76-.52-13.53-.96-20.3-1.42L65.9 55.09c-.15 0-.28.1-.29.25l-.07 1.23c0 .14.09.26.23.28 6.77.66 13.52 1.32 20.28 2.12l20.35 2.42c6.79.78 13.55 1.44 20.3 2.13 6.74.67 13.45 1.3 20.09 1.9l.34-4.17s-.03-.08-.07-.08v-.02z" fill="#000"/><path d="m88.52 52.37 29.381-50.48 45.94 25.17-17.96 29.46-57.36-4.15z" fill="url(#c)"/><path d="m164.2 26.41-11.61-6.06c-3.88-2.01-7.72-4.08-11.56-6.16-7.7-4.12-15.24-8.52-22.8-12.89a.645.645 0 0 0-.88.22l-.02.03c-2.57 4.19-5.15 8.42-7.62 12.7-2.49 4.28-4.91 8.58-7.31 12.86l-7.07 12.78-6.89 12.53 28.32 2.72c4.81.44 9.63.91 14.49 1.31 4.85.41 9.71.8 14.57 1.13h.01c.38.03.76-.16.97-.51l8.88-14.79c2.97-4.93 5.88-9.88 8.8-14.83v-.02l.03-.03c.19-.36.05-.8-.31-.99zM154.05 41.3l-8.73 14.12c-4.49-.34-8.97-.63-13.47-.9-4.7-.29-9.44-.51-14.2-.76l-7.09-.35 13.04-6.2-4.35-39.76 2.39 37.6-14.09 8.2-18.95-.93 15.42-25.18c2.49-4.13 4.97-8.24 7.38-12.38 2.32-3.95 4.54-7.95 6.76-11.98 7.56 3.91 15.12 7.81 22.54 11.98 3.82 2.12 7.63 4.24 11.41 6.43l10.67 6.13c-2.93 4.65-5.86 9.3-8.74 13.97l.01.01z" fill="#000"/><path d="m65.019 63.07-1.485 20.506 81.168 5.875 1.484-20.506-81.168-5.875z" fill="#fff"/><path d="M146.26 68.26h-.03l-20.27-1.78c-6.76-.55-13.52-1.07-20.29-1.53l-20.3-1.31c-6.77-.41-13.54-.79-20.32-1.12h-.02c-.3-.02-.55.21-.56.51l-.56 10.27-.67 10.26c-.01.17.11.31.28.32 6.78.48 13.56 1.14 20.39 1.78 6.82.64 13.69 1.27 20.5 1.71 6.81.44 13.62.87 20.35 1.21l10.07.52 9.94.43 1.08-10.13 1.03-10.4c.03-.38-.24-.7-.61-.73l-.01-.01zm-1.63 21.11-10.35-1.04-10.22-.95c-6.8-.64-13.51-1.19-20.23-1.73-6.71-.54-13.37-.89-20.08-1.23-6.6-.33-13.25-.65-19.9-1.13l.79-9.95.87-9.69c6.57.63 13.15 1.21 19.73 1.77l20.28 1.63c6.76.52 13.53.97 20.3 1.41l19.65 1.12-.42 9.41-.41 10.38h-.01z" fill="#000"/><path d="m86.04 69.24-6.58-.35c-.29-.03-.5.19-.53.46-.3 3.39-.55 6.86-.77 10.32-.02.28.19.51.47.53.3.02.51-.19.53-.47.2-3.28.45-6.58.72-9.81l5.62.3c-.04 3.22-.16 6.48-.35 9.72-.02.28.19.51.47.53h.03c.26 0 .48-.21.5-.47.2-3.41.32-6.86.36-10.24 0-.27-.21-.49-.47-.5v-.02zM94.61 69.69c-1.32-.09-2.6.39-3.6 1.36-.99.96-1.59 2.27-1.69 3.71-.1 1.44.3 2.83 1.14 3.92.85 1.1 2.05 1.77 3.37 1.86.11 0 .22.01.32.01 2.57 0 4.76-2.21 4.97-5.08.22-2.99-1.81-5.58-4.51-5.78zm-.71 9.85c-1.03-.07-1.97-.6-2.65-1.47-.69-.89-1.02-2.04-.93-3.23.09-1.19.58-2.28 1.39-3.07.73-.71 1.64-1.09 2.58-1.09h.25c2.15.16 3.76 2.27 3.58 4.71-.18 2.44-2.09 4.32-4.23 4.14l.01.01zM107.89 71.07a.503.503 0 0 0-.54.46c-.15 1.83-.34 3.66-.55 5.49-.03.02-.06.03-.08.05-.14.13-.5.09-.7.08-.68-.06-1.39-.12-2.01-.38-.61-.25-1.06-.7-1.19-1.19-.08-.28-.06-.62-.05-.91.05-1.29.14-2.59.26-3.86a.49.49 0 0 0-.45-.54.502.502 0 0 0-.54.45c-.12 1.29-.21 2.61-.26 3.91-.01.35-.03.79.09 1.21.22.8.86 1.48 1.78 1.85.76.31 1.58.38 2.3.45.11 0 .24.02.39.02.11 0 .22-.01.34-.03-.13 1.04-.25 2.08-.4 3.11-.04.27.15.53.42.57h.07c.24 0 .46-.18.49-.43.48-3.24.85-6.53 1.11-9.78a.497.497 0 0 0-.46-.54l-.02.01zM120.84 71.66l-9.21-.67a.51.51 0 0 0-.54.46c-.02.28.19.51.46.54l4.01.29-.69 9.49c-.02.28.19.51.46.54h.04c.26 0 .48-.2.5-.46l.69-9.49 4.2.3h.04c.26 0 .48-.2.5-.46a.51.51 0 0 0-.46-.54zM132.28 78.98a.54.54 0 0 0-.12-.36c-.05-.53-.13-1.06-.22-1.58-.2-1.08-.56-2.44-1.54-3.37-.88-.82-2-1.09-2.79-1.17-.34-.03-.85-.06-1.33.12-1.17.41-1.67 1.67-1.98 2.72-.68 2.35-1.16 4.78-1.43 7.21-.03.27.17.52.44.55.26.03.52-.17.55-.44.14-1.25.34-2.5.59-3.74l6.76.49c.09 1.35.04 2.7-.16 4.04-.04.27.15.53.42.57h.08c.24 0 .46-.18.49-.42.22-1.46.27-2.92.17-4.38.04-.07.08-.14.08-.23l-.01-.01zm-7.62-1.05c.18-.78.37-1.55.59-2.31.24-.82.61-1.79 1.35-2.06.23-.08.52-.1.9-.06.63.06 1.53.27 2.2.9.78.73 1.08 1.89 1.25 2.83.07.39.12.78.17 1.18l-6.46-.47v-.01zM149.73 50.34c.45 1.29.3 2.8-.41 4.03-.7 1.24-1.95 2.2-3.4 2.5-.72.17-1.49.13-2.12.1l-1.99-.08-3.98-.18c-5.3-.27-10.6-.59-15.89-1.09-5.28-.53-10.56-1.2-15.85-1.66-5.29-.46-10.59-.72-15.9-.93-5.31-.19-10.61-.43-15.91-.76l-3.97-.24-1.99-.12c-.35-.02-.63-.03-1.03-.07-.4-.04-.8-.11-1.18-.23a5.819 5.819 0 0 1-3.55-3.09c-.7-1.47-.75-3.22-.13-4.72.62-1.5 1.87-2.71 3.39-3.27.75-.28 1.57-.4 2.36-.36.71.04 1.34.12 2.01.17l7.93.76c5.28.55 10.56 1.12 15.83 1.83.05 0 .09.06.09.11s-.05.09-.1.09c-5.32-.05-10.63-.25-15.93-.46l-7.95-.39-1.96-.1c-.53-.02-1.05.07-1.54.27-.97.38-1.77 1.19-2.14 2.15-.38.96-.37 2.08.08 3.02.44.94 1.28 1.68 2.26 2.01.25.09.5.14.76.17.26.04.64.06.96.09l1.98.17 3.97.34c5.29.44 10.57.97 15.85 1.54 5.28.56 10.57 1.06 15.87 1.37 5.3.31 10.61.4 15.92.64 5.3.27 10.59.71 15.88 1.21l3.96.39 1.98.2c.69.08 1.26.16 1.84.07 1.17-.16 2.3-.81 3.02-1.82.72-1 1.02-2.33.79-3.62 0-.05.03-.11.08-.12.05 0 .1.02.11.07v.01z" fill="#000"/><path d="M95.85 218.39c8.599 0 15.57-6.971 15.57-15.57s-6.971-15.57-15.57-15.57-15.57 6.971-15.57 15.57 6.971 15.57 15.57 15.57z" fill="#fff"/><path d="M97.703 211.665c-3.29.668-6.498-1.451-7.167-4.734l-.595-2.908a1.16 1.16 0 0 1 .91-1.37l9.626-1.965a1.159 1.159 0 0 1 1.371.909l.595 2.908c.668 3.289-1.451 6.498-4.733 7.166l-.007-.006z" fill="#0ABBEF"/><path d="m102.931 204.552-.388-2.494-.047-.314c-.013-.1-.026-.201-.066-.361a1.71 1.71 0 0 0-.328-.628 1.73 1.73 0 0 0-.903-.582 1.73 1.73 0 0 0-.454-.06c-.154 0-.328.033-.408.047l-.094.02a17.087 17.087 0 0 0-.04-.221l-.294-1.691a4.955 4.955 0 0 0-.595-1.652 5.208 5.208 0 0 0-2.707-2.293 5.351 5.351 0 0 0-3.664 0c-1.196.428-2.22 1.331-2.841 2.467-.595 1.13-.822 2.514-.515 3.757.014.074.034.141.047.214.114.528.234 1.057.361 1.585-.12.053-.227.12-.328.194-.24.193-.427.441-.541.715a1.8 1.8 0 0 0-.114.876c.027.16.054.26.08.361l.08.3.623 2.447a6.695 6.695 0 0 0 2.988 4.112c.621.394 1.31.675 2.019.835.555.134 1.13.181 1.698.167H96.647c.12 0 .24-.006.36-.02 0 0 .395-.06.409-.06l.207-.04h.02-.013l.227-.047a6.659 6.659 0 0 0 3.931-2.667 6.693 6.693 0 0 0 1.136-4.954l.007-.013zm-5.876-3.797-4.78.949c-.04-.261-.241-1.471-.281-1.732-.26-1.631.922-3.242 2.447-3.469a2.945 2.945 0 0 1 2.166.448c.621.428 1.083 1.076 1.237 1.825.12.588.254 1.17.387 1.758-.394.074-.789.147-1.176.221z" fill="#000"/><path d="m97.81 207.213-.054-.12-.1-.234c-.127-.295-.254-.589-.368-.89.415-.367.562-.922.408-1.397.08.254.06.542-.067.776a.93.93 0 0 1-.555.468l-.093-.395-.448-.02a.664.664 0 0 1-.502-.261.737.737 0 0 1-.08-.762c.12-.287.468-.528.856-.501.388.02.769.301.889.695a1.344 1.344 0 0 0-.856-.855 1.392 1.392 0 0 0-1.344.28c-.4.335-.621.956-.46 1.538.106.434.434.815.855 1.023.04.2.08.408.133.608l.074.241.094.294c.147.441.642.695 1.05.582.414-.094.694-.515.621-.896-.02-.114-.04-.141-.053-.181v.007z" fill="#000"/><path d="M105.16 190.22c3.27 2.44 5.85 6 6.73 10.2.95 4.16-.14 8.8-2.83 12.17-2.69 3.4-6.74 5.44-10.86 5.96-4.12.57-8.44-.37-11.95-2.75-3.53-2.33-6.09-6.24-6.77-10.52-.74-4.27.31-8.87 2.95-12.37 2.61-3.5 6.73-5.86 11-6.16 4.27-.37 8.45 1.04 11.73 3.47zm-.12.17c-3.27-2.45-7.6-3.15-11.4-2.28-3.8.88-7.2 3.04-9.42 6.12-2.23 3.05-3.31 6.95-2.8 10.75.5 3.79 2.46 7.4 5.51 9.9 3.04 2.5 7.22 3.68 11.17 3 3.96-.66 7.42-3.14 9.56-6.32 2.19-3.18 3.22-7.04 2.93-10.95-.3-3.89-2.24-7.83-5.55-10.22z" fill="#000"/><defs><linearGradient id="a" x1="1.51" y1="153.94" x2="210.84" y2="153.94" gradientUnits="userSpaceOnUse"><stop stop-color="#76B82A"/><stop offset=".26" stop-color="#73B42A"/><stop offset=".49" stop-color="#6DA92A"/><stop offset=".72" stop-color="#61972A"/><stop offset=".93" stop-color="#517D2B"/><stop offset="1" stop-color="#4C742C"/></linearGradient><linearGradient id="b" x1="51.85" y1="104.85" x2="166.61" y2="104.85" gradientUnits="userSpaceOnUse"><stop stop-color="#0ABBEF"/><stop offset=".24" stop-color="#0D9ACF"/><stop offset=".76" stop-color="#14598E"/><stop offset="1" stop-color="#174075"/></linearGradient><linearGradient id="c" x1="88.52" y1="29.201" x2="163.841" y2="29.201" gradientUnits="userSpaceOnUse"><stop stop-color="#FFED00"/><stop offset=".09" stop-color="#FDE204"/><stop offset=".71" stop-color="#F2A120"/><stop offset="1" stop-color="#EE882C"/></linearGradient></defs></svg>