<svg width="212" height="224" viewBox="0 0 212 224" fill="none" xmlns="http://www.w3.org/2000/svg">
<g clip-path="url(#clip0_3089_55705)">
<path d="M106.68 200.02C164.487 200.02 211.35 179.64 211.35 154.5C211.35 129.36 164.487 108.98 106.68 108.98C48.8721 108.98 2.00977 129.36 2.00977 154.5C2.00977 179.64 48.8721 200.02 106.68 200.02Z" fill="url(#paint0_linear_3089_55705)"/>
<path d="M211.34 154.501C211.31 157.061 210.81 159.591 209.92 161.991C209.06 164.401 207.69 166.601 206.19 168.661L205.02 170.181L203.74 171.601C203.32 172.091 202.87 172.541 202.4 172.971L201.02 174.301C199.09 175.981 197.1 177.591 194.97 179.011C186.5 184.771 176.96 188.771 167.23 191.851C162.35 193.371 157.4 194.701 152.41 195.801C147.41 196.891 142.37 197.781 137.3 198.521C132.23 199.241 127.14 199.751 122.03 200.151C116.92 200.521 111.8 200.701 106.68 200.781C101.56 200.801 96.43 200.711 91.31 200.431C86.19 200.131 81.08 199.711 75.98 199.081C65.8 197.801 55.67 195.881 45.8 192.891C35.97 189.881 26.27 185.991 17.59 180.171C15.41 178.731 13.37 177.091 11.38 175.371L9.95 174.001C9.47 173.551 9 173.091 8.56 172.581L7.22 171.111L5.99 169.541C4.42 167.401 2.96 165.101 2.04 162.531C1.08 159.991 0.53 157.271 0.5 154.521C0.53 151.771 1.08 149.051 2.04 146.511C2.97 143.941 4.42 141.651 5.99 139.501L7.22 137.931L8.56 136.461C9 135.961 9.46 135.491 9.95 135.041L11.38 133.671C13.37 131.951 15.41 130.311 17.59 128.871C26.26 123.041 35.96 119.151 45.79 116.141C55.65 113.141 65.79 111.231 75.97 109.951C81.06 109.321 86.18 108.901 91.3 108.601C96.42 108.321 101.55 108.231 106.67 108.251C111.79 108.331 116.91 108.511 122.02 108.881C127.13 109.271 132.22 109.791 137.29 110.511C142.36 111.241 147.4 112.141 152.4 113.231C157.4 114.331 162.34 115.671 167.22 117.191C176.96 120.271 186.5 124.271 194.96 130.031C197.09 131.441 199.08 133.061 201.01 134.741L202.39 136.071C202.86 136.511 203.31 136.961 203.73 137.441L205.01 138.861L206.18 140.381C207.68 142.441 209.05 144.631 209.91 147.051C210.8 149.441 211.3 151.981 211.33 154.541L211.34 154.501ZM211.34 154.501C211.3 151.941 210.79 149.411 209.89 147.021C209.02 144.611 207.64 142.431 206.14 140.381L204.96 138.871L203.67 137.451C203.25 136.971 202.8 136.521 202.33 136.081L200.95 134.761C199.02 133.091 197.03 131.491 194.9 130.091C186.41 124.391 176.83 120.541 167.1 117.561C157.33 114.601 147.28 112.691 137.17 111.421C132.11 110.791 127.03 110.371 121.95 110.081C116.86 109.801 111.77 109.711 106.68 109.731C101.59 109.811 96.5 109.991 91.42 110.361C86.35 110.751 81.28 111.261 76.25 111.981C71.22 112.711 66.21 113.601 61.26 114.681C56.3 115.771 51.4 117.091 46.57 118.601C36.93 121.641 27.51 125.611 19.23 131.241C17.15 132.621 15.21 134.201 13.34 135.821L12.01 137.111C11.56 137.531 11.12 137.971 10.72 138.431L9.48 139.801L8.36 141.251C6.93 143.211 5.63 145.291 4.83 147.551C4 149.791 3.54 152.141 3.51 154.501C3.54 156.871 4 159.221 4.83 161.461C5.63 163.721 6.93 165.791 8.36 167.761L9.48 169.211L10.72 170.581C11.12 171.051 11.56 171.481 12.01 171.901L13.34 173.191C15.21 174.811 17.14 176.391 19.23 177.771C27.51 183.411 36.93 187.371 46.57 190.411C51.4 191.921 56.3 193.241 61.26 194.331C66.22 195.411 71.22 196.301 76.26 197.031C81.29 197.751 86.36 198.261 91.43 198.651C96.51 199.021 101.59 199.201 106.69 199.281C111.78 199.301 116.88 199.211 121.96 198.931C127.05 198.631 132.13 198.211 137.18 197.581C147.29 196.311 157.35 194.401 167.11 191.441C176.84 188.461 186.43 184.611 194.91 178.911C197.04 177.511 199.03 175.901 200.96 174.241L202.34 172.921C202.81 172.491 203.26 172.041 203.68 171.551L204.97 170.131L206.15 168.621C207.65 166.571 209.03 164.391 209.9 161.981C210.8 159.591 211.31 157.061 211.35 154.501H211.34Z" fill="black"/>
<path d="M105.35 26.5086L52.3003 22.9286L51.5203 22.8786L42.9403 146.339C42.9403 146.339 39.5603 158.319 44.6003 164.159C49.6403 169.999 53.6403 172.949 53.6403 172.949L110.8 178.499H150.28L157.13 113.999L162.8 33.8286L112.1 6.83859L104.67 5.55859H52.3603L52.3203 20.2086" fill="white"/>
<path d="M56.5804 22.8498C52.8304 61.5098 50.5104 100.3 49.6304 139.13C49.4904 145.46 49.3904 151.91 51.1404 158C52.8904 164.09 59.7404 170.9 65.5504 173.42C60.8704 174.04 52.6304 173.48 48.9704 170.5C46.4804 168.47 43.9104 164.53 43.4104 161.36C41.5604 149.55 42.7804 137.38 44.5104 124.93L51.5204 22.8698L57.3004 22.8398" fill="#0ABBEF"/>
<path d="M95.6303 5.2298C78.4703 3.6398 61.3003 2.1698 44.1203 0.839797C43.7903 0.809797 43.4103 0.809797 43.1803 1.0498C43.0003 1.2298 42.9703 1.5098 42.9603 1.7598C42.7803 5.4198 44.6303 8.9198 47.0303 11.6898C48.0903 12.9098 49.2903 14.0398 50.7203 14.7898C52.7603 15.8498 55.1203 16.0698 57.4103 16.2498C59.4703 16.4098 61.5403 16.5598 63.6103 16.6898C61.6603 13.8698 59.9603 10.8798 58.5303 7.7598C69.4303 7.7598 80.3203 7.7398 91.2203 7.7298C97.4703 7.7298 103.78 7.7098 109.88 6.3898" fill="#0ABBEF"/>
<path d="M97.5305 43.7592L96.5605 41.1292C89.2005 39.1892 81.6805 37.8692 74.1105 37.1892C70.2305 36.8392 66.2205 36.6692 62.5505 37.9892C58.8805 39.3092 55.6205 42.4292 55.2505 46.3092C55.1405 47.4792 55.3005 48.6892 55.8405 49.7292C57.1205 52.1892 60.1405 53.1392 62.8905 53.5192C65.5105 53.8792 68.1605 53.9392 70.8005 53.9492C77.1305 53.9792 83.4505 53.7492 89.7605 53.2692C84.1405 52.6192 78.5105 51.9692 72.8905 51.3192C72.1905 51.7492 71.3205 52.0092 70.2905 52.0092C69.5005 52.0092 68.8105 51.8592 68.2105 51.5892C67.9205 51.6392 67.6105 51.6692 67.2905 51.6692C60.8405 51.6692 60.8605 41.6692 67.2905 41.6692C67.9005 41.6692 68.4505 41.7592 68.9505 41.9192C69.4205 41.8792 69.9005 41.8692 70.3605 41.8792C79.4105 41.9892 88.3605 44.3392 97.4005 43.9792C97.6305 43.9792 97.5505 43.5292 97.5205 43.7492L97.5305 43.7592Z" fill="#0ABBEF"/>
<path d="M137.09 68.318C113.77 63.008 89.5803 63.398 65.8303 60.558C64.0903 60.348 62.5103 61.608 62.3403 63.358C61.6903 70.258 61.0703 77.158 60.4703 84.058C60.3103 85.868 61.7303 87.438 63.5503 87.448C87.0603 87.688 110.57 87.398 134.07 86.588" fill="#0ABBEF"/>
<path d="M77.5302 154.109C77.6502 152.359 77.4002 150.379 76.0202 149.299C75.2702 148.719 74.3002 148.499 73.3602 148.439C72.3502 148.379 71.2902 148.509 70.4402 149.059C69.6102 149.589 69.0502 150.489 68.8302 151.459C68.6102 152.429 68.7202 153.439 69.0302 154.379C69.5102 155.829 70.5502 157.169 72.0102 157.629C71.5102 156.889 71.0602 156.059 71.0502 155.169C71.0302 153.859 72.0402 152.649 73.3002 152.269C74.5602 151.889 75.9802 152.269 77.0002 153.089" fill="#0ABBEF"/>
<path d="M92.5903 155.108C92.1203 154.428 91.6203 153.728 90.8803 153.378C89.9703 152.948 88.8203 153.158 88.0303 153.788C87.2403 154.418 86.7703 155.398 86.6303 156.398C86.5003 157.348 86.7503 158.498 87.6403 158.858C86.2503 158.288 85.4203 156.888 84.6803 155.578C84.4403 155.148 84.1903 154.698 84.1303 154.208C83.9903 153.158 84.6903 152.198 85.4303 151.448C86.0503 150.828 86.7503 150.258 87.5803 149.948C89.0703 149.398 90.8603 149.868 91.9503 151.028C93.0403 152.188 93.4203 153.938 92.9703 155.468" fill="#0ABBEF"/>
<path d="M68.2699 161.188C67.5699 160.478 66.6599 159.938 65.6599 159.818C64.6599 159.698 63.5999 160.028 62.9499 160.788C61.9299 161.978 62.1899 163.838 62.9399 165.218C62.1799 164.788 61.4399 164.288 60.8599 163.638C60.2799 162.988 59.8799 162.138 59.8799 161.268C59.8799 160.558 60.1499 159.878 60.5199 159.278C61.5599 157.638 63.5899 156.598 65.4899 156.988C67.3899 157.378 68.9099 159.338 68.5699 161.248" fill="#0ABBEF"/>
<path d="M83.9202 162.599C83.2602 161.629 82.1902 160.929 81.0202 160.859C79.8502 160.789 78.6402 161.399 78.1202 162.449C77.5202 163.649 77.9002 165.109 78.5002 166.309C77.6102 166.079 77.0502 165.199 76.6602 164.369C76.2202 163.449 75.8602 162.399 76.1602 161.429C76.4302 160.549 77.1902 159.919 77.9502 159.399C79.0002 158.679 80.1802 158.049 81.4502 157.999C82.7202 157.949 84.1002 158.609 84.5302 159.809C84.8002 160.559 84.6802 161.389 84.4802 162.159" fill="#0ABBEF"/>
<path d="M99.5298 165.019C100.27 163.429 99.8498 161.379 98.5398 160.209C97.2298 159.039 95.1398 158.869 93.6498 159.799C92.1598 160.729 91.3998 162.679 91.8698 164.369C92.1898 165.519 92.9898 166.469 93.8398 167.309C93.2898 166.189 92.9298 164.799 93.5798 163.729C93.8398 163.289 94.2498 162.959 94.6898 162.699C95.5898 162.169 96.6898 161.929 97.6798 162.239C98.6698 162.549 99.4799 163.499 99.4499 164.539" fill="#0ABBEF"/>
<path d="M102.32 159.209C101.63 158.299 101.38 157.069 101.7 155.979C102.02 154.889 102.94 153.979 104.04 153.719C105.14 153.459 106.4 153.889 107.07 154.799C107.78 155.759 107.8 157.039 107.79 158.229C108.09 157.319 108.39 156.389 108.45 155.429C108.51 154.469 108.3 153.449 107.69 152.719C107.32 152.279 106.82 151.959 106.29 151.739C104.34 150.959 101.93 151.689 100.62 153.339C100.16 153.929 99.8099 154.639 99.8299 155.389C99.8499 156.589 100.76 157.559 101.61 158.409" fill="#0ABBEF"/>
<path d="M118.991 155.249C117.321 155.709 116.22 157.669 116.71 159.329C115.89 158.469 115.7 157.159 115.86 155.979C116.06 154.579 116.751 153.199 117.921 152.409C119.441 151.379 121.671 151.569 122.991 152.839C124.311 154.109 124.61 156.319 123.65 157.889C123.04 156.379 121.311 155.419 119.701 155.689" fill="#0ABBEF"/>
<path d="M114.62 165.17C115.22 164.13 115.05 162.74 114.31 161.8C113.57 160.86 112.34 160.36 111.14 160.41C109.94 160.46 108.8 161.01 107.92 161.81C106.88 162.77 106.16 164.2 106.43 165.59C106.66 166.77 107.59 167.76 108.72 168.18C107.91 166.7 108.47 164.62 109.91 163.74C111.35 162.86 113.45 163.31 114.4 164.7" fill="#0ABBEF"/>
<path d="M129.89 166.119C129.12 164.659 127.12 163.999 125.63 164.709C124.14 165.419 123.4 167.399 124.05 168.909C123.17 168.489 122.57 167.599 122.36 166.649C122.15 165.699 122.29 164.699 122.6 163.769C122.76 163.309 122.96 162.849 123.29 162.489C123.65 162.099 124.13 161.859 124.61 161.649C125.45 161.279 126.36 160.959 127.28 161.069C128.46 161.209 129.48 162.069 130.01 163.139C130.51 164.129 130.63 165.289 130.35 166.359" fill="#0ABBEF"/>
<path d="M167.11 28.5599L157.4 162.7L156.35 177.21C156.11 180.58 153.18 183.12 149.8 182.88L67.7196 176.94L63.3496 176.62C59.2796 176.32 55.5296 174.98 52.3496 172.86L141.16 179.29C144.54 179.54 147.47 177 147.72 173.62L158.26 27.9199L167.11 28.5599Z" fill="url(#paint1_linear_3089_55705)"/>
<path d="M108.7 20.2295L163.92 24.2295C171.82 24.7995 178.68 18.8595 179.25 10.9695L109.73 5.93945L108.7 20.2395V20.2295Z" fill="white"/>
<path d="M179.27 10.489H179.2L179.06 10.469L178.77 10.439L174.18 9.98897C171.12 9.67897 168.06 9.37897 165 9.10897C158.88 8.53897 152.74 8.07897 146.62 7.55897C134.87 6.57897 123.11 5.93897 111.33 5.37897C99.6001 4.23897 87.8601 3.17897 76.0901 2.45897C69.9501 2.08897 63.8201 1.65897 57.6701 1.34897C54.6001 1.16897 51.5301 1.02897 48.4501 0.898972L43.8401 0.678972H43.5501L43.4101 0.658972H43.3401C43.7801 0.258972 42.7001 1.18897 42.8101 1.10897V1.73897C42.8201 2.13897 42.7801 2.52897 42.8401 2.92897L42.9601 4.10897L43.2001 5.26897C44.1701 9.76897 47.4001 13.529 51.5101 15.479C50.8301 15.449 50.1501 15.419 49.4601 15.389H49.4301C49.1401 15.379 48.8901 15.599 48.8801 15.899L48.7001 19.989V20.009C48.6901 20.239 48.8701 20.439 49.1001 20.449C49.6201 20.469 50.1501 20.509 50.6701 20.539C48.1501 54.179 45.8001 87.839 43.5401 121.499L41.8801 146.849C41.7601 148.979 41.5701 151.039 41.5001 153.219C41.4601 155.389 41.7201 157.569 42.2801 159.669C43.3801 163.869 45.7001 167.729 48.8601 170.689C49.7801 171.559 50.7901 172.349 51.8401 173.059C51.8801 173.169 51.9401 173.259 52.0501 173.329C54.3401 174.839 56.9101 175.929 59.5701 176.539C60.9001 176.839 62.2701 177.039 63.6201 177.109L67.6301 177.369L83.6601 178.439C88.5401 178.779 93.4101 179.119 98.2901 179.459L123.58 181.389L129.91 181.899L133.08 182.159C133.73 182.169 134.39 182.219 135.05 182.229L147.76 183.269L149.76 183.429C150.49 183.479 151.23 183.429 151.94 183.249C153.37 182.899 154.66 182.049 155.58 180.899C156.49 179.759 157.01 178.229 157.05 176.839L157.38 172.839L158.18 162.909C158.26 162.499 158.33 162.089 158.36 161.679C158.53 160.579 158.58 159.529 158.66 158.469L158.9 155.289L160.78 129.829C163.1 96.039 165.32 62.229 167.28 28.949C168.43 29.049 169.58 29.139 170.73 29.259C170.96 29.279 171.17 29.109 171.19 28.879V28.859L171.6 24.779C171.63 24.489 171.42 24.229 171.13 24.199H171.1C170.42 24.119 169.74 24.059 169.06 23.989C173.4 22.649 177.14 19.399 178.75 15.079L179.15 13.959L179.44 12.809C179.55 12.429 179.58 12.029 179.64 11.639L179.73 11.049V11.009C179.84 11.099 178.9 10.029 179.28 10.479L179.27 10.489ZM110.29 6.65897C110.6 6.66897 110.91 6.68897 111.22 6.70897C111.53 6.73897 111.84 6.76897 112.15 6.79897C112.07 8.88897 111.98 10.989 111.92 13.129L111.71 20.019C111.23 20.009 110.74 19.989 110.26 19.969C109.78 19.909 109.3 19.859 108.81 19.809L109.6 12.969C109.85 10.839 110.07 8.75897 110.29 6.67897V6.65897ZM48.4001 12.749C46.1201 10.779 44.5601 8.02897 43.9501 5.10897L43.7801 3.99897L43.7201 2.87897C43.6801 2.50897 43.7301 2.13897 43.7401 1.75897V1.63897H43.7801L48.3701 2.08897C51.4301 2.39897 54.4901 2.69897 57.5501 2.96897C63.6701 3.53897 69.8101 3.99897 75.9301 4.51897C86.9601 5.43897 98.0201 6.05897 109.08 6.59897C108.99 8.81897 108.89 11.029 108.83 13.209L108.64 19.779C104.51 19.309 100.38 18.859 96.2501 18.459C91.0601 17.969 85.8701 17.519 80.6801 17.129C75.4901 16.739 70.2801 16.469 65.0801 16.139C61.3101 15.919 57.5401 15.739 53.7701 15.569C53.2501 15.429 52.7301 15.279 52.2301 15.089C50.8201 14.549 49.5501 13.719 48.4001 12.749ZM43.4101 159.379C42.9101 157.379 42.6901 155.309 42.7601 153.249C42.8501 151.199 43.0701 149.039 43.2201 146.949L45.2201 121.619C47.8101 88.189 50.3101 54.739 52.6501 21.289L80.5201 23.199L109.41 25.119L123.13 25.989C123.26 25.999 123.39 26.019 123.52 26.029C128.69 26.519 133.9 26.999 139.19 27.339C144.48 27.659 149.81 27.819 155.07 28.059C156.06 28.109 157.03 28.179 158.01 28.239C157.14 38.289 156.28 48.329 155.48 58.389L153.03 88.889L150.65 119.389L148.4 149.899L147.28 165.159L146.72 172.789C146.69 173.089 146.68 173.459 146.65 173.709C146.63 173.969 146.57 174.229 146.51 174.489C146.37 174.999 146.16 175.489 145.88 175.939C145.3 176.819 144.46 177.549 143.47 177.919C142.98 178.109 142.46 178.239 141.93 178.269C141.66 178.299 141.42 178.269 141.11 178.269L140.16 178.199L136.34 177.939L128.71 177.409L113.45 176.349L52.4001 172.309C51.3901 171.609 50.4301 170.829 49.5401 169.979C46.5601 167.109 44.4001 163.389 43.4101 159.389V159.379ZM133.14 181.159L129.97 180.959L123.63 180.559L98.2801 178.829C97.6601 178.789 97.0501 178.739 96.4301 178.699C92.1901 178.379 87.9401 178.059 83.7001 177.749L67.6801 176.499L63.6801 176.179C62.3601 176.089 61.0701 175.879 59.7901 175.569C58.0201 175.129 56.3101 174.459 54.7001 173.609L113.3 178.219L128.55 179.369L136.18 179.949L139.99 180.239L140.87 180.309C139.36 180.759 137.81 181.049 136.23 181.139C135.2 181.269 134.17 181.169 133.13 181.169L133.14 181.159ZM167.01 28.929C165.19 50.429 163.43 71.709 161.75 92.929L159.28 124.849C158.46 135.479 157.76 146.099 157.01 156.739L156.69 161.779C156.44 163.719 156.04 165.619 155.23 167.409C154.87 168.369 154.37 169.259 153.89 170.169C153.33 171.029 152.81 171.919 152.15 172.699C151.54 173.529 150.8 174.249 150.1 174.999C149.32 175.669 148.58 176.379 147.72 176.959C147.72 176.959 147.72 176.959 147.71 176.959C148.08 176.359 148.37 175.709 148.56 175.029C148.65 174.669 148.73 174.299 148.76 173.929C148.81 173.549 148.82 173.279 148.85 172.939L149.4 165.309L150.49 150.049L152.65 119.529L154.68 88.999L156.65 58.469C157.3 48.409 157.9 38.339 158.48 28.269C161.34 28.449 164.19 28.659 167.03 28.919L167.01 28.929ZM155.73 176.759C155.71 178.049 155.32 179.169 154.59 180.149C153.85 181.099 152.81 181.829 151.63 182.129C151.04 182.289 150.44 182.339 149.83 182.319L147.83 182.189L140.06 181.699C140.95 181.499 141.83 181.259 142.69 180.969C144.75 180.289 146.7 179.269 148.48 178.019C149.39 177.419 150.2 176.689 151.03 175.989C151.79 175.209 152.59 174.459 153.25 173.589C153.97 172.769 154.54 171.829 155.15 170.929C155.52 170.259 155.9 169.589 156.24 168.899L155.99 172.759L155.74 176.769L155.73 176.759ZM178.72 11.529C178.67 11.899 178.67 12.279 178.58 12.639L178.36 13.739L178.03 14.809C177.01 17.619 175.07 20.109 172.52 21.729C171.25 22.519 169.86 23.169 168.39 23.489C167.86 23.609 167.33 23.689 166.8 23.749C163.04 23.369 159.29 22.999 155.53 22.679C150.34 22.249 145.15 21.769 139.95 21.409C134.75 21.049 129.55 20.739 124.35 20.479C120.2 20.279 116.05 20.119 111.9 19.999L112.66 13.469C112.92 11.309 113.14 9.10897 113.37 6.89897C124.39 7.95897 135.42 8.93897 146.47 9.61897C152.61 9.98897 158.74 10.419 164.89 10.729C167.96 10.909 171.03 11.049 174.11 11.179L178.72 11.399H178.75L178.74 11.519L178.72 11.529Z" fill="black"/>
<path d="M68.8405 163.289C68.7105 165.109 67.1306 166.469 65.3106 166.339C63.4906 166.209 62.1305 164.629 62.2605 162.809C62.3905 160.989 63.9705 159.629 65.7905 159.759C67.6105 159.889 68.9705 161.469 68.8405 163.289Z" fill="white"/>
<path d="M84.1902 164.4C84.0602 166.22 82.4802 167.58 80.6602 167.45C78.8402 167.32 77.4802 165.74 77.6102 163.92C77.7402 162.1 79.3202 160.74 81.1402 160.87C82.9602 161 84.3202 162.58 84.1902 164.4Z" fill="white"/>
<path d="M99.53 165.509C99.4 167.329 97.82 168.689 96 168.559C94.18 168.429 92.82 166.849 92.95 165.029C93.08 163.209 94.66 161.849 96.48 161.979C98.3 162.109 99.66 163.689 99.53 165.509Z" fill="white"/>
<path d="M114.87 166.619C114.74 168.439 113.16 169.799 111.34 169.669C109.52 169.539 108.16 167.959 108.29 166.139C108.42 164.319 110 162.959 111.82 163.089C113.64 163.219 115 164.799 114.87 166.619Z" fill="white"/>
<path d="M130.22 167.728C130.09 169.548 128.51 170.908 126.69 170.778C124.87 170.648 123.51 169.068 123.64 167.248C123.77 165.428 125.35 164.068 127.17 164.198C128.99 164.328 130.35 165.908 130.22 167.728Z" fill="white"/>
<path d="M92.7717 156.301C92.8499 154.48 91.4372 152.94 89.6164 152.862C87.7955 152.784 86.256 154.197 86.1778 156.017C86.0995 157.838 87.5122 159.378 89.3331 159.456C91.154 159.534 92.6935 158.122 92.7717 156.301Z" fill="white"/>
<path d="M108.1 157.5C107.97 159.32 106.39 160.68 104.57 160.55C102.75 160.42 101.39 158.84 101.52 157.02C101.65 155.2 103.23 153.84 105.05 153.97C106.87 154.1 108.23 155.68 108.1 157.5Z" fill="white"/>
<path d="M67.4703 159.238C66.9903 158.938 66.4403 158.758 65.8703 158.698C64.7303 158.578 63.5603 159.058 62.7803 159.848C61.9703 160.618 61.5903 161.768 61.7203 162.778C61.8403 163.798 62.2503 164.668 62.8203 165.428C63.3703 166.168 64.1603 166.968 65.2603 167.178C66.3303 167.408 67.5403 166.928 68.1303 166.028C68.7403 165.128 68.8503 164.158 68.9503 163.298C69.0103 162.428 69.0303 161.448 68.5603 160.458C68.3203 159.978 67.9503 159.538 67.4803 159.238H67.4703ZM67.2903 165.068C66.5803 165.308 66.0203 165.418 65.3703 165.518C64.7403 165.618 63.8703 165.578 63.3003 165.008C62.7303 164.458 62.5603 163.568 62.8103 162.858C63.0603 162.148 63.5203 161.638 64.0103 161.278C64.5403 160.928 65.1303 160.828 65.7103 160.828C66.3003 160.848 66.8703 161.008 67.5403 161.328C68.2103 161.648 68.8103 162.428 68.7403 163.278C68.7103 164.148 67.9903 164.828 67.2903 165.058V165.068Z" fill="black"/>
<path d="M82.8102 160.347C82.3302 160.047 81.7802 159.867 81.2102 159.807C80.0702 159.687 78.9002 160.167 78.1202 160.957C77.3102 161.727 76.9302 162.877 77.0602 163.887C77.1802 164.907 77.5902 165.777 78.1602 166.537C78.7102 167.277 79.5002 168.077 80.6002 168.287C81.6702 168.517 82.8802 168.037 83.4702 167.137C84.0802 166.237 84.1902 165.267 84.2902 164.407C84.3502 163.537 84.3702 162.557 83.9002 161.567C83.6602 161.087 83.2902 160.647 82.8202 160.347H82.8102ZM82.6402 166.177C81.9302 166.417 81.3702 166.527 80.7202 166.627C80.0902 166.717 79.2202 166.687 78.6502 166.117C78.0802 165.567 77.9102 164.677 78.1602 163.967C78.4102 163.257 78.8702 162.747 79.3602 162.387C79.8902 162.037 80.4802 161.937 81.0602 161.937C81.6502 161.957 82.2202 162.117 82.8902 162.437C83.5602 162.757 84.1602 163.537 84.0902 164.387C84.0602 165.257 83.3402 165.937 82.6402 166.167V166.177Z" fill="black"/>
<path d="M98.15 161.459C97.67 161.159 97.12 160.979 96.55 160.919C95.41 160.799 94.24 161.279 93.46 162.069C92.65 162.839 92.27 163.989 92.4 164.999C92.52 166.019 92.93 166.889 93.5 167.649C94.05 168.389 94.84 169.189 95.94 169.399C97.01 169.629 98.22 169.149 98.81 168.249C99.42 167.349 99.53 166.379 99.63 165.519C99.69 164.649 99.71 163.669 99.24 162.679C99 162.199 98.63 161.759 98.16 161.459H98.15ZM97.98 167.289C97.27 167.529 96.71 167.639 96.06 167.739C95.43 167.839 94.56 167.799 93.99 167.229C93.42 166.679 93.25 165.789 93.5 165.079C93.75 164.369 94.21 163.859 94.7 163.499C95.23 163.149 95.82 163.049 96.4 163.049C96.99 163.069 97.56 163.229 98.23 163.549C98.9 163.869 99.5 164.649 99.43 165.499C99.4 166.369 98.68 167.049 97.98 167.279V167.289Z" fill="black"/>
<path d="M114.581 163.788C114.341 163.308 113.971 162.868 113.501 162.568C113.021 162.268 112.471 162.088 111.901 162.028C110.761 161.908 109.591 162.388 108.811 163.178C108.001 163.948 107.621 165.098 107.751 166.108C107.871 167.128 108.281 167.998 108.851 168.758C109.401 169.498 110.191 170.298 111.291 170.508C112.361 170.738 113.571 170.258 114.161 169.358C114.771 168.458 114.881 167.488 114.981 166.628C115.041 165.758 115.061 164.778 114.591 163.788H114.581ZM113.331 168.398C112.621 168.638 112.061 168.748 111.411 168.848C110.781 168.938 109.911 168.908 109.341 168.338C108.771 167.788 108.601 166.898 108.851 166.188C109.101 165.478 109.561 164.968 110.051 164.608C110.581 164.258 111.171 164.158 111.751 164.158C112.341 164.178 112.911 164.338 113.581 164.658C114.251 164.978 114.851 165.758 114.781 166.608C114.751 167.478 114.031 168.158 113.331 168.388V168.398Z" fill="black"/>
<path d="M77.1206 152.448C76.8806 151.968 76.5106 151.528 76.0406 151.228C75.5606 150.928 75.0106 150.748 74.4406 150.688C73.3006 150.568 72.1306 151.048 71.3506 151.838C70.5406 152.608 70.1606 153.758 70.2906 154.768C70.4106 155.788 70.8206 156.658 71.3906 157.418C71.9406 158.158 72.7306 158.958 73.8306 159.168C74.9006 159.398 76.1106 158.918 76.7006 158.018C77.3106 157.118 77.4206 156.148 77.5206 155.288C77.5806 154.418 77.6007 153.438 77.1307 152.448H77.1206ZM75.8706 157.058C75.1606 157.298 74.6006 157.408 73.9506 157.508C73.3206 157.598 72.4507 157.568 71.8807 156.998C71.3107 156.448 71.1406 155.558 71.3906 154.848C71.6406 154.138 72.1006 153.628 72.5906 153.268C73.1206 152.918 73.7106 152.818 74.2906 152.818C74.8806 152.838 75.4506 152.998 76.1206 153.318C76.7906 153.638 77.3906 154.418 77.3206 155.268C77.2906 156.138 76.5706 156.818 75.8706 157.048V157.058Z" fill="black"/>
<path d="M92.4703 153.558C92.2303 153.078 91.8603 152.638 91.3903 152.338C90.9103 152.038 90.3603 151.858 89.7903 151.798C88.6503 151.678 87.4803 152.158 86.7003 152.948C85.8903 153.718 85.5103 154.868 85.6403 155.878C85.7603 156.898 86.1703 157.768 86.7403 158.528C87.2903 159.268 88.0803 160.068 89.1803 160.278C90.2503 160.508 91.4603 160.028 92.0503 159.128C92.6603 158.228 92.7703 157.258 92.8703 156.398C92.9303 155.528 92.9503 154.548 92.4803 153.558H92.4703ZM91.2103 158.168C90.5003 158.408 89.9403 158.518 89.2903 158.618C88.6603 158.718 87.7903 158.678 87.2203 158.108C86.6503 157.558 86.4803 156.668 86.7303 155.958C86.9803 155.248 87.4403 154.738 87.9303 154.378C88.4603 154.028 89.0503 153.928 89.6303 153.928C90.2203 153.948 90.7903 154.108 91.4603 154.428C92.1303 154.748 92.7303 155.528 92.6603 156.378C92.6303 157.248 91.9103 157.928 91.2103 158.158V158.168Z" fill="black"/>
<path d="M107.81 154.669C107.57 154.189 107.2 153.749 106.73 153.449C106.25 153.149 105.7 152.969 105.13 152.909C103.99 152.789 102.82 153.269 102.04 154.059C101.23 154.829 100.85 155.979 100.98 156.989C101.1 158.009 101.51 158.879 102.08 159.639C102.63 160.379 103.42 161.179 104.52 161.389C105.59 161.619 106.8 161.139 107.39 160.239C108 159.339 108.11 158.369 108.21 157.509C108.27 156.639 108.29 155.659 107.82 154.669H107.81ZM106.55 159.279C105.84 159.519 105.28 159.629 104.63 159.729C104 159.819 103.13 159.789 102.56 159.219C101.99 158.669 101.82 157.779 102.07 157.069C102.32 156.359 102.78 155.849 103.27 155.489C103.8 155.139 104.39 155.039 104.97 155.039C105.56 155.059 106.13 155.219 106.8 155.539C107.47 155.859 108.07 156.639 108 157.489C107.97 158.359 107.25 159.039 106.55 159.269V159.279Z" fill="black"/>
<path d="M123.45 158.609C123.32 160.429 121.74 161.789 119.92 161.659C118.1 161.529 116.74 159.949 116.87 158.129C117 156.309 118.58 154.949 120.4 155.079C122.22 155.209 123.58 156.789 123.45 158.609Z" fill="white"/>
<path d="M129.93 164.897C129.69 164.417 129.32 163.977 128.85 163.677C128.37 163.377 127.82 163.197 127.25 163.137C126.11 163.017 124.94 163.497 124.16 164.287C123.35 165.057 122.97 166.207 123.1 167.217C123.22 168.237 123.63 169.107 124.2 169.867C124.75 170.607 125.54 171.407 126.64 171.617C127.71 171.847 128.92 171.367 129.51 170.467C130.12 169.567 130.23 168.597 130.33 167.737C130.39 166.867 130.41 165.887 129.94 164.897H129.93ZM128.67 169.507C127.96 169.747 127.4 169.857 126.75 169.957C126.12 170.057 125.25 170.017 124.68 169.447C124.11 168.897 123.94 168.007 124.19 167.297C124.44 166.587 124.9 166.077 125.39 165.717C125.92 165.367 126.51 165.267 127.09 165.267C127.68 165.287 128.25 165.447 128.92 165.767C129.59 166.087 130.19 166.867 130.12 167.717C130.09 168.587 129.37 169.267 128.67 169.497V169.507Z" fill="black"/>
<path d="M123.15 155.778C122.91 155.298 122.54 154.858 122.07 154.558C121.59 154.258 121.04 154.078 120.47 154.018C119.33 153.898 118.16 154.378 117.38 155.168C116.57 155.938 116.19 157.088 116.32 158.098C116.44 159.118 116.85 159.988 117.42 160.748C117.97 161.488 118.76 162.288 119.86 162.498C120.93 162.728 122.14 162.248 122.73 161.348C123.34 160.448 123.45 159.478 123.55 158.618C123.61 157.748 123.63 156.768 123.16 155.778H123.15ZM121.9 160.388C121.19 160.628 120.63 160.738 119.98 160.838C119.35 160.938 118.48 160.898 117.91 160.328C117.34 159.778 117.17 158.888 117.42 158.178C117.67 157.468 118.13 156.958 118.62 156.598C119.15 156.248 119.74 156.148 120.32 156.148C120.91 156.168 121.48 156.328 122.15 156.648C122.82 156.968 123.42 157.748 123.35 158.598C123.32 159.468 122.6 160.148 121.9 160.378V160.388Z" fill="black"/>
<path d="M147.56 61.7084C140.81 61.0484 134.05 60.5084 127.29 59.9484C120.53 59.3684 113.77 58.8184 107.01 58.3384C100.25 57.8184 93.48 57.3784 86.71 56.9184L66.4 55.6484C66.25 55.6484 66.12 55.7484 66.11 55.8984L66.04 57.1284C66.04 57.2684 66.13 57.3884 66.27 57.4084C73.04 58.0684 79.79 58.7284 86.55 59.5284L106.9 61.9484C113.69 62.7284 120.45 63.3884 127.2 64.0784C133.94 64.7484 140.65 65.3784 147.29 65.9784L147.63 61.8084C147.63 61.8084 147.6 61.7284 147.56 61.7284V61.7084Z" fill="black"/>
<path d="M89.0205 52.9292L118.401 2.44922L164.341 27.6192L146.381 57.0792L89.0205 52.9292Z" fill="url(#paint2_linear_3089_55705)"/>
<path d="M164.7 26.9692L153.09 20.9092C149.21 18.8992 145.37 16.8292 141.53 14.7492C133.83 10.6292 126.29 6.22918 118.73 1.85918C118.42 1.67918 118.03 1.77918 117.85 2.07918L117.83 2.10918C115.26 6.29918 112.68 10.5292 110.21 14.8092C107.72 19.0892 105.3 23.3892 102.9 27.6692L95.8304 40.4492L88.9404 52.9792L117.26 55.6992C122.07 56.1392 126.89 56.6092 131.75 57.0092C136.6 57.4192 141.46 57.8092 146.32 58.1392H146.33C146.71 58.1692 147.09 57.9792 147.3 57.6292L156.18 42.8392C159.15 37.9092 162.06 32.9592 164.98 28.0092V27.9892L165.01 27.9592C165.2 27.5992 165.06 27.1592 164.7 26.9692ZM154.55 41.8592L145.82 55.9792C141.33 55.6392 136.85 55.3492 132.35 55.0792C127.65 54.7892 122.91 54.5692 118.15 54.3192L111.06 53.9692L124.1 47.7692L119.75 8.00918L122.14 45.6092L108.05 53.8092L89.1004 52.8792L104.52 27.6992C107.01 23.5692 109.49 19.4592 111.9 15.3192C114.22 11.3692 116.44 7.36918 118.66 3.33918C126.22 7.24918 133.78 11.1492 141.2 15.3192C145.02 17.4392 148.83 19.5592 152.61 21.7492L163.28 27.8792C160.35 32.5292 157.42 37.1792 154.54 41.8492L154.55 41.8592Z" fill="black"/>
<path d="M65.5185 63.6284L64.0342 84.1348L145.202 90.0099L146.686 69.5035L65.5185 63.6284Z" fill="white"/>
<path d="M146.76 68.8193H146.73L126.46 67.0393C119.7 66.4893 112.94 65.9693 106.17 65.5093L85.8698 64.1993C79.0998 63.7893 72.3298 63.4093 65.5498 63.0793H65.5298C65.2298 63.0593 64.9798 63.2893 64.9698 63.5893L64.4098 73.8593L63.7398 84.1193C63.7298 84.2893 63.8498 84.4293 64.0198 84.4393C70.7998 84.9193 77.5798 85.5793 84.4098 86.2193C91.2298 86.8593 98.0998 87.4893 104.91 87.9293C111.72 88.3693 118.53 88.7993 125.26 89.1393L135.33 89.6593L145.27 90.0893L146.35 79.9593L147.38 69.5593C147.41 69.1793 147.14 68.8593 146.77 68.8293L146.76 68.8193ZM145.13 89.9293L134.78 88.8893L124.56 87.9393C117.76 87.2993 111.05 86.7493 104.33 86.2093C97.6198 85.6693 90.9598 85.3193 84.2498 84.9793C77.6498 84.6493 70.9998 84.3293 64.3498 83.8493L65.1398 73.8993L66.0098 64.2093C72.5798 64.8393 79.1598 65.4193 85.7398 65.9793L106.02 67.6093C112.78 68.1293 119.55 68.5793 126.32 69.0193L145.97 70.1393L145.55 79.5493L145.14 89.9293H145.13Z" fill="black"/>
<path d="M86.5405 69.7981L79.9605 69.4481C79.6705 69.4181 79.4605 69.6381 79.4305 69.9081C79.1305 73.2981 78.8805 76.7681 78.6605 80.2281C78.6405 80.5081 78.8505 80.7381 79.1305 80.7581C79.4305 80.7781 79.6405 80.5681 79.6605 80.2881C79.8605 77.0081 80.1105 73.7081 80.3805 70.4781L86.0005 70.7781C85.9605 73.9981 85.8405 77.2581 85.6505 80.4981C85.6305 80.7781 85.8405 81.0081 86.1205 81.0281C86.1205 81.0281 86.1405 81.0281 86.1505 81.0281C86.4105 81.0281 86.6305 80.8181 86.6505 80.5581C86.8505 77.1481 86.9705 73.6981 87.0105 70.3181C87.0105 70.0481 86.8005 69.8281 86.5405 69.8181V69.7981Z" fill="black"/>
<path d="M95.1107 70.249C93.7907 70.159 92.5107 70.639 91.5107 71.609C90.5207 72.569 89.9207 73.879 89.8207 75.319C89.7207 76.759 90.1207 78.149 90.9607 79.239C91.8107 80.339 93.0107 81.009 94.3307 81.099C94.4407 81.099 94.5507 81.109 94.6507 81.109C97.2207 81.109 99.4107 78.899 99.6207 76.029C99.8407 73.039 97.8107 70.449 95.1107 70.249ZM94.4007 80.099C93.3707 80.029 92.4307 79.499 91.7507 78.629C91.0607 77.739 90.7307 76.589 90.8207 75.399C90.9107 74.209 91.4007 73.119 92.2107 72.329C92.9407 71.619 93.8507 71.239 94.7907 71.239C94.8707 71.239 94.9607 71.239 95.0407 71.239C97.1907 71.399 98.8007 73.509 98.6207 75.949C98.4407 78.389 96.5307 80.269 94.3907 80.089L94.4007 80.099Z" fill="black"/>
<path d="M108.39 71.6276C108.12 71.6076 107.87 71.8076 107.85 72.0876C107.7 73.9176 107.51 75.7475 107.3 77.5775C107.27 77.5975 107.24 77.6076 107.22 77.6276C107.08 77.7576 106.72 77.7176 106.52 77.7076C105.84 77.6476 105.13 77.5875 104.51 77.3275C103.9 77.0775 103.45 76.6275 103.32 76.1375C103.24 75.8575 103.26 75.5176 103.27 75.2276C103.32 73.9376 103.41 72.6376 103.53 71.3676C103.56 71.0876 103.35 70.8475 103.08 70.8275C102.81 70.8075 102.56 71.0076 102.54 71.2776C102.42 72.5676 102.33 73.8876 102.28 75.1876C102.27 75.5376 102.25 75.9775 102.37 76.3975C102.59 77.1975 103.23 77.8775 104.15 78.2475C104.91 78.5575 105.73 78.6276 106.45 78.6976C106.56 78.6976 106.69 78.7175 106.84 78.7175C106.95 78.7175 107.06 78.7076 107.18 78.6876C107.05 79.7276 106.93 80.7676 106.78 81.7976C106.74 82.0676 106.93 82.3276 107.2 82.3676C107.22 82.3676 107.25 82.3676 107.27 82.3676C107.51 82.3676 107.73 82.1876 107.76 81.9376C108.24 78.6976 108.61 75.4076 108.87 72.1576C108.89 71.8776 108.69 71.6376 108.41 71.6176L108.39 71.6276Z" fill="black"/>
<path d="M121.34 72.2182L112.13 71.5482C111.85 71.5282 111.62 71.7382 111.59 72.0082C111.57 72.2882 111.78 72.5182 112.05 72.5482L116.06 72.8382L115.37 82.3282C115.35 82.6082 115.56 82.8382 115.83 82.8682C115.84 82.8682 115.85 82.8682 115.87 82.8682C116.13 82.8682 116.35 82.6682 116.37 82.4082L117.06 72.9182L121.26 73.2182C121.26 73.2182 121.28 73.2182 121.3 73.2182C121.56 73.2182 121.78 73.0182 121.8 72.7582C121.82 72.4782 121.61 72.2482 121.34 72.2182Z" fill="black"/>
<path d="M132.78 79.5378C132.78 79.3978 132.74 79.2678 132.66 79.1778C132.61 78.6478 132.53 78.1178 132.44 77.5978C132.24 76.5178 131.88 75.1578 130.9 74.2278C130.02 73.4078 128.9 73.1378 128.11 73.0578C127.77 73.0278 127.26 72.9978 126.78 73.1778C125.61 73.5878 125.11 74.8478 124.8 75.8978C124.12 78.2478 123.64 80.6778 123.37 83.1078C123.34 83.3778 123.54 83.6278 123.81 83.6578C124.07 83.6878 124.33 83.4878 124.36 83.2178C124.5 81.9678 124.7 80.7178 124.95 79.4778L131.71 79.9678C131.8 81.3178 131.75 82.6678 131.55 84.0078C131.51 84.2778 131.7 84.5378 131.97 84.5778C132 84.5778 132.02 84.5778 132.05 84.5778C132.29 84.5778 132.51 84.3978 132.54 84.1578C132.76 82.6978 132.81 81.2378 132.71 79.7778C132.75 79.7078 132.79 79.6378 132.79 79.5478L132.78 79.5378ZM125.16 78.4878C125.34 77.7078 125.53 76.9378 125.75 76.1778C125.99 75.3578 126.36 74.3878 127.1 74.1178C127.33 74.0378 127.62 74.0178 128 74.0578C128.63 74.1178 129.53 74.3278 130.2 74.9578C130.98 75.6878 131.28 76.8478 131.45 77.7878C131.52 78.1778 131.57 78.5678 131.62 78.9678L125.16 78.4978V78.4878Z" fill="black"/>
<path d="M150.23 50.8982C150.68 52.1882 150.53 53.6982 149.82 54.9282C149.12 56.1682 147.87 57.1282 146.42 57.4282C145.7 57.5982 144.93 57.5582 144.3 57.5282L142.31 57.4482L138.33 57.2682C133.03 56.9982 127.73 56.6782 122.44 56.1782C117.16 55.6482 111.88 54.9782 106.59 54.5182C101.3 54.0582 96.0003 53.7982 90.6903 53.5882C85.3803 53.3982 80.0803 53.1582 74.7803 52.8282L70.8104 52.5882L68.8203 52.4682C68.4703 52.4482 68.1903 52.4382 67.7903 52.3982C67.3903 52.3582 66.9903 52.2882 66.6103 52.1682C65.0603 51.6982 63.7403 50.5482 63.0603 49.0782C62.3603 47.6082 62.3103 45.8582 62.9303 44.3582C63.5503 42.8582 64.8003 41.6482 66.3203 41.0882C67.0703 40.8082 67.8903 40.6882 68.6803 40.7282C69.3903 40.7682 70.0203 40.8482 70.6903 40.8982L78.6203 41.6582C83.9004 42.2082 89.1804 42.7782 94.4504 43.4882C94.5004 43.4882 94.5403 43.5482 94.5403 43.5982C94.5403 43.6482 94.4903 43.6882 94.4403 43.6882C89.1203 43.6382 83.8103 43.4382 78.5103 43.2282L70.5604 42.8382L68.6003 42.7382C68.0703 42.7182 67.5504 42.8082 67.0604 43.0082C66.0904 43.3882 65.2904 44.1982 64.9204 45.1582C64.5404 46.1182 64.5503 47.2382 65.0003 48.1782C65.4403 49.1182 66.2803 49.8582 67.2603 50.1882C67.5103 50.2782 67.7604 50.3282 68.0204 50.3582C68.2804 50.3982 68.6604 50.4182 68.9804 50.4482L70.9603 50.6182L74.9303 50.9582C80.2203 51.3982 85.5003 51.9282 90.7803 52.4982C96.0603 53.0582 101.35 53.5582 106.65 53.8682C111.95 54.1782 117.26 54.2682 122.57 54.5082C127.87 54.7782 133.16 55.2182 138.45 55.7182L142.41 56.1082L144.39 56.3082C145.08 56.3882 145.65 56.4682 146.23 56.3782C147.4 56.2182 148.53 55.5682 149.25 54.5582C149.97 53.5582 150.27 52.2282 150.04 50.9382C150.04 50.8882 150.07 50.8282 150.12 50.8182C150.17 50.8182 150.22 50.8382 150.23 50.8882V50.8982Z" fill="black"/>
<path d="M104.918 222.748C117.955 222.748 128.524 211.863 128.524 198.436C128.524 185.008 117.955 174.123 104.918 174.123C91.8803 174.123 81.3115 185.008 81.3115 198.436C81.3115 211.863 91.8803 222.748 104.918 222.748Z" fill="white"/>
<path d="M119.033 178.76C123.99 182.57 127.902 188.129 129.236 194.687C130.677 201.183 129.024 208.428 124.946 213.691C120.867 219 114.727 222.185 108.48 222.997C102.234 223.887 95.6844 222.42 90.3628 218.703C85.0109 215.065 81.1296 208.959 80.0986 202.276C78.9767 195.608 80.5686 188.426 84.5712 182.96C88.5283 177.495 94.7747 173.81 101.249 173.341C107.722 172.764 114.06 174.965 119.033 178.76ZM118.851 179.025C113.893 175.2 107.328 174.107 101.567 175.465C95.8057 176.839 90.6509 180.212 87.2851 185.022C83.9041 189.784 82.2667 195.874 83.0399 201.808C83.798 207.726 86.7696 213.363 91.3938 217.267C96.0028 221.17 102.34 223.013 108.329 221.951C114.333 220.92 119.579 217.048 122.823 212.082C126.143 207.117 127.705 201.089 127.265 194.984C126.81 188.91 123.869 182.757 118.851 179.025Z" fill="black"/>
<path d="M106.557 208.428C102.567 209.239 98.6744 206.668 97.8634 202.686L97.1417 199.159C96.9877 198.397 97.4742 197.651 98.2446 197.497L109.922 195.112C110.684 194.958 111.43 195.445 111.584 196.215L112.306 199.743C113.117 203.733 110.546 207.625 106.565 208.436L106.557 208.428Z" fill="#0ABBEF"/>
<path d="M112.898 199.799L112.428 196.775L112.371 196.394C112.355 196.272 112.339 196.15 112.29 195.956C112.209 195.68 112.079 195.412 111.893 195.193C111.844 195.137 111.796 195.08 111.747 195.031C111.487 194.772 111.163 194.585 110.798 194.488C110.62 194.439 110.433 194.415 110.247 194.415C110.06 194.415 109.849 194.455 109.752 194.472C109.711 194.48 109.679 194.488 109.638 194.496C109.622 194.407 109.606 194.318 109.59 194.228L109.233 192.177C109.119 191.479 108.868 190.798 108.511 190.174C107.798 188.925 106.63 187.903 105.227 187.392C103.832 186.881 102.227 186.857 100.783 187.392C99.3316 187.911 98.0909 189.006 97.3368 190.385C96.615 191.755 96.3393 193.434 96.7124 194.942C96.7286 195.031 96.7529 195.112 96.7691 195.202C96.907 195.842 97.0529 196.483 97.207 197.123C97.0611 197.188 96.9313 197.269 96.8097 197.359C96.5177 197.594 96.2907 197.894 96.1528 198.226C96.015 198.567 95.9744 198.94 96.015 199.289C96.0474 199.483 96.0798 199.605 96.1123 199.726L96.2096 200.091L96.9637 203.059C97.4584 205.143 98.8208 206.968 100.589 208.047C101.343 208.525 102.178 208.866 103.038 209.06C103.711 209.222 104.408 209.279 105.097 209.263H105.138C105.138 209.263 105.154 209.263 105.162 209.263H105.276C105.422 209.263 105.568 209.255 105.714 209.239C105.714 209.239 106.192 209.166 106.208 209.166C106.208 209.166 106.338 209.141 106.46 209.117C106.468 209.117 106.476 209.117 106.484 209.117C106.484 209.117 106.476 209.117 106.468 209.117C106.589 209.093 106.703 209.068 106.743 209.06C108.649 208.622 110.385 207.446 111.512 205.825C112.72 204.138 113.247 201.932 112.89 199.816L112.898 199.799ZM105.77 195.193L99.9723 196.345C99.9236 196.029 99.6803 194.561 99.6317 194.245C99.3154 192.266 100.751 190.312 102.6 190.036C103.508 189.874 104.465 190.06 105.227 190.579C105.981 191.098 106.541 191.885 106.727 192.793C106.873 193.507 107.035 194.212 107.198 194.926C106.719 195.015 106.241 195.104 105.77 195.193Z" fill="black"/>
<path d="M106.686 203.026L106.621 202.88L106.5 202.596C106.346 202.239 106.191 201.882 106.054 201.517C106.556 201.071 106.735 200.398 106.548 199.823C106.646 200.131 106.621 200.479 106.467 200.763C106.321 201.039 106.07 201.258 105.794 201.331L105.681 200.852L105.137 200.828C104.935 200.82 104.699 200.731 104.529 200.512C104.359 200.301 104.27 199.936 104.432 199.587C104.578 199.239 104.999 198.947 105.47 198.979C105.94 199.003 106.402 199.344 106.548 199.823C106.402 199.352 106.013 198.955 105.51 198.785C105.007 198.614 104.359 198.703 103.88 199.125C103.394 199.531 103.126 200.285 103.321 200.99C103.451 201.517 103.848 201.98 104.359 202.231C104.407 202.474 104.456 202.726 104.521 202.969L104.61 203.261L104.724 203.618C104.902 204.153 105.502 204.461 105.997 204.323C106.5 204.21 106.84 203.699 106.751 203.236C106.727 203.099 106.702 203.066 106.686 203.018V203.026Z" fill="black"/>
</g>
<defs>
<linearGradient id="paint0_linear_3089_55705" x1="2.00977" y1="154.5" x2="211.34" y2="154.5" gradientUnits="userSpaceOnUse">
<stop stop-color="#76B82A"/>
<stop offset="0.26" stop-color="#73B42A"/>
<stop offset="0.49" stop-color="#6DA92A"/>
<stop offset="0.72" stop-color="#61972A"/>
<stop offset="0.93" stop-color="#517D2B"/>
<stop offset="1" stop-color="#4C742C"/>
</linearGradient>
<linearGradient id="paint1_linear_3089_55705" x1="52.3496" y1="105.41" x2="167.11" y2="105.41" gradientUnits="userSpaceOnUse">
<stop stop-color="#0ABBEF"/>
<stop offset="0.24" stop-color="#0D9ACF"/>
<stop offset="0.76" stop-color="#14598E"/>
<stop offset="1" stop-color="#174075"/>
</linearGradient>
<linearGradient id="paint2_linear_3089_55705" x1="109.71" y1="57.5493" x2="148.21" y2="2.54932" gradientUnits="userSpaceOnUse">
<stop stop-color="#A3A3A3"/>
<stop offset="1" stop-color="#ECECEC"/>
</linearGradient>
<clipPath id="clip0_3089_55705">
<rect width="212" height="224" fill="white" transform="translate(0.00195312)"/>
</clipPath>
</defs>
</svg>
