<svg width="175" height="195" viewBox="0 0 175 195" fill="none" xmlns="http://www.w3.org/2000/svg">
<g clip-path="url(#clip0_2014_10897)">
<path d="M94 176.1C138.205 176.1 174.04 140.264 174.04 96.0595C174.04 51.8547 138.205 16.0195 94 16.0195C49.7951 16.0195 13.96 51.8547 13.96 96.0595C13.96 140.264 49.7951 176.1 94 176.1Z" fill="url(#paint0_linear_2014_10897)"/>
<path d="M96.3502 78.9199C96.3502 78.9199 106.99 82.0799 109.9 82.1699C112.81 82.2599 123.49 81.4799 123.49 81.4799L89.8602 176.71C89.8602 176.71 76.4102 174.86 70.4102 172.9C64.4102 170.93 61.2902 169.14 61.2902 169.14L60.6602 168.5" fill="#76B82A"/>
<path d="M164.58 129.399C164.58 129.399 163.69 142.449 163.1 146.489C162.5 150.529 160.63 159.789 160.63 159.789C160.63 159.789 160.63 154.829 150.44 148.249C150.38 148.199 150.32 148.169 150.26 148.129C139.89 141.479 133.85 138.209 133.85 138.209H131.99L129.52 141.769L120.49 154.759L113.36 175.009C113.36 175.009 97.6695 176.469 94.5995 176.669C91.5295 176.889 88.5195 176.099 88.5195 176.099L109.93 116.769L119.64 93.0692C119.64 93.0692 121.17 84.8592 121.35 80.6392C121.53 76.4192 121.14 67.8392 121.14 67.8392L120.46 63.3092C120.46 63.3092 126.11 62.8192 129.49 67.0692C132.86 71.3192 137.05 77.8292 137.05 77.8292L138.02 79.3192L138.53 80.1092L138.84 79.9792C138.84 79.9792 145.82 82.1892 150.91 87.3792C156 92.5592 162.96 100.209 163.76 106.159C164.55 112.109 164.57 129.399 164.57 129.399H164.58Z" fill="white"/>
<path d="M174.27 95.8995C174.29 101.159 173.78 106.409 172.81 111.579C171.87 116.759 170.38 121.829 168.49 126.759C164.66 136.589 158.95 145.769 151.59 153.499C147.91 157.359 143.87 160.899 139.45 163.939C138.33 164.669 137.23 165.439 136.09 166.149C134.94 166.829 133.8 167.549 132.63 168.189C131.44 168.799 130.26 169.449 129.05 170.029C127.83 170.579 126.62 171.179 125.38 171.689C115.5 175.899 104.71 177.95 93.9898 177.82C83.2698 177.64 72.6198 175.3 62.8798 171.02C58.0098 168.88 53.3498 166.269 49.0098 163.229C44.6498 160.219 40.5898 156.79 36.8798 153.02C29.4498 145.5 23.4698 136.569 19.3298 126.829C17.2698 121.959 15.6698 116.889 14.5398 111.709C13.4198 106.529 12.8198 101.22 12.7298 95.9095C12.5498 85.2795 14.3798 74.5295 18.3998 64.5995C22.3698 54.6495 28.3398 45.4695 35.9098 37.8295C43.4598 30.1695 52.5298 23.9995 62.4698 19.7995C72.3998 15.5795 83.2198 13.4895 93.9998 13.4795C104.78 13.5595 115.57 15.6895 125.46 19.9595C135.37 24.1695 144.32 30.5095 151.64 38.2695C158.99 46.0195 164.69 55.2095 168.52 65.0395C170.41 69.9695 171.9 75.0495 172.83 80.2295C173.79 85.3995 174.29 90.6595 174.26 95.9095L174.27 95.8995ZM173.82 95.8995C173.78 90.6795 173.26 85.4495 172.18 80.3495C171.08 75.2495 169.52 70.2495 167.39 65.4995C163.2 55.9695 157.02 47.4095 149.55 40.3395C134.57 26.2195 114.38 18.0695 93.9898 18.2395C88.8998 18.2695 83.8198 18.7395 78.8298 19.7295C73.8398 20.7095 68.9598 22.1895 64.2398 24.0895C54.8098 27.9095 46.1398 33.6195 38.8698 40.7795C31.6198 47.9595 25.7098 56.5195 21.6598 65.9395C19.6498 70.6495 18.0798 75.5595 16.9698 80.5695C15.8698 85.5895 15.2698 90.7295 15.1598 95.8895C15.0098 106.199 16.7898 116.619 20.7198 126.229C24.5998 135.859 30.4998 144.679 37.8898 151.969C41.5898 155.609 45.6698 158.859 50.0198 161.679C54.3898 164.469 59.0098 166.819 63.8198 168.699C73.4298 172.459 83.7399 174.25 93.9799 174.07C99.0999 174.01 104.2 173.429 109.21 172.439C114.22 171.429 119.12 169.929 123.86 168.029C125.05 167.559 126.2 167.009 127.37 166.499C128.53 165.969 129.66 165.359 130.81 164.799C131.95 164.219 133.05 163.57 134.18 162.96C135.29 162.32 136.36 161.63 137.46 160.96C141.75 158.17 145.85 155.03 149.59 151.49C157.05 144.4 163.23 135.829 167.41 126.299C169.53 121.549 171.09 116.539 172.19 111.439C173.26 106.329 173.77 101.109 173.8 95.8795L173.82 95.8995Z" fill="black"/>
<path d="M153.12 150.85C151.71 153.4 150.32 155.96 148.93 158.53C151.28 160.17 153.84 161.87 156.71 161.85C157.32 161.85 157.92 161.76 158.52 161.66C159.09 161.57 159.69 161.44 160.11 161.04C160.8 160.37 160.68 159.21 160.27 158.33C159.83 157.39 159.13 156.59 158.44 155.82C157.08 154.31 155.69 152.84 154.26 151.41" fill="#76B82A"/>
<path d="M97.3499 70.8296C97.4199 73.3096 95.7699 78.0096 95.5099 81.4196C95.5099 81.5796 95.4599 81.7796 95.4099 81.9996C94.3399 86.5696 85.3499 103.79 85.3499 103.79L77.8399 125.57L66.1199 122.97C66.1199 122.97 60.9999 97.9696 59.6399 96.5196C58.3499 95.1196 55.8699 96.2196 55.6299 96.3196C55.7699 96.1296 56.9099 94.6196 57.3699 94.0496C57.8599 93.4296 61.6799 89.9396 64.5099 87.3896C67.3399 84.8396 77.6099 78.9296 77.6099 78.9296L80.7499 77.9196L78.9999 75.7296L87.5799 69.8096L92.5099 66.4196L93.0399 66.0996L97.4099 67.0996C97.4099 67.0996 97.2699 68.3496 97.3399 70.8296H97.3499Z" fill="white"/>
<path d="M73.4093 168.179C72.6893 168.269 67.5593 168.379 60.7593 168.489H60.6893C45.1093 168.749 20.8493 169.029 20.8493 169.029C20.8493 169.029 19.1493 169.329 18.3693 166.699C17.5893 164.079 9.90932 138.209 9.90932 138.209L8.29932 133.779L5.82932 126.999L0.829317 107.699C0.829317 107.699 -0.610683 102.329 5.32932 102.629L54.4893 96.4695C54.4893 96.4695 60.0193 95.0495 60.6593 96.6995C61.3093 98.3495 61.5793 100.259 61.5793 100.259L66.6093 123.869L67.0793 126.079L75.2793 164.549C75.2793 164.549 75.7793 167.889 73.3993 168.179H73.4093Z" fill="#A0A0A0"/>
<path d="M97.3496 70.8294C97.4196 73.3094 95.7696 78.0094 95.5096 81.4194C95.5096 81.5794 95.4596 81.7794 95.4096 81.9994C95.3896 81.9994 95.3896 81.9994 95.3696 81.9994C94.6296 79.7594 93.8796 77.5094 93.1396 75.2694C92.6396 73.7594 92.0796 72.1694 90.8496 71.1894C89.9096 70.4594 88.7396 70.1694 87.5996 69.8194L92.5296 66.4294L93.0596 66.1094L97.4296 67.1094C97.4296 67.1094 97.2896 68.3594 97.3596 70.8394L97.3496 70.8294Z" fill="#76B82A"/>
<path d="M118.65 98.0091C119.68 96.2191 120.77 94.4591 121.92 92.7291C122.52 91.8191 123.15 90.9091 124.04 90.2791C125.51 89.2191 127.43 89.0891 129.23 89.0791C131.55 89.0791 133.87 89.2091 136.17 89.4891C136.52 89.5291 136.88 89.5791 137.17 89.7891C137.46 89.9991 138.71 92.5591 138.92 94.6491C133.66 94.6291 130.22 95.2291 125.31 97.0991C120.4 98.9691 115.89 102.169 113.01 106.569L118.66 98.0091H118.65Z" fill="#76B82A"/>
<path d="M82.5994 79.0898C81.3994 80.7698 80.4094 82.5898 79.6494 84.5098C83.8894 85.8198 88.1894 86.9399 92.5294 87.8699C92.6094 87.3599 92.7994 86.8698 93.0894 86.4498C90.1094 84.8498 87.3994 82.7598 85.0794 80.2898" fill="#76B82A"/>
<path d="M131.18 137.949C129.1 136.159 126.33 135.459 123.66 134.809C122.55 134.539 121.42 134.269 120.28 134.359C120.21 134.909 120.74 135.339 121.2 135.659C124 137.579 126.65 139.729 129.11 142.059C129.59 141.429 130.07 140.799 130.55 140.169" fill="#76B82A"/>
<path d="M164.579 129.399C164.579 129.399 163.689 142.449 163.099 146.489C162.499 150.529 160.629 159.789 160.629 159.789C160.629 159.789 160.629 154.829 150.439 148.249C152.529 145.009 153.569 141.069 154.429 137.269C155.349 133.159 156.149 129.019 156.839 124.859C157.879 118.489 158.649 111.979 157.699 105.589C156.749 99.2093 153.909 92.8793 148.829 88.8893C146.329 86.9093 143.379 85.5693 140.399 84.4693L138.029 79.3193L138.539 80.1093L138.849 79.9793C138.849 79.9793 145.829 82.1893 150.919 87.3793C156.009 92.5593 162.969 100.209 163.769 106.159C164.559 112.109 164.579 129.399 164.579 129.399Z" fill="#76B82A"/>
<path d="M153.02 150.139C152.96 150.209 148.1 159.669 148 159.839C147.89 160.009 138.14 173.559 136.51 175.449C134.89 177.349 127.88 181.709 123.22 182.839C118.57 183.969 111.81 177.899 111.81 177.899L78.4698 153.949C78.4698 153.949 74.6498 153.499 72.9798 153.349C71.3198 153.209 66.9998 148.939 66.9998 148.939C66.9998 148.939 63.5698 150.809 61.3498 151.539C60.8398 151.709 60.3898 151.809 60.0698 151.819C58.6798 151.839 58.1498 149.229 57.9898 148.169C57.9498 147.909 57.9298 147.739 57.9298 147.739C57.9298 147.739 56.7198 148.269 54.9898 148.729C54.0698 148.979 53.5198 148.269 53.1998 147.509C52.9198 146.849 52.8098 146.169 52.7898 146.079C52.7498 145.929 52.4598 144.009 52.3098 143.029C52.2598 142.679 52.2298 142.459 52.2298 142.459C52.2298 142.459 52.1098 142.389 51.9098 142.269C51.4598 141.969 50.6298 141.329 49.9198 140.269C48.8898 138.739 51.8998 136.539 51.8998 136.539L55.9298 134.549L55.8798 134.529L53.4598 133.599L51.4598 132.839C51.4598 132.839 50.5998 131.559 50.6698 130.489C50.7398 129.419 59.1898 127.669 60.6598 127.209C61.8898 126.829 65.2498 126.029 66.3298 125.779C66.5498 125.729 66.6698 125.699 66.6698 125.699L66.3898 124.289L66.0698 122.669L73.9298 122.859C73.9298 122.859 75.5198 123.299 78.1298 125.579C80.7498 127.849 87.1698 143.189 88.8898 146.509C90.6098 149.809 112.01 153.699 112.01 153.699L120.48 154.779L131.98 138.229C133.39 138.229 135.81 139.279 138.52 140.749C144.95 144.229 153.01 150.089 153.01 150.159L153.02 150.139Z" fill="#F4C6CC"/>
<path d="M138.52 140.729C137.74 143.729 136.35 146.619 134.98 149.419C132.82 153.829 130.66 158.249 128.5 162.669C127.42 164.879 125.96 167.379 123.52 167.689C122.39 167.839 121.25 167.459 120.18 167.089C110.81 163.849 101.55 160.289 92.4001 156.449C90.4301 155.619 88.4401 154.769 86.7501 153.479C86.1601 153.029 85.6101 152.529 85.2201 151.899C84.8301 151.279 84.6201 150.569 84.4101 149.859C82.0201 142.009 78.7301 134.439 74.6301 127.339C74.1401 126.499 73.6101 125.629 72.7801 125.159C72.0701 124.749 71.2201 124.669 70.4001 124.609C69.0701 124.499 67.7301 124.389 66.4001 124.279L66.0801 122.659L73.9401 122.849C73.9401 122.849 75.5301 123.289 78.1401 125.569C80.7601 127.839 87.1801 143.179 88.9001 146.499C90.6201 149.799 112.02 153.689 112.02 153.689L120.49 154.769L131.99 138.219C133.4 138.219 135.82 139.269 138.53 140.739L138.52 140.729Z" fill="white"/>
<path d="M68.8798 128.259C66.3398 127.549 63.6498 128.379 61.1398 129.199C58.4298 130.089 55.7098 130.969 52.9998 131.859C52.9998 132.469 53.1698 133.069 53.4698 133.599L51.4698 132.839C51.4698 132.839 50.6098 131.559 50.6798 130.489C50.7498 129.419 59.1998 127.669 60.6698 127.209C61.8998 126.829 65.2598 126.029 66.3398 125.779C67.2598 126.519 67.8698 127.639 68.8798 128.259Z" fill="white"/>
<path d="M67.4893 132.699C63.8093 133.539 60.1893 134.679 56.6893 136.099C54.6993 136.909 52.4693 138.149 52.1993 140.289C52.1193 140.939 52.1793 141.719 51.9293 142.279C51.4793 141.979 50.6493 141.339 49.9393 140.279C48.9093 138.749 51.9193 136.549 51.9193 136.549L55.9493 134.559L55.8993 134.539C57.4093 133.839 58.9093 133.069 60.4893 132.549C62.7693 131.779 65.3993 131.539 67.4993 132.719L67.4893 132.699Z" fill="white"/>
<path d="M69.2793 139.369C66.2693 140.349 63.2493 141.319 60.2293 142.289C58.0293 142.999 55.6693 143.839 54.3993 145.769C54.0793 146.259 53.8493 146.799 53.4793 147.239C53.3993 147.339 53.3093 147.429 53.2093 147.519C52.9293 146.859 52.8193 146.179 52.7993 146.089C52.7593 145.939 52.4693 144.019 52.3193 143.039C52.4293 142.939 52.5393 142.859 52.6593 142.779C53.1593 142.429 53.7293 142.229 54.2893 142.009C56.7093 141.119 59.1293 140.209 61.5493 139.309C62.5693 138.939 63.5993 138.549 64.6893 138.469C66.2593 138.349 67.7993 138.879 69.2793 139.389V139.369Z" fill="white"/>
<path d="M67.21 144.279C66.98 144.849 66.48 145.259 66 145.649C65.36 146.159 64.73 146.679 64.09 147.199C62.96 148.109 61.79 149.049 60.41 149.489C60.47 150.259 60.81 150.999 61.36 151.539C60.85 151.709 60.4 151.809 60.08 151.819C58.69 151.839 58.16 149.229 58 148.169L67.21 144.279Z" fill="white"/>
<path d="M66.6797 126.429V126.109C66.6997 126.279 66.6997 126.379 66.6797 126.429Z" fill="white"/>
<path d="M71.8998 168.26L21.9398 169.09C20.3898 169.12 19.0098 168.11 18.5698 166.63L6.20977 129.34L0.819769 107.67C0.139769 105.37 1.67977 103 4.05977 102.7L56.9498 95.9998C58.9998 95.7398 60.8998 97.0898 61.3298 99.1098L66.6698 126.11L65.2498 126.04L59.8698 102.11C59.5198 100.54 58.0298 99.5098 56.4398 99.7198L6.66977 106.38C4.77977 106.63 3.55977 108.52 4.11977 110.34L18.8698 160.52C19.6198 163.06 21.8798 164.86 24.5298 165.02L71.8998 168.27V168.26Z" fill="white"/>
<path d="M5.63988 126.029C5.63988 126.029 8.86988 129.099 9.34988 129.739C9.82988 130.379 10.0099 132.289 10.0099 132.289V132.929C10.0099 132.929 11.2399 135.299 11.3999 135.889C11.5599 136.479 11.3999 139.119 11.3999 139.119L11.8099 138.839C11.8099 138.839 13.0999 139.329 12.8899 140.929C12.6799 142.529 11.8399 143.379 11.3199 142.949C10.7999 142.519 9.31988 140.839 8.98988 140.829C8.65988 140.819 8.56988 138.729 8.34988 138.849C8.12988 138.969 6.26988 136.799 6.32988 135.349C6.38988 133.899 6.32988 133.199 6.32988 133.199C6.32988 133.199 4.14988 131.489 4.53988 129.929C4.92988 128.369 5.64988 126.039 5.64988 126.039L5.63988 126.029Z" fill="#F4C6CC"/>
<path d="M23.1396 103.22C23.1396 103.53 36.7397 113.54 36.7397 113.54L27.2996 102.3" fill="white"/>
<path d="M29.9697 102.289L36.7297 108.489L32.4697 101.659L29.9697 102.289Z" fill="white"/>
<path d="M43.6101 166.889L38.6201 157.979L47.7601 166.889" fill="white"/>
<path d="M43.29 156.27L49.71 167.73H53.72L43.29 156.27Z" fill="white"/>
<path d="M8.8802 112.54C10.3603 112.54 11.5602 111.34 11.5602 109.86C11.5602 108.38 10.3603 107.18 8.8802 107.18C7.40007 107.18 6.2002 108.38 6.2002 109.86C6.2002 111.34 7.40007 112.54 8.8802 112.54Z" fill="white"/>
<path d="M15.7196 109.8C16.6143 109.8 17.3396 109.074 17.3396 108.18C17.3396 107.285 16.6143 106.56 15.7196 106.56C14.8249 106.56 14.0996 107.285 14.0996 108.18C14.0996 109.074 14.8249 109.8 15.7196 109.8Z" fill="white"/>
<path d="M135.66 38.5291C135.3 39.4091 134.77 40.2091 134.23 40.9791C133.14 42.5291 131.97 44.0291 130.73 45.4491C130.65 45.5391 130.56 45.6391 130.43 45.6191C130.34 45.6191 130.28 45.5491 130.21 45.4891C129.01 44.3491 127.15 44.1191 125.54 44.5291C123.93 44.9491 122.53 45.9191 121.23 46.9391C120.99 47.1291 120.74 47.3191 120.48 47.4991C120.06 48.0291 119.63 48.5591 119.18 49.0691C117.95 48.0891 116.6 47.2491 115.16 46.5791C116.08 45.4691 116.6 44.0891 117.07 42.7291C118.37 38.9391 119.42 35.0791 120.21 31.1491C120.32 30.5891 120.43 29.9891 120.26 29.4391C120.26 29.4091 120.25 29.3891 120.23 29.3691C120.08 28.9191 119.76 28.5591 119.44 28.1991C117.68 26.1991 115.76 24.0991 113.19 23.4391C110.77 22.8291 108.25 23.5891 105.8 24.0491C104.04 24.3791 102.26 24.5491 100.47 24.5691C100.13 24.5691 99.7801 24.5591 99.4501 24.4791C98.5601 24.7591 97.6701 25.0391 96.7701 25.2791C93.9401 26.0491 90.6801 26.5391 88.2601 24.8991C87.3301 24.2691 86.6101 23.3891 86.0101 22.4591C85.5901 21.8091 85.2201 21.1391 84.9101 20.4391C84.8201 20.2591 84.7501 20.0791 84.6701 19.8891C84.4101 19.2591 84.1901 18.6091 84.0201 17.9491C83.2301 15.0191 83.2501 11.8591 84.1601 8.9591C85.7901 10.5391 87.9001 11.6191 90.1301 12.0291C90.0201 11.8991 89.9101 11.7691 89.8101 11.6491C88.8601 10.4491 88.2001 9.0491 87.8301 7.5591C87.2701 5.3391 87.3901 2.9491 88.2501 0.829102C90.0401 2.7091 92.6801 3.5391 95.2701 3.8191C97.8501 4.0991 100.46 3.9291 103.04 4.1591C106.5 4.4791 109.85 5.5491 113.16 6.6491C115.91 7.5691 118.66 8.5191 121.26 9.8091C123.59 10.9491 125.77 12.3691 127.78 14.0091C129.3 15.2491 130.71 16.6291 132 18.1191C133.44 19.7791 134.78 21.8091 134.54 23.9991C134.3 26.1091 132.68 27.7491 131.14 29.1991L130.92 29.6391C130.92 29.6391 130.83 29.6291 130.78 29.6191C130.78 29.6191 130.78 29.6391 130.78 29.6491C130.76 29.7091 130.74 29.7591 130.72 29.8091C130.84 29.8091 130.96 29.8291 131.06 29.8391C132.94 30.0891 134.62 31.3491 135.49 33.0291C136.35 34.7191 136.39 36.7791 135.68 38.5291H135.66Z" fill="#ED6C2E"/>
<path d="M131.13 52.5495C130.92 53.3795 130.65 54.2195 130.15 54.9395C129.29 56.1795 127.86 56.9195 126.4 57.2895C124.94 57.6595 123.42 57.7095 121.92 57.8495C121.6 57.8795 121.27 57.9195 121.02 58.1095C120.7 58.3495 120.43 58.7395 120.47 59.1295C121.1 65.8495 121.79 77.2395 121.44 77.6995C121.23 78.3495 123.12 82.0595 118.56 81.9895C118.91 83.4095 97.5001 81.0595 96.8501 78.6395C96.8001 78.4395 97.0001 76.1895 97.0501 75.3995C97.0901 74.4195 97.1401 73.4495 97.1801 72.4695C97.2501 70.6795 97.3401 68.8895 97.4201 67.0895C95.7201 67.6495 93.9201 66.6895 92.4801 65.6295C91.0401 64.5695 89.7001 63.3395 88.6901 61.8595C86.7001 58.9295 86.1901 55.2595 85.9901 51.7195C85.4901 42.8695 86.5701 33.9195 89.1501 25.4395L89.1001 25.6795C92.1901 25.6995 95.2701 25.5395 98.3301 25.1795C100.83 24.8995 103.31 24.4895 105.76 23.9595C108.05 23.4695 110.43 22.8595 112.71 23.3995C115.41 24.0295 117.49 26.1195 119.41 28.1095C119.72 28.4295 120.04 28.7595 120.2 29.1695C120.42 29.7195 120.32 30.3495 120.22 30.9295C119.41 35.7795 118.56 40.7595 116.06 44.9995C115.81 45.4195 115.54 45.8295 115.44 46.2995C115.41 46.4295 115.4 46.5695 115.39 46.6995C116.31 47.4295 117.25 48.1495 118.21 48.8095C118.4 48.9395 118.61 49.0795 118.84 49.0595C119.04 49.0395 119.2 48.9095 119.35 48.7795C120.43 47.8395 121.22 46.5695 122.42 45.7995C123.12 45.3495 123.92 45.0895 124.73 44.8995C126.19 44.5495 127.8 44.4195 129.12 45.1395C130.32 45.7995 131.1 47.0995 131.37 48.4395C131.63 49.7895 131.45 51.1895 131.11 52.5295L131.13 52.5495Z" fill="white"/>
<path d="M110.6 64.6692C109.62 65.0692 108.88 65.8992 108.27 66.7292C107.64 67.5692 106.95 68.3392 106.14 69.0192C104.05 70.7592 101.58 71.6392 98.97 72.2492C98.48 72.3692 97.71 72.6492 97.17 72.4892C97.24 70.6992 97.33 68.9092 97.41 67.1092C80.95 66.1092 86.1 34.1592 89.14 25.4592L89.09 25.6992C92.18 25.7192 95.26 25.5592 98.32 25.1992C98.91 28.5092 97.96 31.8692 97.73 35.2292C97.56 37.6892 97.8 39.7892 97.52 42.2492C96.99 45.4692 94.4 49.0992 94.4 49.0992L96.5 50.1092C96.5 50.1092 97.38 51.8692 97.27 52.8892C97.16 53.9092 96.99 55.0392 97.58 55.8892C97.86 56.2892 98.31 56.6092 98.41 57.0892C98.46 57.3892 98.38 57.6792 98.3 57.9692C97.64 60.4192 97.41 63.1992 98.74 65.3492C99.05 65.8492 99.45 66.3092 99.98 66.5692C100.44 66.7892 100.95 66.8792 101.46 66.8992C104.77 67.0592 107.53 65.6592 110.58 64.6892L110.6 64.6692Z" fill="#F4C6CC"/>
<path d="M120.24 29.3899C120.09 28.9499 119.77 28.5799 119.45 28.2299C117.69 26.2299 115.77 24.1299 113.2 23.4699C110.78 22.8599 108.26 23.6199 105.81 24.0799C104.05 24.4099 102.27 24.5799 100.48 24.5999C100.14 24.5999 99.7901 24.5899 99.4601 24.5099C98.5701 24.7899 97.6801 25.0699 96.7801 25.3099C93.9501 26.0799 90.6901 26.5699 88.2701 24.9299C87.3401 24.2999 86.6201 23.4199 86.0201 22.4899C85.6001 21.8399 85.2301 21.1699 84.9201 20.4699C84.7401 20.4299 84.5601 20.3599 84.3901 20.2799C84.3701 19.9999 84.3601 19.7099 84.3701 19.4199C84.4601 19.5899 84.5701 19.7599 84.6801 19.9199C84.8201 20.1399 84.9801 20.3399 85.1401 20.5299C86.4201 21.9899 88.3601 22.8799 90.3101 23.1799C92.7101 23.5499 95.1601 23.1599 97.5501 22.6999C100.45 22.1399 103.35 21.4599 106.3 21.2699C109.25 21.0899 112.31 21.4099 114.95 22.7399C117.57 24.0699 119.74 26.4999 120.26 29.3999L120.24 29.3899Z" fill="white"/>
<path d="M111.44 14.6493C106.23 10.6493 99.1003 9.26934 92.7703 11.0093C91.7903 11.2793 90.7903 11.6193 89.8003 11.6593C88.8503 10.4593 88.1903 9.05934 87.8203 7.56934C88.6003 7.94934 89.4503 8.19934 90.3003 8.31934C92.4303 8.61934 94.5803 8.26934 96.7203 8.11934C99.5203 7.91934 102.39 8.07934 105.01 9.07934C107.63 10.0893 109.99 11.1093 111.03 13.7093L111.45 14.6393L111.44 14.6493Z" fill="white"/>
<path d="M105.7 20.0193L101.75 18.1993C100.55 17.5493 98.8098 17.7793 97.4598 17.9793C96.0998 18.1793 94.8098 18.6493 93.5098 19.0993C91.2398 19.8893 88.8898 20.6293 86.4798 20.6393C86.0298 20.6393 85.5698 20.6093 85.1198 20.5193C85.0498 20.5093 84.9698 20.4893 84.8998 20.4593C84.7198 20.4193 84.5398 20.3493 84.3698 20.2693C84.3498 19.9893 84.3398 19.6993 84.3498 19.4093C84.4398 19.5793 84.5498 19.7493 84.6598 19.9093C84.3998 19.2793 84.1798 18.6293 84.0098 17.9693C85.6898 18.8193 87.7798 18.7293 89.6398 18.2693C91.7698 17.7493 93.7998 16.8093 95.9698 16.4693C99.5498 15.9193 103.55 17.1093 105.71 20.0193H105.7Z" fill="white"/>
<path d="M134.52 24.01C134.28 26.12 132.66 27.76 131.12 29.21L130.9 29.65C130.9 29.65 130.81 29.64 130.76 29.63C130.76 29.63 130.76 29.65 130.76 29.66L127.53 28.85C128.75 28.94 130.01 28.43 130.81 27.5C131.27 26.96 131.58 26.3 131.79 25.62C132.42 23.54 132.11 21.25 131.25 19.26C130.38 17.26 128.99 15.53 127.45 14C127.55 14 127.66 14.01 127.76 14.03C129.28 15.27 130.69 16.65 131.98 18.14C133.42 19.8 134.76 21.83 134.52 24.02V24.01Z" fill="white"/>
<path d="M124.58 55.1591C124.76 55.2091 124.95 55.1091 125 54.9291V54.8991C125.1 54.5691 125.48 54.2491 125.76 53.6791C125.89 53.3891 125.93 53.0091 125.85 52.6991C125.78 52.3791 125.64 52.1091 125.47 51.8691C125.13 51.3891 124.73 51.0691 124.44 50.7391C124.14 50.4191 124 50.0591 124.03 49.7391C124.06 49.4491 124.3 49.2391 124.71 49.2091C125.13 49.1591 125.56 49.2791 126.08 49.3891C126.58 49.4791 127.17 49.5591 127.69 49.2491C128.21 48.9291 128.31 48.3491 128.36 47.8691C128.18 48.3291 127.95 48.8191 127.54 48.9491C127.14 49.0891 126.68 48.9691 126.23 48.8191C125.8 48.6591 125.26 48.4591 124.68 48.4591C124.39 48.4591 124.06 48.5291 123.76 48.7291C123.47 48.9191 123.26 49.2591 123.2 49.5991C123.08 50.2791 123.41 50.8991 123.77 51.3091C124.13 51.7291 124.52 52.0391 124.76 52.3691C125.01 52.7191 125.11 53.0591 125 53.3591C124.92 53.6391 124.62 53.9491 124.43 54.3991C123.86 54.2891 123.3 54.1491 122.74 53.9891C122.07 53.8191 121.42 53.5691 120.76 53.3291C121.32 53.7491 121.95 54.0891 122.58 54.4091C123.22 54.7091 123.89 54.9591 124.58 55.1591Z" fill="black"/>
<path d="M110.83 34.6491C111.23 30.4891 105.17 28.4991 103.87 33.9891C105.95 32.2791 109.56 32.9991 110.83 34.6491Z" fill="black"/>
<path d="M95.97 32.2796C95.7 27.8896 90.87 27.0596 89.54 31.1996C91.39 30.4196 94 30.5596 95.97 32.2796Z" fill="black"/>
<path d="M93.8303 49.1891C95.1203 50.4191 98.3003 50.0891 98.3003 50.0891C98.3003 50.0891 96.8303 49.0891 95.1903 48.7191C97.9403 45.0091 98.7403 39.1191 98.7403 39.1191C98.7403 39.1191 96.8403 44.8591 93.8203 49.1891H93.8303Z" fill="black"/>
<path d="M101.5 54.5098C101.5 54.5098 101.81 55.4598 102.44 55.8398C102.66 54.3098 102.38 53.5798 101.45 52.7998C101.28 53.5698 101.42 54.2298 101.42 54.2298C98.0599 56.2698 94.1699 56.8998 94.1699 56.8998C94.1699 56.8998 99.0499 58.5098 101.5 54.5098Z" fill="black"/>
<path d="M108 46.5092C107.2 46.4492 106.35 46.7192 105.73 47.2892C105.1 47.8492 104.73 48.6992 104.73 49.5592C104.73 50.4192 105.11 51.2692 105.73 51.8292C106.36 52.3992 107.2 52.6692 108 52.6092C109.64 52.5092 110.86 51.0392 110.83 49.5592C110.83 50.2992 110.5 51.0292 109.96 51.5192C109.42 51.9992 108.69 52.2292 108 52.1692C106.6 52.0692 105.59 50.8092 105.62 49.5592C105.59 48.3192 106.6 47.0592 108 46.9592C108.68 46.8992 109.41 47.1192 109.96 47.6092C110.51 48.0892 110.83 48.8192 110.83 49.5692C110.86 48.0892 109.64 46.6192 108 46.5192V46.5092Z" fill="black"/>
<path d="M106.26 43.9295C106.862 43.9295 107.35 42.5506 107.35 40.8495C107.35 39.1485 106.862 37.7695 106.26 37.7695C105.658 37.7695 105.17 39.1485 105.17 40.8495C105.17 42.5506 105.658 43.9295 106.26 43.9295Z" fill="black"/>
<path d="M91.7198 35.2998C91.0998 35.2998 90.5898 36.7598 90.5898 38.5498C90.5898 40.3398 91.0898 41.7998 91.7198 41.7998C92.3498 41.7998 92.8498 40.3398 92.8498 38.5498C92.8498 36.7598 92.3498 35.2998 91.7198 35.2998Z" fill="black"/>
<path d="M165.55 113.97C165.38 110.13 165.03 106.08 163.45 102.39C161.91 98.7096 159.58 95.4796 156.97 92.5996C154.34 89.7296 151.55 87.0396 148.46 84.6696C145.55 82.5096 142.28 80.6796 138.74 79.9196C137.7 77.9296 136.55 75.9996 135.33 74.1296C133.57 71.5096 131.81 68.8396 129.47 66.6296C128.3 65.5396 126.96 64.6096 125.48 63.9996C124.13 63.4396 122.65 63.1896 121.21 63.3196C121.17 62.6196 121.15 61.9296 121.17 61.2496C121.21 60.4196 121.33 59.6196 121.5 58.8296C123.8 59.1996 126.23 58.7696 128.27 57.5696C130.55 56.1996 132.14 53.7196 132.38 51.0896C132.51 49.7796 132.34 48.4096 131.77 47.1996C131.48 46.5696 131.08 45.9696 130.58 45.4496C132.37 43.9596 134.08 42.3096 135.36 40.2396C136.05 39.1296 136.6 37.8896 136.85 36.5096C137.1 35.1396 136.87 33.5496 136.09 32.3096C135.32 31.0796 134.2 30.1496 132.96 29.5396C132.47 29.3096 131.96 29.1196 131.46 28.9696C132.14 28.2196 132.92 27.5496 133.58 26.7396C133.99 26.2296 134.38 25.6596 134.6 24.9996C134.83 24.3496 134.91 23.6496 134.86 22.9596C134.77 21.5696 134.21 20.2896 133.52 19.1496C132.82 17.9996 132 16.9796 131.12 15.9896C127.58 12.0496 122.95 9.20958 118.07 7.30958C113.16 5.39958 108.05 4.28958 102.87 3.59958C100.25 3.25958 97.5902 3.41958 95.1402 3.19958C93.9102 3.07958 92.7002 2.83958 91.6002 2.34958C90.5002 1.86958 89.5002 1.16958 88.8102 0.21958L88.7902 0.18958C88.7302 0.10958 88.6602 0.0495802 88.5702 0.0195802C88.3002 -0.0904198 88.0002 0.0395802 87.8902 0.30958C87.1002 2.26958 86.9402 4.42958 87.3002 6.45958C87.6002 8.17958 88.3102 9.81958 89.3402 11.1996C88.5002 11.2296 87.7102 11.0596 86.9902 10.6496C86.0302 10.1196 85.2702 9.23958 84.9202 8.23958C84.8502 8.03958 84.7002 7.85958 84.4902 7.75958C84.0702 7.55958 83.5702 7.72958 83.3702 8.14958V8.16958C82.3002 10.3696 82.2802 12.8396 82.6102 15.0696C82.9802 17.3096 83.5802 19.4996 84.6802 21.5496C85.2402 22.5696 85.9102 23.5496 86.7802 24.3796C87.4402 25.0096 88.2102 25.5596 89.0602 25.9396C85.8602 31.6496 81.1002 59.1496 92.2602 66.4496C89.8702 67.5496 87.5502 68.7496 85.2602 70.0096C82.7202 71.4096 80.1602 73.0296 78.1302 75.3396L78.0902 75.3896C77.8002 75.7796 77.8702 76.3396 78.2702 76.6296C78.8902 77.0996 79.5202 77.5596 80.1402 78.0196C77.7902 78.4796 75.4902 79.2396 73.3002 80.2196C70.9102 81.2796 68.6402 82.6096 66.5102 84.1296C64.3902 85.6696 62.4102 87.3996 60.6502 89.3396C58.9402 91.1996 57.4302 93.2396 56.2202 95.4496L55.0302 95.5896L48.0902 96.3996L34.2202 98.0896C24.9802 99.2596 15.7402 100.46 6.5202 101.76L4.7902 102L3.9302 102.12C3.6502 102.16 3.3602 102.2 3.0002 102.27C1.6502 102.61 0.530197 103.68 0.150197 105C-0.0498032 105.65 -0.0598032 106.36 0.100197 107.02L0.560197 108.72L1.4802 112.09C2.7602 116.57 3.9802 121.07 5.3102 125.53C4.3702 120.96 3.3202 116.43 2.3302 111.87L1.5502 108.46L1.1702 106.77C1.0802 106.29 1.1102 105.79 1.2702 105.34C1.5802 104.42 2.3802 103.71 3.3002 103.51C3.5102 103.47 3.8002 103.44 4.1002 103.41L4.9702 103.31L6.7102 103.12C13.0202 102.43 19.3302 101.68 25.6302 100.91C26.3102 101.87 27.0102 102.8 27.7302 103.71C28.6402 104.87 29.5602 106.01 30.5102 107.13C31.4502 108.25 32.4402 109.35 33.4502 110.43C34.4702 111.51 35.5302 112.56 36.7302 113.5C36.1202 112.1 35.3702 110.81 34.5502 109.56C33.7302 108.31 32.8502 107.11 31.8802 105.97C30.9202 104.83 29.8702 103.75 28.7502 102.75C27.9702 102.06 27.1502 101.41 26.2702 100.83C27.5902 100.67 28.9102 100.51 30.2302 100.35C30.3602 100.7 30.5202 101.03 30.7002 101.34C31.0202 101.89 31.3902 102.39 31.8102 102.85C32.2302 103.31 32.6902 103.73 33.2102 104.1C33.7302 104.46 34.2902 104.79 34.9702 104.99C34.8202 104.28 34.5402 103.69 34.2402 103.14C33.9202 102.6 33.5502 102.1 33.1402 101.64C32.7302 101.18 32.2702 100.77 31.7602 100.4C31.6602 100.33 31.5402 100.27 31.4302 100.2C32.4402 100.08 33.4602 99.9596 34.4702 99.8296L48.3302 98.0396L55.2502 97.1096L56.9802 96.8796C57.6102 96.7996 58.0302 96.7196 58.4802 96.8096C59.3802 96.9496 60.1802 97.6096 60.5002 98.4796L63.5102 111.99C64.5502 116.44 65.5302 120.89 66.6202 125.36C66.5802 125.33 66.5402 125.29 66.4902 125.25C66.3102 125.11 66.0102 124.93 65.6702 124.87C64.9702 124.77 64.5302 125.02 64.2202 125.1L63.1902 125.43C61.8202 125.88 60.4402 126.31 59.0502 126.72C57.6702 127.15 56.2802 127.55 54.8902 127.94L52.8002 128.52C52.1402 128.72 51.2802 128.82 50.4902 129.55C50.1002 129.92 49.8702 130.49 49.9002 131.03C49.9202 131.56 50.1202 132.01 50.3702 132.36C50.8502 133.08 51.6502 133.58 52.3902 133.79C53.3102 134.05 54.2302 134.16 55.1402 134.18C53.8702 134.88 52.6302 135.63 51.4302 136.48C53.2302 136.09 54.9602 135.54 56.6702 134.93C58.3702 134.32 60.0502 133.66 61.7002 132.92L62.9302 132.36C63.1202 132.27 63.2702 132.21 63.3502 132.2C63.4102 132.18 63.4802 132.18 63.6502 132.22C64.4502 132.44 65.3902 132.73 66.2802 132.9C68.0802 133.28 69.9202 133.48 71.7602 133.39L66.6602 131.56L64.1302 130.6C63.8702 130.51 63.4802 130.43 63.0902 130.49C62.7202 130.54 62.4402 130.66 62.2202 130.75L60.9702 131.29C59.3202 132.01 57.6902 132.81 56.0902 133.66C55.9402 133.74 55.7902 133.82 55.6402 133.9C54.6002 133.7 53.5902 133.41 52.6902 132.98C52.0602 132.69 51.6202 132.3 51.3402 131.76C51.2102 131.5 51.1402 131.24 51.1602 131.04C51.1802 130.84 51.2702 130.69 51.4202 130.57C51.7402 130.31 52.4102 130.2 53.1402 130.05L55.2902 129.58C56.7202 129.24 58.1302 128.85 59.5402 128.44C60.9402 128 62.3402 127.54 63.7102 127.04L64.7402 126.65C65.1102 126.5 65.3702 126.42 65.4002 126.43C65.4202 126.43 65.4502 126.43 65.5602 126.5L65.9802 126.8C66.2802 127.02 66.5902 127.23 66.9002 127.43C69.3802 129.08 72.1202 130.33 74.9802 131C72.3802 129.63 69.9502 128.09 67.7202 126.3C67.4402 126.08 67.1702 125.85 66.9002 125.61C66.8002 125.53 66.7102 125.45 66.6102 125.37C65.9102 120.88 65.1002 116.38 64.3402 111.88L63.1102 104.99L62.4802 101.54L62.1602 99.8196L62.0002 98.9596C61.9502 98.6996 61.9002 98.3496 61.7702 98.0096C61.3202 96.6696 60.1302 95.6096 58.7302 95.3396C58.3802 95.2696 58.0202 95.2396 57.6702 95.2596C57.2902 95.2796 57.0702 95.3196 56.7602 95.3596L56.3202 95.4096C58.0602 93.6396 59.8002 91.9296 61.6202 90.3096C63.5202 88.6296 65.4802 87.0196 67.5402 85.5596C69.5802 84.0696 71.7202 82.7096 73.9202 81.4396C75.9802 80.2596 78.1002 79.1696 80.2702 78.1096C80.4202 78.2196 80.5702 78.3396 80.7302 78.4496C78.7002 79.8596 76.8802 81.5996 75.3102 83.4896C73.5402 85.4596 71.9502 87.5196 70.3702 89.6396C68.8302 91.7696 67.3702 93.9896 66.1502 96.3396C64.9202 98.6896 63.9202 101.17 63.3702 103.76C64.6202 101.43 65.9302 99.2096 67.3502 97.0496C68.7802 94.8996 70.2702 92.7796 71.8102 90.6996L76.3802 84.3696C77.7602 82.3396 79.2402 80.4296 80.8302 78.5396C82.3602 79.6696 83.9002 80.7796 85.4702 81.8496C86.6902 82.6996 87.9302 83.5196 89.1802 84.3296C90.2802 85.0296 91.3702 85.6996 92.3402 86.5596L90.9702 89.4196C89.8802 91.7396 88.8602 94.0896 87.8402 96.4396C86.8502 98.7996 85.8902 101.18 84.9702 103.57C84.0802 105.97 83.1802 108.37 82.3702 110.8C80.7502 115.54 79.3602 120.35 78.1802 125.22C77.7102 124.65 77.2002 124.1 76.6402 123.61C76.3102 123.32 75.9402 123.05 75.5102 122.85C75.0702 122.65 74.6102 122.57 74.1802 122.53C73.3102 122.48 72.5002 122.48 71.6502 122.47C69.9802 122.46 68.3002 122.53 66.6402 122.68C68.3102 122.73 69.9702 122.82 71.6302 122.95C72.4502 123.02 73.3002 123.09 74.0902 123.21C74.8902 123.32 75.4902 123.68 76.0402 124.26C77.1902 125.39 78.0602 126.78 78.9602 128.18C79.8402 129.58 80.7002 130.99 81.4802 132.44C83.0402 135.34 84.3102 138.37 85.5302 141.48C86.1402 143.03 86.7802 144.58 87.4302 146.12L87.5502 146.41V146.43C88.0402 147.08 87.7002 146.62 87.8102 146.76L87.8402 146.79L87.9002 146.84L88.0302 146.94L88.5402 147.35C88.8802 147.62 89.2402 147.87 89.6002 148.12C90.3202 148.61 91.0702 149.05 91.8502 149.44C92.6302 149.83 93.4402 150.16 94.2602 150.45C95.1002 150.74 95.9102 150.94 96.7102 151.17C98.3302 151.61 99.9502 152.04 101.59 152.42C104.86 153.16 108.15 153.83 111.47 154.31C113.13 154.55 114.79 154.78 116.45 154.96C118.12 155.14 119.78 155.25 121.39 155.53C123 155.79 124.59 156.24 125.96 157.13C127.32 158 128.5 159.27 128.97 160.89C128.69 159.22 127.59 157.76 126.23 156.74C124.86 155.69 123.21 155.08 121.57 154.67C121.29 154.6 121 154.55 120.72 154.49C121.87 153.4 122.91 152.23 123.89 151.03C124.96 149.73 125.97 148.39 126.93 147.01C127.89 145.63 128.79 144.21 129.64 142.76C130.44 141.4 131.18 140 131.81 138.52C132.76 138.95 133.71 139.38 134.64 139.83C139.31 142.1 143.77 144.76 147.97 147.78C149.57 148.92 151.11 150.14 152.62 151.39C148.74 158.37 144.25 164.97 139.21 171.1C137.91 172.66 136.58 174.2 135.21 175.7C133.91 177.2 132.36 178.4 130.67 179.4C128.97 180.38 127.15 181.16 125.25 181.61C124.3 181.84 123.34 181.99 122.39 182.02C121.61 182.07 120.73 181.72 119.83 181.36C116.22 179.76 112.76 177.53 109.34 175.34C105.91 173.14 102.56 170.82 99.1902 168.51C92.4902 163.84 85.8202 159.11 79.1602 154.36C85.4002 159.66 91.8002 164.77 98.3802 169.64C101.66 172.09 105.01 174.46 108.41 176.76C110.12 177.9 111.85 179.01 113.62 180.07C115.4 181.13 117.19 182.16 119.14 183.01C119.64 183.21 120.13 183.41 120.69 183.56C120.98 183.62 121.22 183.73 121.56 183.75C121.88 183.78 122.24 183.82 122.48 183.79C123.57 183.74 124.64 183.57 125.68 183.31C127.76 182.8 129.74 181.95 131.56 180.86C133.36 179.75 135.06 178.37 136.4 176.75C137.76 175.21 139.06 173.61 140.31 171.98C143.54 167.82 146.44 163.41 148.98 158.81C151.02 160.27 153.25 161.58 155.84 162.09C156.51 162.22 157.21 162.26 157.9 162.23C158.58 162.21 159.33 162.11 160.05 161.71C160.4 161.5 160.74 161.2 160.96 160.8C161.18 160.41 161.27 159.95 161.25 159.53C161.23 159.11 161.14 158.73 161.02 158.38C162.96 151.46 164.06 144.31 164.78 137.15C165.53 129.47 165.83 121.74 165.54 114L165.55 113.97ZM87.2002 51.4796C87.9002 51.4796 88.7102 51.0596 89.1102 50.7296C89.9202 50.0496 90.3302 49.0796 90.3302 48.1196C90.3302 48.5996 90.1902 49.0796 89.9202 49.4696C89.6602 49.8596 89.2802 50.1696 88.8602 50.3296C88.2602 50.5896 87.6202 50.5296 87.1002 50.3296C86.8002 47.6896 86.9302 45.9996 86.9302 45.9996C87.4802 45.4496 88.3702 45.7196 88.8002 45.8996C89.2302 46.0596 89.6302 46.3496 89.9002 46.7496C90.1802 47.1396 90.3202 47.6396 90.3302 48.1296C90.3302 47.1496 89.9002 46.1596 89.0502 45.4796C88.6302 45.1396 87.8602 44.7296 86.9402 44.7796C86.7302 39.1196 87.9902 29.8296 89.2102 26.0196C89.4402 26.1196 89.6702 26.2096 89.9102 26.2896C92.3102 27.0196 94.6502 26.5196 96.7702 26.1796C101.06 25.4596 105.37 24.6896 109.64 23.9096C110.69 23.7396 111.74 23.6396 112.76 23.7596C113.78 23.8596 114.74 24.2796 115.61 24.8796C117.34 26.0996 118.64 27.8596 120.49 29.0396C120.49 29.0396 118.67 38.9996 114.37 46.9896C115.46 49.5696 119.75 49.3296 119.75 49.3296L121.79 46.3296L119.4 48.2296C119.4 48.2296 117.32 48.0296 116.36 46.4896C120.24 38.0596 120.58 28.9296 120.58 28.9296C120.58 28.9296 117.69 25.8396 115.95 24.3996C115.09 23.6896 114.03 23.1196 112.88 22.9196C111.74 22.6896 110.59 22.7596 109.49 22.8696C107.3 23.1196 105.16 23.4196 102.99 23.7096L96.5102 24.6096C94.3602 24.9296 92.2402 25.2296 90.4202 24.6396C88.6402 24.0796 87.2602 22.5896 86.3202 20.8496C87.7802 21.1196 89.3302 20.9496 90.7602 20.5996C92.5902 20.1496 94.2802 19.4796 95.9502 19.0296C97.6202 18.5696 99.2502 18.3796 100.93 18.6996C102.62 18.9996 104.3 19.6696 106.05 20.2996C104.69 19.0396 103.13 17.9696 101.28 17.3496C100.37 17.0196 99.3602 16.8796 98.3702 16.8796C97.3802 16.8796 96.4002 17.0496 95.4802 17.3096C93.6302 17.8096 91.9802 18.6196 90.3402 19.2896C88.9902 19.8196 87.6002 20.2596 86.1202 20.4496C85.6502 19.4996 85.2702 18.4796 84.9602 17.4296C85.4502 17.6596 85.9902 17.7896 86.5202 17.8296C87.5602 17.8996 88.4702 17.7596 89.3802 17.6196C90.2902 17.4696 91.2002 17.2596 92.0902 16.9796C92.9802 16.6896 93.8602 16.3496 94.7202 15.8296C93.7402 15.6096 92.8002 15.5796 91.8602 15.5896C90.9202 15.6096 90.0002 15.6996 89.0902 15.8596C88.1702 15.9996 87.2702 16.2596 86.4502 16.4296C85.8902 16.5496 85.3402 16.6196 84.7402 16.6096C84.5902 16.0196 84.4602 15.4196 84.3602 14.8196C84.1202 13.3796 84.0902 11.9196 84.3802 10.5496C84.9002 11.1696 85.5302 11.6996 86.2502 12.0696C87.5402 12.7896 89.1602 12.8896 90.5002 12.5896C91.8602 12.3096 93.0502 11.7796 94.2402 11.4496C95.4202 11.0796 96.6502 10.8896 97.8902 10.7696C99.1302 10.6496 100.38 10.6796 101.63 10.8196C102.87 10.9696 104.12 11.1796 105.32 11.5696C107.74 12.2896 110.01 13.5296 112.01 15.1396C110.21 13.3096 107.97 11.8796 105.54 10.9396C103.11 9.97958 100.47 9.51958 97.8302 9.60958C96.5102 9.64958 95.1802 9.81958 93.9002 10.1596C92.6002 10.4796 91.4102 10.9396 90.2402 11.1196C89.9802 11.1596 89.7302 11.1896 89.4802 11.1996C88.6102 9.71958 88.0602 8.06958 87.9102 6.39958C87.7702 4.75958 88.0002 3.11958 88.5502 1.60958C89.2502 2.42958 90.1402 3.06958 91.0902 3.52958C92.3302 4.13958 93.6702 4.46958 94.9902 4.65958C96.3202 4.84958 97.6302 4.88958 98.9102 4.94958C100.19 5.00958 101.43 5.10958 102.69 5.28958C105.19 5.63958 107.72 6.13958 110.19 6.73958C110.48 6.80958 110.77 6.88958 111.07 6.95958C112.03 7.71958 112.98 8.47958 113.89 9.24958C115.31 10.4796 116.67 11.7296 117.84 13.1496C119.04 14.5396 120.07 16.0596 120.92 17.6896C121.78 19.3196 122.38 21.0796 122.8 22.9796C123.13 21.0596 122.89 19.0096 122.21 17.1296C121.89 16.1796 121.44 15.2896 120.95 14.4096C120.43 13.5496 119.84 12.7496 119.21 11.9796C117.91 10.4596 116.38 9.16958 114.72 8.11958C114.55 8.00958 114.38 7.91958 114.21 7.81958C115.31 8.14958 116.4 8.51958 117.48 8.92958C118.61 9.35958 119.73 9.83958 120.82 10.3596C121.22 11.0596 121.62 11.7496 121.99 12.4296C122.58 13.5296 123.11 14.6496 123.59 15.7796C124.06 16.9096 124.5 18.0696 124.87 19.2596C125.24 20.4496 125.56 21.6696 125.91 22.9696C126.3 21.6896 126.38 20.3196 126.24 18.9896C126.1 17.6496 125.77 16.3296 125.24 15.0896C124.72 13.8496 124 12.6896 123.15 11.6596C123.1 11.5996 123.04 11.5396 122.99 11.4796C124.29 12.1996 125.54 12.9996 126.74 13.8796C126.84 14.4496 126.95 14.9996 127.05 15.5396C127.22 16.4096 127.36 17.2596 127.49 18.1096C127.62 18.9596 127.72 19.8096 127.81 20.6896C127.91 21.5696 127.97 22.4596 128.1 23.4396C128.7 22.6496 129.03 21.7096 129.22 20.7596C129.4 19.7996 129.41 18.8096 129.26 17.8496C129.12 16.9396 128.85 16.0496 128.44 15.2296C129.06 15.7596 129.67 16.2996 130.25 16.8896C131.99 18.6796 133.74 20.6596 134.17 23.0696C134.38 24.2596 134.04 25.4896 133.31 26.5196C132.73 27.3496 132.02 28.1196 131.42 28.9696C130.68 28.7496 129.93 28.5896 129.18 28.5096C126.62 28.2196 124.07 28.2796 121.57 28.7496C122.58 28.8596 123.57 28.9796 124.56 29.1196C124.37 29.9996 124.18 30.8096 123.92 31.5996C123.65 32.4996 123.33 33.3796 123.02 34.2996L122.12 37.0096C121.81 37.9096 121.47 38.7796 121.04 39.7396C122.01 39.2996 122.78 38.5096 123.37 37.6496C123.96 36.7796 124.39 35.8296 124.71 34.8696C125.03 33.9096 125.26 32.8796 125.3 31.8196C125.32 30.9196 125.19 29.9896 124.82 29.1596C125.61 29.2696 126.39 29.3896 127.17 29.5296C127.07 30.2496 126.98 30.9296 126.86 31.5796C126.72 32.4096 126.54 33.1896 126.32 33.9796C126.1 34.7696 125.85 35.5596 125.59 36.3796C125.33 37.1996 125.05 38.0396 124.87 38.9896C125.67 38.4596 126.3 37.7696 126.84 37.0096C127.37 36.2396 127.79 35.3796 128.04 34.4596C128.47 32.8696 128.4 31.0996 127.65 29.6396C128.07 29.7196 128.5 29.7996 128.92 29.8896C129.23 29.9596 129.54 30.0396 129.85 30.1296C129.8 30.8196 129.76 31.4796 129.69 32.1196C129.61 32.9896 129.5 33.8296 129.35 34.6596C129.2 35.4896 129.02 36.3196 128.79 37.1496C128.57 37.9896 128.29 38.8296 128.01 39.7796C128.88 39.2996 129.55 38.5596 130.08 37.7296C130.6 36.8896 130.95 35.9496 131.12 34.9796C131.29 34.0096 131.29 33.0096 131.1 32.0496C130.98 31.4596 130.78 30.8896 130.51 30.3496C131.45 30.6696 132.32 31.0896 133.06 31.6396C133.16 32.1096 133.22 32.5596 133.19 32.9696C133.17 33.7396 133.03 34.5796 132.9 35.3896C132.76 36.1996 132.58 37.0096 132.35 37.8096C132.13 38.6296 131.83 39.4196 131.49 40.3296C132.38 39.9396 133.1 39.2196 133.63 38.4096C134.16 37.5896 134.5 36.6496 134.66 35.6996C134.77 34.9896 134.82 34.2796 134.73 33.5396C135.7 35.2796 135.15 37.5796 134.17 39.6196C133.22 41.6296 131.83 43.4796 130.5 45.3996C130.09 44.9896 129.62 44.6396 129.07 44.3996C127.81 43.8196 126.4 43.9696 125.24 44.3996C124.07 44.8296 123.05 45.4996 122.07 46.1996C123.17 45.7196 124.28 45.2496 125.41 45.0096C126.53 44.7696 127.68 44.8296 128.58 45.3596C129.47 45.8796 130.13 46.7896 130.5 47.7896C130.86 48.7896 130.94 49.8896 130.8 50.9396C130.46 53.0596 129.22 55.0196 127.36 56.0896C125.53 57.2196 123.22 57.5596 121.07 57.1596H121.02C120.62 57.0796 120.22 57.3296 120.12 57.7396C119.83 58.9196 119.74 60.1296 119.8 61.3096C119.85 62.4896 120.02 63.6396 120.24 64.7596C120.67 66.9996 121.23 69.1596 121.38 71.4396C121.73 69.1796 121.48 66.8496 121.3 64.6196C121.27 64.2096 121.25 63.8096 121.23 63.3996C122.67 63.3696 124.09 63.7296 125.37 64.3396C126.78 65.0096 128.02 65.9696 129.09 67.0796C131.24 69.3196 132.83 72.0596 134.49 74.7096C136.11 77.3896 137.56 80.1596 138.79 83.0196C139.85 85.4696 140.68 87.9996 141.31 90.5696C138.32 89.6896 135.25 89.0496 132.14 88.7196C130.35 88.5396 128.48 88.4596 126.6 88.8796C124.71 89.2796 122.96 90.3296 121.63 91.6496C120.75 92.4996 120.02 93.4696 119.38 94.4696C119.59 93.8596 119.79 93.2596 120 92.6396C120.39 91.5196 120.71 90.3796 121.03 89.2096C121.31 88.0396 121.55 86.8596 121.74 85.6796C122.08 83.2996 122.24 80.9096 122.18 78.5196C122.12 76.1296 121.89 73.7596 121.38 71.4196C121.15 73.7996 121 76.1396 120.79 78.4696C120.69 79.4896 120.59 80.4996 120.48 81.5096C118.73 81.6196 117.01 81.6996 115.29 81.6096C113.26 81.5896 111.24 81.4796 109.22 81.2296C107.2 81.0096 105.19 80.6896 103.17 80.3396C101.15 79.9796 99.1202 79.6596 97.1102 79.1396H97.0702L97.0602 79.1296H97.0302L96.9002 79.0996C97.1902 77.9396 97.4102 76.7596 97.5102 75.5696C97.7102 73.0196 97.6102 70.4896 97.2802 67.9896C98.2202 68.0296 99.1502 67.9796 100.06 67.8996C101.38 67.7796 102.68 67.5696 103.96 67.2696C106.51 66.6296 108.99 65.7096 111.23 64.4096C89.5102 73.8196 87.8902 56.0496 87.2002 51.5096V51.4796ZM96.8402 79.2596L96.9202 79.3096H96.9302L96.9802 79.3496C98.7902 80.4496 100.8 81.1396 102.8 81.7396C104.82 82.3196 106.89 82.7396 108.99 82.9696C111.09 83.1896 113.22 83.2196 115.33 82.9496C117.07 82.8196 118.79 82.4196 120.42 81.8096C120.29 82.9996 120.13 84.1896 119.95 85.3696C119.92 85.5696 119.89 85.7596 119.86 85.9596C117.97 85.9696 116.12 85.8796 114.27 85.7396C113.19 85.6396 112.1 85.5696 111.03 85.4496C109.95 85.3596 108.88 85.2496 107.81 85.1096C105.67 84.8696 103.55 84.5096 101.45 84.0496C99.5602 83.6196 97.7102 83.0596 95.8502 82.3896C96.2302 81.3596 96.5802 80.3196 96.8602 79.2496L96.8402 79.2596ZM89.7502 83.6496C88.6302 82.6696 87.5002 81.6996 86.3502 80.7596C84.3202 79.0696 82.2502 77.4496 80.1502 75.8496C81.8302 74.0896 83.8902 72.6496 85.9902 71.2096C88.1702 69.7296 90.3302 68.1996 92.4302 66.5696C93.5202 67.2496 94.7602 67.7196 96.0202 67.8796C96.4302 67.9296 96.8402 67.9596 97.2402 67.9796C97.1802 70.4996 97.1002 73.0096 96.6202 75.4396C96.2002 77.9196 95.3302 80.2696 94.2902 82.5696L92.4302 86.4596C91.6902 85.3896 90.6802 84.5096 89.7302 83.6596L89.7502 83.6496ZM92.6902 147.85C91.9802 147.5 91.2902 147.1 90.6202 146.66C90.2902 146.44 89.9602 146.21 89.6502 145.97L89.1802 145.6L89.1202 145.55L89.0702 145.44L87.1302 140.85C85.8302 137.78 84.4802 134.67 82.7302 131.77C81.8702 130.32 80.9502 128.9 79.9702 127.54C79.4202 126.79 78.8602 126.02 78.2602 125.29L83.7302 111.31C85.6202 106.58 87.5302 101.85 89.5302 97.1696C91.4802 92.4496 93.6202 87.8796 95.5902 83.0996C95.6502 82.9396 95.7102 82.7696 95.7702 82.5996C97.3602 83.7996 99.1702 84.7296 101.06 85.3996C103.17 86.1596 105.38 86.6196 107.59 86.8996C109.81 87.1496 112.03 87.2496 114.25 87.1496C116.12 87.0696 118.01 86.8296 119.81 86.2796C119.49 88.2696 119.07 90.2296 118.63 92.2396C118.28 93.8696 117.97 95.5396 117.85 97.2196C117.24 98.4596 116.67 99.7196 116.19 100.98L112.28 110.81C109.69 117.37 107.13 123.94 104.61 130.52L102.73 135.46L101.81 137.94L101.01 140.46C100.04 143.55 99.0602 146.63 98.1202 149.72C97.8302 149.64 97.5402 149.56 97.2402 149.48C95.6102 149.03 94.1302 148.57 92.7002 147.84L92.6902 147.85ZM125.5 145.98C124.54 147.36 123.64 148.78 122.79 150.23C122 151.59 121.26 152.98 120.63 154.46C119.3 154.2 117.96 154.02 116.65 153.8C115.01 153.53 113.37 153.25 111.74 152.94C108.48 152.3 105.24 151.61 102.03 150.78C100.74 150.45 99.4402 150.11 98.1602 149.75C99.3302 146.74 100.46 143.71 101.59 140.69L102.52 138.22L103.57 135.79L105.64 130.93C108.39 124.45 111.11 117.95 113.79 111.45L117.79 101.68C118.43 100.03 119.16 98.4696 119.96 96.9496C120.77 95.4396 121.69 94.0396 122.86 92.8896C124.03 91.7396 125.41 90.8996 126.98 90.5596C128.55 90.1996 130.25 90.2396 131.96 90.3996C135.4 90.7296 138.83 91.3996 142.14 92.4096H142.16C142.28 92.4496 142.42 92.4596 142.56 92.4296C142.98 92.3296 143.24 91.9196 143.14 91.4996C142.21 87.4696 140.69 83.6396 138.8 80.0196C140.37 80.5296 141.88 81.1996 143.3 82.0196C144.94 82.9896 146.49 84.1096 147.93 85.3596C149.38 86.5896 150.76 87.9096 152.08 89.2896C153.4 90.6696 154.71 92.0596 155.93 93.5196C157.72 95.6696 159.38 97.9396 160.67 100.38C158.27 99.5796 155.63 99.5096 153.11 99.9296C150.21 100.43 147.43 101.61 144.94 103.16C142.42 104.69 140.18 106.58 138 108.49C135.86 110.43 133.72 112.34 131.7 114.5C129.7 116.69 128.06 119.12 126.46 121.51C124.88 123.91 123.26 126.33 121.91 128.92C121.23 130.21 120.6 131.54 120.08 132.9C119.95 133.24 119.83 133.59 119.7 133.93C119.64 134.11 119.56 134.33 119.55 134.63C119.53 134.94 119.68 135.28 119.86 135.47C120.23 135.87 120.53 135.99 120.82 136.21L121.72 136.81C124.13 138.37 126.5 139.98 128.95 141.5C128.81 141.66 128.67 141.82 128.54 141.98C127.48 143.28 126.46 144.62 125.5 146V145.98ZM128.95 141.47C126.74 139.63 124.47 137.87 122.24 136.07L121.39 135.41C121.12 135.19 120.77 134.96 120.67 134.8C120.61 134.71 120.62 134.7 120.63 134.65C121.09 134.59 121.56 134.65 122.01 134.76C122.63 134.9 123.25 135.13 123.87 135.35C125.11 135.76 126.33 136.24 127.54 136.71C128.96 137.26 130.36 137.86 131.75 138.48C130.75 139.43 129.83 140.45 128.96 141.49L128.95 141.47ZM159.45 160.69C159.04 160.97 158.46 161.13 157.85 161.18C157.24 161.25 156.62 161.26 155.99 161.2C153.57 161.01 151.26 159.89 149.03 158.75C150.35 156.35 151.58 153.9 152.7 151.41C153.17 151.8 153.65 152.18 154.11 152.58C156.09 154.26 158.01 155.99 159.37 158.06C159.69 158.55 159.94 159.09 159.98 159.56C160.02 160.03 159.85 160.4 159.45 160.68V160.69ZM163.87 125.52C163.82 129.35 163.63 133.18 163.4 137.01C163.15 140.84 162.82 144.66 162.38 148.47C162.03 151.71 161.54 154.92 160.94 158.13C160.83 157.86 160.7 157.6 160.57 157.36C159.19 154.94 157.17 153.1 155.24 151.33C153.27 149.56 151.21 147.9 149.07 146.34C144.75 143.28 140.14 140.62 135.27 138.57C132.84 137.53 130.36 136.64 127.83 135.89C126.56 135.54 125.29 135.19 124.01 134.91C123.37 134.76 122.74 134.59 122.07 134.51C121.6 134.46 121.12 134.47 120.66 134.58C120.68 134.51 120.71 134.43 120.75 134.32C120.89 134 121.03 133.67 121.18 133.35C121.77 132.07 122.42 130.81 123.15 129.59C124.6 127.15 126.22 124.8 127.88 122.45C129.52 120.09 131.12 117.75 133.03 115.7C134.92 113.63 137.07 111.7 139.15 109.73C141.23 107.77 143.38 105.92 145.7 104.32C148.02 102.74 150.56 101.46 153.3 100.78C154.66 100.43 156.07 100.21 157.49 100.2C158.59 100.2 159.69 100.31 160.77 100.54C161.19 101.35 161.57 102.17 161.9 103.02C163.32 106.46 163.65 110.22 163.78 114.04C163.95 117.86 163.96 121.69 163.88 125.51L163.87 125.52Z" fill="black"/>
<path d="M70.1605 150.439C69.7805 150.129 69.4005 149.819 69.0405 149.479C68.8605 149.309 68.7005 149.129 68.5205 148.959C68.3505 148.809 68.1605 148.479 67.5905 148.239C67.3105 148.129 66.9705 148.119 66.7005 148.179C66.4305 148.239 66.2205 148.349 66.0605 148.459C65.7305 148.679 65.5405 148.869 65.3605 149.019C64.9905 149.329 64.5905 149.609 64.1905 149.869C63.3905 150.399 62.4705 150.849 61.6005 151.109C60.7205 151.349 59.8005 151.379 59.1505 150.799C58.5705 150.319 58.2905 149.459 58.0605 148.589L60.3205 147.589L63.0305 146.289C63.9105 145.849 64.8405 145.349 65.6205 144.939C67.1705 144.169 69.1905 144.619 71.1605 144.999C70.3005 144.459 69.4005 143.989 68.4005 143.679C67.4105 143.379 66.2305 143.289 65.1405 143.639C64.6105 143.799 64.1305 144.009 63.6805 144.199L62.3005 144.759L59.5805 145.949L56.9005 147.229C56.0205 147.709 55.1605 148.059 54.6005 147.959C54.3305 147.919 54.1005 147.729 53.8705 147.359C53.6405 146.999 53.4305 146.529 53.2505 146.099C52.9005 145.249 52.5905 144.269 53.1905 143.409C52.7605 143.679 52.4605 144.199 52.3805 144.739C52.2805 145.279 52.3305 145.819 52.4105 146.339C52.5105 146.869 52.6205 147.339 52.8205 147.879C53.0005 148.399 53.4705 149.039 54.1705 149.289C54.8605 149.549 55.5305 149.459 56.0705 149.319C56.6305 149.179 57.1205 148.969 57.5705 148.789L57.8805 148.649C57.8205 149.539 57.8805 150.489 58.4805 151.369C58.8505 151.879 59.4405 152.239 60.0505 152.399C60.6605 152.569 61.2805 152.539 61.8605 152.469C63.0405 152.299 64.0505 151.839 65.0505 151.309C65.5405 151.039 66.0005 150.709 66.4505 150.359C66.6805 150.179 66.8705 150.009 66.9905 149.939C67.0405 149.989 67.1205 150.059 67.2205 150.169C67.4205 150.359 67.6105 150.569 67.8205 150.749C68.2405 151.119 68.6605 151.479 69.1205 151.789C70.0405 152.409 71.0105 152.949 72.0505 153.319C72.3605 153.439 72.6705 153.539 72.9805 153.629C73.5705 157.399 74.2905 161.209 74.8705 164.909C74.9405 165.789 74.5605 166.669 73.9105 167.229C73.5805 167.509 73.2005 167.709 72.7905 167.809C72.5905 167.859 72.3805 167.879 72.1605 167.889H71.4105L65.3105 167.839C63.0305 167.829 60.7505 167.839 58.4605 167.839C58.3905 167.489 58.2805 167.169 58.1505 166.849C57.9205 166.319 57.6305 165.839 57.2805 165.399C56.9305 164.959 56.5305 164.559 56.0705 164.219C55.6005 163.879 55.0905 163.589 54.4505 163.429C54.5405 164.089 54.7605 164.619 55.0005 165.129C55.2505 165.629 55.5505 166.089 55.8805 166.509C56.2205 166.929 56.6005 167.329 57.0205 167.679C57.0805 167.729 57.1505 167.779 57.2105 167.829C56.1405 167.829 55.0805 167.829 54.0105 167.829C53.5005 166.809 52.9005 165.849 52.2405 164.939C51.4105 163.779 50.5105 162.679 49.5305 161.639C48.5605 160.599 47.5005 159.639 46.4105 158.739L43.1105 156.079C43.6405 157.439 44.5205 158.629 45.4305 159.729C46.3405 160.819 47.2705 161.849 48.2305 162.869C49.1905 163.889 50.1705 164.879 51.1905 165.849C51.9005 166.529 52.6305 167.189 53.4005 167.829C51.6605 167.829 49.9205 167.849 48.1805 167.869C47.7705 167.009 47.2705 166.219 46.7405 165.449C46.0305 164.429 45.2605 163.459 44.4205 162.559C43.5805 161.649 42.6705 160.809 41.7105 160.039C40.7405 159.259 39.7205 158.549 38.5705 157.989C39.2205 159.089 39.9605 160.069 40.7305 161.029C41.5005 161.979 42.2905 162.899 43.1205 163.789C43.9405 164.679 44.8005 165.539 45.7005 166.369C46.2605 166.889 46.8505 167.399 47.4605 167.889C45.2805 167.909 43.1005 167.919 40.9205 167.939L28.7305 168.129L22.6305 168.259L21.8705 168.279H21.4905C21.3905 168.279 21.3005 168.279 21.2005 168.279C20.8105 168.249 20.4405 168.109 20.1005 167.909C19.7705 167.699 19.4805 167.419 19.2805 167.079C19.1805 166.909 19.1005 166.729 19.0305 166.539L18.8005 165.809C16.4705 158.339 14.0205 150.909 11.4905 143.499C11.5305 143.499 11.5705 143.499 11.6105 143.499C11.9305 143.459 12.3205 143.349 12.6405 143.109C13.2705 142.619 13.4805 141.919 13.4605 141.319C13.4605 140.689 13.1605 140.149 12.8405 139.769C12.5405 139.429 12.2005 139.179 11.8305 138.969C12.1305 138.569 12.2505 138.129 12.2805 137.759C12.3205 137.319 12.2605 136.929 12.1605 136.579C11.7605 135.129 10.8105 134.139 9.80053 133.329C10.1705 132.989 10.4405 132.569 10.5705 132.109C10.7205 131.609 10.7405 131.059 10.5705 130.539C10.4105 129.989 10.0205 129.589 9.76053 129.349C8.68053 128.329 7.55053 127.339 6.29053 126.479C6.99053 127.839 7.83053 129.069 8.71053 130.269C8.94053 130.579 9.03053 130.769 9.06053 130.949C9.09053 131.139 9.06053 131.359 8.97053 131.559C8.80053 131.969 8.46053 132.209 7.97053 132.309C7.03053 132.519 5.88053 131.829 5.31053 130.739C4.73053 129.649 4.61053 128.189 5.21053 126.789C3.99053 127.749 3.47053 129.619 4.02053 131.269C4.27053 132.109 4.82053 132.859 5.55053 133.419C5.71053 133.539 5.89053 133.649 6.08053 133.739C5.98053 134.119 5.88053 134.499 5.79053 134.889C5.68053 135.559 5.47053 136.119 5.55053 136.959C5.58053 137.369 5.80053 137.889 6.11053 138.219C6.42053 138.559 6.76053 138.779 7.08053 138.969C7.35053 139.129 7.64053 139.249 7.94053 139.359C7.72053 140.039 7.75053 140.829 8.08053 141.539C8.55053 142.559 9.56053 143.309 10.7005 143.499C10.9305 143.529 11.1605 143.539 11.4105 143.529C13.3305 151.129 15.3405 158.689 17.4605 166.229L17.6705 166.969C17.7605 167.269 17.8705 167.559 18.0305 167.829C18.3305 168.369 18.7705 168.839 19.2905 169.189C19.8105 169.539 20.4105 169.759 21.0405 169.829C21.2005 169.849 21.3505 169.849 21.5105 169.859H21.8905H22.6505H28.7505L40.9505 169.759C49.0805 169.649 57.2105 169.519 65.3405 169.289L71.4405 169.109L72.2105 169.079C72.5105 169.059 72.8005 169.009 73.0905 168.929C73.6605 168.759 74.1905 168.459 74.6105 168.049C75.4705 167.249 75.9205 166.029 75.7505 164.879C75.3005 162.809 74.8005 160.899 74.3305 158.899C73.9205 157.169 73.4905 155.439 73.0505 153.709C74.8205 154.219 76.6905 154.349 78.4505 153.999C76.3505 153.669 74.4005 153.039 72.6205 152.109C71.7405 151.629 70.8905 151.109 70.1305 150.489L70.1605 150.439ZM7.28053 137.069C7.14053 136.939 7.05053 136.859 6.97053 136.639C6.82053 136.209 6.80053 135.469 6.72053 134.859C6.67053 134.529 6.62053 134.189 6.56053 133.859C7.13053 134.059 7.75053 134.139 8.36053 134.019C8.85053 133.919 9.34053 133.709 9.75053 133.369C9.78053 133.349 9.80053 133.319 9.82053 133.299C10.2605 134.529 10.7905 135.689 10.8305 136.759C10.8305 137.039 10.8305 137.289 10.7705 137.489C10.7205 137.699 10.6205 137.839 10.5605 137.879C10.5005 137.909 10.4405 137.949 10.2405 137.949C10.0605 137.959 9.78053 137.929 9.50053 137.879C8.95053 137.789 8.42053 137.619 7.90053 137.399C7.64053 137.299 7.43053 137.179 7.28053 137.059V137.069ZM11.0405 141.679C10.0105 141.499 9.05053 140.789 8.61053 139.499C8.80053 139.549 8.99053 139.619 9.18053 139.649C9.54053 139.709 9.90053 139.759 10.3605 139.719C10.8005 139.679 11.3905 139.499 11.7705 139.059C11.7705 139.059 11.7705 139.049 11.7805 139.039C12.0405 139.879 12.2905 140.669 12.0805 141.159C11.9905 141.439 11.8105 141.639 11.7005 141.669C11.6405 141.699 11.3605 141.729 11.0305 141.669L11.0405 141.679Z" fill="black"/>
<path d="M50.0204 141.38C50.3204 141.9 50.7104 142.39 51.2804 142.75C51.8404 143.14 52.6804 143.21 53.3004 143.08C53.9404 142.96 54.4404 142.77 54.9504 142.6L56.4904 142.09L59.5504 140.99L62.5804 139.8C63.0704 139.59 63.6004 139.36 64.0504 139.19C64.5204 139.02 64.9004 138.92 65.3204 138.94C65.7504 138.96 66.2704 139.11 66.8104 139.22L68.4104 139.56C69.4804 139.76 70.5504 139.97 71.6504 140.09C70.6704 139.58 69.6704 139.15 68.6704 138.72L67.1604 138.1C66.6604 137.9 66.1504 137.68 65.5104 137.56C64.8504 137.42 64.1404 137.53 63.5804 137.7C63.0004 137.87 62.5204 138.05 62.0004 138.22L58.9404 139.32L55.9104 140.51L54.4104 141.14C53.9104 141.34 53.4004 141.59 52.9904 141.73C52.5604 141.87 52.2404 141.88 51.8504 141.73C51.4604 141.58 51.0804 141.27 50.7604 140.9C50.1204 140.17 49.6704 139.15 49.9304 138.07C49.2704 139.01 49.4604 140.38 50.0404 141.4L50.0204 141.38Z" fill="black"/>
<path d="M8.70043 113.119C10.4804 112.859 11.5904 111.289 11.5704 109.809C11.5704 110.559 11.2104 111.299 10.6404 111.749C10.0704 112.199 9.33043 112.359 8.70043 112.229C7.40043 111.959 6.71043 110.809 6.73043 109.809C6.72043 108.809 7.40043 107.669 8.70043 107.389C9.33043 107.259 10.0704 107.409 10.6404 107.869C11.2104 108.319 11.5704 109.059 11.5704 109.809C11.6004 108.329 10.4904 106.759 8.70043 106.489C7.83043 106.359 6.86043 106.609 6.13043 107.229C5.39043 107.839 4.94043 108.819 4.94043 109.799C4.94043 110.779 5.39043 111.759 6.13043 112.369C6.86043 112.989 7.84043 113.239 8.70043 113.109V113.119Z" fill="black"/>
<path d="M13.9701 109.9C14.4901 110.3 15.1601 110.43 15.7201 110.3C16.8801 110.02 17.4401 109.01 17.4301 108.15C17.4301 108.6 17.2001 109.04 16.8401 109.27C16.4801 109.51 16.0501 109.54 15.7201 109.41C15.3901 109.28 15.1701 109.04 15.0601 108.81C14.9401 108.57 14.9101 108.36 14.9101 108.15C14.9101 107.94 14.9501 107.72 15.0601 107.49C15.1701 107.26 15.3901 107.02 15.7201 106.89C16.0501 106.76 16.4801 106.79 16.8401 107.03C17.1901 107.26 17.4301 107.7 17.4301 108.15C17.4301 107.29 16.8801 106.27 15.7201 105.99C15.1601 105.86 14.4801 105.99 13.9701 106.39C13.4501 106.79 13.1201 107.46 13.1201 108.14C13.1201 108.82 13.4501 109.5 13.9701 109.89V109.9Z" fill="black"/>
<path d="M90.2009 194.119C98.7999 194.119 105.771 187.149 105.771 178.549C105.771 169.95 98.7999 162.979 90.2009 162.979C81.6018 162.979 74.6309 169.95 74.6309 178.549C74.6309 187.149 81.6018 194.119 90.2009 194.119Z" fill="white"/>
<path d="M91.7029 187.665C88.4138 188.333 85.2049 186.214 84.5364 182.931L83.9414 180.023C83.8144 179.395 84.2155 178.78 84.8506 178.653L94.4773 176.688C95.1057 176.56 95.7208 176.962 95.8478 177.597L96.4428 180.505C97.1113 183.794 94.9921 187.003 91.7096 187.671L91.7029 187.665Z" fill="#0ABBEF"/>
<path d="M96.9309 180.552L96.5432 178.058L96.4964 177.744C96.483 177.644 96.4697 177.543 96.4295 177.383C96.3627 177.156 96.2557 176.935 96.102 176.755C96.0619 176.708 96.0217 176.661 95.9816 176.621C95.7677 176.407 95.5003 176.253 95.1995 176.173C95.0524 176.133 94.8986 176.113 94.7449 176.113C94.5911 176.113 94.4173 176.146 94.3371 176.16C94.3037 176.166 94.2769 176.173 94.2435 176.18C94.2301 176.106 94.2167 176.033 94.2034 175.959L93.9092 174.268C93.8156 173.693 93.6084 173.131 93.3142 172.616C92.7259 171.587 91.7633 170.745 90.6067 170.323C89.4569 169.902 88.1332 169.882 86.9432 170.323C85.7466 170.751 84.7237 171.654 84.102 172.79C83.507 173.92 83.2797 175.304 83.5873 176.547C83.6006 176.621 83.6207 176.688 83.6341 176.761C83.7477 177.289 83.868 177.818 83.9951 178.346C83.8747 178.399 83.7678 178.466 83.6675 178.54C83.4268 178.733 83.2396 178.981 83.126 179.255C83.0123 179.536 82.9789 179.843 83.0123 180.131C83.0391 180.291 83.0658 180.391 83.0926 180.492L83.1728 180.792L83.7945 183.239C84.2023 184.957 85.3254 186.462 86.7828 187.351C87.4045 187.745 88.0931 188.026 88.8017 188.186C89.3566 188.32 89.9315 188.367 90.4998 188.353H90.5332C90.5332 188.353 90.5466 188.353 90.5532 188.353H90.6468C90.7672 188.353 90.8875 188.347 91.0078 188.333C91.0078 188.333 91.4023 188.273 91.4156 188.273C91.4156 188.273 91.5226 188.253 91.6229 188.233C91.6296 188.233 91.6363 188.233 91.6429 188.233C91.6429 188.233 91.6362 188.233 91.6296 188.233C91.7298 188.213 91.8234 188.193 91.8569 188.186C93.4279 187.825 94.8585 186.856 95.7878 185.519C96.7839 184.128 97.2184 182.31 96.9242 180.565L96.9309 180.552ZM91.0546 176.755L86.2747 177.704C86.2346 177.443 86.034 176.233 85.9939 175.972C85.7332 174.341 86.9165 172.73 88.4407 172.503C89.1895 172.369 89.9783 172.523 90.6067 172.951C91.2285 173.379 91.6897 174.027 91.8435 174.776C91.9638 175.364 92.0975 175.946 92.2312 176.534C91.8368 176.608 91.4424 176.681 91.0546 176.755Z" fill="black"/>
<path d="M91.8095 183.213L91.756 183.093L91.6557 182.859C91.5287 182.564 91.4017 182.27 91.2881 181.969C91.7025 181.602 91.8496 181.047 91.6958 180.572C91.7761 180.826 91.756 181.114 91.629 181.348C91.5087 181.575 91.3014 181.756 91.0741 181.816L90.9805 181.421L90.5326 181.401C90.3655 181.395 90.1716 181.321 90.0312 181.14C89.8908 180.967 89.8173 180.666 89.951 180.378C90.0713 180.091 90.419 179.85 90.8067 179.877C91.1945 179.897 91.5755 180.178 91.6958 180.572C91.5755 180.184 91.2546 179.857 90.8401 179.717C90.4257 179.576 89.8908 179.65 89.4964 179.997C89.0953 180.332 88.8747 180.953 89.0351 181.535C89.1421 181.969 89.4697 182.35 89.8908 182.558C89.931 182.758 89.9711 182.966 90.0245 183.166L90.0981 183.407L90.1917 183.701C90.3387 184.142 90.8335 184.396 91.2413 184.283C91.6557 184.189 91.9365 183.768 91.863 183.387C91.8429 183.273 91.8229 183.246 91.8095 183.206V183.213Z" fill="black"/>
<path d="M99.5206 165.949C102.791 168.389 105.371 171.949 106.251 176.149C107.201 180.309 106.111 184.949 103.421 188.319C100.731 191.719 96.6806 193.759 92.5606 194.279C88.4406 194.849 84.1206 193.909 80.6106 191.529C77.0806 189.199 74.5206 185.289 73.8406 181.009C73.1006 176.739 74.1506 172.139 76.7906 168.639C79.4006 165.139 83.5206 162.779 87.7906 162.479C92.0606 162.109 96.2406 163.519 99.5206 165.949ZM99.3906 166.119C96.1206 163.669 91.7906 162.969 87.9906 163.839C84.1906 164.719 80.7906 166.879 78.5706 169.959C76.3406 173.009 75.2606 176.909 75.7706 180.709C76.2706 184.499 78.2306 188.109 81.2806 190.609C84.3206 193.109 88.5006 194.289 92.4506 193.609C96.4106 192.949 99.8706 190.469 102.011 187.289C104.201 184.109 105.231 180.249 104.941 176.339C104.641 172.449 102.701 168.509 99.3906 166.119Z" fill="black"/>
</g>
<defs>
<linearGradient id="paint0_linear_2014_10897" x1="13.96" y1="96.0595" x2="174.05" y2="96.0595" gradientUnits="userSpaceOnUse">
<stop stop-color="#EE882C"/>
<stop offset="0.16" stop-color="#EF8F28"/>
<stop offset="0.42" stop-color="#F2A51F"/>
<stop offset="0.73" stop-color="#F8C80F"/>
<stop offset="1" stop-color="#FFED00"/>
</linearGradient>
<clipPath id="clip0_2014_10897">
<rect width="174.27" height="194.44" fill="white"/>
</clipPath>
</defs>
</svg>
