<svg width="183" height="183" fill="none" xmlns="http://www.w3.org/2000/svg"><path d="M103.854 163.88c43.36 0 78.51-11.717 78.51-26.17 0-14.453-35.15-26.17-78.51-26.17-43.36 0-78.51 11.717-78.51 26.17 0 14.453 35.15 26.17 78.51 26.17z" fill="url(#a)"/><path d="M182.354 137.71c0 1.83-.58 3.63-1.53 5.18-.95 1.56-2.2 2.91-3.56 4.13-2.75 2.41-5.94 4.25-9.23 5.81-6.6 3.12-13.63 5.23-20.73 6.89-14.23 3.26-28.85 4.7-43.46 4.91-14.61.14-29.29-.87-43.7-3.86-7.18-1.57-14.31-3.55-21.09-6.69-3.37-1.58-6.67-3.45-9.59-5.98-1.44-1.28-2.8-2.72-3.87-4.45-1.06-1.72-1.77-3.8-1.77-5.94 0-2.14.7-4.22 1.77-5.94 1.06-1.73 2.42-3.17 3.87-4.45 2.92-2.53 6.22-4.4 9.59-5.98 6.77-3.14 13.91-5.12 21.09-6.69 14.4-2.99 29.09-4 43.7-3.86 14.61.22 29.23 1.65 43.46 4.92 7.1 1.65 14.13 3.77 20.73 6.89 3.29 1.56 6.48 3.4 9.23 5.81 1.36 1.21 2.61 2.56 3.56 4.13.95 1.55 1.54 3.35 1.53 5.18v-.01zm0 0c0-1.83-.6-3.62-1.55-5.17-.95-1.55-2.21-2.89-3.57-4.1-2.76-2.39-5.95-4.21-9.24-5.75-6.61-3.06-13.67-5.03-20.77-6.58-14.26-2.96-28.85-3.96-43.37-3.82-14.52.21-29.05 1.65-43.14 4.88-7.03 1.63-13.97 3.73-20.41 6.78-3.21 1.52-6.3 3.32-8.88 5.58-1.27 1.14-2.42 2.39-3.26 3.77-.84 1.38-1.32 2.89-1.32 4.41s.47 3.03 1.32 4.41c.84 1.38 1.99 2.63 3.26 3.77 2.58 2.27 5.67 4.06 8.88 5.58 6.44 3.05 13.39 5.15 20.41 6.78 14.09 3.24 28.62 4.66 43.14 4.88 14.52.14 29.11-.86 43.37-3.82 7.1-1.55 14.16-3.52 20.77-6.58 3.29-1.54 6.48-3.36 9.24-5.75 1.36-1.2 2.62-2.54 3.57-4.1.96-1.54 1.55-3.34 1.55-5.17z" fill="#000"/><path d="M132.825 142.37h-71.95c-5.75 0-10.41 4.66-10.41 10.41h92.77c0-5.75-4.66-10.41-10.41-10.41z" fill="#0ABBEF"/><path d="M75.485 142.38c-4.42-.26-8.85-.28-13.26-.08-3.16.15-6.6.54-8.82 2.79-1.8 1.82-2.4 4.47-2.9 6.99-.03.16-.06.34.04.47.11.15.33.16.52.15 1.93-.07 3.85-.14 5.78-.22.72-2.93 2.88-5.47 5.65-6.65 2.34-1 4.97-1.05 7.51-1.09.57 0 1.15-.02 1.72-.02-2.04 2.63-4.07 5.27-6.11 7.9 1.58.06 3.15.11 4.73.17.47.02.96.03 1.39-.17.37-.17.65-.49.92-.8l6.24-7.2 7.91-.11c.31 0 .62 0 .93-.01-2.24 2.72-4.49 5.44-6.73 8.16 1.47.07 2.94.09 4.41.09.52 0 1.04-.01 1.52-.2.52-.2.94-.58 1.34-.96 2.64-2.44 5.29-4.88 7.93-7.31 5.31-.24 10.58-.78 15.72-2.07l-36.44.17zM130.805 22.98l1.06-9.46 9.91-2.03-9.21-1.79-2.3-9.27-2.36 9.64-7.16 2.21 7.8 1.18 2.26 9.52zM147.625 83.44V51.16c2.39-1.03 4.08-3.33 4.4-6.03.32-2.84-.95-5.42-3.41-6.9l-46.24-27.11a8.307 8.307 0 0 0-8.4 0l-25.92 15.19-5.98 3.51.85-7.65 14.18-2.9-13.17-2.56-3.29-13.26-3.38 13.78-10.23 3.17 11.14 1.68 2.1 8.8-12.4 7.27s-.13.08-.14.08c-2.46 1.48-3.73 4.06-3.4 6.9.31 2.7 2 5 4.39 6.03v70.669c0 6.17 4.41 11.34 10.26 12.5.8.16 1.64.24 2.49.24h73.42c1.31 0 2.56-.2 3.75-.56.39-.12.77-.26 1.13-.42h.02c.23-.1.46-.2.69-.31.02-.01.04-.02.07-.04.24-.12.48-.25.72-.39s.48-.29.71-.45c.2-.13.4-.27.59-.42.48-.37.94-.77 1.36-1.2.15-.15.29-.3.43-.45.08-.09.16-.18.23-.28.14-.15.26-.31.39-.47 1.66-2.15 2.64-4.84 2.64-7.76v-38.39.01zM24.755 71.48l-2.34 9.55-7.08 2.2 7.72 1.16 2.24 9.43 1.05-9.37 9.82-2.01-9.13-1.77-2.28-9.19zM30.365 47.71l-13.17-2.56-3.29-13.26-3.38 13.78-10.23 3.17 11.14 1.68 3.25 13.61 1.5-13.52 14.18-2.9z" fill="#fff"/><path d="m148.605 38.22-46.24-27.11a8.307 8.307 0 0 0-8.4 0L68.045 26.3c.7-.26 1.41-.51 2.12-.76-6.79 4.08-14.43 6.8-21.02 11.23-2.44 1.64-4.92 3.85-5.19 6.78-.24 2.6 1.4 5.09 3.55 6.58.35.25.74.49.94.87.16.31.19.67.21 1.02.17 3.71-.2 7.54 1.01 11.06.59-3.63 1.17-7.26 1.76-10.89.07-.45.15-.91.08-1.37-.1-.72-.54-1.35-.95-1.95-.74-1.12-1.43-2.3-1.75-3.6-.32-1.3-.25-2.75.45-3.89.5-.83 1.29-1.44 2.06-2.02 8.02-6.01 17.06-10.49 25.78-15.43.68-.38 1.36-.78 2.03-1.21 5.21-1.45 10.5-2.59 15.84-3.4.96-.15 1.94-.28 2.91-.14 1.04.15 2 .61 2.94 1.06 10.74 5.18 21.62 10.45 30.65 18.22 1.48 1.27 2.96 2.67 3.66 4.5.7 1.83.41 4.17-1.17 5.33-.68.49-1.59.8-1.91 1.57-.14.34-.14.72-.14 1.09.01 1.42-.05 2.84-.04 4.27v46.51c-.94 3.32-2.52 6.42-4.95 8.84-1.33 1.33-2.89 2.43-4.46 3.46-4.31 2.83-8.9 5.27-13.81 6.85 1.45.37 2.94.48 4.44.56l-2.15.22c3.94.69 7.87 1.53 11.75 2.51-.77 1.07-2.13 1.5-3.41 1.82a60.005 60.005 0 0 1-15.15 1.82c2.2.12 4.39.49 6.5 1.1l-6.84-.35c-1.55 1.59-3.44 3.81-4.86 5.53.68.62 2.07.13 2.99.18 2.17.11 4.35.18 6.52.21-.07.04-.14.08-.21.11h26.62c1.31 0 2.56-.2 3.75-.56.39-.12.77-.26 1.13-.42h.02c.23-.1.46-.2.69-.31.02-.01.04-.02.07-.04.24-.12.48-.25.72-.39s.48-.29.71-.45c.2-.13.4-.27.59-.42.48-.37.94-.77 1.36-1.2.15-.15.29-.3.43-.45.08-.09.16-.18.23-.28.14-.15.26-.31.39-.47 1.66-2.15 2.64-4.84 2.64-7.76V51.16c2.39-1.03 4.08-3.33 4.4-6.03.32-2.84-.95-5.42-3.41-6.9l.04-.01zM48.715 121.83c0 6.17 4.41 11.34 10.26 12.5.43-.24.84-.51 1.24-.8.14.04.28.07.43.08 1.01.11 2.01.21 3.02.32 1.34.14 2.68.28 4.03.24 1.51-.05 3-.34 4.48-.63.27-.05.54-.1.77-.24.26-.15.47-.38.66-.61l3.93-4.6-1.48-.09c-3.72.15-7.44.16-11.17.05-1.55-.05-3.18-.16-4.54-.83-.02-.05-.03-.1-.06-.15-.16-.28-.45-.47-.71-.67-3.26-2.42-5.01-6.84-4.14-10.8V73.22c-.36.06-.59-.28-.79-.58-1.43-2.22-3.96-3.47-5.93-5.21v54.4z" fill="#0ABBEF"/><path d="M108.485 33.01c2.1.54 4.2 1.08 6.3 1.63-4.47-2.79-9.38-4.77-14.27-6.74-1.01-.41-2.04-.82-3.13-.94-2.93-.32-5.6 1.52-7.97 3.26l-7.15 3.82c-5.55 3.04-11.08 6.12-16.59 9.23-1.43.81-2.94 1.69-3.74 3.13-.93 1.66-.73 3.69-.51 5.57l1.26 10.65c.61-2.63 1.21-5.27 1.82-7.9.43-1.87.9-3.81 2.11-5.3.87-1.07 2.07-1.81 3.25-2.52 8.02-4.8 16.43-8.91 24.83-13.01 1.46-.71 2.94-1.43 4.53-1.78 3.06-.66 6.23.13 9.26.91v-.01z" fill="#0ABBEF"/><path d="M60.534 35.86c-2.4 1.39-4.83 2.78-6.89 4.64-1.01.91-1.96 1.99-2.22 3.32-.15.78-.05 1.6.16 2.37.51 1.96 1.87 3.87 3.85 4.29-.73-2.1-1.46-4.49-.47-6.48.49-.99 1.35-1.75 2.23-2.43 1.92-1.48 4.03-2.72 6.27-3.66.28-.12.57-.23.87-.18.25.04.46.19.67.34 1.34.95 2.67 1.9 4.01 2.86-.84-1.19-1.67-2.38-2.51-3.57-.4-.57-.82-1.28-.56-1.93.28-.67 1.18-.86 1.87-.63.69.23 1.22.76 1.79 1.21 1.09.86 2.37 1.47 3.63 2.06-1.05-1.46-2.11-2.92-3.16-4.37-.08-.11-.17-.24-.14-.38s.18-.22.32-.28c.68-.31 1.36-.62 2.04-.92.18-.08.36-.16.56-.13.24.03.42.23.58.41 1.12 1.21 2.47 2.21 3.96 2.91a58.052 58.052 0 0 0-3.63-6.84l4-2.5c-5.74 3.31-11.48 6.61-17.21 9.92l-.02-.03zM83.714 133.94c2.26.2 4.54.16 6.78-.12.24-.03.48-.06.7-.17.37-.19.61-.56.83-.91 1.13-1.71 2.62-3.17 4.36-4.26l-13.33.12c-1.58 1.81-3.15 3.62-4.73 5.43 1.72-.56 3.58-.25 5.38-.09h.01zM62.024 100.48c-1.05 5.05-2.11 10.17-1.77 15.31.11 1.74.44 3.59 1.64 4.86.92.98 2.24 1.48 3.54 1.81 7.41 1.91 15.17-.47 22.82-.62-5.34-.18-9.28.19-14.62.01-1.53-.05-4.49.06-5.97-.34-1.48-.4-2.87-1.88-3.77-3.12-.89-1.23-1.17-2.79-1.37-4.3-.53-3.99-.67-8.04-.41-12.05l-.09-1.56z" fill="#0ABBEF"/><path d="M46.975 37.16s-.06.03-.09.05h.03l.06-.05z" fill="#000"/><path d="M153.045 44.72a8.29 8.29 0 0 0-1.13-4.67c-.41-.7-.94-1.33-1.53-1.88-.3-.27-.61-.52-.94-.74l-.51-.32-.45-.25-14.36-8.1c-9.57-5.4-19.17-10.75-28.66-16.27-1.2-.69-2.34-1.38-3.59-2.07a8.731 8.731 0 0 0-4.19-.95c-1.45.02-2.89.4-4.15 1.12l-3.57 2.07c-4.76 2.74-9.49 5.53-14.27 8.24l-28.68 16.24-.03.02c.14-.08.31-.12.45-.1l-.5.14-.13.1.1-.1h-.04c-1.31.77-2.44 1.91-3.16 3.29-.73 1.38-1.01 2.98-.87 4.5.12 1.53.65 3.03 1.53 4.31a8.5 8.5 0 0 0 2.78 2.55l-.28 41.21c-.06 7-.03 13.99-.04 20.99v5.25l.03 2.64c.03.98.14 1.96.35 2.92.86 3.85 3.4 7.24 6.79 9.2 1.69.98 3.59 1.62 5.53 1.82.48.06.97.05 1.46.08.47.01.88 0 1.33 0l2.62-.03 10.49-.11c7-.09 13.99-.12 20.99-.25l13.1-.23c.28.59.59 1.15.94 1.67.52.75 1.1 1.45 1.72 2.1.63.65 1.3 1.25 2.03 1.8.4.29.81.56 1.25.82l-15.94-.18c-8.23-.12-16.45-.09-24.68-.14l-12.34-.05c-1.03 0-2.03-.04-3.19.06-1.12.12-2.21.42-3.25.85-2.07.9-3.87 2.4-5.08 4.3-.63.94-1.05 2-1.37 3.08l-.2.82-.13.83c-.05.28-.05.56-.07.84l-.02.42v.16c1.95 1.97.57.55 1.02.99h.19l6.17-.02 12.34-.05c8.23-.04 16.45-.02 24.68-.14l24.68-.28c8.23-.16 16.45-.26 24.68-.49-8.23-.23-16.45-.32-24.68-.49l-24.68-.28c-8.23-.12-16.45-.1-24.68-.14l-12.34-.05-5.36-.02c0-.07.01-.14.03-.21l.11-.69.17-.68c.27-.89.62-1.76 1.15-2.53 1-1.57 2.47-2.83 4.18-3.58.86-.36 1.76-.61 2.69-.72.89-.09 1.95-.07 2.98-.07l12.34-.05c8.23-.05 16.45-.02 24.68-.14l24.68-.28 6.17-.11c1.02 0 2.07-.07 3.06-.01.99.09 1.98.28 2.92.64 3.78 1.4 6.54 5.25 6.6 9.4 0-1.03-.11-2.06-.38-3.06-.29-.99-.72-1.95-1.27-2.84-.58-.87-1.28-1.66-2.07-2.34-.8-.68-1.71-1.22-2.68-1.65-.97-.42-2.01-.66-3.06-.79-1.07-.1-2.08-.07-3.11-.1l-3.59-.07c.24-.43.38-.86.5-1.29.15-.58.21-1.16.22-1.73 0-.58-.07-1.16-.21-1.73-.16-.58-.37-1.16-.79-1.73-.42.58-.63 1.16-.79 1.73a6.88 6.88 0 0 0-.21 1.73c0 .58.07 1.16.22 1.73.12.43.26.85.5 1.28l-2.02-.04-2.16-.02c.23-.48.38-.96.5-1.44.15-.65.21-1.3.22-1.95 0-.65-.07-1.3-.21-1.95a6.82 6.82 0 0 0-.47-1.38l5.83-.14 5.25-.13c.87-.04 1.75-.02 2.64-.13.88-.11 1.75-.3 2.59-.59 1.76-.49 3.44-1.36 4.87-2.55 1.42-1.2 2.59-2.7 3.4-4.4.81-1.69 1.25-3.58 1.29-5.46l.13-5.43.35-21.72.2-21.72c.02-6.97.08-13.94.05-20.91 2.58-1.47 4.27-4.27 4.39-7.19l-.05.01zM49.865 76.56c.45.57.91 1.12 1.48 1.55.68.51 1.5.88 2.13 1.44.47.42.86.9 1.21 1.42l-.05 8.16c-.08-.11-.16-.24-.24-.35-.53-.73-1.06-1.47-1.67-2.13-.86-.91-1.79-1.77-2.82-2.52l-.05-7.57h.01zm5.99 14.13-.05-7.86c.19.3.38.59.59.87.49.68.97 1.37 1.54 1.99 1.02 1.06 2.13 2.04 3.46 2.86-.07.86-.15 1.72-.19 2.58-.11 2.22-.06 4.44.04 6.66-.08-.14-.16-.29-.24-.43-.47-.77-.96-1.53-1.62-2.17-.66-.63-1.46-1.14-2.06-1.82-.59-.66-1.06-1.42-1.46-2.24v-.45l-.01.01zm5.85-6.71c-.03 1.12-.12 2.24-.21 3.36-.54-1.09-1.21-2.09-1.93-3.04-.53-.66-1.14-1.26-1.75-1.85-.59-.61-1.25-1.15-1.95-1.66a.303.303 0 0 0-.07-.05l-.04-5.79c.2.28.4.56.62.82.5.63.99 1.26 1.56 1.81 1.1 1.02 2.29 1.95 3.74 2.66.05 1.25.07 2.49.03 3.74zm-7.01-4.12c-.27-.23-.53-.47-.75-.75-.55-.64-.9-1.47-1.4-2.17-.5-.69-1.15-1.24-1.82-1.78-.28-.21-.58-.42-.88-.61l-.04-5.37c.46.55.93 1.07 1.52 1.48.67.45 1.47.77 2.09 1.28.51.41.93.91 1.31 1.45l-.04 6.46.01.01zm66.27 60.5c.12.48.26.95.49 1.43l-5.07-.06c-.3-.69-.65-1.32-1.05-1.92-.52-.75-1.1-1.45-1.72-2.1-.62-.65-1.3-1.25-2.03-1.8-.29-.21-.58-.41-.89-.6l6.69-.12 4.03-.1c-.21.45-.35.91-.46 1.36-.15.65-.22 1.3-.21 1.95 0 .65.07 1.3.22 1.95v.01zm14.77-6.13c-.85.06-1.72 0-2.6-.03l-5.25-.13-10.49-.25-20.99-.37c-7-.13-13.99-.17-20.99-.25l-10.49-.11-2.62-.03c-.43 0-.89 0-1.29-.02-.39-.03-.77-.03-1.16-.09-1.53-.2-3.02-.71-4.34-1.49-2.66-1.57-4.62-4.26-5.26-7.26-.16-.75-.24-1.51-.25-2.28v-2.6l.02-5.25c-.02-7 .02-13.99-.04-20.99l-.05-6.71c.37.57.77 1.13 1.18 1.67.56.7 1.2 1.32 1.84 1.96.51.53 1.09 1.02 1.68 1.49l-.12 19.1-.03 4.98v2.5c.02.89.1 1.78.34 2.64.83 3.51 3.61 6.41 6.96 7.62 1.65.63 3.51.83 5.18.8h4.98l9.95.03 19.9.04 19.9.04h4.98l2.49.02c.84.02 1.79-.04 2.66-.21.89-.16 1.76-.44 2.58-.81.29.32.55.65.73 1.03.28.57.33 1.28.55 1.88.22.6.61 1.1 1.03 1.59.38.42.8.81 1.33 1.14-.75.19-1.51.31-2.28.36l-.03-.01zm-1.54-8.88c-.28-.58-.57-1.16-.95-1.67-.57-.72-1.21-1.39-2-1.94.78-.21 1.55-.53 2.27-1.05.78-.55 1.45-1.39 1.82-2.3.37.6.76 1.19 1.16 1.76.52.74 1.07 1.46 1.62 2.17a10.16 10.16 0 0 1-3.65 3.63c-.08-.2-.16-.41-.26-.6h-.01zm1.72-9.79c.05-1.42.05-2.82.03-4.22 1.09 1.43 2.3 2.69 3.57 3.88v.52c0 .73.01 1.53-.03 2.17a9.87 9.87 0 0 1-.53 2.58c-.46-.45-.93-.89-1.42-1.31-.62-.52-1.29-.99-1.98-1.43.23-.75.31-1.5.36-2.2v.01zm3.37 7.68h-.07s-.05 0-.12-.02c-.01 0-.08-.02-.17-.05l-.11-.05-.24-.19-.03-.03.73.34h.01zm-.75-.35c-.12-.13-.24-.41-.23-.63 0-.12.04-.3.08-.37.01-.03.02-.04.03-.07l.15.25-.03.81v.01zm0-1.26-.09.12s.04-.06.04-.07c.03-.03.03-.04.04-.06l.01.01zm0 1.26c-.03-.03-.05-.07-.08-.11.03.03.05.07.08.11zm-.13 10.87c-.02-.68-.19-1.26-.38-1.83-.24-.59-.49-1.18-.93-1.65-.44-.47-1.05-.85-1.43-1.36-.24-.32-.42-.68-.56-1.06a12 12 0 0 0 4.32-3.87c.65.79 1.32 1.56 1.99 2.33.93 1 1.87 2.01 2.95 2.95a12.765 12.765 0 0 1-5.97 4.5l.01-.01zm7.38-6.99c-.34.81-.76 1.58-1.26 2.3-.43-1.34-1.06-2.57-1.75-3.76-.7-1.12-1.48-2.19-2.34-3.19.58-1.29.93-2.68 1.01-4.08.02-.37.02-.71.02-1.04.81.7 1.64 1.38 2.48 2.05.89.7 1.8 1.38 2.76 2.04v.61c.07 1.73-.24 3.47-.92 5.08v-.01zm4.67-82.2c-.15 2.28-1.6 4.43-3.66 5.3-.47.2-.81.67-.81 1.21v.02c-.03 7.24.03 14.48.05 21.72l.2 21.72.35 21.72.09 4.01a17.58 17.58 0 0 0-1.65-2.34c-.9-1.09-1.88-2.07-2.91-3.01-.21-.2-.44-.37-.66-.56v-.86l-.02-8.95-.04-17.89-.07-35.27c1.98-1.06 3.36-3.08 3.7-5.26.2-1.18.09-2.42-.33-3.56a6.779 6.779 0 0 0-2.1-2.9c-.47-.38-1-.68-1.44-.93l-1.39-.8-2.77-1.6-5.55-3.21-22.2-12.83-5.55-3.21c-.95-.52-1.79-1.09-2.86-1.57-1.05-.42-2.2-.63-3.33-.56-1.13.07-2.24.38-3.23.93l-2.76 1.65-5.5 3.3-21.97 13.23 4.04-2.31c.11.82.4 1.54.74 2.21.36.68.79 1.31 1.29 1.89.5.57 1.06 1.09 1.68 1.55.32.22.64.43.99.61-1.27.75-2.52 1.51-3.76 2.3-.09-.52-.25-1.01-.43-1.48a9.585 9.585 0 0 0-2.57-3.56c-.57-.48-1.2-.92-1.98-1.2.14.82.43 1.51.74 2.17.32.65.69 1.26 1.11 1.84.42.57.88 1.12 1.4 1.63.36.34.74.67 1.17.97-1.8 1.15-3.59 2.33-5.34 3.57-.04.03-.05.08-.04.12.02.05.08.08.13.06 5.52-2.23 10.86-4.79 16.05-7.64 2.58-1.45 5.14-2.93 7.69-4.44 2.53-1.53 5-3.22 7.55-4.67.64-.33 1.31-.6 1.99-.69.68-.08 1.38.02 2.04.28.67.24 1.28.61 1.93.98.66.36 1.32.71 1.98 1.04 2.65 1.35 5.32 2.63 8.05 3.77l8.14 3.44c2.69 1.18 5.38 2.37 7.89 3.92 0 0 .09.02.13-.01.04-.04.04-.1 0-.14-2.18-2.07-4.79-3.61-7.41-5.02-2.63-1.41-5.33-2.65-8.04-3.84-2.71-1.2-5.51-2.17-8.26-3.23-1.39-.51-2.69-1.14-4.19-1.59-.74-.2-1.55-.33-2.34-.2-.78.11-1.51.39-2.2.7-2.68 1.32-5.39 2.5-8.06 3.78-2.65 1.32-5.29 2.66-7.9 4.04-.17.09-.34.19-.51.28-.12-.42-.27-.82-.44-1.21-.32-.7-.72-1.36-1.18-1.96-.46-.61-.98-1.17-1.57-1.67-.56-.46-1.17-.89-1.91-1.19l13.67-7.8 5.56-3.19 2.77-1.58c.89-.48 1.89-.74 2.89-.77 1.01-.05 2.01.16 2.93.55.88.4 1.81 1.04 2.72 1.57l5.51 3.28 22.03 13.1 5.51 3.28 2.75 1.64 1.38.82c.48.29.88.52 1.24.82 1.47 1.18 2.16 3.14 1.81 5-.31 1.85-1.58 3.52-3.28 4.23-.3.13-.51.42-.51.77l-.07 35.79-.04 17.89-.02 8.29c-.23-.16-.46-.34-.69-.5-.92-.63-1.87-1.21-2.89-1.72a51.18 51.18 0 0 0-.4-5.21c0-.04-.03-.08-.08-.09-.05-.01-.11.02-.12.07-.84 3.31-1.26 6.68-1.55 9.98-.13 1.63-.4 2.9-1.46 3.81-1.05.89-2.59 1.43-4.17 1.72-1.62.23-3.34.3-5.01.24-1.68-.06-3.36-.38-5.04-.51-1.68-.12-3.36-.05-5.04.06-1.68.12-3.36.29-5.04.67-.04 0-.07.04-.08.08-.01.06.02.11.08.12 1.68.38 3.36.55 5.04.68 1.68.11 3.36.17 5.04.06 1.68-.13 3.36-.45 5.04-.51 1.69-.08 3.33.06 5.07.2.65.03 1.32.02 2-.07.29 1.08.73 2.03 1.24 2.93.32.53.73 1.01 1.13 1.5.08.11.18.21.27.31-.47.17-.95.32-1.44.41-.75.15-1.47.2-2.29.19h-2.49l-4.98.02-19.9.04-19.9.04-9.95.02h-4.98c-1.64.04-3.13-.13-4.6-.66-2.88-1.04-5.26-3.44-6-6.43-.21-.73-.29-1.5-.32-2.27l-.02-2.48-.03-4.98-.11-17.97c.35.36.67.74.95 1.15.5.75.8 1.65 1.25 2.44.45.78 1.06 1.44 1.69 2.09.49.47 1 .93 1.58 1.33.12 1.93.29 3.86.6 5.8 0 .04.04.08.08.08.06 0 .11-.03.12-.08.38-2.38.55-4.77.68-7.15.11-2.38.17-4.77.06-7.15-.12-2.38-.45-4.77-.51-7.15-.08-2.38.05-4.77.22-7.15.19-2.38.35-4.77.39-7.15.07-2.38.15-4.76.13-7.15-.05-2.38-.11-4.77-.27-7.15l-.06-.89c-.03-.28-.02-.63-.15-1.06-.14-.44-.43-.76-.6-.95-.19-.2-.28-.34-.37-.57-.33-.94-.21-2.18.27-3.24.02-.04 0-.09-.03-.12-.04-.04-.11-.03-.14 0-.4.46-.71 1.03-.9 1.63-.19.61-.32 1.25-.19 1.97.05.35.23.75.41 1.02.18.28.27.44.28.59.02.16 0 .41-.03.72l-.06.89c-.16 2.38-.23 4.76-.29 7.15-.03 2.38.06 4.77.13 7.15.05 2.38.2 4.77.39 7.15.06.8.11 1.6.15 2.39-.59-1.15-1.34-2.16-2.15-3.12-.53-.6-1.15-1.13-1.76-1.66-.59-.54-1.26-1.02-1.95-1.46-.01 0-.02-.01-.03-.02v-2.17l-.21-19.9c0-.12-.07-.22-.17-.27-2.05-.85-3.52-2.93-3.7-5.17-.11-1.11.1-2.26.62-3.25.53-1.01 1.31-1.8 2.35-2.43l-.03.02 9.47-5.72-9.62 5.46-.03.02c-.97.54-1.91 1.42-2.46 2.46-.58 1.05-.82 2.27-.73 3.46.15 2.33 1.59 4.55 3.74 5.57l-.2 19.73v1.49c-.32-.24-.62-.5-.88-.8-.54-.59-.9-1.38-1.4-2.02-.5-.65-1.14-1.14-1.79-1.62-.29-.19-.58-.38-.89-.56l-.11-16.18v-.04c0-.49-.29-.94-.77-1.14-2.03-.83-3.51-2.89-3.72-5.14-.12-1.12.06-2.25.55-3.24.49-.99 1.28-1.83 2.25-2.44h-.04c.06-.02.12-.05.18-.08h-.01l28.18-17.09c4.7-2.85 9.44-5.62 14.16-8.43l3.54-2.1a7.786 7.786 0 0 1 3.71-1.04c1.3-.02 2.6.28 3.75.88 1.15.65 2.36 1.38 3.53 2.07 9.45 5.59 18.81 11.35 28.19 17.06l14.07 8.57.44.27.35.24c.23.17.45.35.66.55.41.39.77.84 1.04 1.32.55.97.79 2.11.71 3.24l.01.05zm-76.86-7.01c-.19-.43-.4-.83-.63-1.22-.4-.64-.84-1.23-1.32-1.78-.48-.56-1-1.08-1.58-1.56-.57-.46-1.17-.91-1.92-1.25l4.41-2.52c.17.79.46 1.47.78 2.12.35.67.75 1.3 1.2 1.89.45.59.94 1.15 1.5 1.67.29.26.58.52.9.76-1.12.62-2.24 1.25-3.34 1.9v-.01z" fill="#000"/><path d="M62.425 110.76s-.02-.07-.06-.09c-.05-.02-.11 0-.14.05-.64 1.38-.9 2.95-.75 4.52.15 1.57.76 3.19 1.9 4.37.57.59 1.26 1.05 2 1.38.74.33 1.48.53 2.23.69.74.17 1.47.29 2.21.41l1.11.18 1.1.13c1.46.2 2.93.34 4.39.4 1.47.08 2.93.14 4.4.12 2.94-.09 5.88-.32 8.81-.97.04 0 .07-.04.08-.08.01-.06-.02-.11-.08-.12-2.93-.64-5.85-.87-8.78-.97-1.46-.02-2.93.04-4.39.12-1.46.05-2.93.2-4.4.4-.37.04-.74.1-1.1.12-.34.02-.72.01-1.08-.01-.72-.03-1.44-.15-2.11-.36-1.39-.42-2.41-1.42-3.11-2.51-.74-1.08-1.31-2.25-1.65-3.57-.35-1.32-.47-2.73-.58-4.22v.01zM135.074 97.03c.42-2.68.63-5.36.78-8.04.16-2.68.2-5.36.22-8.04-.02-2.68-.06-5.36-.22-8.04-.15-2.68-.36-5.36-.78-8.04-.41 2.68-.63 5.36-.78 8.04-.16 2.68-.2 5.36-.22 8.04.02 2.68.06 5.36.22 8.04.15 2.68.36 5.36.78 8.04zM68.515 74.63c.05.4.27.82.45.98l.53.48c.29.27.42.37.69.5.53.24.61.27 1.04.21.32-.03.37-.03.72-.21.27-.13.4-.24.61-.45.27-.27.37-.43.59-.98l.16-.29c.03-.05.05-.19.08-.32 0-.13.08-.43.16-.64l.16-.61c0-.13.05-.29.08-.37.03-.08.05-.24.05-.35 0-.13.03-.29.05-.37.03-.08.05-.27.05-.4s.03-.29.05-.35c.03-.13.08-.48.13-1.01.03-.13.05-.37.11-.53.03-.13.08-.4.08-.59l.11-.59c.03-.13.05-.35.05-.43 0-.11.03-.37.05-.59l.11-.75c.05-.43.16-1.17.27-1.68l.05-.48c0-.08.05-.21.11-.35l.08-.24-.03.43c-.05.67-.03.83.08 1.14.05.16.08.35.08.48 0 .11.03.29.08.45.11.43.13.69.03 1.07-.08.35-.11 1.01-.03 1.28.05.27.11.93.08 1.2-.03.13-.03.29 0 .43.05.4.11 1.06.11 1.65v.64l.13.27c.11.21.13.32.16.61.05.43.11.61.32.93l.29.45c.05.11.19.29.32.45.19.21.24.27.59.43.67.35 1.22.37 1.78.08.32-.13.56-.35.82-.72.21-.29.29-.48.37-.85l.11-.48c.11-.43.16-.82.19-1.01 0-.11.03-.32.05-.45 0-.13.03-.27 0-.29-.03-.08-.08-.11-.16-.08-.11.03-.34.53-.34.75 0 .05-.03.19-.08.35l-.19.51c-.05.16-.19.43-.27.56-.08.19-.13.32-.13.4 0 .11-.03.16-.24.37l-.24.24-.27.03c-.24.03-.27.03-.4-.08-.21-.16-.27-.29-.27-.77 0-.21.03-.51.03-.64.05-.27.03-.67-.11-.98-.05-.21-.05-.27-.03-.56l.08-.75c.05-.43.05-.37.03-1.68 0-.53 0-1.01.03-1.14.03-.24.03-.4-.08-.9-.05-.27-.05-.32 0-.59.08-.4.08-.64-.03-.93-.21-.53-.21-.59-.21-1.12 0-.4-.03-.53-.08-.69-.05-.11-.11-.32-.11-.45a4.5 4.5 0 0 0-.16-.48c-.05-.16-.11-.35-.13-.56-.05-.45-.16-.67-.59-1.06-.42-.43-.67-.53-1.01-.53-.13 0-.27 0-.32.05-.29.16-.48.43-.53.88-.05.53-.08.75-.19.93-.05.08-.08.21-.08.27 0 .06-.05.24-.08.43-.11.35-.19.72-.24 1.09 0 .13-.03.27-.05.32-.03.03-.05.13-.05.21 0 .08-.03.21-.05.29l-.08.45-.11.59-.11.67c-.08.61-.13 1.01-.19 1.17-.03.08-.05.24-.08.37 0 .13-.05.35-.08.45-.03.11-.05.37-.11.61l-.08.67c-.03.21-.11.56-.19.9l-.11.43c0 .11-.05.29-.08.37l-.11.4c-.13.53-.42 1.12-.83 1.81-.16.27-.19.29-.4.45-.29.21-.5.24-.67.05-.27-.29-.29-.32-.29-.85-.02-.553.017-.937.11-1.15.24-.5.19-.88-.21-1.41-.29-.4-.61-.61-.96-.61-.27 0-.45.11-.69.37-.24.24-.5.72-.67 1.14-.11.32-.08.67.11 1.06l.19.59h.04zM81.615 74.71c.05.11.16.29.19.43.11.24.51.83.69 1.01.05.05.19.11.29.13.19.05.24.05.61 0 .27-.03.45-.08.59-.16.19-.08.51-.43.61-.64l.16-.27c.05-.05.16-.24.24-.4.24-.56.21-.32.8-1.6l.26-.61c.13-.24.16-.27.16-.19 0 .19.08.45.21.61.08.11.13.27.16.43.05.13.11.32.13.43l.16.43c.13.4.72.98 1.09 1.06.21.05.4 0 .82-.27.53-.35 1.01-.77 1.22-1.09l.35-.53.19-.35c.03-.08.11-.21.16-.32.08-.08.13-.19.13-.24 0-.03.05-.19.16-.35.01-.02.02-.04.03-.05.02.46.06.8.11.99l.13.4c.05.11.13.29.21.37l.24.32c.16.19.56.53.77.61.08.03.27.05.4.08.21.03.29 0 .48-.05.37-.16.51-.24.8-.5.56-.51.48-.56.85-1.38.05-.11.13-.32.13-.43.03-.11.08-.24.11-.27.05-.05.05-.03.08.05.03.13-.03 3.03-.03 3.01-.11.11-.29.32-.43.48-.05.08-.29.35-.53.61-.24.24-.48.53-.53.61-.03.08-.13.21-.19.29-.08.08-.13.16-.13.19s-.08.13-.19.27l-.29.37-.32.61c-.37.75-.42.67-.59 1.49-.05.4-.03.69.13 1.07.11.27.43.61.8.82l.29.19c.83.03 1.12.08 1.38-.08.05-.05.19-.11.29-.13.26-.08.48-.21.56-.35.11-.16.48-.56.64-.8l.29-.4c.27-.29.45-.75.53-1.25.08-.48.27-1.22.43-1.62.08-.24.08-.29.05-.5-.03-.48-.03-.75.08-1.04.08-.32.11-.67 0-.9-.05-.16-.05-.21 0-.51l.05-.4s.24-.24.53-.45c.34-.28 1.54-1.43 2.23-2.13.09.4.24.84.35 1.09.19.32.48.8.59.88.11.13.59.43.85.56.11.05.34.13.53.19.32.11.35.11.69.05.74-.08 1.25-.24 1.84-.59l.64-.43c.16-.08.4-.29.56-.43.26-.27.29-.29.67-.77.13-.16.29-.37.4-.45.1-.11.26-.3.41-.48.02.23-.06.37-.12 1.27-.03.45-.03.53.03.77.03.21.05.29 0 .53-.03.24-.03.32.05.64l.05.53c0 .11.05.29.11.45.05.21.11.43.13.75.03.37.03.48.13.69.08.16.13.32.16.53.03.27.05.35.21.67.11.24.21.37.32.45.13.11.16.11.43.11.24 0 .29 0 .42-.11.08-.05.24-.21.32-.35.16-.24.19-.27.21-.59.05-.67.13-1.28.19-1.49.08-.35.11-1.28.05-1.54-.03-.21-.03-.27.03-.45.05-.21.08-.83.05-2.29 0-.64 0-.69.11-1.01.13-.45.37-.96.53-1.17.08-.08.19-.24.24-.32.05-.11.21-.35.4-.53.26-.29.34-.37.56-.45.29-.13.42-.16.67-.05.21.08.4.37.5.77l.19.59c.16.45.16.91.03 1.22-.05.13-.13.45-.19.75-.05.27-.13.53-.16.59-.03.05-.13.21-.26.35l-.24.27c-.48 0-.56 0-.8-.11-.21-.11-.4-.29-.4-.45 0-.16-.08-.35-.18-.4-.19-.05-.4.08-.53.35-.11.24-.11.35 0 .64.21.51.8 1.04 1.38 1.22l.37.16c.11.08.19.08.61.11.59 0 .8-.03 1.2-.27.4-.21.67-.51.96-1.01.32-.5.45-.82.5-1.14.05-.35.16-.69.21-1.49 0-.24 0-.29-.08-.48-.05-.11-.11-.29-.11-.4-.05-.35-.13-.56-.29-.77-.08-.11-.21-.32-.29-.48-.13-.24-.21-.35-.56-.67-.75-.69-.8-.51-1.41-.69-.37-.11-.53-.08-.88.08-.16.08-.29.13-.32.13-.05 0-.16.11-.29.21l-.35.35c-.11.08-.21.21-.27.29-.16.27-.35.48-.5.8l-.16.27c-.13.16-.13-.11-.03-.72.11-.45.11-.48.08-1.01-.05-.61-.11-.85-.37-1.28-.27-.5-.67-.69-1.09-.53-.27.08-.4.24-.59.61l-.21.4c-.13.13-.24.43-.24.74 0 .19-.03.43-.05.53l-.05.35c0 .11-.08.35-.13.53-.16.59-.37 1.54-.37 1.84v.1c-.18.13-.45.38-.89.81-.13.11-.24.21-.27.21-.03 0-.16.11-.29.24-.48.45-.85.8-1.01.9l-.29.21c-.21.19-.85.4-1.2.4-.11 0-.24-.03-.45-.13-.35-.19-.59-.45-.64-.72l-.11-.35c-.08-.16-.08-.27-.11-.67v-.56c-.03-.19.19-.42.61-.69.56-.37.56-.43.96-.72.13-.08.27-.21.29-.27.05-.08.13-.16.21-.24.19-.13.24-.19.4-.45.32-.48.16.05.83-1.38.03-.08.11-.27.13-.4l.11-.48c.05-.16.08-.43.08-.67 0-.37 0-.4-.11-.56-.13-.19-.59-.56-.83-.69-.16-.08-.32-.08-.61-.05-.19.03-.69.19-.99.35-.13.08-.37.16-.5.21-.29.08-.8.4-.98.59-.08.08-.19.21-.24.35-.27.48-.67.8-.75 1.25-.03.08-.11.24-.19.37s-.19.37-.24.51c-.03.13-.13.32-.19.42-.13.21-.4 1.2-.43 1.6-.02.25.02.38.08.72-.09.07-.19.16-.35.29l-.42.35c-.24.19-.48.35-.61.48-.08.08-.19.16-.26.19-.21.11-.32.21-.4.37-.05.08-.08.13-.11.13l-.19.13c-.11.11-.16.13-.19.11-.03-.03-.05-.29-.05-.72 0-.51-.03-.72-.08-.85-.03-.11-.05-.29-.05-.48s0-.37-.03-.48c-.03-.08-.05-.37-.08-.64-.03-.45-.03-.51-.19-.8-.08-.19-.16-.37-.16-.45-.05-.24-.19-.43-.48-.53-.21-.08-.29-.08-.45-.08-.14.02-.23-.006-.27-.08-.08-.16-.72-.69-.91-.77-.21-.05-.48-.05-.69 0-.08.03-.29.05-.45.08-.29.03-.42.08-1.04.43-.56.32-.59.32-1.01 1.07-.13.24-.29.53-.37.64-.16.21-.19.27-.35.85-.07.23-.08.32-.08.81-.1.12-.21.28-.38.52-.32.53-.45.72-.69.98-.08.08-.19.24-.21.32-.03.08-.11.21-.19.27-.08.08-.19.24-.27.37-.11.13-.24.27-.34.32l-.29.21c-.16.13-.27.11-.37 0-.08-.11-.08-.13-.05-.48l.05-.69c0-.19.03-.37.03-.43.03-.08.05-.24.08-.37 0-.16.05-.4.11-.56.05-.19.08-.43.11-.59.05-.69.13-.56.11-1.41-.05-.51-.05-.56-.19-.8-.27-.59-.48-.8-.77-.88-.27-.05-.53.05-.88.43-.37.35-.45.56-.48 1.28-.03.35-.05.51-.11.67-.05.11-.11.32-.16.45-.11.45-.13.53-.24.75-.05.11-.11.24-.11.27 0 .03-.05.16-.13.29-.08.13-.16.29-.16.32 0 .05-.05.19-.13.32-.29.43-.4.64-.56.9-.19.35-.64.83-.69.75-.08-.11-.08-.45 0-.67.03-.08.13-.82.19-1.33.03-.11.08-.35.11-.53.05-.19.11-.56.13-.8.03-.35.05-.51.13-.72.21-.56.27-.93.13-1.41a1.72 1.72 0 0 1-.08-.48c0-.29-.11-.56-.29-.72-.24-.21-.35-.24-.72-.27-.29 0-.34 0-.53.08-.37.19-.8.64-1.07 1.14-.13.21-.16.32-.37 1.33-.05.21-.13.45-.19.56-.19.35-.21.48-.24.96l-.08.75c0 .24 0 .48.05.8.13 1.22.08 1.41.34 1.84l.08-.01zm13.61 2.16c-.03.11-.05.32-.05.48 0 .16-.05.37-.11.51-.03.13-.08.27-.08.32 0 .11-.11.53-.27 1.07-.11.35-.16.43-.27.56-.08.08-.21.24-.29.35-.21.35-.53.67-.64.67-.13 0-.29-.13-.37-.35-.13-.37-.08-.61.29-1.36.27-.53.42-.82.67-1.09l.34-.43c.19-.27.8-.93.83-.93.03.03 0 .11-.05.21v-.01zm8.12-7.88c.08-.43.27-.82.43-1.06.16-.21.29-.51.29-.64s.16-.32.35-.43c.24-.16.4-.32.61-.61.16-.21.27-.24.32-.11.03.03.03.16.03.32 0 .21-.05.29-.27.75-.24.5-.5.88-.88 1.25-.72.69-.85.83-.91.83-.06 0-.05 0 .03-.29v-.01zm-10.17 3.14c-.05-.21-.05-.24.03-.37.11-.16.24-.64.43-1.38.08-.32.11-.43.24-.61.4-.56.56-.64.75-.43.21.27.51.5.64.59.35.19.35.37 0 .98l-.11.21c-.16.35-.4.75-.51.88-.05.08-.11.16-.11.19s-.13.16-.27.29c-.13.13-.34.37-.48.53-.19.29-.26.35-.45.45-.16.08-.19.05-.24-.27-.03-.24-.03-.32.05-.56.05-.24.05-.29.03-.5zM117.485 73.33l.13.43c.03.08.05.24.08.37.05.4.56 1.06.98 1.3.08.03.21.13.32.21.126.086.33.13.61.13.53 0 .56-.03 1.04-.45.45-.43.48-.45.64-.82.13-.32.13-.35.13-.96 0-.56-.03-.83-.08-1.15-.05-.19-.37-.9-.48-1.04a.506.506 0 0 1-.08-.19c.03-.05.13-.11.24-.13.11-.03.21-.11.24-.13.03-.03.13-.08.24-.13.08-.05.24-.16.35-.27.08-.08.19-.16.19-.16.03 0 .19-.13.37-.29.19-.19.32-.29.34-.29l-.05.29c-.05.21-.05.45-.05.9 0 .56 0 .64-.11.88-.08.24-.08.35-.05.53 0 .16 0 .35-.05.56-.05.24-.05.32.03.53.03.13.05.4.05.59-.03.64.05 1.7.11 1.89.03.16.11.29.29.48.11.13.27.35.32.48.08.19.11.21.48.4.45.21.96.32 1.28.24.21-.05.69-.21.77-.27.16-.11 1.04-.98 1.28-1.3.37-.51.85-1.36.96-1.73.03-.08.05-.19.08-.19.05-.05.32-.61.37-.82.03-.11.05-.24.11-.32.11-.21.24-.88.27-1.3.05-.45-.03-.64-.21-.69-.16-.05-.27.03-.37.29l-.29.8c-.11.32-.21.69-.24.82-.03.19-.11.43-.21.67-.11.21-.21.45-.24.56-.03.08-.11.24-.19.35-.05.11-.11.21-.11.24 0 .13-.72 1.01-1.2 1.49-.19.16-.53.32-.8.35a.39.39 0 0 1-.35-.11c-.08-.13-.11-.21-.13-.53-.03-.21-.05-.51-.11-.64-.03-.16-.05-.4-.05-.61 0-1.44 0-1.62.05-1.86.03-.16.08-.51.08-.8.03-.4.05-.59.16-.93.13-.45.19-.93.19-1.33 0-.13.05-.35.11-.5.11-.37.13-.83.05-1.25-.13-.69-.35-.93-.85-.93-.21 0-.29 0-.43.11-.21.13-.42.51-.5.8-.05.19-.21.59-.32.9-.08.13-.51.53-1.04.9-.21.19-.93.51-1.36.64-.48.16-.5.16-.59.29-.13.21-.11.45.05.67.37.5.48.74.59 1.3.05.4.03 1.12-.05 1.28-.08.13-.32.45-.42.53-.08.11-.35.11-.48 0-.13-.13-.32-.75-.32-1.07v-.56c0-.69.03-.82.08-1.06l.11-.53c0-.19.05-.5.11-.69.16-.67.27-1.25.29-1.68 0-.37.03-.48.13-.64.21-.37.19-.67-.05-1.2-.21-.51-.53-.72-.88-.64-.35.08-.64.43-1.04 1.25-.05.13-.11.32-.11.48-.03.19-.08.35-.21.61a1.9 1.9 0 0 0-.16.8c0 .29 0 .51-.05.61-.03.08-.05.27-.05.37 0 .13-.03.29-.05.4-.05.11-.08.4-.08.93-.03.72-.03.8.05 1.01.05.11.11.35.16.53h-.02zM93.754 86.85c-.05-.13-.11-.24-.11-.27 0-.03-.05-.16-.13-.32-.19-.4-.67-.75-1.09-.88-.05 0-.11-.05-.13-.11-.13-.35-.19-.43-.43-.61l-.4-.29c-.21-.08-.53-.08-.88.03l-.5.13c-.21.05-.29.11-.45.27-.4.4-.69.77-.83 1.06-.08.16-.24.4-.32.53-.29.37-.48.72-.59 1.06-.11.27-.11.35-.13 1.01-.02.66 0 .82.06 1.22l-.2.45c-.08.16-.13.32-.13.35 0 .03-.08.19-.16.35l-.72 1.52c-.21.45-.43.85-.56 1.04-.08.13-.16.24-.16.27 0 .08-.19.27-.37.37-.18.107-.346.123-.5.05-.16-.08-.37-.32-.43-.51-.03-.05 0-.35.05-.64.08-.72.11-.83.21-1.09.05-.13.08-.32.11-.43 0-.16.05-.24.16-.37.13-.16.27-.45.27-.61 0-.08.19-.75.29-.96.03-.11.11-.27.13-.4l.16-.61c.05-.19.13-.53.16-.74.03-.35.03-.37-.08-.85-.13-.53-.24-.77-.5-1.04-.29-.29-.67-.43-1.15-.43-.32 0-.37.03-.56.11-.13.08-.29.21-.43.37l-.5.51c-.24.24-.29.32-.51.8-.21.45-.24.56-.24.77 0 .13-.03.35-.05.48-.05.21-.05.24.03.37.16.32.56.35.74.03l.29-.43c.08-.16.19-.29.19-.32 0-.13.67-.8.77-.8.03 0 .08.08.13.16.13.32.05.61-.53 1.78-.21.45-.42.96-.45 1.12l-.16.51c-.27.85-.29.96-.32 1.65l-.03.67.13.45c.08.27.19.56.24.67.11.24.37.48.69.61l.34.16c.13.08.88.16 1.17.13.24-.03.9-.35.98-.48.03-.05.16-.16.27-.24.11-.08.24-.21.29-.29.05-.11.16-.24.21-.29.13-.16.43-.69.45-.88.03-.13.19-.51.35-.91.08-.16.08-.27.08-.53 0-.11.01-.28.04-.41.08.26.35.57.76 1.28.51.8.67.96 1.25 1.14.32.11.43.13.72.13.19 0 .45-.03.56-.05l.32-.05c.16-.03.53-.24.75-.43.24-.19.59-.67.8-1.01.42-.8.37-1.01.64-1.68.05-.16.11-.37.13-.51l.08-.45c.05-.24.08-.74.05-1.38 0-.32-.19-1.06-.35-1.33l.03.02zm-1.17 3.17-.11.48c0 .08-.03.21-.08.27l-.11.35c-.05.19-.13.29-.27.43-.08.11-.19.21-.21.27-.05.11-.35.24-.45.21-.05 0-.16-.08-.24-.19l-.16-.16-.08-.53c-.03-.35-.05-.69-.05-1.01 0-.29 0-.61-.03-.77-.03-.24-.03-.32.08-.56.05-.13.11-.43.13-.59.08-.4.13-.53.32-.83.16-.27.27-.53.32-.82.03-.35.08-.35.21-.05l.16.35c.19.29.37.72.37.77l.11.48c.11.37.11.48.11.88-.03.27 0 .53 0 .61.03.05 0 .24-.03.43l.01-.02zM113.505 89.14c-.11 0-.16.03-.37.27-.19.19-.29.35-.48.77l-.37.75-.16.32-.24.37c-.08.13-.24.37-.35.5l-.37.51c-.21.27-.5.56-.56.56-.03 0-.05-.08-.08-.27 0-.16-.05-.35-.08-.45-.03-.11-.05-.35-.05-.51l.03-.72v-.61c0-.19-.03-.27-.11-.43-.05-.13-.11-.24-.11-.35 0-.27-.24-.67-.43-.72-.03-.03-.05-.19-.05-.43 0-.56-.05-1.25-.13-1.41l-.13-.4c-.05-.13-.16-.35-.24-.45l-.24-.37c-.13-.24-.27-.35-.67-.48-.37-.16-.59-.19-1.14-.05-.21.05-.43.13-.48.16-.59.32-1.25.98-1.44 1.38-.05.13-.16.32-.24.43-.08.11-.19.32-.24.48-.05.19-.16.43-.24.56-.08.13-.16.35-.19.45 0 .07-.02.15-.05.22-.1.06-.24.17-.49.39l-.42.35c-.24.19-.48.35-.61.48-.08.08-.19.16-.26.19-.21.11-.32.21-.4.37-.05.08-.08.13-.11.13l-.19.13c-.11.11-.16.13-.19.11-.03-.03-.05-.29-.05-.72 0-.51-.03-.72-.08-.85-.03-.11-.05-.29-.05-.48s0-.37-.03-.48c-.03-.08-.05-.37-.08-.64-.03-.45-.03-.51-.19-.8-.08-.19-.16-.37-.16-.45-.05-.24-.19-.43-.48-.53-.21-.08-.29-.08-.45-.08-.14.02-.23-.007-.27-.08-.08-.16-.72-.69-.91-.77-.21-.05-.48-.05-.69 0-.08.03-.29.05-.45.08-.29.03-.42.08-1.04.43-.56.32-.59.32-1.01 1.07-.13.24-.29.53-.37.64-.16.21-.19.27-.35.85-.08.27-.08.35-.08 1.09 0 .96.05 1.62.13 1.92l.13.4c.05.11.13.29.21.37l.24.32c.16.19.56.53.77.61.08.03.27.05.4.08.21.03.29 0 .48-.05.37-.16.51-.24.8-.5.56-.51.48-.56.85-1.38.05-.11.13-.32.13-.43.03-.11.08-.24.11-.27.05-.05.05-.03.08.05.03.13-.03 3.03-.03 3.01-.11.11-.29.32-.43.48-.05.08-.29.35-.53.61-.24.24-.48.53-.53.61-.03.08-.13.21-.19.29-.08.08-.13.16-.13.19s-.08.13-.19.27l-.29.37-.32.61c-.37.75-.42.67-.59 1.49-.05.4-.03.69.13 1.06.11.27.43.61.8.82l.29.19c.83.03 1.12.08 1.38-.08.05-.05.19-.11.29-.13.26-.08.48-.21.56-.35.11-.16.48-.56.64-.8l.29-.4c.27-.29.45-.75.53-1.25.08-.48.27-1.22.43-1.62.08-.24.08-.29.05-.5-.03-.48-.03-.75.08-1.04.08-.32.11-.67 0-.9-.05-.16-.05-.21 0-.51l.05-.4s.24-.24.53-.45c.31-.26 1.34-1.24 2.05-1.95v.03c.03.19.05.35.03.67-.03.53 0 .69.29 1.09l.32.48c.13.24.29.4.48.5l.32.19c.48.32.88.35 1.46.05.21-.11.32-.19.48-.4.21-.27.75-.82.75-.77l.05.21.08.64c.033.32.146.613.34.88.24.35.43.53.69.64.27.08.72.11.88.05.16-.08.85-.67.98-.85l.35-.43c.32-.37.53-.67.59-.82.03-.08.13-.27.24-.43.11-.16.32-.48.42-.72l.35-.61c.21-.27.27-.43.37-.85.13-.53.16-.61.08-.72-.05-.05-.08-.08-.19-.08h.06zm-14.4 6.12c-.03.11-.05.32-.05.48 0 .16-.05.37-.11.51-.03.13-.08.27-.08.32 0 .11-.11.53-.27 1.07-.11.35-.16.43-.27.56-.08.08-.21.24-.29.35-.21.35-.53.67-.64.67-.13 0-.29-.13-.37-.35-.13-.37-.08-.61.29-1.36.27-.53.42-.82.67-1.09l.34-.43c.19-.27.8-.93.83-.93.03.03 0 .11-.05.21v-.01zm.03-5.96-.11.21c-.16.35-.4.75-.51.88-.05.08-.11.16-.11.19s-.13.16-.27.29c-.13.13-.34.37-.48.53-.19.29-.26.35-.45.45-.16.08-.19.05-.24-.27-.03-.24-.03-.32.05-.56.05-.24.05-.29.03-.5-.05-.21-.05-.24.03-.37.11-.16.24-.64.43-1.38.08-.32.11-.43.24-.61.4-.56.56-.64.75-.43.21.27.51.5.64.59.35.19.35.37 0 .98zm9.26.74c-.13.13-.24.27-.24.29 0 .02-.11.13-.21.24-.1.11-.24.24-.27.29-.03.08-.11.16-.16.24l-.26.29c-.16.16-.59.4-.64.37-.08-.05-.13-.24-.16-.51 0-.16-.05-.35-.08-.42-.11-.24-.05-.98.08-1.33.05-.13.11-.37.13-.53.03-.24.05-.35.13-.45.16-.24.27-.51.27-.69 0-.08.03-.19.05-.27.05-.16.56-.64.67-.64a.6.6 0 0 1 .21.11c.08.05.19.16.21.21.08.11.24.48.37.93.13.4.16.45.21.67 0 .11.05.21.08.29.03.05.05.13.05.16 0 .11-.21.48-.45.75h.01zM141.814 11.65c.06-.01.12-.07.13-.13a.155.155 0 0 0-.13-.19c-1.54-.27-3.07-.59-4.6-.91-1.47-.29-2.94-.62-4.41-.95-.32-1.5-.61-3.02-.97-4.51-.35-1.55-.75-3.1-1.16-4.64a.428.428 0 0 0-.3-.31.411.411 0 0 0-.49.31c-.37 1.58-.72 3.16-1.04 4.78-.34 1.61-.65 3.24-.96 4.93-2.46.66-4.86 1.28-7.21 1.95-.11.03-.2.13-.23.25-.03.17.08.34.26.37h.02c2.48.46 4.97.85 7.45 1.27.67 3.09 1.39 6.16 2.16 9.23.05.22.23.37.45.4.28.03.53-.18.56-.46.31-3.07.62-6.14.88-9.22 3.2-.73 6.4-1.5 9.61-2.16l-.02-.01zm-10.31 1.81v.02c-.3 2.19-.58 4.38-.85 6.58-.53-2.24-1.07-4.48-1.65-6.71v-.02a.474.474 0 0 0-.39-.34c-2.16-.28-4.31-.58-6.47-.85 1.97-.68 3.9-1.37 5.79-2.04.48-1.53.96-3.11 1.41-4.71.32-1.08.6-2.18.89-3.28.24 1.02.49 2.04.77 3.06.39 1.55.86 3.07 1.29 4.6v.02c.03.09.11.17.21.19 1.54.25 3.09.51 4.62.8 1.26.23 2.52.46 3.77.71-3.03.6-6.08 1.13-9.12 1.68-.14.03-.26.14-.28.3l.01-.01zM77.124 19.1c-2.2-.4-4.39-.84-6.58-1.29-2.13-.42-4.26-.88-6.39-1.33-.49-2.17-.93-4.34-1.46-6.5-.52-2.22-1.07-4.43-1.65-6.63a.4.4 0 0 0-.3-.3.418.418 0 0 0-.5.31c-.54 2.27-1.06 4.54-1.55 6.85-.51 2.3-.99 4.62-1.46 7-3.49.98-6.91 1.92-10.29 2.9-.11.03-.2.13-.22.25-.03.17.09.34.26.37h.01c3.59.63 7.2 1.19 10.8 1.78.48 2.18 1.01 4.34 1.51 6.51.54 2.27 1.05 4.54 1.62 6.81a.5.5 0 0 0 .44.39c.28.03.53-.18.56-.46.46-4.43.92-8.85 1.33-13.28 4.62-1.02 9.24-2.08 13.88-3.03a.16.16 0 0 0 .13-.13.155.155 0 0 0-.13-.19l-.01-.03zm-14.56 3.01c-.46 3.55-.89 7.09-1.31 10.62l-.96-3.98c-.56-2.27-1.08-4.54-1.66-6.8v-.02a.46.46 0 0 0-.39-.34c-3.27-.44-6.53-.91-9.8-1.34 2.99-.99 5.95-2.01 8.86-3 .65-2.22 1.3-4.49 1.91-6.78.49-1.76.95-3.55 1.41-5.34.4 1.68.81 3.36 1.25 5.04.55 2.21 1.19 4.4 1.79 6.6.03.11.11.19.21.2 2.2.38 4.41.76 6.6 1.18 1.92.35 3.84.72 5.76 1.1-4.45.89-8.92 1.71-13.39 2.55-.15.03-.27.15-.29.3l.01.01zM36.194 82.28c-1.53-.27-3.04-.58-4.56-.9-1.46-.29-2.91-.61-4.37-.94-.32-1.49-.6-2.99-.96-4.47-.35-1.54-.74-3.07-1.15-4.59a.428.428 0 0 0-.3-.31.411.411 0 0 0-.49.31c-.37 1.56-.72 3.13-1.03 4.73-.33 1.59-.64 3.21-.94 4.88-2.44.65-4.82 1.27-7.14 1.93-.11.03-.2.13-.23.25-.03.17.08.34.26.37h.02c2.45.46 4.92.84 7.37 1.26.67 3.06 1.38 6.1 2.14 9.14.05.22.23.37.45.4.28.03.53-.18.56-.46.3-3.04.61-6.09.87-9.13 3.17-.73 6.33-1.48 9.52-2.14.06-.01.12-.07.13-.13a.155.155 0 0 0-.13-.19l-.02-.01zm-10.21 2.11v.02c-.3 2.16-.57 4.33-.84 6.49-.52-2.21-1.06-4.42-1.63-6.62v-.02a.474.474 0 0 0-.39-.34c-2.13-.28-4.26-.57-6.39-.84 1.94-.67 3.86-1.35 5.73-2.02.48-1.51.95-3.08 1.4-4.67.31-1.06.59-2.15.88-3.23.24 1.01.49 2.01.76 3.01.38 1.53.86 3.04 1.28 4.56v.02c.03.09.11.17.21.19 1.53.25 3.06.5 4.58.79 1.24.22 2.49.46 3.73.71-3 .59-6.02 1.11-9.03 1.66-.14.03-.26.14-.28.3l-.01-.01zM16.525 50.9c4.62-1.02 9.24-2.08 13.88-3.03a.16.16 0 0 0 .13-.13.155.155 0 0 0-.13-.19c-2.2-.4-4.39-.84-6.58-1.29-2.13-.42-4.26-.88-6.39-1.33-.49-2.17-.93-4.34-1.46-6.5-.52-2.22-1.07-4.43-1.65-6.63a.4.4 0 0 0-.3-.3.418.418 0 0 0-.5.31c-.54 2.27-1.06 4.54-1.55 6.85-.51 2.3-.99 4.62-1.46 7-3.49.98-6.91 1.92-10.29 2.9-.11.03-.2.13-.22.25-.03.17.09.34.26.37h.01c3.59.63 7.2 1.19 10.8 1.78.48 2.18 1.01 4.34 1.51 6.51.54 2.27 1.05 4.54 1.62 6.81a.5.5 0 0 0 .44.39c.28.03.53-.18.56-.46.46-4.43.92-8.85 1.33-13.28l-.01-.03zm-4.62-.49v-.02a.46.46 0 0 0-.39-.34c-3.27-.44-6.53-.91-9.8-1.34 2.99-.99 5.95-2.01 8.86-3 .65-2.22 1.3-4.49 1.91-6.78.49-1.76.95-3.55 1.41-5.34.4 1.68.81 3.36 1.25 5.04.55 2.21 1.19 4.4 1.79 6.6.03.11.11.19.21.2 2.2.38 4.41.76 6.6 1.18 1.92.35 3.84.72 5.76 1.1-4.45.89-8.92 1.71-13.39 2.55-.15.03-.27.15-.29.3-.46 3.55-.89 7.09-1.31 10.62l-.96-3.98c-.56-2.27-1.08-4.54-1.66-6.8l.01.01z" fill="#000"/><path d="M97.085 181.76c8.599 0 15.57-6.971 15.57-15.57s-6.971-15.57-15.57-15.57c-8.6 0-15.57 6.971-15.57 15.57s6.97 15.57 15.57 15.57z" fill="#fff"/><path d="M98.703 174.665c-3.29.668-6.498-1.451-7.167-4.734l-.595-2.908a1.16 1.16 0 0 1 .91-1.37l9.626-1.965a1.159 1.159 0 0 1 1.371.909l.595 2.908c.668 3.289-1.451 6.498-4.733 7.166l-.007-.006z" fill="#0ABBEF"/><path d="m103.931 167.552-.388-2.494-.047-.314c-.013-.1-.026-.201-.066-.361a1.71 1.71 0 0 0-.328-.628 1.73 1.73 0 0 0-.903-.582 1.73 1.73 0 0 0-.454-.06c-.154 0-.328.033-.408.047l-.094.02a17.087 17.087 0 0 0-.04-.221l-.294-1.691a4.946 4.946 0 0 0-.595-1.652 5.207 5.207 0 0 0-2.707-2.293 5.351 5.351 0 0 0-3.664 0c-1.196.428-2.22 1.331-2.841 2.467-.595 1.13-.822 2.514-.515 3.757.014.074.034.141.047.214.114.528.234 1.057.361 1.585-.12.053-.227.12-.328.194-.24.193-.427.441-.541.715a1.8 1.8 0 0 0-.114.876c.027.16.054.26.08.361l.08.3.623 2.447a6.695 6.695 0 0 0 2.988 4.112c.621.394 1.31.675 2.019.835.555.134 1.13.181 1.698.167H97.647c.12 0 .24-.006.36-.02 0 0 .395-.06.409-.06l.207-.04h.02-.013l.227-.047a6.658 6.658 0 0 0 3.931-2.667 6.693 6.693 0 0 0 1.136-4.954l.007-.013zm-5.876-3.797-4.78.949c-.04-.261-.241-1.471-.281-1.732-.26-1.631.922-3.242 2.447-3.469a2.945 2.945 0 0 1 2.166.448c.621.428 1.083 1.076 1.237 1.825.12.588.254 1.17.387 1.758-.394.074-.789.147-1.176.221z" fill="#000"/><path d="m98.81 170.213-.054-.12-.1-.234c-.127-.295-.254-.589-.368-.89.415-.367.562-.922.408-1.397.08.254.06.542-.067.776a.93.93 0 0 1-.555.468l-.093-.395-.448-.02a.664.664 0 0 1-.502-.261.737.737 0 0 1-.08-.762c.12-.287.468-.528.856-.501.388.02.769.301.889.695a1.344 1.344 0 0 0-.856-.855 1.392 1.392 0 0 0-1.344.28c-.4.335-.621.956-.46 1.538.106.434.434.815.855 1.023.04.2.08.408.133.608l.074.241.094.294c.147.441.642.695 1.05.582.414-.094.694-.515.621-.896-.02-.114-.04-.141-.053-.181v.007z" fill="#000"/><path d="M106.395 153.59c3.27 2.44 5.85 6 6.73 10.2.95 4.16-.14 8.8-2.83 12.17-2.69 3.4-6.74 5.44-10.86 5.96-4.12.57-8.44-.37-11.95-2.75-3.53-2.33-6.09-6.24-6.77-10.52-.74-4.27.31-8.87 2.95-12.37 2.61-3.5 6.73-5.86 11-6.16 4.27-.37 8.45 1.04 11.73 3.47zm-.12.17c-3.27-2.45-7.6-3.15-11.4-2.28-3.8.88-7.2 3.04-9.42 6.12-2.23 3.05-3.31 6.95-2.8 10.75.5 3.79 2.46 7.4 5.51 9.9 3.04 2.5 7.22 3.68 11.17 3 3.96-.66 7.42-3.14 9.56-6.32 2.19-3.18 3.22-7.04 2.93-10.95-.3-3.89-2.24-7.83-5.55-10.22z" fill="#000"/><defs><linearGradient id="a" x1="25.344" y1="137.71" x2="182.354" y2="137.71" gradientUnits="userSpaceOnUse"><stop stop-color="#76B82A"/><stop offset=".26" stop-color="#73B42A"/><stop offset=".49" stop-color="#6DA92A"/><stop offset=".72" stop-color="#61972A"/><stop offset=".93" stop-color="#517D2B"/><stop offset="1" stop-color="#4C742C"/></linearGradient></defs></svg>