<svg width="188" height="210" viewBox="0 0 188 210" fill="none" xmlns="http://www.w3.org/2000/svg">
<path d="M109.383 185.418C152.743 185.418 187.893 173.701 187.893 159.248C187.893 144.795 152.743 133.078 109.383 133.078C66.0232 133.078 30.873 144.795 30.873 159.248C30.873 173.701 66.0232 185.418 109.383 185.418Z" fill="url(#paint0_linear_3089_55197)"/>
<path d="M187.884 159.249C187.884 161.079 187.304 162.879 186.354 164.429C185.404 165.989 184.154 167.339 182.794 168.559C180.044 170.969 176.854 172.809 173.564 174.369C166.964 177.489 159.934 179.599 152.834 181.259C138.604 184.519 123.984 185.959 109.374 186.169C94.7635 186.309 80.0835 185.299 65.6735 182.309C58.4935 180.739 51.3635 178.759 44.5835 175.619C41.2135 174.039 37.9135 172.169 34.9935 169.639C33.5535 168.359 32.1935 166.919 31.1235 165.189C30.0635 163.469 29.3535 161.389 29.3535 159.249C29.3535 157.109 30.0535 155.029 31.1235 153.309C32.1835 151.579 33.5435 150.139 34.9935 148.859C37.9135 146.329 41.2135 144.459 44.5835 142.879C51.3535 139.739 58.4935 137.759 65.6735 136.189C80.0735 133.199 94.7635 132.189 109.374 132.329C123.984 132.549 138.604 133.979 152.834 137.249C159.934 138.899 166.964 141.019 173.564 144.139C176.854 145.699 180.044 147.539 182.794 149.949C184.154 151.159 185.404 152.509 186.354 154.079C187.304 155.629 187.894 157.429 187.884 159.259V159.249ZM187.884 159.249C187.884 157.419 187.284 155.629 186.334 154.079C185.384 152.529 184.124 151.189 182.764 149.979C180.004 147.589 176.814 145.769 173.524 144.229C166.914 141.169 159.854 139.199 152.754 137.649C138.494 134.689 123.904 133.689 109.384 133.829C94.8635 134.039 80.3335 135.479 66.2435 138.709C59.2135 140.339 52.2735 142.439 45.8335 145.489C42.6235 147.009 39.5335 148.809 36.9535 151.069C35.6835 152.209 34.5335 153.459 33.6935 154.839C32.8535 156.219 32.3735 157.729 32.3735 159.249C32.3735 160.769 32.8435 162.279 33.6935 163.659C34.5335 165.039 35.6835 166.289 36.9535 167.429C39.5335 169.699 42.6235 171.489 45.8335 173.009C52.2735 176.059 59.2235 178.159 66.2435 179.789C80.3335 183.029 94.8635 184.449 109.384 184.669C123.904 184.809 138.494 183.809 152.754 180.849C159.854 179.299 166.914 177.329 173.524 174.269C176.814 172.729 180.004 170.909 182.764 168.519C184.124 167.319 185.384 165.979 186.334 164.419C187.294 162.879 187.884 161.079 187.884 159.249Z" fill="black"/>
<path d="M142.163 152.342H65.3431C59.2039 152.342 54.2285 157.317 54.2285 163.456H153.277C153.277 157.317 148.302 152.342 142.163 152.342Z" fill="#C0C0C0"/>
<path d="M80.9436 152.352C76.2245 152.075 71.4947 152.053 66.7862 152.267C63.4123 152.427 59.7395 152.843 57.3692 155.246C55.4474 157.189 54.8068 160.018 54.273 162.709C54.2409 162.879 54.2089 163.072 54.3157 163.21C54.4331 163.371 54.668 163.381 54.8709 163.371C56.9315 163.296 58.9814 163.221 61.0421 163.136C61.8108 160.007 64.117 157.295 67.0745 156.036C69.5728 154.968 72.3808 154.915 75.0927 154.872C75.7013 154.872 76.3206 154.85 76.9292 154.85C74.7511 157.658 72.5837 160.477 70.4056 163.285C72.0926 163.349 73.7688 163.403 75.4558 163.467C75.9576 163.488 76.4807 163.499 76.9398 163.285C77.3349 163.104 77.6338 162.762 77.9221 162.431L84.5844 154.744L93.0298 154.626C93.3608 154.626 93.6918 154.626 94.0227 154.616C91.6311 157.52 89.2288 160.424 86.8372 163.328C88.4067 163.403 89.9762 163.424 91.5457 163.424C92.1009 163.424 92.6561 163.413 93.1686 163.21C93.7238 162.997 94.1722 162.591 94.5993 162.185C97.418 159.58 100.247 156.975 103.066 154.381C108.735 154.124 114.362 153.548 119.85 152.171L80.9436 152.352Z" fill="white"/>
<path d="M140.007 24.8711L141.139 14.7709L151.72 12.6035L141.887 10.6923L139.431 0.794922L136.911 11.0874L129.267 13.4469L137.595 14.7068L140.007 24.8711Z" fill="white"/>
<path d="M157.966 89.4233V54.9586C160.517 53.8589 162.322 51.4032 162.663 48.5205C163.005 45.4883 161.649 42.7336 159.023 41.1535L109.653 12.2086C106.888 10.5858 103.45 10.5858 100.685 12.2086L73.0103 28.4267L66.6255 32.1743L67.5331 24.0065L82.6728 20.9102L68.6114 18.177L65.0988 4.01953L61.49 18.7322L50.5676 22.1167L62.4616 23.9104L64.7037 33.306L51.4645 41.0681C51.4645 41.0681 51.3257 41.1535 51.315 41.1535C48.6885 42.7336 47.3325 45.4883 47.6849 48.5205C48.0159 51.4032 49.8202 53.8589 52.372 54.9586V130.412C52.372 136.999 57.0805 142.519 63.3264 143.758C64.1805 143.928 65.0774 144.014 65.9849 144.014H144.374C145.773 144.014 147.107 143.8 148.378 143.416C148.794 143.288 149.2 143.138 149.584 142.968C149.584 142.968 149.595 142.968 149.606 142.968C149.851 142.861 150.097 142.754 150.342 142.637C150.364 142.626 150.385 142.615 150.417 142.594C150.673 142.466 150.93 142.327 151.186 142.177C151.442 142.028 151.698 141.868 151.944 141.697C152.157 141.558 152.371 141.409 152.574 141.249C153.086 140.854 153.577 140.426 154.026 139.967C154.186 139.807 154.336 139.647 154.485 139.487C154.57 139.391 154.656 139.295 154.731 139.188C154.88 139.028 155.008 138.857 155.147 138.686C156.919 136.391 157.966 133.519 157.966 130.401V89.4127V89.4233Z" fill="white"/>
<path d="M26.7792 76.6543L24.2809 86.8506L16.7217 89.1995L24.9642 90.4381L27.3558 100.506L28.4768 90.5021L38.9615 88.3561L29.2135 86.4663L26.7792 76.6543Z" fill="white"/>
<path d="M32.7692 51.2755L18.7079 48.5422L15.1952 34.3848L11.5864 49.0974L0.664062 52.482L12.558 54.2757L16.028 68.8068L17.6295 54.3718L32.7692 51.2755Z" fill="white"/>
<path d="M159.012 41.1425L109.642 12.1976C106.877 10.5747 103.439 10.5747 100.674 12.1976L72.9993 28.4157C73.7466 28.1381 74.5047 27.8712 75.2628 27.6043C68.0132 31.9604 59.8561 34.8645 52.8201 39.5943C50.215 41.3453 47.5671 43.7049 47.2788 46.8332C47.0226 49.6092 48.7736 52.2677 51.0691 53.8585C51.4428 54.1255 51.8592 54.3817 52.0727 54.7874C52.2436 55.1184 52.2756 55.5028 52.2969 55.8765C52.4784 59.8376 52.0834 63.9268 53.3753 67.685C54.0052 63.8093 54.6245 59.9336 55.2544 56.058C55.3292 55.5775 55.4146 55.0864 55.3398 54.5952C55.2331 53.8265 54.7633 53.1539 54.3255 52.5133C53.5354 51.3175 52.7987 50.0576 52.4571 48.6696C52.1154 47.2816 52.1902 45.7335 52.9375 44.5163C53.4714 43.6302 54.3149 42.9789 55.137 42.3596C63.6998 35.9428 73.3516 31.1596 82.6618 25.8853C83.3878 25.4796 84.1138 25.0525 84.8292 24.5934C90.3918 23.0453 96.0398 21.8281 101.741 20.9633C102.766 20.8031 103.813 20.6643 104.848 20.8138C105.959 20.974 106.984 21.4651 107.987 21.9456C119.454 27.4761 131.07 33.1028 140.712 41.3987C142.292 42.7547 143.872 44.2494 144.619 46.2033C145.367 48.1571 145.057 50.6555 143.37 51.894C142.644 52.4172 141.673 52.7482 141.331 53.5703C141.181 53.9333 141.181 54.339 141.181 54.734C141.192 56.2501 141.128 57.7663 141.139 59.293V108.951C140.135 112.496 138.448 115.805 135.854 118.389C134.434 119.809 132.768 120.984 131.092 122.083C126.49 125.105 121.589 127.71 116.347 129.397C117.895 129.792 119.486 129.909 121.088 129.995L118.792 130.23C122.999 130.966 127.195 131.863 131.337 132.91C130.515 134.052 129.063 134.511 127.697 134.853C122.412 136.187 116.966 136.839 111.521 136.796C113.87 136.924 116.208 137.319 118.461 137.97L111.158 137.597C109.503 139.294 107.485 141.665 105.969 143.501C106.695 144.163 108.179 143.64 109.162 143.693C111.479 143.811 113.806 143.885 116.123 143.917C116.048 143.96 115.973 144.003 115.899 144.035H144.32C145.719 144.035 147.054 143.821 148.324 143.437C148.741 143.309 149.146 143.159 149.531 142.989C149.531 142.989 149.541 142.989 149.552 142.989C149.798 142.882 150.043 142.775 150.289 142.658C150.31 142.647 150.331 142.636 150.363 142.615C150.62 142.487 150.876 142.348 151.132 142.198C151.388 142.049 151.645 141.889 151.89 141.718C152.104 141.579 152.317 141.43 152.52 141.27C153.033 140.875 153.524 140.447 153.972 139.988C154.132 139.828 154.282 139.668 154.431 139.508C154.517 139.412 154.602 139.316 154.677 139.209C154.826 139.049 154.954 138.878 155.093 138.707C156.866 136.412 157.912 133.54 157.912 130.422V54.9583C160.464 53.8585 162.268 51.4029 162.61 48.5201C162.951 45.4879 161.595 42.7333 158.969 41.1531L159.012 41.1425Z" fill="#0ABBEF"/>
<path d="M52.3604 130.412C52.3604 137 57.0688 142.519 63.3148 143.758C63.7739 143.502 64.2116 143.213 64.6387 142.904C64.7882 142.947 64.9376 142.979 65.0978 142.989C66.1761 143.107 67.2438 143.213 68.3222 143.331C69.7529 143.48 71.1836 143.63 72.6249 143.587C74.2371 143.534 75.828 143.224 77.4081 142.914C77.6964 142.861 77.9847 142.808 78.2303 142.658C78.5079 142.498 78.7321 142.253 78.9349 142.007L83.1309 137.096L81.5508 137C77.579 137.16 73.6072 137.17 69.6248 137.053C67.9699 137 66.2295 136.882 64.7775 136.167C64.7561 136.113 64.7455 136.06 64.7134 136.007C64.5426 135.708 64.233 135.505 63.9554 135.291C60.4747 132.707 58.6063 127.988 59.5352 123.76V78.512C59.1508 78.576 58.9052 78.213 58.6917 77.8927C57.1649 75.5224 54.4637 74.1878 52.3604 72.3301V130.412Z" fill="#0ABBEF"/>
<path d="M116.175 35.5805C118.418 36.1571 120.66 36.7336 122.902 37.3208C118.129 34.342 112.887 32.228 107.666 30.1247C106.588 29.6869 105.488 29.2492 104.324 29.121C101.196 28.7794 98.3451 30.7439 95.8147 32.6017L88.1808 36.6802C82.2552 39.926 76.3509 43.2144 70.468 46.5349C68.9412 47.3997 67.329 48.3393 66.4749 49.8768C65.4819 51.6491 65.6955 53.8165 65.9303 55.8237C66.3788 59.614 66.8272 63.4043 67.2756 67.1945C67.9269 64.3865 68.5675 61.5679 69.2188 58.7599C69.6779 56.7633 70.1797 54.692 71.4716 53.1011C72.4005 51.9587 73.6817 51.1686 74.9416 50.4106C83.5044 45.2857 92.4836 40.8976 101.452 36.5201C103.011 35.762 104.591 34.9933 106.289 34.6196C109.556 33.9149 112.94 34.7584 116.175 35.5912V35.5805Z" fill="#0ABBEF"/>
<path d="M64.9801 38.6238C62.4176 40.1079 59.8231 41.592 57.6237 43.5779C56.5454 44.5495 55.5311 45.7025 55.2535 47.1226C55.0933 47.9554 55.2001 48.8309 55.4243 49.653C55.9688 51.7456 57.4209 53.7849 59.5349 54.2333C58.7555 51.9912 57.9761 49.4394 59.0331 47.3147C59.5562 46.2577 60.4744 45.4463 61.414 44.7203C63.4639 43.1401 65.7168 41.8162 68.1084 40.8126C68.4073 40.6844 68.7169 40.567 69.0372 40.6204C69.3042 40.6631 69.5284 40.8232 69.7526 40.9834C71.1833 41.9977 72.6033 43.012 74.034 44.037C73.1371 42.7664 72.251 41.4959 71.3541 40.2253C70.927 39.6168 70.4786 38.8587 70.7562 38.1647C71.0552 37.4494 72.0161 37.2465 72.7528 37.4921C73.4895 37.7376 74.0553 38.3035 74.6639 38.784C75.8277 39.7022 77.1943 40.3535 78.5396 40.9834C77.4185 39.4246 76.2868 37.8658 75.1657 36.3176C75.0803 36.2002 74.9842 36.0614 75.0163 35.9119C75.0483 35.7624 75.2084 35.677 75.3579 35.613C76.0839 35.282 76.81 34.951 77.536 34.6307C77.7282 34.5453 77.9203 34.4599 78.1339 34.4919C78.3901 34.5239 78.5823 34.7375 78.7531 34.9296C79.9489 36.2215 81.3903 37.2892 82.9812 38.0366C81.8494 35.5169 80.5575 33.0719 79.1055 30.7337L83.3762 28.0645C77.2477 31.5985 71.1192 35.1218 65.0014 38.6559L64.9801 38.6238Z" fill="#0ABBEF"/>
<path d="M89.7284 143.341C92.1414 143.555 94.5757 143.512 96.9673 143.213C97.2236 143.181 97.4798 143.149 97.7147 143.032C98.1097 142.829 98.366 142.434 98.6009 142.06C99.8073 140.234 101.398 138.675 103.256 137.512L89.0238 137.64C87.3368 139.572 85.6606 141.505 83.9736 143.437C85.81 142.839 87.7959 143.17 89.7178 143.341H89.7284Z" fill="#0ABBEF"/>
<path d="M66.5702 107.617C65.4492 113.009 64.3174 118.476 64.6804 123.963C64.7979 125.821 65.1502 127.796 66.4314 129.152C67.4137 130.199 68.823 130.732 70.211 131.085C78.1225 133.124 86.4077 130.583 94.5755 130.423C88.8741 130.231 84.6674 130.626 78.966 130.434C77.3325 130.38 74.1721 130.498 72.5919 130.071C71.0118 129.643 69.5277 128.063 68.5668 126.739C67.6165 125.426 67.3176 123.761 67.1041 122.148C66.5382 117.888 66.3887 113.564 66.6663 109.283L66.5702 107.617Z" fill="#0ABBEF"/>
<path d="M50.5027 40.0117C50.5027 40.0117 50.4384 40.0439 50.4062 40.0653H50.4384L50.5027 40.0117Z" fill="black"/>
<path d="M163.751 48.0826C163.847 46.3743 163.442 44.6019 162.545 43.0965C162.107 42.3491 161.541 41.6765 160.911 41.0893C160.591 40.801 160.26 40.5341 159.908 40.2992L159.363 39.9575L158.883 39.6906L143.551 31.0424C133.333 25.2769 123.083 19.5648 112.951 13.6712C111.67 12.9345 110.453 12.1978 109.118 11.4611C107.741 10.7565 106.182 10.4041 104.644 10.4468C103.096 10.4682 101.559 10.8739 100.214 11.6426L96.402 13.8527C91.3198 16.7782 86.2697 19.757 81.1661 22.6504L50.5451 39.9896L50.513 40.0109C50.6625 39.9255 50.844 39.8828 50.9935 39.9041L50.4596 40.0536L50.3208 40.1604C50.3208 40.1604 50.3956 40.0857 50.4276 40.0536H50.3849C48.9862 40.8757 47.7798 42.0929 47.011 43.5663C46.2316 45.0397 45.9327 46.748 46.0821 48.3709C46.2103 50.0044 46.7761 51.6059 47.7157 52.9726C48.4737 54.083 49.4987 55.0118 50.6838 55.6952L50.3849 99.6943C50.3208 107.168 50.3529 114.631 50.3422 122.105V127.71L50.3742 130.529C50.4063 131.575 50.5237 132.622 50.7479 133.647C51.6661 137.757 54.378 141.377 57.9975 143.469C59.8018 144.516 61.8304 145.199 63.9017 145.412C64.4142 145.476 64.9374 145.466 65.4606 145.498C65.9624 145.508 66.4001 145.498 66.8806 145.498L69.6779 145.466L80.8779 145.348C88.3516 145.252 95.8147 145.22 103.288 145.081L117.275 144.836C117.574 145.466 117.905 146.064 118.279 146.619C118.834 147.42 119.453 148.167 120.115 148.861C120.788 149.555 121.503 150.196 122.283 150.783C122.71 151.092 123.147 151.381 123.617 151.658L106.598 151.466C97.8113 151.338 89.035 151.37 80.2479 151.317L67.0728 151.263C65.973 151.263 64.9054 151.221 63.6669 151.327C62.471 151.455 61.3073 151.776 60.1969 152.235C57.9868 153.196 56.065 154.797 54.7731 156.826C54.1004 157.83 53.652 158.961 53.3103 160.114L53.0968 160.99L52.958 161.876C52.9046 162.175 52.9046 162.474 52.8833 162.773L52.8619 163.221V163.339V163.392C54.9439 165.495 53.4705 163.979 53.951 164.449H54.1538L60.7414 164.428L73.9166 164.374C82.7036 164.332 91.4799 164.353 100.267 164.225L126.617 163.926C135.404 163.755 144.181 163.648 152.968 163.403C144.181 163.157 135.404 163.061 126.617 162.88L100.267 162.581C91.4799 162.453 82.7036 162.474 73.9166 162.431L60.7414 162.378L55.0186 162.356C55.0186 162.282 55.0293 162.207 55.0507 162.132L55.1681 161.396L55.3496 160.67C55.6379 159.719 56.0116 158.79 56.5774 157.968C57.6451 156.292 59.2146 154.947 61.0404 154.146C61.9586 153.762 62.9195 153.495 63.9124 153.377C64.8627 153.281 65.9944 153.303 67.0941 153.303L80.2693 153.249C89.0563 153.196 97.8326 153.228 106.62 153.1L132.97 152.801L139.558 152.683C140.647 152.683 141.768 152.609 142.825 152.673C143.882 152.769 144.939 152.972 145.942 153.356C149.978 154.851 152.925 158.961 152.989 163.392C152.989 162.292 152.872 161.193 152.583 160.125C152.274 159.068 151.815 158.043 151.227 157.093C150.608 156.164 149.861 155.32 149.017 154.594C148.163 153.868 147.192 153.292 146.156 152.833C145.12 152.384 144.01 152.128 142.889 151.989C141.746 151.883 140.668 151.915 139.568 151.883L135.735 151.808C135.992 151.349 136.141 150.89 136.269 150.43C136.429 149.811 136.493 149.192 136.504 148.583C136.504 147.964 136.429 147.345 136.28 146.736C136.109 146.117 135.885 145.498 135.436 144.889C134.988 145.508 134.764 146.128 134.593 146.736C134.433 147.356 134.369 147.975 134.369 148.583C134.369 149.203 134.443 149.822 134.604 150.43C134.732 150.89 134.881 151.338 135.137 151.797L132.981 151.754L130.675 151.733C130.92 151.221 131.08 150.708 131.208 150.196C131.368 149.502 131.433 148.808 131.443 148.114C131.443 147.42 131.369 146.726 131.219 146.032C131.102 145.541 130.952 145.049 130.717 144.558L136.942 144.409L142.547 144.27C143.476 144.227 144.416 144.249 145.366 144.131C146.305 144.014 147.234 143.811 148.131 143.501C150.01 142.978 151.804 142.049 153.331 140.779C154.847 139.497 156.096 137.896 156.961 136.081C157.826 134.276 158.295 132.259 158.338 130.251L158.477 124.454L158.851 101.264L159.064 78.0738C159.085 70.632 159.15 63.1903 159.118 55.7485C161.872 54.179 163.677 51.1895 163.805 48.0719L163.751 48.0826ZM53.5879 82.0776C54.0684 82.6861 54.5595 83.2734 55.1681 83.7325C55.8941 84.277 56.7696 84.672 57.4423 85.2699C57.9441 85.7183 58.3605 86.2308 58.7342 86.786L58.6808 95.4983C58.5954 95.3809 58.5099 95.2421 58.4245 95.1246C57.8587 94.3452 57.2928 93.5551 56.6415 92.8505C55.7233 91.8789 54.7304 90.9607 53.6306 90.1599L53.5773 82.0776H53.5879ZM59.9834 97.1639L59.93 88.7719C60.1328 89.0922 60.3357 89.4018 60.5599 89.7008C61.0831 90.4268 61.5955 91.1635 62.2041 91.8255C63.2932 92.9572 64.4783 94.0036 65.8983 94.8791C65.8236 95.7973 65.7382 96.7155 65.6954 97.6337C65.578 100.004 65.6314 102.374 65.7382 104.744C65.6527 104.595 65.5673 104.435 65.4819 104.285C64.9801 103.463 64.4569 102.652 63.7523 101.968C63.0476 101.296 62.1934 100.751 61.5528 100.025C60.9229 99.3206 60.4211 98.5092 59.994 97.6337V97.1532L59.9834 97.1639ZM66.2293 89.9997C66.1973 91.1956 66.1012 92.3914 66.0051 93.5872C65.4285 92.4234 64.7132 91.3557 63.9444 90.3414C63.3786 89.6367 62.7273 88.9961 62.076 88.3662C61.4461 87.7149 60.7414 87.1384 59.994 86.5938C59.9727 86.5725 59.9406 86.5511 59.9193 86.5405L59.8766 80.3586C60.0901 80.6575 60.3037 80.9565 60.5385 81.2341C61.0724 81.9067 61.5955 82.5794 62.2041 83.1666C63.3786 84.2556 64.6491 85.2486 66.1973 86.0066C66.2506 87.3412 66.272 88.6651 66.2293 89.9997ZM58.7448 85.6009C58.4566 85.3553 58.179 85.0991 57.9441 84.8001C57.3569 84.1168 56.9832 83.2306 56.4493 82.4833C55.9155 81.7466 55.2215 81.1593 54.5061 80.5828C54.2072 80.3586 53.8869 80.1344 53.5666 79.9315L53.5239 74.1981C54.015 74.7853 54.5168 75.3405 55.1468 75.7782C55.8621 76.2587 56.7162 76.6004 57.3782 77.1449C57.9227 77.5826 58.3712 78.1165 58.7769 78.693L58.7342 85.5902L58.7448 85.6009ZM129.5 150.196C129.628 150.708 129.778 151.21 130.023 151.722L124.61 151.658C124.29 150.922 123.916 150.249 123.489 149.608C122.934 148.808 122.315 148.06 121.653 147.366C120.991 146.672 120.265 146.032 119.485 145.444C119.176 145.22 118.866 145.007 118.535 144.804L125.678 144.676L129.981 144.569C129.756 145.049 129.607 145.541 129.489 146.021C129.329 146.715 129.254 147.409 129.265 148.103C129.265 148.797 129.34 149.491 129.5 150.185V150.196ZM145.27 143.651C144.362 143.715 143.433 143.651 142.494 143.619L136.888 143.48L125.688 143.213L103.278 142.818C95.8041 142.679 88.341 142.636 80.8672 142.551L69.6672 142.434L66.8699 142.402C66.4108 142.402 65.9197 142.402 65.4926 142.38C65.0762 142.348 64.6705 142.348 64.2541 142.284C62.6205 142.071 61.0297 141.526 59.6203 140.693C56.7803 139.017 54.6877 136.145 54.0043 132.942C53.8335 132.141 53.7481 131.33 53.7374 130.508V127.732L53.7588 122.126C53.7374 114.653 53.7801 107.189 53.7161 99.7156L53.6627 92.5515C54.0577 93.1601 54.4848 93.758 54.9225 94.3345C55.5204 95.0819 56.2038 95.7439 56.8871 96.4272C57.4316 96.9931 58.0508 97.5162 58.6808 98.018L58.5527 118.411L58.5206 123.728V126.397C58.542 127.347 58.6274 128.297 58.8836 129.216C59.7698 132.963 62.738 136.06 66.3147 137.351C68.0764 138.024 70.0623 138.238 71.8453 138.206H77.1623L87.7858 138.238L109.033 138.28L130.279 138.323H135.597L138.255 138.344C139.152 138.366 140.166 138.302 141.095 138.12C142.045 137.949 142.974 137.65 143.85 137.255C144.159 137.597 144.437 137.949 144.629 138.355C144.928 138.964 144.981 139.722 145.216 140.362C145.451 141.003 145.868 141.537 146.316 142.06C146.722 142.508 147.17 142.925 147.736 143.277C146.935 143.48 146.124 143.608 145.302 143.661L145.27 143.651ZM143.625 134.17C143.327 133.55 143.017 132.931 142.611 132.387C142.003 131.618 141.319 130.903 140.476 130.315C141.309 130.091 142.131 129.75 142.899 129.194C143.732 128.607 144.448 127.71 144.843 126.739C145.238 127.379 145.654 128.009 146.081 128.618C146.636 129.408 147.224 130.177 147.811 130.935C146.871 132.536 145.515 133.881 143.914 134.81C143.828 134.597 143.743 134.373 143.636 134.17H143.625ZM145.462 123.717C145.515 122.201 145.515 120.706 145.494 119.212C146.658 120.738 147.95 122.084 149.306 123.354V123.909C149.306 124.689 149.316 125.543 149.274 126.226C149.209 127.166 149.017 128.095 148.708 128.981C148.217 128.5 147.715 128.031 147.192 127.582C146.53 127.027 145.814 126.525 145.078 126.055C145.323 125.255 145.409 124.454 145.462 123.706V123.717ZM149.06 131.917H148.985C148.985 131.917 148.932 131.917 148.857 131.896C148.846 131.896 148.772 131.874 148.676 131.842L148.558 131.789L148.302 131.586C148.302 131.586 148.281 131.565 148.27 131.554L149.049 131.917H149.06ZM148.259 131.543C148.131 131.404 148.003 131.105 148.014 130.871C148.014 130.742 148.056 130.55 148.099 130.476C148.11 130.444 148.12 130.433 148.131 130.401L148.291 130.668L148.259 131.533V131.543ZM148.259 130.198L148.163 130.326C148.163 130.326 148.206 130.262 148.206 130.251C148.238 130.219 148.238 130.209 148.249 130.187L148.259 130.198ZM148.259 131.543C148.227 131.511 148.206 131.468 148.174 131.426C148.206 131.458 148.227 131.501 148.259 131.543ZM148.12 143.149C148.099 142.423 147.918 141.804 147.715 141.195C147.458 140.565 147.192 139.935 146.722 139.433C146.252 138.932 145.601 138.526 145.195 137.981C144.939 137.64 144.747 137.255 144.597 136.85C146.444 135.867 148.046 134.447 149.209 132.718C149.903 133.561 150.619 134.383 151.334 135.205C152.327 136.273 153.331 137.351 154.484 138.355C152.914 140.522 150.683 142.231 148.11 143.16L148.12 143.149ZM156 135.686C155.637 136.551 155.188 137.373 154.655 138.141C154.196 136.711 153.523 135.398 152.786 134.127C152.039 132.931 151.206 131.789 150.288 130.721C150.907 129.344 151.281 127.86 151.366 126.365C151.388 125.97 151.388 125.607 151.388 125.255C152.252 126.002 153.139 126.728 154.035 127.443C154.986 128.191 155.957 128.917 156.982 129.621V130.273C157.057 132.12 156.726 133.978 156 135.696V135.686ZM160.986 47.9224C160.826 50.3568 159.278 52.6523 157.078 53.5811C156.576 53.7947 156.213 54.2965 156.213 54.873V54.8944C156.181 62.6244 156.245 70.3544 156.267 78.0844L156.48 101.274L156.854 124.464L156.95 128.746C156.438 127.86 155.829 127.027 155.188 126.248C154.228 125.084 153.181 124.037 152.082 123.034C151.857 122.82 151.612 122.639 151.377 122.436V121.518L151.356 111.962L151.313 92.8611L151.238 55.204C153.352 54.0723 154.825 51.9156 155.188 49.588C155.402 48.3282 155.285 47.0042 154.836 45.7871C154.388 44.5699 153.587 43.4916 152.594 42.6908C152.092 42.2851 151.526 41.9648 151.057 41.6979L149.572 40.8437L146.615 39.1354L140.689 35.7082L116.987 22.0098L111.061 18.5826C110.047 18.0274 109.15 17.4188 108.008 16.9063C106.887 16.4579 105.659 16.2337 104.452 16.3084C103.246 16.3831 102.061 16.7141 101.004 17.3013L98.0569 19.063L92.1846 22.5864L68.7277 36.7118L73.0411 34.2454C73.1585 35.1209 73.4682 35.8897 73.8312 36.605C74.2155 37.331 74.6746 38.0037 75.2085 38.6229C75.7423 39.2315 76.3402 39.7867 77.0022 40.2778C77.3438 40.5127 77.6855 40.7369 78.0592 40.9291C76.7032 41.7299 75.3686 42.5413 74.0447 43.3848C73.9486 42.8296 73.7778 42.3064 73.5856 41.8046C73.276 41.0679 72.8916 40.3846 72.4325 39.744C71.9734 39.1034 71.4396 38.5268 70.8417 38.0037C70.2331 37.4912 69.5604 37.0214 68.7277 36.7225C68.8771 37.598 69.1868 38.3347 69.5177 39.0393C69.8594 39.7333 70.2544 40.3846 70.7029 41.0039C71.1513 41.6124 71.6424 42.1997 72.1976 42.7442C72.582 43.1072 72.9877 43.4595 73.4468 43.7798C71.525 45.0077 69.6138 46.2675 67.7454 47.5915C67.7027 47.6235 67.692 47.6769 67.7027 47.7196C67.724 47.773 67.7881 47.805 67.8415 47.7836C73.7351 45.4027 79.4365 42.6694 84.9778 39.6266C87.7324 38.0784 90.4656 36.4982 93.1882 34.886C95.8895 33.2525 98.5266 31.4481 101.249 29.9C101.933 29.5476 102.648 29.2594 103.374 29.1633C104.1 29.0779 104.847 29.1846 105.552 29.4622C106.267 29.7185 106.919 30.1135 107.613 30.5086C108.317 30.8929 109.022 31.2666 109.727 31.6189C112.556 33.0603 115.407 34.4269 118.321 35.6441L127.012 39.3169C129.884 40.5768 132.756 41.8473 135.436 43.5022C135.436 43.5022 135.532 43.5236 135.575 43.4916C135.618 43.4489 135.618 43.3848 135.575 43.3421C133.248 41.132 130.461 39.4878 127.664 37.9823C124.856 36.4769 121.973 35.153 119.079 33.8824C116.186 32.6012 113.197 31.5656 110.26 30.4338C108.776 29.8893 107.388 29.2167 105.787 28.7362C104.997 28.5227 104.132 28.3839 103.288 28.5227C102.456 28.6401 101.676 28.9391 100.94 29.27C98.0782 30.6794 95.1848 31.9392 92.3341 33.3059C89.5047 34.7152 86.6861 36.1459 83.8994 37.6193C83.7179 37.7154 83.5364 37.8222 83.3549 37.9183C83.2268 37.4698 83.0666 37.0428 82.8851 36.6264C82.5435 35.879 82.1164 35.1743 81.6252 34.5337C81.1341 33.8824 80.5789 33.2845 79.949 32.7507C79.3511 32.2596 78.6998 31.8004 77.9097 31.4801L92.5049 23.1522L98.4412 19.7463L101.399 18.0594C102.349 17.5469 103.417 17.2693 104.484 17.2373C105.563 17.1839 106.63 17.4081 107.613 17.8245C108.552 18.2516 109.545 18.9349 110.517 19.5008L116.4 23.0028L139.921 36.9894L145.804 40.4914L148.74 42.2424L150.213 43.1179C150.726 43.4275 151.153 43.6731 151.537 43.9934C153.106 45.2532 153.843 47.3459 153.47 49.3318C153.139 51.307 151.783 53.09 149.968 53.8481C149.647 53.9869 149.423 54.2965 149.423 54.6702L149.348 92.8825L149.306 111.983L149.284 120.834C149.039 120.664 148.793 120.471 148.547 120.301C147.565 119.628 146.551 119.009 145.462 118.464C145.409 116.617 145.28 114.77 145.035 112.902C145.035 112.859 145.003 112.816 144.949 112.805C144.896 112.795 144.832 112.827 144.821 112.88C143.924 116.414 143.476 120.012 143.166 123.536C143.028 125.276 142.739 126.632 141.608 127.603C140.487 128.554 138.842 129.13 137.155 129.44C135.426 129.685 133.589 129.76 131.806 129.696C130.013 129.632 128.219 129.29 126.425 129.152C124.631 129.023 122.838 129.098 121.044 129.216C119.25 129.344 117.457 129.525 115.663 129.931C115.62 129.931 115.588 129.974 115.577 130.016C115.567 130.08 115.599 130.134 115.663 130.145C117.457 130.55 119.25 130.732 121.044 130.871C122.838 130.988 124.631 131.052 126.425 130.935C128.219 130.796 130.013 130.454 131.806 130.39C133.611 130.305 135.362 130.454 137.219 130.604C137.913 130.636 138.629 130.625 139.355 130.529C139.664 131.682 140.134 132.696 140.679 133.657C141.02 134.223 141.458 134.736 141.885 135.259C141.971 135.376 142.077 135.483 142.173 135.59C141.672 135.771 141.159 135.931 140.636 136.027C139.835 136.188 139.066 136.241 138.191 136.23H135.532L130.215 136.252L108.969 136.294L87.7217 136.337L77.0983 136.358H71.7812C70.0302 136.401 68.4394 136.22 66.8699 135.654C63.795 134.543 61.2539 131.981 60.4638 128.789C60.2396 128.009 60.1542 127.187 60.1221 126.365L60.1008 123.717L60.0688 118.4L59.9513 99.2138C60.325 99.5982 60.6667 100.004 60.9656 100.442C61.4995 101.242 61.8198 102.203 62.3002 103.047C62.7807 103.88 63.432 104.584 64.1046 105.278C64.6278 105.78 65.1723 106.271 65.7915 106.698C65.9197 108.759 66.1012 110.82 66.4321 112.891C66.4321 112.934 66.4749 112.976 66.5176 112.976C66.5816 112.976 66.635 112.944 66.6457 112.891C67.0514 110.35 67.2329 107.798 67.3717 105.257C67.4891 102.716 67.5532 100.164 67.4358 97.623C67.3076 95.0819 66.9553 92.5302 66.8912 89.9891C66.8058 87.448 66.9446 84.8962 67.1261 82.3551C67.329 79.8141 67.4998 77.2623 67.5425 74.7212C67.6173 72.1802 67.7027 69.6391 67.6813 67.0873C67.6279 64.5462 67.5639 61.9945 67.3931 59.4534L67.329 58.5032C67.297 58.2042 67.3076 57.8305 67.1688 57.3714C67.0194 56.9016 66.7097 56.56 66.5282 56.3571C66.3254 56.1436 66.2293 55.9941 66.1332 55.7485C65.7809 54.7449 65.909 53.421 66.4215 52.2893C66.4428 52.2465 66.4215 52.1932 66.3894 52.1611C66.3467 52.1184 66.272 52.1291 66.24 52.1611C65.8129 52.6523 65.4819 53.2608 65.279 53.9015C65.0762 54.5527 64.9374 55.2361 65.0762 56.0048C65.1296 56.3785 65.3218 56.8055 65.5139 57.0938C65.7061 57.3928 65.8022 57.5636 65.8129 57.7238C65.8342 57.8946 65.8129 58.1615 65.7809 58.4925L65.7168 59.4427C65.546 61.9838 65.4712 64.5249 65.4072 67.0766C65.3751 69.6177 65.4712 72.1695 65.546 74.7106C65.5994 77.2516 65.7595 79.8034 65.9624 82.3445C66.0264 83.1986 66.0798 84.0528 66.1225 84.8962C65.4926 83.6684 64.6918 82.59 63.827 81.5651C63.2611 80.9245 62.5992 80.3586 61.9479 79.7927C61.318 79.2162 60.6026 78.7037 59.8659 78.2339C59.8552 78.2339 59.8446 78.2232 59.8339 78.2125V75.8957L59.6097 54.6488C59.6097 54.5207 59.5349 54.4139 59.4282 54.3606C57.2394 53.453 55.6699 51.2322 55.4777 48.8406C55.3603 47.6555 55.5845 46.4277 56.1397 45.3707C56.7056 44.2923 57.5384 43.4489 58.6488 42.7762L58.6167 42.7976L68.7277 36.6904L58.4566 42.52L58.4245 42.5413C57.3889 43.1179 56.3853 44.0574 55.798 45.1678C55.1788 46.2889 54.9225 47.5915 55.0186 48.862C55.1788 51.3497 56.7162 53.7199 59.0118 54.809L58.7982 75.8743V77.4652C58.4566 77.2089 58.1363 76.9313 57.8587 76.611C57.2821 75.9811 56.8978 75.1376 56.3639 74.4543C55.8301 73.7603 55.1468 73.2372 54.4528 72.7247C54.1431 72.5218 53.8335 72.319 53.5025 72.1268L53.3851 54.8517V54.809C53.3851 54.2858 53.0755 53.8054 52.563 53.5918C50.3956 52.7056 48.8154 50.5062 48.5912 48.1039C48.4631 46.9081 48.6553 45.7017 49.1784 44.6447C49.7016 43.5877 50.545 42.6908 51.5807 42.0395H51.538C51.6021 42.0182 51.6661 41.9861 51.7302 41.9541H51.7195L81.8068 23.7074C86.8249 20.6645 91.8857 17.7071 96.9251 14.7069L100.705 12.4647C101.901 11.7708 103.278 11.3864 104.666 11.3544C106.054 11.333 107.442 11.6533 108.67 12.2939C109.897 12.9879 111.189 13.7673 112.439 14.504C122.528 20.4724 132.522 26.6222 142.536 32.7187L157.559 41.8687L158.029 42.157L158.402 42.4132C158.648 42.5947 158.883 42.7869 159.107 43.0004C159.545 43.4168 159.929 43.8973 160.217 44.4098C160.804 45.4454 161.061 46.6626 160.975 47.8691L160.986 47.9224ZM78.924 40.438C78.7212 39.9789 78.4969 39.5518 78.2514 39.1354C77.8243 38.4521 77.3545 37.8222 76.842 37.2349C76.3295 36.637 75.7744 36.0819 75.1551 35.5694C74.5465 35.0782 73.9059 34.5978 73.1051 34.2348L77.8136 31.5442C77.9951 32.3877 78.3048 33.1137 78.6464 33.8077C79.0201 34.523 79.4472 35.1957 79.9276 35.8256C80.4081 36.4555 80.9313 37.0534 81.5292 37.6086C81.8388 37.8862 82.1484 38.1638 82.4901 38.4201C81.2943 39.082 80.0985 39.7547 78.924 40.4487V40.438Z" fill="black"/>
<path d="M66.9989 118.593C66.9989 118.593 66.9775 118.518 66.9348 118.496C66.8814 118.475 66.8174 118.496 66.7853 118.55C66.102 120.023 65.8244 121.7 65.9846 123.376C66.1447 125.052 66.796 126.782 68.0132 128.042C68.6217 128.671 69.3584 129.163 70.1485 129.515C70.9386 129.867 71.7287 130.081 72.5295 130.252C73.3195 130.433 74.0989 130.561 74.889 130.689L76.0742 130.882L77.2486 131.02C78.8074 131.234 80.3769 131.383 81.9357 131.447C83.5052 131.533 85.064 131.597 86.6335 131.576C89.7725 131.479 92.9115 131.234 96.0398 130.54C96.0825 130.54 96.1145 130.497 96.1252 130.454C96.1359 130.39 96.1039 130.337 96.0398 130.326C92.9115 129.643 89.7939 129.397 86.6656 129.291C85.1067 129.269 83.5373 129.333 81.9784 129.419C80.4196 129.472 78.8501 129.632 77.2806 129.846C76.8856 129.889 76.4906 129.953 76.1062 129.974C75.7432 129.995 75.3375 129.985 74.9531 129.963C74.1844 129.931 73.4156 129.803 72.7003 129.579C71.2162 129.131 70.1272 128.063 69.3798 126.899C68.5897 125.746 67.9811 124.497 67.6181 123.087C67.2444 121.678 67.1163 120.173 66.9989 118.582V118.593Z" fill="black"/>
<path d="M144.565 103.932C145.013 101.071 145.237 98.2096 145.398 95.3482C145.568 92.4868 145.611 89.6254 145.632 86.764C145.611 83.9026 145.568 81.0412 145.398 78.1799C145.237 75.3185 145.013 72.4571 144.565 69.5957C144.127 72.4571 143.892 75.3185 143.732 78.1799C143.561 81.0412 143.518 83.9026 143.497 86.764C143.518 89.6254 143.561 92.4868 143.732 95.3482C143.892 98.2096 144.116 101.071 144.565 103.932Z" fill="black"/>
<path d="M73.5003 80.0166C73.5537 80.4436 73.7886 80.8921 73.9808 81.0629L74.5466 81.5754C74.8563 81.8637 74.9951 81.9704 75.2833 82.1092C75.8492 82.3655 75.9346 82.3975 76.3937 82.3334C76.7354 82.3014 76.7888 82.3014 77.1625 82.1092C77.4507 81.9704 77.5895 81.853 77.8137 81.6288C78.102 81.3405 78.2088 81.1697 78.4437 80.5824L78.6145 80.2728C78.6465 80.2194 78.6679 80.07 78.6999 79.9312C78.6999 79.7924 78.7853 79.4721 78.8708 79.2478L79.0416 78.5966C79.0416 78.4578 79.095 78.2869 79.127 78.2015C79.159 78.1161 79.1804 77.9453 79.1804 77.8278C79.1804 77.689 79.2124 77.5182 79.2338 77.4328C79.2658 77.3474 79.2871 77.1445 79.2871 77.0057C79.2871 76.8669 79.3192 76.6961 79.3405 76.632C79.3726 76.4932 79.4259 76.1195 79.4793 75.5537C79.5114 75.4149 79.5327 75.1586 79.5968 74.9878C79.6288 74.849 79.6822 74.5607 79.6822 74.3579L79.7996 73.7279C79.8317 73.5891 79.853 73.3542 79.853 73.2688C79.853 73.1514 79.885 72.8738 79.9064 72.6389L80.0238 71.8381C80.0772 71.379 80.1947 70.5889 80.3121 70.0444L80.3655 69.5319C80.3655 69.4465 80.4189 69.3077 80.483 69.1583L80.5684 68.902L80.5363 69.3611C80.4829 70.0765 80.5043 70.2473 80.6217 70.5783C80.6751 70.7491 80.7072 70.952 80.7072 71.0908C80.7072 71.2082 80.7392 71.4004 80.7926 71.5712C80.91 72.0303 80.9314 72.3079 80.8246 72.7136C80.7392 73.0873 80.7072 73.792 80.7926 74.0803C80.846 74.3685 80.91 75.0732 80.878 75.3615C80.846 75.5003 80.846 75.6711 80.878 75.8206C80.9314 76.2477 80.9954 76.9523 80.9954 77.5823V78.2656L81.1342 78.5539C81.2517 78.7781 81.273 78.8955 81.3051 79.2051C81.3584 79.6642 81.4225 79.8564 81.6467 80.1981L81.9563 80.6785C82.0097 80.796 82.1592 80.9882 82.298 81.159C82.5009 81.3832 82.5543 81.4473 82.9279 81.6181C83.6433 81.9918 84.2305 82.0131 84.8284 81.7035C85.1701 81.5647 85.4263 81.3298 85.7039 80.9348C85.9281 80.6252 86.0135 80.4223 86.0989 80.0272L86.2164 79.5148C86.3338 79.0557 86.3872 78.6393 86.4193 78.4364C86.4193 78.319 86.4513 78.0948 86.4726 77.956C86.4726 77.8172 86.5047 77.6677 86.4726 77.6463C86.4406 77.5609 86.3872 77.5289 86.3018 77.5609C86.1844 77.5929 85.9388 78.1268 85.9388 78.3617C85.9388 78.4151 85.9068 78.5645 85.8534 78.7354L85.6505 79.2799C85.5971 79.4507 85.4477 79.739 85.3623 79.8778C85.2768 80.0806 85.2235 80.2194 85.2235 80.3048C85.2235 80.4223 85.1914 80.4757 84.9672 80.6999L84.711 80.9561L84.4227 80.9882C84.1664 81.0202 84.1344 81.0202 83.9956 80.9027C83.7714 80.7319 83.7073 80.5931 83.7073 80.0806C83.7073 79.8564 83.7394 79.5361 83.7394 79.3973C83.7928 79.109 83.7714 78.682 83.6219 78.351C83.5685 78.1268 83.5685 78.0627 83.5899 77.7531L83.6753 76.9523C83.7287 76.4932 83.7287 76.5573 83.7073 75.1586C83.7073 74.5928 83.7073 74.0803 83.7394 73.9415C83.7714 73.6852 83.7714 73.5144 83.654 72.9806C83.6006 72.6923 83.6006 72.6389 83.654 72.3506C83.7394 71.9236 83.7394 71.6673 83.6219 71.3577C83.3977 70.7918 83.3977 70.7277 83.3977 70.1619C83.3977 69.7348 83.3657 69.596 83.3123 69.4252C83.2589 69.3077 83.1949 69.0835 83.1949 68.9447C83.1628 68.8059 83.0774 68.571 83.024 68.4322C82.9706 68.2614 82.9066 68.0585 82.8852 67.8343C82.8319 67.3539 82.7144 67.119 82.2553 66.7026C81.8069 66.2435 81.54 66.1367 81.1769 66.1367C81.0381 66.1367 80.8887 66.1367 80.8353 66.1901C80.5257 66.3609 80.3228 66.6492 80.2694 67.1297C80.216 67.6955 80.184 67.9304 80.0666 68.1226C80.0132 68.208 79.9811 68.3468 79.9811 68.4109C79.9811 68.4749 79.9278 68.6671 79.8957 68.87C79.7783 69.2437 79.6929 69.6387 79.6395 70.0338C79.6395 70.1726 79.6074 70.322 79.5861 70.3754C79.5541 70.4074 79.5327 70.5142 79.5327 70.5996C79.5327 70.685 79.5007 70.8238 79.4793 70.9093L79.3939 71.3897L79.2765 72.0196L79.159 72.735C79.0736 73.3863 79.0202 73.8133 78.9562 73.9842C78.9241 74.0696 78.9028 74.2404 78.8708 74.3792C78.8708 74.518 78.8174 74.7529 78.7853 74.8597C78.7533 74.9771 78.732 75.2547 78.6679 75.511L78.5825 76.2263C78.5505 76.4505 78.465 76.8242 78.3796 77.1872L78.2622 77.6463C78.2622 77.7638 78.2088 77.9559 78.1768 78.0414L78.0593 78.4684C77.9205 79.0343 77.6109 79.6642 77.1731 80.4009C77.0023 80.6892 76.9703 80.7106 76.7461 80.8814C76.4364 81.1056 76.2122 81.1376 76.0307 80.9348C75.7425 80.6252 75.7211 80.5931 75.7211 80.0272C75.6997 79.4365 75.7389 79.0272 75.8385 78.7994C76.0948 78.2656 76.0414 77.8599 75.6143 77.294C75.3047 76.8669 74.963 76.6427 74.5893 76.6427C74.3011 76.6427 74.1089 76.7601 73.8527 77.0377C73.5964 77.294 73.3188 77.8065 73.1373 78.2549C73.0199 78.5966 73.0519 78.9702 73.2547 79.3866L73.4576 80.0166H73.5003Z" fill="black"/>
<path d="M87.4872 80.1028C87.5405 80.2202 87.658 80.4124 87.69 80.5619C87.8075 80.8181 88.2345 81.448 88.4267 81.6402C88.4801 81.6936 88.6296 81.7577 88.7363 81.779C88.9392 81.8324 88.9926 81.8324 89.3876 81.779C89.6759 81.747 89.8681 81.6936 90.0176 81.6082C90.2204 81.5228 90.5621 81.1491 90.6689 80.9249L90.8397 80.6366C90.8931 80.5832 91.0105 80.3804 91.0959 80.2095C91.3522 79.6116 91.3201 79.8679 91.9501 78.5012L92.2277 77.85C92.3665 77.5937 92.3985 77.5617 92.3985 77.6471C92.3985 77.85 92.4839 78.1276 92.6227 78.2984C92.7081 78.4158 92.7615 78.5867 92.7935 78.7575C92.8469 78.8963 92.911 79.0991 92.9323 79.2166L93.1032 79.6757C93.242 80.1028 93.8719 80.722 94.2669 80.8074C94.4911 80.8608 94.694 80.8074 95.1424 80.5192C95.7083 80.1455 96.2208 79.697 96.445 79.3554L96.8187 78.7895L97.0216 78.4158C97.0536 78.3304 97.139 78.1916 97.1924 78.0742C97.2778 77.9888 97.3312 77.8713 97.3312 77.8179C97.3312 77.7859 97.3846 77.6151 97.502 77.4442C97.5127 77.4229 97.5234 77.4015 97.534 77.3909C97.5554 77.882 97.5981 78.245 97.6515 78.4479L97.7903 78.8749C97.8437 78.9924 97.9291 79.1846 98.0145 79.27L98.2707 79.6116C98.4416 79.8145 98.8686 80.1775 99.0929 80.2629C99.1783 80.2949 99.3811 80.3163 99.5199 80.3483C99.7441 80.3804 99.8296 80.3483 100.032 80.2949C100.427 80.1241 100.577 80.0387 100.887 79.7611C101.484 79.2166 101.399 79.1632 101.794 78.2877C101.847 78.1703 101.933 77.946 101.933 77.8286C101.965 77.7112 102.018 77.5724 102.05 77.5403C102.104 77.4869 102.104 77.5083 102.136 77.5937C102.168 77.7325 102.104 80.8288 102.104 80.8074C101.986 80.9249 101.794 81.1491 101.645 81.3199C101.591 81.4053 101.335 81.6936 101.079 81.9712C100.823 82.2274 100.566 82.5371 100.513 82.6225C100.481 82.7079 100.374 82.8467 100.31 82.9321C100.225 83.0175 100.171 83.1029 100.171 83.135C100.171 83.167 100.086 83.2738 99.9684 83.4233L99.6587 83.8183L99.3171 84.4696C98.922 85.2703 98.8686 85.1849 98.6871 86.0604C98.6338 86.4875 98.6551 86.7971 98.8259 87.2028C98.9434 87.4911 99.285 87.8541 99.6801 88.0783L99.9897 88.2812C100.876 88.3132 101.186 88.3666 101.463 88.1958C101.516 88.1424 101.666 88.0783 101.773 88.057C102.05 87.9716 102.285 87.8328 102.371 87.6833C102.488 87.5125 102.883 87.0854 103.054 86.8292L103.364 86.4021C103.652 86.0925 103.844 85.6013 103.929 85.0675C104.015 84.555 104.218 83.7649 104.389 83.3378C104.474 83.0816 104.474 83.0282 104.442 82.804C104.41 82.2915 104.41 82.0032 104.527 81.6936C104.613 81.352 104.645 80.9783 104.527 80.7327C104.474 80.5619 104.474 80.5085 104.527 80.1882L104.581 79.7611C104.581 79.7611 104.837 79.5049 105.147 79.2807C105.51 78.9817 106.791 77.7539 107.528 77.0065C107.624 77.4336 107.784 77.9033 107.901 78.1703C108.104 78.5119 108.414 79.0244 108.531 79.1098C108.649 79.2486 109.161 79.5689 109.439 79.7077C109.556 79.7611 109.802 79.8465 110.005 79.9106C110.346 80.028 110.378 80.028 110.741 79.964C111.531 79.8786 112.076 79.7077 112.706 79.334L113.389 78.8749C113.56 78.7895 113.816 78.5653 113.987 78.4158C114.265 78.1276 114.297 78.1062 114.702 77.5937C114.841 77.4229 115.012 77.1987 115.129 77.1133C115.236 76.9958 115.407 76.793 115.567 76.6008C115.589 76.8463 115.503 76.9958 115.439 77.9567C115.407 78.4372 115.407 78.5226 115.471 78.7788C115.503 79.0031 115.524 79.0885 115.471 79.3447C115.439 79.601 115.439 79.6864 115.524 80.028L115.578 80.5939C115.578 80.7113 115.631 80.9035 115.695 81.0744C115.749 81.2986 115.813 81.5335 115.834 81.8751C115.866 82.2702 115.866 82.3876 115.973 82.6118C116.058 82.7826 116.112 82.9535 116.144 83.1777C116.176 83.466 116.197 83.5514 116.368 83.893C116.485 84.1493 116.592 84.2881 116.71 84.3735C116.848 84.4909 116.88 84.4909 117.169 84.4909C117.425 84.4909 117.478 84.4909 117.617 84.3735C117.703 84.3201 117.873 84.1493 117.959 83.9998C118.13 83.7436 118.162 83.7115 118.183 83.3699C118.236 82.6545 118.322 82.0032 118.386 81.779C118.471 81.4053 118.503 80.4124 118.439 80.1348C118.407 79.9106 118.407 79.8465 118.471 79.6543C118.525 79.4301 118.557 78.7682 118.525 77.2093C118.525 76.526 118.525 76.4727 118.642 76.131C118.781 75.6505 119.037 75.106 119.208 74.8818C119.293 74.7964 119.411 74.6256 119.464 74.5401C119.518 74.4227 119.688 74.1665 119.891 73.9743C120.169 73.6646 120.254 73.5792 120.489 73.4938C120.799 73.355 120.938 73.323 121.205 73.4404C121.429 73.5258 121.632 73.8355 121.738 74.2626L121.941 74.8925C122.112 75.3729 122.112 75.8641 121.973 76.1951C121.92 76.3339 121.834 76.6755 121.77 76.9958C121.717 77.2841 121.632 77.5617 121.6 77.6257C121.568 77.6791 121.461 77.85 121.322 77.9994L121.066 78.2877C120.553 78.2877 120.468 78.2877 120.212 78.1703C119.987 78.0528 119.785 77.8606 119.785 77.6898C119.785 77.519 119.699 77.3161 119.592 77.2627C119.389 77.2093 119.165 77.3481 119.026 77.6364C118.909 77.8927 118.909 78.0101 119.026 78.3197C119.251 78.8643 119.881 79.4301 120.5 79.6223L120.895 79.7931C121.012 79.8786 121.098 79.8785 121.546 79.9106C122.176 79.9106 122.4 79.8786 122.827 79.6223C123.254 79.3981 123.543 79.0778 123.852 78.5439C124.194 78.0101 124.333 77.6685 124.386 77.3268C124.44 76.9531 124.557 76.5901 124.61 75.7359C124.61 75.4797 124.61 75.4263 124.525 75.2235C124.472 75.106 124.408 74.9138 124.408 74.7964C124.354 74.4227 124.269 74.1985 124.098 73.9743C124.013 73.8568 123.874 73.6326 123.788 73.4618C123.65 73.2055 123.564 73.0881 123.19 72.7464C122.39 72.0097 122.336 72.2019 121.685 72.0097C121.29 71.8923 121.119 71.9243 120.745 72.0952C120.575 72.1806 120.436 72.234 120.404 72.234C120.35 72.234 120.233 72.3514 120.094 72.4582L119.72 72.8319C119.603 72.9173 119.496 73.0561 119.432 73.1415C119.261 73.4298 119.058 73.654 118.898 73.9956L118.728 74.2839C118.589 74.4547 118.589 74.1665 118.695 73.5152C118.813 73.0347 118.813 73.0027 118.781 72.4368C118.728 71.7855 118.663 71.5293 118.386 71.0702C118.098 70.5363 117.671 70.3335 117.222 70.5043C116.934 70.5897 116.795 70.7606 116.592 71.1556L116.368 71.5827C116.229 71.7215 116.112 72.0418 116.112 72.3728C116.112 72.5756 116.08 72.8319 116.058 72.9386L116.005 73.3123C116.005 73.4298 115.92 73.686 115.866 73.8782C115.695 74.5081 115.471 75.5224 115.471 75.8427C115.471 75.8747 115.471 75.9068 115.471 75.9495C115.279 76.0883 114.991 76.3552 114.521 76.8143C114.382 76.9318 114.265 77.0385 114.233 77.0385C114.201 77.0385 114.062 77.156 113.923 77.2948C113.41 77.7752 113.015 78.1489 112.845 78.2557L112.535 78.4799C112.311 78.6827 111.627 78.907 111.254 78.907C111.136 78.907 110.997 78.8749 110.773 78.7682C110.4 78.5653 110.143 78.2877 110.09 77.9994L109.973 77.6257C109.887 77.4549 109.887 77.3375 109.855 76.9104V76.3125C109.823 76.1096 110.058 75.8641 110.506 75.5758C111.104 75.1808 111.104 75.1167 111.531 74.8071C111.67 74.7216 111.82 74.5829 111.841 74.5188C111.894 74.4334 111.98 74.348 112.065 74.2626C112.268 74.1238 112.321 74.0597 112.492 73.7821C112.834 73.2696 112.663 73.8355 113.378 72.3087C113.41 72.2233 113.496 72.0204 113.517 71.8816L113.635 71.3691C113.688 71.1983 113.72 70.91 113.72 70.6538C113.72 70.2587 113.72 70.2267 113.603 70.0559C113.464 69.853 112.973 69.458 112.716 69.3192C112.546 69.2338 112.375 69.2338 112.065 69.2658C111.862 69.2978 111.328 69.4687 111.008 69.6395C110.869 69.7249 110.613 69.8103 110.474 69.8637C110.165 69.9491 109.62 70.2908 109.428 70.4936C109.343 70.579 109.225 70.7179 109.172 70.8673C108.883 71.3798 108.456 71.7215 108.371 72.2019C108.339 72.2873 108.254 72.4582 108.168 72.597C108.083 72.7358 107.965 72.992 107.912 73.1415C107.88 73.2803 107.773 73.4831 107.709 73.5899C107.57 73.8141 107.282 74.8711 107.25 75.2982C107.229 75.5651 107.271 75.7039 107.335 76.0669C107.239 76.1417 107.132 76.2378 106.962 76.3766L106.513 76.7502C106.257 76.9531 106.001 77.1239 105.862 77.2627C105.777 77.3481 105.659 77.4336 105.584 77.4656C105.36 77.583 105.243 77.6898 105.157 77.8606C105.104 77.946 105.072 77.9994 105.04 77.9994L104.837 78.1382C104.72 78.2557 104.666 78.277 104.634 78.2557C104.602 78.2236 104.581 77.946 104.581 77.4869C104.581 76.9424 104.549 76.7182 104.495 76.5794C104.463 76.462 104.442 76.2698 104.442 76.0669C104.442 75.8641 104.442 75.6719 104.41 75.5544C104.378 75.469 104.357 75.1594 104.324 74.8711C104.292 74.3907 104.292 74.3266 104.122 74.017C104.036 73.8141 103.951 73.6219 103.951 73.5365C103.897 73.2803 103.748 73.0774 103.438 72.9707C103.214 72.8852 103.129 72.8852 102.958 72.8852C102.808 72.9066 102.712 72.8781 102.67 72.7998C102.584 72.629 101.901 72.0631 101.698 71.9777C101.474 71.9243 101.186 71.9243 100.961 71.9777C100.876 72.0097 100.652 72.0311 100.481 72.0631C100.171 72.0952 100.032 72.1485 99.3705 72.5222C98.7725 72.8639 98.7405 72.8639 98.2921 73.6646C98.1533 73.9209 97.9825 74.2305 97.8971 74.348C97.7262 74.5722 97.6942 74.6362 97.5234 75.2555C97.4486 75.5011 97.438 75.5972 97.438 76.1203C97.3312 76.2484 97.2137 76.4193 97.0322 76.6755C96.6906 77.2414 96.5518 77.4442 96.2955 77.7218C96.2101 77.8073 96.0927 77.9781 96.0713 78.0635C96.0393 78.1489 95.9539 78.2877 95.8685 78.3518C95.783 78.4372 95.6656 78.608 95.5802 78.7468C95.4627 78.8856 95.3239 79.0351 95.2172 79.0885L94.9075 79.3127C94.7367 79.4515 94.6193 79.4301 94.5125 79.3127C94.4271 79.1952 94.4271 79.1739 94.4591 78.8002L94.5125 78.0635C94.5125 77.8606 94.5445 77.6685 94.5445 77.6044C94.5766 77.519 94.5979 77.3481 94.63 77.2093C94.63 77.0385 94.6833 76.7823 94.7474 76.6114C94.8008 76.4086 94.8328 76.1523 94.8648 75.9815C94.9182 75.2448 95.0036 75.3836 94.9823 74.4761C94.9289 73.9316 94.9289 73.8782 94.7794 73.6219C94.4912 72.992 94.2669 72.7678 93.9573 72.6824C93.669 72.629 93.3914 72.7358 93.0178 73.1415C92.6227 73.5152 92.5373 73.7394 92.5053 74.5081C92.4732 74.8818 92.4519 75.0526 92.3878 75.2235C92.3344 75.3409 92.2704 75.5651 92.217 75.7039C92.0995 76.1844 92.0782 76.2698 91.9607 76.5047C91.9074 76.6221 91.8433 76.7609 91.8433 76.793C91.8433 76.825 91.7899 76.9638 91.7045 77.1026C91.6191 77.2414 91.5337 77.4122 91.5337 77.4442C91.5337 77.4976 91.4803 77.6471 91.3949 77.7859C91.0853 78.245 90.9678 78.4692 90.797 78.7468C90.5941 79.1205 90.1137 79.633 90.0603 79.5476C89.9749 79.4301 89.9749 79.0671 90.0603 78.8322C90.0923 78.7468 90.1991 77.9567 90.2631 77.4122C90.2952 77.2948 90.3485 77.0385 90.3806 76.8463C90.434 76.6435 90.498 76.2484 90.5194 75.9922C90.5514 75.6185 90.5728 75.4477 90.6582 75.2235C90.8824 74.6256 90.9464 74.2305 90.797 73.718C90.7436 73.5792 90.7116 73.323 90.7116 73.2055C90.7116 72.8959 90.5941 72.6076 90.4019 72.4368C90.1457 72.2126 90.0282 72.1806 89.6332 72.1485C89.3236 72.1485 89.2702 72.1485 89.0673 72.234C88.6723 72.4368 88.2132 72.9173 87.9249 73.4511C87.7861 73.6753 87.7541 73.7928 87.5299 74.8711C87.4765 75.0953 87.3911 75.3516 87.327 75.469C87.1241 75.8427 87.1028 75.9815 87.0708 76.494L86.9854 77.2948C86.9854 77.551 86.9854 77.8073 87.0387 78.1489C87.1775 79.4515 87.1241 79.6543 87.4017 80.1134L87.4872 80.1028ZM102.018 82.409C101.986 82.5264 101.965 82.7506 101.965 82.9214C101.965 83.0923 101.912 83.3165 101.847 83.466C101.815 83.6048 101.762 83.7542 101.762 83.8076C101.762 83.9251 101.645 84.3735 101.474 84.95C101.356 85.3237 101.303 85.4091 101.186 85.5479C101.1 85.6334 100.961 85.8042 100.876 85.9216C100.652 86.2953 100.31 86.637 100.193 86.637C100.054 86.637 99.8829 86.4982 99.7975 86.2633C99.6587 85.8682 99.7121 85.612 100.107 84.8112C100.395 84.2454 100.556 83.9357 100.822 83.6475L101.186 83.1884C101.388 82.9001 102.04 82.1954 102.072 82.1954C102.104 82.2275 102.072 82.3129 102.018 82.4196V82.409ZM110.688 73.9956C110.773 73.5365 110.976 73.1201 111.147 72.8639C111.318 72.6397 111.457 72.3194 111.457 72.1806C111.457 72.0418 111.627 71.8389 111.83 71.7215C112.087 71.5506 112.257 71.3798 112.482 71.0702C112.652 70.846 112.77 70.8139 112.823 70.9527C112.855 70.9848 112.855 71.1236 112.855 71.2944C112.855 71.5186 112.802 71.604 112.567 72.0952C112.311 72.629 112.033 73.0347 111.627 73.4298C110.859 74.1665 110.72 74.3159 110.656 74.3159C110.592 74.3159 110.602 74.3159 110.688 74.0063V73.9956ZM99.8296 77.3482C99.7762 77.1239 99.7762 77.0919 99.8616 76.9531C99.979 76.7823 100.118 76.2698 100.321 75.4797C100.406 75.1381 100.438 75.0206 100.577 74.8284C101.004 74.2305 101.175 74.1451 101.378 74.3693C101.602 74.6576 101.922 74.9032 102.061 74.9992C102.435 75.2021 102.435 75.3943 102.061 76.0456L101.944 76.2698C101.773 76.6435 101.516 77.0705 101.399 77.2093C101.346 77.2948 101.282 77.3802 101.282 77.4122C101.282 77.4442 101.143 77.583 100.993 77.7218C100.855 77.8606 100.63 78.1169 100.481 78.2877C100.278 78.5973 100.203 78.6614 100 78.7682C99.8296 78.8536 99.7975 78.8215 99.7441 78.4799C99.7121 78.2236 99.7121 78.1382 99.7975 77.882C99.8509 77.6257 99.8509 77.5724 99.8296 77.3482Z" fill="black"/>
<path d="M125.785 78.6292L125.924 79.0883C125.956 79.1737 125.977 79.3445 126.009 79.4833C126.063 79.9104 126.607 80.6151 127.056 80.8713C127.141 80.9033 127.28 81.0101 127.397 81.0955C127.533 81.188 127.75 81.2343 128.049 81.2343C128.614 81.2343 128.646 81.2023 129.159 80.7539C129.639 80.2947 129.671 80.2734 129.842 79.8784C129.981 79.5367 129.981 79.5047 129.981 78.8534C129.981 78.2555 129.949 77.9672 129.896 77.6255C129.842 77.4227 129.501 76.6646 129.383 76.5152C129.33 76.4297 129.298 76.3443 129.298 76.3123C129.33 76.2589 129.437 76.1949 129.554 76.1735C129.671 76.1415 129.778 76.0561 129.81 76.0347C129.842 76.0027 129.949 75.9493 130.066 75.8959C130.152 75.8425 130.323 75.7251 130.44 75.6076C130.526 75.5222 130.643 75.4368 130.643 75.4368C130.675 75.4368 130.846 75.298 131.038 75.1272C131.241 74.9243 131.38 74.8175 131.401 74.8175L131.348 75.1272C131.294 75.3514 131.294 75.6076 131.294 76.0881C131.294 76.686 131.294 76.7714 131.177 77.0276C131.091 77.2839 131.091 77.4013 131.123 77.5935C131.123 77.7643 131.123 77.9672 131.07 78.1914C131.017 78.4477 131.017 78.5331 131.102 78.7573C131.134 78.8961 131.156 79.1844 131.156 79.3872C131.123 80.0705 131.209 81.2023 131.273 81.4051C131.305 81.576 131.39 81.7148 131.583 81.9176C131.7 82.0564 131.871 82.2913 131.924 82.4301C132.01 82.633 132.042 82.6543 132.437 82.8572C132.917 83.0814 133.462 83.1988 133.803 83.1134C134.028 83.06 134.54 82.8892 134.625 82.8252C134.796 82.7077 135.736 81.7788 135.992 81.4372C136.387 80.8927 136.9 79.9851 137.017 79.5901C137.049 79.5047 137.07 79.3872 137.102 79.3872C137.156 79.3338 137.444 78.7359 137.498 78.5117C137.53 78.3943 137.551 78.2555 137.615 78.1701C137.732 77.9459 137.871 77.2305 137.903 76.7821C137.957 76.3016 137.871 76.0988 137.679 76.0454C137.508 75.992 137.391 76.0774 137.284 76.355L136.974 77.2092C136.857 77.5508 136.75 77.9459 136.718 78.0847C136.686 78.2875 136.601 78.5438 136.494 78.8C136.376 79.0242 136.27 79.2805 136.238 79.3979C136.206 79.4833 136.12 79.6541 136.035 79.7716C135.981 79.889 135.917 79.9958 135.917 80.0278C135.917 80.1666 135.149 81.1062 134.636 81.6187C134.433 81.7895 134.07 81.9603 133.782 81.9924C133.633 82.0137 133.508 81.9746 133.408 81.8749C133.323 81.7361 133.291 81.6507 133.27 81.3091C133.237 81.0848 133.216 80.7645 133.152 80.6257C133.12 80.4549 133.099 80.1987 133.099 79.9745C133.099 78.437 133.099 78.2448 133.152 77.9886C133.184 77.8177 133.237 77.444 133.237 77.1344C133.27 76.7073 133.291 76.5045 133.408 76.1415C133.547 75.661 133.611 75.1485 133.611 74.7215C133.611 74.5827 133.665 74.3478 133.729 74.1876C133.846 73.7926 133.867 73.3014 133.782 72.853C133.643 72.1163 133.408 71.8601 132.874 71.8601C132.65 71.8601 132.565 71.8601 132.415 71.9775C132.191 72.1163 131.967 72.522 131.882 72.8317C131.828 73.0345 131.657 73.4616 131.54 73.7926C131.454 73.9314 130.995 74.3584 130.429 74.7535C130.205 74.9563 129.437 75.298 128.977 75.4368C128.465 75.6076 128.444 75.6076 128.348 75.7464C128.209 75.9706 128.23 76.2269 128.401 76.4618C128.796 76.9956 128.913 77.2519 129.031 77.8498C129.084 78.2768 129.063 79.0456 128.977 79.2164C128.892 79.3552 128.636 79.6969 128.529 79.7823C128.444 79.8997 128.155 79.8997 128.017 79.7823C127.878 79.6435 127.675 78.9815 127.675 78.6398V78.0419C127.675 77.3052 127.707 77.1664 127.76 76.9102L127.878 76.3443C127.878 76.1415 127.931 75.8105 127.995 75.6076C128.166 74.8923 128.283 74.273 128.305 73.8139C128.305 73.4189 128.337 73.3014 128.444 73.1306C128.668 72.7356 128.646 72.4153 128.39 71.8494C128.166 71.3049 127.824 71.0807 127.451 71.1661C127.077 71.2515 126.767 71.6252 126.34 72.5007C126.287 72.6395 126.223 72.8423 126.223 73.0132C126.191 73.216 126.137 73.3869 125.999 73.6645C125.885 73.9136 125.828 74.1983 125.828 74.5186C125.828 74.8282 125.828 75.0631 125.774 75.1699C125.742 75.2553 125.721 75.4582 125.721 75.5649C125.721 75.7037 125.689 75.8746 125.668 75.992C125.614 76.1094 125.582 76.4191 125.582 76.9849C125.55 77.7537 125.55 77.8391 125.636 78.0633C125.689 78.1807 125.753 78.437 125.806 78.6292H125.785Z" fill="black"/>
<path d="M100.448 93.0638C100.395 92.925 100.33 92.8076 100.33 92.7756C100.33 92.7435 100.277 92.6047 100.192 92.4339C99.9888 92.0068 99.4763 91.6332 99.0279 91.4944C98.9745 91.4944 98.9105 91.441 98.8891 91.3769C98.7503 91.0032 98.6863 90.9178 98.43 90.7256L98.0029 90.416C97.7787 90.3306 97.4371 90.3306 97.0634 90.448L96.5296 90.5868C96.3053 90.6402 96.2199 90.7043 96.0491 90.8751C95.622 91.3022 95.3124 91.6972 95.1629 92.0068C95.0775 92.1777 94.9067 92.4339 94.8213 92.5727C94.5116 92.9678 94.3088 93.3415 94.1913 93.7045C94.0739 93.9927 94.0739 94.0781 94.0525 94.7828C94.0312 95.4875 94.0525 95.6583 94.1166 96.0854L93.9031 96.5658C93.8176 96.7367 93.7643 96.9075 93.7643 96.9395C93.7643 96.9716 93.6788 97.1424 93.5934 97.3132L92.8247 98.9361C92.6005 99.4165 92.3656 99.8436 92.2268 100.046C92.1414 100.185 92.056 100.303 92.056 100.335C92.056 100.42 91.8531 100.623 91.6609 100.73C91.4687 100.844 91.2908 100.861 91.1271 100.783C90.9563 100.698 90.732 100.442 90.668 100.239C90.636 100.185 90.668 99.865 90.7214 99.5554C90.8068 98.7866 90.8388 98.6692 90.9456 98.3916C90.999 98.2528 91.031 98.0499 91.063 97.9325C91.063 97.7616 91.1164 97.6762 91.2339 97.5374C91.3727 97.3666 91.5221 97.057 91.5221 96.8861C91.5221 96.8007 91.725 96.0854 91.8318 95.8612C91.8638 95.7437 91.9492 95.5729 91.9705 95.4341L92.1414 94.7828C92.1948 94.58 92.2802 94.2169 92.3122 93.9927C92.3442 93.619 92.3442 93.5977 92.2268 93.0852C92.088 92.5193 91.9706 92.2631 91.693 91.9748C91.3833 91.6652 90.9776 91.5157 90.4651 91.5157C90.1235 91.5157 90.0701 91.5477 89.8672 91.6332C89.7284 91.7186 89.5576 91.8574 89.4081 92.0282L88.8743 92.5727C88.618 92.829 88.5647 92.9144 88.3298 93.4269C88.1055 93.9073 88.0735 94.0248 88.0735 94.249C88.0735 94.3878 88.0415 94.6227 88.0201 94.7615C87.9667 94.9857 87.9667 95.0177 88.0522 95.1565C88.223 95.4982 88.6501 95.5302 88.8423 95.1885L89.1519 94.7294C89.2373 94.5586 89.3547 94.4198 89.3547 94.3878C89.3547 94.249 90.0701 93.5336 90.1769 93.5336C90.2089 93.5336 90.2623 93.619 90.3156 93.7045C90.4544 94.0461 90.369 94.3557 89.7498 95.6049C89.5256 96.0854 89.3013 96.6299 89.2693 96.8007L89.0985 97.3453C88.8102 98.2528 88.7889 98.3702 88.7568 99.1069L88.7248 99.8223L88.8636 100.303C88.949 100.591 89.0665 100.901 89.1198 101.018C89.2373 101.274 89.5149 101.531 89.8565 101.669L90.2196 101.84C90.3584 101.926 91.1591 102.011 91.4687 101.979C91.725 101.947 92.4297 101.605 92.5151 101.467C92.5471 101.413 92.6859 101.296 92.8033 101.21C92.9208 101.125 93.0596 100.986 93.113 100.901C93.1664 100.783 93.2838 100.644 93.3372 100.591C93.476 100.42 93.7963 99.8543 93.8176 99.6514C93.8497 99.5126 94.0205 99.1069 94.1913 98.6799C94.2767 98.509 94.2767 98.3916 94.2767 98.114C94.2767 97.9965 94.2874 97.815 94.3195 97.6762C94.4049 97.9538 94.6931 98.2848 95.1309 99.0429C95.6754 99.897 95.8462 100.068 96.4655 100.26C96.8072 100.377 96.9246 100.399 97.2342 100.399C97.4371 100.399 97.7147 100.367 97.8321 100.345L98.1738 100.292C98.3446 100.26 98.7397 100.036 98.9745 99.8329C99.2308 99.6301 99.6045 99.1176 99.8287 98.7546C100.277 97.9004 100.224 97.6762 100.512 96.9609C100.565 96.7901 100.629 96.5658 100.651 96.4164L100.736 95.9359C100.79 95.6797 100.822 95.1458 100.79 94.4625C100.79 94.1209 100.587 93.3308 100.416 93.0425L100.448 93.0638ZM99.1988 96.4484L99.0813 96.9609C99.0813 97.0463 99.0493 97.1851 98.9959 97.2492L98.8784 97.6228C98.8251 97.8257 98.7397 97.9325 98.5902 98.082C98.5048 98.1994 98.3873 98.3062 98.366 98.3702C98.3126 98.4877 97.9923 98.6265 97.8855 98.5944C97.8321 98.5944 97.7147 98.509 97.6293 98.3916L97.4584 98.2207L97.373 97.6549C97.341 97.2812 97.3196 96.9182 97.3196 96.5765C97.3196 96.2669 97.3196 95.9252 97.2876 95.7544C97.2556 95.4982 97.2556 95.4128 97.373 95.1565C97.4264 95.0177 97.4905 94.6974 97.5118 94.5266C97.5972 94.0995 97.6506 93.9607 97.8535 93.6404C98.0243 93.3521 98.1417 93.0745 98.1951 92.7649C98.2272 92.3912 98.2805 92.3912 98.4193 92.7115L98.5902 93.0852C98.793 93.3948 98.9852 93.8539 98.9852 93.9073L99.1027 94.4198C99.2201 94.8148 99.2201 94.9323 99.2201 95.3594C99.1881 95.6476 99.2201 95.9252 99.2201 96.0106C99.2521 96.064 99.2201 96.2669 99.1881 96.4698L99.1988 96.4484Z" fill="black"/>
<path d="M121.535 95.5095C121.418 95.5095 121.365 95.5415 121.14 95.7978C120.938 96.0006 120.831 96.1715 120.628 96.6199L120.233 97.4207L120.062 97.7623L119.806 98.1574C119.72 98.2962 119.55 98.5524 119.432 98.6912L119.037 99.2357C118.813 99.524 118.503 99.8336 118.439 99.8336C118.407 99.8336 118.386 99.7482 118.354 99.5453C118.354 99.3745 118.3 99.1717 118.268 99.0649C118.236 98.9474 118.215 98.6912 118.215 98.5204L118.247 97.7516V97.1004C118.247 96.8975 118.215 96.8121 118.13 96.6413C118.076 96.5025 118.012 96.385 118.012 96.2676C118.012 95.9793 117.756 95.5522 117.553 95.4988C117.521 95.4668 117.5 95.296 117.5 95.0397C117.5 94.4418 117.446 93.7051 117.361 93.5343L117.222 93.1072C117.169 92.9684 117.051 92.7335 116.966 92.6268L116.71 92.2317C116.571 91.9755 116.421 91.858 115.994 91.7192C115.599 91.5484 115.364 91.5164 114.777 91.6659C114.553 91.7192 114.318 91.8047 114.265 91.8367C113.635 92.1783 112.93 92.883 112.727 93.3101C112.674 93.4489 112.556 93.6517 112.471 93.7692C112.385 93.8866 112.268 94.1109 112.215 94.2817C112.161 94.4845 112.044 94.7408 111.958 94.8796C111.873 95.0184 111.788 95.2533 111.756 95.36C111.756 95.4348 111.734 95.5202 111.702 95.5949C111.595 95.659 111.446 95.7764 111.179 96.0113L110.731 96.385C110.474 96.5879 110.218 96.7587 110.079 96.8975C109.994 96.9829 109.876 97.0683 109.802 97.1004C109.577 97.2178 109.46 97.3246 109.375 97.4954C109.321 97.5808 109.289 97.6342 109.257 97.6342L109.054 97.773C108.937 97.8904 108.883 97.9118 108.851 97.8904C108.819 97.8584 108.798 97.5808 108.798 97.1217C108.798 96.5772 108.766 96.353 108.713 96.2142C108.681 96.0967 108.659 95.9045 108.659 95.7017C108.659 95.4988 108.659 95.3067 108.627 95.1892C108.595 95.1038 108.574 94.7942 108.542 94.5059C108.51 94.0254 108.51 93.9614 108.339 93.6517C108.254 93.4489 108.168 93.2567 108.168 93.1713C108.115 92.915 107.965 92.7122 107.656 92.6054C107.431 92.52 107.346 92.52 107.175 92.52C107.026 92.5414 106.93 92.5129 106.887 92.4346C106.801 92.2638 106.118 91.6979 105.915 91.6125C105.691 91.5591 105.403 91.5591 105.179 91.6125C105.093 91.6445 104.869 91.6659 104.698 91.6979C104.389 91.7299 104.25 91.7833 103.588 92.157C102.99 92.4986 102.958 92.4986 102.509 93.2994C102.371 93.5557 102.2 93.8653 102.114 93.9827C101.944 94.2069 101.912 94.271 101.741 94.8903C101.655 95.1785 101.655 95.2639 101.655 96.054C101.655 97.079 101.709 97.7837 101.794 98.104L101.933 98.531C101.986 98.6485 102.072 98.8407 102.157 98.9261L102.413 99.2677C102.584 99.4706 103.011 99.8336 103.235 99.919C103.321 99.9511 103.524 99.9724 103.663 100.004C103.887 100.036 103.972 100.004 104.175 99.9511C104.57 99.7802 104.72 99.6948 105.029 99.4172C105.627 98.8727 105.542 98.8193 105.937 97.9438C105.99 97.8264 106.075 97.6022 106.075 97.4847C106.108 97.3673 106.161 97.2285 106.193 97.1964C106.246 97.1431 106.246 97.1644 106.278 97.2498C106.31 97.3886 106.246 100.485 106.246 100.464C106.129 100.581 105.937 100.805 105.787 100.976C105.734 101.061 105.478 101.35 105.221 101.627C104.965 101.884 104.709 102.193 104.655 102.279C104.623 102.364 104.517 102.503 104.453 102.588C104.367 102.674 104.314 102.759 104.314 102.791C104.314 102.823 104.228 102.93 104.111 103.079L103.801 103.474L103.46 104.126C103.065 104.926 103.011 104.841 102.83 105.717C102.776 106.144 102.798 106.453 102.969 106.848C103.086 107.137 103.428 107.5 103.823 107.724L104.132 107.927C105.018 107.959 105.328 108.012 105.606 107.841C105.659 107.788 105.809 107.724 105.915 107.702C106.193 107.617 106.428 107.478 106.513 107.329C106.631 107.158 107.026 106.731 107.197 106.475L107.506 106.048C107.794 105.738 107.987 105.247 108.072 104.713C108.157 104.2 108.36 103.41 108.531 102.983C108.617 102.727 108.617 102.674 108.585 102.449C108.552 101.937 108.552 101.649 108.67 101.339C108.755 100.997 108.787 100.624 108.67 100.378C108.617 100.207 108.617 100.154 108.67 99.8336L108.723 99.4065C108.723 99.4065 108.98 99.1503 109.289 98.9261C109.62 98.6485 110.72 97.6022 111.478 96.8441C111.478 96.8548 111.478 96.8655 111.478 96.8761C111.51 97.079 111.531 97.2498 111.51 97.5915C111.478 98.1574 111.51 98.3282 111.82 98.7553L112.161 99.2677C112.3 99.524 112.471 99.6948 112.674 99.8016L113.015 100.004C113.528 100.346 113.955 100.378 114.574 100.058C114.798 99.9404 114.916 99.855 115.087 99.6308C115.311 99.3425 115.887 98.7553 115.887 98.8086L115.941 99.0329L116.026 99.7162C116.062 100.058 116.183 100.371 116.389 100.656C116.646 101.029 116.848 101.222 117.126 101.339C117.414 101.424 117.895 101.456 118.066 101.392C118.236 101.307 118.973 100.677 119.112 100.485L119.486 100.026C119.827 99.6308 120.051 99.3105 120.115 99.1503C120.148 99.0649 120.254 98.862 120.372 98.6912C120.489 98.5204 120.713 98.1787 120.82 97.9225L121.194 97.2712C121.418 96.9829 121.482 96.8121 121.589 96.3637C121.728 95.7978 121.76 95.7124 121.674 95.5949C121.621 95.5415 121.589 95.5095 121.471 95.5095H121.535ZM106.161 102.044C106.129 102.161 106.108 102.385 106.108 102.556C106.108 102.727 106.054 102.951 105.99 103.101C105.958 103.24 105.905 103.389 105.905 103.442C105.905 103.56 105.787 104.008 105.616 104.585C105.499 104.958 105.446 105.044 105.328 105.183C105.243 105.268 105.104 105.439 105.018 105.556C104.794 105.93 104.453 106.272 104.335 106.272C104.196 106.272 104.026 106.133 103.94 105.898C103.801 105.503 103.855 105.247 104.25 104.446C104.538 103.88 104.698 103.571 104.965 103.282L105.328 102.823C105.531 102.535 106.182 101.83 106.214 101.83C106.246 101.862 106.214 101.948 106.161 102.054V102.044ZM106.193 95.6803L106.075 95.9046C105.905 96.2782 105.648 96.7053 105.531 96.8441C105.478 96.9295 105.414 97.0149 105.414 97.047C105.414 97.079 105.275 97.2178 105.125 97.3566C104.986 97.4954 104.762 97.7516 104.613 97.9225C104.41 98.2321 104.335 98.2962 104.132 98.4029C103.961 98.4883 103.929 98.4563 103.876 98.1147C103.844 97.8584 103.844 97.773 103.929 97.5168C103.983 97.2605 103.983 97.2071 103.961 96.9829C103.908 96.7587 103.908 96.7267 103.993 96.5879C104.111 96.417 104.25 95.9046 104.453 95.1145C104.538 94.7728 104.57 94.6554 104.709 94.4632C105.136 93.8653 105.307 93.7799 105.51 94.0041C105.734 94.2924 106.054 94.5379 106.193 94.634C106.567 94.8369 106.567 95.0291 106.193 95.6803ZM116.08 96.4704C115.941 96.6092 115.823 96.7587 115.823 96.78C115.823 96.8014 115.706 96.9188 115.599 97.0363C115.492 97.1537 115.343 97.2925 115.311 97.3459C115.279 97.4313 115.193 97.5167 115.14 97.6022L114.862 97.9118C114.692 98.0826 114.233 98.3389 114.179 98.3068C114.094 98.2534 114.04 98.0506 114.008 97.7623C114.008 97.5915 113.955 97.3886 113.923 97.3139C113.805 97.0576 113.87 96.2676 114.008 95.8939C114.062 95.7551 114.126 95.4988 114.147 95.328C114.179 95.0718 114.201 94.9543 114.286 94.8475C114.457 94.5913 114.574 94.303 114.574 94.1108C114.574 94.0254 114.606 93.908 114.628 93.8226C114.681 93.6517 115.225 93.1393 115.343 93.1393C115.375 93.1393 115.482 93.1926 115.567 93.2567C115.653 93.3101 115.77 93.4275 115.791 93.4809C115.877 93.5984 116.048 93.9934 116.186 94.4739C116.325 94.9009 116.357 94.9543 116.411 95.1892C116.411 95.3067 116.464 95.4134 116.496 95.4988C116.528 95.5522 116.549 95.6376 116.549 95.6697C116.549 95.7871 116.325 96.1821 116.069 96.4704H116.08Z" fill="black"/>
<path d="M151.761 12.7746C151.825 12.7639 151.889 12.6998 151.9 12.6358C151.921 12.5397 151.857 12.4436 151.761 12.4329C150.117 12.1446 148.483 11.803 146.85 11.4613C145.28 11.1517 143.711 10.7994 142.141 10.447C141.8 8.8455 141.49 7.22262 141.106 5.63178C140.732 3.97687 140.305 2.32197 139.867 0.677739C139.824 0.517587 139.707 0.389465 139.547 0.346758C139.312 0.293374 139.077 0.442849 139.024 0.677739C138.629 2.36468 138.255 4.05161 137.913 5.78125C137.55 7.50022 137.219 9.24054 136.888 11.0449C134.262 11.7496 131.699 12.4116 129.19 13.1269C129.073 13.1589 128.977 13.2657 128.945 13.3938C128.913 13.5753 129.03 13.7568 129.222 13.7889H129.244C131.891 14.28 134.55 14.6964 137.198 15.1448C137.913 18.444 138.682 21.7217 139.504 24.9995C139.557 25.2344 139.75 25.3946 139.985 25.4266C140.283 25.4586 140.55 25.2344 140.582 24.9355C140.913 21.6577 141.244 18.3799 141.522 15.0914C144.939 14.312 148.355 13.4899 151.782 12.7852L151.761 12.7746ZM140.753 14.7071V14.7284C140.433 17.0666 140.134 19.4049 139.846 21.7538C139.28 19.3622 138.703 16.9706 138.084 14.5896V14.5683C138.031 14.3761 137.871 14.2373 137.668 14.2053C135.361 13.9063 133.066 13.586 130.76 13.2977C132.863 12.5717 134.924 11.835 136.942 11.1197C137.454 9.48611 137.967 7.79917 138.447 6.09088C138.789 4.93779 139.088 3.76334 139.397 2.58889C139.654 3.67792 139.92 4.76696 140.219 5.85599C140.636 7.5109 141.138 9.13377 141.597 10.7673V10.7887C141.629 10.8848 141.714 10.9702 141.821 10.9915C143.465 11.2585 145.12 11.5361 146.754 11.8457C148.099 12.0913 149.444 12.3368 150.779 12.6037C147.544 13.2443 144.287 13.8102 141.042 14.3974C140.892 14.4295 140.764 14.5469 140.743 14.7177L140.753 14.7071Z" fill="black"/>
<path d="M82.6929 20.7297C80.344 20.3026 78.0058 19.8328 75.6675 19.3524C73.3934 18.9039 71.1192 18.4128 68.8451 17.9323C68.3219 15.6155 67.8521 13.2986 67.2863 10.9924C66.7311 8.62217 66.1438 6.2626 65.5246 3.9137C65.4819 3.75355 65.3644 3.62542 65.2043 3.59339C64.9694 3.54001 64.7345 3.67881 64.6704 3.92437C64.0939 6.34801 63.5387 8.77165 63.0155 11.238C62.471 13.6937 61.9585 16.1707 61.4567 18.7118C57.7305 19.7581 54.079 20.7617 50.4703 21.808C50.3528 21.8401 50.2567 21.9468 50.2354 22.075C50.2034 22.2565 50.3315 22.438 50.513 22.47H50.5237C54.3566 23.1426 58.211 23.7405 62.0546 24.3705C62.5671 26.698 63.133 29.0042 63.6668 31.3211C64.2434 33.7447 64.7879 36.1683 65.3965 38.592C65.4498 38.8162 65.6313 38.987 65.8662 39.0084C66.1652 39.0404 66.4321 38.8162 66.4641 38.5172C66.9553 33.7874 67.4464 29.0683 67.8842 24.3384C72.8168 23.2494 77.7495 22.1177 82.7036 21.1034C82.7676 21.0927 82.8317 21.0393 82.8424 20.9646C82.8637 20.8685 82.7997 20.7724 82.7036 20.7617L82.6929 20.7297ZM67.1475 23.9434C66.6563 27.7337 66.1972 31.5133 65.7488 35.2822C65.4071 33.8622 65.0655 32.4528 64.7238 31.0328C64.1259 28.6092 63.5707 26.1855 62.9515 23.7726V23.7512C62.8981 23.559 62.7379 23.4096 62.5351 23.3882C59.0438 22.9184 55.5631 22.4166 52.0718 21.9575C55.2642 20.9005 58.4245 19.8115 61.5315 18.7545C62.2254 16.3842 62.9194 13.9606 63.5707 11.5156C64.0939 9.63647 64.585 7.72532 65.0762 5.81417C65.5032 7.60787 65.941 9.40158 66.4108 11.1953C66.998 13.5549 67.6813 15.8931 68.3219 18.242C68.3539 18.3594 68.4394 18.4448 68.5461 18.4555C70.895 18.8612 73.2546 19.267 75.5928 19.7154C77.6428 20.0891 79.6927 20.4841 81.7427 20.8898C76.9915 21.8401 72.2189 22.7156 67.4464 23.6124C67.2863 23.6444 67.1581 23.7726 67.1368 23.9327L67.1475 23.9434Z" fill="black"/>
<path d="M38.9928 88.1846C37.3593 87.8963 35.7471 87.5654 34.1242 87.2237C32.5654 86.9141 31.0172 86.5724 29.4584 86.2201C29.1168 84.6292 28.8178 83.0277 28.4335 81.4475C28.0598 79.8033 27.6434 78.1698 27.2056 76.5469C27.1629 76.3867 27.0455 76.2586 26.8853 76.2159C26.6504 76.1625 26.4155 76.312 26.3621 76.5469C25.9671 78.2125 25.5934 79.8887 25.2624 81.597C24.9101 83.2946 24.5791 85.0243 24.2588 86.8073C21.6537 87.5013 19.1126 88.1633 16.6356 88.8679C16.5181 88.9 16.422 89.0067 16.39 89.1348C16.358 89.3164 16.4754 89.4979 16.6676 89.5299H16.689C19.3048 90.021 21.942 90.4267 24.5578 90.8752C25.2731 94.1423 26.0312 97.388 26.8426 100.634C26.896 100.869 27.0882 101.029 27.3231 101.061C27.622 101.093 27.8889 100.869 27.921 100.57C28.2413 97.324 28.5722 94.0675 28.8498 90.8218C32.2344 90.0424 35.6083 89.2416 39.0142 88.5369C39.0782 88.5263 39.1423 88.4622 39.153 88.3981C39.1743 88.3021 39.1103 88.206 39.0142 88.1953L38.9928 88.1846ZM28.0918 90.4374V90.4588C27.7715 92.765 27.4832 95.0818 27.1949 97.388C26.6397 95.0284 26.0632 92.6689 25.4546 90.32V90.2986C25.4012 90.1064 25.2411 89.9676 25.0382 89.9356C22.7641 89.6367 20.4899 89.327 18.2157 89.0388C20.287 88.3234 22.337 87.5974 24.3336 86.882C24.846 85.2698 25.3479 83.5936 25.8283 81.896C26.1593 80.7642 26.4582 79.6005 26.7679 78.4474C27.0241 79.5257 27.291 80.5934 27.5793 81.6611C27.985 83.2946 28.4975 84.9068 28.9459 86.5297V86.5511C28.978 86.6471 29.0634 86.7326 29.1702 86.7539C30.8037 87.0208 32.4373 87.2878 34.0601 87.5974C35.3841 87.8323 36.7187 88.0885 38.0426 88.3554C34.8395 88.9854 31.6151 89.5406 28.4014 90.1278C28.2519 90.1598 28.1238 90.2773 28.1025 90.4481L28.0918 90.4374Z" fill="black"/>
<path d="M17.9916 54.6814C22.9243 53.5924 27.857 52.4606 32.8111 51.4463C32.8751 51.4357 32.9392 51.3823 32.9498 51.3075C32.9712 51.2114 32.9071 51.1154 32.8111 51.1047C30.4622 50.6776 28.1239 50.2078 25.7857 49.7274C23.5116 49.2789 21.2374 48.7878 18.9632 48.3073C18.4401 45.9905 17.9703 43.6736 17.4044 41.3674C16.8492 38.9972 16.262 36.6376 15.6427 34.2887C15.6 34.1285 15.4826 34.0004 15.3224 33.9684C15.0875 33.915 14.8527 34.0538 14.7886 34.2994C14.212 36.723 13.6569 39.1466 13.1337 41.613C12.5892 44.0687 12.0767 46.5457 11.5749 49.0868C7.84867 50.1331 4.1972 51.1367 0.58844 52.183C0.470995 52.2151 0.374903 52.3218 0.35355 52.45C0.321519 52.6315 0.449641 52.813 0.631147 52.845H0.641824C4.4748 53.5176 8.32913 54.1155 12.1728 54.7455C12.6853 57.073 13.2511 59.3792 13.785 61.6961C14.3615 64.1197 14.906 66.5433 15.5146 68.967C15.568 69.1912 15.7495 69.362 15.9844 69.3834C16.2834 69.4154 16.5503 69.1912 16.5823 68.8922C17.0734 64.1624 17.5646 59.4433 18.0023 54.7134L17.9916 54.6814ZM13.059 54.1582V54.1369C13.0056 53.9447 12.8454 53.7952 12.6426 53.7739C9.15124 53.3041 5.6706 52.8023 2.17928 52.3432C5.37165 51.2862 8.53199 50.1971 11.6389 49.1401C12.3329 46.7699 13.0269 44.3463 13.6782 41.9013C14.2014 40.0221 14.6925 38.111 15.1836 36.1998C15.6107 37.9936 16.0485 39.7873 16.5182 41.581C17.1055 43.9405 17.7888 46.2788 18.4294 48.6277C18.4614 48.7451 18.5468 48.8305 18.6536 48.8412C21.0025 49.2469 23.3621 49.6526 25.7003 50.1011C27.7502 50.4747 29.8002 50.8698 31.8501 51.2755C27.099 52.2257 22.3264 53.1012 17.5539 53.9981C17.3937 54.0301 17.2656 54.1582 17.2443 54.3184C16.7531 58.1087 16.294 61.8883 15.8456 65.6572C15.5039 64.2371 15.1623 62.8278 14.8206 61.4078C14.2227 58.9842 13.6675 56.5605 13.0483 54.1476L13.059 54.1582Z" fill="black"/>
<path d="M108.171 209.1C121.209 209.1 131.778 198.215 131.778 184.787C131.778 171.36 121.209 160.475 108.171 160.475C95.1342 160.475 84.5654 171.36 84.5654 184.787C84.5654 198.215 95.1342 209.1 108.171 209.1Z" fill="white"/>
<path d="M110.557 195.428C106.567 196.239 102.674 193.668 101.863 189.686L101.142 186.159C100.988 185.397 101.474 184.651 102.245 184.497L113.922 182.112C114.684 181.958 115.43 182.445 115.584 183.215L116.306 186.743C117.117 190.733 114.546 194.625 110.565 195.436L110.557 195.428Z" fill="#0ABBEF"/>
<path d="M116.898 186.799L116.428 183.775L116.371 183.394C116.355 183.272 116.339 183.15 116.29 182.956C116.209 182.68 116.079 182.412 115.893 182.193C115.844 182.137 115.796 182.08 115.747 182.031C115.487 181.772 115.163 181.585 114.798 181.488C114.62 181.439 114.433 181.415 114.247 181.415C114.06 181.415 113.849 181.455 113.752 181.472C113.711 181.48 113.679 181.488 113.638 181.496C113.622 181.407 113.606 181.318 113.59 181.228L113.233 179.177C113.119 178.479 112.868 177.798 112.511 177.174C111.798 175.925 110.63 174.903 109.227 174.392C107.832 173.881 106.227 173.857 104.783 174.392C103.332 174.911 102.091 176.006 101.337 177.385C100.615 178.755 100.339 180.434 100.712 181.942C100.729 182.031 100.753 182.112 100.769 182.202C100.907 182.842 101.053 183.483 101.207 184.123C101.061 184.188 100.931 184.269 100.81 184.359C100.518 184.594 100.291 184.894 100.153 185.226C100.015 185.567 99.9744 185.94 100.015 186.289C100.047 186.483 100.08 186.605 100.112 186.726L100.21 187.091L100.964 190.059C101.458 192.143 102.821 193.968 104.589 195.047C105.343 195.525 106.178 195.866 107.038 196.06C107.711 196.222 108.408 196.279 109.097 196.263H109.138C109.138 196.263 109.154 196.263 109.162 196.263H109.276C109.422 196.263 109.568 196.255 109.714 196.239C109.714 196.239 110.192 196.166 110.208 196.166C110.208 196.166 110.338 196.141 110.46 196.117C110.468 196.117 110.476 196.117 110.484 196.117C110.484 196.117 110.476 196.117 110.468 196.117C110.589 196.093 110.703 196.068 110.743 196.06C112.649 195.622 114.385 194.446 115.512 192.825C116.72 191.138 117.247 188.932 116.89 186.816L116.898 186.799ZM109.77 182.193L103.972 183.345C103.924 183.029 103.68 181.561 103.632 181.245C103.315 179.266 104.751 177.312 106.6 177.036C107.508 176.874 108.465 177.06 109.227 177.579C109.981 178.098 110.541 178.885 110.727 179.793C110.873 180.507 111.035 181.212 111.198 181.926C110.719 182.015 110.241 182.104 109.77 182.193Z" fill="black"/>
<path d="M110.686 190.026L110.621 189.88L110.5 189.596C110.346 189.239 110.191 188.882 110.054 188.517C110.556 188.071 110.735 187.398 110.548 186.823C110.646 187.131 110.621 187.479 110.467 187.763C110.321 188.039 110.07 188.258 109.794 188.331L109.681 187.852L109.137 187.828C108.935 187.82 108.699 187.731 108.529 187.512C108.359 187.301 108.27 186.936 108.432 186.587C108.578 186.239 108.999 185.947 109.47 185.979C109.94 186.003 110.402 186.344 110.548 186.823C110.402 186.352 110.013 185.955 109.51 185.785C109.007 185.614 108.359 185.703 107.88 186.125C107.394 186.531 107.126 187.285 107.321 187.99C107.451 188.517 107.848 188.98 108.359 189.231C108.407 189.474 108.456 189.726 108.521 189.969L108.61 190.261L108.724 190.618C108.902 191.153 109.502 191.461 109.997 191.323C110.5 191.21 110.84 190.699 110.751 190.236C110.727 190.099 110.702 190.066 110.686 190.018V190.026Z" fill="black"/>
<path d="M122.287 165.111C127.244 168.922 131.156 174.48 132.49 181.039C133.93 187.535 132.278 194.78 128.2 200.042C124.121 205.351 117.981 208.537 111.734 209.349C105.488 210.239 98.9383 208.771 93.6167 205.055C88.2648 201.416 84.3835 195.311 83.3525 188.628C82.2306 181.96 83.8225 174.777 87.8251 169.312C91.7822 163.847 98.0286 160.161 104.502 159.693C110.976 159.115 117.314 161.317 122.287 165.111ZM122.105 165.377C117.147 161.551 110.582 160.458 104.821 161.817C99.0596 163.191 93.9048 166.564 90.539 171.373C87.158 176.136 85.5206 182.226 86.2938 188.159C87.0519 194.077 90.0235 199.714 94.6477 203.618C99.2567 207.522 105.594 209.364 111.583 208.303C117.587 207.272 122.832 203.399 126.077 198.434C129.397 193.468 130.959 187.441 130.519 181.335C130.064 175.261 127.123 169.109 122.105 165.377Z" fill="black"/>
<defs>
<linearGradient id="paint0_linear_3089_55197" x1="30.873" y1="159.248" x2="187.893" y2="159.248" gradientUnits="userSpaceOnUse">
<stop stop-color="#0ABBEF"/>
<stop offset="0.24" stop-color="#0D9ACF"/>
<stop offset="0.76" stop-color="#14598E"/>
<stop offset="1" stop-color="#174075"/>
</linearGradient>
</defs>
</svg>
