<svg width="140" height="77" viewBox="0 0 140 77" fill="none" xmlns="http://www.w3.org/2000/svg">
<path d="M0 52.3415C3.52 46.5801 6.88001 45.1397 13.76 46.42C14.4 46.42 14.88 46.42 15.36 46.2599C18.88 44.3395 22.56 44.0194 25.76 46.7401C26.4 47.2202 26.56 46.9001 27.04 46.7401C31.04 44.8196 33.12 45.1397 36.32 48.3405C36.8 48.8206 37.28 48.5005 37.76 48.3405C40.64 47.8604 42.24 48.6606 43.2 51.2212C43.52 51.8614 43.68 52.1815 44.32 52.0214C45.6 52.0214 47.2 52.9817 48.16 52.3415C49.12 51.7014 49.28 50.1009 49.76 48.9807C58.56 31.6962 69.6 16.0122 84.64 3.369C86.24 2.08867 92.8 -0.15191 93.76 0.00813106C94.24 0.00813106 98.24 0.328232 99.52 0.328232C102.24 0.648314 103.04 1.12841 103.68 3.8491C104 5.44951 104.16 7.04991 104.48 8.49028C113.92 6.88987 123.2 6.72983 132.48 8.49028C135.84 9.13044 138.24 10.5708 139.04 14.0917C139.04 14.7319 139.52 15.3721 139.68 16.0122C140 17.1325 140.16 18.2528 139.68 19.3731C137.12 24.8145 134.72 30.4159 131.2 35.3772C130.88 35.8573 130.4 36.3374 130.4 37.1376C130.24 42.0989 129.44 47.0602 128.48 52.0214C128.48 52.6616 128.32 53.1417 129.28 53.3017C131.52 53.9419 132 55.2223 130.72 57.1428C129.6 58.7432 128.16 60.1835 126.56 61.3038C120.64 65.4648 114.88 69.4659 108.96 73.4669C107.04 74.7472 104.96 75.3874 102.72 75.3874C100.8 75.3874 98.72 75.3874 96.8 75.3874C84.96 74.7472 73.28 73.627 61.6 72.3466C60 72.1866 58.24 72.3466 56.64 71.7064C54.08 70.9062 53.44 69.1458 55.04 66.9052C55.36 66.4251 55.2 66.105 55.04 65.785C54.88 65.1448 54.72 64.5046 54.56 63.7044C54.4 63.2243 55.04 62.4241 54.08 62.104C52.96 61.7839 52.96 62.7442 52.48 63.3843C46.24 71.3864 38.56 76.6677 28 76.1876C24.48 76.1876 21.12 75.0673 19.2 71.7064C18.56 70.5862 17.92 70.2661 16.64 70.106C11.84 69.6259 8.31998 67.5454 6.87998 62.5841C6.87998 62.104 6.71998 61.6239 6.07998 61.6239C3.19998 61.1438 1.60001 59.2233 0.16001 56.9827V52.0214L0 52.3415ZM93.44 24.8145C93.12 24.8145 92.96 24.9745 92.8 25.2946C92.16 26.0948 91.36 26.5749 91.04 27.5352C90.56 28.0153 89.92 28.4954 89.6 28.9755C85.6 35.5372 80.64 41.6188 76.48 48.1805C76.16 48.6606 76 49.4608 75.04 49.6208C75.04 49.4608 74.88 49.1407 75.04 48.9807C79.36 41.6188 84.64 35.0571 88.64 27.5352C88 27.2151 87.2 27.5352 86.4 27.5352C84.64 27.0551 83.04 27.2151 80.64 27.5352C83.04 28.6555 83.04 30.576 82.88 32.3364C81.44 36.3374 79.68 40.1784 76.16 42.8991C73.76 44.8196 72.48 47.2202 72.16 50.261C72.16 51.0612 71.52 51.7014 71.2 52.3415C69.44 55.2223 67.04 57.4628 65.6 60.5036C64.64 61.4638 64.8 62.104 66.08 62.5841C66.72 62.7442 67.36 62.9042 68 62.9042C73.28 63.5444 78.56 64.1845 84 64.6647C88.16 65.1448 92.32 66.2651 96.48 66.2651C99.68 66.2651 100.32 65.785 100.96 62.5841C103.84 58.4231 106.72 54.102 109.76 49.9409C118.24 38.7381 126.24 27.3751 133.92 15.5321C136.64 11.5311 136 10.7309 131.04 10.2507C129.92 9.77062 128.8 9.61059 127.68 9.61059C126.24 9.2905 124.96 9.13048 123.52 9.13048C122.24 8.97044 120.8 8.8104 119.52 9.13048C115.36 8.97044 111.2 9.13047 107.2 9.77064C106.08 9.93068 104.64 9.93066 103.84 11.0509C101.76 14.0917 99.04 16.1723 96.48 18.7329C95.04 20.1733 93.44 21.2936 91.36 20.3333C88.96 20.0133 84.48 22.894 83.2 25.6147C84.8 25.6147 86.4 25.7747 88 25.9348C89.44 26.2549 90.72 25.9347 91.52 24.4944C91.68 24.1743 92.16 23.8542 92.48 23.5342C92.8 23.2141 93.28 22.7339 93.76 23.054C94.24 23.3741 93.76 23.8542 93.6 24.1743C93.6 24.3344 93.6 24.6544 93.44 24.8145ZM129.76 34.577C130.88 33.7768 131.36 32.6565 131.84 31.5362C133.44 29.4557 134.72 27.2151 135.84 24.9745C137.76 21.6137 139.2 18.4128 137.12 14.5719C137.12 13.9317 136.96 13.4516 136.32 14.4118C135.68 15.6921 134.88 16.8124 134.08 17.9327C128 26.735 121.92 35.5372 115.68 44.3395C110.56 51.5413 104.96 58.423 100.64 66.105C100.48 67.2253 100.8 68.0255 101.28 68.9858C101.76 69.946 101.92 71.2263 102.88 71.3864C103.84 71.3864 104.48 70.2661 104.96 69.3058C111.2 60.3435 117.6 51.5413 124.32 42.8991C125.12 41.9388 126.08 40.9786 126.24 39.5383C127.68 39.0581 127.84 37.7778 128.32 36.6575C129.12 36.1774 129.44 35.5372 129.6 34.737L129.76 34.577ZM97.44 67.3854C88.64 66.7452 80 65.1448 71.2 64.5046C68.96 64.3446 66.56 64.8247 64.64 63.2243C64.32 62.9042 64.16 63.0643 63.84 63.2243C63.04 63.8645 62.24 63.7044 61.28 63.5444C59.84 63.2243 58.4 62.9042 56.96 63.0642C56.16 62.7442 55.52 62.5841 55.84 63.8644C56.64 66.7452 57.44 67.7054 60.48 68.0255C66.24 68.6657 72 69.3059 77.76 69.946C84.8 70.7462 91.84 71.3864 98.88 72.0265C101.28 72.1866 101.28 72.0265 100.32 70.106C100.16 69.6259 99.84 69.1458 99.84 68.6657C99.52 67.0653 98.72 66.9053 97.44 67.5454V67.3854ZM98.08 3.8491C98.88 3.20894 99.68 2.72884 100.96 1.76859C95.2 1.28847 90.4 0.168192 85.76 4.32926C75.84 12.9715 67.36 22.734 60.32 33.7768C56.48 39.6983 52.8 45.7798 50.08 52.5015C49.76 53.4618 50.56 53.6218 51.04 53.7819C53.28 54.7421 55.52 55.0622 57.92 55.3823C58.72 55.3823 58.72 54.9022 59.04 54.422C65.76 38.418 75.36 24.3343 88 12.6514C91.2 9.61058 94.72 6.88989 98.24 4.00915L98.08 3.8491ZM13.28 47.8604C8.47998 46.58 3.99998 48.1804 2.07998 51.7013C0.47998 54.5821 1.11997 57.7829 3.51997 59.5434C4.31997 60.1835 5.11998 60.8237 6.07998 60.6636C6.87998 60.5036 6.39998 59.2233 6.87998 58.7432C6.87998 58.7432 6.87999 58.4231 7.03999 58.263C7.51999 57.1427 8.16 56.0225 9.6 56.3426C11.04 56.6626 11.36 57.7829 11.52 59.0632C11.52 60.5036 10.88 61.6239 9.43999 61.944C7.99999 62.2641 8.15999 62.9042 8.63999 64.0245C10.08 67.5454 13.12 68.6657 16.48 69.3058C17.44 69.4659 17.92 69.3059 17.92 68.1856C17.92 65.785 18.88 63.7044 20.96 62.4241C22.08 61.6239 23.2 61.6239 24.32 62.4241C25.44 63.2243 25.76 64.3446 25.6 65.6249C25.28 67.7054 24 69.1458 22.08 70.106C21.44 70.4261 20.16 70.1061 20.16 71.2263C20.16 72.0265 20.96 72.6667 21.6 73.1468C22.4 73.787 23.36 74.4272 24.48 74.5872C27.68 75.3874 31.04 75.7075 34.24 74.5872C40.96 72.5067 46.56 68.9858 50.72 63.0642C51.04 62.5841 51.84 62.104 50.88 61.4638C48.8 60.1835 48.48 58.263 48.32 56.1825C48.32 54.262 46.88 54.102 45.6 53.9419C44.32 53.6219 43.04 53.6219 42.72 55.5423C42.56 56.5026 41.92 57.3028 40.8 57.3028C40.32 57.3028 40 56.9827 39.84 56.5026C39.52 55.3823 39.84 54.5821 40.8 53.7819C40.8 53.7819 40.96 53.6218 41.12 53.4618C42.4 52.3415 42.24 50.7411 40.64 49.9409C39.04 49.1407 37.44 49.9409 36.64 51.3813C36.32 52.0214 36.16 52.9817 35.2 52.5015C34.4 52.1815 34.72 51.2212 35.04 50.5811C35.84 48.8206 35.52 47.8604 33.6 47.2202C31.68 46.42 29.76 46.7401 27.84 47.7003C27.2 48.0204 26.88 48.5005 27.04 49.3007C27.36 50.7411 27.04 52.0214 25.92 53.1417C25.6 53.6219 25.12 53.9419 24.48 53.7819C23.84 53.6218 23.68 52.9817 23.68 52.5015C23.68 51.2212 23.84 50.101 24.64 49.1407C25.44 48.1805 25.12 47.5403 24.16 47.0602C22.08 45.7798 19.84 45.9399 17.44 46.58C16.32 46.9001 15.52 47.3802 16.64 48.6606C16.96 49.1407 17.28 49.7809 17.28 50.421C17.28 51.8614 16.8 52.9817 15.52 53.6218C14.56 54.102 13.6 53.9419 12.8 53.3017C11.68 52.3415 11.36 51.2212 12 49.7809C12.32 49.1407 12.64 48.5005 12.96 47.8604H13.28ZM100 74.5872C103.04 74.5872 105.92 73.947 108.48 72.1866C113.92 68.3456 119.52 64.6647 124.96 60.8237C126.56 59.7034 128 58.263 129.28 56.8227C129.6 56.3425 130.08 55.8624 129.6 55.2222C129.28 54.9022 128.96 54.7421 128.48 54.7421C127.84 54.7421 127.68 55.2222 127.52 55.8624C127.52 56.6626 126.88 57.3028 126.24 57.6229C120.16 62.264 114.24 67.2253 107.36 70.9062C105.76 71.7064 104.32 72.8268 102.56 73.1468C100 73.627 97.44 73.1468 95.04 72.8267C88.64 72.3466 82.4 71.7065 76 71.0663C71.52 70.5862 67.04 70.4261 62.56 69.786C60.64 69.6259 58.72 69.786 56.96 68.6657C56.48 68.3456 55.68 67.5454 55.2 68.6657C54.88 69.4659 55.52 69.946 56.16 70.2661C57.6 70.9062 59.2 71.0663 60.64 71.0663C67.84 71.5464 75.04 72.8268 82.24 73.1468C88.16 73.3069 94.08 74.1071 99.84 74.5872H100ZM81.28 31.0561C81.28 30.2559 81.28 29.6157 80.48 29.2956C79.68 28.9755 79.36 29.6157 78.88 30.0958C76.16 33.2966 73.76 36.8176 72.48 40.9786C72.32 41.6188 71.52 42.419 72.48 42.8991C73.12 43.3792 73.92 42.8991 74.4 42.579C78.24 39.6983 80.32 35.8573 81.44 31.2161L81.28 31.0561ZM49.6 55.0622C50.08 56.6626 50.08 57.7829 50.72 58.9032C51.36 59.7034 52 60.3435 52.64 58.9032C52.8 58.423 52.96 57.6229 53.76 57.943C54.4 58.263 54.4 58.9032 54.08 59.3833C53.92 60.0235 53.76 60.6636 54.72 60.8237C57.28 61.3038 59.84 61.3038 62.24 61.944C60.96 60.6637 60 59.2233 59.04 57.7829C58.72 57.3028 58.4 56.9827 57.76 56.9827C55.04 56.8227 52.32 56.1825 49.44 55.0622H49.6ZM23.84 64.6647C23.84 63.2243 22.88 62.5841 21.76 63.2243C20.32 63.8645 18.88 66.4251 19.2 68.0255C19.2 68.5056 19.36 68.8257 20 68.6657C21.76 68.5056 23.84 66.2651 23.84 64.6647ZM16.16 50.421C16.16 49.6208 15.84 48.3405 14.72 48.5005C13.76 48.5005 13.28 49.7808 13.28 50.9011C13.28 51.8614 13.76 52.6616 14.72 52.5015C15.68 52.5015 16.16 51.5413 16.16 50.421ZM8.47998 60.8237C9.43998 60.6636 10.08 60.0235 9.91997 59.0632C9.91997 58.5831 9.75997 57.6229 9.11997 57.7829C8.15997 58.103 8.15999 59.2233 7.83999 60.1835C7.83999 60.6636 7.83998 60.9837 8.47998 60.8237ZM25.92 49.6208C24.96 50.421 24.64 51.3813 24.96 52.6616C25.76 51.7013 26.08 50.7411 25.92 49.6208Z" fill="#080B0C"/>
<path d="M86.56 27.5354C87.36 27.5354 87.9999 27.2153 88.7999 27.5354C84.7999 35.0573 79.3599 41.619 75.1999 48.9809C75.1999 48.9809 75.1999 49.301 75.1999 49.6211C76.1599 49.6211 76.3199 48.8209 76.6399 48.1807C80.7999 41.619 85.76 35.6975 89.76 28.9758C90.08 28.3356 90.7199 28.0155 91.1999 27.5354C91.6799 27.5354 92 27.5354 92.48 27.2153C95.2 25.6149 97.9199 24.1746 100.8 22.5741C102.4 22.5741 104.16 22.5741 105.76 22.8942C104.64 23.8544 103.36 24.3346 102.24 24.9748C101.12 25.775 99.84 26.095 99.36 28.0155C103.04 26.7352 106.08 25.1348 108.8 22.8942C111.36 22.7342 113.92 23.0543 116.64 23.2143C125.12 23.3743 122.4 24.4946 127.04 17.933C129.76 14.252 129.44 14.5721 125.12 14.0919L131.2 10.251C136.16 10.7311 136.64 11.5313 134.08 15.5324C126.4 27.2153 118.4 38.7383 109.92 49.9412C106.88 54.1022 104 58.4233 101.12 62.5844C98.2399 64.6649 94.8799 64.5049 91.5199 64.1848C82.8799 63.3846 74.3999 62.1042 65.9199 60.5038C67.3599 57.463 69.7599 55.2225 71.5199 52.3418C71.8399 51.7016 72.32 51.0614 72.48 50.2612C72.8 47.2204 74.08 44.8198 76.48 42.8993C80 40.1786 81.7599 36.3377 83.1999 32.3367C84.4799 30.8963 85.6 29.2958 86.56 27.6954V27.5354ZM92.7999 32.8168C91.9999 32.8168 91.36 32.8168 90.88 32.8168C90.08 32.8168 88.9599 32.8167 88.7999 34.0971C88.7999 35.2173 89.5999 35.6975 90.3999 36.0176C92.3199 36.9778 94.24 36.9778 96.16 36.4977C96.96 36.3376 97.7599 36.0176 97.9199 34.8973C97.9199 33.937 97.1199 33.2969 96.3199 33.1369C95.0399 32.8168 93.76 32.8167 92.96 32.6567L92.7999 32.8168ZM108.16 32.4967C108.16 32.3366 108.16 32.0165 108.16 31.6964C107.68 30.5762 106.88 29.936 105.76 29.936C104 29.936 102.4 30.7362 101.44 32.3367C100.8 33.2969 100.64 34.2571 101.44 35.2174C101.44 35.3774 101.76 35.6975 101.92 35.6975C103.2 36.4977 104.64 36.1776 105.92 35.6975C107.2 35.0573 108.32 34.0971 108.48 32.6567L108.16 32.4967ZM98.7199 58.4233C100.48 58.4233 101.92 57.303 101.92 55.8626C101.92 54.5823 100.64 53.302 99.36 53.302C97.44 53.302 95.5199 54.5823 95.5199 56.0227C95.5199 57.4631 96.96 58.5833 98.88 58.4233H98.7199ZM96.7999 32.6567C97.4399 32.6567 97.92 32.6567 98.56 32.6567C99.36 32.6567 100.32 32.6567 100.48 31.5364C100.48 30.5762 99.6799 30.0961 99.0399 29.776C96.9599 29.1358 94.72 28.8157 92.48 29.2958C92 29.2958 91.1999 29.4559 91.1999 30.2561C91.1999 30.8963 91.68 31.2164 92.16 31.5364C93.6 32.4967 95.2 32.4967 96.96 32.6567H96.7999ZM113.44 38.0981C114.08 38.0981 114.72 38.0981 115.2 37.778C115.84 37.778 116.64 37.4579 116.8 36.6577C116.96 35.6975 116.16 35.2174 115.52 35.0573C113.92 34.5772 112.32 34.2571 110.72 34.5772C109.92 34.5772 109.12 35.0573 109.12 36.0176C109.12 36.9778 109.76 37.2979 110.4 37.778C111.36 38.2582 112.32 38.2581 113.44 38.4182V38.0981ZM90.56 52.6618C88.64 52.6618 86.88 53.9422 86.88 55.2225C86.88 56.5028 88.4799 57.6231 90.2399 57.6231C91.9999 57.6231 93.4399 56.6629 93.4399 55.2225C93.4399 53.7821 92.1599 52.5018 90.3999 52.5018L90.56 52.6618ZM82.7199 56.3428C84.3199 56.3428 85.76 55.2225 85.76 53.9422C85.76 52.5018 83.9999 51.0614 82.3999 51.2215C80.9599 51.2215 79.8399 52.5018 79.8399 53.7821C79.8399 55.3825 81.1199 56.3428 82.7199 56.3428ZM89.76 43.5395C90.88 43.5395 92 43.0594 92.16 41.459C92.16 40.1786 90.5599 38.7383 89.1199 39.0583C87.8399 39.2184 86.72 40.0186 86.56 41.459C86.56 42.7393 87.8399 43.6996 89.5999 43.5395H89.76ZM115.52 33.777C115.84 33.777 116.48 33.777 117.12 33.617C117.76 33.617 118.24 33.1368 118.24 32.4967C118.24 31.8565 117.92 31.5364 117.44 31.2163C115.52 30.4161 113.6 29.936 111.52 30.7362C111.04 30.8963 110.4 31.2163 110.4 32.0166C110.4 32.6567 110.88 32.9768 111.36 33.2969C112.48 33.777 113.6 33.9371 115.36 33.9371L115.52 33.777ZM104.96 45.9401C106.72 45.9401 108 45.1399 107.84 43.8596C107.68 42.2592 106.56 41.619 105.12 41.619C103.68 41.619 102.4 41.7791 102.24 43.5395C102.24 44.8198 103.36 45.9401 105.12 45.9401H104.96ZM101.92 51.7016C103.04 51.7016 104.32 51.2215 104.48 49.6211C104.48 48.3407 103.2 47.2204 101.76 47.3805C100.32 47.3805 98.8799 47.8606 98.7199 49.6211C98.5599 50.9014 100 51.8616 102.08 51.8616L101.92 51.7016ZM97.1199 44.8198C98.2399 44.8198 99.3599 44.4997 99.5199 43.0594C99.5199 41.9391 98.2399 40.4987 96.7999 40.6588C95.5199 40.6588 94.4 41.1389 94.08 42.5793C93.92 43.8596 95.2 44.8198 96.96 44.9799L97.1199 44.8198ZM85.4399 49.7811C87.1999 49.7811 88.32 48.6608 88.16 47.3805C88.16 45.9401 87.2 45.1399 85.76 45.1399C84.32 45.1399 82.8799 46.5803 83.0399 47.7005C83.0399 49.301 84.3199 49.7811 85.4399 49.7811ZM93.4399 50.9014C94.8799 50.9014 95.9999 50.2612 95.8399 48.6608C95.8399 47.3805 95.0399 46.4202 93.5999 46.5803C92.3199 46.5803 91.04 47.2204 90.88 48.8208C90.88 50.4213 92 50.7413 93.28 50.9014H93.4399Z" fill="#0BB7E9"/>
<path d="M98.0812 3.84871C94.7212 6.72945 91.2012 9.45013 87.8412 12.4909C75.0412 24.3339 65.6012 38.2575 58.8812 54.2616C58.7212 54.7417 58.7212 55.3819 57.7612 55.2219C55.5212 54.7417 53.1212 54.5817 50.8812 53.6214C50.4012 53.4614 49.6011 53.3014 49.9211 52.3411C51.3611 52.5012 51.6812 51.2208 52.1612 50.4206C55.0412 44.6592 58.4012 39.0577 62.0812 33.6163C69.2812 22.8936 77.4411 13.2912 87.5211 5.12907C89.7611 3.20858 92.1612 2.08827 95.0412 3.20856C96.0012 3.52864 96.9612 3.52862 98.0812 3.68866V3.84871Z" fill="#0CB9EC"/>
<path d="M126.399 39.3782C126.399 40.8185 125.28 41.7788 124.48 42.739C117.92 51.3812 111.359 60.1835 105.119 69.1458C104.479 69.946 103.999 71.2263 103.039 71.2263C102.079 71.2263 101.759 69.7859 101.439 68.8257C100.959 67.8654 100.639 66.9052 100.799 65.945C101.599 65.7849 102.079 65.3048 102.559 64.6646C107.039 57.3027 112.639 50.7411 117.759 43.8593C119.999 40.6585 122.399 37.6177 124.799 34.2568C125.599 36.0173 126.079 37.6177 126.399 39.3782Z" fill="#194174"/>
<path d="M93.44 24.814C93.44 24.6539 93.44 24.3339 93.6 24.1738C93.76 23.8537 94.2401 23.3736 93.7601 23.0535C93.2801 22.5734 92.8001 23.0536 92.4801 23.5337C92.1601 23.8538 91.84 24.1738 91.52 24.4939C90.72 25.7742 89.44 26.2544 88 25.9343C88 25.1341 88.4801 24.6539 88.9601 24.1738C89.7601 22.8935 90.88 21.7732 91.52 20.3329C93.76 21.2931 95.36 20.3329 96.64 18.7324C99.2 16.1718 101.92 13.9312 104 11.0505C104.8 9.93017 106.08 9.93019 107.36 9.77014C111.52 9.12998 115.52 8.96995 119.68 9.12999C117.28 10.7304 114.88 12.3308 112.48 13.9312C110.24 14.0913 108 14.4113 105.76 14.5714C105.12 14.5714 104.32 14.5713 104.48 15.6916C104 16.1718 103.68 16.6519 103.2 16.972C101.44 18.4124 100 19.8527 99.2 21.9333C97.28 22.7335 95.3601 24.1738 93.2801 24.6539L93.44 24.814Z" fill="#0BB5E7"/>
<path d="M98.08 3.84943C97.12 3.84943 95.9999 3.84945 95.0399 3.36933C91.9999 2.089 89.7599 3.3693 87.5199 5.28979C77.4399 13.4519 69.28 23.2144 62.08 33.7771C58.4 39.2185 55.2 44.6599 52.16 50.5814C51.68 51.5416 51.5199 52.6619 49.9199 52.5019C52.6399 45.9402 56.32 39.8587 60.16 33.7771C67.2 22.7343 75.6799 12.9718 85.5999 4.32958C90.2399 0.32856 95.1999 1.2888 100.8 1.76892C99.5199 2.72916 98.7199 3.20927 97.9199 3.84943H98.08Z" fill="#E8F0F2"/>
<path d="M56.9609 63.0644C58.4009 62.9043 59.841 63.2245 61.281 63.5445C62.241 63.7046 63.0409 63.8646 63.8409 63.2244C64.1609 62.9044 64.3209 62.9044 64.6409 63.2244C66.5609 64.8248 69.1209 64.3447 71.2009 64.5047C80.0009 65.1449 88.6409 66.7453 97.4409 67.3855C97.1209 68.3458 97.921 68.9859 98.081 69.9462C98.081 69.9462 98.0809 69.9461 97.9209 70.1062C96.1609 69.9461 94.4009 69.7861 92.6409 69.6261C83.2009 68.8259 73.761 68.5058 64.481 67.3855C61.441 67.0654 58.5609 66.2652 57.1209 63.2244L56.9609 63.0644Z" fill="#1C4375"/>
<path d="M99.9985 74.5873C94.0785 74.1071 88.3185 73.3069 82.3985 73.1469C75.1985 72.8268 67.9985 71.3864 60.7985 71.0663C59.3585 71.0663 57.7585 70.9063 56.3185 70.2661C55.6785 69.946 55.0386 69.4659 55.3586 68.6657C55.8386 67.5454 56.4785 68.3456 57.1185 68.6657C58.8785 69.786 60.7985 69.626 62.7185 69.786C67.1985 70.2661 71.6786 70.5862 76.1586 71.0663C82.5586 71.7065 88.7985 72.3467 95.1985 72.8268C97.7585 72.9868 100.159 73.467 102.719 73.1469C104.639 72.8268 106.079 71.8665 107.519 70.9063C114.239 67.2253 120.318 62.2641 126.398 57.6229C127.038 57.1428 127.519 56.6626 127.679 55.8624C127.679 55.3823 127.999 54.9022 128.639 54.7422C129.119 54.7422 129.599 54.7422 129.759 55.2223C130.239 55.8625 129.759 56.3426 129.439 56.8227C128.159 58.4231 126.719 59.7034 125.119 60.8237C119.679 64.6647 114.079 68.3457 108.639 72.1866C106.079 73.9471 103.199 74.7473 100.159 74.5873H99.9985Z" fill="#153B6B"/>
<path d="M126.401 39.3784C126.081 37.778 125.601 36.0175 124.801 34.2571C122.401 37.6179 120.001 40.6587 117.761 43.8595C112.801 50.9013 107.041 57.303 102.561 64.6649C102.081 65.305 101.601 65.7852 100.801 65.9452C105.121 58.2633 110.721 51.3815 115.841 44.1796C122.081 35.3774 128.161 26.5751 134.241 17.7729C135.041 16.6526 135.681 15.3723 136.481 14.252C136.961 13.2917 137.121 13.7719 137.281 14.412C136.001 16.8126 134.881 19.3733 133.121 21.4538C130.721 24.4946 130.081 27.6954 131.681 31.2163C131.681 31.2163 131.681 31.2163 131.681 31.3764C131.201 32.6567 130.721 33.6169 129.601 34.4171C129.281 32.6567 128.961 30.8962 128.641 28.9758C127.841 30.096 126.401 30.5762 126.881 32.0165C127.361 33.4569 128.001 34.8973 128.481 36.1776C128.001 37.2979 127.841 38.5782 126.401 39.0583V39.3784Z" fill="#EAEBEE"/>
<path d="M98.0801 69.9461C97.9201 69.1459 97.12 68.3457 97.44 67.3854C98.72 66.7452 99.68 66.9053 99.84 68.5057C99.84 68.9858 100.16 69.4659 100.32 69.9461C101.28 72.0266 101.28 72.1866 98.8801 71.8665C91.8401 71.2264 84.8 70.4262 77.76 69.786C72 69.1459 66.2401 68.6657 60.4801 67.8655C57.4401 67.5454 56.48 66.5852 55.84 63.7044C55.52 62.4241 56.16 62.5842 56.96 62.9042C58.4 65.945 61.28 66.7452 64.32 67.0653C73.6 68.1856 83.0401 68.5057 92.4801 69.3059C94.2401 69.3059 96 69.626 97.76 69.786C97.76 69.786 97.9201 69.786 98.0801 69.786C98.0801 69.786 98.0801 69.626 98.0801 69.4659V69.9461Z" fill="#EAEBEE"/>
<path d="M65.7596 60.3438C74.2396 61.9442 82.8796 63.2245 91.3596 64.0247C94.7196 64.3448 97.9196 64.6648 100.96 62.4243C100.16 65.6251 99.6796 66.1052 96.4796 66.1052C92.3196 66.1052 88.1595 64.8249 83.9995 64.5048C78.7195 64.0247 73.4395 63.3845 67.9995 62.7444C67.3595 62.7444 66.7196 62.7443 66.0796 62.4243C64.7996 61.9441 64.6395 61.304 65.5995 60.3438H65.7596Z" fill="#E8F0F2"/>
<path d="M81.2805 31.0564C80.3205 35.6976 78.0804 39.5386 74.2404 42.4193C73.6004 42.8995 72.8004 43.2196 72.3204 42.7394C71.5204 42.2593 72.3204 41.4591 72.3204 40.8189C73.6004 36.6579 76.0004 33.137 78.7204 29.9362C79.2004 29.456 79.5204 28.8159 80.3204 29.136C81.1204 29.456 80.9604 30.2562 81.1204 30.8964L81.2805 31.0564Z" fill="#163E70"/>
<path d="M131.841 31.3765C131.841 31.3765 131.841 31.3764 131.841 31.2164C130.241 27.6955 130.881 24.4947 133.281 21.4539C134.881 19.3734 136.001 16.8127 137.441 14.4121C139.361 18.2531 137.921 21.4539 136.161 24.8148C134.881 27.0553 133.761 29.2959 132.161 31.3765H131.841Z" fill="#1C4375"/>
<path d="M49.5996 55.0625C52.6396 56.1828 55.1996 56.823 57.9196 56.983C58.5596 56.983 58.8796 57.3031 59.1996 57.7832C60.1596 59.2236 61.1196 60.5039 62.3996 61.9443C59.8396 61.3041 57.2797 61.3041 54.8797 60.824C53.9197 60.6639 54.0796 60.0238 54.2396 59.3836C54.3996 58.7435 54.5596 58.2633 53.9196 57.9433C53.1196 57.6232 52.9596 58.2633 52.7996 58.9035C52.1596 60.3438 51.5197 59.8637 50.8797 58.9035C50.0797 57.9432 50.2397 56.6629 49.7597 55.0625H49.5996Z" fill="#163E70"/>
<path d="M91.5192 20.333C91.0392 21.7734 89.9193 22.8937 88.9593 24.174C88.6393 24.8142 87.9992 25.1343 87.9992 25.9345C86.3992 25.9345 84.7992 25.7744 83.1992 25.6144C84.4792 22.8937 88.9593 20.013 91.3593 20.333H91.5192Z" fill="#163E70"/>
<path d="M123.68 9.29004C125.12 9.29004 126.4 9.29007 127.84 9.77019C125.6 11.2106 123.2 12.8109 120.96 14.2513C119.52 14.2513 117.92 14.2513 116.48 14.2513C118.88 12.6509 121.28 11.0505 123.68 9.45009V9.29004Z" fill="#0BB5E7"/>
<path d="M123.68 9.29086C121.28 10.8913 118.88 12.4917 116.48 14.0921C115.2 14.0921 113.92 14.0921 112.48 14.0921C114.88 12.4917 117.28 10.8913 119.68 9.29086C120.96 9.13081 122.4 9.29086 123.68 9.29086Z" fill="#E8F0F2"/>
<path d="M120.961 14.0915C123.201 12.6511 125.601 11.0507 127.841 9.61035C128.961 9.61035 130.081 9.61034 131.201 10.2505C129.121 11.5308 127.201 12.8112 125.121 14.0915C123.681 14.0915 122.401 14.0915 120.961 14.0915Z" fill="#E8F0F2"/>
<path d="M128.481 36.4977C128.001 35.0574 127.361 33.7771 126.881 32.3367C126.401 30.8963 127.841 30.2561 128.641 29.2959C128.961 31.0563 129.281 32.8168 129.601 34.7373C129.441 35.5375 129.121 36.1777 128.321 36.6578L128.481 36.4977Z" fill="#1C4375"/>
<path d="M93.4393 24.8145C95.5193 24.3343 97.2793 22.894 99.3593 22.0938C99.8393 22.0938 100.319 22.4139 100.799 22.5739C98.0792 24.1743 95.3593 25.6147 92.4793 27.2151C91.9993 27.3751 91.6792 27.5352 91.1992 27.5352C91.3592 26.5749 92.3193 26.0948 92.9593 25.2946C93.2793 25.2946 93.4392 25.2946 93.5992 24.8145H93.4393Z" fill="#E8F0F2"/>
<path d="M86.5609 27.5353C85.4409 29.1357 84.4809 30.7361 83.2009 32.1765C83.2009 30.416 83.2009 28.6556 80.9609 27.3752C83.2009 27.2152 84.9609 27.0551 86.7209 27.3752L86.5609 27.5353Z" fill="#163E70"/>
<path d="M93.4418 24.8145C93.4418 25.1348 93.1213 25.295 92.8008 25.295C92.8008 24.9746 92.9611 24.8145 93.4418 24.8145Z" fill="#0BB5E7"/>
<path d="M100.639 22.5738C100.159 22.5738 99.6792 22.2537 99.1992 22.0937C99.9992 20.0132 101.599 18.5728 103.199 17.1325C103.199 18.7329 101.759 19.373 100.959 20.4933C100.319 21.2935 100.479 21.4535 101.439 21.2935C108.159 21.6136 114.719 21.7736 121.439 22.0937C121.919 22.0937 122.399 22.2538 122.719 21.7736C123.839 19.8531 125.599 18.4128 126.239 16.1722C126.879 15.372 126.239 15.372 125.759 15.372C118.559 15.372 111.519 14.5718 104.319 15.6921C104.159 14.5718 104.959 14.5718 105.599 14.5718C107.839 14.4118 110.079 14.0917 112.319 13.9316C113.599 13.9316 114.879 13.9316 116.319 13.9316C117.759 13.9316 119.359 13.9316 120.799 13.9316C122.239 13.9316 123.519 13.9316 124.959 13.9316C129.119 14.4118 129.439 13.9316 126.719 17.7726C121.919 24.3343 124.639 23.374 116.319 23.0539C113.759 23.0539 111.199 22.5739 108.479 22.7339C107.519 22.5739 106.559 22.5739 105.439 22.7339C103.839 22.2538 102.079 22.5738 100.479 22.4138L100.639 22.5738Z" fill="#081115"/>
<path d="M92.8006 32.8164C93.7606 32.8164 95.0406 32.9764 96.1606 33.2965C97.1206 33.4566 97.9206 34.0967 97.7606 35.057C97.7606 36.0172 96.9606 36.3373 96.0006 36.6574C94.0806 37.1375 92.0006 36.9775 90.2406 36.1773C89.4406 35.8572 88.6406 35.217 88.6406 34.2568C88.6406 33.1365 89.9206 33.1365 90.7206 32.9765C91.2006 32.9765 91.6806 32.9765 92.6406 32.9765L92.8006 32.8164ZM90.4006 34.2568C92.0006 35.8572 93.9206 36.0172 96.1606 35.057C94.4006 33.7766 92.4806 33.9367 90.4006 34.2568Z" fill="#081115"/>
<path d="M108.161 32.4961C108.001 34.0965 106.881 34.8967 105.601 35.5369C104.321 36.177 102.881 36.4971 101.601 35.5369C101.441 35.5369 101.281 35.2168 101.121 35.0567C100.481 34.0965 100.641 33.1362 101.121 32.176C102.081 30.5756 103.681 29.7754 105.441 29.7754C106.561 29.7754 107.521 30.4156 107.841 31.5359C107.841 31.6959 107.841 32.016 107.841 32.3361L108.161 32.4961ZM103.521 34.7367C104.801 34.7367 106.881 33.2963 106.721 32.3361C106.721 31.3758 105.921 30.8956 104.961 30.8956C103.841 30.8956 102.081 32.336 102.081 33.6164C102.081 34.5766 102.561 34.7367 103.521 34.7367Z" fill="#081115"/>
<path d="M98.7193 58.4231C96.9593 58.4231 95.3594 57.3028 95.3594 56.0225C95.3594 54.5821 97.2793 53.3018 99.1993 53.3018C100.479 53.3018 101.759 54.5821 101.759 55.8624C101.759 57.3028 100.319 58.4231 98.5594 58.4231H98.7193ZM98.5594 57.1428C99.3594 57.1428 100.319 57.1427 100.319 55.8624C100.319 54.9022 99.6793 54.5821 98.7193 54.5821C97.7593 54.5821 96.7993 54.5821 96.7993 55.8624C96.7993 56.9827 97.7594 56.9827 98.5594 57.1428Z" fill="#081115"/>
<path d="M96.799 32.6564C95.199 32.6564 93.439 32.6564 91.999 31.5362C91.519 31.2161 91.0391 30.896 91.0391 30.2558C91.0391 29.4556 91.839 29.4556 92.319 29.2955C94.559 28.8154 96.7991 29.2956 98.8791 29.7757C99.6791 29.9357 100.479 30.5759 100.319 31.5362C100.159 32.4964 99.199 32.4964 98.399 32.6564C97.759 32.6564 97.2791 32.6564 96.6391 32.6564H96.799ZM92.319 30.2558C94.559 31.5361 96.4791 31.5361 98.5591 31.056C96.7991 29.9357 94.879 29.6156 92.319 30.2558Z" fill="#081115"/>
<path d="M113.44 38.0977C112.32 38.0977 111.36 37.9377 110.4 37.4576C109.6 37.1375 108.96 36.6574 109.12 35.6971C109.12 34.7369 109.92 34.4168 110.72 34.2568C112.32 33.9367 114.08 34.2568 115.52 34.7369C116.16 34.897 116.96 35.5371 116.8 36.3373C116.8 37.1375 115.84 37.2975 115.2 37.4576C114.56 37.4576 113.92 37.6176 113.44 37.7777V38.0977ZM110.08 35.8572C111.52 37.1375 113.12 36.8174 114.56 36.8174C114.88 36.8174 115.04 36.8175 115.04 36.3373C115.04 36.1773 114.72 35.6971 114.72 35.6971C113.28 35.6971 111.84 34.7369 110.08 35.6971V35.8572Z" fill="#081115"/>
<path d="M90.5591 52.6611C92.1591 52.6611 93.599 53.9415 93.599 55.3818C93.599 56.6622 92.159 57.6224 90.399 57.7825C88.639 57.7825 87.0391 56.6622 87.0391 55.3818C87.0391 53.9415 88.639 52.8212 90.719 52.8212L90.5591 52.6611ZM90.0791 53.6214C89.4391 53.6214 88.319 53.9415 88.319 55.0617C88.319 56.3421 89.4391 56.3421 90.2391 56.3421C91.0391 56.3421 91.999 56.3421 91.999 55.0617C91.999 54.1015 91.5191 53.4613 90.0791 53.4613V53.6214Z" fill="#081115"/>
<path d="M82.7198 56.342C80.9598 56.342 79.8398 55.3818 79.8398 53.7814C79.8398 52.501 81.1198 51.2207 82.3998 51.2207C83.9998 51.2207 85.7599 52.6611 85.7599 53.9414C85.7599 55.2217 84.3198 56.182 82.7198 56.342ZM84.1599 53.9414C83.8399 53.1412 83.5199 52.341 82.5599 52.341C81.7599 52.341 80.9599 52.6611 80.9599 53.6213C80.9599 54.4215 81.4398 55.0617 82.3998 55.0617C83.1998 55.0617 83.8399 55.0617 84.1599 53.9414Z" fill="#081115"/>
<path d="M89.7605 43.5393C87.8405 43.5393 86.5605 42.5791 86.7205 41.4588C86.7205 40.0184 87.8406 39.2182 89.2806 39.0582C90.7206 38.8981 92.4805 40.3385 92.3205 41.4588C92.1605 43.0592 91.0405 43.3793 89.9205 43.5393H89.7605ZM89.2806 42.0989C89.7606 42.0989 90.4005 42.0989 90.4005 41.4588C90.4005 40.8186 89.7605 40.3385 89.1205 40.3385C88.6405 40.3385 88.1605 40.8186 88.0005 41.2987C88.0005 42.0989 88.6405 42.0989 89.1205 42.0989H89.2806Z" fill="#081115"/>
<path d="M115.519 33.7771C113.919 33.7771 112.639 33.7771 111.519 33.1369C111.039 32.8169 110.559 32.4968 110.559 31.8566C110.559 31.2164 111.039 30.8964 111.679 30.5763C113.759 29.7761 115.679 30.2562 117.599 31.0564C118.079 31.2164 118.399 31.6966 118.399 32.3367C118.399 32.9769 117.919 33.297 117.279 33.457C116.639 33.617 115.839 33.617 115.679 33.617L115.519 33.7771ZM111.519 31.6965C113.119 32.6568 114.559 32.6568 115.999 32.4967C116.319 32.4967 116.799 32.4968 116.799 32.0166C116.799 31.5365 116.479 31.3765 115.999 31.3765C114.719 31.3765 113.279 31.0564 111.519 31.6965Z" fill="#081115"/>
<path d="M105.599 22.8935C106.559 22.7334 107.679 22.7334 108.639 22.8935C105.919 25.134 102.719 26.7345 99.1992 28.0148C99.6792 26.0943 101.119 25.7742 102.079 24.974C103.199 24.1738 104.639 23.8537 105.599 22.8935Z" fill="#E8F0F2"/>
<path d="M104.96 45.9403C103.2 45.9403 102.08 44.98 102.08 43.5397C102.24 41.7792 103.68 41.6191 104.96 41.6191C106.4 41.6191 107.52 42.4193 107.68 43.8597C107.68 45.14 106.56 45.9403 104.8 45.9403H104.96ZM105.28 44.6599C105.6 44.6599 106.4 44.6599 106.4 43.8597C106.4 43.0595 105.6 42.4194 104.8 42.5794C104.16 42.5794 103.52 42.8994 103.68 43.6997C103.68 44.4999 104.48 44.6599 105.44 44.6599H105.28Z" fill="#081115"/>
<path d="M101.919 51.7009C99.839 51.7009 98.399 50.7406 98.559 49.4603C98.879 47.6998 100.159 47.3798 101.599 47.2197C103.039 47.2197 104.479 48.18 104.319 49.4603C104.319 51.2207 102.879 51.5409 101.759 51.5409L101.919 51.7009ZM101.599 50.4205C102.239 50.4205 103.199 50.4205 103.199 49.3002C103.199 48.5 102.559 48.0199 101.759 48.18C100.959 48.18 99.9989 48.5 99.9989 49.4603C99.9989 50.4205 100.959 50.2605 101.599 50.4205Z" fill="#081115"/>
<path d="M97.12 44.8192C95.36 44.8192 94.0801 43.6989 94.2401 42.4186C94.4001 40.9782 95.6801 40.498 96.9601 40.498C98.4001 40.498 99.6801 41.7784 99.6801 42.8987C99.6801 44.4991 98.4001 44.6591 97.2801 44.6591L97.12 44.8192ZM98.0801 42.8987C97.9201 42.0985 97.44 41.6183 96.8 41.4583C96.16 41.4583 95.52 41.7784 95.52 42.4186C95.52 43.2188 96.16 43.5389 96.8 43.5389C97.28 43.5389 97.9201 43.5388 98.0801 42.8987Z" fill="#081115"/>
<path d="M85.4391 49.7808C84.3191 49.7808 83.1991 49.3007 83.0391 47.7003C83.0391 46.58 84.4791 45.1396 85.7591 45.1396C87.1991 45.1396 87.9991 45.9398 88.1591 47.3802C88.1591 48.8206 87.1991 49.7808 85.4391 49.7808ZM85.4391 48.5005C86.0791 48.5005 86.719 48.3405 86.719 47.5403C86.719 46.9001 86.3991 46.0999 85.7591 46.2599C84.9591 46.2599 84.319 46.74 84.319 47.7003C84.319 48.5005 84.959 48.6605 85.599 48.6605L85.4391 48.5005Z" fill="#080B0C"/>
<path d="M93.4391 50.9012C92.1591 50.7411 91.0391 50.4211 91.0391 48.8206C91.0391 47.2202 92.4791 46.7401 93.7591 46.5801C95.1991 46.5801 95.839 47.5403 95.999 48.6606C95.999 50.101 94.879 50.7411 93.599 50.9012H93.4391ZM94.5591 48.5005C94.3991 48.0204 94.2391 47.2203 93.4391 47.5403C92.7991 47.5403 92.1591 48.0204 92.1591 48.8206C92.1591 49.4608 92.6391 49.7809 93.2791 49.7809C94.0791 49.7809 94.399 49.4608 94.399 48.6606L94.5591 48.5005Z" fill="#081115"/>
<path d="M104.48 15.8518C111.52 14.7316 118.72 15.5318 125.92 15.5318C126.4 15.5318 127.04 15.5318 126.4 16.332C121.44 16.9722 116.48 17.2922 111.52 16.9721C107.2 16.6521 104 17.7723 101.6 21.4533C100.64 21.4533 100.48 21.4533 101.12 20.6531C101.92 19.5328 103.2 18.8926 103.36 17.2922C103.84 16.8121 104.16 16.332 104.64 16.0119L104.48 15.8518Z" fill="#EAEBEE"/>
<path d="M98.0803 69.9463C98.0803 69.9463 98.0803 70.1064 98.0803 70.2666C98.0803 70.2666 97.92 70.2666 97.7598 70.2666C97.7598 70.2666 97.7597 70.2666 97.92 70.1064L98.0803 69.9463Z" fill="#1C4375"/>
<path d="M101.6 21.4533C104 17.7724 107.2 16.6521 111.52 16.9722C116.48 17.2923 121.44 16.9722 126.4 16.332C125.76 18.5726 124 20.013 122.88 21.9335C122.56 22.4136 122.08 22.2535 121.6 22.2535C114.88 21.9334 108.32 21.7734 101.6 21.4533Z" fill="#75B52C"/>
<path d="M90.4004 34.2568C92.4804 34.0968 94.4004 33.7767 96.1604 35.057C94.0804 36.0173 92.0004 35.6972 90.4004 34.2568Z" fill="#D95C64"/>
<path d="M103.52 34.7365C102.72 34.7365 102.08 34.5765 102.08 33.6162C102.08 32.4959 103.68 30.8955 104.96 30.8955C105.92 30.8955 106.56 31.5357 106.72 32.3359C106.72 33.2962 104.8 34.5765 103.52 34.7365Z" fill="#D95C64"/>
<path d="M98.5608 57.1427C97.7608 57.1427 96.8008 57.1427 96.8008 55.8623C96.8008 54.7421 97.9208 54.582 98.7208 54.582C99.5208 54.582 100.321 54.9021 100.321 55.8623C100.321 56.9826 99.3608 56.9827 98.5608 57.1427Z" fill="#D95C64"/>
<path d="M92.3203 30.2557C94.8803 29.7756 96.8004 30.0957 98.5604 31.0559C96.4804 31.5361 94.5603 31.5361 92.3203 30.2557Z" fill="#D95C64"/>
<path d="M110.08 35.8573C111.84 34.737 113.28 35.8573 114.72 35.8573C114.72 35.8573 115.04 36.1774 115.04 36.4974C115.04 36.8175 114.72 36.9776 114.56 36.9776C113.12 36.9776 111.52 37.2977 110.08 36.0173V35.8573Z" fill="#D95C64"/>
<path d="M90.0804 53.6221C91.5204 53.6221 92.0003 54.1022 92.0003 55.2225C92.0003 56.3428 91.0403 56.5028 90.2403 56.5028C89.4403 56.5028 88.3203 56.5028 88.3203 55.2225C88.3203 53.9422 89.4404 53.9422 90.0804 53.7821V53.6221Z" fill="#D95C64"/>
<path d="M84.1609 53.9422C83.8409 54.9025 83.2009 55.0625 82.4009 55.0625C81.4409 55.0625 80.9609 54.5824 80.9609 53.6221C80.9609 52.6619 81.7609 52.3418 82.5609 52.3418C83.5209 52.3418 83.8409 53.142 84.1609 53.9422Z" fill="#D95C64"/>
<path d="M89.2815 42.0993C88.8015 42.0993 88.0014 42.0993 88.1614 41.2991C88.1614 40.819 88.6415 40.3389 89.2815 40.3389C89.9215 40.3389 90.5614 40.819 90.5614 41.4591C90.5614 42.0993 89.9214 42.0993 89.4414 42.0993H89.2815Z" fill="#D95C64"/>
<path d="M111.52 31.6966C113.28 31.0564 114.72 31.2165 116 31.3766C116.32 31.3766 116.8 31.6966 116.8 32.0167C116.8 32.4968 116.32 32.4968 116 32.4968C114.56 32.4968 113.28 32.4968 111.52 31.6966Z" fill="#D95C64"/>
<path d="M105.28 44.6596C104.32 44.6596 103.68 44.4996 103.52 43.6994C103.52 42.8992 104 42.5791 104.64 42.5791C105.44 42.5791 106.08 43.2192 106.24 43.8594C106.24 44.6596 105.6 44.6596 105.12 44.6596H105.28Z" fill="#D95C64"/>
<path d="M101.6 50.4212C100.96 50.4212 100 50.4212 100 49.461C100 48.6608 100.96 48.3407 101.76 48.1807C102.56 48.1807 103.2 48.5007 103.2 49.3009C103.2 50.2612 102.4 50.2612 101.6 50.4212Z" fill="#D95C64"/>
<path d="M98.0796 42.8993C97.9196 43.6995 97.2795 43.5395 96.7995 43.5395C96.1595 43.5395 95.5195 43.2194 95.5195 42.4192C95.5195 41.619 96.1595 41.2989 96.7995 41.459C97.5995 41.459 97.9196 42.0991 98.0796 42.8993Z" fill="#D95C64"/>
<path d="M85.4401 48.5002C84.8001 48.5002 84.1602 48.1802 84.1602 47.54C84.1602 46.5798 84.9601 46.0996 85.6001 46.0996C86.2401 46.0996 86.7202 46.7398 86.5602 47.38C86.5602 48.1802 85.9202 48.3402 85.2802 48.3402L85.4401 48.5002Z" fill="#D95C64"/>
<path d="M94.5604 48.5008C94.5604 49.301 94.0803 49.6211 93.4403 49.6211C92.8003 49.6211 92.3203 49.461 92.3203 48.6608C92.3203 48.0207 92.9603 47.5406 93.6003 47.3805C94.4003 47.2205 94.5603 47.8607 94.7203 48.3408L94.5604 48.5008Z" fill="#D95C64"/>
</svg>
