<svg width="222" height="152" viewBox="0 0 222 152" fill="none" xmlns="http://www.w3.org/2000/svg">
<path d="M11.68 1.12028C15.36 1.92049 19.04 2.72071 22.72 3.36087C33.44 5.4414 44.16 7.52193 54.88 9.76251C65.6 11.843 76.32 14.0836 87.04 16.1641C98.24 18.4047 109.6 20.6453 120.8 22.7258C132.16 24.9664 143.52 27.207 154.88 29.4475C166.72 31.8482 178.56 34.0887 190.4 36.4893C200 38.4098 209.6 40.3303 219.36 42.0908C221.76 42.5709 222.24 43.2111 221.92 45.6117C221.44 51.3732 221.12 57.1346 220.64 62.8961C220.16 70.0979 219.52 77.1397 219.04 84.3416C218.72 89.6229 218.4 94.9042 217.92 100.186C217.6 105.787 217.12 111.549 216.64 117.15C216.32 122.431 216 127.713 215.52 132.834C215.2 138.275 214.88 143.717 214.4 148.998C214.24 151.399 213.6 151.719 211.2 151.559C201.92 150.919 192.64 150.438 183.36 149.798C172.64 149.158 161.92 148.358 151.2 147.558C143.68 147.078 136.16 146.597 128.64 146.117C121.12 145.637 113.76 144.997 106.24 144.517C98.72 144.037 91.36 143.557 83.84 143.077C76.32 142.596 68.96 142.116 61.44 141.476C55.84 141.156 50.24 140.836 44.64 140.356C38.56 140.036 32.48 139.556 26.4 139.076C20.8 138.755 15.2 138.275 9.6 137.955C7.84 137.955 6.24 137.955 4.8 136.195C3.52 134.754 1.44 133.954 0 132.354V124.832C0.64 124.672 0.319995 124.032 0.319995 123.712C0.479995 111.388 0.799985 99.0653 0.959985 86.7422C1.27999 61.4557 1.44 36.1693 1.6 10.8828C1.6 8.9623 2.08 7.52193 3.51999 6.08156C5.43999 4.16107 7.51999 2.24057 9.11999 0C9.59999 0 10.24 0 10.72 0L11.68 1.12028ZM11.2 58.575C10.88 61.2957 10.88 64.1764 10.72 66.8971C10.72 71.6983 10.56 76.4996 10.4 81.3008C10.08 89.6229 10.08 97.9451 9.91999 106.267C9.91999 106.747 9.91999 107.227 9.91999 107.708C9.75999 116.67 9.6 125.632 9.28 134.594C9.28 135.395 9.6 135.715 10.4 135.715C16.64 136.035 22.88 136.515 29.12 136.995C33.12 137.315 36.96 137.475 40.96 137.635C47.2 138.115 53.44 138.435 59.84 138.916C63.68 139.236 67.36 139.396 71.2 139.556C76.96 139.876 82.88 140.356 88.64 140.836C92.8 141.156 96.8 141.316 100.96 141.636C107.2 142.116 113.44 142.436 119.84 142.917C123.68 143.237 127.36 143.397 131.2 143.557C136.96 143.877 142.88 144.357 148.64 144.837C152.8 145.157 156.8 145.317 160.96 145.637C167.36 146.117 173.6 146.437 180 146.918C184 147.238 188.16 147.558 192.16 147.878C196 148.198 199.68 148.358 203.52 148.518C206.08 148.678 208.48 148.838 211.04 148.998C211.52 148.998 212 149.158 212 148.358C212.16 145.317 212.64 142.276 212.48 139.076C212.8 136.195 213.12 133.314 212.96 130.433C213.6 125.792 213.76 120.991 214.08 116.19C214.24 113.309 214.56 110.428 214.72 107.547C215.2 101.306 215.52 95.0643 216 88.9827C216.48 80.9807 217.12 72.9786 217.6 64.9766C218.08 58.895 218.4 52.6534 218.88 46.5719C218.88 45.6116 218.88 45.2916 217.76 45.1315C213.76 44.4914 209.76 43.5311 205.6 42.891C188.64 39.5301 171.84 36.1693 154.88 32.9684C151.04 32.1682 147.2 31.368 143.52 30.7279C131.04 28.3272 118.56 25.7666 106.08 23.366C104 22.8859 101.76 22.0856 99.52 22.4057C97.6 21.2854 95.36 21.2855 93.28 20.9654C92.96 20.9654 92.64 20.6453 92.16 20.6453C88.96 20.1652 85.76 19.685 82.56 19.0449C71.36 16.4842 60.16 14.4037 48.96 12.1631C37.12 9.76251 25.44 7.52192 13.6 5.1213C12.32 4.80122 11.84 4.96127 11.84 6.40164C11.68 17.1244 11.36 27.8471 11.2 38.5698C11.2 43.211 11.04 47.8522 10.88 52.3334C10.88 54.4139 10.56 56.6545 10.88 58.735L11.2 58.575Z" fill="#040404"/>
<path d="M203.359 148.358C199.519 148.198 195.839 147.878 191.999 147.718C187.999 147.398 183.839 147.078 179.839 146.757C173.439 146.277 167.199 145.957 160.799 145.477C156.639 145.157 152.639 144.997 148.479 144.677C142.719 144.357 136.799 143.877 131.039 143.397C127.199 143.076 123.519 142.916 119.679 142.756C113.439 142.276 107.199 141.956 100.799 141.476C96.6391 141.156 92.6392 140.996 88.4792 140.676C82.7192 140.356 76.7991 139.876 71.0391 139.396C67.1991 139.075 63.5192 138.915 59.6792 138.755C53.4392 138.275 47.1991 137.955 40.7991 137.475C36.7991 137.155 32.9591 136.995 28.9591 136.835C22.7191 136.355 16.4791 136.035 10.2391 135.555C9.43914 135.555 9.11914 135.235 9.11914 134.434C9.27914 125.472 9.59913 116.51 9.75913 107.547C9.75913 107.067 9.75913 106.587 9.75913 106.107C9.75913 97.7849 9.91914 89.4628 10.2391 81.1406C10.2391 76.3394 10.3991 71.5382 10.5591 66.737C11.0391 66.4169 11.1991 65.9368 11.5191 65.4567C12.7991 63.6962 13.5991 61.6157 15.0391 59.8552C15.0391 60.3353 15.0391 60.9755 15.0391 61.4556C14.8791 67.3771 14.5591 73.1386 14.3991 79.0601C14.0791 87.0622 13.9191 95.2243 13.5991 103.226C13.5991 107.547 13.2791 112.029 13.1191 116.35C12.9591 120.991 12.7991 125.632 12.6391 130.113C12.6391 131.554 12.9591 132.514 14.7191 132.514C18.7191 132.674 22.8792 133.154 26.8792 133.314C31.9992 133.634 37.1192 133.954 42.0792 134.434C48.9592 134.914 55.6791 135.555 62.5591 136.035C67.8391 136.355 73.2791 136.675 78.5591 137.155C86.8791 137.795 95.1991 138.435 103.519 139.075C108.799 139.396 114.239 139.716 119.519 140.196C127.839 140.836 135.999 141.476 144.319 142.116C151.199 142.596 158.079 143.076 165.119 143.557C175.359 144.357 185.599 144.997 195.839 145.797C198.559 145.957 201.439 145.957 204.159 146.597C204.159 147.398 203.199 147.718 202.879 148.358H203.359Z" fill="#606060"/>
<path d="M155.04 32.8083C172 36.1692 188.8 39.5301 205.76 42.7309C209.76 43.5311 213.76 44.3313 217.92 44.9714C218.88 45.1315 219.2 45.6116 219.04 46.4119C218.56 52.4934 218.24 58.735 217.76 64.8166C217.28 72.8186 216.64 80.8206 216.16 88.8227C215.68 95.0643 215.36 101.306 214.88 107.387C214.72 110.268 214.4 113.149 214.24 116.03C213.12 117.15 211.84 118.11 210.72 119.23C210.72 118.11 210.72 116.99 210.72 116.03C211.04 112.029 211.36 108.028 211.68 104.027C212 98.7452 212.32 93.4638 212.8 88.1825C213.28 80.6606 213.92 73.1387 214.4 65.6168C214.72 61.4557 214.88 57.1346 215.2 52.9735C215.52 49.6126 214.88 48.9725 211.52 48.6524C211.2 48.6524 210.72 48.6524 210.4 48.4924C195.2 45.4516 180 42.2508 164.8 39.21C160.64 38.4098 156.32 37.7696 152.16 36.4893C152.96 35.0489 154.56 34.2487 155.52 32.8083H155.04Z" fill="#606060"/>
<path d="M11.0389 52.333C11.0389 47.6918 11.1989 43.0506 11.3589 38.5695C11.5189 27.8467 11.8389 17.124 11.9989 6.40127C11.9989 4.9609 12.4789 4.80086 13.7589 5.12094C25.5989 7.52155 37.2789 9.76214 49.1189 12.1628C60.3189 14.4033 71.5189 16.4839 82.7189 19.0445C85.9189 19.8447 89.1189 20.1648 92.3189 20.6449C92.6389 20.6449 92.9589 20.805 93.4389 20.965C92.3189 22.0853 90.8789 22.8855 89.7589 24.1658C88.6389 24.1658 87.6789 23.8457 86.5589 23.5256C71.1989 20.3248 55.8389 17.2841 40.4789 14.0832C33.4389 12.6429 26.5589 11.2025 19.3589 10.0822C17.1189 9.76214 16.9589 10.0822 16.7989 12.1628C16.7989 16.964 16.6389 21.9252 16.3189 26.7265C15.9989 32.808 16.3189 38.7296 15.5189 44.8111C14.8789 44.8111 14.8789 45.6113 14.5589 46.0914C13.2789 48.172 12.3189 50.4125 10.8789 52.333H11.0389Z" fill="#CEC8C8"/>
<path d="M155.041 32.808C154.241 34.2483 152.641 35.0485 151.681 36.4889C151.361 36.4889 150.881 36.6489 150.561 36.4889C139.681 33.9282 128.801 32.0078 117.921 29.7672C111.041 28.3268 104.321 26.8865 97.4414 25.4461C97.4414 24.6459 97.9214 24.1658 98.2414 23.6856C98.7214 23.2055 99.5214 22.8854 99.6814 22.0852C101.921 21.7651 104.001 22.5654 106.241 23.0455C118.721 25.4461 131.201 28.0067 143.681 30.4073C147.521 31.2075 151.361 32.0078 155.041 32.6479V32.808Z" fill="#CEC8C8"/>
<path d="M210.401 119.39C211.521 118.27 212.801 117.31 213.921 116.189C213.601 120.991 213.441 125.632 212.801 130.433C211.361 130.913 211.041 132.834 209.281 132.834C209.281 130.113 209.441 127.392 209.761 124.672C209.921 122.911 209.761 121.151 210.241 119.39H210.401Z" fill="#CCC6C6"/>
<path d="M203.359 148.358C203.679 147.717 204.639 147.557 204.639 146.597C206.719 145.957 208.959 145.477 208.799 142.596C208.799 142.596 208.799 142.436 208.799 142.276C210.239 141.636 210.879 139.875 212.159 139.075C212.159 142.116 211.839 145.157 211.679 148.358C211.679 149.158 211.199 148.998 210.719 148.998C208.159 148.838 205.759 148.678 203.199 148.518L203.359 148.358Z" fill="#CCC6C6"/>
<path d="M11.0391 52.3334C12.4791 50.4129 13.4391 48.1724 14.7191 46.0918C15.0391 45.6117 15.0391 44.9716 15.6791 44.8115C16.1591 47.6923 15.6791 50.573 15.5191 53.2937C14.5591 53.4537 14.2391 54.2539 13.7591 54.8941C12.9591 56.1744 12.4791 57.6148 11.1991 58.575C10.8791 56.4945 11.1991 54.4139 11.1991 52.1734L11.0391 52.3334Z" fill="#626262"/>
<path d="M11.1988 58.5753C12.4788 57.615 12.9587 56.1747 13.7587 54.8944C14.2387 54.2542 14.5588 53.454 15.5188 53.2939C15.5188 55.5345 15.6788 57.7751 15.1988 60.0157C13.7588 61.7761 12.7988 63.6966 11.6788 65.6171C11.3588 66.0972 11.1988 66.5773 10.7188 66.8974C10.7188 64.1767 10.7188 61.296 11.1988 58.5753Z" fill="#CCC6C6"/>
<path d="M212.32 139.076C211.04 140.036 210.4 141.636 208.96 142.276C208.48 139.076 209.28 136.035 209.44 132.834C211.04 132.834 211.52 130.913 212.96 130.433C212.96 133.314 212.64 136.195 212.48 139.076H212.32Z" fill="#626262"/>
<path d="M99.6799 22.246C99.6799 23.0463 98.7199 23.3663 98.2399 23.8465C97.7599 24.3266 97.2799 24.8067 97.4399 25.6069C94.8799 25.1268 92.3199 24.8067 89.9199 24.0065C90.8799 22.7262 92.4799 21.926 93.5999 20.8057C95.6799 21.1257 97.9199 21.1258 99.8399 22.246H99.6799Z" fill="#626262"/>
<path d="M89.7609 24.0059C92.3209 24.8061 94.881 25.1261 97.281 25.6063C104.161 27.0466 110.881 28.487 117.761 29.9274C128.641 32.1679 139.681 34.2485 150.401 36.6491C150.721 36.6491 151.201 36.6491 151.521 36.6491C155.681 37.9294 160.001 38.5696 164.161 39.3698C179.361 42.5706 194.561 45.6114 209.761 48.6522C210.081 48.6522 210.561 48.6522 210.881 48.8122C214.241 49.1323 214.881 49.9325 214.561 53.1333C214.241 57.2944 213.921 61.6155 213.761 65.7765C213.281 73.2984 212.641 80.8204 212.161 88.3423C211.841 93.6236 211.521 98.905 211.041 104.186C210.721 108.187 210.401 112.188 210.081 116.189C210.081 117.31 210.081 118.43 210.081 119.39C209.441 121.151 209.761 122.911 209.601 124.672C209.281 127.392 209.281 130.113 209.121 132.834C208.961 136.035 208.321 139.075 208.641 142.276C208.641 142.276 208.641 142.436 208.641 142.596C208.641 145.637 206.561 145.957 204.481 146.597C201.761 145.957 198.881 146.117 196.161 145.797C185.921 144.997 175.681 144.197 165.441 143.556C158.561 143.076 151.681 142.596 144.641 142.116C136.321 141.476 128.161 140.836 119.841 140.196C114.561 139.875 109.121 139.555 103.841 139.075C95.521 138.435 87.201 137.795 78.881 137.155C73.601 136.835 68.161 136.515 62.881 136.035C56.001 135.554 49.281 134.914 42.401 134.434C37.281 134.114 32.161 133.794 27.201 133.314C23.201 132.994 19.0409 132.674 15.0409 132.514C13.2809 132.514 12.9609 131.553 12.9609 130.113C12.9609 125.472 13.1209 120.831 13.4409 116.349C13.4409 112.028 13.7609 107.547 13.9209 103.226C14.2409 95.2241 14.4009 87.062 14.7209 79.0599C14.8809 73.1384 15.2009 67.377 15.3609 61.4554C15.3609 60.9753 15.3609 60.3352 15.3609 59.855C16.0009 57.6145 15.681 55.3739 15.681 53.1333C15.681 50.2526 16.3209 47.3718 15.8409 44.6511C16.4809 38.7296 16.3209 32.6481 16.6409 26.5665C16.8009 21.7653 16.9609 16.804 17.1209 12.0028C17.1209 9.76221 17.441 9.60217 19.681 9.92225C26.721 11.0425 33.761 12.4829 40.801 13.9233C56.161 16.964 71.521 20.1649 86.881 23.3657C88.001 23.5257 88.961 24.0059 90.081 24.0059H89.7609ZM109.121 137.315C109.601 137.315 110.241 137.475 110.721 137.635C118.881 138.275 127.041 138.755 135.041 139.395C143.361 140.036 151.841 140.516 160.161 141.156C170.721 141.956 181.281 142.596 191.841 143.396C196.161 143.716 200.641 144.037 204.961 144.517C206.081 144.517 206.081 144.517 206.081 143.556C206.241 139.715 206.561 135.874 206.881 132.033C208.001 117.47 208.961 102.746 210.081 88.1822C210.881 76.4993 211.521 64.9763 212.801 53.2933C212.801 51.6929 212.481 51.0528 211.041 50.8927C210.721 50.8927 210.401 50.7327 210.081 50.7327C185.921 45.7714 161.921 40.9702 137.761 36.0089C137.121 35.8489 136.801 36.0089 136.321 36.4891C132.321 40.4901 128.001 44.171 123.841 48.012C123.361 47.6919 123.521 47.3718 123.841 47.0518C124.321 46.4116 124.961 45.7714 125.441 45.2913C127.521 42.8907 129.921 40.8102 131.841 38.0895C133.121 37.4493 133.761 36.329 134.721 35.3688C132.641 34.8886 130.561 34.5686 128.641 34.0884C128.161 34.0884 127.521 33.9284 127.201 34.4085C126.561 35.2087 125.761 35.8489 125.121 36.6491C124.801 36.8091 124.481 37.1292 124.161 37.2893C118.401 42.8907 112.321 48.3321 105.921 53.1333C104.961 53.7735 104.161 54.7337 102.721 54.8938C102.721 54.2536 103.361 53.9335 103.841 53.6134C110.241 47.5319 116.641 41.4503 123.041 35.3688C123.681 34.7286 124.321 34.2485 124.801 33.4483C124.001 33.1282 123.041 32.9682 122.241 32.9682C122.241 32.9682 121.921 32.8081 121.761 32.6481C102.881 28.8071 84.0009 24.9661 65.1209 21.1251C50.4009 18.0843 35.841 15.0436 21.281 12.0028C18.721 11.5227 19.041 11.3626 18.881 13.9233C18.721 20.805 18.401 27.6868 18.081 34.5686C17.441 52.1731 16.8009 69.7775 16.1609 87.382C15.8409 95.5441 15.5209 103.706 15.3609 111.708C15.2009 117.47 15.041 123.071 14.881 128.833C14.881 130.113 15.2009 130.753 16.6409 130.753C20.3209 130.913 24.001 131.233 27.681 131.553C34.721 132.033 41.9209 132.514 48.9609 133.154C55.6809 133.634 62.2409 134.114 68.9609 134.594C76.0009 135.074 82.8809 135.554 89.9209 136.035C90.4009 136.035 91.0409 136.355 91.3609 135.714C91.8409 135.394 92.4809 135.074 92.9609 134.594C96.3209 132.033 99.5209 129.473 103.361 127.712C104.001 128.513 103.041 128.513 102.881 128.833C101.441 130.433 99.361 131.233 98.241 133.154C96.481 133.634 95.6809 135.074 93.9209 136.195C96.6409 136.355 99.041 136.675 101.441 136.835C101.761 136.835 102.081 136.835 102.241 136.835C103.201 135.714 104.641 135.234 105.441 134.114C108.481 132.033 111.361 129.953 114.401 127.872C114.881 127.552 115.201 127.232 115.841 127.392C112.641 130.913 108.801 133.794 105.121 137.155C106.561 137.475 107.681 137.635 108.961 137.475L109.121 137.315Z" fill="#080808"/>
<path d="M131.839 37.9298C129.919 40.4905 127.519 42.731 125.439 45.1317C124.959 45.7718 124.319 46.412 123.839 46.8921C123.519 47.2122 123.359 47.5323 123.839 47.8524C123.839 48.3325 123.199 48.8126 123.839 49.1327C124.319 49.4528 124.639 49.1327 124.959 48.8126C125.439 48.4925 125.919 48.1724 126.399 47.6923C129.439 45.1317 132.159 42.2509 135.039 39.5302C135.519 39.0501 135.839 38.57 136.479 38.41C136.799 38.41 137.119 38.73 137.439 38.73C160.799 43.3712 184.159 48.1725 207.679 52.8136C210.559 53.4538 210.559 53.4538 210.239 56.3345C210.239 56.3345 210.239 56.3345 210.239 56.4946C209.759 62.8962 209.119 69.4579 208.639 75.8595C208.319 80.8208 207.999 85.9421 207.519 90.9034C207.039 96.6648 206.719 102.266 206.239 108.028C205.919 111.389 205.759 114.749 205.599 118.11C205.119 125.152 204.479 132.194 203.999 139.396C203.999 140.676 203.679 141.156 202.239 140.996C196.319 140.516 190.399 140.036 184.639 139.716C178.719 139.396 172.639 138.916 166.719 138.436C157.919 137.635 148.959 137.155 140.159 136.355C136.319 136.035 132.479 135.875 128.639 135.555C123.039 135.075 117.439 134.435 111.839 134.274C111.839 133.634 112.479 133.314 112.959 132.834C115.199 130.433 117.599 128.193 119.999 125.792C120.479 125.312 121.119 124.832 120.479 124.192C119.839 123.552 119.359 124.192 118.719 124.512C117.759 124.992 117.279 126.272 116.159 126.753C115.519 126.753 115.199 126.913 114.719 127.233C111.679 129.313 108.799 131.394 105.759 133.474C103.359 133.154 100.799 133.474 98.5592 132.674C99.6792 130.754 101.759 129.793 103.199 128.353C103.519 128.033 104.479 128.033 103.679 127.233C105.599 125.312 107.839 123.872 109.439 121.631C107.839 121.631 106.559 122.752 105.279 123.552C101.599 126.112 97.7592 128.833 94.0792 131.394C93.2792 131.874 92.4792 132.674 91.5192 132.674C91.0392 132.674 90.5592 132.354 90.0792 132.354C83.8392 131.874 77.5992 131.394 71.5192 130.914C66.5592 130.594 61.5992 130.273 56.6392 129.953C50.3992 129.473 43.9992 128.833 37.7592 128.353C32.3192 128.033 26.7192 127.233 21.2792 127.233C19.9992 127.233 19.1992 126.753 19.1992 125.152C19.1992 111.869 19.6792 98.7454 19.9992 85.462C19.9992 82.4212 19.9992 79.3804 20.1592 76.3396C20.6392 65.1368 20.9592 53.7739 21.2792 42.571C21.4392 33.7687 21.5992 24.8065 21.5992 16.0042C21.5992 15.5241 21.5992 15.204 21.5992 14.7239C36.6392 17.7647 51.6792 20.8055 66.7192 23.8462C83.6792 27.3671 100.639 30.728 117.439 34.2489C118.239 34.4089 119.359 34.0888 119.839 35.2091C116.639 38.2499 113.279 41.2907 110.079 44.3314C106.079 48.1724 102.079 52.0134 97.9192 55.8544C97.5992 56.1745 96.9592 56.6546 97.2792 57.1347C97.5992 57.6148 98.2392 57.1347 98.7192 56.9747C100.159 56.0144 101.599 55.0542 103.039 54.094C104.319 54.094 105.279 53.1337 106.239 52.3335C112.639 47.5323 118.719 42.0909 124.479 36.4895C124.799 36.1694 125.119 36.0093 125.439 35.8493C127.679 36.3294 129.919 36.8095 132.159 37.4497L131.839 37.9298Z" fill="#626262"/>
<path d="M119.519 35.6891C119.039 34.5688 117.919 34.8889 117.119 34.7288C100.159 31.2079 83.1991 27.8471 66.3991 24.3262C51.3591 21.2854 36.3191 18.2446 21.2791 15.2038C21.2791 15.684 21.2791 16.1641 21.2791 16.4842C21.2791 25.2864 21.1191 34.2487 20.9591 43.051C20.6391 54.2538 20.3191 65.6168 19.8391 76.8196C19.8391 79.8604 19.8391 82.9011 19.6791 85.9419C19.5191 99.2253 19.0391 112.349 18.8791 125.632C18.8791 127.233 19.5191 127.713 20.9591 127.713C26.5591 127.713 31.9991 128.353 37.4391 128.833C43.8391 129.313 50.0791 129.953 56.3191 130.433C61.2791 130.753 66.2391 131.073 71.1991 131.394C77.4391 131.874 83.6791 132.354 89.7591 132.834C90.2391 132.834 90.719 132.994 91.199 133.154C90.879 134.114 90.8791 134.914 91.5191 135.715C91.0391 136.195 90.5591 136.035 90.0791 136.035C83.0391 135.555 76.1591 135.074 69.1191 134.594C62.3991 134.114 55.8391 133.634 49.1191 133.154C42.0791 132.674 34.8791 132.194 27.8391 131.554C24.1591 131.234 20.4791 130.913 16.7991 130.753C15.3591 130.753 15.0391 129.953 15.0391 128.833C15.1991 123.071 15.3591 117.47 15.5191 111.709C15.8391 103.546 16.1591 95.3843 16.3191 87.3823C16.9591 69.7778 17.5991 52.1733 18.2391 34.5688C18.5591 27.687 18.7191 20.8053 19.0391 13.9235C19.0391 11.3629 18.8791 11.5229 21.4391 12.003C35.9991 15.0438 50.7191 18.0846 65.2791 21.1254C84.1591 24.9663 103.039 28.8073 121.919 32.6483C121.919 32.6483 122.239 32.6483 122.399 32.9684C121.599 34.0887 120.479 35.0489 119.519 36.0092V35.6891Z" fill="#CDC7C7"/>
<path d="M111.681 134.754C117.281 134.914 122.881 135.554 128.481 136.034C132.321 136.354 136.161 136.515 140.001 136.835C148.801 137.475 157.761 138.115 166.561 138.915C172.481 139.395 178.561 139.875 184.481 140.195C190.401 140.515 196.321 140.996 202.081 141.476C203.361 141.476 203.681 141.156 203.841 139.875C204.321 132.834 204.801 125.792 205.441 118.59C205.761 115.229 205.921 111.868 206.081 108.507C206.561 102.746 206.881 97.1444 207.361 91.3829C207.681 86.4217 208.001 81.3004 208.481 76.3391C208.961 69.9375 209.441 63.3758 210.081 56.9741C210.081 56.9741 210.081 56.9742 210.081 56.8141C210.401 53.7734 210.401 53.7733 207.521 53.2932C184.161 48.652 160.801 43.8508 137.281 39.2096C136.961 39.2096 136.641 39.0496 136.321 38.8895C136.481 37.7692 138.081 37.4492 137.601 36.0088C161.761 40.9701 185.761 45.7713 209.921 50.7325C210.241 50.7325 210.561 50.8926 210.881 50.8926C212.321 51.2127 212.801 51.8528 212.641 53.2932C211.521 64.9762 210.881 76.4991 209.921 88.1821C208.961 102.746 207.841 117.47 206.721 132.033C206.401 135.874 206.241 139.715 205.921 143.556C205.921 144.356 205.921 144.677 204.801 144.517C200.481 144.036 196.001 143.716 191.681 143.396C181.121 142.596 170.561 141.956 160.001 141.156C151.681 140.516 143.201 140.035 134.881 139.395C126.721 138.755 118.561 138.275 110.561 137.635C110.081 137.635 109.441 137.475 108.961 137.315C109.601 136.194 110.561 135.554 111.521 134.754H111.681Z" fill="#CDC7C7"/>
<path d="M119.519 35.6892C120.479 34.729 121.599 33.9288 122.399 32.6484C123.199 32.6484 124.159 32.8085 124.959 33.1285C124.479 33.9287 123.839 34.4089 123.199 35.0491C116.799 41.1306 110.399 47.2122 103.999 53.2937C103.519 53.6138 103.039 53.9339 102.879 54.574C101.439 55.5343 99.9992 56.4945 98.5592 57.4548C98.0792 57.7749 97.4392 58.255 97.1192 57.6148C96.7992 57.1347 97.2792 56.6546 97.7592 56.3345C101.759 52.4935 105.759 48.6525 109.919 44.8116C113.119 41.7708 116.479 38.73 119.679 35.6892H119.519Z" fill="#F5F5F5"/>
<path d="M111.681 134.755C110.721 135.555 109.761 136.195 109.121 137.316C107.841 137.316 106.721 137.316 105.281 136.995C108.961 133.635 112.801 130.754 116.001 127.233C117.121 126.753 117.441 125.473 118.561 124.992C119.041 124.672 119.681 124.032 120.321 124.672C120.961 125.313 120.321 125.953 119.841 126.273C117.601 128.673 115.201 130.914 112.801 133.315C112.321 133.795 111.841 134.115 111.681 134.755Z" fill="#F5F5F5"/>
<path d="M91.5204 135.875C90.8804 135.075 90.8804 134.275 91.2004 133.314C92.3204 133.314 92.9604 132.674 93.7604 132.034C97.4404 129.473 101.28 126.753 104.96 124.192C106.24 123.392 107.52 122.432 109.12 122.271C107.52 124.512 105.28 126.112 103.36 127.873C99.5204 129.633 96.3204 132.194 92.9604 134.755C92.4804 135.075 91.8404 135.555 91.3604 135.875H91.5204Z" fill="#F5F5F5"/>
<path d="M137.759 35.6895C138.239 36.9698 136.639 37.4499 136.479 38.5702C135.839 38.5702 135.519 39.2104 135.039 39.6905C132.159 42.4112 129.439 45.2919 126.399 47.8526C125.919 48.1727 125.439 48.4927 124.959 48.9728C124.639 49.1329 124.159 49.613 123.839 49.2929C123.199 48.9728 123.839 48.4927 123.839 48.0126C127.999 44.1716 132.319 40.4907 136.319 36.4897C136.799 36.0095 137.119 35.6894 137.759 36.0095V35.6895Z" fill="#F3F3F3"/>
<path d="M98.2399 133.314C100.64 134.115 103.04 133.794 105.44 134.115C104.64 135.235 103.2 135.715 102.24 136.835C102.24 136.835 101.76 136.835 101.44 136.835C99.0399 136.675 96.6399 136.515 93.9199 136.195C95.5199 135.075 96.4799 133.634 98.2399 133.154V133.314Z" fill="#CBC5C5"/>
<path d="M131.839 37.9296C129.599 37.4495 127.359 36.9694 125.119 36.3292C125.759 35.529 126.559 34.8889 127.199 34.0886C127.679 33.6085 128.159 33.6085 128.639 33.7686C130.559 34.2487 132.639 34.5688 134.719 35.0489C133.759 36.1692 132.959 37.1294 131.839 37.7696V37.9296Z" fill="#CBC5C5"/>
</svg>
