<svg width="436" height="818" viewBox="0 0 436 818" fill="none" xmlns="http://www.w3.org/2000/svg">
<g clip-path="url(#clip0_2488_4697)">
<path d="M246.563 222.55C244.997 222.55 168.462 222.55 168.462 222.55L213.068 495.298C223.242 492.324 257.049 490.758 268.005 490.288" fill="#76B82A"/>
<path d="M325.603 579.846C325.603 579.064 325.603 578.281 325.447 577.654C317.308 580.316 293.674 587.675 284.44 589.397C284.909 588.458 285.848 586.266 286.005 585.796L264.719 492.166L264.25 490.287C253.45 490.757 218.234 492.166 208.061 492.636C185.523 524.263 160.168 559.805 137.63 591.589C136.69 610.848 130.43 687.881 131.056 711.993L129.804 712.306C128.239 731.878 117.439 880.465 115.874 895.809L117.596 894.87C116.344 902.855 115.248 908.491 114.778 909.431C114.622 909.744 115.248 909.431 116.657 908.804C114.778 956.872 91.6143 1038.13 107.579 1081.35C109.613 1079 113.057 1081.82 115.561 1080.88C123.23 1073.67 133.717 1073.21 144.047 1076.02C160.168 1080.41 209.157 1093.56 206.339 1060.21C203.209 1004.63 199.609 947.478 209.783 892.834C214.165 885.788 203.052 879.212 205.87 873.262C208.061 869.505 215.261 869.035 214.948 864.651C213.382 860.424 209.47 857.136 208.374 852.595H208.53C215.261 803.118 229.66 738.454 238.581 689.29C238.894 689.29 239.207 689.134 239.52 688.977C243.59 717.943 251.572 762.096 259.554 790.592C267.536 808.911 267.067 815.331 262.058 834.746C265.189 877.49 267.223 920.234 277.866 962.196C269.102 967.519 266.597 985.212 279.588 984.898C274.736 988.5 270.823 994.763 275.832 1000.24C284.753 1025.61 284.283 1053.95 289.448 1080.41C312.143 1066.94 338.437 1058.33 364.419 1053.32V1053.63H364.575C365.358 1053.95 377.722 1057.55 378.661 1058.33C380.54 1059.43 380.227 1058.8 381.479 1058.49C342.507 911.623 339.22 732.504 325.603 580.316V579.846Z" fill="url(#paint0_linear_2488_4697)"/>
<path d="M126.987 109.817C130.743 117.176 136.065 124.379 141.856 130.015C152.342 120.934 166.898 130.798 173.785 139.879C177.228 137.061 181.141 134.712 185.21 132.833C180.358 126.414 165.646 85.5487 173.002 80.5384C188.967 57.0525 207.748 71.3006 229.817 69.8914C263.78 85.5487 281.31 56.4262 273.328 25.7381C268.632 30.2787 262.685 33.2536 256.268 34.5061C263.78 26.0513 265.972 13.0558 261.589 2.56543C244.216 18.0661 213.696 7.26259 190.688 19.1621C166.898 25.8947 106.953 56.5828 140.134 84.6092C140.134 84.6092 140.447 84.6092 140.604 84.6092C140.604 84.7658 140.604 84.9224 140.76 85.0789C129.022 85.7052 121.978 99.4836 126.674 109.974L126.987 109.817Z" fill="#ED6C2E"/>
<path d="M139.819 149.743C144.045 170.41 166.427 159.137 170.183 168.532C175.974 190.138 172.531 215.816 182.704 235.231C190.843 240.555 242.962 234.135 236.389 221.609C237.484 211.589 235.763 201.255 235.763 191.235C284.282 187.007 268.005 104.65 259.24 72.7094V73.3357C229.502 77.5631 191 50.7893 170.966 83.1997C170.653 100.579 177.696 117.646 184.583 133.146C172.218 143.95 174.879 139.096 164.549 130.641C149.054 121.247 134.185 132.207 139.819 149.743Z" fill="white"/>
<path d="M277.554 227.403C277.554 227.089 277.241 226.933 277.084 226.619C276.614 226.619 277.397 227.246 277.554 227.403Z" fill="white"/>
<path d="M24.626 372.075C24.7825 372.075 39.0253 378.651 39.1818 378.808C55.9288 387.419 80.8146 402.92 97.0921 409.653C99.1268 406.678 114.152 385.384 115.717 383.192C121.195 398.379 135.438 449.109 139.82 467.428C146.707 496.08 136.534 562.624 135.908 590.493C156.568 594.877 204.148 601.61 224.964 599.418C229.973 500.464 207.122 369.727 191.47 271.556L189.749 270.147C193.974 270.93 188.183 258.404 188.027 255.742C182.392 236.64 177.384 217.382 174.41 197.811C156.254 197.967 151.403 217.852 144.203 231.004L143.89 230.691C78.9364 281.263 48.2596 287.84 24.7825 372.075H24.626Z" fill="white"/>
<path d="M235.92 229.124C237.798 239.615 241.241 249.948 243.589 260.439C243.746 260.126 244.059 259.812 244.215 259.499L244.998 267.171C252.51 368.787 262.527 486.529 269.257 588.457C270.04 592.215 315.586 580.002 316.994 580.002C317.777 579.689 339.219 570.295 339.219 570.295C324.194 477.448 317.933 338.098 329.359 248.226C313.864 236.64 298.526 230.22 277.083 226.619C277.083 226.932 277.396 227.089 277.553 227.402C277.396 227.402 276.614 226.776 277.083 226.619C269.101 211.432 254.702 197.184 236.702 197.184C237.016 205.952 237.798 220.669 235.92 229.124Z" fill="white"/>
<path d="M277.554 227.403C277.554 227.089 277.241 226.933 277.084 226.619C276.614 226.619 277.397 227.246 277.554 227.403Z" fill="white"/>
<path d="M389.148 332.619C380.853 359.079 350.02 383.818 323.099 391.333C321.847 355.635 324.195 283.455 329.203 248.383" fill="#76B82A"/>
<path d="M1.61785 454.276C-2.29501 471.812 65.1626 517.531 70.6406 525.673L113.369 558.083C113.369 558.083 118.064 560.745 128.081 557.3C144.202 551.977 145.141 549.628 153.906 549.159C158.132 552.29 169.401 566.851 176.757 557.144C184.583 560.745 189.748 564.816 191.626 551.977C191.626 551.977 193.504 551.977 193.817 551.977C194.13 551.977 197.261 549.002 197.104 546.81C196.948 544.618 196.322 541.956 196.322 541.956C201.8 541.956 201.487 537.885 202.582 534.441L199.608 527.552C199.608 527.552 169.558 506.258 169.401 506.258C169.088 506.258 141.542 509.702 141.229 510.016C140.916 510.172 119.317 516.748 119.317 516.748C105.23 500.465 76.2751 464.61 59.0586 451.771C61.0933 445.821 77.5273 408.244 80.188 401.981C67.8234 394.465 42.155 380.061 29.0078 374.268C20.0865 396.814 3.49603 433.139 1.77437 454.433L1.61785 454.276Z" fill="white"/>
<path d="M329.202 484.18C330.924 502.029 333.428 534.283 338.593 551.35C341.88 554.168 353.305 539.294 354.244 538.041C347.671 520.505 394.625 460.538 402.138 445.037C402.138 445.037 417.633 422.021 416.381 417.324C413.563 402.136 387.425 367.377 380.382 354.382C380.382 354.382 365.827 368.004 363.948 369.569C362.07 370.978 344.541 382.095 344.541 382.095C351.114 389.767 364.731 410.591 370.209 419.359C364.574 428.284 347.984 470.402 343.758 480.892L329.359 484.18H329.202Z" fill="white"/>
<path d="M18.835 398.849C37.6167 407.461 58.5896 406.521 78.7799 405.112L80.1885 401.981C67.8239 394.465 42.1556 380.061 29.0084 374.268C27.2867 378.338 21.6522 391.96 18.9915 398.849H18.835Z" fill="#F4C6CC"/>
<path d="M1.61785 454.276C-2.29501 471.812 65.1626 517.531 70.6406 525.672L113.369 558.083C113.369 558.083 118.064 560.745 128.081 557.3C144.202 551.977 145.141 549.628 153.906 549.158C158.132 552.29 169.401 566.851 176.757 557.143C180.67 558.553 189.435 565.285 190.687 555.578L184.74 546.183C177.696 553.855 170.34 540.077 163.454 538.824C163.454 540.547 163.454 542.269 163.454 543.991C147.646 540.077 131.525 542.269 115.56 541.956C79.875 520.819 46.0679 491.383 22.7473 456.937C8.34796 432.355 42.9376 393.995 25.095 383.505C16.4867 405.268 3.18299 435.174 1.61785 454.276Z" fill="#F4C6CC"/>
<path d="M329.202 484.18L332.958 522.071C349.549 514.555 340.941 510.015 348.61 497.489C361.757 472.124 376.782 447.699 388.521 421.551C389.773 419.359 389.147 416.854 387.738 414.819C373.183 387.262 376.939 386.636 383.043 358.609L380.382 354.382C380.382 354.382 365.827 368.004 363.948 369.569C362.07 370.978 344.541 382.095 344.541 382.095C351.114 389.767 364.731 410.591 370.209 419.359C364.574 428.284 347.984 470.402 343.758 480.892L329.359 484.18H329.202Z" fill="#F4C6CC"/>
<path d="M198.356 184.189C210.878 194.993 217.608 205.64 236.546 206.423C236.389 201.256 236.076 196.245 235.92 191.078C284.439 186.851 268.162 104.494 259.397 72.5534V73.1797C250.789 73.1797 242.024 72.7099 233.259 71.7705C231.537 81.1648 234.198 90.7157 234.981 100.267C235.763 113.732 233.103 130.172 244.215 140.193C231.224 143.481 239.363 150.839 235.45 159.138C233.885 160.86 232.32 162.582 233.416 165.087C241.085 196.089 219.486 193.27 198.513 184.189H198.356Z" fill="#F4C6CC"/>
<path d="M170.811 83.8259C193.349 39.6725 253.763 99.9528 271.293 58.4612C271.762 58.4612 272.388 58.1481 272.858 57.9915C272.858 57.2086 272.858 56.4258 272.858 55.4863C251.885 87.5836 187.088 32.6268 170.811 83.8259Z" fill="white"/>
<path d="M195.852 41.8654C213.381 27.774 236.858 27.3042 257.362 33.4105C260.022 29.966 261.901 26.0517 262.996 21.8242C241.554 29.0265 207.277 13.839 195.852 42.022V41.8654Z" fill="white"/>
<path d="M212.286 57.0526C236.859 40.6125 249.85 63.0024 273.014 57.8355C273.014 57.0526 273.014 56.2698 273.014 55.3303C272.701 55.8 272.388 56.2698 272.075 56.7395C272.857 55.0172 273.483 53.1383 273.953 51.2594C253.449 58.7749 231.068 33.4102 212.286 57.0526Z" fill="white"/>
<path d="M130.272 68.4808C130.742 75.2134 136.846 79.2843 140.602 84.4512C140.602 84.4512 140.915 84.4512 141.072 84.4512L150.306 82.1026C128.081 79.9106 138.411 49.0659 150.619 39.8281C150.306 39.8281 149.993 39.8281 149.68 39.8281C141.541 47.3436 129.959 56.2682 130.429 68.3242L130.272 68.4808Z" fill="white"/>
<path d="M287.257 249.167C257.989 253.864 269.258 243.53 246.25 273.279C242.181 262.006 248.285 242.278 260.649 238.363C267.223 238.833 273.327 241.964 279.588 243.53" fill="#76B82A"/>
<path d="M190.375 269.991C192.253 274.375 193.192 278.916 193.349 283.613C175.506 272.496 160.168 256.213 137.786 264.824C138.412 261.693 138.099 258.248 139.508 255.43C145.299 251.985 152.655 250.889 159.072 248.384C165.802 244.94 168.776 253.081 173.941 255.9" fill="#76B82A"/>
<path d="M24.626 372.076C24.7825 372.076 39.0253 378.652 39.1818 378.808C43.7207 380.687 48.1031 382.723 52.4855 384.915C51.0769 357.515 79.093 258.874 118.065 278.133C110.552 272.183 100.535 270.46 91.1445 270.617C82.6928 278.915 74.554 280.794 64.5371 290.345C45.7554 313.674 31.1996 347.494 24.626 372.076Z" fill="#76B82A"/>
<path d="M112.743 387.418L115.56 383.347C115.56 383.347 120.412 398.848 123.856 409.495C142.168 378.024 146.55 334.027 134.029 299.425C137.316 330.426 127.142 360.644 112.743 387.418Z" fill="#76B82A"/>
<path d="M235.138 228.969C235.764 233.979 238.112 238.677 239.52 243.53C247.659 231.004 256.58 215.347 250.633 200.16C246.25 198.281 241.555 197.185 236.86 197.028C238.268 207.832 236.703 218.322 234.981 228.812L235.138 228.969Z" fill="#76B82A"/>
<path d="M253.92 612.1C250.164 631.201 246.251 650.46 243.434 669.875L253.92 612.1Z" fill="#4C742C"/>
<path d="M241.71 679.426C241.71 679.895 241.71 680.365 241.867 680.678C242.336 677.077 242.806 673.632 243.275 670.031L241.554 679.426H241.71Z" fill="#4C742C"/>
<path d="M314.02 581.255C331.706 709.645 318.402 845.393 362.226 968.928C341.723 847.741 336.245 699.937 325.602 577.654C325.602 577.654 320.75 579.22 314.176 581.255H314.02Z" fill="white"/>
<path d="M191.94 880.152C196.322 884.067 200.548 888.451 198.983 894.557C196.948 915.851 198.67 937.458 203.835 958.282C204.617 934.796 203.835 910.684 210.565 888.138C210.408 882.657 203.052 877.804 205.713 872.95C207.748 869.192 215.104 868.723 214.791 864.339C213.226 860.111 209.313 856.823 208.217 852.283H208.374C221.99 761.158 241.085 669.25 260.493 579.221C245.468 632.612 204.93 774.936 193.035 826.761C190.688 835.842 188.496 846.02 192.722 854.475C204.148 870.758 179.888 866.061 191.94 880.466V880.152Z" fill="white"/>
<path d="M158.915 155.067C152.498 148.491 167.21 145.359 160.793 138.94C156.411 135.965 149.681 143.637 147.803 136.435C148.116 145.359 157.976 137.061 160.167 141.758C158.602 148.334 151.09 148.177 157.35 156.476C160.793 158.042 166.115 153.657 169.402 151.935C165.958 153.344 162.515 154.284 158.915 155.067Z" fill="black"/>
<path d="M207.591 93.2199C211.347 92.2805 214.008 95.0988 217.451 96.9777C215.886 84.4519 197.73 87.2702 197.73 98.8565C200.861 96.1948 203.991 94.1594 207.591 93.2199Z" fill="black"/>
<path d="M249.066 86.6447C252.04 85.5487 255.014 87.7407 258.144 88.9933C255.64 77.5636 240.145 81.791 239.832 92.1248C242.962 90.0893 245.936 88.0539 249.066 86.8013V86.6447Z" fill="black"/>
<path d="M240.773 135.964C245.625 140.348 236.86 141.288 233.26 142.697C255.798 142.071 237.486 133.459 232.008 111.539C232.634 120.307 235.921 128.762 240.773 136.121V135.964Z" fill="black"/>
<path d="M224.181 155.225C228.094 162.427 237.798 163.679 245.154 162.114C237.641 160.391 230.442 159.922 224.337 154.911C224.807 153.502 224.964 152.093 224.651 150.527C222.146 152.876 221.051 155.694 221.52 159.139C222.929 158.043 223.555 156.634 224.181 155.225Z" fill="black"/>
<path d="M210.722 107.625C206.809 107.312 206.809 125.474 210.722 125.161C214.635 125.474 214.635 107.312 210.722 107.625Z" fill="black"/>
<path d="M252.041 100.58C247.972 100.267 247.972 119.369 252.041 119.055C256.111 119.369 256.111 100.267 252.041 100.58Z" fill="black"/>
<path d="M186.618 132.207C179.262 116.236 174.097 99.4831 169.871 82.4168C169.245 99.7963 173.94 117.176 182.079 132.363C171.28 139.409 175.349 140.035 165.958 131.111C172.845 145.046 174.097 140.975 185.835 134.868C186.775 134.399 187.088 133.146 186.618 132.207ZM137.629 81.1642C134.968 78.0328 133.09 74.9013 131.995 71.9265C132.777 75.0579 134.499 78.1893 137.629 81.1642ZM418.416 416.385C411.686 392.899 394.469 374.267 380.539 354.852C397.599 329.957 390.869 331.993 376 310.073C361.601 290.345 345.95 267.798 330.298 249.166C323.725 236.64 293.048 229.281 278.961 226.62C270.823 210.336 256.736 196.871 237.642 196.714C262.84 199.846 273.327 223.645 283.187 243.999C261.275 234.918 256.11 231.317 244.372 255.899C242.024 248.54 237.172 235.388 234.511 228.029C255.797 312.891 249.537 403.39 261.432 490.287C248.598 486.06 234.981 488.721 222.303 492.01C235.294 495.141 248.441 492.323 261.588 491.07L262.371 499.055C249.693 497.02 235.45 495.924 223.399 501.091C213.225 424.84 211.347 347.024 191.627 272.339C196.165 271.399 183.644 241.964 183.331 236.171C200.078 242.747 220.738 239.772 234.511 228.029C234.511 228.029 234.824 227.872 234.824 227.716C234.824 227.872 234.824 228.185 234.824 228.342C238.894 217.225 238.894 204.856 235.763 193.426C283.657 188.103 271.605 105.276 259.241 73.8053C275.675 64.7241 281.935 40.4555 275.362 23.3891C274.892 22.2931 273.483 21.8234 272.388 22.2931C269.414 27.3034 265.345 32.7834 258.458 32.0006C265.032 23.2325 266.597 11.1765 262.527 0.842704C262.214 -0.253301 260.649 -0.253298 260.18 0.686134C250.476 12.7422 233.729 8.35816 220.112 10.3936C192.566 12.1159 118.847 37.324 131.838 71.6133C129.177 60.9664 138.099 50.3195 147.803 42.6475C144.046 50.0064 143.577 59.5573 148.272 66.603C148.898 57.5218 150.15 48.1275 152.028 39.2029C155.628 36.5412 159.541 34.036 163.454 32.0006C155.472 40.7686 151.402 53.7641 154.376 65.3504C157.193 52.5115 161.889 40.4555 168.932 29.3388C175.349 26.2074 182.079 23.8588 188.966 21.8234C173.784 30.4348 160.637 47.3446 163.297 65.507C166.271 49.5366 176.288 36.5411 188.496 26.364C207.591 6.79244 241.555 22.9194 260.806 4.44386C264.093 13.3685 263.154 23.8588 258.145 32.1571C236.546 25.268 210.721 25.4245 193.974 43.1172C230.599 12.8988 255.641 48.9104 272.701 29.652C273.953 35.2886 273.17 41.5515 271.762 47.3446C262.214 46.8749 252.98 42.804 243.12 44.996C251.571 48.9103 261.901 52.5115 271.136 49.3801C270.197 52.5115 269.101 55.4864 267.692 58.3047C247.972 54.2338 228.564 39.0463 210.878 57.835C231.694 45.4658 246.719 60.6533 267.223 59.2441C246.719 93.3768 195.852 39.9857 169.715 82.8865C198.044 49.6932 224.025 82.8865 258.771 73.8053C271.762 124.848 275.049 218.165 196.165 183.249C207.747 189.669 221.051 193.27 234.355 193.426C232.79 204.7 232.633 216.129 234.511 227.403C217.921 233.822 200.548 236.327 182.705 235.075C180.827 228.342 177.071 214.094 175.193 207.205C178.01 226.307 181.923 245.095 186.931 263.727C185.835 262.631 167.21 245.722 166.584 245.095C166.584 245.095 166.741 245.408 166.741 245.565C164.393 240.868 144.516 250.888 139.351 251.515C146.394 233.979 152.341 202.038 173.627 197.967C173.94 200.159 174.253 202.351 174.566 204.543C174.566 202.194 174.723 200.002 174.566 197.654C174.566 197.654 174.723 197.654 174.879 197.654C174.879 197.654 174.723 197.654 174.566 197.654C173.94 190.921 174.253 164.774 167.993 162.738C134.812 170.723 128.238 113.105 165.019 131.424C158.445 126.257 147.959 121.873 141.072 129.232C134.499 119.524 122.604 105.903 129.334 94.3163C128.082 101.988 131.055 111.07 138.255 114.671C135.125 106.685 132.308 98.2306 133.716 89.7757C135.907 88.2099 138.412 86.9574 141.229 86.0179C136.846 94.9426 139.507 107.625 148.116 113.105C144.829 104.024 143.107 95.0991 142.794 85.5482C144.829 84.9219 147.02 84.6088 149.211 84.1391C144.672 93.3768 149.055 105.12 157.037 110.913C154.533 101.675 151.089 93.3768 150.463 83.8259C152.654 83.5128 155.002 83.0431 157.193 82.7299C153.594 93.2203 158.289 107.155 167.836 112.948C163.454 103.084 160.167 93.2203 157.819 82.7299C160.637 82.4168 163.454 82.1036 166.428 81.7905C157.35 80.2248 147.646 80.0682 138.568 82.5734C137.942 82.1036 137.473 81.6339 137.003 81.0076C137.473 81.4773 137.942 82.1036 138.412 82.5734C112.274 90.0888 124.638 118.272 140.916 129.388C125.577 146.611 146.394 172.289 166.897 167.122C169.714 177.143 171.906 187.32 173.471 197.654C156.254 198.124 149.994 217.225 142.951 230.064C119.004 241.964 101.318 263.571 77.9971 275.47C47.0073 297.547 33.5471 337.16 23.8432 372.545C63.2848 217.225 187.714 263.884 100.692 400.571C78.9362 383.348 53.7374 370.353 26.9735 362.994C50.4506 375.833 76.432 389.142 100.379 400.884C98.8135 403.233 97.0919 405.582 95.3702 407.93C72.5191 394.152 48.5725 382.096 23.9997 371.919C42.6249 381 60.7806 390.707 78.6232 401.354C67.9802 415.759 60.9371 433.138 58.9024 450.988C67.0411 435.017 73.6148 418.577 79.0928 401.511C84.5708 403.546 91.9269 411.845 97.2484 411.062C104.135 402.607 110.083 393.526 115.248 384.131C123.23 425.779 144.046 465.236 141.072 508.606C134.186 510.015 127.456 511.738 120.726 513.616C98.1875 492.323 72.2061 454.276 42.6249 442.846C73.1452 454.902 96.4658 499.525 120.726 518.627C145.924 511.894 166.741 498.742 188.34 519.41C198.357 526.299 208.687 535.223 196.635 541.799C189.435 530.839 175.975 514.086 160.793 521.288C171.123 520.036 177.071 526.925 183.801 533.188C187.557 538.042 201.33 546.183 192.566 551.82C183.488 540.703 170.497 525.359 154.063 532.562C169.715 530.839 179.575 544.618 189.279 554.325C187.088 562.31 183.331 559.179 177.54 557.457C175.506 541.643 160.95 530.526 144.672 537.885C167.836 529.587 188.027 578.281 154.689 548.062C152.341 547.749 148.272 549.315 148.116 549.315C135.751 552.916 119.786 564.502 108.83 553.542C83.4752 534.441 59.2154 513.93 35.4253 492.949C26.1909 483.711 11.9481 474.473 5.06149 463.513C-0.10348 438.305 20.0869 399.162 28.5386 374.267C17.8957 398.536 -5.42496 439.245 1.14863 465.392C7.87875 477.448 22.5911 486.843 32.295 496.55C57.1807 518.47 83.1621 539.607 110.865 558.239C125.108 566.694 139.194 548.532 153.75 549.941C157.976 556.517 171.436 570.296 177.384 558.083C180.67 559.805 184.114 564.189 188.183 561.841C191 559.805 194.444 556.048 192.879 552.446C198.2 551.977 199.922 545.87 196.791 541.956C216.825 532.405 179.575 512.051 172.532 506.414C162.671 502.187 151.559 507.51 141.385 508.919C150.776 465.705 129.49 424.057 115.561 384.288C130.586 353.443 149.994 308.82 122.76 279.385C132.308 272.809 140.29 264.197 146.237 254.333C151.402 252.767 158.758 250.419 163.923 249.166C173.001 256.838 181.297 266.076 190.844 272.495C206.495 380.06 225.434 488.722 223.712 597.852C220.582 595.504 148.116 590.963 137.003 590.18C137.316 579.22 138.255 567.634 137.942 556.83C136.064 567.947 135.594 579.846 134.342 591.276C134.342 592.842 136.22 592.685 137.316 592.999C132.151 755.051 96.4658 919.452 106.796 1080.41C106.639 1083.7 108.361 1086.51 109.613 1089.49C98.5005 1119.39 130.899 1113.6 151.089 1113.13C169.401 1110.16 198.2 1116.58 194.131 1090.74C192.879 1097.16 193.818 1105.93 185.679 1107.34C189.435 1102.17 189.279 1094.81 186.149 1089.49C188.966 1089.33 191.783 1089.18 194.6 1089.18C166.428 1085.57 137.629 1097.63 109.77 1089.49C109.143 1086.51 107.735 1083.54 108.517 1080.41C110.239 1080.09 111.804 1080.88 113.526 1080.88C126.83 1040.79 185.209 1046.9 194.757 1087.14C193.505 1056.77 153.437 1037.98 128.082 1054.89C129.647 1041.73 147.176 1048.31 154.063 1043.93C151.089 1039.7 145.611 1037.04 141.855 1033.44C163.141 1024.04 176.914 1049.25 194.6 1054.73C206.026 1048.47 190.061 1036.57 187.244 1029.83C185.835 1008.23 191.47 983.646 191.627 961.883C189.122 984.429 181.297 1008.85 183.175 1031.4C185.522 1038.6 193.974 1042.67 193.505 1050.19C183.018 1044.24 174.253 1033.59 162.358 1029.68C157.35 1019.19 141.385 1017.31 137.003 1006.51C137.316 940.119 141.698 595.817 226.529 603.176C232.007 600.044 227.468 567.477 228.251 559.336C227.625 543.365 226.373 527.082 224.338 511.268C237.172 514.086 250.476 511.738 262.84 507.98C265.501 535.38 268.162 562.624 269.414 590.18C287.1 590.963 308.699 586.266 325.133 578.75C331.707 575.619 337.185 572.018 340.315 567.79C340.002 563.093 338.906 557.77 338.437 553.073C347.202 555.108 360.036 538.355 352.993 530.996C368.644 490.287 404.173 458.66 417.946 416.855L418.416 416.385ZM139.82 257.778C133.09 263.727 126.83 270.616 122.291 278.445C114.465 270.93 103.039 268.111 92.5529 270.303C110.396 259.187 127.143 246.504 142.481 232.256C140.446 239.302 125.734 263.258 142.794 255.116C141.698 255.899 140.759 256.838 139.664 257.621L139.82 257.778ZM162.828 247.131C162.984 247.444 163.297 247.914 163.454 248.227C162.984 247.914 162.828 247.444 162.828 247.131ZM173.627 1090.43C177.697 1089.8 181.766 1089.33 185.835 1089.02C183.331 1094.81 183.644 1101.08 184.427 1107.18C180.67 1107.81 176.914 1107.81 173.158 1107.96C175.662 1102.48 175.819 1096.06 173.627 1090.43ZM162.358 1096.06C162.045 1094.97 161.732 1093.72 161.263 1092.62C165.019 1091.99 168.775 1091.37 172.532 1090.74C170.028 1096.22 169.558 1102.33 171.749 1108.28C168.306 1108.28 164.706 1108.59 161.263 1108.75C162.984 1104.83 163.141 1100.45 162.358 1096.22V1096.06ZM150.776 1097.47C150.62 1096.53 150.307 1095.6 149.994 1094.5C153.28 1094.03 156.567 1093.4 159.854 1092.93C157.663 1097.94 157.663 1103.58 159.541 1108.75C156.254 1108.75 152.967 1109.06 149.681 1109.06C151.246 1105.46 151.559 1101.39 150.933 1097.63L150.776 1097.47ZM147.959 1094.81C145.924 1099.2 145.768 1104.36 147.333 1108.9C144.203 1108.9 141.072 1108.9 137.942 1108.9C139.507 1104.68 139.664 1099.98 137.942 1095.91C141.385 1095.6 144.672 1095.28 148.116 1094.81H147.959ZM126.986 1106.87C128.238 1103.42 128.551 1099.82 127.456 1096.22C130.273 1096.22 132.934 1096.22 135.594 1096.22C133.873 1100.29 133.873 1104.99 135.594 1109.06C132.464 1109.06 129.334 1108.9 126.204 1108.75C126.517 1108.12 126.83 1107.49 126.986 1107.02V1106.87ZM117.439 1096.85C117.439 1096.22 117.126 1095.75 116.813 1095.13C119.473 1095.6 122.291 1095.91 125.108 1096.06C123.073 1099.82 122.604 1104.21 123.699 1108.43C121.352 1108.43 118.691 1108.12 116.813 1107.65C118.221 1104.21 118.378 1100.45 117.439 1096.85ZM112.587 1094.34C113.213 1094.34 113.839 1094.66 114.465 1094.81C113.056 1098.26 112.9 1102.17 113.839 1105.77C112.43 1102.33 112.587 1098.1 112.587 1094.5V1094.34ZM386.643 332.932C378.191 361.115 351.428 379.121 325.603 390.551C325.603 387.419 325.603 384.288 325.603 381.156C352.367 373.798 371.931 352.504 382.887 327.609C384.139 329.331 385.391 331.053 386.643 332.932ZM330.298 249.323C347.045 274.844 364.888 302.244 382.574 327.139C367.079 348.589 349.393 368.161 325.603 380.374C325.916 336.69 325.133 292.693 330.298 249.323ZM280.996 230.064C280.527 229.125 279.901 228.185 279.431 227.246C296.648 231.004 313.864 237.423 327.95 248.383C327.481 251.515 326.855 254.49 326.542 257.621C314.177 249.01 300.404 242.903 285.848 238.989C284.283 236.014 282.718 233.196 281.153 230.221L280.996 230.064ZM224.651 510.642C224.181 507.51 223.868 504.222 223.399 500.934C236.39 502.03 249.537 503.126 262.371 499.682L262.997 507.04C250.006 505.162 237.016 507.197 224.494 510.798L224.651 510.642ZM285.379 587.362C280.683 587.988 275.988 588.615 271.292 588.928C264.093 480.267 256.58 370.823 244.998 262.788C249.067 255.429 252.98 244.782 261.588 241.181C268.475 240.555 299.308 261.535 286.787 241.181C298.995 248.853 312.142 254.959 326.229 258.247C315.273 361.115 321.064 465.392 337.654 567.321C323.568 578.907 304.16 584.7 285.222 587.362H285.379ZM347.202 517.531C351.584 525.672 345.167 536.476 337.185 539.764C335.933 530.213 334.837 520.662 333.898 511.111C337.185 508.136 340.159 504.848 342.663 501.247C347.358 511.738 340.785 518.314 336.715 527.395C340.941 524.733 344.541 521.915 347.358 517.687L347.202 517.531ZM333.898 510.955C332.959 502.656 332.176 494.358 331.394 485.903C344.228 498.429 344.697 495.767 333.898 510.955ZM351.897 537.102C347.515 540.703 344.854 550.098 338.593 550.098C338.437 548.532 337.498 541.956 337.341 540.547C343.758 542.113 348.923 535.85 351.584 530.996C351.584 532.875 352.836 535.537 351.897 537.102ZM352.523 528.961C355.027 523.95 351.115 519.096 348.141 515.652C350.332 509.859 347.202 504.222 342.976 500.621C347.358 494.671 338.593 489.504 335.776 485.12C362.071 484.651 354.714 408.87 389.304 413.88C361.914 404.486 351.584 460.538 343.132 478.544C339.845 480.267 334.994 481.049 331.237 482.302C328.733 452.553 326.229 420.613 325.759 390.707C346.576 383.975 367.392 372.545 380.696 354.696C391.808 375.05 408.712 394.465 414.19 417.168C398.069 456.624 365.201 488.878 353.619 530.213C353.306 529.743 353.149 529.274 352.836 528.804L352.523 528.961ZM182.079 132.52C171.28 139.566 175.349 140.192 165.958 131.267C172.845 145.202 174.097 141.131 185.835 135.025C186.775 134.555 187.088 133.303 186.618 132.363C179.262 116.393 174.097 99.6397 169.871 82.5734C169.245 99.9529 173.94 117.332 182.079 132.52ZM104.761 1076.34C104.448 1074.77 103.666 1073.05 103.352 1071.33C103.666 1073.05 104.135 1074.61 104.761 1076.34ZM102.257 1049.72C102.257 1052.69 102.257 1055.67 102.413 1058.8C102.413 1055.51 102.413 1052.22 102.413 1049.09C102.413 1049.25 102.413 1049.56 102.413 1049.72H102.257Z" fill="black"/>
<path d="M359.567 399.319C355.184 393.526 350.802 387.576 344.854 383.192C350.959 396.344 359.254 408.557 370.053 418.265C367.549 411.375 363.636 405.269 359.567 399.163V399.319Z" fill="black"/>
<path d="M433.91 1074.77C422.484 1058.49 399.946 1054.1 381.321 1057.23C343.288 903.481 343.444 735.009 325.445 578.124C337.34 737.671 336.871 902.541 381.164 1057.23C380.538 1057.23 379.912 1057.39 379.443 1057.55C378.504 1053.95 374.904 1051.91 371.304 1053.01C371.617 1055.67 373.339 1057.55 375.686 1058.33C363.009 1061.62 351.27 1068.51 341.879 1077.43C364.574 1061.78 395.407 1053.95 420.606 1068.04C427.649 1071.48 437.353 1080.41 429.84 1087.61C428.432 1090.9 437.04 1089.02 432.658 1101.54C434.849 1097.63 436.57 1091.68 432.501 1088.24C436.257 1084.79 436.257 1078.69 433.91 1074.61V1074.77Z" fill="black"/>
<path d="M424.207 1103.27C426.555 1099.2 426.398 1093.87 423.581 1090.12C425.459 1089.8 427.181 1089.65 429.059 1089.33C385.235 1089.33 339.689 1087.3 296.335 1093.09C298.213 1093.09 300.248 1093.09 302.126 1093.09C299.465 1097.16 299.309 1102.17 300.874 1106.56C299.778 1106.56 298.683 1106.56 297.587 1106.56C296.961 1097.63 295.865 1088.86 293.831 1080.09C318.56 1066.16 345.637 1056.3 373.653 1051.44C357.532 1053.48 341.411 1057.39 326.073 1062.72C311.673 1045.49 300.874 1024.04 294.457 1002.43C293.674 993.04 302.752 989.596 301.187 984.429C298.683 979.575 292.266 984.116 288.509 983.176C300.091 974.095 309.795 962.196 314.647 947.948C308.23 956.403 297.587 975.661 286.005 963.605C281.623 956.089 310.265 945.599 316.056 920.548C310.108 931.508 291.483 933.543 291.327 918.356C286.788 889.233 285.692 859.484 287.883 830.049C289.448 816.427 289.135 802.649 284.44 789.497C235.138 654.062 234.512 727.181 261.119 576.559C243.433 667.214 217.452 762.097 206.496 852.752C213.226 862.303 215.73 861.833 205.087 868.722C197.731 874.985 208.844 882.187 209.157 887.824C202.426 895.653 204.774 910.057 204.148 919.608C203.679 941.372 203.053 994.606 202.739 1017.15C199.296 1033.44 216.2 1072.89 197.418 1077.59C212.287 1072.89 206.652 1053.79 205.4 1037.19C204.305 994.293 207.904 938.553 209.47 895.809C221.208 881.405 203.366 879.526 208.217 871.697C211.504 869.035 217.139 867.156 217.139 861.833C215.417 851.969 206.809 852.439 211.348 840.07C221.052 790.749 230.756 741.272 240.146 691.952C243.903 730.469 252.511 768.829 262.528 806.25C262.528 856.666 259.085 911.31 277.24 960.004C267.223 966.11 263.467 981.454 277.24 985.369C278.179 986.151 277.24 986.934 276.614 987.56C265.189 996.172 279.901 1003.06 278.805 1015.43C281.779 1037.35 285.066 1059.11 288.196 1081.03C289.135 1084.01 292.109 1080.88 293.831 1080.25C292.892 1089.18 293.048 1098.1 293.518 1107.03C293.518 1112.51 300.874 1110.94 304.474 1110.63C311.83 1109.53 318.404 1102.01 325.603 1106.71C324.821 1105.46 323.568 1104.52 322.16 1103.89C324.351 1100.76 324.508 1096.69 322.629 1093.4C325.916 1093.4 329.203 1093.4 332.49 1093.4C330.768 1097.32 330.768 1101.7 333.116 1105.3C330.925 1105.46 328.89 1105.77 326.699 1105.93C361.601 1108.28 397.6 1110.63 431.876 1102.64C429.529 1102.64 427.181 1102.8 424.99 1102.95L424.207 1103.27ZM308.543 1102.8C308.7 1103.42 309.013 1104.05 309.326 1104.68C307.291 1105.3 305.413 1105.93 303.378 1106.09C305.1 1101.86 305.1 1097 302.752 1092.93C305.1 1092.93 307.604 1092.93 309.952 1093.09C308.074 1095.91 307.761 1099.35 308.543 1102.64V1102.8ZM317.934 1103.11C315.743 1103.11 313.708 1103.42 311.673 1104.05C313.239 1100.61 313.082 1096.53 311.204 1093.25C314.021 1093.25 316.838 1093.25 319.656 1093.25C317.934 1096.38 318.09 1100.29 320.125 1103.27C319.343 1103.11 318.56 1102.95 317.934 1102.95V1103.11ZM343.446 1094.97C342.194 1098.1 342.037 1101.55 343.446 1104.68C340.159 1104.83 336.872 1105.15 333.429 1105.46C335.777 1101.86 335.933 1097.47 334.211 1093.56C337.498 1093.56 340.785 1093.56 344.072 1093.56C343.915 1094.03 343.602 1094.34 343.446 1094.81V1094.97ZM352.367 1104.21C350.019 1104.21 347.672 1104.52 345.324 1104.52C347.359 1101.39 347.828 1097.32 346.733 1093.72C350.645 1093.72 354.558 1093.72 358.628 1093.72C357.219 1097 357.376 1100.76 358.784 1104.05C356.593 1104.05 354.558 1104.05 352.367 1104.21ZM361.288 1103.89C362.697 1100.61 362.697 1097 361.288 1093.72C364.106 1093.72 366.923 1093.72 369.74 1093.72C368.645 1097 368.801 1100.61 370.366 1103.74C367.392 1103.74 364.262 1103.74 361.288 1103.89ZM378.661 1103.58C376.783 1103.58 374.905 1103.58 373.027 1103.58C374.123 1100.29 373.966 1096.53 372.401 1093.56C376.001 1093.56 379.444 1093.4 383.044 1093.25C381.635 1096.53 381.792 1100.29 383.044 1103.58H378.661ZM385.861 1103.58C387.27 1100.29 387.113 1096.53 385.548 1093.25C388.991 1093.25 392.435 1092.93 395.722 1092.78C394.156 1096.22 394.156 1100.29 395.722 1103.74H385.705L385.861 1103.58ZM404.956 1103.58H398.382C399.947 1099.98 399.791 1095.91 398.069 1092.46C402.452 1092.15 406.834 1091.84 411.216 1091.37C409.338 1095.13 409.495 1099.67 411.529 1103.42C409.338 1103.42 407.147 1103.42 404.956 1103.42V1103.58ZM413.408 1103.42C415.129 1099.51 414.973 1094.97 412.625 1091.21C416.068 1090.9 419.512 1090.43 422.955 1089.96C420.451 1094.03 420.451 1098.88 423.112 1103.11C419.825 1103.11 416.538 1103.27 413.251 1103.42H413.408Z" fill="black"/>
</g>
<defs>
<linearGradient id="paint0_linear_2488_4697" x1="381.479" y1="786.052" x2="101.788" y2="786.052" gradientUnits="userSpaceOnUse">
<stop stop-color="#0ABBEF"/>
<stop offset="0.2" stop-color="#0D9ACF"/>
<stop offset="0.8" stop-color="#14598E"/>
<stop offset="1" stop-color="#174075"/>
</linearGradient>
<clipPath id="clip0_2488_4697">
<rect width="436" height="818" fill="white"/>
</clipPath>
</defs>
</svg>
