<svg width="185" height="185" viewBox="0 0 185 185" fill="none" xmlns="http://www.w3.org/2000/svg">
<g filter="url(#filter0_d_2932_20309)">
<circle cx="95" cy="90" r="90" fill="#0ABBEF"/>
</g>
<mask id="mask0_2932_20309" style="mask-type:alpha" maskUnits="userSpaceOnUse" x="5" y="0" width="180" height="180">
<circle cx="95" cy="90" r="90" fill="white"/>
</mask>
<g mask="url(#mask0_2932_20309)">
<path d="M181.796 512.813C181.461 512.645 181.126 512.31 180.874 512.059C174.091 506.781 167.391 501.504 160.607 496.226C158.765 494.802 158.597 494.551 159.267 492.037C159.853 492.037 160.272 492.54 160.44 492.959C160.775 493.88 161.361 494.383 162.282 494.551C162.617 494.551 162.868 494.886 163.12 495.137C169.066 500.331 175.682 504.771 181.628 509.964C182.466 510.718 183.303 511.472 184.392 512.059C184.392 511.305 184.392 510.718 184.476 510.132C184.476 510.132 184.392 509.964 184.392 509.881C182.131 508.456 180.288 506.446 178.111 504.854C173.756 501.587 169.568 498.153 165.297 494.886C163.957 493.88 163.371 492.875 163.371 491.032C163.622 467.241 163.706 443.45 163.873 419.743C163.873 419.073 163.873 418.403 163.957 417.733C163.957 417.398 163.957 417.063 163.957 416.728C164.125 383.052 164.292 349.292 164.543 315.616C164.543 314.695 164.543 313.773 164.711 312.852C164.46 312.433 164.543 311.93 164.543 311.428C164.543 301.375 164.627 291.323 164.627 281.27C164.627 280.097 164.878 279.092 165.548 278.087C168.396 273.48 171.243 268.956 174.091 264.349C173.923 264.181 173.756 263.93 173.505 263.762C170.49 267.699 167.391 271.72 165.13 276.16C164.376 275.825 164.711 275.323 164.711 274.904C164.711 271.469 164.711 268.118 164.711 264.684C164.711 263.846 164.878 263.176 165.381 262.422C167.977 258.401 170.49 254.296 173.086 250.191C176.017 245.668 178.446 240.809 180.958 236.034C181.042 235.783 181.209 235.615 181.377 235.364C181.209 235.113 181.042 234.861 180.791 234.778C177.273 239.72 174.426 245.081 171.243 250.275C169.317 253.375 167.139 256.39 165.464 259.657C165.381 259.825 165.213 259.992 164.962 259.909C164.627 259.574 164.795 259.155 164.795 258.82C164.795 250.024 164.795 241.312 164.795 232.516C164.795 232.181 164.795 231.846 164.878 231.51C164.878 230.673 164.878 229.919 164.878 229.081C164.878 222.547 164.962 215.929 165.046 209.395C165.046 208.557 165.046 207.803 165.13 206.966C164.878 205.039 165.046 203.112 165.046 201.185C165.046 195.489 165.129 189.793 165.046 184.096C165.046 182.84 165.464 182.002 166.302 181.08C169.652 177.311 172.667 173.29 175.179 168.934C175.347 168.682 175.598 168.431 175.347 167.761C171.494 171.447 168.647 175.719 165.213 179.74C165.213 178.232 165.213 176.724 165.213 175.217C165.213 174.379 165.799 173.876 166.218 173.29C168.312 170.442 170.322 167.51 172.332 164.578C172.583 164.243 172.834 163.991 172.834 163.237C170.908 163.74 169.819 165.08 168.814 166.588C167.809 168.096 166.721 169.52 165.632 171.028C165.13 169.688 165.046 162.148 165.464 158.714C165.464 158.211 165.381 157.625 165.381 157.122C165.548 143.719 165.632 130.232 165.381 116.828C165.381 115.488 166.051 115.32 166.972 115.069C172.834 113.561 178.613 111.551 184.392 109.708C184.392 109.038 184.559 108.367 184.224 107.614C180.707 108.786 177.273 109.959 173.756 111.132C171.076 111.97 168.396 112.891 165.799 113.98C165.13 114.231 164.711 114.399 164.543 113.394C164.46 112.724 163.706 112.556 163.203 112.305C162.366 111.802 161.445 111.383 160.44 110.797C161.528 110.21 162.45 110.043 163.455 109.708C169.903 107.697 176.352 105.687 182.801 103.676C184.559 103.09 184.559 103.09 184.559 101.163C184.559 96.7234 184.559 92.3673 184.559 87.9274C184.559 87.341 184.727 86.7546 184.308 86.0845C181.628 87.006 178.864 87.8437 176.184 88.7651C171.327 90.4406 166.469 92.116 161.612 93.7914C161.193 93.9589 160.858 94.0427 160.44 94.2102C160.188 94.294 159.853 94.294 159.77 94.0427C159.602 93.7076 159.686 93.2887 160.021 93.205C160.775 92.8699 161.528 92.6186 162.282 92.451C169.317 90.6081 176.184 88.1787 183.052 85.8332C184.224 85.4143 184.727 84.8279 184.392 83.6551C180.539 84.9117 176.687 86.1682 172.834 87.4248C168.814 88.6814 164.795 89.9379 160.775 91.1945C160.44 91.2783 160.188 91.4458 159.77 91.1945C159.435 90.6919 159.602 90.0217 159.602 89.5191C159.602 79.4666 159.686 69.4979 159.77 59.4454C159.77 59.1941 159.77 58.9428 159.853 58.6914C159.853 57.2673 159.853 55.927 159.853 54.5029C159.937 40.6807 160.021 26.8586 160.105 13.0364C160.105 11.4448 160.523 10.5233 162.115 9.93688C166.721 8.09393 171.16 6.08343 175.682 3.98916C178.027 2.90014 180.288 1.64358 182.633 0.470791C183.219 0.135708 183.806 -0.199375 184.476 -0.366917C184.476 -5.30939 184.476 -10.2519 184.476 -15.1943H170.406C170.154 -14.6079 169.652 -14.5242 169.149 -14.2729C164.292 -11.5922 159.351 -9.07907 154.493 -6.39841C146.872 -2.20987 139.251 2.06244 131.63 6.25097C121.077 12.0312 68.4829 40.7645 56.3392 47.5499C50.1418 50.9845 43.9442 54.5029 37.7468 57.9375C37.2443 58.1888 36.8256 58.4401 36.3231 58.6077C36.0719 58.6914 35.8206 58.7752 35.5693 58.9428V410.696C44.6143 418.235 53.6592 425.775 62.7041 433.314C81.0452 448.56 99.3025 463.807 117.309 479.472C120.491 482.236 123.59 485.084 127.024 487.598C129.117 489.105 131.295 490.697 133.137 492.456C138.246 497.399 143.522 502.174 149.133 506.446C153.991 510.132 158.178 514.572 162.785 518.509C168.312 523.2 173.923 527.975 179.283 532.918C180.791 534.342 182.466 535.682 184.392 537.357C184.392 536.268 184.392 535.598 184.392 534.928C184.392 529.315 184.224 523.703 184.392 518.09C184.476 515.577 183.889 513.818 181.628 512.729L181.796 512.813ZM163.287 114.315C163.873 114.65 163.622 115.069 163.622 115.572C163.622 120.766 163.622 125.876 163.455 131.069C163.12 146.483 163.203 161.897 163.12 177.311C162.952 195.74 162.952 214.17 162.701 232.599C162.533 246.673 162.533 260.746 162.282 274.82C162.031 291.155 162.115 307.491 161.863 323.826C161.612 340.077 161.696 356.413 161.528 372.664C161.277 393.104 161.361 413.544 161.11 433.901C160.858 451.409 160.858 469 160.775 486.509C160.775 487.849 160.775 489.189 160.775 490.613C159.435 490.278 159.016 489.608 159.1 488.603C159.1 488.016 159.1 487.43 159.1 486.76C159.183 425.105 159.267 363.366 159.351 301.71C159.351 272.893 159.351 244.076 159.351 215.343C159.351 184.766 159.435 154.106 159.602 123.53C159.602 120.179 159.435 116.828 159.267 113.478C159.267 113.142 159.267 112.724 159.267 112.137C160.858 112.807 162.031 113.729 163.287 114.399V114.315ZM173.588 -4.22037C173.253 -3.46643 172.583 -3.21512 171.997 -2.79627C164.878 1.3085 157.508 4.82687 150.306 8.51278C116.304 25.8533 82.2178 42.9426 48.2993 60.4506C46.7918 61.2046 45.368 62.0423 43.8605 62.88C43.1905 63.2988 42.5205 63.4664 41.9343 62.7962C41.9343 62.2936 42.353 62.2098 42.688 62.0423C81.799 41.686 120.575 20.9946 159.602 0.470791C164.041 -1.87479 168.731 -3.21512 173.672 -4.1366L173.588 -4.22037ZM39.2543 61.4559C38.6681 61.1208 37.9143 60.9533 37.3281 60.3669C37.7468 59.6967 38.4168 59.4454 39.003 59.1941C70.9115 42.1048 102.569 24.513 134.31 7.08868C140.842 3.48654 147.375 -0.0318336 153.823 -3.63398C155.498 -4.55545 157.257 -5.05808 159.1 -5.5607C161.78 -6.31464 164.543 -7.06857 167.139 -7.99005C167.642 -8.15759 168.144 -8.40891 168.731 -8.32514C168.479 -7.48743 167.81 -7.15235 167.307 -6.73349C165.548 -5.39316 163.706 -4.1366 161.78 -3.13135C123.59 16.9736 85.4002 37.0786 47.2105 57.2673C44.8655 58.5239 42.4368 59.6967 40.2593 61.2883C39.9243 61.5396 39.5893 61.7072 39.1706 61.4559H39.2543ZM45.4518 185.855C45.2843 204.788 45.033 223.72 44.8655 242.736C44.698 261.082 44.6142 279.427 44.4467 297.773C44.1955 328.517 43.9442 359.261 43.6092 390.005C43.6092 397.376 43.6093 404.748 43.5255 412.12C43.5255 412.371 43.5255 412.623 43.4418 413.042C41.7668 412.371 41.2643 411.366 41.3481 409.775C41.5993 392.015 41.7668 374.256 42.0181 356.58C42.2693 334.381 42.5206 312.265 42.8556 290.066C43.1906 267.197 43.5256 244.244 43.6931 221.374C43.9443 198.84 44.1955 176.389 44.4467 153.855C44.4467 152.096 44.5306 150.337 44.6143 148.661C44.6143 148.326 44.6143 147.907 45.033 147.907C45.6193 147.907 45.5355 148.41 45.6193 148.745C45.6193 149.248 45.6193 149.834 45.6193 150.337C45.7868 162.232 45.4518 174.044 45.3681 185.855H45.4518ZM44.698 64.1365C46.1218 63.4664 47.378 62.88 48.6342 62.2098C72.084 50.3144 95.5338 38.4189 118.984 26.5235C135.566 18.0626 152.148 9.68557 168.731 1.22473C170.154 0.470791 171.578 0.219478 173.421 0.722102C172.499 1.22473 171.913 1.55981 171.243 1.89489C148.128 13.539 124.93 25.0994 101.815 36.7435C84.4789 45.4557 67.1429 54.0841 49.9743 63.1313C49.053 63.6339 48.2155 64.0528 47.378 64.6392C46.4567 65.3093 45.6193 65.1418 44.7818 64.2203L44.698 64.1365ZM130.29 35.6545C105.249 46.7122 80.124 57.5187 55.2504 68.8277C54.2454 69.3303 53.4917 69.3303 52.5705 68.5764C51.398 67.6549 50.058 66.901 48.5505 65.8957C77.2765 51.9898 105.416 37.5812 133.891 23.3402C133.891 25.8533 133.891 28.1151 133.891 30.3769C133.724 35.0681 134.645 33.8115 130.374 35.6545H130.29ZM129.955 59.6967C130.96 58.0213 132.049 56.3459 133.305 54.4191C133.807 56.5972 133.472 58.2726 132.3 59.948C128.447 65.6444 125.014 71.5921 122.082 77.8749C121.831 78.3776 121.664 78.964 121.496 79.5504C121.496 79.6341 121.496 79.8017 121.664 80.2205C125.767 73.7702 128.782 67.0685 133.137 61.037C133.724 61.3721 133.472 61.8747 133.472 62.2936C133.389 75.0267 133.221 87.7599 133.137 100.409C133.137 101.415 132.97 102.085 131.797 102.42C117.392 106.776 103.155 111.635 88.8339 116.242C88.1639 116.409 87.5777 116.828 86.9077 116.745C86.6564 116.912 86.3215 117.163 86.0702 117.247C81.8827 118.588 77.779 119.928 73.5915 121.268C70.9116 122.022 68.3991 123.111 65.6354 123.698C63.6254 124.787 61.3642 125.373 59.1867 125.959C57.763 126.462 56.3392 127.132 54.8317 127.132C54.8317 127.3 54.8317 127.467 54.6642 127.383C54.413 127.3 54.4967 127.048 54.6642 126.881C55.5017 124.703 56.6742 122.692 57.7629 120.598C60.4429 115.739 63.1229 110.881 66.0541 106.189C66.8916 104.765 67.3941 103.174 68.3991 101.833C68.7341 101.331 69.3203 100.912 69.4878 100.325C69.4878 99.8229 69.3204 99.3203 69.2366 98.8176C66.2216 102.587 63.9604 106.86 61.4479 110.881C59.3542 114.315 57.5117 117.834 55.5017 121.352C55.2505 121.771 54.9992 122.273 54.4129 122.692C54.4129 122.19 54.4129 121.687 54.4129 121.184C54.4129 118.504 54.5804 115.823 54.4129 113.142C54.2454 110.378 55.1667 108.032 56.2555 105.687C58.768 100.577 62.0341 95.8857 64.7979 90.9432C66.7241 87.4248 68.4828 83.8227 70.3253 80.2205C70.409 80.053 70.4928 79.8854 70.5766 79.6341C70.5766 79.4666 70.5765 79.2153 70.409 79.1315C70.3253 79.1315 69.9903 79.1315 69.9065 79.1315C69.5716 79.6341 69.1528 80.053 68.9016 80.6394C65.6354 87.4248 61.6154 93.7076 57.5954 100.074C56.5905 101.666 55.7529 103.341 54.8317 105.1C54.2454 104.682 54.4967 104.095 54.4967 103.593C54.4967 93.1212 54.4967 82.5661 54.4129 72.0948C54.4129 71.1733 54.4967 70.6707 55.5017 70.2518C70.4091 63.7177 85.3164 57.1836 100.14 50.6495C100.308 50.6495 100.559 50.6495 100.726 50.5657C102.485 49.4767 104.411 48.7227 106.421 47.9688C109.604 46.4609 112.702 44.953 116.052 43.7803C118.732 42.1886 121.747 41.2671 124.595 40.0943C120.994 47.0473 115.801 52.995 113.372 60.6182C114.294 60.7857 114.377 60.1993 114.629 59.8642C118.146 52.7437 122.669 46.2934 126.772 39.508C127.526 38.2514 128.95 38.0838 130.122 37.5812C131.211 36.9111 132.384 36.4922 133.472 36.0733C134.142 36.4922 133.891 36.9948 133.891 37.4137C133.891 41.4347 133.724 45.4557 133.724 49.4767C133.724 50.7332 133.388 51.8223 132.802 52.9113C131.127 55.6757 129.452 58.4401 127.861 61.2046C127.359 62.126 126.689 62.9638 126.521 64.1365C127.861 63.5501 128.112 63.2151 130.206 59.6967H129.955ZM47.0431 68.2413C48.8018 69.079 50.3092 69.833 51.8167 70.5869C52.4867 70.922 52.3192 71.4246 52.3192 71.9272C52.3192 85.9169 52.3192 99.9066 52.3192 113.896C52.3192 118.336 52.403 122.692 52.4868 127.132C52.4868 127.719 52.6542 128.137 51.9004 128.389C50.393 128.808 48.8855 129.478 47.0431 129.729C46.9593 109.205 47.4618 88.8489 47.0431 68.1575V68.2413ZM47.7967 132.745C47.5455 132.745 47.2105 132.829 47.1268 132.577C46.9593 132.242 47.1268 131.907 47.5455 131.74C48.048 131.572 48.5505 131.404 49.053 131.237C62.1178 126.965 75.099 122.692 88.1639 118.42C102.569 113.645 117.057 109.205 131.462 104.263C131.797 104.179 132.132 104.011 132.384 103.928C132.802 103.844 133.054 103.928 133.054 104.43C133.054 105.1 132.719 105.352 132.132 105.603C130.457 106.273 128.782 106.943 127.024 107.53C109.604 113.059 92.2676 118.588 74.8478 124.116C65.9704 126.965 57.1767 129.813 48.2993 132.661C48.1318 132.661 47.8805 132.829 47.713 132.829L47.7967 132.745ZM52.9892 246.422C52.5705 245.668 52.7379 245.165 52.7379 244.662C52.9054 222.044 53.073 199.426 53.3242 176.808C53.4917 165.75 53.4917 154.693 53.4917 143.635C53.4917 141.541 53.4917 141.541 55.8367 141.289C55.8367 142.797 55.8367 144.138 55.8367 145.478C55.5855 163.321 55.3342 181.08 55.083 198.924C54.8317 213.332 54.5804 227.741 54.4129 242.066C54.4129 243.657 53.743 244.914 52.9892 246.505V246.422ZM54.1617 263.176C54.1617 264.265 53.6592 265.186 52.9892 266.192C52.4867 265.773 52.6542 265.27 52.6542 264.851C52.6542 261.165 52.6542 257.479 52.6542 253.793C52.6542 252.118 53.3242 250.778 54.1617 249.019C54.1617 253.961 54.1617 258.568 54.1617 263.176ZM51.8167 406.256C51.1467 406.256 51.2305 405.502 51.2305 405C51.2305 399.219 51.398 393.523 51.4817 387.743C51.6492 372.329 51.8167 356.915 51.9004 341.585C52.0679 319.218 52.3192 296.852 52.4029 274.485C52.4029 272.726 52.6542 271.05 53.9942 269.542C53.9942 270.296 53.9942 270.966 53.9942 271.72C53.8267 290.401 53.6592 309.082 53.408 327.763C53.073 349.125 52.8217 370.486 52.6542 391.848C52.6542 396.287 52.4867 400.644 52.4029 405.083C52.4029 405.586 52.5705 406.34 51.8167 406.34V406.256ZM74.3453 427.283C74.0103 427.785 73.6753 427.869 73.1728 427.45C71.9166 426.361 70.5766 425.356 69.2366 424.267C64.0442 420.078 58.9354 415.722 53.5754 411.701C53.3242 411.534 53.0729 411.282 52.8217 411.031C52.5704 410.78 52.3192 410.529 52.6542 410.193C52.9892 409.858 53.1567 409.439 53.8267 409.439C54.078 409.607 54.3292 409.775 54.5805 409.942C55.8367 410.947 57.0929 411.953 58.2654 413.042C63.1228 417.481 68.2316 421.502 73.5078 425.523C73.7591 425.691 74.0941 425.942 74.3453 426.11C74.6803 426.445 74.6803 426.78 74.429 427.115L74.3453 427.283ZM81.464 432.309C81.2127 432.644 80.7102 432.895 80.3752 433.147C80.124 432.979 79.8727 432.895 79.6214 432.728C78.3652 431.723 77.1928 430.717 75.9366 429.712C75.4341 429.293 75.434 428.874 75.769 428.372C76.1877 427.702 76.6065 427.953 77.109 428.372C78.449 429.377 79.7053 430.382 81.0452 431.471C81.3802 431.723 81.8827 431.974 81.5477 432.393L81.464 432.309ZM89.2526 440.602C86.9076 438.675 84.479 436.665 81.8827 434.487C82.804 434.068 83.2227 433.147 84.0602 433.733C86.8239 435.827 89.5877 437.922 92.3514 440.016C90.8439 441.691 90.8439 441.691 89.3364 440.518L89.2526 440.602ZM129.369 473.021C128.615 473.021 128.28 472.519 127.861 472.184C116.471 462.885 105.081 453.503 93.6914 444.204C93.4401 443.953 93.1051 443.785 92.9376 443.534C92.6026 443.115 91.5139 442.948 92.2677 442.026C93.1052 441.105 93.6913 441.021 94.6126 441.775C97.8788 444.456 101.229 447.053 104.411 449.817C111.279 455.681 118.146 461.545 125.432 466.906C125.935 467.325 126.521 467.66 127.107 468.079C129.871 470.09 129.62 469.336 129.369 473.021ZM131.63 245.333C131.63 251.029 131.546 256.725 131.462 262.422C131.462 263.678 131.462 264.935 131.379 266.192C131.63 269.877 131.379 273.563 131.379 277.249C131.379 278.506 130.709 279.679 129.955 280.768C122.417 291.993 115.885 303.805 109.352 315.616C108.85 316.538 108.347 317.543 107.929 318.464C108.264 318.464 108.515 318.632 108.85 318.716C109.269 317.292 110.358 316.286 111.111 315.03C115.801 307.155 120.491 299.365 125.265 291.49C126.856 288.893 128.447 286.38 130.122 283.867C130.374 283.448 130.541 282.946 131.127 282.694C131.546 284.286 131.546 295.511 131.127 299.197C131.127 301.459 131.127 303.721 131.127 305.983C131.127 306.904 130.625 307.658 130.122 308.328C122.669 319.218 116.722 331.03 110.022 342.423C109.52 343.261 109.185 344.098 108.766 344.936C109.101 344.936 109.436 344.936 109.771 344.936C115.131 336.894 120.072 328.601 124.762 320.14C126.437 317.04 128.28 314.025 130.457 311.176C130.457 310.925 130.709 310.59 130.876 310.59C131.379 310.758 131.127 311.176 131.044 311.595C131.044 315.197 131.211 318.883 130.792 322.485C131.044 322.988 130.96 323.574 130.96 324.077C130.709 351.47 130.541 378.863 130.206 406.172C130.039 421.67 129.955 437.084 129.787 452.581C129.787 457.189 129.62 461.796 129.536 466.404C129.536 466.739 129.62 467.074 129.201 467.493C116.974 459.367 106.589 449.063 95.0313 440.183C95.8688 439.094 96.8739 438.508 97.7114 437.754C97.8789 437.586 98.0463 437.335 97.8788 437.084C97.7113 436.833 97.3763 436.833 97.1251 437.084C96.3713 437.586 95.5339 438.089 94.8639 438.675C94.2776 439.178 93.7752 439.262 93.1052 438.759C90.4252 436.665 87.6614 434.654 84.8977 432.56C86.0702 431.304 87.1589 430.131 88.2477 428.958C88.4989 428.707 88.6664 428.455 88.4151 428.12C88.0801 427.785 87.8289 428.037 87.4939 428.12C86.3214 428.958 85.2327 429.796 84.1439 430.633C83.5577 431.052 83.1389 431.052 82.5527 430.633C80.9614 429.293 79.2865 428.037 77.6115 426.696C78.2815 425.356 79.3702 424.351 80.3752 423.345C83.7252 419.911 87.1589 416.476 90.5089 413.042C92.1838 411.282 93.7751 409.523 95.1151 407.513C95.2826 407.261 95.6176 406.926 95.2826 406.675C94.8639 406.34 94.5288 406.675 94.2776 406.926C91.4301 409.942 88.4151 412.79 85.4839 415.722C82.4689 418.738 79.2865 421.586 76.5228 424.937C76.0203 425.607 75.6015 425.44 75.0152 425.021C72.1678 422.927 69.3204 420.749 66.7241 418.403C63.7092 416.309 61.0292 413.879 58.3492 411.366C58.2655 411.366 58.0979 411.282 58.0142 411.199C56.9254 410.361 55.4179 409.691 54.8317 408.518C54.2454 407.429 54.6642 405.754 54.6642 404.413C54.6642 397.628 54.8317 390.759 54.9154 383.973C54.7479 376.601 54.9154 369.23 55.2504 361.858C55.2504 361.104 55.1667 360.434 55.1667 359.68C55.3342 345.941 55.4179 332.203 55.5854 318.464C55.7529 301.04 55.9204 283.616 56.0879 266.192C56.0879 264.851 56.3392 263.678 56.8417 262.506C59.0192 257.563 61.2804 252.621 63.1229 247.511C63.5416 246.422 63.8766 245.249 64.1278 244.16C64.2116 243.741 64.5466 243.49 64.7979 243.238C64.7979 242.987 64.7978 242.736 64.8816 242.484C64.5466 242.484 64.2954 242.484 63.9604 242.484C62.9554 244.16 62.4528 246.17 61.6153 247.93C59.9404 251.448 58.3492 254.966 56.7579 258.485C56.7579 258.652 56.5904 258.82 56.1716 258.82C56.1716 258.401 56.1716 257.898 56.1716 257.396C56.1716 254.045 56.3392 250.694 56.3392 247.343C56.3392 244.914 56.7579 242.736 57.7629 240.558C59.6891 236.202 61.5317 231.846 63.4579 227.489C63.6254 226.987 63.7929 226.484 64.2117 226.065C65.0492 223.301 66.3891 220.788 67.4778 218.191C68.9853 214.505 70.8279 210.903 72.1678 207.217C72.9216 205.29 74.0103 203.615 74.6803 201.688L73.759 201.521C71.8328 204.788 70.3253 208.306 68.6503 211.657C64.6303 219.866 61.0291 228.327 57.3442 236.704C57.1767 237.039 57.0092 237.458 56.8417 237.793C56.2554 237.793 56.4229 237.291 56.4229 237.039C56.4229 227.322 56.4229 217.605 56.5904 207.887C56.5904 207.72 56.5905 207.636 56.6742 207.468C56.6742 201.939 56.7579 196.494 56.9254 191.049C56.9254 190.547 56.8417 190.128 56.8417 189.625C57.0092 173.792 57.0929 157.876 57.2604 142.043C57.2604 141.038 57.4279 140.452 58.5167 140.117C67.5616 137.268 76.6065 134.42 85.6515 131.572C85.819 131.572 86.0702 131.572 86.2377 131.572C89.0851 130.399 92.1001 129.561 95.0313 128.724C97.8788 127.551 100.81 126.797 103.741 125.876C107.426 124.703 111.111 123.53 114.796 122.357C115.131 122.273 115.55 122.19 115.969 122.19C117.392 121.352 119.067 121.101 120.659 120.598C123.339 119.677 126.102 118.839 128.866 118.001C129.955 117.582 131.127 117.163 132.216 116.745C132.802 116.577 133.054 116.745 133.137 117.415C133.221 118.923 132.886 120.263 132.216 121.687C128.866 128.556 125.684 135.425 122.585 142.378C120.91 146.232 119.067 150.002 117.644 154.023C117.979 154.106 118.23 154.19 118.565 154.274C122.417 146.651 125.6 138.692 129.285 130.986C130.374 128.64 131.462 126.294 132.635 123.865C133.305 124.284 133.137 124.787 133.137 125.205C133.137 131.237 132.97 137.268 132.886 143.3C132.886 144.138 132.551 144.892 132.216 145.562C129.871 150.588 127.694 155.698 125.6 160.808C125.349 161.478 124.93 162.065 125.097 163.321C126.437 161.729 127.024 159.97 127.777 158.462C128.615 156.871 129.452 155.279 130.206 153.604C130.96 152.012 131.714 150.337 132.467 148.494C133.054 149.164 132.802 149.75 132.802 150.253C132.802 159.3 132.635 168.347 132.551 177.311C132.3 199.761 132.132 222.128 131.881 244.579C131.881 244.83 131.881 245.081 131.797 245.333H131.63ZM150.473 503.598C149.72 503.933 149.468 503.346 149.133 503.095C146.035 500.414 142.852 497.901 139.921 495.053C138.413 493.629 136.822 492.205 135.65 490.446C134.477 489.943 133.723 489.022 132.802 488.268C132.049 487.765 132.216 486.927 132.216 486.257C132.216 481.482 132.216 476.707 132.216 472.016C132.467 441.105 132.719 410.11 132.97 379.198C133.137 354.067 133.305 328.936 133.556 303.805C133.807 267.197 134.142 230.673 134.394 194.065C134.561 177.562 134.645 160.976 134.812 144.473C134.896 132.493 134.896 120.514 135.064 108.535C135.315 90.6081 135.399 72.6812 135.566 54.6705C135.566 44.4504 135.566 34.3142 135.566 24.0941C135.566 23.1727 135.566 22.3349 136.655 22.0836C136.906 21.581 137.408 21.4972 137.827 21.3297C142.182 19.1517 146.537 16.8899 150.892 14.7118C151.395 14.4605 151.897 14.0416 152.567 14.2092C151.897 177.395 151.227 340.58 150.473 503.682V503.598Z" fill="#080908"/>
<path d="M184.475 83.738C180.623 84.9946 176.77 86.2511 172.918 87.5077C168.898 88.7642 164.878 90.0208 160.858 91.2774C160.523 91.3611 160.272 91.5287 159.853 91.2774C159.518 90.7747 159.685 90.1046 159.685 89.6019C159.685 79.5495 159.769 69.5807 159.853 59.5283C159.853 59.277 159.853 59.0256 159.937 58.7743C160.69 58.7743 160.858 58.1042 161.109 57.6015C161.695 56.2612 162.198 54.9209 162.784 53.4968C166.637 44.1982 170.489 34.8997 174.258 25.6011C177.44 17.8942 180.539 10.1873 183.721 2.48041C183.973 1.89401 184.14 1.30762 184.894 1.30762V83.738C184.726 83.738 184.559 83.738 184.475 83.738Z" fill="#E8E5E5"/>
<path d="M165.213 207.136C164.961 205.209 165.129 203.283 165.129 201.356C165.129 195.66 165.213 189.963 165.129 184.267C165.129 183.01 165.548 182.172 166.385 181.251C169.735 177.481 172.75 173.46 175.263 169.104C175.43 168.853 175.681 168.602 175.43 167.931C171.578 171.617 168.73 175.89 165.296 179.911C165.296 178.403 165.296 176.895 165.296 175.387C165.296 174.549 165.883 174.047 166.301 173.46C168.395 170.612 170.405 167.68 172.415 164.748C172.666 164.413 172.918 164.162 172.918 163.408C170.991 163.91 169.903 165.251 168.898 166.759C167.893 168.267 166.804 169.691 165.715 171.198C165.213 169.858 165.129 162.319 165.548 158.884C166.301 158.633 166.385 157.879 166.636 157.293C168.479 153.188 170.489 149.251 172.499 145.23C176.1 137.942 179.869 130.737 183.302 123.282C183.637 122.528 183.805 121.522 184.977 121.522V164.916C184.307 164.916 184.14 165.418 183.889 165.921C181.376 171.785 178.78 177.649 176.268 183.513C173.001 191.052 169.651 198.508 166.385 206.047C166.134 206.55 165.966 207.052 165.296 207.136H165.213Z" fill="#E8E5E5"/>
<path d="M184.894 1.30747C184.14 1.30747 183.973 1.97763 183.721 2.48026C180.539 10.1872 177.44 17.8941 174.258 25.601C170.405 34.8995 166.553 44.1981 162.784 53.4966C162.198 54.837 161.695 56.1773 161.109 57.6014C160.858 58.1878 160.69 58.7742 159.937 58.7742C159.937 57.3501 159.937 56.0098 159.937 54.5856C160.02 40.7635 160.104 26.9413 160.188 13.1191C160.188 11.5275 160.607 10.606 162.198 10.0196C166.804 8.17666 171.243 6.16617 175.765 4.0719C178.11 2.98288 180.371 1.72632 182.716 0.553528C183.303 0.218445 183.889 -0.116638 184.559 -0.28418C184.726 -0.28418 184.81 -0.28418 184.978 -0.28418V1.30747H184.894Z" fill="#FAFAFA"/>
<path d="M184.894 121.52C183.721 121.52 183.554 122.525 183.219 123.279C179.785 130.651 176.016 137.939 172.415 145.227C170.405 149.248 168.395 153.185 166.552 157.29C166.301 157.877 166.134 158.631 165.464 158.882C165.464 158.379 165.38 157.793 165.38 157.29C165.547 143.887 165.631 130.4 165.38 116.996C165.38 115.656 166.05 115.489 166.971 115.237C172.834 113.729 178.612 111.719 184.391 109.876C184.559 109.876 184.726 109.876 184.894 109.876V121.52Z" fill="white"/>
<path d="M165.213 207.135C165.883 207.135 166.051 206.549 166.302 206.046C169.568 198.507 172.918 191.052 176.185 183.512C178.781 177.648 181.293 171.784 183.806 165.92C184.057 165.418 184.225 164.915 184.895 164.915V189.041C184.057 189.041 183.89 189.795 183.638 190.381C182.298 193.313 181.042 196.245 179.702 199.093C177.943 202.947 176.268 206.884 174.593 210.821C172.081 216.518 169.652 222.13 167.056 227.827C166.47 229.167 166.051 230.508 165.046 231.597C165.046 230.759 165.046 230.005 165.046 229.167C165.046 222.633 165.13 216.015 165.213 209.481C165.213 208.643 165.213 207.889 165.297 207.052L165.213 207.135Z" fill="white"/>
<path d="M184.894 109.792C184.727 109.792 184.559 109.792 184.392 109.792C184.392 109.122 184.559 108.452 184.224 107.698C180.707 108.87 177.273 110.043 173.755 111.216C171.075 112.054 168.395 112.975 165.799 114.064C165.129 114.316 164.71 114.483 164.543 113.478C164.459 112.808 163.706 112.64 163.203 112.389C162.366 111.886 161.444 111.467 160.439 110.881C161.528 110.295 162.449 110.127 163.454 109.792C169.903 107.781 176.352 105.771 182.8 103.76C184.559 103.174 184.559 103.174 184.559 101.247C184.559 96.8075 184.559 92.4514 184.559 88.0116C184.559 87.4252 184.727 86.8388 184.308 86.1686C181.628 87.0901 178.864 87.9278 176.184 88.8493C171.327 90.5247 166.469 92.2001 161.612 93.8755C161.193 94.0431 160.858 94.1268 160.439 94.2944C160.188 94.3781 159.853 94.3781 159.769 94.1268C159.602 93.7917 159.686 93.3729 160.02 93.2891C160.774 92.954 161.528 92.7027 162.282 92.5352C169.317 90.6085 176.184 88.2629 183.052 85.9173C184.224 85.4984 184.727 84.912 184.392 83.7393C184.559 83.7393 184.727 83.7393 184.81 83.7393V109.876L184.894 109.792Z" fill="#A9A9A9"/>
<path d="M128.698 118.004C129.787 117.585 130.96 117.166 132.048 116.747C132.635 116.579 132.886 116.747 132.97 117.417C133.053 118.925 132.718 120.265 132.048 121.689C128.698 128.559 125.516 135.428 122.417 142.381C120.742 146.234 118.9 150.004 117.476 154.025C116.806 155.449 115.969 156.873 116.136 158.632C117.309 157.46 117.811 155.868 118.397 154.276C122.25 146.653 125.432 138.695 129.117 130.988C130.206 128.642 131.295 126.297 132.467 123.867C133.137 124.286 132.97 124.789 132.97 125.208C132.97 131.239 132.802 137.271 132.718 143.302C132.718 144.14 132.383 144.894 132.048 145.564C129.703 150.59 127.526 155.7 125.432 160.81C125.181 161.481 124.762 162.067 124.93 163.323C126.27 161.732 126.856 159.973 127.61 158.465C128.447 156.873 129.285 155.281 130.038 153.606C130.792 152.014 131.546 150.339 132.3 148.496C132.886 149.166 132.635 149.753 132.635 150.255C132.635 159.302 132.467 168.35 132.383 177.313C132.132 199.764 131.965 222.131 131.713 244.581C131.713 244.832 131.713 245.084 131.63 245.335C130.625 245.503 130.373 246.508 129.871 247.178C125.851 253.377 121.831 259.66 117.811 265.859C114.629 270.885 111.362 275.828 108.096 280.77C103.406 288.058 98.6324 295.346 93.9425 302.634C89.3362 309.838 84.6462 316.959 80.04 324.163C75.1825 331.703 70.3251 339.158 65.4677 346.614C62.4527 351.221 59.4377 355.912 56.4227 360.52C56.0877 361.022 55.8365 361.776 55.0828 361.86C55.0828 361.106 54.999 360.436 54.999 359.682C55.1665 345.944 55.2503 332.205 55.4178 318.467C55.5853 301.043 55.7527 283.618 55.9202 266.194C55.9202 264.854 56.1715 263.681 56.674 262.508C58.8515 257.566 61.1127 252.623 62.9552 247.513C63.374 246.424 63.7089 245.251 63.9602 244.162C64.0439 243.743 64.3789 243.492 64.6302 243.241C65.0489 243.241 65.3839 243.073 65.6351 242.654C66.1376 241.817 66.6402 240.979 67.1427 240.057C71.3301 231.848 75.35 223.555 79.6212 215.345C83.8925 207.303 87.745 199.094 92.0162 191.052C96.3711 182.926 100.224 174.549 104.579 166.423C108.85 158.297 112.702 150.004 116.974 141.962C120.742 134.758 124.343 127.386 127.945 120.098C128.28 119.428 128.698 118.841 128.698 118.004Z" fill="#E8E5E5"/>
<path d="M136.653 21.9979C136.905 21.4953 137.407 21.4115 137.826 21.2439C142.181 19.0659 146.536 16.8041 150.891 14.6261C151.393 14.3747 151.896 13.9559 152.566 14.1234C151.896 177.309 151.226 340.494 150.472 503.596C149.718 503.931 149.467 503.344 149.132 503.093C146.033 500.412 142.851 497.899 139.92 495.051C138.412 493.627 136.821 492.203 135.648 490.444C136.402 489.774 136.235 488.852 136.235 488.014C136.486 454.506 136.318 421.082 136.57 387.573C136.988 316.452 136.486 245.331 136.988 174.209C137.323 136.01 136.737 97.7266 137.407 59.5272C137.575 49.3909 137.407 39.3384 137.407 29.2022C137.407 26.8566 137.658 24.4272 136.653 22.1654V21.9979Z" fill="#B1B1B1"/>
<path d="M63.9593 225.984C64.7968 223.22 66.1368 220.707 67.2256 218.11C68.733 214.424 70.5755 210.822 71.9155 207.136C72.6692 205.209 73.758 203.534 74.428 201.607C74.9305 201.188 75.3493 200.602 74.6793 200.183C74.1768 199.848 73.9255 200.518 73.6742 200.937C73.5905 201.104 73.5905 201.272 73.5068 201.523C71.5805 204.79 70.0731 208.308 68.3981 211.659C64.3781 219.869 60.7769 228.33 57.0919 236.707C56.9244 237.042 56.7568 237.461 56.5893 237.796C56.0031 237.796 56.1706 237.293 56.1706 237.042C56.1706 227.324 56.1706 217.607 56.3381 207.89C56.3381 207.722 56.3381 207.638 56.4219 207.471C57.0919 207.387 57.1756 206.801 57.4268 206.298C58.2643 204.623 59.0181 202.863 59.7718 201.188C63.0381 194.403 66.4718 187.785 69.6543 180.999C73.2555 173.376 77.1079 165.92 80.7929 158.297C85.1479 149.166 89.6703 140.203 94.1928 131.156C94.6115 130.402 94.9466 129.564 94.8628 128.643C97.7103 127.47 100.642 126.716 103.573 125.794C107.258 124.622 110.943 123.449 114.628 122.276C114.963 122.192 115.381 122.108 115.8 122.108C115.968 123.114 115.381 123.951 114.879 124.705C114.293 125.627 113.79 126.548 113.288 127.47C101.395 151.428 89.2516 175.219 77.6105 199.261C73.5905 207.555 69.2355 215.68 65.383 224.057C65.048 224.728 64.9643 225.733 63.9593 225.733V225.984Z" fill="#E8E5E5"/>
<path d="M129.871 37.6671C130.959 36.9969 132.132 36.578 133.221 36.1592C133.891 36.578 133.639 37.0807 133.639 37.4995C133.639 41.5205 133.472 45.5415 133.472 49.5625C133.472 50.8191 133.137 51.9081 132.551 52.9971C130.876 55.7615 129.201 58.526 127.609 61.2904C127.107 62.2119 126.437 63.0496 126.269 64.2224C127.609 63.636 127.861 63.3009 129.954 59.7825C130.959 58.1071 132.048 56.4317 133.304 54.505C133.807 56.683 133.472 58.3584 132.299 60.0338C128.447 65.7302 125.013 71.678 122.082 77.9608C121.831 78.4634 121.663 79.0498 121.496 79.6362C121.496 79.72 121.496 79.8875 121.663 80.3063C125.767 73.856 128.782 67.1543 133.137 61.1229C133.723 61.4579 133.472 61.9606 133.472 62.3794C133.388 75.1126 133.221 87.8457 133.137 100.495C133.137 101.5 132.969 102.171 131.797 102.506C117.392 106.862 103.155 111.72 88.8334 116.328C88.1634 116.495 87.5772 116.914 86.9072 116.83C86.9072 115.909 87.4097 115.155 87.8284 114.401C90.2572 109.961 92.7697 105.521 95.1984 101.165C96.8734 98.0657 98.5484 94.9662 100.307 91.8667C102.652 87.5944 105.081 83.4059 107.426 79.1336C109.687 75.0288 111.948 70.8403 114.293 66.6517C117.559 60.704 120.909 54.7563 124.176 48.8086C125.851 45.8766 127.526 42.8608 129.201 39.9289C129.619 39.1749 129.954 38.5048 129.871 37.6671Z" fill="#E8E5E5"/>
<path d="M54.4978 126.879C55.3353 124.701 56.5078 122.69 57.5966 120.596C60.2765 115.737 62.9565 110.879 65.8878 106.187C66.7253 104.763 67.2277 103.172 68.2327 101.831C68.5677 101.329 69.154 100.91 69.3215 100.323C70.3265 99.2345 70.9126 97.8942 71.6664 96.7214C71.8339 96.4701 71.7502 96.0512 71.4152 95.8837C71.1639 95.7999 70.9127 95.8837 70.7452 96.2187C70.1589 97.1402 69.4889 97.8941 69.1539 98.8994C66.1389 102.669 63.8778 106.941 61.3653 110.962C59.2715 114.397 57.4291 117.915 55.4191 121.434C55.1678 121.853 54.9166 122.355 54.3303 122.774C54.3303 122.271 54.3303 121.769 54.3303 121.266C54.3303 118.586 54.4978 115.905 54.3303 113.224C54.1628 110.46 55.084 108.114 56.1728 105.769C58.6852 100.659 61.9515 95.9674 64.7152 91.025C66.6415 87.5066 68.4002 83.9044 70.2427 80.3023C70.3264 80.1348 70.4102 79.9672 70.494 79.7159C70.494 79.5484 70.4939 79.297 70.3264 79.2133C70.2427 79.2133 69.9077 79.2133 69.8239 79.2133C69.4889 79.7159 69.0702 80.1348 68.819 80.7212C65.5528 87.5066 61.5328 93.7894 57.5128 100.156C56.5078 101.748 55.6703 103.423 54.7491 105.182C54.1628 104.763 54.414 104.177 54.414 103.674C54.414 93.203 54.4141 82.6479 54.3303 72.1765C54.3303 71.2551 54.4141 70.7524 55.4191 70.3336C70.3265 63.7995 85.2338 57.2653 100.057 50.7312C100.225 50.7312 100.476 50.7312 100.644 50.6475C100.727 51.4014 100.392 52.0716 99.9737 52.7417C98.8849 54.7522 97.7125 56.679 96.6237 58.6894C94.53 62.3754 92.52 66.145 90.4262 69.9147C87.16 75.7787 83.81 81.6426 80.4601 87.5066C78.3663 91.1925 76.3564 94.8784 74.3464 98.4805C72.2527 102.25 70.0751 106.02 67.8977 109.79C65.7202 113.559 63.5427 117.245 61.5327 121.099C60.6952 122.69 59.2715 123.947 59.2715 125.874C57.8478 126.376 56.424 127.046 54.9165 127.046C54.9165 126.963 54.7491 126.879 54.6653 126.795L54.4978 126.879Z" fill="#E8E5E5"/>
<path d="M63.9589 225.984C65.0476 225.984 65.1313 224.979 65.3826 224.308C69.235 215.931 73.5901 207.806 77.61 199.512C89.2512 175.47 101.395 151.595 113.287 127.721C113.79 126.799 114.292 125.794 114.878 124.956C115.381 124.202 115.883 123.365 115.8 122.359C117.223 121.522 118.898 121.27 120.49 120.768C123.17 119.846 125.933 119.009 128.697 118.171C128.697 118.925 128.278 119.595 127.943 120.265C124.258 127.553 120.741 134.925 116.972 142.129C112.701 150.255 108.848 158.548 104.577 166.59C100.222 174.716 96.3698 183.093 92.0149 191.219C87.7437 199.261 83.8912 207.47 79.6199 215.512C75.265 223.638 71.3288 232.015 67.1414 240.225C66.7226 241.146 66.1363 241.984 65.6338 242.822C65.3826 243.241 65.1314 243.408 64.6289 243.408C64.6289 243.157 64.6289 242.906 64.7126 242.654C64.9639 242.152 65.2151 241.733 65.3826 241.23C65.5501 240.895 65.7176 240.392 65.2151 240.225C64.7126 240.057 64.5451 240.56 64.3776 240.895C64.1264 241.398 63.9588 241.984 63.7076 242.57C62.7026 244.246 62.2001 246.256 61.3627 248.016C59.6877 251.534 58.0964 255.052 56.5051 258.571C56.5051 258.738 56.3377 258.906 55.9189 258.906C55.9189 258.487 55.9189 257.984 55.9189 257.482C55.9189 254.131 56.0864 250.78 56.0864 247.429C56.0864 245 56.5052 242.822 57.5102 240.644C59.4364 236.288 61.2789 231.932 63.2051 227.575C63.3726 227.073 63.5401 226.57 63.9589 226.151V225.984Z" fill="#FEFEFE"/>
<path d="M136.654 21.9988C137.659 24.2606 137.408 26.69 137.408 29.0356C137.408 39.1718 137.491 49.3081 137.408 59.3606C136.821 97.56 137.324 135.843 136.989 174.043C136.403 245.164 136.989 316.285 136.57 387.407C136.403 420.915 136.57 454.34 136.235 487.848C136.235 488.686 136.403 489.607 135.649 490.277C134.476 489.775 133.723 488.853 132.801 488.099C132.048 487.596 132.215 486.759 132.215 486.089C132.215 481.314 132.215 476.539 132.215 471.848C132.466 440.936 132.718 409.941 132.969 379.03C133.136 353.898 133.304 328.767 133.555 303.636C133.806 267.028 134.141 230.504 134.393 193.896C134.56 177.394 134.644 160.807 134.811 144.304C134.895 132.325 134.895 120.346 135.063 108.366C135.314 90.4395 135.398 72.5126 135.565 54.5018C135.565 44.2818 135.565 34.1456 135.565 23.9255C135.565 23.0041 135.565 22.1664 136.654 21.915V21.9988Z" fill="#F5F5F5"/>
<path d="M160.69 490.53C159.35 490.195 158.931 489.525 159.015 488.519C159.015 487.933 159.015 487.347 159.015 486.676C159.099 425.021 159.183 363.282 159.266 301.627C159.266 272.81 159.266 243.993 159.266 215.259C159.266 184.683 159.35 154.023 159.518 123.447C159.518 120.096 159.35 116.745 159.183 113.394C159.183 113.059 159.183 112.64 159.183 112.054C160.774 112.724 161.946 113.645 163.203 114.316C163.789 114.651 163.538 115.069 163.538 115.572C163.538 120.766 163.538 125.876 163.37 131.07C163.035 146.483 163.119 161.897 163.035 177.311C162.868 195.741 162.868 214.17 162.616 232.6C162.449 246.673 162.449 260.747 162.198 274.82C161.946 291.156 162.03 307.491 161.779 323.826C161.528 340.078 161.611 356.413 161.444 372.664C161.193 393.104 161.276 413.545 161.025 433.901C160.774 451.409 160.774 469.001 160.69 486.509C160.69 487.849 160.69 489.189 160.69 490.614V490.53Z" fill="#A9A9A9"/>
<path d="M129.87 37.665C129.87 38.5027 129.535 39.1729 129.2 39.9269C127.525 42.8588 125.85 45.8746 124.175 48.8065C120.825 54.7543 117.559 60.702 114.293 66.6497C112.032 70.7545 109.771 74.943 107.426 79.1315C105.081 83.4039 102.652 87.5924 100.307 91.8647C98.6319 94.9642 96.9569 98.0637 95.1982 101.163C92.7695 105.603 90.2569 110.043 87.8282 114.399C87.4095 115.153 86.8232 115.823 86.907 116.828C86.6557 116.996 86.3207 117.247 86.0695 117.331C81.882 118.671 77.7783 120.012 73.5908 121.352C73.5908 120.179 74.1771 119.341 74.6796 118.336C76.3546 115.404 77.9457 112.556 79.6207 109.624C81.882 105.603 84.0594 101.582 86.3207 97.5611C89.1681 92.4511 92.0994 87.3411 94.9469 82.2311C97.1244 78.2938 99.3019 74.2728 101.563 70.3356C103.908 66.0633 106.337 61.8748 108.682 57.6025C110.357 54.6705 112.116 51.7385 113.707 48.7228C114.46 47.2149 115.8 45.9583 115.884 44.1154C118.564 42.5237 121.579 41.6023 124.427 40.4295C120.825 47.3824 115.633 53.3302 113.204 60.9533C114.126 61.1208 114.209 60.5344 114.461 60.1994C117.978 53.0789 122.5 46.6285 126.604 39.8431C127.358 38.5865 128.782 38.419 129.954 37.9164L129.87 37.665Z" fill="#FEFEFE"/>
<path d="M56.7566 191.052C56.7566 190.55 56.6729 190.131 56.6729 189.628C56.8404 173.796 56.9241 157.879 57.0916 142.047C57.0916 141.041 57.2591 140.455 58.3478 140.12C67.3928 137.272 76.4376 134.423 85.4825 131.575C85.65 131.575 85.9013 131.575 86.0688 131.575C86.0688 132.245 85.9014 132.748 85.5664 133.251C84.3101 135.848 83.0539 138.444 81.7976 141.041C77.1914 150.591 72.4177 160.141 67.7277 169.607C64.4615 176.225 61.1115 182.675 58.0128 189.377C57.7616 189.963 57.5941 190.885 56.6729 190.969L56.7566 191.052Z" fill="#E8E5E5"/>
<path d="M133.808 23.2568C133.808 25.77 133.808 28.0318 133.808 30.2936C133.64 34.9847 134.561 33.7282 130.29 35.5711C105.249 46.6289 80.1243 57.4353 55.2507 68.7443C54.2457 69.247 53.492 69.247 52.5708 68.493C51.3983 67.5715 50.0583 66.8176 48.5508 65.8124C77.2768 51.9064 105.417 37.4979 133.891 23.2568H133.808Z" fill="#B1B1B1"/>
<path d="M56.7581 191.051C57.6794 190.967 57.7631 190.046 58.0981 189.46C61.1968 182.758 64.5468 176.224 67.813 169.69C72.503 160.14 77.2767 150.674 81.8829 141.124C83.1392 138.527 84.3116 135.93 85.6516 133.333C85.9029 132.831 86.2379 132.244 86.1541 131.658C89.0016 130.485 92.0166 129.647 94.9478 128.81C95.0315 129.731 94.6965 130.485 94.2778 131.323C89.839 140.37 85.2328 149.417 80.8779 158.464C77.2766 166.088 73.3405 173.543 69.7393 181.166C66.5568 187.952 63.123 194.57 59.8568 201.355C59.0193 203.03 58.2656 204.79 57.5119 206.465C57.2606 206.968 57.1768 207.47 56.5068 207.638C56.5068 202.109 56.5906 196.664 56.7581 191.219V191.051Z" fill="#FEFEFE"/>
<path d="M115.802 43.9482C115.802 45.7912 114.378 47.0478 113.624 48.5556C112.117 51.5714 110.275 54.5034 108.6 57.4353C106.171 61.7076 103.826 65.8962 101.481 70.1685C99.3034 74.1057 97.1259 78.1267 94.8646 82.0639C92.0171 87.1739 89.0859 92.2839 86.2384 97.394C83.9772 101.415 81.7997 105.436 79.5385 109.457C77.9472 112.389 76.2722 115.237 74.5972 118.169C74.0947 119.091 73.5086 120.012 73.5086 121.185C70.8286 121.939 68.3161 123.028 65.5524 123.614C65.3849 122.944 65.7198 122.358 66.0548 121.771C69.2373 116.075 72.336 110.462 75.4347 104.766C77.8635 100.242 80.376 95.7186 82.8047 91.1949C86.2384 84.9121 89.7559 78.5456 93.2734 72.2628C94.7809 69.4983 96.2884 66.7339 97.7958 64.0532C100.392 59.3621 102.988 54.6709 105.584 50.0635C105.919 49.4771 106.087 48.8069 106.087 48.1368C109.27 46.6289 112.368 45.121 115.718 43.9482H115.802Z" fill="#E8E5E5"/>
<path d="M43.4423 413.045C41.7674 412.375 41.2649 411.37 41.3486 409.778C41.5999 392.019 41.7674 374.26 42.0186 356.584C42.2699 334.385 42.5211 312.269 42.8561 290.07C43.1911 267.201 43.5261 244.247 43.6936 221.378C43.9449 198.844 44.196 176.393 44.4473 153.859C44.4473 152.1 44.5311 150.34 44.6149 148.665C44.6149 148.33 44.6149 147.911 45.0336 147.911C45.6198 147.911 45.5361 148.414 45.6198 148.749C45.6198 149.251 45.6198 149.838 45.6198 150.34C45.7873 162.236 45.4524 174.048 45.3686 185.859C45.2011 204.791 44.9498 223.724 44.7823 242.74C44.6148 261.085 44.5311 279.431 44.3636 297.777C44.1123 328.521 43.8611 359.265 43.5261 390.008C43.5261 397.38 43.5261 404.752 43.4423 412.124C43.4423 412.375 43.4424 412.627 43.3586 413.045H43.4423Z" fill="#A9A9A9"/>
<path d="M37.3279 60.4498C37.7467 59.7797 38.4166 59.5284 39.0029 59.2771C70.9113 42.1878 102.569 24.596 134.31 7.17166C140.842 3.56952 147.375 0.0511513 153.823 -3.55099C155.498 -4.47247 157.257 -4.97509 159.099 -5.47772C161.779 -6.23165 164.543 -6.98559 167.139 -7.90707C167.642 -8.07461 168.144 -8.32592 168.731 -8.24215C168.479 -7.40444 167.809 -7.06936 167.307 -6.65051C165.548 -5.31017 163.706 -4.05361 161.779 -3.04837C123.59 17.0566 85.4 37.1616 47.2103 57.3503C44.8653 58.6069 42.4366 59.7797 40.2591 61.3713C39.9241 61.6226 39.5892 61.7902 39.1704 61.5389C38.5842 61.2038 37.8304 61.0362 37.2441 60.4498H37.3279Z" fill="#A9A9A9"/>
<path d="M106.17 48.1355C106.17 48.8057 106.002 49.4759 105.667 50.0623C103.071 54.7534 100.475 59.3608 97.8787 64.052C96.3712 66.8164 94.8637 69.5808 93.3562 72.2615C89.8387 78.5443 86.405 84.9109 82.8875 91.1937C80.375 95.7173 77.9464 100.241 75.5176 104.765C72.4189 110.461 69.3201 116.157 66.1377 121.77C65.8027 122.356 65.4677 122.943 65.6352 123.613C63.6252 124.702 61.364 125.288 59.1865 125.875C59.1865 123.948 60.6102 122.608 61.4477 121.1C63.4577 117.246 65.7189 113.56 67.8126 109.791C69.9901 106.021 72.0839 102.251 74.2614 98.4817C76.3551 94.7958 78.3651 91.1099 80.375 87.5078C83.6413 81.6438 86.9913 75.7799 90.3412 69.9159C92.435 66.23 94.445 62.4603 96.5387 58.6906C97.6274 56.6801 98.7999 54.7534 99.8887 52.7429C100.224 52.0728 100.642 51.4864 100.559 50.6486C102.317 49.5596 104.244 48.8057 106.254 48.0518L106.17 48.1355Z" fill="#FEFEFE"/>
<path d="M47.0428 68.241C48.8016 69.0787 50.309 69.8326 51.8165 70.5866C52.4865 70.9217 52.319 71.4243 52.319 71.9269C52.319 85.9166 52.319 99.9063 52.319 113.896C52.319 118.336 52.4028 122.692 52.4865 127.132C52.4865 127.718 52.654 128.137 51.9002 128.388C50.3927 128.807 48.8853 129.477 47.0428 129.729C46.9591 109.205 47.4616 88.8486 47.0428 68.1572V68.241Z" fill="#A9A9A9"/>
<path d="M173.589 -4.21973C173.254 -3.46579 172.584 -3.21448 171.997 -2.79562C164.879 1.30914 157.509 4.82751 150.306 8.51342C116.304 25.854 82.2181 42.9432 48.2996 60.4513C46.7921 61.2052 45.3683 62.0429 43.8608 62.8806C43.1909 63.2995 42.5208 63.467 41.9346 62.7968C41.9346 62.2942 42.3533 62.2104 42.6883 62.0429C81.7993 41.6866 120.575 20.9953 159.602 0.471434C164.041 -1.87415 168.731 -3.21448 173.672 -4.13596L173.589 -4.21973Z" fill="#A9A9A9"/>
<path d="M55.8369 141.208C55.8369 142.716 55.8369 144.056 55.8369 145.397C55.5857 163.24 55.3344 180.999 55.0832 198.842C54.8319 213.251 54.5806 227.659 54.4131 241.984C54.4131 243.576 53.7432 244.832 52.9894 246.424C52.5707 245.67 52.7381 245.167 52.7381 244.665C52.9056 222.047 53.0732 199.429 53.3245 176.811C53.492 165.753 53.4919 154.695 53.4919 143.637C53.4919 141.543 53.492 141.543 55.8369 141.292V141.208Z" fill="#A9A9A9"/>
<path d="M44.6973 64.1359C46.121 63.4657 47.3772 62.8793 48.6334 62.2092C72.0832 50.3137 95.5331 38.4183 118.983 26.5228C135.565 18.062 152.148 9.68492 168.73 1.22408C170.154 0.470144 171.577 0.218831 173.42 0.721456C172.499 1.22408 171.912 1.55916 171.242 1.89425C148.128 13.5384 124.929 25.0987 101.814 36.7429C84.4781 45.455 67.1421 54.0834 49.9735 63.1306C49.0523 63.6333 48.2147 64.0521 47.3772 64.6385C46.456 65.3087 45.6185 65.1411 44.781 64.2197L44.6973 64.1359Z" fill="#A9A9A9"/>
<path d="M133.054 104.347C133.054 105.017 132.719 105.268 132.133 105.519C130.458 106.19 128.783 106.86 127.024 107.446C109.604 112.975 92.2683 118.504 74.8484 124.033C65.971 126.881 57.1773 129.729 48.2999 132.577C48.1324 132.577 47.8811 132.745 47.7136 132.745C47.4624 132.745 47.1274 132.829 47.0437 132.577C46.8762 132.242 47.0437 131.907 47.4624 131.74C47.9649 131.572 48.4674 131.405 48.9699 131.237C62.0347 126.965 75.0159 122.692 88.0808 118.42C102.486 113.645 116.974 109.205 131.379 104.263C131.714 104.179 132.049 104.011 132.3 103.928C132.719 103.844 132.97 103.928 132.97 104.43L133.054 104.347Z" fill="#A9A9A9"/>
<path d="M118.397 154.194C117.811 155.702 117.309 157.293 116.136 158.55C116.053 156.791 116.806 155.45 117.476 153.942C117.811 154.026 118.062 154.11 118.397 154.194Z" fill="#36413C"/>
<path d="M69.0691 98.9018C69.4041 97.8965 70.1578 97.1426 70.6603 96.2211C70.8278 95.9698 71.0791 95.8023 71.3304 95.886C71.6654 96.0536 71.7491 96.4724 71.5816 96.7238C70.8278 97.9803 70.2416 99.3206 69.2366 100.326C69.2366 99.8233 69.0691 99.3206 68.9854 98.818L69.0691 98.9018Z" fill="#36413C"/>
<path d="M54.7474 127.135C54.7474 127.303 54.7475 127.471 54.5797 127.387C54.3281 127.303 54.412 127.051 54.5797 126.884C54.6636 126.884 54.7474 127.051 54.8313 127.135H54.7474Z" fill="#E8E5E5"/>
</g>
<defs>
<filter id="filter0_d_2932_20309" x="0" y="0" width="185" height="185" filterUnits="userSpaceOnUse" color-interpolation-filters="sRGB">
<feFlood flood-opacity="0" result="BackgroundImageFix"/>
<feColorMatrix in="SourceAlpha" type="matrix" values="0 0 0 0 0 0 0 0 0 0 0 0 0 0 0 0 0 0 127 0" result="hardAlpha"/>
<feOffset dx="-5" dy="5"/>
<feComposite in2="hardAlpha" operator="out"/>
<feColorMatrix type="matrix" values="0 0 0 0 0 0 0 0 0 0 0 0 0 0 0 0 0 0 1 0"/>
<feBlend mode="normal" in2="BackgroundImageFix" result="effect1_dropShadow_2932_20309"/>
<feBlend mode="normal" in="SourceGraphic" in2="effect1_dropShadow_2932_20309" result="shape"/>
</filter>
</defs>
</svg>
