<svg width="426" height="279" viewBox="0 0 426 279" fill="none" xmlns="http://www.w3.org/2000/svg">
<path d="M425.12 156.217C425.12 157.177 425.28 157.976 425.44 158.935C425.12 160.215 425.44 161.494 425.92 162.773V168.209C425.44 169.648 424.8 170.928 425.6 172.367L425.28 175.884C424.8 176.364 424.8 177.004 425.12 177.643C425.12 179.082 425.12 180.521 424.96 182.12C424.48 182.92 424.48 183.719 424.8 184.519C424.48 190.754 423.84 197.15 423.2 203.386C421.92 214.579 419.36 225.292 413.92 235.205C411.2 240.162 408.48 245.119 403.84 248.796C401.76 250.395 399.36 251.834 396.8 251.674C394.56 251.514 392.32 251.674 390.08 251.674C385.28 251.834 380.48 251.355 375.68 251.035C368.48 250.395 361.28 249.436 354.08 248.956C340.96 248.157 327.68 247.837 314.56 247.837C302.08 247.837 289.44 247.517 276.96 246.558C270.4 246.078 264 245.439 257.44 245.439C238.72 245.758 220.16 247.037 201.44 247.837C197.28 247.997 193.28 247.837 189.28 247.037C188.32 246.878 187.68 247.037 187.2 247.997C184.48 252.794 181.44 257.111 176.8 260.309C172.64 263.187 168.64 263.187 164.48 260.309C160 257.111 156.8 252.794 154.72 247.837C154.24 246.718 153.76 246.398 152.48 246.398C148.96 246.398 145.44 247.197 141.92 247.357C130.72 247.997 119.52 247.357 108.32 247.037C106.56 247.037 105.92 247.357 105.28 248.956C102.08 257.271 98.24 265.106 91.36 271.022C85.28 276.138 78.4 279.336 70.24 278.217C63.52 277.258 57.76 274.219 52.8 269.742C45.76 263.347 40.96 255.352 38.08 246.398C37.44 244.479 36.64 243.999 34.72 243.999C23.2 243.999 11.68 243.68 0.16 243.52C0.16 242.72 0.16 241.921 0.16 241.281C11.68 241.281 23.36 241.281 34.88 241.441C36.16 241.441 36.48 241.281 36 240.002C35.52 238.723 35.2 237.444 34.88 236.165C34.88 236.005 34.88 235.845 34.88 235.685C32.32 225.612 30.56 215.538 31.52 204.985C31.52 203.866 31.2 203.706 30.24 203.706C28.48 203.706 26.72 203.386 25.12 203.226C22.72 202.906 21.76 201.787 21.76 199.389C21.76 198.589 21.76 197.79 21.76 197.15C22.72 190.595 23.84 184.199 25.44 177.803C26.4 173.965 27.52 170.128 28.48 166.131C28.48 165.651 29.44 164.532 27.68 164.692C23.68 165.171 19.52 164.852 15.36 164.852C14.24 164.852 13.12 164.692 12 164.532C11.68 164.532 11.36 164.532 11.36 164.052C11.36 163.732 11.68 163.572 12 163.412C13.28 162.933 14.56 162.773 16 162.773C19.84 162.773 23.84 162.773 27.68 163.093C28.8 163.093 29.6 162.933 29.76 161.494C29.92 160.055 30.4 158.776 30.88 157.496C33.12 149.662 35.84 141.827 38.72 134.152C39.36 132.713 40 131.434 40.64 129.994C41.44 128.076 41.44 128.076 39.36 128.236C33.44 128.396 27.52 128.236 21.6 127.916C20.32 127.916 19.52 128.236 18.72 129.195C15.36 133.032 12.64 137.35 10.72 142.146C10.24 143.266 8.8 144.865 9.6 145.664C10.4 146.464 12.16 145.984 13.6 145.664C17.76 145.984 21.92 146.144 26.24 146.464C27.2 146.464 28.96 146.464 28.8 147.743C28.8 148.702 27.04 148.222 26.08 148.222C21.44 148.222 16.8 147.423 12.16 147.743C11.36 147.743 10.56 147.583 9.76 147.423C8.16 147.263 8.16 148.382 8 149.342C7.84 150.621 8.96 150.141 9.44 150.141C10.24 150.141 10.88 150.141 11.68 150.141C14.4 151.101 17.28 150.781 19.84 151.58C20.32 151.58 21.28 151.58 21.12 152.38C21.12 153.019 20.16 152.859 19.68 152.859C16.64 152.7 13.6 152.38 10.56 152.06C9.28 152.06 7.68 150.621 7.04 152.54C5.28 159.095 4.48 165.651 5.12 172.367C4.96 174.125 5.6 175.884 5.92 177.643C6.24 179.082 5.76 179.722 4.32 179.722C3.04 179.722 1.6 179.722 0.32 180.042V139.108C2.4 135.591 4.16 131.913 6.72 128.715C7.36 127.916 6.88 127.756 6.08 127.596C4.16 127.436 2.24 127.116 0.32 127.116C0.32 126.157 0.32 125.358 0.32 124.398C1.92 124.398 3.52 124.398 5.12 124.878C7.04 125.358 9.28 125.198 10.88 126.956C12 128.236 12.32 129.675 12.96 131.114C13.44 132.233 13.76 132.233 14.4 131.433C15.84 129.675 17.28 128.236 19.04 126.797C19.52 126.477 20 125.997 20.8 125.997C26.4 125.997 31.84 125.997 37.44 125.677C39.36 125.677 41.6 126.477 43.04 125.357C44.48 124.238 45.12 122 46.24 120.401C50.24 114.325 54.08 108.249 59.68 103.612C65.92 98.4952 72.96 95.9369 81.12 97.0561C81.76 97.0561 82.56 97.3759 83.2 97.0561C82.24 94.8176 83.36 93.3786 85.12 92.0994C84.96 91.9395 84.8 91.7796 84.64 91.7796C81.12 89.5411 80.8 87.7822 83.68 84.5843C84.32 83.7848 83.68 83.4651 83.36 83.1453C81.76 81.7062 80.32 80.1073 81.44 77.549C80 77.549 78.72 77.8688 77.6 77.7089C68.48 77.3891 60 72.5922 58.72 62.1991C58.56 60.2803 59.36 58.5215 59.36 56.7626C59.36 53.8845 61.12 51.8059 64 51.646C66.24 51.4861 68.48 51.646 70.56 52.4455C74.56 53.5648 78.56 54.5241 82.72 55.1637C87.52 55.8033 92 54.3642 96.32 52.9252C100.8 51.4861 105.44 51.646 108.96 55.0038C111.04 57.0824 113.28 58.3616 116 59.4809C120.48 61.2397 121.44 64.4376 118.72 68.435C115.2 73.2318 110.4 75.7901 104.48 76.2698C103.84 76.2698 103.04 76.2698 103.04 77.2292C103.04 83.1453 101.92 88.9015 100.32 94.4978C99.52 97.216 99.52 100.574 96.16 101.533C96.16 102.013 96.48 102.173 96.8 102.333C105.28 108.089 111.36 115.764 115.52 125.038C116.32 126.637 116.64 128.396 117.76 129.835C118.08 131.593 119.04 133.192 119.52 134.951C121.6 143.745 123.2 152.54 124 161.494C124.32 161.334 124.48 161.174 124.48 161.014C125.44 156.537 126.4 152.22 127.36 147.743C128.32 143.266 129.12 138.629 129.92 134.152C130.56 133.032 130.4 131.913 130.72 130.794C132.48 123.439 133.92 115.924 135.52 108.409C138.24 95.777 141.76 83.4651 144 70.8334C144.8 66.6761 146.08 62.5189 145.28 58.0418C144 51.1664 143.84 44.2909 143.84 37.2555C143.84 34.6972 143.84 34.6972 141.28 35.1768C136.96 35.9763 132.64 36.456 128.32 36.456C120.96 36.456 117.12 33.8977 114.88 27.0222C113.76 23.3446 111.36 20.9462 107.84 19.5072C105.6 18.5478 103.2 18.8676 100.8 18.8676C99.52 18.8676 100.48 20.6264 99.52 21.1061C99.36 21.1061 99.2 21.4259 98.88 21.5858C97.28 22.7051 95.68 23.6644 93.76 23.8243C91.04 24.1441 88.32 24.4639 85.6 24.6238C82.08 24.7837 78.56 25.4233 75.04 24.6238C72.32 24.1441 70.56 22.865 70.08 20.1467C69.6 17.4285 69.6 14.5504 70.08 11.8322C70.72 8.9541 72.48 7.19528 75.36 6.7156C81.6 5.59634 88 4.63695 94.4 5.59632C97.76 6.076 99.52 7.51507 100.16 10.713C100.32 11.5124 100.64 11.5124 101.28 11.5124C103.04 11.3525 104.64 11.0328 106.4 10.8729C112.96 10.0734 118.24 12.3119 121.76 18.0681C123.2 20.3067 124.48 22.7051 125.92 24.9436C126.56 26.0629 127.52 26.5425 128.96 26.3826C133.44 25.903 137.92 25.5832 142.4 25.903C143.36 25.903 143.68 25.903 143.84 24.7837C144 23.0248 145.28 22.2254 146.88 22.0655C148.48 22.0655 150.08 22.3853 150.56 24.1441C150.88 25.4233 151.68 25.4233 152.64 25.2634C155.84 24.7837 159.2 24.7837 162.4 25.1035C166.08 25.4233 166.4 25.1035 168.16 21.7457C169.76 18.3879 171.52 15.0301 173.6 11.8322C174.72 9.91347 176.48 8.63434 178.56 8.31455C181.28 7.99476 184.16 7.67497 187.04 7.51507C188.64 7.51507 188.8 8.15464 188.16 9.75359C186.72 10.0734 185.12 10.5531 183.68 10.3932C178.88 9.91348 175.68 11.8322 174.08 16.3093C173.92 16.789 173.6 17.2687 173.28 17.9082C172 20.3067 171.04 22.865 169.6 25.2634C168.32 27.1821 166.72 28.1415 164.48 27.9816C160.8 27.6618 157.28 27.5019 153.6 27.0222C151.84 26.8623 151.2 27.342 150.88 28.941C150.88 29.7404 150.88 30.38 150.88 31.1795C150.88 31.6592 151.2 31.819 151.68 31.819C157.6 31.3394 163.36 31.8191 169.28 31.6592C170.4 31.6592 171.04 31.0196 171.36 30.0602C172.8 27.342 174.24 24.4639 175.52 21.7457C177.92 16.789 180.96 12.6317 187.2 12.3119C189.12 12.3119 189.44 11.3525 189.12 9.75359C189.12 8.47443 189.28 7.19528 189.12 5.91613C188.64 3.19791 189.12 2.39845 191.68 1.27919C192.8 0.799503 194.08 1.27917 194.88 0.159905H204.16C204.96 0.799484 205.92 1.11925 207.04 0.639569C207.52 0.639569 208 0.639569 208.32 0.639569C208.64 1.11925 209.12 1.11927 209.6 0.959378C209.92 0.959378 210.24 0.959378 210.56 0.959378C210.72 1.27917 211.04 1.43908 211.52 1.27919C212.32 1.43908 213.28 1.59897 214.08 1.91876C217.76 3.35781 218.88 4.79683 217.6 8.63431C217.12 10.2333 216.96 11.9921 216.48 13.5911C216 15.5098 214.72 16.7889 212.64 16.7889C205.76 17.1087 199.04 17.2687 192.32 15.5098C191.84 15.5098 191.2 15.0301 190.72 14.8702C189.76 14.5505 189.6 12.7916 188.32 13.2713C185.92 14.0708 183.36 14.5504 181.6 16.629C179.84 18.7077 178.56 21.1061 177.44 23.5045C176 26.2228 174.56 29.1008 173.12 31.819C172.48 32.9383 171.68 33.5779 170.4 33.7378C167.68 34.2175 164.8 34.0576 161.92 34.0576C158.72 34.0576 155.52 34.0576 152.32 34.0576C151.04 34.0576 150.72 34.3774 150.88 35.6566C151.52 43.0117 152 50.5268 152.16 58.0418C152.16 59.321 152.16 60.6001 151.52 61.7194C151.2 62.359 151.52 62.8387 151.52 63.3183C156 75.3104 158.72 87.7823 161.12 100.414C161.28 101.533 161.6 102.493 161.92 103.612C162.08 104.411 162.4 105.371 162.72 106.49C165.12 103.292 168.32 101.373 171.68 99.7743C177.12 97.216 182.72 97.3759 188 99.7743C193.76 102.333 196.16 107.449 197.44 113.365C197.76 114.645 197.92 115.924 198.24 117.363C198.4 118.322 198.24 119.122 197.44 119.761C196.64 120.401 195.84 120.081 195.04 119.761C192.96 118.802 191.2 117.363 189.28 115.924C186.88 114.005 184.16 112.406 181.12 111.447C176.32 109.688 172.16 110.647 168.64 114.165C167.36 115.444 165.76 116.563 165.28 118.642C166.4 118.642 166.88 118.002 167.52 117.683C174.56 113.845 183.2 113.206 189.76 118.802C192.48 121.04 194.08 123.918 195.36 127.116C197.44 132.233 198.56 137.669 198.56 143.106C198.08 143.586 198.56 144.545 197.6 144.545C196.8 144.545 196.8 143.586 196.48 143.106C196.16 142.466 196 141.827 195.84 141.187C194.56 137.19 193.44 133.032 192 129.035C187.36 117.043 175.68 116.723 167.52 122.479C166.72 123.119 165.92 123.759 166.56 124.878C167.04 124.878 167.36 124.558 167.52 124.238C172 120.561 177.12 119.761 182.56 121.68C184 122.16 184.32 122.799 183.04 123.759C177.44 121.52 168.8 125.198 166.4 130.794C169.28 130.794 172 131.114 174.72 132.553C174.72 130.794 174.4 129.195 174.4 127.596C174.4 127.116 174.24 126.317 174.88 126.317C175.68 126.317 175.52 126.956 175.68 127.596C175.68 127.756 175.68 127.916 175.68 128.236C176.48 133.032 176.96 137.989 178.88 142.466C179.84 144.705 180 147.263 179.68 149.821C178.56 150.781 179.2 152.06 179.04 153.179C178.08 157.496 179.04 161.973 179.36 166.291C179.36 166.77 179.36 167.41 180 167.73C180.64 163.253 181.28 158.935 182.08 154.618C182.4 151.9 182.88 149.182 183.2 146.464C183.84 141.507 184.48 136.55 185.12 131.433C185.12 130.954 185.12 130.154 185.76 130.154C186.4 130.154 186.24 130.954 186.24 131.433C185.92 142.146 184.8 152.7 183.04 163.253C182.24 164.372 182.4 165.651 182.56 166.93C183.2 165.811 183.84 164.692 183.84 163.253C186.08 157.017 188.32 150.941 190.88 145.025C191.36 144.065 191.2 143.106 190.88 141.987C189.76 135.911 188.32 129.994 184.8 124.878C185.76 124.878 186.56 125.358 187.36 125.997C190.08 128.715 191.68 132.073 192.64 135.751C193.76 140.547 194.72 145.504 196.32 150.461C197.44 147.903 198.56 145.664 199.52 143.266C200.32 141.667 201.28 140.228 202.56 138.949C204 137.509 205.12 135.911 207.84 136.39C210.08 136.71 212.64 135.911 215.04 135.591C233.12 133.672 251.36 133.992 269.44 133.512C272.16 133.512 274.88 133.352 277.6 133.192C278.24 133.192 279.04 133.192 279.52 133.672C282.08 136.07 285.44 137.829 287.04 141.507C288.96 138.949 290.72 136.55 292.96 134.472C294.4 133.192 295.84 132.553 297.76 132.713C307.68 133.032 317.44 133.512 327.2 133.992C328.16 133.992 328.96 134.312 329.92 134.951C333.6 137.35 336.8 140.388 339.68 144.065C340.64 142.466 341.76 141.027 342.4 139.428C343.84 136.39 346.4 135.431 349.6 135.111C361.12 133.992 372.64 133.352 384.32 133.832C392.96 134.152 401.76 133.832 410.4 133.352C413.92 133.192 416.48 134.791 418.72 137.35C420.48 139.428 421.76 141.987 422.4 144.705C423.04 147.423 423.68 150.141 424.32 152.859C424.32 153.179 424.32 153.499 424.64 153.659C424.64 154.139 424.64 154.618 424.8 155.098C424.64 155.578 424.64 156.057 425.12 156.377V156.217ZM116.64 16.7889C116 15.5098 114.72 14.8702 113.28 14.3905C108.96 12.3119 104.32 13.751 100 14.0708C98.88 14.0708 98.88 15.5098 98.88 16.4692C98.88 17.5885 99.84 16.9488 100.32 16.7889C104 16.7889 107.68 16.3093 111.04 18.228C112.16 19.0275 113.28 19.667 114.24 20.6264C115.52 22.2254 116.32 24.1441 117.12 25.903C117.44 27.5019 117.92 29.1008 119.36 30.2201C120.96 32.6185 123.36 33.2581 125.92 33.2581C130.88 33.2581 135.84 32.9383 140.8 31.979C141.76 31.8191 143.04 31.979 143.04 30.38C143.04 29.2607 143.2 28.3014 143.2 27.1821C143.2 26.7024 142.56 26.8623 142.24 27.0222C138.56 27.8217 134.72 27.8217 131.04 28.7811C127.36 29.5805 124.48 28.941 122.4 25.7431C121.6 24.4639 120.8 23.0249 119.84 21.7457C119.04 19.9869 118.24 18.228 116.48 16.9489L116.64 16.7889ZM126.4 184.678C125.92 184.998 125.92 185.478 126.08 185.958C125.76 186.917 126.08 187.716 126.88 188.356C128 189.315 129.12 190.275 130.24 191.234C132.16 192.833 132.8 194.752 132.96 197.15C132.96 201.308 132.48 205.305 131.68 209.302C131.36 210.581 131.68 210.901 132.96 211.061C134.08 211.061 134.56 211.061 134.88 209.942C136.32 205.305 138.24 201.148 144.48 202.107C146.24 202.427 145.44 200.828 145.28 200.028C144.64 195.871 144.32 191.554 144.16 187.237C144 180.201 144.32 173.166 145.12 166.291C145.92 158.296 147.36 150.461 149.6 142.946C150.72 138.949 152.48 135.271 154.4 131.433C153.44 131.433 152.64 131.433 152 130.954C150.72 130.474 150.24 130.794 149.92 132.233C147.04 143.426 144.48 154.618 142.24 165.971C141.12 171.407 140.32 176.844 138.72 181.96C138.4 182.76 138.4 183.719 137.44 183.879C137.12 182.76 136.48 182.28 135.2 182.28C133.76 182.28 132.48 182.12 131.04 181.96C127.68 181.64 127.68 181.64 126.72 184.678H126.4ZM142.88 92.2593C143.68 90.0208 144 87.7822 144.32 85.5437C145.76 78.6682 147.36 71.9527 148.8 65.0772C148.8 64.5975 148.8 64.2777 148.32 64.1178C146.72 63.4782 146.88 62.3589 147.84 61.3996C148.8 60.6001 148.96 59.6408 148.8 58.5215C148.64 49.2476 148 39.9737 148 30.5399C148 28.7811 148 27.1821 147.36 25.4233C147.2 24.7837 146.88 24.4639 146.24 24.4639C145.6 24.4639 144.96 24.6238 144.8 25.4233C144.64 26.2227 144.48 27.0222 144.8 27.8217C145.12 29.5805 145.44 31.4993 145.44 33.2581C146.08 40.9331 146.72 48.7679 147.2 56.4429C147.2 57.722 147.36 59.1611 146.72 60.1204C145.76 61.5595 145.76 63.1584 145.76 64.7574C145.76 65.397 145.76 66.1965 145.6 66.836C145.12 72.1126 143.84 77.3891 143.04 82.6656C142.56 84.5843 142.08 86.663 141.6 88.5817C140.48 92.8988 139.52 97.3759 138.4 101.693C137.12 107.449 136 113.046 135.04 118.802C135.04 119.282 134.72 119.921 134.56 120.401C131.84 134.472 128.96 148.702 125.92 162.613C125.12 165.971 124.16 169.329 123.52 172.846C122.88 177.483 123.04 182.28 122.4 186.917C123.84 186.917 123.84 185.638 124.16 184.838C126.24 176.844 127.68 168.849 129.28 160.694C130.88 152.38 132.48 144.225 134.08 135.911C134.88 131.434 135.84 126.956 136.64 122.479C138.08 116.883 139.2 111.127 140.16 105.371C141.28 100.894 142.08 96.4165 143.04 91.7796L142.88 92.2593ZM332.48 174.605C332.16 174.765 332 175.085 332.16 175.405C332.16 175.724 332.16 176.204 332.16 176.524C331.68 176.844 331.68 177.323 331.84 177.643C331.84 177.963 331.68 178.443 331.52 178.762C331.2 179.082 331.36 179.562 331.52 179.882C331.52 180.201 331.52 180.361 331.36 180.681C330.72 183.559 330.08 186.597 330.08 189.475C330.08 190.275 330.08 191.074 330.08 191.714C329.44 195.871 329.28 196.031 324.96 195.391H324.64C321.28 195.231 318.08 194.592 314.72 194.752C304.32 195.232 293.92 194.752 283.52 194.592C283.2 194.592 282.72 194.592 282.56 194.112C283.2 193.473 284.16 193.473 284.96 193.473C288.96 192.993 292.8 193.153 296.8 193.153C302.4 193.153 308 193.153 313.6 192.673C314.08 192.673 315.04 192.993 314.88 191.874C314.56 188.836 314.88 185.798 314.88 182.76C315.52 176.044 316.16 169.488 317.92 162.933C320.48 154.139 324 145.984 328.8 138.149C329.12 137.669 329.76 137.35 329.44 136.71C329.12 136.23 328.32 136.39 327.84 136.39C319.04 135.751 310.4 136.07 301.6 135.911C297.6 135.911 294.4 137.35 291.84 140.068C285.92 146.304 282.24 154.139 278.72 161.973C278.24 162.133 278.24 162.613 278.24 162.933C277.12 165.651 276.32 168.529 275.36 171.407C275.04 172.686 275.04 173.006 276.64 173.006C281.92 172.686 287.2 172.526 292.48 173.006C293.28 173.646 293.76 174.285 292.16 174.445C291.2 174.445 290.08 174.605 289.12 174.605C285.44 174.605 281.6 174.125 277.92 174.605C274.4 174.285 274.4 174.285 273.76 177.643C272.96 181.8 272.32 186.118 271.84 190.275C271.627 192.407 270.4 193.579 268.16 193.792C267.52 193.792 267.04 193.792 266.4 193.792C262.56 194.112 261.92 193.633 261.28 189.795C261.28 187.716 261.28 185.638 261.28 183.559C261.28 176.844 261.92 170.288 264.32 164.052C267.68 155.418 271.04 146.783 276.96 139.428C277.76 138.469 278.72 137.829 279.04 136.39C274.72 135.751 270.4 135.911 266.08 135.911C247.84 136.23 229.6 136.55 211.52 137.35C207.04 137.509 204.8 139.268 203.2 143.106C199.36 152.22 196.96 161.813 195.84 171.727C195.52 175.085 195.52 175.085 199.04 174.285C199.36 174.285 199.52 174.285 199.84 174.285C208.96 173.966 217.92 174.285 227.04 173.806C230.72 173.486 234.4 173.486 238.08 173.806C238.72 173.806 239.52 173.806 240 174.445C239.52 175.245 238.72 175.085 238.08 175.085C230.24 175.405 222.4 175.884 214.56 175.884C209.28 175.884 204 175.884 198.72 175.884C195.36 175.565 195.36 175.564 195.04 178.443C194.24 187.237 193.28 196.031 193.92 204.825C193.92 206.424 194.56 206.584 195.84 206.264C199.36 205.625 202.88 205.305 206.56 205.305C215.68 205.305 224.8 205.305 233.92 205.625C253.12 206.104 272.32 206.424 291.68 205.625C294.72 205.625 297.76 205.625 300.8 205.625C301.28 205.625 301.76 205.625 301.76 206.264C301.76 206.744 301.44 207.064 300.96 207.064C300.48 207.064 300 207.064 299.36 207.064C295.52 207.064 291.52 206.744 287.68 207.064C267.04 207.863 246.56 207.384 226.08 207.064C215.84 206.904 205.6 206.424 195.2 207.703C193.92 207.384 193.92 208.343 193.92 209.142C194.24 212.66 194.56 216.178 194.88 219.536C194.88 220.015 194.72 220.655 195.52 220.175C196.48 220.175 197.28 220.015 198.24 219.855C198.72 220.335 199.04 220.335 199.36 219.695C200.16 219.695 200.96 219.695 201.6 219.536C202.24 220.015 202.72 220.175 203.2 219.216C209.28 218.576 215.52 218.256 221.6 218.256C222.24 218.896 222.88 218.576 223.68 218.576C231.36 218.576 238.88 218.576 246.56 218.576C247.2 218.576 248 218.416 248.64 218.896C247.04 219.376 245.44 220.015 243.68 220.015C243.2 219.536 242.56 219.695 241.92 219.695C238.24 219.695 234.4 219.695 230.72 219.695C229.28 219.695 228 219.376 226.56 219.855C224.8 220.015 222.88 220.015 221.12 219.855C217.76 219.376 214.56 219.695 211.2 219.695L210.88 220.015C208.64 220.015 206.56 220.175 204.32 220.335C203.84 219.695 203.52 219.695 203.2 220.335C201.12 220.495 199.04 220.815 196.96 220.815C195.68 220.815 195.68 221.294 195.84 222.414C196.48 225.771 197.12 229.289 198.24 232.647C199.52 236.644 199.2 237.124 195.2 238.403C195.2 238.403 194.88 238.723 194.72 238.723C190.72 239.203 190.08 239.842 188.96 244.639C193.76 244.639 198.56 244.639 203.2 243.999C216.96 242.56 230.72 241.601 244.48 241.121C254.08 240.802 263.52 241.281 272.96 241.441C278.4 241.441 283.84 241.441 289.28 241.921C304.16 243.04 319.04 243.84 333.92 244.319C348.48 244.799 363.2 245.758 377.76 247.357C381.6 247.837 385.28 247.997 389.12 248.317C387.68 246.558 386.72 244.799 385.44 243.2C382.72 237.604 381.12 231.688 380.16 225.612C380 224.492 379.36 224.492 378.56 224.652C376 224.972 373.44 225.132 370.72 225.292C370.08 224.972 369.6 224.972 368.96 225.292C366.56 225.292 364.32 225.452 361.92 225.452C344.16 225.452 326.4 225.452 308.64 225.452C307.84 225.132 307.04 224.972 306.24 225.612C304.16 225.612 302.08 225.612 299.84 225.612C299.84 225.292 299.84 224.972 299.84 224.812C300.48 224.812 301.12 224.812 301.6 224.812C302.08 225.292 302.4 225.132 302.88 224.812C306.72 224.492 310.56 224.332 314.24 224.013C316.96 224.172 319.68 223.693 322.4 223.533C340.48 222.574 358.4 222.573 376.48 222.573C379.36 222.573 379.2 222.574 379.2 219.855C379.2 218.576 378.72 218.416 377.6 218.416C376 218.416 374.56 218.416 372.96 218.416C370.24 218.096 367.52 218.416 364.8 217.617C364.8 216.338 365.92 216.657 366.72 216.657C369.6 216.657 372.48 216.657 375.36 216.657C376 216.657 376.48 216.657 377.12 216.817C379.2 217.457 379.2 216.498 379.04 214.899C378.56 210.262 379.04 205.625 379.36 200.988C380.48 188.196 384.16 175.884 387.84 163.732C389.44 158.296 391.68 153.019 394.72 147.743C391.04 147.743 387.84 147.423 384.48 147.743C380.48 147.103 376.48 147.743 372.32 147.423C376.96 145.984 381.92 145.824 386.72 145.824C389.28 145.824 391.68 145.824 394.24 145.984C395.2 145.984 396 145.664 396.64 144.705C398.4 141.827 400.64 139.268 403.36 137.19C403.84 136.87 404.32 136.55 404.16 135.591C402.88 135.591 401.6 135.591 400.32 135.591C392.48 135.911 384.64 135.591 376.96 135.591C367.68 135.591 358.24 135.751 348.96 137.35C347.84 137.509 346.88 137.669 346.08 138.629C341.76 145.184 338.24 152.06 336 159.735C337.92 159.575 339.68 159.415 341.6 159.095C347.04 158.296 352.48 158.456 357.92 157.976C362.4 158.136 367.04 157.656 371.2 159.735C360.32 160.055 349.44 160.215 338.72 161.494C336.48 161.6 335.093 162.773 334.56 165.011C334.56 165.651 334.4 166.45 334.08 167.09C333.44 168.529 334.08 168.529 335.2 168.369C340.16 168.049 345.28 167.73 350.24 167.89C351.2 168.689 352.64 167.89 353.6 168.849C352.48 169.169 351.36 169.169 350.08 169.329C345.44 169.488 340.64 169.808 336 170.128C335.04 170.448 333.6 169.488 332.96 170.927C332.64 171.887 332.64 173.006 332.48 174.125V174.605ZM186.88 187.077C187.52 188.356 188.32 189.475 189.6 190.754C189.92 188.996 190.08 187.716 189.92 186.437C189.92 186.277 189.92 185.958 190.08 185.798C190.4 185.638 190.4 185.318 190.08 184.998C190.4 183.879 190.24 182.76 190.4 181.64C190.56 181.321 190.72 181.161 190.4 180.841C190.88 177.483 191.2 174.285 191.68 170.927C191.68 170.927 191.36 170.928 191.2 170.768C189.44 172.526 187.68 174.285 185.92 176.044C185.6 176.204 185.28 176.524 184.96 176.684C184.48 177.004 183.68 177.483 183.2 176.684C182.72 176.044 183.36 175.564 183.84 175.085C184.48 174.285 185.28 173.486 186.08 172.846C188.96 169.968 192.96 168.049 192.96 163.093C192.96 161.014 194.08 159.095 194.08 156.857C194.08 153.979 193.12 151.42 192.48 148.702C192.48 148.063 192.48 146.783 191.68 146.783C190.56 146.783 191.2 148.063 190.72 148.702C190.4 149.022 190.4 149.502 190.24 149.981C188.32 155.738 186.08 161.494 184.48 167.25C183.36 170.128 182.24 172.846 181.12 175.724C181.12 176.044 180.8 176.364 181.12 176.844C183.04 178.922 183.36 181.321 182.72 183.879C180.96 184.519 180.32 185.638 180.96 187.397C181.44 188.996 181.6 190.435 181.92 192.034C183.68 200.508 184 208.983 184.96 217.457C185.28 220.815 185.6 224.172 186.56 227.37C187.52 222.733 190.56 218.576 189.92 213.46C189.12 207.543 189.12 201.467 189.28 195.551C189.28 194.592 189.12 193.952 188.32 193.153C185.92 190.435 183.84 187.397 182.56 183.719C183.36 183.399 183.84 183.879 184.32 184.519C185.12 185.318 185.92 186.118 186.56 186.917L186.88 187.077ZM173.92 107.289C175.52 106.81 177.28 107.129 178.88 106.97C184.48 108.249 189.28 110.967 193.76 114.804C192.8 106.01 187.68 101.533 179.36 101.533C177.76 101.373 176.16 101.533 174.72 102.333C171.84 102.972 169.28 104.251 166.88 105.69C163.2 107.929 163.2 107.929 164.32 111.926C164.64 113.365 165.12 113.206 165.92 112.246C168.16 109.848 170.72 107.929 173.92 107.129V107.289ZM138.24 129.835C138.24 129.835 138.4 129.835 138.24 129.675C139.52 129.675 140.8 129.355 142.08 129.355C143.2 129.355 143.52 128.875 143.84 128.076C146.24 119.601 149.12 111.447 152.64 103.292C152.8 102.812 152.96 102.173 152.8 101.693C151.2 95.6171 149.76 89.3812 148.16 83.3052C148.16 82.6656 148.16 81.8661 147.52 81.3864C147.52 81.8661 147.52 82.1859 147.52 82.5057C146.88 83.4651 147.04 84.7442 146.88 85.8635C143.84 100.414 140.96 114.964 137.92 129.515C137.92 129.675 137.92 129.835 137.92 129.994C137.28 133.352 136.48 136.71 135.84 140.068C133.28 152.859 131.2 165.811 128.16 178.443C128.16 178.922 127.68 179.722 128.16 180.042C128.64 180.201 129.44 180.042 130.08 179.882C130.72 179.722 130.56 178.922 130.72 178.443C131.68 173.646 133.12 169.009 134.4 164.212C137.12 153.979 139.68 143.745 142.4 133.512C143.04 130.954 143.04 131.114 140.64 131.114C139.84 131.114 138.4 131.913 138.4 130.154L138.24 129.835ZM84.96 237.444C84.96 237.444 84.96 237.444 84.96 237.284C83.04 224.652 81.6 211.861 80.16 199.229C80.16 198.429 80.16 197.95 79.04 197.95C78.08 197.95 77.76 198.429 77.6 199.389C76.32 207.703 74.08 216.018 72.48 224.172C71.52 228.809 70.24 233.446 69.76 238.243C69.12 239.363 69.28 240.642 68.8 241.761C68.64 242.4 68.96 242.56 69.6 242.56C74.56 242.56 79.68 242.88 84.64 243.04C85.44 243.04 85.76 242.88 85.6 241.921C85.28 240.482 85.12 238.883 84.8 237.444H84.96ZM88 237.124C88.16 238.883 88.48 240.482 88.64 242.241C88.64 243.2 89.28 243.52 90.24 243.52C92.32 243.52 94.4 243.68 96.32 243.84C97.12 243.84 97.6 243.68 97.76 242.88C98.4 241.121 99.36 239.362 99.84 237.604C101.12 234.885 101.76 231.847 102.72 228.969C102.88 228.49 103.04 228.01 102.72 227.37C98.88 222.094 96.16 216.338 92.96 210.741C89.76 205.145 86.72 199.549 83.84 193.473C82.56 195.551 81.12 196.83 81.92 199.549C83.36 204.346 83.84 209.462 84.64 214.419C85.76 221.934 86.88 229.609 88.16 237.124H88ZM91.36 135.111C91.84 134.312 91.84 133.352 92.16 132.553C92.8 131.114 92.16 130.954 90.88 130.954C86.08 130.954 81.12 130.954 76.32 130.954C72.96 130.954 72.96 130.954 73.76 134.312C73.76 137.19 74.24 140.068 74.72 142.786C76.16 154.938 77.76 167.09 79.36 179.242C79.52 181.001 79.36 182.76 80.48 184.678C80.8 183.719 80.96 183.08 81.12 182.28C83.68 170.928 86.4 159.735 88.96 148.382C89.92 143.905 91.04 139.588 91.52 135.111H91.36ZM93.28 105.211C93.28 104.891 93.12 104.731 92.8 104.411C86.4 101.054 79.68 99.6144 72.48 100.894C65.6 102.173 60.48 106.33 56.32 111.607C48.96 120.88 43.2 131.114 39.2 142.306C35.04 153.979 31.84 165.811 28.96 177.803C27.36 184.359 26.08 190.914 25.28 197.63C25.28 198.429 24.8 199.389 26.08 199.549C27.84 199.549 29.6 200.188 31.36 200.028C35.84 200.188 35.52 200.988 36.48 196.351C37.44 191.074 38.08 185.798 39.04 180.521C41.12 168.369 44.96 156.697 49.6 145.184C52.96 137.03 56.32 128.875 61.76 121.84C65.12 117.523 68.8 113.525 73.92 111.287C84.48 106.81 96.96 110.967 103.36 121.04C108.64 129.035 110.88 138.149 112.48 147.423C113.92 155.737 115.04 164.212 115.84 172.686C116.32 178.922 116.32 185.158 115.84 191.394C115.84 191.874 115.2 192.513 115.84 192.833C116.48 193.153 117.28 192.833 117.76 192.513C118.24 192.194 118.4 191.554 118.56 191.074C119.36 188.036 119.52 184.838 119.84 181.8C120.64 173.806 120.32 165.811 119.36 157.816C118.4 149.022 116.96 140.388 113.92 132.073C110.56 123.279 105.92 115.284 98.72 109.048C97.28 107.769 96.16 106.33 94.08 105.85C93.92 105.371 93.44 105.531 93.12 105.371L93.28 105.211ZM94.4 135.111C94.4 135.431 94.08 135.751 94.08 135.911C92.64 142.306 91.36 148.862 89.92 155.258C87.84 164.052 85.92 173.006 83.04 181.64C82.4 183.399 81.6 184.998 83.68 186.437C84 186.757 84.16 187.397 84.48 188.036C86.24 185.958 88 183.879 89.76 181.8C90.88 180.521 92.64 179.402 91.36 177.163C91.36 177.004 91.36 176.524 91.36 176.204C91.68 173.326 92.96 170.608 93.44 167.89C93.76 165.811 94.72 165.651 96.48 165.651C98.72 165.651 100.8 165.331 103.04 165.651C103.84 165.651 104.48 165.491 104.96 164.692C107.36 161.334 109.28 157.976 107.36 153.659C107.04 152.7 107.04 151.58 106.72 150.621C105.28 145.184 104 139.748 101.28 134.791C101.28 133.992 100.8 133.512 100.48 132.873C99.36 130.634 98.24 130.154 95.84 130.634C95.36 130.634 95.04 130.954 94.88 131.433C94.88 132.553 94.24 133.672 94.4 134.791V135.111ZM66.88 238.243C66.88 238.083 67.2 237.764 67.2 237.604C69.6 225.132 72.48 212.82 75.84 200.508C76.48 197.95 76.16 195.871 75.04 193.473C70.24 198.749 65.28 203.706 59.68 208.023C56.32 210.581 53.44 213.939 49.76 216.178C49.12 216.657 49.28 217.137 49.44 217.617C49.92 220.335 50.24 222.893 50.72 225.612C51.68 230.089 52.48 234.406 54.24 238.723C54.72 240.002 54.08 241.921 56 242.081C59.04 242.4 62.08 242.4 65.12 242.4C65.76 242.4 66.24 242.4 66.4 241.601C66.4 240.482 67.04 239.363 66.88 238.243ZM48.48 206.904C48.48 208.823 48.64 210.741 48.8 212.5C48.48 212.98 48.48 213.14 49.12 213.3C49.28 213.3 49.6 213.3 49.76 212.98C58.08 206.424 66.4 199.868 74.08 192.673C75.68 191.074 75.84 189.955 74.56 188.036C71.84 184.359 68.64 181.001 65.28 177.803C60.8 173.486 56.48 169.169 51.84 165.011C50.56 163.892 50.24 164.212 50.08 165.811C49.76 168.849 49.28 171.727 48.96 174.765C48.48 175.085 48.48 175.564 48.96 176.044C48.96 177.803 48.96 179.562 48.8 181.321C48.16 182.12 48.16 182.92 48.8 183.719C49.12 184.199 49.76 184.199 50.24 183.719C51.68 183.719 52.96 183.719 54.4 183.719C54.4 184.039 54.4 184.359 54.4 184.678C52.96 184.678 51.68 184.998 50.24 184.998C48.96 184.998 48.48 185.478 48.48 186.757C48.48 192.034 48.48 197.47 48.48 202.747C48.16 204.186 48 205.625 48.64 207.064L48.48 206.904ZM71.2 134.312C71.2 133.512 71.2 132.713 71.04 131.913C71.04 130.954 70.4 130.634 69.6 130.634C67.04 130.634 64.48 130.314 61.92 130.154C60.96 130.154 60.32 130.154 60 131.274C59.04 133.512 57.76 135.751 56.8 137.989C55.68 140.707 53.92 143.426 53.28 146.304C52.16 151.101 51.84 156.057 51.04 160.854C51.04 161.494 51.04 161.973 51.68 162.293C55.2 164.852 58.24 168.049 61.44 170.927C66.4 175.724 71.52 180.361 75.36 186.117C75.68 186.757 75.84 187.716 76.96 187.237C77.92 186.757 77.92 185.958 77.92 185.158C77.76 183.719 77.44 182.28 77.28 180.841C76.16 172.686 75.04 164.532 74.08 156.377C73.12 149.182 72.32 141.827 71.52 134.472L71.2 134.312ZM109.12 237.124C108.48 239.203 107.84 241.281 107.04 243.52C106.72 244.479 107.2 244.479 108 244.479C110.24 244.479 112.64 244.479 114.88 244.479C127.04 244.959 139.2 245.279 151.2 243.999C152.32 243.999 152.64 243.68 152.16 242.72C151.52 241.441 151.04 240.162 150.56 238.883C150.56 238.403 150.24 237.763 150.08 237.284C148.16 231.528 146.72 225.771 145.92 219.695C145.76 218.096 146.72 216.018 145.28 215.059C144 214.099 142.08 214.579 140.48 214.579C137.12 214.419 133.6 214.579 130.24 213.779C128.64 213.459 128 212.34 128.32 210.741C129.12 207.224 129.6 203.546 129.92 200.028C130.24 196.83 129.92 193.952 127.2 191.714C126.56 191.074 126.08 190.275 125.6 189.635C125.44 189.315 125.12 188.836 124.8 188.996C123.84 189.795 122.08 189.955 121.76 191.394C120.96 194.432 119.2 196.031 116 195.551C115.04 195.551 114.72 195.871 114.56 196.83C114.56 199.709 114.24 202.427 114.08 205.145C113.28 212.02 112.48 218.896 111.36 225.771C110.72 229.609 109.92 233.446 109.28 237.124H109.12ZM422.88 170.608C423.04 161.813 422.24 155.897 420.32 149.981C419.36 146.943 419.04 143.745 417.28 141.027C414.24 136.07 409.6 135.431 405.12 139.108C399.36 144.065 395.68 150.461 392.8 157.336C386.72 172.526 382.56 188.356 381.6 204.985C380.96 216.178 381.76 227.37 385.76 237.923C386.88 240.961 388.32 243.999 390.72 246.238C393.76 248.956 397.28 249.276 400.64 246.878C402.72 245.438 404.64 243.68 406.08 241.441C410.56 234.726 414.4 227.69 416.96 220.015C419.36 212.66 420.32 204.825 420.96 197.15C421.76 187.557 422.24 177.803 422.72 170.768L422.88 170.608ZM155.52 185.158C155.52 187.716 155.84 190.115 155.84 192.513C156.16 201.467 156.8 210.422 159.36 219.216C161.44 226.571 163.52 233.766 167.68 240.322C170.56 244.639 173.92 245.119 177.76 241.441C180.32 239.043 182.4 236.165 184 232.967C184.64 231.687 185.92 230.568 184 229.289C183.68 229.129 183.68 228.49 183.52 228.01C183.2 225.612 182.72 223.373 182.4 220.975C181.44 211.541 180.8 202.107 179.84 192.833C179.84 192.194 179.84 191.554 179.2 191.234C178.56 191.714 178.56 192.353 178.4 192.833C177.44 196.671 176.64 200.348 175.68 204.186C173.76 213.14 170.56 221.614 168.32 230.568C168.32 231.048 168.16 231.847 167.36 231.688C166.56 231.688 166.4 230.888 166.56 230.249C166.56 229.129 166.88 228.17 167.2 227.051C169.12 219.536 171.84 212.02 173.6 204.505C174.4 201.148 175.36 197.95 176.32 194.592C176.32 194.112 177.28 192.993 176 192.993C174.4 192.993 172.64 192.993 171.36 195.072C168.64 199.549 165.6 203.866 162.56 208.183C162.08 208.982 161.44 210.421 160.48 209.782C159.52 209.142 160.48 208.023 160.96 207.064C163.36 202.907 166.24 198.909 169.12 195.072C169.44 194.592 170.24 194.272 169.76 193.473C168.32 190.914 167.36 188.196 166.88 185.318C166.88 184.359 166.24 184.039 165.28 184.199C163.68 184.519 162.08 184.838 160.32 184.998C158.72 184.998 157.12 185.958 155.2 185.318L155.52 185.158ZM104 224.492C104.64 221.774 105.12 219.695 105.44 217.457C106.72 210.741 108.16 204.186 108.96 197.31C109.12 195.391 109.28 193.952 106.88 193.153C104 192.194 103.68 190.914 104.16 188.356C104.64 186.277 104.8 184.039 105.28 181.96C105.44 180.841 105.28 180.521 104.16 180.201C101.44 179.402 98.56 179.402 95.84 179.402C95.04 179.402 94.56 179.722 94.08 180.361C91.04 183.559 88 186.917 84.8 190.115C84 190.914 84 191.554 84.64 192.673C89.6 200.028 93.92 207.543 98.4 215.218C100.16 218.256 101.92 221.294 103.84 224.652L104 224.492ZM191.2 224.812C188.8 233.606 183.68 240.801 180.16 244.159C174.88 249.276 168.48 248.477 164.64 242.241C159.52 233.766 157.12 224.332 154.88 214.899C154.24 212.5 153.92 209.942 153.44 207.224C152 209.302 151.84 211.221 151.04 212.98C150.56 213.939 150.08 214.739 149.12 214.899C148 215.058 147.84 215.538 148 216.657C149.76 226.091 152.64 235.205 156.32 243.999C158.24 248.636 160.64 253.113 164.64 256.471C168.96 260.309 172.48 260.309 176.8 256.471C180 253.593 182.4 250.235 184.48 246.558C187.36 241.281 188.8 235.525 191.36 230.249C192.16 228.33 191.68 226.891 191.2 224.812ZM77.76 264.626C80.48 264.626 84.32 262.387 87.52 259.03C88.32 258.07 89.92 257.271 88 255.832C87.68 255.512 87.68 254.872 87.52 254.393C87.2 252.154 86.72 249.916 86.56 247.517C86.56 245.918 85.76 245.598 84.48 245.598C79.52 245.598 74.56 245.279 69.6 245.119C68.48 245.119 68.16 245.598 67.84 246.558C66.88 250.555 66.88 254.712 65.12 258.71C64.96 259.189 65.12 259.509 65.44 259.669C68.48 262.227 71.52 264.946 77.76 264.786V264.626ZM165.92 125.837C164.16 125.198 164.16 125.198 163.2 126.157C157.6 132.073 154.56 139.268 152.64 146.783C150.56 154.778 149.6 163.093 148.48 171.407C147.2 181.321 147.84 191.074 147.52 200.988C147.52 201.787 147.68 202.427 148.64 202.427C150.24 202.427 151.68 203.226 153.28 203.866C152.96 197.47 152.48 191.234 152.32 184.998C151.84 174.285 152.32 163.732 154.56 153.339C156.64 143.426 159.68 133.992 166.08 125.837H165.92ZM83.04 129.035C85.92 129.035 88.8 129.035 91.68 129.035C92.16 129.035 92.8 129.035 93.12 128.396C94.72 125.677 94.24 122.799 92.16 120.561C86.24 114.645 79.52 113.206 72.64 116.403C71.84 116.883 71.2 117.203 71.36 118.322C71.84 121.36 72.32 124.398 72.64 127.436C72.64 128.555 73.28 129.035 74.4 128.875C77.28 128.875 80.16 128.875 83.04 128.875V129.035ZM157.76 153.819C155.36 163.892 155.04 173.646 155.52 183.559C158.56 182.44 161.76 182.28 164.8 181.8C166.08 181.64 166.56 181.321 166.24 179.882C165.28 174.605 165.12 169.169 165.28 163.892C165.28 163.412 165.28 162.933 165.12 162.453C162.88 159.575 160.64 156.537 157.92 153.819H157.76ZM165.28 159.095C165.44 157.336 165.6 156.217 165.76 154.938C166.56 149.182 167.68 143.585 169.92 138.149C170.56 136.71 172.32 135.431 171.68 134.152C171.04 132.873 168.8 133.032 167.52 132.233C166.08 131.433 165.6 132.073 164.96 133.192C162.24 138.149 160.32 143.266 158.88 148.542C158.4 150.301 157.6 151.9 160.16 153.339C162.08 154.458 163.36 156.857 165.28 158.935V159.095ZM153.76 105.211C153.44 106.01 153.28 106.49 153.12 106.97C147.68 124.078 142.72 141.347 138.56 158.935C136.96 165.331 135.04 171.727 133.6 178.123C133.12 180.681 135.04 179.402 135.84 179.882C136.8 180.521 137.12 179.882 137.44 178.762C138.72 170.448 140 162.293 141.92 154.139C145.28 139.108 149.28 124.078 153.6 109.208C153.92 108.089 154.56 106.97 154.08 105.211H153.76ZM150.56 66.5162C150.56 66.5162 150.4 66.5162 150.24 66.5162C149.76 69.2344 149.6 71.9527 148.96 74.6709C148.48 76.4297 148.96 78.0287 149.6 79.6276C151.36 83.9448 152.96 88.4218 153.92 93.0588C155.04 97.6957 157.12 101.853 157.6 106.65C158.24 111.447 160 116.084 161.28 120.88C161.28 121.2 161.28 121.84 161.76 121.68C162.08 121.68 162.4 121.36 162.72 121.04C163.36 120.561 163.04 120.081 162.88 119.441C161.76 115.444 160.8 111.447 159.84 107.449C157.28 97.216 155.68 86.663 152.96 76.4297C152.16 73.0719 151.36 69.7141 150.56 66.5162ZM88.48 85.3838C87.84 85.3838 87.04 85.3838 86.4 85.3838C85.12 85.7036 84 86.5031 83.84 87.6224C83.52 88.9015 84.8 89.3812 85.92 89.8609C86.88 90.1807 87.84 90.5005 88.96 90.5005C90.08 90.5005 91.84 90.0207 91.84 91.7796C91.84 93.5384 90.08 93.0587 89.12 93.3785C87.68 93.8582 85.6 94.0181 85.44 95.6171C85.44 97.0561 87.04 98.0155 88.32 98.815C88.32 98.815 88.64 98.815 88.8 98.9748C89.76 99.4545 90.24 98.9749 90.56 98.1754C92.8 91.7796 94.72 85.3838 96.16 78.8281C96.16 78.1886 96.64 77.8687 95.68 77.549C91.84 76.4297 88.16 76.5896 84.64 78.6682C84.16 78.988 83.68 79.1479 83.68 79.7875C83.68 80.7468 86.4 82.6656 87.36 82.3458C88.96 82.026 90.4 81.7062 92 82.1859C92.8 82.3458 93.44 82.8255 93.44 83.7848C93.44 84.7442 92.8 85.064 92 85.2239C90.88 85.5437 89.6 85.7036 88.32 85.5437L88.48 85.3838ZM155.36 112.566C154.88 112.566 154.88 113.046 154.72 113.206C153.44 117.842 152.32 122.479 151.04 126.956C150.72 128.395 150.56 129.195 152.32 129.195C152.8 129.195 153.6 129.355 153.92 129.835C154.56 130.634 154.88 130.314 155.2 129.835C156.16 128.396 157.12 127.116 158.08 125.837C158.4 125.358 158.56 125.038 158.4 124.398C157.28 120.561 156.32 116.563 155.2 112.566H155.36ZM168.32 166.45C168 170.448 168.32 173.806 168.8 177.323C169.12 181.161 169.28 181.161 173.12 180.841C173.76 180.841 174.56 180.841 175.2 180.681C175.68 180.681 176.16 180.681 176.16 180.042C176.16 178.602 176.48 177.003 175.68 175.724C173.6 172.686 171.04 169.808 168.32 166.61V166.45ZM63.2 257.111C64 253.433 64.64 249.916 65.28 246.398C65.44 245.438 65.28 244.959 64.16 244.959C61.92 244.959 59.52 244.959 57.28 244.959C56.48 244.959 56.16 245.119 56.48 245.918C58.24 249.916 60 253.753 63.2 257.271V257.111ZM145.12 205.625C144 205.625 142.88 205.625 141.6 205.625C140.96 205.625 140.32 205.785 140 206.424C139.36 207.703 138.72 208.982 138.08 210.422C137.76 211.221 138.08 211.381 138.72 211.541C140.64 211.701 142.56 212.02 144.32 212.18C148 212.5 148 212.5 149.12 208.982C149.28 208.503 149.44 208.023 149.76 207.543C150.56 206.104 149.76 205.785 148.64 205.625C147.36 205.625 146.24 205.625 144.96 205.625H145.12ZM110.72 59.8006C110.56 64.7574 108.16 68.5949 106.08 72.912C108 72.4323 109.44 71.6329 110.88 70.8334C112.96 69.5543 115.04 68.1152 116.16 65.7168C116.8 64.2777 116.64 63.3183 115.2 62.5189C113.76 61.7194 112.48 60.9199 110.88 59.9605L110.72 59.8006ZM101.28 77.7089C101.28 77.3891 101.28 77.2292 101.12 77.0693C100.32 76.5896 97.76 78.0287 97.76 78.8281C97.44 85.2239 96 91.2999 93.92 97.216C93.92 97.6957 93.12 98.1754 93.92 98.4952C94.4 98.815 95.2 98.6551 95.68 98.3353C96.32 97.8556 96.48 97.216 96.64 96.5764C97.44 93.8582 98.24 91.2999 99.04 88.5817C100 85.064 100.8 81.3865 101.6 77.8688L101.28 77.7089ZM70.08 118.002C66.56 121.2 63.84 124.558 61.44 128.715C64.48 128.715 67.2 128.715 69.92 128.715C70.72 128.715 70.88 128.395 70.88 127.756C70.4 124.718 70.56 121.68 70.24 118.162L70.08 118.002ZM98.4 176.204C100.8 176.204 103.04 176.524 105.12 177.163C106.08 177.483 106.4 177.003 106.56 176.204C106.88 174.445 107.04 172.686 107.36 170.927C107.36 170.288 107.68 169.488 106.72 169.169C105.92 168.849 105.12 169.009 104.48 169.648C102.56 171.727 100.48 173.806 98.56 176.204H98.4ZM172 191.394C173.44 189.315 174.88 187.397 176.32 185.318C176.96 184.359 176.96 183.08 176.32 182.28C175.84 181.481 174.88 182.28 174.08 182.44C172.96 182.6 172 182.92 170.88 183.08C169.76 183.08 169.6 183.719 169.76 184.678C170.24 186.917 170.72 188.996 171.68 191.234L172 191.394ZM90.72 255.352C91.84 253.753 92.8 252.474 93.6 251.035C94.56 249.596 95.52 248.317 95.84 246.558C94.08 246.398 92.32 246.238 90.56 245.918C89.6 245.918 89.44 246.238 89.44 247.197C89.76 249.756 90.24 252.314 90.56 255.352H90.72ZM94.56 176.204C97.28 173.965 99.04 171.247 101.28 169.169C101.92 168.529 101.6 168.209 100.8 168.209C99.52 168.209 98.08 167.89 96.8 167.89C96.16 167.89 95.52 167.89 95.36 168.689C94.88 171.087 94.24 173.486 94.56 176.364V176.204ZM110.08 185.158C110.08 184.039 110.08 183.08 110.08 181.96C110.08 181.64 110.08 181.161 109.6 181.001C109.12 181.001 108.96 181.321 108.96 181.8C108.48 184.199 108.16 186.597 107.68 189.156C107.52 190.115 108.48 190.435 109.12 190.595C110.08 190.754 109.76 189.795 109.76 189.315C109.92 187.876 109.92 186.597 110.08 185.158ZM174.24 191.074C177.28 190.914 177.92 189.795 176.8 187.077C176 188.356 175.2 189.635 174.24 191.074ZM80.64 188.996C79.2 190.595 79.2 192.353 78.88 194.272C80.32 192.673 80.8 191.074 80.64 188.996ZM96.64 126.317C96 127.116 95.52 128.076 96.16 128.875C96.48 129.355 97.76 129.195 97.92 128.875C98.24 127.756 97.28 127.116 96.64 126.317ZM109.12 166.45C109.12 165.491 109.12 164.692 108.64 163.732C107.573 165.225 107.733 166.131 109.12 166.45ZM112.16 195.711C111.2 197.15 111.52 198.749 111.2 200.188C111.2 200.508 110.88 200.988 111.52 201.148C112 201.148 112.16 200.828 112.16 200.348C112.16 198.749 112.16 197.31 112.16 195.711ZM192.96 233.127C192.8 233.766 192.64 234.246 192.48 234.726C192 236.165 192.96 235.685 193.44 235.205C194.08 234.566 193.44 234.086 192.96 233.127ZM92.48 115.924C91.52 115.284 91.2 114.804 90.4 114.964C90.72 115.764 91.2 115.924 92.48 115.924Z" fill="#090808"/>
<path d="M12 147.743C16.64 147.583 21.28 148.222 25.92 148.222C26.88 148.222 28.48 148.702 28.64 147.743C28.64 146.464 27.04 146.624 26.08 146.464C21.92 146.144 17.76 145.824 13.44 145.664C14.08 143.426 15.68 141.507 16.96 139.588C20.32 135.111 24.64 132.393 30.56 133.192C33.12 133.512 35.84 133.832 38.56 133.992C35.68 141.667 32.8 149.342 30.72 157.336C30.4 158.616 29.92 160.055 29.6 161.334C29.44 162.613 28.64 162.933 27.52 162.933C23.68 162.933 19.68 162.773 15.84 162.613C14.56 162.613 13.12 162.613 11.84 163.253C11.52 163.253 11.2 163.412 11.2 163.892C11.2 164.212 11.52 164.372 11.84 164.372C12.96 164.372 14.08 164.692 15.2 164.692C19.36 164.692 23.36 165.011 27.52 164.532C29.12 164.372 28.32 165.491 28.32 165.971C27.36 169.808 26.24 173.646 25.28 177.643C23.84 184.039 22.56 190.435 21.6 196.99C21.6 197.79 21.6 198.589 21.6 199.229C21.6 201.627 22.56 202.747 24.96 203.066C26.72 203.226 28.32 203.386 30.08 203.546C31.04 203.546 31.36 203.866 31.36 204.825C30.4 215.218 32.16 225.452 34.72 235.525C34.72 235.685 34.72 235.845 34.72 236.005C29.92 235.685 25.12 235.205 20.48 235.365C13.6 235.685 6.88 236.165 0 236.484C0 217.617 0 198.749 0 179.722C1.28 179.402 2.72 179.562 4 179.402C5.44 179.402 5.92 178.602 5.6 177.323C5.28 175.564 4.64 173.806 4.8 172.047C4.8 172.047 5.12 171.727 5.12 171.567C6.4 164.852 8 158.136 10.24 151.58C13.28 151.9 16.32 152.06 19.36 152.38C19.84 152.38 20.64 152.7 20.8 151.9C20.8 151.101 20 151.26 19.52 151.101C16.8 150.301 13.92 150.621 11.36 149.662C11.36 148.862 11.68 148.063 11.84 147.263L12 147.743Z" fill="#D0CACA"/>
<path d="M0 236.644C6.88 236.325 13.6 235.845 20.48 235.525C25.28 235.365 30.08 235.845 34.72 236.165C35.04 237.444 35.36 238.723 35.84 240.002C36.32 241.281 35.84 241.441 34.72 241.441C23.2 241.441 11.52 241.441 0 241.281C0 239.682 0 238.243 0 236.644Z" fill="#FAFAFA"/>
<path d="M0 127.116C1.92 127.116 3.84 127.276 5.76 127.596C6.56 127.596 7.04 127.916 6.4 128.715C4 131.913 2.08 135.591 0 139.108V127.116Z" fill="#CAC5C5"/>
<path d="M425.76 172.367H425.44C424.8 170.928 425.44 169.488 425.76 168.209V172.367Z" fill="#5F5F5F"/>
<path d="M425.76 162.773C425.28 161.494 424.8 160.374 425.28 158.935C425.44 158.935 425.6 158.935 425.76 158.935V162.773Z" fill="#5F5F5F"/>
<path d="M206.72 0.479714C205.6 0.799503 204.8 0.479684 203.84 0H206.56C206.24 0.31979 206.56 0.319819 206.72 0.479714Z" fill="#5F5F5F"/>
<path d="M199.68 143.266C198.56 145.664 197.6 147.903 196.48 150.461C194.88 145.504 193.92 140.547 192.8 135.751C192 132.073 190.24 128.715 187.52 125.997C186.88 125.358 186.08 124.878 184.96 124.878C184.16 124.878 183.84 124.398 183.52 123.759C184.8 122.639 184.48 122.16 183.04 121.68C177.6 119.601 172.48 120.561 168 124.238C167.68 124.398 167.52 124.878 167.04 124.878C166.4 123.759 167.04 122.959 168 122.479C176.16 116.723 187.84 117.043 192.48 129.035C194.08 133.032 195.2 137.19 196.32 141.187C196.48 141.827 196.64 142.626 196.96 143.106C197.28 143.586 197.28 144.545 198.08 144.545C198.88 144.545 198.56 143.426 199.04 143.106C199.36 143.266 199.36 143.745 199.84 143.586L199.68 143.266Z" fill="#5F5F5F"/>
<path d="M425.12 156.217C424.64 155.897 424.64 155.418 424.8 154.938C425.12 155.258 425.28 155.737 425.12 156.217Z" fill="#5F5F5F"/>
<path d="M209.44 0.9594C208.96 1.11929 208.48 0.95938 208.16 0.63959C208.64 0.479696 209.12 0.63961 209.44 0.9594Z" fill="#5F5F5F"/>
<path d="M424.64 153.499C424.32 153.339 424.16 153.019 424.32 152.7C424.64 152.859 424.8 153.179 424.64 153.499Z" fill="#5F5F5F"/>
<path d="M211.36 1.43902C211.04 1.59892 210.72 1.43905 210.4 1.11926C210.72 0.959369 211.04 1.11923 211.36 1.43902Z" fill="#5F5F5F"/>
<path d="M375.2 217.457C372.32 217.457 369.44 217.457 366.56 217.457C365.92 217.457 364.8 217.137 364.64 218.416C359.36 218.416 354.24 219.376 349.12 220.175C342.72 221.134 336.16 221.774 329.6 222.574C325.12 223.213 320.64 223.213 316.16 224.013C315.36 224.013 314.4 223.533 314.08 224.652C310.24 224.972 306.4 225.132 302.72 225.452C302.24 225.132 301.92 225.132 301.44 225.452C300.8 225.452 300.16 225.452 299.68 225.452C299.2 225.452 298.88 225.452 298.88 225.931C298.88 226.411 299.2 226.571 299.68 226.411C301.76 226.411 303.84 226.411 306.08 226.411C306.88 226.731 307.68 226.731 308.48 226.251C326.24 226.251 344 226.251 361.76 226.251C364.16 226.251 366.4 226.251 368.8 226.091C369.44 226.411 369.92 226.411 370.56 226.091C373.12 225.931 375.84 225.612 378.4 225.452C379.2 225.452 379.84 225.452 380 226.411C380.96 232.487 382.72 238.403 385.28 243.999C382.4 243.999 379.52 243.52 376.8 243.52C368.32 243.52 360 242.56 351.52 242.4C340.8 242.241 330.08 242.081 319.36 240.802C314.4 240.162 309.44 239.842 304.48 239.522C297.6 239.043 290.56 238.403 283.68 238.243C278.88 238.083 274.08 237.604 269.12 237.444C258.08 237.124 247.2 237.124 236.16 238.243C228.8 238.883 221.44 239.362 214.08 239.682C209.44 239.842 204.8 239.522 200.16 240.002C198.24 240.162 196.32 240.322 194.4 239.842C194.4 239.842 194.72 239.522 194.88 239.522C198.88 238.243 199.2 237.764 197.92 233.766C196.8 230.408 196.16 227.051 195.52 223.533C195.36 222.574 195.52 222.094 196.64 221.934C198.72 221.934 200.8 221.614 202.88 221.454C203.36 221.454 203.68 221.454 204 221.454C206.24 221.454 208.32 221.294 210.56 221.135C214.08 221.135 217.44 221.134 220.96 220.975C222.72 221.134 224.64 221.134 226.4 220.975C230.56 221.454 234.88 221.134 239.04 221.294C240.48 221.294 242.08 221.614 243.52 220.975C245.28 220.975 246.88 220.335 248.48 219.855C249.28 219.855 250.08 219.536 250.72 219.056C245.12 219.056 239.68 219.056 234.24 219.056C231.04 219.056 227.84 219.376 224.64 219.056C224.32 218.896 224.16 218.576 223.84 218.576C214.88 217.297 205.92 216.018 196.8 215.538C195.68 215.538 195.2 215.059 195.2 213.939C195.2 212.18 195.2 210.422 194.88 208.663C205.12 207.384 215.36 207.863 225.76 208.023C246.24 208.343 266.88 208.982 287.36 208.023C291.2 207.863 295.2 208.023 299.04 208.023C299.52 208.023 300 208.023 300.64 208.023C301.12 208.023 301.6 207.703 301.44 207.224C301.44 206.744 300.96 206.584 300.48 206.584C297.44 206.584 294.4 206.584 291.36 206.584C290.24 205.944 288.96 206.424 287.84 206.264C280 204.985 272 204.505 264.16 204.026C258.4 203.706 252.8 203.226 247.04 202.906C240 202.427 232.96 201.947 225.92 201.787C216.48 201.627 207.2 201.787 197.76 201.308C195.36 201.308 195.2 201.308 195.52 198.749C196.48 191.394 197.12 184.199 198.56 176.844C203.84 176.844 209.12 176.844 214.4 176.844C222.24 176.844 230.08 176.364 237.92 176.044C238.56 176.044 239.36 176.044 239.84 175.405C239.36 174.765 238.56 174.925 237.92 174.765C234.24 174.605 230.56 174.605 226.88 174.765C217.76 175.405 208.8 174.925 199.68 175.245C199.36 175.245 199.2 175.245 198.88 175.245C201.28 165.171 204.8 155.738 210.56 147.103C211.68 145.504 212.96 144.385 215.04 144.225C216.48 144.225 217.76 143.745 219.2 143.745C225.6 143.905 232 143.426 238.4 143.266C246.88 143.266 255.36 143.745 263.84 143.745C264.48 143.745 265.12 143.745 265.76 143.745C267.2 143.745 267.68 144.225 266.88 145.664C265.44 147.743 264.32 150.141 263.68 152.54C263.36 153.819 262.4 154.298 261.44 154.458C256.64 154.938 251.68 155.578 246.88 156.537C244.16 157.017 241.12 156.857 238.56 157.976C237.92 157.976 237.12 157.976 236.48 157.976C231.04 157.976 225.76 157.816 220.48 158.456C220 158.456 219.2 158.456 219.04 159.095C219.52 159.575 220.16 159.415 220.64 159.575C227.84 160.215 235.2 160.055 242.4 160.374C248.8 160.694 255.2 160.694 261.44 161.334C261.44 161.494 261.44 161.654 261.44 161.973C259.68 169.489 259.52 177.163 260 184.838C260 186.757 260 188.836 261.12 190.755C261.76 194.592 262.24 194.912 266.24 194.752C266.88 194.752 267.36 194.752 268 194.752C270.24 194.539 271.467 193.366 271.68 191.234C273.44 190.115 273.44 188.036 274.08 186.437C275.52 182.92 276.96 179.242 277.76 175.405C281.44 174.925 285.28 175.405 288.96 175.405C289.92 175.405 291.04 175.405 292 175.245C293.44 175.085 292.96 174.445 292.32 173.806C292.64 172.846 294.08 173.326 294.4 172.367C290.08 171.247 285.92 170.288 281.6 169.648C280.48 169.648 280.32 169.169 280.64 168.209C280.96 166.93 281.92 165.971 281.92 164.692C284.48 164.692 287.04 165.011 289.6 165.011C290.4 165.011 291.2 165.011 291.04 163.892H295.84C295.2 162.773 294.24 162.293 293.28 161.973C291.04 161.014 288.64 160.215 286.24 159.575C285.28 159.415 284.8 159.095 285.44 157.976C288 153.659 290.4 149.342 293.6 145.504C294.72 144.225 296 143.426 297.44 143.426C303.84 143.426 310.08 143.426 316.48 143.426C317.28 143.426 317.6 143.745 317.28 144.705C316.8 145.824 316.32 146.783 316 147.903C312.48 157.816 312.48 168.049 313.44 178.443C313.44 180.042 313.28 181.96 314.4 183.399C314.4 186.437 314.08 189.475 314.4 192.513C314.4 193.633 313.6 193.313 313.12 193.313C307.52 193.792 301.92 193.633 296.32 193.792C292.32 193.792 288.48 193.633 284.48 194.112C283.68 194.112 282.72 194.112 282.08 194.752C282.24 195.391 282.72 195.232 283.04 195.232C293.44 195.551 303.84 195.871 314.24 195.391C317.6 195.232 320.8 195.871 324.16 196.031H324.48C328.96 196.671 329.12 196.511 329.6 192.353C330.72 192.353 330.4 191.394 330.56 190.755C332 184.199 333.92 177.643 335.84 171.247C340.48 170.928 345.28 170.768 349.92 170.448C351.04 170.448 352.16 170.448 353.44 169.968C352.48 168.849 351.04 169.808 350.08 169.009C349.76 167.73 348.48 168.049 347.68 167.89C345.12 167.57 342.4 167.09 339.84 166.93C337.44 166.93 337.44 166.61 338.08 164.532C338.24 163.892 338.56 163.253 338.4 162.453C349.28 161.334 360 161.014 370.88 160.694C366.56 158.616 362.08 159.095 357.6 158.935C357.28 158.616 356.96 158.616 356.64 158.616C351.52 158.136 346.24 157.496 340.96 157.017C342.88 152.06 344.8 147.263 347.68 142.786C348.32 141.667 349.12 141.187 350.4 141.347C356.64 141.347 362.88 141.667 369.12 142.146C374.08 142.466 378.88 142.466 383.84 142.626C385.6 142.626 387.36 142.946 389.28 143.106C388.16 144.385 386.88 145.344 386.4 146.783C381.6 146.783 376.64 146.783 372 148.382C376 148.702 380.16 148.063 384.16 148.702C383.84 150.781 382.56 152.38 381.76 154.299C377.76 163.413 375.84 173.166 375.04 183.08C374.72 186.757 374.56 190.435 374.24 194.112C373.44 202.107 372.96 210.102 375.04 217.937L375.2 217.457Z" fill="#D0CBCB"/>
<path d="M422.88 170.608C422.4 177.643 421.92 187.397 421.12 196.99C420.48 204.825 419.52 212.5 417.12 219.855C414.56 227.53 410.88 234.566 406.24 241.281C404.8 243.36 402.88 245.119 400.8 246.718C397.44 249.116 393.92 248.956 390.88 246.078C388.48 243.84 387.04 240.802 385.92 237.764C381.92 227.051 381.12 216.018 381.76 204.825C382.72 188.356 386.72 172.527 392.96 157.177C395.68 150.301 399.52 143.905 405.28 138.949C409.6 135.271 414.4 135.911 417.44 140.867C419.2 143.586 419.36 146.943 420.48 149.821C422.4 155.738 423.36 161.654 423.04 170.448L422.88 170.608ZM389.12 215.378C389.28 223.053 389.92 228.969 390.72 235.045C391.36 240.162 394.88 241.441 399.04 238.403C401.6 236.484 403.52 233.766 404.96 231.048C410.4 220.655 413.12 209.462 414.24 197.95C415.2 187.876 415.84 177.803 417.12 167.89C417.76 162.773 417.92 157.496 415.36 152.7C414.56 151.261 413.76 149.821 412.32 148.862C410.72 148.063 409.28 148.063 408 149.662C407.04 150.941 405.76 151.9 404.8 153.179C397.44 162.293 392.64 172.526 392.32 184.519C392.32 190.754 392 196.831 390.88 203.066C389.92 207.703 388.96 212.5 389.12 215.538V215.378Z" fill="#CCC7C7"/>
<path d="M94.4 105.69C96.32 106.17 97.6 107.769 99.04 108.888C106.24 115.124 110.88 123.119 114.24 131.913C117.28 140.228 118.72 148.862 119.68 157.656C120.64 165.651 120.96 173.646 120.16 181.64C119.84 184.678 119.68 187.876 118.88 190.914C118.88 191.554 118.56 192.034 118.08 192.353C117.44 192.833 116.8 192.993 116.16 192.673C115.52 192.353 116.16 191.714 116.16 191.234C116.64 184.998 116.64 178.762 116.16 172.526C115.52 164.052 114.4 155.738 112.8 147.263C111.2 137.989 108.8 128.875 103.68 120.88C97.12 110.807 84.8 106.65 74.24 111.127C69.12 113.365 65.44 117.363 62.08 121.68C56.64 128.715 53.28 136.87 49.92 145.025C45.28 156.377 41.44 168.049 39.36 180.361C38.4 185.638 37.92 190.914 36.8 196.191C35.84 200.988 36.16 200.188 31.68 199.868C31.68 193.153 32 186.437 32.96 179.882C35.04 166.131 37.92 152.38 43.2 139.428C46.88 130.314 51.2 121.68 58.72 114.964C65.44 108.888 73.12 104.891 82.4 104.571C86.24 104.571 89.92 104.571 93.6 105.051C93.76 105.531 94.24 105.371 94.56 105.531L94.4 105.69Z" fill="#E8636B"/>
<path d="M109.12 237.124C109.76 233.286 110.56 229.449 111.2 225.771C112.48 218.896 113.28 212.02 113.92 205.145C114.24 202.427 114.4 199.549 114.4 196.83C114.4 195.871 114.72 195.391 115.84 195.551C119.04 196.031 120.96 194.592 121.6 191.394C121.92 189.955 123.68 189.795 124.64 188.996C124.96 188.676 125.28 189.315 125.44 189.635C125.92 190.275 126.4 191.234 127.04 191.714C129.6 193.952 130.08 196.83 129.76 200.028C129.44 203.706 129.12 207.224 128.16 210.741C127.84 212.34 128.48 213.3 130.08 213.779C133.44 214.579 136.96 214.419 140.32 214.579C141.92 214.579 144 214.259 145.12 215.059C146.56 216.018 145.44 218.096 145.76 219.695C146.56 225.771 148 231.528 149.92 237.284C150.08 237.764 150.24 238.403 150.4 238.883C149.6 238.883 148.8 239.362 148 239.203C143.2 238.563 138.4 238.563 133.76 238.243C125.44 237.923 117.28 237.284 108.96 236.964L109.12 237.124Z" fill="#D0CACA"/>
<path d="M155.52 185.158C157.44 185.958 159.04 185.158 160.64 184.838C162.24 184.838 164 184.359 165.6 184.039C166.56 183.879 167.04 184.199 167.2 185.158C167.68 188.036 168.48 190.754 170.08 193.313C170.56 194.112 169.76 194.432 169.44 194.912C166.56 198.749 163.84 202.747 161.28 206.904C160.8 207.703 159.84 208.983 160.8 209.622C161.76 210.262 162.4 208.823 162.88 208.023C165.76 203.706 168.8 199.389 171.68 194.912C172.8 192.993 174.56 192.993 176.32 192.833C177.6 192.833 176.8 193.952 176.64 194.432C175.84 197.79 174.72 200.988 173.92 204.346C172.16 212.021 169.44 219.376 167.52 226.891C167.2 228.01 167.04 228.969 166.88 230.089C166.88 230.728 166.88 231.528 167.68 231.528C168.48 231.528 168.48 230.888 168.64 230.408C170.72 221.614 173.92 212.98 176 204.026C176.8 200.188 177.76 196.511 178.72 192.673C178.72 192.194 178.72 191.554 179.52 191.074C180.16 191.394 180 192.034 180.16 192.673C180.96 202.107 181.76 211.541 182.72 220.815C182.88 223.213 183.36 225.452 183.84 227.85C183.84 228.33 183.84 228.969 184.32 229.129C186.24 230.408 184.96 231.688 184.32 232.807C182.56 235.845 180.64 238.723 178.08 241.281C174.24 244.959 170.72 244.479 168 240.162C163.84 233.766 161.76 226.411 159.68 219.056C157.28 210.262 156.48 201.308 156.16 192.353C156.16 189.955 156 187.557 155.84 184.998L155.52 185.158Z" fill="#CCC7C7"/>
<path d="M261.12 190.275C260.16 188.356 260.16 186.437 260 184.359C259.68 176.684 259.68 169.009 261.44 161.494C261.44 161.334 261.44 161.174 261.44 160.854C261.76 160.854 261.92 160.854 262.24 160.854C263.36 161.014 263.68 160.215 263.84 159.415C263.84 158.456 262.88 158.775 262.4 158.616C261.6 158.456 260.96 158.456 260.16 158.456C252.96 158.136 245.76 157.656 238.56 157.336C241.28 156.057 244.16 156.377 246.88 155.897C251.68 154.938 256.48 154.458 261.44 153.819C262.56 153.819 263.52 153.339 263.68 151.9C264.16 149.342 265.28 147.103 266.88 145.025C267.84 143.585 267.2 143.266 265.76 143.106C265.12 143.106 264.48 143.106 263.84 143.106C255.36 143.106 246.88 142.626 238.4 142.626C232 142.626 225.6 143.266 219.2 143.106C217.76 143.106 216.48 143.426 215.04 143.586C213.12 143.745 211.68 144.865 210.56 146.464C204.8 155.098 201.28 164.692 198.88 174.605C195.36 175.245 195.36 175.245 195.68 172.047C196.64 162.133 199.2 152.699 203.04 143.426C204.64 139.588 206.88 137.829 211.36 137.669C229.6 136.87 247.84 136.55 265.92 136.23C270.24 136.23 274.4 136.07 278.88 136.71C278.56 138.149 277.6 138.789 276.8 139.748C270.88 147.103 267.52 155.738 264.16 164.372C261.76 170.608 260.96 177.163 261.12 183.879C261.12 185.958 261.12 188.036 261.12 190.115V190.275Z" fill="#FAFAFA"/>
<path d="M194.24 239.522C196.16 240.002 198.08 239.842 200 239.682C204.64 239.203 209.28 239.682 213.92 239.362C221.28 239.043 228.64 238.563 236 237.923C246.88 236.964 257.92 236.804 268.96 237.124C273.76 237.124 278.56 237.604 283.52 237.923C290.4 238.243 297.44 238.883 304.32 239.203C309.28 239.522 314.24 240.002 319.2 240.482C329.92 241.761 340.64 241.761 351.36 242.081C359.84 242.241 368.16 243.2 376.64 243.2C379.52 243.2 382.24 243.839 385.12 243.68C386.4 245.279 387.36 247.037 388.8 248.796C384.96 248.476 381.28 248.317 377.44 247.837C362.88 246.238 348.32 245.279 333.6 244.799C318.72 244.319 303.84 243.52 288.96 242.4C283.52 241.921 278.08 242.081 272.64 241.921C263.2 241.761 253.6 241.281 244.16 241.601C230.4 242.081 216.64 243.04 202.88 244.479C198.08 244.959 193.44 245.119 188.64 245.119C189.76 240.482 190.4 239.682 194.4 239.203L194.24 239.522Z" fill="#FAFAFA"/>
<path d="M71.2 134.312C72 141.667 72.8 148.862 73.76 156.217C74.72 164.372 75.84 172.527 76.96 180.681C77.12 182.12 77.44 183.559 77.6 184.998C77.6 185.798 77.6 186.597 76.64 187.077C75.52 187.557 75.36 186.597 75.04 185.958C71.2 180.042 66.08 175.564 61.12 170.768C58.08 167.73 55.04 164.532 51.36 162.133C50.88 161.813 50.56 161.334 50.72 160.694C51.52 155.897 51.84 150.941 52.96 146.144C53.6 143.266 55.2 140.707 56.48 137.829C57.12 137.829 57.76 137.829 58.24 137.51C62.24 135.431 66.56 134.951 70.88 134.472L71.2 134.312Z" fill="#CEC8C8"/>
<path d="M48.8 212.5C48.8 210.581 48.64 208.663 48.48 206.904C48.8 205.465 48.8 204.026 48.32 202.587C48.16 197.31 48 191.874 48.32 186.597C48.32 185.318 48.8 184.838 50.08 184.838C51.52 184.838 52.8 184.678 54.24 184.519C54.72 184.519 55.36 184.678 55.36 184.039C55.36 183.559 54.72 183.399 54.24 183.559C52.8 183.559 51.52 183.559 50.08 183.559C48.48 183.559 49.12 182.12 48.64 181.321C48.64 179.562 48.64 177.803 48.8 176.044C49.12 175.724 49.12 175.245 48.8 174.765C49.12 171.727 49.6 168.849 49.92 165.811C49.92 164.372 50.4 164.052 51.68 165.011C56.32 169.009 60.8 173.486 65.12 177.803C68.48 181.001 71.52 184.359 74.4 188.036C75.84 189.795 75.68 191.074 73.92 192.673C66.24 200.028 57.92 206.424 49.6 212.98C49.44 212.98 49.12 213.14 48.96 213.3C48.96 212.98 48.96 212.66 48.64 212.5L48.8 212.5Z" fill="#CEC8C8"/>
<path d="M54.24 238.563C52.48 234.406 51.68 229.929 50.72 225.452C50.24 222.893 49.92 220.175 49.44 217.457C49.44 216.977 49.12 216.338 49.76 216.018C53.44 213.779 56.32 210.581 59.68 207.863C65.28 203.546 70.24 198.589 75.04 193.313C76.16 195.551 76.64 197.63 75.84 200.348C72.64 212.66 69.76 224.972 67.2 237.444C67.2 237.604 67.04 237.923 66.88 238.083C62.72 238.403 58.4 238.563 54.08 238.403L54.24 238.563Z" fill="#CEC8C8"/>
<path d="M104 224.492C102.08 221.134 100.32 218.097 98.56 215.059C94.08 207.384 89.76 199.868 84.8 192.513C84.16 191.554 84.16 190.914 84.96 189.955C88 186.757 91.2 183.559 94.24 180.201C94.72 179.722 95.2 179.242 96 179.242C98.88 179.242 101.6 179.242 104.32 180.042C105.28 180.361 105.6 180.681 105.44 181.8C105.12 183.879 104.8 186.117 104.32 188.196C103.68 190.914 104.16 192.034 107.04 192.993C109.28 193.792 109.28 195.232 109.12 197.15C108.32 203.866 106.88 210.581 105.6 217.297C105.12 219.535 104.64 221.614 104.16 224.332L104 224.492Z" fill="#CEC8C8"/>
<path d="M101.28 135.111C104 140.068 105.28 145.504 106.72 150.941C107.04 151.9 106.88 153.019 107.36 153.979C109.28 158.296 107.36 161.654 104.96 165.011C104.48 165.651 103.84 165.971 103.04 165.971C100.8 165.811 98.72 165.971 96.48 165.971C94.88 165.971 93.92 166.291 93.44 168.209C92.96 170.927 91.68 173.646 91.36 176.524C91.36 176.844 91.04 177.323 91.36 177.483C92.64 179.722 90.88 180.841 89.76 182.12C88 184.199 86.24 186.118 84.48 188.356C84.16 187.716 84 187.077 83.68 186.757C81.6 185.318 82.56 183.719 83.04 181.96C85.92 173.326 87.84 164.372 89.92 155.578C91.36 149.182 92.64 142.626 94.08 136.23C94.08 135.911 94.4 135.591 94.4 135.431C96.64 135.431 99.04 135.431 101.28 135.431V135.111Z" fill="#CEC8C8"/>
<path d="M191.2 224.812C191.68 226.731 192.32 228.33 191.36 230.249C188.8 235.685 187.36 241.441 184.48 246.558C182.4 250.235 179.84 253.593 176.8 256.471C172.48 260.309 168.96 260.309 164.64 256.471C160.8 252.954 158.24 248.636 156.32 243.999C152.64 235.205 149.92 226.091 148 216.657C147.84 215.538 148 215.058 149.12 214.899C150.08 214.739 150.72 213.939 151.04 212.98C151.84 211.221 152 209.142 153.44 207.224C153.92 210.102 154.24 212.5 154.88 214.899C157.12 224.332 159.52 233.766 164.64 242.241C168.48 248.477 174.88 249.436 180.16 244.159C183.68 240.801 188.8 233.606 191.2 224.812Z" fill="#5F5F5F"/>
<path d="M314.4 182.76C313.12 181.321 313.6 179.402 313.44 177.803C312.48 167.41 312.48 157.177 316 147.263C316.32 146.144 316.8 145.184 317.28 144.065C317.6 143.266 317.28 142.786 316.48 142.786C310.08 142.786 303.84 142.786 297.44 142.786C295.84 142.786 294.56 143.586 293.6 144.865C290.4 148.702 288 153.019 285.44 157.336C284.8 158.296 285.44 158.616 286.24 158.935C288.64 159.575 291.04 160.374 293.28 161.334C294.24 161.654 295.2 161.973 295.84 163.253H291.04C290.24 162.613 289.28 162.453 288.16 162.453C284.96 162.453 281.76 162.453 278.56 161.973C282.08 154.139 285.6 146.464 291.68 140.068C294.4 137.19 297.44 135.751 301.44 135.911C310.24 135.911 318.88 135.911 327.68 136.39C328.16 136.39 328.96 136.23 329.28 136.71C329.6 137.35 328.8 137.669 328.64 138.149C323.84 145.824 320.16 154.139 317.76 162.933C316 169.329 315.36 176.044 314.72 182.76H314.4Z" fill="#FAFAFA"/>
<path d="M375.2 217.457C373.12 209.622 373.6 201.627 374.4 193.633C374.72 189.955 374.88 186.277 375.2 182.6C376 172.686 377.92 163.093 381.92 153.819C382.72 151.9 384.16 150.301 384.32 148.222C387.68 148.063 390.88 148.222 394.56 148.222C391.36 153.499 389.28 158.775 387.68 164.212C384.16 176.524 380.48 188.676 379.2 201.467C378.72 206.104 378.4 210.741 378.88 215.378C379.04 216.977 378.88 217.937 376.96 217.297C376.48 217.137 375.84 217.297 375.2 217.137V217.457Z" fill="#FAFAFA"/>
<path d="M93.44 105.211C89.76 104.731 85.92 104.731 82.24 104.731C72.96 105.051 65.28 109.048 58.56 115.124C51.04 121.84 46.72 130.634 43.04 139.588C37.76 152.54 35.04 166.291 32.8 180.042C31.84 186.597 31.36 193.313 31.52 200.028C29.76 200.188 28 199.709 26.24 199.549C24.8 199.549 25.28 198.429 25.44 197.63C26.24 190.914 27.52 184.359 29.12 177.803C32.16 165.811 35.36 153.979 39.36 142.306C43.36 131.114 48.96 120.88 56.48 111.607C60.64 106.33 65.76 102.013 72.64 100.894C79.84 99.6145 86.56 101.054 92.96 104.411C93.28 104.571 93.44 104.731 93.44 105.211Z" fill="#F4F4F4"/>
<path d="M91.36 135.111C90.88 139.588 89.76 144.065 88.8 148.382C86.4 159.735 83.68 170.928 80.96 182.28C80.8 182.92 80.64 183.719 80.32 184.679C79.2 182.92 79.36 181.001 79.2 179.242C77.6 167.09 76.16 154.938 74.56 142.786C74.24 139.908 73.76 137.19 73.6 134.312C79.52 134.152 85.28 134.951 91.2 135.111L91.36 135.111Z" fill="#CEC8C8"/>
<path d="M137.12 183.879C138.24 183.719 138.24 182.6 138.4 181.96C140.16 176.684 140.96 171.247 141.92 165.971C144.16 154.618 146.88 143.426 149.6 132.233C149.92 130.794 150.4 130.474 151.68 130.954C152.32 131.274 153.12 131.274 154.08 131.433C152.16 135.271 150.4 139.108 149.28 142.946C147.04 150.621 145.76 158.456 144.8 166.291C144 173.326 143.68 180.201 143.84 187.237C143.84 191.554 144.32 195.711 144.96 200.028C144.96 200.668 145.92 202.267 144.16 202.107C137.92 201.308 136 205.305 134.56 209.942C134.24 211.061 133.76 211.221 132.64 211.061C131.36 211.061 131.2 210.581 131.36 209.302C132.16 205.305 132.64 201.308 132.64 197.15C132.64 194.752 131.84 192.833 129.92 191.234C128.8 190.275 127.84 189.156 126.56 188.356C125.76 187.716 125.44 186.917 125.76 185.958C127.68 185.798 129.6 186.437 131.52 186.757C133.12 186.757 134.72 187.077 136 185.798C137.28 185.638 136.8 184.679 136.8 183.879H137.12Z" fill="#CAC5C5"/>
<path d="M88 237.124C86.88 229.609 85.6 222.094 84.48 214.419C83.84 209.462 83.2 204.346 81.76 199.549C80.96 196.83 82.24 195.391 83.68 193.473C86.4 199.549 89.6 205.145 92.8 210.741C96 216.338 98.72 222.094 102.56 227.37C103.04 228.01 102.88 228.49 102.56 228.969C101.6 231.847 100.96 234.885 99.68 237.604C99.2 236.964 98.56 237.124 97.92 237.124C94.56 237.124 91.2 237.124 87.68 237.124H88Z" fill="#CCC7C7"/>
<path d="M386.72 146.304C387.2 144.865 388.48 143.905 389.6 142.626C387.68 142.466 385.92 142.146 384.16 142.146C379.2 141.987 374.4 142.146 369.44 141.667C363.2 141.187 356.96 141.027 350.72 140.867C349.44 140.867 348.64 141.347 348 142.306C345.12 146.624 343.2 151.42 341.28 156.537C346.72 157.017 351.84 157.656 356.96 158.136C357.28 158.136 357.76 158.136 357.92 158.456C352.48 158.935 347.04 158.935 341.6 159.575C339.84 159.895 337.92 159.895 336 160.215C338.24 152.54 341.76 145.664 346.08 139.108C346.72 137.989 347.84 137.989 348.96 137.829C358.24 136.39 367.52 136.07 376.96 136.07C384.8 136.07 392.64 136.39 400.32 136.07C401.6 136.07 402.88 136.07 404.16 136.07C404.32 137.03 403.68 137.35 403.36 137.669C400.64 139.748 398.4 142.306 396.64 145.184C396 146.144 395.36 146.464 394.24 146.464C391.68 146.464 389.28 146.464 386.72 146.304Z" fill="#FAFAFA"/>
<path d="M198.56 176.364C197.28 183.559 196.48 190.914 195.52 198.27C195.2 200.668 195.36 200.668 197.76 200.828C207.2 201.307 216.48 201.148 225.92 201.307C232.96 201.307 240 201.947 247.04 202.427C252.8 202.747 258.4 203.226 264.16 203.546C272.16 204.026 280 204.505 287.84 205.785C288.96 205.944 290.24 205.465 291.36 206.104C272.16 206.904 252.96 206.584 233.6 206.104C224.48 205.944 215.36 205.785 206.24 205.785C202.72 205.785 199.04 206.104 195.52 206.744C194.24 206.904 193.76 206.744 193.6 205.305C192.96 196.511 194.08 187.716 194.72 178.922C195.04 176.044 195.04 176.044 198.4 176.364H198.56Z" fill="#FAFAFA"/>
<path d="M69.76 238.243C70.24 233.446 71.52 228.809 72.48 224.172C74.08 215.858 76.32 207.703 77.6 199.389C77.6 198.589 77.92 197.95 79.04 197.95C80.16 197.95 80.16 198.589 80.16 199.229C81.6 211.861 83.04 224.652 84.96 237.284C84.96 237.284 84.96 237.284 84.96 237.444C79.84 237.284 74.88 238.083 69.76 238.243Z" fill="#CCC7C7"/>
<path d="M165.92 125.837C159.52 133.992 156.48 143.426 154.4 153.339C152.16 163.892 151.84 174.445 152.16 184.998C152.32 191.234 152.8 197.47 153.12 203.866C151.52 203.226 150.24 202.427 148.48 202.427C147.52 202.427 147.36 201.787 147.36 200.988C147.68 191.074 147.04 181.321 148.32 171.407C149.44 163.093 150.24 154.938 152.48 146.783C154.56 139.108 157.6 131.913 163.04 126.157C164 125.198 164 125.038 165.76 125.837L165.92 125.837Z" fill="#5F5F5F"/>
<path d="M109.12 237.124C117.44 237.444 125.6 238.083 133.92 238.403C138.72 238.563 143.52 238.723 148.16 239.362C148.96 239.362 149.76 239.043 150.56 239.043C151.04 240.322 151.52 241.601 152.16 242.88C152.64 243.999 152.16 244.159 151.2 244.159C139.04 245.438 126.88 244.959 114.88 244.639C112.64 244.639 110.24 244.639 108 244.639C107.2 244.639 106.72 244.639 107.04 243.68C107.68 241.601 108.32 239.522 109.12 237.284V237.124Z" fill="#FAFAFA"/>
<path d="M157.76 153.819C160.48 156.697 162.72 159.575 164.96 162.453C165.28 162.933 165.12 163.412 165.12 163.892C165.12 169.329 165.12 174.605 166.08 179.882C166.4 181.161 165.92 181.64 164.64 181.8C161.6 182.12 158.4 182.44 155.36 183.559C154.88 173.486 155.36 163.732 157.6 153.819L157.76 153.819Z" fill="#CCC7C7"/>
<path d="M182.72 183.879C184 187.397 185.92 190.435 188.48 193.313C189.12 194.112 189.44 194.752 189.44 195.711C189.44 201.787 189.28 207.703 190.08 213.619C190.88 218.896 187.84 222.893 186.72 227.53C185.76 224.332 185.44 220.975 185.12 217.617C184.16 209.142 183.68 200.508 182.08 192.193C181.76 190.595 181.6 188.996 181.12 187.557C180.64 185.798 181.12 184.678 182.88 184.039L182.72 183.879Z" fill="#CAC5C5"/>
<path d="M38.56 134.152C35.84 133.832 33.28 133.672 30.56 133.352C24.64 132.553 20.32 135.111 16.96 139.748C15.52 141.667 14.08 143.426 13.44 145.824C12 146.144 10.24 146.623 9.44 145.824C8.64 144.865 10.08 143.426 10.56 142.306C12.48 137.51 15.2 133.352 18.56 129.355C19.36 128.395 20.16 128.076 21.44 128.076C27.36 128.396 33.28 128.555 39.2 128.396C41.28 128.396 41.28 128.395 40.48 130.154C39.84 131.593 39.2 132.873 38.56 134.312V134.152Z" fill="#FAFAFA"/>
<path d="M138.24 129.835C138.24 131.593 139.68 130.954 140.48 130.794C143.04 130.794 143.04 130.794 142.24 133.192C139.52 143.426 136.96 153.659 134.24 163.892C132.96 168.689 131.52 173.326 130.56 178.123C130.56 178.602 130.56 179.402 129.92 179.562C129.28 179.722 128.64 179.882 128 179.722C127.36 179.402 127.68 178.762 128 178.123C131.04 165.331 132.96 152.54 135.68 139.748C136.32 136.39 137.12 133.032 137.76 129.675C137.76 129.675 138.08 129.675 138.24 129.675V129.835Z" fill="#CAC5C5"/>
<path d="M314.08 224.812C314.56 223.693 315.52 224.332 316.16 224.172C320.64 223.213 325.12 223.373 329.6 222.733C336 221.774 342.56 221.294 349.12 220.335C354.24 219.536 359.36 218.736 364.64 218.576C367.36 219.535 370.08 219.056 372.8 219.376C374.4 219.376 375.84 219.376 377.44 219.376C378.56 219.376 379.04 219.376 379.04 220.815C379.04 223.533 379.2 223.533 376.32 223.533C358.24 223.533 340.32 223.533 322.24 224.492C319.52 224.492 316.8 225.132 314.08 224.972V224.812Z" fill="#F4F4F4"/>
<path d="M187.68 9.59369C188 9.59369 188.48 9.59369 188.8 9.59369C189.12 11.1926 188.8 11.9921 186.88 12.152C180.8 12.4718 177.76 16.7889 175.2 21.5858C173.76 24.304 172.32 27.1821 171.04 29.9003C170.56 30.8597 170.08 31.3394 168.96 31.4993C163.04 31.4993 157.28 31.1795 151.36 31.6592C150.88 31.6592 150.56 31.6592 150.56 31.0196C150.56 30.2201 150.24 29.5805 150.56 28.7811C150.88 27.1821 151.52 26.7025 153.28 26.8624C156.96 27.342 160.48 27.5019 164.16 27.8217C166.4 27.9816 168 27.0222 169.28 25.1035C170.72 22.865 171.68 20.1468 172.96 17.7483C173.28 17.2686 173.6 16.789 173.76 16.1494C175.36 11.6723 178.72 9.75357 183.36 10.2333C184.96 10.2333 186.4 9.91348 187.84 9.59369H187.68Z" fill="#E8636B"/>
<path d="M165.28 159.095C163.36 156.857 162.08 154.618 160.16 153.499C157.6 152.06 158.4 150.461 158.88 148.702C160.32 143.266 162.24 138.149 164.96 133.352C165.6 132.233 166.08 131.593 167.52 132.393C168.8 133.192 171.04 133.033 171.68 134.312C172.32 135.591 170.56 136.87 169.92 138.309C167.52 143.745 166.4 149.342 165.76 155.098C165.6 156.377 165.44 157.656 165.28 159.255L165.28 159.095Z" fill="#CAC5C5"/>
<path d="M136.64 122.799C135.84 127.276 134.88 131.753 134.08 136.23C132.48 144.545 131.04 152.699 129.28 161.014C127.68 169.009 126.24 177.163 124.16 185.158C124 185.958 123.84 187.077 122.4 187.237C123.04 182.44 122.88 177.803 123.52 173.166C124 169.808 125.12 166.45 125.92 162.933C129.12 148.862 131.84 134.791 134.56 120.721C134.56 120.081 134.88 119.601 135.04 119.122C135.52 120.401 136 121.68 136.48 122.959L136.64 122.799Z" fill="#DC5E65"/>
<path d="M153.76 105.211C154.24 106.97 153.76 108.089 153.28 109.208C148.96 124.078 144.96 138.949 141.6 154.139C139.84 162.293 138.56 170.608 137.12 178.762C136.96 179.882 136.64 180.361 135.52 179.882C134.72 179.402 132.8 180.681 133.28 178.123C134.56 171.567 136.64 165.331 138.24 158.935C142.4 141.507 147.36 124.238 152.8 106.97C152.8 106.49 153.12 106.01 153.44 105.211H153.76Z" fill="#DC5E65"/>
<path d="M150.56 66.5162C151.36 69.874 152.16 73.2318 152.96 76.4297C155.68 86.663 157.28 97.216 159.84 107.449C160.8 111.447 161.92 115.444 162.88 119.441C162.88 120.081 163.2 120.561 162.72 121.04C162.4 121.2 162.08 121.52 161.76 121.68C161.28 121.68 161.28 121.2 161.28 120.88C160 116.084 158.24 111.447 157.6 106.65C156.96 101.853 154.88 97.6957 153.92 93.0588C152.8 88.4218 151.36 83.9448 149.6 79.6276C148.96 78.0287 148.64 76.4297 148.96 74.6709C149.6 71.9527 149.76 69.2344 150.24 66.5162C150.24 66.5162 150.4 66.5162 150.56 66.5162Z" fill="#DC5E65"/>
<path d="M129.28 133.992C128.48 138.629 127.68 143.106 126.72 147.583C125.76 152.06 124.8 156.377 123.84 160.854C123.84 161.014 123.68 161.174 123.36 161.334C122.56 152.38 120.96 143.586 118.88 134.791C122.4 134.791 125.92 134.471 129.28 133.832V133.992Z" fill="#CAC5C5"/>
<path d="M143.2 82.8255C144 77.549 145.28 72.2724 145.76 66.9959C145.76 66.3563 145.92 65.5569 145.92 64.9173C145.92 63.3183 145.92 61.8793 146.88 60.2803C147.52 59.1611 147.36 57.8819 147.36 56.6027C146.72 48.9278 146.24 41.0929 145.6 33.418C145.6 31.4993 145.12 29.7404 144.96 27.9816C144.96 27.1821 144.96 26.3826 144.96 25.5832C145.12 24.7837 145.76 24.6238 146.4 24.6238C147.04 24.6238 147.36 24.9436 147.52 25.5832C148.16 27.1821 148.16 28.941 148.16 30.6998C148.16 39.9737 148.8 49.2476 148.96 58.6814C148.96 59.8007 148.96 60.76 148 61.5595C147.04 62.5189 146.88 63.6381 148.48 64.2777C148.96 64.4376 149.12 64.7574 148.96 65.2371C147.52 72.1126 145.92 78.8281 144.48 85.7036C144.16 84.7442 143.68 83.9447 143.36 82.9854L143.2 82.8255Z" fill="#DC5E65"/>
<path d="M122.4 25.5832C124.48 28.7811 127.36 29.5805 131.04 28.6212C134.72 27.8217 138.56 27.6618 142.24 26.8624C142.56 26.8624 143.2 26.5425 143.2 27.0222C143.2 28.1415 143.04 29.2607 143.04 30.2201C143.04 31.9789 141.92 31.6592 140.8 31.819C135.84 32.7784 131.04 33.2581 125.92 33.0982C123.36 33.0982 120.8 32.4587 119.36 30.0602C120.32 28.4613 121.44 27.0222 122.4 25.4233V25.5832Z" fill="#E8636B"/>
<path d="M195.04 208.023C195.52 209.782 195.52 211.541 195.36 213.3C195.36 214.419 195.68 214.739 196.96 214.899C206.08 215.378 215.04 216.657 224 217.937C224.32 217.937 224.48 218.256 224.8 218.416C223.84 218.416 222.72 218.576 221.76 218.736C215.52 218.736 209.44 218.896 203.36 219.695C202.88 219.695 202.24 219.695 201.76 220.015C200.96 220.015 200.16 220.015 199.52 220.175C199.04 220.175 198.72 220.175 198.4 220.335C197.44 220.335 196.64 220.495 195.68 220.655C195.52 220.495 195.2 220.175 195.04 220.015C194.72 216.498 194.4 212.98 194.08 209.622C194.08 208.663 194.08 207.863 195.36 208.183L195.04 208.023Z" fill="#FAFAFA"/>
<path d="M179.36 101.693C187.84 101.693 192.8 106.17 193.76 114.964C189.28 111.127 184.48 108.409 178.88 107.129C179.04 105.371 179.36 103.612 179.36 101.693Z" fill="#E8636B"/>
<path d="M281.76 163.892C281.76 165.171 280.8 166.291 280.48 167.41C280.16 168.369 280.32 168.689 281.44 168.849C285.76 169.488 289.92 170.448 294.24 171.567C293.92 172.686 292.48 172.207 292.16 173.006C286.88 172.367 281.6 172.526 276.32 173.006C274.88 173.006 274.72 172.686 275.04 171.407C276 168.529 276.8 165.651 277.92 162.933L281.76 163.892Z" fill="#FAFAFA"/>
<path d="M69.76 238.243C74.88 238.243 79.84 237.284 84.96 237.444C85.28 238.883 85.44 240.482 85.76 241.921C85.92 242.88 85.76 243.04 84.8 243.04C79.84 242.88 74.72 242.72 69.76 242.56C69.12 242.56 68.64 242.4 68.96 241.761C69.28 240.642 69.28 239.363 69.92 238.243L69.76 238.243Z" fill="#FAFAFA"/>
<path d="M168.32 166.45C171.04 169.648 173.6 172.367 175.68 175.564C176.48 176.844 176.16 178.443 176.16 179.882C176.16 180.361 175.68 180.521 175.2 180.521C174.56 180.521 173.76 180.521 173.12 180.681C169.12 181.161 169.12 181.161 168.8 177.163C168.48 173.806 168 170.288 168.32 166.291L168.32 166.45Z" fill="#CAC5C5"/>
<path d="M91.36 135.111C85.44 135.111 79.68 134.152 73.76 134.312C72.96 130.954 72.96 130.954 76.32 130.954C81.12 130.954 86.08 130.954 90.88 130.954C92.16 130.954 92.8 130.954 92.16 132.553C91.84 133.352 92 134.312 91.36 135.111Z" fill="#F4F4F4"/>
<path d="M88 237.124C91.36 237.124 94.72 237.124 98.24 237.124C98.88 237.124 99.52 237.124 100 237.604C99.52 239.522 98.56 241.121 97.92 242.88C97.6 243.52 97.28 243.84 96.48 243.84C94.4 243.68 92.48 243.52 90.4 243.52C89.44 243.52 88.96 243.2 88.8 242.241C88.64 240.482 88.32 238.883 88.16 237.124H88Z" fill="#FAFAFA"/>
<path d="M145.12 205.625C146.4 205.625 147.52 205.625 148.8 205.625C150.08 205.625 150.72 206.104 149.92 207.543C149.6 208.023 149.44 208.503 149.28 208.982C148.16 212.5 148.16 212.5 144.48 212.18C142.56 212.02 140.64 211.701 138.88 211.541C138.08 211.541 137.92 211.221 138.24 210.422C138.88 209.142 139.52 207.863 140.16 206.424C140.48 205.785 140.96 205.625 141.76 205.625C142.88 205.625 144 205.625 145.28 205.625H145.12Z" fill="#163D70"/>
<path d="M71.2 134.312C66.88 134.791 62.4 135.271 58.56 137.35C57.92 137.669 57.44 137.829 56.8 137.669C57.92 135.431 59.04 133.192 60 130.954C60.48 129.994 60.96 129.835 61.92 129.835C64.48 129.994 67.04 130.154 69.6 130.314C70.56 130.314 71.04 130.634 71.04 131.593C71.04 132.393 71.04 133.192 71.2 133.992L71.2 134.312Z" fill="#FAFAFA"/>
<path d="M110.72 59.8006C112.32 60.76 113.76 61.5595 115.04 62.359C116.48 63.1584 116.64 64.1178 116 65.5569C114.88 67.9553 112.8 69.3943 110.72 70.6735C109.28 71.6329 107.84 72.4323 105.92 72.7521C108 68.435 110.4 64.5975 110.56 59.6408L110.72 59.8006Z" fill="#DC5E65"/>
<path d="M101.28 77.7089C100.48 81.2265 99.68 84.9042 98.72 88.4218C98.08 91.14 97.12 93.8583 96.32 96.4166C96.16 97.0562 96 97.8556 95.36 98.1754C94.88 98.4952 94.08 98.815 93.6 98.3353C92.96 98.0155 93.6 97.3759 93.6 97.0561C95.84 91.14 97.12 84.9041 97.44 78.6682C97.44 77.8688 100 76.4297 100.8 76.9094C101.12 76.9094 101.12 77.2292 100.96 77.549L101.28 77.7089Z" fill="#DC5E65"/>
<path d="M190.4 181.481C190.4 182.6 190.4 183.719 190.08 184.838C189.6 184.998 189.44 185.318 190.08 185.638C190.08 185.798 190.08 186.118 189.92 186.277C188.96 186.437 188 186.757 187.04 186.917C186.88 183.239 187.04 179.562 186.4 175.884C188.16 174.125 189.92 172.367 191.68 170.608C191.68 170.608 192 170.608 192.16 170.768C191.68 174.125 191.36 177.323 190.88 180.681C190.4 180.841 190.24 181.161 190.88 181.481H190.4Z" fill="#FAFAFA"/>
<path d="M173.92 107.289C170.72 108.089 168 110.008 165.92 112.406C165.12 113.365 164.64 113.525 164.32 112.086C163.2 108.089 163.2 108.089 166.88 105.85C169.28 104.411 171.84 102.972 174.72 102.493C174.4 104.092 174.24 105.69 173.92 107.449V107.289Z" fill="#E8636B"/>
<path d="M186.08 176.044C186.72 179.722 186.56 183.399 186.72 187.077C185.92 186.277 185.12 185.478 184.48 184.678C184 184.199 183.52 183.719 182.72 183.879C183.36 181.321 183.2 178.922 181.12 176.844C180.8 176.524 180.96 176.204 181.12 175.724C182.24 172.846 183.36 170.128 184.48 167.25C185.12 168.209 185.28 169.329 185.28 170.448C185.28 171.247 185.28 172.047 186.08 172.686C185.28 173.486 184.64 174.285 183.84 174.925C183.36 175.405 182.72 175.884 183.2 176.524C183.68 177.163 184.32 176.684 184.96 176.524C185.28 176.364 185.6 176.204 185.92 175.884L186.08 176.044Z" fill="#CAC5C5"/>
<path d="M10.4 152.06C8.16 158.616 6.72 165.331 5.28 172.047C5.28 172.207 5.12 172.367 4.96 172.526C4.32 165.811 4.96 159.095 6.88 152.7C7.36 150.781 9.12 152.06 10.4 152.22V152.06Z" fill="#F4F4F4"/>
<path d="M54.24 238.563C58.56 238.563 62.72 238.563 67.04 238.243C67.2 239.363 66.56 240.482 66.56 241.601C66.56 242.4 65.92 242.4 65.28 242.4C62.24 242.4 59.2 242.4 56.16 242.081C54.08 241.921 54.72 239.842 54.4 238.723L54.24 238.563Z" fill="#F4F4F4"/>
<path d="M111.04 18.228C107.68 16.3093 104 16.6291 100.32 16.7889C99.84 16.7889 98.88 17.5885 98.88 16.4692C98.88 15.6697 98.88 14.2307 100 14.0708C104.48 13.751 108.96 12.3119 113.28 14.3905C111.68 15.19 111.68 16.9488 111.04 18.228Z" fill="#DC5E65"/>
<path d="M338.72 162.133C338.72 162.933 338.72 163.572 338.4 164.212C337.6 166.45 337.76 166.61 340.16 166.61C342.88 166.61 345.44 167.25 348 167.57C348.8 167.57 350.08 167.41 350.4 168.689C345.44 168.529 340.32 168.689 335.36 169.169C334.24 169.169 333.6 169.169 334.24 167.89C334.56 167.25 334.56 166.61 334.72 165.811C335.253 163.572 336.64 162.4 338.88 162.293L338.72 162.133Z" fill="#FAFAFA"/>
<path d="M136.64 122.799C136.16 121.52 135.68 120.241 135.2 118.962C136.16 113.205 137.28 107.449 138.56 101.853C139.36 102.972 139.36 104.571 140 105.69C139.04 111.447 137.92 117.203 136.48 122.799H136.64Z" fill="#F4F4F4"/>
<path d="M98.4 176.204C100.32 173.646 102.4 171.567 104.32 169.648C104.96 169.009 105.76 168.849 106.56 169.169C107.52 169.489 107.2 170.288 107.2 170.928C107.04 172.686 106.72 174.445 106.4 176.204C106.4 177.004 105.92 177.483 104.96 177.163C102.88 176.524 100.8 176.204 98.24 176.204L98.4 176.204Z" fill="#163D70"/>
<path d="M172 191.394C170.88 189.155 170.4 186.917 170.08 184.838C169.92 183.719 170.08 183.399 171.2 183.239C172.32 183.239 173.28 182.76 174.4 182.6C175.2 182.6 176.16 181.64 176.64 182.44C177.12 183.239 177.28 184.519 176.64 185.478C175.2 187.397 173.76 189.315 172.32 191.554L172 191.394Z" fill="#CAC5C5"/>
<path d="M180 149.662C181.28 150.301 180.96 151.74 181.44 152.7C181.76 153.179 181.44 153.979 182.24 154.298C181.6 158.616 180.96 163.093 180.16 167.41C179.52 167.09 179.68 166.45 179.52 165.971C179.2 161.654 178.24 157.336 179.2 152.859C179.36 151.74 178.72 150.461 179.84 149.502L180 149.662Z" fill="#CAC5C5"/>
<path d="M277.6 174.925C276.8 178.762 275.36 182.28 273.92 185.958C273.28 187.557 273.12 189.635 271.52 190.754C272 186.437 272.48 182.28 273.44 178.123C274.08 174.765 274.24 174.765 277.6 175.085V174.925Z" fill="#FAFAFA"/>
<path d="M129.28 133.992C125.76 134.631 122.24 134.791 118.88 134.951C118.24 133.192 117.28 131.753 117.12 129.835H118.4C117.6 130.634 118.4 130.794 119.2 130.954C122.08 131.433 124.96 131.753 127.84 131.913C128.8 131.913 129.76 131.913 129.76 130.634C129.92 130.634 130.24 130.634 130.4 130.634C130.08 131.753 130.4 133.032 129.6 133.992H129.28Z" fill="#F4F4F4"/>
<path d="M94.56 176.204C94.24 173.326 94.88 170.927 95.36 168.529C95.52 167.73 96.16 167.57 96.8 167.73C98.08 167.73 99.52 168.049 100.8 168.049C101.6 168.049 101.92 168.369 101.28 169.009C99.04 171.247 97.28 173.806 94.56 176.044L94.56 176.204Z" fill="#163D70"/>
<path d="M336 170.768C334.08 177.323 332.16 183.719 330.72 190.275C330.72 190.914 330.72 191.874 329.76 191.874C329.76 191.074 329.76 190.275 329.76 189.635H330.08C330.72 186.917 331.2 184.039 331.52 181.321L331.2 181.001C331.2 180.681 331.2 180.521 331.36 180.201C332.16 179.882 332.16 179.402 331.36 179.082C331.36 178.762 331.52 178.283 331.68 177.963C332.48 177.803 332.48 177.323 332 176.844C332 176.524 332 176.044 332 175.724C332.48 175.724 332.8 175.405 332.32 174.925C332.32 173.806 332.32 172.686 332.8 171.727C333.28 170.288 334.72 171.247 335.84 170.928L336 170.768Z" fill="#FAFAFA"/>
<path d="M140.16 105.69C139.52 104.411 139.52 102.972 138.72 101.853C139.84 97.5358 140.8 93.0588 141.92 88.7416C142.24 89.8609 142.56 90.9801 143.04 92.2593C142.24 96.7364 141.44 101.373 140.16 105.85V105.69Z" fill="#DC5E65"/>
<path d="M137.12 183.879C137.12 184.519 137.44 185.638 136.32 185.798C136.32 184.678 135.68 184.519 134.72 184.519C132 184.519 129.28 184.519 126.56 184.838C127.52 181.64 127.52 181.8 130.88 182.12C132.32 182.12 133.6 182.44 135.04 182.44C136.16 182.44 136.96 182.92 137.28 184.039L137.12 183.879Z" fill="#DC5E65"/>
<path d="M117.12 26.0629C116.16 24.304 115.52 22.3853 114.24 20.7863C115.52 19.6671 116 18.228 116.64 16.7889C118.24 18.0681 119.2 19.827 120 21.5858C119.04 23.0248 118.24 24.6238 117.28 26.0629H117.12Z" fill="#E8636B"/>
<path d="M173.92 107.289C174.24 105.69 174.4 104.091 174.72 102.333C176.16 101.693 177.76 101.373 179.36 101.533C179.36 103.292 179.04 105.211 178.88 106.97C177.28 106.97 175.52 106.97 173.92 107.289Z" fill="#FAFAFA"/>
<path d="M101.28 135.111C99.04 135.111 96.64 135.111 94.4 135.111C94.24 133.992 94.88 132.873 94.88 131.753C94.88 131.274 95.36 131.114 95.84 130.954C98.24 130.474 99.36 130.954 100.48 133.192C100.8 133.832 101.28 134.312 101.28 135.111Z" fill="#F4F4F4"/>
<path d="M117.12 26.0629C118.08 24.6238 118.88 23.0248 119.84 21.5858C120.64 22.865 121.6 24.304 122.4 25.5832C121.44 27.1821 120.32 28.6212 119.36 30.2201C118.08 29.1008 117.44 27.6618 117.12 25.903L117.12 26.0629Z" fill="#F4F4F4"/>
<path d="M221.6 218.736C222.56 218.736 223.68 218.576 224.64 218.416C227.84 218.736 231.04 218.416 234.24 218.416C239.68 218.416 245.12 218.416 250.72 218.416C249.92 218.896 249.12 219.216 248.48 219.216C247.84 218.736 247.2 218.896 246.4 218.896C238.72 218.896 231.2 218.896 223.52 218.896C222.88 218.896 222.08 219.216 221.44 218.576L221.6 218.736Z" fill="#111010"/>
<path d="M281.76 163.892L277.92 162.933C277.92 162.613 277.92 162.133 278.4 161.973C281.6 162.293 284.8 162.453 288 162.453C289.12 162.453 289.92 162.613 290.88 163.253C291.2 164.532 290.24 164.372 289.44 164.372C286.88 164.372 284.32 164.052 281.76 164.052V163.892Z" fill="#111010"/>
<path d="M116.64 16.7889C116 18.228 115.52 19.6671 114.24 20.7863C113.28 19.827 112.16 19.0275 111.04 18.3879C111.68 17.1087 111.68 15.3499 113.28 14.5504C114.56 15.0301 115.84 15.5098 116.64 16.9489L116.64 16.7889Z" fill="#F4F4F4"/>
<path d="M126.4 184.678C129.12 184.359 131.84 184.359 134.56 184.359C135.52 184.359 136.16 184.519 136.16 185.638C134.88 186.917 133.28 186.757 131.68 186.597C129.76 186.437 127.84 185.638 125.92 185.798C125.92 185.318 125.92 184.838 126.24 184.519L126.4 184.678Z" fill="#111010"/>
<path d="M110.08 185.158C110.08 186.597 109.92 187.876 109.76 189.315C109.76 189.795 110.08 190.754 109.12 190.595C108.48 190.595 107.52 190.115 107.68 189.156C108 186.757 108.48 184.359 108.96 181.8C108.96 181.321 109.12 181.001 109.6 181.001C110.08 181.001 110.08 181.64 110.08 181.96C110.08 183.08 110.08 184.039 110.08 185.158Z" fill="#DC5E65"/>
<path d="M142.88 92.2593C142.56 91.14 142.24 90.0208 141.76 88.7416C142.24 86.8229 142.72 84.7443 143.2 82.8255C143.52 83.7849 144 84.5843 144.32 85.5437C144 87.7822 143.68 90.0208 142.88 92.2593Z" fill="#F4F4F4"/>
<path d="M243.36 220.495C241.92 220.975 240.32 220.815 238.88 220.815C234.72 220.815 230.4 220.815 226.24 220.495C227.52 220.015 228.96 220.335 230.4 220.335C234.08 220.335 237.92 220.335 241.6 220.335C242.24 220.335 242.88 220.175 243.36 220.655V220.495Z" fill="#111010"/>
<path d="M12 147.743C12 148.542 11.68 149.342 11.52 150.141C10.72 150.141 9.92 150.141 9.28 150.141C8.8 150.141 7.68 150.621 7.84 149.342C7.84 148.382 8 147.103 9.6 147.423C10.4 147.423 11.2 147.583 12 147.743Z" fill="#F4F4F4"/>
<path d="M186.88 187.077C187.84 186.917 188.8 186.597 189.76 186.437C189.76 187.716 189.76 188.996 189.44 190.754C188.32 189.475 187.36 188.356 186.72 187.077H186.88Z" fill="#CAC5C5"/>
<path d="M220.8 220.495C217.44 220.815 213.92 220.815 210.4 220.655L210.72 220.335C214.08 220.335 217.44 220.015 220.64 220.495H220.8Z" fill="#111010"/>
<path d="M176.8 187.077C176 188.356 175.2 189.635 174.24 191.074C177.28 190.914 177.92 189.795 176.8 187.077Z" fill="#CAC5C5"/>
<path d="M331.52 181.001C331.36 183.879 330.88 186.597 330.08 189.315C330.08 189.315 329.92 189.315 329.76 189.315C329.76 186.277 330.4 183.399 331.04 180.521L331.52 181.001Z" fill="#D0CBCB"/>
<path d="M80.64 188.996C80.8 191.234 80.48 192.833 78.88 194.272C79.2 192.353 79.04 190.595 80.64 188.996Z" fill="#CAC5C5"/>
<path d="M109.12 166.45C107.733 166.237 107.573 165.331 108.64 163.732C109.12 164.692 109.12 165.491 109.12 166.45Z" fill="#CAC5C5"/>
<path d="M112.16 195.711C112.16 197.31 112.16 198.749 112.16 200.348C112.16 200.668 112.16 201.148 111.52 201.148C111.04 201.148 111.2 200.668 111.2 200.188C111.52 198.749 111.2 197.31 112.16 195.711Z" fill="#5F5F5F"/>
<path d="M183.2 163.093C183.52 163.093 183.68 163.093 184 163.093C184 164.372 183.36 165.491 182.72 166.77C182.72 165.491 182.56 164.212 183.2 163.093Z" fill="#5F5F5F"/>
<path d="M48.32 202.587C48.96 204.026 48.8 205.465 48.48 206.904C47.84 205.465 47.84 204.026 48.32 202.587Z" fill="#5F5F5F"/>
<path d="M48.48 181.481C48.8 182.28 48.32 183.719 49.92 183.719C49.44 184.199 48.8 184.199 48.48 183.719C47.84 182.92 48 182.12 48.48 181.321V181.481Z" fill="#5F5F5F"/>
<path d="M192.96 233.127C193.44 233.926 194.08 234.566 193.44 235.205C192.96 235.525 192 236.165 192.48 234.726C192.48 234.246 192.8 233.926 192.96 233.127Z" fill="#CAC5C5"/>
<path d="M424.64 181.96C424.8 182.76 424.96 183.559 424.48 184.359C424.16 183.559 424.16 182.76 424.64 181.96Z" fill="#5F5F5F"/>
<path d="M308.32 226.251C307.52 226.731 306.72 226.731 305.92 226.411C306.72 225.771 307.52 225.771 308.32 226.251Z" fill="#5F5F5F"/>
<path d="M92.48 115.924C91.2 115.924 90.72 115.924 90.4 114.964C91.2 114.804 91.52 115.284 92.48 115.924Z" fill="#111010"/>
<path d="M201.6 219.855C202.08 219.536 202.56 219.536 203.2 219.536C202.88 220.495 202.24 220.335 201.6 219.855Z" fill="#111010"/>
<path d="M54.08 183.719C54.56 183.399 55.2 183.719 55.2 184.199C55.2 184.998 54.56 184.838 54.08 184.679C54.08 184.359 54.08 184.039 54.08 183.719Z" fill="#5F5F5F"/>
<path d="M370.24 225.931C369.76 226.411 369.12 226.411 368.48 225.931C368.96 225.452 369.6 225.452 370.24 225.931Z" fill="#5F5F5F"/>
<path d="M148.32 83.1453L147.52 82.3458C147.52 82.026 147.52 81.5464 147.52 81.2266C148.32 81.7063 148.16 82.5057 148.16 83.1453H148.32Z" fill="#CAC5C5"/>
<path d="M425.12 175.724C425.44 176.364 425.28 176.844 424.96 177.483C424.8 176.844 424.64 176.364 425.12 175.724Z" fill="#5F5F5F"/>
<path d="M48.96 174.925C49.28 175.405 49.12 175.724 48.96 176.204C48.64 175.724 48.64 175.245 48.96 174.925Z" fill="#5F5F5F"/>
<path d="M203.84 220.975C203.52 221.294 203.04 221.294 202.72 220.975C203.04 220.175 203.36 220.175 203.84 220.975Z" fill="#111010"/>
<path d="M301.44 225.611C301.76 225.292 302.24 225.292 302.72 225.611C302.4 226.091 301.92 226.091 301.44 225.611Z" fill="#5F5F5F"/>
<path d="M299.52 226.571C299.04 226.571 298.72 226.571 298.72 226.091C298.72 225.612 299.04 225.452 299.52 225.612C299.52 225.931 299.52 226.251 299.52 226.411V226.571Z" fill="#5F5F5F"/>
<path d="M331.52 178.762C332.32 179.242 332.32 179.562 331.52 179.882C331.52 179.402 331.36 179.082 331.52 178.762Z" fill="#D0CBCB"/>
<path d="M198.24 220.335C198.56 220.015 199.04 220.015 199.36 220.175C199.04 220.815 198.72 220.815 198.24 220.335Z" fill="#111010"/>
<path d="M332.16 176.524C332.64 177.003 332.64 177.483 331.84 177.643C331.84 177.163 331.68 176.684 332.16 176.524Z" fill="#D0CBCB"/>
<path d="M332.48 174.605C332.96 175.085 332.64 175.245 332.16 175.405C332.16 175.085 332.16 174.765 332.48 174.605Z" fill="#D0CBCB"/>
<path d="M190.08 185.798C189.6 185.478 189.76 185.158 190.08 184.998C190.24 185.318 190.08 185.638 190.08 185.798Z" fill="#CAC5C5"/>
<path d="M48.8 212.5C49.12 212.66 49.12 212.98 49.12 213.3C48.64 213.3 48.48 212.82 48.8 212.5Z" fill="#5F5F5F"/>
<path d="M194.72 220.015C194.88 220.175 195.2 220.495 195.36 220.655C194.4 221.294 194.72 220.495 194.72 220.015Z" fill="#111010"/>
<path d="M190.4 181.481C189.92 181.161 190.08 180.841 190.4 180.681C190.56 181.001 190.4 181.321 190.4 181.481Z" fill="#CAC5C5"/>
<path d="M94.4 105.69C94.08 105.69 93.6 105.69 93.44 105.211C93.76 105.211 94.24 105.211 94.4 105.69Z" fill="#F4F4F4"/>
<path d="M138.24 129.835C138.24 129.835 137.92 129.835 137.76 129.835C137.76 129.675 137.76 129.515 137.76 129.355C137.92 129.355 138.08 129.515 138.24 129.675V129.835Z" fill="#FAFAFA"/>
<path d="M129.6 130.634C129.6 131.913 128.48 131.913 127.68 131.913C124.8 131.913 121.92 131.433 119.04 130.954C118.4 130.954 117.44 130.634 118.24 129.675C121.12 129.675 123.84 129.675 126.72 129.675C127.68 129.675 128.8 129.675 129.44 130.634H129.6Z" fill="#111010"/>
<path d="M238.4 157.496C245.6 157.816 252.8 158.296 260 158.616C260.8 158.616 261.6 158.616 262.24 158.776C262.72 158.776 263.68 158.456 263.68 159.575C263.68 160.374 263.2 161.174 262.08 161.014C261.92 161.014 261.6 161.014 261.28 161.014C254.88 160.374 248.48 160.374 242.24 160.055C235.04 159.735 227.68 159.895 220.48 159.255C220 159.255 219.36 159.255 218.88 158.776C219.04 157.976 219.68 158.136 220.32 158.136C225.6 157.336 231.04 157.496 236.32 157.656C236.96 157.656 237.76 157.656 238.4 157.656V157.496Z" fill="#111010"/>
<path d="M389.12 215.378C388.96 212.18 389.92 207.543 390.88 202.906C392 196.83 392.16 190.595 392.32 184.359C392.48 172.367 397.44 162.133 404.8 153.019C405.76 151.74 407.04 150.781 408 149.502C409.28 147.903 410.72 147.903 412.32 148.702C413.92 149.502 414.56 150.941 415.36 152.54C417.92 157.336 417.92 162.453 417.12 167.73C415.84 177.803 415.2 187.716 414.24 197.79C413.12 209.302 410.4 220.495 404.96 230.888C403.52 233.766 401.6 236.325 399.04 238.243C395.04 241.441 391.52 240.002 390.72 234.885C389.92 228.969 389.28 223.053 389.12 215.218V215.378ZM391.36 216.977C391.36 218.576 391.68 220.815 391.84 223.053C392.32 227.051 392.32 231.208 393.12 235.205C393.76 237.923 394.88 238.403 397.12 236.644C399.04 235.365 400.32 233.606 401.6 231.688C407.52 222.094 409.76 211.221 411.36 200.348C412.32 193.952 412.32 187.557 412.96 181.161C413.44 176.044 414.08 171.087 414.72 165.971C415.2 161.494 414.88 157.336 412.8 153.339C411.04 150.301 409.6 149.981 407.04 152.54C405.12 154.458 403.68 156.697 402.24 158.935C397.6 166.77 394.08 174.925 394.08 184.199C394.08 190.754 393.92 197.15 392.8 203.706C392.16 207.863 391.36 212.02 391.36 216.817V216.977Z" fill="#111010"/>
<path d="M391.36 216.977C391.36 212.02 392.16 207.863 392.8 203.866C393.92 197.47 394.08 190.914 394.08 184.359C394.08 175.085 397.6 166.93 402.24 159.095C403.68 156.857 405.12 154.618 407.04 152.7C409.6 150.141 411.04 150.301 412.8 153.499C415.04 157.496 415.36 161.654 414.72 166.131C414.08 171.247 413.44 176.204 412.96 181.321C412.32 187.716 412.32 194.272 411.36 200.508C409.76 211.381 407.36 222.254 401.6 231.847C400.48 233.766 399.04 235.525 397.12 236.804C394.88 238.403 393.6 238.083 393.12 235.365C392.32 231.368 392.16 227.21 391.84 223.213C391.52 220.975 391.2 218.736 391.36 217.137V216.977ZM395.2 209.302C395.2 214.419 395.2 218.576 396.16 222.574C396.32 223.533 396.64 224.492 397.76 224.652C398.88 224.812 399.36 224.013 399.84 223.373C401.28 221.454 402.24 219.216 403.04 216.817C405.28 210.102 405.76 203.226 406.4 196.351C407.04 190.754 407.84 185.318 409.6 180.042C410.88 176.204 412.64 172.367 413.12 168.209C413.6 164.372 412.96 160.854 409.44 158.616C407.52 157.336 406.4 157.656 405.44 159.895C405.12 160.694 404.64 161.334 404.32 162.133C401.12 168.049 398.88 174.285 399.36 181.321C399.52 183.879 399.2 186.597 398.4 189.156C396.48 196.191 394.88 203.226 395.36 209.622L395.2 209.302Z" fill="#CAC5C5"/>
<path d="M395.2 209.302C394.88 202.906 396.32 195.871 398.24 188.836C398.88 186.277 399.36 183.719 399.2 181.001C398.72 174.125 400.96 167.889 404.16 161.813C404.48 161.014 404.96 160.375 405.28 159.575C406.4 157.337 407.36 157.017 409.28 158.296C412.8 160.534 413.44 164.052 412.96 167.89C412.48 172.047 410.72 175.884 409.44 179.722C407.68 184.998 406.88 190.435 406.24 196.031C405.6 202.906 404.96 209.942 402.88 216.498C402.08 218.736 401.28 220.975 399.68 223.053C399.2 223.693 398.56 224.652 397.6 224.332C396.48 224.173 396.16 223.213 396 222.254C395.04 218.256 395.04 214.099 395.04 208.982L395.2 209.302ZM398.24 221.294C399.2 220.495 399.36 219.536 399.68 218.736C402.24 212.34 402.88 205.625 403.52 198.909C404 193.473 404.48 188.036 405.92 182.6C407.2 177.963 409.12 173.486 410.08 168.689C410.56 166.131 410.56 163.412 408.48 161.334C407.36 160.215 406.56 160.215 405.92 161.813C403.68 167.25 401.12 172.686 401.44 178.922C401.6 182.12 401.44 185.318 400.64 188.356C397.44 199.069 396.8 209.942 398.08 221.135L398.24 221.294Z" fill="#111010"/>
<path d="M398.24 221.294C396.96 209.942 397.6 199.229 400.8 188.516C401.76 185.478 401.76 182.28 401.6 179.082C401.28 172.846 403.84 167.57 406.08 161.973C406.72 160.534 407.52 160.375 408.64 161.494C410.72 163.572 410.88 166.131 410.24 168.849C409.28 173.646 407.2 178.123 406.08 182.76C404.64 188.036 404.16 193.633 403.68 199.069C403.04 205.785 402.4 212.5 399.84 218.896C399.52 219.695 399.2 220.495 398.4 221.454L398.24 221.294Z" fill="#CAC5C5"/>
</svg>
