<svg width="144" height="171" viewBox="0 0 144 171" fill="none" xmlns="http://www.w3.org/2000/svg">
<path d="M0 140.802C1.44 135.201 5.44 131.68 10.4 129.119C11.04 128.799 11.36 128.319 11.52 127.519C12 103.833 21.44 83.5076 34.88 64.6228C38.4 59.5015 42.24 54.7003 46.4 49.8991C43.68 47.9786 41.6 45.578 39.84 43.0173C35.04 35.8155 35.2 27.0132 40.32 20.1314C44.32 14.69 51.68 13.0896 57.6 15.9704C57.92 15.9704 58.0801 16.2905 58.5601 16.4505C61.1201 9.88882 65.12 4.76752 71.84 2.20686C80.48 -0.993955 89.28 -0.513847 97.92 2.36689C102.4 3.9673 106.56 5.88779 109.76 9.56873C110.4 10.2089 111.04 10.8491 111.36 11.6493C112 12.9296 112.48 13.2497 114.08 12.6095C117.44 11.3292 120.64 12.1294 123.2 14.6901C127.2 18.531 128 23.1722 126.56 28.2935C124.48 35.3353 120.64 41.0968 114.08 44.7777C113.28 45.2579 112.96 45.5779 113.28 46.5382C113.92 48.1386 113.6 49.899 113.6 51.6595C113.6 52.2997 113.6 52.9398 114.24 53.42C119.04 57.1009 121.6 62.3822 123.84 67.6636C124.32 68.9439 124.96 69.264 126.24 69.424C128.96 69.5841 131.52 70.7044 133.12 72.7849C137.28 78.2263 139.52 84.4679 138.56 91.5097C138.08 94.5505 136.48 97.1111 134.08 99.1916C133.12 100.152 132.96 100.792 133.44 102.072C138.56 114.716 140.32 127.839 139.52 141.282C139.52 143.363 139.84 144.963 141.12 146.564C144.32 151.205 144 158.247 140.32 163.208C135.68 169.45 129.28 171.85 122.08 169.93C115.52 168.169 108.96 168.329 102.4 168.809C94.08 169.45 85.6 169.29 77.28 168.649C65.92 167.689 54.5601 165.929 43.3601 164.168C32.0001 162.248 20.8 159.687 10.08 155.046C7.99998 154.086 6.08002 153.125 4.32002 151.685C1.92002 149.765 0.960059 147.044 0.160059 144.323V140.802H0ZM112.32 166.569C115.36 166.249 118.4 167.369 121.6 168.169C130.4 170.41 138.4 165.929 140.96 157.447C142.4 152.805 140.96 148.804 138.56 144.963C138.24 144.323 137.92 143.843 137.92 143.043C138.72 128.959 137.12 115.196 131.68 102.072C131.2 100.792 131.2 99.6718 132.32 98.8716C137.6 94.3904 138.08 88.789 136.32 82.7074C134.72 77.106 132.32 71.8247 125.6 70.8644C123.36 70.5443 122.56 69.264 121.76 67.5036C119.68 62.5423 117.28 57.7411 112.64 54.5402C111.84 54.0601 111.68 53.2599 111.68 52.2997C111.68 50.5392 112 48.7788 111.36 47.1783C110.72 45.5779 111.2 44.6177 112.8 43.6575C118.88 39.9765 122.72 34.3751 124.48 27.4933C124.96 25.5728 125.12 23.4923 124.64 21.4118C123.2 15.1702 117.76 12.2894 112.16 14.8501C110.88 15.3302 110.56 14.8501 110.08 13.8899C108.64 11.4892 106.72 9.72879 104.48 8.28842C97.28 3.64724 89.28 1.72673 80.8 2.36689C70.72 3.00705 63.36 7.80829 59.2 17.2507C58.72 18.371 58.24 18.531 57.12 17.8909C54.88 16.4505 52.32 15.8103 49.6 16.2905C42.08 17.5708 36.64 25.2528 37.6 33.0948C38.4 39.6564 42.4001 44.2976 46.5601 48.7788C47.8401 50.2191 47.3601 50.5392 46.5601 51.3394C42.4001 56.6208 38.4001 61.9021 34.5601 67.5036C21.9201 85.7482 13.6 105.593 12.48 127.999C12.48 129.279 11.84 130.08 10.72 130.56C8.64002 131.68 6.72006 132.96 4.96006 134.401C-1.43994 139.842 0.800039 150.405 7.84004 153.125C12.32 154.886 16.96 156.326 21.6 157.767C33.6 161.127 45.92 163.048 58.24 164.808C70.88 166.569 83.5201 167.849 96.1601 167.369C101.28 167.209 106.4 166.889 111.68 166.569H112.32Z" fill="#141111"/>
<path d="M112.32 166.569C107.04 166.889 101.92 167.209 96.8 167.369C84 167.849 71.36 166.569 58.88 164.808C46.56 163.048 34.24 161.127 22.24 157.767C17.6 156.486 12.96 154.886 8.47997 153.125C1.43997 150.405 -0.800012 139.842 5.59999 134.401C7.35999 132.96 9.28005 131.68 11.36 130.56C12.32 129.919 12.96 129.279 13.12 127.999C14.24 105.593 22.56 85.7481 35.2 67.5035C39.04 62.0621 43.04 56.6207 47.2 51.3393C48 50.3791 48.32 50.219 47.2 48.7787C43.04 44.2975 39.04 39.6563 38.24 33.0947C37.44 25.2527 42.72 17.5707 50.24 16.2904C52.96 15.8102 55.52 16.2904 57.76 17.8908C58.72 18.5309 59.36 18.3709 59.84 17.2506C63.84 7.80819 71.2 3.00695 81.44 2.36679C89.92 1.72663 97.92 3.64714 105.12 8.28832C107.36 9.72869 109.44 11.4891 110.72 13.8898C111.2 14.69 111.68 15.3301 112.8 14.85C118.4 12.2893 123.84 15.1701 125.28 21.4117C125.76 23.4922 125.6 25.4127 125.12 27.4932C123.36 34.375 119.52 39.9764 113.44 43.6574C111.84 44.6176 111.52 45.5778 112 47.1782C112.64 48.7787 112.32 50.5391 112.32 52.2996C112.32 53.2598 112.32 53.9 113.28 54.5401C117.92 57.741 120.16 62.7022 122.4 67.5035C123.2 69.2639 123.84 70.5442 126.24 70.8643C132.96 71.8246 135.2 77.1059 136.96 82.7073C138.72 88.7889 138.24 94.5504 132.96 98.8715C131.84 99.8317 131.84 100.792 132.32 102.072C137.76 115.196 139.36 128.959 138.56 143.043C138.56 143.843 138.72 144.323 139.2 144.963C141.44 148.804 143.04 152.805 141.6 157.446C139.04 165.929 131.04 170.41 122.24 168.169C119.04 167.369 116 166.089 112.96 166.569H112.32ZM105.44 158.247C106.08 158.247 106.56 158.247 107.2 158.247C110.4 157.767 113.44 158.247 116.48 159.687C120.32 161.608 124.32 161.768 128.48 160.647C134.08 159.207 134.88 156.326 131.04 152.165C130.24 151.365 130.08 150.565 130.24 149.444C131.52 141.762 131.84 134.08 131.2 126.398C130.24 117.116 127.2 108.474 124.16 99.8317C123.68 98.2313 123.84 97.5911 125.28 96.951C129.44 95.1905 130.56 93.27 130.08 89.269C129.76 84.4678 126.08 80.7868 120.8 80.1467C119.68 80.1467 119.36 79.5065 119.04 78.7063C116.32 71.5045 112.8 64.9428 108.16 58.7012C107.2 57.4209 105.76 56.3006 107.84 54.7002C108.16 54.5401 108.16 54.06 108.32 53.5799C108.8 51.6594 108.32 50.059 107.68 48.1385C107.04 46.5381 108 44.1375 107.04 42.377C106.4 41.4168 106.56 41.0967 107.36 40.4565C111.2 37.0957 114.88 33.7348 118.56 30.374C120.48 28.6135 120.48 28.1334 119.04 26.0528C118.56 25.4127 118.08 24.7725 117.44 24.1324C115.52 21.7317 113.12 20.6115 110.24 21.7317C107.2 22.852 105.44 21.7317 103.68 19.1711C100 13.5697 93.76 11.3291 87.2 12.9295C81.76 14.3699 76.32 15.8102 71.04 17.4106C66.4 18.851 62.56 21.4117 59.52 25.2526C58.56 26.3729 57.6 26.533 56.32 26.2129C55.2 25.8928 54.08 25.4127 52.96 25.2526C51.2 24.9326 49.76 25.5727 48.8 27.0131C48 28.4535 48.16 29.8938 49.28 31.0141C52.32 34.0549 54.88 37.7358 58.56 40.1365C59.36 40.6166 59.52 40.9367 58.88 41.7369C56.8 43.8174 58.24 47.1783 56.32 49.2588C56.32 49.2588 56.32 50.059 56.64 50.219C57.6 51.0192 56.8 51.3393 56.32 51.8194C46.24 62.5422 37.12 73.745 30.72 87.1885C23.84 101.912 19.36 117.116 18.24 133.28C18.24 134.241 17.76 134.561 17.12 135.041C15.68 135.841 14.08 136.801 12.96 138.082C11.36 139.842 10.88 142.243 11.84 143.843C13.44 146.404 15.84 148.004 19.04 147.364C20.64 147.044 22.08 147.364 23.52 148.164C27.04 149.925 30.72 151.205 34.4 152.165C43.04 154.406 51.84 155.526 60.48 157.126C68.64 158.567 76.96 159.367 85.28 158.247C88.64 157.767 92 157.126 95.52 157.446C98.72 157.767 102.08 157.927 105.28 158.087L105.44 158.247Z" fill="#FAFAFA"/>
<path d="M105.44 158.247C102.24 158.087 98.8804 157.927 95.6804 157.606C92.1604 157.286 88.8004 157.927 85.4404 158.407C77.1204 159.527 68.8004 158.727 60.6404 157.286C52.0004 155.686 43.2004 154.566 34.5604 152.325C30.7204 151.365 27.0404 150.085 23.6804 148.324C22.2404 147.684 20.9604 147.204 19.2004 147.524C16.0004 148.164 13.6004 146.724 12.0004 144.003C11.0404 142.403 11.5204 140.002 13.1204 138.241C14.2404 136.961 15.8404 136.001 17.2804 135.201C17.9204 134.721 18.4004 134.401 18.4004 133.44C19.5204 117.276 23.8404 102.072 30.8804 87.3485C37.2804 73.9051 46.4004 62.5421 56.4804 51.9794C56.9604 51.4993 57.7604 51.1792 56.8004 50.379C56.6404 50.219 56.3204 49.5788 56.4804 49.4188C58.4004 47.1782 56.9604 43.9774 59.0404 41.8969C59.6804 41.2567 59.5204 40.9366 58.7204 40.2965C55.0404 37.8959 52.4804 34.2149 49.4404 31.1741C48.3204 30.0538 48.0004 28.6135 48.9604 27.1731C49.9204 25.5727 51.3604 25.0926 53.1204 25.4127C54.2404 25.5727 55.3604 26.0528 56.4804 26.3729C57.7604 26.693 58.7204 26.693 59.6804 25.4127C62.7204 21.5717 66.5604 19.011 71.2004 17.5706C76.4804 15.8102 81.9204 14.3698 87.3604 13.0895C93.9204 11.4891 100 13.7297 103.84 19.3311C105.6 21.8918 107.36 23.0121 110.4 21.8918C113.44 20.7715 115.68 21.8918 117.6 24.2924C118.08 24.9325 118.72 25.5727 119.2 26.2129C120.64 28.2934 120.64 28.7735 118.72 30.534C115.04 33.8948 111.2 37.4157 107.52 40.6166C106.72 41.2567 106.72 41.5768 107.2 42.537C108.32 44.2975 107.2 46.5381 107.84 48.2985C108.48 50.219 108.96 51.8194 108.48 53.7399C108.48 54.06 108.32 54.5401 108 54.8602C106.08 56.4606 107.36 57.5809 108.32 58.8612C112.96 64.9428 116.48 71.6645 119.2 78.8663C119.52 79.8266 119.84 80.1467 120.96 80.3067C126.24 80.9469 129.92 84.4678 130.24 89.429C130.56 93.4301 129.44 95.3506 125.44 97.111C123.84 97.7512 123.68 98.3913 124.32 99.9917C127.36 108.634 130.4 117.276 131.36 126.559C132.16 134.24 131.68 142.082 130.4 149.604C130.24 150.725 130.4 151.525 131.2 152.325C135.2 156.486 134.4 159.367 128.64 160.807C124.64 161.768 120.48 161.607 116.64 159.847C113.6 158.407 110.72 157.927 107.36 158.407C106.72 158.407 106.24 158.407 105.6 158.407L105.44 158.247ZM104.8 52.1395C104 49.8989 102.56 51.3393 101.12 51.4993C101.76 52.1395 102.24 52.4596 102.72 52.9397C103.2 53.5799 103.84 54.3801 104.48 55.0202C104.8 55.3403 104.8 56.1405 105.6 55.5004C106.08 55.0202 106.88 54.5401 106.4 53.7399C106.08 53.0997 105.44 52.6196 104.96 51.9794L104.8 52.1395ZM73.9204 58.5411C72.3204 60.9417 74.8804 62.3821 75.2004 64.4626C75.6804 63.6624 76.0004 63.0223 75.8404 62.3821C77.6004 57.7409 77.6004 59.0213 74.4004 56.1405C74.2404 56.9407 73.9204 57.7409 73.7604 58.3811L73.9204 58.5411ZM64.4804 43.9774C63.6804 45.5778 61.6004 45.0977 60.6404 46.378C61.9204 47.4983 63.5204 47.8184 64.9604 48.2985C65.9204 48.6186 65.9204 47.4983 66.4004 47.1782C66.7204 47.0182 66.8804 46.6981 66.4004 46.378C65.9204 45.8979 65.4404 46.378 64.9604 46.378C64.1604 46.5381 63.3604 47.3383 62.2404 46.6981C63.2004 45.7379 64.4804 45.7379 65.4404 45.0977C64.9604 44.6176 64.4804 44.2975 64.1604 43.8174C60.6404 40.1364 60.6404 40.7766 58.7204 43.8174C58.7204 43.8174 58.7204 43.8174 58.7204 43.9774C58.5604 44.4575 58.2404 44.7776 58.7204 45.0977C59.0404 45.4178 59.3604 45.0977 59.8404 45.0977C61.2804 44.6176 62.7204 43.6573 64.3204 43.8174L64.4804 43.9774ZM68.0004 54.7002C67.5204 54.3801 67.0404 54.06 66.5604 53.7399C66.0271 55.0202 66.1871 56.1405 67.0404 57.1008C67.8404 58.7012 68.4804 60.1415 69.4404 62.062C69.6004 60.1415 69.6004 58.5411 69.9204 57.1008C70.4004 55.1803 69.7604 54.5401 67.8404 54.7002H68.0004ZM100.8 53.2598C99.6804 51.6594 98.0804 51.4993 95.5204 52.6196C95.8404 53.2598 96.3204 53.7399 96.9604 54.22C98.4004 57.901 101.28 56.7807 104.16 56.3006C102.72 55.5004 102.08 54.22 100.96 53.4198L100.8 53.2598ZM79.3604 68.3036C79.6804 67.0233 80.0004 65.743 80.4804 64.4626C81.2804 62.5422 80.8004 61.4219 79.0404 60.4616C78.5604 59.6614 78.0804 59.5014 77.7604 60.4616C77.2804 61.7419 76.9604 63.1823 76.4804 64.4626C76.4804 64.9428 75.6804 65.4229 76.1604 66.0631C76.9604 67.5034 77.4404 69.2639 78.7204 70.7043C78.8804 69.744 79.0404 68.9438 79.2004 68.1436L79.3604 68.3036ZM87.5204 75.6655C88.0004 75.3454 88.6404 75.0254 89.1204 74.7053C93.1204 71.6645 93.1204 71.6645 89.4404 68.4637C89.2804 68.3036 88.9604 68.1436 88.6404 67.9835C87.2004 70.3842 87.2004 73.2649 86.4004 75.8256C86.4004 75.9856 86.4004 76.4657 86.5604 76.4657C86.8804 76.4657 87.2004 76.1456 87.5204 75.8256V75.6655ZM70.0804 53.5799C71.6804 53.2598 72.9604 52.4596 72.8004 50.6991C72.8004 49.2588 72.0004 47.8184 70.2404 47.4983C68.9604 47.0182 67.8404 47.3383 67.0404 48.4585C66.2404 49.5788 66.0804 50.6991 66.8804 51.9794C67.6804 53.2598 68.6404 53.8999 70.2404 53.5799H70.0804ZM68.1604 67.9835C69.4404 64.6227 68.6404 61.5819 66.4004 58.8612C66.4004 58.061 65.7604 57.5809 65.4404 57.1008C62.2404 60.9418 63.3604 64.4626 66.5604 67.6635C66.7204 67.8235 66.8804 68.1436 67.0404 68.3036C67.3604 68.4637 67.3604 69.2639 68.0004 68.9438C68.1604 68.9438 68.0004 68.3036 68.1604 67.8235V67.9835ZM81.2804 53.7399C83.5204 57.1008 87.0404 55.3403 89.7604 56.4606V55.9805C89.2804 55.5003 88.8004 54.8602 88.1604 54.3801C88.1604 53.7399 87.2004 53.5799 87.2004 52.9397C88.9604 52.2995 89.4404 53.8999 90.5604 54.5401C92.0004 57.5809 94.5604 56.6206 97.2804 56.7807C96.3204 55.8204 95.6804 55.1803 95.0404 54.3801C94.4004 53.7399 94.0804 52.6196 93.1204 52.4596C88.8004 52.4596 84.4804 52.4596 80.0004 52.4596C80.6404 53.0997 80.9604 53.4198 81.2804 53.7399ZM95.2004 45.8979C94.7204 45.8979 94.2404 45.8979 93.7604 46.0579C92.6404 46.218 91.3604 46.5381 90.2404 46.5381C89.6004 46.5381 89.1204 46.8582 88.8004 47.4983C87.5204 51.3393 86.5604 50.8592 90.8804 50.6991C91.5204 50.6991 92.0004 50.6991 92.6404 50.6991C92.9604 50.6991 93.4404 50.6991 93.7604 50.6991C95.2004 50.6991 96.6404 50.6991 97.9204 50.219C99.8404 49.7389 98.0804 47.6583 99.0404 46.5381C99.0404 46.378 99.0404 46.0579 99.2004 45.8979C99.6804 44.9377 99.2004 44.7776 98.4004 44.9377C97.2804 45.0977 96.3204 45.4178 95.2004 45.5778V45.8979ZM83.2004 76.6258C83.2004 76.6258 83.3604 76.7858 83.5204 76.9458C84.6404 77.2659 84.4804 76.3057 84.6404 75.8256C85.2804 74.0651 85.6004 72.1446 86.2404 70.3842C86.9871 67.7168 86.1337 65.6896 83.6804 64.3026C82.8804 63.1823 82.2404 63.1823 81.9204 64.7827C81.2804 67.1833 80.4804 69.744 79.8404 72.1446C79.8404 72.4647 79.8404 72.6247 79.8404 72.7848C80.8004 74.2251 81.6004 75.9856 83.2004 76.7858V76.6258ZM58.7204 84.7878C58.2404 83.8276 57.6004 83.0274 56.6404 82.2272C56.1604 84.1477 55.6804 85.9081 55.6804 87.6686C55.6804 90.3893 56.1604 91.3495 58.8804 92.6299C59.3604 93.11 60.0004 93.11 60.4804 93.4301C61.2804 93.7501 61.9204 93.43 62.4004 92.7899C62.8804 92.1497 63.2004 91.5096 62.4004 90.5493C61.1204 88.6288 60.1604 86.7083 58.5604 84.9479L58.7204 84.7878ZM59.5204 72.4647C59.0404 72.7848 59.0404 73.1048 59.0404 73.585C58.4004 75.6655 57.7604 77.9061 57.1204 79.9866C57.1204 80.3067 56.6404 80.7868 57.1204 81.1069C59.8404 83.5075 61.6004 86.7083 63.6804 89.5891C64.3204 89.1089 64.1604 88.4688 64.3204 87.8286C64.9604 85.5881 65.4404 83.3475 66.0804 81.1069C66.4004 80.4668 66.7204 79.9866 66.5604 79.3465C66.8804 77.2659 67.3604 75.1854 67.6804 72.9448C67.6804 72.1446 68.1604 71.1844 67.3604 70.3842C66.2404 69.1038 65.2804 67.8235 64.3204 66.5432C63.8404 65.743 63.5204 65.1028 62.8804 63.9825C61.7604 66.8633 60.4804 69.4239 59.8404 72.3047L59.5204 72.4647ZM119.68 82.8674C119.68 82.3872 119.68 81.7471 118.88 81.7471C115.68 81.9071 112.48 82.0672 109.6 83.5075C106.4 84.7879 104.64 86.8684 104.64 88.9489C104.64 90.8694 106.72 92.6299 109.92 93.4301H110.24C110.88 93.5901 111.36 93.4301 111.84 93.11C112.64 92.4698 113.44 91.8296 114.24 91.3495C114.88 91.0294 115.52 90.7094 116.16 90.5493C116.8 90.2292 117.12 90.5493 116.96 91.1895C115.68 91.9897 114.56 92.9499 112.96 94.0702C118.08 94.0702 122.56 94.0702 126.56 91.0294C127.84 90.0692 128.48 88.7889 128 87.1885C127.36 85.428 126.4 83.8276 124.32 83.5075C124.32 83.0274 124.16 82.8674 123.68 82.7073C122.4 82.0672 120.96 81.427 119.68 82.7073V82.8674ZM71.6804 149.764C73.1204 150.245 74.0804 151.365 75.5204 151.845C86.0804 155.686 97.1204 156.006 108.32 156.006C111.04 156.006 113.6 156.006 116 157.446C119.52 159.207 123.2 159.847 127.2 158.887C132.16 157.767 132.48 156.646 128.96 152.965C128.16 152.005 127.52 151.045 127.68 149.764C128.48 145.283 128.8 140.802 128.8 136.321C128.8 131.52 128.8 126.719 127.52 122.077C127.52 121.757 127.52 121.437 127.52 121.117C126.24 113.755 123.52 106.874 121.6 99.5116C121.28 98.2313 120.64 98.5514 119.68 98.7114C114.88 99.6717 110.08 99.8317 105.6 97.271C104.48 96.6309 103.36 95.9907 103.04 94.8704C101.76 89.7491 102.56 84.3077 108.48 81.9071C111.2 80.7868 114.08 80.3067 116.96 80.1467C114.24 73.1049 110.88 66.7032 106.72 60.6217C106.24 59.8215 105.6 59.0213 105.12 58.2211C104.64 57.4208 104.16 57.4208 103.36 57.5809C95.5204 59.0212 87.6804 58.061 80.0004 56.4606C78.5604 56.1405 77.2804 55.5003 75.3604 55.6604C76.9604 56.9407 78.0804 58.061 79.3604 59.0213C81.6004 61.1018 84.0004 62.8622 86.4004 64.6227C88.4804 66.0631 90.4004 67.8235 92.1604 69.5839C93.4404 71.0243 93.4404 72.1446 92.1604 73.4249C89.7604 75.6655 87.3604 77.7461 84.1604 78.7063C81.9204 78.3862 80.6404 76.9458 79.3604 75.1854C76.1604 70.3842 73.6004 65.1028 71.3604 59.8215C71.2004 59.3413 71.0404 58.7012 70.4004 58.2211C70.0804 60.7817 69.7604 63.0223 69.6004 65.4229C69.1204 69.2639 68.6404 73.2649 68.0004 77.1059C67.2004 82.0672 66.4004 87.1885 64.6404 91.9897C64.0004 93.7501 62.8804 95.3505 60.8004 95.6706C54.0804 93.9102 52.6404 91.5096 53.7604 84.6278C55.2004 77.2659 57.6004 70.3842 60.4804 63.5024C61.9204 59.9815 63.3604 56.3005 64.9604 52.7796C63.0404 52.6196 61.1204 52.4596 59.3604 52.2995C58.4004 51.4993 57.9204 52.1395 57.2804 52.7796C47.5204 63.5024 38.5604 74.7053 32.3204 87.8286C25.2804 102.552 20.8004 117.916 20.0004 134.24C20.0004 135.521 19.3604 136.321 18.2404 136.961C16.4804 137.921 14.7204 138.882 13.6004 140.642C12.1604 142.723 12.4804 143.523 14.5604 144.963C15.8404 146.084 17.2804 146.244 18.8804 145.923C20.6404 145.603 22.2404 145.923 23.8404 146.724C26.5604 148.004 29.1204 149.124 32.0004 149.925C39.8404 152.325 48.0004 153.445 56.1604 154.886C63.5204 156.326 70.7204 157.446 78.2404 157.446C80.3204 157.446 82.2404 157.126 84.3204 156.966V156.646C83.0404 156.326 81.9204 156.006 80.6404 155.686H79.8404C79.5204 155.046 79.0404 155.206 78.5604 155.046C75.6804 153.926 73.1204 152.485 70.7204 150.565V150.245C70.8804 150.245 71.2004 150.245 71.3604 150.245L71.6804 149.764ZM80.4804 16.2903C77.2804 16.7705 74.2404 17.7307 71.2004 18.691C67.6804 19.8112 64.3204 21.5717 62.0804 24.4524C59.5204 27.6532 57.1204 28.6135 53.4404 26.853C52.3204 26.3729 50.8804 26.3729 50.0804 27.8133C49.2804 29.0936 50.0804 30.2139 50.8804 31.1741C52.4804 32.7745 54.0804 34.2149 55.5204 35.8153C57.6004 38.2159 59.5204 40.4565 63.2004 40.6166C61.4404 37.8959 59.6804 35.1752 57.9204 32.2944C59.3604 32.7746 60.3204 33.8948 61.1204 35.0151C63.6804 38.6961 66.4004 42.2169 69.4404 45.5778C69.9204 46.0579 70.4004 46.378 70.8804 46.218C71.5204 45.8979 70.8804 45.4178 70.8804 44.9377C69.9204 40.9366 68.9604 37.0957 67.8404 33.0946C67.8404 32.7746 67.3604 32.4545 67.8404 32.1344C68.3204 32.1344 68.3204 32.4545 68.3204 32.7745C68.9604 34.0549 69.6004 35.4952 70.0804 36.9356C71.0404 39.8163 71.8404 42.6971 72.6404 45.5778C72.8004 46.378 73.1204 46.8581 74.0804 46.8581C75.8404 46.8581 76.8004 46.378 76.6404 44.4575C76.6404 43.8174 76.6404 43.0172 77.2804 42.537C77.7604 43.4973 77.4404 44.4575 77.6004 45.4178C77.6004 46.0579 77.6004 46.8582 78.5604 46.6981C79.5204 46.378 81.2804 47.3383 81.6004 45.8979C82.0804 42.6971 83.2004 39.8163 83.6804 36.6155C84.0004 36.4555 84.1604 35.9754 84.6404 36.1354C85.1204 36.2954 84.9604 36.7756 84.8004 37.0957C84.4804 38.8561 84.1604 40.6166 83.8404 42.217C83.8404 43.4973 82.5604 45.4178 83.5204 45.8979C84.8004 46.6981 85.9204 44.7776 87.0404 43.8174C91.2004 40.4565 94.7204 36.6155 97.6004 32.1344C99.0404 32.1344 98.2404 33.0946 97.9204 33.4147C95.6804 37.5758 92.4804 40.9366 88.9604 43.9774C88.4804 44.4575 87.8404 44.6176 87.5204 45.5778C92.3204 45.0977 96.9604 44.2975 101.44 42.8571C102.24 42.537 103.2 42.377 103.84 41.8969C108.48 37.7358 113.12 33.5748 117.6 29.4137C118.08 29.0936 118.4 28.6135 118.24 27.9733C117.44 24.7725 113.44 22.2118 110.4 23.0121C107.04 23.9723 104.8 23.012 102.72 20.1313C99.2004 15.3301 94.4004 13.2495 88.4804 14.0497C85.7604 14.3698 83.0404 15.17 80.3204 16.1303L80.4804 16.2903ZM73.2804 47.9784C74.0804 52.7796 77.6004 50.5391 80.1604 50.8592C82.4004 51.1792 81.7604 48.6186 83.0404 47.4983C81.2804 47.6584 80.0004 47.4983 78.8804 47.9784C77.7604 48.2985 78.0804 50.379 76.4804 50.5391C76.4804 49.4188 77.4404 48.9387 77.4404 47.9784H73.4404H73.2804ZM99.0404 50.219C103.36 50.219 103.52 49.0987 103.68 43.8174C99.5204 43.8174 100.32 47.6584 99.0404 50.219ZM87.3604 47.3383C84.1604 46.5381 83.5204 49.0987 82.2404 50.8592C84.9071 51.0726 86.6138 49.8989 87.3604 47.3383ZM79.5204 54.5401C79.0404 51.4993 76.6404 52.1395 74.7204 51.9794C74.2404 51.9794 73.7604 51.9795 73.7604 52.6196C73.7604 53.2598 74.0804 53.4198 74.5604 53.4198C76.3204 53.7399 78.0804 54.06 79.5204 54.5401ZM60.9604 49.4188C60.9604 48.4586 59.6804 47.0182 59.0404 47.3383C58.0804 47.6583 57.6004 48.6186 57.6004 49.4188C57.6004 50.5391 59.0404 50.5391 59.8404 50.6991C60.9604 50.8592 60.9604 50.219 60.8004 49.5788L60.9604 49.4188ZM104.32 49.0987C105.28 48.6186 106.56 48.7786 106.56 48.2985C106.56 46.6981 106.56 44.9376 105.6 43.1772C105.12 45.4178 104.8 47.1782 104.32 49.2588V49.0987ZM117.76 95.6706C117.44 95.9907 116 95.0305 115.84 96.6309C115.84 97.4311 116 98.0713 116.96 97.9112C117.92 97.5911 119.2 98.2313 119.52 96.7909C119.52 96.1507 119.52 95.1905 117.76 95.6706ZM120.8 97.111C121.92 96.4708 123.52 97.111 123.84 95.3505C123.84 95.0305 123.84 94.2303 122.88 94.3903C121.12 94.5503 120.64 95.1905 120.8 97.271V97.111ZM114.88 97.9112C114.88 95.6706 113.28 95.6706 111.84 95.5106C110.88 95.5106 111.2 96.4708 111.36 96.7909C112.16 98.7114 113.76 97.271 114.88 97.7512V97.9112ZM110.08 97.4311C109.6 94.8704 109.44 94.7104 107.36 94.5503C107.04 96.4708 108.32 97.111 110.08 97.4311ZM72.6404 58.2211C73.4404 57.5809 73.2804 56.6206 73.4404 55.8204C73.7604 55.0202 72.9604 54.8602 72.4804 54.3801C72.1604 54.06 71.8404 54.06 71.5204 54.3801C71.0404 54.8602 71.5204 55.3403 71.6804 55.8204C72.0004 56.6206 72.3204 57.4208 72.6404 58.2211ZM64.0004 51.0192C64.9604 51.3393 65.1204 51.0192 65.1204 50.5391C65.1204 48.9387 63.5204 49.7389 62.8804 49.2588C62.4004 48.9387 62.0804 49.2588 62.0804 49.8989C62.0804 51.6594 63.5204 50.8592 64.0004 51.1792V51.0192ZM105.6 95.5106C106.56 93.5901 105.28 92.9499 103.84 91.8297C104.48 93.4301 103.84 94.8704 105.6 95.5106ZM124.96 95.6706C125.76 95.0305 126.88 95.1905 126.56 93.9102C126.56 93.5901 126.4 92.9499 125.6 93.27C124.32 93.7501 124.8 94.5503 124.96 95.8307V95.6706ZM128.8 91.0294C127.04 91.6696 127.36 92.6299 128 93.7501C129.12 92.9499 128.48 91.9897 128.8 91.0294Z" fill="#12100D"/>
<path d="M107.041 60.622C111.361 66.5435 114.721 73.1052 117.281 80.147C114.241 80.147 111.521 80.7872 108.801 81.9075C102.721 84.3081 101.921 89.7495 103.361 94.8708C103.681 96.1511 104.801 96.7913 105.921 97.2714C110.401 99.832 115.201 99.672 120.001 98.7118C120.801 98.5517 121.601 98.2316 121.921 99.512C123.681 106.714 126.401 113.756 127.841 121.117C127.841 121.438 127.841 121.758 127.841 122.078C126.721 122.398 127.201 123.198 127.201 123.838C127.201 128.639 126.561 133.441 125.121 138.242C124.161 141.443 123.681 144.804 120.641 146.884C114.241 151.525 106.721 152.005 99.2005 151.525C94.7205 151.205 90.2406 150.405 85.7606 149.765C79.8406 149.125 74.2405 147.684 68.8005 145.284C66.4005 144.163 64.3206 142.563 61.7606 142.083C63.2006 144.964 65.2805 147.044 67.6805 148.805C68.6405 149.605 69.6006 150.725 71.0406 150.725C73.4406 152.646 76.0005 154.086 78.8805 155.206C78.4005 156.006 77.9205 155.686 77.2805 155.526C71.6805 154.406 66.0806 152.966 60.6406 151.525C54.4006 149.925 49.6006 146.244 45.7606 141.443C39.3606 133.761 38.7206 124.478 39.5206 115.196C40.1606 107.514 43.0406 100.312 46.5606 93.4304C46.7206 92.9503 46.8805 92.3101 47.6805 92.1501C49.2805 95.831 52.3205 97.4314 56.0005 98.0716C58.2405 98.3917 60.6405 97.4314 61.2805 95.831C63.3605 95.5109 64.4806 94.0706 65.1206 92.1501C66.8806 87.3489 67.6805 82.3876 68.4805 77.2663C69.1205 73.4253 69.6005 69.4243 70.0805 65.5833C70.0805 65.9034 70.4005 66.0634 70.4005 66.3835C71.3605 71.8249 73.1205 76.9462 74.8805 82.0675C75.5205 84.148 76.8006 84.9482 78.5606 84.6282C80.8006 84.3081 83.8405 82.0675 84.4805 78.8667C87.6805 77.9064 90.2405 75.8259 92.4805 73.5853C93.7605 72.305 93.9205 71.1847 92.4805 69.7444C90.7205 67.8239 88.8006 66.2234 86.7206 64.7831C84.3206 63.0226 81.9205 61.2622 79.6805 59.1816C80.1605 59.1816 80.6406 59.1816 80.9606 59.1816C84.6406 61.1021 88.8005 61.7423 92.8005 62.3825C97.6005 63.0226 102.561 64.1429 106.881 60.622H107.041ZM82.7206 113.115C79.8406 113.115 77.4406 114.076 75.5206 116.156C74.0806 117.757 72.9605 119.677 71.6805 121.438C70.2405 123.678 70.2406 125.919 71.3606 128.319C74.2406 134.241 78.7206 138.562 85.1206 140.482C90.8806 142.243 94.8806 140.642 97.7606 135.361C98.2406 134.561 98.7206 134.081 99.5206 133.921C107.041 131.68 112.321 126.879 115.201 119.677C117.601 113.596 112.001 106.874 105.441 107.674C100.001 108.474 95.8405 111.515 92.4805 115.676C91.8405 116.476 91.5206 116.476 90.7206 115.996C88.1606 114.396 85.6006 112.955 82.5606 113.115H82.7206Z" fill="#FEFEFE"/>
<path d="M61.1197 95.3507C60.4797 96.9511 57.9197 97.9113 55.8397 97.5913C51.9997 96.9511 49.1197 95.3507 47.5197 91.6698C46.7197 91.6698 46.7197 92.47 46.3997 92.9501C42.8797 99.8318 39.9998 106.874 39.3598 114.716C38.5598 123.998 39.3597 133.28 45.5997 140.962C49.5997 145.764 54.2397 149.445 60.4797 151.045C66.0797 152.485 71.5197 153.926 77.1197 155.046C77.7597 155.046 78.3997 155.526 78.7197 154.726C79.1997 154.886 79.6797 154.726 79.9997 155.206C80.1597 155.526 80.4797 155.686 80.7997 155.366L84.4797 156.326V156.646C82.3997 156.646 80.4797 157.127 78.3997 157.127C71.0397 157.127 63.6797 155.846 56.3197 154.566C48.3197 152.965 40.1598 151.845 32.1598 149.605C29.2798 148.804 26.5597 147.684 23.9997 146.404C22.3997 145.604 20.7997 145.283 19.0397 145.604C17.4397 145.924 15.9997 145.604 14.7197 144.643C15.3597 143.043 15.6797 141.122 17.2797 140.482C21.9197 138.402 23.3597 134.881 23.8397 129.759C24.7997 120.797 27.5197 112.155 30.2397 103.673C34.8797 89.5892 41.9197 76.6259 50.0797 64.3028C52.9597 59.9817 55.8397 55.8206 59.5197 52.1396C61.2797 52.1396 63.0397 52.4597 65.1197 52.6198C63.6797 56.3007 62.2397 59.8216 60.6397 63.3425C57.7597 70.2243 55.1997 77.106 53.9197 84.4679C52.6397 91.1896 54.2398 93.5903 60.9598 95.5107L61.1197 95.3507Z" fill="#CEC8C8"/>
<path d="M83.6804 42.0569C84.0004 40.2964 84.3205 38.696 84.6405 36.9356C84.6405 36.6155 84.8004 36.1353 84.4804 35.9753C84.0004 35.6552 83.8405 36.1353 83.5205 36.4554C82.8805 36.4554 82.7204 36.9356 82.4004 37.2556C81.4404 38.536 80.9604 39.9763 80.4804 41.4167C80.3204 41.8968 80.4805 42.8571 79.5205 42.8571C78.7205 42.8571 78.8805 41.8968 78.5605 41.2567C78.0805 39.8163 77.7604 38.3759 77.2804 37.0956C76.9604 36.2954 76.6405 35.1751 75.5205 35.3351C74.4005 35.3351 74.4005 36.6155 74.2405 37.4157C74.2405 38.536 74.2405 39.6563 74.2405 40.9366C73.6005 40.2964 73.4405 39.4962 73.4405 38.856C72.9605 35.0151 72.6405 31.1741 72.1605 27.3331C71.6805 24.7724 72.4804 22.852 74.4004 21.4116C75.8404 20.1313 77.6004 19.171 79.2004 17.8907C79.6804 17.5706 80.6404 17.4106 80.4804 16.4503C83.0404 15.4901 85.7605 14.6899 88.6405 14.3698C94.5605 13.5696 99.3604 15.6501 102.88 20.4513C104.96 23.172 107.2 24.2923 110.56 23.3321C113.6 22.3718 117.6 25.0925 118.4 28.2934C118.56 28.9335 118.24 29.4136 117.76 29.7337C113.12 33.8948 108.64 38.0559 104 42.2169C103.36 42.8571 102.4 43.0171 101.6 43.1771C97.1204 44.6175 92.4804 45.4177 87.6804 45.8979C88.0004 45.0977 88.6405 44.7776 89.1205 44.2975C92.6405 41.2567 95.8404 37.7358 98.0804 33.7347C98.2404 33.4147 99.2005 32.4544 97.7605 32.4544C94.7205 33.8948 92.1604 36.1354 89.6004 38.2159C87.6804 39.6563 86.4005 41.7368 84.1605 42.537L83.6804 42.0569Z" fill="#FEFEFE"/>
<path d="M61.7598 141.923C64.3198 142.403 66.3997 144.163 68.7997 145.123C74.2397 147.524 79.8398 148.804 85.7598 149.605C90.2398 150.085 94.7197 151.045 99.1997 151.365C106.72 151.845 114.08 151.365 120.64 146.724C123.52 144.643 124.16 141.122 125.12 138.082C126.4 133.44 127.2 128.639 127.2 123.678C127.2 123.038 126.88 122.238 127.84 121.917C129.12 126.559 129.28 131.36 129.12 136.161C129.12 140.642 128.8 145.283 128 149.605C127.68 150.885 128.32 151.845 129.28 152.805C132.64 156.646 132.48 157.607 127.52 158.727C123.68 159.687 119.84 159.047 116.32 157.287C113.76 156.006 111.36 155.846 108.64 155.846C97.5997 155.846 86.5597 155.526 75.8397 151.685C74.3997 151.205 73.2797 150.085 71.9997 149.605C71.1997 149.124 70.5598 148.484 69.7598 148.004C70.0798 148.804 70.5598 149.445 71.3598 149.765V150.085C69.9198 150.085 68.9597 148.964 67.9997 148.164C65.5997 146.404 63.5197 144.163 62.0797 141.602L61.7598 141.923Z" fill="#CEC8C8"/>
<path d="M80.4799 16.2906C80.4799 17.2508 79.68 17.4108 79.2 17.7309C77.6 18.8512 76 19.9715 74.4 21.2518C72.64 22.6922 71.84 24.6127 72.16 27.1733C72.8 31.0143 73.12 34.8553 73.44 38.6963C73.44 39.4965 73.6 40.1366 74.24 40.7768C74.24 39.6565 74.24 38.3762 74.24 37.2559C74.24 36.4557 74.24 35.1754 75.52 35.1754C76.64 35.1754 76.9599 36.1356 77.2799 36.9358C77.7599 38.3762 78.08 39.8166 78.56 41.0969C78.72 41.7371 78.56 42.5373 79.52 42.6973C80.32 42.6973 80.3199 41.7371 80.4799 41.2569C80.9599 39.8166 81.44 38.3762 82.4 37.0959C82.72 36.6158 83.04 36.2957 83.52 36.2957C83.2 39.4965 82.08 42.5373 81.44 45.578C81.12 47.0184 79.52 46.0582 78.4 46.3782C77.44 46.6983 77.44 45.7381 77.44 45.0979C77.44 44.1377 77.44 43.1774 77.12 42.2172C76.48 42.8573 76.4799 43.4975 76.4799 44.1377C76.4799 46.0582 75.68 46.5383 73.92 46.5383C72.96 46.5383 72.6399 46.0582 72.4799 45.258C71.6799 42.3772 70.88 39.4965 69.92 36.6158C69.44 35.1754 68.8 33.895 68.16 32.4547C68.16 32.1346 68.1599 31.6545 67.6799 31.8145C67.0399 31.9746 67.5199 32.2946 67.6799 32.7748C68.6399 36.7758 69.76 40.6168 70.72 44.6178C70.72 45.0979 71.36 45.7381 70.72 45.8981C70.24 46.0582 69.7599 45.8981 69.2799 45.258C66.3999 41.8971 63.68 38.3762 60.96 34.6953C60.16 33.575 59.36 32.6147 57.76 31.9746C59.52 34.6952 61.28 37.416 63.04 40.2967C59.52 40.1367 57.44 37.8961 55.36 35.4955C53.92 33.8951 52.32 32.4547 50.72 30.8543C49.76 29.894 49.12 28.7738 49.92 27.4934C50.72 26.2131 52.1599 26.053 53.2799 26.5332C56.9599 28.2936 59.36 27.3334 61.92 24.1326C64.16 21.4119 67.52 19.4914 71.04 18.3711C74.08 17.4108 77.12 16.4506 80.32 15.9705L80.4799 16.2906Z" fill="#CEC8C8"/>
<path d="M59.6797 52.1397C55.9997 55.8206 53.1198 59.9817 50.2398 64.3028C42.0798 76.626 35.0398 89.5893 30.3998 103.673C27.6798 112.155 24.9598 120.797 23.9998 129.76C23.5198 134.881 22.0798 138.402 17.4398 140.482C15.8398 141.282 15.5197 143.203 14.8797 144.643C12.7997 143.203 12.4798 142.243 13.9198 140.322C15.0398 138.562 16.7998 137.602 18.5598 136.641C19.6798 136.001 20.3198 135.201 20.3198 133.921C21.1198 117.596 25.5998 102.232 32.6398 87.5087C39.0398 74.3854 47.8398 63.1825 57.5998 52.4598C58.2398 51.8196 58.7197 51.1794 59.6797 51.9796V52.1397Z" fill="#FAFAFA"/>
<path d="M117.12 91.1897C117.12 90.5496 117.12 90.2295 116.32 90.5496C115.68 90.8696 115.04 91.1897 114.4 91.3498C112.32 90.8696 110.08 90.8696 108.16 89.7494C105.76 88.309 105.76 87.1887 107.68 85.4283C108.32 84.7881 109.6 84.7881 109.6 83.5078C112.48 82.2274 115.68 82.0674 118.88 81.7473C119.36 82.7076 118.4 82.7076 117.92 83.0276C116.8 83.8279 115.36 84.6281 114.88 86.2285C116.48 85.1082 118.08 84.1479 119.68 83.0276C120.96 81.7473 122.4 82.3875 123.68 83.0276C122.24 84.6281 120.32 85.7483 118.72 87.1887C118.72 87.3487 118.72 87.3487 118.72 87.1887C118.72 87.1887 118.72 87.1887 118.56 87.0287C119.36 87.5088 119.68 86.8686 120.16 86.5485C121.44 85.5883 122.72 84.628 124 83.6678C126.08 83.9879 127.04 85.5883 127.68 87.3487C128.16 88.7891 127.68 90.2295 126.24 91.1897C123.04 91.1897 120 91.1897 116.8 91.3498L117.12 91.1897Z" fill="#FCEB02"/>
<path d="M84.4801 78.5463C83.8401 81.7471 80.8002 83.8276 78.5602 84.3078C76.8002 84.6278 75.6801 83.8276 74.8801 81.7471C73.1201 76.6258 71.3601 71.5045 70.4001 66.0631C70.4001 65.743 70.0801 65.583 70.0801 65.2629C70.4001 63.0223 70.5601 60.6217 70.8801 58.061C71.6801 58.5412 71.6801 59.1813 71.8401 59.6614C74.0801 64.9428 76.6401 70.2242 79.8401 75.0254C80.9601 76.7858 82.4001 78.2262 84.6401 78.5463H84.4801Z" fill="#CEC8C8"/>
<path d="M107.04 60.6218C102.72 63.9826 97.7599 63.0224 92.9599 62.3822C88.7999 61.7421 84.7998 61.1019 81.1198 59.1814C80.7998 59.0214 80.3198 59.1814 79.8398 59.1814C78.5598 58.0611 77.2798 57.1009 75.8398 55.8206C77.7598 55.8206 79.0398 56.3007 80.4798 56.6208C88.1598 58.2212 95.9998 59.0214 103.84 57.741C104.64 57.741 105.12 57.741 105.6 58.3812C106.08 59.1814 106.56 59.9816 107.2 60.7818L107.04 60.6218Z" fill="#CEC8C8"/>
<path d="M83.6798 42.0569C86.0798 41.2567 87.3598 39.1762 89.1198 37.7358C91.8398 35.6553 94.2398 33.4147 97.2798 31.9744C94.3998 36.4555 90.8798 40.2965 86.7198 43.6574C85.5998 44.4576 84.6398 46.5381 83.1998 45.7379C82.2398 45.0977 83.5198 43.3373 83.5198 42.0569H83.6798Z" fill="#CEC8C8"/>
<path d="M64 66.5432C64.96 67.8235 65.9201 69.1039 67.0401 70.3842C67.6801 71.1844 67.5201 71.9846 67.3601 72.9448C67.0401 75.0254 66.7201 77.1059 66.2401 79.3465C66.2401 79.3465 66.08 79.3465 65.92 79.3465C65.12 77.426 63.68 75.8256 62.4 74.2252C62.08 73.7451 61.4401 73.425 61.7601 72.6248C62.5601 70.7043 63.2001 68.6237 63.8401 66.5432H64Z" fill="#79B92F"/>
<path d="M83.6795 64.3026C86.1329 65.6897 86.9863 67.7168 86.2396 70.3842C85.7596 72.1446 85.2796 74.0651 84.6396 75.8256C84.6396 76.3057 84.6396 77.2659 83.5196 76.9459C83.5196 76.7858 83.5196 76.6258 83.1996 76.6258C83.5196 75.6655 83.0396 75.0254 82.5596 74.3852C81.7596 73.1049 81.5995 71.9846 82.0795 70.3842C82.7195 68.3036 83.1995 66.2231 83.6795 64.1426V64.3026Z" fill="#79B92F"/>
<path d="M65.9203 81.1072C65.2803 83.3477 64.8003 85.5883 64.1603 87.8289C63.2003 86.2285 62.4002 84.468 61.2802 82.8676C59.5202 80.627 59.6803 78.3865 60.9603 75.9858C61.7603 76.786 62.4003 77.5862 63.2003 78.3865C64.1603 79.3467 64.4803 80.7871 65.9203 81.1072Z" fill="#79B92F"/>
<path d="M60.9596 75.9856C59.6796 78.3862 59.3595 80.6268 61.2795 82.8673C62.3995 84.3077 63.1996 86.0682 64.1596 87.8286C64.1596 88.3087 64.1596 88.9489 63.5196 89.5891C61.4396 86.5483 59.8396 83.5075 56.9596 81.1069C56.6396 80.7868 56.9596 80.3067 56.9596 79.9866C57.5996 77.9061 58.2395 75.6655 58.8795 73.585C59.6795 74.3852 60.3195 75.1854 60.7995 75.9856H60.9596Z" fill="#F5F5F1"/>
<path d="M109.6 83.3477C109.6 84.628 108.32 84.628 107.68 85.2681C105.6 87.0286 105.76 88.1489 108.16 89.5892C110.08 90.7095 112.32 90.7095 114.4 91.1897C113.6 91.8298 112.8 92.3099 112 92.9501C111.52 93.4302 111.04 93.4302 110.4 93.2702H110.08C106.88 92.47 104.96 90.7095 104.8 88.789C104.8 86.7085 106.56 84.628 109.76 83.3477H109.6Z" fill="#F5F5F1"/>
<path d="M117.12 91.1897C120.32 90.8696 123.36 90.8696 126.56 91.0297C122.72 94.0705 118.08 94.2305 112.96 94.0705C114.56 92.9502 115.84 91.9899 116.96 91.1897H117.12Z" fill="#F5F5F1"/>
<path d="M63.9997 66.5432C63.3597 68.6237 62.7197 70.5442 61.9197 72.6248C61.5997 73.425 62.0798 73.745 62.5598 74.2252C63.8398 75.8256 65.2797 77.426 66.0797 79.3465C66.0797 79.3465 66.0797 79.5065 65.9197 79.6665C63.9997 77.2659 62.0797 74.5452 59.6797 72.4647C60.3197 69.584 61.5997 67.0233 62.7197 64.1426C63.3597 65.1028 63.6798 65.903 64.1598 66.7032L63.9997 66.5432Z" fill="#F5F5F1"/>
<path d="M58.7204 84.7881C60.3204 86.5485 61.2805 88.469 62.5605 90.3895C63.2005 91.3498 62.8805 91.8299 62.5605 92.6301C62.0805 93.2703 61.4405 93.5903 60.6405 93.2703C60.0005 93.1102 59.3605 92.9502 59.0405 92.4701C58.0805 89.9094 58.4005 87.3487 59.0405 84.7881H58.7204Z" fill="#79B92F"/>
<path d="M73.2801 47.9786H77.2801C77.2801 48.9389 76.3201 49.419 76.3201 50.5393C77.9201 50.3793 77.7601 48.4588 78.7201 47.9786C79.8401 47.4985 81.2801 47.6586 82.8801 47.4985C81.6001 48.6188 82.0801 51.1795 80.0001 50.8594C77.6001 50.5393 73.9201 52.7799 73.1201 47.9786H73.2801Z" fill="#79B92F"/>
<path d="M92.4802 51.0194C91.8402 51.0194 91.3602 51.0194 90.7202 51.0194C86.4002 51.0194 87.3603 51.4995 88.6403 47.8186C88.9603 47.0184 89.4402 46.8583 90.0802 46.8583C91.3602 46.8583 92.4802 46.5382 93.6002 46.3782C93.6002 47.9786 93.4402 49.739 92.3202 51.1794L92.4802 51.0194Z" fill="#79B92F"/>
<path d="M83.6798 64.3028C83.1998 66.3833 82.7198 68.4638 82.0798 70.5444C81.5998 71.9847 81.7599 73.2651 82.5599 74.5454C83.0399 75.1856 83.5198 75.8257 83.1998 76.786C81.4398 75.9858 80.7998 74.2253 79.8398 72.7849C79.8398 72.6249 79.8398 72.3048 79.8398 72.1448C80.6398 69.7442 81.2798 67.3435 81.9198 64.7829C82.2398 63.3425 82.8798 63.3425 83.6798 64.3028Z" fill="#F5F5F1"/>
<path d="M58.7205 84.7881C58.2405 87.3487 57.9205 89.9094 58.7205 92.47C56.0005 91.1897 55.5205 90.3895 55.5205 87.5088C55.5205 85.7483 56.0005 84.1479 56.4805 82.0674C57.4405 82.8676 58.0805 83.8278 58.5605 84.628L58.7205 84.7881Z" fill="#F5F5F1"/>
<path d="M95.1997 45.8979C96.3197 45.7378 97.2797 45.4177 98.3997 45.2577C99.1997 45.0976 99.6797 45.2577 99.1997 46.2179C99.1997 46.378 99.1997 46.698 99.0397 46.8581C98.0797 47.9784 99.8397 49.8989 97.9197 50.539C96.6397 50.8591 95.1998 50.8591 93.7598 51.0192C94.5598 49.4188 95.0398 47.8183 95.3598 46.0579L95.1997 45.8979Z" fill="#79B92F"/>
<path d="M90.5601 54.5403C89.4401 53.9001 88.96 52.2997 87.2 52.9398C87.2 53.58 88.0001 53.74 88.1601 54.3802C85.9201 54.2202 83.52 53.9001 81.28 53.74C80.96 53.42 80.48 53.0999 80 52.4597C84.64 52.4597 88.96 52.4597 93.12 52.4597C94.24 52.4597 94.56 53.58 95.04 54.3802C93.6 54.3802 92.0001 54.3802 90.5601 54.3802V54.5403Z" fill="#F5F5F1"/>
<path d="M99.04 50.2193C100.32 47.8187 99.52 43.9777 103.68 43.8176C103.36 49.099 103.36 50.0592 99.04 50.2193Z" fill="#79B92F"/>
<path d="M66.4004 58.8613C68.6404 61.582 69.4405 64.4628 68.1605 67.9837C66.0805 65.423 63.8405 62.8623 66.2405 59.1814C66.2405 59.1814 66.2404 59.0214 66.4004 58.8613Z" fill="#79B92F"/>
<path d="M66.4003 58.8612C66.4003 58.8612 66.4004 59.0212 66.2404 59.1812C63.8404 62.7021 66.2404 65.2628 68.1604 67.9835C68.1604 68.3036 68.1603 68.9437 68.0003 69.1038C67.3603 69.4239 67.3604 68.6236 67.0404 68.4636C66.8804 68.4636 66.7204 67.9835 66.5604 67.8235C63.3604 64.6226 62.2404 61.1017 65.4404 57.2607C65.7604 57.5808 66.2403 58.221 66.4003 59.0212V58.8612Z" fill="#F5F5F1"/>
<path d="M70.2404 47.4985C72.0004 47.8186 72.6404 49.259 72.8004 50.6994C72.8004 52.4598 71.6804 53.26 70.0804 53.5801C68.9604 51.4995 67.8404 49.419 70.0804 47.4985H70.2404Z" fill="#79B92F"/>
<path d="M88.6405 67.8236C88.9605 67.9837 89.1205 68.1437 89.4405 68.3038C93.1205 71.5046 93.1205 71.5046 89.1205 74.5453C88.6405 74.8654 88.0005 75.1855 87.5205 75.5056C88.0005 72.9449 89.1205 70.3843 88.6405 67.6636V67.8236Z" fill="#79B92F"/>
<path d="M79.3601 68.3037C79.3601 69.1039 79.04 69.9041 78.88 70.8643C77.6 69.424 77.1201 67.6635 76.3201 66.2232C76.0001 65.583 76.6401 65.1029 76.6401 64.6228C76.9601 63.3424 77.4401 61.9021 77.9201 60.6217C78.2401 59.6615 78.72 59.8215 79.2 60.6217C79.04 61.582 78.8801 62.5422 78.5601 63.3424C77.9201 65.2629 77.9201 66.8633 79.5201 68.3037H79.3601Z" fill="#F5F5F1"/>
<path d="M70.2405 47.4983C67.8405 49.4188 69.1205 51.4993 70.2405 53.5798C68.6405 53.8999 67.6804 53.2597 66.8804 51.9794C66.0804 50.6991 66.2405 49.5788 67.0405 48.4585C67.8405 47.3382 68.9605 47.0182 70.2405 47.4983Z" fill="#F5F5F1"/>
<path d="M100.8 53.2599C101.92 54.0601 102.56 55.5005 104 56.1406C101.12 56.6207 98.3998 57.741 96.7998 54.0601C98.0798 53.74 99.5198 53.4199 100.8 53.0999V53.2599Z" fill="#79B92F"/>
<path d="M59.5199 72.4648C61.9199 74.5454 63.68 77.2661 65.76 79.6667C65.76 79.6667 65.7599 79.5066 65.9199 79.3466C65.9199 79.3466 66.0799 79.3466 66.2399 79.3466C66.2399 79.9868 66.08 80.6269 65.76 81.1071C64.32 80.787 63.9999 79.3466 63.0399 78.3864C62.2399 77.5861 61.5999 76.7859 60.7999 75.9857C60.3199 75.0255 59.6799 74.2253 58.8799 73.5851C58.8799 73.105 58.88 72.6249 59.36 72.4648H59.5199Z" fill="#141111"/>
<path d="M68.0002 54.7002C69.7602 54.7002 70.4002 55.1803 70.0802 57.1008C69.7602 58.5412 69.7602 60.1416 69.6002 62.0621C68.6402 60.1416 68.0002 58.7012 67.2002 57.1008C67.3602 56.3006 67.5203 55.3404 68.1603 54.7002H68.0002Z" fill="#79B92F"/>
<path d="M79.3598 68.3036C77.9198 66.8632 77.7597 65.1027 78.3997 63.3423C78.7197 62.382 78.8798 61.5818 79.0398 60.6216C80.7998 61.5818 81.2797 62.7021 80.4797 64.6226C79.9997 65.7429 79.6798 67.1832 79.3598 68.4636V68.3036Z" fill="#79B92F"/>
<path d="M87.3603 47.3383C86.6136 49.899 84.9069 51.0726 82.2402 50.8592C83.6802 49.0988 84.1603 46.5381 87.3603 47.3383Z" fill="#79B92F"/>
<path d="M81.2801 53.74C83.5201 53.9 85.9202 54.2201 88.1602 54.3801C88.8002 54.8603 89.2801 55.5004 89.9201 55.9806V56.4607C86.8801 55.3404 83.3601 57.1008 81.1201 53.74H81.2801Z" fill="#79B92F"/>
<path d="M64.4801 43.9775C62.8801 43.9775 61.4401 44.7777 60.0001 45.2578C59.6801 45.2578 59.3601 45.738 58.8801 45.2578C58.4001 44.9378 58.5601 44.4576 58.8801 44.1376C58.8801 44.1376 58.8801 44.1375 58.8801 43.9775C60.8001 40.9367 60.8001 40.1365 64.3201 43.9775H64.4801Z" fill="#79B92F"/>
<path d="M64.4799 43.9775C64.9599 44.2976 65.28 44.7777 65.76 45.2579C64.64 45.898 63.52 45.738 62.56 46.8583C63.68 47.4984 64.4799 46.8583 65.2799 46.5382C65.7599 46.5382 66.2399 46.0581 66.7199 46.5382C67.0399 46.8583 66.7199 47.1784 66.7199 47.3384C66.2399 47.6585 66.2399 48.7788 65.2799 48.4587C63.8399 47.9786 62.24 47.4984 60.96 46.5382C62.08 45.2579 63.9999 45.578 64.7999 44.1376L64.4799 43.9775Z" fill="#79B92F"/>
<path d="M73.9199 58.5413C74.0799 57.7411 74.4 56.9409 74.56 56.3008C77.76 59.1815 77.5999 57.9012 75.9999 62.5424C75.1999 61.262 74.5599 59.9817 74.0799 58.5413H73.9199Z" fill="#79B92F"/>
<path d="M90.5596 54.54C91.9996 54.54 93.5996 54.54 95.0396 54.54C95.6796 55.1802 96.3195 55.8204 97.2795 56.9407C94.5595 56.9407 91.8396 57.7409 90.5596 54.7001V54.54Z" fill="#79B92F"/>
<path d="M79.5199 54.5402C77.9199 54.2201 76.1599 53.9001 74.5599 53.4199C74.0799 53.4199 73.5999 53.2599 73.7599 52.6197C73.7599 51.9796 74.2399 51.9796 74.7199 51.9796C76.7999 51.9796 79.0399 51.4994 79.5199 54.5402Z" fill="#CEC8C8"/>
<path d="M60.9598 49.4189C60.9598 50.2191 60.9597 50.8593 59.9997 50.5392C59.0397 50.3791 57.9198 50.5392 57.7598 49.2589C57.7598 48.4586 58.2397 47.4984 59.1997 47.1783C59.8397 47.0183 61.1197 48.4586 61.1197 49.2589L60.9598 49.4189Z" fill="#79B92F"/>
<path d="M100.8 53.2599C99.5203 53.58 98.0803 53.9001 96.8003 54.2202C96.1603 53.7401 95.8404 53.2599 95.3604 52.6198C98.0804 51.4995 99.5203 51.6595 100.64 53.2599H100.8Z" fill="#F5F5F1"/>
<path d="M88.64 67.8237C88.96 70.5444 88 73.1051 87.52 75.6657C87.2 75.8258 86.8801 76.1459 86.5601 76.3059C86.2401 76.3059 86.24 75.9858 86.4 75.6657C87.2 73.1051 87.36 70.2243 88.64 67.8237Z" fill="#F5F5F1"/>
<path d="M104.32 49.0986C104.8 47.0181 105.12 45.2577 105.6 43.0171C106.56 44.9376 106.4 46.698 106.56 48.1384C106.56 48.7786 105.28 48.6185 104.32 48.9386V49.0986Z" fill="#79B92F"/>
<path d="M117.76 95.6706C119.36 95.0305 119.52 96.1508 119.52 96.7909C119.2 98.2313 117.92 97.5911 116.96 97.9112C116 98.2313 115.68 97.4311 115.84 96.6309C116 95.0305 117.44 95.9907 117.76 95.6706Z" fill="#E9DA02"/>
<path d="M104.8 52.1396C105.28 52.7798 105.92 53.2599 106.24 53.9001C106.72 54.7003 106.08 55.1804 105.44 55.6605C104.64 56.3007 104.64 55.3405 104.32 55.1804C103.68 54.5403 103.2 53.7401 102.56 53.0999C103.2 52.7798 104 52.4597 104.64 52.2997L104.8 52.1396Z" fill="#79B92F"/>
<path d="M120.8 97.1112C120.64 95.0307 121.12 94.5506 122.88 94.2305C123.84 94.2305 124 94.8706 123.84 95.1907C123.52 96.9511 121.76 96.311 120.8 96.9512V97.1112Z" fill="#E9DA02"/>
<path d="M114.88 97.9112C113.76 97.4311 112 98.8715 111.36 96.951C111.36 96.6309 110.88 95.6707 111.84 95.6707C113.28 95.6707 114.88 95.6707 114.88 98.0713V97.9112Z" fill="#E9DA02"/>
<path d="M95.1995 45.8979C94.8795 47.6584 94.3995 49.2588 93.5995 50.8592C93.2795 50.8592 92.7995 50.8592 92.4795 50.8592C93.4395 49.4188 93.5996 47.8184 93.7596 46.058C94.2396 45.7379 94.7195 45.8979 95.1995 45.8979Z" fill="#141111"/>
<path d="M110.08 97.431C108.32 97.271 107.04 96.6308 107.36 94.5503C109.6 94.5503 109.76 94.8704 110.08 97.431Z" fill="#E9DA02"/>
<path d="M119.68 82.8675C118.08 83.9878 116.48 84.948 114.88 86.0683C115.52 84.4679 116.8 83.8277 117.92 82.8675C118.24 82.5474 119.2 82.5474 118.88 81.5872C119.68 81.5872 119.68 82.2273 119.68 82.7075V82.8675Z" fill="#141111"/>
<path d="M73.9203 58.5415C74.4003 59.9819 75.0403 61.2622 75.8403 62.5425C75.8403 63.1827 75.5203 63.8229 75.2003 64.6231C74.8803 62.3825 72.3203 61.1022 73.9203 58.7016V58.5415Z" fill="#F5F5F1"/>
<path d="M72.6403 58.2212C72.3203 57.421 72.0003 56.6208 71.6803 55.8206C71.6803 55.3405 71.0403 55.0204 71.5203 54.3802C71.8403 54.0601 72.1603 54.0601 72.4803 54.3802C72.9603 54.7003 73.7603 54.8603 73.4403 55.8206C73.2803 56.6208 73.4403 57.421 72.6403 58.2212Z" fill="#CEC8C8"/>
<path d="M63.9996 51.0192C63.5196 50.6992 61.9196 51.6594 62.0796 49.7389C62.0796 49.2588 62.3996 48.7787 62.8796 49.0988C63.6796 49.5789 65.1196 48.7787 65.1196 50.3791C65.1196 51.0192 64.7996 51.3393 63.9996 50.8592V51.0192Z" fill="#79B92F"/>
<path d="M118.72 86.8686C120.32 85.4282 122.24 84.3079 123.68 82.7075C124.16 82.7075 124.32 83.0276 124.32 83.5077C123.04 84.468 121.76 85.4282 120.48 86.3884C120 86.7085 119.52 87.3487 118.88 86.8686H118.72Z" fill="#141111"/>
<path d="M105.6 95.5108C103.84 94.8706 104.32 93.4302 103.84 91.8298C105.28 92.9501 106.56 93.5903 105.6 95.5108Z" fill="#E9DA02"/>
<path d="M104.8 52.1397C104.16 52.4598 103.36 52.7799 102.72 52.9399C102.24 52.4598 101.76 51.9797 101.12 51.4996C102.56 51.4996 104 49.8992 104.8 52.1397Z" fill="#F5F5F1"/>
<path d="M67.9996 54.7005C67.3596 55.3407 67.1996 56.3009 67.0396 57.1011C66.1863 56.1409 66.0263 55.0206 66.5597 53.7402C67.0397 54.0603 67.5196 54.3804 67.9996 54.7005Z" fill="#F5F5F1"/>
<path d="M124.96 95.6708C124.8 94.5505 124.32 93.5903 125.6 93.1102C126.24 92.9501 126.4 93.4302 126.56 93.7503C127.04 95.0306 125.76 94.8706 124.96 95.5108V95.6708Z" fill="#E9DA02"/>
<path d="M128.8 91.0298C128.48 91.99 129.12 92.9503 128 93.7505C127.36 92.6302 127.04 91.6699 128.8 91.0298Z" fill="#E9DA02"/>
<path d="M71.0404 149.925C70.4004 149.604 69.7604 148.964 69.4404 148.164C70.2404 148.644 70.8804 149.284 71.6804 149.764C71.5204 149.764 71.2004 149.764 71.0404 149.764V149.925Z" fill="#141111"/>
<path d="M80.9602 155.526C80.6402 155.846 80.3202 155.686 80.1602 155.366C80.4802 155.366 80.6402 155.366 80.9602 155.526Z" fill="#FEFEFE"/>
<path d="M83.2002 76.626C83.5202 76.626 83.5202 76.626 83.5202 76.9461C83.5202 76.9461 83.3602 76.786 83.2002 76.626Z" fill="#F5F5F1"/>
<path d="M82.7196 113.115C85.7596 113.115 88.3195 114.395 90.8795 115.996C91.6795 116.476 91.9996 116.476 92.6396 115.676C95.9996 111.355 100.16 108.474 105.6 107.674C112.16 106.713 117.92 113.435 115.36 119.677C112.48 126.879 107.2 131.68 99.6795 133.92C98.7195 134.24 98.2396 134.721 97.9196 135.361C94.8796 140.642 91.0395 142.243 85.2795 140.482C78.8795 138.562 74.3996 134.24 71.5196 128.319C70.3996 125.918 70.3996 123.678 71.8396 121.437C73.1196 119.677 74.2395 117.756 75.6795 116.156C77.5995 114.075 79.9995 113.115 82.8795 113.115H82.7196ZM105.92 128.479C104.96 128.319 104.16 127.199 103.2 128.479C102.24 129.439 103.36 130.239 103.2 131.2C104.48 130.56 105.44 129.919 106.4 129.119C107.04 128.639 107.84 127.999 108.48 127.519C109.28 126.879 109.12 126.558 108.48 125.758C107.84 124.798 107.52 125.438 106.88 125.758C105.6 126.398 105.44 127.359 105.76 128.639L105.92 128.479ZM89.4396 133.44C89.4396 131.68 88.9596 130.079 88.7996 128.319C88.7996 127.999 88.7996 127.519 89.1196 127.359C89.5996 127.359 89.7596 127.839 89.7596 128.159C90.0796 129.759 90.7196 131.52 90.7196 133.28C90.7196 134.881 91.8396 135.201 92.9596 135.361C93.9196 135.521 94.0796 135.361 93.7596 134.4C93.4396 133.6 93.1196 132.96 92.7996 132.16C92.7996 131.84 92.4796 131.2 93.1196 131.04C93.7596 130.88 93.9195 131.36 94.0795 131.84C94.3995 132.64 94.5596 133.28 94.7196 134.08C95.0396 135.201 95.5196 135.201 96.3196 134.561C97.9196 133.28 98.3996 131.36 98.2396 129.439C97.7596 123.998 91.6796 116.796 86.3996 115.356C85.2796 115.036 85.2796 115.036 85.4396 116.156C85.9196 117.916 86.2396 119.677 86.7196 121.437C86.5596 121.437 86.3995 121.437 86.0795 121.437C85.2795 119.677 84.6395 117.756 84.4795 115.836C84.3195 114.235 83.1996 114.876 82.3996 114.876C81.2796 114.876 81.1195 115.356 81.2795 116.476C81.5995 118.396 81.9195 120.317 82.0795 122.237C80.7995 120.637 80.7996 118.716 80.1596 116.956C80.3196 115.516 79.8396 115.356 78.7196 115.996C75.3596 118.076 74.0796 121.597 75.8396 125.438C78.2396 130.72 82.5596 133.92 87.9996 135.521C88.6396 135.681 89.4396 136.161 90.2396 135.681C90.0796 135.201 89.9196 134.721 89.7596 134.24C89.7596 134.08 89.7596 133.76 89.4396 133.92V133.44ZM99.3596 127.039C99.3596 127.679 99.6796 128.319 99.8396 129.279C101.44 128.159 103.2 127.359 104.64 126.238C107.84 123.838 110.72 121.117 112.16 117.276C113.28 114.075 113.12 110.714 109.92 109.594C106.56 107.834 108.16 111.515 107.04 112.315C106.56 111.995 107.04 111.515 106.72 111.195C106.4 110.554 107.52 109.114 105.92 109.274C104.64 109.274 103.2 109.274 103.04 111.195C103.04 112.635 103.04 114.075 102.08 115.836C102.08 114.235 102.08 112.795 102.08 111.515C102.08 110.234 101.76 110.234 100.8 110.714C97.7596 112.155 95.5195 114.555 93.2795 116.956C92.6395 117.596 93.2796 118.076 93.5996 118.396C96.4796 120.637 98.0796 123.678 99.3596 127.039ZM91.0396 137.281C89.5996 136.801 88.1596 136.161 87.0396 137.921C86.8796 138.241 86.3996 138.882 85.7596 138.402C85.2796 137.921 85.7596 137.441 86.2396 137.121C86.7196 136.641 86.8795 136.321 86.0795 135.841C83.9995 134.561 83.3596 136.161 82.3996 137.281C86.7196 140.002 89.2796 139.842 91.0396 137.121V137.281ZM77.5996 134.4C78.0796 133.76 79.1996 132.8 79.0396 132.64C78.2396 131.52 77.4396 130.239 76.3196 129.439C75.6796 128.959 75.0396 130.399 74.3996 131.04C74.2396 131.2 77.1196 134.4 77.5996 134.4ZM78.0795 134.881C78.7195 135.361 79.5196 135.841 80.1596 136.481C81.5996 137.601 82.2395 136.161 82.8795 135.521C83.6795 134.561 82.3996 134.561 81.9196 134.24C80.3196 132.48 79.1995 133.6 78.0795 135.041V134.881ZM114.08 114.075C114.08 114.395 114.08 114.555 114.08 114.555C114.08 116.316 114.08 118.236 112.48 119.677C111.52 120.637 111.36 121.757 112.8 122.718C114.4 120.157 115.68 117.596 114.24 114.235L114.08 114.075ZM74.2396 125.758C72.7996 126.879 71.9996 127.999 73.4396 129.439C73.7596 129.919 73.9196 129.919 74.3996 129.439C76.1596 127.999 75.1996 126.879 74.2396 125.598V125.758ZM110.08 126.078C110.4 124.798 112.16 124.638 111.68 123.038C111.68 122.718 111.04 121.917 110.24 122.557C108.96 123.518 108.8 124.638 110.08 126.078ZM73.1196 120.957C71.9996 122.718 71.3596 124.318 71.8396 126.078C73.3329 125.225 73.7596 123.518 73.1196 120.957ZM99.3596 132.48C100.8 132.48 101.76 132 102.88 131.36C101.92 131.04 102.08 129.279 100.64 129.759C99.1996 130.239 100.16 131.68 99.5196 132.48H99.3596ZM91.8396 139.202C92.9596 138.402 93.7596 137.921 94.5596 137.281C93.2796 137.281 91.9996 136.961 91.8396 139.202Z" fill="#12100D"/>
<path d="M86.5599 121.117C86.0799 119.357 85.7598 117.596 85.2798 115.836C84.9598 114.716 84.9599 114.716 86.2399 115.036C91.6799 116.476 97.5998 123.518 98.0798 129.119C98.2398 131.04 97.9199 132.96 96.1599 134.241C95.3599 134.881 94.8799 135.041 94.5599 133.76C94.5599 132.96 94.0799 132.32 93.9199 131.52C93.9199 131.04 93.5999 130.56 92.9599 130.72C92.4799 130.88 92.4799 131.52 92.6399 131.84C92.9599 132.64 93.1199 133.44 93.5999 134.081C94.0799 135.041 93.5999 135.361 92.7999 135.041C91.6799 134.721 90.7199 134.401 90.5599 132.96C90.5599 131.2 89.9199 129.599 89.5999 127.839C89.5999 127.519 89.5999 127.039 88.9599 127.039C88.4799 127.039 88.4799 127.679 88.6399 127.999C88.6399 129.759 89.4398 131.36 89.2798 133.12C87.8398 132.96 86.5598 132.16 85.2798 131.52C82.3998 130.4 79.9999 128.639 78.3999 125.918C76.1599 121.917 76.4799 119.197 79.9999 116.156C80.6399 117.916 80.6399 119.837 81.9199 121.437C81.5999 119.517 81.4399 117.596 81.1199 115.676C80.9599 114.556 81.1199 114.075 82.2399 114.075C83.0399 114.075 84.1599 113.435 84.3199 115.036C84.4799 116.956 85.1199 118.877 85.9199 120.637C86.0799 121.277 86.0798 122.077 86.8798 122.558C86.8798 121.757 86.7199 121.277 86.5599 120.637V121.117Z" fill="#FCEB02"/>
<path d="M99.3598 127.039C98.0798 123.678 96.4797 120.637 93.5997 118.397C93.2797 118.076 92.6397 117.756 93.2797 116.956C95.5197 114.556 97.7597 112.155 100.8 110.715C101.76 110.234 102.24 110.234 102.08 111.515C102.08 112.795 102.08 114.075 102.08 115.836C103.04 114.235 102.88 112.635 103.04 111.195C103.04 109.114 104.64 109.274 105.92 109.274C107.52 109.274 106.4 110.555 106.72 111.195C106.72 111.515 106.72 111.995 107.04 112.315C108.16 111.515 106.72 107.834 109.92 109.594C110.56 111.355 110.88 112.955 110.4 114.876C109.92 116.956 108.8 118.557 107.68 120.317C105.44 123.358 102.24 124.958 99.5197 127.199L99.3598 127.039Z" fill="#FCEB02"/>
<path d="M80.1601 116.476C76.6401 119.517 76.3201 122.238 78.5601 126.239C80.1601 128.959 82.56 130.72 85.44 131.84C86.72 132.48 88 133.12 89.44 133.44C89.44 133.44 89.6001 133.601 89.7601 133.761C89.9201 134.241 90.08 134.721 90.24 135.201C89.44 135.681 88.64 135.201 88 135.041C82.4 133.44 78.24 130.24 75.84 124.958C74.08 121.277 75.36 117.596 78.72 115.516C80 114.876 80.4801 114.876 80.1601 116.476Z" fill="#F5F5F1"/>
<path d="M99.3603 127.039C102.08 124.798 105.28 123.198 107.52 120.157C108.8 118.557 109.76 116.796 110.24 114.716C110.72 112.955 110.24 111.195 109.76 109.434C112.96 110.555 113.12 113.915 112 117.116C110.72 120.957 107.68 123.678 104.48 126.079C103.04 127.199 101.44 128.159 99.6802 129.119C99.5202 128.319 99.3602 127.519 99.2002 126.879L99.3603 127.039Z" fill="#F5F5F1"/>
<path d="M91.0404 137.281C89.2804 140.162 86.7204 140.162 82.4004 137.441C83.3604 136.321 84.0004 134.721 86.0804 136.001C86.8804 136.481 86.7204 136.641 86.2404 137.281C85.9204 137.601 85.2804 137.921 85.7604 138.562C86.2404 139.042 86.7204 138.562 87.0404 138.081C88.1604 136.321 89.6004 136.961 91.0404 137.441V137.281Z" fill="#E9DA02"/>
<path d="M77.6 134.401C77.12 134.401 74.24 131.2 74.4 131.04C75.04 130.4 75.52 128.959 76.32 129.439C77.44 130.08 78.4 131.36 79.04 132.64C79.04 132.8 78.08 133.921 77.6 134.401Z" fill="#E9DA02"/>
<path d="M78.0801 134.881C79.2001 133.44 80.3201 132.32 81.9201 134.081C82.2401 134.561 83.6801 134.401 82.8801 135.361C82.2401 136.161 81.6002 137.601 80.1602 136.321C79.5202 135.841 78.7201 135.201 78.0801 134.721V134.881Z" fill="#E9DA02"/>
<path d="M114.08 114.076C115.52 117.436 114.24 119.997 112.64 122.558C111.2 121.597 111.36 120.477 112.32 119.517C113.76 118.077 113.76 116.316 113.92 114.396C113.92 114.396 113.92 114.396 113.92 113.916L114.08 114.076ZM114.08 118.077C114.08 118.077 114.08 118.237 114.08 118.397C114.08 118.397 114.08 118.237 114.08 118.077Z" fill="#E9DA02"/>
<path d="M105.92 128.479C105.6 127.199 105.76 126.239 107.04 125.598C107.68 125.278 108 124.638 108.64 125.598C109.12 126.399 109.44 126.879 108.64 127.359C107.84 127.839 107.2 128.479 106.56 128.959C106.56 128.959 106.56 128.959 106.4 128.799C106.4 128.799 106.4 128.319 106.08 128.479H105.92Z" fill="#E9DA02"/>
<path d="M74.24 125.759C75.2 127.039 76.16 128.319 74.4 129.6C73.92 129.92 73.76 129.92 73.44 129.6C72.16 127.999 72.8 126.879 74.24 125.919V125.759Z" fill="#E9DA02"/>
<path d="M110.08 126.079C108.8 124.638 108.96 123.518 110.24 122.558C111.04 121.918 111.68 122.718 111.68 123.038C112.16 124.638 110.4 124.798 110.08 126.079Z" fill="#E9DA02"/>
<path d="M73.1199 120.957C73.7599 123.518 73.3332 125.225 71.8399 126.079C71.1999 124.158 71.9999 122.718 73.1199 120.957Z" fill="#E9DA02"/>
<path d="M106.4 128.959C105.6 129.759 104.48 130.4 103.2 131.04C103.2 130.079 102.24 129.279 103.2 128.319C104.16 127.039 104.96 128.319 105.92 128.319C105.92 128.639 106.08 128.639 106.24 128.639C106.24 128.639 106.24 128.639 106.4 128.799V128.959Z" fill="#E9DA02"/>
<path d="M99.3603 132.48C100 131.52 99.0402 130.08 100.48 129.759C101.92 129.279 101.76 131.04 102.72 131.36C101.6 132 100.64 132.48 99.2002 132.48H99.3603Z" fill="#E9DA02"/>
<path d="M91.8398 139.202C91.9998 136.961 93.2799 137.121 94.5599 137.281C93.7599 137.922 92.7998 138.402 91.8398 139.202Z" fill="#E9DA02"/>
<path d="M86.56 121.117C86.56 121.757 87.0399 122.237 86.8799 123.038C86.2399 122.558 86.0799 121.917 85.9199 121.117C86.0799 121.117 86.24 121.117 86.56 121.117Z" fill="#141111"/>
<path d="M89.7604 133.761C89.7604 133.761 89.6004 133.6 89.4404 133.44C89.7604 133.44 89.7604 133.44 89.7604 133.761Z" fill="#FCEB02"/>
<path d="M106.24 128.799C106.24 128.799 105.76 128.799 105.92 128.479C106.24 128.479 106.24 128.639 106.24 128.799Z" fill="#12100D"/>
</svg>
