<svg width="139" height="140" viewBox="0 0 139 140" fill="none" xmlns="http://www.w3.org/2000/svg">
<path d="M50.3638 0.160038C53.0838 0.800202 55.9638 1.28033 58.5238 2.40061C65.7238 5.44139 71.3238 10.0826 74.2038 17.1244C75.3238 16.1641 76.7638 15.0438 77.8838 13.9236C82.0438 10.2426 86.5238 7.68196 92.2838 7.68196C100.444 7.68196 107.324 13.7635 108.284 22.0856C108.444 23.526 108.604 24.9664 108.604 26.4068C108.604 27.6871 109.084 28.1672 110.364 28.4873C113.564 29.4475 115.484 31.368 115.484 35.049C115.484 36.3293 116.284 35.5291 116.764 35.369C120.124 34.2488 123.484 33.2885 127.004 33.1285C128.604 33.1285 130.364 33.1285 131.804 33.7686C133.884 34.7289 134.524 36.3293 134.044 38.4098C133.564 40.1703 132.764 41.7707 131.964 43.3711C131.484 44.4914 131.484 44.9715 132.764 45.1315C134.364 45.4516 135.964 46.2518 137.244 47.3721C138.844 48.8125 139.004 50.4129 137.884 52.1733C136.764 53.9338 135.164 55.2141 133.404 56.3344C130.364 58.2549 127.324 60.0153 124.124 61.7758C123.644 62.0959 123.004 62.0959 123.164 62.8961C123.964 67.0571 123.164 71.2182 122.364 75.2192C121.724 78.42 120.924 81.6209 120.124 84.8217C119.644 86.7422 118.524 88.1825 116.764 88.9827C115.964 89.3028 115.644 89.783 115.484 90.5832C113.884 97.4649 112.924 104.667 111.004 111.549C109.404 117.31 106.204 121.471 100.284 123.552C86.6838 128.353 72.9238 132.834 59.4838 138.275C57.0838 139.236 54.6838 139.556 52.2838 139.876C49.8838 140.196 47.9637 139.076 46.0437 137.955C39.4837 134.114 33.4038 129.633 27.4838 124.832C20.1238 119.07 12.6038 113.629 5.40381 107.708C0.603807 103.707 -0.836252 99.3854 0.443748 93.3038C1.72375 86.5821 3.00375 79.8604 3.64375 73.1387C3.64375 72.3385 3.80383 71.3782 3.32383 70.7381C1.24383 67.5373 1.56375 64.0164 2.04375 60.4955C2.68375 55.6942 3.64379 50.893 5.08379 46.2518C5.72379 44.0112 6.68383 41.7707 8.12383 39.8502C10.6838 36.1692 14.0438 34.4088 18.5238 35.049C19.9638 35.209 20.6038 35.049 20.9238 33.4485C21.5638 30.0877 23.4838 27.367 26.2038 25.2865C27.4838 24.3262 27.8037 23.366 27.6437 21.7656C27.1637 14.4037 30.3637 4.16106 40.4437 0.960243C41.4037 0.640161 42.3638 0.480118 43.4838 0.320077C44.6038 0.320077 45.5638 0.320082 46.5238 0H48.1238C48.9238 0.320082 49.7238 0.640164 50.3638 0H50.6838L50.3638 0.160038ZM73.5638 23.366C72.9238 20.8053 72.7638 18.2447 71.3238 15.844C66.0438 6.24159 52.1238 -4.96037e-06 41.5638 2.72069C31.9638 5.1213 28.1238 13.1233 28.6038 22.0856C28.6038 24.1662 28.6038 25.4465 26.6838 26.7268C24.1238 28.6473 22.5238 31.208 21.7238 34.4088C21.0838 37.1295 21.0838 37.1295 18.3638 36.9694C15.6438 36.8094 13.0837 36.9694 10.8437 39.05C9.24375 40.4903 8.12383 42.2508 7.32383 44.1713C5.24383 49.1326 4.28379 54.5739 3.48379 59.8553C2.84379 63.6963 2.68377 67.3772 4.76377 70.8981C5.40377 71.8584 5.08383 72.9786 4.92383 74.0989C3.64383 82.4211 2.52375 90.5832 1.24375 98.9053C1.08375 100.346 1.24375 101.626 2.04375 102.586C2.68375 103.546 3.48379 104.347 4.28379 105.147C9.40379 109.948 15.1638 114.269 20.9238 118.43C29.0838 124.352 36.7638 130.913 45.4038 136.195C48.7638 138.275 52.1238 138.595 55.6438 137.635C61.7238 136.195 67.3238 133.634 73.0838 131.394C82.3638 127.873 91.8038 125.152 100.924 121.471C105.404 119.711 108.124 116.51 109.404 111.869C111.324 104.827 112.124 97.625 113.724 90.5832C114.044 89.3028 114.524 88.5026 115.644 88.0225C117.084 87.5424 118.044 86.2621 118.364 84.8217C119.964 77.9399 121.884 71.2182 121.564 64.0164C121.564 62.576 122.044 61.7758 123.164 61.1356C126.044 59.5352 128.764 57.7748 131.644 56.0143C133.244 55.0541 134.684 54.0938 135.804 52.8135C137.564 50.893 137.404 49.6127 135.164 48.1723C134.044 47.3721 132.764 46.892 131.484 46.7319C129.244 46.2518 129.244 46.0918 130.204 44.0113C130.844 42.4108 131.804 40.8104 132.284 39.05C132.924 37.1295 132.284 36.0092 130.364 35.369C128.764 34.8889 127.164 34.8889 125.564 35.049C121.884 35.5291 118.524 36.4893 115.004 37.7697C114.044 38.0897 113.244 38.2498 113.244 36.8094C113.724 32.6483 113.084 31.5281 109.244 30.4078C107.484 29.9277 106.844 28.8074 106.684 27.0469C106.684 25.4465 106.524 24.0061 106.364 22.4057C105.404 15.0438 99.1638 9.60245 91.8038 9.60245C86.8438 9.60245 83.0038 12.0031 79.4838 15.2039C76.9238 17.6045 75.0038 20.3252 73.4038 23.526L73.5638 23.366Z" fill="#141111"/>
<path d="M46.0438 0.160156C45.0838 0.640279 43.9639 0.640274 43.0039 0.480233C43.0039 0.480233 43.0039 0.320197 43.0039 0.160156C43.9639 0.160156 45.0838 0.160156 46.0438 0.160156Z" fill="#5F6060"/>
<path d="M49.8836 0.160156C49.0836 0.80032 48.2836 0.480238 47.6436 0.160156H49.8836Z" fill="#5F6060"/>
<path d="M73.5638 23.3661C75.3238 20.1652 77.0838 17.4445 79.6438 15.0439C83.1638 11.8431 87.0038 9.44249 91.9638 9.44249C99.4838 9.44249 105.564 14.7238 106.524 22.2458C106.684 23.6861 106.844 25.2865 106.844 26.887C106.844 28.6474 107.644 29.7677 109.404 30.2478C113.244 31.5281 113.884 32.6484 113.404 36.6495C113.404 38.2499 114.044 37.9298 115.164 37.6097C118.524 36.3294 122.044 35.3691 125.724 34.889C127.324 34.729 128.924 34.729 130.524 35.2091C132.444 35.8493 133.084 36.9695 132.444 38.89C131.804 40.4904 131.004 42.0908 130.364 43.8513C129.404 46.0919 129.404 46.0919 131.644 46.572C132.924 46.8921 134.204 47.3722 135.324 48.0124C137.564 49.4527 137.724 50.7331 135.964 52.6535C134.844 53.9339 133.244 55.0542 131.804 55.8544C128.924 57.6148 126.204 59.3753 123.324 60.9757C122.204 61.6158 121.564 62.5761 121.724 63.8564C122.044 70.8982 120.124 77.78 118.524 84.6617C118.204 86.1021 117.244 87.3824 115.804 87.8625C114.524 88.3427 114.044 89.1429 113.884 90.4232C112.284 97.465 111.324 104.667 109.564 111.709C108.284 116.35 105.564 119.551 101.084 121.311C91.9639 124.992 82.3638 127.713 73.2438 131.234C67.4838 133.474 61.8839 136.035 55.8039 137.475C52.2839 138.435 48.9238 137.955 45.5638 136.035C36.9238 130.754 29.2439 124.192 21.0839 118.27C15.3239 114.109 9.72382 109.948 4.44382 104.987C3.64382 104.187 2.84388 103.387 2.20388 102.426C1.40388 101.306 1.08388 100.186 1.40388 98.7453C2.68388 90.4232 3.96386 82.2611 5.08386 73.939C5.08386 72.8187 5.40389 71.6984 4.92389 70.7382C2.84389 67.2173 3.16382 63.5363 3.64382 59.6953C4.44382 54.414 5.40386 48.9726 7.48386 44.0113C8.28386 42.0909 9.40388 40.3304 11.0039 38.89C13.2439 36.9695 15.8039 36.6495 18.5239 36.8095C21.4039 36.9695 21.4039 36.8095 21.8839 34.2488C22.5239 31.048 24.1238 28.3273 26.8438 26.5669C28.6038 25.2866 28.9238 24.0062 28.7638 21.9257C28.2838 12.9634 32.1239 4.96136 41.7239 2.56074C52.2839 -0.159955 66.2039 6.08164 71.4839 15.6841C72.7639 18.0847 72.9239 20.6454 73.7239 23.206L73.5638 23.3661ZM118.524 51.2132C119.644 49.1327 120.604 47.5322 121.404 45.7718C121.724 44.9716 122.684 44.3314 122.204 43.3712C121.564 42.4109 120.444 42.731 119.644 42.731C115.644 43.0511 111.804 44.1714 107.964 45.2917C106.524 45.7718 105.884 45.7718 106.044 43.8513C106.364 40.1704 105.404 36.6495 102.204 34.5689C99.3239 32.6484 97.8838 30.5679 98.3638 26.7269C99.0038 22.4058 95.9639 18.5648 91.8039 16.9644C87.6439 15.5241 84.4439 16.6443 81.4039 20.4853C81.0839 20.9654 80.6039 21.4456 80.2839 22.0857C77.5639 26.0868 75.4839 30.5679 73.4039 34.889C73.2439 35.3691 73.2439 36.0093 72.6039 36.1693C71.4839 36.4894 68.4438 34.0888 68.4438 32.8085C68.2838 28.9675 67.4838 25.2866 66.3638 21.7657C64.9238 16.4843 61.7238 12.8034 56.7638 10.4027C49.5638 7.04189 42.5238 10.4027 41.2438 18.2447C40.6038 22.4058 39.0038 25.4466 35.6438 28.0073C31.4838 31.2081 28.9239 35.6892 29.0839 41.2906C29.0839 42.2509 28.6038 42.2509 27.9638 42.571C24.9238 43.6913 21.8839 44.8115 18.6839 45.7718C17.0839 46.2519 16.6039 47.2122 16.2839 48.6525C15.1639 54.0939 14.2039 59.6953 12.9239 65.1367C12.6039 66.8972 12.9239 68.3376 14.5239 69.1378C15.3239 69.6179 15.3238 70.098 15.1638 70.8982C13.2438 79.3804 11.4838 87.8626 9.56384 96.3447C9.08384 98.4253 9.56389 99.7056 11.3239 100.826C19.0039 106.427 26.8439 112.189 34.5239 117.95C40.2839 122.271 46.3638 126.432 51.9638 131.074C52.6038 131.554 53.4038 132.514 54.0438 131.714C55.3238 130.273 57.0839 130.113 58.6839 129.473C71.9639 124.512 85.2439 119.391 98.6839 114.589C100.604 113.949 101.244 112.829 101.564 110.908C103.164 103.066 104.924 95.2244 106.684 87.3824C107.004 85.9421 107.164 84.6617 108.924 84.5017C109.884 84.5017 110.044 83.5414 110.364 82.7412C111.644 76.8197 111.964 70.7382 113.564 64.8167C113.884 63.8564 113.404 63.3763 112.604 63.0562C111.164 62.256 109.884 61.2958 108.284 60.0154C114.844 59.0552 119.964 55.8544 125.244 52.9736C125.724 52.8136 126.364 52.4935 126.204 51.8533C126.204 51.2132 125.404 51.2132 124.924 51.2132C123.004 51.2132 121.084 51.2132 118.844 51.2132H118.524Z" fill="#FAFAFA"/>
<path d="M118.524 51.213C120.764 51.213 122.684 51.213 124.604 51.213C125.084 51.213 125.724 51.213 125.884 51.8532C125.884 52.4933 125.404 52.6534 124.924 52.9735C119.644 55.8542 114.684 59.2151 107.964 60.0153C109.724 61.1356 111.004 62.0958 112.284 63.056C113.084 63.5362 113.564 64.0163 113.244 64.8165C111.644 70.738 111.324 76.8196 110.044 82.7411C109.884 83.7013 109.564 84.5015 108.604 84.5015C106.844 84.6616 106.684 85.7819 106.364 87.3823C104.764 95.2243 102.844 103.066 101.244 110.908C100.924 112.829 100.124 113.789 98.3638 114.589C85.0838 119.55 71.6438 124.512 58.3638 129.473C56.7638 130.113 55.0039 130.273 53.7239 131.714C53.0839 132.514 52.1238 131.714 51.6438 131.073C46.2038 126.272 40.1238 122.271 34.2038 117.95C26.5238 112.189 18.8438 106.587 11.0038 100.826C9.40384 99.5454 8.76378 98.4251 9.24378 96.3446C11.1638 87.8624 12.9238 79.3802 14.8438 70.8981C15.0038 69.9378 15.0038 69.4577 14.2038 69.1376C12.6038 68.1774 12.2838 66.897 12.6038 65.1366C13.7238 59.6952 14.8438 54.0938 15.9638 48.6524C16.2838 47.212 16.9238 46.2518 18.3638 45.7716C21.4038 44.8114 24.4438 43.6911 27.6438 42.5708C28.2838 42.4108 28.7638 42.2507 28.7638 41.2905C28.4438 35.689 31.1639 31.2079 35.3239 28.0071C38.6839 25.2864 40.2839 22.2456 40.9239 18.2446C42.2039 10.2425 49.2438 6.88169 56.4438 10.4026C61.4038 12.6432 64.6038 16.4841 66.0438 21.7655C67.1638 25.4464 67.9639 29.1274 68.1239 32.8083C68.1239 34.0886 71.1638 36.4893 72.2838 36.1692C72.7638 36.1692 72.7638 35.369 73.0838 34.8888C75.0038 30.4077 77.0838 26.0866 79.9638 22.0856C80.2838 21.6054 80.7638 21.1253 81.0838 20.4852C84.1238 16.6442 87.3238 15.5239 91.4838 16.9643C95.6438 18.5647 98.6838 22.4057 98.0438 26.7268C97.4038 30.5677 98.8438 32.6483 101.884 34.5688C105.084 36.6493 106.044 40.1702 105.724 43.8511C105.564 45.7716 106.204 45.7716 107.644 45.2915C111.484 44.1712 115.324 43.0509 119.324 42.7308C120.284 42.7308 121.404 42.2507 121.884 43.371C122.364 44.3313 121.564 44.9714 121.084 45.7716C120.284 47.5321 119.324 49.1325 118.204 51.213H118.524ZM103.644 50.4128C103.324 50.4128 103.164 50.4128 103.164 50.7329C102.844 51.053 102.364 51.053 102.364 51.6931C105.084 52.1733 107.644 51.6931 110.204 51.5331C111.484 52.0132 110.204 52.1733 110.044 52.3333C107.644 53.2936 105.244 53.4536 102.524 53.6136C103.484 54.894 105.244 54.894 106.044 56.3343C103.804 56.3343 102.044 55.3741 100.444 54.2538C99.9638 53.9337 99.6438 53.4536 99.0038 53.7737C97.8838 54.2538 96.6038 54.5739 95.1638 55.054C98.0438 56.0142 100.604 57.1345 103.324 57.9347C105.084 58.4149 106.844 58.5749 108.604 58.2548C113.084 57.4546 117.404 56.0142 121.404 53.9337C122.204 53.6136 123.004 53.2935 123.644 52.4933C121.884 52.4933 120.444 52.4933 118.844 52.4933C117.404 52.4933 116.924 52.0132 117.724 50.5729C118.684 48.6524 119.644 46.7319 120.604 44.8114C120.604 44.0112 120.284 44.0112 119.004 44.1712C114.844 44.8114 111.004 45.9317 106.844 46.8919C105.564 47.212 104.924 47.6921 104.764 48.8124C104.444 49.2925 103.804 49.7727 103.804 50.4128H103.644ZM72.2838 46.5718C72.2838 44.6513 71.0038 43.5311 69.2438 43.211C67.8038 43.0509 66.5238 43.6911 65.8838 45.2915C65.2438 47.052 66.2038 49.2925 67.9638 50.4128C69.0838 51.5331 70.2039 51.3731 71.3239 50.5729C72.7639 49.4526 72.6038 48.0122 72.2838 46.5718ZM22.2038 45.7716C21.2438 45.7716 20.4439 46.0917 19.3239 46.7319C22.6839 49.1325 25.8839 51.213 28.9239 53.4536C30.0439 54.2538 30.8438 54.2538 31.8038 53.4536C34.0438 52.3333 36.1238 51.3731 38.6838 50.0927C38.2038 49.9327 38.0438 49.7727 37.8838 49.6126C34.5238 48.4923 31.4839 47.0519 29.7239 43.8511C29.4039 43.211 28.9238 43.371 28.4438 43.5311C26.3638 44.3313 24.2838 44.9714 22.2038 45.7716ZM23.9638 108.348C24.1238 108.348 24.4438 108.668 24.6038 108.828C25.4038 108.828 25.2438 108.348 25.2438 108.028C27.0038 99.3853 29.0838 90.9032 31.1638 82.421C31.1638 81.7808 31.4838 81.4608 30.8438 80.9806C27.0038 78.42 23.4838 75.5392 19.6438 73.1386C19.1638 72.6585 18.6838 72.3384 18.2038 71.8583C17.0838 70.8981 16.2839 70.578 16.1239 72.6585C16.1239 73.6187 15.8038 74.579 15.6438 75.6993C14.2038 83.0612 12.7639 90.263 11.3239 97.6249C11.3239 98.4251 10.8438 99.0653 11.8038 99.8655C15.9638 102.746 19.9639 105.787 24.1239 108.668L23.9638 108.348ZM50.2038 48.8124C52.7638 48.9724 55.1638 48.8124 57.5638 48.4923C59.0038 48.4923 60.4438 48.4923 61.8838 48.4923C62.5238 48.4923 63.6438 48.4923 63.6438 47.212C63.6438 46.0917 63.6438 45.1315 62.2038 44.6513C59.0038 43.6911 55.8038 43.6911 52.6038 44.0112C50.6838 44.3313 48.7638 44.8114 46.8438 45.1315C47.6438 43.6911 48.9238 43.371 50.2038 43.0509C53.8838 41.9306 57.7238 42.0907 61.5638 42.7308C61.5638 42.7308 61.7238 42.8909 61.8838 42.8909C62.2038 42.8909 61.8838 42.5708 61.8838 42.4108C59.9638 38.8899 57.4038 36.0091 54.0438 33.7686C52.4438 32.6483 50.6838 32.0081 48.7638 31.688C47.9638 31.688 47.0039 31.3679 46.5239 32.1682C46.0439 32.9684 46.5238 33.7686 47.1638 34.4087C48.1238 35.6891 49.4038 36.3292 50.6838 37.1294C51.4838 37.6095 52.6038 37.9296 53.2438 38.8899C49.7238 38.8899 46.2038 36.1692 45.2438 32.8083C45.5638 30.5677 46.8438 29.7675 49.4038 30.2477C51.9638 30.7278 54.3638 31.8481 56.4438 33.4485C59.4838 35.689 61.5638 38.5698 63.4838 41.6106C64.2838 43.0509 65.0838 43.371 66.0438 41.7706C67.1638 41.6106 67.0038 40.8104 67.0038 40.0102C67.1638 33.2884 66.0438 26.7268 63.8038 20.3251C62.6838 17.2843 60.7639 14.7237 57.7239 13.2833C54.0439 9.44233 46.8438 10.2425 44.2838 14.8837C43.3238 16.4841 43.0038 18.4046 42.6838 20.1651C42.3638 23.3659 41.0838 25.7665 38.3638 27.687C35.3238 29.7675 33.0838 32.6483 31.6438 36.1692C29.7238 40.9704 31.0038 44.4913 35.8038 46.7319C36.4438 47.052 37.2438 47.372 37.8838 47.5321C42.0438 48.8124 46.2038 48.4923 50.3638 48.4923L50.2038 48.8124ZM108.924 65.6167C105.884 66.4169 102.844 67.2171 99.9638 68.0173C99.3238 68.1774 98.8438 68.4974 98.8438 69.2976C98.2038 74.579 97.5639 79.8603 96.9239 84.9817C96.4439 85.4618 96.4438 86.1019 96.6038 86.7421C96.6038 87.2222 97.2438 86.9021 97.5638 86.7421C101.084 85.4618 104.764 84.5015 108.124 82.9011C108.764 82.581 109.084 82.261 109.084 81.6208C109.884 76.4995 110.684 71.2181 111.484 66.0968C111.644 64.9765 111.324 64.4964 110.204 64.9765C109.724 64.9765 109.404 65.2966 108.924 65.4567V65.6167ZM84.7638 91.2233C87.0038 90.4231 89.2438 89.6228 91.4838 88.9827C93.7238 88.3425 95.0038 87.5423 95.1638 84.8216C95.6438 79.7003 96.6038 74.739 97.0838 69.7778C97.4038 68.8175 96.7638 68.9776 96.2838 69.1376C93.0838 70.0979 90.0438 70.8981 86.8438 71.8583C86.0438 72.0183 85.8838 72.4985 85.8838 73.1386C85.0838 77.7798 84.1239 82.261 83.3239 86.9021C83.0039 88.5026 82.3639 90.103 82.5239 91.8634C83.3239 91.8634 83.9638 91.5433 84.6038 91.2233H84.7638ZM40.6038 83.8614C40.7638 83.0612 41.0838 82.1009 41.2438 81.3007C42.3638 76.3394 43.1638 71.3782 44.4438 66.577C44.9238 64.6565 45.8838 63.056 47.8038 62.2558C49.4038 61.6157 50.8438 60.6554 52.4438 59.8552C56.6038 57.7747 60.9238 55.5341 65.0838 53.4536C65.7238 53.1335 67.0039 52.9735 66.5239 52.1733C66.2039 51.3731 65.2438 52.1733 64.6038 52.4933C63.3238 52.8134 61.8838 53.2936 60.6038 53.7737C50.6838 57.1345 42.0439 62.2559 36.1239 71.2181C35.6439 72.0183 35.0038 72.4985 34.0438 71.8583C33.7238 71.2181 33.7238 70.4179 33.0838 69.9378C32.2838 72.6585 32.2838 75.3792 31.0038 77.9399C30.6838 78.7401 31.0038 79.3802 31.6438 79.8603C33.8838 81.4608 36.2839 83.0612 38.5239 84.8216C39.8039 85.7819 40.1239 85.1417 40.1239 84.0214L40.6038 83.8614ZM20.2838 49.4526C19.4838 48.8124 18.8439 48.1722 17.7239 47.8522C16.6039 54.0938 15.4838 60.1753 14.2038 66.2569C14.2038 67.0571 14.3638 67.2171 15.0038 67.6972C19.6438 70.8981 24.1238 74.2589 28.6038 77.6198C29.7238 78.42 29.7238 77.7798 29.8838 76.9796C30.5238 73.1386 31.1638 69.1376 31.9638 65.2966C32.2838 63.5362 31.6438 63.3761 30.2038 63.5362C28.1238 63.8563 26.0439 64.1763 24.1239 64.9765C23.6439 65.1366 23.0039 65.6167 22.5239 64.9765C21.8839 64.3364 22.3639 63.8563 22.5239 63.2161C22.6839 62.736 23.0039 62.2558 23.3239 61.7757C24.7639 59.2151 26.8438 57.2946 29.0838 55.5341C26.0438 53.4536 23.1638 51.5331 20.2838 49.6126V49.4526ZM69.5638 52.9735C68.9238 52.8134 68.2838 52.8134 67.9638 53.4536C67.6438 54.2538 68.2838 54.4138 68.7638 54.7339C73.7238 59.8552 78.3638 65.1366 83.4838 69.9378C84.4438 70.8981 85.2438 71.2181 86.3638 70.4179C89.7238 69.6177 92.9238 68.6575 96.2838 67.5372C90.6838 62.4159 85.4039 57.1345 79.3239 52.9735C77.4039 51.5331 74.3638 49.6126 71.4838 52.1733C71.0038 52.6534 70.2038 52.6534 69.5638 52.8134V52.9735ZM64.4438 49.9327C58.3638 49.9327 52.6038 51.053 47.0038 53.7737C46.6838 53.9337 46.3638 54.0938 45.8838 53.7737C45.8838 52.9735 46.6838 52.9735 47.1638 52.6534C48.4438 51.8532 50.0439 51.5331 51.3239 50.5729C51.3239 50.5729 51.8038 50.5729 51.8038 50.4128C51.8038 50.4128 51.4838 50.5729 51.4838 50.7329C50.6838 50.7329 49.8838 50.4128 49.2438 50.7329C45.4038 50.2528 41.7238 50.7329 38.0438 52.3333C32.9238 54.4138 28.4438 57.6147 25.0838 62.0958C24.9238 62.4159 24.4438 62.5759 24.7638 63.056C24.7638 63.056 25.4038 62.896 25.5638 62.736C27.3238 62.5759 29.0838 62.2558 30.8438 62.0958C33.2438 61.9358 33.8838 62.5759 34.2038 64.8165C34.3638 66.4169 34.5239 68.1774 35.3239 69.9378C35.6439 69.6177 35.8038 69.4577 35.9638 69.2976C41.0838 62.896 47.1638 57.9347 54.8438 54.7339C57.8838 53.4536 60.9239 52.4933 64.1239 51.5331C64.6039 51.3731 66.2038 51.3731 64.6038 50.2528L64.4438 49.9327ZM79.6438 94.4241C78.5238 94.7442 78.8438 95.7044 78.6838 96.3446C77.5638 101.946 76.6038 107.547 75.4838 113.149C75.0038 115.87 74.3638 118.75 73.8838 121.631C75.0038 121.471 75.9638 120.991 76.7638 120.511C79.3238 119.551 82.0438 118.59 84.6038 117.63C85.0838 117.47 85.4038 117.15 85.4038 116.51C85.7238 112.829 86.8438 109.148 87.6438 105.467C88.6038 100.506 89.7238 95.7044 90.8438 90.4231C86.8438 91.8634 83.1638 93.1437 79.4838 94.4241H79.6438ZM102.364 86.7421C99.3238 87.7024 96.2838 88.8226 93.0838 89.7829C92.4438 89.9429 92.2838 90.423 92.2838 91.0632C91.8038 93.7839 91.1638 96.3446 90.6838 99.0653C89.5638 104.827 88.2838 110.428 87.0038 116.19C86.3638 117.31 87.1638 116.83 87.6438 116.67C90.8438 115.389 93.8838 114.109 97.0838 112.989C98.8438 112.349 99.6439 111.388 100.124 109.468C101.724 101.626 103.644 93.7839 105.404 85.9419C104.284 85.6218 103.324 86.1019 102.364 86.7421ZM33.0838 82.7411C32.4438 81.9409 32.1238 81.9409 31.8038 83.0612C30.3638 91.5433 27.9638 99.8655 26.3638 108.348C26.0438 110.108 26.6838 110.748 27.9638 111.388C29.8838 112.829 31.9638 114.269 33.8838 115.87C35.0038 116.83 35.3238 116.35 35.6438 115.229C37.7238 107.067 39.8038 98.7452 41.8838 90.5831C42.0438 89.7829 42.3638 89.1427 41.4038 88.6626C38.5238 86.7421 35.8039 84.6616 32.9239 82.7411H33.0838ZM48.2838 64.3364C46.8438 65.1366 47.1638 65.6167 48.2838 66.4169C53.2438 69.6177 58.0438 72.8186 63.0038 76.0194C63.9638 76.6595 64.6039 76.6595 65.7239 76.3394C70.8439 74.8991 76.1238 73.4587 81.2438 71.8583C81.7238 71.8583 82.2039 71.8583 82.5239 71.2181C82.0439 70.4179 81.4038 69.7778 80.6038 69.2976C76.1238 64.4964 71.8039 59.6952 67.3239 54.894C66.8439 54.2538 66.3639 54.2538 65.7239 54.7339C62.5239 56.8145 59.0038 58.2548 55.8038 60.0153C53.2438 61.4556 50.5238 62.4159 48.2838 64.3364ZM95.1638 38.7298C95.6438 39.2099 96.4438 39.21 96.4438 40.0102C90.6838 40.4903 87.6438 41.2905 85.8838 42.5708C88.4438 43.5311 91.1638 44.0112 93.4038 46.4118C91.8038 46.4118 90.6839 45.9317 89.7239 45.4515C84.8172 43.8511 80.1238 44.2779 75.6438 46.7319C75.6438 46.7319 75.4839 46.7319 75.3239 46.8919C74.2039 47.212 73.8838 48.1722 74.0438 49.1325C74.0438 50.2528 75.0038 50.0927 75.6438 50.4128C80.2838 52.1733 85.2438 52.6534 90.2038 53.4536C92.9238 53.9337 95.4838 53.7737 98.0438 52.6534C101.564 51.213 105.404 48.0122 104.444 43.5311C104.444 42.8909 104.444 42.0907 104.444 41.4505C103.964 38.5698 102.364 36.3292 99.9638 34.5688C97.7238 32.9684 96.4439 31.0479 96.9239 28.3272C97.0839 27.2069 96.9238 26.0866 96.7638 25.1263C95.9638 21.7655 93.8839 19.3649 90.5239 18.5647C87.3239 17.7645 84.9238 18.8847 83.0038 21.4454C81.8838 22.8858 80.7638 24.4862 79.8038 26.0866C76.6038 31.2079 74.6838 36.8093 71.9638 42.0907C71.8038 42.4108 71.9639 42.7308 72.1239 42.8909C72.6039 43.5311 73.0839 44.0112 73.7239 44.6513C73.7239 45.4515 73.7238 46.0917 74.8438 45.4515C77.4038 43.8511 80.1238 42.7309 82.8438 41.6106C86.6838 40.0102 90.8438 38.7298 95.0038 39.21L95.1638 38.7298ZM43.4838 90.103C41.7238 99.2253 39.0039 107.707 36.9239 116.19C36.6039 117.31 36.9238 117.95 37.8838 118.75C41.8838 121.631 45.7238 124.512 49.5638 127.392C50.6838 128.193 51.8038 129.153 53.2438 129.473C53.5638 128.193 53.7238 126.752 54.0438 125.472C55.4838 117.95 57.0839 110.428 58.5239 102.906C58.5239 102.266 59.1638 101.466 58.3638 100.826C53.5638 97.3048 48.6038 93.7839 43.4838 90.103ZM54.8438 128.993C60.6038 126.752 66.0438 124.672 71.4838 122.751C72.2838 122.431 72.4438 121.791 72.4438 121.151C73.4038 115.71 74.5238 110.268 75.4838 104.827C76.1238 101.626 76.7638 98.5851 77.4038 95.2243C71.9638 96.9847 66.6838 98.9052 61.4038 100.666C60.6038 100.986 60.4438 101.466 60.2838 102.266C59.4838 105.947 58.6838 109.468 58.0438 113.149C56.9238 118.43 55.9638 123.552 54.8438 129.153V128.993ZM60.2838 99.7054C67.0038 97.3048 73.5638 95.0642 79.9638 92.8237C80.6038 92.6636 80.9239 92.3435 80.9239 91.7034C82.0439 85.9419 83.0038 80.1804 84.2838 74.419C84.6038 72.9786 84.2838 72.4985 82.6838 72.9786C77.0838 74.579 71.4839 76.1794 65.7239 77.7798C64.9239 77.9399 64.4438 78.2599 64.2838 79.0601C63.1638 85.9419 61.4039 92.6636 60.1239 99.7054H60.2838ZM63.3239 78.9001C63.3239 77.9399 62.6838 77.9399 62.2038 77.6198C57.4038 74.2589 52.6038 71.0581 47.8038 67.8573C46.6838 67.0571 46.5238 67.5372 46.2038 68.4974C44.9238 74.419 43.6438 80.1804 42.2038 86.1019C42.0438 86.9021 42.2038 87.3823 42.8438 87.8624C47.6438 91.2232 52.4438 94.7441 57.0838 98.265C58.2038 99.0653 58.6838 98.9052 58.8438 97.4648C59.9638 92.1835 61.2438 86.9022 62.3638 81.6208C62.5238 80.8206 62.8438 79.8604 63.0038 79.2202L63.3239 78.9001ZM111.004 63.6962C108.764 62.4159 107.004 60.4954 104.764 60.0153C102.684 59.5352 100.764 58.895 98.8438 58.0948C93.8838 55.8542 88.7639 54.5739 83.3239 53.7737C83.6439 54.0938 83.6438 54.2538 83.8038 54.4138C88.4438 58.5749 93.4038 62.2558 97.2438 67.0571C97.5638 67.3771 97.8838 67.3772 98.2038 67.2171C102.364 66.0968 106.364 64.9765 110.844 63.6962H111.004ZM68.6038 36.0091C68.6038 37.6095 68.6038 38.8899 68.6038 40.1702C68.6038 40.8104 68.6038 41.2905 69.4038 41.4505C70.2038 41.6106 70.5238 41.2905 70.8438 40.6503C72.4438 37.6095 72.4438 37.6095 69.4038 36.1692C69.2438 36.1692 69.0838 36.1692 68.6038 35.8491V36.0091Z" fill="#141111"/>
<path d="M61.7239 42.8909C57.8839 42.2507 54.2038 42.0907 50.3638 43.211C49.0838 43.5311 47.8039 43.8511 47.0039 45.2915C48.9239 44.9714 50.8438 44.4913 52.7638 44.1712C55.9638 43.6911 59.1638 43.8511 62.3638 44.8114C63.8038 45.2915 63.8039 46.2518 63.8039 47.372C63.8039 48.8124 62.6838 48.4923 62.0438 48.6524C60.6038 48.8124 59.1639 48.6524 57.7239 48.6524C55.6439 47.8522 53.5639 48.3323 51.4839 48.3323C46.6839 48.0122 41.8838 47.5321 37.2438 45.9317C35.1638 45.1315 33.8838 43.8511 33.5638 41.7706C33.2438 39.21 33.5639 36.8093 35.3239 34.7288C36.7639 32.9684 38.2039 31.3679 39.8039 30.0876C41.8839 28.4872 43.1639 26.5667 43.4839 23.846C43.8039 22.0856 44.1239 20.1651 44.9239 18.5647C46.8439 14.2436 49.8839 12.4831 54.5239 12.9632C55.6439 12.9632 56.4438 13.9235 57.5638 13.7635C60.6038 15.2038 62.5238 17.7645 63.6438 20.8053C65.8838 27.2069 67.1638 33.7686 66.8438 40.4903C66.8438 41.2905 66.8439 42.0907 65.8839 42.2507C64.6039 38.2497 61.7238 35.369 58.8438 32.6483C56.6038 30.5677 53.8838 29.4475 50.8438 29.2874C48.7638 29.1274 46.8438 29.2874 45.2438 30.8878C44.6038 31.528 43.4839 32.4882 45.0839 33.4485C46.0439 36.6493 49.5639 39.37 53.0839 39.53C52.4439 38.5698 51.4839 38.2497 50.5239 37.7696C49.2439 36.9694 47.8039 36.3292 47.0039 35.0489C46.5239 34.4087 45.8838 33.6085 46.3638 32.8083C46.8438 32.0081 47.8039 32.1682 48.6039 32.3282C50.5239 32.6483 52.2839 33.2884 53.8839 34.4087C57.2439 36.6493 59.8039 39.53 61.7239 43.0509C61.7239 43.0509 61.5639 43.211 61.4039 43.371L61.7239 42.8909Z" fill="#D34D55"/>
<path d="M104.284 43.5312C105.244 47.8523 101.404 51.0531 97.8839 52.6535C95.3239 53.7738 92.7638 53.9339 90.0438 53.4537C85.0838 52.6535 80.1239 52.0134 75.4839 50.413C74.8439 50.2529 73.8839 50.2529 73.8839 49.1326C73.8839 48.1724 74.2039 47.2121 75.1639 46.8921C75.1639 46.8921 75.3239 46.8921 75.4839 46.732C79.9639 44.3848 84.6572 43.958 89.5639 45.4517C90.6839 45.7718 91.6438 46.2519 93.2438 46.4119C91.0038 44.1714 88.2839 43.5312 85.7239 42.571C87.4839 41.2906 90.6839 40.4904 96.2839 40.0103C96.2839 39.2101 95.3239 39.2101 95.0039 38.73C95.3239 37.9298 95.3239 37.9298 94.5239 37.6097C92.1239 36.8095 89.7239 36.9695 87.3239 37.2896C82.0439 38.2499 77.7239 40.9706 73.5639 44.1714C73.0839 43.5312 72.6039 43.0511 71.9639 42.4109C73.0839 42.4109 73.4039 41.4507 73.8839 40.8105C76.2839 36.9695 78.3638 32.8085 80.4438 28.6474C81.7238 26.0867 83.4839 23.8462 85.5639 22.0857C88.2839 19.6851 91.8039 20.3253 93.5639 23.5261C94.5239 25.2865 94.8439 27.207 94.6839 29.1275C94.3639 32.1683 95.4839 34.4089 97.8839 36.0093C100.924 37.7697 102.844 40.3304 104.284 43.5312Z" fill="#D34D55"/>
<path d="M43.4837 90.103C48.6037 93.784 53.4037 97.3049 58.3637 100.826C59.3237 101.466 58.6837 102.266 58.5237 102.906C57.0837 110.428 55.4836 117.95 54.0436 125.472C53.7236 126.752 53.5636 128.033 53.2436 129.473C51.8036 128.993 50.6837 128.193 49.5637 127.393C45.5637 124.512 41.7237 121.631 37.8837 118.75C36.9237 118.11 36.6037 117.47 36.9237 116.19C39.0037 107.547 41.8837 99.2254 43.4837 90.103Z" fill="#FAC4C7"/>
<path d="M54.8438 128.993C55.9637 123.391 57.0837 118.27 58.0438 112.989C58.8438 109.308 59.6438 105.787 60.2838 102.106C60.2838 101.306 60.6038 100.826 61.4038 100.506C66.6838 98.7452 71.9638 96.9847 77.4038 95.0642C76.7638 98.4251 76.1238 101.466 75.4838 104.667C74.3638 110.108 73.4038 115.549 72.4438 120.991C72.4438 121.631 72.4438 122.271 71.4838 122.591C66.0438 124.672 60.6037 126.592 54.8438 128.833V128.993Z" fill="#FAC4C7"/>
<path d="M60.2842 99.7057C61.5642 92.6639 63.4841 85.9422 64.4441 79.0604C64.4441 78.2602 65.0842 77.9401 65.8842 77.7801C71.4842 76.1797 77.2441 74.5793 82.8441 72.9789C84.4441 72.4988 84.7641 72.9789 84.4441 74.4192C83.3241 80.1807 82.2042 85.9422 81.0842 91.7037C81.0842 92.3438 80.6042 92.6639 80.1242 92.824C73.5642 95.0645 67.1641 97.3051 60.4441 99.7057H60.2842Z" fill="#FAC4C7"/>
<path d="M63.324 78.9002C63.164 79.7004 62.8439 80.5006 62.6839 81.3008C61.5639 86.5822 60.2839 91.8635 59.1639 97.1449C58.8439 98.4252 58.524 98.7453 57.404 97.9451C52.604 94.4242 47.9639 91.0633 43.1639 87.5424C42.5239 87.0623 42.204 86.7422 42.524 85.782C43.964 80.0205 45.244 74.099 46.524 68.1775C46.684 67.2172 46.844 66.7371 48.124 67.5373C52.924 70.8982 57.724 74.099 62.524 77.2998C63.004 77.6199 63.6439 77.7799 63.6439 78.5801L63.324 78.9002Z" fill="#FAC4C7"/>
<path d="M19.4835 72.9785C23.3235 75.3791 26.8435 78.2599 30.6835 80.8205C31.3235 81.3006 31.1635 81.6207 31.0035 82.2609C28.9235 90.7431 26.8435 99.3853 25.0835 107.867C25.0835 108.188 25.0834 108.828 24.4434 108.668C24.4434 108.348 24.4435 107.867 23.8035 108.188C24.2835 107.707 23.9635 107.227 23.8035 106.907C23.0035 106.107 22.3634 105.147 21.5634 104.347C19.4834 102.106 16.9234 100.346 15.1634 97.9449C14.5234 97.1447 13.8834 96.5045 14.0434 95.3842C14.8434 89.4627 15.8034 83.5412 17.5634 77.9398C18.0434 76.1793 18.2035 74.2588 19.8035 72.9785H19.4835Z" fill="#FAC4C7"/>
<path d="M48.2842 64.3367C50.5242 62.4162 53.2442 61.456 55.8042 60.0156C59.1642 58.2551 62.5242 56.8148 65.7242 54.7342C66.3642 54.2541 66.6842 54.4141 67.3242 54.8943C71.8042 59.6955 76.1242 64.4967 80.6042 69.298C75.8042 71.3785 70.6842 72.1787 65.8842 74.4193C65.2442 74.7394 64.9241 74.4193 64.4441 74.0992C61.4041 72.0186 58.3642 69.9381 55.1642 68.0176C52.9242 66.5773 51.0042 64.4967 48.2842 64.3367Z" fill="#FAC4C7"/>
<path d="M33.084 82.7412C35.964 84.6617 38.684 86.7422 41.564 88.6627C42.364 89.3029 42.2039 89.783 42.0439 90.5832C39.9639 98.7453 37.884 107.067 35.804 115.23C35.484 116.35 35.1639 116.83 34.0439 115.87C32.1239 114.269 30.044 112.829 28.124 111.389C29.084 109.148 29.084 106.587 29.404 104.187C30.684 96.9848 31.804 89.9431 33.084 82.7412Z" fill="#D34D55"/>
<path d="M87.0039 116.19C88.2839 110.428 89.4039 104.827 90.6839 99.0653C91.3239 96.3446 91.8039 93.784 92.2839 91.0633C92.2839 90.4231 92.4439 90.103 93.0839 89.783C96.1239 88.8227 99.1639 87.7024 102.364 86.7422C102.364 87.2223 102.364 87.7024 102.364 88.3426C101.084 94.7442 100.284 101.146 98.6839 107.387C98.3639 108.668 97.8839 109.468 96.7639 110.108C93.4039 112.029 90.0439 113.949 87.0039 116.35V116.19Z" fill="#FAC4C7"/>
<path d="M79.6438 94.4241C83.3238 93.1438 87.0038 91.8635 91.0038 90.4231C89.8838 95.7044 88.7638 100.506 87.8038 105.467C87.1638 109.148 85.8838 112.829 85.5638 116.51C85.5638 117.15 85.2438 117.31 84.7638 117.63C82.0438 118.59 79.4838 119.551 76.9238 120.511C77.5638 114.109 79.0038 108.028 79.8038 101.626C80.1238 99.2253 81.0838 96.8247 79.8038 94.4241H79.6438Z" fill="#D34D55"/>
<path d="M51.4842 50.413C50.2042 51.3732 48.7642 51.6933 47.3242 52.4935C46.8442 52.8136 46.2041 52.9737 46.0441 53.6138C45.2441 53.7739 44.2842 54.0939 44.6042 54.8941C44.9242 55.6943 45.8842 55.0542 46.3642 54.8941C51.4842 52.9736 56.7642 51.3732 62.2042 50.573C62.8442 50.573 63.9642 50.573 64.2842 49.6128C65.8842 50.7331 64.2842 50.7331 63.8042 50.8931C60.7642 51.8534 57.5642 52.8136 54.5242 54.0939C47.0042 57.2948 40.7641 62.256 35.6441 68.6577C35.6441 68.8177 35.3242 68.9777 35.0042 69.2978C34.2042 67.5374 34.2042 65.937 33.8842 64.1765C33.5642 61.9359 32.9242 61.1357 30.5242 61.4558C28.7642 61.6159 27.0041 61.9359 25.2441 62.096C30.8441 57.6148 36.7642 53.6138 43.9642 51.6933C45.5642 51.2132 47.1642 50.573 48.7642 50.0929C49.5642 49.9329 50.3642 50.0929 51.0042 50.0929L51.4842 50.413Z" fill="#D34D55"/>
<path d="M69.5635 52.9736C70.2035 52.8136 71.0035 52.8136 71.4835 52.3335C74.3635 49.7728 77.4035 51.6933 79.3235 53.1337C85.4035 57.2947 90.5235 62.5761 96.2835 67.6974C92.7635 68.8177 89.5635 69.7779 86.3635 70.5781C86.0435 70.098 85.8835 69.6179 85.5635 69.2978C80.6035 63.5363 75.0035 58.415 69.5635 52.9736Z" fill="#D34D55"/>
<path d="M20.2838 49.4526C23.1638 51.3731 26.0438 53.4537 29.0838 55.3742C26.8438 57.1346 24.7639 59.2151 23.3239 61.6158C23.0039 62.0959 22.6839 62.576 22.5239 63.0561C22.2039 63.6963 21.8839 64.1764 22.5239 64.8166C23.0039 65.2967 23.6439 64.8166 24.1239 64.8166C26.0439 63.8563 28.1239 63.5362 30.2039 63.3762C31.6439 63.2162 32.2838 63.3762 31.9638 65.1367C31.1638 68.9776 30.6838 72.8186 29.8838 76.8196C29.5638 75.5393 28.4438 74.7391 27.4838 73.9389C24.4438 71.3782 20.9239 69.4578 18.2039 66.7371C17.7239 66.2569 17.0838 65.7768 17.2438 64.8166C18.2038 59.6953 19.3238 54.574 20.2838 49.6127V49.4526Z" fill="#FAC4C7"/>
<path d="M34.3641 71.8584C35.3241 72.3385 35.8041 71.8584 36.4441 71.2182C42.2041 62.0959 50.8442 56.9746 60.9242 53.7738C62.2042 53.2936 63.6442 52.8135 64.9242 52.4934C65.5642 52.3334 66.5241 51.5332 66.8441 52.1734C67.1641 52.9736 65.8841 53.1336 65.4041 53.4537C61.2441 55.6942 56.9241 57.7748 52.7641 59.8553C51.1641 60.6555 49.7242 61.6158 48.1242 62.2559C46.2042 63.0561 45.2441 64.6565 44.7641 66.577C43.4841 71.3783 42.6841 76.4996 41.5641 81.3008C41.4041 82.101 41.0842 83.0612 40.9242 83.8615C39.9642 82.7412 39.1641 81.3008 37.8841 80.8207C33.4041 78.9002 33.0841 75.8594 34.6841 71.8584H34.3641Z" fill="#D34D55"/>
<path d="M97.0837 69.6177C96.6037 74.739 95.6437 79.7002 95.1637 84.6615C94.8437 87.3822 93.7237 88.3425 91.4837 88.8226C89.2437 89.3027 87.0037 90.2629 84.7637 91.0632C86.0437 85.6218 86.8437 80.0203 87.4837 74.4189C87.4837 73.2986 87.9637 72.8185 88.9237 72.4984C91.6437 71.5382 94.3637 70.5779 97.2437 69.6177H97.0837Z" fill="#D34D55"/>
<path d="M120.284 44.8115C119.324 46.732 118.364 48.6525 117.404 50.573C116.764 51.8533 117.084 52.4935 118.524 52.4935C120.124 52.4935 121.564 52.4935 123.324 52.4935C122.684 53.2937 121.724 53.6138 121.084 53.9339C117.084 56.0144 112.764 57.6148 108.284 58.255C106.524 58.575 104.764 58.415 103.004 57.9349C100.284 57.1347 97.7237 56.0144 94.8438 55.0541C96.2837 54.574 97.5638 54.2539 98.6838 53.7738C99.3238 53.4537 99.8038 53.7738 100.124 54.2539C101.724 55.3742 103.484 56.3345 105.724 56.3345C104.764 55.0541 103.164 54.8941 102.204 53.6138C104.924 53.4537 107.484 53.2937 109.724 52.3334C109.884 52.3334 111.164 52.1734 109.884 51.5332C110.044 51.2132 110.684 51.2132 110.684 50.733C110.684 50.413 110.204 50.413 109.884 50.413C107.804 50.413 105.564 50.413 103.484 50.413C103.484 49.7728 104.124 49.2927 104.444 48.8125C105.564 48.8125 106.524 48.4925 107.484 48.3324C111.804 47.2121 116.124 45.9318 120.284 44.8115Z" fill="#D34D55"/>
<path d="M96.7634 85.1418C97.4034 79.8605 98.0434 74.7391 98.6834 69.4578C98.6834 68.6576 99.1634 68.3375 99.8034 68.1775C102.843 67.3773 105.883 66.5771 108.763 65.7769C108.443 70.5781 107.643 75.3793 106.843 80.1805C106.843 80.6607 106.523 80.8207 106.043 80.9807C102.843 82.4211 99.6434 83.7014 96.4434 85.1418H96.7634Z" fill="#FAC4C7"/>
<path d="M111.003 63.6965C106.523 64.9768 102.363 66.0971 98.3634 67.2174C98.0434 67.2174 97.7234 67.3774 97.4034 67.0573C93.5634 62.2561 88.4434 58.5752 83.9634 54.4141C83.8034 54.4141 83.6434 54.094 83.4834 53.7739C88.9234 54.5741 94.0434 56.0145 99.0034 58.095C100.923 58.8952 103.003 59.5354 104.923 60.0155C107.163 60.6557 108.923 62.4161 111.163 63.6965H111.003Z" fill="#FAC4C7"/>
<path d="M104.283 43.5312C102.843 40.4904 100.923 37.9297 97.8833 36.0093C95.4833 34.5689 94.2033 32.1683 94.6833 29.1275C95.0033 27.207 94.5233 25.2865 93.5633 23.5261C91.8033 20.3252 88.2833 19.6851 85.5633 22.0857C83.4833 24.0062 81.7233 26.0867 80.4433 28.6474C78.3633 32.8084 76.2833 36.8095 73.8833 40.8105C73.4033 41.6107 73.0833 42.4109 71.9633 42.4109C71.6433 42.2508 71.4833 41.9308 71.8033 41.6107C74.5233 36.3293 76.4433 30.7279 79.6433 25.6066C80.6033 24.0062 81.7233 22.5658 82.8433 20.9654C84.7633 18.4047 87.1633 17.2845 90.3633 18.0847C93.7233 19.0449 95.8033 21.2855 96.6033 24.6463C96.7633 25.7666 96.9233 26.8869 96.7633 27.8472C96.2833 30.7279 97.5633 32.6484 99.8033 34.0888C102.203 35.8492 103.803 38.0898 104.283 40.9705C104.283 41.6107 104.283 42.4109 104.283 43.051V43.5312Z" fill="#F5F5F1"/>
<path d="M57.564 13.6035C56.444 13.7636 55.4841 12.9634 54.5241 12.8033C49.8841 12.3232 46.8441 13.9236 44.9241 18.4048C44.1241 20.1652 43.804 21.9256 43.484 23.6861C43.164 26.2468 41.8841 28.3273 39.8041 29.9277C38.0441 31.208 36.6041 32.8084 35.3241 34.5689C33.7241 36.6494 33.244 39.05 33.564 41.6107C33.884 43.8513 35.164 45.1316 37.244 45.7717C41.884 47.3722 46.684 47.8523 51.484 48.1724C51.164 48.3324 50.684 48.6525 50.364 48.8125C46.204 48.8125 41.884 49.1326 37.884 47.8523C37.084 47.6922 36.4441 47.3721 35.8041 47.0521C31.1641 44.8115 29.724 41.2906 31.644 36.4894C33.084 32.9685 35.324 30.0877 38.364 28.0072C41.084 26.2468 42.364 23.6861 42.684 20.4853C42.844 18.7248 43.324 16.8043 44.284 15.2039C46.844 10.5627 54.0441 9.6025 57.7241 13.6035H57.564Z" fill="#F5F5F1"/>
<path d="M19.4842 72.9787C17.8842 74.259 17.8841 76.1795 17.2441 77.94C15.6441 83.7015 14.5242 89.4629 13.7242 95.3844C13.7242 96.5047 14.2041 97.1449 14.8441 97.9451C16.6041 100.346 19.3241 102.106 21.2441 104.347C22.0441 105.147 22.6842 106.107 23.4842 106.907C23.8042 107.388 24.1242 107.708 23.4842 108.188C19.3242 105.307 15.3242 102.266 11.1642 99.3855C10.2042 98.7453 10.5242 97.9451 10.6842 97.1449C12.1242 89.783 13.5642 82.5812 15.0042 75.2193C15.1642 74.259 15.4842 73.2988 15.4842 72.1785C15.4842 70.258 16.2842 70.4181 17.5642 71.3783C18.0442 71.8584 18.5242 72.1785 19.0042 72.6586L19.4842 72.9787Z" fill="#F5F5F1"/>
<path d="M48.284 64.3364C51.164 64.4965 53.084 66.577 55.164 68.0174C58.204 69.9379 61.244 72.0184 64.444 74.0989C64.924 74.419 65.244 74.7391 65.884 74.419C70.684 72.1784 75.8041 71.3782 80.6041 69.2977C81.4041 69.7778 82.0441 70.418 82.5241 71.2182C82.2041 71.8584 81.724 71.6983 81.244 71.8583C76.124 73.2987 70.8441 74.7391 65.7241 76.3395C64.7641 76.6596 63.9641 76.6596 63.0041 76.0194C58.2041 72.8186 53.244 69.6178 48.284 66.417C47.164 65.6168 46.844 65.1366 48.284 64.3364Z" fill="#F5F5F1"/>
<path d="M20.2841 49.4527C19.3241 54.574 18.364 59.6953 17.244 64.6566C17.084 65.6168 17.5641 66.097 18.2041 66.5771C20.9241 69.4578 24.4441 71.2183 27.4841 73.7789C28.4441 74.5791 29.5641 75.2193 29.8841 76.6597C29.8841 77.4599 29.8841 78.1 28.6041 77.2998C24.1241 73.939 19.4841 70.7382 15.0041 67.3773C14.5241 67.0572 14.2041 66.7371 14.2041 65.9369C15.3241 59.8554 16.4441 53.7738 17.7241 47.5322C18.6841 47.8523 19.4841 48.4925 20.2841 49.1326V49.4527Z" fill="#F5F5F1"/>
<path d="M87.0042 116.19C90.0442 113.789 93.4041 111.869 96.7641 109.948C97.7241 109.308 98.3642 108.508 98.6842 107.228C100.124 100.986 101.084 94.5843 102.364 88.1827C102.364 87.7025 102.364 87.2224 102.364 86.5823C103.164 85.9421 104.124 85.462 105.404 85.7821C103.644 93.6241 101.724 101.466 100.124 109.308C99.6442 111.229 99.0042 112.189 97.0842 112.829C93.8842 113.949 90.8441 115.23 87.6441 116.51C87.3241 116.51 86.5242 117.31 87.0042 116.03V116.19Z" fill="#F5F5F1"/>
<path d="M22.204 45.7717C24.284 44.9715 26.3639 44.3313 28.4439 43.5311C28.9239 43.371 29.404 43.211 29.724 43.8512C31.484 47.052 34.524 48.6524 37.884 49.6126C38.044 49.6126 38.364 49.7727 38.684 50.0928C36.284 51.213 34.044 52.3333 31.804 53.4536C31.804 52.4934 31.004 52.0133 30.364 51.5331C27.644 49.6126 24.4439 48.1723 22.0439 45.7717H22.204Z" fill="#FAC4C7"/>
<path d="M96.7637 85.1417C99.9637 83.7013 103.164 82.2609 106.364 80.9806C106.684 80.8206 107.004 80.6605 107.164 80.1804C107.804 75.3792 108.764 70.5779 109.084 65.7767C109.564 65.6167 109.884 65.4566 110.364 65.2966C111.484 64.9765 111.804 65.2966 111.644 66.4169C110.844 71.5382 110.044 76.8195 109.244 81.9409C109.244 82.581 108.924 82.9011 108.284 83.2212C104.764 84.6616 101.244 85.7818 97.7237 87.0622C97.4037 87.0622 96.9237 87.3822 96.7637 87.0622C96.6037 86.422 96.6037 85.7818 97.0837 85.3017L96.7637 85.1417Z" fill="#F5F5F1"/>
<path d="M45.2441 33.2884C43.6441 32.3281 44.7642 31.3679 45.4042 30.7277C47.0042 29.2873 48.9242 28.9673 51.0042 29.1273C54.0442 29.4474 56.7642 30.4076 59.0042 32.4882C61.8842 35.2088 64.7641 38.0896 66.0441 42.0906C65.0841 43.691 64.4442 43.3709 63.4842 41.9306C61.5642 38.7298 59.3241 36.0091 56.4441 33.7685C54.3641 32.1681 51.9642 31.0478 49.4042 30.5677C46.8442 30.0875 45.7241 30.8877 45.2441 33.1283V33.2884Z" fill="#F5F5F1"/>
<path d="M69.5638 52.9736C75.0038 58.415 80.4438 63.5363 85.5638 69.2978C85.8838 69.6179 86.0438 70.098 86.3638 70.5781C85.2438 71.3783 84.4438 71.0583 83.4838 70.098C78.3638 65.1367 73.7238 59.8554 68.7638 54.8941C68.4438 54.574 67.6438 54.254 67.9638 53.6138C68.2838 52.9736 68.9238 52.9736 69.5638 53.1337V52.9736Z" fill="#F5F5F1"/>
<path d="M79.6438 94.4241C80.9238 96.8247 79.8038 99.2253 79.6438 101.626C78.8438 107.868 77.4038 114.109 76.7638 120.511C75.9638 120.991 75.0038 121.311 73.8838 121.631C74.5238 118.75 75.0038 116.03 75.4838 113.149C76.6038 107.547 77.5638 101.946 78.6838 96.3446C78.6838 95.7044 78.6838 94.7442 79.6438 94.4241Z" fill="#F5F5F1"/>
<path d="M97.0834 69.6176C94.3634 70.5779 91.6434 71.5381 88.7634 72.4984C87.8034 72.8185 87.4834 73.2986 87.3234 74.4189C86.6834 80.0203 85.8834 85.6217 84.6034 91.0631C83.9634 91.3832 83.3234 91.7033 82.5234 91.7033C82.5234 89.9428 83.0034 88.3424 83.3234 86.742C84.1234 82.1008 85.0834 77.6197 85.8834 72.9785C85.8834 72.3383 86.2034 71.8582 86.8434 71.6982C90.0434 70.898 93.0834 69.9377 96.2834 68.9775C96.7634 68.9775 97.4034 68.6574 97.0834 69.6176Z" fill="#F5F5F1"/>
<path d="M33.0839 82.7412C31.8039 89.943 30.6839 96.9848 29.4039 104.187C28.9239 106.587 29.0839 109.148 28.1239 111.389C26.8439 110.748 26.2039 110.108 26.5239 108.348C28.1239 99.8656 30.5239 91.5434 31.9639 83.0613C32.1239 81.941 32.6039 81.941 33.2439 82.7412H33.0839Z" fill="#F5F5F1"/>
<path d="M49.0836 50.5729C47.4836 51.053 45.8836 51.6932 44.2836 52.1733C37.2436 54.0938 31.1636 57.9348 25.5636 62.576C25.2436 62.576 24.7636 62.8961 24.7636 62.8961C24.2836 62.576 24.7636 62.2559 25.0836 61.9358C28.4436 57.2946 32.9236 54.2539 38.0436 52.1733C41.7236 50.733 45.4036 50.0928 49.2436 50.5729H49.0836Z" fill="#F5F5F1"/>
<path d="M73.5635 44.1713C77.7235 40.9705 82.0435 38.0898 87.3235 37.2896C89.7235 36.8095 92.1235 36.8095 94.5235 37.6097C95.3235 37.9297 95.3235 37.9297 95.0035 38.7299C90.6835 38.4099 86.6835 39.5302 82.8435 41.1306C80.1235 42.2508 77.2435 43.3711 74.8435 44.9715C73.7235 45.6117 73.7235 44.9715 73.7235 44.1713H73.5635Z" fill="#F5F5F1"/>
<path d="M34.3643 71.8584C32.7643 75.8594 33.2443 78.9002 37.5643 80.8207C38.8443 81.4608 39.8043 82.7411 40.6043 83.8614C40.6043 84.9817 40.2843 85.7819 39.0043 84.6616C36.7643 82.9012 34.5243 81.3008 32.1243 79.7004C31.3243 79.2202 31.0043 78.5801 31.4843 77.7799C32.6043 75.2192 32.7643 72.4985 33.5643 69.7778C34.2043 70.258 34.2043 71.0582 34.5243 71.6983L34.3643 71.8584Z" fill="#F5F5F1"/>
<path d="M22.2034 45.7715C24.6034 48.1721 27.8034 49.4524 30.5234 51.533C31.1634 52.0131 31.9634 52.4932 31.9634 53.4534C31.0034 54.4137 30.2034 54.4137 29.0834 53.4534C26.0434 51.2129 22.8434 48.9723 19.4834 46.7317C20.4434 46.0916 21.4034 45.9315 22.3634 45.7715H22.2034Z" fill="#F5F5F1"/>
<path d="M72.2839 46.5719C72.7639 48.1723 72.924 49.6127 71.324 50.5729C70.204 51.3731 68.9239 51.3731 67.9639 50.4129C67.9639 49.7727 67.8039 49.1325 67.6439 48.4924C67.6439 47.3721 67.3239 46.0917 68.4439 45.2915C69.7239 44.4913 70.5239 45.6116 71.4839 46.2518C71.6439 46.2518 71.964 46.2518 72.124 46.4118L72.2839 46.5719Z" fill="#D34D55"/>
<path d="M64.4433 49.9326C63.9633 50.8929 63.0034 50.7328 62.3634 50.8929C56.9234 51.6931 51.6434 53.2935 46.5234 55.214C45.8834 55.374 45.0834 56.1742 44.7634 55.214C44.4434 54.2537 45.4034 54.0937 46.2034 53.9336C46.5234 54.2537 47.0034 53.9336 47.3234 53.9336C52.7634 51.2129 58.6834 50.0927 64.7634 50.0927L64.4433 49.9326Z" fill="#F5F5F1"/>
<path d="M120.283 44.8117C115.963 45.932 111.643 47.2123 107.483 48.3326C106.523 48.6527 105.563 48.9727 104.443 48.8127C104.603 47.5324 105.403 47.2123 106.523 46.8922C110.523 45.932 114.523 44.8117 118.683 44.1715C119.963 44.0115 120.123 44.0115 120.283 44.8117Z" fill="#F5F5F1"/>
<path d="M72.2837 46.5718C72.1237 46.5718 71.8037 46.5718 71.6437 46.4118C70.6837 45.7716 69.8837 44.8114 68.6037 45.4515C67.4837 46.0917 67.8037 47.5321 67.8037 48.6524C67.8037 49.2925 67.8037 49.9327 68.1237 50.5729C66.3637 49.4526 65.4037 47.212 66.0437 45.4515C66.6837 44.0112 67.8037 43.211 69.4037 43.371C71.1637 43.6911 72.4437 44.6513 72.4437 46.7319L72.2837 46.5718Z" fill="#F5F5F1"/>
<path d="M68.6036 36.0093C69.0836 36.1693 69.2436 36.1693 69.4036 36.3294C72.4436 37.7697 72.4435 37.7697 70.8435 40.8105C70.5235 41.4507 70.2036 41.7708 69.4036 41.6107C68.6036 41.4507 68.4436 40.9705 68.6036 40.3304C68.6036 39.0501 68.6036 37.6097 68.6036 36.1693V36.0093Z" fill="#FAC4C7"/>
<path d="M103.644 50.5728C105.724 50.5728 107.964 50.5728 110.044 50.5728C110.364 50.5728 110.844 50.5727 110.844 50.8928C110.844 51.373 110.364 51.373 110.044 51.693C107.484 51.693 104.764 52.3332 102.204 51.8531C102.204 51.2129 102.684 51.0529 103.004 50.8928C103.164 50.8928 103.484 50.8928 103.484 50.5728H103.644Z" fill="#CEC8C8"/>
<path d="M50.2041 48.8123C50.5241 48.6523 51.0041 48.3322 51.3241 48.1721C53.4041 48.1721 55.4841 47.692 57.5641 48.4922C55.1641 48.8123 52.6041 48.9724 50.2041 48.8123Z" fill="#CEC8C8"/>
<path d="M51.4842 50.573C51.4842 50.573 51.8042 50.413 51.8042 50.2529C51.8042 50.573 51.4842 50.2529 51.3242 50.413L51.4842 50.573Z" fill="#D34D55"/>
<path d="M23.9639 108.348C24.4439 108.028 24.4439 108.348 24.6039 108.828C24.4439 108.828 24.1239 108.508 23.9639 108.348Z" fill="#F5F5F1"/>
<path d="M61.8835 42.731C61.8835 42.731 62.2035 43.051 61.8835 43.2111C61.8835 43.2111 61.7235 43.2111 61.5635 43.051C61.5635 43.051 61.7235 42.891 61.8835 42.731Z" fill="#D34D55"/>
<path d="M103.644 50.4131C103.644 50.7332 103.324 50.7332 103.164 50.7332C103.164 50.5731 103.484 50.4131 103.644 50.4131Z" fill="#D34D55"/>
</svg>
