<svg width="209" height="99" viewBox="0 0 209 99" fill="none" xmlns="http://www.w3.org/2000/svg">
<path d="M95.3205 0.734215C122.841 0.734215 150.361 0.734215 178.041 0.734215C180.921 0.734215 183.8 0.574174 186.68 0.734215C191 1.0543 193.881 3.61495 194.841 7.77602C199.641 29.2215 203.641 50.667 208.121 72.2725C208.601 74.5131 208.921 76.9137 208.921 79.3143C208.921 82.035 207.801 83.7955 205.241 84.7557C203.321 85.3959 201.56 85.876 199.48 86.036C192.6 86.1961 185.881 86.8362 179.001 86.6762C178.201 86.6762 177.881 86.9963 177.401 87.6364C171.481 98.9993 155.961 102.68 145.401 91.3174C144.761 90.6772 144.121 90.0371 143.961 89.2368C143.321 87.1563 142.041 86.9963 140.121 86.9963C123.001 86.9963 105.721 86.9963 88.6005 86.6762C85.0805 86.6762 82.5205 86.9963 80.2805 90.1971C77.5605 94.0381 73.7205 96.5987 68.9205 97.879C61.5605 99.7995 55.9606 96.7588 51.1606 91.7975C50.2006 90.8372 49.4005 89.717 48.9205 88.4366C48.4405 86.9963 47.4806 86.9963 46.3606 86.9963C37.0806 86.9963 27.9605 87.1563 18.6805 87.1563C14.0405 87.1563 9.40056 87.1563 4.76056 86.6762C1.40056 86.3561 0.440544 85.0758 0.440544 81.7149C0.440544 64.2705 0.440544 46.826 0.440544 29.3815C0.440544 22.9799 0.760544 16.4182 0.440544 10.0166C0.120544 5.69549 2.52049 2.97478 6.68049 1.8545C8.44049 1.37437 10.3605 1.21434 12.1205 1.21434C40.1205 1.21434 67.9606 1.21434 95.9606 1.21434C95.9606 1.21434 95.9606 0.894256 95.9606 0.734215H95.3205ZM115.801 85.2358C115.961 85.5559 116.281 85.876 116.761 85.3959C119.801 86.8362 120.12 83.3153 121.88 82.3551C122.52 83.6354 120.92 84.2756 121.08 85.3959H124.441C124.761 85.7159 124.921 85.876 125.241 85.3959C131.001 85.3959 136.92 85.5559 142.68 85.3959C143.48 85.3959 143.961 85.0758 144.441 84.4356C145.241 82.8352 145.401 82.8352 146.361 82.5151C146.201 84.7557 143 86.6762 145.88 89.0768C146.84 88.4366 147.001 87.1563 148.121 86.6762C148.441 87.6364 147.8 88.4366 147.48 89.0768C146.84 90.037 147.001 90.6772 147.801 91.4774C149.721 93.3979 152.28 94.5182 154.68 95.4784C162.36 98.5192 172.281 94.6782 175.961 87.1563C176.601 85.876 177.241 85.5559 178.521 85.5559C180.441 85.5559 182.361 85.5559 183.321 83.1553C183.641 82.3551 184.441 81.7149 185.401 81.3948C185.081 82.8352 183.641 83.6354 183.321 84.7557C186.841 86.3561 188.121 82.9952 190.361 81.0748C190.361 82.8352 189.081 83.4754 188.921 84.1155C193.401 84.1155 197.881 84.1155 202.361 84.1155C205.561 84.1155 207.641 81.3948 207.001 78.194C206.201 73.2327 205.08 68.4315 204.28 63.6303C200.76 45.5457 197.4 27.4611 193.88 9.37643C193.08 5.21536 190.84 3.13482 186.68 2.6547C183 2.17458 179.161 2.17459 175.321 2.17459C155.321 2.17459 135.48 2.17459 115.48 2.17459C85.2405 2.17459 55.1605 2.33462 24.9205 2.49466C23.9605 2.49466 22.8406 2.33463 22.3606 3.61496C22.2006 4.09508 22.0405 5.3754 21.4005 5.05532C20.6005 4.57519 21.5605 3.77499 21.7205 3.13483C21.7205 2.97479 21.7205 2.81474 21.7205 2.6547C19.9605 2.17458 18.6805 2.65471 17.8805 4.41516C17.7205 4.73524 17.5605 5.05532 17.2405 5.3754C17.2405 5.53545 17.2405 6.01556 16.6005 5.69548C16.2805 5.53544 16.2805 5.21536 16.4405 4.89528C16.7605 4.09507 17.5605 3.61495 17.7205 2.49466C17.2405 2.49466 16.6005 2.49466 16.1205 2.49466C14.5205 2.17458 13.4006 2.81475 12.7606 4.41516C12.2806 5.37541 11.8005 6.49569 10.6805 7.13585C10.6805 5.21536 12.2806 4.09507 12.7606 2.49466C10.5206 1.69446 9.08056 2.33462 7.96056 4.25511C7.16056 5.85552 6.36052 7.45594 4.92052 8.57622C4.92052 6.33565 6.68054 4.73524 7.64054 2.97479C7.64054 2.97479 7.64054 2.6547 7.64054 2.49466C7.64054 2.49466 7.32056 2.49466 7.16056 2.49466C2.84056 3.61495 1.24052 5.3754 0.920524 9.85654C0.920524 11.9371 0.760563 14.0176 0.760563 16.2582C0.760563 37.5436 0.920485 58.669 1.08049 79.9545C1.08049 80.4346 1.08049 80.9147 1.08049 81.5549C0.760485 83.7955 1.5605 84.7557 3.8005 85.0758C7.8005 85.3959 11.6405 85.716 15.6405 85.716C19.1605 85.716 22.6805 85.5559 26.2005 85.5559C27.1605 85.5559 27.6405 85.2358 28.2805 84.5956C29.2405 83.6354 29.8805 82.3551 31.6405 81.875C31.1605 83.3153 29.7206 83.9555 29.5606 85.2358C32.6006 86.3561 34.5205 84.7557 36.2805 82.6752C37.0805 83.9555 35.8005 84.4356 35.8005 85.2358C39.4805 85.2358 43.3205 85.2358 47.0005 85.2358C48.1205 85.2358 48.9205 85.3959 49.4005 86.8362C51.3205 91.9575 58.3605 96.7588 63.8005 96.7588C70.2005 96.7588 75.1605 93.5579 78.8405 88.5967C80.6005 86.3561 82.2005 85.0758 85.0805 85.5559C86.0405 85.7159 86.8406 85.5559 87.1606 84.2756C87.1606 83.4754 88.1205 82.035 88.6005 82.3551C89.7205 82.9952 88.2806 83.9555 87.9606 84.7557C87.9606 84.9157 87.9606 85.0758 87.9606 85.2358C90.8406 86.5162 90.8405 83.3153 92.2805 82.3551C92.9205 83.6354 91.4805 84.4356 91.6405 85.5559C99.3205 85.5559 107 85.5559 114.68 85.5559C115 85.5559 115.32 85.3959 115.48 85.2358H115.801Z" fill="#141111"/>
<path d="M7.96025 3.13505C7.00025 4.8955 5.40023 6.49591 5.24023 8.73648C6.52023 7.45615 7.48018 5.85575 8.28018 4.41538C9.40018 2.33485 10.8402 1.85471 13.0802 2.65492C12.6002 4.25533 11.1602 5.37562 11.0002 7.29611C12.1202 6.65595 12.6002 5.53566 13.0802 4.57542C13.7202 2.97501 14.6802 2.33484 16.4402 2.65492C16.9202 2.65492 17.4002 2.65492 18.0402 2.65492C18.0402 3.61517 17.0803 4.25533 16.7603 5.05553C16.7603 5.37562 16.6002 5.6957 16.9202 5.85574C17.4002 6.17582 17.4003 5.6957 17.5603 5.53566C17.8803 5.21558 18.0402 4.8955 18.2002 4.57542C19.0002 2.97501 20.1202 2.33485 22.0402 2.81497C22.0402 2.81497 22.0402 3.13504 22.0402 3.29509C21.8802 3.93525 20.7602 4.73546 21.7202 5.21558C22.3602 5.53567 22.5202 4.25534 22.6802 3.77521C23.1602 2.49489 24.2802 2.65492 25.2402 2.65492C55.4802 2.65492 85.5602 2.33484 115.8 2.33484C135.8 2.33484 155.64 2.33484 175.64 2.33484C179.48 2.33484 183.16 2.33485 187 2.81497C191.16 3.29509 193.4 5.37562 194.2 9.53668C197.72 27.6213 201.08 45.7059 204.6 63.7906C205.56 68.5918 206.52 73.5531 207.32 78.3543C207.8 81.5551 205.88 84.1158 202.68 84.2758C198.2 84.2758 193.72 84.2758 189.24 84.2758C189.24 83.6356 190.68 82.9955 190.68 81.235C188.44 82.9955 187.16 86.5164 183.64 84.916C184.12 83.7957 185.4 82.9955 185.72 81.5551C184.76 81.7151 183.96 82.5154 183.64 83.3156C182.68 85.5561 180.76 85.7162 178.84 85.7162C177.56 85.7162 176.92 86.1963 176.28 87.3166C172.6 94.6785 162.68 98.5194 155 95.6387C152.44 94.6785 150.04 93.5582 148.12 91.6377C147.32 90.8375 147.16 90.1973 147.8 89.2371C148.28 88.5969 148.76 87.7967 148.44 86.8365C147.16 87.3166 147.16 88.7569 146.2 89.2371C143.32 86.8365 146.52 84.916 146.68 82.6754C145.72 82.9955 145.56 82.9955 144.76 84.5959C144.28 85.3961 143.96 85.5561 143 85.5561C137.24 85.7162 131.32 85.7162 125.56 85.5561C125.56 85.3961 125.88 85.076 125.88 84.916C126.2 84.1158 127 83.6356 126.52 82.6754C126.52 82.3553 126.04 82.3553 125.88 82.6754C125.24 83.3155 124.6 83.9557 124.6 84.916C124.6 85.2361 124.6 85.3961 124.6 85.7162H121.24C121.24 84.5959 122.68 83.9557 122.04 82.6754C120.28 83.4756 119.96 87.1565 116.92 85.7162C116.92 85.7162 116.92 85.5561 116.92 85.3961C117.56 84.2758 118.52 83.3156 118.36 81.5551C117.24 82.8354 116.12 83.9557 115.96 85.5561C115.64 85.5561 115.32 85.8762 115.16 85.8762C107.48 85.8762 99.8002 85.8762 92.1202 85.8762C92.1202 84.7559 93.4003 84.1158 92.7603 82.6754C91.3203 83.6356 91.3202 86.8365 88.4402 85.5561C88.4402 85.3961 88.4402 85.236 88.4402 85.076C88.7602 84.2758 90.0402 83.4756 89.0802 82.6754C88.6002 82.3553 87.8002 83.7957 87.6402 84.5959C87.3202 85.8762 86.5203 86.0362 85.5603 85.8762C82.6803 85.236 81.0802 86.5164 79.3202 88.917C75.6402 93.8783 70.6802 97.0791 64.2802 97.0791C58.8402 97.0791 51.8002 92.2778 49.8802 87.1565C49.4002 85.7162 48.6002 85.5561 47.4802 85.5561C43.8002 85.5561 40.1202 85.5561 36.2802 85.5561C36.2802 84.7559 37.5603 84.2758 36.7603 82.9955C35.0003 85.076 33.0802 86.6764 30.0402 85.5561C30.0402 84.2758 31.6402 83.7957 32.1202 82.1953C30.5202 82.6754 29.7203 83.9557 28.7603 84.916C28.1203 85.5561 27.4802 85.8762 26.6802 85.8762C23.1602 85.8762 19.6402 86.1963 16.1202 86.0363C12.1202 86.0363 8.28018 85.7162 4.28018 85.3961C2.04018 85.236 1.40025 84.1158 1.56025 81.8752C1.56025 81.3951 1.56025 80.9149 1.56025 80.2748C1.56025 58.9893 1.24023 37.8639 1.24023 16.5785C1.24023 14.498 1.2402 12.4174 1.4002 10.1769C1.7202 5.6957 3.16023 3.93526 7.64023 2.81497L7.96025 3.13505ZM21.2402 6.17583C21.2402 6.17583 21.4002 5.85574 21.2402 5.6957C20.7602 5.6957 20.9202 6.01578 20.9202 6.33587C20.9202 6.33587 20.9202 6.33586 21.0802 6.4959C21.0802 6.4959 21.2402 6.17583 21.4002 6.17583H21.2402ZM55.6402 82.0352C55.8002 82.9955 56.6002 83.4756 57.0802 84.1158C57.4002 84.916 57.8802 84.916 58.5202 84.5959C57.8802 85.236 58.5202 85.5561 59.0002 85.8762C59.8002 86.3563 60.6002 86.9965 61.7202 87.1565C65.4002 88.7569 69.0802 88.1168 72.4402 86.1963C72.7602 86.0362 73.4002 85.8762 72.9202 85.236C73.4002 85.7162 73.5602 85.236 73.8802 85.076C75.8002 83.4756 77.2402 81.3951 77.7202 78.8344C77.8802 77.7141 78.3602 77.394 79.4802 77.394C83.3202 77.394 87.3203 77.394 91.1603 77.394C91.8003 77.394 92.4402 77.394 92.2802 78.3543C92.1202 79.7947 92.9202 80.1147 94.2002 80.1147C100.44 80.1147 106.52 80.2748 112.76 80.4348C119.32 80.4348 125.88 80.4348 132.28 80.4348C133.4 80.4348 134.68 80.4348 134.68 78.8344C134.68 77.5541 135.32 77.7141 136.12 77.8742C140.12 78.1942 143.96 78.3543 147.96 78.0342C149.24 78.0342 149.56 78.3543 150.04 79.4746C151.64 84.4358 155.8 87.6366 161.08 87.7967C166.36 88.1168 171.16 85.076 172.92 80.4348C173.56 78.5143 174.36 77.5541 176.44 78.0342H176.76C177.72 78.0342 178.2 78.0342 178.2 79.1545C178.2 79.9547 178.52 80.2748 179.48 80.2748C182.04 80.1147 184.76 79.7947 187.32 79.6346C188.12 79.6346 188.76 79.1545 188.76 78.3543C188.76 76.7539 190.04 76.7539 191 76.9139C194.2 77.074 194.36 77.074 194.84 73.7131C194.84 72.9129 194.84 72.1127 194.84 71.1524C194.84 70.5123 194.84 70.1922 195.48 70.0322C197.4 69.392 197.56 67.7916 197.4 66.1912C197.4 64.5908 197.08 62.8303 196.44 61.2299C196.12 60.2697 196.12 59.3094 195.64 58.5092C195 57.549 193.88 58.1891 192.76 57.869C193.08 57.549 193.24 57.3889 193.4 57.3889C194.84 56.7487 195 55.4684 194.84 54.1881C194.68 52.9078 194.04 52.1076 192.44 52.2676C191.48 52.2676 191.64 51.4674 191.64 51.1473C190.2 42.8252 188.44 34.5031 186.84 26.1809C186.04 22.1799 185.56 18.1789 184.44 14.1779C183.96 12.2574 183 10.657 180.76 10.3369C179.48 10.1768 178.36 9.85676 176.92 9.85676C160.28 9.85676 143.48 9.85676 126.84 9.85676C126.36 9.85676 125.88 9.85676 125.24 9.85676C124.76 9.85676 124.92 10.3369 125.08 10.4969C121.72 9.85676 118.2 10.0168 114.84 10.4969C114.84 9.05656 113.88 9.69672 113.4 9.69672C98.2002 9.69672 82.8402 9.69673 67.6402 9.37665C50.5202 9.05656 33.5602 9.05656 16.4402 9.37665C14.2002 9.37665 13.0802 10.1768 12.2802 12.8975C11.3202 16.5785 11.3203 20.2594 11.1603 23.9404C10.6803 35.6234 10.3602 47.4664 10.0402 59.1494C10.0402 63.9506 9.88018 68.7518 9.88018 73.5531C9.88018 76.5938 10.6802 77.394 13.7202 77.394C15.8002 77.394 17.8802 77.394 19.8002 77.394C30.3602 77.394 41.0802 77.5541 51.6402 77.5541C52.9202 77.5541 53.7202 77.7141 54.0402 79.1545C54.0402 79.7947 54.2002 80.2748 54.5202 80.7549C54.6802 81.075 54.8403 81.3951 55.1603 81.7152L55.6402 82.0352Z" fill="#FAFAFA"/>
<path d="M124.44 85.5558C124.44 85.2357 124.44 85.0757 124.44 84.7556C124.44 83.7954 125.08 83.1552 125.72 82.5151C125.88 82.355 126.2 82.355 126.36 82.5151C126.84 83.4753 126.04 83.9554 125.72 84.7556C125.72 84.9157 125.4 85.2357 125.4 85.3958C125.08 85.8759 124.92 85.7158 124.6 85.3958L124.44 85.5558Z" fill="#5F6060"/>
<path d="M115.801 85.2358C116.121 85.2358 116.441 85.2358 116.761 85.2358C116.761 85.2358 116.761 85.3959 116.761 85.5559C116.281 86.036 116.121 85.7159 115.801 85.3959V85.2358Z" fill="#5F6060"/>
<path d="M7.64062 2.8147C7.64062 2.8147 7.96061 2.8147 8.12061 2.8147C8.12061 2.8147 8.12061 3.13477 8.12061 3.29481L7.80059 2.97474L7.64062 2.8147Z" fill="#FAFAFA"/>
<path d="M115.481 10.6568C118.841 10.1767 122.361 10.0167 125.721 10.6568C132.601 10.6568 139.321 10.9769 146.201 10.9769C155.321 10.9769 164.281 10.9769 173.241 10.9769C173.241 14.1778 171.001 13.6976 169.081 13.6976C168.601 13.6976 168.121 13.6976 167.481 13.6976C141.401 13.6976 115.481 13.5376 89.4013 13.3776C88.7613 13.3776 88.2813 13.3776 87.6413 13.3776C87.3213 13.3776 87.0013 13.5376 87.0013 13.8577C87.0013 14.1777 87.3213 14.3378 87.6413 14.3378C87.9613 14.3378 88.4413 14.3378 88.7613 14.3378C93.8813 14.3378 98.8413 14.3378 103.961 14.3378C126.041 14.3378 148.121 14.3378 170.041 14.6579C170.841 14.6579 171.641 14.3378 172.281 14.978C171.641 15.6181 171.001 15.298 170.361 15.298C167.801 15.298 165.241 15.138 162.681 15.138C160.441 15.138 159.801 15.9382 159.801 18.1788C159.801 23.9403 159.641 29.5417 159.641 35.3032C159.641 37.2236 159.641 39.3042 160.281 41.2247C160.761 43.1452 161.721 44.2655 163.961 44.4255C170.841 44.9056 177.561 44.1054 184.441 44.2654C186.201 44.2654 186.681 43.1452 186.361 41.7048C185.561 37.0636 184.921 32.4224 183.321 27.9413C182.521 25.8607 182.041 23.7802 182.361 21.5396C182.361 20.2593 182.361 18.979 180.761 18.4989C179.481 18.0187 180.281 16.8984 180.121 15.9382C180.121 15.6181 180.121 15.138 180.441 14.978C181.881 14.3378 183.641 15.298 183.801 16.8984C185.561 27.6212 188.121 38.1839 189.721 48.9066C190.841 56.2685 192.921 63.6304 193.081 71.1523C193.081 74.6732 193.241 74.6732 189.881 74.9933C189.561 74.9933 189.081 74.9933 188.761 74.9933C185.241 75.3134 181.561 75.6335 178.041 75.9535C177.401 75.9535 176.761 76.2736 176.921 75.1533C177.241 69.0718 175.161 65.5509 169.561 62.9902C168.601 62.5101 167.481 62.03 166.521 61.7099C166.841 61.3898 167.161 61.3898 167.481 61.3898C174.041 61.3898 180.601 61.3898 187.161 61.3898C188.441 61.3898 189.721 61.2298 188.601 59.4693C189.081 57.7089 188.601 57.2288 186.841 57.2288C180.601 57.2288 174.201 57.3888 167.961 57.8689C160.761 58.349 153.401 58.3491 146.201 58.5091C144.921 58.5091 144.601 58.189 144.601 56.9087C144.601 52.2675 144.601 47.4663 144.601 42.8251C145.721 43.7853 147.161 43.9454 148.601 43.9454C150.041 43.9454 151.481 43.9454 152.921 43.9454C157.561 44.2654 158.681 43.1452 158.681 38.504C158.681 32.2624 158.681 26.1808 158.681 19.9392C158.681 16.7384 157.881 15.9382 154.841 15.9382C151.961 15.9382 149.081 15.9382 146.201 16.2583C144.761 16.2583 143.801 17.2185 143.801 18.6589C143.801 26.1808 143.481 33.8628 143.961 41.3847C142.361 41.8648 143.321 43.3052 142.841 44.2654C142.521 43.4652 142.681 42.665 142.681 41.8648C142.681 34.5029 142.521 27.1411 142.361 19.7792C142.361 18.1788 141.881 17.6987 140.281 17.6987C133.241 17.6987 126.361 17.6987 119.321 17.6987C118.041 17.6987 117.881 18.1788 117.881 19.2991C117.881 22.4999 117.881 25.8607 117.881 29.0616C117.881 38.664 117.881 48.1064 117.881 57.7089C104.121 57.7089 90.5213 58.029 76.7613 58.029C73.0813 58.029 69.4013 57.8689 65.7213 58.029C58.5213 58.6691 51.4813 58.029 44.2813 58.349C43.4813 58.349 43.0013 58.029 43.0013 57.2288C42.6813 52.7476 42.5213 48.2665 42.6813 43.6253C44.9213 45.2257 47.6413 45.0656 50.2013 45.0656C58.3613 45.0656 66.3613 44.2654 74.5213 44.2654C78.2013 44.2654 79.4813 42.9851 79.3213 39.3042C79.3213 32.5825 79.8013 25.8607 79.3213 18.979C79.3213 17.0585 78.5213 16.5784 76.7613 16.5784C66.3613 16.5784 56.1213 16.5784 45.7213 16.5784C42.5213 16.5784 41.7213 17.3786 41.7213 20.5794C41.7213 27.1411 41.7213 33.7027 42.0413 40.2644H41.4013C41.4013 38.0238 41.0813 35.9433 41.0813 33.7027C41.0813 28.7415 41.0813 23.7802 41.0813 18.979C41.0813 18.0187 41.0813 17.2185 39.8013 17.2185C33.0813 17.2185 26.3613 17.2185 19.6413 17.3786C17.8813 17.3786 17.4013 18.1788 17.4013 19.7792C17.4013 28.7415 17.4013 37.7038 17.4013 46.6661C17.4013 55.6283 17.7213 64.7507 17.2413 73.713C15.6413 73.5529 13.8813 73.873 12.2812 74.0331C12.2812 73.5529 12.2812 73.0728 12.2812 72.7527C12.2812 63.6304 12.2813 54.348 12.7613 45.2257C13.2413 35.6232 13.0813 26.0208 13.8813 16.5784C13.8813 15.138 14.2013 14.6579 15.8013 14.6579C37.4013 14.6579 59.1613 14.6579 80.7613 14.6579C82.6813 14.6579 84.6013 14.4978 86.5213 14.3378C86.8413 14.3378 87.1613 14.3378 87.3213 14.0177C87.3213 13.6976 87.0013 13.5376 86.6813 13.5376C86.2013 13.5376 85.7213 13.5376 85.4013 13.5376C62.5213 13.5376 39.8013 13.5376 16.9213 13.5376C16.1213 13.5376 15.0013 14.1777 14.8413 13.0575C14.6813 12.2573 15.4813 11.4571 16.2813 10.9769C16.6013 10.8169 16.9213 10.6569 17.0813 10.4968C22.3613 10.4968 27.6413 10.8169 32.9213 10.8169C60.4413 10.8169 87.9612 10.8169 115.481 10.8169V10.6568ZM99.6413 16.2583C94.8413 16.2583 89.8813 16.0982 85.0813 16.2583C82.8413 16.2583 81.0813 17.3786 81.0813 18.979C81.0813 26.0208 80.6013 33.0626 81.4013 40.1044C81.8813 44.2654 82.6813 45.0657 86.8413 45.2257C95.3213 45.5458 103.961 45.2257 112.441 44.7456C116.121 44.4255 117.401 43.1452 117.401 39.4642C117.401 36.7435 117.401 34.0228 117.401 31.4622C117.401 27.6212 117.401 23.7802 117.081 19.9392C116.761 16.7384 115.641 16.4183 113.401 16.4183C108.761 16.4183 104.121 16.4183 99.6413 16.4183V16.2583Z" fill="#BED8FA"/>
<path d="M17.0797 10.3368C16.7597 10.3368 16.4397 10.6569 16.2797 10.8169C15.4797 11.297 14.6797 12.0972 14.8397 12.8974C15.1597 13.8577 16.2797 13.3776 16.9197 13.3776C39.7997 13.3776 62.5197 13.3776 85.3997 13.3776C85.8797 13.3776 86.3597 13.3776 86.6797 13.3776C86.9997 13.3776 87.3197 13.3775 87.3197 13.8577C87.3197 14.3378 86.8397 14.1778 86.5197 14.1778C84.5997 14.1778 82.6798 14.4978 80.7598 14.4978C59.1598 14.4978 37.3997 14.4978 15.7997 14.4978C14.1997 14.4978 13.8797 15.138 13.8797 16.4183C13.0797 26.0208 13.2398 35.6232 12.7598 45.0657C12.2798 54.188 12.4397 63.4704 12.2797 72.5927C12.2797 73.0728 12.2797 73.5529 12.2797 73.873C12.4397 75.6335 13.3997 76.1136 16.5997 75.7935C18.3597 75.6335 16.9197 74.3531 17.2397 73.5529C17.7197 64.5907 17.5597 55.4683 17.3997 46.506C17.3997 37.5437 17.3997 28.5814 17.3997 19.6192C17.3997 18.0187 17.8797 17.2185 19.6397 17.2185C26.3597 16.8985 33.0797 17.2185 39.7997 17.0585C41.0797 17.0585 41.0797 17.8587 41.0797 18.8189C41.0797 23.7802 41.0797 28.7415 41.0797 33.5427C41.0797 35.7833 41.2397 37.8638 41.3997 40.1044C41.3997 45.5458 41.3997 51.1472 41.3997 56.5886C41.3997 59.7894 41.3997 59.7894 44.5997 59.7894C54.8397 59.7894 65.2397 59.7894 75.4797 59.7894C75.7997 59.7894 75.9597 59.7894 76.2797 59.7894C89.8797 59.7894 103.48 59.6294 117.24 59.4693C117.4 59.4693 117.72 59.4693 117.88 59.3093C118.2 58.6691 118.04 58.029 117.88 57.5488C117.88 47.9464 117.88 38.504 117.88 28.9015C117.88 25.7007 117.88 22.3398 117.88 19.139C117.88 18.0187 118.04 17.5386 119.32 17.5386C126.36 17.5386 133.24 17.5386 140.28 17.5386C141.88 17.5386 142.36 18.1788 142.36 19.6192C142.36 26.981 142.36 34.3429 142.68 41.7048C142.68 42.505 142.68 43.3052 142.84 44.1054C142.84 48.4265 142.84 52.7476 143 57.0687C143 59.3093 144.12 60.4296 146.36 60.4296C158.68 60.1095 171.16 59.7894 183.48 59.4693C184.28 59.4693 185.08 59.4693 185.72 59.4693C186.2 59.4693 186.68 59.4693 187.32 59.4693H187.64H188.28C189.4 61.3898 188.28 61.5499 186.84 61.5499C180.28 61.5499 173.72 61.5499 167.16 61.5499C166.84 61.5499 166.52 61.5499 166.2 61.87C167.16 62.3501 168.28 62.6702 169.24 63.1503C174.68 65.7109 176.92 69.2318 176.6 75.3134C176.6 76.4337 177.24 76.1136 177.72 76.1136C181.24 75.7935 184.92 75.4734 188.44 75.1534C188.76 75.1534 189.24 75.1534 189.56 75.1534C192.92 74.8333 192.92 74.8333 192.76 71.3124C192.6 63.7905 190.52 56.4286 189.4 49.0667C187.8 38.3439 185.24 27.7812 183.48 17.0585C183.16 15.4581 181.56 14.4978 180.12 15.138C179.64 15.298 179.64 15.7782 179.8 16.0982C179.8 16.8985 179.16 18.1788 180.44 18.6589C182.04 19.139 182.2 20.4194 182.04 21.6997C181.88 23.9403 182.36 26.0208 183 28.1013C184.6 32.5825 185.24 37.2236 186.04 41.8648C186.36 43.4652 185.72 44.4255 184.12 44.4255C177.24 44.4255 170.52 45.0656 163.64 44.5855C161.4 44.4255 160.44 43.1452 159.96 41.3847C159.48 39.4642 159.32 37.5437 159.32 35.4632C159.32 29.7017 159.32 24.1003 159.48 18.3388C159.48 16.0982 160.12 15.298 162.36 15.298C164.92 15.298 167.48 15.298 170.04 15.4581C170.68 15.4581 171.32 15.7782 171.96 15.138C171.16 14.4978 170.36 14.8179 169.72 14.8179C147.64 14.8179 125.56 14.6579 103.64 14.4978C98.5197 14.4978 93.5597 14.4978 88.4397 14.4978C88.1197 14.4978 87.6397 14.4978 87.3197 14.4978C86.9997 14.4978 86.6797 14.3378 86.6797 14.0177C86.6797 13.6976 86.9997 13.5376 87.3197 13.5376C87.9597 13.5376 88.4397 13.5376 89.0797 13.5376C115.16 13.5376 141.08 13.6976 167.16 13.8577C167.64 13.8577 168.12 13.8577 168.76 13.8577C170.68 13.8577 172.92 14.3378 172.92 11.137C163.96 11.137 155 11.137 145.88 11.137C139 11.137 132.28 10.9769 125.4 10.8169C125.24 10.4968 125.08 10.1767 125.56 10.1767C126.04 10.1767 126.52 10.1767 127.16 10.1767C143.8 10.1767 160.6 10.1767 177.24 10.1767C178.52 10.1767 179.8 10.4968 181.08 10.6569C183.32 10.9769 184.28 12.5773 184.76 14.4978C185.88 18.4989 186.36 22.4999 187.16 26.5009C188.76 34.823 190.68 43.1452 191.96 51.4673C191.96 51.9474 191.8 52.7476 192.76 52.5876C194.2 52.4275 194.84 53.2278 195.16 54.5081C195.48 55.7884 195.16 57.0687 193.72 57.7089C193.72 57.7089 193.4 57.8689 193.08 58.189C194.2 58.5091 195.32 57.8689 195.96 58.8292C196.44 59.6294 196.44 60.5896 196.76 61.5499C197.24 63.1503 197.56 64.7507 197.72 66.5112C197.72 68.1116 197.72 69.712 195.8 70.3521C195.16 70.5122 195 70.8322 195.16 71.4724C195.16 72.2726 195.16 73.0728 195.16 74.0331C194.68 77.3939 194.68 77.3939 191.32 77.2339C190.2 77.2339 189.08 77.0738 189.08 78.6742C189.08 79.4745 188.44 79.7945 187.64 79.9546C185.08 80.1146 182.36 80.4347 179.8 80.5947C179 80.5947 178.52 80.2747 178.52 79.4745C178.52 78.3542 178.04 78.1941 177.08 78.3542H176.76C174.68 77.874 174.04 78.8343 173.24 80.7548C171.48 85.556 166.52 88.4368 161.4 88.1167C156.28 87.7966 151.96 84.5958 150.36 79.7945C150.04 78.6742 149.56 78.1941 148.28 78.3542C144.28 78.6743 140.44 78.5142 136.44 78.1941C135.64 78.1941 135 77.874 135 79.1544C135 80.5947 133.72 80.7548 132.6 80.7548C126.04 80.7548 119.48 80.7548 113.08 80.7548C106.84 80.7548 100.76 80.5947 94.5197 80.4347C93.2397 80.4347 92.2797 80.1146 92.5997 78.6742C92.5997 77.714 92.1197 77.714 91.4797 77.714C87.6397 77.714 83.6397 77.714 79.7997 77.714C78.6797 77.714 78.1997 78.0341 78.0397 79.1544C77.5597 81.715 76.1197 83.7956 74.1997 85.396C73.8797 85.556 73.7197 86.0361 73.2397 85.556C72.9197 84.2757 74.3597 84.1156 74.6797 83.1554C76.2797 81.8751 76.7597 79.7945 77.2397 77.874C77.7197 75.6335 77.2398 75.4734 75.1598 75.9536C74.8398 75.9536 74.5198 75.9536 74.3598 75.6335C74.9998 74.6732 77.7197 75.3134 76.5997 72.5927C75.7997 70.8322 74.9997 70.9923 73.3997 71.7925C75.7997 69.872 74.3597 68.9117 73.0797 67.7915C71.9597 66.8312 71.6397 67.7915 70.9997 68.7517C70.9997 67.6314 71.3197 66.5111 70.0397 66.1911C67.9597 65.7109 69.2397 68.1115 68.1197 68.5917C67.7997 65.5509 67.7997 65.5509 66.8397 65.3908C63.9597 65.0708 66.0397 67.7915 64.9197 68.5917C64.1197 67.7915 64.9197 66.6712 64.2797 65.7109C63.3197 66.3511 61.7197 65.7109 61.3997 67.6314C61.3997 67.6314 61.2397 67.6314 61.0797 67.6314C60.7597 67.4714 60.4397 67.4714 60.1197 67.6314C57.7197 69.0718 56.4397 71.4724 55.7997 74.0331C54.9997 76.7538 55.1597 76.7538 57.7197 76.4337C57.8797 76.4337 58.1997 76.4337 58.1997 76.9138C57.5597 77.8741 55.1597 77.0739 55.6397 79.3144C55.3197 79.3144 55.1597 79.3144 54.8397 79.4745C54.6797 78.0341 53.8797 77.874 52.4397 77.874C41.8797 77.874 31.1597 77.8741 20.5997 77.714C18.5197 77.714 16.4397 77.714 14.5197 77.714C11.4797 77.714 10.6797 76.9138 10.6797 73.873C10.6797 69.0718 10.6797 64.2706 10.8397 59.4693C11.1597 47.7863 11.4798 35.9433 11.9598 24.2603C11.9598 20.5794 12.1197 16.8985 13.0797 13.2175C13.8797 10.4968 14.9997 9.53657 17.2397 9.69661C17.2397 9.85665 17.2397 10.1767 17.2397 10.3368H17.0797ZM165.72 34.503C166.36 33.2226 165.4 32.7425 164.44 32.4224C163.96 32.1023 163.32 32.1023 163 32.7425C161.72 35.1431 160.44 37.7038 161.72 40.5845C162.68 40.1044 162.2 38.664 163.48 38.504C163.96 39.7843 162.84 40.5845 162.52 41.5448C162.2 42.665 162.52 43.3052 163.48 43.4652C165.24 43.4652 166.84 43.9454 168.6 43.4652C173.56 43.4652 178.36 43.4652 183.32 43.1452C184.76 43.1452 185.24 42.665 184.92 41.2247C184.44 39.3042 184.28 37.3837 183.8 35.6232C183.32 33.5427 183.32 31.4622 182.2 29.3816C181.4 31.6222 180.76 31.9423 177.72 31.6222C176.12 31.4622 175.64 30.5019 175.48 29.0616C175 26.3409 175.32 23.7802 175.32 21.0595C175.32 19.7792 175.8 18.6589 177.4 18.4989C177.88 18.4989 178.68 18.6589 178.68 18.0187C178.68 17.2185 177.88 17.5386 177.4 17.3786C174.36 16.7384 171.32 17.2185 168.28 17.0585C166.52 17.0585 164.76 16.4183 163 17.0585C162.04 17.3786 161.56 17.8587 161.56 18.979C161.56 22.4999 161.56 26.1808 161.56 29.7017C161.56 31.3021 162.04 31.7823 163.48 30.822C163.96 30.5019 164.12 30.662 164.6 30.822C165.4 31.4622 166.52 31.9423 167.48 32.2624C167.64 32.2624 168.12 31.9423 167.96 32.4224C167.48 34.1829 168.92 35.4632 168.76 37.0636C168.76 38.9841 169.88 41.0646 168.92 42.9851C167.8 42.665 167.96 41.5448 167.8 40.7445C167.48 38.8241 167.32 36.7435 167 34.823C166.84 34.503 166.36 34.503 166.04 34.3429L165.72 34.503ZM166.68 85.556C165.56 85.556 165.24 84.9159 164.76 84.1157C164.44 83.6355 164.44 82.8353 163.64 83.1554C162.36 83.4755 161.08 83.1554 159.96 82.8353C158.84 82.5152 158.68 82.8353 158.2 83.7956C157.88 84.4357 158.2 85.556 157.08 85.7161C157.08 84.7558 157.08 83.9556 157.4 83.1554C158.2 82.0351 157.4 81.3949 156.76 81.0749C155.48 80.4347 155 81.715 154.36 82.3552C153.72 82.8353 153.56 83.4755 154.36 84.1157C155.16 84.7558 155.96 85.8761 157.24 85.8761C159.32 87.4765 161.56 87.6365 163.96 87.1564C164.92 86.9964 166.2 87.1564 166.84 85.8761C168.76 85.8761 169.72 84.5958 170.68 83.3154C172.28 82.0351 172.76 79.9546 173.24 78.0341C173.72 75.7935 173.4 75.6335 171.16 76.1136C170.84 76.1136 170.52 76.1136 170.36 75.7935C173.08 74.0331 172.92 74.0331 172.44 72.2726C171.64 69.872 170.52 72.2726 169.56 71.9525C170.84 69.712 170.68 69.2318 168.76 67.7915C167.16 66.5111 167.8 68.9118 166.84 68.9118C166.36 68.2716 167.8 66.8312 166.04 66.5112C163.8 66.031 164.92 68.4316 163.96 68.9118C163.16 67.9515 165.24 65.5509 162.36 65.7109C159.8 65.7109 161.88 68.1116 160.76 68.9118C159.96 68.4316 160.28 67.7915 160.28 67.1513C160.28 66.1911 159.96 65.871 159 66.3511C158.2 66.6712 157.24 66.6712 156.76 67.6314C153.4 68.7517 152.12 71.3124 151.32 74.5132C150.68 77.2339 150.84 77.2339 153.4 76.9138C153.4 76.9138 153.72 76.9138 153.88 77.0738C153.56 78.5142 151 77.2339 151.32 79.3144C151.48 80.5948 152.12 81.715 152.92 82.8353C153.24 82.5152 153.4 82.0351 153.88 81.8751C155.32 81.0749 155.48 79.9546 155.16 78.1941C154.84 75.4734 154.84 72.7527 157.4 70.8323C158.2 70.1921 157.4 69.712 157.4 69.0718C158.2 69.0718 158.52 70.0321 159.64 69.712C164.76 68.2716 170.52 71.9525 168.28 79.3144C167.8 80.9148 168.44 81.395 169.56 82.0351C170.04 82.3552 170.84 82.3552 170.52 83.3154C169.72 83.3154 169.08 83.3154 168.6 82.6753C167.48 81.2349 166.68 82.3552 165.72 82.9953C164.6 83.7956 165.72 84.4357 166.04 84.9159C166.2 85.2359 166.68 85.556 166.68 86.0361V85.556ZM143.64 74.0331C143.16 75.7935 143.64 76.2736 145.56 76.2736C147.48 76.2736 147.16 75.1534 147.32 74.0331C148.92 68.5917 151.8 64.4306 157.24 62.19C152.92 62.19 148.76 62.19 144.44 62.03C143.64 62.03 143.32 62.19 143.32 63.1503C143.32 66.8312 143.32 70.5122 143.48 74.0331H143.64ZM42.9997 61.5499C42.0397 61.2298 41.5598 61.5499 41.5598 62.6702C41.5598 66.9913 41.7197 71.3124 41.7197 75.6335C41.7197 76.4337 42.0397 76.4337 42.5197 76.4337C44.5997 76.4337 46.5197 76.4337 48.5997 76.4337C50.1997 76.4337 50.8397 75.9536 50.5197 74.5132C51.7997 68.4316 54.8397 63.9505 60.5997 61.5499H42.8397H42.9997ZM39.6397 74.0331C39.6397 73.713 39.6397 73.5529 39.6397 73.2329C39.6397 55.6284 39.3197 37.8638 39.3197 20.2593C39.3197 18.979 38.6797 18.8189 37.7197 18.8189C31.6397 18.6589 25.5597 18.8189 19.4797 18.3388C18.3597 18.3388 18.3598 18.6589 18.3598 19.6192C18.6798 36.5835 18.9998 53.5478 19.1598 70.6722C19.1598 71.6324 19.3197 72.7527 19.4797 73.713C18.8397 75.4734 19.4797 76.1136 21.3997 76.1136C26.8397 76.1136 32.1198 76.1136 37.5598 76.4337C39.4798 76.4337 39.9597 75.9535 39.4797 74.1931L39.6397 74.0331ZM141.4 74.0331C141.4 73.713 141.4 73.3929 141.4 73.0728C141.24 55.6284 141.08 38.3439 140.92 20.8995C140.92 19.6191 140.44 19.4591 139.32 19.4591C133.24 19.4591 127 19.4591 120.92 19.4591C119.64 19.4591 119.64 20.0993 119.8 20.8995C120.28 29.5417 120.12 38.0238 120.12 46.6661C120.12 55.9484 120.12 65.2308 120.12 74.5132C119.64 76.1136 120.28 76.5937 122.04 76.5937C127.96 76.5937 133.72 76.5937 139.64 76.4337C141.56 76.4337 141.88 75.6335 141.4 74.1931V74.0331ZM118.2 74.5132C118.2 70.5122 118.2 66.5111 118.2 62.6702C118.2 61.5499 117.56 61.5499 116.76 61.5499C101.56 61.5499 86.3598 61.5499 71.1598 61.5499C77.5598 63.7904 80.9197 68.1115 81.0797 74.9933C80.4397 76.4337 81.0798 76.5937 82.3598 76.5937C93.7198 76.5937 105.08 76.5937 116.44 76.5937C118.2 76.5937 118.52 76.1136 118.2 74.5132ZM156.28 76.2736C155.8 80.2747 159.8 82.0351 162.68 82.0351C165.88 82.0351 167.96 79.3144 167.96 75.1534C167.96 72.4327 165.24 70.1921 161.88 70.1921C158.2 70.1921 156.44 72.2726 156.44 76.2736H156.28ZM196.44 67.3114C196.44 64.5907 195.64 62.5101 195.16 60.2695C195.16 59.7894 194.84 59.3093 194.36 59.6294C193.88 59.6294 193.88 60.2695 194.04 60.5896C194.68 63.1503 194.84 65.7109 195.16 68.2716C195.16 68.4316 195.16 68.7517 195.48 68.9118C195.8 68.9118 196.12 68.9117 196.28 68.5917C196.44 68.1115 196.6 67.6314 196.6 67.4714L196.44 67.3114ZM183.32 78.9943C184.44 78.9943 185.72 78.8343 187 78.6742C187.48 78.6742 187.8 78.5142 187.8 77.874C187.8 77.3939 187.32 77.3939 187 77.3939C184.92 77.3939 182.84 77.714 180.76 77.874C180.44 77.874 179.8 77.8741 179.8 78.5142C179.8 79.1544 180.44 78.9943 180.76 78.9943C181.56 78.9943 182.36 78.9943 183.32 78.9943ZM182.52 13.2175C181.24 11.6171 179.32 11.137 177.08 11.4571C178.68 12.7374 180.12 14.1778 182.52 13.2175ZM174.04 14.978C174.04 15.138 174.04 15.298 174.04 15.4581C175.32 15.6181 176.76 15.7782 178.04 15.9382C178.36 15.9382 178.84 15.9382 178.84 15.4581C178.84 14.978 178.52 14.8179 178.04 14.8179C176.76 14.8179 175.32 14.8179 174.04 14.8179V14.978ZM177.88 13.3776C176.6 12.4173 175.64 12.0972 174.52 12.4173C174.2 12.4173 173.88 12.7374 173.88 13.2175C173.88 13.6976 174.36 13.5376 174.68 13.5376C175.64 13.5376 176.6 13.5376 177.88 13.5376V13.3776Z" fill="#12100D"/>
<path d="M17.0801 10.3368C17.0801 10.1767 17.0801 9.85666 17.0801 9.69662C34.2001 9.53658 51.1601 9.69662 68.2801 9.69662C83.4801 9.85666 98.8401 9.85667 114.04 10.0167C114.52 10.0167 115.64 9.37654 115.48 10.8169C87.9601 10.8169 60.4401 10.8169 32.9201 10.8169C27.6401 10.8169 22.3601 10.6569 17.0801 10.4968V10.3368Z" fill="#141111"/>
<path d="M74.6804 82.9952C74.5204 83.9554 72.9204 84.1155 73.2404 85.3958C72.9204 85.2358 72.6004 85.3958 72.2804 85.3958C69.2404 87.3163 65.8804 87.4764 62.5204 86.6761C61.2404 86.036 60.1204 85.3958 58.8404 84.7557C58.2004 85.0757 57.5604 85.0757 57.4004 84.2755C58.0404 83.1552 58.6804 81.8749 59.4804 80.7546C61.8804 80.7546 62.3604 81.5548 61.5604 83.7954C61.4004 84.2755 61.2404 84.9157 61.7204 85.3958C62.3604 84.9157 62.3604 84.1155 62.5204 83.6354C62.6804 83.3153 62.8404 82.5151 63.3204 82.6751C65.2404 83.6354 68.2804 82.195 69.4004 85.0757C69.5604 85.5559 70.0404 86.036 70.8404 85.5559C70.5204 84.4356 68.2804 83.4753 70.6804 82.035C71.4804 81.5548 71.9604 81.3948 72.6004 82.035C73.0804 82.6751 73.8804 82.9952 74.6804 82.8352V82.9952Z" fill="#5F6060"/>
<path d="M62.3609 86.6761C65.8809 87.4763 69.0809 87.3162 72.1209 85.3957C72.4409 85.2357 72.7609 85.0757 73.0809 85.3957C73.5609 86.0359 72.9209 86.196 72.6009 86.356C69.0809 88.2765 65.5609 88.9167 61.8809 87.3162C62.0409 87.1562 62.2009 86.9962 62.3609 86.8361V86.6761Z" fill="#12100D"/>
<path d="M59.1592 80.5948C58.5192 81.715 57.8791 82.9954 57.0791 84.1157C56.4391 83.4755 55.7991 82.8353 55.6391 82.0351C55.6391 81.555 55.6391 81.2349 54.9991 81.0749C54.6791 80.5948 54.3591 80.1146 54.5191 79.4745C54.8391 79.4745 54.9991 79.4745 55.3191 79.3145C56.1191 80.1147 56.1191 81.0749 56.4391 82.0351C56.5991 82.0351 56.7591 82.3552 56.9191 82.5153C57.5591 81.7151 58.0392 80.7548 59.1592 80.5948Z" fill="#141111"/>
<path d="M116.761 85.2359C116.441 85.2359 116.121 85.2359 115.801 85.2359C115.801 83.6355 116.921 82.6752 118.201 81.2349C118.361 82.9953 117.401 83.9555 116.761 85.0758V85.2359Z" fill="#141111"/>
<path d="M62.3615 86.6762C62.2015 86.8363 62.0414 86.9963 61.8814 87.1564C60.9214 87.1564 60.1215 86.3562 59.1615 85.876C58.6815 85.556 58.0414 85.2359 58.6814 84.5957C59.9614 85.2359 61.0815 85.8761 62.3615 86.5162V86.6762Z" fill="#141111"/>
<path d="M55.1602 81.0747C55.8002 81.0747 55.8001 81.5548 55.8001 82.035C55.6401 81.7149 55.4802 81.3948 55.1602 81.0747Z" fill="#12100D"/>
<path d="M21.2397 6.17554C21.2397 6.17554 21.0797 6.49561 20.9197 6.49561C20.9197 6.49561 20.9198 6.49562 20.7598 6.33558C20.9198 6.33558 21.0797 6.33558 21.2397 6.33558V6.17554Z" fill="#5F6060"/>
<path d="M21.2397 6.17557C21.0797 6.17557 20.9198 6.17557 20.7598 6.17557C20.7598 5.85548 20.7597 5.5354 21.0797 5.5354C21.3997 5.5354 21.0797 5.85549 21.0797 6.01553L21.2397 6.17557Z" fill="#141111"/>
<path d="M99.6405 16.2582C104.281 16.2582 108.921 16.2582 113.401 16.2582C115.641 16.2582 116.76 16.5783 117.08 19.7791C117.56 23.6201 117.401 27.461 117.401 31.302C117.401 34.0227 117.401 36.7434 117.401 39.3041C117.401 43.1451 116.121 44.4254 112.441 44.5854C103.961 45.0655 95.3205 45.2256 86.8405 45.0655C82.8405 45.0655 81.8805 44.1053 81.4005 39.9442C80.6005 32.9024 81.2405 25.8606 81.0805 18.8188C81.0805 17.2184 82.8405 16.0981 85.0805 16.0981C89.8805 16.0981 94.8405 16.0981 99.6405 16.0981V16.2582ZM106.521 26.5008C104.121 26.5008 101.72 26.5008 99.4805 26.5008C98.0405 26.5008 97.5605 26.8209 97.7205 28.4213C98.0405 32.7424 98.5205 37.0635 98.2005 41.3846C98.2005 41.8647 97.8806 42.5049 98.3606 42.985C98.3606 42.985 98.8405 42.985 99.0005 42.985C99.6405 42.6649 99.4805 41.8647 99.3205 41.3846C98.8405 39.144 99.0005 36.7434 99.0005 34.5028C99.0005 32.2623 100.121 31.142 102.361 31.142C103.961 31.142 105.401 31.4621 107.001 31.4621C108.601 31.4621 109.4 32.1022 109.88 33.7026C110.52 35.9432 110.841 38.3438 111.001 40.5844C111.321 42.6649 112.921 43.3051 114.521 42.0248C115.321 41.3846 115.32 40.2643 115.48 39.144C115.48 35.3031 115.48 31.6221 115.48 27.7811C115.48 26.5008 115 26.3408 113.88 26.3408C111.32 26.3408 108.921 26.3408 106.361 26.3408L106.521 26.5008ZM104.921 42.985C106.201 42.985 107.481 42.985 108.761 42.985C109.721 42.985 110.04 42.5049 109.88 41.5447C109.72 40.1043 109.561 38.5039 109.241 37.0635C108.601 32.9024 108.44 32.9024 104.28 32.5824C103.8 32.5824 103.321 32.5824 103.001 32.5824C100.921 32.5824 100.28 32.9024 100.28 34.983C100.28 36.4233 100.281 37.8637 100.601 39.3041C100.761 40.5844 100.12 42.3448 101.08 42.985C102.04 43.6252 103.641 42.985 104.921 42.985ZM92.2805 34.6629C92.2805 32.5824 92.2805 30.5018 92.2805 28.4213C92.2805 26.6609 91.6405 26.3408 90.2005 26.5008C88.7605 26.6608 87.1606 26.8209 85.5606 26.8209C82.8406 26.8209 82.8405 26.8209 82.6805 29.3815C82.6805 29.7016 82.6805 30.0217 82.6805 30.3418C82.6805 31.4621 83.0005 31.7822 84.2805 31.7822C87.9605 31.7822 88.9206 32.7424 89.5606 36.4233C89.8806 38.1838 90.0406 39.9442 90.3606 41.7047C90.3606 42.5049 90.8405 42.985 91.8005 42.985C93.0805 42.985 92.2805 42.0248 92.2805 41.5447C92.2805 39.3041 92.2805 36.9035 92.2805 34.6629ZM83.0005 36.1033C83.0005 37.5436 83.0005 38.984 83.3205 40.4244C83.6405 42.5049 87.0005 44.1053 88.9205 42.985C89.2405 42.825 89.2405 42.6649 89.2405 42.3449C88.7605 39.7842 88.9206 37.0635 87.9606 34.5028C87.4806 33.3826 85.0805 32.2623 83.6405 32.7424C82.2005 33.2225 83.3205 34.5028 83.0005 35.3031C83.0005 35.4631 83.0005 35.7832 83.0005 36.1033Z" fill="#12100D"/>
<path d="M42.2009 40.2642C42.0409 33.7025 41.8809 27.1408 41.8809 20.5791C41.8809 17.3783 42.6809 16.5781 45.8809 16.5781C56.2809 16.5781 66.5209 16.5781 76.9209 16.5781C78.6809 16.5781 79.3209 17.2183 79.4809 18.9787C79.9609 25.7005 79.3209 32.5822 79.4809 39.3039C79.4809 43.1449 78.3609 44.2652 74.6809 44.2652C66.5209 44.2652 58.5209 44.9054 50.3609 45.0654C47.8009 45.0654 45.0809 45.2255 42.8409 43.625C42.2009 42.6648 42.5209 41.3845 42.3609 40.2642H42.2009ZM69.5609 25.7005C66.2009 25.7005 63.0009 25.7005 59.6409 26.0205C58.8409 26.0205 58.3609 26.1806 58.3609 27.1408C58.6809 31.782 58.2009 36.5832 58.6809 41.3845C58.6809 42.0246 58.3609 42.9849 59.6409 42.8248C60.7609 42.8248 60.4409 41.7046 60.2809 41.2244C60.1209 38.8238 59.6409 36.2632 59.6409 33.8625C59.6409 31.942 60.4409 31.1418 62.3609 31.1418C63.9609 31.1418 65.4009 31.1418 67.0009 31.1418C70.8409 31.3019 71.9609 32.4222 72.9209 36.1031C73.2409 37.7035 73.5609 39.3039 74.0409 40.7443C74.2009 41.3845 74.0409 42.8248 75.4809 42.5048C76.6009 42.3447 77.7209 42.0246 77.7209 40.4242C77.7209 35.9431 78.0409 31.4619 78.2009 26.9808C78.2009 26.0205 77.8809 25.7005 76.9209 25.7005C74.5209 25.7005 72.1209 25.7005 69.8809 25.7005H69.5609ZM66.8409 42.6648C68.4409 42.6648 70.0409 42.6648 71.6409 42.6648C72.4409 42.6648 72.7609 42.3447 72.6009 41.5445C72.1209 39.624 71.9609 37.7035 71.4809 35.783C71.1609 33.8625 70.2009 32.7423 67.9609 32.5822C66.2009 32.5822 64.6009 32.5822 62.8409 32.2621C61.2409 32.2621 60.7609 32.9023 60.9209 34.5027C61.2409 36.5832 61.5609 38.6638 61.5609 40.7443C61.5609 42.1847 61.7209 43.1449 63.6409 42.6648C64.6009 42.3447 65.7209 42.6648 66.8409 42.6648ZM54.2009 34.9828C54.2009 32.5822 54.2009 30.1816 54.2009 27.941C54.2009 26.9808 54.2009 26.5007 52.9209 26.5007C50.3609 26.5007 47.9609 26.5007 45.5609 26.1806C43.9609 26.0205 43.4809 26.5007 43.4809 28.1011C43.4809 30.9818 43.4809 30.9818 46.3609 30.9818C46.8409 30.9818 47.3209 30.9818 47.6409 30.9818C49.4009 30.9818 50.3609 31.782 50.8409 33.3824C51.1609 34.1826 51.1609 35.1429 51.4809 35.9431C52.1209 38.0236 51.4809 40.1041 52.1209 42.1847C52.2809 42.9849 52.6009 43.305 53.4009 43.1449C54.2009 43.1449 54.2009 42.5047 54.2009 41.8646C54.2009 39.464 54.2009 37.0634 54.2009 34.8228V34.9828ZM44.9209 31.782C44.4409 32.1021 43.1609 30.8218 43.1609 32.5822C43.1609 35.3029 43.1609 38.0236 43.4809 40.7443C43.4809 41.7045 44.1209 42.5048 45.2409 42.8248C46.8409 43.1449 48.4409 43.305 50.0409 43.305C50.6809 43.305 51.0009 43.1449 50.8409 42.3447C50.5209 40.1041 50.5209 37.7035 50.2009 35.4629C49.5609 32.2621 49.2409 31.9421 45.8809 31.782C45.5609 31.782 45.4009 31.782 45.0809 31.782H44.9209Z" fill="#12100D"/>
<path d="M42.2005 40.2643C42.3605 41.3846 42.2005 42.5049 42.6805 43.6252C42.5205 48.1063 42.6805 52.7475 43.0005 57.2286C43.0005 58.1889 43.4805 58.509 44.2805 58.3489C51.4805 58.1889 58.5205 58.669 65.7205 58.0288C69.4005 57.7088 73.0805 58.0288 76.7605 58.0288C90.5205 58.0288 104.28 57.7088 117.88 57.7088C117.88 58.3489 118.04 58.9891 117.88 59.4692C104.28 59.4692 90.5205 59.4692 76.9205 59.4692C76.4405 59.4692 75.9605 59.4692 75.6405 59.7893C65.4005 59.7893 55.0005 59.7893 44.7605 59.7893C41.5605 59.7893 41.5605 59.7893 41.5605 56.5885C41.5605 51.1471 41.5605 45.5456 41.5605 40.1042C41.7205 40.1042 42.0405 40.1042 42.2005 40.1042V40.2643Z" fill="#FAFAFA"/>
<path d="M144.28 41.3845C143.8 33.8626 144.12 26.1806 144.12 18.6587C144.12 17.2183 145.08 16.2581 146.52 16.2581C149.4 16.2581 152.28 15.938 155.16 15.938C158.2 15.938 159 16.7382 159 19.939C159 26.1806 159 32.2622 159 38.5038C159 43.305 157.88 44.2652 153.24 43.9452C151.8 43.9452 150.36 43.9452 148.92 43.9452C147.48 43.9452 146.2 43.7851 144.92 42.8249C144.76 42.3447 144.6 41.7046 144.44 41.2245L144.28 41.3845ZM157.4 18.4986C155.32 21.5394 154.2 24.4202 151.64 26.3406C153.4 23.4599 155 20.4191 156.76 17.3784C155 16.8982 153.88 17.0583 153.08 18.6587C152.76 19.4589 152.12 20.2591 151.64 20.8993C150.36 22.8197 149.4 25.0603 147.64 26.8208C148.6 23.2999 151 20.4191 152.76 17.3784C151.8 17.0583 151.16 17.3784 150.36 17.3784C149.56 17.3784 148.76 17.3784 148.12 17.3784C145.56 17.3784 145.24 17.6984 145.24 20.099C145.24 23.2999 145.24 26.3406 145.24 29.5415C145.24 30.8218 145.56 31.3019 147 31.3019C149.24 31.3019 150.04 32.2622 150.36 34.3427C150.52 35.7831 150.68 37.2234 151 38.6638C151.64 42.0247 151.64 42.0247 155.16 41.8646C156.6 41.8646 157.24 41.3845 157.4 39.9441C158.04 35.3029 157.56 30.8218 157.72 26.1806C157.72 23.78 157.72 21.2193 157.72 18.3386L157.4 18.4986ZM145.08 35.7831C145.08 36.4232 145.08 36.9033 145.08 37.5435C145.08 38.8238 145.24 40.2642 145.88 41.3845C146.52 42.8249 147.96 42.6648 149.08 42.3447C150.36 42.0247 149.56 40.9044 149.56 40.2642C149.4 38.1837 148.92 36.2632 148.6 34.1827C148.44 32.4222 147 32.5822 145.88 32.5822C144.44 32.5822 145.4 33.8626 145.08 34.5027C145.08 34.8228 145.08 35.463 145.08 35.7831Z" fill="#141111"/>
<path d="M144.28 41.3845C144.44 41.8646 144.6 42.5048 144.76 42.9849C144.76 47.6261 144.76 52.4273 144.76 57.0685C144.76 58.3489 145.08 58.6689 146.36 58.6689C153.56 58.6689 160.92 58.6689 168.12 58.0288C174.36 57.7087 180.76 57.5486 187 57.3886C188.92 57.3886 189.24 57.8687 188.76 59.6292C188.6 59.6292 188.28 59.6292 188.12 59.6292C188.12 59.4691 187.8 59.4691 187.8 59.6292C187.32 59.6292 186.84 59.6292 186.2 59.6292C185.4 59.3091 184.6 59.3091 183.96 59.6292C171.64 59.9493 159.16 60.2693 146.84 60.5894C144.6 60.5894 143.48 59.4691 143.48 57.2286C143.48 52.9075 143.48 48.5864 143.32 44.2653C143.8 43.305 142.84 41.8646 144.44 41.3845H144.28Z" fill="#FAFAFA"/>
<path d="M17.4014 73.7128C17.0814 74.353 18.3614 75.6333 16.7614 75.9534C13.5614 76.2735 12.7614 75.9534 12.4414 74.0329C14.0414 74.0329 15.6414 73.5528 17.4014 73.7128Z" fill="#F5F5F1"/>
<path d="M81.0801 74.8331C80.9201 68.1114 77.5602 63.6302 71.1602 61.3896C86.3602 61.3896 101.56 61.3896 116.76 61.3896C117.56 61.3896 118.2 61.3897 118.2 62.51C118.2 66.511 118.2 70.512 118.2 74.353C105.88 74.353 93.5601 74.353 81.2401 74.6731L81.0801 74.8331Z" fill="#BED8FA"/>
<path d="M120.281 74.5132C120.281 65.2308 120.281 55.9484 120.281 46.666C120.281 38.0238 120.281 29.5417 119.961 20.8995C119.961 19.9392 119.961 19.299 121.081 19.4591C127.161 19.4591 133.401 19.4591 139.481 19.4591C140.601 19.4591 141.081 19.4591 141.081 20.8995C141.081 38.3439 141.401 55.6283 141.561 73.0728C141.561 73.3929 141.561 73.713 141.561 74.033C134.521 74.6732 127.481 74.3531 120.441 74.5132H120.281ZM139.641 41.3847C139.961 35.6232 139.641 29.8617 139.321 24.1003C139.321 21.6997 138.041 20.7394 135.641 20.5794C132.761 20.5794 129.721 20.5794 126.841 20.5794C123.001 20.5794 122.361 21.2195 122.201 24.9005C122.201 25.2206 122.201 25.7007 122.201 26.0208C121.721 36.2634 122.841 46.666 123.001 56.9087C123.001 59.4693 124.281 60.7496 127.001 60.7496C130.361 60.7496 133.721 60.7496 136.921 60.7496C139.161 60.7496 139.801 59.9494 139.641 57.7089C139.481 52.2675 139.321 46.666 139.641 41.2247V41.3847Z" fill="#BED8FA"/>
<path d="M19.6415 73.7128C19.6415 72.7525 19.3215 71.6322 19.3215 70.672C19.0015 53.7077 18.6815 36.7433 18.5215 19.619C18.5215 18.8188 18.5215 18.3386 19.6415 18.3386C25.7215 18.9788 31.8014 18.4987 37.8814 18.8188C38.8414 18.8188 39.4814 18.9788 39.4814 20.2591C39.4814 37.8636 39.6415 55.6282 39.8015 73.2327C39.8015 73.5527 39.8015 73.7128 39.8015 74.0329C33.0815 74.0329 26.5215 74.1929 19.8015 73.7128H19.6415ZM21.0814 37.8636C20.7614 45.3855 21.0815 50.987 21.2415 56.5884C21.4015 60.7495 23.0015 62.0298 27.1615 61.7097C29.8815 61.5497 32.4415 61.3896 35.1615 61.2296C37.7215 61.2296 38.3615 60.5894 38.5215 58.1888C39.1615 49.7066 38.5214 41.3845 38.6814 32.9023C38.6814 29.5415 38.3615 26.3407 38.2015 22.9798C38.2015 21.0593 37.0815 19.939 35.0015 19.779C31.4815 19.4589 27.9615 19.779 24.4415 19.939C22.0415 20.0991 21.0814 21.0593 21.0814 23.4599C21.0814 28.9013 21.2414 34.3427 21.0814 37.8636ZM36.9215 62.83C35.9615 63.1501 35.4815 63.7903 35.3215 64.9105C35.3215 66.0308 35.6415 66.9911 36.7615 66.9911C38.0415 66.9911 38.5215 66.0308 38.5215 64.9105C38.5215 63.9503 38.2015 62.99 36.7615 62.83H36.9215Z" fill="#BED8FA"/>
<path d="M168.44 42.9851C169.4 40.9045 168.12 38.9841 168.28 37.0636C168.28 35.4632 167 34.1828 167.48 32.4224C167.48 31.7822 167.16 32.2623 167 32.2623C166.04 31.7822 164.92 31.4621 164.12 30.822C163.64 30.5019 163.48 30.3419 163 30.822C161.56 31.7822 161.08 31.142 161.08 29.7017C161.08 26.1808 161.08 22.4998 161.08 18.9789C161.08 17.8587 161.4 17.3785 162.52 17.0584C164.28 16.4183 166.04 17.0584 167.8 17.0584C170.84 17.0584 173.88 16.7384 176.92 17.3785C177.4 17.3785 178.2 17.0585 178.2 18.0187C178.2 18.8189 177.4 18.4988 176.92 18.4988C175.32 18.4988 174.84 19.7791 174.84 21.0595C174.84 23.7802 174.68 26.3408 175 29.0615C175.16 30.5019 175.64 31.4621 177.24 31.6222C180.28 31.9423 180.92 31.6222 181.72 29.3816C182.84 31.4621 182.84 33.5427 183.32 35.6232C183.8 37.5437 183.96 39.3041 184.44 41.2246C184.76 42.665 184.44 43.1451 182.84 43.1451C177.88 43.3052 173.08 43.4652 168.12 43.4652V43.1451L168.44 42.9851ZM166.2 26.0207C166.2 26.0207 166.2 26.0207 166.2 26.1808C166.2 26.1808 165.88 26.1808 166.2 26.5009C166.2 26.5009 166.2 26.3408 166.2 26.1808V26.0207ZM163.96 29.5416C163.96 29.7017 163.96 30.0218 164.28 29.8617C165.08 29.0615 165.4 28.1013 165.56 26.981C164.92 27.7812 164.12 28.5814 163.96 29.5416Z" fill="#5F6060"/>
<path d="M43 61.5498H60.7601C55.0001 63.9504 51.8 68.4316 50.68 74.5131C48.76 74.5131 46.6801 74.5131 44.7601 74.193C43.6401 74.033 43.48 73.7129 43.32 72.5926C43.32 68.9117 43 65.2307 43 61.5498Z" fill="#BED8FA"/>
<path d="M143.641 74.0329C143.641 70.3519 143.64 66.671 143.48 63.1501C143.48 62.3499 143.8 62.0298 144.6 62.0298C148.76 62.0298 153.08 62.0298 157.4 62.1898C151.96 64.4304 149.08 68.5915 147.48 74.0329C146.2 74.0329 145.08 74.0329 143.8 74.0329H143.641Z" fill="#BED8FA"/>
<path d="M170.36 82.8351C170.68 81.8749 169.88 81.8749 169.4 81.5548C168.28 80.9146 167.64 80.4345 168.12 78.8341C170.36 71.6322 164.76 67.9513 159.48 69.2316C158.36 69.5517 158.04 68.4314 157.24 68.5915C157.24 67.9513 156.92 67.4712 156.44 66.991C156.76 66.0308 157.88 66.0308 158.68 65.7107C159.64 65.3907 159.96 65.7107 159.96 66.5109C159.96 67.1511 159.64 67.7913 160.44 68.2714C161.4 67.4712 159.48 65.2306 162.04 65.0706C164.92 65.0706 162.84 67.3111 163.64 68.2714C164.6 67.6312 163.64 65.3906 165.72 65.8708C167.48 66.1908 166.04 67.6312 166.52 68.2714C167.32 68.2714 166.68 66.0308 168.44 67.1511C170.36 68.5915 170.52 69.2316 169.24 71.3122C170.2 71.6322 171.48 69.2316 172.12 71.6322C172.6 73.3927 172.76 73.3927 170.04 75.1531C170.04 75.6333 170.52 75.4732 170.84 75.4732C173.08 74.9931 173.4 75.1531 172.92 77.3937C172.44 79.3142 172.12 81.2347 170.36 82.6751C170.36 82.6751 170.36 82.6751 170.36 82.515V82.8351ZM169.88 77.7138C169.88 77.8738 169.88 78.0339 169.88 78.1939C170.84 78.1939 171.8 78.514 172.6 77.0736C171.48 77.2337 170.52 77.5538 169.72 77.7138H169.88Z" fill="#5F6060"/>
<path d="M61.0801 67.4712C61.4001 65.7107 63.0002 66.1909 63.9602 65.5507C64.6002 66.511 63.8001 67.4712 64.6001 68.4315C65.7201 67.6312 63.6401 64.9106 66.5201 65.2306C67.4801 65.2306 67.4801 65.2306 67.8001 68.4315C68.9201 68.1114 67.8001 65.7108 69.7201 66.0308C71.0001 66.3509 70.6801 67.4712 70.6801 68.5915C71.3201 67.6312 71.6402 66.511 72.7602 67.6312C74.0402 68.7515 75.4801 69.8718 73.0801 71.6323C74.6801 70.8321 75.4801 70.672 76.2801 72.4325C77.4001 74.9931 74.6801 74.353 74.0401 75.4732C74.0401 75.9534 74.5201 75.9534 74.8401 75.7933C77.0801 75.3132 77.4001 75.4733 76.9201 77.7138C76.4401 79.6343 76.1202 81.5548 74.3602 82.9952C74.5202 82.355 74.3601 82.0349 73.7201 81.8749C72.1201 81.3948 71.8001 80.5946 72.2801 78.6741C74.0401 71.9523 69.5602 68.9116 64.7602 69.2317C63.4802 69.2317 62.5201 69.5517 61.4001 68.7515C61.4001 68.4314 61.4001 68.1114 61.0801 67.9513V67.6312V67.4712ZM74.0401 78.0339C75.0001 78.354 76.1202 78.6741 76.7602 77.2337C75.6402 77.2337 74.8401 77.3937 74.0401 78.0339Z" fill="#5F6060"/>
<path d="M156.28 76.2735C156.28 72.2724 158.2 70.1919 161.72 70.1919C165.08 70.1919 167.8 72.4325 167.8 75.1532C167.8 79.3142 165.72 82.195 162.52 82.0349C159.64 82.0349 155.8 80.2745 156.12 76.2735H156.28ZM164.76 76.1134C164.76 74.353 163.48 72.7526 161.88 72.7526C159.48 72.7526 158.36 73.5528 158.36 75.4733C158.36 77.2337 159.96 79.1542 161.56 79.3142C163.32 79.3142 164.76 78.0339 164.76 76.1134Z" fill="#5F6060"/>
<path d="M81.081 74.8333C93.401 74.3532 105.721 74.3532 118.041 74.5132C118.361 75.9536 118.041 76.5937 116.281 76.5937C104.921 76.5937 93.561 76.5937 82.201 76.5937C80.921 76.5937 80.281 76.5937 80.921 74.9933L81.081 74.8333Z" fill="#FEFEFE"/>
<path d="M59.1594 80.5944C57.8794 80.5944 57.5594 81.7147 56.9194 82.5149C56.7594 82.5149 56.5994 82.1948 56.4394 82.0348C56.1194 81.0745 55.9594 80.1143 55.3194 79.3141C54.8394 77.0735 57.2393 77.8737 57.8793 76.9135C57.8793 76.4333 57.5593 76.4333 57.3993 76.4333C54.6793 76.7534 54.6793 76.7534 55.4793 74.0327C56.1193 71.4721 57.3993 69.0715 59.7993 67.6311C60.2793 67.311 60.4394 67.471 60.7594 67.6311C60.7594 67.7911 60.7593 67.9512 61.0793 67.9512C61.0793 68.2712 61.0793 68.5913 61.3993 68.7514C61.3993 69.3915 62.1993 69.8717 61.3993 70.6719C58.6793 72.9124 58.9993 75.7932 59.4793 78.834C59.4793 79.6342 59.4794 80.1143 59.3194 80.7544L59.1594 80.5944Z" fill="#5F6060"/>
<path d="M157.401 68.5917C157.401 69.2319 158.201 69.712 157.401 70.3522C154.841 72.2727 154.841 74.9934 155.161 77.7141C155.481 79.3145 155.161 80.4348 153.881 81.395C153.561 81.555 153.241 82.0352 152.921 82.3553C152.121 81.235 151.481 80.1147 151.321 78.8344C151.001 76.9139 153.561 78.0341 153.881 76.5938C153.721 76.5938 153.561 76.4337 153.401 76.4337C150.841 76.5938 150.681 76.5938 151.321 74.0331C152.121 70.9924 153.401 68.2717 156.761 67.1514C156.761 67.7915 156.761 68.4317 157.561 68.7518L157.401 68.5917Z" fill="#5F6060"/>
<path d="M120.28 74.5133C127.32 74.5133 134.36 74.6734 141.4 74.0332C141.88 75.6336 141.72 76.2738 139.64 76.2738C133.72 76.2738 127.96 76.4338 122.04 76.4338C120.28 76.4338 119.64 75.9537 120.12 74.3533L120.28 74.5133Z" fill="#FAFAFA"/>
<path d="M19.641 73.7128C26.361 74.3529 32.921 74.0329 39.641 74.0329C40.121 75.7933 39.6409 76.2734 37.7209 76.2734C32.2809 76.1134 27.001 75.9533 21.561 75.9533C19.481 75.9533 19.001 75.4732 19.641 73.5527V73.7128Z" fill="#FAFAFA"/>
<path d="M43.0007 61.5499C43.0007 65.2308 43.3207 68.9117 43.3207 72.5927C43.3207 73.5529 43.6407 73.873 44.7607 74.1931C46.6807 74.6732 48.7607 74.1931 50.6807 74.5132C51.0007 76.1136 50.3607 76.5937 48.7607 76.4337C46.6807 76.2736 44.7607 76.4337 42.6807 76.4337C42.2007 76.4337 41.8807 76.4337 41.8807 75.6335C41.8807 71.3124 41.8807 66.9912 41.7207 62.6701C41.7207 61.3898 42.2007 61.2298 43.1607 61.5499H43.0007Z" fill="#F5F5F1"/>
<path d="M168.44 42.9849V43.305C166.68 43.6251 165.08 43.305 163.32 43.305C162.2 43.305 162.04 42.5048 162.36 41.3845C162.68 40.4243 163.8 39.6241 163.32 38.3438C164.28 38.6638 164.12 37.7036 164.44 37.3835C165.24 36.5833 165.08 35.303 166.36 34.9829C166.68 36.9034 166.84 38.9839 167.16 40.9044C167.16 41.7046 167.16 42.6649 168.28 43.145L168.44 42.9849Z" fill="#CEC8C8"/>
<path d="M157.08 85.5557C158.2 85.3957 157.88 84.2754 158.2 83.6352C158.68 82.835 158.84 82.3549 159.96 82.675C161.08 82.995 162.36 83.4752 163.64 82.995C164.44 82.675 164.44 83.4752 164.76 83.9553C165.24 84.7555 165.56 85.5557 166.68 85.3957C166.04 86.676 164.76 86.5159 163.8 86.676C161.4 87.1561 159.16 86.9961 157.08 85.3957V85.5557ZM162.04 85.0756C162.04 84.5955 162.2 83.7953 161.56 83.6352C160.92 83.6352 160.92 84.2754 161.08 84.9156C161.08 85.5557 160.92 86.3559 161.72 86.3559C162.36 86.3559 162.04 85.5557 162.2 85.0756H162.04Z" fill="#5F6060"/>
<path d="M163.641 38.3438C162.361 38.3438 162.681 39.9443 161.881 40.4244C160.601 37.5436 161.881 35.143 163.161 32.5824C163.481 31.9422 164.121 32.1022 164.601 32.2623C165.401 32.7424 166.361 33.0625 165.881 34.3428C165.081 35.6231 163.801 36.5834 163.801 38.1838L163.641 38.3438Z" fill="#CEC8C8"/>
<path d="M75.6405 59.7893C75.9605 59.4692 76.4405 59.4692 76.9205 59.4692C90.5205 59.4692 104.28 59.4692 117.88 59.4692C117.72 59.4692 117.401 59.6293 117.241 59.6293C103.641 59.6293 90.0405 59.7893 76.2805 59.9494C75.9605 59.9494 75.8005 59.9494 75.4805 59.9494L75.6405 59.7893Z" fill="#CEC8C8"/>
<path d="M196.441 67.3114C196.441 67.3114 196.441 67.9515 196.121 68.4317C196.121 68.7517 195.641 68.9118 195.321 68.7517C195.001 68.7517 195.001 68.4317 195.001 68.1116C194.681 65.5509 194.521 62.9903 193.881 60.4296C193.881 60.1095 193.881 59.6294 194.201 59.4694C194.841 59.3093 195.001 59.6294 195.001 60.1095C195.481 62.3501 196.121 64.5907 196.281 67.1513L196.441 67.3114Z" fill="#DD7E29"/>
<path d="M170.52 82.9953C169.56 84.2756 168.44 85.556 166.68 85.556C166.68 85.0758 166.2 84.7558 166.04 84.4357C165.72 83.7955 164.6 83.3154 165.72 82.5152C166.52 81.875 167.32 80.7547 168.6 82.1951C169.08 82.6752 169.72 82.9953 170.52 82.8353C170.52 82.8353 170.52 82.8353 170.52 82.9953Z" fill="#5F6060"/>
<path d="M157.08 85.5557C155.8 85.5557 155.16 84.5955 154.2 83.7953C153.4 83.1551 153.72 82.515 154.2 82.0348C155 81.5547 155.32 80.1143 156.6 80.7545C157.4 81.2346 158.04 81.8748 157.24 82.835C156.76 83.6352 156.76 84.4354 156.92 85.3957L157.08 85.5557Z" fill="#5F6060"/>
<path d="M183.321 78.994C182.361 78.994 181.561 78.994 180.761 78.994C180.441 78.994 179.801 79.3141 179.801 78.5139C179.801 77.8737 180.441 77.8737 180.761 77.8737C182.841 77.7136 184.921 77.5536 187.001 77.3936C187.321 77.3936 187.801 77.3936 187.801 77.8737C187.801 78.5138 187.481 78.6739 187.001 78.6739C185.721 78.6739 184.441 78.8339 183.321 78.994Z" fill="#DD7E29"/>
<path d="M143.641 74.0332C144.921 74.0332 146.041 74.0332 147.321 74.0332C147.001 74.9934 147.321 76.2738 145.561 76.2738C143.801 76.2738 143.161 75.7937 143.641 74.0332Z" fill="#F5F5F1"/>
<path d="M182.52 13.2173C180.12 14.1776 178.68 12.7372 177.08 11.4569C179.32 11.1368 181.24 11.6169 182.52 13.2173Z" fill="#BED8FA"/>
<path d="M174.041 14.978C175.321 14.978 176.761 14.978 178.041 14.978C178.521 14.978 178.841 14.978 178.841 15.6182C178.841 16.2584 178.361 16.0983 178.041 16.0983C176.761 15.9383 175.321 15.7782 174.041 15.6182C174.041 15.4582 174.041 15.2981 174.041 15.1381V14.978Z" fill="#CEC8C8"/>
<path d="M177.881 13.3775C176.441 13.3775 175.481 13.3775 174.681 13.3775C174.361 13.3775 174.041 13.3775 173.881 13.0574C173.881 12.5773 174.041 12.4173 174.521 12.2572C175.641 11.9372 176.601 12.2572 177.881 13.2175V13.3775Z" fill="#BED8FA"/>
<path d="M163.641 38.3439C163.641 36.7435 164.921 35.6232 165.721 34.5029C166.041 34.5029 166.521 34.5029 166.681 34.9831C165.561 35.3031 165.561 36.7435 164.761 37.3837C164.441 37.7038 164.441 38.664 163.641 38.3439Z" fill="#141111"/>
<path d="M183.961 59.7893C184.761 59.3092 185.401 59.3092 186.201 59.7893C185.401 59.7893 184.601 59.7893 183.961 59.7893Z" fill="#BED8FA"/>
<path d="M187.801 59.6293C187.801 59.4693 188.121 59.4693 188.121 59.6293H187.801Z" fill="#BED8FA"/>
<path d="M61.0797 67.9514C60.7597 67.9514 60.7598 67.7914 60.7598 67.6313C60.7598 67.6313 60.9197 67.6313 61.0797 67.6313V67.9514Z" fill="#141111"/>
<path d="M59.1601 80.5949C59.4801 79.9547 59.48 79.3145 59.32 78.6744C58.84 75.7936 58.68 72.7529 61.24 70.5123C62.04 69.8721 61.24 69.232 61.24 68.5918C62.2 69.232 63.32 69.0719 64.6 69.0719C69.4 68.7518 74.04 71.7926 72.12 78.5144C71.64 80.2748 72.1201 81.075 73.5601 81.7152C74.2001 81.8752 74.36 82.1953 74.2 82.8355C73.4 82.8355 72.6 82.6754 72.12 82.0352C71.48 81.235 71 81.3951 70.2 82.0352C67.8 83.3156 70.2001 84.2758 70.3601 85.5561C69.7201 86.0363 69.24 85.5561 68.92 85.076C67.64 82.1953 64.76 83.7957 62.84 82.6754C62.36 82.5154 62.2 83.1555 62.04 83.6357C61.72 84.1158 61.72 84.916 61.24 85.3961C60.76 84.916 60.92 84.4358 61.08 83.7957C61.88 81.5551 61.4 80.7549 59 80.7549L59.1601 80.5949ZM65.72 70.1922C62.04 70.1922 60.28 72.2728 60.28 76.4338C60.28 79.6346 62.84 82.0352 66.52 82.0352C69.88 82.0352 71.8001 79.4746 71.9601 75.3135C71.9601 72.4328 69.4 70.1922 65.88 70.1922H65.72Z" fill="#141111"/>
<path d="M56.4414 82.0349C56.6014 82.0349 56.7614 82.355 56.9214 82.515C56.7614 82.515 56.6014 82.195 56.4414 82.0349Z" fill="#12100D"/>
<path d="M106.521 26.501C109.081 26.501 111.481 26.501 114.041 26.501C115.161 26.501 115.641 26.661 115.641 27.9413C115.641 31.6223 115.641 35.4633 115.641 39.3043C115.641 40.2645 115.641 41.3848 114.681 42.185C113.081 43.4653 111.321 42.8252 111.161 40.7446C110.841 38.344 110.681 36.1034 110.041 33.8629C109.561 32.4225 108.761 31.6223 107.161 31.6223C105.561 31.6223 104.121 31.3022 102.521 31.3022C100.281 31.3022 99.3209 32.4225 99.1609 34.6631C99.1609 36.9036 99.1609 39.3043 99.4809 41.5448C99.4809 42.0249 99.8009 42.6651 99.1609 43.1452C99.0009 43.1452 98.6809 43.1452 98.5209 43.1452C97.8809 42.6651 98.2009 42.185 98.3609 41.5448C98.8409 37.2237 98.3609 32.9026 97.8809 28.5815C97.8809 26.9811 98.2009 26.661 99.6409 26.661C102.041 26.661 104.441 26.661 106.681 26.661L106.521 26.501Z" fill="#5F6060"/>
<path d="M104.92 42.985C103.64 42.985 102.04 43.4651 101.08 42.985C100.12 42.3448 100.76 40.5844 100.6 39.304C100.44 37.8637 100.28 36.4233 100.28 34.9829C100.28 32.9024 100.92 32.4223 103 32.5823C103.48 32.5823 103.96 32.5823 104.28 32.5823C108.6 32.7424 108.6 32.7423 109.24 37.0634C109.56 38.5038 109.56 40.1042 109.88 41.5446C109.88 42.5048 109.88 42.985 108.76 42.985C107.48 42.985 106.2 42.985 104.92 42.985Z" fill="#CEC8C8"/>
<path d="M92.2806 34.6628C92.2806 36.9034 92.2806 39.304 92.2806 41.5446C92.2806 42.0247 93.0806 42.8249 91.8006 42.985C90.8406 42.985 90.5207 42.5049 90.3607 41.7046C90.0407 39.9442 89.8807 38.1838 89.5607 36.4233C88.9207 32.7424 87.9606 31.9422 84.2806 31.7821C83.1606 31.7821 82.5206 31.462 82.6806 30.3417C82.6806 30.0217 82.6806 29.7016 82.6806 29.3815C82.8406 26.8208 82.8407 26.8209 85.5607 26.8209C87.1607 26.8209 88.6006 26.8208 90.2006 26.5008C91.6406 26.3407 92.4406 26.6608 92.2806 28.4213C92.2806 30.5018 92.2806 32.5823 92.2806 34.6628Z" fill="#5F6060"/>
<path d="M83.0008 36.1034C83.0008 35.7833 83.0008 35.6233 83.0008 35.3032C83.3208 34.503 82.2008 33.2227 83.6408 32.7426C85.0808 32.2624 87.4808 33.3827 87.9608 34.503C88.9208 37.0637 88.9208 39.7844 89.2408 42.345C89.2408 42.6651 89.2408 42.8251 88.9208 42.9852C87.1608 44.1055 83.6408 42.5051 83.3208 40.4245C83.1608 38.9842 83.0008 37.5438 83.0008 36.1034Z" fill="#CEC8C8"/>
<path d="M69.561 25.7007C71.961 25.7007 74.361 25.7007 76.601 25.7007C77.561 25.7007 78.041 26.0208 77.881 26.981C77.721 31.4622 77.561 35.9433 77.401 40.4245C77.401 42.0249 76.281 42.1849 75.161 42.505C73.561 42.8251 74.041 41.3847 73.721 40.7445C73.241 39.1441 73.081 37.7038 72.601 36.1033C71.641 32.4224 70.521 31.3021 66.681 31.1421C65.081 31.1421 63.641 31.1421 62.041 31.1421C60.121 31.1421 59.321 31.9423 59.321 33.8628C59.321 36.2634 59.801 38.824 59.961 41.2247C59.961 41.8648 60.441 42.8251 59.321 42.8251C58.201 42.8251 58.521 42.0249 58.361 41.3847C57.721 36.7435 58.361 31.9423 58.041 27.1411C58.041 26.1808 58.521 26.0208 59.321 26.0208C62.681 25.7007 65.881 25.7007 69.241 25.7007H69.561Z" fill="#5F6060"/>
<path d="M66.8398 42.6649C65.7198 42.6649 64.5998 42.5048 63.6398 42.6649C61.7198 43.145 61.5598 42.1847 61.5598 40.7444C61.5598 38.6638 61.0797 36.5833 60.9197 34.5028C60.7597 32.9024 61.2398 32.2622 62.8398 32.2622C64.5998 32.2622 66.1998 32.4223 67.9598 32.5823C70.0398 32.5823 70.9997 33.8626 71.4797 35.7831C71.9597 37.7036 72.1197 39.6241 72.5997 41.5446C72.7597 42.3448 72.5998 42.6649 71.6398 42.6649C70.0398 42.6649 68.4398 42.6649 66.8398 42.6649Z" fill="#CEC8C8"/>
<path d="M54.2005 34.983C54.2005 37.3836 54.2005 39.7842 54.2005 42.0248C54.2005 42.6649 54.2005 43.1451 53.4005 43.3051C52.6005 43.3051 52.2805 42.985 52.1205 42.3449C51.6405 40.2643 52.1205 38.1838 51.4805 36.1033C51.1605 35.3031 51.1605 34.3428 50.8405 33.5426C50.3605 31.9422 49.2405 31.142 47.6405 31.142C47.1605 31.142 46.6805 31.142 46.3605 31.142C43.4805 31.142 43.4805 31.142 43.4805 28.2612C43.4805 26.6608 43.9605 26.0207 45.5605 26.3408C47.9605 26.6608 50.5205 26.8209 52.9205 26.6608C54.0405 26.6608 54.2005 27.141 54.2005 28.1012C54.2005 30.5018 54.2005 32.9024 54.2005 35.143V34.983Z" fill="#5F6060"/>
<path d="M44.922 31.782C45.242 31.782 45.562 31.782 45.722 31.782C49.082 32.1021 49.402 32.2621 50.042 35.4629C50.522 37.7035 50.5219 39.9441 50.6819 42.3447C50.6819 42.9848 50.5219 43.3049 49.8819 43.3049C48.2819 43.3049 46.6819 43.3049 45.0819 42.8248C43.9619 42.5047 43.482 41.7045 43.322 40.7443C42.842 38.0236 42.8419 35.3029 43.0019 32.5822C43.0019 30.8217 44.282 32.1021 44.762 31.782H44.922Z" fill="#CEC8C8"/>
<path d="M157.401 18.4987C157.401 21.5395 157.401 23.9401 157.401 26.3407C157.401 30.9819 157.721 35.463 157.081 40.1042C156.921 41.5446 156.281 42.0247 154.841 42.0247C151.321 42.0247 151.321 42.0247 150.681 38.8239C150.361 37.3835 150.201 35.9431 150.041 34.5028C149.721 32.2622 148.921 31.462 146.681 31.462C145.401 31.462 144.921 31.1419 144.921 29.7015C144.921 26.5007 144.921 23.46 144.921 20.2591C144.921 17.6985 145.241 17.5384 147.801 17.5384C148.601 17.5384 149.401 17.5384 150.041 17.5384C150.841 17.5384 151.481 17.2184 152.441 17.5384C150.681 20.7393 148.281 23.46 147.321 26.9809C149.081 25.2204 150.041 22.9798 151.321 21.0593C151.801 20.2591 152.281 19.619 152.761 18.8188C153.561 17.2184 154.681 17.0583 156.441 17.5384C154.681 20.5792 153.081 23.46 151.321 26.5007C153.881 24.5802 155.001 21.5395 157.081 18.6587L157.401 18.4987Z" fill="#5F6060"/>
<path d="M145.081 35.7831C145.081 35.303 145.081 34.8228 145.081 34.5028C145.401 33.8626 144.441 32.5823 145.881 32.5823C147.001 32.5823 148.441 32.5823 148.601 34.1827C148.921 36.2632 149.241 38.1837 149.561 40.2642C149.561 40.9044 150.361 42.0247 149.081 42.3448C147.961 42.6649 146.681 42.6649 145.881 41.3845C145.241 40.1042 145.241 38.8239 145.081 37.5435C145.081 36.9034 145.081 36.4233 145.081 35.7831Z" fill="#CEC8C8"/>
<path d="M139.64 41.3845C139.48 46.8259 139.48 52.4274 139.64 57.8687C139.64 60.1093 139.16 60.9095 136.92 60.9095C133.56 60.9095 130.2 60.9095 127 60.9095C124.28 60.9095 123 59.6292 123 57.0685C123 46.8259 121.88 36.5833 122.2 26.1807C122.2 25.8606 122.2 25.3804 122.2 25.0604C122.36 21.2194 123 20.7393 126.84 20.7393C129.72 20.7393 132.76 20.7393 135.64 20.7393C138.2 20.7393 139.32 21.8595 139.32 24.2602C139.48 30.0216 139.96 35.7831 139.64 41.5446V41.3845ZM124.76 22.6597C123.8 22.9798 124.12 23.9401 123.96 24.5802C123.32 30.3417 123.96 36.2632 123.96 42.0247C124.12 46.986 124.44 51.9472 124.6 56.9085C124.6 58.3489 125.4 59.1491 126.84 59.1491C130.04 59.1491 133.4 59.1491 136.6 59.1491C137.72 59.1491 138.04 58.669 138.04 57.7087C138.04 57.2286 138.2 56.9085 138.2 56.4284C138.36 46.0257 138.2 35.7831 137.72 25.3804C137.72 24.7403 137.56 24.2602 137.4 23.62C137.4 23.2999 137.4 22.8198 136.92 22.6597C136.44 22.6597 136.44 23.1399 136.12 23.4599C135.48 24.7403 135 26.1806 133.56 27.3009C133.56 25.0604 135.16 23.78 135.48 22.0196C133.72 21.3794 132.76 22.0196 131.96 23.62C131 25.2204 130.36 26.9809 128.6 28.7413C128.6 25.7005 130.84 24.2602 131.48 21.8595C129.08 22.3397 126.68 21.2194 124.6 22.8198L124.76 22.6597Z" fill="#12100D"/>
<path d="M21.0803 37.8636C21.4003 34.3427 21.0803 28.9013 21.0803 23.4599C21.0803 21.0593 22.0403 20.2591 24.4403 19.939C27.9603 19.6189 31.4803 19.4589 35.0003 19.779C36.9203 19.939 38.0403 21.0593 38.2003 22.9798C38.3603 26.3406 38.8403 29.5415 38.6803 32.9023C38.6803 41.3845 39.1603 49.7066 38.5203 58.1888C38.3603 60.5894 37.5603 61.2296 35.1603 61.2296C32.4403 61.2296 29.8803 61.5496 27.1603 61.7097C23.0003 62.0298 21.5603 60.7494 21.2403 56.5884C21.0803 50.9869 20.7603 45.3855 21.0803 37.8636ZM35.9603 22.1796C35.9603 21.0593 35.0003 21.3794 34.3603 21.3794C31.6403 21.0593 28.9203 21.3794 26.2003 21.3794C23.1603 21.6995 22.5203 22.3396 22.5203 25.5404C22.5203 33.0624 22.5203 40.4242 22.6803 47.9462C22.6803 51.307 22.6803 54.6679 23.1603 58.0287C23.3203 59.3091 23.8003 59.7892 25.0803 59.7892C28.6003 59.7892 32.1203 59.7892 35.6403 59.6292C36.7603 59.6292 37.0803 59.149 36.7603 58.0287C37.2403 56.7484 37.4003 55.308 37.2403 53.8677C37.2403 49.8666 36.7603 46.0257 37.0803 42.0247C37.5603 36.2632 36.7603 30.6617 36.9203 24.9003C36.9203 23.94 37.2403 22.6597 35.9603 22.1796Z" fill="#141111"/>
<path d="M36.9205 62.8301C38.2005 62.9901 38.5205 63.9504 38.6805 64.9106C38.6805 66.0309 38.0405 66.9911 36.9205 66.9911C35.8005 66.9911 35.4805 65.8709 35.4805 64.9106C35.4805 63.7903 36.1205 63.1502 37.0805 62.8301H36.9205ZM37.0805 66.0309C37.4005 65.7108 37.8805 65.3907 37.7205 64.7506C37.7205 64.2704 37.4005 63.6303 36.7605 63.7903C36.2805 63.7903 36.1205 64.4305 36.2805 64.9106C36.2805 65.3907 36.2805 65.8709 37.0805 66.0309Z" fill="#141111"/>
<path d="M163.961 29.5416C164.281 28.5814 164.921 27.7812 165.561 26.981C165.561 28.1012 164.921 29.0615 164.281 29.8617C164.281 29.8617 164.121 29.7017 163.961 29.5416Z" fill="#141111"/>
<path d="M166.201 26.0205C166.201 26.0205 166.201 26.1805 166.201 26.3406C166.041 26.0205 166.201 26.1805 166.201 26.0205Z" fill="#141111"/>
<path d="M163.961 29.5415C163.961 29.5415 164.121 29.7015 164.281 29.8616C163.961 29.8616 163.961 29.8616 163.961 29.5415Z" fill="#12100D"/>
<path d="M169.881 77.7139C170.841 77.5539 171.641 77.3938 172.761 77.0737C171.801 78.5141 170.841 78.3541 170.041 78.194C170.041 78.034 170.041 77.8739 170.041 77.7139H169.881Z" fill="#141111"/>
<path d="M157.401 68.7515C156.761 68.4315 156.601 67.9513 156.601 67.1511C157.081 67.4712 157.561 67.9513 157.401 68.7515Z" fill="#12100D"/>
<path d="M74.041 78.0341C74.841 77.554 75.801 77.2339 76.761 77.2339C76.121 78.6743 75.001 78.3542 74.041 78.0341Z" fill="#141111"/>
<path d="M61.5605 68.7516C61.2405 68.7516 61.0805 68.2715 61.2405 67.9514C61.5605 67.9514 61.7205 68.4315 61.5605 68.7516Z" fill="#141111"/>
<path d="M164.761 76.1136C164.761 78.034 163.321 79.4744 161.561 79.3144C159.801 79.3144 158.201 77.2338 158.361 75.4734C158.361 73.5529 159.641 72.7527 161.881 72.7527C163.481 72.7527 164.921 74.1931 164.761 76.1136ZM161.081 73.7129C159.961 73.7129 159.161 74.3531 159.001 75.4734C159.001 76.5937 160.121 78.1941 161.401 78.3541C162.841 78.3541 163.641 77.7139 163.961 76.2736C164.281 74.9933 162.841 73.873 161.241 73.7129H161.081Z" fill="#141111"/>
<path d="M162.04 85.0759C162.04 85.556 162.04 86.3562 161.56 86.3562C160.76 86.3562 160.92 85.396 160.92 84.9158C160.92 84.4357 160.92 83.6355 161.4 83.6355C162.2 83.6355 161.88 84.5957 161.88 85.0759H162.04Z" fill="#141111"/>
<path d="M65.7211 70.1919C69.2411 70.1919 71.8011 72.4325 71.8011 75.3132C71.8011 79.4743 69.7211 82.0349 66.3611 82.0349C62.8411 82.0349 60.1211 79.6343 60.1211 76.4335C60.1211 72.2724 61.8811 70.1919 65.5611 70.1919H65.7211ZM65.5611 72.9126C63.3211 72.9126 62.2011 74.0329 62.2011 75.9534C62.2011 77.8739 63.9611 79.4743 65.7211 79.4743C67.4811 79.4743 69.0811 77.7138 69.0811 75.9534C69.0811 74.353 67.3211 72.9126 65.5611 72.9126Z" fill="#5F6060"/>
<path d="M124.761 22.6598C126.841 21.0594 129.241 22.1797 131.641 21.6995C130.841 24.1001 128.761 25.7006 128.761 28.5813C130.521 26.9809 131.321 25.0604 132.121 23.46C132.921 22.0196 133.881 21.2194 135.641 21.8596C135.321 23.62 133.561 24.9004 133.721 27.1409C135.001 26.0206 135.481 24.5803 136.281 23.2999C136.441 22.9799 136.601 22.4997 137.081 22.4997C137.561 22.4997 137.401 23.1399 137.561 23.46C137.561 24.1001 137.881 24.5803 137.881 25.2204C138.201 35.6231 138.521 45.8657 138.361 56.2684C138.361 56.7485 138.361 57.0686 138.201 57.5487C137.721 57.3887 137.081 57.2286 136.601 57.3887C133.721 58.0288 130.681 57.7087 127.801 57.8688C126.521 57.8688 126.201 57.3887 126.201 56.2684C126.201 53.8678 125.881 51.6272 125.881 49.2266C125.881 42.0247 125.881 34.8229 125.881 27.6211C125.881 26.0206 125.881 24.2602 125.241 22.6598H124.761Z" fill="#5F6060"/>
<path d="M124.761 22.66C125.241 24.2604 125.401 25.8609 125.401 27.6213C125.401 34.8232 125.401 42.025 125.401 49.2268C125.401 51.6275 125.721 53.868 125.721 56.2686C125.721 57.549 126.041 58.0291 127.321 57.869C130.201 57.869 133.241 58.0291 136.121 57.3889C136.761 57.3889 137.241 57.3889 137.721 57.549C137.721 58.5092 137.401 59.1494 136.281 58.9893C133.081 58.9893 129.721 58.9893 126.521 58.9893C125.081 58.9893 124.281 58.1891 124.281 56.7488C124.121 51.7875 123.801 46.8262 123.641 41.8649C123.481 36.1035 122.841 30.342 123.641 24.4205C123.641 23.6203 123.641 22.8201 124.441 22.5L124.761 22.66Z" fill="#F5F5F1"/>
<path d="M35.9609 22.1797C37.2409 22.8199 36.9209 23.9401 36.9209 24.9004C36.9209 30.6619 37.5609 36.2633 37.0809 42.0248C36.7609 45.8657 37.0809 49.8668 37.2409 53.8678C37.2409 55.3082 37.2409 56.5885 36.7609 58.0289C33.2409 58.0289 29.5609 58.1889 26.0409 58.0289C25.0809 58.0289 24.7609 57.7088 24.7609 56.9086C24.7609 55.4682 24.6009 54.1879 25.4009 52.9076C27.3209 49.3867 29.4009 45.8658 31.3209 42.5049C31.9609 41.5446 32.4409 40.4244 32.6009 39.144C29.2409 42.5049 27.0009 46.826 24.6009 51.1471C24.1209 49.0666 24.4409 47.4661 25.0809 45.8657C27.1609 41.2246 29.7209 36.9035 31.8009 32.4223C32.1209 31.9422 32.6009 31.302 32.1209 30.3418C28.9209 34.6629 26.6809 39.144 23.9609 44.1053C23.9609 42.6649 23.9609 41.8647 23.9609 41.0645C23.9609 36.2633 23.9609 31.4621 23.9609 26.6608C23.9609 23.7801 23.9609 23.9401 26.8409 23.46C29.8809 22.9799 33.0809 23.46 36.1209 22.3397L35.9609 22.1797Z" fill="#5F6060"/>
<path d="M35.9613 22.1796C32.9213 23.1399 29.7213 22.8198 26.6813 23.2999C23.8013 23.78 23.8013 23.62 23.8013 26.5007C23.8013 31.302 23.8013 36.1032 23.8013 40.9044C23.8013 41.7046 23.8013 42.5048 23.8013 43.9452C26.6813 39.144 28.9213 34.5028 31.9613 30.1817C32.4413 31.1419 31.9613 31.7821 31.6413 32.2622C29.5613 36.9034 26.8413 41.2245 24.9213 45.7057C24.2813 47.3061 23.9613 48.9065 24.4413 50.987C27.0013 46.6659 29.0813 42.5048 32.4413 38.9839C32.4413 40.2643 31.8013 41.2245 31.1613 42.3448C29.0813 45.8657 27.1613 49.2266 25.2413 52.7475C24.4413 54.1878 24.6013 55.4681 24.6013 56.7485C24.6013 57.5487 25.0813 57.8688 25.8813 57.8688C29.4013 58.0288 33.0813 57.8688 36.6013 57.8688C36.9213 58.989 36.6013 59.3091 35.4813 59.4692C31.9613 59.6292 28.4413 59.7893 24.9213 59.6292C23.6413 59.6292 23.1613 59.1491 23.0013 57.8688C22.5213 54.5079 22.6813 51.147 22.5213 47.7862C22.5213 40.2643 22.5213 32.9024 22.3613 25.3805C22.3613 22.1796 23.0013 21.5395 26.0413 21.2194C28.7613 21.0594 31.4813 20.7393 34.2013 21.2194C34.8413 21.2194 35.8013 20.8993 35.8013 22.0196L35.9613 22.1796Z" fill="#F5F5F1"/>
<path d="M37.0813 66.0309C36.4412 66.0309 36.2812 65.3907 36.2812 64.9106C36.2812 64.4305 36.2813 63.9503 36.7613 63.7903C37.4013 63.7903 37.5613 64.2704 37.7213 64.7505C37.7213 65.3907 37.4013 65.7108 37.0813 66.0309Z" fill="#CEC8C8"/>
<path d="M161.081 73.7128C162.841 73.8728 164.121 74.9931 163.801 76.2734C163.481 77.5537 162.681 78.514 161.241 78.354C159.961 78.354 158.681 76.7535 158.841 75.4732C158.841 74.3529 159.961 73.5527 160.921 73.7128H161.081Z" fill="#F5F5F1"/>
<path d="M65.5593 72.9126C67.3193 72.9126 69.0792 74.353 69.0792 75.9534C69.0792 77.7138 67.4792 79.4743 65.7192 79.4743C63.9592 79.4743 62.1992 77.8739 62.1992 75.9534C62.1992 74.0329 63.3193 72.9126 65.5593 72.9126ZM64.7593 73.7128C63.7993 73.8728 62.9992 74.513 62.9992 75.6333C62.9992 76.7536 64.2793 78.1939 65.5593 78.1939C66.9993 78.1939 67.7993 77.3937 67.9593 75.9534C67.9593 74.8331 66.5193 73.5528 64.7593 73.5528V73.7128Z" fill="#141111"/>
<path d="M64.7601 73.7129C66.3601 73.7129 67.9601 74.8332 67.9601 76.1135C67.9601 77.3938 67.0001 78.3541 65.5601 78.3541C64.2801 78.3541 63 76.9137 63 75.7934C63 74.6731 63.8001 74.033 64.7601 73.8729V73.7129Z" fill="#F5F5F1"/>
</svg>
