<svg width="138" height="141" viewBox="0 0 138 141" fill="none" xmlns="http://www.w3.org/2000/svg">
<g id="Frame 478">
<circle id="Ellipse 55" cx="68.9992" cy="72.0001" r="66.0714" fill="#B9E199" stroke="black" stroke-width="5"/>
<g id="Group">
<path id="Vector" d="M5.87695 114.212C7.04372 109.674 10.2847 106.821 14.3036 104.746C14.8222 104.487 15.0815 104.098 15.2111 103.449C15.6 84.2575 23.2488 67.7889 34.1386 52.4874C36.9907 48.3378 40.1021 44.4476 43.4728 40.5574C41.2689 39.0013 39.5836 37.0562 38.1575 34.9814C34.2683 29.1461 34.3979 22.014 38.5464 16.4381C41.7875 12.0291 47.7509 10.7324 52.5476 13.0665C52.8069 13.0665 52.9366 13.3259 53.3255 13.4556C55.3998 8.13892 58.6408 3.98937 64.0857 1.91459C71.0863 -0.678892 78.2165 -0.289882 85.2171 2.04425C88.847 3.34099 92.2177 4.89707 94.8105 7.87957C95.3291 8.39827 95.8477 8.91697 96.1069 9.56534C96.6255 10.6027 97.0144 10.8621 98.3108 10.3434C101.033 9.306 103.626 9.95437 105.7 12.0292C108.941 15.1413 109.59 18.9019 108.423 23.0514C106.737 28.7571 103.626 33.4253 98.3108 36.4078C97.6626 36.7968 97.4033 37.0562 97.6626 37.8342C98.1811 39.131 97.9219 40.5574 97.9219 41.9838C97.9219 42.5025 97.9219 43.0212 98.4405 43.4102C102.33 46.3927 104.404 50.672 106.219 54.9512C106.608 55.9886 107.126 56.2479 108.164 56.3776C110.367 56.5073 112.442 57.415 113.738 59.1008C117.109 63.5097 118.924 68.567 118.146 74.2726C117.757 76.7364 116.46 78.8112 114.516 80.4969C113.738 81.275 113.608 81.7937 113.997 82.8311C118.146 93.0753 119.572 103.709 118.924 114.601C118.924 116.287 119.183 117.584 120.22 118.88C122.813 122.641 122.554 128.347 119.572 132.367C115.812 137.424 110.627 139.369 104.793 137.813C99.4775 136.386 94.1623 136.516 88.847 136.905C82.1057 137.424 75.2347 137.294 68.4934 136.775C59.2889 135.997 50.0845 134.571 41.0096 133.145C31.8051 131.588 22.7302 129.514 14.0443 125.753C12.359 124.975 10.8033 124.197 9.37727 123.03C7.43266 121.474 6.65484 119.269 6.00664 117.065V114.212H5.87695ZM96.8848 135.09C99.3479 134.83 101.811 135.738 104.404 136.386C111.534 138.202 118.016 134.571 120.09 127.698C121.257 123.938 120.09 120.696 118.146 117.584C117.887 117.065 117.627 116.676 117.627 116.028C118.275 104.616 116.979 93.4643 112.571 82.8311C112.182 81.7937 112.182 80.886 113.09 80.2376C117.368 76.6067 117.757 72.0682 116.331 67.1406C115.034 62.602 113.09 58.3227 107.645 57.5447C105.83 57.2853 105.182 56.2479 104.534 54.8215C102.848 50.8016 100.904 46.9114 97.1441 44.3179C96.4959 43.9289 96.3662 43.2806 96.3662 42.5025C96.3662 41.0761 96.6255 39.6497 96.1069 38.3529C95.5884 37.0562 95.9773 36.2782 97.2737 35.5001C102.2 32.5176 105.311 27.979 106.737 22.4031C107.126 20.847 107.256 19.1612 106.867 17.4755C105.7 12.4182 101.293 10.084 96.7552 12.1588C95.718 12.5478 95.4587 12.1588 95.0698 11.3808C93.903 9.43567 92.3473 8.00926 90.5323 6.8422C84.6985 3.08166 78.2165 1.52555 71.3455 2.04425C63.1782 2.56294 57.2147 6.45316 53.844 14.1039C53.4551 15.0116 53.0662 15.1413 52.1587 14.6226C50.3437 13.4556 48.2695 12.9369 46.0656 13.3259C39.9725 14.3633 35.5647 20.5876 36.3425 26.9417C36.9907 32.2583 40.2318 36.0188 43.6025 39.6497C44.6396 40.8167 44.2507 41.0761 43.6025 41.7245C40.2318 46.0037 36.9908 50.2829 33.8794 54.8215C23.6378 69.6044 16.8964 85.6839 15.9889 103.838C15.9889 104.876 15.4704 105.524 14.5629 105.913C12.8776 106.821 11.3219 107.858 9.89586 109.025C4.71023 113.434 6.52519 121.993 12.2294 124.197C15.8593 125.623 19.6189 126.791 23.3785 127.958C33.1015 130.681 43.0839 132.237 53.0662 133.663C63.3078 135.09 73.5495 136.127 83.7911 135.738C87.9396 135.608 92.088 135.349 96.3662 135.09H96.8848Z" fill="#141111"/>
<path id="Vector_2" d="M96.8845 135.09C92.6063 135.349 88.4578 135.608 84.3093 135.738C73.938 136.127 63.6964 135.09 53.5844 133.663C43.6021 132.237 33.6198 130.681 23.8967 127.958C20.1371 126.92 16.3775 125.623 12.7476 124.197C7.04339 121.993 5.22843 113.434 10.4141 109.025C11.8401 107.858 13.3958 106.821 15.0812 105.913C15.859 105.394 16.3776 104.876 16.5072 103.838C17.4147 85.6839 24.156 69.6044 34.3976 54.8216C37.509 50.4126 40.75 46.0037 44.1207 41.7245C44.7689 40.9464 45.0281 40.8168 44.1207 39.6497C40.75 36.0188 37.509 32.2583 36.8608 26.9417C36.2126 20.5877 40.4907 14.3633 46.5839 13.3259C48.7878 12.9369 50.862 13.3259 52.677 14.6227C53.4548 15.1413 53.9734 15.0117 54.3623 14.1039C57.6033 6.45318 63.5668 2.56296 71.8638 2.04427C78.7348 1.52557 85.2168 3.08168 91.0506 6.84222C92.8656 8.00928 94.5509 9.4357 95.5881 11.3808C95.977 12.0292 96.3659 12.5479 97.2734 12.1588C101.811 10.0841 106.219 12.4182 107.385 17.4755C107.774 19.1612 107.645 20.7173 107.256 22.4031C105.83 27.9791 102.718 32.5176 97.792 35.5001C96.4956 36.2782 96.2362 37.0562 96.6252 38.353C97.1437 39.6497 96.8845 41.0761 96.8845 42.5025C96.8845 43.2806 96.8844 43.7993 97.6623 44.318C101.422 46.9114 103.237 50.9313 105.052 54.8216C105.7 56.248 106.219 57.2854 108.163 57.5447C113.608 58.3227 115.423 62.602 116.849 67.1406C118.275 72.0682 117.886 76.7364 113.608 80.2376C112.701 81.0157 112.701 81.7937 113.09 82.8311C117.497 93.4644 118.794 104.616 118.146 116.028C118.146 116.676 118.275 117.065 118.664 117.584C120.479 120.696 121.775 123.938 120.609 127.698C118.534 134.571 112.052 138.202 104.922 136.386C102.329 135.738 99.8662 134.701 97.4031 135.09H96.8845ZM91.3099 128.347C91.8285 128.347 92.2174 128.347 92.7359 128.347C95.3288 127.958 97.7919 128.347 100.255 129.514C103.366 131.07 106.607 131.199 109.978 130.292C114.516 129.125 115.164 126.791 112.052 123.419C111.404 122.771 111.275 122.122 111.404 121.215C112.441 114.99 112.701 108.766 112.182 102.542C111.404 95.0204 108.941 88.0181 106.478 81.0157C106.089 79.7189 106.219 79.2002 107.385 78.6815C110.756 77.2551 111.663 75.699 111.275 72.4572C111.015 68.567 108.034 65.5845 103.755 65.0658C102.848 65.0658 102.589 64.5471 102.329 63.8987C100.125 58.0634 97.2734 52.7468 93.5138 47.6895C92.736 46.6521 91.5692 45.7444 93.2545 44.4476C93.5138 44.318 93.5138 43.9289 93.6434 43.5399C94.0324 41.9838 93.6434 40.6871 93.1248 39.131C92.6063 37.8343 93.3842 35.8892 92.6063 34.4627C92.0878 33.6847 92.2174 33.4254 92.8656 32.9067C95.977 30.1835 98.9587 27.4604 101.94 24.7372C103.496 23.3108 103.496 22.9218 102.329 21.236C101.94 20.7173 101.552 20.1986 101.033 19.6799C99.4773 17.7348 97.5327 16.8271 95.1991 17.7348C92.736 18.6425 91.3099 17.7348 89.8838 15.66C86.9021 11.1214 81.8461 9.30601 76.5308 10.6028C72.1231 11.7698 67.7153 12.9369 63.4372 14.2336C59.6776 15.4007 56.5662 17.4755 54.103 20.5876C53.3252 21.4954 52.5473 21.625 51.5102 21.3657C50.6027 21.1063 49.6953 20.7173 48.7878 20.5876C47.3617 20.3283 46.1949 20.847 45.4171 22.0141C44.7689 23.1811 44.8985 24.3482 45.806 25.2559C48.2691 27.7197 50.3435 30.7022 53.3252 32.6473C53.9734 33.0363 54.103 33.2957 53.5844 33.9441C51.8991 35.6298 53.0659 38.353 51.5102 40.0387C51.5102 40.0387 51.5102 40.6871 51.7695 40.8168C52.5473 41.4651 51.8991 41.7245 51.5102 42.1135C43.3428 50.8017 35.9533 59.8788 30.7677 70.7714C25.1931 82.7014 21.5632 95.0204 20.6557 108.118C20.6557 108.896 20.2668 109.155 19.7482 109.544C18.5814 110.192 17.2851 110.97 16.3776 112.008C15.0812 113.434 14.6922 115.379 15.4701 116.676C16.7665 118.751 18.7111 120.048 21.3039 119.529C22.6003 119.269 23.7671 119.529 24.9338 120.177C27.7859 121.604 30.7677 122.641 33.7494 123.419C40.75 125.234 47.8802 126.142 54.8808 127.439C61.4925 128.606 68.2338 129.254 74.9751 128.347C77.6976 127.958 80.4201 127.439 83.2722 127.698C85.865 127.958 88.5874 128.087 91.1802 128.217L91.3099 128.347Z" fill="#FAFAFA"/>
<path id="Vector_3" d="M91.3105 128.347C88.7177 128.217 85.9952 128.087 83.4024 127.828C80.5503 127.569 77.8279 128.087 75.1054 128.476C68.3641 129.384 61.6228 128.736 55.0111 127.569C48.0105 126.272 40.8803 125.364 33.8797 123.549C30.7683 122.771 27.7865 121.733 25.064 120.307C23.8973 119.788 22.8602 119.399 21.4341 119.659C18.8413 120.177 16.8967 119.01 15.6003 116.806C14.8224 115.509 15.2114 113.564 16.5078 112.138C17.4153 111.1 18.7116 110.322 19.8784 109.674C20.397 109.285 20.7859 109.025 20.7859 108.247C21.6934 95.1503 25.1937 82.8312 30.8979 70.9012C36.0835 60.0086 43.473 50.8018 51.6404 42.2433C52.0293 41.8543 52.6775 41.5949 51.8997 40.9466C51.77 40.8169 51.5107 40.2982 51.6404 40.1685C53.1961 38.3531 52.0294 35.7596 53.7147 34.0739C54.2332 33.5552 54.1036 33.2958 53.4554 32.7771C50.4736 30.832 48.3994 27.8495 45.9362 25.3857C45.0287 24.478 44.7695 23.3109 45.5473 22.1438C46.3252 20.8471 47.4919 20.4581 48.918 20.7174C49.8254 20.8471 50.7329 21.2361 51.6404 21.4955C52.6775 21.7548 53.4553 21.7548 54.2332 20.7174C56.6964 17.6053 59.8078 15.5305 63.5673 14.3634C67.8455 12.937 72.2533 11.7699 76.6611 10.7326C81.9764 9.43581 86.9027 11.2512 90.0141 15.7898C91.4401 17.8646 92.8661 18.7723 95.3293 17.8646C97.7925 16.9569 99.6075 17.8646 101.163 19.8097C101.552 20.3284 102.071 20.8471 102.46 21.3658C103.626 23.0516 103.626 23.4406 102.071 24.867C99.0889 27.5901 95.9775 30.443 92.9958 33.0365C92.3476 33.5552 92.3476 33.8145 92.7365 34.5925C93.644 36.019 92.7365 37.8344 93.2551 39.2608C93.7737 40.8169 94.1625 42.1136 93.7736 43.6697C93.7736 43.9291 93.644 44.3181 93.3847 44.5774C91.829 45.8742 92.8662 46.7819 93.644 47.8193C97.4036 52.7469 100.256 58.1932 102.46 64.0285C102.719 64.8066 102.978 65.0659 103.886 65.1956C108.164 65.7143 111.146 68.5671 111.405 72.587C111.664 75.8288 110.757 77.3849 107.516 78.8113C106.219 79.33 106.09 79.8487 106.608 81.1455C109.071 88.1479 111.534 95.1503 112.312 102.671C112.961 108.896 112.572 115.25 111.534 121.344C111.405 122.252 111.534 122.9 112.183 123.549C115.424 126.92 114.775 129.254 110.108 130.422C106.867 131.2 103.497 131.07 100.385 129.643C97.9222 128.476 95.5887 128.087 92.8662 128.476C92.3476 128.476 91.9587 128.476 91.4401 128.476L91.3105 128.347ZM90.7919 42.373C90.1437 40.5575 88.9769 41.7246 87.8102 41.8543C88.3287 42.373 88.7177 42.6323 89.1066 43.0213C89.4955 43.54 90.014 44.1884 90.5326 44.7071C90.7919 44.9665 90.7919 45.6148 91.4401 45.0961C91.829 44.7071 92.4772 44.3181 92.0883 43.6697C91.829 43.151 91.3105 42.762 90.9216 42.2433L90.7919 42.373ZM65.7713 47.5599C64.4748 49.505 66.5491 50.6721 66.8084 52.3579C67.1973 51.7095 67.4566 51.1908 67.327 50.6721C68.753 46.9116 68.753 47.949 66.1602 45.6148C66.0305 46.2632 65.7713 46.9116 65.6416 47.4302L65.7713 47.5599ZM58.1224 35.7596C57.4742 37.0563 55.7889 36.6673 55.0111 37.7047C56.0482 38.6124 57.3446 38.8718 58.5114 39.2608C59.2892 39.5202 59.2892 38.6124 59.6781 38.3531C59.9374 38.2234 60.067 37.9641 59.6781 37.7047C59.2892 37.3157 58.9003 37.7047 58.5114 37.7047C57.8632 37.8344 57.215 38.4828 56.3075 37.9641C57.0853 37.186 58.1225 37.186 58.9003 36.6673C58.5114 36.2783 58.1225 36.019 57.8632 35.6299C55.0111 32.6474 55.0111 33.1661 53.4554 35.6299C53.4554 35.6299 53.4554 35.6299 53.4554 35.7596C53.3257 36.1486 53.0665 36.408 53.4554 36.6673C53.7147 36.9267 53.974 36.6673 54.3629 36.6673C55.5296 36.2783 56.6964 35.5003 57.9928 35.6299L58.1224 35.7596ZM60.9745 44.4478C60.5856 44.1884 60.1967 43.9291 59.8078 43.6697C59.3757 44.7071 59.5053 45.6148 60.1967 46.3929C60.8449 47.6896 61.3635 48.8567 62.1413 50.4128C62.271 48.8567 62.271 47.5599 62.5302 46.3929C62.9192 44.8368 62.4006 44.3181 60.8449 44.4478H60.9745ZM87.5509 43.2807C86.6434 41.9839 85.347 41.8543 83.2728 42.762C83.532 43.2807 83.921 43.6697 84.4395 44.0587C85.6063 47.0412 87.9398 46.1335 90.2734 45.7445C89.1066 45.0961 88.5881 44.0587 87.6806 43.4104L87.5509 43.2807ZM70.1791 55.47C70.4383 54.4327 70.6976 53.3953 71.0865 52.3579C71.7347 50.8018 71.3458 49.8941 69.9198 49.116C69.5308 48.4676 69.1419 48.338 68.8827 49.116C68.4937 50.1534 68.2344 51.3205 67.8455 52.3579C67.8455 52.7469 67.1973 53.1359 67.5863 53.6546C68.2345 54.8217 68.6233 56.2481 69.6605 57.4152C69.7901 56.6371 69.9197 55.9887 70.0494 55.3404L70.1791 55.47ZM76.7907 61.435C77.1796 61.1757 77.6982 60.9164 78.0871 60.657C81.3281 58.1932 81.3282 58.1932 78.3464 55.5997C78.2168 55.47 77.9575 55.3404 77.6982 55.2107C76.5314 57.1558 76.5314 59.4899 75.8832 61.5647C75.8832 61.6944 75.8833 62.0834 76.0129 62.0834C76.2722 62.0834 76.5314 61.8241 76.7907 61.5647V61.435ZM62.6598 43.54C63.9562 43.2807 64.9934 42.6323 64.8638 41.2059C64.8638 40.0389 64.2156 38.8718 62.7895 38.6124C61.7524 38.2234 60.8449 38.4828 60.1967 39.3905C59.5485 40.2982 59.4188 41.2059 60.067 42.2433C60.7152 43.2807 61.4931 43.7994 62.7895 43.54H62.6598ZM61.1042 55.2107C62.1413 52.4875 61.4931 50.0237 59.6781 47.8193C59.6781 47.1709 59.1596 46.7819 58.9003 46.3929C56.3075 49.505 57.215 52.3579 59.8078 54.9513C59.9375 55.081 60.0671 55.3404 60.1967 55.47C60.456 55.5997 60.456 56.2481 60.9745 55.9887C61.1042 55.9887 60.9746 55.47 61.1042 55.081V55.2107ZM71.7347 43.6697C73.5497 46.3929 76.4018 44.9664 78.6057 45.8742V45.4851C78.2168 45.0961 77.8279 44.5774 77.3093 44.1884C77.3093 43.6697 76.5314 43.54 76.5314 43.0213C77.9575 42.5026 78.3464 43.7994 79.2539 44.3181C80.4207 46.7819 82.4949 46.0038 84.6988 46.1335C83.9209 45.3555 83.4024 44.8368 82.8838 44.1884C82.3653 43.6697 82.106 42.762 81.3281 42.6323C77.8278 42.6323 74.3275 42.6323 70.6976 42.6323C71.2161 43.151 71.4754 43.4104 71.7347 43.6697ZM83.0135 37.3157C82.6245 37.3157 82.2357 37.3157 81.8467 37.4454C80.9392 37.575 79.9021 37.8344 78.9946 37.8344C78.4761 37.8344 78.0871 38.0937 77.8278 38.6124C76.7907 41.7246 76.0128 41.3356 79.5131 41.2059C80.0317 41.2059 80.4207 41.2059 80.9392 41.2059C81.1985 41.2059 81.5874 41.2059 81.8467 41.2059C83.0135 41.2059 84.1802 41.2059 85.2174 40.8169C86.773 40.4279 85.347 38.7421 86.1249 37.8344C86.1249 37.7047 86.1248 37.4454 86.2545 37.3157C86.6434 36.5377 86.2545 36.408 85.6063 36.5376C84.6988 36.6673 83.9209 36.9267 83.0135 37.0563V37.3157ZM73.2904 62.2131C73.2904 62.2131 73.4201 62.3428 73.5497 62.4724C74.4572 62.7318 74.3276 61.9537 74.4572 61.5647C74.9758 60.1383 75.235 58.5822 75.7536 57.1558C76.3586 54.9946 75.6671 53.352 73.6793 52.2282C73.0311 51.3205 72.5126 51.3205 72.2533 52.6172C71.7347 54.5623 71.0865 56.6371 70.568 58.5822C70.568 58.8416 70.568 58.9712 70.568 59.1009C71.3458 60.268 71.994 61.6944 73.2904 62.3427V62.2131ZM53.4554 68.8264C53.0665 68.0484 52.5479 67.4 51.7701 66.7517C51.3811 68.3078 50.9922 69.7342 50.9922 71.1606C50.9922 73.365 51.3811 74.1431 53.585 75.1805C53.9739 75.5695 54.4925 75.5695 54.8814 75.8288C55.5296 76.0882 56.0482 75.8288 56.4371 75.3101C56.826 74.7914 57.0853 74.2728 56.4371 73.4947C55.4 71.9386 54.6222 70.3825 53.3258 68.9561L53.4554 68.8264ZM54.1036 58.8416C53.7147 59.1009 53.7147 59.3602 53.7147 59.7493C53.1961 61.435 52.6775 63.2505 52.159 64.9362C52.159 65.1956 51.7701 65.5846 52.159 65.844C54.3629 67.7891 55.7889 70.3825 57.4742 72.7167C57.9928 72.3276 57.8632 71.809 57.9928 71.2903C58.5114 69.4748 58.9003 67.6594 59.4188 65.844C59.6781 65.3253 59.9375 64.9362 59.8078 64.4175C60.0671 62.7318 60.4559 61.046 60.7152 59.2306C60.7152 58.5822 61.1042 57.8042 60.456 57.1558C59.5485 56.1184 58.7707 55.081 57.9928 54.0436C57.6039 53.3953 57.3446 52.8766 56.826 51.9688C55.9185 54.303 54.8814 56.3778 54.3629 58.7119L54.1036 58.8416ZM102.848 67.2704C102.848 66.8813 102.848 66.3626 102.2 66.3626C99.6074 66.4923 97.0146 66.622 94.6811 67.7891C92.0883 68.8265 90.6623 70.5122 90.6623 72.198C90.6623 73.7541 92.3476 75.1805 94.9404 75.8288H95.1997C95.7183 75.9585 96.1072 75.8288 96.4961 75.5695C97.1443 75.0508 97.7925 74.5321 98.4407 74.1431C98.9593 73.8837 99.4779 73.6244 99.9964 73.4947C100.515 73.2354 100.774 73.4947 100.645 74.0134C99.6075 74.6618 98.7 75.4398 97.4036 76.3475C101.552 76.3475 105.182 76.3475 108.423 73.8837C109.46 73.1057 109.979 72.0683 109.59 70.7716C109.071 69.3451 108.293 68.0484 106.608 67.7891C106.608 67.4 106.478 67.2704 106.089 67.1407C105.052 66.622 103.886 66.1033 102.848 67.1407V67.2704ZM63.9562 121.474C65.123 121.863 65.9009 122.771 67.0677 123.16C75.6239 126.272 84.5692 126.531 93.644 126.531C95.8479 126.531 97.9221 126.531 99.8667 127.698C102.719 129.125 105.701 129.644 108.942 128.865C112.96 127.958 113.22 127.05 110.368 124.068C109.719 123.289 109.201 122.511 109.33 121.474C109.979 117.843 110.238 114.212 110.238 110.581C110.238 106.691 110.238 102.801 109.201 99.0405C109.201 98.7811 109.201 98.5218 109.201 98.2624C108.164 92.2974 105.96 86.7215 104.404 80.7565C104.145 79.7191 103.626 79.9784 102.848 80.1081C98.9592 80.8861 95.07 81.0158 91.4401 78.941C90.5326 78.4223 89.6252 77.9036 89.3659 76.9959C88.3288 72.8463 88.9769 68.4374 93.7736 66.4923C95.9775 65.5846 98.3111 65.1956 100.645 65.0659C98.4407 59.3603 95.7183 54.1733 92.3476 49.2457C91.9587 48.5973 91.4401 47.949 91.0512 47.3006C90.6623 46.6522 90.2734 46.6522 89.6252 46.7819C83.2728 47.9489 76.9203 47.1709 70.6976 45.8742C69.5308 45.6148 68.4937 45.0961 66.938 45.2258C68.2345 46.2632 69.1419 47.1709 70.1791 47.949C71.994 49.6347 73.9386 51.0611 75.8832 52.4875C77.5685 53.6546 79.1243 55.081 80.5503 56.5074C81.5874 57.6745 81.5874 58.5822 80.5503 59.6196C78.6057 61.435 76.6611 63.1208 74.0683 63.8988C72.2533 63.6395 71.2162 62.4724 70.1791 61.046C67.5863 57.1558 65.512 52.8766 63.697 48.5973C63.5674 48.2083 63.4377 47.6896 62.9191 47.3006C62.6599 49.3754 62.4006 51.1908 62.2709 53.1359C61.882 56.2481 61.4931 59.4899 60.9745 62.6021C60.3263 66.622 59.6782 70.7716 58.2521 74.6618C57.7335 76.0882 56.826 77.3849 55.1407 77.6443C49.6958 76.2179 48.5291 74.2728 49.4366 68.6968C50.6033 62.7318 52.5479 57.1558 54.8814 51.5798C56.0482 48.727 57.215 45.7445 58.5114 42.8917C56.9557 42.762 55.4 42.6323 53.974 42.5027C53.1961 41.8543 52.8071 42.373 52.2886 42.8917C44.3805 51.5798 37.1206 60.657 32.0647 71.2903C26.3605 83.2203 22.7305 95.669 22.0823 108.896C22.0823 109.933 21.5638 110.581 20.6563 111.1C19.2302 111.878 17.8042 112.656 16.8967 114.083C15.7299 115.768 15.9892 116.417 17.6746 117.584C18.7117 118.492 19.8784 118.621 21.1748 118.362C22.6009 118.103 23.8973 118.362 25.1937 119.01C27.3976 120.048 29.4718 120.955 31.8054 121.604C38.1578 123.549 44.7695 124.457 51.3812 125.624C57.3446 126.791 63.1785 127.698 69.2716 127.698C70.9569 127.698 72.5126 127.439 74.1979 127.309V127.05C73.1608 126.791 72.2533 126.531 71.2162 126.272H70.568C70.3087 125.753 69.9198 125.883 69.5309 125.753C67.1973 124.846 65.123 123.679 63.1784 122.122V121.863C63.3081 121.863 63.5674 121.863 63.697 121.863L63.9562 121.474ZM71.0865 13.326C68.4937 13.7151 66.0305 14.4931 63.5673 15.2711C60.7152 16.1789 57.9928 17.6053 56.1778 19.9394C54.1036 22.5329 52.159 23.3109 49.1773 21.8845C48.2698 21.4955 47.103 21.4955 46.4548 22.6625C45.8065 23.6999 46.4548 24.6076 47.103 25.3857C48.3994 26.6824 49.6958 27.8495 50.8626 29.1462C52.5479 31.0913 54.1036 32.9068 57.0853 33.0365C55.6593 30.832 54.2332 28.6275 52.8072 26.2934C53.9739 26.6824 54.7518 27.5902 55.4 28.4979C57.4742 31.4804 59.6782 34.3332 62.1413 37.0563C62.5302 37.4454 62.9191 37.7047 63.308 37.575C63.8266 37.3157 63.308 36.9267 63.308 36.5376C62.5302 33.2958 61.7524 30.1836 60.8449 26.9418C60.8449 26.6824 60.456 26.4231 60.8449 26.1637C61.2338 26.1637 61.2338 26.4231 61.2338 26.6824C61.7524 27.7198 62.2709 28.8869 62.6598 30.054C63.4377 32.3881 64.0859 34.7222 64.7341 37.0563C64.8638 37.7047 65.123 38.0937 65.9009 38.0937C67.3269 38.0937 68.1048 37.7047 67.9752 36.1486C67.9752 35.6299 67.9751 34.9816 68.4937 34.5925C68.8826 35.3706 68.6233 36.1486 68.753 36.9267C68.753 37.4454 68.753 38.0937 69.5309 37.9641C70.3087 37.7047 71.7347 38.4828 71.994 37.3157C72.3829 34.7222 73.2904 32.3881 73.6793 29.7946C73.9386 29.6649 74.0683 29.2759 74.4572 29.4056C74.8461 29.5353 74.7164 29.9243 74.5868 30.1836C74.3275 31.61 74.0683 33.0365 73.809 34.3332C73.809 35.3706 72.7719 36.9267 73.5497 37.3157C74.5868 37.9641 75.4943 36.408 76.4018 35.6299C79.7725 32.9068 82.6245 29.7946 84.9581 26.1637C86.1248 26.1637 85.4766 26.9418 85.2174 27.2011C83.4024 30.5727 80.8096 33.2958 77.9575 35.7596C77.5686 36.1486 77.05 36.2783 76.7907 37.0563C80.6799 36.6673 84.4395 36.0189 88.0695 34.8519C88.7177 34.5925 89.4955 34.4629 90.0141 34.0739C93.7737 30.7023 97.5332 27.3308 101.163 23.9593C101.552 23.6999 101.811 23.3109 101.682 22.7922C101.034 20.1987 97.7925 18.124 95.3293 18.7723C92.6069 19.5504 90.7919 18.7723 89.1066 16.4382C86.2545 12.548 82.3652 10.8622 77.5685 11.5106C75.3646 11.7699 73.1608 12.4183 70.9569 13.1963L71.0865 13.326ZM65.2527 39.0014C65.9009 42.8917 68.753 41.0762 70.8273 41.3356C72.6422 41.5949 72.1237 39.5202 73.1608 38.6124C71.7347 38.7421 70.6976 38.6124 69.7901 39.0014C68.8826 39.2608 69.1419 40.9466 67.8455 41.0762C67.8455 40.1685 68.6234 39.7795 68.6234 39.0014H65.3823H65.2527ZM86.1249 40.8169C89.6252 40.8169 89.7548 39.9092 89.8844 35.6299C86.5137 35.6299 87.162 38.7421 86.1249 40.8169ZM76.6611 38.4828C74.0683 37.8344 73.5497 39.9092 72.5126 41.3356C74.6733 41.5085 76.0561 40.5575 76.6611 38.4828ZM70.3087 44.3181C69.9198 41.8543 67.9751 42.373 66.4195 42.2433C66.0305 42.2433 65.6416 42.2433 65.6416 42.762C65.6416 43.2807 65.9009 43.4104 66.2898 43.4104C67.7159 43.6697 69.1419 43.9291 70.3087 44.3181ZM55.2704 40.1685C55.2704 39.3905 54.2332 38.2234 53.7147 38.4828C52.9368 38.7421 52.5479 39.5202 52.5479 40.1685C52.5479 41.0762 53.7147 41.0762 54.3629 41.2059C55.2704 41.3356 55.2703 40.8169 55.1407 40.2982L55.2704 40.1685ZM90.403 39.9092C91.1808 39.5202 92.218 39.6498 92.218 39.2608C92.218 37.9641 92.2179 36.5376 91.4401 35.1112C91.0512 36.9267 90.7919 38.3531 90.403 40.0388V39.9092ZM101.293 77.6443C101.034 77.9036 99.8668 77.1256 99.7371 78.4223C99.7371 79.0707 99.8668 79.5894 100.645 79.4597C101.422 79.2004 102.46 79.719 102.719 78.552C102.719 78.0333 102.719 77.2552 101.293 77.6443ZM103.756 78.8113C104.663 78.2927 105.96 78.8113 106.219 77.3849C106.219 77.1256 106.219 76.4772 105.441 76.6069C104.015 76.7365 103.626 77.2552 103.756 78.941V78.8113ZM98.9592 79.4597C98.9592 77.6443 97.6629 77.6443 96.4961 77.5146C95.7183 77.5146 95.9776 78.2926 96.1072 78.552C96.7554 80.1081 98.0518 78.941 98.9592 79.33V79.4597ZM95.07 79.0707C94.6811 76.9959 94.5515 76.8662 92.8662 76.7366C92.6069 78.2926 93.644 78.8113 95.07 79.0707ZM64.7341 47.3006C65.3823 46.7819 65.2527 46.0038 65.3823 45.3555C65.6416 44.7071 64.9934 44.5774 64.6045 44.1884C64.3452 43.9291 64.0859 43.9291 63.8266 44.1884C63.4377 44.5774 63.8266 44.9665 63.9562 45.3555C64.2155 46.0038 64.4749 46.6522 64.7341 47.3006ZM57.7335 41.4653C58.5114 41.7246 58.641 41.4653 58.641 41.0762C58.641 39.7795 57.3446 40.4279 56.826 40.0388C56.4371 39.7795 56.1778 40.0389 56.1778 40.5575C56.1778 41.984 57.3446 41.3356 57.7335 41.5949V41.4653ZM91.4401 77.5146C92.2179 75.9585 91.1808 75.4398 90.0141 74.5321C90.5326 75.8288 90.0141 76.9959 91.4401 77.5146ZM107.127 77.6443C107.775 77.1256 108.682 77.2553 108.423 76.2179C108.423 75.9585 108.293 75.4398 107.645 75.6992C106.608 76.0882 106.997 76.7366 107.127 77.774V77.6443ZM110.238 73.8837C108.812 74.4024 109.071 75.1805 109.59 76.0882C110.497 75.4398 109.979 74.6618 110.238 73.8837Z" fill="#12100D"/>
<path id="Vector_4" d="M92.6077 49.2457C96.108 54.0436 98.8304 59.3603 100.905 65.0659C98.4415 65.0659 96.2376 65.5846 94.0337 66.4923C89.1074 68.4374 88.4592 72.8463 89.626 76.9959C89.8853 78.0333 90.7927 78.552 91.7002 78.941C95.3302 81.0158 99.2194 80.8861 103.109 80.1081C103.757 79.9784 104.405 79.7191 104.664 80.7565C106.09 86.5918 108.294 92.2974 109.461 98.2624C109.461 98.5218 109.461 98.7811 109.461 99.0405C108.554 99.2998 108.942 99.9482 108.942 100.467C108.942 104.357 108.424 108.247 107.257 112.138C106.479 114.731 106.09 117.454 103.627 119.14C98.4416 122.9 92.3484 123.289 86.2553 122.9C82.6254 122.641 78.9955 121.993 75.3655 121.474C70.5688 120.955 66.0314 119.788 61.6236 117.843C59.679 116.935 57.9937 115.639 55.9194 115.25C57.0862 117.584 58.7715 119.27 60.7161 120.696C61.4939 121.344 62.2718 122.252 63.4386 122.252C65.3832 123.808 67.4574 124.975 69.7909 125.883C69.402 126.531 69.0131 126.272 68.4945 126.142C63.9571 125.235 59.4197 124.068 55.0119 122.9C49.9559 121.604 46.0667 118.621 42.9553 114.731C37.7697 108.507 37.2511 100.986 37.8993 93.4645C38.4179 87.2401 40.7515 81.4048 43.6035 75.8288C43.7332 75.4398 43.8628 74.9211 44.511 74.7914C45.8074 77.7739 48.2706 79.0707 51.2523 79.5894C53.0673 79.8487 55.0119 79.0707 55.5304 77.7739C57.2158 77.5146 58.1233 76.3475 58.6418 74.7914C60.0679 70.9012 60.7161 66.8813 61.3643 62.7318C61.8828 59.6196 62.2718 56.3777 62.6607 53.2656C62.6607 53.5249 62.92 53.6546 62.92 53.9139C63.6978 58.3229 65.1238 62.4724 66.5499 66.622C67.0685 68.3077 68.1057 68.9561 69.5317 68.6968C71.3467 68.4374 73.8098 66.622 74.3283 64.0285C76.9212 63.2505 78.9954 61.5647 80.8104 59.7493C81.8475 58.7119 81.9771 57.8042 80.8104 56.6371C79.3843 55.081 77.8287 53.7843 76.1433 52.6172C74.1987 51.1908 72.2541 49.7644 70.4391 48.0786C70.828 48.0786 71.217 48.0786 71.4763 48.0786C74.458 49.6347 77.8287 50.1534 81.0697 50.6721C84.9589 51.1908 88.9777 52.0985 92.478 49.2457H92.6077ZM72.9023 91.7787C70.5688 91.7787 68.6242 92.5568 67.0685 94.2425C65.9017 95.5393 64.9942 97.0954 63.9571 98.5218C62.7903 100.337 62.7904 102.153 63.6979 104.098C66.0314 108.896 69.6613 112.397 74.8469 113.953C79.514 115.379 82.7551 114.083 85.0886 109.803C85.4775 109.155 85.8664 108.766 86.5146 108.636C92.6077 106.821 96.8858 102.931 99.2194 97.0954C101.164 92.1677 96.6266 86.7214 91.3113 87.3698C86.9035 88.0182 83.5328 90.482 80.8104 93.8535C80.2918 94.5019 80.0326 94.5019 79.3844 94.1128C77.3101 92.8161 75.2359 91.6491 72.7727 91.7787H72.9023Z" fill="#FEFEFE"/>
<path id="Vector_5" d="M55.3985 77.385C54.88 78.6817 52.8057 79.4598 51.1204 79.2004C48.009 78.6817 45.6755 77.385 44.3791 74.4025C43.7309 74.4025 43.7309 75.0509 43.4716 75.4399C40.6195 81.0159 38.286 86.7215 37.7674 93.0756C37.1192 100.597 37.7674 108.118 42.8234 114.342C46.0644 118.232 49.824 121.215 54.88 122.511C59.4174 123.679 63.8252 124.846 68.3626 125.753C68.8812 125.753 69.3997 126.142 69.659 125.494C70.048 125.624 70.4369 125.494 70.6961 125.883C70.8258 126.142 71.0851 126.272 71.3443 126.013L74.3261 126.791V127.05C72.6407 127.05 71.0851 127.439 69.3997 127.439C63.4363 127.439 57.4728 126.402 51.5093 125.364C45.0273 124.068 38.4156 123.16 31.9336 121.344C29.6001 120.696 27.3961 119.788 25.3219 118.751C24.0255 118.103 22.7291 117.843 21.3031 118.103C20.0066 118.362 18.8399 118.103 17.8027 117.325C18.3213 116.028 18.5805 114.472 19.877 113.953C23.6365 112.267 24.8033 109.414 25.1923 105.265C25.9701 98.0032 28.174 91.0008 30.3779 84.128C34.1375 72.7167 39.8416 62.2132 46.4533 52.2283C48.7868 48.7271 51.1204 45.3555 54.1021 42.373C55.5282 42.373 56.9542 42.6324 58.6396 42.7621C57.4728 45.7446 56.306 48.5974 55.0096 51.4502C52.6761 57.0262 50.6018 62.6022 49.5647 68.5672C48.5276 74.0135 49.824 75.9586 55.2689 77.5147L55.3985 77.385Z" fill="#CEC8C8"/>
<path id="Vector_6" d="M73.6787 34.2033C73.938 32.7769 74.1973 31.4801 74.4566 30.0537C74.4566 29.7944 74.5862 29.4054 74.3269 29.2757C73.938 29.0163 73.8084 29.4054 73.5491 29.6647C73.0305 29.6647 72.9009 30.0537 72.6416 30.3131C71.8637 31.3505 71.4748 32.5175 71.0859 33.6846C70.9562 34.0736 71.0859 34.8517 70.3081 34.8517C69.6599 34.8517 69.7895 34.0736 69.5303 33.5549C69.1413 32.3879 68.882 31.2208 68.4931 30.1834C68.2338 29.535 67.9745 28.6273 67.0671 28.757C66.1596 28.757 66.1596 29.7944 66.0299 30.4428C66.0299 31.3505 66.0299 32.2582 66.0299 33.2956C65.5114 32.7769 65.3817 32.1285 65.3817 31.6098C64.9928 28.4976 64.7336 25.3855 64.3446 22.2733C63.9557 20.1985 64.6039 18.6424 66.1596 17.4754C67.3263 16.438 68.7524 15.6599 70.0488 14.6225C70.4377 14.3632 71.2155 14.2335 71.0859 13.4555C73.1601 12.6774 75.3641 12.0291 77.6976 11.7697C82.4943 11.1213 86.3835 12.8071 89.2356 16.6973C90.9209 18.9018 92.736 19.8095 95.4584 19.0314C97.9216 18.2534 101.163 20.4579 101.811 23.0513C101.94 23.57 101.681 23.9591 101.292 24.2184C97.5327 27.5899 93.9027 30.9615 90.1431 34.333C89.6245 34.8517 88.8467 34.9813 88.1985 35.111C84.5685 36.2781 80.8089 36.9265 76.9197 37.3155C77.179 36.6671 77.6976 36.4078 78.0865 36.0187C80.9386 33.5549 83.5314 30.7021 85.3464 27.4603C85.476 27.2009 86.2539 26.4229 85.0872 26.4229C82.624 27.5899 80.5497 29.4054 78.4754 31.0911C76.9197 32.2582 75.8827 33.9439 74.0677 34.5923L73.6787 34.2033Z" fill="#FEFEFE"/>
<path id="Vector_7" d="M55.918 115.12C57.9922 115.509 59.6775 116.935 61.6221 117.713C66.0299 119.658 70.5674 120.696 75.3641 121.344C78.994 121.733 82.6239 122.511 86.2539 122.771C92.347 123.16 98.3105 122.771 103.626 119.01C105.959 117.324 106.478 114.472 107.256 112.008C108.293 108.247 108.941 104.357 108.941 100.337C108.941 99.8183 108.682 99.17 109.46 98.9106C110.497 102.671 110.626 106.561 110.497 110.452C110.497 114.082 110.237 117.843 109.589 121.344C109.33 122.382 109.848 123.16 110.626 123.938C113.349 127.05 113.219 127.828 109.2 128.736C106.089 129.514 102.978 128.995 100.125 127.569C98.0512 126.531 96.1066 126.401 93.9027 126.401C84.9575 126.401 76.0123 126.142 67.3263 123.03C66.1596 122.641 65.2521 121.733 64.2149 121.344C63.5667 120.955 63.0482 120.436 62.4 120.047C62.6593 120.696 63.0482 121.215 63.6964 121.474V121.733C62.5296 121.733 61.7518 120.826 60.9739 120.177C59.0293 118.751 57.344 116.935 56.1772 114.861L55.918 115.12Z" fill="#CEC8C8"/>
<path id="Vector_8" d="M71.0862 13.3258C71.0862 14.1038 70.438 14.2335 70.0491 14.4928C68.7527 15.4005 67.4563 16.3083 66.1599 17.3456C64.7338 18.5127 64.0857 20.0688 64.345 22.1436C64.8635 25.2558 65.1228 28.3679 65.3821 31.4801C65.3821 32.1285 65.5117 32.6472 66.0303 33.1659C66.0303 32.2581 66.0303 31.2208 66.0303 30.313C66.0303 29.6647 66.0303 28.6273 67.0674 28.6273C67.9749 28.6273 68.2341 29.4053 68.4934 30.0537C68.8823 31.2208 69.1417 32.3878 69.5306 33.4252C69.6602 33.9439 69.5306 34.5923 70.3084 34.722C70.9566 34.722 70.9566 33.9439 71.0862 33.5549C71.4751 32.3878 71.8641 31.2208 72.6419 30.1834C72.9012 29.7944 73.1605 29.535 73.5494 29.535C73.2901 32.1285 72.3827 34.5923 71.8641 37.0561C71.6048 38.2231 70.3084 37.4451 69.4009 37.7044C68.623 37.9638 68.6231 37.1858 68.6231 36.6671C68.6231 35.889 68.6231 35.111 68.3638 34.3329C67.8452 34.8516 67.8452 35.3703 67.8452 35.889C67.8452 37.4451 67.197 37.8341 65.771 37.8341C64.9931 37.8341 64.7338 37.4451 64.6042 36.7967C63.956 34.4626 63.3078 32.1285 62.53 29.7943C62.141 28.6273 61.6225 27.5899 61.1039 26.4228C61.1039 26.1635 61.1039 25.7745 60.7149 25.9041C60.1964 26.0338 60.5853 26.2931 60.7149 26.6822C61.4928 29.924 62.4003 33.0362 63.1782 36.278C63.1782 36.6671 63.6967 37.1858 63.1782 37.3154C62.7892 37.4451 62.4003 37.3154 62.0114 36.7967C59.6778 34.0736 57.474 31.2208 55.2701 28.2383C54.6219 27.3305 53.9737 26.5525 52.6773 26.0338C54.1033 28.2383 55.5294 30.4427 56.9554 32.7769C54.1033 32.6472 52.418 30.8317 50.7327 28.8866C49.5659 27.5899 48.2695 26.4228 46.9731 25.1261C46.1952 24.348 45.6767 23.4403 46.3249 22.4029C46.9731 21.3656 48.1398 21.2359 49.0473 21.6249C52.029 23.0513 53.9737 22.2733 56.0479 19.6798C57.8629 17.4753 60.5854 15.9192 63.4375 15.0115C65.9006 14.2335 68.3638 13.4554 70.9566 13.0664L71.0862 13.3258Z" fill="#CEC8C8"/>
<path id="Vector_9" d="M54.2327 42.3727C51.2509 45.3552 48.9174 48.7267 46.5839 52.2279C39.9722 62.2128 34.268 72.7164 30.5084 84.1277C28.3045 91.0004 26.1006 98.0028 25.3228 105.265C24.9339 109.414 23.7671 112.267 20.0075 113.953C18.7111 114.601 18.4518 116.157 17.9332 117.324C16.2479 116.157 15.9887 115.379 17.1554 113.823C18.0629 112.397 19.489 111.619 20.915 110.841C21.8225 110.322 22.3411 109.673 22.3411 108.636C22.9893 95.4093 26.6192 82.9606 32.3234 71.0306C37.509 60.3974 44.6393 51.3202 52.5473 42.632C53.0659 42.1133 53.4548 41.5946 54.2327 42.243V42.3727Z" fill="#FAFAFA"/>
<path id="Vector_10" d="M100.773 74.0131C100.773 73.4944 100.773 73.235 100.125 73.4944C99.6062 73.7537 99.0876 74.0131 98.5691 74.1427C96.8837 73.7537 95.0688 73.7537 93.5131 72.846C91.5685 71.6789 91.5684 70.7712 93.1241 69.3448C93.6427 68.8261 94.6798 68.8261 94.6798 67.7887C97.0134 66.7513 99.6062 66.6217 102.199 66.3623C102.588 67.1403 101.81 67.1404 101.421 67.3997C100.514 68.0481 99.3469 68.6964 98.958 69.9932C100.254 69.0855 101.551 68.3074 102.847 67.3997C103.884 66.3623 105.051 66.881 106.088 67.3997C104.921 68.6964 103.366 69.6041 102.069 70.7712C102.069 70.9009 102.069 70.9009 102.069 70.7712C102.069 70.7712 102.069 70.7712 101.94 70.6415C102.588 71.0306 102.847 70.5119 103.236 70.2525C104.273 69.4745 105.31 68.6964 106.348 67.9184C108.033 68.1777 108.811 69.4745 109.329 70.9009C109.718 72.068 109.329 73.235 108.163 74.0131C105.57 74.0131 103.106 74.0131 100.514 74.1427L100.773 74.0131Z" fill="#FCEB02"/>
<path id="Vector_11" d="M74.3278 63.7692C73.8093 66.3626 71.3461 68.0484 69.5312 68.4374C68.1051 68.6968 67.1976 68.0484 66.5494 66.3626C65.1233 62.2131 63.6973 58.0635 62.9195 53.6546C62.9195 53.3952 62.6602 53.2656 62.6602 53.0062C62.9194 51.1908 63.0491 49.2457 63.3084 47.1709C63.9566 47.5599 63.9566 48.0786 64.0863 48.4676C65.9012 52.7469 67.9755 57.0261 70.5683 60.9163C71.4758 62.3428 72.6425 63.5098 74.4575 63.7692H74.3278Z" fill="#CEC8C8"/>
<path id="Vector_12" d="M92.6061 49.2457C89.1058 51.9688 85.087 51.1908 81.1977 50.6721C77.8271 50.1534 74.586 49.6347 71.6043 48.0786C71.345 47.9489 70.9561 48.0786 70.5672 48.0786C69.5301 47.1709 68.4929 46.3929 67.3262 45.3555C68.8819 45.3555 69.9189 45.7445 71.0857 46.0038C77.3085 47.3006 83.6609 47.9489 90.0133 46.9116C90.6615 46.9116 91.0504 46.9115 91.4393 47.4302C91.8282 48.0786 92.2172 48.727 92.7357 49.3753L92.6061 49.2457Z" fill="#CEC8C8"/>
<path id="Vector_13" d="M73.6782 34.2036C75.6228 33.5553 76.66 31.8695 78.086 30.7024C80.2899 29.0167 82.2345 27.2012 84.6976 26.0342C82.3641 29.665 79.512 32.7772 76.1414 35.5004C75.2339 36.1487 74.456 37.8345 73.2893 37.1861C72.5114 36.6674 73.5486 35.241 73.5486 34.2036H73.6782Z" fill="#CEC8C8"/>
<path id="Vector_14" d="M57.7332 54.0435C58.5111 55.0808 59.289 56.1182 60.1965 57.1556C60.715 57.804 60.5854 58.4524 60.4558 59.2304C60.1965 60.9162 59.9372 62.6019 59.5483 64.4174C59.5483 64.4174 59.4186 64.4174 59.289 64.4174C58.6408 62.8613 57.474 61.5645 56.4368 60.2678C56.1776 59.8788 55.659 59.6194 55.9183 58.9711C56.5665 57.415 57.0851 55.7292 57.6036 54.0435H57.7332Z" fill="#79B92F"/>
<path id="Vector_15" d="M73.6792 52.2278C75.667 53.3517 76.3585 54.9942 75.7535 57.1554C75.3646 58.5818 74.9757 60.1379 74.4571 61.5643C74.4571 61.9534 74.4571 62.7314 73.5496 62.4721C73.5496 62.3424 73.5496 62.2127 73.2903 62.2127C73.5496 61.4347 73.1607 60.916 72.7718 60.3973C72.1236 59.3599 71.9939 58.4522 72.3828 57.1554C72.9014 55.4697 73.2903 53.7839 73.6792 52.0981V52.2278Z" fill="#79B92F"/>
<path id="Vector_16" d="M59.2901 65.8439C58.7716 67.6594 58.3827 69.4748 57.8641 71.2902C57.0863 69.9935 56.438 68.5671 55.5305 67.2703C54.1045 65.4549 54.2342 63.6394 55.2713 61.6943C55.9195 62.3427 56.438 62.9911 57.0862 63.6394C57.8641 64.4175 58.1233 65.5846 59.2901 65.8439Z" fill="#79B92F"/>
<path id="Vector_17" d="M55.2703 61.6941C54.2332 63.6392 53.9738 65.4547 55.5295 67.2701C56.437 68.4372 57.0853 69.8636 57.8631 71.29C57.8631 71.679 57.8631 72.1977 57.3445 72.7164C55.6592 70.2526 54.3628 67.7888 52.0293 65.8437C51.77 65.5844 52.0293 65.1953 52.0293 64.936C52.5479 63.2502 53.0664 61.4348 53.5849 59.749C54.2331 60.3974 54.7517 61.0458 55.1406 61.6941H55.2703Z" fill="#F5F5F1"/>
<path id="Vector_18" d="M94.6802 67.6592C94.6802 68.6966 93.6431 68.6966 93.1245 69.2153C91.4392 70.6417 91.5689 71.5494 93.5135 72.7165C95.0692 73.6242 96.8841 73.6242 98.5695 74.0132C97.9213 74.5319 97.2731 74.9209 96.6248 75.4396C96.2359 75.8286 95.847 75.8286 95.3284 75.699H95.0691C92.4763 75.0506 90.9207 73.6242 90.791 72.0681C90.791 70.3823 92.2171 68.6966 94.8099 67.6592H94.6802Z" fill="#F5F5F1"/>
<path id="Vector_19" d="M100.773 74.0132C103.366 73.7538 105.829 73.7538 108.422 73.8835C105.31 76.3473 101.551 76.477 97.4023 76.3473C98.6988 75.4396 99.7359 74.6616 100.643 74.0132H100.773Z" fill="#F5F5F1"/>
<path id="Vector_20" d="M57.7327 54.0433C57.2142 55.729 56.6956 57.2851 56.0474 58.9709C55.7881 59.6192 56.1771 59.8786 56.566 60.2676C57.6031 61.5643 58.7698 62.8611 59.4181 64.4172C59.4181 64.4172 59.4181 64.5468 59.2884 64.6765C57.7328 62.7314 56.177 60.5269 54.2324 58.8412C54.751 56.5071 55.7881 54.4323 56.6956 52.0981C57.2142 52.8762 57.4735 53.5246 57.8624 54.1729L57.7327 54.0433Z" fill="#F5F5F1"/>
<path id="Vector_21" d="M53.4562 68.8262C54.7526 70.2526 55.5305 71.8087 56.5676 73.3648C57.0862 74.1428 56.8269 74.5318 56.5676 75.1802C56.1787 75.6989 55.6601 75.9582 55.0119 75.6989C54.4934 75.5692 53.9748 75.4395 53.7155 75.0505C52.9377 72.9757 53.197 70.901 53.7155 68.8262H53.4562Z" fill="#79B92F"/>
<path id="Vector_22" d="M65.2527 39.0013H68.4937C68.4937 39.7794 67.7159 40.1684 67.7159 41.0761C69.0123 40.9464 68.8826 39.3903 69.6605 39.0013C70.568 38.6123 71.7347 38.742 73.0311 38.6123C71.994 39.52 72.3829 41.5948 70.6976 41.3354C68.753 41.0761 65.7713 42.8915 65.123 39.0013H65.2527Z" fill="#79B92F"/>
<path id="Vector_23" d="M80.81 41.4651C80.2915 41.4651 79.9026 41.4651 79.384 41.4651C75.8837 41.4651 76.6616 41.8542 77.6987 38.8717C77.958 38.2233 78.3469 38.0936 78.8654 38.0936C79.9025 38.0936 80.81 37.8343 81.7175 37.7046C81.7175 39.0013 81.5879 40.4277 80.6804 41.5948L80.81 41.4651Z" fill="#79B92F"/>
<path id="Vector_24" d="M73.6797 52.2278C73.2908 53.9136 72.9018 55.5993 72.3833 57.2851C71.9944 58.4521 72.1241 59.4895 72.7723 60.5269C73.1612 61.0456 73.5501 61.5643 73.2908 62.3424C71.8647 61.694 71.3462 60.2676 70.5684 59.1005C70.5684 58.9708 70.5684 58.7115 70.5684 58.5818C71.2166 56.6367 71.7351 54.6916 72.2537 52.6168C72.513 51.4497 73.0315 51.4498 73.6797 52.2278Z" fill="#F5F5F1"/>
<path id="Vector_25" d="M53.4561 68.8265C53.0672 70.9013 52.8079 72.9761 53.4561 75.0509C51.2522 74.0135 50.8633 73.3651 50.8633 71.031C50.8633 69.6046 51.2522 68.3078 51.6411 66.6221C52.4189 67.2704 52.9376 68.0485 53.3265 68.6969L53.4561 68.8265Z" fill="#F5F5F1"/>
<path id="Vector_26" d="M83.0124 37.3154C83.9199 37.1858 84.6978 36.9264 85.6052 36.7967C86.2534 36.6671 86.6424 36.7967 86.2534 37.5748C86.2534 37.7045 86.2535 37.9638 86.1238 38.0935C85.346 39.0012 86.772 40.5573 85.2163 41.076C84.1792 41.3353 83.0125 41.3353 81.8457 41.465C82.4939 40.1683 82.8828 38.8715 83.1421 37.4451L83.0124 37.3154Z" fill="#79B92F"/>
<path id="Vector_27" d="M79.2536 44.3176C78.3461 43.7989 77.9571 42.5022 76.5311 43.0209C76.5311 43.5396 77.1793 43.6692 77.309 44.1879C75.494 44.0582 73.5493 43.7989 71.7344 43.6692C71.4751 43.4099 71.0862 43.1505 70.6973 42.6318C74.4568 42.6318 77.9572 42.6318 81.3278 42.6318C82.2353 42.6318 82.4946 43.5395 82.8835 44.1879C81.7168 44.1879 80.4204 44.1879 79.2536 44.1879V44.3176Z" fill="#F5F5F1"/>
<path id="Vector_28" d="M86.125 40.8168C87.1621 38.8717 86.5139 35.7596 89.8845 35.6299C89.6253 39.9091 89.6253 40.6872 86.125 40.8168Z" fill="#79B92F"/>
<path id="Vector_29" d="M59.6791 47.8193C61.4941 50.0238 62.1423 52.3579 61.1052 55.2107C59.4199 53.136 57.6049 51.0612 59.5495 48.0787C59.5495 48.0787 59.5495 47.949 59.6791 47.8193Z" fill="#79B92F"/>
<path id="Vector_30" d="M59.6786 47.8192C59.6786 47.8192 59.6787 47.9489 59.549 48.0785C57.6044 50.9314 59.549 53.0062 61.1047 55.2106C61.1047 55.47 61.1047 55.9887 60.975 56.1183C60.4565 56.3777 60.4565 55.7293 60.1972 55.5996C60.0676 55.5996 59.938 55.2106 59.8083 55.0809C57.2155 52.4875 56.308 49.6346 58.9008 46.5225C59.1601 46.7818 59.549 47.3005 59.6786 47.9489V47.8192Z" fill="#F5F5F1"/>
<path id="Vector_31" d="M62.7889 38.6123C64.2149 38.8717 64.7335 40.0387 64.8631 41.2058C64.8631 42.6322 63.9556 43.2805 62.6592 43.5399C61.7517 41.8541 60.8442 40.1684 62.6592 38.6123H62.7889Z" fill="#79B92F"/>
<path id="Vector_32" d="M77.6985 55.0809C77.9578 55.2105 78.0874 55.3402 78.3467 55.4699C81.3285 58.0634 81.3284 58.0633 78.0874 60.5272C77.6985 60.7865 77.1799 61.0459 76.791 61.3052C77.1799 59.2304 78.0874 57.1556 77.6985 54.9512V55.0809Z" fill="#79B92F"/>
<path id="Vector_33" d="M70.1784 55.4698C70.1784 56.1182 69.919 56.7666 69.7894 57.5446C68.7523 56.3775 68.3634 54.9511 67.7152 53.7841C67.4559 53.2654 67.9745 52.8763 67.9745 52.4873C68.2338 51.4499 68.6227 50.2829 69.0116 49.2455C69.2709 48.4674 69.6598 48.5971 70.0487 49.2455C69.9191 50.0235 69.7895 50.8016 69.5302 51.4499C69.0116 53.006 69.0116 54.3028 70.308 55.4698H70.1784Z" fill="#F5F5F1"/>
<path id="Vector_34" d="M62.7893 38.6121C60.8447 40.1682 61.8818 41.8539 62.7893 43.5397C61.4929 43.799 60.715 43.2803 60.0668 42.2429C59.4186 41.2055 59.5483 40.2978 60.1965 39.3901C60.8447 38.4824 61.7521 38.2231 62.7893 38.6121Z" fill="#F5F5F1"/>
<path id="Vector_35" d="M87.5496 43.2805C88.4571 43.9289 88.9757 45.096 90.1424 45.6147C87.8089 46.0037 85.605 46.9114 84.3086 43.9289C85.3457 43.6696 86.5125 43.4102 87.5496 43.1509V43.2805Z" fill="#79B92F"/>
<path id="Vector_36" d="M54.1026 58.8413C56.0472 60.5271 57.4733 62.7315 59.1586 64.6766C59.1586 64.6766 59.1586 64.547 59.2882 64.4173C59.2882 64.4173 59.4179 64.4173 59.5475 64.4173C59.5475 64.936 59.4179 65.4547 59.1586 65.8437C57.9918 65.5844 57.7325 64.4173 56.9547 63.6392C56.3065 62.9909 55.7879 62.3425 55.1397 61.6941C54.7508 60.9161 54.2322 60.2677 53.584 59.749C53.584 59.36 53.584 58.971 53.973 58.8413H54.1026Z" fill="#141111"/>
<path id="Vector_37" d="M60.9744 44.4478C62.4004 44.4478 62.919 44.8368 62.6597 46.3929C62.4004 47.5599 62.4004 48.8567 62.2708 50.4127C61.4929 48.8567 60.9744 47.6896 60.3262 46.3929C60.4558 45.7445 60.5855 44.9664 61.1041 44.4478H60.9744Z" fill="#79B92F"/>
<path id="Vector_38" d="M70.1791 55.47C69.0123 54.3029 68.8826 52.8765 69.4012 51.4501C69.6605 50.672 69.7902 50.0236 69.9198 49.2456C71.3458 50.0236 71.7347 50.9314 71.0865 52.4875C70.6976 53.3952 70.4384 54.5622 70.1791 55.5996V55.47Z" fill="#79B92F"/>
<path id="Vector_39" d="M76.6602 38.4826C76.0552 40.5573 74.6724 41.5083 72.5117 41.3354C73.6785 39.909 74.0674 37.8342 76.6602 38.4826Z" fill="#79B92F"/>
<path id="Vector_40" d="M71.7351 43.6699C73.55 43.7996 75.4947 44.0589 77.3097 44.1886C77.8283 44.5776 78.2171 45.0963 78.7357 45.4853V45.8744C76.2725 44.9667 73.4204 46.3931 71.6055 43.6699H71.7351Z" fill="#79B92F"/>
<path id="Vector_41" d="M58.1227 35.7596C56.8263 35.7596 55.6596 36.408 54.4928 36.797C54.2335 36.797 53.9742 37.186 53.5853 36.797C53.1964 36.5377 53.326 36.1487 53.5853 35.8893C53.5853 35.8893 53.5853 35.8893 53.5853 35.7596C55.141 33.2958 55.141 32.6475 57.9931 35.7596H58.1227Z" fill="#79B92F"/>
<path id="Vector_42" d="M58.1216 35.7593C58.5105 36.0186 58.7698 36.4077 59.1588 36.7967C58.2513 37.3154 57.3438 37.1857 56.5659 38.0934C57.4734 38.6121 58.1216 38.0934 58.7698 37.8341C59.1587 37.8341 59.5476 37.445 59.9366 37.8341C60.1958 38.0934 59.9366 38.3528 59.9366 38.4824C59.5476 38.7418 59.5476 39.6495 58.7698 39.3902C57.603 39.0011 56.3067 38.6121 55.2695 37.8341C56.177 36.7967 57.7327 37.056 58.3809 35.889L58.1216 35.7593Z" fill="#79B92F"/>
<path id="Vector_43" d="M65.7715 47.5601C65.9011 46.9117 66.1604 46.2633 66.2901 45.7446C68.8829 48.0788 68.7532 47.0414 67.4568 50.8019C66.8086 49.7645 66.29 48.7271 65.9011 47.5601H65.7715Z" fill="#79B92F"/>
<path id="Vector_44" d="M79.2539 44.3179C80.4207 44.3179 81.7171 44.3179 82.8838 44.3179C83.4024 44.8366 83.9209 45.3553 84.6988 46.263C82.4949 46.263 80.291 46.9114 79.2539 44.4476V44.3179Z" fill="#79B92F"/>
<path id="Vector_45" d="M70.3077 44.3179C69.0113 44.0586 67.5853 43.7992 66.2889 43.4102C65.8999 43.4102 65.511 43.2805 65.6407 42.7618C65.6407 42.2431 66.0296 42.2431 66.4185 42.2431C68.1038 42.2431 69.9188 41.8541 70.3077 44.3179Z" fill="#CEC8C8"/>
<path id="Vector_46" d="M55.2705 40.1682C55.2705 40.8166 55.2705 41.3352 54.4927 41.0759C53.7148 40.9462 52.8074 41.0759 52.6777 40.0385C52.6777 39.3901 53.0666 38.6121 53.8445 38.3527C54.363 38.2231 55.4002 39.3901 55.4002 40.0385L55.2705 40.1682Z" fill="#79B92F"/>
<path id="Vector_47" d="M87.5503 43.2807C86.5132 43.54 85.3464 43.7994 84.3093 44.0588C83.7907 43.6697 83.5315 43.2807 83.1426 42.762C85.3465 41.8543 86.5132 41.984 87.4207 43.2807H87.5503Z" fill="#F5F5F1"/>
<path id="Vector_48" d="M77.697 55.0811C77.9563 57.2855 77.1784 59.3603 76.7895 61.4351C76.5302 61.5647 76.271 61.8241 76.0117 61.9538C75.7524 61.9538 75.7524 61.6944 75.882 61.4351C76.5302 59.3603 76.6599 57.0262 77.697 55.0811Z" fill="#F5F5F1"/>
<path id="Vector_49" d="M90.4023 39.9091C90.7913 38.2233 91.0505 36.7969 91.4395 34.9814C92.2173 36.5375 92.0877 37.9639 92.2173 39.131C92.2173 39.6497 91.1802 39.52 90.4023 39.7794V39.9091Z" fill="#79B92F"/>
<path id="Vector_50" d="M101.293 77.6441C102.589 77.1254 102.719 78.0332 102.719 78.5518C102.459 79.7189 101.422 79.2002 100.644 79.4596C99.8666 79.7189 99.6073 79.0706 99.7369 78.4222C99.8666 77.1254 101.033 77.9035 101.293 77.6441Z" fill="#E9DA02"/>
<path id="Vector_51" d="M90.7915 42.373C91.1804 42.8917 91.699 43.2808 91.9583 43.7995C92.3472 44.4478 91.8286 44.8368 91.3101 45.2259C90.6619 45.7446 90.6619 44.9665 90.4026 44.8368C89.884 44.3181 89.4951 43.6698 88.9766 43.1511C89.4951 42.8918 90.1433 42.6324 90.6619 42.5027L90.7915 42.373Z" fill="#79B92F"/>
<path id="Vector_52" d="M103.756 78.8112C103.626 77.1254 104.015 76.7364 105.441 76.4771C106.219 76.4771 106.349 76.9957 106.219 77.2551C105.96 78.6815 104.534 78.1628 103.756 78.6815V78.8112Z" fill="#E9DA02"/>
<path id="Vector_53" d="M98.959 79.4595C98.0516 79.0705 96.6256 80.2375 96.107 78.6814C96.107 78.4221 95.7181 77.644 96.4959 77.644C97.6627 77.644 98.959 77.644 98.959 79.5892V79.4595Z" fill="#E9DA02"/>
<path id="Vector_54" d="M83.0125 37.3156C82.7532 38.742 82.3643 40.0388 81.7161 41.3355C81.4568 41.3355 81.0679 41.3355 80.8086 41.3355C81.5864 40.1684 81.7161 38.8717 81.8458 37.4453C82.2347 37.1859 82.6236 37.3156 83.0125 37.3156Z" fill="#141111"/>
<path id="Vector_55" d="M95.0699 79.0705C93.6438 78.9408 92.6067 78.4221 92.866 76.7363C94.681 76.7363 94.8106 76.9957 95.0699 79.0705Z" fill="#E9DA02"/>
<path id="Vector_56" d="M102.848 67.2698C101.552 68.1775 100.255 68.9556 98.959 69.8633C99.4775 68.5666 100.515 68.0479 101.422 67.2698C101.681 67.0105 102.459 67.0105 102.2 66.2324C102.848 66.2324 102.848 66.7511 102.848 67.1402V67.2698Z" fill="#141111"/>
<path id="Vector_57" d="M65.7705 47.5601C66.1594 48.7271 66.678 49.7645 67.3262 50.8019C67.3262 51.3206 67.0669 51.8393 66.8076 52.4877C66.5483 50.6722 64.4741 49.6348 65.7705 47.6897V47.5601Z" fill="#F5F5F1"/>
<path id="Vector_58" d="M64.7338 47.3003C64.4745 46.652 64.2152 46.0036 63.9559 45.3552C63.9559 44.9662 63.4374 44.7069 63.8263 44.1882C64.0856 43.9288 64.3448 43.9288 64.6041 44.1882C64.993 44.4475 65.6413 44.5772 65.382 45.3552C65.2524 46.0036 65.382 46.652 64.7338 47.3003Z" fill="#CEC8C8"/>
<path id="Vector_59" d="M57.7327 41.4653C57.3438 41.2059 56.0474 41.9839 56.177 40.4279C56.177 40.0388 56.4363 39.6498 56.8252 39.9092C57.4734 40.2982 58.6402 39.6498 58.6402 40.9465C58.6402 41.4652 58.3809 41.7246 57.7327 41.3356V41.4653Z" fill="#79B92F"/>
<path id="Vector_60" d="M102.07 70.5121C103.367 69.3451 104.922 68.4374 106.089 67.1406C106.478 67.1406 106.608 67.4 106.608 67.789C105.571 68.567 104.533 69.3451 103.496 70.1231C103.107 70.3825 102.718 70.9012 102.2 70.5121H102.07Z" fill="#141111"/>
<path id="Vector_61" d="M91.4397 77.5142C90.0136 76.9955 90.4026 75.8285 90.0137 74.5317C91.1804 75.4395 92.2175 75.9582 91.4397 77.5142Z" fill="#E9DA02"/>
<path id="Vector_62" d="M90.7923 42.3732C90.2737 42.6325 89.6255 42.8918 89.107 43.0215C88.718 42.6325 88.3291 42.2435 87.8105 41.8545C88.9773 41.8545 90.1441 40.5577 90.7923 42.3732Z" fill="#F5F5F1"/>
<path id="Vector_63" d="M60.9746 44.448C60.4561 44.9667 60.3265 45.7447 60.1968 46.3931C59.5054 45.615 59.3758 44.7073 59.8079 43.6699C60.1968 43.9293 60.5857 44.1886 60.9746 44.448Z" fill="#F5F5F1"/>
<path id="Vector_64" d="M107.127 77.644C106.997 76.7363 106.608 75.9582 107.645 75.5692C108.164 75.4395 108.294 75.8286 108.423 76.0879C108.812 77.1253 107.775 76.9956 107.127 77.5143V77.644Z" fill="#E9DA02"/>
<path id="Vector_65" d="M110.239 73.8838C109.979 74.6618 110.498 75.4399 109.59 76.0882C109.072 75.1805 108.812 74.4025 110.239 73.8838Z" fill="#E9DA02"/>
<path id="Vector_66" d="M63.437 121.604C62.9185 121.344 62.3999 120.826 62.1406 120.177C62.7888 120.566 63.3073 121.085 63.9555 121.474C63.8259 121.474 63.5667 121.474 63.437 121.474V121.604Z" fill="#141111"/>
<path id="Vector_67" d="M71.4744 126.142C71.2151 126.402 70.9558 126.272 70.8262 126.013C71.0855 126.013 71.2151 126.013 71.4744 126.142Z" fill="#FEFEFE"/>
<path id="Vector_68" d="M73.291 62.2129C73.5503 62.2129 73.5503 62.2129 73.5503 62.4722C73.5503 62.4722 73.4207 62.3426 73.291 62.2129Z" fill="#F5F5F1"/>
<path id="Vector_69" d="M72.8999 91.7785C75.3631 91.7785 77.4373 92.8159 79.5116 94.1126C80.1598 94.5016 80.4191 94.5016 80.9377 93.8533C83.6601 90.3521 87.0307 88.0179 91.4385 87.3696C96.7538 86.5915 101.421 92.0378 99.3467 97.0951C97.0131 102.93 92.7349 106.821 86.6418 108.636C85.864 108.895 85.4751 109.284 85.2158 109.803C82.7526 114.082 79.6412 115.379 74.9741 113.953C69.7885 112.397 66.1586 108.895 63.8251 104.098C62.9176 102.152 62.9176 100.337 64.0844 98.5215C65.1215 97.0951 66.0289 95.539 67.1957 94.2423C68.7514 92.5565 70.696 91.7785 73.0295 91.7785H72.8999ZM91.6978 104.227C90.92 104.097 90.2718 103.19 89.4939 104.227C88.7161 105.005 89.6236 105.654 89.4939 106.432C90.531 105.913 91.3089 105.394 92.0867 104.746C92.6053 104.357 93.2535 103.838 93.7721 103.449C94.4203 102.93 94.2906 102.671 93.7721 102.023C93.2535 101.245 92.9942 101.763 92.4756 102.023C91.4385 102.541 91.3089 103.319 91.5682 104.357L91.6978 104.227ZM78.3449 108.247C78.3449 106.821 77.9559 105.524 77.8263 104.098C77.8263 103.838 77.8263 103.449 78.0856 103.319C78.4745 103.319 78.6041 103.708 78.6041 103.968C78.8634 105.265 79.382 106.691 79.382 108.117C79.382 109.414 80.2895 109.673 81.197 109.803C81.9748 109.933 82.1044 109.803 81.8452 109.025C81.5859 108.377 81.3266 107.858 81.0673 107.21C81.0673 106.95 80.808 106.432 81.3266 106.302C81.8451 106.172 81.9747 106.561 82.1044 106.95C82.3637 107.599 82.4933 108.117 82.623 108.766C82.8823 109.673 83.2712 109.673 83.9194 109.155C85.2158 108.117 85.6047 106.561 85.4751 105.005C85.0862 100.596 80.1598 94.761 75.8816 93.5939C74.9742 93.3346 74.9742 93.3346 75.1038 94.2423C75.4928 95.6687 75.752 97.0951 76.1409 98.5215C76.0113 98.5215 75.8816 98.5215 75.6223 98.5215C74.9741 97.0951 74.4556 95.539 74.3259 93.9829C74.1963 92.6862 73.2888 93.2049 72.6406 93.2049C71.7331 93.2049 71.6035 93.5939 71.7331 94.5016C71.9924 96.0577 72.2517 97.6138 72.3813 99.1699C71.3442 97.8732 71.3443 96.3171 70.8257 94.8907C70.9553 93.7236 70.5664 93.5939 69.6589 94.1126C66.9364 95.7984 65.8993 98.6512 67.3254 101.763C69.27 106.043 72.7703 108.636 77.1781 109.933C77.6966 110.063 78.3449 110.452 78.9931 110.062C78.8634 109.673 78.7338 109.284 78.6041 108.895C78.6041 108.766 78.6041 108.506 78.3449 108.636V108.247ZM86.3826 103.06C86.3826 103.579 86.6419 104.097 86.7715 104.876C88.0679 103.968 89.494 103.319 90.6607 102.412C93.2535 100.467 95.5871 98.2622 96.7539 95.15C97.6613 92.5565 97.5317 89.8334 94.9389 88.9256C92.2164 87.4992 93.5128 90.4817 92.6053 91.1301C92.2164 90.8708 92.6053 90.4817 92.346 90.2224C92.0868 89.7037 92.9942 88.5366 91.6978 88.6663C90.6607 88.6663 89.494 88.6663 89.3643 90.2224C89.3643 91.3895 89.3643 92.5565 88.5864 93.9829C88.5864 92.6862 88.5864 91.5191 88.5864 90.4817C88.5864 89.4444 88.3272 89.4444 87.5493 89.8334C85.0861 91.0004 83.2712 92.9455 81.4562 94.8907C80.9376 95.4093 81.4562 95.7984 81.7155 96.0577C84.049 97.8731 85.3455 100.337 86.3826 103.06ZM79.6413 111.359C78.4745 110.97 77.3077 110.452 76.4002 111.878C76.2706 112.137 75.8817 112.656 75.3631 112.267C74.9742 111.878 75.3631 111.489 75.752 111.23C76.141 110.841 76.2706 110.581 75.6223 110.192C73.937 109.155 73.4185 110.452 72.6406 111.359C76.1409 113.564 78.2152 113.434 79.6413 111.23V111.359ZM68.7514 109.025C69.1403 108.506 70.0478 107.728 69.9182 107.599C69.27 106.691 68.6218 105.654 67.7143 105.005C67.1957 104.616 66.6772 105.783 66.1586 106.302C66.0289 106.432 68.3625 109.025 68.7514 109.025ZM69.1403 109.414C69.6589 109.803 70.3071 110.192 70.8257 110.711C71.9925 111.619 72.511 110.452 73.0295 109.933C73.6777 109.155 72.6406 109.155 72.2517 108.895C70.9553 107.469 70.0478 108.377 69.1403 109.544V109.414ZM98.3095 92.5565C98.3095 92.8159 98.3095 92.9455 98.3095 92.9455C98.3095 94.372 98.3095 95.928 97.0131 97.0951C96.2352 97.8731 96.1056 98.7809 97.2724 99.5589C98.5688 97.4841 99.6059 95.4094 98.4392 92.6862L98.3095 92.5565ZM66.029 102.023C64.8622 102.93 64.214 103.838 65.3808 105.005C65.6401 105.394 65.7697 105.394 66.1586 105.005C67.5846 103.838 66.8068 102.93 66.029 101.893V102.023ZM95.0685 102.282C95.3277 101.245 96.7538 101.115 96.3649 99.8183C96.3649 99.5589 95.8464 98.9105 95.1981 99.4292C94.161 100.207 94.0313 101.115 95.0685 102.282ZM65.1215 98.1325C64.214 99.5589 63.6954 100.856 64.0844 102.282C65.2943 101.59 65.64 100.207 65.1215 98.1325ZM86.3826 107.469C87.5494 107.469 88.3271 107.08 89.2346 106.561C88.4568 106.302 88.5865 104.876 87.4197 105.265C86.2529 105.654 87.0308 106.821 86.5122 107.469H86.3826ZM80.2895 112.915C81.1969 112.267 81.8452 111.878 82.4934 111.359C81.4562 111.359 80.4191 111.1 80.2895 112.915Z" fill="#12100D"/>
<path id="Vector_70" d="M76.0126 98.2622C75.6237 96.8358 75.3643 95.4094 74.9754 93.983C74.7161 93.0753 74.7162 93.0753 75.7533 93.3346C80.1611 94.5017 84.9577 100.207 85.3467 104.746C85.4763 106.302 85.2171 107.858 83.791 108.895C83.1428 109.414 82.7539 109.544 82.4946 108.506C82.4946 107.858 82.1057 107.339 81.976 106.691C81.976 106.302 81.7168 105.913 81.1982 106.043C80.8093 106.172 80.8093 106.691 80.9389 106.95C81.1982 107.599 81.3278 108.247 81.7167 108.766C82.1057 109.544 81.7167 109.803 81.0685 109.544C80.161 109.284 79.3832 109.025 79.2536 107.858C79.2536 106.432 78.735 105.135 78.4757 103.709C78.4757 103.449 78.4758 103.06 77.9572 103.06C77.5683 103.06 77.5683 103.579 77.6979 103.838C77.6979 105.265 78.3461 106.561 78.2164 107.988C77.0497 107.858 76.0125 107.21 74.9754 106.691C72.6419 105.783 70.6973 104.357 69.4009 102.152C67.5859 98.9106 67.8452 96.7061 70.6973 94.2423C71.2158 95.6687 71.2159 97.2248 72.253 98.5216C71.9937 96.9655 71.8641 95.4094 71.6048 93.8533C71.4751 92.9456 71.6048 92.5566 72.5123 92.5566C73.1605 92.5566 74.0679 92.0379 74.1976 93.3346C74.3272 94.8907 74.8458 96.4468 75.494 97.8732C75.6236 98.3919 75.6236 99.0403 76.2718 99.4293C76.2718 98.7809 76.1422 98.3919 76.0126 97.8732V98.2622Z" fill="#FCEB02"/>
<path id="Vector_71" d="M86.3846 103.06C85.3475 100.337 84.051 97.8733 81.7175 96.0578C81.4582 95.7985 80.9396 95.5391 81.4582 94.8908C83.2732 92.9457 85.0882 91.0006 87.5513 89.8335C88.3292 89.4445 88.7181 89.4445 88.5884 90.4819C88.5884 91.5193 88.5884 92.5567 88.5884 93.9831C89.3663 92.6863 89.2367 91.3896 89.3663 90.2225C89.3663 88.5368 90.6627 88.6664 91.6999 88.6664C92.9963 88.6664 92.0888 89.7038 92.3481 90.2225C92.3481 90.4819 92.3481 90.8709 92.6074 91.1302C93.5148 90.4819 92.3481 87.4994 94.9409 88.9258C95.4594 90.3522 95.7187 91.6489 95.3298 93.205C94.9409 94.8908 94.0334 96.1875 93.1259 97.6139C91.3109 100.078 88.7181 101.374 86.5142 103.19L86.3846 103.06Z" fill="#FCEB02"/>
<path id="Vector_72" d="M70.8273 94.5015C67.9752 96.9653 67.7159 99.1698 69.5309 102.412C70.8273 104.616 72.7719 106.042 75.1054 106.95C76.1426 107.469 77.1797 107.988 78.3465 108.247C78.3465 108.247 78.4761 108.377 78.6058 108.506C78.7354 108.895 78.865 109.284 78.9947 109.673C78.3465 110.062 77.6982 109.673 77.1797 109.544C72.6422 108.247 69.2716 105.653 67.327 101.374C65.901 98.3917 66.9381 95.4092 69.6605 93.7235C70.6976 93.2048 71.0866 93.2048 70.8273 94.5015Z" fill="#F5F5F1"/>
<path id="Vector_73" d="M86.3836 103.06C88.5875 101.245 91.1803 99.9478 92.9952 97.484C94.0324 96.1873 94.8102 94.7609 95.1991 93.0751C95.5881 91.6487 95.1992 90.2223 94.8102 88.7959C97.4031 89.7036 97.5326 92.4268 96.6252 95.0202C95.588 98.1324 93.1248 100.337 90.532 102.282C89.3653 103.19 88.0689 103.968 86.6428 104.746C86.5132 104.097 86.3835 103.449 86.2539 102.93L86.3836 103.06Z" fill="#F5F5F1"/>
<path id="Vector_74" d="M79.6432 111.359C78.2172 113.693 76.1429 113.693 72.6426 111.489C73.4204 110.581 73.939 109.284 75.6243 110.322C76.2725 110.711 76.1429 110.84 75.754 111.359C75.4947 111.618 74.9762 111.878 75.3651 112.396C75.754 112.785 76.1429 112.396 76.4022 112.007C77.3097 110.581 78.4764 111.1 79.6432 111.489V111.359Z" fill="#E9DA02"/>
<path id="Vector_75" d="M68.7523 109.025C68.3634 109.025 66.0299 106.432 66.1595 106.302C66.6781 105.783 67.067 104.616 67.7152 105.005C68.6227 105.524 69.4005 106.561 69.9191 107.599C69.9191 107.728 69.1412 108.636 68.7523 109.025Z" fill="#E9DA02"/>
<path id="Vector_76" d="M69.1426 109.414C70.0501 108.247 70.9576 107.34 72.254 108.766C72.5133 109.155 73.68 109.025 73.0318 109.803C72.5132 110.452 71.9947 111.619 70.828 110.581C70.3094 110.192 69.6611 109.674 69.1426 109.285V109.414Z" fill="#E9DA02"/>
<path id="Vector_77" d="M98.3116 92.5569C99.4783 95.2801 98.4413 97.3548 97.1448 99.4296C95.9781 98.6516 96.1077 97.7439 96.8856 96.9658C98.0523 95.7988 98.0523 94.3723 98.182 92.8163C98.182 92.8163 98.182 92.8163 98.182 92.4272L98.3116 92.5569ZM98.3116 95.7988C98.3116 95.7988 98.3116 95.9284 98.3116 96.0581C98.3116 96.0581 98.3116 95.9284 98.3116 95.7988Z" fill="#E9DA02"/>
<path id="Vector_78" d="M91.6989 104.227C91.4396 103.19 91.5693 102.412 92.6064 101.893C93.125 101.634 93.3843 101.115 93.9028 101.893C94.2918 102.542 94.551 102.931 93.9028 103.32C93.2546 103.709 92.7361 104.227 92.2175 104.617C92.2175 104.617 92.2175 104.616 92.0878 104.487C92.0878 104.487 92.0878 104.098 91.8285 104.227H91.6989Z" fill="#E9DA02"/>
<path id="Vector_79" d="M66.0307 102.022C66.8086 103.06 67.5864 104.097 66.1604 105.135C65.7714 105.394 65.6418 105.394 65.3825 105.135C64.3454 103.838 64.864 102.93 66.0307 102.152V102.022Z" fill="#E9DA02"/>
<path id="Vector_80" d="M95.0695 102.282C94.0324 101.115 94.1621 100.207 95.1992 99.4294C95.8474 98.9107 96.366 99.5591 96.366 99.8185C96.7549 101.115 95.3288 101.245 95.0695 102.282Z" fill="#E9DA02"/>
<path id="Vector_81" d="M65.1219 98.1323C65.6405 100.207 65.2948 101.59 64.0848 102.282C63.5662 100.726 64.2144 99.5587 65.1219 98.1323Z" fill="#E9DA02"/>
<path id="Vector_82" d="M92.0889 104.616C91.4407 105.265 90.5332 105.784 89.4961 106.302C89.4961 105.524 88.7183 104.876 89.4961 104.098C90.2739 103.06 90.9222 104.098 91.7 104.098C91.7 104.357 91.8297 104.357 91.9593 104.357C91.9593 104.357 91.9593 104.357 92.0889 104.487V104.616Z" fill="#E9DA02"/>
<path id="Vector_83" d="M86.3836 107.469C86.9022 106.691 86.1242 105.524 87.291 105.265C88.4578 104.876 88.3282 106.302 89.106 106.562C88.1985 107.08 87.4207 107.469 86.2539 107.469H86.3836Z" fill="#E9DA02"/>
<path id="Vector_84" d="M80.291 112.916C80.4207 111.1 81.4578 111.23 82.4949 111.359C81.8467 111.878 81.0689 112.267 80.291 112.916Z" fill="#E9DA02"/>
<path id="Vector_85" d="M76.0127 98.2622C76.0127 98.7809 76.4016 99.1699 76.272 99.8183C75.7534 99.4293 75.6238 98.9106 75.4941 98.2622C75.6238 98.2622 75.7535 98.2622 76.0127 98.2622Z" fill="#141111"/>
<path id="Vector_86" d="M78.605 108.506C78.605 108.506 78.4753 108.377 78.3457 108.247C78.605 108.247 78.605 108.247 78.605 108.506Z" fill="#FCEB02"/>
<path id="Vector_87" d="M91.9596 104.486C91.9596 104.486 91.5706 104.486 91.7003 104.227C91.9596 104.227 91.9596 104.357 91.9596 104.486Z" fill="#12100D"/>
</g>
</g>
</svg>
