<svg width="152" height="138" viewBox="0 0 152 138" fill="none" xmlns="http://www.w3.org/2000/svg">
<circle cx="79.9992" cy="68.9999" r="66.0714" fill="#B9E199" stroke="black" stroke-width="5"/>
<path d="M152.001 49.964C151.614 57.3206 150.969 64.548 149.808 71.7755C148.517 79.3901 147.356 86.8757 146.066 94.4904C145.55 97.3297 144.905 100.169 143.614 102.75C141.808 106.751 140.518 107.526 136.647 107.267C129.421 106.751 122.454 104.815 115.486 103.008C114.454 102.75 114.067 103.008 113.551 103.783C111.357 108.3 108.002 111.397 102.97 112.172C98.4542 112.817 93.9382 112.172 90.1963 109.462C86.3255 106.751 84.9062 102.75 85.2933 98.1041C85.2933 96.9425 85.1642 96.6844 84.003 96.5554C80.3902 95.781 76.7774 94.8776 73.0355 93.9741C62.0681 91.651 51.1006 89.3279 40.1332 87.0048C38.9719 86.7467 38.7139 87.392 38.3268 88.1664C34.843 94.8776 27.2303 98.2332 20.1337 95.6519C14.5855 93.5869 11.1017 89.3279 9.29534 83.6492C9.03728 82.6167 8.65018 81.7132 8.39212 80.6807C8.2631 80.1645 7.87599 79.9064 7.48891 79.7773C6.84376 79.5192 6.19859 79.2611 5.68247 78.8739C1.29549 76.5508 -0.381834 72.6789 0.650396 67.9036C2.06971 61.7087 5.16636 56.9334 10.8436 53.5778C25.4239 45.1887 39.8751 36.5416 54.7134 28.5398C55.4876 28.1526 55.8747 27.6364 55.7457 26.862C55.2296 18.473 65.9389 14.472 71.4872 16.7951C74.8419 18.2148 76.5193 21.0542 77.2935 24.5389C77.4225 25.3132 77.6806 25.8295 78.7128 25.9585C87.3578 26.991 95.8737 28.927 104.519 30.4757C111.486 31.7663 118.583 32.6698 125.55 33.8313C130.969 34.7348 136.389 35.8963 141.808 37.445C144.905 38.3485 147.356 40.1554 149.679 42.2203C151.227 43.64 151.614 45.576 151.872 47.5119C151.872 48.2863 151.872 49.1897 151.872 49.964H152.001ZM150.453 53.3197C150.453 51.7709 150.453 50.0931 150.453 48.5444C150.324 46.4794 150.195 44.2853 148.388 42.8656C145.808 40.9297 143.227 39.1229 140.002 38.3485C136.518 37.5741 133.034 36.7998 129.421 36.0254C121.937 34.4766 114.325 33.7023 106.841 32.4116C97.1639 30.7338 87.6158 28.6688 77.8096 27.2492C76.6484 27.1201 76.2613 26.4748 76.1323 25.3132C75.6161 21.9576 74.1968 19.1183 70.842 17.9567C66.068 16.1499 56.9069 19.6345 57.165 26.7329C57.165 27.5073 57.165 28.4107 56.3909 28.7979C54.1974 29.8304 52.2619 31.2501 50.0684 32.2826C36.9075 39.2519 24.2627 47.1247 11.3598 54.4812C6.06959 57.4496 3.23093 61.9668 1.81161 67.6455C1.29549 69.9686 1.29554 72.1627 2.58583 74.3567C3.74709 76.1636 5.42448 77.1961 7.35991 78.0995C8.13408 78.3576 9.03728 78.6158 9.29534 79.5192C9.68243 80.6808 10.1985 81.9714 10.5856 83.1329C12.263 88.4245 15.6178 92.4254 20.9079 94.1032C26.9723 96.0391 33.2947 93.1998 36.7785 87.6501C38.1978 85.4561 38.1977 85.456 40.7783 85.8432C41.5525 85.9723 42.3267 86.1014 43.1008 86.2304C52.1328 88.1664 61.0359 90.2313 70.0679 92.0382C74.8419 93.0707 79.616 94.6194 84.5191 95.1357C85.6804 95.2647 86.5836 95.5229 86.1965 97.3297C85.8094 99.1366 86.1965 101.073 86.8416 102.879C89.5512 109.332 99.2284 112.946 105.68 109.978C109.035 108.429 111.099 105.719 112.647 102.621C113.164 101.46 113.293 100.685 115.099 101.331C118.196 102.492 121.679 103.008 124.905 103.783C128.905 104.686 133.034 105.719 137.163 105.977C138.324 105.977 139.356 106.106 140.131 104.815C141.808 102.234 142.84 99.3947 143.485 96.4263C145.163 88.6826 146.195 80.9389 147.485 73.1952C148.646 66.484 149.808 59.7727 149.937 52.9325L150.453 53.3197Z" fill="#141111"/>
<path d="M150.452 53.3195C150.452 60.1598 149.162 66.871 148.001 73.5822C146.71 81.3259 145.807 89.1987 144.001 96.8133C143.356 99.7817 142.323 102.621 140.646 105.202C139.872 106.493 138.84 106.364 137.678 106.364C133.549 106.106 129.421 105.073 125.421 104.17C122.066 103.395 118.711 102.879 115.614 101.718C113.808 101.072 113.679 101.718 113.163 103.008C111.615 106.235 109.679 108.945 106.195 110.365C99.7438 113.333 90.0667 109.72 87.3571 103.266C86.5829 101.46 86.3249 99.5236 86.712 97.7168C87.0991 95.9099 86.1958 95.6518 85.0345 95.5227C80.1314 94.8774 75.3574 93.4577 70.5834 92.4252C61.5514 90.6184 52.6483 88.5534 43.6163 86.6174C42.8421 86.4884 42.068 86.3593 41.2938 86.2303C38.7132 85.8431 38.7132 85.8431 37.2939 88.0371C33.8101 93.7159 27.4877 96.4261 21.4233 94.4902C16.0041 92.8124 12.7784 88.6824 11.101 83.52C10.714 82.3584 10.1978 81.0678 9.81075 79.9063C9.5527 79.0028 8.64949 78.8738 7.87532 78.4866C5.93989 77.7122 4.2625 76.5506 3.10124 74.7438C1.68192 72.6788 1.68195 70.3557 2.3271 68.0326C3.74642 62.3538 6.45605 57.8367 11.8753 54.8682C24.7781 47.5117 37.423 39.639 50.5839 32.6696C52.6484 31.5081 54.7128 30.0884 56.9063 29.1849C57.6804 28.7978 57.6805 27.7653 57.6805 27.1199C57.4224 20.0215 66.4544 16.5369 71.3575 18.3438C74.7123 19.5053 76.1315 22.4738 76.6477 25.7003C76.7767 26.8619 77.1638 27.3781 78.3251 27.6362C88.0023 29.0559 97.6794 31.1209 107.357 32.7987C114.84 34.0893 122.453 34.8637 129.937 36.4124C133.42 37.1868 137.033 37.8321 140.517 38.7355C143.743 39.5099 146.323 41.3167 148.904 43.2527C150.71 44.6724 150.839 46.8664 150.968 48.9314C150.968 50.4802 150.968 52.1579 150.968 53.7067L150.452 53.3195ZM28.0039 65.8385C28.2619 65.8385 28.907 65.8385 29.4231 65.8385C35.1004 66.4838 41.0357 71.7753 38.5842 79.0028C37.939 81.0678 37.9391 81.0678 40.0035 81.584C45.2937 82.7456 50.5839 83.649 55.8741 84.9397C66.1964 87.2628 76.5186 89.4568 86.97 91.6508C88.3893 91.909 89.6796 91.6508 90.5828 90.3602C91.7441 88.6824 93.4215 87.5209 95.0988 86.4884C99.4858 83.9071 103.615 84.2943 107.486 87.5209C108.647 88.5534 109.808 89.5859 110.582 90.8765C111.744 92.5543 112.647 94.3612 112.26 96.5552C112.26 97.2005 112.26 97.5877 113.034 97.7168C118.711 99.0074 124.388 100.169 130.066 101.201C132.13 101.589 134.195 101.847 136.259 101.976C137.807 102.105 138.969 101.976 139.098 100.427C139.356 98.104 139.743 95.7809 140.259 93.4577C140.259 93.1996 140.259 92.8124 140.259 92.5543C140.001 91.7799 140.259 91.1346 140.388 90.3602C140.646 88.9405 141.291 87.2628 139.743 86.1012C139.356 85.8431 139.614 85.3268 139.743 84.9397C141.936 74.2275 144.259 63.6445 145.42 52.6742C145.807 48.9314 144.646 46.4792 141.162 45.0596C139.356 44.2852 137.42 43.5108 135.485 42.9946C124.388 40.0262 113.163 37.703 101.808 35.8962C91.2279 34.3474 80.6476 32.4115 69.9382 30.6046C68.6479 30.3465 68.3899 29.9593 68.6479 28.7978C69.035 27.12 68.2608 26.2165 66.5834 25.8293C66.1963 25.8293 65.6802 25.5712 65.2931 25.4422C64.1319 25.055 63.3577 25.4421 62.7126 26.4746C62.0674 27.5071 61.6804 28.6687 61.2933 29.8303C61.1643 30.3465 60.9062 30.7337 60.3901 30.9918C51.4871 35.7671 42.5841 40.6715 33.8102 45.7049C27.4877 49.3186 21.1653 52.9323 15.23 57.0623C10.972 60.0307 8.64949 64.0316 7.87532 69.065C7.35921 72.4206 8.0044 73.5822 11.2301 74.4856C14.4558 75.5181 14.4558 75.3891 16.2622 72.6788C18.8428 68.6779 22.1975 65.8385 27.4877 65.8385H28.0039ZM103.357 107.784C104.131 107.784 104.776 107.525 105.292 107.009C105.55 106.751 105.808 106.364 106.195 106.235C107.744 105.719 108.518 104.17 109.808 103.395C110.066 103.137 110.453 102.492 110.195 101.976C109.808 101.072 110.195 100.427 110.711 99.7818C111.744 98.233 111.098 96.4262 111.485 94.7484C111.485 94.4902 111.486 94.2321 111.227 94.1031C110.324 93.4577 110.195 91.909 109.679 91.6508C108.389 90.7474 107.357 89.4568 106.066 88.9406C105.034 88.4243 103.873 87.1337 102.324 88.0371C102.324 88.0371 101.937 87.65 101.808 87.5209C100.647 85.4559 99.0987 88.0371 97.8084 87.2628C97.2923 87.0046 96.7762 87.65 96.5181 88.1662C96.5181 88.1662 96.5181 88.1662 96.5181 88.2953C96.5181 88.9406 96.002 88.9405 95.4859 89.0696C93.8085 89.7149 93.0344 91.5218 91.615 92.4252C91.486 92.4252 91.486 92.9415 91.615 93.1996C91.8731 93.974 91.615 94.2321 90.9699 94.6193C90.1957 95.0065 89.6796 95.9099 90.1957 96.5552C90.8408 97.4587 90.1957 98.3621 90.3248 99.1365C90.7118 100.943 91.357 102.879 92.5183 104.299C93.4215 105.59 95.0988 106.364 96.5181 107.267C97.6794 108.042 99.3567 107.784 100.776 108.042C101.421 108.171 102.582 107.655 103.357 108.042V107.784ZM23.4879 68.6779C23.2298 68.6779 23.1007 68.6779 23.1007 68.6779C21.9394 69.7104 20.6492 70.6138 19.617 71.6463C19.1009 72.1625 18.8428 72.8078 17.9396 73.066C16.2622 73.7113 17.8106 76.2925 15.7461 76.9378C15.6171 76.9378 15.488 77.7122 15.617 77.9703C16.3912 79.0028 15.6171 80.1644 15.8751 81.0678C16.2622 82.7456 17.0364 84.4234 17.9396 85.714C18.9718 87.1337 20.9072 87.9081 22.4556 88.9406C22.9717 89.3278 23.4879 89.1987 24.133 89.0696C24.3911 89.0696 24.6491 88.6824 25.0361 89.0696C26.5845 90.4893 28.3909 88.6824 29.9393 89.3277C30.1974 89.3277 30.5844 89.0696 30.7134 88.9406C31.6166 87.779 32.9069 87.0047 34.0682 86.3593C36.6487 84.5525 35.7455 81.7131 36.9068 79.519C37.0358 79.1319 36.9069 78.2284 37.0359 77.5831C37.2939 76.9378 37.4229 76.0344 36.6487 75.5181C35.7455 74.8728 35.4875 74.0985 35.2294 73.195C34.9714 71.9044 33.5521 72.8078 33.0359 72.2916C32.3908 71.7753 32.6489 70.2266 31.2296 70.3556C30.7135 70.3556 30.4553 70.3557 30.1973 69.9685C29.6812 69.3232 29.0361 69.1941 28.3909 69.5813C27.7458 69.8394 27.4877 69.7103 27.2296 69.1941C26.8426 68.5488 26.1974 68.0325 25.5523 68.4197C24.7781 68.936 24.262 69.1941 23.4879 68.8069V68.6779ZM63.0996 25.055C63.0996 24.0225 62.7126 23.3772 62.3255 22.8609C62.0674 22.4737 61.6803 22.4737 61.4223 22.7319C61.1642 22.99 61.1642 23.2481 61.4223 23.5062C61.8094 24.1515 62.3255 24.6678 63.2287 25.055H63.0996ZM67.7447 24.1515C68.3899 23.6353 68.6479 22.99 69.035 22.4738C69.164 22.0866 69.164 21.8284 68.7769 21.5703C68.3898 21.3122 68.1318 21.5703 68.0028 21.9575C67.7447 22.6028 67.4866 23.3772 67.8737 24.1515H67.7447ZM69.2931 25.3131C70.0673 24.6678 70.9704 24.6678 71.0994 23.6353C71.0994 23.2481 70.8414 22.99 70.4543 23.1191C69.5511 23.3772 69.164 24.0225 69.164 25.184L69.2931 25.3131ZM65.6802 23.5062C65.6802 22.7319 65.9383 21.9575 65.1641 21.4412C64.9061 21.3122 64.648 21.4412 64.519 21.6994C64.39 22.4737 64.777 23.119 65.2931 23.5062C65.2931 23.5062 65.2932 23.5062 65.5512 23.5062H65.6802Z" fill="#FAFAFA"/>
<path d="M28.0038 65.8386C22.5846 65.8386 19.2298 68.678 16.7783 72.6789C14.9719 75.5182 14.9718 75.5182 11.7461 74.4857C8.5204 73.5823 7.87529 72.2917 8.3914 69.0651C9.16558 64.0317 11.4881 60.0308 15.7461 57.0624C21.6814 52.9324 28.0038 49.3187 34.3262 45.705C43.1001 40.6716 52.0032 35.7672 60.9062 30.9919C61.4223 30.7338 61.6803 30.4756 61.8093 29.8303C62.0673 28.6688 62.5835 27.5072 63.2287 26.4747C63.8738 25.3132 64.648 25.0551 65.8092 25.4422C66.1963 25.5713 66.7124 25.7004 67.0995 25.8294C68.6479 26.2166 69.551 27.1201 69.1639 28.7979C68.9059 29.9594 69.1639 30.3466 70.4542 30.6047C81.0346 32.4116 91.615 34.2185 102.324 35.8963C113.679 37.5741 124.904 39.8972 136.001 42.9947C137.936 43.5109 139.743 44.2853 141.678 45.0597C145.162 46.4793 146.323 49.0606 145.936 52.6743C144.775 63.5155 142.452 74.2276 140.259 84.9397C140.259 85.3269 139.872 85.8432 140.259 86.1013C141.807 87.2628 141.162 88.9406 140.904 90.3603C140.775 91.1347 140.517 91.78 140.775 92.5544C140.775 92.8125 140.775 93.1997 140.775 93.4578C140.259 95.7809 139.872 97.975 139.614 100.427C139.485 101.976 138.323 102.105 136.775 101.976C134.711 101.847 132.646 101.46 130.582 101.202C124.904 100.169 119.227 99.0075 113.55 97.7169C112.776 97.5878 112.647 97.2006 112.776 96.5553C113.163 94.3613 112.26 92.6835 111.098 90.8766C110.195 89.586 109.163 88.4244 108.002 87.521C104.131 84.2944 100.002 83.9072 95.6149 86.4885C93.8085 87.521 92.2601 88.8116 91.0988 90.3603C90.1956 91.6509 88.9054 91.9091 87.4861 91.6509C77.1638 89.5859 66.7124 87.2629 56.3901 84.9397C51.1 83.7782 45.8097 82.7457 40.5195 81.5841C38.4551 81.0679 38.4551 81.0679 39.1002 79.0029C41.5518 71.6464 35.6165 66.4839 29.9392 65.8386C29.4231 65.8386 28.7779 65.8386 28.5199 65.8386H28.0038ZM41.2938 57.5786C40.5196 57.3205 39.7454 57.1915 38.9712 57.1915C34.3262 56.0299 29.4231 55.5136 24.7781 54.3521C22.3265 53.7068 20.9072 54.8683 19.2298 56.1589C19.2298 56.288 19.3588 56.4171 19.4878 56.4171C25.0361 57.5786 30.4553 58.8693 36.0035 59.7727C36.6487 60.0308 37.4229 60.1599 38.197 60.2889C39.2293 60.5471 40.3905 60.6761 41.4227 60.9342C42.0679 61.3214 42.713 61.3214 43.3582 61.3214C46.4549 61.9667 49.6806 62.7411 52.7773 63.3864C55.4869 63.9027 55.4869 63.9027 56.003 61.0633C56.003 60.418 56.003 60.1599 55.3578 60.0308C52.3902 59.5145 49.4226 58.9983 46.4549 58.4821C45.8098 58.0949 45.0356 58.0949 44.2614 58.0949C43.3582 57.8367 42.455 57.5786 41.4227 57.5786H41.2938ZM108.518 71.2592C107.486 70.7429 106.453 70.6139 105.292 70.6139C104.776 70.2267 104.002 70.3558 103.486 70.2267C100.389 69.5814 97.1632 68.9361 94.0665 68.2908C90.8408 67.6455 91.8731 67.3873 91.2279 70.4848C91.0989 71.1301 91.2279 71.5173 92.0021 71.6464C94.7117 72.1626 97.4213 72.8079 100.131 73.3242C100.905 73.5823 101.679 73.9695 102.453 73.8404C103.615 74.3567 104.776 74.4857 105.937 74.7439C106.582 74.8729 107.357 75.2601 108.002 75.131C108.002 75.131 108.131 75.2601 108.26 75.2601C117.679 77.3251 126.969 79.5191 136.388 81.5841C139.098 82.2294 138.969 82.1004 139.743 79.3901C140.13 77.8413 139.614 77.4542 138.194 77.196C129.033 75.3892 119.872 73.5823 110.84 71.7754C110.066 71.6464 109.292 71.2592 108.518 71.3883V71.2592ZM110.969 81.5841C110.324 81.0679 109.679 80.5516 108.905 80.4226C108.26 79.9063 107.615 79.6482 106.84 79.5191C104.131 78.2285 101.292 78.0995 98.4535 78.6157C92.6472 79.6482 87.7441 82.1004 87.6151 89.9731C87.6151 90.7475 88.0022 90.6185 88.3893 90.8766C88.7764 91.2638 88.9054 90.8766 89.1634 90.6185C92.7762 85.3269 97.5503 82.6166 104.002 84.0363C104.389 84.1654 104.905 84.2944 105.292 84.5525C106.066 85.0688 106.969 85.585 107.744 86.2304C108.002 86.4885 108.26 86.7466 108.518 86.8757C109.55 88.0372 110.582 89.1988 111.614 90.3603C112.776 91.78 113.679 93.4578 113.55 95.3938C113.55 96.5553 113.937 97.0716 115.098 97.2006C120.905 98.3622 126.711 99.5237 132.517 100.685C134.84 101.202 135.227 100.814 135.227 98.4912C136.259 93.9741 137.291 89.3278 138.452 84.8107C138.84 83.5201 138.452 83.1329 137.291 82.8747C132.259 81.7132 127.227 80.5516 122.066 79.3901C112.002 77.196 101.808 74.8729 91.744 72.6789C91.2279 72.6789 90.8408 72.2917 90.7118 73.1951C90.1957 75.9054 89.6795 78.6157 89.1634 81.4551C95.6149 77.3251 99.0986 76.2926 104.905 77.4541C112.647 79.0029 118.969 85.0688 119.227 94.3612C119.227 95.1356 119.356 95.2647 120.13 95.3938C124.517 95.91 128.775 96.6843 132.904 98.104C132.517 98.7493 131.872 98.3622 131.356 98.3622C127.485 97.4587 123.614 96.5553 119.743 96.0391C118.324 95.91 118.066 95.2647 118.066 93.9741C117.808 89.586 116.001 85.8432 112.776 83.0038C112.389 82.3585 111.743 81.9713 111.098 81.7132L110.969 81.5841ZM97.9374 42.4784C95.6148 41.9622 93.2924 41.4459 90.9698 40.9297C90.1957 40.8006 89.4215 40.5425 88.6473 40.4134C81.0346 38.7356 73.5509 37.0578 65.9382 35.1219C65.2931 34.9928 64.5189 34.8638 63.7447 35.1219C61.8093 35.8962 60.132 36.7997 58.3256 37.8322C58.8417 38.3484 59.6159 38.4775 60.261 38.6066C63.2287 39.51 66.3253 40.0262 69.422 40.5425C74.5832 41.575 79.7443 42.7365 84.9055 43.769C85.5506 44.1562 86.3248 44.1562 86.9699 44.2853C89.1634 44.8015 91.4859 45.1887 93.6794 45.705C94.7117 46.0921 95.6149 46.3503 96.7761 46.3503C97.6793 46.8665 98.5826 46.8665 99.6148 47.1246C113.808 50.2221 128.001 53.4487 142.323 56.0299C142.968 56.0299 144.001 56.5462 143.872 55.3846C143.872 54.3521 145.033 52.9324 142.968 52.5452C140.13 51.8999 137.42 51.2546 134.582 50.6093C123.227 47.899 112.002 45.4468 100.647 43.1237C99.6148 42.8656 98.7116 42.4784 97.6794 42.4784H97.9374ZM60.9062 42.4784C56.6482 41.3169 52.3902 41.0587 48.0033 40.8006C46.842 40.8006 45.5517 40.8006 44.5195 41.3168C40.2615 43.6399 36.0036 45.834 31.8747 48.5443C29.2941 49.7059 26.9716 51.2546 24.52 52.8034C25.0361 52.9324 25.2942 53.0615 25.5522 53.1905C35.3584 55.1265 45.0356 56.9333 54.8418 58.8692C56.1321 59.1274 56.5192 58.8692 56.7772 57.5786C57.6804 53.0615 58.7126 48.4152 59.7449 43.8981C60.0029 43.5109 59.7448 42.4784 60.7771 42.6074C60.261 47.5118 58.8417 52.158 57.8094 56.9333C57.2933 59.3855 57.2933 59.3855 59.8739 59.6436C62.8415 60.418 65.9383 61.0633 69.035 61.8377C68.2608 63.2574 68.1317 64.8061 67.7447 66.2258C67.4866 67.0002 67.3576 67.0001 66.7124 66.8711C64.0028 66.3548 61.1642 65.8386 58.4546 65.3223C57.6804 65.5805 56.5191 63.9026 56.003 65.8386C54.9708 69.9686 54.0676 74.0985 53.1644 78.3576C52.9064 79.5191 52.6483 80.5516 52.3902 81.7132C52.3902 82.1004 52.1321 82.4876 51.7451 82.4876C51.2289 82.4876 51.229 81.8422 51.358 81.4551C51.358 80.6807 51.616 79.7773 51.7451 79.0029C52.7773 74.2276 53.8095 69.4523 55.2289 64.8061C54.5837 64.677 53.9386 64.548 53.2934 64.4189C42.584 62.3539 31.8746 60.2889 21.2943 57.9658C18.4556 57.3205 16.2621 57.7077 14.3267 59.9018C13.0364 61.3214 11.6171 62.612 11.101 64.677C11.7461 64.8061 12.3913 64.9351 12.9074 65.1933C14.7138 65.7095 16.6492 66.0967 17.9395 67.6455C15.746 67.6455 13.9397 66.613 11.8752 65.9676C10.7139 65.7095 10.5848 65.9677 10.1978 67.0002C9.81067 68.1617 10.0688 68.678 11.2301 68.9361C11.8752 69.0651 12.5203 69.3233 13.1655 69.5814C15.2299 70.4848 17.1653 70.872 18.4556 68.2908C18.4556 68.0327 18.8428 67.9036 18.9718 67.7745C19.2298 67.5164 19.4878 67.3873 19.8749 67.1292C24.2619 63.9026 29.036 63.5155 33.9391 65.8386C38.7132 68.1617 40.9066 72.0336 40.3905 77.3251C40.1325 78.4867 39.7454 79.5191 39.3583 80.6807C44.9066 81.8422 50.3258 82.7457 55.745 84.0363C65.8092 86.2303 75.7444 88.4244 85.8087 90.4894C85.8087 90.4894 86.0667 90.4894 86.1958 90.4894V90.2313C87.228 85.0688 88.1312 79.9063 89.1634 74.8729C89.6795 72.4207 89.6795 72.4207 87.228 71.9045C86.1958 71.6464 85.0345 71.3882 84.0023 71.1301C82.4539 70.7429 81.9378 69.9685 82.1959 68.4198C82.1959 67.9036 82.4539 67.3873 82.583 66.742C82.841 65.7095 83.4862 65.3223 84.5184 65.5805C85.8087 65.8386 87.0989 66.0967 88.2602 66.3549C90.5827 66.8711 90.5827 66.8711 91.0988 64.677C92.002 60.1599 92.9053 55.6427 93.8085 51.1255C94.0666 50.093 93.6794 49.964 92.7762 49.7058C82.1958 47.5118 71.4865 45.1887 60.9062 42.8656V42.4784ZM47.7452 39.3809C52.1322 39.7681 56.5192 40.6715 60.6481 41.575C77.1638 45.0596 93.5504 48.5443 109.937 52.1581C114.969 53.3196 120.13 54.3521 125.162 55.5136C128.001 56.1589 130.969 56.4171 133.807 56.9333C136.517 57.4496 139.227 58.0949 141.936 58.6111C142.452 58.6111 143.356 59.1274 143.485 58.353C143.614 57.7077 142.71 57.7077 142.194 57.5786C140.517 57.0624 138.711 56.5461 137.033 56.1589C121.034 52.6743 105.034 49.1896 88.9053 45.705C80.3894 43.8981 71.8736 41.9622 63.4867 40.2844C61.5513 39.8972 59.6158 39.639 57.8094 38.8647C56.5191 38.3484 56.3901 37.574 57.6804 36.7997C58.9707 36.0253 60.39 35.5091 61.6803 34.7347C63.2286 33.8313 64.906 33.7022 66.7124 34.0894C80.1314 36.6706 93.4214 39.7681 106.84 42.6074C118.969 45.1887 131.098 47.7699 143.356 50.3512C143.743 50.3512 144.259 50.7383 144.517 50.3512C144.775 50.093 144.517 49.5768 144.517 49.1896C143.872 47.7699 142.839 46.7374 141.42 46.2212C138.452 44.9306 135.356 43.8981 132.259 43.1237C120.905 40.4134 109.55 38.2194 98.0664 36.4125C87.7441 34.7347 77.5508 32.9278 67.2285 31.25C65.035 30.8628 62.7125 30.3466 60.6481 31.8953C59.3578 32.9278 57.9385 33.8313 56.3901 34.6056C53.5515 36.1544 50.7128 37.7031 47.8742 39.2519L47.7452 39.3809ZM139.227 76.1635C140.13 76.1635 140.388 76.0345 140.646 75.131C141.549 71.1301 142.452 67.0001 143.097 62.8702C143.485 60.6761 143.485 60.547 141.162 60.1599C134.453 58.7402 127.872 57.0624 121.163 55.6427C112.647 53.7068 104.131 52.029 95.7439 50.2221C95.3568 50.2221 94.5826 49.5768 94.5826 50.6093C94.5826 51.8999 94.0666 53.1905 93.8085 54.4811C93.5504 55.9008 93.4214 57.3205 93.1634 58.6111C92.6472 61.0633 92.2601 63.3864 91.615 65.8386C91.3569 66.8711 91.615 67.2583 92.6472 67.2583C92.9053 67.2583 93.0343 67.2583 93.2924 67.2583C104.647 69.4523 116.001 71.7754 127.356 73.9695C131.227 74.7439 135.227 75.5182 139.098 76.2926L139.227 76.1635ZM67.7447 62.3539C65.1641 61.8377 62.5835 61.4505 60.1319 60.9342C59.2287 60.8052 58.3255 60.418 57.5514 60.5471C56.5191 60.8052 57.0353 62.2249 56.5191 62.8702C55.874 63.7736 56.5191 64.0317 57.1643 64.2899C59.0997 64.9352 61.1641 64.9352 63.0996 65.4514C66.8414 66.3548 66.9705 66.2258 67.7447 62.3539ZM84.3893 66.2258C84.1313 66.2258 83.7442 66.0967 83.6152 66.6129C83.3571 67.5164 82.97 68.5489 83.099 69.4523C83.099 69.9686 84.3894 69.8395 85.1636 70.0976C86.3248 70.3558 87.6151 70.6139 88.7763 70.872C89.5505 71.0011 89.9376 70.872 90.0666 70.0976C90.0666 69.5814 90.1957 68.9361 90.3247 68.4198C90.4537 67.7745 90.3247 67.5164 89.5505 67.3873C87.8731 67.0001 86.1958 66.742 84.2603 66.3549L84.3893 66.2258ZM16.0041 71.2592C13.8106 70.872 11.7461 70.2267 9.81069 69.4523C8.90749 73.5823 12.7784 73.0661 14.4558 74.6148C14.9719 73.4532 15.4879 72.4207 16.0041 71.3883V71.2592ZM67.2285 28.9269C67.6156 28.9269 68.1317 29.185 68.1317 28.5397C68.1317 28.0235 68.2607 27.3782 67.6156 27.12C66.8414 26.8619 65.9383 26.4748 65.1641 26.3457C64.0028 26.2166 63.8738 27.2491 63.6157 28.0235C63.3577 28.9269 64.3899 28.6688 64.777 28.6688C65.5512 28.7978 66.4543 28.7979 67.2285 28.9269ZM138.323 98.3622C138.194 97.975 138.71 97.2006 137.807 97.0715C136.775 96.9425 137.291 97.8459 137.033 98.2331C137.033 98.3622 137.033 98.4912 137.033 98.6203C137.033 99.2656 136.517 99.9109 136.775 100.685C136.775 100.685 137.42 100.814 137.678 100.685C138.452 100.169 138.323 99.2656 138.452 98.4912C138.452 98.4912 138.452 98.4912 138.452 98.2331L138.323 98.3622ZM139.356 92.9415C139.356 92.6834 139.614 91.78 138.84 91.78C138.194 91.78 138.452 92.5544 138.194 92.9415C138.194 93.1997 138.065 93.4578 138.065 93.7159C138.065 94.3612 137.162 95.2647 138.065 95.5228C139.098 95.7809 139.098 94.4903 139.227 93.7159C139.227 93.5869 139.227 93.3287 139.227 92.9415H139.356ZM67.8737 30.4756C67.8737 30.3466 67.8737 30.2175 67.8737 30.0885C66.3253 29.8304 64.777 29.7013 63.3577 29.4432C63.0996 29.4432 62.9706 29.4431 62.9706 29.7013C62.9706 29.9594 63.0996 30.0885 63.3577 30.0885C64.906 30.0885 66.4544 30.3466 68.0027 30.4756H67.8737ZM139.485 87.521C139.356 88.2953 139.098 89.1988 138.969 89.9731C138.969 90.2313 138.71 90.6185 139.098 90.7475C139.485 90.7475 139.743 90.7475 139.872 90.2313C139.872 89.3278 140.001 88.4244 139.485 87.521Z" fill="#141111"/>
<path d="M103.357 107.784C102.583 107.526 101.422 108.042 100.776 107.784C99.3571 107.397 97.6797 107.784 96.5185 107.009C95.0992 106.106 93.5508 105.332 92.5186 104.041C91.3573 102.621 90.7122 100.685 90.3251 98.8785C90.1961 98.1041 90.8412 97.3297 90.196 96.2973C89.6799 95.6519 90.1961 94.7485 90.9702 94.3613C91.6154 93.9741 91.8734 93.716 91.6154 92.9416C91.6154 92.6835 91.6154 92.2964 91.6154 92.1673C93.1637 91.2639 93.9379 89.457 95.4863 88.8117C96.0024 88.5536 96.3894 88.6826 96.5185 88.0373C96.5185 88.0373 96.5185 88.0373 96.5185 87.9082C96.7765 87.392 97.2926 86.7467 97.8088 87.0048C99.099 87.7792 100.647 85.1979 101.809 87.2629C101.809 87.5211 102.196 87.7792 102.325 87.7792C103.873 86.7467 104.905 88.1664 106.067 88.6826C107.357 89.1989 108.389 90.6185 109.679 91.3929C110.196 91.7801 110.325 93.1998 111.228 93.8451C111.357 93.8451 111.486 94.3613 111.486 94.4904C110.97 96.1682 111.744 97.9751 110.712 99.5238C110.196 100.169 109.808 100.814 110.195 101.718C110.454 102.234 110.066 102.879 109.808 103.138C108.518 104.041 107.744 105.59 106.196 105.977C105.68 106.106 105.55 106.364 105.292 106.751C104.905 107.268 104.26 107.526 103.357 107.526V107.784ZM96.2604 104.944C96.7765 106.622 97.5507 107.009 99.099 106.106C99.3571 106.235 99.6151 106.364 99.8732 106.493C100.002 106.88 100.389 107.268 100.776 107.009C101.551 106.364 102.196 106.493 102.97 106.751C103.357 106.751 104.002 106.751 104.131 106.751C104.776 105.461 106.325 105.203 107.228 104.17C108.26 103.008 109.421 102.363 109.55 100.427C109.55 99.3948 109.937 98.3623 110.195 97.3298C110.454 95.5229 109.937 94.3613 109.163 92.9416C108.647 91.7801 108.389 91.651 107.357 92.0382C107.099 91.651 106.712 91.2639 106.454 90.7476C106.454 88.9407 105.034 90.2313 104.389 89.8442C104.389 88.2954 103.615 88.2954 102.712 89.1989C101.422 89.586 101.293 88.2954 100.518 87.5211C100.26 88.9407 99.6152 88.9407 98.712 88.1664C97.9378 87.6501 97.4217 87.7792 97.4217 88.8117C97.4217 89.7151 97.1636 90.2313 96.1314 89.8442C95.2282 89.586 94.8411 90.1023 94.9701 90.8767C94.9701 91.7801 94.712 92.2964 93.6798 92.0382C92.3895 91.7801 92.2605 92.4254 92.7766 93.3288C93.2927 94.3613 93.0347 94.7485 92.0025 95.0066C91.4863 95.0066 90.8412 95.652 91.0992 96.0392C92.2605 97.2007 92.0024 98.1041 91.0992 99.1366V99.5238C92.1315 100.556 92.9057 101.847 93.1638 103.396C93.1638 103.783 94.583 104.557 95.3572 105.073C95.6152 105.073 96.0023 105.073 96.2604 105.073V104.944Z" fill="#141111"/>
<path d="M23.4887 68.678C24.2629 69.0652 24.779 68.8071 25.5531 68.2908C26.1983 67.7746 26.8434 68.2908 27.2305 69.0652C27.6176 69.5814 27.8757 69.7105 28.3918 69.4524C29.0369 69.1942 29.682 69.3233 30.1981 69.8395C30.4562 70.2267 30.7143 70.3558 31.2304 70.2267C32.6497 70.0977 32.3916 71.5174 33.0368 72.1627C33.5529 72.6789 34.9722 71.7755 35.2303 73.0661C35.4883 74.0986 35.7464 74.7439 36.6496 75.3892C37.2947 75.9055 37.1657 76.6798 37.0367 77.4542C36.7787 78.0995 37.0367 79.132 36.9076 79.3901C35.7464 81.5842 36.6496 84.4235 34.069 86.2304C33.0368 87.0048 31.6175 87.6501 30.7143 88.8116C30.5852 89.0698 30.1982 89.3279 29.9401 89.1988C28.2628 88.6826 26.5853 90.4895 25.037 88.9407C24.7789 88.6826 24.5209 88.9407 24.1338 88.9407C23.6177 88.9407 22.9725 89.0698 22.4564 88.8116C20.9081 87.7791 18.9726 87.0048 17.9404 85.5851C17.0372 84.2945 16.263 82.6167 15.876 80.9389C15.6179 80.0354 16.3921 78.8739 15.6179 77.8414C15.4889 77.5833 15.6179 76.9379 15.747 76.8089C17.8114 76.2926 16.263 73.7114 17.9404 72.937C18.7146 72.5498 19.1017 71.9046 19.6178 71.5174C20.6501 70.4849 22.0693 69.5814 23.1015 68.5489C23.1015 68.5489 23.3597 68.5489 23.4887 68.5489V68.678ZM35.8754 77.067C36.2625 75.6473 34.8432 75.6473 34.7141 75.1311C34.327 73.9695 34.1981 72.808 32.5207 73.4533C32.1336 72.0336 30.8433 71.5173 29.6821 71.0011C29.6821 71.0011 29.682 70.872 29.553 70.743C29.2949 70.3558 28.9079 70.3558 28.6498 70.4848C27.7466 71.1302 27.1015 71.0011 26.4563 69.9686C25.8112 68.9361 25.166 71.2592 24.3918 70.2267C23.4886 69.5814 22.9726 69.8395 22.8435 71.0011C22.8435 71.7755 22.7145 72.1627 21.8113 71.9045C20.779 71.6464 20.2629 71.9045 20.392 73.0661C20.392 73.9695 20.0049 74.2276 19.2307 74.2276C18.3275 74.2276 17.9405 74.7439 18.3275 75.5182C18.8437 76.6798 18.3275 76.938 17.4243 77.1961C17.0372 77.1961 16.5211 77.8414 16.7792 78.0995C18.0695 79.261 17.1663 80.2935 16.7792 81.4551C16.7792 81.5842 16.7792 82.1004 17.0373 82.1004C18.1985 82.7457 18.8436 83.5201 18.4565 85.0689C18.4565 85.327 18.8436 85.5851 19.2307 85.8432C20.2629 86.3594 21.2952 87.0048 22.0693 87.7791C22.8435 88.5535 23.6177 89.0698 24.6499 88.2954C25.037 88.0373 25.1661 88.0373 25.4241 88.2954C25.9402 89.0698 26.4563 89.1988 27.1015 88.5535C27.4886 88.2954 28.0047 88.5535 28.3918 88.5535C29.1659 88.8116 29.9401 88.6826 30.4562 87.9082C30.7143 87.3919 31.2304 87.1338 31.7465 87.1338C32.2626 87.1338 32.6497 86.8757 32.6497 86.4885C32.6497 85.5851 33.2949 85.456 33.94 85.0689C34.7142 84.6817 35.6174 84.1654 34.9722 82.8748C34.9722 82.7457 34.9722 82.3586 34.9722 82.3586C36.9076 80.8098 34.9722 78.4867 36.0044 77.1961L35.8754 77.067Z" fill="#141111"/>
<path d="M63.0999 25.0551C62.1967 24.5389 61.6806 24.0226 61.2935 23.5064C61.1645 23.2483 61.0355 22.8611 61.2935 22.732C61.6806 22.4739 61.9387 22.603 62.1967 22.8611C62.5838 23.5064 62.9709 24.0226 62.9709 25.0551H63.0999Z" fill="#141111"/>
<path d="M67.7462 24.1517C67.3591 23.2483 67.6172 22.6029 67.8752 21.9576C68.0043 21.5704 68.2624 21.3123 68.6494 21.5705C69.0365 21.6995 69.0365 22.0867 68.9074 22.4739C68.6494 23.1192 68.3913 23.7645 67.6172 24.1517H67.7462Z" fill="#141111"/>
<path d="M69.293 25.313C69.293 24.1515 69.6801 23.5062 70.5833 23.248C70.8413 23.248 71.2284 23.3771 71.2284 23.7643C71.0994 24.7968 70.1961 24.7968 69.422 25.4421L69.293 25.313Z" fill="#141111"/>
<path d="M65.6817 23.5063C65.5526 23.5063 65.4237 23.5063 65.4237 23.5063C64.7785 22.99 64.5204 22.4738 64.6494 21.6994C64.6494 21.4413 65.0365 21.3122 65.2946 21.4413C66.0688 21.9575 65.8107 22.7319 65.8107 23.5063H65.6817Z" fill="#141111"/>
<path d="M58.1978 65.4514C60.9074 65.9676 63.7461 66.4839 66.4557 67.0001C67.1009 67.1292 67.2299 67.1292 67.4879 66.3548C67.875 64.9351 68.004 63.2573 68.7782 61.9667C65.6815 61.1923 62.5849 60.547 59.6172 59.7727C59.6172 59.2564 59.6172 58.8692 59.6172 58.353C60.5204 54.0939 61.4236 49.7058 62.3268 45.4468C62.4558 44.5434 62.9719 44.5434 63.7461 44.6724C65.2944 44.9305 66.9718 45.1887 68.5201 45.5759C75.7458 46.8665 82.7133 48.5443 89.6809 50.6093C90.5841 50.8674 90.9712 51.3836 90.7131 52.2871C89.5519 56.8042 89.0358 61.5795 88.0035 66.0967C86.7133 65.8386 85.4229 65.7095 84.2617 65.3223C83.2294 65.0642 82.5843 65.3223 82.3262 66.4839C82.1972 67.0001 81.9392 67.5164 81.9392 68.1617C81.6811 69.7104 82.1972 70.4848 83.7455 70.872C84.7778 71.1301 85.939 71.3882 86.9712 71.6463C85.939 75.6472 85.4229 79.7772 84.6487 83.9072C84.3907 85.1978 83.6165 85.7141 82.3262 85.456C81.8101 85.456 81.165 85.1978 80.6489 85.0688C73.0362 83.391 65.2944 82.3585 57.8108 80.2935C55.1012 79.5191 55.1012 79.6482 55.7463 76.8088C56.5205 73.066 57.6818 69.3232 58.0688 65.3223L58.1978 65.4514ZM80.2618 68.6779C80.5199 68.6779 81.036 68.807 81.294 68.5489C81.8101 67.7745 81.8101 66.742 81.6811 65.8385C81.6811 65.0642 80.9069 64.8061 80.3908 64.8061C78.8425 64.8061 78.3264 64.0317 78.7135 62.483C79.1005 61.1924 78.4553 60.6761 77.2941 60.6761C76.778 60.6761 76.2619 60.6761 75.7458 60.6761C74.8426 60.6761 74.1974 61.0633 74.1974 61.9667C74.1974 63.7736 73.2942 63.7736 72.0039 63.2573C70.8427 62.7411 70.0685 63.2573 69.6814 64.5479C69.1653 66.4839 69.2944 67.0001 71.2298 67.3873C72.7781 67.6454 72.9072 68.4198 72.5201 69.7104C72.3911 70.2266 72.133 70.872 72.6491 71.5173C74.0684 72.937 76.649 72.4207 77.0361 70.4848C77.2941 69.0651 77.9392 68.2907 79.4876 68.807C79.6166 68.807 79.8747 68.807 80.1327 68.807L80.2618 68.6779Z" fill="#FEFEFE"/>
<path d="M47.7463 39.3808C50.5849 37.8321 53.4235 36.2833 56.2621 34.7346C57.6815 33.9602 59.1008 33.0568 60.5201 32.0243C62.5845 30.4756 64.9071 30.9918 67.1006 31.379C77.4229 33.0568 87.6161 34.8637 97.9384 36.5415C109.422 38.3483 120.777 40.6714 132.131 43.2527C135.228 44.027 138.324 45.0595 141.292 46.3502C142.711 46.9955 143.744 47.8989 144.389 49.3186C144.518 49.7058 144.776 50.222 144.389 50.4801C144.131 50.8673 143.615 50.6092 143.228 50.4801C131.099 47.8989 118.97 45.3176 106.712 42.7364C93.2934 39.8971 80.0034 36.7996 66.5844 34.2183C64.778 33.8311 63.1007 33.9602 61.5524 34.8636C60.2621 35.638 58.8427 36.1543 57.5524 36.9286C56.2621 37.703 56.3912 38.4774 57.6815 38.9936C59.4879 39.768 61.4233 40.0261 63.3587 40.4133C71.8746 42.2202 80.3905 44.027 88.7774 45.8339C104.777 49.3186 120.777 52.8032 136.905 56.2879C138.712 56.6751 140.389 57.1913 142.066 57.7076C142.582 57.8367 143.486 57.8367 143.357 58.482C143.228 59.1273 142.324 58.8691 141.808 58.7401C139.099 58.2238 136.389 57.4495 133.679 57.0623C130.841 56.546 127.873 56.2879 125.034 55.6426C120.002 54.481 114.841 53.3195 109.809 52.287C93.4224 48.6732 76.9067 45.1886 60.5201 41.7039C56.2621 40.8005 52.0042 39.8971 47.6172 39.5099L47.7463 39.3808Z" fill="#FAFAFA"/>
<path d="M132.776 98.104C128.647 96.6843 124.389 95.91 120.002 95.3937C119.228 95.3937 119.099 95.1356 119.099 94.3612C118.712 85.0688 112.518 79.0029 104.777 77.4541C98.9704 76.2926 95.4866 77.3251 89.0352 81.4551C89.5513 78.6157 90.0674 75.9054 90.5835 73.1951C90.7125 72.4207 91.0996 72.5498 91.6157 72.6789C101.68 75.002 111.873 77.196 121.937 79.3901C126.97 80.5516 132.002 81.7132 137.163 82.8747C138.324 83.1329 138.711 83.52 138.324 84.8107C137.163 89.3278 136.131 93.9741 135.098 98.4912C134.195 98.6203 133.421 98.2331 132.647 98.2331L132.776 98.104Z" fill="#FAFAFA"/>
<path d="M17.9401 67.5164C16.6498 65.9676 14.7144 65.7095 12.908 65.0642C12.2629 64.9351 11.7467 64.806 11.1016 64.5479C11.4886 62.4829 12.908 61.1923 14.3273 59.7727C16.2627 57.7077 18.4562 57.3205 21.2949 57.8367C31.8752 60.1598 42.5846 62.2248 53.294 64.2898C53.9391 64.2898 54.4553 64.5479 55.2294 64.677C53.8101 69.4523 52.7779 74.2276 51.7456 78.8738C48.0038 77.9704 44.391 77.196 40.5201 76.9379C40.9072 71.6463 38.8427 67.6454 34.0687 65.4514C29.1656 63.1283 24.3916 63.5154 20.0046 66.742C19.7465 67.0001 19.4885 67.1292 19.1014 67.3873C18.7143 67.3873 18.4562 67.3873 18.0691 67.3873L17.9401 67.5164Z" fill="#FAFAFA"/>
<path d="M40.3915 77.067C44.1333 77.4542 47.8752 78.0995 51.617 79.0029C51.488 79.7773 51.23 80.5517 51.23 81.4551C51.23 81.8423 51.1009 82.3586 51.617 82.4876C52.0041 82.4876 52.2622 82.1004 52.2622 81.7133C52.5202 80.5517 52.7782 79.5192 53.0363 78.3576C53.9395 74.2277 54.9718 70.0977 55.875 65.8386C56.262 63.9027 57.5524 65.5805 58.3265 65.3224C58.0685 69.1942 56.9072 72.937 56.004 76.8089C55.3588 79.6482 55.3589 79.5192 58.0685 80.2936C65.5521 82.3586 73.2939 83.3911 80.9066 85.0689C81.4227 85.0689 82.0678 85.327 82.5839 85.456C83.8742 85.7142 84.6484 85.1979 84.9064 83.9073C85.6806 79.7773 86.1967 75.7764 87.2289 71.6464C89.6805 72.1627 89.6805 72.1627 89.1644 74.6149C88.1321 79.7773 87.229 84.9398 86.1967 89.9732C86.1967 89.9732 86.0677 90.1023 85.9387 90.2313C75.8744 88.1664 65.8102 85.9723 55.875 83.7783C50.4557 82.6167 45.0365 81.5842 39.4883 80.4226C39.8754 79.2611 40.1334 78.0995 40.5205 77.067H40.3915Z" fill="#CEC8C8"/>
<path d="M139.228 76.1634C135.357 75.389 131.357 74.6146 127.486 73.8403C116.132 71.6462 104.777 69.3231 93.4228 67.129C93.1647 67.129 93.0357 67.129 92.7776 67.129C91.7454 67.129 91.4874 66.7419 91.7454 65.7094C92.2615 63.3863 92.7777 60.9341 93.2938 58.4819C93.5518 57.0622 93.6809 55.6425 93.9389 54.3519C94.197 53.0613 94.7131 51.8997 94.7131 50.4801C94.7131 49.5766 95.4873 50.0929 95.8744 50.0929C104.39 51.8998 112.906 53.7066 121.293 55.5135C128.003 57.0622 134.583 58.74 141.293 60.0306C143.615 60.5469 143.486 60.5469 143.228 62.7409C142.583 66.8709 141.809 70.8718 140.776 75.0018C140.518 75.9052 140.131 76.1634 139.357 76.0343L139.228 76.1634ZM119.358 70.6137C121.422 70.6137 122.196 69.9684 122.583 67.9034C122.97 65.7094 123.099 63.3863 123.745 61.1922C124.39 58.74 123.229 57.3204 120.906 56.6751C117.809 55.9007 114.713 54.9972 111.487 54.3519C106.971 53.3194 102.584 52.0288 97.9388 52.0288C96.0034 52.0288 95.4873 52.5451 95.2292 54.3519C94.7131 57.3203 94.197 60.2888 93.6809 63.2572C93.4228 64.5478 93.8099 65.4512 94.9711 66.0966C95.6163 66.4837 96.3905 66.6128 97.1646 66.8709C100.519 67.7744 103.874 68.1615 107.358 68.6778C111.487 69.3231 115.616 69.9684 119.487 70.6137H119.358ZM141.293 63.9025C141.034 62.87 141.292 61.5794 139.873 61.1922C135.744 59.9016 131.615 59.2563 127.357 58.74C126.583 58.74 125.809 58.74 125.68 59.7725C125.422 62.6119 124.519 65.3222 124.003 68.1616C123.616 70.4847 124.003 71.259 126.196 72.0334C129.809 73.324 133.68 73.7112 137.551 74.3565C138.454 74.3565 139.357 74.2275 139.486 73.324C140.131 70.2265 140.647 67 141.293 63.9025Z" fill="#F5F5F1"/>
<path d="M100.906 43.1237C112.261 45.5759 123.615 48.028 134.841 50.6093C137.679 51.2546 140.389 51.8999 143.227 52.5452C145.163 53.0614 144.002 54.4811 144.131 55.3846C144.131 56.5461 143.227 56.1589 142.582 56.0299C128.26 53.4486 114.067 50.093 99.8737 47.1246C98.9705 46.8665 97.9384 46.8665 97.0352 46.3502C98.3254 45.1887 99.6157 44.1562 100.906 42.9946V43.1237Z" fill="#E9636B"/>
<path d="M110.841 71.5173C120.002 73.3242 129.034 75.131 138.195 76.9379C139.614 77.196 140.13 77.5832 139.743 79.132C138.969 81.8423 139.098 81.9713 136.388 81.326C126.969 79.261 117.679 77.196 108.26 75.002C108.26 75.002 108.131 75.002 108.002 74.8729C108.776 73.7114 110.195 72.808 110.841 71.5173Z" fill="#E9636B"/>
<path d="M59.6175 44.0273C58.5853 48.5445 57.553 53.1907 56.6498 57.7079C56.3917 58.8694 56.0046 59.2566 54.7143 58.9985C44.9082 57.0626 35.2311 55.1267 25.4249 53.3198C25.1668 53.3198 24.7797 53.1907 24.3926 52.9326C26.9732 51.3838 29.2957 49.8351 31.7472 48.6736C32.1343 48.6736 32.5214 48.6735 32.9085 48.5445C36.2633 47.1248 39.618 45.7051 42.9728 44.2855C43.3598 44.1564 43.7469 43.5111 44.263 44.2855C40.9083 46.3504 38.1987 49.0607 35.7472 52.0292C34.7149 53.3198 34.9729 54.0941 36.6503 54.4813C37.5535 54.7395 38.5858 54.8685 39.489 55.1266C43.6179 56.0301 47.6178 57.1916 51.8758 57.5788C52.779 57.5788 53.6821 57.5788 53.9402 56.5463C55.2305 52.9326 56.3918 49.3189 57.6821 45.5761C57.9401 44.8017 57.682 44.4145 56.9079 44.1564C53.9402 42.9948 50.9725 42.7367 47.8758 42.8658C48.1339 42.3495 48.65 42.4786 49.1661 42.4786C52.7789 42.2205 56.1337 43.1239 59.6175 44.0273Z" fill="#F5F5F1"/>
<path d="M85.164 43.8981C80.0028 42.8656 74.8417 41.704 69.6805 40.6715C66.5838 40.0262 63.4871 39.51 60.5194 38.7356C59.8743 38.6065 59.2291 38.4775 58.584 37.9613C60.2614 36.9288 62.0678 35.8963 64.0032 35.251C64.6484 34.9928 65.4225 34.9928 66.1967 35.251C73.6804 37.1869 81.2931 38.8647 88.9058 40.5425C87.7445 41.7041 86.5833 42.9947 85.422 44.1562L85.164 43.8981Z" fill="#E9636B"/>
<path d="M88.2615 66.0966C89.2937 61.4503 89.8099 56.8041 90.9711 52.2869C91.2292 51.3835 90.9711 50.8673 89.9389 50.6091C82.9714 48.5442 75.8747 46.8664 68.7782 45.5757C67.2298 45.3176 65.5524 45.0595 64.0041 44.6723C63.3589 44.6723 62.8429 44.6723 62.5848 45.4467C61.6816 49.7057 60.7783 54.0938 59.8751 58.3529C59.8751 58.74 59.8751 59.2563 59.8751 59.7725C57.2946 59.5144 57.2946 59.5144 57.8107 57.0622C58.8429 52.287 60.2622 47.6407 60.7784 42.7364C60.7784 42.7364 60.7784 42.6073 60.9074 42.4783C71.4878 44.8014 82.1971 46.9954 92.7775 49.3185C93.6807 49.4476 93.9388 49.7057 93.8098 50.7382C92.9066 55.2554 92.0033 59.7725 91.1001 64.2897C90.713 66.4838 90.713 66.4837 88.2615 65.9675V66.0966Z" fill="#CEC8C8"/>
<path d="M132.777 98.104C133.551 98.104 134.325 98.6203 135.229 98.3622C135.229 100.814 134.841 101.072 132.519 100.556C126.713 99.3947 120.906 98.2331 115.1 97.0716C113.939 96.8134 113.552 96.4263 113.552 95.2647C113.552 93.3288 112.778 91.651 111.616 90.2313C110.713 89.0697 109.552 87.9082 108.52 86.7466C109.036 86.3594 109.423 85.8432 110.068 85.456C110.971 84.6816 111.358 83.391 112.648 82.8748C115.874 85.8432 117.681 89.4569 117.939 93.845C117.939 95.1356 118.326 95.7809 119.616 95.91C123.487 96.4263 127.358 97.2006 131.229 98.2331C131.745 98.2331 132.39 98.6203 132.777 97.975V98.104Z" fill="#CEC8C8"/>
<path d="M104.002 84.0364C97.4214 82.6167 92.7764 85.327 89.1636 90.6185C88.9055 91.0057 88.7765 91.2638 88.3895 90.8767C88.1314 90.6185 87.6152 90.8766 87.6152 89.9732C87.6152 82.2295 92.6474 79.6483 98.4537 78.6158C101.292 78.0995 104.131 78.2286 106.841 79.5192C106.841 80.0354 106.453 80.2936 106.195 80.6807C105.421 81.7132 104.26 82.4876 104.002 83.9073V84.0364Z" fill="#CEC8C8"/>
<path d="M36.0042 59.7729C30.456 58.8695 25.0368 57.5788 19.4885 56.4173C19.4885 56.4173 19.3595 56.2882 19.2305 56.1592C20.9078 54.8685 22.3272 53.707 24.7788 54.3523C29.4238 55.5139 34.3269 56.0301 38.9719 57.1917C37.9397 58.0951 37.0364 58.8695 36.0042 59.7729Z" fill="#E9636B"/>
<path d="M67.7443 62.3539C66.9701 66.2258 66.9701 66.3548 63.0992 65.4514C61.1638 64.9351 59.0994 65.0642 57.1639 64.2898C56.3898 64.0317 55.8736 63.7736 56.5188 62.8701C57.0349 62.0958 56.5188 60.8052 57.551 60.547C58.3252 60.2889 59.2284 60.6761 60.1316 60.9342C62.7122 61.4505 65.2928 61.8377 67.7443 62.3539Z" fill="#E9636B"/>
<path d="M44.3907 44.0272C43.8746 43.2528 43.4875 44.0272 43.1004 44.0272C39.7457 45.4468 36.391 46.8665 33.0362 48.2862C32.6491 48.4153 32.2621 48.5443 31.875 48.4153C36.0039 45.834 40.2619 43.64 44.5198 41.1878C45.552 40.6716 46.8423 40.5425 48.0036 40.6715C52.3906 40.9297 56.6485 41.1878 60.9065 42.3494C60.9065 42.3494 60.9064 42.4784 60.7774 42.6075C59.7452 42.4784 60.0032 43.3818 59.7452 43.8981C56.3904 42.9947 52.9067 42.0912 49.2939 42.3494C48.9068 42.3494 48.3907 42.2203 48.0036 42.7365L44.3907 44.0272Z" fill="#CEC8C8"/>
<path d="M46.3271 58.4822C49.2948 58.9984 52.2625 59.5146 55.2301 60.0309C55.8753 60.0309 56.0043 60.289 55.8753 61.0634C55.3592 63.9028 55.4882 63.9028 52.6496 63.3865C49.4238 62.7412 46.3272 62.0959 43.2305 61.3215C44.2627 60.4181 45.2949 59.3856 46.1981 58.4822H46.3271Z" fill="#E9636B"/>
<path d="M100.003 73.1951C97.2936 72.6788 94.5841 72.0335 91.8744 71.5173C91.1003 71.3882 90.9712 71.001 91.1002 70.3557C91.7454 67.2582 90.8422 67.6454 93.9389 68.1617C97.1646 68.6779 100.261 69.4523 103.358 70.0976C102.197 71.1301 101.035 72.1626 99.8742 73.1951H100.003Z" fill="#E9636B"/>
<path d="M90.9702 40.9296C93.2927 41.4459 95.6152 41.9621 97.9377 42.4784C96.6474 43.6399 95.3571 44.8014 94.0669 45.8339C91.8734 45.3177 89.5509 44.9305 87.3574 44.4143C88.6477 43.2527 89.8089 42.0912 91.0992 40.8005L90.9702 40.9296Z" fill="#E9636B"/>
<path d="M84.39 66.2259C86.1964 66.6131 87.8738 67.0003 89.6802 67.2584C90.3253 67.2584 90.5834 67.6456 90.4543 68.2909C90.4543 68.8072 90.1963 69.4525 90.1963 69.9687C90.1963 70.8722 89.6801 71.0012 88.906 70.7431C87.7447 70.485 86.5835 70.2268 85.2932 69.9687C84.519 69.8397 83.3578 69.9687 83.2288 69.3234C83.0997 68.42 83.4868 67.3875 83.7448 66.484C83.7448 65.9678 84.261 66.0969 84.519 66.0969L84.39 66.2259Z" fill="#E9636B"/>
<path d="M17.9407 67.5162C18.3278 67.5162 18.586 67.5162 18.973 67.5162C18.844 67.6453 18.5859 67.9034 18.4569 68.0325C17.1666 70.6137 15.2312 70.2265 13.1667 69.3231C12.5216 69.065 11.8765 68.8068 11.2313 68.6778C10.0701 68.4196 9.81193 67.9034 10.199 66.7418C10.4571 65.8384 10.7152 65.4512 11.8765 65.7094C13.9409 66.2256 15.7473 67.2581 17.9407 67.3872V67.5162Z" fill="#CEC8C8"/>
<path d="M16.0042 71.2592C15.4881 72.4207 14.9721 73.3242 14.4559 74.4857C12.6495 72.937 8.77863 73.5823 9.81086 69.3232C11.7463 70.0976 13.8107 70.872 16.0042 71.1301V71.2592Z" fill="#F5F5F1"/>
<path d="M107.745 86.1013C106.97 85.5851 106.067 85.0688 105.293 84.4235C106.196 82.8748 107.615 81.7132 108.906 80.4226C109.68 80.5517 110.325 81.0679 110.97 81.5842C109.422 82.7457 108.261 84.1654 107.745 85.9722V86.1013Z" fill="#CEC8C8"/>
<path d="M93.9376 45.8338C95.2279 44.6723 96.5182 43.5108 97.8085 42.4783C98.8407 42.4783 99.8729 42.8655 100.776 43.1236C99.4858 44.2851 98.1955 45.3176 96.9052 46.4792C95.873 46.4792 94.8408 46.221 93.8086 45.8338H93.9376Z" fill="#F5F5F1"/>
<path d="M105.292 70.4849C106.324 70.4849 107.485 70.743 108.517 71.1302C107.743 72.2917 106.453 73.0661 105.937 74.4858C104.776 74.2277 103.485 74.0986 102.453 73.5823C103.485 72.5498 104.389 71.5174 105.421 70.4849H105.292Z" fill="#E9636B"/>
<path d="M107.744 86.1012C108.26 84.2944 109.422 82.8747 110.97 81.7131C111.615 81.9713 112.26 82.3584 112.647 83.0038C111.357 83.3909 111.099 84.8106 110.067 85.585C109.551 85.9722 109.034 86.4884 108.518 86.8756C108.26 86.6175 108.002 86.3594 107.744 86.2303V86.1012Z" fill="#FAFAFA"/>
<path d="M90.9704 40.9296C89.6801 42.0911 88.5188 43.2527 87.2285 44.5433C86.5833 44.4142 85.8092 44.5433 85.1641 44.027C86.3253 42.8655 87.4866 41.5749 88.6479 40.4133C89.422 40.5424 90.1962 40.8005 90.9704 40.9296Z" fill="#F5F5F1"/>
<path d="M41.423 60.9345C40.3908 60.6763 39.2295 60.5473 38.1973 60.2892C39.2295 59.3857 40.2618 58.4823 41.294 57.5789C42.3262 57.5789 43.2294 57.837 44.1326 58.0951C43.1004 58.9985 42.0681 59.7729 41.423 60.9345Z" fill="#E9636B"/>
<path d="M105.938 74.4859C106.454 73.0662 107.744 72.2918 108.518 71.1303C109.292 71.0012 110.066 71.2594 110.841 71.5175C110.195 72.9372 108.905 73.7115 108.002 74.8731C107.228 74.8731 106.583 74.615 105.938 74.4859Z" fill="#F5F5F1"/>
<path d="M67.2285 28.9271C66.4543 28.9271 65.5512 28.9271 64.777 28.669C64.2609 28.669 63.3577 28.9271 63.6157 28.0236C63.7448 27.3783 64.0028 26.2168 65.1641 26.3459C66.0673 26.3459 66.8414 26.8621 67.6156 27.1202C68.2607 27.3783 68.2608 28.0236 68.1317 28.5399C68.1317 29.1852 67.6156 28.9271 67.2285 28.9271Z" fill="#DD7E29"/>
<path d="M108.905 80.4225C107.744 81.7131 106.195 82.8747 105.292 84.4234C104.905 84.2944 104.389 84.1653 104.002 83.9071C104.26 82.4875 105.421 81.7131 106.195 80.6806C106.454 80.2934 106.97 80.0353 106.841 79.519C107.615 79.519 108.26 79.9062 108.905 80.4225Z" fill="#FAFAFA"/>
<path d="M105.292 70.485C104.26 71.5175 103.357 72.55 102.324 73.5825C101.421 73.5825 100.776 73.3243 100.002 73.0662C101.163 72.0337 102.324 71.0012 103.486 69.9688C104.131 70.0978 104.776 69.9687 105.292 70.3559V70.485Z" fill="#F5F5F1"/>
<path d="M41.4238 60.9343C42.069 59.6437 43.1012 58.8693 44.1335 58.095C44.9077 58.095 45.6818 58.095 46.3269 58.4822C45.2947 59.3856 44.2625 60.4181 43.3593 61.3215C42.7141 61.3215 42.069 61.3215 41.4238 60.9343Z" fill="#F5F5F1"/>
<path d="M41.2941 57.5786C40.2619 58.482 39.2296 59.3854 38.1974 60.2889C37.4232 60.2889 36.7781 60.1598 36.0039 59.7726C37.0361 58.8692 37.9394 58.0948 38.9716 57.1914C39.7458 57.1914 40.52 57.1914 41.2941 57.5786Z" fill="#F5F5F1"/>
<path d="M138.325 98.362C138.325 98.362 138.325 98.4911 138.325 98.6202C138.325 99.3946 138.325 100.298 137.551 100.814C137.293 100.814 136.776 100.814 136.647 100.814C136.389 100.169 136.776 99.5236 136.905 98.7492C136.905 98.6202 136.905 98.4911 136.905 98.362C137.034 97.9749 136.647 97.0714 137.68 97.2005C138.583 97.3296 138.067 98.1039 138.196 98.4911L138.325 98.362Z" fill="#E9636B"/>
<path d="M139.356 92.9414C139.356 93.3286 139.356 93.5867 139.356 93.7158C139.098 94.4901 139.356 95.6517 138.195 95.5226C137.163 95.2645 138.195 94.3611 138.195 93.7158C138.195 93.4576 138.195 93.1995 138.324 92.9414C138.582 92.5542 138.324 91.6508 138.969 91.7798C139.743 91.7798 139.356 92.6833 139.485 92.9414H139.356Z" fill="#DD7E29"/>
<path d="M67.8739 30.4759C66.3255 30.4759 64.7772 30.2178 63.2289 30.0888C62.9708 30.0888 62.8418 29.9597 62.8418 29.7016C62.8418 29.4434 63.0998 29.3144 63.2289 29.4435C64.7772 29.7016 66.3256 29.8306 67.7449 30.0888C67.7449 30.2178 67.7449 30.3469 67.7449 30.4759H67.8739Z" fill="#DD7E29"/>
<path d="M139.485 87.521C140.001 88.4244 140.001 89.3279 139.872 90.2313C139.872 90.6185 139.614 90.8766 139.098 90.7475C138.582 90.7475 138.84 90.2313 138.969 89.9732C139.098 89.1988 139.356 88.2954 139.485 87.521Z" fill="#D34D55"/>
<path d="M86.1957 89.9731V90.2313C86.1957 90.2313 85.9376 90.2313 85.8086 90.2313C85.8086 90.2313 85.9376 90.1022 86.0667 89.9731H86.1957Z" fill="#CEC8C8"/>
<path d="M95.3577 104.944C94.5835 104.428 93.1643 103.654 93.1643 103.266C92.9062 101.718 92.132 100.556 91.0998 99.3946V99.0074C92.003 97.9749 92.261 97.0715 91.0998 95.9099C90.8417 95.6518 91.4869 95.0065 92.003 94.8774C92.9062 94.6193 93.2932 94.2321 92.7771 93.1996C92.261 92.2962 92.3901 91.6509 93.6803 91.909C94.7126 92.1671 94.9706 91.6509 94.9706 90.7475C94.9706 89.9731 95.2287 89.3278 96.1319 89.7149C97.1642 90.1021 97.4222 89.715 97.4222 88.6825C97.4222 87.65 97.9383 87.5209 98.7125 88.0372C99.6157 88.6825 100.261 88.6825 100.519 87.3918C101.293 88.1662 101.422 89.4568 102.712 89.0696C102.583 89.9731 102.325 90.8765 102.196 91.7799C99.4867 91.2637 97.1641 91.7799 95.6158 94.2321C94.0674 96.6843 94.0674 99.1365 95.8738 101.46C96.0029 101.718 96.2609 101.976 96.1319 102.234C95.8739 103.137 95.0997 103.783 95.2287 104.815L95.3577 104.944Z" fill="#5F6060"/>
<path d="M107.486 91.9093C108.389 91.5222 108.647 91.6512 109.292 92.8128C110.066 94.2325 110.582 95.394 110.324 97.2009C110.195 98.2334 109.808 99.3949 109.679 100.298C109.55 102.105 108.389 102.751 107.357 104.041C106.453 105.203 104.905 105.332 104.26 106.622C104.26 106.751 103.486 106.881 103.099 106.622C102.324 106.364 101.679 106.235 100.905 106.881C100.518 107.268 100.131 106.881 100.002 106.364C100.26 105.461 100.389 104.557 100.26 103.654C104.002 103.654 105.679 102.234 106.582 98.4915C106.969 96.8137 106.324 95.5231 105.808 94.1034C106.324 93.329 106.84 92.5546 107.357 91.9093H107.486Z" fill="#5F6060"/>
<path d="M104.519 89.7151C105.164 90.1023 106.583 88.8117 106.583 90.6186C105.68 91.2639 105.68 92.4254 105.035 93.1998C104.389 93.0708 103.873 92.8126 103.486 92.2964C103.744 91.3929 104.002 90.4895 104.519 89.7151Z" fill="#5F6060"/>
<path d="M99.2292 106.106C97.5518 107.009 96.9067 106.622 96.3906 104.944C96.6487 104.17 97.939 103.912 97.6809 102.75C98.068 103.008 98.5841 103.137 98.9712 103.396C98.9712 104.299 98.9712 105.202 99.3583 105.977L99.2292 106.106Z" fill="#5F6060"/>
<path d="M104.518 89.7152C104.002 90.4896 103.744 91.393 103.486 92.2964C102.969 92.2964 102.711 92.1674 102.324 91.9093C102.453 91.0058 102.711 90.1024 102.84 89.199C103.744 88.2955 104.389 88.2955 104.518 89.8443V89.7152Z" fill="#F5F5F1"/>
<path d="M105.035 93.1996C105.68 92.4253 105.68 91.2637 106.584 90.6184C106.842 91.0056 107.229 91.3928 107.487 91.909C106.971 92.6834 106.454 93.4578 105.938 94.1031C105.422 94.1031 105.164 93.5868 105.035 93.1996Z" fill="#F5F5F1"/>
<path d="M99.2276 106.106C98.7115 105.332 98.8405 104.428 98.8405 103.525C99.3566 103.525 99.8728 103.654 100.389 103.783C100.389 104.686 100.389 105.59 100.131 106.493C99.8727 106.364 99.6147 106.235 99.3567 106.106H99.2276Z" fill="#F5F5F1"/>
<path d="M97.5516 102.75C97.9387 103.912 96.6484 104.041 96.2614 104.944C96.0033 104.944 95.6162 104.944 95.3581 104.944C95.2291 103.912 96.0033 103.267 96.2614 102.363C96.7775 102.234 97.1646 102.621 97.5516 102.75Z" fill="#F5F5F1"/>
<path d="M35.8749 77.0672C34.7136 78.3578 36.7781 80.6809 34.8426 82.2297C34.8426 82.2297 34.7136 82.6169 34.8426 82.7459C35.4878 84.0365 34.5846 84.4237 33.8104 84.94C33.1653 85.3272 32.5201 85.4562 32.5201 86.3597C32.5201 86.7469 32.004 87.005 31.6169 87.005C31.1008 87.005 30.5847 87.2631 30.3266 87.7793C29.8105 88.5537 29.1653 88.6828 28.2621 88.4246C27.875 88.2956 27.3589 88.0375 26.9718 88.4246C26.1977 89.0699 25.6816 88.9409 25.2945 88.1665C25.0364 87.7794 24.9074 87.7794 24.5203 88.1665C23.4881 88.8118 22.843 88.4247 21.9398 87.6503C21.1656 86.8759 20.0043 86.2306 19.1011 85.7144C18.714 85.4562 18.1979 85.1981 18.327 84.94C18.7141 83.5203 18.0689 82.7459 16.9076 81.9715C16.7786 81.9715 16.6495 81.4553 16.6495 81.3262C17.0366 80.1647 17.9398 79.1322 16.6495 77.9707C16.3915 77.7125 16.9076 77.1963 17.2947 77.0672C18.3269 76.8091 18.714 76.4219 18.1979 75.3894C17.8108 74.6151 18.1979 74.0988 19.1011 74.0988C19.8753 74.0988 20.3914 73.8407 20.2624 72.9372C20.2624 71.9047 20.6495 71.5175 21.6817 71.7757C22.5849 72.0338 22.7139 71.7757 22.7139 70.8723C22.7139 69.7107 23.23 69.4526 24.2623 70.0979C25.1655 71.1304 25.8106 68.8072 26.3267 69.8397C26.9718 71.0013 27.488 71.0013 28.5202 70.356C28.9073 70.0979 29.1654 70.2269 29.4234 70.6141C29.4234 70.6141 29.4234 70.8723 29.5524 70.8723C30.8427 71.3885 32.004 71.7757 32.3911 73.3244C34.0684 72.6791 34.1975 73.8407 34.5846 75.0022C34.7136 75.6475 36.133 75.5185 35.7459 76.9381L35.8749 77.0672ZM25.8106 73.3244C22.5849 73.3244 20.0043 76.0347 20.0043 79.3903C20.0043 82.6169 22.972 85.4562 26.5848 85.4562C29.9395 85.4562 32.262 82.7459 32.3911 78.8741C32.3911 76.2928 29.0363 73.3244 25.9396 73.4535L25.8106 73.3244Z" fill="#5F6060"/>
<path d="M80.2623 68.6778C80.0042 68.6778 79.7461 68.6778 79.6171 68.6778C78.0688 68.1615 77.4236 68.9359 77.1655 70.3556C76.7784 72.2915 74.1978 72.8078 72.7785 71.3881C72.2624 70.8718 72.5205 70.2265 72.6495 69.5812C73.0366 68.2906 72.9076 67.5162 71.3592 67.2581C69.2948 66.8709 69.1657 66.3547 69.8109 64.4188C70.198 63.1281 70.8431 62.741 72.1334 63.1281C73.4237 63.6444 74.3269 63.6444 74.3269 61.8375C74.3269 60.805 74.843 60.4178 75.8752 60.5469C76.3914 60.5469 76.9075 60.5469 77.4236 60.5469C78.7139 60.5469 79.359 61.0631 78.8429 62.3538C78.3268 63.9025 78.8429 64.5478 80.5202 64.6769C81.1654 64.6769 81.8105 64.935 81.8105 65.7094C81.8105 66.6128 81.8105 67.5162 81.4235 68.4196C81.1654 68.8068 80.7783 68.5487 80.3912 68.5487L80.2623 68.6778ZM79.488 67.7743C80.1332 67.7743 80.6493 67.7744 80.6493 67C80.6493 66.2256 80.6493 65.7094 79.7461 65.5803C79.488 65.5803 79.23 65.4512 78.972 65.4512C77.2946 65.4512 77.1655 64.5478 77.5526 63.2572C77.6816 62.6119 78.0687 61.8375 76.7785 61.7085C75.8753 61.7085 75.1011 61.5794 74.843 62.87C74.4559 64.935 74.1978 65.064 72.1334 64.6769C71.3592 64.5478 70.8431 64.4187 70.5851 65.3222C70.327 66.2256 71.1012 66.2256 71.6173 66.3547C73.9398 67.1291 73.9398 67.1291 73.6817 69.5812C73.6817 69.9684 73.1656 70.3556 73.6817 70.8718C74.972 71.7753 76.1333 71.3881 76.3914 69.9684C76.3914 69.7103 76.5204 69.3231 76.6494 69.0649C76.7784 68.1615 77.2945 67.6453 78.1977 67.9034C78.5848 67.9034 78.9719 67.9034 79.23 68.0325L79.488 67.7743Z" fill="#141111"/>
<path d="M119.357 70.6139C115.486 69.9686 111.357 69.3233 107.228 68.678C103.873 68.1618 100.39 67.7746 97.0348 66.8712C96.2606 66.7421 95.4865 66.484 94.8413 66.0968C93.6801 65.5805 93.293 64.6771 93.551 63.2574C94.1962 60.289 94.5833 57.3206 95.0994 54.3521C95.3574 52.5453 96.0026 52.0291 97.809 52.0291C102.454 52.0291 106.841 53.3197 111.357 54.3521C114.454 55.1265 117.679 55.9009 120.776 56.6753C123.228 57.3206 124.26 58.7403 123.615 61.1924C123.099 63.3865 122.841 65.7096 122.453 67.9036C122.066 69.9686 121.292 70.743 119.228 70.6139H119.357ZM121.421 68.9362C121.034 68.9362 120.905 68.8071 120.647 68.678C112.389 66.7421 104.131 64.9352 95.8735 63.6446C95.3574 63.6446 94.7123 62.9993 94.4542 63.6446C94.1962 64.419 94.8413 64.8061 95.4865 65.1933C95.8735 65.4515 96.3897 65.5805 96.7767 65.5805C99.7444 66.3549 102.841 66.7421 105.809 67.2583C110.325 68.0327 114.712 68.8071 119.228 69.5815C120.002 69.7105 120.776 69.7105 121.421 68.8071V68.9362ZM121.808 65.3224C122.453 64.1608 121.808 63.7737 120.776 63.5155C112.776 61.4506 104.647 60.289 96.6477 58.4821C96.1316 58.4821 95.3574 57.7078 95.0994 58.9984C94.8413 60.1599 95.6155 60.1599 96.2606 60.289C104.776 61.9668 113.421 63.1284 121.808 65.3224ZM121.679 66.8712C121.937 65.9677 121.421 65.9677 120.776 65.8386C112.389 64.2899 103.873 62.6121 95.4865 60.9343C95.0994 60.9343 94.5832 60.6762 94.5832 61.3215C94.5832 61.8377 94.4542 62.354 95.0994 62.4831C95.3574 62.4831 95.4865 62.483 95.7445 62.6121C104.131 64.0318 112.389 65.5806 120.647 67.6455C121.421 67.9037 121.808 67.6455 121.679 66.7421V66.8712ZM96.0025 53.8359C95.6154 55.1265 96.7767 54.8684 97.4219 55.1265C105.551 57.0625 113.55 58.9984 121.679 60.9343C122.324 61.0634 122.712 61.0634 122.841 60.289C122.841 59.6437 122.841 59.2565 122.066 59.1275C115.873 57.8368 109.68 56.6753 103.486 55.5137C101.035 55.1265 98.5831 54.7394 96.0025 53.965V53.8359ZM95.4865 57.3206C101.809 58.6112 108.002 59.7728 114.196 61.0634C116.647 61.5796 118.97 62.2249 121.421 62.8702C121.937 62.8702 122.453 63.2574 122.583 62.4831C122.583 61.7087 121.937 61.9668 121.679 61.8378C121.679 61.8378 121.421 61.8378 121.292 61.8378C112.905 59.6437 104.389 58.224 96.0025 55.6428C96.0025 56.159 95.7445 56.8043 95.6155 57.5787L95.4865 57.3206ZM118.583 57.3206C112.26 55.3847 99.0992 52.029 96.6477 53.1906C104.131 54.6103 111.357 55.9009 118.583 57.3206Z" fill="#141111"/>
<path d="M141.291 63.9026C140.646 67.0001 140.13 70.0976 139.485 73.3242C139.227 74.2276 138.323 74.4857 137.549 74.3566C133.678 73.8404 129.937 73.3242 126.195 72.0335C124.001 71.2592 123.614 70.4848 124.001 68.1617C124.517 65.3223 125.55 62.612 125.679 59.7727C125.679 58.8692 126.582 58.6111 127.356 58.7401C131.614 59.2564 135.743 59.9017 139.872 61.1923C141.162 61.5795 141.033 62.8701 141.291 63.9026ZM140.259 63.7736C140.259 62.7411 139.872 62.0958 138.84 61.7086C135.227 60.8052 131.614 60.1598 127.872 59.6436C127.098 59.6436 126.711 59.6436 126.582 60.547C126.066 63.1283 125.421 65.7095 124.904 68.2907C124.517 70.3557 124.646 70.6139 126.711 71.3882C130.066 72.5498 133.549 72.937 136.904 73.4532C138.581 73.7113 138.969 73.1951 138.969 71.2592C139.356 68.807 140.388 66.3548 140.259 63.7736Z" fill="#141111"/>
<path d="M44.3909 44.0273L48.0037 42.7367C51.1004 42.6076 54.1971 42.7367 57.0357 44.0273C57.8099 44.2854 58.0679 44.6726 57.8099 45.447C56.5196 49.0607 55.3583 52.6745 54.068 56.4172C53.6809 57.5788 52.9068 57.4497 52.0036 57.4497C47.7456 57.0625 43.7458 55.901 39.6169 54.9976C38.7137 54.7394 37.6814 54.6104 36.7782 54.3522C35.1008 53.9651 34.8428 53.1907 35.875 51.9001C38.3265 48.9317 41.0361 46.0923 44.3909 44.1564V44.0273ZM45.1651 52.6745C45.1651 52.6745 45.2941 52.9326 45.4231 53.0616C45.1651 53.836 44.3909 53.9651 44.0038 54.6104C46.7134 55.7719 49.552 56.1591 52.3907 56.4172C53.2939 56.4172 53.4229 56.0301 53.5519 55.3848C54.4551 52.4163 55.4873 49.577 56.2615 46.6085C56.3905 46.0923 57.2938 45.3179 56.2615 44.9308C55.4873 44.5436 54.5841 44.2854 54.068 45.3179C53.939 45.7051 53.5519 45.9632 53.2939 46.2214C53.0358 46.4795 52.6487 46.8667 52.2617 46.4795C51.8746 46.0923 52.3907 45.8342 52.5197 45.5761C52.7778 45.0598 53.1649 44.6726 53.5519 44.1564C50.7133 43.6401 50.7133 46.9957 48.5198 47.512C48.7779 45.9632 49.9392 45.0598 50.5843 43.7692C44.1329 44.0273 40.52 48.4154 36.6491 52.5454C38.4555 53.4488 39.8749 53.4488 41.0361 51.771C41.2942 51.3838 41.6813 51.1257 42.0684 50.8676C42.3264 50.7385 42.5845 50.6095 42.8426 50.8676C43.2297 51.1257 42.8426 51.5129 42.8426 51.6419C42.3265 52.2872 41.8103 52.9326 41.1651 53.5779C42.8425 54.2232 42.8425 54.2232 44.0038 53.3198C44.5199 53.0616 44.907 52.5454 45.4231 52.5454L45.1651 52.6745Z" fill="#141111"/>
<path d="M97.5505 102.75C97.1634 102.492 96.7764 102.105 96.2602 102.363C96.3893 101.976 96.2602 101.718 96.0022 101.589C94.1958 99.2655 94.1958 96.8133 95.7442 94.3612C97.2925 91.7799 99.615 91.5218 102.325 91.909C102.712 92.1671 102.97 92.4252 103.486 92.2962C103.873 92.8124 104.389 93.0705 105.034 93.1996C105.163 93.5868 105.421 94.1031 105.937 94.1031C106.454 95.5227 107.099 96.8133 106.712 98.4911C105.808 102.105 104.26 103.654 100.389 103.654C99.8731 103.654 99.3569 103.525 98.8408 103.395C98.4537 103.137 97.9376 103.008 97.5505 102.75ZM100.905 102.234C103.873 102.234 105.55 99.9108 105.679 96.6843C105.679 94.7484 102.97 92.6834 100.647 92.5543C98.0667 92.5543 95.7442 94.8774 95.7442 97.4586C95.7442 99.9108 98.0667 102.105 100.905 102.105V102.234Z" fill="#12100D"/>
<path d="M25.8104 73.3241C28.9071 73.3241 32.3908 76.1635 32.2618 78.7447C32.2618 82.4875 29.8103 85.1978 26.4555 85.3269C22.9717 85.3269 19.875 82.6166 19.875 79.261C19.875 75.9054 22.4556 73.3241 25.6813 73.1951L25.8104 73.3241ZM26.3264 83.9072C29.8102 83.9072 30.8425 81.455 31.1005 78.4866C31.2296 76.5507 28.52 74.4857 26.0684 74.3566C23.3588 74.3566 21.1653 76.4216 21.1653 79.261C21.1653 81.9713 23.3588 83.9072 26.3264 84.0363V83.9072Z" fill="#12100D"/>
<path d="M79.4859 67.7744C79.0988 67.7744 78.7117 67.7744 78.4536 67.6454C77.4214 67.3872 77.0343 67.7744 76.9053 68.8069C76.9053 69.065 76.7762 69.4522 76.6472 69.7103C76.3891 71.13 75.0989 71.5172 73.9376 70.6138C73.2925 70.2266 73.8086 69.7103 73.9376 69.3231C74.1957 66.871 74.1957 66.871 71.8732 66.0966C71.3571 65.9675 70.7119 66.0966 70.8409 65.0641C71.099 64.0316 71.6151 64.2897 72.3893 64.4188C74.5828 64.9351 74.8409 64.806 75.0989 62.6119C75.357 61.3213 76.1312 61.4504 77.0344 61.4504C78.3246 61.4504 77.9375 62.3538 77.8085 62.9991C77.4214 64.2897 77.5504 65.3222 79.2278 65.1931C79.4858 65.1931 79.7439 65.3222 80.002 65.3222C80.9052 65.3222 80.9052 65.9675 80.9052 66.7419C80.9052 67.6453 80.26 67.5163 79.7439 67.5163L79.4859 67.7744Z" fill="#E9636B"/>
<path d="M121.422 68.9361C120.777 69.9686 120.002 69.8395 119.228 69.7104C114.712 68.9361 110.325 68.0326 105.809 67.3873C102.713 66.8711 99.7449 66.4839 96.7773 65.7095C96.3902 65.7095 95.874 65.4514 95.487 65.3223C94.8418 65.0642 94.1967 64.548 94.4547 63.7736C94.7128 63.1283 95.3579 63.7736 95.874 63.7736C104.261 65.0642 112.39 66.8711 120.648 68.807C120.906 68.807 121.035 68.807 121.422 69.0651V68.9361Z" fill="#CEC8C8"/>
<path d="M121.809 65.3225C113.422 63.1284 104.777 61.9669 96.261 60.2891C95.6158 60.16 94.8417 60.16 95.0998 58.9985C95.3578 57.8369 96.1319 58.4822 96.648 58.4822C104.648 60.2891 112.777 61.4506 120.776 63.5156C121.938 63.7738 122.454 64.1609 121.809 65.3225Z" fill="#CEC8C8"/>
<path d="M121.68 66.8712C121.68 67.6456 121.422 67.9037 120.648 67.7746C112.39 65.7096 104.132 64.1609 95.7451 62.7412C95.4871 62.7412 95.3581 62.7412 95.1 62.6122C94.3258 62.6122 94.4548 61.9669 94.5839 61.4506C94.5839 60.8053 95.1 61.0634 95.4871 61.0634C103.874 62.7412 112.39 64.29 120.777 65.9678C121.422 65.9678 121.938 66.0969 121.68 67.0003V66.8712Z" fill="#CEC8C8"/>
<path d="M96.003 53.8361C98.4545 54.7395 101.035 54.9977 103.487 55.3849C109.68 56.5464 115.873 57.708 122.067 58.9986C122.97 59.1276 122.97 59.5148 122.841 60.1601C122.841 60.9345 122.325 60.9345 121.68 60.8054C113.551 58.8695 105.551 56.9336 97.4223 54.9976C96.9062 54.8686 95.6159 54.9976 96.003 53.707V53.8361Z" fill="#CEC8C8"/>
<path d="M95.4865 57.3207C95.6155 56.5463 95.7445 56.0301 95.8736 55.3848C104.26 57.8369 112.776 59.3857 121.163 61.5797C121.292 61.5797 121.55 61.5797 121.55 61.5797C121.808 61.8378 122.583 61.5797 122.453 62.225C122.324 62.9994 121.679 62.7413 121.292 62.6122C118.841 62.0959 116.518 61.3216 114.067 60.8053C107.873 59.5147 101.68 58.3532 95.3574 57.0626L95.4865 57.3207Z" fill="#CEC8C8"/>
<path d="M118.583 57.3207C111.358 56.0301 104.003 54.6104 96.6484 53.1907C99.1 52.0292 112.261 55.3848 118.583 57.3207Z" fill="#CEC8C8"/>
<path d="M140.259 63.7737C140.388 66.3549 139.356 68.678 138.969 71.2593C135.614 71.2593 132.388 70.0977 129.291 69.1943C128.646 69.0652 128.259 68.549 128.13 67.9037C127.743 66.484 127.743 64.9352 128.13 63.5156C128.388 62.7412 128.904 62.2249 129.808 62.0959C131.743 61.5796 133.549 62.0959 135.356 62.4831C137.033 62.8703 138.582 63.3865 140.259 63.9027V63.7737Z" fill="#FEFEFE"/>
<path d="M140.26 63.7737C138.582 63.2575 137.034 62.7412 135.356 62.354C133.55 61.9668 131.744 61.3215 129.808 61.9668C129.034 62.2249 128.389 62.6121 128.131 63.3865C127.615 64.8062 127.615 66.3549 128.131 67.7746C128.26 68.4199 128.647 68.9362 129.292 69.0652C132.518 69.9686 135.615 71.1302 138.969 71.1302C138.969 73.0661 138.582 73.5824 136.905 73.3243C133.421 72.808 129.937 72.2918 126.712 71.2593C124.776 70.614 124.518 70.2268 124.905 68.1618C125.421 65.5806 126.066 62.9993 126.583 60.4181C126.712 59.5147 127.228 59.5146 127.873 59.5146C131.486 60.0309 135.227 60.6762 138.84 61.5796C140.002 61.8378 140.26 62.6121 140.26 63.6446V63.7737Z" fill="#CEC8C8"/>
<path d="M45.1646 52.6744C44.5194 52.6744 44.1323 53.1907 43.7452 53.4488C42.5839 54.2232 42.584 54.3522 40.9066 53.7069C41.4227 53.0616 42.0679 52.4163 42.584 51.771C42.584 51.6419 43.1001 51.2547 42.584 50.9966C42.3259 50.8675 42.0678 50.9966 41.8098 50.9966C41.4227 51.2547 41.0356 51.5129 40.7776 51.9C39.6163 53.5778 38.197 53.5779 36.3906 52.6744C40.2615 48.5444 43.8743 44.1563 50.3257 43.8982C49.6806 45.1888 48.5193 46.0923 48.2612 47.641C50.4547 47.1248 50.4547 43.7692 53.2934 44.2854C52.9063 44.8016 52.5192 45.1888 52.2612 45.7051C52.1321 45.9632 51.616 46.2213 52.0031 46.6085C52.3902 46.9957 52.7772 46.6085 53.0353 46.3504C53.2934 46.0923 53.6805 45.7051 53.8095 45.447C54.4547 44.2854 55.2288 44.6726 56.0029 45.0598C57.0352 45.447 56.132 46.2213 56.0029 46.7376C55.0997 49.706 54.1966 52.5453 53.2934 55.5138C53.1643 56.1591 53.0353 56.6753 52.1321 56.5463C49.2934 56.1591 46.4548 55.7719 43.7452 54.7394C44.0033 54.0941 44.9065 53.836 45.1646 53.1907L45.4226 52.9325C45.4226 52.6744 45.1646 52.6744 44.9065 52.9325L45.1646 52.6744Z" fill="#BED8FA"/>
<path d="M100.905 102.234C98.0667 102.234 95.7441 100.04 95.7441 97.5877C95.7441 94.8774 98.0666 92.5543 100.647 92.6834C103.099 92.6834 105.808 94.8774 105.679 96.8133C105.55 99.9108 103.873 102.363 100.905 102.363V102.234ZM103.615 97.2005C103.615 97.2005 103.099 97.3296 103.099 97.4586C103.099 98.3621 102.325 98.7493 101.679 99.2655C101.292 99.6527 101.55 100.169 102.067 100.427C102.583 100.685 103.228 100.427 103.228 100.04C103.228 99.2655 103.228 98.7492 104.131 98.7492C104.518 98.7492 104.647 98.233 104.518 97.8458C104.389 97.4586 104.131 97.2005 103.615 97.2005ZM100.389 99.6527C100.389 99.1364 100.131 98.7492 99.615 98.7492C99.0989 98.7492 98.8408 99.1364 98.8408 99.6527C98.8408 100.169 99.2279 100.685 99.744 100.685C100.26 100.685 100.389 100.169 100.389 99.6527ZM101.292 94.4902C101.292 93.974 100.905 93.5868 100.518 93.5868C100.002 93.5868 99.615 93.974 99.615 94.4902C99.615 95.0065 99.873 95.2646 100.389 95.3937C100.905 95.3937 101.292 95.1355 101.292 94.6193V94.4902ZM98.9699 95.5227C98.9699 95.1355 98.7118 94.7484 98.1956 94.7484C97.6795 94.7484 97.2924 95.1355 97.2924 95.6518C97.2924 96.168 97.6796 96.4261 98.0666 96.2971C98.5828 96.2971 98.8408 96.0389 98.8408 95.5227H98.9699ZM98.0666 98.7492C98.3247 98.7492 98.7118 98.4911 98.7118 97.9749C98.7118 97.4587 98.4537 97.0715 97.8086 97.2005C97.2925 97.2005 97.0344 97.5877 97.0344 98.1039C97.0344 98.4911 97.2925 98.8783 98.0666 98.8783V98.7492ZM104.131 95.3937C104.131 95.0065 103.873 94.7484 103.486 94.7484C102.97 94.7484 102.712 95.1355 102.583 95.6518C102.583 96.0389 102.583 96.2971 103.228 96.2971C103.744 96.2971 104.002 95.9099 104.131 95.3937Z" fill="#CEC8C8"/>
<path d="M26.3264 83.9072C23.3588 83.9072 21.0363 81.8422 21.1653 79.1319C21.1653 76.2926 23.3588 74.2275 26.0684 74.2275C28.52 74.2275 31.2295 76.4216 31.1005 78.3575C30.8425 81.326 29.9392 83.7781 26.3264 83.7781V83.9072ZM28.2619 80.5516C27.4877 80.5516 26.8426 80.8097 26.9716 81.7131C26.9716 82.2294 27.4878 82.4875 28.0039 82.3585C28.9071 82.1003 28.778 81.455 28.5199 80.8097C28.778 80.4225 29.0361 80.8097 29.2942 80.5516C29.6812 80.4225 30.0683 80.0353 29.9393 79.6482C29.9393 79.261 29.5522 78.8738 29.0361 78.8738C28.52 78.8738 28.2619 79.1319 28.1329 79.5191C28.1329 79.7772 28.1329 80.1644 28.1329 80.4225L28.2619 80.5516ZM26.7136 76.1635C26.7136 75.6472 26.3265 75.2601 25.8104 75.3891C25.2943 75.3891 25.0361 75.7763 25.0361 76.2925C25.0361 76.8088 25.4232 77.196 25.9394 77.0669C26.4555 77.0669 26.7136 76.6797 26.7136 76.1635ZM25.0361 80.5516C24.52 80.6807 24.262 81.0678 24.262 81.5841C24.262 82.1003 24.6491 82.6166 25.1652 82.4875C25.6813 82.4875 25.8104 81.8422 25.8104 81.455C25.8104 80.9388 25.5523 80.6807 24.9071 80.5516H25.0361ZM23.3588 78.8738C22.8427 78.8738 22.4556 79.261 22.4556 79.7772C22.4556 80.1644 22.7137 80.5516 23.2298 80.5516C23.8749 80.5516 24.133 80.1644 24.133 79.6482C24.133 79.1319 23.7459 79.0028 23.3588 79.0028V78.8738ZM24.391 77.196C24.391 76.8088 24.0039 76.4216 23.6169 76.4216C23.1007 76.4216 22.7137 76.8088 22.8427 77.3251C22.8427 77.8413 23.2297 77.9704 23.7459 77.9704C24.262 77.9704 24.3911 77.5832 24.5201 77.196H24.391ZM29.4232 77.0669C29.4232 76.5507 29.0361 76.4216 28.649 76.4216C28.1329 76.4216 27.8748 76.8088 27.8748 77.4541C27.8748 77.9703 28.1329 78.0994 28.5199 77.9704C29.0361 77.9704 29.2941 77.5832 29.4232 77.0669Z" fill="#CEC8C8"/>
<path d="M45.166 52.6742C45.295 52.5451 45.5531 52.4161 45.6821 52.6742C45.6821 52.6742 45.5531 52.9323 45.4241 52.9323C45.4241 52.9323 45.295 52.6742 45.166 52.5451V52.6742Z" fill="#141111"/>
<path d="M103.615 97.2007C104.131 97.2007 104.389 97.4588 104.518 97.846C104.647 98.2332 104.518 98.7494 104.131 98.7494C103.228 98.7494 103.228 99.3947 103.228 100.04C103.228 100.556 102.583 100.814 102.067 100.427C101.551 100.169 101.422 99.6529 101.68 99.2657C102.325 98.7494 102.97 98.3622 103.099 97.4588C103.099 97.3297 103.486 97.2007 103.615 97.2007Z" fill="#141111"/>
<path d="M100.39 99.6527C100.39 100.169 100.261 100.685 99.745 100.685C99.0999 100.685 98.8418 100.298 98.8418 99.6527C98.8418 99.1365 99.0999 98.7493 99.616 98.7493C100.132 98.7493 100.39 99.1365 100.39 99.6527Z" fill="#141111"/>
<path d="M101.293 94.4905C101.293 95.0067 100.905 95.3939 100.389 95.2649C99.8733 95.2649 99.6152 94.8777 99.6152 94.3614C99.6152 93.8452 100.002 93.458 100.518 93.458C101.034 93.458 101.293 93.8452 101.293 94.3614V94.4905Z" fill="#141111"/>
<path d="M98.9702 95.5229C98.9702 96.0391 98.5831 96.2973 98.196 96.2973C97.6799 96.2973 97.4219 96.0391 97.4219 95.6519C97.4219 95.1357 97.809 94.7485 98.3251 94.7485C98.8412 94.7485 98.9702 95.1357 99.0992 95.5229H98.9702Z" fill="#141111"/>
<path d="M98.0674 98.7493C97.4222 98.7493 97.0352 98.4912 97.0352 97.975C97.0352 97.4587 97.2932 97.0715 97.8093 97.0715C98.3254 97.0715 98.7125 97.3297 98.7125 97.8459C98.7125 98.3622 98.3254 98.6203 98.0674 98.6203V98.7493Z" fill="#141111"/>
<path d="M104.132 95.3938C104.132 95.9101 103.745 96.1682 103.229 96.2973C102.713 96.2973 102.584 96.0391 102.584 95.6519C102.584 95.1357 102.971 94.7485 103.487 94.7485C103.874 94.7485 104.132 95.0067 104.132 95.3938Z" fill="#141111"/>
<path d="M28.2617 80.5514C28.2617 80.2933 28.2617 79.9061 28.2617 79.648C28.2617 79.1317 28.6488 79.0027 29.1649 79.0027C29.6811 79.0027 29.9391 79.2608 30.0682 79.7771C30.0682 80.2933 29.8101 80.5514 29.423 80.6805C29.165 80.6805 28.7779 80.5514 28.6489 80.9386C28.7779 80.5514 28.6488 80.6805 28.2617 80.6805V80.5514Z" fill="#141111"/>
<path d="M26.7145 76.1635C26.7145 76.6797 26.4564 77.0669 25.9403 77.0669C25.4242 77.0669 25.0371 76.6798 25.0371 76.2926C25.0371 75.7763 25.2952 75.3892 25.8113 75.3892C26.3274 75.3892 26.5855 75.7763 26.7145 76.1635Z" fill="#141111"/>
<path d="M28.521 80.8099C28.7791 81.4552 28.9082 82.1005 28.0049 82.3586C27.4888 82.3586 27.1017 82.2296 26.9727 81.7133C26.9727 80.8099 27.4888 80.5518 28.2629 80.5518C28.2629 80.5518 28.5211 80.8099 28.6501 80.8099H28.521Z" fill="#141111"/>
<path d="M25.0377 80.5518C25.5538 80.5518 25.8119 80.9389 25.9409 81.4552C25.9409 81.9714 25.9409 82.4877 25.2958 82.4877C24.6507 82.4877 24.3926 82.1005 24.3926 81.5842C24.3926 81.068 24.6507 80.6808 25.1668 80.5518H25.0377Z" fill="#141111"/>
<path d="M23.3583 78.8739C23.7454 78.8739 24.1325 79.1321 24.1325 79.5193C24.1325 80.1646 23.8744 80.4227 23.2293 80.4227C22.7132 80.4227 22.4551 80.1646 22.4551 79.6483C22.4551 79.1321 22.7132 78.8739 23.3583 78.7449V78.8739Z" fill="#141111"/>
<path d="M24.3922 77.196C24.3922 77.7123 24.1342 77.9704 23.6181 77.9704C23.1019 77.9704 22.8439 77.8413 22.7148 77.3251C22.7148 76.8088 22.9729 76.4216 23.4891 76.4216C24.0052 76.4216 24.2632 76.6798 24.2632 77.196H24.3922Z" fill="#141111"/>
<path d="M29.4234 77.0669C29.4234 77.5832 29.0363 77.8413 28.5201 77.9704C28.1331 77.9704 27.875 77.9704 27.875 77.4541C27.875 76.9379 28.1331 76.5507 28.6492 76.4216C29.0363 76.4216 29.2943 76.5507 29.4234 77.0669Z" fill="#141111"/>
<path d="M28.5199 80.8098C28.5199 80.8098 28.2618 80.5517 28.1328 80.4226C28.3909 80.4226 28.6489 80.4226 28.5199 80.8098Z" fill="#CEC8C8"/>
</svg>
