<svg width="138" height="138" viewBox="0 0 138 138" fill="none" xmlns="http://www.w3.org/2000/svg">
<g id="Frame 478">
<circle id="Ellipse 55" cx="68.9992" cy="69.0001" r="66.0714" fill="#B9E199" stroke="black" stroke-width="5"/>
<g id="Group">
<path id="Vector" d="M111.975 122.214C104.567 122.019 95.7949 120.069 87.0226 118.704C67.3337 115.389 47.6447 112.074 27.9558 108.564C20.743 107.394 13.3352 106.419 7.29204 101.35C2.41854 97.2549 0.274244 91.9902 2.22365 85.7505C3.78317 80.6808 6.90221 76.586 10.0213 72.6862C21.3278 58.2569 34.1938 45.1926 45.8902 31.1533C51.5434 24.5237 57.1967 18.089 63.2399 11.8493C70.0628 4.82965 77.4705 4.04971 86.0479 8.72947C87.8024 9.70442 88.5822 11.4593 89.3619 13.0192C94.0405 22.1838 98.5241 31.5433 102.618 41.0978C110.22 59.0369 117.433 77.171 124.451 95.305C126.206 99.7898 127.765 104.47 128.74 109.149C129.714 114.219 127.96 117.924 123.476 120.264C120.552 121.824 118.018 122.214 111.585 122.214H111.975ZM113.729 120.264C114.899 120.264 116.264 120.069 117.628 119.874C125.621 119.094 128.74 114.804 126.79 107.004C124.646 98.6199 121.332 90.6253 118.213 82.4357C109.441 60.0118 100.473 37.588 89.9467 15.7491C87.2176 10.0944 82.7339 8.33949 77.0806 7.75452C72.0121 7.36454 68.1134 9.89939 64.7994 13.2142C56.417 21.5988 48.8143 30.9583 41.0167 39.9279C30.8798 51.6273 20.353 63.1317 10.8009 75.221C8.26672 78.5359 5.92753 82.0457 4.56295 86.1405C3.19837 90.0403 3.58818 94.1351 6.31734 97.0599C10.0212 100.96 14.3099 104.08 19.7683 105.055C29.1254 106.809 38.6775 108.174 48.0346 109.734C62.4602 112.074 76.8857 114.609 91.5062 117.144C98.9139 118.314 106.127 119.679 113.924 120.069L113.729 120.264Z" fill="#141111"/>
<path id="Vector_2" d="M113.73 120.264C105.932 119.874 98.5242 118.509 91.3115 117.339C76.8859 114.804 62.4602 112.464 47.8397 109.929C38.4826 108.369 28.9305 107.005 19.5734 105.25C14.1151 104.275 9.82645 101.155 6.12259 97.255C3.39342 94.1352 3.0035 90.2354 4.36808 86.3356C5.73266 82.2408 8.07197 78.731 10.6062 75.4161C20.1583 63.1318 30.685 51.8223 40.8219 40.1229C48.6195 31.1534 56.2222 21.9889 64.6046 13.4093C67.9186 9.8995 71.8174 7.55962 76.8858 7.9496C82.5391 8.33958 86.8277 10.0945 89.7518 15.9442C100.279 37.7831 109.246 60.0119 118.018 82.6308C121.137 90.6254 124.451 98.815 126.596 107.2C128.545 114.804 125.621 119.094 117.433 120.069C116.069 120.069 114.704 120.264 113.535 120.459L113.73 120.264ZM109.246 113.634C110.026 113.634 111.39 113.439 112.755 113.049C116.069 112.269 118.408 109.539 118.408 106.42C118.408 103.885 118.213 101.545 117.433 99.0099C114.899 91.0153 112.17 82.8258 109.051 75.0262C101.838 57.2821 95.2102 39.538 87.6075 21.9889C86.4379 19.259 84.8784 17.1141 82.3441 15.7492C77.4706 13.4093 73.3769 15.1642 69.4781 18.2841C66.9439 20.234 65.1894 22.9638 63.24 25.4987C50.7639 39.928 38.2877 54.3572 25.8115 68.7865C21.7178 73.4662 17.624 78.146 14.6999 83.8007C10.6061 91.4053 13.9202 98.035 22.3026 99.7899C28.7356 100.96 35.1687 101.935 41.6017 103.105C58.1716 105.835 74.7415 108.564 91.3115 111.294C97.3546 112.269 103.203 113.439 109.831 113.829L109.246 113.634Z" fill="#FAFAFA"/>
<path id="Vector_3" d="M109.246 113.634C102.618 113.244 96.7695 112.074 90.7263 111.099C74.1564 108.369 57.5865 105.639 41.0166 102.909C34.5836 101.934 28.1506 100.765 21.7176 99.5946C13.3352 98.0347 10.0211 91.405 14.1149 83.6054C17.039 78.1457 21.1327 73.4659 25.2265 68.5912C37.7027 54.1619 50.1788 39.7327 62.655 25.3034C64.7994 22.9635 66.3589 20.2336 68.8931 18.0887C72.7919 14.9689 76.8856 13.214 81.7591 15.5539C84.4883 16.9188 85.8529 19.0637 87.0225 21.7936C94.6252 39.3427 101.253 57.0868 108.466 74.8308C111.585 82.6304 114.314 90.625 116.848 98.8146C117.628 101.155 117.823 103.689 117.823 106.224C117.823 109.344 115.484 112.074 112.17 112.854C110.805 113.244 109.636 113.244 108.661 113.439L109.246 113.634ZM21.7176 97.4497C21.9125 98.0347 22.4973 97.8397 22.8872 97.8397C23.2771 97.8397 23.6669 98.2296 23.8619 98.2296C28.9303 99.0096 34.1938 99.7896 39.2622 100.57C56.4169 103.299 73.7666 106.029 90.9213 108.759C96.1847 109.539 101.448 110.904 106.711 110.904C108.271 111.294 109.831 111.099 111.39 110.904C113.534 110.514 115.289 109.344 115.679 107.004C115.874 105.054 115.679 102.909 115.289 100.959C110.415 85.7503 104.567 71.126 98.7189 56.3068C96.3797 50.2621 93.8455 44.2174 91.3112 37.9777C89.9467 32.713 87.4124 27.8382 85.268 22.9635C83.5136 18.6737 80.3946 16.7238 76.3008 17.3088C74.1565 17.6988 72.402 18.6737 70.8425 20.0386C67.9184 22.7685 64.7993 25.4984 62.2651 28.6182C50.5687 43.2425 38.4824 57.2817 26.3961 71.321C23.0821 75.2208 19.7681 79.1206 16.6491 83.2154C12.3604 89.0651 15.0896 96.0847 21.7176 97.0597V97.4497Z" fill="#12100D"/>
<path id="Vector_4" d="M106.907 110.904C101.448 110.904 96.3797 109.734 91.1163 108.759C73.7666 106.03 56.6119 103.3 39.4572 100.57C34.3887 99.7899 29.1254 99.0099 24.057 98.23C23.6671 98.23 23.2772 98.035 23.0823 97.84C22.6924 97.45 22.4974 96.8651 21.9125 97.45C22.3024 96.4751 21.3278 96.0851 20.7429 95.5001C17.234 91.4053 17.039 88.2855 20.5479 83.9957C21.1328 83.2157 21.7176 82.6308 22.3024 81.8508C35.5584 66.6416 48.4244 51.2374 60.9006 35.4432C64.7994 30.3735 69.088 25.4987 74.1565 21.5989C77.4705 19.064 79.4199 19.064 82.7339 21.5989C83.5136 22.1839 84.2935 22.7689 85.4631 22.7689C87.6074 27.8386 90.1416 32.5184 91.5062 37.7831C90.3366 38.563 90.7265 39.733 90.9214 40.7079C92.4809 47.3376 94.4303 53.7723 97.3544 59.817C103.592 73.2713 107.686 87.5055 112.365 101.545C113.924 106.03 112.95 107.59 108.661 109.539C108.076 109.734 107.491 110.124 107.101 110.514L106.907 110.904ZM62.4601 74.6362C62.4601 75.4161 62.4601 76.3911 62.4601 77.1711C62.4601 79.7059 64.4096 81.0709 67.9185 82.0458C70.2578 82.6308 71.4274 81.2658 72.4021 79.5109C73.1818 77.951 73.9616 76.3911 74.5464 74.8312C78.8351 62.7418 81.3694 50.2624 83.5137 37.7831C83.9036 35.8332 82.9288 34.4683 81.3693 33.4933C78.6401 31.7384 75.716 30.7634 72.597 30.3735C70.2577 29.9835 67.7234 31.9334 67.3336 34.2733C64.6044 47.5326 63.6298 60.9869 62.6551 74.4412L62.4601 74.6362ZM64.9944 97.84C67.9185 97.84 70.2577 95.5001 70.2577 92.9653C70.2577 89.8454 67.1387 86.9206 64.2146 87.1156C61.6804 87.1156 59.731 89.4554 59.731 92.1853C59.731 95.3051 62.2652 98.035 64.9944 98.035V97.84Z" fill="#FCEB02"/>
<path id="Vector_5" d="M85.2683 23.1586C84.2936 23.1586 83.3189 22.5736 82.5392 21.9887C79.2252 19.4538 77.2757 19.4538 73.9618 21.9887C68.8933 25.8885 64.7996 30.7632 60.7058 35.833C48.2297 51.6271 35.3636 67.0314 22.1077 82.2406C21.5229 83.0205 20.938 83.6055 20.3532 84.3855C17.0392 88.6752 17.0392 91.6001 20.5481 95.8899C20.938 96.4749 22.1077 96.6698 21.7178 97.8398C14.8949 96.8648 12.3606 89.8452 16.6493 83.9955C19.7683 79.9007 22.8874 76.0009 26.3963 72.1011C38.4826 58.0618 50.5689 43.8275 62.2653 29.3983C64.7996 26.2784 67.9187 23.5486 70.8428 20.8187C72.4023 19.4538 74.1567 18.2838 76.3011 18.0889C80.3948 17.5039 83.5138 19.4538 85.2683 23.7436V23.1586Z" fill="#FAFAFA"/>
<path id="Vector_6" d="M106.906 110.905C107.491 110.515 107.881 110.32 108.465 109.93C112.754 107.785 113.729 106.42 112.169 101.935C107.491 87.8958 103.397 73.6615 97.159 60.2072C94.2349 54.1625 92.2854 47.7278 90.7259 41.0982C90.5309 40.1232 90.1411 38.9533 91.3108 38.1733C93.845 44.218 96.3792 50.2627 98.7185 56.5024C104.567 71.3217 110.61 85.9459 115.288 101.155C115.873 103.105 116.068 105.055 115.678 107.2C115.288 109.735 113.534 110.71 111.39 111.1C109.83 111.295 108.271 111.49 106.711 111.1L106.906 110.905Z" fill="#F5F5F1"/>
<path id="Vector_7" d="M21.7188 97.4501C22.3036 96.8651 22.4985 97.4501 22.8883 97.8401C22.4985 97.8401 21.9137 97.8401 21.7188 97.4501Z" fill="#FAFAFA"/>
<path id="Vector_8" d="M62.4605 74.6362C63.6302 61.1819 64.41 47.7276 67.1391 34.4683C67.7239 32.1284 70.0633 30.3735 72.4025 30.5685C75.5216 30.9585 78.4457 31.9334 81.1748 33.6883C82.7344 34.6633 83.709 36.0282 83.3191 37.9781C81.3697 50.6525 78.6406 62.9369 74.3519 75.0262C73.7671 76.5862 72.9873 78.1461 72.2075 79.706C71.2328 81.4609 70.0632 82.8258 67.7239 82.2409C64.215 81.2659 62.4606 79.706 62.2656 77.3661C62.2656 76.5862 62.2656 75.6112 62.2656 74.8312L62.4605 74.6362ZM80.9798 36.6132C79.0304 34.2733 76.1064 33.8833 73.3772 33.1034C70.4531 32.3234 69.4784 33.1034 69.0885 36.0282C68.3088 41.8779 67.5291 47.7276 66.9442 53.5773C66.1645 60.987 65.7745 68.2016 65.1897 75.6112C65.1897 76.7811 64.7999 78.1461 66.5543 78.536C69.2835 80.2909 69.6734 80.096 71.0379 77.3661C71.6228 76.1962 72.2076 74.8312 72.7924 73.4663C76.1064 64.8868 78.0558 55.9172 79.8102 46.9477C80.3951 43.4378 81.7596 40.123 80.9798 36.4182V36.6132Z" fill="#12100D"/>
<path id="Vector_9" d="M64.9939 97.8394C62.2647 97.8394 59.9254 95.1095 59.7305 91.9897C59.7305 89.2598 61.4849 87.1149 64.2141 86.9199C67.1382 86.9199 70.2572 89.6498 70.2572 92.7696C70.2572 95.3045 67.918 97.6444 64.9939 97.6444V97.8394ZM64.2141 96.2794C66.1635 96.6694 67.918 95.8895 68.5028 94.1345C69.0876 92.1846 68.5027 90.4297 66.3584 89.4548C65.1887 88.4798 63.8242 88.4798 62.6546 89.4548C61.4849 90.4297 61.4849 91.7947 61.6799 92.9646C62.0698 94.5245 62.8494 95.8895 64.409 96.2794H64.2141Z" fill="#141111"/>
<path id="Vector_10" d="M80.9802 36.6131C81.7599 40.3179 80.3954 43.6327 79.8106 47.1425C78.0561 56.1121 76.1068 65.0816 72.7928 73.6612C72.208 75.0261 71.6231 76.196 71.0383 77.561C69.6737 80.2908 69.2838 80.4858 66.5547 78.7309C67.1395 71.5163 67.7243 64.3017 68.699 57.282C69.4787 51.0423 70.0636 44.8027 71.6231 38.758C72.4028 35.8331 72.9877 35.6381 75.9118 36.0281C77.6663 36.4181 79.4207 37.0031 81.1752 36.8081L80.9802 36.6131Z" fill="#E9636B"/>
<path id="Vector_11" d="M80.979 36.6126C79.2245 36.8076 77.4701 36.2226 75.7157 35.8326C72.7916 35.2477 72.2067 35.6376 71.427 38.5625C69.8674 44.6072 69.2826 50.8468 68.5029 57.0865C67.7231 64.3012 67.1382 71.5158 66.3585 78.5354C64.604 78.1455 64.994 76.7805 64.994 75.6106C65.5788 68.201 65.9686 60.7914 66.7484 53.5767C67.3332 47.727 68.113 41.8773 68.8928 36.0276C69.2826 33.1028 70.2573 32.3228 73.1814 33.1028C75.9105 33.6878 78.8347 34.2727 80.7841 36.6126H80.979Z" fill="#F5F5F1"/>
<path id="Vector_12" d="M66.3591 89.2604C68.3085 90.2354 69.2833 91.9903 68.5035 93.9402C67.9187 95.6951 66.3592 96.67 64.2148 96.0851C63.4351 93.3552 64.2148 91.0153 66.1642 89.0654L66.3591 89.2604Z" fill="#E9636B"/>
<path id="Vector_13" d="M66.3591 89.2603C64.2148 91.2102 63.63 93.5501 64.4097 96.28C62.8502 95.695 62.0705 94.5251 61.6806 92.9652C61.4857 91.6002 61.4857 90.2353 62.6553 89.4553C63.825 88.4804 65.1895 88.4804 66.3591 89.4553V89.2603Z" fill="#F5F5F1"/>
</g>
</g>
</svg>
