<svg width="150" height="146" viewBox="0 0 150 146" fill="none" xmlns="http://www.w3.org/2000/svg">
<circle cx="68.9992" cy="76.9999" r="66.0714" fill="#B9E199" stroke="black" stroke-width="5"/>
<path d="M63.197 0.156331C65.8539 0.781663 68.6673 1.25067 71.168 2.345C78.2012 5.31533 83.6714 9.84898 86.4847 16.7276C87.5787 15.7896 88.9853 14.6953 90.0794 13.601C94.143 10.0053 98.5192 7.50398 104.146 7.50398C112.117 7.50398 118.837 13.4446 119.775 21.574C119.931 22.981 120.088 24.388 120.088 25.795C120.088 27.0456 120.557 27.5146 121.807 27.8273C124.933 28.7653 126.808 30.6413 126.808 34.2369C126.808 35.4876 127.59 34.706 128.059 34.5496C131.341 33.4553 134.623 32.5173 138.061 32.361C139.624 32.361 141.344 32.361 142.75 32.9863C144.782 33.9243 145.407 35.4876 144.938 37.52C144.469 39.2396 143.688 40.8029 142.906 42.3663C142.438 43.4606 142.438 43.9296 143.688 44.0859C145.251 44.3986 146.814 45.1803 148.064 46.2746C149.627 47.6816 149.783 49.2449 148.689 50.9646C147.595 52.6843 146.032 53.9349 144.313 55.0293C141.344 56.9053 138.374 58.6249 135.248 60.3446C134.779 60.6573 134.154 60.6572 134.31 61.4389C135.092 65.5036 134.31 69.5682 133.529 73.4766C132.904 76.6032 132.122 79.7299 131.341 82.8566C130.872 84.7326 129.778 86.1396 128.059 86.9212C127.277 87.2339 126.965 87.7029 126.808 88.4846C125.245 95.2069 124.308 102.242 122.432 108.964C120.869 114.592 117.743 118.657 111.96 120.689C98.6755 125.379 85.2343 129.756 72.1057 135.072C69.7613 136.01 67.4169 136.322 65.0725 136.635C62.7281 136.948 60.8525 135.853 58.977 134.759C52.569 131.007 46.6299 126.63 40.847 121.94C33.6576 116.312 26.3118 110.997 19.2786 105.212C14.5898 101.304 13.1831 97.0829 14.4335 91.1422C15.6838 84.5762 16.9342 78.0102 17.5593 71.4442C17.5593 70.6626 17.7157 69.7246 17.2468 69.0992C15.215 65.9726 15.5275 62.5332 15.9964 59.0939C16.6216 54.4039 17.5594 49.7139 18.966 45.1803C19.5912 42.9916 20.529 40.8029 21.9356 38.9269C24.4363 35.3313 27.7185 33.6116 32.0947 34.2369C33.5013 34.3933 34.1265 34.2369 34.4391 32.6736C35.0642 29.3906 36.9397 26.733 39.5967 24.7006C40.8471 23.7626 41.1596 22.8246 41.0033 21.2613C40.5344 14.07 43.6603 4.06466 53.5068 0.937996C54.4445 0.62533 55.3823 0.468995 56.4764 0.312662C57.5704 0.312662 58.5082 0.312666 59.446 0H61.0089C61.7904 0.312666 62.5718 0.625333 63.197 0H63.5096L63.197 0.156331ZM85.8595 22.8246C85.2343 20.3233 85.0781 17.822 83.6714 15.477C78.5137 6.09698 64.9162 -4.84545e-06 54.6008 2.65766C45.2232 5.00266 41.4722 12.8193 41.9411 21.574C41.9411 23.6063 41.9411 24.857 40.0656 26.1076C37.5649 27.9836 36.002 30.485 35.2205 33.6116C34.5954 36.2693 34.5953 36.2693 31.9383 36.113C29.2813 35.9566 26.7806 36.1129 24.5925 38.1453C23.0296 39.5523 21.9356 41.2719 21.1541 43.1479C19.1223 47.9943 18.1845 53.3096 17.4031 58.4686C16.7779 62.2206 16.6216 65.8162 18.6534 69.2556C19.2786 70.1936 18.966 71.2879 18.8098 72.3822C17.5594 80.5116 16.4653 88.4846 15.2149 96.6139C15.0586 98.0209 15.2149 99.2715 15.9964 100.21C16.6216 101.148 17.4031 101.929 18.1845 102.711C23.1859 107.401 28.8125 111.622 34.4391 115.687C42.41 121.471 49.9121 127.88 58.3519 133.039C61.6341 135.072 64.9162 135.384 68.3546 134.446C74.2938 133.039 79.7641 130.538 85.3906 128.349C94.4556 124.91 103.677 122.253 112.586 118.657C116.962 116.937 119.619 113.811 120.869 109.277C122.745 102.398 123.526 95.3632 125.089 88.4846C125.402 87.2339 125.87 86.4522 126.965 85.9832C128.371 85.5142 129.309 84.2636 129.622 82.8566C131.184 76.1342 133.06 69.5682 132.747 62.5333C132.747 61.1263 133.216 60.3446 134.31 59.7193C137.124 58.1559 139.781 56.4363 142.594 54.7166C144.157 53.7786 145.563 52.8406 146.658 51.5899C148.377 49.7139 148.22 48.4633 146.032 47.0563C144.938 46.2746 143.688 45.8056 142.438 45.6493C140.25 45.1803 140.25 45.0239 141.187 42.9916C141.812 41.4283 142.75 39.8649 143.219 38.1453C143.844 36.2693 143.219 35.175 141.344 34.5496C139.781 34.0806 138.218 34.0806 136.655 34.2369C133.06 34.7059 129.778 35.644 126.339 36.8946C125.402 37.2073 124.62 37.3636 124.62 35.9566C125.089 31.892 124.464 30.7976 120.713 29.7033C118.994 29.2343 118.368 28.14 118.212 26.4203C118.212 24.857 118.056 23.45 117.9 21.8866C116.962 14.6953 110.866 9.37999 103.677 9.37999C98.8318 9.37999 95.0808 11.725 91.6423 14.8516C89.1416 17.1966 87.2661 19.8543 85.7032 22.981L85.8595 22.8246Z" fill="#141111"/>
<path d="M58.9773 0.15625C58.0396 0.625249 56.9456 0.625245 56.0078 0.468912C56.0078 0.468912 56.0078 0.312583 56.0078 0.15625C56.9456 0.15625 58.0396 0.15625 58.9773 0.15625Z" fill="#5F6060"/>
<path d="M62.7272 0.15625C61.9457 0.781583 61.1642 0.468916 60.5391 0.15625H62.7272Z" fill="#5F6060"/>
<path d="M85.8599 22.8245C87.5791 19.6979 89.2984 17.0402 91.799 14.6952C95.2375 11.5685 98.9885 9.22354 103.834 9.22354C111.179 9.22354 117.119 14.3825 118.056 21.7302C118.213 23.1372 118.369 24.7005 118.369 26.2639C118.369 27.9835 119.15 29.0779 120.87 29.5469C124.621 30.7975 125.246 31.8918 124.777 35.8002C124.777 37.3635 125.402 37.0509 126.496 36.7382C129.778 35.4875 133.217 34.5495 136.812 34.0805C138.374 33.9242 139.937 33.9242 141.5 34.3932C143.376 35.0185 144.001 36.1128 143.376 37.9888C142.751 39.5522 141.969 41.1155 141.344 42.8352C140.406 45.0238 140.406 45.0238 142.594 45.4928C143.845 45.8055 145.095 46.2745 146.189 46.8998C148.377 48.3068 148.533 49.5575 146.814 51.4335C145.72 52.6842 144.157 53.7785 142.751 54.5602C139.937 56.2798 137.28 57.9995 134.467 59.5628C133.373 60.1882 132.748 61.1262 132.904 62.3768C133.217 69.2555 131.341 75.9778 129.778 82.7001C129.466 84.1071 128.528 85.3578 127.121 85.8268C125.871 86.2958 125.402 87.0775 125.246 88.3281C123.683 95.2068 122.745 102.242 121.026 109.12C119.776 113.654 117.119 116.781 112.742 118.5C103.834 122.096 94.456 124.754 85.5473 128.193C79.9208 130.382 74.4506 132.883 68.5114 134.29C65.073 135.228 61.7908 134.759 58.5086 132.883C50.0688 127.724 42.5667 121.314 34.5958 115.53C28.9692 111.465 23.4989 107.401 18.3413 102.554C17.5598 101.773 16.7784 100.991 16.1532 100.053C15.3717 98.9588 15.0592 97.8644 15.3717 96.4574C16.6221 88.3281 17.8724 80.3551 18.9665 72.2258C18.9665 71.1315 19.2791 70.0371 18.8102 69.0991C16.7784 65.6598 17.0909 62.0642 17.5598 58.3122C18.3413 53.1532 19.279 47.8378 21.3109 42.9915C22.0923 41.1155 23.1864 39.3958 24.7493 37.9888C26.9374 36.1128 29.4381 35.8002 32.0951 35.9565C34.9084 36.1129 34.9084 35.9565 35.3772 33.4552C36.0024 30.3285 37.5653 27.6709 40.2223 25.9512C41.9415 24.7005 42.2541 23.4499 42.0978 21.4175C41.629 12.6629 45.38 4.84622 54.7576 2.50122C65.073 -0.156441 78.6705 5.94055 83.8281 15.3205C85.0785 17.6655 85.2348 20.1669 86.0163 22.6682L85.8599 22.8245ZM129.778 50.0265C130.872 47.9942 131.81 46.4308 132.592 44.7112C132.904 43.9295 133.842 43.3042 133.373 42.3662C132.748 41.4282 131.654 41.7408 130.872 41.7408C126.965 42.0535 123.214 43.1478 119.463 44.2422C118.056 44.7112 117.431 44.7112 117.587 42.8352C117.9 39.2395 116.962 35.8002 113.836 33.7679C111.023 31.8919 109.616 29.8595 110.085 26.1075C110.711 21.8865 107.741 18.1345 103.677 16.5712C99.6138 15.1642 96.4879 16.2585 93.5183 20.0105C93.2057 20.4795 92.7368 20.9485 92.4243 21.5739C89.7673 25.4822 87.7355 29.8595 85.7037 34.0805C85.5474 34.5495 85.5474 35.1749 84.9222 35.3312C83.8281 35.6439 80.8585 33.2989 80.8585 32.0482C80.7022 28.2962 79.9208 24.7005 78.8267 21.2612C77.4201 16.1022 74.2942 12.5065 69.4491 10.1616C62.4159 6.87855 55.539 10.1615 54.2887 17.8219C53.6635 21.8865 52.1006 24.8569 48.8184 27.3582C44.7548 30.4849 42.2541 34.8622 42.4104 40.3338C42.4104 41.2718 41.9415 41.2718 41.3164 41.5845C38.3468 42.6788 35.3772 43.7732 32.2514 44.7112C30.6885 45.1802 30.2196 46.1182 29.907 47.5252C28.8129 52.8405 27.8752 58.3122 26.6249 63.6275C26.3123 65.3472 26.6249 66.7541 28.1878 67.5358C28.9693 68.0048 28.9692 68.4738 28.8129 69.2555C26.9374 77.5411 25.2182 85.8268 23.3427 94.1125C22.8738 96.1448 23.3427 97.3955 25.0619 98.4898C32.564 103.961 40.2224 109.589 47.7244 115.217C53.351 119.438 59.2901 123.503 64.7603 128.037C65.3855 128.506 66.167 129.444 66.7921 128.662C68.0425 127.255 69.7617 127.099 71.3247 126.473C84.297 121.627 97.2693 116.624 110.398 111.934C112.273 111.309 112.899 110.215 113.211 108.339C114.774 100.678 116.493 93.0181 118.213 85.3578C118.525 83.9508 118.682 82.7001 120.401 82.5438C121.339 82.5438 121.495 81.6058 121.807 80.8241C123.058 75.0398 123.37 69.0992 124.933 63.3148C125.246 62.3768 124.777 61.9078 123.995 61.5952C122.589 60.8135 121.338 59.8755 119.776 58.6248C126.184 57.6868 131.185 54.5602 136.343 51.7462C136.811 51.5898 137.437 51.2772 137.28 50.6518C137.28 50.0265 136.499 50.0265 136.03 50.0265C134.155 50.0265 132.279 50.0265 130.091 50.0265H129.778Z" fill="#FAFAFA"/>
<path d="M129.778 50.0268C131.966 50.0268 133.841 50.0268 135.717 50.0268C136.186 50.0268 136.811 50.0268 136.967 50.6521C136.967 51.2775 136.498 51.4338 136.029 51.7465C130.872 54.5605 126.026 57.8435 119.462 58.6251C121.181 59.7195 122.432 60.6575 123.682 61.5955C124.464 62.0645 124.932 62.5335 124.62 63.3151C123.057 69.0995 122.744 75.0401 121.494 80.8244C121.338 81.7624 121.025 82.5441 120.087 82.5441C118.368 82.7004 118.212 83.7948 117.899 85.3581C116.336 93.0184 114.461 100.679 112.898 108.339C112.585 110.215 111.804 111.153 110.085 111.935C97.1122 116.781 83.9836 121.627 71.0113 126.474C69.4483 127.099 67.7292 127.255 66.4788 128.662C65.8536 129.444 64.9158 128.662 64.4469 128.037C59.133 123.347 53.1939 119.439 47.411 115.218C39.909 109.59 32.4069 104.118 24.7485 98.4901C23.1856 97.2394 22.5604 96.1451 23.0292 94.1128C24.9047 85.8271 26.624 77.5414 28.4995 69.2558C28.6558 68.3178 28.6558 67.8488 27.8744 67.5361C26.3114 66.5981 25.9989 65.3475 26.3114 63.6278C27.4055 58.3125 28.4995 52.8408 29.5936 47.5255C29.9062 46.1185 30.5313 45.1805 31.938 44.7115C34.9075 43.7735 37.8771 42.6792 41.0029 41.5848C41.6281 41.4285 42.097 41.2722 42.097 40.3342C41.7844 34.8625 44.4415 30.4852 48.5051 27.3585C51.7873 24.7008 53.3502 21.7305 53.9754 17.8222C55.2257 10.0055 62.1025 6.72253 69.1357 10.1619C73.9808 12.3505 77.1067 16.1025 78.5133 21.2615C79.6074 24.8572 80.3889 28.4528 80.5452 32.0485C80.5452 33.2992 83.5147 35.6442 84.6088 35.3315C85.0777 35.3315 85.0777 34.5498 85.3902 34.0808C87.2658 29.7035 89.2976 25.4825 92.1108 21.5742C92.4234 21.1052 92.8923 20.6362 93.2049 20.0108C96.1745 16.2588 99.3003 15.1645 103.364 16.5715C107.428 18.1349 110.397 21.8868 109.772 26.1078C109.147 29.8598 110.553 31.8922 113.523 33.7682C116.649 35.8005 117.587 39.2398 117.274 42.8355C117.118 44.7115 117.743 44.7115 119.15 44.2425C122.901 43.1481 126.652 42.0538 130.559 41.7412C131.497 41.7412 132.591 41.2722 133.06 42.3665C133.529 43.3045 132.747 43.9298 132.278 44.7115C131.497 46.4311 130.559 47.9945 129.465 50.0268H129.778ZM115.242 49.2451C114.93 49.2451 114.773 49.2451 114.773 49.5578C114.461 49.8705 113.992 49.8705 113.992 50.4958C116.649 50.9648 119.15 50.4958 121.65 50.3395C122.901 50.8085 121.65 50.9648 121.494 51.1211C119.15 52.0591 116.805 52.2155 114.148 52.3718C115.086 53.6225 116.805 53.6225 117.587 55.0295C115.398 55.0295 113.679 54.0915 112.116 52.9971C111.647 52.6845 111.335 52.2155 110.71 52.5281C109.616 52.9971 108.365 53.3098 106.959 53.7788C109.772 54.7168 112.273 55.8111 114.93 56.5928C116.649 57.0618 118.368 57.2181 120.087 56.9055C124.464 56.1238 128.683 54.7168 132.591 52.6845C133.372 52.3718 134.154 52.0591 134.779 51.2775C133.06 51.2775 131.653 51.2775 130.09 51.2775C128.683 51.2775 128.215 50.8085 128.996 49.4015C129.934 47.5255 130.872 45.6495 131.809 43.7735C131.809 42.9918 131.497 42.9918 130.246 43.1482C126.183 43.7735 122.432 44.8678 118.368 45.8058C117.118 46.1185 116.493 46.5875 116.336 47.6818C116.024 48.1508 115.399 48.6198 115.399 49.2451H115.242ZM84.6088 45.4932C84.6088 43.6172 83.3584 42.5228 81.6392 42.2102C80.2325 42.0538 78.9822 42.6791 78.3571 44.2425C77.7319 45.9621 78.6696 48.1508 80.3888 49.2451C81.4829 50.3395 82.577 50.1831 83.6711 49.4015C85.0777 48.3071 84.9214 46.9001 84.6088 45.4932ZM35.689 44.7115C34.7513 44.7115 33.9698 45.0241 32.8758 45.6495C36.1579 47.9945 39.2838 50.0268 42.2534 52.2155C43.3474 52.9971 44.1289 52.9971 45.0666 52.2155C47.2547 51.1211 49.2865 50.1831 51.7872 48.9325C51.3183 48.7761 51.162 48.6198 51.0057 48.4635C47.7236 47.3692 44.7541 45.9621 43.0348 42.8355C42.7222 42.2101 42.2533 42.3665 41.7844 42.5228C39.7526 43.3045 37.7208 43.9298 35.689 44.7115ZM37.4082 105.838C37.5645 105.838 37.8771 106.15 38.0334 106.307C38.8149 106.307 38.6585 105.838 38.6585 105.525C40.3778 97.0831 42.4096 88.7974 44.4414 80.5118C44.4414 79.8864 44.754 79.5738 44.1288 79.1048C40.3778 76.6035 36.9393 73.7895 33.1883 71.4445C32.7194 70.9755 32.2506 70.6628 31.7817 70.1938C30.6877 69.2558 29.9062 68.9431 29.7499 70.9754C29.7499 71.9134 29.4373 72.8515 29.281 73.9458C27.8743 81.1371 26.4678 88.1721 25.0611 95.3634C25.0611 96.1451 24.5922 96.7704 25.53 97.5521C29.5936 100.366 33.501 103.336 37.5646 106.15L37.4082 105.838ZM63.0403 47.6818C65.541 47.8382 67.8854 47.6818 70.2298 47.3691C71.6364 47.3691 73.0431 47.3691 74.4497 47.3691C75.0749 47.3691 76.1689 47.3692 76.1689 46.1185C76.1689 45.0242 76.169 44.0861 74.7623 43.6171C71.6365 42.6791 68.5106 42.6792 65.3847 42.9918C63.5092 43.3045 61.6336 43.7735 59.7581 44.0862C60.5396 42.6792 61.79 42.3665 63.0403 42.0538C66.6351 40.9595 70.3861 41.1158 74.1371 41.7412C74.1371 41.7412 74.2934 41.8975 74.4497 41.8975C74.7623 41.8975 74.4497 41.5848 74.4497 41.4285C72.5742 37.9892 70.0735 35.1752 66.7913 32.9865C65.2284 31.8922 63.5092 31.2668 61.6337 30.9542C60.8522 30.9542 59.9145 30.6415 59.4456 31.4232C58.9767 32.2048 59.4456 32.9865 60.0707 33.6118C61.0085 34.8625 62.2589 35.4878 63.5092 36.2695C64.2907 36.7385 65.3847 37.0512 66.0099 37.9892C62.5714 37.9892 59.133 35.3315 58.1952 32.0485C58.5078 29.8598 59.7582 29.0782 62.2589 29.5472C64.7596 30.0162 67.1039 31.1105 69.1357 32.6738C72.1053 34.8625 74.1371 37.6765 76.0127 40.6468C76.7941 42.0538 77.5756 42.3665 78.5133 40.8032C79.6074 40.6468 79.4511 39.8652 79.4511 39.0835C79.6074 32.5175 78.5134 26.1078 76.3253 19.8545C75.2312 16.8842 73.3557 14.3829 70.3861 12.9759C66.7914 9.22386 59.7582 10.0055 57.2575 14.5392C56.3197 16.1025 56.0071 17.9785 55.6945 19.6982C55.382 22.8248 54.1316 25.1698 51.4746 27.0458C48.505 29.0782 46.3169 31.8922 44.9103 35.3315C43.0348 40.0215 44.2852 43.4608 48.974 45.6495C49.5991 45.9621 50.3806 46.2748 51.0057 46.4311C55.0694 47.6818 59.133 47.3691 63.1966 47.3691L63.0403 47.6818ZM120.4 64.0968C117.43 64.8785 114.461 65.6601 111.647 66.4418C111.022 66.5981 110.553 66.9108 110.553 67.6925C109.928 72.8514 109.303 78.0104 108.678 83.0131C108.209 83.4821 108.209 84.1074 108.365 84.7328C108.365 85.2018 108.99 84.8891 109.303 84.7328C112.742 83.4821 116.336 82.5441 119.618 80.9808C120.244 80.6681 120.556 80.3554 120.556 79.7301C121.338 74.7275 122.119 69.5685 122.901 64.5658C123.057 63.4715 122.744 63.0025 121.65 63.4715C121.181 63.4715 120.869 63.7841 120.4 63.9405V64.0968ZM96.7996 89.1101C98.9877 88.3284 101.176 87.5468 103.364 86.9214C105.552 86.2961 106.802 85.5144 106.959 82.8568C107.428 77.8541 108.365 73.0078 108.834 68.1615C109.147 67.2235 108.522 67.3798 108.053 67.5361C104.927 68.4741 101.957 69.2558 98.8314 70.1938C98.05 70.3501 97.8937 70.8191 97.8937 71.4445C97.1122 75.9781 96.1745 80.3554 95.393 84.8891C95.0805 86.4524 94.4553 88.0158 94.6116 89.7354C95.393 89.7354 96.0182 89.4228 96.6434 89.1101H96.7996ZM53.6628 81.9188C53.819 81.1371 54.1316 80.1991 54.2879 79.4174C55.3819 74.5711 56.1634 69.7248 57.4137 65.0348C57.8826 63.1588 58.8204 61.5955 60.6959 60.8138C62.2589 60.1885 63.6655 59.2505 65.2284 58.4688C69.292 56.4365 73.512 54.2478 77.5756 52.2155C78.2008 51.9028 79.4511 51.7465 78.9823 50.9648C78.6697 50.1831 77.7319 50.9648 77.1067 51.2775C75.8564 51.5901 74.4497 52.0591 73.1994 52.5281C63.5092 55.8111 55.0694 60.8138 49.2866 69.5685C48.8177 70.3501 48.1924 70.8191 47.2547 70.1938C46.9421 69.5685 46.9421 68.7868 46.317 68.3178C45.5355 70.9755 45.5355 73.6331 44.2852 76.1344C43.9726 76.9161 44.2851 77.5414 44.9103 78.0104C47.0984 79.5738 49.4429 81.1371 51.631 82.8568C52.8813 83.7948 53.1939 83.1694 53.1939 82.0751L53.6628 81.9188ZM33.8135 48.3071C33.032 47.6818 32.4069 47.0565 31.3128 46.7438C30.2188 52.8408 29.1247 58.7815 27.8744 64.7221C27.8744 65.5038 28.0307 65.6601 28.6558 66.1291C33.1883 69.2558 37.5646 72.5388 41.9408 75.8218C43.0348 76.6035 43.0348 75.9781 43.1911 75.1965C43.8163 71.4445 44.4414 67.5361 45.2229 63.7841C45.5355 62.0645 44.9103 61.9081 43.5037 62.0645C41.4719 62.3771 39.4401 62.6898 37.5646 63.4715C37.0957 63.6278 36.4705 64.0968 36.0016 63.4715C35.3765 62.8461 35.8453 62.3771 36.0016 61.7518C36.1579 61.2828 36.4705 60.8138 36.7831 60.3448C38.1897 57.8435 40.2215 55.9675 42.4096 54.2478C39.4401 52.2155 36.6268 50.3395 33.8135 48.4635V48.3071ZM81.9518 51.7465C81.3266 51.5901 80.7014 51.5901 80.3888 52.2155C80.0763 52.9971 80.7014 53.1535 81.1703 53.4661C86.0154 58.4688 90.5479 63.6278 95.5493 68.3178C96.4871 69.2558 97.2685 69.5685 98.3626 68.7868C101.645 68.0051 104.771 67.0671 108.053 65.9728C102.582 60.9701 97.4249 55.8111 91.4857 51.7465C89.6102 50.3395 86.6406 48.4635 83.8273 50.9648C83.3584 51.4338 82.577 51.4338 81.9518 51.5901V51.7465ZM76.9504 48.7761C71.0112 48.7761 65.3847 49.8705 59.9145 52.5281C59.6019 52.6845 59.2893 52.8408 58.8204 52.5281C58.8204 51.7465 59.6019 51.7465 60.0707 51.4338C61.3211 50.6521 62.8841 50.3395 64.1344 49.4015C64.1344 49.4015 64.6033 49.4015 64.6033 49.2451C64.6033 49.2451 64.2907 49.4015 64.2907 49.5578C63.5092 49.5578 62.7277 49.2451 62.1025 49.5578C58.3515 49.0888 54.7567 49.5578 51.162 51.1211C46.1606 53.1535 41.7845 56.2801 38.5023 60.6575C38.346 60.9701 37.8771 61.1265 38.1897 61.5955C38.1897 61.5955 38.8149 61.4391 38.9712 61.2828C40.6904 61.1265 42.4096 60.8138 44.1288 60.6575C46.4732 60.5011 47.0984 61.1265 47.411 63.3151C47.5673 64.8785 47.7236 66.5981 48.5051 68.3178C48.8177 68.0051 48.9739 67.8488 49.1302 67.6925C54.1316 61.4391 60.0707 56.5928 67.5728 53.4661C70.5424 52.2155 73.512 51.2775 76.6379 50.3395C77.1067 50.1831 78.6697 50.1831 77.1067 49.0888L76.9504 48.7761ZM91.7982 92.2368C90.7042 92.5494 91.0168 93.4874 90.8605 94.1128C89.7665 99.5844 88.8287 105.056 87.7346 110.528C87.2658 113.185 86.6406 115.999 86.1717 118.813C87.2658 118.657 88.2035 118.188 88.985 117.719C91.4857 116.781 94.1427 115.843 96.6434 114.905C97.1123 114.749 97.4248 114.436 97.4248 113.811C97.7374 110.215 98.8314 106.619 99.6129 103.024C100.551 98.1774 101.645 93.4874 102.739 88.3284C98.8314 89.7354 95.2367 90.9861 91.642 92.2368H91.7982ZM113.992 84.7328C111.022 85.6708 108.053 86.7651 104.927 87.7031C104.302 87.8594 104.145 88.3284 104.145 88.9538C103.677 91.6114 103.051 94.1128 102.582 96.7704C101.488 102.398 100.238 107.87 98.9878 113.498C98.3626 114.592 99.144 114.123 99.6129 113.967C102.739 112.716 105.708 111.466 108.834 110.371C110.553 109.746 111.335 108.808 111.804 106.932C113.367 99.2717 115.242 91.6114 116.961 83.9511C115.867 83.6384 114.93 84.1074 113.992 84.7328ZM46.317 80.8244C45.6918 80.0428 45.3792 80.0428 45.0666 81.1371C43.66 89.4228 41.3156 97.5521 39.7526 105.838C39.44 107.557 40.0652 108.183 41.3156 108.808C43.1911 110.215 45.2229 111.622 47.0984 113.185C48.1925 114.123 48.505 113.654 48.8176 112.56C50.8494 104.587 52.8813 96.4578 54.9131 88.4848C55.0694 87.7031 55.382 87.0778 54.4442 86.6088C51.6309 84.7328 48.974 82.7004 46.1607 80.8244H46.317ZM61.1648 62.8461C59.7582 63.6278 60.0708 64.0968 61.1648 64.8785C66.0099 68.0051 70.6987 71.1318 75.5438 74.2585C76.4816 74.8838 77.1067 74.8838 78.2008 74.5711C83.2022 73.1641 88.3598 71.7571 93.3612 70.1938C93.83 70.1938 94.299 70.1938 94.6116 69.5685C94.1427 68.7868 93.5175 68.1615 92.736 67.6925C88.3598 63.0025 84.1399 58.3125 79.7637 53.6225C79.2949 52.9971 78.826 52.9971 78.2008 53.4661C75.0749 55.4985 71.6365 56.9055 68.5106 58.6251C66.0099 60.0321 63.3529 60.9701 61.1648 62.8461ZM106.959 37.8328C107.428 38.3018 108.209 38.3018 108.209 39.0835C102.582 39.5525 99.6129 40.3342 97.8937 41.5848C100.394 42.5228 103.051 42.9918 105.24 45.3368C103.677 45.3368 102.583 44.8678 101.645 44.3988C96.8518 42.8355 92.2671 43.2524 87.8909 45.6495C87.8909 45.6495 87.7347 45.6495 87.5784 45.8058C86.4843 46.1185 86.1717 47.0565 86.328 47.9945C86.328 49.0888 87.2657 48.9325 87.8909 49.2451C92.4234 50.9648 97.2685 51.4338 102.114 52.2155C104.771 52.6845 107.271 52.5281 109.772 51.4338C113.21 50.0268 116.961 46.9001 116.024 42.5228C116.024 41.8975 116.024 41.1158 116.024 40.4905C115.555 37.6765 113.992 35.4878 111.647 33.7682C109.459 32.2048 108.209 30.3288 108.678 27.6712C108.834 26.5768 108.678 25.4825 108.522 24.5445C107.74 21.2615 105.708 18.9165 102.426 18.1349C99.3004 17.3532 96.956 18.4475 95.0804 20.9488C93.9864 22.3558 92.8923 23.9192 91.9546 25.4825C88.8287 30.4852 86.9532 35.9568 84.2962 41.1158C84.1399 41.4285 84.2962 41.7412 84.4525 41.8975C84.9214 42.5228 85.3903 42.9918 86.0155 43.6171C86.0155 44.3988 86.0154 45.0241 87.1094 44.3988C89.6101 42.8355 92.2671 41.7412 94.9241 40.6468C98.6751 39.0835 102.739 37.8328 106.802 38.3018L106.959 37.8328ZM56.476 88.0158C54.7568 96.9268 52.0998 105.212 50.068 113.498C49.7554 114.592 50.068 115.218 51.0057 115.999C54.9131 118.813 58.6641 121.627 62.4151 124.441C63.5092 125.223 64.6032 126.161 66.0099 126.474C66.3224 125.223 66.4787 123.816 66.7913 122.565C68.198 115.218 69.761 107.87 71.1676 100.522C71.1676 99.8971 71.7927 99.1154 71.0113 98.4901C66.3225 95.0508 61.4774 91.6114 56.476 88.0158ZM67.5728 126.005C73.1993 123.816 78.5133 121.784 83.8273 119.908C84.6088 119.595 84.765 118.97 84.765 118.344C85.7028 113.029 86.7969 107.714 87.7346 102.398C88.3598 99.2718 88.985 96.3014 89.6102 93.0184C84.2962 94.7381 79.1385 96.6141 73.9809 98.3338C73.1994 98.6464 73.0431 99.1154 72.8868 99.8971C72.1053 103.493 71.3238 106.932 70.6987 110.528C69.6046 115.687 68.6668 120.689 67.5728 126.161V126.005ZM72.8868 97.3958C79.4511 95.0508 85.8591 92.8621 92.1108 90.6734C92.736 90.5171 93.0487 90.2044 93.0487 89.5791C94.1427 83.9511 95.0804 78.3231 96.3308 72.6951C96.6434 71.2881 96.3308 70.8191 94.7678 71.2881C89.2976 72.8515 83.8274 74.4148 78.2008 75.9781C77.4193 76.1345 76.9504 76.4471 76.7941 77.2288C75.7001 83.9511 73.9809 90.5171 72.7305 97.3958H72.8868ZM75.8564 77.0724C75.8564 76.1344 75.2312 76.1345 74.7623 75.8218C70.0735 72.5388 65.3847 69.4121 60.6959 66.2855C59.6019 65.5038 59.4456 65.9728 59.133 66.9108C57.8827 72.6951 56.6323 78.3231 55.2257 84.1074C55.0694 84.8891 55.2256 85.3581 55.8508 85.8271C60.5396 89.1101 65.2284 92.5494 69.7609 95.9888C70.855 96.7704 71.3238 96.6141 71.4801 95.2071C72.5742 90.0481 73.8245 84.8891 74.9186 79.7301C75.0749 78.9484 75.3875 78.0105 75.5438 77.3851L75.8564 77.0724ZM122.432 62.2208C120.244 60.9701 118.524 59.0941 116.336 58.6251C114.304 58.1561 112.429 57.5308 110.553 56.7491C105.708 54.5605 100.707 53.3098 95.393 52.5281C95.7056 52.8408 95.7056 52.9971 95.8619 53.1535C100.394 57.2181 105.239 60.8138 108.99 65.5038C109.303 65.8165 109.616 65.8165 109.928 65.6601C113.992 64.5658 117.899 63.4715 122.275 62.2208H122.432ZM81.0141 35.1752C81.0141 36.7385 81.0141 37.9892 81.0141 39.2398C81.0141 39.8652 81.0141 40.3341 81.7955 40.4905C82.577 40.6468 82.8895 40.3341 83.2021 39.7088C84.765 36.7385 84.7651 36.7385 81.7955 35.3315C81.6392 35.3315 81.4829 35.3315 81.0141 35.0188V35.1752Z" fill="#141111"/>
<path d="M74.2945 41.8974C70.5435 41.2721 66.9487 41.1158 63.1977 42.2101C61.9473 42.5228 60.697 42.8354 59.9156 44.2424C61.7911 43.9298 63.6666 43.4608 65.5421 43.1481C68.6679 42.6791 71.7938 42.8354 74.9197 43.7734C76.3263 44.2424 76.3263 45.1804 76.3263 46.2748C76.3263 47.6818 75.2322 47.3691 74.6071 47.5254C73.2004 47.6817 71.7939 47.5254 70.3872 47.5254C68.3554 46.7437 66.3236 47.2127 64.2917 47.2127C59.603 46.9001 54.9141 46.4311 50.3816 44.8678C48.3498 44.0861 47.0995 42.8354 46.7869 40.8031C46.4743 38.3018 46.7869 35.9568 48.5062 33.9244C49.9128 32.2048 51.3194 30.6414 52.8824 29.3908C54.9142 27.8274 56.1645 25.9514 56.4771 23.2938C56.7897 21.5741 57.1023 19.6981 57.8838 18.1348C59.7593 13.9138 62.7289 12.1941 67.2614 12.6631C68.3554 12.6631 69.1368 13.6011 70.2309 13.4448C73.2004 14.8518 75.0759 17.3531 76.17 20.3235C78.3581 26.5768 79.6084 32.9864 79.2959 39.5524C79.2959 40.3341 79.2959 41.1158 78.3581 41.2721C77.1078 37.3638 74.2945 34.5498 71.4812 31.8921C69.2931 29.8598 66.6361 28.7654 63.6665 28.6091C61.6347 28.4528 59.7592 28.6091 58.1963 30.1724C57.5711 30.7978 56.4771 31.7358 58.04 32.6738C58.9778 35.8004 62.4162 38.4581 65.8547 38.6144C65.2295 37.6764 64.2918 37.3638 63.354 36.8948C62.1037 36.1131 60.697 35.4878 59.9156 34.2371C59.4467 33.6118 58.8215 32.8301 59.2903 32.0484C59.7592 31.2668 60.697 31.4231 61.4785 31.5794C63.354 31.8921 65.0732 32.5174 66.6361 33.6118C69.9183 35.8004 72.419 38.6144 74.2945 42.0538C74.2945 42.0538 74.1382 42.2101 73.9819 42.3664L74.2945 41.8974Z" fill="#D34D55"/>
<path d="M115.868 42.5227C116.806 46.7437 113.055 49.8703 109.616 51.4337C107.116 52.528 104.615 52.6843 101.958 52.2153C97.1129 51.4337 92.2678 50.8083 87.7353 49.245C87.1102 49.0887 86.1724 49.0887 86.1724 47.9943C86.1724 47.0563 86.485 46.1183 87.4227 45.8057C87.4227 45.8057 87.5791 45.8057 87.7353 45.6493C92.1116 43.3565 96.6961 42.9396 101.489 44.3987C102.583 44.7113 103.521 45.1804 105.084 45.3367C102.896 43.148 100.239 42.5227 97.7381 41.5847C99.4574 40.334 102.583 39.5524 108.053 39.0834C108.053 38.3017 107.116 38.3017 106.803 37.8327C107.116 37.051 107.116 37.051 106.334 36.7384C103.99 35.9567 101.645 36.113 99.3011 36.4257C94.1434 37.3637 89.9234 40.0214 85.8598 43.148C85.3909 42.5227 84.922 42.0537 84.2969 41.4284C85.3909 41.4284 85.7035 40.4904 86.1724 39.865C88.5168 36.113 90.5486 32.0484 92.5804 27.9837C93.8307 25.4824 95.55 23.2937 97.5818 21.574C100.239 19.229 103.677 19.8544 105.396 22.981C106.334 24.7007 106.647 26.5767 106.491 28.4527C106.178 31.423 107.272 33.6117 109.616 35.175C112.586 36.8947 114.461 39.396 115.868 42.5227Z" fill="#D34D55"/>
<path d="M56.4764 88.0156C61.4778 91.6113 66.1665 95.0506 71.0116 98.49C71.9494 99.1153 71.3243 99.897 71.168 100.522C69.7613 107.87 68.1983 115.218 66.7917 122.565C66.4791 123.816 66.3228 125.067 66.0102 126.474C64.6036 126.005 63.5096 125.223 62.4155 124.441C58.5082 121.627 54.7572 118.813 51.0061 115.999C50.0684 115.374 49.7558 114.749 50.0684 113.498C52.1002 105.056 54.9134 96.9266 56.4764 88.0156Z" fill="#FAC4C7"/>
<path d="M67.5742 126.004C68.6683 120.533 69.7623 115.53 70.7001 110.371C71.4815 106.775 72.2631 103.336 72.8882 99.7405C72.8882 98.9588 73.2008 98.4898 73.9823 98.1772C79.14 96.4575 84.2976 94.7378 89.6116 92.8618C88.9864 96.1448 88.3612 99.1151 87.7361 102.242C86.642 107.557 85.7042 112.872 84.7665 118.188C84.7665 118.813 84.7665 119.438 83.8287 119.751C78.5148 121.783 73.2008 123.659 67.5742 125.848V126.004Z" fill="#FAC4C7"/>
<path d="M72.8877 97.3958C74.138 90.5172 76.0135 83.9512 76.9513 77.2288C76.9513 76.4472 77.5765 76.1345 78.358 75.9782C83.8282 74.4148 89.4547 72.8515 94.925 71.2882C96.4879 70.8192 96.8005 71.2882 96.4879 72.6952C95.3939 78.3232 94.2999 83.9512 93.2058 89.5792C93.2058 90.2045 92.737 90.5172 92.2681 90.6735C85.8601 92.8622 79.6083 95.0508 73.044 97.3958H72.8877Z" fill="#FAC4C7"/>
<path d="M75.8568 77.0722C75.7005 77.8538 75.3879 78.6355 75.2316 79.4172C74.1375 84.5762 72.8871 89.7352 71.7931 94.8942C71.4805 96.1448 71.168 96.4575 70.0739 95.6758C65.3851 92.2365 60.8526 88.9535 56.1638 85.5142C55.5386 85.0452 55.2261 84.7325 55.5387 83.7945C56.9453 78.1665 58.1956 72.3822 59.446 66.5979C59.6023 65.6599 59.7586 65.1909 61.0089 65.9725C65.6977 69.2555 70.3865 72.3822 75.0753 75.5088C75.5442 75.8215 76.1693 75.9779 76.1693 76.7595L75.8568 77.0722Z" fill="#FAC4C7"/>
<path d="M33.0317 71.2878C36.7827 73.6328 40.2211 76.4468 43.9722 78.9482C44.5973 79.4172 44.4411 79.7298 44.2848 80.3552C42.253 88.6408 40.2211 97.0828 38.5019 105.368C38.5019 105.681 38.5019 106.306 37.8767 106.15C37.8767 105.837 37.8768 105.368 37.2516 105.681C37.7205 105.212 37.4079 104.743 37.2516 104.43C36.4701 103.649 35.8449 102.711 35.0634 101.929C33.0316 99.7405 30.5309 98.0208 28.8117 95.6758C28.1865 94.8941 27.5614 94.2688 27.7176 93.1745C28.4991 87.3902 29.4369 81.6058 31.1561 76.1342C31.625 74.4145 31.7813 72.5385 33.3443 71.2878H33.0317Z" fill="#FAC4C7"/>
<path d="M61.166 62.8465C63.3541 60.9705 66.0111 60.0325 68.5118 58.6255C71.794 56.9059 75.0761 55.4989 78.202 53.4665C78.8272 52.9975 79.1398 53.1539 79.7649 53.6229C84.1412 58.3129 88.361 63.0028 92.7373 67.6928C88.0485 69.7252 83.0471 70.5068 78.3583 72.6955C77.7331 73.0082 77.4205 72.6955 76.9516 72.3828C73.982 70.3505 71.0125 68.3182 67.8866 66.4422C65.6985 65.0352 63.823 63.0029 61.166 62.8465Z" fill="#FAC4C7"/>
<path d="M46.3177 80.8245C49.131 82.7005 51.7879 84.7328 54.6012 86.6088C55.3827 87.2341 55.2264 87.7031 55.0701 88.4848C53.0383 96.4578 51.0065 104.587 48.9747 112.56C48.6621 113.654 48.3495 114.123 47.2554 113.185C45.3799 111.622 43.3482 110.215 41.4727 108.808C42.4104 106.619 42.4104 104.118 42.723 101.773C43.9733 94.7381 45.0674 87.8595 46.3177 80.8245Z" fill="#D34D55"/>
<path d="M98.9883 113.498C100.239 107.87 101.333 102.398 102.583 96.7703C103.208 94.1127 103.677 91.6113 104.146 88.9537C104.146 88.3283 104.302 88.0157 104.927 87.703C107.897 86.765 110.867 85.6707 113.992 84.7327C113.992 85.2017 113.992 85.6707 113.992 86.296C112.742 92.5493 111.961 98.8026 110.398 104.9C110.085 106.15 109.616 106.932 108.522 107.557C105.24 109.433 101.958 111.309 98.9883 113.654V113.498Z" fill="#FAC4C7"/>
<path d="M91.7985 92.2367C95.3933 90.986 98.9881 89.7354 102.895 88.3284C101.801 93.4874 100.707 98.1773 99.7695 103.024C99.1443 106.619 97.894 110.215 97.5814 113.811C97.5814 114.436 97.2688 114.592 96.7999 114.905C94.1429 115.843 91.6423 116.781 89.1416 117.719C89.7668 111.466 91.1734 105.525 91.9549 99.2717C92.2674 96.9267 93.2052 94.5817 91.9549 92.2367H91.7985Z" fill="#D34D55"/>
<path d="M64.2923 49.2453C63.0419 50.1833 61.6353 50.4959 60.2287 51.2776C59.7598 51.5903 59.1346 51.7466 58.9783 52.372C58.1968 52.5283 57.2591 52.8409 57.5717 53.6226C57.8843 54.4043 58.822 53.7789 59.2909 53.6226C64.2923 51.7466 69.45 50.1833 74.7639 49.4016C75.3891 49.4016 76.4831 49.4016 76.7957 48.4636C78.3587 49.558 76.7957 49.5579 76.3269 49.7143C73.3573 50.6523 70.2315 51.5903 67.2619 52.8409C59.9161 55.9676 53.8206 60.8139 48.8192 67.0673C48.8192 67.2236 48.5067 67.3799 48.1941 67.6926C47.4126 65.9729 47.4126 64.4096 47.1 62.6899C46.7874 60.5013 46.1623 59.7196 43.8179 60.0323C42.0987 60.1886 40.3794 60.5013 38.6602 60.6576C44.1304 56.2803 49.9133 52.3719 56.9465 50.4959C58.5094 50.0269 60.0723 49.4016 61.6353 48.9326C62.4167 48.7763 63.1982 48.9326 63.8234 48.9326L64.2923 49.2453Z" fill="#D34D55"/>
<path d="M81.9512 51.7461C82.5763 51.5898 83.3578 51.5898 83.8267 51.1208C86.64 48.6195 89.6096 50.4955 91.4851 51.9025C97.4243 55.9671 102.426 61.1261 108.052 66.1288C104.614 67.2231 101.488 68.1611 98.362 68.9428C98.0494 68.4738 97.8931 68.0048 97.5805 67.6921C92.7354 62.0641 87.2651 57.0615 81.9512 51.7461Z" fill="#D34D55"/>
<path d="M33.8144 48.3074C36.6277 50.1834 39.441 52.2157 42.4105 54.0917C40.2224 55.8114 38.1906 57.8437 36.784 60.1887C36.4714 60.6577 36.1588 61.1267 36.0025 61.5957C35.69 62.221 35.3774 62.69 36.0025 63.3154C36.4714 63.7844 37.0966 63.3154 37.5655 63.3154C39.441 62.3774 41.4728 62.0647 43.5046 61.9084C44.9112 61.752 45.5364 61.9084 45.2238 63.628C44.4423 67.38 43.9735 71.132 43.192 75.0404C42.8794 73.7897 41.7853 73.008 40.8476 72.2263C37.878 69.725 34.4396 67.849 31.7826 65.1914C31.3137 64.7224 30.6885 64.2534 30.8448 63.3154C31.7825 58.3127 32.8766 53.31 33.8144 48.4637V48.3074Z" fill="#FAC4C7"/>
<path d="M47.5689 70.1935C48.5067 70.6625 48.9756 70.1935 49.6007 69.5682C55.2273 60.6572 63.6672 55.6546 73.5137 52.5279C74.764 52.0589 76.1706 51.5899 77.421 51.2772C78.0462 51.1209 78.9838 50.3392 79.2964 50.9646C79.609 51.7462 78.3587 51.9026 77.8899 52.2152C73.8262 54.4039 69.6063 56.4362 65.5427 58.4685C63.9797 59.2502 62.5731 60.1882 61.0102 60.8135C59.1347 61.5952 58.1969 63.1585 57.728 65.0345C56.4776 69.7245 55.6962 74.7272 54.6021 79.4172C54.4458 80.1989 54.1333 81.1369 53.977 81.9185C53.0393 80.8242 52.2577 79.4172 51.0074 78.9482C46.6312 77.0722 46.3186 74.1019 47.8815 70.1935H47.5689Z" fill="#D34D55"/>
<path d="M108.834 68.0049C108.366 73.0075 107.428 77.8539 106.959 82.7002C106.646 85.3579 105.552 86.2959 103.364 86.7649C101.176 87.2339 98.9879 88.1719 96.7998 88.9535C98.0502 83.6382 98.8316 78.1665 99.4568 72.6949C99.4568 71.6005 99.9257 71.1315 100.863 70.8189C103.52 69.8809 106.177 68.9429 108.991 68.0049H108.834Z" fill="#D34D55"/>
<path d="M131.497 43.7737C130.559 45.6497 129.622 47.5257 128.684 49.4017C128.059 50.6523 128.371 51.2777 129.778 51.2777C131.341 51.2777 132.748 51.2777 134.467 51.2777C133.842 52.0593 132.904 52.372 132.279 52.6847C128.371 54.717 124.151 56.2803 119.775 56.9057C118.056 57.2183 116.337 57.062 114.617 56.593C111.961 55.8113 109.46 54.717 106.646 53.779C108.053 53.31 109.304 52.9973 110.398 52.5283C111.023 52.2157 111.492 52.5283 111.804 52.9973C113.367 54.0917 115.086 55.0297 117.274 55.0297C116.337 53.779 114.774 53.6227 113.836 52.372C116.493 52.2157 118.994 52.0593 121.182 51.1213C121.338 51.1213 122.588 50.965 121.338 50.3397C121.494 50.027 122.12 50.027 122.12 49.558C122.12 49.2453 121.651 49.2453 121.338 49.2453C119.306 49.2453 117.118 49.2453 115.086 49.2453C115.086 48.62 115.711 48.151 116.024 47.682C117.118 47.682 118.056 47.3693 118.994 47.213C123.214 46.1187 127.434 44.868 131.497 43.7737Z" fill="#D34D55"/>
<path d="M108.522 83.169C109.147 78.01 109.772 73.0073 110.397 67.8483C110.397 67.0667 110.866 66.754 111.491 66.5977C114.461 65.816 117.43 65.0344 120.244 64.2527C119.931 68.9427 119.15 73.6327 118.368 78.3227C118.368 78.7917 118.055 78.948 117.587 79.1043C114.461 80.5113 111.335 81.762 108.209 83.169H108.522Z" fill="#FAC4C7"/>
<path d="M122.431 62.2205C118.055 63.4711 113.991 64.5655 110.084 65.6598C109.771 65.6598 109.459 65.8161 109.146 65.5035C105.395 60.8135 100.394 57.2178 96.0177 53.1532C95.8614 53.1532 95.7051 52.8405 95.5488 52.5278C100.863 53.3095 105.864 54.7165 110.709 56.7488C112.585 57.5305 114.617 58.1558 116.492 58.6248C118.68 59.2502 120.399 60.9698 122.588 62.2205H122.431Z" fill="#FAC4C7"/>
<path d="M115.868 42.5222C114.461 39.5518 112.585 37.0505 109.616 35.1745C107.271 33.7675 106.021 31.4225 106.49 28.4522C106.803 26.5762 106.334 24.7002 105.396 22.9805C103.677 19.8539 100.238 19.2285 97.5813 21.5735C95.5495 23.4495 93.8302 25.4818 92.5799 27.9832C90.5481 32.0478 88.5163 35.9562 86.1719 39.8645C85.703 40.6462 85.3904 41.4278 84.2964 41.4278C83.9838 41.2715 83.8275 40.9588 84.1401 40.6462C86.7971 35.4872 88.6726 30.0155 91.7984 25.0129C92.7362 23.4495 93.8302 22.0425 94.9243 20.4792C96.7998 17.9779 99.1442 16.8835 102.27 17.6652C105.552 18.6032 107.584 20.7919 108.366 24.0748C108.522 25.1692 108.678 26.2635 108.522 27.2015C108.053 30.0155 109.303 31.8915 111.491 33.2985C113.836 35.0182 115.399 37.2068 115.868 40.0208C115.868 40.6462 115.868 41.4278 115.868 42.0532V42.5222Z" fill="#F5F5F1"/>
<path d="M70.2305 13.2883C69.1364 13.4446 68.1987 12.6629 67.261 12.5066C62.7285 12.0376 59.7589 13.6009 57.8834 17.9783C57.1019 19.6979 56.7893 21.4176 56.4767 23.1372C56.1641 25.6386 54.9138 27.6709 52.882 29.2342C51.1628 30.4849 49.7561 32.0482 48.5058 33.7679C46.9429 35.8002 46.4739 38.1452 46.7865 40.6466C47.0991 42.8352 48.3494 44.0859 50.3812 44.7112C54.9137 46.2746 59.6026 46.7436 64.2914 47.0562C63.9788 47.2126 63.5099 47.5252 63.1973 47.6816C59.1337 47.6816 54.9138 47.9942 51.0065 46.7435C50.225 46.5872 49.5998 46.2745 48.9747 45.9619C44.4422 43.7732 43.0355 40.3339 44.911 35.6439C46.3176 32.2046 48.5057 29.3906 51.4753 27.3582C54.1323 25.6386 55.3827 23.1372 55.6952 20.0106C55.8515 18.2909 56.3204 16.4149 57.2582 14.8516C59.7589 10.3179 66.7921 9.37994 70.3868 13.2883H70.2305Z" fill="#F5F5F1"/>
<path d="M33.0319 71.2879C31.469 72.5385 31.469 74.4145 30.8438 76.1342C29.2809 81.7622 28.1869 87.3902 27.4054 93.1745C27.4054 94.2688 27.8742 94.8942 28.4994 95.6758C30.2186 98.0208 32.8756 99.7405 34.7511 101.929C35.5326 102.711 36.1578 103.649 36.9393 104.431C37.2519 104.9 37.5644 105.212 36.9393 105.681C32.8756 102.867 28.9683 99.8968 24.9047 97.0828C23.9669 96.4575 24.2795 95.6758 24.4358 94.8942C25.8425 87.7029 27.2491 80.6679 28.6557 73.4765C28.812 72.5385 29.1246 71.6005 29.1246 70.5062C29.1246 68.6302 29.9061 68.7865 31.1564 69.7245C31.6253 70.1935 32.0942 70.5062 32.5631 70.9752L33.0319 71.2879Z" fill="#F5F5F1"/>
<path d="M61.166 62.8457C63.9793 63.002 65.8548 65.0344 67.8866 66.4414C70.8562 68.3174 73.8257 70.3497 76.9516 72.382C77.4205 72.6947 77.7331 73.0074 78.3583 72.6947C83.047 70.506 88.0484 69.7244 92.7372 67.692C93.5187 68.161 94.1439 68.7864 94.6128 69.568C94.3002 70.1934 93.8312 70.037 93.3624 70.1934C88.361 71.6004 83.2034 73.0074 78.202 74.5707C77.2642 74.8834 76.4828 74.8834 75.545 74.258C70.8562 71.1314 66.0111 68.0047 61.166 64.878C60.072 64.0964 59.7594 63.6274 61.166 62.8457Z" fill="#F5F5F1"/>
<path d="M33.8141 48.3069C32.8764 53.3096 31.9386 58.3122 30.8445 63.1586C30.6882 64.0966 31.1572 64.5656 31.7823 65.0346C34.4393 67.8486 37.8777 69.5682 40.8473 72.0696C41.7851 72.8512 42.8791 73.4765 43.1917 74.8835C43.1917 75.6652 43.1917 76.2905 41.9414 75.5089C37.5652 72.2259 33.0327 69.0992 28.6565 65.8162C28.1876 65.5036 27.875 65.1909 27.875 64.4092C28.9691 58.4686 30.0631 52.5279 31.3135 46.4309C32.2512 46.7436 33.0327 47.3689 33.8141 47.9942V48.3069Z" fill="#F5F5F1"/>
<path d="M98.988 113.498C101.958 111.153 105.24 109.277 108.522 107.401C109.46 106.775 110.085 105.994 110.397 104.743C111.804 98.646 112.742 92.3927 113.992 86.1393C113.992 85.6703 113.992 85.2013 113.992 84.576C114.774 83.9507 115.711 83.4817 116.962 83.7943C115.243 91.4547 113.367 99.115 111.804 106.775C111.335 108.651 110.71 109.589 108.834 110.215C105.709 111.309 102.739 112.56 99.6131 113.81C99.3006 113.81 98.5191 114.592 98.988 113.341V113.498Z" fill="#F5F5F1"/>
<path d="M35.6896 44.7111C37.7214 43.9294 39.7531 43.3041 41.7849 42.5224C42.2538 42.3661 42.7228 42.2097 43.0354 42.8351C44.7546 45.9617 47.7241 47.5251 51.0063 48.4631C51.1626 48.4631 51.4751 48.6194 51.7877 48.9321C49.4433 50.0264 47.2552 51.1207 45.0671 52.215C45.0671 51.2771 44.2856 50.8081 43.6605 50.3391C41.0035 48.4631 37.8776 47.0561 35.5332 44.7111H35.6896Z" fill="#FAC4C7"/>
<path d="M108.521 83.1694C111.647 81.7624 114.773 80.3554 117.899 79.1048C118.211 78.9484 118.524 78.7921 118.68 78.3231C119.305 73.6331 120.243 68.9431 120.556 64.2531C121.025 64.0968 121.337 63.9404 121.806 63.7841C122.9 63.4714 123.213 63.7841 123.056 64.8784C122.275 69.8811 121.494 75.0401 120.712 80.0428C120.712 80.6681 120.4 80.9808 119.774 81.2934C116.336 82.7004 112.897 83.7947 109.459 85.0454C109.146 85.0454 108.677 85.3581 108.521 85.0454C108.365 84.4201 108.365 83.7947 108.834 83.3257L108.521 83.1694Z" fill="#F5F5F1"/>
<path d="M58.1948 32.517C56.6319 31.579 57.726 30.641 58.3512 30.0157C59.9141 28.6087 61.7896 28.296 63.8214 28.4524C66.791 28.765 69.448 29.703 71.6361 31.7354C74.4494 34.393 77.2626 37.207 78.5129 41.1153C77.5752 42.6787 76.9501 42.366 76.0123 40.959C74.1368 37.8323 71.9486 35.1747 69.1354 32.986C67.1035 31.4227 64.7592 30.3284 62.2585 29.8594C59.7578 29.3904 58.6637 30.172 58.1948 32.3607V32.517Z" fill="#F5F5F1"/>
<path d="M81.9527 51.7461C87.2667 57.0614 92.5807 62.0641 97.5821 67.6921C97.8946 68.0047 98.0509 68.4737 98.3635 68.9427C97.2695 69.7244 96.488 69.4117 95.5503 68.4737C90.5489 63.6274 86.0164 58.4684 81.1713 53.6221C80.8587 53.3094 80.0772 52.9968 80.3898 52.3714C80.7024 51.7461 81.3276 51.7461 81.9527 51.9024V51.7461Z" fill="#F5F5F1"/>
<path d="M91.7984 92.2366C93.0487 94.5816 91.9547 96.9266 91.7984 99.2716C91.0169 105.369 89.6103 111.466 88.9851 117.719C88.2037 118.188 87.2659 118.501 86.1719 118.813C86.797 115.999 87.2659 113.342 87.7348 110.528C88.8289 105.056 89.7666 99.5842 90.8607 94.1126C90.8607 93.4872 90.8606 92.5492 91.7984 92.2366Z" fill="#F5F5F1"/>
<path d="M108.834 68.0047C106.177 68.9427 103.52 69.8807 100.707 70.8187C99.7689 71.1314 99.4564 71.6004 99.3001 72.6947C98.675 78.1664 97.8935 83.638 96.6431 88.9533C96.0179 89.266 95.3928 89.5787 94.6113 89.5787C94.6113 87.859 95.0802 86.2957 95.3928 84.7324C96.1743 80.1987 97.112 75.8214 97.8934 71.2877C97.8934 70.6624 98.206 70.1934 98.8312 70.037C101.957 69.2554 104.927 68.3174 108.053 67.3794C108.521 67.3794 109.147 67.0667 108.834 68.0047Z" fill="#F5F5F1"/>
<path d="M46.3177 80.8238C45.0674 87.8588 43.9733 94.7374 42.723 101.772C42.2541 104.117 42.4104 106.619 41.4727 108.807C40.2223 108.182 39.5971 107.557 39.9097 105.837C41.4727 97.5515 43.817 89.4221 45.2236 81.1365C45.3799 80.0421 45.8488 80.0421 46.474 80.8238H46.3177Z" fill="#F5F5F1"/>
<path d="M61.9471 49.401C60.3842 49.87 58.8213 50.4954 57.2583 50.9644C50.3814 52.8404 44.4423 56.5924 38.972 61.126C38.6594 61.126 38.1905 61.4387 38.1905 61.4387C37.7217 61.126 38.1906 60.8134 38.5032 60.5007C41.7853 55.967 46.1615 52.9967 51.1629 50.9644C54.7576 49.5574 58.3523 48.932 62.1034 49.401H61.9471Z" fill="#F5F5F1"/>
<path d="M85.8594 43.1481C89.923 40.0215 94.143 37.2074 99.3006 36.4258C101.645 35.9568 103.989 35.9568 106.334 36.7385C107.115 37.0511 107.115 37.0511 106.803 37.8328C102.583 37.5201 98.6754 38.6144 94.9244 40.1778C92.2674 41.2721 89.4541 42.3664 87.1097 43.9298C86.0156 44.5551 86.0157 43.9298 86.0157 43.1481H85.8594Z" fill="#F5F5F1"/>
<path d="M47.5687 70.1932C46.0058 74.1015 46.4747 77.0719 50.6946 78.9479C51.9449 79.5732 52.8827 80.8239 53.6642 81.9182C53.6642 83.0125 53.3516 83.7942 52.1012 82.6999C49.9131 80.9802 47.7251 79.4169 45.3807 77.8535C44.5992 77.3845 44.2866 76.7592 44.7554 75.9775C45.8495 73.4762 46.0058 70.8186 46.7872 68.1609C47.4124 68.6299 47.4125 69.4115 47.7251 70.0369L47.5687 70.1932Z" fill="#F5F5F1"/>
<path d="M35.6902 44.7109C38.0346 47.0559 41.1605 48.3066 43.8175 50.3389C44.4426 50.8079 45.2241 51.2769 45.2241 52.2149C44.2863 53.1529 43.5048 53.1529 42.4108 52.2149C39.4412 50.0263 36.3154 47.8376 33.0332 45.6489C33.971 45.0236 34.9087 44.8673 35.8465 44.7109H35.6902Z" fill="#F5F5F1"/>
<path d="M84.609 45.4931C85.0779 47.0564 85.2342 48.4634 83.6713 49.4014C82.5773 50.1831 81.3269 50.1831 80.3891 49.2451C80.3891 48.6197 80.2328 47.9944 80.0765 47.3691C80.0765 46.2747 79.7639 45.0241 80.858 44.2424C82.1083 43.4607 82.8898 44.5551 83.8276 45.1804C83.9839 45.1804 84.2965 45.1804 84.4528 45.3367L84.609 45.4931Z" fill="#D34D55"/>
<path d="M76.9498 48.7759C76.4809 49.7139 75.5432 49.5575 74.918 49.7139C69.604 50.4955 64.4464 52.0589 59.445 53.9349C58.8199 54.0912 58.0383 54.8729 57.7258 53.9349C57.4132 52.9969 58.351 52.8405 59.1324 52.6842C59.445 52.9969 59.9139 52.6842 60.2265 52.6842C65.5405 50.0265 71.3233 48.9322 77.2624 48.9322L76.9498 48.7759Z" fill="#F5F5F1"/>
<path d="M131.497 43.7734C127.277 44.8678 123.057 46.1184 118.993 47.2128C118.055 47.5254 117.117 47.8381 116.023 47.6818C116.18 46.4311 116.961 46.1184 118.055 45.8058C121.963 44.8678 125.87 43.7734 129.934 43.1481C131.184 42.9918 131.34 42.9918 131.497 43.7734Z" fill="#F5F5F1"/>
<path d="M84.6091 45.4931C84.4528 45.4931 84.1402 45.4931 83.9839 45.3367C83.0462 44.7114 82.2647 43.7734 81.0144 44.3987C79.9203 45.0241 80.2329 46.4311 80.2329 47.5254C80.2329 48.1507 80.233 48.7761 80.5455 49.4014C78.8263 48.3071 77.8885 46.1184 78.5137 44.3987C79.1388 42.9917 80.2329 42.2101 81.7959 42.3664C83.5151 42.6791 84.7654 43.6171 84.7654 45.6494L84.6091 45.4931Z" fill="#F5F5F1"/>
<path d="M81.0144 35.1748C81.4833 35.3311 81.6396 35.3311 81.7959 35.4875C84.7655 36.8945 84.7654 36.8945 83.2025 39.8648C82.8899 40.4901 82.5774 40.8028 81.7959 40.6465C81.0144 40.4901 80.8581 40.0211 81.0144 39.3958C81.0144 38.1451 81.0144 36.7381 81.0144 35.3311V35.1748Z" fill="#FAC4C7"/>
<path d="M115.243 49.4009C117.274 49.4009 119.462 49.4009 121.494 49.4009C121.807 49.4009 122.276 49.4009 122.276 49.7135C122.276 50.1825 121.807 50.1825 121.494 50.4952C118.994 50.4952 116.337 51.1205 113.836 50.6515C113.836 50.0262 114.305 49.8699 114.617 49.7135C114.774 49.7135 115.086 49.7135 115.086 49.4009H115.243Z" fill="#CEC8C8"/>
<path d="M63.041 47.6814C63.3536 47.525 63.8225 47.2124 64.1351 47.056C66.1669 47.056 68.1987 46.587 70.2305 47.3687C67.8861 47.6814 65.3854 47.8377 63.041 47.6814Z" fill="#CEC8C8"/>
<path d="M64.291 49.4013C64.291 49.4013 64.6036 49.245 64.6036 49.0886C64.6036 49.4013 64.2911 49.0886 64.1348 49.245L64.291 49.4013Z" fill="#D34D55"/>
<path d="M37.4082 105.838C37.8771 105.525 37.8771 105.838 38.0334 106.307C37.8771 106.307 37.5645 105.994 37.4082 105.838Z" fill="#F5F5F1"/>
<path d="M74.4493 41.741C74.4493 41.741 74.7619 42.0536 74.4493 42.21C74.4493 42.21 74.293 42.21 74.1367 42.0536C74.1367 42.0536 74.293 41.8973 74.4493 41.741Z" fill="#D34D55"/>
<path d="M115.242 49.2454C115.242 49.558 114.93 49.558 114.773 49.558C114.773 49.4017 115.086 49.2454 115.242 49.2454Z" fill="#D34D55"/>
</svg>
