<svg width="138" height="138" viewBox="0 0 138 138" fill="none" xmlns="http://www.w3.org/2000/svg">
<circle cx="68.9992" cy="69.0001" r="66.0714" fill="#B9E199" stroke="black" stroke-width="5"/>
<path d="M55.337 116.932C46.9492 116.932 39.3477 114.048 31.8772 110.508C26.1106 107.755 21.5235 103.56 18.247 98.1856C14.5773 91.8931 13.5288 84.9451 14.8394 77.735C15.8879 71.5736 18.378 66.0676 23.3583 61.8727C25.9795 59.6441 28.9939 58.0709 32.1394 56.76C32.7947 56.4978 32.9257 56.3667 32.7947 55.5802C32.4015 44.9616 34.2363 34.9985 41.5757 26.7396C49.1772 18.2185 58.8756 14.4167 70.2778 15.0722C78.7968 15.5966 85.743 19.3983 91.3786 25.6908C92.8202 27.2639 93.6066 28.837 96.3588 28.4438C98.849 28.1816 101.339 29.3614 103.043 31.4589C103.567 32.1144 104.091 31.9833 104.878 31.9833C109.334 31.59 113.528 33.6875 114.969 37.3581C115.756 39.1934 116.673 40.2422 118.508 40.8977C121.785 42.2086 122.702 45.2237 122.833 48.5011C122.833 49.5498 123.226 50.3364 124.013 51.123C127.158 54.6625 128.338 58.5953 126.372 63.1836C126.11 63.8391 125.978 64.3634 125.978 65.0189C127.027 76.5551 122.833 85.8628 114.314 93.4662C108.679 98.4478 102.912 103.429 95.9657 106.838C86.3983 111.557 76.1756 114.703 65.5597 116.014C62.1521 116.408 58.7446 117.063 55.2059 116.932H55.337ZM16.4121 82.5854C16.4121 89.009 17.8538 94.3839 21.5235 99.2344C25.4553 104.609 30.6977 107.755 36.5954 110.246C42.6242 112.737 48.784 114.835 55.4681 114.572C62.8074 114.31 70.1468 113.392 77.3551 111.557C92.296 108.018 104.747 100.283 115.494 89.4023C120.474 84.2897 123.619 78.3905 124.406 71.1803C124.799 67.7719 123.619 64.1012 126.11 61.0861C125.847 57.9398 125.716 54.6625 123.226 52.1717C122.309 51.2541 121.785 50.2053 121.785 48.8944C121.785 45.0927 120.212 42.2086 116.28 41.1599C115.363 40.8977 114.969 40.2422 114.707 39.3245C113.397 35.2606 109.465 32.7698 105.271 33.4253C103.829 33.6875 102.912 33.4253 101.994 32.2455C100.029 29.8858 95.8346 28.9681 93.3445 30.2791C92.5581 30.6723 92.296 30.2791 92.0339 29.6236C90.8543 27.0017 88.8884 25.0353 86.5293 23.3311C78.0104 16.9075 68.5741 15.0722 58.3514 18.0874C49.5704 20.7092 42.6242 25.8219 38.4302 34.2119C35.2848 40.5044 34.1052 47.1902 34.2363 54.1381C34.2363 56.4978 33.3189 57.8088 31.353 58.7264C21.2614 63.5769 16.5432 71.9669 16.4121 82.4544V82.5854Z" fill="#141111"/>
<path d="M16.4121 82.5853C16.5432 71.9668 21.2614 63.7079 31.353 58.8574C33.3189 57.9398 34.3673 56.6288 34.2363 54.2691C34.1052 47.3212 35.2848 40.6354 38.4302 34.3429C42.6241 26.084 49.5703 20.8402 58.3514 18.2184C68.5741 15.2032 78.0104 17.0385 86.5293 23.4621C88.7573 25.1663 90.8543 27.1327 92.0338 29.7546C92.296 30.279 92.5581 30.8034 93.3444 30.4101C95.9656 29.0991 100.16 30.0168 101.994 32.3765C102.912 33.5563 103.829 33.8185 105.271 33.5563C109.465 32.9008 113.397 35.3916 114.707 39.4555C114.969 40.3732 115.363 41.0286 116.28 41.2908C120.343 42.3396 121.785 45.0926 121.785 49.0254C121.785 50.4674 122.178 51.3851 123.226 52.3027C125.716 54.7935 125.847 57.9397 126.109 61.2171C123.619 64.2322 124.799 67.9029 124.406 71.3113C123.619 78.5215 120.474 84.4207 115.494 89.5333C104.747 100.414 92.2959 108.018 77.3551 111.688C70.1468 113.392 62.9384 114.441 55.468 114.703C48.784 114.834 42.6242 112.868 36.5954 110.377C30.6977 107.886 25.4553 104.609 21.5235 99.3654C17.9849 94.5149 16.5432 89.14 16.4121 82.7164V82.5853ZM105.402 40.111C104.747 37.358 103.043 36.1782 100.16 35.916C97.6694 35.6538 95.4414 36.3093 93.4755 37.8824C92.1649 39.0623 91.1164 38.5379 90.8543 36.9648C90.7232 36.3093 90.3301 35.6538 90.0679 35.1295C87.5778 30.6723 83.5149 28.3126 78.7967 27.1327C72.899 25.6907 67.0013 25.6907 61.1036 27.1327C52.1915 29.0991 45.6385 34.0807 41.5757 42.2085C39.0855 47.059 39.0855 52.3027 39.4787 57.5465C39.7408 59.9062 39.0855 60.8238 37.1196 62.2658C30.5666 66.8541 26.5038 73.4088 24.8 81.2744C23.2273 88.8778 25.3242 95.3014 31.2219 100.283C36.4643 104.74 42.8863 107.1 49.7014 107.624C56.5165 108.149 63.2006 107.1 69.7536 105.527C82.4664 102.643 94.3929 97.53 104.747 89.4022C111.038 84.2896 116.28 78.2593 118.508 70.2625C119.556 66.3297 119.688 62.6591 116.673 59.3818C116.28 58.9885 116.411 58.7263 116.673 58.333C118.77 54.7935 117.853 51.254 116.673 47.7145C116.411 46.7968 115.756 45.748 114.838 45.748C112.741 45.748 112.479 44.0438 111.693 42.864C111.431 42.4707 111.038 42.0774 110.775 41.553C109.203 39.5866 107.761 39.3244 105.533 40.2421L105.402 40.111Z" fill="#FAFAFA"/>
<path d="M105.403 40.1111C107.631 39.0624 109.073 39.4557 110.646 41.4221C110.908 41.8153 111.301 42.2086 111.563 42.733C112.349 43.9128 112.612 45.6171 114.709 45.6171C115.626 45.6171 116.281 46.6658 116.543 47.5835C117.723 51.123 118.509 54.6625 116.543 58.2021C116.281 58.5954 116.15 58.8575 116.543 59.2508C119.558 62.3971 119.558 66.1988 118.378 70.1316C116.15 78.2594 110.908 84.1586 104.617 89.2713C94.2632 97.5302 82.4678 102.512 69.6239 105.396C63.0709 106.838 56.3868 108.018 49.5717 107.493C42.7565 106.969 36.3346 104.609 31.0922 100.152C25.1945 95.1705 23.0975 88.7469 24.6702 81.1435C26.374 73.2778 30.4369 66.7232 36.9899 62.1349C38.9558 60.8239 39.4801 59.7752 39.349 57.4155C38.8248 52.1718 38.9558 46.928 41.4459 42.0775C45.5088 33.9497 52.0618 28.9682 60.9739 27.0018C66.8716 25.6908 72.9004 25.6908 78.667 27.0018C83.3852 28.1816 87.448 30.5413 89.9382 34.9985C90.3314 35.6539 90.5935 36.1783 90.7246 36.8338C91.1178 38.538 92.0352 38.9313 93.3458 37.7515C95.3117 36.0472 97.5397 35.5229 100.03 35.785C102.913 36.0472 104.617 37.2271 105.272 39.98L105.403 40.1111ZM88.6276 58.2021C89.0208 57.1533 89.5451 56.1046 90.3314 55.318C91.1178 54.4003 90.8557 53.4827 89.6761 53.2205C88.8898 52.9583 88.1033 52.6961 87.317 52.3029C87.1859 51.9096 86.7928 51.3852 86.3996 51.9096C85.4822 53.2205 85.3511 54.7936 85.6132 56.3667C85.8753 57.6777 86.6617 58.3332 87.7102 58.8575C88.4966 59.2508 88.3655 58.5954 88.4966 58.2021H88.6276ZM99.7677 42.9952C99.2435 43.3885 99.7677 43.6507 99.8988 43.7818C100.292 44.044 100.947 44.3061 101.078 44.8305C101.34 47.1902 102.913 46.6658 104.355 46.5347C104.617 46.5347 105.01 46.5347 105.272 46.5347C105.796 46.928 106.19 47.0591 106.19 46.1414C106.19 44.6994 105.534 43.5196 104.224 42.9952C102.782 42.4708 101.209 41.6843 99.7677 43.1263V42.9952ZM107.107 42.9952C107.5 46.0104 108.024 49.0255 109.597 51.7785C109.597 52.4339 110.253 52.6961 110.646 52.565C111.17 52.3028 111.432 51.5163 111.432 50.9919C111.694 47.8457 111.432 44.6994 108.942 42.2086C108.418 41.6843 107.893 41.291 107.107 41.4221C106.714 41.4221 106.321 41.4221 106.059 41.6843C105.797 42.2086 106.321 42.3397 106.583 42.6019C106.583 42.733 106.583 42.8641 106.845 42.8641L107.107 42.9952ZM104.355 62.5281C104.355 62.9214 103.831 63.3147 104.355 63.708C104.748 63.9702 105.272 63.8391 105.665 63.708C106.976 62.9214 108.418 62.266 109.466 61.0861C110.515 59.7752 111.563 58.202 110.908 56.3667C110.908 55.5802 110.646 55.0558 109.859 54.7936C109.466 54.7936 109.335 55.0558 109.335 55.4491C108.811 58.071 107.369 59.9063 105.141 61.0861C104.486 61.4794 104.355 62.0038 104.486 62.6593L104.355 62.5281ZM82.5989 54.5314C82.0746 54.1381 82.0746 54.5315 81.9436 54.9247C80.764 57.9399 81.9435 61.2172 84.6958 63.1836C85.7443 63.9702 86.0064 63.5769 85.8754 62.5281C86.7928 61.2172 86.9238 60.0374 85.2201 58.9886C84.4337 58.4642 83.9094 57.4155 84.0405 56.4978C84.0405 55.1869 83.5163 54.7936 82.4678 54.4003L82.5989 54.5314ZM102.651 67.1164C101.865 67.2475 101.603 67.7719 101.865 68.5585C101.996 69.2139 102.52 69.4761 103.175 69.4761C106.714 69.4761 109.859 68.6896 111.17 64.7568C111.825 64.1013 111.825 63.1836 111.17 62.6593C110.515 62.0038 110.253 63.0525 109.728 63.3147C108.156 64.2324 106.845 65.6744 104.879 65.6744C103.568 65.6744 102.913 66.0677 102.52 67.1164H102.651ZM98.3261 37.6204C96.2291 37.6204 94.9185 38.8002 93.6079 40.3733C94.1322 40.6355 94.5253 40.6355 94.7874 40.3733C95.967 40.3733 97.1465 40.3733 98.3261 40.8977C98.5882 41.0288 98.9814 41.0288 99.2435 40.8977C100.161 40.2422 101.34 40.3733 102.389 40.5044C102.913 40.5044 103.7 40.8977 103.962 40.2422C104.355 39.4557 103.568 38.9313 103.044 38.4069C101.603 37.3582 100.03 37.4893 98.4571 37.4893L98.3261 37.6204ZM92.2973 42.733C89.8072 43.2574 87.4481 46.2725 87.5791 48.7633C87.5791 49.9432 88.1033 50.8608 89.2829 51.3852C90.2003 51.7785 89.9382 51.123 89.9382 50.7297C90.9867 46.928 93.0836 44.175 97.1465 43.3885C97.4086 43.3885 97.8018 43.2574 97.8018 42.8641C97.8018 42.6019 97.5397 42.4708 97.2776 42.4708C95.5738 42.3397 94.0011 42.0775 92.4284 42.9952L92.2973 42.733ZM92.6905 55.5802C91.1178 55.5802 91.1177 57.0222 90.5935 57.9399C89.9382 59.1197 90.3314 60.1685 91.5109 60.8239C92.9526 61.4794 94.3943 62.0038 95.967 62.1349C97.8018 62.266 99.5056 60.6928 99.5056 58.7264C99.5056 58.3332 99.5056 57.9399 98.9814 58.071C97.6708 58.071 96.2291 57.8088 95.5738 56.3667C95.4428 55.9734 94.9185 56.1046 94.6564 55.9735C94.0011 55.9735 93.3458 55.7113 92.6905 55.5802ZM88.8897 61.2172C88.4965 60.8239 88.2344 60.955 87.9723 61.2172C87.1859 62.266 87.317 63.708 88.4966 64.4946C91.5109 66.5921 95.1806 66.9853 98.7192 66.9853C100.423 66.9853 101.865 65.9366 102.258 63.9702C102.913 62.0038 102.913 62.1349 101.078 61.8727C100.423 61.8727 100.292 62.1349 99.8988 62.5281C99.2435 63.3147 98.4572 63.708 97.5397 63.8391C94.2632 64.2324 91.3799 63.3147 88.8897 61.0861V61.2172ZM88.8897 66.8542C88.1034 65.9366 87.7102 66.0677 87.5791 67.2475C87.4481 68.6896 87.8413 69.8694 89.0208 70.656C90.4625 71.5736 92.0351 72.4913 93.87 72.8845C95.967 73.2778 97.9329 72.8845 99.3745 71.0492C100.03 70.656 100.292 70.0005 100.423 69.4761C100.554 68.9517 100.423 68.5585 99.7677 68.6896C95.967 69.345 92.4283 68.2963 88.8897 66.9853V66.8542ZM84.6958 52.8272C85.7443 51.3852 86.3996 49.9432 86.1375 48.1078C86.1375 47.5835 86.1375 47.0591 86.3996 46.5347C87.4481 44.0439 89.0208 42.0775 91.642 41.0288C92.0352 40.8977 92.5594 40.7666 92.4284 40.1111C92.2973 39.4557 91.773 39.5868 91.2488 39.5868C90.7245 39.5868 90.0693 39.5867 89.6761 40.1111C89.283 40.1111 89.0208 40.1111 88.6276 40.3733C84.3026 42.2086 81.8125 48.1078 83.3852 52.4339C83.3852 52.6961 83.6473 52.9583 83.9095 53.2205C84.5648 53.876 84.6958 53.3516 84.8269 52.8272H84.6958ZM93.2147 47.9767C92.4283 48.6322 92.1662 49.5499 91.9041 50.3365C91.3799 52.434 92.5594 53.6138 94.6564 53.6138C95.7049 53.6138 95.8359 53.2205 95.4427 52.4339C95.8359 51.2541 96.7533 50.5986 98.0639 50.5986C98.7192 50.5986 99.1124 50.3365 99.2435 49.681C99.2435 49.0255 99.5056 48.5011 99.6367 47.8456C100.03 46.0103 99.3745 45.2238 97.4086 45.2238C95.4427 45.2238 94.2632 46.5347 93.2147 47.9767ZM55.2072 63.0525C57.1732 63.8391 59.1391 64.3635 61.2361 64.1013C62.5467 64.1013 63.9883 63.8391 65.2989 63.8391C67.1337 63.8391 68.7064 63.5769 69.6239 61.6105C70.017 60.6928 70.9345 59.9063 71.7209 59.2508C73.8178 57.2844 76.308 56.1046 79.3223 56.76C79.9776 56.8911 80.2398 56.76 80.2398 56.1046C80.2398 55.5802 80.5019 54.9247 80.764 54.4003C81.0261 53.6138 80.764 53.3516 80.1087 53.6138C76.7011 54.5315 73.1625 54.4003 69.6239 54.6625C64.3815 55.0558 59.1391 54.9247 54.0278 53.7449C50.3581 52.8272 46.8194 51.5163 43.4118 50.0743C43.1497 49.8121 43.0187 49.4188 42.7565 49.1566C42.4944 48.8944 42.2323 48.1079 41.7081 48.37C41.1838 48.5011 41.3149 49.1566 41.3149 49.681C41.1838 51.7785 41.3149 53.876 41.3149 55.9735C41.3149 57.2844 41.9702 58.3332 43.1498 58.8575C47.0816 60.6929 51.0134 62.397 55.3384 63.0525H55.2072ZM101.34 58.4642C101.34 60.5617 101.603 60.6928 103.568 60.0374C106.059 59.1197 108.025 56.4978 108.025 53.7449C108.025 50.9919 106.845 49.0255 104.617 48.37C103.7 48.1079 102.913 48.37 102.258 48.7633C100.685 49.5499 100.423 50.8608 101.472 52.3029C102.389 53.4827 102.389 54.6625 101.603 55.8424C101.078 56.76 100.947 57.5466 101.34 58.4642ZM86.0064 74.4577C85.7443 74.0644 85.4821 74.4577 85.3511 74.4577C83.3852 75.5064 81.1572 76.1619 79.0602 76.9485C71.0655 79.8325 63.0709 80.2258 54.9452 77.4728C50.3581 75.8997 46.9505 72.4913 42.6255 70.5249C42.1013 70.2627 41.8392 69.7383 41.577 69.2139C40.6596 68.0341 40.5286 66.461 40.2664 65.15C39.8733 62.9214 39.6111 62.7904 37.7763 64.1013C37.3831 64.3635 36.99 64.7567 36.5968 65.0189C31.7475 69.345 28.3399 74.5888 26.8983 81.0124C25.3256 87.9603 27.0294 93.9906 32.665 98.4478C38.0384 102.774 44.3293 105.134 51.2754 105.265C58.6148 105.396 65.6921 104.347 72.7693 102.381C82.4678 99.7587 91.773 95.957 100.03 90.1889C102.389 88.6158 104.617 86.9116 106.452 84.8141C111.956 80.3569 115.495 74.5888 117.199 67.7719C117.854 65.15 117.723 62.5281 115.757 60.4306C115.495 60.1685 115.364 59.6441 114.709 60.0374C114.053 60.5618 113.136 60.6929 112.35 60.8239C111.825 60.8239 111.432 61.0861 111.956 61.7416C113.136 63.3147 112.743 64.7567 111.956 66.3299C110.384 69.345 107.893 70.787 104.617 70.9181C102.389 70.9181 100.423 71.0493 99.3745 73.2778C99.1124 73.8022 98.064 73.9333 97.9329 74.7198C97.6708 78.9148 94.9185 81.7989 92.5594 84.9452C90.5935 87.567 89.545 86.3872 88.6276 84.4208C88.4965 84.0275 88.3655 83.6342 88.2344 83.2409C87.5791 79.9636 86.6617 76.6863 88.1034 73.0156C87.317 73.54 86.7928 73.9333 86.2685 74.3266C86.0064 74.3266 85.7443 74.3266 85.8754 74.8509L86.0064 74.4577ZM87.7102 39.1935C89.9383 38.538 89.9382 38.4069 88.7587 36.4405C86.6617 33.0321 83.6474 30.8035 79.8466 29.6236C73.4247 27.6572 66.8716 27.6572 60.3186 29.2304C51.7997 31.3279 45.6399 36.4405 42.3634 44.6994C41.9702 45.7482 42.1013 46.5347 42.8876 47.1902C43.4119 48.2389 44.3293 48.8944 45.3777 49.4188C50.6201 51.5163 55.9936 52.8272 61.6292 53.0894C67.658 53.3516 73.6868 53.0894 79.5845 52.0407C80.8951 51.7785 81.2882 51.3852 81.2882 50.0743C81.2882 45.2238 82.992 41.291 87.5791 39.0624L87.7102 39.1935ZM41.8392 60.5617C41.7081 66.0677 43.2808 70.2627 48.6542 72.4913C49.3095 72.7535 49.9648 73.1467 50.6201 73.54C54.9451 75.8997 59.5322 77.0795 64.3815 77.3417C70.8034 77.735 76.7012 76.0308 82.4678 73.6711C83.9095 73.1467 85.2201 72.3602 86.5307 71.5736C86.9238 71.3114 87.5792 71.0492 87.0549 70.3938C86.3996 69.345 86.3996 68.1652 86.6617 66.9853C86.9238 65.5433 85.4822 65.9366 84.9579 65.4122C84.3026 64.7568 84.0405 65.4122 83.7784 65.8055C82.9921 66.8542 82.0746 67.6408 80.8951 68.1652C76.5701 70.1316 72.3762 70.2627 68.0512 68.1652C67.1338 67.7719 66.7405 67.1164 67.0027 66.1988C67.3958 64.8878 66.8717 65.0189 65.8232 65.15C63.202 65.5433 60.7118 65.9366 57.9596 65.5433C52.324 64.7567 47.0816 62.7903 41.8392 60.4306V60.5617ZM90.2003 83.6342C90.7246 80.8813 90.9867 78.1283 92.4284 75.7686C92.6905 75.3753 92.8216 74.7199 93.3458 74.982C93.87 75.2442 93.4769 75.7686 93.3458 76.1619C92.6905 78.1283 92.4284 80.0947 92.2973 82.4544C94.5254 80.2258 95.8359 77.8661 96.4912 75.2443C96.7533 74.4577 96.2291 74.3266 95.7049 74.4577C94.0011 74.7199 92.4284 74.3266 91.1178 73.4089C90.2003 72.8845 89.5451 73.1467 89.414 74.0644C88.6276 77.3417 89.414 80.3569 90.3314 83.5031L90.2003 83.6342ZM70.1481 67.3786C73.6868 69.0828 79.3224 68.1652 81.8125 65.6744C82.3368 65.15 83.1231 64.7567 82.5989 63.8391C82.0746 62.9214 81.4193 62.266 79.9776 62.6593C76.439 63.708 73.4247 65.6744 70.0171 67.3786H70.1481ZM68.7065 66.1988C70.4103 65.4122 71.7209 64.7568 73.0315 64.1013C74.9974 63.0525 76.9632 62.0038 79.0602 61.3483C79.5845 61.2172 80.633 61.3483 80.2398 60.1685C79.9777 59.2508 79.9776 58.4642 78.667 58.3331C73.9489 57.6777 70.2792 62.2659 68.5754 66.1988H68.7065ZM112.612 58.9886C113.005 58.9886 113.267 58.8575 113.529 58.7264C116.674 57.0222 117.33 49.5499 114.578 47.1902C114.184 46.928 113.791 46.6658 113.398 46.7969C112.874 47.0591 113.136 47.5835 113.267 47.9767C113.66 49.9431 113.529 51.7785 112.218 53.3516C111.956 53.6138 111.956 53.876 112.218 54.2693C112.874 55.7113 113.005 57.4155 112.743 59.1197L112.612 58.9886ZM98.3261 53.7449C97.8018 53.7449 97.5397 53.876 97.5397 54.4003C97.5397 54.9247 97.6708 55.318 98.3261 55.318C98.8503 55.318 99.3745 55.0558 99.3745 54.4003C99.3745 53.876 98.7193 53.876 98.3261 53.7449ZM68.7065 66.5921C68.7065 66.5921 68.7065 66.5921 68.5754 66.5921H68.7065Z" fill="#12100D"/>
<path d="M86.3989 73.9331C86.9231 73.5398 87.4473 73.1465 88.2337 72.6222C86.9231 76.2928 87.7095 79.5701 88.3648 82.8475C88.3648 83.2407 88.6269 83.634 88.758 84.0273C89.6754 85.9937 90.8549 87.1735 92.6898 84.5517C95.0488 81.4054 97.67 78.5214 98.0632 74.3264C98.0632 73.5398 99.1117 73.5398 99.5049 72.8843C100.684 70.6557 102.65 70.5247 104.747 70.5247C108.024 70.3936 110.514 68.9515 112.087 65.9364C112.873 64.4943 113.266 62.9212 112.087 61.3481C111.562 60.6926 112.087 60.5615 112.48 60.4304C113.266 60.4304 114.184 60.1682 114.839 59.6439C115.363 59.2506 115.625 59.6439 115.887 60.0372C117.853 62.2658 117.984 64.8876 117.329 67.3784C115.625 74.1953 111.956 79.9634 106.582 84.4206C104.485 85.2072 102.65 86.2559 100.684 87.4357C92.4276 92.4173 83.6466 96.219 74.3413 98.7098C66.8709 100.676 59.4005 102.511 51.6679 102.249C45.5081 101.987 39.6104 100.676 34.7612 96.6123C31.0915 93.466 28.7324 89.4021 28.7324 84.6828C28.7324 79.3079 30.6983 74.1953 33.8437 69.7381C35.1543 68.0339 36.596 66.4607 38.5619 65.2809C39.7415 70.3936 43.2801 73.5398 47.605 75.7684C55.8618 80.0945 64.5118 81.5365 73.686 80.0945C76.7004 79.7012 79.5837 78.9146 82.205 77.7348C83.7777 76.9482 85.3503 76.1617 86.0056 74.1953C86.2678 74.1953 86.2678 73.9331 86.3989 73.6709V73.9331Z" fill="#E9DA02"/>
<path d="M87.7091 39.1934C82.991 41.422 81.4182 45.3548 81.4182 50.2053C81.4182 51.5162 81.025 51.9095 79.7144 52.1717C73.8167 53.0894 67.7879 53.4826 61.7592 53.2204C56.1236 52.9583 50.7502 51.6473 45.5078 49.5498C44.3282 49.1566 43.5418 48.37 43.0176 47.3212C43.935 45.7481 44.8525 44.3061 45.7699 42.7329C49.4396 37.227 54.2888 33.1631 60.8418 31.59C65.0357 30.5412 69.3607 29.8858 73.6857 30.5412C77.7486 31.0656 81.6804 31.9833 84.8258 34.9984C86.1364 36.1783 86.7917 37.8825 87.7091 39.3245V39.1934ZM67.919 47.8456C69.6228 46.6657 71.1955 45.3548 72.8993 44.175C73.4235 43.7817 73.8167 43.5195 74.341 44.175C74.7342 44.6994 74.8652 45.0926 74.2099 45.617C73.2925 46.4036 72.3751 47.1901 71.4576 47.9767C71.0645 48.2389 70.4091 48.6322 70.9334 49.2876C71.3266 49.812 71.7198 49.2876 72.1129 48.8944C73.0304 48.2389 73.9478 47.4523 74.8652 46.7969C75.2584 46.4036 75.7826 46.0103 76.3069 46.7969C76.7001 47.1901 77.0933 47.3212 77.6175 47.0591C78.1417 46.6658 77.8796 46.1414 77.6175 45.617C77.0933 44.8305 76.438 44.0439 75.9137 43.2573C74.9963 42.0775 76.1758 41.8153 76.7001 41.2909C77.4864 40.5043 77.6175 41.2909 77.8796 41.8153C78.2728 42.4708 78.5349 43.2573 79.0591 43.9128C79.3212 44.3061 79.5834 45.0926 80.2387 44.6994C80.7629 44.4372 80.3698 43.7817 80.2387 43.2573C79.8455 41.8153 78.1417 40.8976 78.797 39.0623C78.797 38.8002 78.5349 38.669 78.2728 38.669C77.4864 38.9312 77.2243 38.2758 76.7001 37.8825C76.0448 37.3581 75.3894 35.6539 74.8652 36.1783C73.9478 36.9648 75.5205 37.7514 75.9137 38.538C76.0448 38.9313 76.7 39.1934 76.4379 39.7178C75.7826 41.0287 74.6031 41.1598 73.5546 39.98C73.2925 39.5867 73.0304 39.1934 72.7682 38.8001C72.1129 38.1447 71.9819 36.4405 70.9334 36.9648C70.147 37.3581 71.3266 38.5379 71.5887 39.4556C71.8508 40.6354 73.5546 41.5531 72.8993 42.7329C72.375 43.7817 70.9334 44.4372 70.016 45.3548C69.2297 46.1414 67.919 46.5347 67.6569 47.8456C67.919 48.5011 68.1812 48.2389 68.4433 47.8456H67.919ZM61.7592 49.812C61.6281 49.5498 61.4971 49.1566 61.235 48.8944C59.7933 47.1901 59.0069 45.0927 58.0895 43.1263C57.5653 41.9464 56.7789 40.8976 56.2547 39.7178C56.1236 39.4556 55.8615 39.1934 55.4683 39.3245C55.0751 39.4556 55.0751 39.8489 55.2062 40.1111C56.5168 42.7329 57.041 45.617 58.6138 47.9767C59.138 48.8943 59.7933 49.6809 60.8418 50.2053C61.235 50.4675 61.7592 50.5986 61.8903 49.812H61.7592ZM50.2259 38.4069C49.5706 38.8002 49.9638 39.4556 50.0949 39.8489C51.1433 43.3884 52.716 46.6658 55.0751 49.5498C55.5994 50.0742 56.1236 51.2541 56.6479 50.8608C57.5653 50.3364 56.6478 49.2876 56.1236 48.7633C54.0266 45.7481 52.0607 42.6019 50.8812 39.0623C50.8812 38.8002 50.7501 38.4069 50.2259 38.4069Z" fill="#E9DA02"/>
<path d="M86.0052 74.4579C85.3499 76.2932 83.7772 77.2109 82.2045 77.9974C79.4522 79.3084 76.5689 79.9639 73.6856 80.3572C64.5114 81.7992 55.7303 80.3571 47.6046 76.031C43.2796 73.8024 39.741 70.6562 38.5615 65.5435C36.4645 66.7234 35.0228 68.1655 33.8433 70.0008C30.6978 74.4579 28.732 79.5706 28.732 84.9454C28.732 89.6648 31.091 93.7287 34.7607 96.875C39.6099 100.939 45.5077 102.25 51.6675 102.512C59.4001 102.905 66.8705 101.07 74.3409 98.9724C83.6462 96.4817 92.4272 92.8111 100.684 87.6984C102.519 86.5186 104.485 85.4698 106.582 84.6832C104.747 86.7807 102.388 88.485 100.16 90.0581C91.7719 95.8262 82.5976 99.6279 72.8992 102.25C65.8219 104.216 58.6137 105.265 51.4054 105.134C44.4592 105.003 38.1683 102.643 32.7948 98.317C27.1592 93.8598 25.4554 87.8295 27.0281 80.8815C28.4698 74.4579 31.8774 69.2142 36.7266 64.8881C37.1198 64.4948 37.513 64.2326 37.9062 63.9704C39.741 62.6595 40.0031 62.6595 40.3963 65.0192C40.6584 66.4612 40.9205 67.9032 41.7069 69.0831C42.1001 69.6075 42.3622 70.1318 42.7554 70.394C47.0803 72.3604 50.4879 75.7689 55.075 77.342C63.2008 80.0949 71.1955 79.7017 79.1901 76.8176C81.2871 76.031 83.5151 75.5067 85.481 74.3268C85.6121 74.3268 85.8742 73.9336 86.1363 74.3268L86.0052 74.4579Z" fill="#F5F5F1"/>
<path d="M41.837 60.562C47.0794 62.9217 52.3218 64.8881 57.9574 65.6747C60.5786 66.0679 63.1998 65.6747 65.821 65.2814C66.7384 65.1503 67.3937 65.0192 67.0005 66.3301C66.7384 67.2478 67.1316 67.9032 68.0491 68.2965C72.374 70.2629 76.699 70.2629 80.8929 68.2965C82.0725 67.7722 82.9899 66.9856 83.7763 65.9369C84.0384 65.5436 84.3005 64.8881 84.9558 65.5436C85.48 66.0679 86.9217 65.6747 86.6595 67.1167C86.3974 68.2965 86.3975 69.4764 87.0528 70.5251C87.446 71.1806 86.9217 71.4428 86.5285 71.705C85.2179 72.4915 83.9073 73.2781 82.4657 73.8025C76.568 76.0311 70.6702 77.7353 64.3793 77.4731C59.5301 77.2109 54.943 76.0311 50.618 73.6714C49.9627 73.2781 49.3074 72.8848 48.6521 72.6226C43.4097 70.3941 41.706 66.199 41.837 60.6931V60.562ZM63.593 74.3268C63.3309 74.0647 63.0688 73.6714 62.8067 73.2781C61.365 71.8361 59.7923 70.5251 58.2195 69.3453C57.9574 69.0831 57.5642 68.5587 57.171 69.0831C56.7778 69.4764 57.171 69.8696 57.4331 70.1318C58.8748 71.4428 60.1854 72.8848 61.6271 74.1957C62.0203 74.589 62.5445 74.8512 62.9377 74.9823C63.3309 75.1134 63.593 74.9823 63.593 74.3268ZM53.3703 69.8697C52.8461 69.8697 52.584 70.5251 52.9771 70.9184C54.6809 72.7537 56.2536 74.589 58.4816 75.7689C58.8748 75.9 59.3991 76.0311 59.6612 75.7689C59.9233 75.2445 59.5301 74.9823 59.1369 74.8512C57.3021 73.6714 55.8604 72.2293 54.1566 70.7873C53.8945 70.5251 53.6324 70.394 53.3703 70.1318V69.8697Z" fill="#E9DA02"/>
<path d="M43.28 50.2051C46.6876 51.6471 50.2262 52.958 53.8959 53.8757C59.0072 55.0555 64.2497 55.1866 69.4921 54.7934C73.0307 54.5312 76.4383 54.6622 79.9769 53.7446C80.6322 53.6135 81.0254 53.7446 80.6322 54.5312C80.3701 55.0555 80.239 55.5799 80.1079 56.2354C80.1079 56.8909 79.7148 57.022 79.1906 56.8909C76.1762 56.2354 73.817 57.4152 71.589 59.3816C70.8026 60.0371 69.8852 60.8237 69.4921 61.7413C68.5746 63.7077 67.133 63.9699 65.1671 63.9699C63.8565 63.9699 62.4148 64.101 61.1042 64.2321C59.1383 63.7077 57.1724 63.1834 55.0754 62.659C54.027 62.2657 52.9785 62.0035 51.93 61.6102C49.3088 60.6925 46.6876 59.6438 44.4596 57.6774C43.9354 57.153 43.4111 56.6287 43.4111 55.8421C43.28 54.0068 43.0179 52.1715 43.149 50.2051H43.28Z" fill="#9F599C"/>
<path d="M87.7098 39.1935C86.7923 37.7515 86.137 36.1783 84.8264 34.8674C81.681 31.8522 77.7492 31.0657 73.6863 30.4102C69.3613 29.7548 65.0364 30.4102 60.8424 31.459C54.2894 33.0321 49.5713 37.2271 45.7705 42.6019C44.722 44.044 43.9356 45.6171 43.0182 47.1902C42.2318 46.5347 42.1008 45.7482 42.494 44.6994C45.7705 36.4405 51.9303 31.3279 60.4492 29.2304C66.8711 27.5262 73.5552 27.5262 79.9772 29.6237C83.7779 30.8035 86.7923 32.901 88.8893 36.4405C90.0688 38.4069 90.0688 38.6691 87.8408 39.1935H87.7098Z" fill="#F5F5F1"/>
<path d="M90.1987 83.6341C89.4123 80.4878 88.6259 77.4727 89.2812 74.1953C89.5433 73.2777 90.0676 72.8844 90.9851 73.5398C92.4267 74.3264 93.9994 74.7197 95.5722 74.5886C96.0964 74.5886 96.6206 74.5886 96.3585 75.3751C95.5721 77.997 94.3926 80.3567 92.1646 82.5853C92.2956 80.2256 92.5577 78.1281 93.213 76.2928C93.3441 75.8995 93.7373 75.3752 93.213 75.113C92.6888 74.8508 92.4267 75.5063 92.2957 75.8996C90.854 78.3903 90.5919 81.0122 90.0676 83.7652L90.1987 83.6341Z" fill="#79B92F"/>
<path d="M101.34 58.4644C100.947 57.5467 101.078 56.7602 101.602 55.8425C102.388 54.6627 102.257 53.4828 101.471 52.303C100.422 50.861 100.685 49.55 102.257 48.7635C103.044 48.3702 103.83 48.108 104.616 48.3702C104.616 49.2878 105.272 49.8122 105.665 50.3366C106.713 51.9097 106.844 53.6139 105.927 55.3181C104.878 57.0224 103.699 58.7266 101.34 58.3333V58.4644Z" fill="#9F599C"/>
<path d="M70.1465 67.3788C73.554 65.8057 76.5684 63.8392 80.107 62.6594C81.4176 62.2661 82.0729 62.9216 82.7282 63.8392C83.2525 64.6258 82.3351 65.1502 81.9419 65.6745C79.4518 68.1653 73.8161 69.083 70.2775 67.3788H70.1465Z" fill="#79B92F"/>
<path d="M68.7051 66.1987C70.2778 62.1348 74.0785 57.6776 78.7966 58.3331C80.1072 58.4642 80.2383 59.3819 80.3694 60.1685C80.6315 61.3483 79.7141 61.0861 79.1899 61.3483C77.0929 62.0038 75.127 63.0525 73.1611 64.1013C71.8505 64.7567 70.4088 65.4122 68.8361 66.1987H68.7051Z" fill="#79B92F"/>
<path d="M43.2802 50.2053C43.2802 52.0406 43.4113 54.007 43.5423 55.8423C43.5423 56.6288 44.0665 57.1532 44.5908 57.6776C46.6877 59.644 49.309 60.6927 52.0612 61.6104C53.1097 62.0037 54.1581 62.2659 55.2066 62.6592C55.2066 62.7903 55.2066 63.0524 55.2066 63.1835C50.8816 62.5281 46.9498 60.8238 43.018 58.9885C41.8385 58.4641 41.3143 57.5465 41.1832 56.1045C41.1832 54.007 41.0522 51.9095 41.1832 49.812C41.1832 49.4187 41.1832 48.7632 41.5764 48.501C42.1007 48.3699 42.2317 49.0254 42.6249 49.2876C42.887 49.5498 43.0181 49.812 43.2802 50.2053Z" fill="#F5F5F1"/>
<path d="M93.2129 47.9766C94.2614 46.5346 95.4409 45.2236 97.4068 45.2236C99.2417 45.2236 100.028 46.1413 99.6349 47.8455C99.6349 48.501 99.2417 49.0254 99.2417 49.6809C99.2417 50.3363 98.8485 50.5985 98.0621 50.5985C96.7515 50.5985 95.9652 51.2539 95.4409 52.4338C93.344 51.2539 93.0818 50.7296 93.475 48.3699C93.475 48.1077 93.475 47.9766 93.2129 47.8455V47.9766Z" fill="#9F599C"/>
<path d="M112.61 58.9889C112.872 57.2847 112.872 55.7116 112.086 54.1384C111.955 53.7452 112.086 53.483 112.086 53.2208C113.396 51.6476 113.527 49.8123 113.134 47.8459C113.134 47.4526 112.872 46.9283 113.265 46.6661C113.658 46.4039 114.051 46.6661 114.445 47.0594C117.197 49.4191 116.542 56.8914 113.396 58.5956C113.134 58.5956 112.872 58.7267 112.479 58.8578L112.61 58.9889Z" fill="#9F599C"/>
<path d="M89.5446 40.1112C90.0688 39.718 90.5931 39.718 91.1173 39.5869C91.6416 39.5869 92.0348 39.4558 92.2969 40.1112C92.559 40.7667 92.0347 40.8978 91.5105 41.0289C89.0203 42.0777 87.3166 44.044 86.2681 46.5348C86.137 47.0592 85.8749 47.5836 86.0059 48.108C86.2681 49.9433 85.6128 51.5164 84.5643 52.8273C84.5643 52.303 84.3022 51.7786 84.1711 51.2542C82.9916 46.1416 84.1711 43.5197 88.6271 40.7667C88.8893 40.6356 89.2825 40.5045 89.4135 39.9801L89.5446 40.1112Z" fill="#9F599C"/>
<path d="M88.8887 66.854C92.4273 68.1649 95.9659 69.2137 99.7666 68.5582C100.553 68.5582 100.553 68.9515 100.422 69.3448C100.291 70.0003 99.8977 70.6557 99.3735 70.9179C96.8833 71.4423 94.3932 71.8356 91.903 70.6558C90.3303 69.8692 89.0197 68.8204 88.8887 66.854Z" fill="#9F599C"/>
<path d="M88.8876 61.2175C91.3778 63.315 94.2611 64.3638 97.5376 63.9705C98.5861 63.9705 99.2414 63.315 99.8967 62.6596C100.159 62.2663 100.421 62.0041 101.076 62.0041C102.911 62.2663 102.911 62.2663 102.256 64.1016C101.732 64.1016 101.207 64.3638 100.814 64.626C97.1445 66.5924 93.4748 65.9369 90.0672 63.9705C89.0187 63.4461 88.3634 62.3974 88.8876 61.0864V61.2175Z" fill="#9F599C"/>
<path d="M98.9808 57.94C99.505 57.94 99.5051 58.2022 99.5051 58.5955C99.5051 60.4308 97.8013 62.135 95.9664 62.0039C94.3937 61.8728 92.952 61.4795 91.5104 60.693C90.1998 60.0375 89.8066 58.9887 90.5929 57.8089C91.1172 56.8912 91.1172 55.4492 92.6899 55.4492C92.5589 56.498 91.5103 57.4156 92.5588 58.4644C93.6073 59.5131 94.918 59.9064 96.2286 59.5131C97.2771 59.2509 98.1944 58.5955 98.9808 57.8089V57.94Z" fill="#FAC4C7"/>
<path d="M101.34 58.4641C103.699 58.7263 104.878 57.1532 105.927 55.449C106.844 53.7447 106.713 52.0405 105.665 50.4674C105.272 49.8119 104.616 49.2875 104.616 48.501C106.844 49.0254 108.024 50.9918 108.024 53.8758C108.024 56.6288 106.058 59.2507 103.568 60.1683C101.602 60.9549 101.34 60.8238 101.34 58.5952V58.4641Z" fill="#FAC4C7"/>
<path d="M92.2963 42.7328C93.8691 41.9463 95.5728 42.0774 97.1455 42.2085C97.4076 42.2085 97.6698 42.2085 97.6698 42.6017C97.6698 42.995 97.4077 43.1261 97.0145 43.1261C92.9516 44.0438 90.8546 46.7967 89.8062 50.4674C88.4956 47.4522 88.7577 46.0102 91.1168 43.6505C91.5099 43.2572 91.7721 42.864 92.1652 42.4707L92.2963 42.7328Z" fill="#9F599C"/>
<path d="M88.8877 61.2168C88.2324 62.5278 88.8877 63.5765 90.0673 64.1009C93.4748 65.9362 97.1445 66.5917 100.814 64.7564C101.338 64.4942 101.732 64.232 102.256 64.232C101.863 66.1984 100.421 67.2472 98.7172 67.2472C95.1786 67.2472 91.64 66.8539 88.4945 64.7564C87.315 63.9698 87.1839 62.5278 87.9702 61.479C88.2324 61.0858 88.4945 61.0858 88.8877 61.479V61.2168Z" fill="#CEC8C8"/>
<path d="M98.324 37.6205C99.8967 37.6205 101.6 37.3584 102.911 38.5382C103.435 38.9315 104.222 39.5869 103.829 40.3735C103.566 41.029 102.78 40.6357 102.256 40.6357C101.207 40.6357 100.028 40.3735 99.1103 41.029C98.8482 41.2912 98.4551 41.2912 98.1929 41.029C97.1445 40.3735 95.8338 40.6357 94.6543 40.5046C95.5717 39.1937 97.0134 38.6693 98.1929 37.6205H98.324Z" fill="#9F599C"/>
<path d="M88.8894 66.8544C88.8894 68.8208 90.331 69.8696 91.9037 70.6561C94.3939 71.836 96.884 71.5738 99.3742 70.9183C97.9325 72.7536 96.0977 73.1469 93.8696 72.7536C92.0348 72.3603 90.5932 71.5738 89.0205 70.525C87.8409 69.7385 87.4477 68.5586 87.5788 67.1166C87.5788 65.9367 88.103 65.8057 88.8894 66.7233V66.8544Z" fill="#CEC8C8"/>
<path d="M106.844 42.733C106.582 42.4708 106.057 42.2087 106.319 41.8154C106.451 41.4221 106.975 41.5532 107.368 41.5532C108.154 41.5532 108.679 41.8154 109.203 42.3398C111.562 44.8305 111.955 47.8457 111.693 51.123C111.693 51.7785 111.431 52.434 110.907 52.6962C110.513 52.8273 109.858 52.6962 109.858 51.9096C111.431 49.0255 110.251 44.5684 107.368 43.1263C107.368 42.8641 107.368 42.8641 107.106 42.8641L106.844 42.733Z" fill="#FAC4C7"/>
<path d="M102.65 67.1161C103.044 65.9362 103.699 65.674 105.009 65.674C106.975 65.674 108.286 64.232 109.859 63.3144C110.252 63.0522 110.645 62.0034 111.3 62.6589C111.825 63.1833 111.956 64.1009 111.3 64.7564C111.3 64.1009 110.907 64.232 110.645 64.6253C109.99 65.2808 109.335 65.9362 108.679 66.5917C106.844 68.1648 104.354 68.427 102.913 67.2472L102.65 67.1161Z" fill="#9F599C"/>
<path d="M98.979 57.9402C98.1926 58.5957 97.2752 59.3823 96.2267 59.6444C94.7851 59.9066 93.6055 59.6445 92.557 58.5957C91.5085 57.547 92.557 56.6293 92.6881 55.5806C93.3434 55.5806 93.9987 55.8427 94.654 55.9738C95.0472 55.9738 95.4404 55.9738 95.5714 56.3671C96.2267 57.9402 97.5373 58.0713 98.979 58.0713V57.9402Z" fill="#9F599C"/>
<path d="M82.5977 54.5312C83.6461 54.7934 84.1704 55.3178 84.1704 56.6288C84.1704 57.5464 84.5635 58.5952 85.3499 59.1195C87.0537 60.1683 86.9226 61.3481 86.0052 62.6591C84.0393 61.8725 82.9908 60.1683 82.7287 58.2019C82.5976 57.0221 82.7287 55.8422 82.7287 54.6624L82.5977 54.5312Z" fill="#9F599C"/>
<path d="M102.649 67.1166C104.091 68.2964 106.581 68.0342 108.416 66.4611C109.071 65.8056 109.726 65.1502 110.382 64.4947C110.775 64.1014 111.037 64.1014 111.037 64.6258C109.726 68.5586 106.45 69.3452 103.042 69.3452C102.387 69.3452 101.863 69.083 101.732 68.4275C101.601 67.6409 101.732 67.2476 102.518 66.9855L102.649 67.1166Z" fill="#CEC8C8"/>
<path d="M104.354 62.5282C104.223 61.8728 104.354 61.3484 105.009 60.9551C107.237 59.6441 108.679 57.8088 109.203 55.3181C109.203 55.0559 109.334 54.6626 109.727 54.6626C110.514 54.7937 110.776 55.4492 110.776 56.2357C110.12 56.8912 109.858 57.94 109.334 58.8576C108.154 60.824 106.844 62.6593 104.223 62.6593L104.354 62.5282Z" fill="#9F599C"/>
<path d="M107.105 42.9951C109.989 44.4371 111.299 48.8943 109.596 51.7784C108.023 49.0254 107.499 46.0103 107.105 42.9951Z" fill="#9F599C"/>
<path d="M89.5444 40.1108C89.5444 40.5041 89.1512 40.6352 88.758 40.8974C84.302 43.6504 83.1224 46.2723 84.302 51.3849C84.302 51.9093 84.5641 52.4337 84.6951 52.958C84.6951 53.4824 84.4331 54.1379 83.7778 53.3513C83.5156 53.0891 83.3846 52.8269 83.2535 52.5647C81.6808 48.2386 84.1709 42.3395 88.4959 40.5041C88.8891 40.3731 89.1512 40.2419 89.5444 40.2419V40.1108Z" fill="#CEC8C8"/>
<path d="M105.27 46.5347C105.008 46.5347 104.615 46.5347 104.353 46.5347C102.911 46.5347 101.338 47.1902 101.076 44.8305C101.076 44.4372 100.421 44.0439 99.8968 43.7817C99.6346 43.6507 99.1103 43.3885 99.7656 42.9952C101.732 42.3397 103.304 42.9952 104.484 44.6994C104.877 45.2238 105.008 45.8792 105.27 46.5347Z" fill="#9F599C"/>
<path d="M92.2957 42.7329C91.9025 43.1262 91.6403 43.5195 91.2472 43.9127C88.8881 46.2724 88.6259 47.7145 89.9365 50.7296C89.9365 51.1229 90.0676 51.7784 89.2812 51.3851C88.1017 50.8607 87.7085 49.9431 87.5775 48.7632C87.4464 46.2724 89.8056 43.2573 92.2957 42.7329Z" fill="#FAC4C7"/>
<path d="M88.6256 58.2016C88.6256 58.5949 88.6256 59.2504 87.8392 58.8571C86.7908 58.3327 85.8734 57.6772 85.7423 56.3663C85.4802 54.7932 85.6112 53.22 86.5286 51.9091C86.9218 51.3847 87.184 51.9091 87.4461 52.3024C86.9218 54.3999 88.1013 56.2352 88.6256 58.2016Z" fill="#CEC8C8"/>
<path d="M88.6266 58.2019C88.1024 56.2355 86.7918 54.5313 87.4471 52.3027C88.2335 52.696 88.8888 52.9582 89.8062 53.2204C90.9857 53.4826 91.2478 54.4002 90.4615 55.3179C89.6751 56.2355 89.1509 57.1532 88.7577 58.2019H88.6266Z" fill="#9F599C"/>
<path d="M82.5978 54.5312C82.5978 55.711 82.4668 56.8909 82.5978 58.0707C82.8599 60.0371 83.9084 61.7413 85.8743 62.5279C85.8743 63.7077 85.7432 64.101 84.6948 63.1834C81.9425 61.0859 80.894 57.9396 81.9425 54.9245C81.9425 54.6623 81.9425 54.0068 82.5978 54.5312Z" fill="#CEC8C8"/>
<path d="M104.352 62.5281C106.974 62.5281 108.284 60.6928 109.464 58.7264C109.988 57.9398 110.119 56.8911 110.905 56.1045C111.43 58.0709 110.512 59.5129 109.464 60.8239C108.415 62.0037 106.974 62.6592 105.663 63.4457C105.27 63.7079 104.746 63.839 104.352 63.4457C103.959 63.1836 104.352 62.6592 104.352 62.2659V62.5281Z" fill="#CEC8C8"/>
<path d="M93.2139 47.9766C93.345 48.1077 93.476 48.2387 93.476 48.5009C93.0829 50.8606 93.476 51.385 95.4419 52.5648C95.8351 53.3514 95.7041 53.7447 94.6556 53.7447C92.5586 53.7447 91.3791 52.4337 91.9033 50.4673C92.1654 49.5497 92.2965 48.632 93.2139 48.1077V47.9766Z" fill="#FAC4C7"/>
<path d="M105.27 46.535C105.008 45.8796 104.746 45.2241 104.484 44.6997C103.435 42.9955 101.732 42.4711 99.7656 42.9955C101.207 41.5535 102.78 42.34 104.222 42.8644C105.532 43.3888 106.188 44.5686 106.188 46.0107C106.188 46.9283 105.794 46.7972 105.27 46.404V46.535Z" fill="#CEC8C8"/>
<path d="M98.3256 37.6201C97.146 38.5378 95.7043 39.1933 94.7869 40.5042C94.3937 40.5042 94.1317 40.6353 93.6074 40.5042C94.918 39.0622 96.2286 37.7512 98.3256 37.7512V37.6201Z" fill="#CEC8C8"/>
<path d="M55.2051 63.0527C55.2051 62.9216 55.2051 62.6594 55.2051 62.5283C57.171 63.0527 59.268 63.5771 61.2339 64.1015C59.1369 64.3636 57.171 63.7082 55.2051 63.0527Z" fill="#CEC8C8"/>
<path d="M98.3254 53.7448C98.7186 53.7448 99.3739 53.8759 99.3739 54.4003C99.3739 55.0558 98.8496 55.1869 98.3254 55.318C97.6701 55.318 97.5391 54.9247 97.5391 54.4003C97.5391 53.8759 97.8012 53.6137 98.3254 53.7448Z" fill="#E9DA02"/>
<path d="M106.844 42.7329C107.106 42.7329 107.106 42.7329 107.106 42.9951C106.844 42.9951 106.844 42.864 106.844 42.7329Z" fill="#9F599C"/>
<path d="M86.3988 73.9336C86.3988 74.1958 86.3987 74.3269 86.0056 74.458C85.8745 74.0647 86.1367 74.0647 86.3988 73.9336Z" fill="#F5F5F1"/>
<path d="M67.1336 47.7144C67.3958 46.4035 68.7064 46.0102 69.4927 45.2236C70.4101 44.306 71.8518 43.6505 72.3761 42.6018C72.9003 41.4219 71.3276 40.5043 71.0655 39.3244C70.8033 38.4068 69.6238 37.358 70.4102 36.8336C71.4586 36.3093 71.7207 38.0135 72.2449 38.669C72.5071 39.0622 72.7692 39.4555 73.0314 39.8488C73.9488 41.0287 75.1283 40.8976 75.9147 39.5866C76.1768 38.9312 75.6525 38.8001 75.3904 38.4068C74.9972 37.6202 73.4245 36.8336 74.342 36.0471C74.8662 35.5227 75.5214 37.0959 76.1768 37.7513C76.701 38.1446 76.9631 38.8001 77.7495 38.5379C78.0116 38.5379 78.4048 38.669 78.2738 38.9312C77.6185 40.7665 79.3222 41.6841 79.7154 43.1262C79.8464 43.6505 80.2396 44.1749 79.7154 44.5682C79.0601 44.8304 78.798 44.1749 78.5359 43.7816C78.1427 43.1262 77.8806 42.3396 77.3563 41.6841C77.0942 41.2908 76.8321 40.3732 76.1768 41.1598C75.6525 41.6841 74.473 41.9463 75.3904 43.1262C76.0457 43.9127 76.5699 44.6993 77.0942 45.4858C77.3563 45.8791 77.7495 46.4035 77.0942 46.9279C76.701 47.3212 76.1768 47.059 75.7836 46.6657C75.2593 46.0102 74.7351 46.4035 74.342 46.6657C73.4245 47.3211 72.5071 48.1077 71.5896 48.7632C71.1965 49.0254 70.8033 49.6808 70.4102 49.1564C69.8859 48.6321 70.5412 48.2388 70.9343 47.8455C71.8518 47.0589 72.7692 46.2724 73.6867 45.4858C74.342 44.9615 74.2109 44.6993 73.8177 44.0438C73.2934 43.3883 72.9003 43.6505 72.3761 44.0438C70.8033 45.3547 69.0996 46.5346 67.3958 47.7144C67.1337 47.7144 66.8715 47.7144 66.6094 47.7144H67.1336Z" fill="#12100D"/>
<path d="M61.7585 49.812C61.7585 50.5986 61.1032 50.4675 60.71 50.2053C59.7926 49.681 59.1373 48.8944 58.482 47.9767C56.9093 45.486 56.3851 42.6019 55.0745 40.1111C54.9434 39.8489 54.9434 39.4556 55.3366 39.3245C55.7298 39.1935 55.9919 39.3246 56.1229 39.7179C56.7782 40.8977 57.4336 41.9465 57.9578 43.1263C59.0063 45.0927 59.7926 47.1902 61.1032 48.8944C61.3653 49.1566 61.4964 49.5499 61.6275 49.812H61.7585Z" fill="#12100D"/>
<path d="M50.2257 38.4067C50.75 38.4067 50.75 38.8 50.881 39.0622C52.0606 42.6017 54.0265 45.748 56.1234 48.7631C56.5166 49.4186 57.4341 50.3363 56.6477 50.8606C55.9924 51.2539 55.4681 50.0741 55.075 49.5497C52.7159 46.6656 51.1432 43.3883 50.0947 39.8488C49.9636 39.3244 49.7015 38.8 50.2257 38.4067Z" fill="#12100D"/>
<path d="M67.1328 47.7148C67.3949 47.7148 67.657 47.7148 67.9191 47.7148C67.657 48.1081 67.3949 48.3703 67.1328 47.7148Z" fill="#141111"/>
<path d="M63.5942 74.3265C63.5942 74.982 63.3321 75.1131 62.9389 74.982C62.4146 74.7198 62.0215 74.5887 61.6283 74.1954C60.1866 72.8845 58.876 71.5735 57.4343 70.1315C57.1722 69.8693 56.779 69.476 57.1722 69.0828C57.5654 68.5584 57.9586 69.0828 58.2207 69.345C59.9245 70.5248 61.3662 71.8357 62.8078 73.2778C63.07 73.6711 63.3321 74.0643 63.5942 74.3265Z" fill="#12100D"/>
<path d="M53.3705 69.8691C53.6326 70.0002 53.8947 70.2624 54.1568 70.5246C55.7295 71.9666 57.3022 73.4087 59.1371 74.5885C59.5303 74.8507 59.9235 75.1129 59.6614 75.5061C59.3992 75.8994 58.875 75.7683 58.4818 75.5061C56.2538 74.3263 54.6811 72.491 52.9773 70.6557C52.5841 70.2624 52.9773 69.738 53.3705 69.6069V69.8691Z" fill="#12100D"/>
</svg>
