<svg width="139" height="140" viewBox="0 0 139 140" fill="none" xmlns="http://www.w3.org/2000/svg">
<circle cx="69.0011" cy="69.0001" r="66.0714" fill="#B9E199" stroke="black" stroke-width="5"/>
<path d="M60.3374 46.9005C55.4896 46.9005 51.4497 46.0923 47.4099 44.9609C43.6932 43.8294 40.4614 41.5665 38.0375 38.4955C37.2295 37.5257 36.7447 37.5257 35.7751 38.4955C33.1896 41.0816 30.4426 43.0213 26.5644 43.5062C23.1709 43.8294 19.4542 41.8898 18.1615 38.8187C17.8383 37.8489 17.5151 37.0408 18.1615 36.071C18.6463 35.1011 18.4847 34.4546 17.6767 33.6464C14.2832 30.4137 14.4448 25.403 18.6462 23.4634C19.6158 22.9785 19.2926 22.4936 19.131 21.6854C18.1614 17.8062 18.4846 14.2502 21.2317 11.1792C22.5244 9.56282 24.4636 8.59301 25.5947 6.81502C26.7259 5.36031 28.5035 5.52194 30.281 6.00685C33.1897 6.97666 35.2904 9.07791 37.068 11.5024C47.2484 2.28923 59.691 -0.296937 72.7801 0.0263334C86.8388 0.349603 99.1199 5.68356 109.785 14.5735C125.298 27.3427 134.671 43.6678 138.226 63.3873C139.357 70.0143 138.872 76.803 137.902 83.43C136.933 90.542 135.317 97.6539 132.408 104.281C129.661 110.423 126.106 115.919 120.289 119.475C119.642 119.96 119.804 120.121 120.127 120.606C122.551 124.647 122.874 129.011 121.581 133.375C120.773 135.961 118.996 137.739 116.734 138.871C113.825 140.164 111.401 139.517 109.139 136.931C108.331 135.961 107.846 135.638 106.553 136.123C102.837 137.416 99.7663 135.961 98.1504 132.405C97.8272 131.436 97.3423 131.112 96.3728 131.436C92.3329 132.89 87.9699 129.011 89.7475 124C91.0402 120.121 93.6257 117.05 96.696 114.464C97.5039 113.817 97.6655 113.494 96.696 112.686C92.9793 108.645 91.0403 104.119 91.2018 98.4621C91.2018 93.613 91.8481 88.764 93.1409 84.0765C93.1409 83.5916 93.141 83.2684 93.3025 82.6218C92.1714 82.9451 91.6866 83.7533 91.0402 84.3998C84.2533 91.1885 76.012 94.0979 66.4779 94.0979C66.1547 94.0979 65.8316 94.0979 65.5084 94.0979C62.9229 92.9665 61.4686 94.5828 59.8526 96.3608C55.6512 101.048 51.1266 105.574 46.9251 110.261C42.8853 114.626 39.1687 119.475 36.7447 124.97C34.4824 129.981 30.4425 133.052 25.2715 134.507C18.323 136.446 8.30422 130.951 11.0513 119.96C12.3441 114.787 15.5759 110.908 19.939 108.16C24.6252 105.251 29.3114 102.18 33.1897 98.3004C38.5223 92.8048 44.0164 87.6325 48.2179 81.1671C48.7026 80.359 49.0259 79.5508 48.8643 78.581C48.0563 72.4388 48.7026 66.4583 51.4497 60.6395C53.8736 55.9521 56.136 51.2647 60.499 47.2238L60.3374 46.9005ZM136.933 70.6609C136.933 68.398 136.933 65.9734 136.61 63.7106C136.61 62.5791 136.286 61.4477 136.125 60.3162C131.439 40.7584 121.42 24.5949 104.937 12.7955C89.4243 1.80433 72.457 -1.26674 54.0353 3.74394C48.3795 5.19866 43.0469 7.62319 38.6839 11.9873C36.9064 13.7653 36.7447 13.6037 35.2904 11.6641C33.836 9.72446 32.2201 8.26973 29.7962 7.46155C28.3419 6.97665 26.7259 6.81502 25.918 8.43137C25.2716 9.88609 24.1404 10.6943 22.8476 11.5024C22.0397 11.9873 21.5549 12.7955 21.0701 13.6037C19.7774 15.8666 19.6158 18.2911 20.1006 20.7156C20.4238 22.4936 20.4238 23.7867 18.4847 24.9181C16.2224 26.3729 15.7375 28.4741 17.0303 31.0603C17.5151 32.0301 18.1615 32.8383 18.9694 33.4848C19.4542 33.9697 19.7774 34.6162 19.6158 35.4244C18.8078 39.3037 21.5549 42.3747 25.4332 42.3747C29.1498 42.3747 32.0586 40.4351 34.6441 38.0106C36.9064 35.9093 37.0679 35.9093 39.007 38.1722C44.986 44.6376 52.5809 46.0923 60.9838 45.4458C61.4686 45.4458 62.1149 45.1225 62.4381 45.6074C62.7613 46.254 62.115 46.5772 61.7918 47.0621C53.7121 56.1137 48.8643 66.2967 50.4802 78.7426C50.4802 79.7124 50.4802 80.6822 49.8338 81.3288C47.7331 83.1067 46.4403 85.5313 44.6628 87.4709C37.2295 95.391 30.4426 103.796 20.7469 109.292C16.3839 111.716 13.4753 115.757 12.5057 120.768C11.6977 124.485 12.1825 128.203 15.4144 130.789C18.6462 133.375 22.3629 134.183 26.2412 132.567C30.4426 130.951 33.6744 128.203 35.6136 124.162C37.3911 120.606 39.4918 117.373 42.0773 114.302C48.0563 107.19 55.0048 100.887 61.1454 93.9363C61.9533 92.9665 62.9229 92.8048 64.054 92.9665C72.1337 93.4514 79.567 91.9967 86.1924 87.1476C88.9395 85.208 91.525 82.9451 93.7873 80.359C94.1105 79.8741 94.5953 79.2275 95.4032 79.5508C96.0496 79.8741 95.5648 80.5206 95.4032 81.1671C94.2721 85.3696 93.4641 89.5722 93.1409 93.9363C92.8177 100.402 93.3025 106.382 97.9887 111.554C100.089 113.817 99.9278 114.302 97.5039 116.404C95.08 118.666 92.8178 121.253 91.6866 124.485C90.3939 128.365 92.8177 131.112 96.696 130.143C98.7967 129.496 99.2815 130.304 99.9278 131.921C100.897 134.83 103.806 136.123 106.715 134.83C108.654 134.022 109.623 134.507 110.755 135.961C113.017 138.871 115.602 138.871 118.35 136.285C120.127 134.668 120.612 132.567 120.935 130.143C121.258 126.587 119.804 123.515 119.158 120.121C118.996 119.313 119.158 118.99 119.642 118.505C125.298 114.949 128.853 109.615 131.277 103.796C135.64 93.2898 137.256 82.2986 137.418 70.9841L136.933 70.6609Z" fill="#141111"/>
<path d="M136.935 70.6606C136.612 81.9751 135.157 92.9662 130.794 103.473C128.209 109.453 124.815 114.787 119.159 118.181C118.513 118.666 118.513 118.99 118.675 119.798C119.483 123.03 120.937 126.263 120.452 129.819C120.129 132.082 119.644 134.183 117.867 135.961C115.12 138.547 112.534 138.547 110.272 135.638C109.141 134.183 108.171 133.537 106.232 134.506C103.485 135.8 100.576 134.506 99.445 131.597C98.7986 129.981 98.3138 129.173 96.2131 129.819C92.3348 130.951 89.911 128.041 91.2037 124.162C92.3349 120.929 94.5971 118.343 97.021 116.08C99.445 113.817 99.6065 113.494 97.5058 111.231C92.9812 106.22 92.3348 100.078 92.658 93.6128C92.9812 89.2487 93.7892 85.0461 94.9203 80.8436C94.9203 80.3587 95.5667 79.7122 94.9203 79.2273C94.1124 78.7424 93.7892 79.5505 93.3044 80.0354C91.0421 82.6216 88.4566 84.8845 85.7095 86.8241C79.0841 91.6732 71.6508 93.1279 63.5711 92.643C62.44 92.643 61.4704 92.643 60.6625 93.6128C54.5219 100.725 47.735 106.867 41.5944 113.979C39.0089 117.05 36.9082 120.283 35.1307 123.839C33.1916 127.879 29.9597 130.627 25.7583 132.244C21.7184 133.698 18.1633 133.052 14.9315 130.466C11.6996 127.879 11.2148 124.162 12.0228 120.444C13.154 115.434 16.0626 111.393 20.264 108.968C29.9597 103.473 36.7466 95.0675 44.1799 87.1474C45.9574 85.2078 47.4118 82.7833 49.3509 81.0053C50.1589 80.3587 50.1589 79.3889 49.9973 78.4191C48.3814 65.9732 53.2292 55.7902 61.3089 46.7386C61.6321 46.2537 62.44 45.9305 61.9552 45.2839C61.632 44.799 60.9857 44.9607 60.5009 45.1223C52.098 45.7688 44.5031 44.3141 38.5241 37.8487C36.4234 35.5858 36.2618 35.5858 34.1611 37.6871C31.5756 40.1116 28.8285 42.0512 24.9503 42.0512C20.9105 42.0512 18.3249 38.9802 19.1329 35.1009C19.1329 34.2927 19.1329 33.6462 18.4866 33.1613C17.6786 32.5147 17.0322 31.7066 16.5474 30.7368C15.4162 28.3122 15.7394 26.0494 18.0017 24.5946C19.7792 23.4632 19.9408 22.1701 19.6176 20.3921C19.1328 17.9676 19.2945 15.5431 20.5872 13.2802C21.072 12.472 21.5568 11.6638 22.3647 11.1789C23.6575 10.3708 24.6271 9.56257 25.4351 8.10785C26.243 6.4915 27.8589 6.65315 29.3132 7.13806C31.5756 7.7846 33.3531 9.40093 34.8075 11.3406C36.2618 13.2802 36.4234 13.4418 38.2009 11.6638C42.5639 7.2997 47.8965 5.0368 53.5523 3.42045C71.974 -1.4286 88.9413 1.48084 104.454 12.472C120.937 24.2714 130.956 40.4349 135.642 59.9927C135.965 61.1242 136.127 62.2556 136.127 63.3871C136.45 65.6499 136.612 68.0745 136.45 70.3373L136.935 70.6606ZM98.9602 64.1952C99.7682 63.7103 99.7682 62.4172 100.899 62.4172C100.899 62.7405 100.899 62.9021 100.899 63.0638C103.97 67.9128 104.616 73.0851 103.97 78.5807C103.485 83.1065 102.192 87.309 101.061 91.6732C99.1218 99.4317 98.9602 106.705 105.101 112.847C106.07 113.817 106.232 114.949 104.616 115.757C103.162 116.565 101.707 117.535 100.414 118.343C99.4449 118.99 97.9906 119.313 97.9906 120.606C97.9906 122.061 99.6066 122.222 100.576 122.869C100.576 122.869 100.738 122.869 100.899 122.869C102.838 123.354 103.808 124.485 103.646 126.586C103.646 128.041 104.293 128.688 105.585 128.041C107.525 127.233 109.302 127.395 111.08 128.364C113.18 129.496 115.281 127.879 115.281 125.455C115.281 124.485 115.281 123.677 115.281 122.707C115.281 122.384 115.281 122.222 114.958 122.061C114.15 120.606 113.504 119.151 112.211 118.343C112.211 117.858 111.888 117.696 111.564 117.373C110.757 116.242 111.08 114.787 112.534 114.625C116.574 113.817 119.159 111.231 121.422 107.998C126.431 101.21 128.693 93.2895 129.986 85.0461C132.572 68.8826 130.794 53.5273 122.23 39.1418C115.281 27.6657 106.555 17.9676 94.1124 12.3104C81.8313 6.65315 68.9037 4.22862 55.4914 6.65315C48.2197 7.94623 41.2712 10.3708 38.0393 17.9676C37.5546 18.9374 37.2314 18.6141 36.7466 17.9676C35.7771 16.6745 34.6458 15.7047 33.3531 14.8965C30.7676 13.1186 29.6365 13.2802 28.0205 16.028C27.5357 16.8362 27.051 17.6443 26.5662 18.6141C25.5967 20.5538 24.9503 22.4934 26.5662 24.433C27.051 25.0795 26.5662 25.4028 26.243 25.8877C23.1727 27.8273 23.3343 29.4437 25.4351 32.9997C26.243 34.2927 27.2126 34.4544 28.6669 33.9695C31.5756 32.9996 33.1916 30.4135 35.4539 28.6355C36.585 27.6657 37.0698 27.3424 37.5546 29.1204C39.1705 34.616 42.8872 38.0104 48.3814 39.4651C53.0676 40.7581 57.9154 41.5663 62.7632 42.2129C65.995 42.5361 69.2269 42.6978 72.782 43.5059C71.8124 44.3141 71.1661 44.799 70.6813 45.4456C65.9951 50.133 61.7936 55.1437 58.5618 60.9625C55.6531 66.2965 53.7139 71.9537 55.1682 77.7726C56.1378 81.1669 55.653 83.1065 53.0675 85.0461C52.4212 85.531 51.9364 86.1776 51.4516 86.6625C45.1495 93.1279 39.1705 100.078 32.5451 106.22C28.8285 109.615 25.1118 113.009 19.9408 114.302C18.8097 114.625 18.0017 115.434 17.3554 116.565C16.0626 118.828 15.901 121.252 17.3554 123.515C18.9713 125.94 21.2336 127.233 24.3039 127.071C27.2126 126.748 29.7981 124.97 29.9597 122.869C30.1213 120.444 31.2524 118.666 32.8683 116.888C41.756 106.544 51.6132 97.1688 61.1472 87.4707C61.632 86.9858 61.9552 86.8241 62.6016 87.1474C66.803 89.087 70.6812 88.1172 74.5595 86.1776C79.7305 83.5914 83.932 79.8738 88.1334 75.9946C91.0421 73.2468 93.1428 69.8525 95.8899 66.943C96.0515 66.6198 96.3747 66.4581 96.5363 66.1348C97.0211 65.4883 97.5058 64.8418 98.1522 64.1952H98.9602Z" fill="#FAFAFA"/>
<path d="M115.603 123.354C115.603 124.324 115.603 125.132 115.603 126.102C115.603 128.527 113.502 129.981 111.402 129.012C109.463 128.042 107.847 127.88 105.907 128.688C104.453 129.335 103.807 128.688 103.968 127.234C104.13 125.132 103.16 124.001 101.221 123.516H100.898C99.9285 122.869 98.3125 122.869 98.3125 121.253C98.3125 119.798 99.7669 119.637 100.736 118.99C102.191 118.02 103.484 117.212 104.938 116.404C106.554 115.596 106.392 114.464 105.423 113.495C99.2821 107.352 99.4437 99.9172 101.383 92.3204C102.514 87.9562 103.807 83.7537 104.292 79.2279C104.938 73.7323 104.291 68.3984 101.221 63.711C101.221 63.5493 101.221 63.226 101.221 63.0644C100.898 62.7411 100.736 62.5795 100.413 62.2562C100.736 61.7713 101.06 61.2864 101.544 61.1248C101.544 61.6097 101.706 62.2563 102.029 62.5795C104.776 65.489 105.746 69.2066 106.069 73.0858C106.554 79.3896 105.584 85.37 103.645 91.3505C101.868 96.8461 101.544 102.18 103.484 107.676C104.938 111.878 107.685 113.656 112.048 113.495C113.987 113.656 115.441 112.848 116.734 111.717C118.835 110.1 120.451 107.837 121.905 105.413C122.767 104.012 122.498 102.881 121.097 102.018C119.805 100.725 118.189 100.079 116.734 99.2707C116.249 98.9474 115.28 98.9474 115.603 97.9776C115.926 97.1694 116.573 97.8159 117.057 97.9776C118.835 98.3009 120.612 98.7858 122.552 99.109C123.36 99.109 124.329 100.079 124.814 99.4323C125.622 98.3008 126.107 97.0078 126.107 95.7147C126.107 94.9065 124.814 94.4216 123.844 94.0984C121.905 92.6436 119.643 91.9971 117.381 91.3505C117.057 91.3505 116.411 91.0273 116.411 90.5424C116.411 89.8958 117.057 90.0575 117.381 89.8958C119.966 89.5726 122.552 89.0877 125.137 88.7644C128.046 88.7644 128.046 88.7644 128.531 86.0166C128.854 84.2386 129.015 82.299 129.339 80.521C129.339 80.1977 129.339 79.8745 129.339 79.5512C129.339 77.9348 129.662 76.4801 129.823 74.8638C130.146 74.7021 130.308 74.3789 129.823 74.0556C130.146 71.3078 129.985 68.3984 129.823 65.6506C129.662 62.5795 129.5 62.4179 126.268 63.2261C123.844 63.2261 121.582 63.711 119.32 64.3575C118.997 64.3575 118.35 64.6808 118.189 64.1959C118.027 63.711 118.512 63.3877 118.835 63.2261C120.936 61.7713 123.198 60.6399 125.622 59.6701C128.692 58.7003 128.692 58.7003 127.884 55.7908C127.399 54.1745 126.915 52.5581 126.268 51.1034C124.975 47.7091 124.976 47.7091 121.582 48.8405C118.189 49.3254 115.118 50.9418 112.048 52.2349C111.563 52.3965 110.755 53.2047 110.27 52.3965C109.624 51.5883 110.594 51.1034 110.917 50.6185C113.179 47.8707 116.088 45.7695 118.996 43.8298C119.481 43.6682 119.966 43.3449 120.451 43.1833C121.744 42.6984 122.228 42.0519 121.259 40.7588C120.128 39.1424 119.158 37.5261 118.027 35.9097C116.249 33.4852 116.249 33.4852 113.502 35.1016C109.947 36.7179 107.039 39.3041 103.968 41.567C103.484 41.8902 102.999 42.86 102.352 42.0518C101.868 41.5669 102.514 41.082 102.837 40.5971C105.099 37.3644 107.523 34.2934 110.109 31.384C110.432 31.0607 110.755 30.5758 111.24 30.4141C112.371 29.606 112.533 28.9594 111.24 27.9896C109.947 26.8582 108.655 25.4034 107.362 24.272C104.615 21.6858 104.615 21.6859 101.544 24.1104C101.544 24.1104 101.544 24.272 101.383 24.4336C100.575 24.7569 100.09 25.2418 99.6052 25.8883C97.0197 28.3129 95.0807 31.2223 92.9799 33.9701C92.4952 34.455 92.0104 35.5865 91.2025 35.1016C90.3945 34.6167 91.2025 33.6468 91.2025 33.0003C92.6568 28.9594 94.919 25.4035 97.5045 22.0091C98.6357 21.2009 99.6053 20.3928 100.898 19.4229C99.1205 18.4531 98.1509 17.8066 97.0198 17.1601C95.727 16.5135 94.2727 15.7053 92.8184 15.0588C89.1017 13.4425 88.9401 13.4425 86.3546 16.6752C86.3546 16.6752 86.3546 16.6752 86.3546 16.8368C83.9307 19.423 82.4764 22.494 80.8604 25.5651C80.0524 27.1814 79.406 28.6362 78.5981 30.2525C78.4365 30.7374 78.1133 31.0607 77.6285 30.899C77.1438 30.7374 77.1437 30.2525 77.3053 29.7676C77.3053 29.2827 77.4669 28.6361 77.6285 27.9896C78.4365 23.6255 79.8908 19.2613 81.8299 15.2204C82.4763 14.089 83.2843 12.9575 84.0923 11.8261C79.2445 10.533 74.3967 9.56321 69.3873 9.40158C69.0641 8.91667 68.7409 8.91669 68.2561 9.23996C67.125 9.23996 65.9938 9.23996 64.8626 9.23996C64.3778 9.23996 63.8931 9.07831 63.5699 9.40158C59.53 9.56321 55.4902 10.0481 51.612 11.5028C47.4106 12.9576 43.3707 14.8972 41.27 19.2613C40.462 20.8777 39.6541 22.494 39.4925 24.272C39.1693 25.2418 39.1692 26.2116 39.3308 27.1814C40.462 34.455 43.8555 38.1726 50.9656 39.789C57.7525 41.4053 64.701 42.5368 71.6496 43.3449C73.2655 43.5066 74.8815 44.1531 75.8511 42.2135C75.8511 42.2135 76.0126 42.0519 76.1742 41.8902C76.1742 41.8902 76.3358 41.7286 76.3358 41.567C76.3358 41.4053 76.0126 41.567 75.8511 41.567C75.8511 41.567 75.5278 41.567 75.3662 41.567C74.8814 40.5972 75.6894 40.2739 76.3358 40.1122C78.4365 39.3041 82.3148 40.1122 83.9307 42.2135C84.5771 42.86 85.5467 43.9915 84.4155 44.638C83.1227 45.6078 83.4459 43.5066 82.6379 43.3449C81.9915 43.6682 81.6684 44.3147 81.1836 44.9613C80.0525 45.7695 80.0525 46.416 81.5068 47.0625C82.9612 47.7091 84.4155 48.5173 85.7082 49.4871C87.001 50.4569 87.4858 50.1336 87.9706 48.8405C88.1322 48.8405 88.4553 48.5173 88.2937 48.3556C88.1321 48.0324 87.9706 48.194 87.6474 48.3556C87.6474 48.0324 87.4858 48.0324 87.1626 48.0324C87.1626 47.7091 87.1626 47.3858 87.6474 47.2242C90.2329 46.2544 94.5959 48.6789 94.9191 51.4267C94.9191 52.3965 94.7575 52.7198 93.7879 52.7198C93.6263 52.0732 93.3031 52.0732 92.9799 52.7198C92.4952 53.043 91.8488 53.3663 91.8488 54.0129C91.8488 54.0129 91.6872 54.1745 91.5256 54.3361C90.2328 54.9827 89.4249 56.2757 88.4553 57.2456C83.2843 62.5795 78.1133 68.0751 73.7503 74.2172C72.7807 75.672 71.8111 77.1267 71.6496 78.9046C71.488 80.8443 72.2959 81.6524 74.0735 81.0059C75.6894 80.521 77.1437 79.7128 78.5981 78.743C85.7082 73.4091 91.6872 67.1053 97.6662 60.6399C97.6662 60.6399 97.6662 60.4782 97.6662 60.3166C98.151 60.3166 98.4742 60.3166 98.4742 59.6701C98.7974 59.1852 100.252 58.8619 98.4742 58.377C97.6662 58.0537 98.4742 57.4072 98.4742 56.9223C98.6358 56.9223 98.9589 56.9223 99.1205 56.9223C102.191 56.599 103.968 58.0537 104.615 61.1248C104.615 61.6097 104.938 62.0946 104.453 62.4179C103.968 62.7411 103.807 62.2562 103.484 61.933C103.16 61.6097 102.676 61.1248 102.352 61.933C102.191 61.933 101.868 61.933 101.706 61.933C101.706 61.4481 101.706 61.1248 102.191 60.8015C102.676 60.155 102.191 59.8317 101.706 59.3468C101.221 58.8619 100.736 59.0235 100.413 59.3468C98.9589 61.1248 97.1814 62.7411 95.8886 64.6808C94.2727 65.8122 93.3032 67.2669 92.0104 68.56C91.364 69.2066 90.7177 69.8531 90.0713 70.4996C88.7785 71.7927 87.4857 73.0858 86.193 74.3789C85.7082 74.8638 85.2234 75.3487 84.5771 75.8336C84.2539 75.9952 84.0923 76.1568 83.7691 76.4801C81.022 78.743 78.4365 81.0059 75.0431 82.299C73.7503 82.7839 72.296 83.1072 71.0032 81.9757C69.8721 80.8443 69.7105 79.3896 70.1953 77.9348C70.6801 76.1569 71.488 74.7021 72.4575 73.2474C74.2351 70.338 76.659 68.0751 78.7597 65.4889C79.2445 65.004 79.5677 64.5191 80.0524 64.0342C80.8604 63.3877 81.6684 62.5795 82.1531 61.6097C82.9611 60.9632 83.7691 60.3166 84.2538 59.5084C85.7082 58.0537 87.001 56.599 88.4553 55.1443C89.7481 54.0129 90.8792 52.7198 92.172 51.5883C92.6568 51.1034 92.9799 50.4569 92.172 49.972C91.5256 49.4871 90.556 48.3556 89.9096 49.3254C88.6169 51.1034 86.6778 52.3965 86.0314 54.6594C84.2539 55.6292 83.2843 57.5688 82.1531 59.0235C81.1836 59.8317 80.3756 60.8015 79.7292 61.7713C78.9213 62.2563 78.4365 62.9028 77.9517 63.711C77.1438 64.1959 76.4974 64.8424 76.0126 65.6506C74.3967 66.9437 72.7807 68.3984 71.1648 69.6915C69.2257 71.1462 67.2866 72.6009 65.0243 73.2474C63.0851 73.894 62.1156 72.9242 62.6003 70.9845C62.9235 69.5298 63.5699 68.2367 64.0546 66.782C64.5394 65.9738 64.8627 65.3273 65.3475 64.5191C65.8322 63.711 66.317 62.9028 66.8017 62.0946C67.4481 61.2864 68.0945 60.4783 68.4177 59.3468C71.488 55.3059 74.5583 51.2651 77.6285 47.3858C78.5981 46.2544 79.4061 45.2846 80.3757 44.1531C80.6988 43.6682 81.8299 43.0217 81.022 42.5368C80.214 42.0519 79.0829 41.082 77.9517 42.2135C76.3358 43.9915 74.8815 45.7695 73.4271 47.7091C69.7105 51.4267 66.1554 55.3059 63.4083 59.8317C62.7619 60.6399 62.1156 61.4481 61.7924 62.5795C61.3076 63.0644 60.8228 63.711 60.6612 64.5191C60.1764 65.1657 59.6916 65.9739 59.53 66.9437C57.9141 70.338 57.4293 73.7323 57.4293 77.4499C57.4293 84.2386 65.509 90.3807 72.296 87.6329C77.9517 85.3701 82.6379 81.8141 87.001 77.7732C87.9705 77.1267 88.7785 76.1569 89.5865 75.3487C90.8793 74.3789 92.0104 73.2474 92.8184 71.7927C93.6264 71.3078 94.2727 70.6613 94.7574 69.8531C95.2422 69.3682 95.8886 68.8833 96.3734 68.3984C96.535 68.56 96.8582 68.7216 97.0198 68.8833C94.2727 71.7927 92.172 75.1871 89.2633 77.9348C85.0619 81.8141 80.8604 85.5317 75.6894 88.1178C71.8111 90.0575 67.7714 91.0273 63.7315 89.0877C63.0851 88.7644 62.6003 89.0877 62.2771 89.4109C52.7431 99.109 42.8859 108.484 33.9982 118.828C32.5439 120.606 31.4128 122.384 31.0896 124.809C30.928 126.91 28.3425 128.688 25.4338 129.012C22.5251 129.335 20.1012 127.88 18.4853 125.456C17.0309 123.193 17.0309 120.768 18.4853 118.505C19.1317 117.535 19.9396 116.566 21.0707 116.242C26.2417 115.111 29.9584 111.555 33.675 108.161C40.3004 102.018 46.2794 95.2298 52.5815 88.6027C53.0663 88.1178 53.5511 87.3097 54.1975 86.9864C56.783 85.0468 57.1061 83.1072 56.2982 79.7128C54.6822 73.894 56.783 68.0751 59.6917 62.9028C62.9236 57.0839 67.125 52.0732 71.8112 47.3858C72.4576 46.7393 73.1039 46.2544 73.9119 45.4462C70.3568 44.4764 67.125 44.4764 63.8931 44.1531C59.0453 43.5066 54.1974 42.86 49.5112 41.4053C44.017 39.9506 40.3004 36.5563 38.6845 31.0607C38.1997 29.2827 37.7149 29.7676 36.5837 30.5758C34.3214 32.3538 32.7055 34.9399 29.7968 35.9097C28.3425 36.3946 27.3729 36.233 26.565 34.9399C24.4643 31.3839 24.3027 29.7676 27.3729 27.828C27.8577 27.5047 28.3424 27.1814 27.6961 26.3733C26.2417 24.4336 26.8881 22.494 27.6961 20.5544C28.1808 19.7462 28.6657 18.7764 29.1504 17.9682C30.7664 15.2204 31.7359 15.0588 34.483 16.8368C35.7758 17.645 36.907 18.7764 37.8765 19.9079C38.3613 20.5544 38.8461 20.8777 39.1693 19.9079C42.5627 12.311 49.3496 9.88648 56.6214 8.5934C70.0336 6.16888 82.9612 8.5934 95.2423 14.2506C107.523 19.9079 116.411 29.606 123.36 41.0821C131.924 55.3059 133.702 70.8229 131.116 86.9864C129.823 95.2298 127.399 102.988 122.552 109.939C120.289 113.01 117.704 115.757 113.664 116.566C112.371 116.889 111.886 118.182 112.694 119.313C112.856 119.637 113.179 119.798 113.341 120.283C112.694 120.93 112.533 119.96 112.048 119.96C111.725 119.475 111.402 119.152 110.917 119.96C110.109 121.415 109.139 122.708 108.17 124.162C106.877 123.839 107.847 123.193 107.847 122.708C108.008 121.576 108.978 120.768 109.139 119.637C107.847 120.122 107.2 121.415 105.746 121.253C106.231 120.445 106.877 119.475 107.362 118.667C107.362 118.667 107.362 118.505 107.2 118.344C106.392 118.829 105.423 119.475 104.615 119.96C104.453 119.96 104.13 119.96 104.13 120.445C103.322 120.445 102.676 121.091 101.868 121.576C101.383 121.9 100.252 122.061 100.413 122.869C100.413 123.516 101.544 123.516 102.191 124.001C102.191 124.001 102.191 124.001 102.352 124.001C104.453 124.647 105.907 125.779 105.746 128.203C105.746 129.335 106.392 129.173 107.039 128.85C108.493 128.365 110.109 128.203 111.563 129.012C113.341 130.143 114.633 129.496 115.603 128.042C115.926 127.718 115.765 127.234 115.765 126.91C115.765 126.264 114.472 125.294 116.249 124.971L115.603 123.354ZM93.1415 29.9292C93.1415 29.9292 92.98 30.2525 92.8184 30.4141C92.8184 30.2525 92.8184 30.0909 92.8184 29.9292C92.8184 29.9292 92.8184 29.9292 92.8184 29.7676L93.1415 29.9292ZM95.2423 27.3431C97.6662 24.5953 100.252 22.0091 103.645 20.0695C102.999 19.5846 102.514 19.0997 101.868 18.7764C101.544 18.4531 101.383 18.2915 100.898 18.7764C98.6358 21.3626 96.535 23.9487 94.9191 26.8582C94.9191 27.0198 94.5959 27.1814 94.5959 27.3431C94.9191 27.5047 95.2423 27.3431 95.4038 27.1814L95.2423 27.3431ZM30.7664 21.3626C31.5743 20.2311 32.5439 20.8777 33.5135 21.0393C34.483 21.2009 35.9374 20.0695 35.6142 19.2613C35.4526 18.6148 32.0592 16.0286 31.4128 16.0286C30.12 16.0286 29.9584 17.4833 29.312 18.2915C28.9888 18.7764 28.6657 19.2613 28.3425 19.7462C27.3729 21.3626 26.8881 22.8173 28.3425 24.5953C29.1504 25.5651 28.8273 26.3733 27.8577 27.0198C27.3729 27.3431 26.8882 27.6663 26.565 28.1513C25.4338 29.2827 26.0801 32.677 27.6961 33.4852C28.1808 33.8085 28.3425 33.4852 28.6657 33.3236C32.2207 32.0305 34.3215 28.7978 37.0686 26.3733C37.3918 26.05 37.5533 25.7267 37.0686 25.4035C36.7454 25.2418 36.2605 25.2418 35.7757 25.4035C34.8062 26.2116 33.8366 27.1814 32.8671 27.9896C32.3823 28.4745 31.8975 28.9594 30.9279 28.6362C31.4127 27.0198 32.8671 25.8884 33.9982 24.7569C34.9678 23.7871 34.6446 23.1406 33.675 22.494C32.7055 22.0091 31.5743 21.8475 30.7664 21.2009V21.3626ZM59.8532 85.37C58.4528 83.5382 56.9984 83.4304 55.4902 85.0468C48.5417 92.6436 41.7548 100.402 34.3215 107.514C30.4432 111.07 26.5649 114.626 21.2323 116.081C18.3236 116.889 18.0004 121.253 20.4243 123.193C21.8787 125.294 23.8178 125.456 26.0801 124.971C28.0192 124.486 29.312 123.354 29.4736 121.091C29.4736 119.475 30.4432 118.182 31.5743 117.051C35.1294 113.171 38.6844 109.454 42.2395 105.574C48.2185 99.4323 54.359 93.2902 60.338 87.148C61.146 86.3399 61.6307 85.6933 60.0148 85.2084L59.8532 85.37ZM64.2163 70.1764C65.8322 69.6915 67.4482 68.7216 69.0641 67.5902C75.3663 62.9028 80.5372 56.9223 85.385 50.7802C86.0314 49.972 85.8698 49.8103 85.0618 49.3254C83.4459 48.194 81.83 47.2242 80.0524 46.416C79.2445 46.0927 78.9213 46.2544 78.4365 46.7393C73.4271 52.7198 68.9025 58.8619 65.1858 65.8122C64.5394 66.9437 64.0547 68.0751 63.7315 69.3682C63.7315 69.8531 63.5699 70.1764 64.2163 70.0147V70.1764ZM113.502 48.5172C116.896 47.3858 120.451 46.0927 124.168 45.7695C123.683 44.9613 123.36 44.3148 123.036 43.5066C122.552 42.2135 121.905 42.2135 120.936 42.86C118.35 44.4764 115.765 46.0927 113.502 48.5172ZM126.43 93.6134C126.915 91.9971 127.399 90.5424 127.561 88.926C124.814 88.926 122.228 89.4109 118.996 89.8958C121.905 91.0273 124.329 91.9971 126.43 93.6134ZM87.8089 11.9877C85.9775 11.2335 84.6309 11.6106 83.7691 13.1192C82.3147 15.7053 81.1836 18.4532 80.3757 21.3626C82.638 18.1299 84.5771 14.5739 87.8089 11.8261V11.9877ZM115.118 31.7072C114.795 31.2223 114.31 30.7374 114.149 30.4141C113.341 29.1211 112.694 29.1211 111.725 30.4141C110.109 32.3538 108.331 34.1317 106.715 36.0714C106.715 36.0714 106.877 36.3946 107.039 36.5563C109.624 34.7783 112.048 33.0003 115.118 31.8689V31.7072ZM123.036 60.9632C124.814 60.9632 126.43 60.9632 128.046 60.9632C129.177 60.9632 128.854 60.3166 128.854 59.6701C128.854 58.7003 128.207 58.8619 127.723 59.1852C126.268 59.8317 124.652 60.3166 123.198 60.9632H123.036ZM37.8765 20.2311C36.4222 20.2311 35.7758 21.0393 35.6142 22.1708C35.4526 23.1406 35.9373 23.9487 36.9069 23.9487C37.7149 23.9487 37.3917 23.1406 37.3917 22.6556C37.5533 22.0091 37.7149 21.2009 37.8765 20.2311ZM123.198 101.857C124.168 100.564 124.168 99.7556 122.39 99.5939C121.42 99.5939 120.451 99.109 119.481 98.9474V99.2707C120.613 100.079 121.905 101.049 123.198 102.018V101.857ZM107.2 114.303C108.331 116.242 108.655 116.242 110.27 115.111C109.301 114.788 108.331 114.626 107.2 114.303Z" fill="#12100D"/>
<path d="M105.261 119.475C106.715 119.636 107.362 118.343 108.654 117.858C108.493 119.151 107.523 119.96 107.362 120.929C107.362 121.414 106.392 122.061 107.685 122.384C108.008 124.001 108.816 123.839 109.785 122.869C110.917 121.576 111.401 119.96 111.563 118.343C112.048 118.343 112.209 119.313 112.856 118.667C112.856 119.798 114.472 122.546 115.441 122.707C115.441 122.707 115.441 122.546 115.603 122.384C115.926 122.384 115.926 122.869 115.926 123.031C114.31 123.354 115.603 124.324 115.441 124.97C115.441 125.294 115.441 125.779 115.28 126.102C114.148 127.556 113.017 128.203 111.24 127.072C109.785 126.263 108.331 126.425 106.715 126.91C106.069 127.072 105.422 127.233 105.422 126.263C105.584 123.839 104.13 122.707 102.029 122.061C102.029 122.061 102.029 122.061 101.867 122.061C101.221 121.738 100.251 121.738 100.09 120.929C100.09 120.121 101.059 119.96 101.544 119.636C102.191 119.151 102.837 118.505 103.806 118.505C104.13 119.151 104.453 120.121 105.422 119.313L105.261 119.475Z" fill="#E9636B"/>
<path d="M115.442 122.707L115.281 123.031C114.311 122.869 112.695 120.121 112.695 118.99C114.15 119.96 114.796 121.414 115.442 122.707Z" fill="#141111"/>
<path d="M98.9591 64.1954C98.4743 64.8419 97.9895 65.4884 97.3431 66.135C97.0199 66.135 96.6967 66.135 96.5352 65.9733C97.0199 65.1652 97.6663 64.5186 98.3126 63.8721L98.9591 64.357V64.1954Z" fill="#141111"/>
<path d="M100.09 61.6089C100.413 61.9322 100.575 62.0938 100.898 62.4171C99.7669 62.4171 99.7669 63.7102 98.9589 64.1951L98.3125 63.7101C98.3125 63.7101 98.4741 63.3869 98.6357 63.2252C99.1205 62.7403 99.6053 62.0938 100.09 61.6089Z" fill="#141111"/>
<path d="M96.5355 65.9731C96.8587 65.9731 97.1819 65.9732 97.3435 66.1348C97.1819 66.4581 96.8587 66.6197 96.6971 66.943C96.5355 66.7813 96.2124 66.6197 96.0508 66.4581C96.2124 66.2964 96.3739 66.1348 96.5355 65.8115V65.9731Z" fill="#12100D"/>
<path d="M122.227 98.462C120.45 98.1388 118.672 97.6539 116.733 97.3306C116.248 97.3306 115.44 96.684 115.279 97.3306C114.955 98.1388 115.925 98.3004 116.41 98.6236C117.864 99.5935 119.48 100.24 120.773 101.371C120.126 103.796 118.834 105.736 117.379 107.675C115.925 109.776 114.309 111.716 111.723 112.524C111.239 112.201 110.916 111.878 110.431 111.716C105.098 109.292 103.321 104.443 104.129 99.1086C104.937 94.0979 105.906 89.0872 107.199 84.2381C107.684 82.2985 108.168 80.1973 108.168 78.096C108.168 71.469 106.876 65.1652 101.866 60.3161C102.189 59.508 102.674 59.8312 102.997 60.3161C103.321 60.6394 103.482 61.1243 103.967 60.8011C104.452 60.4778 104.29 59.9929 104.129 59.508C103.644 56.5985 101.705 55.1438 98.6344 55.3055C98.4728 55.3055 98.1496 55.3055 97.988 55.3055C96.3721 54.0124 94.7562 52.8809 93.4634 51.4262C94.433 51.4262 94.7562 51.1029 94.5946 50.1331C94.2714 47.3853 89.9084 44.9608 87.3229 45.9306C86.8381 46.0923 86.8381 46.4155 86.8381 46.9004C84.7374 46.2539 83.1214 44.4759 80.8591 43.991C81.1823 43.3445 81.6671 42.6979 82.3135 42.3747C83.1215 42.5363 82.9598 44.6375 84.091 43.6677C85.0606 42.8596 84.091 41.8897 83.6062 41.2432C81.9903 39.3036 78.112 38.3338 76.0113 39.142C75.3649 39.4652 74.557 39.6269 75.0418 40.5967C74.2338 40.5967 73.4259 40.2734 72.6179 40.2734C66.4773 39.4652 60.4983 38.9803 54.3577 37.8489C45.7933 36.2325 41.1071 32.6766 39.9759 24.4332C39.9759 23.9483 39.9759 23.1401 39.168 23.1401C39.168 21.2005 40.1375 19.7458 40.9455 18.1294C42.8846 17.3212 44.6622 15.8665 46.7629 15.22C51.4491 13.7653 56.2969 12.9571 61.3063 12.6338C61.4679 13.442 60.9831 14.2502 60.8215 15.0583C60.0135 17.8061 59.3672 20.7156 59.3672 23.625C59.3672 24.7564 58.7208 26.5344 59.6904 26.8577C60.9831 27.181 61.1447 25.2414 61.4679 24.1099C62.9222 20.069 64.3765 16.0282 66.8005 12.3105C71.8099 12.3105 76.6577 12.7955 81.5055 14.4118C79.5664 18.4527 78.2736 22.8168 77.304 27.181C77.304 27.8275 77.1424 28.3124 76.9808 28.959C76.9808 29.4439 76.9809 29.9288 77.304 30.0904C77.7888 30.252 78.1121 29.7671 78.2737 29.4439C79.0816 27.8275 79.7279 26.3728 80.5359 24.7564C81.9903 21.6854 83.6062 18.4527 86.0301 16.0282C89.9084 17.3212 93.625 19.2609 97.18 21.2005C94.5945 24.5948 92.3323 28.1508 90.878 32.1917C90.7164 32.8382 89.9084 33.808 90.878 34.2929C91.6859 34.7778 92.1707 33.808 92.6554 33.1615C94.7562 30.4137 96.6953 27.5042 99.2808 25.0797C99.7656 24.5948 100.412 23.9483 101.058 23.625C104.129 25.7263 106.876 28.1508 109.623 30.7369C107.037 33.808 104.613 36.7174 102.351 39.9501C102.028 40.4351 101.382 40.9199 101.866 41.4049C102.513 42.0514 102.997 41.2432 103.482 40.9199C106.553 38.6571 109.461 36.0709 113.016 34.4545C114.794 37.364 116.733 40.2734 118.51 43.0212C115.602 44.9608 112.693 47.0621 110.431 49.8099C110.108 50.2948 109.138 50.7797 109.784 51.5879C110.269 52.2344 110.916 51.5879 111.562 51.4262C114.632 50.1331 117.703 48.5168 121.096 48.0319C122.227 51.7495 124.328 55.1438 125.136 59.0231C122.874 60.1545 120.45 61.1243 118.349 62.5791C118.026 62.9023 117.541 63.0639 117.702 63.5488C117.864 64.1954 118.51 63.8721 118.834 63.7105C121.096 63.064 123.358 62.4174 125.782 62.5791C126.429 66.2967 126.429 70.0143 126.59 73.7319C124.328 74.54 122.227 75.3482 119.965 76.1564C119.48 76.318 118.834 76.4797 118.995 77.1262C118.995 77.6111 119.642 77.6111 120.126 77.6111C122.065 77.6111 124.005 77.9344 125.944 78.9042C125.459 81.9752 125.136 85.0463 124.651 88.1174C122.065 88.4406 119.48 88.9256 116.894 89.2488C116.41 89.2488 115.925 89.2488 115.925 89.8954C115.925 90.3803 116.41 90.5419 116.894 90.7035C119.157 91.5117 121.419 91.9966 123.358 93.4513C123.358 95.2293 122.55 96.8457 122.066 98.462H122.227ZM49.8331 32.9998C50.1563 32.9998 50.6411 32.9998 50.8027 32.6766C51.1259 32.1917 50.6411 32.03 50.3179 31.8684C49.3483 31.3835 48.5404 31.0602 47.5709 30.5753C46.9245 30.252 46.2781 30.4137 46.1165 31.0602C45.9549 31.7068 46.4397 32.1916 46.9244 32.3533C47.894 32.6766 48.8636 32.8382 49.8331 33.1615V32.9998ZM45.4701 20.5539C46.4396 19.4225 47.4092 18.291 48.5404 17.1596C48.8636 16.8363 49.1867 16.5131 48.7019 16.0282C48.2172 15.5433 47.894 16.0282 47.5709 16.0282C46.1165 17.1596 45.3085 18.6143 45.6317 20.5539H45.4701ZM44.5005 25.0797C44.5005 24.4332 44.5006 23.625 43.531 23.625C42.8846 23.625 42.723 24.2715 42.723 24.7564C42.723 25.5646 42.723 26.8577 43.8541 26.8577C44.6621 26.8577 44.1774 25.5646 44.5005 24.9181V25.0797Z" fill="#E9636B"/>
<path d="M78.4373 64.0337C76.3365 66.6199 73.9126 69.0444 72.1351 71.7922C71.1655 73.2469 70.3576 74.7016 69.8728 76.4796C69.388 78.096 69.5496 79.389 70.6808 80.5205C71.8119 81.6519 73.2663 81.3287 74.7206 80.8437C78.1141 79.5507 80.8611 77.2878 83.4466 75.0249C83.6082 74.8633 83.9314 74.7016 84.2546 74.3783C84.2546 75.1865 84.901 75.1865 85.3858 75.1865C85.8705 75.1865 86.3553 75.1865 86.5169 75.8331C82.1539 80.0356 77.4677 83.4299 71.812 85.6928C65.025 88.4406 56.9453 82.2985 56.9453 75.5098C56.9453 71.9538 57.4301 68.3979 59.046 65.0035C60.5004 65.0035 62.1163 65.0035 63.5706 65.0035C63.0858 66.4583 62.4395 67.7513 62.1163 69.206C61.6315 71.1457 62.6011 72.1155 64.5402 71.4689C66.8025 70.8224 68.9032 69.3677 70.6808 67.9129C72.2967 66.6199 73.9127 65.1652 75.5286 63.8721C76.4982 63.8721 77.3061 63.8721 78.2757 63.8721L78.4373 64.0337Z" fill="#CEC8C8"/>
<path d="M97.3437 58.5386V58.8619C91.3647 65.3273 85.3858 71.7927 78.2757 76.965C76.9829 77.9348 75.3669 78.743 73.751 79.2279C71.8118 79.8744 71.0039 79.0663 71.3271 77.1266C71.4887 75.3487 72.4583 73.8939 73.4279 72.4392C77.7909 66.2971 82.9619 60.8015 88.1329 55.4675C89.1024 54.4977 89.9104 53.2046 91.2032 52.5581C92.9807 54.821 95.4046 56.2757 97.3437 58.377V58.5386Z" fill="#FAFAFA"/>
<path d="M64.2144 70.1761C63.4064 70.1761 63.568 69.8528 63.7296 69.5295C64.0528 68.2364 64.5375 67.105 65.1839 65.9736C68.9005 59.1849 73.4252 52.8811 78.4346 46.9006C78.9194 46.2541 79.2426 46.0925 80.0505 46.5774C81.8281 47.3855 83.444 48.3553 85.0599 49.4868C85.7063 49.9717 85.8679 50.295 85.3831 50.9415C80.5353 57.0836 75.3643 62.9025 69.0622 67.7516C67.6078 68.883 65.9919 69.8528 64.2144 70.3377V70.1761Z" fill="#FAFAFA"/>
<path d="M20.2606 123.354C17.8367 121.414 18.3215 117.05 21.0686 116.242C26.4012 114.787 30.2794 111.231 34.1576 107.675C41.5909 100.563 48.3779 92.8046 55.3264 85.2078C56.8347 83.5914 58.289 83.6992 59.6895 85.5311C58.0736 86.016 57.2656 87.309 56.1344 88.4405C49.0243 96.3606 41.5909 103.796 34.1576 111.393C30.441 115.11 26.8859 118.828 21.8765 120.929C20.7454 121.414 19.7759 122.222 20.099 123.515L20.2606 123.354Z" fill="#CEC8C8"/>
<path d="M20.2628 123.354C20.1012 121.899 20.9091 121.091 22.0403 120.768C27.0497 118.666 30.6048 115.11 34.3215 111.231C41.7548 103.634 49.188 96.1992 56.2982 88.2791C57.2677 87.1476 58.2373 85.8545 59.8532 85.3696C61.4692 85.8545 60.9844 86.5011 60.1764 87.3092C54.0359 93.4514 48.0569 99.5935 42.0779 105.736C38.5229 109.453 34.9678 113.332 31.4128 117.212C30.4432 118.343 29.4736 119.798 29.312 121.253C29.312 123.515 28.0193 124.647 25.9186 125.132C23.8178 125.617 21.7171 125.455 20.2628 123.354Z" fill="#5F6060"/>
<path d="M102.029 60.3164C107.039 65.1655 108.17 71.4692 108.331 78.0963C108.331 80.1975 108.008 82.1371 107.362 84.2384C105.907 89.0874 104.938 94.0981 104.291 99.1088C103.484 104.443 105.261 109.453 110.594 111.716C111.078 111.878 111.402 112.201 111.886 112.525C111.886 112.525 111.886 112.686 111.886 112.848C107.685 113.171 104.776 111.231 103.322 107.029C101.544 101.533 101.706 96.1994 103.484 90.7038C105.423 84.7233 106.392 78.7428 105.907 72.439C105.584 68.5598 104.615 64.8422 101.868 61.9328C101.544 61.6095 101.544 60.963 101.383 60.4781V60.1548C101.544 60.1548 101.868 60.1548 102.029 60.1548V60.3164Z" fill="#F5F5F1"/>
<path d="M30.927 28.6359C31.735 29.1208 32.2198 28.4742 32.8662 27.9893C33.8357 27.1811 34.8053 26.373 35.7749 25.4032C36.2596 25.0799 36.5829 25.0799 37.0677 25.4032C37.5525 25.7264 37.2293 26.0497 37.0677 26.373C34.3206 28.7975 32.2199 32.0302 28.6648 33.3233C28.3416 33.3233 28.1799 33.8082 27.6952 33.4849C26.2408 32.6767 25.4329 29.2824 26.5641 28.1509C27.0489 27.8277 27.5336 27.3428 27.8568 27.0195C28.8264 26.373 29.1496 25.4032 28.3416 24.595C27.0488 22.9786 27.372 21.3623 28.3416 19.7459C28.6648 19.261 28.8263 18.7761 29.3111 18.2912C29.9575 17.483 30.1192 16.19 31.4119 16.0283C32.0583 16.0283 35.4517 18.6145 35.6133 19.261C35.7749 19.9076 34.3206 21.2006 33.5126 21.039C32.543 20.8774 31.5735 20.2308 30.7655 21.3623C30.2807 21.3623 29.9575 21.6856 30.1191 22.1705C30.2807 23.6252 31.8967 22.9786 32.7046 23.9484C31.8967 24.9182 30.7654 25.7264 30.1191 26.8579C29.4727 27.8277 29.4728 28.7975 31.0887 28.7975L30.927 28.6359Z" fill="#E9636B"/>
<path d="M39.3309 22.9785C40.1388 22.9785 40.1388 23.7867 40.1388 24.2716C41.27 32.515 45.9563 35.9093 54.5207 37.6873C60.4997 38.8187 66.6402 39.3036 72.7808 40.1118C73.5888 40.1118 74.3967 40.2734 75.2047 40.4351C75.2047 40.4351 75.5279 40.7584 75.6895 40.92C74.7199 42.8596 73.104 42.2131 71.4881 42.0514C64.5395 41.4049 57.591 40.1118 50.8041 38.4955C43.694 36.7175 40.3005 32.9999 39.1693 25.8879C39.1693 24.9181 39.0077 23.9483 39.3309 22.9785Z" fill="#F5F5F1"/>
<path d="M61.3062 12.4726C56.4584 12.7958 51.449 13.604 46.7627 15.0587C44.662 15.7052 42.8844 16.9983 40.9453 17.9681C43.046 13.604 47.0859 11.6644 51.2873 10.2097C55.1656 8.91658 59.2054 8.43167 63.2452 8.1084C62.5988 9.56311 61.9526 11.0178 61.3062 12.3109V12.4726Z" fill="#FAC4C7"/>
<path d="M62.9219 58.2149C65.669 53.6891 69.224 49.8099 72.9406 46.0923C74.3949 46.5772 75.8493 45.9307 77.3037 45.9307C74.2334 49.9715 71.1631 54.0124 68.0928 57.8916C66.4769 57.8916 64.6994 58.2149 63.0834 58.2149H62.9219Z" fill="#CEC8C8"/>
<path d="M81.6698 14.0889C76.822 12.6342 71.9742 12.1493 66.9648 11.9877C67.4496 10.5329 68.9039 9.72475 69.2271 8.1084C74.2365 8.1084 79.0844 9.07821 83.9322 10.5329C83.1242 11.826 82.4778 12.9575 81.6698 13.9273V14.0889Z" fill="#FAC4C7"/>
<path d="M97.3414 20.7156C93.6248 18.776 90.0697 16.998 86.1914 15.5433C86.1914 15.5433 86.1914 15.5433 86.1914 15.3817C88.7769 12.149 88.9385 12.149 92.6552 13.7653C94.1095 14.4119 95.4023 15.0584 96.8567 15.8666C97.9878 16.5131 98.9573 17.1597 100.735 18.1295C99.4421 19.0993 98.4726 19.9075 97.3414 20.7156Z" fill="#FAC4C7"/>
<path d="M69.0629 8.27005C68.7397 9.72477 67.2854 10.6946 66.8006 12.1493C64.3767 15.7053 63.0839 19.9078 61.468 23.9486C61.1448 24.9185 60.9833 26.8581 59.6905 26.6964C58.7209 26.5348 59.3673 24.5952 59.3673 23.4637C59.3673 20.5543 60.0136 17.8065 60.8216 14.8971C60.9832 14.0889 61.468 13.2807 61.3064 12.4726C61.9528 11.0179 62.5991 9.56313 63.2455 8.27005C63.5687 7.78515 64.0535 7.94677 64.5383 8.10841C62.4376 13.2807 60.4985 18.6147 60.1753 24.2719C62.1144 18.6147 64.5383 13.1191 67.7702 8.27005C68.255 8.10842 68.5781 7.94679 68.9013 8.4317L69.0629 8.27005Z" fill="#141111"/>
<path d="M125.298 58.6997C124.49 54.8205 122.389 51.4261 121.258 47.7085C124.651 46.7387 124.813 46.7387 125.944 49.9714C126.59 51.5878 127.075 53.2041 127.56 54.6588C128.368 57.7299 128.368 57.7299 125.298 58.5381V58.6997Z" fill="#FAC4C7"/>
<path d="M109.947 30.4135C107.2 27.8273 104.453 25.4028 101.383 23.3015C101.383 23.3015 101.383 23.1399 101.544 22.9783C104.615 20.7154 104.615 20.7154 107.362 23.1399C108.655 24.433 109.786 25.7261 111.24 26.8575C112.371 27.8273 112.21 28.4739 111.24 29.282C110.755 29.6053 110.432 29.9286 110.109 30.2519L109.947 30.4135Z" fill="#FAC4C7"/>
<path d="M126.753 73.5702C126.753 69.8526 126.753 65.9733 125.945 62.4174C129.016 61.7708 129.177 61.9325 129.5 64.8419C129.662 67.5897 129.985 70.4991 129.5 73.2469C128.531 73.0853 127.561 73.4085 126.753 73.5702Z" fill="#FAC4C7"/>
<path d="M118.834 42.8596C117.057 39.9502 115.117 37.0408 113.34 34.293C116.087 32.6767 116.087 32.6767 117.865 35.1012C118.996 36.7175 119.965 38.3339 121.096 39.9502C122.066 41.2433 121.743 41.8898 120.288 42.3748C119.804 42.5364 119.319 42.8596 118.834 43.0213V42.8596Z" fill="#FAC4C7"/>
<path d="M67.9309 7.94631C64.699 12.957 62.1135 18.2909 60.3359 23.9482C60.6591 18.2909 62.5983 12.957 64.699 7.78467C65.8301 7.78467 66.9613 7.78467 68.0924 7.78467L67.9309 7.94631Z" fill="#FAC4C7"/>
<path d="M124.977 87.9554C125.461 84.8843 125.785 81.8133 126.269 78.7422C127.4 78.7422 128.047 79.712 129.178 79.712C128.855 81.49 128.693 83.4296 128.37 85.2076C127.885 87.9554 127.885 87.9554 124.977 87.9554Z" fill="#FAC4C7"/>
<path d="M129.176 79.7127C128.044 79.7127 127.236 78.7429 126.267 78.7429C124.489 77.9348 122.55 77.6115 120.449 77.4499C119.965 77.4499 119.48 77.4499 119.318 76.965C119.157 76.3184 119.803 76.1568 120.288 75.9951C122.55 75.187 124.651 74.3788 126.913 73.5706C127.883 73.5706 128.691 73.0857 129.66 73.2473C129.983 73.5706 129.983 73.7322 129.66 74.0555C127.56 74.8637 125.297 75.0253 123.035 76.3184C125.297 76.965 127.398 77.6115 129.176 78.7429C129.176 79.0662 129.176 79.3895 129.176 79.7127Z" fill="#141111"/>
<path d="M111.723 112.848C111.723 112.848 111.723 112.686 111.723 112.524C114.308 111.716 115.924 109.777 117.378 107.675C118.833 105.736 120.126 103.796 120.772 101.372C122.172 102.234 122.442 103.365 121.58 104.766C120.126 107.029 118.671 109.292 116.409 111.07C114.955 112.201 113.5 113.009 111.723 112.848Z" fill="#FAC4C7"/>
<path d="M113.5 48.517C115.601 46.0924 118.186 44.4761 120.933 42.8597C121.903 42.2132 122.549 42.2132 123.034 43.5063C123.357 44.3145 123.842 44.961 124.165 45.7692C120.448 46.0924 116.893 47.3855 113.5 48.517Z" fill="#FAC4C7"/>
<path d="M77.1443 45.7692C75.69 45.7692 74.2356 46.4157 72.7812 45.9308C74.2356 44.1528 75.6899 42.2132 77.3059 40.4352C78.2754 39.3038 79.5682 40.2736 80.3762 40.7585C81.1841 41.405 80.2145 41.8899 79.7298 42.3748C78.9218 43.5063 77.9522 44.4761 76.9826 45.6075L77.1443 45.7692Z" fill="#5F6060"/>
<path d="M85.707 53.0427C86.515 50.7799 88.2926 49.4868 89.5853 47.7088C90.2317 46.9006 91.2012 48.0321 91.8476 48.3553C92.6555 48.8402 92.3324 49.4868 91.8476 49.9717C90.5548 51.1031 89.4237 52.3962 88.1309 53.5277C87.323 53.5277 86.515 53.366 85.707 52.8811V53.0427Z" fill="#5F6060"/>
<path d="M126.429 93.6132C124.329 91.8352 121.743 91.027 118.996 89.8956C122.228 89.5723 124.814 88.9258 127.561 88.9258C127.561 90.5421 126.914 91.9969 126.429 93.6132Z" fill="#FAC4C7"/>
<path d="M87.8083 11.9875C84.5764 14.7353 82.6373 18.1296 80.375 21.524C81.183 18.6145 82.3141 15.8667 83.7684 13.2806C84.6303 11.772 85.9769 11.3948 87.8083 12.1491V11.9875Z" fill="#FAC4C7"/>
<path d="M101.384 60.6395C100.737 60.8012 100.414 61.2861 100.253 61.771C99.7679 62.2559 99.2831 62.9024 98.7983 63.3873C97.8287 62.7408 96.6976 63.7106 95.5664 63.3873C96.8592 61.2861 98.6368 59.8314 100.091 58.0534C100.414 57.5685 100.899 57.4068 101.384 58.0534C101.707 58.3767 102.353 58.8616 101.869 59.5081C101.545 59.8314 101.384 60.1546 101.384 60.6395Z" fill="#5F6060"/>
<path d="M115.118 31.7071C112.047 32.8385 109.462 34.6165 107.038 36.3945C107.038 36.3945 106.876 36.0713 106.715 35.9096C108.331 33.97 110.108 32.192 111.724 30.2524C112.694 29.1209 113.34 29.1209 114.148 30.2524C114.471 30.7373 114.795 31.0605 115.118 31.5455V31.7071Z" fill="#FAC4C7"/>
<path d="M30.9274 28.6359C29.4731 28.6359 29.4731 27.6661 29.9579 26.6963C30.6043 25.5648 31.7354 24.7567 32.5434 23.7869C31.897 22.9787 30.1195 23.4636 29.9579 22.0089C29.9579 21.524 30.2811 21.3623 30.6043 21.2007C31.4123 21.8472 32.5434 22.0089 33.513 22.4938C34.4826 22.9787 34.9674 23.7868 33.8362 24.7566C32.705 25.8881 31.2507 26.8579 30.7659 28.6359H30.9274Z" fill="#F5F5F1"/>
<path d="M95.4041 63.2258C96.3737 63.7107 97.5049 62.5793 98.636 63.2258C98.636 63.2258 98.4744 63.5491 98.3128 63.7107C97.6664 64.3573 97.0201 65.0038 96.5353 65.812C96.3737 65.9736 96.2121 66.1352 96.0505 66.4585C95.5658 66.9434 94.9194 67.4283 94.4346 67.9132L91.6875 67.105C92.9802 65.6503 93.9498 64.1956 95.5657 63.2258H95.4041Z" fill="#CEC8C8"/>
<path d="M94.7578 27.0191C96.3737 24.1097 98.6361 21.5235 100.737 18.9374C101.222 18.4525 101.383 18.6141 101.706 18.9374C102.191 19.2607 102.676 19.7455 103.484 20.2304C100.09 22.0084 97.5049 24.5946 95.081 27.504C95.081 27.504 94.7578 27.3424 94.7578 27.1808V27.0191Z" fill="#CEC8C8"/>
<path d="M129.176 78.7426C127.398 77.6112 125.297 77.1263 123.035 76.3181C125.297 75.025 127.56 74.8634 129.661 74.0552C129.661 75.6715 129.337 77.1263 129.176 78.7426Z" fill="#FAC4C7"/>
<path d="M85.707 72.9242C86.9998 71.6311 88.2926 70.338 89.5853 69.0449C90.2317 70.0147 91.3628 69.6915 92.3323 69.8531C91.5244 71.3078 90.3932 72.4393 89.1005 73.4091C87.9693 73.4091 86.8382 73.0858 85.707 72.9242Z" fill="#CEC8C8"/>
<path d="M81.0218 43.668C83.2841 44.1529 84.9001 45.9309 87.0008 46.5774C87.0008 46.9007 87.1624 46.9007 87.4856 46.9007C87.4856 47.2239 87.4856 47.3856 87.8088 47.5472C87.324 48.8403 86.8393 49.1636 85.5465 48.1938C84.2538 47.2239 82.7994 46.4158 81.345 45.7692C79.8907 45.1227 80.0523 44.4761 81.0218 43.668Z" fill="#F5F5F1"/>
<path d="M62.9245 58.2149C64.5405 58.2149 66.318 57.8916 67.9339 57.8916C67.6107 58.8614 66.9643 59.6696 66.318 60.6394C64.702 60.6394 62.9245 60.9627 61.3086 60.9627C61.6318 59.9929 62.2782 59.023 62.9245 58.2149Z" fill="#F5F5F1"/>
<path d="M85.7064 53.0425C86.5144 53.3658 87.3224 53.5274 88.1303 53.689C86.676 55.1438 85.3833 56.5985 83.9289 58.0532C83.4441 57.245 82.4745 57.5683 81.8281 57.5683C83.1209 56.1136 83.9289 54.1739 85.7064 53.2041V53.0425Z" fill="#CEC8C8"/>
<path d="M122.227 98.4624C122.711 96.846 123.358 95.2296 123.519 93.4517C124.489 93.7749 125.782 94.0982 125.782 95.068C125.782 96.3611 125.135 97.6542 124.489 98.7856C124.004 99.4322 123.035 98.624 122.227 98.4624Z" fill="#FAC4C7"/>
<path d="M93.464 51.2647C94.7567 52.7194 96.5342 54.0125 97.9886 55.1439C97.9886 55.6288 97.3422 56.2753 97.9886 56.5986C99.7661 57.0835 98.3118 57.5684 97.9886 57.8917C96.0495 55.7904 94.272 53.3659 91.3633 52.3961C91.3633 51.7496 92.0097 51.4263 92.4945 51.103C92.8176 51.103 92.9792 51.103 93.3024 51.103L93.464 51.2647Z" fill="#F5F5F1"/>
<path d="M63.5676 65.1649C62.1132 65.1649 60.4973 65.1649 59.043 65.1649C59.043 64.3567 59.5278 63.5486 60.1741 62.7404C61.7901 63.2253 63.406 61.7706 64.8603 62.7404C64.3755 63.5486 64.0524 64.1951 63.5676 65.0033V65.1649Z" fill="#FAFAFA"/>
<path d="M91.5262 52.396C94.4349 53.5274 96.2125 55.7903 98.1516 57.8916C98.1516 58.3765 97.8284 58.5381 97.3437 58.5381C95.4045 56.4369 92.9807 54.8205 91.2031 52.7193C91.2031 52.7193 91.3646 52.5576 91.5262 52.396Z" fill="#141111"/>
<path d="M111.241 118.343C111.08 119.96 110.595 121.576 109.464 122.869C108.656 124.001 107.848 124.162 107.363 122.384C108.333 120.93 109.302 119.636 110.11 118.182C110.595 117.374 110.918 117.697 111.241 118.182V118.343Z" fill="#F5F5F1"/>
<path d="M64.8619 62.9026C63.246 61.7711 61.6301 63.2258 60.1758 62.9026C60.3374 62.0944 60.8222 61.4478 61.307 60.9629C62.9229 60.9629 64.7004 60.6396 66.3163 60.6396C65.8315 61.4478 65.3467 62.256 64.8619 63.0642V62.9026Z" fill="#CEC8C8"/>
<path d="M92.333 69.8523C91.3634 69.8523 90.2323 70.0139 89.5859 69.0441C90.2323 68.3976 90.8786 67.751 91.525 67.1045L94.2721 67.9127C93.7873 68.7208 93.1409 69.3674 92.333 69.8523Z" fill="#F5F5F1"/>
<path d="M85.7083 72.9238C86.8394 72.9238 87.9706 73.2471 89.1017 73.4087C88.4553 74.3785 87.4858 75.1867 86.5163 75.8333C86.3547 75.1867 85.8699 75.1867 85.3851 75.1867C84.7387 75.1867 84.2539 75.1867 84.2539 74.3785C84.7387 73.8936 85.2235 73.4087 85.8698 72.9238H85.7083Z" fill="#F5F5F1"/>
<path d="M81.8302 57.4067C82.4765 57.4067 83.4462 57.2451 83.931 57.8916C83.4462 58.8615 82.6381 59.508 81.8302 59.9929C81.0222 59.9929 80.2142 59.9929 79.4062 59.9929C80.0526 59.0231 80.8606 58.0533 81.8302 57.2451V57.4067Z" fill="#F5F5F1"/>
<path d="M123.037 60.9627C124.491 60.3162 126.107 59.6696 127.561 59.1847C128.208 59.0231 128.692 58.8614 128.692 59.6696C128.692 60.3162 129.016 60.9627 127.884 60.9627C126.268 60.9627 124.653 60.9627 122.875 60.9627H123.037Z" fill="#CEC8C8"/>
<path d="M37.875 20.231C37.7134 21.2008 37.5517 22.0089 37.3901 22.6555C37.3901 23.1404 37.7134 24.1102 36.9054 23.9486C35.9358 23.9486 35.4511 22.9788 35.6127 22.1706C35.7742 21.0392 36.4207 20.3926 37.875 20.231Z" fill="#CEC8C8"/>
<path d="M79.4064 60.1548C80.2144 60.1548 81.0223 60.1548 81.8303 60.1548C81.3455 61.1246 80.5376 61.7711 79.7296 62.5793C78.9216 62.5793 78.2753 62.5793 77.6289 62.0944C78.1137 61.2862 78.76 60.6397 79.4064 60.1548Z" fill="#CEC8C8"/>
<path d="M123.199 101.856C121.906 100.886 120.613 99.9166 119.32 99.1084V98.7852C120.451 99.1084 121.421 99.4317 122.391 99.4317C124.168 99.5933 124.168 100.402 123.199 101.695V101.856Z" fill="#CEC8C8"/>
<path d="M105.26 119.474C104.129 120.283 103.968 119.313 103.645 118.666C103.968 118.666 103.968 118.505 104.129 118.181C104.937 117.696 105.907 117.05 106.715 116.565C106.715 116.565 106.715 116.727 106.876 116.888C106.392 117.696 105.745 118.666 105.26 119.474Z" fill="#FAC4C7"/>
<path d="M77.6266 62.0942C78.273 62.5791 78.9194 62.5791 79.7273 62.5791C79.2426 63.0641 78.9194 63.5489 78.4346 64.0339C77.4651 64.0339 76.6571 64.0339 75.6875 64.0339C76.1723 63.2257 76.8187 62.5791 77.6266 62.0942Z" fill="#F5F5F1"/>
<path d="M107.199 114.302C108.492 114.626 109.3 114.787 110.27 115.11C108.654 116.242 108.33 116.242 107.199 114.302Z" fill="#E9636B"/>
<path d="M114.957 126.425C114.957 126.102 114.957 125.617 115.119 125.293C115.119 125.617 115.119 126.102 114.957 126.425Z" fill="#141111"/>
<path d="M93.1406 29.9292C93.1406 30.0908 93.1406 30.2525 93.1406 30.4141C93.1406 30.4141 93.3022 30.0908 93.4638 29.9292H93.1406Z" fill="#141111"/>
<path d="M93.4642 51.2646C93.141 51.2646 92.9794 51.2646 92.6562 51.2646C92.9794 50.7797 93.3026 50.7797 93.4642 51.2646Z" fill="#E9636B"/>
<path d="M95.2416 27.3428C95.08 27.6661 94.7568 27.6661 94.4336 27.5044C94.4336 27.3428 94.7567 27.1812 94.7567 27.0195C94.7567 27.0195 95.0799 27.1812 95.0799 27.3428H95.2416Z" fill="#CEC8C8"/>
<path d="M87.6483 47.547C87.3251 47.547 87.1635 47.2237 87.3251 46.9005C87.4867 46.9005 87.8099 46.7388 87.9715 46.9005C88.1331 47.2237 87.9715 47.3854 87.6483 47.3854V47.547Z" fill="#E9636B"/>
<path d="M75.5277 40.7583C75.5277 40.7583 75.2046 40.4351 75.043 40.2734C75.043 40.2734 75.3661 40.2734 75.5277 40.2734C75.5277 40.2734 75.6893 40.4351 75.8509 40.5967C75.8509 40.5967 75.6893 40.7583 75.5277 40.92V40.7583Z" fill="#E9636B"/>
<path d="M103.969 118.182C103.969 118.343 103.969 118.667 103.484 118.667C103.484 118.343 103.646 118.343 103.969 118.182Z" fill="#E9636B"/>
<path d="M75.5273 40.2735C75.5273 40.2735 75.8505 40.1119 76.0121 40.2735C76.0121 40.2735 76.0121 40.4351 75.8506 40.5968C75.8506 40.5968 75.6889 40.4351 75.5273 40.2735Z" fill="#E9636B"/>
<path d="M87.3246 46.9004C87.0014 46.9004 86.8398 46.9004 86.8398 46.5771C87.0014 46.5771 87.3246 46.5771 87.3246 46.9004Z" fill="#E9636B"/>
<path d="M49.8351 32.9998C48.8656 32.6765 47.896 32.5149 46.9265 32.1916C46.2801 32.0299 45.7953 31.545 46.1185 30.8985C46.2801 30.252 46.9265 30.0903 47.5729 30.4136C48.5424 30.8985 49.5119 31.2218 50.3199 31.7067C50.6431 31.8683 51.1279 32.1916 50.8048 32.5148C50.8048 32.6765 50.3199 32.6765 49.8351 32.8381V32.9998Z" fill="#141111"/>
<path d="M45.4701 20.5539C45.3086 18.6142 46.1165 17.1595 47.4093 16.0281C47.7325 15.7048 48.2173 15.3815 48.5405 16.0281C49.0252 16.513 48.5405 16.8362 48.3789 17.1595C47.4094 18.291 46.4397 19.4224 45.3086 20.5539H45.4701Z" fill="#141111"/>
<path d="M44.5001 25.0797C44.177 25.7262 44.5001 27.0193 43.8537 27.0193C42.8842 27.0193 42.8842 25.7262 42.7227 24.9181C42.7227 24.4332 42.7227 23.7866 43.5306 23.7866C44.5002 23.7866 44.5001 24.4332 44.5001 25.2413V25.0797Z" fill="#141111"/>
</svg>
