<svg width="40" height="40" viewBox="0 0 40 40" fill="none" xmlns="http://www.w3.org/2000/svg">
<g clip-path="url(#clip0_2637_26970)">
<path d="M10 0C15.5228 0 20 4.47715 20 10V22.5H0V10C0 4.47715 4.47715 0 10 0Z" fill="url(#paint0_linear_2637_26970)"/>
<path d="M30 0C24.4772 0 20 4.47715 20 10V22.5H40V10C40 4.47715 35.5229 0 30 0Z" fill="url(#paint1_linear_2637_26970)"/>
<path d="M30 16.25C30 10.7271 25.5228 6.25 20 6.25C14.4771 6.25 10 10.7271 10 16.25C10 21.7729 14.4771 26.25 20 26.25C25.5228 26.25 30 21.7729 30 16.25Z" fill="url(#paint2_linear_2637_26970)"/>
<path d="M40 10.0005C40 9.93506 39.9994 9.86981 39.9981 9.80469H39.9911C39.7482 15.6321 34.5804 20.3256 28.125 20.6117V20.6255C22.6021 20.6255 18.125 24.9628 18.125 30.313C18.125 35.6633 22.6021 40.0005 28.125 40.0005L28.1849 40.0003C38.1325 39.9612 40 30.1737 40 25.6255V10.0005Z" fill="url(#paint3_linear_2637_26970)"/>
<path d="M0 25.6255C0 30.1737 1.86751 39.9612 11.8151 40.0003L11.875 40.0005C17.3979 40.0005 21.875 35.6633 21.875 30.313C21.875 24.9628 17.3979 20.6255 11.875 20.6255V20.6117C5.41956 20.3256 0.251808 15.6321 0.00892963 9.80469H0.00187806C0.000627919 9.86981 0 9.93506 0 10.0005V25.6255Z" fill="url(#paint4_linear_2637_26970)"/>
</g>
<defs>
<linearGradient id="paint0_linear_2637_26970" x1="3.75" y1="19.5833" x2="8.15375" y2="-1.2854" gradientUnits="userSpaceOnUse">
<stop stop-color="#053377"/>
<stop offset="1" stop-color="#2F91F2"/>
</linearGradient>
<linearGradient id="paint1_linear_2637_26970" x1="33.3506" y1="3.09664" x2="23.3333" y2="18.125" gradientUnits="userSpaceOnUse">
<stop stop-color="#4AC1FF"/>
<stop offset="0.926632" stop-color="#155EB5"/>
</linearGradient>
<linearGradient id="paint2_linear_2637_26970" x1="17.2917" y1="8.95831" x2="27.0833" y2="28.3333" gradientUnits="userSpaceOnUse">
<stop stop-color="#96DFFF"/>
<stop offset="0.413439" stop-color="#53ADEE"/>
<stop offset="1" stop-color="#006BB9"/>
</linearGradient>
<linearGradient id="paint3_linear_2637_26970" x1="25.1415" y1="24.2821" x2="35.7002" y2="41.8414" gradientUnits="userSpaceOnUse">
<stop offset="0.0799194" stop-color="#4AC1FF"/>
<stop offset="1" stop-color="#155EB5"/>
</linearGradient>
<linearGradient id="paint4_linear_2637_26970" x1="4.15123" y1="17.3564" x2="14.07" y2="41.2261" gradientUnits="userSpaceOnUse">
<stop stop-color="#2F91F2"/>
<stop offset="1" stop-color="#053377"/>
</linearGradient>
<clipPath id="clip0_2637_26970">
<rect width="40" height="40" fill="white"/>
</clipPath>
</defs>
</svg>
