<svg id="Layer_2" data-name="Layer 2" xmlns="http://www.w3.org/2000/svg" xmlns:xlink="http://www.w3.org/1999/xlink" viewBox="0 0 206 202"><defs><linearGradient id="_Безымянный_градиент_4-2" data-name="Безымянный градиент 4" x1="105.52" y1="43.84" x2="115.1" y2="43.84" xlink:href="#_Безымянный_градиент_4"/><linearGradient id="_Безымянный_градиент_10-7" data-name="Безымянный градиент 10" x1="110.04" y1="97.99" x2="188.82" y2="97.99" xlink:href="#_Безымянный_градиент_10"/><linearGradient id="_Безымянный_градиент_10-2" data-name="Безымянный градиент 10" x1="13.24" y1="77.07" x2="58.05" y2="77.07" xlink:href="#_Безымянный_градиент_10"/><linearGradient id="_Безымянный_градиент_10-3" data-name="Безымянный градиент 10" x1="63.59" y1="154.06" x2="63.59" y2="133.13" xlink:href="#_Безымянный_градиент_10"/><linearGradient id="_Безымянный_градиент_10-4" data-name="Безымянный градиент 10" x1="63.62" y1="178.93" x2="63.62" y2="158.46" xlink:href="#_Безымянный_градиент_10"/><linearGradient id="_Безымянный_градиент_4" data-name="Безымянный градиент 4" x1="72.44" y1="41.45" x2="103.57" y2="41.45" gradientUnits="userSpaceOnUse"><stop offset="0" stop-color="#0abbef"/><stop offset=".24" stop-color="#0d9acf"/><stop offset=".76" stop-color="#14598e"/><stop offset="1" stop-color="#174075"/></linearGradient><linearGradient id="_Безымянный_градиент_10" data-name="Безымянный градиент 10" x1="118.27" y1="73.75" x2="153.87" y2="73.75" gradientUnits="userSpaceOnUse"><stop offset="0" stop-color="#ffed00"/><stop offset=".09" stop-color="#fde204"/><stop offset=".71" stop-color="#f2a120"/><stop offset="1" stop-color="#ee882c"/></linearGradient><linearGradient id="_Безымянный_градиент_14" data-name="Безымянный градиент 14" x1="71.74" y1="72.8" x2="115.43" y2="72.8" gradientUnits="userSpaceOnUse"><stop offset="0" stop-color="#76b82a"/><stop offset=".58" stop-color="#5b8d2b"/><stop offset="1" stop-color="#4c742c"/></linearGradient><linearGradient id="_Безымянный_градиент_10-5" data-name="Безымянный градиент 10" x1="69.88" y1="98.87" x2="90.85" y2="98.87" xlink:href="#_Безымянный_градиент_10"/><linearGradient id="_Безымянный_градиент_12" data-name="Безымянный градиент 12" x1="93.14" y1="99.06" x2="117.63" y2="99.06" gradientUnits="userSpaceOnUse"><stop offset="0" stop-color="#ec5f6c"/><stop offset=".59" stop-color="#c0434d"/><stop offset="1" stop-color="#a7333c"/></linearGradient><linearGradient id="_Безымянный_градиент_10-6" data-name="Безымянный градиент 10" x1="152.52" y1="132.44" x2="193.7" y2="132.44" xlink:href="#_Безымянный_градиент_10"/><style>.cls-14,.cls-15,.cls-4{stroke-width:0}.cls-4{fill:#000}.cls-14{fill:#fff}.cls-15{fill:#ffed00}</style></defs><g id="_Наведение" data-name="Наведение"><g id="_1" data-name="1"><path class="cls-14" d="M153.52 78.33c-.13-.82-2.27-1.75-2.67-1.69-.39.05-1.75.06-1.75.06l1.03-33.09 1.07-21.19h-2.97l-12.05 3.76-15.78 4.71-.09.03v.15l-1.8 66.2 1.01-.37-1.01 2.47-.18 3.82-.69 14.5.82.25 12.77 3.83 12.08 3.27 3.42.03 1.24-22.62s2.77.19 3.23-.85c.47-1.04 1.09-2.02 1.09-2.02l-.05-3.12-.15-.05 1.07-12.15h.21l.5-3.27s-.23-1.85-.35-2.66zm-2.66 6.56-.22 4.49-.34 6.54-1.11 2.05-.96.17.12-11.75.12-.05.36-5.52.73-.2s.63.46 1.17.99c.55.54.16 2.57.16 2.65 0 .01.07.02.17.02l-.2.61z"/><path class="cls-14" d="m120.31 27.37-2.98 98.6h.31l-2.03 61.53v.12l-.13 13.92h-8.5l-.05-13.59-88.73-.15-.14 13.74-8.46-.52-.45-13.4-.5-60.78h.46l-1-17.54-3.05-80.56-2.13.02-2.22.03V21.6l1.22-4.03 30.36.08s8.87-11.52 17.35-13.9C58.13 1.38 66.29.5 66.29.5s14.03 1.22 17.68 2.79c3.65 1.57 12.81 6.92 12.82 7.49.01.56 5.56 8.31 5.56 8.31l.79.05 23.36 1.33.31 6.82-6.5.08z"/><path d="M153.52 78.33c-.13-.82-2.27-1.75-2.67-1.69-.39.05-1.75.06-1.75.06l1.03-33.09 1.07-21.19h-2.97l-12.05 3.76-15.78 4.71s-.01.02-.02.03c-.03.05-.05.1-.07.15-.05.1-.09.21-.12.32-.1.37-.13.74-.15 1.11-.92 18.54-1.36 37.09-1.57 55.65v.24c-.07 4.93-.11 9.86-.14 14.8-.03 3.78-.05 7.56-.06 11.34-.01 1.13 0 2.29.19 3.41l12.77 3.83 12.08 3.27 3.42.03 1.24-22.62s2.77.19 3.23-.85c.47-1.04 1.09-2.02 1.09-2.02l-.05-3.12-.15-.05 1.07-12.15h.21l.5-3.27s-.23-1.85-.35-2.66zm-2.66 6.56-.22 4.49-.34 6.54-1.11 2.05-.96.17.12-11.75.12-.05.36-5.52.73-.2s.63.46 1.17.99c.55.54.16 2.57.16 2.65 0 .01.07.02.17.02l-.2.61z" style="fill:url(#_Безымянный_градиент_10);stroke-width:0"/><path d="M58.05 116.85c-12.51-.55-25.07-.02-37.49 1.57-.5.07-1.06.12-1.45-.19-.32-.26-.44-.69-.54-1.09-1.27-5.29-1.68-10.75-2.07-16.19-1.47-21.12-2.56-42.26-3.26-63.42-.01-.38-.01-.8.22-1.11.31-.41.9-.45 1.41-.46 13.08-.24 26.17-.34 39.26-.3l.02.42c.57-.04 1.14-.09 1.7-.13.32 9.65.64 19.31.95 28.96.25 7.71.51 15.47-.18 23.14l1.31 27.55.12 1.25z" style="stroke-width:0;fill:url(#_Безымянный_градиент_10-2)"/><path style="fill:url(#_Безымянный_градиент_10-3);stroke-width:0" d="M17.71 133.13h91.76v20.93H17.71z"/><path style="fill:url(#_Безымянный_градиент_10-4);stroke-width:0" d="M17.72 158.46h91.8v20.47h-91.8z"/><path style="fill:#ee882c;stroke-width:0" d="M115.61 187.5v.12l-.13 13.92h-8.5l-.05-13.59-88.73-.15-.14 13.74-8.46-.52V187.5h106.01z"/><ellipse class="cls-14" cx="63.66" cy="168.8" rx="2.88" ry="3.04"/><ellipse class="cls-14" cx="63.36" cy="142.01" rx="2.88" ry="3.04"/><path class="cls-14" d="M19.54 136.04c1.57.58 3.25.81 4.9 1.04-2.23-.24-4.51-.47-6.73-.1v-3.85h28.46l.82.22c-9.06.97-18.22.56-27.31 1.23-.05.48-.09.97-.14 1.46zM36.24 143.03c-6.17.46-12.34.68-18.53.66v-3.81c3.57-.04 7.15.17 10.7.62l-.2.25-8.87.33c-.07 0-.15 0-.21.04-.22.13-.13.58-.38.65 3.92.76 7.94.77 11.93.78 1.87.01 3.75.02 5.56.48zM18.82 148.37c-.07.06-.09.17-.1.26-.04.7.52 1.38 1.21 1.46-.49.31-1.03.54-1.59.67a2.41 2.41 0 0 0 1.84 1.51l-1.32.15c1.39.83 3.08.89 4.7.99 2.38.15 4.75.42 7.13.65H17.71v-6.88c1.4-.41 2.88-.29 4.33-.2 4.29.25 8.59.1 12.85-.44.71-.09 1.43-.2 2.14-.11-2.06.12-4.03.86-6.08 1.16-1.29.19-2.6.2-3.9.24-2.66.08-5.32.27-7.97.47-.09 0-.19.01-.26.07zM109.47 133.13v7.61c-1.36 0-2.73-.04-4.09-.12.65-.34 1.33-.62 2.04-.83.36-.12.74-.22 1.02-.47.29-.24.45-.69.25-1.01-2.78-.41-5.64.37-8.42-.02 2.57-.39 5.13-.91 7.66-1.56l.3-2.06c.01-.08.02-.16-.01-.23-.06-.09-.18-.12-.29-.14a88.27 88.27 0 0 0-11.02-.84l5.55-.33h7.01zM109.47 142.01v12.05h-9.95c2.57-.52 5.15-1.02 7.73-1.54.08-.02.17-.04.23-.09.08-.07.1-.17.13-.27l.39-1.6c-1.19-.08-2.36-.26-3.52-.53 1.12-.09 2.23-.32 3.29-.68l-3.83-.45c1.62-.43 3.24-.87 4.79-1.51-3.3-.03-6.61-.2-9.9-.49 3.47-.48 6.98-.72 10.48-.95-1.22-.54-2.43-1.07-3.65-1.6l3.81-2.34zM109.52 158.46v3.41c-1.14-.36-2.32-.58-3.51-.68a6.58 6.58 0 0 1 1.62-.9c.04-.25-.32-.33-.57-.31-6.99.59-14.08.08-20.91-1.52h23.37zM109.52 169.3v2.06c-.78-.15-1.56-.3-2.33-.44-1.65-.31-3.34-.62-4.99-.31-1.2.22-2.41.77-3.6.49-.3-.08-.58-.2-.88-.27-.63-.15-1.29-.06-1.94-.02-2.29.15-4.57-.31-6.82-.77l-.02-.11c3.15-.72 6.46-.78 9.64-.18.21.04.42.09.63.08.27-.01.53-.1.78-.2.49-.21.96-.46 1.47-.56.54-.11 1.09-.03 1.64.04 1.25.17 2.51.33 3.77.5.55.08 1.11.15 1.66.07.35-.05.7-.18.99-.38zM109.52 166.4v1.54c-2.37-.2-4.82.19-7.15-.34l.17-.02a14.19 14.19 0 0 1 6.77-1.21c.07 0 .15.01.21.03zM109.52 173.89v5.04H97.26c3.14-.77 6.41-.96 9.64-1.24.2-.01.41-.03.58-.13.35-.19.5-.64.84-.84-.92.09-1.85.03-2.76-.18.94-.49 1.82-1.07 2.64-1.74.01-.1-.11-.14-.21-.15-1.75-.23-3.5-.47-5.24-.7l6.77-.06zM36.79 162.06c.08 0 .16 0 .24.01-1.16.83-2.67.97-4.1.95-1.42-.03-2.87-.2-4.27.11-.56.12-1.1.32-1.66.41-2.41.4-4.86-1.12-7.25-.6-.01.66-.02 1.32-.04 1.98 0 .07 0 .15.04.22.05.11.18.15.3.18 1.29.35 2.63.55 3.96.62-2.07.38-4.18.54-6.29.47v-7.95h17.4l3.71.16c-6.33-.03-12.6 1.45-18.94 1.47.08.35.09.71.04 1.06-.01.16-.04.32-.08.48-.03.08-.05.16-.02.24.05.1.17.13.28.15 1.59.29 3.17.57 4.75.86.57.1 1.14.2 1.71.18 1.1-.05 2.11-.56 3.17-.85.56-.16 1.16-.26 1.74-.15.49.1.95.35 1.45.45 1.27.26 2.56-.47 3.86-.45z"/><path class="cls-14" d="M37 162.02c-1.62-.47-3.37-.25-4.99-.72-.51-.15-1.01-.36-1.54-.41-1.35-.13-2.58.83-3.93.9-.58.03-1.14-.11-1.71-.22-1.31-.26-2.64-.41-3.98-.43-.76-.01-1.55.02-2.23.35-.19.09-.39.27-.32.47.03.08.11.14.19.19 1.22.77 2.81.41 4.24.57 1.13.13 2.2.6 3.33.64 1.2.03 2.36-.43 3.55-.63 1.23-.21 2.51-.14 3.71.2l3.67-.9zM18.85 171.71c2.72.88 5.5 1.57 8.31 2.07l-8.45-.29c-.38-.15-.66-.13-.99-.11v-3.73c2.68.6 5.46.6 8.21.59 1.38 0 2.77 0 4.14-.17a16.976 16.976 0 0 1-11.03.66c-.08-.02-.17-.04-.22.02-.04.04-.04.11-.04.17.03.26.05.53.07.79zM52.51 74.87l.54 3.66c.02.15.04.32-.08.42-.1.09-.25.08-.38.06l-1.47-.18c-.19-.02-.4-.05-.58.03-.22.09-.36.31-.47.52-.61 1.2-.64 2.6-.62 3.94.01 1.08.04 2.16.08 3.24.07 2.37.14 4.75.33 7.11.06.71.15 1.47.63 2s1.5.58 1.81-.06c.57.96.96 2.03 1.13 3.13.03.2.05.42-.05.6-.14.26-.47.33-.76.38-1.04.15-2.09.22-3.14.2-.31 0-.64-.02-.91-.17-.42-.22-.63-.7-.8-1.15-1.83-4.99-1.44-10.48-.99-15.77.17-2.03.36-4.08.9-6.04.21-.76.52-1.57 1.21-1.94.36-.19.78-.24 1.18-.27.66-.04 1.32-.03 1.97.03"/><path class="cls-15" d="M103.14 19.14c-.33.32-.75.52-1.22.49-.65-.04-1.19-.47-1.7-.88C89.93 10.42 76.79 5.68 63.56 5.51c-6.02-.08-12.15.79-17.53 3.48s-9.94 7.36-11.62 13.13c-10.32-.56-20.66-.65-30.98-.25-.47 2.26-.64 4.58-.5 6.89l-2.22.03V21.6l1.22-4.03 30.36.08s8.87-11.52 17.35-13.9C58.13 1.38 66.29.5 66.29.5s14.03 1.22 17.68 2.79c3.65 1.57 12.81 6.92 12.82 7.49.01.56 5.56 8.31 5.56 8.31l.79.05z"/><path d="M78.17 34.57c-.94.22-1.91.44-2.71.98s-1.42 1.47-1.3 2.43c.04.31.15.61.13.92-.05.71-.73 1.17-1.17 1.73-1.15 1.46-.6 3.58.01 5.34.23.65.47 1.34 1 1.79.86.74 2.13.63 3.26.51 8.7-.9 17.58.83 26.19-.7-.96-4.09-1.54-8.26-1.72-12.45-2.16-.43-4.36-.62-6.56-.55" style="fill:url(#_Безымянный_градиент_4);stroke-width:0"/><path d="M105.76 40.15c-.43 2.45-.29 5 .38 7.39 1.98-.4 4.02-.41 6.04-.43.21 0 .42 0 .63.03.2.03.39.1.59.15.55.14 1.13.15 1.7.13-.26-.79-.4-1.61-.43-2.44-.02-.54.01-1.08 0-1.63a9.24 9.24 0 0 0-.63-3.07" style="fill:url(#_Безымянный_градиент_4-2);stroke-width:0"/><path d="M115.34 81.38c.29-2.58-.22-5.18-.72-7.73-.32-1.65-.69-3.38-1.8-4.64-.18-.2-.38-.39-.64-.48-.28-.09-.58-.04-.86.02-1.5.3-2.95.79-4.32 1.47-.57-.77-.53-1.85-.24-2.77s.8-1.75 1.12-2.65c.05-.12.09-.26.05-.39-.08-.23-.37-.29-.62-.31-10.6-.85-21.25-.24-31.86.42-.46.03-.96.07-1.31.36-.31.25-.47.66-.58 1.04a8.851 8.851 0 0 0-.2 4.06c.06.34.15.69.1 1.04-.06.42-.31.78-.52 1.14-1.55 2.6-1.61 6.02-.16 8.67.24.45.55.89.99 1.14.43.24.94.26 1.43.28 5.19.18 9.87-.14 15.06-.4 2.88-.14 6.28-.07 9.16-.04 2.33.03 4.66.22 6.99.24 1.85.02 3.7-.06 5.55-.14 1.03-.05 2.06-.09 3.09-.14" style="fill:url(#_Безымянный_градиент_14);stroke-width:0"/><path d="M86.67 89.93c.38 1.3-.02 2.8-1.01 3.74 1.04.06 2.19.17 2.87.95.12.14.23.32.22.51-.03.32-.36.5-.65.63-1.2.52-2.41 1.05-3.61 1.57 1.18.71 2.11 1.82 2.61 3.1.08.2.15.41.32.53.12.08.26.12.4.15 1.06.27 2.07.88 2.62 1.82s.58 2.22-.1 3.08c-.49.61-1.25.94-1.99 1.18-1.03.33-2.09.56-3.17.67-1.07.11-2.15.1-3.22.09-3.67-.02-7.35-.04-11.02-.07-.19 0-.41-.02-.52-.17-.07-.1-.07-.23-.07-.35-.04-5.72-.86-11.46-.19-17.15.02-.14.04-.29.15-.37.09-.07.21-.07.32-.07h4.86c3.44 0 6.88.01 10.32.12" style="fill:url(#_Безымянный_градиент_10-5);stroke-width:0"/><path d="M100.06 90.28c-.69.05-1.4.1-2.05.34s-1.26.69-1.51 1.32c-.36.9.05 1.92-.13 2.86-.12.63-.49 1.18-.83 1.73a20.39 20.39 0 0 0-1.61 3.2c-.43 1.06-.77 2.17-.79 3.31-.03 1.23.3 2.43.68 3.61.07.22.15.45.3.63.38.44 1.06.44 1.65.42 5.18-.23 10.38.44 15.54-.03 2.11-.19 4.21-.58 6.33-.44-.03-2.95-.07-5.9-.1-8.85-.02-1.97-.08-4.07-1.18-5.72-.34-.51-.8-.98-1.38-1.18-.34-.12-.72-.15-1.08-.18-4.63-.33-9.25-.65-13.88-.98" style="fill:url(#_Безымянный_градиент_12);stroke-width:0"/><g><path class="cls-4" d="M.51 27.86a.1.1 0 0 0 .1-.1c-.08-1.7-.04-3.39.17-5.06.2-1.52.49-3.02.91-4.48 2.49-.11 4.98-.19 7.47-.23 2.62-.05 5.25-.04 7.87 0 2.62.03 5.24.14 7.86.24 2.62.13 5.23.27 7.85.47h.02a.99.99 0 0 0 1.02-.67c.52-1.52 1.3-2.96 2.28-4.26.99-1.3 2.18-2.47 3.45-3.55 2.57-2.14 5.56-3.82 8.65-5.27C54.35 2.08 61.28.63 68.12.96c3.42.14 6.81.68 10.09 1.5 3.28.82 6.48 1.94 9.52 3.42 3.03 1.48 5.85 3.38 8.36 5.64 2.5 2.27 4.6 5 6.19 8.06.02.04.08.07.12.05.05-.02.08-.08.06-.13-1.15-3.28-3.05-6.33-5.49-8.88a32.406 32.406 0 0 0-8.47-6.27c-3.14-1.61-6.47-2.86-9.93-3.52-3.46-.64-6.96-.92-10.45-.8-6.96.22-13.85 1.45-20.39 3.92-3.25 1.25-6.46 2.76-9.29 4.94-2.63 1.97-4.93 4.59-6.27 7.75-2.39-.24-4.79-.43-7.2-.54-2.65-.14-5.3-.15-7.95-.13-2.65.03-5.3.14-7.94.31-2.64.17-5.28.43-7.9.77h-.05c-.23.04-.42.2-.48.44-.37 1.69-.62 3.42-.65 5.15-.03 1.73.08 3.45.4 5.14 0 .05.05.08.1.08zM63.36 138.97c.8 0 1.58.35 2.1.94s.75 1.37.69 2.1c-.12 1.5-1.47 2.57-2.79 2.54-1.33.03-2.67-1.04-2.79-2.54-.06-.73.17-1.51.69-2.1.52-.59 1.3-.94 2.1-.94-1.59-.03-3.18 1.27-3.29 3.04-.06.86.22 1.78.84 2.46.61.68 1.53 1.08 2.46 1.09.93 0 1.85-.41 2.45-1.09.61-.68.9-1.59.84-2.45-.11-1.77-1.7-3.08-3.29-3.04zM63.59 165.76c.8 0 1.58.35 2.1.94s.75 1.37.69 2.1c-.12 1.5-1.47 2.57-2.79 2.54-1.33.03-2.67-1.04-2.79-2.54-.06-.73.17-1.51.69-2.1.52-.59 1.3-.94 2.1-.94-1.59-.03-3.18 1.27-3.29 3.04-.06.86.22 1.78.84 2.46.61.68 1.53 1.08 2.46 1.09.93 0 1.85-.41 2.45-1.09.61-.68.9-1.59.84-2.45-.11-1.77-1.7-3.08-3.29-3.04zM49.1 74.96c.58-.44 1.36-.66 2.08-.39.02 0 .05 0 .06-.02.01-.02 0-.05-.02-.07-.72-.38-1.63-.23-2.31.19-.54.31-.98.8-1.27 1.36-.9.31-1.79.7-2.32 1.47-.35.51-.5 1.13-.61 1.74-.41 2.25-.47 4.54-.47 6.82 0 2.21.06 4.43.12 6.64.05 1.99.1 3.99.52 5.93.17.78.41 1.58.94 2.17.7.77 1.78 1.06 2.81 1.16.83.08 1.69.07 2.46-.25.65-.27 1.21-.8 1.45-1.45.15-.04.3-.09.47-.16.21-.1.43-.29.52-.54.09-.25.08-.48.06-.68-.04-.4-.1-.79-.2-1.17-.19-.77-.49-1.51-.9-2.18s-.05-.07-.09-.08a.151.151 0 0 0-.2.11c-.14.45-.78.56-1.24.37-.48-.18-.74-.7-.85-1.22-.17-1.07-.08-2.24-.11-3.36-.02-2.27 0-4.54-.1-6.8l-.16-3.38c0-.53.05-1.05.27-1.45.22-.4.63-.71 1.02-.74.19-.02.41.06.68.16.27.09.55.25.98.21.45-.04.76-.51.75-.86.02-.35-.08-.64-.14-.91-.29-1.1-.56-2.2-.88-3.29 0-.02-.03-.04-.05-.04-.03 0-.05.03-.04.06.15 1.13.33 2.25.5 3.37.05.28.1.55.07.77-.03.21-.14.31-.28.31-.15.01-.4-.1-.65-.22-.25-.11-.57-.27-.95-.27-.76.01-1.34.5-1.69 1.07-.34.6-.41 1.24-.42 1.84.02 1.17.04 2.28.1 3.42.09 2.26.29 4.52.46 6.79l.13 1.7c.04.56.05 1.14.19 1.72.13.56.43 1.2 1.06 1.43.29.11.61.15.93.08.21-.04.41-.16.57-.34.31.58.55 1.2.68 1.84.07.37.11.74.13 1.11.02.39-.06.6-.34.71-.65.15-1.39.28-2.09.26-.4-.08-.79-.19-1.18-.3-.12-.04-.24-.07-.36-.12a2.11 2.11 0 0 1-.36-.31c-.46-.47-.71-1.15-.84-1.85-.04-.21-.06-.44-.08-.66-.04-.55-.06-1.1-.08-1.65l.06-4.52c.03-3.08-.03-6.16-.1-9.25.01-1.54-.21-3.1.18-4.51.19-.7.58-1.33 1.17-1.77zM55.73 35.83c-.06 0-.1.04-.11.09-.24 3.36-.33 6.71-.32 10.06 0 3.35.06 6.7.29 10.04.26 3.34.67 6.68.86 10.02.19 3.34.19 6.7.13 10.05-.08 3.35-.11 6.71-.04 10.06.05 3.35.08 6.7.23 10.05.32 6.69.8 13.38 1.67 20.05 0 .05.04.08.09.09.06 0 .1-.04.11-.09.4-6.72.41-13.42.26-20.12-.09-3.35-.29-6.69-.48-10.04-.16-3.35-.43-6.69-.74-10.03-.29-3.34-.53-6.68-.57-10.03-.04-3.35.13-6.71.16-10.06 0-3.35-.18-6.7-.41-10.04-.23-3.34-.55-6.68-1.03-10.02 0-.05-.04-.08-.09-.09z"/><path class="cls-4" d="M13.17 46.73c0 3.42.05 6.83.3 10.24l.49 5.11c.18 1.7.36 3.4.48 5.1.25 3.41.32 6.82.35 10.24.02 3.42.09 6.84.28 10.25.18 3.41.35 6.82.65 10.23.64 6.8 1.51 13.59 2.83 20.31 0 .05.05.08.1.08a.1.1 0 0 0 .1-.1c-.07-6.85-.44-13.66-.91-20.46-.25-3.4-.59-6.79-.9-10.19-.28-3.4-.66-6.79-1.07-10.18-.38-3.39-.69-6.79-.79-10.2-.1-3.41.04-6.83.04-10.24 0-1.71-.05-3.41-.14-5.11-.07-1.7-.16-3.41-.28-5.11-.21-3.41-.5-6.81-.93-10.21 0-.03-.03-.04-.06-.06 1.67.34 3.34.5 5 .62 1.77.1 3.53.16 5.3.03 1.77-.14 3.53-.48 5.29-.56 1.76-.09 3.53-.01 5.3.14 1.77.16 3.54.28 5.31.29 1.77.04 3.54.06 5.3 0 3.53-.19 7.06-.53 10.56-1.31.04 0 .07-.04.08-.08 0-.06-.03-.11-.09-.12-3.55-.51-7.08-.63-10.61-.63-1.76.03-3.52.13-5.29.25-1.76.09-3.52.28-5.28.5-1.76.22-3.52.35-5.29.3-1.77-.03-3.53-.34-5.3-.45-1.76-.1-3.53-.03-5.29.09-1.76.13-3.53.3-5.29.68-.04 0-.07.04-.08.08-.01.06.02.11.08.12.07.02.14.03.21.04-.03.02-.06.04-.06.08-.29 3.42-.41 6.84-.42 10.26zM58.79 117.03c-3.29-.72-6.61-.97-9.92-1.04-1.66 0-3.31.08-4.97.2-1.66.09-3.31.29-4.95.55-1.65.25-3.29.43-4.95.45-1.65.03-3.33-.19-4.99-.2-1.66 0-3.31.19-4.95.44-1.64.27-3.27.59-4.88 1.13-.04.01-.06.04-.07.08 0 .06.03.11.09.11 1.68.22 3.34.23 4.99.22 1.65-.03 3.3-.09 4.93-.32 1.64-.24 3.26-.66 4.91-.81 1.64-.15 3.3-.13 4.96 0 1.66.13 3.31.23 4.96.25 1.65.05 3.3.08 4.94.04 3.29-.12 6.59-.33 9.9-.89.04 0 .07-.04.08-.08.01-.05-.02-.11-.08-.12zM109.47 132.83l-22.94-.19-22.94-.04-22.94.08-22.94.18c-.15 0-.27.12-.27.27.07 6.89.11 13.78.12 20.67 0 .09.07.16.16.16 7.66 0 15.31.04 22.99.13l11.53.1 11.52.02 22.96-.13 22.78-.25.16-10.29.11-10.41c0-.17-.13-.3-.3-.3zm-23.13 20.68-22.91-.13-11.41.02-11.41.1c-7.56.09-15.14.13-22.73.13v-1.38c1.28.34 2.55.46 3.82.56 1.33.06 2.65.1 4.03-.12-1.28-.57-2.62-.79-3.97-.88-1.29-.06-2.6 0-3.88.36 0-.71.01-1.42.01-2.12.51.3 1.02.39 1.53.4.57-.02 1.15-.1 1.72-.49-.57-.4-1.14-.49-1.71-.5-.51.01-1.02.1-1.53.39 0-.91.01-1.82.02-2.74 2.32-.05 4.61.19 6.93.37 1.19.11 2.39.15 3.61.13 1.21-.02 2.42-.15 3.61-.29 2.37-.31 4.7-.69 7.04-.7 1.17-.01 2.36.1 3.56.14 1.2 0 2.43-.04 3.57-.41-1.19.15-2.37.09-3.54-.08-1.17-.13-2.35-.34-3.57-.42-2.44-.17-4.84.2-7.19.48-2.35.34-4.67.42-7.06.38-1.19 0-2.39-.03-3.58 0-1.13.06-2.26.14-3.37.36 0-1.15.01-2.29.02-3.44 3.36.27 6.71.27 10.06.18 3.42-.12 6.83-.31 10.25-.8-3.43-.29-6.85-.28-10.27-.19-3.35.11-6.69.3-10.03.78 0-1.21.01-2.41.02-3.62 1.99.14 3.89.37 5.85.55 2.03.17 4.14.3 6.18-.19-2.06-.31-4.04-.61-6.09-.81-1.95-.16-4.01-.21-5.94.35 0-.97 0-1.94.02-2.9 2.44.32 4.86.45 7.28.59 2.51.12 5.01.25 7.56.17-2.45-.71-4.98-1.02-7.5-1.17-2.44-.11-4.9-.06-7.33.34 0-1.17 0-2.34.02-3.51l22.67.18 22.94.08 22.94-.04 22.64-.19.05 4.67c-3.12-.34-6.25-.4-9.38-.38-3.21.05-6.42.17-9.61.59 3.22.36 6.42.42 9.63.4 3.12-.04 6.24-.17 9.37-.57l.03 2.6c-1.39-.52-2.84-.73-4.29-.8-1.53-.05-3.06.04-4.56.5 1.53.33 3.02.42 4.52.5 1.43.05 2.86.07 4.33-.1l.03 2.54v.98c-.55-.35-1.14-.47-1.73-.53-.65-.03-1.31.02-1.98.37.62.44 1.27.57 1.92.63.6.02 1.2-.02 1.81-.3l.04 2.33c-1.47.01-2.89-.17-4.33-.34-1.48-.2-3.01-.34-4.52-.36-3.03-.03-6.08.29-8.99 1.16 3.03-.09 6-.22 8.97-.16 1.49 0 2.97.1 4.48.14 1.46.05 2.97-.02 4.39-.4l.05 3.49c-1.02-.39-2.04-.51-3.07-.55-1.05-.01-2.11.05-3.17.42 1.04.42 2.09.54 3.15.58 1.03 0 2.06-.05 3.09-.4l.05 3.32-23.1-.25zM109.47 158.16l-22.94-.19-22.94-.04-22.94.08-22.94.18c-.15 0-.27.12-.27.27.07 6.89.11 13.78.12 20.67 0 .09.07.16.16.16 7.66 0 15.31.04 22.99.13l11.53.1 11.52.02 22.96-.13 22.78-.25.16-10.29.11-10.41c0-.17-.13-.3-.3-.3zm-23.13 20.68-22.91-.13-11.41.02-11.41.1c-7.56.09-15.14.13-22.73.13 0-.7.01-1.39.01-2.09 1.11.56 2.35.75 3.56.75 1.28-.03 2.57-.27 3.71-.93-1.3-.12-2.51-.07-3.73-.07-1.16.03-2.32.02-3.55.16 0-1.13.02-2.25.02-3.38 1.61.35 3.2.48 4.8.58.83.04 1.66.07 2.5.05.82-.01 1.73 0 2.54-.34-.86-.09-1.63-.31-2.47-.44-.83-.15-1.67-.22-2.51-.27-1.61-.1-3.23.02-4.82.3-.04-1.16-.04-2.33.01-3.49 2.89.73 5.89 1.02 8.87.86 3.67-.2 7.39-1.13 10.93-2.01-.68.17-1.61 0-2.32.05-.87.06-1.74.16-2.6.27-1.69.22-3.36.51-5.05.71-3.26.39-6.57-.03-9.84.07-.03-1.1-.02-2.2.02-3.3 2.4.57 4.94.51 7.32-.17-2.39-.61-4.94-.61-7.33 0v-3.38c3.08-.1 6.11 1.08 9.19.92 1.71-.09 3.4-.59 5.11-.49.86.05 1.74.25 2.57.01.87-.25 1.61-.95 2.51-.93.7.02 1.3.47 1.96.7a3.2 3.2 0 0 0 2.83-.4c-.76.23-1.53.35-2.32.09-.65-.22-1.22-.64-1.85-.9-1.34-.56-2.24.37-3.51.6-.94.17-1.89-.17-2.84-.24-1.31-.09-2.57.34-3.84.61s-2.43.19-3.72-.01c-1.02-.18-2.1-.38-3.18-.37-.99.02-1.96.14-2.9.41.01-1.39.01-2.77.02-4.16l22.67.18 22.94.08 22.94-.04 22.64-.19.03 2.73c-.49-.33-1.03-.46-1.57-.51-.64-.02-1.29.06-1.9.48.63.37 1.23.47 1.84.52.53.02 1.06-.01 1.63-.21l.02 1.95c0-.43-7.38-.92-8.1-.94-1.27-.03-2.55.08-3.8.36-1.09.25-2.89.65-3.65 1.45 2.57-.61 5.08-.87 7.72-.8 2.6.07 5.24.31 7.83 0l.04 4.16c-.58-.18-1.12-.41-1.72-.54-.66-.16-1.33-.23-2.01-.26-1.35-.02-2.72.17-3.96.77 1.36.18 2.64.18 3.93.23l1.94.03c.58 0 1.21.03 1.82-.13v.65l.04 2.44c-1.91-.41-3.82-.79-5.75-1.09-.48-.07-1.03-.18-1.63-.05-.57.13-1.04.39-1.47.56-.44.18-.8.29-1.18.2-.4-.07-.84-.28-1.37-.44-.92-.27-1.92-.17-2.87-.12s-1.88-.16-2.85-.3c-2.07-.3-4.25-.4-6.23.39 1.77-.7 3.88.09 5.68.34l6.8.92c.63.08 1.27.17 1.89.03.53-.12 1.01-.4 1.53-.55.57-.17 7.45-.07 7.46.15l.04 2.71c-1.14-.45-2.32-.59-3.5-.61-1.22 0-2.44.13-3.62.6 1.23.32 2.42.37 3.61.4 1.16 0 2.32-.05 3.51-.33l.04 2.49c-.74-.32-1.47-.38-2.2-.35-.75.05-1.49.18-2.21.62.77.36 1.52.4 2.27.38.72-.05 1.44-.18 2.14-.58l.04 2.59-23.1-.25z"/><path class="cls-4" d="M153.96 79.27c-.14-.69-.41-1.42-.95-1.97-.52-.56-1.29-.85-1.99-.89-.66-.05-1.28.07-1.89.21.06-.96.11-1.91.17-2.87.54-8.55.98-17.1 1.34-25.65.37-8.55.6-17.11.73-25.68s0-.02 0-.02c0-.08-.07-.15-.15-.14l-2.97.1a.412.412 0 0 0-.42-.11c-4.59 1.41-9.2 2.77-13.78 4.23-4.55 1.41-9.09 2.88-13.62 4.35v-2.42c2.14-.04 4.27-.08 6.41-.14h.03a.97.97 0 0 0 .94-.99c-.06-2.07.13-4.16.54-6.19v-.03a.832.832 0 0 0-.42-.91c-1.03-.55-2.13-.79-3.18-.91-1.06-.12-2.07-.14-3.07-.14h-6.04c-4.02 0-8.04.05-12.06.14-.05 0-.1.05-.1.1 0 .06.04.1.1.1 4.01.31 8.02.59 12.02.82l6 .35c1.76.09 3.52.17 4.92.77-.35 1.62-.57 3.27-.64 4.94-4.96 0-9.92.03-14.88.11l-15.81.34c-10.54.22-21.07.88-31.62.98-10.54.18-21.09-.42-31.63-.22-5.27.09-10.54.19-15.81.4l-7.9.31c-2.63.16-5.27.26-7.9.46a.09.09 0 0 0-.09.09c0 .06.04.1.09.11 1.55.08 3.1.13 4.65.18.03 14.32.42 28.63.81 42.94.21 7.2.47 14.39.8 21.59l.94 21.58c.73 14.38 1.53 28.77 1.44 43.18l-.22 21.59c-.05 7.18.08 14.42-.43 21.51V201.58c0 .41.35.73.76.73l9-.19h.02c.3 0 .55-.26.54-.56-.05-2.33-.1-4.67-.19-7-.07-1.99-.14-3.97-.23-5.96v-.72l4.64.12 13.24.24 26.49.32 26.49.06 17.85-.11c-.12 2.02-.22 4.03-.27 6.05-.08 2.33-.13 4.67-.16 7 0 .26.21.47.47.48 2.83.03 5.67.03 8.5 0 .26 0 .47-.22.47-.48-.03-2.33-.08-4.67-.16-7-.04-1.39-.09-2.77-.16-4.16 0-.65-.01-1.3-.02-1.95.46-.03.83-.4.84-.87.29-13.32.42-26.64.66-39.96.21-9.91.52-19.82.95-29.73l7.23 2.36 7.72 2.39c2.58.79 5.15 1.57 7.75 2.3.65.18 1.3.36 1.98.51l.27.05s.1.01.17.02c.02 0 .09 0 .17-.01 0-.02.06.06.31-.21.04-.08.06-.14.07-.18l3.07.12c.09 0 .17-.06.17-.15.31-4.28.58-8.56.78-12.83.18-3.26.32-6.53.42-9.8.51.21 1.12.21 1.65.03.68-.23 1.31-.67 1.73-1.29.83-1.23.99-2.69 1.13-3.98.24-2.64.42-5.28.48-7.94.04-1.33.09-2.65.25-3.97.14-1.33.44-2.6.6-3.95.06-.68.06-1.38-.08-2.08zm-3.35 7.43c0 .86-.11 1.72-.24 2.57-.28 1.71-.42 3.43-.51 5.14-.03.87.04 1.7-.18 2.41-.16.57-.67 1.15-1.35 1.19.08-3.81.15-7.62.3-11.43.07-1.89.16-3.79.26-5.68.3-.15.65-.09.92.04.33.17.5.41.6.76.2.67.04 1.53.07 2.4.03.86.13 1.73.13 2.59zm-33.28 20.94c-.03 3.14-.07 6.29-.12 9.43-3.88-.78-7.78-1.11-11.68-1.26-1.95-.06-3.91 0-5.86.07-1.95.04-3.91.19-5.86.39-1.95.18-3.9.33-5.85.28-1.95-.03-3.91-.32-5.86-.4-1.96-.07-3.91.05-5.85.23-1.86.18-3.71.42-5.55.84.02-3.05.03-6.11 0-9.16 3.56.38 7.13.55 10.7.5 1.96-.06 3.92-.2 5.88-.24 1.96-.04 3.92 0 5.88.06 3.92.13 7.85.09 11.77-.06 3.92-.2 7.83-.52 11.72-1.08.02 0 .04-.02.04-.05 0-.03-.02-.05-.05-.05-3.93-.07-7.84.01-11.76.12-2.74.11-5.47.24-8.21.38-.03-.04-.05-.08-.08-.12h.01c.02.01.04 0 .06 0 .02-.02.02-.05 0-.07-.81-.92-1.68-1.77-2.57-2.59.71-.16 1.41-.31 2.12-.5.96-.25 1.92-.51 2.91-.67 1.97-.34 3.98-.21 5.96-.17 1.99.03 3.96.16 5.95.18l2.99.03h1.5c.5-.02 1-.08 1.37.23.02.01.04.02.06 0 .02-.01.03-.05.02-.07-.31-.49-.95-.53-1.41-.64l-1.48-.24c-.99-.14-1.99-.25-2.99-.34-2-.17-4.01-.13-6.02 0-2.01.14-3.99.52-5.98.67-.75.06-1.5.11-2.25.17-.5-1.17-.93-2.34-1.28-3.52v-.06c0-.02.01-.04.01-.06 1.42-.72 3.14-1.01 4.88-.99 1.88.06 3.74.49 5.61.73 1.87.23 3.75.48 5.63.56.94.04 1.89.07 2.83.09.92.01 1.85.02 2.64.54.02.01.04.01.06 0 .02-.02.03-.05 0-.07-.64-.79-1.73-1.02-2.64-1.17-.94-.14-1.87-.27-2.81-.39-1.87-.23-3.76-.31-5.65-.39-1.89-.07-3.78.02-5.66-.21-.75-.08-1.51-.18-2.28-.19-.1-.24-.19-.48-.27-.71.13.11.27.21.41.3.02.01.04.01.06 0 .02-.02.03-.05 0-.07a6.575 6.575 0 0 1-1.35-3.12c1.62.07 3.24-.1 4.87-.13 1.79-.01 3.57.33 5.35.53 1.78.18 3.55.4 5.34.48l2.68.09c.45 0 .87 0 1.22.15.33.13.64.5.56.92 0 .02 0 .05.02.06.02.01.05 0 .07-.02.27-.45 0-1.05-.42-1.35-.44-.3-.95-.37-1.38-.46-.89-.15-1.78-.28-2.67-.4-1.78-.23-3.58-.28-5.37-.32-1.8-.03-3.6.14-5.39-.02-1.25-.13-2.5-.31-3.75-.39l-.17-.23c.03 0 .05.03.08.03.02 0 .04 0 .05-.02.02-.02 0-.05-.01-.07-.7-.49-.68-1.51-.24-2.01.45-.56 1.22-.82 1.98-.82.77-.02 1.62.14 2.49.21.87.06 1.74.14 2.61.17 1.74.09 3.49-.07 5.22.08 1.65.13 3.31.46 4.97.4.79 1.09 1.46 2.27 2.08 3.53 0 .02.03.03.05.03.03 0 .05-.03.04-.06-.17-1.49-.75-2.93-1.58-4.19a.392.392 0 0 0-.32-.18h-.04c-1.72-.11-3.46.18-5.19.15-1.73-.01-3.44-.4-5.15-.62l-2.57-.35c-.85-.1-1.72-.26-2.68-.17-.44.05-.89.17-1.3.38-.57.03-1.14.11-1.64.36-.7.34-1.24 1.12-1.07 1.87-.75.22-1.5.45-2.25.67-.16.05-.34.11-.44.25-.12.18-.06.41 0 .61.34 1.06.86 2.07 1.53 2.96-.82.07-1.68.14-2.41.53-.73.39-1.31 1.19-1.18 2.01.1.61.55 1.1.86 1.63.31.54.45 1.3-.02 1.72-.19.17-.44.25-.6.43v.01c-.15-.28-.33-.53-.54-.74-.48-.48-1.05-.79-1.64-1.03-.47-.19-.97-.3-1.46-.39-.27-.73-.64-1.42-1.07-2.06-.22-.34-.46-.65-.72-.97-.13-.16-.3-.34-.52-.48-.22-.15-.48-.21-.7-.23 1.55-.36 3.03-.89 4.49-1.47h.03c.22-.12.32-.38.21-.6-.21-.44-.56-.81-.96-1.05-.4-.23-.83-.37-1.25-.45-.84-.16-1.67-.14-2.47-.19-1.62-.07-3.22-.41-4.83-.54-1.61-.13-3.22-.29-4.84-.28-1.51 0-3.03.04-4.55.19-.02-1.04-.03-2.08-.06-3.13 1.59.26 3.16.33 4.73.25.83-.07 1.66-.22 2.49-.24.83-.03 1.66.05 2.48.16 1.65.24 3.3.36 4.95.46l1.16.03c.12.03.1 0 .16.07.05.08.09.24.09.42.05.72-.2 1.5-.7 2.16-.01.02-.01.04 0 .06.01.02.05.03.07.02.75-.43 1.29-1.26 1.42-2.2.03-.23.05-.5-.06-.81-.09-.32-.48-.62-.77-.67-.3-.07-.49-.07-.7-.09l-.62-.06c-.83-.06-1.66-.06-2.5-.05-.83-.01-1.67.04-2.5.11-.83.07-1.66.11-2.49.07-.83-.05-1.66-.2-2.49-.27-1.58-.07-3.16.05-4.73.4-.07-2.52-.16-5.03-.25-7.55.12-.04.24-.08.37-.1 3.88.27 7.77.34 11.64.22 2-.09 4-.26 6-.32 2-.05 4-.02 6 .05 4 .15 8 .17 12 .13 3.9-.09 7.8-.25 11.69-.59-.04 1.26-.07 2.52-.11 3.78-3.78-.26-7.56-.36-11.34-.39-3.97.02-7.95.11-11.92.32-1.99.1-3.97.16-5.96.14-1.99-.03-3.97-.16-5.96-.22-3.97-.06-7.95.07-11.91.43-.02 0-.04.02-.05.05 0 .03.02.05.05.05 3.98.32 7.95.41 11.92.31 1.98-.08 3.97-.24 5.95-.28 1.99-.04 3.97 0 5.96.08 3.97.17 7.94.22 11.91.2 3.78-.07 7.56-.2 11.34-.5-.2 7.41-.34 14.83-.4 22.24zm-42.28-9.89c1.58.07 3.16.1 4.74-.03.79-.05 1.58-.07 2.37 0 .77.08 1.61.25 2.31.38.32.07.44.19.71.48l.78.86c.47.52.95 1.03 1.46 1.54-.67-.1-1.36-.14-2.03-.16-2.47-.05-4.89-.18-7.33-.38-2.44-.14-4.9-.34-7.38-.34-.02 0-.04.02-.05.04 0 .03 0 .05.04.06 2.4.63 4.84 1.06 7.31 1.31 2.47.2 4.99.19 7.44-.14 1.2-.13 2.46-.17 3.56.34 1.09.49 1.88 1.55 1.82 2.61 0 .53-.16 1.04-.46 1.4-.29.36-.81.55-1.4.74-1.17.39-2.33.82-3.46 1.33-.02 0-.03.03-.03.05 0 .03.03.05.06.04 1.23-.16 2.45-.4 3.65-.68.58-.13 1.32-.31 1.85-.9.28-.31.45-.67.55-1.05.28.83.56 1.66.85 2.48l1.38.03c-.21.01-.42.02-.64.04-1.96.11-3.91.19-5.87.17-1.96-.03-3.92-.18-5.87-.27-3.57-.11-7.13-.08-10.71.08-.01-2.07-.04-4.14-.07-6.21-.02-1.5-.06-3-.09-4.5 1.5.36 3 .56 4.51.67zm-4.52-.83c-.02-1.28-.05-2.56-.08-3.85 1.49.3 3 .48 4.5.63 1.61.16 3.23.17 4.85.19 1.62.04 3.25-.16 4.86-.06 1.38.02 2.91.48 3.63 1.38-1.37.6-2.71 1.25-3.99 2.07 0 0 0 .02-.01.03-.74.02-1.41.11-2.11.11-.79 0-1.58-.1-2.36-.23-1.57-.28-3.14-.41-4.72-.49-1.52-.03-3.04.01-4.57.23zm26.16 6.61c-.08 0-.16.01-.23.02.07-.01.15-.03.22-.04 0 0 0 .01.02.02zM69.52 42.37c.05.21.11.42.21.61.11.24.25.5.16.74-.06.15-.19.23-.33.31l-.03-1.66zm14.22-7.71c2.33 0 4.66.09 6.98.17 2.32.09 4.65.2 6.97.35l1.74.12c.58.05 1.19.05 1.54.22.19.09.26.17.31.29.05.13.05.32-.02.51s-.18.35-.31.45c-.26 0-.52.03-.77.17-.11.06-.18.16-.23.28-1.73-.2-3.46-.28-5.19-.3-2.07.03-4.14.1-6.21.32-1.03.1-2.07.17-3.1.14-1.04-.03-2.07-.16-3.11-.23-1.79-.05-3.58.04-5.37.3a.352.352 0 0 0-.19-.1h-.02c-.22-.04-.45-.08-.7-.1a.819.819 0 0 1-.27-.36c-.14-.33.07-.76.44-1.02.38-.27.85-.37 1.35-.31.05 0 .1.02.15.03.45.21.93.34 1.42.38.09 0 .17-.04.21-.13.04-.11 0-.23-.11-.27-.5-.21-1.02-.43-1.59-.53-.06-.01-.13-.01-.2-.02-.08-.05-.16-.1-.24-.16.08 0 .15-.02.23-.02 2.09-.13 4.18-.19 6.27-.19zm18.17 5.6c-.04-.06-.1-.11-.15-.16.05-.03.1-.05.15-.09.05-.04.1-.09.15-.14.11.24.3.44.54.54-.21-.01-.41-.03-.62-.04-.03-.04-.05-.08-.07-.12zm4.03 6.43c-.07-.65-.15-1.29-.22-1.94.02-.31.04-.61.05-.92.01-.47.01-.93 0-1.4.01-.45-.06-.98-.03-1.28.01-.29.25-.54.66-.69.39-.16.86-.21 1.32-.26.92-.1 1.85-.07 2.78 0 .93.09 1.85.17 2.77.23l.69.06h.06l.03 1.23c.09 1.81.25 3.61.6 5.41-2.58-.06-5.16-.07-7.74-.05-.32 0-.65.02-.97.03.02-.14.01-.29 0-.44zm-4.77-1.31.04.04-.06-.03h.01zm-.66-5.96h-.05a.492.492 0 0 0-.34.1 48.15 48.15 0 0 0-5.23-.33c-2.03.02-4.05.09-6.08.3-1.01.09-2.03.16-3.04.13-1.01-.03-2.03-.17-3.04-.23-2.03-.06-4.06.05-6.08.41-.02 0-.04.02-.04.04 0 .03.01.05.04.06 2.03.33 4.06.41 6.09.32 1.01-.08 2.03-.23 3.04-.28 1.01-.05 2.03 0 3.04.09 2.03.19 4.06.22 6.08.22 1.68-.05 3.36-.16 5.04-.38-.01.23.14.45.38.49H100.38c.58 0 1.16.7 1.07 1.3-.15.37-.43.69-.8.83.02.03.04.05.06.08-.03.01-.05.03-.07.04-.31-.08-.64-.08-.96.07-.1.04-.18.13-.21.24-.06.2.06.41.26.47.34.1.69.09 1.03.01.01 0 .03 0 .04.01.27.14.47.39.5.66.08.47-.41 1.01-.93 1.07-.11-.01-.23-.02-.34-.02-.1 0-.19.07-.22.17-.04.12.03.25.16.29h.01c.17.06.34.06.51.04.45.06.87.27 1.21.59.1.34.1.7-.01 1.03-.01 0-.02.02-.03.02-2.37.09-4.74.2-7.1.36-2.06.13-4.12.23-6.19.24-2.06 0-4.13-.1-6.2-.12-2.26 0-4.5.07-6.75.07-.27-.86-.63-1.68-1.06-2.47 2.15.18 4.28.15 6.41-.04 1.12-.14 2.24-.34 3.36-.45 1.12-.1 2.25-.1 3.38-.08 2.26.06 4.51 0 6.76-.12 2.25-.18 4.49-.42 6.72-.87.02 0 .04-.02.04-.05 0-.03-.02-.05-.05-.05-2.27-.19-4.52-.18-6.78-.1-2.25.13-4.5.33-6.73.64-1.12.15-2.24.28-3.37.3-1.13.03-2.26-.05-3.39-.06a37 37 0 0 0-6.45.7c-.21-.37-.45-.74-.7-1.09-.03-.05-.07-.1-.09-.16.61-.5 1.34-.84 2.11-.97.11-.02.21-.09.26-.2.08-.17 0-.38-.17-.45-.62-.28-1.21-.2-1.61-.31-.39-.1-.53-.35-.44-.73.11-.38.38-.64.81-.76.42-.12.91-.1 1.43-.07a.437.437 0 0 0 .06-.87c-.42-.03-.85-.12-1.09-.29-.23-.16-.3-.37-.16-.64.15-.28.41-.47.78-.53.17-.03.35-.03.54-.02.27.12.6.16.91.04.13-.05.23-.16.25-.3v-.02c1.75.21 3.5.27 5.24.18 1.03-.08 2.07-.24 3.1-.28 1.03-.05 2.07 0 3.11.08 2.07.18 4.14.21 6.21.2 1.73-.05 3.46-.17 5.19-.4.06.14.18.26.34.3h.01c.27.07.55.03.8-.05.07.02.15.04.22.08.23.15.38.4.37.61.02.49-.66 1-1.2.89zm-23.76-4.49.02.02v.1c-.15.02-.29.06-.44.11.12-.08.24-.16.37-.22h.05zm.12.1h-.01zm-2.89 32.33c.19.28.48.5.8.58.02 0 .05 0 .06-.03.01-.03 0-.05-.02-.07-.72-.34-.87-1.21-.68-1.88.17-.72.68-1.21 1.35-1.46 1.32-.53 2.94-.3 4.51-.32 3.14.03 6.28-.07 9.42-.19 3.14-.16 6.28-.39 9.42-.24 1.57.06 3.14.17 4.71.19 1.45.02 2.9-.07 4.18.35l-.62 2.04c-.22.77-.44 1.54-.63 2.32-.38-.15-.77-.18-1.12-.2-1.52-.05-3.05-.13-4.57-.14-3.05-.04-6.09.03-9.14.14-3.05.16-6.09.34-9.14.12-2.61-.19-5.21-.23-7.82-.13-.32-.3-.56-.68-.7-1.1zm-.87 1.78c.02.07.05.14.07.21-.05-.07-.09-.14-.14-.2h.07zm-.45 6.87c.18.22.42.39.7.43.02 0 .05 0 .05-.03s0-.05-.03-.06c-.77-.3-.84-1.28-.55-1.9.27-.65 1.01-.99 1.73-1.12.73-.15 1.55-.15 2.35-.19l2.42-.06c3.22-.07 6.46-.08 9.7-.1 3.25-.08 6.49-.17 9.73.13 3.11.3 6.22.41 9.34.35-.18 1.19-.34 2.38-.45 3.59-.31-.09-.62-.16-.91-.2-1.68-.15-3.33-.29-5-.29-1.67-.04-3.33.03-4.99.12-1.66.08-3.31.2-4.96.33-3.3.3-6.61.56-9.91.2-1.65-.16-3.26-.43-4.92-.61-1.13-.1-2.34-.15-3.51.09-.35-.11-.62-.35-.79-.67zm.68 3.87c-.28-.73-.57-1.46-.87-2.18 1.39-.44 2.9-.38 4.4-.22 1.63.19 3.32.23 4.98.23 3.33-.07 6.64.01 9.96.04 3.32-.02 6.62-.13 9.92-.17 1.64-.02 3.3-.05 4.93 0 .79.02 1.59.15 2.12.66.49.48.71 1.49.06 2-.02.01-.03.04-.02.06.01.03.04.04.07.02.41-.19.64-.66.65-1.11.02-.45-.1-.92-.4-1.29-.37-.44-.85-.69-1.36-.85.39-1.29.72-2.6 1.04-3.91v-.05a.312.312 0 0 0-.29-.35h-.03c-3.24-.25-6.48-.31-9.73-.17-3.25.13-6.49-.14-9.72-.38-3.24-.19-6.5-.33-9.76-.17-.81.04-1.63.1-2.44.18-.64.07-1.28.12-1.94.25-.09-.21-.17-.41-.27-.62-.37-.87-.67-1.76-.86-2.66 2.91.14 5.81.12 8.72-.1 3.05-.22 6.09-.04 9.14.12 3.05.11 6.09.18 9.14.14 1.52-.01 3.05-.1 4.57-.15.73-.07 1.43.03 1.57.67.12.63-.27 1.37-.68 1.98-.01.02-.01.05 0 .06.02.02.05.02.07 0 .28-.27.53-.57.73-.91.18-.3.33-.65.34-1.06.7-.09 1.38-.22 2.05-.39.78-.18 1.62-.49 2.28-.68.33-.09.63-.09.93.08.3.17.56.48.75.83.36.71.58 1.52.74 2.31.28 1.6.54 3.18.67 4.77.1.79.16 1.59.23 2.4.03.4.07.81.09 1.21 0 .2.04.43.03.57 0 .04-.02.07-.04.1h-.18s-.01 0-.01-.01-.02-.05-.03-.05c-.03 0-.05 0-.06.03v.03c-2.89-.13-5.79-.17-8.68-.17-4 .04-8 .15-12 .39-2 .11-4 .18-6 .17-2-.02-4-.14-6-.19-2.69-.03-5.38.04-8.07.2-.24-.55-.49-1.1-.73-1.64zm44.98-12.19c-.18 4.54-.33 9.07-.47 13.61-.8-.05-1.6-.1-2.4-.14.12-.25.13-.44.17-.65.08-.41.15-.82.19-1.24.09-.83.1-1.67.05-2.5-.16-1.66-.54-3.31-1.21-4.84-.33-.77-.66-1.51-.97-2.29-.17-.38-.35-.79-.7-1.13-.34-.35-.92-.51-1.39-.46-.48.05-.88.19-1.26.33-.39.14-.77.28-1.15.44-.62.25-1.23.55-1.83.88a1.35 1.35 0 0 0-.77-.99c.35-.72.68-1.45.99-2.19l.97-2.33a.36.36 0 0 0-.17-.46h-.02c-.77-.38-1.6-.55-2.41-.62-.81-.07-1.6-.06-2.38-.05-1.57.04-3.15.17-4.72.26-3.14.2-6.29.01-9.43-.11-3.14-.07-6.29-.13-9.43-.06-.79.02-1.56.03-2.37.1-.8.07-1.65.19-2.43.59-.16.09-.31.19-.46.3-.64.12-1.28.29-1.85.6-.77.43-1.41 1.19-1.44 2.07 0 .28.04.57-.07.83-.09.22-.29.38-.44.57-.63.79-.39 1.95-.12 2.92.1.34.18.76-.05 1.02-.13.15-.34.22-.51.33-.19.12-.31.3-.4.49-.08-2.65-.15-5.3-.16-7.95-.05-4.06.04-8.13.04-12.19-.01-1.71-.06-3.43-.09-5.14.56.12 1.12.23 1.68.33 1.21.24 2.44.4 3.67.49.22.02.45.05.67.06v-.02c2.18.13 4.38.09 6.53 0 2.06-.12 4.12-.3 6.18-.39 2.06-.07 4.13-.06 6.19-.02 4.13.1 8.26.08 12.39 0 4.08-.14 8.15-.34 12.22-.73 0 .1-.01.2-.01.3l-.17 3.69c-3.95-.2-7.89-.26-11.83-.27-4.11.04-8.22.12-12.33.3-2.06.08-4.11.12-6.17.08-2.06-.06-4.11-.23-6.16-.33-4.11-.14-8.22-.12-12.34.11-.02 0-.04.02-.05.04 0 .03.02.05.04.06 4.1.45 8.21.65 12.33.62 2.06-.04 4.12-.16 6.17-.18 2.06-.01 4.11.05 6.17.15 4.11.2 8.23.25 12.34.22 3.94-.09 7.88-.26 11.81-.63l-.28 6.12-.37 9.98zm.84-20.38c-1.45-.08-2.91-.13-4.36-.16.25-1.82.33-3.63.33-5.44l-.02-.7c-.02-.26.02-.4-.06-.8-.03-.18-.21-.51-.5-.62-.27-.1-.42-.08-.53-.08h-.7c-.47-.01-.93 0-1.4.03l-.45-.19c-.6-1.14-1.93-1.72-3.2-1.83s-2.55.17-3.83.33c-.53.06-1.08.11-1.57.34a.99.99 0 0 0-.17.11c-.07-.48-.34-.89-.7-1.16.1-.15.19-.31.25-.48.13-.36.17-.78.02-1.21-.14-.43-.54-.77-.88-.91-.74-.29-1.33-.21-1.9-.27l-1.75-.08c-2.33-.11-4.67-.16-7.01-.15-2.34 0-4.67.09-7 .19l-2.18.1c-.58-.17-1.18-.27-1.79-.3.12-.02.23-.04.35-.05-2.98-.74-6.27-.12-8.78 1.66-.16.11-.33.25-.36.44-.05.3.25.53.4.8.23.42.09.96-.18 1.36s-.66.7-.97 1.07c-.4.47-.65 1.06-.74 1.67-.09-2.89-.19-5.77-.33-8.66 2.08.11 4.17.16 6.25.24l6.4.14c4.27.08 8.53.08 12.8.11 4.27-.04 8.53-.03 12.8-.12 4.19-.08 8.38-.18 12.57-.37-.29 5-.57 10-.79 15zM8.6 93.53c-.18-7.2-.43-14.4-.77-21.59-.69-14.29-1.44-28.58-2.64-42.85l3.04.09 7.91.13c5.27.08 10.54.05 15.81.02 10.29-.05 20.57-.86 30.86-.96-.11 1.31-.19 2.62-.27 3.93-4.2-.2-8.39-.3-12.59-.38-4.27-.08-8.53-.07-12.8-.12-4.27.04-8.53.04-12.8.11l-6.4.14c-2.13.08-4.27.13-6.4.25 2.13.11 4.27.16 6.4.25l6.4.14c4.27.08 8.53.08 12.8.11 4.27-.04 8.53-.03 12.8-.12 4.2-.08 8.39-.18 12.59-.38-.15 2.69-.25 5.38-.3 8.07-.06 4.09-.07 8.18.12 12.26l.39 6.12c.15 2.04.29 4.08.37 6.12.17 4.08.16 8.17.1 12.26-.08 4.09-.09 8.18-.02 12.27.06 4.09.11 8.17.28 12.26.37 8.17.92 16.32 1.85 24.47 0 .05.05.09.1.09.06 0 .1-.04.1-.1.33-8.19.28-16.36.09-24.53-.11-4.08-.33-8.16-.53-12.24-.19-4.08-.45-8.16-.76-12.24-.29-4.08-.52-8.16-.54-12.25-.02-4.09.19-8.18.25-12.26.05-4.09-.08-8.17-.24-12.25-.15-4-.38-8-.75-12h.52c10.54-.15 21.09.26 31.63.23l15.81-.03c3.05-.02 6.11-.07 9.16-.13-.08 1.29-.15 2.58-.23 3.87-4.19-.2-8.38-.3-12.57-.37-4.27-.08-8.53-.07-12.8-.12-4.27.04-8.53.04-12.8.11l-6.4.14c-2.08.08-4.17.13-6.25.24-.06-1.28-.12-2.55-.2-3.83 0-.03-.02-.05-.05-.05-.03 0-.05.02-.05.05-.2 8.13-.17 16.26.04 24.38.13 4.06.36 8.12.44 12.18.12 4.06.12 8.12.1 12.19-.05 8.13 0 16.25.17 24.38.04 2.08.09 4.16.14 6.24h-.09c-.02 0-.04.02-.05.04 0 .03.02.05.04.06h.1c.16 6.01.4 12.01.73 18.01 0 .03.02.05.05.05.03 0 .05-.02.05-.05.06-2.82.09-5.64.11-8.46 1.88.27 3.74.36 5.61.42 1.95.05 3.9.05 5.84-.11 1.94-.17 3.89-.53 5.83-.62 1.95-.1 3.9 0 5.85.17 1.95.19 3.9.34 5.84.4 1.95.08 3.89.19 5.84.19 3.89-.03 7.79-.17 11.71-.67-.05 3.16-.11 6.32-.19 9.48-8.92.16-17.79-.02-26.69-.25-4.5-.1-9.01-.14-13.52-.19-4.51-.05-9.03-.01-13.55.16-4.51.2-9.02.34-13.53.3-4.51-.03-9.02-.27-13.53-.37-4.51-.07-9.02.04-13.53.2-4.49.16-8.99.41-13.48.81l-.11-12.27c-.11-7.2-.29-14.4-.48-21.6zm1.87 95.04c.77.93 1.58 1.83 2.54 2.55.8.6 1.69 1.08 2.57 1.55.71.38 1.43.77 2.14 1.15 0 .24-.02.48-.03.72-.08 2.14-.13 4.28-.18 6.42l-7.64-.16c.33-4.09.51-8.17.59-12.24zm96.71-.07a5.956 5.956 0 0 0 3.06 2.75c1.6.63 3.44.55 4.99 1.24-.03.69-.06 1.38-.07 2.07-.08 2.17-.12 4.35-.15 6.52-2.52-.02-5.04-.02-7.57 0-.03-2.17-.07-4.35-.15-6.52-.05-2.02-.15-4.03-.27-6.05h.15zm9.2-40.91c-.54 13.02-1.19 26.03-1.68 39.05l-25.62-.15-26.49.06-26.49.32-13.24.24-12.36.32c.14-9.71-.27-19.39-.66-29.08l-.35-10.8-.2-10.8-.08-9.14c4.5.31 9 .47 13.49.53 4.51.06 9.02.08 13.53-.08 4.51-.19 9.01-.53 13.52-.65s9.02 0 13.52.15c4.5.21 9 .46 13.51.63 4.5.18 9.01.39 13.53.44 8.91.06 17.89-.25 26.72-1.64-.16 6.87-.37 13.73-.63 20.6zm26.49-22.58v.02-.02zm.19-5.53-.14 4.03-.03 1.01v.05c-.62-.12-1.27-.28-1.9-.44-2.6-.66-5.19-1.39-7.78-2.11l-15.12-4.26c.14-3.36.3-6.72.47-10.09.67-13.31 1.13-26.62 1.39-39.94l.23-9.99.13-9.99c.09-5.6.11-11.21.11-16.81 4.61-1.25 9.22-2.52 13.81-3.84 4.43-1.24 8.84-2.56 13.26-3.85-.54 10.55-.71 21.12-1.16 31.68-.46 10.76-1.15 21.51-1.73 32.27l-.82 16.14-.7 16.14zm4.47-20.09c-.26 4.27-.44 8.55-.57 12.83-.16 4.22-.25 8.45-.32 12.68l-2.88.08.03-.46.06-1.01.22-4.03.75-16.13.64-16.13c.39-10.76.67-21.52 1.19-32.27.51-10.76 1.32-21.5 1.73-32.25 0-.06 0-.1-.02-.15 0-.02-.02-.04-.04-.06l2.72.09a868.6 868.6 0 0 0-1.45 25.49c-.37 8.55-.67 17.11-.86 25.67-.1 4.28-.22 8.56-.43 12.84-.19 4.28-.5 8.55-.77 12.82zm5.58-14.11c-.09 1.32-.27 2.64-.48 3.95-.43 2.62-.74 5.25-.99 7.89-.11 1.31-.15 2.61-.73 3.67-.48.91-1.58 1.68-2.71 1.47.03-.94.07-1.88.09-2.83 0-.39.02-.78.03-1.17.33.09.7.06 1.02-.09.45-.2.84-.57 1.07-1.02.46-.9.44-1.84.52-2.67.08-1.72.11-3.44 0-5.17-.05-.86-.07-1.73.01-2.58.08-.86.27-1.71.38-2.57.05-.43.09-.85.08-1.31 0-.45-.05-.94-.26-1.41-.3-.91-1.57-1.32-2.23-.78.07-1.29.14-2.58.22-3.86 1.28.02 2.62.14 3.31 1.04.72.9.78 2.22.79 3.49 0 1.29-.01 2.65-.1 3.96zM72.26 10.65c-.12-.23-.29-.39-.43-.5-2.15-1.5-4.28-2.87-6.48-4.22l-.07-.06c-.13.08-.28.18-.42.27-.01 0-.02-.02-.04-.01-1.26.64-2.5 1.32-3.72 2.03-.61.35-1.23.7-1.83 1.06-.58.37-1.27.65-1.81 1.37-.27.36-.38.85-.38 1.23 0 .39.02.72.03 1.08.03.7.06 1.41.12 2.11l.31 4.22v.02c0 .1.09.17.19.17 2.56-.12 5.13-.06 7.69.02 1.28.05 2.56.06 3.85.09h1.92c.16 0 .3.02.52 0 .2 0 .5-.08.72-.28.43-.4.48-.85.53-1.2.15-1.4-.17-2.72-.39-3.95-.11-.62-.2-1.22-.2-1.82 0-.31.02-.54.04-.94 0-.2-.02-.45-.14-.69zm-6.87 8.17c-2.5.14-4.99.27-7.49.22l.08-4.05c.02-.71.01-1.41 0-2.11 0-.35-.02-.72-.02-1.03 0-.32.05-.54.2-.76.3-.44.94-.79 1.52-1.19.59-.39 1.17-.79 1.75-1.19.4-.28.8-.56 1.19-.84.86.1 1.72.21 2.58.31.13.02.27.03.39.1.11.06.2.17.28.27.67.81 1.45 1.52 2.32 2.1.26.17.53.34.71.6.24.35.25.81.26 1.24.01 1.36.02 2.72.04 4.08 0 .17 0 .35-.09.49-.06.11-.17.19-.27.26-.58.41-1.46 1.01-2.29 1.44-.39.02-.77.03-1.16.06zM77.06 18.64c.2.26.52.29.75.29 1.85-.01 3.67.26 5.51.32l1.38.05c.13 0 .28 0 .47-.04.19-.04.44-.18.58-.4.13-.22.16-.4.18-.54l.05-.35c.11-.91.18-1.83.25-2.74 0-.23.03-.45.02-.74 0-.28-.1-.63-.28-.88-.35-.49-.77-.73-1.14-.99-.56-.38-1.13-.75-1.71-1.11-.33-.24-.66-.47-1.03-.65a.52.52 0 0 0-.3-.08c-.1.01-.19.07-.27.14l-.18.13c-1.57.67-3.04 1.48-4.49 2.33-.15.09-.24.26-.21.44v.02c.13.88.24 1.76.28 2.66.01.45 0 .9-.02 1.36-.01.23-.03.53.17.79zm.23-.74c.11-.44.2-.91.26-1.38.12-.84.13-1.7.01-2.54 1.26-.81 2.49-1.65 3.66-2.61l1.85 2.6c.07.09.13.19.17.3.05.15.04.31.03.47-.1 1.21-.2 2.42-.29 3.63-1.72.06-3.45.29-5.16.25-.22 0-.41-.06-.5-.19-.08-.13-.07-.33-.03-.54zM49.69 10.44s-.04-.03-.07-.02c-.93.5-1.84 1.03-2.72 1.61l-1.31.88c-.22.16-.46.35-.67.62-.21.27-.33.62-.37.92-.07.62 0 1.1.03 1.63l.13 1.57.06.79.02.4c0 .13.04.36.22.48.37.18.6.06.87.08h.79c2.1.06 4.19.27 6.29.27h.41c.16 0 .46-.03.7-.27.23-.24.26-.5.28-.68.02-.19 0-.31 0-.45-.02-.55-.09-1.08-.14-1.59-.12-1.02-.2-2 .1-2.88l.02-.04c.05-.13.02-.29-.09-.4a8.256 8.256 0 0 0-2.89-1.95c-.55-.34-1.11-.65-1.7-.91.02-.02.02-.04 0-.06zm.46 3.22c.12.1.24.2.3.34.06.13.06.27.06.41 0 .85.01 1.69.02 2.54 0 .67-.06 1.42-.47 1.92-1.13.08-2.25.18-3.38.23l-.79.02c-.24-.01-.58.02-.68-.05-.09-.03-.04-.36-.03-.61l.06-.79.12-1.57c.05-.51.04-1.09.09-1.51.06-.42.25-.67.66-.99l1.22-.98c.27-.22.53-.45.79-.68.68.57 1.36 1.15 2.04 1.72z"/><path class="cls-4" d="M76.27 42.59s.02.05.05.05c2.03.24 4.03.24 6.02.06.99-.12 1.99-.32 2.98-.41 1-.09 2-.08 3.01-.04 2.01.1 4.01.05 6.01-.05 2-.15 3.99-.37 5.98-.79.02 0 .04-.02.04-.04 0-.03-.02-.05-.04-.06-2.01-.21-4.02-.24-6.02-.17-2 .11-4 .27-5.99.57-1 .14-1.99.25-3 .27-1 .01-2.01-.08-3.02-.1-2.01.03-4 .23-5.98.67-.02 0-.04.02-.04.05zM105.52 111.11c-1.94.16-3.85.43-5.76.6-1.91.16-3.83.25-5.76.34-1.93.07-3.86.09-5.8.04-1.93-.06-3.86-.24-5.79-.33-3.86-.14-7.73-.08-11.6.2-.02 0-.04.02-.05.05 0 .03.02.05.04.05 3.86.39 7.72.56 11.59.53 1.93-.04 3.87-.16 5.8-.17 1.93 0 3.86.08 5.8.19 1.93.11 3.88.16 5.83.05 1.95-.1 3.88-.29 5.79-.47 3.81-.45 7.64-.28 11.52-.25.02 0 .05-.02.05-.04 0-.03-.01-.05-.04-.06-3.8-.67-7.72-1.07-11.62-.71z"/></g><g><path class="cls-14" d="M203.77 144.46c-1.31-3.32-2.63-6.65-3.94-9.98-.4-1.04-.86-2.12-1.49-3.01-.19-.59-.46-1.18-.72-1.73-3.42-7.08-7.58-13.79-12.38-20.01-.03-.04-.07-.06-.1-.1.14-.15.28-.32.41-.47l.03-.03c.94-1.11 1.76-2.32 2.34-3.65 1.01-2.36 1.26-5.12.3-7.49-.54-1.33-1.41-2.5-2.34-3.6-1.56-1.84-3.28-3.53-5.08-5.12-.17-.28-.36-.53-.54-.75-3.68-4.15-7.92-7.76-12.35-11.09-1.45-1.09-2.97-2.17-4.73-2.66-2.72-.73-5.6.08-8.31.91-3.26 1-6.53 1.98-9.79 2.97-.25.07-.5.15-.75.22-.26.08-.51.17-.77.24-.14-.24-.32-.47-.53-.69-.28-.28-.58-.53-.87-.75-3.51-2.63-7.37-4.83-11.51-6.26l-4.13-1.09c-4.26-.37-8.52 1.19-12.06 3.6-3.54 2.41-6.46 5.6-9.24 8.86.5.5 1.33 0 1.85-.47 1.4-1.26 2.92-2.41 4.67-3.08 2.96-1.15 6.33-.8 9.33.25s5.73 2.74 8.48 4.33c.04.03.07.04.11.06.24.14.47.26.71.35l-5.53 2.21-5.12 2.05-.82.32c-.04-.14-.11-.29-.19-.41-.19-.3-.43-.58-.71-.8-.64-.54-1.47-.9-2.25-1.22-3.5-1.4-7.08-2.6-10.8-3.22-3.71-.62-7.55-.65-11.2.26l-1.51.3c-4.41.73-8.48 3.32-10.98 7.01-.21.3-.41.64-.47 1.01-.04.28.04.58.22.79-.06.07-.14.14-.19.22-3.07 3.89-4.26 8.91-4.91 13.81-.17 1.16-.29 2.36-.04 3.51 0 .03.01.06.01.08-.01.01-.04.03-.06.06-.08.11-.1.26-.1.41-.04.98-.07 1.96-.1 2.95-.07 1.87-.14 3.73-.12 5.6.03 4.76.53 9.5 1.02 14.23.18 1.76.36 3.53.71 5.25 2.1-2.25 4.22-4.52 6.33-6.79.03.11.07.22.1.35.62 1.94 1.24 3.87 1.87 5.81.9 2.79 1.8 5.59 3.17 8.17.28.53.59 1.05.95 1.53-.03.72.22 1.51.51 2.2 1.29 3 2.9 5.85 4.83 8.49.84 1.16 1.77 2.31 2.88 3.25 2.7 2.3 6.28 3.28 9.82 3.64.14.01.26.03.4.04.5 3.21 1.59 6.32 3.19 9.13.12.22.26.44.41.66-.1.3-.18.62-.08.91.14.44.58.69 1 .9 2.61 1.26 5.49 1.87 8.37 2.31 6.28.95 12.68 1.15 19.01.57 1.4-.14 2.81-.32 4.15-.73.29.03.58.03.87.01 3.53-.12 6.83-1.76 10.33-2.13 1.15-.12 2.3-.11 3.44-.22 4.38-.41 8.38-2.6 12.24-4.73 1.12-.62 2.24-1.27 3.18-2.13 2.59-1.31 5.17-2.63 7.76-3.94 4.33-2.2 8.68-4.41 12.78-7.01h.22c1.76-.11 3.26-1.22 4.6-2.36.94-.82 1.87-1.69 2.48-2.78.08-.14.14-.32.19-.48 1.27-1.24 2.32-2.71 2.49-4.44.14-1.51-.43-2.99-.98-4.4zm-96.83 16.32c-3.3-.77-5.9-3.28-8.17-5.79-1.66-1.85-3.22-3.78-4.77-5.72 0-.1-.03-.21-.07-.3-.59-1.4-1.52-2.63-2.3-3.93-1.24-2.05-2.13-4.29-2.97-6.53-.97-2.54-1.91-5.14-2.32-7.83.19.24.39.46.61.66.37.32.82.58 1.23.84 1.78 1.08 3.51 2.21 5.21 3.42.94.68 1.94 1.38 3.08 1.51-.26-1.74-.46-3.5-.58-5.25-.04-.61-.08-1.23.11-1.81-.3-.26-.73-.29-1.13-.32-2.24-.12-4.48-.25-6.71-.37-.53-.03-1.05-.06-1.52-.28-.1-.04-.21-.11-.3-.18.19-.21.39-.4.58-.61.86-.91 1.73-1.87 2.13-3.06.28-.8.32-1.67.28-2.53-.04-.65-.14-1.31-.29-1.96.14-.18.12-.47.08-.72-1.37-6.85-1.76-13.97-.32-20.81.88-4.19 2.65-8.49 6.22-10.87l-.17.17c.17-.11.35-.18.53-.25 1.2-.01 2.41.14 3.6.35.58.11 1.18.24 1.76.37-1.56 2.85-2.24 6.17-1.89 9.39.03.35.08.69.14 1.04-.17.84-.08 1.76.01 2.63 1.23 10.88 3.84 21.59 4.83 32.5.48 5.24.58 10.54 1.65 15.68.36 1.78.86 3.54 1.48 5.24-.12.24-.25.48-.3.76-.12.57-.08 1.13.01 1.71.14.95.43 1.92.29 2.86zm1.77-67.97c-1.8.5-3.54 1.23-5.16 2.12-.03-1.52.28-3.03.89-4.41.06-.11.1-.24.15-.36 1.13.46 2.24.98 3.26 1.66.4.28.83.57 1.27.82.03.01.04.03.07.04-.17.04-.32.08-.48.14z"/><path d="M145.09 78.67c-.54.59-1.41.98-2.2 1.27-5.88 2.18-11.74 4.37-17.62 6.55h-.01c-1.8.66-3.61 1.34-5.41 2.01-1.11.41-2.2.82-3.3 1.23-2.14.8-4.3 1.6-6.43 2.49-.33.14-.37-.11-.7.03-.44-.25-1.01-.5-1.42-.78-1.02-.68-2.28-.86-3.42-1.31-.06.12-.1.25-.15.36-.61 1.38-.91 2.89-.89 4.4 1.62-.87 3.36-1.6 5.16-2.1-4.5.91-8.19 3.11-9.79 6.23-.35-3.22.25-7.22 1.81-10.07-.58-.14-1.18-.26-1.76-.37-1.19-.21-2.39-.36-3.6-.35-.18.07-.36.14-.53.25l.17-.17c-3.57 2.38-5.34 6.68-6.22 10.87-1.44 6.84-1.05 13.97.32 20.81.04.25.06.54-.08.72.15.65.25 1.31.29 1.96.04.86 0 1.73-.28 2.53-.4 1.19-1.27 2.14-2.13 3.06-.19.21-.39.4-.58.61.1.07.21.14.3.18.47.22 1 .25 1.52.28 2.23.12 4.47.25 6.71.37.4.03.83.06 1.13.32-.19.58-.15 1.2-.11 1.81.12 1.76.32 3.51.58 5.25-1.15-.12-2.14-.83-3.08-1.51a89.8 89.8 0 0 0-5.21-3.42c-.41-.26-.86-.53-1.23-.84-.22-.21-.41-.43-.61-.66.41 2.68 1.36 5.28 2.32 7.83.84 2.24 1.73 4.48 2.97 6.53.77 1.3 1.7 2.53 2.3 3.93.04.1.07.21.07.3 1.55 1.95 3.11 3.87 4.77 5.72 2.27 2.52 4.87 5.02 8.17 5.79.14-.94-.15-1.91-.29-2.86.51 1.84.95 3.71 1.06 5.6.03.58.03 1.18 0 1.77-3.54-.36-7.12-1.34-9.82-3.64-1.11-.94-2.03-2.09-2.88-3.25a43.966 43.966 0 0 1-4.83-8.49c-.29-.69-.54-1.48-.51-2.2a11.1 11.1 0 0 1-.95-1.53c-1.37-2.59-2.27-5.38-3.17-8.17-.62-1.94-1.24-3.87-1.87-5.81-.03-.12-.07-.24-.1-.35-2.12 2.27-4.23 4.54-6.33 6.79-.35-1.73-.53-3.5-.71-5.25-.5-4.73-1-9.47-1.02-14.23-.01-1.87.06-3.73.12-5.6.03-.98.06-1.96.1-2.95 0-.15.01-.3.1-.41.01-.03.04-.04.06-.06 0-.03-.01-.06-.01-.08-.25-1.15-.12-2.35.04-3.51.65-4.91 1.84-9.93 4.91-13.81.06-.08.14-.15.19-.22-.18-.21-.26-.51-.22-.79.06-.37.26-.71.47-1.01 2.5-3.69 6.57-6.28 10.98-7.01l1.51-.3c3.65-.91 7.5-.88 11.2-.26 3.72.62 7.3 1.83 10.8 3.22.79.32 1.62.68 2.25 1.22.28.22.51.5.71.8.08.12.15.28.19.41l.82-.32 5.12-2.05c-.37-.07-.75-.1-1.12-.1 1.98-.82 3.95-1.65 5.95-2.46a.3.3 0 0 1-.11-.06c-2.75-1.59-5.48-3.28-8.48-4.33-3-1.05-6.37-1.4-9.33-.25-1.76.68-3.28 1.83-4.67 3.08-.53.47-1.36.97-1.85.47 2.78-3.26 5.7-6.46 9.24-8.86 3.54-2.41 7.8-3.97 12.06-3.6l4.13 1.09c4.13 1.44 7.99 3.64 11.51 6.26.29.22 1.02.92 1.29 1.2.87-.33 1.91-.52 1.62-.22z" style="fill:#ed6c2e;stroke-width:0"/><path class="cls-15" d="m143.18 151.3 3.45 22.02c.04.26.08.52-.01.77-.12.31-.42.5-.7.67-2.36 1.4-4.85 2.68-7.57 3.05s-5.7-.33-7.53-2.38c-.4-.45-.85-1.01-1.46-.95-.27.03-.51.18-.74.33-3.5 2.22-7.93 3.33-11.86 2-.44-.15-.89-.34-1.21-.68-.37-.4-.52-.96-.64-1.49-1.5-6.34-2.97-13.39-3.01-19.91.82 1.3 2.22 3.26 3.19 4.45.28.35.78.54 1.21.67.63.19 1.27-.18 1.83-.52 2.33-1.45 4.79-2.77 7.16-4.14.26-.15 1.05-.46 1.05-.46s.29.25.57.42c1.28.8 2.47 1.8 3.75 2.61.29.18.69.16 1.03.15.29-.02.54-.18.78-.34 3.55-2.31 7.09-4.63 10.64-6.94l.05.69z"/><path d="M152.52 134.38c4.37 1.63 7.04 5.98 9.24 10.1.14.26.31.55.59.63.21.06.43 0 .64-.06 10.41-3.14 20.87-6.3 30.71-10.94-.07-4.93-2.83-9.36-5.49-13.5-.19-.3-.41-.62-.73-.76-.51-.22-1.08.04-1.58.29-3.82 1.96-7.8 3.59-11.89 4.88-1.66.52-3.34.99-4.99 1.55-5.79 1.95-11.17 4.93-16.5 7.91v-.09z" style="fill:url(#_Безымянный_градиент_10-6);stroke-width:0"/><path d="M187.92 105.48c-.58 1.33-1.4 2.54-2.34 3.65l-.03.03c-2.45 2.01-5.32 3.6-7.94 5.49-.03 1.2-.22 2.42-.4 3.6-.04.25-.08.48-.21.69-.17.26-.43.41-.69.57-1.37.75-2.78 1.41-4.22 1.98.01-1.08.03-2.16.04-3.24-1.24.5-2.57.77-3.89 1.01-7.79 1.36-16.32.73-22.76-3.83-2.9-2.06-5.24-4.81-7.55-7.52-2.6-3.08-5.21-6.15-7.61-9.4-.59-.82-1.19-1.65-1.81-2.46-.32-.24-.62-.5-.91-.72-1.29-1-2.83-1.55-4.4-1.99a34.086 34.086 0 0 0-13.18-1c.03-.04.06-.07.08-.11 1.89-2.45 8.77-3.57 8.81-3.43l.82-.32 5.12-2.05c-.37-.07-.75-.1-1.12-.1 1.98-.82 3.95-1.65 5.95-2.46 2.07-.86 4.16-1.73 6.25-2.59 2.35-.98 4.94-1.62 7.33-2.52.87-.33 2.12-.4 1.83-.1 3.26-1 6.53-1.98 9.79-2.97 2.71-.83 5.59-1.65 8.31-.91 1.76.48 3.28 1.56 4.73 2.66 4.43 3.33 8.67 6.94 12.35 11.09.18.22.37.47.54.75 1.8 1.59 3.51 3.28 5.07 5.12.93 1.09 1.8 2.27 2.34 3.6.95 2.38.71 5.13-.3 7.49z" style="fill:url(#_Безымянный_градиент_10-7);stroke-width:0"/><path class="cls-15" d="m106.81 129.14.56 2.43c2.06.95 4.47.35 6.66-.26 5.86-1.65 11.85-3.36 16.78-6.92.37-.27.76-.6.78-1.06 0-.27-.12-.52-.25-.75-.36-.66-.71-1.32-1.07-1.98-5.67 4.69-12.82 7.19-19.95 8.99-1.15.29-2.61.47-3.32-.48l-.19.04zM162.41 145.85c2.24 6.3 3.53 12.94 3.83 19.63 6.61-1.79 13.27-3.66 19.27-6.96a54.589 54.589 0 0 1-15.31 1.92c-.2 0-.42-.01-.58-.14-.18-.14-.23-.38-.28-.6a35.087 35.087 0 0 0-6.83-14.47M101.54 96.18c-.36 1.28-.52 2.67-.08 3.92s1.58 2.32 2.91 2.36c.22 0 .47 0 .63.16.18.19.11.49.05.75-.32 1.28-.15 2.68.46 3.85 1.38-2.02 2.18-4.43 2.26-6.87.42-.05.85-.1 1.27-.14-.52 2.41.31 5.06 2.12 6.74a13.2 13.2 0 0 0-.34-7.05c.31-.28.66.3.69.71.13 1.62.71 3.34 2.07 4.23.23.15.58.26.76.05.09-.11.1-.27.1-.41-.02-1.76-.49-3.51-1.35-5.05 1.22 3 4.65 4.94 7.85 4.42-1.55-1.6-3.1-3.19-4.65-4.79-.2-.2-.41-.41-.67-.52-.38-.15-.8-.05-1.2.03-2.37.52-4.81.71-7.23.56-1.11-.07-2.24-.21-3.26-.68s-1.91-1.29-2.23-2.36"/><path class="cls-4" d="m147.18 88.77 6.48-3.6c2.17-1.19 4.3-2.44 6.45-3.66l.8-.46c.27-.15.54-.32.76-.41.24-.09.36-.08.47-.01.13.08.32.32.52.57l1.18 1.43.57.7c.07.1.06.11.06.12 0 0 0 .03-.06.09-.23.26-.92.5-1.46.77l-1.68.81c-1.11.55-2.22 1.12-3.31 1.71-2.18 1.18-4.33 2.44-6.39 3.81a96.009 96.009 0 0 0-6.04 4.33l-.73.58c-.24.2-.47.4-.67.39-.2.01-.43-.22-.66-.42l-.69-.61c-.9-.84-1.75-1.73-2.55-2.67a23.98 23.98 0 0 0 2.37 2.86l.66.66c.22.19.42.5.87.56.44 0 .7-.27.95-.43l.76-.53c2-1.43 4.06-2.79 6.16-4.08 2.11-1.26 4.23-2.52 6.41-3.65 1.09-.58 2.19-1.12 3.29-1.66l1.67-.78.84-.38c.28-.13.64-.28.94-.61.15-.16.31-.42.31-.73.02-.31-.14-.59-.26-.73l-.61-.73-1.19-1.42c-.2-.22-.37-.5-.76-.76-.42-.28-.99-.2-1.31-.05-.36.15-.6.32-.87.47l-.8.47c-2.13 1.26-4.27 2.49-6.38 3.78l-6.34 3.84c-2.1 1.31-4.21 2.59-6.29 3.93 2.19-1.14 4.36-2.34 6.54-3.5z"/><path class="cls-4" d="M125.98 179.21c-2.51-.2-5.02-.53-7.49-.92-1.21-.21-2.38-.51-3.37-1.03-.99-.51-1.77-1.29-2.39-2.27-1.22-1.95-1.89-4.44-2.58-6.83-.64-2.42-1.15-4.88-1.58-7.37-.87-4.97-1.52-10.03-2.3-15.05l-2.34-15.08c-1.58-10.05-3.29-20.08-5.12-30.1 1.07 10.12 2.26 20.23 3.58 30.32 1.31 9.94 2.58 19.83 4.14 29.77-1.41-.53-2.74-1.25-3.9-2.19-1.29-.98-2.45-2.13-3.51-3.37-2.1-2.49-4.02-5.15-5.68-7.95-1.7-2.79-3.12-5.73-4.36-8.75-1.04-2.56-1.88-5.21-2.6-7.9.46.67.98 1.31 1.63 1.85.85.71 1.88 1.09 2.73 1.65 1.73 1.11 3.26 2.65 5.33 3.55l.83.36-.17-.9c-.48-2.53-.96-5.1-.27-7.48l.22-.77-.75.2c-1.5.41-3.11.45-4.72.36-1.52-.08-3.07-.2-4.61-.1.21-.2.41-.41.61-.61.84-.82 1.81-1.78 2.28-3.06.49-1.25.57-2.58.52-3.82-.04-1.25-.23-2.45-.35-3.62-.12-1.18-.24-2.35-.33-3.53-.34-4.71-.29-9.47.24-14.16.29-2.33.73-4.65 1.65-6.78.45-1.07 1.02-2.1 1.73-3.02.51-.66 1.11-1.26 1.74-1.82 1.89.01 3.78.19 5.65.54-.47.5-.82 1.1-1.09 1.73-.32.73-.5 1.51-.62 2.29-.21 1.57-.14 3.15.3 4.67.35-1.55.46-3.05.68-4.53.19-1.4.45-2.74.88-4.14 1.21.23 2.41.55 3.59.92-.43.52-.69 1.15-.81 1.81-.12.77-.07 1.59.32 2.3-1.07.56-2.11 1.19-3.01 2.01-.99.91-1.75 2.1-1.98 3.41.33-1.29 1.15-2.38 2.18-3.19 1.02-.82 2.18-1.43 3.39-1.94 1.55-.63 3.14-1.22 4.73-1.81 1.65-.34 3.33-.55 5.01-.61 1.64-.08 3.29-.03 4.91.15 1.22.13 2.44.34 3.6.69-1.19 1.59-2.77 2.8-4.47 3.69-1.77.91-3.68 1.54-5.64 1.96-1.96.43-3.95.7-5.89.39-1.9-.32-3.82-1.27-4.93-3.02.76 1.95 2.71 3.31 4.77 3.78.53.13 1.06.21 1.6.24-.61.93-1.03 1.95-1.35 2.99-.36 1.24-.6 2.52-.5 3.86.67-1.16 1.08-2.36 1.46-3.58.3-1.06.57-2.13.69-3.26.86.04 1.73-.01 2.58-.12-.26.87-.32 1.73-.32 2.6.03 1 .14 2 .56 2.99.38-1.01.45-2.01.44-3.01-.03-.87-.13-1.74-.43-2.61.52-.07 1.02-.17 1.53-.27.13-.03.26-.07.39-.1-.08.74.05 1.4.24 2.05.24.71.56 1.39 1.17 1.98.15-.83 0-1.57-.22-2.29-.22-.63-.51-1.24-1-1.79.68-.17 1.36-.37 2.03-.6.88.98 1.85 1.8 2.85 2.58 1.11.83 2.24 1.64 3.55 2.26-.8-1.22-1.84-2.18-2.94-3.05-.99-.74-2.05-1.41-3.23-1.87 1.03-.38 2.03-.85 2.97-1.43 1.74-1.05 3.24-2.56 4.12-4.36.37.11.74.24 1.1.39 3.03 1.16 5.01 3.93 7.23 6.37l4.03 4.57c1.55 2.57 2.22 5.52 2.95 8.41.79 3.05 1.62 6.1 2.47 9.13 1.7 6.07 3.6 12.09 5.58 18.09 2.06 5.97 4.24 11.88 6.1 17.88.93 3 1.76 6.03 2.41 9.11.68 3.07 1.15 6.18 1.4 9.33-.03-3.16-.4-6.3-.92-9.42-.56-3.11-1.31-6.19-2.16-9.23-1.71-6.09-3.91-12.01-5.89-17.98-2.06-5.95-3.93-11.96-5.79-17.98-.94-3.01-1.84-6.03-2.73-9.05-.85-2.75-1.62-5.66-3.25-8.08l2.37 2.68 3.32 3.69c1.11 1.23 2.23 2.48 3.5 3.59a15.9 15.9 0 0 0 4.28 2.73c1.55.68 3.18 1.12 4.8 1.5 3.23.75 6.55 1.36 9.9 1.25 2.98-.12 6-.82 8.54-2.38 0 .05-.01.1-.02.15-.13 1.2-.31 2.42-.37 3.66l-.03.7.64-.21 2.47-.8 1.23-.41c.21-.07.4-.13.64-.25.23-.11.51-.32.67-.58.33-.52.35-.99.43-1.42.07-.44.1-.89.11-1.33.02-.8-.06-1.59-.17-2.36 2.32-1.23 4.65-2.5 6.7-4.21 2.06-1.7 3.83-3.9 4.71-6.53.44-1.31.62-2.73.46-4.13-.13-1.4-.61-2.75-1.23-3.99-1.27-2.48-3.16-4.49-5.01-6.39-3.72-3.81-7.73-7.34-11.93-10.63-1.05-.82-2.12-1.62-3.2-2.4-1.08-.76-2.14-1.59-3.44-2.26a8.48 8.48 0 0 0-2.1-.77c-.76-.16-1.56-.17-2.28-.09-1.46.18-2.7.53-4.02.83-4.45 1.14-8.78 2.62-13.06 4.17a68.99 68.99 0 0 0-3.62-2.98c-1.53-1.12-3.13-2.17-4.83-3.04-3.39-1.75-7.27-2.76-11.16-2.43-1.93.19-3.85.77-5.56 1.68-1.71.91-3.27 2.01-4.75 3.2-1.48 1.19-2.9 2.46-4.23 3.81-1.2 1.26-2.35 2.57-3.39 3.96-1.19-.2-2.38-.36-3.58-.49-2.12-.2-4.28-.24-6.42.02-4.29.55-8.35 2.51-11.55 5.35a25.211 25.211 0 0 0-3.62 3.97c-2.21 2.11-3.72 4.84-4.61 7.67-.54 1.63-.84 3.34-.99 5.03-.15 1.69-.17 3.36-.16 5.01.01 3.29.1 6.59.29 9.87.35 6.58 1.15 13.11 1.92 19.63l.08.68.46-.5c2.9-3.13 5.88-6.19 8.91-9.18.02.12.04.24.05.36-.06-.07-.12-.13-.19-.2.07.1.13.2.2.3.19 1.25.41 2.49.69 3.73.41 1.6.86 3.2 1.41 4.76 1.09 3.13 2.52 6.15 4.23 9 1.72 2.84 3.69 5.53 5.97 7.95 1.15 1.2 2.4 2.32 3.79 3.25 1.29.84 2.71 1.49 4.19 1.84.02.15.04.29.07.44.24 1.37.52 2.74.82 4.11-1.58.02-3.15-.29-4.58-.9-1.67-.68-3.2-1.69-4.51-2.91-2.64-2.47-4.5-5.65-6.12-8.91-1.65-3.27-3.14-6.62-4.56-10-1.4-3.39-2.67-6.84-3.87-10.32.81 3.59 1.9 7.13 3.16 10.59 1.25 3.47 2.74 6.86 4.38 10.17 1.66 3.28 3.61 6.58 6.5 9.03 1.44 1.21 3.08 2.19 4.85 2.8 1.54.5 3.18.71 4.77.52.25 1.12.52 2.24.82 3.35.34 1.25.73 2.48 1.15 3.71.44 1.23.95 2.49 1.73 3.65.75 1.16 1.85 2.22 3.14 2.85 1.28.64 2.63.93 3.92 1.13 2.56.37 5.11.63 7.67.75 10.25.54 20.58-.85 30.24-4.05a94.623 94.623 0 0 1-30.14 2.5zm-21.94-85.02c-.12.06-.23.12-.34.18.19-.77.28-1.47.4-2.17.09-.61.21-1.21.27-1.87 1.49.48 2.95 1.06 4.37 1.75-1.57.68-3.14 1.37-4.7 2.11zm72.47 24.21c-.07.4-.14.82-.29 1.02-.1.18-.42.31-.85.45l-1.2.39-1.75.58c.06-.96.14-1.93.22-2.91.11-1.22.15-2.46.08-3.7-.09-1.24-.3-2.49-.78-3.64-.44-1.07-1.09-2.06-1.96-2.8.66-.49 1.33-.97 2.01-1.44.57-.38 1.14-.75 1.72-1.11.66 1.48 1.25 2.99 1.71 4.52.5 1.62.89 3.28 1.1 4.93.11.83.16 1.66.12 2.48-.02.41-.06.82-.12 1.22zm-19.97-42.18c1.25-.3 2.58-.66 3.75-.81 1.17-.16 2.19.08 3.28.63 1.07.54 2.12 1.33 3.2 2.09l3.18 2.33c4.2 3.16 8.18 6.6 11.99 10.24 1.03.98 2.02 1.99 2.92 3.05.17 1.44.2 2.89.14 4.32-.11 1.88-.34 3.78-.79 5.58-.44 1.81-1.3 3.43-2.72 4.64-1.39 1.23-3.11 2.2-4.5 3.55 1.62-1.04 3.41-1.74 5-2.95.8-.59 1.52-1.34 2.05-2.21.53-.87.89-1.82 1.14-2.78.47-1.93.65-3.87.6-5.83-.03-1.3-.21-2.6-.53-3.85.61.76 1.18 1.54 1.66 2.37.61 1.1 1.08 2.28 1.24 3.51.19 1.23.08 2.49-.26 3.71-.67 2.46-2.21 4.65-4.12 6.42-1.91 1.77-4.14 3.19-6.35 4.6l-.03-.26c-.31-1.72-.83-3.37-1.43-4.99-.6-1.52-1.33-2.99-2.19-4.37.77-.48 1.55-.95 2.36-1.38.17-.1.37-.16.59-.39.11-.12.17-.31.15-.47a.862.862 0 0 0-.15-.39c-.29-.37-.56-.63-.85-.93-.58-.58-1.21-1.11-1.88-1.57.58.57 1.13 1.16 1.64 1.79.24.31.52.65.69.95.07.16.06.22 0 .27-.06.07-.26.14-.45.23-1.49.67-2.96 1.41-4.35 2.28-1.4.86-2.73 1.83-3.99 2.87-.03.02-.05.04-.07.05-.05-.06-.13-.15-.19-.23l-.77-.94-1.21-1.48c1.41-.87 2.78-1.8 4.12-2.77 1.49-1.07 2.91-2.23 4.27-3.46-1.53 1-3.07 1.98-4.61 2.95-1.55.96-3.12 1.87-4.7 2.77l-.46.26.33.43 1.5 1.91.76.95c.14.14.18.34.61.58.22.11.54.07.71-.02.17-.08.28-.18.36-.24a42.1 42.1 0 0 1 1.81-1.43 7.61 7.61 0 0 1 1.6 2.92c.33 1.15.5 2.33.5 3.52 0 1.12-.12 2.23-.25 3.36-2.62 1.41-5.61 2-8.55 1.98-3.28 0-6.53-.67-9.71-1.51-1.59-.42-3.16-.9-4.64-1.55-1.48-.65-2.83-1.53-4.03-2.62-1.21-1.08-2.3-2.31-3.39-3.55l-3.29-3.72-6.64-7.39c-1.12-1.22-2.18-2.48-3.38-3.67-1.18-1.19-2.63-2.23-4.25-2.81-1.6-.6-3.28-.87-4.95-1.01-1.67-.14-3.34-.15-5.01-.01-1.11.09-2.21.27-3.3.48.33-.12.67-.25 1-.37l7.59-2.81c2.18.33 4.28 1.01 6.23 1.99 2.37 1.15 4.53 2.7 6.5 4.44.98.88 1.92 1.8 2.8 2.77.88.95 1.63 2.07 2.44 3.12.8 1.06 1.57 2.15 2.47 3.16.89 1.02 1.83 1.98 2.79 2.91 1.95 1.82 3.95 3.64 6.27 5.06 2.31 1.42 4.85 2.46 7.48 3.05 2.64.58 5.35.75 8.03.53 2.67-.28 5.3-.95 7.71-2.07-4.99 1.86-10.48 2.1-15.56.8-2.52-.69-4.98-1.67-7.18-3.08-2.21-1.39-4.15-3.19-6.07-5.01-.96-.91-1.89-1.84-2.77-2.82-.88-.96-1.66-2.04-2.48-3.1-.83-1.05-1.57-2.14-2.51-3.14-.91-1-1.91-1.91-2.94-2.77-2.07-1.71-4.33-3.21-6.79-4.3-1.97-.84-4.06-1.44-6.18-1.65l7.03-2.6c4.98-1.79 9.94-3.62 14.94-5.36 4.98-1.77 9.95-3.53 15.03-4.79zm-38.02 11.72a23.878 23.878 0 0 0-4.32-2.66c-1.93-.89-3.97-1.56-6.03-2.07-.51-.13-1.03-.25-1.55-.35.66-.68 1.38-1.3 2.16-1.81.94-.65 1.97-1.17 3.04-1.54 2.13-.75 4.44-1.01 6.64-.62 2.2.37 4.3 1.43 6.42 2.37 1.57.72 3.11 1.5 4.66 2.28-1.18.46-2.35.9-3.53 1.37-2.51.99-5 2-7.5 3.03zm-4.97-12.45c1.53-1.08 3.05-2.18 4.7-3 1.64-.84 3.41-1.34 5.24-1.49 3.66-.38 7.37.56 10.73 2.13 3.08 1.42 5.9 3.37 8.68 5.37-.68.25-1.35.49-2.03.74-3.68 1.37-7.35 2.76-11.01 4.19a47.842 47.842 0 0 0-4.63-2.84c-2.06-1.1-4.17-2.23-6.59-2.67-2.4-.41-4.9-.08-7.1.89-1.1.49-2.13 1.11-3.05 1.87-.75.65-1.43 1.37-1.98 2.18-.33-.07-.66-.12-.99-.18 2.48-2.63 5.14-5.05 8.04-7.17zM84.4 88.11c3.21-2.62 7.07-4.49 11.18-4.94 4.1-.55 8.32 0 12.41.79 2.05.41 4.07.98 6 1.77 1.54.59 3 1.36 4.39 2.27-2.36.98-4.72 1.96-7.07 2.97-.73.32-1.47.64-2.2.96-5.27-3.37-11.7-5.06-18.07-4.68-1.69.1-3.39.37-5.05.89-1.13.35-2.23.85-3.26 1.48.54-.52 1.09-1.03 1.67-1.5zm1.38 40.58a218.2 218.2 0 0 1-2.86 3.21c-.13 0-.23-.09-.3-.2-.09-.12-.13-.27-.19-.43-.11-.31-.19-.63-.26-.95-.16-.63-.25-1.27-.3-1.91-.05-1.25-.04-2.65.68-3.44.35-.41.83-.62 1.31-.52.5.07.98.45 1.32.91.6.87.63 2.11.6 3.33zm.14-.16c.13-.47.24-.95.3-1.46.05-.69 0-1.44-.38-2.12-.36-.66-.97-1.22-1.78-1.43-.84-.22-1.75.18-2.26.78-.53.61-.75 1.4-.82 2.11-.05.72-.02 1.41.11 2.09.12.68.33 1.35.61 1.97.15.31.31.61.49.9.09.14.17.3.32.42.09.09.24.16.37.14a287.47 287.47 0 0 1-5.58 6.01c-.63-6.29-.8-12.62-.88-18.92-.03-3.27-.02-6.54.03-9.81.05-3.27.25-6.44 1.26-9.41.96-2.96 2.58-5.72 4.92-7.66 2.33-1.95 5.4-2.89 8.55-3.21.99-.11 1.99-.15 2.99-.16-1.54 1.16-2.82 2.71-3.73 4.44-1.16 2.19-1.78 4.6-2.19 6.99-.78 4.79-.96 9.66-.61 14.5.15 2.41.62 4.86.91 7.12.12 1.13.11 2.26-.21 3.27-.3 1.02-1.01 1.87-1.82 2.76-.19.22-.4.44-.59.66zm.33 1.12.39-.39c1.54.13 3.05.44 4.6.63 1.39.16 2.83.27 4.27.05-.27 1.1-.33 2.24-.25 3.35.06 1.01.23 1.99.41 2.96-1.51-.8-2.89-1.97-4.5-2.84-.97-.52-1.96-.86-2.82-1.4-.73-.46-1.33-1.1-1.94-1.76-.05-.2-.11-.4-.16-.6z"/><path class="cls-4" d="M205.52 146.2c-.35-1.05-.7-2.05-1.07-3.07-1.51-4.05-3.19-8.03-5.13-11.89-1.93-3.86-4.08-7.6-6.42-11.22-2.39-3.58-4.91-7.08-7.68-10.35 4.89 7.06 9.13 14.5 12.7 22.25 1.75 3.89 3.37 7.83 4.75 11.85.61 2.01 1.62 4.1 1.43 5.78-.18 1.65-1.73 3.21-3.23 4.56-3.08 2.73-6.95 4.58-10.7 6.68-3.75 2.08-7.51 4.13-11.25 6.25-3.75 2.07-7.46 4.26-11.2 6.31-3.72 2.03-7.74 3.72-12.07 3.72 1.07.1 2.15.1 3.23 0 1.08-.11 2.14-.32 3.19-.59 2.1-.55 4.12-1.36 6.08-2.26 3.9-1.86 7.68-3.85 11.5-5.81 3.82-1.95 7.6-3.97 11.4-5.95 3.74-2.03 7.72-3.89 11.12-6.84.84-.75 1.62-1.53 2.35-2.46.71-.92 1.36-2.06 1.5-3.39.13-1.31-.19-2.5-.52-3.56z"/><path class="cls-4" d="M169.31 125.95c-2.96 1.04-5.86 2.27-8.71 3.6-2.84 1.35-5.61 2.8-8.38 4.26l-.75.39.42.23c-.83 1.27-1.11 2.85-1.06 4.36.05 1.63.36 3.24.73 4.8l2.28 9.41c.72 3.15 1.59 6.26 2.75 9.31.59 1.52 1.27 3.01 2.11 4.43.11.18.18.34.36.57.15.23.59.47.91.42.32-.02.49-.09.69-.13l.59-.14 2.35-.58 1.17-.3c.41-.12.73-.16 1.24-.35.25-.09.58-.36.68-.71.02-.06.02-.11.03-.16 3.92-.53 7.74-1.79 11.37-3.36 3.94-1.69 7.68-3.74 11.48-5.67l2.82-1.5c.94-.5 1.92-1.04 2.76-1.81.85-.74 1.52-1.88 1.53-3.09.02-1.19-.38-2.23-.68-3.24-.64-2.03-1.29-4.07-2.1-6.06-.77-1.81-1.65-3.58-2.75-5.2.99-.45 1.97-.89 2.95-1.35l.21-.1-.05-.22c-.61-2.54-1.5-5.01-2.59-7.38-1.09-2.37-2.4-4.63-3.92-6.74 1.41 2.18 2.63 4.48 3.63 6.87a44.15 44.15 0 0 1 2.28 7.16c-1.97.88-3.95 1.71-5.95 2.51l-.81-3.7c1.24-.41 2.12-1.41 2.12-2.58 0-1.54-1.51-2.78-3.37-2.78s-3.37 1.25-3.37 2.78c0 1.41 1.27 2.56 2.92 2.75l1.05 4.13c-2.58 1.02-5.19 1.99-7.8 2.92-3.2 1.13-6.43 2.17-9.68 3.13l-.93-2.5c.96-.51 1.6-1.41 1.6-2.44 0-1.59-1.52-2.88-3.4-2.88s-3.4 1.29-3.4 2.88 1.52 2.88 3.4 2.88c.05 0 .1-.01.16-.01l1.04 2.52c-1.42.41-2.83.8-4.26 1.17a24.43 24.43 0 0 0-5.74-7.45c-.51-.48-1.06-.93-1.64-1.32a22.84 22.84 0 0 0-2.22-1.45c4.72-2.52 9.46-5 14.41-7 .08.94.35 1.72.64 2.51.31.78.64 1.54 1.21 2.29.2-.93.03-1.82-.27-2.65-.33-.82-.8-1.59-1.57-2.15.58-.23 1.16-.47 1.75-.69.07-.02.13-.05.2-.07.91.62 1.83 1.11 2.76 1.61 1.06.54 2.09 1.09 3.29 1.52-.72-1.06-1.74-1.81-2.83-2.4-.85-.43-1.77-.77-2.73-.9 5.62-2.08 11.44-3.81 16.76-6.65-5.66 2.7-11.75 4.22-17.66 6.32zm-6.47 19.56c1.59-.43 3.17-.88 4.75-1.35l1.61 3.93-2.92 1.15 5.73 2.6.65-5.19-2.07 1.06-1.49-4c2.71-.83 5.41-1.71 8.09-2.65-.45.89-.61 1.81-.7 2.73-.06.94-.05 1.89.27 2.86.47-.91.64-1.84.73-2.78.06-.93.05-1.86-.26-2.82.46-.16.92-.32 1.37-.48.22.87.66 1.56 1.16 2.2.53.62 1.12 1.2 1.94 1.58-.21-.88-.66-1.57-1.17-2.22-.53-.62-1.11-1.19-1.92-1.57.04-.02.09-.03.13-.04 2.59-.94 5.15-1.95 7.69-3.02l.73 2.88-3.05.72 5.3 3.38 1.38-5.04-2.2.76-.72-3.3c1.08-.47 2.16-.94 3.24-1.43a33.04 33.04 0 0 1 2.33 5.36c.71 2 1.27 4.04 1.82 6.1.26 1.03.59 2.04.56 3-.03.95-.52 1.8-1.27 2.44-.74.66-1.66 1.15-2.6 1.64l-2.84 1.46c-3.76 2-7.5 4.03-11.33 5.85a56.62 56.62 0 0 1-5.86 2.45c-1.69.62-3.42 1.12-5.18 1.52.03-.2.03-.38.02-.52l-.07-1.22c-.12-1.62-.3-3.24-.55-4.84-.5-3.21-1.23-6.39-2.29-9.46-.42-1.23-.88-2.44-1.38-3.63l.37-.1zm-3.03-4.28c1.37 2.62 2.41 5.42 3.31 8.24.93 3.06 1.67 6.19 2.12 9.35.23 1.58.39 3.17.49 4.77 0 .74.2 1.86-.11 1.74-.24.09-.73.19-1.09.29l-1.17.29-2.34.6-.59.15c-.2.05-.41.11-.49.11-.09 0-.04.02-.14-.07-.07-.08-.19-.28-.28-.45-.82-1.35-1.49-2.79-2.09-4.27-1.17-2.96-2.02-6.08-2.85-9.18l-2.54-9.32c-.44-1.55-.81-3.11-.94-4.71-.1-1.47.07-3.02.81-4.33l.31.17c2.98 1.62 5.56 3.92 7.59 6.63z"/><path class="cls-4" d="M151.93 134.75c.65 3.27 1.49 6.46 2.31 9.65.85 3.19 1.69 6.38 2.74 9.54-.28-3.32-.94-6.58-1.78-9.79-.86-3.2-1.88-6.37-3.28-9.4zM160.11 151.47c-.36-2.93-1.3-5.78-2.54-8.46-1.27-2.67-2.86-5.2-4.88-7.36 1.38 2.61 2.76 5.15 3.97 7.78 1.24 2.62 2.32 5.3 3.45 8.03zM106.82 130.17c.09.48.35.93.72 1.26.1.09.23.15.34.22.18 1.37.4 2.74.66 4.09.3 1.53.62 3.06 1.02 4.57.79 3.02 1.73 6.01 2.86 8.93l.09.23.25.03c3.8.47 7.67.38 11.45-.25 3.78-.63 7.46-1.87 10.88-3.58.42-.22.95-.47 1.28-1.06.31-.63.17-1.19.15-1.63-.07-.95-.16-1.9-.29-2.84-.25-1.89-.58-3.77-.99-5.62a59.07 59.07 0 0 0-3.39-10.56c.04-.03.08-.06.13-.09l.26-.21-.12-.32-1.06-2.97-.23-.63-.54.4c-3.45 2.57-7.19 4.77-11.14 6.49-1.98.86-3.98 1.65-6.05 2.29-1.03.33-2.05.64-3.1.72-1.03.09-2.1-.07-2.94-.68v-.01c.03-.04.05-.09.09-.14-.04.04-.06.08-.09.13-.16-.14-.24-.3-.18-.51.06-.22.21-.46.34-.7.28-.47.58-.92.92-1.35.68-.85 1.47-1.63 2.36-2.28-.94.58-1.8 1.3-2.53 2.13-.37.42-.71.86-1.02 1.32-.15.24-.32.45-.42.76-.13.31.02.75.27.94.01.01.03.02.04.03-.09.27-.12.57-.06.86zm1.11 1.52c.72.42 1.6.5 2.4.44.35-.03.68-.09 1.02-.14.08.87.19 1.73.32 2.59-.04 0-.09.01-.13.02-.95.13-1.9.24-2.86.39-.26-1.09-.51-2.19-.75-3.29zm11.85-1.65c.04.44.09.89.15 1.33.05.4.1.79.16 1.19-.89.25-1.79.48-2.68.75-.28.08-.56.14-.84.22-.19-.82-.38-1.63-.6-2.45h.03-.02c1.27-.34 2.54-.66 3.81-1.03zm9.41 8.93c-.68.2-1.34.44-2.01.67-.14-.61-.28-1.22-.44-1.82-.09-.35-.19-.71-.28-1.06.76-.28 1.52-.59 2.27-.9.27-.11.54-.23.81-.34.07.3.15.59.21.89l.55 2.21-1.12.36zm1.29.3.54 2.14c.09.31.17.63.25.95l-1.34.37c-.67.16-1.32.38-1.97.57-.18-.93-.37-1.86-.57-2.78.7-.26 1.38-.54 2.07-.82.34-.13.68-.28 1.02-.42zm-14.63-.56c.31 0 .61-.01.92-.03.12.52.24 1.04.36 1.57l.39 1.5-.84.09c-.76.06-1.53.08-2.29.07-.13-.46-.26-.93-.38-1.39l-.54-1.86c.8.05 1.6.07 2.4.05zm-2.56-.61-.57-1.95c-.12-.38-.23-.76-.35-1.14.75-.04 1.5-.12 2.25-.22.5-.06.99-.14 1.49-.24.04.33.08.67.14 1 .1.77.23 1.53.35 2.3-.27.03-.53.08-.79.1-.83.09-1.67.13-2.51.15zm7.64-1.06s.02.1.04.15l-.33.05-1.6.24c-.49.08-.99.16-1.49.24-.18-.77-.34-1.54-.53-2.31-.09-.34-.16-.68-.24-1.01.28-.07.57-.12.85-.2.88-.21 1.75-.44 2.62-.67.21 1.18.44 2.35.68 3.51zm-.05-3.69c1.01-.32 2-.71 2.99-1.08.19-.07.38-.16.57-.23.27 1.38.57 2.75.89 4.12l-3.43.85s-.67-2.5-1.01-3.65zm-4.17 9.25c.34 0 .69-.02 1.03-.03.24.76.47 1.52.73 2.27.02.05.04.1.05.14-.27.02-.55.04-.82.07-.81.06-1.62.14-2.43.19l-.09-.33c-.2-.81-.43-1.61-.65-2.41.72.06 1.44.11 2.16.1zm1.79-.96-.4-1.63c-.13-.47-.24-.95-.35-1.43.47-.05.93-.11 1.4-.17.4-.05.8-.11 1.21-.16.18-.02.42-.1.6-.08.28.03.2-.03.3.27.27.83.43 1.71.66 2.55 0 .02.01.04.02.06-1.14.24-2.29.44-3.45.59zm3.73.36c.24.79.49 1.58.74 2.36-.72.11-1.45.19-2.17.31l-1.51.23c-.02-.1-.05-.19-.07-.29l-.51-2.1c1.18-.1 2.36-.27 3.52-.51zm.66-1.15s-.02-.06-.02-.1l-.72-2.79 3.4-.89c.08.33.15.65.23.98.16.62.32 1.24.49 1.86-.05.01-.1.03-.15.04l-3.1.86-.12.03zm.35.94 3.16-.93s.08-.03.12-.04c.24.88.49 1.76.75 2.64-.11.02-.22.05-.34.07l-3.04.66-.17.03c-.19-.81-.38-1.61-.58-2.41.04 0 .07-.01.11-.02zm5.22-6.65c-.75.22-1.48.5-2.22.75-.37-1.37-.77-2.74-1.2-4.1.67-.29 1.34-.6 2.01-.9.43-.2.86-.41 1.29-.62.08.37.17.75.24 1.12.24 1.16.53 2.3.81 3.44-.31.1-.62.21-.93.31zm-1.73-4.99c-.66.25-1.31.51-1.97.77-.26-.79-.54-1.57-.84-2.35.15-.06.31-.11.46-.17 1.11-.48 2.19-1.03 3.24-1.62.17.95.37 1.88.57 2.82-.48.19-.97.38-1.46.55zm-2.47.95c-.24.09-.48.19-.73.27-.98.36-1.96.7-2.94 1.03-.11-.37-.21-.74-.33-1.11-.13-.43-.27-.85-.41-1.27.12-.04.25-.07.37-.11 1.21-.44 2.43-.85 3.62-1.32.12.84.26 1.67.42 2.5zm-8.23 2.57c-.51.14-1.02.29-1.53.4-.75.17-1.51.31-2.28.42-.26-.84-.53-1.68-.83-2.51.59-.1 1.18-.21 1.77-.31.91-.19 1.8-.32 2.74-.57.03.86.06 1.72.13 2.58zm-7.2 2.01c-.06-.22-.1-.45-.15-.68.96.04 1.93.03 2.9.04h.17c.07.43.13.87.22 1.29.11.6.24 1.19.37 1.78-.95.01-1.9.01-2.85.05-.23-.82-.46-1.65-.66-2.48zm1.25 4.49-.57-1.97c.97.15 1.95.26 2.94.39l.59 2.2c.1.37.22.74.33 1.11-.94-.01-1.88-.11-2.82-.22-.16-.5-.32-1-.47-1.5zm.48 1.57c.96.29 1.95.52 2.95.65.29.92.6 1.84.93 2.75.02.05.04.09.06.14-.89.03-1.79.05-2.69.1-.44-1.21-.86-2.42-1.25-3.65zm2.54 6.94c-.44-1.07-.86-2.15-1.26-3.23.91.12 1.82.21 2.74.32h.12c.41 1.05.87 2.09 1.36 3.11-.99-.03-1.98-.09-2.96-.2zm3.07.2c-.22-1.04-.48-2.07-.75-3.09.77.02 1.55 0 2.33.02.36.02.72 0 1.08-.01.39 1.01.84 2 1.3 2.97-1.32.1-2.63.14-3.95.11zm7.87-.58c-1.26.22-2.53.36-3.81.47-.22-1.02-.47-2.02-.72-3.01.47-.04.94-.1 1.4-.15.79-.11 1.59-.19 2.38-.31.36.98.74 1.95 1.15 2.92l-.41.09zm.51-.11c-.19-1.01-.39-2-.62-3 .04 0 .09-.01.13-.02l3.1-.72c.13-.03.25-.07.38-.1.3.97.61 1.93.96 2.89-1.3.38-2.62.7-3.94.95zm4.04-.98a73.59 73.59 0 0 0-.46-3.03c.19-.06.37-.12.56-.19.5-.17 1-.35 1.49-.54.43-.14.85-.3 1.26-.47.26.99.54 1.98.85 2.97-1.21.49-2.45.9-3.7 1.27zm7.08-4.16c.04.48.08.93-.07 1.16-.14.26-.5.48-.91.67-.76.37-1.54.71-2.32 1.03-.1-1.06-.2-2.12-.35-3.18 1.19-.53 2.34-1.15 3.48-1.75.06.69.12 1.38.17 2.07zm-.23-2.82c.02.22.03.45.05.67-.87.28-1.72.58-2.58.87-.33.12-.66.24-.98.36-.05-.3-.09-.59-.15-.89-.13-.79-.29-1.57-.44-2.36 1.25-.57 2.48-1.2 3.7-1.83.15 1.06.29 2.11.39 3.17zm-.78-5.59c.14.79.27 1.57.38 2.36-.93.29-1.85.62-2.78.92l-1.05.38-.48-2.13c-.08-.36-.19-.71-.28-1.06 1.34-.64 2.62-1.41 3.83-2.27.13.6.26 1.2.37 1.8zm-.38-1.85c-.91.43-1.82.86-2.75 1.22-.4.18-.81.34-1.23.49-.3-1.11-.63-2.22-.97-3.33-.12-.41-.25-.82-.39-1.22.4-.2.8-.41 1.19-.62.96-.54 1.93-1.07 2.88-1.63.48 1.68.9 3.38 1.27 5.09zm-1.28-5.11c-1.04.37-2.06.79-3.08 1.19-.39.17-.79.34-1.19.5-.32-.89-.67-1.77-1.03-2.64.21-.12.42-.22.63-.34 1.23-.71 2.41-1.52 3.53-2.41.42 1.23.8 2.46 1.16 3.71zm-26.09 1.66c.89.7 2.06.93 3.15.86 1.13-.05 2.21-.34 3.25-.64 2.1-.59 4.18-1.28 6.19-2.14 3.83-1.62 7.47-3.68 10.85-6.1l.75 2.02c-1.03.83-2.11 1.59-3.25 2.27-1.25.74-2.51 1.42-3.84 2.01-1.34.55-2.69 1.05-4.04 1.59-1.37.48-2.78.86-4.16 1.29h-.03c-.85.28-1.82.45-2.73.68-.92.2-1.85.48-2.77.61-.83.11-1.73.07-2.43-.37l-.06-.27c.01.08.03.17.04.25-.06-.04-.12-.06-.17-.1-.35-.29-.62-.69-.74-1.14-.07-.26-.08-.54 0-.81zM130.15 175c.22.31.48.55.72.77.48.45.97.92 1.54 1.32.56.41 1.23.73 1.93.89.7.16 1.41.18 2.09.13 1.37-.11 2.65-.36 3.96-.62 1.31-.28 2.61-.63 3.87-1.14a14.169 14.169 0 0 0 2.7-1.47c.15-.11.31-.24.46-.43.15-.18.27-.46.28-.7.02-.5-.07-.77-.11-1.1l-.15-.98-.31-1.95-.64-3.9c-.86-5.2-1.68-10.4-2.58-15.6l-.12-.67-.51.44a59.875 59.875 0 0 1-8.31 6c-.73.45-1.47.88-2.22 1.29-.38.2-.75.44-1.12.57-.37.14-.73.05-1.06-.22-1.33-1.09-2.86-1.89-4.21-2.94.06-.05.11-.09.17-.13-.06.03-.12.06-.19.09-.01-.06-.03-.12-.04-.18l.03.19c-2.8 1.35-5.5 2.82-8.22 4.25-.68.35-1.43.85-1.94.88-.48.07-.93-.53-1.36-1.21-.85-1.32-1.76-2.62-2.73-3.89.63 1.46 1.32 2.89 2.06 4.29.18.35.37.72.68 1.07.29.35.81.69 1.36.67.54 0 .96-.22 1.33-.4l1.06-.55c2.72-1.47 5.35-3.12 7.75-5.09.84 5.12 1.7 10.24 2.62 15.35.24 1.31.44 2.57.71 3.91.08.34.23.72.46 1.02zm-3.79-20.29c1.28 1.15 2.76 2.03 4.04 3.17.17.14.37.27.61.34s.5.04.72-.03c.45-.14.81-.36 1.2-.55.77-.39 1.53-.79 2.29-1.21 2.81-1.59 5.49-3.41 8.02-5.43.26 1.75.53 3.5.8 5.25-2.86 1.43-5.65 2.93-8.48 4.36l-2.22 1.13c-.37.2-.7.36-1 .38-.28.03-.55-.09-.9-.31-1.33-.91-2.71-1.78-4.12-2.6-.32-1.5-.64-3-.97-4.5zm.99 4.54c1.18 1.11 2.39 2.17 3.66 3.19.32.26.82.58 1.39.55.55-.02.99-.24 1.36-.41.76-.35 1.51-.72 2.26-1.09 2.83-1.46 5.56-3.14 8.04-5.16.5 3.21 1 6.42 1.49 9.63l1.18 7.69c.07.22-.62.64-1.13.96-.54.33-1.11.61-1.7.86-1.18.5-2.43.84-3.69 1.12-1.27.26-2.58.52-3.84.63-1.27.11-2.47-.09-3.48-.83-.52-.35-1-.78-1.49-1.21-.51-.44-.86-.82-1.01-1.41-.28-1.23-.53-2.56-.8-3.84-.72-3.57-1.48-7.13-2.25-10.69z"/><path class="cls-4" d="M114.17 172.81c.18.73.3 1.49.62 2.27.3.79.96 1.52 1.72 1.89.75.39 1.55.57 2.32.68.78.12 1.57.17 2.35.12 1.56-.07 3.1-.42 4.54-1.01 1.42-.63 2.73-1.47 3.8-2.56-1.22.92-2.55 1.65-3.98 2.1-1.41.48-2.9.73-4.37.7-.74 0-1.47-.09-2.19-.22s-1.43-.32-2.02-.65c-.6-.33-1.02-.79-1.27-1.43-.25-.63-.38-1.38-.55-2.12-.69-2.96-1.36-5.91-1.96-8.88l-.3-1.57c.18.32.37.64.55.97.18.3.39.61.69.89.29.28.76.46 1.17.47.42.02.78-.05 1.12-.1.35-.05.7-.11 1.05-.18.7-.15 1.39-.32 2.07-.53 2.72-.86 5.29-2.25 7.34-4.21-2.51 1.31-5.01 2.44-7.64 3.25-.65.22-1.32.39-1.98.56-.33.08-.67.17-1.01.24-.35.07-.68.17-.96.18-.55.07-1.03-.33-1.48-.88-.34-.37-.68-.76-1.03-1.14-.41-2.3-.74-4.62-.97-6.96-.12 3.05.15 6.1.59 9.12.43 3.02 1.08 6.01 1.74 8.97z"/></g></g></g></svg>