<svg width="153" height="202" viewBox="0 0 153 202" fill="none" xmlns="http://www.w3.org/2000/svg">
<path d="M77.24 185.079C119.076 185.079 152.99 175.117 152.99 162.829C152.99 150.541 119.076 140.579 77.24 140.579C35.4044 140.579 1.49 150.541 1.49 162.829C1.49 175.117 35.4044 185.079 77.24 185.079Z" fill="url(#paint0_linear_2310_97333)"/>
<path d="M152.99 162.829C152.99 164.569 152.26 166.229 151.24 167.609C150.21 168.999 148.91 170.169 147.51 171.179C144.72 173.219 141.57 174.709 138.38 176.029C131.97 178.609 125.25 180.349 118.48 181.709C104.92 184.419 91.08 185.619 77.25 185.829C63.41 185.979 49.52 185.189 35.81 182.769C28.97 181.499 22.16 179.899 15.59 177.319C12.33 175.989 9.09 174.489 6.13 172.349C4.65 171.299 3.24 170.049 2.07 168.489C0.91 166.959 0.01 164.979 0 162.839C0 160.699 0.91 158.719 2.07 157.179C3.24 155.619 4.65 154.379 6.13 153.319C9.09 151.179 12.33 149.679 15.59 148.349C22.15 145.759 28.97 144.169 35.81 142.889C49.52 140.459 63.41 139.679 77.25 139.829C91.09 140.039 104.93 141.249 118.48 143.959C125.25 145.319 131.97 147.059 138.38 149.639C141.57 150.949 144.72 152.439 147.51 154.489C148.91 155.499 150.21 156.669 151.24 158.059C152.27 159.439 152.99 161.099 152.99 162.839V162.829ZM152.99 162.829C152.98 161.089 152.25 159.439 151.21 158.069C150.18 156.689 148.87 155.529 147.47 154.529C144.67 152.509 141.52 151.039 138.33 149.739C131.91 147.209 125.16 145.629 118.39 144.369C104.81 141.969 90.99 141.189 77.23 141.339C63.47 141.549 49.71 142.759 36.28 145.439C29.58 146.779 22.93 148.509 16.65 151.039C13.54 152.319 10.47 153.779 7.85 155.709C5.23 157.569 2.99 160.139 2.98 162.839C2.98 165.539 5.23 168.109 7.85 169.969C10.48 171.899 13.54 173.359 16.65 174.639C22.92 177.169 29.57 178.889 36.28 180.239C49.71 182.929 63.48 184.129 77.23 184.339C90.99 184.479 104.8 183.709 118.39 181.299C125.16 180.039 131.91 178.459 138.33 175.929C141.52 174.639 144.67 173.169 147.47 171.139C148.87 170.139 150.18 168.979 151.21 167.599C152.24 166.229 152.97 164.579 152.99 162.839V162.829Z" fill="black"/>
<path d="M24.3611 104.128C24.6646 101.012 25.3417 97.8947 26.5091 94.988C27.3029 93.0269 28.5753 89.4547 30.6999 88.5792C31.8555 88.1123 32.4042 89.2446 32.6027 90.1785C32.9178 91.6494 32.8245 93.1086 32.5093 94.5678C32.9762 92.4315 35.4393 89.5715 37.8091 89.7816C40.7742 90.0384 40.0037 94.0074 39.0581 95.7118C39.6301 94.9413 40.2021 94.1592 40.9259 93.5288C41.6497 92.8985 42.5252 92.4082 43.4824 92.3148C45.1751 92.163 46.7977 93.3537 47.4865 94.8946C48.6071 97.3811 47.6499 100.159 46.4709 102.424C43.2023 108.704 37.4705 113.701 30.7232 115.849C23.9759 117.997 16.3064 117.179 10.2828 113.479C6.94415 111.424 4.01408 108.319 3.18526 104.49C2.83505 102.868 2.88175 101.105 3.64053 99.6224C4.39931 98.1399 5.9519 97.0075 7.62122 97.0542C9.29054 97.1009 10.8898 98.5134 10.8665 100.171C10.9365 99.2255 11.1233 98.1049 11.9755 97.6729C12.6058 97.3577 13.3996 97.5562 13.9366 97.9998C14.4736 98.4434 14.8238 99.0854 15.139 99.7158C16.283 102.086 17.0535 104.642 17.4037 107.257C17.2286 105.833 17.1235 104.35 17.6138 103.008C18.1391 101.595 19.5516 100.323 21.1509 100.591C22.7502 100.86 23.7891 102.623 24.3027 104.047" fill="#76B82A"/>
<path d="M10.7378 105.191C10.8545 104.607 10.9712 104.023 10.9245 103.428C10.8779 102.833 10.6794 102.237 10.2358 101.84C10.0257 101.654 9.76886 101.513 9.50037 101.408C8.96339 101.21 8.34469 101.14 7.83105 101.373C7.31741 101.607 6.93219 102.214 7.08394 102.763C6.4419 102.471 5.62475 102.716 5.19283 103.264C4.7609 103.813 4.66751 104.595 4.90099 105.261C5.13446 105.926 5.65977 106.463 6.27847 106.802C6.00997 106.276 5.74148 105.704 5.7765 105.121C5.81152 104.537 6.29014 103.918 6.88549 103.965C7.38746 104 7.72599 104.455 8.01783 104.864C7.92444 104.409 7.91277 103.93 8.08787 103.51C8.26297 103.089 8.6482 102.728 9.10347 102.681C9.58209 102.646 10.0374 102.961 10.3058 103.381C10.5743 103.801 10.6677 104.28 10.7611 104.759" fill="white"/>
<path d="M14.9989 109.277C14.5903 108.996 14.1584 108.716 13.6681 108.635C13.1778 108.553 12.6058 108.763 12.419 109.218C12.3257 109.44 12.3373 109.685 12.3723 109.919C12.5358 110.958 13.2479 111.821 14.065 112.463C13.6097 112.417 13.2128 112.16 12.8393 111.891C12.2323 111.448 11.6486 110.934 11.3101 110.257C10.9715 109.58 10.9248 108.728 11.3451 108.109C11.6603 107.642 12.2206 107.362 12.7809 107.35C13.3413 107.339 13.9016 107.596 14.2751 108.016C14.5787 108.354 14.7771 108.786 15.0573 109.148" fill="white"/>
<path d="M22.9487 109.814C22.5168 109.3 21.9681 108.821 21.3027 108.798C21.1743 108.798 21.0342 108.798 20.9175 108.856C20.6724 108.961 20.4973 109.195 20.4272 109.452C20.3572 109.709 20.3689 109.977 20.4272 110.246C20.5673 111.098 21.0109 111.892 21.6529 112.475C21.5362 112.58 21.3611 112.499 21.2327 112.417C20.4622 111.927 19.6801 111.366 19.2482 110.561C18.8163 109.755 18.8279 108.635 19.505 108.028C19.8085 107.759 20.2054 107.607 20.6023 107.549C20.8358 107.514 21.0809 107.502 21.3027 107.549C21.793 107.654 22.2016 108.004 22.4818 108.425C22.7619 108.845 22.9137 109.323 23.0654 109.802" fill="white"/>
<path d="M28.3065 109.79C28.5283 109.3 28.8202 108.833 29.1587 108.401C29.3922 108.109 29.6607 107.817 30.0225 107.689C30.5128 107.514 31.0848 107.689 31.4467 108.074C31.8086 108.459 31.9837 108.973 31.9954 109.487C32.007 110 31.8903 110.514 31.7269 111.004C32.1705 110.292 32.6374 109.557 32.7775 108.728C32.9176 107.899 32.6608 106.942 31.937 106.51C31.4 106.183 30.6879 106.206 30.1159 106.486C29.5439 106.767 29.1237 107.269 28.8318 107.841C28.54 108.413 28.3999 109.031 28.2832 109.65" fill="white"/>
<path d="M37.7862 103.463C37.9496 103.078 38.1247 102.693 38.1247 102.272C38.1247 101.852 37.9146 101.408 37.5294 101.268C37.2725 101.175 36.969 101.233 36.7122 101.315C36.3036 101.455 35.9067 101.7 35.6616 102.062C35.9301 101.233 36.1402 100.37 36.1285 99.494C36.1285 99.2956 36.1052 99.0971 36.0235 98.922C35.8717 98.6302 35.5215 98.4901 35.1946 98.4901C34.8678 98.4901 34.5526 98.6302 34.2724 98.7936C33.5253 99.2139 32.895 99.8326 32.463 100.58C32.4163 99.8793 32.0428 99.2139 31.4708 98.817C31.2957 98.7002 31.0855 98.5952 30.8754 98.6302C30.6536 98.6652 30.4902 98.852 30.3501 99.0271C29.8015 99.7625 29.5096 100.696 29.568 101.619C28.961 100.3 29.3929 98.5835 30.5369 97.6963C30.8638 97.4395 31.2607 97.241 31.6809 97.2177C32.1011 97.1943 32.5447 97.3461 32.8016 97.6729C33.0117 97.206 33.502 96.9258 33.9923 96.7507C34.4475 96.5873 34.9262 96.5056 35.4048 96.4939C35.8717 96.4822 36.3737 96.5523 36.7472 96.8325C37.0507 97.0542 37.2375 97.4045 37.3776 97.7547C37.6928 98.5718 37.7395 99.494 37.4943 100.346C37.7395 100.066 38.2181 100.066 38.5216 100.299C38.8251 100.533 38.9419 100.93 38.9302 101.303C38.9185 101.677 38.7668 102.039 38.5917 102.366C38.3815 102.774 38.1481 103.171 37.8679 103.533" fill="white"/>
<path d="M13.4001 75.8315C12.653 74.7692 11.9293 73.6135 10.902 72.8081C10.0381 72.1427 8.684 71.6174 7.96024 72.4345C7.69175 72.7263 7.59836 73.1232 7.52832 73.5201C6.51272 79.999 13.9838 86.0342 19.9723 86.0226C22.7156 86.0226 25.3655 84.8552 27.4901 83.1275C30.747 80.4776 34.1557 75.9949 32.4747 71.5823C32.0895 70.5667 31.0155 69.5278 30.0466 70.0298C29.7781 70.1698 29.568 70.415 29.3812 70.6601C28.6458 71.6407 28.0855 72.738 27.7353 73.9054C28.2022 72.633 28.6692 71.2788 28.3656 69.9714C28.0621 68.6639 26.6613 67.4966 25.4122 67.9869C24.9219 68.1737 24.5367 68.5706 24.2099 68.9791C23.311 70.0998 22.6806 71.4306 22.3654 72.8314C22.9374 70.7535 22.8324 68.4888 22.0736 66.4576C21.7934 65.7105 21.3382 64.9167 20.5677 64.6949C19.7389 64.4615 18.8867 64.9868 18.303 65.6055C16.2601 67.7651 16.1084 71.0921 16.4703 74.0455C16.2485 73.3217 15.9917 72.5512 15.4197 72.0493C14.8476 71.5473 13.8437 71.4539 13.3885 72.0726C13.1667 72.3645 13.12 72.7497 13.1083 73.1116C13.0733 74.1855 13.2834 75.2595 13.727 76.2284" fill="#76B82A"/>
<path d="M21.7344 52.8234C21.5826 53.9324 21.2207 55.0063 20.6487 55.9636C20.8705 55.5783 21.0923 55.1931 21.4425 54.9246C21.7927 54.6561 22.2947 54.5394 22.6799 54.7612C23.0535 54.9713 23.2169 55.4499 23.1585 55.8818C23.1002 56.3138 22.89 56.699 22.6566 57.0609C22.2363 57.7146 21.6993 58.3917 21.0456 58.8119C20.4269 59.2205 19.5397 59.3256 18.7809 59.3256C18.6642 59.3256 18.5475 59.3256 18.4424 59.3256C17.1817 59.2672 15.8509 58.952 14.8236 58.1815C13.7846 57.4111 12.9908 56.2904 12.7107 55.018C12.699 54.9596 12.6873 54.8896 12.6757 54.8312C12.6406 54.6328 12.6173 54.4343 12.699 54.2475C12.8975 53.7689 13.5979 53.7806 14.0765 54.0024C14.5551 54.2242 14.9754 54.5627 15.2905 54.983C14.6251 53.8039 14.2983 52.4265 14.3567 51.0723C14.3917 50.3252 14.6835 49.4264 15.4189 49.3096C16.026 49.2162 16.563 49.7182 16.8665 50.2435C17.3918 51.119 17.6136 52.1696 17.4968 53.1736C17.5435 51.8311 17.777 50.5003 18.1856 49.2279C18.384 48.5975 18.6992 47.9205 19.3179 47.6987C19.8549 47.5119 20.4619 47.7454 20.8588 48.1656C21.2557 48.5859 21.4425 49.1345 21.5826 49.6832C21.8277 50.7105 21.8744 51.7844 21.7344 52.835" fill="#76B82A"/>
<path d="M20.1117 77.0455C20.2635 76.5436 20.4153 76.0182 20.4153 75.4929C20.4153 74.9676 20.2285 74.4073 19.8082 74.0804C19.4113 73.7652 18.851 73.7069 18.349 73.8119C18.1389 73.8586 17.9288 73.9287 17.7537 74.0688C17.5786 74.1972 17.4618 74.3839 17.3801 74.5824C17.205 75.0026 17.1934 75.5046 17.3568 75.9365C17.5202 76.3685 17.8587 76.7303 18.279 76.9288C18.1389 76.6953 18.0222 76.4502 17.9755 76.1933C17.9288 75.9365 17.9755 75.6447 18.1272 75.4346C18.4074 75.0493 19.0144 75.0143 19.3997 75.2828C19.7849 75.5513 19.995 76.0299 20.03 76.4969" fill="white"/>
<path d="M23.2294 77.5245C23.0777 76.7891 23.2061 75.9953 23.6263 75.3766C24.0466 74.7579 24.7587 74.326 25.5058 74.3143C26.2529 74.3026 27.0117 74.7346 27.3269 75.4116C27.5603 75.8902 27.5603 76.4622 27.4319 76.9875C27.3035 77.5129 27.0584 77.9915 26.7899 78.4467C26.965 77.9098 26.9066 77.3027 26.6498 76.8008C26.393 76.2988 25.9144 75.9136 25.3774 75.7502C25.2023 75.6918 25.0155 75.6684 24.8287 75.6918C24.245 75.7618 23.8715 76.3222 23.568 76.8358" fill="white"/>
<path d="M17.7424 81.1783C17.649 80.4429 17.3805 79.7074 16.8902 79.1588C16.3999 78.6101 15.6411 78.2599 14.9057 78.3533C14.1703 78.4467 13.4815 79.0304 13.3765 79.7658C13.2831 80.3845 13.5866 81.0032 13.9952 81.4818C14.3921 81.9488 14.9174 82.3457 15.5127 82.4741C14.9874 81.9721 14.6255 81.3184 14.4738 80.618C14.4154 80.3612 14.4154 80.0576 14.6022 79.8825C14.6956 79.8008 14.8123 79.7658 14.9291 79.7308C15.7229 79.544 16.61 79.7891 17.2054 80.3612" fill="white"/>
<path d="M20.9755 82.6139C21.0806 82.1703 21.139 81.6917 21.3607 81.2948C21.5825 80.8979 22.0728 80.5827 22.5048 80.7461C22.8083 80.8512 23.0067 81.1547 23.0768 81.4582C23.1468 81.7617 23.1118 82.0886 23.0768 82.4155C23.3102 82.0536 23.5437 81.68 23.6371 81.2598C23.7305 80.8395 23.6604 80.3609 23.3569 80.0574C23.0651 79.7772 22.6332 79.7072 22.2363 79.7189C21.9094 79.7189 21.5709 79.7889 21.3141 79.999C21.139 80.1274 21.0222 80.3142 20.9288 80.5127C20.637 81.143 20.6487 81.8668 20.7187 82.5555" fill="white"/>
<path d="M47.7435 94.9414C47.3933 94.0542 46.7629 93.2604 45.9574 92.7234C45.1636 92.1748 44.1364 91.8946 43.1558 92.0464C42.1635 92.2098 41.2997 92.7234 40.5876 93.3655C40.4125 93.5289 40.2607 93.704 40.0973 93.8791C40.2257 93.3071 40.2841 92.7118 40.2724 92.1047C40.2374 91.4393 40.0506 90.7156 39.537 90.1552C39.0233 89.5949 38.2646 89.3731 37.5758 89.3614C36.1283 89.3614 34.9609 90.2019 34.0621 91.1125C33.7235 91.4744 33.42 91.8596 33.1399 92.2798C33.1399 92.0113 33.1399 91.7545 33.1165 91.486C33.0815 90.9491 33.0114 90.4354 32.8714 89.8984C32.7196 89.3731 32.5212 88.8128 32.0075 88.4042C31.7507 88.2058 31.3771 88.089 31.0503 88.1357C30.7118 88.1707 30.4549 88.3225 30.2098 88.4509C29.7195 88.7311 29.3226 89.1163 28.9724 89.5249C28.2837 90.3537 27.7934 91.2876 27.3614 92.2215C26.556 94.1243 25.7855 96.0271 25.2835 98.0349C25.0267 99.0622 24.8166 100.101 24.6532 101.14L23.229 88.9412L25.482 87.2135L23.0072 87.0851L22.8554 85.8594C24.4897 85.3574 26.0073 84.5052 27.3381 83.4546C29.2059 81.937 30.8635 80.1277 32.0075 77.9797C33.1165 75.8551 33.5601 73.1819 32.3811 70.8939C32.0425 70.3569 31.5756 69.8432 30.8635 69.6681C30.5133 69.5747 30.1047 69.6565 29.7895 69.8432C29.4744 70.0417 29.2642 70.3102 29.0775 70.5436C28.9957 70.6604 28.914 70.7771 28.8323 70.8939C28.8323 70.7654 28.8557 70.6487 28.844 70.5203C28.7856 69.2245 27.9218 67.9171 26.5676 67.5319C25.8906 67.3217 25.0617 67.5435 24.5598 67.9871C24.0345 68.4191 23.6843 68.9093 23.3341 69.4113C23.2757 69.5047 23.2173 69.6098 23.159 69.7031C23.1356 69.0261 23.0656 68.3607 22.9138 67.707C22.692 66.8548 22.4702 66.0026 21.9099 65.1855C21.6297 64.8002 21.1978 64.415 20.6608 64.2749C20.5557 64.2516 20.4624 64.2399 20.3573 64.2282L19.8203 59.6055C20.0888 59.5705 20.3573 59.5238 20.6258 59.4304C21.6531 59.0685 22.2951 58.2631 22.8321 57.4926C23.0889 57.1074 23.3691 56.6871 23.4975 56.1501C23.6259 55.6131 23.4975 54.9478 22.9839 54.5392C22.4936 54.189 21.9099 54.294 21.4896 54.5392C21.6531 53.9789 21.7465 53.3952 21.7815 52.8232C22.0033 51.7959 22.0266 50.6986 21.8165 49.648C21.7114 49.1226 21.5597 48.574 21.2095 48.0837C20.8593 47.6051 20.2639 47.2315 19.5868 47.2666C18.8748 47.3016 18.3494 47.8852 18.1043 48.3872C17.8358 48.9125 17.6957 49.4262 17.5323 49.9398C17.4973 50.0682 17.4856 50.1966 17.4506 50.325C17.4389 50.29 17.4272 50.2667 17.4039 50.2316C17.1587 49.788 16.8319 49.3211 16.2949 49.0176C16.0264 48.8658 15.6762 48.7841 15.3377 48.8542C15.0108 48.9125 14.6839 49.111 14.4972 49.3444C14.1003 49.8347 13.9952 50.3717 13.9485 50.8854C13.9252 51.399 13.9602 51.8776 14.0302 52.3562C14.1119 52.9049 14.2637 53.4302 14.4621 53.9322C14.4155 53.9088 14.3804 53.8738 14.3454 53.8504C13.9135 53.6286 13.3532 53.4886 12.8395 53.7804C12.5827 53.9322 12.4543 54.259 12.4776 54.5158C12.4893 54.7727 12.5477 54.9945 12.6061 55.2279C12.7345 55.6832 12.9212 56.1151 13.1664 56.512C13.645 57.3175 14.2987 58.0179 15.0925 58.5432C15.8863 59.0685 16.8085 59.372 17.7424 59.5238C17.9175 59.5471 18.0926 59.5705 18.2677 59.5938L18.3845 60.8429L16.0964 61.7768L18.5129 62.4539L18.723 64.7185C18.0576 65.1738 17.579 65.7925 17.1821 66.4229C16.7151 67.1933 16.4116 68.0455 16.2249 68.9093C15.9797 70.065 15.9447 71.2324 16.0147 72.3764C15.898 72.213 15.7813 72.0729 15.6295 71.9328C15.3143 71.6526 14.9174 71.4775 14.4972 71.4425C14.0886 71.4075 13.6217 71.5242 13.3298 71.8511C13.0263 72.1896 12.9679 72.6215 12.9563 72.9951C12.9563 73.3686 12.9679 73.7539 13.0263 74.1158C13.1314 74.8629 13.3532 75.575 13.68 76.252C13.68 76.2754 13.715 76.287 13.7384 76.2754C13.7617 76.2754 13.7734 76.2403 13.7617 76.217C13.4816 75.5399 13.3181 74.8162 13.2598 74.0924C13.2364 73.7305 13.2364 73.3687 13.2598 73.0068C13.2831 72.6566 13.3765 72.3064 13.5983 72.0962C14.0419 71.6643 14.8824 71.8277 15.3143 72.2713C15.7929 72.7383 16.0031 73.427 16.2015 74.1274C16.2365 74.2558 16.3649 74.3376 16.4933 74.3259C16.6451 74.3142 16.7618 74.1741 16.7502 74.0224C16.5867 72.3414 16.5751 70.6487 16.9486 69.0611C17.1471 68.2673 17.4389 67.5085 17.8708 66.8315C18.1393 66.4112 18.4662 66.0143 18.8164 65.6991L19.6219 74.7461C19.4001 74.5477 19.0966 74.4076 18.758 74.4193C18.3261 74.4193 17.8942 74.7811 17.7891 75.1197C17.6607 75.4699 17.6607 75.7968 17.7307 76.0886C17.8475 76.6839 18.2094 77.2093 18.6997 77.4661C18.4779 76.9641 18.3961 76.4855 18.4195 76.0419C18.4428 75.8201 18.4662 75.61 18.5596 75.4816C18.6413 75.3415 18.688 75.3298 18.7814 75.3298C19.0032 75.2948 19.295 75.5633 19.5051 75.9952C19.6219 76.217 19.7036 76.4621 19.797 76.719L20.5908 85.6959C19.4584 85.7426 18.3378 85.5792 17.2521 85.2523C16.1315 84.9488 15.0575 84.4585 14.0536 83.8749C13.038 83.3029 12.1158 82.5674 11.2519 81.797C10.3997 81.0032 9.67598 80.081 9.05729 79.1004C8.47361 78.0964 8.06503 77.0108 7.84323 75.8785C7.79654 75.3065 7.69148 74.7345 7.76152 74.1625C7.78487 73.5904 7.81989 72.9717 8.13507 72.6215C8.45026 72.248 9.02226 72.2013 9.54757 72.3647C10.0846 72.5165 10.5982 72.8083 11.0418 73.1819C11.9407 73.929 12.6177 74.9329 13.3532 75.8785C13.3648 75.9018 13.3882 75.9018 13.4115 75.8785C13.4349 75.8668 13.4349 75.8318 13.4232 75.8201C12.7812 74.8162 12.1625 73.7656 11.2636 72.9251C10.82 72.5048 10.283 72.1429 9.67598 71.9445C9.37247 71.8511 9.04561 71.781 8.69541 71.8161C8.35687 71.8511 7.99499 72.0145 7.74985 72.2713C6.52412 74.6878 7.25956 77.3143 8.41524 79.4622C9.68766 81.5752 11.4971 83.3495 13.6333 84.5519C15.7229 85.7543 18.1627 86.5131 20.6141 86.303L21.0227 90.9841C19.797 91.6144 18.0693 92.5133 18.3611 92.5016C18.6413 92.4783 20.1588 93.1553 21.2562 93.669L21.8865 100.743C21.548 100.568 21.1861 100.451 20.8126 100.428C20.2055 100.381 19.5868 100.556 19.0615 100.86C18.0109 101.479 17.3222 102.611 17.1004 103.778C17.0654 103.942 17.0537 104.105 17.0303 104.257C16.6685 102.786 16.1898 101.339 15.5595 99.9494C15.3026 99.3774 15.0342 98.782 14.6139 98.245C14.2053 97.708 13.5633 97.2411 12.8162 97.1477C12.0574 97.0193 11.1935 97.4862 10.8784 98.1633C10.82 98.2684 10.785 98.3734 10.7383 98.4785C9.9795 97.2061 8.45026 96.424 6.96772 96.6341C4.90149 96.9026 3.29054 98.5719 2.75356 100.463C2.19323 102.366 2.47339 104.362 3.12711 106.148C3.78083 107.946 4.91317 109.522 6.20893 110.864C8.84716 113.549 12.2558 115.347 15.8163 116.397C18.2677 117.098 20.8126 117.413 23.3457 117.355L24.1862 126.81L19.9371 128.258C19.9371 128.258 22.6336 129.437 24.4781 130.091L25.984 147.087L21.4313 148.64C21.4313 148.64 24.4547 149.971 26.2875 150.578L27.9568 169.477L28.2953 169.454C29.2409 167.574 30.5016 165.858 32.0075 164.387L29.2526 140.865L34.0387 139.604C34.0387 139.604 30.5483 138.577 28.9607 138.285L27.1863 123.086L31.9375 121.837C31.9375 121.837 28.4938 120.822 26.8828 120.518L26.4859 117.11C26.6027 117.098 26.7194 117.086 26.8361 117.063C34.2022 115.919 40.7393 111.366 44.8601 105.308C45.8874 103.79 46.833 102.202 47.4867 100.463C48.117 98.747 48.4439 96.7625 47.6968 94.9648L47.7435 94.9414ZM21.1744 65.6991C21.583 66.2828 21.8282 67.1116 22.0149 67.8937C22.3652 69.4814 22.3301 71.1507 21.8982 72.7033C21.8982 72.7033 21.8982 72.7149 21.8982 72.7266C21.8515 72.9717 21.9916 73.2169 22.2367 73.2869C22.4936 73.357 22.7504 73.2052 22.8204 72.9484C22.8204 72.9484 22.8204 72.9367 22.8204 72.9251C23.0656 71.8511 23.4975 70.8121 24.1045 69.8899C24.408 69.4347 24.7466 68.9677 25.1201 68.6525C25.4937 68.3373 25.9139 68.2323 26.3575 68.3373C26.8011 68.4424 27.2214 68.7576 27.5249 69.1545C27.8401 69.5514 27.9918 70.0183 28.0385 70.5436C28.1202 71.5943 27.77 72.6799 27.3848 73.7655C27.3848 73.7655 27.3848 73.7772 27.3848 73.7889C27.3264 73.9757 27.4198 74.1741 27.6066 74.2442C27.7934 74.3142 28.0035 74.2208 28.0735 74.034C28.2019 73.6838 28.3187 73.3453 28.4354 72.9834C28.7389 72.248 29.1125 71.5476 29.5794 70.8939C29.9063 70.4036 30.2682 70.0884 30.7468 70.1934C31.2137 70.2868 31.669 70.6837 31.9725 71.139C32.5212 72.0962 32.7546 73.3103 32.6963 74.466C32.6379 75.6333 32.2643 76.7773 31.739 77.8279C30.6767 79.9525 28.9957 81.7153 27.128 83.1745C25.8322 84.1667 24.3497 84.9138 22.7971 85.3224L22.3185 81.2016C22.4352 81.26 22.5636 81.3767 22.657 81.5168C22.8321 81.8203 22.8671 82.2873 22.9605 82.7775C23.2173 82.369 23.4391 81.8904 23.3107 81.295C23.2523 80.9915 23.0656 80.723 22.8204 80.5129C22.6687 80.3845 22.4469 80.3027 22.2134 80.2794L20.4507 65.1388C20.7192 65.2205 20.976 65.4073 21.1744 65.6991ZM15.2793 58.2514C14.5205 57.8078 13.8551 57.1541 13.4115 56.3836C13.1897 55.9984 13.0263 55.5781 12.9096 55.1579C12.8045 54.7376 12.6994 54.2357 13.0263 54.0956C13.3415 53.9438 13.7968 54.0489 14.1353 54.259C14.4972 54.4691 14.8124 54.7727 15.0575 55.1112C15.1392 55.2279 15.2793 55.2629 15.4077 55.2046C15.5478 55.1345 15.5945 54.9711 15.5244 54.831V54.8077C15.1159 54.0022 14.859 53.1384 14.7657 52.2628C14.6839 51.399 14.6956 50.4067 15.1392 49.9048C15.3493 49.683 15.5945 49.648 15.8746 49.7997C16.1548 49.9631 16.4 50.29 16.5867 50.6636C16.9603 51.4107 17.1237 52.2745 17.0303 53.1033C17.0303 53.1033 17.0303 53.1267 17.0303 53.1384C17.0303 53.3952 17.2054 53.617 17.4623 53.6403C17.7307 53.6637 17.9642 53.4769 17.9876 53.2084C17.9876 53.1967 17.9876 53.185 17.9876 53.1734C18.0109 52.1578 18.151 51.1538 18.3845 50.1616C18.5012 49.6713 18.6296 49.1577 18.8164 48.7374C19.0032 48.3172 19.295 48.0137 19.6569 47.967C20.0304 47.9203 20.474 48.1187 20.7542 48.4456C21.0577 48.7841 21.2445 49.2511 21.3846 49.7413C21.6647 50.7219 21.7698 51.7609 21.7114 52.7998C21.5247 53.6403 21.2211 54.4458 20.8242 55.1929C20.6842 55.403 20.5674 55.6248 20.4624 55.8233C20.404 55.9517 20.439 56.1034 20.5557 56.1735C20.6725 56.2435 20.8242 56.1968 20.8943 56.0801C21.1394 55.6949 21.3846 55.333 21.6881 55.1345C21.9916 54.9361 22.3885 54.9127 22.5869 55.0878C22.7971 55.2513 22.8905 55.6365 22.7854 55.975C22.692 56.3252 22.4585 56.6871 22.2017 57.049C21.6998 57.7494 21.0927 58.4382 20.3806 58.7066C20.1822 58.7767 19.9604 58.8351 19.7386 58.8817L19.5518 57.2475L18.0926 57.3525L18.2327 58.9868C18.0926 58.9868 17.9642 58.9868 17.8241 58.9751C16.9486 58.9051 16.0614 58.695 15.291 58.2747L15.2793 58.2514ZM16.0848 115.604C12.6527 114.553 9.38414 112.79 6.90935 110.222C5.68362 108.938 4.66802 107.444 4.04932 105.809C3.4423 104.175 3.19715 102.366 3.67577 100.731C4.10769 99.1205 5.49685 97.7547 7.1078 97.5329C8.67206 97.2761 10.3997 98.6069 10.4114 100.171C10.4114 100.405 10.5865 100.58 10.8083 100.603C11.0418 100.615 11.2402 100.44 11.2636 100.206C11.3103 99.6108 11.3803 99.0155 11.6255 98.5602C11.8589 98.1049 12.2792 97.8598 12.7695 97.9182C13.2714 97.9649 13.7384 98.2684 14.0886 98.7003C14.4388 99.1322 14.7073 99.6809 14.9758 100.241C16.0264 102.459 16.7502 104.852 17.112 107.292C17.1354 107.444 17.2638 107.537 17.4039 107.526C17.544 107.502 17.649 107.374 17.6257 107.234C17.4739 106.101 17.3689 104.969 17.5673 103.872C17.7541 102.786 18.3611 101.782 19.2717 101.175C19.7269 100.883 20.2639 100.708 20.8126 100.731C21.1978 100.743 21.583 100.86 21.9332 101.047L22.6453 109.101C22.4702 108.915 22.2834 108.74 22.0383 108.623C21.6647 108.424 21.2211 108.343 20.7425 108.459C20.2172 108.599 19.867 109.101 19.7853 109.557C19.7036 110.047 19.8203 110.479 19.9721 110.829C20.1355 111.179 20.3223 111.518 20.5791 111.81C21.0694 112.405 21.7231 112.849 22.4352 113.024C21.9099 112.522 21.478 111.985 21.1511 111.413C20.8593 110.852 20.5674 110.164 20.6608 109.72C20.7075 109.487 20.8242 109.323 20.9877 109.265C21.1861 109.183 21.5013 109.195 21.7698 109.265C22.1083 109.358 22.4235 109.58 22.7037 109.849L23.3107 116.689C20.8593 116.689 18.4078 116.327 16.0614 115.615L16.0848 115.604ZM47.2182 100.335C46.5995 102.039 45.6773 103.627 44.6733 105.144C42.6188 108.156 39.9689 110.747 36.8987 112.709C33.8403 114.658 30.3732 115.977 26.7894 116.467C26.6727 116.479 26.5676 116.491 26.4509 116.502L24.7466 101.899C24.9684 100.638 25.2602 99.3774 25.6338 98.1516C26.2174 96.2138 27.0112 94.311 27.8634 92.4666C28.307 91.5561 28.809 90.6805 29.451 89.9334C29.7779 89.5716 30.1397 89.2564 30.5483 89.0346C30.9686 88.7894 31.3421 88.7311 31.6223 88.9645C32.2293 89.4782 32.3694 90.5988 32.4394 91.5561C32.4861 92.5367 32.3811 93.5289 32.1593 94.5095C32.1126 94.7196 32.241 94.9181 32.4394 94.9531C32.6379 94.9998 32.8363 94.8714 32.883 94.6729C33.1515 93.5639 33.8286 92.5133 34.6457 91.6845C35.4629 90.8557 36.5252 90.2019 37.5992 90.1903C38.1361 90.1903 38.6615 90.3537 38.9883 90.7156C39.3268 91.0658 39.4903 91.6144 39.5253 92.1748C39.5837 93.3071 39.2802 94.5212 38.7548 95.5484C38.6731 95.7235 38.7198 95.922 38.8716 96.0271C39.035 96.1438 39.2685 96.1088 39.3852 95.9453C39.9222 95.2099 40.4475 94.4745 41.0779 93.8791C41.7083 93.2838 42.467 92.8168 43.2959 92.6651C44.9652 92.3499 46.7045 93.5523 47.3699 95.1399C48.0937 96.7625 47.8719 98.6653 47.2532 100.346L47.2182 100.335Z" fill="black"/>
<path d="M37.2607 101C36.9689 101.023 36.7237 101.116 36.4903 101.233C36.5486 101.035 36.6303 100.836 36.677 100.626C36.7587 100.218 36.7938 99.7973 36.7587 99.3654C36.712 98.9451 36.642 98.3965 36.0817 98.0229C35.8015 97.8478 35.4513 97.8478 35.2178 97.8945C34.961 97.9412 34.7742 98.0229 34.5758 98.1046C34.1906 98.2797 33.8287 98.5015 33.5018 98.77C33.1866 99.0268 32.9065 99.3304 32.6613 99.6572C32.5796 99.3771 32.4512 99.1086 32.2294 98.8751C31.9609 98.5949 31.5523 98.3731 31.1087 98.4081C30.6651 98.4432 30.3149 98.7233 30.1048 99.0152C29.6612 99.6222 29.5678 100.311 29.5211 100.976C29.4861 101.642 29.5445 102.295 29.6495 102.937C29.6729 102.284 29.6962 101.63 29.8246 101.011C29.9531 100.404 30.1515 99.7739 30.5251 99.342C30.8986 98.8868 31.4239 98.9101 31.7391 99.342C32.0543 99.7273 32.066 100.323 32.0543 100.953C32.0543 101.116 32.1477 101.268 32.2994 101.327C32.4979 101.408 32.7314 101.315 32.8248 101.105V101.081C33.0932 100.439 33.5368 99.879 34.0738 99.4471C34.3423 99.237 34.6458 99.0619 34.961 98.9218C35.2879 98.77 35.5914 98.7117 35.6614 98.7817C35.7782 98.8284 35.9066 99.1202 35.9299 99.4471C35.9649 99.7856 35.9299 100.124 35.8832 100.474C35.7665 101.175 35.498 101.864 35.2178 102.576C35.1361 102.762 35.2178 102.973 35.3929 103.066C35.568 103.159 35.7898 103.066 35.8832 102.891V102.867H35.8949C36.0467 102.447 36.3502 102.062 36.7354 101.793C37.109 101.525 37.6343 101.397 37.8327 101.677C38.0545 101.992 38.0428 102.576 37.8911 103.043C37.7393 103.533 37.4708 104 37.2023 104.455C37.5525 104.058 37.8911 103.638 38.1246 103.124C38.3347 102.622 38.5215 102.039 38.2179 101.408C38.0195 101.081 37.5992 100.965 37.2957 101H37.2607Z" fill="black"/>
<path d="M9.40739 102.179C8.99881 102.051 8.48518 102.039 8.06493 102.448C7.85481 102.669 7.79644 102.926 7.76142 103.101C7.7264 103.276 7.69138 103.463 7.66803 103.65C7.66803 103.743 7.66803 103.837 7.66803 103.93C7.62133 103.895 7.57464 103.848 7.52795 103.813C7.24778 103.627 6.78084 103.37 6.2672 103.568C5.78858 103.767 5.59013 104.175 5.49674 104.549C5.32164 105.296 5.55511 106.031 5.94034 106.58C6.34891 107.129 6.87422 107.526 7.43456 107.829C6.99096 107.374 6.54737 106.907 6.30222 106.358C6.0454 105.833 5.97536 105.226 6.15046 104.736C6.23218 104.502 6.40728 104.315 6.53569 104.292C6.64075 104.257 6.82753 104.327 7.04933 104.49C7.4579 104.806 7.77309 105.284 7.8548 105.798C7.8548 105.798 7.8548 105.821 7.8548 105.833C7.91317 106.066 8.13497 106.195 8.36844 106.16C8.61359 106.113 8.76534 105.88 8.71865 105.634C8.71865 105.623 8.71865 105.611 8.70697 105.599C8.54355 104.992 8.46183 104.362 8.5202 103.732C8.54355 103.428 8.59024 103.031 8.64861 102.984C8.70698 102.879 8.97547 102.809 9.20894 102.868C9.69923 102.973 10.1662 103.486 10.3529 104.082C10.5864 104.689 10.6098 105.389 10.7965 106.055C10.8199 105.366 10.8899 104.689 10.7965 103.965C10.6681 103.253 10.2479 102.483 9.40739 102.179Z" fill="black"/>
<path d="M30.595 107.035C29.9879 107.035 29.521 107.374 29.2175 107.701C28.914 108.051 28.6805 108.401 28.482 108.775C28.0851 109.522 27.84 110.362 27.8283 111.191C28.2019 110.444 28.5988 109.767 29.0657 109.148C29.521 108.553 30.093 107.876 30.5599 107.923C31.0269 107.923 31.5055 108.576 31.5872 109.265C31.7039 109.977 31.5055 110.748 31.2487 111.541C31.8207 110.958 32.2759 110.152 32.2876 109.23C32.2993 108.775 32.1826 108.296 31.9257 107.864C31.6572 107.456 31.2137 107.07 30.595 107.035Z" fill="black"/>
<path d="M13.3998 108.891C13.8784 108.798 14.5088 109.183 15.1392 109.323C14.9057 109.067 14.6606 108.845 14.4038 108.623C14.1586 108.401 13.7967 108.214 13.3882 108.191C12.9679 108.144 12.4893 108.378 12.2208 108.705C11.9523 109.043 11.8239 109.452 11.8239 109.884C11.8706 110.724 12.3726 111.355 12.8862 111.798C13.4115 112.253 14.0536 112.557 14.7306 112.639C14.2053 112.218 13.7617 111.787 13.3882 111.308C13.0263 110.829 12.7228 110.316 12.7228 109.849C12.7111 109.393 12.9679 108.938 13.3998 108.88V108.891Z" fill="black"/>
<path d="M24.9098 75.9486C25.1549 75.9019 25.4351 75.9486 25.6686 76.0653C26.1472 76.2871 26.4624 76.8591 26.5441 77.4895C26.6258 78.1199 26.4624 78.832 26.2639 79.5557C26.7892 79.0187 27.1978 78.3183 27.2445 77.4778C27.3029 76.6607 26.941 75.7035 26.0655 75.2715C25.6452 75.0731 25.1666 74.9914 24.6997 75.1314C24.221 75.2715 23.8592 75.6217 23.6607 75.9719C23.2638 76.6607 23.042 77.3961 23.0187 78.1549C23.3922 77.5012 23.7775 76.8942 24.2211 76.3805C24.4428 76.147 24.6646 75.9719 24.9098 75.9486Z" fill="black"/>
<path d="M15.3379 79.999C15.618 79.9756 15.9216 80.034 16.2134 80.1507C16.7971 80.3725 17.3107 80.8628 17.8127 81.4115C17.6376 80.6994 17.2407 79.9756 16.5403 79.532C16.19 79.3102 15.7815 79.1818 15.3379 79.1585C15.1044 79.1585 14.9176 79.1585 14.6375 79.2752C14.4974 79.3336 14.3223 79.462 14.2289 79.6371C14.1355 79.8005 14.1121 79.964 14.1005 80.0924C14.1238 80.9912 14.4857 81.75 15.0694 82.3104C15.6531 82.8707 16.4585 83.1625 17.194 83.0808C16.5052 82.789 15.9682 82.3687 15.583 81.8434C15.2095 81.3415 14.9877 80.6761 14.9877 80.1274C14.9877 80.0807 14.9877 80.069 14.9877 80.069C15.046 80.0457 15.2211 80.0107 15.3379 79.999Z" fill="black"/>
<path d="M121.777 13.9382H36.5254V157.78H121.777V13.9382Z" fill="white"/>
<path d="M121.789 13.9382H36.5254V21.6544H121.789V13.9382Z" fill="white"/>
<path d="M123.633 15.1756H34.6922V16.4481H123.633V15.1756Z" fill="white"/>
<path d="M123.692 16.5062C123.715 16.086 123.75 15.6307 123.774 15.1754C123.774 15.1054 123.715 15.0353 123.645 15.0353C123.131 15.012 122.63 15.0003 122.116 14.9886L122.151 13.938C122.151 13.7512 122.011 13.5995 121.824 13.5878H121.801C114.691 13.401 107.594 13.2376 100.485 13.1559C93.3756 13.0392 86.278 12.9808 79.1688 12.9808C72.0596 12.9574 64.9621 13.0742 57.8529 13.1092C56.1369 13.1209 54.4209 13.1559 52.7048 13.1676C47.3233 13.1325 41.9301 13.1092 36.5369 13.0742C36.07 13.0742 35.6848 13.4594 35.6848 13.9263V14.6618C35.3579 14.6618 35.0311 14.6735 34.7042 14.6851H34.6809C34.4124 14.6851 34.2022 14.9069 34.2139 15.1754L34.2373 16.4478C34.2373 16.7163 34.4474 16.9148 34.7042 16.9148C35.0311 16.9148 35.3579 16.9031 35.6848 16.8914L35.6147 49.8926V67.8699L35.6614 85.8472L35.8132 121.802L36.0583 157.756C36.0583 158.037 36.2801 158.247 36.5486 158.247L57.8646 158.095L79.1805 158.037L100.496 158.095C107.606 158.095 114.703 158.2 121.812 158.258C122.081 158.258 122.303 158.048 122.303 157.768C122.384 145.744 122.559 133.697 122.559 121.662L122.583 103.591L122.419 67.5314L122.268 49.5774L121.952 20.0199L122.081 16.5296C122.63 16.5179 123.19 16.5062 123.727 16.4829L123.692 16.5062ZM123.493 15.3155L123.563 16.3778C123.05 16.3661 122.559 16.3544 122.046 16.3428L122.081 15.3622C122.548 15.3505 123.026 15.3388 123.493 15.3155ZM56.919 16.0159C58.6584 16.0276 60.4094 16.0393 62.1488 16.0626L56.8606 16.156L51.3157 16.1793L45.7707 16.1443C42.9808 16.1443 40.1791 16.086 37.3891 16.0393V15.7241C43.903 15.8642 50.4051 15.9692 56.919 16.0159ZM121.497 15.3855L121.532 16.3311C114.797 16.1326 108.154 16.0042 101.559 15.8875C108.201 15.7708 114.855 15.6073 121.497 15.3855ZM107.968 14.6034C112.462 14.5217 116.956 14.4166 121.45 14.2999L121.474 14.977C116.968 14.8252 112.462 14.7085 107.968 14.6034ZM37.4008 16.8681C40.2141 16.8097 43.0275 16.763 45.8408 16.763L51.4091 16.728L56.989 16.7514L79.4607 17.1483C86.9551 17.2183 94.4028 17.1366 101.792 17.0198C108.434 16.9031 115.042 16.763 121.544 16.5762L121.672 19.8682L121.649 21.5959L110.851 21.3157L100.1 21.1056C92.9787 21.0122 85.8928 20.9071 78.8536 20.9305C71.8262 20.9655 64.8337 21.164 57.7712 21.304C51.0005 21.4441 44.1948 21.3858 37.4008 21.3274V16.8681ZM35.1595 15.9926V15.6774C35.3346 15.6774 35.498 15.6774 35.6614 15.6774V15.9926C35.498 15.9926 35.3229 15.9926 35.1595 15.9926ZM121.042 121.965C121.042 133.732 121.205 145.499 121.287 157.289C114.353 157.348 107.407 157.441 100.473 157.441L79.1572 157.5L57.8412 157.441L37.0156 157.289L37.2607 121.813L37.4708 67.8816V49.9043L37.4008 22.0045C44.2298 21.9344 51.0472 21.876 57.9113 22.0278C65.0672 22.1679 72.2814 22.3547 79.4607 22.4014C86.6399 22.4247 93.7608 22.3196 100.847 22.2263L111.411 22.0161L121.637 21.736L121.345 50.2078L121.194 68.2084L121.03 104.081L121.054 121.977L121.042 121.965Z" fill="black"/>
<path d="M125.093 9.95755H125.07C121.264 9.82914 117.47 9.74743 113.665 9.66571C109.859 9.57233 106.065 9.50228 102.259 9.46726L90.8544 9.31551L82.251 9.26881C82.4028 7.9497 82.5312 6.56055 82.6012 5.13637C82.6246 4.73947 82.321 4.40094 81.9241 4.37759H81.8424C80.3832 4.2842 78.924 4.22583 77.4648 4.20248C76.7411 4.17914 76.0056 4.16746 75.2819 4.17914C74.5581 4.17914 73.8227 4.17914 73.0989 4.21416L68.7213 4.35424C67.2621 4.40094 65.8029 4.52934 64.3438 4.64608H64.2737C64.0286 4.66943 63.8418 4.89123 63.8535 5.13637C63.9352 6.30373 64.0286 7.47108 64.0519 8.63844C64.0519 8.87191 64.0519 9.09371 64.0519 9.32718C63.3165 9.32718 62.581 9.32718 61.8456 9.33885C61.9156 8.49836 61.9857 7.63451 62.0441 6.759C62.1958 4.87955 62.3125 2.91839 62.3709 0.957233C62.3826 0.513637 62.0324 0.140083 61.5888 0.116736H61.5304C59.8144 0.0466943 58.0984 0.0233471 56.3707 0C54.6547 0 52.9387 0 51.211 0.0583678L46.0513 0.186777C44.3353 0.245145 42.6192 0.361881 40.8915 0.466943H40.8332C40.5764 0.49029 40.3896 0.700414 40.4013 0.957233C40.5063 2.81333 40.6114 4.6811 40.6114 6.5372C40.6231 7.47108 40.6114 8.3933 40.588 9.32718C40.588 9.4089 40.588 9.50229 40.5764 9.584C38.3117 9.61902 36.0587 9.66571 33.794 9.71241H33.7823C33.5138 9.71241 33.3037 9.93421 33.3037 10.2027L33.3854 15.164C33.3854 15.3974 33.5722 15.5725 33.794 15.5725C41.4285 15.4441 49.028 15.3974 56.6625 15.5025C64.3087 15.6192 72.0133 15.8294 79.7062 15.8877C87.3874 15.9227 95.0102 15.841 102.598 15.736C110.163 15.5959 117.704 15.4675 125.093 15.234L125.291 10.2027C125.291 10.0626 125.186 9.94588 125.058 9.94588L125.093 9.95755Z" fill="black"/>
<path d="M70.9502 30.8181H45.3033V61.9282H70.9502V30.8181Z" fill="white"/>
<path d="M70.9502 61.9282L58.2028 62.1148L45.3035 62.2549C45.1284 62.2549 44.9883 62.1148 44.9883 61.9397C44.8832 51.5736 44.9066 41.1958 44.8599 30.8296C44.8599 30.5845 45.0583 30.3861 45.3035 30.3861L70.9503 30.4678C71.1488 30.4678 71.3122 30.6312 71.3122 30.8296L71.1604 46.4722L70.9503 61.9397L70.9502 61.9282ZM70.9502 61.9282L70.7402 46.2855L70.5884 30.818L70.962 31.1915L45.3151 31.2732L45.7587 30.8296C45.712 41.1958 45.7354 51.5736 45.6303 61.9397L45.3151 61.6245L58.0627 61.7646L70.962 61.9514L70.9502 61.9282Z" fill="black"/>
<path d="M68.8727 32.9431H47.475V59.7923H68.8727V32.9431Z" fill="url(#paint1_linear_2310_97333)"/>
<path d="M68.9073 59.8272C65.4403 59.944 61.8799 60.0257 58.3077 60.0957C54.7123 60.1307 51.0935 60.2125 47.4863 60.1774C47.2762 60.1774 47.1011 60.0023 47.1011 59.7922C47.1011 55.3212 47.2762 50.8386 47.3229 46.3676C47.393 41.8966 47.3229 37.414 47.2412 32.943C47.2412 32.8146 47.3463 32.6979 47.4747 32.6979C51.0468 32.6161 54.6072 32.5694 58.1793 32.5344C61.7514 32.5228 65.3119 32.4644 68.884 32.4761C69.1408 32.4761 69.3509 32.6862 69.3509 32.943C69.3509 37.4723 69.3159 42.0134 69.2225 46.5077L69.0824 53.22L68.919 59.8272H68.9073ZM68.849 59.7572L68.5455 46.2275C68.4521 41.7682 68.4171 37.3673 68.4171 32.943L68.884 33.4099C65.3119 33.4216 61.7514 33.3632 58.1793 33.3516C54.6072 33.3166 51.0468 33.2699 47.4747 33.1881L47.7198 32.943C47.6381 37.414 47.5797 41.8966 47.6381 46.3676C47.6848 50.8386 47.8599 55.3212 47.8599 59.7922L47.4747 59.407C50.9884 59.372 54.5138 59.4537 58.0509 59.4887L68.849 59.7572Z" fill="black"/>
<path d="M68.8727 39.3168V32.9431H47.475V41.6282C52.4013 40.2741 59.4755 39.095 68.8727 39.3168Z" fill="black"/>
<path d="M59.1951 30.9116H57.1639V58.8348H59.1951V30.9116Z" fill="white"/>
<path d="M57.1285 58.8695C57.0118 56.6516 56.9534 54.3519 56.8834 52.0405C56.8601 49.7058 56.7783 47.3944 56.8134 45.013C56.8134 42.655 56.9301 40.2619 56.9885 37.9155C57.0352 35.5691 57.0352 33.2344 56.9768 30.8997C56.9768 30.7946 57.0585 30.7129 57.1519 30.7129L59.1831 30.6545C59.3115 30.6545 59.4282 30.7479 59.4282 30.888C59.51 33.2344 59.5683 35.5574 59.6033 37.8805C59.6267 40.2035 59.6734 42.5382 59.6617 44.8613C59.6617 47.1843 59.6267 49.519 59.5683 51.842C59.5216 54.1651 59.4399 56.4998 59.3349 58.8228C59.3349 58.9162 59.2648 58.9746 59.1831 58.9746L57.1169 58.8579L57.1285 58.8695ZM57.1869 58.8112L59.1831 58.6944L59.0313 58.8462C58.9263 56.5232 58.8446 54.1884 58.7979 51.8654C58.7395 49.5424 58.7045 47.2076 58.7045 44.8846C58.7045 42.5616 58.7512 40.2268 58.7628 37.9038C58.7979 35.5808 58.8562 33.2461 58.938 30.923L59.1831 31.1682L57.1519 31.1098L57.3387 30.923C57.2803 33.2344 57.2803 35.5691 57.327 37.8688C57.3854 40.1802 57.5021 42.4448 57.5021 44.7328C57.5371 47.0092 57.4554 49.3556 57.4321 51.6669C57.362 54.0133 57.3037 56.3714 57.1869 58.8112Z" fill="black"/>
<path d="M72.0124 29.7328H44.0892V31.764H72.0124V29.7328Z" fill="white"/>
<path d="M72.0478 31.787C69.8298 31.9038 67.5301 31.9621 65.2187 32.0322C62.884 32.0555 60.5726 32.1372 58.1912 32.1022C55.8332 32.1022 53.4401 31.9855 51.0937 31.9271C48.7473 31.8804 46.4126 31.8804 44.0779 31.9388C43.9728 31.9388 43.8911 31.8571 43.8911 31.7637L43.8327 29.7208C43.8327 29.5924 43.9261 29.4757 44.0662 29.4757H44.0779C46.4009 29.394 48.7356 29.3356 51.0587 29.3006C53.3817 29.2772 55.7164 29.2305 58.0395 29.2422C60.3625 29.2422 62.6972 29.2772 65.0203 29.3356C67.3433 29.3823 69.678 29.464 72.0011 29.5691H72.0127C72.0944 29.5691 72.1528 29.6391 72.1411 29.7208L72.0244 31.787H72.0478ZM71.9777 31.7287L71.861 29.7325L72.0127 29.8842C69.6897 29.9893 67.355 30.071 65.0319 30.1177C62.7089 30.1761 60.3742 30.2111 58.0511 30.2111C55.7281 30.2111 53.3934 30.1644 51.0704 30.1527C48.7473 30.1177 46.4126 30.0593 44.0896 29.9776L44.3347 29.7325L44.2763 31.7637L44.0896 31.5769C46.4009 31.6353 48.7356 31.6353 51.0353 31.5886C53.3467 31.5302 55.6114 31.4135 57.8994 31.4135C60.1757 31.3785 62.5221 31.4602 64.8335 31.4835C67.1799 31.5536 69.5379 31.6119 71.9777 31.7287Z" fill="black"/>
<path d="M72.0124 59.0798H44.0892V62.2667H72.0124V59.0798Z" fill="white"/>
<path d="M72.0244 58.8697H72.0011C69.678 58.788 67.3433 58.7063 65.0203 58.6713C62.6972 58.6129 60.3625 58.5896 58.0395 58.5896C55.7164 58.5896 53.3817 58.6363 51.0587 58.6596C48.7356 58.6946 46.4009 58.753 44.0779 58.823H44.0662C43.9378 58.823 43.8327 58.9398 43.8327 59.0682L43.9145 62.2551C43.9145 62.3485 43.9845 62.4185 44.0779 62.4185C46.4126 62.3835 48.7473 62.3835 51.0937 62.4535C53.4401 62.5119 55.8332 62.6286 58.1912 62.617C60.561 62.6403 62.884 62.5586 65.207 62.5352C67.5184 62.4652 69.8181 62.4068 72.0361 62.2901L72.2112 59.0682C72.2112 58.9631 72.1295 58.8697 72.0244 58.8697ZM64.8452 61.9866C62.5221 61.9632 60.1874 61.8815 57.8994 61.9049C55.5997 61.8932 53.335 62.0099 51.0237 62.0683C48.7823 62.1267 46.506 62.1383 44.253 62.1033L44.323 59.3367C46.576 59.4067 48.8174 59.4651 51.0704 59.5001C53.3934 59.5235 55.7281 59.5702 58.0511 59.5702C60.3742 59.5702 62.7089 59.5468 65.0319 59.4884C67.2966 59.4534 69.5613 59.3834 71.826 59.3017L71.9894 62.2434C69.5613 62.1267 67.2032 62.0683 64.8568 61.9983L64.8452 61.9866Z" fill="black"/>
<path d="M110.5 30.8181H84.8532V61.9282H110.5V30.8181Z" fill="white"/>
<path d="M110.5 61.9282L97.7527 62.1148L84.8534 62.2549C84.6783 62.2549 84.5382 62.1148 84.5382 61.9397C84.4331 51.5736 84.4565 41.1958 84.4098 30.8296C84.4098 30.5845 84.6082 30.3861 84.8534 30.3861L110.5 30.4678C110.699 30.4678 110.862 30.6312 110.862 30.8296L110.71 46.4722L110.5 61.9397L110.5 61.9282ZM110.5 61.9282L110.29 46.2855L110.138 30.818L110.512 31.1915L84.8651 31.2732L85.3087 30.8296C85.262 41.1958 85.2853 51.5736 85.1803 61.9397L84.8651 61.6245L97.6126 61.7646L110.512 61.9514L110.5 61.9282Z" fill="black"/>
<path d="M108.423 32.9431H87.0249V59.7923H108.423V32.9431Z" fill="url(#paint2_linear_2310_97333)"/>
<path d="M108.446 59.8272C104.979 59.944 101.418 60.0257 97.8463 60.0957C94.2508 60.1307 90.632 60.2125 87.0249 60.1774C86.8147 60.1774 86.6396 60.0023 86.6396 59.7922C86.6396 55.3212 86.8147 50.8386 86.8614 46.3676C86.9315 41.8966 86.8614 37.414 86.7797 32.943C86.7797 32.8146 86.8848 32.6979 87.0132 32.6979C90.5853 32.6161 94.1457 32.5694 97.7178 32.5344C101.29 32.5228 104.85 32.4644 108.423 32.4761C108.679 32.4761 108.889 32.6862 108.889 32.943C108.889 37.4723 108.854 42.0134 108.761 46.5077L108.621 53.22L108.458 59.8272H108.446ZM108.387 59.7572L108.084 46.2275C107.991 41.7682 107.956 37.3673 107.956 32.943L108.423 33.4099C104.85 33.4216 101.29 33.3632 97.7178 33.3516C94.1457 33.3166 90.5853 33.2699 87.0132 33.1881L87.2583 32.943C87.1766 37.414 87.1182 41.8966 87.1766 46.3676C87.2233 50.8386 87.3984 55.3212 87.3984 59.7922L87.0132 59.407C90.5269 59.372 94.0523 59.4537 97.5894 59.4887L108.387 59.7572Z" fill="black"/>
<path d="M108.423 39.3168V32.9431H87.0249V41.6282C91.9512 40.2741 99.0254 39.095 108.423 39.3168Z" fill="black"/>
<path d="M98.7336 30.9116H96.7024V58.8348H98.7336V30.9116Z" fill="white"/>
<path d="M96.6796 58.8695C96.5629 56.6516 96.5045 54.3519 96.4345 52.0405C96.4111 49.7058 96.3294 47.3944 96.3644 45.013C96.3644 42.655 96.4812 40.2619 96.5395 37.9155C96.5862 35.5691 96.5862 33.2344 96.5278 30.8997C96.5278 30.7946 96.6096 30.7129 96.7029 30.7129L98.7342 30.6545C98.8626 30.6545 98.9793 30.7479 98.9793 30.888C99.061 33.2344 99.1194 35.5574 99.1544 37.8805C99.1778 40.2035 99.2244 42.5382 99.2128 44.8613C99.2128 47.1843 99.1777 49.519 99.1194 51.842C99.0727 54.1651 98.991 56.4998 98.8859 58.8228C98.8859 58.9162 98.8159 58.9746 98.7342 58.9746L96.6679 58.8579L96.6796 58.8695ZM96.738 58.8112L98.7342 58.6944L98.5824 58.8462C98.4773 56.5232 98.3956 54.1884 98.3489 51.8654C98.2906 49.5424 98.2555 47.2076 98.2555 44.8846C98.2555 42.5616 98.3022 40.2268 98.3139 37.9038C98.3489 35.5808 98.4073 33.2461 98.489 30.923L98.7342 31.1682L96.7029 31.1098L96.8897 30.923C96.8314 33.2344 96.8314 35.5691 96.8781 37.8688C96.9364 40.1802 97.0532 42.4448 97.0532 44.7328C97.0882 47.0092 97.0065 49.3556 96.9831 51.6669C96.9131 54.0133 96.8547 56.3714 96.738 58.8112Z" fill="black"/>
<path d="M111.551 29.7328H83.6278V31.764H111.551V29.7328Z" fill="white"/>
<path d="M111.586 31.787C109.368 31.9038 107.069 31.9621 104.757 32.0322C102.423 32.0555 100.111 32.1372 97.7298 32.1022C95.3717 32.1022 92.9786 31.9855 90.6322 31.9271C88.2858 31.8804 85.9511 31.8804 83.6164 31.9388C83.5113 31.9388 83.4296 31.8571 83.4296 31.7637L83.3713 29.7208C83.3713 29.5924 83.4646 29.4757 83.6047 29.4757H83.6164C85.9394 29.394 88.2742 29.3356 90.5972 29.3006C92.9202 29.2772 95.2549 29.2305 97.578 29.2422C99.901 29.2422 102.236 29.2772 104.559 29.3356C106.882 29.3823 109.217 29.464 111.54 29.5691H111.551C111.633 29.5691 111.691 29.6391 111.68 29.7208L111.563 31.787H111.586ZM111.528 31.7287L111.411 29.7325L111.563 29.8842C109.24 29.9893 106.905 30.071 104.582 30.1177C102.259 30.1761 99.9244 30.2111 97.6013 30.2111C95.2783 30.2111 92.9436 30.1644 90.6205 30.1527C88.2975 30.1177 85.9628 30.0593 83.6397 29.9776L83.8849 29.7325L83.8265 31.7637L83.6397 31.5769C85.9511 31.6353 88.2858 31.6353 90.5855 31.5886C92.8969 31.5302 95.1616 31.4135 97.4496 31.4135C99.7259 31.3785 102.072 31.4602 104.384 31.4835C106.73 31.5536 109.088 31.6119 111.528 31.7287Z" fill="black"/>
<path d="M111.551 59.0798H83.6278V62.2667H111.551V59.0798Z" fill="white"/>
<path d="M111.574 58.8697H111.551C109.228 58.788 106.893 58.7063 104.57 58.6713C102.247 58.6129 99.9124 58.5896 97.5894 58.5896C95.2663 58.5896 92.9316 58.6363 90.6086 58.6596C88.2856 58.6946 85.9508 58.753 83.6278 58.823H83.6161C83.4877 58.823 83.3827 58.9398 83.3827 59.0682L83.4644 62.2551C83.4644 62.3485 83.5344 62.4185 83.6278 62.4185C85.9625 62.3835 88.2972 62.3835 90.6436 62.4535C92.99 62.5119 95.3831 62.6286 97.7411 62.617C100.111 62.6403 102.434 62.5586 104.757 62.5352C107.068 62.4652 109.368 62.4068 111.586 62.2901L111.761 59.0682C111.761 58.9631 111.679 58.8697 111.574 58.8697ZM104.383 61.9866C102.06 61.9632 99.7256 61.8815 97.4376 61.9049C95.1379 61.8932 92.8733 62.0099 90.5619 62.0683C88.3206 62.1267 86.0442 62.1383 83.7912 62.1033L83.8613 59.3367C86.1143 59.4067 88.3556 59.4651 90.6086 59.5001C92.9316 59.5235 95.2663 59.5702 97.5894 59.5702C99.9124 59.5702 102.247 59.5468 104.57 59.4884C106.835 59.4534 109.1 59.3834 111.364 59.3017L111.528 62.2434C109.1 62.1267 106.741 62.0683 104.395 61.9983L104.383 61.9866Z" fill="black"/>
<path d="M70.9502 73.1935H45.3033V104.304H70.9502V73.1935Z" fill="white"/>
<path d="M70.9617 72.8312L45.3149 72.7495C45.0697 72.7495 44.8713 72.9479 44.8713 73.1931C44.918 83.5592 44.8946 93.937 44.9997 104.303C44.9997 104.49 45.1398 104.63 45.3149 104.618L58.2142 104.478L70.9617 104.291L58.0624 104.105L45.6301 103.976C45.7351 93.8553 45.7118 83.746 45.7585 73.625L70.5998 73.5433L70.7516 88.6372L70.9617 104.28L71.1718 88.8123L71.3236 73.1697C71.3236 72.9713 71.1602 72.8078 70.9617 72.7962V72.8312Z" fill="black"/>
<path d="M68.8727 75.3293H47.475V102.178H68.8727V75.3293Z" fill="url(#paint3_linear_2310_97333)"/>
<path d="M68.8726 74.8629C65.3005 74.8512 61.74 74.9096 58.1679 74.9212C54.5958 74.9563 51.0354 75.0029 47.4633 75.0847C47.3349 75.0847 47.2298 75.2014 47.2298 75.3298C47.3115 79.8008 47.3699 84.2834 47.3115 88.7544C47.2648 93.2254 47.0897 97.708 47.0897 102.179C47.0897 102.389 47.2648 102.564 47.4749 102.564C51.0937 102.599 54.7009 102.518 58.2963 102.483C61.8801 102.401 65.4406 102.319 68.8959 102.214L69.0594 95.6068L69.1994 88.8945C69.2928 84.4002 69.3279 79.8592 69.3279 75.3298C69.3279 75.073 69.1177 74.8629 68.8609 74.8629H68.8726ZM58.0512 101.876C54.6425 101.84 51.2572 101.77 47.8602 101.794C47.8602 97.4512 47.6851 93.097 47.6384 88.7544C47.58 84.3651 47.6384 79.9759 47.7084 75.575C51.1988 75.645 54.6775 75.7034 58.1679 75.7384C61.5766 75.7501 64.9853 75.8084 68.4056 75.7968C68.4056 80.0576 68.4407 84.3185 68.534 88.6143L68.8376 102.144L58.0395 101.876H58.0512Z" fill="black"/>
<path d="M68.8727 81.7031V75.3293H47.475V84.0144C52.4013 82.6603 59.4755 81.4813 68.8727 81.7031Z" fill="black"/>
<path d="M59.1951 73.2984H57.1639V101.222H59.1951V73.2984Z" fill="white"/>
<path d="M59.6033 80.2792C59.5683 77.9562 59.51 75.6215 59.4282 73.2984C59.4282 73.1467 59.3115 73.0533 59.1831 73.0533L57.1519 73.1117C57.0468 73.1117 56.9651 73.1934 56.9768 73.2984C57.0352 75.6331 57.0352 77.9679 56.9885 80.3143C56.9301 82.6606 56.8134 85.042 56.8134 87.4118C56.7783 89.7815 56.8601 92.1046 56.8834 94.4393C56.9534 96.7506 57.0118 99.0503 57.1285 101.268L59.1948 101.385C59.2765 101.385 59.3349 101.327 59.3465 101.257C59.4516 98.9102 59.5333 96.5872 59.58 94.2642C59.6384 91.9411 59.6734 89.6064 59.6734 87.2834C59.6734 84.9603 59.6267 82.6256 59.615 80.3026L59.6033 80.2792ZM57.3387 80.2442C57.292 78.0029 57.292 75.7382 57.3503 73.4852L58.938 73.5319C58.8562 75.7849 58.7979 78.0262 58.7745 80.2792C58.7512 82.6023 58.7045 84.937 58.7162 87.26C58.7162 89.5831 58.7512 91.9178 58.8095 94.2408C58.8562 96.5172 58.9263 98.8052 59.043 101.082L57.1986 101.187C57.3153 98.7468 57.3737 96.4004 57.4437 94.0424C57.4671 91.7193 57.5488 89.3846 57.5138 87.1083C57.5138 84.8202 57.397 82.5439 57.3387 80.2442Z" fill="black"/>
<path d="M72.0124 72.1191H44.0892V74.1503H72.0124V72.1191Z" fill="white"/>
<path d="M72.0125 71.9677C69.6894 71.851 67.3547 71.7809 65.0317 71.7342C62.7086 71.6759 60.3739 71.6408 58.0509 71.6408C55.7278 71.6408 53.3931 71.6875 51.0701 71.6992C48.747 71.7342 46.4123 71.7926 44.0893 71.8743H44.0776C43.9492 71.8743 43.8441 71.991 43.8441 72.1194L43.9025 74.1507C43.9025 74.2557 43.9842 74.3374 44.0893 74.3374C46.424 74.2791 48.7587 74.2791 51.1051 74.3258C53.4515 74.3841 55.8329 74.5009 58.2026 74.5009C60.5724 74.5359 62.8954 74.4542 65.2301 74.4308C67.5415 74.3608 69.8412 74.3024 72.0592 74.1857L72.1759 72.1194C72.1759 72.0377 72.1175 71.9794 72.0475 71.9677H72.0125ZM64.8449 73.8705C62.5218 73.8471 60.1871 73.7654 57.9108 73.8004C55.6228 73.8004 53.3464 73.9172 51.0467 73.9755C48.8054 74.0222 46.5407 74.0222 44.2877 73.9639L44.3344 72.3763C46.5874 72.458 48.8288 72.5163 51.0817 72.5397C53.4048 72.563 55.7395 72.6097 58.0625 72.5981C60.3856 72.5981 62.7203 72.563 65.0433 72.5047C67.3197 72.458 69.6077 72.3879 71.884 72.2712L71.9891 74.1156C69.5493 73.9989 67.2029 73.9405 64.8449 73.8705Z" fill="black"/>
<path d="M72.0124 101.467H44.0892V104.653H72.0124V101.467Z" fill="white"/>
<path d="M72.0244 101.257H72.0011C69.678 101.175 67.3433 101.093 65.0203 101.058C62.6972 101 60.3625 100.976 58.0395 100.976C55.7164 100.976 53.3817 101.023 51.0587 101.046C48.7356 101.081 46.4009 101.14 44.0779 101.21H44.0662C43.9378 101.21 43.8327 101.327 43.8327 101.455L43.9145 104.642C43.9145 104.735 43.9845 104.805 44.0779 104.805C46.4126 104.77 48.7473 104.77 51.0937 104.84C53.4401 104.899 55.8332 105.015 58.1912 105.004C60.561 105.027 62.884 104.945 65.207 104.922C67.5184 104.852 69.8181 104.794 72.0361 104.677L72.2112 101.455C72.2112 101.35 72.1295 101.257 72.0244 101.257ZM64.8452 104.373C62.5221 104.35 60.1874 104.268 57.8994 104.292C55.5997 104.28 53.335 104.397 51.0237 104.455C48.7823 104.513 46.506 104.525 44.253 104.49L44.323 101.723C46.576 101.794 48.8174 101.852 51.0704 101.887C53.3934 101.91 55.7281 101.957 58.0511 101.957C60.3742 101.957 62.7089 101.934 65.0319 101.875C67.2966 101.84 69.5613 101.77 71.826 101.688L71.9894 104.63C69.5613 104.513 67.2032 104.455 64.8568 104.385L64.8452 104.373Z" fill="black"/>
<path d="M110.5 73.1935H84.8532V104.304H110.5V73.1935Z" fill="white"/>
<path d="M110.5 72.8312L84.8534 72.7495C84.6082 72.7495 84.4098 72.9479 84.4098 73.1931C84.4565 83.5592 84.4331 93.937 84.5382 104.303C84.5382 104.49 84.6783 104.63 84.8534 104.618L97.7527 104.478L110.5 104.291L97.6009 104.105L85.1686 103.976C85.2736 93.8553 85.2503 83.746 85.297 73.625L110.138 73.5433L110.29 88.6372L110.5 104.28L110.71 88.8123L110.862 73.1697C110.862 72.9713 110.699 72.8078 110.5 72.7962V72.8312Z" fill="black"/>
<path d="M108.423 75.3293H87.0249V102.178H108.423V75.3293Z" fill="url(#paint4_linear_2310_97333)"/>
<path d="M108.423 74.8629C104.85 74.8512 101.29 74.9096 97.7178 74.9212C94.1457 74.9563 90.5853 75.0029 87.0132 75.0847C86.8848 75.0847 86.7797 75.2014 86.7797 75.3298C86.8614 79.8008 86.9198 84.2834 86.8614 88.7544C86.8147 93.2254 86.6396 97.708 86.6396 102.179C86.6396 102.389 86.8147 102.564 87.0249 102.564C90.6437 102.599 94.2508 102.518 97.8463 102.483C101.43 102.401 104.99 102.319 108.446 102.214L108.609 95.6068L108.749 88.8945C108.843 84.4002 108.878 79.8592 108.878 75.3298C108.878 75.073 108.668 74.8629 108.411 74.8629H108.423ZM97.5894 101.876C94.1807 101.84 90.7954 101.77 87.3984 101.794C87.3984 97.4512 87.2233 93.097 87.1766 88.7544C87.1182 84.3651 87.1766 79.9759 87.2467 75.575C90.737 75.645 94.2158 75.7034 97.7062 75.7384C101.115 75.7501 104.524 75.8084 107.944 75.7968C107.944 80.0576 107.979 84.3185 108.072 88.6143L108.376 102.144L97.5778 101.876H97.5894Z" fill="black"/>
<path d="M108.423 81.7031V75.3293H87.0249V84.0144C91.9512 82.6603 99.0254 81.4813 108.423 81.7031Z" fill="black"/>
<path d="M98.7336 73.2984H96.7024V101.222H98.7336V73.2984Z" fill="white"/>
<path d="M99.1544 80.2792C99.1194 77.9562 99.061 75.6215 98.9793 73.2984C98.9793 73.1467 98.8626 73.0533 98.7342 73.0533L96.7029 73.1117C96.5979 73.1117 96.5162 73.1934 96.5278 73.2984C96.5862 75.6331 96.5862 77.9679 96.5395 80.3143C96.4812 82.6606 96.3644 85.042 96.3644 87.4118C96.3294 89.7815 96.4111 92.1046 96.4345 94.4393C96.5045 96.7506 96.5629 99.0503 96.6796 101.268L98.7458 101.385C98.8275 101.385 98.8859 101.327 98.8976 101.257C99.0026 98.9102 99.0844 96.5872 99.1311 94.2642C99.1894 91.9411 99.2244 89.6064 99.2244 87.2834C99.2244 84.9603 99.1777 82.6256 99.1661 80.3026L99.1544 80.2792ZM96.738 101.198C96.8547 98.7585 96.9131 96.4121 96.9831 94.054C97.0065 91.731 97.0882 89.3963 97.0532 87.1199C97.0532 84.8319 96.9364 82.5556 96.8781 80.2559C96.8314 78.0146 96.8314 75.7499 96.8897 73.4969L98.4773 73.5436C98.3956 75.7966 98.3373 78.0379 98.3139 80.2909C98.2906 82.6139 98.2439 84.9487 98.2555 87.2717C98.2555 89.5947 98.2906 91.9294 98.3489 94.2525C98.3956 96.5288 98.4657 98.8169 98.5824 101.093L96.738 101.198Z" fill="black"/>
<path d="M111.551 72.1191H83.6278V74.1503H111.551V72.1191Z" fill="white"/>
<path d="M111.562 71.9677C109.239 71.851 106.905 71.7809 104.582 71.7342C102.259 71.6759 99.9238 71.6408 97.6008 71.6408C95.2777 71.6408 92.943 71.6875 90.62 71.6992C88.2969 71.7342 85.9622 71.7926 83.6392 71.8743H83.6275C83.4991 71.8743 83.3941 71.991 83.3941 72.1194L83.4524 74.1507C83.4524 74.2557 83.5341 74.3374 83.6392 74.3374C85.9739 74.2791 88.3086 74.2791 90.655 74.3258C93.0014 74.3841 95.3828 74.5009 97.7525 74.5009C100.122 74.5359 102.445 74.4542 104.78 74.4308C107.091 74.3608 109.379 74.3024 111.609 74.1857L111.726 72.1194C111.726 72.0377 111.667 71.9794 111.597 71.9677H111.562ZM104.383 73.8705C102.06 73.8471 99.7254 73.7654 97.449 73.8004C95.161 73.8004 92.8847 73.9172 90.585 73.9755C88.3436 74.0222 86.079 74.0222 83.826 73.9639L83.8727 72.3763C86.1257 72.458 88.367 72.5163 90.62 72.5397C92.943 72.563 95.2777 72.6097 97.6008 72.5981C99.9238 72.5981 102.259 72.563 104.582 72.5047C106.858 72.458 109.146 72.3879 111.422 72.2712L111.527 74.1156C109.088 73.9989 106.741 73.9405 104.383 73.8705Z" fill="black"/>
<path d="M111.551 101.467H83.6278V104.653H111.551V101.467Z" fill="white"/>
<path d="M111.574 101.257H111.551C109.228 101.175 106.893 101.093 104.57 101.058C102.247 101 99.9124 100.976 97.5894 100.976C95.2663 100.976 92.9316 101.023 90.6086 101.046C88.2856 101.081 85.9508 101.14 83.6278 101.21H83.6161C83.4877 101.21 83.3827 101.327 83.3827 101.455L83.4644 104.642C83.4644 104.735 83.5344 104.805 83.6278 104.805C85.9625 104.77 88.2972 104.77 90.6436 104.84C92.99 104.899 95.3831 105.015 97.7411 105.004C100.111 105.027 102.434 104.945 104.757 104.922C107.068 104.852 109.368 104.794 111.586 104.677L111.761 101.455C111.761 101.35 111.679 101.257 111.574 101.257ZM104.383 104.373C102.06 104.35 99.7256 104.268 97.4376 104.292C95.1379 104.28 92.8733 104.397 90.5619 104.455C88.3206 104.513 86.0442 104.525 83.7912 104.49L83.8613 101.723C86.1143 101.794 88.3556 101.852 90.6086 101.887C92.9316 101.91 95.2663 101.957 97.5894 101.957C99.9124 101.957 102.247 101.934 104.57 101.875C106.835 101.84 109.1 101.77 111.364 101.688L111.528 104.63C109.1 104.513 106.741 104.455 104.395 104.385L104.383 104.373Z" fill="black"/>
<path d="M70.7632 115.58H45.1164V146.69H70.7632V115.58Z" fill="white"/>
<path d="M70.7759 115.218L45.1291 115.136C44.8839 115.136 44.6855 115.335 44.6855 115.58C44.7321 125.946 44.7088 136.324 44.8139 146.69C44.8139 146.877 44.9539 147.017 45.1291 147.005L58.0283 146.865L70.7759 146.678L57.8766 146.491L45.4442 146.363C45.5493 136.242 45.526 126.133 45.5727 116.012L70.414 115.93L70.5658 131.024L70.7759 146.667L70.986 131.199L71.1378 115.557C71.1378 115.358 70.9743 115.195 70.7759 115.183V115.218Z" fill="black"/>
<path d="M68.6857 117.716H47.2881V144.565H68.6857V117.716Z" fill="url(#paint5_linear_2310_97333)"/>
<path d="M68.7204 144.6C65.2533 144.717 61.6929 144.799 58.1208 144.869C54.5253 144.904 50.9065 144.985 47.2994 144.95C47.0893 144.95 46.9141 144.775 46.9141 144.565C46.9141 140.094 47.0893 135.612 47.1359 131.141C47.206 126.67 47.1359 122.187 47.0542 117.716C47.0542 117.588 47.1593 117.471 47.2877 117.471C50.8598 117.389 54.4203 117.342 57.9924 117.307C61.5645 117.296 65.1249 117.237 68.697 117.249C68.9538 117.249 69.164 117.459 69.164 117.716C69.164 122.245 69.1289 126.786 69.0356 131.281L68.8955 137.993L68.732 144.6H68.7204ZM68.662 144.53L68.3585 131.001C68.2651 126.541 68.2301 122.14 68.2301 117.716L68.697 118.183C65.1249 118.195 61.5645 118.136 57.9924 118.125C54.4203 118.09 50.8598 118.043 47.2877 117.961L47.5328 117.716C47.4511 122.187 47.3928 126.67 47.4511 131.141C47.4978 135.612 47.6729 140.094 47.6729 144.565L47.2877 144.18C50.8014 144.145 54.3269 144.227 57.864 144.262L68.662 144.53Z" fill="black"/>
<path d="M68.6857 124.09V117.716H47.2881V126.401C52.2143 125.047 59.2885 123.868 68.6857 124.09Z" fill="black"/>
<path d="M59.0081 115.685H56.9769V143.608H59.0081V115.685Z" fill="white"/>
<path d="M59.4175 122.666C59.3825 120.343 59.3241 118.008 59.2424 115.685C59.2424 115.533 59.1257 115.44 58.9973 115.44L56.9661 115.498C56.861 115.498 56.7793 115.58 56.791 115.685C56.8493 118.02 56.8493 120.355 56.8027 122.701C56.7443 125.047 56.6275 127.429 56.6275 129.799C56.5925 132.168 56.6742 134.491 56.6976 136.826C56.7676 139.137 56.826 141.437 56.9427 143.655L59.009 143.772C59.0907 143.772 59.149 143.713 59.1607 143.643C59.2658 141.297 59.3475 138.974 59.3942 136.651C59.4526 134.328 59.4876 131.993 59.4876 129.67C59.4876 127.347 59.4409 125.012 59.4292 122.689L59.4175 122.666ZM57.1529 122.631C57.1062 120.39 57.1062 118.125 57.1645 115.872L58.7521 115.919C58.6704 118.172 58.6121 120.413 58.5887 122.666C58.5654 124.989 58.5187 127.324 58.5303 129.647C58.5303 131.97 58.5654 134.305 58.6237 136.628C58.6704 138.904 58.7405 141.192 58.8572 143.468L57.0128 143.573C57.1295 141.134 57.1879 138.787 57.2579 136.429C57.2813 134.106 57.363 131.771 57.328 129.495C57.328 127.207 57.2112 124.931 57.1529 122.631Z" fill="black"/>
<path d="M71.8266 114.506H43.9034V116.537H71.8266V114.506Z" fill="white"/>
<path d="M71.8255 114.354C69.5025 114.238 67.1678 114.168 64.8447 114.121C62.5217 114.063 60.187 114.028 57.8639 114.028C55.5409 114.028 53.2062 114.074 50.8831 114.086C48.5601 114.121 46.2254 114.179 43.9023 114.261H43.8906C43.7622 114.261 43.6572 114.378 43.6572 114.506L43.7155 116.537C43.7155 116.643 43.7973 116.724 43.9023 116.724C46.237 116.666 48.5717 116.666 50.9181 116.713C53.2645 116.771 55.6459 116.888 58.0157 116.888C60.3854 116.923 62.7084 116.841 65.0432 116.818C67.3545 116.748 69.6425 116.689 71.8722 116.572L71.9889 114.506C71.9889 114.425 71.9306 114.366 71.8605 114.354H71.8255ZM64.6579 116.257C62.3349 116.234 60.0002 116.152 57.7238 116.187C55.4358 116.187 53.1595 116.304 50.8598 116.362C48.6184 116.409 46.3538 116.409 44.1008 116.351L44.1475 114.763C46.4005 114.845 48.6418 114.903 50.8948 114.926C53.2178 114.95 55.5525 114.997 57.8756 114.985C60.1986 114.985 62.5333 114.95 64.8564 114.891C67.1327 114.845 69.4207 114.775 71.6971 114.658L71.8022 116.502C69.3624 116.386 67.016 116.327 64.6579 116.257Z" fill="black"/>
<path d="M71.8266 143.853H43.9034V147.04H71.8266V143.853Z" fill="white"/>
<path d="M71.8489 143.643H71.8255C69.5025 143.562 67.1678 143.48 64.8447 143.445C62.5217 143.387 60.187 143.363 57.8639 143.363C55.5409 143.363 53.2062 143.41 50.8831 143.433C48.5601 143.468 46.2254 143.527 43.9023 143.597H43.8906C43.7622 143.597 43.6572 143.713 43.6572 143.842L43.7389 147.029C43.7389 147.122 43.8089 147.192 43.9023 147.192C46.237 147.157 48.5717 147.157 50.9181 147.227C53.2645 147.285 55.6576 147.402 58.0157 147.391C60.3854 147.414 62.6968 147.332 65.0315 147.309C67.3429 147.239 69.6425 147.18 71.8605 147.064L72.0356 143.842C72.0356 143.737 71.9539 143.643 71.8489 143.643ZM64.6579 146.76C62.3349 146.737 60.0002 146.655 57.7122 146.678C55.4125 146.667 53.1478 146.784 50.8364 146.842C48.5951 146.9 46.3188 146.912 44.0658 146.877L44.1358 144.11C46.3888 144.18 48.6301 144.239 50.8831 144.274C53.2062 144.297 55.5409 144.344 57.8639 144.344C60.187 144.344 62.5217 144.32 64.8447 144.262C67.1094 144.227 69.3741 144.157 71.6387 144.075L71.8022 147.017C69.3741 146.9 67.016 146.842 64.6696 146.772L64.6579 146.76Z" fill="black"/>
<path d="M110.314 115.58H84.6674V146.69H110.314V115.58Z" fill="white"/>
<path d="M110.313 146.69L97.5657 146.877L84.6664 147.017C84.4913 147.017 84.3512 146.877 84.3512 146.702C84.2462 136.336 84.2695 125.958 84.2228 115.592C84.2228 115.347 84.4213 115.148 84.6664 115.148L110.313 115.23C110.512 115.23 110.675 115.393 110.675 115.592L110.523 131.234L110.313 146.702V146.69ZM110.313 146.69L110.103 131.048L109.951 115.58L110.325 115.954L84.6781 116.035L85.1217 115.592C85.075 125.958 85.0983 136.336 84.9933 146.702L84.6781 146.387L97.4256 146.527L110.325 146.714L110.313 146.69Z" fill="black"/>
<path d="M108.236 117.716H86.838V144.565H108.236V117.716Z" fill="url(#paint6_linear_2310_97333)"/>
<path d="M108.236 117.249C104.663 117.237 101.103 117.296 97.5309 117.307C93.9588 117.342 90.3983 117.389 86.8262 117.471C86.6978 117.471 86.5927 117.588 86.5927 117.716C86.6745 122.187 86.7328 126.67 86.6745 131.141C86.6278 135.612 86.4527 140.094 86.4527 144.565C86.4527 144.775 86.6278 144.95 86.8379 144.95C90.4567 144.985 94.0638 144.904 97.6593 144.869C101.243 144.787 104.804 144.705 108.259 144.6L108.422 137.993L108.562 131.281C108.656 126.786 108.691 122.245 108.691 117.716C108.691 117.459 108.481 117.249 108.224 117.249H108.236ZM97.4141 144.262C94.0055 144.227 90.6201 144.157 87.2231 144.18C87.2231 139.837 87.048 135.483 87.0013 131.141C86.943 126.751 87.0013 122.362 87.0714 117.961C90.5618 118.031 94.0405 118.09 97.5309 118.125C100.94 118.136 104.348 118.195 107.769 118.183C107.769 122.444 107.804 126.705 107.897 131.001L108.201 144.53L97.4025 144.262H97.4141Z" fill="black"/>
<path d="M108.236 124.09V117.716H86.838V126.401C91.7642 125.047 98.8384 123.868 108.236 124.09Z" fill="black"/>
<path d="M98.5466 115.685H96.5154V143.608H98.5466V115.685Z" fill="white"/>
<path d="M98.9674 122.666C98.9324 120.343 98.8741 118.008 98.7923 115.685C98.7923 115.533 98.6756 115.44 98.5472 115.44L96.516 115.498C96.4109 115.498 96.3292 115.58 96.3409 115.685C96.3992 118.02 96.3993 120.355 96.3526 122.701C96.2942 125.047 96.1775 127.429 96.1775 129.799C96.1424 132.168 96.2241 134.491 96.2475 136.826C96.3175 139.137 96.3759 141.437 96.4926 143.655L98.5589 143.772C98.6406 143.772 98.6989 143.713 98.7106 143.643C98.8157 141.297 98.8974 138.974 98.9441 136.651C99.0025 134.328 99.0375 131.993 99.0375 129.67C99.0375 127.347 98.9908 125.012 98.9791 122.689L98.9674 122.666ZM96.6911 122.631C96.6444 120.39 96.6444 118.125 96.7028 115.872L98.2904 115.919C98.2087 118.172 98.1503 120.413 98.1269 122.666C98.1036 124.989 98.0569 127.324 98.0686 129.647C98.0686 131.97 98.1036 134.305 98.162 136.628C98.2087 138.904 98.2787 141.192 98.3954 143.468L96.551 143.573C96.6677 141.134 96.7261 138.787 96.7962 136.429C96.8195 134.106 96.9012 131.771 96.8662 129.495C96.8662 127.207 96.7495 124.931 96.6911 122.631Z" fill="black"/>
<path d="M111.364 114.506H83.4408V116.537H111.364V114.506Z" fill="white"/>
<path d="M111.377 114.354C109.054 114.238 106.719 114.168 104.396 114.121C102.073 114.063 99.738 114.028 97.415 114.028C95.0919 114.028 92.7572 114.074 90.4342 114.086C88.1111 114.121 85.7764 114.179 83.4534 114.261H83.4417C83.3133 114.261 83.2082 114.378 83.2082 114.506L83.2666 116.537C83.2666 116.643 83.3483 116.724 83.4534 116.724C85.7881 116.666 88.1228 116.666 90.4692 116.713C92.8156 116.771 95.197 116.888 97.5667 116.888C99.9365 116.923 102.259 116.841 104.594 116.818C106.906 116.748 109.205 116.689 111.423 116.572L111.54 114.506C111.54 114.425 111.482 114.366 111.412 114.354H111.377ZM104.197 116.257C101.874 116.234 99.5396 116.152 97.2632 116.187C94.9752 116.187 92.6988 116.304 90.3992 116.362C88.1578 116.409 85.8932 116.409 83.6402 116.351L83.6869 114.763C85.9399 114.845 88.1812 114.903 90.4342 114.926C92.7572 114.95 95.0919 114.997 97.415 114.985C99.738 114.985 102.073 114.95 104.396 114.891C106.672 114.845 108.96 114.775 111.236 114.658L111.342 116.502C108.902 116.386 106.555 116.327 104.197 116.257Z" fill="black"/>
<path d="M111.364 143.853H83.4408V147.04H111.364V143.853Z" fill="white"/>
<path d="M111.387 143.643H111.364C109.041 143.562 106.706 143.48 104.383 143.445C102.06 143.387 99.7255 143.363 97.4024 143.363C95.0794 143.363 92.7447 143.41 90.4216 143.433C88.0986 143.468 85.7639 143.527 83.4408 143.597H83.4292C83.3008 143.597 83.1957 143.713 83.1957 143.842L83.2774 147.029C83.2774 147.122 83.3474 147.192 83.4408 147.192C85.7755 147.157 88.1103 147.157 90.4567 147.227C92.803 147.285 95.1961 147.402 97.5542 147.391C99.9239 147.414 102.235 147.332 104.57 147.309C106.881 147.239 109.181 147.18 111.399 147.064L111.574 143.842C111.574 143.737 111.492 143.643 111.387 143.643ZM104.208 146.76C101.885 146.737 99.5504 146.655 97.2623 146.678C94.9627 146.667 92.698 146.784 90.3866 146.842C88.1453 146.9 85.8689 146.912 83.6159 146.877L83.686 144.11C85.939 144.18 88.1803 144.239 90.4333 144.274C92.7564 144.297 95.0911 144.344 97.4141 144.344C99.7371 144.344 102.072 144.32 104.395 144.262C106.66 144.227 108.924 144.157 111.189 144.075L111.352 147.017C108.924 146.9 106.566 146.842 104.22 146.772L104.208 146.76Z" fill="black"/>
<path d="M103.73 67.4265C104.962 67.4265 105.96 66.4282 105.96 65.1968C105.96 63.9654 104.962 62.9672 103.73 62.9672C102.499 62.9672 101.501 63.9654 101.501 65.1968C101.501 66.4282 102.499 67.4265 103.73 67.4265Z" fill="white"/>
<path d="M105.948 65.1967C105.971 66.3524 105.037 67.5431 103.718 67.6482C103.076 67.7066 102.387 67.4964 101.873 67.0412C101.36 66.5859 101.045 65.8972 101.045 65.1967C101.045 64.4963 101.36 63.7959 101.873 63.3523C102.387 62.897 103.087 62.6869 103.718 62.7453C105.037 62.8504 105.971 64.0411 105.948 65.1967ZM105.948 65.1967C105.948 64.6131 105.679 64.0411 105.247 63.6675C104.815 63.2939 104.243 63.1422 103.718 63.2006C102.644 63.3173 101.92 64.2862 101.932 65.2084C101.908 66.1306 102.632 67.0995 103.718 67.2163C104.243 67.2746 104.815 67.1112 105.247 66.7376C105.679 66.3641 105.936 65.7921 105.948 65.2084V65.1967Z" fill="white"/>
<path d="M107.595 65.5707C107.618 66.7264 106.684 67.9171 105.365 68.0221C104.723 68.0805 104.034 67.8704 103.521 67.4151C103.007 66.9598 102.692 66.2711 102.692 65.5707C102.692 64.8703 103.007 64.1699 103.521 63.7263C104.034 63.271 104.735 63.0609 105.365 63.1192C106.684 63.2243 107.618 64.415 107.595 65.5707ZM107.595 65.5707C107.595 64.987 107.326 64.415 106.894 64.0415C106.462 63.6679 105.89 63.5161 105.365 63.5745C104.291 63.6912 103.567 64.6601 103.579 65.5824C103.556 66.5046 104.279 67.4735 105.365 67.5902C105.89 67.6486 106.462 67.4852 106.894 67.1116C107.326 66.738 107.583 66.166 107.595 65.5824V65.5707Z" fill="black"/>
<path d="M110.524 61.7533C110.466 61.6716 110.373 61.6016 110.279 61.5549C110.174 61.5082 110.034 61.5082 110.046 61.5082C109.182 61.4732 108.318 61.4615 107.454 61.4498C105.727 61.4265 103.999 61.4498 102.271 61.4732L99.6796 61.5198L97.7418 61.5899H97.4149C97.4149 61.5899 97.0297 61.6132 96.9247 61.8234C96.8663 61.9051 96.8429 62.0685 96.8546 62.1152V62.2786L96.878 62.6055L96.9013 63.2475C96.9247 63.6795 96.9363 64.1114 96.9363 64.5433C96.9597 65.4071 96.9714 66.271 96.9597 67.1348L96.9247 68.4306L96.8896 69.0726V69.2011C96.8196 69.3295 96.8079 69.4696 96.8663 69.598C96.8663 69.6563 96.8663 69.7847 96.9363 69.8548C97.0064 69.9598 97.1231 70.0299 97.2399 70.0532H97.4383C97.4616 70.0532 97.4733 70.0649 97.4967 70.0532C97.4967 70.0532 97.52 70.0532 97.5317 70.0532H97.7652L98.4189 70.0882L99.7146 70.1349C101.466 70.1583 103.123 70.1349 104.944 70.0416C106.73 69.9365 108.493 69.7964 110.104 69.633C110.244 68.0104 110.396 66.2827 110.513 64.5083L110.618 62.4888V62.1502L110.641 62.0452C110.641 61.9284 110.594 61.835 110.536 61.7416L110.524 61.7533ZM103.684 69.096C102.446 69.0376 101.197 69.0026 99.9481 68.9793C99.8898 67.9286 99.8197 66.8897 99.8197 65.8391C99.8197 64.7067 99.8547 63.5861 99.9131 62.4537C100.929 62.4304 101.944 62.4304 102.96 62.4537C103.602 62.4771 104.232 62.5121 104.874 62.5238C105.038 62.5238 105.201 62.5238 105.376 62.5238C106.765 62.5821 108.166 62.6405 109.555 62.6172C109.59 63.6444 109.637 64.6717 109.731 65.734L110.034 69.5746C107.781 69.4112 105.715 69.1894 103.684 69.1077V69.096ZM97.9403 68.9442C97.9169 66.808 97.8819 64.66 97.7768 62.5238C98.3372 62.5004 98.8858 62.4888 99.4462 62.4654C99.5045 63.5861 99.5395 64.7184 99.5395 65.8391C99.5395 66.878 99.4812 67.9286 99.4111 68.9676C98.9208 68.9676 98.4189 68.9442 97.9286 68.9442H97.9403Z" fill="black"/>
<path d="M69.0015 108.424C69.0248 109.58 68.0909 110.771 66.7718 110.876C66.1298 110.934 65.441 110.724 64.9274 110.269C64.4138 109.814 64.0986 109.125 64.0986 108.424C64.0986 107.724 64.4138 107.024 64.9274 106.58C65.441 106.125 66.1414 105.915 66.7718 105.973C68.0909 106.078 69.0248 107.269 69.0015 108.424ZM69.0015 108.424C69.0015 107.841 68.733 107.269 68.3011 106.895C67.8691 106.522 67.2971 106.37 66.7718 106.428C65.6978 106.545 64.9741 107.514 64.9858 108.436C64.9624 109.358 65.6862 110.327 66.7718 110.444C67.2971 110.502 67.8691 110.339 68.3011 109.965C68.733 109.592 68.9898 109.02 69.0015 108.436V108.424Z" fill="black"/>
<path d="M71.9309 104.607C71.8725 104.525 71.7791 104.455 71.6858 104.409C71.5807 104.362 71.4406 104.362 71.4523 104.362C70.5884 104.327 69.7246 104.315 68.8608 104.303C67.1331 104.28 65.4054 104.303 63.6777 104.327L61.0862 104.373L59.1483 104.444H58.8215C58.8215 104.444 58.4363 104.467 58.3312 104.677C58.2728 104.759 58.2495 104.922 58.2612 104.969V105.132L58.2845 105.459L58.3079 106.101C58.3312 106.533 58.3429 106.965 58.3429 107.397C58.3662 108.261 58.3779 109.125 58.3662 109.988L58.3312 111.284L58.2962 111.926V112.055C58.2261 112.183 58.2145 112.323 58.2728 112.452C58.2728 112.51 58.2728 112.638 58.3429 112.708C58.4129 112.813 58.5296 112.884 58.6464 112.907H58.8448C58.8682 112.907 58.8799 112.919 58.9032 112.907C58.9032 112.907 58.9266 112.907 58.9382 112.907H59.1717L59.8254 112.942L61.1212 112.989C62.8722 113.012 64.5299 112.989 66.3509 112.895C68.137 112.79 69.8997 112.65 71.5107 112.487C71.6507 110.864 71.8025 109.136 71.9192 107.362L72.0243 105.342V105.004L72.0476 104.899C72.0476 104.782 72.0009 104.689 71.9426 104.595L71.9309 104.607ZM65.0902 111.95C63.8528 111.891 62.6037 111.856 61.3547 111.833C61.2963 110.782 61.2262 109.743 61.2262 108.693C61.2262 107.56 61.2613 106.44 61.3196 105.307C62.3352 105.284 63.3508 105.284 64.3664 105.307C65.0085 105.331 65.6389 105.366 66.2809 105.377C66.4443 105.377 66.6078 105.377 66.7829 105.377C68.172 105.436 69.5729 105.494 70.962 105.471C70.997 106.498 71.0437 107.525 71.1371 108.588L71.4406 112.428C69.1876 112.265 67.1214 112.043 65.0902 111.961V111.95ZM59.3585 111.798C59.3351 109.662 59.3001 107.514 59.195 105.377C59.7554 105.354 60.304 105.342 60.8644 105.319C60.9227 106.44 60.9578 107.572 60.9578 108.693C60.9578 109.732 60.8994 110.782 60.8293 111.821C60.3391 111.821 59.8371 111.798 59.3468 111.798H59.3585Z" fill="black"/>
<path d="M121.788 106.848H118.041C117.749 106.848 117.493 106.603 117.493 106.299V103.521C117.493 103.218 117.738 102.973 118.041 102.973H121.788V106.848Z" fill="white"/>
<path d="M121.789 111.413H121.462C121.159 111.413 120.914 111.168 120.914 110.864V108.086C120.914 107.782 121.159 107.537 121.462 107.537H121.789V111.413Z" fill="white"/>
<path d="M118.836 107.537H112.451C112.148 107.537 111.902 107.783 111.902 108.086V110.852C111.902 111.155 112.148 111.401 112.451 111.401H118.836C119.139 111.401 119.385 111.155 119.385 110.852V108.086C119.385 107.783 119.139 107.537 118.836 107.537Z" fill="white"/>
<path d="M42.3855 148.757V151.535C42.3855 151.838 42.1403 152.084 41.8368 152.084H36.5254V148.22H41.8368C42.1403 148.22 42.3855 148.465 42.3855 148.768V148.757Z" fill="white"/>
<path d="M45.2458 152.772H38.8604C38.5574 152.772 38.3117 153.018 38.3117 153.321V156.087C38.3117 156.39 38.5574 156.636 38.8604 156.636H45.2458C45.5488 156.636 45.7945 156.39 45.7945 156.087V153.321C45.7945 153.018 45.5488 152.772 45.2458 152.772Z" fill="white"/>
<path d="M36.7936 153.321V156.099C36.7936 156.298 36.6885 156.461 36.5368 156.566V152.866C36.6885 152.959 36.7936 153.134 36.7936 153.333V153.321Z" fill="white"/>
<path d="M81.5616 61.9281H75.1761C74.8731 61.9281 74.6275 62.1737 74.6275 62.4767V65.2433C74.6275 65.5464 74.8731 65.792 75.1761 65.792H81.5616C81.8646 65.792 82.1102 65.5464 82.1102 65.2433V62.4767C82.1102 62.1737 81.8646 61.9281 81.5616 61.9281Z" fill="white"/>
<path d="M84.9588 66.4926H78.5733C78.2703 66.4926 78.0247 66.7383 78.0247 67.0413V69.8079C78.0247 70.1109 78.2703 70.3566 78.5733 70.3566H84.9588C85.2618 70.3566 85.5074 70.1109 85.5074 69.8079V67.0413C85.5074 66.7383 85.2618 66.4926 84.9588 66.4926Z" fill="white"/>
<path d="M75.9585 66.4926H69.5731C69.27 66.4926 69.0244 66.7383 69.0244 67.0413V69.8079C69.0244 70.1109 69.27 70.3566 69.5731 70.3566H75.9585C76.2615 70.3566 76.5072 70.1109 76.5072 69.8079V67.0413C76.5072 66.7383 76.2615 66.4926 75.9585 66.4926Z" fill="white"/>
<path d="M40.5994 37.6821V40.4604C40.5994 40.7522 40.3543 41.009 40.0508 41.009H36.5254V37.1451H40.0508C40.3426 37.1451 40.5994 37.3902 40.5994 37.6938V37.6821Z" fill="white"/>
<path d="M43.4595 41.6982H37.074C36.771 41.6982 36.5254 41.9439 36.5254 42.2469V45.0135C36.5254 45.3165 36.771 45.5622 37.074 45.5622H43.4595C43.7625 45.5622 44.0081 45.3165 44.0081 45.0135V42.2469C44.0081 41.9439 43.7625 41.6982 43.4595 41.6982Z" fill="white"/>
<path d="M121.789 34.7875H119.15C118.859 34.7875 118.602 34.5423 118.602 34.2272V31.4488C118.602 31.157 118.847 30.9002 119.15 30.9002H121.789V34.7875Z" fill="white"/>
<path d="M119.933 35.4761H113.547C113.244 35.4761 112.999 35.7218 112.999 36.0248V38.7914C112.999 39.0944 113.244 39.3401 113.547 39.3401H119.933C120.236 39.3401 120.481 39.0944 120.481 38.7914V36.0248C120.481 35.7218 120.236 35.4761 119.933 35.4761Z" fill="white"/>
<path d="M121.812 102.95C120.971 102.786 119.933 102.623 118.847 102.553C118.578 102.529 118.31 102.529 118.03 102.518C117.551 102.494 117.119 102.856 117.026 103.335C116.991 103.615 117.014 103.65 117.014 103.802V104.175L117.108 105.669L117.143 106.043C117.166 106.183 117.154 106.253 117.201 106.475C117.306 106.86 117.68 107.094 118.03 107.07C118.275 107.047 118.532 107.012 118.777 107C119.769 106.93 120.773 107.129 121.765 107.234L122.116 107.269L122.139 106.86C122.186 106.171 122.139 105.459 122.08 104.794C122.01 104.129 121.905 103.498 121.8 102.961L121.812 102.95ZM121.462 105.039C121.415 105.541 121.38 106.02 121.392 106.51C120.516 106.615 119.652 106.767 118.777 106.697C118.532 106.697 118.275 106.662 118.03 106.627C117.878 106.603 117.773 106.452 117.785 106.347C117.785 106.323 117.808 106.136 117.82 106.031L117.855 105.658L117.901 104.911L117.96 103.51C117.96 103.51 117.995 103.463 118.03 103.452C118.263 103.44 118.485 103.44 118.718 103.416C119.641 103.335 120.598 103.183 121.742 103.02C121.625 103.767 121.52 104.432 121.462 105.051V105.039Z" fill="black"/>
<path d="M121.018 107.42C120.866 107.479 120.738 107.595 120.656 107.747C120.562 107.887 120.539 108.121 120.527 108.191C120.469 108.623 120.411 109.055 120.434 109.475C120.446 109.907 120.492 110.339 120.539 110.759C120.551 110.829 120.574 111.062 120.668 111.202C120.761 111.343 120.889 111.459 121.029 111.529C121.17 111.599 121.333 111.623 121.473 111.599C121.578 111.576 121.683 111.576 121.8 111.553L121.952 111.529V111.401C121.917 111.074 121.952 110.747 122.022 110.385C122.092 110.035 122.173 109.662 122.162 109.311C122.138 108.623 122.022 107.946 121.823 107.502C121.66 107.432 121.321 107.268 121.029 107.409L121.018 107.42ZM121.555 110.49C121.625 110.736 121.648 110.992 121.636 111.249C121.251 111.202 121.193 111.004 121.275 110.771C121.321 110.339 121.368 109.907 121.38 109.486C121.391 109.055 121.345 108.623 121.286 108.202C121.181 107.922 121.263 107.759 121.753 107.595C121.555 108.436 121.438 109.055 121.415 109.65C121.415 109.942 121.485 110.21 121.555 110.502V110.49Z" fill="black"/>
<path d="M119.676 109.953C119.618 109.498 119.548 109.043 119.501 108.599C119.454 108.366 119.501 108.167 119.408 107.899C119.314 107.665 119.081 107.49 118.824 107.502C117.913 107.514 117.015 107.374 116.104 107.269C115.193 107.14 114.295 107.128 113.384 107.175L112.707 107.234C112.579 107.245 112.52 107.245 112.333 107.269C112.158 107.304 112.007 107.385 111.901 107.514C111.785 107.63 111.715 107.782 111.703 107.946C111.691 108.121 111.715 108.202 111.726 108.331L111.761 109.008C111.773 109.463 111.773 109.918 111.761 110.362V110.701C111.738 110.806 111.715 110.934 111.761 111.097C111.843 111.401 112.123 111.634 112.462 111.658C114.271 111.833 116.092 111.88 117.902 111.891L118.579 111.868H118.754C118.754 111.868 118.859 111.868 118.987 111.845C119.197 111.81 119.384 111.716 119.524 111.564C119.664 111.424 119.758 111.238 119.793 111.039C119.816 110.806 119.793 110.747 119.781 110.619C119.758 110.397 119.723 110.164 119.699 109.942L119.676 109.953ZM119.256 108.588C119.209 109.043 119.139 109.498 119.081 109.942C119.011 110.339 118.999 111.027 118.906 110.934C118.882 110.946 118.859 110.946 118.836 110.946H118.555L117.878 110.922C116.069 110.922 114.248 110.981 112.438 111.156C112.31 111.179 112.17 111.097 112.1 110.969C112.065 110.911 112.065 110.817 112.053 110.689V110.35C112.018 109.895 112.018 109.44 112.03 108.996L112.065 108.319C112.077 108.062 112.1 107.946 112.228 107.864C112.287 107.829 112.345 107.817 112.392 107.817L112.695 107.841L113.372 107.899C114.283 107.957 115.182 107.934 116.092 107.806C117.003 107.689 117.902 107.56 118.812 107.572C119.022 107.572 119.221 107.724 119.268 107.922C119.303 108.097 119.256 108.366 119.232 108.576L119.256 108.588Z" fill="black"/>
<path d="M46.0855 155.188C46.0271 154.733 45.9571 154.278 45.9104 153.834C45.8637 153.601 45.9104 153.402 45.817 153.134C45.7236 152.9 45.4901 152.725 45.2333 152.737C44.3228 152.749 43.4239 152.609 42.5134 152.503C42.3149 152.48 42.1165 152.468 41.9297 152.457C42.0581 152.445 42.1749 152.422 42.2916 152.352C42.5718 152.188 42.7352 151.873 42.7235 151.57L42.6418 150.998C42.5367 150.251 42.4083 149.503 42.42 148.768C42.42 148.488 42.2215 148.219 41.9297 148.149L41.1476 148.056C40.6339 147.986 40.1203 147.892 39.6067 147.834C38.5794 147.729 37.5521 147.729 36.5248 147.764H36.0462L36.0696 148.219C36.0929 148.861 36.1163 149.503 36.1513 150.157C36.198 150.799 36.2797 151.441 36.3264 152.095V152.305L36.5248 152.293C37.272 152.223 38.0191 152.212 38.7545 152.27C39.2448 152.317 39.7351 152.363 40.2254 152.422C40.0853 152.422 39.9452 152.422 39.7934 152.422L39.1164 152.48C38.988 152.492 38.9296 152.492 38.7428 152.515C38.5677 152.55 38.416 152.632 38.3109 152.76C38.1942 152.877 38.1241 153.029 38.1125 153.192C38.1008 153.367 38.1241 153.449 38.1358 153.577L38.1708 154.255C38.1825 154.71 38.1825 155.165 38.1708 155.609V155.947C38.1475 156.052 38.1241 156.181 38.1708 156.344C38.2525 156.648 38.5327 156.881 38.8712 156.904C40.6806 157.08 42.5017 157.126 44.3111 157.138L44.9882 157.115H45.1633C45.1633 157.115 45.2683 157.115 45.3968 157.091C45.6069 157.056 45.7937 156.963 45.9337 156.811C46.0738 156.671 46.1672 156.484 46.2022 156.286C46.2256 156.052 46.2022 155.994 46.1906 155.865C46.1672 155.644 46.1322 155.41 46.1088 155.188H46.0855ZM38.7662 151.908C38.0891 151.955 37.4237 151.943 36.7466 151.896C36.7933 151.313 36.8751 150.729 36.9101 150.145C36.9451 149.655 36.9568 149.165 36.9684 148.675C37.8556 148.698 38.7312 148.686 39.6183 148.605C40.132 148.546 40.6456 148.453 41.1593 148.383C41.4161 148.348 41.6846 148.301 41.918 148.301C42.1398 148.301 42.3383 148.523 42.35 148.756C42.3616 149.503 42.2449 150.25 42.1282 150.986L42.0464 151.535C42.0231 151.616 41.9647 151.651 41.918 151.663C41.8947 151.663 41.8713 151.675 41.8363 151.663C41.7429 151.663 41.6495 151.663 41.5562 151.663C41.3694 151.663 41.1826 151.663 40.9958 151.675C40.2487 151.721 39.5016 151.826 38.7662 151.896V151.908ZM45.6653 153.823C45.6186 154.278 45.5485 154.733 45.4902 155.177C45.4201 155.574 45.4084 156.262 45.315 156.169C45.2917 156.181 45.2683 156.181 45.245 156.181H44.9648L44.2878 156.157C42.4784 156.157 40.6573 156.216 38.8479 156.391C38.7195 156.414 38.5794 156.332 38.5094 156.204C38.4743 156.146 38.4743 156.052 38.4627 155.924V155.585C38.4276 155.13 38.4276 154.675 38.4393 154.231L38.4743 153.554C38.486 153.297 38.5094 153.181 38.6378 153.099C38.6961 153.064 38.7545 153.052 38.8012 153.052L39.1047 153.076L39.7818 153.134C40.6923 153.192 41.5912 153.169 42.5017 153.04C43.4123 152.924 44.3111 152.795 45.2217 152.807C45.4318 152.807 45.6302 152.959 45.6769 153.157C45.7119 153.332 45.6653 153.601 45.6419 153.811L45.6653 153.823Z" fill="black"/>
<path d="M85.7992 68.8976C85.7408 68.4423 85.6708 67.9871 85.6241 67.5435C85.5774 67.31 85.6241 67.1115 85.5307 66.8431C85.4373 66.6096 85.2039 66.4345 84.947 66.4462C84.0365 66.4578 83.1377 66.3177 82.2271 66.2127C81.8652 66.166 81.5033 66.1426 81.1415 66.1193H81.2815C81.41 66.0959 81.4683 66.0959 81.6551 66.0726C81.8302 66.0376 81.982 65.9559 82.087 65.8275C82.2038 65.7107 82.2738 65.559 82.2971 65.3955C82.3088 65.2204 82.2855 65.1387 82.2738 65.0103L82.2388 64.3332C82.2271 63.878 82.2271 63.4227 82.2388 62.9791V62.6406C82.2621 62.5355 82.2855 62.4071 82.2388 62.2437C82.1571 61.9402 81.8769 61.7067 81.5384 61.6833C79.729 61.5082 77.9079 61.4615 76.0985 61.4499L75.4214 61.4732H75.2463C75.2463 61.4732 75.1413 61.4732 75.0128 61.4966C74.8027 61.5316 74.6159 61.625 74.4759 61.7767C74.3358 61.9168 74.2424 62.1036 74.2074 62.302C74.184 62.5355 74.2074 62.5939 74.219 62.7223C74.2424 62.9441 74.2774 63.1776 74.3008 63.3994C74.3591 63.8546 74.4292 64.3099 74.4759 64.7535C74.5226 64.987 74.4759 65.1854 74.5692 65.4539C74.6626 65.6874 74.8961 65.8625 75.1529 65.8508C76.0635 65.8391 76.9623 65.9792 77.8729 66.0843C78.2347 66.131 78.5966 66.1543 78.9585 66.1777H78.8184C78.69 66.201 78.6316 66.201 78.4449 66.2244C78.2698 66.2594 78.118 66.3411 78.013 66.4695C77.8962 66.5862 77.8262 66.738 77.8145 66.9014C77.8028 67.0765 77.8262 67.1582 77.8378 67.2867L77.8729 67.9637C77.8845 68.419 77.8845 68.8743 77.8729 69.3179V69.6564C77.8495 69.7614 77.8262 69.8899 77.8729 70.0533C77.9546 70.3568 78.2347 70.5903 78.5733 70.6136C80.3827 70.7887 82.2038 70.8354 84.0132 70.8471L84.6902 70.8237H84.8653C84.8653 70.8237 84.9704 70.8237 85.0988 70.8004C85.3089 70.7654 85.4957 70.672 85.6358 70.5202C85.7759 70.3802 85.8693 70.1934 85.9043 69.9949C85.9276 69.7614 85.9043 69.7031 85.8926 69.5747C85.8693 69.3529 85.8342 69.1194 85.8109 68.8976H85.7992ZM77.8962 65.5123C76.9857 65.629 76.0868 65.7574 75.1763 65.7457C74.9662 65.7457 74.7677 65.594 74.721 65.3955C74.686 65.2204 74.7327 64.9519 74.756 64.7418C74.8027 64.2865 74.8728 63.8313 74.9311 63.3877C75.0012 62.9908 75.0128 62.302 75.1062 62.3954C75.1296 62.3838 75.1529 62.3838 75.1763 62.3838H75.4564L76.1335 62.4071C77.9429 62.4071 79.764 62.3487 81.5734 62.1736C81.7018 62.1503 81.8419 62.232 81.9119 62.3604C81.9469 62.4188 81.9469 62.5122 81.9586 62.6406V62.9791C81.9936 63.4344 81.9936 63.8896 81.982 64.3332L81.9469 65.0103C81.9353 65.2671 81.9119 65.3839 81.7835 65.4656C81.7251 65.5006 81.6668 65.5123 81.6201 65.5123L81.3166 65.4889L80.6395 65.4306C79.729 65.3722 78.8301 65.3955 77.9196 65.5239L77.8962 65.5123ZM85.379 67.5318C85.3323 67.9871 85.2622 68.4423 85.2039 68.8859C85.1338 69.2828 85.1222 69.9716 85.0288 69.8782C85.0054 69.8899 84.9821 69.8899 84.9587 69.8899H84.6786L84.0015 69.8665C82.1921 69.8665 80.371 69.9249 78.5616 70.1C78.4332 70.1233 78.2931 70.0416 78.2231 69.9132C78.1881 69.8548 78.1881 69.7615 78.1764 69.633V69.2945C78.1414 68.8392 78.1414 68.384 78.153 67.9404L78.188 67.2633C78.1997 67.0065 78.2231 66.8898 78.3515 66.808C78.4099 66.773 78.4682 66.7613 78.5149 66.7613L78.8184 66.7847L79.4955 66.8431C80.406 66.9014 81.3049 66.8781 82.2154 66.7497C83.126 66.6329 84.0248 66.5045 84.9354 66.5162C85.1455 66.5162 85.344 66.668 85.3906 66.8664C85.4257 67.0415 85.379 67.31 85.3556 67.5201L85.379 67.5318Z" fill="black"/>
<path d="M76.7988 68.8976C76.7404 68.4424 76.6704 67.9871 76.6237 67.5435C76.577 67.31 76.6237 67.1116 76.5303 66.8431C76.4369 66.6096 76.2034 66.4345 75.9466 66.4462C75.0361 66.4578 74.1372 66.3178 73.2267 66.2127C72.3161 66.0843 71.4173 66.0726 70.5067 66.1193L69.8297 66.1777C69.7013 66.1893 69.6429 66.1894 69.4561 66.2127C69.281 66.2477 69.1293 66.3294 69.0242 66.4578C68.9075 66.5746 68.8374 66.7263 68.8141 66.8898C68.8024 67.0649 68.8258 67.1466 68.8374 67.275L68.8724 67.9521C68.8841 68.4073 68.8841 68.8626 68.8724 69.3062V69.6447C68.8491 69.7498 68.8257 69.8782 68.8724 70.0416C68.9542 70.3451 69.2343 70.5786 69.5729 70.602C71.3823 70.7771 73.2033 70.8238 75.0127 70.8354L75.6898 70.8121H75.8649C75.8649 70.8121 75.97 70.8121 76.0984 70.7887C76.3085 70.7537 76.4953 70.6603 76.6354 70.5086C76.7755 70.3685 76.8688 70.1817 76.9039 69.9833C76.9272 69.7498 76.9039 69.6914 76.8922 69.563C76.8688 69.3412 76.8338 69.1077 76.8105 68.8859L76.7988 68.8976ZM76.3785 67.5318C76.3319 67.9871 76.2618 68.4423 76.2034 68.8859C76.1334 69.2828 76.1217 69.9716 76.0283 69.8782C76.005 69.8899 75.9816 69.8899 75.9583 69.8899H75.6781L75.0011 69.8665C73.1917 69.8665 71.3706 69.9249 69.5612 70.1C69.4328 70.1233 69.2927 70.0416 69.2227 69.9132C69.1876 69.8549 69.1876 69.7615 69.176 69.6331V69.2945C69.1409 68.8393 69.1409 68.384 69.1526 67.9404L69.1876 67.2633C69.1993 67.0065 69.2226 66.8898 69.3511 66.8081C69.4094 66.773 69.4678 66.7614 69.5145 66.7614L69.818 66.7847L70.4951 66.8431C71.4056 66.9014 72.3045 66.8781 73.215 66.7497C74.1255 66.6329 75.0244 66.5045 75.935 66.5162C76.1451 66.5162 76.3435 66.668 76.3902 66.8664C76.4252 67.0415 76.3785 67.31 76.3552 67.5201L76.3785 67.5318Z" fill="black"/>
<path d="M36.3492 41.0093L36.3726 41.2078H36.536C37.1313 41.126 37.7267 41.126 38.322 41.1844C38.6372 41.2194 38.9407 41.2661 39.2559 41.3128C38.8473 41.3128 38.4388 41.3128 38.0185 41.3362L37.3415 41.3945C37.213 41.4062 37.1547 41.4062 36.9679 41.4296C36.7928 41.4646 36.641 41.5463 36.536 41.6747C36.4192 41.7914 36.3492 41.9432 36.3375 42.1066C36.3259 42.2817 36.3492 42.3635 36.3609 42.4919L36.3959 43.1689C36.4076 43.6242 36.4076 44.0795 36.3959 44.5231V44.8616C36.3725 44.9667 36.3492 45.0951 36.3959 45.2585C36.4776 45.562 36.7578 45.7955 37.0963 45.8188C38.9057 45.9939 40.7268 46.0406 42.5362 46.0523L43.2133 46.0289H43.3884C43.3884 46.0289 43.4934 46.029 43.6218 46.0056C43.832 45.9706 44.0187 45.8772 44.1588 45.7254C44.2989 45.5854 44.3923 45.3986 44.4273 45.2001C44.4507 44.9667 44.4273 44.9083 44.4156 44.7799C44.3923 44.5581 44.3573 44.3246 44.3339 44.1028C44.2756 43.6475 44.2055 43.1923 44.1588 42.7487C44.1121 42.5152 44.1588 42.3168 44.0654 42.0483C43.972 41.8148 43.7386 41.6397 43.4818 41.6514C42.5712 41.663 41.6723 41.523 40.7618 41.4179C40.5867 41.3945 40.4116 41.3945 40.2365 41.3712C40.47 41.3362 40.6801 41.2194 40.8319 41.0327C40.9136 40.9276 40.9603 40.8109 40.9953 40.6825C41.0303 40.554 41.0186 40.414 41.0186 40.3673C40.9953 40.0638 40.9486 39.7719 40.8902 39.4684C40.7852 38.8731 40.6684 38.2777 40.6801 37.6823C40.6801 37.4839 40.5867 37.2854 40.4233 37.157C40.2482 37.017 40.0147 37.0286 39.8513 36.9936L38.754 36.7952C38.0185 36.6784 37.2948 36.6551 36.5593 36.6667H36.069V37.1454C36.0807 37.7874 36.1157 38.4295 36.1508 39.0832C36.1858 39.7252 36.3025 40.3673 36.3609 41.021L36.3492 41.0093ZM40.7385 41.9782C41.649 41.8615 42.5479 41.7331 43.4584 41.7447C43.6685 41.7447 43.867 41.8965 43.9137 42.095C43.9487 42.2701 43.902 42.5386 43.8787 42.7487C43.832 43.2039 43.7619 43.6592 43.7035 44.1028C43.6335 44.4997 43.6218 45.1885 43.5284 45.0951C43.5051 45.1067 43.4818 45.1067 43.4584 45.1067H43.1782L42.5012 45.0834C40.6918 45.0834 38.8707 45.1418 37.0613 45.3169C36.9329 45.3402 36.7928 45.2585 36.7228 45.1301C36.6877 45.0717 36.6877 44.9783 36.6761 44.8499V44.5114C36.641 44.0561 36.641 43.6008 36.6527 43.1573L36.6877 42.4802C36.6994 42.2117 36.7228 42.1066 36.8512 42.0249C36.9095 41.9899 36.9679 41.9782 37.0146 41.9782L37.3181 42.0016L37.9952 42.0599C38.9057 42.1183 39.8046 42.095 40.7151 41.9665L40.7385 41.9782ZM36.9212 39.0715C36.9446 38.5812 36.9679 38.0909 36.9796 37.6123C37.5633 37.6123 38.1353 37.589 38.7189 37.4839L39.8163 37.2854C40.0147 37.2621 40.1665 37.2037 40.3065 37.2854C40.4583 37.3555 40.5517 37.5189 40.5517 37.6823C40.5634 38.2777 40.4466 38.8731 40.3416 39.4684C40.2832 39.7719 40.2365 40.0638 40.2132 40.3673C40.2132 40.4607 40.2132 40.484 40.2015 40.4957C40.2015 40.519 40.1781 40.5307 40.1665 40.5424C40.1431 40.5774 40.0964 40.6007 40.0614 40.6124C39.5478 40.6474 38.894 40.7642 38.3104 40.8342C37.785 40.8809 37.2597 40.8809 36.7228 40.8342C36.7811 40.2505 36.8745 39.6669 36.9095 39.0715H36.9212Z" fill="black"/>
<path d="M118.158 32.8495C118.182 33.2581 118.194 33.6667 118.252 34.0752L118.275 34.227C118.275 34.297 118.299 34.3787 118.322 34.4605C118.38 34.6122 118.474 34.7406 118.59 34.834C118.812 35.0441 119.186 35.0208 119.338 34.9858C119.746 34.9391 120.155 34.9274 120.563 34.9507C120.972 34.9741 121.38 35.0558 121.789 35.1142L122.034 35.1492L122.092 34.8107C122.221 34.1219 122.186 33.4098 122.128 32.7328C122.069 32.0557 121.952 31.4253 121.824 30.9C121.159 30.7483 120.283 30.5732 119.373 30.5031C119.256 30.5031 119.174 30.4681 118.952 30.5031C118.766 30.5381 118.59 30.6199 118.462 30.7483C118.322 30.8767 118.217 31.0284 118.17 31.2152C118.147 31.2969 118.135 31.4253 118.135 31.4837V31.6355C118.135 32.044 118.158 32.4526 118.182 32.8612L118.158 32.8495ZM118.917 34.227L118.941 34.0752C118.987 33.6667 119.011 33.2581 119.034 32.8495C119.057 32.4409 119.081 32.0324 119.081 31.6238V31.472C119.081 31.472 119.081 31.4603 119.081 31.437C119.081 31.437 119.081 31.402 119.092 31.3903C119.139 31.3553 119.069 31.3436 119.326 31.3319C120.05 31.2619 120.797 31.0985 121.766 30.935C121.637 31.7055 121.52 32.3709 121.462 32.9779C121.415 33.5032 121.404 34.0052 121.462 34.5188C121.17 34.5655 120.867 34.6122 120.575 34.6356C120.166 34.6589 119.758 34.6356 119.349 34.6005C119.104 34.5772 119.022 34.5538 118.964 34.4371C118.929 34.3904 118.917 34.332 118.929 34.2854C118.929 34.262 118.929 34.2387 118.941 34.2153L118.917 34.227Z" fill="black"/>
<path d="M112.846 36.9353C112.858 37.3906 112.858 37.8458 112.846 38.2894V38.628C112.823 38.733 112.799 38.8614 112.846 39.0249C112.928 39.3284 113.208 39.5619 113.547 39.5852C115.356 39.7603 117.177 39.807 118.986 39.8187L119.663 39.7953H119.839C119.839 39.7953 119.944 39.7953 120.072 39.772C120.282 39.7486 120.469 39.6436 120.609 39.4918C120.749 39.3517 120.843 39.1649 120.878 38.9665C120.901 38.733 120.878 38.6747 120.866 38.5462C120.843 38.3245 120.808 38.091 120.784 37.8692C120.726 37.4139 120.656 36.9586 120.609 36.515C120.562 36.2816 120.609 36.0831 120.516 35.8146C120.422 35.5812 120.189 35.4061 119.932 35.4177C119.021 35.4294 118.123 35.2893 117.212 35.1843C116.302 35.0559 115.403 35.0442 114.492 35.0909L113.815 35.1492C113.687 35.1609 113.628 35.1609 113.441 35.1843C113.266 35.2193 113.115 35.301 113.01 35.4294C112.893 35.5461 112.823 35.6979 112.811 35.8613C112.799 36.0364 112.823 36.1181 112.834 36.2466L112.869 36.9236L112.846 36.9353ZM113.185 36.2582C113.196 36.0014 113.22 35.8847 113.348 35.803C113.395 35.7679 113.465 35.7563 113.512 35.7563L113.815 35.7796L114.492 35.838C115.403 35.8964 116.302 35.873 117.212 35.7446C118.123 35.6279 119.021 35.4994 119.932 35.5111C120.142 35.5111 120.341 35.6629 120.387 35.8613C120.422 36.0364 120.376 36.3049 120.352 36.515C120.306 36.9703 120.235 37.4256 120.177 37.8692C120.107 38.2661 120.095 38.9548 120.002 38.8614C119.979 38.8731 119.955 38.8731 119.932 38.8731H119.652L118.975 38.8498C117.165 38.8498 115.344 38.9081 113.535 39.0832C113.406 39.1066 113.266 39.0249 113.196 38.8965C113.161 38.8381 113.161 38.7447 113.15 38.6163V38.2778C113.115 37.8225 113.115 37.3672 113.126 36.9236L113.161 36.2466L113.185 36.2582Z" fill="black"/>
<path d="M62.2648 162.811C63.0236 162.356 63.1753 161.235 62.6734 160.535C62.1714 159.834 61.1908 159.554 60.3153 159.717C59.4398 159.881 58.6693 160.418 58.0856 161.071C58.646 160.056 58.8211 158.818 58.4359 157.733C58.0506 156.647 57.0817 155.76 55.9144 155.562C54.7003 155.351 53.4279 155.877 52.529 156.729C51.6302 157.581 51.0815 158.69 50.6846 159.834C50.9181 158.55 50.1009 157.231 48.8985 156.682C47.6962 156.134 46.202 156.285 45.0463 156.951C43.8906 157.616 43.0384 158.725 42.5481 159.939C42.7116 156.974 41.7193 153.974 39.8165 151.674C39.3729 151.137 38.8593 150.624 38.2289 150.308C36.8398 149.596 35.042 149.947 33.7229 150.799C32.4038 151.651 31.4466 152.958 30.5827 154.254C28.283 157.756 26.3802 161.9 27.2791 165.916C26.5787 165.204 25.5164 164.842 24.5008 164.982C23.4852 165.122 22.5513 165.753 22.061 166.628C21.8509 167.013 21.7225 167.469 21.8509 167.877C21.9326 168.146 22.1194 168.367 22.3178 168.578C22.9949 169.301 23.812 169.908 24.7109 170.352C24.1389 169.978 24.5125 168.986 25.1895 168.788C25.8666 168.589 26.567 168.939 27.104 169.348C27.641 169.757 28.1546 170.27 28.8083 170.469C29.1118 168.262 40.0383 164.772 40.0617 167.153C41.0306 165.484 42.2563 163.838 44.019 162.986C44.6027 162.706 45.2681 162.507 45.8984 162.624C46.7506 162.776 47.4043 163.465 47.7429 164.223C48.0814 164.982 48.1398 165.846 48.2098 166.675C49.2254 165.087 54.3268 164.924 54.0466 165.507C55.4007 163.803 57.4903 162.647 59.6966 162.402C60.0818 162.356 60.5021 162.344 60.8289 162.542C61.1558 162.741 61.3426 163.196 61.1091 163.5C61.9146 163.406 62.65 162.834 62.9185 162.099" fill="#76B82A"/>
<path d="M63.1633 161.247C62.8715 160.208 61.7625 159.612 60.7936 159.589C60.4667 159.566 60.1399 159.612 59.813 159.682C59.8247 159.566 59.848 159.449 59.8597 159.32C59.8947 158.433 59.743 157.464 59.1943 156.589C58.669 155.702 57.6767 155.036 56.6962 154.849C55.7156 154.639 54.7584 154.756 53.9062 155.036C53.054 155.305 52.2135 155.842 51.6182 156.437C51.4781 156.577 51.3613 156.729 51.2446 156.869C51.2446 156.869 51.2446 156.857 51.2329 156.846C50.7076 156.18 49.9255 155.678 49.155 155.445C48.3846 155.2 47.5908 155.176 46.8437 155.281C45.3611 155.48 43.9836 156.355 43.1315 157.499C43.1081 157.523 43.0965 157.546 43.0848 157.569C42.6295 155.865 41.9174 154.254 40.9952 152.795C40.5866 152.164 40.1664 151.534 39.6294 150.974C39.0924 150.425 38.4737 149.876 37.6799 149.608C36.8978 149.328 36.0223 149.316 35.2285 149.526C34.4347 149.748 33.7226 150.133 33.0689 150.589C31.7731 151.522 30.7575 152.678 29.8119 153.892C28.878 155.118 28.1076 156.484 27.5239 157.931C26.9636 159.39 26.5667 160.896 26.4383 162.496C26.3682 163.278 26.3799 164.095 26.4966 164.912C26.3566 164.865 26.2165 164.807 26.0647 164.772C25.5511 164.644 24.9791 164.562 24.4071 164.608C23.8467 164.667 23.2981 164.807 22.7844 165.087C22.2825 165.356 21.8155 165.776 21.5354 166.313C21.2669 166.85 21.1852 167.469 21.3019 168.006C21.5237 169.091 22.2708 169.897 23.1346 170.329C23.193 170.352 23.2514 170.34 23.2981 170.294C23.3448 170.235 23.3448 170.153 23.2981 170.107C22.6444 169.511 22.2358 168.671 22.2591 167.912C22.2591 167.142 22.7494 166.628 23.4031 166.406C23.73 166.289 24.1036 166.254 24.4538 166.278C24.804 166.29 25.1542 166.383 25.5161 166.523C26.2281 166.803 26.9169 167.293 27.6757 167.807C27.9558 167.994 28.3294 168.041 28.6679 167.9C29.1932 167.679 29.4384 167.06 29.2166 166.535L29.1816 166.453C28.2243 164.212 28.878 161.352 29.7536 158.772C30.1972 157.464 30.7575 156.192 31.4229 154.966C32.1116 153.752 32.8704 152.526 33.8627 151.592C34.8316 150.67 36.1624 150.017 37.3997 150.437C38.6488 150.834 39.5477 152.059 40.2481 153.273C41.6723 155.725 42.1392 158.643 41.7773 161.352C41.7773 161.352 41.7773 161.387 41.7773 161.398C41.719 161.877 42.0342 162.32 42.5011 162.414C43.0031 162.519 43.4817 162.192 43.5751 161.69L43.5984 161.55C43.7969 160.546 44.2288 159.601 44.8708 158.923C45.4895 158.223 46.295 157.838 47.1589 157.744C48.011 157.663 48.7815 157.966 49.12 158.492C49.4002 158.877 49.4819 159.355 49.4118 159.729C49.3068 159.939 49.2134 160.138 49.12 160.336V160.371C48.8165 160.99 49.0033 161.737 49.587 162.145C50.229 162.589 51.1162 162.426 51.5598 161.783C51.6065 161.713 51.6298 161.643 51.6765 161.585C51.6765 161.585 51.7349 161.468 51.7699 161.41C51.8166 161.317 51.875 161.211 51.9217 161.106C52.447 160.067 52.9723 159.134 53.6494 158.492C54.0463 158.118 54.3848 157.85 54.8634 157.674C55.3187 157.499 55.7973 157.429 56.1825 157.499C56.5678 157.569 56.8479 157.709 57.0697 158.001C57.3032 158.293 57.4549 158.76 57.4666 159.25C57.5133 160.231 56.9997 161.433 56.3693 162.659C56.3693 162.659 56.346 162.706 56.3226 162.729C56.0775 163.184 56.2292 163.768 56.6728 164.048C57.1398 164.34 57.7585 164.188 58.0503 163.721L58.1087 163.64C58.4705 163.044 58.8908 162.426 59.2293 161.702C59.6612 161.235 60.1982 160.92 60.8403 160.85C61.4706 160.78 62.1594 160.955 62.4396 161.515C62.7431 162.064 62.673 162.951 62.0193 163.348C61.9726 163.383 61.9376 163.441 61.9609 163.5C61.9843 163.57 62.0543 163.616 62.1244 163.593C62.5563 163.464 62.9415 163.103 63.1166 162.659C63.2917 162.215 63.3268 161.713 63.1867 161.223L63.1633 161.247Z" fill="black"/>
<path d="M77.59 200.939C86.1891 200.939 93.16 193.968 93.16 185.369C93.16 176.77 86.1891 169.799 77.59 169.799C68.9909 169.799 62.02 176.77 62.02 185.369C62.02 193.968 68.9909 200.939 77.59 200.939Z" fill="white"/>
<path d="M86.9 172.769C90.17 175.209 92.75 178.769 93.63 182.969C94.58 187.129 93.49 191.769 90.8 195.139C88.11 198.539 84.06 200.579 79.94 201.099C75.82 201.669 71.5 200.729 67.99 198.349C64.46 196.019 61.9 192.109 61.22 187.829C60.48 183.559 61.53 178.959 64.17 175.459C66.78 171.959 70.9 169.599 75.17 169.299C79.44 168.929 83.62 170.339 86.9 172.769ZM86.78 172.929C83.51 170.479 79.18 169.779 75.38 170.649C71.58 171.529 68.18 173.689 65.96 176.769C63.73 179.819 62.65 183.719 63.16 187.519C63.66 191.309 65.62 194.919 68.67 197.419C71.71 199.919 75.89 201.099 79.84 200.419C83.8 199.759 87.26 197.279 89.4 194.099C91.59 190.919 92.62 187.059 92.33 183.149C92.03 179.259 90.09 175.319 86.78 172.929Z" fill="black"/>
<path d="M76.26 191.219C76.24 191.169 76.23 191.109 76.22 191.059C76.14 190.379 76.82 190.289 77.32 190.249L77.26 190.099C76.76 189.099 76.84 187.719 76.84 186.639C76.84 185.269 76.95 183.889 77.16 182.529C76.89 182.979 76.52 183.369 76.09 183.669C75.88 183.819 75.57 183.929 75.38 183.749C74.96 183.349 75.82 182.309 76.06 181.999C76.52 181.419 77.06 180.859 77.28 180.139C77.38 179.799 77.42 179.419 77.66 179.179C78.24 178.599 78.96 179.209 79.22 179.759C79.54 180.439 79.69 181.319 79.69 182.079C79.69 183.469 79.57 184.849 79.46 186.229C79.35 187.509 79.4 188.899 79.03 190.139C79.01 190.199 78.99 190.269 79.01 190.329C79.06 190.529 79.35 190.499 79.52 190.599C79.91 190.849 79.48 191.319 79.2 191.419C79.03 191.469 78.85 191.479 78.67 191.489C78.07 191.509 77.47 191.529 76.87 191.549C76.76 191.549 76.66 191.549 76.56 191.519C76.42 191.469 76.32 191.359 76.27 191.219H76.26Z" fill="black"/>
<defs>
<linearGradient id="paint0_linear_2310_97333" x1="0" y1="100.63" x2="152.99" y2="100.63" gradientUnits="userSpaceOnUse">
<stop stop-color="#0ABBEF"/>
<stop offset="0.24" stop-color="#0D9ACF"/>
<stop offset="0.76" stop-color="#14598E"/>
<stop offset="1" stop-color="#174075"/>
</linearGradient>
<linearGradient id="paint1_linear_2310_97333" x1="0" y1="100.63" x2="152.99" y2="100.63" gradientUnits="userSpaceOnUse">
<stop stop-color="#0ABBEF"/>
<stop offset="0.24" stop-color="#0D9ACF"/>
<stop offset="0.76" stop-color="#14598E"/>
<stop offset="1" stop-color="#174075"/>
</linearGradient>
<linearGradient id="paint2_linear_2310_97333" x1="0" y1="100.63" x2="152.99" y2="100.63" gradientUnits="userSpaceOnUse">
<stop stop-color="#EC5F6C"/>
<stop offset="0.59" stop-color="#C0434D"/>
<stop offset="1" stop-color="#A7333C"/>
</linearGradient>
<linearGradient id="paint3_linear_2310_97333" x1="0" y1="100.63" x2="152.99" y2="100.63" gradientUnits="userSpaceOnUse">
<stop stop-color="#76B82A"/>
<stop offset="0.58" stop-color="#5B8D2B"/>
<stop offset="1" stop-color="#4C742C"/>
</linearGradient>
<linearGradient id="paint4_linear_2310_97333" x1="0" y1="100.63" x2="152.99" y2="100.63" gradientUnits="userSpaceOnUse">
<stop stop-color="#FFED00"/>
<stop offset="0.09" stop-color="#FDE204"/>
<stop offset="0.71" stop-color="#F2A120"/>
<stop offset="1" stop-color="#EE882C"/>
</linearGradient>
<linearGradient id="paint5_linear_2310_97333" x1="0" y1="100.63" x2="152.99" y2="100.63" gradientUnits="userSpaceOnUse">
<stop stop-color="#FFED00"/>
<stop offset="0.09" stop-color="#FDE204"/>
<stop offset="0.71" stop-color="#F2A120"/>
<stop offset="1" stop-color="#EE882C"/>
</linearGradient>
<linearGradient id="paint6_linear_2310_97333" x1="0" y1="100.63" x2="152.99" y2="100.63" gradientUnits="userSpaceOnUse">
<stop stop-color="#0ABBEF"/>
<stop offset="0.24" stop-color="#0D9ACF"/>
<stop offset="0.76" stop-color="#14598E"/>
<stop offset="1" stop-color="#174075"/>
</linearGradient>
</defs>
</svg>
