<?xml version="1.0" encoding="UTF-8"?>
<svg id="Layer_2" data-name="Layer 2" xmlns="http://www.w3.org/2000/svg" xmlns:xlink="http://www.w3.org/1999/xlink" viewBox="0 0 153 176.82">
  <defs>
    <style>
      .cls-1 {
        fill: url(#_Безымянный_градиент_10-2);
      }

      .cls-1, .cls-2, .cls-3, .cls-4, .cls-5, .cls-6, .cls-7, .cls-8, .cls-9, .cls-10 {
        stroke-width: 0px;
      }

      .cls-2 {
        fill: url(#_Безымянный_градиент_12);
      }

      .cls-3 {
        fill: url(#_Безымянный_градиент_4);
      }

      .cls-4 {
        fill: #000;
      }

      .cls-5 {
        fill: url(#_Безымянный_градиент_4-3);
      }

      .cls-6 {
        fill: #76b82a;
      }

      .cls-7 {
        fill: url(#_Безымянный_градиент_10);
      }

      .cls-8 {
        fill: url(#_Безымянный_градиент_4-2);
      }

      .cls-9 {
        fill: url(#_Безымянный_градиент_14);
      }

      .cls-10 {
        fill: #fff;
      }
    </style>
    <linearGradient id="_Безымянный_градиент_4" data-name="Безымянный градиент 4" x1="1.5" y1="138.39" x2="153" y2="138.39" gradientUnits="userSpaceOnUse">
      <stop offset="0" stop-color="#0abbef"/>
      <stop offset=".24" stop-color="#0d9acf"/>
      <stop offset=".76" stop-color="#14598e"/>
      <stop offset="1" stop-color="#174075"/>
    </linearGradient>
    <linearGradient id="_Безымянный_градиент_4-2" data-name="Безымянный градиент 4" x1="48.03" y1="39.72" x2="66.36" y2="39.72" xlink:href="#_Безымянный_градиент_4"/>
    <linearGradient id="_Безымянный_градиент_12" data-name="Безымянный градиент 12" x1="81.91" y1="39.72" x2="100.24" y2="39.72" gradientUnits="userSpaceOnUse">
      <stop offset="0" stop-color="#ec5f6c"/>
      <stop offset=".59" stop-color="#c0434d"/>
      <stop offset="1" stop-color="#a7333c"/>
    </linearGradient>
    <linearGradient id="_Безымянный_градиент_14" data-name="Безымянный градиент 14" x1="48.03" y1="76.03" x2="66.36" y2="76.03" gradientUnits="userSpaceOnUse">
      <stop offset="0" stop-color="#76b82a"/>
      <stop offset=".58" stop-color="#5b8d2b"/>
      <stop offset="1" stop-color="#4c742c"/>
    </linearGradient>
    <linearGradient id="_Безымянный_градиент_10" data-name="Безымянный градиент 10" x1="81.91" y1="76.03" x2="100.24" y2="76.03" gradientUnits="userSpaceOnUse">
      <stop offset="0" stop-color="#ffed00"/>
      <stop offset=".09" stop-color="#fde204"/>
      <stop offset=".71" stop-color="#f2a120"/>
      <stop offset="1" stop-color="#ee882c"/>
    </linearGradient>
    <linearGradient id="_Безымянный_градиент_10-2" data-name="Безымянный градиент 10" x1="47.87" y1="112.34" x2="66.2" y2="112.34" xlink:href="#_Безымянный_градиент_10"/>
    <linearGradient id="_Безымянный_градиент_4-3" data-name="Безымянный градиент 4" x1="81.75" y1="112.34" x2="100.08" y2="112.34" xlink:href="#_Безымянный_градиент_4"/>
  </defs>
  <g id="_1" data-name="1">
    <g id="_1-2" data-name="1">
      <g>
        <ellipse class="cls-3" cx="77.25" cy="138.39" rx="75.75" ry="22.25"/>
        <path class="cls-4" d="M153,138.39c0,1.74-.73,3.4-1.75,4.78-1.03,1.39-2.33,2.56-3.73,3.57-2.79,2.04-5.94,3.53-9.13,4.85-6.41,2.58-13.13,4.32-19.9,5.68-13.56,2.71-27.4,3.91-41.23,4.12-13.84.15-27.73-.64-41.44-3.06-6.84-1.27-13.65-2.87-20.22-5.45-3.26-1.33-6.5-2.83-9.46-4.97-1.48-1.05-2.89-2.3-4.06-3.86-1.16-1.53-2.06-3.51-2.07-5.65,0-2.14.91-4.12,2.07-5.66,1.17-1.56,2.58-2.8,4.06-3.86,2.96-2.14,6.2-3.64,9.46-4.97,6.56-2.59,13.38-4.18,20.22-5.46,13.71-2.43,27.6-3.21,41.44-3.06,13.84.21,27.68,1.42,41.23,4.13,6.77,1.36,13.49,3.1,19.9,5.68,3.19,1.31,6.34,2.8,9.13,4.85,1.4,1.01,2.7,2.18,3.73,3.57,1.03,1.38,1.75,3.04,1.75,4.78ZM153,138.39c-.01-1.74-.74-3.39-1.78-4.76-1.03-1.38-2.34-2.54-3.74-3.54-2.8-2.02-5.95-3.49-9.14-4.79-6.42-2.53-13.17-4.11-19.94-5.37-13.58-2.4-27.4-3.18-41.16-3.03-13.76.21-27.52,1.42-40.95,4.1-6.7,1.34-13.35,3.07-19.63,5.6-3.11,1.28-6.18,2.74-8.8,4.67-2.62,1.86-4.86,4.43-4.87,7.13,0,2.7,2.25,5.27,4.87,7.13,2.63,1.93,5.69,3.39,8.8,4.67,6.27,2.53,12.92,4.25,19.63,5.6,13.43,2.69,27.2,3.89,40.95,4.1,13.76.14,27.57-.63,41.16-3.04,6.77-1.26,13.52-2.84,19.94-5.37,3.19-1.29,6.34-2.76,9.14-4.79,1.4-1,2.71-2.16,3.74-3.54,1.03-1.37,1.76-3.02,1.78-4.76Z"/>
      </g>
      <g>
        <g>
          <path class="cls-6" d="M28.23,89.2c.26-2.67.84-5.34,1.84-7.83.68-1.68,1.77-4.74,3.59-5.49.99-.4,1.46.57,1.63,1.37.27,1.26.19,2.51-.08,3.76.4-1.83,2.51-4.28,4.54-4.1,2.54.22,1.88,3.62,1.07,5.08.49-.66.98-1.33,1.6-1.87s1.37-.96,2.19-1.04c1.45-.13,2.84.89,3.43,2.21.96,2.13.14,4.51-.87,6.45-2.8,5.38-7.71,9.66-13.49,11.5s-12.35,1.14-17.51-2.03c-2.86-1.76-5.37-4.42-6.08-7.7-.3-1.39-.26-2.9.39-4.17s1.98-2.24,3.41-2.2,2.8,1.25,2.78,2.67c.06-.81.22-1.77.95-2.14.54-.27,1.22-.1,1.68.28s.76.93,1.03,1.47c.98,2.03,1.64,4.22,1.94,6.46-.15-1.22-.24-2.49.18-3.64.45-1.21,1.66-2.3,3.03-2.07s2.26,1.74,2.7,2.96"/>
          <path class="cls-10" d="M16.56,90.11c.1-.5.2-1,.16-1.51s-.21-1.02-.59-1.36c-.18-.16-.4-.28-.63-.37-.46-.17-.99-.23-1.43-.03s-.77.72-.64,1.19c-.55-.25-1.25-.04-1.62.43s-.45,1.14-.25,1.71.65,1.03,1.18,1.32c-.23-.45-.46-.94-.43-1.44s.44-1.03.95-.99c.43.03.72.42.97.77-.08-.39-.09-.8.06-1.16s.48-.67.87-.71c.41-.03.8.24,1.03.6s.31.77.39,1.18"/>
          <path class="cls-10" d="M20.21,93.61c-.35-.24-.72-.48-1.14-.55s-.91.11-1.07.5c-.08.19-.07.4-.04.6.14.89.75,1.63,1.45,2.18-.39-.04-.73-.26-1.05-.49-.52-.38-1.02-.82-1.31-1.4s-.33-1.31.03-1.84c.27-.4.75-.64,1.23-.65s.96.21,1.28.57c.26.29.43.66.67.97"/>
          <path class="cls-10" d="M27.02,94.07c-.37-.44-.84-.85-1.41-.87-.11,0-.23,0-.33.05-.21.09-.36.29-.42.51s-.05.45,0,.68c.12.73.5,1.41,1.05,1.91-.1.09-.25.02-.36-.05-.66-.42-1.33-.9-1.7-1.59s-.36-1.65.22-2.17c.26-.23.6-.36.94-.41.2-.03.41-.04.6,0,.42.09.77.39,1.01.75s.37.77.5,1.18"/>
          <path class="cls-10" d="M31.61,94.05c.19-.42.44-.82.73-1.19.2-.25.43-.5.74-.61.42-.15.91,0,1.22.33s.46.77.47,1.21-.09.88-.23,1.3c.38-.61.78-1.24.9-1.95s-.1-1.53-.72-1.9c-.46-.28-1.07-.26-1.56-.02s-.85.67-1.1,1.16-.37,1.02-.47,1.55"/>
          <path class="cls-10" d="M39.73,88.63c.14-.33.29-.66.29-1.02s-.18-.74-.51-.86c-.22-.08-.48-.03-.7.04-.35.12-.69.33-.9.64.23-.71.41-1.45.4-2.2,0-.17-.02-.34-.09-.49-.13-.25-.43-.37-.71-.37s-.55.12-.79.26c-.64.36-1.18.89-1.55,1.53-.04-.6-.36-1.17-.85-1.51-.15-.1-.33-.19-.51-.16-.19.03-.33.19-.45.34-.47.63-.72,1.43-.67,2.22-.52-1.13-.15-2.6.83-3.36.28-.22.62-.39.98-.41s.74.11.96.39c.18-.4.6-.64,1.02-.79.39-.14.8-.21,1.21-.22.4-.01.83.05,1.15.29.26.19.42.49.54.79.27.7.31,1.49.1,2.22.21-.24.62-.24.88-.04s.36.54.35.86-.14.63-.29.91c-.18.35-.38.69-.62,1"/>
          <path class="cls-6" d="M18.84,64.96c-.64-.91-1.26-1.9-2.14-2.59-.74-.57-1.9-1.02-2.52-.32-.23.25-.31.59-.37.93-.87,5.55,5.53,10.72,10.66,10.71,2.35,0,4.62-1,6.44-2.48,2.79-2.27,5.71-6.11,4.27-9.89-.33-.87-1.25-1.76-2.08-1.33-.23.12-.41.33-.57.54-.63.84-1.11,1.78-1.41,2.78.4-1.09.8-2.25.54-3.37s-1.46-2.12-2.53-1.7c-.42.16-.75.5-1.03.85-.77.96-1.31,2.1-1.58,3.3.49-1.78.4-3.72-.25-5.46-.24-.64-.63-1.32-1.29-1.51-.71-.2-1.44.25-1.94.78-1.75,1.85-1.88,4.7-1.57,7.23-.19-.62-.41-1.28-.9-1.71s-1.35-.51-1.74.02c-.19.25-.23.58-.24.89-.03.92.15,1.84.53,2.67"/>
          <path class="cls-6" d="M25.98,45.25c-.13.95-.44,1.87-.93,2.69.19-.33.38-.66.68-.89s.73-.33,1.06-.14c.32.18.46.59.41.96s-.23.7-.43,1.01c-.36.56-.82,1.14-1.38,1.5-.53.35-1.29.44-1.94.44-.1,0-.2,0-.29,0-1.08-.05-2.22-.32-3.1-.98-.89-.66-1.57-1.62-1.81-2.71-.01-.05-.02-.11-.03-.16-.03-.17-.05-.34.02-.5.17-.41.77-.4,1.18-.21.41.19.77.48,1.04.84-.57-1.01-.85-2.19-.8-3.35.03-.64.28-1.41.91-1.51.52-.08.98.35,1.24.8.45.75.64,1.65.54,2.51.04-1.15.24-2.29.59-3.38.17-.54.44-1.12.97-1.31.46-.16.98.04,1.32.4s.5.83.62,1.3c.21.88.25,1.8.13,2.7"/>
          <path class="cls-10" d="M24.59,66c.13-.43.26-.88.26-1.33s-.16-.93-.52-1.21c-.34-.27-.82-.32-1.25-.23-.18.04-.36.1-.51.22-.15.11-.25.27-.32.44-.15.36-.16.79-.02,1.16s.43.68.79.85c-.12-.2-.22-.41-.26-.63s0-.47.13-.65c.24-.33.76-.36,1.09-.13s.51.64.54,1.04"/>
          <path class="cls-10" d="M27.26,66.41c-.13-.63-.02-1.31.34-1.84s.97-.9,1.61-.91,1.29.36,1.56.94c.2.41.2.9.09,1.35s-.32.86-.55,1.25c.15-.46.1-.98-.12-1.41s-.63-.76-1.09-.9c-.15-.05-.31-.07-.47-.05-.5.06-.82.54-1.08.98"/>
          <path class="cls-10" d="M22.56,69.54c-.08-.63-.31-1.26-.73-1.73s-1.07-.77-1.7-.69-1.22.58-1.31,1.21c-.08.53.18,1.06.53,1.47.34.4.79.74,1.3.85-.45-.43-.76-.99-.89-1.59-.05-.22-.05-.48.11-.63.08-.07.18-.1.28-.13.68-.16,1.44.05,1.95.54"/>
          <path class="cls-10" d="M25.33,70.77c.09-.38.14-.79.33-1.13s.61-.61.98-.47c.26.09.43.35.49.61s.03.54,0,.82c.2-.31.4-.63.48-.99s.02-.77-.24-1.03c-.25-.24-.62-.3-.96-.29-.28,0-.57.06-.79.24-.15.11-.25.27-.33.44-.25.54-.24,1.16-.18,1.75"/>
          <g>
            <path class="cls-4" d="M48.26,81.33c-.3-.76-.84-1.44-1.53-1.9-.68-.47-1.56-.71-2.4-.58-.85.14-1.59.58-2.2,1.13-.15.14-.28.29-.42.44.11-.49.16-1,.15-1.52-.03-.57-.19-1.19-.63-1.67-.44-.48-1.09-.67-1.68-.68-1.24,0-2.24.72-3.01,1.5-.29.31-.55.64-.79,1,0-.23,0-.45-.02-.68-.03-.46-.09-.9-.21-1.36-.13-.45-.3-.93-.74-1.28-.22-.17-.54-.27-.82-.23-.29.03-.51.16-.72.27-.42.24-.76.57-1.06.92-.59.71-1.01,1.51-1.38,2.31-.69,1.63-1.35,3.26-1.78,4.98-.22.88-.4,1.77-.54,2.66l-1.22-10.45h0s1.93-1.48,1.93-1.48l-2.12-.11h0s-.13-1.05-.13-1.05c1.4-.43,2.7-1.16,3.84-2.06,1.6-1.3,3.02-2.85,4-4.69.95-1.82,1.33-4.11.32-6.07-.29-.46-.69-.9-1.3-1.05-.3-.08-.65-.01-.92.15-.27.17-.45.4-.61.6-.07.1-.14.2-.21.3,0-.11.02-.21.01-.32-.05-1.11-.79-2.23-1.95-2.56-.58-.18-1.29.01-1.72.39-.45.37-.75.79-1.05,1.22-.05.08-.1.17-.15.25-.02-.58-.08-1.15-.21-1.71-.19-.73-.38-1.46-.86-2.16-.24-.33-.61-.66-1.07-.78-.09-.02-.17-.03-.26-.04l-.46-3.96c.23-.03.46-.07.69-.15.88-.31,1.43-1,1.89-1.66.22-.33.46-.69.57-1.15.11-.46,0-1.03-.44-1.38-.42-.3-.92-.21-1.28,0,.14-.48.22-.98.25-1.47.19-.88.21-1.82.03-2.72-.09-.45-.22-.92-.52-1.34-.3-.41-.81-.73-1.39-.7-.61.03-1.06.53-1.27.96-.23.45-.35.89-.49,1.33-.03.11-.04.22-.07.33-.01-.03-.02-.05-.04-.08-.21-.38-.49-.78-.95-1.04-.23-.13-.53-.2-.82-.14-.28.05-.56.22-.72.42-.34.42-.43.88-.47,1.32-.02.44.01.85.07,1.26.07.47.2.92.37,1.35-.04-.02-.07-.05-.1-.07-.37-.19-.85-.31-1.29-.06-.22.13-.33.41-.31.63.01.22.06.41.11.61.11.39.27.76.48,1.1.41.69.97,1.29,1.65,1.74.68.45,1.47.71,2.27.84.15.02.3.04.45.06l.1,1.07-1.96.8,2.07.58h0s.18,1.94.18,1.94c-.57.39-.98.92-1.32,1.46-.4.66-.66,1.39-.82,2.13-.21.99-.24,1.99-.18,2.97-.1-.14-.2-.26-.33-.38-.27-.24-.61-.39-.97-.42-.35-.03-.75.07-1,.35-.26.29-.31.66-.32.98,0,.32.01.65.06.96.09.64.28,1.25.56,1.83,0,.02.03.03.05.02.02,0,.03-.03.02-.05-.24-.58-.38-1.2-.43-1.82-.02-.31-.02-.62,0-.93.02-.3.1-.6.29-.78.38-.37,1.1-.23,1.47.15.41.4.59.99.76,1.59.03.11.14.18.25.17.13-.01.23-.13.22-.26h0c-.14-1.44-.15-2.89.17-4.25.17-.68.42-1.33.79-1.91.23-.36.51-.7.81-.97l.69,7.75c-.19-.17-.45-.29-.74-.28-.37,0-.74.31-.83.6-.11.3-.11.58-.05.83.1.51.41.96.83,1.18-.19-.43-.26-.84-.24-1.22.02-.19.04-.37.12-.48.07-.12.11-.13.19-.13.19-.03.44.2.62.57.1.19.17.4.25.62l.68,7.69c-.97.04-1.93-.1-2.86-.38-.96-.26-1.88-.68-2.74-1.18-.87-.49-1.66-1.12-2.4-1.78-.73-.68-1.35-1.47-1.88-2.31-.5-.86-.85-1.79-1.04-2.76-.04-.49-.13-.98-.07-1.47.02-.49.05-1.02.32-1.32.27-.32.76-.36,1.21-.22.46.13.9.38,1.28.7.77.64,1.35,1.5,1.98,2.31.01.02.03.02.05,0,.02-.01.02-.04.01-.05-.55-.86-1.08-1.76-1.85-2.48-.38-.36-.84-.67-1.36-.84-.26-.08-.54-.14-.84-.11-.29.03-.6.17-.81.39-1.05,2.07-.42,4.32.57,6.16,1.09,1.81,2.64,3.33,4.47,4.36,1.79,1.03,3.88,1.68,5.98,1.5l.35,4.01h0c-1.05.54-2.53,1.31-2.28,1.3.24-.02,1.54.56,2.48,1l.54,6.06c-.29-.15-.6-.25-.92-.27-.52-.04-1.05.11-1.5.37-.9.53-1.49,1.5-1.68,2.5-.03.14-.04.28-.06.41-.31-1.26-.72-2.5-1.26-3.69-.22-.49-.45-1-.81-1.46-.35-.46-.9-.86-1.54-.94-.65-.11-1.39.29-1.66.87-.05.09-.08.18-.12.27-.65-1.09-1.96-1.76-3.23-1.58-1.77.23-3.15,1.66-3.61,3.28-.48,1.63-.24,3.34.32,4.87.56,1.54,1.53,2.89,2.64,4.04,2.26,2.3,5.18,3.84,8.23,4.74,2.1.6,4.28.87,6.45.82l.72,8.1h0s-3.64,1.24-3.64,1.24c0,0,2.31,1.01,3.89,1.57h0s1.29,14.56,1.29,14.56h0s-3.9,1.33-3.9,1.33c0,0,2.59,1.14,4.16,1.66l1.43,16.19.29-.02c.81-1.61,1.89-3.08,3.18-4.34l-2.36-20.15h0s4.1-1.08,4.1-1.08c0,0-2.99-.88-4.35-1.13l-1.52-13.02h0s4.07-1.07,4.07-1.07c0,0-2.95-.87-4.33-1.13h0s-.34-2.92-.34-2.92c.1-.01.2-.02.3-.04,6.31-.98,11.91-4.88,15.44-10.07.88-1.3,1.69-2.66,2.25-4.15.54-1.47.82-3.17.18-4.71ZM25.5,56.28c.35.5.56,1.21.72,1.88.3,1.36.27,2.79-.1,4.12h0s0,.01,0,.02h0c-.04.21.08.42.29.48.22.06.44-.07.5-.29,0,0,0-.01,0-.02h0c.21-.92.58-1.81,1.1-2.6.26-.39.55-.79.87-1.06.32-.27.68-.36,1.06-.27.38.09.74.36,1,.7.27.34.4.74.44,1.19.07.9-.23,1.83-.56,2.76h0s0,.01,0,.02c-.05.16.03.33.19.39.16.06.34-.02.4-.18h0c.11-.3.21-.59.31-.9.26-.63.58-1.23.98-1.79.28-.42.59-.69,1-.6.4.08.79.42,1.05.81.47.82.67,1.86.62,2.85-.05,1-.37,1.98-.82,2.88-.91,1.82-2.35,3.33-3.95,4.58-1.11.85-2.38,1.49-3.71,1.84l-.41-3.53c.1.05.21.15.29.27.15.26.18.66.26,1.08.22-.35.41-.76.3-1.27-.05-.26-.21-.49-.42-.67-.13-.11-.32-.18-.52-.2l-1.51-12.97c.23.07.45.23.62.48ZM20.45,49.9c-.65-.38-1.22-.94-1.6-1.6-.19-.33-.33-.69-.43-1.05-.09-.36-.18-.79.1-.91.27-.13.66-.04.95.14.31.18.58.44.79.73.07.1.19.13.3.08.12-.06.16-.2.1-.32v-.02c-.35-.69-.57-1.43-.65-2.18-.07-.74-.06-1.59.32-2.02.18-.19.39-.22.63-.09.24.14.45.42.61.74.32.64.46,1.38.38,2.09h0s0,.02,0,.03c0,.22.15.41.37.43.23.02.43-.14.45-.37,0-.01,0-.02,0-.03h0c.02-.87.14-1.73.34-2.58.1-.42.21-.86.37-1.22.16-.36.41-.62.72-.66.32-.04.7.13.94.41.26.29.42.69.54,1.11.24.84.33,1.73.28,2.62-.16.72-.42,1.41-.76,2.05-.12.18-.22.37-.31.54h0c-.05.11-.02.24.08.3.1.06.23.02.29-.08,0,0,0,0,0,0h0c.21-.33.42-.64.68-.81.26-.17.6-.19.77-.04.18.14.26.47.17.76-.08.3-.28.61-.5.92-.43.6-.95,1.19-1.56,1.42-.17.06-.36.11-.55.15l-.16-1.4-1.25.09.12,1.4c-.12,0-.23,0-.35-.01-.75-.06-1.51-.24-2.17-.6ZM21.14,99.03c-2.94-.9-5.74-2.41-7.86-4.61-1.05-1.1-1.92-2.38-2.45-3.78-.52-1.4-.73-2.95-.32-4.35.37-1.38,1.56-2.55,2.94-2.74,1.34-.22,2.82.92,2.83,2.26h0c0,.2.15.35.34.37.2.01.37-.14.39-.34.04-.51.1-1.02.31-1.41.2-.39.56-.6.98-.55.43.04.83.3,1.13.67.3.37.53.84.76,1.32.9,1.9,1.52,3.95,1.83,6.04h0c.02.13.13.21.25.2.12-.02.21-.13.19-.25-.13-.97-.22-1.94-.05-2.88.16-.93.68-1.79,1.46-2.31.39-.25.85-.4,1.32-.38.33.01.66.11.96.27l.61,6.9c-.15-.16-.31-.31-.52-.41-.32-.17-.7-.24-1.11-.14-.45.12-.75.55-.82.94-.07.42.03.79.16,1.09.14.3.3.59.52.84.42.51.98.89,1.59,1.04-.45-.43-.82-.89-1.1-1.38-.25-.48-.5-1.07-.42-1.45.04-.2.14-.34.28-.39.17-.07.44-.06.67,0,.29.08.56.27.8.5l.52,5.86c-2.1,0-4.2-.31-6.21-.92ZM47.81,85.95c-.53,1.46-1.32,2.82-2.18,4.12-1.76,2.58-4.03,4.8-6.66,6.48-2.62,1.67-5.59,2.8-8.66,3.22-.1.01-.19.02-.29.03l-1.46-12.51c.19-1.08.44-2.16.76-3.21.5-1.66,1.18-3.29,1.91-4.87.38-.78.81-1.53,1.36-2.17.28-.31.59-.58.94-.77.36-.21.68-.26.92-.06.52.44.64,1.4.7,2.22.04.84-.05,1.69-.24,2.53h0c-.04.18.07.35.24.38.17.04.34-.07.38-.24h0c.23-.95.81-1.85,1.51-2.56.7-.71,1.61-1.27,2.53-1.28.46,0,.91.14,1.19.45.29.3.43.77.46,1.25.05.97-.21,2.01-.66,2.89h0c-.07.15-.03.32.1.41.14.1.34.07.44-.07.46-.63.91-1.26,1.45-1.77.54-.51,1.19-.91,1.9-1.04,1.43-.27,2.92.76,3.49,2.12.62,1.39.43,3.02-.1,4.46Z"/>
            <path class="cls-4" d="M39.28,86.52c-.25.02-.46.1-.66.2.05-.17.12-.34.16-.52.07-.35.1-.71.07-1.08-.04-.36-.1-.83-.58-1.15-.24-.15-.54-.15-.74-.11-.22.04-.38.11-.55.18-.33.15-.64.34-.92.57-.27.22-.51.48-.72.76-.07-.24-.18-.47-.37-.67-.23-.24-.58-.43-.96-.4-.38.03-.68.27-.86.52-.38.52-.46,1.11-.5,1.68-.03.57.02,1.13.11,1.68.02-.56.04-1.12.15-1.65.11-.52.28-1.06.6-1.43.32-.39.77-.37,1.04,0,.27.33.28.84.27,1.38,0,.14.08.27.21.32.17.07.37-.01.45-.19v-.02c.23-.55.61-1.03,1.07-1.4.23-.18.49-.33.76-.45.28-.13.54-.18.6-.12.1.04.21.29.23.57.03.29,0,.58-.04.88-.1.6-.33,1.19-.57,1.8h0s0,0,0,0c-.07.16,0,.34.15.42s.34,0,.42-.15v-.02s.01,0,.01,0c.13-.36.39-.69.72-.92.32-.23.77-.34.94-.1.19.27.18.77.05,1.17-.13.42-.36.82-.59,1.21.3-.34.59-.7.79-1.14.18-.43.34-.93.08-1.47-.17-.28-.53-.38-.79-.35Z"/>
            <path class="cls-4" d="M15.42,87.53c-.35-.11-.79-.12-1.15.23-.18.19-.23.41-.26.56-.03.15-.06.31-.08.47,0,.08,0,.16,0,.24-.04-.03-.08-.07-.12-.1-.24-.16-.64-.38-1.08-.21-.41.17-.58.52-.66.84-.15.64.05,1.27.38,1.74.35.47.8.81,1.28,1.07-.38-.39-.76-.79-.97-1.26-.22-.45-.28-.97-.13-1.39.07-.2.22-.36.33-.38.09-.03.25.03.44.17.35.27.62.68.69,1.12h0s0,.02,0,.03h0c.05.2.24.31.44.28.21-.04.34-.24.3-.45,0-.01,0-.02-.01-.03h0c-.14-.52-.21-1.06-.16-1.6.02-.26.06-.6.11-.64.05-.09.28-.15.48-.1.42.09.82.53.98,1.04.2.52.22,1.12.38,1.69.02-.59.08-1.17,0-1.79-.11-.61-.47-1.27-1.19-1.53Z"/>
            <path class="cls-4" d="M33.57,91.69c-.52,0-.92.29-1.18.57-.26.3-.46.6-.63.92-.34.64-.55,1.36-.56,2.07.32-.64.66-1.22,1.06-1.75.39-.51.88-1.09,1.28-1.05.4,0,.81.56.88,1.15.1.61-.07,1.27-.29,1.95.49-.5.88-1.19.89-1.98.01-.39-.09-.8-.31-1.17-.23-.35-.61-.68-1.14-.71Z"/>
            <path class="cls-4" d="M18.84,93.28c.41-.08.95.25,1.49.37-.2-.22-.41-.41-.63-.6-.21-.19-.52-.35-.87-.37-.36-.04-.77.16-1,.44-.23.29-.34.64-.34,1.01.04.72.47,1.26.91,1.64.45.39,1,.65,1.58.72-.45-.36-.83-.73-1.15-1.14-.31-.41-.57-.85-.57-1.25-.01-.39.21-.78.58-.83Z"/>
            <path class="cls-4" d="M28.7,65.06c.21-.04.45,0,.65.1.41.19.68.68.75,1.22.07.54-.07,1.15-.24,1.77.45-.46.8-1.06.84-1.78.05-.7-.26-1.52-1.01-1.89-.36-.17-.77-.24-1.17-.12-.41.12-.72.42-.89.72-.34.59-.53,1.22-.55,1.87.32-.56.65-1.08,1.03-1.52.19-.2.38-.35.59-.37Z"/>
            <path class="cls-4" d="M20.5,68.53c.24-.02.5.03.75.13.5.19.94.61,1.37,1.08-.15-.61-.49-1.23-1.09-1.61-.3-.19-.65-.3-1.03-.32-.2,0-.36,0-.6.1-.12.05-.27.16-.35.31-.08.14-.1.28-.11.39.02.77.33,1.42.83,1.9.5.48,1.19.73,1.82.66-.59-.25-1.05-.61-1.38-1.06-.32-.43-.51-1-.51-1.47,0-.04,0-.05,0-.05.05-.02.2-.05.3-.06Z"/>
          </g>
        </g>
        <rect class="cls-10" x="38.65" y="11.94" width="73.03" height="123.22"/>
        <rect class="cls-10" x="38.65" y="11.94" width="73.04" height="6.61"/>
        <rect class="cls-10" x="37.08" y="13" width="76.19" height="1.09"/>
        <path class="cls-4" d="M113.32,14.14c.02-.36.05-.75.07-1.14,0-.06-.05-.12-.11-.12h0c-.44-.02-.87-.03-1.31-.04l.03-.9h0c0-.16-.12-.29-.28-.3h-.02c-6.09-.16-12.17-.3-18.26-.37-6.09-.1-12.17-.15-18.26-.15-6.09-.02-12.17.08-18.26.11-1.47.01-2.94.04-4.41.05-4.61-.03-9.23-.05-13.85-.08h0c-.4,0-.73.33-.73.73h0s0,.63,0,.63c-.28,0-.56.01-.84.02h-.02c-.23,0-.41.19-.4.42l.02,1.09h0c0,.23.18.4.4.4.28,0,.56-.01.84-.02l-.06,28.27v15.4s.04,15.4.04,15.4l.13,30.8.21,30.8h0c0,.24.19.42.42.42l18.26-.13,18.26-.05,18.26.05c6.09,0,12.17.09,18.26.14h0c.23,0,.42-.18.42-.42h0c.07-10.3.22-20.62.22-30.93l.02-15.48-.07-15.45-.07-15.44-.13-15.38-.27-25.32.11-2.99c.47-.01.95-.02,1.41-.04ZM113.15,13.12l.06.91c-.44-.01-.86-.02-1.3-.03l.03-.84c.4-.01.81-.02,1.21-.04ZM56.12,13.72c1.49.01,2.99.02,4.48.04l-4.53.08-4.75.02-4.75-.03c-2.39,0-4.79-.05-7.18-.09v-.27c5.58.12,11.15.21,16.73.25ZM111.44,13.18l.03.81c-5.77-.17-11.46-.28-17.11-.38,5.69-.1,11.39-.24,17.08-.43ZM99.85,12.51c3.85-.07,7.7-.16,11.55-.26l.02.58c-3.86-.13-7.72-.23-11.57-.32ZM39.4,14.45c2.41-.05,4.82-.09,7.23-.09l4.77-.03,4.78.02,19.25.34c6.42.06,12.8-.01,19.13-.11,5.69-.1,11.35-.22,16.92-.38l.11,2.82-.02,1.48-9.25-.24-9.21-.18c-6.1-.08-12.17-.17-18.2-.15-6.02.03-12.01.2-18.06.32-5.8.12-11.63.07-17.45.02v-3.81ZM37.48,13.7v-.27c.15,0,.29,0,.43,0v.27c-.14,0-.29,0-.43,0ZM111.05,104.48c0,10.08.14,20.16.21,30.26-5.94.05-11.89.13-17.83.13l-18.26.05-18.26-.05-17.84-.13.21-30.39.13-30.8.05-15.4v-15.4s-.06-23.9-.06-23.9c5.85-.06,11.69-.11,17.57.02,6.13.12,12.31.28,18.46.32,6.15.02,12.25-.07,18.32-.15l9.05-.18,8.76-.24-.25,24.39-.13,15.42-.07,15.37-.07,15.36.02,15.33Z"/>
        <path class="cls-4" d="M114.52,8.53h-.02c-3.26-.11-6.51-.18-9.77-.25-3.26-.08-6.51-.14-9.77-.17l-9.77-.13-7.37-.04c.13-1.13.24-2.32.3-3.54.02-.34-.24-.63-.58-.65h-.07c-1.25-.08-2.5-.13-3.75-.15-.62-.02-1.25-.03-1.87-.02-.62,0-1.25,0-1.87.03l-3.75.12c-1.25.04-2.5.15-3.75.25h-.06c-.21.02-.37.21-.36.42.07,1,.15,2,.17,3,0,.2,0,.39,0,.59-.63,0-1.26,0-1.89.01.06-.72.12-1.46.17-2.21.13-1.61.23-3.29.28-4.97.01-.38-.29-.7-.67-.72h-.05c-1.47-.06-2.94-.08-4.42-.1-1.47,0-2.94,0-4.42.05l-4.42.11c-1.47.05-2.94.15-4.42.24h-.05c-.22.02-.38.2-.37.42.09,1.59.18,3.19.18,4.78.01.8,0,1.59-.02,2.39,0,.07,0,.15-.01.22-1.94.03-3.87.07-5.81.11h-.01c-.23,0-.41.19-.41.42l.07,4.25h0c0,.2.16.35.35.35,6.54-.11,13.05-.15,19.59-.06,6.55.1,13.15.28,19.74.33,6.58.03,13.11-.04,19.61-.13,6.48-.12,12.94-.23,19.27-.43l.17-4.31h0c0-.12-.09-.22-.2-.22Z"/>
        <rect class="cls-10" x="46.17" y="26.4" width="21.97" height="26.65"/>
        <path class="cls-4" d="M68.14,53.05l-10.92.16-11.05.12c-.15,0-.27-.12-.27-.27h0s0,0,0,0c-.09-8.88-.07-17.77-.11-26.65,0-.21.17-.38.38-.38h0l21.97.07h0c.17,0,.31.14.31.31h0s-.13,13.4-.13,13.4l-.18,13.25ZM68.14,53.05l-.18-13.4-.13-13.25.32.32-21.97.07.38-.38c-.04,8.88-.02,17.77-.11,26.65l-.27-.27,10.92.12,11.05.16Z"/>
        <rect class="cls-8" x="48.03" y="28.22" width="18.33" height="23"/>
        <path class="cls-4" d="M66.39,51.25c-2.97.1-6.02.17-9.08.23-3.08.03-6.18.1-9.27.07-.18,0-.33-.15-.33-.33,0-3.83.15-7.67.19-11.5.06-3.83,0-7.67-.07-11.5,0-.11.09-.21.2-.21h0c3.06-.07,6.11-.11,9.17-.14,3.06-.01,6.11-.06,9.17-.05.22,0,.4.18.4.4,0,3.88-.03,7.77-.11,11.62l-.12,5.75-.14,5.66ZM66.34,51.19l-.26-11.59c-.08-3.82-.11-7.59-.11-11.38l.4.4c-3.06.01-6.11-.04-9.17-.05-3.06-.03-6.11-.07-9.17-.14l.21-.21c-.07,3.83-.12,7.67-.07,11.5.04,3.83.19,7.67.19,11.5l-.33-.33c3.01-.03,6.03.04,9.06.07l9.25.23Z"/>
        <path class="cls-4" d="M66.36,33.68v-5.46h-18.33v7.44c4.22-1.16,10.28-2.17,18.33-1.98Z"/>
        <rect class="cls-10" x="56.33" y="26.48" width="1.74" height="23.92"/>
        <path class="cls-4" d="M56.3,50.43c-.1-1.9-.15-3.87-.21-5.85-.02-2-.09-3.98-.06-6.02,0-2.02.1-4.07.15-6.08.04-2.01.04-4.01-.01-6.01,0-.09.07-.16.15-.16h0s1.74-.05,1.74-.05c.11,0,.21.08.21.2h0c.07,2.01.12,4,.15,5.99.02,1.99.06,3.99.05,5.98,0,1.99-.03,3.99-.08,5.98-.04,1.99-.11,3.99-.2,5.98h0c0,.08-.06.13-.13.13h0s-1.77-.1-1.77-.1ZM56.35,50.38l1.71-.1-.13.13c-.09-1.99-.16-3.99-.2-5.98-.05-1.99-.08-3.99-.08-5.98,0-1.99.04-3.99.05-5.98.03-1.99.08-3.99.15-5.98l.21.21-1.74-.05.16-.16c-.05,1.98-.05,3.98-.01,5.95.05,1.98.15,3.92.15,5.88.03,1.95-.04,3.96-.06,5.94-.06,2.01-.11,4.03-.21,6.12Z"/>
        <rect class="cls-10" x="45.13" y="25.47" width="23.92" height="1.74"/>
        <path class="cls-4" d="M69.08,27.23c-1.9.1-3.87.15-5.85.21-2,.02-3.98.09-6.02.06-2.02,0-4.07-.1-6.08-.15-2.01-.04-4.01-.04-6.01.01-.09,0-.16-.07-.16-.15h0s-.05-1.75-.05-1.75c0-.11.08-.21.2-.21h.01c1.99-.07,3.99-.12,5.98-.15,1.99-.02,3.99-.06,5.98-.05,1.99,0,3.99.03,5.98.08,1.99.04,3.99.11,5.98.2h.01c.07,0,.12.06.11.13h0s-.1,1.77-.1,1.77ZM69.02,27.18l-.1-1.71.13.13c-1.99.09-3.99.16-5.98.2-1.99.05-3.99.08-5.98.08-1.99,0-3.99-.04-5.98-.05-1.99-.03-3.99-.08-5.98-.15l.21-.21-.05,1.74-.16-.16c1.98.05,3.98.05,5.95.01,1.98-.05,3.92-.15,5.88-.15,1.95-.03,3.96.04,5.94.06,2.01.06,4.03.11,6.12.21Z"/>
        <rect class="cls-10" x="45.13" y="50.61" width="23.92" height="2.73"/>
        <path class="cls-4" d="M69.06,50.43h-.02c-1.99-.07-3.99-.14-5.98-.17-1.99-.05-3.99-.07-5.98-.07-1.99,0-3.99.04-5.98.06-1.99.03-3.99.08-5.98.14h-.01c-.11,0-.2.1-.2.21l.07,2.73h0c0,.08.06.14.14.14,2-.03,4-.03,6.01.03,2.01.05,4.06.15,6.08.14,2.03.02,4.02-.05,6.01-.07,1.98-.06,3.95-.11,5.85-.21l.15-2.76h0c0-.09-.07-.17-.16-.17ZM62.91,53.1c-1.99-.02-3.99-.09-5.95-.07-1.97-.01-3.91.09-5.89.14-1.92.05-3.87.06-5.8.03l.06-2.37c1.93.06,3.85.11,5.78.14,1.99.02,3.99.06,5.98.06,1.99,0,3.99-.02,5.98-.07,1.94-.03,3.88-.09,5.82-.16l.14,2.52c-2.08-.1-4.1-.15-6.11-.21Z"/>
        <rect class="cls-10" x="80.05" y="26.4" width="21.97" height="26.65"/>
        <path class="cls-4" d="M102.02,53.05l-10.92.16-11.05.12c-.15,0-.27-.12-.27-.27h0s0,0,0,0c-.09-8.88-.07-17.77-.11-26.65,0-.21.17-.38.38-.38h0l21.97.07h0c.17,0,.31.14.31.31h0s-.13,13.4-.13,13.4l-.18,13.25ZM102.02,53.05l-.18-13.4-.13-13.25.32.32-21.97.07.38-.38c-.04,8.88-.02,17.77-.11,26.65l-.27-.27,10.92.12,11.05.16Z"/>
        <rect class="cls-2" x="81.91" y="28.22" width="18.33" height="23"/>
        <path class="cls-4" d="M100.26,51.25c-2.97.1-6.02.17-9.08.23-3.08.03-6.18.1-9.27.07-.18,0-.33-.15-.33-.33,0-3.83.15-7.67.19-11.5.06-3.83,0-7.67-.07-11.5,0-.11.09-.21.2-.21h0c3.06-.07,6.11-.11,9.17-.14,3.06-.01,6.11-.06,9.17-.05.22,0,.4.18.4.4,0,3.88-.03,7.77-.11,11.62l-.12,5.75-.14,5.66ZM100.21,51.19l-.26-11.59c-.08-3.82-.11-7.59-.11-11.38l.4.4c-3.06.01-6.11-.04-9.17-.05-3.06-.03-6.11-.07-9.17-.14l.21-.21c-.07,3.83-.12,7.67-.07,11.5.04,3.83.19,7.67.19,11.5l-.33-.33c3.01-.03,6.03.04,9.06.07l9.25.23Z"/>
        <path class="cls-4" d="M100.24,33.68v-5.46h-18.33v7.44c4.22-1.16,10.28-2.17,18.33-1.98Z"/>
        <rect class="cls-10" x="90.2" y="26.48" width="1.74" height="23.92"/>
        <path class="cls-4" d="M90.18,50.43c-.1-1.9-.15-3.87-.21-5.85-.02-2-.09-3.98-.06-6.02,0-2.02.1-4.07.15-6.08.04-2.01.04-4.01-.01-6.01,0-.09.07-.16.15-.16h0s1.74-.05,1.74-.05c.11,0,.21.08.21.2h0c.07,2.01.12,4,.15,5.99.02,1.99.06,3.99.05,5.98,0,1.99-.03,3.99-.08,5.98-.04,1.99-.11,3.99-.2,5.98h0c0,.08-.06.13-.13.13h0s-1.77-.1-1.77-.1ZM90.23,50.38l1.71-.1-.13.13c-.09-1.99-.16-3.99-.2-5.98-.05-1.99-.08-3.99-.08-5.98,0-1.99.04-3.99.05-5.98.03-1.99.08-3.99.15-5.98l.21.21-1.74-.05.16-.16c-.05,1.98-.05,3.98-.01,5.95.05,1.98.15,3.92.15,5.88.03,1.95-.04,3.96-.06,5.94-.06,2.01-.11,4.03-.21,6.12Z"/>
        <rect class="cls-10" x="79" y="25.47" width="23.92" height="1.74"/>
        <path class="cls-4" d="M102.95,27.23c-1.9.1-3.87.15-5.85.21-2,.02-3.98.09-6.02.06-2.02,0-4.07-.1-6.08-.15-2.01-.04-4.01-.04-6.01.01-.09,0-.16-.07-.16-.15h0s-.05-1.75-.05-1.75c0-.11.08-.21.2-.21h.01c1.99-.07,3.99-.12,5.98-.15,1.99-.02,3.99-.06,5.98-.05,1.99,0,3.99.03,5.98.08,1.99.04,3.99.11,5.98.2h.01c.07,0,.12.06.11.13h0s-.1,1.77-.1,1.77ZM102.9,27.18l-.1-1.71.13.13c-1.99.09-3.99.16-5.98.2-1.99.05-3.99.08-5.98.08-1.99,0-3.99-.04-5.98-.05-1.99-.03-3.99-.08-5.98-.15l.21-.21-.05,1.74-.16-.16c1.98.05,3.98.05,5.95.01,1.98-.05,3.92-.15,5.88-.15,1.95-.03,3.96.04,5.94.06,2.01.06,4.03.11,6.12.21Z"/>
        <rect class="cls-10" x="79" y="50.61" width="23.92" height="2.73"/>
        <path class="cls-4" d="M102.94,50.43h-.02c-1.99-.07-3.99-.14-5.98-.17-1.99-.05-3.99-.07-5.98-.07-1.99,0-3.99.04-5.98.06-1.99.03-3.99.08-5.98.14h-.01c-.11,0-.2.1-.2.21l.07,2.73h0c0,.08.06.14.14.14,2-.03,4-.03,6.01.03,2.01.05,4.06.15,6.08.14,2.03.02,4.02-.05,6.01-.07,1.98-.06,3.95-.11,5.85-.21l.15-2.76h0c0-.09-.07-.17-.16-.17ZM96.78,53.1c-1.99-.02-3.99-.09-5.95-.07-1.97-.01-3.91.09-5.89.14-1.92.05-3.87.06-5.8.03l.06-2.37c1.93.06,3.85.11,5.78.14,1.99.02,3.99.06,5.98.06,1.99,0,3.99-.02,5.98-.07,1.94-.03,3.88-.09,5.82-.16l.14,2.52c-2.08-.1-4.1-.15-6.11-.21Z"/>
        <rect class="cls-10" x="46.17" y="62.7" width="21.97" height="26.65"/>
        <path class="cls-4" d="M68.15,62.39h0s-21.97-.07-21.97-.07h0c-.21,0-.38.17-.38.38.04,8.88.02,17.77.11,26.65h0c0,.16.12.28.27.27l11.05-.12,10.92-.16-11.05-.16-10.65-.11c.09-8.67.07-17.33.11-26l21.28-.07.13,12.93.18,13.4.18-13.25.13-13.4h0c0-.17-.14-.31-.31-.32Z"/>
        <rect class="cls-9" x="48.03" y="64.53" width="18.33" height="23"/>
        <path class="cls-4" d="M66.36,64.13c-3.06-.01-6.11.04-9.17.05-3.06.03-6.11.07-9.17.14h0c-.11,0-.2.1-.2.21.07,3.83.12,7.67.07,11.5-.04,3.83-.19,7.67-.19,11.5,0,.18.15.33.33.33,3.1.03,6.19-.04,9.27-.07,3.07-.07,6.12-.14,9.08-.23l.14-5.66.12-5.75c.08-3.85.11-7.74.11-11.62,0-.22-.18-.4-.4-.4ZM57.09,87.27c-2.92-.03-5.82-.09-8.73-.07,0-3.72-.15-7.45-.19-11.17-.05-3.76,0-7.52.06-11.29,2.99.06,5.97.11,8.96.14,2.92.01,5.84.06,8.77.05,0,3.65.03,7.3.11,10.98l.26,11.59-9.25-.23Z"/>
        <path class="cls-4" d="M66.36,69.99v-5.46h-18.33v7.44c4.22-1.16,10.28-2.17,18.33-1.98Z"/>
        <rect class="cls-10" x="56.33" y="62.79" width="1.74" height="23.92"/>
        <path class="cls-4" d="M58.42,68.77c-.03-1.99-.08-3.99-.15-5.98h0c0-.13-.1-.21-.21-.21l-1.74.05h0c-.09,0-.16.07-.15.16.05,2,.05,4,.01,6.01-.05,2.01-.15,4.05-.15,6.08-.03,2.03.04,4.02.06,6.02.06,1.98.11,3.95.21,5.85l1.77.1h0c.07,0,.12-.05.13-.11h0c.09-2.01.16-4,.2-5.99.05-1.99.08-3.99.08-5.98,0-1.99-.04-3.99-.05-5.98ZM56.48,68.74c-.04-1.92-.04-3.86.01-5.79l1.36.04c-.07,1.93-.12,3.85-.14,5.78-.02,1.99-.06,3.99-.05,5.98,0,1.99.03,3.99.08,5.98.04,1.95.1,3.91.2,5.86l-1.58.09c.1-2.09.15-4.1.21-6.12.02-1.99.09-3.99.06-5.94,0-1.96-.1-3.91-.15-5.88Z"/>
        <rect class="cls-10" x="45.13" y="61.78" width="23.92" height="1.74"/>
        <path class="cls-4" d="M69.06,61.65h-.01c-1.99-.1-3.99-.16-5.98-.2-1.99-.05-3.99-.08-5.98-.08-1.99,0-3.99.04-5.98.05-1.99.03-3.99.08-5.98.15h-.01c-.11,0-.2.1-.2.21l.05,1.74h0c0,.09.07.16.16.16,2-.05,4-.05,6.01-.01,2.01.05,4.05.15,6.08.15,2.03.03,4.02-.04,6.02-.06,1.98-.06,3.95-.11,5.85-.21l.1-1.77h0c0-.07-.05-.12-.11-.13ZM62.91,63.28c-1.99-.02-3.99-.09-5.94-.06-1.96,0-3.91.1-5.88.15-1.92.04-3.86.04-5.79-.01l.04-1.36c1.93.07,3.85.12,5.78.14,1.99.02,3.99.06,5.98.05,1.99,0,3.99-.03,5.98-.08,1.95-.04,3.91-.1,5.86-.2l.09,1.58c-2.09-.1-4.1-.15-6.12-.21Z"/>
        <rect class="cls-10" x="45.13" y="86.92" width="23.92" height="2.73"/>
        <path class="cls-4" d="M69.06,86.74h-.02c-1.99-.07-3.99-.14-5.98-.17-1.99-.05-3.99-.07-5.98-.07-1.99,0-3.99.04-5.98.06-1.99.03-3.99.08-5.98.14h-.01c-.11,0-.2.1-.2.21l.07,2.73h0c0,.08.06.14.14.14,2-.03,4-.03,6.01.03,2.01.05,4.06.15,6.08.14,2.03.02,4.02-.05,6.01-.07,1.98-.06,3.95-.11,5.85-.21l.15-2.76h0c0-.09-.07-.17-.16-.17ZM62.91,89.41c-1.99-.02-3.99-.09-5.95-.07-1.97-.01-3.91.09-5.89.14-1.92.05-3.87.06-5.8.03l.06-2.37c1.93.06,3.85.11,5.78.14,1.99.02,3.99.06,5.98.06,1.99,0,3.99-.02,5.98-.07,1.94-.03,3.88-.09,5.82-.16l.14,2.52c-2.08-.1-4.1-.15-6.11-.21Z"/>
        <rect class="cls-10" x="80.05" y="62.7" width="21.97" height="26.65"/>
        <path class="cls-4" d="M102.02,62.39h0s-21.97-.07-21.97-.07h0c-.21,0-.38.17-.38.38.04,8.88.02,17.77.11,26.65h0c0,.16.12.28.27.27l11.05-.12,10.92-.16-11.05-.16-10.65-.11c.09-8.67.07-17.33.11-26l21.28-.07.13,12.93.18,13.4.18-13.25.13-13.4h0c0-.17-.14-.31-.31-.32Z"/>
        <rect class="cls-7" x="81.91" y="64.53" width="18.33" height="23"/>
        <path class="cls-4" d="M100.24,64.13c-3.06-.01-6.11.04-9.17.05-3.06.03-6.11.07-9.17.14h0c-.11,0-.2.1-.2.21.07,3.83.12,7.67.07,11.5-.04,3.83-.19,7.67-.19,11.5,0,.18.15.33.33.33,3.1.03,6.19-.04,9.27-.07,3.07-.07,6.12-.14,9.08-.23l.14-5.66.12-5.75c.08-3.85.11-7.74.11-11.62,0-.22-.18-.4-.4-.4ZM90.96,87.27c-2.92-.03-5.82-.09-8.73-.07,0-3.72-.15-7.45-.19-11.17-.05-3.76,0-7.52.06-11.29,2.99.06,5.97.11,8.96.14,2.92.01,5.84.06,8.77.05,0,3.65.03,7.3.11,10.98l.26,11.59-9.25-.23Z"/>
        <path class="cls-4" d="M100.24,69.99v-5.46h-18.33v7.44c4.22-1.16,10.28-2.17,18.33-1.98Z"/>
        <rect class="cls-10" x="90.2" y="62.79" width="1.74" height="23.92"/>
        <path class="cls-4" d="M92.3,68.77c-.03-1.99-.08-3.99-.15-5.98h0c0-.13-.1-.21-.21-.21l-1.74.05h0c-.09,0-.16.07-.15.16.05,2,.05,4,.01,6.01-.05,2.01-.15,4.05-.15,6.08-.03,2.03.04,4.02.06,6.02.06,1.98.11,3.95.21,5.85l1.77.1h0c.07,0,.12-.05.13-.11h0c.09-2.01.16-4,.2-5.99.05-1.99.08-3.99.08-5.98,0-1.99-.04-3.99-.05-5.98ZM90.23,86.69c.1-2.09.15-4.1.21-6.12.02-1.99.09-3.99.06-5.94,0-1.96-.1-3.91-.15-5.88-.04-1.92-.04-3.86.01-5.79l1.36.04c-.07,1.93-.12,3.85-.14,5.78-.02,1.99-.06,3.99-.05,5.98,0,1.99.03,3.99.08,5.98.04,1.95.1,3.91.2,5.86l-1.58.09Z"/>
        <rect class="cls-10" x="79" y="61.78" width="23.92" height="1.74"/>
        <path class="cls-4" d="M102.94,61.65h-.01c-1.99-.1-3.99-.16-5.98-.2-1.99-.05-3.99-.08-5.98-.08-1.99,0-3.99.04-5.98.05-1.99.03-3.99.08-5.98.15h-.01c-.11,0-.2.1-.2.21l.05,1.74h0c0,.09.07.16.16.16,2-.05,4-.05,6.01-.01,2.01.05,4.05.15,6.08.15,2.03.03,4.02-.04,6.02-.06,1.98-.06,3.94-.11,5.85-.21l.1-1.77h0c0-.07-.05-.12-.11-.13ZM96.78,63.28c-1.99-.02-3.99-.09-5.94-.06-1.96,0-3.91.1-5.88.15-1.92.04-3.86.04-5.79-.01l.04-1.36c1.93.07,3.85.12,5.78.14,1.99.02,3.99.06,5.98.05,1.99,0,3.99-.03,5.98-.08,1.95-.04,3.91-.1,5.86-.2l.09,1.58c-2.09-.1-4.1-.15-6.12-.21Z"/>
        <rect class="cls-10" x="79" y="86.92" width="23.92" height="2.73"/>
        <path class="cls-4" d="M102.94,86.74h-.02c-1.99-.07-3.99-.14-5.98-.17-1.99-.05-3.99-.07-5.98-.07-1.99,0-3.99.04-5.98.06-1.99.03-3.99.08-5.98.14h-.01c-.11,0-.2.1-.2.21l.07,2.73h0c0,.08.06.14.14.14,2-.03,4-.03,6.01.03,2.01.05,4.06.15,6.08.14,2.03.02,4.02-.05,6.01-.07,1.98-.06,3.95-.11,5.85-.21l.15-2.76h0c0-.09-.07-.17-.16-.17ZM96.78,89.41c-1.99-.02-3.99-.09-5.95-.07-1.97-.01-3.91.09-5.89.14-1.92.05-3.87.06-5.8.03l.06-2.37c1.93.06,3.85.11,5.78.14,1.99.02,3.99.06,5.98.06,1.99,0,3.99-.02,5.98-.07,1.94-.03,3.88-.09,5.82-.16l.14,2.52c-2.08-.1-4.1-.15-6.11-.21Z"/>
        <rect class="cls-10" x="46.01" y="99.01" width="21.97" height="26.65"/>
        <path class="cls-4" d="M67.99,98.7h0l-21.97-.07h0c-.21,0-.38.17-.38.38.04,8.88.02,17.77.11,26.65h0c0,.16.12.28.27.27l11.05-.12,10.92-.16-11.05-.16-10.65-.11c.09-8.67.07-17.33.11-26l21.28-.07.13,12.93.18,13.4.18-13.25.13-13.4h0c0-.17-.14-.31-.31-.32Z"/>
        <rect class="cls-1" x="47.87" y="100.84" width="18.33" height="23"/>
        <path class="cls-4" d="M66.23,123.87c-2.97.1-6.02.17-9.08.23-3.08.03-6.18.1-9.27.07-.18,0-.33-.15-.33-.33,0-3.83.15-7.67.19-11.5.06-3.83,0-7.67-.07-11.5,0-.11.09-.21.2-.21h0c3.06-.07,6.11-.11,9.17-.14,3.06-.01,6.11-.06,9.17-.05.22,0,.4.18.4.4,0,3.88-.03,7.77-.11,11.62l-.12,5.75-.14,5.66ZM66.18,123.81l-.26-11.59c-.08-3.82-.11-7.59-.11-11.38l.4.4c-3.06.01-6.11-.04-9.17-.05-3.06-.03-6.11-.07-9.17-.14l.21-.21c-.07,3.83-.12,7.67-.07,11.5.04,3.83.19,7.67.19,11.5l-.33-.33c3.01-.03,6.03.04,9.06.07l9.25.23Z"/>
        <path class="cls-4" d="M66.2,106.3v-5.46h-18.33v7.44c4.22-1.16,10.28-2.17,18.33-1.98Z"/>
        <rect class="cls-10" x="56.17" y="99.1" width="1.74" height="23.92"/>
        <path class="cls-4" d="M58.26,105.08c-.03-1.99-.08-3.99-.15-5.98h0c0-.13-.1-.21-.21-.21l-1.74.05h0c-.09,0-.16.07-.15.16.05,2,.05,4,.01,6.01-.05,2.01-.15,4.05-.15,6.08-.03,2.03.04,4.02.06,6.02.06,1.98.11,3.95.21,5.85l1.77.1h0c.07,0,.12-.05.13-.11h0c.09-2.01.16-4,.2-5.99.05-1.99.08-3.99.08-5.98,0-1.99-.04-3.99-.05-5.98ZM56.32,105.05c-.04-1.92-.04-3.86.01-5.79l1.36.04c-.07,1.93-.12,3.85-.14,5.78-.02,1.99-.06,3.99-.05,5.98,0,1.99.03,3.99.08,5.98.04,1.95.1,3.91.2,5.86l-1.58.09c.1-2.09.15-4.1.21-6.12.02-1.99.09-3.99.06-5.94,0-1.96-.1-3.91-.15-5.88Z"/>
        <rect class="cls-10" x="44.97" y="98.09" width="23.92" height="1.74"/>
        <path class="cls-4" d="M68.9,97.96h-.01c-1.99-.1-3.99-.16-5.98-.2-1.99-.05-3.99-.08-5.98-.08-1.99,0-3.99.04-5.98.05-1.99.03-3.99.08-5.98.15h-.01c-.11,0-.2.1-.2.21l.05,1.74h0c0,.09.07.16.16.16,2-.05,4-.05,6.01-.01,2.01.05,4.05.15,6.08.15,2.03.03,4.02-.04,6.02-.06,1.98-.06,3.94-.11,5.85-.21l.1-1.77h0c0-.07-.05-.12-.11-.13ZM62.75,99.59c-1.99-.02-3.99-.09-5.94-.06-1.96,0-3.91.1-5.88.15-1.92.04-3.86.04-5.79-.01l.04-1.36c1.93.07,3.85.12,5.78.14,1.99.02,3.99.06,5.98.05,1.99,0,3.99-.03,5.98-.08,1.95-.04,3.91-.1,5.86-.2l.09,1.58c-2.09-.1-4.1-.15-6.12-.21Z"/>
        <rect class="cls-10" x="44.97" y="123.23" width="23.92" height="2.73"/>
        <path class="cls-4" d="M68.91,123.05h-.02c-1.99-.07-3.99-.14-5.98-.17-1.99-.05-3.99-.07-5.98-.07-1.99,0-3.99.04-5.98.06-1.99.03-3.99.08-5.98.14h-.01c-.11,0-.2.1-.2.21l.07,2.73h0c0,.08.06.14.14.14,2-.03,4-.03,6.01.03,2.01.05,4.06.15,6.08.14,2.03.02,4.01-.05,6.01-.07,1.98-.06,3.95-.11,5.85-.21l.15-2.76h0c0-.09-.07-.17-.16-.17ZM62.75,125.72c-1.99-.02-3.99-.09-5.95-.07-1.97-.01-3.91.09-5.89.14-1.92.05-3.87.06-5.8.03l.06-2.37c1.93.06,3.85.11,5.78.14,1.99.02,3.99.06,5.98.06,1.99,0,3.99-.02,5.98-.07,1.94-.03,3.88-.09,5.82-.16l.14,2.52c-2.08-.1-4.1-.15-6.11-.21Z"/>
        <rect class="cls-10" x="79.89" y="99.01" width="21.97" height="26.65"/>
        <path class="cls-4" d="M101.86,125.66l-10.92.16-11.05.12c-.15,0-.27-.12-.27-.27h0s0,0,0,0c-.09-8.88-.07-17.77-.11-26.65,0-.21.17-.38.38-.38h0l21.97.07h0c.17,0,.31.14.31.31h0s-.13,13.4-.13,13.4l-.18,13.25ZM101.86,125.66l-.18-13.4-.13-13.25.32.32-21.97.07.38-.38c-.04,8.88-.02,17.77-.11,26.65l-.27-.27,10.92.12,11.05.16Z"/>
        <rect class="cls-5" x="81.75" y="100.84" width="18.33" height="23"/>
        <path class="cls-4" d="M100.08,100.44c-3.06-.01-6.11.04-9.17.05-3.06.03-6.11.07-9.17.14h0c-.11,0-.2.1-.2.21.07,3.83.12,7.67.07,11.5-.04,3.83-.19,7.67-.19,11.5,0,.18.15.33.33.33,3.1.03,6.19-.04,9.27-.07,3.07-.07,6.12-.14,9.08-.23l.14-5.66.12-5.75c.08-3.85.11-7.74.11-11.62,0-.22-.18-.4-.4-.4ZM90.81,123.58c-2.92-.03-5.82-.09-8.73-.07,0-3.72-.15-7.45-.19-11.17-.05-3.76,0-7.52.06-11.29,2.99.06,5.97.11,8.96.14,2.92.01,5.84.06,8.77.05,0,3.65.03,7.3.11,10.98l.26,11.59-9.25-.23Z"/>
        <path class="cls-4" d="M100.08,106.3v-5.46h-18.33v7.44c4.22-1.16,10.28-2.17,18.33-1.98Z"/>
        <rect class="cls-10" x="90.04" y="99.1" width="1.74" height="23.92"/>
        <path class="cls-4" d="M92.14,105.08c-.03-1.99-.08-3.99-.15-5.98h0c0-.13-.1-.21-.21-.21l-1.74.05h0c-.09,0-.16.07-.15.16.05,2,.05,4,.01,6.01-.05,2.01-.15,4.05-.15,6.08-.03,2.03.04,4.02.06,6.02.06,1.98.11,3.95.21,5.85l1.77.1h0c.07,0,.12-.05.13-.11h0c.09-2.01.16-4,.2-5.99.05-1.99.08-3.99.08-5.98,0-1.99-.04-3.99-.05-5.98ZM90.19,105.05c-.04-1.92-.04-3.86.01-5.79l1.36.04c-.07,1.93-.12,3.85-.14,5.78-.02,1.99-.06,3.99-.05,5.98,0,1.99.03,3.99.08,5.98.04,1.95.1,3.91.2,5.86l-1.58.09c.1-2.09.15-4.1.21-6.12.02-1.99.09-3.99.06-5.94,0-1.96-.1-3.91-.15-5.88Z"/>
        <rect class="cls-10" x="78.84" y="98.09" width="23.92" height="1.74"/>
        <path class="cls-4" d="M102.78,97.96h-.01c-1.99-.1-3.99-.16-5.98-.2-1.99-.05-3.99-.08-5.98-.08-1.99,0-3.99.04-5.98.05-1.99.03-3.99.08-5.98.15h-.01c-.11,0-.2.1-.2.21l.05,1.74h0c0,.09.07.16.16.16,2-.05,4-.05,6.01-.01,2.01.05,4.05.15,6.08.15,2.03.03,4.02-.04,6.02-.06,1.98-.06,3.95-.11,5.85-.21l.1-1.77h0c0-.07-.05-.12-.11-.13ZM96.62,99.59c-1.99-.02-3.99-.09-5.94-.06-1.96,0-3.91.1-5.88.15-1.92.04-3.86.04-5.79-.01l.04-1.36c1.93.07,3.85.12,5.78.14,1.99.02,3.99.06,5.98.05,1.99,0,3.99-.03,5.98-.08,1.95-.04,3.91-.1,5.86-.2l.09,1.58c-2.09-.1-4.1-.15-6.12-.21Z"/>
        <rect class="cls-10" x="78.84" y="123.23" width="23.92" height="2.73"/>
        <path class="cls-4" d="M102.78,123.05h-.02c-1.99-.07-3.99-.14-5.98-.17-1.99-.05-3.99-.07-5.98-.07-1.99,0-3.99.04-5.98.06-1.99.03-3.99.08-5.98.14h-.01c-.11,0-.2.1-.2.21l.07,2.73h0c0,.08.06.14.14.14,2-.03,4-.03,6.01.03,2.01.05,4.06.15,6.08.14,2.03.02,4.01-.05,6.01-.07,1.98-.06,3.95-.11,5.85-.21l.15-2.76h0c0-.09-.07-.17-.16-.17ZM96.63,125.72c-1.99-.02-3.99-.09-5.95-.07-1.97-.01-3.91.09-5.89.14-1.92.05-3.87.06-5.8.03l.06-2.37c1.93.06,3.85.11,5.78.14,1.99.02,3.99.06,5.98.06,1.99,0,3.99-.02,5.98-.07,1.94-.03,3.88-.09,5.82-.16l.14,2.52c-2.08-.1-4.1-.15-6.11-.21Z"/>
        <circle class="cls-10" cx="96.22" cy="55.85" r="1.91"/>
        <path class="cls-10" d="M98.12,55.85c.02.99-.78,2.01-1.91,2.1-.55.05-1.14-.13-1.58-.52-.44-.39-.71-.98-.71-1.58,0-.6.27-1.2.71-1.58.44-.39,1.04-.57,1.58-.52,1.13.09,1.93,1.11,1.91,2.1ZM98.12,55.85c0-.5-.23-.99-.6-1.31-.37-.32-.86-.45-1.31-.4-.92.1-1.54.93-1.53,1.72-.02.79.6,1.62,1.53,1.72.45.05.94-.09,1.31-.41.37-.32.59-.81.6-1.31Z"/>
        <g>
          <path class="cls-4" d="M99.53,56.17c.02.99-.78,2.01-1.91,2.1-.55.05-1.14-.13-1.58-.52-.44-.39-.71-.98-.71-1.58,0-.6.27-1.2.71-1.58.44-.39,1.04-.57,1.58-.52,1.13.09,1.93,1.11,1.91,2.1ZM99.53,56.17c0-.5-.23-.99-.6-1.31-.37-.32-.86-.45-1.31-.4-.92.1-1.54.93-1.53,1.72-.02.79.6,1.62,1.53,1.72.45.05.94-.09,1.31-.41.37-.32.59-.81.6-1.31Z"/>
          <path class="cls-4" d="M102.04,52.9c-.05-.07-.13-.13-.21-.17-.09-.04-.21-.04-.2-.04-.74-.03-1.48-.04-2.22-.05-1.48-.02-2.96,0-4.44.02l-2.22.04-1.11.04-.55.02h-.28s-.33.02-.42.2c-.05.07-.07.21-.06.25v.14s.02.28.02.28l.02.55c.02.37.03.74.03,1.11.02.74.03,1.48.02,2.22l-.03,1.11-.03.55v.11c-.06.11-.07.23-.02.34,0,.05,0,.16.06.22.06.09.16.15.26.17h.17s0,0,0,0c.02,0,.03.01.05,0,0,0,.02,0,.03,0h.2s.56.03.56.03l1.11.04c1.5.02,2.92,0,4.48-.08,1.53-.09,3.04-.21,4.42-.35.12-1.39.25-2.87.35-4.39l.06-1.15.03-.58v-.29s.02-.09.02-.09c0-.1-.04-.18-.09-.26ZM96.18,59.19c-1.06-.05-2.13-.08-3.2-.1-.05-.9-.11-1.79-.11-2.69,0-.97.03-1.93.08-2.9.87-.02,1.74-.02,2.61,0,.55.02,1.09.05,1.64.06.14,0,.28,0,.43,0,1.19.05,2.39.1,3.58.08.03.88.07,1.76.15,2.67l.26,3.29h0s0,0,0,0c-1.93-.14-3.7-.33-5.44-.4ZM91.26,59.06c-.02-1.83-.05-3.67-.14-5.5.48-.02.95-.03,1.43-.05.05.96.08,1.93.08,2.89,0,.89-.05,1.79-.11,2.68-.42,0-.85-.02-1.27-.02Z"/>
        </g>
        <g>
          <path class="cls-4" d="M66.47,92.88c.02.99-.78,2.01-1.91,2.1-.55.05-1.14-.13-1.58-.52-.44-.39-.71-.98-.71-1.58,0-.6.27-1.2.71-1.58.44-.39,1.04-.57,1.58-.52,1.13.09,1.93,1.11,1.91,2.1ZM66.47,92.88c0-.5-.23-.99-.6-1.31-.37-.32-.86-.45-1.31-.4-.92.1-1.54.93-1.53,1.72-.02.79.6,1.62,1.53,1.72.45.05.94-.09,1.31-.41.37-.32.59-.81.6-1.31Z"/>
          <path class="cls-4" d="M68.98,89.61c-.05-.07-.13-.13-.21-.17-.09-.04-.21-.04-.2-.04-.74-.03-1.48-.04-2.22-.05-1.48-.02-2.96,0-4.44.02l-2.22.04-1.11.04-.55.02h-.28s-.33.02-.42.2c-.05.07-.07.21-.06.25v.14s.02.28.02.28l.02.55c.02.37.03.74.03,1.11.02.74.03,1.48.02,2.22l-.03,1.11-.03.55v.11c-.06.11-.07.23-.02.34,0,.05,0,.16.06.22.06.09.16.15.26.17h.17s0,0,0,0c.02,0,.03.01.05,0,0,0,.02,0,.03,0h.2s.56.03.56.03l1.11.04c1.5.02,2.92,0,4.48-.08,1.53-.09,3.04-.21,4.42-.35.12-1.39.25-2.87.35-4.39l.06-1.15.03-.58v-.29s.02-.09.02-.09c0-.1-.04-.18-.09-.26ZM63.12,95.9c-1.06-.05-2.13-.08-3.2-.1-.05-.9-.11-1.79-.11-2.69,0-.97.03-1.93.08-2.9.87-.02,1.74-.02,2.61,0,.55.02,1.09.05,1.64.06.14,0,.28,0,.43,0,1.19.05,2.39.1,3.58.08.03.88.07,1.76.15,2.67l.26,3.29h0s0,0,0,0c-1.93-.14-3.7-.33-5.44-.4ZM58.21,95.77c-.02-1.83-.05-3.67-.14-5.5.48-.02.95-.03,1.43-.05.05.96.08,1.93.08,2.89,0,.89-.05,1.79-.11,2.68-.42,0-.85-.02-1.27-.02Z"/>
        </g>
        <path class="cls-10" d="M111.69,88.22v3.31h-3.21c-.25,0-.47-.21-.47-.47v-2.38c0-.26.21-.47.47-.47h3.21Z"/>
        <path class="cls-10" d="M111.69,92.13v3.31h-.28c-.26,0-.47-.21-.47-.47v-2.38c0-.26.21-.47.47-.47h.28Z"/>
        <rect class="cls-10" x="103.22" y="92.12" width="6.41" height="3.31" rx=".47" ry=".47"/>
        <path class="cls-10" d="M43.67,127.43v2.38c0,.26-.21.47-.47.47h-4.55v-3.31h4.55c.26,0,.47.21.47.47Z"/>
        <rect class="cls-10" x="40.18" y="130.87" width="6.41" height="3.31" rx=".47" ry=".47"/>
        <path class="cls-10" d="M38.88,131.34v2.38c0,.17-.09.31-.22.4v-3.17c.13.08.22.23.22.4Z"/>
        <rect class="cls-10" x="71.29" y="53.05" width="6.41" height="3.31" rx=".47" ry=".47"/>
        <rect class="cls-10" x="74.2" y="56.96" width="6.41" height="3.31" rx=".47" ry=".47"/>
        <rect class="cls-10" x="66.49" y="56.96" width="6.41" height="3.31" rx=".47" ry=".47"/>
        <path class="cls-10" d="M42.14,32.28v2.38c0,.25-.21.47-.47.47h-3.02v-3.31h3.02c.25,0,.47.21.47.47Z"/>
        <rect class="cls-10" x="38.65" y="35.72" width="6.41" height="3.31" rx=".47" ry=".47"/>
        <path class="cls-10" d="M111.69,26.48v3.32h-2.26c-.25,0-.47-.21-.47-.48v-2.38c0-.25.21-.47.47-.47h2.26Z"/>
        <rect class="cls-10" x="104.16" y="30.39" width="6.41" height="3.31" rx=".47" ry=".47"/>
        <g>
          <path class="cls-4" d="M111.71,88.19c-.72-.14-1.61-.28-2.54-.34-.23-.02-.46-.02-.7-.03-.41-.02-.78.29-.86.7-.03.24-.01.27-.01.4v.32s.04.64.04.64l.04.64.03.32c.02.12.01.18.05.37.09.33.41.53.71.51.21-.02.43-.05.64-.06.85-.06,1.71.11,2.56.2l.3.03.02-.35c.04-.59,0-1.2-.05-1.77-.06-.57-.15-1.11-.24-1.57ZM111.41,89.98c-.04.43-.07.84-.06,1.26-.75.09-1.49.22-2.24.16-.21,0-.43-.03-.64-.06-.13-.02-.22-.15-.21-.24,0-.02.02-.18.03-.27l.03-.32.04-.64.05-1.2s.03-.04.06-.05c.2-.01.39-.01.59-.03.79-.07,1.61-.2,2.59-.34-.1.64-.19,1.21-.24,1.74Z"/>
          <path class="cls-4" d="M111.03,92.02c-.13.05-.24.15-.31.28-.08.12-.1.32-.11.38-.05.37-.1.74-.08,1.1.01.37.05.74.09,1.1.01.06.03.26.11.38.08.12.19.22.31.28.12.06.26.08.38.06.09-.02.18-.02.28-.04l.13-.02v-.11c-.03-.28,0-.56.06-.87.06-.3.13-.62.12-.92-.02-.59-.12-1.17-.29-1.55-.14-.06-.43-.2-.68-.08ZM111.49,94.65c.06.21.08.43.07.65-.33-.04-.38-.21-.31-.41.04-.37.08-.74.09-1.1.01-.37-.03-.74-.08-1.1-.09-.24-.02-.38.4-.52-.17.72-.27,1.25-.29,1.76,0,.25.06.48.12.73Z"/>
          <path class="cls-4" d="M109.88,94.19c-.05-.39-.11-.78-.15-1.16-.04-.2,0-.37-.08-.6-.08-.2-.28-.35-.5-.34-.78.01-1.55-.11-2.33-.2-.78-.11-1.55-.12-2.33-.08l-.58.05c-.11.01-.16.01-.32.03-.15.03-.28.1-.37.21-.1.1-.16.23-.17.37-.01.15.01.22.02.33l.03.58c.01.39.01.78,0,1.16v.29c-.02.09-.04.2,0,.34.07.26.31.46.6.48,1.55.15,3.11.19,4.66.2l.58-.02h.15s.09,0,.2-.02c.18-.03.34-.11.46-.24.12-.12.2-.28.23-.45.02-.2,0-.25-.01-.36-.02-.19-.05-.39-.07-.58ZM109.52,93.02c-.04.39-.1.78-.15,1.16-.06.34-.07.93-.15.85-.02.01-.04.01-.06.01h-.24s-.58-.02-.58-.02c-1.55,0-3.11.05-4.66.2-.11.02-.23-.05-.29-.16-.03-.05-.03-.13-.04-.24v-.29c-.03-.39-.03-.78-.02-1.16l.03-.58c.01-.22.03-.32.14-.39.05-.03.1-.04.14-.04l.26.02.58.05c.78.05,1.55.03,2.33-.08.78-.1,1.55-.21,2.33-.2.18,0,.35.13.39.3.03.15-.01.38-.03.56Z"/>
          <path class="cls-4" d="M46.84,132.94c-.05-.39-.11-.78-.15-1.16-.04-.2,0-.37-.08-.6-.08-.2-.28-.35-.5-.34-.78.01-1.55-.11-2.33-.2-.17-.02-.34-.03-.5-.04.11-.01.21-.03.31-.09.24-.14.38-.41.37-.67l-.07-.49c-.09-.64-.2-1.28-.19-1.91,0-.24-.17-.47-.42-.53l-.67-.08c-.44-.06-.88-.14-1.32-.19-.88-.09-1.76-.09-2.64-.06h-.41s.02.39.02.39c.02.55.04,1.1.07,1.66.04.55.11,1.1.15,1.66v.18s.17-.01.17-.01c.64-.06,1.28-.07,1.91-.02.42.04.84.08,1.26.13-.12,0-.24,0-.37,0l-.58.05c-.11.01-.16.01-.32.03-.15.03-.28.1-.37.21-.1.1-.16.23-.17.37-.01.15.01.22.02.33l.03.58c.01.39.01.78,0,1.16v.29c-.02.09-.04.2,0,.34.07.26.31.46.6.48,1.55.15,3.11.19,4.66.2l.58-.02h.15s.09,0,.2-.02c.18-.03.34-.11.46-.24.12-.12.2-.28.23-.45.02-.2,0-.25-.01-.36-.02-.19-.05-.39-.07-.58ZM40.57,130.13c-.58.04-1.15.03-1.73-.01.04-.5.11-1,.14-1.5.03-.42.04-.84.05-1.26.76.02,1.51.01,2.27-.06.44-.05.88-.13,1.32-.19.22-.03.45-.07.65-.07.19,0,.36.19.37.39.01.64-.09,1.28-.19,1.91l-.07.47c-.02.07-.07.1-.11.11-.02,0-.04.01-.07,0-.08,0-.16,0-.24,0-.16,0-.32,0-.48.01-.64.04-1.28.13-1.91.19ZM46.48,131.77c-.04.39-.1.78-.15,1.16-.06.34-.07.93-.15.85-.02.01-.04.01-.06.01h-.24s-.58-.02-.58-.02c-1.55,0-3.11.05-4.66.2-.11.02-.23-.05-.29-.16-.03-.05-.03-.13-.04-.24v-.29c-.03-.39-.03-.78-.02-1.16l.03-.58c.01-.22.03-.32.14-.39.05-.03.1-.04.14-.04l.26.02.58.05c.78.05,1.55.03,2.33-.08.78-.1,1.55-.21,2.33-.2.18,0,.35.13.39.3.03.15-.01.38-.03.56Z"/>
          <path class="cls-4" d="M80.86,59.02c-.05-.39-.11-.78-.15-1.16-.04-.2,0-.37-.08-.6-.08-.2-.28-.35-.5-.34-.78.01-1.55-.11-2.33-.2-.31-.04-.62-.06-.93-.08h.12c.11-.02.16-.02.32-.04.15-.03.28-.1.37-.21.1-.1.16-.23.18-.37.01-.15-.01-.22-.02-.33l-.03-.58c-.01-.39-.01-.78,0-1.16v-.29c.02-.09.04-.2,0-.34-.07-.26-.31-.46-.6-.48-1.55-.15-3.11-.19-4.66-.2l-.58.02h-.15s-.09,0-.2.02c-.18.03-.34.11-.46.24-.12.12-.2.28-.23.45-.02.2,0,.25.01.36.02.19.05.39.07.58.05.39.11.78.15,1.16.04.2,0,.37.08.6.08.2.28.35.5.34.78-.01,1.55.11,2.33.2.31.04.62.06.93.08h-.12c-.11.02-.16.02-.32.04-.15.03-.28.1-.37.21-.1.1-.16.23-.17.37-.01.15.01.22.02.33l.03.58c.01.39.01.78,0,1.16v.29c-.02.09-.04.2,0,.34.07.26.31.46.6.48,1.55.15,3.11.19,4.66.2l.58-.02h.15s.09,0,.2-.02c.18-.03.34-.11.46-.24.12-.12.2-.28.23-.45.02-.2,0-.25-.01-.36-.02-.19-.05-.39-.07-.58ZM74.09,56.12c-.78.1-1.55.21-2.33.2-.18,0-.35-.13-.39-.3-.03-.15.01-.38.03-.56.04-.39.1-.78.15-1.16.06-.34.07-.93.15-.85.02-.01.04-.01.06-.01h.24s.58.02.58.02c1.55,0,3.11-.05,4.66-.2.11-.02.23.05.29.16.03.05.03.13.04.24v.29c.03.39.03.78.02,1.16l-.03.58c-.01.22-.03.32-.14.39-.05.03-.1.04-.14.04l-.26-.02-.58-.05c-.78-.05-1.55-.03-2.33.08ZM80.5,57.85c-.04.39-.1.78-.15,1.16-.06.34-.07.93-.15.85-.02.01-.04.01-.06.01h-.24s-.58-.02-.58-.02c-1.55,0-3.11.05-4.66.2-.11.02-.23-.05-.29-.16-.03-.05-.03-.13-.04-.24v-.29c-.03-.39-.03-.78-.02-1.16l.03-.58c.01-.22.03-.32.14-.39.05-.03.1-.04.14-.04l.26.02.58.05c.78.05,1.55.03,2.33-.08.78-.1,1.55-.21,2.33-.2.18,0,.35.13.39.3.03.15-.01.38-.03.56Z"/>
          <path class="cls-4" d="M73.15,59.02c-.05-.39-.11-.78-.15-1.16-.04-.2,0-.37-.08-.6-.08-.2-.28-.35-.5-.34-.78.01-1.55-.11-2.33-.2-.78-.11-1.55-.12-2.33-.08l-.58.05c-.11.01-.16.01-.32.03-.15.03-.28.1-.37.21-.1.1-.16.23-.18.37-.01.15.01.22.02.33l.03.58c.01.39.01.78,0,1.16v.29c-.02.09-.04.2,0,.34.07.26.31.46.6.48,1.55.15,3.11.19,4.66.2l.58-.02h.15s.09,0,.2-.02c.18-.03.34-.11.46-.24.12-.12.2-.28.23-.45.02-.2,0-.25-.01-.36-.02-.19-.05-.39-.07-.58ZM72.79,57.85c-.04.39-.1.78-.15,1.16-.06.34-.07.93-.15.85-.02.01-.04.01-.06.01h-.24s-.58-.02-.58-.02c-1.55,0-3.11.05-4.66.2-.11.02-.23-.05-.29-.16-.03-.05-.03-.13-.04-.24v-.29c-.03-.39-.03-.78-.02-1.16l.03-.58c.01-.22.03-.32.14-.39.05-.03.1-.04.14-.04l.26.02.58.05c.78.05,1.55.03,2.33-.08.78-.1,1.55-.21,2.33-.2.18,0,.35.13.39.3.03.15-.01.38-.03.56Z"/>
          <path class="cls-4" d="M38.5,35.13l.02.17h.14c.51-.07,1.02-.07,1.53-.02.27.03.53.07.8.11-.35,0-.7,0-1.06.02l-.58.05c-.11.01-.16.01-.32.03-.15.03-.28.1-.37.21-.1.1-.16.23-.17.37-.01.15.01.22.02.33l.03.58c.01.39.01.78,0,1.16v.29c-.02.09-.04.2,0,.34.07.26.31.46.6.48,1.55.15,3.11.19,4.66.2l.58-.02h.15s.09,0,.2-.02c.18-.03.34-.11.46-.24.12-.12.2-.28.23-.45.02-.2,0-.25-.01-.36-.02-.19-.05-.39-.07-.58-.05-.39-.11-.78-.15-1.16-.04-.2,0-.37-.08-.6-.08-.2-.28-.35-.5-.34-.78.01-1.55-.11-2.33-.2-.15-.02-.3-.02-.45-.04.2-.03.38-.13.51-.29.07-.09.11-.19.14-.3.03-.11.02-.23.02-.27-.02-.26-.06-.51-.11-.77-.09-.51-.19-1.02-.18-1.53,0-.17-.08-.34-.22-.45-.15-.12-.35-.11-.49-.14l-.94-.17c-.63-.1-1.25-.12-1.88-.11h-.42s0,.41,0,.41c.01.55.04,1.1.07,1.66.03.55.13,1.1.18,1.66ZM42.26,35.96c.78-.1,1.55-.21,2.33-.2.18,0,.35.13.39.3.03.15-.01.38-.03.56-.04.39-.1.78-.15,1.16-.06.34-.07.93-.15.85-.02.01-.04.01-.06.01h-.24s-.58-.02-.58-.02c-1.55,0-3.11.05-4.66.2-.11.02-.23-.05-.29-.16-.03-.05-.03-.13-.04-.24v-.29c-.03-.39-.03-.78-.02-1.16l.03-.58c.01-.23.03-.32.14-.39.05-.03.1-.04.14-.04l.26.02.58.05c.78.05,1.55.03,2.33-.08ZM38.99,33.47c.02-.42.04-.84.05-1.25.5,0,.99-.02,1.49-.11l.94-.17c.17-.02.3-.07.42,0,.13.06.21.2.21.34.01.51-.09,1.02-.18,1.53-.05.26-.09.51-.11.77,0,.08,0,.1-.01.11,0,.02-.02.03-.03.04-.02.03-.06.05-.09.06-.44.03-1,.13-1.5.19-.45.04-.9.04-1.36,0,.05-.5.13-1,.16-1.51Z"/>
          <path class="cls-4" d="M108.58,28.14c.02.35.03.7.08,1.05l.02.13c0,.06.02.13.04.2.05.13.13.24.23.32.19.18.51.16.64.13.35-.04.7-.05,1.05-.03.35.02.7.09,1.05.14l.21.03.05-.29c.11-.59.08-1.2.03-1.78-.05-.58-.15-1.12-.26-1.57-.57-.13-1.32-.28-2.1-.34-.1,0-.17-.03-.36,0-.16.03-.31.1-.42.21-.12.11-.21.24-.25.4-.02.07-.03.18-.03.23v.13c0,.35.02.7.04,1.05ZM109.23,29.32l.02-.13c.04-.35.06-.7.08-1.05.02-.35.04-.7.04-1.05v-.13s0-.01,0-.03c0,0,0-.03.01-.04.04-.03-.02-.04.2-.05.62-.06,1.26-.2,2.09-.34-.11.66-.21,1.23-.26,1.75-.04.45-.05.88,0,1.32-.25.04-.51.08-.76.1-.35.02-.7,0-1.05-.03-.21-.02-.28-.04-.33-.14-.03-.04-.04-.09-.03-.13,0-.02,0-.04.01-.06Z"/>
          <path class="cls-4" d="M104.03,31.64c.01.39.01.78,0,1.16v.29c-.02.09-.04.2,0,.34.07.26.31.46.6.48,1.55.15,3.11.19,4.66.2l.58-.02h.15s.09,0,.2-.02c.18-.02.34-.11.46-.24.12-.12.2-.28.23-.45.02-.2,0-.25-.01-.36-.02-.19-.05-.39-.07-.58-.05-.39-.11-.78-.15-1.16-.04-.2,0-.37-.08-.6-.08-.2-.28-.35-.5-.34-.78.01-1.55-.11-2.33-.2-.78-.11-1.55-.12-2.33-.08l-.58.05c-.11.01-.16.01-.32.03-.15.03-.28.1-.37.21-.1.1-.16.23-.17.37-.01.15.01.22.02.33l.03.58ZM104.32,31.06c.01-.22.03-.32.14-.39.04-.03.1-.04.14-.04l.26.02.58.05c.78.05,1.55.03,2.33-.08.78-.1,1.55-.21,2.33-.2.18,0,.35.13.39.3.03.15-.01.38-.03.56-.04.39-.1.78-.15,1.16-.06.34-.07.93-.15.85-.02.01-.04.01-.06.01h-.24s-.58-.02-.58-.02c-1.55,0-3.11.05-4.66.2-.11.02-.23-.05-.29-.16-.03-.05-.03-.13-.04-.24v-.29c-.03-.39-.03-.78-.02-1.16l.03-.58Z"/>
        </g>
        <g>
          <path class="cls-6" d="M60.7,139.47c.65-.39.78-1.35.35-1.95s-1.27-.84-2.02-.7-1.41.6-1.91,1.16c.48-.87.63-1.93.3-2.86s-1.16-1.69-2.16-1.86c-1.04-.18-2.13.27-2.9,1s-1.24,1.68-1.58,2.66c.2-1.1-.5-2.23-1.53-2.7s-2.31-.34-3.3.23-1.72,1.52-2.14,2.56c.14-2.54-.71-5.11-2.34-7.08-.38-.46-.82-.9-1.36-1.17-1.19-.61-2.73-.31-3.86.42s-1.95,1.85-2.69,2.96c-1.97,3-3.6,6.55-2.83,9.99-.6-.61-1.51-.92-2.38-.8s-1.67.66-2.09,1.41c-.18.33-.29.72-.18,1.07.07.23.23.42.4.6.58.62,1.28,1.14,2.05,1.52-.49-.32-.17-1.17.41-1.34s1.18.13,1.64.48.9.79,1.46.96c.26-1.89,9.62-4.88,9.64-2.84.83-1.43,1.88-2.84,3.39-3.57.5-.24,1.07-.41,1.61-.31.73.13,1.29.72,1.58,1.37s.34,1.39.4,2.1c.87-1.36,5.24-1.5,5-1,1.16-1.46,2.95-2.45,4.84-2.66.33-.04.69-.05.97.12s.44.56.24.82c.69-.08,1.32-.57,1.55-1.2"/>
          <path class="cls-4" d="M61.47,138.13c-.25-.89-1.2-1.4-2.03-1.42-.28-.02-.56.02-.84.08.01-.1.03-.2.04-.31.03-.76-.1-1.59-.57-2.34-.45-.76-1.3-1.33-2.14-1.49-.84-.18-1.66-.08-2.39.16-.73.23-1.45.69-1.96,1.2-.12.12-.22.25-.32.37,0,0,0-.01-.01-.02-.45-.57-1.12-1-1.78-1.2-.66-.21-1.34-.23-1.98-.14-1.27.17-2.45.92-3.18,1.9-.02.02-.03.04-.04.06-.39-1.46-1-2.84-1.79-4.09-.35-.54-.71-1.08-1.17-1.56-.46-.47-.99-.94-1.67-1.17-.67-.24-1.42-.25-2.1-.07-.68.19-1.29.52-1.85.91-1.11.8-1.98,1.79-2.79,2.83-.8,1.05-1.46,2.22-1.96,3.46-.48,1.25-.82,2.54-.93,3.91-.06.67-.05,1.37.05,2.07-.12-.04-.24-.09-.37-.12-.44-.11-.93-.18-1.42-.14-.48.05-.95.17-1.39.41-.43.23-.83.59-1.07,1.05-.23.46-.3.99-.2,1.45.19.93.83,1.62,1.57,1.99.05.02.1.01.14-.03.04-.05.04-.12,0-.16h0c-.56-.51-.91-1.23-.89-1.88,0-.66.42-1.1.98-1.29.28-.1.6-.13.9-.11.3.01.6.09.91.21.61.24,1.2.66,1.85,1.1.24.16.56.2.85.08.45-.19.66-.72.47-1.17l-.03-.07c-.82-1.92-.26-4.37.49-6.58.38-1.12.86-2.21,1.43-3.26.59-1.04,1.24-2.09,2.09-2.89.83-.79,1.97-1.35,3.03-.99,1.07.34,1.84,1.39,2.44,2.43,1.22,2.1,1.62,4.6,1.31,6.92,0,0,0,0,0,0h0s0,.03,0,.04c-.05.41.22.79.62.87.43.09.84-.19.92-.62l.02-.12c.17-.86.54-1.67,1.09-2.25.53-.6,1.22-.93,1.96-1.01.73-.07,1.39.19,1.68.64.24.33.31.74.25,1.06-.09.18-.17.35-.25.52v.03c-.26.53-.1,1.17.4,1.52.55.38,1.31.24,1.69-.31.04-.06.06-.12.1-.17h0s.05-.1.08-.15c.04-.08.09-.17.13-.26.45-.89.9-1.69,1.48-2.24.34-.32.63-.55,1.04-.7.39-.15.8-.21,1.13-.15.33.06.57.18.76.43.2.25.33.65.34,1.07.04.84-.4,1.87-.94,2.92h0s-.02.04-.04.06c-.21.39-.08.89.3,1.13.4.25.93.12,1.18-.28l.05-.07c.31-.51.67-1.04.96-1.66.37-.4.83-.67,1.38-.73.54-.06,1.13.09,1.37.57.26.47.2,1.23-.36,1.57-.04.03-.07.08-.05.13.02.06.08.1.14.08.37-.11.7-.42.85-.8.15-.38.18-.81.06-1.23Z"/>
        </g>
      </g>
      <g>
        <circle class="cls-10" cx="77.6" cy="160.93" r="15.57"/>
        <path class="cls-4" d="M86.91,148.33c3.27,2.44,5.85,6,6.73,10.2.95,4.16-.14,8.8-2.83,12.17-2.69,3.4-6.74,5.44-10.86,5.96-4.12.57-8.44-.37-11.95-2.75-3.53-2.33-6.09-6.24-6.77-10.52-.74-4.27.31-8.87,2.95-12.37,2.61-3.5,6.73-5.86,11-6.16,4.27-.37,8.45,1.04,11.73,3.47ZM86.79,148.49c-3.27-2.45-7.6-3.15-11.4-2.28-3.8.88-7.2,3.04-9.42,6.12-2.23,3.05-3.31,6.95-2.8,10.75.5,3.79,2.46,7.4,5.51,9.9,3.04,2.5,7.22,3.68,11.17,3,3.96-.66,7.42-3.14,9.56-6.32,2.19-3.18,3.22-7.04,2.93-10.95-.3-3.89-2.24-7.83-5.55-10.22Z"/>
        <path class="cls-4" d="M76.27,166.78c-.02-.05-.03-.11-.04-.16-.08-.68.6-.77,1.1-.81l-.06-.15c-.5-1-.42-2.38-.42-3.46,0-1.37.11-2.75.32-4.11-.27.45-.64.84-1.07,1.14-.21.15-.52.26-.71.08-.42-.4.44-1.44.68-1.75.46-.58,1-1.14,1.22-1.86.1-.34.14-.72.38-.96.58-.58,1.3.03,1.56.58.32.68.47,1.56.47,2.32,0,1.39-.12,2.77-.23,4.15-.11,1.28-.06,2.67-.43,3.91-.02.06-.04.13-.02.19.05.2.34.17.51.27.39.25-.04.72-.32.82-.17.05-.35.06-.53.07-.6.02-1.2.04-1.8.06-.11,0-.21,0-.31-.03-.14-.05-.24-.16-.29-.3Z"/>
      </g>
    </g>
  </g>
</svg>