<svg width="213" height="224" viewBox="0 0 213 224" fill="none" xmlns="http://www.w3.org/2000/svg">
<path d="M107.18 200.02C164.987 200.02 211.85 179.64 211.85 154.5C211.85 129.36 164.987 108.98 107.18 108.98C49.3721 108.98 2.50977 129.36 2.50977 154.5C2.50977 179.64 49.3721 200.02 107.18 200.02Z" fill="url(#paint0_linear_3089_55705)"/>
<path d="M211.84 154.501C211.81 157.061 211.31 159.591 210.42 161.991C209.56 164.401 208.19 166.601 206.69 168.661L205.52 170.181L204.24 171.601C203.82 172.091 203.37 172.541 202.9 172.971L201.52 174.301C199.59 175.981 197.6 177.591 195.47 179.011C187 184.771 177.46 188.771 167.73 191.851C162.85 193.371 157.9 194.701 152.91 195.801C147.91 196.891 142.87 197.781 137.8 198.521C132.73 199.241 127.64 199.751 122.53 200.151C117.42 200.521 112.3 200.701 107.18 200.781C102.06 200.801 96.93 200.711 91.81 200.431C86.69 200.131 81.58 199.711 76.48 199.081C66.3 197.801 56.17 195.881 46.3 192.891C36.47 189.881 26.77 185.991 18.09 180.171C15.91 178.731 13.87 177.091 11.88 175.371L10.45 174.001C9.97 173.551 9.5 173.091 9.06 172.581L7.72 171.111L6.49 169.541C4.92 167.401 3.46 165.101 2.54 162.531C1.58 159.991 1.03 157.271 1 154.521C1.03 151.771 1.58 149.051 2.54 146.511C3.47 143.941 4.92 141.651 6.49 139.501L7.72 137.931L9.06 136.461C9.5 135.961 9.96 135.491 10.45 135.041L11.88 133.671C13.87 131.951 15.91 130.311 18.09 128.871C26.76 123.041 36.46 119.151 46.29 116.141C56.15 113.141 66.29 111.231 76.47 109.951C81.56 109.321 86.68 108.901 91.8 108.601C96.92 108.321 102.05 108.231 107.17 108.251C112.29 108.331 117.41 108.511 122.52 108.881C127.63 109.271 132.72 109.791 137.79 110.511C142.86 111.241 147.9 112.141 152.9 113.231C157.9 114.331 162.84 115.671 167.72 117.191C177.46 120.271 187 124.271 195.46 130.031C197.59 131.441 199.58 133.061 201.51 134.741L202.89 136.071C203.36 136.511 203.81 136.961 204.23 137.441L205.51 138.861L206.68 140.381C208.18 142.441 209.55 144.631 210.41 147.051C211.3 149.441 211.8 151.981 211.83 154.541L211.84 154.501ZM211.84 154.501C211.8 151.941 211.29 149.411 210.39 147.021C209.52 144.611 208.14 142.431 206.64 140.381L205.46 138.871L204.17 137.451C203.75 136.971 203.3 136.521 202.83 136.081L201.45 134.761C199.52 133.091 197.53 131.491 195.4 130.091C186.91 124.391 177.33 120.541 167.6 117.561C157.83 114.601 147.78 112.691 137.67 111.421C132.61 110.791 127.53 110.371 122.45 110.081C117.36 109.801 112.27 109.711 107.18 109.731C102.09 109.811 97 109.991 91.92 110.361C86.85 110.751 81.78 111.261 76.75 111.981C71.72 112.711 66.71 113.601 61.76 114.681C56.8 115.771 51.9 117.091 47.07 118.601C37.43 121.641 28.01 125.611 19.73 131.241C17.65 132.621 15.71 134.201 13.84 135.821L12.51 137.111C12.06 137.531 11.62 137.971 11.22 138.431L9.98 139.801L8.86 141.251C7.43 143.211 6.13 145.291 5.33 147.551C4.5 149.791 4.04 152.141 4.01 154.501C4.04 156.871 4.5 159.221 5.33 161.461C6.13 163.721 7.43 165.791 8.86 167.761L9.98 169.211L11.22 170.581C11.62 171.051 12.06 171.481 12.51 171.901L13.84 173.191C15.71 174.811 17.64 176.391 19.73 177.771C28.01 183.411 37.43 187.371 47.07 190.411C51.9 191.921 56.8 193.241 61.76 194.331C66.72 195.411 71.72 196.301 76.76 197.031C81.79 197.751 86.86 198.261 91.93 198.651C97.01 199.021 102.09 199.201 107.19 199.281C112.28 199.301 117.38 199.211 122.46 198.931C127.55 198.631 132.63 198.211 137.68 197.581C147.79 196.311 157.85 194.401 167.61 191.441C177.34 188.461 186.93 184.611 195.41 178.911C197.54 177.511 199.53 175.901 201.46 174.241L202.84 172.921C203.31 172.491 203.76 172.041 204.18 171.551L205.47 170.131L206.65 168.621C208.15 166.571 209.53 164.391 210.4 161.981C211.3 159.591 211.81 157.061 211.85 154.501H211.84Z" fill="black"/>
<path d="M105.85 26.5086L52.8003 22.9286L52.0203 22.8786L43.4403 146.339C43.4403 146.339 40.0603 158.319 45.1003 164.159C50.1403 169.999 54.1403 172.949 54.1403 172.949L111.3 178.499H150.78L157.63 113.999L163.3 33.8286L112.6 6.83859L105.17 5.55859H52.8603L52.8203 20.2086" fill="white"/>
<path d="M57.0804 22.8498C53.3304 61.5098 51.0104 100.3 50.1304 139.13C49.9904 145.46 49.8904 151.91 51.6404 158C53.3904 164.09 60.2404 170.9 66.0504 173.42C61.3704 174.04 53.1304 173.48 49.4704 170.5C46.9804 168.47 44.4104 164.53 43.9104 161.36C42.0604 149.55 43.2804 137.38 45.0104 124.93L52.0204 22.8698L57.8004 22.8398" fill="#0ABBEF"/>
<path d="M96.1303 5.2298C78.9703 3.6398 61.8003 2.1698 44.6203 0.839797C44.2903 0.809797 43.9103 0.809797 43.6803 1.0498C43.5003 1.2298 43.4703 1.5098 43.4603 1.7598C43.2803 5.4198 45.1303 8.9198 47.5303 11.6898C48.5903 12.9098 49.7903 14.0398 51.2203 14.7898C53.2603 15.8498 55.6203 16.0698 57.9103 16.2498C59.9703 16.4098 62.0403 16.5598 64.1103 16.6898C62.1603 13.8698 60.4603 10.8798 59.0303 7.7598C69.9303 7.7598 80.8203 7.7398 91.7203 7.7298C97.9703 7.7298 104.28 7.7098 110.38 6.3898" fill="#0ABBEF"/>
<path d="M98.0305 43.7592L97.0605 41.1292C89.7005 39.1892 82.1805 37.8692 74.6105 37.1892C70.7305 36.8392 66.7205 36.6692 63.0505 37.9892C59.3805 39.3092 56.1205 42.4292 55.7505 46.3092C55.6405 47.4792 55.8005 48.6892 56.3405 49.7292C57.6205 52.1892 60.6405 53.1392 63.3905 53.5192C66.0105 53.8792 68.6605 53.9392 71.3005 53.9492C77.6305 53.9792 83.9505 53.7492 90.2605 53.2692C84.6405 52.6192 79.0105 51.9692 73.3905 51.3192C72.6905 51.7492 71.8205 52.0092 70.7905 52.0092C70.0005 52.0092 69.3105 51.8592 68.7105 51.5892C68.4205 51.6392 68.1105 51.6692 67.7905 51.6692C61.3405 51.6692 61.3605 41.6692 67.7905 41.6692C68.4005 41.6692 68.9505 41.7592 69.4505 41.9192C69.9205 41.8792 70.4005 41.8692 70.8605 41.8792C79.9105 41.9892 88.8605 44.3392 97.9005 43.9792C98.1305 43.9792 98.0505 43.5292 98.0205 43.7492L98.0305 43.7592Z" fill="#0ABBEF"/>
<path d="M137.59 68.318C114.27 63.008 90.0803 63.398 66.3303 60.558C64.5903 60.348 63.0103 61.608 62.8403 63.358C62.1903 70.258 61.5703 77.158 60.9703 84.058C60.8103 85.868 62.2303 87.438 64.0503 87.448C87.5603 87.688 111.07 87.398 134.57 86.588" fill="#0ABBEF"/>
<path d="M78.0302 154.109C78.1502 152.359 77.9002 150.379 76.5202 149.299C75.7702 148.719 74.8002 148.499 73.8602 148.439C72.8502 148.379 71.7902 148.509 70.9402 149.059C70.1102 149.589 69.5502 150.489 69.3302 151.459C69.1102 152.429 69.2202 153.439 69.5302 154.379C70.0102 155.829 71.0502 157.169 72.5102 157.629C72.0102 156.889 71.5602 156.059 71.5502 155.169C71.5302 153.859 72.5402 152.649 73.8002 152.269C75.0602 151.889 76.4802 152.269 77.5002 153.089" fill="#0ABBEF"/>
<path d="M93.0903 155.108C92.6203 154.428 92.1203 153.728 91.3803 153.378C90.4703 152.948 89.3203 153.158 88.5303 153.788C87.7403 154.418 87.2703 155.398 87.1303 156.398C87.0003 157.348 87.2503 158.498 88.1403 158.858C86.7503 158.288 85.9203 156.888 85.1803 155.578C84.9403 155.148 84.6903 154.698 84.6303 154.208C84.4903 153.158 85.1903 152.198 85.9303 151.448C86.5503 150.828 87.2503 150.258 88.0803 149.948C89.5703 149.398 91.3603 149.868 92.4503 151.028C93.5403 152.188 93.9203 153.938 93.4703 155.468" fill="#0ABBEF"/>
<path d="M68.7699 161.188C68.0699 160.478 67.1599 159.938 66.1599 159.818C65.1599 159.698 64.0999 160.028 63.4499 160.788C62.4299 161.978 62.6899 163.838 63.4399 165.218C62.6799 164.788 61.9399 164.288 61.3599 163.638C60.7799 162.988 60.3799 162.138 60.3799 161.268C60.3799 160.558 60.6499 159.878 61.0199 159.278C62.0599 157.638 64.0899 156.598 65.9899 156.988C67.8899 157.378 69.4099 159.338 69.0699 161.248" fill="#0ABBEF"/>
<path d="M84.4202 162.599C83.7602 161.629 82.6902 160.929 81.5202 160.859C80.3502 160.789 79.1402 161.399 78.6202 162.449C78.0202 163.649 78.4002 165.109 79.0002 166.309C78.1102 166.079 77.5502 165.199 77.1602 164.369C76.7202 163.449 76.3602 162.399 76.6602 161.429C76.9302 160.549 77.6902 159.919 78.4502 159.399C79.5002 158.679 80.6802 158.049 81.9502 157.999C83.2202 157.949 84.6002 158.609 85.0302 159.809C85.3002 160.559 85.1802 161.389 84.9802 162.159" fill="#0ABBEF"/>
<path d="M100.03 165.019C100.77 163.429 100.35 161.379 99.0398 160.209C97.7298 159.039 95.6398 158.869 94.1498 159.799C92.6598 160.729 91.8998 162.679 92.3698 164.369C92.6898 165.519 93.4898 166.469 94.3398 167.309C93.7898 166.189 93.4298 164.799 94.0798 163.729C94.3398 163.289 94.7498 162.959 95.1898 162.699C96.0898 162.169 97.1898 161.929 98.1798 162.239C99.1698 162.549 99.9799 163.499 99.9499 164.539" fill="#0ABBEF"/>
<path d="M102.82 159.209C102.13 158.299 101.88 157.069 102.2 155.979C102.52 154.889 103.44 153.979 104.54 153.719C105.64 153.459 106.9 153.889 107.57 154.799C108.28 155.759 108.3 157.039 108.29 158.229C108.59 157.319 108.89 156.389 108.95 155.429C109.01 154.469 108.8 153.449 108.19 152.719C107.82 152.279 107.32 151.959 106.79 151.739C104.84 150.959 102.43 151.689 101.12 153.339C100.66 153.929 100.31 154.639 100.33 155.389C100.35 156.589 101.26 157.559 102.11 158.409" fill="#0ABBEF"/>
<path d="M119.491 155.249C117.821 155.709 116.72 157.669 117.21 159.329C116.39 158.469 116.2 157.159 116.36 155.979C116.56 154.579 117.251 153.199 118.421 152.409C119.941 151.379 122.171 151.569 123.491 152.839C124.811 154.109 125.11 156.319 124.15 157.889C123.54 156.379 121.811 155.419 120.201 155.689" fill="#0ABBEF"/>
<path d="M115.12 165.17C115.72 164.13 115.55 162.74 114.81 161.8C114.07 160.86 112.84 160.36 111.64 160.41C110.44 160.46 109.3 161.01 108.42 161.81C107.38 162.77 106.66 164.2 106.93 165.59C107.16 166.77 108.09 167.76 109.22 168.18C108.41 166.7 108.97 164.62 110.41 163.74C111.85 162.86 113.95 163.31 114.9 164.7" fill="#0ABBEF"/>
<path d="M130.39 166.119C129.62 164.659 127.62 163.999 126.13 164.709C124.64 165.419 123.9 167.399 124.55 168.909C123.67 168.489 123.07 167.599 122.86 166.649C122.65 165.699 122.79 164.699 123.1 163.769C123.26 163.309 123.46 162.849 123.79 162.489C124.15 162.099 124.63 161.859 125.11 161.649C125.95 161.279 126.86 160.959 127.78 161.069C128.96 161.209 129.98 162.069 130.51 163.139C131.01 164.129 131.13 165.289 130.85 166.359" fill="#0ABBEF"/>
<path d="M167.61 28.5599L157.9 162.7L156.85 177.21C156.61 180.58 153.68 183.12 150.3 182.88L68.2196 176.94L63.8496 176.62C59.7796 176.32 56.0296 174.98 52.8496 172.86L141.66 179.29C145.04 179.54 147.97 177 148.22 173.62L158.76 27.9199L167.61 28.5599Z" fill="url(#paint1_linear_3089_55705)"/>
<path d="M109.2 20.2295L164.42 24.2295C172.32 24.7995 179.18 18.8595 179.75 10.9695L110.23 5.93945L109.2 20.2395V20.2295Z" fill="white"/>
<path d="M179.77 10.489H179.7L179.56 10.469L179.27 10.439L174.68 9.98897C171.62 9.67897 168.56 9.37897 165.5 9.10897C159.38 8.53897 153.24 8.07897 147.12 7.55897C135.37 6.57897 123.61 5.93897 111.83 5.37897C100.1 4.23897 88.3601 3.17897 76.5901 2.45897C70.4501 2.08897 64.3201 1.65897 58.1701 1.34897C55.1001 1.16897 52.0301 1.02897 48.9501 0.898972L44.3401 0.678972H44.0501L43.9101 0.658972H43.8401C44.2801 0.258972 43.2001 1.18897 43.3101 1.10897V1.73897C43.3201 2.13897 43.2801 2.52897 43.3401 2.92897L43.4601 4.10897L43.7001 5.26897C44.6701 9.76897 47.9001 13.529 52.0101 15.479C51.3301 15.449 50.6501 15.419 49.9601 15.389H49.9301C49.6401 15.379 49.3901 15.599 49.3801 15.899L49.2001 19.989V20.009C49.1901 20.239 49.3701 20.439 49.6001 20.449C50.1201 20.469 50.6501 20.509 51.1701 20.539C48.6501 54.179 46.3001 87.839 44.0401 121.499L42.3801 146.849C42.2601 148.979 42.0701 151.039 42.0001 153.219C41.9601 155.389 42.2201 157.569 42.7801 159.669C43.8801 163.869 46.2001 167.729 49.3601 170.689C50.2801 171.559 51.2901 172.349 52.3401 173.059C52.3801 173.169 52.4401 173.259 52.5501 173.329C54.8401 174.839 57.4101 175.929 60.0701 176.539C61.4001 176.839 62.7701 177.039 64.1201 177.109L68.1301 177.369L84.1601 178.439C89.0401 178.779 93.9101 179.119 98.7901 179.459L124.08 181.389L130.41 181.899L133.58 182.159C134.23 182.169 134.89 182.219 135.55 182.229L148.26 183.269L150.26 183.429C150.99 183.479 151.73 183.429 152.44 183.249C153.87 182.899 155.16 182.049 156.08 180.899C156.99 179.759 157.51 178.229 157.55 176.839L157.88 172.839L158.68 162.909C158.76 162.499 158.83 162.089 158.86 161.679C159.03 160.579 159.08 159.529 159.16 158.469L159.4 155.289L161.28 129.829C163.6 96.039 165.82 62.229 167.78 28.949C168.93 29.049 170.08 29.139 171.23 29.259C171.46 29.279 171.67 29.109 171.69 28.879V28.859L172.1 24.779C172.13 24.489 171.92 24.229 171.63 24.199H171.6C170.92 24.119 170.24 24.059 169.56 23.989C173.9 22.649 177.64 19.399 179.25 15.079L179.65 13.959L179.94 12.809C180.05 12.429 180.08 12.029 180.14 11.639L180.23 11.049V11.009C180.34 11.099 179.4 10.029 179.78 10.479L179.77 10.489ZM110.79 6.65897C111.1 6.66897 111.41 6.68897 111.72 6.70897C112.03 6.73897 112.34 6.76897 112.65 6.79897C112.57 8.88897 112.48 10.989 112.42 13.129L112.21 20.019C111.73 20.009 111.24 19.989 110.76 19.969C110.28 19.909 109.8 19.859 109.31 19.809L110.1 12.969C110.35 10.839 110.57 8.75897 110.79 6.67897V6.65897ZM48.9001 12.749C46.6201 10.779 45.0601 8.02897 44.4501 5.10897L44.2801 3.99897L44.2201 2.87897C44.1801 2.50897 44.2301 2.13897 44.2401 1.75897V1.63897H44.2801L48.8701 2.08897C51.9301 2.39897 54.9901 2.69897 58.0501 2.96897C64.1701 3.53897 70.3101 3.99897 76.4301 4.51897C87.4601 5.43897 98.5201 6.05897 109.58 6.59897C109.49 8.81897 109.39 11.029 109.33 13.209L109.14 19.779C105.01 19.309 100.88 18.859 96.7501 18.459C91.5601 17.969 86.3701 17.519 81.1801 17.129C75.9901 16.739 70.7801 16.469 65.5801 16.139C61.8101 15.919 58.0401 15.739 54.2701 15.569C53.7501 15.429 53.2301 15.279 52.7301 15.089C51.3201 14.549 50.0501 13.719 48.9001 12.749ZM43.9101 159.379C43.4101 157.379 43.1901 155.309 43.2601 153.249C43.3501 151.199 43.5701 149.039 43.7201 146.949L45.7201 121.619C48.3101 88.189 50.8101 54.739 53.1501 21.289L81.0201 23.199L109.91 25.119L123.63 25.989C123.76 25.999 123.89 26.019 124.02 26.029C129.19 26.519 134.4 26.999 139.69 27.339C144.98 27.659 150.31 27.819 155.57 28.059C156.56 28.109 157.53 28.179 158.51 28.239C157.64 38.289 156.78 48.329 155.98 58.389L153.53 88.889L151.15 119.389L148.9 149.899L147.78 165.159L147.22 172.789C147.19 173.089 147.18 173.459 147.15 173.709C147.13 173.969 147.07 174.229 147.01 174.489C146.87 174.999 146.66 175.489 146.38 175.939C145.8 176.819 144.96 177.549 143.97 177.919C143.48 178.109 142.96 178.239 142.43 178.269C142.16 178.299 141.92 178.269 141.61 178.269L140.66 178.199L136.84 177.939L129.21 177.409L113.95 176.349L52.9001 172.309C51.8901 171.609 50.9301 170.829 50.0401 169.979C47.0601 167.109 44.9001 163.389 43.9101 159.389V159.379ZM133.64 181.159L130.47 180.959L124.13 180.559L98.7801 178.829C98.1601 178.789 97.5501 178.739 96.9301 178.699C92.6901 178.379 88.4401 178.059 84.2001 177.749L68.1801 176.499L64.1801 176.179C62.8601 176.089 61.5701 175.879 60.2901 175.569C58.5201 175.129 56.8101 174.459 55.2001 173.609L113.8 178.219L129.05 179.369L136.68 179.949L140.49 180.239L141.37 180.309C139.86 180.759 138.31 181.049 136.73 181.139C135.7 181.269 134.67 181.169 133.63 181.169L133.64 181.159ZM167.51 28.929C165.69 50.429 163.93 71.709 162.25 92.929L159.78 124.849C158.96 135.479 158.26 146.099 157.51 156.739L157.19 161.779C156.94 163.719 156.54 165.619 155.73 167.409C155.37 168.369 154.87 169.259 154.39 170.169C153.83 171.029 153.31 171.919 152.65 172.699C152.04 173.529 151.3 174.249 150.6 174.999C149.82 175.669 149.08 176.379 148.22 176.959C148.22 176.959 148.22 176.959 148.21 176.959C148.58 176.359 148.87 175.709 149.06 175.029C149.15 174.669 149.23 174.299 149.26 173.929C149.31 173.549 149.32 173.279 149.35 172.939L149.9 165.309L150.99 150.049L153.15 119.529L155.18 88.999L157.15 58.469C157.8 48.409 158.4 38.339 158.98 28.269C161.84 28.449 164.69 28.659 167.53 28.919L167.51 28.929ZM156.23 176.759C156.21 178.049 155.82 179.169 155.09 180.149C154.35 181.099 153.31 181.829 152.13 182.129C151.54 182.289 150.94 182.339 150.33 182.319L148.33 182.189L140.56 181.699C141.45 181.499 142.33 181.259 143.19 180.969C145.25 180.289 147.2 179.269 148.98 178.019C149.89 177.419 150.7 176.689 151.53 175.989C152.29 175.209 153.09 174.459 153.75 173.589C154.47 172.769 155.04 171.829 155.65 170.929C156.02 170.259 156.4 169.589 156.74 168.899L156.49 172.759L156.24 176.769L156.23 176.759ZM179.22 11.529C179.17 11.899 179.17 12.279 179.08 12.639L178.86 13.739L178.53 14.809C177.51 17.619 175.57 20.109 173.02 21.729C171.75 22.519 170.36 23.169 168.89 23.489C168.36 23.609 167.83 23.689 167.3 23.749C163.54 23.369 159.79 22.999 156.03 22.679C150.84 22.249 145.65 21.769 140.45 21.409C135.25 21.049 130.05 20.739 124.85 20.479C120.7 20.279 116.55 20.119 112.4 19.999L113.16 13.469C113.42 11.309 113.64 9.10897 113.87 6.89897C124.89 7.95897 135.92 8.93897 146.97 9.61897C153.11 9.98897 159.24 10.419 165.39 10.729C168.46 10.909 171.53 11.049 174.61 11.179L179.22 11.399H179.25L179.24 11.519L179.22 11.529Z" fill="black"/>
<path d="M69.3405 163.289C69.2105 165.109 67.6306 166.469 65.8106 166.339C63.9906 166.209 62.6305 164.629 62.7605 162.809C62.8905 160.989 64.4705 159.629 66.2905 159.759C68.1105 159.889 69.4705 161.469 69.3405 163.289Z" fill="white"/>
<path d="M84.6902 164.4C84.5602 166.22 82.9802 167.58 81.1602 167.45C79.3402 167.32 77.9802 165.74 78.1102 163.92C78.2402 162.1 79.8202 160.74 81.6402 160.87C83.4602 161 84.8202 162.58 84.6902 164.4Z" fill="white"/>
<path d="M100.03 165.509C99.9 167.329 98.32 168.689 96.5 168.559C94.68 168.429 93.32 166.849 93.45 165.029C93.58 163.209 95.16 161.849 96.98 161.979C98.8 162.109 100.16 163.689 100.03 165.509Z" fill="white"/>
<path d="M115.37 166.619C115.24 168.439 113.66 169.799 111.84 169.669C110.02 169.539 108.66 167.959 108.79 166.139C108.92 164.319 110.5 162.959 112.32 163.089C114.14 163.219 115.5 164.799 115.37 166.619Z" fill="white"/>
<path d="M130.72 167.728C130.59 169.548 129.01 170.908 127.19 170.778C125.37 170.648 124.01 169.068 124.14 167.248C124.27 165.428 125.85 164.068 127.67 164.198C129.49 164.328 130.85 165.908 130.72 167.728Z" fill="white"/>
<path d="M93.2717 156.301C93.3499 154.48 91.9372 152.94 90.1164 152.862C88.2955 152.784 86.756 154.197 86.6778 156.017C86.5995 157.838 88.0122 159.378 89.8331 159.456C91.654 159.534 93.1935 158.122 93.2717 156.301Z" fill="white"/>
<path d="M108.6 157.5C108.47 159.32 106.89 160.68 105.07 160.55C103.25 160.42 101.89 158.84 102.02 157.02C102.15 155.2 103.73 153.84 105.55 153.97C107.37 154.1 108.73 155.68 108.6 157.5Z" fill="white"/>
<path d="M67.9703 159.238C67.4903 158.938 66.9403 158.758 66.3703 158.698C65.2303 158.578 64.0603 159.058 63.2803 159.848C62.4703 160.618 62.0903 161.768 62.2203 162.778C62.3403 163.798 62.7503 164.668 63.3203 165.428C63.8703 166.168 64.6603 166.968 65.7603 167.178C66.8303 167.408 68.0403 166.928 68.6303 166.028C69.2403 165.128 69.3503 164.158 69.4503 163.298C69.5103 162.428 69.5303 161.448 69.0603 160.458C68.8203 159.978 68.4503 159.538 67.9803 159.238H67.9703ZM67.7903 165.068C67.0803 165.308 66.5203 165.418 65.8703 165.518C65.2403 165.618 64.3703 165.578 63.8003 165.008C63.2303 164.458 63.0603 163.568 63.3103 162.858C63.5603 162.148 64.0203 161.638 64.5103 161.278C65.0403 160.928 65.6303 160.828 66.2103 160.828C66.8003 160.848 67.3703 161.008 68.0403 161.328C68.7103 161.648 69.3103 162.428 69.2403 163.278C69.2103 164.148 68.4903 164.828 67.7903 165.058V165.068Z" fill="black"/>
<path d="M83.3102 160.347C82.8302 160.047 82.2802 159.867 81.7102 159.807C80.5702 159.687 79.4002 160.167 78.6202 160.957C77.8102 161.727 77.4302 162.877 77.5602 163.887C77.6802 164.907 78.0902 165.777 78.6602 166.537C79.2102 167.277 80.0002 168.077 81.1002 168.287C82.1702 168.517 83.3802 168.037 83.9702 167.137C84.5802 166.237 84.6902 165.267 84.7902 164.407C84.8502 163.537 84.8702 162.557 84.4002 161.567C84.1602 161.087 83.7902 160.647 83.3202 160.347H83.3102ZM83.1402 166.177C82.4302 166.417 81.8702 166.527 81.2202 166.627C80.5902 166.717 79.7202 166.687 79.1502 166.117C78.5802 165.567 78.4102 164.677 78.6602 163.967C78.9102 163.257 79.3702 162.747 79.8602 162.387C80.3902 162.037 80.9802 161.937 81.5602 161.937C82.1502 161.957 82.7202 162.117 83.3902 162.437C84.0602 162.757 84.6602 163.537 84.5902 164.387C84.5602 165.257 83.8402 165.937 83.1402 166.167V166.177Z" fill="black"/>
<path d="M98.65 161.459C98.17 161.159 97.62 160.979 97.05 160.919C95.91 160.799 94.74 161.279 93.96 162.069C93.15 162.839 92.77 163.989 92.9 164.999C93.02 166.019 93.43 166.889 94 167.649C94.55 168.389 95.34 169.189 96.44 169.399C97.51 169.629 98.72 169.149 99.31 168.249C99.92 167.349 100.03 166.379 100.13 165.519C100.19 164.649 100.21 163.669 99.74 162.679C99.5 162.199 99.13 161.759 98.66 161.459H98.65ZM98.48 167.289C97.77 167.529 97.21 167.639 96.56 167.739C95.93 167.839 95.06 167.799 94.49 167.229C93.92 166.679 93.75 165.789 94 165.079C94.25 164.369 94.71 163.859 95.2 163.499C95.73 163.149 96.32 163.049 96.9 163.049C97.49 163.069 98.06 163.229 98.73 163.549C99.4 163.869 100 164.649 99.93 165.499C99.9 166.369 99.18 167.049 98.48 167.279V167.289Z" fill="black"/>
<path d="M115.081 163.788C114.841 163.308 114.471 162.868 114.001 162.568C113.521 162.268 112.971 162.088 112.401 162.028C111.261 161.908 110.091 162.388 109.311 163.178C108.501 163.948 108.121 165.098 108.251 166.108C108.371 167.128 108.781 167.998 109.351 168.758C109.901 169.498 110.691 170.298 111.791 170.508C112.861 170.738 114.071 170.258 114.661 169.358C115.271 168.458 115.381 167.488 115.481 166.628C115.541 165.758 115.561 164.778 115.091 163.788H115.081ZM113.831 168.398C113.121 168.638 112.561 168.748 111.911 168.848C111.281 168.938 110.411 168.908 109.841 168.338C109.271 167.788 109.101 166.898 109.351 166.188C109.601 165.478 110.061 164.968 110.551 164.608C111.081 164.258 111.671 164.158 112.251 164.158C112.841 164.178 113.411 164.338 114.081 164.658C114.751 164.978 115.351 165.758 115.281 166.608C115.251 167.478 114.531 168.158 113.831 168.388V168.398Z" fill="black"/>
<path d="M77.6206 152.448C77.3806 151.968 77.0106 151.528 76.5406 151.228C76.0606 150.928 75.5106 150.748 74.9406 150.688C73.8006 150.568 72.6306 151.048 71.8506 151.838C71.0406 152.608 70.6606 153.758 70.7906 154.768C70.9106 155.788 71.3206 156.658 71.8906 157.418C72.4406 158.158 73.2306 158.958 74.3306 159.168C75.4006 159.398 76.6106 158.918 77.2006 158.018C77.8106 157.118 77.9206 156.148 78.0206 155.288C78.0806 154.418 78.1007 153.438 77.6307 152.448H77.6206ZM76.3706 157.058C75.6606 157.298 75.1006 157.408 74.4506 157.508C73.8206 157.598 72.9507 157.568 72.3807 156.998C71.8107 156.448 71.6406 155.558 71.8906 154.848C72.1406 154.138 72.6006 153.628 73.0906 153.268C73.6206 152.918 74.2106 152.818 74.7906 152.818C75.3806 152.838 75.9506 152.998 76.6206 153.318C77.2906 153.638 77.8906 154.418 77.8206 155.268C77.7906 156.138 77.0706 156.818 76.3706 157.048V157.058Z" fill="black"/>
<path d="M92.9703 153.558C92.7303 153.078 92.3603 152.638 91.8903 152.338C91.4103 152.038 90.8603 151.858 90.2903 151.798C89.1503 151.678 87.9803 152.158 87.2003 152.948C86.3903 153.718 86.0103 154.868 86.1403 155.878C86.2603 156.898 86.6703 157.768 87.2403 158.528C87.7903 159.268 88.5803 160.068 89.6803 160.278C90.7503 160.508 91.9603 160.028 92.5503 159.128C93.1603 158.228 93.2703 157.258 93.3703 156.398C93.4303 155.528 93.4503 154.548 92.9803 153.558H92.9703ZM91.7103 158.168C91.0003 158.408 90.4403 158.518 89.7903 158.618C89.1603 158.718 88.2903 158.678 87.7203 158.108C87.1503 157.558 86.9803 156.668 87.2303 155.958C87.4803 155.248 87.9403 154.738 88.4303 154.378C88.9603 154.028 89.5503 153.928 90.1303 153.928C90.7203 153.948 91.2903 154.108 91.9603 154.428C92.6303 154.748 93.2303 155.528 93.1603 156.378C93.1303 157.248 92.4103 157.928 91.7103 158.158V158.168Z" fill="black"/>
<path d="M108.31 154.669C108.07 154.189 107.7 153.749 107.23 153.449C106.75 153.149 106.2 152.969 105.63 152.909C104.49 152.789 103.32 153.269 102.54 154.059C101.73 154.829 101.35 155.979 101.48 156.989C101.6 158.009 102.01 158.879 102.58 159.639C103.13 160.379 103.92 161.179 105.02 161.389C106.09 161.619 107.3 161.139 107.89 160.239C108.5 159.339 108.61 158.369 108.71 157.509C108.77 156.639 108.79 155.659 108.32 154.669H108.31ZM107.05 159.279C106.34 159.519 105.78 159.629 105.13 159.729C104.5 159.819 103.63 159.789 103.06 159.219C102.49 158.669 102.32 157.779 102.57 157.069C102.82 156.359 103.28 155.849 103.77 155.489C104.3 155.139 104.89 155.039 105.47 155.039C106.06 155.059 106.63 155.219 107.3 155.539C107.97 155.859 108.57 156.639 108.5 157.489C108.47 158.359 107.75 159.039 107.05 159.269V159.279Z" fill="black"/>
<path d="M123.95 158.609C123.82 160.429 122.24 161.789 120.42 161.659C118.6 161.529 117.24 159.949 117.37 158.129C117.5 156.309 119.08 154.949 120.9 155.079C122.72 155.209 124.08 156.789 123.95 158.609Z" fill="white"/>
<path d="M130.43 164.897C130.19 164.417 129.82 163.977 129.35 163.677C128.87 163.377 128.32 163.197 127.75 163.137C126.61 163.017 125.44 163.497 124.66 164.287C123.85 165.057 123.47 166.207 123.6 167.217C123.72 168.237 124.13 169.107 124.7 169.867C125.25 170.607 126.04 171.407 127.14 171.617C128.21 171.847 129.42 171.367 130.01 170.467C130.62 169.567 130.73 168.597 130.83 167.737C130.89 166.867 130.91 165.887 130.44 164.897H130.43ZM129.17 169.507C128.46 169.747 127.9 169.857 127.25 169.957C126.62 170.057 125.75 170.017 125.18 169.447C124.61 168.897 124.44 168.007 124.69 167.297C124.94 166.587 125.4 166.077 125.89 165.717C126.42 165.367 127.01 165.267 127.59 165.267C128.18 165.287 128.75 165.447 129.42 165.767C130.09 166.087 130.69 166.867 130.62 167.717C130.59 168.587 129.87 169.267 129.17 169.497V169.507Z" fill="black"/>
<path d="M123.65 155.778C123.41 155.298 123.04 154.858 122.57 154.558C122.09 154.258 121.54 154.078 120.97 154.018C119.83 153.898 118.66 154.378 117.88 155.168C117.07 155.938 116.69 157.088 116.82 158.098C116.94 159.118 117.35 159.988 117.92 160.748C118.47 161.488 119.26 162.288 120.36 162.498C121.43 162.728 122.64 162.248 123.23 161.348C123.84 160.448 123.95 159.478 124.05 158.618C124.11 157.748 124.13 156.768 123.66 155.778H123.65ZM122.4 160.388C121.69 160.628 121.13 160.738 120.48 160.838C119.85 160.938 118.98 160.898 118.41 160.328C117.84 159.778 117.67 158.888 117.92 158.178C118.17 157.468 118.63 156.958 119.12 156.598C119.65 156.248 120.24 156.148 120.82 156.148C121.41 156.168 121.98 156.328 122.65 156.648C123.32 156.968 123.92 157.748 123.85 158.598C123.82 159.468 123.1 160.148 122.4 160.378V160.388Z" fill="black"/>
<path d="M148.06 61.7084C141.31 61.0484 134.55 60.5084 127.79 59.9484C121.03 59.3684 114.27 58.8184 107.51 58.3384C100.75 57.8184 93.98 57.3784 87.21 56.9184L66.9 55.6484C66.75 55.6484 66.62 55.7484 66.61 55.8984L66.54 57.1284C66.54 57.2684 66.63 57.3884 66.77 57.4084C73.54 58.0684 80.29 58.7284 87.05 59.5284L107.4 61.9484C114.19 62.7284 120.95 63.3884 127.7 64.0784C134.44 64.7484 141.15 65.3784 147.79 65.9784L148.13 61.8084C148.13 61.8084 148.1 61.7284 148.06 61.7284V61.7084Z" fill="black"/>
<path d="M89.5205 52.9292L118.901 2.44922L164.841 27.6192L146.881 57.0792L89.5205 52.9292Z" fill="url(#paint2_linear_3089_55705)"/>
<path d="M165.2 26.9692L153.59 20.9092C149.71 18.8992 145.87 16.8292 142.03 14.7492C134.33 10.6292 126.79 6.22918 119.23 1.85918C118.92 1.67918 118.53 1.77918 118.35 2.07918L118.33 2.10918C115.76 6.29918 113.18 10.5292 110.71 14.8092C108.22 19.0892 105.8 23.3892 103.4 27.6692L96.3304 40.4492L89.4404 52.9792L117.76 55.6992C122.57 56.1392 127.39 56.6092 132.25 57.0092C137.1 57.4192 141.96 57.8092 146.82 58.1392H146.83C147.21 58.1692 147.59 57.9792 147.8 57.6292L156.68 42.8392C159.65 37.9092 162.56 32.9592 165.48 28.0092V27.9892L165.51 27.9592C165.7 27.5992 165.56 27.1592 165.2 26.9692ZM155.05 41.8592L146.32 55.9792C141.83 55.6392 137.35 55.3492 132.85 55.0792C128.15 54.7892 123.41 54.5692 118.65 54.3192L111.56 53.9692L124.6 47.7692L120.25 8.00918L122.64 45.6092L108.55 53.8092L89.6004 52.8792L105.02 27.6992C107.51 23.5692 109.99 19.4592 112.4 15.3192C114.72 11.3692 116.94 7.36918 119.16 3.33918C126.72 7.24918 134.28 11.1492 141.7 15.3192C145.52 17.4392 149.33 19.5592 153.11 21.7492L163.78 27.8792C160.85 32.5292 157.92 37.1792 155.04 41.8492L155.05 41.8592Z" fill="black"/>
<path d="M66.0185 63.6284L64.5342 84.1348L145.702 90.0099L147.186 69.5035L66.0185 63.6284Z" fill="white"/>
<path d="M147.26 68.8193H147.23L126.96 67.0393C120.2 66.4893 113.44 65.9693 106.67 65.5093L86.3698 64.1993C79.5998 63.7893 72.8298 63.4093 66.0498 63.0793H66.0298C65.7298 63.0593 65.4798 63.2893 65.4698 63.5893L64.9098 73.8593L64.2398 84.1193C64.2298 84.2893 64.3498 84.4293 64.5198 84.4393C71.2998 84.9193 78.0798 85.5793 84.9098 86.2193C91.7298 86.8593 98.5998 87.4893 105.41 87.9293C112.22 88.3693 119.03 88.7993 125.76 89.1393L135.83 89.6593L145.77 90.0893L146.85 79.9593L147.88 69.5593C147.91 69.1793 147.64 68.8593 147.27 68.8293L147.26 68.8193ZM145.63 89.9293L135.28 88.8893L125.06 87.9393C118.26 87.2993 111.55 86.7493 104.83 86.2093C98.1198 85.6693 91.4598 85.3193 84.7498 84.9793C78.1498 84.6493 71.4998 84.3293 64.8498 83.8493L65.6398 73.8993L66.5098 64.2093C73.0798 64.8393 79.6598 65.4193 86.2398 65.9793L106.52 67.6093C113.28 68.1293 120.05 68.5793 126.82 69.0193L146.47 70.1393L146.05 79.5493L145.64 89.9293H145.63Z" fill="black"/>
<path d="M87.0405 69.7981L80.4605 69.4481C80.1705 69.4181 79.9605 69.6381 79.9305 69.9081C79.6305 73.2981 79.3805 76.7681 79.1605 80.2281C79.1405 80.5081 79.3505 80.7381 79.6305 80.7581C79.9305 80.7781 80.1405 80.5681 80.1605 80.2881C80.3605 77.0081 80.6105 73.7081 80.8805 70.4781L86.5005 70.7781C86.4605 73.9981 86.3405 77.2581 86.1505 80.4981C86.1305 80.7781 86.3405 81.0081 86.6205 81.0281C86.6205 81.0281 86.6405 81.0281 86.6505 81.0281C86.9105 81.0281 87.1305 80.8181 87.1505 80.5581C87.3505 77.1481 87.4705 73.6981 87.5105 70.3181C87.5105 70.0481 87.3005 69.8281 87.0405 69.8181V69.7981Z" fill="black"/>
<path d="M95.6107 70.249C94.2907 70.159 93.0107 70.639 92.0107 71.609C91.0207 72.569 90.4207 73.879 90.3207 75.319C90.2207 76.759 90.6207 78.149 91.4607 79.239C92.3107 80.339 93.5107 81.009 94.8307 81.099C94.9407 81.099 95.0507 81.109 95.1507 81.109C97.7207 81.109 99.9107 78.899 100.121 76.029C100.341 73.039 98.3107 70.449 95.6107 70.249ZM94.9007 80.099C93.8707 80.029 92.9307 79.499 92.2507 78.629C91.5607 77.739 91.2307 76.589 91.3207 75.399C91.4107 74.209 91.9007 73.119 92.7107 72.329C93.4407 71.619 94.3507 71.239 95.2907 71.239C95.3707 71.239 95.4607 71.239 95.5407 71.239C97.6907 71.399 99.3007 73.509 99.1207 75.949C98.9407 78.389 97.0307 80.269 94.8907 80.089L94.9007 80.099Z" fill="black"/>
<path d="M108.89 71.6276C108.62 71.6076 108.37 71.8076 108.35 72.0876C108.2 73.9176 108.01 75.7475 107.8 77.5775C107.77 77.5975 107.74 77.6076 107.72 77.6276C107.58 77.7576 107.22 77.7176 107.02 77.7076C106.34 77.6476 105.63 77.5875 105.01 77.3275C104.4 77.0775 103.95 76.6275 103.82 76.1375C103.74 75.8575 103.76 75.5176 103.77 75.2276C103.82 73.9376 103.91 72.6376 104.03 71.3676C104.06 71.0876 103.85 70.8475 103.58 70.8275C103.31 70.8075 103.06 71.0076 103.04 71.2776C102.92 72.5676 102.83 73.8876 102.78 75.1876C102.77 75.5376 102.75 75.9775 102.87 76.3975C103.09 77.1975 103.73 77.8775 104.65 78.2475C105.41 78.5575 106.23 78.6276 106.95 78.6976C107.06 78.6976 107.19 78.7175 107.34 78.7175C107.45 78.7175 107.56 78.7076 107.68 78.6876C107.55 79.7276 107.43 80.7676 107.28 81.7976C107.24 82.0676 107.43 82.3276 107.7 82.3676C107.72 82.3676 107.75 82.3676 107.77 82.3676C108.01 82.3676 108.23 82.1876 108.26 81.9376C108.74 78.6976 109.11 75.4076 109.37 72.1576C109.39 71.8776 109.19 71.6376 108.91 71.6176L108.89 71.6276Z" fill="black"/>
<path d="M121.84 72.2182L112.63 71.5482C112.35 71.5282 112.12 71.7382 112.09 72.0082C112.07 72.2882 112.28 72.5182 112.55 72.5482L116.56 72.8382L115.87 82.3282C115.85 82.6082 116.06 82.8382 116.33 82.8682C116.34 82.8682 116.35 82.8682 116.37 82.8682C116.63 82.8682 116.85 82.6682 116.87 82.4082L117.56 72.9182L121.76 73.2182C121.76 73.2182 121.78 73.2182 121.8 73.2182C122.06 73.2182 122.28 73.0182 122.3 72.7582C122.32 72.4782 122.11 72.2482 121.84 72.2182Z" fill="black"/>
<path d="M133.28 79.5378C133.28 79.3978 133.24 79.2678 133.16 79.1778C133.11 78.6478 133.03 78.1178 132.94 77.5978C132.74 76.5178 132.38 75.1578 131.4 74.2278C130.52 73.4078 129.4 73.1378 128.61 73.0578C128.27 73.0278 127.76 72.9978 127.28 73.1778C126.11 73.5878 125.61 74.8478 125.3 75.8978C124.62 78.2478 124.14 80.6778 123.87 83.1078C123.84 83.3778 124.04 83.6278 124.31 83.6578C124.57 83.6878 124.83 83.4878 124.86 83.2178C125 81.9678 125.2 80.7178 125.45 79.4778L132.21 79.9678C132.3 81.3178 132.25 82.6678 132.05 84.0078C132.01 84.2778 132.2 84.5378 132.47 84.5778C132.5 84.5778 132.52 84.5778 132.55 84.5778C132.79 84.5778 133.01 84.3978 133.04 84.1578C133.26 82.6978 133.31 81.2378 133.21 79.7778C133.25 79.7078 133.29 79.6378 133.29 79.5478L133.28 79.5378ZM125.66 78.4878C125.84 77.7078 126.03 76.9378 126.25 76.1778C126.49 75.3578 126.86 74.3878 127.6 74.1178C127.83 74.0378 128.12 74.0178 128.5 74.0578C129.13 74.1178 130.03 74.3278 130.7 74.9578C131.48 75.6878 131.78 76.8478 131.95 77.7878C132.02 78.1778 132.07 78.5678 132.12 78.9678L125.66 78.4978V78.4878Z" fill="black"/>
<path d="M150.73 50.8982C151.18 52.1882 151.03 53.6982 150.32 54.9282C149.62 56.1682 148.37 57.1282 146.92 57.4282C146.2 57.5982 145.43 57.5582 144.8 57.5282L142.81 57.4482L138.83 57.2682C133.53 56.9982 128.23 56.6782 122.94 56.1782C117.66 55.6482 112.38 54.9782 107.09 54.5182C101.8 54.0582 96.5003 53.7982 91.1903 53.5882C85.8803 53.3982 80.5803 53.1582 75.2803 52.8282L71.3104 52.5882L69.3203 52.4682C68.9703 52.4482 68.6903 52.4382 68.2903 52.3982C67.8903 52.3582 67.4903 52.2882 67.1103 52.1682C65.5603 51.6982 64.2403 50.5482 63.5603 49.0782C62.8603 47.6082 62.8103 45.8582 63.4303 44.3582C64.0503 42.8582 65.3003 41.6482 66.8203 41.0882C67.5703 40.8082 68.3903 40.6882 69.1803 40.7282C69.8903 40.7682 70.5203 40.8482 71.1903 40.8982L79.1203 41.6582C84.4004 42.2082 89.6804 42.7782 94.9504 43.4882C95.0004 43.4882 95.0403 43.5482 95.0403 43.5982C95.0403 43.6482 94.9903 43.6882 94.9403 43.6882C89.6203 43.6382 84.3103 43.4382 79.0103 43.2282L71.0604 42.8382L69.1003 42.7382C68.5703 42.7182 68.0504 42.8082 67.5604 43.0082C66.5904 43.3882 65.7904 44.1982 65.4204 45.1582C65.0404 46.1182 65.0503 47.2382 65.5003 48.1782C65.9403 49.1182 66.7803 49.8582 67.7603 50.1882C68.0103 50.2782 68.2604 50.3282 68.5204 50.3582C68.7804 50.3982 69.1604 50.4182 69.4804 50.4482L71.4603 50.6182L75.4303 50.9582C80.7203 51.3982 86.0003 51.9282 91.2803 52.4982C96.5603 53.0582 101.85 53.5582 107.15 53.8682C112.45 54.1782 117.76 54.2682 123.07 54.5082C128.37 54.7782 133.66 55.2182 138.95 55.7182L142.91 56.1082L144.89 56.3082C145.58 56.3882 146.15 56.4682 146.73 56.3782C147.9 56.2182 149.03 55.5682 149.75 54.5582C150.47 53.5582 150.77 52.2282 150.54 50.9382C150.54 50.8882 150.57 50.8282 150.62 50.8182C150.67 50.8182 150.72 50.8382 150.73 50.8882V50.8982Z" fill="black"/>
<path d="M105.418 222.748C118.455 222.748 129.024 211.863 129.024 198.436C129.024 185.008 118.455 174.123 105.418 174.123C92.3803 174.123 81.8115 185.008 81.8115 198.436C81.8115 211.863 92.3803 222.748 105.418 222.748Z" fill="white"/>
<path d="M119.533 178.76C124.49 182.57 128.402 188.129 129.736 194.687C131.177 201.183 129.524 208.428 125.446 213.691C121.367 219 115.227 222.185 108.98 222.997C102.734 223.887 96.1844 222.42 90.8628 218.703C85.5109 215.065 81.6296 208.959 80.5986 202.276C79.4767 195.608 81.0686 188.426 85.0712 182.96C89.0283 177.495 95.2747 173.81 101.749 173.341C108.222 172.764 114.56 174.965 119.533 178.76ZM119.351 179.025C114.393 175.2 107.828 174.107 102.067 175.465C96.3057 176.839 91.1509 180.212 87.7851 185.022C84.4041 189.784 82.7667 195.874 83.5399 201.808C84.298 207.726 87.2696 213.363 91.8938 217.267C96.5028 221.17 102.84 223.013 108.829 221.951C114.833 220.92 120.079 217.048 123.323 212.082C126.643 207.117 128.205 201.089 127.765 194.984C127.31 188.91 124.369 182.757 119.351 179.025Z" fill="black"/>
<path d="M97.1699 207.553C97.0637 207.225 97.1699 206.803 97.3215 206.538C97.5792 206.116 98.0037 206.163 98.4131 206.054C98.7618 205.976 98.7012 206.054 98.6708 205.663C98.595 204.758 98.3221 203.868 98.2312 202.946C98.125 201.963 98.0795 200.963 98.0947 199.964C98.0947 198.965 98.1705 197.965 98.2463 196.966C98.2918 196.466 98.3373 195.966 98.3979 195.467C98.4434 195.061 98.6102 194.467 98.5041 194.093C98.2008 194.171 97.837 194.952 97.5944 195.217C97.2457 195.576 96.8363 195.888 96.3512 195.982C96.2299 196.013 96.0934 196.013 95.9721 195.982C95.6386 195.842 95.6841 195.342 95.8205 194.998C96.427 193.421 97.7763 192.375 98.4889 190.86C98.777 190.251 98.8073 189.517 99.1712 188.955C99.2621 188.768 99.4441 188.627 99.5653 188.549C99.8837 188.362 100.414 188.362 100.718 188.503C101.567 188.877 101.855 189.986 102.082 190.829C102.673 193.047 102.31 195.467 102.173 197.731C102.097 199.074 102.006 200.432 101.9 201.775C101.809 202.978 101.931 204.524 101.445 205.632C101.233 206.116 101.233 206.257 101.733 206.382C102.067 206.475 102.431 206.819 102.355 207.209C102.264 207.647 101.794 207.756 101.43 207.803C100.354 207.943 99.2773 208.037 98.2008 208.053C97.8824 208.053 97.5186 208.037 97.3063 207.771C97.2457 207.709 97.2154 207.615 97.185 207.537L97.1699 207.553Z" fill="black"/>
<path d="M107.858 206.961C106.706 206.571 105.675 205.962 105.023 204.885C102.931 201.371 103.022 196.89 104.932 193.33C105.751 191.815 107.009 190.16 108.677 189.691C109.268 189.519 109.875 189.348 110.496 189.395C111.876 189.519 112.877 190.691 113.513 191.862C115.196 194.953 115.045 198.42 114.165 201.746L113.983 202.199C113.892 202.293 113.801 202.527 113.756 202.699C113.619 203.105 113.316 203.745 113.134 203.979C112.452 204.869 112.118 205.806 111.148 206.446C110.193 207.071 108.935 207.383 107.858 206.946V206.961ZM110.42 204.666C110.527 204.588 110.618 204.51 110.708 204.416C111.391 203.698 111.846 202.62 112.194 201.684C112.619 200.591 112.907 199.466 113.104 198.311C113.256 197.405 113.347 196.484 113.18 195.594C112.952 194.376 112.058 193.095 110.906 192.642C110.618 192.533 110.299 192.518 110.026 192.658C109.829 192.767 109.678 192.97 109.556 193.173C108.692 194.563 108.146 196.312 107.964 197.936C107.828 199.091 107.858 200.247 107.995 201.403C108.116 202.339 108.207 203.557 108.813 204.323C109.101 204.697 109.571 204.947 110.026 204.838C110.163 204.807 110.299 204.744 110.42 204.65V204.666Z" fill="black"/>
<defs>
<linearGradient id="paint0_linear_3089_55705" x1="2.50977" y1="154.5" x2="211.84" y2="154.5" gradientUnits="userSpaceOnUse">
<stop stop-color="#76B82A"/>
<stop offset="0.26" stop-color="#73B42A"/>
<stop offset="0.49" stop-color="#6DA92A"/>
<stop offset="0.72" stop-color="#61972A"/>
<stop offset="0.93" stop-color="#517D2B"/>
<stop offset="1" stop-color="#4C742C"/>
</linearGradient>
<linearGradient id="paint1_linear_3089_55705" x1="52.8496" y1="105.41" x2="167.61" y2="105.41" gradientUnits="userSpaceOnUse">
<stop stop-color="#0ABBEF"/>
<stop offset="0.24" stop-color="#0D9ACF"/>
<stop offset="0.76" stop-color="#14598E"/>
<stop offset="1" stop-color="#174075"/>
</linearGradient>
<linearGradient id="paint2_linear_3089_55705" x1="110.21" y1="57.5493" x2="148.71" y2="2.54932" gradientUnits="userSpaceOnUse">
<stop stop-color="#A3A3A3"/>
<stop offset="1" stop-color="#ECECEC"/>
</linearGradient>
</defs>
</svg>
