<svg width="239" height="155" fill="none" xmlns="http://www.w3.org/2000/svg"><g clip-path="url(#a)"><path d="M124.72 135.94c62.59 0 113.33-16.763 113.33-37.44 0-20.678-50.74-37.44-113.33-37.44-62.59 0-113.33 16.762-113.33 37.44 0 20.677 50.74 37.44 113.33 37.44z" fill="url(#b)"/><path d="M235.789 105.939c-1.39 2.23-3.219 4.15-5.189 5.88-3.99 3.42-8.61 6.02-13.36 8.23-9.55 4.39-19.721 7.22-29.961 9.46-5.13 1.12-10.31 1.97-15.5 2.72-5.19.75-10.41 1.33-15.63 1.77-10.45.92-20.94 1.26-31.42 1.19-20.95-.23-41.93-2.17-62.32-6.74-10.17-2.32-20.23-5.28-29.61-9.66-4.67-2.19-9.19-4.76-13-8.06-1.88-1.66-3.61-3.49-4.88-5.55-1.27-2.06-2.02-4.36-2.02-6.68 0-2.32.75-4.62 2.02-6.67 1.27-2.06 2.99-3.89 4.88-5.55 3.82-3.3 8.33-5.88 13-8.06 9.38-4.37 19.44-7.34 29.61-9.65 20.39-4.56 41.37-6.51 62.32-6.74 10.48-.06 20.97.27 31.42 1.19 5.22.45 10.44 1.02 15.63 1.77 5.19.75 10.37 1.59 15.5 2.72 10.24 2.23 20.42 5.07 29.97 9.45 4.75 2.21 9.37 4.81 13.36 8.23 1.97 1.72 3.8 3.64 5.19 5.88 1.39 2.22 2.26 4.81 2.26 7.44 0-2.64-.859-5.23-2.239-7.46-1.38-2.24-3.211-4.17-5.181-5.9-3.98-3.44-8.6-6.06-13.35-8.29-9.54-4.44-19.68-7.43-29.92-9.76-20.53-4.6-41.6-6.55-62.64-6.78-10.53-.06-21.06.27-31.56 1.2-5.25.45-10.49 1.03-15.71 1.78-5.22.75-10.43 1.61-15.6 2.74-10.31 2.25-20.57 5.1-30.28 9.56-4.83 2.25-9.55 4.89-13.71 8.46-2.05 1.8-3.99 3.82-5.49 6.23-1.5 2.39-2.49 5.27-2.48 8.22 0 2.95.99 5.83 2.48 8.22 1.5 2.41 3.43 4.43 5.49 6.23 4.16 3.56 8.88 6.21 13.71 8.46 9.71 4.45 19.96 7.31 30.28 9.56 5.16 1.13 10.38 1.98 15.6 2.74 5.22.76 10.46 1.33 15.71 1.78 10.5.92 21.04 1.26 31.56 1.2 21.04-.23 42.11-2.18 62.64-6.77 10.24-2.33 20.39-5.32 29.92-9.76 4.75-2.23 9.37-4.85 13.35-8.29 1.97-1.73 3.791-3.66 5.181-5.9 1.38-2.23 2.249-4.82 2.239-7.46 0 2.64-.87 5.22-2.26 7.44l-.01-.02z" fill="#000"/><path d="M226.02 28.07H46.13v67.18h179.89V28.07z" fill="#fff"/><path d="M226.02 65.27h-51.07v1.75h51.07v-1.75zM226.02 30.84h-51.07v1.75h51.07v-1.75zM97.39 31.27H46.32v1.75h51.07v-1.75zM97.39 65.95H46.32v1.75h51.07v-1.75z" fill="#0ABBEF"/><path d="M177.15 64.94h-2.04v27.67h2.04V64.94zM97.33 64.94h-2.04v27.67h2.04V64.94z" fill="#0ABBEF"/><path d="M216.33 13.87H55.82l-9.69 11.25h179.89l-9.69-11.25z" fill="url(#c)"/><path d="m226.24 24.94-9.87-11.14-19.96-.28-20.03-.18-20.07-.09c-6.69-.02-13.38-.08-20.09-.04-13.4 0-26.83.15-40.23.27-6.7.08-13.4.1-20.09.12-6.69.04-13.38.01-20.08 0h-.12l-.08.09c-3.23 3.75-6.48 7.48-9.75 11.21l-.49.56h.75l44.97.34 44.97.13c14.99-.03 29.98 0 44.97-.12 14.99-.07 29.98-.2 44.97-.39h.63l-.41-.47.01-.01zm-90.16-.61-44.97.13-44.23.32c3.01-3.56 6.03-7.11 9.07-10.65 6.64-.02 13.29-.05 19.93 0 6.68.02 13.36.04 20.04.12 13.35.12 26.68.28 40.03.27 6.67.04 13.36-.02 20.04-.04l20.06-.09 20.1-.18 20.17-.28 9.1 10.9c-14.79-.18-29.57-.31-44.36-.38-14.99-.12-29.98-.09-44.97-.12h-.01zM226.02 29.81c-14.99-.06-29.98-.16-44.97-.15h-44.97l-44.97.11-44.97.24h-.42v.42c.06 11.2.15 22.39.15 33.59l.03 16.79-.05 16.79v.28h.28c15 .03 30.03.19 45.08.27 7.53.06 15.05.07 22.57.08 7.52.01 15.05.02 22.55-.02 15.01-.07 30.05-.08 45-.2l44.75-.35.32-33.49c.09-11.22.21-22.47.24-33.74v-.62h-.62zM180.77 97.2c-15.03-.13-29.97-.13-44.95-.2-7.49-.04-14.95-.03-22.42-.02-7.47 0-14.94.02-22.4.08-14.84.08-29.71.24-44.59.27l-.05-16.51.03-16.79c0-11.06.09-22.11.15-33.17l44.56.24 44.97.13h44.97c14.79 0 29.57-.11 44.36-.16.04 10.91.15 21.84.24 32.81l.32 33.69-45.2-.35.01-.02z" fill="#000"/><path d="M229.32 25.12H42.83V31h186.49v-5.88z" fill="#fff"/><path d="m229.4 31.01-.05-5.91-46.51-.19c-15.53-.04-31.06-.13-46.65-.06l-46.71.12c-15.56.09-31.1-.02-46.65-.04h-.19V31l-.01.21h.21l46.62.14 46.62.02h23.31l23.31-.08c15.54-.07 31.08-.08 46.62-.21h.08V31v.01zm-70.01-.38h-23.31l-46.62.03-46.42.14v-5.48c15.45-.02 30.93-.12 46.39-.04l46.54.12c15.49.07 31.04-.02 46.59-.06l46.74-.19-.05 5.78c-15.52-.13-31.03-.15-46.55-.21l-23.31-.08v-.01z" fill="#000"/><path d="M229.32 62.71H42.83v2.64h186.49v-2.64z" fill="#fff"/><path d="M229.27 62.77c-15.73.2-31.33.32-46.9.43-15.54.07-31.07.17-46.54.1l-46.43-.32-11.64-.04-11.65.03-23.29.14.4-.4.02 2.64-.42-.42 46.62-.3c15.54-.05 31.08-.12 46.62-.07l23.31.04 23.31.14c15.54.11 31.08.26 46.62.49l-.11.11.06-2.58.02.01zm.11-.11.06 2.69v.11h-.11c-15.54.23-31.08.39-46.62.49l-23.31.14-23.31.04c-15.54.05-31.08-.02-46.62-.07l-46.62-.3h-.42v-.42l.02-2.64v-.4h.4l23.34.14 11.66.03 11.67-.04 46.81-.32c15.62-.06 31.17.04 46.71.1 15.52.1 31 .23 46.35.43l-.01.02z" fill="#000"/><path d="M229.32 92.3H42.83v5.88h186.49V92.3z" fill="#fff"/><path d="m229.48 98.19-.1-5.94c-15.35-.2-30.84-.32-46.35-.42-15.54-.06-31.09-.17-46.7-.11l-46.81.32c-7.79.03-15.57.06-23.34.02l-11.67-.03-11.67-.09h-.37v.37l-.04 5.88v.41h.42l46.62.29c15.54.05 31.08.13 46.62.08l23.31-.03 23.31-.13 23.31-.19 23.31-.28h.16v-.16l-.01.01zm-46.78-.62-23.31-.13-23.31-.03c-15.54-.05-31.08.03-46.62.08l-46.21.29-.04-5.1 11.27-.08 11.65-.03c7.77-.04 15.53 0 23.28.02l46.43.32c15.46.06 31-.05 46.54-.11 15.57-.11 31.16-.23 46.89-.42l-.1 5.67-23.16-.27-23.31-.19v-.02z" fill="#000"/><path d="M174.96 20.43H97.2v77.76h77.76V20.43z" fill="#fff"/><path d="M97.2 20.43h77.75L136.08.91 97.2 20.43z" fill="url(#d)"/><path d="m175.11 20.13-9.63-5.06-9.65-5.01c-6.46-3.29-12.9-6.63-19.38-9.87l-.37-.18-.36.18c-3.3 1.66-6.59 3.36-9.87 5.06l-9.75 5.17-9.56 5.11c-3.17 1.68-6.28 3.32-9.4 4.92l19.01.27c6.44.09 12.94.22 19.53.23 6.6 0 13.23-.15 19.76-.24 6.54-.08 13.01-.04 19.52.06l1.4.02-1.25-.66zm-19.51.03c-6.42-.1-12.75-.24-19.11-.24-6.38.01-12.83.13-19.35.23l-19.86.27c3.37-1.65 6.73-3.26 10.04-4.84l9.88-4.65 9.69-4.59c3.07-1.49 6.14-2.99 9.2-4.52 6.35 3.2 12.75 6.31 19.13 9.47l9.79 4.75 8.51 4.08c-5.97.08-11.96.12-17.91.05l-.01-.01z" fill="#000"/><path d="M65.21 89.55H53.53V74.88a5.84 5.84 0 0 1 11.68 0v14.67z" fill="url(#e)"/><path d="M87.04 89.55H75.36V74.88a5.84 5.84 0 0 1 11.68 0v14.67z" fill="url(#f)"/><path d="M59.36 68.07c-3.76 0-6.81 3.06-6.81 6.81v15.64h13.62V74.88c0-3.76-3.06-6.81-6.81-6.81zm-.48 1.96v8.78h-4.39v-3.93c0-2.52 1.93-4.6 4.39-4.85zm-4.39 9.75h4.39v8.8h-4.39v-8.8zm5.36 8.8v-8.8h4.39v8.8h-4.39zm4.39-9.77h-4.39v-8.78c2.46.24 4.39 2.33 4.39 4.85v3.93z" fill="#fff"/><path d="M66.51 90.52c-.03-4.39-.14-8.78-.2-13.17l-.03-1.65c0-.55-.01-1.1-.08-1.65-.16-1.1-.56-2.16-1.19-3.06-.64-.9-1.48-1.65-2.46-2.16-.98-.5-2.08-.77-3.17-.77 1.1.01 2.19.29 3.15.8.97.51 1.79 1.28 2.41 2.17.61.9 1 1.95 1.11 3.03.05.54.04 1.08.02 1.63l-.03 1.65c-.06 4.28-.17 8.55-.2 12.83l-6.48-.04-6.48.04c0-2.08-.06-4.17-.09-6.25l-.11-6.58-.03-1.65c-.01-.55-.03-1.1.03-1.63.11-1.08.5-2.13 1.12-3.03.62-.89 1.45-1.66 2.41-2.17.97-.51 2.06-.79 3.15-.8-1.1 0-2.19.26-3.17.77-.98.5-1.82 1.26-2.46 2.16-.64.9-1.03 1.97-1.19 3.06-.07.55-.08 1.11-.08 1.65l-.03 1.65-.11 6.58c-.03 2.19-.09 4.39-.09 6.58v.33h.33l6.81.05 6.81-.04h.34v-.34l-.01.01z" fill="#000"/><path d="M54.5 73.2c-.18.45-.29.94-.32 1.43-.03.49-.02.93-.04 1.4l-.03 2.77v.37h.37c1.46.01 2.93 0 4.39-.02h.36v-.35c-.02-1.51-.08-3.01-.14-4.48-.05-1.48-.14-2.91-.21-4.29l-.21 4.48c-.06 1.33-.11 2.64-.13 3.94-1.22-.01-2.45-.02-3.67-.02l-.02-2.4c0-.94-.1-1.82.18-2.65.24-.84.76-1.6 1.43-2.19.67-.6 1.52-.99 2.43-1.17-.93.02-1.86.34-2.64.9a5 5 0 0 0-1.74 2.28h-.01zM59.1 79.78v-.23h-.22c-1.52.04-3 .15-4.39.22 1.46.06 2.82.17 4.16.21-.04 1.4-.1 2.79-.11 4.19-.03 1.34-.03 2.68-.04 4.03-1.23 0-2.45 0-3.68.03-.02-1.31-.08-2.63-.13-3.97-.05-1.45-.14-2.95-.21-4.49-.07 1.4-.16 2.84-.21 4.32-.05 1.48-.12 2.98-.14 4.49v.33h.34c1.46.03 2.93.03 4.39.04h.38v-.38c-.01-1.47 0-2.93-.04-4.4-.01-1.47-.08-2.93-.12-4.4l.02.01zM59.85 79.44h-.34v.34c.01 1.51.09 3.01.14 4.49.05 1.48.14 2.92.2 4.32.07-1.54.15-3.03.2-4.49.05-1.34.11-2.66.13-3.97 1.23.02 2.45.03 3.68.03 0 1.34 0 2.68.03 4.03.01 1.4.07 2.79.11 4.19-.63.02-1.26.05-1.92.09l-2.24.12 2.15.12c.73.05 1.49.09 2.24.1h.22v-.22c.04-1.47.11-2.93.12-4.4.03-1.47.03-2.93.04-4.4v-.38h-.38c-1.46.01-2.93 0-4.39.04l.01-.01zM59.61 78.81v.24h.23c1.52-.04 3.01-.16 4.39-.23-1.46-.07-2.82-.18-4.15-.22.05-1.39.1-2.78.11-4.17.02-1.32.02-2.63.02-3.95.7.14 1.37.42 1.95.86a4.81 4.81 0 0 1 1.54 2.05c.36.81.3 1.72.36 2.62l.17 2.81.17-2.74c.04-.94.15-1.93-.18-2.87-.28-.94-.86-1.79-1.63-2.41-.76-.64-1.72-1.02-2.71-1.13l-.41-.04v.42c-.02 1.46 0 2.93.02 4.39.02 1.46.07 2.93.12 4.39v-.02z" fill="#000"/><path d="M81.2 68.07c-3.76 0-6.81 3.06-6.81 6.81v15.64h13.62V74.88c0-3.76-3.06-6.81-6.81-6.81zm4.88 6.81v3.93h-4.39v-8.78c2.46.24 4.39 2.33 4.39 4.85zm-5.36-4.85v8.78h-4.39v-3.93c0-2.52 1.93-4.6 4.39-4.85zm-4.39 9.75h4.39v8.8h-4.39v-8.8zm5.36 8.8v-8.8h4.39v8.8h-4.39z" fill="#fff"/><path d="M88.35 90.52c-.03-4.39-.14-8.78-.2-13.17l-.03-1.65c0-.55-.01-1.1-.08-1.65-.16-1.1-.56-2.16-1.19-3.06-.64-.9-1.48-1.65-2.46-2.16-.98-.5-2.08-.77-3.17-.77 1.1.01 2.19.29 3.15.8.97.51 1.79 1.28 2.41 2.17.61.9 1 1.95 1.11 3.03.05.54.04 1.08.02 1.63l-.03 1.65c-.06 4.28-.16 8.55-.2 12.83l-6.48-.04-6.48.04c0-2.08-.06-4.17-.09-6.25l-.11-6.58-.03-1.65c-.01-.55-.03-1.1.03-1.63.11-1.08.5-2.13 1.12-3.03.62-.89 1.45-1.66 2.41-2.17.97-.51 2.06-.79 3.15-.8-1.1 0-2.19.26-3.17.77-.98.5-1.82 1.26-2.46 2.16-.64.9-1.03 1.97-1.19 3.06-.07.55-.08 1.11-.08 1.65l-.03 1.65-.11 6.58c-.03 2.19-.09 4.39-.09 6.58v.33h.33l6.81.05 6.81-.04h.34v-.34l-.01.01z" fill="#000"/><path d="M81.41 79.12h.28l4.39-.22h.09v-.09c-.07-1.31-.08-2.62-.09-3.93 0 1.28-.03 2.56-.09 3.84l-4-.19c.11-2.74.09-5.48-.05-8.22 1.04.12 2.06.58 2.82 1.35.83.84 1.32 2.02 1.32 3.22 0-1.2-.43-2.39-1.21-3.32a5.04 5.04 0 0 0-3.16-1.77l-.25-.04v.28c-.17 2.93-.2 5.85-.07 8.78v.31h.02zM76.34 73.2c-.18.45-.29.94-.32 1.43-.03.49-.02.93-.04 1.4l-.03 2.77v.37h.37c1.46.01 2.93 0 4.39-.02h.36v-.35c-.02-1.51-.08-3.01-.14-4.48-.05-1.48-.14-2.91-.21-4.29l-.21 4.48c-.06 1.33-.11 2.64-.13 3.94-1.22-.01-2.45-.02-3.67-.02l-.02-2.4c0-.94-.1-1.82.18-2.65.25-.84.76-1.6 1.43-2.19.67-.6 1.52-.99 2.43-1.17-.93.02-1.86.34-2.64.9a5 5 0 0 0-1.74 2.28h-.01zM80.94 79.78v-.23h-.22c-1.52.04-3 .15-4.39.22 1.46.06 2.82.17 4.16.21-.04 1.4-.1 2.79-.11 4.19-.03 1.34-.03 2.68-.04 4.03-1.23 0-2.45 0-3.68.03-.02-1.31-.08-2.63-.13-3.97-.05-1.45-.14-2.95-.21-4.49-.07 1.4-.16 2.84-.21 4.32-.05 1.48-.12 2.98-.14 4.49v.33h.34c1.46.03 2.93.03 4.39.04h.38v-.38c-.01-1.47 0-2.93-.04-4.4-.01-1.47-.08-2.93-.12-4.4l.02.01zM81.69 79.44h-.34v.34c.01 1.51.09 3.01.14 4.49.05 1.48.14 2.92.2 4.32.07-1.54.15-3.03.2-4.49.05-1.34.11-2.66.13-3.97 1.23.02 2.45.03 3.68.03 0 1.34 0 2.68.03 4.03.01 1.4.07 2.79.11 4.19-.63.02-1.26.05-1.92.09l-2.24.12 2.15.12c.73.05 1.49.09 2.24.1h.22v-.22c.04-1.47.11-2.93.12-4.4.03-1.47.03-2.93.04-4.4v-.38h-.38c-1.46.01-2.93 0-4.39.04l.01-.01z" fill="#000"/><path d="M206.95 89.55h11.68V74.88a5.84 5.84 0 0 0-11.68 0v14.67z" fill="url(#g)"/><path d="M196.79 89.55h-11.68V74.88c0-3.22 2.62-5.84 5.84-5.84 3.22 0 5.84 2.62 5.84 5.84v14.67z" fill="url(#h)"/><path d="M212.79 68.07c-3.76 0-6.81 3.06-6.81 6.81v15.64h13.62V74.88c0-3.76-3.06-6.81-6.81-6.81zm4.87 6.81v3.93h-4.39v-8.78c2.46.24 4.39 2.33 4.39 4.85zm-5.36-4.85v8.78h-4.39v-3.93c0-2.52 1.93-4.6 4.39-4.85zm-4.38 9.75h4.39v8.8h-4.39v-8.8zm5.35 8.8v-8.8h4.39v8.8h-4.39z" fill="#fff"/><path d="M219.94 90.52c-.03-4.39-.14-8.78-.2-13.17l-.03-1.65c0-.55-.01-1.1-.08-1.65-.16-1.1-.56-2.16-1.19-3.06-.64-.9-1.48-1.65-2.46-2.16-.98-.5-2.08-.77-3.17-.77 1.1.01 2.19.29 3.15.8.97.51 1.79 1.28 2.41 2.17.61.9 1 1.95 1.11 3.03.05.54.04 1.08.02 1.63l-.03 1.65c-.06 4.28-.17 8.55-.2 12.83l-6.48-.04-6.48.04c0-2.08-.06-4.17-.09-6.25l-.11-6.58-.03-1.65c-.01-.55-.03-1.1.03-1.63.11-1.08.5-2.13 1.12-3.03.62-.89 1.45-1.66 2.41-2.17.97-.51 2.06-.79 3.15-.8-1.1 0-2.19.26-3.17.77-.98.5-1.82 1.26-2.46 2.16-.64.9-1.03 1.97-1.19 3.06-.07.55-.08 1.11-.08 1.65l-.03 1.65-.11 6.58c-.03 2.19-.09 4.39-.09 6.58v.33h.33l6.81.05 6.81-.04h.34v-.34l-.01.01z" fill="#000"/><path d="M212.99 79.12h.28l4.39-.22h.09v-.09c-.06-1.31-.08-2.62-.09-3.93 0 1.28-.03 2.56-.09 3.84l-4-.19c.11-2.74.09-5.48-.05-8.22 1.04.12 2.06.58 2.82 1.35.83.84 1.32 2.02 1.32 3.22 0-1.2-.43-2.39-1.21-3.32a5.04 5.04 0 0 0-3.16-1.77l-.25-.04v.28c-.17 2.93-.2 5.85-.07 8.78v.31h.02zM207.93 73.2c-.18.45-.29.94-.32 1.43-.03.49-.02.93-.04 1.4l-.03 2.77v.37h.37c1.46.01 2.93 0 4.39-.02h.36v-.35c-.02-1.51-.08-3.01-.14-4.48-.05-1.48-.14-2.91-.21-4.29l-.21 4.48c-.06 1.33-.11 2.64-.13 3.94-1.22-.01-2.45-.02-3.67-.02l-.02-2.4c0-.94-.1-1.82.18-2.65.25-.84.76-1.6 1.43-2.19.67-.6 1.52-.99 2.43-1.17-.93.02-1.86.34-2.64.9a5 5 0 0 0-1.74 2.28h-.01zM212.531 79.78v-.23h-.22c-1.52.04-3 .15-4.39.22 1.46.06 2.82.17 4.16.21-.04 1.4-.1 2.79-.11 4.19-.03 1.34-.03 2.68-.04 4.03-1.23 0-2.45 0-3.68.03-.02-1.31-.08-2.63-.13-3.97-.05-1.45-.14-2.95-.21-4.49-.07 1.4-.16 2.84-.21 4.32-.05 1.48-.12 2.98-.14 4.49v.33h.34c1.46.03 2.93.03 4.39.04h.38v-.38c-.01-1.47 0-2.93-.04-4.4-.01-1.47-.08-2.93-.12-4.4l.02.01zM213.271 79.44h-.34v.34c.01 1.51.09 3.01.14 4.49.05 1.48.14 2.92.2 4.32.07-1.54.15-3.03.2-4.49.05-1.34.11-2.66.13-3.97 1.23.02 2.45.03 3.68.03 0 1.34 0 2.68.03 4.03.01 1.4.07 2.79.11 4.19-.63.02-1.26.05-1.92.09l-2.24.12 2.15.12c.73.05 1.49.09 2.24.1h.22v-.22c.04-1.47.11-2.93.12-4.4.03-1.47.03-2.93.04-4.4v-.38h-.38c-1.46.01-2.93 0-4.39.04l.01-.01z" fill="#000"/><path d="M190.951 68.07c-3.76 0-6.81 3.06-6.81 6.81v15.64h13.62V74.88c0-3.76-3.06-6.81-6.81-6.81zm-.48 1.96v8.78h-4.39v-3.93c0-2.52 1.93-4.6 4.39-4.85zm-4.39 9.75h4.39v8.8h-4.39v-8.8zm5.36 8.8v-8.8h4.39v8.8h-4.39zm4.38-9.77h-4.39v-8.78c2.46.24 4.39 2.33 4.39 4.85v3.93z" fill="#fff"/><path d="M198.1 90.52c-.03-4.39-.14-8.78-.2-13.17l-.03-1.65c0-.55-.01-1.1-.08-1.65-.16-1.1-.56-2.16-1.19-3.06-.64-.9-1.48-1.65-2.46-2.16-.98-.5-2.08-.77-3.17-.77 1.1.01 2.19.29 3.15.8.97.51 1.79 1.28 2.41 2.17.61.9 1 1.95 1.11 3.03.05.54.04 1.08.02 1.63l-.03 1.65c-.06 4.28-.17 8.55-.2 12.83l-6.48-.04-6.48.04c0-2.08-.06-4.17-.09-6.25l-.11-6.58-.03-1.65c-.01-.55-.03-1.1.03-1.63.11-1.08.5-2.13 1.12-3.03.62-.89 1.45-1.66 2.41-2.17.97-.51 2.06-.79 3.15-.8-1.1 0-2.19.26-3.17.77-.98.5-1.82 1.26-2.46 2.16-.64.9-1.03 1.97-1.19 3.06-.07.55-.08 1.11-.08 1.65l-.03 1.65-.11 6.58c-.03 2.19-.09 4.39-.09 6.58v.33h.33l6.81.05 6.81-.04h.34v-.34l-.01.01z" fill="#000"/><path d="M186.09 73.2c-.18.45-.29.94-.32 1.43-.03.49-.02.93-.04 1.4l-.03 2.77v.37h.37c1.46.01 2.93 0 4.39-.02h.36v-.35c-.02-1.51-.08-3.01-.14-4.48-.05-1.48-.14-2.91-.21-4.3l-.21 4.48c-.06 1.33-.11 2.64-.13 3.94-1.22-.01-2.45-.02-3.67-.02l-.02-2.4c0-.94-.1-1.82.18-2.65.25-.84.76-1.6 1.43-2.19.67-.6 1.52-.99 2.43-1.17-.93.02-1.86.34-2.64.9a5 5 0 0 0-1.74 2.28l-.01.01zM190.691 79.78v-.23h-.22c-1.52.04-3 .15-4.39.22 1.46.06 2.82.17 4.16.21-.04 1.4-.1 2.79-.11 4.19-.03 1.34-.03 2.68-.04 4.03-1.23 0-2.45 0-3.68.03-.02-1.31-.08-2.63-.13-3.97-.05-1.45-.14-2.95-.21-4.49-.07 1.4-.16 2.84-.21 4.32-.05 1.48-.12 2.98-.14 4.49v.33h.34c1.46.03 2.93.03 4.39.04h.38v-.38c-.01-1.47 0-2.93-.04-4.4-.01-1.47-.08-2.93-.12-4.4l.02.01zM191.441 79.44h-.34v.34c.01 1.51.09 3.01.14 4.49.05 1.48.14 2.92.2 4.32.07-1.54.15-3.03.2-4.49.05-1.34.11-2.66.13-3.97 1.23.02 2.45.03 3.68.03 0 1.34 0 2.68.03 4.03.01 1.4.07 2.79.11 4.19-.63.02-1.26.05-1.92.09l-2.24.12 2.15.12c.73.05 1.49.09 2.24.1h.22v-.22c.04-1.47.11-2.93.12-4.4.03-1.47.03-2.93.04-4.4v-.38h-.38c-1.46.01-2.93 0-4.39.04l.01-.01zM191.2 78.81v.24h.23c1.52-.04 3.01-.16 4.39-.23-1.46-.07-2.82-.18-4.15-.22.05-1.39.1-2.78.11-4.17.02-1.32.02-2.63.02-3.95.7.14 1.37.42 1.95.86a4.81 4.81 0 0 1 1.54 2.05c.36.81.3 1.72.36 2.62l.17 2.81.17-2.74c.04-.94.15-1.93-.18-2.87-.28-.94-.86-1.79-1.63-2.41-.76-.64-1.72-1.02-2.71-1.13l-.41-.04v.42c-.02 1.46 0 2.93.02 4.39.02 1.46.07 2.93.12 4.39v-.02z" fill="#000"/><path d="M206.95 59.33h11.68V44.66a5.84 5.84 0 0 0-11.68 0v14.67z" fill="url(#i)"/><path d="M196.79 59.33h-11.68V44.66c0-3.22 2.62-5.84 5.84-5.84 3.22 0 5.84 2.62 5.84 5.84v14.67z" fill="url(#j)"/><path d="M212.79 37.85c-3.76 0-6.81 3.06-6.81 6.81V60.3h13.62V44.66c0-3.76-3.06-6.81-6.81-6.81zm4.87 6.81v3.93h-4.39v-8.78c2.46.24 4.39 2.33 4.39 4.85zm-5.36-4.85v8.78h-4.39v-3.93c0-2.52 1.93-4.6 4.39-4.85zm-4.38 9.75h4.39v8.8h-4.39v-8.8zm5.35 8.8v-8.8h4.39v8.8h-4.39z" fill="#fff"/><path d="M219.94 60.3c-.03-4.39-.14-8.78-.2-13.17l-.03-1.65c0-.55-.01-1.1-.08-1.65-.16-1.1-.56-2.16-1.19-3.06-.64-.9-1.48-1.65-2.46-2.16-.98-.5-2.08-.77-3.17-.77 1.1.01 2.19.29 3.15.8.97.51 1.79 1.28 2.41 2.17.61.9 1 1.95 1.11 3.03.05.54.04 1.08.02 1.63l-.03 1.65c-.06 4.28-.17 8.55-.2 12.83l-6.48-.04-6.48.04c0-2.08-.06-4.17-.09-6.25l-.11-6.58-.03-1.65c-.01-.55-.03-1.1.03-1.63.11-1.08.5-2.13 1.12-3.03.62-.89 1.45-1.66 2.41-2.17.97-.51 2.06-.79 3.15-.8-1.1 0-2.19.26-3.17.77-.98.5-1.82 1.26-2.46 2.16-.64.9-1.03 1.97-1.19 3.06-.07.55-.08 1.11-.08 1.65l-.03 1.65-.11 6.58c-.03 2.19-.09 4.39-.09 6.58v.33h.33l6.81.05 6.81-.04h.34v-.34l-.01.01z" fill="#000"/><path d="M212.99 48.9h.28l4.39-.22h.09v-.09c-.06-1.31-.08-2.62-.09-3.93 0 1.28-.03 2.56-.09 3.84l-4-.19c.11-2.74.09-5.48-.05-8.22 1.04.12 2.06.58 2.82 1.35.83.84 1.32 2.02 1.32 3.22 0-1.2-.43-2.39-1.21-3.32a5.04 5.04 0 0 0-3.16-1.77l-.25-.04v.28c-.17 2.93-.2 5.85-.07 8.78v.31h.02zM207.93 42.98c-.18.45-.29.94-.32 1.43-.03.49-.02.93-.04 1.4l-.03 2.77v.37h.37c1.46.01 2.93 0 4.39-.02h.36v-.35c-.02-1.51-.08-3.01-.14-4.48-.05-1.48-.14-2.91-.21-4.29l-.21 4.48c-.06 1.33-.11 2.64-.13 3.94-1.22-.01-2.45-.02-3.67-.02l-.02-2.4c0-.94-.1-1.82.18-2.65.25-.84.76-1.6 1.43-2.19.67-.6 1.52-.99 2.43-1.17-.93.02-1.86.34-2.64.9a5 5 0 0 0-1.74 2.28h-.01zM212.531 49.56v-.23h-.22c-1.52.04-3 .15-4.39.22 1.46.06 2.82.17 4.16.21-.04 1.4-.1 2.79-.11 4.19-.03 1.34-.03 2.68-.04 4.03-1.23 0-2.45 0-3.68.03-.02-1.31-.08-2.63-.13-3.97-.05-1.45-.14-2.95-.21-4.49-.07 1.4-.16 2.84-.21 4.32-.05 1.48-.12 2.98-.14 4.49v.33h.34c1.46.03 2.93.03 4.39.04h.38v-.38c-.01-1.47 0-2.93-.04-4.4-.01-1.47-.08-2.93-.12-4.4l.02.01zM213.271 49.22h-.34v.34c.01 1.51.09 3.01.14 4.49.05 1.48.14 2.92.2 4.32.07-1.54.15-3.03.2-4.49.05-1.34.11-2.66.13-3.97 1.23.02 2.45.03 3.68.03 0 1.34 0 2.68.03 4.03.01 1.4.07 2.79.11 4.19-.63.02-1.26.05-1.92.09l-2.24.12 2.15.12c.73.05 1.49.09 2.24.1h.22v-.22c.04-1.47.11-2.93.12-4.4.03-1.47.03-2.93.04-4.4v-.38h-.38c-1.46.01-2.93 0-4.39.04l.01-.01z" fill="#000"/><path d="M190.951 37.85c-3.76 0-6.81 3.06-6.81 6.81V60.3h13.62V44.66c0-3.76-3.06-6.81-6.81-6.81zm-.48 1.96v8.78h-4.39v-3.93c0-2.52 1.93-4.6 4.39-4.85zm-4.39 9.75h4.39v8.8h-4.39v-8.8zm5.36 8.8v-8.8h4.39v8.8h-4.39zm4.38-9.77h-4.39v-8.78c2.46.24 4.39 2.33 4.39 4.85v3.93z" fill="#fff"/><path d="M198.1 60.3c-.03-4.39-.14-8.78-.2-13.17l-.03-1.65c0-.55-.01-1.1-.08-1.65-.16-1.1-.56-2.16-1.19-3.06-.64-.9-1.48-1.65-2.46-2.16-.98-.5-2.08-.77-3.17-.77 1.1.01 2.19.29 3.15.8.97.51 1.79 1.28 2.41 2.17.61.9 1 1.95 1.11 3.03.05.54.04 1.08.02 1.63l-.03 1.65c-.06 4.28-.17 8.55-.2 12.83l-6.48-.04-6.48.04c0-2.08-.06-4.17-.09-6.25l-.11-6.58-.03-1.65c-.01-.55-.03-1.1.03-1.63.11-1.08.5-2.13 1.12-3.03.62-.89 1.45-1.66 2.41-2.17.97-.51 2.06-.79 3.15-.8-1.1 0-2.19.26-3.17.77-.98.5-1.82 1.26-2.46 2.16-.64.9-1.03 1.97-1.19 3.06-.07.55-.08 1.11-.08 1.65l-.03 1.65-.11 6.58c-.03 2.19-.09 4.39-.09 6.58v.33h.33l6.81.05 6.81-.04h.34v-.34l-.01.01z" fill="#000"/><path d="M186.09 42.98c-.18.45-.29.94-.32 1.43-.03.49-.02.93-.04 1.4l-.03 2.77v.37h.37c1.46.01 2.93 0 4.39-.02h.36v-.35c-.02-1.51-.08-3.01-.14-4.48-.05-1.48-.14-2.91-.21-4.3l-.21 4.48c-.06 1.33-.11 2.64-.13 3.94-1.22-.01-2.45-.02-3.67-.02l-.02-2.4c0-.94-.1-1.82.18-2.65.25-.84.76-1.6 1.43-2.19.67-.6 1.52-.99 2.43-1.17-.93.02-1.86.34-2.64.9a5 5 0 0 0-1.74 2.28l-.01.01zM190.691 49.56v-.23h-.22c-1.52.04-3 .15-4.39.22 1.46.06 2.82.17 4.16.21-.04 1.4-.1 2.79-.11 4.19-.03 1.34-.03 2.68-.04 4.03-1.23 0-2.45 0-3.68.03-.02-1.31-.08-2.63-.13-3.97-.05-1.45-.14-2.95-.21-4.49-.07 1.4-.16 2.84-.21 4.32-.05 1.48-.12 2.98-.14 4.49v.33h.34c1.46.03 2.93.03 4.39.04h.38v-.38c-.01-1.47 0-2.93-.04-4.4-.01-1.47-.08-2.93-.12-4.4l.02.01zM191.441 49.22h-.34v.34c.01 1.51.09 3.01.14 4.49.05 1.48.14 2.92.2 4.32.07-1.54.15-3.03.2-4.49.05-1.34.11-2.66.13-3.97 1.23.02 2.45.03 3.68.03 0 1.34 0 2.68.03 4.03.01 1.4.07 2.79.11 4.19-.63.02-1.26.05-1.92.09l-2.24.12 2.15.12c.73.05 1.49.09 2.24.1h.22v-.22c.04-1.47.11-2.93.12-4.4.03-1.47.03-2.93.04-4.4v-.38h-.38c-1.46.01-2.93 0-4.39.04l.01-.01zM191.2 48.59v.24h.23c1.52-.04 3.01-.16 4.39-.23-1.46-.07-2.82-.18-4.15-.22.05-1.39.1-2.78.11-4.17.02-1.32.02-2.63.02-3.95.7.14 1.37.42 1.95.86a4.81 4.81 0 0 1 1.54 2.05c.36.81.3 1.72.36 2.62l.17 2.81.17-2.74c.04-.94.15-1.93-.18-2.87-.28-.94-.86-1.79-1.63-2.41-.76-.64-1.72-1.02-2.71-1.13l-.41-.04v.42c-.02 1.46 0 2.93.02 4.39.02 1.46.07 2.93.12 4.39v-.02z" fill="#000"/><path d="M77.35 59.33h11.68V44.66a5.84 5.84 0 0 0-11.68 0v14.67z" fill="url(#k)"/><path d="M67.19 59.33H55.51V44.66c0-3.22 2.62-5.84 5.84-5.84 3.22 0 5.84 2.62 5.84 5.84v14.67z" fill="url(#l)"/><path d="M83.19 37.85c-3.76 0-6.81 3.06-6.81 6.81V60.3H90V44.66c0-3.76-3.06-6.81-6.81-6.81zm4.87 6.81v3.93h-4.39v-8.78c2.46.24 4.39 2.33 4.39 4.85zm-5.36-4.85v8.78h-4.39v-3.93c0-2.52 1.93-4.6 4.39-4.85zm-4.39 9.75h4.39v8.8h-4.39v-8.8zm5.36 8.8v-8.8h4.39v8.8h-4.39z" fill="#fff"/><path d="M90.33 60.3c-.03-4.39-.14-8.78-.2-13.17l-.03-1.65c0-.55-.01-1.1-.08-1.65-.16-1.1-.56-2.16-1.19-3.06-.64-.9-1.48-1.65-2.46-2.16-.98-.5-2.08-.77-3.17-.77 1.1.01 2.19.29 3.15.8.97.51 1.79 1.28 2.41 2.17.61.9 1 1.95 1.11 3.03.05.54.04 1.08.02 1.63l-.03 1.65c-.06 4.28-.17 8.55-.2 12.83l-6.48-.04-6.48.04c0-2.08-.06-4.17-.09-6.25l-.11-6.58-.03-1.65c-.01-.55-.03-1.1.03-1.63.11-1.08.5-2.13 1.12-3.03.62-.89 1.45-1.66 2.41-2.17.97-.51 2.06-.79 3.15-.8-1.1 0-2.19.26-3.17.77-.98.5-1.82 1.26-2.46 2.16-.64.9-1.03 1.97-1.19 3.06-.07.55-.08 1.11-.08 1.65l-.03 1.65-.11 6.58c-.03 2.19-.09 4.39-.09 6.58v.33h.33l6.81.05 6.81-.04h.34v-.34l-.01.01z" fill="#000"/><path d="M83.39 48.9h.28l4.39-.22h.09v-.09c-.06-1.31-.08-2.62-.09-3.93 0 1.28-.03 2.56-.09 3.84l-4-.19c.11-2.74.09-5.48-.05-8.22 1.04.12 2.06.58 2.82 1.35.83.84 1.32 2.02 1.32 3.22 0-1.2-.43-2.39-1.21-3.32a5.04 5.04 0 0 0-3.16-1.77l-.25-.04v.28c-.17 2.93-.2 5.85-.07 8.78v.31h.02zM78.33 42.98c-.18.45-.29.94-.32 1.43-.03.49-.02.93-.04 1.4l-.03 2.77v.37h.37c1.46.01 2.93 0 4.39-.02h.36v-.35c-.02-1.51-.08-3.01-.14-4.48-.05-1.48-.14-2.91-.21-4.29l-.21 4.48c-.06 1.33-.11 2.64-.13 3.94-1.22-.01-2.45-.02-3.67-.02l-.02-2.4c0-.94-.1-1.82.18-2.65.25-.84.76-1.6 1.43-2.19.67-.6 1.52-.99 2.43-1.17-.93.02-1.86.34-2.64.9a5 5 0 0 0-1.74 2.28h-.01zM82.92 49.56v-.23h-.22c-1.52.04-3 .15-4.39.22 1.46.06 2.82.17 4.16.21-.04 1.4-.1 2.79-.11 4.19-.03 1.34-.03 2.68-.04 4.03-1.23 0-2.45 0-3.68.03-.02-1.31-.08-2.63-.13-3.97-.05-1.45-.14-2.95-.21-4.49-.07 1.4-.16 2.84-.21 4.32-.05 1.48-.12 2.98-.14 4.49v.33h.34c1.46.03 2.93.03 4.39.04h.38v-.38c-.01-1.47 0-2.93-.04-4.4-.01-1.47-.08-2.93-.12-4.4l.02.01zM83.67 49.22h-.34v.34c.01 1.51.09 3.01.14 4.49.05 1.48.14 2.92.2 4.32.07-1.54.15-3.03.2-4.49.05-1.34.11-2.66.13-3.97 1.23.02 2.45.03 3.68.03 0 1.34 0 2.68.03 4.03.01 1.4.07 2.79.11 4.19-.63.02-1.26.05-1.92.09l-2.24.12 2.15.12c.73.05 1.49.09 2.24.1h.22v-.22c.04-1.47.11-2.93.12-4.4.03-1.47.03-2.93.04-4.4v-.38h-.38c-1.46.01-2.93 0-4.39.04l.01-.01z" fill="#000"/><path d="M61.35 37.85c-3.76 0-6.81 3.06-6.81 6.81V60.3h13.62V44.66c0-3.76-3.06-6.81-6.81-6.81zm-.49 1.96v8.78h-4.39v-3.93c0-2.52 1.93-4.6 4.39-4.85zm-4.38 9.75h4.39v8.8h-4.39v-8.8zm5.35 8.8v-8.8h4.39v8.8h-4.39zm4.39-9.77h-4.39v-8.78c2.46.24 4.39 2.33 4.39 4.85v3.93z" fill="#fff"/><path d="M68.5 60.3c-.03-4.39-.14-8.78-.2-13.17l-.03-1.65c0-.55-.01-1.1-.08-1.65-.16-1.1-.56-2.16-1.19-3.06-.64-.9-1.48-1.65-2.46-2.16-.98-.5-2.08-.77-3.17-.77 1.1.01 2.19.29 3.15.8.97.51 1.79 1.28 2.41 2.17.61.9 1 1.95 1.11 3.03.05.54.04 1.08.02 1.63l-.03 1.65c-.06 4.28-.17 8.55-.2 12.83l-6.48-.04-6.48.04c0-2.08-.06-4.17-.09-6.25l-.11-6.58-.03-1.65c-.01-.55-.03-1.1.03-1.63.11-1.08.5-2.13 1.12-3.03.62-.89 1.45-1.66 2.41-2.17.97-.51 2.06-.79 3.15-.8-1.1 0-2.19.26-3.17.77-.98.5-1.82 1.26-2.46 2.16-.64.9-1.03 1.97-1.19 3.06-.07.55-.08 1.11-.08 1.65l-.03 1.65-.11 6.58c-.03 2.19-.09 4.39-.09 6.58v.33h.33l6.81.05 6.81-.04h.34v-.34l-.01.01z" fill="#000"/><path d="M56.49 42.98c-.18.45-.29.94-.32 1.43-.03.49-.02.93-.04 1.4l-.03 2.77v.37h.37c1.46.01 2.93 0 4.39-.02h.36v-.35c-.02-1.51-.08-3.01-.14-4.48-.05-1.48-.14-2.91-.21-4.3l-.21 4.48c-.06 1.33-.11 2.64-.13 3.94-1.22-.01-2.45-.02-3.67-.02l-.02-2.4c0-.94-.1-1.82.18-2.65.25-.84.76-1.6 1.43-2.19.67-.6 1.52-.99 2.43-1.17-.93.02-1.86.34-2.64.9a5 5 0 0 0-1.74 2.28l-.01.01zM61.09 49.56v-.23h-.22c-1.52.04-3 .15-4.39.22 1.46.06 2.82.17 4.16.21-.04 1.4-.1 2.79-.11 4.19-.03 1.34-.03 2.68-.04 4.03-1.23 0-2.45 0-3.68.03-.02-1.31-.08-2.63-.13-3.97-.05-1.45-.14-2.95-.21-4.49-.07 1.4-.16 2.84-.21 4.32-.05 1.48-.12 2.98-.14 4.49v.33h.34c1.46.03 2.93.03 4.39.04h.38v-.38c-.01-1.47 0-2.93-.04-4.4-.01-1.47-.08-2.93-.12-4.4l.02.01zM61.83 49.22h-.34v.34c.01 1.51.09 3.01.14 4.49.05 1.48.14 2.92.2 4.32.07-1.54.15-3.03.2-4.49.05-1.34.11-2.66.13-3.97 1.23.02 2.45.03 3.68.03 0 1.34 0 2.68.03 4.03.01 1.4.07 2.79.11 4.19-.63.02-1.26.05-1.92.09l-2.24.12 2.15.12c.73.05 1.49.09 2.24.1h.22v-.22c.04-1.47.11-2.93.12-4.4.03-1.47.03-2.93.04-4.4v-.38h-.38c-1.46.01-2.93 0-4.39.04l.01-.01zM61.6 48.59v.24h.23c1.52-.04 3.01-.16 4.39-.23-1.46-.07-2.82-.18-4.15-.22.05-1.39.1-2.78.11-4.17.02-1.32.02-2.63.02-3.95.7.14 1.37.42 1.95.86a4.81 4.81 0 0 1 1.54 2.05c.36.81.3 1.72.36 2.62l.17 2.81.17-2.74c.04-.94.15-1.93-.18-2.87-.28-.94-.86-1.79-1.63-2.41-.76-.64-1.72-1.02-2.71-1.13l-.41-.04v.42c-.02 1.46 0 2.93.02 4.39.02 1.46.07 2.93.12 4.39v-.02z" fill="#000"/><path d="M154.77 52.03h11.68V37.36a5.84 5.84 0 0 0-11.68 0v14.67z" fill="url(#m)"/><path d="M118.12 52.03h-11.68V37.36c0-3.22 2.62-5.84 5.84-5.84 3.22 0 5.84 2.62 5.84 5.84v14.67z" fill="url(#n)"/><path d="M160.61 30.55c-3.76 0-6.81 3.06-6.81 6.81V53h13.62V37.36c0-3.76-3.06-6.81-6.81-6.81zm4.88 6.81v3.93h-4.39v-8.78c2.46.24 4.39 2.33 4.39 4.85zm-5.36-4.85v8.78h-4.39v-3.93c0-2.52 1.93-4.6 4.39-4.85zm-4.39 9.75h4.39v8.8h-4.39v-8.8zm5.36 8.8v-8.8h4.39v8.8h-4.39z" fill="#fff"/><path d="M167.759 53c-.03-4.39-.14-8.78-.2-13.17l-.03-1.65c0-.55-.01-1.1-.08-1.65-.16-1.1-.56-2.16-1.19-3.06-.64-.9-1.48-1.65-2.46-2.16-.98-.5-2.079-.77-3.169-.77 1.1.01 2.189.29 3.149.8.97.51 1.79 1.28 2.41 2.17.61.9 1 1.95 1.11 3.03.05.54.041 1.08.021 1.63l-.031 1.65c-.06 4.28-.17 8.55-.2 12.83l-6.48-.04-6.479.04c0-2.08-.061-4.17-.091-6.25l-.11-6.58-.03-1.65c-.01-.55-.03-1.1.03-1.63.11-1.08.5-2.13 1.12-3.03.62-.89 1.451-1.66 2.411-2.17a6.94 6.94 0 0 1 3.149-.8c-1.1 0-2.19.26-3.17.77-.98.5-1.82 1.26-2.46 2.16-.64.9-1.03 1.97-1.19 3.06-.07.55-.079 1.11-.079 1.65l-.031 1.65-.109 6.58c-.03 2.19-.091 4.39-.091 6.58v.33h.33l6.81.05 6.81-.04h.341v-.34l-.011.01z" fill="#000"/><path d="M160.819 41.6h.28l4.39-.22h.09v-.09c-.06-1.31-.08-2.62-.09-3.93 0 1.28-.03 2.56-.09 3.84l-4-.19c.11-2.74.09-5.48-.05-8.22 1.04.12 2.06.58 2.82 1.35.83.84 1.32 2.02 1.32 3.22 0-1.2-.43-2.39-1.21-3.32a5.04 5.04 0 0 0-3.16-1.77l-.25-.04v.28c-.17 2.93-.2 5.85-.07 8.78v.31h.02zM155.749 35.68c-.18.45-.29.94-.32 1.43-.03.49-.02.93-.04 1.4l-.03 2.77v.37h.37c1.46.01 2.93 0 4.39-.02h.36v-.35c-.02-1.51-.08-3.01-.14-4.48-.05-1.48-.14-2.91-.21-4.29l-.21 4.48c-.06 1.33-.11 2.64-.13 3.94-1.22-.01-2.45-.02-3.67-.02l-.02-2.4c0-.94-.1-1.82.18-2.65.25-.84.76-1.6 1.43-2.19.67-.6 1.52-.99 2.43-1.17-.93.02-1.86.34-2.64.9a5 5 0 0 0-1.74 2.28h-.01zM160.35 42.26v-.23h-.22c-1.52.04-3 .15-4.39.22 1.46.06 2.82.17 4.16.21-.04 1.4-.1 2.79-.11 4.19-.03 1.34-.03 2.68-.04 4.03-1.23 0-2.45 0-3.68.03-.02-1.31-.08-2.63-.13-3.97-.05-1.45-.14-2.95-.21-4.49-.07 1.4-.16 2.84-.21 4.32-.05 1.48-.12 2.98-.14 4.49v.33h.34c1.46.03 2.93.03 4.39.04h.38v-.38c-.01-1.47 0-2.93-.04-4.4-.01-1.47-.08-2.93-.12-4.4l.02.01zM161.1 41.92h-.34v.34c.01 1.51.09 3.01.14 4.49.05 1.48.14 2.92.2 4.32.07-1.54.15-3.03.2-4.49.05-1.34.11-2.66.13-3.97 1.23.02 2.45.03 3.68.03 0 1.34 0 2.68.03 4.03.01 1.4.07 2.79.11 4.19-.63.02-1.26.05-1.92.09l-2.24.12 2.15.12c.73.05 1.49.09 2.24.1h.22v-.22c.04-1.47.11-2.93.12-4.4.03-1.47.03-2.93.04-4.4v-.38h-.38c-1.46.01-2.93 0-4.39.04l.01-.01z" fill="#000"/><path d="M112.27 30.55c-3.76 0-6.81 3.06-6.81 6.81V53h13.62V37.36c0-3.76-3.06-6.81-6.81-6.81zm-.48 1.96v8.78h-4.39v-3.93c0-2.52 1.93-4.6 4.39-4.85zm-4.39 9.75h4.39v8.8h-4.39v-8.8zm5.36 8.8v-8.8h4.39v8.8h-4.39zm4.39-9.77h-4.39v-8.78c2.46.24 4.39 2.33 4.39 4.85v3.93z" fill="#fff"/><path d="M119.42 53c-.03-4.39-.14-8.78-.2-13.17l-.03-1.65c0-.55-.01-1.1-.08-1.65-.16-1.1-.56-2.16-1.19-3.06-.64-.9-1.48-1.65-2.46-2.16-.98-.5-2.08-.77-3.17-.77 1.1.01 2.19.29 3.15.8.97.51 1.79 1.28 2.41 2.17.61.9 1 1.95 1.11 3.03.05.54.04 1.08.02 1.63l-.03 1.65c-.06 4.28-.17 8.55-.2 12.83l-6.48-.04-6.48.04c0-2.08-.06-4.17-.09-6.25l-.11-6.58-.03-1.65c-.01-.55-.03-1.1.03-1.63.11-1.08.5-2.13 1.12-3.03.62-.89 1.45-1.66 2.41-2.17.97-.51 2.06-.79 3.15-.8-1.1 0-2.19.26-3.17.77-.98.5-1.82 1.26-2.46 2.16-.64.9-1.03 1.97-1.19 3.06-.07.55-.08 1.11-.08 1.65l-.03 1.65-.11 6.58c-.03 2.19-.09 4.39-.09 6.58v.33h.33l6.81.05 6.81-.04h.34v-.34l-.01.01z" fill="#000"/><path d="M107.41 35.68c-.18.45-.29.94-.32 1.43-.03.49-.02.93-.04 1.4l-.03 2.77v.37h.37c1.46.01 2.93 0 4.39-.02h.36v-.35c-.02-1.51-.08-3.01-.14-4.48-.05-1.48-.14-2.91-.21-4.3l-.21 4.48c-.06 1.33-.11 2.64-.13 3.94-1.22-.01-2.45-.02-3.67-.02l-.02-2.4c0-.94-.1-1.82.18-2.65.25-.84.76-1.6 1.43-2.19.67-.6 1.52-.99 2.43-1.17-.93.02-1.86.34-2.64.9a5 5 0 0 0-1.74 2.28l-.01.01zM112.01 42.26v-.23h-.22c-1.52.04-3 .15-4.39.22 1.46.06 2.82.17 4.16.21-.04 1.4-.1 2.79-.11 4.19-.03 1.34-.03 2.68-.04 4.03-1.23 0-2.45 0-3.68.03-.02-1.31-.08-2.63-.13-3.97-.05-1.45-.14-2.95-.21-4.49-.07 1.4-.16 2.84-.21 4.32-.05 1.48-.12 2.98-.14 4.49v.33h.34c1.46.03 2.93.03 4.39.04h.38v-.38c-.01-1.47 0-2.93-.04-4.4-.01-1.47-.08-2.93-.12-4.4l.02.01zM112.76 41.92h-.34v.34c.01 1.51.09 3.01.14 4.49.05 1.48.14 2.92.2 4.32.07-1.54.15-3.03.2-4.49.05-1.34.11-2.66.13-3.97 1.23.02 2.45.03 3.68.03 0 1.34 0 2.68.03 4.03.01 1.4.07 2.79.11 4.19-.63.02-1.26.05-1.92.09l-2.24.12 2.15.12c.73.05 1.49.09 2.24.1h.22v-.22c.04-1.47.11-2.93.12-4.4.03-1.47.03-2.93.04-4.4v-.38h-.38c-1.46.01-2.93 0-4.39.04l.01-.01zM112.53 41.29v.24h.23c1.52-.04 3.01-.16 4.39-.23-1.46-.07-2.82-.18-4.15-.22.05-1.39.1-2.78.11-4.17.02-1.32.02-2.63.02-3.95.7.14 1.37.42 1.95.86a4.81 4.81 0 0 1 1.54 2.05c.36.81.3 1.72.36 2.62l.17 2.81.17-2.74c.04-.94.15-1.93-.18-2.87-.28-.94-.86-1.79-1.63-2.41-.76-.64-1.72-1.02-2.71-1.13l-.41-.04v.42c-.02 1.46 0 2.93.02 4.39.02 1.46.07 2.93.12 4.39v-.02z" fill="#000"/><path d="M163.76 69.73h-55.37v1.45h12.92v27.01h1.45V71.18h12.59v27.01h1.45V71.18h12.59v27.01h1.45V71.18h12.92v-1.45zM139.637 53.814c6.277-1.966 9.772-8.648 7.806-14.925-1.966-6.277-8.648-9.772-14.925-7.806-6.277 1.966-9.772 8.648-7.806 14.925 1.966 6.277 8.648 9.772 14.925 7.806z" fill="#0ABBEF"/><path d="M137.4 55.26c-8.14.81-14.95-6-14.13-14.13.6-6.02 5.47-10.89 11.5-11.5 8.14-.81 14.95 6 14.14 14.14-.6 6.02-5.47 10.89-11.5 11.5l-.01-.01zm-.2-23.7c-6.91-.69-12.7 5.1-12.01 12.01.51 5.12 4.65 9.26 9.77 9.77 6.91.69 12.7-5.1 12.01-12.01-.51-5.12-4.65-9.26-9.77-9.77z" fill="#000"/><path d="M136.08 32.15h-.01a.48.48 0 0 0-.48.48v1.22c0 .264.215.48.48.48h.01a.48.48 0 0 0 .48-.48v-1.22a.48.48 0 0 0-.48-.48zM130.935 33.528l-.009.005a.48.48 0 0 0-.175.655l.61 1.057a.48.48 0 0 0 .655.175l.009-.005a.48.48 0 0 0 .176-.655l-.61-1.057a.48.48 0 0 0-.656-.175zM127.151 37.278l-.005.008a.48.48 0 0 0 .176.656l1.056.61a.48.48 0 0 0 .656-.175l.005-.01a.48.48 0 0 0-.176-.655l-1.056-.61a.48.48 0 0 0-.656.176zM127.471 41.96h-1.22a.48.48 0 0 0-.48.48v.01c0 .265.214.48.48.48h1.22a.48.48 0 0 0 .48-.48v-.01a.48.48 0 0 0-.48-.48zM128.385 46.339l-1.056.61a.48.48 0 0 0-.176.655l.005.009a.48.48 0 0 0 .656.176l1.056-.61a.48.48 0 0 0 .176-.656l-.005-.009a.48.48 0 0 0-.656-.175zM131.36 49.666l-.61 1.056a.48.48 0 0 0 .175.656l.009.005a.48.48 0 0 0 .656-.176l.61-1.056a.48.48 0 0 0-.176-.656l-.009-.005a.48.48 0 0 0-.655.175zM136.08 50.57h-.01a.48.48 0 0 0-.48.48v1.22c0 .264.215.48.48.48h.01a.48.48 0 0 0 .48-.48v-1.22a.48.48 0 0 0-.48-.48zM140.146 49.466l-.009.005a.48.48 0 0 0-.175.656l.61 1.056a.48.48 0 0 0 .655.176l.009-.005a.48.48 0 0 0 .176-.656l-.61-1.056a.48.48 0 0 0-.656-.176zM143.102 46.49l-.005.008a.481.481 0 0 0 .176.656l1.057.61a.48.48 0 0 0 .655-.176l.005-.008a.48.48 0 0 0-.175-.656l-1.057-.61a.48.48 0 0 0-.656.176zM145.9 41.96h-1.22a.48.48 0 0 0-.48.48v.01c0 .265.215.48.48.48h1.22a.48.48 0 0 0 .48-.48v-.01a.48.48 0 0 0-.48-.48zM144.337 37.13l-1.057.61a.48.48 0 0 0-.176.655l.005.009a.48.48 0 0 0 .656.176l1.057-.61a.48.48 0 0 0 .175-.656l-.005-.008a.48.48 0 0 0-.655-.176zM140.563 33.697l-.61 1.056a.48.48 0 0 0 .176.656l.008.005a.48.48 0 0 0 .656-.176l.61-1.057a.48.48 0 0 0-.176-.655l-.009-.005a.48.48 0 0 0-.655.176zM138.11 46.75l-2.45-4.05a.451.451 0 0 1-.07-.25V35.9a.48.48 0 0 1 .96 0v6.28c0 .09.02.18.07.25l2.31 3.82a.487.487 0 1 1-.83.51l.01-.01z" fill="#000"/><path d="m175.58 98.19-.21-19.44-.11-9.72-.05-9.72c-.05-6.48-.02-12.96 0-19.44 0-6.48.1-12.96.15-19.44v-.41h-.42l-19.44-.19-19.44-.11-19.44-.08H96.39v.78c.02 6.52 0 13.06.07 19.58l.17 19.53.5 38.7 10.49.15v.56h56.89v-.1c3.48-.01 6.96-.03 10.43-.03h.64v-.63.01zm-.89-38.88-.05 9.72-.11 9.72-.2 18.81c-3.27 0-6.54-.02-9.81-.03v-7.17c-.02-2.61-.17-5.19-.25-7.76l-.51-15.17-.51 15.59c-.08 2.56-.23 5.11-.25 7.63v6.79h-53.85V68.19l26.63-.06c2.3-.03 4.54.04 6.86-.05l6.99-.23 14.13-.42-13.56-.42-6.85-.23c-2.29-.08-4.67-.01-6.98-.05l-27.98-.06h-.76V98l-10.38.15.5-39.05.17-19.35c.06-6.18.05-12.34.06-18.52h18.66l19.44-.07 19.44-.11 19.03-.18c.05 6.34.14 12.68.14 19.02.03 6.48.05 12.96 0 19.44v-.02z" fill="#000"/><path d="M166.74 64.46h-61.33v2.96h61.33v-2.96z" fill="#0ABBEF"/><path d="M166.74 64.26c-2.56-.11-5.11-.19-7.67-.25-2.56-.08-5.11-.14-7.67-.18l-7.67-.13-7.67-.05c-5.11-.01-10.22.06-15.33.11-5.11.05-10.22.15-15.33.29h-.42v.42l.07 2.96v.36h.35c2.57-.07 5.13-.09 7.69-.11 2.56-.03 5.12-.01 7.7.03 5.14.1 10.34.27 15.53.33 5.18.04 10.31-.04 15.41-.13 5.08-.12 10.14-.23 15.06-.42.05-.96.12-1.97.15-3.01v-.2h-.2v-.02zm-15.66 2.68c-5.13-.09-10.21-.16-15.26-.13-5.04.06-10.06.23-15.13.33-2.54.04-5.09.06-7.64.03-2.43-.02-4.86-.04-7.29-.1l.05-2.19c4.98.13 9.95.23 14.93.28 5.11.04 10.22.12 15.33.11l7.67-.05 7.67-.13c2.56-.03 5.11-.1 7.67-.18 2.49-.06 4.98-.14 7.47-.25l.14 2.69c-5.3-.2-10.46-.31-15.6-.42l-.01.01z" fill="#000"/><path d="M35.56 63h-5.8v42.34h5.8V63z" fill="#0ABBEF"/><path d="m35.93 73.65-.08-10.66v-.3h-.3l-5.8.09h-.21v.21c.06 3.53.1 7.06.09 10.58 0 3.53-.08 7.06-.15 10.58-.04 1.76-.06 3.53-.06 5.29-.02 1.76-.01 3.53 0 5.29l.04 5.289.09 5.29v.2h.2c1.98-.04 3.94-.11 5.82-.17l.2-10.45.13-10.59c0-3.55.06-7.1.02-10.66l.01.01zm-5.97 31.489.09-5.1.04-5.29c.02-1.76.02-3.53 0-5.29 0-1.76-.02-3.53-.06-5.29-.06-3.53-.14-7.06-.15-10.58 0-3.46.03-6.92.08-10.37l5.29.08-.08 10.22c-.03 3.49.01 7 .02 10.51l.13 10.58.2 10.71c-1.91-.05-3.75-.12-5.57-.16l.01-.02z" fill="#000"/><path d="M45.72 63h-5.8v42.34h5.8V63z" fill="#0ABBEF"/><path d="m46.09 73.65-.08-10.66v-.3h-.3l-5.8.09h-.21v.21c.06 3.53.1 7.06.09 10.58 0 3.53-.08 7.06-.15 10.58-.04 1.76-.06 3.53-.06 5.29-.02 1.76-.01 3.53 0 5.29l.04 5.289.09 5.29v.2h.2c1.98-.04 3.94-.11 5.82-.17l.2-10.45.13-10.59c0-3.55.06-7.1.02-10.66l.01.01zm-5.97 31.489.09-5.1.04-5.29c.02-1.76.02-3.53 0-5.29 0-1.76-.02-3.53-.06-5.29-.06-3.53-.14-7.06-.15-10.58 0-3.46.03-6.92.08-10.37l5.29.08-.08 10.22c-.03 3.49.01 7 .02 10.51l.13 10.58.2 10.71c-1.91-.05-3.75-.12-5.57-.16l.01-.02z" fill="#000"/><path d="M95.84 63h-5.8v42.34h5.8V63z" fill="#0ABBEF"/><path d="m96.22 73.65-.08-10.66v-.3h-.3l-5.8.09h-.21v.21c.06 3.53.1 7.06.09 10.58 0 3.53-.08 7.06-.15 10.58-.04 1.76-.06 3.53-.06 5.29-.02 1.76-.01 3.53 0 5.29l.04 5.289.09 5.29v.2h.2c1.98-.04 3.94-.11 5.82-.17l.2-10.45.13-10.59c0-3.55.06-7.1.02-10.66l.01.01zm-5.98 31.489.09-5.1.04-5.29c.02-1.76.02-3.53 0-5.29 0-1.76-.02-3.53-.06-5.29-.06-3.53-.14-7.06-.15-10.58 0-3.46.03-6.92.08-10.37l5.29.08-.08 10.22c-.03 3.49.01 7 .02 10.51l.13 10.58.2 10.71c-1.91-.05-3.75-.12-5.57-.16l.01-.02z" fill="#000"/><path d="M104.59 63h-5.8v42.34h5.8V63z" fill="#0ABBEF"/><path d="m104.97 73.65-.08-10.66v-.3h-.3l-5.8.09h-.21v.21c.06 3.53.1 7.06.09 10.58 0 3.53-.08 7.06-.15 10.58-.04 1.76-.06 3.53-.06 5.29-.02 1.76-.01 3.53 0 5.29l.04 5.289.09 5.29v.2h.2c1.98-.04 3.94-.11 5.82-.17l.2-10.45.13-10.59c0-3.55.06-7.1.02-10.66l.01.01zm-5.98 31.489.09-5.1.04-5.29c.02-1.76.02-3.53 0-5.29 0-1.76-.02-3.53-.06-5.29-.06-3.53-.14-7.06-.15-10.58 0-3.46.03-6.92.08-10.37l5.29.08-.08 10.22c-.03 3.49.01 7 .02 10.51l.13 10.58.2 10.71c-1.91-.05-3.75-.12-5.57-.16l.01-.02z" fill="#000"/><path d="M149.851 57.79H18.771v7.95h131.08v-7.95z" fill="#fff"/><path d="M149.85 57.56c-5.46-.12-10.92-.18-16.39-.25-5.46-.08-10.92-.13-16.39-.17l-16.39-.12-16.39-.03c-10.92-.05-21.85.05-32.77.08-10.92.05-21.85.15-32.77.29h-.42v.42l.08 7.95v.34h.33c10.94-.11 21.87-.12 32.83-.05 10.96.09 21.98.29 32.96.31 11 .06 21.92-.07 32.85-.12 10.89-.11 21.76-.23 32.5-.42l.17-8.01v-.22h-.23.03zm-33.09 7.71c-10.92-.05-21.85-.18-32.7-.12-10.86.02-21.69.22-32.58.31-10.78.07-21.59.06-32.38-.04l.07-7.2c10.79.14 21.57.24 32.36.29 10.92.04 21.85.13 32.77.08l16.39-.03 16.39-.12c5.46-.04 10.92-.09 16.39-.17 5.39-.07 10.78-.13 16.17-.25l.17 7.67c-11.11-.19-22.08-.31-33.04-.42h-.01z" fill="#000"/><path d="M111.73 104.24H25.98v5.01h85.75v-5.01zM177 20.43H95.15v2.96H177v-2.96z" fill="#fff"/><path d="M111.78 109.3c-6.96.2-14.06.31-21.17.42-7.13.09-14.3.16-21.51.13-7.22-.05-14.45-.22-21.63-.33-7.18-.09-14.32-.04-21.49.06h-.33v-.34l-.08-5.01v-.41h.42c7.15-.14 14.29-.24 21.44-.29 7.15-.04 14.29-.12 21.44-.11 7.15 0 14.29.07 21.44.17 3.57.04 7.15.09 10.72.17 3.57.07 7.15.14 10.72.24h.23v.23l-.17 5.06-.03.01zm-.11-.11-.17-4.96.23.23c-3.57.11-7.15.18-10.72.24-3.57.08-7.15.13-10.72.17-7.15.1-14.29.17-21.44.17-7.15.01-14.29-.07-21.44-.11-7.15-.05-14.29-.15-21.44-.29l.42-.42-.08 5.01-.34-.34c7.12.1 14.27.14 21.38.06 7.11-.1 14.17-.28 21.24-.33 7.08-.03 14.21.05 21.36.13 7.18.12 14.37.23 21.71.42l.01.02zM177.03 23.42l-20.33.21c-6.82.03-13.64.09-20.5.06l-20.56-.16c-6.84-.04-13.66-.02-20.49.04h-.18v-.18l-.02-2.96v-.21h.21l20.46-.15 20.46-.04 10.23.02 10.23.08c6.82.07 13.64.08 20.46.21h.09v.08l-.06 2.99v.01zm-.06-.06-.06-2.93.08.08c-6.82.13-13.64.14-20.46.21l-10.23.08-10.23.02-20.46-.04-20.46-.15.21-.21-.02 2.96-.18-.18c6.81.07 13.63.08 20.44.04l20.37-.16c6.78-.03 13.6.03 20.42.06l20.6.21-.02.01z" fill="#000"/><path d="M174.57 23.4H97.95v1.75h76.62V23.4z" fill="#0ABBEF"/><path d="m100.18 109.49-1.02 4.43c-.08.35-.4.6-.75.6l-5.43-.04c-.46 0-.81-.42-.75-.88v-.1c.05-.34.07-.67.08-1.01a8.905 8.905 0 0 0-9.67-8.92c-3.66.31-6.68 2.89-7.73 6.26-.25.81-.39 1.67-.4 2.55 0 .37.02.74.06 1.1.05.46-.3.88-.77.87l-30.89-.22c-.47 0-.82-.42-.75-.89a8.718 8.718 0 0 0-.6-4.56c-1.23-2.94-4-5.13-7.32-5.45a8.887 8.887 0 0 0-7.49 2.88 8.86 8.86 0 0 0-1.97 3.55 9.148 9.148 0 0 0-.27 3.47c.05.47-.3.87-.76.87l-13.69-.09c-.07 0-.14 0-.2-.03l-8.9-2.52a.782.782 0 0 1-.56-.68l-.23-3.36c-.02-.24.08-.48.27-.64l1.69-1.43c.17-.14.27-.36.27-.58l.04-6.93c0-.19-.07-.38-.2-.53l-.91-.99a.775.775 0 0 1-.2-.56l.36-6.15.45-7.77c.03-.41.37-.73.77-.73l8.23.06 81.98 1.01c.36 0 .68.27.74.63l.26 1.38 3.03 16.39 1.13 6.13c.02.15.1.28.2.39l1.72 1.79c.18.19.25.46.19.71l-.01-.01z" fill="url(#o)"/><path d="m10.31 104.74 1.35-.07c.08-.2.06-.44-.07-.62a.63.63 0 0 0-.57-.25c-.05-.47-.34-.9-.76-1.12-.42-.22-.93-.23-1.35-.02.05-.35.05-.7.01-1.04-.02-.15-.04-.31-.11-.45a1.15 1.15 0 0 0-.29-.33c-.37-.29-.89-.39-1.34-.24-.45.15-.79.58-.82 1.05-.06-.33-.35-.58-.68-.67-.33-.09-.67-.03-.98.07-.08.03-.17.06-.21.14-.04.06-.04.14-.04.21-.01 1.1-.03 2.2-.04 3.3.07.02.15.01.22-.02M17.07 102.02a.724.724 0 0 0-.85-.32c-.23.08-.4.27-.55.47-.21.28-.4.59-.43.94 2.63-.12 5.27-.08 7.9.11.07 0 .14 0 .2-.02.17-.08.14-.35 0-.46-.14-.11-.35-.11-.53-.11-.05 0-.1 0-.14-.03-.04-.03-.06-.09-.07-.15-.14-.7-.54-1.37-1.17-1.71-.63-.34-1.48-.29-1.98.21-.29.29-.43.68-.57 1.07-.24-.53-.96-.77-1.46-.48M28.08 99.79l-3.56.24c-.06 0-.13 0-.18.05-.08.05-.1.15-.12.25-.47 2.69.23 5.44.09 8.17.34-2.44.67-4.87 1.01-7.31 0-.04.01-.08.04-.11.03-.04.09-.05.13-.06.76-.12 1.52-.2 2.29-.24.39.83.72 1.68.99 2.56-.06-1.14-.19-2.28-.4-3.4" fill="#fff"/><path d="m33.62 99.79-3.54.18c-.19 1.21-.15 2.45-.08 3.67.22-.85.44-1.69.65-2.54.02-.08.05-.17.11-.23.07-.07.18-.09.28-.1.65-.1 1.31-.16 1.97-.2.05 0 .1 0 .14.01.06.02.1.07.14.12.27.32.48.7.6 1.11-.01-.66-.03-1.32-.04-1.99" fill="#000"/><path d="M10.4 106.48c-.03 1.93-.03 3.87.02 5.8.13-.37.38-.69.7-.91.04-1.28.15-2.55.35-3.81.02-.1.04-.21.1-.28.1-.11.26-.12.4-.13 2.38-.1 4.74-.34 7.09-.69M9.68 106.35c-1.74.2-3.52-.23-5.26 0-.03 1.9-.06 3.8-.08 5.69 0 .06 0 .13.04.18.03.05.09.07.14.09.37.15.74.28 1.12.4-.16-.27-.19-.6-.2-.91-.08-1.57-.1-3.14-.05-4.71l4.71-.57" fill="#fff"/><path d="m16.42 108.09-.16 2.88s0 .08.02.11c.03.04.08.05.12.06.21.07.35.3.32.52.15-.12.34-.2.53-.19.19.01.38.14.42.33.19-.36.43-.71.77-.94.34-.23.81-.3 1.16-.1-.05-.11-.18-.14-.3-.16-.63-.09-1.28.01-1.85.29 0-.76 0-1.51-.03-2.27.59-.34 1.22-.61 1.87-.81l-.33-.06" fill="#fff"/><path d="M9.76 113.83c-.06-.25-.07-.51-.03-.77.36-.01.72.12.98.36 0-.21.02-.43.12-.62.1-.19.32-.33.53-.26.09.03.17.1.24.17.17.17.31.37.42.58.11-.44.32-.86.61-1.22.21-.26.52-.51.85-.45.27.05.46.3.54.56.08.26.05.54.02.81.09-.32.24-.62.43-.88.13-.18.36-.36.56-.25.07.04.12.1.16.17.19.31.26.68.21 1.03.05-.27.39-.43.64-.31s.36.44.27.69c.07-.21.39-.24.55-.08.16.16.16.42.09.63" fill="url(#p)"/><path d="M17.62 113.87c.19-.62.47-1.21.81-1.76.1-.16.22-.33.41-.36.1-.02.2 0 .3.04.4.16.64.64.54 1.05.21-.37.45-.72.72-1.05.08-.1.2-.21.33-.18.14.04.19.22.19.37.03.45 0 .91-.07 1.36.28-.17.54-.37.78-.59.1-.09.21-.2.35-.22.25-.05.48.18.53.43.05.25-.04.5-.12.74.12-.13.32-.21.49-.14.17.07.25.32.12.45" fill="#76B82A"/><path d="m4.52 86.26-.73 5.86c-.01.12-.03.24 0 .36.03.13.09.24.16.35 1.01 1.65 2.03 3.3 3.04 4.95.1.15.2.32.36.4.13.06.29.06.43.06 5.26-.05 10.52-.11 15.74-.71-1.71.16-3.43.12-5.14.08-3.28-.07-6.56-.15-9.84-.22-.18 0-.36 0-.52-.08-.24-.1-.41-.34-.55-.56-.71-1.07-1.42-2.13-2.13-3.2-.51-.77-1.05-1.7-.73-2.57" fill="#fff"/><path d="M2.31 98.18c-.55.06-1.17-.18-1.64.13-.43.28-.5.87-.51 1.38-.04 1.36 0 2.72.03 4.09 0 .27.02.57.19.79.26.35.77.35 1.2.32.25-.02.51-.03.76-.05.07 0 .16-.06.12-.11" fill="url(#q)"/><path d="M2.46 98.49c-.4.32-.99.41-1.29.83-.13.18-.18.39-.23.6-.28 1.251-.28 2.551-.67 3.771-.03-1.45 0-2.91.1-4.36.02-.3.05-.63.26-.85.23-.25.61-.28.95-.29.33-.02.66-.03 1-.05M16.05 83.56c-3.94-.31-7.89-.53-11.84-.64-.03 0-.06 0-.09.02s-.03.06-.03.1c0 .48.01.96.02 1.44.01.8.02 1.61.17 2.39.12.6.32 1.19.29 1.8-.05-1.55-.11-3.1.01-4.65 0-.12.02-.26.11-.35.09-.09.26-.12.32-.01M45.23 101.65c.22-.69.7-1.27 1.26-1.73.59-.5 1.28-.88 2.02-1.12-.53 1.27-1.62 2.21-2.71 3.05.29-.29.53-.63.69-1-.44.19-.83.49-1.12.88" fill="#fff"/><path d="M46.92 102.48c.63.07 1.26.24 1.79.59s.95.9 1.04 1.53c-.51-.15-.99-.42-1.39-.78-.34-.3-.72-.7-1.16-.6a.5.5 0 0 1-.06.56c-.13.15-.36.21-.55.14 1.56 2.26 1.97 5.09 2.34 7.81-.27-.15-.66.07-.67.37.09-.22-.19-.45-.43-.4-.24.05-.4.26-.54.45.37-1.41.13-2.9-.17-4.33-.14-.65-.29-1.3-.47-1.94-.23-.79-.53-1.6-1.12-2.17-.04-.04-.08-.07-.13-.07s-.08.04-.12.07c-.24.13-.47-.35-.72-.26-.07.03-.12.1-.16.16-.58.86-1.48 1.49-2.49 1.75.41-.58.88-1.12 1.4-1.6.46-.43.97-.84 1.27-1.39-1.03.1-2.09-.29-2.81-1.03.56-.07 1.13-.13 1.69-.07s1.13.25 1.53.64c.44-.64 1.03-1.19 1.7-1.59-.27.67-.6 1.31-.99 1.92.32-.18.53-.56.89-.6.23-.02.46.12.54.33.08.21 0 .47-.19.6M57.12 101.86a2.59 2.59 0 0 0-.8-1.81c-.49-.47-1.17-.73-1.85-.71a6.407 6.407 0 0 0 2.29 2.5c-1.32-.21-2.74-.42-3.94.17 1.11.66 2.53.77 3.73.28-1.57 1.03-2.42 2.86-3.06 4.62-.65 1.8-1.19 3.68-1.17 5.6.18-.28.37-.55.57-.81l.16.29c.05-1.44.49-2.87 1.27-4.09l.22 1.24c.23-1.29.66-2.53 1.08-3.77.3-.87.6-1.76 1.14-2.51.23-.32.51-.63.59-1.02M57.52 101.53c.44-.65 1.16-1.08 1.92-1.3.76-.22 1.56-.23 2.34-.2-.54 1-1.48 1.78-2.56 2.12-.47.15-1 .21-1.44 0 .64-.24 1.33-.54 1.62-1.15-.65.02-1.29.26-1.79.67" fill="#fff"/><path d="M46.58 106.021c-1.45 0-2.89 0-4.34.07-.45.02-.91.06-1.31.26 1.31 1.02 1.91 2.69 2.42 4.28.15.46.29.93.26 1.4a9.48 9.48 0 0 0-1.32-5.43c1.5.12 3.01.2 4.52.22M47.83 106.101c2.1.12 4.22-.4 6.29-.03.04.26.03.53-.02.79-2.07-.23-4.15-.33-6.23-.31M55.11 106.19c2.5-.09 5-.02 7.49.23-.45 1.21-.85 2.45-1.18 3.7-.1-.41-.08-.84-.05-1.26.05-.71.09-1.43.14-2.14-2.27-.14-4.55-.2-6.83-.18" fill="#fff"/><path d="m53.65 97.88 9.37.7.74 13.49.1-13.88c-.01-.29-10.2-.31-10.2-.31h-.01zM74.23 97.95l-.05 7.66.83-6.79s3.69-.74 6.56.29c2.87 1.03 7.68 4.25 9.51 4.5s2.39-.26 2.39-.26l-3.03-1.17-5.96-3.14-2.41-1.02-1.58-.19-4.68.08-1.58.06v-.02zM65.58 93.95c1.09-.09 2.13.69 2.52 1.71.39 1.02.19 2.2-.35 3.14.31-.25.51-.59.66-.96.4-1.01.31-2.2-.22-3.14a3.726 3.726 0 0 0-2.58-1.81M72.87 88.08l-6.74.59-.75 4.3.21-4.89h7.28zM65.51 100.04l-.05 5.95 7.3.14-6.5-.88-.75-5.21zM66.63 108.281l-.01 3.47.58-2.41 4.24-1.09-5.02-.19" fill="#fff"/><path d="M92.31 111.43h-.06c-.53-4.69-4.69-8.28-9.61-7.87-3.66.31-6.68 2.89-7.73 6.26.04-1.89.71-3.75 1.89-5.22.42-.53.91-1.01 1.47-1.4 1.3-.92 2.92-1.32 4.5-1.26 1.59.06 3.14.56 4.53 1.31 1.5.81 2.86 1.92 3.8 3.33.94 1.42 1.43 3.16 1.21 4.85zM41.56 108.68c-1.23-2.94-4-5.13-7.32-5.45a8.887 8.887 0 0 0-7.49 2.88 8.86 8.86 0 0 0-1.97 3.55c-.07-.77.14-1.61.46-2.34.54-1.25 1.37-2.39 2.46-3.19 1.07-.78 2.36-1.21 3.66-1.41 2.15-.34 4.42-.05 6.32.98 1.91 1.04 3.42 2.86 3.88 4.98zM100.18 109.49l-1.02 4.43c-.08.35-.4.6-.75.6l-5.43-.04c-.46 0-.81-.42-.75-.88v-.1c.11-.02.22-.02.32-.02 1.96.05 3.92.09 5.88.12.08 0 .17 0 .23-.05.05-.04.07-.1.09-.16.37-1.13.66-2.29.87-3.46.04-.19.06-.39 0-.58-.05-.17-.17-.31-.28-.44-1.3-1.51-2.61-3.03-4.05-4.43-.07-.07-.15-.15-.19-.25a.492.492 0 0 1-.02-.24c.03-1.24.05-2.48.08-3.71l1.79.2 1.13 6.13c.02.15.1.28.2.39l1.72 1.79c.18.19.25.46.19.71l-.01-.01zM93.92 84.08l-.77.6-1.83-1.54-88.43-.95-1.41 7.31.45-7.77c.03-.41.37-.73.77-.73l8.23.06 81.98 1.01c.36 0 .68.27.74.63l.26 1.38h.01z" fill="#fff"/><path d="M40.65 112.44c0 .69-.11 1.36-.29 1.98a7.191 7.191 0 0 1-6.94 5.15c-3.28-.02-6.02-2.24-6.86-5.24a7.174 7.174 0 0 1 6.96-9.12c3.97.03 7.16 3.26 7.13 7.23zM90.82 112.79c0 .69-.11 1.36-.29 1.98a7.191 7.191 0 0 1-6.94 5.15c-3.28-.02-6.02-2.24-6.86-5.24a7.174 7.174 0 0 1 6.96-9.12c3.97.03 7.16 3.26 7.13 7.23z" fill="#4C4C4C"/><path d="m14.033 85.927-.063 8.99a1.27 1.27 0 0 0 1.26 1.278l13.36.094a1.27 1.27 0 0 0 1.28-1.261l.062-8.99a1.27 1.27 0 0 0-1.26-1.28l-13.36-.092a1.27 1.27 0 0 0-1.28 1.26z" fill="url(#r)"/><path d="m31.112 86.048-.063 8.99a1.27 1.27 0 0 0 1.261 1.279l13.36.093a1.27 1.27 0 0 0 1.279-1.261l.062-8.99a1.27 1.27 0 0 0-1.26-1.279l-13.36-.093a1.27 1.27 0 0 0-1.28 1.26z" fill="url(#s)"/><path d="m48.486 86.167-.063 8.99a1.27 1.27 0 0 0 1.261 1.279l11.25.078a1.27 1.27 0 0 0 1.279-1.26l.062-8.99a1.27 1.27 0 0 0-1.26-1.28l-11.25-.078a1.27 1.27 0 0 0-1.28 1.261z" fill="url(#t)"/><path d="m11.43 84.64-3.91-.03c-.85 0-1.54.68-1.55 1.53l-.03 4.98c0 .34.11.68.32.95l2.68 3.49c.29.38.73.6 1.21.6h1.2c.85.01 1.54-.67 1.55-1.52l.06-8.45c0-.85-.68-1.54-1.53-1.55z" fill="url(#u)"/><path d="m77.26 85.48 7.84.05c.61 0 1.16.37 1.4.93l3.5 8.09a1.54 1.54 0 0 1-1.42 2.15l-11.39-.08c-.85 0-1.53-.7-1.53-1.55l.06-8.07c0-.85.7-1.53 1.55-1.53l-.01.01z" fill="url(#v)"/><path d="m93.57 83.03-2.24-.02 1.88 6.07 1.63.01" fill="url(#w)"/><path d="m98.07 106.6-2.4-3.14-2.24-13.45 1.59.02" fill="url(#x)"/><path d="M40.46 113.96c-.09-.16-.21-.27-.34-.36-.13-.09-.27-.15-.41-.2-.14-.04-.3-.06-.45-.05-.16.01-.32.04-.49.14.11.16.24.26.37.35a1.56 1.56 0 0 0 .84.24c.15 0 .3-.02.48-.09-.21.87-.57 1.71-1.08 2.44-.04-.18-.11-.33-.2-.45-.09-.13-.2-.25-.32-.35-.12-.1-.26-.18-.42-.24-.16-.06-.33-.1-.53-.08.06.2.14.35.23.48.09.12.2.23.32.33s.26.18.41.24c.14.06.3.1.49.1a6.797 6.797 0 0 1-1.47 1.52c0-.2-.04-.37-.08-.53-.06-.18-.14-.34-.23-.49-.09-.16-.2-.31-.34-.45s-.31-.27-.53-.33c.02.23.05.41.1.59s.12.35.21.51c.1.16.22.31.36.45.13.12.27.22.44.3-.56.41-1.17.74-1.82.98.04-.09.07-.18.08-.26.02-.13 0-.25-.02-.36-.03-.11-.08-.22-.16-.33-.08-.1-.17-.2-.33-.28-.1.15-.13.28-.15.41-.02.13 0 .25.02.36.03.11.08.22.16.33.05.07.13.14.21.2-.37.12-.74.22-1.13.28.06-.1.1-.2.13-.29.04-.15.06-.29.05-.43 0-.14-.03-.28-.09-.42a1.38 1.38 0 0 0-.27-.43c-.13.14-.19.29-.23.44-.04.15-.06.29-.05.44 0 .15.03.29.09.43.04.1.09.19.16.28-.35.04-.71.07-1.06.06-.34-.01-.69-.06-1.02-.12.05-.05.09-.11.13-.16.07-.11.12-.23.15-.35.03-.12.03-.25.01-.38a1.09 1.09 0 0 0-.16-.43c-.15.09-.25.2-.32.31-.07.11-.12.24-.15.36-.03.13-.03.26-.02.39.01.07.03.13.05.2-.46-.1-.9-.25-1.33-.44-.14-.06-.27-.13-.4-.2a1.398 1.398 0 0 0 .42-.47c.07-.13.11-.26.14-.41.02-.15.03-.3-.02-.49-.18.06-.31.16-.42.26a1.324 1.324 0 0 0-.4.75c0 .06-.01.13-.01.2-.46-.27-.88-.6-1.26-.97.11-.04.22-.09.32-.15.18-.11.35-.24.5-.39.15-.15.28-.32.39-.5.11-.19.2-.39.23-.63-.24.07-.42.18-.6.29-.17.12-.33.25-.47.4-.14.14-.27.3-.39.48-.06.1-.12.21-.18.32l-.04-.04c-.4-.4-.73-.87-1.01-1.36a1.834 1.834 0 0 0 .67-.22c.14-.08.28-.17.4-.28.12-.12.24-.25.34-.43a1.33 1.33 0 0 0-.56-.01 1.677 1.677 0 0 0-.9.48c-.05.05-.09.1-.13.16-.1-.2-.19-.4-.27-.6-.16-.38-.27-.78-.36-1.19.07 0 .14.01.2 0 .16 0 .32-.04.46-.09.15-.05.29-.12.42-.22s.26-.21.37-.39c-.19-.07-.36-.09-.52-.08-.17 0-.32.04-.47.09-.15.05-.3.13-.43.22-.03.02-.06.05-.09.08-.05-.35-.08-.71-.08-1.06 0-.17.01-.33.03-.5.02 0 .04.02.07.03.12.04.25.05.37.04a.894.894 0 0 0 .67-.41c-.14-.11-.26-.16-.38-.2-.12-.03-.24-.04-.35-.03-.11 0-.21.04-.32.09.11-.72.32-1.41.64-2.06.03.04.05.08.09.12.11.12.24.22.39.3.14.07.3.12.47.14.17.02.34.01.53-.06-.1-.17-.22-.29-.33-.39a1.922 1.922 0 0 0-.79-.41l-.17-.03c.3-.54.67-1.05 1.12-1.5.11-.11.23-.21.34-.32.01.06.02.13.04.19.05.16.12.3.21.43s.19.25.32.35c.13.1.27.2.47.25.02-.2-.01-.37-.06-.53-.05-.16-.12-.3-.2-.43a1.516 1.516 0 0 0-.51-.48 7.19 7.19 0 0 1 2.19-1.2c-.02.11-.03.22-.04.32 0 .18.03.35.07.51.05.16.11.32.2.47.09.15.2.3.38.43.08-.2.1-.38.1-.56 0-.18-.03-.35-.07-.51-.05-.16-.11-.32-.2-.47-.06-.09-.12-.18-.2-.26.53-.16 1.07-.25 1.62-.27-.05.09-.1.18-.13.27-.05.15-.07.3-.07.45 0 .15.02.3.07.45.05.15.11.3.25.44.13-.15.2-.3.25-.45.05-.15.07-.29.07-.44a1.349 1.349 0 0 0-.21-.73h.01c.87-.02 1.74.14 2.56.45-.05.01-.09.03-.13.04-.09.05-.16.11-.22.18-.05.07-.09.16-.11.26-.01.1-.02.22.04.37.16 0 .27-.03.36-.07.09-.05.16-.11.22-.18.05-.07.09-.16.11-.26v-.24c.47.2.92.45 1.34.74a1.048 1.048 0 0 0-.72.3c-.1.09-.19.21-.26.34-.06.13-.11.28-.11.47.19 0 .33-.06.46-.12s.24-.14.34-.23c.1-.09.18-.2.25-.32.06-.11.1-.23.13-.37.27.2.54.41.78.65.32.32.6.66.86 1.03a1.42 1.42 0 0 0-.53-.06c-.18.01-.36.06-.53.12-.17.07-.32.15-.47.27-.14.12-.28.25-.37.45.22.04.4.03.58 0 .18-.03.34-.07.5-.14.16-.06.31-.14.46-.24.14-.1.27-.21.4-.37.27.39.49.81.68 1.25.12.3.22.61.3.93a.94.94 0 0 0-.31-.22.756.756 0 0 0-.32-.08c-.11 0-.22 0-.33.04-.12.04-.23.09-.37.2.09.15.2.23.31.3.11.06.23.09.35.1.12 0 .24 0 .36-.05.11-.05.23-.11.33-.24.15.58.23 1.18.23 1.78 0-.61-.07-1.21-.22-1.8-.31-1.24-.93-2.4-1.82-3.32a7.332 7.332 0 0 0-5.09-2.27 7.42 7.42 0 0 0-5.29 2.03c-.7.68-1.28 1.49-1.66 2.4-.39.9-.59 1.88-.6 2.86-.02 1.96.8 3.92 2.19 5.28 1.39 1.38 3.33 2.13 5.25 2.11a7.43 7.43 0 0 0 2.79-.6c.88-.37 1.66-.94 2.33-1.6.67-.67 1.19-1.48 1.55-2.34.17-.39.29-.8.38-1.21a7.094 7.094 0 0 1 0-.01l-.06-.06z" fill="#000"/><path d="M33.5 108.51c-1.01-.05-2.07.32-2.83 1.04-.38.36-.69.79-.9 1.28-.21.48-.32 1.01-.33 1.54 0 .53.11 1.06.31 1.54.2.49.51.92.89 1.29a3.886 3.886 0 0 0 5.49-.13c.68-.71 1.08-1.68 1.08-2.65 0 .49-.11.97-.3 1.42-.19.45-.48.84-.83 1.17-.71.66-1.67.99-2.61.95-.94-.04-1.82-.47-2.43-1.14-.62-.66-.96-1.55-.95-2.44 0-.89.36-1.78.98-2.43.62-.66 1.51-1.08 2.45-1.11.93-.04 1.89.31 2.59.98.34.34.63.74.82 1.19.19.45.28.93.28 1.42a3.896 3.896 0 0 0-3.69-3.91l-.02-.01z" fill="#000"/><path d="M31.66 110.56c-1.01 1-1.02 2.62-.03 3.63a2.571 2.571 0 0 0 3.63.03c1.01-1 1.02-2.62.03-3.63-1-1.01-2.62-1.02-3.63-.03zM90.64 114.311c-.09-.16-.21-.27-.34-.36-.13-.09-.27-.15-.41-.2-.14-.04-.3-.06-.45-.05-.16.01-.32.04-.49.14.11.16.24.26.37.35a1.56 1.56 0 0 0 .84.24c.15 0 .3-.02.48-.09-.21.87-.57 1.71-1.08 2.44-.04-.18-.11-.33-.2-.45-.09-.13-.2-.25-.32-.35-.12-.1-.26-.18-.42-.24-.16-.06-.33-.1-.53-.08.06.2.14.35.23.48.09.12.2.23.32.33s.26.18.41.24c.14.06.3.1.49.1a6.797 6.797 0 0 1-1.47 1.52c0-.2-.03-.37-.08-.53-.06-.18-.14-.34-.23-.49-.09-.16-.2-.31-.34-.45s-.31-.27-.53-.33c.02.23.05.41.1.59s.12.35.21.51c.1.16.22.31.36.45.13.12.27.22.44.3-.56.41-1.17.74-1.82.97.04-.09.07-.18.08-.26.02-.13 0-.25-.02-.36-.03-.11-.08-.22-.16-.33-.08-.1-.17-.2-.33-.28-.1.15-.13.28-.15.41-.02.13 0 .25.02.36.03.11.08.22.16.33.05.07.13.14.21.2-.37.12-.74.22-1.13.28.06-.1.1-.2.13-.29.04-.15.06-.29.05-.43 0-.14-.03-.28-.09-.42a1.38 1.38 0 0 0-.27-.43c-.13.14-.19.29-.23.44-.04.15-.06.29-.05.44 0 .15.03.29.09.44.04.1.09.19.16.28-.35.04-.71.07-1.06.06-.34-.01-.69-.06-1.02-.12.05-.05.09-.11.13-.16.07-.11.12-.23.15-.35.03-.12.03-.25.01-.38a1.09 1.09 0 0 0-.16-.43c-.15.09-.25.2-.32.31-.07.11-.12.24-.15.36-.03.13-.03.26-.02.39.01.07.03.13.05.2-.46-.1-.9-.25-1.33-.44-.14-.06-.27-.13-.4-.2a1.398 1.398 0 0 0 .42-.47c.07-.13.11-.26.14-.41.02-.15.03-.3-.02-.49-.18.06-.31.16-.42.26a1.324 1.324 0 0 0-.4.75c0 .06-.01.13-.01.2-.46-.27-.88-.6-1.26-.97.11-.04.22-.09.32-.15.18-.11.35-.24.5-.39.15-.15.28-.32.39-.5.11-.19.2-.39.23-.63-.24.07-.42.18-.6.29-.17.12-.33.25-.47.4-.14.14-.27.3-.39.48-.06.1-.12.21-.18.32l-.04-.04c-.4-.4-.73-.87-1.01-1.36a1.834 1.834 0 0 0 .67-.22c.14-.08.28-.17.4-.28.12-.12.24-.25.34-.43a1.33 1.33 0 0 0-.56-.01 1.677 1.677 0 0 0-.9.48c-.05.05-.09.1-.13.16-.1-.2-.19-.4-.27-.6-.16-.38-.27-.78-.36-1.19.07 0 .14.01.2 0 .16 0 .32-.04.46-.09.15-.05.29-.12.42-.22s.26-.21.37-.39c-.19-.07-.36-.09-.52-.08-.17 0-.32.04-.47.09-.15.05-.3.13-.43.22-.03.02-.06.05-.09.08-.05-.35-.08-.71-.08-1.06 0-.17.01-.33.03-.5.02 0 .04.02.07.03.12.04.25.05.37.04a.894.894 0 0 0 .67-.41c-.14-.11-.26-.16-.38-.2-.12-.03-.24-.04-.35-.03-.11 0-.21.04-.32.09.11-.72.32-1.41.64-2.06.03.04.05.08.09.12.11.12.24.22.39.3.14.07.3.12.47.14.17.02.34.01.53-.06-.1-.17-.22-.29-.33-.39a1.922 1.922 0 0 0-.79-.41l-.17-.03c.3-.54.67-1.05 1.12-1.5.11-.11.23-.21.34-.32.01.06.02.13.04.19.05.16.12.3.21.43s.19.25.32.35c.13.1.27.2.47.25.02-.2-.01-.37-.06-.53-.05-.16-.12-.3-.2-.43a1.516 1.516 0 0 0-.51-.48 7.19 7.19 0 0 1 2.19-1.2c-.02.11-.03.22-.04.32 0 .18.03.35.07.51.05.16.11.32.2.47.09.15.2.3.38.43.08-.2.1-.38.1-.56 0-.18-.03-.35-.07-.51-.05-.16-.11-.32-.2-.47-.06-.09-.12-.18-.2-.26.53-.16 1.07-.25 1.62-.27-.05.09-.1.18-.13.27-.05.15-.07.3-.07.45 0 .15.02.3.07.45.05.15.11.3.25.44.13-.15.2-.3.25-.45.05-.15.07-.29.07-.44a1.349 1.349 0 0 0-.21-.73h.01c.87-.01 1.74.14 2.56.45-.05.01-.09.03-.13.04-.09.05-.16.11-.22.18-.05.07-.09.16-.11.26-.01.1-.02.22.04.37.16 0 .27-.03.36-.07.09-.05.16-.11.22-.18.05-.07.09-.16.11-.26v-.24c.47.2.92.45 1.34.74a1.048 1.048 0 0 0-.72.3c-.1.09-.19.21-.26.34-.06.13-.11.28-.11.47.19 0 .33-.06.46-.12s.24-.14.34-.23c.1-.09.18-.2.25-.32.06-.11.11-.23.13-.37.27.2.54.41.78.65.32.32.6.66.86 1.03a1.42 1.42 0 0 0-.53-.06c-.18.01-.36.06-.53.12-.17.07-.32.15-.47.27-.14.12-.28.25-.37.45.22.04.4.03.58 0 .18-.03.34-.07.5-.14.16-.06.31-.14.46-.24.14-.1.27-.21.4-.37.27.39.49.81.68 1.25.12.3.22.61.3.93a.94.94 0 0 0-.31-.22.756.756 0 0 0-.32-.08c-.11 0-.22 0-.33.04-.12.04-.23.09-.37.2.09.15.2.23.31.3.11.06.23.09.35.1.12 0 .24 0 .36-.05.11-.05.23-.11.33-.24.15.58.23 1.18.23 1.78 0-.61-.07-1.21-.22-1.8-.31-1.24-.93-2.4-1.82-3.32a7.332 7.332 0 0 0-5.09-2.27 7.42 7.42 0 0 0-5.29 2.03c-.7.68-1.28 1.49-1.66 2.4-.39.9-.59 1.88-.6 2.86-.02 1.96.8 3.92 2.19 5.28 1.39 1.38 3.33 2.13 5.25 2.11a7.43 7.43 0 0 0 2.79-.6c.88-.37 1.66-.94 2.33-1.6.67-.67 1.19-1.48 1.55-2.34.17-.39.29-.8.38-1.21a7.094 7.094 0 0 1 0-.01l-.06-.06z" fill="#000"/><path d="M83.67 108.86c-1.01-.05-2.07.32-2.83 1.04-.38.36-.69.79-.9 1.28-.21.48-.32 1.01-.33 1.54 0 .53.11 1.06.31 1.54.2.49.51.92.89 1.29a3.886 3.886 0 0 0 5.49-.13c.68-.71 1.08-1.68 1.08-2.65 0 .49-.11.97-.3 1.42-.19.45-.48.84-.83 1.17-.71.66-1.67.99-2.61.95-.94-.04-1.82-.47-2.43-1.14-.62-.66-.96-1.55-.95-2.44 0-.89.36-1.78.98-2.43.62-.66 1.51-1.08 2.45-1.11.93-.04 1.89.31 2.59.98.34.34.63.74.82 1.19.19.45.28.93.28 1.42a3.896 3.896 0 0 0-3.69-3.91l-.02-.01z" fill="#000"/><path d="M81.84 110.91c-1.01 1-1.02 2.62-.03 3.63 1 1.01 2.62 1.02 3.63.03 1.01-.99 1.02-2.62.03-3.63a2.571 2.571 0 0 0-3.63-.03zM15.42 96.46c2.19.05 4.39.05 6.59-.02 2.2-.06 4.39-.15 6.59-.12.57.02 1.12-.38 1.27-.94.05-.13.06-.28.06-.42v-.41c.02-.27.03-.55.04-.82l.14-3.29c.05-1.1.1-2.19.12-3.29l.02-.82v-.44a1.599 1.599 0 0 0-.81-1.25c-.15-.08-.32-.14-.49-.17-.09-.02-.17-.02-.26-.03h-.21c-2.19-.03-4.39-.02-6.59 0-2.2 0-4.39.03-6.59.08a1.434 1.434 0 0 0-1.41 1.5v1.23c0 1.1 0 2.2-.01 3.29-.02 1.1-.06 2.19-.1 3.29l-.03.82c0 .14-.01.26 0 .43.01.16.05.32.11.47.12.3.35.55.63.72.14.08.3.14.46.17.08.02.16.02.25.03h.21l.01-.01zM28.47 85.1h.2c.05 0 .1 0 .15.01.1.02.2.05.29.1.18.1.33.25.41.44.04.09.07.19.08.29v1.2c.01 1.1.05 2.2.08 3.29l.1 3.29c0 .27.02.55.02.82 0 .27.04.55-.03.81-.13.52-.64.91-1.18.9-2.2 0-4.39-.12-6.58-.21-2.19-.1-4.39-.13-6.58-.11h-.01c.06-.87.1-1.75.13-2.62.04-.96.05-1.92.06-2.88 0-.96 0-1.92-.02-2.88l-.03-1.44c-.02-.42-.03-.84-.06-1.27 2.13.07 4.27.13 6.4.17 2.19.04 4.39.08 6.58.09h-.01zM14.74 95.83c-.2-.1-.37-.27-.46-.47-.05-.1-.08-.21-.1-.33-.01-.1-.01-.26-.01-.39l-.02-.82c-.03-1.1-.05-2.2-.05-3.29 0-1.1.01-2.2.03-3.29v-.82l.02-.41c0-.14.01-.25.05-.37.14-.48.62-.81 1.09-.78h.17c-.03.42-.05.84-.08 1.27l-.05 1.44c-.04.96-.05 1.92-.06 2.88 0 .96 0 1.92.02 2.88.02.87.04 1.75.09 2.62h-.33c-.11-.02-.21-.05-.31-.1v-.02zM30.96 95.65c.12.3.35.55.63.72.14.08.3.14.46.17.08.02.16.02.25.03h.21c2.19.06 4.39.06 6.59-.01 2.2-.06 4.39-.15 6.59-.12.57.02 1.12-.38 1.27-.94.05-.13.06-.28.06-.42v-.41c.02-.27.03-.55.04-.82l.14-3.29c.05-1.1.1-2.19.12-3.29l.02-.82v-.44a1.599 1.599 0 0 0-.81-1.25c-.15-.08-.32-.14-.49-.17-.09-.02-.17-.02-.26-.03h-.21c-2.19-.03-4.39-.02-6.59 0-2.2 0-4.39.03-6.59.08a1.434 1.434 0 0 0-1.41 1.5v1.23c0 1.1 0 2.2-.01 3.29-.02 1.1-.06 2.19-.1 3.29l-.03.82c0 .14-.01.26 0 .43.01.16.05.32.11.47l.01-.02zm14.59-10.43h.2c.05 0 .1 0 .15.01.1.02.2.05.29.1.18.1.33.25.41.44.04.09.07.19.08.29v1.2c.01 1.1.05 2.2.08 3.29l.1 3.29c0 .27.02.55.02.82 0 .27.04.55-.03.81-.13.52-.64.91-1.18.9-2.2 0-4.39-.12-6.58-.21-2.13-.1-4.26-.13-6.38-.11.06-.87.1-1.74.13-2.62.04-.96.05-1.92.06-2.88 0-.96 0-1.92-.02-2.88l-.03-1.44c-.02-.42-.03-.84-.06-1.26 2.06.07 4.13.13 6.19.16 2.19.04 4.39.08 6.58.09h-.01zm-14.34 2.13v-.82l.02-.41c0-.14.01-.25.05-.37.14-.48.62-.81 1.09-.78h.38c-.03.42-.05.84-.08 1.26l-.05 1.44c-.04.96-.05 1.92-.06 2.88 0 .96 0 1.92.02 2.88.02.87.04 1.75.09 2.62h-.54c-.11-.02-.21-.05-.31-.1-.2-.1-.37-.27-.46-.47-.05-.1-.08-.21-.1-.33-.01-.1-.01-.26-.01-.39l-.02-.82c-.03-1.1-.05-2.2-.05-3.29 0-1.1.01-2.2.03-3.29v-.01zM48.71 96.35c.23.2.53.32.83.35.17.01.27.01.4.01h.38c.5 0 1.01.02 1.51.01 1.01 0 2.02-.02 3.03-.06 2.02-.06 4.04-.15 6.06-.13.52.02 1.03-.32 1.23-.81.11-.24.11-.52.12-.76 0-.25.02-.5.03-.76l.14-3.03c.05-1.01.1-2.02.12-3.03l.03-1.51v-.38c0-.16-.01-.32-.06-.47-.09-.31-.27-.58-.52-.79-.25-.2-.56-.33-.88-.36-.18-.01-.27 0-.41 0H55.8c-2.02.02-4.04.05-6.06.09a1.422 1.422 0 0 0-1.4 1.33v1.15c0 1.01 0 2.02-.01 3.03-.02 1.01-.05 2.02-.09 3.03l-.06 1.51v.38c-.02.15 0 .3.04.44.08.29.25.56.48.76h.01zM58.84 85.3l1.51.02h.38c.12 0 .27 0 .35.01.19.02.36.09.51.2.15.12.25.28.31.45.03.09.04.18.04.28V88.15c0 1.01.04 2.02.08 3.03l.1 3.03c0 .25.02.5.02.76s.02.5-.07.73c-.17.46-.64.79-1.14.78-2.02 0-4.04-.12-6.06-.21a76.64 76.64 0 0 0-3.03-.1c-.5-.01-1.01-.01-1.51-.01h-.43c.06-.87.1-1.74.13-2.6.04-.96.05-1.92.06-2.88 0-.96 0-1.92-.02-2.88l-.03-1.44c-.02-.42-.03-.84-.06-1.27 1.95.07 3.89.13 5.84.16l3.03.05h-.01zm-10.26 1.91v-.76c.02-.26.02-.49.11-.69.18-.42.62-.69 1.06-.67h.2c-.03.42-.05.84-.08 1.27l-.05 1.44c-.04.96-.05 1.92-.06 2.88 0 .96 0 1.92.02 2.88.02.87.04 1.74.09 2.6h-.28a1.032 1.032 0 0 1-.9-.7c-.03-.1-.05-.2-.05-.3v-.38l-.04-1.51c-.03-1.01-.05-2.02-.05-3.03 0-1.01.01-2.02.03-3.03zM13.1 86.83l-.03-.51c0-.16-.02-.36-.08-.53-.2-.7-.87-1.2-1.57-1.19-.68 0-1.36-.02-2.04-.07l-1.02-.06-.51-.03c-.17 0-.33-.03-.53-.02-.38.02-.77.17-1.06.44-.29.26-.5.63-.56 1.03-.02.1-.02.21-.02.29v.76c0 .34 0 .68.01 1.02L5.76 90l.04 1.02c0 .35.1.73.31 1.02.85 1.08 1.64 2.17 2.43 3.28.1.14.19.27.3.42a1.728 1.728 0 0 0 .97.6c.1.02.19.04.29.04h.26l1.03.04c.4 0 .8-.14 1.12-.39.32-.25.55-.61.65-1.01.05-.2.06-.42.06-.57v-.51c.03-.68.03-1.36.03-2.04 0-1.36-.01-2.72-.1-4.08l-.06-1.02.01.03zm-.3 0-.07 1.02c-.11 1.36-.13 2.72-.16 4.07 0 .68-.01 1.36 0 2.04 0 .33.03.71-.02.95-.05.26-.2.51-.41.69-.21.18-.48.28-.76.29l-1.01.02h-.25c-.07 0-.14 0-.21-.01-.14-.02-.28-.07-.41-.13-.13-.07-.25-.16-.35-.26-.1-.11-.22-.25-.32-.38-.87-1.04-1.74-2.1-2.53-3.19a1.44 1.44 0 0 1-.22-.91l.05-1.02.1-2.04c0-.34.02-.68.03-1.02v-.76c0-.09 0-.14.01-.22.03-.28.16-.54.35-.75.2-.2.46-.35.75-.4.14-.02.32-.02.49-.03l.51-.03 1.02-.05c.68-.03 1.36-.04 2.04-.04.33.01.66.12.91.34.25.21.43.51.48.83.03.16.03.31.01.48l-.03.51zM75.66 96.17c.33.48.9.78 1.49.79h4.3c1.91-.02 3.81-.05 5.72-.1l1.43-.03a1.68 1.68 0 0 0 1.31-.7c.3-.41.39-.97.23-1.45-.18-.46-.37-.88-.56-1.33-.74-1.76-1.41-3.55-2.12-5.32-.18-.44-.36-.88-.55-1.32l-.14-.33a2.16 2.16 0 0 0-.2-.36c-.16-.23-.38-.42-.63-.55-.25-.13-.53-.2-.81-.21h-.72l-1.43.06c-1.91.06-3.82.15-5.72.13a1.607 1.607 0 0 0-1.58 1.27c-.05.25-.04.49-.05.72l-.14 2.86c-.05.95-.1 1.91-.12 2.86l-.03 1.43c0 .24-.02.46.01.77.04.29.15.57.32.8l-.01.01zm7.32-10.45c.48.02.95.05 1.43.06l.71.02c.2 0 .39.06.56.16.17.09.32.23.43.39.06.08.1.16.14.26l.14.33c.19.44.39.87.58 1.31.8 1.73 1.64 3.45 2.42 5.19.18.43.4.88.56 1.3.13.43.05.91-.22 1.27-.26.36-.7.58-1.14.56l-1.43-.05c-1.91-.07-3.81-.13-5.72-.16l-2.86-.05-1.43-.02c-.11 0-.21-.02-.32-.06.06-.8.09-1.61.12-2.41.04-.92.05-1.84.06-2.76 0-.92 0-1.84-.02-2.76l-.03-1.38c-.02-.45-.04-.9-.07-1.35.11-.03.23-.04.35-.04 1.91 0 3.81.12 5.72.21l.02-.02zm-7.18 1.03c.03-.23.12-.44.26-.63.2-.28.51-.48.84-.56-.04.45-.06.9-.08 1.34l-.05 1.38c-.04.92-.05 1.84-.06 2.76 0 .92 0 1.84.02 2.76.02.8.05 1.6.09 2.4a1.197 1.197 0 0 1-.81-.95c-.03-.16-.01-.43-.02-.66v-1.43c-.02-.95-.05-1.91-.09-2.86l-.1-2.86c0-.24-.03-.48 0-.7v.01zM72.88 88.08l-.15 9.07-.07 4.5-.05 4.35-7-.06.03-5.84c.82-.15 1.58-.57 2.11-1.2.56-.65.88-1.51.89-2.36 0 .86-.34 1.71-.93 2.32-.55.58-1.29.94-2.06 1.04v-2.26c.03-1.13.03-2.26.02-3.39v-1.12c.78.11 1.53.48 2.08 1.08.58.62.91 1.48.9 2.33.01-.86-.3-1.71-.85-2.38a3.603 3.603 0 0 0-2.13-1.24v-4.8l7.22-.03-7.3-.14s-.08.04-.08.08l-.08 6.2a96.36 96.36 0 0 0-.04 3.4l-.08 8.46c0 .09.07.16.16.16l7.3.03c.08 0 .14-.06.14-.14v-4.54l.01-4.53-.03-8.99h-.01zM72.76 107.201c-2.43-.06-4.87-.06-7.3-.1-.09 0-.16.07-.16.16v5.57h-.01c0 .07.06.13.13.13l3.68-.03 3.62-.05-3.68-.1-3.48-.08.06-5.28c2.35 0 4.69.03 7.04 0l.03 2.65.04 2.81.08-2.76.07-2.81c0-.06-.05-.11-.11-.11h-.01z" fill="#000"/><path d="M71.76 108.06c-.85-.03-1.71-.05-2.56-.05l-2.56-.03c-.09 0-.16.07-.16.16v3.6c0 .07.06.13.13.13l2.59-.04 2.53-.06-2.59-.1-2.39-.07.04-3.31h2.4c.82 0 1.64 0 2.46-.02 0 .55.01 1.1.03 1.67l.05 1.83.07-1.78c.03-.6.04-1.21.06-1.83 0-.06-.04-.11-.1-.11v.01zM97.97 108.831c.3.32.55.62.8.9-.18.62-.35 1.24-.5 1.87-.21-.3-.43-.59-.65-.88.06-.28.11-.57.17-.87.05-.33.11-.66.19-1.02-.09.28-.2.59-.31.9-.11.32-.22.65-.31.98 0 .03 0 .07.02.1.27.42.55.83.84 1.23.02.03.05.05.09.06.08.02.17-.03.19-.12.18-.75.35-1.51.49-2.27 0 0 0-.07-.03-.1-.34-.3-.69-.55-.98-.8l-.01.02zM51.37 102.28c.83.28 1.7.52 2.6.55.45.01.9-.03 1.33-.13.43-.11.85-.29 1.2-.55-.39.2-.81.33-1.24.39-.42.07-.86.08-1.28.04-.75-.07-1.47-.27-2.2-.5.24-.15.47-.3.72-.41.34-.16.71-.25 1.1-.3.38-.04.78-.03 1.17-.01.35.02.7.07 1.04.12.31.13.63.25.95.36-.76-.36-1.51-.76-2.15-1.29-.56-.47-1.05-1.04-1.36-1.69.86.08 1.7.33 2.45.77.41.24.81.52 1.11.89.31.36.46.85.41 1.33.13-.48.01-1.02-.28-1.43-.3-.42-.69-.73-1.11-1.01-.84-.55-1.83-.86-2.84-.9a.155.155 0 0 0-.16.21c.33.82.93 1.5 1.62 2 .37.27.77.49 1.18.68a8.26 8.26 0 0 0-.86-.2c-.39-.06-.8-.09-1.2-.08-.4.01-.82.1-1.2.26s-.72.38-1.05.6c-.03.02-.05.05-.06.08-.03.08.02.17.1.2l.01.02z" fill="#000"/><path d="M57.06 102.24c-.71.72-1.18 1.58-1.56 2.48-.24.6-.42 1.21-.57 1.84h-1.22c.22-.55.45-1.08.71-1.6.2-.4.42-.78.67-1.15a5.302 5.302 0 0 1 .61-.79l.11-.12s.04-.04.07-.03c.03 0 0 .06-.02.04.02.03.06-.03.02-.05-.03-.01-.06 0-.09.02l-.13.11c-.08.07-.17.15-.25.23-.16.16-.31.33-.46.5-.28.36-.53.74-.76 1.13-.32.54-.59 1.12-.83 1.7l-1.6-.02h-3.77c-.32-.87-.73-1.69-1.3-2.4.39.77.7 1.57.97 2.39h-.68c-.09-.3-.19-.59-.31-.88-.13-.31-.28-.61-.44-.9-.17-.29-.36-.57-.57-.82.32.59.58 1.19.79 1.81.09.26.16.53.23.79h-4.62c-.02 0-.05 0-.07.03-.04.04-.05.1-.01.15.34.39.61.85.82 1.33.2.48.36.99.48 1.5.11.52.19 1.04.23 1.57.04.53.07 1.06.04 1.59.05-.53.05-1.06.02-1.6-.03-.53-.08-1.06-.18-1.59a8.31 8.31 0 0 0-.44-1.55c-.18-.43-.42-.84-.7-1.22 1.5.03 2.99.05 4.49.07.07.27.13.55.18.83.13.64.21 1.3.3 1.95.04.33.08.66.11.99.05.33.08.66.13.99.02-.33.02-.66.03-1 0-.33-.01-.66-.03-1-.03-.67-.1-1.33-.23-1.99-.05-.26-.12-.51-.18-.76h.7c.08.27.18.52.25.78.34 1.18.59 2.39.93 3.59-.1-1.24-.29-2.47-.63-3.68-.07-.23-.14-.46-.22-.68l3.66.04h1.48c-.06.16-.13.31-.18.46-.3.85-.52 1.73-.65 2.63-.13.86-.18 1.74-.14 2.61a.526.526 0 0 0-.12-.14c-.09-.06-.19-.07-.29-.06 0-.03.01-.05 0-.08a.562.562 0 0 0-.27-.45c-.16-.1-.36-.07-.51.01V111.28c0-.11.02-.25-.08-.42-.05-.09-.2-.15-.29-.13-.1.02-.15.05-.21.08-.11.06-.22.14-.31.23-.05.05-.09.12-.14.18-.02-.03-.03-.07-.06-.1a.392.392 0 0 0-.39-.13c-.15.04-.22.12-.29.18-.14.13-.25.28-.33.45a.234.234 0 0 0-.07-.07.275.275 0 0 0-.23-.03c-.06.02-.1.05-.14.08-.1.1-.17.19-.24.3v-.02a.633.633 0 0 0-.23-.23.427.427 0 0 0-.35-.02c-.13.06-.21.14-.28.23 0-.02 0-.05-.01-.07-.01-.04-.02-.08-.04-.14a.297.297 0 0 0-.15-.17c-.18-.06-.28.02-.36.07-.07.05-.14.12-.2.19-.02.03-.04.06-.06.08-.01-.07-.02-.14-.05-.21a.627.627 0 0 0-.25-.26.395.395 0 0 0-.38 0c-.11.06-.19.15-.25.24s-.11.18-.15.28c-.04.1-.07.2-.08.31a.467.467 0 0 0-.43-.15c-.16.04-.27.15-.33.29a.219.219 0 0 0-.03-.05.412.412 0 0 0-.38-.13c-.14.03-.24.14-.29.26-.05.12-.06.26-.02.38-.08-.24.08-.54.32-.59.16-.03.31.09.37.23-.02.08-.02.16.01.24 0 .01.01.02.03.03.02 0 .05 0 .06-.02.03-.08.03-.15 0-.23.04-.14.15-.26.28-.28.2-.03.41.16.4.34 0 0 .04.08.08.08s.08-.04.08-.08c0-.19.03-.38.1-.55.07-.17.18-.35.32-.41.12-.07.29.03.36.18s.06.34.03.53c0 .05.03.11.08.12.06.02.13-.01.15-.07.05-.15.12-.28.22-.39.05-.05.11-.1.17-.14.05-.04.12-.05.1-.04-.01-.02.02.04.03.12.02.08.03.15.04.23.02.16.02.31 0 .47v.02c0 .07.06.12.12.13.08 0 .14-.05.15-.12v-.02c0-.13.03-.27.09-.39.06-.11.17-.23.26-.27.07-.03.17.02.22.12.05.1.06.24.05.4 0 .07.05.13.11.15.08.02.16-.03.18-.11.03-.12.07-.24.13-.35.06-.1.14-.21.22-.28 0 .02.02.04.02.07.04.12.06.25.08.38 0 .08.08.14.16.14.09 0 .15-.07.15-.16 0-.32.13-.64.37-.85.06-.05.13-.11.16-.11.02 0 .06 0 .09.04.07.07.07.22.04.4-.01.08.04.15.11.17.08.02.16-.03.18-.11.05-.2.15-.39.3-.53.07-.07.16-.14.24-.19a.31.31 0 0 1 .11-.05h.01c.03.03.03.14.03.26v.35l.01.56v.17c.02.06.07.1.13.1.08 0 .14-.06.13-.14v-.07c0-.06.03-.13.11-.18.09-.06.2-.07.27-.03.13.07.18.26.14.43-.03.03-.04.08-.06.12 0 0 0 .02-.01.02 0 0-.03.04-.03.07 0 .03.02.07.04.09.05.04.12.03.16-.02.04-.05.06-.1.08-.16.01 0 .02-.02.04-.03.06-.02.14-.02.18.01.11.07.15.27.1.42-.02.05.01.11.06.12.05.01.11-.01.12-.06.05-.19.16-.37.32-.42.07-.02.15 0 .21.06.03.03.05.07.06.1 0 .04-.02.08-.02.11s0 .06.03.07c.03.03.08.02.11-.01v-.04c0-.06.02-.12.03-.18.01-.08.03-.16.07-.22.05-.12.16-.22.28-.24.12-.02.25.05.32.17.07.12.11.26.13.4 0 .02.02.03.04.03s.03-.02.03-.04c-.04-.15.05-.36.22-.38.08-.01.16.04.21.11.04.07.05.18-.02.24.08-.05.08-.17.04-.25-.04-.08-.13-.15-.23-.14-.1 0-.18.07-.23.15-.01.02-.02.04-.02.06-.02-.08-.05-.16-.09-.24-.07-.14-.23-.26-.41-.23-.17.03-.31.15-.38.29-.02.04-.03.08-.05.12v-.01a.395.395 0 0 0-.38-.11c-.11.03-.2.1-.27.19-.01-.03-.02-.07-.04-.1.04-.42.08-.84.14-1.26a19.187 19.187 0 0 1 .93-3.89c.06-.19.15-.37.22-.56h1.28c-.05.23-.11.45-.14.68-.15.96-.18 1.93-.11 2.9.07.97.26 1.91.41 2.86-.1-.96-.26-1.91-.29-2.87-.03-.96.02-1.92.19-2.86.04-.24.11-.47.17-.7h1.55c1.58.02 3.17 0 4.75 0 0 1.98.03 3.97.06 5.95.06-2.02.11-4.03.14-6.05 0-.06-.04-.1-.1-.1-1.62-.03-3.23-.06-4.85-.07l-1.48-.02c.16-.59.34-1.18.58-1.74.35-.8.8-1.59 1.38-2.22.34.75.83 1.43 1.44 1.97.34.3.7.57 1.11.77.41.2.88.32 1.36.26h.02a.16.16 0 0 0 .11-.19c-.2-.83-.7-1.54-1.32-2.09-.41-.36-.86-.65-1.34-.89.15 0 .3 0 .45-.04.43-.08.84-.26 1.21-.49.74-.47 1.3-1.14 1.77-1.85 0 0 .02-.04.02-.06a.09.09 0 0 0-.09-.09c-.84.04-1.69.09-2.51.33-.41.12-.8.3-1.15.54-.35.24-.66.54-.88.9.48-.7 1.25-1.13 2.05-1.34.75-.2 1.52-.22 2.3-.25-.46.63-.98 1.21-1.64 1.6-.7.42-1.56.61-2.33.37a.138.138 0 0 0-.17.08c-.03.07 0 .15.08.18.74.29 1.45.68 2.03 1.2.53.48.95 1.09 1.15 1.76-.33 0-.67-.09-.99-.24-.38-.18-.72-.43-1.04-.71a5.491 5.491 0 0 1-1.47-2.06s-.02-.04-.03-.05a.14.14 0 0 0-.19 0l.08.03zM45.67 103.2c0 .14-.07.28-.17.36a.48.48 0 0 1-.36.09.463.463 0 0 1 .01-.91c.12-.02.26 0 .36.09.11.09.17.22.17.36 0-.28-.2-.57-.53-.62a.588.588 0 0 0-.47.14c-.14.11-.22.29-.22.47s.08.36.22.48c.13.12.31.16.47.14a.62.62 0 0 0 .54-.61l-.02.01zM47.07 102.34a.694.694 0 0 1-.33.211c-.25.08-.53-.001-.58-.121-.07-.12.05-.38.26-.53.11-.07.23-.13.37-.13.13 0 .28.05.35.18-.06-.13-.2-.2-.34-.23a.941.941 0 0 0-.44.03c-.15.05-.29.13-.4.27-.1.13-.17.34-.08.54.1.2.31.271.48.271a.76.76 0 0 0 .45-.151c.13-.09.23-.2.3-.33.07-.13.1-.279.03-.409.06.13.02.28-.07.39v.009z" fill="#000"/><path d="M46.22 103.21c-.12.09-.21.22-.21.37 0-.15.11-.27.23-.33.13-.06.27-.07.4-.05.26.04.47.23.46.38 0 .15-.21.34-.47.38-.13.02-.27 0-.4-.05a.407.407 0 0 1-.23-.33c0 .15.09.28.2.37.12.09.26.15.42.18.16.02.33 0 .48-.07.15-.08.3-.24.31-.46 0-.22-.15-.39-.3-.46-.16-.08-.32-.1-.48-.08-.16.02-.3.08-.42.17l.01-.02zM45.75 100.791c.26-.31.56-.59.88-.82.5-.37 1.07-.64 1.64-.89-.32.44-.65.88-1.01 1.29-.49.55-1.02 1.05-1.58 1.53a9.28 9.28 0 0 0 1.75-1.37c.54-.52 1.01-1.1 1.42-1.73.03-.04.03-.09.02-.14a.155.155 0 0 0-.2-.09c-.78.29-1.55.66-2.2 1.2-.32.27-.61.58-.85.92-.23.35-.42.73-.52 1.13.17-.38.38-.73.65-1.03z" fill="#000"/><path d="M40.29 100.85a5.038 5.038 0 0 0 3.48 1.74c-.45.26-.9.56-1.26.96-.51.54-.84 1.23-.97 1.94v.04c.01.05.06.09.12.08 1.09-.21 2.08-.85 2.71-1.73-.67.78-1.6 1.29-2.58 1.49.17-.61.5-1.17.93-1.63.47-.5 1.09-.84 1.72-1.17a.16.16 0 0 0 .08-.14c0-.08-.08-.15-.16-.14-1.34.07-2.71-.44-3.66-1.41.73-.06 1.46-.1 2.18 0 .4.06.81.15 1.19.3.38.15.74.36 1.06.63-.29-.3-.64-.54-1.02-.72-.38-.18-.78-.31-1.2-.38-.83-.15-1.68-.12-2.51-.07-.03 0-.06.01-.08.03-.06.05-.06.13-.02.19l-.01-.01zM47.46 102.531c.26.1.52.21.75.36.23.14.45.3.65.49.3.27.53.6.73.95-.66-.25-1.28-.6-1.86-1.04.54.68 1.31 1.19 2.15 1.47.03.01.07.01.1 0 .08-.03.12-.12.09-.2-.21-.55-.58-1.03-1.04-1.39-.23-.18-.48-.33-.75-.44-.27-.11-.54-.18-.83-.21l.01.01zM59.15 112.4a.512.512 0 0 0-.42 0c-.04.01-.07.04-.1.06 0-.06.01-.13 0-.2-.01-.08-.02-.16-.07-.25a.25.25 0 0 0-.12-.13.38.38 0 0 0-.17-.04c-.16 0-.3.07-.42.15-.04-.19-.16-.38-.4-.43a.434.434 0 0 0-.33.09c-.08.06-.13.12-.19.19-.01.01-.01.03-.02.04-.04-.06-.07-.12-.14-.15a.4.4 0 0 0-.26-.03.53.53 0 0 0-.28.16v-.03a.77.77 0 0 0-.11-.27c-.05-.09-.2-.16-.3-.13a1.206 1.206 0 0 0-.74.73c.09-.15.2-.27.33-.38.13-.1.29-.18.43-.21.12-.02.17.13.19.29.02.15.01.31-.04.46-.02.06.01.13.07.15.06.02.13-.01.15-.07.04-.12.08-.22.13-.3.05-.08.12-.12.19-.13.08 0 .11.02.13.07.02.06.01.16 0 .27-.01.07.03.15.1.17.08.03.17-.01.19-.09a.94.94 0 0 1 .2-.35c.04-.05.1-.1.14-.14.05-.03.07-.04.09-.03.06 0 .15.1.15.19.02.11-.02.24-.06.39-.02.08.02.16.1.19.08.02.16-.02.19-.1a.58.58 0 0 1 .49-.43c.05 0 .04 0 .07.03.02.03.04.1.06.16.02.12.02.26-.02.38 0 0 0 .09.04.12s.1.02.13-.02c.13-.18.34-.32.56-.25.1.03.2.11.22.22.02.11-.02.25-.13.3.12-.04.21-.18.2-.31 0-.14-.11-.27-.24-.32l.01-.02zM15.51 102.47c.13-.19.29-.37.46-.52.17-.16.38-.25.6-.23.22.02.42.14.5.33.02.03.05.05.09.05.04 0 .07-.05.06-.1-.03-.17.06-.36.21-.46.15-.1.35-.12.53-.08.38.07.71.35.86.7.01.03.04.06.08.07.07.02.13-.02.15-.09.12-.48.3-.95.66-1.24.36-.29.86-.38 1.31-.28.46.09.85.39 1.1.79.25.4.37.88.34 1.35 0 .05.02.1.05.13.06.06.16.05.21-.01a.37.37 0 0 1 .41-.09c.09.04.15.13.18.23-1.31 0-2.63 0-3.94.01-1.37 0-2.74.04-4.12.07 1.37.06 2.74.1 4.11.13 1.37.04 2.74.06 4.11.07.07 0 .14-.06.15-.13a.667.667 0 0 0-.38-.67.64.64 0 0 0-.49 0c-.02-.45-.14-.89-.38-1.26-.29-.46-.76-.81-1.3-.91-.53-.11-1.12 0-1.55.35-.35.3-.54.71-.65 1.12-.22-.28-.53-.48-.88-.54a.89.89 0 0 0-.67.14c-.14.1-.24.26-.26.43-.14-.13-.31-.22-.49-.22a.838.838 0 0 0-.67.29c-.17.17-.32.36-.44.56-.11.2-.24.43-.19.67-.03-.24.11-.45.24-.64v-.02zM29.95 103.69c.09-.61.16-1.23.18-1.85.03-.57.04-1.14.03-1.72a102.69 102.69 0 0 0 3.49-.25c.02.49.06.99.08 1.48.01.27.04.54.06.81.02.27.04.54.07.81l.03-.82c0-.27.02-.54.02-.81 0-.54.01-1.08 0-1.62 0-.08-.07-.13-.15-.13-.63.03-1.25.07-1.88.11-.63.04-1.25.09-1.88.14-.08 0-.13.07-.13.15.03.61.06 1.23.07 1.84 0 .62.01 1.23 0 1.85l.01.01zM69.62 90.54c.06-.07.05-.16 0-.22-.39-.38-.79-.75-1.19-1.12 0 0-.04-.03-.06-.04-.08-.02-.17.02-.19.1-.16.54-.3 1.09-.42 1.62s-.23 1.03-.36 1.5c.18-.56.38-1.08.57-1.57.16-.42.3-.82.43-1.22.3.29.6.57.91.85-.29.28-.57.56-.86.87-.32.35-.67.72-1.05 1.08.33-.29.69-.57 1.07-.87.38-.3.78-.63 1.16-.97l-.01-.01zM70.7 93.34c.39-.22.75-.44 1.11-.67.05.41.1.82.16 1.23-.4.03-.8.07-1.22.12-.47.06-.98.12-1.5.16.44-.01.89 0 1.38.01.49.01 1 0 1.51 0h.01c.08-.01.14-.08.13-.16-.06-.54-.13-1.08-.2-1.62 0 0-.01-.05-.02-.07-.05-.07-.14-.09-.21-.04-.46.31-.92.65-1.36.97-.43.33-.84.64-1.23.92.49-.31.98-.59 1.44-.85zM72.12 96.26c-.46 0-.94.03-1.38.07-.45.04-.86.08-1.25.09.49.01.95.05 1.38.08.35.03.68.04 1.01.05-.14.29-.28.57-.42.86-.28-.15-.56-.29-.86-.44-.35-.17-.73-.35-1.12-.56.3.19.6.4.93.64.33.23.69.47 1.04.69h.01c.07.04.16.01.2-.06.2-.4.4-.8.59-1.21 0 0 .01-.05.01-.07 0-.08-.07-.15-.15-.15l.01.01zM70.42 99.54c-.49-.25-.94-.47-1.36-.71.5.31.96.63 1.39.93.36.25.72.48 1.08.71-.35.22-.7.45-1.04.68-.2-.35-.41-.69-.64-1.04-.26-.4-.53-.83-.79-1.28.2.39.39.81.59 1.25.2.45.43.91.66 1.36.04.08.13.1.2.06.46-.29.92-.59 1.37-.89l.05-.05c.04-.07.02-.17-.05-.21-.48-.28-.98-.55-1.47-.8l.01-.01zM67.87 101.61c-.37-.4-.71-.78-1.03-1.15.35.46.67.93.97 1.36.25.37.5.71.76 1.05-.41.09-.81.18-1.21.27-.07-.4-.14-.79-.23-1.2-.1-.46-.21-.96-.29-1.48.05.43.08.89.11 1.38.03.49.08 1 .14 1.5.02.09.09.14.17.13.53-.11 1.06-.23 1.59-.35l.06-.03c.07-.05.08-.15.02-.21-.35-.43-.73-.86-1.09-1.27h.03z" fill="#000"/><path d="M100.14 108.94c-.09-.17-.24-.29-.36-.43l-.76-.8-.76-.8c-.12-.14-.15-.31-.18-.49l-.1-.54-.79-4.34-1.57-8.68-1.54-8.69-.04-.25c.61.03 1.22.05 1.83.08.63.02 1.25.04 1.88.05.03.66.07 1.31.12 1.97l-1.29.07c-.08 0-.14.07-.14.15-.03 1.35-.01 2.69-.02 4.04 0 .08.06.14.14.14.58 0 1.17 0 1.75-.01.06 0 .11-.06.1-.12l-.19-2.06c-.07-.64-.13-1.28-.21-1.92.08 0 .13-.07.13-.15-.06-.74-.12-1.47-.19-2.21 0-.06-.05-.11-.11-.11-.66.01-1.32.01-1.99.03-.61.02-1.22.03-1.84.05l-.15-.83-.05-.27-.02-.14s-.02-.11-.04-.16a.94.94 0 0 0-.42-.5c-.19-.12-.45-.13-.61-.12h-.55l-1.1-.03-4.41-.09c-11.76-.23-23.53-.41-35.29-.55-11.76-.17-23.53-.28-35.3-.41-2.94-.03-5.88-.07-8.82-.07H2.86l-.14-.01c-.06 0-.12 0-.18.01-.12.02-.24.06-.35.12-.21.12-.38.32-.46.55-.02.06-.03.12-.04.18 0 .06-.01.12-.01.16v.28l-.04.55-.12 2.2-.48 8.81-.06 1.1-.03.55v.28c-.02.08-.03.21 0 .32.02.11.06.22.12.32s.14.19.2.25l.38.4.38.4.09.1s.04.05.06.08c.04.06.06.12.07.19 0 .03.01.07.01.1V98.18l-.43-.03c-.21 0-.41-.04-.63-.03-.45.03-.86.35-1.02.78-.04.11-.07.22-.08.34 0 .12 0 .21-.01.32l-.02.62-.02 1.25c0 .84 0 1.65.02 2.5.05.46.37.87.79 1.02.21.08.44.07.64.05.2 0 .41-.02.61-.04-.03.04-.05.08-.08.11l-.84.71-.84.71c-.16.13-.29.34-.33.55a.86.86 0 0 0 0 .32l.02.28.15 2.2.04.55.02.28c.01.11.04.22.09.31.1.2.26.36.47.44.21.07.36.11.55.16l2.12.6 4.25 1.19 2.13.59c.22.04.39.02.58.03H12.09l4.41.02 4.41.03 2.21.02h.55c.18.02.42-.02.59-.15.17-.12.3-.3.35-.51.03-.1.04-.21.02-.31v-.27a8.35 8.35 0 0 1 .66-4.25c.29-.67.66-1.29 1.1-1.87.22-.29.46-.56.72-.81.25-.26.52-.51.81-.73 1.14-.9 2.51-1.49 3.93-1.74 1.42-.23 2.91-.13 4.27.36 2.75.91 4.91 3.31 5.61 6.09l.12.52c.04.17.05.35.08.53.06.35.06.71.07 1.07 0 .36-.05.71-.07 1.07v.14c-.02.06-.02.12-.02.18 0 .12.04.24.08.35.09.22.27.4.49.51.11.05.23.08.35.09H43.67l1.1.02 2.21.02c5.88.04 11.77.12 17.65.13l8.82.03h.28c.08 0 .23 0 .34-.04.24-.07.44-.22.57-.43.13-.2.18-.45.15-.69l-.03-.54-.03-.54.03-.54v-.27l.05-.27.08-.53.13-.52.06-.26.09-.25.17-.51.22-.49.11-.25.13-.23.27-.47c.21-.29.39-.6.63-.87.44-.57.98-1.05 1.55-1.5.3-.2.58-.42.91-.59.31-.19.64-.33.97-.48 1.33-.56 2.81-.75 4.25-.61 2.88.28 5.58 2.11 6.89 4.73a8.47 8.47 0 0 1 .96 4.22c-.02.37-.06.71-.06 1.11.02.2.11.38.26.52.14.14.34.22.54.22h2.21l2.21.02h1.11c.19-.01.38-.1.52-.24.14-.13.21-.34.24-.51l.98-4.3c.04-.19.02-.39-.07-.56l-.03.08zM98.2 90.17l-1.49-.03c.01-1.25.04-2.5.04-3.76l1.28-.09c.02.64.05 1.29.07 1.93l.1 1.94v.01zm-.2 16.27s.01.06.02.09c-.36-.52-.73-1.03-1.1-1.54-.38-.53-.77-1.05-1.15-1.58-.07-.52-.16-1.04-.24-1.56.25.12.5.19.76.23.29.04.58.05.89-.02l.72 3.83.1.54v.01zm-.91-4.88.09.48c-.27-.15-.55-.22-.84-.27-.27-.03-.54-.04-.82 0-.09-.57-.17-1.14-.27-1.71-.18-1.12-.35-2.24-.55-3.36l-.59-3.36c-.21-1.1-.4-2.19-.62-3.29.47-.01.94-.02 1.41-.04l.55 2.86 1.63 8.67.01.02zm-3.81-12.57c-.14-.49-.26-.98-.41-1.47-.14-.48-.28-.95-.43-1.43.28.08.55.11.83.12.29 0 .58-.03.88-.12l.57 2.99c-.48-.04-.96-.07-1.44-.09zM1.5 104.94c-.21 0-.41-.02-.58-.11-.36-.16-.6-.52-.61-.89.03-.81.04-1.66.05-2.48v-1.87c0-.22-.02-.4.04-.58.1-.36.43-.65.81-.71.33-.04.69-.05 1.05-.07v3.75l-.02 2.21v.54c-.01.1-.05.19-.11.27-.2-.02-.41-.03-.61-.05l-.02-.01zm22.88 8.45c-.04.15-.13.29-.26.38-.13.1-.28.12-.46.12h-.55l-2.21-.01-4.41-.03-4.41-.04h-1.1l-.55-.02c-.18 0-.38 0-.52-.03l-.71-.2c-.12-.39-.06-.85.23-1.14.15-.15.36-.22.57-.21.21 0 .41.09.52.26.01.02.04.03.07.02.03 0 .05-.04.04-.07-.1-.39.19-.82.56-.89.37-.07.78.23.83.6 0 .05.04.08.09.09.05 0 .1-.03.11-.09.04-.3.1-.59.23-.84.13-.26.32-.47.57-.59.24-.13.53-.15.76-.03.23.11.41.35.4.59 0 .06.04.12.1.14.07.02.15-.03.17-.1.06-.23.17-.44.32-.61.15-.18.34-.31.51-.26.18.05.34.22.39.43.06.21.04.45.02.7 0 .08.04.14.11.16.08.02.16-.03.18-.11.05-.18.33-.3.49-.21.1.04.16.16.18.27a.56.56 0 0 0-.07.36c0 .04.03.08.07.1.07.05.17.03.22-.04.07-.1.09-.22.1-.34v-.01c.06-.07.15-.11.23-.1.08 0 .16.06.21.14.05.08.06.18.03.25v.01c-.02.07.02.16.09.19.08.03.17 0 .2-.09v-.01c.07-.26.23-.49.42-.7.19-.2.42-.4.66-.53.23-.13.52-.19.73-.08.22.1.38.36.3.55-.03.07 0 .15.07.18s.15 0 .18-.07c.12-.29.24-.56.44-.75.19-.18.5-.27.71-.14.21.12.29.44.32.73.03.29 0 .6-.08.88-.01.05.01.1.06.12.05.02.11-.01.12-.06.06-.23.16-.45.31-.62.15-.17.37-.27.59-.26.22 0 .42.15.49.37.08.22.08.47.07.71 0 0 0 .03.02.04.02.01.05 0 .06-.02.08-.14.16-.27.27-.38.1-.1.25-.21.39-.17.15.03.29.12.41.22.03.03.07.07.1.11 0 .21 0 .42.02.63l.02.28c0 .08 0 .16-.02.24l-.01-.02zm49.57.69c-.07.02-.1.02-.2.02h-.28l-8.82-.09h-.91l.11-6.95.09-7.22.08-7.22.05-6.1c.28.08.56.12.84.13.33 0 .66-.03.99-.15-.33-.13-.66-.16-.98-.17-.28 0-.56.03-.84.12v-.89l10.08.07v.92c-.96-.12-1.92-.16-2.88-.17-1.01 0-2.02.02-3.03.14 1.01.13 2.02.17 3.02.18.96 0 1.92-.02 2.88-.13-.02 4.45-.05 8.9-.05 13.35v14.09c-.05.03-.1.06-.16.08l.01-.01zM8.12 97.24 4.69 92.6v-8.85c7.03.02 14.06.08 21.09.17l21.21.27 21.21.22 20.97.13 2.44 9.53 1.25 4.89.63 2.44.16.61.08.31c.02.09.03.16.03.24-.01.31-.28.6-.6.65-.16.03-.31 0-.47-.09l-.56-.29-1.12-.58-2.24-1.16-4.48-2.32c-.77-.38-1.59-.64-2.43-.78-.42-.07-.84-.11-1.27-.12h-1.26l-4.99.02c.05-4.14.08-8.28.12-12.42 0-.08-.07-.15-.15-.15l-10.37-.07c-.08 0-.15.07-.15.15l-.04 7.22-.02 5.22s0-.01-.01-.01c-4.64-.08-9.28-.19-13.93-.24-4.64-.07-9.29-.13-13.93-.17-4.64-.04-9.29-.1-13.93-.12l-6.96-.03H8.11l.01-.03zm91.03 16.54c-.03.18-.09.35-.22.47-.12.12-.29.2-.46.22h-1.1l-2.21-.03-2.2-.02c-.35 0-.65-.3-.68-.64 0-.24.02-.5.04-.76 1.16.13 2.32.17 3.47.18 1.17 0 2.34-.02 3.52-.13l-.17.72.01-.01zm1-4.3-.83 3.58c-1.17-.13-2.34-.17-3.51-.18-1.16 0-2.32.02-3.47.13 0-.11.02-.22.02-.32.07-1.48-.28-2.97-.94-4.3-1.29-2.68-4.03-4.6-7-4.94-1.48-.16-3.01 0-4.4.57-.34.15-.69.29-1.01.49-.34.17-.64.39-.95.6-.59.45-1.17.95-1.64 1.54-.26.28-.45.6-.68.9l-.29.49-.14.24-.12.26-.24.51-.19.53-.09.27-.07.27-.14.55-.09.56-.04.28-.02.28-.03.57.03.57.03.57c.01.13-.01.26-.08.37a.57.57 0 0 1-.13.14l.11-6.87.09-7.22c0-.65.01-1.3.02-1.95l4.99.09c.42 0 .84.01 1.26.03a8.741 8.741 0 0 1 3.58.96l4.44 2.38 2.22 1.19 1.11.6.56.3c.21.12.48.19.74.15.52-.07.96-.52.99-1.06 0-.13 0-.27-.03-.39l-.07-.31-.15-.61-.6-2.45-1.21-4.9-2.42-9.79a.313.313 0 0 0-.31-.24l-21.21-.16-21.21-.08-21.21-.02c-7.07-.01-14.14-.05-21.21-.13-.06 0-.12.05-.12.12-.02 3.01-.08 6.02-.12 9.03 0 .03 0 .07.03.1l3.45 4.82c.04.05.1.09.17.09l6.96.09 6.96.06c4.64.05 9.29.05 13.93.07 4.64.03 9.29.02 13.93.02 4.64.01 9.29-.03 13.93-.05l.01-.01v1.96l-.01 7.22V114c-5.56-.06-11.14-.07-16.72-.1h-4.12c-.06 0-.12-.02-.18-.04a.547.547 0 0 1-.26-.26c-.03-.06-.04-.12-.05-.18v-.23c.03-.38.07-.75.07-1.13-.02-.38-.02-.76-.09-1.13-.03-.19-.04-.37-.09-.56l-.13-.55c-.78-2.91-3.06-5.39-5.93-6.31-1.42-.49-2.96-.57-4.44-.32-1.47.27-2.88.9-4.04 1.83-.29.23-.57.49-.83.75-.27.26-.51.54-.74.84-.45.59-.84 1.24-1.13 1.92-.5 1.17-.74 2.44-.7 3.71-.03-.03-.05-.06-.08-.09-.12-.11-.25-.21-.41-.25-.18-.05-.34.07-.45.17-.08.08-.14.17-.2.27.01-.2.01-.41-.05-.61a.701.701 0 0 0-.6-.49c-.27-.02-.55.1-.73.3-.03.03-.05.07-.07.11 0-.11.02-.22 0-.33a2.03 2.03 0 0 0-.09-.48.75.75 0 0 0-.32-.43c-.35-.2-.75-.08-1.01.16-.13.12-.23.25-.31.4a.791.791 0 0 0-.21-.24c-.01-.45-.03-.91-.06-1.36-.04-.55-.07-1.11-.12-1.66 0-.08-.08-.14-.16-.13-.51.04-1.03.09-1.54.15-.52.06-1.01.11-1.55.18-.03 0-.08.02-.12.07-.04.05-.05.09-.05.12v.3l.01.39.02.77c.01.52.04 1.03.07 1.55.05-.52.09-1.03.11-1.55l.04-.77.02-.39v-.22c.47-.04.99-.09 1.48-.14l1.4-.15c.06.5.13 1 .2 1.5.06.44.13.87.21 1.31-.05-.03-.09-.07-.14-.1-.34-.16-.71-.07-.99.08-.29.15-.52.35-.74.58-.11.11-.2.24-.29.37a.583.583 0 0 0-.41-.26.561.561 0 0 0-.34.09.627.627 0 0 0-.28-.3.7.7 0 0 0-.55 0c-.02 0-.04.03-.06.04 0-.13-.01-.26-.05-.39-.08-.28-.29-.55-.6-.63-.16-.04-.34 0-.47.07-.13.08-.23.18-.32.28-.09.1-.16.21-.22.33-.1-.18-.26-.32-.44-.41-.32-.16-.7-.1-.99.06-.29.16-.52.42-.66.71-.09.18-.14.37-.18.56a.919.919 0 0 0-.92-.39c-.43.1-.69.53-.65.94-.03-.02-.06-.05-.09-.07.13-.95.16-1.91.17-2.86 0-.95-.02-1.9-.13-2.85 1.27.02 2.55.04 3.82.05 1.64 0 3.28.01 4.92 0 1.62-.01 3.24-.03 4.86-.09 0 1.76-.03 3.51-.11 5.27.24-1.94.33-3.89.39-5.84l.06-2.92c.02-.93.03-1.86.03-2.79 1.25-.12 2.5-.23 3.75-.37l.34 2.1c.13.73.25 1.47.39 2.2l.07-.09-.07.08c-.08-.74-.17-1.47-.25-2.21l-.28-2.22c0-.06-.06-.1-.12-.1-1.34.09-2.67.21-4 .32-.07 0-.13.07-.14.14-.02.98-.03 1.95-.04 2.92l-.02 2.92v.57c-1.62-.07-3.24-.12-4.85-.15-1.64-.04-3.28-.05-4.92-.07-1.64 0-3.28-.01-4.92 0l-2.46.03c-.78.02-1.55.03-2.33.06 0-.56.02-1.12.03-1.67 1.17.05 2.34.1 3.5.12 1.18.03 2.37.06 3.55.07.07 0 .14-.06.14-.13.01-.12.02-.25 0-.38a.897.897 0 0 0-.13-.4.59.59 0 0 0-.38-.26.495.495 0 0 0-.21 0c-.04-.47-.3-.92-.73-1.15-.37-.2-.82-.22-1.21-.08.09-.3.1-.62.03-.93-.1-.45-.43-.85-.85-1.03-.41-.2-.93-.19-1.32.07-.31.2-.52.53-.58.9-.2-.28-.5-.47-.83-.53-.35-.06-.72.04-.99.26v-2.25c-.02-1.47-.04-2.94-.09-4.41-.08 1.47-.12 2.94-.15 4.41-.04 1.47-.04 2.94-.07 4.41v4.41l.03 2.21c.02.74.03 1.47.06 2.21.04-.74.06-1.47.09-2.21l.06-2.21c.01-.47.01-.95.02-1.42.78.04 1.55.06 2.33.09l2.46.06c.36 0 .73 0 1.09.02-.13.95-.16 1.9-.17 2.85 0 .95.02 1.9.13 2.86a.767.767 0 0 0-.41-.11c-.23 0-.46.09-.62.26-.16.17-.24.38-.27.6-.02.2.01.39.08.58l-1.41-.4-4.24-1.21-2.12-.61c-.17-.05-.37-.1-.51-.15a.667.667 0 0 1-.32-.3.83.83 0 0 1-.06-.21l-.02-.27-.04-.55-.14-2.2c0-.18-.04-.38-.01-.51.03-.15.11-.27.23-.37l.84-.71.85-.71c.17-.15.27-.36.3-.58.01-.12 0-.2 0-.29v-.28l.02-2.21.02-2.21v-1.1l.02-.55V97.74c0-.06 0-.11-.02-.17a.958.958 0 0 0-.12-.32.71.71 0 0 0-.1-.14l-.09-.1-.37-.41-.37-.41c-.07-.07-.11-.12-.15-.18-.03-.06-.06-.12-.07-.19-.02-.12 0-.33.01-.5l.03-.55.07-1.1.55-8.81.14-2.2.03-.55.02-.28v-.11c0-.03.01-.06.02-.09.04-.12.13-.22.23-.28.05-.03.11-.05.17-.06h.23l4.41.05 8.82.11c11.76.17 23.53.34 35.29.46 11.76.15 23.53.26 35.3.32l4.41.02H92.64c.2 0 .32 0 .46.08.13.07.23.19.28.32l.03.11.03.14.05.27.21 1.08.34 1.8a3.101 3.101 0 0 0-1.71-.02v-.01c-.3-.96-.6-1.93-.94-2.88.32 0 .64-.01.97-.03.37-.02.74-.03 1.12-.06-.37-.03-.74-.05-1.12-.08-.37-.02-.74-.03-1.12-.05h-.03c-.06.02-.09.07-.08.13.27 1.03.58 2.04.9 3.05.16.5.32 1.01.49 1.51.16.5.34 1 .52 1.5 0 0 .05.06.08.06.51-.01 1.01-.04 1.52-.07l.18.93-1.48-.06s-.05.03-.05.06c.15 1.13.33 2.25.49 3.38l.54 3.36c.17 1.12.38 2.24.57 3.36.19 1.12.39 2.24.6 3.35 0 0 0 .03.02.05.41.52.81 1.04 1.23 1.55.4.49.8.99 1.2 1.47.01.06.02.12.04.18.03.09.08.18.14.25l.77.8.77.79c.12.14.27.25.35.41.08.16.11.34.07.51l.07-.01zm-93.74-7.72s.04.05.08.05.08-.04.07-.08c-.02-.4.22-.78.55-.97.33-.21.76-.2 1.1-.02.35.17.61.49.69.87.09.37.02.79-.17 1.12-.03.05-.03.12.01.16.05.06.14.07.21.02.35-.27.88-.3 1.26-.09s.63.67.59 1.11c0 .06.02.11.07.15.07.05.16.03.21-.04.03-.04.09-.06.17-.04.08.02.15.06.19.12.08.12.09.29.08.47-1.14 0-2.28 0-3.41.02-1.17 0-2.34.04-3.5.07 0-.44.01-.87.02-1.31v-2.14c.29-.19.65-.27.97-.19.38.09.7.38.83.73l-.02-.01z" fill="#000"/><path d="M122.19 153.78c8.599 0 15.57-6.971 15.57-15.57s-6.971-15.57-15.57-15.57-15.57 6.971-15.57 15.57 6.971 15.57 15.57 15.57z" fill="#fff"/><path d="M131.51 125.61c3.27 2.44 5.85 6 6.73 10.2.95 4.16-.14 8.8-2.83 12.17-2.69 3.4-6.74 5.44-10.86 5.96-4.12.57-8.44-.37-11.95-2.75-3.53-2.33-6.09-6.24-6.77-10.52-.74-4.27.31-8.87 2.95-12.37 2.61-3.5 6.73-5.86 11-6.16 4.27-.37 8.45 1.04 11.73 3.47zm-.13.16c-3.27-2.45-7.6-3.15-11.4-2.28-3.8.88-7.2 3.04-9.42 6.12-2.23 3.05-3.31 6.95-2.8 10.75.5 3.79 2.46 7.4 5.51 9.9 3.04 2.5 7.22 3.68 11.17 3 3.96-.66 7.42-3.14 9.56-6.32 2.19-3.18 3.22-7.04 2.93-10.95-.3-3.89-2.24-7.83-5.55-10.22z" fill="#000"/><path d="M123.703 146.665c-3.289.668-6.498-1.451-7.167-4.734l-.595-2.908a1.16 1.16 0 0 1 .91-1.37l9.626-1.965a1.159 1.159 0 0 1 1.371.909l.595 2.908c.668 3.289-1.451 6.498-4.733 7.166l-.007-.006z" fill="#0ABBEF"/><path d="m128.931 139.552-.388-2.494-.047-.314c-.013-.1-.026-.201-.066-.361a1.71 1.71 0 0 0-.448-.762 1.73 1.73 0 0 0-.783-.448 1.73 1.73 0 0 0-.454-.06c-.154 0-.328.033-.408.047l-.094.02a17.087 17.087 0 0 0-.04-.221l-.294-1.691a4.946 4.946 0 0 0-.595-1.652 5.208 5.208 0 0 0-2.707-2.293 5.353 5.353 0 0 0-3.664 0c-1.196.428-2.219 1.331-2.841 2.467-.595 1.13-.822 2.514-.515 3.757.014.074.034.141.047.214.114.528.234 1.057.361 1.585a1.75 1.75 0 0 0-.328.194c-.24.193-.427.441-.541.715-.114.281-.147.588-.114.876.027.16.054.26.081.361l.08.3.622 2.447a6.69 6.69 0 0 0 2.988 4.112c.622.394 1.31.675 2.019.835a6.56 6.56 0 0 0 1.698.167H122.647c.12 0 .241-.006.361-.02 0 0 .394-.06.408-.06l.207-.04h.02-.013l.227-.047a6.658 6.658 0 0 0 3.931-2.667 6.693 6.693 0 0 0 1.136-4.954l.007-.013zm-5.876-3.797-4.78.949c-.04-.261-.241-1.471-.281-1.732-.261-1.631.922-3.242 2.447-3.469a2.946 2.946 0 0 1 2.166.448c.621.428 1.083 1.076 1.236 1.825.121.588.255 1.17.388 1.758-.394.074-.789.147-1.176.221z" fill="#000"/><path d="m123.809 142.213-.053-.12-.1-.234c-.127-.295-.254-.589-.368-.89.415-.367.562-.922.408-1.397.08.254.06.542-.067.776a.93.93 0 0 1-.555.468l-.093-.395-.448-.02a.664.664 0 0 1-.502-.261.737.737 0 0 1-.08-.762c.12-.287.468-.528.856-.501.387.02.769.301.889.695a1.342 1.342 0 0 0-.856-.855 1.393 1.393 0 0 0-1.344.28c-.401.335-.621.956-.461 1.538.107.434.435.815.856 1.023.04.2.08.408.134.608l.073.241.094.294c.147.441.641.695 1.049.582.415-.094.696-.515.622-.896-.02-.114-.04-.141-.054-.181v.007z" fill="#000"/></g><defs><linearGradient id="n" x1="106.43" y1="41.77" x2="118.12" y2="41.77" gradientUnits="userSpaceOnUse"><stop stop-color="#0ABBEF"/><stop offset=".24" stop-color="#0D9ACF"/><stop offset=".76" stop-color="#14598E"/><stop offset="1" stop-color="#174075"/></linearGradient><linearGradient id="b" x1="11.39" y1="98.5" x2="238.05" y2="98.5" gradientUnits="userSpaceOnUse"><stop stop-color="#76B82A"/><stop offset=".26" stop-color="#73B42A"/><stop offset=".49" stop-color="#6DA92A"/><stop offset=".72" stop-color="#61972A"/><stop offset=".93" stop-color="#517D2B"/><stop offset="1" stop-color="#4C742C"/></linearGradient><linearGradient id="d" x1="97.2" y1="10.67" x2="174.95" y2="10.67" gradientUnits="userSpaceOnUse"><stop stop-color="#EC5F6C"/><stop offset=".59" stop-color="#C0434D"/><stop offset="1" stop-color="#A7333C"/></linearGradient><linearGradient id="e" x1="53.52" y1="79.3" x2="65.21" y2="79.3" gradientUnits="userSpaceOnUse"><stop stop-color="#0ABBEF"/><stop offset=".24" stop-color="#0D9ACF"/><stop offset=".76" stop-color="#14598E"/><stop offset="1" stop-color="#174075"/></linearGradient><linearGradient id="f" x1="75.36" y1="0" x2="87.04" y2="0" gradientUnits="userSpaceOnUse"><stop stop-color="#0ABBEF"/><stop offset=".24" stop-color="#0D9ACF"/><stop offset=".76" stop-color="#14598E"/><stop offset="1" stop-color="#174075"/></linearGradient><linearGradient id="g" x1="206.95" y1="0" x2="218.63" y2="0" gradientUnits="userSpaceOnUse"><stop stop-color="#0ABBEF"/><stop offset=".24" stop-color="#0D9ACF"/><stop offset=".76" stop-color="#14598E"/><stop offset="1" stop-color="#174075"/></linearGradient><linearGradient id="h" x1="185.11" y1="79.3" x2="196.79" y2="79.3" gradientUnits="userSpaceOnUse"><stop stop-color="#0ABBEF"/><stop offset=".24" stop-color="#0D9ACF"/><stop offset=".76" stop-color="#14598E"/><stop offset="1" stop-color="#174075"/></linearGradient><linearGradient id="i" x1="206.95" y1="49.07" x2="218.63" y2="49.07" gradientUnits="userSpaceOnUse"><stop stop-color="#0ABBEF"/><stop offset=".24" stop-color="#0D9ACF"/><stop offset=".76" stop-color="#14598E"/><stop offset="1" stop-color="#174075"/></linearGradient><linearGradient id="j" x1="185.11" y1="49.07" x2="196.79" y2="49.07" gradientUnits="userSpaceOnUse"><stop stop-color="#0ABBEF"/><stop offset=".24" stop-color="#0D9ACF"/><stop offset=".76" stop-color="#14598E"/><stop offset="1" stop-color="#174075"/></linearGradient><linearGradient id="k" x1="77.35" y1="49.07" x2="89.03" y2="49.07" gradientUnits="userSpaceOnUse"><stop stop-color="#0ABBEF"/><stop offset=".24" stop-color="#0D9ACF"/><stop offset=".76" stop-color="#14598E"/><stop offset="1" stop-color="#174075"/></linearGradient><linearGradient id="l" x1="55.509" y1="49.07" x2="67.189" y2="49.07" gradientUnits="userSpaceOnUse"><stop stop-color="#0ABBEF"/><stop offset=".24" stop-color="#0D9ACF"/><stop offset=".76" stop-color="#14598E"/><stop offset="1" stop-color="#174075"/></linearGradient><linearGradient id="m" x1="154.77" y1="41.77" x2="166.45" y2="41.77" gradientUnits="userSpaceOnUse"><stop stop-color="#0ABBEF"/><stop offset=".24" stop-color="#0D9ACF"/><stop offset=".76" stop-color="#14598E"/><stop offset="1" stop-color="#174075"/></linearGradient><linearGradient id="c" x1="46.13" y1="19.5" x2="226.02" y2="19.5" gradientUnits="userSpaceOnUse"><stop stop-color="#EC5F6C"/><stop offset=".59" stop-color="#C0434D"/><stop offset="1" stop-color="#A7333C"/></linearGradient><linearGradient id="o" x1=".695" y1="91.775" x2="100.855" y2="104.056" gradientUnits="userSpaceOnUse"><stop stop-color="#FFED00"/><stop offset=".09" stop-color="#FDE204"/><stop offset=".71" stop-color="#F2A120"/><stop offset="1" stop-color="#EE882C"/></linearGradient><linearGradient id="p" x1="9.789" y1="112.517" x2="17.015" y2="113.403" gradientUnits="userSpaceOnUse"><stop stop-color="#76B82A"/><stop offset=".58" stop-color="#5B8D2B"/><stop offset="1" stop-color="#4C742C"/></linearGradient><linearGradient id="q" x1="-.064" y1="101.334" x2="2.854" y2="101.692" gradientUnits="userSpaceOnUse"><stop stop-color="#EC5F6C"/><stop offset=".59" stop-color="#C0434D"/><stop offset="1" stop-color="#A7333C"/></linearGradient><linearGradient id="r" x1="13.582" y1="89.502" x2="30.297" y2="91.552" gradientUnits="userSpaceOnUse"><stop stop-color="#0ABBEF"/><stop offset=".24" stop-color="#0D9ACF"/><stop offset=".76" stop-color="#14598E"/><stop offset="1" stop-color="#174075"/></linearGradient><linearGradient id="s" x1="30.656" y1="89.613" x2="47.38" y2="91.663" gradientUnits="userSpaceOnUse"><stop stop-color="#0ABBEF"/><stop offset=".24" stop-color="#0D9ACF"/><stop offset=".76" stop-color="#14598E"/><stop offset="1" stop-color="#174075"/></linearGradient><linearGradient id="t" x1="48.019" y1="89.855" x2="62.65" y2="91.649" gradientUnits="userSpaceOnUse"><stop stop-color="#0ABBEF"/><stop offset=".24" stop-color="#0D9ACF"/><stop offset=".76" stop-color="#14598E"/><stop offset="1" stop-color="#174075"/></linearGradient><linearGradient id="u" x1="5.514" y1="89.778" x2="13.385" y2="90.743" gradientUnits="userSpaceOnUse"><stop stop-color="#0ABBEF"/><stop offset=".24" stop-color="#0D9ACF"/><stop offset=".76" stop-color="#14598E"/><stop offset="1" stop-color="#174075"/></linearGradient><linearGradient id="v" x1="75.29" y1="90.384" x2="90.496" y2="92.248" gradientUnits="userSpaceOnUse"><stop stop-color="#0ABBEF"/><stop offset=".24" stop-color="#0D9ACF"/><stop offset=".76" stop-color="#14598E"/><stop offset="1" stop-color="#174075"/></linearGradient><linearGradient id="w" x1="90.998" y1="85.77" x2="95.186" y2="86.284" gradientUnits="userSpaceOnUse"><stop stop-color="#0ABBEF"/><stop offset=".24" stop-color="#0D9ACF"/><stop offset=".76" stop-color="#14598E"/><stop offset="1" stop-color="#174075"/></linearGradient><linearGradient id="x" x1="92.471" y1="97.829" x2="99.052" y2="98.636" gradientUnits="userSpaceOnUse"><stop stop-color="#0ABBEF"/><stop offset=".24" stop-color="#0D9ACF"/><stop offset=".76" stop-color="#14598E"/><stop offset="1" stop-color="#174075"/></linearGradient><clipPath id="a"><path fill="#fff" d="M0 0h238.05v154.1H0z"/></clipPath></defs></svg>