<svg width="193" height="196" viewBox="0 0 193 196" fill="none" xmlns="http://www.w3.org/2000/svg">
<path d="M191.241 97.5857C191.241 150.326 148.491 193.076 95.7511 193.076C81.7011 193.076 68.3711 190.046 56.3511 184.596C49.6311 181.556 43.3411 177.756 37.5711 173.306H37.5511C36.1311 172.206 34.7511 171.066 33.4011 169.906C25.2611 162.886 18.3211 154.516 12.9311 145.146C4.87107 131.136 0.261073 114.896 0.261073 97.5857C0.261073 44.8457 43.0111 2.0857 95.7511 2.0857C135.571 2.0857 169.701 26.4657 184.031 61.1157C188.671 72.3557 191.241 84.6657 191.241 97.5857Z" fill="url(#paint0_linear_2310_99580)"/>
<path d="M21.1111 38.0157C21.1111 38.0157 30.9611 24.7357 40.4611 19.7157C49.9611 14.6957 59.6411 9.1557 59.6411 9.1557C59.6411 9.1557 80.6411 -0.104302 95.7611 2.0857C110.871 4.2757 129.651 7.6357 136.401 10.4757C143.151 13.3257 157.281 22.4457 167.031 34.0257C176.781 45.6157 183.711 58.2957 183.711 58.2957L187.911 72.4857" fill="url(#paint1_linear_2310_99580)"/>
<path d="M13.1911 49.5657C13.1911 49.5657 4.67107 66.5957 3.05107 74.5657C1.44107 82.5357 -0.578928 94.9657 0.501073 104.236C1.58107 113.516 1.95107 115.586 1.95107 115.586L73.7811 93.4057L102.901 80.1857L97.3511 36.7857L82.4611 34.0357L13.3011 47.8357" fill="#0ABBEF"/>
<path d="M93.4411 92.3257L81.9111 144.166L30.8111 166.996C30.8111 166.996 22.4311 158.766 13.9511 146.876C11.6711 143.676 9.77107 139.916 8.22107 136.116C7.66107 134.776 7.15107 133.436 6.69107 132.106C5.31107 128.206 4.29107 124.466 3.58107 121.516C2.68107 117.776 2.28107 115.286 2.28107 115.286C2.28107 115.286 13.4111 106.536 22.9111 101.636C25.8211 100.136 29.4111 98.6757 32.9811 97.3757C41.0411 94.4457 49.0311 92.3257 49.0311 92.3257C49.0311 92.3257 54.2311 87.4157 62.2011 82.0357C70.1611 76.6557 80.5311 75.3157 80.5311 75.3157L93.4411 92.3257Z" fill="url(#paint2_linear_2310_99580)"/>
<path d="M63.2111 152.936L30.8111 166.986C30.8111 166.986 47.9111 181.626 59.5311 185.746C71.1511 189.866 84.9611 192.326 84.9611 192.326L96.3111 171.776L86.9611 147.226" fill="url(#paint3_linear_2310_99580)"/>
<path d="M150.101 64.0657C150.101 64.0657 165.921 64.0957 170.281 64.0657C174.641 64.0357 186.791 68.6957 186.791 68.6957L187.691 71.7057C187.691 71.7057 194.621 91.5457 191.241 103.426C187.861 115.306 186.701 124.436 186.701 124.436L137.411 88.5357L134.661 73.6557" fill="url(#paint4_linear_2310_99580)"/>
<path d="M129.991 39.1457C129.991 39.1457 136.031 37.2757 137.951 36.7757C139.871 36.2757 143.621 36.0257 143.621 36.0257C143.621 36.0257 147.191 27.2757 144.951 24.4457C142.711 21.6157 133.041 16.6957 133.041 16.6957C133.041 16.6957 122.911 13.9257 120.451 13.8657C117.991 13.7957 114.561 15.6957 114.561 15.6957C114.561 15.6957 103.041 15.2757 99.9611 16.1157C96.8811 16.9457 89.8711 17.5357 89.8711 17.5357C89.8711 17.5357 85.5811 17.8657 85.1011 17.3657C84.6211 16.8657 83.9511 16.0357 83.9511 16.0357C83.9511 16.0357 82.8711 18.9357 83.9511 20.9557C85.0311 22.9657 87.2911 27.2857 87.2911 27.2857C87.2911 27.2857 81.4611 28.4557 79.9611 25.6157C79.9611 25.6157 82.4611 36.0357 87.3811 40.2857C92.3011 44.5357 98.5811 42.8657 102.731 41.8657C102.731 41.8657 107.981 37.2557 114.891 34.6457C121.791 32.0357 128.121 35.5957 130.001 39.1457" fill="url(#paint5_linear_2310_99580)"/>
<path d="M148.181 69.4557C147.061 71.2657 143.781 72.4957 143.781 72.4957L138.731 73.9057C138.731 73.9057 138.251 78.4057 138.731 81.5357C139.221 84.6657 140.031 86.7257 140.031 86.7257L136.031 97.8757L133.911 103.856C133.911 103.856 125.101 104.996 121.501 104.676C119.421 104.486 118.421 104.396 117.951 104.356C117.601 104.326 117.531 104.326 117.531 104.326L114.551 95.7857L113.271 90.7457C113.271 90.7457 104.531 88.0957 102.781 85.2257C101.031 82.3457 97.0211 75.0357 97.0211 75.0357L93.4411 59.5957L91.2811 47.0457L91.6511 43.7857C91.6511 43.7857 95.5411 43.5657 100.271 42.1857C101.701 41.7757 103.221 41.2557 104.721 40.5957C111.181 37.7857 113.481 34.6657 116.731 33.9757C119.971 33.2857 122.681 33.6257 125.951 35.5557C129.221 37.4757 130.341 39.7257 130.341 39.7257L131.091 43.9057L146.281 55.2257C146.281 55.2257 149.281 56.8457 149.531 60.2257C149.781 63.5957 149.311 67.6457 148.181 69.4557Z" fill="white"/>
<path d="M117.771 106.866C117.771 106.866 127.901 109.156 135.531 106.156C143.161 103.156 134.781 185.756 134.781 185.756L118.781 190.406L115.161 104.676" fill="url(#paint6_linear_2310_99580)"/>
<path d="M101.281 101.636L116.851 120.086L119.161 154.786L120.161 178.996L118.661 181.546L121.501 183.236L120.401 186.296L120.891 189.746C120.891 189.746 86.3211 194.976 85.6111 189.916L88.4711 177.546L86.4111 172.236L88.5311 168.296L85.0911 148.106" fill="white"/>
<path d="M167.661 101.036C167.661 101.036 159.581 94.9557 155.781 93.6557C151.991 92.3657 147.201 91.3257 147.201 91.3257L132.701 115.786C132.701 115.786 130.541 124.546 131.411 140.036C132.281 155.526 132.701 184.276 132.701 184.276C132.701 184.276 151.031 176.166 158.411 168.286C165.791 160.406 169.011 157.766 169.011 157.766" fill="white"/>
<path d="M166.251 147.096L169.891 157.766L181.921 138.776H178.531" fill="#F4C6CC"/>
<path d="M20.3411 38.9857L80.0911 28.3457L82.4711 34.0357L13.9111 47.8357" fill="url(#paint7_linear_2310_99580)"/>
<path d="M108.471 89.9957C107.481 91.2757 106.581 92.4757 105.641 93.6557C105.331 94.0457 104.931 94.3757 104.561 94.7257C102.094 97.0257 100.288 99.7624 99.1411 102.936C94.7311 115.106 90.8711 127.466 87.5811 139.986C87.5411 140.136 87.5011 140.286 87.4711 140.436C86.4011 145.466 83.7611 149.186 80.0511 152.006C78.6511 153.076 77.0911 154.016 75.4111 154.856C73.8311 155.646 72.1211 156.176 70.4611 156.796C69.0911 157.316 68.0111 156.886 67.1111 155.756C65.5011 153.736 64.4611 151.446 63.7411 148.986C62.6811 145.366 62.0511 141.656 61.7411 137.916C61.6011 136.236 61.9411 134.466 62.3811 132.816C63.4011 128.936 64.6011 125.116 65.7611 121.276C66.1111 120.116 66.5411 118.966 66.9811 117.686C69.5911 118.746 72.1211 119.776 74.7911 120.866C74.5911 121.236 74.4311 121.586 74.2111 121.886C72.8811 123.756 71.4911 125.576 70.2211 127.466C65.5111 134.496 64.0311 142.156 65.8411 150.436C66.0511 151.366 66.0711 151.366 66.8811 151.996C67.4211 151.506 67.2411 150.906 67.1711 150.316C66.9411 148.296 66.5411 146.286 66.5411 144.266C66.5411 138.276 68.0911 132.706 71.6911 127.836C76.0111 121.976 79.9711 115.896 83.3611 109.446C85.7211 104.936 87.6911 100.266 89.2111 95.4057C89.7511 93.6957 90.0211 91.9657 89.7111 90.1557C89.6011 89.5457 89.4111 89.0957 88.9511 88.7557C88.3011 88.2657 87.6111 87.8357 86.9611 87.3457C85.4811 86.2057 83.9211 85.1357 82.5711 83.8457C80.9711 82.3257 80.4111 80.3657 80.7011 78.1357C81.0911 75.0457 82.3211 72.2857 83.8511 69.6257C83.9011 69.5357 83.9611 69.4557 84.0211 69.3657C85.9211 66.6457 89.1411 66.6257 91.1011 69.3557C91.4811 69.8857 91.7611 70.4457 91.9911 71.0357C92.3811 72.0557 92.5711 73.1357 92.7011 74.2257C92.8211 75.3257 92.8011 76.4657 92.6711 77.5757C92.5511 78.7057 91.6611 79.8257 91.0411 79.7557C89.9111 79.6057 89.6911 78.5957 89.5011 77.7357C89.3111 76.8657 89.1811 75.9857 89.0511 75.1057C88.9611 74.4757 88.8711 73.8457 88.7611 73.2257C88.6411 72.5657 88.4111 71.9157 88.2311 71.2657C88.0911 71.2757 87.9511 71.2857 87.8111 71.2957C87.7211 72.0457 87.6311 72.8057 87.5311 73.6657H84.3211C84.8211 74.8157 85.2011 74.9557 87.6711 74.9957C87.7311 75.3457 87.7811 75.7257 87.8611 76.1057C88.0411 76.9957 88.1511 77.9157 88.4511 78.7757C88.4911 78.8957 88.5411 79.0057 88.5911 79.1157C89.4811 81.2857 90.9511 81.6257 92.9911 80.1757C93.0911 80.1957 93.2211 80.1757 93.2711 80.2357C94.1811 81.1057 95.4011 80.2957 96.2911 80.7357C97.2811 81.2257 98.1611 81.4557 99.1711 81.0157C100.501 82.7857 101.721 84.5857 103.111 86.2457C104.501 87.8957 106.321 89.0357 108.471 89.9957Z" fill="white"/>
<path d="M188.361 127.736C187.981 128.976 187.561 130.206 187.131 131.426C187.051 131.636 186.981 131.856 186.901 132.066C186.171 132.806 185.421 133.526 184.611 134.156C183.811 134.786 182.991 135.396 182.171 135.996C181.601 136.416 181.031 136.816 180.451 137.216C180.421 137.236 180.391 137.256 180.361 137.276C177.741 139.086 175.031 140.756 172.261 142.316C171.991 142.466 171.711 142.626 171.431 142.776C170.481 143.306 169.531 143.816 168.571 144.306C168.231 144.486 167.881 144.666 167.531 144.846C167.451 144.886 167.361 144.936 167.281 144.966C166.831 145.206 166.371 145.436 165.911 145.656C165.201 146.016 164.481 146.366 163.761 146.706C163.361 146.906 162.931 147.036 162.431 147.236C162.191 146.696 161.951 146.256 161.791 145.786C159.931 140.566 158.191 135.306 157.241 129.836C156.511 125.616 156.001 121.376 156.741 117.106C157.231 114.286 158.181 111.596 159.601 109.116C160.181 108.106 160.911 107.166 161.711 106.326C162.601 105.386 163.571 104.536 164.591 103.756C164.591 103.756 164.594 103.756 164.601 103.756C165.631 102.986 166.711 102.286 167.831 101.636C168.091 101.796 168.281 101.876 168.431 102.006C174.861 107.406 180.531 113.476 184.751 120.776C185.161 121.476 185.541 122.196 185.921 122.916C186.751 124.516 187.531 126.136 188.361 127.736Z" fill="#76B82A"/>
<path d="M88.9311 89.9557C88.8911 90.2257 88.8711 90.5057 88.8411 90.7957C88.7611 91.5557 88.6911 92.3557 88.4911 93.1157C87.1511 98.0857 85.1911 102.826 82.8511 107.386C80.7511 111.496 78.2611 115.396 75.9411 119.386C75.8111 119.606 75.6511 119.796 75.4411 120.086C72.3011 117.926 68.8511 116.726 65.4011 115.156C65.1011 115.026 64.8011 114.886 64.5011 114.746C64.6611 114.016 64.7311 113.256 65.0111 112.586C68.6411 103.926 74.1911 96.8457 82.2911 91.9257C83.5911 91.1357 84.9511 90.4357 86.2811 89.7057C87.0611 89.2857 87.9444 89.369 88.9311 89.9557Z" fill="#76B82A"/>
<path d="M145.811 54.0657C144.681 53.9257 143.781 53.7157 142.881 53.7057C140.261 53.6957 138.081 54.6757 136.711 56.9657C135.681 58.6957 134.861 60.5557 133.941 62.3557C132.231 61.9257 130.381 61.4657 128.491 60.9857C130.211 53.9457 132.291 46.9557 130.621 39.4357C131.941 38.9657 133.311 38.4657 134.691 38.0057C135.471 37.7457 135.941 38.2657 136.311 38.8357C137.151 40.1557 137.561 41.6157 137.621 43.1657C137.681 44.5257 137.631 45.8957 137.631 47.1857C139.171 45.1657 138.571 40.4857 136.331 37.5757C138.051 36.6657 139.111 36.8157 140.261 38.2657C141.601 39.9557 142.221 41.9157 142.191 44.0757C142.191 44.7057 142.191 45.3357 142.191 46.0757C143.881 43.9857 143.071 40.2757 140.171 36.7657C140.791 36.7957 141.281 36.7357 141.711 36.8657C146.511 38.3057 148.441 40.7557 148.171 45.6357C148.001 48.6057 146.901 51.3457 145.821 54.0557L145.811 54.0657Z" fill="url(#paint8_linear_2310_99580)"/>
<path d="M109.131 90.2657C110.371 90.4757 111.461 90.6657 112.561 90.8457C113.071 92.9657 113.471 95.1157 114.101 97.1857C114.831 99.5557 115.781 101.856 116.591 104.196C116.751 104.646 116.911 105.186 116.801 105.626C115.941 109.306 115.721 113.056 115.691 116.816C115.691 116.966 115.631 117.106 115.571 117.436C115.291 117.096 115.081 116.846 114.881 116.606C113.631 115.146 112.491 113.566 111.101 112.246C108.111 109.426 104.781 109.616 101.401 112.416C100.991 112.756 100.611 113.146 99.9711 113.746C100.201 112.726 100.371 112.036 100.511 111.346C101.281 107.776 102.071 104.216 102.811 100.646C103.141 99.0257 103.621 97.5957 105.011 96.4757C106.991 94.8957 108.351 92.8157 109.111 90.2557L109.131 90.2657Z" fill="white"/>
<path d="M146.771 112.096C145.801 111.406 145.011 110.776 144.151 110.246C141.471 108.586 139.181 108.656 136.671 110.556C135.631 111.346 134.751 112.356 133.811 113.276C133.491 113.586 133.221 113.926 132.691 114.156C133.141 111.576 133.611 109.006 134.041 106.426C134.871 101.536 136.781 96.9957 138.641 92.4357C138.971 91.6357 139.301 90.8457 139.581 90.0257C140.271 88.0757 140.651 86.1157 139.891 84.0757C139.771 83.7557 139.781 83.3957 139.671 82.7157C140.601 83.2557 141.351 83.5957 142.011 84.0857C144.991 86.3257 146.281 89.4157 146.391 93.0557C146.531 98.0257 146.641 102.996 146.751 107.976C146.781 109.286 146.751 110.596 146.751 112.076L146.771 112.096Z" fill="white"/>
<path d="M81.6611 178.616C80.6411 178.966 79.7011 179.286 78.5611 179.676V175.826C77.6011 176.676 77.5211 176.986 77.4011 180.106C76.9411 180.316 76.4111 180.556 75.6211 180.916C75.7011 179.416 75.7611 178.156 75.8311 176.896C75.7311 176.866 75.6311 176.836 75.5211 176.806C75.3811 177.016 75.1611 177.216 75.1011 177.446C74.8911 178.336 74.5811 179.236 74.5811 180.126C74.5811 181.256 73.9711 181.726 73.0911 182.136C71.8511 182.716 70.6711 183.426 69.4111 183.966C67.2411 184.916 64.5511 183.476 64.2111 181.136C64.1211 180.516 64.4111 179.716 64.8011 179.196C65.3711 178.446 66.1111 177.756 66.9211 177.256C68.7211 176.126 70.5211 174.926 72.4811 174.136C77.4411 172.116 82.4911 170.296 87.8111 168.286C87.4311 169.056 87.1811 169.586 86.9111 170.096C86.6011 170.676 86.2911 171.256 85.9611 171.836C85.3411 172.926 85.4411 173.946 86.1511 174.966C86.7111 175.786 87.1911 176.656 87.7611 177.586C85.9911 177.836 84.4611 178.056 82.8611 178.286C82.3511 177.076 83.3311 175.716 82.5211 174.416C81.6511 175.716 81.7511 177.106 81.6611 178.616Z" fill="url(#paint9_linear_2310_99580)"/>
<path d="M86.8211 178.996C86.8911 179.206 86.9511 179.306 86.9511 179.396C86.9511 180.196 86.9511 181.006 86.9511 181.886C86.6311 181.986 86.3511 182.066 86.0711 182.146C83.3611 182.956 80.6211 183.706 77.9311 184.596C75.3011 185.456 72.6811 186.116 69.5911 185.526C75.1411 182.436 80.5711 179.766 86.8111 178.996H86.8211Z" fill="url(#paint10_linear_2310_99580)"/>
<path d="M93.5811 79.2757C94.8511 74.3457 93.4011 69.4757 89.8611 66.6357C91.1211 66.0357 93.1611 66.1857 94.0511 66.9957C94.2911 67.2157 94.3911 67.5957 94.5011 67.9257C95.3111 70.5357 96.1011 73.1457 96.9211 75.7557C97.3411 77.1057 96.4711 79.0357 95.1811 79.5757C94.6211 79.8057 94.1111 79.8457 93.5911 79.2757H93.5811Z" fill="white"/>
<path d="M133.531 104.316C133.401 104.946 133.291 105.486 133.161 106.126C129.951 106.576 126.761 107.076 123.511 106.756C121.801 106.586 120.101 106.286 118.401 106.046C117.931 105.976 117.631 105.796 117.841 105.076C119.531 105.226 121.261 105.456 123.001 105.506C124.721 105.556 126.461 105.516 128.171 105.316C129.921 105.116 131.641 104.676 133.531 104.316Z" fill="white"/>
<path d="M98.9311 80.1857H96.6511C97.1211 79.4457 97.4611 78.9257 97.9111 78.2257C98.2611 78.8957 98.5311 79.4157 98.9311 80.1857Z" fill="white"/>
<path d="M69.6611 51.4157C70.1411 51.0557 70.4411 50.8457 70.7411 50.6257C71.4311 50.1157 72.0611 49.4757 72.8211 49.1057C75.2411 47.9357 77.6711 49.6557 77.4711 52.3557C77.4411 52.8057 77.2611 53.2357 77.1811 53.6857C77.1311 53.9957 77.1411 54.3257 77.1211 54.8157C77.5811 54.6557 77.8611 54.6057 78.1011 54.4757C78.5011 54.2557 78.8611 53.9657 79.2511 53.7357C80.8311 52.8557 81.5911 52.8757 82.5711 53.7857C83.7711 54.8957 84.3011 56.7257 83.6711 57.9357C83.4911 58.2757 83.0311 58.5857 82.6511 58.6757C77.1511 60.0857 71.6211 61.4057 66.1311 62.8657C57.9911 65.0257 49.8211 67.0857 41.9211 70.0557C41.4511 70.2357 40.9611 70.3757 40.4811 70.5457C40.2711 68.8257 41.7311 66.1557 43.4611 64.9157C45.4211 63.5157 47.5611 63.7057 49.8411 64.3657C49.9711 63.5657 50.0511 62.9857 50.1711 62.4057C50.5411 60.5057 51.8111 59.6457 53.7211 60.0557C54.3611 60.1957 54.9611 60.5057 55.5911 60.6757C55.9511 60.7757 56.3511 60.7657 56.7311 60.8057C56.7311 60.4357 56.8211 60.0257 56.7111 59.6857C55.3711 55.5057 56.4711 51.8457 59.1911 48.6257C60.7811 46.7457 62.8811 45.7957 65.4211 46.1257C67.8411 46.4457 69.0311 47.6157 69.4011 50.0157C69.4611 50.3957 69.5411 50.7757 69.6711 51.4157H69.6611Z" fill="white"/>
<path d="M15.3011 91.5357C15.3011 89.9157 16.1011 88.7557 17.3411 87.8357C18.6211 86.8857 20.1211 87.0557 21.6711 87.1257C21.9711 86.5057 22.2111 85.9057 22.5311 85.3457C23.2911 84.0157 24.0911 83.7757 25.4311 84.5057C26.0011 84.8157 26.5211 85.2057 27.2711 85.6957C27.5011 84.9557 27.7011 84.3657 27.8611 83.7657C28.8711 79.9157 31.3911 77.5857 35.1611 76.5657C36.3511 76.2457 37.5811 76.2757 38.7211 76.8857C40.2711 77.7157 41.2911 78.8657 41.0711 80.7657C41.0511 80.9657 41.0711 81.1657 41.1111 81.3657C41.1311 81.4557 41.2111 81.5357 41.3711 81.7957C41.7711 81.6757 42.2511 81.5957 42.6811 81.3957C45.3311 80.1357 48.0611 80.1257 50.8911 80.9657C50.4311 81.0957 49.9711 81.2357 49.5011 81.3357C44.0711 82.5857 38.5811 83.6557 33.2111 85.1357C27.2011 86.7957 21.2511 88.6957 15.6411 91.4957C15.5611 91.5357 15.4511 91.5257 15.2911 91.5357H15.3011Z" fill="white"/>
<path d="M124.051 87.8857C122.011 93.4757 119.971 99.0657 117.941 104.656C117.591 104.626 117.521 104.626 117.521 104.626L114.541 96.0857L113.261 91.0457C113.261 91.0457 104.521 88.3957 102.771 85.5257C101.021 82.6457 97.0111 75.3357 97.0111 75.3357L93.4311 59.8957L91.2711 47.3457L91.6411 44.0857C91.6411 44.0857 95.5311 43.8657 100.261 42.4857H102.481C106.511 50.8057 107.581 60.5257 105.451 69.5357C106.351 69.7957 107.251 70.0557 108.151 70.3157C107.551 73.2757 109.241 76.5457 112.011 77.7657C111.421 80.8957 112.631 84.2957 115.071 86.3457C117.501 88.3957 121.071 89.0057 124.051 87.8857Z" fill="#F4C6CC"/>
<path d="M89.5011 77.7357C89.3111 76.8657 89.1811 75.9857 89.0511 75.1057C89.0611 75.0657 89.0811 75.0357 89.0911 74.9957C89.6711 73.4457 90.7011 72.0657 91.9911 71.0357C92.3811 72.0557 92.5711 73.1357 92.7011 74.2257C92.8211 75.3257 92.8011 76.4657 92.6711 77.5757C92.5511 78.7057 91.6611 79.8257 91.0411 79.7557C89.9111 79.6057 89.6911 78.5957 89.5011 77.7357Z" fill="#F4C6CC"/>
<path d="M108.471 89.9957C107.481 91.2757 106.581 92.4757 105.641 93.6557C105.331 94.0457 104.931 94.3757 104.561 94.7257C102.094 97.0257 100.288 99.7624 99.1411 102.936C94.7311 115.106 90.8711 127.466 87.5811 139.986C87.5411 140.136 87.5011 140.286 87.4711 140.436C86.4011 145.466 83.7611 149.186 80.0511 152.006C79.9211 152.036 79.7811 152.066 79.6411 152.096C85.8011 133.636 90.8011 114.796 94.6211 95.7157C95.0411 93.6157 95.4411 91.3957 94.6911 89.3957C93.8111 87.0257 91.5211 85.4957 90.1011 83.3957C89.2511 82.1257 88.7311 80.6457 88.5911 79.1157C89.4811 81.2857 90.9511 81.6257 92.9911 80.1757C93.0911 80.1957 93.2211 80.1757 93.2711 80.2357C94.1811 81.1057 95.4011 80.2957 96.2911 80.7357C97.2811 81.2257 98.1611 81.4557 99.1711 81.0157C100.501 82.7857 101.721 84.5857 103.111 86.2457C104.501 87.8957 106.321 89.0357 108.471 89.9957Z" fill="#F4C6CC"/>
<path d="M83.4911 53.2057C82.3811 51.8957 81.3211 51.6457 79.6811 52.2457C79.3611 52.3657 79.0511 52.4857 78.7011 52.6057C78.3611 47.9057 74.6911 45.9557 70.4711 49.1157C70.3611 48.8757 70.2411 48.6657 70.1611 48.4357C69.4111 46.3457 67.8411 45.3057 65.7211 44.9857C63.0711 44.5957 60.7511 45.3657 58.8911 47.2357C55.9311 50.2057 54.6011 53.8157 55.1011 58.0357C55.1511 58.4157 55.1411 58.8057 55.1611 59.2157C51.1111 58.3957 50.0311 59.0357 48.8311 62.9557C46.2811 62.2957 43.9611 62.8557 42.1111 64.7157C40.3311 66.5157 39.1811 68.6457 39.3711 71.5757C40.9211 71.1557 42.2311 70.8457 43.5311 70.4557C51.0211 68.2357 58.4811 65.9257 65.9911 63.7957C71.6011 62.1957 77.2611 60.7957 82.9111 59.3457C83.7511 59.1357 84.2311 58.6957 84.4811 57.8957C85.0411 56.1357 84.6511 54.5857 83.4911 53.2057ZM83.6711 57.9357C83.5011 58.2757 83.0411 58.5857 82.6511 58.6857C77.1511 60.0957 71.6211 61.4157 66.1311 62.8757C57.9911 65.0357 49.8211 67.0957 41.9211 70.0657C41.4411 70.2457 40.9611 70.3857 40.4711 70.5457C40.2611 68.8257 41.7211 66.1557 43.4611 64.9257C45.4211 63.5157 47.5511 63.7057 49.8411 64.3657C49.9711 63.5757 50.0511 62.9857 50.1611 62.4057C50.5311 60.5057 51.8111 59.6457 53.7111 60.0657C54.3511 60.1957 54.9511 60.5057 55.5811 60.6857C55.9511 60.7857 56.3411 60.7657 56.7211 60.8057C56.7211 60.4357 56.8111 60.0357 56.7011 59.6957C55.3611 55.5157 56.4711 51.8557 59.1811 48.6357C60.7711 46.7557 62.8711 45.8057 65.4111 46.1357C67.8411 46.4557 69.0211 47.6257 69.3911 50.0257C69.4511 50.4057 69.5311 50.7757 69.6611 51.4257C70.1411 51.0657 70.4411 50.8457 70.7411 50.6257C71.4311 50.1157 72.0511 49.4757 72.8111 49.1157C75.2311 47.9357 77.6611 49.6657 77.4611 52.3557C77.4211 52.8057 77.2511 53.2457 77.1711 53.6857C77.1211 54.0057 77.1311 54.3257 77.1111 54.8257C77.5611 54.6657 77.8511 54.6057 78.0911 54.4757C78.4911 54.2557 78.8511 53.9657 79.2511 53.7457C80.8211 52.8557 81.5911 52.8757 82.5711 53.7957C83.7711 54.9057 84.3011 56.7257 83.6711 57.9357Z" fill="black"/>
<path d="M42.2811 80.2857C42.2411 80.2057 42.1611 80.1257 42.1511 80.0357C41.6011 76.9257 39.0311 74.9957 35.9311 75.3657C31.8311 75.8657 28.2111 78.9557 27.0611 82.9357C26.9511 83.3157 26.8311 83.7057 26.7111 84.0857C23.2311 82.8557 22.8111 83.0057 21.1911 86.1957C16.6711 86.2857 14.0311 88.7457 14.6811 92.1457C15.3711 92.5757 15.9611 92.1157 16.5411 91.8757C24.3511 88.6657 32.3411 86.0357 40.5811 84.1857C44.1511 83.3857 47.7311 82.6557 51.3011 81.8657C51.9011 81.7357 52.4611 81.4557 53.0911 81.2257C51.6211 79.0657 47.7711 78.7957 42.2811 80.2857ZM49.5111 81.3357C44.0711 82.5857 38.5911 83.6557 33.2211 85.1357C27.2111 86.7957 21.2611 88.6957 15.6511 91.4957C15.5711 91.5357 15.4611 91.5157 15.3011 91.5357C15.3011 89.9157 16.1011 88.7557 17.3311 87.8357C18.6211 86.8857 20.1211 87.0557 21.6711 87.1257C21.9611 86.5157 22.2111 85.9057 22.5311 85.3457C23.2911 84.0157 24.0911 83.7857 25.4311 84.5057C25.9911 84.8157 26.5111 85.2057 27.2711 85.6957C27.5011 84.9557 27.7111 84.3657 27.8611 83.7657C28.8711 79.9157 31.3911 77.5857 35.1611 76.5657C36.3611 76.2357 37.5811 76.2757 38.7211 76.8757C40.2711 77.7057 41.2911 78.8557 41.0711 80.7657C41.0511 80.9557 41.0811 81.1657 41.1111 81.3657C41.1211 81.4557 41.2111 81.5357 41.3711 81.7957C41.7711 81.6757 42.2611 81.5957 42.6811 81.3957C45.3311 80.1357 48.0611 80.1257 50.8911 80.9557C50.4311 81.0857 49.9711 81.2257 49.5111 81.3357Z" fill="black"/>
<path d="M144.711 58.6757C145.191 59.5957 144.871 60.1357 144.321 60.5957C143.411 61.3557 142.381 61.8757 141.211 62.1057C140.541 62.2357 139.881 62.4357 139.221 62.5957C139.361 63.6957 140.131 63.8957 140.811 64.2257C141.441 64.5257 142.121 64.8057 142.641 65.2557C143.581 66.0857 143.611 67.1157 142.871 68.1057C141.571 69.8357 138.081 69.9557 136.381 68.1457C136.911 68.1957 137.271 68.2657 137.631 68.2557C138.631 68.2357 139.651 68.2557 140.631 68.1057C141.291 68.0057 141.941 67.5857 142.001 66.8557C142.051 66.1657 141.411 65.8557 140.861 65.5857C140.451 65.3857 139.971 65.2857 139.631 65.0157C139.131 64.6157 138.601 64.1657 138.291 63.6257C137.761 62.6857 138.121 61.8357 139.141 61.4257C139.601 61.2357 140.111 61.1457 140.611 61.0657C142.211 60.7957 143.501 59.9457 144.721 58.6857L144.711 58.6757Z" fill="black"/>
<path d="M106.571 58.0857C107.771 59.9057 107.571 61.8757 105.561 69.0157C106.771 69.3657 107.991 69.7257 109.211 70.0857C109.211 70.1857 109.191 70.2857 109.181 70.3857C108.971 70.4857 108.771 70.6457 108.551 70.6657C107.201 70.7957 105.931 70.4757 104.741 69.8457C104.181 69.5557 103.951 69.1457 104.271 68.4757C105.621 65.5857 106.101 62.4857 106.401 59.3357C106.431 58.9657 106.501 58.5957 106.571 58.0957V58.0857Z" fill="black"/>
<path d="M114.551 56.7157C114.671 55.8657 114.621 55.3157 114.841 54.8857C115.011 54.5457 115.471 54.2057 115.841 54.1457C116.141 54.0957 116.671 54.3957 116.811 54.6857C117.571 56.2057 117.911 57.8457 117.691 59.5357C117.601 60.2057 117.021 60.5657 116.391 60.6457C115.811 60.7157 115.421 60.3057 115.281 59.7857C114.981 58.6757 114.751 57.5357 114.551 56.7157Z" fill="black"/>
<path d="M100.571 59.9757C100.441 61.2457 100.151 61.8657 99.4711 62.0157C98.8111 62.1657 98.1811 61.6857 97.8511 60.5157C97.5811 59.5557 97.4211 58.5357 97.3711 57.5357C97.3211 56.5557 97.7811 55.9657 98.4111 55.9157C99.2211 55.8457 99.6311 56.3757 99.8311 57.0457C100.121 58.0057 100.331 58.9957 100.581 59.9657L100.571 59.9757Z" fill="black"/>
<path d="M113.951 72.4857C115.131 73.2757 115.971 74.2357 116.681 75.3157C116.761 75.4357 116.731 75.7757 116.621 75.8557C116.451 75.9957 116.121 76.1157 115.961 76.0357C115.531 75.8057 115.151 75.4757 114.661 75.1157C112.541 77.7557 110.061 79.6557 106.531 79.3257C106.471 79.1957 106.421 79.0757 106.361 78.9457C106.791 78.8157 107.221 78.6457 107.661 78.5657C110.221 78.1257 112.031 76.5757 113.661 74.6757C114.251 73.9857 113.601 73.3257 113.941 72.4757L113.951 72.4857Z" fill="black"/>
<path d="M111.491 50.9157C110.921 48.6157 112.271 46.4257 114.281 45.9757C116.301 45.5257 118.081 46.2357 119.721 47.3457C119.911 47.4757 119.941 47.8457 120.051 48.1157C119.751 48.2257 119.431 48.4457 119.141 48.4057C118.751 48.3657 118.391 48.1157 118.021 47.9657C117.451 47.7557 116.901 47.4957 116.311 47.3557C114.641 46.9757 113.481 47.4857 112.581 48.9657C112.251 49.5157 111.951 50.0957 111.501 50.9157H111.491Z" fill="black"/>
<path d="M93.1811 51.0157C93.2511 50.4857 93.2211 50.1957 93.3311 49.9657C93.9711 48.5957 95.6711 47.6857 97.2311 47.8657C98.8411 48.0557 100.221 48.8057 101.461 49.7857C101.701 49.9757 101.911 50.5257 101.811 50.7757C101.611 51.2757 101.141 51.0557 100.781 50.8557C100.161 50.5157 99.5611 50.1457 98.9311 49.8157C96.9611 48.7757 95.2811 49.0357 93.9611 50.4757C93.8111 50.6357 93.5911 50.7357 93.1811 51.0257V51.0157Z" fill="black"/>
<path d="M188.361 127.736C187.981 128.976 187.561 130.206 187.131 131.426C186.151 129.576 185.161 127.736 184.171 125.886C181.721 121.296 179.251 116.676 175.981 112.626C172.931 108.836 169.111 105.546 164.601 103.756C165.631 102.986 166.711 102.286 167.831 101.636C168.091 101.796 168.281 101.876 168.431 102.006C174.861 107.406 180.531 113.476 184.751 120.776C185.161 121.476 185.541 122.196 185.921 122.916C186.751 124.516 187.531 126.136 188.361 127.736Z" fill="white"/>
<path d="M88.9311 89.9557C88.8911 90.2257 88.8711 90.5057 88.8411 90.7957C83.7611 92.4357 79.3511 95.8457 75.8011 99.8657C71.9711 104.206 69.0411 109.236 66.1311 114.236C65.9411 114.576 65.7011 114.936 65.4011 115.156C65.1011 115.026 64.8011 114.886 64.5011 114.746C64.6611 114.016 64.7311 113.256 65.0111 112.586C68.6411 103.926 74.1911 96.8457 82.2911 91.9257C83.5911 91.1357 84.9511 90.4357 86.2811 89.7057C87.0611 89.2857 87.9444 89.369 88.9311 89.9557Z" fill="white"/>
<path d="M132.701 115.166C133.561 114.256 134.421 113.336 135.311 112.456C136.191 111.586 137.111 110.726 138.241 110.226C139.981 109.456 142.111 109.656 143.671 110.736C143.981 110.946 144.271 111.206 144.411 111.546C144.521 111.806 144.531 112.106 144.541 112.386C144.571 113.116 144.591 113.836 144.621 114.566C143.161 114.306 141.621 114.516 140.271 115.156C139.231 115.646 138.321 116.376 137.431 117.096C135.631 118.556 133.821 120.016 132.021 121.466C132.651 119.386 132.011 117.286 132.021 115.116" fill="#76B82A"/>
<path d="M102.181 112.816C102.261 114.306 102.041 115.816 101.551 117.236C103.701 115.896 106.411 115.676 108.881 116.226C111.351 116.776 113.621 118.006 115.721 119.406C115.431 118.106 114.631 116.996 113.801 115.956C112.841 114.766 111.821 113.606 110.591 112.696C109.361 111.786 107.931 111.106 106.401 110.966C104.871 110.826 103.271 111.246 102.151 112.286" fill="#76B82A"/>
<path d="M50.9911 122.556C36.0611 124.156 21.6811 129.186 8.22107 135.876C7.66107 134.536 7.15107 133.196 6.69107 131.866L6.77107 131.646C9.06107 130.246 11.5711 129.256 14.1011 128.366C25.9111 124.226 38.4811 122.236 50.9911 122.556Z" fill="white"/>
<path d="M54.3611 92.4657C54.3611 92.4657 34.9511 99.4657 25.6111 103.616C18.4811 106.796 8.09107 116.746 3.58107 121.276C2.68107 117.536 2.28107 115.046 2.28107 115.046C2.28107 115.046 13.4111 106.296 22.9111 101.396C25.8211 99.8957 29.4111 98.4357 32.9811 97.1357C42.6011 94.6057 54.3611 92.4657 54.3611 92.4657Z" fill="white"/>
<path d="M192.611 97.5857C192.581 95.9657 192.511 94.3457 192.401 92.7357C192.101 88.0257 191.451 83.3457 190.461 78.7457C190.101 77.0757 189.691 75.4057 189.251 73.7557C188.891 72.4357 188.511 71.1157 188.101 69.8157C187.131 66.7257 186.021 63.6957 184.761 60.7157C179.841 49.1057 172.701 38.4557 163.841 29.4857C159.421 24.9957 154.571 20.9157 149.371 17.3357C144.191 13.7157 138.641 10.6057 132.821 8.0657C121.201 2.9857 108.521 0.215698 95.7511 0.00569787C82.9811 -0.134302 70.1311 2.3057 58.3611 7.3157C56.8811 7.9157 55.4411 8.6257 53.9911 9.2857C52.5411 9.9657 51.1411 10.7457 49.7211 11.4757C48.3211 12.2357 46.9711 13.0957 45.5911 13.8957C44.2411 14.7457 42.9211 15.6557 41.5911 16.5257C36.3311 20.1357 31.5011 24.3457 27.1111 28.9457C24.2311 31.9557 21.5611 35.1657 19.1111 38.5257C18.8311 38.9057 18.5611 39.2857 18.2911 39.6657C16.5611 42.0957 14.9611 44.6057 13.4711 47.1857C13.2411 47.5757 13.0111 47.9657 12.7911 48.3657C10.5511 52.3657 8.58107 56.5257 6.92107 60.7857C4.66107 66.6557 2.87107 72.7057 1.75107 78.8757C0.591073 85.0457 -0.0189275 91.3157 0.00107251 97.5857C-0.0289275 103.856 0.571073 110.126 1.72107 116.286C2.84107 122.466 4.62107 128.516 6.88107 134.396C11.4611 146.116 18.2911 157.046 27.0611 166.276C35.8011 175.496 46.4711 183.036 58.2811 188.046C70.0611 193.126 82.9111 195.646 95.7511 195.746C108.131 195.736 120.551 193.416 132.031 188.736C132.411 188.596 132.781 188.446 133.151 188.286C133.201 188.266 133.241 188.246 133.291 188.226C145.131 183.236 155.931 175.886 164.931 166.766C166.811 164.866 168.611 162.886 170.311 160.836C170.641 160.456 170.951 160.076 171.261 159.696C176.981 152.636 181.671 144.776 185.171 136.426C185.401 135.916 185.601 135.406 185.811 134.896C186.191 133.966 186.551 133.026 186.901 132.076C187.421 130.636 187.911 129.196 188.361 127.736C188.571 127.076 188.761 126.416 188.951 125.746C190.621 119.906 191.711 113.896 192.231 107.856C192.541 104.436 192.661 101.006 192.611 97.5857ZM187.731 115.886C187.351 117.616 186.931 119.336 186.451 121.036C186.291 121.666 186.111 122.286 185.921 122.916C184.861 126.486 183.601 129.966 182.151 133.376C181.581 134.696 180.991 135.996 180.361 137.276C179.961 138.106 179.551 138.926 179.131 139.736C176.341 145.066 173.051 150.126 169.311 154.836C169.001 155.236 168.671 155.636 168.351 156.026C166.231 158.616 163.971 161.096 161.601 163.446C153.381 171.556 143.651 178.116 133.061 182.666C132.621 182.856 132.181 183.046 131.731 183.226C131.591 183.286 131.441 183.346 131.291 183.406C127.951 184.756 124.551 185.926 121.081 186.906C120.691 187.016 120.301 187.116 119.911 187.226C117.911 187.756 115.891 188.226 113.861 188.626C107.901 189.816 101.821 190.376 95.7511 190.406C92.5511 190.426 89.3411 190.276 86.1511 189.956C85.7311 189.926 85.3111 189.876 84.9011 189.826C82.4511 189.566 80.0211 189.196 77.6111 188.736C71.6411 187.586 65.7811 185.836 60.1211 183.596C58.7011 183.046 57.3211 182.386 55.9211 181.796C54.5311 181.166 53.1811 180.456 51.8111 179.786C50.7111 179.226 49.6311 178.616 48.5411 178.016C48.2911 177.876 48.0411 177.746 47.7911 177.606C47.5111 177.446 47.2311 177.286 46.9511 177.116C45.9211 176.506 44.9011 175.856 43.8711 175.236C43.3411 174.896 42.8211 174.546 42.2911 174.196C41.8411 173.906 41.4011 173.596 40.9611 173.286C37.8911 171.176 34.9411 168.896 32.1311 166.426C31.7711 166.126 31.4111 165.806 31.0511 165.476C30.4911 164.976 29.9411 164.466 29.3911 163.946C20.4811 155.486 13.1211 145.246 8.14107 133.866C7.85107 133.206 7.56107 132.536 7.29107 131.866C7.22107 131.706 7.16107 131.556 7.10107 131.396C5.10107 126.476 3.57107 121.346 2.45107 116.146C2.39107 115.866 2.33107 115.586 2.28107 115.306V115.286C1.11107 109.466 0.551073 103.526 0.501073 97.5857C0.541073 91.3557 1.15107 85.1157 2.42107 79.0157C3.73107 72.9357 5.58107 66.9557 8.11107 61.2857C10.1511 56.6057 12.5911 52.1357 15.3811 47.8957C15.6711 47.4357 15.9711 46.9857 16.2711 46.5457C18.0711 43.9157 19.9911 41.3857 22.0411 38.9557C22.4411 38.4657 22.8611 37.9757 23.2911 37.4957C25.2111 35.2957 27.2311 33.1857 29.3311 31.1757C33.7911 26.9257 38.6711 23.1757 43.8011 19.8357C45.1111 19.0357 46.3911 18.2057 47.7111 17.4457C49.0611 16.7157 50.3811 15.9357 51.7411 15.2457C53.1111 14.5657 54.4511 13.8457 55.8411 13.2157C57.2411 12.6057 58.6211 11.9457 60.0411 11.3857C65.7011 9.1057 71.5611 7.3157 77.5511 6.1057C83.5311 4.9357 89.6311 4.2357 95.7511 4.1757C107.981 3.9857 120.291 6.1257 131.761 10.6357C137.491 12.8857 143.021 15.7057 148.221 19.0357C153.411 22.4057 158.281 26.2857 162.691 30.6357C171.511 39.3457 178.561 49.8757 183.191 61.3657C184.061 63.4857 184.841 65.6357 185.531 67.8157C185.811 68.6657 186.061 69.5157 186.301 70.3757C188.841 79.2157 189.991 88.4257 189.871 97.5857C189.751 103.746 189.041 109.886 187.731 115.886Z" fill="black"/>
<path d="M140.681 73.8357C145.861 73.3157 148.911 70.6557 150.131 65.5857C150.211 65.2457 150.341 64.9257 150.451 64.5957C152.291 64.6657 154.071 64.7757 155.841 64.8057C161.581 64.9057 167.331 64.7857 173.051 65.4457C176.861 65.8957 180.521 66.8157 183.911 68.7357C184.781 69.2257 185.581 69.7757 186.301 70.3757C187.481 71.3557 188.461 72.4857 189.251 73.7557C188.891 72.4357 188.511 71.1157 188.101 69.8157C187.321 69.0757 186.471 68.4057 185.531 67.8157C184.281 67.0057 182.901 66.3157 181.371 65.7357C178.061 64.4757 174.601 63.9057 171.111 63.6457C164.871 63.1857 158.611 63.1757 152.361 63.5957C151.781 63.6357 151.181 63.6457 150.461 63.6857C150.631 60.0957 149.951 56.9557 146.901 54.8157C147.161 54.3457 147.361 53.9957 147.541 53.6457C149.151 50.5357 150.311 47.3157 150.031 43.7257C149.761 40.2257 148.111 37.6957 144.751 36.4057C144.471 36.2957 144.201 36.1657 144.031 36.0957C144.731 34.8957 145.631 33.8057 146.061 32.5557C147.301 28.9257 146.601 25.5357 144.291 22.4957C143.071 20.8957 141.481 19.7257 139.711 18.7757C134.701 16.0657 129.421 14.2257 123.701 13.6957C120.361 13.3957 117.111 13.5357 114.031 15.0357C113.611 15.2457 113.061 15.2857 112.591 15.2457C111.121 15.1457 109.661 14.8957 108.201 14.8157C103.901 14.5957 99.6911 15.2557 95.5011 16.1257C93.2211 16.5957 90.9011 17.0057 88.5811 17.2057C86.9611 17.3457 85.3311 17.0457 84.2511 15.5057C84.0211 15.1857 83.5511 15.0257 83.1911 14.7957C82.9711 15.1657 82.7011 15.5057 82.5311 15.8957C82.4111 16.1657 82.4011 16.4957 82.3911 16.7957C82.3211 19.2457 82.8911 21.5557 84.1511 23.6357C84.5911 24.3557 85.3011 24.9057 85.9411 25.4757C86.3711 25.8657 86.8911 25.9257 87.5211 25.4757C84.4411 23.3857 83.5111 20.4557 83.5211 16.7557C85.7311 18.7557 88.1011 18.9157 90.5811 18.5257C92.2411 18.2557 93.9011 18.0157 95.5311 17.6457C101.441 16.2857 107.371 15.8057 113.371 16.9357C117.831 17.7657 121.851 19.4857 124.981 22.8457C126.431 24.3957 127.671 26.1457 129.001 27.8057C129.221 28.0757 129.471 28.3157 129.701 28.5757C129.671 26.9157 128.921 25.6557 128.071 24.4657C124.891 20.0057 120.591 17.1257 115.301 15.6157C115.931 15.4057 116.501 15.3357 117.071 15.2457C122.151 14.4457 123.821 14.9257 127.651 18.2757C127.811 18.4057 127.961 18.5357 128.111 18.6857C130.291 20.8057 132.111 23.1557 132.631 26.2757C132.661 26.4557 132.761 26.6257 132.831 26.7957C132.991 26.1157 132.981 25.4657 132.851 24.8357C132.171 21.5657 130.471 18.9357 127.821 16.9057C127.421 16.5957 127.051 16.2557 126.471 15.7657C132.831 16.1057 134.881 20.3357 136.161 25.3457C136.691 22.4257 135.131 20.2157 133.781 17.9057C136.371 18.9757 138.871 20.0557 141.061 21.7457C145.521 25.1857 146.121 31.4357 142.561 35.5857C139.251 35.2957 136.211 36.3357 133.251 37.7757C132.171 38.2957 130.991 38.6057 129.991 38.9557C129.301 38.5057 129.301 37.6457 128.331 37.5157C128.621 38.1057 128.741 38.6457 129.071 38.9657C130.181 40.0257 130.251 41.3757 130.281 42.7357C130.311 44.0557 130.371 45.3957 130.191 46.6957C129.561 51.2257 128.721 55.7257 127.331 60.0957C126.861 61.5857 127.021 61.9757 128.531 62.4057C130.381 62.9357 132.251 63.4257 134.111 63.9257C134.291 63.9757 134.491 63.9257 134.731 63.9257C134.811 63.6857 134.911 63.5057 134.941 63.3157C135.291 61.0357 136.491 59.1457 137.801 57.3257C139.291 55.2457 141.421 54.5557 143.841 54.9257C146.361 55.3057 148.031 56.8557 148.831 59.2957C149.391 60.9757 149.391 62.7057 149.141 64.4257C148.421 69.2257 145.401 72.8357 139.771 72.7657C138.261 72.7557 138.031 72.9657 137.881 74.4657C137.851 74.8657 137.841 75.2757 137.841 75.6857C137.841 79.0057 138.331 82.2757 139.071 85.4957C139.351 86.6857 139.341 87.7857 138.921 88.9057C138.141 90.9957 137.331 93.0857 136.551 95.1757C135.561 97.8357 134.601 100.496 133.591 103.236C128.431 104.626 123.161 104.906 117.751 103.746C115.441 99.7857 114.691 95.2657 113.271 90.7457C116.691 90.8557 119.701 90.2157 122.561 88.9157C125.411 87.6157 128.121 86.1157 129.791 83.2757C128.631 83.8857 127.511 84.5557 126.441 85.2857C122.311 88.1357 117.821 89.7657 112.721 89.5557C110.481 89.4657 108.431 88.8657 106.551 87.6457C104.601 86.3757 103.091 84.6757 101.771 82.7757C99.2911 79.1857 97.5611 75.2557 96.3611 71.0657C94.2911 63.8757 92.9911 56.5257 92.1811 49.0957C91.9911 47.4457 91.9511 45.7757 91.8511 44.0857C92.3611 44.0857 92.6711 44.0457 92.9611 44.0957C95.2711 44.4757 97.5211 44.1457 99.7311 43.4757C103.351 42.3657 106.671 40.6257 109.861 38.6157C111.501 37.5857 113.131 36.5557 114.811 35.6057C119.011 33.2257 123.841 33.6557 127.611 36.6757C127.711 36.7457 127.861 36.7557 127.981 36.7857C127.721 36.2657 127.371 35.8457 126.941 35.5357C123.851 33.3057 118.691 31.7157 114.001 34.4057C112.241 35.4157 110.501 36.4657 108.771 37.5357C105.651 39.4657 102.391 41.1057 98.8411 42.0857C94.0511 43.4157 90.0211 42.2357 86.7011 38.5457C85.1611 36.8357 83.8111 34.9857 82.9311 32.8457C82.2411 31.1557 81.6511 29.4257 81.0311 27.7057C80.9211 27.4157 80.9111 27.0957 80.8211 26.5657C81.2411 26.8457 81.4411 26.9857 81.6411 27.1357C83.7311 28.6757 86.0511 28.9957 88.4311 28.0957C89.9811 27.5057 91.4711 26.6957 92.9011 25.8357C94.2011 25.0557 95.3711 24.0557 96.6011 23.1557C100.781 20.1157 105.131 19.9057 109.591 22.4857C111.081 23.3457 112.511 24.3157 113.991 25.2257C114.201 25.3557 114.471 25.3757 114.711 25.4457C114.771 25.3557 114.821 25.2757 114.881 25.1857C114.321 24.6257 113.821 23.9657 113.181 23.5157C111.971 22.6857 110.711 21.9057 109.421 21.2157C105.401 19.0757 101.271 19.2157 97.2311 21.0157C95.5311 21.7657 94.0711 23.0357 92.4811 24.0257C91.2711 24.7657 90.0611 25.5157 88.7811 26.1257C86.2511 27.3657 83.8611 26.9857 81.6311 25.3257C80.8011 24.6957 79.9711 24.0757 79.0311 23.3757C78.5411 24.9357 79.3911 26.2857 79.3111 27.7357C77.4111 27.9957 75.5511 28.2157 73.7111 28.5057C66.3311 29.6657 58.9411 30.7357 51.5911 32.0457C42.7411 33.6157 33.9211 35.3457 25.1011 37.1057C24.4911 37.2257 23.8911 37.3557 23.2911 37.4957C21.8911 37.8157 20.5011 38.1657 19.1111 38.5357C18.8311 38.9157 18.5611 39.2957 18.2911 39.6757C19.5411 39.4357 20.7911 39.1957 22.0411 38.9557C30.3911 37.3657 38.6611 35.7857 46.9311 34.2357C57.8511 32.1857 68.8211 30.4957 79.8011 28.8257C80.4011 30.5257 80.9411 32.0857 81.5311 33.7557C74.4311 34.9557 67.5111 36.1257 60.5011 37.3157C60.8611 36.2857 61.1711 35.4057 61.4811 34.5357C61.3711 34.4857 61.2711 34.4457 61.1711 34.4057C60.1211 35.2157 59.7611 36.4957 59.2311 37.6557C57.6911 37.9557 56.2211 38.2557 54.5711 38.5857C55.0211 37.4657 55.3811 36.5657 55.7411 35.6557C54.3011 36.2857 54.0311 37.6157 53.4311 38.8157C52.3411 39.0457 51.2211 39.2857 50.0111 39.5357C50.3311 38.1357 51.3711 37.1857 51.3111 35.8357C50.2611 36.6957 49.5711 37.7857 49.0111 38.9757C48.8511 39.3157 48.6211 39.7657 48.3311 39.8657C47.4811 40.1457 46.5811 40.2757 45.5011 40.4957C45.7911 39.7757 46.0411 39.2857 46.1911 38.7657C46.3411 38.2257 46.8111 37.7257 46.3811 36.7957C45.8311 37.8257 45.3011 38.6157 44.9811 39.4857C44.6211 40.4457 44.0611 40.8857 43.0311 41.0757C40.3311 41.5657 37.6711 42.2157 34.9811 42.7757C30.5111 43.7157 26.0611 44.7457 21.5611 45.5357C19.7911 45.8457 18.0211 46.1757 16.2711 46.5457C15.3311 46.7457 14.4011 46.9557 13.4711 47.1957C13.2411 47.5857 13.0111 47.9757 12.7911 48.3757C13.6511 48.2157 14.5211 48.0557 15.3811 47.8957C21.4011 46.8057 27.4511 45.8557 33.4311 44.4557C43.7611 42.0357 54.1911 40.0357 64.6011 37.9257C70.3611 36.7557 76.1611 35.7357 81.9911 34.6357C84.2311 38.5657 87.0011 41.8657 91.1911 43.7057C91.2211 51.0357 92.3511 58.2257 93.8011 65.5357C91.9111 64.8257 90.3711 64.9457 88.9011 65.9457C88.6211 66.1457 88.1411 66.1257 87.7611 66.0857C86.6511 65.9657 85.5711 66.1057 84.7511 66.8557C83.9411 67.5957 83.1511 68.4457 82.6011 69.3857C81.8111 70.7357 81.1811 72.1957 80.6011 73.6557C80.3011 74.3957 79.9511 74.7557 79.1311 74.9157C77.3411 75.2757 75.5711 75.7557 73.8211 76.2857C72.6211 76.6457 71.4711 77.1557 70.2011 77.6357C69.6811 76.3057 69.2011 75.0257 68.6911 73.7557C68.2111 72.5857 67.7511 71.4057 67.2011 70.2557C66.9811 69.8057 66.5611 69.4457 66.2011 68.9957C65.4411 69.6357 65.5811 70.3357 65.5511 70.9657C65.4611 73.6557 65.3711 76.3457 65.3311 79.0457C65.3211 79.9457 65.0011 80.4557 64.1611 80.5357C62.6511 78.6857 62.4611 76.1457 60.4911 74.3657C60.2911 75.0157 60.1011 75.3757 60.0711 75.7557C59.8611 77.8757 59.6211 80.0057 59.5611 82.1357C59.5211 83.0957 59.2811 83.6857 58.4811 84.2657C55.2711 86.5957 52.0511 88.9057 49.2711 91.7657C49.0411 91.9957 48.6911 92.1857 48.3711 92.2257C44.0811 92.8557 39.9211 93.9957 35.8011 95.2857C35.5311 95.3657 35.2211 95.3457 34.9211 95.3857C34.4611 94.5657 34.0611 93.7957 33.5911 93.0757C32.7011 91.7257 31.7911 90.3757 30.8311 89.0657C30.5311 88.6457 30.1811 88.0857 29.3411 88.4857C28.8411 91.4457 29.4211 94.4657 29.6211 97.4857C26.8011 98.8157 24.0711 100.106 21.3111 101.406C20.7511 100.646 20.2811 100.056 19.8411 99.4357C19.0611 98.3657 18.3311 97.2657 17.5111 96.2357C17.2711 95.9257 16.7711 95.8257 16.3911 95.6357C16.2011 96.0257 15.9611 96.3957 15.8411 96.7957C15.7511 97.1257 15.7811 97.5057 15.8211 97.8557C15.9811 99.5757 16.1711 101.296 16.3311 103.016C16.3711 103.376 16.3411 103.746 16.3411 104.446C15.9211 103.946 15.7111 103.746 15.5611 103.516C14.9611 102.566 14.3911 101.606 13.7911 100.666C12.3011 98.3657 10.8111 96.0557 9.28107 93.7857C8.97107 93.3257 8.46107 92.9957 8.08107 92.6457C7.15107 93.2457 7.27107 94.0157 7.31107 94.6957C7.54107 98.2457 7.80107 101.786 8.08107 105.336C8.18107 106.646 8.37107 107.946 8.50107 109.176C7.26107 110.196 6.10107 111.096 4.99107 112.066C3.94107 112.996 2.79107 113.876 2.28107 115.286V115.306C4.28107 114.006 6.18107 112.586 8.10107 111.176C12.7311 107.746 17.6711 104.836 22.8411 102.316C23.1211 102.186 23.4311 102.146 23.8111 102.046C23.7511 102.306 23.7511 102.416 23.7011 102.496C23.4811 102.896 23.2411 103.296 23.0111 103.686C18.5811 111.306 14.7611 119.206 12.3011 127.706C12.1311 128.296 11.8211 128.646 11.2811 128.926C9.98107 129.616 8.71107 130.356 7.44107 131.106C7.31107 131.186 7.21107 131.286 7.10107 131.396C7.00107 131.516 6.90107 131.636 6.79107 131.746C6.85107 131.836 6.91107 131.926 6.97107 132.016C7.08107 131.966 7.18107 131.916 7.29107 131.866C10.9311 130.106 14.6011 128.496 18.4911 127.366C22.5011 126.206 26.5211 125.096 30.8511 124.476C29.1311 129.406 27.0211 133.956 26.6311 138.996C28.7011 134.216 30.4311 129.316 31.8211 124.266C33.0011 124.096 34.0911 123.936 35.3511 123.766C34.6011 126.036 33.8811 128.126 33.2111 130.236C32.5511 132.326 31.8011 134.396 31.8511 136.656C34.0911 132.586 35.2111 128.126 36.4211 123.596C37.8911 123.456 39.3311 123.316 40.9311 123.166C40.3311 125.146 39.7511 126.926 39.2511 128.716C38.7611 130.456 38.0811 132.186 38.5311 134.066C40.1411 130.586 41.0711 126.916 41.9711 123.036C45.5811 122.876 49.2011 122.726 52.8211 122.566C51.6711 121.756 50.4011 121.596 49.1611 121.596C46.1111 121.606 43.0611 121.616 40.0211 121.846C31.0011 122.516 22.2411 124.426 13.8111 127.746C13.5211 127.866 13.2011 127.886 12.7211 127.996C13.8811 125.156 14.8211 122.466 16.0611 119.916C19.0511 113.796 22.1811 107.746 25.2611 101.686C25.4411 101.336 25.7011 100.946 26.0211 100.786C27.7411 99.9557 29.4811 99.1857 31.2211 98.3957C30.5711 99.9957 29.7411 101.366 28.9611 102.756C28.1711 104.186 27.4011 105.616 26.6711 107.066C25.9411 108.516 25.2711 109.996 24.5811 111.476C23.8911 112.946 23.2511 114.436 22.5511 115.906C21.8511 117.376 21.0811 118.806 20.3911 120.286C19.7411 121.686 18.9011 123.026 18.6811 124.606C18.9011 124.486 19.0311 124.326 19.1111 124.156C23.0011 115.636 27.6711 107.536 32.0111 99.2557C32.4611 98.3857 32.9011 97.5857 34.0111 97.3857C34.9511 97.2257 35.7811 96.5757 36.8311 96.6457C35.2311 99.3557 33.6211 101.936 32.1611 104.606C30.7311 107.236 29.3711 109.916 28.1411 112.646C26.9011 115.366 25.4011 117.956 24.4911 120.826C24.8911 120.406 25.1611 119.926 25.4211 119.446C26.5611 117.286 27.6511 115.106 28.8311 112.966C31.7911 107.576 34.7811 102.206 37.7711 96.8357C37.9411 96.5357 38.1211 96.1057 38.3911 96.0157C39.8111 95.5857 41.2511 95.2357 42.9911 94.7857C40.2811 99.8257 37.4511 104.376 35.2311 109.256C35.5211 109.116 35.7411 108.926 35.9011 108.686C38.6411 104.466 41.3311 100.216 43.3811 95.6057C43.7311 94.8257 44.1711 94.3957 45.0411 94.2857C47.3611 93.9957 49.6611 93.5357 51.9811 93.3257C56.3311 92.9357 60.7011 92.6357 65.0711 93.1657C67.3911 93.4457 69.7011 93.8157 72.0011 94.2057C72.7911 94.3457 73.2611 94.2157 73.4311 93.3157C69.6011 92.4657 65.8211 91.6457 61.9411 91.6257C58.1311 91.6057 54.3211 91.7257 50.2911 91.7957C55.4411 87.5657 60.4111 83.4457 66.3911 80.7557C64.6811 83.6857 62.5811 86.3657 61.6111 89.7557C61.8311 89.6857 61.9611 89.6857 61.9911 89.6257C63.8411 86.5957 65.6811 83.5557 67.5211 80.5157C67.6711 80.2657 67.7611 79.9057 67.9811 79.7957C68.8611 79.3757 69.7111 78.8357 70.8811 78.5957C69.3411 81.3357 67.4411 83.6457 66.7611 86.5857C67.0911 86.3857 67.3311 86.1357 67.5011 85.8457C68.8711 83.5857 70.3211 81.3657 71.5311 79.0257C72.1311 77.8757 72.9311 77.4557 74.2811 77.1857C73.5611 78.5257 72.8911 79.6457 72.3411 80.8257C71.7911 82.0157 70.8911 83.1157 71.1511 84.6057C71.6411 84.0957 72.0511 83.5457 72.3611 82.9357C73.2711 81.1857 74.1311 79.3957 75.0411 77.6357C75.2411 77.2457 75.4811 76.7157 75.8311 76.5857C77.0911 76.1357 78.4111 75.8257 79.8911 75.4057C79.7511 76.3357 79.6711 77.0257 79.5411 77.7057C79.0011 80.5457 79.8711 82.9357 81.8911 84.9157C82.7911 85.8057 83.8211 86.5557 84.7911 87.3757C85.0811 87.6157 85.3711 87.8557 85.7311 88.1557C84.7111 88.7157 83.8111 89.1957 82.9311 89.6957C73.9111 94.7057 67.6811 102.176 63.6511 111.586C63.3411 112.326 63.0911 113.116 62.9311 113.906C62.6811 115.196 63.0911 115.906 64.2611 116.496C64.7011 116.726 65.1411 116.936 65.5911 117.166C65.3911 117.746 65.2211 118.226 65.0511 118.706C63.4211 123.246 61.9011 127.826 60.8611 132.546C60.4211 134.526 59.9311 136.506 60.2011 138.566C60.7711 143.056 61.4111 147.526 63.0911 151.956C62.2711 152.286 61.5611 152.556 60.8611 152.856C53.4311 155.996 45.9911 159.136 38.5511 162.286C36.0511 163.346 33.5511 164.406 31.0511 165.476C30.8011 165.586 30.5411 165.696 30.2911 165.806C29.7711 166.036 28.9811 166.086 29.0811 166.936C29.1411 167.436 29.7411 167.456 30.8111 166.996C31.2511 166.806 31.6911 166.616 32.1311 166.426C33.8311 165.686 35.5311 164.936 37.2611 164.266C46.1211 160.836 54.6511 156.666 63.4511 152.836C63.6411 153.156 63.8611 153.616 64.1411 154.026C64.7911 154.986 65.4211 155.976 66.1511 156.886C67.3511 158.376 68.8811 158.806 70.7711 158.286C75.5311 156.966 79.6611 154.576 83.2311 151.196C83.7011 150.756 84.1011 150.236 84.5411 149.746C84.6511 149.786 84.7711 149.836 84.8911 149.876C85.0211 151.046 85.1511 152.226 85.3011 153.506C82.3611 154.876 79.5311 156.246 76.6611 157.526C71.8811 159.666 67.0811 161.746 62.3011 163.866C57.8511 165.846 53.4211 167.876 48.9611 169.846C46.3011 171.016 43.6211 172.126 40.9611 173.286C40.6911 173.396 40.4111 173.516 40.1411 173.636C39.6311 173.866 38.7811 174.076 39.1711 174.876C39.5211 175.566 40.1911 175.076 40.6611 174.876C41.2011 174.646 41.7511 174.426 42.2911 174.196C45.9211 172.696 49.5611 171.206 53.1511 169.596C58.7111 167.106 64.2111 164.486 69.7411 161.936C74.9911 159.506 80.4411 157.506 85.4711 154.226C85.7111 155.796 85.9311 157.276 86.1411 158.626C81.0611 160.966 76.1511 163.176 71.2911 165.486C63.1611 169.336 55.0611 173.226 46.9511 177.116C45.8611 177.636 44.7611 178.166 43.6711 178.686C43.5411 178.746 43.3511 178.796 43.2911 178.906C43.1411 179.156 42.8911 179.556 42.9811 179.666C43.1611 179.896 43.5611 180.126 43.8111 180.076C44.4011 179.956 44.9711 179.716 45.5211 179.456C46.5311 178.986 47.5411 178.506 48.5411 178.016C50.3811 177.156 52.2211 176.286 54.0511 175.406C62.7511 171.216 71.4411 167.036 80.1311 162.836C81.8211 162.016 83.4811 161.136 85.1511 160.286C85.5011 160.106 85.8511 159.936 86.2911 159.716C86.7411 162.326 87.1711 164.806 87.6211 167.356C85.2911 168.076 83.0611 168.756 80.8511 169.476C76.7411 170.816 72.6611 172.226 68.8611 174.316C67.0711 175.306 65.3711 176.426 63.9811 177.946C62.4111 179.666 62.3311 181.656 63.8011 183.456C64.3111 184.066 64.9211 184.736 65.6211 185.036C67.3411 185.766 69.1011 186.456 70.9111 186.846C73.1511 187.336 75.3611 186.806 77.5011 186.086C79.2911 185.496 81.0511 184.856 82.8511 184.296C83.9311 183.956 85.0611 183.746 86.3311 183.436C85.8211 185.696 85.3511 187.776 84.9011 189.826C84.8211 190.146 84.7511 190.466 84.6811 190.786C84.5611 191.306 84.2411 191.866 84.9611 192.336C85.1411 192.216 85.4211 192.126 85.5011 191.946C85.7211 191.486 85.8611 190.996 86.0011 190.506C86.0511 190.326 86.1011 190.136 86.1511 189.956C86.8411 187.396 87.5211 184.846 88.1911 182.276C88.2911 181.886 88.2911 181.476 88.3511 181.076C88.4611 180.296 88.4411 179.456 88.7211 178.736C89.0811 177.826 89.0111 177.046 88.5411 176.266C88.1711 175.656 87.8111 175.036 87.3711 174.486C86.7411 173.686 86.7611 172.926 87.2711 172.096C87.7211 171.366 88.0811 170.576 88.5511 169.846C89.1811 168.886 89.2511 167.886 89.0111 166.786C88.6711 165.196 88.4311 163.586 88.1211 161.996C87.2911 157.816 86.4711 153.626 85.5911 149.456C85.4811 148.946 85.5211 148.586 85.8111 148.196C87.3011 146.146 88.1211 143.796 88.7811 141.386C92.1411 128.926 95.8211 116.566 100.361 104.476C100.581 103.876 100.821 103.286 101.051 102.686C101.211 102.926 101.251 103.136 101.211 103.316C100.681 105.646 100.131 107.966 99.6111 110.306C99.2811 111.836 98.9811 113.386 98.6911 114.926C98.5811 115.466 98.4611 116.046 99.2911 116.426C99.6011 116.056 99.9111 115.676 100.231 115.306C100.831 114.616 101.341 113.826 102.041 113.256C105.181 110.726 107.791 110.726 110.491 113.206C112.811 115.326 114.621 117.826 115.821 120.736C116.141 121.516 116.371 122.386 116.431 123.236C117.011 131.136 117.561 139.046 118.081 146.956C118.271 149.746 118.341 152.546 118.481 155.336C118.851 162.646 119.231 169.956 119.611 177.266C119.651 178.146 119.541 178.926 118.971 179.686C118.231 180.696 118.351 181.286 119.171 182.286C119.341 182.476 119.501 182.686 119.701 182.836C120.201 183.246 120.341 183.766 120.121 184.336C119.721 185.376 119.711 186.326 119.911 187.226C120.241 188.756 121.171 190.136 121.801 191.596C121.821 191.646 121.981 191.646 122.301 191.716C122.361 191.356 122.541 190.976 122.451 190.676C122.181 189.756 121.881 188.836 121.441 187.986C121.261 187.626 121.131 187.266 121.081 186.906C121.001 186.496 121.001 186.076 121.101 185.636C121.191 185.236 121.281 184.836 121.401 184.446C121.711 183.536 121.541 182.766 120.801 182.106C120.441 181.766 120.141 181.356 119.721 180.876C120.841 179.746 121.101 178.426 121.011 176.936C120.561 169.676 120.191 162.416 119.801 155.156C119.671 152.776 119.601 150.386 119.431 147.996C119.071 142.776 118.691 137.556 118.281 132.336C118.031 129.096 117.681 125.866 117.421 122.626C117.221 119.996 116.951 117.356 116.951 114.726C116.951 112.256 117.281 109.786 117.451 107.396C120.161 107.646 122.681 107.956 125.201 108.106C127.781 108.256 130.331 107.866 132.921 107.096C132.891 107.436 132.881 107.636 132.861 107.826C132.441 110.896 131.871 113.946 131.631 117.036C130.821 127.326 130.661 137.646 130.881 147.976C131.131 159.726 131.441 171.476 131.731 183.226C131.771 184.686 131.801 186.156 131.841 187.616C131.851 187.926 131.801 188.256 131.911 188.526C131.941 188.596 131.981 188.666 132.031 188.736C132.161 188.926 132.351 189.106 132.531 189.336C132.921 189.006 133.091 188.646 133.151 188.286C133.221 187.946 133.191 187.606 133.191 187.276C133.151 185.736 133.111 184.206 133.061 182.666C132.891 176.476 132.701 170.286 132.531 164.096C132.341 156.786 132.031 149.466 132.031 142.146C132.021 133.906 132.301 125.676 132.481 117.446C132.491 116.956 132.631 116.426 132.871 116.016C133.981 114.096 135.431 112.476 137.221 111.176C139.251 109.686 141.371 109.606 143.481 110.946C144.551 111.626 145.521 112.446 146.561 113.186C146.821 113.376 147.131 113.486 147.681 113.756C148.011 109.866 147.651 106.226 147.681 102.586C147.721 98.9357 147.521 95.2857 147.431 91.6357C153.641 92.8657 164.391 98.0757 166.881 101.076C166.531 101.276 166.171 101.476 165.821 101.666C159.491 105.166 156.291 110.706 155.211 117.686C154.581 121.776 155.101 125.806 155.801 129.806C156.781 135.376 158.511 140.746 160.521 146.026C160.721 146.546 160.941 147.066 161.231 147.546C161.861 148.606 162.211 148.716 163.351 148.296C163.991 148.066 164.621 147.796 165.211 147.556C166.271 150.446 167.311 153.246 168.351 156.026C168.591 156.676 168.831 157.316 169.071 157.956C169.441 158.936 169.861 159.896 170.311 160.836C170.641 160.456 170.951 160.076 171.261 159.696C170.611 158.076 169.961 156.456 169.311 154.836C168.381 152.516 167.451 150.196 166.521 147.876C166.411 147.606 166.331 147.336 166.251 147.096C169.501 145.316 172.721 143.686 175.811 141.826C176.931 141.156 178.041 140.446 179.131 139.736C181.071 138.456 182.991 137.126 184.951 135.846C185.031 136.046 185.101 136.236 185.171 136.426C185.401 135.916 185.601 135.406 185.811 134.896C186.191 133.966 186.551 133.026 186.901 132.076C186.171 132.806 185.421 133.526 184.611 134.156C183.811 134.786 182.991 135.396 182.171 135.996C181.601 136.416 181.031 136.816 180.451 137.216C180.421 137.236 180.391 137.256 180.361 137.276C177.741 139.086 175.031 140.756 172.261 142.316C171.991 142.466 171.711 142.626 171.431 142.776C170.481 143.306 169.531 143.816 168.571 144.306C168.231 144.486 167.881 144.666 167.531 144.846C167.451 144.886 167.361 144.936 167.281 144.966C166.831 145.206 166.371 145.436 165.911 145.656C165.201 146.016 164.481 146.366 163.761 146.706C163.361 146.906 162.931 147.036 162.431 147.236C162.191 146.696 161.951 146.256 161.791 145.786C159.931 140.566 158.191 135.306 157.241 129.836C156.511 125.616 156.001 121.376 156.741 117.106C157.231 114.286 158.181 111.596 159.601 109.116C160.181 108.106 160.911 107.166 161.711 106.326C163.491 104.436 165.601 102.936 167.831 101.636C168.091 101.796 168.281 101.876 168.431 102.006C174.861 107.406 180.531 113.476 184.751 120.776C185.161 121.476 185.541 122.196 185.921 122.916C186.751 124.516 187.531 126.136 188.361 127.736C188.571 127.076 188.761 126.416 188.951 125.746C188.161 124.146 187.331 122.576 186.451 121.036C183.961 116.676 181.081 112.566 177.571 108.846C173.851 104.916 169.931 101.246 165.461 98.1857C160.641 94.8957 155.511 92.2757 149.721 91.1357C148.881 90.9757 148.051 90.7557 147.211 90.5557C146.241 86.0657 143.781 82.8557 139.461 81.2357C139.081 78.7857 138.841 76.3957 139.131 73.9657C139.771 73.9157 140.221 73.8857 140.681 73.8357ZM142.871 53.7157C140.251 53.7057 138.071 54.6857 136.701 56.9757C135.671 58.7057 134.851 60.5657 133.931 62.3657C132.221 61.9357 130.371 61.4757 128.481 60.9957C130.201 53.9657 132.281 46.9757 130.621 39.4457C131.941 38.9757 133.301 38.4757 134.681 38.0157C135.461 37.7557 135.941 38.2757 136.301 38.8557C137.141 40.1657 137.551 41.6357 137.611 43.1757C137.671 44.5357 137.631 45.9057 137.631 47.1957C139.171 45.1757 138.571 40.4957 136.331 37.5857C138.051 36.6757 139.111 36.8257 140.261 38.2757C141.591 39.9657 142.221 41.9257 142.191 44.0857C142.191 44.7157 142.191 45.3557 142.191 46.0957C143.881 43.9957 143.081 40.2957 140.171 36.7857C140.791 36.8157 141.281 36.7557 141.711 36.8857C146.521 38.3257 148.441 40.7757 148.171 45.6457C148.001 48.6157 146.901 51.3657 145.821 54.0757C144.691 53.9257 143.781 53.7257 142.881 53.7157H142.871ZM86.0811 182.156C83.3611 182.966 80.6311 183.716 77.9411 184.606C75.3111 185.466 72.6911 186.126 69.6011 185.536C75.1511 182.446 80.5811 179.776 86.8211 178.996C86.8911 179.216 86.9511 179.306 86.9511 179.396C86.9611 180.206 86.9611 181.006 86.9611 181.896C86.6411 181.986 86.3611 182.066 86.0811 182.156ZM86.9111 170.106C86.6011 170.686 86.2911 171.266 85.9611 171.836C85.3311 172.926 85.4411 173.946 86.1511 174.966C86.7111 175.786 87.1911 176.656 87.7611 177.586C85.9911 177.846 84.4611 178.066 82.8611 178.296C82.3511 177.076 83.3311 175.716 82.5211 174.426C81.6511 175.726 81.7511 177.116 81.6611 178.616C80.6411 178.966 79.7011 179.286 78.5611 179.676V175.826C77.6011 176.676 77.5211 176.986 77.3911 180.106C76.9311 180.316 76.4011 180.556 75.6111 180.916C75.6911 179.426 75.7511 178.166 75.8211 176.906C75.7211 176.876 75.6211 176.846 75.5111 176.816C75.3711 177.026 75.1611 177.226 75.1011 177.456C74.8811 178.346 74.5811 179.246 74.5811 180.136C74.5811 181.266 73.9711 181.736 73.0911 182.146C71.8511 182.726 70.6711 183.436 69.4111 183.976C67.2411 184.926 64.5511 183.486 64.2111 181.146C64.1211 180.536 64.4111 179.726 64.8011 179.216C65.3711 178.456 66.1111 177.766 66.9211 177.266C68.7211 176.146 70.5211 174.936 72.4711 174.146C77.4411 172.126 82.4811 170.306 87.8011 168.286C87.4211 169.056 87.1811 169.586 86.9111 170.106ZM98.9311 80.1857H96.6611C97.1311 79.4457 97.4711 78.9257 97.9111 78.2257C98.2611 78.9057 98.5311 79.4157 98.9311 80.1857ZM94.0511 67.0057C94.2811 67.2157 94.3911 67.6057 94.4911 67.9357C95.3011 70.5357 96.0911 73.1557 96.9111 75.7657C97.3311 77.1157 96.4611 79.0357 95.1711 79.5757C94.6111 79.8057 94.1011 79.8457 93.5811 79.2757C94.8411 74.3457 93.4011 69.4757 89.8611 66.6357C91.1211 66.0357 93.1611 66.1857 94.0511 67.0057ZM64.5011 114.746C64.6611 114.016 64.7311 113.256 65.0111 112.586C68.6411 103.926 74.1911 96.8457 82.2911 91.9257C83.5911 91.1357 84.9511 90.4357 86.2811 89.7057C87.0611 89.2857 87.9444 89.369 88.9311 89.9557C88.8011 90.9457 88.7711 92.0657 88.4911 93.1157C87.1511 98.0857 85.1911 102.826 82.8511 107.386C80.7511 111.496 78.2611 115.396 75.9411 119.386C75.8111 119.606 75.6511 119.796 75.4411 120.086C72.0311 117.736 68.2411 116.526 64.5011 114.746ZM99.1411 102.936C94.7311 115.106 90.8711 127.466 87.5811 139.986C87.5411 140.136 87.5011 140.286 87.4711 140.436C86.0011 147.376 81.5211 151.816 75.4111 154.856C73.8311 155.646 72.1211 156.176 70.4611 156.796C69.0911 157.316 68.0111 156.886 67.1111 155.756C65.5011 153.736 64.4611 151.446 63.7411 148.986C62.6811 145.366 62.0511 141.656 61.7411 137.916C61.6011 136.236 61.9411 134.466 62.3811 132.816C63.4011 128.936 64.6011 125.116 65.7611 121.276C66.1111 120.116 66.5411 118.966 66.9811 117.686C69.5911 118.746 72.1211 119.776 74.7911 120.866C74.5911 121.236 74.4311 121.586 74.2111 121.886C72.8811 123.756 71.4911 125.576 70.2211 127.466C65.5111 134.496 64.0311 142.156 65.8411 150.436C66.0511 151.366 66.0711 151.366 66.8811 151.996C67.4211 151.506 67.2411 150.906 67.1711 150.316C66.9411 148.296 66.5411 146.286 66.5411 144.266C66.5411 138.276 68.0911 132.706 71.6911 127.836C76.0111 121.976 79.9711 115.896 83.3611 109.446C85.7211 104.936 87.6911 100.266 89.2111 95.4057C89.7511 93.6957 90.0211 91.9657 89.7111 90.1557C89.6011 89.5457 89.4111 89.0957 88.9511 88.7557C88.3011 88.2657 87.6111 87.8357 86.9611 87.3457C85.4811 86.2057 83.9211 85.1357 82.5711 83.8457C80.9711 82.3257 80.4111 80.3657 80.7011 78.1357C81.0911 75.0457 82.3211 72.2857 83.8511 69.6257C83.9011 69.5357 83.9611 69.4557 84.0211 69.3657C85.9211 66.6457 89.1411 66.6257 91.1011 69.3557C92.1311 70.8057 92.5011 72.5157 92.7011 74.2257C92.8211 75.3257 92.8011 76.4657 92.6711 77.5757C92.5511 78.7057 91.6611 79.8257 91.0411 79.7557C89.9111 79.6057 89.6911 78.5957 89.5011 77.7357C89.1711 76.2457 89.0311 74.7257 88.7611 73.2257C88.6411 72.5657 88.4111 71.9157 88.2311 71.2657C88.0911 71.2757 87.9511 71.2857 87.8111 71.2957C87.7211 72.0457 87.6311 72.8057 87.5311 73.6657H84.3211C84.8211 74.8157 85.2011 74.9557 87.6711 74.9957C87.7311 75.3457 87.7811 75.7257 87.8611 76.1057C88.0411 76.9957 88.1511 77.9157 88.4511 78.7757C89.3311 81.2457 90.8511 81.6957 92.9911 80.1757C93.0911 80.1957 93.2211 80.1757 93.2711 80.2357C94.1811 81.1057 95.4011 80.2957 96.2911 80.7357C97.2811 81.2257 98.1611 81.4557 99.1711 81.0157C100.501 82.7857 101.721 84.5857 103.111 86.2457C104.501 87.8957 106.321 89.0357 108.471 89.9957C107.481 91.2757 106.581 92.4757 105.641 93.6557C105.331 94.0457 104.931 94.3757 104.561 94.7257C102.094 97.0257 100.288 99.7624 99.1411 102.936ZM116.811 105.646C115.951 109.326 115.741 113.066 115.711 116.826C115.711 116.976 115.651 117.126 115.591 117.446C115.301 117.106 115.101 116.866 114.891 116.626C113.641 115.156 112.501 113.576 111.111 112.266C108.131 109.446 104.791 109.636 101.411 112.436C101.001 112.776 100.621 113.166 99.9811 113.766C100.221 112.736 100.381 112.056 100.531 111.366C101.301 107.806 102.091 104.236 102.831 100.666C103.161 99.0457 103.631 97.6157 105.031 96.4957C107.011 94.9157 108.371 92.8357 109.131 90.2757C110.371 90.4857 111.471 90.6657 112.561 90.8557C113.071 92.9757 113.471 95.1257 114.111 97.1957C114.831 99.5657 115.781 101.866 116.601 104.206C116.761 104.656 116.921 105.206 116.811 105.646ZM123.511 106.766C121.801 106.596 120.111 106.296 118.401 106.046C117.931 105.986 117.631 105.796 117.841 105.076C119.531 105.226 121.271 105.466 123.011 105.516C124.731 105.556 126.471 105.526 128.171 105.326C129.921 105.126 131.641 104.686 133.531 104.326C133.401 104.956 133.291 105.496 133.161 106.136C129.961 106.576 126.761 107.086 123.511 106.766ZM139.601 90.0557C140.291 88.1057 140.671 86.1357 139.911 84.1057C139.791 83.7857 139.791 83.4257 139.691 82.7457C140.611 83.2857 141.371 83.6257 142.021 84.1157C145.001 86.3557 146.301 89.4457 146.401 93.0857C146.541 98.0557 146.651 103.026 146.761 107.996C146.791 109.306 146.771 110.616 146.771 112.106C145.801 111.416 145.001 110.786 144.151 110.256C141.461 108.606 139.181 108.666 136.671 110.566C135.631 111.356 134.751 112.366 133.811 113.296C133.501 113.596 133.221 113.946 132.701 114.176C133.151 111.596 133.611 109.026 134.051 106.446C134.881 101.556 136.791 97.0157 138.651 92.4657C138.981 91.6657 139.311 90.8657 139.601 90.0557Z" fill="black"/>
<defs>
<linearGradient id="paint0_linear_2310_99580" x1="0" y1="97.8677" x2="192.622" y2="97.8677" gradientUnits="userSpaceOnUse">
<stop stop-color="#EE882C"/>
<stop offset="0.16" stop-color="#EF8F28"/>
<stop offset="0.42" stop-color="#F2A51F"/>
<stop offset="0.73" stop-color="#F8C80F"/>
<stop offset="1" stop-color="#FFED00"/>
</linearGradient>
<linearGradient id="paint1_linear_2310_99580" x1="0" y1="97.8661" x2="192.61" y2="97.8661" gradientUnits="userSpaceOnUse">
<stop stop-color="#0ABBEF"/>
<stop offset="0.24" stop-color="#0D9ACF"/>
<stop offset="0.76" stop-color="#14598E"/>
<stop offset="1" stop-color="#174075"/>
</linearGradient>
<linearGradient id="paint2_linear_2310_99580" x1="0" y1="97.8728" x2="192.622" y2="97.8728" gradientUnits="userSpaceOnUse">
<stop stop-color="#76B82A"/>
<stop offset="0.58" stop-color="#5B8D2B"/>
<stop offset="1" stop-color="#4C742C"/>
</linearGradient>
<linearGradient id="paint3_linear_2310_99580" x1="0" y1="97.9162" x2="192.622" y2="97.9162" gradientUnits="userSpaceOnUse">
<stop stop-color="#0ABBEF"/>
<stop offset="0.24" stop-color="#0D9ACF"/>
<stop offset="0.76" stop-color="#14598E"/>
<stop offset="1" stop-color="#174075"/>
</linearGradient>
<linearGradient id="paint4_linear_2310_99580" x1="0" y1="97.8569" x2="192.625" y2="97.8569" gradientUnits="userSpaceOnUse">
<stop stop-color="#0ABBEF"/>
<stop offset="0.24" stop-color="#0D9ACF"/>
<stop offset="0.76" stop-color="#14598E"/>
<stop offset="1" stop-color="#174075"/>
</linearGradient>
<linearGradient id="paint5_linear_2310_99580" x1="-0.0293057" y1="97.8829" x2="192.597" y2="97.8829" gradientUnits="userSpaceOnUse">
<stop stop-color="#ED6C2E"/>
<stop offset="0.05" stop-color="#EB6B2C"/>
<stop offset="1" stop-color="#D2681A"/>
</linearGradient>
<linearGradient id="paint6_linear_2310_99580" x1="0" y1="97.8614" x2="192.646" y2="97.8614" gradientUnits="userSpaceOnUse">
<stop stop-color="#76B82A"/>
<stop offset="0.58" stop-color="#5B8D2B"/>
<stop offset="1" stop-color="#4C742C"/>
</linearGradient>
<linearGradient id="paint7_linear_2310_99580" x1="0" y1="97.8226" x2="192.622" y2="97.8226" gradientUnits="userSpaceOnUse">
<stop stop-color="#76B82A"/>
<stop offset="0.58" stop-color="#5B8D2B"/>
<stop offset="1" stop-color="#4C742C"/>
</linearGradient>
<linearGradient id="paint8_linear_2310_99580" x1="-0.0977544" y1="97.9111" x2="192.576" y2="97.9111" gradientUnits="userSpaceOnUse">
<stop stop-color="#ED6C2E"/>
<stop offset="0.05" stop-color="#EB6B2C"/>
<stop offset="1" stop-color="#D2681A"/>
</linearGradient>
<linearGradient id="paint9_linear_2310_99580" x1="0.0528951" y1="97.8964" x2="192.622" y2="97.8964" gradientUnits="userSpaceOnUse">
<stop stop-color="#0ABBEF"/>
<stop offset="0.24" stop-color="#0D9ACF"/>
<stop offset="0.76" stop-color="#14598E"/>
<stop offset="1" stop-color="#174075"/>
</linearGradient>
<linearGradient id="paint10_linear_2310_99580" x1="0.110957" y1="97.9417" x2="192.733" y2="97.9417" gradientUnits="userSpaceOnUse">
<stop stop-color="#0ABBEF"/>
<stop offset="0.24" stop-color="#0D9ACF"/>
<stop offset="0.76" stop-color="#14598E"/>
<stop offset="1" stop-color="#174075"/>
</linearGradient>
</defs>
</svg>
