<svg width="189" height="207" fill="none" xmlns="http://www.w3.org/2000/svg"><g clip-path="url(#a)"><path d="M184.551 99.79v.761a87.868 87.868 0 0 1-.52 8.52c-.28 2.57-.67 5.1-1.17 7.6a87.43 87.43 0 0 1-1.66 6.93c-.27.97-.57 1.92-.87 2.87a87.526 87.526 0 0 1-6.25 14.76c-1.17 2.2-2.43 4.34-3.78 6.41l-.02.02c-11.08 17.07-27.87 30.07-47.65 36.28-.48.15-.96.29-1.45.44a87.957 87.957 0 0 1-24.11 3.58h-.93a87.797 87.797 0 0 1-30.4-5.43 87.964 87.964 0 0 1-29.11-17.81c-.97-.88-1.92-1.79-2.83-2.72a88.487 88.487 0 0 1-20.27-31.56c-.57-1.5-1.09-3.02-1.57-4.55-.22-.69-.42-1.38-.62-2.07-.1-.33-.19-.65-.27-.99-.1-.33-.18-.65-.27-.98-.12-.42-.22-.85-.32-1.28-.16-.63-.3-1.28-.44-1.91-.17-.78-.33-1.57-.48-2.36-.73-3.76-1.23-7.61-1.47-11.53-.07-1.22-.12-2.45-.14-3.68a89.026 89.026 0 0 1 3.97-28.15A88.521 88.521 0 0 1 27.28 44c.01-.01.02-.03.03-.04.77-.97 1.57-1.92 2.38-2.85a87.04 87.04 0 0 1 3.32-3.61c.02-.02.04-.05.07-.07 0 0 .01-.02.02-.03.92-.94 1.86-1.87 2.82-2.77 0 0 .01 0 .01-.02h.01a89.86 89.86 0 0 1 9.14-7.49c1.41-1.02 2.86-1.98 4.34-2.91 1.4-.88 2.82-1.72 4.28-2.52l.27-.15c.06-.04.12-.07.18-.1 1.29-.7 2.6-1.38 3.92-2.01.13-.06.26-.12.38-.18a87.5 87.5 0 0 1 33.56-8.39c1.4-.07 2.81-.1 4.22-.1.71 0 1.42 0 2.12.03 3.7.08 7.33.4 10.9.93 8.73 1.3 17.05 3.87 24.76 7.54 14.2 6.75 26.33 17.19 35.14 30.09a88.58 88.58 0 0 1 7.63 13.63 87.76 87.76 0 0 1 4.45 12.23c1.78 6.3 2.88 12.88 3.21 19.67.07 1.25.1 2.52.11 3.78v1.14-.01z" fill="url(#b)"/><path d="M184.39 105.18h.16s-.14 1.1-.38 2.89c-.33 3.58-.88 7.1-1.63 10.54v.05c-.37 1.68-.78 3.35-1.25 5-.27.97-.55 1.92-.86 2.87a88.14 88.14 0 0 1-6.25 14.82c-1 1.87-2.07 3.7-3.2 5.49a88.62 88.62 0 0 1-32.38 30.43 90.283 90.283 0 0 1-15.98 6.68c-.48.15-.96.29-1.45.44a90.324 90.324 0 0 1-24.11 3.58H95.13c-.43 0-.85-.01-1.28-.02h-.21c-1.16-.03-2.32-.08-3.47-.16-6.27-.4-12.37-1.45-18.21-3.1-.46-.13-.92-.27-1.38-.4-.53-.16-1.06-.32-1.58-.49-.35-.12-.69-.23-1.03-.34-.76-.25-1.51-.52-2.26-.79a87.87 87.87 0 0 1-26.92-15.75c-.73-.62-1.45-1.25-2.15-1.9-.95-.86-1.88-1.75-2.79-2.67a87.857 87.857 0 0 1-20.52-31.97c.05.02.11.04.16.07-.55-1.49-1.07-3.01-1.54-4.54-.05-.02-.1-.03-.14-.05-.19-.62-.38-1.24-.55-1.87l.09-.14.23-.38.04-.44 1.98-20.18 2.96-30.13.68-6.98.3-3.05 4.49-10.06 8.74-1.39 2.08-.33h.08l16.98-2.71 6.83-1.09.44-.07 12.04-1.92c2.56-.41 5 1.19 5.66 3.7l2.8 10.72.6 2.33 4.15 15.89s6.71-1.87 7.81-2.51c.14-.08.18-.14.12-.17-.24-.13-1.68-5.97-3.29-12.68-1.21-5.08-2.5-10.65-3.42-14.61-.66-2.87 1.28-5.7 4.2-6.11l5.44-.76 9.65-1.36 14.82-2.08 5.05-.71 4.03-.56 2.3-.33 6.21-.87 4.21-.59 2.83 7.9 8.05 22.45 5.68 15.84 4.03 11.24 24.29 3.03h.02c.07 1.26.1 2.52.11 3.79v1.9c0 1.55-.06 3.1-.16 4.62l-.02-.01z" fill="#174075"/><path d="M184.55 105.18s-.14 1.1-.38 2.89c-.04.31-.1.65-.14 1.01-.29 2.04-.69 4.7-1.17 7.6-.1.63-.21 1.28-.32 1.93v.05c-.37 1.68-.78 3.35-1.25 5-.27.97-.55 1.92-.86 2.87a88.14 88.14 0 0 1-6.25 14.82c-1 1.87-2.07 3.7-3.2 5.49-.25.29-.47.56-.68.81l-.02.02c-.9 1.06-1.49 1.68-1.49 1.68s-3.77-6.43-4.98-8.3c-.2-.32-.34-.5-.37-.5-.05 0-.16-.01-.31-.04-.48-.08-1.34-.25-1.34-.25-.06 0-.12 0-.18-.01-2.13-.21-22.86-2.22-30.49-3.29-.1-.01-.19-.03-.29-.04-.7-.1-1.28-.19-1.7-.27-.03 0-.05 0-.07-.01-3.14-.6-5.76-1.28-7.48-2.27-1.06-.61-1.77-1.34-2.05-2.25-.11-.34-.24-.73-.38-1.15-.85-2.45-2.23-5.78-2.23-5.78l-2.01-5.02s1.55-.89 3.68-2.09c.06-.03.12-.07.18-.1 2.97-1.68 7-3.93 9.66-5.28.16-.08.31-.16.48-.24.46-.24.87-.44 1.21-.59.08-.03.16-.07.25-.12.03-.01.07-.03.11-.05 2.43-1.07 7.44-3.1 10.96-4.51h.02c.76-.3 1.45-.57 2.02-.8 1.13-.45 1.84-.73 1.84-.73l2.63-.2 12.76-1 2.61-.2 1.26-.1.74-.05.68.05 14.79.99 3.6.06h.18l-.02-.03z" fill="url(#c)"/><path d="M174.17 141.35c-1 1.87-2.07 3.7-3.2 5.49-.25.29-.47.56-.68.81l-.02.02c-.9 1.06-1.49 1.68-1.49 1.68s-3.77-6.43-4.98-8.3c-.2-.32-.34-.5-.37-.5-.05 0-.16-.01-.31-.04-.48-.08-1.34-.25-1.34-.25-.06 0-.12 0-.18-.01-2.13-.21-22.86-2.22-30.49-3.29-.1-.01-.19-.03-.29-.04-.7-.1-1.28-.19-1.7-.27-.03 0-.05 0-.07-.01-3.14-.6-5.76-1.28-7.48-2.27-1.06-.61-1.77-1.34-2.05-2.25-.11-.34-.24-.73-.38-1.15-.85-2.45-2.23-5.78-2.23-5.78l-2.01-5.02s1.55-.89 3.68-2.09c.06-.03.12-.07.18-.1 2.97-1.68 7-3.93 9.66-5.28.16-.08.31-.16.48-.24.46-.24.87-.44 1.21-.59.08-.03.16-.07.25-.12.03-.01.07-.03.11-.05 2.43-1.07 7.44-3.1 10.96-4.51h.02c.76-.3 1.45-.57 2.02-.8 1.13-.45 1.84-.73 1.84-.73l2.63-.2c4 1.79 7.8 4.02 11.31 6.63l1.06 3.35-13.65-2.73c-.68-.13-1.37-.27-2.05-.16-.02 0-.03 0-.05.01-.96.16-1.78.76-2.57 1.33a49.279 49.279 0 0 1-11.95 6.23c.67-1.1 1.34-2.19 2.01-3.29-2.63 1.4-5.26 2.8-7.9 4.19 1.47 2.85 1.29 6.64 3.74 8.71 1.42 1.2 3.38 1.48 5.22 1.64 4.93.43 9.89.35 14.81-.22 4.75-.57 9.45-1.6 14.22-1.89.44-.03.9-.05 1.3.13.4.16.7.5.99.83 1.26 1.4 2.52 2.81 3.77 4.21 2 2.24 4.01 4.5 5.89 6.83.03.03.07.08.1.11l-.02-.02z" fill="#174075"/><path d="m134.19 179.24-4.12 1.21-14.31 4.21-6.26 1.84-10.62-27.4-5.46.59h-.09l-.35.39-.03.06-.68 1.52-3.44 9.88v.01l-2.98 8.58s-8.35.12-14.71-1.58c-6.37-1.7-8.99-5.3-8.99-5.3l1.36-6.25 1.07-4.91.1-.44-3.92.34c-.8.07-15.66.77-15.66.77s-.5-1.02-.55-4.86c-.05-3.85-4.3-17.76-4.3-17.76l28.56-15.44 4.68-1.27.55-.82 3.15-4.69 1.3-1.94s.1-.13.31-.35c1.12-1.22 5.09-5.14 10.38-5.57 6.27-.51 7.54 1.23 8.44 1.9.9.67 2.09 6.21 2.28 10 .07 1.38-.14 3.18-.43 4.91 0 0-.01.01 0 .02-.07.45-.16.9-.25 1.33-.48 2.45-1.04 4.48-1.04 4.48l1.5.48s7.67-.14 10.43.14 3.84 2.79 5.23 3.84c1.4 1.04 8.34 17.54 8.34 17.54l10.53 24.53-.02.01z" fill="url(#d)"/><path d="m134.19 179.241-4.12 1.21c-.77-1.96-1.54-3.93-2.3-5.88-3.85-9.82-7.71-19.67-12.74-28.94-1.77-3.25-3.87-6.61-7.21-8.21-3.28-1.57-7.08-1.13-10.71-.49-.35.06-.7.13-1.04.19l2.72-7.73.41-1.17c-.48 2.45-1.04 4.48-1.04 4.48l1.5.48s7.67-.14 10.43.14 3.84 2.79 5.23 3.84c1.4 1.04 8.34 17.54 8.34 17.54l10.53 24.53v.01z" fill="#fff"/><path d="m115.76 184.67-6.26 1.84-10.62-27.4-5.46.59c-.08.39-.17.77-.26 1.15-.08-.23-.14-.46-.2-.7-.05-.19-.11-.39-.16-.58l3.18-17c.03.12.07.25.1.37.47 1.79.8 3.59.99 5.43 1.75-1.35 3.17-3.12 4.1-5.13 1.04 2.09 1.39 4.51.98 6.81.53-.52.78-1.27 1.28-1.83.49-.56 1.47-.86 1.95-.29.2.23.26.54.29.84a6.45 6.45 0 0 1-.55 3.36c.34-.61.88-1.09 1.51-1.37.21-.1.46-.16.68-.1.48.14.59.77.58 1.28-.03 1.55-.26 3.09-.68 4.58-.28.99-.65 2.01-.47 3.03.09.53.32 1.02.55 1.51 3.5 7.6 6.04 15.61 8.48 23.62l-.01-.01z" fill="#174075"/><path d="m34.76 33.74-.01.01.01-.01zM32.04 36.42l-.05.06s0 .01-.01.02l.05-.04.02-.03-.01-.01zM10.41 123.581s-.01-.04-.02-.06l.02.07v-.01zM34.71 33.79c-.09.09-.17.19-.23.3-.02.04-.04.08-.06.11-.05.09-.09.17-.12.26-.01.04-.02.08-.04.12-.06.21-.08.39-.08.54l.6-1.37-.05.02s-.01.02-.02.03v-.01z" fill="#000"/><path d="M184.31 90.4c-.31-3.12-.81-6.22-1.41-9.3a84.13 84.13 0 0 0-2.35-9.12c-.93-2.95-1.98-5.86-3.19-8.72l-.06-.15a88.566 88.566 0 0 0-8.62-15.6c-3.38-4.92-7.26-9.5-11.56-13.67-8.59-8.36-19.01-14.91-30.32-19.09-11.33-4.17-23.52-5.96-35.59-5.32-12.06.66-24.01 3.77-34.8 9.2l.94-.22h-.01l-.93.22c-2.06.97-3.88 2.15-5.79 3.23-.94.56-1.91 1.07-2.82 1.68-.92.6-1.84 1.21-2.74 1.84-3.4 2.38-6.63 4.99-9.68 7.81h-.04l-.5.5-.02.02-.03.02s.03-.02.04-.03l-.02.04 1.32-.55-1.93 1.94c0-.17.03-.36.09-.55 0-.03.01-.05.02-.08 0-.01.01-.02.02-.03.03-.09.07-.17.12-.26.02-.04.04-.08.06-.11.07-.11.15-.21.23-.3.01-.01.02-.03.04-.05l-2.71 2.66c.02-.01.03-.03.05-.04l-.08.07-.33.46c.07-.15.17-.29.28-.42l-.05.05-2.92 3.2c-.49.53-.97 1.06-1.42 1.63l-1.31 1.59-.03.03-.05.06c-6.26 7.82-11.15 16.71-14.44 26.13-.01.03-.02.06-.03.1-3 8.54-4.57 17.53-4.82 26.52-.12 4.51.07 9.03.61 13.51s1.4 8.89 2.63 13.26l-.02-.06c.08.32.18.66.29 1.01 5.43 19.04 17.19 35.96 32.91 47.89 7.83 5.99 16.67 10.71 26.09 13.84 9.41 3.11 19.37 4.72 29.34 4.53 9.96-.16 19.92-2.05 29.24-5.61 9.34-3.53 18-8.75 25.54-15.22 15.06-13.01 25.4-31.02 29.33-50.22v-.07l.01-.05v.06c.62-3.11 1.12-6.24 1.45-9.39.09-.79.15-1.58.2-2.37.05-.79.14-1.58.14-2.37.04-1.58.12-3.16.12-4.75-.03-3.13-.11-6.27-.45-9.39l-.04.01zM35.94 33.18c.07 0 .14-.01.2-.02h-.01l-.18.02h-.01zm-21.39 35.6c.05.08.12.16.21.4.03.08.05.17.07.26.02.13.03.29.02.44-.01.13-.05.25-.09.38l-.36-1.65c.06.07.09.1.15.17zm.2 1.49c-.03.08-.06.16-.11.24-.1.19-.32.41-.43.49-.12.09-.3.18-.4.22-.08.03-.16.05-.25.07-.16.03-.19.03-.3.03l1.48-1.05h.01zm169.44 34.25c-.01.79-.11 1.57-.16 2.36-.06.79-.12 1.57-.22 2.35-.35 3.13-.85 6.25-1.57 9.32v.07l-.01.05v-.07c-2.19 9.49-6.01 18.59-11.32 26.69-5.16 8.19-11.8 15.38-19.31 21.37-7.54 5.95-15.96 10.76-24.94 14.07-4.49 1.66-9.1 2.97-13.79 3.91-4.7.89-9.46 1.49-14.25 1.65-9.57.37-19.23-.75-28.47-3.5-9.23-2.74-18.05-6.99-25.91-12.66a85.361 85.361 0 0 1-20.23-20.7c-2.74-4-5.15-8.23-7.18-12.63-1-2.21-1.91-4.46-2.74-6.73-.74-2.29-1.58-4.61-2.15-6.91l-.02-.07c-.08-.28-.15-.58-.23-.89l-.02-.06a86.43 86.43 0 0 1-2.2-13.01c-.4-4.39-.48-8.8-.21-13.19.51-8.78 2.41-17.45 5.48-25.63v-.01c1.68-4.51 3.75-8.87 6.16-13.02 2.4-4.15 5.16-8.07 8.19-11.78l.04-.05 1.34-1.58c.44-.54.91-1.04 1.38-1.54l2.83-3.03-.18.16.17-.16.12-.12c.14-.15.26-.32.35-.49l-.35.5 2.44-2.34.28-.27v-.01c3.08-2.82 6.37-5.43 9.82-7.77.87-.59 1.75-1.16 2.64-1.72.88-.57 1.83-1.05 2.74-1.58 1.84-1.02 3.66-2.15 5.51-2.99l-.93.21h.01l.94-.23c10.36-5 21.68-7.98 33.17-8.58 11.48-.67 23.09.91 33.95 4.73 10.88 3.78 21.01 9.73 29.74 17.37 8.69 7.63 15.89 17.05 20.95 27.58l.04.09c1.33 2.8 2.55 5.67 3.56 8.61 1.02 2.94 1.87 5.94 2.56 8.98.7 3.04 1.2 6.12 1.54 9.22.37 3.1.48 6.22.54 9.34-.02 1.57-.11 3.15-.16 4.73l.06-.04z" fill="#000"/><path d="m146.56 73.54-.95 2.79s3.11 7.37 3.79 8.2c.68.83 3.94 10.68 3.94 10.68l1.19 4.36-4.75-.23-34.27-1.66-1.17-3.14-6.29-17.01s-.28.11-.75.29c-2.55.99-10.77 4.18-12.21 4.72-.48.18-.99.26-1.47.28-1.24.05-2.32-.28-2.32-.28l.98-2.24-5.67-11.09v-5.92c0-3.11 3.83-8.47 4.77-10.27.94-1.8 11.16-3.81 11.44-3.85.29-.03 8.01.33 8.01.33l1.51 1.19 12.4 9.74 2.78-11.76 5-3.11 1.22-.76s2.84-1.02 4.22-1.8 3.5-.53 4.9-.55c1.39-.03 3.62 2.3 4.32 3.03.7.72 9.98 13.51 9.98 13.51s-1.05 1.15-2.15 2.28c-.74.76-1.49 1.51-1.96 1.92-1.17 1-5.31 2.93-5.31 2.93l-.69 5.93-.51 1.49h.02z" fill="#A25A9F"/><path d="M157.171 58.99s-1.05 1.15-2.15 2.28a62.788 62.788 0 0 0-4.49-9.08c-1.08-1.8-2.261-3.57-3.801-4.98-1.55-1.42-3.499-2.47-5.599-2.61-3.05-.2-5.86 1.49-8.58 2.9l-.03-1.94 1.22-.76s2.84-1.02 4.22-1.8 3.5-.53 4.9-.55c1.39-.03 3.619 2.3 4.319 3.03.7.72 9.981 13.51 9.981 13.51h.01z" fill="#501D50"/><path d="M188.17 42.25c-.32 1.6-1.06 5.05-3.64 6.48-2.58 1.44-5.83 2.3-5.83 2.3l-.65.78s-2 18.17-4.28 23.74c-2.27 5.58-5.43 9.13-7.11 9.06-1.68-.07-7.79-2.18-7.79-2.18l-8.07-5.35-4.01-3.2 1-8.05c1.1-.58 2.19-1.21 3.25-1.89 2.09-1.32 4.1-2.82 6.08-4.47l5.56 8.34 1.06 1.6.03.04s3.27-7.47 3.56-8.65c.29-1.19 1.05-13.21 2.88-14.07 1.83-.85 6.12-1.66 6.12-1.66l.1-3.15s1.23-5.63 1.8-5.69c.57-.05.83 0 .83 0l.85 2.4v.44s1.69-1.55 1.99-1.53c.3.03.74 1.34.74 1.34s.29-.19.63-.41c.42-.26.93-.55 1.1-.55.31 0 1.13.44 1.16.49.03.06.63 1.4.63 1.4l.39-.63 1.38-.55s.58 2.02.26 3.61l-.02.01z" fill="#fff"/><path d="M188.17 42.25c-.32 1.6-1.06 5.05-3.64 6.48-2.58 1.44-5.83 2.3-5.83 2.3l-.65.78s-2 18.17-4.28 23.74c-2.27 5.58-5.43 9.13-7.11 9.06-1.68-.07-7.79-2.18-7.79-2.18l-8.07-5.35-4.01-3.2 1-8.05c1.1-.58 2.19-1.21 3.25-1.89l.03.43c2.35 4.07 5.33 7.78 8.78 10.97 1.41 1.3 3.11 2.59 5.03 2.49 1.36-.07 2.62-.87 3.49-1.93.87-1.05 1.42-2.34 1.85-3.64 2.27-6.75 2-14.05 2.95-21.11.06-.47.14-.96.44-1.33.63-.78 1.81-.62 2.82-.68 1.79-.1 3.43-1.13 4.57-2.51.98-1.19 1.76-5.82 2.26-8.17.42-.26.93-.55 1.1-.55.31 0 1.13.44 1.16.49.03.06.63 1.4.63 1.4l.39-.63 1.38-.55s.58 2.02.26 3.61l-.01.02z" fill="#F4C6CC"/><path d="m145.87 106.6-11.83 5.8-18.72 9.18s-1.16-.7-1.59-1.01c-.43-.31-1.76-2.41-2.16-3.59-.4-1.19-2.9-1.32-2.9-1.32l1.44-2.13s-2.56-2.41-3.63-3.93c-.33-.48-.74-1.89-1.14-3.59-.85-3.66-1.66-8.68-1.66-8.68l12.79 1.49 6.93.8 19.52.72.25.53 2.69 5.72.01.01z" fill="#A25A9F"/><path d="M149.05 106.99c-.16.61-.74 1.02-1.28 1.34-1.21.71-2.49 1.25-3.77 1.8-1.81.76-3.65 1.51-5.57 1.91-1.45.3-2.92.4-4.39.36-.3 0-.61-.01-.91-.03-4.02-.2-7.96-1.18-11.94-1.76-2.93-.42-5.91-.64-8.8-1.32-2.54-.61-5.06-1.6-7.06-3.27-.85-3.66-1.66-8.68-1.66-8.68l12.79 1.49c3.46 1.19 7.26 1.55 10.95 1.6 5.26.07 10.55-.38 15.74.45h.01c1.23.2 2.51.49 3.52 1.23 1.17.86 1.85 2.24 2.26 3.63.11.41.2.84.1 1.25h.01z" fill="#501D50"/><path d="M136.681 47.03c.24.04.31.04.14.05-.05 0-.1-.01-.14-.05z" fill="#D2681A"/><path d="M144.761 37.9s0-2.24.08-2.93c.09-.68-.53-1.04-1.05-1.6s-2.09-.38-3.56-.27c-.3.02-.54-.06-.72-.22-.71-.61-.64-2.28-.55-2.78.11-.64.98-2.87.48-3.85s-2.8-1.92-3.72-1.85c-.91.05-1.88-2.48-1.92-3.25-.04-.77.29-4.38-.44-6.46-.72-2.07-3.76-1.49-5.75-2.05-1.99-.57-1.72-5.01-3.28-8.26-1.56-3.25-5.24-2.99-7.12-3.92-1.64-.8-6.12 1.45-7.25 2.04-.16.09-.26.14-.26.14-.01 0-.03 0-.05-.01-2.24-.7-4.62-.85-6.97-.85-.99 0-1.99.03-2.94.32-1.21.36-2.26 1.11-3.19 1.96-3.91 3.62-5.61 9.46-4.27 14.61.24.92.56 1.93.12 2.78-.42.81-1.39 1.16-2.04 1.81-1.16 1.16-1.07 3.09-.49 4.62.58 1.53 1.57 2.9 2.03 4.47.33 1.12.29 2.45-.26 3.42-.22.4-.52.74-.92.99-.55.33-1.21.46-1.71.87-.85.69-.97 1.93-1.02 3.02-.03.65-.05 1.32.18 1.94.29.73.9 1.27 1.36 1.91.46.63.68 1.68.25 2.33-.86.33-1.77 1.13-1.73 1.64.1 1.01.88 1.81 1.6 2.52l1.26 1.23c.15.15.31.3.51.36.33.1.67-.07.98-.23 4.9-2.6 11.15-3.39 16.69-3.01 1.45.1 2.31-.12 3.7-.52 1.9-.54 3.35-2.13 4.15-3.93.8-1.79 1.02-3.79 1.13-5.76.14-2.57.11-5.14-.02-7.71.99 1.58 3.74 2.61 4.17 3.38.5.91.72 4.23.49 5.11-.23.88-.42 2.47-.14 3.49.29 1.02 3.75 2.07 3.75 2.07s1.15 1.14 1.2 1.33c.05.2-.14 1.46 1.28 2.71s3.18-.91 3.18-.91.05-.51.95-.23c.9.29 2.46.57 2.46.57s.31-.6-1.23-1.28c-1.43-.64-1.75-1.45-1.78-1.55.65.98 2.43.31 2.43.31.79.39 1.5.55 1.85.61-.28-.24-.28-1.24-.49-1.71-.23-.54-1.61-.63-1.61-.63l2.86-1.41s2.35-.8 4.04-.89c1.69-.1 4.43 1.45 4.43 1.45l.29-.74c.31-1.19-1.44-5.2-1.44-5.2h.02zm-26.91-9.75c-.16-2.03-.36-4.05-.57-6.07.1.09.15.16.16.19.03.23.79 2.08.8 3.53 0 .81-.22 1.51-.39 2.35z" fill="#D2681A"/><path d="m68.86 138.221.33-.03-1.88 10.75-1.48 7.28-1.15 5.45-3.92.34c-.8.07-15.66.77-15.66.77s-.5-1.02-.55-4.86c-.05-3.85-4.3-17.76-4.3-17.76l28.56-15.44 4.68-1.27.55-.82.35-.03a97.019 97.019 0 0 0-5.52 15.63l-.01-.01z" fill="#174075"/><path d="M32.51 62.41s4.94.64 7.15.55c2.21-.09 12.88-2.54 12.88-2.54l21.16 54.9-17.42 6.39-12.19-2.3" fill="#76B82A"/><path d="M50.37 121.791s-2.22 14.47-2.45 14.54c-.23.08-5.09 1.64-6.89 3.82 0 0-1.34-3.49-3.74-6.06-2.41-2.57-4.79-4.75-4.79-4.75l-15.28-18.49.12-3.38.13-3.74s-.1-.01-.14-.02c-3-.4-6.63-1.64-9.48-2.77-2.81-1.1-4.88-2.11-4.88-2.11S1.1 97.51.73 96.8c-.37-.72 3.05-13.73 4.32-15.94 1.28-2.21 12.89-15.85 12.89-15.85l9.03-7.08h.02s.94-2.26 1.73-3.97c.78-1.71 4.11-4.45 4.11-4.45l.18 3.14s.08 8.95-.18 12.24c-.2 2.4 1.58 9.42 2.55 13.02l.61.35 14.38 43.51v.02zM92.79 80.62s-2.09 2.44-5.01 4.02c-.13.07-.25.14-.38.2-2.81 1.51-5.72 3.01-5.72 3.01l.72 11.63-12.17 13.001-13.3-33.48s-6.21-13.98-6.22-16.79c0-2.81-.55-5.24-.55-5.24l-.35-4.05v-1.37h4.24l7.76 4.93s.05-.01.13-.04c.74-.2 4.6-1.13 9.22.04 5.16 1.3 9.12 4.51 14.64 12.02 5.52 7.52 7 12.12 7 12.12h-.01z" fill="#fff"/><path d="m67.05 177.21-1.33 5.34 12.05 2.83 1.31-5.23s-10.83-1.54-12.03-3.16" fill="#F4C6CC"/><path d="M52.46 67.47c2.7-2.64 5.66-4.78 8.8-6.87.14-.1.3-.19.47-.22.12-.02.24 0 .36.03 1.19.24 2.36.61 3.46 1.12-2.93 2.47-5.94 4.97-9.51 6.36-.98.38-2 .68-2.9 1.23M28.06 67.36c-.31.86-.69 1.69-1.13 2.48 2.31.08 4.62.1 6.93.06l-.75-2.37c-.13-.39-.25-.84-.06-1.21-.5.33-1.05.59-1.63.75M26.97 57.94l-.49 2.03c-2.95 3.14-5.89 6.29-8.43 9.76-6.56 8.99-10.18 20.09-10.21 31.22-2.81-1.1-4.88-2.11-4.88-2.11S1.09 97.52.72 96.81c-.37-.72 3.05-13.73 4.32-15.94 1.28-2.21 12.89-15.85 12.89-15.85l9.03-7.08h.01zM25.39 106.08c-2.47 1.25-5.3 1.72-8.05 1.4l.13-3.74s-.1-.01-.14-.02l.06-.03c1.18-.01 2.36-.03 3.54-.03.08 0 .17 0 .23-.05.08-.06.11-.16.14-.27 1.3-5.69 1.94-11.55 1.9-17.39 1.73 6.54 1.97 13.37 2.2 20.13h-.01zM92.79 80.62s-2.09 2.44-5.01 4.02c-.13.07-.25.14-.38.2-1.15-4.92-2.89-9.7-5.58-13.96-3.29-5.22-8.09-9.61-13.89-11.71-1.43-.51-2.9-.89-4.41-1l-1.59-1.73c.74-.2 4.6-1.13 9.22.04 5.16 1.3 9.12 4.51 14.64 12.02 5.52 7.52 7 12.12 7 12.12z" fill="#76B82A"/><path d="M97.2 105.95c-.91 1.04-3.81 3.9-3.81 3.9s-7.77-.46-11 2.11c-2.86 2.3-7.13 9.06-8.05 10.56-.12.19-.18.29-.18.29s-3.53 1.67-3.66 1.64c-.13-.02-1.5.25-1.5.25s.2.43.3 1.06c.1.61.09 1.42-.3 2.2-.54 1.08-1.62 2.4-2.25 3.14 0 0-.07.09-.1.12-.24.28-.4.44-.4.44s.85.18-.99 2.41c-1.03 1.25-2.15 1.76-2.95 1.96-.61.16-1.02.13-1.02.13s-1.23 1.24-2.69.99c0 0-.4.2-1 .45-1.17.48-3.13 1.17-4.53 1.06-2.13-.18-4.78-2.9-4.78-2.9l-6.09-5.13s-35.1-8.05-37.78-10.64c-2.68-2.6-3.89-4.23-3.38-6.23.5-2 2.88-14.48 2.88-14.48l7.82 2.57 5.71 1.88-.25 7.11 18.7 6.18s6.64 4.59 8.69 4.34c2.05-.26 7.08-3.42 9.25-2.99 2.17.43 4.81 1.64 4.81 1.64s1.88-3.28 2.32-3.71c.44-.44 6.21-1.66 6.21-1.66l3.96-3.15 11.25-12.02-1.36-11.78s3.23-1.19 5.71-2.5c.27-.14.54-.29.78-.43l2.51-1.47s2.34 2.51 3.36 5c1.02 2.5 4.23 8.94 4.34 11.65.12 2.7.38 4.96-.53 5.99v.02z" fill="#F4C6CC"/><path d="M97.2 105.95c-.91 1.04-3.81 3.9-3.81 3.9s-7.77-.46-11 2.11c-2.86 2.3-7.13 9.06-8.05 10.56-3.55.85-6.98 1.97-9.85 4.17-.21.16-.45.34-.72.34-.29 0-.54-.21-.76-.41-.49-.46-.98-.92-1.48-1.38-.19-1.63 1.58-2.73 3.05-3.44a68.58 68.58 0 0 0 23.02-18.17c1.19-1.45 2.35-3 2.88-4.8.75-2.54.19-5.28-.82-7.73-.83-2.04-1.96-3.93-2.95-5.9.27-.14.54-.29.78-.43L90 83.3s2.34 2.51 3.36 5c1.02 2.5 4.23 8.94 4.34 11.65.12 2.7.38 4.96-.53 5.99l.03.01zM57.61 137.63c-1.17.48-3.13 1.17-4.53 1.06-2.13-.18-4.78-2.9-4.78-2.9l-6.09-5.13s-35.1-8.05-37.78-10.64c-2.68-2.6-3.89-4.23-3.38-6.23.5-2 2.88-14.48 2.88-14.48l7.82 2.57c-.61 2.39-1.1 4.81-1.51 7.24-.34 2.08-.58 4.32.36 6.2 1.14 2.26 3.67 3.42 6.03 4.32 9.15 3.51 18.68 6.04 28.37 7.51.74.12 1.51.23 2.11.68.55.41.87 1.03 1.21 1.61 2.13 3.62 5.45 6.51 9.28 8.2l.01-.01z" fill="#fff"/><path d="M69.01 127.97c-.54 1.08-1.62 2.4-2.25 3.14a25.393 25.393 0 0 1-2.14.99c-.02 0-.05.02-.07.03-.69.29-1.4.57-2.14.52-.61-.04-1.18-.32-1.72-.61-1.63-.89-3.16-1.98-4.53-3.23l.31.04a8.48 8.48 0 0 0 5.62 1.57 8.48 8.48 0 0 0 5.29-2.45c.67-.67 1.21-1.44 1.87-2.12l.07-.07c.1.61.09 1.42-.3 2.2l-.01-.01z" fill="#fff"/><path d="M65.27 134.09c-1.03 1.25-2.15 1.76-2.95 1.96-.2-.05-.4-.12-.59-.2-2.07-.79-4.06-1.76-5.96-2.9l-.1-.2c2.03.43 4.13.55 6.19.35.99-.1 2.07-.32 2.74-1 .1-.09.18-.19.26-.3.29-.4.55-.98 1.05-.95.2 0 .39.14.56.25l.12.09c.01.01.03.03.05.04-.24.28-.4.44-.4.44s.85.18-.99 2.41l.02.01zM99.46 126.881s-.01.01 0 .02a70.5 70.5 0 0 0-.65 2.5v.03c-.64 2.49-1.2 4.99-1.68 7.51-.31 1.59-.6 3.18-.85 4.77-.07.41-.13.83-.19 1.23-.85 5.58-1.45 11.28-2.65 16.76-.08.39-.17.77-.26 1.15-.98 4.14-2.34 8.13-4.44 11.85.03-.38.07-.76.12-1.15.33-2.93 1.04-5.8 1.69-8.67 2.35-10.46 3.8-21.1 5.24-31.71.3-2.26.61-4.53.41-6.81-.31-3.53-2.29-6.96-5.72-8.29-2.89-1.11-6.19-.88-9.17-.33-1.46.27-3.13.79-3.63 2.19l.57-1.4c.18-.3.38-.59.58-.89 1.12-1.22 5.09-5.14 10.38-5.57 6.27-.51 7.54 1.23 8.44 1.9.9.67 2.09 6.21 2.28 10 .071 1.38-.14 3.18-.43 4.91h-.04zM127.79 48.23l-2.9 11.58-14.28-10.41v-.11l-1.1-7.32s.04-.38-1.81-.31-3.12-1.11-7.46-5.36c-4.35-4.24-4.86-15.16-4.86-18.82 0-3.65.97-4.98 3.19-6.98.79-.71 2.33-1.3 3.98-1.77 2.97-.84 6.29-1.27 6.29-1.27s.36 3.42.52 4.9c.15 1.49 1.29 4.15 2.34 5.56 1.04 1.42 5.52 3.5 5.52 3.5l1.04 2.48-.28 3.56s-.09 2.43 0 2.69c.08.25 2.67 3.05 2.67 3.05l1.58 1.88.65 2.3s-.48 3.97-.48 4.55c0 .58.83 2.69.83 2.69s2.5.53 2.84.53c.34 0 1.3 1.11 1.3 1.11l.4 1.96.02.01zM120.361 18.97c.87-.95 2.09-1.64 3.38-1.68.51-.01 1.03.08 1.49.31.28.15.53.36.77.58a7.104 7.104 0 0 1 2.18 4.54c.03.4.03.81-.08 1.2-.1.35-.28.67-.47.98-.4.67-.84 1.34-1.4 1.89-.56.55-1.26.99-2.04 1.11-.36.06-.75.05-1.08-.13.17-.34-.02-.74-.24-1.05-.53-.74-1.25-1.32-1.83-2.02-.58-.7-1.02-1.62-.81-2.5.11-.46.38-.88.38-1.35 0-.37-.19-.73-.49-.95-.19-.14-.45-.27-.43-.51" fill="#fff"/><path d="M163.73 69.42c-.5 1.21-1.18 2.36-1.37 3.65-.22-1.75-.21-3.58.31-5.24l1.06 1.6v-.01z" fill="#F4C6CC"/><path d="M181.29 123.66c-.27.97-.55 1.92-.86 2.87-.03-.01-.06-.03-.1-.05-4.13-2.04-19.37-9.35-34.97-13.87.92.2 10.97 2.41 15.04 3.33.18.04.36.08.56.13 4.58 1.14 14.63 4.67 16.21 5.38 1.06.48 2.88 1.49 4.04 2.15 0 0 .05.03.08.05v.01z" fill="#fff"/><path d="M120.011 94.88c-1.77-.68-3.77-.21-5.67-.44l-6.29-17.01s-.28.11-.75.29c-.7-2.19-1.5-4.34-2.58-6.37-.68-1.29-1.49-2.52-2.34-3.7-.7-.96-1.45-1.91-1.99-2.97-.74-1.47-1.1-3.18-2.22-4.4l-.57-.7c1.29.97 2.5 2.06 3.59 3.25.05-1.49.36-2.97.92-4.35.48.05.8.53 1.04.96 2.09 3.83 3.69 7.94 4.72 12.2.25 1.05.48 2.13 1 3.09.4.75.96 1.4 1.49 2.07 1.18 1.47 2.23 3.05 3.28 4.63 2.77 4.17 5.61 8.51 6.37 13.45zM154.531 99.48l-4.75-.23a55.073 55.073 0 0 0-11.97-16.86c-.22-.21-.45-.42-.74-.48-.27-.05-.55.04-.8.12-2.69.91-5.46 1.74-8.31 1.79-2.84.05-5.8-.76-7.86-2.73.35.01.7.03 1.04.04l3.15-1.25c1.23.07 2.34-.65 3.33-1.38 1.58-1.17 3.12-2.39 4.61-3.68.29-.25.58-.5.94-.62.27-.09.55-.09.83-.1 3.68-.14 7.27-1.96 9.56-4.85 2.29-2.89 3.25-6.8 2.54-10.42 2.01 4.55 1.67 9.75.46 14.61l-.95 2.79s3.11 7.37 3.79 8.2c.68.83 3.94 10.68 3.94 10.68l1.19 4.36v.01z" fill="#501D50"/><path d="M166.63 110.791c0 .08 0 1.89-.6 2.06-.6.17-1.64.24-1.64.24l-.9.92s-.98 1-1.89.18c0 0-.05.12-.12.27-.14.29-.36.73-.5.65-.2-.11-1.17-.21-1.84-.65l-3.25-2.05s-5.44-2.69-8.41-3.33c-2.97-.65-4.78-3.91-4.92-4.23-.15-.32-.92-2.07-.92-2.07s-21.98 2.93-26.31 2.39c-4.34-.54-7.29-1.56-9.9-6.03-1.49-2.55-4.43-7.68-6.68-11.61-.3-.53-.59-1.02-.86-1.49-1.19-2.09-2.05-3.59-2.11-3.72l.16.11s11.55-4.71 11.78-4.71c.03 0 .15.15.31.41.96 1.45 3.7 6.33 4.2 7.44.33.72 1.08 2.6 1.7 4.14.5 1.24.9 2.26.9 2.26s.76.06 1.86.16c2.6.22 7.16.63 8.35.8 1.68.25 5.82.8 9.32.72 3.5-.09 5.54-.42 8.36.69 2.81 1.11 10.65 4.38 10.69 4.5.04.11 6.14 3.27 6.73 3.38.59.12 4.9 3.59 5.51 4.47.61.88 1.55 2.13 1.58 2.77.04.64.01 1.13-.59 1.32l-.01.01z" fill="#fff"/><path d="M161.48 114.461c-.14.29-.36.73-.5.65-.2-.11-1.17-.21-1.84-.65l-3.25-2.05s-5.44-2.69-8.41-3.33c-2.97-.65-4.78-3.91-4.92-4.23-.15-.32-.92-2.07-.92-2.07s-21.98 2.93-26.31 2.39c-4.34-.54-7.29-1.56-9.9-6.03-1.49-2.55-4.43-7.68-6.68-11.61-.3-.53-.59-1.02-.86-1.49-1.19-2.09-2.05-3.59-2.11-3.72l.16.11s11.55-4.71 11.78-4.71c.03 0 .15.15.31.41-.79 1.89-2.13 3.57-3.5 5.11-.65.74-1.34 1.46-2.09 2.11 2.26 3.57 4.51 7.15 6.76 10.71 1.03 1.62 2.11 3.31 3.77 4.3 1.54.93 3.4 1.13 5.19 1.22 4.38.21 8.77-.19 13.06-1.07 3.78-.77 7.9-1.88 11.35-.14 2.2 1.11 5.36 2.55 7.16 4.23 1.8 1.68 9.47 6.42 11.43 8.96.13.17.24.49.32.87v.03z" fill="#F4C6CC"/><path d="M116.681 92.14s0 .07-.01.1c-2.33-.03-4.64-.19-6.95-.46l2.39-1.77c.59-.15 1.21-.28 1.81-.29.5 1.24.9 2.26.9 2.26s.76.06 1.86.16z" fill="#F4C6CC"/><path d="m116.25 58.07-9.86-7.41c-2.02.17-4.01.54-5.91 1.21-3.78 1.34-7.24 4.04-8.73 7.76-.55 1.37-.82 2.83-.97 4.3-.65 6.36.92 12.66 2.84 18.79-1.24.05-2.32-.28-2.32-.28l.98-2.24-5.67-11.09v-5.92c0-3.11 3.83-8.47 4.77-10.27.94-1.8 11.16-3.81 11.44-3.85.29-.03 8.01.33 8.01.33l1.51 1.19h-.14c-.53-.03-1.06-.05-1.6-.05-.74-.01-1.49-.01-2.24 0l7.86 7.53h.03z" fill="#fff"/><path d="m119.71 56.46-9.08-5.93c.54 0 1.07.03 1.6.05l7.48 5.87v.01z" fill="#fff"/><path d="M113.99 40.41c-.87 1.45-1.07 3.17-1.43 4.82-.33 1.49-.85 3.05-1.98 4.06l-1.08-7.32s.04-.38-1.81-.31-3.12-1.11-7.46-5.36c-4.35-4.24-4.86-15.16-4.86-18.82 0-3.65.97-4.98 3.19-6.98.79-.71 2.33-1.3 3.98-1.77-1.54 3.38-1.81 7.32-.68 10.86 1.06 3.32 3.28 6.39 3.17 9.87-.02.75-.16 1.53.07 2.24.23.72.99 1.35 1.7 1.1 0 1.03 1.2 1.67 1.46 2.67.09.34.06.7.08 1.05.06 1.32.77 2.59 1.85 3.34 1.09.74 2.53.95 3.78.53l.02.02z" fill="#F4C6CC"/><path d="M139.51 32.89c-.45.02-.91-.05-1.32-.24-.93-.42-1.62-1.36-1.72-2.37-.13-1.29.58-2.69-.05-3.82-.51-.93-1.69-1.21-2.62-1.74-1.33-.76-2.26-2.17-2.42-3.69-.11-1.08.14-2.16.1-3.24-.03-1.08-.47-2.27-1.46-2.7-.48-.21-1.04-.2-1.56-.25-2.29-.15-4.68-1.33-5.52-3.46-.78-1.98-.07-4.3-.8-6.31-.78-2.17-3.12-3.47-5.41-3.69-2.29-.23-4.57.44-6.76 1.14v-.03c1.13-.59 5.61-2.84 7.25-2.04 1.88.93 5.56.68 7.12 3.92 1.56 3.25 1.29 7.68 3.28 8.26 1.99.57 5.03-.02 5.75 2.05.73 2.07.4 5.69.44 6.46.04.78 1.01 3.31 1.92 3.25.91-.06 3.22.87 3.72 1.85.5.98-.38 3.21-.48 3.85-.1.5-.16 2.18.55 2.78l-.01.02zM109.66 2.62c0 .35-.13.69-.35.95-2.93-1.02-6.25-1-9.11.23-2.86 1.23-5.2 3.68-6.14 6.64-.74 2.37-.59 4.94-.19 7.39.29 1.77.63 3.8-.5 5.2-.73.89-1.98 1.37-2.42 2.43-.55 1.3.36 2.69 1.1 3.89.55.89 1.04 1.84 1.21 2.88.16 1.04-.06 2.17-.78 2.93-.24.25-.52.45-.82.59.55-.98.59-2.3.26-3.42-.46-1.57-1.45-2.94-2.03-4.47-.58-1.53-.67-3.46.49-4.62.65-.65 1.62-1 2.04-1.81.44-.85.12-1.85-.12-2.78-1.34-5.15.36-10.99 4.27-14.61.93-.85 1.98-1.6 3.19-1.96.95-.29 1.95-.31 2.94-.32 2.35 0 4.73.14 6.97.85l-.01.01zM95.41 32.96c.34 1.04.68 2.1.68 3.19 0 1.09-.39 2.24-1.25 2.9-.55.42-1.32.72-1.44 1.4-.05.28.03.56.14.82.44 1.04 1.36 1.78 2.1 2.63.34.39.67.87.58 1.38-.11.64-.8.98-1.17 1.51-.35.51-.39 1.19-.24 1.8.15.61.47 1.15.78 1.69.58-.2 1.14-.47 1.65-.82-.6-.17-.77-1-.52-1.57.25-.57.75-.99 1.14-1.48.49-.62.8-1.4.77-2.2-.03-.8-.41-1.58-1.06-2.03-.33-.23-.72-.36-1.07-.56-.35-.2-.67-.52-.73-.92-.06-.42.18-.83.49-1.13.31-.3.67-.53.96-.84.76-.83.81-2.14.37-3.18-.44-1.04-1.28-1.86-2.15-2.57M101.58 41.66c.46.62.66 1.43.53 2.19s-.58 1.46-1.22 1.9c-.21.14-.45.27-.55.51-.05.12-.05.26-.04.4.08 1 .81 1.82 1.51 2.54.6-.12 1.21-.18 1.82-.21-.27-.22-.53-.45-.8-.67-.43-.36-.9-.81-.87-1.37.02-.39.28-.72.57-.98.29-.26.62-.48.86-.78.58-.73.45-1.93-.28-2.52-.4-.32-.91-.45-1.32-.74" fill="#fff"/><path d="M22.06 30.9c.26.65.65 1.24 1.05 1.8.8 1.14 1.66 2.24 2.57 3.29.06.06.13.14.22.13.06 0 .11-.05.16-.09.88-.84 2.25-1.01 3.43-.71 1.18.31 2.21 1.02 3.17 1.77.18.14.36.28.55.41.31.39.62.78.95 1.15.9-.72 1.9-1.34 2.95-1.83-.68-.82-1.06-1.83-1.4-2.83-.96-2.78-1.73-5.62-2.31-8.5-.08-.42-.16-.85-.03-1.25 0-.02 0-.03.02-.05.11-.33.35-.6.58-.86 1.29-1.47 2.7-3.01 4.59-3.5 1.78-.45 3.63.11 5.43.45 1.29.24 2.6.37 3.91.38.25 0 .51 0 .75-.07.65.21 1.31.41 1.97.59 2.08.57 4.47.92 6.25-.28.68-.46 1.21-1.11 1.66-1.79.31-.47.58-.97.81-1.48a11.43 11.43 0 0 0 .66-1.84c.58-2.15.56-4.47-.1-6.6a8.503 8.503 0 0 1-4.39 2.25c.08-.09.16-.19.24-.28.7-.88 1.19-1.91 1.46-3 .41-1.63.33-3.39-.31-4.95-1.31 1.38-3.26 1.99-5.15 2.2-1.89.21-3.81.08-5.71.25-2.54.24-5 1.02-7.43 1.83-2.02.68-4.04 1.37-5.95 2.32-1.71.84-3.32 1.88-4.79 3.08-1.12.91-2.15 1.93-3.1 3.02-1.06 1.22-2.05 2.71-1.87 4.32.17 1.55 1.37 2.75 2.49 3.82l.16.32s.07 0 .1-.01v.02c.01.04.03.08.04.12-.09 0-.17.01-.25.02-1.38.18-2.62 1.11-3.25 2.34-.63 1.24-.66 2.75-.14 4.04h.01z" fill="#ED6C2E"/><path d="M25.39 41.19c.15.61.36 1.23.72 1.75.63.91 1.68 1.45 2.76 1.73 1.07.27 2.19.31 3.29.42.23.02.47.05.66.19.23.17.43.46.41.75-.46 4.93-.97 13.3-.71 13.64.16.47-1.24 3.2 2.11 3.15-.26 1.05 15.47-.68 15.95-2.46.04-.15-.11-1.8-.14-2.38-.03-.72-.06-1.43-.1-2.15-.05-1.31-.12-2.63-.18-3.95 1.25.42 2.57-.29 3.63-1.07s2.04-1.68 2.78-2.77c1.46-2.15 1.83-4.85 1.98-7.45.37-6.5-.42-13.07-2.32-19.3l.04.18c-2.27.01-4.53-.1-6.78-.37a55.97 55.97 0 0 1-5.46-.9c-1.68-.36-3.43-.81-5.11-.42-1.98.46-3.51 2-4.92 3.46-.23.23-.46.47-.58.78-.16.41-.09.86-.01 1.29.59 3.56 1.22 7.22 3.05 10.34.18.31.38.61.45.96.02.1.03.2.03.29-.68.54-1.36 1.06-2.08 1.55-.14.1-.3.2-.46.18-.14-.01-.27-.11-.38-.21-.79-.69-1.37-1.62-2.26-2.19-.51-.33-1.1-.52-1.69-.66-1.07-.26-2.25-.35-3.22.18-.88.48-1.45 1.44-1.65 2.43-.19.99-.06 2.02.19 3v.01z" fill="#fff"/><path d="M40.47 50.1c.72.3 1.26.9 1.71 1.51.46.62.97 1.18 1.56 1.68 1.53 1.28 3.35 1.93 5.27 2.37.36.09.92.3 1.32.17-.05-1.31-.12-2.63-.18-3.95 1.25.42 2.57-.29 3.63-1.07s2.04-1.68 2.78-2.77c1.46-2.15 1.83-4.85 1.98-7.45.37-6.5-.42-13.07-2.32-19.3l.04.18c-2.27.01-4.53-.1-6.78-.37-.43 2.43.26 4.9.43 7.37.13 1.81-.02 3.64.18 5.44.2 1.8.82 3.66 2.18 4.85-.42.31-1.01.3-1.44.6-.62.43-.67 1.32-.58 2.07.08.75.21 1.58-.23 2.2-.21.3-.53.53-.61.88-.04.22.02.43.08.65.48 1.8.66 3.84-.33 5.42-.23.37-.52.71-.91.9-.34.16-.71.23-1.09.24-2.43.12-4.46-.91-6.7-1.63l.01.01z" fill="#F4C6CC"/><path d="M33.39 24.18c.11-.33.35-.59.58-.85 1.29-1.47 2.7-3.01 4.59-3.5 1.78-.45 3.63.11 5.43.45 1.29.24 2.6.37 3.91.38.25 0 .51 0 .75-.07.65.21 1.31.41 1.97.59 2.08.57 4.47.92 6.25-.28.68-.46 1.21-1.11 1.66-1.79.31-.47.58-.97.81-1.48.13-.03.27-.08.39-.14.01-.21.02-.42.01-.63-.07.13-.14.25-.23.37-.1.16-.22.31-.34.45-.94 1.07-2.37 1.72-3.8 1.95-1.76.27-3.56-.01-5.32-.36-2.13-.42-4.26-.91-6.43-1.05-2.17-.13-4.41.1-6.35 1.08-1.93.98-3.52 2.76-3.9 4.89l.02-.01zM39.85 13.35c3.83-2.93 9.06-3.95 13.71-2.67.72.2 1.46.44 2.18.47.7-.88 1.19-1.91 1.46-3-.57.28-1.2.46-1.82.55-1.56.22-3.14-.03-4.71-.14-2.06-.14-4.16-.03-6.09.71-1.92.74-3.66 1.49-4.42 3.4l-.31.69v-.01z" fill="#fff"/><path d="m44.07 17.3 2.9-1.33c.88-.47 2.16-.31 3.15-.16 1 .14 1.95.49 2.9.82 1.67.58 3.39 1.13 5.16 1.13.33 0 .67-.02 1-.09.05 0 .11-.02.16-.04.13-.03.27-.08.39-.14.01-.21.02-.42.01-.63-.07.13-.14.25-.23.37.19-.46.35-.94.48-1.43-1.24.62-2.77.56-4.14.22-1.57-.38-3.06-1.07-4.65-1.32-2.63-.41-5.57.47-7.15 2.61l.02-.01zM22.9 20.23c.17 1.55 1.37 2.75 2.49 3.82l.16.32s.07 0 .1-.01v.02l2.37-.59c-.9.07-1.82-.31-2.41-.99-.34-.4-.56-.88-.72-1.38-.46-1.53-.24-3.21.4-4.67.64-1.47 1.66-2.74 2.79-3.86-.07 0-.15 0-.23.02-1.12.91-2.15 1.93-3.1 3.02-1.06 1.22-2.05 2.71-1.87 4.32l.02-.02z" fill="#fff"/><path d="M22.22 98.58c-.19 1.58-.48 3.14-.78 4.71.96-3.04 1.58-6.21 1.84-9.41.28-3.2.18-6.43-.18-9.62-.2-1.6-.5-3.17-.86-4.74-.38-1.56-.88-3.17-1.89-4.5-.98-1.35-2.49-2.29-4.09-2.62-1.6-.31-3.32-.11-4.7.71 2.92-1.31 6.61-.29 8.28 2.28.85 1.27 1.34 2.77 1.68 4.3.33 1.54.6 3.11.77 4.68.42 3.14.51 6.31.36 9.47-.06 1.58-.2 3.17-.42 4.74h-.01zM17.72 108.87c.17-.48.28-.97.32-1.46.05-.49.04-.99-.03-1.5-.08-.51-.21-1.02-.5-1.55-.39.46-.61.94-.8 1.42-.17.48-.28.97-.33 1.46-.05.49-.04.99.03 1.5.08.51.21 1.02.5 1.55.4-.46.62-.94.8-1.42h.01zM59.64 119.9c-1.14-.6-2.25-1.12-3.38-1.68-.58-.26-1.06-.59-1.87-.8-.4-.1-.89-.06-1.27.05s-.7.27-.98.4c-1.11.53-2.24 1.02-3.39 1.47l-1.73.65c-.59.21-1.16.42-1.66.5-.51.09-.93.05-1.43-.13-.49-.18-1.01-.47-1.57-.77-4.52-2.37-9.26-4.06-14-5.68-4.75-1.61-9.6-2.96-14.49-4.05 4.72 1.7 9.4 3.45 14.05 5.26 2.32.92 4.64 1.83 6.94 2.8 2.29.96 4.56 1.96 6.72 3.13.54.28 1.12.62 1.81.86.67.25 1.55.33 2.26.18.73-.14 1.33-.38 1.92-.59.6-.22 1.19-.45 1.77-.7 1.17-.5 2.32-1.04 3.45-1.62.57-.3.95-.47 1.33-.39.41.06 1.03.38 1.6.61l3.43 1.47c1.09.48 2.05 1.17 2.22 2.26.1.52-.03 1.04-.41 1.39-.38.35-.98.49-1.56.47-1.18-.05-2.29-.81-3.5-1.13 1.15.48 2.1 1.38 3.46 1.57.65.09 1.39.02 1.99-.42.62-.44.9-1.26.82-1.98-.06-.72-.4-1.42-.9-1.93-.48-.52-1.07-.89-1.64-1.2h.01zM63.18 126.31c-.67-.35-1.38-.67-2.21-.88.39.74.91 1.36 1.47 1.95.13.12.37.37.84.44.45.05.77-.11.98-.19.38-.17.7-.34 1.05-.53.68-.37 1.33-.8 1.94-1.28.33-.25.54-.47.84-.65.28-.18.57-.34.98-.19-.06-.2-.24-.39-.47-.49-.23-.1-.47-.12-.71-.12-.45.02-.92.17-1.27.3-.74.27-1.44.59-2.11.97-.33.19-.68.39-.98.59-.13.09-.18.1-.12.12.08.04-.02.05-.2-.05l-.03.01zM59.39 161.48c-1.52 0-3.04.03-4.55.11-1.51.07-3.02.17-4.54.31-1.52.13-3.03.3-4.57.6 1.51.39 3.05.58 4.58.69 1.53.11 3.07.13 4.6.06 1.53-.06 3.06-.23 4.58-.47 1.52-.25 3.02-.58 4.5-1.11-1.55-.16-3.08-.19-4.6-.19z" fill="#000"/><path d="M67.39 131.35c1.29-1.15 2.18-2.99 1.79-4.65-.34 1.63-1.39 2.8-2.61 3.64-.63.41-1.29.79-2 1.09-.7.33-1.37.58-1.92.56-.53 0-1.11-.32-1.76-.76-.67-.43-1.34-.9-2.04-1.32-.69-.43-1.39-.84-2.11-1.24l-1.09-.57c-.37-.19-.73-.34-1.06-.6.19.37.5.68.79.97l.88.86c.6.55 1.2 1.1 1.82 1.62.61.54 1.25 1.03 1.89 1.54.64.5 1.5 1.11 2.63 1.14 1.08.01 1.95-.42 2.68-.81.36-.21.72-.43 1.07-.67-.57.99-1.43 1.56-2.33 2.12-.48.27-1.01.6-1.48.84-.49.24-.67.27-1.08.16-.4-.1-.93-.4-1.47-.64-.54-.23-1.06-.5-1.61-.73-1.08-.48-2.17-.94-3.36-1.31.8.94 1.73 1.73 2.71 2.43.48.37 1 .67 1.51.99.52.3 1.01.63 1.76.86.37.1.82.15 1.26.06.43-.1.78-.28 1.07-.47.53-.39 1-.72 1.47-1.16.47-.42.89-.92 1.22-1.48.14-.25.25-.53.33-.81a2.26 2.26 0 0 0 1.63.71c.29 0 .58-.06.87-.18.29-.13.58-.31.87-.65-.29-.35-.58-.52-.87-.65a2.26 2.26 0 0 0-.87-.18 2.26 2.26 0 0 0-1.56.64c.04-.21.05-.43.04-.64.32-.22.63-.47.91-.74l.02.03zM33.81 162.151c-.26-3.35-.71-6.69-1.2-10.02-.51-3.29-1.03-6.73-2.73-9.89-.87-1.56-2.08-2.93-3.4-4.04-1.33-1.11-2.72-2.07-4.11-3.01-2.77-1.89-5.69-3.72-8.91-4.79l-.17-.05.15.08c2.92 1.68 5.53 3.73 8.15 5.81 2.62 2.1 5.36 4.02 6.83 6.81.78 1.37 1.31 2.91 1.74 4.49.45 1.57.8 3.22 1.17 4.85.72 3.26 1.52 6.52 2.45 9.77l.04.16v-.17h-.01z" fill="#000"/><path d="M45.26 158.13c-.27-1.99-.62-3.98-1.01-5.96-.42-1.97-.85-3.94-1.38-5.89l.03.21c0-.08-.02-.17-.05-.26l.02.04-.29-1.03c.64-.5 1.19-1.03 1.73-1.54.59-.58 1.15-1.15 1.71-1.73.56-.58 1.11-1.17 1.66-1.79.54-.62 1.09-1.25 1.61-1.99-.89.16-1.69.54-2.44.99a10.289 10.289 0 0 0-3.57 3.74c-.34.63-.62 1.3-.78 2.01l-.5-1.79c-.29-1.05-.68-2.08-1.01-3.13l.03.09-.04-.12-.02-.06c-.43-1.2-.94-2.39-1.57-3.51-.62-1.14-1.39-2.2-2.25-3.14-1.24-1.38-2.64-2.56-4.09-3.66 2.53.52 5.07 1 7.62 1.41.42.07.85.13 1.2.21.36.09.6.2.89.44.59.5 1.24 1.12 1.87 1.67 1.05.93 2.08 1.87 3.15 2.79-.44-.05-.86-.02-1.27.05-.57.1-1.12.29-1.64.55-.51.26-.99.59-1.41 1-.42.41-.79.87-1.03 1.48.65-.05 1.19-.2 1.71-.37A11.508 11.508 0 0 0 47 137.4c.38-.27.76-.57 1.12-.96.11.09.21.19.32.28 1.32 1.06 2.89 2.1 4.7 2.18 1.76.08 3.22-.82 4.77-1.29.19.05.4.09.6.11.36.04.75 0 1.13-.13.37-.14.71-.45.76-.82-.35.12-.6.09-.85 0-.24-.07-.47-.2-.71-.32l-.72-.41c-.27-.15-.54-.28-.82-.41-.55-.25-1.09-.46-1.65-.65-.57-.19-1.12-.39-1.8-.57.19.68.63 1.23 1.12 1.69.5.45 1.06.79 1.64 1.05.29.13.58.25.88.34.12.04.25.07.38.11-1.59.32-3.14 1.05-4.7.86-1.63-.2-3-1.24-4.2-2.36-1.21-1.14-2.4-2.37-3.6-3.55-.61-.61-1.17-1.17-1.84-1.8-.35-.32-.88-.61-1.34-.72-.47-.13-.88-.19-1.29-.28-6.62-1.32-13.2-2.86-19.69-4.68-3.25-.89-6.48-1.87-9.69-2.9-1.61-.51-3.21-1.01-4.71-1.67-1.48-.66-2.9-1.51-3.94-2.65-.52-.57-.91-1.23-1.1-1.94-.19-.72-.2-1.51-.14-2.33.16-1.64.42-3.34.66-5 .23-1.67.49-3.35.78-5.01l.44-2.5.2-1.12c5.09 2.4 10.65 3.75 16.2 3.92A48.817 48.817 0 0 1 3.64 98.5c-.6-.35-1.32-.69-1.7-1.05-.38-.33-.48-.77-.46-1.41.03-.62.18-1.36.29-2.05.14-.7.26-1.39.44-2.08a42.66 42.66 0 0 1 2.73-8.05c2.3-5.2 5.56-9.96 9.35-14.24 3.64-4.08 7.75-7.74 12.1-11.14-.09.42-.17.83-.25 1.25-.17.84-.3 1.68-.4 2.52a43.36 43.36 0 0 0-.34 5.09v.06c0 .34.27.63.61.64 1.28.06 2.56-.06 3.78-.36 1.13-.29 2.22-.71 3.2-1.29.25 1.75.56 3.48.93 5.21 1.17 5.43 2.88 10.71 4.53 15.98 1.72 5.26 3.52 10.49 5.41 15.69l5.71 15.58c-1.58-5.3-3.35-10.55-5.11-15.79-1.76-5.24-3.57-10.46-5.22-15.73-1.71-5.26-3.41-10.51-4.7-15.87-.44-1.83-.82-3.67-1.13-5.53 1.41.53 2.92.77 4.4.85 1.64.09 3.27.05 4.91-.15 1.63-.19 3.26-.57 4.82-1.14 1.17-.44 2.31-1.01 3.32-1.74.05.28.1.55.16.83.51 2.4 1.29 4.73 2.17 7 1.78 4.53 3.57 9.04 5.41 13.54 1.86 4.49 3.65 9.01 5.56 13.48 1.88 4.48 3.77 8.96 5.74 13.4-1.68-4.57-3.42-9.1-5.18-13.63-1.74-4.54-3.58-9.03-5.36-13.55-1.79-4.52-3.68-8.99-5.49-13.5-.88-2.26-1.76-4.51-2.31-6.86-.09-.36-.15-.72-.22-1.09.16-.13.32-.25.47-.38-.18.06-.35.1-.52.16-.16-.84-.27-1.69-.33-2.55-.07-1.1-.07-2.2.07-3.3v-.04l-.79-4.58c.32 0 .65-.03.98-.07.96-.11 1.91-.47 2.73-.99 1.47 1.21 3 2.34 4.54 3.42 1.47 1.04 2.92 2.06 4.11 3.28-1.48 1.14-2.95 2.3-4.38 3.52-.84.7-1.65 1.43-2.46 2.17-.79.74-1.66 1.51-2.18 2.5.81-.75 1.74-1.27 2.68-1.84.93-.58 1.85-1.17 2.75-1.78 1.82-1.21 3.58-2.5 5.32-3.81l.05-.04c.34-.3.37-.82.07-1.16-1.51-1.72-3.42-2.92-5.3-3.92-1.64-.88-3.31-1.69-5.03-2.44h.01a8.98 8.98 0 0 0 2.23-2.16c1.21-1.69 1.84-3.64 2.27-5.54.41-1.92.6-3.88.57-5.82.05-1.95-.08-3.88-.33-5.78-.24-1.91-.56-3.79-.93-5.67-.38-1.75-.88-3.51-1.78-5.06 1.4-.62 2.44-1.85 3.13-3.13.79-1.47 1.23-3.06 1.49-4.68.25-1.62.21-3.37-.53-4.93a.41.41 0 0 0-.21-.2c-.2-.07-.41.03-.48.23-.28.79-.89 1.48-1.64 1.88-.6.34-1.29.45-1.99.4 1.71-2.24 2.2-5.44 1.09-8.13-.02-.04-.04-.08-.08-.1-.11-.08-.25-.05-.33.06-1.05 1.5-2.94 2.14-4.75 2.31-1.83.17-3.77.07-5.67.34-3.78.51-7.53 1.31-11.11 2.71-3.55 1.39-6.95 3.41-9.54 6.27-.64.71-1.25 1.45-1.77 2.28-.51.82-.93 1.74-1.01 2.73-.1.99.27 1.99.88 2.73.52.66 1.15 1.21 1.67 1.85-.39.12-.78.27-1.16.45-.87.44-1.66 1.1-2.2 1.96-.54.86-.7 1.96-.54 2.93.17.98.55 1.87 1.04 2.68.88 1.48 2.05 2.69 3.27 3.82-.38.39-.7.84-.92 1.33-.44.91-.57 1.94-.47 2.93.17 1.98 1.37 3.86 3.09 4.89 1.5.88 3.27 1.21 4.95.96.11.52.19 1.05.22 1.59.03.65 0 1.31-.03 1.99-1.34.7-2.55 1.69-3.53 2.89-1.11 1.35-1.9 3.01-2.35 4.7-.11.38-.2.76-.28 1.13-4.73 2.92-9.19 6.34-13.08 10.39-4.07 4.19-7.51 9.07-9.92 14.44-1.19 2.69-2.14 5.5-2.75 8.39-.16.72-.27 1.45-.39 2.18-.09.74-.23 1.42-.25 2.26 0 .41.03.86.18 1.31.15.45.46.9.82 1.19.73.57 1.37.79 2.02 1.15.18.09.36.16.53.25l-.31 1.13-.63 2.47c-.4 1.65-.79 3.3-1.14 4.96-.34 1.67-.68 3.31-.94 5.03-.11.87-.15 1.79.06 2.72.21.94.69 1.79 1.28 2.5 1.19 1.42 2.73 2.38 4.32 3.13 1.59.75 3.22 1.29 4.82 1.84 3.22 1.09 6.47 2.08 9.74 3.01 3.87 1.07 7.77 2.01 11.69 2.83 1.39 1.42 2.76 2.85 3.92 4.41.72.99 1.36 2.01 1.87 3.11s.93 2.24 1.31 3.41l-.02-.06.02.05.03.09c.23.81.47 1.62.69 2.43-.56-.02-1.07.02-1.56.11-.57.11-1.12.26-1.66.46-.53.2-1.05.44-1.56.72-.46.27-.91.57-1.34.99-.37-1.65-.82-3.38-1.82-4.96-.62-.95-1.37-1.76-2.13-2.5-.77-.74-1.52-1.44-2.29-2.15-1.56-1.39-3.11-2.79-4.79-4.06-3.31-2.56-7.07-4.74-11.16-5.66h-.03l-.15-.04.14.06h.01c3.87 1.57 7.25 3.96 10.35 6.65 1.54 1.36 3.06 2.75 4.54 4.2 1.48 1.45 3.08 2.8 4.11 4.4 1.05 1.56 1.44 3.57 1.95 5.59l1.5 6.03c.96 4.03 1.78 8.07 2.23 12.22.24-4.17-.25-8.37-.97-12.48-.35-2.06-.8-4.1-1.23-6.13-.08-.33-.15-.67-.23-1.01.59.14 1.15.14 1.7.09.6-.06 1.18-.2 1.74-.41.56-.2 1.09-.47 1.59-.81.41-.29.8-.62 1.14-1.04.03.13.07.25.11.38l.83 3.11v.03c.48 1.93.98 3.86 1.41 5.81.45 1.94.86 3.89 1.24 5.85l.57 2.94c.1.5.21.98.14 1.26-.04.26-.39.59-.77.91-1.47 1.3-3.14 2.4-4.92 3.33l-.08.04-.09.04.1-.03.09-.03c1.93-.59 3.76-1.51 5.44-2.69.38-.3.92-.58 1.2-1.29.21-.7.07-1.24.03-1.72l-.38-3-.01-.06zm1.9-93.92c-1.54.32-3.09.55-4.65.74-1.56.19-3.15.35-4.73.5-1.46.13-2.91.23-4.41.27-.17-1.04-.32-2.09-.44-3.13 1.28.57 2.66.94 4.06 1.07 1.55.22 3.13.22 4.68.05 1.55-.16 3.08-.5 4.56-.94 1.47-.46 2.94-1.01 4.25-1.87l.03-.02c.04.8.13 1.59.25 2.38-1.21.37-2.41.7-3.61.95h.01zm-19.83-1.78c.26-1.63.5-3.29.85-4.88.33-1.58.88-3.07 1.71-4.46.7-1.19 1.6-2.28 2.64-3.28v.2c-.11 1.64-.26 3.37.05 5.02.16-1.67.6-3.24.94-4.89.34-1.63.57-3.43.13-5.21a.734.734 0 0 0-.83-.55h-.05c-1.54.27-3.2.03-4.5-.78-1.32-.76-2.2-2.14-2.46-3.65-.11-.75-.06-1.53.19-2.24.25-.71.71-1.36 1.33-1.74.62-.38 1.44-.45 2.27-.29.83.15 1.65.48 2.47.82-.7-.53-1.44-1.05-2.31-1.38-.85-.34-1.91-.46-2.87-.04-.42.18-.78.44-1.09.75-.45-.59-.92-1.17-1.34-1.77-.54-.73-1.04-1.49-1.44-2.3-.79-1.57-1.28-3.45-.35-4.87.16-.27.36-.51.58-.73-.07.16-.13.32-.17.5-.17.71-.11 1.41-.01 2.09.13.68.34 1.35.7 1.95.34.6.82 1.14 1.4 1.49a10.66 10.66 0 0 1-1.27-3.59c-.11-.62-.19-1.25-.17-1.85.01-.4.12-.81.27-1.23.63-.43 1.38-.75 2.15-.97-.54 1.12-.67 2.42-.46 3.66.25 1.38.93 2.73 2.04 3.57-.58-1.25-1-2.45-1.22-3.72-.21-1.16-.24-2.32-.18-3.57.23-.06.47-.12.7-.17.38-.08.76-.15 1.15-.21-.24.52-.39 1.08-.43 1.66-.06.68.03 1.37.2 2.04a7.304 7.304 0 0 0 2.1 3.39c-.44-1.27-.98-2.41-1.3-3.61-.32-1.12-.42-2.26-.44-3.5.47-.07.95-.13 1.43-.18.15-.02.3-.03.44-.04-.09.3-.16.6-.22.91-.06.38-.06.76-.03 1.13.05.76.24 1.49.47 2.19.24.7.53 1.39.93 2.03.4.64.9 1.23 1.54 1.62-.78-1.26-1.23-2.56-1.68-3.92-.24-.67-.44-1.35-.62-2.03-.08-.34-.17-.69-.2-1.04-.03-.29-.07-.6-.12-.91.74-.08 1.49-.13 2.24-.18-1.83-.25-3.7-.23-5.55.01-.52.07-1.05.18-1.56.34-.48-.69-1.07-1.29-1.54-1.95-.56-.75-.83-1.67-.69-2.58.29-1.82 1.57-3.32 2.85-4.65.45-.46.93-.89 1.42-1.3-.01.02-.03.04-.04.06a5.92 5.92 0 0 0-.69 2.05c-.11.72-.09 1.46.07 2.17.17.71.45 1.4.96 1.96.17-.74.25-1.39.35-2.03l.27-1.86.28-1.87c.07-.5.14-1.02.19-1.58a25.9 25.9 0 0 1 2.82-1.8c-.13.13-.27.27-.39.41-.66.75-1.19 1.61-1.58 2.53-.39.92-.64 1.91-.71 2.9-.07 1 .02 2.01.38 2.95l.9-2.69c.3-.86.62-1.69.96-2.51.35-.82.72-1.63 1.13-2.45l1-1.98c.69-.32 1.39-.63 2.11-.9.95-.36 1.91-.67 2.89-.96-.29.15-.57.31-.85.49-1.23.76-2.39 1.69-3.35 2.83-.96 1.12-1.73 2.43-2.2 3.84-.48 1.4-.63 2.93-.31 4.35.38-1.4.86-2.66 1.5-3.84.63-1.18 1.41-2.26 2.27-3.27.86-1.02 1.82-1.95 2.85-2.87.82-.73 1.68-1.44 2.54-2.18.01 0 .03 0 .04-.01 1.83-.44 3.68-.82 5.54-1.07 1.85-.29 3.73-.17 5.66-.42.96-.13 1.93-.36 2.82-.8.76-.36 1.45-.88 1.98-1.55.94 2.42.65 5.31-.83 7.54-.16-.01-.32-.03-.49-.05-.89-.15-1.76-.49-2.7-.73-.93-.25-1.89-.37-2.85-.42-1.92-.09-3.85.22-5.63.89-1.79.66-3.43 1.68-4.78 3 1.44-1.21 3.1-2.15 4.88-2.71 1.78-.56 3.65-.81 5.49-.67.92.07 1.84.21 2.72.48.88.24 1.76.63 2.73.82.96.21 2.08.13 2.98-.38.64-.34 1.18-.84 1.58-1.45.35 1.18.35 2.46.15 3.7-.07.41-.16.82-.26 1.23a5.99 5.99 0 0 1-1.52-.22c-.58-.15-1.24-.35-1.92-.46-.67-.11-1.35-.17-2.04-.16-.69.02-1.39.08-2.12.31.61.46 1.26.74 1.91.98.65.23 1.31.4 1.98.51.67.1 1.34.19 2.12.12a3.1 3.1 0 0 0 1.43-.52c-.22.8-.51 1.58-.86 2.31-1.19-.18-2.27-.55-3.32-.99-1.18-.51-2.4-1.12-3.77-1.49a8.11 8.11 0 0 0-2.16-.31c-.75.01-1.5.12-2.18.38-1.37.48-2.51 1.31-3.47 2.3 1.32-.4 2.57-.85 3.79-1.04 1.22-.21 2.37-.06 3.58.28 1.21.33 2.45.8 3.81 1.12 1.16.26 2.44.35 3.59.02 0 .02-.02.04-.03.06-.71 1.35-1.78 2.54-3.2 2.99-1.42.46-3.01.2-4.58-.04-3.17-.48-6.33-.91-9.52-1.35-.8-.09-1.63-.15-2.45 0-.82.13-1.59.53-2.22 1.04-1.28 1.03-2.14 2.41-3.41 3.39 1.34-.89 2.3-2.25 3.58-3.18.64-.46 1.35-.78 2.12-.87.77-.1 1.55-.04 2.33.08l9.47 1.59c1.56.24 3.25.57 4.93.06.17-.05.34-.12.5-.19.6 1.67.88 3.41 1.04 5.16.18 1.88.33 3.78.45 5.66.1 1.88.19 3.76.05 5.62-.02 1.86-.21 3.71-.62 5.51-.38 1.8-.95 3.54-1.94 4.99-.96 1.45-2.4 2.56-4.08 2.89-.85.18-1.78.18-2.71.18-.93 0-1.86-.08-2.78-.21-1.86-.24-3.69-.73-5.48-1.39 1.64.99 3.45 1.71 5.33 2.19.94.23 1.9.39 2.88.5.65.06 1.31.1 1.98.09l.54 4.6c-.2 1.13-.26 2.28-.22 3.42l-.07.02h-.05c-1.49.33-2.98.53-4.47.77-1.48.24-2.96.44-4.43.62-1.48.18-2.95.29-4.44.32-1.36.1-2.73.06-4.14.02-.27-2.45-.41-4.91-.34-7.38-.23 2.45-.2 4.91-.03 7.37h-.03c.01 0 .02 0 .04.02l.06.92c.09.98.22 1.95.35 2.92-1.11.27-2.22.47-3.32.53-.96.06-1.9.02-2.84-.07.15-1.44.33-2.87.53-4.3l-.1.05zm13.97 84.3.19.33a.72.72 0 0 1-.19-.33z" fill="#000"/><path d="M33.84 141.74c.35-.03.61-.08.89-.14.55-.13 1.07-.31 1.56-.55.49-.24.96-.53 1.4-.87.44-.36.86-.75 1.2-1.3-.65-.08-1.21 0-1.77.12-.55.13-1.07.31-1.56.55-.49.24-.96.53-1.4.88-.22.17-.44.39-.6.55-.18.17-.31.36-.65.34.05.16.21.3.39.35.18.07.36.07.53.07h.01zM29.97 41.76c-.07-.19 0-.4.17-.65.16-.23.45-.45.72-.77.27-.31.53-.79.44-1.33-.05-.27-.21-.54-.45-.69-.23-.16-.49-.21-.71-.21-.44 0-.85.16-1.16.28-.32.12-.65.2-.93.11-.29-.09-.48-.43-.62-.76.03.35.08.79.48 1.05.39.24.84.18 1.21.12.39-.08.69-.15.98-.11.29.03.41.16.42.33.01.2-.07.44-.29.67-.21.23-.5.47-.76.83-.12.18-.23.39-.29.64-.06.24-.03.54.08.77.22.44.49.67.56.88v.04c.06.16.23.26.4.21 1.01-.3 1.97-.77 2.79-1.41-.89.3-1.76.53-2.65.7-.14-.32-.34-.53-.39-.71v.01zM34.36 38.76c.34-.12.51-.25.76-.37l.69-.38 1.37-.77c.16-.09.23-.29.15-.46v-.02a51.1 51.1 0 0 1-2.5-6.31c-.34-1.08-.65-2.17-.93-3.27s-.53-2.21-.76-3.34c0 1.15.09 2.3.26 3.44.17 1.14.4 2.27.7 3.39.58 2.12 1.39 4.19 2.41 6.13l-1.04.67-.66.43c-.21.14-.46.33-.61.4-.26.17-.65-.39-.99-.74-.35-.39-.71-.78-1.08-1.15.28.45.57.88.87 1.32.15.22.28.43.45.66.09.11.19.23.35.32.15.09.38.11.55.06l.01-.01zM41.71 27.24c.42-.19.85-.35 1.21-.43.34-.07.56-.08 1 .07.42.14.9.44 1.5.68-.05-.64-.27-1.22-.73-1.73-.23-.25-.55-.47-.94-.59a2.23 2.23 0 0 0-1.17-.05c-.71.16-1.28.54-1.7 1.05-.41.51-.66 1.16-.56 1.8.54-.36.97-.61 1.41-.81l-.02.01zM53.53 24.73c.35-.14.71-.1 1.13.07.41.17.82.46 1.28.71-.21-.48-.5-.92-.95-1.26-.43-.35-1.14-.53-1.73-.3-.56.22-.97.55-1.33.95-.35.4-.62.88-.71 1.4.4-.35.76-.65 1.15-.92.38-.25.8-.52 1.17-.65h-.01zM51.34 37.72c.13.19.26.37.4.56.03.04.06.07.08.11-.7.42-1.48.75-2.31 1 .91.08 1.85-.09 2.71-.47.06-.03.16-.07.26-.2.1-.14.1-.34.07-.44-.08-.23-.16-.3-.2-.39-.12-.19-.23-.37-.34-.57-.22-.38-.44-.76-.64-1.15-.84-1.54-1.5-3.15-2.19-4.83.04 1.82.61 3.61 1.45 5.22.22.4.45.79.71 1.17v-.01zM47.2 42.76c.19.37.47.69.8.95.42.34.92.57 1.44.73 1.04.28 2.1.26 3.11-.05-1-.35-1.97-.48-2.88-.75-.83-.24-1.6-.56-2.39-1.07.11-.36.16-.75-.01-1.19-.45.28-.64.62-.79.98-.12.37-.18.76 0 1.26.38-.22.59-.52.73-.85l-.01-.01zM43.66 30.34c-.44 0-.8 1.01-.8 2.26 0 1.25.36 2.26.8 2.26.44 0 .8-1.01.8-2.26 0-1.25-.36-2.26-.8-2.26zM54.34 28.52c-.46 0-.83 1.07-.83 2.39s.37 2.39.83 2.39c.46 0 .83-1.07.83-2.39s-.37-2.39-.83-2.39zM109.589 21.74c-.46-1.24-1.18-2.11-1.61-1.95-.43.16-.4 1.29.06 2.53.46 1.24 1.18 2.11 1.61 1.95.43-.16.4-1.29-.06-2.53zM98.79 22.68c-.43.16-.4 1.29.06 2.53.46 1.24 1.18 2.11 1.61 1.95.43-.16.4-1.29-.06-2.53-.46-1.24-1.18-2.11-1.61-1.95zM102.01 158.71c-.33.17-.67.35-1.1.65.35.39.8.56 1.24.65.45.07.91.03 1.33-.11.43-.14.82-.38 1.13-.71.31-.33.56-.74.6-1.27-.52.01-.9.08-1.27.14-.36.07-.68.15-1 .26-.32.11-.62.23-.95.39h.02z" fill="#000"/><path d="M121.7 147.99c-1.06-2.33-2.21-4.65-3.53-6.86-.66-1.11-1.36-2.19-2.08-3.25s-1.51-2.13-2.48-3.07c-.96-.93-2.16-1.75-3.55-2.04-1.38-.27-2.66-.14-3.93-.13-2.5.1-5 .14-7.5.29.49-2.35.98-4.72 1.27-7.12.31-2.65.46-5.36 0-8.02-.22-1.32-.53-2.64-1.07-3.89-.54-1.24-1.33-2.43-2.48-3.24-1.17-.83-2.62-1.04-3.95-1.12-1.34-.09-2.7-.09-4.05.08-1.35.16-2.71.51-3.98 1.07-1.27.55-2.45 1.28-3.54 2.11-2.17 1.67-4.01 3.73-5.53 5.98-.78 1.15-1.46 2.35-2.07 3.58-.35-.04-.67-.03-.98 0-.44.06-.84.17-1.23.34-.38.17-.75.39-1.09.67-.34.29-.66.62-.93 1.11.51.15.97.14 1.42.1.44-.06.86-.18 1.26-.35.34-.14.65-.34.95-.56-1.43 3.24-2.38 6.68-3.05 10.11-.52 2.62-.9 5.25-1.26 7.88-.38 2.63-.77 5.25-1.24 7.86-.75 3.97-1.59 7.93-2.43 11.89l-2.59 11.85s0 .05.02.08l.75 1.02.02.02c1.28 1.12 2.71 2.05 4.22 2.82h-.09c-.37.17-.57.39-.73.6-.14.22-.27.45-.23.72.04.27.24.58.23.83 0 .26-.15.48-.37.69-.22.2-.4.42-.5.65-.12.23-.25.46-.28.71-.05.51.02 1.04.41 1.67.03.05.1.07.16.04.64-.35.95-.79 1.15-1.27.09-.24.09-.5.09-.76.02-.26-.04-.53-.14-.82-.09-.28-.12-.55 0-.78.11-.23.43-.42.6-.64.16-.22.16-.48.14-.75-.05-.27-.12-.55-.37-.86-.02-.02-.04-.04-.07-.04 2.2 1.13 4.57 1.93 7 2.43 1.45.3 2.92.51 4.39.65-.04.04-.07.08-.11.12-.15.22-.28.45-.25.72.04.27.23.59.22.84 0 .26-.15.48-.36.69-.22.21-.39.43-.49.66-.12.23-.24.47-.26.72-.03.51.07 1.05.5 1.64.04.05.11.06.16.03.61-.4.9-.84 1.07-1.31.08-.23.06-.49.06-.74.01-.25-.05-.52-.15-.8-.09-.28-.12-.54 0-.77.11-.23.43-.4.6-.61.17-.21.17-.46.15-.72-.02-.13-.04-.26-.09-.39l.78.06c2.09.14 4.17.14 6.24.12.28 0 .55-.16.67-.44v-.03c1.13-2.43 2.14-4.91 3.04-7.42.92-2.51 1.73-5.06 2.42-7.65.49-1.74.89-3.5 1.27-5.27 1.69.07 3.38.02 5.07-.13.71 2.2 1.46 4.38 2.22 6.56.82 2.3 1.65 4.59 2.52 6.87.87 2.28 1.77 4.55 2.72 6.8.96 2.25 1.94 4.49 3.04 6.68-.57-2.39-1.25-4.74-1.96-7.08-.72-2.33-1.48-4.65-2.29-6.96-.8-2.31-1.66-4.59-2.54-6.87-.87-2.19-1.77-4.38-2.73-6.54.61-.27 1.1-.68 1.52-1.14a6.3 6.3 0 0 0 1.04-1.65c.26-.6.43-1.24.49-1.89.05-.65.02-1.32-.24-1.99-.44.56-.73 1.1-1.02 1.63-.28.53-.53 1.06-.76 1.59 0 .02-.01.03-.02.05.03-.18.06-.35.08-.53.06-.67.03-1.34-.08-2-.12-.67-.31-1.33-.69-1.96-.31.67-.47 1.31-.62 1.94-.13.63-.22 1.26-.27 1.89-.05.63-.07 1.26-.04 1.91.03.53.09 1.06.21 1.63a.502.502 0 0 0-.3-.03c-1.76.4-3.54.75-5.33 1.09.72-3.41 1.29-6.86 1.82-10.28.79-5.26 1.55-10.47 2.69-15.65.05-.24.1-.48.15-.73 2.5.22 5 .34 7.49.51 1.27.09 2.57.06 3.68.37 1.11.32 2.08 1.01 2.89 1.89.82.88 1.5 1.91 2.18 2.96.68 1.06 1.32 2.14 1.94 3.24 1.24 2.19 2.36 4.44 3.38 6.76 1.05 2.3 2.02 4.65 3.02 6.99 1.02 2.33 2.02 4.68 3.07 7 2.06 4.66 4.23 9.27 6.49 13.85-1.67-4.82-3.43-9.61-5.29-14.35-1.86-4.75-3.73-9.47-5.78-14.17l.02.01zm-21.65 10.39c-.05.18-.09.36-.12.56-.02-.04-.03-.07-.05-.11l-.03-.06s-.03-.04-.04-.06l.24-.33zm-2.57-24.95c-1.4 5.14-2.33 10.41-3.23 15.63-.88 5.23-1.89 10.4-3.3 15.47-.7 2.54-1.49 5.05-2.34 7.54-.81 2.34-1.71 4.65-2.65 6.94-1.89.09-3.77.17-5.65.18-2.05.01-4.1-.08-6.12-.36-2.02-.29-4.02-.77-5.94-1.51-1.9-.75-3.72-1.77-5.28-3.11l-.73-.97 2.57-11.82c.84-3.96 1.68-7.92 2.42-11.89l1.41-7.84c.51-2.6 1.06-5.2 1.73-7.75 1.36-5.09 3.27-10.04 6.15-14.35 1.44-2.14 3.15-4.11 5.13-5.76 1.96-1.66 4.26-2.88 6.82-3.28 1.27-.22 2.58-.29 3.88-.27 1.3 0 2.6.16 3.64.87 1.05.69 1.82 1.78 2.34 2.96.53 1.18.84 2.47 1.03 3.76.39 2.59.26 5.25-.16 7.84-.42 2.6-1.07 5.16-1.74 7.73l.02-.01zM107.26 15.1c-.29-.06-.6-.06-.89 0-.57.13-1.07.48-1.38.93-.32.44-.49.95-.5 1.47.34-.39.64-.75.98-1.03.34-.28.7-.47 1.09-.55.38-.1.73-.05 1.17.11.42.15.91.4 1.44.39-.4-.32-.7-.67-1.14-.97-.21-.16-.47-.28-.76-.35h-.01zM104.949 31.74c.17-.79.25-1.59.29-2.39.04-1.6-.14-3.23-.72-4.74-.07 1.61-.05 3.16-.12 4.71-.02.78-.06 1.55-.1 2.33l-.02.29v.16c-.01.07 0 .23.11.35.24.19.3.12.41.16.1.02.2.03.31.04.41.04.82.03 1.22-.06-.39-.1-.77-.2-1.13-.34l-.27-.1s-.05-.02-.07-.03l.02-.09.06-.29h.01zm-.15.36c-.04-.02-.05-.03 0 0zM108.53 35.51c.76-.5 1.2-1.47.94-2.3-.41.73-.85 1.24-1.4 1.6-.55.37-1.19.58-2.02.67.67.56 1.73.52 2.48.02v.01zM125.81 27.9c.86-.4 1.57-1.11 2.06-1.92 1-1.63 1.22-3.7.62-5.54-.3-.92-.82-1.78-1.51-2.48-.69-.67-1.64-1.26-2.71-1.3-1.04-.05-1.98.34-2.73.86-.74.55-1.32 1.21-1.83 1.91.75-.44 1.47-.91 2.23-1.2.74-.3 1.52-.42 2.19-.29 1.31.27 2.32 1.64 2.78 3 .45 1.41.41 3.02-.19 4.42-.31.7-.73 1.35-1.34 1.83-.6.49-1.36.83-2.23.67.36.25.82.38 1.29.37.47-.01.93-.15 1.37-.34v.01z" fill="#000"/><path d="M122.46 25.56c.32 0 .66-.07.96-.28.3-.21.51-.62.46-1.05a.927.927 0 0 0-.31-.61c-.18-.16-.36-.23-.46-.29a.853.853 0 0 1-.39-.48.812.812 0 0 1-.03-.59c.05-.17.21-.3.46-.42s.55-.21.85-.36c.29-.14.62-.4.66-.73-.45.48-1.05.29-1.72.48-.33.07-.75.29-.96.7-.2.4-.17.85-.04 1.22.14.37.43.71.81.89.37.15.41.14.49.33a.7.7 0 0 1-.11.64c-.15.22-.4.4-.67.57v-.02zM88.11 43.54c.5.62 1.06 1.05 1.37 1.57.3.48.37 1.21-.01 1.53-.18.18-.57.26-.91.55-.33.28-.52.69-.57 1.08-.12.79.22 1.59.76 2.09.54.52 1.19.85 1.82 1.17-.6-.39-1.2-.8-1.64-1.34-.46-.52-.66-1.21-.51-1.85.07-.31.24-.58.47-.74.22-.17.58-.21.97-.48.39-.28.58-.76.6-1.18.03-.43-.07-.85-.26-1.24-.39-.74-.97-1.23-1.33-1.76-.35-.51-.54-1.12-.55-1.74-.03-1.25.57-2.48 1.65-3.05.55-.33 1.3-.6 1.95-1.26.65-.67.94-1.58.97-2.41.04-.84-.14-1.68-.43-2.4-.29-.73-.65-1.39-.99-2.01-.68-1.22-1.2-2.44-1.28-3.7-.09-1.22.33-2.48 1.19-3.2.22-.19.51-.39.83-.66.31-.26.68-.61.9-1.11.23-.49.26-1.02.23-1.46-.04-.45-.14-.84-.23-1.2-.39-1.36-.65-2.7-.74-4.06-.21-2.7.6-5.41 2.14-7.66s3.85-3.97 6.53-4.71c2.66-.8 5.62-.67 8.3.37-2.53-1.39-5.6-1.74-8.49-1.16-1.45.3-2.84.88-4.11 1.68-1.26.81-2.36 1.86-3.27 3.06-1.83 2.38-2.8 5.46-2.66 8.49.05 1.5.36 2.99.73 4.39.18.66.25 1.24.08 1.55-.13.33-.67.67-1.32 1.19-1.35 1.17-1.85 2.95-1.72 4.57.12 1.62.79 3.1 1.52 4.35.72 1.25 1.38 2.4 1.34 3.6-.01.59-.19 1.13-.53 1.51-.34.4-.95.69-1.62 1.11-.68.42-1.31 1.1-1.64 1.84-.35.75-.5 1.57-.42 2.38.06.81.37 1.61.87 2.25l.01.05z" fill="#000"/><path d="M111.84 1.82c1.24-.42 2.58-.72 3.86-.86 2.57-.31 5.15.71 6.93 2.45.89.89 1.59 1.95 2.09 3.1.25.58.44 1.18.57 1.79.15.61.18 1.21.29 1.95.1.7.36 1.61 1.03 2.25.65.63 1.47.92 2.17 1.09 1.41.32 2.72.42 3.45 1.07.76.64 1.12 1.82 1.09 3.02 0 .61-.08 1.25-.16 1.91-.08.65-.2 1.38-.13 2.18.05.78.41 1.74 1.13 2.29.69.57 1.46.76 2.11.95.67.17 1.28.33 1.75.58.46.26.75.59.86 1.1.12.51.06 1.12-.08 1.72-.14.62-.36 1.28-.46 2.01-.05.37-.07.74-.03 1.15.04.4.22.88.56 1.19.68.63 1.5.68 2.21.68.71-.04 1.35-.15 1.94-.04.59.09 1.05.49 1.29 1.07.52 1.17.1 2.62.52 3.92-.25-1.33.36-2.66-.11-4.08-.11-.34-.29-.68-.57-.96-.27-.28-.63-.47-1-.57-.73-.2-1.45-.13-2.08-.16-.61-.03-1.24-.18-1.53-.53-.15-.17-.21-.36-.23-.62-.01-.27.02-.57.08-.86.13-.6.36-1.21.55-1.89.19-.69.33-1.45.19-2.27-.07-.41-.23-.83-.49-1.19s-.6-.65-.95-.87c-.71-.41-1.42-.58-2.05-.77-.62-.19-1.2-.39-1.53-.7-.35-.29-.5-.71-.54-1.26-.06-1.1.33-2.49.34-3.95.03-1.45-.32-3.15-1.64-4.3-.67-.56-1.46-.83-2.17-.99-.71-.17-1.38-.25-1.98-.39-.6-.13-1.1-.34-1.42-.65-.33-.31-.49-.76-.61-1.37-.11-.59-.18-1.34-.37-2.03-.18-.7-.42-1.38-.72-2.03-.59-1.31-1.46-2.49-2.53-3.46-2.13-1.93-5.15-2.85-7.93-2.31-1.37.28-2.65.7-3.91 1.26-.62.29-1.23.64-1.75 1.1-.51.46-.92 1.05-1.11 1.7.56-1.26 1.8-1.95 3.02-2.39l.05-.03zM133.75 41.47c.02-.63-.18-1.22-.46-1.69-.58-.94-1.42-1.51-2.05-2.02-.33-.25-.6-.5-.83-.78-.22-.29-.42-.6-.58-.94-.6-1.39-.58-3.18.37-4.69-1.49 1.04-2.14 3.21-1.59 5.11.14.48.34.95.63 1.38.3.43.64.8.98 1.11.69.62 1.32 1.09 1.64 1.67.17.28.26.55.26.8 0 .27-.11.64-.22 1.08-.09.44-.27 1-.04 1.72.12.35.35.65.64.86.3.21.61.29.89.34.55.07 1.01.01 1.42-.02.41-.03.79-.04.99.09.12.06.22.15.28.32.07.17.11.39.2.62.07.23.25.5.48.6.21.12.54.13.67-.08-.2.13-.41.01-.52-.13-.14-.15-.17-.29-.18-.5 0-.2 0-.41-.02-.67-.03-.26-.16-.57-.38-.78-.47-.46-1.05-.49-1.49-.56-.45-.06-.88-.07-1.19-.17-.3-.11-.37-.23-.4-.37-.04-.13.03-.46.17-.85.12-.39.3-.86.33-1.47v.02z" fill="#000"/><path d="M132.82 47.94c-.39-.15-.76-.36-.98-.61-.23-.27-.32-.49-.36-.9-.05-.39-.05-.98-.39-1.56-.31-.56-.78-.95-1.22-1.24-.89-.55-1.77-.84-2.28-1.29-.5-.4-.59-.85-.4-1.68.08-.4.23-.84.35-1.32.12-.5.19-1.04.15-1.55-.09-2.07-1.37-3.98-3.13-4.68 1.36 1.28 1.97 3.05 1.84 4.66-.03.41-.14.78-.25 1.17-.13.4-.31.82-.47 1.32-.15.49-.26 1.08-.13 1.73.11.65.52 1.24.97 1.62.93.73 1.85.97 2.54 1.38.35.18.62.39.78.63.17.21.24.57.37 1.08.11.49.44 1.15.93 1.47.28.2.57.33.86.42-.65.84-1.81 1.19-2.72.85-.49-.18-.89-.54-1.15-.98-.13-.22-.22-.45-.27-.69-.05-.25-.04-.45-.02-.76.03-.29-.03-.74-.25-1.06-.21-.33-.51-.56-.81-.72-.62-.33-1.28-.38-1.8-.48-.54-.1-.91-.25-1.21-.56-.3-.31-.49-.74-.6-1.21-.22-.95 0-1.96.22-3.1.11-.57.22-1.16.25-1.8a6.087 6.087 0 0 0-2.36-5.14c-.99-.77-2-1.27-2.49-1.98-.52-.66-.52-1.6-.33-2.66.18-1.06.56-2.18.6-3.48.01-.65-.08-1.35-.36-2-.28-.64-.73-1.19-1.23-1.61-1-.85-2.11-1.29-3.09-1.8-1.01-.49-1.85-1.06-2.54-1.88-.7-.8-1.22-1.78-1.6-2.81-.8-2.07-.92-4.39-1.12-6.66-.16 2.28-.23 4.6.35 6.91.31 1.14.8 2.25 1.53 3.24.71 1 1.77 1.78 2.78 2.34 1.01.59 2.02 1.09 2.75 1.75.74.66 1.05 1.48.98 2.47-.05.99-.4 2.06-.63 3.25-.11.6-.19 1.24-.14 1.93.04.69.3 1.41.72 2 .88 1.17 2.04 1.65 2.83 2.29.79.59 1.35 1.43 1.64 2.36.31.93.23 1.92.04 3.04-.09.56-.19 1.14-.23 1.76-.04.63.02 1.29.19 1.92.18.63.5 1.26 1.03 1.75.53.5 1.29.73 1.88.77.61.06 1.12.07 1.53.26.21.09.39.21.5.36.11.15.15.29.17.57 0 .26.03.63.14.94.1.31.25.6.44.86.38.51.93.89 1.54 1.05.57.14 1.15.07 1.66-.16-.44 1.38-.84 2.76-1.22 4.15-.4 1.39-.75 2.78-1.12 4.18-.34 1.4-.71 2.79-1.03 4.2-.24 1.07-.49 2.1-.88 2.99l-9.02-7.36c-3.26-2.65-6.49-5.35-9.83-7.96 2.78 3.2 5.79 6.17 8.9 9.03 3.12 2.85 6.36 5.57 9.7 8.16h.01l.07.06a.8.8 0 0 0 1.1-.26c.88-1.42 1.09-2.97 1.36-4.36.27-1.41.5-2.84.75-4.25.22-1.42.47-2.84.66-4.27.21-1.43.4-2.86.55-4.29.52-.23.96-.62 1.22-1.11.2.06.4.11.59.14 1 .13 1.87-.02 2.78.22-.76-.58-1.8-.69-2.58-1.01l-.01-.04z" fill="#000"/><path d="M109.239 46.01c.09.61.24 1.21.46 1.8.22.59.49 1.17.93 1.72.25-.66.33-1.3.37-1.92.03-.62 0-1.24-.1-1.84-.09-.6-.24-1.2-.46-1.79-.21-.54-.46-1.08-.84-1.61.85-.13 1.68-.35 2.47-.65 2.38-.94 4.48-2.51 5.93-4.55-1.73 1.78-3.86 3.14-6.19 3.77-2.3.69-4.82.71-6.72-.57-.97-.62-1.85-1.46-2.66-2.32-.82-.87-1.54-1.82-2.16-2.84-1.28-2.02-2.2-4.27-2.84-6.59-.68-2.32-1.05-4.73-1.26-7.16-.05-.59-.09-1.18-.1-1.76.62.02 1.1.03 1.6.08.54.04 1.05.13 1.73.23-.29-.64-.98-.99-1.65-1.06-.61-.05-1.26.14-1.68.6-.03-1.77.15-3.52.71-5.14.76-2.22 2.33-4.12 4.57-5.03 2.21-1.01 4.72-1.27 7.12-1.89-1.23.11-2.48.23-3.72.37-1.24.12-2.48.37-3.7.77-1.21.41-2.4 1.08-3.33 2.03-.95.93-1.64 2.08-2.15 3.29-1.02 2.45-1.1 5.12-.97 7.63.16 2.52.54 5.04 1.22 7.5.34 1.23.77 2.43 1.29 3.6a22.12 22.12 0 0 0 1.82 3.39c.7 1.08 1.51 2.09 2.43 3 .91.92 1.88 1.76 3.05 2.42 1.15.67 2.54 1.04 3.86 1 .4 0 .8-.05 1.2-.1-.21.6-.28 1.19-.32 1.77-.03.63.01 1.24.1 1.85h-.01zM112.899 50.65c-.63-.41-1.3-.74-1.67-1.41.17.77.82 1.33 1.33 1.84.55.52 1.09 1.04 1.64 1.54 1.1 1.02 2.23 2 3.37 2.98 1.14.97 2.29 1.93 3.47 2.86 1.16.95 2.36 1.85 3.54 2.76l.02.02c.08.06.17.11.27.13.42.12.85-.13.97-.55.53-1.89.95-3.82 1.25-5.76.28-1.95.46-3.9.43-5.87-.52 1.89-1 3.77-1.54 5.63-.41 1.48-.86 2.95-1.32 4.41-.86-.7-1.73-1.39-2.61-2.06-1.18-.92-2.38-1.82-3.59-2.7-1.21-.88-2.44-1.75-3.69-2.58-.62-.43-1.26-.83-1.88-1.24h.01zM160.76 114.98c.05.27.48.38.77.15.29-.23.33-.6.33-.89-.03-.57-.26-1.11-.55-1.53-.57-.83-1.17-1.48-1.85-2.13-.67-.64-1.4-1.22-2.19-1.73-.79-.5-1.62-.95-2.56-1.22.52.83 1.11 1.53 1.71 2.22.61.68 1.24 1.32 1.89 1.94.64.61 1.36 1.24 2 1.77.3.27.58.53.75.86.09.15.14.29.12.42 0 .1-.22.3-.42.15v-.01zM188.009 38.62c-.02-.06-.07-.09-.12-.08-.47.12-.91.32-1.31.59-.02-.09-.03-.17-.06-.25-.08-.26-.18-.53-.36-.79-.17-.26-.44-.54-.82-.68-.37-.14-.8-.09-1.08.06-.29.15-.49.34-.65.54-.07.1-.14.2-.2.3-.08-.24-.19-.47-.34-.69-.08-.12-.19-.28-.39-.43a.988.988 0 0 0-.75-.18c-.45.11-.61.33-.79.49-.34.37-.62.78-.77 1.25.43-.23.82-.44 1.23-.58.2-.08.42-.14.43-.08 0 .03-.09.03-.12.02-.03 0-.01.04.01.12.2.62.11 1.43.11 2.35 0 .88.02 1.71-.07 2.52-.09.81-.28 1.61-.75 2.45.94-.31 1.64-1.18 2.02-2.11.38-.94.47-1.94.47-2.86 0-.46 0-.91-.08-1.42 0-.07-.02-.14-.04-.2.18-.14.37-.25.56-.34.17-.08.34-.14.47-.13.13 0 .17.05.2.1.03.06.15.32.19.65.04.35.09.77.11 1.16.04.79.02 1.58-.06 2.4-.07.82-.22 1.64-.38 2.57.75-.57 1.29-1.37 1.65-2.25.35-.88.5-1.85.45-2.8-.02-.38-.08-.74-.16-1.11.39-.21.8-.36 1.22-.43.67 3.11-.32 6.47-2.5 8.62a9.48 9.48 0 0 1-3.91 2.35c-.75.25-1.42.28-2.36.49-.44.11-1.01.35-1.38.88-.37.54-.38 1.1-.42 1.5-.46 6.43-1.53 12.81-3.2 19.03-.42 1.55-.86 3.1-1.36 4.63-.49 1.54-1.01 3.02-1.77 4.33-.75 1.29-1.84 2.4-3.15 2.95-1.3.56-2.83.44-4.3-.02-1.47-.46-2.93-1.2-4.38-1.89-1.45-.71-2.86-1.48-4.26-2.29-2.7-1.54-5.25-3.33-7.73-5.22.73-2.7 1.09-5.5 1.03-8.28.88 0 1.72-.19 2.54-.47.91-.32 1.78-.78 2.57-1.34.79-.56 1.51-1.23 2.12-1.99.6-.76 1.11-1.6 1.39-2.55l.77 1.1c1.97 2.82 3.93 5.65 5.98 8.44-.79 1.94-1.36 3.97-1.55 6.03.58-2.22 1.38-4.37 2.53-6.32l1.75-2.98c.56-1.05.96-2.17 1.32-3.28.7-2.23 1.21-4.48 1.64-6.76.21-1.14.37-2.29.51-3.44l.19-1.73c.06-.57.09-1.18.16-1.67.07-.51.18-.91.41-1.21.23-.31.59-.57 1.03-.75.87-.39 1.97-.41 3.18-.62.3-.06.61-.13.92-.22.15-.05.33-.1.57-.23.23-.12.52-.43.6-.72.16-.58.09-.75.14-1.05l.07-.83c.12-1.11.29-2.21.54-3.3.25-1.08.61-2.14 1.04-3.16.04-.14.11-.23.14-.27.06.05.13.14.2.23.29.39.46.88.55 1.4.19 1.05.14 2.22.07 3.35a32.98 32.98 0 0 1-.45 3.4c.39-1.08.69-2.2.89-3.34.19-1.15.38-2.28.3-3.51-.05-.61-.21-1.25-.57-1.82-.09-.14-.17-.28-.33-.43-.14-.14-.39-.33-.74-.32-.35 0-.61.22-.75.39s-.23.34-.3.47c-.55 1.05-.97 2.16-1.31 3.29-.34 1.13-.58 2.29-.74 3.46l-.11.88c-.02.19-.04.46-.06.59-.04.01-.1.04-.2.06-.24.07-.49.11-.75.15-1.04.17-2.29.16-3.55.68-.62.25-1.25.65-1.71 1.26-.48.62-.67 1.36-.75 1.98-.08.64-.1 1.18-.15 1.75l-.16 1.69c-.12 1.13-.28 2.25-.45 3.37-.33 2.24-.8 4.47-1.33 6.66-.28 1.09-.62 2.15-1.06 3.17l-1.5 3.08c-.09.21-.17.42-.25.63-1.47-3.13-3.13-6.16-4.9-9.12-1.78-3-3.71-5.92-5.7-8.79-1.02-1.42-2.03-2.83-3.1-4.23-1.1-1.38-2.28-2.8-3.86-3.81-.78-.5-1.65-.92-2.58-1.11-.93-.2-1.89-.19-2.78-.01-.05 0-.09.03-.13.04-1.17-.53-1.86-1.73-1.78-2.74.03-.28.14-.6.26-.99.12-.38.27-.86.25-1.42 0-.53-.22-1.22-.81-1.66-.58-.41-1.13-.43-1.49-.5-1.29-.19-2.53-1.06-2.98-2.29-.22-.6-.21-1.37-.2-2.18 0-.8-.04-1.73-.5-2.43.22 1.64-.87 2.95-.55 4.94.37 1.93 2.1 3.34 3.97 3.61.42.05.71.12.79.19.08.04.17.17.2.44.04.25 0 .56-.09.95-.08.38-.19.85-.14 1.37.12 1.45 1.18 2.56 2.37 2.92-1.45.43-2.76 1.14-4.01 1.91 1.64-.58 3.29-1.22 4.96-1.33 1.66-.16 3.23.39 4.51 1.38 1.28.99 2.35 2.31 3.34 3.69 1 1.4 2.01 2.82 2.99 4.25l5.2 7.43c-.84.53-1.56 1.09-2.3 1.62l-2.17 1.57-2.2 1.53c-.64.45-1.29.9-1.96 1.4-.04-1.24-.15-2.47-.35-3.69-.36-2.14-1.13-4.37-2.71-6-1.58-1.59-3.62-2.38-4.82-4.19.42.99 1.19 1.81 1.97 2.53.78.73 1.61 1.41 2.24 2.2 1.28 1.58 1.8 3.61 2.04 5.64.42 4.12.03 8.34-1.19 12.29-.07.25-.15.5-.23.74-.08.25-.16.46-.26.82-.11.33-.09.93.07 1.28.15.37.28.56.4.8.5.93.98 1.87 1.46 2.81.97 1.87 1.85 3.79 2.73 5.72 1.72 3.86 3.25 7.82 4.68 11.84-.76-4.2-1.97-8.32-3.48-12.33-.75-2.01-1.61-3.97-2.52-5.92-.45-.97-.95-1.92-1.44-2.88-.12-.24-.27-.5-.31-.62-.04-.15-.04-.1 0-.29.04-.15.15-.45.23-.7.09-.26.18-.52.25-.78.07-.23.13-.47.19-.71 2.26 2.15 4.74 4.08 7.32 5.86 1.36.91 2.76 1.76 4.19 2.57 1.43.79 2.87 1.57 4.48 2.16.8.28 1.66.5 2.55.55.89.06 1.83-.07 2.69-.41 1.71-.68 3.03-2.01 3.94-3.48.92-1.48 1.47-3.09 1.98-4.64.52-1.55.99-3.13 1.42-4.7a87.224 87.224 0 0 0 2.96-19.39c.03-.84.1-.99.79-1.23.64-.18 1.59-.29 2.38-.59 1.63-.57 3.08-1.56 4.22-2.83 2.3-2.55 3.01-6.27 2.02-9.4l.02-.1zM126.52 78.41c-2.23 1.33-4.62 2.27-7.42 2.45 1.29.59 2.8.69 4.22.47 1.43-.22 2.81-.75 4.05-1.48 1.24-.73 2.33-1.66 3.29-2.66.97-1.01 1.83-2.1 2.56-3.3-1.22.71-2.32 1.54-3.41 2.32-1.09.79-2.18 1.54-3.29 2.21v-.01zM164.05 138.43a6.237 6.237 0 0 0 .6-3.67c-.1-.63-.28-1.25-.67-1.82-.31.62-.48 1.19-.64 1.76-.15.57-.27 1.12-.35 1.68-.09.56-.15 1.12-.19 1.71-.03.59-.05 1.19.05 1.87.55-.42.91-.96 1.21-1.52l-.01-.01z" fill="#000"/><path d="M166.41 137.64c-.46.16-.87.39-1.24.68-.37.29-.7.64-.97 1.04-.25.38-.44.81-.53 1.33a1.91 1.91 0 0 0-.6-.4c-.34-.14-.7-.18-1.04-.22-2.71-.21-5.4-.44-8.1-.7-5.39-.52-10.77-1.11-16.14-1.87-2.68-.35-5.36-.73-8.04-1.15l-4-.65c-1.31-.24-2.6-.56-3.64-1.33-1.05-.75-1.83-1.85-2.48-3.02-.64-1.17-1.17-2.42-1.72-3.66-1.1-2.47-2.08-5-3.02-7.54.76 2.6 1.66 5.17 2.64 7.7.51 1.26 1.01 2.52 1.63 3.75.63 1.21 1.42 2.41 2.56 3.28 1.14.89 2.56 1.27 3.89 1.52l4.02.69c2.68.44 5.36.85 8.05 1.23 5.38.7 10.78 1.29 16.19 1.68 2.71.19 5.42.35 8.12.47.66.02 1.3.16 1.69.68.4.51.75 1.12 1.12 1.67l2.23 3.4-2.05-3.51c-.36-.58-.66-1.17-1.07-1.75-.05-.07-.13-.14-.2-.21.52-.08.93-.24 1.33-.43.41-.2.78-.43 1.12-.7.34-.27.66-.57.96-.92.29-.36.57-.74.78-1.27-.57-.07-1.06.03-1.52.19l.03.02z" fill="#000"/><path d="M176.69 121.011c-.67-.33-1.33-.59-2-.89-1.34-.56-2.68-1.12-4.03-1.64-2.7-1.06-5.45-1.99-8.23-2.84-2.79-.82-5.61-1.56-8.47-2.09-2.79-.53-5.61-.89-8.45-.95.23-.3.44-.6.64-.91.42-.67.79-1.37 1.03-2.18.82.25 1.63.43 2.42.62 1.74.41 3.42 1.07 5.05 1.88 1.62.81 3.19 1.74 4.78 2.66-1.47-1.08-2.96-2.14-4.55-3.08-1.58-.94-3.25-1.77-5.04-2.3-1.78-.52-3.49-.96-4.77-2.1-1.29-1.09-2.21-2.63-2.5-4.26a.672.672 0 0 0-.73-.55h-.03c-4.78.51-9.55 1.03-14.32 1.47-2.39.21-4.77.4-7.16.55-1.19.08-2.39.13-3.58.18-1.19.04-2.35.08-3.45-.06-2.2-.26-4.1-1.61-5.59-3.36-1.53-1.74-2.7-3.83-3.96-5.88-1.25-2.06-2.49-4.11-3.77-6.15-1.27-2.04-2.53-4.09-3.84-6.11 1.08 2.15 2.2 4.28 3.31 6.41 1.11 2.14 2.24 4.25 3.38 6.37.25.46.5.93.75 1.39.16 2.94.66 5.85 1.41 8.71.42 1.57.91 3.12 1.49 4.64.28.78.63 1.6 1.2 2.34.26.34.58.67.97.94-.34.34-.63.73-.86 1.15l-.02.03a.7.7 0 0 0 .11.8c.44.46 1.02.61 1.43.66.43.05.79.06 1.07.12.28.07.43.13.57.33.15.2.26.54.4.92.58 1.55 1.84 2.77 3.29 3.3h.02s.02.01.04.01c.05 0 .08-.05.08-.09l-.06-.75-.1.58c-1.19-.82-2.01-2.04-2.32-3.34-.08-.34-.13-.75-.37-1.21-.12-.22-.31-.45-.53-.62a2.33 2.33 0 0 0-.69-.34c-.45-.14-.85-.18-1.16-.25-.02 0-.02 0-.04-.01.32-.33.7-.6 1.12-.76a.8.8 0 0 0 .5-.69.802.802 0 0 0-.75-.84h-.03c-.5-.03-.97-.37-1.37-.92-.39-.55-.71-1.21-.99-1.94-.57-1.48-1.13-2.97-1.64-4.48-.86-2.47-1.61-4.97-2.35-7.51.78 1.39 1.61 2.77 2.65 4.05.78.98 1.7 1.87 2.78 2.59 1.07.72 2.34 1.23 3.62 1.42 1.28.21 2.54.18 3.74.14 1.21-.04 2.41-.09 3.62-.16 2.41-.13 4.82-.31 7.22-.55 4.6-.43 9.18-1.04 13.75-1.66.09.28.19.56.3.83-1.34.09-2.64.27-3.93.46-1.37.21-2.73.42-4.08.67-1.35.25-2.7.46-4.1.84-1.37.37-2.81 1.01-3.74 2.13 1.33-.54 2.63-.72 3.99-.86 1.34-.12 2.76-.22 4.15-.48 1.39-.25 2.76-.6 4.1-1.05 1.27-.42 2.5-.95 3.67-1.63.3.69.7 1.33 1.17 1.92-2.53.5-5.01 1.24-7.43 2.11-2.44.86-4.81 1.89-7.14 3.01-2.31 1.15-4.59 2.38-6.76 3.77-2.18 1.38-4.29 2.88-6.25 4.57 2.34-1.11 4.61-2.29 6.89-3.44 2.28-1.14 4.56-2.3 6.85-3.4 2.28-1.13 4.59-2.21 6.9-3.3 2.31-1.08 4.63-2.15 6.94-3.3.42.53.9 1.01 1.44 1.42.77.6 1.67 1.06 2.58 1.34.08.03.15.04.23.06-.52.26-.97.57-1.4.9l.12-.18c-.66-.03-1.23.07-1.78.18-.55.12-1.07.27-1.57.45-.51.18-1 .4-1.5.66-.49.27-.99.56-1.48 1 .62.24 1.22.28 1.82.26a6.41 6.41 0 0 0 1.73-.35c.27-.1.53-.21.78-.34l-.39.39c-.53.57-1.03 1.18-1.49 1.83-.45.65-.88 1.33-1.2 2.13.81-.3 1.49-.74 2.14-1.22.64-.48 1.23-1.02 1.77-1.61.28-.3.54-.61.79-.94 2.75.72 5.48 1.42 8.19 2.17 2.77.78 5.53 1.57 8.28 2.42l8.29 2.48c1.39.41 2.78.8 4.18 1.18l2.1.55c.68.2 1.35.44 1.91.92-.42-.6-1.08-1.03-1.74-1.35l-.02.01z" fill="#000"/><path d="M172.21 103.37c-1.51-.06-3.02-.02-4.53.1-1.33.11-2.66.28-3.99.57-1.96-1.84-4.29-3.26-6.71-4.37-2.49-1.17-5.08-2.04-7.57-3.04-1.25-.49-2.49-1-3.68-1.57-1.19-.57-2.41-1.25-3.8-1.71-2.84-.9-5.7-.56-8.35-.46-2.65.19-5.26-.2-7.96-.53-3.59-.46-7.22-.66-10.83-.66-.76-2.96-1.82-5.84-3.04-8.65-1.23-2.85-2.65-5.61-4.15-8.31-1.12-1.97-2.3-3.89-3.51-5.8.02-.36.03-.72.03-1.08-.02-.79-.1-1.56-.24-2.33-.14-.77-.33-1.52-.59-2.27-.27-.74-.58-1.48-1.06-2.19-.2.82-.23 1.62-.22 2.41.02.79.1 1.57.24 2.34.02.13.06.26.08.38-1.57-2.36-3.19-4.68-4.93-6.93 1.31 2.81 2.77 5.53 4.25 8.23l4.5 8.05c.36.63.7 1.26 1.05 1.89-1.07.41-2.13.7-3.23 1.02-1.4.4-2.79.85-4.15 1.37-2.55.97-4.85 2.1-7.55 2.41.23-.18.43-.3.71-.58.14-.14.3-.34.38-.61.09-.26.08-.52.04-.73-.08-.43-.23-.7-.33-.96l-.34-.81c-.24-.54-.49-1.07-.75-1.59-.52-1.05-1.07-2.08-1.65-3.1-1.1-1.89-2.33-3.71-3.61-5.48.15-2.9.59-5.74 1.59-8.35 1.05-2.74 2.73-5.23 4.97-7.03 2.23-1.81 5.05-2.77 7.99-3.17 2.95-.41 6-.35 9.07-.41-2.86-.59-5.78-1-8.76-.89-.11-.31-.31-.59-.47-.84-.24-.34-.37-.65-.34-.84.02-.35.42-.82 1.01-1.39.3-.31.63-.68.86-1.2.25-.51.26-1.27 0-1.76-.51-1-1.24-1.21-1.61-2.02-.2.42-.08.95.05 1.36.14.42.29.8.32 1.08.03.29-.04.41-.17.64-.14.21-.37.47-.64.75s-.62.65-.87 1.11c-.25.44-.44 1.11-.22 1.73.22.63.7.93 1.06 1.14.18.1.36.18.53.26-1.55.08-3.1.37-4.61.86-.32.11-.64.24-.96.37-.3-.62-.54-1.24-.44-1.8.04-.37.2-.69.43-.84l.52-.35c.23-.16.48-.43.62-.72.59-1.22.05-2.48-.64-3.28-.34-.4-.72-.71-1.05-1-.32-.28-.68-.6-.8-.79-.07-.1-.07-.12-.08-.18 0-.06.01-.16.06-.28.11-.25.31-.46.64-.73.31-.27.73-.58 1.09-1.03.35-.44.58-.95.7-1.47.25-1.02.1-2.06-.22-2.96-.34-.9-.81-1.68-1.35-2.43.44 1.76.93 3.57.33 5.01-.14.35-.34.65-.57.9-.22.24-.56.45-.95.74-.38.27-.86.69-1.14 1.27-.14.29-.25.64-.24 1.03 0 .39.16.8.35 1.07.41.54.77.78 1.13 1.09.35.29.67.55.94.82.27.27.45.52.56.83.11.3.13.62.06.85a.68.68 0 0 1-.21.33c-.12.13-.33.27-.53.5-.42.48-.53 1.1-.48 1.63.11.81.53 1.4 1.02 1.89-1.08.48-2.11 1.09-3.05 1.82-2.51 2.04-4.3 4.87-5.17 7.91-.83 2.81-.93 5.76-.49 8.57-.04-.06-.08-.11-.12-.17-1.4-1.86-2.83-3.69-4.41-5.44-1.6-1.72-3.35-3.37-5.43-4.58-2.05-1.26-4.42-1.94-6.75-2.18-2.34-.22-4.66-.16-6.97 0 2.3.21 4.62.31 6.85.8 2.23.44 4.35 1.22 6.18 2.48.76.51 1.47 1.09 2.16 1.7-.25.61-.41 1.22-.52 1.84-.13.75-.18 1.51-.17 2.26 0 .75.08 1.51.23 2.25.16.75.37 1.49.76 2.22.3-.77.44-1.52.55-2.26.09-.75.13-1.49.12-2.23-.01-.74-.07-1.48-.19-2.23-.08-.48-.18-.96-.33-1.45.82.76 1.59 1.58 2.33 2.43 1.48 1.71 2.89 3.53 4.25 5.37 1.37 1.83 2.65 3.72 3.85 5.66.6.97 1.17 1.96 1.71 2.96.27.5.52 1.01.78 1.52l.38.77c.13.26.26.52.28.65.01.16.05.09-.06.24-.11.13-.38.34-.58.52-.43.37-.88.72-1.32 1.07-.89.7-1.83 1.36-2.79 1.98-1.77 1.19-3.68 2.19-5.64 3.1-.13-.72-.26-1.43-.4-2.14-.5-2.34-1.18-4.59-1.78-6.83-.59-2.24-1.07-4.49-1.14-6.87-.63 2.31-.5 4.79-.13 7.13.36 2.36.98 4.64 1.43 6.9l1.42 6.86c.43 2.15.81 4.32 1.19 6.51-.2.14-.41.29-.61.44-1.93 1.44-3.61 3.17-5.18 4.93-1.56 1.78-3.03 3.6-4.53 5.38-1.39 1.63-2.83 3.2-4.41 4.69-.78-.14-1.54-.19-2.31-.21-.49-.01-.98 0-1.46.02-.48.03-.99.04-1.58.2-.59.16-1.17.52-1.57.96-.41.44-.68.92-.89 1.38-.22.47-.36.94-.53 1.39-.07.23-.16.45-.24.68-.04.13-.1.27-.14.35 0-.03-.06-.04-.08 0-.03.02-.08.06-.04.14.09.11.22.07.29.03.15-.09.22-.16.34-.24.2-.16.38-.35.56-.53.34-.38.65-.77.95-1.13.59-.74 1.13-1.25 1.8-1.42.35-.1.81-.15 1.3-.23.48-.08.96-.17 1.44-.29.95-.23 1.9-.51 2.83-.96-.15-.04-.3-.06-.44-.09 1.89-1.02 3.59-2.37 5.13-3.85 1.73-1.64 3.27-3.43 4.83-5.17 1.53-1.76 3.1-3.46 4.77-5.04 1.69-1.57 3.51-2.98 5.58-4.14-2.04.45-3.96 1.41-5.69 2.62.22-2.2.17-4.42-.03-6.61-.14-1.62-.38-3.22-.66-4.81 2.08-.61 4.09-1.47 6.04-2.47.89-.47 1.75-.99 2.59-1.54 1 2.13 2.12 4.18 3.13 6.25 1.02 2.11 1.96 4.24 2.6 6.45.68 2.19 1.07 4.46 1.08 6.75-.02 1.16 0 2.28-.63 3.13-.59.89-1.76 1.62-2.18 2.78.74-.96 1.86-1.34 2.8-2.25.47-.46.81-1.11.98-1.74.19-.63.24-1.24.32-1.85.26-2.46-.09-4.95-.79-7.3-.72-2.35-1.79-4.55-3.06-6.59a41.701 41.701 0 0 0-4.23-5.64c.13-.08.26-.16.39-.25.41-.27.81-.56 1.21-.86 1.3.46 2.77.46 4.13.22 1.5-.26 2.91-.75 4.27-1.26 1.36-.51 2.7-1.09 4.02-1.72 1.03-.49 2.1-1.08 2.97-1.88 1.08 1.93 2.14 3.87 3.19 5.82 1.42 2.67 2.79 5.36 4.18 8.08-1.82 0-3.63.04-5.44.16 5.42.29 10.79.89 16.11 1.78 2.64.48 5.42.92 8.21.82 2.73-.07 5.41-.33 7.78.47 1.19.38 2.36 1.01 3.62 1.6 1.26.58 2.53 1.1 3.82 1.57 2.57.93 5.14 1.76 7.61 2.75 2.46 1.01 4.84 2.25 6.88 3.95 1.02.85 1.96 1.8 2.73 2.89.37.54.76 1.12 1.01 1.71.11.29.17.63.02.92-.07.14-.19.28-.34.36-.12-.39-.3-.74-.47-1.06-.3-.52-.6-.95-.93-1.4-.64-.9-1.38-1.76-2.25-2.51-.86-.75-1.87-1.37-2.99-1.64.76.86 1.41 1.67 2.04 2.52l1.85 2.6c.62.9 1.38 1.7 1.62 2.45.07.19.08.38.08.57-.02.18.07.16-.17.33-.24.17-.53.27-.85.33.03-.19.04-.39 0-.57-.08-.61-.33-1.12-.62-1.56-.3-.43-.6-.8-.94-1.16-.68-.71-1.46-1.3-2.28-1.78-.83-.48-1.69-.87-2.65-1.12.56.82 1.22 1.49 1.85 2.15l1.88 1.9c.6.64 1.23 1.26 1.48 1.86.12.3.19.56.03.88-.14.33-.53.64-.88.98.49 0 1-.07 1.49-.43.26-.19.44-.48.55-.81.38.13.8.16 1.23.08.15-.03.34-.09.54-.25.2-.17.31-.38.38-.55.14-.34.17-.71.15-1.06-.01-.25-.07-.48-.13-.7a.92.92 0 0 0 .43-.35c.21-.31.19-.71.11-1.05-.09-.35-.25-.65-.4-.96-.14-.31-.31-.61-.48-.91-.66-1.16-1.52-2.21-2.47-3.16 1.24.22 2.47.36 3.71.46 1.49.12 2.98.21 4.46.27 1.48.06 2.96.09 4.45.13 1.49.03 2.98.06 4.51.02-1.4-.63-2.88-1.03-4.38-1.31-1.49-.28-3.01-.44-4.52-.5l.03.06z" fill="#000"/><path d="M98.08 205.75c8.599 0 15.57-6.971 15.57-15.57s-6.971-15.57-15.57-15.57c-8.6 0-15.57 6.971-15.57 15.57s6.97 15.57 15.57 15.57z" fill="#fff"/><path d="M99.703 198.665c-3.29.668-6.498-1.451-7.167-4.734l-.595-2.908a1.16 1.16 0 0 1 .91-1.37l9.626-1.965a1.159 1.159 0 0 1 1.371.909l.595 2.908c.668 3.289-1.451 6.498-4.733 7.166l-.007-.006z" fill="#0ABBEF"/><path d="m104.931 191.552-.388-2.494-.047-.314c-.013-.1-.026-.201-.066-.361a1.71 1.71 0 0 0-.328-.628 1.73 1.73 0 0 0-.903-.582 1.73 1.73 0 0 0-.454-.06c-.154 0-.328.033-.408.047l-.094.02a17.087 17.087 0 0 0-.04-.221l-.294-1.691a4.946 4.946 0 0 0-.595-1.652 5.206 5.206 0 0 0-2.707-2.293 5.351 5.351 0 0 0-3.664 0c-1.196.428-2.22 1.331-2.841 2.467-.595 1.13-.822 2.514-.515 3.757.014.074.034.141.047.214.114.528.234 1.057.361 1.585-.12.053-.227.12-.328.194-.24.193-.427.441-.541.715a1.8 1.8 0 0 0-.114.876c.027.16.054.26.08.361l.08.3.623 2.447a6.695 6.695 0 0 0 2.988 4.112c.621.394 1.31.675 2.019.835.555.134 1.13.181 1.698.167H98.647c.12 0 .24-.006.36-.02 0 0 .395-.06.409-.06l.207-.04h.02-.013l.227-.047a6.658 6.658 0 0 0 3.931-2.667 6.693 6.693 0 0 0 1.136-4.954l.007-.013zm-5.876-3.797-4.78.949c-.04-.261-.241-1.471-.281-1.732-.26-1.631.922-3.242 2.447-3.469a2.945 2.945 0 0 1 2.166.448c.621.428 1.083 1.076 1.237 1.825.12.588.254 1.17.387 1.758-.394.074-.789.147-1.176.221z" fill="#000"/><path d="m99.81 194.213-.054-.12-.1-.234c-.127-.295-.254-.589-.368-.89.415-.367.562-.922.408-1.397.08.254.06.542-.067.776a.93.93 0 0 1-.555.468l-.093-.395-.448-.02a.664.664 0 0 1-.502-.261.737.737 0 0 1-.08-.762c.12-.287.468-.528.856-.501.388.02.769.301.889.695a1.344 1.344 0 0 0-.856-.855 1.392 1.392 0 0 0-1.344.28c-.4.335-.621.956-.46 1.538.106.434.434.815.855 1.023.04.2.08.408.133.608l.074.241.094.294c.147.441.642.695 1.05.582.414-.094.694-.515.621-.896-.02-.114-.04-.141-.053-.181v.007z" fill="#000"/><path d="M107.39 177.58c3.27 2.44 5.85 6 6.73 10.2.95 4.16-.14 8.8-2.83 12.17-2.69 3.4-6.74 5.44-10.86 5.96-4.12.57-8.44-.37-11.95-2.75-3.53-2.33-6.09-6.24-6.77-10.52-.74-4.27.31-8.87 2.95-12.37 2.61-3.5 6.73-5.86 11-6.16 4.27-.37 8.45 1.04 11.73 3.47zm-.12.16c-3.27-2.45-7.6-3.15-11.4-2.28-3.8.88-7.2 3.04-9.42 6.12-2.23 3.05-3.31 6.95-2.8 10.75.5 3.79 2.46 7.4 5.51 9.9 3.04 2.5 7.22 3.68 11.17 3 3.96-.66 7.42-3.14 9.56-6.32 2.19-3.18 3.22-7.04 2.93-10.95-.3-3.89-2.24-7.83-5.55-10.22z" fill="#000"/></g><defs><linearGradient id="b" x1="7.911" y1="99.361" x2="184.551" y2="99.361" gradientUnits="userSpaceOnUse"><stop stop-color="#EE882C"/><stop offset=".16" stop-color="#EF8F28"/><stop offset=".42" stop-color="#F2A51F"/><stop offset=".73" stop-color="#F8C80F"/><stop offset="1" stop-color="#FFED00"/></linearGradient><linearGradient id="c" x1="114.89" y1="126.71" x2="184.55" y2="126.71" gradientUnits="userSpaceOnUse"><stop stop-color="#0ABBEF"/><stop offset=".24" stop-color="#0D9ACF"/><stop offset=".76" stop-color="#14598E"/><stop offset="1" stop-color="#174075"/></linearGradient><linearGradient id="d" x1="40.25" y1="148.24" x2="134.19" y2="148.24" gradientUnits="userSpaceOnUse"><stop stop-color="#0ABBEF"/><stop offset=".24" stop-color="#0D9ACF"/><stop offset=".76" stop-color="#14598E"/><stop offset="1" stop-color="#174075"/></linearGradient><clipPath id="a"><path fill="#fff" d="M0 0h188.44v206.07H0z"/></clipPath></defs></svg>