<svg width="150" height="253" fill="none" xmlns="http://www.w3.org/2000/svg"><g clip-path="url(#a)"><path d="M74.45 235.17c40.582 0 73.48-17.331 73.48-38.71s-32.898-38.71-73.48-38.71S.97 175.081.97 196.46s32.898 38.71 73.48 38.71z" fill="url(#b)"/><path d="M148.6 190.5c-.57-1.92-1.29-3.8-2.28-5.52-1.9-3.5-4.54-6.47-7.41-9.07-5.81-5.18-12.71-8.8-19.8-11.57-7.12-2.74-14.54-4.56-22.03-5.75-3.75-.58-7.51-1-11.29-1.27-3.78-.25-7.56-.35-11.34-.32-15.1.2-30.26 2.7-44.26 8.33-6.97 2.83-13.67 6.53-19.27 11.6-2.77 2.54-5.29 5.41-7.07 8.73-.94 1.63-1.6 3.41-2.13 5.21-.51 1.82-.71 3.7-.75 5.58.06-1.88.27-3.76.78-5.57.53-1.8 1.2-3.57 2.15-5.19 1.79-3.31 4.32-6.16 7.1-8.68 5.61-5.02 12.37-8.57 19.34-11.3 7.01-2.7 14.33-4.5 21.73-5.66 3.7-.57 7.43-.98 11.16-1.25 3.74-.24 7.48-.34 11.22-.31 14.94.2 29.94 2.68 43.71 8.23 6.85 2.78 13.42 6.42 18.81 11.32 2.67 2.45 5.09 5.2 6.76 8.34.89 1.54 1.5 3.21 2 4.89.47 1.69.66 3.44.7 5.18-.05 1.74-.23 3.49-.7 5.18-.49 1.68-1.11 3.34-1.99 4.89-1.67 3.14-4.09 5.89-6.76 8.34-5.4 4.89-11.96 8.54-18.81 11.32-13.77 5.54-28.77 8.03-43.71 8.23-3.74.03-7.48-.07-11.22-.31-3.73-.27-7.46-.68-11.16-1.25-7.4-1.17-14.72-2.97-21.73-5.66-6.97-2.73-13.73-6.28-19.34-11.3-2.78-2.52-5.31-5.37-7.1-8.68-.94-1.63-1.62-3.4-2.15-5.19-.52-1.81-.73-3.69-.78-5.57.05 1.88.25 3.76.75 5.58.52 1.8 1.19 3.58 2.13 5.21 1.78 3.33 4.3 6.2 7.07 8.73 5.59 5.07 12.3 8.77 19.27 11.6 14.01 5.64 29.16 8.13 44.26 8.34 3.78.03 7.56-.07 11.34-.32 3.78-.27 7.54-.69 11.29-1.27 7.49-1.18 14.91-3 22.03-5.75 7.09-2.78 13.99-6.39 19.8-11.58 2.87-2.6 5.51-5.57 7.41-9.07.99-1.72 1.72-3.6 2.28-5.52.55-1.93.78-3.95.83-5.96-.05-2.01-.29-4.03-.84-5.96v.02z" fill="#000"/><path d="m26.93 67.49-6.61.93L23.62 86 4.7 82.77l-4 .87 11.76 104.5 4.43.27 22.3-5.77 1.79 10.82h68.71l.41-11.44 22.65 4.19 4.4-.59 4.4-105.66-4.13.15-16.85 3.91-2.71-16.53-32.77-15.02-9.91 1.14" fill="#fff"/><path d="M92.75 113.49c.27.47 1.06.27 1.32-.2.26-.47.17-1.05.13-1.59-.06-.84.01-1.69.22-2.51.08-.3.17-.61.05-.9-.19-.47-.81-.56-1.32-.57-1.32-.03-2.63-.07-3.95-.1-.77-.02-1.56-.04-2.3.16-.6.16-1.16.45-1.77.53-1.29.18-2.58-.59-3.86-.34-.41.08-.82.26-1.23.22-.26-.03-.51-.14-.75-.25a32.754 32.754 0 0 0-12.54-2.87c-2.04-.06-4.1.08-6.1-.36-1.33-.29-2.59-.83-3.91-1.18-1.32-.35-2.74-.51-4.02-.05.14 3.35.46 6.69.97 10" fill="url(#c)"/><path d="M20.79 71.73c-1.07.62-2.19 1.29-2.75 2.39-.57 1.08-.48 2.38-.35 3.6.25 2.35.64 4.7 1.14 7.01.03.14.07.29.17.39.14.14.37.15.57.15 1.68 0 3.37.3 4.95.87-.52-2.53-1.03-5.07-1.55-7.6" fill="#FFED00"/><path d="M72.01 107.95c-1.55.78-3.4.95-5.06.46-.34-.1-.69-.23-1.05-.23-.87 0-1.55.71-2.28 1.17-1.17.73-2.69.86-3.96.33-.33-.14-.65-.31-1-.37-.43-.07-.86.05-1.28.17-1.29.37-2.57.75-3.85 1.14.07.89.23 1.78.48 2.64.04.13.08.27.2.36.12.09.29.09.44.08 2.3-.1 4.59-.11 6.89-.13 3.92-.03 7.84-.05 11.76-.08 3.5-.02 7-.05 10.5.04 3.37.09 6.74.27 10.11.46a9.786 9.786 0 0 0-5.38-2.61c-1.17-.16-2.39-.12-3.47-.57-.74-.31-1.39-.83-2.16-1.04-1.8-.49-3.71.87-5.53.45-.96-.22-1.73-.9-2.55-1.45-.82-.55-1.83-.99-2.76-.67" fill="url(#d)"/><path d="M120.07 70.94c-.85 4.43-2 8.8-3.44 13.07-.73.37-1.36.95-1.79 1.65a26.7 26.7 0 0 1 5.11-1.41c.22-.04.46-.08.63-.24.12-.12.19-.28.25-.44 1.13-2.95 2.27-5.95 2.51-9.1.03-.43.05-.87-.05-1.29-.34-1.39-1.78-2.15-3.08-2.74" fill="#EE882C"/><path d="M68.68 99.3c.21-.62.46-1.23.75-1.81.83 1.09.24 2.73.8 3.98.18-.82.41-1.63.68-2.42.15-.45.36-.94.8-1.14.18 1.1.37 2.21.55 3.31.37-1.03.74-2.06 1.12-3.09.06-.17.13-.35.26-.49s.33-.22.5-.15c.14.06.23.2.31.34.19.34.39.73.29 1.11-.08.28-.3.5-.52.69-1.06.96-2.11 1.93-3.17 2.89-.89-1.05-1.75-2.11-2.59-3.2M79.48 107.91c.21-.76.43-1.51.67-2.26.08-.26.18-.53.35-.74.02-.03.06-.05.08-.03.01 0 .02.02.02.03.28.8.57 1.61.85 2.41.07.19.13.43 0 .58-.09.09-.22.12-.35.15-.26.06-.52.17-.75.32-.08.05-.17.12-.27.13-.19.03-.36-.12-.49-.25" fill="#76B82A"/><path d="m82.97 107.91.36-1.6c.03-.11.08-.25.19-.25.1 0 .16.11.19.21.24.66.45 1.33.64 2a2.71 2.71 0 0 1-1.32-.51M63.27 93.79c-2.14 2.3-4.16 4.7-6.07 7.2.4.12.83-.08 1.21-.26.68-.32 1.39-.59 2.12-.8.09-.03.21-.05.28.01.05.04.07.11.08.18.06.46-.21.91-.2 1.37 0 .07.01.15.06.2.09.11.26.11.4.08.39-.07.77-.21 1.17-.25.4-.04.83.03 1.11.31.33.34.35.86.46 1.32.11.45.33.88.63 1.23.1.11.2.29.09.39a.19.19 0 0 1-.1.05c-1.91.69-4.11.5-5.87-.52-.42-.24-.81-.52-1.25-.7-.62-.25-1.3-.28-1.96-.32-.85-.04-1.71-.08-2.53.14-.09-.58-.17-1.16-.26-1.74a.646.646 0 0 1 0-.24c.04-.14.17-.23.28-.3 1.69-1.12 3.17-2.52 4.72-3.82 1.58-1.32 3.23-2.55 4.96-3.67M81.36 94.67c-4.53 3.02-9.13 6.09-12.64 10.25 2.29.32 4.51 1 6.71 1.68 1.41.43 2.83.87 4.12 1.58-.25-1.11.27-2.24.28-3.38 0-.21-.02-.43-.11-.63-.19-.39-.64-.57-1.06-.65-.51-.09-1.05-.07-1.55.06-.29.08-.58.19-.88.2-.3.01-.63-.12-.76-.4-.15-.33.05-.7.24-1 .3-.48.61-.97.91-1.45.04-.07.09-.16.05-.24-.03-.05-.09-.08-.15-.09-.39-.1-.8.14-1.21.09-.07 0-.15-.03-.19-.09-.11-.14.04-.33.18-.43 2.22-1.72 4.8-3.08 6.45-5.35M89.71 94.29c-1.33.86-2.55 1.9-3.6 3.08-.03.04-.07.08-.07.12 0 .05.02.1.04.15.08.12.19.21.3.3 1.31 1.06 2.62 2.12 3.94 3.17.46-.44.86-.93 1.18-1.48.14-.24.27-.49.29-.77.02-.28-.1-.58-.35-.7-.23-.11-.49-.05-.74-.04-.25.01-.55-.07-.63-.31-.04-.13 0-.26.04-.39.12-.36.28-.7.48-1.02.17-.27.37-.53.49-.82.12-.29.17-.64.02-.93-.15-.29-.53-.45-.81-.29" fill="#0ABBEF"/><path d="M83.62 84.56c-.72.06-1.39.51-1.77 1.12-.38.61-.49 1.38-.36 2.1.05.27.13.54.28.77.33.51.93.77 1.52.88.63.11 1.3.07 1.87-.22.57-.29 1.01-.86 1.06-1.5-.52.49-1.38.56-1.99.18-.61-.38-.92-1.17-.76-1.86.16-.69.78-1.26 1.49-1.37" fill="#FFED00"/><path d="M52.63 83.26c-.73.09-1.44.28-2.12.56.49 5.05.99 10.11 1.82 15.11.08-4.38.15-8.76.23-13.15 0-.18.01-.37.13-.5.1-.11.24-.15.38-.18 5.18-1.34 10.52-1.95 15.85-2.54 2.7-.3 5.4-.59 8.12-.6 2.86-.02 5.77.26 8.55-.42-10.2-.75-20.49-.32-30.58 1.3M64.27 141.65c-2.2-.1-4.4-.14-6.6-.14-.16 0-.34.01-.43.14-.07.09-.07.22-.06.34.19 3.47.55 6.93 1.09 10.36.16-.58.68-1.04 1.27-1.11.59-.07 1.22.23 1.52.75-.02-.42.08-.88.41-1.14.33-.26.91-.19 1.06.2-.02-.44-.03-.89.1-1.32.13-.43.42-.82.84-.96.6-.2 1.3.26 1.45.88.06-.41.13-.83.33-1.19s.6-.64 1.01-.61c.55.05.89.61 1.1 1.11.31.75.54 1.54.67 2.34.16-.44.79-.59 1.19-.35.4.24.59.75.57 1.22.78.03 1.56.27 2.21.71.21-.98.55-1.94 1.02-2.83.15-.29.34-.59.65-.69.31-.1.73.11.69.44.19-.43.69-.69 1.15-.61.23.04.46.15.67.05.09-.04.16-.12.22-.19.79-.91 1.45-2.13 2.64-2.34 0-1.68-.02-3.36-.03-5.04" fill="#0ABBEF"/><path d="m80.77 141.65-2.51.05c-.12 0-.26.02-.33.12-.04.06-.03.14-.03.21.08 1.28.16 2.55.25 3.83 0 .15.02.31.08.44.08.2.25.34.4.49.74.75 1.04 1.81 1.32 2.82.13-.47.7-.78 1.17-.62.47.16.74.74.57 1.2.29-.16.67-.12.92.1.09-.76.36-1.5.79-2.13.18-.27.4-.53.7-.67.56-.27 1.32.05 1.53.64.12-.8.57-1.56 1.22-2.04.11-.08.23-.16.36-.17.34-.04.6.29.78.59.26-.86.64-1.83 1.49-2.13.1-.04.2-.06.3-.03.1.03.17.1.24.17.46.48.77 1.09.88 1.74 0-.36.53-.59.78-.33.1.11.15.25.19.39.23.7.59 1.36 1.04 1.94.35-2.2.37-4.46.05-6.67-3.61.1-7.23.11-10.84.01" fill="#0ABBEF"/><path d="M68.45 154.97c.38-.62.2-1.52-.39-1.94-.59-.42-1.5-.32-1.97.24.1-.58 0-1.21-.35-1.67-.35-.46-1.02-.71-1.56-.49-.44.18-.73.61-.92 1.05-.19.44-.3.91-.54 1.33-.44-.1-.72-.61-1.16-.64-.3-.02-.57.19-.71.45s-.18.56-.21.86a.87.87 0 0 0-1.06-.03c-.34.26-.44.73-.7 1.07 2.87-.45 5.8-.48 8.68-.11M72.82 154.06c.06-.68.12-1.38.38-2.02.16-.39.46-.79.89-.83.5-.04.87.44 1.13.86.15-.4.33-.81.68-1.05.35-.24.93-.18 1.08.22.07-.77.31-1.58.89-2.1.24-.22.62-.38.89-.2.18.12.25.34.3.55.15.66.18 1.35.09 2.03.34-.23.71-.47 1.12-.48.41-.01.86.3.83.71.51-.39 1.35-.18 1.63.39-2.19.33-4.37.72-6.54 1.16M82.99 150.19c.16-.54.42-1.16.97-1.26.35-.06.71.13.93.4.22.27.34.62.43.96.16-.34.37-.66.61-.95.27-.32.63-.62 1.05-.65.5-.04 1 .35 1.08.85.08-.48.16-.97.43-1.37.27-.4.76-.7 1.23-.59.39.1.67.45.78.83.11.38.1.79.07 1.19.2-.32.67-.55.95-.3.13.12.18.3.2.47.07.45.05.92-.05 1.37-.03.12-.06.24-.16.32-.1.09-.25.1-.38.12-2.34.18-4.68.2-7.02.07 0-.3-.02-.62-.19-.87s-.58-.34-.78-.11" fill="#76B82A"/><path d="M74.51 156.69c4.12.11 8.26-.33 12.26-1.32.22-.05.45-.12.61-.27-.23-.57-.97-.69-1.58-.73-.88-.05-1.76-.11-2.65-.16-1.76-.11-3.52-.21-5.27-.32-.63-.04-1.26-.08-1.89-.07-1.86.01-3.7.39-5.52.77l-2.01.42" fill="url(#e)"/><path d="M62.95 154.84c-1.54-.21-3.13-.08-4.62.37-.03 0-.07.02-.08.05-.02.03 0 .08 0 .11.25.66.4 1.36.44 2.07 3.98.09 7.96.16 11.94.2-1.05-1.25-2.73-1.74-4.31-2.12-.92-.22-1.84-.43-2.76-.62M87.22 164.9c-1.48.31-2.89.94-4.11 1.84-.12.09-.25.18-.39.22-.13.03-.27.02-.41 0-1.7-.19-3.46-.46-5.11 0-.06.02-.13.04-.17.09-.07.08-.05.21-.02.31.15.56.33 1.1.55 1.63.1-.15.23-.29.37-.4.04-.03.09-.06.14-.05.06.01.08.08.1.13.16.48.33.95.49 1.43.12-.28.31-.52.55-.7.32.39.57.84.74 1.32.15-.29.59-.3.86-.11s.39.51.5.82c.27.78.49 1.57.71 2.36 3.44.24 6.89.32 10.33.24.09-2.17.13-4.33.11-6.5 0-.18 0-.38-.11-.53-.12-.18-.35-.25-.56-.3-1.42-.35-2.89-.5-4.35-.44 1.33-.64 2.66-1.29 3.98-1.93-1.46-.11-2.94.02-4.36.37M64.38 168.56c-1.33-.61-2.73-1.24-4.2-1.2-.1 0-.22.01-.3.07-.2.14-.15.44-.09.68.33 1.17.54 2.37.62 3.58.05.71.05 1.44.23 2.13.02.07.04.15.11.2.05.04.12.04.19.05.54.02 1.07.05 1.61.07.11-.48.22-.96.33-1.45.11-.48.22-.95.38-1.42.27-.79.7-1.52 1.24-2.16M77.02 187.08c-.2-.85-.73-1.67-1.54-2.01-.47-.2-1-.22-1.51-.21-1.55.04-3.1.39-4.52 1.02-.82.36-1.59.82-2.36 1.27-1.58.93-3.16 1.86-4.73 2.8.16.93.29 1.86.37 2.8.8.03 1.6.07 2.4.1.17 0 .35.01.51-.03.24-.07.44-.25.62-.42 1.21-1.09 2.55-2.03 3.99-2.78.23-.12.47-.24.73-.27.3-.03.6.07.88.18.51.21.99.48 1.43.81.14.11.29.22.46.25.19.03.38-.04.56-.11.83-.34 1.7-.74 2.58-.57.45.09.87.32 1.27.55.5.29 1 .57 1.46.92.38.28.73.61 1.16.81.57.26 1.21.28 1.83.29 1.11.02 2.21.02 3.32 0-.06-.7-.24-1.39-.53-2.03-.08-.16-.17-.33-.32-.42-.2-.12-.46-.08-.69-.03-.55.11-1.1.23-1.66.34-.28.06-.57.11-.84 0-.22-.09-.38-.27-.54-.46-.29-.34-.58-.68-.87-1.01-.24-.28-.49-.56-.84-.67-.25-.07-.52-.04-.78 0-.77.1-1.53.19-2.3.29.2-.55.32-1.12.34-1.71" fill="#76B82A"/><path d="m76.63 185.34 3.59-1.66c.09-.04.19-.09.29-.08.13 0 .23.09.33.17.44.39.83.83 1.16 1.33.16.24.34.52.63.54.13 0 .26-.04.39-.09.52-.2 1.06-.32 1.61-.38.35-.04.72-.04 1.04.11.22.1.41.26.58.43a9.964 9.964 0 0 1 2.66 4.38c-1.13-.74-2.25-1.48-3.38-2.22-.24-.15-.48-.31-.76-.36-.63-.1-1.18.39-1.74.71-.09.05-.19.1-.29.09-.1-.01-.18-.08-.25-.15-.54-.49-1.03-1.03-1.63-1.44-.6-.41-1.36-.66-2.06-.47-.46.12-.85.41-1.22.71-.08.06-.16.13-.26.14-.23.03-.39-.21-.49-.42-.16-.32-.32-.65-.47-.97" fill="#76B82A"/><path d="M60.84 174.42c.33 3.83.72 7.65 1.18 11.46-.05-3.37.19-6.74.72-10.06 8.59-.27 17.18-.79 25.74-1.55M58.76 157.87c.65 4.19 1.14 8.4 1.49 12.63.23-3.34.61-6.67 1.15-9.97l9.46-.81 20.74-1.77c-.22-.17-.52-.25-.8-.2M95.98 157.64c-.23 5.43-.47 10.87-.7 16.3l2.24-.04c.32-4.42.63-8.84.95-13.26 0-.11.02-.23.1-.3a.42.42 0 0 1 .22-.08c1.69-.27 3.39-.49 5.07-.82a39.54 39.54 0 0 0 6.42-1.83M95.47 174.59c-.72 5.99.03 12.1-.92 18.06l1.47-.15c.08 0 .18-.02.23-.09.05-.06.05-.13.06-.21l.48-8.77c.12-2.13.23-4.25.47-6.37.01-.09.03-.2.09-.26.06-.05.14-.07.21-.09 4.12-.85 8.25-1.71 12.37-2.56M111.6 130.36c-4.95.18-9.9.16-14.85-.05-.13 3.24-.25 6.48-.38 9.72.67-.13 1.36-.18 2.04-.14.44-2.37.77-4.76.98-7.16.01-.15.04-.33.16-.42.08-.06.18-.07.27-.09 4.01-.52 8.1-.58 11.99-1.69" fill="#0ABBEF"/><path d="M111.4 140.81c-4.15.66-8.29 1.34-12.42 2.06-.47 4.81-1.02 9.62-1.65 14.42-.45-.08-.92-.11-1.37-.09.02-3.56.03-7.12-.08-10.67-.07-2.19-.19-4.42.4-6.53.02-.08.05-.16.1-.22.1-.11.28-.11.43-.11 4.85.18 9.7.35 14.56.53M108.98 85.25a41.05 41.05 0 0 0-10.83-2.36l-.05 1.77c-.14 4.85-.29 9.7-.07 14.54.4-4.55 1.15-9.07 2.26-13.51 4.45-.41 8.9.46 13.28 1.32.13-.11.1-.33-.02-.46-.12-.13-.29-.18-.45-.23-1.23-.37-2.45-.73-3.68-1.1M109.65 113.27c-4.04 0-8.08.04-12.12.12-.1 0-.2 0-.28.06-.12.09-.14.27-.13.42.02 3.66-.19 7.32-.62 10.96.55-.99.78-2.12 1.02-3.23.48-2.17 1.07-4.32 1.77-6.43.03-.09.06-.19.14-.25.07-.05.16-.07.25-.08 3.5-.48 7.1-.33 10.49-1.29M61.08 117.75c-.8.62-.92 1.76-.97 2.77-.05.95-.1 1.89-.13 2.84-.09 3.05.05 6.1.42 9.12l1.92-1.68c.12-.1.24-.21.31-.36.05-.12.06-.26.06-.4.05-3.1.11-6.2.16-9.29.01-.6.02-1.22-.17-1.79-.19-.57-.62-1.1-1.21-1.24" fill="#0ABBEF"/><path d="m60.69 116.98 1.4 1.25c.16.14.32.28.52.36.23.08.48.07.72.06 3.38-.2 6.77-.14 10.16-.09 4.1.07 8.2.13 12.31.2.24 0 .48 0 .69-.11.13-.08.23-.19.33-.31l1.15-1.36a82.99 82.99 0 0 0-8.49-.34c-1.86.02-3.72.11-5.58.15-3.06.07-6.13.03-9.19-.05-1.21-.03-2.43-.07-3.6.22M59.68 116.89c-1.87-.16-3.76-.19-5.63-.08l1.38 11.66.28-10.11c0-.09 0-.19.06-.26.06-.09.18-.13.29-.16 1.28-.36 2.56-.72 3.85-1.08M50.34 113.43c-6.24-.24-12.48-.21-18.71.1.59 5.52 1.23 11.04 1.94 16.54.01.1.03.21.1.28.08.08.19.09.3.1.51.03 1.02.01 1.53-.07-.52-4.75-.95-9.52-1.27-14.29 0-.07 0-.14.03-.2.05-.07.14-.09.22-.11 5.23-.95 10.64-.88 15.79-2.21" fill="#0ABBEF"/><path d="m52.28 130.36-18.61-.02 1.05 9.67 1.61.01.37-7.81 15.02-1.51.56-.34z" fill="#0ABBEF"/><path d="M53.74 140.01H34.72l2.43 17.72h1.59l-.02-14.37 15.02-3.35z" fill="#0ABBEF"/><path d="m55.29 157.73-18.5-.07 2.3 16.61 1.96-.06-.37-14.01 14.61-2.47z" fill="#0ABBEF"/><path d="m57.17 174.27-18.45-.06 2.26 19.25 2.77-.59-1.36-16.06 14.78-2.54zM56.55 136.06l.18 3.95 36.18.01.57-4.2-36.93.24zM56.31 132.48l.24 2.68 34.5-2.08c2.08-.6-34.75-.6-34.75-.6h.01zM47.02 84.33s-8.48 2.01-12.92 3.55c-4.44 1.54-5.25 2.09-5.25 2.09l2.78 23.55 2.47-.11-1.95-21.28 14.87-7.8zM47.02 62.17l-26.7 6.65 4.21 19.23 15.58-4.41-13.26.34-3.64-13.18 23.81-8.63zM97.92 61.09s12.8 1.33 17.51 3.74c4.71 2.41 5.34 2.74 5.34 2.74l-4.14 16.45-.53.32s-13.81-4.38-24.3-5.89l22.5 2.74 3.41-11.94-19.79-8.16z" fill="#0ABBEF"/><path d="m90.38 78.93-2.95 2.59s8.19.55 11.34 1.43c3.15.88 14.77 3.61 14.77 3.61l2.54-2.23c1.65-1.22-22.41-6.09-25.71-5.41l.01.01zM28.29 87.16l-3.38 1.76c1.37.58 2.83 1.18 4.3.94.49-.08.97-.25 1.44-.43 16.59-6.01 34.39-8.67 52.02-7.79.54-1 1.23-1.92 2.05-2.71a150.94 150.94 0 0 0-53.68 7.03" fill="#0ABBEF"/><path d="M28.1 66.28c.62-6.53 4.46-13.79 9.08-18.43 5.88-5.89 13.22-10.3 21.17-12.77 1.33-.43 2.68-.78 4.03-1.09.56-.13 1.13-.25 1.69-.35 1.44-.27 2.88-.48 4.34-.62a51.687 51.687 0 0 1 10.57.04c2.8.29 5.59.81 8.31 1.57 1.27.35 2.54.75 3.79 1.2 6.35 2.29 12.29 5.9 16.85 10.88 4.55 4.98 7.66 11.38 8.19 18.11-35.96-13.58-88.01 1.46-88.01 1.46h-.01z" fill="url(#f)"/><path d="M64.12 33.9c-5.48 7.5-7.93 17.14-6.7 26.35.01.09.03.2.11.26.07.05.16.05.24.05.9-.01 1.8-.02 2.7-.04-.82-7.95.66-16.13 4.21-23.29.74-1.5 1.64-3.02 3.09-3.85.09-.05.2-.13.18-.24-.02-.11-.23-.04-.16.03M68.81 33.27c1.5 8.63 3.29 17.35 2.53 26.07l1.87-.08c.32-6.05.64-12.13.16-18.17-.22-2.78-.64-5.62-1.93-8.09" fill="#fff"/><path d="M57.62 35.45c-7.26 2.19-14.13 5.9-19.5 11.26-5.37 5.35-9.17 12.39-10.07 19.92.62-.43 1.36-.7 2.11-.78 3.35-12.53 12.65-23.32 24.55-28.47-6 4.86-10.28 11.81-11.9 19.37 4.97-9.45 12.11-18.09 21.61-22.97-1.04-.08-2.09.08-3.07.46M73.85 32.91c1.54 2.77 2.81 5.68 4.02 8.61 1.95 4.68 3.8 9.57 3.67 14.63 1.26-7.94-.44-16.31-4.7-23.12-.11-.18-.27-.38-.48-.36M79.9 33.36c2.71 3.02 5.16 6.3 6.97 9.93 1.81 3.63 2.97 7.63 3.02 11.69-.41-6.27-1.21-12.79-4.69-18.02 7.99 1.14 15.53 5.14 20.96 11.11 3.9 4.29 6.78 9.88 6.42 15.66.88.06 1.76.25 2.59.54.21-1.91-.09-3.83-.39-5.73-.3-1.92-.62-3.9-1.61-5.57-.55-.94-1.29-1.75-2.03-2.56-.87-.95-1.73-1.9-2.6-2.85-.81-.89-1.63-1.79-2.51-2.62-1.21-1.13-2.53-2.14-3.89-3.09-4.26-2.99-8.87-5.49-13.74-7.32-2.5-.94-5.14-1.71-7.79-1.47" fill="#fff"/><path d="m64.21 1.08 17.31 6.76-14.73 8.33" fill="url(#g)"/><path d="m39.19 182.64-22.3 5.77L5.19 85.2l23.66 4.78" fill="url(#h)"/><path d="m113.49 88.05 23.66-5.62-4.4 103.78-22.65-4.19" fill="url(#i)"/><path d="M45.99 193.46v5.61h-2.65v2.81h-6.9v8.57h77.05c-.15 0 0-8.49 0-8.49h-9.02v-3.41h-2.28v-5.08" fill="#fff"/><path d="M69.46 31.85c-.7-5.26-1.49-10.5-2.31-15.74-.27-1.78-.56-3.55-.85-5.33.67-.29 1.17-.68 1.66-1.1.52-.48 1.01-.98 1.38-1.72-.83.08-1.49.48-2.05.97-.44.41-.83.9-1.05 1.5l-1.5-9.14C67.37 2.4 70 3.48 72.63 4.58 75.32 5.7 78 6.82 80.7 7.9l-5.9 3.55c-2.16 1.34-4.34 2.65-6.48 4.01 2.25-1.18 4.47-2.41 6.71-3.61l6.67-3.69c.07-.04.12-.09.15-.17.08-.18 0-.4-.18-.48h-.01c-2.87-1.29-5.77-2.52-8.67-3.76-2.9-1.23-5.78-2.49-8.69-3.71a.439.439 0 0 0-.28-.03c-.27.05-.44.3-.4.57.93 5.22 1.81 10.45 2.79 15.66.97 5.21 1.96 10.42 3.04 15.61h.01z" fill="#000"/><path d="M68.65 10.59c-.68.04-1.36.15-2.03.56.7.37 1.38.44 2.06.43.68-.04 1.36-.15 2.03-.56-.7-.37-1.38-.44-2.06-.43zM88.17 201.57c-4.82-.08-9.64-.08-14.47-.11-4.82.04-9.64.03-14.47.12-4.82.08-9.64.18-14.47.38 4.82.21 9.64.3 14.47.38 4.82.08 9.64.07 14.47.12 4.82-.04 9.64-.04 14.47-.11l7.23-.14c2.41-.08 4.82-.13 7.23-.25-2.41-.11-4.82-.16-7.23-.25l-7.23-.14zM62.86 199.57c2.56-.01 5.12-.02 7.68-.12l3.84-.14c1.28-.08 2.56-.13 3.84-.25-1.28-.11-2.56-.16-3.84-.25l-3.84-.14c-2.56-.09-5.12-.1-7.68-.12-2.56.01-5.12.03-7.68.12-2.56.08-5.12.18-7.68.38 2.56.21 5.12.3 7.68.38 2.56.09 5.12.1 7.68.12v.02zM92.78 199.07c-2.11-.4-4.22-.49-6.33-.5-2.11.02-4.22.11-6.33.5 2.11.39 4.22.48 6.33.5 2.11-.01 4.22-.1 6.33-.5zM86.69 188.09l-.85-.69c-.29-.22-.68-.49-1.2-.49-.5 0-.92.25-1.23.49-.16.13-.3.26-.44.4-.03.04-.07.08-.1.11l-.08-.1-.37-.43c-.25-.28-.52-.54-.8-.8-.29-.25-.56-.48-.92-.71-.35-.23-.9-.39-1.39-.27-.96.27-1.42.93-1.95 1.14.16.48-.28-.65-.79-1.21 0-.01-.02-.02-.03-.03 1.22-.37 2.41-.78 3.59-1.25.65-.24 1.28-.52 1.92-.78.61-.26 1.23-.5 1.73-.43.48 0 .82.5 1.55.97.36.25 1.03.29 1.41.05.38-.2.58-.36.88-.49 1.14-.48 2.58-.43 3.77.3-.94-1.05-2.58-1.5-4.03-1.04-.36.1-.75.32-.98.43-.24.09-.34.06-.56-.07-.21-.14-.45-.38-.75-.62-.28-.25-.73-.49-1.18-.53-.9-.07-1.6.27-2.23.57-.62.31-1.24.61-1.85.93-1.13.58-2.24 1.22-3.32 1.9-.52-.6-1.37-.99-2.13-1-.82-.04-1.55.13-2.27.29-.72.17-1.43.4-2.12.67-2.77 1.13-5.06 2.92-7.46 4.52 1.3-.65 2.56-1.35 3.84-2.02 1.26-.69 2.54-1.35 3.88-1.78.67-.22 1.35-.4 2.04-.54.69-.13 1.39-.25 2.02-.2.64.05 1.15.29 1.54.78.2.24.37.52.52.82.11.15.06.27.4.62.19.16.47.2.64.17.17-.02.31-.08.4-.13.79-.39 1.27-.99 1.74-1.09.4-.15.93.29 1.48.74.26.22.52.46.76.71l.35.38.2.22c.08.09.32.27.59.24.52-.11.57-.37.7-.46.12-.13.23-.24.35-.35.23-.21.48-.35.71-.37.44-.05 1.08.54 1.66.92l1.76 1.26c1.2.81 2.37 1.65 3.59 2.44-1.08-.97-2.2-1.88-3.3-2.83l-1.69-1.38v.02zM63.62 180.08c-.46.39-.99.74-1.7.71.6.45 1.51.31 2.15-.07.34-.18.63-.42.9-.75s.43-.89.3-1.36c-.28-.93-1.06-1.4-1.79-1.59-.74-.19-1.56-.07-2.13.35.71-.03 1.34.11 1.87.38.52.26.99.69 1.08 1.1.05.19.03.35-.11.57-.12.22-.35.44-.57.65v.01zM62.1 170.21c.5.05 1.02 0 1.49-.42-.48-.38-.91-.5-1.35-.57-.45-.05-.89-.05-1.45.19.34.52.83.72 1.32.8h-.01zM83.79 84.08a2.95 2.95 0 0 0-2.16.71 2.9 2.9 0 0 0 0 4.31c.6.53 1.41.78 2.15.71 1.54-.12 2.65-1.5 2.62-2.87 0 .69-.31 1.36-.82 1.8-.51.44-1.18.63-1.8.57-1.28-.12-2.14-1.27-2.12-2.37-.02-1.1.84-2.24 2.12-2.37.62-.06 1.29.13 1.8.56.51.44.81 1.11.82 1.8.03-1.36-1.07-2.75-2.62-2.87l.01.02zM71.74 96.94a.468.468 0 0 0-.62.22l-.03.07c-.32.67-.54 1.4-.64 2.13-.09.74-.09 1.49.13 2.22.28-.7.47-1.37.7-2.03.06-.2.14-.38.21-.58.16.46.36.91.62 1.37.14-1.02.05-2.04-.11-3.05a.467.467 0 0 0-.26-.35zM108.58 91.18c-1.18-.66-2.43-1.01-3.69-1.29-1.27-.25-2.55-.43-3.9-.32 1.18.65 2.43 1.01 3.69 1.29 1.27.25 2.55.44 3.9.32zM102.79 92.13c.61.48 1.23.66 1.87.77.64.08 1.29.08 2.01-.22-.58-.48-1.22-.66-1.87-.77-.65-.07-1.32-.08-2.01.22zM100.29 94.42c1.36.53 2.72.8 4.09 1.04 1.38.21 2.76.39 4.21.32-1.28-.7-2.66-1.06-4.05-1.3-1.4-.21-2.82-.31-4.26-.05l.01-.01zM102.22 97.5c.57.49 1.18.68 1.81.79.63.09 1.27.1 1.96-.2-.57-.49-1.18-.68-1.81-.79-.63-.08-1.27-.09-1.96.2zM104.04 99.13c.35.44.74.58 1.13.65.4.04.81 0 1.26-.34-.35-.44-.74-.58-1.13-.65-.4-.03-.81 0-1.26.34zM37.13 94.31c1.62-.36 3.22-.85 4.69-1.69-1.69.08-3.3.39-4.9.72-1.6.36-3.19.73-4.77 1.35 1.69.16 3.35-.04 4.98-.37v-.01zM39.43 95.56c-.98-.21-1.88-.15-2.78-.06-.9.13-1.79.29-2.68.73.94.35 1.88.36 2.8.26.92-.13 1.83-.37 2.66-.93zM32.27 101.75c1.78.18 3.54.01 5.28-.27 1.73-.32 3.44-.75 5.06-1.53-1.79 0-3.51.26-5.23.55-1.71.32-3.42.66-5.11 1.26v-.01zM38.02 103.22c1.21-.19 2.41-.45 3.56-1.01-1.27-.22-2.49-.13-3.7.02-1.21.19-2.4.45-3.56 1.01 1.26.22 2.49.13 3.7-.02zM39.25 106.21c-1.4.21-2.79.49-4.14 1.07 1.46.2 2.87.09 4.28-.08 1.4-.21 2.79-.49 4.14-1.07-1.46-.2-2.87-.1-4.28.08zM37.84 109.11c.97.38 1.91.45 2.85.45.94-.03 1.88-.14 2.84-.55-.94-.38-1.9-.45-2.85-.45-.96.03-1.91.14-2.84.55zM40.42 118.17c1.6.01 3.2-.04 4.81-.41-1.59-.43-3.19-.54-4.79-.59-.8 0-1.6 0-2.4.07-.8.06-1.56.14-2.38.1.71.44 1.57.59 2.37.68.8.09 1.6.13 2.4.16l-.01-.01zM37.15 120.01c.99.39 1.97.48 2.96.5.99-.01 1.97-.1 2.96-.5-.99-.4-1.97-.49-2.96-.5-.99.02-1.97.11-2.96.5zM44.78 125.06c-1.32-.42-2.68-.54-4.03-.58-1.35 0-2.71.05-4.05.42 1.35.42 2.69.54 4.03.58 1.34.01 2.68-.05 4.05-.42zM41.4 126.67c-.87-.04-1.74-.01-2.65.32.83.45 1.71.6 2.59.68.88.05 1.77.02 2.65-.32-.86-.46-1.72-.6-2.59-.68zM99.94 118.49c1.33.46 2.67.61 4.02.69 1.35.05 2.7.03 4.07-.31-1.33-.46-2.67-.61-4.02-.69-1.35-.05-2.7-.02-4.07.31zM105.41 121.28c-.77-.38-1.51-.48-2.25-.54-.75-.03-1.49-.02-2.31.25.69.51 1.47.68 2.24.75.78.04 1.57-.04 2.32-.46zM103.42 126.88c.95.02 1.89-.04 2.84-.26-.03.07-.08.15-.17.19.21.06.51-.11.53-.43a.15.15 0 0 0-.11-.15l-.08-.02c-1-.26-2.01-.32-3.02-.31-1.01.03-2.02.13-3.02.48 1.01.36 2.01.46 3.02.5h.01zM100.63 128.22c1.03.34 2.02.41 3.01.44 1 0 1.99-.03 3.03-.33-.97-.49-1.99-.64-3.01-.67-1.02 0-2.05.11-3.03.56zM99.04 133.79c1.32.34 2.62.41 3.92.44 1.3 0 2.6-.03 3.93-.34-1.28-.49-2.6-.63-3.92-.66-1.32 0-2.64.11-3.94.56h.01zM100.4 135.82c.86.49 1.79.65 2.71.7.92.02 1.85-.06 2.75-.48-.92-.37-1.81-.47-2.71-.52-.9-.02-1.8 0-2.75.29v.01zM100.63 104.21c1.27.49 2.55.67 3.84.79 1.29.08 2.58.09 3.91-.21-1.25-.49-2.54-.68-3.84-.79-1.29-.08-2.6-.09-3.91.21zM106.39 107.02c-.27-.06-.54-.11-.81-.15-.54-.08-1.07-.1-1.61-.11-1.08.01-2.15.1-3.23.49 1.07.4 2.15.49 3.22.51.54 0 1.08-.03 1.61-.11.27-.03.54-.09.81-.14.26-.06.49-.15.76-.04-.12-.3-.5-.39-.75-.45zM101.88 109.55c.69.4 1.37.49 2.05.52.68 0 1.35-.09 2.05-.48-.66-.4-1.36-.5-2.05-.52-.69.01-1.38.09-2.05.48zM47.51 133.66c-1.61-.4-3.22-.49-4.83-.5-1.61.02-3.22.11-4.83.5 1.61.39 3.22.48 4.83.5 1.61-.01 3.22-.1 4.83-.5zM39.2 135.58c1.02.5 2.09.66 3.16.72 1.07.03 2.15-.05 3.21-.48-1.07-.37-2.12-.47-3.17-.52-1.05-.02-2.1 0-3.2.28zM40.91 137.05c.63.5 1.35.67 2.07.73.72.03 1.45-.06 2.14-.48-.72-.37-1.39-.46-2.08-.52-.69-.02-1.37 0-2.13.27zM46.94 145.8c-1.12-.44-2.26-.58-3.39-.64-1.14-.03-2.28.01-3.43.36 1.12.44 2.26.57 3.39.64 1.14.03 2.28-.01 3.43-.36zM47.62 148.44c-1.28-.44-2.56-.56-3.85-.62-1.29-.02-2.58.03-3.88.38 1.28.43 2.56.56 3.85.62 1.29.02 2.58-.02 3.88-.38zM49.56 152.56c-1.71-.53-3.47-.71-5.22-.76-1.76-.02-3.52.08-5.25.53 1.76.33 3.49.41 5.23.46 1.74.02 3.47.02 5.24-.24v.01zM44.43 155.16c.7.39 1.4.48 2.1.5.7-.01 1.4-.1 2.1-.5-.7-.4-1.4-.49-2.1-.5-.7.02-1.4.11-2.1.5zM50.35 162.67c-1.8-.4-3.6-.49-5.4-.5-1.8.02-3.6.11-5.4.5 1.8.39 3.6.48 5.4.5 1.8-.01 3.6-.1 5.4-.5zM45.3 165.5c1.01-.03 2.03-.13 3.01-.54-1.03-.38-2.02-.46-3.02-.46-1 .03-1.99.13-3.01.54.99.38 2.01.45 3.02.46zM41.59 167.99c1.69.36 3.38.42 5.07.4 1.69-.05 3.37-.17 5.05-.6-1.69-.36-3.38-.42-5.07-.4-1.69.05-3.37.17-5.05.6zM47.77 169.62c-.81.06-1.6.17-2.42.56.82.4 1.65.47 2.48.44.82-.06 1.65-.22 2.41-.7-.86-.3-1.66-.32-2.47-.29v-.01zM42.96 179.05c1.66.44 3.32.57 4.99.62 1.67.03 3.34-.02 5.02-.38-1.66-.44-3.32-.57-4.99-.62-1.67-.02-3.34.02-5.02.37v.01zM51.71 181.76c-1-.25-1.92-.26-2.85-.25-.93.04-1.85.09-2.84.39.91.49 1.89.62 2.86.61.97-.04 1.94-.21 2.83-.75zM48.52 185.9c-1.36.05-2.71.13-4.08.5 1.36.43 2.73.52 4.11.5 1.37-.05 2.74-.2 4.08-.69-1.39-.3-2.74-.33-4.1-.31h-.01zM47.05 188.21c.73.45 1.51.56 2.29.57.77-.03 1.55-.16 2.27-.64-.8-.31-1.54-.36-2.28-.36-.75.03-1.48.09-2.27.43h-.01zM101.55 179.06c.97.04 1.91.11 2.98.01-.85-.67-1.89-.94-2.92-1.01-1.03-.04-2.09.11-3.02.67 1.05.22 2 .26 2.96.33zM99.04 180.88c.98.4 1.94.49 2.9.52.96 0 1.92-.09 2.9-.48-.95-.4-1.93-.5-2.9-.52-.97.01-1.95.09-2.9.48zM102.67 186.61c.23-.03.45-.09.68-.14l.31-.09c.09-.01.2-.05.26.07.07-.13-.09-.29-.2-.34-.14-.07-.26-.09-.37-.13a8.28 8.28 0 0 0-.68-.15c-.45-.08-.91-.1-1.36-.11-.91.01-1.82.1-2.73.49.91.4 1.82.49 2.72.51.45 0 .91-.03 1.36-.11h.01zM101.4 188.17c-.85.1-1.69.21-2.59.54.86.45 1.79.53 2.69.45.9-.11 1.8-.37 2.55-.98-.95-.15-1.79-.08-2.65-.01zM98.35 163.52c.6.22 1.19.35 1.8.46.6.11 1.2.18 1.81.22.6.05 1.21.06 1.82.05.48 0 .96-.05 1.44-.11-.07.05-.15.1-.26.12.25.12.64.03.83-.29 0-.01.02-.03.02-.05a.188.188 0 0 0-.13-.22l-.07-.02c-.6-.15-1.2-.26-1.8-.33-.6-.08-1.21-.12-1.81-.14-.6-.02-1.21-.01-1.82.03-.61.05-1.22.12-1.83.27v.01zM102.53 166.08c.12-.03.26-.14.38 0 .07-.08.02-.24-.06-.31a.676.676 0 0 0-.27-.18c-.18-.07-.32-.13-.49-.17-.32-.1-.64-.14-.97-.16-.65-.02-1.3.03-1.97.39.63.43 1.27.55 1.92.61.32 0 .65 0 .98-.06.16-.02.34-.07.48-.12zM105.32 169.38h-.05c-1.29-.29-2.57-.37-3.85-.39-1.28 0-2.56.04-3.87.33 1.26.46 2.55.61 3.85.66 1.27.04 2.55-.05 3.81-.38.03.06.04.14-.03.21.13-.03.25-.2.18-.39 0-.02-.03-.04-.05-.04h.01zM100.06 171.08c.8.39 1.59.48 2.39.5.8-.01 1.59-.1 2.39-.5-.8-.4-1.59-.49-2.39-.5-.8.02-1.59.11-2.39.5zM102.69 147c.55-.03 1.11-.08 1.65-.2.27-.05.54-.13.81-.22.15-.05.22-.09.35-.1.11 0 .25-.02.28.14.1-.15-.07-.35-.21-.41-.14-.09-.34-.1-.47-.12-.28-.03-.55-.06-.83-.07-.55-.04-1.09-.03-1.63-.02-1.08.06-2.16.15-3.27.5 1.08.44 2.2.53 3.31.5h.01zM101.87 148.41c-.67.03-1.34.12-2.04.48.67.42 1.37.52 2.06.51.69-.03 1.39-.16 2.03-.62-.72-.33-1.39-.38-2.06-.38l.01.01zM99.61 153.02c1.11.38 2.21.45 3.31.45 1.1-.03 2.2-.14 3.29-.55-1.11-.38-2.21-.45-3.31-.45-1.1.03-2.2.14-3.29.55zM61.11 88.24c-.31-.28-.71-.44-1.14-.44-.67.01-1.19.26-1.6.36a1.38 1.38 0 0 0-.31-.46c-.33-.3-.74-.42-1.16-.4-.41.04-.75.2-1.02.42-.06-.25-.14-.5-.31-.75-.21-.29-.55-.5-.9-.55-.35-.06-.67 0-.96.11-.58.21-1.02.61-1.41 1.02-.39.42-.69.9-.89 1.42.61-.9 1.5-1.67 2.46-1.92.49-.13.92 0 1.11.33.2.33.2.86.15 1.38-.01.14.06.28.18.37-1.2.07-2.4.16-3.59.28 3.11.31 6.21.45 9.33.47.19 0 .36-.11.44-.29v-.02c.11-.24.1-.54.01-.77-.09-.24-.23-.42-.39-.56zm-5.28.85s.06-.05.08-.09v-.02c.26-.43.68-.76 1.03-.75.17 0 .36.08.47.18.05.05.08.1.1.16.02 0-.02.14.18.39.02.02.04.03.06.05-.64.02-1.27.05-1.91.09l-.01-.01zm3.37-.13c.29-.09.55-.16.78-.16.13 0 .28.05.41.13-.39 0-.79.02-1.18.03h-.01zM78.34 87.94c-.35-.1-.63-.05-.86 0-.23.05-.44.11-.66.19-.25.09-.48.21-.71.33-.13-.16-.3-.29-.46-.37-.36-.17-.78-.21-1.18-.06-.36.14-.64.4-.83.69-.1-.12-.22-.24-.35-.32-.44-.29-.99-.3-1.42-.13-.9.33-1.36 1.17-1.6 1.94.21-.36.45-.69.73-.97.28-.28.63-.47.99-.54.36-.06.71 0 .95.2s.37.52.31.75c-.05.19.05.38.24.45.19.06.4-.04.47-.23l.02-.05c.16-.47.47-.87.81-.97a.63.63 0 0 1 .46.06c.15.08.2.19.19.26-.02.11 0 .22.07.32.14.2.42.25.62.11l.07-.05c.3-.21.63-.38.98-.5.33-.12.78-.21.88-.15.04.01.07.03.13.14.05.11.09.29.11.45.03.22.01.46-.02.71-2.63.05-5.26.18-7.89.47 2.77.3 5.54.43 8.32.48.23 0 .43-.16.47-.38.08-.43.14-.89.1-1.37-.03-.25-.07-.48-.18-.75-.1-.26-.36-.58-.72-.69l-.04-.02z" fill="#000"/><path d="m141.55 79.27-4.4.08h-.02s-.08 0-.12.02c-3.73.99-7.46 2.01-11.18 3.05-3.69 1.02-7.37 2.03-11.05 3.09l1.35-1.22.09.02c.15.02.18-.05.21-.07l.06-.08.07-.13c.04-.09.08-.17.11-.26l.19-.51.33-1.03.6-2.07 1.15-4.16 1.41-5.14c.98.51 1.73 1.3 2.11 2.24.21.52.31 1.08.29 1.62 0 .55-.17 1.05-.36 1.67-.68 2.38-1.3 4.77-1.62 7.26 1.08-2.26 1.86-4.61 2.58-6.97.16-.56.38-1.26.35-1.95-.02-.69-.19-1.37-.53-1.96-.58-1.07-1.65-1.84-2.77-2.03l.84-3.05a.457.457 0 0 0-.21-.51c-1.27-.74-2.56-1.4-3.88-2 .05-.13.08-.27.07-.42-.39-5.16-2.25-10.14-5.06-14.42-2.84-4.29-6.67-7.86-10.95-10.62-8.6-5.5-18.88-8.05-28.99-7.75-10.15.35-20.08 3.86-28.28 9.7a50.5 50.5 0 0 0-5.79 4.84c-1.81 1.74-3.45 3.7-4.8 5.81-2.66 4.14-4.62 8.83-5.06 13.73l-8.2 1.92c-.45.11-.74.54-.65 1v.06c.2 1 .39 2 .57 3-.29.11-.57.23-.87.38-.58.33-1.1.82-1.46 1.42-.38.59-.58 1.28-.64 1.99-.04.35.01.71.06 1.05l.16.94c.45 2.44.98 4.87 1.78 7.24-1.48-.31-2.97-.62-4.45-.92l-9.46-1.9H5l-4.39.23H.58c-.34.03-.59.33-.56.67v.02c.82 8.78 1.72 17.54 2.64 26.31.95 8.76 1.9 17.52 2.93 26.27 1.01 8.75 2.07 17.5 3.19 26.25l1.71 13.11 1.83 13.1c.01.08.07.14.15.14l3.87.1s0 .05.01.08v.02s.01.05.02.07c.08.3.39.47.68.39 3.71-1 7.39-2.07 11.09-3.12 3.58-1.02 7.16-2.04 10.72-3.1l1.24 10.82c.05.45.44.8.9.8h4.99l-.08 4.61-2.56-.03c-.07 0-.13.06-.13.13l-.04 2.63-6.73-.09c-.14 0-.26.11-.26.25l-.07 8.57c0 .18.14.33.32.33 7.13.07 14.26.11 21.39.12l21.39.04 21.39-.06 10.69-.07h1.34l.67-.02H113.45v-.01c0 .11 0 .06 0 0v-.69h.02s.22.03.28.13c.03.06.04.09.05.1v-.06l-.02-.31c-.03-.88-.03-1.77-.04-2.66l.02-5.34c0-.16-.12-.28-.27-.28l-8.86.11-.04-3.24c0-.07-.05-.12-.12-.12l-2.19.03-.07-4.06 7.49-.02c.49 0 .9-.39.91-.88l.37-11.3 21.72 4.29h.04c.15 0 .28-.11.28-.27v-.04l4.14-.41c.07 0 .13-.06.13-.14l.89-13.2.78-13.2c.5-8.8.94-17.6 1.34-26.4.41-8.8.75-17.61 1.09-26.42.31-8.81.59-17.62.83-26.43v-.06c0-.37-.31-.67-.68-.66l.01.01zm-28.08 7.19c-6.89-2.14-13.93-4.02-21.14-4.81l-2.7-.37c-.9-.09-1.81-.13-2.72-.2l-5.44-.35c-3.63-.02-7.26-.15-10.89.1-7.25.39-14.48 1.27-21.58 2.78-7.06 1.52-14.03 3.49-20.71 6.24-.08-.02-.17-.04-.26-.06l-1.66-.67c3.12-1.17 6.37-2.21 9.62-3.12 1.85-.53 3.73-.98 5.6-1.47l5.65-1.24 5.68-1.09 5.72-.87c1.9-.31 3.83-.46 5.74-.7.96-.1 1.91-.24 2.88-.3l2.89-.18c3.85-.37 7.7-.35 11.57-.5l5.8.1c.97.02 1.94.03 2.91.06l2.89.24c1.93.18 3.87.29 5.8.52l5.75.95c.96.18 1.92.31 2.87.53.94.24 1.89.47 2.82.73l5.54 1.49-2.64 2.17.01.02zm-8.75 26.56c-2.37.02-4.74.11-7.1.48l.08-2.87c.22-9.07.41-18.14.5-27.22-.5 9.06-.89 18.13-1.27 27.2l-1 27.2-.05 1.86-1.98-.03.06-1.57.77-27.21c.22-9.07.41-18.14.5-27.22-.25 4.45-.46 8.9-.67 13.35-.5-.59-1.05-1.13-1.64-1.62-.37-.32-.77-.6-1.16-.88-.2-.14-.41-.27-.61-.4-.2-.12-.42-.29-.79-.39-.39-.09-.8.05-1.04.2-.26.16-.44.31-.63.46-.37.32-.75.63-1.09.99-.56.56-1.05 1.18-1.48 1.83-.22-.19-.44-.38-.66-.56l-1.66-1.34-.84-.66c-.14-.11-.26-.21-.45-.34-.18-.12-.44-.27-.78-.26-.34.01-.57.16-.73.25l-.46.28-.91.57c-.6.39-1.2.78-1.78 1.2a48.84 48.84 0 0 0-3 2.32 3.6 3.6 0 0 0-.12-.81c-.02-.09-.04-.18-.08-.26-.03-.07-.04-.19-.18-.36-.07-.08-.2-.2-.43-.22-.22-.03-.44.11-.53.23-.18.24-.16.33-.2.41-.2.69-.33 1.41-.17 2.22.48-.47.77-1 .98-1.55.15.18.32.35.52.51-.06.05-.12.09-.17.14-2.06 1.75-3.99 3.67-5.7 5.75a26.7 26.7 0 0 0-2.18-.1c-1.18 0-2.37.13-3.47.16-1.11.05-2.14-.25-3.24-.6-1.08-.36-2.23-.75-3.41-.89-1.18-.12-2.36-.09-3.5.16 2.35-.11 4.54.47 6.64 1.45 1.06.46 2.28.82 3.51.82 1.22 0 2.33-.13 3.47-.1 2.27-.02 4.55.23 6.79.69 2.13.44 4.21 1.11 6.26 1.94-.51.26-1 .54-1.48.82-.34.2-.68.41-1.03.57-.06.02-.12.05-.18.07-.99-.49-1.97-1.26-3.22-1.67-.93-.3-1.93-.19-2.77-.01-.86.18-1.66.39-2.43.39-.74.05-1.5-.37-2.53-.38-1.05.02-1.85.59-2.55 1.05-.7.47-1.4.93-2.14.91-.72.03-1.49-.59-2.45-.61-1.89 0-3.26 1.26-4.99 1.32 1.74.16 3.35-1.03 4.96-.83.78.03 1.44.67 2.46.75 1.01.06 1.85-.48 2.57-.89.73-.43 1.45-.83 2.15-.82.7 0 1.52.45 2.52.45 1.89 0 3.49-.88 4.92-.37.73.22 1.43.66 2.18 1.1.74.43 1.57.9 2.56.99.99.1 1.87-.2 2.68-.41.81-.22 1.59-.39 2.28-.16.34.11.69.33 1.08.55.4.22.84.38 1.28.48.88.2 1.75.22 2.6.26 1.69.02 3.34.51 4.81 1.4-1.33-1.08-3.04-1.7-4.77-1.89-.85-.1-1.7-.16-2.48-.39-.39-.11-.75-.27-1.09-.48-.35-.21-.71-.48-1.17-.67-.95-.37-1.94-.16-2.76.04-.84.2-1.63.42-2.36.32-.34-.04-.66-.14-.99-.28.37-.1.73-.22 1.08-.36.75-.3 1.47-.63 2.19-.84.72-.2 1.46-.3 2.12-.14.32.07.61.23 1.06.4.45.18 1.04.15 1.47.01.88-.31 1.45-.67 2.2-.81.72-.18 1.47-.22 2.22-.17.75.06 1.6.26 2.46.05.41-.11.76-.28 1.12-.31.31-.01.69.1.85.42l-.12 2.73-.11 2.86c-1.55-.1-3.11-.15-4.66-.22l-5.06-.14c-3.37-.09-6.75-.1-10.12-.12-3.37.01-6.75.03-10.12.12-3.24.08-6.48.17-9.72.36l-.27-2.36c-.4-3.28-.8-6.55-1.21-9.83l4.85-3.58c1.69-1.22 3.36-2.45 5.06-3.64l.32-.23c.07-.05.12-.09.16-.11.04.04.1.1.17.18l1.02 1.18c.7.77 1.37 1.56 2.09 2.32l2.13 2.29c.74.74 1.45 1.5 2.22 2.23-.59-.86-1.23-1.69-1.84-2.54l-.32-.41c.24-.27.46-.55.66-.82.07.27.14.54.22.81.17.6.34 1.2.62 1.82.23-.64.27-1.31.24-1.96-.03-.66-.19-1.3-.4-1.92l-.02-.05a.467.467 0 0 0-.22-.26.452.452 0 0 0-.62.2c-.32.62-.54 1.3-.6 2.02l-1.49-1.91c-.64-.83-1.31-1.63-1.97-2.45l-1.01-1.2c-.08-.1-.16-.21-.34-.35-.15-.15-.57-.25-.82-.14-.25.09-.35.2-.46.26l-.32.22c-1.71 1.22-3.38 2.48-4.96 3.86-1.53 1.31-3 2.67-4.38 4.14-.71-5.72-1.43-11.43-2.2-17.14.81 9.04 1.72 18.07 2.66 27.1l2.92 27.07.13 1.11c-.66 0-1.33 0-1.99.02l-.13-1.24-3.15-27.04c-1.08-8.87-2.17-17.74-3.36-26.6l1.62-.34c7.08-1.41 14.27-2.25 21.47-2.58 3.6-.27 7.21-.17 10.81-.18l5.4.31c.9.06 1.8.09 2.7.18l2.69.32c1.79.22 3.59.39 5.37.65l5.32.99c.89.18 1.78.31 2.66.52l2.62.67 5.25 1.35h.02l-1.33 26.63-.77 17.02c-2.36-.33-4.72-.42-7.09-.43-2.39.01-4.77.1-7.16.44l.47-16.75c2.37.37 4.74.46 7.11.48 2.43-.01 4.85-.1 7.28-.5-2.43-.4-4.85-.49-7.28-.5l.01.01zM87.05 164.6c-1.63.42-3.21 1.08-4.56 2.1-1.83-.16-3.68-.09-5.46.3-.59-1.9-1.2-3.8-1.84-5.69v-.03a.487.487 0 0 0-.32-.29c-.25-.07-.5.07-.57.32-.45 1.61-.86 3.23-1.26 4.85-.45.39-.77.9-.9 1.46l-.1-.1-.02-.02-.02-.02c-.08-.06-.19-.03-.25.05-.53.77-.98 1.59-1.31 2.46.44-.72.93-1.41 1.47-2.04l.22.26s.07.06.12.07c.12.02.23-.05.26-.17v-.03c.13-.62.49-1.18 1-1.52.05-.03.09-.08.11-.14v-.03c.39-1.14.77-2.28 1.13-3.42.69 2.25 1.41 4.49 2.16 6.71v.03c.08.21.29.34.51.3.25-.04.42-.27.38-.52-.01-.06 0-.14.02-.21.16.32.3.66.39 1.01v.04c.04.13.14.24.28.27.2.05.41-.07.46-.27.04-.15.12-.3.23-.42l.64 1.2.49-.23s-.02-.02.08-.08c.11-.04.15-.06.26.02.21.15.31.51.43.85.24.68.47 1.36.73 2.04-.13-.71-.28-1.42-.44-2.12-.09-.34-.1-.74-.44-1.1-.15-.18-.51-.27-.74-.15-.04.01-.07.04-.11.06l-.52-1.18v-.02c-.1-.16-.3-.22-.46-.13h-.02c-.13.08-.25.17-.36.27-.12-.35-.26-.7-.45-1.02a.433.433 0 0 0-.56-.17c-.1.05-.19.12-.28.19-.13-.41-.26-.83-.39-1.24 2.34.19 4.62.39 6.88.78 2.2.35 4.36.88 6.57 1.43-1.01-.09-2.03-.07-3.04.03-1.61.18-3.21.53-4.7 1.25 1.65.05 3.22-.11 4.8-.25 1.5-.17 2.99-.33 4.51-.68l-.09 4.17c-5.47-.07-10.94-.07-16.42-.11-.06-1.13-.38-2.16-.77-3.16a.493.493 0 0 0-.89-.07c-.57.98-.97 2.07-.96 3.23h-1.84c-.24-1.05-.27-2.14-.67-3.21-.21-.56-.51-1.07-.78-1.57l-.82-1.51a.357.357 0 0 0-.62-.02v.02c-.05.06-.09.13-.13.2-.28-1.89-.57-3.77-.9-5.65a.49.49 0 0 0-.33-.38.501.501 0 0 0-.62.31c-.41 1.25-.8 2.5-1.18 3.76-.28.88-.53 1.78-.78 2.67-.49-.59-1.15-.88-1.83-1.03-.7-.13-1.44-.12-2.14.26.67.41 1.3.57 1.94.72.63.11 1.26.2 2.01.1-.06.22-.13.44-.19.66-.3.09-.35.32-.4.42l-.18.63-.34 1.26c-.21.8-.42 1.6-.61 2.4-.58 0-1.15 0-1.73.01l-.85-8.35-.8-7.38c4.9.04 9.8.05 14.7.09 6.17-.04 12.34-.04 18.51-.11l-.18 6.29c-1.72-.31-3.48-.14-5.16.27l.04.02zm5.16-.25-.03.91-.1 4.3c-.4-.09-.81-.16-1.22-.21-2.05-1.27-4.39-2.04-6.76-2.45-.47-.07-.94-.13-1.42-.18 1.58-.36 3.08-.79 4.6-1.15 1.62-.42 3.24-.75 4.92-1.22h.01zm-16.66 9.37H73.02c.49-.64.89-1.28 1.27-1.91.33.67.73 1.32 1.25 1.91h.01zm-10.94-4.22c.43-1.18.89-2.35 1.3-3.54.22-.62.43-1.25.64-1.88.29 1.69.59 3.39.91 5.08v.03c.03.15.14.28.3.33.23.07.46-.06.53-.29.08-.28.18-.55.29-.82.5.77 1.02 1.53 1.44 2.31.5.91.65 2.02 1.07 3.02-2.84.01-5.68.03-8.52.05.33-.76.63-1.52.94-2.29l.48-1.21.17-.46c.05.02.11.04.17.03h.03c.11-.03.25-.2.25-.33v-.03zm-21.56-38.64c3.05-.01 6.1-.1 9.15-.47l.87 8.1.13 1.14c-5.96.08-11.91.17-17.87.36l-1.22-9.58c2.98.34 5.96.43 8.93.45h.01zm-8.95-.55-1.84-14.5-.31-2.34c3.04.34 6.07.43 9.11.45 3.1-.02 6.21-.11 9.31-.47l1.82 16.88c-3.05-.36-6.09-.45-9.14-.47-2.98.02-5.96.11-8.95.45zm19.19 10.07 1.97 16.9c-5.9.08-11.81.17-17.71.36l-2-16-.21-1.62c5.98.19 11.97.28 17.95.36zm.99.01c.67 0 1.33 0 2 .02l1.96 16.85c-.71 0-1.43 0-2.14.02l-1.82-16.88v-.01zm14.92 14.42c1.74-.16 3.47-.4 5.18-.69.37.04.74.07 1.11.11l3.65.29c2.43.19 4.86.3 7.3.41.09 0 .18 0 .25.03-.47.13-1.12.26-1.67.38-1.18.26-2.37.44-3.57.64-1.2.18-2.4.32-3.61.41-1.08.11-2.17.16-3.26.21-1.7-.83-3.52-1.41-5.38-1.77v-.02zm5.97 2.36h-1.3c-4.93.03-9.86.05-14.79.09l-.23-2.14c2.96-.05 5.86.04 8.73.44 2.56.33 5.06.92 7.59 1.62v-.01zm-3.32-3.26s.01-.05.02-.07c.06 0 .12.01.19.02-.07.02-.14.03-.21.05zm-.13-.18-.03.23c-1 .25-2.01.5-3.01.76-.32-.06-.64-.11-.96-.15-2.96-.38-6.01-.27-8.87.54l-.3-2.76c.14-.29.36-.53.63-.66.6-.28 1.39-.03 1.7.47.05.09.15.15.26.16.18 0 .33-.13.34-.3v-.04c.02-.37.09-.71.26-.86a.36.36 0 0 1 .24-.06c.05 0 .07.02.07.03v.02c.08.21.31.33.52.26.22-.07.35-.31.28-.53 0 0 0-.01-.01-.02-.21-.6 0-1.37.45-1.61.18-.11.47-.12.71 0 .25.11.38.31.37.47-.02.28.19.52.46.54a.5.5 0 0 0 .53-.46v-.04c.04-.47.23-.94.55-1.29.14-.17.34-.26.35-.25l.04.04c.05.06.13.21.2.32.57.97.98 2.04 1.22 3.15v.06c.04.13.15.24.29.27.19.04.37-.09.41-.27.05-.26.48-.49.76-.36.29.11.49.6.3.93l-.02.03s-.03.1-.01.15c.03.09.13.14.23.11.63-.21 1.41-.03 1.93.49-.34-.54-1-.86-1.69-.86.17-.48.02-1.06-.48-1.35-.36-.19-.77-.15-1.12.03-.19-.98-.52-1.94-1-2.83-.08-.14-.13-.26-.25-.44-.11-.17-.39-.4-.69-.42-.6-.03-.92.29-1.17.53-.21.22-.37.46-.5.73-.1-.07-.2-.13-.3-.17-.49-.21-1.1-.24-1.61.08-.47.3-.75.79-.85 1.27-.04.2-.05.4-.04.61-.26.02-.52.11-.72.33-.19.23-.29.47-.33.71-.59-.32-1.32-.31-1.86.05-.21.14-.37.32-.49.53l-1.1-10.2c.15.04.32.05.48 0h-.02c2.95.18 5.9.26 8.84.34 2.95.07 5.9.09 8.84.09 2.95-.01 5.9-.03 8.84-.12 2.82-.07 5.64-.17 8.46-.36l-.18 6.46c-.06-.54-.17-1.08-.35-1.61-.06-.18-.13-.35-.2-.52-.08-.17-.18-.4-.45-.55-.26-.15-.61-.07-.8.07-.05-.21-.1-.46-.22-.72-.12-.25-.29-.49-.56-.67-.26-.19-.7-.27-1.03-.13-.33.12-.54.34-.71.52-.16.19-.31.39-.43.6-.11.19-.2.39-.27.59-.16-.06-.33-.1-.47-.09-.45 0-.89.16-1.22.51-.28.32-.43.71-.51 1.06 0 .03 0 .06-.01.09-.18-.09-.37-.15-.56-.17-.59-.04-1.05.27-1.39.6-.33.34-.55.75-.71 1.17a3.4 3.4 0 0 0-.21 1.17 1.1 1.1 0 0 0-.48-.07c-.03-.46-.29-.9-.76-1.1-.38-.15-.78-.1-1.13.07-.09-.37-.19-.74-.31-1.1-.1-.29-.21-.59-.33-.87-.06-.14-.13-.33-.33-.53-.2-.22-.6-.32-.86-.25-.53.14-.73.43-.97.63-.23.22-.45.46-.65.71-.28.35-.52.74-.73 1.14a1.21 1.21 0 0 0-1.16.26c-.09.08-.15.18-.21.27a.884.884 0 0 0-.69-.17c-.28.05-.47.22-.59.36-.44.58-.66 1.09-.92 1.68-.25.57-.42 1.17-.55 1.77-.06.3-.12.6-.16.91l-.02-.01zm12.67-12.49c-2.95-.09-5.9-.11-8.84-.12-2.95 0-5.9.02-8.84.09-2.95.08-5.9.17-8.84.34h-.01c-.14.06-.29.07-.44.05l-.13-1.19c5.3.05 10.59.06 15.89.09 6.41-.04 12.81-.04 19.22-.11h.51l-.03 1.21c-2.82-.18-5.64-.28-8.46-.36h-.03zm7.98-1.62c-6.41-.08-12.81-.08-19.22-.11-5.33.03-10.65.05-15.98.09l-.13-1.21-.3-2.54c2.95.19 5.9.28 8.85.36 3.1.09 6.2.1 9.3.12 3.1-.01 6.2-.02 9.3-.12l4.65-.14c1.4-.08 2.8-.13 4.2-.22l-.08 2.2-.04 1.58h-.54l-.01-.01zm-3.53-4.05-4.65-.14c-3.1-.09-6.2-.1-9.3-.12-3.1.01-6.2.03-9.3.12-2.95.08-5.9.17-8.85.36l-.38-3.28c3.09.19 6.18.28 9.28.36 3.11.08 6.22.1 9.33.11 3.11-.01 6.22-.03 9.33-.12 2.95-.08 5.9-.17 8.85-.36l-.12 3.29c-1.4-.09-2.8-.14-4.2-.22h.01zm-2.89-13.91c.02.97.02 1.93.06 2.9.08 1.93.1 3.86.23 5.79-3.91-.38-7.81-.47-11.72-.49-3.9.02-7.8.11-11.7.48.11-1.95.14-3.9.21-5.84.04-1.94.08-3.88.08-5.82 3.8.35 7.6.44 11.4.46 3.81-.01 7.61-.1 11.42-.46 0 .03-.01.05-.01.07l.03 2.9v.01zm-11.43 9.2c3.91-.01 7.81-.1 11.72-.49 0 0 .01.07.04.1.56.62 1.12 1.19 1.62 1.74-1.2-.04-2.4-.08-3.6-.11-3.11-.09-6.22-.11-9.33-.12-3.11 0-6.22.02-9.33.11-1.69.04-3.38.09-5.06.16.68-.55 1.42-1.12 2.18-1.74.04-.03.06-.07.06-.12 3.9.37 7.8.46 11.7.48v-.01zm12.07-.55c.12-1.92.15-3.83.22-5.75.04-.97.04-1.93.06-2.9l.03-2.71.77-.83c.01 2.19.03 4.37.11 6.56.07 2.51.17 5.03.36 7.54h-.19c-.5-.67-.94-1.31-1.37-1.9l.01-.01zm-.54-11.89a.46.46 0 0 0-.1.18c-3.81-.36-7.62-.45-11.43-.46-3.8.02-7.61.11-11.41.46a.512.512 0 0 0-.2-.37l-1.58-1.08 3.06.09c3.3.09 6.6.1 9.9.12 3.3-.01 6.6-.02 9.9-.12l3.04-.09-1.16 1.27h-.02zm-23.91.48c0 1.87.03 3.73.08 5.6.07 1.93.11 3.86.21 5.78-.61.62-1.23 1.28-1.92 1.96-.08 0-.17 0-.25.01.08-2.66.19-5.22.3-7.7.11-2.25.16-4.43.18-6.62l1.41.97h-.01zm26.03 13.32c.18-2.51.28-5.03.36-7.54.09-2.52.11-5.04.12-7.56h.47c1.54-.09 3.07-.14 4.61-.24l-.57 15.58c-1.66-.1-3.32-.18-4.99-.24zm.95-15.61-.56-.02s-.04-.07-.07-.1a.502.502 0 0 0-.7.03l-.05.05-3.57-.1c-3.3-.09-6.6-.1-9.9-.12-3.3.01-6.6.03-9.9.12-1.3.03-2.6.07-3.9.11a.481.481 0 0 0-.24-.07c-.1 0-.19.04-.26.09-1.81.06-3.63.14-5.44.25l-.36-3.12c3.24.19 6.48.29 9.72.36 3.37.09 6.75.1 10.12.12 3.37-.01 6.75-.02 10.12-.12l5.06-.14c1.55-.08 3.11-.13 4.66-.22l-.11 3.1c-1.54-.1-3.07-.15-4.61-.23l-.01.01zm-29.36.5c.01 2.62.06 5.28.19 7.85l.3 7.3c-1.29.05-2.59.11-3.88.19l-1.82-15.58c1.74.11 3.48.18 5.22.25l-.01-.01zm-1.42 40.96.87 7.47 1.01 8.27c-.79 0-1.59.01-2.38.02l-.85-8.37-.8-7.4c.72 0 1.43.01 2.15.02v-.01zm1.98 16.56.54 4.42 1.76 13.44h-2.98l-1.27-13.5-.45-4.38c.8 0 1.6.01 2.4.02zm15.37-17.46c-.32-.18-.64-.35-.97-.51 2.26.25 4.54.26 6.82.07 1.23-.08 2.44-.27 3.66-.47.63-.12 1.16-.21 1.86-.4.19-.07.4-.16.6-.41.21-.27.25-.69.04-1-.21-.29-.45-.38-.65-.44s-.41-.08-.57-.09c-2.44-.09-4.87-.17-7.31-.18h-2.65c1.22-.23 2.43-.45 3.64-.66 4.05-.74 8.09-1.32 12.24-1.38-4.11-.74-8.35-.33-12.42.39-2.63.48-5.21 1.09-7.79 1.73-.11 0-.22 0-.33.01a8.508 8.508 0 0 1 .31-.93c.22-.56.48-1.09.76-1.61.28-.49.63-1.06.95-1.42.18-.15.19-.1.25-.05.09.09.19.35.23.59.04.22.23.38.46.36.24-.02.42-.22.41-.46v-.03c-.02-.3.08-.59.22-.69.04-.03.13-.06.21-.05.08 0 .09.04.09.04l.86-.04c.24-.51.53-.99.89-1.42.18-.21.36-.43.56-.62.19-.19.4-.36.48-.38.02.03.07.1.12.21.12.26.24.53.34.8.21.54.38 1.1.52 1.66l.02.07c.03.14.14.25.29.29.21.05.43-.07.48-.29.06-.25.46-.46.74-.36.28.07.53.49.43.81l-.02.06c-.04.13.02.27.15.33.14.06.29 0 .35-.14.05-.11.24-.18.45-.14.2.05.38.19.39.38v.04s.03.09.08.12c.07.04.16.02.2-.06.1-.18.4-.29.62-.19.23.1.4.39.32.68a.68.68 0 0 0-.24-.84.745.745 0 0 0-.71-.03c-.08-.24-.29-.42-.5-.51.22-.79.64-1.51 1.24-1.96.3-.24.67-.36.95-.3.3.05.55.3.54.49a.406.406 0 0 0 .81.07v-.09c.08-.62.19-1.21.51-1.51.11-.12.32-.19.51-.19.2.01.29.09.31.16.04.18.2.33.4.37a.5.5 0 0 0 .56-.4v-.06c.07-.36.18-.73.36-1.05.17-.31.46-.67.62-.73.07-.03.11-.04.21.01.09.05.2.17.28.3.16.27.23.74.48 1.2l.02.03c.03.06.08.11.14.14.17.09.39.03.49-.14.16-.29.35-.45.4-.41.13 0 .34.41.5.69.32.55.55 1.15.75 1.76l-.25 8.84c-5.57-.07-11.15-.08-16.72-.11l.01.05zm17.26 8.11.27-7.25 2.14-.03-.2 7.02-.2 8.85-2.38-.04.37-8.55zm.3-7.99.62-16.92 1.99-.03-.48 16.98-2.13-.03zm-9.43-51.75c-.2-.05-.4.03-.49.1-.1.08-.15.15-.2.22-.09.15-.09.21-.13.32-.11.4-.1.83.09 1.19.15-.23.29-.43.43-.61.08.26.15.54.31.84.06.13.16.27.27.39h-.04c-.3-.09-.72-.32-1.18-.4a4.26 4.26 0 0 0-1.38 0c.03-.56-.03-1.11-.11-1.66-.08-.57-.22-1.12-.37-1.67a.477.477 0 0 0-.87-.12l-.02.04c-.36.59-.58 1.26-.68 1.91a6.26 6.26 0 0 0-.01 1.98c-1.82-1.09-3.81-1.92-5.87-2.5-1.53-.44-3.11-.7-4.71-.84 1.97-1.82 3.98-3.56 6.1-5.16 1.13-.84 2.26-1.67 3.43-2.45.58-.39 1.17-.78 1.76-1.15l.9-.55c.29-.17.67-.42.7-.38.02-.04.31.15.6.39l.84.65 1.66 1.31 3.3 2.65c1.1.89 2.19 1.79 3.25 2.72 1.07.91 2.06 1.91 2.74 3.17-.47-1.35-1.43-2.49-2.4-3.52-1.01-1.01-2.04-1.98-3.08-2.94-.78-.73-1.59-1.42-2.4-2.11l1.84-1.37 1.15-.82c.4-.3.76-.53.88-.44.1.01.29.12.5.25l.61.36 1.22.72c.68.41 1.37.81 2.08 1.21-.16 3.6-.32 7.21-.47 10.81-.11-.34-.48-.57-.85-.61-.44-.05-.85.07-1.22.09-.73.07-1.45-.19-2.27-.34-.83-.16-1.69-.14-2.52.02-.83.13-1.66.58-2.29.78-.1.03-.19.04-.28.05-.05-.22-.06-.43-.08-.65a5.5 5.5 0 0 0-.15-1.06c-.03-.1-.07-.19-.11-.29-.05-.06-.07-.35-.49-.49l.01-.04zm.02.84s.02 0 0 .03c0 0-.03.01-.04.02.02-.03.04-.05.05-.05h-.01zm-2.36 1.21c-.4.07-.8.18-1.16.32-.22.08-.41.19-.61.29l-.27-.15c.33-.59.56-1.19.79-1.76.08-.21.17-.41.26-.61l.18.45c.22.49.47.98.8 1.46h.01zm-7.65-9.68s-.05-.04-.05-.05c0-.03.02 0 .05.05zm-45.58-8.04h-.02.03-.01zm-1.07-.27c-.43-.1-.86-.19-1.29-.29.12-.05.24-.09.36-.13l.93.43v-.01zm72.98-48.31c4.07 2.67 7.67 6.08 10.31 10.13 2.4 3.61 4.07 7.73 4.67 12.01a87.673 87.673 0 0 0-9.38-2.64c-.58-.12-1.16-.23-1.74-.35-.12-.84-.26-1.67-.42-2.51-.3-1.35-.66-2.69-1.08-4.02-.84-2.65-1.99-5.21-3.41-7.61-1.43-2.4-3.11-4.65-5.08-6.62-.98-.99-2.02-1.92-3.11-2.77l-.63-.45c3.47 1.22 6.79 2.83 9.87 4.83zm-10.85-5.15a35 35 0 0 1 1.29 1.14c1.01.92 1.97 1.9 2.87 2.92 1.79 2.05 3.41 4.26 4.78 6.61 1.4 2.34 2.55 4.82 3.54 7.36.5 1.27.94 2.57 1.33 3.89.25.77.47 1.55.67 2.34-3.03-.58-6.08-1.03-9.15-1.37-1.6-.16-3.19-.29-4.79-.39.07-.78.13-1.56.16-2.34.02-1.26-.04-2.53-.15-3.8-.23-2.53-.8-5.04-1.68-7.43-.89-2.39-2.08-4.68-3.62-6.71a27.45 27.45 0 0 0-2.5-2.88c-.49-.47-1-.92-1.52-1.35 2.98.41 5.92 1.09 8.77 2.02v-.01zm-9.18-2.08c.55.56 1.08 1.13 1.57 1.74.81.95 1.55 1.94 2.23 2.99 1.35 2.08 2.47 4.3 3.31 6.62.87 2.32 1.45 4.73 1.85 7.19.2 1.23.34 2.47.42 3.71.07.77.1 1.54.13 2.31-2.07-.13-4.14-.22-6.21-.24-.67 0-1.34.01-2 .02.52-1.91.73-3.91.68-5.9-.04-2.46-.49-4.9-1.19-7.25-.74-2.34-1.73-4.59-2.98-6.68a31.71 31.71 0 0 0-3.59-4.93c1.94.04 3.87.18 5.79.43l-.01-.01zm-7.89-.43c.57-.01 1.14-.01 1.71 0 .88 1.9 1.78 3.76 2.6 5.64.93 2.16 1.79 4.33 2.46 6.56.7 2.21 1.2 4.49 1.55 6.79.28 1.89.42 3.81.46 5.78-2.93.02-5.87.09-8.79.25-.19.01-.38.03-.57.04.11-.73.2-1.46.29-2.19.1-1.13.16-2.27.21-3.41.08-2.28-.04-4.56-.28-6.83-.26-2.27-.63-4.52-1.19-6.74-.48-1.94-1.08-3.85-1.81-5.71 1.12-.1 2.25-.16 3.38-.17l-.02-.01zm-3.51.18c.44 1.95.86 3.9 1.2 5.86.38 2.22.72 4.45.95 6.68.25 2.24.4 4.48.5 6.73.05 1.13.07 2.25.07 3.38v1.7c.01.18.01.35.01.53-4.68.31-9.34.77-13.99 1.39-.04-2.08 0-4.15.18-6.21.23-2.38.57-4.74 1.12-7.06.52-2.32 1.25-4.6 2.1-6.83.43-1.11.92-2.2 1.48-3.26.38-.76.82-1.49 1.28-2.21 1.68-.33 3.38-.57 5.09-.72l.01.02zm-5.34.77c-.51.61-1 1.25-1.45 1.91-.66 1.02-1.24 2.1-1.77 3.2-1.04 2.21-1.81 4.53-2.36 6.91-.54 2.38-.87 4.81-.91 7.24-.03 1.22.01 2.43.09 3.64.09.88.2 1.76.35 2.63-2.45.33-4.9.7-7.34 1.13-3.07.55-6.13 1.16-9.18 1.83.42-1.09.82-2.18 1.23-3.27.49-1.36.94-2.74 1.5-4.08 1.08-2.69 2.18-5.35 3.56-7.87 1.36-2.52 3.03-4.86 4.94-7.01a35.12 35.12 0 0 1 3.06-3.04c.55-.51 1.13-.99 1.72-1.46 2.14-.74 4.33-1.33 6.55-1.78l.01.02zM30.22 59.12c.96-2.29 2.16-4.47 3.59-6.49 2.8-4.09 6.68-7.3 10.71-10.11 3.54-2.41 7.37-4.37 11.38-5.83-.37.25-.74.5-1.1.76-1.16.89-2.27 1.85-3.31 2.89-2.09 2.07-3.85 4.48-5.26 7.06-1.4 2.59-2.49 5.32-3.41 8.08-.83 2.51-1.49 5.08-2.13 7.63-2.54.55-5.06 1.15-7.57 1.81l-.55.11-4.29 1c.32-2.39 1.01-4.7 1.94-6.91zm2.62 7.04c4.15-.97 8.3-1.91 12.48-2.74l6.31-.98c2.1-.33 4.21-.63 6.34-.78l6.36-.5c2.12-.17 4.25-.14 6.37-.23 8.49-.16 16.96.11 25.34 1.09l6.27.86c1.04.19 2.07.4 3.11.57l1.56.27 1.54.35c4 .87 8.02 2.02 11.69 3.75-.54 2.69-1.11 5.38-1.74 8.05-.32 1.4-.66 2.8-1.04 4.18l-.58 2.07-.32 1.02-.18.5c-.03.08-.06.16-.1.24l-.05.1-5.55-1.6c-.94-.26-1.87-.56-2.81-.84-.94-.26-1.9-.44-2.85-.66l-5.72-1.33c-1.92-.37-3.86-.66-5.79-1l-2.91-.49c-.97-.12-1.95-.2-2.93-.31-1.95-.18-3.91-.43-5.87-.56l-5.9-.17c-1.97-.09-3.93.06-5.9.11l-2.95.14c-.98.04-1.96.17-2.94.25-1.96.21-3.93.33-5.87.61l-5.84.88-5.8 1.13-5.74 1.39c-1.89.54-3.8 1.04-5.68 1.61-3.27 1-6.48 2.09-9.69 3.37l-1.92-8.2c-.69-2.98-1.43-5.94-2.15-8.91l11.44-3.29.01.05zM18.23 77.61l-.18-.94a4.87 4.87 0 0 1-.08-.84c0-.56.14-1.13.37-1.65.24-.52.6-1 1.06-1.39.19-.17.41-.33.64-.48.4 2.18.81 4.36 1.24 6.54l1.36 6.94c-1.19-.25-2.38-.49-3.58-.74-.07-2.51-.42-4.98-.84-7.43l.01-.01zm-5.62 110.38-1.12-13.05-1.25-13.16c-.85-8.77-1.77-17.54-2.73-26.3-.94-8.76-1.96-17.52-2.98-26.27-1.02-8.54-2.07-17.07-3.19-25.6l3.67-.33 9.47 1.41c2.73.41 5.46.8 8.19 1.17l.55 2.79s0 .03.01.04c-2.05-.46-4.1-.94-6.15-1.39L5.3 84.69a.43.43 0 0 0-.16 0c-.28.03-.48.28-.45.55v.02c.87 8.61 1.65 17.24 2.58 25.84l2.8 25.82 3.04 25.79c.97 8.56 2.15 17.1 3.22 25.65l-3.71-.36-.01-.01zm15.35-2.77c-.28.07-.57.13-.85.2.62-.72 1.09-1.52 1.51-2.35.48-1.02.89-2.08 1.03-3.24-.85.85-1.42 1.81-1.92 2.81-.42.9-.78 1.83-.96 2.87-.99.23-1.99.46-2.98.7.98-1.27 1.81-2.6 2.63-3.95.9-1.56 1.79-3.13 2.47-4.85-1.34 1.29-2.39 2.78-3.33 4.34-.83 1.43-1.56 2.92-2.04 4.52-2.04.48-4.08.96-6.11 1.46-.73-7.27-1.4-14.55-2.18-21.82.4-.43.73-.89 1.03-1.37.44-.78.82-1.6.95-2.6-.79.57-1.33 1.31-1.81 2.09-.11.19-.21.38-.31.57-.08-.69-.15-1.38-.22-2.07l-1.39-12.76c.94-1.07 1.76-2.21 2.52-3.41.94-1.56 1.76-3.25 2.05-5.09-1.03 1.54-1.96 3.04-2.91 4.56-.61 1.02-1.22 2.04-1.75 3.12l-.45-4.14c1.47-1.92 2.78-3.92 4.03-5.96 1.47-2.44 2.87-4.92 4.02-7.57-1.81 2.22-3.38 4.62-4.87 7.05-1.15 1.92-2.26 3.87-3.24 5.89l-.82-7.51-1.35-11.43c.48-.51.9-1.07 1.27-1.65.55-.91 1.04-1.85 1.28-2.96-.9.69-1.54 1.54-2.12 2.43-.2.33-.39.67-.56 1.02l-.41-3.42c.59-.69 1.1-1.44 1.56-2.22.64-1.12 1.21-2.28 1.52-3.58-.99.92-1.72 1.98-2.38 3.07-.3.52-.58 1.06-.83 1.61l-1.03-8.66c-1-8.37-2.12-16.72-3.19-25.07L17 87.88c2.12.39 4.25.76 6.38 1.13.3.6 1.01.9 1.65.65l.07-.03.57-.21c.61.11 1.22.22 1.84.33l.73.33s.05.01.07 0c.12-.05.24-.09.36-.13.07.01.14.03.22.04-.07-.02-.13-.03-.2-.05 3.26-1.21 6.61-2.18 9.96-3.1 1.74-.47 3.5-.88 5.25-1.31l3.66-.76c.8 8.9 1.7 17.79 2.62 26.68l.21 1.95c-3.1-.36-6.2-.45-9.3-.47-3.04.01-6.08.1-9.12.45L28.89 90l2.66 25.91 2.78 25.9 2.83 25.89 1.72 15.04c-3.63.8-7.26 1.65-10.88 2.5l-.04-.02zm10.82-17.73-1.23-9.81c5.93.19 11.85.29 17.78.36h.02l.87 7.49 1.02 8.29h-.6c-5.68.08-11.37.17-17.05.36l-.81-6.7v.01zm3.01 25.06-2.2-18.31c5.68.19 11.36.28 17.05.36h.7l.55 4.44 1.76 13.45-17.84.05-.02.01zm62.55 6.11-.04 3.29c0 .1.08.17.17.17l8.74.1-.1 5.07c-.01.89-.02 1.78 0 2.69v.11h-1.81l-10.69-.08-21.39-.06-21.39.04c-7.02 0-14.04.05-21.06.12l-.07-7.98 6.64-.08c.09 0 .17-.08.17-.17l-.04-2.68 2.52-.03c.05 0 .09-.04.09-.1l-.08-4.69 29.33.08 26.83-.07-.07 4.15c0 .05.04.09.09.09l2.15.03h.01zm-37.94-6.18c1.02-.65 2.06-1.27 3.11-1.83l1.09-.55c.18-.08.38-.19.52-.24.16-.04.14-.03.22 0 .08.05.27.2.43.32l.49.38.49.38c.17.12.28.26.61.42.37.17.77.05.98-.04.22-.09.42-.19.61-.29.38-.21.73-.41 1.06-.56.33-.15.65-.24.95-.19.29.03.61.22.97.43.93.57 1.86 1.16 2.78 1.77h-5.37l-8.94.01v-.01zm42.41.06-27.65-.07c-.88-.87-1.8-1.69-2.81-2.42-.33-.24-.71-.54-1.25-.64-.53-.11-1.04.02-1.47.19-.43.17-.79.39-1.15.57-.33.18-.79.34-.74.28-.05-.01-.24-.16-.41-.28l-.5-.37-.5-.37c-.17-.12-.3-.24-.58-.39-.29-.17-.76-.13-.98 0-.25.11-.4.21-.59.31-.37.2-.73.42-1.08.65-1.13.72-2.18 1.57-3.14 2.5H62.6l-1.27-13.49-.44-4.36c4.55.04 9.09.05 13.64.08 5.81-.04 11.62-.04 17.43-.11l-.1 4.26-.2 13.61.69-13.6.18-4.28 2.39-.04-.09 4.07-.2 13.61.69-13.6.18-4.09 5.9-.09c2.7-.08 5.4-.13 8.09-.22l-.7 18.3.02-.01zm.99-25.84-.28 7.49c-2.7-.09-5.4-.14-8.1-.22l-5.87-.09.38-8.83.26-7.06 5.5-.08c2.83-.08 5.66-.13 8.5-.22l-.39 9.02v-.01zm.39-9.06c-2.83-.09-5.66-.15-8.5-.22l-5.48-.08.63-17.01 5.15-.07c2.99-.08 5.98-.13 8.97-.23l-.76 17.61h-.01zm.76-17.65c-2.99-.1-5.98-.15-8.97-.23l-5.12-.07.07-1.85.21-7.42c2.39.34 4.78.43 7.16.44 2.36-.01 4.72-.1 7.08-.43l-.43 9.56zm28.54-33.66c-.4 8.8-.79 17.61-1.11 26.41-.33 8.81-.63 17.61-.86 26.42l-.32 13.22-.2 13.1-3.97.67c.42-8.63.89-17.25 1.26-25.88l1.16-25.94 1.04-25.95c.37-8.65.63-17.3.95-25.95v-.08c-.04-.15-.19-.25-.34-.21-7.88 1.92-15.73 3.94-23.6 5.9 7.79-1.76 15.58-3.47 23.36-5.26-.3 6.28-.62 12.56-.92 18.84-.2-.36-.43-.69-.69-1-.49-.53-1.03-1.01-1.81-1.29.18.8.59 1.4 1.06 1.95.4.43.84.82 1.4 1.11-.07 1.52-.15 3.03-.21 4.55-.19-.29-.4-.55-.62-.8-.43-.43-.87-.83-1.56-1.11.04.74.4 1.32.83 1.8.36.37.79.68 1.31.84 0 .23-.02.46-.03.68l-.52 11.71c-.51-.84-1.14-1.59-1.8-2.31-.88-.91-1.82-1.78-2.96-2.41.59 1.2 1.38 2.17 2.24 3.1.75.78 1.56 1.51 2.51 2.12l-.35 7.87c-1.39-1.98-2.95-3.81-4.56-5.6-.91-.98-1.82-1.95-2.78-2.88-.47-.47-.96-.93-1.45-1.38-.51-.42-.98-.96-1.64-1.19.53.42.87.98 1.27 1.52.41.53.82 1.06 1.24 1.57.84 1.04 1.72 2.04 2.61 3.03 1.67 1.81 3.39 3.57 5.29 5.17l-.25 5.63-1.04 25.95c-.1 2.39-.18 4.78-.27 7.17-1.51-2.34-3.2-4.54-4.96-6.69-.96-1.15-1.93-2.3-2.95-3.41-.51-.56-1.01-1.1-1.55-1.65-.55-.51-1.22-1.05-2-1.1.71.27 1.21.82 1.63 1.42l1.32 1.82c.89 1.21 1.83 2.38 2.78 3.55 1.8 2.17 3.67 4.29 5.72 6.25l-.09 2.34c-.52-.98-1.21-1.84-1.97-2.63-.96-.96-2.02-1.84-3.3-2.41.76 1.18 1.66 2.15 2.58 3.11.84.84 1.68 1.65 2.66 2.38-.18 5.16-.36 10.32-.55 15.48l-21.5-3.71.51-15.4.74-26.73.69-26.73.56-26.65s.04 0 .06-.02l1.22-1.1c3.75-.78 7.49-1.61 11.22-2.44 3.75-.82 7.49-1.66 11.22-2.52l3.62.07c-.49 8.57-.93 17.13-1.34 25.7l.01-.02z" fill="#000"/><path d="M108.21 76.53c1.82-.79 3.33-2.05 4.79-3.27l2.06-1.72c-.53 1.87-1.03 3.76-1.51 5.64-.07.27.09.54.36.61.04.01.08.02.12.02.22 0 .43-.15.48-.38.61-2.39 1.26-4.81 1.95-7.18a.499.499 0 0 0-.21-.56.481.481 0 0 0-.59.04l-3.31 2.77c-1.11.93-2.25 1.88-3.51 2.6l1.97-6.26a.502.502 0 1 0-.96-.3l-2.32 7.39c-.06.19 0 .39.14.52.15.13.35.16.53.09l.01-.01zM98.43 75.01c2.16-1.63 4.4-3.32 6.54-5.07.02-.01.03-.03.05-.04-.58 1.67-1.12 3.35-1.62 5.04-.08.26.07.54.34.62.05.01.09.02.14.02.22 0 .42-.14.48-.36.71-2.42 1.52-4.85 2.41-7.22a.508.508 0 0 0-.25-.63.498.498 0 0 0-.65.2c-.35.6-.9 1.08-1.54 1.6-1.68 1.37-3.43 2.71-5.15 4.02a34.08 34.08 0 0 0 1.56-6.84.503.503 0 1 0-1-.12 32.91 32.91 0 0 1-2.09 8.21c-.08.21-.02.45.16.58.18.14.42.14.6 0l.02-.01zM90.05 74.72c.64.24 1.32.36 2.01.36 1.28 0 2.56-.41 3.57-1.18.22-.17.26-.48.09-.7a.496.496 0 0 0-.7-.09c-1.29.99-3.1 1.26-4.61.68-.77-.29-1.34-.75-1.62-1.31-.3-.6-.28-1.35-.22-2 .04-.5.13-1.15.36-1.74.69-1.74 2.85-2.75 4.63-2.17.62.2 1.26.68 1.27 1.28 0 .28.24.5.51.49.28 0 .49-.24.49-.51-.03-1.16-1.08-1.91-1.96-2.2-2.29-.75-4.98.51-5.87 2.75-.28.71-.38 1.45-.43 2.02-.07.79-.09 1.71.32 2.53.39.78 1.15 1.42 2.16 1.8v-.01zM78.65 74.31s.08.01.12.01c.23 0 .43-.15.49-.38.29-1.23.55-2.47.77-3.72 1.4.78 3.11.8 4.33.03.74-.46 1.29-1.27 1.48-2.16.18-.81.04-1.6-.37-2.23-.52-.78-1.45-1.32-2.57-1.48-.94-.13-1.86 0-2.76.12a.5.5 0 0 0-.43.45 60.36 60.36 0 0 1-1.43 8.76c-.06.27.1.54.37.6zm2.02-8.87c.7-.09 1.41-.17 2.09-.07.83.12 1.51.5 1.87 1.04.27.4.35.93.23 1.47-.14.63-.53 1.2-1.04 1.53-.97.61-2.38.54-3.5-.17-.04-.03-.08-.04-.13-.06.2-1.24.35-2.49.47-3.74h.01zM71.92 68.41c.06.07.2.23.39.33-.2.34-.41.68-.62 1.03-.68 1.12-1.38 2.27-1.95 3.47-.16.34-.03.62.14.75.09.07.21.11.33.11.12 0 .23-.03.32-.1.15-.12.24-.34.21-.53.53-1.08 1.17-2.14 1.8-3.17 1.18-1.93 2.39-3.93 2.91-6.2a.503.503 0 0 0-.98-.22c-.32 1.41-.93 2.7-1.65 3.98-.03 0-.06-.02-.09-.03-.01-.01-.02-.03-.04-.05a172.32 172.32 0 0 1-3.31-4.25.498.498 0 0 0-.7-.1c-.22.17-.27.48-.1.7 1.08 1.44 2.2 2.88 3.33 4.28h.01zM59.21 73.94c.24-1.44.19-2.85.07-4.24.53-.25 1.01-.57 1.46-.95a8.247 8.247 0 0 1 3.66 4.66.5.5 0 0 0 .48.36c.05 0 .1 0 .14-.02a.5.5 0 0 0 .33-.62 9.21 9.21 0 0 0-3.9-5.1c.93-1.07 1.55-2.41 1.7-3.82l-.32-.03.31-.1c-.04-.25-.26-.41-.51-.42-.25 0-.46.2-.48.45-.19 1.88-1.37 3.62-3.02 4.53-.16-1.1-.39-2.19-.81-3.26-.25 1.47-.19 2.91-.06 4.34.16 1.43.39 2.85.93 4.24l.02-.02zM48.23 74.81c.74.44 1.64.72 2.69.83.19.02.4.04.64.04.42 0 .89-.05 1.34-.24.8-.33 1.37-1.01 1.83-1.55.18-.21.15-.53-.06-.7a.493.493 0 0 0-.7.06c-.4.48-.86 1.03-1.44 1.27-.49.2-1.09.17-1.49.13-.9-.09-1.66-.32-2.27-.69-1.2-.72-1.98-2.1-1.99-3.52 0-1.39.75-2.8 1.92-3.6 1.17-.79 2.73-.98 4.08-.49.27.1.74.31.82.65.07.27.35.43.61.36.27-.07.43-.34.36-.61-.15-.59-.66-1.05-1.45-1.34-1.64-.59-3.55-.36-4.98.6-1.47.99-2.37 2.68-2.36 4.43 0 1.76.98 3.48 2.47 4.37h-.02zM38.93 77.98c.04.24.25.41.49.41h.09c.27-.05.45-.31.4-.58-.27-1.44-.58-2.89-.91-4.33.04-.01.08 0 .12-.03.4-.22.77-.49 1.11-.78.02.02.04.04.07.05.57.24 1.1.55 1.57.93.56.44 1.04.97 1.56 1.53.59.64 1.21 1.31 1.95 1.84.09.06.19.09.29.09a.5.5 0 0 0 .29-.91c-.66-.47-1.21-1.07-1.8-1.71-.52-.56-1.05-1.14-1.67-1.63-.47-.37-.98-.67-1.52-.93 1.07-1.22 1.74-2.79 1.79-4.42 0-.28-.21-.51-.49-.51-.23.02-.51.21-.51.49-.06 2.04-1.23 3.98-3 5-.34-1.41-.7-2.81-1.09-4.2a.493.493 0 0 0-.62-.34c-.27.08-.42.35-.34.62.88 3.09 1.62 6.26 2.21 9.42l.01-.01zM25.47 72.59c1.06-1.38 3.22-1.85 5.03-1.1.81.33 1.51.88 2.04 1.55-1.3.76-2.69 1.37-4.13 1.82a.5.5 0 0 0-.33.62c.07.21.26.35.48.35.05 0 .1 0 .15-.02 1.53-.47 3-1.12 4.37-1.93.24.46.41.96.48 1.47.24 1.7-.57 3.51-1.99 4.39-1.44.9-3.45.76-4.69-.32a.506.506 0 0 0-.71.05c-.18.21-.16.52.05.71.88.77 2.04 1.16 3.21 1.16.93 0 1.86-.25 2.67-.75 1.74-1.08 2.74-3.29 2.45-5.38-.29-2.02-1.73-3.84-3.67-4.64-2.21-.92-4.88-.31-6.2 1.42-.17.22-.13.53.09.7.22.17.53.13.7-.09v-.01z" fill="#000"/><path d="M68.06 252.03c8.6 0 15.57-6.971 15.57-15.57s-6.97-15.57-15.57-15.57c-8.599 0-15.57 6.971-15.57 15.57s6.971 15.57 15.57 15.57z" fill="#fff"/><path d="M69.703 244.665c-3.29.668-6.498-1.451-7.167-4.734l-.595-2.908a1.16 1.16 0 0 1 .91-1.37l9.626-1.965a1.159 1.159 0 0 1 1.37.909l.596 2.908c.668 3.289-1.45 6.498-4.733 7.166l-.007-.006z" fill="#0ABBEF"/><path d="m74.93 237.552-.387-2.494-.047-.314c-.013-.1-.026-.201-.066-.361a1.711 1.711 0 0 0-.448-.762 1.728 1.728 0 0 0-.782-.448c-.148-.04-.301-.06-.455-.06-.154 0-.328.033-.408.047l-.094.02-.04-.221-.294-1.691a4.955 4.955 0 0 0-.595-1.652 5.208 5.208 0 0 0-2.707-2.293 5.351 5.351 0 0 0-3.664 0c-1.196.428-2.22 1.331-2.841 2.467-.595 1.13-.822 2.514-.515 3.757.014.074.034.141.047.214.114.528.234 1.057.361 1.585-.12.053-.227.12-.328.194-.24.193-.427.441-.541.715a1.8 1.8 0 0 0-.114.876c.027.16.054.26.08.361l.08.3.623 2.447a6.695 6.695 0 0 0 2.988 4.112c.621.394 1.31.675 2.019.835.555.134 1.13.181 1.698.167H68.647c.12 0 .24-.006.36-.02 0 0 .395-.06.409-.06l.207-.04h.02-.013l.227-.047a6.66 6.66 0 0 0 3.93-2.667 6.692 6.692 0 0 0 1.137-4.954l.007-.013zm-5.875-3.797-4.78.949c-.04-.261-.241-1.471-.281-1.732-.26-1.631.922-3.242 2.447-3.469a2.945 2.945 0 0 1 2.166.448c.621.428 1.083 1.076 1.237 1.825.12.588.254 1.17.387 1.758-.394.074-.789.147-1.176.221z" fill="#000"/><path d="m69.81 240.213-.054-.12-.1-.234c-.127-.295-.254-.589-.368-.89.415-.367.562-.922.408-1.397.08.254.06.542-.067.776a.93.93 0 0 1-.555.468l-.093-.395-.448-.02a.664.664 0 0 1-.502-.261.737.737 0 0 1-.08-.762c.12-.287.468-.528.856-.501.388.02.769.301.889.695a1.344 1.344 0 0 0-.856-.855 1.392 1.392 0 0 0-1.344.28c-.4.335-.621.956-.46 1.538.106.434.434.815.855 1.023.04.2.08.408.133.608l.074.241.094.294c.147.441.642.695 1.05.582.414-.094.694-.515.621-.896-.02-.114-.04-.141-.053-.181v.007z" fill="#000"/><path d="M77.37 223.86c3.27 2.44 5.85 6 6.73 10.2.95 4.16-.14 8.8-2.83 12.17-2.69 3.4-6.74 5.44-10.86 5.96-4.12.57-8.44-.37-11.95-2.75-3.53-2.33-6.09-6.24-6.77-10.52-.74-4.27.31-8.87 2.95-12.37 2.61-3.5 6.73-5.86 11-6.16 4.27-.37 8.45 1.04 11.73 3.47zm-.12.17c-3.27-2.45-7.6-3.15-11.4-2.28-3.8.88-7.2 3.04-9.42 6.12-2.23 3.05-3.31 6.95-2.8 10.75.5 3.79 2.46 7.4 5.51 9.9 3.04 2.5 7.22 3.68 11.17 3 3.96-.66 7.42-3.14 9.56-6.32 2.19-3.18 3.22-7.04 2.93-10.95-.3-3.89-2.24-7.83-5.55-10.22z" fill="#000"/></g><defs><linearGradient id="b" x1=".97" y1="196.46" x2="147.94" y2="196.46" gradientUnits="userSpaceOnUse"><stop stop-color="#0ABBEF"/><stop offset=".24" stop-color="#0D9ACF"/><stop offset=".76" stop-color="#14598E"/><stop offset="1" stop-color="#174075"/></linearGradient><linearGradient id="c" x1="52.72" y1="108.48" x2="94.52" y2="108.48" gradientUnits="userSpaceOnUse"><stop stop-color="#174075"/><stop offset=".24" stop-color="#14598E"/><stop offset=".76" stop-color="#0D9ACF"/><stop offset="1" stop-color="#0ABBEF"/></linearGradient><linearGradient id="d" x1="53.54" y1="110.98" x2="93.91" y2="110.98" gradientUnits="userSpaceOnUse"><stop stop-color="#0ABBEF"/><stop offset=".24" stop-color="#0D9ACF"/><stop offset=".76" stop-color="#14598E"/><stop offset="1" stop-color="#174075"/></linearGradient><linearGradient id="e" x1="68.47" y1="155.26" x2="87.39" y2="155.26" gradientUnits="userSpaceOnUse"><stop stop-color="#0ABBEF"/><stop offset=".24" stop-color="#0D9ACF"/><stop offset=".76" stop-color="#14598E"/><stop offset="1" stop-color="#174075"/></linearGradient><linearGradient id="f" x1="28.1" y1="49.529" x2="116.11" y2="49.529" gradientUnits="userSpaceOnUse"><stop stop-color="#EC5F6C"/><stop offset=".59" stop-color="#C0434D"/><stop offset="1" stop-color="#A7333C"/></linearGradient><linearGradient id="g" x1="64.21" y1="8.63" x2="81.52" y2="8.63" gradientUnits="userSpaceOnUse"><stop stop-color="#FFED00"/><stop offset=".09" stop-color="#FDE204"/><stop offset=".71" stop-color="#F2A120"/><stop offset="1" stop-color="#EE882C"/></linearGradient><linearGradient id="h" x1="5.19" y1="136.81" x2="39.19" y2="136.81" gradientUnits="userSpaceOnUse"><stop stop-color="#FFED00"/><stop offset=".09" stop-color="#FDE204"/><stop offset=".71" stop-color="#F2A120"/><stop offset="1" stop-color="#EE882C"/></linearGradient><linearGradient id="i" x1="110.1" y1="134.32" x2="137.15" y2="134.32" gradientUnits="userSpaceOnUse"><stop stop-color="#FFED00"/><stop offset=".09" stop-color="#FDE204"/><stop offset=".71" stop-color="#F2A120"/><stop offset="1" stop-color="#EE882C"/></linearGradient><clipPath id="a"><path fill="#fff" d="M0 0h149.43v252.35H0z"/></clipPath></defs></svg>