<svg width="175" height="195" fill="none" xmlns="http://www.w3.org/2000/svg"><g clip-path="url(#a)"><path d="M94 176.1c44.205 0 80.04-35.836 80.04-80.04 0-44.205-35.835-80.04-80.04-80.04-44.205 0-80.04 35.835-80.04 80.04 0 44.204 35.835 80.04 80.04 80.04z" fill="url(#b)"/><path d="M96.35 78.92s10.64 3.16 13.55 3.25c2.91.09 13.59-.69 13.59-.69l-33.63 95.23s-13.45-1.85-19.45-3.81c-6-1.97-9.12-3.76-9.12-3.76l-.63-.64" fill="#76B82A"/><path d="M164.58 129.399s-.89 13.05-1.48 17.09c-.6 4.04-2.47 13.3-2.47 13.3s0-4.96-10.19-11.54c-.06-.05-.12-.08-.18-.12-10.37-6.65-16.41-9.92-16.41-9.92h-1.86l-2.47 3.56-9.03 12.99-7.13 20.25s-15.69 1.46-18.76 1.66c-3.07.22-6.08-.57-6.08-.57l21.41-59.33 9.71-23.7s1.53-8.21 1.71-12.43c.18-4.22-.21-12.8-.21-12.8l-.68-4.53s5.65-.49 9.03 3.76c3.37 4.25 7.56 10.76 7.56 10.76l.97 1.49.51.79.31-.13s6.98 2.21 12.07 7.4c5.09 5.18 12.05 12.83 12.85 18.78.79 5.95.81 23.24.81 23.24h.01z" fill="#fff"/><path d="M174.27 95.9c.02 5.259-.49 10.509-1.46 15.679-.94 5.18-2.43 10.25-4.32 15.18-3.83 9.83-9.54 19.01-16.9 26.74-3.68 3.86-7.72 7.4-12.14 10.44-1.12.73-2.22 1.5-3.36 2.21-1.15.68-2.29 1.4-3.46 2.04-1.19.61-2.37 1.26-3.58 1.84-1.22.55-2.43 1.15-3.67 1.66-9.88 4.21-20.67 6.261-31.39 6.131a80.991 80.991 0 0 1-31.11-6.8 80.98 80.98 0 0 1-13.87-7.791 83.973 83.973 0 0 1-12.13-10.209 84.224 84.224 0 0 1-17.55-26.191 85.73 85.73 0 0 1-4.79-15.12 81.396 81.396 0 0 1-1.81-15.8c-.18-10.63 1.65-21.38 5.67-31.31 3.97-9.95 9.94-19.13 17.51-26.77A82.477 82.477 0 0 1 62.47 19.8c9.93-4.22 20.75-6.31 31.53-6.32 10.78.08 21.57 2.21 31.46 6.48 9.91 4.21 18.86 10.55 26.18 18.31 7.35 7.75 13.05 16.94 16.88 26.77 1.89 4.93 3.38 10.01 4.31 15.19.96 5.17 1.46 10.43 1.43 15.68l.01-.01zm-.45 0c-.04-5.22-.56-10.45-1.64-15.55-1.1-5.1-2.66-10.1-4.79-14.85-4.19-9.53-10.37-18.09-17.84-25.16-14.98-14.12-35.17-22.27-55.56-22.1-5.09.03-10.17.5-15.16 1.49-4.99.98-9.87 2.46-14.59 4.36a78.03 78.03 0 0 0-25.37 16.69c-7.25 7.18-13.16 15.74-17.21 25.16a83.117 83.117 0 0 0-4.69 14.63c-1.1 5.02-1.7 10.16-1.81 15.32-.15 10.309 1.63 20.729 5.56 30.339 3.88 9.63 9.78 18.45 17.17 25.74 3.7 3.64 7.78 6.89 12.13 9.71a79.26 79.26 0 0 0 13.8 7.02c9.61 3.76 19.92 5.551 30.16 5.371 5.12-.06 10.22-.641 15.23-1.631 5.01-1.01 9.91-2.51 14.65-4.41 1.19-.47 2.34-1.02 3.51-1.53 1.16-.53 2.29-1.14 3.44-1.7 1.14-.58 2.24-1.229 3.37-1.839 1.11-.64 2.18-1.33 3.28-2 4.29-2.79 8.39-5.93 12.13-9.47 7.46-7.09 13.64-15.661 17.82-25.191 2.12-4.75 3.68-9.76 4.78-14.86 1.07-5.11 1.58-10.33 1.61-15.56l.02.02z" fill="#000"/><path d="M153.12 150.85a940.2 940.2 0 0 0-4.19 7.68c2.35 1.64 4.91 3.34 7.78 3.32.61 0 1.21-.09 1.81-.19.57-.09 1.17-.22 1.59-.62.69-.67.57-1.83.16-2.71-.44-.94-1.14-1.74-1.83-2.51-1.36-1.51-2.75-2.98-4.18-4.41" fill="#76B82A"/><path d="M97.35 70.83c.07 2.48-1.58 7.18-1.84 10.59 0 .16-.05.36-.1.58-1.07 4.57-10.06 21.79-10.06 21.79l-7.51 21.78-11.72-2.6s-5.12-25-6.48-26.45c-1.29-1.4-3.77-.3-4.01-.2.14-.19 1.28-1.7 1.74-2.27.49-.62 4.31-4.11 7.14-6.66s13.1-8.46 13.1-8.46l3.14-1.01L79 75.73l8.58-5.92 4.93-3.39.53-.32 4.37 1s-.14 1.25-.07 3.73h.01z" fill="#fff"/><path d="M73.41 168.179c-.72.09-5.85.2-12.65.31h-.07c-15.58.26-39.84.54-39.84.54s-1.7.3-2.48-2.33c-.78-2.62-8.46-28.49-8.46-28.49l-1.61-4.43-2.47-6.78-5-19.3s-1.44-5.37 4.5-5.07l49.16-6.16s5.53-1.42 6.17.23c.65 1.65.92 3.56.92 3.56l5.03 23.61.47 2.21 8.2 38.47s.5 3.34-1.88 3.63h.01z" fill="#A0A0A0"/><path d="M97.35 70.83c.07 2.48-1.58 7.18-1.84 10.59 0 .16-.05.36-.1.58h-.04c-.74-2.24-1.49-4.49-2.23-6.73-.5-1.51-1.06-3.1-2.29-4.08-.94-.73-2.11-1.02-3.25-1.37l4.93-3.39.53-.32 4.37 1s-.14 1.25-.07 3.73l-.01-.01zM118.65 98.01c1.03-1.79 2.12-3.55 3.27-5.28.6-.91 1.23-1.82 2.12-2.45 1.47-1.06 3.39-1.19 5.19-1.2 2.32 0 4.64.13 6.94.41.35.04.71.09 1 .3.29.21 1.54 2.77 1.75 4.86-5.26-.02-8.7.58-13.61 2.45s-9.42 5.069-12.3 9.469l5.65-8.56h-.01zM82.6 79.09a25.42 25.42 0 0 0-2.95 5.42c4.24 1.31 8.54 2.43 12.88 3.36.08-.51.27-1 .56-1.42-2.98-1.6-5.69-3.69-8.01-6.16M131.18 137.949c-2.08-1.79-4.85-2.49-7.52-3.14-1.11-.27-2.24-.54-3.38-.45-.07.55.46.98.92 1.3 2.8 1.92 5.45 4.07 7.91 6.4l1.44-1.89M164.579 129.399s-.89 13.05-1.48 17.09c-.6 4.04-2.47 13.3-2.47 13.3s0-4.96-10.19-11.54c2.09-3.24 3.13-7.18 3.99-10.98.92-4.11 1.72-8.25 2.41-12.41 1.04-6.37 1.81-12.88.86-19.27-.95-6.38-3.79-12.71-8.87-16.7-2.5-1.98-5.45-3.32-8.43-4.42l-2.37-5.15.51.79.31-.13s6.98 2.21 12.07 7.4c5.09 5.18 12.05 12.83 12.85 18.78.79 5.95.81 23.24.81 23.24z" fill="#76B82A"/><path d="M153.02 150.139c-.06.07-4.92 9.53-5.02 9.7-.11.17-9.86 13.72-11.49 15.61-1.62 1.9-8.63 6.26-13.29 7.39-4.65 1.13-11.41-4.94-11.41-4.94l-33.34-23.95s-3.82-.45-5.49-.6c-1.66-.14-5.98-4.41-5.98-4.41s-3.43 1.87-5.65 2.6c-.51.17-.96.27-1.28.28-1.39.02-1.92-2.59-2.08-3.65-.04-.26-.06-.43-.06-.43s-1.21.53-2.94.99c-.92.25-1.47-.46-1.79-1.22-.28-.66-.39-1.34-.41-1.43-.04-.15-.33-2.07-.48-3.05l-.08-.57s-.12-.07-.32-.19c-.45-.3-1.28-.94-1.99-2-1.03-1.53 1.98-3.73 1.98-3.73l4.03-1.99-.05-.02-2.42-.93-2-.76s-.86-1.28-.79-2.35c.07-1.07 8.52-2.82 9.99-3.28 1.23-.38 4.59-1.18 5.67-1.43.22-.05.34-.08.34-.08l-.28-1.41-.32-1.62 7.86.19s1.59.44 4.2 2.72c2.62 2.27 9.04 17.61 10.76 20.93 1.72 3.3 23.12 7.19 23.12 7.19l8.47 1.08 11.5-16.55c1.41 0 3.83 1.05 6.54 2.52 6.43 3.48 14.49 9.34 14.49 9.41l.01-.02z" fill="#F4C6CC"/><path d="M138.52 140.729c-.78 3-2.17 5.89-3.54 8.69-2.16 4.41-4.32 8.83-6.48 13.25-1.08 2.21-2.54 4.71-4.98 5.02-1.13.15-2.27-.23-3.34-.6a461.72 461.72 0 0 1-27.78-10.64c-1.97-.83-3.96-1.68-5.65-2.97-.59-.45-1.14-.95-1.53-1.58-.39-.62-.6-1.33-.81-2.04a107.96 107.96 0 0 0-9.78-22.52c-.49-.84-1.02-1.71-1.85-2.18-.71-.41-1.56-.49-2.38-.55l-4-.33-.32-1.62 7.86.19s1.59.44 4.2 2.72c2.62 2.27 9.04 17.61 10.76 20.93 1.72 3.3 23.12 7.19 23.12 7.19l8.47 1.08 11.5-16.55c1.41 0 3.83 1.05 6.54 2.52l-.01-.01zM68.88 128.259c-2.54-.71-5.23.12-7.74.94-2.71.89-5.43 1.77-8.14 2.66 0 .61.17 1.21.47 1.74l-2-.76s-.86-1.28-.79-2.35c.07-1.07 8.52-2.82 9.99-3.28 1.23-.38 4.59-1.18 5.67-1.43.92.74 1.53 1.86 2.54 2.48zM67.49 132.699c-3.68.84-7.3 1.98-10.8 3.4-1.99.81-4.22 2.05-4.49 4.19-.08.65-.02 1.43-.27 1.99-.45-.3-1.28-.94-1.99-2-1.03-1.53 1.98-3.73 1.98-3.73l4.03-1.99-.05-.02c1.51-.7 3.01-1.47 4.59-1.99 2.28-.77 4.91-1.01 7.01.17l-.01-.02zM69.28 139.369c-3.01.98-6.03 1.95-9.05 2.92-2.2.71-4.56 1.55-5.83 3.48-.32.49-.55 1.03-.92 1.47-.08.1-.17.19-.27.28-.28-.66-.39-1.34-.41-1.43-.04-.15-.33-2.07-.48-3.05.11-.1.22-.18.34-.26.5-.35 1.07-.55 1.63-.77 2.42-.89 4.84-1.8 7.26-2.7 1.02-.37 2.05-.76 3.14-.84 1.57-.12 3.11.41 4.59.92v-.02zM67.21 144.279c-.23.57-.73.98-1.21 1.37-.64.51-1.27 1.03-1.91 1.55-1.13.91-2.3 1.85-3.68 2.29.06.77.4 1.51.95 2.05-.51.17-.96.27-1.28.28-1.39.02-1.92-2.59-2.08-3.65l9.21-3.89z" fill="#fff"/><path d="M66.68 126.429v-.32c.02.17.02.27 0 .32z" fill="#fff"/><path d="m71.9 168.26-49.96.83c-1.55.03-2.93-.98-3.37-2.46L6.21 129.34.82 107.67c-.68-2.3.86-4.67 3.24-4.97L56.95 96a3.963 3.963 0 0 1 4.38 3.11l5.34 27-1.42-.07-5.38-23.93a3.092 3.092 0 0 0-3.43-2.39l-49.77 6.66c-1.89.25-3.11 2.14-2.55 3.96l14.75 50.18a6.294 6.294 0 0 0 5.66 4.5l47.37 3.25v-.01z" fill="#fff"/><path d="M5.64 126.029s3.23 3.07 3.71 3.71c.48.64.66 2.55.66 2.55v.64s1.23 2.37 1.39 2.96c.16.59 0 3.23 0 3.23l.41-.28s1.29.49 1.08 2.09c-.21 1.6-1.05 2.45-1.57 2.02-.52-.43-2-2.11-2.33-2.12-.33-.01-.42-2.1-.64-1.98-.22.12-2.08-2.05-2.02-3.5.06-1.45 0-2.15 0-2.15s-2.18-1.71-1.79-3.27c.39-1.56 1.11-3.89 1.11-3.89l-.01-.01z" fill="#F4C6CC"/><path d="M23.14 103.22c0 .31 13.6 10.32 13.6 10.32L27.3 102.3M29.97 102.289l6.76 6.2-4.26-6.83-2.5.63zM43.61 166.889l-4.99-8.91 9.14 8.91M43.29 156.27l6.42 11.46h4.01l-10.43-11.46zM8.88 112.54a2.68 2.68 0 1 0 0-5.36 2.68 2.68 0 0 0 0 5.36zM15.72 109.8a1.62 1.62 0 1 0-.001-3.24 1.62 1.62 0 0 0 0 3.24z" fill="#fff"/><path d="M135.66 38.53c-.36.88-.89 1.68-1.43 2.45a54.23 54.23 0 0 1-3.5 4.47c-.08.09-.17.19-.3.17-.09 0-.15-.07-.22-.13-1.2-1.14-3.06-1.37-4.67-.96-1.61.42-3.01 1.39-4.31 2.41-.24.19-.49.38-.75.56-.42.53-.85 1.06-1.3 1.57-1.23-.98-2.58-1.82-4.02-2.49.92-1.11 1.44-2.49 1.91-3.85 1.3-3.79 2.35-7.65 3.14-11.58.11-.56.22-1.16.05-1.71a.09.09 0 0 0-.03-.07c-.15-.45-.47-.81-.79-1.17-1.76-2-3.68-4.1-6.25-4.76-2.42-.61-4.94.15-7.39.61-1.76.33-3.54.5-5.33.52-.34 0-.69-.01-1.02-.09-.89.28-1.78.56-2.68.8-2.83.77-6.09 1.26-8.51-.38-.93-.63-1.65-1.51-2.25-2.44-.42-.65-.79-1.32-1.1-2.02-.09-.18-.16-.36-.24-.55-.26-.63-.48-1.28-.65-1.94-.79-2.93-.77-6.09.14-8.99 1.63 1.58 3.74 2.66 5.97 3.07l-.32-.38c-.95-1.2-1.61-2.6-1.98-4.09-.56-2.22-.44-4.61.42-6.73 1.79 1.88 4.43 2.71 7.02 2.99 2.58.28 5.19.11 7.77.34 3.46.32 6.81 1.39 10.12 2.49 2.75.92 5.5 1.87 8.1 3.16 2.33 1.14 4.51 2.56 6.52 4.2 1.52 1.24 2.93 2.62 4.22 4.11 1.44 1.66 2.78 3.69 2.54 5.88-.24 2.11-1.86 3.75-3.4 5.2l-.22.44s-.09-.01-.14-.02v.03c-.02.06-.04.11-.06.16.12 0 .24.02.34.03 1.88.25 3.56 1.51 4.43 3.19.86 1.69.9 3.75.19 5.5h-.02z" fill="#ED6C2E"/><path d="M131.13 52.55c-.21.83-.48 1.67-.98 2.39-.86 1.24-2.29 1.98-3.75 2.35-1.46.37-2.98.42-4.48.56-.32.03-.65.07-.9.26-.32.24-.59.63-.55 1.02.63 6.72 1.32 18.11.97 18.57-.21.65 1.68 4.36-2.88 4.29.35 1.42-21.06-.93-21.71-3.35-.05-.2.15-2.45.2-3.24.04-.98.09-1.95.13-2.93.07-1.79.16-3.58.24-5.38-1.7.56-3.5-.4-4.94-1.46-1.44-1.06-2.78-2.29-3.79-3.77-1.99-2.93-2.5-6.6-2.7-10.14-.5-8.85.58-17.8 3.16-26.28l-.05.24c3.09.02 6.17-.14 9.23-.5 2.5-.28 4.98-.69 7.43-1.22 2.29-.49 4.67-1.1 6.95-.56 2.7.63 4.78 2.72 6.7 4.71.31.32.63.65.79 1.06.22.55.12 1.18.02 1.76-.81 4.85-1.66 9.83-4.16 14.07-.25.42-.52.83-.62 1.3-.03.13-.04.27-.05.4.92.73 1.86 1.45 2.82 2.11.19.13.4.27.63.25.2-.02.36-.15.51-.28 1.08-.94 1.87-2.21 3.07-2.98.7-.45 1.5-.71 2.31-.9 1.46-.35 3.07-.48 4.39.24 1.2.66 1.98 1.96 2.25 3.3.26 1.35.08 2.75-.26 4.09l.02.02z" fill="#fff"/><path d="M110.6 64.67c-.98.4-1.72 1.23-2.33 2.06-.63.84-1.32 1.61-2.13 2.29-2.09 1.74-4.56 2.62-7.17 3.23-.49.12-1.26.4-1.8.24.07-1.79.16-3.58.24-5.38-16.46-1-11.31-32.95-8.27-41.65l-.05.24c3.09.02 6.17-.14 9.23-.5.59 3.31-.36 6.67-.59 10.03-.17 2.46.07 4.56-.21 7.02-.53 3.22-3.12 6.85-3.12 6.85l2.1 1.01s.88 1.76.77 2.78c-.11 1.02-.28 2.15.31 3 .28.4.73.72.83 1.2.05.3-.03.59-.11.88-.66 2.45-.89 5.23.44 7.38.31.5.71.96 1.24 1.22.46.22.97.31 1.48.33 3.31.16 6.07-1.24 9.12-2.21l.02-.02z" fill="#F4C6CC"/><path d="M120.24 29.39c-.15-.44-.47-.81-.79-1.16-1.76-2-3.68-4.1-6.25-4.76-2.42-.61-4.94.15-7.39.61-1.76.33-3.54.5-5.33.52-.34 0-.69-.01-1.02-.09-.89.28-1.78.56-2.68.8-2.83.77-6.09 1.26-8.51-.38-.93-.63-1.65-1.51-2.25-2.44-.42-.65-.79-1.32-1.1-2.02-.18-.04-.36-.11-.53-.19-.02-.28-.03-.57-.02-.86.09.17.2.34.31.5.14.22.3.42.46.61 1.28 1.46 3.22 2.35 5.17 2.65 2.4.37 4.85-.02 7.24-.48 2.9-.56 5.8-1.24 8.75-1.43 2.95-.18 6.01.14 8.65 1.47 2.62 1.33 4.79 3.76 5.31 6.66l-.02-.01zM111.44 14.65c-5.21-4-12.34-5.38-18.67-3.64-.98.27-1.98.61-2.97.65-.95-1.2-1.61-2.6-1.98-4.09.78.38 1.63.63 2.48.75 2.13.3 4.28-.05 6.42-.2 2.8-.2 5.67-.04 8.29.96 2.62 1.01 4.98 2.03 6.02 4.63l.42.93-.01.01z" fill="#fff"/><path d="m105.7 20.02-3.95-1.82c-1.2-.65-2.94-.42-4.29-.22-1.36.2-2.65.67-3.95 1.12-2.27.79-4.62 1.53-7.03 1.54-.45 0-.91-.03-1.36-.12a.902.902 0 0 1-.22-.06c-.18-.04-.36-.11-.53-.19-.02-.28-.03-.57-.02-.86.09.17.2.34.31.5-.26-.63-.48-1.28-.65-1.94 1.68.85 3.77.76 5.63.3 2.13-.52 4.16-1.46 6.33-1.8 3.58-.55 7.58.64 9.74 3.55h-.01zM134.52 24.01c-.24 2.11-1.86 3.75-3.4 5.2l-.22.44s-.09-.01-.14-.02v.03l-3.23-.81c1.22.09 2.48-.42 3.28-1.35.46-.54.77-1.2.98-1.88.63-2.08.32-4.37-.54-6.36-.87-2-2.26-3.73-3.8-5.26.1 0 .21.01.31.03 1.52 1.24 2.93 2.62 4.22 4.11 1.44 1.66 2.78 3.69 2.54 5.88v-.01z" fill="#fff"/><path d="M124.58 55.16c.18.05.37-.05.42-.23v-.03c.1-.33.48-.65.76-1.22.13-.29.17-.67.09-.98-.07-.32-.21-.59-.38-.83-.34-.48-.74-.8-1.03-1.13-.3-.32-.44-.68-.41-1 .03-.29.27-.5.68-.53.42-.05.85.07 1.37.18.5.09 1.09.17 1.61-.14.52-.32.62-.9.67-1.38-.18.46-.41.95-.82 1.08-.4.14-.86.02-1.31-.13-.43-.16-.97-.36-1.55-.36-.29 0-.62.07-.92.27-.29.19-.5.53-.56.87-.12.68.21 1.3.57 1.71.36.42.75.73.99 1.06.25.35.35.69.24.99-.08.28-.38.59-.57 1.04-.57-.11-1.13-.25-1.69-.41-.67-.17-1.32-.42-1.98-.66.56.42 1.19.76 1.82 1.08.64.3 1.31.55 2 .75zM110.83 34.65c.4-4.16-5.66-6.15-6.96-.66 2.08-1.71 5.69-.99 6.96.66zM95.97 32.28c-.27-4.39-5.1-5.22-6.43-1.08 1.85-.78 4.46-.64 6.43 1.08zM93.83 49.19c1.29 1.23 4.47.9 4.47.9s-1.47-1-3.11-1.37c2.75-3.71 3.55-9.6 3.55-9.6s-1.9 5.74-4.92 10.07h.01zM101.5 54.51s.31.95.94 1.33c.22-1.53-.06-2.26-.99-3.04-.17.77-.03 1.43-.03 1.43-3.36 2.04-7.25 2.67-7.25 2.67s4.88 1.61 7.33-2.39zM108 46.51c-.8-.06-1.65.21-2.27.78-.63.56-1 1.41-1 2.27 0 .86.38 1.71 1 2.27.63.57 1.47.84 2.27.78 1.64-.1 2.86-1.57 2.83-3.05 0 .74-.33 1.47-.87 1.96-.54.48-1.27.71-1.96.65-1.4-.1-2.41-1.36-2.38-2.61-.03-1.24.98-2.5 2.38-2.6.68-.06 1.41.16 1.96.65.55.48.87 1.21.87 1.96.03-1.48-1.19-2.95-2.83-3.05v-.01zM106.26 43.93c.602 0 1.09-1.38 1.09-3.08 0-1.702-.488-3.08-1.09-3.08-.602 0-1.09 1.378-1.09 3.08 0 1.7.488 3.08 1.09 3.08zM91.72 35.3c-.62 0-1.13 1.46-1.13 3.25s.5 3.25 1.13 3.25c.63 0 1.13-1.46 1.13-3.25s-.5-3.25-1.13-3.25z" fill="#000"/><path d="M165.55 113.97c-.17-3.84-.52-7.89-2.1-11.58-1.54-3.68-3.87-6.91-6.48-9.79-2.63-2.87-5.42-5.56-8.51-7.93-2.91-2.16-6.18-3.99-9.72-4.75a69.72 69.72 0 0 0-3.41-5.79c-1.76-2.62-3.52-5.29-5.86-7.5-1.17-1.09-2.51-2.02-3.99-2.63-1.35-.56-2.83-.81-4.27-.68-.04-.7-.06-1.39-.04-2.07.04-.83.16-1.63.33-2.42 2.3.37 4.73-.06 6.77-1.26 2.28-1.37 3.87-3.85 4.11-6.48.13-1.31-.04-2.68-.61-3.89-.29-.63-.69-1.23-1.19-1.75 1.79-1.49 3.5-3.14 4.78-5.21.69-1.11 1.24-2.35 1.49-3.73.25-1.37.02-2.96-.76-4.2-.77-1.23-1.89-2.16-3.13-2.77-.49-.23-1-.42-1.5-.57.68-.75 1.46-1.42 2.12-2.23.41-.51.8-1.08 1.02-1.74.23-.65.31-1.35.26-2.04-.09-1.39-.65-2.67-1.34-3.81-.7-1.15-1.52-2.17-2.4-3.16-3.54-3.94-8.17-6.78-13.05-8.68-4.91-1.91-10.02-3.02-15.2-3.71-2.62-.34-5.28-.18-7.73-.4-1.23-.12-2.44-.36-3.54-.85-1.1-.48-2.1-1.18-2.79-2.13l-.02-.03a.456.456 0 0 0-.22-.17.52.52 0 0 0-.68.29c-.79 1.96-.95 4.12-.59 6.15.3 1.72 1.01 3.36 2.04 4.74-.84.03-1.63-.14-2.35-.55-.96-.53-1.72-1.41-2.07-2.41a.841.841 0 0 0-.43-.48.836.836 0 0 0-1.12.39v.02c-1.07 2.2-1.09 4.67-.76 6.9.37 2.24.97 4.43 2.07 6.48.56 1.02 1.23 2 2.1 2.83a8.17 8.17 0 0 0 2.28 1.56c-3.2 5.71-7.96 33.21 3.2 40.51-2.39 1.1-4.71 2.3-7 3.56-2.54 1.4-5.1 3.02-7.13 5.33l-.04.05c-.29.39-.22.95.18 1.24.62.47 1.25.93 1.87 1.39-2.35.46-4.65 1.22-6.84 2.2-2.39 1.06-4.66 2.39-6.79 3.91-2.12 1.54-4.1 3.27-5.86 5.21-1.71 1.86-3.22 3.9-4.43 6.11l-1.19.14-6.94.81-13.87 1.69c-9.24 1.17-18.48 2.37-27.7 3.67l-1.73.24-.86.12c-.28.04-.57.08-.93.15-1.35.34-2.47 1.41-2.85 2.73-.2.65-.21 1.36-.05 2.02l.46 1.7.92 3.37c1.28 4.48 2.5 8.98 3.83 13.44-.94-4.57-1.99-9.1-2.98-13.66l-.78-3.41-.38-1.69c-.09-.48-.06-.98.1-1.43.31-.92 1.11-1.63 2.03-1.83.21-.04.5-.07.8-.1l.87-.1 1.74-.19c6.31-.69 12.62-1.44 18.92-2.21.68.96 1.38 1.89 2.1 2.8.91 1.16 1.83 2.3 2.78 3.42.94 1.12 1.93 2.22 2.94 3.3 1.02 1.08 2.08 2.13 3.28 3.07-.61-1.4-1.36-2.69-2.18-3.94-.82-1.25-1.7-2.45-2.67-3.59a31.7 31.7 0 0 0-3.13-3.22c-.78-.69-1.6-1.34-2.48-1.92l3.96-.48c.13.35.29.68.47.99.32.55.69 1.05 1.11 1.51.42.46.88.88 1.4 1.25.52.36 1.08.69 1.76.89-.15-.71-.43-1.3-.73-1.85-.32-.54-.69-1.04-1.1-1.5-.41-.46-.87-.87-1.38-1.24-.1-.07-.22-.13-.33-.2 1.01-.12 2.03-.24 3.04-.37l13.86-1.79 6.92-.93 1.73-.23c.63-.08 1.05-.16 1.5-.07.9.14 1.7.8 2.02 1.67l3.01 13.51c1.04 4.45 2.02 8.9 3.11 13.37-.04-.03-.08-.07-.13-.11-.18-.14-.48-.32-.82-.38-.7-.1-1.14.15-1.45.23l-1.03.33c-1.37.45-2.75.88-4.14 1.29-1.38.43-2.77.83-4.16 1.22l-2.09.58c-.66.2-1.52.3-2.31 1.03-.39.37-.62.94-.59 1.48.02.53.22.98.47 1.33.48.72 1.28 1.22 2.02 1.43.92.26 1.84.37 2.75.39-1.27.7-2.51 1.45-3.71 2.3 1.8-.39 3.53-.94 5.24-1.55 1.7-.61 3.38-1.27 5.03-2.01l1.23-.56c.19-.09.34-.15.42-.16.06-.02.13-.02.3.02.8.22 1.74.51 2.63.68 1.8.38 3.64.58 5.48.49l-5.1-1.83-2.53-.96c-.26-.09-.65-.17-1.04-.11-.37.05-.65.17-.87.26l-1.25.54c-1.65.72-3.28 1.52-4.88 2.37l-.45.24c-1.04-.2-2.05-.49-2.95-.92-.63-.29-1.07-.68-1.35-1.22-.13-.26-.2-.52-.18-.72.02-.2.11-.35.26-.47.32-.26.99-.37 1.72-.52l2.15-.47c1.43-.34 2.84-.73 4.25-1.14 1.4-.44 2.8-.9 4.17-1.4l1.03-.39c.37-.15.63-.23.66-.22.02 0 .05 0 .16.07l.42.3c.3.22.61.43.92.63 2.48 1.65 5.22 2.9 8.08 3.57-2.6-1.37-5.03-2.91-7.26-4.7-.28-.22-.55-.45-.82-.69-.1-.08-.19-.16-.29-.24-.7-4.49-1.51-8.99-2.27-13.49l-1.23-6.89-.63-3.45-.32-1.72-.16-.86c-.05-.26-.1-.61-.23-.95-.45-1.34-1.64-2.4-3.04-2.67-.35-.07-.71-.1-1.06-.08-.38.02-.6.06-.91.1l-.44.05c1.74-1.77 3.48-3.48 5.3-5.1 1.9-1.68 3.86-3.29 5.92-4.75 2.04-1.49 4.18-2.85 6.38-4.12 2.06-1.18 4.18-2.27 6.35-3.33.15.11.3.23.46.34-2.03 1.41-3.85 3.15-5.42 5.04-1.77 1.97-3.36 4.03-4.94 6.15-1.54 2.13-3 4.35-4.22 6.7-1.23 2.35-2.23 4.83-2.78 7.42 1.25-2.33 2.56-4.55 3.98-6.71 1.43-2.15 2.92-4.27 4.46-6.35l4.57-6.33c1.38-2.03 2.86-3.94 4.45-5.83 1.53 1.13 3.07 2.24 4.64 3.31 1.22.85 2.46 1.67 3.71 2.48 1.1.7 2.19 1.37 3.16 2.23l-1.37 2.86c-1.09 2.32-2.11 4.67-3.13 7.02-.99 2.36-1.95 4.74-2.87 7.13-.89 2.4-1.79 4.8-2.6 7.23-1.62 4.74-3.01 9.55-4.19 14.42-.47-.57-.98-1.12-1.54-1.61-.33-.29-.7-.56-1.13-.76-.44-.2-.9-.28-1.33-.32-.87-.05-1.68-.05-2.53-.06-1.67-.01-3.35.06-5.01.21 1.67.05 3.33.14 4.99.27.82.07 1.67.14 2.46.26.8.11 1.4.47 1.95 1.05 1.15 1.13 2.02 2.52 2.92 3.92.88 1.4 1.74 2.81 2.52 4.26 1.56 2.9 2.83 5.93 4.05 9.04.61 1.55 1.25 3.1 1.9 4.64l.12.29v.02c.49.65.15.19.26.33l.03.03.06.05.13.1.51.41c.34.27.7.52 1.06.77.72.49 1.47.93 2.25 1.32s1.59.72 2.41 1.01c.84.29 1.65.49 2.45.72 1.62.44 3.24.87 4.88 1.25 3.27.74 6.56 1.41 9.88 1.89 1.66.24 3.32.47 4.98.65 1.67.18 3.33.29 4.94.57 1.61.26 3.2.71 4.57 1.6 1.36.87 2.54 2.14 3.01 3.76-.28-1.67-1.38-3.13-2.74-4.15-1.37-1.05-3.02-1.66-4.66-2.07-.28-.07-.57-.12-.85-.18 1.15-1.09 2.19-2.26 3.17-3.46a62.29 62.29 0 0 0 3.04-4.02c.96-1.38 1.86-2.8 2.71-4.25.8-1.36 1.54-2.76 2.17-4.24.95.43 1.9.86 2.83 1.31 4.67 2.27 9.13 4.93 13.33 7.95 1.6 1.14 3.14 2.36 4.65 3.61-3.88 6.98-8.37 13.58-13.41 19.71-1.3 1.56-2.63 3.1-4 4.6-1.3 1.5-2.85 2.7-4.54 3.7-1.7.98-3.52 1.76-5.42 2.21-.95.23-1.91.38-2.86.41-.78.05-1.66-.3-2.56-.66-3.61-1.6-7.07-3.83-10.49-6.02-3.43-2.2-6.78-4.52-10.15-6.83-6.7-4.67-13.37-9.4-20.03-14.15 6.24 5.3 12.64 10.41 19.22 15.28 3.28 2.45 6.63 4.82 10.03 7.12 1.71 1.14 3.44 2.25 5.21 3.31 1.78 1.06 3.57 2.09 5.52 2.94.5.2.99.4 1.55.55.29.06.53.17.87.19.32.03.68.07.92.04 1.09-.05 2.16-.22 3.2-.48 2.08-.51 4.06-1.36 5.88-2.45 1.8-1.11 3.5-2.49 4.84-4.11 1.36-1.54 2.66-3.14 3.91-4.77 3.23-4.16 6.13-8.57 8.67-13.17 2.04 1.46 4.27 2.77 6.86 3.28.67.13 1.37.17 2.06.14.68-.02 1.43-.12 2.15-.52.35-.21.69-.51.91-.91.22-.39.31-.85.29-1.27-.02-.42-.11-.8-.23-1.15 1.94-6.92 3.04-14.07 3.76-21.23.75-7.68 1.05-15.41.76-23.15l.01-.03zM87.2 51.48c.7 0 1.51-.42 1.91-.75.81-.68 1.22-1.65 1.22-2.61 0 .48-.14.96-.41 1.35-.26.39-.64.7-1.06.86-.6.26-1.24.2-1.76 0-.3-2.64-.17-4.33-.17-4.33.55-.55 1.44-.28 1.87-.1.43.16.83.45 1.1.85.28.39.42.89.43 1.38 0-.98-.43-1.97-1.28-2.65-.42-.34-1.19-.75-2.11-.7-.21-5.66 1.05-14.95 2.27-18.76.23.1.46.19.7.27 2.4.73 4.74.23 6.86-.11 4.29-.72 8.6-1.49 12.87-2.27 1.05-.17 2.1-.27 3.12-.15 1.02.1 1.98.52 2.85 1.12 1.73 1.22 3.03 2.98 4.88 4.16 0 0-1.82 9.96-6.12 17.95 1.09 2.58 5.38 2.34 5.38 2.34l2.04-3-2.39 1.9s-2.08-.2-3.04-1.74c3.88-8.43 4.22-17.56 4.22-17.56s-2.89-3.09-4.63-4.53c-.86-.71-1.92-1.28-3.07-1.48-1.14-.23-2.29-.16-3.39-.05-2.19.25-4.33.55-6.5.84l-6.48.9c-2.15.32-4.27.62-6.09.03-1.78-.56-3.16-2.05-4.1-3.79 1.46.27 3.01.1 4.44-.25 1.83-.45 3.52-1.12 5.19-1.57 1.67-.46 3.3-.65 4.98-.33 1.69.3 3.37.97 5.12 1.6-1.36-1.26-2.92-2.33-4.77-2.95-.91-.33-1.92-.47-2.91-.47-.99 0-1.97.17-2.89.43-1.85.5-3.5 1.31-5.14 1.98-1.35.53-2.74.97-4.22 1.16-.47-.95-.85-1.97-1.16-3.02.49.23 1.03.36 1.56.4 1.04.07 1.95-.07 2.86-.21.91-.15 1.82-.36 2.71-.64.89-.29 1.77-.63 2.63-1.15-.98-.22-1.92-.25-2.86-.24-.94.02-1.86.11-2.77.27-.92.14-1.82.4-2.64.57-.56.12-1.11.19-1.71.18a21.9 21.9 0 0 1-.38-1.79c-.24-1.44-.27-2.9.02-4.27.52.62 1.15 1.15 1.87 1.52 1.29.72 2.91.82 4.25.52 1.36-.28 2.55-.81 3.74-1.14 1.18-.37 2.41-.56 3.65-.68 1.24-.12 2.49-.09 3.74.05 1.24.15 2.49.36 3.69.75 2.42.72 4.69 1.96 6.69 3.57-1.8-1.83-4.04-3.26-6.47-4.2-2.43-.96-5.07-1.42-7.71-1.33a17.4 17.4 0 0 0-3.93.55c-1.3.32-2.49.78-3.66.96-.26.04-.51.07-.76.08-.87-1.48-1.42-3.13-1.57-4.8-.14-1.64.09-3.28.64-4.79.7.82 1.59 1.46 2.54 1.92 1.24.61 2.58.94 3.9 1.13 1.33.19 2.64.23 3.92.29 1.28.06 2.52.16 3.78.34 2.5.35 5.03.85 7.5 1.45.29.07.58.15.88.22.96.76 1.91 1.52 2.82 2.29 1.42 1.23 2.78 2.48 3.95 3.9a23.72 23.72 0 0 1 3.08 4.54c.86 1.63 1.46 3.39 1.88 5.29.33-1.92.09-3.97-.59-5.85-.32-.95-.77-1.84-1.26-2.72a21.02 21.02 0 0 0-1.74-2.43c-1.3-1.52-2.83-2.81-4.49-3.86-.17-.11-.34-.2-.51-.3 1.1.33 2.19.7 3.27 1.11 1.13.43 2.25.91 3.34 1.43.4.7.8 1.39 1.17 2.07a40.024 40.024 0 0 1 2.88 6.83c.37 1.19.69 2.41 1.04 3.71.39-1.28.47-2.65.33-3.98-.14-1.34-.47-2.66-1-3.9-.52-1.24-1.24-2.4-2.09-3.43-.05-.06-.11-.12-.16-.18 1.3.72 2.55 1.52 3.75 2.4.1.57.21 1.12.31 1.66.17.87.31 1.72.44 2.57.13.85.23 1.7.32 2.58.1.88.16 1.77.29 2.75.6-.79.93-1.73 1.12-2.68.18-.96.19-1.95.04-2.91-.14-.91-.41-1.8-.82-2.62.62.53 1.23 1.07 1.81 1.66 1.74 1.79 3.49 3.77 3.92 6.18.21 1.19-.13 2.42-.86 3.45-.58.83-1.29 1.6-1.89 2.45-.74-.22-1.49-.38-2.24-.46-2.56-.29-5.11-.23-7.61.24 1.01.11 2 .23 2.99.37-.19.88-.38 1.69-.64 2.48-.27.9-.59 1.78-.9 2.7l-.9 2.71c-.31.9-.65 1.77-1.08 2.73.97-.44 1.74-1.23 2.33-2.09.59-.87 1.02-1.82 1.34-2.78.32-.96.55-1.99.59-3.05.02-.9-.11-1.83-.48-2.66.79.11 1.57.23 2.35.37-.1.72-.19 1.4-.31 2.05-.14.83-.32 1.61-.54 2.4-.22.79-.47 1.58-.73 2.4-.26.82-.54 1.66-.72 2.61.8-.53 1.43-1.22 1.97-1.98.53-.77.95-1.63 1.2-2.55.43-1.59.36-3.36-.39-4.82.42.08.85.16 1.27.25.31.07.62.15.93.24-.05.69-.09 1.35-.16 1.99a29.321 29.321 0 0 1-.9 5.03c-.22.84-.5 1.68-.78 2.63.87-.48 1.54-1.22 2.07-2.05.52-.84.87-1.78 1.04-2.75.17-.97.17-1.97-.02-2.93-.12-.59-.32-1.16-.59-1.7.94.32 1.81.74 2.55 1.29.1.47.16.92.13 1.33-.02.77-.16 1.61-.29 2.42-.14.81-.32 1.62-.55 2.42-.22.82-.52 1.61-.86 2.52.89-.39 1.61-1.11 2.14-1.92.53-.82.87-1.76 1.03-2.71.11-.71.16-1.42.07-2.16.97 1.74.42 4.04-.56 6.08-.95 2.01-2.34 3.86-3.67 5.78-.41-.41-.88-.76-1.43-1-1.26-.58-2.67-.43-3.83 0-1.17.43-2.19 1.1-3.17 1.8 1.1-.48 2.21-.95 3.34-1.19 1.12-.24 2.27-.18 3.17.35.89.52 1.55 1.43 1.92 2.43.36 1 .44 2.1.3 3.15-.34 2.12-1.58 4.08-3.44 5.15-1.83 1.13-4.14 1.47-6.29 1.07h-.05c-.4-.08-.8.17-.9.58a12.35 12.35 0 0 0-.32 3.57c.05 1.18.22 2.33.44 3.45.43 2.24.99 4.4 1.14 6.68.35-2.26.1-4.59-.08-6.82-.03-.41-.05-.81-.07-1.22 1.44-.03 2.86.33 4.14.94 1.41.67 2.65 1.63 3.72 2.74 2.15 2.24 3.74 4.98 5.4 7.63 1.62 2.68 3.07 5.45 4.3 8.31 1.06 2.45 1.89 4.98 2.52 7.55-2.99-.88-6.06-1.52-9.17-1.85-1.79-.18-3.66-.26-5.54.16-1.89.4-3.64 1.45-4.97 2.77-.88.85-1.61 1.82-2.25 2.82.21-.61.41-1.21.62-1.83.39-1.12.71-2.26 1.03-3.43.28-1.17.52-2.35.71-3.53.34-2.38.5-4.77.44-7.16-.06-2.39-.29-4.76-.8-7.1-.23 2.38-.38 4.72-.59 7.05-.1 1.02-.2 2.03-.31 3.04-1.75.11-3.47.19-5.19.1a53.61 53.61 0 0 1-6.07-.38c-2.02-.22-4.03-.54-6.05-.89-2.02-.36-4.05-.68-6.06-1.2h-.04l-.01-.01h-.03l-.13-.03c.29-1.16.51-2.34.61-3.53.2-2.55.1-5.08-.23-7.58.94.04 1.87-.01 2.78-.09 1.32-.12 2.62-.33 3.9-.63 2.55-.64 5.03-1.56 7.27-2.86-21.72 9.41-23.34-8.36-24.03-12.9v-.03zm9.64 27.78.08.05h.01l.05.04c1.81 1.1 3.82 1.79 5.82 2.39 2.02.58 4.09 1 6.19 1.23 2.1.22 4.23.25 6.34-.02 1.74-.13 3.46-.53 5.09-1.14-.13 1.19-.29 2.38-.47 3.56l-.09.59c-1.89.01-3.74-.08-5.59-.22-1.08-.1-2.17-.17-3.24-.29-1.08-.09-2.15-.2-3.22-.34-2.14-.24-4.26-.6-6.36-1.06-1.89-.43-3.74-.99-5.6-1.66.38-1.03.73-2.07 1.01-3.14l-.02.01zm-7.09 4.39c-1.12-.98-2.25-1.95-3.4-2.89-2.03-1.69-4.1-3.31-6.2-4.91 1.68-1.76 3.74-3.2 5.84-4.64 2.18-1.48 4.34-3.01 6.44-4.64 1.09.68 2.33 1.15 3.59 1.31.41.05.82.08 1.22.1-.06 2.52-.14 5.03-.62 7.46-.42 2.48-1.29 4.83-2.33 7.13l-1.86 3.89c-.74-1.07-1.75-1.95-2.7-2.8l.02-.01zm2.94 64.2c-.71-.35-1.4-.75-2.07-1.19-.33-.22-.66-.45-.97-.69l-.47-.37-.06-.05-.05-.11-1.94-4.59c-1.3-3.07-2.65-6.18-4.4-9.08a56.84 56.84 0 0 0-2.76-4.23c-.55-.75-1.11-1.52-1.71-2.25l5.47-13.98c1.89-4.73 3.8-9.46 5.8-14.14 1.95-4.72 4.09-9.29 6.06-14.07.06-.16.12-.33.18-.5 1.59 1.2 3.4 2.13 5.29 2.8 2.11.76 4.32 1.22 6.53 1.5 2.22.25 4.44.35 6.66.25 1.87-.08 3.76-.32 5.56-.87-.32 1.99-.74 3.95-1.18 5.96-.35 1.63-.66 3.3-.78 4.98-.61 1.24-1.18 2.5-1.66 3.76l-3.91 9.83c-2.59 6.56-5.15 13.13-7.67 19.71l-1.88 4.94-.92 2.48-.8 2.52c-.97 3.09-1.95 6.17-2.89 9.26-.29-.08-.58-.16-.88-.24-1.63-.45-3.11-.91-4.54-1.64l-.01.01zm32.81-1.87c-.96 1.38-1.86 2.8-2.71 4.25-.79 1.36-1.53 2.75-2.16 4.23-1.33-.26-2.67-.44-3.98-.66-1.64-.27-3.28-.55-4.91-.86-3.26-.64-6.5-1.33-9.71-2.16-1.29-.33-2.59-.67-3.87-1.03 1.17-3.01 2.3-6.04 3.43-9.06l.93-2.47 1.05-2.43 2.07-4.86a2055.9 2055.9 0 0 0 8.15-19.48l4-9.77a45.26 45.26 0 0 1 2.17-4.73c.81-1.51 1.73-2.91 2.9-4.06 1.17-1.15 2.55-1.99 4.12-2.33 1.57-.36 3.27-.32 4.98-.16 3.44.33 6.87 1 10.18 2.01h.02c.12.04.26.05.4.02.42-.1.68-.51.58-.93-.93-4.03-2.45-7.86-4.34-11.48 1.57.51 3.08 1.18 4.5 2 1.64.97 3.19 2.09 4.63 3.34a54.95 54.95 0 0 1 4.15 3.93c1.32 1.38 2.63 2.77 3.85 4.23 1.79 2.15 3.45 4.42 4.74 6.86-2.4-.8-5.04-.87-7.56-.45-2.9.5-5.68 1.68-8.17 3.23-2.52 1.53-4.76 3.42-6.94 5.33-2.14 1.94-4.28 3.85-6.3 6.01-2 2.19-3.64 4.62-5.24 7.01-1.58 2.4-3.2 4.82-4.55 7.41-.68 1.29-1.31 2.62-1.83 3.98-.13.34-.25.69-.38 1.03-.06.18-.14.4-.15.7-.02.31.13.65.31.84.37.4.67.52.96.74l.9.6c2.41 1.56 4.78 3.17 7.23 4.69-.14.16-.28.32-.41.48-1.06 1.3-2.08 2.64-3.04 4.02v-.02zm3.45-4.51c-2.21-1.84-4.48-3.6-6.71-5.4l-.85-.66c-.27-.22-.62-.45-.72-.61-.06-.09-.05-.1-.04-.15.46-.06.93 0 1.38.11.62.14 1.24.37 1.86.59 1.24.41 2.46.89 3.67 1.36 1.42.55 2.82 1.15 4.21 1.77a35.9 35.9 0 0 0-2.79 3.01l-.01-.02zm30.5 19.22c-.41.28-.99.44-1.6.49-.61.07-1.23.08-1.86.02-2.42-.19-4.73-1.31-6.96-2.45 1.32-2.4 2.55-4.85 3.67-7.34.47.39.95.77 1.41 1.17 1.98 1.68 3.9 3.41 5.26 5.48.32.49.57 1.03.61 1.5.04.47-.13.84-.53 1.12v.01zm4.42-35.17c-.05 3.83-.24 7.66-.47 11.49-.25 3.83-.58 7.65-1.02 11.46-.35 3.24-.84 6.45-1.44 9.66-.11-.27-.24-.53-.37-.77-1.38-2.42-3.4-4.26-5.33-6.03a77.737 77.737 0 0 0-6.17-4.99c-4.32-3.06-8.93-5.72-13.8-7.77a68.018 68.018 0 0 0-7.44-2.68c-1.27-.35-2.54-.7-3.82-.98-.64-.15-1.27-.32-1.94-.4-.47-.05-.95-.04-1.41.07.02-.07.05-.15.09-.26.14-.32.28-.65.43-.97a39.58 39.58 0 0 1 1.97-3.76c1.45-2.44 3.07-4.79 4.73-7.14 1.64-2.36 3.24-4.7 5.15-6.75 1.89-2.07 4.04-4 6.12-5.97 2.08-1.96 4.23-3.81 6.55-5.41 2.32-1.58 4.86-2.86 7.6-3.54 1.36-.35 2.77-.57 4.19-.58 1.1 0 2.2.11 3.28.34.42.81.8 1.63 1.13 2.48 1.42 3.44 1.75 7.2 1.88 11.02.17 3.82.18 7.65.1 11.47l-.01.01z" fill="#000"/><path d="M70.16 150.439c-.38-.31-.76-.62-1.12-.96-.18-.17-.34-.35-.52-.52-.17-.15-.36-.48-.93-.72-.28-.11-.62-.12-.89-.06s-.48.17-.64.28c-.33.22-.52.41-.7.56-.37.31-.77.59-1.17.85-.8.53-1.72.98-2.59 1.24-.88.24-1.8.27-2.45-.31-.58-.48-.86-1.34-1.09-2.21l2.26-1 2.71-1.3c.88-.44 1.81-.94 2.59-1.35 1.55-.77 3.57-.32 5.54.06-.86-.54-1.76-1.01-2.76-1.32-.99-.3-2.17-.39-3.26-.04-.53.16-1.01.37-1.46.56l-1.38.56-2.72 1.19-2.68 1.28c-.88.48-1.74.83-2.3.73-.27-.04-.5-.23-.73-.6-.23-.36-.44-.83-.62-1.26-.35-.85-.66-1.83-.06-2.69-.43.27-.73.79-.81 1.33-.1.54-.05 1.08.03 1.6.1.53.21 1 .41 1.54.18.52.65 1.16 1.35 1.41.69.26 1.36.17 1.9.03.56-.14 1.05-.35 1.5-.53l.31-.14c-.06.89 0 1.84.6 2.72.37.51.96.87 1.57 1.03.61.17 1.23.14 1.81.07 1.18-.17 2.19-.63 3.19-1.16.49-.27.95-.6 1.4-.95.23-.18.42-.35.54-.42.05.05.13.12.23.23.2.19.39.4.6.58.42.37.84.73 1.3 1.04.92.62 1.89 1.16 2.93 1.53.31.12.62.22.93.31.59 3.77 1.31 7.58 1.89 11.28.07.88-.31 1.76-.96 2.32-.33.28-.71.48-1.12.58-.2.05-.41.07-.63.08h-.75l-6.1-.05c-2.28-.01-4.56 0-6.85 0a5.43 5.43 0 0 0-.31-.99c-.23-.53-.52-1.01-.87-1.45-.35-.44-.75-.84-1.21-1.18-.47-.34-.98-.63-1.62-.79.09.66.31 1.19.55 1.7.25.5.55.96.88 1.38.34.42.72.82 1.14 1.17.06.05.13.1.19.15h-3.2c-.51-1.02-1.11-1.98-1.77-2.89a31.68 31.68 0 0 0-2.71-3.3c-.97-1.04-2.03-2-3.12-2.9l-3.3-2.66c.53 1.36 1.41 2.55 2.32 3.65a70.33 70.33 0 0 0 2.8 3.14c.96 1.02 1.94 2.01 2.96 2.98.71.68 1.44 1.34 2.21 1.98-1.74 0-3.48.02-5.22.04-.41-.86-.91-1.65-1.44-2.42-.71-1.02-1.48-1.99-2.32-2.89-.84-.91-1.75-1.75-2.71-2.52-.97-.78-1.99-1.49-3.14-2.05.65 1.1 1.39 2.08 2.16 3.04.77.95 1.56 1.87 2.39 2.76.82.89 1.68 1.75 2.58 2.58.56.52 1.15 1.03 1.76 1.52-2.18.02-4.36.03-6.54.05l-12.19.19-6.1.13-.76.02H21.2c-.39-.03-.76-.17-1.1-.37-.33-.21-.62-.49-.82-.83-.1-.17-.18-.35-.25-.54l-.23-.73c-2.33-7.47-4.78-14.9-7.31-22.31h.12c.32-.04.71-.15 1.03-.39.63-.49.84-1.19.82-1.79 0-.63-.3-1.17-.62-1.55-.3-.34-.64-.59-1.01-.8.3-.4.42-.84.45-1.21.04-.44-.02-.83-.12-1.18-.4-1.45-1.35-2.44-2.36-3.25.37-.34.64-.76.77-1.22.15-.5.17-1.05 0-1.57-.16-.55-.55-.95-.81-1.19-1.08-1.02-2.21-2.01-3.47-2.87.7 1.36 1.54 2.59 2.42 3.79.23.31.32.5.35.68.03.19 0 .41-.09.61-.17.41-.51.65-1 .75-.94.21-2.09-.48-2.66-1.57-.58-1.09-.7-2.55-.1-3.95-1.22.96-1.74 2.83-1.19 4.48.25.84.8 1.59 1.53 2.15.16.12.34.23.53.32-.1.38-.2.76-.29 1.15-.11.67-.32 1.23-.24 2.07.03.41.25.93.56 1.26.31.34.65.56.97.75.27.16.56.28.86.39-.22.68-.19 1.47.14 2.18.47 1.02 1.48 1.77 2.62 1.96.23.03.46.04.71.03 1.92 7.6 3.93 15.16 6.05 22.7l.21.74a3.998 3.998 0 0 0 1.62 2.22c.52.35 1.12.57 1.75.64.16.02.31.02.47.03h7.24l12.2-.1c8.13-.11 16.26-.24 24.39-.47l6.1-.18.77-.03c.3-.02.59-.07.88-.15.57-.17 1.1-.47 1.52-.88.86-.8 1.31-2.02 1.14-3.17-.45-2.07-.95-3.98-1.42-5.98-.41-1.73-.84-3.46-1.28-5.19 1.77.51 3.64.64 5.4.29-2.1-.33-4.05-.96-5.83-1.89-.88-.48-1.73-1-2.49-1.62l.03-.05zm-62.88-13.37c-.14-.13-.23-.21-.31-.43-.15-.43-.17-1.17-.25-1.78-.05-.33-.1-.67-.16-1 .57.2 1.19.28 1.8.16.49-.1.98-.31 1.39-.65.03-.02.05-.05.07-.07.44 1.23.97 2.39 1.01 3.46 0 .28 0 .53-.06.73-.05.21-.15.35-.21.39-.06.03-.12.07-.32.07-.18.01-.46-.02-.74-.07-.55-.09-1.08-.26-1.6-.48-.26-.1-.47-.22-.62-.34v.01zm3.76 4.61c-1.03-.18-1.99-.89-2.43-2.18.19.05.38.12.57.15.36.06.72.11 1.18.07.44-.04 1.03-.22 1.41-.66 0 0 0-.01.01-.02.26.84.51 1.63.3 2.12-.09.28-.27.48-.38.51-.06.03-.34.06-.67 0l.01.01z" fill="#000"/><path d="M50.02 141.38c.3.52.69 1.01 1.26 1.37.56.39 1.4.46 2.02.33.64-.12 1.14-.31 1.65-.48l1.54-.51 3.06-1.1 3.03-1.19c.49-.21 1.02-.44 1.47-.61.47-.17.85-.27 1.27-.25.43.02.95.17 1.49.28l1.6.34c1.07.2 2.14.41 3.24.53-.98-.51-1.98-.94-2.98-1.37l-1.51-.62c-.5-.2-1.01-.42-1.65-.54-.66-.14-1.37-.03-1.93.14-.58.17-1.06.35-1.58.52l-3.06 1.1-3.03 1.19-1.5.63c-.5.2-1.01.45-1.42.59-.43.14-.75.15-1.14 0-.39-.15-.77-.46-1.09-.83-.64-.73-1.09-1.75-.83-2.83-.66.94-.47 2.31.11 3.33l-.02-.02zM8.7 113.119c1.78-.26 2.89-1.83 2.87-3.31 0 .75-.36 1.49-.93 1.94-.57.45-1.31.61-1.94.48a2.458 2.458 0 0 1-1.97-2.42c-.01-1 .67-2.14 1.97-2.42.63-.13 1.37.02 1.94.48.57.45.93 1.19.93 1.94.03-1.48-1.08-3.05-2.87-3.32a3.28 3.28 0 0 0-2.57.74c-.74.61-1.19 1.59-1.19 2.57 0 .98.45 1.96 1.19 2.57.73.62 1.71.87 2.57.74v.01zM13.97 109.9c.52.4 1.19.53 1.75.4a2.201 2.201 0 0 0 1.71-2.15c0 .45-.23.89-.59 1.12-.36.24-.79.27-1.12.14a1.23 1.23 0 0 1-.66-.6 1.4 1.4 0 0 1-.15-.66c0-.21.04-.43.15-.66.11-.23.33-.47.66-.6s.76-.1 1.12.14c.35.23.59.67.59 1.12 0-.86-.55-1.88-1.71-2.16-.56-.13-1.24 0-1.75.4-.52.4-.85 1.07-.85 1.75 0 .68.33 1.36.85 1.75v.01z" fill="#000"/><path d="M90.2 194.119c8.6 0 15.571-6.97 15.571-15.57 0-8.599-6.971-15.57-15.57-15.57-8.6 0-15.57 6.971-15.57 15.57 0 8.6 6.97 15.57 15.57 15.57z" fill="#fff"/><path d="M91.703 187.665c-3.29.668-6.498-1.451-7.167-4.734l-.595-2.908a1.16 1.16 0 0 1 .91-1.37l9.626-1.965a1.159 1.159 0 0 1 1.37.909l.596 2.908c.668 3.289-1.45 6.498-4.733 7.166l-.007-.006z" fill="#0ABBEF"/><path d="m96.93 180.552-.387-2.494-.047-.314c-.013-.1-.026-.201-.066-.361a1.711 1.711 0 0 0-.448-.762 1.728 1.728 0 0 0-.782-.448c-.148-.04-.301-.06-.455-.06-.154 0-.328.033-.408.047l-.094.02-.04-.221-.294-1.691a4.955 4.955 0 0 0-.595-1.652 5.208 5.208 0 0 0-2.707-2.293 5.351 5.351 0 0 0-3.664 0c-1.196.428-2.22 1.331-2.841 2.467-.595 1.13-.822 2.514-.515 3.757.014.074.034.141.047.214.114.528.234 1.057.361 1.585-.12.053-.227.12-.328.194-.24.193-.427.441-.541.715a1.8 1.8 0 0 0-.114.876c.027.16.054.26.08.361l.08.3.623 2.447a6.695 6.695 0 0 0 2.988 4.112c.621.394 1.31.675 2.019.835.555.134 1.13.181 1.698.167H90.647c.12 0 .24-.006.36-.02 0 0 .395-.06.409-.06l.207-.04h.02-.013l.227-.047a6.66 6.66 0 0 0 3.93-2.667 6.692 6.692 0 0 0 1.137-4.954l.007-.013zm-5.875-3.797-4.78.949c-.04-.261-.241-1.471-.281-1.732-.26-1.631.922-3.242 2.447-3.469a2.945 2.945 0 0 1 2.166.448c.621.428 1.083 1.076 1.237 1.825.12.588.254 1.17.387 1.758-.394.074-.789.147-1.176.221z" fill="#000"/><path d="m91.81 183.213-.054-.12-.1-.234c-.127-.295-.254-.589-.368-.89.415-.367.562-.922.408-1.397.08.254.06.542-.067.776a.93.93 0 0 1-.555.468l-.093-.395-.448-.02a.664.664 0 0 1-.502-.261.737.737 0 0 1-.08-.762c.12-.287.468-.528.856-.501.388.02.769.301.889.695a1.344 1.344 0 0 0-.856-.855 1.392 1.392 0 0 0-1.344.28c-.4.335-.621.956-.46 1.538.106.434.434.815.855 1.023.04.2.08.408.133.608l.074.241.094.294c.147.441.642.695 1.05.582.414-.094.694-.515.621-.896-.02-.114-.04-.141-.053-.181v.007z" fill="#000"/><path d="M99.52 165.949c3.271 2.44 5.851 6 6.731 10.2.95 4.16-.14 8.8-2.83 12.17-2.69 3.4-6.74 5.44-10.86 5.96-4.12.57-8.44-.37-11.95-2.75-3.53-2.33-6.09-6.24-6.77-10.52-.74-4.27.31-8.87 2.95-12.37 2.61-3.5 6.73-5.86 11-6.16 4.27-.37 8.45 1.04 11.73 3.47zm-.13.17c-3.27-2.45-7.6-3.15-11.4-2.28-3.8.88-7.2 3.04-9.42 6.12-2.23 3.05-3.31 6.95-2.8 10.75.5 3.79 2.46 7.4 5.51 9.9 3.04 2.5 7.22 3.68 11.17 3 3.96-.66 7.42-3.14 9.561-6.32 2.19-3.18 3.22-7.04 2.93-10.95-.3-3.89-2.24-7.83-5.55-10.22z" fill="#000"/></g><defs><linearGradient id="b" x1="13.96" y1="96.059" x2="174.05" y2="96.059" gradientUnits="userSpaceOnUse"><stop stop-color="#EE882C"/><stop offset=".16" stop-color="#EF8F28"/><stop offset=".42" stop-color="#F2A51F"/><stop offset=".73" stop-color="#F8C80F"/><stop offset="1" stop-color="#FFED00"/></linearGradient><clipPath id="a"><path fill="#fff" d="M0 0h174.27v194.44H0z"/></clipPath></defs></svg>