<svg width="174" height="195" viewBox="0 0 174 195" fill="none" xmlns="http://www.w3.org/2000/svg">
<path d="M93.9633 176.07C138.146 176.07 173.963 140.253 173.963 96.0704C173.963 51.8876 138.146 16.0704 93.9633 16.0704C49.7805 16.0704 13.9633 51.8876 13.9633 96.0704C13.9633 140.253 49.7805 176.07 93.9633 176.07Z" fill="url(#paint0_linear_2310_97364)"/>
<path d="M173.721 96.2784C173.74 101.559 173.232 106.83 172.266 112.021C171.329 117.221 169.844 122.312 167.96 127.261C164.143 137.13 158.453 146.347 151.118 154.108C147.451 157.983 143.425 161.537 139.02 164.589C137.904 165.322 136.807 166.095 135.671 166.808C134.525 167.491 133.389 168.214 132.223 168.856C131.037 169.469 129.861 170.121 128.655 170.704C127.439 171.256 126.234 171.858 124.998 172.37C115.152 176.597 104.399 178.655 93.7152 178.525C83.0319 178.344 72.4183 175.995 62.7116 171.697C57.8583 169.549 53.2142 166.929 48.8891 163.876C44.544 160.854 40.4979 157.411 36.8006 153.626C29.396 146.076 23.4364 137.11 19.3106 127.332C17.2576 122.442 15.6631 117.352 14.537 112.151C13.4208 106.951 12.8229 101.62 12.7332 96.2885C12.5538 85.6162 14.3775 74.8234 18.3838 64.8538C22.3402 54.8642 28.2898 45.6477 35.8339 37.9773C43.358 30.2868 52.397 24.0922 62.303 19.8755C72.199 15.6387 82.982 13.5404 93.7252 13.5304C104.468 13.6107 115.221 15.7492 125.078 20.0362C134.954 24.2629 143.873 30.6281 151.168 38.419C158.493 46.1999 164.173 55.4265 167.99 65.2956C169.874 70.2452 171.359 75.3454 172.285 80.5461C173.242 85.7366 173.74 91.0176 173.711 96.2885L173.721 96.2784ZM173.272 96.2784C173.232 91.0377 172.714 85.7868 171.638 80.6665C170.541 75.5462 168.987 70.5263 166.864 65.7574C162.688 56.1895 156.53 47.5954 149.085 40.4973C134.156 26.3211 114.035 18.1386 93.7152 18.3093C88.6426 18.3394 83.58 18.8113 78.607 19.8052C73.6341 20.7891 68.7708 22.275 64.067 24.1826C54.6692 28.0178 46.0289 33.7505 38.7837 40.939C31.5585 48.1476 25.6688 56.7417 21.6326 66.1992C19.6295 70.9279 18.0649 75.8575 16.9587 80.8874C15.8624 85.9274 15.2645 91.0879 15.1549 96.2684C15.0054 106.619 16.7793 117.081 20.6958 126.729C24.5626 136.397 30.4424 145.253 37.8071 152.572C41.4944 156.226 45.5605 159.489 49.8956 162.32C54.2507 165.121 58.8548 167.481 63.6484 169.368C73.2255 173.143 83.5003 174.94 93.7052 174.76C98.8077 174.699 103.89 174.117 108.883 173.123C113.876 172.109 118.759 170.603 123.483 168.696C124.669 168.224 125.815 167.671 126.981 167.159C128.137 166.627 129.263 166.015 130.409 165.453C131.545 164.87 132.642 164.218 133.768 163.605C134.874 162.963 135.94 162.27 137.036 161.597C141.312 158.796 145.398 155.644 149.125 152.09C156.559 144.971 162.718 136.367 166.884 126.799C168.997 122.031 170.551 117.001 171.648 111.88C172.714 106.75 173.222 101.509 173.252 96.2583L173.272 96.2784Z" fill="black"/>
<path d="M96.3531 78.9704C96.3531 78.9704 106.993 82.1304 109.903 82.2204C112.813 82.3104 123.493 81.5304 123.493 81.5304L89.8631 176.76C89.8631 176.76 76.4131 174.91 70.4131 172.95C64.4131 170.98 61.2931 169.19 61.2931 169.19L60.6631 168.55" fill="#76B82A"/>
<path d="M164.583 129.45C164.583 129.45 163.693 142.5 163.103 146.54C162.503 150.58 160.633 159.84 160.633 159.84C160.633 159.84 160.633 154.88 150.443 148.3C150.383 148.25 150.323 148.22 150.263 148.18C139.893 141.53 133.853 138.26 133.853 138.26H131.993L120.493 154.81L113.363 175.06C113.363 175.06 97.6731 176.52 94.6031 176.72C91.5331 176.94 88.5231 176.15 88.5231 176.15L109.933 116.82L119.643 93.1204C119.643 93.1204 121.173 84.9104 121.353 80.6904C121.533 76.4704 121.143 67.8904 121.143 67.8904L120.463 63.3604C120.463 63.3604 126.113 62.8704 129.493 67.1204C132.863 71.3704 137.053 77.8804 137.053 77.8804L138.023 79.3704L138.533 80.1604L138.843 80.0304C138.843 80.0304 145.823 82.2404 150.913 87.4304C156.003 92.6104 162.963 100.26 163.763 106.21C164.553 112.16 164.573 129.45 164.573 129.45H164.583Z" fill="white"/>
<path d="M153.123 150.9C151.713 153.45 150.323 156.01 148.933 158.58C151.283 160.22 153.843 161.92 156.713 161.9C157.323 161.9 157.923 161.81 158.523 161.71C159.093 161.62 159.693 161.49 160.113 161.09C160.803 160.42 160.683 159.26 160.273 158.38C159.833 157.44 159.133 156.64 158.443 155.87C157.083 154.36 155.693 152.89 154.263 151.46" fill="#76B82A"/>
<path d="M97.3531 70.8804C97.4231 73.3604 95.7731 78.0604 95.5131 81.4704C95.5131 81.6304 95.4631 81.8304 95.4131 82.0504C94.3431 86.6204 85.3531 103.84 85.3531 103.84L77.8431 125.62L66.1231 123.02C66.1231 123.02 61.0031 98.0204 59.6431 96.5704C58.3531 95.1704 55.8731 96.2704 55.6331 96.3704C55.7731 96.1804 56.9131 94.6704 57.3731 94.1004C57.8631 93.4804 61.6831 89.9904 64.5131 87.4404C67.3431 84.8904 77.6131 78.9804 77.6131 78.9804L80.7531 77.9704L79.0031 75.7804L87.5831 69.8604L92.5131 66.4704L93.0431 66.1504L97.4131 67.1504C97.4131 67.1504 97.2731 68.4004 97.3431 70.8804H97.3531Z" fill="white"/>
<path d="M73.4131 168.23C72.6931 168.32 67.5631 168.43 60.7631 168.54H60.6931C45.1131 168.8 20.8531 169.08 20.8531 169.08C20.8531 169.08 19.1531 169.38 18.3731 166.75C17.5931 164.13 9.91313 138.26 9.91313 138.26L5.83313 127.05L0.833126 107.75C0.833126 107.75 -0.606874 102.38 5.33313 102.68L54.4931 96.5204C54.4931 96.5204 60.0231 95.1004 60.6631 96.7504C61.3131 98.4004 61.5831 100.31 61.5831 100.31L75.2831 164.6C75.2831 164.6 75.7831 167.94 73.4031 168.23H73.4131Z" fill="#C0C0C0"/>
<path d="M97.3531 70.8804C97.4231 73.3604 95.7731 78.0604 95.5131 81.4704C95.5131 81.6304 95.4631 81.8304 95.4131 82.0504C95.3931 82.0504 95.3931 82.0504 95.3731 82.0504C94.6331 79.8104 93.8831 77.5604 93.1431 75.3204C92.6431 73.8104 92.0831 72.2204 90.8531 71.2404C89.9131 70.5104 88.7431 70.2204 87.6031 69.8704L92.5331 66.4804L93.0631 66.1604L97.4331 67.1604C97.4331 67.1604 97.2931 68.4104 97.3631 70.8904L97.3531 70.8804Z" fill="#76B82A"/>
<path d="M118.653 98.0604C119.683 96.2704 120.773 94.5104 121.923 92.7804C122.523 91.8704 123.153 90.9604 124.043 90.3304C125.513 89.2704 127.433 89.1404 129.233 89.1304C131.553 89.1304 133.873 89.2604 136.173 89.5404C136.523 89.5804 136.883 89.6304 137.173 89.8404C137.463 90.0504 138.713 92.6104 138.923 94.7004C133.663 94.6804 130.223 95.2804 125.313 97.1504C120.403 99.0204 115.893 102.22 113.013 106.62L118.663 98.0604H118.653Z" fill="#76B82A"/>
<path d="M82.6031 79.1404C81.4031 80.8204 80.4131 82.6404 79.6531 84.5604C83.8931 85.8704 88.1931 86.9904 92.5331 87.9204C92.6131 87.4104 92.8031 86.9204 93.0931 86.5004C90.1131 84.9004 87.4031 82.8104 85.0831 80.3404" fill="#76B82A"/>
<path d="M131.183 138C129.103 136.21 126.333 135.51 123.663 134.86C122.553 134.59 121.423 134.32 120.283 134.41C120.213 134.96 120.743 135.39 121.203 135.71C124.003 137.63 126.653 139.78 129.113 142.11C129.593 141.48 130.073 140.85 130.553 140.22" fill="#76B82A"/>
<path d="M164.583 129.45C164.583 129.45 163.693 142.5 163.103 146.54C162.503 150.58 160.633 159.84 160.633 159.84C160.633 159.84 160.633 154.88 150.443 148.3C152.533 145.06 153.573 141.12 154.433 137.32C155.353 133.21 156.153 129.07 156.843 124.91C157.883 118.54 158.653 112.03 157.703 105.64C156.753 99.2603 153.913 92.9304 148.833 88.9404C146.333 86.9604 143.383 85.6204 140.403 84.5204L138.033 79.3704L138.543 80.1604L138.853 80.0304C138.853 80.0304 145.833 82.2404 150.923 87.4304C156.013 92.6104 162.973 100.26 163.773 106.21C164.563 112.16 164.583 129.45 164.583 129.45Z" fill="#76B82A"/>
<path d="M153.023 150.19C152.963 150.26 148.103 159.72 148.003 159.89C147.893 160.06 138.143 173.61 136.513 175.5C134.893 177.4 127.883 181.76 123.223 182.89C118.573 184.02 111.813 177.95 111.813 177.95L78.4731 154C78.4731 154 74.6531 153.55 72.9831 153.4C71.3231 153.26 67.0031 148.99 67.0031 148.99C67.0031 148.99 63.5731 150.86 61.3531 151.59C60.8431 151.76 60.3931 151.86 60.0731 151.87C58.6831 151.89 58.1531 149.28 57.9931 148.22C57.9531 147.96 57.9331 147.79 57.9331 147.79C57.9331 147.79 56.7231 148.32 54.9931 148.78C54.0731 149.03 53.5231 148.32 53.2031 147.56C52.9231 146.9 52.8131 146.22 52.7931 146.13C52.7531 145.98 52.4631 144.06 52.3131 143.08C52.2631 142.73 52.2331 142.51 52.2331 142.51C52.2331 142.51 52.1131 142.44 51.9131 142.32C51.4631 142.02 50.6331 141.38 49.9231 140.32C48.8931 138.79 51.9031 136.59 51.9031 136.59L55.9331 134.6L55.8831 134.58L53.4631 133.65L51.4631 132.89C51.4631 132.89 50.6031 131.61 50.6731 130.54C50.7431 129.47 59.1931 127.72 60.6631 127.26C61.8931 126.88 65.2531 126.08 66.3331 125.83C66.5531 125.78 66.6731 125.75 66.6731 125.75L66.3931 124.34L66.0731 122.72L73.9331 122.91C73.9331 122.91 75.5231 123.35 78.1331 125.63C80.7531 127.9 87.1731 143.24 88.8931 146.56C90.6131 149.86 112.013 153.75 112.013 153.75L120.483 154.83L131.983 138.28C133.393 138.28 135.813 139.33 138.523 140.8C144.953 144.28 153.013 150.14 153.013 150.21L153.023 150.19Z" fill="#F4C6CC"/>
<path d="M138.523 140.78C137.743 143.78 136.353 146.67 134.983 149.47C132.823 153.88 130.663 158.3 128.503 162.72C127.423 164.93 125.963 167.43 123.523 167.74C122.393 167.89 121.253 167.51 120.183 167.14C110.813 163.9 101.553 160.34 92.4031 156.5C90.4331 155.67 88.4431 154.82 86.7531 153.53C86.1631 153.08 85.6131 152.58 85.2231 151.95C84.8331 151.33 84.6231 150.62 84.4131 149.91C82.0231 142.06 78.7331 134.49 74.6331 127.39C74.1431 126.55 73.6131 125.68 72.7831 125.21C72.0731 124.8 71.2231 124.72 70.4031 124.66C69.0731 124.55 67.7331 124.44 66.4031 124.33L66.0831 122.71L73.9431 122.9C73.9431 122.9 75.5331 123.34 78.1431 125.62C80.7631 127.89 87.1831 143.23 88.9031 146.55C90.6231 149.85 112.023 153.74 112.023 153.74L120.493 154.82L131.993 138.27C133.403 138.27 135.823 139.32 138.533 140.79L138.523 140.78Z" fill="white"/>
<path d="M68.8831 128.31C66.3431 127.6 63.6531 128.43 61.1431 129.25C58.4331 130.14 55.7131 131.02 53.0031 131.91C53.0031 132.52 53.1731 133.12 53.4731 133.65L51.4731 132.89C51.4731 132.89 50.6131 131.61 50.6831 130.54C50.7531 129.47 59.2031 127.72 60.6731 127.26C61.9031 126.88 65.2631 126.08 66.3431 125.83C67.2631 126.57 67.8731 127.69 68.8831 128.31Z" fill="white"/>
<path d="M67.4931 132.75C63.8131 133.59 60.1931 134.73 56.6931 136.15C54.7031 136.96 52.4731 138.2 52.2031 140.34C52.1231 140.99 52.1831 141.77 51.9331 142.33C51.4831 142.03 50.6531 141.39 49.9431 140.33C48.9131 138.8 51.9231 136.6 51.9231 136.6L55.9531 134.61L55.9031 134.59C57.4131 133.89 58.9131 133.12 60.4931 132.6C62.7731 131.83 65.4031 131.59 67.5031 132.77L67.4931 132.75Z" fill="white"/>
<path d="M69.2831 139.42C66.2731 140.4 63.2531 141.37 60.2331 142.34C58.0331 143.05 55.6731 143.89 54.4031 145.82C54.0831 146.31 53.8531 146.85 53.4831 147.29C53.4031 147.39 53.3131 147.48 53.2131 147.57C52.9331 146.91 52.8231 146.23 52.8031 146.14C52.7631 145.99 52.4731 144.07 52.3231 143.09C52.4331 142.99 52.5431 142.91 52.6631 142.83C53.1631 142.48 53.7331 142.28 54.2931 142.06C56.7131 141.17 59.1331 140.26 61.5531 139.36C62.5731 138.99 63.6031 138.6 64.6931 138.52C66.2631 138.4 67.8031 138.93 69.2831 139.44V139.42Z" fill="white"/>
<path d="M67.2131 144.33C66.9831 144.9 66.4831 145.31 66.0031 145.7C65.3631 146.21 64.7331 146.73 64.0931 147.25C62.9631 148.16 61.7931 149.1 60.4131 149.54C60.4731 150.31 60.8131 151.05 61.3631 151.59C60.8531 151.76 60.4031 151.86 60.0831 151.87C58.6931 151.89 58.1631 149.28 58.0031 148.22L67.2131 144.33Z" fill="white"/>
<path d="M66.6831 126.48V126.16C66.7031 126.33 66.7031 126.43 66.6831 126.48Z" fill="white"/>
<path d="M71.9031 168.31L21.9431 169.14C20.3931 169.17 19.0131 168.16 18.5731 166.68L6.21313 129.39L0.823126 107.72C0.143126 105.42 1.68313 103.05 4.06313 102.75L56.9531 96.0504C59.0031 95.7904 60.9031 97.1404 61.3331 99.1604L66.6731 126.16L65.2531 126.09L59.8731 102.16C59.5231 100.59 58.0331 99.5604 56.4431 99.7704L6.67313 106.43C4.78313 106.68 3.56313 108.57 4.12313 110.39L18.8731 160.57C19.6231 163.11 21.8831 164.91 24.5331 165.07L71.9031 168.32V168.31Z" fill="white"/>
<path d="M5.64313 126.08C5.64313 126.08 8.87313 129.15 9.35313 129.79C9.83313 130.43 10.0131 132.34 10.0131 132.34V132.98C10.0131 132.98 11.2431 135.35 11.4031 135.94C11.5631 136.53 11.4031 139.17 11.4031 139.17L11.8131 138.89C11.8131 138.89 13.1031 139.38 12.8931 140.98C12.6831 142.58 11.8431 143.43 11.3231 143C10.8031 142.57 9.32313 140.89 8.99313 140.88C8.66313 140.87 8.57313 138.78 8.35313 138.9C8.13313 139.02 6.27313 136.85 6.33313 135.4C6.39313 133.95 6.33313 133.25 6.33313 133.25C6.33313 133.25 4.15313 131.54 4.54313 129.98C4.93313 128.42 5.65313 126.09 5.65313 126.09L5.64313 126.08Z" fill="#F4C6CC"/>
<path d="M23.1431 103.27C23.1431 103.58 36.7431 113.59 36.7431 113.59L27.3031 102.35" fill="white"/>
<path d="M29.9731 102.34L36.7331 108.54L32.4731 101.71L29.9731 102.34Z" fill="white"/>
<path d="M43.6131 166.94L38.6231 158.03L47.7631 166.94" fill="white"/>
<path d="M43.2931 156.32L49.7131 167.78H53.7231L43.2931 156.32Z" fill="white"/>
<path d="M8.88313 112.59C10.3632 112.59 11.5631 111.39 11.5631 109.91C11.5631 108.43 10.3632 107.23 8.88313 107.23C7.403 107.23 6.20313 108.43 6.20313 109.91C6.20313 111.39 7.403 112.59 8.88313 112.59Z" fill="white"/>
<path d="M15.7231 109.85C16.6178 109.85 17.3431 109.125 17.3431 108.23C17.3431 107.336 16.6178 106.61 15.7231 106.61C14.8284 106.61 14.1031 107.336 14.1031 108.23C14.1031 109.125 14.8284 109.85 15.7231 109.85Z" fill="white"/>
<path d="M135.663 38.5804C135.303 39.4604 134.773 40.2604 134.233 41.0304C133.143 42.5804 131.973 44.0804 130.733 45.5004C130.653 45.5904 130.563 45.6904 130.433 45.6704C130.343 45.6704 130.283 45.6004 130.213 45.5404C129.013 44.4004 127.153 44.1704 125.543 44.5804C123.933 45.0004 122.533 45.9704 121.233 46.9904C120.993 47.1804 120.743 47.3704 120.483 47.5504C120.063 48.0804 119.633 48.6104 119.183 49.1204C117.953 48.1404 116.603 47.3004 115.163 46.6304C116.083 45.5204 116.603 44.1404 117.073 42.7804C118.373 38.9904 119.423 35.1304 120.213 31.2004C120.323 30.6404 120.433 30.0404 120.263 29.4904C120.263 29.4604 120.253 29.4404 120.233 29.4204C120.083 28.9704 119.763 28.6104 119.443 28.2504C117.683 26.2504 115.763 24.1504 113.193 23.4904C110.773 22.8804 108.253 23.6404 105.803 24.1004C104.043 24.4304 102.263 24.6004 100.473 24.6204C100.133 24.6204 99.7831 24.6104 99.4531 24.5304C98.5631 24.8104 97.6731 25.0904 96.7731 25.3304C93.9431 26.1004 90.6831 26.5904 88.2631 24.9504C87.3331 24.3204 86.6131 23.4404 86.0131 22.5104C85.5931 21.8604 85.2231 21.1904 84.9131 20.4904C84.8231 20.3104 84.7531 20.1304 84.6731 19.9404C84.4131 19.3104 84.1931 18.6604 84.0231 18.0004C83.2331 15.0704 83.2531 11.9104 84.1631 9.01036C85.7931 10.5904 87.9031 11.6704 90.1331 12.0804C90.0231 11.9504 89.9131 11.8204 89.8131 11.7004C88.8631 10.5004 88.2031 9.10036 87.8331 7.61036C87.2731 5.39036 87.3931 3.00036 88.2531 0.880361C90.0431 2.76036 92.6831 3.59036 95.2731 3.87036C97.8531 4.15036 100.463 3.98036 103.043 4.21036C106.503 4.53036 109.853 5.60036 113.163 6.70036C115.913 7.62036 118.663 8.57036 121.263 9.86036C123.593 11.0004 125.773 12.4204 127.783 14.0604C129.303 15.3004 130.713 16.6804 132.003 18.1704C133.443 19.8304 134.783 21.8604 134.543 24.0504C134.303 26.1604 132.683 27.8004 131.143 29.2504L130.923 29.6904C130.923 29.6904 130.833 29.6804 130.783 29.6704C130.783 29.6704 130.783 29.6904 130.783 29.7004C130.763 29.7604 130.743 29.8104 130.723 29.8604C130.843 29.8604 130.963 29.8804 131.063 29.8904C132.943 30.1404 134.623 31.4004 135.493 33.0804C136.353 34.7704 136.393 36.8304 135.683 38.5804H135.663Z" fill="#ED6C2E"/>
<path d="M131.133 52.6004C130.923 53.4304 130.653 54.2704 130.153 54.9904C129.293 56.2304 127.863 56.9704 126.403 57.3404C124.943 57.7104 123.423 57.7604 121.923 57.9004C121.603 57.9304 121.273 57.9704 121.023 58.1604C120.703 58.4004 120.433 58.7904 120.473 59.1804C121.103 65.9004 121.793 77.2904 121.443 77.7504C121.233 78.4004 123.123 82.1104 118.563 82.0404C118.913 83.4604 97.5031 81.1104 96.8531 78.6904C96.8031 78.4904 97.0031 76.2404 97.0531 75.4504C97.0931 74.4704 97.1431 73.5004 97.1831 72.5204C97.2531 70.7304 97.3431 68.9404 97.4231 67.1404C95.7231 67.7004 93.9231 66.7404 92.4831 65.6804C91.0431 64.6204 89.7031 63.3904 88.6931 61.9104C86.7031 58.9804 86.1931 55.3104 85.9931 51.7704C85.4931 42.9204 86.5731 33.9704 89.1531 25.4904L89.1031 25.7304C92.1931 25.7504 95.2731 25.5904 98.3331 25.2304C100.833 24.9504 103.313 24.5404 105.763 24.0104C108.053 23.5204 110.433 22.9104 112.713 23.4504C115.413 24.0804 117.493 26.1704 119.413 28.1604C119.723 28.4804 120.043 28.8104 120.203 29.2204C120.423 29.7704 120.323 30.4004 120.223 30.9804C119.413 35.8304 118.563 40.8104 116.063 45.0504C115.813 45.4704 115.543 45.8804 115.443 46.3504C115.413 46.4804 115.403 46.6204 115.393 46.7504C116.313 47.4804 117.253 48.2004 118.213 48.8604C118.403 48.9904 118.613 49.1304 118.843 49.1104C119.043 49.0904 119.203 48.9604 119.353 48.8304C120.433 47.8904 121.223 46.6204 122.423 45.8504C123.123 45.4004 123.923 45.1404 124.733 44.9504C126.193 44.6004 127.803 44.4704 129.123 45.1904C130.323 45.8504 131.103 47.1504 131.373 48.4904C131.633 49.8404 131.453 51.2404 131.113 52.5804L131.133 52.6004Z" fill="white"/>
<path d="M110.603 64.7204C109.623 65.1204 108.883 65.9504 108.273 66.7804C107.643 67.6204 106.953 68.3904 106.143 69.0704C104.053 70.8104 101.583 71.6904 98.9731 72.3004C98.4831 72.4204 97.7131 72.7004 97.1731 72.5404C97.2431 70.7504 97.3331 68.9604 97.4131 67.1604C80.9531 66.1604 86.1031 34.2104 89.1431 25.5104L89.0931 25.7504C92.1831 25.7704 95.2631 25.6104 98.3231 25.2504C98.9131 28.5604 97.9631 31.9204 97.7331 35.2804C97.5631 37.7404 97.8031 39.8404 97.5231 42.3004C96.9931 45.5204 94.4031 49.1504 94.4031 49.1504L96.5031 50.1604C96.5031 50.1604 97.3831 51.9204 97.2731 52.9404C97.1631 53.9604 96.9931 55.0904 97.5831 55.9404C97.8631 56.3404 98.3131 56.6604 98.4131 57.1404C98.4631 57.4404 98.3831 57.7304 98.3031 58.0204C97.6431 60.4704 97.4131 63.2504 98.7431 65.4004C99.0531 65.9004 99.4531 66.3604 99.9831 66.6204C100.443 66.8404 100.953 66.9304 101.463 66.9504C104.773 67.1104 107.533 65.7104 110.583 64.7404L110.603 64.7204Z" fill="#F4C6CC"/>
<path d="M120.243 29.4404C120.093 29.0004 119.773 28.6304 119.453 28.2804C117.693 26.2804 115.773 24.1804 113.203 23.5204C110.783 22.9104 108.263 23.6704 105.813 24.1304C104.053 24.4604 102.273 24.6304 100.483 24.6504C100.143 24.6504 99.7931 24.6404 99.4631 24.5604C98.5731 24.8404 97.6831 25.1204 96.7831 25.3604C93.9531 26.1304 90.6931 26.6204 88.2731 24.9804C87.3431 24.3504 86.6231 23.4704 86.0231 22.5404C85.6031 21.8904 85.2331 21.2204 84.9231 20.5204C84.7431 20.4804 84.5631 20.4104 84.3931 20.3304C84.3731 20.0504 84.3631 19.7604 84.3731 19.4704C84.4631 19.6404 84.5731 19.8104 84.6831 19.9704C84.8231 20.1904 84.9831 20.3904 85.1431 20.5804C86.4231 22.0404 88.3631 22.9304 90.3131 23.2304C92.7131 23.6004 95.1631 23.2104 97.5531 22.7504C100.453 22.1904 103.353 21.5104 106.303 21.3204C109.253 21.1404 112.313 21.4604 114.953 22.7904C117.573 24.1204 119.743 26.5504 120.263 29.4504L120.243 29.4404Z" fill="white"/>
<path d="M111.443 14.7004C106.233 10.7004 99.1031 9.32036 92.7731 11.0604C91.7931 11.3304 90.7931 11.6704 89.8031 11.7104C88.8531 10.5104 88.1931 9.11036 87.8231 7.62036C88.6031 8.00036 89.4531 8.25036 90.3031 8.37036C92.4331 8.67036 94.5831 8.32036 96.7231 8.17036C99.5231 7.97036 102.393 8.13036 105.013 9.13036C107.633 10.1404 109.993 11.1604 111.033 13.7604L111.453 14.6904L111.443 14.7004Z" fill="white"/>
<path d="M105.703 20.0704L101.753 18.2504C100.553 17.6004 98.8131 17.8304 97.4631 18.0304C96.1031 18.2304 94.8131 18.7004 93.5131 19.1504C91.2431 19.9404 88.8931 20.6804 86.4831 20.6904C86.0331 20.6904 85.5731 20.6604 85.1231 20.5704C85.0531 20.5604 84.9731 20.5404 84.9031 20.5104C84.7231 20.4704 84.5431 20.4004 84.3731 20.3204C84.3531 20.0404 84.3431 19.7504 84.3531 19.4604C84.4431 19.6304 84.5531 19.8004 84.6631 19.9604C84.4031 19.3304 84.1831 18.6804 84.0131 18.0204C85.6931 18.8704 87.7831 18.7804 89.6431 18.3204C91.7731 17.8004 93.8031 16.8604 95.9731 16.5204C99.5531 15.9704 103.553 17.1604 105.713 20.0704H105.703Z" fill="white"/>
<path d="M134.523 24.0604C134.283 26.1704 132.663 27.8104 131.123 29.2604L130.903 29.7004C130.903 29.7004 130.813 29.6904 130.763 29.6804C130.763 29.6804 130.763 29.7004 130.763 29.7104L127.533 28.9004C128.753 28.9904 130.013 28.4804 130.813 27.5504C131.273 27.0104 131.583 26.3504 131.793 25.6704C132.423 23.5904 132.113 21.3004 131.253 19.3104C130.383 17.3104 128.993 15.5804 127.453 14.0504C127.553 14.0504 127.663 14.0604 127.763 14.0804C129.283 15.3204 130.693 16.7004 131.983 18.1904C133.423 19.8504 134.763 21.8804 134.523 24.0704V24.0604Z" fill="white"/>
<path d="M124.583 55.2104C124.763 55.2604 124.953 55.1604 125.003 54.9804V54.9504C125.103 54.6204 125.483 54.3004 125.763 53.7304C125.893 53.4404 125.933 53.0604 125.853 52.7504C125.783 52.4304 125.643 52.1604 125.473 51.9204C125.133 51.4404 124.733 51.1204 124.443 50.7904C124.143 50.4704 124.003 50.1104 124.033 49.7904C124.063 49.5004 124.303 49.2904 124.713 49.2604C125.133 49.2104 125.563 49.3304 126.083 49.4404C126.583 49.5304 127.173 49.6104 127.693 49.3004C128.213 48.9804 128.313 48.4004 128.363 47.9204C128.183 48.3804 127.953 48.8704 127.543 49.0004C127.143 49.1404 126.683 49.0204 126.233 48.8704C125.803 48.7104 125.263 48.5104 124.683 48.5104C124.393 48.5104 124.063 48.5804 123.763 48.7804C123.473 48.9704 123.263 49.3104 123.203 49.6504C123.083 50.3304 123.413 50.9504 123.773 51.3604C124.133 51.7804 124.523 52.0904 124.763 52.4204C125.013 52.7704 125.113 53.1104 125.003 53.4104C124.923 53.6904 124.623 54.0004 124.433 54.4504C123.863 54.3404 123.303 54.2004 122.743 54.0404C122.073 53.8704 121.423 53.6204 120.763 53.3804C121.323 53.8004 121.953 54.1404 122.583 54.4604C123.223 54.7604 123.893 55.0104 124.583 55.2104Z" fill="black"/>
<path d="M110.833 34.7004C111.233 30.5404 105.173 28.5504 103.873 34.0404C105.953 32.3304 109.563 33.0504 110.833 34.7004Z" fill="black"/>
<path d="M95.9731 32.3304C95.7031 27.9404 90.8731 27.1104 89.5431 31.2504C91.3931 30.4704 94.0031 30.6104 95.9731 32.3304Z" fill="black"/>
<path d="M93.8331 49.2404C95.1231 50.4704 98.3031 50.1404 98.3031 50.1404C98.3031 50.1404 96.8331 49.1404 95.1931 48.7704C97.9431 45.0604 98.7431 39.1704 98.7431 39.1704C98.7431 39.1704 96.8431 44.9104 93.8231 49.2404H93.8331Z" fill="black"/>
<path d="M101.503 54.5604C101.503 54.5604 101.813 55.5104 102.443 55.8904C102.663 54.3604 102.383 53.6304 101.453 52.8504C101.283 53.6204 101.423 54.2804 101.423 54.2804C98.0631 56.3204 94.1731 56.9504 94.1731 56.9504C94.1731 56.9504 99.0531 58.5604 101.503 54.5604Z" fill="black"/>
<path d="M108.003 46.5604C107.203 46.5004 106.353 46.7704 105.733 47.3404C105.103 47.9004 104.733 48.7504 104.733 49.6104C104.733 50.4704 105.113 51.3204 105.733 51.8804C106.363 52.4504 107.203 52.7204 108.003 52.6604C109.643 52.5604 110.863 51.0904 110.833 49.6104C110.833 50.3504 110.503 51.0804 109.963 51.5704C109.423 52.0504 108.693 52.2804 108.003 52.2204C106.603 52.1204 105.593 50.8604 105.623 49.6104C105.593 48.3704 106.603 47.1104 108.003 47.0104C108.683 46.9504 109.413 47.1704 109.963 47.6604C110.513 48.1404 110.833 48.8704 110.833 49.6204C110.863 48.1404 109.643 46.6704 108.003 46.5704V46.5604Z" fill="black"/>
<path d="M106.263 43.9804C106.865 43.9804 107.353 42.6014 107.353 40.9004C107.353 39.1993 106.865 37.8204 106.263 37.8204C105.661 37.8204 105.173 39.1993 105.173 40.9004C105.173 42.6014 105.661 43.9804 106.263 43.9804Z" fill="black"/>
<path d="M91.7231 35.3504C91.1031 35.3504 90.5931 36.8104 90.5931 38.6004C90.5931 40.3904 91.0931 41.8504 91.7231 41.8504C92.3531 41.8504 92.8531 40.3904 92.8531 38.6004C92.8531 36.8104 92.3531 35.3504 91.7231 35.3504Z" fill="black"/>
<path d="M165.553 114.02C165.383 110.18 165.033 106.13 163.453 102.44C161.913 98.7604 159.583 95.5304 156.973 92.6504C154.343 89.7804 151.553 87.0904 148.463 84.7204C145.553 82.5604 142.283 80.7304 138.743 79.9704C137.703 77.9804 136.553 76.0504 135.333 74.1804C133.573 71.5604 131.813 68.8904 129.473 66.6804C128.303 65.5904 126.963 64.6604 125.483 64.0504C124.133 63.4904 122.653 63.2404 121.213 63.3704C121.173 62.6704 121.153 61.9804 121.173 61.3004C121.213 60.4704 121.333 59.6704 121.503 58.8804C123.803 59.2504 126.233 58.8204 128.273 57.6204C130.553 56.2504 132.143 53.7704 132.383 51.1404C132.513 49.8304 132.343 48.4604 131.773 47.2504C131.483 46.6204 131.083 46.0204 130.583 45.5004C132.373 44.0104 134.083 42.3604 135.363 40.2904C136.053 39.1804 136.603 37.9404 136.853 36.5604C137.103 35.1904 136.873 33.6004 136.093 32.3604C135.323 31.1304 134.203 30.2004 132.963 29.5904C132.473 29.3604 131.963 29.1704 131.463 29.0204C132.143 28.2704 132.923 27.6004 133.583 26.7904C133.993 26.2804 134.383 25.7104 134.603 25.0504C134.833 24.4004 134.913 23.7004 134.863 23.0104C134.773 21.6204 134.213 20.3404 133.523 19.2004C132.823 18.0504 132.003 17.0304 131.123 16.0404C127.583 12.1004 122.953 9.26036 118.073 7.36036C113.163 5.45036 108.053 4.34036 102.873 3.65036C100.253 3.31036 97.5931 3.47036 95.1431 3.25036C93.9131 3.13036 92.7031 2.89036 91.6031 2.40036C90.5031 1.92036 89.5031 1.22036 88.8131 0.270361L88.7931 0.240361C88.7331 0.160361 88.6631 0.100361 88.5731 0.0703615C88.3031 -0.0396385 88.0031 0.0903615 87.8931 0.360361C87.1031 2.32036 86.9431 4.48036 87.3031 6.51036C87.6031 8.23036 88.3131 9.87036 89.3431 11.2504C88.5031 11.2804 87.7131 11.1104 86.9931 10.7004C86.0331 10.1704 85.2731 9.29036 84.9231 8.29036C84.8531 8.09036 84.7031 7.91036 84.4931 7.81036C84.0731 7.61036 83.5731 7.78036 83.3731 8.20036V8.22036C82.3031 10.4204 82.2831 12.8904 82.6131 15.1204C82.9831 17.3604 83.5831 19.5504 84.6831 21.6004C85.2431 22.6204 85.9131 23.6004 86.7831 24.4304C87.4431 25.0604 88.2131 25.6104 89.0631 25.9904C85.8631 31.7004 81.1031 59.2004 92.2631 66.5004C89.8731 67.6004 87.5531 68.8004 85.2631 70.0604C82.7231 71.4604 80.1631 73.0804 78.1331 75.3904L78.0931 75.4404C77.8031 75.8304 77.8731 76.3904 78.2731 76.6804C78.8931 77.1504 79.5231 77.6104 80.1431 78.0704C77.7931 78.5304 75.4931 79.2904 73.3031 80.2704C70.9131 81.3304 68.6431 82.6604 66.5131 84.1804C64.3931 85.7204 62.4131 87.4504 60.6531 89.3904C58.9431 91.2504 57.4331 93.2904 56.2231 95.5004L48.0931 96.4504L34.2231 98.1404C24.9831 99.3104 15.7431 100.51 6.52313 101.81L3.93313 102.17C3.65313 102.21 3.36313 102.25 3.00313 102.32C1.65313 102.66 0.533126 103.73 0.153126 105.05C-0.0468736 105.7 -0.0568735 106.41 0.103126 107.07L0.563126 108.77L1.48313 112.14C2.76313 116.62 3.98313 121.12 5.31313 125.58C4.37313 121.01 3.32313 116.48 2.33313 111.92L1.55313 108.51L1.17313 106.82C1.08313 106.34 1.11313 105.84 1.27313 105.39C1.58313 104.47 2.38313 103.76 3.30313 103.56C3.51313 103.52 3.80313 103.49 4.10313 103.46L4.97313 103.36L6.71313 103.17C13.0231 102.48 19.3331 101.73 25.6331 100.96C26.3131 101.92 27.0131 102.85 27.7331 103.76C28.6431 104.92 29.5631 106.06 30.5131 107.18C31.4531 108.3 32.4431 109.4 33.4531 110.48C34.4731 111.56 35.5331 112.61 36.7331 113.55C36.1231 112.15 35.3731 110.86 34.5531 109.61C33.7331 108.36 32.8531 107.16 31.8831 106.02C30.9231 104.88 29.8731 103.8 28.7531 102.8C27.9731 102.11 27.1531 101.46 26.2731 100.88C27.5931 100.72 28.9131 100.56 30.2331 100.4C30.3631 100.75 30.5231 101.08 30.7031 101.39C31.0231 101.94 31.3931 102.44 31.8131 102.9C32.2331 103.36 32.6931 103.78 33.2131 104.15C33.7331 104.51 34.2931 104.84 34.9731 105.04C34.8231 104.33 34.5431 103.74 34.2431 103.19C33.9231 102.65 33.5531 102.15 33.1431 101.69C32.7331 101.23 32.2731 100.82 31.7631 100.45C31.6631 100.38 31.5431 100.32 31.4331 100.25C32.4431 100.13 33.4631 100.01 34.4731 99.8804L48.3331 98.0904L55.2531 97.1604L56.9831 96.9304C57.6131 96.8504 58.0331 96.7704 58.4831 96.8604C59.3831 97.0004 60.1831 97.6604 60.5031 98.5304L63.5131 112.04C64.5531 116.49 65.5331 120.94 66.6231 125.41C66.5831 125.38 66.5431 125.34 66.4931 125.3C66.3131 125.16 66.0131 124.98 65.6731 124.92C64.9731 124.82 64.5331 125.07 64.2231 125.15L63.1931 125.48C61.8231 125.93 60.4431 126.36 59.0531 126.77C57.6731 127.2 56.2831 127.6 54.8931 127.99L52.8031 128.57C52.1431 128.77 51.2831 128.87 50.4931 129.6C50.1031 129.97 49.8731 130.54 49.9031 131.08C49.9231 131.61 50.1231 132.06 50.3731 132.41C50.8531 133.13 51.6531 133.63 52.3931 133.84C53.3131 134.1 54.2331 134.21 55.1431 134.23C53.8731 134.93 52.6331 135.68 51.4331 136.53C53.2331 136.14 54.9631 135.59 56.6731 134.98C58.3731 134.37 60.0531 133.71 61.7031 132.97L62.9331 132.41C63.1231 132.32 63.2731 132.26 63.3531 132.25C63.4131 132.23 63.4831 132.23 63.6531 132.27C64.4531 132.49 65.3931 132.78 66.2831 132.95C68.0831 133.33 69.9231 133.53 71.7631 133.44L66.6631 131.61L64.1331 130.65C63.8731 130.56 63.4831 130.48 63.0931 130.54C62.7231 130.59 62.4431 130.71 62.2231 130.8L60.9731 131.34C59.3231 132.06 57.6931 132.86 56.0931 133.71C55.9431 133.79 55.7931 133.87 55.6431 133.95C54.6031 133.75 53.5931 133.46 52.6931 133.03C52.0631 132.74 51.6231 132.35 51.3431 131.81C51.2131 131.55 51.1431 131.29 51.1631 131.09C51.1831 130.89 51.2731 130.74 51.4231 130.62C51.7431 130.36 52.4131 130.25 53.1431 130.1L55.2931 129.63C56.7231 129.29 58.1331 128.9 59.5431 128.49C60.9431 128.05 62.3431 127.59 63.7131 127.09L64.7431 126.7C65.1131 126.55 65.3731 126.47 65.4031 126.48C65.4231 126.48 65.4531 126.48 65.5631 126.55L65.9831 126.85C66.2831 127.07 66.5931 127.28 66.9031 127.48C69.3831 129.13 72.1231 130.38 74.9831 131.05C72.3831 129.68 69.9531 128.14 67.7231 126.35C67.4431 126.13 67.1731 125.9 66.9031 125.66C66.8031 125.58 66.7131 125.5 66.6131 125.42C65.9131 120.93 65.1031 116.43 64.3431 111.93L63.1131 105.04L62.4831 101.59L62.0031 99.0104C61.9531 98.7504 61.9031 98.4004 61.7731 98.0604C61.3231 96.7204 60.1331 95.6604 58.7331 95.3904C58.3831 95.3204 58.0231 95.2904 57.6731 95.3104C57.2931 95.3304 57.0731 95.3704 56.7631 95.4104L56.3231 95.4604C58.0631 93.6904 59.8031 91.9804 61.6231 90.3604C63.5231 88.6804 65.4831 87.0704 67.5431 85.6104C69.5831 84.1204 71.7231 82.7604 73.9231 81.4904C75.9831 80.3104 78.1031 79.2204 80.2731 78.1604C80.4231 78.2704 80.5731 78.3904 80.7331 78.5004C78.7031 79.9104 76.8831 81.6504 75.3131 83.5404C73.5431 85.5104 71.9531 87.5704 70.3731 89.6904C68.8331 91.8204 67.3731 94.0404 66.1531 96.3904C64.9231 98.7404 63.9231 101.22 63.3731 103.81C64.6231 101.48 65.9331 99.2604 67.3531 97.1004C68.7831 94.9504 70.2731 92.8304 71.8131 90.7504L76.3831 84.4204C77.7631 82.3904 79.2431 80.4804 80.8331 78.5904C82.3631 79.7204 83.9031 80.8304 85.4731 81.9004C86.6931 82.7504 87.9331 83.5704 89.1831 84.3804C90.2831 85.0804 91.3731 85.7504 92.3431 86.6104L90.9731 89.4704C89.8831 91.7904 88.8631 94.1404 87.8431 96.4904C86.8531 98.8504 85.8931 101.23 84.9731 103.62C84.0831 106.02 83.1831 108.42 82.3731 110.85C80.7531 115.59 79.3631 120.4 78.1831 125.27C77.7131 124.7 77.2031 124.15 76.6431 123.66C76.3131 123.37 75.9431 123.1 75.5131 122.9C75.0731 122.7 74.6131 122.62 74.1831 122.58C73.3131 122.53 72.5031 122.53 71.6531 122.52C69.9831 122.51 68.3031 122.58 66.6431 122.73C68.3131 122.78 69.9731 122.87 71.6331 123C72.4531 123.07 73.3031 123.14 74.0931 123.26C74.8931 123.37 75.4931 123.73 76.0431 124.31C77.1931 125.44 78.0631 126.83 78.9631 128.23C79.8431 129.63 80.7031 131.04 81.4831 132.49C83.0431 135.39 84.3131 138.42 85.5331 141.53C86.1431 143.08 86.7831 144.63 87.4331 146.17L87.5531 146.46V146.48C88.0431 147.13 87.7031 146.67 87.8131 146.81L87.8431 146.84L87.9031 146.89L88.0331 146.99L88.5431 147.4C88.8831 147.67 89.2431 147.92 89.6031 148.17C90.3231 148.66 91.0731 149.1 91.8531 149.49C92.6331 149.88 93.4431 150.21 94.2631 150.5C95.1031 150.79 95.9131 150.99 96.7131 151.22C98.3331 151.66 99.9531 152.09 101.593 152.47C104.863 153.21 108.153 153.88 111.473 154.36C113.133 154.6 114.793 154.83 116.453 155.01C118.123 155.19 119.783 155.3 121.393 155.58C123.003 155.84 124.593 156.29 125.963 157.18C127.323 158.05 128.503 159.32 128.973 160.94C128.693 159.27 127.593 157.81 126.233 156.79C124.863 155.74 123.213 155.13 121.573 154.72C121.293 154.65 121.003 154.6 120.723 154.54C121.873 153.45 122.913 152.28 123.893 151.08C124.963 149.78 125.973 148.44 126.933 147.06C127.893 145.68 128.793 144.26 129.643 142.81C130.443 141.45 131.183 140.05 131.813 138.57C132.763 139 133.713 139.43 134.643 139.88C139.313 142.15 143.773 144.81 147.973 147.83C149.573 148.97 151.113 150.19 152.623 151.44C148.743 158.42 144.253 165.02 139.213 171.15C137.913 172.71 136.583 174.25 135.213 175.75C133.913 177.25 132.363 178.45 130.673 179.45C128.973 180.43 127.153 181.21 125.253 181.66C124.303 181.89 123.343 182.04 122.393 182.07C121.613 182.12 120.733 181.77 119.833 181.41C116.223 179.81 112.763 177.58 109.343 175.39C105.913 173.19 102.563 170.87 99.1931 168.56C92.4931 163.89 85.8231 159.16 79.1631 154.41C85.4031 159.71 91.8031 164.82 98.3831 169.69C101.663 172.14 105.013 174.51 108.413 176.81C110.123 177.95 111.853 179.06 113.623 180.12C115.403 181.18 117.193 182.21 119.143 183.06C119.643 183.26 120.133 183.46 120.693 183.61C120.983 183.67 121.223 183.78 121.563 183.8C121.883 183.83 122.243 183.87 122.483 183.84C123.573 183.79 124.643 183.62 125.683 183.36C127.763 182.85 129.743 182 131.563 180.91C133.363 179.8 135.063 178.42 136.403 176.8C137.763 175.26 139.063 173.66 140.313 172.03C143.543 167.87 146.443 163.46 148.983 158.86C151.023 160.32 153.253 161.63 155.843 162.14C156.513 162.27 157.213 162.31 157.903 162.28C158.583 162.26 159.333 162.16 160.053 161.76C160.403 161.55 160.743 161.25 160.963 160.85C161.183 160.46 161.273 160 161.253 159.58C161.233 159.16 161.143 158.78 161.023 158.43C162.963 151.51 164.063 144.36 164.783 137.2C165.533 129.52 165.833 121.79 165.543 114.05L165.553 114.02ZM87.2031 51.5304C87.9031 51.5304 88.7131 51.1104 89.1131 50.7804C89.9231 50.1004 90.3331 49.1304 90.3331 48.1704C90.3331 48.6504 90.1931 49.1304 89.9231 49.5204C89.6631 49.9104 89.2831 50.2204 88.8631 50.3804C88.2631 50.6404 87.6231 50.5804 87.1031 50.3804C86.8031 47.7404 86.9331 46.0504 86.9331 46.0504C87.4831 45.5004 88.3731 45.7704 88.8031 45.9504C89.2331 46.1104 89.6331 46.4004 89.9031 46.8004C90.1831 47.1904 90.3231 47.6904 90.3331 48.1804C90.3331 47.2004 89.9031 46.2104 89.0531 45.5304C88.6331 45.1904 87.8631 44.7804 86.9431 44.8304C86.7331 39.1704 87.9931 29.8804 89.2131 26.0704C89.4431 26.1704 89.6731 26.2604 89.9131 26.3404C92.3131 27.0704 94.6531 26.5704 96.7731 26.2304C101.063 25.5104 105.373 24.7404 109.643 23.9604C110.693 23.7904 111.743 23.6904 112.763 23.8104C113.783 23.9104 114.743 24.3304 115.613 24.9304C117.343 26.1504 118.643 27.9104 120.493 29.0904C120.493 29.0904 118.673 39.0504 114.373 47.0404C115.463 49.6204 119.753 49.3804 119.753 49.3804L121.793 46.3804L119.403 48.2804C119.403 48.2804 117.323 48.0804 116.363 46.5404C120.243 38.1104 120.583 28.9804 120.583 28.9804C120.583 28.9804 117.693 25.8904 115.953 24.4504C115.093 23.7404 114.033 23.1704 112.883 22.9704C111.743 22.7404 110.593 22.8104 109.493 22.9204C107.303 23.1704 105.163 23.4704 102.993 23.7604L96.5131 24.6604C94.3631 24.9804 92.2431 25.2804 90.4231 24.6904C88.6431 24.1304 87.2631 22.6404 86.3231 20.9004C87.7831 21.1704 89.3331 21.0004 90.7631 20.6504C92.5931 20.2004 94.2831 19.5304 95.9531 19.0804C97.6231 18.6204 99.2531 18.4304 100.933 18.7504C102.623 19.0504 104.303 19.7204 106.053 20.3504C104.693 19.0904 103.133 18.0204 101.283 17.4004C100.373 17.0704 99.3631 16.9304 98.3731 16.9304C97.3831 16.9304 96.4031 17.1004 95.4831 17.3604C93.6331 17.8604 91.9831 18.6704 90.3431 19.3404C88.9931 19.8704 87.6031 20.3104 86.1231 20.5004C85.6531 19.5504 85.2731 18.5304 84.9631 17.4804C85.4531 17.7104 85.9931 17.8404 86.5231 17.8804C87.5631 17.9504 88.4731 17.8104 89.3831 17.6704C90.2931 17.5204 91.2031 17.3104 92.0931 17.0304C92.9831 16.7404 93.8631 16.4004 94.7231 15.8804C93.7431 15.6604 92.8031 15.6304 91.8631 15.6404C90.9231 15.6604 90.0031 15.7504 89.0931 15.9104C88.1731 16.0504 87.2731 16.3104 86.4531 16.4804C85.8931 16.6004 85.3431 16.6704 84.7431 16.6604C84.5931 16.0704 84.4631 15.4704 84.3631 14.8704C84.1231 13.4304 84.0931 11.9704 84.3831 10.6004C84.9031 11.2204 85.5331 11.7504 86.2531 12.1204C87.5431 12.8404 89.1631 12.9404 90.5031 12.6404C91.8631 12.3604 93.0531 11.8304 94.2431 11.5004C95.4231 11.1304 96.6531 10.9404 97.8931 10.8204C99.1331 10.7004 100.383 10.7304 101.633 10.8704C102.873 11.0204 104.123 11.2304 105.323 11.6204C107.743 12.3404 110.013 13.5804 112.013 15.1904C110.213 13.3604 107.973 11.9304 105.543 10.9904C103.113 10.0304 100.473 9.57036 97.8331 9.66036C96.5131 9.70036 95.1831 9.87036 93.9031 10.2104C92.6031 10.5304 91.4131 10.9904 90.2431 11.1704C89.9831 11.2104 89.7331 11.2404 89.4831 11.2504C88.6131 9.77036 88.0631 8.12036 87.9131 6.45036C87.7731 4.81036 88.0031 3.17036 88.5531 1.66036C89.2531 2.48036 90.1431 3.12036 91.0931 3.58036C92.3331 4.19036 93.6731 4.52036 94.9931 4.71036C96.3231 4.90036 97.6331 4.94036 98.9131 5.00036C100.193 5.06036 101.433 5.16036 102.693 5.34036C105.193 5.69036 107.723 6.19036 110.193 6.79036C110.483 6.86036 110.773 6.94036 111.073 7.01036C112.033 7.77036 112.983 8.53036 113.893 9.30036C115.313 10.5304 116.673 11.7804 117.843 13.2004C119.043 14.5904 120.073 16.1104 120.923 17.7404C121.783 19.3704 122.383 21.1304 122.803 23.0304C123.133 21.1104 122.893 19.0604 122.213 17.1804C121.893 16.2304 121.443 15.3404 120.953 14.4604C120.433 13.6004 119.843 12.8004 119.213 12.0304C117.913 10.5104 116.383 9.22036 114.723 8.17036C114.553 8.06036 114.383 7.97036 114.213 7.87036C115.313 8.20036 116.403 8.57036 117.483 8.98036C118.613 9.41036 119.733 9.89036 120.823 10.4104C121.223 11.1104 121.623 11.8004 121.993 12.4804C122.583 13.5804 123.113 14.7004 123.593 15.8304C124.063 16.9604 124.503 18.1204 124.873 19.3104C125.243 20.5004 125.563 21.7204 125.913 23.0204C126.303 21.7404 126.383 20.3704 126.243 19.0404C126.103 17.7004 125.773 16.3804 125.243 15.1404C124.723 13.9004 124.003 12.7404 123.153 11.7104C123.103 11.6504 123.043 11.5904 122.993 11.5304C124.293 12.2504 125.543 13.0504 126.743 13.9304C126.843 14.5004 126.953 15.0504 127.053 15.5904C127.223 16.4604 127.363 17.3104 127.493 18.1604C127.623 19.0104 127.723 19.8604 127.813 20.7404C127.913 21.6204 127.973 22.5104 128.103 23.4904C128.703 22.7004 129.033 21.7604 129.223 20.8104C129.403 19.8504 129.413 18.8604 129.263 17.9004C129.123 16.9904 128.853 16.1004 128.443 15.2804C129.063 15.8104 129.673 16.3504 130.253 16.9404C131.993 18.7304 133.743 20.7104 134.173 23.1204C134.383 24.3104 134.043 25.5404 133.313 26.5704C132.733 27.4004 132.023 28.1704 131.423 29.0204C130.683 28.8004 129.933 28.6404 129.183 28.5604C126.623 28.2704 124.073 28.3304 121.573 28.8004C122.583 28.9104 123.573 29.0304 124.563 29.1704C124.373 30.0504 124.183 30.8604 123.923 31.6504C123.653 32.5504 123.333 33.4304 123.023 34.3504L122.123 37.0604C121.813 37.9604 121.473 38.8304 121.043 39.7904C122.013 39.3504 122.783 38.5604 123.373 37.7004C123.963 36.8304 124.393 35.8804 124.713 34.9204C125.033 33.9604 125.263 32.9304 125.303 31.8704C125.323 30.9704 125.193 30.0404 124.823 29.2104C125.613 29.3204 126.393 29.4404 127.173 29.5804C127.073 30.3004 126.983 30.9804 126.863 31.6304C126.723 32.4604 126.543 33.2404 126.323 34.0304C126.103 34.8204 125.853 35.6104 125.593 36.4304C125.333 37.2504 125.053 38.0904 124.873 39.0404C125.673 38.5104 126.303 37.8204 126.843 37.0604C127.373 36.2904 127.793 35.4304 128.043 34.5104C128.473 32.9204 128.403 31.1504 127.653 29.6904C128.073 29.7704 128.503 29.8504 128.923 29.9404C129.233 30.0104 129.543 30.0904 129.853 30.1804C129.803 30.8704 129.763 31.5304 129.693 32.1704C129.613 33.0404 129.503 33.8804 129.353 34.7104C129.203 35.5404 129.023 36.3704 128.793 37.2004C128.573 38.0404 128.293 38.8804 128.013 39.8304C128.883 39.3504 129.553 38.6104 130.083 37.7804C130.603 36.9404 130.953 36.0004 131.123 35.0304C131.293 34.0604 131.293 33.0604 131.103 32.1004C130.983 31.5104 130.783 30.9404 130.513 30.4004C131.453 30.7204 132.323 31.1404 133.063 31.6904C133.163 32.1604 133.223 32.6104 133.193 33.0204C133.173 33.7904 133.033 34.6304 132.903 35.4404C132.763 36.2504 132.583 37.0604 132.353 37.8604C132.133 38.6804 131.833 39.4704 131.493 40.3804C132.383 39.9904 133.103 39.2704 133.633 38.4604C134.163 37.6404 134.503 36.7004 134.663 35.7504C134.773 35.0404 134.823 34.3304 134.733 33.5904C135.703 35.3304 135.153 37.6304 134.173 39.6704C133.223 41.6804 131.833 43.5304 130.503 45.4504C130.093 45.0404 129.623 44.6904 129.073 44.4504C127.813 43.8704 126.403 44.0204 125.243 44.4504C124.073 44.8804 123.053 45.5504 122.073 46.2504C123.173 45.7704 124.283 45.3004 125.413 45.0604C126.533 44.8204 127.683 44.8804 128.583 45.4104C129.473 45.9304 130.133 46.8404 130.503 47.8404C130.863 48.8404 130.943 49.9404 130.803 50.9904C130.463 53.1104 129.223 55.0704 127.363 56.1404C125.533 57.2704 123.223 57.6104 121.073 57.2104H121.023C120.623 57.1304 120.223 57.3804 120.123 57.7904C119.833 58.9704 119.743 60.1804 119.803 61.3604C119.853 62.5404 120.023 63.6904 120.243 64.8104C120.673 67.0504 121.233 69.2104 121.383 71.4904C121.733 69.2304 121.483 66.9004 121.303 64.6704C121.273 64.2604 121.253 63.8604 121.233 63.4504C122.673 63.4204 124.093 63.7804 125.373 64.3904C126.783 65.0604 128.023 66.0204 129.093 67.1304C131.243 69.3704 132.833 72.1104 134.493 74.7604C136.113 77.4404 137.563 80.2104 138.793 83.0704C139.853 85.5204 140.683 88.0504 141.313 90.6204C138.323 89.7404 135.253 89.1004 132.143 88.7704C130.353 88.5904 128.483 88.5104 126.603 88.9304C124.713 89.3304 122.963 90.3804 121.633 91.7004C120.753 92.5504 120.023 93.5204 119.383 94.5204C119.593 93.9104 119.793 93.3104 120.003 92.6904C120.393 91.5704 120.713 90.4304 121.033 89.2604C121.313 88.0904 121.553 86.9104 121.743 85.7304C122.083 83.3504 122.243 80.9604 122.183 78.5704C122.123 76.1804 121.893 73.8104 121.383 71.4704C121.153 73.8504 121.003 76.1904 120.793 78.5204C120.693 79.5404 120.593 80.5504 120.483 81.5604C118.733 81.6704 117.013 81.7504 115.293 81.6604C113.263 81.6404 111.243 81.5304 109.223 81.2804C107.203 81.0604 105.193 80.7404 103.173 80.3904C101.153 80.0304 99.1231 79.7104 97.1131 79.1904H97.0731L97.0631 79.1804H97.0331L96.9031 79.1504C97.1931 77.9904 97.4131 76.8104 97.5131 75.6204C97.7131 73.0704 97.6131 70.5404 97.2831 68.0404C98.2231 68.0804 99.1531 68.0304 100.063 67.9504C101.383 67.8304 102.683 67.6204 103.963 67.3204C106.513 66.6804 108.993 65.7604 111.233 64.4604C89.5131 73.8704 87.8931 56.1004 87.2031 51.5604V51.5304ZM96.8431 79.3104L96.9231 79.3604H96.9331L96.9831 79.4004C98.7931 80.5004 100.803 81.1904 102.803 81.7904C104.823 82.3704 106.893 82.7904 108.993 83.0204C111.093 83.2404 113.223 83.2704 115.333 83.0004C117.073 82.8704 118.793 82.4704 120.423 81.8604C120.293 83.0504 120.133 84.2404 119.953 85.4204C119.923 85.6204 119.893 85.8104 119.863 86.0104C117.973 86.0204 116.123 85.9304 114.273 85.7904C113.193 85.6904 112.103 85.6204 111.033 85.5004C109.953 85.4104 108.883 85.3004 107.813 85.1604C105.673 84.9204 103.553 84.5604 101.453 84.1004C99.5631 83.6704 97.7131 83.1104 95.8531 82.4404C96.2331 81.4104 96.5831 80.3704 96.8631 79.3004L96.8431 79.3104ZM89.7531 83.7004C88.6331 82.7204 87.5031 81.7504 86.3531 80.8104C84.3231 79.1204 82.2531 77.5004 80.1531 75.9004C81.8331 74.1404 83.8931 72.7004 85.9931 71.2604C88.1731 69.7804 90.3331 68.2504 92.4331 66.6204C93.5231 67.3004 94.7631 67.7704 96.0231 67.9304C96.4331 67.9804 96.8431 68.0104 97.2431 68.0304C97.1831 70.5504 97.1031 73.0604 96.6231 75.4904C96.2031 77.9704 95.3331 80.3204 94.2931 82.6204L92.4331 86.5104C91.6931 85.4404 90.6831 84.5604 89.7331 83.7104L89.7531 83.7004ZM92.6931 147.9C91.9831 147.55 91.2931 147.15 90.6231 146.71C90.2931 146.49 89.9631 146.26 89.6531 146.02L89.1831 145.65L89.1231 145.6L89.0731 145.49L87.1331 140.9C85.8331 137.83 84.4831 134.72 82.7331 131.82C81.8731 130.37 80.9531 128.95 79.9731 127.59C79.4231 126.84 78.8631 126.07 78.2631 125.34L83.7331 111.36C85.6231 106.63 87.5331 101.9 89.5331 97.2204C91.4831 92.5004 93.6231 87.9304 95.5931 83.1504C95.6531 82.9904 95.7131 82.8204 95.7731 82.6504C97.3631 83.8504 99.1731 84.7804 101.063 85.4504C103.173 86.2104 105.383 86.6704 107.593 86.9504C109.813 87.2004 112.033 87.3004 114.253 87.2004C116.123 87.1204 118.013 86.8804 119.813 86.3304C119.493 88.3204 119.073 90.2804 118.633 92.2904C118.283 93.9204 117.973 95.5904 117.853 97.2704C117.243 98.5104 116.673 99.7704 116.193 101.03L112.283 110.86C109.693 117.42 107.133 123.99 104.613 130.57L102.733 135.51L101.813 137.99L101.013 140.51C100.043 143.6 99.0631 146.68 98.1231 149.77C97.8331 149.69 97.5431 149.61 97.2431 149.53C95.6131 149.08 94.1331 148.62 92.7031 147.89L92.6931 147.9ZM125.503 146.03C124.543 147.41 123.643 148.83 122.793 150.28C122.003 151.64 121.263 153.03 120.633 154.51C119.303 154.25 117.963 154.07 116.653 153.85C115.013 153.58 113.373 153.3 111.743 152.99C108.483 152.35 105.243 151.66 102.033 150.83C100.743 150.5 99.4431 150.16 98.1631 149.8C99.3331 146.79 100.463 143.76 101.593 140.74L102.523 138.27L103.573 135.84L105.643 130.98C108.393 124.5 111.113 118 113.793 111.5L117.793 101.73C118.433 100.08 119.163 98.5204 119.963 97.0004C120.773 95.4904 121.693 94.0904 122.863 92.9404C124.033 91.7904 125.413 90.9504 126.983 90.6104C128.553 90.2504 130.253 90.2904 131.963 90.4504C135.403 90.7804 138.833 91.4504 142.143 92.4604H142.163C142.283 92.5004 142.423 92.5104 142.563 92.4804C142.983 92.3804 143.243 91.9704 143.143 91.5504C142.213 87.5204 140.693 83.6904 138.803 80.0704C140.373 80.5804 141.883 81.2504 143.303 82.0704C144.943 83.0404 146.493 84.1604 147.933 85.4104C149.383 86.6404 150.763 87.9604 152.083 89.3404C153.403 90.7204 154.713 92.1104 155.933 93.5704C157.723 95.7204 159.383 97.9904 160.673 100.43C158.273 99.6304 155.633 99.5604 153.113 99.9804C150.213 100.48 147.433 101.66 144.943 103.21C142.423 104.74 140.183 106.63 138.003 108.54C135.863 110.48 133.723 112.39 131.703 114.55C129.703 116.74 128.063 119.17 126.463 121.56C124.883 123.96 123.263 126.38 121.913 128.97C121.233 130.26 120.603 131.59 120.083 132.95C119.953 133.29 119.833 133.64 119.703 133.98C119.643 134.16 119.563 134.38 119.553 134.68C119.533 134.99 119.683 135.33 119.863 135.52C120.233 135.92 120.533 136.04 120.823 136.26L121.723 136.86C124.133 138.42 126.503 140.03 128.953 141.55C128.813 141.71 128.673 141.87 128.543 142.03C127.483 143.33 126.463 144.67 125.503 146.05V146.03ZM128.953 141.52C126.743 139.68 124.473 137.92 122.243 136.12L121.393 135.46C121.123 135.24 120.773 135.01 120.673 134.85C120.613 134.76 120.623 134.75 120.633 134.7C121.093 134.64 121.563 134.7 122.013 134.81C122.633 134.95 123.253 135.18 123.873 135.4C125.113 135.81 126.333 136.29 127.543 136.76C128.963 137.31 130.363 137.91 131.753 138.53C130.753 139.48 129.833 140.5 128.963 141.54L128.953 141.52ZM159.453 160.74C159.043 161.02 158.463 161.18 157.853 161.23C157.243 161.3 156.623 161.31 155.993 161.25C153.573 161.06 151.263 159.94 149.033 158.8C150.353 156.4 151.583 153.95 152.703 151.46C153.173 151.85 153.653 152.23 154.113 152.63C156.093 154.31 158.013 156.04 159.373 158.11C159.693 158.6 159.943 159.14 159.983 159.61C160.023 160.08 159.853 160.45 159.453 160.73V160.74ZM163.873 125.57C163.823 129.4 163.633 133.23 163.403 137.06C163.153 140.89 162.823 144.71 162.383 148.52C162.033 151.76 161.543 154.97 160.943 158.18C160.833 157.91 160.703 157.65 160.573 157.41C159.193 154.99 157.173 153.15 155.243 151.38C153.273 149.61 151.213 147.95 149.073 146.39C144.753 143.33 140.143 140.67 135.273 138.62C132.843 137.58 130.363 136.69 127.833 135.94C126.563 135.59 125.293 135.24 124.013 134.96C123.373 134.81 122.743 134.64 122.073 134.56C121.603 134.51 121.123 134.52 120.663 134.63C120.683 134.56 120.713 134.48 120.753 134.37C120.893 134.05 121.033 133.72 121.183 133.4C121.773 132.12 122.423 130.86 123.153 129.64C124.603 127.2 126.223 124.85 127.883 122.5C129.523 120.14 131.123 117.8 133.033 115.75C134.923 113.68 137.073 111.75 139.153 109.78C141.233 107.82 143.383 105.97 145.703 104.37C148.023 102.79 150.563 101.51 153.303 100.83C154.663 100.48 156.073 100.26 157.493 100.25C158.593 100.25 159.693 100.36 160.773 100.59C161.193 101.4 161.573 102.22 161.903 103.07C163.323 106.51 163.653 110.27 163.783 114.09C163.953 117.91 163.963 121.74 163.883 125.56L163.873 125.57Z" fill="black"/>
<path d="M70.1631 150.49C69.7831 150.18 69.4031 149.87 69.0431 149.53C68.8631 149.36 68.7031 149.18 68.5231 149.01C68.3531 148.86 68.1631 148.53 67.5931 148.29C67.3131 148.18 66.9731 148.17 66.7031 148.23C66.4331 148.29 66.2231 148.4 66.0631 148.51C65.7331 148.73 65.5431 148.92 65.3631 149.07C64.9931 149.38 64.5931 149.66 64.1931 149.92C63.3931 150.45 62.4731 150.9 61.6031 151.16C60.7231 151.4 59.8031 151.43 59.1531 150.85C58.5731 150.37 58.2931 149.51 58.0631 148.64L60.3231 147.64L63.0331 146.34C63.9131 145.9 64.8431 145.4 65.6231 144.99C67.1731 144.22 69.1931 144.67 71.1631 145.05C70.3031 144.51 69.4031 144.04 68.4031 143.73C67.4131 143.43 66.2331 143.34 65.1431 143.69C64.6131 143.85 64.1331 144.06 63.6831 144.25L62.3031 144.81L59.5831 146L56.9031 147.28C56.0231 147.76 55.1631 148.11 54.6031 148.01C54.3331 147.97 54.1031 147.78 53.8731 147.41C53.6431 147.05 53.4331 146.58 53.2531 146.15C52.9031 145.3 52.5931 144.32 53.1931 143.46C52.7631 143.73 52.4631 144.25 52.3831 144.79C52.2831 145.33 52.3331 145.87 52.4131 146.39C52.5131 146.92 52.6231 147.39 52.8231 147.93C53.0031 148.45 53.4731 149.09 54.1731 149.34C54.8631 149.6 55.5331 149.51 56.0731 149.37C56.6331 149.23 57.1231 149.02 57.5731 148.84L57.8831 148.7C57.8231 149.59 57.8831 150.54 58.4831 151.42C58.8531 151.93 59.4431 152.29 60.0531 152.45C60.6631 152.62 61.2831 152.59 61.8631 152.52C63.0431 152.35 64.0531 151.89 65.0531 151.36C65.5431 151.09 66.0031 150.76 66.4531 150.41C66.6831 150.23 66.8731 150.06 66.9931 149.99C67.0431 150.04 67.1231 150.11 67.2231 150.22C67.4231 150.41 67.6131 150.62 67.8231 150.8C68.2431 151.17 68.6631 151.53 69.1231 151.84C70.0431 152.46 71.0131 153 72.0531 153.37C72.3631 153.49 72.6731 153.59 72.9831 153.68C73.5731 157.45 74.2931 161.26 74.8731 164.96C74.9431 165.84 74.5631 166.72 73.9131 167.28C73.5831 167.56 73.2031 167.76 72.7931 167.86C72.5931 167.91 72.3831 167.93 72.1631 167.94H71.4131L65.3131 167.89C63.0331 167.88 60.7531 167.89 58.4631 167.89C58.3931 167.54 58.2831 167.22 58.1531 166.9C57.9231 166.37 57.6331 165.89 57.2831 165.45C56.9331 165.01 56.5331 164.61 56.0731 164.27C55.6031 163.93 55.0931 163.64 54.4531 163.48C54.5431 164.14 54.7631 164.67 55.0031 165.18C55.2531 165.68 55.5531 166.14 55.8831 166.56C56.2231 166.98 56.6031 167.38 57.0231 167.73C57.0831 167.78 57.1531 167.83 57.2131 167.88C56.1431 167.88 55.0831 167.88 54.0131 167.88C53.5031 166.86 52.9031 165.9 52.2431 164.99C51.4131 163.83 50.5131 162.73 49.5331 161.69C48.5631 160.65 47.5031 159.69 46.4131 158.79L43.1131 156.13C43.6431 157.49 44.5231 158.68 45.4331 159.78C46.3431 160.87 47.2731 161.9 48.2331 162.92C49.1931 163.94 50.1731 164.93 51.1931 165.9C51.9031 166.58 52.6331 167.24 53.4031 167.88C51.6631 167.88 49.9231 167.9 48.1831 167.92C47.7731 167.06 47.2731 166.27 46.7431 165.5C46.0331 164.48 45.2631 163.51 44.4231 162.61C43.5831 161.7 42.6731 160.86 41.7131 160.09C40.7431 159.31 39.7231 158.6 38.5731 158.04C39.2231 159.14 39.9631 160.12 40.7331 161.08C41.5031 162.03 42.2931 162.95 43.1231 163.84C43.9431 164.73 44.8031 165.59 45.7031 166.42C46.2631 166.94 46.8531 167.45 47.4631 167.94C45.2831 167.96 43.1031 167.97 40.9231 167.99L28.7331 168.18L22.6331 168.31L21.8731 168.33H21.4931C21.3931 168.33 21.3031 168.33 21.2031 168.33C20.8131 168.3 20.4431 168.16 20.1031 167.96C19.7731 167.75 19.4831 167.47 19.2831 167.13C19.1831 166.96 19.1031 166.78 19.0331 166.59L18.8031 165.86C16.4731 158.39 14.0231 150.96 11.4931 143.55C11.5331 143.55 11.5731 143.55 11.6131 143.55C11.9331 143.51 12.3231 143.4 12.6431 143.16C13.2731 142.67 13.4831 141.97 13.4631 141.37C13.4631 140.74 13.1631 140.2 12.8431 139.82C12.5431 139.48 12.2031 139.23 11.8331 139.02C12.1331 138.62 12.2531 138.18 12.2831 137.81C12.3231 137.37 12.2631 136.98 12.1631 136.63C11.7631 135.18 10.8131 134.19 9.80313 133.38C10.1731 133.04 10.4431 132.62 10.5731 132.16C10.7231 131.66 10.7431 131.11 10.5731 130.59C10.4131 130.04 10.0231 129.64 9.76313 129.4C8.68313 128.38 7.55313 127.39 6.29313 126.53C6.99313 127.89 7.83313 129.12 8.71313 130.32C8.94313 130.63 9.03313 130.82 9.06313 131C9.09313 131.19 9.06313 131.41 8.97313 131.61C8.80313 132.02 8.46313 132.26 7.97313 132.36C7.03313 132.57 5.88313 131.88 5.31313 130.79C4.73313 129.7 4.61313 128.24 5.21313 126.84C3.99313 127.8 3.47313 129.67 4.02313 131.32C4.27313 132.16 4.82313 132.91 5.55313 133.47C5.71313 133.59 5.89313 133.7 6.08313 133.79C5.98313 134.17 5.88313 134.55 5.79313 134.94C5.68313 135.61 5.47313 136.17 5.55313 137.01C5.58313 137.42 5.80313 137.94 6.11313 138.27C6.42313 138.61 6.76313 138.83 7.08313 139.02C7.35313 139.18 7.64313 139.3 7.94313 139.41C7.72313 140.09 7.75313 140.88 8.08313 141.59C8.55313 142.61 9.56313 143.36 10.7031 143.55C10.9331 143.58 11.1631 143.59 11.4131 143.58C13.3331 151.18 15.3431 158.74 17.4631 166.28L17.6731 167.02C17.7631 167.32 17.8731 167.61 18.0331 167.88C18.3331 168.42 18.7731 168.89 19.2931 169.24C19.8131 169.59 20.4131 169.81 21.0431 169.88C21.2031 169.9 21.3531 169.9 21.5131 169.91H28.7531L40.9531 169.81C49.0831 169.7 57.2131 169.57 65.3431 169.34L71.4431 169.16L72.2131 169.13C72.5131 169.11 72.8031 169.06 73.0931 168.98C73.6631 168.81 74.1931 168.51 74.6131 168.1C75.4731 167.3 75.9231 166.08 75.7531 164.93C75.3031 162.86 74.8031 160.95 74.3331 158.95C73.9231 157.22 73.4931 155.49 73.0531 153.76C74.8231 154.27 76.6931 154.4 78.4531 154.05C76.3531 153.72 74.4031 153.09 72.6231 152.16C71.7431 151.68 70.8931 151.16 70.1331 150.54L70.1631 150.49ZM7.28313 137.12C7.14313 136.99 7.05313 136.91 6.97313 136.69C6.82313 136.26 6.80313 135.52 6.72313 134.91C6.67313 134.58 6.62313 134.24 6.56313 133.91C7.13313 134.11 7.75313 134.19 8.36313 134.07C8.85313 133.97 9.34313 133.76 9.75313 133.42C9.78313 133.4 9.80313 133.37 9.82313 133.35C10.2631 134.58 10.7931 135.74 10.8331 136.81C10.8331 137.09 10.8331 137.34 10.7731 137.54C10.7231 137.75 10.6231 137.89 10.5631 137.93C10.5031 137.96 10.4431 138 10.2431 138C10.0631 138.01 9.78313 137.98 9.50313 137.93C8.95313 137.84 8.42313 137.67 7.90313 137.45C7.64313 137.35 7.43313 137.23 7.28313 137.11V137.12ZM11.0431 141.73C10.0131 141.55 9.05313 140.84 8.61313 139.55C8.80313 139.6 8.99313 139.67 9.18313 139.7C9.54313 139.76 9.90313 139.81 10.3631 139.77C10.8031 139.73 11.3931 139.55 11.7731 139.11C11.7731 139.11 11.7731 139.1 11.7831 139.09C12.0431 139.93 12.2931 140.72 12.0831 141.21C11.9931 141.49 11.8131 141.69 11.7031 141.72C11.6431 141.75 11.3631 141.78 11.0331 141.72L11.0431 141.73Z" fill="black"/>
<path d="M50.0231 141.43C50.3231 141.95 50.7131 142.44 51.2831 142.8C51.8431 143.19 52.6831 143.26 53.3031 143.13C53.9431 143.01 54.4431 142.82 54.9531 142.65L56.4931 142.14L59.5531 141.04L62.5831 139.85C63.0731 139.64 63.6031 139.41 64.0531 139.24C64.5231 139.07 64.9031 138.97 65.3231 138.99C65.7531 139.01 66.2731 139.16 66.8131 139.27L68.4131 139.61C69.4831 139.81 70.5531 140.02 71.6531 140.14C70.6731 139.63 69.6731 139.2 68.6731 138.77L67.1631 138.15C66.6631 137.95 66.1531 137.73 65.5131 137.61C64.8531 137.47 64.1431 137.58 63.5831 137.75C63.0031 137.92 62.5231 138.1 62.0031 138.27L58.9431 139.37L55.9131 140.56L54.4131 141.19C53.9131 141.39 53.4031 141.64 52.9931 141.78C52.5631 141.92 52.2431 141.93 51.8531 141.78C51.4631 141.63 51.0831 141.32 50.7631 140.95C50.1231 140.22 49.6731 139.2 49.9331 138.12C49.2731 139.06 49.4631 140.43 50.0431 141.45L50.0231 141.43Z" fill="black"/>
<path d="M8.70313 113.17C10.4831 112.91 11.5931 111.34 11.5731 109.86C11.5731 110.61 11.2131 111.35 10.6431 111.8C10.0731 112.25 9.33313 112.41 8.70313 112.28C7.40313 112.01 6.71313 110.86 6.73313 109.86C6.72313 108.86 7.40313 107.72 8.70313 107.44C9.33313 107.31 10.0731 107.46 10.6431 107.92C11.2131 108.37 11.5731 109.11 11.5731 109.86C11.6031 108.38 10.4931 106.81 8.70313 106.54C7.83313 106.41 6.86313 106.66 6.13313 107.28C5.39313 107.89 4.94313 108.87 4.94313 109.85C4.94313 110.83 5.39313 111.81 6.13313 112.42C6.86313 113.04 7.84313 113.29 8.70313 113.16V113.17Z" fill="black"/>
<path d="M13.9731 109.95C14.4931 110.35 15.1631 110.48 15.7231 110.35C16.8831 110.07 17.4431 109.06 17.4331 108.2C17.4331 108.65 17.2031 109.09 16.8431 109.32C16.4831 109.56 16.0531 109.59 15.7231 109.46C15.3931 109.33 15.1731 109.09 15.0631 108.86C14.9431 108.62 14.9131 108.41 14.9131 108.2C14.9131 107.99 14.9531 107.77 15.0631 107.54C15.1731 107.31 15.3931 107.07 15.7231 106.94C16.0531 106.81 16.4831 106.84 16.8431 107.08C17.1931 107.31 17.4331 107.75 17.4331 108.2C17.4331 107.34 16.8831 106.32 15.7231 106.04C15.1631 105.91 14.4831 106.04 13.9731 106.44C13.4531 106.84 13.1231 107.51 13.1231 108.19C13.1231 108.87 13.4531 109.55 13.9731 109.94V109.95Z" fill="black"/>
<path d="M90.2031 194.17C98.8022 194.17 105.773 187.199 105.773 178.6C105.773 170.001 98.8022 163.03 90.2031 163.03C81.6041 163.03 74.6331 170.001 74.6331 178.6C74.6331 187.199 81.6041 194.17 90.2031 194.17Z" fill="white"/>
<path d="M99.5231 166C102.793 168.44 105.373 172 106.253 176.2C107.203 180.36 106.113 185 103.423 188.37C100.733 191.77 96.6831 193.81 92.5631 194.33C88.4431 194.9 84.1231 193.96 80.6131 191.58C77.0831 189.25 74.5231 185.34 73.8431 181.06C73.1031 176.79 74.1531 172.19 76.7931 168.69C79.4031 165.19 83.5231 162.83 87.7931 162.53C92.0631 162.16 96.2431 163.57 99.5231 166ZM99.3931 166.17C96.1231 163.72 91.7931 163.02 87.9931 163.89C84.1931 164.77 80.7931 166.93 78.5731 170.01C76.3431 173.06 75.2631 176.96 75.7731 180.76C76.2731 184.55 78.2331 188.16 81.2831 190.66C84.3231 193.16 88.5031 194.34 92.4531 193.66C96.4131 193 99.8731 190.52 102.013 187.34C104.203 184.16 105.233 180.3 104.943 176.39C104.643 172.5 102.703 168.56 99.3931 166.17Z" fill="black"/>
<path d="M88.6031 183.99C88.3631 183.89 88.1431 183.75 87.9531 183.57C87.5931 183.23 87.3731 182.75 87.3431 182.26C87.3231 181.8 87.5331 181.22 88.0931 181.25C88.2831 181.26 88.4831 181.41 88.4531 181.59C88.4231 181.76 88.2131 181.88 88.2531 182.05C88.2731 182.14 88.3531 182.2 88.4331 182.24C89.3831 182.77 90.2831 182.05 90.6631 181.19C91.1031 180.21 91.2031 178.62 90.3331 177.83C90.0131 177.54 89.8631 177.48 89.5431 177.48C89.0131 177.48 88.7431 177.9 88.2531 178.04C87.9631 178.12 87.6031 178.06 87.4231 177.81C87.3031 177.65 87.2731 177.43 87.2531 177.23C87.1531 176.24 87.0431 175.24 87.1431 174.24C87.1931 173.75 87.3231 173.21 87.7431 172.95C88.1131 172.72 88.5831 172.79 89.0131 172.81C90.0931 172.87 91.1631 172.69 92.2431 172.91C92.4331 172.95 92.6631 173.03 92.7131 173.22C92.8631 173.82 91.6031 174 91.2331 174.01C90.7031 174.02 90.1631 173.92 89.6331 173.9C89.4831 173.9 89.3231 173.9 89.2031 173.98C88.9631 174.13 89.0931 174.54 89.0831 174.78C89.0731 175.15 89.0131 175.52 88.9031 175.88C88.8331 176.11 88.8731 176.22 89.1131 176.11C89.3831 175.99 89.6531 175.89 89.9431 175.85C90.5431 175.78 91.1631 175.92 91.6531 176.26C93.8131 177.79 93.3431 181.36 91.7331 183.11C91.2531 183.63 90.6231 184.01 89.9231 184.12C89.4831 184.19 89.0331 184.13 88.6231 183.97L88.6031 183.99Z" fill="black"/>
<defs>
<linearGradient id="paint0_linear_2310_97364" x1="-0.0078125" y1="97.2617" x2="173.963" y2="97.2617" gradientUnits="userSpaceOnUse">
<stop stop-color="#0ABBEF"/>
<stop offset="0.24" stop-color="#0D9ACF"/>
<stop offset="0.76" stop-color="#14598E"/>
<stop offset="1" stop-color="#174075"/>
</linearGradient>
</defs>
</svg>
