<svg id="Layer_2" data-name="Layer 2" xmlns="http://www.w3.org/2000/svg" xmlns:xlink="http://www.w3.org/1999/xlink" viewBox="0 0 204.35 195.73"><defs><linearGradient id="_Безымянный_градиент_11" data-name="Безымянный градиент 11" x1="9.75" y1="97.58" x2="200.73" y2="97.58" gradientUnits="userSpaceOnUse"><stop offset="0" stop-color="#ee882c"/><stop offset=".16" stop-color="#ef8f28"/><stop offset=".42" stop-color="#f2a51f"/><stop offset=".73" stop-color="#f8c80f"/><stop offset="1" stop-color="#ffed00"/></linearGradient><linearGradient id="_Безымянный_градиент_6" data-name="Безымянный градиент 6" x1="111.63" y1="143.67" x2="203.24" y2="143.67" gradientUnits="userSpaceOnUse"><stop offset="0" stop-color="#a25a9f"/><stop offset=".65" stop-color="#693068"/><stop offset="1" stop-color="#501d50"/></linearGradient><linearGradient id="_Безымянный_градиент_15" data-name="Безымянный градиент 15" x1="157.66" y1="162.57" x2="157.66" y2="111.01" gradientUnits="userSpaceOnUse"><stop offset="0" stop-color="#a25a9f"/><stop offset=".07" stop-color="#975194"/><stop offset=".32" stop-color="#783a76"/><stop offset=".56" stop-color="#612a61"/><stop offset=".79" stop-color="#542054"/><stop offset="1" stop-color="#501d50"/></linearGradient><linearGradient id="_Безымянный_градиент_10" data-name="Безымянный градиент 10" x1=".63" y1="65.43" x2="92.23" y2="65.43" gradientUnits="userSpaceOnUse"><stop offset="0" stop-color="#ffed00"/><stop offset=".09" stop-color="#fde204"/><stop offset=".71" stop-color="#f2a120"/><stop offset="1" stop-color="#ee882c"/></linearGradient><linearGradient id="_Безымянный_градиент_8" data-name="Безымянный градиент 8" x1="26.93" y1="44.67" x2="67.41" y2="44.67" gradientUnits="userSpaceOnUse"><stop offset="0" stop-color="#ed6c2e"/><stop offset=".05" stop-color="#eb6b2c"/><stop offset="1" stop-color="#d2681a"/></linearGradient><linearGradient id="_Безымянный_градиент_8-2" data-name="Безымянный градиент 8" x1="25.34" y1="61.27" x2="40.94" y2="61.27" xlink:href="#_Безымянный_градиент_8"/><style>.cls-1{fill:#000}.cls-1,.cls-2,.cls-3,.cls-4,.cls-5,.cls-9{stroke-width:0}.cls-2{fill:#0abbef}.cls-3{fill:#a25a9f}.cls-4{fill:#76b82a}.cls-5{fill:#f4c6cc}.cls-9{fill:#fff}</style></defs><g id="_Наведение" data-name="Наведение"><g id="_5" data-name="5"><path d="M200.73 97.58c0 52.74-42.75 95.49-95.49 95.49-14.05 0-27.38-3.03-39.4-8.48a94.58 94.58 0 0 1-18.78-11.29h-.02c-1.42-1.1-2.8-2.24-4.15-3.4a95.796 95.796 0 0 1-20.47-24.76c-8.06-14-12.67-30.24-12.67-47.56 0-52.74 42.76-95.5 95.5-95.5 39.82 0 73.95 24.38 88.28 59.03 4.64 11.24 7.21 23.55 7.21 36.47z" style="fill:url(#_Безымянный_градиент_11);stroke-width:0"/><path class="cls-1" d="M9.5 97.58c-.02-6.27.58-12.53 1.75-18.7 1.12-6.17 2.91-12.22 5.17-18.09C21 49.07 27.83 38.15 36.61 28.95c4.39-4.59 9.21-8.81 14.48-12.42 1.33-.87 2.65-1.78 4-2.63 1.38-.81 2.73-1.66 4.13-2.43 1.42-.73 2.82-1.5 4.27-2.19 1.46-.66 2.89-1.37 4.37-1.97 11.77-5 24.62-7.44 37.38-7.31 12.77.2 25.46 2.97 37.08 8.05a96.715 96.715 0 0 1 16.54 9.26c5.2 3.59 10.05 7.67 14.47 12.16 8.86 8.97 16 19.61 20.92 31.22a102.1 102.1 0 0 1 5.7 18.03c1.32 6.18 2.04 12.5 2.14 18.84.2 12.67-2 25.47-6.8 37.31-4.74 11.85-11.86 22.78-20.88 31.88-9 9.12-19.8 16.46-31.64 21.45-11.83 5.02-24.71 7.51-37.54 7.52-12.83-.09-25.69-2.62-37.47-7.7-11.8-5.01-22.47-12.54-31.22-21.77-8.77-9.22-15.59-20.15-20.18-31.88-2.26-5.87-4.04-11.93-5.16-18.1-1.15-6.17-1.75-12.44-1.72-18.7zm.5 0c.05 6.23.67 12.46 1.94 18.56 1.31 6.08 3.17 12.05 5.69 17.73 4.98 11.38 12.34 21.61 21.24 30.07 4.46 4.23 9.34 7.98 14.48 11.29 1.31.79 2.59 1.62 3.92 2.37 1.35.72 2.66 1.49 4.03 2.18 1.37.67 2.72 1.38 4.11 2.01 1.4.6 2.78 1.25 4.2 1.8 5.66 2.25 11.52 3.99 17.49 5.14 5.97 1.15 12.05 1.7 18.13 1.68 6.08-.03 12.15-.6 18.11-1.78 5.96-1.18 11.8-2.95 17.43-5.22 11.27-4.57 21.63-11.4 30.31-19.97 8.66-8.58 15.72-18.82 20.54-30.07 2.4-5.63 4.27-11.49 5.59-17.49 1.3-6 2.02-12.14 2.14-18.3.17-12.31-1.98-24.74-6.67-36.22-4.64-11.49-11.68-22.01-20.5-30.73a92.227 92.227 0 0 0-14.47-11.6 93.568 93.568 0 0 0-16.47-8.4c-11.47-4.51-23.78-6.66-36.01-6.46-6.12.06-12.21.76-18.2 1.93-5.98 1.2-11.84 3-17.5 5.27-1.42.56-2.8 1.22-4.2 1.83-1.39.63-2.73 1.36-4.11 2.03-1.36.69-2.68 1.47-4.02 2.2-1.32.76-2.61 1.6-3.92 2.39-5.13 3.34-10.01 7.1-14.47 11.34-8.89 8.49-16.25 18.73-21.23 30.11-2.53 5.68-4.38 11.65-5.68 17.74-1.27 6.1-1.88 12.33-1.92 18.57z"/><path d="M203.24 143.67c0 25.3-20.5 45.8-45.8 45.8a45.56 45.56 0 0 1-18.9-4.07 45.825 45.825 0 0 1-9.01-5.41c-.68-.53-1.34-1.07-1.99-1.63-3.9-3.37-7.23-7.38-9.82-11.88a45.564 45.564 0 0 1-6.08-22.81c0-25.3 20.51-45.8 45.8-45.8 19.1 0 35.47 11.69 42.34 28.31 2.23 5.39 3.46 11.3 3.46 17.49z" style="fill:url(#_Безымянный_градиент_6);stroke-width:0"/><path class="cls-1" d="M124.95 176.38a48.303 48.303 0 0 1-5.75-6.93c-1.71-2.47-3.16-5.13-4.38-7.89-2.42-5.53-3.81-11.55-3.95-17.65-.07-3.05.14-6.11.7-9.12.16-.75.29-1.5.47-2.25.19-.74.36-1.49.58-2.22.24-.73.45-1.47.71-2.19.27-.72.52-1.44.81-2.15 2.3-5.69 5.83-10.88 10.2-15.16 4.4-4.26 9.64-7.63 15.31-9.84 2.83-1.11 5.77-1.94 8.75-2.47 2.98-.55 6.01-.81 9.03-.79a48.31 48.31 0 0 1 17.69 3.49c2.8 1.14 5.5 2.54 8.05 4.18 2.55 1.65 4.93 3.55 7.12 5.66 4.36 4.23 7.96 9.32 10.35 14.96 2.41 5.63 3.7 11.75 3.73 17.89.04 6.14-1.13 12.3-3.46 18.01-2.31 5.71-5.83 10.93-10.18 15.28-4.39 4.32-9.6 7.82-15.32 10.1-5.7 2.3-11.88 3.37-17.97 3.2-6.1-.15-12.13-1.55-17.66-3.97-2.76-1.23-5.42-2.67-7.89-4.39a47.72 47.72 0 0 1-6.93-5.76zm.16-.17c2.13 2.1 4.45 4 6.95 5.64 2.51 1.62 5.16 3.01 7.94 4.08 5.55 2.17 11.52 3.15 17.41 2.99 2.95-.08 5.88-.46 8.74-1.08.71-.18 1.43-.33 2.13-.52.7-.21 1.41-.4 2.1-.63.69-.24 1.39-.45 2.07-.71.68-.27 1.37-.52 2.04-.81 2.68-1.16 5.26-2.55 7.67-4.19 2.42-1.64 4.67-3.51 6.72-5.58 2.05-2.07 3.92-4.32 5.54-6.75 1.62-2.42 3-5 4.14-7.68a44.71 44.71 0 0 0 3.51-17.05c.03-5.85-1.05-11.71-3.23-17.17a46.78 46.78 0 0 0-4.04-7.83 45.13 45.13 0 0 0-5.48-6.93c-4.12-4.23-9.06-7.72-14.55-10.02a44.09 44.09 0 0 0-17.37-3.47c-2.97.02-5.94.35-8.84.97-2.9.63-5.73 1.55-8.43 2.74-5.42 2.36-10.32 5.81-14.41 10.02-2.05 2.1-3.89 4.4-5.52 6.83-1.62 2.44-3 5.03-4.15 7.73-.29.67-.53 1.36-.8 2.04-.26.69-.47 1.39-.7 2.08-.23.7-.41 1.41-.62 2.11-.19.71-.34 1.43-.52 2.14-.61 2.87-.99 5.8-1.06 8.75-.14 5.89.84 11.86 3.01 17.41 1.07 2.78 2.47 5.44 4.09 7.94 1.64 2.5 3.55 4.82 5.65 6.95z"/><path d="M187.78 155.92c-1.63 1.41-3.19 1.62-4.89.96-.33-.13-.62-.36-.95-.47-.35-.12-.81-.34-1.09-.22-.52.23-.32.75-.18 1.2.23.76.42 1.53.65 2.37-2.02.57-3.15-1.06-4.86-1.68.02.67.04 1.06.04 1.44 0 1.29-.7 1.75-1.85 1.17-.36-.18-.65-.5-1-.69-.5-.28-.85-.13-1.04.44-.75 2.18-.93 2.22-2.84.84-.2-.14-.43-.24-.8-.44-.83 1.06-1.59 2.6-3.39 1.11 3.21-2.99 5.57-6.54 6.86-10.8.55-.02 1.05-.07 1.54-.04 1.33.07 2.39-.42 3.16-1.49.41-.57.84-1.17 1.07-1.83.87-2.49 1.12-5.05.53-7.65-.41-1.8-.85-2.36-2.59-3.33 1.71-2.84 1.35-5.95 1.03-9.08-.45 2.99-.26 6.13-2.18 8.8-.5-3.57-.96-7.12-2.01-10.57-.42 3.58.81 7.03.89 10.83-3.18-5.49-3.63-11.53-5.05-17.7-.56.75-.89 1.16-1.18 1.6-3.02 4.5-6.53 8.56-10.49 12.26-2.82 2.63-6.03 4.65-9.52 6.24-.62.28-1.29.44-1.94.66-.57-5.75 1.69-10.43 4.67-14.92-1.1.38-1.5 1.38-2.07 2.19-.64.91-1.18 1.9-1.69 2.89-.47.93-.84 1.91-1.35 2.84-.51-2.61.2-5.05 1.16-7.63-2.12 1.21-2.91 5.66-1.96 9.97-.71.77-1.49 1-2.57.66-1.75-.54-2.54-.08-3.1 1.69-.99 3.12-.89 6.21.52 9.21.93 1.97 2.24 2.94 4.31 3.33 1.07 2.34 2.12 4.64 3.26 7.14-.33.3-.8.72-1.29 1.15q-.88-.51-2.76.21c.16-1.01.77-2.06-.37-3.05-.48.54-.85 1.07-1.33 1.48-.49.42-1.05.8-1.65 1.06-.55.24-1.17.38-1.77.43-.63.06-1.28-.04-2.17-.07.79-.95 1.68-1.63 1.03-2.88-3.48 1.62-6.61 1.57-9.03-2.15 2.91-.73 4.06-3.01 5.14-5.32 2.37-5.05 3.85-10.36 4.88-15.83.73-3.9 1.69-7.74 3.63-11.27 1.67-3.03 3.8-5.64 6.64-7.64s5.96-2.8 9.39-2.08c.93.2 1.85.54 2.71.95.55.27.98.79 1.43 1.17 1.82-.63 3.69-1.45 5.64-1.9 1.56-.36 3.22-.43 4.83-.35 2.13.1 3.85 1.16 5.12 2.92 1.25 1.73 1.89 3.7 2.3 5.76 1.26 6.37 1.29 12.83 1.41 19.28.06 3.3.25 6.59.43 9.89.04.7.23 1.41.49 2.07 1.07 2.72 2.79 4.69 6.19 4.88z" style="fill:url(#_Безымянный_градиент_15);stroke-width:0"/><path class="cls-3" d="M143.81 145.18c-.56.6-.49 1.27-.49 1.89 0 .59.12 1.19.2 1.87-1.22-.2-1.95-.94-2.47-1.79-1.96-3.18-1.94-6.51-.64-10.09 1.39-.04 2.73-.09 4.22-.13-.08.75-.2 1.68-.29 2.61-.13 1.41.29 1.81 1.65 1.45 3.44-.91 6.52-2.61 9.3-4.76 4.83-3.73 8.86-8.22 12.15-13.36.24-.38.46-.77.98-1.14.08.56.19 1.12.24 1.68.45 5.22 1.74 10.2 4.2 14.85.12.22.2.47.34.68.52.8 1.13.77 1.59-.09.17-.3.29-.63.43-.96.98-.11 1.5.45 1.78 1.19.28.75.46 1.56.54 2.36.19 1.88.05 3.76-.43 5.59-.13.49-.29.98-.54 1.41-.85 1.48-1.66 1.77-3.51 1.29.06-.94.13-1.89.2-2.85-.11-.03-.22-.05-.33-.08-.14.22-.34.42-.42.66-.59 1.73-1.05 3.52-1.76 5.19-1.59 3.72-3.91 6.92-7.46 9-3.28 1.92-8.29 1.96-11.74-1.36-1.09-1.05-2.14-2.19-2.99-3.44-2.31-3.39-3.96-7.08-4.48-11.2-.02-.12-.13-.23-.27-.47z"/><path class="cls-3" d="M150.71 171.5c-.41-3.13.56-6.23.32-9.61 1.15.62 2.09 1.29 3.14 1.66 1.13.4 2.36.66 3.56.73 1.15.07 2.34-.08 3.46-.33s2.18-.74 3.39-1.17c-.14 2.88-.29 5.71-.43 8.52-2.94.61-11.15.74-13.44.2z"/><path class="cls-1" d="M161.85 112.34c2.98-2.01 6.15-2.92 9.61-2.77 3.13.13 5.51 1.57 7.16 4.22 1.17 1.89 1.82 3.99 2.11 6.16.45 3.32.84 6.65 1.02 10 .28 5.17.31 10.36.54 15.54.07 1.56.34 3.13.73 4.65.23.9.77 1.77 1.34 2.52 1.02 1.35 2.42 1.96 4.15 1.68.29-.05.59-.02.89-.03.41.61.1 1.12-.18 1.58-1.15 1.84-2.81 2.73-4.99 2.59-.59-.04-1.17-.19-1.89-.31.07.43.16.76.18 1.1.09 1.22-.6 2-1.81 1.86-.94-.11-1.86-.44-2.9-.71-.36.63-.62 1.61-1.63 1.66-.79.04-1.58-.12-2.45-.2-1.47 1.9-2.08 2.02-4.44.67-.81 1.23-2 1.53-3.44 1.03l-.12 8.09c.78.03 1.48.09 2.18.08 1.56-.02 2.44.82 2.89 2.22.11.33.2.67.32 1.09 1.31.1 2.62.18 3.93.3 3.76.35 7.16 1.82 10.48 3.51.52.26 1.26.58.82 1.34-.4.69-.99.2-1.47-.04a32.343 32.343 0 0 0-9.68-3.11c-1.4-.22-2.81-.41-4.22-.59-.75-.09-1.22-.44-1.35-1.21-.05-.3-.17-.59-.28-.87-.26-.67-.7-1.05-1.48-1.07-1.25-.03-2.5-.16-3.82-.25.18.86.36 1.75.59 2.88-1.49-.64-1.19-2.02-1.84-2.87-.92.03-1.88.06-3.01.09.03 1.07.07 2.1.1 3.25q-.79-.59-1.07-3.12c-1.03.03-2.07.06-3.16.1-.18.83-.36 1.69-.58 2.69-.97-.89-.31-1.79-.47-2.79-1.28-.12-2.62-.24-4.03-.36-.64 1.27-.46 2.83-1.46 3.95q-.38-.61.37-3.92c-.5-.04-1-.02-1.47-.12-1.12-.23-1.94-.02-2.48 1.15-.46 1-1.45 1.18-2.48 1.09-2.24-.2-4.46-.12-6.68.27-2.61.45-5.16 1.08-7.58 2.21-.64.3-1.31.57-2 .73-.26.06-.74-.14-.88-.37-.26-.43.07-.75.48-.95 4.63-2.25 9.46-3.67 14.65-3.62.51 0 1.02-.01 1.52.03.88.08 1.55-.12 2.01-.99.45-.86 1.29-1.09 2.22-1.02.8.06 1.59.13 2.44.2.12-1.64.2-3.15.36-4.66.18-1.67.4-3.33.67-4.98.09-.56.03-.95-.37-1.37-.74-.77-1.42-1.59-2.19-2.47-.29.27-.58.52-.85.79-.58.57-1.18.93-2.04.55-.27-.12-.66-.04-.97.04-.49.13-.94.39-1.43.49-1.03.22-1.28.1-2.08-.87-.66.15-1.34.39-2.03.44-.85.06-1.73.07-2.56-.1-1.05-.21-1.28-.66-1.22-1.63-1.25-.08-2.52-.05-3.74-.28-2.24-.42-3.61-1.97-4.53-3.94-.5-1.07-.16-1.63 1.08-1.69 1.02-.05 1.77-.5 2.31-1.27.64-.91 1.24-1.86 1.72-2.86 2.26-4.75 3.72-9.76 4.72-14.92.5-2.59 1.1-5.17 1.9-7.68 1.56-4.89 4.16-9.14 8.26-12.36 2.12-1.67 4.46-2.87 7.17-3.11 3.13-.28 6.1.12 8.47 2.65zm25.93 43.58c-3.41-.19-5.12-2.16-6.19-4.88-.26-.65-.45-1.37-.49-2.07-.18-3.29-.37-6.59-.43-9.89-.12-6.45-.14-12.91-1.41-19.28-.41-2.06-1.05-4.03-2.3-5.76-1.27-1.75-2.99-2.81-5.12-2.92-1.61-.08-3.27-.01-4.83.35-1.95.45-3.82 1.27-5.64 1.9-.45-.38-.88-.9-1.43-1.17-.86-.41-1.78-.76-2.71-.95-3.43-.72-6.55.08-9.39 2.08-2.84 2.01-4.98 4.61-6.64 7.64-1.94 3.53-2.9 7.37-3.63 11.27-1.03 5.47-2.51 10.78-4.88 15.83-1.09 2.31-2.23 4.59-5.14 5.32 2.42 3.72 5.55 3.77 9.03 2.15.65 1.24-.24 1.92-1.03 2.88.89.04 1.54.13 2.17.07.6-.05 1.22-.19 1.77-.43.59-.26 1.15-.64 1.65-1.06.48-.41.85-.94 1.33-1.48 1.14.99.53 2.04.37 3.05q1.88-.72 2.76-.21c.48-.43.96-.86 1.29-1.15-1.15-2.51-2.2-4.8-3.26-7.14-2.06-.38-3.38-1.36-4.31-3.33-1.41-2.99-1.51-6.08-.52-9.21.56-1.77 1.35-2.23 3.1-1.69 1.08.33 1.87.11 2.57-.66-.95-4.32-.16-8.77 1.96-9.97-.97 2.57-1.67 5.02-1.16 7.63.51-.93.88-1.91 1.35-2.84.51-.99 1.05-1.98 1.69-2.89.56-.81.96-1.81 2.07-2.19-2.98 4.49-5.24 9.17-4.67 14.92.65-.22 1.32-.38 1.94-.66 3.49-1.59 6.7-3.61 9.52-6.24 3.96-3.69 7.47-7.76 10.49-12.26.29-.44.63-.85 1.18-1.6 1.42 6.17 1.86 12.22 5.05 17.7-.08-3.8-1.31-7.25-.89-10.83 1.05 3.45 1.51 7.01 2.01 10.57 1.92-2.67 1.73-5.81 2.18-8.8.32 3.13.68 6.24-1.03 9.08 1.75.97 2.18 1.53 2.59 3.33.59 2.6.35 5.16-.53 7.65-.23.66-.66 1.26-1.07 1.83-.77 1.06-1.83 1.56-3.16 1.49-.5-.03-1 .02-1.54.04-1.29 4.26-3.65 7.81-6.86 10.8 1.8 1.48 2.56-.06 3.39-1.11.36.2.6.3.8.44 1.91 1.38 2.09 1.34 2.84-.84.2-.57.54-.72 1.04-.44.35.19.64.51 1 .69 1.15.58 1.86.12 1.85-1.17 0-.39-.02-.78-.04-1.44 1.71.62 2.84 2.25 4.86 1.68-.23-.84-.42-1.61-.65-2.37-.14-.45-.35-.97.18-1.2.28-.12.73.09 1.09.22.33.12.62.35.95.47 1.7.66 3.27.45 4.89-.96zm-43.97-10.74c.14.24.25.35.27.47.53 4.12 2.18 7.81 4.48 11.2.85 1.25 1.9 2.39 2.99 3.44 3.45 3.32 8.46 3.28 11.74 1.36 3.55-2.08 5.86-5.29 7.46-9 .72-1.67 1.17-3.46 1.76-5.19.08-.24.28-.44.42-.66.11.03.22.05.33.08-.07.96-.13 1.91-.2 2.85 1.85.49 2.66.2 3.51-1.29.25-.43.41-.93.54-1.41.49-1.84.63-3.71.43-5.59-.08-.8-.27-1.61-.54-2.36-.27-.74-.8-1.29-1.78-1.19-.15.33-.27.66-.43.96-.47.86-1.07.89-1.59.09-.14-.21-.22-.46-.34-.68-2.47-4.65-3.76-9.63-4.2-14.85-.05-.56-.16-1.12-.24-1.68-.52.37-.74.76-.98 1.14-3.29 5.15-7.32 9.64-12.15 13.36-2.78 2.15-5.86 3.85-9.3 4.76-1.36.36-1.78-.05-1.65-1.45.08-.93.2-1.86.29-2.61-1.49.05-2.83.09-4.22.13-1.3 3.58-1.31 6.91.64 10.09.52.85 1.25 1.59 2.47 1.79-.08-.68-.19-1.27-.2-1.87 0-.62-.08-1.28.49-1.89zm6.9 26.32c2.3.53 10.51.4 13.44-.2.14-2.81.28-5.64.43-8.52-1.21.43-2.28.92-3.39 1.17-1.13.25-2.32.4-3.46.33-1.2-.07-2.42-.33-3.56-.73-1.05-.37-1.99-1.04-3.14-1.66.23 3.38-.74 6.48-.32 9.61z"/><g><path class="cls-9" d="M116.52 163.99c-7.87.77-15.38-.52-22.41-4.24-.52-.27-.96-.55-1.53-.09-.17.14-.48.13-.73.17-4.5.8-9 1.57-13.5 2.39-2.6.48-5.17 1.14-7.77 1.54-7.02 1.08-14.05 2.14-21.1 3.06-3.21.42-6.47.6-9.71.69-2.76.08-5.18-.98-7.02-3.1-.7-.8-1.36-1.66-1.89-2.57a57.027 57.027 0 0 1-6.59-17.6c-.66-3.39.35-6.19 3.2-8.29 2.52-1.86 5.29-3.23 8.23-4.24 7.8-2.67 15.79-4.7 23.83-6.45 9.03-1.96 18.12-3.67 27.24-5.23 4.89-.84 9.87-1.23 14.83-1.65 3.13-.26 6.29-.22 9.42.3 4.19.69 7.17 2.94 8.74 6.94 1.87 4.74 3.27 9.63 4.02 14.67.27 1.84.34 3.75.2 5.61-.3 3.86-2.64 6.62-6.38 7.67-2.54.72-5.12 1.29-7.68 1.92-.54.13-1.1.22-1.63.39-1.09.35-1.25.88-.35 1.56a16.7 16.7 0 0 0 3.12 1.86c3.63 1.65 7.45 2.64 11.46 3-1.93.88-3.94 1.49-6 1.69zm-27.46-27.6c-.09 1.57 1.02 2.35 2.19 3.01 1.39.79 2.92 1.18 4.53 1.1.64-.03 1.33-.16 1.91-.44 1.5-.72 1.91-2.49.77-3.69-1.35-1.42-3.09-2.27-4.96-2.82-.46-.13-1 .03-1.2.04-1.99.51-3.16 1.54-3.23 2.78zm-8.86 7.1c1.68-.77 2.09-2.46.88-3.87-1.24-1.45-2.9-2.17-4.77-2.43-.55-.08-1.1-.15-1.65-.24-1.31-.2-2.25.25-2.91 1.42-.7 1.25-.64 2.38.33 3.34 1.98 1.96 4.39 2.61 7.01 2.19.45-.17.8-.27 1.12-.42zm-34.18 5.21c.97-.79 1.04-1.95.12-2.78-.74-.66-1.63-1.24-2.56-1.57-1.17-.41-2.44-.61-3.69-.76-1.34-.16-2.72.86-3.14 2.18-.4 1.25.09 2.45 1.39 3.21 1.79 1.04 3.71 1.28 5.8.91.7-.39 1.47-.69 2.08-1.19zm17.97-3.89c.23-1.25-.44-2.16-1.41-2.8-.62-.41-1.33-.72-2.04-.96-.81-.27-1.66-.43-2.5-.62-1.42-.32-2.43.05-3.03 1.08-.72 1.25-.58 2.61.5 3.59 1.74 1.59 3.79 2.26 5.99 1.89 1.26-.41 2.26-.92 2.49-2.18z"/><path class="cls-2" d="M92.47 134.88c-.9.42-1.82.64-1.96 1.55-.16.97.71 1.38 1.41 1.76 1.32.72 2.75 1.11 4.24.86.54-.09 1.22-.42 1.46-.86.37-.66-.18-1.29-.75-1.63-.99-.6-2.02-1.15-3.09-1.6-.43-.18-.98-.06-1.32-.08zM78.73 142.53c.39-.14.69-.21.95-.35.77-.41.91-.99.45-1.76-1.02-1.71-4.41-2.92-6.2-2.21-1.13.44-1.48 1.9-.59 2.7 1.56 1.4 3.42 1.89 5.39 1.63zM43.62 148.34c.58-.27 1.58-.22 1.68-1.15.08-.8-.76-1.11-1.31-1.53-1.16-.88-2.51-1.05-3.88-.88-.51.06-1.07.34-1.46.69-.83.71-.73 1.69.23 2.26 1.45.86 3.02 1.08 4.76.61zM61.48 145.57c.29-.28.98-.65 1.09-1.15.1-.43-.35-1.14-.76-1.5-1.17-1.04-2.59-1.56-4.19-1.47-.78.04-1.33.39-1.56 1.19-.22.78.17 1.27.72 1.68 1.3.98 2.74 1.5 4.7 1.25z"/><path class="cls-1" d="M127.68 160.97c-.38.3-.75.61-1.15.89-3.14 2.17-6.73 3.27-10.42 3.61-7.95.75-15.59-.62-22.69-4.44-.5-.27-.89-.3-1.42-.13-1.16.38-2.32.77-3.51 1.02-5.22 1.1-10.43 2.3-15.68 3.19-7.56 1.27-15.15 2.37-22.75 3.41-3.31.45-6.67.69-10.01.78-4.1.1-7.35-1.71-9.73-5.04-.47-.66-.91-1.34-1.32-2.05-3.02-5.24-4.97-10.89-6.31-16.76-1.09-4.8.23-8.28 4.24-11.16 2.96-2.12 6.25-3.62 9.71-4.68 8.95-2.73 17.99-5.1 27.17-6.92 5.53-1.1 11.04-2.3 16.58-3.34 6.59-1.24 13.22-2.25 19.93-2.55 3.39-.15 6.81-.13 10.18.2 4.97.48 8.66 3.01 10.62 7.75a65.739 65.739 0 0 1 4.4 16.28c.29 2.11.37 4.25-.13 6.36-.8 3.39-2.67 5.97-5.95 7.21-2.22.84-4.58 1.31-6.88 1.94-.51.14-1.02.27-1.83.48 2.79 1.45 5.5 2.22 8.25 2.87 2.81.67 5.68.65 8.56.61l.14.47zm-16.62-1.67c-1.1-.5-2.16-1.13-3.12-1.86-.9-.68-.74-1.21.35-1.56.53-.17 1.09-.26 1.63-.39 2.56-.63 5.14-1.2 7.68-1.92 3.74-1.06 6.08-3.81 6.38-7.67.14-1.86.07-3.77-.2-5.61-.75-5.04-2.15-9.92-4.02-14.67-1.57-4-4.55-6.25-8.74-6.94-3.12-.52-6.29-.56-9.42-.3-4.95.42-9.93.81-14.83 1.65-9.11 1.56-18.2 3.27-27.24 5.23-8.04 1.75-16.03 3.78-23.83 6.45-2.94 1-5.71 2.38-8.23 4.24-2.86 2.1-3.87 4.9-3.2 8.29a56.838 56.838 0 0 0 6.59 17.6c.53.92 1.19 1.77 1.89 2.57 1.85 2.11 4.26 3.17 7.02 3.1 3.24-.09 6.5-.27 9.71-.69 7.05-.92 14.08-1.98 21.1-3.06 2.61-.4 5.18-1.06 7.77-1.54 4.49-.82 9-1.59 13.5-2.39.25-.04.55-.03.73-.17.56-.46 1.01-.18 1.53.09 7.03 3.72 14.54 5.01 22.41 4.24 2.06-.2 4.07-.81 6-1.69-4.01-.36-7.82-1.35-11.46-3z"/><path class="cls-1" d="M93.49 133.56c1.87.54 3.61 1.4 4.96 2.82 1.14 1.19.73 2.97-.77 3.69-.58.28-1.26.4-1.91.44-1.6.08-3.13-.31-4.53-1.1-1.17-.66-2.28-1.44-2.19-3.01.07-1.25 1.23-2.27 3.23-2.78.2-.01.75-.17 1.2-.04zm-2.98 2.87c-.16.97.71 1.38 1.41 1.76 1.32.72 2.75 1.11 4.24.86.54-.09 1.22-.42 1.46-.86.37-.66-.18-1.29-.75-1.63-.99-.6-2.02-1.15-3.09-1.6-.43-.18-.98-.06-1.32-.08-.9.42-1.82.64-1.96 1.55zM72.08 141.71c-.97-.96-1.03-2.1-.33-3.34.66-1.17 1.6-1.63 2.91-1.42.55.09 1.1.16 1.65.24 1.87.26 3.53.98 4.77 2.43 1.21 1.41.8 3.1-.88 3.87-.32.15-.66.25-1.12.42-2.61.42-5.02-.24-7.01-2.19zm7.61.47c.77-.41.91-.99.45-1.76-1.02-1.71-4.41-2.92-6.2-2.21-1.13.44-1.48 1.9-.59 2.7 1.56 1.4 3.42 1.89 5.39 1.63.39-.14.69-.21.95-.35zM38.14 148.98c-1.31-.76-1.79-1.96-1.39-3.21.42-1.32 1.79-2.35 3.14-2.18 1.25.15 2.51.35 3.69.76.93.33 1.82.91 2.56 1.57.92.83.85 1.99-.12 2.78-.61.5-1.38.8-2.08 1.19-2.08.37-4.01.13-5.8-.91zm7.16-1.79c.08-.8-.76-1.11-1.31-1.53-1.16-.88-2.51-1.05-3.88-.88-.51.06-1.07.34-1.46.69-.83.71-.73 1.69.23 2.26 1.45.86 3.02 1.08 4.76.61.58-.27 1.58-.22 1.68-1.15zM55.51 145.11c-1.08-.99-1.22-2.35-.5-3.59.6-1.04 1.61-1.4 3.03-1.08.84.19 1.69.34 2.5.62.71.24 1.42.54 2.04.96.97.65 1.64 1.55 1.41 2.8-.23 1.26-1.23 1.77-2.49 2.18-2.2.37-4.25-.3-5.99-1.89zm7.06-.69c.1-.43-.35-1.14-.76-1.5-1.17-1.04-2.59-1.56-4.19-1.47-.78.04-1.33.39-1.56 1.19-.22.78.17 1.27.72 1.68 1.3.98 2.74 1.5 4.7 1.25.29-.28.98-.65 1.09-1.15z"/></g><g><path d="M92.23 65.43c0 25.3-20.5 45.8-45.8 45.8a45.56 45.56 0 0 1-18.9-4.07 45.825 45.825 0 0 1-9.01-5.41c-.68-.53-1.34-1.07-1.99-1.63-3.9-3.37-7.23-7.38-9.82-11.88A45.564 45.564 0 0 1 .63 65.43c0-25.29 20.51-45.8 45.8-45.8 19.1 0 35.47 11.69 42.34 28.31 2.23 5.39 3.46 11.3 3.46 17.49z" style="fill:url(#_Безымянный_градиент_10);stroke-width:0"/><path class="cls-9" d="M63.6 57.7c-.05-1.5-.38-2.98-.6-4.56-2.74 1.11-5.4 1.43-8.07.89-.35-.07-.71-.16-1.06-.26-2.13-.62-4.24-1.38-6.27-2.29-2.49-1.11-4.83-1.19-7.02.52-1.32 1.03-2.33 2.4-2.11 4.16.31 2.47.88 4.9 1.92 7.19.47 1.01.92 2.04 1.32 3.08.36.95.25 1.33-.6 1.76-.95.48-1.94.9-2.95 1.23-.99.32-1.56.03-1.91-.95-.43-1.23-1.29-2.04-2.38-2.64-1.56-.85-3.7-.69-4.88.38-1.34 1.21-1.38 2.75-.93 4.36.49 1.71 1.45 3.11 2.87 4.21.94.72 1.96.99 3.14.73 1.22-.26 1.38-.18 1.74 1.04.43 1.51.85 3.04 1.12 4.58.71 4.15 1.04 8.36 2.1 12.45.24.91.38 1.86.6 2.96 3.48-.06 6.87-.09 10.25-.2.27 0 .53-.01.8-.02.87-.03 1.72-.41 2.58-.63-.05-1.87-.15-3.54-.13-5.21.03-1.67.18-3.33.28-5.04-1.24-.21-2.54-.37-3.82-.66-1.07-.25-2.21-.39-3.15-1a2.9 2.9 0 0 1-.53-.41l.12-.42c.09.02.19.03.28.04.64.1 1.3.16 1.92.33 1.98.52 3.97.85 6.02.82 4.57-.06 7.43-2.18 8.51-6.58.55-2.26 1-4.6 1.06-6.91.11-4.31-.06-8.63-.22-12.95zM32.61 72.05c-.85-.11-1.38-.63-1.39-1.52 0-.68.13-1.37.24-2.38-.87.41-1.5.7-2.27 1.06-.08-1.15.76-2.01 1.88-2.04.97-.03 1.49.56 1.45 1.68-.03.65-.08 1.29-.12 2.12l2.21-.03c-.25.81-1 1.23-2 1.11zm15.32-15.5c1.32-.41 2.55.33 3.05 1.83-.87-.26-1.78-.79-2.6-.69-.82.1-1.56.84-2.33 1.3-.32-1.07.39-1.98 1.88-2.44zm1.56 8.91c-.38.67-1.24.64-1.36-.06-.16-.91-.06-1.88.04-2.81.03-.19.54-.47.82-.46.28.02.66.31.77.57.17.4.13.88.2 1.41-.14.42-.23.93-.47 1.35zm7.67 10.77c-1.08.13-2.14.17-3.14-.07-.76-.18-1.47-.52-2.14-1.1-.42.25-.78.47-1.34.8.07-1.3.78-1.88 1.67-2.7-.11 1.61.84 1.98 1.9 2.18l.14.03c.99.17 1.99.28 2.99.41-.03.15-.06.3-.08.45zm-1.96-4.62c-.29 0-.59-.01-.91-.06-.06 0-.11 0-.17-.02.01-.02.03-.04.04-.05.7-.95 1.71-.52 2.31-1.16-1.06-1.99-1.92-4.1-1.73-6.46.11-.03.23-.07.34-.1.32.99.59 1.99.95 2.96.09.27.19.54.3.8.51 1.18 1.2 2.27 1.88 3.53-1.05.25-1.97.54-3.01.56zm5.77-7.53c-.17.25-.61.55-.82.48-.32-.09-.7-.45-.76-.76-.13-.64-.15-1.32-.06-1.97.04-.32.39-.78.66-.84.3-.06.82.21.98.48.25.4.28.94.38 1.37-.14.48-.17.92-.38 1.24zm-.33-6.21c-1.05-.58-1.93-.44-2.71.45-.12.14-.32.21-.51.33-.1-1.13.47-1.97 1.46-2.27 1.1-.33 2.39.28 3.12 1.74-.63-.11-1.05-.09-1.36-.25z"/><path class="cls-5" d="M53.41 85.44c-.1 1.71-.25 3.37-.28 5.04-.02 1.67.08 3.34.13 5.21-.86.22-1.71.6-2.58.63-.27.01-.53.02-.8.02a60.865 60.865 0 0 1-3.44-12.56c.94.61 2.08.75 3.15 1 1.28.29 2.58.45 3.82.66zM63.82 70.65c-.06 2.31-.51 4.65-1.06 6.91-1.08 4.4-3.94 6.52-8.51 6.58-2.05.03-4.04-.3-6.02-.82-.62-.17-1.28-.23-1.92-.33 0-.02-.01-.04-.01-.06 2.64.74 5.47-1.06 6.73-3.49.53-1.03.83-2.14.99-3.28.05-.27.08-.55.09-.82.12-1.3.07-2.63-.04-3.93.03.02.06.05.09.07.04.02.08.05.13.07.28.14.6.15.91.06.63-.17 1.23-.73 1.4-1.39.29-1.07-.14-2.18-.49-3.23-.03-.09-.06-.18-.08-.27a28.009 28.009 0 0 1-1.1-12.69c2.67.54 5.33.22 8.07-.89.22 1.58.55 3.06.6 4.56.16 4.32.33 8.64.22 12.95z"/><path class="cls-4" d="m39.34 97.58 2.42 12.14s7.93 1.07 10.67.5c2.74-.57 3.08-.5 3.08-.5s-1.42-13.36-1.61-13.4-3.5.19-5.6.53-8.96.5-8.96.5"/><path class="cls-9" d="M74.02 101.97s-7.93-6.02-9.76-6.59-2.25-.82-2.25-.82l-8.11 3.03 2.61 12.14s14.86-4.67 17.51-7.75zM28.59 94.55l-10.58 5.67s9.08 6.5 14.25 8 9.5 2.58 9.5 2.58l-3.08-10.5"/><path d="M64.95 34.69c.59 1.95.41 3.82-.45 5.56-1.32.3-2.57-.16-3.83-.5-1.47-.4-2.92-.95-4.41-1.15-3.18-.42-6.18.13-8.73 2.28-1.2 1.01-1.6 1.86-1.62 3.45.38-.36.68-.6.91-.89 2.67-3.29 6.18-4.04 10.15-3.35.8.14 1.58.4 2.34.68 2.64.96 5.29 1.44 8.06.06.19 1.88-.24 3.54-.78 5.15-.11.32-.53.6-.87.78-1.03.55-2.13.6-3.26.4-.85-.15-1.7-.3-2.56-.38-.45-.04-.92.06-1.37.3 2.41.4 4.66 1.75 7.22.81-.39 1.98-.91 2.54-2.67 2.55-1 0-2.02-.17-2.99-.43-1.42-.39-2.78-.97-4.19-1.39-1.34-.4-2.71-.58-4.19-.2.17.23.22.35.27.36 2.23.02 4.25.85 6.31 1.59 1.55.56 3.18.93 4.81 1.39-.38.57-1.12.77-1.82.97-1.73.5-3.51.63-5.28.39-2.79-.39-5.43-1.2-7.86-2.7-2.69-1.65-6.02-1.31-8.37.71-1.05.9-1.56 2.1-1.94 3.51-.71-.31-1.33-.61-1.98-.85-1.83-.69-3.73-1.04-5.68-.93-.71.04-1.14-.17-1.54-.71-.81-1.08-1.37-2.26-1.58-3.59-.2-1.24-.02-2.42.71-3.49 1.13-1.65 2.5-3.01 4.4-3.87-1.46 2.03-1.82 4.25-1.29 6.64.25 1.14.22 1.15 1.13 2.04 0-.44.02-.75-.01-1.06-.1-1.11-.27-2.22-.32-3.33-.06-1.38.48-2.58 1.37-3.62 1.32-1.53 3.06-2.42 4.93-3.15-1.46 1.93-2.75 3.89-2.89 6.38-.07 1.21-.08 2.4.5 3.91.18-.57.3-.81.32-1.05.1-1.01.07-2.04.28-3.03 1-4.68 5.43-8.26 10.4-8.63 2.98-.22 5.88.21 8.79.68.85.14 1.71.26 2.57.3 2.64.14 5.04-.48 7.04-2.57z" style="fill:url(#_Безымянный_градиент_8);stroke-width:0"/><path d="M40.94 67.16c-1.24.51-2.34.96-3.53 1.45-.26-.46-.48-.79-.65-1.14-1.88-3.78-5.97-4.54-9.09-1.7-.11.1-.25.16-.41.26-1.13-1.71-1.73-3.59-1.9-5.58-.2-2.29.81-4.15 2.44-5.67.82-.77 1.85-.99 2.99-.78-.39 1.07-.83 2.07-1.11 3.11-.27 1-.45 2.05.48 3.01.05-.82 0-1.66.17-2.46.18-.88.44-1.78.86-2.57.6-1.14.81-1.15 2.22-.79-.65 2.07-1.2 4.14.18 6.14.01-1.98-.49-4 .77-6.05 1.02.32 2.06.65 3.27 1.03-.06 4.17 1.52 7.9 3.31 11.73z" style="fill:url(#_Безымянный_градиент_8-2);stroke-width:0"/><path class="cls-9" d="M36.46 85.27c1.38 7.39 2.67 14.35 3.97 21.32-.07.03-.14.07-.22.1-.17-.25-.36-.49-.5-.76-.68-1.3-1.32-2.63-2.01-3.92-.97-1.81-2.56-2.72-4.55-2.9-1.76-.16-3.53-.22-5.49-.33 2.19-5.01 4.88-9.45 8.79-13.51zM62.97 99.11q-5.42.57-7.43 4.43c-.86-5.44-1.51-10.72-1.3-16.33 4.53 2.97 6.34 7.51 8.73 11.9z"/><path class="cls-4" d="m29.2 99.53-1.87 1.89c1.64-.01 3.34-.02 4.84.64 1.18.52 2.15 1.41 3.07 2.3 1.84 1.77 3.59 3.63 5.26 5.57-.3-1.93-1.21-3.69-2.11-5.42-.68-1.31-1.4-2.66-2.59-3.53-1.61-1.18-3.75-1.25-5.74-1.28M55.96 105.7c.14-.94.28-1.89.64-2.77s.95-1.7 1.79-2.14c.86-.45 1.89-.46 2.83-.24s1.81.67 2.67 1.11c-1.43 1.21-3.34 1.93-4.29 3.55-.56.95-.69 2.09-.66 3.19.01.31.03.64-.15.9-.25.38-.79.42-1.25.38s-.96-.11-1.34.14c-.33-1.63-.28-3.34.15-4.94"/><path class="cls-9" d="M58.46 36.02c-1.11.45-2.32.7-3.5.82-.1.01-.2.02-.3.02-2.22.21-4.48.09-6.68.43-5.38.86-10.16 4.79-12.06 9.9 0 0-.01.01 0 .02-.04.08-.07.17-.1.25l-.28-2.14c-.15-2.64 1.4-5.2 3.57-6.73 2.16-1.54 4.85-2.17 7.49-2.34 2.65-.18 5.3.07 7.95.13 1.23.03 2.47.02 3.66-.29.08-.02.17-.05.25-.07z"/><path class="cls-9" d="M46.53 42.87c2.03-2.59 5.4-4.08 8.68-3.83 2.45.19 4.74 1.25 7.15 1.71 1.06.2 2.16.27 3.2.01s2.03-.89 2.54-1.84c.04 1.41.07 2.84-.22 4.23s-.94 2.74-2.06 3.61c-1.8 1.41-4.43 1.27-6.53.38 1.29-.17 2.62-.36 3.73-1.04s1.94-2 1.64-3.26c-1.87.94-4.12.65-6.13.06s-3.96-1.46-6.04-1.67-4.43.44-5.52 2.22M36.98 40.92c-1.55.43-3.02 1.14-4.33 2.08-.47.34-.93.72-1.27 1.2s-.55 1.06-.48 1.65c.3-1.93 1.24-3.75 2.64-5.11s3.24-2.25 5.18-2.5"/><path class="cls-9" d="M31.79 42.73c-2.12.54-3.83 2.42-4.19 4.57s.67 4.48 2.51 5.67c-.51.1-1.03-.14-1.4-.51s-.61-.83-.84-1.29c-.51-1-1.02-2.03-1.14-3.14-.16-1.6.53-3.2 1.61-4.39s2.5-2.02 3.96-2.68"/><path class="cls-1" d="M29.19 69.21c-.08-1.15.76-2.01 1.88-2.04.97-.03 1.49.56 1.45 1.68-.02.64-.07 1.29-.12 2.12l2.21-.03c-.25.81-1 1.23-2 1.1-.85-.11-1.39-.63-1.39-1.51 0-.68.13-1.37.24-2.38-.87.41-1.51.7-2.27 1.06zM54.12 71.53c.7-1.02 1.74-.56 2.35-1.21-1.06-1.99-1.91-4.1-1.73-6.46.12-.03.23-.07.35-.1.41 1.26.73 2.55 1.25 3.76.5 1.18 1.2 2.28 1.88 3.54-1.4.33-2.57.72-4.09.48zM49.96 64.1c-.14.42-.23.93-.47 1.35-.38.67-1.23.65-1.36-.06-.16-.91-.06-1.88.04-2.81.02-.19.54-.48.81-.46.28.02.67.3.78.57.17.4.13.88.19 1.41zM61.35 62.83c-.14.49-.17.92-.38 1.25-.16.25-.6.55-.82.48-.31-.09-.69-.46-.76-.77a5.87 5.87 0 0 1-.06-1.96c.04-.32.39-.78.67-.84.3-.06.81.2.98.48.25.4.27.94.37 1.37zM50.98 58.37c-.87-.25-1.77-.79-2.6-.69-.82.1-1.56.84-2.33 1.3-.31-1.07.4-1.98 1.89-2.44 1.32-.41 2.55.33 3.05 1.82zM57.16 76.23c-1.88.23-3.72.19-5.27-1.17-.42.25-.78.47-1.34.8.07-1.3.78-1.88 1.67-2.7-.11 1.68.92 2.02 2.04 2.21.99.17 1.99.28 2.99.42-.03.15-.06.3-.08.45zM62.01 58.11c-.63-.11-1.05-.08-1.36-.25-1.05-.57-1.93-.43-2.71.46-.12.14-.32.21-.51.33-.09-1.13.47-1.97 1.47-2.27 1.09-.33 2.39.28 3.12 1.74z"/><path class="cls-1" d="M14.14 32.81c2.12-2.13 4.45-4.05 6.93-5.75 2.47-1.71 5.13-3.16 7.89-4.38 5.53-2.42 11.55-3.81 17.65-3.95 3.05-.07 6.11.14 9.12.7.75.16 1.5.29 2.25.47.74.19 1.49.36 2.22.58.73.24 1.47.45 2.19.71.72.27 1.44.52 2.15.81 5.69 2.3 10.88 5.83 15.16 10.2 4.26 4.4 7.63 9.64 9.84 15.31 1.11 2.83 1.94 5.77 2.47 8.75.55 2.98.81 6.01.79 9.03a48.31 48.31 0 0 1-3.49 17.69 49.17 49.17 0 0 1-4.18 8.05 47.321 47.321 0 0 1-5.66 7.12c-4.23 4.36-9.32 7.96-14.96 10.35a46.193 46.193 0 0 1-17.89 3.73c-6.14.04-12.3-1.13-18.01-3.46-5.71-2.31-10.93-5.83-15.28-10.18-4.32-4.39-7.82-9.6-10.1-15.32C.92 77.55-.15 71.38.02 65.28c.15-6.1 1.55-12.13 3.97-17.66 1.23-2.76 2.67-5.42 4.39-7.89a47.72 47.72 0 0 1 5.76-6.93zm.17.17c-2.1 2.13-4 4.45-5.64 6.95-1.62 2.51-3.01 5.16-4.08 7.94-2.17 5.55-3.15 11.52-2.99 17.41.08 2.95.46 5.88 1.08 8.74.18.71.33 1.43.52 2.13.21.7.4 1.41.63 2.1.24.69.45 1.39.71 2.07.27.68.52 1.37.81 2.04 1.16 2.68 2.55 5.26 4.19 7.67 1.64 2.42 3.51 4.67 5.58 6.72 2.07 2.05 4.32 3.92 6.75 5.54 2.42 1.62 5 3 7.68 4.14a44.71 44.71 0 0 0 17.05 3.51c5.85.03 11.71-1.05 17.17-3.23a46.78 46.78 0 0 0 7.83-4.04 45.13 45.13 0 0 0 6.93-5.48c4.23-4.12 7.72-9.06 10.02-14.55a44.09 44.09 0 0 0 3.47-17.37c-.02-2.97-.35-5.94-.97-8.84-.63-2.9-1.55-5.73-2.74-8.43-2.36-5.42-5.81-10.32-10.02-14.41-2.1-2.05-4.4-3.89-6.83-5.52-2.44-1.62-5.03-3-7.73-4.15-.67-.29-1.36-.53-2.04-.8-.69-.26-1.39-.47-2.08-.7-.7-.23-1.41-.41-2.11-.62-.71-.19-1.43-.34-2.14-.52-2.87-.61-5.8-.99-8.75-1.06-5.89-.14-11.86.84-17.41 3.01-2.78 1.07-5.44 2.47-7.94 4.09-2.5 1.64-4.82 3.55-6.95 5.65z"/><path class="cls-1" d="M66.23 39.95c.59-.31 1.14-.6 1.89-.99.67 2.69.06 5.1-.67 7.49-.73 2.42-1.88 4.61-3.88 6.19 1.51 6.1 1.74 12.18 1.38 18.28-.14 2.37-.65 4.73-1.18 7.05-.98 4.33-3.82 6.67-8.19 7.2-.25.03-.5.07-.75.12-.1.02-.19.06-.31.1-.33.47-.2.84.31 1.08 3.02 1.4 4.83 3.96 6.41 6.73.37.66.83 1 1.57 1.27 1.81.64 3.61 1.35 5.31 2.25 1.88.99 3.64 2.21 5.45 3.35.43.27.87.56 1.2.93.19.21.17.61.24.93-.33.02-.68.12-.98.04-.33-.09-.6-.37-.9-.55-2.87-1.73-5.73-3.47-8.61-5.19-.55-.33-1.16-.56-2.08-.99.59 1.26 1.05 2.19 1.47 3.14.68 1.55.52 1.81-1.2 1.99-.96.1-1.93.13-2.88.26-1.33.18-2.23.95-2.67 2.21-.75 2.11-1.4 4.24-.96 6.54.1.51.35 1.12-.34 1.48-.71-.13-.61-.72-.67-1.19-.44-3.27-.88-6.54-1.33-9.81-.05-.34-.14-.68-.21-.98-4.42.42-8.74.84-13.27 1.28.05.41.1.88.18 1.35.5 2.9 1.01 5.8 1.51 8.7.03.2.14.42.09.6-.1.35-.29.67-.44 1.01-.23-.22-.55-.41-.68-.68-.94-1.97-1.84-3.96-2.77-5.94-.37-.78-.82-1.52-1.21-2.29-.85-1.69-2.24-2.6-4.1-2.78-1.52-.14-3.04-.21-4.56-.3-.35-.02-.72.03-1.06-.03-.83-.14-1.04-.49-.75-1.28.2-.52.47-1.01.71-1.52.24-.5.47-1 .82-1.75-.5.17-.82.23-1.1.37-2.72 1.47-5.44 2.95-8.16 4.43-.49.27-.97.56-1.48.77-.17.07-.54-.05-.64-.2-.09-.14-.02-.48.1-.66.13-.2.38-.33.59-.47 3.26-2.2 6.65-4.13 10.41-5.32.78-.25 1.3-.66 1.71-1.37.74-1.27 1.51-2.55 2.43-3.69 1.33-1.65 2.8-3.19 4.47-5.07-.46-2.19-.99-4.76-1.5-7.19-.31-.13-.41-.22-.49-.2-1.92.51-3.5-.15-4.87-1.45-2.34-2.22-3.44-4.86-2.73-8.08-3.25-4.39-3.79-10.01 1.04-13.76-.2-.32-.46-.63-.61-.98-.48-1.11-1.02-2.21-1.35-3.36-.49-1.72-.04-3.31 1.01-4.74 2.04-2.79 4.86-4.4 8.07-5.45.43-.14.86-.27 1.28-.43 2.46-.94 4.88-2.03 7.4-2.79 1.53-.47 3.2-.63 4.81-.6 2.28.04 4.55.37 6.83.58 2.02.19 4.03.54 6.05-.11 1.14-.36 2.16-.82 2.89-1.84.55-.78 1.1-.76 1.48.08.37.81.63 1.73.69 2.61.07 1.15-.1 2.31-.18 3.66zM45.91 83.37c.04-.14.08-.28.12-.43.74.12 1.49.18 2.2.37 1.98.53 3.97.85 6.02.82 4.57-.06 7.42-2.18 8.5-6.59.55-2.26 1.01-4.59 1.06-6.91.11-4.31-.07-8.63-.22-12.95-.05-1.5-.39-2.98-.61-4.56-3.09 1.25-6.11 1.49-9.12.62-2.13-.61-4.24-1.38-6.27-2.28-2.49-1.12-4.84-1.19-7.03.52-1.31 1.03-2.33 2.4-2.11 4.16.31 2.47.88 4.9 1.92 7.19.46 1.02.92 2.04 1.32 3.08.36.95.25 1.33-.6 1.76-.95.48-1.94.9-2.95 1.23-1 .33-1.57.04-1.91-.94-.43-1.23-1.3-2.04-2.38-2.64-1.56-.85-3.7-.69-4.88.38-1.34 1.21-1.38 2.75-.93 4.36.49 1.72 1.45 3.12 2.87 4.21.94.73 1.96.99 3.14.74 1.22-.26 1.38-.19 1.73 1.04.44 1.51.85 3.04 1.12 4.58.71 4.15 1.05 8.35 2.11 12.44.24.92.38 1.86.6 2.97 3.75-.06 7.4-.09 11.05-.22.87-.03 1.73-.41 2.59-.63-.05-1.87-.15-3.55-.13-5.22.02-1.66.18-3.32.28-5.04-1.24-.21-2.55-.36-3.82-.66-1.29-.3-2.67-.44-3.69-1.41zm19.04-48.68c-2.01 2.09-4.4 2.72-7.04 2.57-.86-.05-1.72-.17-2.57-.3-2.91-.47-5.81-.9-8.79-.68-4.97.37-9.4 3.95-10.4 8.63-.21.98-.18 2.02-.28 3.03-.03.25-.14.48-.32 1.05-.58-1.5-.57-2.7-.5-3.91.14-2.49 1.43-4.46 2.89-6.38-1.87.73-3.6 1.62-4.93 3.15-.9 1.04-1.43 2.24-1.37 3.62.04 1.11.22 2.22.32 3.33.03.31 0 .62.01 1.06-.91-.89-.87-.9-1.13-2.04-.53-2.39-.17-4.6 1.29-6.64-1.9.86-3.27 2.22-4.4 3.87-.74 1.08-.91 2.25-.71 3.49.21 1.33.77 2.51 1.58 3.59.4.53.83.75 1.54.71 1.95-.1 3.85.24 5.68.93.65.24 1.27.55 1.98.85.38-1.41.89-2.61 1.94-3.51 2.35-2.03 5.68-2.36 8.37-.71 2.43 1.49 5.07 2.31 7.86 2.7 1.78.25 3.56.12 5.28-.39.7-.2 1.45-.41 1.82-.97-1.63-.46-3.25-.83-4.81-1.39-2.06-.74-4.07-1.58-6.31-1.59-.05 0-.1-.13-.27-.36 1.49-.38 2.86-.2 4.19.2 1.41.42 2.77 1 4.19 1.39.96.26 1.99.44 2.99.43 1.76 0 2.28-.56 2.67-2.55-2.56.94-4.81-.41-7.22-.81.45-.24.92-.34 1.37-.3.86.08 1.71.23 2.56.38 1.13.2 2.24.15 3.26-.4.34-.18.76-.45.87-.78.55-1.62.98-3.27.78-5.15-2.78 1.39-5.42.91-8.06-.06-.76-.28-1.54-.54-2.34-.68-3.97-.69-7.48.06-10.15 3.35-.23.29-.54.52-.91.89.02-1.58.42-2.44 1.62-3.45 2.54-2.15 5.54-2.7 8.73-2.28 1.5.2 2.94.75 4.41 1.15 1.27.34 2.52.8 3.83.5.87-1.74 1.04-3.61.45-5.56zM40.94 67.16c-1.79-3.83-3.37-7.56-3.31-11.73-1.21-.38-2.24-.71-3.27-1.03-1.26 2.05-.76 4.07-.77 6.05-1.37-2-.82-4.07-.18-6.14-1.41-.36-1.62-.35-2.22.79-.42.79-.68 1.69-.86 2.57-.16.8-.12 1.64-.17 2.46-.94-.96-.75-2.02-.48-3.01.28-1.04.72-2.04 1.11-3.11-1.13-.2-2.16.01-2.99.78-1.63 1.52-2.64 3.39-2.44 5.67.17 1.99.77 3.87 1.9 5.58.16-.1.3-.16.41-.26 3.12-2.84 7.21-2.08 9.09 1.7.17.35.39.68.65 1.14 1.19-.49 2.29-.94 3.53-1.45zm-4.48 18.11c-3.91 4.06-6.6 8.5-8.79 13.51 1.96.11 3.73.17 5.49.33 1.99.18 3.58 1.09 4.55 2.9.69 1.3 1.34 2.62 2.01 3.92.14.27.33.51.5.76.07-.03.14-.07.22-.1-1.3-6.96-2.59-13.93-3.97-21.32zm26.51 13.84c-2.39-4.39-4.2-8.93-8.73-11.9-.2 5.61.44 10.89 1.3 16.33q2.01-3.85 7.43-4.43zm-9.56-2.61c-4.55 1.58-9.1.5-13.64.95.12.54.22 1.01.32 1.44 2.53.19 12.17-.69 13.39-1.21-.02-.33-.04-.68-.06-1.17z"/></g><g><path class="cls-9" d="M84.89 78.8c3.86-1.13 7.41-2.85 10.65-5.18.98-.7 1.9-1.53 2.7-2.43.75-.85.49-1.33-.64-1.46-.55-.06-1.12-.04-1.67-.07-2.64-.12-5.28-.18-7.91-.38-3.88-.3-6.71-2.55-7.76-6.28-.5-1.79-.81-3.68-.9-5.54-.25-5.09.17-10.15 1.07-15.17.76-4.23 3.24-7.02 7.22-8.52 2.96-1.12 6.06-1.78 9.18-2.13 4.94-.56 9.9-1.14 14.86-1.28 9.24-.25 18.49-.35 27.73-.19 8.23.14 16.46.58 24.63 1.67 3.08.41 6.06 1.22 8.9 2.54 3.21 1.5 4.75 4.05 4.76 7.51.02 6.35-.98 12.54-3.02 18.55-.34 1-.82 1.97-1.35 2.89-1.4 2.44-3.56 3.94-6.28 4.41-3.2.55-6.42 1-9.66 1.22-7.09.47-14.19.81-21.29 1.12-2.64.12-5.28-.03-7.92.01-4.57.07-9.14.19-13.7.29-.25 0-.55.08-.75-.02-.64-.34-1.02.02-1.48.39-6.17 5.02-13.28 7.75-21.15 8.53-2.06.2-4.14 0-6.21-.49zm24.04-34.04c-.2.03-.77-.03-1.19.19-1.73.9-3.27 2.08-4.31 3.73-.88 1.39-.14 3.06 1.47 3.47.62.16 1.32.15 1.96.05 1.59-.24 3.01-.91 4.23-1.96 1.01-.88 1.95-1.86 1.56-3.38-.31-1.21-1.66-1.99-3.71-2.1zm14.96 7.52c2.65-.1 4.88-1.21 6.44-3.52.77-1.13.6-2.26-.33-3.34-.88-1.02-1.89-1.28-3.13-.83-.52.19-1.05.37-1.57.55-1.78.62-3.27 1.66-4.21 3.32-.91 1.62-.18 3.2 1.62 3.63.34.08.7.12 1.18.19zm35.64-1c2.12-.05 3.95-.66 5.51-2.03 1.13-1 1.37-2.27.74-3.42-.67-1.21-2.22-1.95-3.5-1.53-1.19.39-2.4.83-3.47 1.47-.85.5-1.61 1.25-2.2 2.04-.74.99-.44 2.12.66 2.7.69.37 1.51.52 2.27.76zm-17.79.59c2.23-.06 4.11-1.12 5.5-3.02.87-1.18.74-2.54-.21-3.62-.79-.9-1.85-1.06-3.18-.47-.78.35-1.59.67-2.33 1.09-.65.37-1.29.81-1.82 1.34-.83.82-1.31 1.84-.83 3.03.48 1.19 1.55 1.5 2.87 1.65z"/><path class="cls-2" d="M109 46.04c.97.23 1.91.28 2.23 1.14.35.93-.43 1.5-1.04 2.01-1.15.96-2.48 1.62-3.99 1.67-.54.02-1.28-.18-1.6-.55-.49-.58-.08-1.3.42-1.75.86-.78 1.76-1.52 2.71-2.18.38-.26.95-.26 1.28-.33zM123.96 50.86c-.41-.06-.72-.07-1-.16-.84-.25-1.09-.79-.79-1.64.66-1.87 3.75-3.72 5.65-3.38 1.19.21 1.83 1.57 1.11 2.53-1.26 1.68-2.98 2.52-4.97 2.65zM159.53 49.7c-.62-.15-1.59.1-1.87-.8-.24-.76.53-1.24.99-1.75.96-1.09 2.25-1.52 3.64-1.62.52-.04 1.11.13 1.57.39.95.54 1.04 1.52.22 2.26-1.25 1.13-2.75 1.65-4.54 1.53zM141.47 50.47c-.33-.22-1.08-.45-1.29-.92-.18-.4.12-1.18.45-1.62.95-1.25 2.24-2.04 3.82-2.26.77-.11 1.38.12 1.77.86.37.72.08 1.28-.38 1.79-1.08 1.22-2.39 2-4.37 2.14z"/><path class="cls-1" d="M79.6 78.02c2.83-.52 5.65-1.06 8.28-2.27 2.57-1.18 5.08-2.46 7.53-4.43-.83-.05-1.36-.07-1.89-.11-2.38-.17-4.79-.17-7.13-.56-3.46-.58-5.81-2.75-7.25-5.91-.9-1.97-1.24-4.09-1.37-6.21-.33-5.65.03-11.27 1.14-16.83 1-5.03 4.12-8.23 8.9-9.67 3.24-.98 6.6-1.67 9.95-2.18 6.63-1.02 13.34-1.32 20.04-1.39 5.64-.06 11.28.04 16.92.04 9.36 0 18.69.55 28 1.48 3.59.36 7.11 1.18 10.43 2.69 4.49 2.04 6.47 5.19 6.34 10.11-.17 6.02-.97 11.94-2.91 17.67-.26.77-.56 1.53-.89 2.26-1.69 3.73-4.52 6.15-8.56 6.85-3.29.57-6.63.99-9.97 1.2-7.65.47-15.31.88-22.98 1.1-5.33.16-10.67 0-16-.06-1.22-.01-2.43-.16-3.64-.31-.55-.07-.92.04-1.37.4-6.22 5.13-13.44 7.97-21.38 8.79-3.69.38-7.42 0-10.92-1.51-.45-.19-.87-.43-1.31-.65l.04-.49zm5.29.78c2.07.49 4.15.69 6.21.49 7.87-.78 14.98-3.51 21.15-8.53.45-.37.84-.73 1.48-.39.2.11.5.03.75.02 4.57-.1 9.13-.22 13.7-.29 2.64-.04 5.29.11 7.92-.01 7.1-.31 14.2-.65 21.29-1.12 3.23-.22 6.46-.67 9.66-1.22 2.73-.47 4.88-1.97 6.28-4.41.53-.92 1.01-1.89 1.35-2.89a56.564 56.564 0 0 0 3.02-18.55c-.01-3.46-1.55-6-4.76-7.51-2.84-1.33-5.82-2.13-8.9-2.54-8.17-1.09-16.4-1.52-24.63-1.67-9.24-.16-18.49-.06-27.73.19-4.96.13-9.92.72-14.86 1.28-3.12.35-6.22 1.02-9.18 2.13-3.98 1.5-6.45 4.29-7.22 8.52-.9 5.02-1.32 10.08-1.07 15.17.09 1.86.4 3.75.9 5.54 1.05 3.73 3.88 5.97 7.76 6.28 2.63.21 5.27.26 7.91.38.56.03 1.12 0 1.67.07 1.13.13 1.39.62.64 1.46-.8.9-1.72 1.73-2.7 2.43a35.106 35.106 0 0 1-10.65 5.18z"/><path class="cls-1" d="M108.93 44.76c2.05.11 3.39.89 3.71 2.1.39 1.52-.54 2.5-1.56 3.38-1.21 1.05-2.64 1.73-4.23 1.96-.64.1-1.34.1-1.96-.05-1.61-.41-2.36-2.07-1.47-3.47 1.04-1.65 2.59-2.83 4.31-3.73.42-.22.98-.16 1.19-.19zm.07 1.28c-.33.08-.89.07-1.28.33-.95.66-1.86 1.4-2.71 2.18-.5.45-.91 1.17-.42 1.75.32.38 1.06.57 1.6.55 1.52-.05 2.84-.71 3.99-1.67.61-.51 1.39-1.08 1.04-2.01-.32-.86-1.26-.91-2.23-1.14zM123.89 52.28c-.48-.08-.83-.11-1.18-.19-1.8-.43-2.54-2.01-1.62-3.63.94-1.66 2.42-2.69 4.21-3.32.52-.18 1.05-.36 1.57-.55 1.25-.46 2.26-.19 3.13.83.93 1.09 1.1 2.21.33 3.34-1.56 2.31-3.8 3.42-6.44 3.52zm.07-1.42c1.99-.13 3.71-.98 4.97-2.65.72-.96.09-2.32-1.11-2.53-1.9-.34-4.99 1.51-5.65 3.38-.3.85-.05 1.39.79 1.64.29.09.6.1 1 .16zM159.53 51.28c-.76-.25-1.58-.39-2.27-.76-1.1-.59-1.4-1.71-.66-2.7.59-.79 1.36-1.54 2.2-2.04 1.07-.64 2.28-1.07 3.47-1.47 1.28-.42 2.83.32 3.5 1.53.63 1.14.39 2.42-.74 3.42-1.55 1.37-3.39 1.98-5.51 2.03zm0-1.58c1.79.12 3.29-.4 4.54-1.53.82-.74.73-1.72-.22-2.26-.46-.26-1.05-.42-1.57-.39-1.39.1-2.67.53-3.64 1.62-.46.52-1.22.99-.99 1.75.28.9 1.25.65 1.87.8zM141.74 51.87c-1.32-.16-2.4-.46-2.87-1.65-.47-1.18 0-2.2.83-3.03.53-.53 1.17-.96 1.82-1.34.74-.43 1.54-.74 2.33-1.09 1.33-.59 2.39-.43 3.18.47.95 1.08 1.08 2.44.21 3.62-1.39 1.9-3.27 2.96-5.5 3.02zm-.27-1.4c1.97-.14 3.28-.92 4.37-2.14.46-.51.75-1.07.38-1.79-.38-.74-.99-.97-1.77-.86-1.58.22-2.87 1.01-3.82 2.26-.33.43-.63 1.21-.45 1.62.21.47.96.7 1.29.92z"/></g></g></g></svg>