<?xml version="1.0" encoding="UTF-8"?>
<svg id="Layer_2" data-name="Layer 2" xmlns="http://www.w3.org/2000/svg" xmlns:xlink="http://www.w3.org/1999/xlink" viewBox="0 0 202.15 195.73">
  <defs>
    <style>
      .cls-1 {
        fill: url(#_Безымянный_градиент_10-2);
      }

      .cls-1, .cls-2, .cls-3, .cls-4, .cls-5, .cls-6, .cls-7, .cls-8, .cls-9, .cls-10, .cls-11 {
        stroke-width: 0px;
      }

      .cls-2 {
        fill: #000;
      }

      .cls-3 {
        fill: #76b82a;
      }

      .cls-4 {
        fill: url(#_Безымянный_градиент_16);
      }

      .cls-5 {
        fill: url(#_Безымянный_градиент_10);
      }

      .cls-6 {
        fill: url(#_Безымянный_градиент_14);
      }

      .cls-7 {
        fill: url(#_Безымянный_градиент_10-3);
      }

      .cls-8 {
        fill: #ee882c;
      }

      .cls-9 {
        fill: #fff;
      }

      .cls-10 {
        fill: #ffed00;
      }

      .cls-11 {
        fill: url(#_Безымянный_градиент_10-4);
      }
    </style>
    <linearGradient id="_Безымянный_градиент_14" data-name="Безымянный градиент 14" x1=".25" y1="97.58" x2="191.23" y2="97.58" gradientUnits="userSpaceOnUse">
      <stop offset="0" stop-color="#76b82a"/>
      <stop offset=".58" stop-color="#5b8d2b"/>
      <stop offset="1" stop-color="#4c742c"/>
    </linearGradient>
    <linearGradient id="_Безымянный_градиент_10" data-name="Безымянный градиент 10" x1="82.74" y1="95.57" x2="82.74" y2="64.26" gradientUnits="userSpaceOnUse">
      <stop offset="0" stop-color="#ffed00"/>
      <stop offset=".09" stop-color="#fde204"/>
      <stop offset=".71" stop-color="#f2a120"/>
      <stop offset="1" stop-color="#ee882c"/>
    </linearGradient>
    <linearGradient id="_Безымянный_градиент_10-2" data-name="Безымянный градиент 10" x1="81.51" y1="74.8" x2="81.51" y2="33.08" xlink:href="#_Безымянный_градиент_10"/>
    <linearGradient id="_Безымянный_градиент_16" data-name="Безымянный градиент 16" x1="82.64" y1="113.79" x2="82.64" y2="81.44" gradientUnits="userSpaceOnUse">
      <stop offset="0" stop-color="#ffed00"/>
      <stop offset=".13" stop-color="#fbd709"/>
      <stop offset=".38" stop-color="#f5b418"/>
      <stop offset=".61" stop-color="#f19c23"/>
      <stop offset=".83" stop-color="#ee8d29"/>
      <stop offset="1" stop-color="#ee882c"/>
    </linearGradient>
    <linearGradient id="_Безымянный_градиент_10-3" data-name="Безымянный градиент 10" x1="82.49" y1="37.08" x2="82.49" y2="27.16" xlink:href="#_Безымянный_градиент_10"/>
    <linearGradient id="_Безымянный_градиент_10-4" data-name="Безымянный градиент 10" x1="76.67" y1="25.71" x2="87.33" y2="25.71" xlink:href="#_Безымянный_градиент_10"/>
  </defs>
  <g id="_Наведение" data-name="Наведение">
    <g id="_6" data-name="6">
      <path class="cls-6" d="M191.23,97.58c0,52.74-42.75,95.49-95.49,95.49-14.05,0-27.38-3.03-39.4-8.48-6.72-3.04-13.01-6.84-18.78-11.29h-.02c-1.42-1.1-2.8-2.24-4.15-3.4-8.14-7.02-15.08-15.39-20.47-24.76C4.86,131.13.25,114.89.25,97.58.25,44.84,43.01,2.08,95.75,2.08c39.82,0,73.95,24.38,88.28,59.03,4.64,11.24,7.21,23.55,7.21,36.47Z"/>
      <path class="cls-2" d="M0,97.58c-.02-6.27.58-12.53,1.75-18.7,1.12-6.17,2.91-12.22,5.17-18.09,4.58-11.72,11.41-22.64,20.19-31.84,4.39-4.59,9.21-8.81,14.48-12.42,1.33-.87,2.65-1.78,4-2.63,1.38-.81,2.73-1.66,4.13-2.43,1.42-.73,2.82-1.5,4.27-2.19,1.46-.66,2.89-1.37,4.37-1.97C70.13,2.31,82.98-.13,95.74,0c12.77.2,25.46,2.97,37.08,8.05,5.81,2.54,11.36,5.65,16.54,9.26,5.2,3.59,10.05,7.67,14.47,12.16,8.86,8.97,16,19.61,20.92,31.22,2.45,5.81,4.36,11.85,5.7,18.03,1.32,6.18,2.04,12.5,2.14,18.84.2,12.67-2,25.47-6.8,37.31-4.74,11.85-11.86,22.78-20.88,31.88-9,9.12-19.8,16.46-31.64,21.45-11.83,5.02-24.71,7.51-37.54,7.52-12.83-.09-25.69-2.62-37.47-7.7-11.8-5.01-22.47-12.54-31.22-21.77-8.77-9.22-15.59-20.15-20.18-31.88-2.26-5.87-4.04-11.93-5.16-18.1C.56,110.11-.03,103.85,0,97.58ZM.5,97.58c.05,6.23.67,12.46,1.94,18.56,1.31,6.08,3.17,12.05,5.69,17.73,4.98,11.38,12.34,21.61,21.24,30.07,4.46,4.23,9.34,7.98,14.48,11.29,1.31.79,2.59,1.62,3.92,2.37,1.35.72,2.66,1.49,4.03,2.18,1.37.67,2.72,1.38,4.11,2.01,1.4.6,2.78,1.25,4.2,1.8,5.66,2.25,11.52,3.99,17.49,5.14,5.97,1.15,12.05,1.7,18.13,1.68,6.08-.03,12.15-.6,18.11-1.78,5.96-1.18,11.8-2.95,17.43-5.22,11.27-4.57,21.63-11.4,30.31-19.97,8.66-8.58,15.72-18.82,20.54-30.07,2.4-5.63,4.27-11.49,5.59-17.49,1.3-6,2.02-12.14,2.14-18.3.17-12.31-1.98-24.74-6.67-36.22-4.64-11.49-11.68-22.01-20.5-30.73-4.42-4.35-9.28-8.23-14.47-11.6-5.21-3.34-10.73-6.16-16.47-8.4-11.47-4.51-23.78-6.66-36.01-6.46-6.12.06-12.21.76-18.2,1.93-5.98,1.2-11.84,3-17.5,5.27-1.42.56-2.8,1.22-4.2,1.83-1.39.63-2.73,1.36-4.11,2.03-1.36.69-2.68,1.47-4.02,2.2-1.32.76-2.61,1.6-3.92,2.39-5.13,3.34-10.01,7.1-14.47,11.34-8.89,8.49-16.25,18.73-21.23,30.11-2.53,5.68-4.38,11.65-5.68,17.74-1.27,6.1-1.88,12.33-1.92,18.57Z"/>
      <g>
        <path class="cls-5" d="M128.99,79.77c-1.19.8-2.28,1.63-3.45,2.32-.1.06-.19.11-.29.17-6.77,3.93-13.63,7.63-21.23,9.75-6.23,1.73-12.57,2.77-19.03,3.29-7.5.6-14.93.21-22.29-1.29-5.85-1.18-11.43-3.16-16.68-6.06-2.41-1.33-4.55-3-6.59-4.81-.63-.54-1.24-1.1-1.85-1.67-.25-.22-.5-.56-.53-.87-.22-2.17-.39-4.35-.57-6.52-.01-.08.07-.16.14-.3.12.07.28.11.35.21.65.87,1.37,1.65,2.15,2.35,1.57,1.44,3.37,2.58,5.33,3.52,5.93,2.86,12.21,4.43,18.74,5,2.37.2,4.76.27,7.15.3.97.01,1.95-.24,2.93-.37,0-.13-.01-.26-.01-.39-1.26-.15-2.52-.34-3.78-.44-4.77-.36-9.52-.75-14.19-1.83-4.33-1-8.5-2.42-12.38-4.6-1.27-.71-2.41-1.56-3.44-2.55-.08-.08-.17-.16-.25-.24-.7-.69-1.35-1.45-1.95-2.25-.54-.73-.65-1.4-.34-2.26.79-2.17,2.21-3.81,4.26-5.43.01,0,.02-.01.03-.02.04.04.07.08.1.12h.02c.79.88,1.45,1.73,2.24,2.43,1.1.98,2.25,1.86,3.44,2.65.11.08.21.15.32.22l.03.02c3.91,2.52,8.28,4.07,12.99,4.87,8.57,1.46,17.19,1.74,25.81.58,7.68-1.03,15.13-3.08,22.33-5.91,2.93-1.16,5.78-2.52,8.63-3.85.78-.37,1.56-.73,2.34-1.09.36-.16.72-.34,1.2-.56,1.75,1.55,3.96,2.61,5.22,4.57-.18,2.09-1.4,3.31-2.85,4.39-.05.04-.11.08-.16.12-3.58,2.63-7.66,4.14-11.86,5.38-5.96,1.77-12.05,2.9-18.2,3.69-4.43.57-8.89.85-13.34,1.27-.59.06-1.18.17-1.77.25-.02.11-.03.22-.05.34.33.1.65.24.99.29,3.14.45,6.31.26,9.43-.05,8.14-.83,16.22-2.1,24.07-4.5,4.08-1.25,7.97-2.87,11.41-5.45.11-.08.21-.16.32-.24,1.3-1,2.46-2.12,3.1-3.99,1.99,3.02,1.62,6.27,2.01,9.44Z"/>
        <path class="cls-10" d="M178.02,155.78c7.57,4.23,15.09,8.55,22.67,12.85.36-.89.27-1.41-.53-1.76-.69-.3-1.35-.71-2.01-1.09-7.09-4.07-14.18-8.15-21.26-12.24-.33-.19-.63-.43-.94-.64.06-.1.11-.2.17-.3,2.11.9,4.07,2.13,6.11,3.17,2.08,1.07,4.14,2.17,6.2,3.27,2.06,1.11,4.11,2.23,6.16,3.35,2.03,1.11,3.94,2.46,6.22,3.52-.03-1.27-.17-2.32-.77-3.14-.28-.4-.68-.74-1.22-1.02-1.8-.94-3.51-2.06-5.28-3.06-12.2-6.91-24.22-14.13-36.02-21.71-2.17-1.4-2.22-1.43-1.55-3.94.51-1.91,1.15-3.79,1.8-5.66.55-1.58.31-2.96-.65-4.31-1.28-1.82-2.91-3.26-4.75-4.46-2.13-1.39-4.27-2.76-6.49-3.99-1.68-.93-3.47-1.68-5.25-2.43-1.11-.47-2.25-.47-3.35.35.75,1.77,1.61,3.49,2.28,5.27.38,1.01.7,2.05.91,3.12-.76-.94-1.36-1.96-1.9-3.02-.8-1.61-1.44-3.32-2.17-5.03-.78.6-1.44,1.11-2.03,1.56.59,1.33,1.17,2.65,1.74,3.95,1.31,2.96,2.59,5.86,3.87,8.76.13.28.24.57.34.85.02.03-.02.09-.05.12-.03.02-.08.03-.33.1-1.56-3.17-3.13-6.35-4.71-9.58-.57-1.16-1.15-2.32-1.72-3.49-2.42,2.13-4.71,4.38-6.9,6.73-2.1,2.24-4.11,4.57-6.1,6.98-1.3,1.59-2.59,3.2-3.88,4.85,1.02.1,2.01.19,2.98.23,3.03.14,5.84-.15,8.44-1.94-.08-1.77.35-3.24,1.7-4.3.45-.36.42-.77.32-1.23-.25-1.09-.51-2.17-.74-3.26-.06-.26-.01-.54-.01-1.09.9.8.96,1.68,1.23,2.45.3.85.55,1.71.81,2.56.55-.07.93-.11,1.41-.17-.17-.65-.38-1.18-.43-1.72-.05-.55-.54-1.1-.02-1.88.79,1.03,1.06,2.15,1.4,3.22.19.61.47,1.05.98,1.47,1.89,1.58,2.07,3.89.51,5.63-1.64,1.83-4.03,1.96-5.81.29-.29-.27-.5-.62-.76-.96-1.79,1.22-3.58,1.92-5.55,1.98-1.41.04-2.82.05-4.23.02-.56-.02-1.13-.05-1.69-.08-.92-.06-1.55.09-2.01.92-.34.62-.81,1.17-1.21,1.75-1.11,1.61-1.17,2.74,0,4.33.72.97,1.6,1.84,2.52,2.64,4.67,4.1,9.79,7.6,14.92,11.09.73.5,1.63.8,2.5,1.06.7.22,1.41.1,1.85-.62-.24-.32-.51-.74-.79-1.23-1.72-2.9-4.06-8.21-3.88-9.28,1.85,2.82,3.03,5.86,4.61,8.76.24.41.47.83.72,1.24.5-.56.92-1.02,1.29-1.44.02-.02.04-.05.06-.07-.07-.16-.14-.32-.22-.47-.1-.21-.19-.41-.28-.62-.6-1.3-1.16-2.53-1.26-3.96.1.08.19.16.27.25.81.81,1.23,1.88,1.83,2.88.18.3.37.59.6.87.13-.17.25-.33.37-.5.92-1.24,1.77-2.39,2.64-3.52.92-1.17,1.12-1.26,2.44-.62,2.32,1.13,4.69,2.22,6.87,3.6.84.53,1.56.82,2.25.75.56-.06,1.11-.35,1.69-.96.65-.68,1.47-.65,2.21-.08.68.53,1.4,1.04,1.96,1.68.65.74,1.29.82,2.15.47.94-.38,1.94-.61,2.87-1.01,1.12-.48,1.84-.02,2.43.91.33.51.53,1.1.73,1.67.3.87.51,1.76.83,2.62.42,1.15.55,1.25,1.79,1.2,1.82-.08,3.66-.16,5.47-.36,1.94-.21,2.86-.34,3.51,2.68.07.34.11.7.17,1.05.19,1.14.38,2.27.59,3.53.99-.09,1.84-.14,2.69-.25,1.31-.16,2.61-.42,3.92-.53,2.06-.18,2.69.22,3.49,2.16.38.93.65,1.9,1.01,2.98,3.05-.23,6.05-.45,9.39-.7-.5-.36-.67-.52-.88-.64-8.79-4.99-17.6-9.95-26.38-14.97-5.51-3.15-10.98-6.38-16.46-9.59-.44-.25-.85-.58-1.27-.87.08-.12.16-.24.23-.36,7.88,3.52,15.12,8.22,22.62,12.41ZM154.57,142.51c-.13.17-.38.26-.65.43.28-1.98,1.11-2.57,2.72-1.97.89.34,1.78.73,2.61,1.21,4.54,2.67,9.07,5.37,13.59,8.06.26.15.47.36.71.54-.06.09-.12.18-.17.27-1.47-.75-2.96-1.48-4.41-2.27-3.24-1.78-6.46-3.59-9.7-5.37-.84-.46-1.73-.85-2.58-1.3-.83-.45-1.53-.4-2.12.4Z"/>
        <polyline class="cls-9" points="132.63 118.79 139.94 128.22 134.97 117.38"/>
        <polyline class="cls-9" points="137.1 117.2 140.27 120.66 138.82 117.01"/>
        <path class="cls-3" d="M108.23,122.96c-1.23-.72-2.3-.53-3.25.55-.9,1.03-1.34,2.18-.82,3.51.2.49.53,1.18.95,1.3,1.41.42,2,1.64,2.89,2.57,1.32,1.39,2.94,2.33,4.71,3.02.47.18.95.33,1.59.56-.26.41-.47.79-.71,1.15-.66,1.01-1.41,1.99-2,3.05-1.13,2.01-1.03,4,.35,5.86.59.81,1.27,1.56,2.04,2.48-4.25,1.43-8.37,2.82-12.49,4.2-11.08,3.7-22.17,7.32-33.45,10.35-7.39,1.97-14.78,3.93-22.18,5.87-3.36.88-6.71,1.75-10.07,2.62-2.16.55-4.39.84-6.6,1.12-2.99.38-6.74-1.82-8.22-4.81-.72-1.45-1.32-2.97-1.82-4.51-2.46-7.61-4.16-15.39-4.87-23.36-.14-1.6,0-3.26.24-4.85.36-2.36,1.69-4.12,3.9-5.1,1.11-.49,2.27-.89,3.44-1.23,15.55-4.53,31.2-8.69,47.05-12.05,7.75-1.64,15.53-3.14,23.32-4.58,3.44-.64,6.95-.92,10.47-.51,2.91.33,5.18,1.74,6.69,4.24.79,1.3,1.45,2.69,2.02,4.09,1.75,4.29,3.31,8.63,4.2,13.19.13.68.1,1.2-.53,1.68-.31-.07-.62-.14-.91-.22-3.11-.82-5.22-2.25-6.43-4.38.24-.15.5-.3.74-.47,1.9-1.34,1.77-4.16-.25-5.34Z"/>
        <path class="cls-1" d="M116.46,46.54c-.51.06-.88.11-1.42.18.2-.54.33-.9.49-1.33-4.18-6.21-21.43-12.77-25.67-11.89-.04.52-.14.99-.3,1.41-.6,1.7-2.04,2.71-3.86,3.22-2.4.68-4.84.5-7.2-.37-.98-.36-1.79-.96-2.26-1.92-.1-.2-.19-.39-.28-.59-.34-.71-.68-1.43-1.02-2.17-1.84.4-3.69.74-5.51,1.19-3.05.76-6.15,1.4-9.11,2.42-5.45,1.88-9.89,5.15-12.86,10.2-.27.48-.51.97-.78,1.47,1.06,1.52,2.37,2.63,3.84,3.56.19.12.39.24.59.35,2.6,1.58,5.37,2.8,8.3,3.58,7.78,2.06,15.69,2.72,23.72,1.94.85-.09,1.71-.11,2.64-.17.13.49.23.9.33,1.3-.27.1-.41.17-.55.2-.2.05-.4.08-.6.1-6.71.78-13.39.56-20.04-.6-4.74-.83-9.28-2.22-13.48-4.6-.29-.17-.58-.34-.87-.52-1.4-.87-2.68-1.9-3.7-3.23-.2-.26-.44-.5-.69-.77-2.15,3.6-3.91,10.28-3.97,15,.82.63,1.67,1.28,2.5,1.94.75.59,1.51,1.16,2.29,1.68,3.91,2.65,8.22,4.43,12.96,5.18,3.46.55,6.94.93,10.43,1.24,5.23.46,10.47.31,15.66-.46,10.37-1.54,20.25-4.66,29.74-8.94,1.18-.52,2.35-1.07,3.51-1.63.54-.27,1.05-.6,1.53-.88-.06-5.83-1.16-11.27-4.36-16.09ZM88.65,58.71c-.15-.57-.25-.96-.38-1.49,2.94-.64,5.83-1.27,8.82-1.92.15.4.3.8.52,1.43-3.02.67-5.91,1.31-8.96,1.98ZM104.75,54.06c-1.56.69-3.17,1.26-4.81,1.91-.15-.32-.27-.49-.31-.67-.06-.23-.06-.48-.09-.79.93-.36,1.83-.69,2.71-1.04,3.38-1.35,6.63-2.91,9.57-5.08.19-.12.37-.26.55-.4.41-.32.94-.89,1.44-.34.62.67-.13,1.1-.57,1.45-.22.18-.44.35-.66.51-2.4,1.84-5.07,3.22-7.83,4.45Z"/>
        <path class="cls-4" d="M136.5,95.06c-1.83,3.66-4.59,6.43-7.91,8.7-3.67,2.5-7.73,4.26-11.77,6.04-2.13.94-4.3,1.8-6.6,2.75-.34-.43-.69-.83-1.06-1.18-2.5-2.42-5.65-3.13-9.14-3.11-4.85.02-9.61.83-14.34,1.75-6.13,1.19-12.24,2.52-18.37,3.67-1.26.24-2.63.04-3.93-.11-5.39-.65-10.77-1.42-16.05-2.74-5.24-1.32-10.08-3.47-14.42-6.68-.46-.34-.9-.7-1.33-1.08-.53-.46-1.04-.93-1.56-1.39-2.01-1.77-2.43-4.08-1.95-6.54.32-1.63.85-3.24,1.5-4.77.99-2.35,2.44-4.46,4.16-6.34.75-.82,1.62-1.52,2.5-2.33.33.35.58.58.8.84.87,1.05,1.8,2.03,2.78,2.94,1.79,1.67,3.78,3.11,6,4.27,7.42,3.9,15.29,6.22,23.63,7.06,12.77,1.29,25.25-.15,37.48-3.94,4.72-1.47,9.16-3.62,13.47-6.01,1.83-1.02,3.62-2.09,5.4-3.18.99-.6,1.98-1.21,2.97-1.81.93-.55,1.42-.63,2.18.11,1.63,1.6,3.34,3.15,4.73,4.94,1.91,2.46,2.29,5.21.83,8.14Z"/>
        <path class="cls-7" d="M76.5,27.92c3.97,2.77,7.71,1.97,11.43-.77.53.74.58,1.64.66,2.51.08.91.11,1.83.07,2.74-.03.79.08,1.77-.34,2.31-.8,1.02-1.83,1.96-3.22,2.17-1.92.28-3.84.33-5.73-.26-.92-.29-1.58-.84-2.02-1.72-.88-1.75-1.37-5.42-.86-6.98Z"/>
        <path class="cls-11" d="M87.33,25.55c-.32.41-.68.78-1.07,1.11h-.01c-2.45,2.06-6.01,2.35-8.69.66-.31-.18-.61-.4-.89-.65.49-1.93,1.76-3.03,3.71-3.46,2.93-.64,5.4.16,6.95,2.34Z"/>
        <path class="cls-8" d="M132.18,158.12c-.61-.13-1.27-.16-1.82-.41-.73-.33-1.44-.77-2.07-1.27-4.04-3.16-8.08-6.33-12.07-9.56-1.13-.92-2.14-2.02-3.09-3.14-.61-.71-1.02-1.6-.66-2.7.14.22.31.42.42.66.7,1.52,1.86,2.67,3.11,3.71,2.75,2.26,5.52,4.49,8.33,6.67,2.56,1.98,5.2,3.88,7.8,5.81.02.08.03.16.05.24Z"/>
        <path class="cls-9" d="M136.4,112.88c.73,1.71,1.37,3.42,2.17,5.03-.83.1-1.65.26-2.46.48-.57-1.3-1.15-2.62-1.74-3.95.59-.45,1.25-.96,2.03-1.56Z"/>
        <path class="cls-9" d="M137.53,153.61c.08.15.15.31.22.47-.02.02-.04.05-.06.07l-.16-.54Z"/>
        <path class="cls-9" d="M153.26,152.74c-.69.07-1.41-.22-2.25-.75-2.18-1.38-4.55-2.47-6.87-3.6-1.32-.64-1.52-.55-2.44.62-.99,1.28-1.94,2.59-3.01,4.02-.99-1.21-1.38-2.7-2.43-3.75l-.76-2.61,3.32,3.56,3.74-4.33,10.7,6.84Z"/>
        <g>
          <path class="cls-9" d="M198.82,161.75c-1.8-.94-3.51-2.06-5.28-3.06-12.2-6.91-24.22-14.13-36.02-21.71-2.17-1.4-2.22-1.43-1.55-3.94.51-1.91,1.15-3.79,1.8-5.66.55-1.58.31-2.96-.65-4.31-1.28-1.82-2.91-3.26-4.75-4.46-2.13-1.39-4.27-2.76-6.49-3.99-1.68-.93-3.47-1.68-5.25-2.43-1.11-.47-2.25-.47-3.35.35.75,1.77,1.61,3.49,2.28,5.27,1.64-.11,3.28.03,4.87.48,5.05,1.44,9.14,6.88,7.64,11.91-.53,1.77-2.66,3.9-1.44,5.3.74.85,29.57,17.64,49.41,27.27-.28-.4-.68-.74-1.22-1.02Z"/>
          <path class="cls-9" d="M131.22,120.37c1.27-.7,2.62-1.28,4.01-1.73-.57-1.16-1.15-2.32-1.72-3.49-2.42,2.13-4.7,4.38-6.9,6.73h0c-.22.23-.42.47-.64.71-.82.9-1.65,1.79-2.45,2.72-1.02,1.17-2.02,2.35-3.01,3.56-1.3,1.59-2.59,3.2-3.88,4.85,1.02.1,2.01.19,2.98.23,3.83-5.32,11.05-13.26,11.61-13.57Z"/>
          <path class="cls-9" d="M133.75,155.35c-1.31-.06-17.37-13.56-17.19-16.18.05-.69.97-2.24,2.3-4.16-.56-.02-1.13-.05-1.69-.08-.92-.06-1.55.09-2.01.92-.34.62-.81,1.17-1.21,1.75-1.11,1.61-1.17,2.74,0,4.33.72.97,1.6,1.84,2.52,2.64,4.67,4.1,9.79,7.6,14.92,11.09.73.5,1.63.8,2.5,1.06.7.22,1.41.1,1.85-.62-.24-.32-.51-.74-.79-1.23-.47.31-.9.5-1.2.48Z"/>
        </g>
        <path class="cls-9" d="M137.53,153.61c.08.15.15.31.22.47-.02.02-.04.05-.06.07-.37.42-.79.88-1.29,1.44-.25-.41-.48-.83-.72-1.24.54-.42,1.09-.91,1.57-1.36.09.21.18.41.28.62Z"/>
        <path class="cls-9" d="M139.06,152.53c-.12.17-.24.33-.37.5-.23-.28-.42-.57-.6-.87.3-.3.48-.49.48-.49l.49.86Z"/>
        <path class="cls-9" d="M115.08,133.37c-.31-.07-.62-.14-.91-.22-.78-3.12-1.67-6.21-3.12-9.08-1.82-3.6-4.61-6.86-8.32-8.46-4.21-1.81-9.01-1.29-13.54-.63-20.46,2.95-40.55,8.03-60.59,13.11-3.34.84-6.93,1.85-9.02,4.59-1.75,2.3-2.07,5.43-1.71,8.31.36,2.88,1.31,5.65,1.83,8.5,1.01,5.59.67,12.12,4.89,15.93,3.62,3.27,9.1,3.05,13.96,2.63,2.44-.21,4.87-.42,7.31-.62-3.36.88-6.71,1.75-10.07,2.62-2.16.55-4.39.84-6.6,1.12-2.99.38-6.74-1.82-8.22-4.81-.72-1.45-1.32-2.97-1.82-4.51-2.46-7.61-4.16-15.39-4.87-23.36-.14-1.6,0-3.26.24-4.85.36-2.36,1.69-4.12,3.9-5.1,1.11-.49,2.27-.89,3.44-1.23,15.55-4.53,31.2-8.69,47.05-12.05,7.75-1.64,15.53-3.14,23.32-4.58,3.44-.64,6.95-.92,10.47-.51,2.91.33,5.18,1.74,6.69,4.24.79,1.3,1.45,2.69,2.02,4.09,1.75,4.29,3.31,8.63,4.2,13.19.13.68.1,1.2-.53,1.68Z"/>
        <path class="cls-9" d="M87.33,25.55c-.32.41-.68.78-1.07,1.11h-.01s-4.87-3.17-7.31-.95c-.55.5-1.01,1.05-1.38,1.61-.31-.18-.61-.4-.89-.65.49-1.93,1.76-3.03,3.71-3.46,2.93-.64,5.4.16,6.95,2.34Z"/>
        <g>
          <path class="cls-9" d="M39.22,74.74s.04-.08.06-.12c1.38-2.42,7.81-4.58,7.81-4.58l-.03-.02-.04-.04c-1.19-.79-2.34-1.67-3.44-2.65-.79-.7-1.45-1.55-2.24-2.42h-.02s-.06-.09-.1-.13c-.01.01-.02.02-.03.02-2.05,1.62-3.47,3.26-4.26,5.43-.31.86-.2,1.53.34,2.26.6.8,1.25,1.56,1.95,2.25Z"/>
          <path class="cls-9" d="M50.52,51.92c.19.12.39.24.59.35.78-1.67,1.72-3.32,2.83-4.85,5.27-7.28,17.82-11.08,22.02-12.17-.34-.71-.68-1.43-1.02-2.17-1.84.4-3.69.74-5.51,1.19-3.05.76-6.15,1.4-9.11,2.42-5.45,1.88-9.89,5.15-12.86,10.2-.27.48-.51.97-.78,1.47,1.06,1.52,2.37,2.63,3.84,3.56Z"/>
          <path class="cls-9" d="M37.58,81.47c.61.57,1.22,1.13,1.85,1.67-.29-1.99-.58-4.85-.31-6.8-.78-.7-1.5-1.48-2.15-2.35-.07-.1-.23-.14-.35-.21-.07.14-.15.22-.14.3.18,2.17.35,4.35.57,6.52.03.31.28.65.53.87Z"/>
          <path class="cls-9" d="M112.58,49.61c1.39,2.4,2.31,4.74,2.78,6.7,1.05,4.37.46,8.58.42,8.83,1.18-.52,2.35-1.07,3.51-1.63.54-.27,1.05-.6,1.53-.88-.06-5.83-1.16-11.27-4.36-16.09-.51.06-.88.11-1.42.18.2-.54.33-.9.49-1.33-4.18-6.21-21.43-12.77-25.67-11.89-.04.52-.14.99-.3,1.41,2.89.55,10.26,2.21,15.13,5.82,3.03,2.25,5.39,4.95,7.13,7.66.27.41.52.82.76,1.22Z"/>
          <path class="cls-9" d="M119.47,64.82c-.78.36-1.56.72-2.34,1.09,1.59,1.05,4.22,3.28,5.91,7.31,1.45-1.08,2.67-2.3,2.85-4.39-1.26-1.96-3.47-3.02-5.22-4.57-.48.22-.84.4-1.2.56Z"/>
          <path class="cls-9" d="M123.88,74.32c-.11.08-.21.16-.32.24,1.45,4,1.69,6.49,1.69,7.7.1-.06.19-.11.29-.17,1.17-.69,2.26-1.52,3.45-2.32-.39-3.17-.02-6.42-2.01-9.44-.64,1.87-1.8,2.99-3.1,3.99Z"/>
          <path class="cls-9" d="M135.67,86.92c-1.39-1.79-3.1-3.34-4.73-4.94-.76-.74-1.25-.66-2.18-.11-.99.6-1.98,1.21-2.97,1.81,1.5,1.43,5.33,5.3,6.07,8.3.85,3.49-13.86,15.93-22.7,19.39.37.35.72.75,1.06,1.18,2.3-.95,4.47-1.81,6.6-2.75,4.04-1.78,8.1-3.54,11.77-6.04,3.32-2.27,6.08-5.04,7.91-8.7,1.46-2.93,1.08-5.68-.83-8.14Z"/>
          <path class="cls-9" d="M89.5,73.91c.84-.06.94-.14.94-.14,0,0-.34.05-.94.14Z"/>
          <path class="cls-9" d="M70.94,73.22c-15.06-1.02-21.36-7.74-23.22-10.27.53-2.72,1.4-6.09,2.84-9.45-1.4-.87-2.68-1.9-3.7-3.23-.2-.26-.44-.5-.69-.77-2.15,3.6-3.91,10.28-3.97,15,.82.63,1.67,1.28,2.5,1.94l3.49,3.32s5.01,3.4,15,5.04c8.61,1.41,22.59-.36,26.31-.88-1.66.11-6.19.14-18.56-.7Z"/>
          <path class="cls-9" d="M42.69,86.35l-3.39-1.38c-.79-.77-1.56-1.58-2.27-2.44-.22-.26-.47-.49-.8-.84-.88.81-1.75,1.51-2.5,2.33-1.72,1.88-3.17,3.99-4.16,6.34-.65,1.53-1.18,3.14-1.5,4.77-.48,2.46-.06,4.77,1.95,6.54.52.46,1.03.93,1.56,1.39-.03-1.71.05-3.64.36-5.49.48-2.92,3.02-6.49,5.09-9,3.46,2.43,13.04,8.56,21.66,8.41,10.75-.18,13.49.05,13.49.05,0,0-21.49-5.43-27.48-7.92l-2.01-2.77Z"/>
        </g>
        <path class="cls-2" d="M99.95,55.96c-.15-.32-.27-.48-.31-.66-.06-.24-.06-.48-.09-.79.93-.36,1.83-.7,2.71-1.05,3.59-1.42,7.04-3.1,10.11-5.47.42-.32.94-.9,1.44-.35.61.67-.14,1.1-.57,1.45-2.57,2.1-5.49,3.62-8.5,4.96-1.56.69-3.17,1.27-4.8,1.91Z"/>
        <path class="cls-2" d="M88.65,58.71c-.15-.58-.24-.96-.38-1.49,2.95-.64,5.83-1.27,8.83-1.92.15.4.29.8.52,1.43-3.02.67-5.91,1.31-8.97,1.99Z"/>
        <path class="cls-2" d="M173.38,151.05c-1.47-.76-2.95-1.49-4.4-2.28-3.24-1.77-6.47-3.59-9.71-5.37-.84-.46-1.73-.85-2.57-1.3-.83-.45-1.53-.4-2.12.4-.13.17-.38.26-.65.43.28-1.98,1.11-2.57,2.71-1.97.9.33,1.79.73,2.61,1.21,4.54,2.67,9.07,5.37,13.59,8.06.25.15.47.36.71.54l-.17.27Z"/>
        <path class="cls-2" d="M52.83,116.99c-5.31-.57-10-2.13-14.58-4.08-3.29-1.41-6.41-3.1-8.91-5.74-1.62-1.72-2.93-3.68-3.35-6.05-.2-1.12-.07-2.32.05-3.46.12-1.1.37-2.19.66-3.27.38-1.42.73-2.86,1.31-4.2,1.69-3.94,3.68-6.51,7.31-9.73-.15-2.56-.41-5.09-.41-7.61,0-3.5,1.57-6.27,4.55-8.13.84-.52,1.17-1.12,1.24-2.05.46-5.77,2.25-11.12,5.07-16.15,3.14-5.59,7.96-9.12,13.85-11.34,3.25-1.23,6.65-1.84,10.05-2.45,1.68-.3,3.39-.47,5.18-.72-.03-.38-.07-.72-.09-1.06-.05-1.01-.21-2.04-.11-3.04.47-4.72,3.59-7.13,8.44-6.67,3.94.37,6.07,2.57,6.74,6.52.21,1.24.24,2.52.36,3.92.76.07,1.6.11,2.43.25,4.18.69,8.21,1.92,12.06,3.66,2.13.96,4.18,2.1,6.19,3.28,7.43,4.38,10.81,11.17,11.33,19.55.11,1.76-.13,3.53-.22,5.41.12.06.33.21.55.29,2.69,1,4.61,2.9,6.17,5.24,1.2,1.79,1.65,3.8,1.77,5.91.09,1.62.18,3.24.28,4.9,2.51,1.09,4.38,2.93,6.12,4.95,1.85,2.15,2.65,4.67,2.56,7.46-.19,5.89-2.36,10.83-6.94,14.68-4.55,3.83-9.44,7.04-15.08,9.04-.91.32-1.8.67-2.73,1.16,3.56.9,7.09,1.84,10.26,3.98,1.77-1.74,3.51-3.51,5.32-5.2,1.49-1.38,3.04-2.7,4.61-3.99,2.47-2.02,5.16-2.25,7.95-.75,2.73,1.46,5.46,2.92,8.11,4.52,1.69,1.02,3.3,2.2,4.81,3.47,1.03.87,1.88,1.99,2.7,3.08,1.11,1.49,1.31,3.17.69,4.92-.75,2.11-1.53,4.2-2.29,6.3-.17.47-.32.95-.5,1.49,5.62,2.22,10.28,5.98,15.4,8.96,5.14,2.99,10.22,6.07,15.35,9.07,4.03,2.37,8.04,4.76,12.15,6.99,2.05,1.11,2.91,2.72,2.92,4.93,0,1.52-.03,3.05-.03,4.57,0,.74-.31,1.08-1.09,1.13-3.2.2-6.39.46-9.58.66-1.39.08-1.63-.15-2.05-1.5-.26-.82-.52-1.64-.83-2.45-.37-.98-1.07-1.42-2.15-1.24-1.5.24-3.02.43-4.53.64-.3.04-.6.1-.9.14-1.92.21-2.29-.1-2.59-2.01-.2-1.3-.39-2.61-.69-3.9-.3-1.26-.5-1.38-1.81-1.31-1.93.1-3.85.27-5.78.35-2.01.08-2.35-.17-3.03-2.04-.37-1-.66-2.03-1.06-3.02-.54-1.33-.85-1.46-2.18-1.01-.96.32-1.91.68-2.88.99-.9.29-1.65.13-2.34-.61-.72-.77-1.56-1.42-2.41-2.18-.72.54-1.33.98-1.92,1.45-.87.7-1.68.69-2.65.09-2.68-1.64-5.42-3.2-8.29-4.89-.42.56-.85,1.16-1.32,1.73-1.68,2.04-3.32,4.11-5.09,6.07-.66.73-1.57,1.3-2.45,1.77-1.89,1-3.83,1.03-5.63-.2-1.59-1.09-3.13-2.25-4.66-3.43-3.13-2.43-6.24-4.88-9.43-7.39-.28.16-.56.35-.86.5-1.82.89-3.58,1.96-5.47,2.63-10.23,3.65-20.51,7.16-30.98,10.07-9.44,2.62-18.92,5.08-28.38,7.63-4.41,1.19-8.77,2.56-13.22,3.59-2.46.57-5.07,1.01-7.55.79-3.84-.33-7.22-2.02-8.88-5.79-1.22-2.78-2.22-5.67-3.08-8.59-1.97-6.64-3.28-13.41-3.85-20.32-.17-2.05-.02-4.07.59-6.03.8-2.59,2.52-4.4,5-5.41,1.55-.63,3.16-1.11,4.77-1.55,9.6-2.61,19.21-5.19,28.81-7.78.28-.08.56-.18,1.17-.38ZM115.09,133.36c.63-.48.65-1,.52-1.67-.89-4.56-2.44-8.91-4.19-13.19-.57-1.4-1.23-2.79-2.02-4.09-1.51-2.5-3.78-3.91-6.7-4.25-3.52-.41-7.02-.13-10.47.51-7.79,1.45-15.57,2.95-23.31,4.59-15.85,3.35-31.5,7.52-47.05,12.05-1.17.34-2.32.74-3.43,1.23-2.21.98-3.54,2.74-3.9,5.1-.24,1.59-.38,3.25-.24,4.85.71,7.97,2.41,15.75,4.86,23.36.5,1.54,1.11,3.06,1.82,4.52,1.48,2.99,5.23,5.18,8.21,4.81,2.21-.28,4.45-.57,6.6-1.13,10.76-2.78,21.51-5.61,32.25-8.49,11.28-3.03,22.38-6.65,33.45-10.35,4.12-1.38,8.24-2.77,12.49-4.19-.77-.93-1.45-1.67-2.04-2.48-1.38-1.87-1.48-3.86-.35-5.86.6-1.06,1.34-2.04,2.01-3.05.24-.36.45-.73.7-1.15-.63-.22-1.12-.37-1.59-.56-1.77-.69-3.39-1.62-4.71-3.02-.89-.93-1.48-2.15-2.89-2.57-.41-.12-.75-.81-.95-1.31-.52-1.33-.08-2.48.82-3.5.94-1.08,2.02-1.27,3.25-.56,2.02,1.18,2.15,4,.25,5.35-.24.17-.49.32-.74.47,1.33,2.33,3.73,3.83,7.34,4.59ZM115.53,45.39c-4.18-6.21-21.43-12.77-25.67-11.89-.2,2.58-1.87,3.99-4.16,4.63-2.4.68-4.84.49-7.2-.37-.99-.36-1.79-.96-2.27-1.93-.44-.9-.86-1.82-1.3-2.76-1.84.4-3.69.74-5.51,1.2-3.05.76-6.15,1.39-9.12,2.41-5.44,1.88-9.88,5.15-12.85,10.2-.28.47-.52.97-.78,1.47,1.06,1.52,2.37,2.63,3.84,3.56,2.77,1.74,5.74,3.1,8.89,3.93,7.78,2.06,15.69,2.72,23.72,1.94.85-.08,1.71-.11,2.64-.17.12.49.23.9.33,1.31-.27.1-.41.16-.55.2-.2.05-.4.08-.6.1-6.71.78-13.38.56-20.04-.6-4.74-.83-9.28-2.21-13.48-4.6-1.74-.99-3.33-2.14-4.57-3.75-.2-.26-.44-.5-.69-.77-2.15,3.6-3.91,10.28-3.97,15,.82.63,1.67,1.28,2.5,1.94,4.5,3.58,9.57,5.96,15.25,6.87,3.45.55,6.94.93,10.43,1.24,5.23.46,10.47.31,15.66-.46,11.65-1.73,22.68-5.45,33.25-10.58.54-.26,1.05-.6,1.53-.87-.06-5.84-1.16-11.27-4.36-16.09-.5.06-.87.11-1.42.18.2-.55.33-.9.49-1.33ZM110.23,112.55c2.3-.95,4.46-1.8,6.59-2.74,4.04-1.78,8.1-3.54,11.77-6.05,3.32-2.27,6.08-5.04,7.91-8.7,1.46-2.93,1.08-5.68-.83-8.14-1.39-1.79-3.1-3.35-4.74-4.94-.76-.74-1.25-.67-2.18-.11-2.78,1.68-5.53,3.41-8.37,4.98-4.31,2.39-8.75,4.55-13.47,6.01-12.22,3.79-24.7,5.23-37.47,3.95-8.34-.84-16.22-3.16-23.64-7.06-3.43-1.8-6.31-4.24-8.78-7.21-.22-.26-.47-.49-.8-.84-.88.81-1.75,1.51-2.5,2.33-1.73,1.89-3.17,3.99-4.17,6.34-.65,1.53-1.17,3.14-1.49,4.77-.48,2.46-.06,4.77,1.94,6.54.95.84,1.87,1.72,2.89,2.47,4.35,3.2,9.18,5.36,14.42,6.67,5.29,1.32,10.66,2.09,16.06,2.74,1.3.16,2.67.35,3.93.12,6.14-1.15,12.24-2.48,18.37-3.67,4.74-.92,9.49-1.73,14.35-1.76,4-.02,7.56.92,10.2,4.29ZM200.69,168.63c.36-.89.27-1.41-.52-1.76-.7-.3-1.35-.71-2.01-1.09-7.09-4.08-14.18-8.16-21.27-12.24-.33-.19-.62-.43-.94-.64.06-.1.11-.2.17-.3,2.11.9,4.07,2.13,6.11,3.17,2.08,1.06,4.14,2.17,6.2,3.27,2.06,1.1,4.11,2.23,6.16,3.35,2.03,1.11,3.94,2.46,6.22,3.52-.03-1.88-.32-3.29-1.99-4.16-1.8-.94-3.51-2.06-5.27-3.06-12.21-6.91-24.23-14.13-36.02-21.71-2.18-1.4-2.22-1.43-1.55-3.94.51-1.91,1.15-3.79,1.8-5.66.55-1.58.31-2.97-.65-4.31-1.29-1.82-2.91-3.26-4.75-4.46-2.13-1.39-4.27-2.75-6.49-3.99-1.68-.93-3.47-1.68-5.24-2.43-1.11-.47-2.26-.47-3.35.35,1.17,2.78,2.62,5.42,3.19,8.39-1.89-2.36-2.85-5.2-4.07-8.05-.78.6-1.44,1.11-2.03,1.57,1.92,4.35,3.77,8.53,5.61,12.71.12.28.23.56.34.85.01.03-.02.09-.05.12-.03.03-.08.03-.34.11-2.12-4.31-4.25-8.65-6.43-13.08-6.25,5.5-11.58,11.79-16.87,18.57,4.19.4,7.99.66,11.41-1.72-.07-1.76.35-3.23,1.7-4.3.45-.36.42-.76.32-1.22-.25-1.09-.51-2.18-.74-3.27-.05-.26,0-.53,0-1.09.9.8.96,1.69,1.24,2.46.3.84.54,1.71.81,2.55.55-.07.93-.11,1.41-.17-.17-.65-.38-1.18-.43-1.72-.05-.56-.54-1.11-.02-1.89.79,1.03,1.06,2.15,1.4,3.22.19.61.48,1.06.98,1.47,1.89,1.57,2.08,3.89.51,5.63-1.64,1.83-4.03,1.96-5.81.29-.29-.27-.5-.62-.76-.96-1.78,1.22-3.57,1.92-5.55,1.97-1.97.05-3.95.06-5.92-.06-.92-.06-1.55.09-2.01.92-.34.62-.81,1.17-1.22,1.75-1.11,1.61-1.17,2.73,0,4.33.72.97,1.6,1.84,2.51,2.64,4.67,4.1,9.8,7.6,14.92,11.09.74.5,1.64.8,2.5,1.06.7.22,1.41.1,1.85-.62-1.66-2.24-4.88-9.27-4.67-10.51,2.11,3.23,3.35,6.73,5.32,10,.53-.59.96-1.07,1.35-1.51-.76-1.71-1.63-3.24-1.76-5.05,1.26,1.04,1.63,2.69,2.7,3.99,1.07-1.43,2.02-2.74,3.01-4.02.91-1.17,1.12-1.27,2.43-.63,2.33,1.13,4.7,2.22,6.87,3.61,1.52.97,2.66,1.13,3.94-.21.65-.68,1.47-.65,2.21-.08.68.53,1.41,1.03,1.97,1.67.65.74,1.29.82,2.15.47.94-.38,1.94-.61,2.87-1.01,1.12-.48,1.84-.02,2.43.91.32.51.53,1.1.73,1.67.3.86.51,1.76.82,2.61.42,1.15.56,1.26,1.79,1.2,1.83-.08,3.66-.17,5.48-.36,1.94-.21,2.86-.34,3.51,2.68.07.35.12.7.17,1.05.19,1.14.38,2.27.59,3.53.98-.09,1.84-.14,2.69-.24,1.31-.16,2.61-.42,3.92-.53,2.06-.18,2.68.21,3.49,2.16.38.93.65,1.9,1.01,2.98,3.05-.23,6.05-.45,9.39-.7-.49-.36-.67-.52-.88-.64-8.79-4.99-17.6-9.95-26.38-14.97-5.51-3.15-10.98-6.38-16.46-9.59-.44-.26-.85-.58-1.27-.87.08-.12.15-.24.23-.35,7.88,3.51,15.11,8.21,22.62,12.41,7.57,4.23,15.09,8.55,22.66,12.85ZM41.23,64.78c-2.08,1.62-3.51,3.26-4.29,5.45-.31.86-.21,1.53.34,2.26,1.54,2.07,3.39,3.79,5.64,5.05,3.88,2.17,8.05,3.6,12.38,4.6,4.67,1.08,9.43,1.47,14.19,1.83,1.27.1,2.52.29,3.78.44,0,.13,0,.26,0,.39-.98.13-1.96.38-2.93.37-2.38-.03-4.77-.09-7.15-.3-6.53-.57-12.81-2.14-18.74-5-2.92-1.41-5.52-3.24-7.48-5.87-.07-.1-.23-.14-.35-.2-.07.13-.15.22-.14.3.18,2.17.35,4.35.58,6.52.03.31.28.65.52.87,2.61,2.42,5.3,4.74,8.44,6.48,5.25,2.89,10.83,4.87,16.69,6.06,7.36,1.5,14.79,1.89,22.29,1.28,6.45-.52,12.8-1.55,19.03-3.29,7.71-2.15,14.66-5.93,21.52-9.92,1.18-.68,2.27-1.52,3.45-2.32-.39-3.16-.02-6.41-2.01-9.44-.63,1.87-1.79,2.99-3.1,3.99-3.51,2.71-7.52,4.4-11.72,5.68-7.85,2.4-15.93,3.68-24.07,4.5-3.12.32-6.29.5-9.44.05-.34-.05-.66-.19-.98-.29.02-.11.03-.23.05-.34.59-.08,1.18-.19,1.77-.25,4.45-.42,8.91-.71,13.34-1.27,6.15-.79,12.24-1.92,18.19-3.68,4.2-1.25,8.28-2.76,11.87-5.38,1.52-1.11,2.81-2.35,3-4.51-1.26-1.96-3.47-3.02-5.22-4.57-.47.22-.83.4-1.2.57-3.65,1.66-7.24,3.47-10.96,4.93-7.2,2.84-14.65,4.89-22.33,5.92-8.62,1.16-17.24.88-25.81-.58-6.29-1.07-11.98-3.48-16.78-7.77-.83-.74-1.52-1.63-2.35-2.54ZM76.5,27.92c-.51,1.55-.02,5.23.86,6.98.44.88,1.1,1.43,2.02,1.72,1.89.6,3.81.55,5.73.26,1.39-.21,2.42-1.15,3.22-2.17.42-.53.31-1.52.34-2.31.04-.91,0-1.83-.07-2.74-.08-.87-.13-1.77-.66-2.51-3.73,2.74-7.47,3.54-11.43.77ZM124.13,122.37c-2.25-1.97-8.58-4.14-10.81-3.72,1.33,4.03,2.87,7.99,3.34,12.54,2.61-3.08,5-5.9,7.47-8.81ZM87.33,25.55c-1.55-2.18-4.02-2.98-6.95-2.34-1.95.43-3.22,1.53-3.71,3.46,3.13,2.73,8.06,2.2,10.66-1.12ZM132.18,158.12c-.02-.08-.03-.16-.05-.24-2.6-1.93-5.24-3.83-7.8-5.81-2.81-2.18-5.58-4.41-8.33-6.67-1.26-1.03-2.41-2.19-3.11-3.71-.11-.23-.28-.44-.42-.66-.36,1.1.05,1.99.66,2.7.95,1.11,1.96,2.22,3.09,3.14,3.98,3.23,8.03,6.4,12.07,9.56.63.5,1.34.94,2.07,1.27.56.25,1.21.28,1.82.41Z"/>
      </g>
    </g>
  </g>
</svg>