<?xml version="1.0" encoding="UTF-8"?>
<svg id="Layer_2" data-name="Layer 2" xmlns="http://www.w3.org/2000/svg" xmlns:xlink="http://www.w3.org/1999/xlink" viewBox="0 0 148.03 178.38">
  <defs>
    <style>
      .cls-1 {
        fill: url(#_Безымянный_градиент_4);
      }

      .cls-1, .cls-2, .cls-3, .cls-4, .cls-5, .cls-6, .cls-7, .cls-8 {
        stroke-width: 0px;
      }

      .cls-2 {
        fill: #000;
      }

      .cls-3 {
        fill: #0abbef;
      }

      .cls-4 {
        fill: url(#_Безымянный_градиент_4-3);
      }

      .cls-5 {
        fill: url(#_Безымянный_градиент_4-2);
      }

      .cls-6 {
        fill: #ee882c;
      }

      .cls-7 {
        fill: #fff;
      }

      .cls-8 {
        fill: url(#_Безымянный_градиент_11);
      }
    </style>
    <linearGradient id="_Безымянный_градиент_11" data-name="Безымянный градиент 11" x1="80.23" y1="159.53" x2="80.23" y2="19.58" gradientTransform="translate(-3.33 -18.18) rotate(1.73)" gradientUnits="userSpaceOnUse">
      <stop offset="0" stop-color="#ee882c"/>
      <stop offset=".16" stop-color="#ef8f28"/>
      <stop offset=".42" stop-color="#f2a51f"/>
      <stop offset=".73" stop-color="#f8c80f"/>
      <stop offset="1" stop-color="#ffed00"/>
    </linearGradient>
    <linearGradient id="_Безымянный_градиент_4" data-name="Безымянный градиент 4" x1="69.1" y1="127.88" x2="81.5" y2="127.88" gradientTransform="translate(-3.33 -18.18) rotate(1.73)" gradientUnits="userSpaceOnUse">
      <stop offset="0" stop-color="#0abbef"/>
      <stop offset=".24" stop-color="#0d9acf"/>
      <stop offset=".76" stop-color="#14598e"/>
      <stop offset="1" stop-color="#174075"/>
    </linearGradient>
    <linearGradient id="_Безымянный_градиент_4-2" data-name="Безымянный градиент 4" x1="89.11" y1="125.94" x2="99.54" y2="125.94" xlink:href="#_Безымянный_градиент_4"/>
    <linearGradient id="_Безымянный_градиент_4-3" data-name="Безымянный градиент 4" x1="73.89" y1="176.32" x2="75.4" y2="126.32" gradientTransform="matrix(1,0,0,1,0,0)" xlink:href="#_Безымянный_градиент_4"/>
  </defs>
  <g id="_Наведение" data-name="Наведение">
    <g id="_7" data-name="7">
      <path class="cls-8" d="M146.45,75.94c-.32,10.58-3.05,20.53-7.68,29.39h0c-.41.8-.83,1.59-1.28,2.37h0c-1.9,3.33-4.08,6.48-6.49,9.43-.8,1-1.64,1.97-2.51,2.92-2.2,2.42-4.58,4.69-7.11,6.79-1.19,1-2.41,1.95-3.67,2.86-2.47,1.8-5.06,3.45-7.76,4.94-1.54.85-3.12,1.64-4.73,2.38-10.03,4.61-21.32,7.04-33.19,6.68s-22.2-3.25-31.68-8.13c-1.02-.52-2.04-1.06-3.03-1.64-2.78-1.59-5.43-3.36-7.95-5.29-.62-.47-1.22-.96-1.82-1.45-3.18-2.59-6.12-5.45-8.79-8.54-.76-.87-1.49-1.74-2.19-2.64C6.89,103.69,1.34,88.22,1.85,71.57,3.01,32.94,36.33,2.61,76.26,3.81c39.93,1.21,71.36,33.5,70.19,72.13Z"/>
      <polyline class="cls-7" points="91.48 5.61 92.56 55.17 142.47 53.07 142.06 49.55 137.83 46.53 98.77 48.58 104.83 42.06 95.92 45.26 96.63 6.42"/>
      <polygon class="cls-7" points="108.28 17.6 108.91 37.64 128.19 36.81 110.9 35.07 108.28 17.6"/>
      <polyline class="cls-7" points="81.95 4.5 83.94 64.24 129.13 62.98 85.46 62.06 83.52 4.19"/>
      <polyline class="cls-7" points="65.34 4.82 66.94 61.92 12.72 66.24 68.96 64.35 66.71 4.32 65.35 4.45"/>
      <polyline class="cls-7" points="22 26.08 22.93 39.86 42.11 38.81 26.29 36.98 26.5 21.9"/>
      <polygon class="cls-7" points="18.96 44.49 7.88 56.36 7.87 56.89 59.08 55.41 55.05 51.41 15.92 52.86 18.96 44.49"/>
      <polygon class="cls-7" points="45.26 13.7 46.37 43.06 48.47 45.04 48.09 14.09 57.48 5.24 52.43 6.18 45.26 13.7"/>
      <polyline class="cls-7" points="57.51 4.32 59.65 60.84 61 4.08"/>
      <polyline class="cls-7" points="73.83 3.15 76.84 67.97 78.42 68.02 76.14 3.22"/>
      <polyline class="cls-7" points="68.28 72.05 61.03 72.65 56.24 77.04 61.05 82.3 67.27 82.65 62.31 80.16 59.16 77.13 61.45 74.57 68.27 72.48"/>
      <polyline class="cls-7" points="81.76 71.53 92.08 71.03 91.94 80.67 86.69 81.25 88.96 79.1 89.42 73.18 82.85 73.71"/>
      <polygon class="cls-7" points="58.09 72.23 2.03 74.08 2.97 85.31 57.78 82.56 6.82 82.62 6.99 77.09 56.85 73.49 58.09 72.23"/>
      <polygon class="cls-7" points="97.39 70.61 146.04 68.47 146.04 79.69 105.22 80.76 141.74 77.42 141.94 70.89 97.39 70.61"/>
      <path class="cls-7" d="M109.42,134.88c-1.54.85-3.12,1.64-4.73,2.38l-4.78-47.8,9.51,45.42Z"/>
      <path class="cls-7" d="M120.85,127.08c-1.19,1-2.41,1.95-3.67,2.86l-5.02-39.51,8.68,36.65Z"/>
      <path class="cls-7" d="M130.47,117.37c-.8,1-1.64,1.97-2.51,2.92l-4.29-28.73,6.8,25.81Z"/>
      <path class="cls-7" d="M138.24,105.57h0c-.41.8-.83,1.59-1.28,2.37l-2.48-17.36,3.76,15Z"/>
      <path class="cls-7" d="M28.84,128.88c-.62-.47-1.22-.96-1.82-1.45v-33.68s1.82,35.14,1.82,35.14Z"/>
      <path class="cls-7" d="M18.51,115.82l-.28,3.07c-.76-.87-1.49-1.74-2.19-2.64l1.11-21.42,1.36,21Z"/>
      <path class="cls-7" d="M39.82,135.81c-1.02-.52-2.04-1.06-3.03-1.64l1.99-40.51,1.04,42.15Z"/>
      <path class="cls-7" d="M47.37,92.66l2.86,35.71s-4.55-.76-4.55-.82,1.69-34.89,1.69-34.89Z"/>
      <polyline class="cls-7" points="56.82 92.45 59.62 130.57 55.23 129.71"/>
      <path class="cls-1" d="M69.05,97.96s-4.7-.75-5.58.39-2.05,5.38-1,14.9c1.06,9.52,2.75,11.48,3.85,11.99s1.88.98,3.49.81,2.79-.76,3.17-1.45c.38-.69,1.27-1.98.89-2.92-.38-.95-.82-1.54-1.97-1.58l-1.57-.05s-2.47-14.27-2.03-15.82.35-1.25.35-1.25c0,0,2.41-.05,2.8-.41s.66-.84.59-1.84c-.07-1-.76-1.86-.76-1.86l-.98-.51"/>
      <path class="cls-5" d="M90.28,96.3s-5.87-.21-6.76.94-2.05,5.38-1,14.9c1.06,9.52,2.06,11.33,3.16,11.84s2.58,1.14,4.18.96,1.3-.56,1.68-1.24.67-1.53.3-2.47-.3-1.4-1.45-1.43-1.38-.22-1.38-.22c0,0-1.09-14.9-.65-16.45s.35-1.25.35-1.25c.08-.2,2.06-.22,2.33-.3.51-.16.87-.74.8-1.74-.07-1-.16-2.12-.16-2.12l-.38-.77"/>
      <polyline class="cls-4" points="42.46 125.32 35.28 160.12 106.45 177.3 114.09 140.2"/>
      <g>
        <path class="cls-7" d="M54.61,151.49c-.16-.94-.67-1.74-1.38-2.2.54-1.08.29-2.45-.59-3.22-.49-.42-1.15-.63-1.82-.58-.65.05-1.22.34-1.62.82-.35.43-.29,1.06.14,1.41.43.35,1.06.29,1.41-.14.04-.05.13-.09.24-.1.13-.01.27.03.35.09.2.17.25.56.11.83-.11.21-.32.37-.57.46-.2.02-.39.06-.56.08-.51.09-.88.55-.83,1.07.04.52.51.92,1,.92.27,0,.53-.04.79-.1.33-.03.61-.02.82.08.27.13.5.49.57.91.15.87-.34,1.82-1.13,2.18-.31.14-.72.22-1.22.24-.64.03-1.14-.05-1.53-.24-.37-.18-.65-.5-.71-.81-.1-.54-.61-.91-1.16-.81-.54.1-.91.62-.81,1.16.17.95.84,1.79,1.8,2.26.57.28,1.22.42,1.97.45.17,0,.34,0,.52,0,.77-.03,1.42-.17,1.97-.42,1.6-.73,2.57-2.6,2.27-4.34Z"/>
        <path class="cls-7" d="M61.92,153.34c-.18-1.36-.39-2.72-.63-4.07-.11-.6-.53-.81-.71-.87-.44-.16-.94-.01-1.26.39l-4.99,6.23c-.35.43-.28,1.06.16,1.41.43.34,1.06.27,1.4-.16l1.99-2.48c.73.18,1.45.41,2.16.68.12.99.21,1.99.29,2.98.04.51.46.91.97.92.04,0,.07,0,.11,0,.55-.04.96-.52.92-1.07-.09-1.13-.21-2.25-.35-3.38.03-.2.02-.39-.06-.57ZM59.24,152.09l.41-.51c.03.22.06.43.09.65-.16-.05-.33-.09-.5-.14Z"/>
        <path class="cls-7" d="M70.36,150.48c-.52-.19-1.09.08-1.28.6-.24.65-.68,1.21-1.26,1.59-.48.32-1.04.49-1.61.53.3-1.05.57-2.13.74-3.23.08-.55-.29-1.06-.84-1.14-.55-.08-1.06.29-1.14.84-.22,1.48-.65,2.91-1.11,4.43-.3,1.01-.62,2.05-.86,3.12-.25.32-.28.81-.07,1.17.18.3.52.5.87.51.06,0,.13,0,.19-.01.35-.06.77-.32.88-.88.2-.93.48-1.88.75-2.8.05,0,.11,0,.14.01.03,0,.07,0,.1,0,.21,0,.42-.01.64-.03,0,0,.01.02.02.02.48.39.87.98,1.16,1.73.29.74.45,1.57.61,2.38.09.47.49.79.95.81.07,0,.15,0,.23-.02.54-.11.89-.63.79-1.18-.18-.89-.36-1.81-.71-2.71-.25-.65-.57-1.21-.95-1.7.11-.06.22-.11.33-.18.93-.62,1.65-1.53,2.03-2.58.19-.52-.08-1.09-.6-1.28Z"/>
        <path class="cls-7" d="M77.81,152.45c-.9-.57-1.91-.86-2.8-1.12-.27-.08-.56-.04-.8.11-.24.15-.41.39-.46.67-.46,2.49-1.19,4.94-2.14,7.29-.21.51.04,1.1.55,1.3.11.05.23.07.35.07.41.01.8-.23.96-.62.34-.83.65-1.68.93-2.54.97.42,2.06.58,3.11.44,1.03-.14,1.79-.61,2.14-1.34.19-.41.26-.88.18-1.41-.16-1.11-.9-2.15-2.01-2.86ZM77.83,155.84s-.17.17-.6.22c-.77.1-1.57-.04-2.26-.39.19-.7.36-1.4.52-2.11.45.15.87.33,1.25.57.61.39,1.02.94,1.1,1.46.03.18,0,.25,0,.25Z"/>
        <path class="cls-7" d="M85.3,157.13l-1.71-.8.69-2.65c.14-.53-.18-1.08-.71-1.22-.53-.14-1.08.18-1.22.71l-2.06,7.89c-.12.46.1.94.53,1.15,1.05.51,2.21.79,3.38.83h.05c.57.02,1.41-.03,2.1-.58.56-.45.89-1.16.99-2.09.08-.73-.01-1.33-.28-1.82-.43-.8-1.23-1.17-1.75-1.42ZM85.35,160.15c-.04.38-.14.65-.27.76-.09.07-.29.15-.79.14-.59-.02-1.25-.13-1.85-.32l.63-2.42,1.38.65c.29.13.72.34.84.55.05.08.09.27.05.66Z"/>
        <path class="cls-7" d="M91.42,154.35c-.52-.15-1.09.14-1.24.67-.74,2.48-1.55,4.99-2.41,7.45-.18.52.09,1.09.61,1.27.1.04.2.05.3.06.42.01.83-.25.97-.67.87-2.49,1.69-5.02,2.44-7.53.16-.53-.14-1.09-.67-1.24Z"/>
        <path class="cls-7" d="M101.35,157.86c-.6-.36-1.24-.51-1.8-.65l-5.37-1.31c-.54-.13-1.08.2-1.21.73-.13.54.2,1.08.73,1.21l2.83.69c-.61,2.07-1.2,4.17-1.75,6.28-.14.53.18,1.08.72,1.22.07.02.15.03.22.03.46.01.88-.29,1-.75.55-2.12,1.14-4.23,1.76-6.31l.6.15c.47.11.91.22,1.25.43.15.09.32.13.48.14.35.01.7-.16.89-.49.28-.48.13-1.09-.35-1.37Z"/>
        <path class="cls-7" d="M64.07,136.39c-.31-.26-.75-.3-1.11-.11-1.11.6-2.2,1.27-3.24,1.99-.23-1.25-.52-2.48-.88-3.69-.12-.41-.49-.69-.91-.71-.43,0-.81.23-.98.62l-2.9,7.12c-.21.51.04,1.09.55,1.3.51.21,1.1-.04,1.3-.55l1.75-4.28c.14.7.26,1.4.35,2.11.05.36.28.66.61.79.33.14.71.08.99-.14.7-.55,1.43-1.07,2.18-1.56-.36,1.37-.68,2.76-.94,4.14-.11.54.25,1.07.79,1.17.05.01.11.02.16.02.48.01.92-.32,1.01-.81.42-2.14.95-4.28,1.58-6.36.12-.39,0-.81-.32-1.06Z"/>
        <path class="cls-7" d="M66.74,145.34c.06,0,.11,0,.17,0,.73-.02,1.48-.34,2.15-.91.8-.68,1.34-1.54,1.82-2.3l2.15-3.43c.29-.47.15-1.09-.32-1.38-.47-.29-1.09-.15-1.38.32l-1.68,2.69-1.47-3.03c-.24-.5-.84-.71-1.34-.46-.5.24-.71.84-.47,1.34l1.99,4.1c-.18.23-.38.46-.59.64-.32.27-.65.43-.93.44-.21,0-.41-.1-.45-.2-.22-.51-.81-.74-1.31-.52-.51.22-.74.81-.52,1.31.36.83,1.22,1.38,2.18,1.41Z"/>
        <path class="cls-7" d="M78.69,138.47c-1.07-.48-2.33-.53-3.44-.14-.52.18-.8.75-.61,1.27.18.52.75.8,1.27.61.63-.22,1.35-.19,1.96.08.24.11.41.23.49.35.13.22,0,.65-.28.89-.34.3-.89.46-1.63.5-.55.02-.98.49-.95,1.04.02.55.5.99,1.03.96.5-.02.99.23,1.19.6.16.3.08.76-.15.92-.1.07-.25.12-.46.15-.52.09-1,.04-1.38-.15-.35-.18-.61-.5-.66-.83-.08-.55-.59-.93-1.14-.84-.55.08-.92.59-.84,1.14.14.96.81,1.85,1.74,2.32.49.25,1.06.38,1.65.4.32,0,.65-.02.98-.08.48-.09.87-.23,1.2-.45,1.11-.73,1.47-2.32.81-3.54-.09-.16-.19-.31-.3-.45.08-.06.15-.12.22-.18,1.03-.89,1.32-2.37.69-3.43-.29-.49-.76-.88-1.39-1.16Z"/>
        <path class="cls-7" d="M81.65,148.5l2.92.57c.05.01.11.02.16.02.48.01.92-.32,1.01-.81.11-.54-.25-1.07-.79-1.17l-1.79-.35.53-1.54c.45.1.89.24,1.31.44.13.06.27.09.4.1.38.01.76-.2.93-.57.24-.5.03-1.1-.47-1.33-.49-.23-1-.4-1.53-.53l.5-1.46c.83.1,1.65.29,2.44.56.53.18,1.09-.1,1.27-.63.18-.52-.1-1.09-.63-1.27-1.2-.41-2.45-.65-3.71-.73-.46-.04-.86.25-1.01.67l-2.31,6.73c-.09.27-.07.57.08.82s.39.43.67.48Z"/>
        <path class="cls-7" d="M88.44,150.4c.3.28.74.36,1.11.19,1.87-.86,3.68-1.86,5.41-2.98-.29,1.09-.53,2.19-.72,3.3-.09.54.27,1.06.82,1.16.05,0,.09.01.14.01.49.01.93-.33,1.01-.83.34-1.96.84-3.91,1.5-5.8.14-.42,0-.88-.36-1.14-.36-.26-.84-.26-1.19,0-1.65,1.24-3.39,2.36-5.21,3.33.49-1.45.9-2.93,1.22-4.42.12-.54-.23-1.07-.77-1.19-.54-.12-1.07.23-1.19.77-.48,2.21-1.15,4.39-2.01,6.49-.16.38-.06.82.23,1.1Z"/>
        <path class="cls-7" d="M94.52,143.74c.06,0,.12.01.17.02.49.01.98-.23,1.35-.7.3-.37.51-.82.62-1.28.12-.54-.21-1.08-.75-1.2-.31-.07-.61,0-.84.19-.13-.27-.38-.48-.7-.55-.54-.11-1.07.24-1.18.78-.11.5-.08,1.03.07,1.53.2.67.68,1.13,1.27,1.22Z"/>
      </g>
      <g>
        <path class="cls-3" d="M79.53,93.81h0c-4.92,1-9.72-2.17-10.72-7.08l-.89-4.35c-.19-.94.41-1.86,1.36-2.05l14.4-2.94c.94-.19,1.86.41,2.05,1.36l.89,4.35c1,4.92-2.17,9.72-7.08,10.72Z"/>
        <path class="cls-2" d="M87.35,83.17l-.58-3.73-.07-.47c-.02-.15-.04-.3-.1-.54-.1-.34-.26-.67-.49-.94-.06-.07-.12-.14-.18-.2-.32-.32-.72-.55-1.17-.67-.22-.06-.45-.09-.68-.09s-.49.05-.61.07c-.05.01-.09.02-.14.03-.02-.11-.04-.22-.06-.33l-.44-2.53c-.14-.86-.45-1.7-.89-2.47-.88-1.54-2.32-2.8-4.05-3.43-1.72-.63-3.7-.66-5.48,0-1.79.64-3.32,1.99-4.25,3.69-.89,1.69-1.23,3.76-.77,5.62.02.11.05.21.07.32.17.79.35,1.58.54,2.37-.18.08-.34.18-.49.29-.36.29-.64.66-.81,1.07-.17.42-.22.88-.17,1.31.04.24.08.39.12.54l.12.45.93,3.66c.61,2.57,2.29,4.82,4.47,6.15.93.59,1.96,1.01,3.02,1.25.83.2,1.69.27,2.54.25h.05s.02,0,.03,0h0s.14,0,.14,0c.18,0,.36-.01.54-.03h0s.59-.09.61-.09c0,0,.16-.03.31-.06.01,0,.02,0,.03,0,0,0-.01,0-.02,0,.15-.03.29-.06.34-.07,0,0,0,0,0,0,2.35-.54,4.49-1.99,5.88-3.99,1.49-2.08,2.14-4.8,1.7-7.41ZM78.56,77.49l-7.15,1.42c-.06-.39-.36-2.2-.42-2.59-.39-2.44,1.38-4.85,3.66-5.19,1.12-.2,2.3.03,3.24.67.93.64,1.62,1.61,1.85,2.73.18.88.38,1.75.58,2.63-.59.11-1.18.22-1.76.33Z"/>
        <path class="cls-2" d="M79.69,87.15l-.08-.18-.15-.35c-.19-.44-.38-.88-.55-1.33.62-.55.84-1.38.61-2.09.12.38.09.81-.1,1.16-.18.34-.49.61-.83.7l-.14-.59-.67-.03c-.25-.01-.54-.12-.75-.39-.21-.26-.32-.71-.12-1.14.18-.43.7-.79,1.28-.75.58.03,1.15.45,1.33,1.04-.18-.58-.66-1.07-1.28-1.28-.62-.21-1.42-.1-2.01.42-.6.5-.93,1.43-.69,2.3.16.65.65,1.22,1.28,1.53.06.3.12.61.2.91l.11.36.14.44c.22.66.96,1.04,1.57.87.62-.14,1.04-.77.93-1.34-.03-.17-.06-.21-.08-.27Z"/>
      </g>
      <g>
        <rect class="cls-6" x="69.23" y="70.39" width="2.61" height="11.51" transform="translate(-7.71 144.35) rotate(-88.27)"/>
        <path class="cls-2" d="M76.34,74.63c-1.91-.29-3.82-.49-5.74-.65-1.91-.15-3.83-.24-5.75-.32l-1.01-.04-.02,1.01-.04,2.61-.02.97.95.02c1.02.02,2.03-.01,3.04-.02,1.01-.01,2-.08,2.99-.12.97-.07,1.94-.12,2.85-.21.93-.07,1.81-.17,2.66-.26l-3.1-.43-2.9-.39c-.94-.1-1.86-.22-2.77-.3-.58-.04-1.16-.09-1.74-.13l.03-.69c1.59.03,3.18.05,4.77.02,1.81-.04,3.63-.12,5.45-.28.08.67.19,1.38.25,2.2.13-.75.34-1.63.46-2.6l.04-.33-.41-.06Z"/>
      </g>
      <g>
        <path class="cls-2" d="M147.71,66.06c-.38-4-1.07-7.98-2.11-11.88-4.13-15.61-13.83-29.64-26.79-39.32C105.88,5.09,89.62-.09,73.43,0c-16.22.05-32.35,5.6-45.18,15.48-6.37,4.99-11.98,10.95-16.43,17.7-4.44,6.74-7.8,14.22-9.69,22.06-.96,3.91-1.64,7.89-1.93,11.9-.11,2.01-.26,4.01-.18,6.02l.06,3.01c.04,1,.17,2,.25,3,.77,7.98,2.8,15.84,6.21,23.06l1.31,2.69c.42.9.97,1.74,1.45,2.61.51.86.96,1.74,1.51,2.57l1.66,2.48.83,1.24.91,1.18,1.82,2.36c.62.77,1.3,1.5,1.95,2.24.67.73,1.28,1.51,2.01,2.18,5.53,5.66,11.97,10.39,18.95,13.96-3.57-2.14-6.95-4.58-10.11-7.26.24-2.84.3-5.68.3-8.51.01-2.98-.09-5.94-.22-8.91-.17-2.97-.36-5.93-.66-8.89-.29-2.96-.66-5.92-1.22-8.86-.27,2.99-.34,5.97-.34,8.94-.01,2.98.09,5.94.22,8.91.17,2.97.36,5.93.66,8.89.28,2.78.62,5.55,1.12,8.32-2.74-2.33-5.32-4.85-7.69-7.53-.87-.99-1.7-2.01-2.51-3.04.25-1.88.35-3.75.37-5.61.03-2-.01-4-.13-6-.11-1.99-.31-3.98-.57-5.97-.26-1.99-.6-3.97-1.13-5.94-.3,2.02-.4,4.03-.43,6.03-.03,2,0,4,.13,6,.12,1.99.31,3.98.57,5.97.23,1.75.53,3.49.95,5.23-3.87-4.99-7.06-10.48-9.49-16.27-1.48-3.46-2.63-7.04-3.49-10.68,11.63-.06,23.26-.25,34.87-.56,11.7-.29,23.34-.69,35.08-1.12,11.71-.46,23.38-.95,35.07-1.56,11.15-.55,22.31-1.23,33.45-2.01-.21,1.33-.44,2.65-.69,3.98-.89,3.73-1.9,7.45-3.39,11.01-.65,1.82-1.52,3.54-2.33,5.29-.17.4-.38.79-.59,1.17.03-.75.04-1.49.03-2.24-.03-1.6-.12-3.19-.29-4.78-.17-1.59-.42-3.16-.73-4.73-.32-1.57-.7-3.13-1.29-4.67-.24,1.63-.29,3.24-.26,4.84.03,1.6.12,3.19.3,4.78.17,1.59.42,3.16.73,4.73.23,1.12.49,2.23.83,3.33-.02.04-.05.08-.07.13-.48.84-.89,1.72-1.43,2.52-1.04,1.63-2.03,3.29-3.22,4.83-.58.78-1.12,1.59-1.73,2.33l-1.41,1.72c-.05-2.34-.22-4.67-.45-6.99-.26-2.68-.63-5.35-1.02-8.02-.43-2.66-.89-5.31-1.46-7.95-.56-2.64-1.19-5.26-2.01-7.85,0,2.73.2,5.42.47,8.1.26,2.68.63,5.35,1.02,8.01.43,2.65.89,5.3,1.46,7.94.5,2.36,1.06,4.71,1.76,7.04l-.21.25c-.6.77-1.28,1.46-1.94,2.18-.67.7-1.31,1.44-2,2.12-1.43,1.32-2.78,2.73-4.31,3.94-.74.66-1.5,1.29-2.28,1.91.11-3.29.01-6.58-.19-9.85-.2-3.4-.55-6.79-.96-10.17-.45-3.37-.96-6.74-1.61-10.08-.65-3.34-1.4-6.67-2.38-9.95.17,3.42.49,6.8.84,10.18.34,3.38.76,6.74,1.17,10.1.44,3.36.88,6.72,1.39,10.08.48,3.25,1.01,6.5,1.67,9.74-2.27,1.78-4.68,3.39-7.11,4.95,6.9-3.7,13.35-8.43,18.74-14.23,5.41-5.77,9.93-12.45,13.13-19.76,1.68-3.62,2.86-7.46,3.92-11.31.88-3.9,1.66-7.84,1.9-11.85.38-3.99.31-8.03-.07-12.03ZM81.47,67.06c-.35-10.58-.72-21.17-1.21-31.75l-.8-16.37c-.28-4.6-.53-9.2-.83-13.8,1.09.07,2.17.16,3.26.28-.04,4.28-.02,8.56-.04,12.84.03,5.13.07,10.27.14,15.4.13,10.27.38,20.53.65,30.8h0c.02.55.48.99,1.03.97,10.29-.3,20.57-.62,30.85-1.06,5.14-.21,10.28-.45,15.42-.71,4.55-.27,9.1-.5,13.64-.8.18,1.04.33,2.08.47,3.12-4.87-.02-9.73.03-14.59.04l-16.33.23c-10.55.18-21.11.48-31.66.8ZM97.91,9.09c.88.78,1.78,1.54,2.72,2.25.73.56,1.49,1.08,2.26,1.59.13,4.89.31,9.78.49,14.67l.3,7.38.33,7.23c-1.29,1.26-2.58,2.51-3.85,3.79-2.54,2.53-5.04,5.09-7.53,7.67.23-3.78.33-7.55.36-11.33.05-4.22-.02-8.44-.12-12.66-.13-4.22-.29-8.43-.56-12.65-.2-3.3-.45-6.59-.8-9.89,2.16.54,4.29,1.18,6.39,1.93ZM139.76,49.3c.5,1.26.97,2.54,1.4,3.83-1.45-.03-2.91-.05-4.36-.07-2.11-.03-4.22-.05-6.33-.03-4.22.01-8.44.07-12.66.17-4.22.07-8.43.24-12.65.38-3.52.14-7.03.29-10.55.48,2.15-2.4,4.29-4.81,6.4-7.25,1.11-1.27,2.2-2.56,3.28-3.85.16.14.36.21.58.2l13.79-1.01,6.89-.55,3.45-.26c.79-.05,1.58-.12,2.37-.16,1.04,1.23,2.13,2.43,3.27,3.58,1.19,1.21,2.44,2.35,3.74,3.45.45.38.91.74,1.38,1.1ZM105.5,34.92l-.18-7.38c-.13-4.45-.26-8.9-.42-13.35.82.48,1.65.93,2.53,1.33,0,.01,0,.02-.02.04-.02.06-.04.11-.05.17l-.02.13c-.02.14-.03.22-.03.31l-.03.49-.02.94v1.85s.06,3.67.06,3.67c.12,4.89.46,9.77.79,14.66v.04s0,0,0,0c0,.12.07.22.14.3-.89.83-1.76,1.68-2.63,2.53l-.12-5.75ZM108.34,16.89h.02s0,0,0,0c-.17,0-.3-.04-.24-.03h.03s.06.01.06.01h.13ZM108.43,14.94s-.07,0,0,0h.07s.03.02.03.02h.02c.05.02-.08-.02-.25-.02-.2,0-.41.09-.58.22-.45-.54-.93-1.05-1.42-1.54l1.55-.11c.8.43,1.59.88,2.38,1.35l-1.8.08ZM132.33,39.91c-1.3-1.1-2.65-2.15-4.14-3.06.9,1.49,1.94,2.84,3.03,4.14.02.03.04.05.07.08-1.91-.09-3.83-.05-5.75-.05l-6.92.08c-4.33.09-8.66.23-12.98.39v-.13c.89-1.05,1.78-2.11,2.65-3.18.1.08.22.13.36.12l9.77-.79,4.89-.33c1.63-.1,3.26-.16,4.89-.33-1.63.14-3.26.17-4.89.25l-4.9.12-9.25.04c.06-4.72.14-9.44.1-14.15l-.02-3.66v-1.82s0-.79,0-.79c1.01-.06,1.95-.15,2.93-.25.25-.02.49-.05.74-.07,1.05.69,2.08,1.4,3.09,2.15,4.46,3.22,8.51,7,12.08,11.2l.08,1.74.07,2.62c0,.87.07,1.75-.04,2.62.12-.86.07-1.75.08-2.62l-.03-2.63v-1.55c1.2,1.43,2.35,2.91,3.44,4.43l.17,1.47.31,2.59c.05.45.11.91.17,1.36h0ZM104.34,11.81c-.06-.05-.12-.11-.18-.16.1.05.21.1.31.15h-.13ZM90.88,29.75c.13,4.22.29,8.43.56,12.65.24,3.84.54,7.67.99,11.5-.17.18-.34.35-.51.53-.15.16-.25.38-.24.62,0,.48.41.87.89.86h.03c4.22-.07,8.43-.21,12.65-.35,4.21-.17,8.43-.31,12.64-.55,4.21-.21,8.42-.46,12.63-.76,2.11-.14,4.21-.31,6.31-.5,1.47-.13,2.94-.25,4.41-.39.21.63.42,1.25.6,1.88.72,2.46,1.28,4.97,1.72,7.5-4.55-.05-9.1-.03-13.65-.06-5.15.02-10.29.06-15.44.13-9.96.12-19.92.34-29.87.6-.3-9.93-.62-19.86-1.06-29.79-.21-5.13-.46-10.26-.72-15.39-.26-4.26-.48-8.53-.76-12.79,3.02.34,6.02.88,8.98,1.61-.18,3.35-.26,6.7-.28,10.05-.05,4.22.02,8.44.12,12.66ZM138.12,45.53c-.66-.74-1.34-1.47-2.05-2.17-1.16-1.16-2.36-2.27-3.62-3.34-.01-.49-.03-.99-.04-1.48l-.11-2.61-.03-.59c2.06,2.94,3.87,6.05,5.43,9.29.15.3.28.61.42.91ZM70.16,18.89l.28,16.25.4,16.25.48,15.25c-11.18.38-22.36.8-33.54,1.33-5.75.26-11.51.56-17.26.88-5.64.36-11.29.65-16.93,1.07.06-.82.13-1.64.19-2.45.02-.25.06-.5.09-.76,5.35.02,10.69-.09,16.04-.13,5.46-.09,10.91-.2,16.37-.34,10.91-.27,21.82-.65,32.72-1.08h0s0,0,0,0c.55-.02.97-.48.95-1.03l-.64-15.3-.75-15.3-.87-15.3c-.3-4.29-.56-8.59-.88-12.88,1.08-.1,2.16-.18,3.25-.24,0,4.6.06,9.19.09,13.78ZM57.45,30.01c.19,4.23.39,8.46.72,12.69.28,3.84.63,7.68,1.13,11.52-2.69-2.44-5.4-4.86-8.12-7.27-1.61-1.4-3.21-2.81-4.82-4.21.03-2.21.05-4.41.04-6.62v-7.39c-.03-4.87-.11-9.74-.18-14.61.89-.67,1.77-1.36,2.61-2.09,1.18-1.02,2.3-2.09,3.38-3.22.2-.21.39-.43.58-.65,1.5-.46,3.02-.88,4.55-1.24-.15,3.47-.19,6.93-.17,10.39,0,4.24.13,8.47.28,12.7ZM41.63,16.71c-.15-.11-.33-.19-.47-.18l-.26.03s.05-.02.08-.02c.03,0-.03,0-.04,0h-.14s-.31,0-.31,0h-.62s-1.25-.02-1.25-.02l-2.52-.05-.95-.02c.82-.53,1.65-1.05,2.5-1.55l5.48-.05c-.53.59-1.02,1.21-1.5,1.86ZM44.74,13.14l-3.88-.05c2.54-1.34,5.15-2.53,7.83-3.54-.39.32-.79.63-1.17.96-.97.83-1.89,1.71-2.79,2.62ZM21.16,28.38c.08,1.88.17,3.76.28,5.65.08,1.4.15,2.8.29,4.21.03.36.07.71.12,1.09l.03.16v.08s.02.04.02.04v.02s.02.08.04.12c.04.13.14.26.25.37-.89.92-1.77,1.85-2.64,2.78l.02-.62.05-1.86.1-3.73.18-6.83c.42-.5.85-.99,1.29-1.47ZM18.45,44.87c.09.04.18.07.23.07l.78-.52c-.03.12-.11.27-.24.36-.06.05-.13.08-.19.1-.03,0-.06.02-.09.02h0s.08-.01.08-.01c.05,0,.1-.02.18-.02l.41-.04.85-.06,1.72-.09,3.45-.15,6.91-.31c4.61-.25,9.21-.42,13.82-.71-2.31-.09-4.61-.15-6.92-.19l-6.92-.12-6.92-.03-3.46.03-1.74.03-.63.02c.82-1.02,1.65-2.05,2.46-3.08.02.01.03.03.04.04.19.13.18.09.23.11.08.01.17.03.26.03.21.02.27,0,.36,0h.27s2.11-.07,2.11-.07c2.8-.12,5.6-.26,8.39-.45,2.8-.2,5.59-.36,8.38-.62-2.8-.12-5.6-.15-8.4-.23-2.8-.07-5.6-.09-8.39-.12l-2.09-.03h0s-.04-.7-.04-.7l-.14-4.18-.2-7.55c2.52-2.59,5.23-4.98,8.11-7.17.43-.32.87-.62,1.31-.93,1.22,0,2.44,0,3.66,0l2.52-.03,1.26-.02h.57s.06.53.06.53l.13,1.35.22,2.72.44,5.45.48,5.45c.15,1.82.32,3.64.51,5.45.05-1.83.07-3.65.08-5.48,0-1.83.03-3.65,0-5.48-.03-1.83-.04-3.65-.09-5.48l-.09-2.74-.06-1.38-.05-.7-.03-.37-.03-.21-.03-.14s-.03-.09-.05-.15c-.02-.04,0-.03-.05-.11,0,0,0-.01-.01-.02.95-.51,1.86-1.07,2.74-1.68.23,4.49.46,8.99.73,13.48l.48,7.37c.14,2.18.3,4.36.47,6.53-1.33-1.16-2.66-2.32-4.02-3.46,1.34,1.41,2.71,2.8,4.07,4.18,0,.04,0,.08,0,.11,0-.03,0-.07,0-.1,1.39,1.41,2.79,2.81,4.18,4.23,2.35,2.35,4.71,4.68,7.08,7-8.05.09-16.09.27-24.13.49l-12.96.44c-3.76.15-7.52.31-11.27.49l2.58-3.09,3.65-4.43c.98-1.22,1.97-2.44,2.96-3.65ZM15.45,35.62c.79-1.16,1.62-2.28,2.48-3.38l-.04,4.41-.02,3.74v1.87s0,.94,0,.94v.47s.01.24.01.24v.13s0,.03,0,.03c0,.07.02.22.09.36,0,.02.03.03.04.05-1.07,1.15-2.14,2.29-3.22,3.43l-3.9,4.22-2.64,2.89c.06-.43.08-.86.04-1.28-.05-.51-.16-1-.36-1.5-.13-.32-.29-.64-.51-.95,1.99-5.55,4.72-10.82,8.01-15.69ZM6.41,54.47c.06.32.14.65.27.97.12.29.26.57.45.85l-.09.1c-.12.13-.19.31-.19.5,0,.25.14.47.33.6-.13.43-.22.85-.29,1.28-.13.8-.17,1.6-.15,2.4.02.8.11,1.6.28,2.4.18.8.41,1.61.84,2.42.4-.79.58-1.59.72-2.4.13-.8.17-1.61.16-2.42-.02-.81-.11-1.62-.27-2.42-.08-.38-.18-.75-.3-1.13,4.14-.03,8.29-.11,12.43-.19l12.96-.31c8.64-.27,17.28-.57,25.92-1h.03c.19-.01.38-.09.52-.25.28-.31.26-.79-.05-1.07-.16-.14-.32-.28-.47-.42.2-3.92.25-7.84.23-11.75,0-4.24-.13-8.47-.28-12.7-.18-4.23-.39-8.46-.72-12.69-.26-3.48-.57-6.95-.99-10.42,1.46-.34,2.93-.65,4.41-.9,1.5-.24,3-.42,4.51-.57,0,4.3.07,8.6.1,12.9l.29,15.32.41,15.31.48,14.32c-10.58.41-21.15.87-31.72,1.43-5.45.28-10.9.6-16.35.93-5.33.37-10.66.68-15.99,1.12.39-3.54,1.08-7.03,2.01-10.45.16-.59.34-1.17.52-1.76ZM110.26,85.77c-11.69.29-23.4.69-35.07,1.12-11.64.47-23.38.96-35.05,1.56-11.62.57-23.24,1.28-34.85,2.1-.4-1.72-.73-3.45-1-5.19,4.58.16,9.14.14,13.7.04,4.65-.09,9.29-.29,13.92-.51,4.64-.26,9.27-.55,13.9-.95,4.63-.39,9.26-.85,13.87-1.51-4.66-.17-9.31-.14-13.95-.04-4.65.08-9.29.29-13.92.51-4.64.26-9.27.55-13.9.95-4.55.38-9.09.84-13.63,1.48-.33-2.12-.56-4.26-.69-6.4-.04-.96-.14-1.91-.15-2.87l.02-2c4.56.25,9.11.32,13.66.32,4.65.01,9.3-.09,13.95-.22,4.65-.17,9.3-.36,13.94-.67,4.64-.29,9.29-.66,13.92-1.22-4.66-.27-9.32-.33-13.97-.33-4.65-.01-9.3.09-13.95.22-4.65.17-9.3.36-13.94.66-4.54.29-9.08.65-13.61,1.19v-.82c-.01-1.09.04-2.17.12-3.25,5.66.03,11.31-.06,16.97-.08,5.76-.08,11.52-.17,17.28-.29,11.52-.24,23.03-.58,34.54-.97h0c.55-.02.97-.48.95-1.03l-.63-16.24-.74-16.24-.86-16.23c-.3-4.59-.56-9.18-.88-13.76,1.08-.05,2.15-.09,3.23-.1.09,0,.18,0,.28,0-.11,4.52-.09,9.04-.02,13.55.07,5.35.26,10.7.48,16.04.25,5.34.53,10.69.92,16.02.38,5.34.83,10.67,1.47,16,.18-5.36.17-10.72.08-16.07-.07-5.35-.26-10.7-.47-16.04-.25-5.34-.52-10.69-.91-16.02-.32-4.5-.7-8.99-1.19-13.48,1.46,0,2.92.04,4.38.13-.02,4.61.02,9.23.03,13.84l.22,16.38c.18,10.92.48,21.84.8,32.76h0c.02.56.48.99,1.03.97,10.88-.37,21.76-.76,32.64-1.27l16.31-.81c4.86-.3,9.72-.57,14.58-.9.01.11.03.23.05.34.08.65.14,1.3.2,1.95-3.68-.16-7.36-.2-11.03-.18-4.25.01-8.49.14-12.73.3-4.24.19-8.48.4-12.71.74-4.23.32-8.47.71-12.69,1.3,4.26.24,8.51.29,12.75.26,4.25-.01,8.49-.14,12.73-.3,4.24-.19,8.48-.41,12.71-.74,3.67-.28,7.34-.61,11-1.08.27,3.06.34,6.13.17,9.2-.01.45-.05.9-.08,1.35-3.66-.21-7.32-.3-10.98-.32-4.2-.04-8.39.04-12.58.14-4.19.14-8.38.3-12.57.58-4.19.27-8.37.61-12.55,1.14,4.2.3,8.4.39,12.6.42,4.2.04,8.39-.04,12.58-.14,4.19-.14,8.38-.3,12.57-.58,3.64-.23,7.28-.53,10.92-.95-.12,1.91-.34,3.81-.63,5.7-11.18.07-22.35.24-33.52.54Z"/>
        <path class="cls-2" d="M95.31,96.65c-.43-.76-.99-1.59-1.93-2.07-.93-.5-1.98-.44-2.8-.17-.33.11-.64.26-.93.42.02-.09.05-.18.07-.28.11-.58.15-1.16.12-1.74-.03-.57-.13-1.14-.31-1.71-.19-.57-.43-1.13-.88-1.68-.39.6-.56,1.18-.69,1.77-.11.58-.15,1.16-.12,1.74.03.58.13,1.15.31,1.71.14.41.31.82.56,1.23,0,.04.01.08.03.11,0-.02,0-.03,0-.04.07.11.15.22.23.32-.65-.02-1.3-.03-1.94,0-.99.07-1.97.05-3,.34-.51.15-1.04.45-1.4.92-.36.46-.55,1-.67,1.51-.22,1.04-.26,2-.36,3-.34,3.96-.26,7.96.14,11.92.2,1.97.46,3.95.8,5.9-.36-.13-.72-.24-1.07-.33-.51-.12-1.02-.19-1.54-.23.05-2.85-.03-5.71-.17-8.55-.18-2.97-.42-5.93-.81-8.88-.38-2.95-.85-5.89-1.56-8.8-.12,2.99-.07,5.96,0,8.92.07,2.96.22,5.91.36,8.87.17,2.8.34,5.61.57,8.41-.41.02-.81.06-1.22.13-.47.09-.94.2-1.41.38-.15-.17-.32-.33-.49-.49-.74-.63-1.67-.94-2.57-.96-.73,0-1.46.24-1.98.69-.29-1.6-.56-3.19-.78-4.79-.15-1-.29-1.99-.39-3-.12-1-.24-2-.32-3.01-.08-1-.18-2.01-.23-3.02l-.09-1.51s0-.02,0-.04c.01,0,.02,0,.04,0-.01.63.26,1.29.78,1.78.67.61,1.68.84,2.61.58.99-.23,1.69-1.09,2.08-1.82.39-.77.62-1.45.78-2.32.15-.86,0-1.87-.36-2.63-.38-.76-.79-1.43-1.43-2.01-.61-.58-1.48-1.03-2.39-.98-.86.05-1.74.57-1.91,1.35.56-.51,1.27-.54,1.83-.37.55.16.97.58,1.32,1.05.29.44.57.95.75,1.46-.01.01-.02.02-.03.03-.12.17-.24.38-.36.81.16.41.3.61.44.76.05.05.11.09.16.12,0,.04,0,.07,0,.1,0,.05-.02.11-.03.17-.12.05-.26.11-.44.2-.21.38-.26.63-.26.84,0,.2.07.35.19.45.02.02.06.03.09.04-.01.04-.03.08-.04.11-.01.03-.03.05-.04.08,0,0-.01-.01-.03-.02-.2-.08-.45-.15-.9-.18-.35.29-.48.52-.57.74-.07.22-.07.41,0,.57.02.05.06.09.1.14-.32.06-.68.05-1.01-.09-.42-.17-.81-.51-1.08-.98.44,0,.95.03,1.52-.08.64-.1,1.29-.61,1.49-1.2.24-.58.22-1.2.05-1.72-.15-.53-.43-.98-.69-1.42.24.99.41,2.08-.09,2.77-.47.68-1.22.48-2.33.29-.14-.02-.28-.03-.44-.04-.13,0-.34-.03-.67.1-.16.06-.36.21-.47.39-.12.17-.16.34-.19.46-.04.27-.04.37-.05.5-.03.52-.07,1.04-.07,1.56-.01,1.04-.02,2.08.04,3.11.1,2.08.35,4.14.73,6.19.39,2.04.93,4.05,1.61,6.01l.05.13c.02.07.06.14.11.2.22.25.6.27.84.06.26-.22.62-.35,1.01-.38,0,.1,0,.18.01.25,0,.15.02.22.03.21.01,0,.03-.07.05-.21,0-.07.02-.15.02-.24.34,0,.68.06.98.24.68.4,1.17,1.33,1,2.3.48-.86.33-2.12-.52-2.91-.39-.37-.9-.6-1.43-.69,0-.11,0-.19-.01-.26,0-.04,0-.06,0-.09.98.08,1.86.61,2.39,1.25.81,1.01,1.07,2.39,1.05,3.79,0,.02,0,.04,0,.06-.21,0-.44.03-.78.16-.17.42-.19.7-.18.94.02.23.1.41.23.53.1.1.25.16.41.2-.07.19-.16.36-.26.52-.08-.1-.18-.19-.35-.25-.22-.07-.48-.11-.93-.07-.3.33-.41.57-.47.79-.05.19-.03.35.03.49-.33.03-.67.02-.99-.05-.66-.13-1.32-.48-1.68-1.21.31-.06.61-.14.92-.23.45-.16.9-.37,1.27-.67.37-.31.66-.72.76-1.18-.41.86-1.33,1.18-2.17,1.31-.86.12-1.78.12-2.61-.02-1.69-.22-2.78-1.56-3.33-3.11-.52-1.56-.74-3.42-1.03-5.2-.28-1.79-.54-3.58-.75-5.38-.43-3.6-.94-7.19-.18-10.56.09-.42.22-.83.36-1.24.14-.42.29-.76.45-.93.31-.35,1.44-.45,2.27-.61,1.74-.29,3.6-.41,5.18.59-.64-.66-1.52-1.12-2.45-1.33-.93-.23-1.89-.25-2.82-.24-.47.01-.93.05-1.39.08-.46.04-1.05.08-1.62.5-.55.43-.76.97-.96,1.39-.2.44-.38.9-.52,1.36-.61,1.85-.75,3.79-.75,5.67.03,1.89.24,3.72.44,5.55.24,1.83.52,3.65.87,5.46.18.9.38,1.8.58,2.71.2.91.45,1.85.87,2.76.41.91,1,1.79,1.81,2.44.8.67,1.88,1.03,2.87,1.05.66,0,1.29-.06,1.91-.18-.1.84.55,1.69,1.33,2.12.8.45,1.77.62,2.74.4,1.03-.2,1.89-1.06,2.31-1.92.44-.88.58-1.8.61-2.69.02-1.14-.2-2.37-.78-3.45.23.07.45.14.68.19.47.11.95.18,1.43.22.22,2.46.47,4.92.84,7.38.32-2.44.47-4.89.55-7.33.51-.01,1.02-.05,1.53-.14.43-.08.86-.18,1.29-.33l.11.57c.1.49.2,1.05.47,1.64.24.59.78,1.2,1.35,1.52.57.34,1.14.5,1.65.63.08.02.15.03.23.05-.11.75.18,1.59.66,2.22.64.82,1.59,1.43,2.67,1.63,2.2.47,4.64-.97,5.32-3.19.33-1.05.42-2.05.32-3.1-.13-1.03-.44-2.1-1.14-2.95-.66-.88-1.72-1.45-2.75-1.56-.35-.04-.7,0-1.04.07.26-1.34.38-2.66.42-3.98.05-1.43.03-2.85-.07-4.27-.09-1.42-.27-2.83-.51-4.24-.13-.76-.29-1.52-.48-2.28.25.26.54.48.87.63.83.42,1.95.42,2.84-.03.91-.42,1.58-1.2,2.02-2.06.44-.89.55-1.89.46-2.82-.11-.93-.4-1.81-.83-2.59ZM68.61,103.67s0,0,0,0c-.06.02-.04,0,0,0ZM71.68,119.23c0,.07-.02.15-.02.24-.29-.03-.59-.02-.89.03-.02-.09-.03-.18-.05-.26.33-.09.66-.12.97-.1,0,.03,0,.05-.01.09ZM86.83,125.23c.56.12,1.12.23,1.69.33-.11.04-.21.09-.3.15-.21.14-.34.31-.41.5-.04.11-.05.23-.05.36-.41-.34-.76-.79-.92-1.34ZM89.29,127.35c.2-.13.32-.29.39-.46.06-.18.07-.38,0-.62-.06-.17-.14-.35-.3-.57.54.06,1.33.08,2.03-.38.71-.46,1.03-1.18,1.18-1.76.08.34.19.56.31.72.14.18.29.28.46.31.03,0,.06,0,.09,0-.04.2-.1.4-.15.59,0,.01-.01.02-.02.04-.06-.03-.12-.07-.2-.09-.25-.06-.53-.09-.97.04-.2.41-.26.67-.28.91-.01.22.03.4.12.53.05.07.11.12.18.18-.1.07-.2.14-.31.2,0-.02,0-.05,0-.08-.02-.18-.1-.36-.25-.54-.16-.18-.37-.37-.78-.59-.42.19-.63.41-.79.64-.14.23-.19.46-.17.69.01.12.04.23.09.34-.21-.02-.42-.05-.63-.1ZM93.08,120.65c.05.08.08.17.12.26-.06.1-.12.22-.19.38.03.43.12.65.23.83.1.15.22.23.34.24.01.09.01.19.02.29-.12,0-.25.03-.39.1-.18.11-.36.26-.58.55.11-.51.14-1,.16-1.45,0-.27.02-.61-.12-1.05-.12-.45-.55-.91-.87-1.08-.7-.39-1.38-.6-2.07-.72.58-.1,1.16-.03,1.67.18.76.3,1.32.82,1.68,1.48ZM88.85,107.38c-.03-.3-.07-.6-.1-.9-.1-1.1-.33-2.23-.16-3.15.08-.45.29-.86.62-1.15.01-.01.03-.02.04-.03-.23,1.25-.34,2.5-.38,3.74-.02.49-.01.99-.01,1.48ZM89.47,118.73c.08-1.38.08-2.75.02-4.12.22,1.24.51,2.49.93,3.71-.35.09-.67.21-.95.4ZM93.25,102.41c-.14-.14-.32-.29-.67-.49-.44.07-.67.21-.85.37-.16.16-.25.33-.25.51,0,.15.06.29.16.43-.17.01-.34,0-.53-.02-.51-.06-1.02-.26-1.44-.65-.06-.19-.12-.37-.19-.56.26-.12.57-.13,1.03-.12.29-.01.69-.03,1.01-.34.31-.33.3-.7.35-.94.08-.55.16-1.12.13-1.7,0-1.14-.71-2.41-1.85-2.6.54.16.94.58,1.17,1.06.24.48.31,1.01.28,1.54-.03.53-.15,1.06-.28,1.59-.13.64-.24.7-.79.66-.25-.02-.54-.07-.89-.04-.35.03-.69.17-.97.37-.56.39-.94.99-1.1,1.62-.17.62-.17,1.24-.16,1.81l.06,1.67c.2,4.44.56,8.85.06,13.14v.09c-.02.51.39.93.89.94h.03c.41,0,.83.07,1.23.18.2.06.4.12.59.19.18.07.41.18.5.23.02.02.04.03.05.03,0,0,0,0,0,0,.01.03.03.19.02.42-.01.45-.05.88-.15,1.23-.09.36-.24.56-.37.63-.11.08-.35.12-.77.06-.89-.16-1.87-.36-2.78-.54-.44-.11-.83-.23-1.11-.39-.28-.17-.43-.33-.58-.64-.28-.61-.42-1.7-.62-2.63-.36-1.92-.7-3.84-.95-5.77-.51-3.86-.78-7.76-.74-11.66.02-.96.03-1.98.12-2.88.1-.91.5-1.66,1.36-1.99.84-.33,1.86-.44,2.82-.59.97-.13,1.95-.26,2.93-.33-.31-.02-.63-.02-.94-.03.16-.26.28-.51.38-.76.06,0,.11-.02.18-.03.39-.06.76-.11,1.13-.1.73-.02,1.38.18,1.81.53.42.36.76.89,1.02,1.52-.07.04-.13.09-.2.16-.15.15-.31.35-.55.73.1.44.29.67.49.84.2.16.43.22.65.2.05,0,.1-.03.16-.05,0,.05.02.09.03.14.02.2.02.4.02.59-.23.02-.49.08-.9.28-.15.41-.15.68-.12.91.04.22.14.39.29.5.07.05.15.1.24.12-.12.2-.26.39-.43.57Z"/>
        <path class="cls-2" d="M59.77,63.03c.39-.58.57-1.15.7-1.72.12-.57.16-1.13.13-1.69-.03-.56-.13-1.11-.3-1.67-.19-.55-.42-1.1-.87-1.64-.39.58-.56,1.15-.69,1.72-.12.57-.16,1.13-.13,1.69.03.56.13,1.11.3,1.67.19.55.43,1.1.87,1.64Z"/>
        <path class="cls-2" d="M62.42,19.09c.55,0,1.09-.28,1.38-.71.3-.43.35-.96.21-1.37-.14-.42-.43-.71-.72-.86-.29-.16-.58-.22-.86-.22.29,0,.56.17.67.42.11.25.06.52-.09.67-.14.16-.32.19-.43.16-.11-.02-.13-.08-.16-.07-.02,0-.05.05-.16.07-.11.03-.28,0-.43-.16-.14-.15-.2-.42-.09-.67.11-.24.38-.42.67-.41-.28,0-.57.06-.86.22-.29.15-.58.45-.72.86-.15.41-.09.95.2,1.38.29.43.83.71,1.38.71Z"/>
        <path class="cls-2" d="M63.95,30.33c.11.25.06.52-.09.67-.14.16-.32.19-.43.16-.11-.02-.13-.08-.16-.07-.02,0-.05.05-.16.07-.11.03-.28,0-.43-.16-.14-.15-.2-.42-.09-.67.11-.24.38-.42.67-.41-.28,0-.57.06-.86.22-.29.15-.58.45-.72.86-.15.41-.09.95.2,1.38.29.43.83.71,1.38.71.55,0,1.09-.28,1.38-.71.3-.43.35-.96.21-1.37-.14-.42-.43-.71-.72-.86-.29-.16-.58-.22-.86-.22.29,0,.56.17.67.42Z"/>
        <path class="cls-2" d="M64.8,44.33c.11.25.06.52-.09.67-.14.16-.32.19-.43.16-.11-.02-.13-.08-.16-.07-.02,0-.05.05-.16.07-.11.03-.28,0-.43-.16-.14-.15-.2-.42-.09-.67.11-.24.38-.42.67-.41-.28,0-.57.06-.86.22-.29.15-.58.45-.72.86-.15.41-.09.95.2,1.38.29.43.83.71,1.38.71.55,0,1.09-.28,1.38-.71.3-.43.35-.96.21-1.37-.14-.42-.43-.71-.72-.86-.29-.16-.58-.22-.86-.22.29,0,.56.17.67.42Z"/>
        <path class="cls-2" d="M64.19,56.9c-.54.04-1.06.36-1.32.81-.26.45-.28.99-.11,1.39.17.4.48.68.78.81.3.14.59.18.88.16-.29.02-.57-.13-.7-.36-.13-.24-.1-.51.03-.67.13-.17.31-.21.42-.19.11.01.14.07.16.06.02,0,.04-.05.15-.08.1-.03.28-.02.44.12.15.14.23.41.14.66-.09.25-.35.44-.64.46.28-.02.57-.1.85-.28.28-.17.55-.49.66-.91.11-.42.02-.95-.31-1.36-.32-.4-.88-.65-1.43-.6Z"/>
        <path class="cls-2" d="M47.58,61.08c.3.14.59.18.88.16-.29.02-.57-.13-.7-.36-.13-.24-.1-.51.03-.67.13-.17.31-.21.42-.19.11.01.14.07.16.06.02,0,.04-.05.15-.08.1-.03.28-.02.44.12.15.14.23.41.14.66-.09.25-.35.44-.64.46.28-.02.57-.1.85-.28.28-.17.55-.49.66-.91.11-.42.02-.95-.31-1.36-.32-.4-.88-.65-1.43-.6-.54.04-1.06.36-1.32.81-.26.45-.28.99-.11,1.39.17.4.48.68.78.81Z"/>
        <path class="cls-2" d="M31.02,61.69c.3.14.59.18.88.16-.29.02-.57-.13-.7-.36-.13-.24-.1-.51.03-.67.13-.17.31-.21.42-.19.11.01.14.07.16.06.02,0,.04-.05.15-.08.1-.03.28-.02.44.12.15.14.23.41.14.66-.09.25-.35.44-.64.46.28-.02.57-.1.85-.28.28-.17.55-.49.66-.91.11-.42.02-.95-.31-1.36-.32-.4-.88-.65-1.43-.6-.54.04-1.06.36-1.32.81-.26.45-.28.99-.11,1.39.17.4.48.68.78.81Z"/>
        <path class="cls-2" d="M15.33,62.08c.3.14.59.18.88.16-.29.02-.57-.13-.7-.36-.13-.24-.1-.51.03-.67.13-.17.31-.21.42-.19.11.01.14.07.16.06.02,0,.04-.05.15-.08.1-.03.28-.02.44.12.15.14.23.41.14.66-.09.25-.35.44-.64.46.28-.02.57-.1.85-.28.28-.17.55-.49.66-.91.11-.42.02-.95-.31-1.36-.32-.4-.88-.65-1.43-.6-.54.04-1.06.36-1.32.81-.26.45-.28.99-.11,1.39.17.4.48.68.78.81Z"/>
        <path class="cls-2" d="M92.75,62.7c.41-.57.61-1.13.76-1.69.14-.56.2-1.12.19-1.68,0-.56-.08-1.12-.24-1.68-.17-.56-.38-1.11-.81-1.67-.41.57-.61,1.13-.76,1.69-.14.56-.2,1.12-.19,1.68,0,.56.08,1.12.24,1.68.17.56.38,1.11.81,1.67Z"/>
        <path class="cls-2" d="M87.2,19.03c.54-.03,1.07-.35,1.33-.8.27-.45.29-.99.11-1.39-.17-.41-.48-.68-.78-.81-.3-.14-.6-.18-.88-.16.29-.02.57.13.7.37.13.24.09.51-.04.67-.13.17-.31.2-.42.18-.11-.02-.14-.06-.16-.06-.02,0-.04.05-.15.08-.11.03-.29.02-.44-.13-.15-.14-.22-.41-.13-.66.09-.25.36-.44.64-.46-.28.02-.57.1-.85.28-.28.17-.55.49-.66.91-.12.42-.02.95.3,1.36.32.41.88.65,1.42.61Z"/>
        <path class="cls-2" d="M87.27,33.06c.54-.03,1.07-.35,1.33-.8.27-.45.29-.99.11-1.39-.17-.41-.48-.68-.78-.81-.3-.14-.6-.18-.88-.16.29-.02.57.13.7.37.13.24.09.51-.04.67-.13.17-.31.2-.42.18-.11-.02-.14-.06-.16-.06-.02,0-.04.05-.15.08-.11.03-.29.02-.44-.13-.15-.14-.22-.41-.13-.66.09-.25.36-.44.64-.46-.28.02-.57.1-.85.28-.28.17-.55.49-.66.91-.12.42-.02.95.3,1.36.32.41.88.65,1.42.61Z"/>
        <path class="cls-2" d="M88.67,46.28c.27-.45.29-.99.11-1.39-.17-.41-.48-.68-.78-.81-.3-.14-.6-.18-.88-.16.29-.02.57.13.7.37.13.24.09.51-.04.67-.13.17-.31.2-.42.18-.11-.02-.14-.06-.16-.06-.02,0-.04.05-.15.08-.11.03-.29.02-.44-.13-.15-.14-.22-.41-.13-.66.09-.25.36-.44.64-.46-.28.02-.57.1-.85.28-.28.17-.55.49-.66.91-.12.42-.02.95.3,1.36.32.41.88.65,1.42.61.54-.03,1.07-.35,1.33-.8Z"/>
        <path class="cls-2" d="M87.92,56.88c-.54,0-1.09.27-1.38.7-.3.43-.36.96-.22,1.38.14.42.43.71.72.87.29.16.58.22.86.23-.29,0-.56-.18-.67-.42-.11-.25-.05-.52.09-.67.14-.16.32-.18.43-.15.11.02.13.07.15.07.02,0,.05-.05.16-.07.11-.03.29,0,.43.16.14.15.19.43.08.67-.11.24-.39.41-.67.41.28,0,.57-.06.86-.22.29-.15.58-.44.73-.86.15-.41.1-.95-.2-1.38-.29-.43-.83-.72-1.37-.72Z"/>
        <path class="cls-2" d="M103.05,59.94c.29.16.58.22.86.23-.29,0-.56-.18-.67-.42-.11-.25-.05-.52.09-.67.14-.16.32-.18.43-.15.11.02.13.07.15.07.02,0,.05-.05.16-.07.11-.03.29,0,.43.16.14.15.19.43.08.67-.11.24-.39.41-.67.41.28,0,.57-.06.86-.22.29-.15.58-.44.72-.86.15-.41.1-.95-.2-1.38-.29-.43-.82-.72-1.37-.72-.54,0-1.09.27-1.38.7-.3.43-.36.96-.22,1.38.14.42.43.71.72.87Z"/>
        <path class="cls-2" d="M119.61,59.46c.29.16.58.22.86.23-.29,0-.56-.18-.67-.42-.11-.25-.05-.52.09-.67.14-.16.32-.18.43-.15.11.02.13.07.15.07.02,0,.05-.05.16-.07.11-.03.29,0,.43.16.14.15.19.43.08.67-.11.24-.39.41-.67.41.28,0,.57-.06.86-.22.29-.15.58-.44.73-.86.15-.41.1-.95-.2-1.38-.29-.43-.83-.72-1.37-.72-.54,0-1.09.27-1.38.7-.3.43-.36.96-.22,1.38.14.42.42.71.72.87Z"/>
        <path class="cls-2" d="M135.29,58.82c.29.16.58.22.86.23-.29,0-.56-.18-.67-.42-.11-.25-.05-.52.09-.67.14-.16.32-.18.43-.15.11.02.13.07.15.07.02,0,.05-.05.16-.07.11-.03.29,0,.43.16.14.15.19.43.08.67-.11.24-.39.41-.67.41.28,0,.57-.06.86-.22.29-.15.58-.44.73-.86.15-.41.1-.95-.2-1.38-.29-.43-.82-.72-1.37-.72-.54,0-1.09.27-1.38.7-.3.43-.36.96-.22,1.38.14.42.43.71.72.87Z"/>
        <path class="cls-2" d="M60.75,73.43c.57-.07,1.14-.16,1.72-.23.7-.09,1.4-.21,2.09-.32,1.39-.23,2.79-.5,4.17-.86-1.42-.16-2.84-.22-4.25-.26-.71-.02-1.41-.04-2.12-.03-.7,0-1.41,0-2.11.02-.19,0-.39.09-.54.24l-.04.04c-.7.71-1.43,1.4-2.11,2.13-.68.73-1.39,1.44-2.05,2.18l-.03.03c-.33.37-.33.95.02,1.32.81.85,1.59,1.72,2.42,2.55.82.84,1.65,1.67,2.5,2.47l.08.07c.11.1.26.17.42.17.53,0,1.06,0,1.59-.02.53-.02,1.06-.02,1.59-.05,1.06-.05,2.12-.11,3.19-.23-1.04-.27-2.08-.48-3.12-.67-.52-.11-1.04-.18-1.57-.27-.41-.07-.82-.13-1.23-.19-.68-.86-1.37-1.7-2.08-2.53-.55-.67-1.14-1.32-1.71-1.97.47-.52.94-1.03,1.41-1.55.61-.66,1.18-1.36,1.77-2.04Z"/>
        <path class="cls-2" d="M96.66,79.24c.06-.16.08-.28.11-.42.04-.27.02-.55-.04-.81-.13-.52-.46-.98-.9-1.26-.2-.12-.42-.2-.65-.24-.01-.32-.02-.63-.03-.95-.01-.23-.02-.47-.04-.7.24.11.49.19.96.08.41-.1.82-.58.91-.99.12-.42.05-.85-.05-1.14-.12-.31-.23-.49-.41-.71-.17-.22-.42-.47-.77-.62-.28-.12-.58-.13-.84-.07-.03-.41-.05-.82-.08-1.22v-.07s0-.03,0-.03c-.06-.49-.5-.83-.99-.77-1.96.24-3.91.53-5.85.86-1.95.32-3.89.71-5.82,1.18,1.99.1,3.97.1,5.94.05,1.1-.03,2.19-.07,3.29-.12-.25.58-.43,1.17-.56,1.78-.18.9-.26,1.82-.23,2.73.03.91.15,1.82.39,2.71.17.61.38,1.2.68,1.78-1.03.09-2.06.18-3.08.29-1.92.2-3.85.46-5.76.81,1.94.22,3.87.34,5.81.41,1.93.08,3.87.11,5.8.1.48,0,.87-.4.87-.88v-.07c0-.31-.01-.62-.02-.92.03,0,.06.02.09.03.13.02.23.06.39.04.15-.01.37-.08.57-.29.19-.2.29-.41.34-.57ZM95.04,73.49c.04.1.04.1.08.08.02,0,.17-.1.2-.02.04.09-.1.19-.26.33,0-.14-.02-.28-.02-.42v.02ZM92.59,75.73c-.02-.87-.09-1.73-.2-2.61-.09-.62-.19-1.24-.35-1.88.33-.02.65-.04.98-.06.02,1.49.09,2.97.13,4.46.09,1.5.16,3,.27,4.5-.37.03-.74.05-1.11.08.12-.64.18-1.27.23-1.89.06-.88.07-1.75.05-2.61Z"/>
        <path class="cls-2" d="M39.81,102.85c-.23-3.22-.53-6.44-1.03-9.67-.33,3.23-.47,6.46-.53,9.69-.08,3.23-.03,6.46.03,9.69.1,3.23.23,6.46.47,9.68.23,3.22.53,6.44,1.03,9.65h0s0,.01,0,.01c0,0,0-.01,0-.01h0c.33-3.25.46-6.48.53-9.71.08-3.23.04-6.46-.03-9.68-.1-3.22-.23-6.45-.47-9.67Z"/>
        <path class="cls-2" d="M49.47,108.01c-.23-2.71-.49-5.41-.86-8.11-.36-2.7-.79-5.39-1.42-8.06-.2,2.74-.2,5.47-.14,8.19.06,2.72.23,5.43.42,8.14.23,2.71.49,5.41.86,8.11.36,2.7.79,5.39,1.42,8.06.2-2.74.2-5.47.13-8.19-.05-2.72-.23-5.43-.42-8.14Z"/>
        <path class="cls-2" d="M58.35,99.28c-.41-2.68-.93-5.35-1.68-7.97-.07,2.73.01,5.43.13,8.12.1,2.69.28,5.38.45,8.06.2,2.68.39,5.37.65,8.05.25,2.68.54,5.37.98,8.07.39-2.7.54-5.42.58-8.13.05-2.71-.05-5.42-.22-8.12-.21-2.7-.47-5.4-.89-8.08Z"/>
        <path class="cls-2" d="M103.43,113.95c-.44-4.1-.9-8.2-1.48-12.28-.57-4.09-1.2-8.16-2.04-12.21,0,4.15.21,8.27.49,12.38.26,4.11.64,8.21,1.04,12.31.44,4.09.9,8.19,1.48,12.27.6,4.08,1.12,8.17,1.87,12.24.07-4.14-.01-8.27-.32-12.38-.26-4.12-.64-8.22-1.04-12.33Z"/>
      </g>
      <path class="cls-2" d="M112.31,139.41c-1.32-1.52-2.7-2.97-4.1-4.38-1.78-1.82-3.63-3.54-5.49-5.25-1.88-1.68-3.76-3.34-5.71-4.91-1.94-1.58-3.92-3.11-6-4.49,1.65,2.01,3.41,3.87,5.2,5.68,1.78,1.82,3.63,3.54,5.48,5.25,1.88,1.68,3.76,3.34,5.71,4.91,1.25,1.02,2.53,2.01,3.83,2.96l-1.23-.25c-4.49-.97-8.99-1.89-13.49-2.81l-27-5.51c-8.08-1.58-16.16-3.2-24.25-4.75.91.05,1.81.05,2.72.04,1.86-.03,3.71-.13,5.56-.33,1.85-.19,3.69-.49,5.53-.86,1.84-.37,3.67-.83,5.49-1.52-1.88-.3-3.74-.36-5.6-.34-1.86.03-3.71.13-5.56.33-1.85.2-3.69.49-5.53.86-1.67.34-3.33.76-4.99,1.35-.14-.03-.28-.06-.42-.08.13.03.26.06.39.09-.15.05-.29.1-.44.15l.05-.24-.06.25s-.02,0-.03,0c0,0,.02,0,.02,0l-3.77,16.89c-1.3,5.76-2.6,11.57-3.84,17.41l-.11.54.54.14,17.83,4.47c5.94,1.5,11.89,2.96,17.84,4.4l35.72,8.7,1.02.25.19-1.04,5.01-27.09,1.32-6.75.68-3.56-2.52-.52ZM112.78,141.43l-.37,1.7-1.36,6.77-4.99,26.04-34.76-8.22c-5.96-1.42-11.92-2.82-17.9-4.17l-17.38-3.99c1.09-5.54,2.12-11.1,3.16-16.71l3.23-17.26c.72.11,1.44.18,2.15.23,8.24,1.96,16.49,3.83,24.74,5.76l26.89,6.05c4.48,1.02,8.96,2.02,13.45,2.99l3.16.7s-.02.07-.03.11Z"/>
    </g>
  </g>
</svg>