<svg width="188" height="204" viewBox="0 0 188 204" fill="none" xmlns="http://www.w3.org/2000/svg">
<path d="M109.383 185.421C152.743 185.421 187.893 173.704 187.893 159.251C187.893 144.797 152.743 133.081 109.383 133.081C66.0232 133.081 30.8731 144.797 30.8731 159.251C30.8731 173.704 66.0232 185.421 109.383 185.421Z" fill="url(#paint0_linear_2310_97385)"/>
<path d="M187.883 159.251C187.883 161.081 187.303 162.881 186.353 164.431C185.403 165.991 184.153 167.341 182.793 168.561C180.043 170.971 176.853 172.811 173.563 174.371C166.963 177.491 159.933 179.601 152.833 181.261C138.603 184.521 123.983 185.961 109.373 186.171C94.7631 186.311 80.0831 185.301 65.6731 182.311C58.4931 180.741 51.3631 178.761 44.5831 175.621C41.2131 174.041 37.9131 172.171 34.9931 169.641C33.5531 168.361 32.1931 166.921 31.1231 165.191C30.0631 163.471 29.3531 161.391 29.3531 159.251C29.3531 157.111 30.0531 155.031 31.1231 153.311C32.1831 151.581 33.5431 150.141 34.9931 148.861C37.9131 146.331 41.2131 144.461 44.5831 142.881C51.3531 139.741 58.4931 137.761 65.6731 136.191C80.0731 133.201 94.7631 132.191 109.373 132.331C123.983 132.551 138.603 133.981 152.833 137.251C159.933 138.901 166.963 141.021 173.563 144.141C176.853 145.701 180.043 147.541 182.793 149.951C184.153 151.161 185.403 152.511 186.353 154.081C187.303 155.631 187.893 157.431 187.883 159.261V159.251ZM187.883 159.251C187.883 157.421 187.283 155.631 186.333 154.081C185.383 152.531 184.123 151.191 182.763 149.981C180.003 147.591 176.813 145.771 173.523 144.231C166.913 141.171 159.853 139.201 152.753 137.651C138.493 134.691 123.903 133.691 109.383 133.831C94.8631 134.041 80.3331 135.481 66.2431 138.711C59.2131 140.341 52.2731 142.441 45.8331 145.491C42.6231 147.011 39.5331 148.811 36.9531 151.071C35.6831 152.211 34.5331 153.461 33.6931 154.841C32.8531 156.221 32.3731 157.731 32.3731 159.251C32.3731 160.771 32.8431 162.281 33.6931 163.661C34.5331 165.041 35.6831 166.291 36.9531 167.431C39.5331 169.701 42.6231 171.491 45.8331 173.011C52.2731 176.061 59.2231 178.161 66.2431 179.791C80.3331 183.031 94.8631 184.451 109.383 184.671C123.903 184.811 138.493 183.811 152.753 180.851C159.853 179.301 166.913 177.331 173.523 174.271C176.813 172.731 180.003 170.911 182.763 168.521C184.123 167.321 185.383 165.981 186.333 164.421C187.293 162.881 187.883 161.081 187.883 159.251Z" fill="black"/>
<path d="M142.162 152.342H65.3427C59.2035 152.342 54.2281 157.317 54.2281 163.456H153.277C153.277 157.317 148.302 152.342 142.162 152.342Z" fill="#C0C0C0"/>
<path d="M80.9424 152.352C76.2233 152.075 71.4934 152.053 66.785 152.267C63.4111 152.427 59.7383 152.843 57.368 155.246C55.4462 157.189 54.8056 160.018 54.2717 162.709C54.2397 162.88 54.2077 163.072 54.3144 163.211C54.4319 163.371 54.6668 163.381 54.8696 163.371C56.9303 163.296 58.9802 163.221 61.0408 163.136C61.8096 160.008 64.1158 157.296 67.0732 156.036C69.5716 154.968 72.3796 154.915 75.0915 154.872C75.7001 154.872 76.3193 154.851 76.9279 154.851C74.7498 157.659 72.5825 160.477 70.4044 163.285C72.0913 163.349 73.7676 163.403 75.4545 163.467C75.9563 163.488 76.4795 163.499 76.9386 163.285C77.3336 163.104 77.6326 162.762 77.9209 162.431L84.5832 154.744L93.0286 154.626C93.3595 154.626 93.6905 154.626 94.0215 154.616C91.6299 157.52 89.2276 160.424 86.836 163.328C88.4055 163.403 89.975 163.424 91.5445 163.424C92.0997 163.424 92.6549 163.413 93.1674 163.211C93.7225 162.997 94.171 162.591 94.598 162.186C97.4167 159.58 100.246 156.975 103.065 154.381C108.734 154.125 114.361 153.548 119.849 152.171L80.9424 152.352Z" fill="white"/>
<path d="M140.006 24.8713L141.138 14.771L151.719 12.6036L141.885 10.6924L139.43 0.795046L136.91 11.0875L129.265 13.4471L137.593 14.7069L140.006 24.8713Z" fill="white"/>
<path d="M157.964 89.4233V54.9585C160.516 53.8588 162.32 51.4031 162.662 48.5204C163.004 45.4882 161.648 42.7336 159.021 41.1534L109.652 12.2086C106.886 10.5857 103.448 10.5857 100.683 12.2086L66.6241 32.1742L67.5316 24.0065L82.6713 20.9102L68.61 18.1769L65.0973 4.01946L61.4885 18.7321L50.5662 22.1167L62.4601 23.9104L64.7022 33.306L51.463 41.068C51.463 41.068 51.3242 41.1534 51.3135 41.1534C48.687 42.7336 47.3311 45.4882 47.6834 48.5204C48.0144 51.4031 49.8188 53.8588 52.3705 54.9585V130.412C52.3705 136.999 57.079 142.519 63.3249 143.758C64.1791 143.928 65.0759 144.014 65.9835 144.014H144.373C145.771 144.014 147.106 143.8 148.376 143.416C148.793 143.288 149.199 143.138 149.583 142.967C149.583 142.967 149.594 142.967 149.604 142.967C149.85 142.861 150.095 142.754 150.341 142.637C150.362 142.626 150.384 142.615 150.416 142.594C150.672 142.466 150.928 142.327 151.184 142.177C151.441 142.028 151.697 141.868 151.942 141.697C152.156 141.558 152.37 141.409 152.572 141.249C153.085 140.853 153.576 140.426 154.024 139.967C154.185 139.807 154.334 139.647 154.484 139.487C154.569 139.391 154.654 139.295 154.729 139.188C154.879 139.028 155.007 138.857 155.146 138.686C156.918 136.391 157.964 133.519 157.964 130.401V89.4126V89.4233Z" fill="white"/>
<path d="M26.7785 76.6536L24.2801 86.8499L16.7209 89.1988L24.9634 90.4373L27.355 100.506L28.4761 90.5014L38.9607 88.3554L29.2128 86.4656L26.7785 76.6536Z" fill="white"/>
<path d="M32.7681 51.275L18.7068 48.5417L15.1941 34.3843L11.5853 49.0969L0.662968 52.4814L12.5569 54.2751L16.0269 68.8063L17.6284 54.3712L32.7681 51.275Z" fill="white"/>
<path d="M159.011 41.143L109.641 12.1981C106.876 10.5753 103.438 10.5753 100.672 12.1981L72.9981 28.4162C73.7455 28.1386 74.5036 27.8717 75.2616 27.6048C68.0121 31.9609 59.855 34.865 52.819 39.5948C50.2138 41.3458 47.566 43.7054 47.2777 46.8337C47.0215 49.6097 48.7725 52.2682 51.068 53.8591C51.4417 54.126 51.8581 54.3822 52.0716 54.7879C52.2424 55.1189 52.2744 55.5033 52.2958 55.877C52.4773 59.8381 52.0823 63.9273 53.3742 67.6855C54.0041 63.8099 54.6233 59.9342 55.2533 56.0585C55.328 55.578 55.4134 55.0869 55.3387 54.5958C55.2319 53.827 54.7621 53.1544 54.3244 52.5138C53.5343 51.318 52.7976 50.0581 52.456 48.6701C52.1143 47.2821 52.189 45.734 52.9364 44.5169C53.4702 43.6307 54.3137 42.9794 55.1358 42.3601C63.6986 35.9434 73.3505 31.1602 82.6607 25.8858C83.3867 25.4801 84.1127 25.053 84.828 24.5939C90.3907 23.0458 96.0387 21.8286 101.74 20.9638C102.765 20.8037 103.811 20.6649 104.847 20.8143C105.957 20.9745 106.982 21.4656 107.986 21.9461C119.453 27.4767 131.069 33.1033 140.71 41.3992C142.291 42.7552 143.871 44.2499 144.618 46.2038C145.366 48.1576 145.056 50.656 143.369 51.8945C142.643 52.4177 141.671 52.7487 141.33 53.5708C141.18 53.9338 141.18 54.3395 141.18 54.7346C141.191 56.2507 141.127 57.7668 141.138 59.2936V108.951C140.134 112.496 138.447 115.806 135.853 118.39C134.433 119.81 132.767 120.984 131.091 122.084C126.489 125.105 121.588 127.711 116.346 129.398C117.894 129.793 119.485 129.91 121.087 129.995L118.791 130.23C122.998 130.967 127.194 131.864 131.336 132.91C130.514 134.053 129.062 134.512 127.695 134.853C122.41 136.188 116.965 136.839 111.52 136.797C113.869 136.925 116.207 137.32 118.46 137.971L111.157 137.597C109.502 139.295 107.484 141.665 105.968 143.502C106.694 144.164 108.178 143.64 109.161 143.694C111.477 143.811 113.805 143.886 116.122 143.918C116.047 143.961 115.972 144.003 115.898 144.035H144.319C145.718 144.035 147.052 143.822 148.323 143.438C148.739 143.309 149.145 143.16 149.53 142.989C149.53 142.989 149.54 142.989 149.551 142.989C149.796 142.882 150.042 142.776 150.288 142.658C150.309 142.647 150.33 142.637 150.362 142.615C150.619 142.487 150.875 142.348 151.131 142.199C151.387 142.05 151.644 141.889 151.889 141.719C152.103 141.58 152.316 141.43 152.519 141.27C153.032 140.875 153.523 140.448 153.971 139.989C154.131 139.829 154.281 139.669 154.43 139.508C154.516 139.412 154.601 139.316 154.676 139.209C154.825 139.049 154.953 138.879 155.092 138.708C156.865 136.412 157.911 133.54 157.911 130.422V54.9588C160.463 53.8591 162.267 51.4034 162.609 48.5207C162.95 45.4884 161.594 42.7338 158.968 41.1537L159.011 41.143Z" fill="#0ABBEF"/>
<path d="M52.3597 130.412C52.3597 136.999 57.0682 142.519 63.3141 143.758C63.7732 143.502 64.211 143.213 64.638 142.904C64.7875 142.946 64.937 142.978 65.0971 142.989C66.1755 143.106 67.2432 143.213 68.3215 143.331C69.7522 143.48 71.1829 143.63 72.6243 143.587C74.2365 143.534 75.8273 143.224 77.4075 142.914C77.6958 142.861 77.9841 142.808 78.2296 142.658C78.5072 142.498 78.7314 142.252 78.9343 142.007L83.1303 137.095L81.5501 136.999C77.5783 137.16 73.6066 137.17 69.6241 137.053C67.9692 136.999 66.2289 136.882 64.7768 136.167C64.7555 136.113 64.7448 136.06 64.7128 136.006C64.542 135.707 64.2323 135.505 63.9547 135.291C60.4741 132.707 58.6056 127.988 59.5345 123.76V78.5118C59.1502 78.5758 58.9046 78.2128 58.6911 77.8925C57.1643 75.5223 54.463 74.1877 52.3597 72.3299V130.412Z" fill="#0ABBEF"/>
<path d="M116.175 35.5805C118.417 36.1571 120.659 36.7336 122.901 37.3208C118.129 34.342 112.886 32.228 107.665 30.1247C106.587 29.6869 105.487 29.2492 104.324 29.121C101.195 28.7794 98.3446 30.7439 95.8142 32.6017L88.1803 36.6802C82.2546 39.926 76.3503 43.2144 70.4674 46.5349C68.9406 47.3997 67.3284 48.3393 66.4743 49.8768C65.4814 51.6491 65.6949 53.8165 65.9298 55.8237C66.3782 59.614 66.8266 63.4043 67.2751 67.1945C67.9263 64.3866 68.567 61.5679 69.2182 58.7599C69.6773 56.7633 70.1792 54.692 71.471 53.1012C72.3999 51.9587 73.6811 51.1687 74.941 50.4106C83.5038 45.2857 92.483 40.8976 101.452 36.5201C103.01 35.762 104.591 34.9933 106.288 34.6196C109.555 33.9149 112.94 34.7584 116.175 35.5912V35.5805Z" fill="#0ABBEF"/>
<path d="M64.9792 38.6233C62.4168 40.1073 59.8223 41.5914 57.6229 43.5773C56.5445 44.5489 55.5302 45.702 55.2526 47.122C55.0925 47.9548 55.1993 48.8303 55.4235 49.6524C55.968 51.7451 57.42 53.7843 59.534 54.2328C58.7546 51.9906 57.9752 49.4389 59.0322 47.3142C59.5554 46.2572 60.4736 45.4457 61.4132 44.7197C63.4631 43.1395 65.7159 41.8156 68.1075 40.812C68.4065 40.6839 68.7161 40.5664 69.0364 40.6198C69.3033 40.6625 69.5275 40.8227 69.7518 40.9828C71.1824 41.9971 72.6025 43.0114 74.0332 44.0364C73.1363 42.7659 72.2501 41.4953 71.3533 40.2248C70.9262 39.6162 70.4778 38.8581 70.7554 38.1642C71.0543 37.4488 72.0152 37.2459 72.7519 37.4915C73.4886 37.7371 74.0545 38.3029 74.6631 38.7834C75.8269 39.7016 77.1935 40.3529 78.5388 40.9828C77.4177 39.424 76.286 37.8652 75.1649 36.3171C75.0795 36.1996 74.9834 36.0608 75.0154 35.9113C75.0475 35.7619 75.2076 35.6765 75.3571 35.6124C76.0831 35.2814 76.8091 34.9504 77.5351 34.6301C77.7273 34.5447 77.9195 34.4593 78.133 34.4913C78.3893 34.5234 78.5815 34.7369 78.7523 34.9291C79.9481 36.221 81.3895 37.2887 82.9803 38.036C81.8486 35.5163 80.5567 33.0713 79.1046 30.7331L83.3754 28.0639C77.2469 31.5979 71.1184 35.1213 65.0006 38.6553L64.9792 38.6233Z" fill="#0ABBEF"/>
<path d="M89.7279 143.341C92.1408 143.555 94.5751 143.512 96.9668 143.213C97.223 143.181 97.4792 143.149 97.7141 143.032C98.1092 142.829 98.3654 142.434 98.6003 142.06C99.8068 140.234 101.398 138.675 103.255 137.512L89.0232 137.64C87.3363 139.572 85.66 141.505 83.9731 143.437C85.8095 142.839 87.7954 143.17 89.7172 143.341H89.7279Z" fill="#0ABBEF"/>
<path d="M66.5698 107.617C65.4488 113.008 64.317 118.475 64.68 123.963C64.7975 125.821 65.1498 127.796 66.431 129.152C67.4133 130.198 68.8226 130.732 70.2106 131.084C78.1221 133.123 86.4073 130.582 94.5751 130.422C88.8737 130.23 84.667 130.625 78.9656 130.433C77.3321 130.38 74.1717 130.497 72.5916 130.07C71.0114 129.643 69.5273 128.063 68.5664 126.739C67.6162 125.425 67.3172 123.76 67.1037 122.148C66.5378 117.888 66.3883 113.564 66.6659 109.282L66.5698 107.617Z" fill="#0ABBEF"/>
<path d="M50.5024 40.0112C50.5024 40.0112 50.438 40.0434 50.4059 40.0648H50.438L50.5024 40.0112Z" fill="black"/>
<path d="M163.751 48.0827C163.847 46.3744 163.441 44.6021 162.544 43.0967C162.106 42.3493 161.541 41.6766 160.911 41.0894C160.59 40.8011 160.259 40.5342 159.907 40.2993L159.363 39.9577L158.882 39.6908L143.55 31.0425C133.332 25.2771 123.083 19.565 112.95 13.6714C111.669 12.9347 110.452 12.198 109.117 11.4613C107.74 10.7566 106.181 10.4043 104.644 10.447C103.096 10.4683 101.558 10.874 100.213 11.6428L96.4014 13.8529C91.3192 16.7783 86.2691 19.7571 81.1656 22.6506L50.5445 39.9897L50.5124 40.0111C50.6619 39.9256 50.8434 39.8829 50.9929 39.9043L50.459 40.0538L50.3203 40.1605C50.3203 40.1605 50.395 40.0858 50.427 40.0538H50.3843C48.9856 40.8759 47.7792 42.093 47.0104 43.5664C46.231 45.0398 45.9321 46.7481 46.0816 48.371C46.2097 50.0046 46.7755 51.6061 47.7151 52.9727C48.4732 54.0831 49.4981 55.012 50.6833 55.6953L50.3843 99.6944C50.3203 107.168 50.3523 114.631 50.3416 122.105V127.71L50.3736 130.529C50.4057 131.575 50.5231 132.622 50.7473 133.647C51.6655 137.757 54.3774 141.377 57.9969 143.469C59.8013 144.516 61.8299 145.199 63.9012 145.413C64.4136 145.477 64.9368 145.466 65.46 145.498C65.9618 145.509 66.3995 145.498 66.88 145.498L80.8773 145.348C88.3511 145.252 95.8141 145.22 103.288 145.082L117.275 144.836C117.573 145.466 117.904 146.064 118.278 146.619C118.833 147.42 119.453 148.167 120.115 148.861C120.787 149.555 121.503 150.196 122.282 150.783C122.709 151.093 123.147 151.381 123.617 151.658L106.598 151.466C97.8107 151.338 89.0344 151.37 80.2474 151.317L67.0722 151.263C65.9725 151.263 64.9048 151.221 63.6663 151.327C62.4705 151.456 61.3067 151.776 60.1963 152.235C57.9862 153.196 56.0644 154.797 54.7725 156.826C54.0998 157.83 53.6514 158.961 53.3098 160.114L53.0962 160.99L52.9574 161.876C52.904 162.175 52.904 162.474 52.8827 162.773L52.8613 163.221V163.392C54.9433 165.496 53.4699 163.979 53.9504 164.449H54.1532L73.916 164.375C82.703 164.332 91.4794 164.353 100.266 164.225L126.617 163.926C135.404 163.755 144.18 163.649 152.967 163.403C144.18 163.157 135.404 163.061 126.617 162.88L100.266 162.581C91.4794 162.453 82.703 162.474 73.916 162.431L55.018 162.357C55.018 162.282 55.0287 162.207 55.0501 162.132L55.1675 161.396L55.349 160.67C55.6373 159.719 56.011 158.791 56.5769 157.968C57.6445 156.292 59.214 154.947 61.0398 154.146C61.958 153.762 62.9189 153.495 63.9118 153.377C64.8621 153.281 65.9938 153.303 67.0935 153.303L80.2687 153.249C89.0557 153.196 97.8321 153.228 106.619 153.1L132.969 152.801L139.557 152.683C140.646 152.683 141.767 152.609 142.824 152.673C143.881 152.769 144.938 152.972 145.942 153.356C149.978 154.851 152.924 158.961 152.988 163.392C152.988 162.293 152.871 161.193 152.583 160.125C152.273 159.068 151.814 158.043 151.227 157.093C150.608 156.164 149.86 155.321 149.017 154.595C148.163 153.869 147.191 153.292 146.155 152.833C145.12 152.384 144.009 152.128 142.888 151.989C141.746 151.883 140.667 151.915 139.568 151.883L135.735 151.808C135.991 151.349 136.14 150.89 136.269 150.431C136.429 149.811 136.493 149.192 136.503 148.584C136.503 147.964 136.429 147.345 136.279 146.736C136.108 146.117 135.884 145.498 135.436 144.889C134.987 145.509 134.763 146.128 134.592 146.736C134.432 147.356 134.368 147.975 134.368 148.584C134.368 149.203 134.443 149.822 134.603 150.431C134.731 150.89 134.881 151.338 135.137 151.797L132.98 151.755L130.674 151.733C130.919 151.221 131.08 150.708 131.208 150.196C131.368 149.502 131.432 148.808 131.443 148.114C131.443 147.42 131.368 146.726 131.218 146.032C131.101 145.541 130.952 145.05 130.717 144.558L142.547 144.27C143.475 144.227 144.415 144.249 145.365 144.131C146.305 144.014 147.234 143.811 148.131 143.501C150.01 142.978 151.803 142.049 153.33 140.779C154.846 139.498 156.095 137.896 156.96 136.081C157.825 134.277 158.295 132.259 158.338 130.251L158.476 124.454L158.85 101.264L159.064 78.0739C159.085 70.6322 159.149 63.1904 159.117 55.7487C161.872 54.1792 163.676 51.1897 163.804 48.0721L163.751 48.0827ZM53.5874 82.0777C54.0678 82.6863 54.5589 83.2735 55.1675 83.7326C55.8935 84.2771 56.769 84.6722 57.4417 85.2701C57.9435 85.7185 58.3599 86.231 58.7336 86.7862L58.6802 95.4985C58.5948 95.381 58.5094 95.2422 58.4239 95.1248C57.8581 94.3454 57.2922 93.5553 56.6409 92.8506C55.7227 91.879 54.7298 90.9608 53.6301 90.16L53.5767 82.0777H53.5874ZM59.9828 97.164L59.9294 88.7721C60.1322 89.0924 60.3351 89.402 60.5593 89.7009C61.0825 90.427 61.595 91.1637 62.2035 91.8256C63.2926 92.9574 64.4777 94.0037 65.8977 94.8792C65.823 95.7974 65.7376 96.7156 65.6949 97.6338C65.5774 100.004 65.6308 102.374 65.7376 104.745C65.6522 104.595 65.5667 104.435 65.4813 104.285C64.9795 103.463 64.4563 102.652 63.7517 101.969C63.047 101.296 62.1929 100.751 61.5523 100.025C60.9223 99.3207 60.4205 98.5093 59.9934 97.6338V97.1534L59.9828 97.164ZM66.2287 89.9999C66.1967 91.1957 66.1006 92.3915 66.0045 93.5873C65.4279 92.4235 64.7126 91.3559 63.9439 90.3416C63.378 89.6369 62.7267 88.9963 62.0754 88.3663C61.4455 87.7151 60.7408 87.1385 59.9934 86.594C59.9721 86.5726 59.9401 86.5513 59.9187 86.5406L59.876 80.3587C60.0895 80.6577 60.3031 80.9566 60.538 81.2342C61.0718 81.9069 61.595 82.5795 62.2035 83.1667C63.378 84.2558 64.6485 85.2487 66.1967 86.0068C66.2501 87.3414 66.2714 88.6653 66.2287 89.9999ZM58.7443 85.601C58.456 85.3555 58.1784 85.0992 57.9435 84.8003C57.3563 84.117 56.9826 83.2308 56.4487 82.4834C55.9149 81.7467 55.2209 81.1595 54.5056 80.5829C54.2066 80.3587 53.8863 80.1345 53.566 79.9317L53.5233 74.1982C54.0144 74.7854 54.5162 75.3406 55.1462 75.7784C55.8615 76.2588 56.7157 76.6005 57.3776 77.145C57.9221 77.5828 58.3706 78.1166 58.7763 78.6931L58.7336 85.5904L58.7443 85.601ZM129.499 150.196C129.628 150.708 129.777 151.21 130.023 151.723L124.609 151.658C124.289 150.922 123.916 150.249 123.488 149.609C122.933 148.808 122.314 148.06 121.652 147.366C120.99 146.672 120.264 146.032 119.485 145.445C119.175 145.22 118.865 145.007 118.534 144.804L125.677 144.676L129.98 144.569C129.756 145.05 129.606 145.541 129.489 146.021C129.329 146.715 129.254 147.409 129.265 148.103C129.265 148.797 129.339 149.491 129.499 150.185V150.196ZM145.269 143.651C144.362 143.715 143.433 143.651 142.493 143.619L125.688 143.213L103.277 142.818C95.8035 142.679 88.3404 142.637 80.8666 142.551L66.8693 142.402C66.4102 142.402 65.9191 142.402 65.492 142.38C65.0756 142.348 64.6699 142.348 64.2535 142.284C62.6199 142.071 61.0291 141.526 59.6198 140.693C56.7797 139.017 54.6871 136.145 54.0037 132.942C53.8329 132.141 53.7475 131.33 53.7368 130.508V127.732L53.7582 122.126C53.7368 114.653 53.7795 107.19 53.7155 99.7158L53.6621 92.5517C54.0571 93.1602 54.4842 93.7581 54.922 94.3347C55.5199 95.0821 56.2032 95.744 56.8865 96.4273C57.431 96.9932 58.0503 97.5164 58.6802 98.0182L58.52 123.728V126.397C58.5414 127.347 58.6268 128.298 58.883 129.216C59.7692 132.963 62.7374 136.06 66.3141 137.352C68.0758 138.024 70.0617 138.238 71.8447 138.206H77.1618L87.7852 138.238L130.279 138.323H135.596L138.254 138.344C139.151 138.366 140.166 138.302 141.094 138.12C142.045 137.949 142.974 137.65 143.849 137.255C144.159 137.597 144.436 137.949 144.629 138.355C144.927 138.964 144.981 139.722 145.216 140.362C145.451 141.003 145.867 141.537 146.315 142.06C146.721 142.508 147.17 142.925 147.735 143.277C146.935 143.48 146.123 143.608 145.301 143.662L145.269 143.651ZM143.625 134.17C143.326 133.551 143.016 132.931 142.611 132.387C142.002 131.618 141.319 130.903 140.475 130.316C141.308 130.091 142.13 129.75 142.899 129.194C143.732 128.607 144.447 127.71 144.842 126.739C145.237 127.379 145.653 128.009 146.081 128.618C146.636 129.408 147.223 130.177 147.81 130.935C146.871 132.536 145.515 133.882 143.913 134.81C143.828 134.597 143.742 134.373 143.636 134.17H143.625ZM145.461 123.717C145.515 122.201 145.515 120.706 145.493 119.212C146.657 120.738 147.949 122.084 149.305 123.354V123.909C149.305 124.689 149.316 125.543 149.273 126.226C149.209 127.166 149.017 128.095 148.707 128.981C148.216 128.5 147.714 128.031 147.191 127.582C146.529 127.027 145.814 126.525 145.077 126.055C145.323 125.255 145.408 124.454 145.461 123.707V123.717ZM149.059 131.917H148.985C148.985 131.917 148.931 131.917 148.857 131.896C148.846 131.896 148.771 131.874 148.675 131.842L148.558 131.789L148.301 131.586C148.301 131.586 148.28 131.565 148.269 131.554L149.049 131.917H149.059ZM148.259 131.543C148.131 131.405 148.002 131.106 148.013 130.871C148.013 130.743 148.056 130.55 148.098 130.476C148.109 130.444 148.12 130.433 148.131 130.401L148.291 130.668L148.259 131.533V131.543ZM148.259 130.198L148.163 130.326C148.163 130.326 148.205 130.262 148.205 130.251C148.237 130.219 148.237 130.209 148.248 130.187L148.259 130.198ZM148.259 131.543C148.227 131.511 148.205 131.469 148.173 131.426C148.205 131.458 148.227 131.501 148.259 131.543ZM148.12 143.149C148.098 142.423 147.917 141.804 147.714 141.195C147.458 140.565 147.191 139.935 146.721 139.434C146.251 138.932 145.6 138.526 145.194 137.981C144.938 137.64 144.746 137.255 144.596 136.85C146.444 135.867 148.045 134.447 149.209 132.718C149.903 133.561 150.618 134.383 151.334 135.206C152.326 136.273 153.33 137.352 154.483 138.355C152.914 140.523 150.682 142.231 148.109 143.16L148.12 143.149ZM155.999 135.686C155.636 136.551 155.188 137.373 154.654 138.142C154.195 136.711 153.522 135.398 152.786 134.127C152.038 132.931 151.205 131.789 150.287 130.721C150.906 129.344 151.28 127.86 151.366 126.365C151.387 125.97 151.387 125.607 151.387 125.255C152.252 126.002 153.138 126.728 154.035 127.443C154.985 128.191 155.957 128.917 156.982 129.622V130.273C157.056 132.12 156.725 133.978 155.999 135.697V135.686ZM160.985 47.9226C160.825 50.3569 159.277 52.6524 157.078 53.5813C156.576 53.7948 156.213 54.2966 156.213 54.8732V54.8945C156.181 62.6245 156.245 70.3546 156.266 78.0846L156.48 101.275L156.853 124.465L156.95 128.746C156.437 127.86 155.828 127.027 155.188 126.248C154.227 125.084 153.181 124.038 152.081 123.034C151.857 122.82 151.611 122.639 151.376 122.436V121.518L151.237 55.2042C153.351 54.0724 154.825 51.9157 155.188 49.5882C155.401 48.3283 155.284 47.0044 154.836 45.7872C154.387 44.5701 153.586 43.4917 152.593 42.6909C152.092 42.2852 151.526 41.9649 151.056 41.698L149.572 40.8438L111.061 18.5827C110.046 18.0275 109.149 17.4189 108.007 16.9064C106.886 16.458 105.658 16.2338 104.452 16.3085C103.245 16.3833 102.06 16.7143 101.003 17.3015L98.0563 19.0632L92.184 22.5865L68.7271 36.7119L73.0405 34.2456C73.1579 35.1211 73.4676 35.8898 73.8306 36.6052C74.215 37.3312 74.6741 38.0038 75.2079 38.6231C75.7417 39.2317 76.3396 39.7868 77.0016 40.278C77.3433 40.5129 77.6849 40.7371 78.0586 40.9293C76.7026 41.73 75.3681 42.5415 74.0441 43.3849C73.948 42.8297 73.7772 42.3066 73.585 41.8048C73.2754 41.0681 72.891 40.3847 72.4319 39.7441C71.9728 39.1035 71.439 38.527 70.8411 38.0038C70.2325 37.4913 69.5599 37.0216 68.7271 36.7226C68.8765 37.5981 69.1862 38.3348 69.5172 39.0395C69.8588 39.7335 70.2539 40.3848 70.7023 41.004C71.1507 41.6126 71.6418 42.1998 72.197 42.7443C72.5814 43.1073 72.9871 43.4597 73.4462 43.78C71.5244 45.0078 69.6132 46.2677 67.7448 47.5916C67.7021 47.6236 67.6914 47.677 67.7021 47.7197C67.7235 47.7731 67.7875 47.8051 67.8409 47.7838C73.7345 45.4029 79.4359 42.6696 84.9772 39.6267C87.7318 38.0786 90.4651 36.4984 93.1877 34.8862C95.8889 33.2526 98.5261 31.4483 101.249 29.9001C101.932 29.5478 102.647 29.2595 103.373 29.1634C104.099 29.078 104.847 29.1848 105.551 29.4624C106.267 29.7186 106.918 30.1137 107.612 30.5087C108.317 30.8931 109.021 31.2668 109.726 31.6191C112.555 33.0605 115.406 34.4271 118.321 35.6442L127.012 39.3171C129.884 40.5769 132.756 41.8475 135.436 43.5024C135.436 43.5024 135.532 43.5237 135.575 43.4917C135.617 43.449 135.617 43.3849 135.575 43.3422C133.247 41.1321 130.46 39.4879 127.663 37.9825C124.855 36.477 121.972 35.1531 119.079 33.8826C116.185 32.6014 113.196 31.5657 110.26 30.434C108.776 29.8894 107.388 29.2168 105.786 28.7363C104.996 28.5228 104.131 28.384 103.288 28.5228C102.455 28.6403 101.676 28.9392 100.939 29.2702C98.0776 30.6795 95.1842 31.9394 92.3335 33.306C89.5042 34.7154 86.6855 36.1461 83.8988 37.6195C83.7173 37.7155 83.5358 37.8223 83.3543 37.9184C83.2262 37.47 83.066 37.0429 82.8845 36.6265C82.5429 35.8791 82.1158 35.1745 81.6247 34.5339C81.1335 33.8826 80.5783 33.2847 79.9484 32.7508C79.3505 32.2597 78.6992 31.8006 77.9091 31.4803L92.5043 23.1524L98.4406 19.7465L101.398 18.0595C102.348 17.5471 103.416 17.2695 104.484 17.2374C105.562 17.184 106.63 17.4083 107.612 17.8246C108.552 18.2517 109.545 18.935 110.516 19.5009L148.739 42.2425L150.212 43.118C150.725 43.4276 151.152 43.6732 151.536 43.9935C153.106 45.2534 153.843 47.346 153.469 49.3319C153.138 51.3071 151.782 53.0902 149.967 53.8482C149.647 53.987 149.422 54.2966 149.422 54.6703L149.284 120.835C149.038 120.664 148.792 120.472 148.547 120.301C147.565 119.628 146.55 119.009 145.461 118.464C145.408 116.617 145.28 114.77 145.034 112.902C145.034 112.859 145.002 112.816 144.949 112.806C144.895 112.795 144.831 112.827 144.821 112.88C143.924 116.414 143.475 120.012 143.166 123.536C143.027 125.276 142.739 126.632 141.607 127.604C140.486 128.554 138.842 129.13 137.155 129.44C135.425 129.686 133.589 129.76 131.806 129.696C130.012 129.632 128.218 129.291 126.425 129.152C124.631 129.024 122.837 129.098 121.043 129.216C119.25 129.344 117.456 129.525 115.662 129.931C115.62 129.931 115.588 129.974 115.577 130.017C115.566 130.081 115.598 130.134 115.662 130.145C117.456 130.55 119.25 130.732 121.043 130.871C122.837 130.988 124.631 131.052 126.425 130.935C128.218 130.796 130.012 130.454 131.806 130.39C133.61 130.305 135.361 130.454 137.219 130.604C137.913 130.636 138.628 130.625 139.354 130.529C139.664 131.682 140.134 132.696 140.678 133.657C141.02 134.223 141.457 134.736 141.885 135.259C141.97 135.376 142.077 135.483 142.173 135.59C141.671 135.771 141.159 135.932 140.635 136.028C139.835 136.188 139.066 136.241 138.19 136.23H135.532L130.215 136.252L77.0977 136.359H71.7806C70.0296 136.401 68.4388 136.22 66.8693 135.654C63.7944 134.544 61.2533 131.981 60.4632 128.789C60.239 128.009 60.1536 127.187 60.1216 126.365L60.1002 123.717L59.9507 99.214C60.3244 99.5983 60.6661 100.004 60.965 100.442C61.4989 101.243 61.8192 102.203 62.2996 103.047C62.7801 103.88 63.4314 104.584 64.104 105.278C64.6272 105.78 65.1717 106.271 65.7909 106.698C65.9191 108.759 66.1006 110.82 66.4316 112.891C66.4316 112.934 66.4743 112.976 66.517 112.976C66.581 112.976 66.6344 112.944 66.6451 112.891C67.0508 110.35 67.2323 107.798 67.3711 105.257C67.4886 102.716 67.5526 100.164 67.4352 97.6231C67.3071 95.0821 66.9547 92.5303 66.8907 89.9892C66.8052 87.4481 66.944 84.8964 67.1255 82.3553C67.3284 79.8142 67.4992 77.2625 67.5419 74.7214C67.6167 72.1803 67.7021 69.6392 67.6807 67.0875C67.6274 64.5464 67.5633 61.9946 67.3925 59.4535L67.3284 58.5033C67.2964 58.2043 67.3071 57.8307 67.1683 57.3716C67.0188 56.9018 66.7092 56.5601 66.5276 56.3573C66.3248 56.1437 66.2287 55.9942 66.1326 55.7487C65.7803 54.7451 65.9084 53.4211 66.4209 52.2894C66.4422 52.2467 66.4209 52.1933 66.3889 52.1613C66.3461 52.1186 66.2714 52.1292 66.2394 52.1613C65.8123 52.6524 65.4813 53.261 65.2785 53.9016C65.0756 54.5529 64.9368 55.2362 65.0756 56.0049C65.129 56.3786 65.3212 56.8057 65.5134 57.094C65.7055 57.3929 65.8016 57.5637 65.8123 57.7239C65.8337 57.8947 65.8123 58.1616 65.7803 58.4926L65.7162 59.4429C65.5454 61.9839 65.4706 64.525 65.4066 67.0768C65.3746 69.6179 65.4706 72.1696 65.5454 74.7107C65.5988 77.2518 65.7589 79.8035 65.9618 82.3446C66.0258 83.1988 66.0792 84.0529 66.1219 84.8964C65.492 83.6685 64.6912 82.5902 63.8264 81.5652C63.2605 80.9246 62.5986 80.3587 61.9473 79.7929C61.3174 79.2163 60.602 78.7038 59.8653 78.234C59.8546 78.234 59.844 78.2234 59.8333 78.2127V75.8958L59.6091 54.649C59.6091 54.5208 59.5343 54.4141 59.4276 54.3607C57.2388 53.4532 55.6693 51.2324 55.4771 48.8408C55.3597 47.6557 55.5839 46.4278 56.1391 45.3708C56.705 44.2925 57.5378 43.449 58.6482 42.7764L58.6161 42.7977L68.7271 36.6906L58.456 42.5201L58.4239 42.5415C57.3883 43.118 56.3847 44.0576 55.7975 45.168C55.1782 46.289 54.922 47.5916 55.018 48.8621C55.1782 51.3498 56.7157 53.7201 59.0112 54.8091L58.7976 75.8745V77.4653C58.456 77.2091 58.1357 76.9315 57.8581 76.6112C57.2815 75.9812 56.8972 75.1378 56.3633 74.4545C55.8295 73.7605 55.1462 73.2373 54.4522 72.7248C54.1425 72.5219 53.8329 72.3191 53.5019 72.1269L53.3845 54.8518V54.8091C53.3845 54.286 53.0749 53.8055 52.5624 53.592C50.395 52.7058 48.8148 50.5064 48.5906 48.1041C48.4625 46.9083 48.6547 45.7018 49.1778 44.6448C49.701 43.5878 50.5445 42.6909 51.5801 42.0397H51.5374C51.6015 42.0183 51.6655 41.9863 51.7296 41.9542H51.7189L81.8062 23.7076C86.8243 20.6647 91.8851 17.7072 96.9245 14.707L100.704 12.4649C101.9 11.7709 103.277 11.3865 104.665 11.3545C106.053 11.3331 107.441 11.6535 108.669 12.2941C109.897 12.9881 111.189 13.7675 112.438 14.5042C122.528 20.4725 132.521 26.6223 142.536 32.7188L157.558 41.8688L158.028 42.1571L158.402 42.4133C158.647 42.5949 158.882 42.787 159.106 43.0006C159.544 43.417 159.928 43.8974 160.217 44.4099C160.804 45.4456 161.06 46.6627 160.975 47.8692L160.985 47.9226ZM78.9234 40.4381C78.7206 39.979 78.4963 39.552 78.2508 39.1356C77.8237 38.4522 77.3539 37.8223 76.8414 37.2351C76.329 36.6372 75.7738 36.082 75.1545 35.5695C74.5459 35.0784 73.9053 34.5979 73.1046 34.2349L77.813 31.5443C77.9945 32.3878 78.3042 33.1138 78.6458 33.8078C79.0195 34.5232 79.4466 35.1958 79.927 35.8257C80.4075 36.4557 80.9307 37.0536 81.5286 37.6088C81.8382 37.8864 82.1478 38.164 82.4895 38.4202C81.2937 39.0822 80.0979 39.7548 78.9234 40.4488V40.4381Z" fill="black"/>
<path d="M66.9978 118.593C66.9978 118.593 66.9765 118.518 66.9338 118.497C66.8804 118.475 66.8163 118.497 66.7843 118.55C66.101 120.023 65.8234 121.7 65.9835 123.376C66.1437 125.052 66.795 126.782 68.0121 128.042C68.6207 128.672 69.3574 129.163 70.1475 129.515C70.9376 129.867 71.7277 130.081 72.5284 130.252C73.3185 130.433 74.0979 130.561 74.888 130.689L76.0731 130.882L77.2476 131.02C78.8064 131.234 80.3759 131.383 81.9347 131.448C83.5042 131.533 85.063 131.597 86.6325 131.576C89.7715 131.48 92.9105 131.234 96.0388 130.54C96.0815 130.54 96.1135 130.497 96.1242 130.455C96.1349 130.391 96.1028 130.337 96.0388 130.326C92.9105 129.643 89.7928 129.398 86.6645 129.291C85.1057 129.269 83.5362 129.334 81.9774 129.419C80.4186 129.472 78.8491 129.632 77.2796 129.846C76.8846 129.889 76.4895 129.953 76.1052 129.974C75.7421 129.996 75.3364 129.985 74.9521 129.963C74.1833 129.931 73.4146 129.803 72.6992 129.579C71.2152 129.131 70.1261 128.063 69.3788 126.899C68.5887 125.746 67.9801 124.497 67.6171 123.088C67.2434 121.678 67.1153 120.173 66.9978 118.582V118.593Z" fill="black"/>
<path d="M144.564 103.933C145.013 101.072 145.237 98.2105 145.397 95.3491C145.568 92.4877 145.61 89.6263 145.632 86.7649C145.61 83.9036 145.568 81.0422 145.397 78.1808C145.237 75.3194 145.013 72.458 144.564 69.5966C144.126 72.458 143.891 75.3194 143.731 78.1808C143.56 81.0422 143.518 83.9036 143.496 86.7649C143.518 89.6263 143.56 92.4877 143.731 95.3491C143.891 98.2105 144.116 101.072 144.564 103.933Z" fill="black"/>
<path d="M73.5001 80.017C73.5534 80.444 73.7883 80.8924 73.9805 81.0633L74.5464 81.5758C74.856 81.864 74.9948 81.9708 75.2831 82.1096C75.849 82.3658 75.9344 82.3979 76.3935 82.3338C76.7351 82.3018 76.7885 82.3018 77.1622 82.1096C77.4505 81.9708 77.5893 81.8534 77.8135 81.6291C78.1018 81.3409 78.2085 81.17 78.4434 80.5828L78.6143 80.2732C78.6463 80.2198 78.6676 80.0703 78.6997 79.9315C78.6997 79.7927 78.7851 79.4724 78.8705 79.2482L79.0413 78.5969C79.0413 78.4581 79.0947 78.2873 79.1267 78.2019C79.1588 78.1165 79.1801 77.9456 79.1801 77.8282C79.1801 77.6894 79.2122 77.5186 79.2335 77.4332C79.2655 77.3477 79.2869 77.1449 79.2869 77.0061C79.2869 76.8673 79.3189 76.6965 79.3403 76.6324C79.3723 76.4936 79.4257 76.1199 79.4791 75.554C79.5111 75.4152 79.5325 75.159 79.5965 74.9882C79.6285 74.8494 79.6819 74.5611 79.6819 74.3582L79.7994 73.7283C79.8314 73.5895 79.8528 73.3546 79.8528 73.2692C79.8528 73.1518 79.8848 72.8742 79.9062 72.6393L80.0236 71.8385C80.077 71.3794 80.1944 70.5893 80.3119 70.0448L80.3652 69.5323C80.3652 69.4469 80.4186 69.3081 80.4827 69.1586L80.5681 68.9024L80.5361 69.3615C80.4827 70.0768 80.504 70.2477 80.6215 70.5786C80.6749 70.7495 80.7069 70.9523 80.7069 71.0911C80.7069 71.2086 80.7389 71.4008 80.7923 71.5716C80.9098 72.0307 80.9311 72.3083 80.8244 72.714C80.7389 73.0877 80.7069 73.7924 80.7923 74.0806C80.8457 74.3689 80.9098 75.0736 80.8777 75.3619C80.8457 75.5007 80.8457 75.6715 80.8777 75.821C80.9311 76.248 80.9952 76.9527 80.9952 77.5826V78.266L81.134 78.5542C81.2514 78.7784 81.2728 78.8959 81.3048 79.2055C81.3582 79.6646 81.4223 79.8568 81.6465 80.1985L81.9561 80.6789C82.0095 80.7964 82.159 80.9885 82.2978 81.1594C82.5006 81.3836 82.554 81.4476 82.9277 81.6185C83.643 81.9922 84.2303 82.0135 84.8282 81.7039C85.1698 81.5651 85.4261 81.3302 85.7037 80.9352C85.9279 80.6255 86.0133 80.4227 86.0987 80.0276L86.2161 79.5151C86.3336 79.056 86.387 78.6396 86.419 78.4368C86.419 78.3193 86.451 78.0951 86.4724 77.9563C86.4724 77.8175 86.5044 77.6681 86.4724 77.6467C86.4404 77.5613 86.387 77.5292 86.3016 77.5613C86.1841 77.5933 85.9386 78.1272 85.9386 78.362C85.9386 78.4154 85.9065 78.5649 85.8531 78.7357L85.6503 79.2803C85.5969 79.4511 85.4474 79.7394 85.362 79.8782C85.2766 80.081 85.2232 80.2198 85.2232 80.3052C85.2232 80.4227 85.1912 80.4761 84.967 80.7003L84.7107 80.9565L84.4224 80.9885C84.1662 81.0206 84.1342 81.0206 83.9954 80.9031C83.7712 80.7323 83.7071 80.5935 83.7071 80.081C83.7071 79.8568 83.7391 79.5365 83.7391 79.3977C83.7925 79.1094 83.7711 78.6823 83.6217 78.3514C83.5683 78.1272 83.5683 78.0631 83.5896 77.7535L83.6751 76.9527C83.7284 76.4936 83.7284 76.5577 83.7071 75.159C83.7071 74.5931 83.7071 74.0806 83.7391 73.9418C83.7712 73.6856 83.7712 73.5148 83.6537 72.9809C83.6003 72.6927 83.6003 72.6393 83.6537 72.351C83.7391 71.9239 83.7391 71.6677 83.6217 71.3581C83.3975 70.7922 83.3975 70.7281 83.3975 70.1623C83.3975 69.7352 83.3654 69.5964 83.3121 69.4256C83.2587 69.3081 83.1946 69.0839 83.1946 68.9451C83.1626 68.8063 83.0772 68.5714 83.0238 68.4326C82.9704 68.2618 82.9063 68.0589 82.885 67.8347C82.8316 67.3543 82.7141 67.1194 82.255 66.703C81.8066 66.2439 81.5397 66.1371 81.1767 66.1371C81.0379 66.1371 80.8884 66.1371 80.835 66.1905C80.5254 66.3613 80.3225 66.6496 80.2692 67.13C80.2158 67.6959 80.1838 67.9308 80.0663 68.123C80.0129 68.2084 79.9809 68.3472 79.9809 68.4113C79.9809 68.4753 79.9275 68.6675 79.8955 68.8704C79.778 69.244 79.6926 69.6391 79.6392 70.0341C79.6392 70.1729 79.6072 70.3224 79.5858 70.3758C79.5538 70.4078 79.5325 70.5146 79.5325 70.6C79.5325 70.6854 79.5004 70.8242 79.4791 70.9096L79.3937 71.3901L79.2762 72.02L79.1588 72.7354C79.0734 73.3867 79.02 73.8137 78.9559 73.9846C78.9239 74.07 78.9025 74.2408 78.8705 74.3796C78.8705 74.5184 78.8171 74.7533 78.7851 74.8601C78.753 74.9775 78.7317 75.2551 78.6676 75.5113L78.5822 76.2267C78.5502 76.4509 78.4648 76.8246 78.3794 77.1876L78.2619 77.6467C78.2619 77.7641 78.2085 77.9563 78.1765 78.0417L78.0591 78.4688C77.9203 79.0347 77.6106 79.6646 77.1729 80.4013C77.0021 80.6896 76.97 80.7109 76.7458 80.8818C76.4362 81.106 76.212 81.138 76.0305 80.9352C75.7422 80.6255 75.7208 80.5935 75.7208 80.0276C75.6995 79.4368 75.7386 79.0276 75.8383 78.7998C76.0945 78.266 76.0411 77.8602 75.6141 77.2944C75.3044 76.8673 74.9628 76.6431 74.5891 76.6431C74.3008 76.6431 74.1086 76.7605 73.8524 77.0381C73.5962 77.2944 73.3186 77.8069 73.137 78.2553C73.0196 78.5969 73.0516 78.9706 73.2545 79.387L73.4574 80.017H73.5001Z" fill="black"/>
<path d="M87.4862 80.1024C87.5396 80.2199 87.657 80.4121 87.6891 80.5615C87.8065 80.8178 88.2336 81.4477 88.4258 81.6399C88.4791 81.6933 88.6286 81.7573 88.7354 81.7787C88.9382 81.8321 88.9916 81.8321 89.3867 81.7787C89.6749 81.7467 89.8671 81.6933 90.0166 81.6079C90.2195 81.5225 90.5611 81.1488 90.6679 80.9246L90.8387 80.6363C90.8921 80.5829 91.0095 80.38 91.095 80.2092C91.3512 79.6113 91.3192 79.8676 91.9491 78.5009L92.2267 77.8496C92.3655 77.5934 92.3975 77.5614 92.3975 77.6468C92.3975 77.8496 92.4829 78.1272 92.6217 78.2981C92.7072 78.4155 92.7605 78.5863 92.7926 78.7572C92.846 78.896 92.91 79.0988 92.9314 79.2163L93.1022 79.6754C93.241 80.1024 93.8709 80.7217 94.266 80.8071C94.4902 80.8605 94.693 80.8071 95.1415 80.5188C95.7073 80.1451 96.2198 79.6967 96.444 79.3551L96.8177 78.7892L97.0206 78.4155C97.0526 78.3301 97.138 78.1913 97.1914 78.0739C97.2768 77.9884 97.3302 77.871 97.3302 77.8176C97.3302 77.7856 97.3836 77.6147 97.501 77.4439C97.5117 77.4226 97.5224 77.4012 97.5331 77.3905C97.5544 77.8817 97.5971 78.2447 97.6505 78.4475L97.7893 78.8746C97.8427 78.9921 97.9281 79.1842 98.0135 79.2697L98.2698 79.6113C98.4406 79.8142 98.8677 80.1772 99.0919 80.2626C99.1773 80.2946 99.3802 80.316 99.519 80.348C99.7432 80.38 99.8286 80.348 100.031 80.2946C100.426 80.1238 100.576 80.0384 100.886 79.7608C101.483 79.2163 101.398 79.1629 101.793 78.2874C101.847 78.1699 101.932 77.9457 101.932 77.8283C101.964 77.7108 102.017 77.572 102.049 77.54C102.103 77.4866 102.103 77.508 102.135 77.5934C102.167 77.7322 102.103 80.8285 102.103 80.8071C101.985 80.9246 101.793 81.1488 101.644 81.3196C101.59 81.405 101.334 81.6933 101.078 81.9709C100.822 82.2271 100.565 82.5368 100.512 82.6222C100.48 82.7076 100.373 82.8464 100.309 82.9318C100.224 83.0172 100.17 83.1026 100.17 83.1347C100.17 83.1667 100.085 83.2735 99.9674 83.4229L99.6578 83.818L99.3161 84.4693C98.9211 85.27 98.8677 85.1846 98.6862 86.0601C98.6328 86.4872 98.6541 86.7968 98.825 87.2025C98.9424 87.4908 99.2841 87.8538 99.6791 88.078L99.9887 88.2809C100.875 88.3129 101.185 88.3663 101.462 88.1955C101.516 88.1421 101.665 88.078 101.772 88.0567C102.049 87.9713 102.284 87.8325 102.37 87.683C102.487 87.5122 102.882 87.0851 103.053 86.8288L103.363 86.4018C103.651 86.0921 103.843 85.601 103.928 85.0672C104.014 84.5547 104.217 83.7646 104.388 83.3375C104.473 83.0813 104.473 83.0279 104.441 82.8037C104.409 82.2912 104.409 82.0029 104.526 81.6933C104.612 81.3516 104.644 80.9779 104.526 80.7324C104.473 80.5615 104.473 80.5082 104.526 80.1879L104.58 79.7608C104.58 79.7608 104.836 79.5045 105.146 79.2803C105.509 78.9814 106.79 77.7535 107.527 77.0062C107.623 77.4332 107.783 77.903 107.9 78.1699C108.103 78.5116 108.413 79.0241 108.53 79.1095C108.648 79.2483 109.16 79.5686 109.438 79.7074C109.555 79.7608 109.801 79.8462 110.004 79.9103C110.345 80.0277 110.377 80.0277 110.74 79.9636C111.53 79.8782 112.075 79.7074 112.705 79.3337L113.388 78.8746C113.559 78.7892 113.815 78.565 113.986 78.4155C114.264 78.1272 114.296 78.1059 114.701 77.5934C114.84 77.4226 115.011 77.1984 115.128 77.1129C115.235 76.9955 115.406 76.7926 115.566 76.6004C115.588 76.846 115.502 76.9955 115.438 77.9564C115.406 78.4369 115.406 78.5223 115.47 78.7785C115.502 79.0027 115.524 79.0881 115.47 79.3444C115.438 79.6006 115.438 79.686 115.524 80.0277L115.577 80.5936C115.577 80.711 115.63 80.9032 115.694 81.074C115.748 81.2982 115.812 81.5331 115.833 81.8748C115.865 82.2698 115.865 82.3873 115.972 82.6115C116.057 82.7823 116.111 82.9532 116.143 83.1774C116.175 83.4656 116.196 83.5511 116.367 83.8927C116.484 84.149 116.591 84.2878 116.709 84.3732C116.847 84.4906 116.879 84.4906 117.168 84.4906C117.424 84.4906 117.477 84.4906 117.616 84.3732C117.702 84.3198 117.872 84.149 117.958 83.9995C118.129 83.7432 118.161 83.7112 118.182 83.3696C118.235 82.6542 118.321 82.0029 118.385 81.7787C118.47 81.405 118.502 80.4121 118.438 80.1345C118.406 79.9103 118.406 79.8462 118.47 79.654C118.524 79.4298 118.556 78.7678 118.524 77.209C118.524 76.5257 118.524 76.4723 118.641 76.1307C118.78 75.6502 119.036 75.1057 119.207 74.8815C119.292 74.7961 119.41 74.6252 119.463 74.5398C119.517 74.4224 119.687 74.1661 119.89 73.974C120.168 73.6643 120.253 73.5789 120.488 73.4935C120.798 73.3547 120.937 73.3227 121.204 73.4401C121.428 73.5255 121.631 73.8352 121.737 74.2622L121.94 74.8922C122.111 75.3726 122.111 75.8638 121.972 76.1947C121.919 76.3335 121.833 76.6752 121.769 76.9955C121.716 77.2838 121.631 77.5614 121.599 77.6254C121.567 77.6788 121.46 77.8496 121.321 77.9991L121.065 78.2874C120.552 78.2874 120.467 78.2874 120.211 78.1699C119.986 78.0525 119.784 77.8603 119.784 77.6895C119.784 77.5187 119.698 77.3158 119.591 77.2624C119.389 77.209 119.164 77.3478 119.025 77.6361C118.908 77.8923 118.908 78.0098 119.025 78.3194C119.25 78.8639 119.88 79.4298 120.499 79.622L120.894 79.7928C121.011 79.8782 121.097 79.8782 121.545 79.9103C122.175 79.9103 122.399 79.8782 122.826 79.622C123.254 79.3978 123.542 79.0775 123.851 78.5436C124.193 78.0098 124.332 77.6681 124.385 77.3265C124.439 76.9528 124.556 76.5898 124.609 75.7356C124.609 75.4794 124.609 75.426 124.524 75.2231C124.471 75.1057 124.407 74.9135 124.407 74.7961C124.353 74.4224 124.268 74.1982 124.097 73.974C124.012 73.8565 123.873 73.6323 123.787 73.4615C123.649 73.2052 123.563 73.0878 123.189 72.7461C122.389 72.0094 122.335 72.2016 121.684 72.0094C121.289 71.892 121.118 71.924 120.744 72.0948C120.574 72.1802 120.435 72.2336 120.403 72.2336C120.349 72.2336 120.232 72.3511 120.093 72.4578L119.719 72.8315C119.602 72.9169 119.495 73.0558 119.431 73.1412C119.26 73.4294 119.058 73.6537 118.897 73.9953L118.727 74.2836C118.588 74.4544 118.588 74.1661 118.695 73.5149C118.812 73.0344 118.812 73.0024 118.78 72.4365C118.727 71.7852 118.662 71.529 118.385 71.0699C118.097 70.536 117.67 70.3332 117.221 70.504C116.933 70.5894 116.794 70.7602 116.591 71.1553L116.367 71.5824C116.228 71.7212 116.111 72.0415 116.111 72.3724C116.111 72.5753 116.079 72.8315 116.057 72.9383L116.004 73.312C116.004 73.4294 115.919 73.6857 115.865 73.8779C115.694 74.5078 115.47 75.5221 115.47 75.8424C115.47 75.8744 115.47 75.9065 115.47 75.9492C115.278 76.088 114.99 76.3549 114.52 76.814C114.381 76.9314 114.264 77.0382 114.232 77.0382C114.2 77.0382 114.061 77.1556 113.922 77.2944C113.409 77.7749 113.014 78.1486 112.844 78.2554L112.534 78.4796C112.31 78.6824 111.626 78.9066 111.253 78.9066C111.135 78.9066 110.997 78.8746 110.772 78.7678C110.399 78.565 110.142 78.2874 110.089 77.9991L109.972 77.6254C109.886 77.4546 109.886 77.3372 109.854 76.9101V76.3122C109.822 76.1093 110.057 75.8638 110.505 75.5755C111.103 75.1804 111.103 75.1164 111.53 74.8067C111.669 74.7213 111.819 74.5825 111.84 74.5185C111.893 74.4331 111.979 74.3477 112.064 74.2622C112.267 74.1234 112.32 74.0594 112.491 73.7818C112.833 73.2693 112.662 73.8352 113.377 72.3084C113.409 72.223 113.495 72.0201 113.516 71.8813L113.634 71.3688C113.687 71.198 113.719 70.9097 113.719 70.6535C113.719 70.2584 113.719 70.2264 113.602 70.0556C113.463 69.8527 112.972 69.4577 112.715 69.3189C112.545 69.2334 112.374 69.2335 112.064 69.2655C111.861 69.2975 111.328 69.4683 111.007 69.6392C110.868 69.7246 110.612 69.81 110.473 69.8634C110.164 69.9488 109.619 70.2905 109.427 70.4933C109.342 70.5787 109.224 70.7175 109.171 70.867C108.883 71.3795 108.455 71.7212 108.37 72.2016C108.338 72.287 108.253 72.4579 108.167 72.5966C108.082 72.7354 107.964 72.9917 107.911 73.1412C107.879 73.28 107.772 73.4828 107.708 73.5896C107.569 73.8138 107.281 74.8708 107.249 75.2979C107.228 75.5648 107.27 75.7036 107.334 76.0666C107.238 76.1413 107.132 76.2374 106.961 76.3762L106.512 76.7499C106.256 76.9528 106 77.1236 105.861 77.2624C105.776 77.3478 105.658 77.4332 105.583 77.4653C105.359 77.5827 105.242 77.6895 105.156 77.8603C105.103 77.9457 105.071 77.9991 105.039 77.9991L104.836 78.1379C104.719 78.2554 104.665 78.2767 104.633 78.2554C104.601 78.2233 104.58 77.9457 104.58 77.4866C104.58 76.9421 104.548 76.7179 104.494 76.5791C104.462 76.4617 104.441 76.2695 104.441 76.0666C104.441 75.8638 104.441 75.6716 104.409 75.5541C104.377 75.4687 104.356 75.1591 104.324 74.8708C104.292 74.3904 104.292 74.3263 104.121 74.0167C104.035 73.8138 103.95 73.6216 103.95 73.5362C103.896 73.28 103.747 73.0771 103.437 72.9703C103.213 72.8849 103.128 72.8849 102.957 72.8849C102.807 72.9063 102.711 72.8778 102.669 72.7995C102.583 72.6287 101.9 72.0628 101.697 71.9774C101.473 71.924 101.185 71.924 100.96 71.9774C100.875 72.0094 100.651 72.0308 100.48 72.0628C100.17 72.0948 100.031 72.1482 99.3695 72.5219C98.7716 72.8636 98.7396 72.8636 98.2911 73.6643C98.1523 73.9206 97.9815 74.2302 97.8961 74.3476C97.7253 74.5719 97.6932 74.6359 97.5224 75.2552C97.4477 75.5007 97.437 75.5968 97.437 76.12C97.3302 76.2481 97.2128 76.4189 97.0313 76.6752C96.6896 77.2411 96.5508 77.4439 96.2946 77.7215C96.2092 77.8069 96.0917 77.9778 96.0704 78.0632C96.0383 78.1486 95.9529 78.2874 95.8675 78.3514C95.7821 78.4369 95.6646 78.6077 95.5792 78.7465C95.4618 78.8853 95.323 79.0348 95.2162 79.0882L94.9066 79.3124C94.7357 79.4512 94.6183 79.4298 94.5115 79.3124C94.4261 79.1949 94.4261 79.1736 94.4582 78.7999L94.5115 78.0632C94.5115 77.8603 94.5436 77.6681 94.5436 77.6041C94.5756 77.5187 94.597 77.3478 94.629 77.209C94.629 77.0382 94.6824 76.782 94.7464 76.6111C94.7998 76.4083 94.8318 76.152 94.8639 75.9812C94.9173 75.2445 95.0027 75.3833 94.9813 74.4758C94.9279 73.9313 94.9279 73.8779 94.7785 73.6216C94.4902 72.9917 94.266 72.7675 93.9563 72.6821C93.6681 72.6287 93.3905 72.7354 93.0168 73.1412C92.6217 73.5149 92.5363 73.7391 92.5043 74.5078C92.4723 74.8815 92.4509 75.0523 92.3869 75.2231C92.3335 75.3406 92.2694 75.5648 92.216 75.7036C92.0986 76.1841 92.0772 76.2695 91.9598 76.5044C91.9064 76.6218 91.8423 76.7606 91.8423 76.7926C91.8423 76.8247 91.789 76.9635 91.7035 77.1023C91.6181 77.2411 91.5327 77.4119 91.5327 77.4439C91.5327 77.4973 91.4793 77.6468 91.3939 77.7856C91.0843 78.2447 90.9668 78.4689 90.796 78.7465C90.5931 79.1202 90.1127 79.6327 90.0593 79.5472C89.9739 79.4298 89.9739 79.0668 90.0593 78.8319C90.0913 78.7465 90.1981 77.9564 90.2622 77.4119C90.2942 77.2944 90.3476 77.0382 90.3796 76.846C90.433 76.6432 90.4971 76.2481 90.5184 75.9919C90.5504 75.6182 90.5718 75.4474 90.6572 75.2231C90.8814 74.6252 90.9455 74.2302 90.796 73.7177C90.7426 73.5789 90.7106 73.3227 90.7106 73.2052C90.7106 72.8956 90.5932 72.6073 90.401 72.4365C90.1447 72.2123 90.0273 72.1803 89.6322 72.1482C89.3226 72.1482 89.2692 72.1482 89.0664 72.2336C88.6713 72.4365 88.2122 72.917 87.924 73.4508C87.7852 73.675 87.7531 73.7925 87.5289 74.8708C87.4755 75.095 87.3901 75.3513 87.326 75.4687C87.1232 75.8424 87.1018 75.9812 87.0698 76.4937L86.9844 77.2944C86.9844 77.5507 86.9844 77.8069 87.0378 78.1486C87.1766 79.4512 87.1232 79.654 87.4008 80.1131L87.4862 80.1024ZM102.017 82.4086C101.985 82.5261 101.964 82.7503 101.964 82.9211C101.964 83.0919 101.911 83.3162 101.847 83.4656C101.814 83.6044 101.761 83.7539 101.761 83.8073C101.761 83.9247 101.644 84.3732 101.473 84.9497C101.355 85.3234 101.302 85.4088 101.185 85.5476C101.099 85.633 100.96 85.8039 100.875 85.9213C100.651 86.295 100.309 86.6367 100.192 86.6367C100.053 86.6367 99.882 86.4979 99.7966 86.263C99.6578 85.8679 99.7111 85.6117 100.106 84.8109C100.394 84.245 100.555 83.9354 100.822 83.6471L101.185 83.188C101.387 82.8998 102.039 82.1951 102.071 82.1951C102.103 82.2271 102.071 82.3126 102.017 82.4193V82.4086ZM110.687 73.9953C110.772 73.5362 110.975 73.1198 111.146 72.8636C111.317 72.6394 111.456 72.3191 111.456 72.1803C111.456 72.0415 111.626 71.8386 111.829 71.7211C112.086 71.5503 112.256 71.3795 112.481 71.0699C112.651 70.8456 112.769 70.8136 112.822 70.9524C112.854 70.9844 112.854 71.1232 112.854 71.2941C112.854 71.5183 112.801 71.6037 112.566 72.0948C112.31 72.6287 112.032 73.0344 111.626 73.4294C110.858 74.1661 110.719 74.3156 110.655 74.3156C110.591 74.3156 110.601 74.3156 110.687 74.006V73.9953ZM99.8286 77.3478C99.7752 77.1236 99.7752 77.0916 99.8606 76.9528C99.9781 76.782 100.117 76.2695 100.32 75.4794C100.405 75.1377 100.437 75.0203 100.576 74.8281C101.003 74.2302 101.174 74.1448 101.377 74.369C101.601 74.6573 101.921 74.9028 102.06 74.9989C102.434 75.2018 102.434 75.394 102.06 76.0453L101.943 76.2695C101.772 76.6432 101.516 77.0702 101.398 77.209C101.345 77.2944 101.281 77.3799 101.281 77.4119C101.281 77.4439 101.142 77.5827 100.992 77.7215C100.854 77.8603 100.629 78.1166 100.48 78.2874C100.277 78.597 100.202 78.6611 99.9994 78.7678C99.8286 78.8533 99.7966 78.8212 99.7432 78.4796C99.7111 78.2233 99.7111 78.1379 99.7966 77.8817C99.8499 77.6254 99.8499 77.572 99.8286 77.3478Z" fill="black"/>
<path d="M125.784 78.6294L125.923 79.0885C125.955 79.1739 125.976 79.3447 126.008 79.4835C126.062 79.9106 126.606 80.6152 127.055 80.8715C127.14 80.9035 127.279 81.0103 127.396 81.0957C127.532 81.1882 127.749 81.2345 128.048 81.2345C128.614 81.2345 128.646 81.2025 129.158 80.754C129.639 80.2949 129.671 80.2736 129.841 79.8785C129.98 79.5369 129.98 79.5049 129.98 78.8536C129.98 78.2557 129.948 77.9674 129.895 77.6257C129.841 77.4229 129.5 76.6648 129.382 76.5154C129.329 76.4299 129.297 76.3445 129.297 76.3125C129.329 76.2591 129.436 76.195 129.553 76.1737C129.671 76.1417 129.777 76.0563 129.809 76.0349C129.841 76.0029 129.948 75.9495 130.066 75.8961C130.151 75.8427 130.322 75.7253 130.439 75.6078C130.525 75.5224 130.642 75.437 130.642 75.437C130.674 75.437 130.845 75.2982 131.037 75.1274C131.24 74.9245 131.379 74.8177 131.4 74.8177L131.347 75.1274C131.293 75.3516 131.293 75.6078 131.293 76.0883C131.293 76.6862 131.293 76.7716 131.176 77.0278C131.091 77.2841 131.091 77.4015 131.123 77.5937C131.123 77.7645 131.123 77.9674 131.069 78.1916C131.016 78.4479 131.016 78.5333 131.101 78.7575C131.133 78.8963 131.155 79.1846 131.155 79.3874C131.123 80.0707 131.208 81.2025 131.272 81.4053C131.304 81.5762 131.39 81.715 131.582 81.9178C131.699 82.0566 131.87 82.2915 131.923 82.4303C132.009 82.6332 132.041 82.6545 132.436 82.8574C132.916 83.0816 133.461 83.199 133.803 83.1136C134.027 83.0602 134.539 82.8894 134.625 82.8253C134.795 82.7079 135.735 81.779 135.991 81.4374C136.386 80.8928 136.899 79.9853 137.016 79.5903C137.048 79.5049 137.07 79.3874 137.102 79.3874C137.155 79.334 137.443 78.7361 137.497 78.5119C137.529 78.3945 137.55 78.2557 137.614 78.1703C137.732 77.946 137.87 77.2307 137.902 76.7823C137.956 76.3018 137.87 76.099 137.678 76.0456C137.507 75.9922 137.39 76.0776 137.283 76.3552L136.974 77.2093C136.856 77.551 136.749 77.946 136.717 78.0848C136.685 78.2877 136.6 78.544 136.493 78.8002C136.376 79.0244 136.269 79.2806 136.237 79.3981C136.205 79.4835 136.119 79.6543 136.034 79.7718C135.981 79.8892 135.917 79.996 135.917 80.028C135.917 80.1668 135.148 81.1064 134.635 81.6189C134.432 81.7897 134.069 81.9605 133.781 81.9926C133.632 82.0139 133.507 81.9748 133.407 81.8751C133.322 81.7363 133.29 81.6509 133.269 81.3092C133.237 81.085 133.215 80.7647 133.151 80.6259C133.119 80.4551 133.098 80.1989 133.098 79.9746C133.098 78.4372 133.098 78.245 133.151 77.9888C133.183 77.8179 133.237 77.4442 133.237 77.1346C133.269 76.7075 133.29 76.5047 133.407 76.1417C133.546 75.6612 133.61 75.1487 133.61 74.7216C133.61 74.5829 133.664 74.348 133.728 74.1878C133.845 73.7928 133.867 73.3016 133.781 72.8532C133.642 72.1165 133.407 71.8603 132.874 71.8603C132.649 71.8603 132.564 71.8603 132.415 71.9777C132.19 72.1165 131.966 72.5222 131.881 72.8318C131.827 73.0347 131.656 73.4618 131.539 73.7928C131.454 73.9316 130.995 74.3586 130.429 74.7537C130.204 74.9565 129.436 75.2982 128.977 75.437C128.464 75.6078 128.443 75.6078 128.347 75.7466C128.208 75.9708 128.229 76.2271 128.4 76.462C128.795 76.9958 128.913 77.252 129.03 77.8499C129.083 78.277 129.062 79.0458 128.977 79.2166C128.891 79.3554 128.635 79.697 128.528 79.7825C128.443 79.8999 128.154 79.8999 128.016 79.7825C127.877 79.6437 127.674 78.9817 127.674 78.64V78.0421C127.674 77.3054 127.706 77.1666 127.759 76.9104L127.877 76.3445C127.877 76.1417 127.93 75.8107 127.994 75.6078C128.165 74.8925 128.283 74.2732 128.304 73.8141C128.304 73.4191 128.336 73.3016 128.443 73.1308C128.667 72.7358 128.646 72.4155 128.389 71.8496C128.165 71.3051 127.824 71.0809 127.45 71.1663C127.076 71.2517 126.766 71.6254 126.339 72.5009C126.286 72.6397 126.222 72.8425 126.222 73.0134C126.19 73.2162 126.137 73.387 125.998 73.6646C125.884 73.9138 125.827 74.1985 125.827 74.5188C125.827 74.8284 125.827 75.0633 125.774 75.1701C125.742 75.2555 125.72 75.4583 125.72 75.5651C125.72 75.7039 125.688 75.8747 125.667 75.9922C125.613 76.1096 125.581 76.4193 125.581 76.9851C125.549 77.7539 125.549 77.8393 125.635 78.0635C125.688 78.1809 125.752 78.4372 125.806 78.6294H125.784Z" fill="black"/>
<path d="M100.448 93.0643C100.394 92.9255 100.33 92.8081 100.33 92.776C100.33 92.744 100.277 92.6052 100.192 92.4344C99.9887 92.0073 99.4762 91.6336 99.0278 91.4948C98.9744 91.4948 98.9103 91.4414 98.889 91.3774C98.7502 91.0037 98.6861 90.9183 98.4299 90.7261L98.0028 90.4165C97.7786 90.3311 97.4369 90.3311 97.0632 90.4485L96.5294 90.5873C96.3052 90.6407 96.2198 90.7048 96.049 90.8756C95.6219 91.3027 95.3122 91.6977 95.1628 92.0073C95.0774 92.1781 94.9065 92.4344 94.8211 92.5732C94.5115 92.9682 94.3086 93.3419 94.1912 93.7049C94.0737 93.9932 94.0737 94.0786 94.0524 94.7833C94.031 95.488 94.0524 95.6588 94.1164 96.0859L93.9029 96.5663C93.8175 96.7372 93.7641 96.908 93.7641 96.94C93.7641 96.972 93.6787 97.1429 93.5933 97.3137L92.8246 98.9366C92.6003 99.417 92.3655 99.8441 92.2267 100.047C92.1412 100.186 92.0558 100.303 92.0558 100.335C92.0558 100.421 91.853 100.624 91.6608 100.73C91.4686 100.844 91.2907 100.862 91.1269 100.784C90.9561 100.698 90.7319 100.442 90.6678 100.239C90.6358 100.186 90.6678 99.8655 90.7212 99.5558C90.8066 98.7871 90.8387 98.6696 90.9454 98.3921C90.9988 98.2533 91.0308 98.0504 91.0629 97.9329C91.0629 97.7621 91.1163 97.6767 91.2337 97.5379C91.3725 97.3671 91.522 97.0574 91.522 96.8866C91.522 96.8012 91.7248 96.0859 91.8316 95.8616C91.8636 95.7442 91.9491 95.5734 91.9704 95.4346L92.1412 94.7833C92.1946 94.5804 92.28 94.2174 92.3121 93.9932C92.3441 93.6195 92.3441 93.5982 92.2267 93.0857C92.0879 92.5198 91.9704 92.2636 91.6928 91.9753C91.3832 91.6657 90.9775 91.5162 90.465 91.5162C90.1233 91.5162 90.0699 91.5482 89.8671 91.6336C89.7283 91.719 89.5574 91.8578 89.408 92.0287L88.8741 92.5732C88.6179 92.8294 88.5645 92.9148 88.3296 93.4273C88.1054 93.9078 88.0734 94.0252 88.0734 94.2494C88.0734 94.3882 88.0413 94.6231 88.02 94.7619C87.9666 94.9861 87.9666 95.0182 88.052 95.157C88.2228 95.4986 88.6499 95.5307 88.8421 95.189L89.1517 94.7299C89.2371 94.5591 89.3546 94.4203 89.3546 94.3882C89.3546 94.2494 90.0699 93.5341 90.1767 93.5341C90.2087 93.5341 90.2621 93.6195 90.3155 93.7049C90.4543 94.0466 90.3689 94.3562 89.7496 95.6054C89.5254 96.0859 89.3012 96.6304 89.2692 96.8012L89.0984 97.3457C88.8101 98.2532 88.7887 98.3707 88.7567 99.1074L88.7247 99.8227L88.8635 100.303C88.9489 100.591 89.0663 100.901 89.1197 101.019C89.2371 101.275 89.5147 101.531 89.8564 101.67L90.2194 101.841C90.3582 101.926 91.159 102.011 91.4686 101.979C91.7248 101.947 92.4295 101.606 92.5149 101.467C92.547 101.414 92.6858 101.296 92.8032 101.211C92.9206 101.125 93.0594 100.987 93.1128 100.901C93.1662 100.784 93.2837 100.645 93.337 100.591C93.4758 100.421 93.7961 99.8548 93.8175 99.6519C93.8495 99.5131 94.0204 99.1074 94.1912 98.6803C94.2766 98.5095 94.2766 98.3921 94.2766 98.1145C94.2766 97.997 94.2873 97.8155 94.3193 97.6767C94.4047 97.9543 94.693 98.2853 95.1307 99.0433C95.6753 99.8975 95.8461 100.068 96.4653 100.26C96.807 100.378 96.9244 100.399 97.2341 100.399C97.4369 100.399 97.7145 100.367 97.832 100.346L98.1736 100.293C98.3445 100.26 98.7395 100.036 98.9744 99.8334C99.2306 99.6306 99.6043 99.1181 99.8285 98.7551C100.277 97.9009 100.224 97.6767 100.512 96.9614C100.565 96.7905 100.629 96.5663 100.651 96.4168L100.736 95.9364C100.789 95.6801 100.821 95.1463 100.789 94.463C100.789 94.1213 100.587 93.3312 100.416 93.043L100.448 93.0643ZM99.1986 96.4489L99.0812 96.9614C99.0812 97.0468 99.0491 97.1856 98.9958 97.2496L98.8783 97.6233C98.8249 97.8262 98.7395 97.9329 98.59 98.0824C98.5046 98.1999 98.3872 98.3066 98.3658 98.3707C98.3124 98.4881 97.9921 98.6269 97.8854 98.5949C97.832 98.5949 97.7145 98.5095 97.6291 98.3921L97.4583 98.2212L97.3729 97.6553C97.3408 97.2817 97.3195 96.9186 97.3195 96.577C97.3195 96.2674 97.3195 95.9257 97.2875 95.7549C97.2554 95.4986 97.2554 95.4132 97.3729 95.157C97.4263 95.0182 97.4903 94.6979 97.5117 94.527C97.5971 94.1 97.6505 93.9612 97.8533 93.6409C98.0242 93.3526 98.1416 93.075 98.195 92.7654C98.227 92.3917 98.2804 92.3917 98.4192 92.712L98.59 93.0857C98.7929 93.3953 98.9851 93.8544 98.9851 93.9078L99.1025 94.4203C99.22 94.8153 99.22 94.9328 99.22 95.3598C99.1879 95.6481 99.22 95.9257 99.22 96.0111C99.252 96.0645 99.22 96.2674 99.1879 96.4702L99.1986 96.4489Z" fill="black"/>
<path d="M121.535 95.5093C121.417 95.5093 121.364 95.5413 121.14 95.7976C120.937 96.0004 120.83 96.1713 120.627 96.6197L120.232 97.4205L120.061 97.7621L119.805 98.1572C119.72 98.296 119.549 98.5522 119.431 98.691L119.036 99.2355C118.812 99.5238 118.503 99.8334 118.439 99.8334C118.406 99.8334 118.385 99.748 118.353 99.5452C118.353 99.3743 118.3 99.1715 118.268 99.0647C118.236 98.9472 118.214 98.691 118.214 98.5202L118.246 97.7514V97.1002C118.246 96.8973 118.214 96.8119 118.129 96.6411C118.076 96.5023 118.011 96.3848 118.011 96.2674C118.011 95.9791 117.755 95.552 117.552 95.4986C117.52 95.4666 117.499 95.2958 117.499 95.0395C117.499 94.4416 117.446 93.7049 117.36 93.5341L117.221 93.107C117.168 92.9682 117.051 92.7333 116.965 92.6266L116.709 92.2315C116.57 91.9753 116.421 91.8578 115.994 91.719C115.598 91.5482 115.364 91.5162 114.776 91.6657C114.552 91.719 114.317 91.8045 114.264 91.8365C113.634 92.1781 112.929 92.8828 112.726 93.3099C112.673 93.4487 112.556 93.6515 112.47 93.769C112.385 93.8864 112.267 94.1107 112.214 94.2815C112.161 94.4843 112.043 94.7406 111.958 94.8794C111.872 95.0182 111.787 95.2531 111.755 95.3598C111.755 95.4346 111.733 95.52 111.701 95.5947C111.595 95.6588 111.445 95.7762 111.178 96.0111L110.73 96.3848C110.474 96.5877 110.217 96.7585 110.079 96.8973C109.993 96.9827 109.876 97.0681 109.801 97.1002C109.577 97.2176 109.459 97.3244 109.374 97.4952C109.321 97.5806 109.288 97.634 109.256 97.634L109.054 97.7728C108.936 97.8902 108.883 97.9116 108.851 97.8902C108.819 97.8582 108.797 97.5806 108.797 97.1215C108.797 96.577 108.765 96.3528 108.712 96.214C108.68 96.0965 108.659 95.9044 108.659 95.7015C108.659 95.4986 108.659 95.3064 108.627 95.189C108.595 95.1036 108.573 94.794 108.541 94.5057C108.509 94.0252 108.509 93.9612 108.338 93.6515C108.253 93.4487 108.167 93.2565 108.167 93.1711C108.114 92.9148 107.965 92.712 107.655 92.6052C107.431 92.5198 107.345 92.5198 107.174 92.5198C107.025 92.5412 106.929 92.5127 106.886 92.4344C106.801 92.2636 106.117 91.6977 105.915 91.6123C105.69 91.5589 105.402 91.5589 105.178 91.6123C105.093 91.6443 104.868 91.6657 104.697 91.6977C104.388 91.7297 104.249 91.7831 103.587 92.1568C102.989 92.4984 102.957 92.4984 102.509 93.2992C102.37 93.5555 102.199 93.8651 102.114 93.9825C101.943 94.2067 101.911 94.2708 101.74 94.8901C101.655 95.1783 101.655 95.2637 101.655 96.0538C101.655 97.0788 101.708 97.7835 101.793 98.1038L101.932 98.5308C101.986 98.6483 102.071 98.8405 102.156 98.9259L102.413 99.2675C102.583 99.4704 103.011 99.8334 103.235 99.9188C103.32 99.9509 103.523 99.9722 103.662 100.004C103.886 100.036 103.971 100.004 104.174 99.9509C104.569 99.78 104.719 99.6946 105.028 99.417C105.626 98.8725 105.541 98.8191 105.936 97.9436C105.989 97.8262 106.075 97.602 106.075 97.4845C106.107 97.3671 106.16 97.2283 106.192 97.1962C106.246 97.1429 106.246 97.1642 106.278 97.2496C106.31 97.3884 106.246 100.485 106.246 100.463C106.128 100.581 105.936 100.805 105.786 100.976C105.733 101.061 105.477 101.35 105.221 101.627C104.964 101.883 104.708 102.193 104.655 102.278C104.623 102.364 104.516 102.503 104.452 102.588C104.366 102.673 104.313 102.759 104.313 102.791C104.313 102.823 104.228 102.93 104.11 103.079L103.801 103.474L103.459 104.125C103.064 104.926 103.011 104.841 102.829 105.716C102.776 106.143 102.797 106.453 102.968 106.848C103.085 107.136 103.427 107.499 103.822 107.724L104.132 107.926C105.018 107.958 105.327 108.012 105.605 107.841C105.658 107.788 105.808 107.724 105.915 107.702C106.192 107.617 106.427 107.478 106.513 107.329C106.63 107.158 107.025 106.731 107.196 106.474L107.505 106.047C107.794 105.738 107.986 105.247 108.071 104.713C108.157 104.2 108.36 103.41 108.53 102.983C108.616 102.727 108.616 102.673 108.584 102.449C108.552 101.937 108.552 101.648 108.669 101.339C108.755 100.997 108.787 100.624 108.669 100.378C108.616 100.207 108.616 100.154 108.669 99.8334L108.723 99.4063C108.723 99.4063 108.979 99.1501 109.288 98.9259C109.619 98.6483 110.719 97.602 111.477 96.8439C111.477 96.8546 111.477 96.8653 111.477 96.8759C111.509 97.0788 111.531 97.2496 111.509 97.5913C111.477 98.1572 111.509 98.328 111.819 98.7551L112.161 99.2675C112.299 99.5238 112.47 99.6946 112.673 99.8014L113.015 100.004C113.527 100.346 113.954 100.378 114.574 100.058C114.798 99.9402 114.915 99.8548 115.086 99.6306C115.31 99.3423 115.887 98.7551 115.887 98.8084L115.94 99.0327L116.026 99.716C116.061 100.058 116.182 100.371 116.389 100.656C116.645 101.029 116.848 101.221 117.125 101.339C117.414 101.424 117.894 101.456 118.065 101.392C118.236 101.307 118.972 100.677 119.111 100.485L119.485 100.026C119.827 99.6306 120.051 99.3103 120.115 99.1501C120.147 99.0647 120.254 98.8618 120.371 98.691C120.488 98.5202 120.713 98.1785 120.819 97.9223L121.193 97.271C121.417 96.9827 121.481 96.8119 121.588 96.3635C121.727 95.7976 121.759 95.7122 121.674 95.5947C121.62 95.5413 121.588 95.5093 121.471 95.5093H121.535ZM106.16 102.044C106.128 102.161 106.107 102.385 106.107 102.556C106.107 102.727 106.053 102.951 105.989 103.101C105.957 103.239 105.904 103.389 105.904 103.442C105.904 103.56 105.786 104.008 105.616 104.585C105.498 104.958 105.445 105.044 105.327 105.183C105.242 105.268 105.103 105.439 105.018 105.556C104.794 105.93 104.452 106.272 104.334 106.272C104.196 106.272 104.025 106.133 103.939 105.898C103.801 105.503 103.854 105.247 104.249 104.446C104.537 103.88 104.697 103.57 104.964 103.282L105.327 102.823C105.53 102.535 106.182 101.83 106.214 101.83C106.246 101.862 106.214 101.947 106.16 102.054V102.044ZM106.192 95.6801L106.075 95.9044C105.904 96.278 105.648 96.7051 105.53 96.8439C105.477 96.9293 105.413 97.0147 105.413 97.0468C105.413 97.0788 105.274 97.2176 105.125 97.3564C104.986 97.4952 104.762 97.7514 104.612 97.9223C104.409 98.2319 104.334 98.2959 104.132 98.4027C103.961 98.4881 103.929 98.4561 103.875 98.1144C103.843 97.8582 103.843 97.7728 103.929 97.5165C103.982 97.2603 103.982 97.2069 103.961 96.9827C103.907 96.7585 103.907 96.7265 103.993 96.5877C104.11 96.4168 104.249 95.9043 104.452 95.1143C104.537 94.7726 104.569 94.6552 104.708 94.463C105.135 93.8651 105.306 93.7797 105.509 94.0039C105.733 94.2922 106.053 94.5377 106.192 94.6338C106.566 94.8367 106.566 95.0289 106.192 95.6801ZM116.079 96.4702C115.94 96.609 115.823 96.7585 115.823 96.7798C115.823 96.8012 115.705 96.9186 115.598 97.0361C115.492 97.1535 115.342 97.2923 115.31 97.3457C115.278 97.4311 115.193 97.5165 115.139 97.602L114.862 97.9116C114.691 98.0824 114.232 98.3387 114.178 98.3066C114.093 98.2532 114.04 98.0504 114.008 97.7621C114.008 97.5913 113.954 97.3884 113.922 97.3137C113.805 97.0574 113.869 96.2674 114.008 95.8937C114.061 95.7549 114.125 95.4986 114.146 95.3278C114.178 95.0716 114.2 94.9541 114.285 94.8474C114.456 94.5911 114.574 94.3028 114.574 94.1106C114.574 94.0252 114.606 93.9078 114.627 93.8224C114.68 93.6515 115.225 93.1391 115.342 93.1391C115.374 93.1391 115.481 93.1924 115.566 93.2565C115.652 93.3099 115.769 93.4273 115.791 93.4807C115.876 93.5982 116.047 93.9932 116.186 94.4737C116.325 94.9007 116.357 94.9541 116.41 95.189C116.41 95.3064 116.463 95.4132 116.495 95.4986C116.527 95.552 116.549 95.6374 116.549 95.6695C116.549 95.7869 116.325 96.1819 116.068 96.4702H116.079Z" fill="black"/>
<path d="M151.76 12.7746C151.824 12.7639 151.888 12.6998 151.899 12.6358C151.92 12.5397 151.856 12.4436 151.76 12.4329C150.116 12.1446 148.482 11.803 146.849 11.4613C145.279 11.1517 143.71 10.7994 142.14 10.447C141.799 8.8455 141.489 7.22262 141.105 5.63178C140.731 3.97687 140.304 2.32197 139.866 0.677739C139.823 0.517587 139.706 0.389465 139.546 0.346758C139.311 0.293374 139.076 0.442849 139.023 0.677739C138.628 2.36468 138.254 4.05161 137.912 5.78125C137.549 7.50022 137.218 9.24054 136.887 11.0449C134.261 11.7496 131.698 12.4116 129.189 13.1269C129.072 13.1589 128.976 13.2657 128.944 13.3938C128.912 13.5753 129.029 13.7568 129.221 13.7889H129.243C131.891 14.28 134.549 14.6964 137.197 15.1448C137.912 18.444 138.681 21.7217 139.503 24.9995C139.557 25.2344 139.749 25.3946 139.984 25.4266C140.283 25.4586 140.55 25.2344 140.582 24.9355C140.913 21.6577 141.244 18.3799 141.521 15.0914C144.938 14.312 148.354 13.4899 151.782 12.7852L151.76 12.7746ZM140.752 14.7071V14.7284C140.432 17.0666 140.133 19.4049 139.845 21.7538C139.279 19.3622 138.702 16.9706 138.083 14.5896V14.5683C138.03 14.3761 137.87 14.2373 137.667 14.2053C135.361 13.9063 133.065 13.586 130.759 13.2977C132.862 12.5717 134.923 11.835 136.941 11.1197C137.453 9.48611 137.966 7.79917 138.446 6.09088C138.788 4.93779 139.087 3.76334 139.396 2.58889C139.653 3.67792 139.92 4.76696 140.219 5.85599C140.635 7.5109 141.137 9.13377 141.596 10.7673V10.7887C141.628 10.8848 141.713 10.9702 141.82 10.9915C143.464 11.2585 145.119 11.5361 146.753 11.8457C148.098 12.0913 149.443 12.3368 150.778 12.6037C147.543 13.2443 144.286 13.8102 141.041 14.3974C140.891 14.4295 140.763 14.5469 140.742 14.7177L140.752 14.7071Z" fill="black"/>
<path d="M82.6918 20.7289C80.3429 20.3018 78.0047 19.832 75.6665 19.3515C73.3923 18.9031 71.1182 18.412 68.844 17.9315C68.3209 15.6147 67.8511 13.2978 67.2852 10.9916C66.73 8.62135 66.1428 6.26177 65.5235 3.91287C65.4808 3.75272 65.3634 3.6246 65.2032 3.59257C64.9683 3.53919 64.7334 3.67798 64.6694 3.92355C64.0928 6.34719 63.5376 8.77082 63.0145 11.2372C62.47 13.6928 61.9575 16.1699 61.4557 18.7109C57.7295 19.7573 54.078 20.7609 50.4692 21.8072C50.3518 21.8392 50.2557 21.946 50.2343 22.0741C50.2023 22.2556 50.3304 22.4371 50.5119 22.4692H50.5226C54.3556 23.1418 58.2099 23.7397 62.0536 24.3696C62.5661 26.6972 63.1319 29.0034 63.6658 31.3202C64.2423 33.7439 64.7868 36.1675 65.3954 38.5912C65.4488 38.8154 65.6303 38.9862 65.8652 39.0075C66.1641 39.0396 66.4311 38.8154 66.4631 38.5164C66.9542 33.7866 67.4454 29.0674 67.8831 24.3376C72.8158 23.2486 77.7485 22.1168 82.7025 21.1025C82.7666 21.0919 82.8306 21.0385 82.8413 20.9637C82.8627 20.8677 82.7986 20.7716 82.7025 20.7609L82.6918 20.7289ZM67.1464 23.9426C66.6553 27.7328 66.1962 31.5124 65.7477 35.2813C65.4061 33.8613 65.0644 32.452 64.7228 31.032C64.1249 28.6083 63.5697 26.1847 62.9504 23.7717V23.7504C62.897 23.5582 62.7369 23.4087 62.534 23.3874C59.0427 22.9176 55.5621 22.4158 52.0708 21.9567C55.2631 20.8997 58.4235 19.8106 61.5304 18.7536C62.2244 16.3834 62.9184 13.9598 63.5697 11.5148C64.0928 9.63564 64.584 7.7245 65.0751 5.81335C65.5022 7.60705 65.9399 9.40075 66.4097 11.1945C66.9969 13.554 67.6803 15.8923 68.3209 18.2412C68.3529 18.3586 68.4383 18.444 68.5451 18.4547C70.894 18.8604 73.2535 19.2661 75.5918 19.7146C77.6417 20.0882 79.6917 20.4833 81.7416 20.889C76.9904 21.8392 72.2179 22.7147 67.4454 23.6116C67.2852 23.6436 67.1571 23.7717 67.1357 23.9319L67.1464 23.9426Z" fill="black"/>
<path d="M38.9918 88.1849C37.3582 87.8967 35.746 87.5657 34.1232 87.224C32.5643 86.9144 31.0162 86.5727 29.4574 86.2204C29.1157 84.6296 28.8168 83.028 28.4324 81.4479C28.0587 79.8036 27.6423 78.1701 27.2046 76.5472C27.1619 76.3871 27.0444 76.2589 26.8843 76.2162C26.6494 76.1628 26.4145 76.3123 26.3611 76.5472C25.9661 78.2128 25.5924 79.8891 25.2614 81.5973C24.9091 83.295 24.5781 85.0246 24.2578 86.8076C21.6526 87.5016 19.1116 88.1636 16.6345 88.8683C16.5171 88.9003 16.421 89.0071 16.389 89.1352C16.3569 89.3167 16.4744 89.4982 16.6666 89.5302H16.6879C19.3037 90.0214 21.9409 90.4271 24.5567 90.8755C25.2721 94.1426 26.0301 97.3884 26.8416 100.634C26.895 100.869 27.0871 101.029 27.322 101.061C27.621 101.093 27.8879 100.869 27.9199 100.57C28.2402 97.3243 28.5712 94.0679 28.8488 90.8221C32.2334 90.0427 35.6072 89.2419 39.0131 88.5373C39.0772 88.5266 39.1413 88.4625 39.1519 88.3985C39.1733 88.3024 39.1092 88.2063 39.0131 88.1956L38.9918 88.1849ZM28.0908 90.4377V90.4591C27.7705 92.7653 27.4822 95.0822 27.1939 97.3884C26.6387 95.0288 26.0622 92.6692 25.4536 90.3203V90.299C25.4002 90.1068 25.24 89.968 25.0372 89.9359C22.763 89.637 20.4889 89.3274 18.2147 89.0391C20.286 88.3237 22.336 87.5977 24.3325 86.8824C24.845 85.2702 25.3468 83.5939 25.8273 81.8963C26.1583 80.7646 26.4572 79.6008 26.7668 78.4477C27.0231 79.5261 27.29 80.5937 27.5783 81.6614C27.984 83.295 28.4965 84.9072 28.9449 86.53V86.5514C28.9769 86.6475 29.0623 86.7329 29.1691 86.7542C30.8027 87.0212 32.4362 87.2881 34.0591 87.5977C35.383 87.8326 36.7176 88.0888 38.0415 88.3558C34.8385 88.9857 31.6141 89.5409 28.4004 90.1281C28.2509 90.1601 28.1228 90.2776 28.1014 90.4484L28.0908 90.4377Z" fill="black"/>
<path d="M17.9907 54.6808C22.9233 53.5918 27.856 52.46 32.8101 51.4457C32.8741 51.435 32.9382 51.3817 32.9489 51.3069C32.9702 51.2108 32.9062 51.1147 32.8101 51.1041C30.4612 50.677 28.123 50.2072 25.7847 49.7268C23.5106 49.2783 21.2364 48.7872 18.9623 48.3067C18.4391 45.9899 17.9693 43.673 17.4034 41.3668C16.8482 38.9966 16.261 36.637 15.6418 34.2881C15.5991 34.1279 15.4816 33.9998 15.3215 33.9678C15.0866 33.9144 14.8517 34.0532 14.7876 34.2988C14.2111 36.7224 13.6559 39.146 13.1327 41.6124C12.5882 44.068 12.0757 46.5451 11.5739 49.0861C7.84769 50.1325 4.19622 51.1361 0.587463 52.1824C0.470018 52.2144 0.373927 52.3212 0.352573 52.4493C0.320543 52.6308 0.448665 52.8123 0.63017 52.8444H0.640847C4.47382 53.517 8.32815 54.1149 12.1718 54.7449C12.6843 57.0724 13.2502 59.3786 13.784 61.6955C14.3605 64.1191 14.9051 66.5427 15.5136 68.9664C15.567 69.1906 15.7485 69.3614 15.9834 69.3828C16.2824 69.4148 16.5493 69.1906 16.5813 68.8916C17.0725 64.1618 17.5636 59.4426 18.0013 54.7128L17.9907 54.6808ZM13.058 54.1576V54.1363C13.0046 53.9441 12.8444 53.7946 12.6416 53.7733C9.15026 53.3035 5.66962 52.8017 2.17831 52.3426C5.37067 51.2856 8.53101 50.1965 11.638 49.1395C12.332 46.7693 13.0259 44.3456 13.6772 41.9007C14.2004 40.0215 14.6915 38.1104 15.1827 36.1992C15.6097 37.9929 16.0475 39.7866 16.5173 41.5803C17.1045 43.9399 17.7878 46.2781 18.4284 48.627C18.4604 48.7445 18.5459 48.8299 18.6526 48.8406C21.0015 49.2463 23.3611 49.652 25.6993 50.1004C27.7493 50.4741 29.7992 50.8692 31.8492 51.2749C27.098 52.2251 22.3254 53.1006 17.5529 53.9975C17.3928 54.0295 17.2646 54.1576 17.2433 54.3178C16.7522 58.1081 16.293 61.8876 15.8446 65.6566C15.503 64.2365 15.1613 62.8272 14.8197 61.4072C14.2217 58.9835 13.6666 56.5599 13.0473 54.147L13.058 54.1576Z" fill="black"/>
<path d="M102.613 203.301C111.212 203.301 118.183 196.33 118.183 187.731C118.183 179.132 111.212 172.161 102.613 172.161C94.014 172.161 87.0431 179.132 87.0431 187.731C87.0431 196.33 94.014 203.301 102.613 203.301Z" fill="white"/>
<path d="M111.923 175.131C115.193 177.571 117.773 181.131 118.653 185.331C119.603 189.491 118.513 194.131 115.823 197.501C113.133 200.901 109.083 202.941 104.963 203.461C100.843 204.031 96.5231 203.091 93.0131 200.711C89.4831 198.381 86.9231 194.471 86.2431 190.191C85.5031 185.921 86.5531 181.321 89.1931 177.821C91.8031 174.321 95.9231 171.961 100.193 171.661C104.463 171.291 108.643 172.701 111.923 175.131ZM111.803 175.301C108.533 172.851 104.203 172.151 100.403 173.021C96.6031 173.901 93.2031 176.061 90.9831 179.141C88.7531 182.191 87.6731 186.091 88.1831 189.891C88.6831 193.681 90.6431 197.291 93.6931 199.791C96.7331 202.291 100.913 203.471 104.863 202.791C108.823 202.131 112.283 199.651 114.423 196.471C116.613 193.291 117.643 189.431 117.353 185.521C117.053 181.631 115.113 177.691 111.803 175.301Z" fill="black"/>
<path d="M100.683 193.971C100.393 193.811 100.133 193.591 99.9131 193.331C98.9131 192.121 99.3231 190.791 99.8431 189.481C100.203 188.561 100.703 187.691 101.303 186.901C101.423 186.751 101.593 186.541 101.563 186.341C101.533 186.141 101.313 185.931 101.213 185.761C100.873 185.191 100.533 184.601 100.383 183.961C100.213 183.231 100.343 182.481 100.803 181.881C101.113 181.471 101.663 181.031 102.143 180.871C102.323 180.811 102.733 180.811 103.193 180.901C104.663 181.181 105.483 182.491 105.353 183.941C105.303 184.481 105.143 184.991 104.953 185.491C104.783 185.951 104.473 186.351 104.313 186.801C104.153 187.251 104.353 187.721 104.693 188.041C105.053 188.391 105.263 188.701 105.423 189.181C105.663 189.931 105.793 190.721 105.673 191.501C105.443 193.051 104.053 194.281 102.493 194.361C101.883 194.391 101.243 194.261 100.693 193.951L100.683 193.971ZM102.323 185.041C102.383 184.751 102.433 184.491 102.543 184.211C102.633 183.981 102.723 183.761 102.753 183.521C102.783 183.281 102.753 183.021 102.613 182.831C102.353 182.471 101.703 182.491 101.493 182.891C101.423 183.031 101.393 183.201 101.393 183.361C101.383 183.761 101.473 184.161 101.653 184.511C101.733 184.661 102.243 185.511 102.323 185.051V185.041ZM103.413 193.001C103.763 192.841 104.053 192.531 104.203 192.161C104.363 191.751 104.393 191.311 104.413 190.871C104.443 190.021 104.243 189.261 103.803 188.531C103.743 188.411 103.683 188.321 103.653 188.321C103.623 188.291 103.563 188.351 103.533 188.441C103.423 188.771 103.093 189.151 102.903 189.441C102.593 189.951 102.293 190.471 102.023 191.001C101.853 191.341 101.723 191.721 101.773 192.101C101.883 192.861 102.703 193.311 103.403 193.001H103.413Z" fill="black"/>
<defs>
<linearGradient id="paint0_linear_2310_97385" x1="0.347656" y1="101.979" x2="187.893" y2="101.979" gradientUnits="userSpaceOnUse">
<stop stop-color="#0ABBEF"/>
<stop offset="0.24" stop-color="#0D9ACF"/>
<stop offset="0.76" stop-color="#14598E"/>
<stop offset="1" stop-color="#174075"/>
</linearGradient>
</defs>
</svg>
