<svg width="183" height="183" viewBox="0 0 183 183" fill="none" xmlns="http://www.w3.org/2000/svg">
<path d="M103.854 163.88C147.214 163.88 182.364 152.163 182.364 137.71C182.364 123.257 147.214 111.54 103.854 111.54C60.4939 111.54 25.3438 123.257 25.3438 137.71C25.3438 152.163 60.4939 163.88 103.854 163.88Z" fill="url(#paint0_linear_2014_11546)"/>
<path d="M182.354 137.71C182.354 139.54 181.774 141.34 180.824 142.89C179.874 144.45 178.624 145.8 177.264 147.02C174.514 149.43 171.324 151.27 168.034 152.83C161.434 155.95 154.404 158.06 147.304 159.72C133.074 162.98 118.454 164.42 103.844 164.63C89.2342 164.77 74.5542 163.76 60.1442 160.77C52.9642 159.2 45.8342 157.22 39.0542 154.08C35.6842 152.5 32.3842 150.63 29.4642 148.1C28.0242 146.82 26.6642 145.38 25.5942 143.65C24.5342 141.93 23.8242 139.85 23.8242 137.71C23.8242 135.57 24.5242 133.49 25.5942 131.77C26.6542 130.04 28.0142 128.6 29.4642 127.32C32.3842 124.79 35.6842 122.92 39.0542 121.34C45.8242 118.2 52.9642 116.22 60.1442 114.65C74.5442 111.66 89.2342 110.65 103.844 110.79C118.454 111.01 133.074 112.44 147.304 115.71C154.404 117.36 161.434 119.48 168.034 122.6C171.324 124.16 174.514 126 177.264 128.41C178.624 129.62 179.874 130.97 180.824 132.54C181.774 134.09 182.364 135.89 182.354 137.72V137.71ZM182.354 137.71C182.354 135.88 181.754 134.09 180.804 132.54C179.854 130.99 178.594 129.65 177.234 128.44C174.474 126.05 171.284 124.23 167.994 122.69C161.384 119.63 154.324 117.66 147.224 116.11C132.964 113.15 118.374 112.15 103.854 112.29C89.3342 112.5 74.8042 113.94 60.7142 117.17C53.6842 118.8 46.7442 120.9 40.3042 123.95C37.0942 125.47 34.0042 127.27 31.4242 129.53C30.1542 130.67 29.0042 131.92 28.1642 133.3C27.3242 134.68 26.8442 136.19 26.8442 137.71C26.8442 139.23 27.3142 140.74 28.1642 142.12C29.0042 143.5 30.1542 144.75 31.4242 145.89C34.0042 148.16 37.0942 149.95 40.3042 151.47C46.7442 154.52 53.6942 156.62 60.7142 158.25C74.8042 161.49 89.3342 162.91 103.854 163.13C118.374 163.27 132.964 162.27 147.224 159.31C154.324 157.76 161.384 155.79 167.994 152.73C171.284 151.19 174.474 149.37 177.234 146.98C178.594 145.78 179.854 144.44 180.804 142.88C181.764 141.34 182.354 139.54 182.354 137.71Z" fill="black"/>
<path d="M132.825 142.37H60.8748C55.1248 142.37 50.4648 147.03 50.4648 152.78H143.235C143.235 147.03 138.575 142.37 132.825 142.37Z" fill="#0ABBEF"/>
<path d="M75.4854 142.38C71.0654 142.12 66.6354 142.1 62.2254 142.3C59.0654 142.45 55.6254 142.84 53.4054 145.09C51.6054 146.91 51.0054 149.56 50.5054 152.08C50.4754 152.24 50.4454 152.42 50.5454 152.55C50.6554 152.7 50.8754 152.71 51.0654 152.7C52.9954 152.63 54.9154 152.56 56.8454 152.48C57.5654 149.55 59.7254 147.01 62.4954 145.83C64.8354 144.83 67.4654 144.78 70.0054 144.74C70.5754 144.74 71.1554 144.72 71.7254 144.72C69.6854 147.35 67.6554 149.99 65.6154 152.62C67.1954 152.68 68.7654 152.73 70.3454 152.79C70.8154 152.81 71.3054 152.82 71.7354 152.62C72.1054 152.45 72.3854 152.13 72.6554 151.82L78.8954 144.62L86.8054 144.51C87.1154 144.51 87.4254 144.51 87.7354 144.5C85.4954 147.22 83.2454 149.94 81.0054 152.66C82.4754 152.73 83.9454 152.75 85.4154 152.75C85.9354 152.75 86.4554 152.74 86.9354 152.55C87.4554 152.35 87.8754 151.97 88.2754 151.59C90.9154 149.15 93.5654 146.71 96.2054 144.28C101.515 144.04 106.785 143.5 111.925 142.21L75.4854 142.38Z" fill="white"/>
<path d="M130.805 22.9797L131.865 13.5197L141.775 11.4897L132.565 9.69969L130.265 0.429688L127.905 10.0697L120.745 12.2797L128.545 13.4597L130.805 22.9797Z" fill="white"/>
<path d="M147.625 83.4392V51.1592C150.015 50.1292 151.705 47.8292 152.025 45.1292C152.345 42.2892 151.075 39.7092 148.615 38.2292L102.375 11.1192C99.7847 9.59922 96.5647 9.59922 93.9747 11.1192L68.0547 26.3092L62.0747 29.8192L62.9247 22.1692L77.1047 19.2692L63.9347 16.7092L60.6447 3.44922L57.2647 17.2292L47.0347 20.3992L58.1747 22.0792L60.2747 30.8792L47.8747 38.1492C47.8747 38.1492 47.7447 38.2292 47.7347 38.2292C45.2747 39.7092 44.0047 42.2892 44.3347 45.1292C44.6447 47.8292 46.3347 50.1292 48.7247 51.1592V121.829C48.7247 127.999 53.1347 133.169 58.9847 134.329C59.7847 134.489 60.6247 134.569 61.4747 134.569H134.895C136.205 134.569 137.455 134.369 138.645 134.009C139.035 133.889 139.415 133.749 139.775 133.589C139.775 133.589 139.785 133.589 139.795 133.589C140.025 133.489 140.255 133.389 140.485 133.279C140.505 133.269 140.525 133.259 140.555 133.239C140.795 133.119 141.035 132.989 141.275 132.849C141.515 132.709 141.755 132.559 141.985 132.399C142.185 132.269 142.385 132.129 142.575 131.979C143.055 131.609 143.515 131.209 143.935 130.779C144.085 130.629 144.225 130.479 144.365 130.329C144.445 130.239 144.525 130.149 144.595 130.049C144.735 129.899 144.855 129.739 144.985 129.579C146.645 127.429 147.625 124.739 147.625 121.819V83.4292V83.4392Z" fill="white"/>
<path d="M24.755 71.4795L22.415 81.0295L15.335 83.2295L23.055 84.3895L25.295 93.8195L26.345 84.4495L36.165 82.4395L27.035 80.6695L24.755 71.4795Z" fill="white"/>
<path d="M30.3649 47.7097L17.1949 45.1496L13.9049 31.8896L10.5249 45.6696L0.294922 48.8397L11.4349 50.5196L14.6849 64.1297L16.1849 50.6096L30.3649 47.7097Z" fill="white"/>
<path d="M148.605 38.2197L102.365 11.1097C99.775 9.58973 96.555 9.58973 93.965 11.1097L68.045 26.2997C68.745 26.0397 69.455 25.7897 70.165 25.5397C63.375 29.6197 55.735 32.3397 49.145 36.7697C46.705 38.4097 44.225 40.6197 43.955 43.5497C43.715 46.1497 45.355 48.6397 47.505 50.1297C47.855 50.3797 48.245 50.6197 48.445 50.9997C48.605 51.3097 48.635 51.6697 48.655 52.0197C48.825 55.7297 48.455 59.5597 49.665 63.0797C50.255 59.4497 50.835 55.8197 51.425 52.1897C51.495 51.7397 51.575 51.2797 51.505 50.8197C51.405 50.0997 50.965 49.4697 50.555 48.8697C49.815 47.7497 49.125 46.5697 48.805 45.2697C48.485 43.9697 48.555 42.5197 49.255 41.3797C49.755 40.5497 50.545 39.9397 51.315 39.3597C59.335 33.3497 68.375 28.8697 77.095 23.9297C77.775 23.5497 78.455 23.1497 79.125 22.7197C84.335 21.2697 89.625 20.1297 94.965 19.3197C95.925 19.1697 96.905 19.0397 97.875 19.1797C98.915 19.3297 99.875 19.7897 100.815 20.2397C111.555 25.4197 122.435 30.6897 131.465 38.4597C132.945 39.7297 134.425 41.1297 135.125 42.9597C135.825 44.7897 135.535 47.1297 133.955 48.2897C133.275 48.7797 132.365 49.0897 132.045 49.8597C131.905 50.1997 131.905 50.5797 131.905 50.9497C131.915 52.3697 131.855 53.7897 131.865 55.2197V101.73C130.925 105.05 129.345 108.15 126.915 110.57C125.585 111.9 124.025 113 122.455 114.03C118.145 116.86 113.555 119.3 108.645 120.88C110.095 121.25 111.585 121.36 113.085 121.44L110.935 121.66C114.875 122.35 118.805 123.19 122.685 124.17C121.915 125.24 120.555 125.67 119.275 125.99C114.325 127.24 109.225 127.85 104.125 127.81C106.325 127.93 108.515 128.3 110.625 128.91L103.785 128.56C102.235 130.15 100.345 132.37 98.925 134.09C99.605 134.71 100.995 134.22 101.915 134.27C104.085 134.38 106.265 134.45 108.435 134.48C108.365 134.52 108.295 134.56 108.225 134.59H134.845C136.155 134.59 137.405 134.39 138.595 134.03C138.985 133.91 139.365 133.77 139.725 133.61C139.725 133.61 139.735 133.61 139.745 133.61C139.975 133.51 140.205 133.41 140.435 133.3C140.455 133.29 140.475 133.28 140.505 133.26C140.745 133.14 140.985 133.01 141.225 132.87C141.465 132.73 141.705 132.58 141.935 132.42C142.135 132.29 142.335 132.15 142.525 132C143.005 131.63 143.465 131.23 143.885 130.8C144.035 130.65 144.175 130.5 144.315 130.35C144.395 130.26 144.475 130.17 144.545 130.07C144.685 129.92 144.805 129.76 144.935 129.6C146.595 127.45 147.575 124.76 147.575 121.84V51.1597C149.965 50.1297 151.655 47.8297 151.975 45.1297C152.295 42.2897 151.025 39.7097 148.565 38.2297L148.605 38.2197Z" fill="#0ABBEF"/>
<path d="M48.7148 121.83C48.7148 128 53.1248 133.17 58.9748 134.33C59.4048 134.09 59.8148 133.82 60.2148 133.53C60.3548 133.57 60.4948 133.6 60.6448 133.61C61.6548 133.72 62.6548 133.82 63.6648 133.93C65.0048 134.07 66.3448 134.21 67.6948 134.17C69.2048 134.12 70.6948 133.83 72.1748 133.54C72.4448 133.49 72.7148 133.44 72.9448 133.3C73.2048 133.15 73.4148 132.92 73.6048 132.69L77.5348 128.09L76.0548 128C72.3348 128.15 68.6148 128.16 64.8848 128.05C63.3348 128 61.7048 127.89 60.3448 127.22C60.3248 127.17 60.3148 127.12 60.2848 127.07C60.1248 126.79 59.8348 126.6 59.5748 126.4C56.3148 123.98 54.5648 119.56 55.4348 115.6V73.2197C55.0748 73.2797 54.8448 72.9397 54.6448 72.6397C53.2148 70.4197 50.6848 69.1697 48.7148 67.4297V121.83Z" fill="#0ABBEF"/>
<path d="M108.485 33.0104C110.585 33.5504 112.685 34.0904 114.785 34.6404C110.315 31.8504 105.405 29.8704 100.515 27.9004C99.5047 27.4904 98.4747 27.0804 97.3847 26.9604C94.4547 26.6404 91.7847 28.4804 89.4147 30.2204L82.2647 34.0404C76.7147 37.0804 71.1847 40.1604 65.6747 43.2704C64.2447 44.0804 62.7347 44.9604 61.9347 46.4004C61.0047 48.0604 61.2047 50.0904 61.4247 51.9704C61.8447 55.5204 62.2647 59.0704 62.6847 62.6204C63.2947 59.9904 63.8947 57.3504 64.5047 54.7204C64.9347 52.8504 65.4047 50.9104 66.6147 49.4204C67.4847 48.3504 68.6847 47.6104 69.8647 46.9004C77.8847 42.1004 86.2947 37.9904 94.6947 33.8904C96.1547 33.1804 97.6347 32.4604 99.2247 32.1104C102.285 31.4504 105.455 32.2404 108.485 33.0204V33.0104Z" fill="#0ABBEF"/>
<path d="M60.5344 35.8597C58.1344 37.2497 55.7044 38.6397 53.6444 40.4997C52.6344 41.4097 51.6844 42.4897 51.4244 43.8197C51.2744 44.5997 51.3744 45.4197 51.5844 46.1897C52.0944 48.1497 53.4544 50.0597 55.4344 50.4797C54.7044 48.3797 53.9744 45.9897 54.9644 43.9997C55.4544 43.0097 56.3144 42.2497 57.1944 41.5697C59.1144 40.0897 61.2244 38.8497 63.4644 37.9097C63.7444 37.7897 64.0344 37.6797 64.3344 37.7297C64.5844 37.7697 64.7944 37.9197 65.0044 38.0697C66.3444 39.0197 67.6744 39.9697 69.0144 40.9297C68.1744 39.7397 67.3444 38.5497 66.5044 37.3597C66.1044 36.7897 65.6844 36.0797 65.9444 35.4297C66.2244 34.7597 67.1244 34.5697 67.8144 34.7997C68.5044 35.0297 69.0344 35.5597 69.6044 36.0097C70.6944 36.8697 71.9744 37.4797 73.2344 38.0697C72.1844 36.6097 71.1244 35.1497 70.0744 33.6997C69.9944 33.5897 69.9044 33.4597 69.9344 33.3197C69.9644 33.1797 70.1144 33.0997 70.2544 33.0397C70.9344 32.7297 71.6144 32.4197 72.2944 32.1197C72.4744 32.0397 72.6544 31.9597 72.8544 31.9897C73.0944 32.0197 73.2744 32.2197 73.4344 32.3997C74.5544 33.6097 75.9044 34.6097 77.3944 35.3097C76.3344 32.9497 75.1244 30.6597 73.7644 28.4697L77.7644 25.9697C72.0244 29.2797 66.2844 32.5797 60.5544 35.8897L60.5344 35.8597Z" fill="#0ABBEF"/>
<path d="M83.7142 133.94C85.9742 134.14 88.2542 134.1 90.4942 133.82C90.7342 133.79 90.9742 133.76 91.1942 133.65C91.5642 133.46 91.8042 133.09 92.0242 132.74C93.1542 131.03 94.6442 129.57 96.3842 128.48L83.0542 128.6C81.4742 130.41 79.9042 132.22 78.3242 134.03C80.0442 133.47 81.9042 133.78 83.7042 133.94H83.7142Z" fill="#0ABBEF"/>
<path d="M62.0242 100.48C60.9742 105.53 59.9142 110.65 60.2542 115.79C60.3642 117.53 60.6942 119.38 61.8942 120.65C62.8142 121.63 64.1342 122.13 65.4342 122.46C72.8442 124.37 80.6042 121.99 88.2542 121.84C82.9142 121.66 78.9742 122.03 73.6342 121.85C72.1042 121.8 69.1442 121.91 67.6642 121.51C66.1842 121.11 64.7942 119.63 63.8942 118.39C63.0042 117.16 62.7242 115.6 62.5242 114.09C61.9942 110.1 61.8542 106.05 62.1142 102.04L62.0242 100.48Z" fill="#0ABBEF"/>
<path d="M46.9748 37.1602C46.9748 37.1602 46.9148 37.1902 46.8848 37.2102H46.9148L46.9748 37.1602Z" fill="black"/>
<path d="M153.045 44.72C153.135 43.12 152.755 41.46 151.915 40.05C151.505 39.35 150.975 38.72 150.385 38.17C150.085 37.9 149.775 37.65 149.445 37.43L148.935 37.11L148.485 36.86L134.125 28.76C124.555 23.36 114.955 18.01 105.465 12.49C104.265 11.8 103.125 11.11 101.875 10.42C100.585 9.76005 99.1247 9.43005 97.6847 9.47005C96.2347 9.49005 94.7947 9.87005 93.5347 10.59L89.9647 12.66C85.2047 15.4 80.4747 18.19 75.6947 20.9L47.0147 37.14L46.9847 37.16C47.1247 37.08 47.2947 37.04 47.4347 37.06L46.9347 37.2L46.8047 37.3C46.8047 37.3 46.8747 37.23 46.9047 37.2H46.8647C45.5547 37.97 44.4247 39.11 43.7047 40.49C42.9747 41.87 42.6947 43.47 42.8347 44.99C42.9547 46.52 43.4847 48.02 44.3647 49.3C45.0747 50.34 46.0347 51.21 47.1447 51.85L46.8647 93.0601C46.8047 100.06 46.8347 107.05 46.8247 114.05V119.3L46.8547 121.94C46.8847 122.92 46.9947 123.9 47.2047 124.86C48.0647 128.71 50.6047 132.1 53.9947 134.06C55.6847 135.04 57.5847 135.68 59.5247 135.88C60.0047 135.94 60.4947 135.93 60.9847 135.96C61.4547 135.97 61.8647 135.96 62.3147 135.96L64.9347 135.93L75.4247 135.82C82.4247 135.73 89.4147 135.7 96.4147 135.57L109.515 135.34C109.795 135.93 110.105 136.49 110.455 137.01C110.975 137.76 111.555 138.46 112.175 139.11C112.805 139.76 113.475 140.36 114.205 140.91C114.605 141.2 115.015 141.47 115.455 141.73L99.5147 141.55C91.2847 141.43 83.0647 141.46 74.8347 141.41L62.4947 141.36C61.4647 141.36 60.4647 141.32 59.3047 141.42C58.1847 141.54 57.0947 141.84 56.0547 142.27C53.9847 143.17 52.1847 144.67 50.9747 146.57C50.3447 147.51 49.9247 148.57 49.6047 149.65L49.4047 150.47L49.2747 151.3C49.2247 151.58 49.2247 151.86 49.2047 152.14L49.1847 152.56V152.67V152.72C51.1347 154.69 49.7547 153.27 50.2047 153.71H50.3947L56.5647 153.69L68.9047 153.64C77.1347 153.6 85.3547 153.62 93.5847 153.5L118.265 153.22C126.495 153.06 134.715 152.96 142.945 152.73C134.715 152.5 126.495 152.41 118.265 152.24L93.5847 151.96C85.3547 151.84 77.1347 151.86 68.9047 151.82L56.5647 151.77L51.2047 151.75C51.2047 151.68 51.2147 151.61 51.2347 151.54L51.3447 150.85L51.5147 150.17C51.7847 149.28 52.1347 148.41 52.6647 147.64C53.6647 146.07 55.1347 144.81 56.8447 144.06C57.7047 143.7 58.6047 143.45 59.5347 143.34C60.4247 143.25 61.4847 143.27 62.5147 143.27L74.8547 143.22C83.0847 143.17 91.3047 143.2 99.5347 143.08L124.215 142.8L130.385 142.69C131.405 142.69 132.455 142.62 133.445 142.68C134.435 142.77 135.425 142.96 136.365 143.32C140.145 144.72 142.905 148.57 142.965 152.72C142.965 151.69 142.855 150.66 142.585 149.66C142.295 148.67 141.865 147.71 141.315 146.82C140.735 145.95 140.035 145.16 139.245 144.48C138.445 143.8 137.535 143.26 136.565 142.83C135.595 142.41 134.555 142.17 133.505 142.04C132.435 141.94 131.425 141.97 130.395 141.94L126.805 141.87C127.045 141.44 127.185 141.01 127.305 140.58C127.455 140 127.515 139.42 127.525 138.85C127.525 138.27 127.455 137.69 127.315 137.12C127.155 136.54 126.945 135.96 126.525 135.39C126.105 135.97 125.895 136.55 125.735 137.12C125.585 137.7 125.525 138.28 125.525 138.85C125.525 139.43 125.595 140.01 125.745 140.58C125.865 141.01 126.005 141.43 126.245 141.86L124.225 141.82L122.065 141.8C122.295 141.32 122.445 140.84 122.565 140.36C122.715 139.71 122.775 139.06 122.785 138.41C122.785 137.76 122.715 137.11 122.575 136.46C122.465 136 122.325 135.54 122.105 135.08L127.935 134.94L133.185 134.81C134.055 134.77 134.935 134.79 135.825 134.68C136.705 134.57 137.575 134.38 138.415 134.09C140.175 133.6 141.855 132.73 143.285 131.54C144.705 130.34 145.875 128.84 146.685 127.14C147.495 125.45 147.935 123.56 147.975 121.68L148.105 116.25L148.455 94.53L148.655 72.8101C148.675 65.8401 148.735 58.87 148.705 51.9C151.285 50.43 152.975 47.63 153.095 44.71L153.045 44.72ZM49.8647 76.5601C50.3147 77.1301 50.7747 77.68 51.3447 78.11C52.0247 78.62 52.8447 78.99 53.4747 79.55C53.9447 79.97 54.3347 80.45 54.6847 80.97L54.6347 89.1301C54.5547 89.0201 54.4747 88.89 54.3947 88.78C53.8647 88.05 53.3347 87.31 52.7247 86.65C51.8647 85.74 50.9347 84.8801 49.9047 84.1301L49.8547 76.5601H49.8647ZM55.8547 90.69L55.8047 82.83C55.9947 83.13 56.1847 83.4201 56.3947 83.7001C56.8847 84.3801 57.3647 85.07 57.9347 85.69C58.9547 86.75 60.0647 87.73 61.3947 88.55C61.3247 89.41 61.2447 90.2701 61.2047 91.1301C61.0947 93.3501 61.1447 95.57 61.2447 97.79C61.1647 97.65 61.0847 97.5 61.0047 97.36C60.5347 96.59 60.0447 95.83 59.3847 95.19C58.7247 94.56 57.9247 94.05 57.3247 93.37C56.7347 92.71 56.2647 91.9501 55.8647 91.1301V90.68L55.8547 90.69ZM61.7047 83.98C61.6747 85.1 61.5847 86.22 61.4947 87.34C60.9547 86.25 60.2847 85.25 59.5647 84.3C59.0347 83.64 58.4247 83.0401 57.8147 82.4501C57.2247 81.8401 56.5647 81.3 55.8647 80.79C55.8447 80.77 55.8147 80.7501 55.7947 80.7401L55.7547 74.9501C55.9547 75.2301 56.1547 75.5101 56.3747 75.7701C56.8747 76.4001 57.3647 77.03 57.9347 77.58C59.0347 78.6 60.2247 79.5301 61.6747 80.2401C61.7247 81.4901 61.7447 82.73 61.7047 83.98ZM54.6947 79.86C54.4247 79.63 54.1647 79.39 53.9447 79.11C53.3947 78.47 53.0447 77.64 52.5447 76.94C52.0447 76.25 51.3947 75.7 50.7247 75.16C50.4447 74.95 50.1447 74.74 49.8447 74.55L49.8047 69.18C50.2647 69.73 50.7347 70.25 51.3247 70.66C51.9947 71.11 52.7947 71.43 53.4147 71.94C53.9247 72.35 54.3447 72.85 54.7247 73.39L54.6847 79.85L54.6947 79.86ZM120.965 140.36C121.085 140.84 121.225 141.31 121.455 141.79L116.385 141.73C116.085 141.04 115.735 140.41 115.335 139.81C114.815 139.06 114.235 138.36 113.615 137.71C112.995 137.06 112.315 136.46 111.585 135.91C111.295 135.7 111.005 135.5 110.695 135.31L117.385 135.19L121.415 135.09C121.205 135.54 121.065 136 120.955 136.45C120.805 137.1 120.735 137.75 120.745 138.4C120.745 139.05 120.815 139.7 120.965 140.35V140.36ZM135.735 134.23C134.885 134.29 134.015 134.23 133.135 134.2L127.885 134.07L117.395 133.82L96.4047 133.45C89.4047 133.32 82.4147 133.28 75.4147 133.2L64.9247 133.09L62.3047 133.06C61.8747 133.06 61.4147 133.06 61.0147 133.04C60.6247 133.01 60.2447 133.01 59.8547 132.95C58.3247 132.75 56.8347 132.24 55.5147 131.46C52.8547 129.89 50.8947 127.2 50.2547 124.2C50.0947 123.45 50.0147 122.69 50.0047 121.92V119.32L50.0247 114.07C50.0047 107.07 50.0447 100.08 49.9847 93.08L49.9347 86.37C50.3047 86.94 50.7047 87.5 51.1147 88.04C51.6747 88.74 52.3147 89.36 52.9547 90C53.4647 90.53 54.0447 91.0201 54.6347 91.4901L54.5147 110.59L54.4847 115.57V118.07C54.5047 118.96 54.5847 119.85 54.8247 120.71C55.6547 124.22 58.4347 127.12 61.7847 128.33C63.4347 128.96 65.2947 129.16 66.9647 129.13H71.9447L81.8947 129.16L101.795 129.2L121.695 129.24H126.675L129.165 129.26C130.005 129.28 130.955 129.22 131.825 129.05C132.715 128.89 133.585 128.61 134.405 128.24C134.695 128.56 134.955 128.89 135.135 129.27C135.415 129.84 135.465 130.55 135.685 131.15C135.905 131.75 136.295 132.25 136.715 132.74C137.095 133.16 137.515 133.55 138.045 133.88C137.295 134.07 136.535 134.19 135.765 134.24L135.735 134.23ZM134.195 125.35C133.915 124.77 133.625 124.19 133.245 123.68C132.675 122.96 132.035 122.29 131.245 121.74C132.025 121.53 132.795 121.21 133.515 120.69C134.295 120.14 134.965 119.3 135.335 118.39C135.705 118.99 136.095 119.58 136.495 120.15C137.015 120.89 137.565 121.61 138.115 122.32C137.235 123.82 135.965 125.08 134.465 125.95C134.385 125.75 134.305 125.54 134.205 125.35H134.195ZM135.915 115.56C135.965 114.14 135.965 112.74 135.945 111.34C137.035 112.77 138.245 114.03 139.515 115.22V115.74C139.515 116.47 139.525 117.27 139.485 117.91C139.425 118.79 139.245 119.66 138.955 120.49C138.495 120.04 138.025 119.6 137.535 119.18C136.915 118.66 136.245 118.19 135.555 117.75C135.785 117 135.865 116.25 135.915 115.55V115.56ZM139.285 123.24H139.215C139.215 123.24 139.165 123.24 139.095 123.22C139.085 123.22 139.015 123.2 138.925 123.17L138.815 123.12L138.575 122.93C138.575 122.93 138.555 122.91 138.545 122.9L139.275 123.24H139.285ZM138.535 122.89C138.415 122.76 138.295 122.48 138.305 122.26C138.305 122.14 138.345 121.96 138.385 121.89C138.395 121.86 138.405 121.85 138.415 121.82L138.565 122.07L138.535 122.88V122.89ZM138.535 121.63L138.445 121.75C138.445 121.75 138.485 121.69 138.485 121.68C138.515 121.65 138.515 121.64 138.525 121.62L138.535 121.63ZM138.535 122.89C138.505 122.86 138.485 122.82 138.455 122.78C138.485 122.81 138.505 122.85 138.535 122.89ZM138.405 133.76C138.385 133.08 138.215 132.5 138.025 131.93C137.785 131.34 137.535 130.75 137.095 130.28C136.655 129.81 136.045 129.43 135.665 128.92C135.425 128.6 135.245 128.24 135.105 127.86C136.835 126.94 138.335 125.61 139.425 123.99C140.075 124.78 140.745 125.55 141.415 126.32C142.345 127.32 143.285 128.33 144.365 129.27C142.895 131.3 140.805 132.9 138.395 133.77L138.405 133.76ZM145.785 126.77C145.445 127.58 145.025 128.35 144.525 129.07C144.095 127.73 143.465 126.5 142.775 125.31C142.075 124.19 141.295 123.12 140.435 122.12C141.015 120.83 141.365 119.44 141.445 118.04C141.465 117.67 141.465 117.33 141.465 117C142.275 117.7 143.105 118.38 143.945 119.05C144.835 119.75 145.745 120.43 146.705 121.09V121.7C146.775 123.43 146.465 125.17 145.785 126.78V126.77ZM150.455 44.57C150.305 46.85 148.855 49 146.795 49.87C146.325 50.07 145.985 50.54 145.985 51.08V51.1C145.955 58.34 146.015 65.58 146.035 72.82L146.235 94.54L146.585 116.26L146.675 120.27C146.195 119.44 145.625 118.66 145.025 117.93C144.125 116.84 143.145 115.86 142.115 114.92C141.905 114.72 141.675 114.55 141.455 114.36V113.5L141.435 104.55L141.395 86.66L141.325 51.39C143.305 50.33 144.685 48.31 145.025 46.13C145.225 44.95 145.115 43.71 144.695 42.57C144.275 41.43 143.525 40.42 142.595 39.67C142.125 39.29 141.595 38.99 141.155 38.74L139.765 37.94L136.995 36.34L131.445 33.13L109.245 20.3L103.695 17.09C102.745 16.57 101.905 16 100.835 15.52C99.7847 15.1 98.6347 14.89 97.5047 14.96C96.3747 15.03 95.2647 15.34 94.2747 15.89L91.5147 17.54L86.0147 20.84L64.0447 34.07L68.0847 31.76C68.1947 32.58 68.4847 33.3 68.8247 33.97C69.1847 34.65 69.6147 35.28 70.1147 35.86C70.6147 36.43 71.1747 36.95 71.7947 37.41C72.1147 37.63 72.4347 37.84 72.7847 38.02C71.5147 38.77 70.2647 39.53 69.0247 40.32C68.9347 39.8 68.7747 39.31 68.5947 38.84C68.3047 38.15 67.9447 37.51 67.5147 36.91C67.0847 36.31 66.5847 35.77 66.0247 35.28C65.4547 34.8 64.8247 34.36 64.0447 34.08C64.1847 34.9 64.4747 35.59 64.7847 36.25C65.1047 36.9 65.4747 37.51 65.8947 38.09C66.3147 38.66 66.7747 39.21 67.2947 39.72C67.6547 40.06 68.0347 40.39 68.4647 40.69C66.6647 41.84 64.8747 43.02 63.1247 44.26C63.0847 44.29 63.0747 44.34 63.0847 44.38C63.1047 44.43 63.1647 44.46 63.2147 44.44C68.7347 42.21 74.0747 39.65 79.2647 36.8C81.8447 35.35 84.4047 33.87 86.9547 32.36C89.4847 30.83 91.9547 29.14 94.5047 27.69C95.1447 27.36 95.8147 27.09 96.4947 27C97.1747 26.92 97.8747 27.02 98.5347 27.28C99.2047 27.52 99.8147 27.89 100.465 28.26C101.125 28.62 101.785 28.97 102.445 29.3C105.095 30.65 107.765 31.93 110.495 33.07L118.635 36.51C121.325 37.69 124.015 38.88 126.525 40.43C126.525 40.43 126.615 40.45 126.655 40.42C126.695 40.38 126.695 40.32 126.655 40.28C124.475 38.21 121.865 36.67 119.245 35.26C116.615 33.85 113.915 32.61 111.205 31.42C108.495 30.22 105.695 29.25 102.945 28.19C101.555 27.68 100.255 27.05 98.7547 26.6C98.0147 26.4 97.2047 26.27 96.4147 26.4C95.6347 26.51 94.9047 26.79 94.2147 27.1C91.5347 28.42 88.8247 29.6 86.1547 30.88C83.5047 32.2 80.8647 33.54 78.2547 34.92C78.0847 35.01 77.9147 35.11 77.7447 35.2C77.6247 34.78 77.4747 34.38 77.3047 33.99C76.9847 33.29 76.5847 32.63 76.1247 32.03C75.6647 31.42 75.1447 30.86 74.5547 30.36C73.9947 29.9 73.3847 29.47 72.6447 29.17L86.3147 21.37L91.8747 18.18L94.6447 16.6C95.5347 16.12 96.5347 15.86 97.5347 15.83C98.5447 15.78 99.5447 15.99 100.465 16.38C101.345 16.78 102.275 17.42 103.185 17.95L108.695 21.23L130.725 34.33L136.235 37.61L138.985 39.25L140.365 40.07C140.845 40.36 141.245 40.59 141.605 40.89C143.075 42.07 143.765 44.03 143.415 45.89C143.105 47.74 141.835 49.41 140.135 50.12C139.835 50.25 139.625 50.54 139.625 50.89L139.555 86.68L139.515 104.57L139.495 112.86C139.265 112.7 139.035 112.52 138.805 112.36C137.885 111.73 136.935 111.15 135.915 110.64C135.865 108.91 135.745 107.18 135.515 105.43C135.515 105.39 135.485 105.35 135.435 105.34C135.385 105.33 135.325 105.36 135.315 105.41C134.475 108.72 134.055 112.09 133.765 115.39C133.635 117.02 133.365 118.29 132.305 119.2C131.255 120.09 129.715 120.63 128.135 120.92C126.515 121.15 124.795 121.22 123.125 121.16C121.445 121.1 119.765 120.78 118.085 120.65C116.405 120.53 114.725 120.6 113.045 120.71C111.365 120.83 109.685 121 108.005 121.38C107.965 121.38 107.935 121.42 107.925 121.46C107.915 121.52 107.945 121.57 108.005 121.58C109.685 121.96 111.365 122.13 113.045 122.26C114.725 122.37 116.405 122.43 118.085 122.32C119.765 122.19 121.445 121.87 123.125 121.81C124.815 121.73 126.455 121.87 128.195 122.01C128.845 122.04 129.515 122.03 130.195 121.94C130.485 123.02 130.925 123.97 131.435 124.87C131.755 125.4 132.165 125.88 132.565 126.37C132.645 126.48 132.745 126.58 132.835 126.68C132.365 126.85 131.885 127 131.395 127.09C130.645 127.24 129.925 127.29 129.105 127.28H126.615L121.635 127.3L101.735 127.34L81.8347 127.38L71.8847 127.4H66.9047C65.2647 127.44 63.7747 127.27 62.3047 126.74C59.4247 125.7 57.0447 123.3 56.3047 120.31C56.0947 119.58 56.0147 118.81 55.9847 118.04L55.9647 115.56L55.9347 110.58L55.8247 92.61C56.1747 92.97 56.4947 93.35 56.7747 93.76C57.2747 94.51 57.5747 95.4101 58.0247 96.2001C58.4747 96.9801 59.0847 97.64 59.7147 98.29C60.2047 98.76 60.7147 99.22 61.2947 99.62C61.4147 101.55 61.5847 103.48 61.8947 105.42C61.8947 105.46 61.9347 105.5 61.9747 105.5C62.0347 105.5 62.0847 105.47 62.0947 105.42C62.4747 103.04 62.6447 100.65 62.7747 98.2701C62.8847 95.89 62.9447 93.5 62.8347 91.12C62.7147 88.74 62.3847 86.35 62.3247 83.97C62.2447 81.59 62.3747 79.2 62.5447 76.82C62.7347 74.44 62.8947 72.0501 62.9347 69.6701C63.0047 67.2901 63.0847 64.91 63.0647 62.52C63.0147 60.14 62.9547 57.75 62.7947 55.37L62.7347 54.48C62.7047 54.2 62.7147 53.85 62.5847 53.42C62.4447 52.98 62.1547 52.66 61.9847 52.47C61.7947 52.27 61.7047 52.13 61.6147 51.9C61.2847 50.96 61.4047 49.72 61.8847 48.66C61.9047 48.62 61.8847 48.57 61.8547 48.54C61.8147 48.5 61.7447 48.51 61.7147 48.54C61.3147 49 61.0047 49.57 60.8147 50.17C60.6247 50.78 60.4947 51.42 60.6247 52.14C60.6747 52.49 60.8547 52.89 61.0347 53.16C61.2147 53.44 61.3047 53.6 61.3147 53.75C61.3347 53.91 61.3147 54.16 61.2847 54.47L61.2247 55.36C61.0647 57.74 60.9947 60.12 60.9347 62.51C60.9047 64.89 60.9947 67.28 61.0647 69.66C61.1147 72.04 61.2647 74.4301 61.4547 76.8101C61.5147 77.6101 61.5647 78.4101 61.6047 79.2001C61.0147 78.0501 60.2647 77.04 59.4547 76.08C58.9247 75.48 58.3047 74.9501 57.6947 74.4201C57.1047 73.8801 56.4347 73.4 55.7447 72.96C55.7347 72.96 55.7247 72.95 55.7147 72.94V70.7701L55.5047 50.87C55.5047 50.75 55.4347 50.65 55.3347 50.6C53.2847 49.75 51.8147 47.67 51.6347 45.43C51.5247 44.32 51.7347 43.17 52.2547 42.18C52.7847 41.17 53.5647 40.38 54.6047 39.75L54.5747 39.77L64.0447 34.05L54.4247 39.51L54.3947 39.53C53.4247 40.07 52.4847 40.95 51.9347 41.99C51.3547 43.04 51.1147 44.26 51.2047 45.45C51.3547 47.78 52.7947 50 54.9447 51.02L54.7447 70.75V72.2401C54.4247 72.0001 54.1247 71.74 53.8647 71.44C53.3247 70.85 52.9647 70.0601 52.4647 69.4201C51.9647 68.7701 51.3247 68.28 50.6747 67.8C50.3847 67.61 50.0947 67.4201 49.7847 67.2401L49.6747 51.06V51.02C49.6747 50.53 49.3847 50.08 48.9047 49.88C46.8747 49.05 45.3947 46.99 45.1847 44.74C45.0647 43.62 45.2447 42.49 45.7347 41.5C46.2247 40.51 47.0147 39.67 47.9847 39.06H47.9447C48.0047 39.04 48.0647 39.01 48.1247 38.98H48.1147L76.2947 21.89C80.9947 19.04 85.7347 16.27 90.4547 13.46L93.9947 11.36C95.1147 10.71 96.4047 10.35 97.7047 10.32C99.0047 10.3 100.305 10.6 101.455 11.2C102.605 11.85 103.815 12.58 104.985 13.27C114.435 18.86 123.795 24.62 133.175 30.33L147.245 38.9L147.685 39.17L148.035 39.41C148.265 39.58 148.485 39.76 148.695 39.96C149.105 40.35 149.465 40.8 149.735 41.28C150.285 42.25 150.525 43.39 150.445 44.52L150.455 44.57ZM73.5947 37.56C73.4047 37.13 73.1947 36.73 72.9647 36.34C72.5647 35.7 72.1247 35.11 71.6447 34.56C71.1647 34 70.6447 33.48 70.0647 33C69.4947 32.54 68.8947 32.09 68.1447 31.75L72.5547 29.23C72.7247 30.02 73.0147 30.7 73.3347 31.35C73.6847 32.02 74.0847 32.65 74.5347 33.24C74.9847 33.83 75.4747 34.39 76.0347 34.91C76.3247 35.17 76.6147 35.43 76.9347 35.67C75.8147 36.29 74.6947 36.92 73.5947 37.57V37.56Z" fill="black"/>
<path d="M62.4249 110.76C62.4249 110.76 62.4049 110.69 62.3649 110.67C62.3149 110.65 62.2549 110.67 62.2249 110.72C61.5849 112.1 61.3249 113.67 61.4749 115.24C61.6249 116.81 62.2349 118.43 63.3749 119.61C63.9449 120.2 64.6349 120.66 65.3749 120.99C66.1149 121.32 66.8549 121.52 67.6049 121.68C68.3449 121.85 69.0749 121.97 69.8149 122.09L70.9249 122.27L72.0249 122.4C73.4849 122.6 74.9549 122.74 76.4149 122.8C77.8849 122.88 79.3449 122.94 80.8149 122.92C83.7549 122.83 86.6949 122.6 89.6249 121.95C89.6649 121.95 89.6949 121.91 89.7049 121.87C89.7149 121.81 89.6849 121.76 89.6249 121.75C86.6949 121.11 83.7749 120.88 80.8449 120.78C79.3849 120.76 77.9149 120.82 76.4549 120.9C74.9949 120.95 73.5249 121.1 72.0549 121.3C71.6849 121.34 71.3149 121.4 70.9549 121.42C70.6149 121.44 70.2349 121.43 69.8749 121.41C69.1549 121.38 68.4349 121.26 67.7649 121.05C66.3749 120.63 65.3549 119.63 64.6549 118.54C63.9149 117.46 63.3449 116.29 63.0049 114.97C62.6549 113.65 62.5349 112.24 62.4249 110.75V110.76Z" fill="black"/>
<path d="M135.074 97.0301C135.494 94.3501 135.704 91.6701 135.854 88.9901C136.014 86.3101 136.054 83.6301 136.074 80.9501C136.054 78.2701 136.014 75.5901 135.854 72.9101C135.704 70.2301 135.494 67.5501 135.074 64.8701C134.664 67.5501 134.444 70.2301 134.294 72.9101C134.134 75.5901 134.094 78.2701 134.074 80.9501C134.094 83.6301 134.134 86.3101 134.294 88.9901C134.444 91.6701 134.654 94.3501 135.074 97.0301Z" fill="black"/>
<path d="M68.515 74.6299C68.565 75.0299 68.785 75.4499 68.965 75.6099L69.495 76.0899C69.785 76.3599 69.915 76.4599 70.185 76.5899C70.715 76.8299 70.795 76.8599 71.225 76.7999C71.545 76.7699 71.595 76.7699 71.945 76.5899C72.215 76.4599 72.345 76.3499 72.555 76.1399C72.825 75.8699 72.925 75.7099 73.145 75.1599L73.305 74.8699C73.335 74.8199 73.355 74.6799 73.385 74.5499C73.385 74.4199 73.465 74.1199 73.545 73.9099L73.705 73.2999C73.705 73.1699 73.755 73.0099 73.785 72.9299C73.815 72.8499 73.835 72.6899 73.835 72.5799C73.835 72.4499 73.865 72.2899 73.885 72.2099C73.915 72.1299 73.935 71.9399 73.935 71.8099C73.935 71.6799 73.965 71.5199 73.985 71.4599C74.015 71.3299 74.065 70.9799 74.115 70.4499C74.145 70.3199 74.165 70.0799 74.225 69.9199C74.255 69.7899 74.305 69.5199 74.305 69.3299L74.415 68.7399C74.445 68.6099 74.465 68.3899 74.465 68.3099C74.465 68.1999 74.495 67.9399 74.515 67.7199L74.625 66.9699C74.675 66.5399 74.785 65.7999 74.895 65.2899L74.945 64.8099C74.945 64.7299 74.995 64.5999 75.055 64.4599L75.135 64.2199L75.105 64.6499C75.055 65.3199 75.075 65.4799 75.185 65.7899C75.235 65.9499 75.265 66.1399 75.265 66.2699C75.265 66.3799 75.295 66.5599 75.345 66.7199C75.455 67.1499 75.475 67.4099 75.375 67.7899C75.295 68.1399 75.265 68.7999 75.345 69.0699C75.395 69.3399 75.455 69.9999 75.425 70.2699C75.395 70.3999 75.395 70.5599 75.425 70.6999C75.475 71.0999 75.535 71.7599 75.535 72.3499V72.9899L75.665 73.2599C75.775 73.4699 75.795 73.5799 75.825 73.8699C75.875 74.2999 75.935 74.4799 76.145 74.7999L76.435 75.2499C76.485 75.3599 76.625 75.5399 76.755 75.6999C76.945 75.9099 76.995 75.9699 77.345 76.1299C78.015 76.4799 78.565 76.4999 79.125 76.2099C79.445 76.0799 79.685 75.8599 79.945 75.4899C80.155 75.1999 80.235 75.0099 80.315 74.6399L80.425 74.1599C80.535 73.7299 80.585 73.3399 80.615 73.1499C80.615 73.0399 80.645 72.8299 80.665 72.6999C80.665 72.5699 80.695 72.4299 80.665 72.4099C80.635 72.3299 80.585 72.2999 80.505 72.3299C80.395 72.3599 80.165 72.8599 80.165 73.0799C80.165 73.1299 80.135 73.2699 80.085 73.4299L79.895 73.9399C79.845 74.0999 79.705 74.3699 79.625 74.4999C79.545 74.6899 79.495 74.8199 79.495 74.8999C79.495 75.0099 79.465 75.0599 79.255 75.2699L79.015 75.5099L78.745 75.5399C78.505 75.5699 78.475 75.5699 78.345 75.4599C78.135 75.2999 78.075 75.1699 78.075 74.6899C78.075 74.4799 78.105 74.1799 78.105 74.0499C78.155 73.7799 78.135 73.3799 77.995 73.0699C77.945 72.8599 77.945 72.7999 77.965 72.5099L78.045 71.7599C78.095 71.3299 78.095 71.3899 78.075 70.0799C78.075 69.5499 78.075 69.0699 78.105 68.9399C78.135 68.6999 78.135 68.5399 78.025 68.0399C77.975 67.7699 77.975 67.7199 78.025 67.4499C78.105 67.0499 78.105 66.8099 77.995 66.5199C77.785 65.9899 77.785 65.9299 77.785 65.3999C77.785 64.9999 77.755 64.8699 77.705 64.7099C77.655 64.5999 77.595 64.3899 77.595 64.2599C77.565 64.1299 77.485 63.9099 77.435 63.7799C77.385 63.6199 77.325 63.4299 77.305 63.2199C77.255 62.7699 77.145 62.5499 76.715 62.1599C76.295 61.7299 76.045 61.6299 75.705 61.6299C75.575 61.6299 75.435 61.6299 75.385 61.6799C75.095 61.8399 74.905 62.1099 74.855 62.5599C74.805 63.0899 74.775 63.3099 74.665 63.4899C74.615 63.5699 74.585 63.6999 74.585 63.7599C74.585 63.8199 74.535 63.9999 74.505 64.1899C74.395 64.5399 74.315 64.9099 74.265 65.2799C74.265 65.4099 74.235 65.5499 74.215 65.5999C74.185 65.6299 74.165 65.7299 74.165 65.8099C74.165 65.8899 74.135 66.0199 74.115 66.0999L74.035 66.5499L73.925 67.1399L73.815 67.8099C73.735 68.4199 73.685 68.8199 73.625 68.9799C73.595 69.0599 73.575 69.2199 73.545 69.3499C73.545 69.4799 73.495 69.6999 73.465 69.7999C73.435 69.9099 73.415 70.1699 73.355 70.4099L73.275 71.0799C73.245 71.2899 73.165 71.6399 73.085 71.9799L72.975 72.4099C72.975 72.5199 72.925 72.6999 72.895 72.7799L72.785 73.1799C72.655 73.7099 72.365 74.2999 71.955 74.9899C71.795 75.2599 71.765 75.2799 71.555 75.4399C71.265 75.6499 71.055 75.6799 70.885 75.4899C70.615 75.1999 70.595 75.1699 70.595 74.6399C70.575 74.0865 70.6117 73.7032 70.705 73.4899C70.945 72.9899 70.895 72.6099 70.495 72.0799C70.205 71.6799 69.885 71.4699 69.535 71.4699C69.265 71.4699 69.085 71.5799 68.845 71.8399C68.605 72.0799 68.345 72.5599 68.175 72.9799C68.065 73.2999 68.095 73.6499 68.285 74.0399L68.475 74.6299H68.515Z" fill="black"/>
<path d="M81.6145 74.7104C81.6645 74.8204 81.7745 75.0004 81.8045 75.1404C81.9145 75.3804 82.3145 75.9705 82.4945 76.1505C82.5445 76.2005 82.6845 76.2604 82.7845 76.2804C82.9745 76.3304 83.0245 76.3304 83.3945 76.2804C83.6645 76.2504 83.8445 76.2005 83.9845 76.1205C84.1745 76.0405 84.4945 75.6905 84.5945 75.4805L84.7545 75.2104C84.8045 75.1604 84.9145 74.9705 84.9945 74.8105C85.2345 74.2505 85.2045 74.4904 85.7945 73.2104L86.0545 72.6004C86.1845 72.3604 86.2145 72.3305 86.2145 72.4105C86.2145 72.6005 86.2945 72.8605 86.4245 73.0205C86.5045 73.1305 86.5545 73.2905 86.5845 73.4505C86.6345 73.5805 86.6945 73.7705 86.7145 73.8805L86.8745 74.3105C87.0045 74.7105 87.5945 75.2905 87.9645 75.3705C88.1745 75.4205 88.3645 75.3704 88.7845 75.1004C89.3145 74.7504 89.7945 74.3305 90.0045 74.0105L90.3545 73.4805L90.5445 73.1305C90.5745 73.0505 90.6545 72.9205 90.7045 72.8105C90.7845 72.7305 90.8345 72.6204 90.8345 72.5704C90.8345 72.5404 90.8845 72.3804 90.9945 72.2204C91.0045 72.2004 91.0145 72.1805 91.0245 72.1705C91.0445 72.6305 91.0845 72.9705 91.1345 73.1605L91.2645 73.5605C91.3145 73.6705 91.3945 73.8504 91.4745 73.9304L91.7145 74.2504C91.8745 74.4404 92.2745 74.7804 92.4845 74.8604C92.5645 74.8904 92.7545 74.9105 92.8845 74.9405C93.0945 74.9705 93.1745 74.9404 93.3645 74.8904C93.7345 74.7304 93.8745 74.6504 94.1645 74.3904C94.7245 73.8804 94.6445 73.8305 95.0145 73.0105C95.0645 72.9005 95.1445 72.6905 95.1445 72.5805C95.1745 72.4705 95.2245 72.3405 95.2545 72.3105C95.3045 72.2605 95.3045 72.2804 95.3345 72.3604C95.3645 72.4904 95.3045 75.3905 95.3045 75.3705C95.1945 75.4805 95.0145 75.6904 94.8745 75.8504C94.8245 75.9304 94.5845 76.2004 94.3445 76.4604C94.1045 76.7004 93.8645 76.9904 93.8145 77.0704C93.7845 77.1504 93.6845 77.2804 93.6245 77.3604C93.5445 77.4404 93.4945 77.5205 93.4945 77.5505C93.4945 77.5805 93.4145 77.6804 93.3045 77.8204L93.0145 78.1905L92.6945 78.8005C92.3245 79.5505 92.2745 79.4705 92.1045 80.2905C92.0545 80.6905 92.0745 80.9804 92.2345 81.3604C92.3445 81.6304 92.6645 81.9704 93.0345 82.1804L93.3245 82.3705C94.1545 82.4005 94.4445 82.4504 94.7045 82.2904C94.7545 82.2404 94.8945 82.1805 94.9945 82.1605C95.2545 82.0805 95.4745 81.9505 95.5545 81.8105C95.6645 81.6505 96.0345 81.2505 96.1945 81.0105L96.4845 80.6104C96.7545 80.3204 96.9345 79.8604 97.0145 79.3604C97.0945 78.8804 97.2845 78.1405 97.4445 77.7405C97.5245 77.5005 97.5245 77.4505 97.4945 77.2405C97.4645 76.7605 97.4645 76.4905 97.5745 76.2005C97.6545 75.8805 97.6845 75.5305 97.5745 75.3005C97.5245 75.1405 97.5245 75.0905 97.5745 74.7905L97.6245 74.3904C97.6245 74.3904 97.8645 74.1505 98.1545 73.9405C98.4945 73.6605 99.6945 72.5105 100.385 71.8105C100.475 72.2105 100.625 72.6505 100.735 72.9005C100.925 73.2205 101.215 73.7004 101.325 73.7804C101.435 73.9104 101.915 74.2105 102.175 74.3405C102.285 74.3905 102.515 74.4704 102.705 74.5304C103.025 74.6404 103.055 74.6405 103.395 74.5805C104.135 74.5005 104.645 74.3405 105.235 73.9905L105.875 73.5605C106.035 73.4805 106.275 73.2705 106.435 73.1305C106.695 72.8605 106.725 72.8404 107.105 72.3604C107.235 72.2004 107.395 71.9905 107.505 71.9105C107.605 71.8005 107.765 71.6104 107.915 71.4304C107.935 71.6604 107.855 71.8005 107.795 72.7005C107.765 73.1505 107.765 73.2305 107.825 73.4705C107.855 73.6805 107.875 73.7604 107.825 74.0004C107.795 74.2404 107.795 74.3204 107.875 74.6404L107.925 75.1705C107.925 75.2805 107.975 75.4605 108.035 75.6205C108.085 75.8305 108.145 76.0505 108.165 76.3705C108.195 76.7405 108.195 76.8505 108.295 77.0605C108.375 77.2205 108.425 77.3805 108.455 77.5905C108.485 77.8605 108.505 77.9405 108.665 78.2605C108.775 78.5005 108.875 78.6304 108.985 78.7104C109.115 78.8204 109.145 78.8204 109.415 78.8204C109.655 78.8204 109.705 78.8204 109.835 78.7104C109.915 78.6604 110.075 78.5004 110.155 78.3604C110.315 78.1204 110.345 78.0905 110.365 77.7705C110.415 77.1005 110.495 76.4904 110.555 76.2804C110.635 75.9304 110.665 75.0005 110.605 74.7405C110.575 74.5305 110.575 74.4705 110.635 74.2905C110.685 74.0805 110.715 73.4604 110.685 72.0004C110.685 71.3604 110.685 71.3105 110.795 70.9905C110.925 70.5405 111.165 70.0304 111.325 69.8204C111.405 69.7404 111.515 69.5804 111.565 69.5004C111.615 69.3904 111.775 69.1504 111.965 68.9704C112.225 68.6804 112.305 68.6005 112.525 68.5205C112.815 68.3905 112.945 68.3605 113.195 68.4705C113.405 68.5505 113.595 68.8405 113.695 69.2405L113.885 69.8305C114.045 70.2805 114.045 70.7405 113.915 71.0505C113.865 71.1805 113.785 71.5005 113.725 71.8005C113.675 72.0705 113.595 72.3304 113.565 72.3904C113.535 72.4404 113.435 72.6005 113.305 72.7405L113.065 73.0105C112.585 73.0105 112.505 73.0105 112.265 72.9005C112.055 72.7905 111.865 72.6105 111.865 72.4505C111.865 72.2905 111.785 72.1005 111.685 72.0505C111.495 72.0005 111.285 72.1305 111.155 72.4005C111.045 72.6405 111.045 72.7505 111.155 73.0405C111.365 73.5505 111.955 74.0805 112.535 74.2605L112.905 74.4205C113.015 74.5005 113.095 74.5004 113.515 74.5304C114.105 74.5304 114.315 74.5005 114.715 74.2605C115.115 74.0505 115.385 73.7504 115.675 73.2504C115.995 72.7504 116.125 72.4304 116.175 72.1104C116.225 71.7604 116.335 71.4205 116.385 70.6205C116.385 70.3805 116.385 70.3304 116.305 70.1404C116.255 70.0304 116.195 69.8505 116.195 69.7405C116.145 69.3905 116.065 69.1804 115.905 68.9704C115.825 68.8604 115.695 68.6505 115.615 68.4905C115.485 68.2505 115.405 68.1404 115.055 67.8204C114.305 67.1304 114.255 67.3105 113.645 67.1305C113.275 67.0205 113.115 67.0504 112.765 67.2104C112.605 67.2904 112.475 67.3405 112.445 67.3405C112.395 67.3405 112.285 67.4505 112.155 67.5505L111.805 67.9005C111.695 67.9805 111.595 68.1105 111.535 68.1905C111.375 68.4605 111.185 68.6705 111.035 68.9905L110.875 69.2605C110.745 69.4205 110.745 69.1504 110.845 68.5404C110.955 68.0904 110.955 68.0604 110.925 67.5304C110.875 66.9204 110.815 66.6804 110.555 66.2504C110.285 65.7504 109.885 65.5605 109.465 65.7205C109.195 65.8005 109.065 65.9605 108.875 66.3305L108.665 66.7305C108.535 66.8605 108.425 67.1605 108.425 67.4705C108.425 67.6605 108.395 67.9004 108.375 68.0004L108.325 68.3504C108.325 68.4604 108.245 68.7005 108.195 68.8805C108.035 69.4705 107.825 70.4204 107.825 70.7204C107.825 70.7504 107.825 70.7804 107.825 70.8204C107.645 70.9504 107.375 71.2005 106.935 71.6305C106.805 71.7405 106.695 71.8405 106.665 71.8405C106.635 71.8405 106.505 71.9505 106.375 72.0805C105.895 72.5305 105.525 72.8805 105.365 72.9805L105.075 73.1905C104.865 73.3805 104.225 73.5905 103.875 73.5905C103.765 73.5905 103.635 73.5604 103.425 73.4604C103.075 73.2704 102.835 73.0105 102.785 72.7405L102.675 72.3904C102.595 72.2304 102.595 72.1204 102.565 71.7204V71.1605C102.535 70.9705 102.755 70.7404 103.175 70.4704C103.735 70.1004 103.735 70.0404 104.135 69.7504C104.265 69.6704 104.405 69.5405 104.425 69.4805C104.475 69.4005 104.555 69.3205 104.635 69.2405C104.825 69.1105 104.875 69.0504 105.035 68.7904C105.355 68.3104 105.195 68.8405 105.865 67.4105C105.895 67.3305 105.975 67.1405 105.995 67.0105L106.105 66.5304C106.155 66.3704 106.185 66.1004 106.185 65.8604C106.185 65.4904 106.185 65.4605 106.075 65.3005C105.945 65.1105 105.485 64.7404 105.245 64.6104C105.085 64.5304 104.925 64.5305 104.635 64.5605C104.445 64.5905 103.945 64.7505 103.645 64.9105C103.515 64.9905 103.275 65.0705 103.145 65.1205C102.855 65.2005 102.345 65.5204 102.165 65.7104C102.085 65.7904 101.975 65.9205 101.925 66.0605C101.655 66.5405 101.255 66.8605 101.175 67.3105C101.145 67.3905 101.065 67.5504 100.985 67.6804C100.905 67.8104 100.795 68.0505 100.745 68.1905C100.715 68.3205 100.615 68.5104 100.555 68.6104C100.425 68.8204 100.155 69.8104 100.125 70.2104C100.105 70.4604 100.145 70.5904 100.205 70.9304C100.115 71.0004 100.015 71.0904 99.8545 71.2204L99.4345 71.5704C99.1945 71.7604 98.9545 71.9205 98.8245 72.0505C98.7445 72.1305 98.6345 72.2105 98.5645 72.2405C98.3545 72.3505 98.2445 72.4504 98.1645 72.6104C98.1145 72.6904 98.0845 72.7405 98.0545 72.7405L97.8645 72.8705C97.7545 72.9805 97.7045 73.0005 97.6745 72.9805C97.6445 72.9505 97.6245 72.6905 97.6245 72.2605C97.6245 71.7505 97.5945 71.5405 97.5445 71.4105C97.5145 71.3005 97.4945 71.1204 97.4945 70.9304C97.4945 70.7404 97.4945 70.5605 97.4645 70.4505C97.4345 70.3705 97.4145 70.0805 97.3845 69.8105C97.3545 69.3605 97.3545 69.3005 97.1945 69.0105C97.1145 68.8205 97.0345 68.6405 97.0345 68.5605C96.9845 68.3205 96.8445 68.1304 96.5545 68.0304C96.3445 67.9504 96.2645 67.9505 96.1045 67.9505C95.9645 67.9705 95.8745 67.9438 95.8345 67.8705C95.7545 67.7105 95.1145 67.1804 94.9245 67.1004C94.7145 67.0504 94.4445 67.0504 94.2345 67.1004C94.1545 67.1304 93.9445 67.1504 93.7845 67.1804C93.4945 67.2104 93.3645 67.2604 92.7445 67.6104C92.1845 67.9304 92.1545 67.9304 91.7345 68.6804C91.6045 68.9204 91.4445 69.2104 91.3645 69.3204C91.2045 69.5304 91.1745 69.5905 91.0145 70.1705C90.9445 70.4005 90.9345 70.4905 90.9345 70.9805C90.8345 71.1005 90.7245 71.2604 90.5545 71.5004C90.2345 72.0304 90.1045 72.2205 89.8645 72.4805C89.7845 72.5605 89.6745 72.7205 89.6545 72.8005C89.6245 72.8805 89.5445 73.0104 89.4645 73.0704C89.3845 73.1504 89.2745 73.3105 89.1945 73.4405C89.0845 73.5705 88.9545 73.7105 88.8545 73.7605L88.5645 73.9705C88.4045 74.1005 88.2945 74.0805 88.1945 73.9705C88.1145 73.8605 88.1145 73.8405 88.1445 73.4905L88.1945 72.8005C88.1945 72.6105 88.2245 72.4305 88.2245 72.3705C88.2545 72.2905 88.2745 72.1304 88.3045 72.0004C88.3045 71.8404 88.3545 71.6005 88.4145 71.4405C88.4645 71.2505 88.4945 71.0104 88.5245 70.8504C88.5745 70.1604 88.6545 70.2905 88.6345 69.4405C88.5845 68.9305 88.5845 68.8804 88.4445 68.6404C88.1745 68.0504 87.9645 67.8405 87.6745 67.7605C87.4045 67.7105 87.1445 67.8105 86.7945 68.1905C86.4245 68.5405 86.3445 68.7504 86.3145 69.4704C86.2845 69.8204 86.2645 69.9804 86.2045 70.1404C86.1545 70.2504 86.0945 70.4605 86.0445 70.5905C85.9345 71.0405 85.9145 71.1205 85.8045 71.3405C85.7545 71.4505 85.6945 71.5804 85.6945 71.6104C85.6945 71.6404 85.6445 71.7705 85.5645 71.9005C85.4845 72.0305 85.4045 72.1904 85.4045 72.2204C85.4045 72.2704 85.3545 72.4104 85.2745 72.5404C84.9845 72.9704 84.8745 73.1805 84.7145 73.4405C84.5245 73.7905 84.0745 74.2705 84.0245 74.1905C83.9445 74.0805 83.9445 73.7405 84.0245 73.5205C84.0545 73.4405 84.1545 72.7005 84.2145 72.1905C84.2445 72.0805 84.2945 71.8405 84.3245 71.6605C84.3745 71.4705 84.4345 71.1004 84.4545 70.8604C84.4845 70.5104 84.5045 70.3504 84.5845 70.1404C84.7945 69.5804 84.8545 69.2105 84.7145 68.7305C84.6645 68.6005 84.6345 68.3604 84.6345 68.2504C84.6345 67.9604 84.5245 67.6904 84.3445 67.5304C84.1045 67.3204 83.9945 67.2905 83.6245 67.2605C83.3345 67.2605 83.2845 67.2605 83.0945 67.3405C82.7245 67.5305 82.2945 67.9805 82.0245 68.4805C81.8945 68.6905 81.8645 68.8005 81.6545 69.8105C81.6045 70.0205 81.5245 70.2605 81.4645 70.3705C81.2745 70.7205 81.2545 70.8505 81.2245 71.3305L81.1445 72.0805C81.1445 72.3205 81.1445 72.5605 81.1945 72.8805C81.3245 74.1005 81.2745 74.2905 81.5345 74.7205L81.6145 74.7104ZM95.2245 76.8705C95.1945 76.9805 95.1745 77.1904 95.1745 77.3504C95.1745 77.5104 95.1245 77.7204 95.0645 77.8604C95.0345 77.9904 94.9845 78.1304 94.9845 78.1804C94.9845 78.2904 94.8745 78.7104 94.7145 79.2504C94.6045 79.6004 94.5545 79.6805 94.4445 79.8105C94.3645 79.8905 94.2345 80.0505 94.1545 80.1605C93.9445 80.5105 93.6245 80.8305 93.5145 80.8305C93.3845 80.8305 93.2245 80.7005 93.1445 80.4805C93.0145 80.1105 93.0645 79.8705 93.4345 79.1205C93.7045 78.5905 93.8545 78.3004 94.1045 78.0304L94.4445 77.6004C94.6345 77.3304 95.2445 76.6705 95.2745 76.6705C95.3045 76.7005 95.2745 76.7805 95.2245 76.8805V76.8705ZM103.345 68.9905C103.425 68.5605 103.615 68.1704 103.775 67.9304C103.935 67.7204 104.065 67.4204 104.065 67.2904C104.065 67.1604 104.225 66.9704 104.415 66.8604C104.655 66.7004 104.815 66.5404 105.025 66.2504C105.185 66.0404 105.295 66.0104 105.345 66.1404C105.375 66.1704 105.375 66.3004 105.375 66.4604C105.375 66.6704 105.325 66.7504 105.105 67.2104C104.865 67.7104 104.605 68.0904 104.225 68.4604C103.505 69.1504 103.375 69.2904 103.315 69.2904C103.255 69.2904 103.265 69.2904 103.345 69.0004V68.9905ZM93.1745 72.1305C93.1245 71.9205 93.1245 71.8905 93.2045 71.7605C93.3145 71.6005 93.4445 71.1205 93.6345 70.3805C93.7145 70.0605 93.7445 69.9505 93.8745 69.7705C94.2745 69.2105 94.4345 69.1305 94.6245 69.3405C94.8345 69.6105 95.1345 69.8404 95.2645 69.9304C95.6145 70.1204 95.6145 70.3005 95.2645 70.9105L95.1545 71.1205C94.9945 71.4705 94.7545 71.8704 94.6445 72.0004C94.5945 72.0804 94.5345 72.1605 94.5345 72.1905C94.5345 72.2205 94.4045 72.3505 94.2645 72.4805C94.1345 72.6105 93.9245 72.8505 93.7845 73.0105C93.5945 73.3005 93.5245 73.3604 93.3345 73.4604C93.1745 73.5404 93.1445 73.5105 93.0945 73.1905C93.0645 72.9505 93.0645 72.8705 93.1445 72.6305C93.1945 72.3905 93.1945 72.3405 93.1745 72.1305Z" fill="black"/>
<path d="M117.485 73.3298L117.615 73.7598C117.645 73.8398 117.665 73.9998 117.695 74.1298C117.745 74.5298 118.255 75.1898 118.675 75.4298C118.755 75.4598 118.885 75.5598 118.995 75.6398C119.121 75.7264 119.325 75.7698 119.605 75.7698C120.135 75.7698 120.165 75.7398 120.645 75.3198C121.095 74.8898 121.125 74.8698 121.285 74.4998C121.415 74.1798 121.415 74.1498 121.415 73.5398C121.415 72.9798 121.385 72.7098 121.335 72.3898C121.285 72.1998 120.965 71.4898 120.855 71.3498C120.805 71.2698 120.775 71.1898 120.775 71.1598C120.805 71.1098 120.905 71.0498 121.015 71.0298C121.125 70.9998 121.225 70.9198 121.255 70.8998C121.285 70.8698 121.385 70.8198 121.495 70.7698C121.575 70.7198 121.735 70.6098 121.845 70.4998C121.925 70.4198 122.035 70.3398 122.035 70.3398C122.065 70.3398 122.225 70.2098 122.405 70.0498C122.595 69.8598 122.725 69.7598 122.745 69.7598L122.695 70.0498C122.645 70.2598 122.645 70.4998 122.645 70.9498C122.645 71.5098 122.645 71.5898 122.535 71.8298C122.455 72.0698 122.455 72.1798 122.485 72.3598C122.485 72.5198 122.485 72.7098 122.435 72.9198C122.385 73.1598 122.385 73.2398 122.465 73.4498C122.495 73.5798 122.515 73.8498 122.515 74.0398C122.485 74.6798 122.565 75.7398 122.625 75.9298C122.655 76.0898 122.735 76.2198 122.915 76.4098C123.025 76.5398 123.185 76.7598 123.235 76.8898C123.315 77.0798 123.345 77.0998 123.715 77.2898C124.165 77.4998 124.675 77.6098 124.995 77.5298C125.205 77.4798 125.685 77.3198 125.765 77.2598C125.925 77.1498 126.805 76.2798 127.045 75.9598C127.415 75.4498 127.895 74.5998 128.005 74.2298C128.035 74.1498 128.055 74.0398 128.085 74.0398C128.135 73.9898 128.405 73.4298 128.455 73.2198C128.485 73.1098 128.505 72.9798 128.565 72.8998C128.675 72.6898 128.805 72.0198 128.835 71.5998C128.885 71.1498 128.805 70.9598 128.625 70.9098C128.465 70.8598 128.355 70.9398 128.255 71.1998L127.965 71.9998C127.855 72.3198 127.755 72.6898 127.725 72.8198C127.695 73.0098 127.615 73.2498 127.515 73.4898C127.405 73.6998 127.305 73.9398 127.275 74.0498C127.245 74.1298 127.165 74.2898 127.085 74.3998C127.035 74.5098 126.975 74.6098 126.975 74.6398C126.975 74.7698 126.255 75.6498 125.775 76.1298C125.585 76.2898 125.245 76.4498 124.975 76.4798C124.835 76.4998 124.718 76.4631 124.625 76.3698C124.545 76.2398 124.515 76.1598 124.495 75.8398C124.465 75.6298 124.445 75.3298 124.385 75.1998C124.355 75.0398 124.335 74.7998 124.335 74.5898C124.335 73.1498 124.335 72.9698 124.385 72.7298C124.415 72.5698 124.465 72.2198 124.465 71.9298C124.495 71.5298 124.515 71.3398 124.625 70.9998C124.755 70.5498 124.815 70.0698 124.815 69.6698C124.815 69.5398 124.865 69.3198 124.925 69.1698C125.035 68.7998 125.055 68.3398 124.975 67.9198C124.845 67.2298 124.625 66.9898 124.125 66.9898C123.915 66.9898 123.835 66.9898 123.695 67.0998C123.485 67.2298 123.275 67.6098 123.195 67.8998C123.145 68.0898 122.985 68.4898 122.875 68.7998C122.795 68.9298 122.365 69.3298 121.835 69.6998C121.625 69.8898 120.905 70.2098 120.475 70.3398C119.995 70.4998 119.975 70.4998 119.885 70.6298C119.755 70.8398 119.775 71.0798 119.935 71.2998C120.305 71.7998 120.415 72.0398 120.525 72.5998C120.575 72.9998 120.555 73.7198 120.475 73.8798C120.395 74.0098 120.155 74.3298 120.055 74.4098C119.975 74.5198 119.705 74.5198 119.575 74.4098C119.445 74.2798 119.255 73.6598 119.255 73.3398V72.7798C119.255 72.0898 119.285 71.9598 119.335 71.7198L119.445 71.1898C119.445 70.9998 119.495 70.6898 119.555 70.4998C119.715 69.8298 119.825 69.2498 119.845 68.8198C119.845 68.4498 119.875 68.3398 119.975 68.1798C120.185 67.8098 120.165 67.5098 119.925 66.9798C119.715 66.4698 119.395 66.2598 119.045 66.3398C118.695 66.4198 118.405 66.7698 118.005 67.5898C117.955 67.7198 117.895 67.9098 117.895 68.0698C117.865 68.2598 117.815 68.4198 117.685 68.6798C117.578 68.9131 117.525 69.1798 117.525 69.4798C117.525 69.7698 117.525 69.9898 117.475 70.0898C117.445 70.1698 117.425 70.3598 117.425 70.4598C117.425 70.5898 117.395 70.7498 117.375 70.8598C117.325 70.9698 117.295 71.2598 117.295 71.7898C117.265 72.5098 117.265 72.5898 117.345 72.7998C117.395 72.9098 117.455 73.1498 117.505 73.3298H117.485Z" fill="black"/>
<path d="M93.7545 86.8502C93.7045 86.7202 93.6445 86.6102 93.6445 86.5802C93.6445 86.5502 93.5945 86.4202 93.5145 86.2602C93.3245 85.8602 92.8445 85.5102 92.4245 85.3802C92.3745 85.3802 92.3145 85.3302 92.2945 85.2702C92.1645 84.9202 92.1045 84.8402 91.8645 84.6602L91.4645 84.3702C91.2545 84.2902 90.9345 84.2902 90.5845 84.4002L90.0845 84.5302C89.8745 84.5802 89.7945 84.6402 89.6345 84.8002C89.2345 85.2002 88.9445 85.5702 88.8045 85.8602C88.7245 86.0202 88.5645 86.2602 88.4845 86.3902C88.1945 86.7602 88.0045 87.1102 87.8945 87.4502C87.7845 87.7202 87.7845 87.8002 87.7645 88.4602C87.7445 89.1202 87.7645 89.2802 87.8245 89.6802L87.6245 90.1302C87.5445 90.2902 87.4945 90.4502 87.4945 90.4802C87.4945 90.5102 87.4145 90.6702 87.3345 90.8302L86.6145 92.3502C86.4045 92.8002 86.1845 93.2002 86.0545 93.3902C85.9745 93.5202 85.8945 93.6302 85.8945 93.6602C85.8945 93.7402 85.7045 93.9302 85.5245 94.0302C85.3445 94.1368 85.1778 94.1535 85.0245 94.0802C84.8645 94.0002 84.6545 93.7602 84.5945 93.5702C84.5645 93.5202 84.5945 93.2202 84.6445 92.9302C84.7245 92.2102 84.7545 92.1002 84.8545 91.8402C84.9045 91.7102 84.9345 91.5202 84.9645 91.4102C84.9645 91.2502 85.0145 91.1702 85.1245 91.0402C85.2545 90.8802 85.3945 90.5902 85.3945 90.4302C85.3945 90.3502 85.5845 89.6802 85.6845 89.4702C85.7145 89.3602 85.7945 89.2002 85.8145 89.0702L85.9745 88.4602C86.0245 88.2702 86.1045 87.9302 86.1345 87.7202C86.1645 87.3702 86.1645 87.3502 86.0545 86.8702C85.9245 86.3402 85.8145 86.1002 85.5545 85.8302C85.2645 85.5402 84.8845 85.4002 84.4045 85.4002C84.0845 85.4002 84.0345 85.4302 83.8445 85.5102C83.7145 85.5902 83.5545 85.7202 83.4145 85.8802L82.9145 86.3902C82.6745 86.6302 82.6245 86.7102 82.4045 87.1902C82.1945 87.6402 82.1645 87.7502 82.1645 87.9602C82.1645 88.0902 82.1345 88.3102 82.1145 88.4402C82.0645 88.6502 82.0645 88.6802 82.1445 88.8102C82.3045 89.1302 82.7045 89.1602 82.8845 88.8402L83.1745 88.4102C83.2545 88.2502 83.3645 88.1202 83.3645 88.0902C83.3645 87.9602 84.0345 87.2902 84.1345 87.2902C84.1645 87.2902 84.2145 87.3702 84.2645 87.4502C84.3945 87.7702 84.3145 88.0602 83.7345 89.2302C83.5245 89.6802 83.3145 90.1902 83.2845 90.3502L83.1245 90.8602C82.8545 91.7102 82.8345 91.8202 82.8045 92.5102L82.7745 93.1802L82.9045 93.6302C82.9845 93.9002 83.0945 94.1902 83.1445 94.3002C83.2545 94.5402 83.5145 94.7802 83.8345 94.9102L84.1745 95.0702C84.3045 95.1502 85.0545 95.2302 85.3445 95.2002C85.5845 95.1702 86.2445 94.8502 86.3245 94.7202C86.3545 94.6702 86.4845 94.5602 86.5945 94.4802C86.7045 94.4002 86.8345 94.2702 86.8845 94.1902C86.9345 94.0802 87.0445 93.9502 87.0945 93.9002C87.2245 93.7402 87.5245 93.2102 87.5445 93.0202C87.5745 92.8902 87.7345 92.5102 87.8945 92.1102C87.9745 91.9502 87.9745 91.8402 87.9745 91.5802C87.9745 91.4702 87.9845 91.3002 88.0145 91.1702C88.0945 91.4302 88.3645 91.7402 88.7745 92.4502C89.2845 93.2502 89.4445 93.4102 90.0245 93.5902C90.3445 93.7002 90.4545 93.7202 90.7445 93.7202C90.9345 93.7202 91.1945 93.6902 91.3045 93.6702L91.6245 93.6202C91.7845 93.5902 92.1545 93.3802 92.3745 93.1902C92.6145 93.0002 92.9645 92.5202 93.1745 92.1802C93.5945 91.3802 93.5445 91.1702 93.8145 90.5002C93.8645 90.3402 93.9245 90.1302 93.9445 89.9902L94.0245 89.5402C94.0745 89.3002 94.1045 88.8002 94.0745 88.1602C94.0745 87.8402 93.8845 87.1002 93.7245 86.8302L93.7545 86.8502ZM92.5845 90.0202L92.4745 90.5002C92.4745 90.5802 92.4445 90.7102 92.3945 90.7702L92.2845 91.1202C92.2345 91.3102 92.1545 91.4102 92.0145 91.5502C91.9345 91.6602 91.8245 91.7602 91.8045 91.8202C91.7545 91.9302 91.4545 92.0602 91.3545 92.0302C91.3045 92.0302 91.1945 91.9502 91.1145 91.8402L90.9545 91.6802L90.8745 91.1502C90.8445 90.8002 90.8245 90.4602 90.8245 90.1402C90.8245 89.8502 90.8245 89.5302 90.7945 89.3702C90.7645 89.1302 90.7645 89.0502 90.8745 88.8102C90.9245 88.6802 90.9845 88.3802 91.0045 88.2202C91.0845 87.8202 91.1345 87.6902 91.3245 87.3902C91.4845 87.1202 91.5945 86.8602 91.6445 86.5702C91.6745 86.2202 91.7245 86.2202 91.8545 86.5202L92.0145 86.8702C92.2045 87.1602 92.3845 87.5902 92.3845 87.6402L92.4945 88.1202C92.6045 88.4902 92.6045 88.6002 92.6045 89.0002C92.5745 89.2702 92.6045 89.5302 92.6045 89.6102C92.6345 89.6602 92.6045 89.8502 92.5745 90.0402L92.5845 90.0202Z" fill="black"/>
<path d="M113.505 89.1397C113.395 89.1397 113.345 89.1697 113.135 89.4097C112.945 89.5997 112.845 89.7597 112.655 90.1797L112.285 90.9297L112.125 91.2497L111.885 91.6197C111.805 91.7497 111.645 91.9897 111.535 92.1197L111.165 92.6297C110.955 92.8997 110.665 93.1897 110.605 93.1897C110.575 93.1897 110.555 93.1097 110.525 92.9197C110.525 92.7597 110.475 92.5697 110.445 92.4697C110.415 92.3597 110.395 92.1197 110.395 91.9597L110.425 91.2397V90.6297C110.425 90.4397 110.395 90.3597 110.315 90.1997C110.265 90.0697 110.205 89.9597 110.205 89.8497C110.205 89.5797 109.965 89.1797 109.775 89.1297C109.745 89.0997 109.725 88.9397 109.725 88.6997C109.725 88.1397 109.675 87.4497 109.595 87.2897L109.465 86.8897C109.415 86.7597 109.305 86.5397 109.225 86.4397L108.985 86.0697C108.855 85.8297 108.715 85.7197 108.315 85.5897C107.945 85.4297 107.725 85.3997 107.175 85.5397C106.965 85.5897 106.745 85.6697 106.695 85.6997C106.105 86.0197 105.445 86.6797 105.255 87.0797C105.205 87.2097 105.095 87.3997 105.015 87.5097C104.935 87.6197 104.825 87.8297 104.775 87.9897C104.725 88.1797 104.615 88.4197 104.535 88.5497C104.455 88.6797 104.375 88.8997 104.345 88.9997C104.345 89.0697 104.325 89.1497 104.295 89.2197C104.195 89.2797 104.055 89.3897 103.805 89.6097L103.385 89.9597C103.145 90.1497 102.905 90.3097 102.775 90.4397C102.695 90.5197 102.585 90.5997 102.515 90.6297C102.305 90.7397 102.195 90.8397 102.115 90.9997C102.065 91.0797 102.035 91.1297 102.005 91.1297L101.815 91.2597C101.705 91.3697 101.655 91.3897 101.625 91.3697C101.595 91.3397 101.575 91.0797 101.575 90.6497C101.575 90.1397 101.545 89.9297 101.495 89.7997C101.465 89.6897 101.445 89.5097 101.445 89.3197C101.445 89.1297 101.445 88.9497 101.415 88.8397C101.385 88.7597 101.365 88.4697 101.335 88.1997C101.305 87.7497 101.305 87.6897 101.145 87.3997C101.065 87.2097 100.985 87.0297 100.985 86.9497C100.935 86.7097 100.795 86.5197 100.505 86.4197C100.295 86.3397 100.215 86.3397 100.055 86.3397C99.9148 86.3597 99.8248 86.333 99.7848 86.2597C99.7048 86.0997 99.0648 85.5697 98.8748 85.4897C98.6648 85.4397 98.3948 85.4397 98.1848 85.4897C98.1048 85.5197 97.8948 85.5397 97.7348 85.5697C97.4448 85.5997 97.3148 85.6497 96.6948 85.9997C96.1348 86.3197 96.1048 86.3197 95.6848 87.0697C95.5548 87.3097 95.3948 87.5997 95.3148 87.7097C95.1548 87.9197 95.1248 87.9797 94.9648 88.5597C94.8848 88.8297 94.8848 88.9097 94.8848 89.6497C94.8848 90.6097 94.9348 91.2697 95.0148 91.5697L95.1448 91.9697C95.1948 92.0797 95.2748 92.2597 95.3548 92.3397L95.5948 92.6597C95.7548 92.8497 96.1548 93.1897 96.3648 93.2697C96.4448 93.2997 96.6348 93.3197 96.7648 93.3497C96.9748 93.3797 97.0548 93.3497 97.2448 93.2997C97.6148 93.1397 97.7548 93.0597 98.0448 92.7997C98.6048 92.2897 98.5248 92.2397 98.8948 91.4197C98.9448 91.3097 99.0248 91.0997 99.0248 90.9897C99.0548 90.8797 99.1048 90.7497 99.1348 90.7197C99.1848 90.6697 99.1848 90.6897 99.2148 90.7697C99.2448 90.8997 99.1848 93.7997 99.1848 93.7797C99.0748 93.8897 98.8948 94.0997 98.7548 94.2597C98.7048 94.3397 98.4648 94.6097 98.2248 94.8697C97.9848 95.1097 97.7448 95.3997 97.6948 95.4797C97.6648 95.5597 97.5648 95.6897 97.5048 95.7697C97.4248 95.8497 97.3748 95.9297 97.3748 95.9597C97.3748 95.9897 97.2948 96.0897 97.1848 96.2297L96.8948 96.5997L96.5748 97.2097C96.2048 97.9597 96.1548 97.8797 95.9848 98.6997C95.9348 99.0997 95.9548 99.3897 96.1148 99.7597C96.2248 100.03 96.5448 100.37 96.9148 100.58L97.2048 100.77C98.0348 100.8 98.3248 100.85 98.5848 100.69C98.6348 100.64 98.7748 100.58 98.8748 100.56C99.1348 100.48 99.3548 100.35 99.4348 100.21C99.5448 100.05 99.9148 99.6497 100.075 99.4097L100.365 99.0097C100.635 98.7197 100.815 98.2597 100.895 97.7597C100.975 97.2797 101.165 96.5397 101.325 96.1397C101.405 95.8997 101.405 95.8497 101.375 95.6397C101.345 95.1597 101.345 94.8897 101.455 94.5997C101.535 94.2797 101.565 93.9297 101.455 93.6997C101.405 93.5397 101.405 93.4897 101.455 93.1897L101.505 92.7897C101.505 92.7897 101.745 92.5497 102.035 92.3397C102.345 92.0797 103.375 91.0997 104.085 90.3897C104.085 90.3997 104.085 90.4097 104.085 90.4197C104.115 90.6097 104.135 90.7697 104.115 91.0897C104.085 91.6197 104.115 91.7797 104.405 92.1797L104.725 92.6597C104.855 92.8997 105.015 93.0597 105.205 93.1597L105.525 93.3497C106.005 93.6697 106.405 93.6997 106.985 93.3997C107.195 93.2897 107.305 93.2097 107.465 92.9997C107.675 92.7297 108.215 92.1797 108.215 92.2297L108.265 92.4397L108.345 93.0797C108.378 93.3997 108.491 93.693 108.685 93.9597C108.925 94.3097 109.115 94.4897 109.375 94.5997C109.645 94.6797 110.095 94.7097 110.255 94.6497C110.415 94.5697 111.105 93.9797 111.235 93.7997L111.585 93.3697C111.905 92.9997 112.115 92.6997 112.175 92.5497C112.205 92.4697 112.305 92.2797 112.415 92.1197C112.525 91.9597 112.735 91.6397 112.835 91.3997L113.185 90.7897C113.395 90.5197 113.455 90.3597 113.555 89.9397C113.685 89.4097 113.715 89.3297 113.635 89.2197C113.585 89.1697 113.555 89.1397 113.445 89.1397H113.505ZM99.1048 95.2597C99.0748 95.3697 99.0548 95.5797 99.0548 95.7397C99.0548 95.8997 99.0048 96.1097 98.9448 96.2497C98.9148 96.3797 98.8648 96.5197 98.8648 96.5697C98.8648 96.6797 98.7548 97.0997 98.5948 97.6397C98.4848 97.9897 98.4348 98.0697 98.3248 98.1997C98.2448 98.2797 98.1148 98.4397 98.0348 98.5497C97.8248 98.8997 97.5048 99.2197 97.3948 99.2197C97.2648 99.2197 97.1048 99.0897 97.0248 98.8697C96.8948 98.4997 96.9448 98.2597 97.3148 97.5097C97.5848 96.9797 97.7348 96.6897 97.9848 96.4197L98.3248 95.9897C98.5148 95.7197 99.1248 95.0597 99.1548 95.0597C99.1848 95.0897 99.1548 95.1697 99.1048 95.2697V95.2597ZM99.1348 89.2997L99.0248 89.5097C98.8648 89.8597 98.6248 90.2597 98.5148 90.3897C98.4648 90.4697 98.4048 90.5497 98.4048 90.5797C98.4048 90.6097 98.2748 90.7397 98.1348 90.8697C98.0048 90.9997 97.7948 91.2397 97.6548 91.3997C97.4648 91.6897 97.3948 91.7497 97.2048 91.8497C97.0448 91.9297 97.0148 91.8997 96.9648 91.5797C96.9348 91.3397 96.9348 91.2597 97.0148 91.0197C97.0648 90.7797 97.0648 90.7297 97.0448 90.5197C96.9948 90.3097 96.9948 90.2797 97.0748 90.1497C97.1848 89.9897 97.3148 89.5097 97.5048 88.7697C97.5848 88.4497 97.6148 88.3397 97.7448 88.1597C98.1448 87.5997 98.3048 87.5197 98.4948 87.7297C98.7048 87.9997 99.0048 88.2297 99.1348 88.3197C99.4848 88.5097 99.4848 88.6897 99.1348 89.2997ZM108.395 90.0397C108.265 90.1697 108.155 90.3097 108.155 90.3297C108.155 90.3497 108.045 90.4597 107.945 90.5697C107.845 90.6797 107.705 90.8097 107.675 90.8597C107.645 90.9397 107.565 91.0197 107.515 91.0997L107.255 91.3897C107.095 91.5497 106.665 91.7897 106.615 91.7597C106.535 91.7097 106.485 91.5197 106.455 91.2497C106.455 91.0897 106.405 90.8997 106.375 90.8297C106.265 90.5897 106.325 89.8497 106.455 89.4997C106.505 89.3697 106.565 89.1297 106.585 88.9697C106.615 88.7297 106.635 88.6197 106.715 88.5197C106.875 88.2797 106.985 88.0097 106.985 87.8297C106.985 87.7497 107.015 87.6397 107.035 87.5597C107.085 87.3997 107.595 86.9197 107.705 86.9197C107.735 86.9197 107.835 86.9697 107.915 87.0297C107.995 87.0797 108.105 87.1897 108.125 87.2397C108.205 87.3497 108.365 87.7197 108.495 88.1697C108.625 88.5697 108.655 88.6197 108.705 88.8397C108.705 88.9497 108.755 89.0497 108.785 89.1297C108.815 89.1797 108.835 89.2597 108.835 89.2897C108.835 89.3997 108.625 89.7697 108.385 90.0397H108.395Z" fill="black"/>
<path d="M141.814 11.6501C141.874 11.6401 141.934 11.5801 141.944 11.5201C141.964 11.4301 141.904 11.3401 141.814 11.3301C140.274 11.0601 138.744 10.7401 137.214 10.4201C135.744 10.1301 134.274 9.80013 132.804 9.47013C132.484 7.97013 132.194 6.45013 131.834 4.96013C131.484 3.41013 131.084 1.86013 130.674 0.320135C130.634 0.170135 130.524 0.0501345 130.374 0.0101345C130.154 -0.0398655 129.934 0.100135 129.884 0.320135C129.514 1.90013 129.164 3.48013 128.844 5.10013C128.504 6.71013 128.194 8.34014 127.884 10.0301C125.424 10.6901 123.024 11.3101 120.674 11.9801C120.564 12.0101 120.474 12.1101 120.444 12.2301C120.414 12.4001 120.524 12.5701 120.704 12.6001H120.724C123.204 13.0601 125.694 13.4501 128.174 13.8701C128.844 16.9601 129.564 20.0301 130.334 23.1001C130.384 23.3201 130.564 23.4701 130.784 23.5001C131.064 23.5301 131.314 23.3201 131.344 23.0401C131.654 19.9701 131.964 16.9001 132.224 13.8201C135.424 13.0901 138.624 12.3201 141.834 11.6601L141.814 11.6501ZM131.504 13.4601V13.4801C131.204 15.6701 130.924 17.8601 130.654 20.0601C130.124 17.8201 129.584 15.5801 129.004 13.3501V13.3301C128.954 13.1501 128.804 13.0201 128.614 12.9901C126.454 12.7101 124.304 12.4101 122.144 12.1401C124.114 11.4601 126.044 10.7701 127.934 10.1001C128.414 8.57013 128.894 6.99013 129.344 5.39013C129.664 4.31013 129.944 3.21013 130.234 2.11013C130.474 3.13013 130.724 4.15013 131.004 5.17013C131.394 6.72013 131.864 8.24013 132.294 9.77013V9.79013C132.324 9.88013 132.404 9.96013 132.504 9.98013C134.044 10.2301 135.594 10.4901 137.124 10.7801C138.384 11.0101 139.644 11.2401 140.894 11.4901C137.864 12.0901 134.814 12.6201 131.774 13.1701C131.634 13.2001 131.514 13.3101 131.494 13.4701L131.504 13.4601Z" fill="black"/>
<path d="M77.1243 19.0997C74.9243 18.6997 72.7343 18.2597 70.5443 17.8097C68.4143 17.3897 66.2843 16.9297 64.1543 16.4797C63.6643 14.3097 63.2243 12.1397 62.6943 9.9797C62.1743 7.7597 61.6243 5.5497 61.0443 3.3497C61.0043 3.1997 60.8943 3.0797 60.7443 3.0497C60.5243 2.9997 60.3043 3.1297 60.2443 3.3597C59.7043 5.6297 59.1843 7.8997 58.6943 10.2097C58.1843 12.5097 57.7043 14.8297 57.2343 17.2097C53.7443 18.1897 50.3243 19.1297 46.9443 20.1097C46.8343 20.1397 46.7443 20.2397 46.7243 20.3597C46.6943 20.5297 46.8143 20.6997 46.9843 20.7297H46.9943C50.5843 21.3597 54.1943 21.9197 57.7943 22.5097C58.2743 24.6897 58.8043 26.8497 59.3043 29.0197C59.8443 31.2897 60.3543 33.5597 60.9243 35.8297C60.9743 36.0397 61.1443 36.1997 61.3643 36.2197C61.6443 36.2497 61.8943 36.0397 61.9243 35.7597C62.3843 31.3297 62.8443 26.9097 63.2543 22.4797C67.8743 21.4597 72.4943 20.3997 77.1343 19.4497C77.1943 19.4397 77.2543 19.3897 77.2643 19.3197C77.2843 19.2297 77.2243 19.1397 77.1343 19.1297L77.1243 19.0997ZM62.5643 22.1097C62.1043 25.6597 61.6743 29.1997 61.2543 32.7297C60.9343 31.3997 60.6143 30.0797 60.2943 28.7497C59.7343 26.4797 59.2143 24.2097 58.6343 21.9497V21.9297C58.5843 21.7497 58.4343 21.6097 58.2443 21.5897C54.9743 21.1497 51.7143 20.6797 48.4443 20.2497C51.4343 19.2597 54.3943 18.2397 57.3043 17.2497C57.9543 15.0297 58.6043 12.7597 59.2143 10.4697C59.7043 8.7097 60.1643 6.9197 60.6243 5.1297C61.0243 6.8097 61.4343 8.4897 61.8743 10.1697C62.4243 12.3797 63.0643 14.5697 63.6643 16.7697C63.6943 16.8797 63.7743 16.9597 63.8743 16.9697C66.0743 17.3497 68.2843 17.7297 70.4743 18.1497C72.3943 18.4997 74.3143 18.8697 76.2343 19.2497C71.7843 20.1397 67.3143 20.9597 62.8443 21.7997C62.6943 21.8297 62.5743 21.9497 62.5543 22.0997L62.5643 22.1097Z" fill="black"/>
<path d="M36.1944 82.2797C34.6644 82.0097 33.1544 81.6997 31.6344 81.3797C30.1744 81.0897 28.7244 80.7697 27.2644 80.4397C26.9444 78.9497 26.6644 77.4497 26.3044 75.9697C25.9544 74.4297 25.5644 72.8997 25.1544 71.3797C25.1144 71.2297 25.0044 71.1097 24.8544 71.0697C24.6344 71.0197 24.4144 71.1597 24.3644 71.3797C23.9944 72.9397 23.6444 74.5097 23.3344 76.1097C23.0044 77.6997 22.6944 79.3197 22.3944 80.9897C19.9544 81.6397 17.5744 82.2597 15.2544 82.9197C15.1444 82.9497 15.0544 83.0497 15.0244 83.1697C14.9944 83.3397 15.1044 83.5097 15.2844 83.5397H15.3044C17.7544 83.9997 20.2244 84.3797 22.6744 84.7997C23.3444 87.8597 24.0544 90.8997 24.8144 93.9397C24.8644 94.1597 25.0444 94.3097 25.2644 94.3397C25.5444 94.3697 25.7944 94.1597 25.8244 93.8797C26.1244 90.8397 26.4344 87.7897 26.6944 84.7497C29.8644 84.0197 33.0244 83.2697 36.2144 82.6097C36.2744 82.5997 36.3344 82.5397 36.3444 82.4797C36.3644 82.3897 36.3044 82.2997 36.2144 82.2897L36.1944 82.2797ZM25.9844 84.3897V84.4097C25.6844 86.5697 25.4144 88.7397 25.1444 90.8997C24.6244 88.6897 24.0844 86.4797 23.5144 84.2797V84.2597C23.4644 84.0797 23.3144 83.9497 23.1244 83.9197C20.9944 83.6397 18.8644 83.3497 16.7344 83.0797C18.6744 82.4097 20.5944 81.7297 22.4644 81.0597C22.9444 79.5497 23.4144 77.9797 23.8644 76.3897C24.1744 75.3297 24.4544 74.2397 24.7444 73.1597C24.9844 74.1697 25.2344 75.1697 25.5044 76.1697C25.8844 77.6997 26.3644 79.2097 26.7844 80.7297V80.7497C26.8144 80.8397 26.8944 80.9197 26.9944 80.9397C28.5244 81.1897 30.0544 81.4397 31.5744 81.7297C32.8144 81.9497 34.0644 82.1897 35.3044 82.4397C32.3044 83.0297 29.2844 83.5497 26.2744 84.0997C26.1344 84.1297 26.0144 84.2397 25.9944 84.3997L25.9844 84.3897Z" fill="black"/>
<path d="M16.5246 50.8999C21.1446 49.8799 25.7646 48.8199 30.4046 47.8699C30.4646 47.8599 30.5246 47.8099 30.5346 47.7399C30.5546 47.6499 30.4946 47.5599 30.4046 47.5499C28.2046 47.1499 26.0146 46.7099 23.8246 46.2599C21.6946 45.8399 19.5646 45.3799 17.4346 44.9299C16.9446 42.7599 16.5046 40.5899 15.9746 38.4299C15.4546 36.2099 14.9046 33.9999 14.3246 31.7999C14.2846 31.6499 14.1746 31.5299 14.0246 31.4999C13.8046 31.4499 13.5846 31.5799 13.5246 31.8099C12.9846 34.0799 12.4646 36.3499 11.9746 38.6599C11.4646 40.9599 10.9846 43.2799 10.5146 45.6599C7.02461 46.6399 3.60461 47.5799 0.224605 48.5599C0.114605 48.5899 0.0246054 48.6899 0.00460536 48.8099C-0.0253946 48.9799 0.0946053 49.1499 0.264605 49.1799H0.274605C3.86461 49.8099 7.47461 50.3699 11.0746 50.9599C11.5546 53.1399 12.0846 55.2999 12.5846 57.4699C13.1246 59.7399 13.6346 62.0099 14.2046 64.2799C14.2546 64.4899 14.4246 64.6499 14.6446 64.6699C14.9246 64.6999 15.1746 64.4899 15.2046 64.2099C15.6646 59.7799 16.1246 55.3599 16.5346 50.9299L16.5246 50.8999ZM11.9046 50.4099V50.3899C11.8546 50.2099 11.7046 50.0699 11.5146 50.0499C8.24461 49.6099 4.98461 49.1399 1.71461 48.7099C4.70461 47.7199 7.66461 46.6999 10.5746 45.7099C11.2246 43.4899 11.8746 41.2199 12.4846 38.9299C12.9746 37.1699 13.4346 35.3799 13.8946 33.5899C14.2946 35.2699 14.7046 36.9499 15.1446 38.6299C15.6946 40.8399 16.3346 43.0299 16.9346 45.2299C16.9646 45.3399 17.0446 45.4199 17.1446 45.4299C19.3446 45.8099 21.5546 46.1899 23.7446 46.6099C25.6646 46.9599 27.5846 47.3299 29.5046 47.7099C25.0546 48.5999 20.5846 49.4199 16.1146 50.2599C15.9646 50.2899 15.8446 50.4099 15.8246 50.5599C15.3646 54.1099 14.9346 57.6499 14.5146 61.1799C14.1946 59.8499 13.8746 58.5299 13.5546 57.1999C12.9946 54.9299 12.4746 52.6599 11.8946 50.3999L11.9046 50.4099Z" fill="black"/>
<path d="M97.0846 181.76C105.684 181.76 112.655 174.789 112.655 166.19C112.655 157.591 105.684 150.62 97.0846 150.62C88.4856 150.62 81.5146 157.591 81.5146 166.19C81.5146 174.789 88.4856 181.76 97.0846 181.76Z" fill="white"/>
<path d="M98.7029 174.665C95.4138 175.333 92.2049 173.214 91.5364 169.931L90.9414 167.023C90.8144 166.395 91.2155 165.78 91.8506 165.653L101.477 163.688C102.106 163.56 102.721 163.962 102.848 164.597L103.443 167.505C104.111 170.794 101.992 174.003 98.7096 174.671L98.7029 174.665Z" fill="#0ABBEF"/>
<path d="M103.931 167.552L103.543 165.058L103.496 164.744C103.483 164.644 103.47 164.543 103.43 164.383C103.363 164.156 103.256 163.935 103.102 163.755C103.062 163.708 103.022 163.661 102.982 163.621C102.768 163.407 102.5 163.253 102.199 163.173C102.052 163.133 101.899 163.113 101.745 163.113C101.591 163.113 101.417 163.146 101.337 163.16C101.304 163.166 101.277 163.173 101.243 163.18C101.23 163.106 101.217 163.033 101.203 162.959L100.909 161.268C100.816 160.693 100.608 160.131 100.314 159.616C99.7259 158.587 98.7633 157.745 97.6067 157.323C96.4569 156.902 95.1332 156.882 93.9432 157.323C92.7466 157.751 91.7237 158.654 91.102 159.79C90.507 160.92 90.2797 162.304 90.5873 163.547C90.6006 163.621 90.6207 163.688 90.6341 163.761C90.7477 164.289 90.868 164.818 90.9951 165.346C90.8747 165.399 90.7678 165.466 90.6675 165.54C90.4268 165.733 90.2396 165.981 90.126 166.255C90.0123 166.536 89.9789 166.843 90.0123 167.131C90.0391 167.291 90.0658 167.391 90.0926 167.492L90.1728 167.792L90.7945 170.239C91.2023 171.957 92.3254 173.462 93.7828 174.351C94.4045 174.745 95.0931 175.026 95.8017 175.186C96.3566 175.32 96.9315 175.367 97.4998 175.353H97.5332C97.5332 175.353 97.5466 175.353 97.5532 175.353H97.6468C97.7672 175.353 97.8875 175.347 98.0078 175.333C98.0078 175.333 98.4023 175.273 98.4156 175.273C98.4156 175.273 98.5226 175.253 98.6229 175.233C98.6296 175.233 98.6363 175.233 98.6429 175.233C98.6429 175.233 98.6362 175.233 98.6296 175.233C98.7298 175.213 98.8234 175.193 98.8569 175.186C100.428 174.825 101.859 173.856 102.788 172.519C103.784 171.128 104.218 169.31 103.924 167.565L103.931 167.552ZM98.0546 163.755L93.2747 164.704C93.2346 164.443 93.034 163.233 92.9939 162.972C92.7332 161.341 93.9165 159.73 95.4407 159.503C96.1895 159.369 96.9783 159.523 97.6067 159.951C98.2285 160.379 98.6897 161.027 98.8435 161.776C98.9638 162.364 99.0975 162.946 99.2312 163.534C98.8368 163.608 98.4424 163.681 98.0546 163.755Z" fill="black"/>
<path d="M98.8095 170.213L98.756 170.093L98.6557 169.859C98.5287 169.564 98.4017 169.27 98.2881 168.969C98.7025 168.602 98.8496 168.047 98.6958 167.572C98.7761 167.826 98.756 168.114 98.629 168.348C98.5087 168.575 98.3014 168.756 98.0741 168.816L97.9805 168.421L97.5326 168.401C97.3655 168.395 97.1716 168.321 97.0312 168.14C96.8908 167.967 96.8173 167.666 96.951 167.378C97.0713 167.091 97.419 166.85 97.8067 166.877C98.1945 166.897 98.5755 167.178 98.6958 167.572C98.5755 167.184 98.2546 166.857 97.8401 166.717C97.4257 166.576 96.8908 166.65 96.4964 166.997C96.0953 167.332 95.8747 167.953 96.0351 168.535C96.1421 168.969 96.4697 169.35 96.8908 169.558C96.931 169.758 96.9711 169.966 97.0245 170.166L97.0981 170.407L97.1917 170.701C97.3387 171.142 97.8335 171.396 98.2413 171.283C98.6557 171.189 98.9365 170.768 98.863 170.387C98.8429 170.273 98.8229 170.246 98.8095 170.206V170.213Z" fill="black"/>
<path d="M106.395 153.59C109.665 156.03 112.245 159.59 113.125 163.79C114.075 167.95 112.985 172.59 110.295 175.96C107.605 179.36 103.555 181.4 99.4346 181.92C95.3146 182.49 90.9946 181.55 87.4846 179.17C83.9546 176.84 81.3946 172.93 80.7146 168.65C79.9746 164.38 81.0246 159.78 83.6646 156.28C86.2746 152.78 90.3946 150.42 94.6646 150.12C98.9346 149.75 103.115 151.16 106.395 153.59ZM106.275 153.76C103.005 151.31 98.6746 150.61 94.8746 151.48C91.0746 152.36 87.6746 154.52 85.4546 157.6C83.2246 160.65 82.1446 164.55 82.6546 168.35C83.1546 172.14 85.1146 175.75 88.1646 178.25C91.2046 180.75 95.3846 181.93 99.3346 181.25C103.295 180.59 106.755 178.11 108.895 174.93C111.085 171.75 112.115 167.89 111.825 163.98C111.525 160.09 109.585 156.15 106.275 153.76Z" fill="black"/>
<defs>
<linearGradient id="paint0_linear_2014_11546" x1="25.3438" y1="137.71" x2="182.354" y2="137.71" gradientUnits="userSpaceOnUse">
<stop stop-color="#76B82A"/>
<stop offset="0.26" stop-color="#73B42A"/>
<stop offset="0.49" stop-color="#6DA92A"/>
<stop offset="0.72" stop-color="#61972A"/>
<stop offset="0.93" stop-color="#517D2B"/>
<stop offset="1" stop-color="#4C742C"/>
</linearGradient>
</defs>
</svg>
