<svg id="Layer_2" data-name="Layer 2" xmlns="http://www.w3.org/2000/svg" xmlns:xlink="http://www.w3.org/1999/xlink" viewBox="0 0 192.61 195.73"><defs><linearGradient id="_Безымянный_градиент_11" data-name="Безымянный градиент 11" x1=".25" y1="97.58" x2="191.23" y2="97.58" gradientUnits="userSpaceOnUse"><stop offset="0" stop-color="#ee882c"/><stop offset=".16" stop-color="#ef8f28"/><stop offset=".42" stop-color="#f2a51f"/><stop offset=".73" stop-color="#f8c80f"/><stop offset="1" stop-color="#ffed00"/></linearGradient><linearGradient id="_Безымянный_градиент_4" data-name="Безымянный градиент 4" x1="152.55" y1="126.1" x2="189.46" y2="126.1" gradientUnits="userSpaceOnUse"><stop offset="0" stop-color="#0abbef"/><stop offset=".24" stop-color="#0d9acf"/><stop offset=".76" stop-color="#14598e"/><stop offset="1" stop-color="#174075"/></linearGradient><linearGradient id="_Безымянный_градиент_4-2" data-name="Безымянный градиент 4" x1="152.55" y1="159.62" x2="173.71" y2="159.62" xlink:href="#_Безымянный_градиент_4"/><linearGradient id="_Безымянный_градиент_14" data-name="Безымянный градиент 14" x1="129.66" y1="135.97" x2="155.71" y2="135.97" gradientUnits="userSpaceOnUse"><stop offset="0" stop-color="#76b82a"/><stop offset=".58" stop-color="#5b8d2b"/><stop offset="1" stop-color="#4c742c"/></linearGradient><linearGradient id="_Безымянный_градиент_14-2" data-name="Безымянный градиент 14" x1="128.29" y1="111.52" x2="161.75" y2="111.52" xlink:href="#_Безымянный_градиент_14"/><linearGradient id="_Безымянный_градиент_4-3" data-name="Безымянный градиент 4" x1="12.93" y1="155.48" x2="41.78" y2="155.48" xlink:href="#_Безымянный_градиент_4"/><linearGradient id="_Безымянный_градиент_6" data-name="Безымянный градиент 6" x1="6.39" y1="116.66" x2="59.22" y2="116.66" gradientUnits="userSpaceOnUse"><stop offset="0" stop-color="#a25a9f"/><stop offset=".65" stop-color="#693068"/><stop offset="1" stop-color="#501d50"/></linearGradient><linearGradient id="_Безымянный_градиент_4-4" data-name="Безымянный градиент 4" x1="80.79" y1="167.06" x2="116.57" y2="167.06" xlink:href="#_Безымянный_градиент_4"/><linearGradient id="_Безымянный_градиент_4-5" data-name="Безымянный градиент 4" x1="117.53" y1="167.88" x2="155.78" y2="167.88" xlink:href="#_Безымянный_градиент_4"/><style>.cls-11,.cls-12,.cls-13,.cls-19,.cls-4,.cls-6,.cls-7,.cls-9{stroke-width:0}.cls-4{fill:#000}.cls-6{fill:#0abbef}.cls-7{fill:#d2681a}.cls-9{fill:#a25a9f}.cls-11{fill:#f4c6cc}.cls-12{fill:#174075}.cls-13{fill:#501d50}.cls-19{fill:#fff}</style></defs><g id="_Наведение" data-name="Наведение"><g id="_9" data-name="9"><path d="M191.23 97.58c0 52.74-42.75 95.49-95.49 95.49-14.05 0-27.38-3.03-39.4-8.48a94.58 94.58 0 0 1-18.78-11.29h-.02c-1.42-1.1-2.8-2.24-4.15-3.4a95.796 95.796 0 0 1-20.47-24.76C4.86 131.13.25 114.89.25 97.58c0-52.74 42.76-95.5 95.5-95.5 39.82 0 73.95 24.38 88.28 59.03 4.64 11.24 7.21 23.55 7.21 36.47z" style="fill:url(#_Безымянный_градиент_11);stroke-width:0"/><path class="cls-19" d="M191.23 97.58c0 52.74-42.75 95.49-95.49 95.49-14.05 0-27.38-3.03-39.4-8.48l.1-.79L74.95 44.85h3.99l33.7 11.96 2.45-.39 68.92 4.69c4.64 11.24 7.21 23.55 7.21 36.47z"/><path class="cls-19" d="M183.75 92.43c0 .13-.33 1.39-.82 2.09-.49.7-1.8.8-1.8.8l-2.2 7.56s.05 1.32 0 1.41c-.06.1-1.75.89-6 .85-3.06-.03-3-1.49-2.73-2.31.11-.33.25-.55.25-.55l.54-2 .03-.28-.59-.4s-1.73-1.37-2.3-1.76c-.57-.4-1.11-1.79-1.59-3.24-.49-1.45-.61-4.83-.62-5.42-.01-.59.35-2.63.35-2.63l3.55-7.82 4.33.8 1.66.3 6.68 9.91.18-.03c.17-.03.56.24.56.24s.2.3.43 1.08c.23.79.11 1.27.11 1.4z"/><path class="cls-11" d="M175.86 100.12c-.69.82-1.52 1.52-2.44 2.08-.86.52-1.86.93-2.84.74-.13-.03-.26-.06-.39-.1.11-.33.25-.55.25-.55l.54-2 .03-.28-.59-.4s-1.73-1.37-2.3-1.76c-.57-.4-1.11-1.79-1.59-3.24-.49-1.45-.61-4.83-.62-5.42-.01-.59.35-2.63.35-2.63l3.55-7.82 4.33.8-.37.37c-.8.81-1.52 1.7-2.15 2.66-.2.31-.4.63-.47 1-.06.33-.01.67.03 1l.33 2.35c.28 2.04.51 4.33-.72 5.98.49-.06.82.52.83 1.01 0 .5-.15 1-.02 1.47.13.45.49.78.65 1.22.17.45.09.95.17 1.42.13.82.77 1.53 1.57 1.76.8.23 1.71-.05 2.26-.68.12.37-.13.75-.38 1.05z"/><path d="m189.46 110.39-3.58 20.23-9.66 18.98-8.64 1.76-11-1.94s-.04-.06-.11-.16c-.55-.84-3.04-4.59-3.04-4.98 0-.43-.88-21.08-.88-21.08l7.98-15.94 1.58-2.38 1.81-.13 3.59-.26s1.49-2.59 2.11-3.04c.62-.45 1.14-.59 1.14-.59v.23s-.75 3.09 1.39 3.56c2.14.47 4.38-.21 5.01-.39.64-.18 1.42-.73 1.42-.73l.71-1.81s.55-.12 1.27 1 1.09 2.1 1.09 2.1v.59l7.81 4.98z" style="fill:url(#_Безымянный_градиент_4);stroke-width:0"/><path class="cls-12" d="M164.15 111.13c-.13 1.19-.25 2.39-.37 3.58-.51 4.98-1.16 10.3-4.42 14.1-.17.2-.36.42-.35.68.02.45.6.67.72 1.11.1.34-.1.68-.25 1.01-.31.71-.35 1.49-.39 2.27-.25 4.95-.5 9.95.31 14.85-.98.21-1.96.39-2.95.53-.55-.84-3.04-4.59-3.04-4.98 0-.43-.88-21.08-.88-21.08l7.98-15.94 1.58-2.38 1.81-.13c.12 1.37.03 2.77-.26 4.11.6.54.57 1.47.49 2.27z"/><path class="cls-19" d="m129.81 110.39-1.42 15.6-1.16 11.72-.14 1.45s-.13 1.28-.39 2.2c-.26.91-1.43 1.46-2.19 1.73-.75.28-4.38.49-5.05.47-.26-.01-.88-.23-1.52-.49h-.03c-.96-.39-1.96-.86-1.96-.86l-.45 2.46v2.52s.28.99.43 1.07c-.75-.14-24.71-3.97-24.71-3.97l-3.61 8-.79 3.82-.84 4.05s-.88-.04-1.97-.18c-1.1-.14-3-.91-3.07-.95-.08-.03-.27-.13-.31-.77-.04-.64.4-1.26.4-1.26l-.48-3.98s-.24-2.84-.23-3.52c0-.68.5-3.76.5-3.76s.6-3.58.84-4.95c.23-1.37.39-3.99.39-3.99s.06-.71.16-1.06c.1-.36 1.43-.78 1.43-.78s-.3-.89-.3-1.17c0-.14.26-.5.52-.84.28-.35.55-.67.55-.67s-.5-.65-.42-.88c.08-.22-.35-1.82-.3-2.44.06-.62 1.97-11.89 1.97-11.89s.66-3.53.95-5.05c.14-.7.46-2.07.76-3.35.35-1.48.69-2.83.69-2.83s1.25-3.11 1.45-3.47c.2-.37.49-.35.49-.35l.15-1.04.33-2.32s.2-.84.5-1.37c.3-.54 8.16-1.61 8.16-1.61l5.43-.89 7.46 1.95 8.52 2.22s.93.69 2.04 1.51c1.34 1 2.95 2.2 3.53 2.62 1.05.77 2.96 3.09 3.36 3.61s.33 3.72.33 3.72z"/><path class="cls-6" d="M122.59 100.44c-.53 1.07-1.44 1.97-2.36 2.76a42.234 42.234 0 0 1-5.34 3.97c-.31.2-.65.39-1.02.39s-.7-.19-1.01-.38l-1.56-.93c-.1-.06-.21-.12-.32-.11-.13 0-.23.08-.32.16-1.47 1.15-3 2.2-4.6 3.14-.59.35-1.37.67-1.91.26-.26-.2-.38-.52-.5-.83-.86-2.35-1.56-4.84-1.25-7.33-.41-.19-.81-.4-1.2-.64-.13-.08-.28-.18-.3-.33-.02-.14.07-.28.15-.39l2.34-3.21 8.64-.25 8.52 2.22s.93.69 2.04 1.51z"/><path class="cls-19" d="M157.01 93.1s-3.34 6.72-3.42 6.82c-.07.1-3.7 3.4-3.7 3.4l-8.35-1.68s-2.82-3.06-2.82-3.12c.01 0-.08-.6-.23-1.51-.47-2.95-1.5-9.2-1.5-9.2l1.73-8.34 8.61.06h1.42l5.56 1.8 2.72 11.77z"/><path class="cls-11" d="M142.41 82.54c-.17.25-.13.57-.08.86.29 1.66.76 3.41.13 4.97-.16.38-.38.74-.44 1.16-.06.41.11.89.51 1.02-.15.69-.3 1.44-.03 2.1.06.14.14.28.14.43.01.15-.04.29-.09.43-.3.91-.36 2.01.28 2.73.68.76 1.83.79 2.85.77a6.121 6.121 0 0 1-2.34 2.79c-.28.18-.6.34-.93.26-.18-.04-.33-.16-.49-.27-1.18-.88-2.37-1.78-3.44-2.79-.47-2.95-1.5-9.2-1.5-9.2l1.73-8.34c1.08-.75 2.39-1.18 3.71-1.36.96-.13 1.97-.12 2.84.31.68.34 1.26.93 2.01 1.03l.04.09.96 1.88c-.68.52-1.56.71-2.41.76-.85.04-1.71-.03-2.56.01-.34.01-.72.08-.91.35z"/><path d="M156.01 146.88s.8.88 2.97 1.04c2.17.17 6.97.1 7.18.09s1.71.02 1.71.02l.29.95 5.55 1.76-6.1 8.58s-2.27 1.37-2.29 1.26-.83-3.72-.83-3.72-1.19 5.62-1.36 7.09l-10.58 8.41s.52-16.65.62-17.02" style="fill:url(#_Безымянный_градиент_4-2);stroke-width:0"/><path d="M155.71 143.71v7.1l-6.1 1.17-16.34-4.37-3.6-.73.91-2.29.09-.21.06-.16s.59-2.26 1.07-3.1c.48-.84.82-4 .82-4s.16-1.02.38-1.25c.21-.23.57-2.24.57-2.24l-.93-.48-.23-6.53.98-.64 9.29-6.03 12.78 7.88-1.22 8.04s.15.68.71 2.29c.56 1.61.76 5.54.76 5.54z" style="fill:url(#_Безымянный_градиент_14);stroke-width:0"/><path d="M161.75 110.95c0 .7-.55 4.03-.55 4.03s-.96 4.91-1.38 5.64c-.42.73-1.5 2.68-1.5 2.68l-7.58-2.95-.85 1.95s-1.73-.04-3.1-1.05-2.62-1.68-2.62-1.68l-1.49.38-11.25 2.89-2.1-7.28s.26-6.06.3-7.13c.03-1.06-.15-1.76-.15-1.76l-1.18-1.54 2.02-.58.57-.64 1.52-.49 10.64-3.69s-.57.86 0 1.34c.58.47 1.56.62 1.56.62l5.37.22 1.16-.28h.33l2.66 1.49s.1 2.94-.09 4.27c-.2 1.33-.47 1.51-.47 1.51s.23.84 1.03.76c.79-.08.9-.12.9-.12l.47-.15s.42.49 1.07.29c.66-.2.74-.28.74-.28l.33-.26s-.06.16.8.14c1.01-.03 1.24-.15 1.24-.15l.49.55.3.7.54-.7s.25.55.25 1.26z" style="stroke-width:0;fill:url(#_Безымянный_градиент_14-2)"/><path class="cls-11" d="M112.74 135.12c-.28.57-.61 1.15-.96 1.67v.01c-.83 1.23-1.83 2.1-2.87 1.63-.91-.43-1.87-1.11-2.49-1.59-.39-.3-.64-.51-.66-.52-.05-.03-3.7-1.06-3.84-1.11-.14-.04-2.65-1.2-2.85-1.69-.19-.5-1.13-1.71-.57-1.89.57-.18.73-.04.73-.04l1.18.06s-.05-.04-.13-.11c-.31-.28-1.13-.98-1.7-1.49l-.01-.01c-.35-.3-.61-.53-.62-.54 0-.05.36-1.85.36-1.85l-.3-.31-.13-.13-.84-.88.94-2.65.37.06 8.03 1.35.45.08 3.57-.09.09.09c.11.13.24.31.25.36.03.06 2.12 5.5 2.12 5.5l.22 1.01s.63 1.17-.33 3.09z"/><path class="cls-19" d="M112.74 135.12c-.28.57-.61 1.15-.96 1.67.04-.45.13-.89.18-1.33.32-2.7-.54-5.38-1.48-7.92-.13-.37-.27-.74-.48-1.07a.432.432 0 0 0-.18-.2c-.08-.05-.18-.06-.26-.07-1.03-.09-2.07-.19-3.11-.28l-.09-.84.45.08 3.57-.09.09.09c.11.13.24.31.25.36.03.06 2.12 5.5 2.12 5.5l.22 1.01s.63 1.17-.33 3.09zM100.39 128.64c-.41-.47-1-.7-1.59-.94a5.46 5.46 0 0 1-.81-.38c-.11-.06-.21-.12-.3-.2l.18.06-.84-.88.94-2.65.37.06.38 1.25c-.13.28-.21.6-.16.91.06.27.22.5.38.73.49.67.97 1.35 1.46 2.03z"/><path class="cls-19" d="M100.94 131.73c-.51-.42-1.02-.84-1.57-1.2-.27-.17-.55-.33-.81-.5l-.01-.01c-.35-.3-.61-.53-.62-.54 0-.05.36-1.85.36-1.85l-.3-.31c-.11-.06-.21-.12-.3-.2l.18.06.93.36c0 .05.01.1.01.15.03.38-.16.77-.11 1.15.04.38.31.69.56.97.56.64 1.13 1.28 1.69 1.92zM107.32 137.03c-.3-.08-.6-.14-.91-.2-.39-.3-.64-.51-.66-.52-.05-.03-3.7-1.06-3.84-1.11-.14-.04-2.65-1.2-2.85-1.69-.19-.5-1.13-1.71-.57-1.89.57-.18.73-.04.73-.04l1.18.06s-.05-.04-.13-.11l.28.11c-.34.21-.68.43-1.02.65-.03.02-.06.04-.08.08-.02.05.01.11.05.15 1.12 1.49 2.97 2.28 4.82 2.52.24.03.48.05.7.14.27.11.5.3.71.49.53.46 1.06.91 1.59 1.37zM122.36 83.79c-.27 1.01-.46 1.61-1 2.24-.54.62-2.01.66-2.01.66s-.79 3.29-.81 3.36-.16 2.25-.16 2.25 0 .81-.26 1.17c-.26.36-3.52 1.86-3.52 1.86s-5.29 3.37-5.49 3.19c-.2-.18.09-3.28.09-3.4 0-.03.03-.2.06-.47.14-1.03.45-3.44.45-3.44s-.79-.51-1.87-1.34c-1.08-.83-.84-1.29-1.52-3.53s-.25-6.41-.25-6.41.1-1.35.2-2.26c.1-.91 1.22-4.11 1.22-4.11l.29-1 .45-1.57 3.2-2.84 8.49 7.79s-.9 1.86-1.1 2.77.33 1.74.33 1.74.57-.48 1.29-.79 1.46.51 1.68.98c.23.47.49 2.14.21 3.15z"/><path d="m41.78 143.27-.33 1.22-.66 8.42s-1.03 8.4-1.3 10.09c-.27 1.68-1.41 7.84-1.41 7.84l-.51 2.46h-.02l-4.15-3.4a95.796 95.796 0 0 1-20.47-24.76c.26-.75.46-1.32.54-1.5.34-.73 2.48-5.4 4.11-5.98l24.2 5.62z" style="fill:url(#_Безымянный_градиент_4-3);stroke-width:0"/><path d="M59.22 114.25s-.5.27-1.32.64c-.78.36-1.85.81-3.02 1.19-.04.01-.08.03-.13.04-1.09.37-2.27.68-3.4.82h-.03c-.05 0-.09.01-.14.02-2.64.29-3.68.17-4.05.08-.06-.02-.11-.03-.14-.04l-.06-.03s-.2.29-.33.49c-.14.19-2.41 2.49-2.41 2.49s-.04 1.83-.02 3.72v.04c0 .37.01.73.02 1.09 0 .28-.02.62-.06 1.02-.04.42-.11.89-.2 1.39v.03c-.03.21-.07.42-.11.64-.5 2.63-1.3 5.64-1.3 5.64l.94.91-.94 1.02v8.11s-3.6.67-8.68 1.07-6.39-.42-6.7-.13c-.15.14-1.37-.49-2.8-1.31-1.37-.79-2.92-1.77-3.89-2.42-2.01-1.34-3.88-3.53-3.88-3.53l1.9-4.51.06-.14 1.56-3.61-1.01-.89s.47-1.69.5-1.92c.03-.23-.17-10.92-.18-11.64v-.04l-.16-2.7-1.25 2.98-.07.16-.89-.05s-.06-.01-.1-.01l-1.12-.06s-.28-.09-.74-.23h-.03c-.74-.22-1.94-.54-3.25-.82-.66-.14-1.37-.44-2.05-.8-.01 0-.03-.02-.04-.03-.47-.25-.92-.52-1.32-.77-.02-.01-.03-.03-.05-.03 0 0-.02 0-.03-.01-.49-.32-.89-.62-1.16-.82l-.34-.26s-.45-.24-.37-1.29c0-.04.01-.09.03-.14.29-1.41 2.93-7.19 2.93-7.19s5-9 6.26-9.76c1.25-.76 11.84-4.06 11.84-4.06h.37l1.82.04 1.01.02 10.24.19 2.1.04 2.16 1.15.13.07c.23.09.49.21.74.33 3.36 1.61 8.5 5.44 8.5 5.44s1.6 5.47 2.02 7.11c.31 1.25 1.69 7.13 2.34 9.88.2.87.33 1.42.33 1.42z" style="fill:url(#_Безымянный_градиент_6);stroke-width:0"/><path class="cls-13" d="M31.07 89.61c-.09.58-.77.83-1.35.96-2.75.66-5.49 1.39-8.18 2.29-1.01.35-2.06.73-2.82 1.49-.53.52-.88 1.19-1.23 1.85-1.83 3.48-3.7 7.06-4.18 10.95-.14 1.16-.15 2.37.31 3.45.29.67.76 1.25 1.27 1.79.89.93 1.93 1.73 3.06 2.36l-.07.16-.89-.05s-.06-.01-.1-.01l-1.12-.06s-.28-.09-.74-.23H15c-.74-.22-1.94-.54-3.25-.82-.66-.14-1.37-.44-2.05-.8-.01 0-.03-.02-.04-.03-.47-.25-.92-.52-1.32-.77-.02-.01-.03-.03-.05-.03 0 0-.02 0-.03-.01-.3-.25-.6-.51-.88-.78-.01-.01-.03-.03-.04-.03-.39-.38-.77-.81-.88-1.34a1.42 1.42 0 0 1-.04-.36c.29-1.41 2.93-7.19 2.93-7.19s5-9 6.26-9.76c1.25-.76 11.84-4.06 11.84-4.06h.37l1.82.04c.1-.23.04-.46-.1-.66.37.14.72.34 1.03.62.03.03.05.04.08.07.27.26.49.6.43.98zM59.22 114.25s-.5.27-1.32.64c-.78.36-1.85.81-3.02 1.19-.04.01-.08.03-.13.04-1.09.37-2.27.68-3.4.82h-.03c-.05 0-.09.01-.14.02-2.64.29-3.68.17-4.05.08-.06-.02-.11-.03-.14-.04.31-.45.59-.91.83-1.4.72-1.39 1.23-2.89 1.48-4.43.37-2.32.18-4.74-.57-6.97-.04-.14-.09-.28-.14-.43l.43-.47c.28.3.51.66.73 1 .46.73.92 1.46 1.35 2.21.5.84.96 1.71 1.24 2.65.28.93.37 1.94.12 2.89-.03.14-.08.28-.03.42.08.24.38.31.62.34 1.47.18 2.95.19 4.43.12.47-.02.94-.04 1.42-.08.2.87.33 1.42.33 1.42z"/><path class="cls-19" d="M29.63 88.61c-.13.27-.44.4-.73.5-3.38 1.15-6.77 2.31-10.15 3.46-.85.29-1.72.59-2.43 1.13-.54.41-.98.94-1.37 1.49-.87 1.18-1.63 2.44-2.32 3.73a57.57 57.57 0 0 0-4.97 12.37h-.31l-.24-.01-.34-.26s-.45-.24-.37-1.29c0-.04.01-.09.03-.14.29-1.41 2.93-7.19 2.93-7.19s5-9 6.26-9.76c1.25-.76 11.84-4.06 11.84-4.06h.37l1.82.04z"/><path class="cls-19" d="M43.57 79.84c-.39.47-1.81 1.45-1.81 1.45l-.98 6.65.55.23 1.65.69s-.71.53-1.05.72c-.03.01-.06.03-.09.05-.43.23-1.56.74-3.63 1.47-2.26.8-5.05.31-6.75-.14-.41-.11-.84-.3-1.25-.54-.62-.36-1.22-.81-1.66-1.19-.35-.29-.6-.54-.73-.66l-.08-.08s.94-.28 1.82-.53h.03c.73-.21 1.41-.38 1.49-.37.09.03.14-.53.17-1.05.02-.45.02-.87.02-.87l.8-4.56s-.63-.55-.99-.86c-.36-.31-1.44-1.56-1.44-1.56l-1.9-2.65c-1.3-1.97 1.63-12.89 1.63-12.89l10.64-5.98s.21.21.58.57c1.63 1.63 6.21 6.37 7.5 9.46 1.57 3.78-4.11 12.16-4.5 12.64z"/><path class="cls-11" d="M38.99 82.45c-1.93 2.3-4.77 3.79-7.75 4.1.02-.45.02-.87.02-.87l.8-4.56s-.63-.55-.99-.86c-.36-.31-1.44-1.56-1.44-1.56l-1.9-2.65c-1.3-1.97 1.63-12.89 1.63-12.89L40 57.18s.21.21.58.57c-.89 2.3-2.39 4.35-4.3 5.89-.14.11-.3.23-.35.4-.05.13-.04.26-.03.4.13 1.54.54 3.05.59 4.59.04 1.54-.37 3.21-1.55 4.2.38.26.8.48 1.23.64-.22 1.03-.24 2.1-.26 3.16-.01.66-.03 1.33-.04 2 0 .42-.01.86.08 1.27.29 1.34 1.69 2.33 3.04 2.15z"/><path d="M43.56 79.18s2.29.37 2.86 0 .68-.73.68-.73.38 1.72 1.4 1.03 1.24-1.47 1.24-1.47.42 1.85 1.38 1.06 1.04-1.56 1.04-1.56 1.94 1.86 2.56 1.07.64-1.07.64-1.07-1.57-4.97-1.75-9.07-.69-8.79-1.77-10.54c-1.07-1.76-2.67-3.42-4.6-4.49s-5.89-1.94-8.02-1.47-5.86 1.56-9.13 5.47c-3.27 3.91-5.02 7.68-5.36 8.62s-1.29 3.76-1.77 4.99-2.8 3.51-3.5 3.34 1.34 1.92 1.5 1.92 2.2-.54 2.2-.54-.37 2.46.92 2.01 1.62-.9 1.62-.9l.94 1.12 1.77-.2.71.48s-.16-2.11-.24-3.9.5-6.76 2.22-8.66 3.82-3.6 3.82-3.6 2.25-1.59 3.13-2.12 2.15-1.56 2.15-1.56.12.37-.15 1.08-.85 2.4.31 4.43 3.1 4.14 3.1 4.14 2.32 2.65 2.41 4.03c.1 1.38.06 2.17.06 2.17s-.65 2.22-1.17 2.84-1.41 1.65-1.41 1.65l.25.55" style="fill:#ffed00;stroke-width:0"/><path class="cls-11" d="m63.85 128.54-.82 6.17-.32 2.41-3.71-2.86-7-5.54-1-3.19-2.34-8.37c1.21.43 7.27-1.37 7.27-1.37l.18.62 2.05 7.31s2.49 1.78 2.95 2.13c.47.35 2.74 2.69 2.74 2.69z"/><path class="cls-19" d="m63.85 128.54-.82 6.17c-1.08-.52-2.14-1.09-3.18-1.69-1.88-1.09-3.75-2.36-4.95-4.17-1.45-2.19-1.78-4.9-2.06-7.51-.02-.17-.04-.35.03-.5.06-.14.18-.23.3-.33 1.31-1.09 2.33-2.51 2.94-4.1l2.05 7.31s2.49 1.78 2.95 2.13c.47.35 2.74 2.69 2.74 2.69z"/><path class="cls-11" d="m17.24 114.91-.28.7-1.17 2.9s-2.34 5.72-2.41 6.59c-.06.87.03 4.02.03 4.02s-.3 5.44-.6 8.38c-.31 2.94-.96 6.26-.96 6.26l-4.26-9.49-1.98-4.4s.87-6.34 1-7.26c.13-.92.83-5.62.83-5.62l.94-5.03s2.27 1.9 3.75 2.15c1.47.25 5.12.8 5.12.8z"/><path class="cls-19" d="M13.37 125.09c-.06.87.03 4.02.03 4.02s-.3 5.44-.6 8.38c-.31 2.94-.96 6.26-.96 6.26l-4.26-9.49c.24-5.84.96-11.78 3.62-16.97 2.03.09 4.09-.52 5.76-1.69l-1.17 2.9s-2.34 5.72-2.41 6.59z"/><path class="cls-13" d="M25.88 114.4c3.7.95 7.8.17 10.89-2.06-.05.42-.24.81-.45 1.17a7.746 7.746 0 0 1-4.39 3.47c-2.11.64-4.53.31-6.31-1-.76-.56-1.66-1.95-1.97-2.85.49.25 1.3 1.03 1.85 1.05l.37.22zM29.73 131.82c-1.08.49-2.33.31-3.47.01-1.4-.36-2.76-.87-4.05-1.52a21.17 21.17 0 0 0 1.87 4.04c-.98-.34-1.85-.96-2.49-1.76-.34 1.52-.68 3.04-1.01 4.56-.08.31-.14.64-.09.96s.21.61.38.88c1.07 1.7 2.56 3.14 4.29 4.16-.28.04-.56.06-.83.04-1.37-.79-2.92-1.77-3.89-2.42-2.01-1.34-3.88-3.53-3.88-3.53l1.9-4.51.06-.14 1.56-3.61-1.01-.89s.47-1.69.5-1.92c.03-.23-.17-10.92-.18-11.64.66 3.58 1.25 7.17 1.78 10.77.04.29.09.59.21.85.15.31.4.55.65.78 2.24 2.09 4.88 3.76 7.72 4.9zM39.08 130.3v.05a.922.922 0 0 1-.05-.08l.06.03z"/><path class="cls-13" d="M44.12 125.82c-.04.42-.11.88-.2 1.38v.03c-.03.21-.07.42-.11.64-.5 2.63-1.3 5.64-1.3 5.64l.94.91-.94 1.02v6.75c-.4-1.58-.79-3.16-1.18-4.74-.08-.32-.17-.66-.38-.92-.18-.22-.44-.37-.69-.51-1.06-.6-2.17-1.25-2.74-2.32.95.07 1.88.25 2.78.55-.72-1.2-1.47-2.54-1.22-3.91.45.81 1.09 1.52 1.85 2.06 1.32-2.06 2.27-4.33 3.19-6.59z"/><path class="cls-9" d="M23.14 112.46c.66 1.16 1.73 2.05 3.02 2.38 1.09.28 2.22.34 3.43.27 1.71-.09 3.37-.62 5-1.16.57-.19.81-.66 1.28-1.03-1.37.58-2.58.92-4.07.93-2.5.03-5.04-.05-7.43-.79-.44-.14-.89-.3-1.24-.6z"/><path class="cls-19" d="M48.72 104.6c.7 2.16.79 4.5.4 6.74s-1.24 4.38-2.37 6.36c-.46.81-1.04 1.65-1.92 1.94-.13.04-.28.08-.35.2-.05.07-.05.16-.06.25-.2 2.77-.39 5.54-.59 8.32-.19-3.12-.38-6.24-.8-9.34-.02-.17-.05-.35 0-.51.06-.19.22-.33.37-.47 3.8-3.46 5.83-8.77 5.31-13.89v.41zM40.12 92.73c.09 0 .18-.01.27-.02-.22.07-.43.14-.66.2l.38-.18z"/><path class="cls-9" d="M46.02 90.4c-.15.23-.33.43-.52.62-.48.47-1.08.84-1.7 1.08-1.08.42-2.25.53-3.41.61 1.5-.47 3-1.05 4.15-2.09.15-.13.29-.26.43-.42.06-.06.12-.13.18-.2l.13.07c.23.09.49.21.74.33z"/><path class="cls-19" d="M59.22 114.25s-.5.27-1.32.64c-.16-.66-.29-1.32-.42-1.98-.69-3.53-1.12-7.12-1.92-10.63-.67-2.94-1.7-5.98-4-7.92-.68-.58-1.46-1.04-2.24-1.47-1.24-.69-2.51-1.31-3.81-1.86-.31-.14-.64-.28-.96-.4-.89-.36-1.79-.69-2.7-.98-.42-.14-.83-.26-1.25-.39l.3-.42.45-.66 1.65.69 2.16 1.15.13.07c.23.09.49.21.74.33 3.36 1.61 8.5 5.44 8.5 5.44s1.6 5.47 2.02 7.11c.31 1.25 1.69 7.13 2.34 9.88.2.87.33 1.42.33 1.42z"/><path class="cls-11" d="M112.66 91.92a8.894 8.894 0 0 1-3.38 2.73c.14-1.03.45-3.44.45-3.44s-.79-.51-1.87-1.34c-1.08-.83-.84-1.29-1.52-3.53s-.25-6.41-.25-6.41.1-1.35.2-2.26c.1-.91 1.22-4.11 1.22-4.11l.29-1 .35-.04c1.39 1.71 2.29 3.82 2.58 6.02.07.52.11 1.04.03 1.56-.17 1.03-.79 1.93-1.39 2.79l.84.69c.07.06.14.11.17.2.03.09.01.19-.01.28-.14.59-.42 1.15-.43 1.75-.02.6.33 1.28.93 1.35-.84.71-1.17 1.98-.77 3.01.39 1.03 1.47 1.76 2.57 1.74z"/><path d="M125.58 77.22c-.06.2-1.05 2.3-1.68 3.24-.28.42-.57.72-.79.91-.28.25-.47.34-.47.34s-.31-.75-.96-1.25c-.64-.51-2.72-.37-2.72-.37s-.34-.23-.57-1.18c-.23-.96 1.56-2.95 1.56-2.95s-.93-.28-3.82-1.23c-2.9-.94-4.51-5.61-4.51-5.61l-3.7 4.23-.02.03-.18.21s-.45-.08-.7-.12c-.04 0-.11-.03-.21-.07-.43-.16-1.32-.64-2.24-1.47-1.12-1-.97-3.54-.97-3.54l2.97.26s-.12-.04-.27-.48c-.14-.45-.01-2.54.26-2.72.27-.17 10.41 1.9 10.41 1.9l1.42-.04s2.18.57 2.84.86c.66.3 2.86 2.44 3.17 2.85.32.42 1.46 2.34 1.61 2.82.16.47-.37 3.19-.44 3.39z" style="fill:#ee882c;stroke-width:0"/><path class="cls-13" d="M109.39 92.9c-.01-.25-2.78-.09-3 .42-.11.26-1.75 1.68-1.75 1.68l-2.82 3.3 2.31 1.17 1.04-.13s-.24 3.65.07 4.87c.31 1.22.92 2.18.92 2.18l5.54-3.33s1.29 2.23 1.5 2.34 1.82-1.03 1.99-1.19 6.77-7.17 6.84-7.33-.02-1.33-.32-1.88c-.31-.55-1.34-1.9-1.34-1.9l-1.97-1.89-.28 2.25-7.21 4.11-1.8.95.09-3.4.17-2.22z"/><path d="m98.19 121.63 6.68-.91.61.91 1.07 2.74.41 1.51-.59 2.81s-3.11-.43-4.97-1.6-2.94-1.84-2.94-1.84l-.85-3.16.57-.47z" style="fill:#cbcbcb;stroke-width:0"/><path class="cls-11" d="m85.57 160.15-.88 5.83-.67 2.75c0-.06-.7-.25-.7-.25l.43 1.74-.06 1.4c0 .02-1.96 0-1.96 0l-.42.55s-.59 0-.89-.23c-.25-.2-.73-.71-.88-.87l-.04-.04s-.38 1.25-.77 1.14c-.38-.11-1.39-.3-1.4-1.27-.02-.98-.36-5.49.17-6.72.54-1.23 1-1.85 1-1.85l2.21-2.92.08-.25s.29.1.71.22c.56.16 1.36.38 2.05.5 1.2.21 2.02.25 2.02.25z"/><path class="cls-19" d="M79.56 170.48c.03.2.03.4-.01.6l-.04-.04s-.38 1.25-.77 1.14c-.38-.11-1.39-.3-1.4-1.27-.02-.98-.36-5.49.17-6.72.54-1.23 1-1.85 1-1.85l2.21-2.92.08-.25s.29.1.71.22c-1.85 2.83-3.32 6.02-3.53 9.41-.03.5-.03 1.01.1 1.5.1.38.37.8.76.77.33-.02.55-.32.72-.6z"/><path class="cls-19" d="M79.57 163.69c-.17.38-.19.8-.21 1.21-.03.79-.06 1.59.04 2.38.05.42.17.87.52 1.11.23.15.53.18.81.19.11 0 .22 0 .32-.03.26-.07.43-.31.56-.55.31-.58.48-1.23.48-1.89 0 .37-.18.71-.4 1-.23.3-.58.59-.95.51-.21-.05-.39-.21-.5-.4s-.16-.41-.2-.62c-.24-1.26-.22-2.57.06-3.82l-.54.92z"/><path d="M115.22 175.08c-.46 3.74-.81 6.2-.81 6.2l-1.43 8.43-4.01 1.64h-9.44s.54-8.63.58-9.69c.04-1.06.19-9.83.19-9.83l-.3-3.96v-.01l-.06-.87-1.01 2.54s-3.8 11.69-4.73 13.5c-.93 1.81-2.56 8.64-2.56 8.64s-3.2-.16-6.12-.33c-2.46-.14-4.73-.29-4.73-.36.04-.15-.06-2.88.1-3.8.16-.93.62-2.49.72-2.85.11-.35.66-2.27.87-3.29.21-1.02 1.66-12.81 1.66-12.81l2.61-12.67 3.53-13.11s1.75 1.37 3.46 1.63c.68.1 1.39.14 1.99.16.93.03 1.64 0 1.71.05.12.07 10.31 2.36 10.31 2.36s5.99.68 6.29.7c.29.02 1.46-.16 1.46-.16s1.04 3.39 1.08 5.12c.04 1.73-.89 19.05-1.35 22.78z" style="fill:url(#_Безымянный_градиент_4-4);stroke-width:0"/><path d="M155.74 154.35c-.09 1.78-.86 7.36-.86 7.36l-2.39 10.95s-3.17 2.92-6.51 5c-3.15 1.97-6.48 3.1-6.58 3.1.03-.14.54-15.02.67-18.64.01-.5.03-.79.03-.79l-1.86 2.51-7.81 10.49-3.48 5.01.42 6.77s-1.57-.1-3.03.81c-2.35 1.46-5.9 2.04-5.91 1.95 0-.16-.9-10.41-.9-10.41l5.36-16.74 5.54-11.75 1.35-3.07 2 .37c1.56.29 3.6.7 4.55.98 1.63.49 7.61 1.06 7.61 1.06s4.38 1.17 5.84 1.37c1.46.2 5.93.15 5.93.15s.13 1.76.03 3.53z" style="fill:url(#_Безымянный_градиент_4-5);stroke-width:0"/><path class="cls-11" d="M136.9 99.47c-.07-.11-3.32.94-3.68 1.61s-.4.82-.4.84-1.21.53-1.21.53-.39.87-.32 1.52.02.84.32.83 1-.28 1-.28.84.44 1.47.12.87-.85.87-.85.74.05 1.13-.1.9-.8.9-.8.5.05.71-.12.47-1.06.47-1.05.1-.63.1-.63l-.83-.91"/><path class="cls-7" d="M189.03 88.65s-1.04.73-2.02 1.17c-.99.43-2.87.27-2.87.27h-.02l-.91-.15s-.12-.11-.56-.24c-.44-.13-.52.39-.52.39l-.69-.04s-1.07-.06-1.8 0-2.03-.52-2.92-1.01c-.88-.49-1.64-3.57-1.64-3.57l-1.12-5.93-.77-.08s-1.06.09-1.34.09-1.02.38-1.46.66c-.43.28-1.38 2.06-1.71 2.73-.34.67-2.31 3.26-2.37 3.43-.08.16-1.8.97-1.86 1-.05.02-1.06 0-1.76-.67s-.03-1.47-.03-1.47l-.57-.76s-.04-.07.38-.2.84-.64 1.24-1.21 1.39-3.4 1.39-3.4.98-1.7 1.7-2.71c.73-1.01.89-.77 1.61-1 .72-.23 3.72.28 3.72.28l.42.03h.11l.11-.15 2.22-1.01s.69-.23 1.26-.37c.56-.14 1.95-.1 2.53-.01.59.08 2.74.86 4.16 1.75s1.83.89 2.24 1.57c.41.69.61 2.86 1.29 5.26s.93 3.6 1.18 4.27c.25.67 1.34 1.1 1.34 1.1zM162.58 106.14c.01.16-.03.42-.09.71-.19.88-.62 2.09-.62 2.09l-.61 1.31-.28.2-.7-1.18s-.58.11-1.3.09c-.72-.02-.84-.08-.84-.08s-.95.67-1.32.55c-.37-.12-.47-.13-.47-.13l-.38-.29s-1.98.38-2.11.03c-.13-.37-.23-.49-.23-.49s.36-1.45.49-2.14c.13-.69.03-2.6.03-2.6l-.21-.98-2.65-1.68-.17.09-.54.16.17-1.02s-.21-3.46.25-4.92c.45-1.46.65-2.34.65-2.34s1.48.29 2.18-.45c.69-.75 1.32-2.05 1.05-2.94-.27-.9-.67-1.3-.74-1.38-.08-.08-.71-.7-1.14-.66-.43.04-.89.18-1.03.35-.14.16-.23.33-.23.33v-.93s-.33-2.43-.08-3.07c.25-.64.76-2.39.76-2.39s-1.74-.06-2.02-.1c-.28-.04-4.51-1.36-5.23-1.61-.72-.25-3.44-.64-4.14-.25-.69.39-2.15 1.7-2.15 1.7l-.8 1.11-.48 2.89s-.53 5.33.85 7.29c1.38 1.97 2.14 2.8 2.99 3.14.84.35 1.92.61 1.92.61l-.28 2.39-.06.37s-.52-.05-1.05.2c-.54.25-1.62 1.27-1.62 1.27l-1.49-.3s-.4.33-.43.3c-.03-.02-.95-1.03-1.61-2.03-.2-.31-.38-.61-.5-.88-.5-1.15-1.3-3.23-1.55-6.3s-.47-8.18.33-9.72c.79-1.53 2.21-3.61 2.33-3.77s3.94-5.57 7.19-5.23c3.25.33 4.96 1.51 4.96 1.51s2.62 1.44 3.07 1.76c.45.32 1.22.94 1.22.94l.79.77.25.39.07.11h.53s.09.02.23.09c.38.17 1.13.66 1.6 1.93.65 1.75 1.12 3.8 1.12 3.8s.93 7.94 1.1 9.51c.16 1.57.83 4.11.75 4.54-.08.43.91 4.24 1.44 5.42.53 1.18.79 1.26.83 1.91z"/><path class="cls-19" d="M158.29 123.66s-.67 1.29-.87 1.63c-.2.34-2.51 4.4-4.86 5.96-2.36 1.57-2.96 3.29-7.52 1.13s-6.77-4.15-6.77-4.15-2.61-1.75-2.74-2.32l-.26.06-3.33.79-.9.21-2.65.4.2-2.99.26-3.91.26-2.49.26-2.61 2.47.28-.08 1.55-.14 2.93s11.32-1.18 11.46-1.12c.14.06 1.97 1.04 1.97 1.04l3.53 1.91 1.32.35.85-1.68.16-.41 4.81 2.24 2.58 1.2z"/><path class="cls-11" d="m131.83 115.64-.08 1.55c-.84.4-1.73.74-2.66.79l.26-2.61 2.47.28zM148.56 124.56c.02.08-.01.16-.05.23-.19.43-.38.86-.58 1.29-.04.09-.1.19-.2.18-.06 0-.11-.05-.16-.09-.77-.81-1.66-1.52-2.6-2.14-.23-.14-.45-.28-.69-.42-.32-.18-.65-.35-1.01-.4-.49-.07-.98.09-1.45.25-2.22.74-4.45 1.48-6.67 2.21-1.08.36-2.15.72-3.22 1.07l-.9.21-2.65.4.2-2.99c4.64-.36 9.08-2.2 13.7-2.94.25-.04.52-.08.77-.05.28.04.54.14.79.26 1.61.73 3.14 1.64 4.55 2.7.07.05.14.11.16.2z"/><path class="cls-11" d="M158.29 123.66s-.67 1.29-.87 1.63c-.2.34-2.51 4.4-4.86 5.96-2.36 1.57-2.96 3.29-7.52 1.13s-6.77-4.15-6.77-4.15-2.61-1.75-2.74-2.32l-.26.06c-.04-.09-.08-.19-.11-.28-.09-.27-.18-.54-.24-.82.29-.12.58-.24.87-.35l7.09-2.05 2.93 1c-.27.2-.55.39-.83.58-1.22.84-2.49 1.6-3.8 2.28.52 1.15 1.47 2.07 2.53 2.76 1.06.69 2.23 1.18 3.4 1.66.41.16.83.33 1.26.35.49.01.97-.16 1.41-.39 1.52-.77 2.72-2.08 3.62-3.52.91-1.44 1.57-3.02 2.24-4.59.02-.05.04-.09.07-.14l2.58 1.2z"/><path class="cls-6" d="M90.23 101.83c-.18 6.73-.37 13.46-.55 20.18a50.122 50.122 0 0 1-2.31-13.35c.35-1.48.69-2.83.69-2.83s1.25-3.11 1.45-3.47c.2-.37.49-.35.49-.35l.15-1.04c.08.26.08.57.08.86zM127.22 137.71l-.14 1.45s-.13 1.28-.39 2.2c-.26.91-1.43 1.46-2.19 1.73-.75.28-4.38.49-5.05.47-.26-.01-.88-.23-1.52-.49h-.03c-1.85-1.04-3.69-2.07-5.53-3.11-.37-.21-.73-.42-1.01-.72-.29-.08-.6-.03-.89 0-.3.02-.62.01-.86-.17-.24-.18-.33-.57-.11-.77.21-.19.54-.1.83-.12.48-.03.86-.4 1.17-.76.74-.91 1.28-1.98 1.56-3.12l.53-.09c-.13.79-.04 1.62.26 2.36.41.04.8-.25 1.01-.6.18-.31.25-.67.31-1.03-.05.61.33 1.21.76 1.68.79.87 1.8 1.54 2.91 1.92 2.26.78 4.74.37 7.09-.08.38-.07.79-.16 1.08-.42.1-.09.18-.2.25-.31zM119.44 123.1a36.35 36.35 0 0 0-1.66 6.57c-.08.55-.16 1.1-.37 1.61s-.57.99-1.08 1.2c.98-.15 1.98.25 2.76.86s1.37 1.42 1.95 2.23c.14-.87.04-1.78-.31-2.6.83-.03 1.68.17 2.4.57-.69-.94-1.7-1.65-2.82-1.96 1.49-.82 2.91-1.75 4.24-2.79a7.42 7.42 0 0 0-3.54-.96c.84-5.39 2.08-10.72 3.7-15.92-2.35 3.14-3.85 6.81-5.33 10.44M86.82 156.1l-.84 4.05s-.88-.04-1.97-.18c-1.1-.14-3-.91-3.07-.95-.08-.03-.27-.13-.31-.77-.04-.64.4-1.26.4-1.26l-.48-3.98s-.24-2.84-.23-3.52c0-.68.5-3.76.5-3.76s.6-3.58.84-4.95c.23-1.37.39-3.99.39-3.99s.06-.71.16-1.06c.1-.36 1.43-.78 1.43-.78s-.3-.89-.3-1.17c0-.14.26-.5.52-.84.37.39 1.09.52 1.12 1.05.01.23-.13.43-.24.64-.37.63-.56 1.36-.54 2.09.01.62.14 1.33-.3 1.76-.15.15-.36.24-.51.4-.26.27-.3.67-.33 1.04-.19 2.65-.24 5.32.18 7.94.42 2.61 1.34 5.19 2.94 7.31.23.3.48.61.65.95zM89.92 125.54c.2.91.39 1.82.59 2.73.13.62.27 1.25.55 1.81.28.57.7 1.07 1.11 1.55 1.89 2.17 3.99 4.22 6.56 5.51-.97.36-2.05-.1-2.95-.61a24.2 24.2 0 0 1-2.7-1.78c-.2 1.36.26 2.8 1.21 3.79-1.15-.47-2.26-1.04-3.31-1.71-.34.71-.68 1.43-1.02 2.14-.15-1.28-.3-2.56-.44-3.85-.02-.14-.03-.28 0-.42.03-.15.12-.27.17-.41.18-.51-.16-1.04-.47-1.47.44-.15.75-.58.87-1.03s.09-.93.06-1.4l-.27-3.82"/><path class="cls-12" d="M115.22 175.08c-.46 3.74-.81 6.2-.81 6.2l-1.43 8.43-4.18.51c.78-7.35.7-14.77.54-22.17-.11-4.88-.26-9.8-1.4-14.55-.22-.91-.49-1.84-1.07-2.56-.6-.73-1.46-1.19-2.32-1.59-3.11-1.46-6.62-2.58-8.83-5.12.93.03 1.64 0 1.71.05.12.07 10.31 2.36 10.31 2.36s5.99.68 6.29.7c.29.02 1.46-.16 1.46-.16s1.04 3.39 1.08 5.12c.04 1.73-.89 19.05-1.35 22.78z"/><path class="cls-12" d="m100.01 167.86-.06-.87-1.01 2.54s-3.8 11.69-4.73 13.5c-.93 1.81-2.56 8.64-2.56 8.64s-3.2-.16-6.12-.33c1.2-4.43 3.26-8.61 5.21-12.79a284.66 284.66 0 0 0 8.86-21.2l.16.09c.59 3.43.67 6.95.25 10.41zM155.74 154.35c-.09 1.78-.86 7.36-.86 7.36l-2.39 10.95s-3.41 2.14-6.75 4.23a70.114 70.114 0 0 0 1.22-20.84c-.02-.18-.04-.37-.14-.51-.13-.18-.35-.25-.57-.32a41.065 41.065 0 0 1-14.48-7.95c1.56.29 3.6.7 4.55.98 1.63.49 7.61 1.06 7.61 1.06s4.38 1.17 5.84 1.37c1.46.2 5.93.15 5.93.15s.13 1.76.03 3.53z"/><path class="cls-12" d="M137.15 162.15c1.06-1.03 2.12-2.07 3.17-3.11-.01.32-.03.65-.04.97-.03.71-.06 1.42-.21 2.1.01-.5.03-.79.03-.79l-1.86 2.51-7.81 10.49-3.48 5.01.42 6.77s-1.37.37-3.03.81c-.08-2.05-.15-4.09-.23-6.13-.04-1.06-.1-2.18-.64-3.09-.27-.46-.66-.88-.72-1.41.8-.16 1.67.13 2.2.74l-.09-1.61c-.02-.31.09-.76.4-.7.28.04.45.54.71.4-.05-.79.01-1.58.18-2.36.1.29.49.38.77.26.29-.11.49-.37.67-.61 2.87-3.69 6.22-6.98 9.55-10.26zM140.55 158.81l-.23.23c.04-.96.07-1.92.1-2.89l.13 2.66z"/><path class="cls-19" d="m154.66 78.44.25.39-.06.08c-.98-.07-1.81-.71-2.61-1.28-1.52-1.08-3.21-2-5.04-2.37-1.83-.38-3.84-.18-5.41.84-.84.55-1.52 1.29-2.2 2.03-1.7 1.86-3.46 3.8-4.16 6.22-.28.95-.38 1.94-.42 2.93-.15 4.09.83 8.12 1.8 12.09-.2-.31-.38-.61-.5-.88-.5-1.15-1.3-3.23-1.55-6.3s-.47-8.18.33-9.72c.79-1.53 2.21-3.61 2.33-3.77s3.94-5.57 7.19-5.23c3.25.33 4.96 1.51 4.96 1.51s2.62 1.44 3.07 1.76c.45.32 1.22.94 1.22.94l.79.77zM162.58 106.14c.01.16-.03.42-.09.71-.33 1.05-.9 2.03-1.29 3.07.46-1.86.06-3.82-.57-5.63-.62-1.81-1.47-3.54-1.95-5.39-.37-1.45-.51-2.95-.66-4.44-.45-4.55-.96-9.1-1.75-13.59-.11-.63-.23-1.27-.53-1.83.38.17 1.13.66 1.6 1.93.65 1.75 1.12 3.8 1.12 3.8s.93 7.94 1.1 9.51c.16 1.57.83 4.11.75 4.54-.08.43.91 4.24 1.44 5.42.53 1.18.79 1.26.83 1.91zM125.58 77.22c-.06.2-1.05 2.3-1.68 3.24-.28.42-.57.72-.79.91.08-.22.16-.45.23-.67.54-1.54 1.08-3.11 1.12-4.74.02-.59-.04-1.18-.26-1.73-.22-.56-.61-1.03-1-1.48-.84-.96-1.74-1.85-2.7-2.68-.43-.37-.87-.74-1.38-.98-.97-.47-2.09-.5-3.17-.54-2.83-.12-5.68-.44-8.33-1.4-.31.94.08 1.95.28 2.93.03.16.06.35-.04.49-.12.16-.34.18-.54.18-.83.01-1.67-.02-2.5-.09.43 1.37 1.69 2.43 3.1 2.67.06.01.11.02.16.03h-.18l-1.09.02c-.43-.16-1.32-.64-2.24-1.47-1.12-1-.97-3.54-.97-3.54l2.97.26s-.12-.04-.27-.48c-.14-.45-.01-2.54.26-2.72.27-.17 10.41 1.9 10.41 1.9l1.42-.04s2.18.57 2.84.86c.66.3 2.86 2.44 3.17 2.85.32.42 1.46 2.34 1.61 2.82.16.47-.37 3.19-.44 3.39zM189.03 88.65s-1.04.73-2.02 1.17c-.99.43-2.87.27-2.87.27h-.02c-.41-.23-.77-.52-1.06-.89 1.42.37 2.97.2 4.28-.46-.74-.37-1.23-1.13-1.49-1.92s-.31-1.63-.4-2.46c-.13-1.14-.33-2.26-.6-3.37-.15-.59-.32-1.19-.64-1.71-.33-.54-.8-.96-1.27-1.39-.73-.67-1.49-1.35-2.4-1.75-1.37-.6-2.94-.49-4.43-.37-.99.08-2.1.22-2.73 1-.28-.15-.56-.33-.81-.54h.11l.11-.15 2.22-1.01s.69-.23 1.26-.37c.56-.14 1.95-.1 2.53-.01.59.08 2.74.86 4.16 1.75s1.83.89 2.24 1.57c.41.69.61 2.86 1.29 5.26s.93 3.6 1.18 4.27c.25.67 1.34 1.1 1.34 1.1z"/><path d="M135.53 135.17c.53 1.06 1.06 2.13 1.58 3.19-.9-.5-1.75-1.07-2.55-1.72-.49 1.78-.75 3.63-.78 5.47 0 .14 0 .3-.07.43-.18.37-.72.38-1 .68-.25.27-.23.71-.04 1.03.18.31.49.54.78.75-.91-.28-1.84-.49-2.78-.62l.06-.16s.59-2.26 1.07-3.1c.48-.84.82-4 .82-4s.16-1.02.38-1.25c.21-.23.57-2.24.57-2.24l-.93-.48-.23-6.53.98-.64c.06 1.75.11 3.51.16 5.26 0 .25.02.5.11.72.12.28.37.49.6.69 1.42 1.13 2.94 2.15 4.53 3.02-1.1-.17-2.19-.35-3.28-.52z" style="fill:#4c742c;stroke-width:0"/><g><path class="cls-4" d="M17.88 114.92c-1.05-.14-2.09-.29-3.08-.59-1-.27-1.97-.63-2.89-1.08-.93-.43-1.82-.94-2.64-1.52-.69-.47-1.38-1.02-1.97-1.58.23-.81.45-1.63.68-2.45.58-1.3 1.18-2.58 1.77-3.87.62-1.29 1.27-2.55 1.94-3.8.66-1.26 1.38-2.48 2.15-3.65.39-.59.78-1.17 1.19-1.72.38-.51.83-1.06 1.22-1.44l3.11-1.31 3.3-1.32c1.74-.68 3.5-1.33 5.26-1.99.71 1.13 1.8 2.03 3.04 2.6 1.25.59 2.64.86 4.02.86 2.77-.04 5.42-1.13 7.49-2.8-2.48.98-4.96 1.79-7.5 1.8-1.26.02-2.52-.18-3.72-.58-1.19-.41-2.33-1.01-3.32-1.88.47-.18.95-.35 1.42-.53-2.37.33-4.72.84-7.04 1.45-1.16.31-2.32.63-3.46 1-1.14.37-2.29.74-3.41 1.16h-.02c-.07.04-.14.08-.21.13-1.26 1.12-2.1 2.26-2.97 3.49-.83 1.23-1.6 2.48-2.31 3.77-.72 1.28-1.33 2.61-1.95 3.93-.61 1.33-1.15 2.68-1.68 4.04l-.02.04-.03.09c-.22 1-.45 2.01-.65 3.02l-.02.09c-.05.24.03.49.23.67.78.7 1.57 1.24 2.4 1.73-.92 2.9-1.53 5.88-1.98 8.87-.45 3.16-.74 6.34-.65 9.55.69-3.13 1.16-6.27 1.64-9.41.42-2.97.85-5.94 1.09-8.96.08.04.15.09.22.13.96.53 1.96.97 2.98 1.32 1.03.34 2.09.59 3.16.7 1.06.14 2.14.11 3.19.02z"/><path class="cls-4" d="M55.16 116.25c1.24-.39 2.46-.88 3.65-1.41l.43-.18s.1-.03 0 0h-.01l.09-.02c.16-.02.3-.26.29-.29 0-.04.01-.07.02-.11v-.11c0-.11-.02-.19-.03-.28-.05-.34-.11-.65-.17-.98l-.42-1.9c-.58-2.52-1.2-5.03-1.82-7.54l-1.99-7.5a.438.438 0 0 0-.14-.22c-2.1-1.83-4.55-3.06-6.88-4.4-2.35-1.33-4.8-2.55-7.39-3.37 2.49 1.06 4.79 2.47 7.08 3.88 2.24 1.42 4.54 2.77 6.5 4.47l1.85 7.38c.66 2.5 1.31 5 1.93 7.5l.45 1.88c.07.31.15.62.21.93v.03l-.31.15c-1.15.58-2.31 1.11-3.51 1.55-2.39.88-4.92 1.5-7.52 1.4 2.57.36 5.23-.06 7.71-.85zm3.96-2.38c.09-.02.11 0 .08 0h-.03s-.06.01-.08.02c0 0 .02-.01.03-.01z"/><path class="cls-4" d="M35.32 92.97c-3.25-.15-6.41-1.4-9.07-3.48 2.12 2.67 5.54 4.31 9.03 4.47 3.49.16 7.04-1.15 9.4-3.61-2.85 1.82-6.11 2.77-9.36 2.62zM17.91 74.5c.47 1.17 1.48 1.97 2.56 2.34.52.18 1.08.26 1.65.23.17.64.61 1.28 1.35 1.59.65.26 1.3.17 1.83-.08.13.15.27.28.44.39.6.37 1.22.35 1.75.15.12-.05.24-.11.35-.19.11.07.21.14.32.2.17.08.2.16.67.29.24.05.53.03.78-.08.1-.04.19-.11.28-.18.01.02.03.05.04.07.18.3.39.58.61.86.42.5.9.94 1.43 1.33-.6 1.06-.91 2.21-1.1 3.37-.08.61-.14 1.23-.13 1.86 0 .15 0 .32.02.46 0 .14.02.19-.02.25-.07.17-.53.26-.67.58.29-.16.55.01.97-.2.22-.12.32-.39.36-.56l.11-.46c.14-.6.24-1.19.34-1.79.15-1.12.27-2.25.21-3.43.01 0 .02.02.03.03a8.62 8.62 0 0 0 3.98 1.52c1.44.15 2.91-.07 4.22-.63.5-.21.97-.48 1.41-.79-.54 1-.8 2.05-1 3.11-.17 1.1-.26 2.21-.05 3.36.57-1.03.84-2.11 1.04-3.2.16-1.08.25-2.16.06-3.31.68-.47 1.28-1.04 1.76-1.69.22.11.45.19.69.24.57.11 1.16.06 1.72-.16.04-.02.08-.05.12-.07.04.12.1.24.19.34.18.22.39.32.55.38.17.06.33.08.46.09h.33c.23-.02.45-.06.65-.13.56-.19 1.01-.55 1.36-.95.32.25.73.45 1.26.42.27-.02.55-.11.79-.29s.36-.37.46-.54c.08-.16.13-.28.18-.4.17.14.36.26.55.36.44.22.88.37 1.44.39.27 0 .55-.03.85-.16.29-.12.62-.37.79-.71.18-.35.18-.71.14-.98-.04-.27-.12-.49-.18-.67l-.35-1.04c-.21-.7-.4-1.41-.57-2.13-.65-2.89-.99-5.88-1.35-8.87-.2-1.5-.39-2.99-.68-4.49-.31-1.48-.73-3.02-1.68-4.3-.93-1.27-2.19-2.23-3.53-2.99-1.34-.76-2.8-1.34-4.32-1.65-3.03-.66-6.38-.28-9.15 1.34-1.38.79-2.57 1.79-3.71 2.84a26.855 26.855 0 0 0-3.12 3.45 27.522 27.522 0 0 0-4.26 8.27c-.47 1.49-.78 2.92-1.45 3.99-.62 1.02-1.77 1.75-2.65 1.58-.19-.04-.4-.02-.59.06-.54.22-.8.83-.58 1.36v.03zm24.86 3.85h-.01a.63.63 0 0 0-.1.87l.03.03c.22.28.51.49.82.65-1.07.82-2.25 1.41-3.47 1.79-1.25.37-2.56.52-3.84.37-1.28-.13-2.53-.55-3.68-1.18-.57-.32-1.12-.69-1.63-1.12a7.94 7.94 0 0 1-.75-.68.304.304 0 0 0-.08-.08c.08-.1.15-.2.18-.29.18-.47.1-.73.07-.97a2.61 2.61 0 0 0-.22-.63l-.18-.35c-.42-.83-.55-1.84-.51-2.88.04-1.05.24-2.13.47-3.22.24-1.09.5-2.17.88-3.19s.89-1.98 1.6-2.79c.1-.12.22-.23.33-.35.72 0 1.13.03 1.51.19.41.14.86.47 1.56.66-.04-.36-.17-.66-.37-.94-.19-.28-.48-.51-.83-.65-.34-.12-.75-.14-1.09 0 .44-.38.9-.74 1.37-1.09 1.69-1.27 3.57-2.35 5.16-3.82-.1.53-.22 1.05-.32 1.59-.11.66-.23 1.34-.09 2.03.38 1.6 1.34 2.96 2.34 4.21.98 1.27 2.08 2.46 2.78 3.87.35.7.61 1.42.72 2.17.09.75.04 1.5-.16 2.22-.39 1.45-1.33 2.72-2.5 3.59zm8.29-16.7c-.51-1.74-1.28-3.41-2.35-4.87-.99-1.38-2.26-2.56-3.71-3.41.15-.1.31-.19.46-.29 2.05.69 3.95 1.87 5.27 3.55.87 1.14 1.34 2.57 1.6 4.02.26 1.47.46 2.95.58 4.44.29 2.98.37 6.01.88 9.03.12.76.28 1.51.46 2.26.17.68.49 1.76.37 1.66.03-.04-.07.04-.3.02-.19-.01-.48-.12-.7-.25-.46-.28-.83-.75-.95-1.24a.833.833 0 0 0-.77-.64.849.849 0 0 0-.9.79v.04c-.03.39-.11.77-.23 1.14-.03.09-.07.19-.11.28v-.02c-.05-.17 0-.52.11-.95a.898.898 0 0 0-1.73-.48v.02c-.17.55-.34 1.05-.56 1.44-.16.3-.38.49-.6.63l.31-1.22v-.04a.804.804 0 0 0-1.52-.51c-.28.7-.75 1.29-1.33 1.57-.34.18-.79.2-1.16.09.98-1.06 1.68-2.36 1.95-3.77.03-.14.04-.27.06-.41.48-1.27.63-2.68.58-4.04-.06-1.82-.4-3.58-.84-5.33-.88-3.3-2.24-6.44-3.91-9.38.24-.24.47-.48.72-.7.36-.32.73-.62 1.11-.91.52.6.94 1.26 1.3 1.95.45.82.86 1.66 1.24 2.5.75 1.69 1.38 3.44 1.78 5.23.82 3.58.74 7.35-.45 10.94.96-1.63 1.56-3.5 1.76-5.42.22-1.91.09-3.87-.34-5.75-.43-1.88-1.13-3.69-2.06-5.36-.45-.84-.97-1.64-1.53-2.42-.48-.63-1-1.26-1.63-1.75.32-.24.66-.48 1-.71 2.54 2.32 4.24 5.31 5.16 8.52.96 3.32 1.09 6.82 1.06 10.37.82-3.45.89-7.15-.1-10.64zM35 54.16c2.36-1.56 5.36-2.12 8.23-1.64.54.09 1.07.22 1.61.37-.92.19-1.78.65-2.51 1.25-.99-.45-2.13-.58-3.22-.53-1.29.1-2.54.41-3.76.86-.69.26-1.36.57-2 .94.53-.44 1.08-.86 1.65-1.24zM21.6 74.52c.8-.5 1.43-1.19 1.89-1.96.89-1.53 1.15-3.12 1.57-4.49.08-.28.19-.56.28-.84-.19.78-.35 1.57-.41 2.38-.07 1.28.05 2.6.56 3.76a8.886 8.886 0 0 1-.08-3.7c.2-1.22.58-2.4 1.04-3.56.95-2.3 1.88-4.64 3.44-6.51 1.52-1.9 3.52-3.41 5.75-4.43 1.11-.51 2.3-.89 3.52-1.08 1.02-.18 2.08-.17 3.09.11l-.17.14c-.65.6-1.19 1.31-1.57 2.1-1.8.11-3.62.32-5.35.99-1.87.68-3.53 1.98-4.73 3.58-1.2 1.61-1.99 3.48-2.4 5.4-.42 1.92-.47 3.89-.3 5.82.21-1.92.52-3.82 1.05-5.62.54-1.8 1.32-3.52 2.45-4.99 1.1-1.49 2.54-2.68 4.24-3.47 1.56-.73 3.28-1.18 5.01-1.63-.21.44-.38.89-.47 1.37.68-.72 1.31-1.39 1.95-2.03 1.03 3.21 2.19 6.35 3.02 9.56.44 1.69.82 3.41 1.02 5.13.06.57.09 1.14.1 1.72-.19-.78-.52-1.51-.92-2.18-.87-1.4-1.99-2.57-3.03-3.78-1.03-1.21-1.96-2.55-2.36-4.09-.13-.63 0-1.3.12-1.94.13-.65.31-1.29.42-1.97 0-.04 0-.08-.03-.11-.05-.05-.13-.06-.18 0-1.64 1.53-3.66 2.58-5.58 3.81-.96.62-1.91 1.27-2.75 2.11-.85.83-1.49 1.86-1.99 2.92-.5 1.06-.87 2.17-1.21 3.26-.33 1.1-.65 2.23-.79 3.44-.11 1.02-.07 2.13.27 3.21l-1.4.6c0-.09.04-.2.07-.24.03-.04.04-.05.04-.05s.02 0 .06.02a.442.442 0 0 1-.1-.18c-.04-.12-.06-.29-.04-.45s0 0 0-.01a1.023 1.023 0 1 0-2.04-.15v.01s-.04.12-.17.19c-.12.07-.23.06-.23.05 0 0-.08-.07-.11-.2s.02-.22.02-.21l-1.35-1.61c-.45.26-1.09.32-1.67.11-.02 0-.04-.02-.06-.02.18-.08.35-.17.51-.27z"/><path class="cls-4" d="M34.8 73.82c.14.06.17.06.27.08.16.03.32.06.49.09.33.03.66.04.98-.02-.29-.16-.57-.29-.84-.45-.1-.06-.2-.11-.3-.17.35-.39.69-.92.93-1.43.54-1.2.72-2.6.29-3.84-.37 1.25-.7 2.36-1.2 3.43-.25.56-.49 1.01-.84 1.61-.04.07-.11.24-.04.43.07.18.2.24.26.28zM39.11 75.33c-.37.21-.46.48-.45.74-.78.11-1.43.22-2.1.27-.37.04-.72.05-1.07.04-.36-.02-.7-.06-1.11-.26.07.46.49.84.92 1.02.44.2.91.23 1.36.2.79-.08 1.56-.43 2.05-1.06.08.22.25.42.63.51.3-.36.34-.57.32-.79-.05-.21-.15-.4-.53-.66zM39.93 64.51c-.34.06-.69.3-.71.79.45.18.64.22.86.2.22-.04.39-.13.76-.44-.16-.47-.57-.59-.91-.55zM116.97 67.34c-3.52-.83-7.02-1.58-10.5-2.42a.5.5 0 0 0-.58.32c-.31.92-.33 1.91-.1 2.84-.72-.05-1.44-.08-2.15-.13h-.02c-.21-.01-.4.13-.43.34-.21 1.29.22 2.6.99 3.55.77.95 1.92 1.62 3.1 1.65-.57-.14-1.09-.4-1.54-.74a4.63 4.63 0 0 1-1.11-1.23c-.51-.81-.75-1.78-.64-2.68.81.08 1.62.18 2.44.24.07 0 .15 0 .22-.03.25-.1.37-.38.27-.63-.3-.78-.34-1.64-.17-2.45 3.37.74 6.79 1.25 10.24 1.37z"/><path class="cls-4" d="M121.44 86.22c.94-.69 1.34-1.85 1.49-2.92.08-.55.1-1.11 0-1.69-.09-.57-.32-1.16-.75-1.63-.45-.49-1.11-.74-1.76-.73-.37 0-.78.12-1.12.36-.36-1.21.08-2.7 1.11-3.41.11-.09.19-.22.2-.37.02-.27-.18-.5-.45-.51-2-.13-3.98-.78-5.58-2-.8-.61-1.46-1.4-2-2.26-.54-.87-.89-1.86-1.04-2.9-.03 1.05.23 2.12.68 3.09.44.98 1.13 1.85 1.93 2.58 1.37 1.24 3.12 2.01 4.93 2.32-1.03 1.28-1.23 3.15-.35 4.59l.02.03c.05.09.14.16.24.2.24.09.51-.04.59-.28.21-.59 1.43-.68 1.95-.09.6.61.78 1.65.71 2.64-.06.99-.38 1.99-1.08 2.68-.69.65-1.93.89-2.76.18.71.86 2.12.8 3.02.14z"/><path class="cls-4" d="M126.57 74.8c.04-.46 0-.97-.17-1.43a5.81 5.81 0 0 0-.62-1.22c-.91-1.42-1.98-2.88-3.51-3.83-1.51-.94-3.34-1.28-5.01-.97 1.69.08 3.29.67 4.57 1.61 1.28.96 2.22 2.31 3.1 3.72.47.7.74 1.31.69 2.07-.03.77-.21 1.59-.42 2.37-.46 1.56-1.19 3.07-2.21 4.42 1.3-1.09 2.34-2.54 2.95-4.17.31-.82.53-1.65.62-2.56zM109.82 82.66c.06-.04.35-.31.52-.53.18-.23.34-.49.47-.75.5-1.06.53-2.38-.13-3.34-.07.57-.15 1.07-.28 1.55-.13.48-.28.93-.5 1.36-.09.22-.21.43-.34.63-.12.24-.25.31-.46.74-.12.21-.03.62.12.73.14.14.24.2.37.28.26.14.52.26.81.29-.18-.23-.34-.43-.47-.65-.06-.1-.15-.23-.17-.3-.01-.09.03 0 .04-.02zM110.07 87.24c.32.13.67.21 1.02.18.18 0 .34-.05.52-.11.1-.04.19-.09.27-.17.08-.07.13-.22.06-.3-.13.13-.25.02-.35-.02l-.38-.17c-.25-.12-.48-.21-.72-.32-.48-.2-.91-.42-1.57-.69 0 .73.54 1.32 1.16 1.6zM113.3 77.22c.62.11 1.01.09 1.44.06.43-.05.82-.11 1.4-.34-.35-.53-.95-.7-1.5-.65-.54.07-1.1.35-1.34.94zM109.24 75.3c-.4-.16-.9-.19-1.31.19.36.41.61.58.91.72.31.12.6.2 1.14.19 0-.56-.35-.91-.74-1.1zM118.36 92.2c.43-.92.61-1.81.79-2.71.15-.9.29-1.8.21-2.81-.68.76-1.01 1.69-1.2 2.63-.16.95-.17 1.93.2 2.88zM92.64 136.23c-.74-.86-1.39-1.75-2.21-2.67.09 1.24.67 2.37 1.44 3.31.79.92 1.8 1.7 3.01 2-.76-.97-1.52-1.77-2.24-2.64zM106.26 128.26c-.64-.11-1.28-.22-1.88-.36-.71-.18-1.35-.4-1.99-.76-.65-.34-1.32-.73-2-1.06-.69-.34-1.38-.66-2.11-.93 1.14 1.06 2.33 1.97 3.64 2.82.67.42 1.47.74 2.25.88.78.17 1.56.21 2.32.23h.06c.17 0 .32-.11.35-.28.2-1 .21-2.03-.02-3-.15.86-.36 1.67-.62 2.46z"/><path class="cls-4" d="M115.15 136.76c.25-.59.31-1.21.31-1.78-.02-.57-.05-1.1-.11-1.64-.03-.27-.05-.54-.08-.82-.02-.15-.05-.33-.17-.52a.927.927 0 0 0-.44-.34c-.4-.12-.78-.15-1.16-.15-.24-.65-.5-1.25-.76-1.87l-1.71-4.05c-.08-.17-.15-.36-.31-.54-.15-.19-.43-.29-.64-.28-.41.02-.74.08-1.11.11-.7.07-1.4.16-2.1.25a16.7 16.7 0 0 0-.48-2.12c-.26-.86-.57-1.71-.94-2.54a.436.436 0 0 0-.44-.25h-.03c-1.75.18-3.49.41-5.22.72-.43.07-.87.15-1.3.24-.23.05-.4.07-.68.14-.14.04-.33.12-.45.3-.13.18-.13.39-.12.53.04.3.15.47.24.68l.29.61c.04.08.08.15.11.23-.36.58-.64 1.18-.88 1.79-.06.17-.14.29-.19.55-.02.12-.04.28.01.46s.15.31.23.41c.31.3.54.49.83.73.04.03.09.06.14.1-.23.41-.41.8-.55 1.32-.04.18-.02.47.1.68.11.2.24.34.35.45.21.21.43.4.65.6.32.27.68.54 1.06.77l-.34-.05c-.19-.02-.35-.05-.56-.06-.21-.03-.49.16-.51.4-.03.85.4 1.53.91 2.11 1.09 1.12 2.63 1.62 4.03 1.99 1.42.39 2.77.74 3.81 1.67.56.44 1.16.99 2.04 1.22.13.04.25.06.38.07.36.34.91.49 1.42.48.58 0 1.15-.15 1.68-.35 1.05-.39 2.12-1.11 2.66-2.28zm-5.91 1.12c-.56-.13-1.11-.58-1.69-1.02-.59-.46-1.32-.87-2.04-1.11-.72-.26-1.46-.41-2.17-.56-1.42-.28-2.82-.66-3.87-1.59-.5-.43-.95-1.09-1-1.71 0-.31.44-.24.8-.23h.53c.61.35 1.29.6 2.01.62-.95-.77-1.73-1.49-2.61-2.25l-.67-.55c-.11-.08-.19-.15-.23-.19-.03-.05-.06-.06-.08-.16 0-.34.04-.78.02-1.21 1.02.73 2.16 1.33 3.42 1.58-1.05-.99-2.12-1.79-3.18-2.64l-.77-.6c-.07-.08-.04.03-.06-.08 0-.09.05-.29.07-.46.11-.62.18-1.25.18-1.9.14.29.27.58.43.86-.15-.86-.41-1.77-.53-2.52.04-.16 0-.06.14-.12l.62-.05c.44-.03.88-.07 1.31-.12 1.64-.16 3.28-.39 4.9-.66.35.68.7 1.36 1.04 2.06.38.8.76 1.6 1.13 2.42-.02-.17-.06-.33-.09-.5.7 0 1.41.01 2.11 0 .36 0 .75-.02 1.08 0 .31.02.39.25.51.61l1.45 4.15c.43 1.39 1.19 2.76.85 3.97-.15.62-.49 1.23-.86 1.85-.36.62-.75 1.21-1.22 1.63-.46.44-1.01.64-1.56.5zm1.52 1.02c-.37.09-.77.12-1.16.01.71 0 1.42-.33 1.88-.78.61-.57 1.01-1.24 1.39-1.88.37-.64.76-1.33.93-2.14.19-.82.03-1.68-.22-2.38.31.11.61.23.86.38.19.14.18.2.18.45l-.04.8c-.07 1.07.04 2.2-.34 2.99-.36.83-1.17 1.48-2.06 1.97-.46.24-.92.46-1.41.58zM82.01 155.27c-.02.5.04 1.01.4 1.5.43-.49.55-.96.59-1.44.02-.48-.04-.96-.4-1.5-.42.44-.55.94-.59 1.44zM92.92 142.02c1.01.42 2.08.66 3.13.87 2.11.41 4.21.72 6.33 1.03 2.11.31 4.23.59 6.35.84 2.12.25 4.25.46 6.38.64h.02c.09.01.18-.05.2-.15.21-.96.43-1.91.61-2.88-.34.86-.63 1.73-.94 2.59a213.8 213.8 0 0 0-12.49-2.02c-2.11-.29-4.24-.54-6.35-.76-2.08-.26-4.2-.65-5.94-1.95.73.79 1.69 1.36 2.69 1.78z"/><path class="cls-4" d="M114.63 147.53c.17-.02.31-.02.5-.05.18 0 .43-.2.45-.41.03-.7-.05-1.3-.09-1.95-.07.62-.09 1.31-.17 1.88-.04.23-.38.15-.7.15-.32-.02-.63-.01-.95-.05-1.26-.06-2.52-.23-3.77-.47-2.49-.48-4.95-1.13-7.46-1.7-1.26-.27-2.52-.52-3.81-.7-1.29-.17-2.57-.27-3.83-.39-1.25-.15-2.54-.28-3.59-.86-.35-.19-.65-.45-.88-.76v-.03.03a2.1 2.1 0 0 1-.29-.53c-.21-.56-.2-1.25.2-1.77-.49.44-.62 1.2-.45 1.84.07.32.21.61.4.88-1.26 3.62-2.38 7.3-3.37 11-.96 3.55-1.75 7.14-2.45 10.75-.67.14-1.35.14-1.97-.02h-.02a.235.235 0 0 0-.28.2v.05c-.09.56-.2 1.11-.34 1.65-.16.54-.28 1.1-.53 1.49-.26.42-.54.55-.8.4-.3-.16-.51-.53-.57-1.04-.09-1.09-.25-2.24.07-3.24.34-1.03.85-2.12 1.2-3.22-.66.97-1.33 1.87-1.87 2.97a5 5 0 0 0-.4 1.81c-.02.62-.02 1.16.04 1.79.05.61.33 1.45 1.1 1.81a1.42 1.42 0 0 0 1.55-.21c-.2.8-.32 1.57-.45 2.35l-.08.56s-.07 0-.1-.01c-.4-.08-.82-.29-1.21-.67 0 .56.38 1.12.93 1.4.15.08.26.13.47.17.11.01.27.02.46-.07.18-.1.28-.26.33-.37.09-.23.08-.32.12-.46l.08-.39c.13-.93.09-1.9-.25-2.81.08-.1.15-.21.2-.31.3-.59.39-1.15.48-1.7-.02.18-.03.37-.03.55 0 .18 0 .37.04.62.05.24.18.53.38.7.11.09.22.16.34.21-.02.76.04 1.42.07 2.1l.02.26c0 .05-.02.11-.02.16-.02 0-.04.02-.07.02-.4.1-.81.23-1.21.47.39.17.79.24 1.19.29-.22 1.77-.41 3.55-.54 5.33-.08.99-.17 1.97-.33 2.94s-.41 1.92-.68 2.88c-.49 1.92-1.07 3.91-.85 5.92.01-2.01.67-3.9 1.32-5.78.31-.95.61-1.91.83-2.91.21-.99.35-1.99.48-2.98.22-1.92.46-3.83.73-5.73.03-.05.06-.09.08-.15.09-.25.05-.38.06-.48v-.28c.25-1.73.53-3.45.86-5.17.67-3.92 1.52-7.81 2.4-11.69.84-3.72 1.77-7.42 2.66-11.14.2.28.46.52.73.71 1.16.76 2.49.96 3.75 1.21 1.28.24 2.55.34 3.79.56 1.25.2 2.49.46 3.73.74 2.49.54 4.99 1.17 7.56 1.48 1.28.15 2.58.24 3.88.2.32 0 .65-.05.97-.07zm-32.11 18.88c.07-.5.1-.99.1-1.49h.35c-.26.5-.39 1-.45 1.5zm1.12 2.32zm.54-3.38c-.16.96-.32 1.93-.46 2.89-.1-.12-.19-.23-.22-.33-.07-.2-.04-.39-.03-.81 0-.73-.09-1.46-.46-2.2.48-.05.93-.18 1.35-.39-.05.28-.11.56-.17.84z"/><path class="cls-4" d="m99.87 156.99-.05 10.08c-.33.67-.66 1.35-.98 2.03l-1.29 2.98c-.84 2-1.58 4.03-2.29 6.08-.68 2.05-1.33 4.12-1.88 6.22-.56 2.09-1.06 4.2-1.43 6.34.77-2.03 1.46-4.07 2.16-6.11l2.09-6.12 2.06-6.13 1.02-3.07c.17-.55.35-1.1.52-1.65l-.03 6.78-.26 17.42c.22-1.44.37-2.89.54-4.33l.37-4.35c.22-2.9.31-5.81.35-8.73.02-2.91-.02-5.82-.18-8.73-.15-2.91-.36-5.81-.74-8.7zM117.13 158.29c-.03-1.84-.1-3.67-.26-5.52-.18-1.84-.48-3.7-1.14-5.43.32 2.46.22 4.9.06 7.35-.08-.16-.16-.32-.25-.47-.33-.57-.75-1.06-1.16-1.53-.85-.93-1.69-1.71-2.49-2.74.02.66.27 1.3.6 1.87.32.57.74 1.07 1.15 1.54.7.77 1.41 1.44 2.09 2.22-.06.89-.12 1.78-.16 2.68-.25 3.64-.47 7.28-.79 10.91-.28 3.63-.63 7.26-.98 10.89-.36 3.63-.76 7.26-1.07 10.94 1.13-3.51 1.96-7.1 2.62-10.72.67-3.62 1.11-7.28 1.43-10.95.28-3.67.42-7.35.35-11.03zM79.91 169.78c-.16.33-.31.66-.46.99-.15.33-.28.68-.49.87-.39.39-1.02 0-1.16-.54-.16-.55-.16-1.33-.19-2.02-.02-.71-.01-1.41.04-2.12.03-.7.11-1.41.21-2.11.12-.72.19-1.27.62-1.84.8-1.16 1.55-2.36 2.26-3.6.62.35 1.29.6 1.99.75.79.16 1.61.19 2.42-.02-.75-.35-1.46-.6-2.17-.86l-1.93-.71c-.09-.41-.1-.87-.01-1.36.03.04.05.08.08.11.18.16.31.26.48.37.32.22.68.37 1.04.5.73.23 1.52.32 2.32.05-.51-.39-1.01-.63-1.52-.82.46-.27.7-.62.87-1.01.15-.42.23-.87.03-1.43-.53.27-.78.66-.96 1.07-.14.4-.21.82-.06 1.33-.12-.04-.24-.09-.36-.13-.34-.1-.69-.21-1.05-.27-.17-.04-.38-.07-.54-.08-.14-.03-.29-.03-.37-.17-.12-2.13-.4-4.27-.44-6.37.08-2.13.55-4.25.94-6.39.38-2.16.85-4.22 1.12-6.46.02-.29.02-.58 0-.88-.03-.31-.06-.56-.03-.63 0-.03.09-.12.33-.19.23-.09.49-.09.9-.35.23-.14.38-.54.32-.8-.06-.3-.2-.44-.25-.53-.08-.14-.09-.21-.04-.37.11-.31.51-.67.91-.92a.478.478 0 0 0 .07-.76c-.81-.76-.74-2.15-.57-3.42l.67-4 1.35-8.02c.44-2.67.78-5.37 1.34-8.02.39-1.94.9-3.88 1.72-5.68-.06 1.83-.13 3.65-.16 5.48-.1 4.19-.14 8.38-.14 12.57.01 2.1 0 4.19.05 6.29.05 1.02-.07 2.14.37 3.35.12.28.21.48.24.61.02.1.02.22-.05.35-.13.27-.46.46-.7.43h-.06a.504.504 0 0 0-.55.29c-.13.27-.02.58.25.71.49.24.9.52 1.02.85.05.11.03.3-.07.45-.11.15-.21.21-.31.18l-.08-.02a.35.35 0 0 0-.4.17c-.09.17-.02.38.14.47.56.3.7 1.13.73 1.93.05.79.06 1.7.53 2.39-.35-.76-.2-1.58-.15-2.38.03-.41.06-.83-.01-1.28-.03-.22-.1-.44-.22-.65.16-.08.3-.18.39-.29.26-.3.42-.73.31-1.19-.07-.32-.25-.58-.44-.8.26-.16.49-.36.66-.61.02-.03.04-.07.06-.11.47 1.18 1.27 2.22 2.22 3.07 1.16.99 2.56 1.75 4.08 1.94-1.21-.92-2.36-1.75-3.43-2.69-.95-.81-1.82-1.7-2.74-2.63.08-.23.11-.48.09-.73-.04-.39-.17-.68-.23-.89-.25-.8-.13-1.82-.09-2.88.11-2.09.16-4.19.24-6.28.13-4.19.21-8.38.23-12.57.03-2.09.02-4.19 0-6.28 0-1.04.02-2.05.12-3.03.06-.46.15-1.06.25-1.25.05-.09.07-.13.21-.2.13-.07.35-.12.59-.17 3.99-.81 7.97-1.66 11.93-2.66-.72.77-1.41 1.56-2.11 2.35l-.36.42-.18.21-.09.11s-.06.06-.13.18c-.06.08-.16.37 0 .63.16.23.3.24.33.27l.27.11c.18.07.36.14.54.19.38.12.78.22 1.17.29-.95 2.94-.83 6.24.2 9.2l.11.29c.04.1.05.17.17.38.06.09.18.22.34.28.16.06.32.06.43.04.22-.05.35-.14.43-.19l1.03-.63c.68-.44 1.37-.86 2.03-1.31a60.33 60.33 0 0 0 3.95-2.82c-1.48.66-2.94 1.38-4.35 2.15-.72.37-1.41.78-2.12 1.17l-.99.57-.09-.26c-.99-2.8-1.3-5.81-1.03-8.85.32.06.64.11.96.13.11.01.22 0 .34.01-.22.97-.37 1.96-.39 2.97-.02 1.16.15 2.35.62 3.47.08.16.16.36.43.54.28.22.74.14.89.03.31-.18.5-.31.75-.47.47-.32.94-.62 1.4-.95.92-.65 1.83-1.33 2.68-2.09-1.07.41-2.09.9-3.09 1.42-.51.25-.99.54-1.49.81l-.63.37-.03-.06c-.42-.95-.63-2.02-.76-3.1-.11-.95-.16-1.93-.26-2.93 1.27.05 2.53-.16 3.69-.6.12.09.27.13.42.09.97 1.93 2.03 3.8 3.1 5.67.16.24.2.46.52.79.15.17.51.28.77.2.25-.07.4-.19.52-.28.44-.35.87-.71 1.3-1.08.84-.74 1.63-1.53 2.42-2.32 1.54-1.62 3-3.23 4.41-5.1.19-.32.2-.77.12-1.06-.08-.31-.18-.57-.3-.84-.24-.54-.56-1.02-.92-1.47-.74-.87-1.6-1.58-2.49-2.25.74.83 1.53 1.62 2.1 2.54.3.45.56.92.73 1.41.16.5.32 1.04.1 1.28-1.4 1.55-2.93 3.22-4.46 4.79-.76.8-1.53 1.57-2.33 2.32-.4.38-.8.74-1.21 1.1-.09.08-.17.13-.19.13-.01 0 .05.02 0 0-.08-.05-.27-.36-.42-.57-1.2-1.78-2.42-3.55-3.72-5.27a.31.31 0 0 0 .13-.06h.01c1.46-1.05 2.95-2.05 4.47-3l2.3-1.42 1.16-.7c.38-.22.85-.5.97-.96-.25.4-.69.53-1.1.69-.43.16-.86.3-1.28.49-.84.35-1.67.74-2.48 1.17-1.36.72-2.65 1.56-3.9 2.46-.13-2.08.02-4.21.09-6.37.07.02.14.05.21.08 1.41.48 2.97.42 4.33-.08a8.141 8.141 0 0 0 3.42-2.49c-1.04.94-2.25 1.68-3.57 2.02-1.3.38-2.7.33-3.92-.17-1.21-.5-2.26-1.37-2.77-2.55-.54-1.17-.71-2.54-.78-3.91-.08-1.36-.05-2.77-.05-4.16 0-1.38.09-2.75.4-4.07.61-2.65 2.55-4.81 4.37-6.91-1.07.91-2.09 1.88-3.02 2.95-.9 1.09-1.67 2.36-2.09 3.75-.44 1.39-.54 2.84-.6 4.25-.03 1.41-.07 2.8 0 4.24.1 1.42.26 2.89.92 4.26.63 1.29 1.79 2.27 3.09 2.76-.13.46-.25.92-.35 1.38-.7-.13-1.41-.21-2.16-.11-.79.1-1.53.6-2.05 1.14-.28.29-.55.58-.82.87-4.09.33-8.16.8-12.22 1.32-.27.04-.58.08-.93.21-.34.12-.76.43-.96.79-.39.74-.4 1.22-.54 1.78-.2 1.1-.25 2.18-.29 3.24 0 .15 0 .3-.02.44-1.05 1.83-1.72 3.89-2.25 5.92-.66 2.65-1.1 5.32-1.64 7.98l-1.46 8.02-.72 4.02c-.1.69-.17 1.41-.08 2.15.06.57.25 1.18.61 1.68-.33.27-.64.59-.84 1.09-.15.35-.08.88.14 1.19.05.07.07.11.09.14-.11.05-.33.11-.55.18-.15.05-.31.11-.48.23-.17.11-.35.31-.42.55-.12.46 0 .75 0 .98.02.25.02.5 0 .75-.07 1.02-.31 2.11-.46 3.18l-.48 3.22c-.15 1.08-.34 2.14-.46 3.23l-.18 1.64c-.08.54-.08 1.1-.04 1.65.07 1.1.25 2.17.4 3.25l.47 3.09s-.01-.01-.02-.03c-.09.07-.1.23-.05.34 0 .01.02.02.02.03-.49.46-.75 1.19-.68 1.91.01.11.07.21.17.27l.07.04c.08.05.16.07.24.12-1 1.01-1.95 2.06-2.86 3.15-.55.54-.78 1.46-.93 2.15-.14.73-.22 1.46-.28 2.2-.03.74-.04 1.48.01 2.22.03.37.07.74.12 1.1.05.36.11.76.29 1.16.17.39.52.79.96.93.43.18 1.04.03 1.29-.37.25-.37.29-.76.37-1.1.08-.35.15-.71.2-1.07zm25.75-75.33c.45-.55.93-.99 1.6-1.2.63-.23 1.33-.27 2.04-.34-.45 1.92-.72 3.9-.57 5.93 0 .08.04.17.09.24 0 .01.02.02.03.03-1.36.15-2.7.11-4-.12-.7-.14-1.39-.31-2.04-.57l-.33-.13.4-.45c.95-1.11 1.88-2.25 2.79-3.39zM154.02 88.27c-.4-.26-.91-.41-1.38-.3-.46.1-.87.47-.92.92.17-.4.59-.61.97-.62.38-.01.74.19 1.02.44.57.52.87 1.29.86 2.04.01.76-.31 1.46-.85 1.89-.55.44-1.32.59-1.84.28s-.09-.05-.15-.06a.474.474 0 0 0-.57.37c-.56 2.62-.73 5.34-.35 7.98.28-2.45.64-4.85 1.18-7.21.32.08.66.1.97.05.52-.1.99-.32 1.38-.65.82-.64 1.17-1.73 1.09-2.68-.09-.96-.57-1.9-1.38-2.43zM151.8 88.34c.24-1.1.32-2.1.45-3.11.11-1.01.26-2 .28-3.13-.76.84-1.13 1.93-1.27 3.01-.11 1.09 0 2.23.54 3.22zM145.2 80.14c-1.19-.42-2.63-.75-3.95-.22-1.32.52-2.11 1.62-2.78 2.67.96-.81 1.94-1.64 3.03-1.93 1.09-.28 2.24 0 3.37.42 1.13.41 2.33.92 3.59 1.18 1.25.29 2.57.36 3.81.07-1.26-.11-2.44-.43-3.6-.82-1.16-.4-2.25-.92-3.46-1.37z"/><path class="cls-4" d="M150.34 75.07c-1.64-.85-3.29-1.87-5.32-2-1-.05-2.01.2-2.89.64-.88.44-1.67 1.03-2.38 1.67-1.4 1.31-2.59 2.77-3.67 4.32-.52.78-1.04 1.59-1.42 2.51-.39.92-.54 1.93-.58 2.87-.07 1.88-.05 3.76.14 5.62.18 1.86.42 3.73.98 5.54.58 1.78 1.5 3.53 2.96 4.71-1.3-1.34-2.08-3.06-2.49-4.84-.45-1.77-.6-3.62-.69-5.46-.07-1.84-.09-3.69.04-5.51.06-.91.2-1.76.54-2.56s.82-1.57 1.34-2.32c1.02-1.51 2.19-2.94 3.49-4.19 1.28-1.24 2.86-2.23 4.6-2.23 1.75 0 3.44.9 5.11 1.66 1.67.78 3.28 1.72 4.61 3.02-1.17-1.47-2.77-2.53-4.38-3.46z"/><path class="cls-4" d="M139.72 100.06c.28.18.64.32.96.24-.57-.31-.75-.83-1.05-1.35-.28-.53-.56-1.04-.81-1.56-.53-1.04-.94-2.08-1.32-3.29-.42 1.23-.13 2.6.43 3.73.29.57.64 1.1 1.07 1.57.2.23.44.47.72.66zM142.87 101.32c1.11.81 2.46 1.17 3.8 1.27 1.35.07 2.73-.12 3.93-.78-1.36-.12-2.6-.12-3.87-.21-1.27-.06-2.5-.22-3.87-.27zM131.67 119.44c.23-1.56.49-2.99.98-4.37.05-.18.11-.34.18-.52.07-.19.16-.43.16-.72-.04-.56-.18-.83-.25-1.2-.15-.71-.22-1.45-.25-2.24-.27.49-.42 1.05-.49 1.61-.14-.19-.31-.37-.57-.59-.33.49-.26 1.02-.05 1.46.15.26.37.49.65.64.01.11.02.21 0 .28 0 .17-.21.57-.34.95-.51 1.52-.6 3.21-.03 4.7zM141.62 90.34c.12.07.25.13.38.18.26.08.54.12.8.07-.21-.16-.39-.31-.54-.48-.06-.06-.11-.13-.16-.19.03-.02.13-.16.19-.25l.2-.33c.12-.23.22-.47.31-.71.32-.98.38-2.08-.07-3.03-.34.98-.56 1.84-.87 2.7-.07.22-.15.43-.23.64l-.12.32c-.05.12-.07.17-.15.39-.03.1-.06.28.02.45.08.16.18.22.23.25zm.44-.52s.02.04.02.06c0-.01-.02-.02-.03-.03-.03-.04-.03-.07 0-.03zM144.72 83.64c-.3.16-.56.43-.64.77.35-.03.6-.03.84-.02.24.02.45.03.66.07.21.02.41.07.64.13.21.05.55.24.91.17-.17-.3-.21-.55-.47-.81a1.6 1.6 0 0 0-.93-.47c-.35-.04-.71 0-1.01.17zM141.87 83.34c-.22-.2-.5-.31-.78-.35-.29-.02-.59.01-.84.15-.25.13-.48.36-.54.66.6.06.9.13 1.27.17.36.04.67.05 1.27.13 0-.31-.15-.59-.37-.77zM142.18 93.44c.42.16.99.1 1.26-.39-.44-.3-.63-.43-.89-.54-.26-.1-.49-.13-1.02-.21-.14.54.23.97.65 1.14z"/><path class="cls-4" d="M154 108.95c.34-.64.54-1.34.64-2.03.11-.81.11-1.62.03-2.41-.07-.79-.23-1.56-.38-2.31l-.47-2.28c-.13.78-.14 1.57-.12 2.34l.02.61c-.24-.46-.58-.77-.96-1.02-.46-.27-.96-.47-1.62-.42.24.62.65.97 1.09 1.27.17.1.34.18.52.25-2.68.32-5.31.41-7.92.09-.66-.07-1.31-.18-1.96-.31-.66-.11-1.28-.25-1.67-.59-.39-.36-.52-.91-.06-1.31.4-.41 1.1-.64 1.5-1.16 0 .35.04.71.16 1.11.55-.49.77-1.1.88-1.72.06-.51.05-1.04-.16-1.56 1.74.1 3.47-.52 4.73-1.6-1.64.88-3.53 1.16-5.23.77-1.7-.39-3.09-1.6-3.92-3.13-.88-1.52-1.23-3.31-1.28-5.11-.04-1.81.17-3.66.32-5.52-.53 1.78-1.01 3.6-1.1 5.51-.12 1.89.22 3.89 1.19 5.61.49.85 1.12 1.64 1.92 2.24.79.6 1.74 1.03 2.72 1.16.1.02.2.02.3.03-.27.49-.39.96-.48 1.44-.03.24-.05.48-.05.73-.53.38-1.17.44-1.8.82-.18.11-.34.28-.46.48-.24-.16-.44-.21-.65-.25-.3-.02-.58.01-1.03.27.18.49.55.67.92.73.19.01.39 0 .58-.09 0 .42.18.8.44 1.1.59.65 1.39.79 2.03.97.67.17 1.36.29 2.05.38 2.73.32 5.56.02 8.07-1.06.28.11.59.17.94.16l.05 1.44c.02 1.5-.1 2.99-.75 4.25l-.02.03c-.08.15-.06.34.06.48.15.17.32.31.51.42-.19.03-.34.1-.48.21-.23.21-.4.51-.3.99.49.04.73-.07.94-.23.17-.16.3-.36.36-.74.57.16 1.2.09 1.7-.23.84-.54 1.08-1.66.67-2.4.12.83-.36 1.6-.97 1.85-.51.22-1.13.07-1.52-.26z"/><path class="cls-4" d="M157.74 107.89c-.03.52-.09.98-.28 1.31-.19.29-.64.65-1.18.41.1.29.46.47.79.47.34 0 .68-.11.96-.36.12-.11.21-.23.29-.35.22.11.45.21.7.26.31.06.67.1 1.06-.03-.02.18.02.35.09.49.16.25.42.46.89.39.13-.46.08-.68-.02-.89a.931.931 0 0 0-.43-.36c.18-.22.3-.48.34-.7.07-.39.07-.69.09-1.03 0-1.33-.32-2.69-1.12-3.78.04 1.34.15 2.54.12 3.77 0 .3 0 .64-.02.88-.02.26-.06.36-.22.5-.3.21-.84.28-1.38.32.22-.41.29-.87.33-1.26.03-1.12-.05-2.23-.42-3.32-.22.55-.34 1.09-.43 1.63-.1.54-.12 1.09-.15 1.62zM139.36 119.83l2.48-.3c.42-.06.81-.1 1.14-.07.32.04.65.18 1 .38 1.43.86 2.98 1.59 4.58 2.11-1.44-.88-2.8-1.8-4.16-2.77-.35-.25-.78-.5-1.29-.58-.5-.08-.94-.04-1.35-.01l-2.5.25c-3.32.38-6.64.83-9.91 1.58 3.37.03 6.69-.24 10-.59z"/><path class="cls-4" d="M155.56 139.39c-.18-.94-.54-1.89-.88-2.74-.36-.85-.25-1.75-.1-2.7l.69-5.03c1.22-1.56 2.24-3.28 2.97-5.1.04 0 .08 0 .12-.01.18-.05.33-.16.43-.26.19-.21.26-.38.33-.51.3-.57.59-1.15.84-1.75.5-1.19.93-2.41 1.21-3.67.29-1.25.49-2.53.58-3.8.06-1.28.06-2.56-.11-3.82-.06 1.27-.16 2.53-.38 3.77-.19 1.24-.46 2.47-.84 3.66-.38 1.19-.8 2.36-1.33 3.49-.26.57-.54 1.12-.83 1.67a.99.99 0 0 1-.16.26 5.13 5.13 0 0 1-.35-.15l-.44-.19-3.51-1.47-1.76-.71c-.56-.22-1.12-.49-1.29-.86-.19-.31.1-1.03.22-1.62l.46-1.84c.27-1.24.58-2.47.82-3.72-.46 1.18-.86 2.39-1.29 3.58l-.6 1.81-.3.91c-.09.3-.19.74-.03 1.16.35.83 1.1 1.11 1.66 1.38l1.73.78 3.49 1.52.44.18c.16.06.26.12.51.2.07.02.16.03.26.03-.53.89-1.09 1.77-1.71 2.59-.72 1-1.52 1.94-2.38 2.81-.87.86-1.76 1.71-2.73 2.45-.48.36-.98.75-1.46 1.06-.47.31-.79.29-1.39.11-2.34-.7-4.61-1.67-6.78-2.82-2.06-1.11-4.01-2.43-5.86-3.9 1.05-.31 2.09-.63 3.12-.99l2.46-.91 1.22-.48c.41-.15.6-.2.97-.05 1.41.63 2.78 1.52 4.01 2.58-.03.12-.04.23-.04.33-.07-.1-.15-.21-.26-.3-.4.38-.49.71-.52 1.06 0 .34.09.68.48 1.07.4-.32.5-.69.52-1.06 0-.07-.01-.13-.02-.2.15.21.37.39.78.47.21-.46.15-.78.02-1.06-.09-.16-.22-.3-.4-.42.61-.71 1.08-1.49 1.5-2.3.49-1.02.92-2.07 1.08-3.26-.86.83-1.45 1.81-1.97 2.81-.4.82-.75 1.67-.96 2.6-.04-.01-.08-.03-.13-.04-.03.07-.05.13-.07.2-.99-1.29-2.23-2.4-3.72-3.2-.22-.11-.5-.21-.8-.21-.3 0-.55.08-.77.15l-1.25.41-2.48.86c-3.28 1.17-6.52 2.31-9.92 3.17.16-1.72.33-3.44.47-5.16.34-4.01.74-8 1.02-12.01v-.05l-.12-1.92v-.03c-.08-.46.01-1.1-.31-1.7-.31-.56-.75-.91-1.12-1.3-.78-.77-1.59-1.51-2.43-2.21-1.68-1.4-3.45-2.7-5.32-3.82 1.77 1.28 3.47 2.64 5.05 4.13.79.75 1.56 1.51 2.31 2.29.36.4.77.78.97 1.19.12.23.15.51.16.82-.37-.29-.91-.36-1.38-.23-.63.16-1.12.62-1.51 1.08-.74.96-1.41 1.93-2.08 2.93-1.31 2-2.43 4.12-3.41 6.31-.96 2.19-1.79 4.45-2.39 6.76-.3 1.16-.57 2.32-.79 3.49a45.13 45.13 0 0 0-.46 3.47c-.29.26-.54.56-.75.9-.37.12-.74.25-1.1.41 1.1.15 2.15.13 3.18.15.33.7.73 1.18 1.15 1.67.44.48.88.94 1.56 1.35.02-.8-.34-1.47-.81-2.02-.46-.49-1.03-.89-1.75-1 .24 0 .48 0 .72.02 1.31.05 2.55.22 3.9.62-.46-.55-1.09-.94-1.76-1.2-.67-.27-1.39-.38-2.1-.42-.56-.02-1.11.03-1.64.12.34-.17.68-.35 1.02-.52.82-.45 1.65-.84 2.52-1.43-1.04-.19-2.07.09-2.98.55-.4.22-.79.49-1.13.8.31-1.12.57-2.24.92-3.35.31-1.14.66-2.27 1.05-3.38.76-2.23 1.6-4.43 2.56-6.58.95-2.15 2.02-4.25 3.16-6.32.58-1.02 1.18-2.06 1.81-3.03.31-.47.69-.92 1.21-1.13.4-.16.91-.16 1.31.07 0 .19.01.38.03.6v-.03l.05 1.89c-.47 3.99-.82 7.98-1.23 11.98-.42 4-.76 8-1.11 12.01l-.53 6c-.07.92-.45 1.77-1.23 2.22-.77.47-1.76.63-2.74.75-.98.06-1.99.24-2.96.2-.97 0-1.85-.4-2.72-.9l-5.28-2.91 5.09 3.24c.83.54 1.82 1.07 2.89 1.1.52.04 1.03.01 1.54-.02l1.52-.08c1-.09 2.07-.2 3.05-.74.49-.27.92-.69 1.2-1.19.28-.5.43-1.05.49-1.59l.6-6c.23-2.28.45-4.56.67-6.83 1.26-.04 2.53-.18 3.78-.42-.02 2.07 0 4.14 0 6.2 0 .06.03.13.09.16s.73.41.73.41c-.41.79-.65 1.65-.81 2.5-.17.92-.28 1.84-.47 2.72-.18.89-.5 1.7-.89 2.55-.37.84-.77 1.77-.77 2.81 0 .13.08.24.19.31-.95 1.62-1.59 3.41-2.5 4.99-1.03 1.72-2.03 3.37-3.01 5.17-1.94 3.56-3.4 7.35-4.64 11.17-1.2 3.86-2.2 7.69-3.08 11.65a9.796 9.796 0 0 0-.1 3.19l.38 2.98c.28 1.98.56 3.96.92 5.94.07-2.01.06-4.01.05-6.01l-.05-2.99c-.02-.99.05-1.85.32-2.76l1.72-5.69c.57-1.91 1.13-3.81 1.75-5.69 1.19-3.78 2.53-7.49 4.14-11.09.82-1.76 1.7-3.64 2.51-5.46.71-1.77 1.09-3.58 1.67-5.35.02 0 .03.03.06.04h.01c2.05.46 3.92 1.56 5.88 2.53.88.44 1.79.81 2.72 1.14-.57-.11-1.13-.21-1.7-.32-2.49-.43-4.97-.9-7.53-1.18 2.35 1.04 4.84 1.69 7.35 2.16 1.95.34 3.93.57 5.92.59 1.91.55 3.84 1.06 5.82 1.4 2.11.37 4.29.52 6.45.23-.03 3.7-.58 7.3-1.3 10.89l-1.1 5.61c-.35 1.88-.65 3.77-.87 5.68.61-1.82 1.15-3.66 1.64-5.51.5-1.85.94-3.71 1.32-5.59.36-1.89.65-3.8.74-5.73.1-1.8 0-3.6-.34-5.36h.11c.2-.03.37-.2.38-.41.09-1.91.11-3.82.01-5.73-.11-1.91-.21-3.81-.6-5.71zm-.28 11.02c-1.98.22-4 .06-5.98-.31-2.11-.39-4.18-1-6.28-1.57-2.09-.58-4.15-1.17-6.07-2.11-1.83-.87-3.67-1.93-5.76-2.43.05-.72.3-1.46.6-2.2.36-.84.69-1.77.85-2.71.3-1.72.33-3.44.97-4.97.25 1.15.85 2.13 1.55 3.01.73.87 1.59 1.64 2.67 2.11-.54-1.05-1.22-1.89-1.9-2.75-.71-.83-1.41-1.65-2.32-2.39.05-.12.09-.24.15-.36s0-.01 0-.01c.05-.1 0-.23-.1-.28l-.84-.41c-.12-2.03-.22-4.06-.37-6.08.48-.09.95-.19 1.42-.3.63-.15 1.26-.33 1.88-.51 1.62 1.76 3.5 3.28 5.54 4.55 2.14 1.35 4.46 2.37 6.89 3.12.32.09.68.18 1.09.15.43-.03.81-.21 1.09-.4.56-.38 1.04-.75 1.54-1.16.97-.82 1.89-1.69 2.7-2.67.21-.25.4-.51.61-.77l-.98 4.91c-.09.46-.19.94-.22 1.43-.04.5.05 1.02.2 1.48.33.92.62 1.77.77 2.7.32 1.83.36 3.74.4 5.62.02 1.76-.01 3.52-.1 5.28z"/><path class="cls-4" d="M133.78 133.58c.81.82 1.75 1.36 2.72 1.83.98.45 2 .83 3.15.93-.81-.82-1.75-1.36-2.72-1.83-.99-.44-2-.82-3.15-.93zM139.78 161.82c-.78.88-1.52 1.8-2.29 2.7l-2.31 2.89c-1.54 1.93-3.01 3.9-4.48 5.88l-2.17 2.99-1.07 1.51-.53.75c-.16.23-.41.61-.41 1.04 0 .39.06.66.08.98l.1.92.21 1.83c.18 1.22.32 2.44.52 3.66.02-1.23-.02-2.47-.04-3.7l-.07-1.85-.04-.92c0-.3-.04-.64-.01-.86.02-.34.57-.87.9-1.35l1.12-1.46 2.21-2.95c1.45-1.98 2.9-3.97 4.29-6l2.08-3.05c.63-.98 1.28-1.95 1.89-2.95 0 .11-.02.22-.03.33-.17 2.16-.27 4.32-.36 6.48-.07 2.16-.14 4.32-.13 6.49l.02 3.24c.04 1.08.05 2.16.12 3.25.15-1.08.24-2.16.37-3.23l.26-3.23c.17-2.16.27-4.31.36-6.47.07-2.16.14-4.32.13-6.48 0-2.16-.01-4.33-.14-6.5-.27 2.02-.44 4.05-.59 6.08zM164.01 83.36c.43-.64.64-1.36.89-1.99.48-1.27 1.12-2.47 1.89-3.58.41-.55.76-1.14 1.23-1.27.53-.16 1.29-.2 1.94-.22 1.36-.03 2.73.14 4.09.51-1.23-.68-2.63-1.09-4.07-1.21-.74-.03-1.4-.1-2.22.09-.43.11-.82.4-1.08.69-.27.29-.47.57-.69.86a13.8 13.8 0 0 0-1.98 3.83c-.22.68-.4 1.33-.69 1.89-.29.54-.75 1.02-1.32 1.17h-.04s-.06.03-.08.05a.27.27 0 0 0-.06.38c.64.9 1.7 1.43 2.72 1.41a3.43 3.43 0 0 1-2.03-1.38c.63-.21 1.15-.68 1.5-1.21z"/><path class="cls-4" d="M166.22 84.35c.3-.49.51-1.01.72-1.51.41-1.01.75-2.02 1.31-2.85.54-.84 1.28-1.52 2.22-1.75.95-.25 2.04-.09 3.14.04-.96-.52-2.06-.94-3.27-.81-1.24.11-2.29.99-2.92 1.96-.64 1-.95 2.1-1.21 3.15-.29 1.04-.41 2.12-1.23 2.89.53-.18.95-.65 1.25-1.13zM184.81 76.93c-1.79-1.35-3.83-2.23-6.01-2.57-1.09-.16-2.25-.07-3.27.34-1.02.38-1.95.92-2.85 1.48.98-.41 1.96-.86 2.97-1.1 1.01-.25 2.03-.3 3.04-.07 1.99.47 3.93 1.41 5.51 2.66.38.31.69.67.88 1.06.2.4.28.88.37 1.4l.57 3.14c.22 1.05.35 2.07.67 3.17.27.89.9 1.83 1.85 2.22-.57.47-1.23.84-1.94 1.09-.9.31-1.87.4-2.84.27.94.29 1.96.3 2.94.09.99-.21 1.92-.69 2.69-1.37.05-.04.08-.1.1-.17.03-.17-.07-.33-.24-.36h-.03c-.89-.19-1.49-1.07-1.72-2.01-.25-.95-.35-2.05-.54-3.09l-.53-3.15c-.09-.52-.2-1.1-.47-1.66-.28-.56-.71-1.01-1.15-1.37z"/><path class="cls-4" d="M180.64 88.85c-.5-.33-.83-.79-1.04-1.32-.21-.54-.34-1.13-.46-1.75l-.4-1.86c-.3-1.24-.59-2.45-.97-3.7-.11-.32-.25-.68-.52-.96-.26-.28-.59-.46-.91-.57-.64-.21-1.25-.29-1.83-.56.46.47 1.12.67 1.62 1 .54.31.78.71.89 1.3.21 1.22.47 2.49.75 3.72.33 1.23.49 2.47 1.13 3.72.32.61.88 1.16 1.51 1.41.64.25 1.27.35 1.92.39-.59-.26-1.2-.46-1.68-.82z"/><path class="cls-4" d="M183.74 88.37c.47.72 1.35 1.28 2.18 1.04-.83 0-1.47-.61-1.75-1.28-.31-.69-.34-1.46-.42-2.27-.15-1.62-.43-3.23-.79-4.82-.21-.8-.36-1.56-.69-2.39-.18-.41-.42-.83-.8-1.15-.38-.33-.86-.5-1.3-.57-.9-.13-1.68-.01-2.49.01-.81.07-1.62.1-2.43.2.81.13 1.61.19 2.42.28.8.09 1.64.09 2.34.26 1.46.26 1.56 2.06 1.97 3.59.38 1.56.69 3.12.99 4.7.15.78.29 1.65.76 2.4zM170.27 92.95c.53.09 1.07.15 1.6.12-.25-.2-.51-.36-.76-.51.04-.05.1-.1.13-.15.15-.21.25-.42.33-.62.18-.4.29-.83.38-1.26.15-.86.1-1.77-.25-2.58-.26.84-.45 1.61-.68 2.36-.11.38-.24.75-.36 1.12-.14.39-.25.69-.4.83l-.14.12c-.06.05-.1.11-.11.19-.03.18.09.35.26.38zM171.93 96.65c.72.15 1.58-.05 2.01-.7-.75-.08-1.26-.16-1.81-.27-.55-.11-1.04-.25-1.76-.47.13.77.84 1.29 1.56 1.45zM169.27 85.42c-.56.08-1.14.5-1.16 1.13l1.3-.14 1.29-.22c-.2-.61-.87-.85-1.43-.77zM174.3 86.58c.21-.06.4-.15.69-.41.07.32.13.63.21.96.2.64.47 1.31.96 1.86s1.13.92 1.79 1.12c1.34.42 2.67.19 3.91-.07-1.28-.11-2.57-.18-3.64-.66-1.11-.46-1.76-1.35-2.06-2.53-.32-1.17-.6-2.45-.96-3.66a37.02 37.02 0 0 0-1.22-3.64c.09 1.28.24 2.55.46 3.81.14.83.3 1.65.47 2.47-.24-.23-.55-.27-.82-.22-.35.09-.69.34-.72.84.47.16.69.17.94.13zM186.41 107.77c-1.33-.86-2.7-1.67-4.25-2.22 1.1 1.2 2.38 2.16 3.7 3.05 1.34.87 2.72 1.68 4.25 2.22-1.11-1.21-2.39-2.17-3.7-3.05zM168.4 147.59l-.95.06c0-.12.12-.2.07-.16-.03.01-.12.03-.19.03h-.74c-.5 0-.99.02-1.49.03-.99.02-1.98.07-2.96.12-1.96.08-3.91.11-5.82-.5.85.53 1.83.87 2.82 1.07 1 .2 2.01.27 3.01.3 1 .03 1.99 0 2.98 0 .5 0 .99-.01 1.49-.03l.75-.02c.08 0 .15-.01.23-.02l.06.37v.03c.03.15.14.28.29.33 1.95.62 3.92 1.18 5.94 1.62a67.36 67.36 0 0 0-5.38-2.35l-.1-.88zM172.48 142.09c-.44-.58-.9-.9-1.39-1.21-.51-.29-1.01-.54-1.73-.66.19.7.67 1.17 1.21 1.51.55.32 1.2.52 1.91.35zM169.93 142.93c.3.33.74.58 1.3.47-.12-.55-.31-.84-.55-1.12-.25-.27-.51-.49-1.04-.69-.19.54 0 1 .29 1.35z"/><path class="cls-4" d="M187.46 112.44c-.18-.74-.81-1.29-1.33-1.73-.53-.47-1.07-.9-1.62-1.33-1.11-.85-2.21-1.69-3.49-2.39.24-.27.47-.55.71-.91.17-.27.28-.64.26-.97 0-.33-.11-.63-.22-.9-.47-1-1.2-1.8-2.07-2.38l.29-1.22c.39-1.66.72-3.34.98-5.04a64.6 64.6 0 0 0-1.73 4.83c-.28.78-.5 1.69-.77 2.39-.15.34-.31.53-.62.71-.3.17-.71.32-1.1.47-1.53.62-3.17 1.04-4.56.31-.67-.34-1.2-.94-1.33-1.73-.15-.69-.01-1.44.12-2.19.46.19.94.34 1.45.41 1.26.19 2.5-.22 3.52-.78a9.12 9.12 0 0 0 4.2-4.77c.24.15.5.25.76.28.47.07.93-.01 1.35-.18.42-.17.79-.45 1.07-.82.26-.36.44-.77.53-1.18.18-.84.08-1.68-.12-2.47-.1-.38-.24-.83-.61-1.08-.36-.25-.97-.09-1.02.34.1-.42.68-.45.92-.22.28.24.37.63.43 1.02.12.77.13 1.57-.1 2.28-.21.72-.68 1.31-1.35 1.52-.65.24-1.42.1-1.74-.39a.358.358 0 0 0-.19-.15c-.2-.07-.42.03-.49.23v.03c-.74 2.01-2.23 3.72-4.11 4.7-.94.49-1.95.8-2.94.67-1-.12-1.98-.6-2.81-1.23-1.67-1.29-2.79-3.28-3.28-5.4-.45-2.01-.44-4.13-.25-6.23.36-.29.68-.63.96-.96.42-.51.79-1.02 1.16-1.55.72-1.05 1.36-2.22 1.89-3.33.27-.53.62-.93 1.17-1.16.53-.26 1.18-.33 1.81-.45-.63-.1-1.28-.15-1.96-.01-.68.13-1.32.65-1.68 1.22-.71 1.11-1.33 2.14-2.05 3.18-.72 1.02-1.38 2.13-2.27 2.8-.46.33-.98.51-1.55.4-.56-.08-1.12-.44-1.28-1.07-.08.68.5 1.3 1.14 1.54.33.12.69.18 1.07.14.37-.05.71-.17 1.02-.34.18-.1.35-.21.51-.33-.43 2.05-.66 4.18-.29 6.3.37 2.26 1.44 4.5 3.31 6.01.53.43 1.12.78 1.75 1.04-.07.17-.14.34-.21.52-.34-.03-.68.11-.97.3-.3.2-.57.43-.83.67-.51.49-.97 1.04-1.34 1.65-.19.3-.37.62-.52.94 0 .01 0 .02-.01.03-.85-.3-1.66-.32-2.47-.27-.78.08-1.55.23-2.32.62l-.32-.8c-.24-.68-.48-1.35-.65-2.05-.75-2.78-1.05-5.66-1.31-8.56-.28-2.9-.49-5.84-1.14-8.72-.32-1.43-.7-2.9-1.46-4.21-.38-.63-.89-1.29-1.65-1.56-.37-.14-.82-.08-1.14.11-.32.16-.64.43-1 .28.34.2.74-.03 1.06-.15.33-.15.67-.15.98 0 .62.29 1.02.91 1.32 1.54.63 1.27.92 2.69 1.14 4.12.46 2.85.65 5.75.9 8.67.29 2.91.62 5.87 1.57 8.69.22.71.51 1.39.8 2.07l.48 1c.17.33.33.64.43.95.22.62.02 1.33-.24 2-.27.68-.52 1.36-.77 2.05.35-.64.69-1.29 1.01-1.95.32-.64.66-1.41.47-2.23-.09-.39-.26-.74-.4-1.07l-.03-.06c.79.25 1.57.28 2.34.23.8-.08 1.59-.23 2.35-.64-.06.12-.12.25-.16.46-.07.31.08.61.13.76l.24.55c-.34-.26-.66-.27-.95-.2-.3.11-.59.32-.7.8.44.23.72.22 1 .15.25-.09.48-.24.7-.63l.52 1.22.43.94.21.47.11.23c.04.08.05.14.17.31.06.08.15.18.31.24.15.06.34.05.44 0 .22-.09.28-.17.35-.22l.41-.34c.27-.22.53-.46.78-.71.67-.64 1.27-1.34 1.81-2.09-1.04 3.16-1.79 6.41-2.45 9.67-.62 3-1.15 6-1.75 8.99a.719.719 0 0 0-.2-.39c-.16-.11-.34-.15-.78-.05-.16.43-.02.68.16.84.18.12.42.18.74.02-.07.33-.12.67-.19 1l-.03.15c-.21-.36-.44-.46-.68-.49-.25 0-.5.07-.78.45.22.41.47.52.72.55.23 0 .47-.07.72-.38l-1.05 4.92c-.34 1.74-.79 3.45-.97 5.23-.44 3.53-.61 7.05-1.37 10.51.59-1.67.95-3.42 1.29-5.16l.85-5.23c.29-1.73.74-3.44 1.14-5.16.39-1.72.79-3.43 1.16-5.17.71-3.48 1.26-6.98 1.8-10.47.52-3.32 1.09-6.63 1.79-9.93.2-.28.38-.57.56-.86.09.01.18.03.27.04.12.85.28 1.7.48 2.53-.72 3.21-1.34 6.43-1.94 9.65-.62 3.26-1.16 6.54-1.7 9.81-.52 3.28-1.03 6.56-1.47 9.85l-.66 4.94c-.18 1.65-.4 3.3-.55 4.96.38-1.62.69-3.25 1.03-4.88l.93-4.89c.62-3.26 1.16-6.54 1.7-9.82.52-3.28 1.03-6.56 1.47-9.86.44-3.24.87-6.47 1.19-9.73.04.15.06.3.1.44.28 1.08.62 2.15 1.01 3.2.02.04.04.09.07.13.16.19.44.22.63.06h.02a41.059 41.059 0 0 0 5-4.97c.74 1.27 1.76 2.28 2.88 3.18.57.43 1.16.84 1.79 1.19.63.36 1.24.59 1.78 1.09zm-16.99-4.43-.81.61-.29.21-.68-1.58-.86-1.87c-.06-.16-.1-.18-.1-.22 0-.06.07-.24.13-.39.12-.31.25-.61.39-.91.29-.59.63-1.17 1.03-1.71.39-.52.77-1.09 1.42-1.26-.2.54-.34 1.11-.33 1.73.01.94.61 1.86 1.43 2.35.47.3 1.01.48 1.56.56-.94.88-1.9 1.72-2.89 2.5zm9.56-1.23c-1.35 1.38-2.72 2.72-4.13 4.04-.35-.81-.69-1.62-1.02-2.44-.37-.93-.73-1.87-1.1-2.82.25.02.49.02.73 0 .92-.08 1.78-.36 2.6-.67.4-.17.8-.3 1.24-.56.44-.24.85-.73 1-1.2.17-.47.24-.86.35-1.28.69.76 1.22 1.64 1.52 2.55.14.48.13.91-.13 1.23-.28.34-.71.75-1.06 1.13z"/><path class="cls-4" d="M186.16 114.68c-.85 1.48-1.45 3.07-1.73 4.76 1.01-1.39 1.76-2.85 2.59-4.25.81-1.42 1.69-2.75 2.69-4.13-1.54.79-2.69 2.17-3.55 3.62zM128.47 105.01c.58.24 1.1.14 1.56-.06.32-.16.62-.38.84-.71.04.18.09.35.15.51l.04.11s0 .01.01.02c-.06.3-.09.6-.09.9 0 .51.08 1 .2 1.48.26.95.6 1.9 1.23 2.73.13-1.06-.02-2.01-.26-2.94-.2-.68-.38-1.33-.62-2.01.42-.04.74-.34.76-.68-.21.14-.42.16-.58.12.03-.61.03-1.17.18-1.58.08-.22.2-.41.45-.64l.02-.02c0 .54.04 1.07.17 1.63.28-.51.46-1.03.6-1.55.08-.26.13-.49.23-.64.08-.15.2-.27.39-.39.34-.26.89-.47 1.33-.75.07-.04.13-.09.2-.13-.27.39-.44.84-.57 1.29-.14.52-.23 1.03-.33 1.5-.11.48-.22.97-.39 1.07-.17.16-.6.19-1.05.18-.06-.27-.13-.55-.23-.82-.12.36-.2.73-.26 1.09-.02.1.04.19.13.23l.08.03c.48.19 1.1.43 1.83.07.36-.19.56-.58.66-.86.02-.06.03-.12.05-.18.28.14.59.21.91.21.22 0 .5.03.86-.29.16-.17.21-.35.24-.45l.1-.3v-.04c.17.05.35.04.51 0 .31-.09.57-.32.72-.63.26-.6.1-1.22-.38-1.57-.29.54-.38.89-.52 1.15-.04.11-.12.23-.2.37.08-.6.06-1.21-.15-1.82-.5.77-.73 1.52-.96 2.3-.04.19-.12.45-.08.39.07 0-.09.08-.27.15-.22.08-.45.14-.71.2.02-.1.04-.2.05-.3.15-1.07.04-2.01.07-3.04.34-.22.68-.46 1.01-.77-.57.01-1.11.12-1.65.27-.55.16-1.05.28-1.59.64-.26.19-.53.47-.67.81-.04.1-.05.19-.07.28-.15.04-.3.07-.45.13-.34.11-.75.4-.96.8-.23.45-.27.89-.23 1.31-.47 0-.84.11-1.19.26-.41.21-.79.45-1.14.96zM155.51 95.04c-.22 1.33.08 2.62.37 3.83.31 1.22.64 2.36.92 3.65.51-1.25.35-2.65.05-3.89-.33-1.25-.77-2.4-1.34-3.59zM158.94 101.26c.28-.45.26-.8.17-1.14-.12-.32-.31-.63-.79-.84-.27.45-.25.8-.17 1.14.12.32.3.63.79.84zM164.45 156.39h-.04c-.34.03-.62.29-.73.49-.13.21-.19.4-.25.58a25.376 25.376 0 0 0-.57 2.91c-.16 1.31-.21 2.62-.1 3.94.39-1.27.65-2.53.96-3.78l.44-1.88.14-.59c.32 1.14.7 2.27 1.18 3.4-.04-1.58-.26-3.15-.55-4.7a.457.457 0 0 0-.48-.37zM21.22 107.21c.26-.93.42-1.86.53-2.81.19-1.89.05-3.86-.64-5.67-.34-.9-.84-1.78-1.57-2.44-.75-.64-1.61-1.04-2.47-1.38.76.54 1.56 1.03 2.13 1.72.58.67.93 1.49 1.18 2.34.49 1.72.57 3.54.38 5.33-.16 1.8-.65 3.54-1.21 5.3-.56 1.76-1.15 3.52-1.66 5.31.87-1.65 1.7-3.31 2.39-5.05.36-.86.67-1.75.94-2.66zM48.88 104.95c.54 2.49.42 5.07-.3 7.46-.72 2.38-2.03 4.56-3.78 6.25-.22.22-.51.47-.73.86-.22.39-.29.81-.32 1.16l-.12 1.92c-.08 1.25-.21 2.51-.37 3.75-.29 2.23-.71 4.44-1.22 6.62-.42-.46-.85-.84-1.28-1.22-.61-.5-1.21-1.01-2.01-1.44.17.9.72 1.62 1.36 2.2.53.44 1.14.78 1.83.93-.02.1-.05.2-.07.3l1.52.79c-.04.08-.19.15-.33.18-.13-.12-.27-.24-.44-.32l-.04.19s-.03-.04-.04-.1c-.03-.05.03-.27.05-.29.03-.05.04-.03-.07 0-.1.03-.26.06-.46.08-.11.01-.23.06-.33.12-.47-.36-.89-.49-1.32-.57-.45-.05-.89-.07-1.47.15.33.53.82.75 1.32.84.42.05.85.01 1.26-.23-.25.29-.28.72-.04 1.04l.27.37s.05.04.1.26c.04.21.05.5.03.82l-.11 2.13-.17 3.71c-1.44.67-3.63.52-5.58.62l-3.29.1c-1.09 0-2.18-.04-3.25-.13-2.14-.19-4.22-.62-6.08-1.53-1.88-.91-3.56-2.27-5.14-3.76-.4-.37-.84-.77-.9-.96-.04-.09-.05-.11 0-.29.04-.16.16-.41.27-.67l1.34-3.05c.42-.95.81-1.83 1.22-2.84.22.84.66 1.59 1.2 2.24.7.8 1.55 1.48 2.62 1.78-.58-.93-1.22-1.66-1.86-2.43-.58-.66-1.14-1.32-1.82-1.97.09-.29.16-.63.08-1.05 0-.04-.03-.07-.04-.11 1.09 1.11 2.44 1.95 3.89 2.52 1.79.68 3.76.99 5.65.64-1.85-.45-3.6-.91-5.29-1.57-1.6-.6-3.11-1.38-4.67-2.23-.12-.1-.23-.17-.31-.23-.07-.05-.11-.08-.14-.09.04-.13.2-.48.26-.74.31-1.24.13-2.37.1-3.47l-.17-3.33c-.11-2.22-.22-4.44-.38-6.66-.1 2.22-.16 4.44-.21 6.67l-.08 3.33c-.04 1.11 0 2.24-.29 3.16-.08.26-.16.35-.32.78-.08.21-.07.61.11.85.16.25.34.36.45.45.27.2.24.2.26.27.01.08-.02.28-.11.48l-1.44 2.94-1.46 2.99c-.12.25-.26.49-.38.86-.13.35-.16.92.03 1.34.16.39.38.65.58.88-1.1.78-1.95 1.84-2.6 2.99-.67 1.24-1.15 2.61-1.19 4.05.79-1.2 1.39-2.39 2.06-3.57.6-1.11 1.23-2.19 1.81-3.38l.57.59c1.6 1.6 3.38 3.11 5.48 4.2 2.11 1.1 4.45 1.61 6.73 1.82 1.14.11 2.28.15 3.41.17l3.37-.08c1.13-.04 2.24-.05 3.38-.13.6-.05 1.25-.14 1.89-.31l-1.81 13.93-2.04 14.5c.72-2.34 1.29-4.73 1.79-7.12.51-2.39.9-4.81 1.25-7.24.32-2.43.59-4.86.73-7.31.07-1.22.13-2.45.17-3.67 0-1.04.02-2.08 0-3.12.56-.16 1.12-.38 1.65-.73.25-.17.42-.45.44-.77l.16-4.27.07-2.14c.01-.38.01-.82-.1-1.31-.01-.05-.04-.12-.05-.18.19-.13.38-.3.52-.53.05-.08.15-.28.18-.44.04-.17.03-.34 0-.48-.05-.29-.17-.52-.33-.72-.06-.08-.14-.15-.22-.22.47-2.23.8-4.49 1-6.75.11-1.28.19-2.57.23-3.85l.02-1.89c.02-.59.13-.79.61-1.29 1.82-1.93 3.03-4.37 3.59-6.91.56-2.53.48-5.2-.33-7.62zM56.62 126.9c.12-.54.13-.83.1-1.15-.05-.32-.13-.6-.39-1.09-.5.25-.65.76-.61 1.21.07.45.34.91.89 1.02zM13.91 129.61c0-1.22-.07-2.5-.12-3.67-.02-.58.07-1.08.27-1.65l.6-1.73 1.17-3.48c.36-1.17.74-2.34 1.07-3.52-.54 1.1-1.02 2.23-1.53 3.35l-1.43 3.39c-.24.57-.48 1.12-.7 1.71-.24.58-.4 1.3-.39 1.94.03 1.28.08 2.44.07 3.67.02 2.43-.11 4.86-.29 7.29-.09 1.22-.22 2.43-.38 3.64-.13 1.22-.32 2.42-.49 3.64.75-2.34 1.27-4.75 1.63-7.19.37-2.44.52-4.91.53-7.38z"/><path class="cls-4" d="M26.26 114.52c1.41.84 3.13 1.09 4.77.93 1.64-.18 3.26-.78 4.47-1.9-1.58.41-3.05.76-4.58.9-1.52.17-3.03.14-4.66.06zM24.3 161.49c1.02-1.25 1.78-2.65 2.46-4.07.65-1.44 1.25-2.91 1.55-4.5-1.03 1.27-1.78 2.65-2.46 4.07-.65 1.43-1.24 2.89-1.55 4.5zM102.73 53.9c7.97 2.76 15.98 5.39 23.97 8.08l-.6 7.51.55-4.33c4.9.56 9.81 1.01 14.72 1.45 4.94.44 9.89.79 14.83 1.19 4.95.32 9.9.68 14.85.96l7.43.4c2.48.1 4.96.23 7.44.29-2.47-.29-4.94-.52-7.4-.78l-7.41-.68c-4.94-.44-9.89-.79-14.83-1.19-4.95-.32-9.9-.68-14.85-.96-4.92-.28-9.84-.54-14.77-.69l.41-3.27c0-.08-.03-.15-.11-.18-7.94-2.96-15.86-5.99-23.83-8.88l-23.88-8.76a.808.808 0 0 0-.27-.05h-.01L74.98 44a.86.86 0 0 0-.85.74l-4.77 34.92-4.55 34.95c-.57 4.28-1.11 8.57-1.64 12.86-.5-.67-1.07-1.29-1.71-1.84-.5-.45-1.05-.85-1.61-1.22-.57-.38-1.22-.64-1.39-1.01-.24-.39-.35-1.12-.53-1.74-.18-.63-.34-1.27-.54-1.9-.37-1.26-.8-2.51-1.29-3.75.12 1.32.29 2.63.54 3.93.11.65.25 1.29.38 1.94.17.64.19 1.26.59 2.03.22.38.59.65.9.82l.86.48c.56.31 1.09.67 1.62 1.03.73.52 1.44 1.09 2.13 1.69-.36 2.87-.71 5.75-1.06 8.63-2.89-2.69-5.95-5.18-9.04-7.61-.44-.34-.69-.53-.82-.95-.14-.42-.27-.98-.41-1.46-.29-1-.57-2-.88-2.99-.59-1.99-1.25-3.97-1.96-5.93.34 2.06.75 4.1 1.21 6.13.22 1.02.48 2.02.71 3.03.13.52.23.98.41 1.55.09.28.26.6.48.84.22.24.45.41.65.57 3.13 2.42 6.31 4.78 9.64 6.93-.53 4.3-1.05 8.61-1.57 12.91-.72 5.83-1.42 11.66-2.07 17.5l-1.97 17.51 2.67-17.42c.89-5.81 1.74-11.62 2.57-17.43 1.67-11.63 3.38-23.25 4.93-34.9l4.74-34.92 4.42-34.21h3.12c-1.6 11.51-3.1 23.04-4.59 34.57l-4.44 35.45-4.21 35.48-2.02 17.75-1.92 17.76 2.41-17.7 2.3-17.72 4.44-35.45 4.21-35.48c1.33-11.54 2.64-23.09 3.85-34.65l23.87 8.18z"/><path class="cls-4" d="M125.02 79.55c-.79 3.4-1.27 6.83-1.69 10.28-.38 3.45-.69 6.9-.69 10.39.79-3.4 1.27-6.83 1.69-10.28.38-3.45.69-6.9.69-10.39zM167.84 62.01c-5.31-.48-10.62-.87-15.93-1.31-5.32-.36-10.63-.76-15.95-1.08-5.32-.32-10.64-.62-15.97-.81 5.3.6 10.6 1.1 15.91 1.57 5.31.48 10.62.87 15.93 1.31 5.32.36 10.63.76 15.95 1.08l7.98.46c2.66.12 5.32.27 7.99.35-2.65-.31-5.3-.56-7.95-.84l-7.96-.74zM148.68 59.31c5.6.36 11.2.76 16.81 1.08l8.41.46c2.81.12 5.61.27 8.42.35-2.79-.31-5.59-.56-8.38-.84l-8.39-.74c-5.6-.48-11.2-.87-16.79-1.31-5.6-.36-11.2-.76-16.81-1.08-5.61-.32-11.21-.62-16.83-.81 5.59.6 11.18 1.1 16.78 1.58 5.6.48 11.2.87 16.79 1.31z"/></g><ellipse class="cls-4" cx="33.12" cy="67.66" rx="1.59" ry=".56" transform="rotate(-86.3 33.116 67.66)"/><ellipse class="cls-4" cx="41.19" cy="69.49" rx="1.59" ry=".56" transform="rotate(-71.47 41.188 69.491)"/><ellipse class="cls-4" cx="114.99" cy="79.47" rx="1.59" ry=".56" transform="rotate(-71.47 114.985 79.473)"/><ellipse class="cls-4" cx="108.66" cy="78.9" rx="1.59" ry=".56" transform="rotate(-85.71 108.652 78.905)"/><ellipse class="cls-4" cx="145.53" cy="86.39" rx="1.18" ry=".56" transform="rotate(-80.35 145.52 86.39)"/><ellipse class="cls-4" cx="168.7" cy="89.25" rx=".56" ry="1.18" transform="rotate(-9.95 168.634 89.221)"/><ellipse class="cls-4" cx="175.09" cy="89.25" rx=".56" ry="1.18" transform="rotate(-9.95 175.055 89.26)"/><ellipse class="cls-4" cx="140.1" cy="86.12" rx="1.18" ry=".56" transform="rotate(-80.35 140.091 86.117)"/><path class="cls-4" d="M192.6 97.58c-.11-6.34-.82-12.66-2.14-18.84-1.34-6.18-3.24-12.22-5.7-18.03a100.038 100.038 0 0 0-20.92-31.22c-4.43-4.49-9.27-8.57-14.47-12.16a96.715 96.715 0 0 0-16.54-9.26C121.2 2.97 108.51.21 95.74 0 82.98-.14 70.13 2.3 58.35 7.31c-1.48.61-2.91 1.32-4.37 1.97-1.44.68-2.84 1.46-4.27 2.19-1.4.77-2.75 1.62-4.13 2.43-1.36.84-2.67 1.75-4 2.63-5.26 3.61-10.09 7.82-14.48 12.42-8.79 9.2-15.61 20.12-20.19 31.84-2.26 5.87-4.05 11.92-5.17 18.09C.59 85.04-.02 91.31 0 97.58c-.03 6.27.56 12.54 1.72 18.7 1.12 6.18 2.9 12.23 5.16 18.1 4.58 11.72 11.4 22.66 20.18 31.88 8.74 9.23 19.41 16.76 31.22 21.77 11.78 5.08 24.63 7.61 37.47 7.7 12.84 0 25.71-2.5 37.54-7.52 11.84-4.99 22.64-12.34 31.64-21.45 9.02-9.1 16.14-20.03 20.88-31.88 4.8-11.84 6.99-24.64 6.8-37.31zm-2.74 0a94.48 94.48 0 0 1-2.14 18.3c-1.32 6-3.18 11.86-5.59 17.49-4.82 11.25-11.88 21.49-20.54 30.07-8.68 8.56-19.05 15.4-30.31 19.97-5.64 2.27-11.47 4.04-17.43 5.22-5.96 1.18-12.04 1.75-18.11 1.78-6.08.03-12.16-.53-18.13-1.68-5.97-1.15-11.83-2.89-17.49-5.14-1.42-.55-2.8-1.2-4.2-1.8-1.39-.62-2.74-1.34-4.11-2.01-1.36-.69-2.68-1.45-4.03-2.18-1.32-.76-2.61-1.59-3.92-2.37-5.14-3.31-10.02-7.06-14.48-11.29-8.91-8.46-16.26-18.7-21.24-30.07-2.53-5.67-4.39-11.64-5.69-17.73-1.28-6.1-1.89-12.33-1.94-18.56.04-6.23.65-12.47 1.92-18.57 1.31-6.09 3.16-12.06 5.68-17.74 4.98-11.38 12.33-21.63 21.23-30.11 4.46-4.24 9.34-8 14.47-11.34 1.31-.8 2.59-1.63 3.91-2.39 1.34-.73 2.66-1.5 4.02-2.2 1.37-.67 2.72-1.4 4.11-2.03 1.4-.61 2.78-1.27 4.2-1.83 5.66-2.28 11.52-4.07 17.5-5.27 5.99-1.18 12.08-1.87 18.2-1.93 12.23-.19 24.54 1.95 36.01 6.46a94.253 94.253 0 0 1 16.47 8.4 91.656 91.656 0 0 1 14.47 11.6c8.82 8.71 15.86 19.24 20.5 30.73 4.69 11.48 6.84 23.91 6.67 36.22z"/></g></g></svg>