<svg width="217" height="193" viewBox="0 0 217 193" fill="none" xmlns="http://www.w3.org/2000/svg">
<g filter="url(#filter0_d_2222_5849)">
<circle cx="107" cy="98" r="90" fill="#5C9E12"/>
</g>
<path d="M216.741 104.414C213.119 106.31 209.41 108.119 205.788 110.015C204.235 110.791 202.683 111.739 201.13 112.342C200.699 112.514 200.527 112.6 200.785 113.031C201.389 114.065 201.82 115.099 202.424 116.133C202.769 116.737 202.683 116.995 202.079 117.34C196.99 120.011 191.902 122.855 187.072 125.957C177.498 131.903 168.529 138.625 159.645 145.605C154.039 150 148.95 154.739 143.603 159.393C142.568 160.341 141.36 160.944 140.239 161.719C139.808 161.978 139.291 162.15 138.859 162.064C136.444 161.461 134.029 162.236 131.701 162.667C123.248 164.305 114.796 165.511 106.344 166.89C99.1852 168.096 92.1991 169.82 85.213 171.543C81.9356 172.319 78.6582 173.008 75.467 173.956C72.7071 174.732 70.0334 175.593 67.1872 176.11C62.0123 177.058 56.7512 177.231 51.5763 176.714C49.6788 176.541 47.7814 176.283 45.9702 176.11C44.504 175.938 43.6415 175.162 43.2965 173.87C42.6065 171.371 41.9165 168.872 41.2265 166.459C38.6391 157.497 36.0517 148.535 32.5155 139.917C30.618 135.436 28.3756 131.128 26.4781 126.647C21.9932 116.047 16.9908 105.706 12.1609 95.1932C8.45228 87.179 4.82988 79.0787 1.20747 71.0645C0.776227 70.0304 0.43124 68.9963 0 67.9622C0 67.4452 0 67.0143 0 66.4973C1.20747 64.5153 3.19117 63.3089 5.08863 62.1024C5.95111 61.4992 6.72733 60.9822 7.58982 60.4651C8.36605 59.9481 9.05604 59.6034 9.05604 58.4831C9.05604 57.6214 9.91851 57.2767 10.6085 57.0182C12.9372 56.1564 15.3521 55.5532 17.6808 54.8638C24.7532 52.7957 31.8255 50.5551 38.9841 48.9178C44.3315 47.7114 49.7651 46.505 55.1125 45.6432C55.3712 45.6432 55.63 45.557 55.8887 45.2985C57.9587 43.4027 60.4598 42.7995 63.1335 42.3686C68.3084 41.5931 73.4833 41.2484 78.6582 40.8175C83.1431 40.4728 86.3343 42.3686 88.7492 45.9017C89.0079 46.3326 89.3529 46.6773 89.5254 47.1082C89.9567 48.7455 91.0779 49.2625 92.7166 49.2625C95.994 49.3487 99.1852 50.2104 102.376 50.8998C103.584 46.7635 105.999 43.2304 108.5 39.7834C115.831 29.6149 124.887 21.0837 134.978 13.7589C140.929 9.45022 146.708 5.14154 153.004 1.34989C154.384 0.488151 154.901 0.746678 155.333 2.29781C155.505 2.9872 155.591 3.67659 155.678 4.45215C155.85 5.57241 156.023 5.65857 156.971 5.14153C160.421 3.50423 163.871 1.69459 167.58 0.57433C169.822 -0.11506 169.822 -0.718287 170.857 2.12545C176.205 16.4303 182.501 30.3905 188.452 44.523C196.904 64.6876 206.478 84.3353 216.569 103.724C216.655 103.897 216.655 104.241 217 104.241V104.414H216.741ZM98.754 109.498C99.9614 109.498 101.169 109.153 102.29 108.636C104.274 107.688 106.43 107.43 108.586 108.119C109.017 108.292 109.794 108.119 109.621 109.067C109.19 109.153 108.845 108.895 108.5 108.895C107.81 108.464 106.948 108.464 106.171 108.55C103.066 108.981 100.22 110.187 97.2878 111.135C95.304 111.739 93.6654 113.117 92.0266 114.496C90.9917 115.358 90.6467 116.133 91.1642 117.426C91.7679 118.977 91.6816 118.977 93.2341 118.202C95.304 117.512 97.4602 117.081 99.7027 117.167C101.945 117.167 104.101 117.512 106.258 117.943C106.948 118.202 107.637 118.891 108.155 118.891C109.19 118.891 110.484 118.632 111.346 118.029C113.071 116.909 113.33 115.013 112.381 113.117C110.656 114.324 109.19 115.789 107.724 117.34C107.379 117.685 107.034 118.115 106.516 117.598C106.43 117.081 106.775 116.737 107.12 116.306C108.155 115.099 109.276 113.979 110.57 113.117C111.72 112.313 112.065 111.25 111.605 109.929C111.087 108.292 110.656 106.568 110.139 104.931C110.052 104.5 109.88 104.155 109.794 103.724C109.794 103.552 109.535 103.466 109.362 103.552C109.19 103.552 109.19 103.552 109.19 103.811C109.362 104.586 108.845 104.586 108.327 104.414C107.379 104.241 106.516 104.414 105.826 105.017C104.878 105.879 103.843 106.137 102.635 105.62C102.118 105.448 101.6 105.448 101.255 105.879C99.7889 106.827 99.0127 108.378 97.8052 109.584C98.3227 109.757 98.5815 109.498 98.9265 109.326L98.754 109.498ZM93.5791 119.236C93.3204 119.236 93.1479 119.322 92.8891 119.408C92.0266 119.58 92.0266 119.925 92.2854 120.787C92.6304 121.993 93.6653 122.079 94.4416 122.51C94.8728 122.855 95.4766 122.855 95.9078 122.683C99.5302 121.562 103.066 120.442 106.689 119.322C106.603 118.977 106.344 119.063 106.171 118.977C104.619 118.46 102.98 118.46 101.341 118.288C98.6677 117.943 96.0803 118.288 93.5791 119.236ZM92.7166 105.793C92.4579 105.534 92.1129 105.448 91.8541 105.62C91.1642 105.965 90.3879 106.31 90.1292 107.171C89.7842 108.033 89.9567 109.067 89.0942 109.67C89.0942 109.67 89.0942 109.929 89.0942 110.015C89.5254 111.566 90.0429 113.117 90.5604 114.755C90.9917 114.238 91.4229 113.807 91.7679 113.376C93.1478 112.256 94.6141 111.221 96.2528 110.446C96.4253 110.446 96.5978 110.274 96.684 110.187C97.1152 108.636 98.409 107.688 99.2714 106.396C99.7027 105.706 100.91 105.103 100.651 104.5C100.393 103.897 99.099 103.724 98.3227 103.38C97.719 103.121 97.2878 103.207 97.029 103.897C96.8565 104.328 96.5978 104.758 96.1665 104.672C95.1316 104.5 95.2178 105.189 95.1316 105.879C95.0453 106.827 94.6141 106.913 93.7516 106.482C93.4066 106.223 93.2341 105.879 92.7166 105.793ZM89.2667 106.827C89.6979 106.051 89.8704 105.189 90.3879 104.5C90.9054 103.897 91.5091 103.638 92.1991 104.069C93.0616 104.672 93.3204 104.241 93.5791 103.466C93.6654 103.121 93.7516 102.776 93.8378 102.432C94.1828 101.225 94.7003 100.881 95.9078 101.225C97.719 101.656 99.444 102.259 101.083 103.207C101.686 103.552 101.945 103.552 102.463 103.121C104.446 101.398 106.516 100.708 108.931 102.432H109.104V102.604C109.276 102.518 109.276 102.432 109.104 102.346C108.5 99.7604 107.638 97.2613 106.689 94.8485C106.689 94.6761 106.43 94.4176 106.258 94.2452C105.05 93.2973 103.756 92.2633 102.031 93.2112C101.686 93.3835 101.341 93.3835 100.91 93.4697C100.306 93.4697 100.22 93.8144 100.22 94.3314C100.306 95.624 100.393 96.9166 100.479 98.2092C100.479 98.8125 100.738 99.588 99.8752 99.7604C99.1852 99.9327 99.0127 99.1572 98.6677 98.8125C98.6677 98.7263 98.4952 98.6401 98.409 98.4678C97.8052 99.8466 97.1152 99.9327 96.0803 98.8986C95.1315 97.9507 94.2691 96.8305 93.4928 95.7102C93.1478 95.2793 92.8891 95.107 92.2854 95.3655C90.6467 96.1411 88.9217 96.7443 87.283 97.4337C87.0242 97.5199 86.6792 97.6922 86.7655 98.0369C86.3342 98.8986 85.558 99.8465 85.8168 100.794C86.593 103.466 87.628 106.051 88.5767 108.895C88.8354 107.947 88.9217 107.257 89.0942 106.654L89.2667 106.827ZM158.351 19.4464C158.265 18.1538 157.661 17.0335 157.316 15.8271C156.368 12.6387 155.419 9.45023 154.47 6.17563C154.47 6.00328 154.47 5.91711 154.384 5.74476C154.384 5.57241 154.298 5.31388 154.211 5.14153C154.125 4.79684 154.039 4.45215 153.953 4.02128C153.608 2.81485 153.521 2.81484 152.486 3.50423C147.743 6.52032 143.172 9.79493 138.687 13.0695C125.06 22.8072 113.244 34.1821 104.533 48.6593C104.101 49.4349 103.929 50.1243 104.101 50.986C103.929 52.0201 104.101 53.0542 104.36 54.0883C105.999 60.0342 107.638 65.9802 109.707 71.7539C115.745 88.8163 122.127 105.706 127.992 122.769C131.356 132.679 135.064 142.589 138.514 152.413C139.377 154.825 140.067 157.324 140.929 159.91C141.36 159.479 141.792 159.134 142.137 158.789C145.242 155.86 148.174 152.843 151.365 150.086C166.459 137.504 182.328 125.871 199.75 116.65C200.354 116.392 200.44 116.22 200.095 115.53C194.489 106.74 189.401 97.606 184.916 88.2131C174.825 66.9281 166.2 45.04 159.386 22.3763C159.041 21.3422 158.869 20.222 158.438 19.274L158.351 19.4464ZM90.4741 56.6735C90.8191 56.4149 91.0779 56.0702 90.9054 55.5532C89.8704 52.6233 88.8354 49.6934 87.1967 47.1082C85.3855 44.2644 83.0568 42.2824 79.3482 42.4548C73.6558 42.6271 68.0497 43.058 62.4436 43.8336C61.1498 44.0059 59.7699 44.3506 58.3899 45.04C59.6836 45.1262 60.8048 45.2124 61.8398 45.2985C62.5298 45.4709 63.1335 45.6432 63.8235 45.9017C67.3597 47.1082 70.2921 49.004 72.0171 52.5371C72.7071 54.0021 73.3971 55.5532 74.0008 57.2767C74.1733 57.0182 74.2595 56.8458 74.3458 56.6735C75.3808 54.8638 76.4157 52.968 77.7957 51.3307C77.9682 51.0722 78.2269 50.6413 78.6582 50.986C79.0032 51.2445 78.6582 51.5892 78.6582 51.8477C77.6232 53.9159 76.6745 55.9841 75.2945 57.8799C74.5183 59.0002 74.6908 59.8619 75.122 60.896C75.3808 60.896 75.467 60.6375 75.5532 60.4651C76.2432 58.914 77.1057 57.449 78.1407 56.1564C78.3132 55.8979 78.5719 55.3809 79.0032 55.6394C79.4344 55.8979 79.1757 56.3288 79.0032 56.6735C78.2269 58.914 77.192 61.1545 75.9845 63.2227C75.812 63.6536 75.7258 63.9121 75.812 64.3429C76.502 67.6175 77.1057 70.9783 77.537 74.3391C77.6232 75.1147 77.4507 75.9764 78.0545 76.5796C78.1407 76.9243 77.7957 77.1828 77.882 77.6137C78.7444 83.1288 79.5207 88.7301 80.1244 94.3314C80.2969 95.7102 80.2969 97.1752 80.3831 98.8125C81.7631 96.2272 83.1431 93.9006 84.4368 91.5739C85.0405 90.4536 85.7305 89.3333 86.5068 88.2992C87.973 86.4034 88.7492 86.3173 90.4741 87.9546C93.4928 90.7983 96.339 93.8144 98.754 97.3475C98.9265 97.5199 98.9265 97.8645 99.3577 97.8645C98.409 90.4536 97.5465 83.0427 95.994 75.4594C95.649 76.0626 95.4765 76.4073 95.3903 76.8382C94.959 77.6137 94.5278 78.4754 94.0103 79.251C93.7516 79.6819 93.4066 80.6298 92.8891 80.2851C92.1991 79.9404 92.7166 79.1648 92.8891 78.6478C93.4929 77.269 94.2691 75.8902 95.0453 74.5114C96.1665 73.4774 95.0453 72.4433 95.1316 71.1507C94.7003 71.6677 94.6141 71.9262 94.5278 72.2709C93.7516 73.5635 93.0616 74.9423 92.2854 76.2349C91.3366 77.786 90.3879 79.251 89.4392 80.8021C89.2667 81.0607 89.0942 81.3192 88.7492 81.1468C88.4042 81.0607 88.4905 80.6298 88.5767 80.4574C88.7492 79.9404 88.8354 79.4234 89.0942 78.9063C90.5604 75.8041 92.4579 72.8742 94.1828 69.9442C94.4416 69.7719 94.6141 69.5134 94.5278 69.1687C93.9241 66.9282 93.3204 64.6876 92.7166 62.4471C92.3716 62.6195 92.2853 62.7918 92.1991 63.0503C91.6816 63.8259 91.0779 64.6015 90.5604 65.377C90.3879 65.6356 90.1292 66.1526 89.6979 65.8079C89.353 65.5494 89.6979 65.2047 89.8704 64.9462C90.4742 63.9121 91.3367 62.9642 91.8541 61.8439C92.2854 61.6716 92.3716 61.3269 92.2854 60.896C92.0266 59.8619 91.6816 58.8278 91.3366 57.7076C90.9916 58.0522 90.8192 58.3108 90.7329 58.6555C90.3879 59.1725 90.0429 59.6034 89.7842 60.1204C88.9217 61.4992 88.0592 62.878 87.1967 64.2568C87.0242 64.5153 86.938 64.86 86.593 64.6015C86.3343 64.4291 86.4205 64.1706 86.593 63.9121C86.593 63.7397 86.6792 63.5674 86.7655 63.395C87.7142 61.1545 89.1804 59.2587 90.3879 57.1905L90.4741 56.6735ZM73.6558 74.2529C73.6558 72.9603 73.0521 72.0986 71.7583 71.7539C71.2409 71.5815 70.7234 71.2368 70.2059 70.9783C66.3247 68.7378 62.1848 67.5314 57.8724 66.4111C56.4062 66.0664 54.7675 65.9802 53.56 67.1005C49.9376 70.2889 46.4877 73.7359 43.469 77.5275C42.0028 79.3372 40.4503 81.1468 39.4153 83.215C38.4666 85.197 38.8116 85.8864 40.8816 86.6619C41.2265 86.7481 41.5715 86.8343 41.8303 86.9205C44.159 87.6099 44.849 88.4716 45.1077 90.9706C45.3664 93.9867 46.1427 96.8305 47.7814 99.4157C48.3851 100.364 49.0751 100.881 50.1963 100.794C50.7138 100.794 51.2313 100.794 51.7488 100.622C55.1125 100.191 58.3899 99.3295 61.6673 98.6401C66.411 97.6922 71.2408 97.0028 75.9845 95.8826C77.4507 95.5379 77.4507 95.5378 77.0195 93.9005C77.0195 93.642 77.0195 93.3835 77.0195 93.2112C75.6395 86.9205 74.9495 80.5436 73.6558 74.2529ZM161.025 21.3422C161.456 23.3242 162.233 25.3062 162.836 27.202C163.009 27.8052 163.181 27.8052 163.613 27.5467C164.82 26.8573 166.114 26.1679 167.407 25.4786C170.167 24.0998 170.426 24.186 172.065 26.8573C175.601 32.7172 178.275 39.094 180.431 45.6432C180.948 47.1943 180.517 48.3146 179.051 49.004C176.636 50.1243 174.652 51.7616 172.582 53.2265C172.151 53.5712 172.237 53.7436 172.324 54.1744C173.1 56.2426 173.962 58.2246 174.738 60.2928C174.997 60.896 175.083 61.4992 175.515 62.0162C177.067 60.8098 178.706 59.9481 180.431 59.2587C182.07 58.5693 182.673 58.7416 183.708 60.2066C184.398 61.0683 184.916 62.0163 185.347 63.0503C186.209 64.9462 187.072 66.842 187.934 68.7378C189.918 73.0465 191.902 77.3552 193.799 81.6639C194.662 83.5597 194.231 84.7661 192.592 85.9726C191.126 87.0066 189.746 88.1269 188.279 89.161C187.762 89.5057 187.762 89.8504 188.021 90.3674C191.816 97.5198 195.611 104.586 199.664 111.566H199.837C204.235 108.722 208.72 106.137 213.55 103.983C214.24 103.638 213.895 103.38 213.723 102.949C205.012 85.2832 196.128 67.6175 188.366 49.4349C183.018 36.8535 177.24 24.5306 172.324 11.7769C171.116 8.67467 169.822 5.57241 169.305 2.29781C169.219 1.69459 168.874 1.60841 168.356 1.78076C164.302 2.90102 160.508 4.79684 157.058 7.12353C156.54 7.46823 156.626 7.8991 156.885 8.32997C157.92 12.7248 159.214 17.1197 160.853 21.3422H161.025ZM68.9984 64.0844C69.8609 64.5153 70.7234 64.9462 71.7583 65.4632C70.8096 61.5854 69.8609 57.9661 67.9634 54.6915C66.3247 51.7616 64.0823 49.6072 60.8911 48.487C59.2524 47.8837 57.6137 47.539 55.975 47.022C55.0262 46.6773 54.0775 46.7635 53.215 47.2805C51.7488 47.6252 50.3688 48.0561 48.9026 48.3146C40.0191 50.0381 31.2218 52.3648 22.5107 54.95C18.802 56.0702 15.0934 57.1043 11.471 58.1384C10.6085 58.3969 10.2635 58.7416 10.5222 59.7757C11.471 63.1365 12.506 66.4111 13.6272 69.6857C16.9046 79.5957 21.3032 89.0748 24.6669 98.8986C28.8931 111.049 33.2055 123.113 38.1216 135.005C40.0191 139.486 41.8303 143.968 43.6415 148.535C45.7977 153.964 48.0401 159.479 48.7301 165.339C49.1614 168.613 50.9726 169.561 53.56 170.164C56.8374 170.94 60.1149 170.854 63.3923 170.509C65.031 170.337 66.6697 170.509 68.1359 169.733C73.3108 167.234 78.7444 165.166 84.178 163.27C93.5791 159.996 103.239 157.755 113.33 157.928C116.952 157.928 120.488 158.272 124.025 158.531C127.302 158.703 130.493 158.962 133.684 159.479C135.409 159.737 137.221 159.996 139.032 160.254C138.773 159.393 138.514 158.617 138.256 157.928C133.598 144.915 128.941 131.903 124.37 118.891C120.747 108.55 117.039 98.2092 113.244 87.8684C110.311 79.768 107.206 71.6677 104.878 63.3088C103.929 59.9481 103.325 56.5011 101.945 53.2265C101.773 52.8818 101.773 52.5371 101.341 52.3648C97.8053 51.5892 94.2691 50.8998 90.6466 49.7796C91.3366 51.503 92.0266 53.1403 92.5441 54.8638C96.2528 66.2388 98.754 77.9584 99.7027 89.8504C99.8752 91.9186 99.8752 91.9185 101.945 91.3153C102.29 91.2292 102.721 91.2292 102.29 90.7121C102.118 90.5398 102.118 90.1951 102.29 90.0227C102.463 89.8504 102.721 89.9365 102.98 90.0227C103.67 90.6259 104.446 90.7121 105.395 90.626C106.085 90.5398 106.861 90.7983 107.12 91.4877C107.465 92.6079 108.328 92.9526 109.276 93.3835C109.707 93.5558 110.139 93.8144 110.57 93.9867C111.001 94.2452 111.519 94.5899 111.26 95.1932C111.001 95.7964 110.397 95.8826 109.88 95.7964C109.535 95.7964 109.276 95.5378 108.931 95.5378C108.931 95.7102 108.931 95.7964 108.931 95.9687C110.742 101.57 112.467 107.171 114.02 112.773C114.02 113.031 114.02 113.376 114.624 113.29C115.227 113.203 115.314 113.807 115.055 114.151C114.537 115.013 114.71 115.875 114.796 116.737C114.796 118.029 114.537 118.546 113.244 118.977C112.726 119.149 112.209 119.408 111.95 119.839C111.691 120.27 111.174 120.528 110.829 120.097C110.311 119.58 109.88 119.839 109.449 119.925C105.395 121.131 101.341 122.424 97.2878 123.631C96.9428 123.717 96.684 123.889 96.7703 124.32C96.7703 124.923 96.339 125.44 95.7353 125.182C94.5278 124.751 93.3204 124.406 92.1129 124.061C91.8541 124.061 91.5954 123.717 91.5091 123.544C91.1641 122.769 90.6467 122.252 89.9567 121.821C89.5254 121.476 89.0079 121.045 89.9567 120.787C90.3879 120.701 90.1292 120.442 90.0429 120.27C88.2317 114.238 86.7655 108.205 84.4368 102.346C83.9193 102.69 83.4881 103.638 82.6256 102.949C81.7631 102.259 82.6256 101.57 82.8843 100.967C82.8843 100.881 82.9706 100.794 83.0568 100.708C83.4018 100.019 84.0056 99.4157 83.4881 98.5539C82.7981 97.5198 82.7981 97.0028 83.8331 96.7443C85.2993 96.4858 85.8168 95.4517 86.3342 94.3314C86.3342 94.1591 86.5068 93.9867 86.593 93.8144C86.6793 93.5558 86.8517 93.3835 87.1967 93.4697C87.4555 93.5559 87.5417 93.8144 87.4555 94.0729C87.4555 94.5038 87.3692 94.8485 87.283 95.3655C88.7492 94.8485 90.1292 94.4176 91.4229 93.9005C92.0266 93.7282 91.5954 93.3835 91.4229 93.2112C90.5604 92.0909 89.5254 90.9707 88.6629 89.8504C88.1455 89.161 87.8867 89.2472 87.283 89.8504C85.213 91.9186 83.6606 94.3314 82.3669 96.9166C81.7631 98.1231 81.0731 99.3295 80.2969 100.45C79.6931 101.312 79.0894 101.225 78.4857 100.277C77.882 99.3295 77.7095 98.2954 77.537 97.1752C77.4507 96.4858 77.2782 96.0549 76.4157 96.4858C75.7257 96.9166 74.8633 97.089 74.0008 97.3475C70.6371 98.2954 67.1009 98.7263 63.651 99.4157C59.4249 100.191 55.1987 101.312 50.8863 101.915C48.1264 102.259 46.9189 101.742 45.5389 99.3295C43.9002 96.572 43.2102 93.642 42.9515 90.5398C42.8653 89.3333 42.2615 88.5578 41.054 88.2992C40.1916 88.1269 39.2428 87.7822 38.4666 87.4375C37.0004 86.7481 36.3104 85.4555 36.5692 83.9044C36.7416 82.8703 37.0866 81.9224 37.6904 81.0607C40.2778 77.269 43.124 73.6497 46.4014 70.3751C49.1614 67.6175 51.9213 64.9462 55.1125 62.6195C56.7512 61.4992 58.5624 61.1545 60.4598 61.4992C63.2198 62.0162 65.8072 62.9642 68.3947 63.8259L68.9984 64.0844ZM58.2174 174.042C56.8374 174.042 55.4575 174.042 54.0775 173.784C51.6625 173.439 49.2476 173.008 47.0914 171.629C46.4877 171.285 45.8839 170.854 45.7977 170.078C45.1077 165.597 43.5552 161.375 42.2615 157.066C38.6391 144.657 33.4642 132.765 28.4618 120.873C26.2194 115.616 23.632 110.532 21.1308 105.448C17.4221 97.7784 14.1447 90.0227 11.0397 82.0947C8.71104 76.3211 5.9511 70.6336 5.00237 64.4291C4.91613 63.8259 4.65737 64.0844 4.39863 64.2568C3.70864 64.7738 3.01866 65.377 2.32868 65.9802C1.81119 66.4973 1.6387 66.9281 1.89744 67.6175C2.15618 68.5655 2.50119 69.5134 2.93243 70.3751C6.89984 79.0787 10.8672 87.8684 14.8346 96.5719C21.217 110.274 27.5993 124.061 33.378 138.022C35.8792 144.054 38.0354 150.258 40.0191 156.549C41.744 161.978 43.2103 167.407 44.849 172.836C45.194 173.956 45.8839 174.473 47.0914 174.473C47.6951 174.473 48.2989 174.473 48.9026 174.645C52.0938 175.076 55.1987 174.99 58.2174 173.956V174.042ZM63.5648 171.888C61.7536 171.888 59.9424 171.888 58.1312 171.888C55.1987 171.802 52.3525 171.198 49.6788 169.906C48.9026 169.475 48.3851 168.958 48.2126 168.096C47.8676 166.631 47.5226 165.252 47.1777 163.788C44.4177 153.533 40.4503 143.709 36.2242 133.971C33.723 128.198 31.3943 122.338 29.3243 116.478C25.7019 106.482 22.252 96.3134 18.1983 86.4896C14.9209 78.5616 11.9022 70.6336 9.48728 62.3609C9.31479 61.8439 9.31478 61.2407 8.88354 60.7236C8.2798 61.2407 7.76232 61.7577 7.24483 62.1886C6.55484 62.7056 6.38235 63.3088 6.4686 64.1706C6.72735 66.2388 7.33107 68.2208 8.02106 70.1166C11.0397 78.3893 14.5759 86.5758 18.0258 94.6761C23.8907 108.464 30.5318 121.993 36.0517 135.953C40.1916 146.38 44.0727 156.894 46.6602 167.838C47.1776 169.82 48.1264 170.768 49.8513 171.371C50.1963 171.457 50.5413 171.629 50.9726 171.715C55.1125 172.75 59.3386 172.663 63.651 171.888H63.5648ZM56.5787 64.6015C62.4435 65.8079 67.7909 67.9622 72.9658 71.1507C72.7933 69.2548 72.4483 67.8761 70.6371 67.1005C67.7909 65.8079 64.9448 64.6876 62.0123 63.9982C60.2011 63.5674 58.3899 63.395 56.6649 64.6876L56.5787 64.6015ZM108.414 103.466C106.516 101.915 104.964 102.518 103.498 103.638C103.153 103.897 102.376 104.155 102.635 104.586C102.894 105.103 103.67 104.931 104.274 104.758C104.446 104.758 104.619 104.586 104.791 104.414C105.826 103.638 106.861 103.121 108.414 103.38V103.466ZM96.8565 102.518C96.5115 102.432 96.339 102.346 96.1665 102.259C94.8728 101.915 94.7866 101.915 94.4416 103.207C94.2691 103.811 94.0966 104.414 93.7516 104.931C93.4066 105.448 93.7516 105.448 94.0966 105.62C94.1828 104.931 94.1828 104.069 94.8728 103.983C95.9078 103.983 96.1665 103.207 96.7703 102.518H96.8565Z" fill="#050606"/>
<path d="M159.386 22.6348C166.2 45.2123 174.825 67.1005 184.916 88.4716C189.401 97.8645 194.489 106.999 200.095 115.789C200.527 116.478 200.354 116.564 199.75 116.909C182.328 126.13 166.459 137.763 151.365 150.344C148.088 153.102 145.155 156.118 142.137 159.048C141.792 159.393 141.36 159.737 140.929 160.168C140.067 157.583 139.377 155.084 138.514 152.671C134.978 142.761 131.356 132.937 127.992 123.027C122.127 105.965 115.745 89.0748 109.707 72.0124C107.638 66.1526 105.999 60.2928 104.36 54.3468C104.101 53.3989 103.929 52.3648 104.101 51.2445C104.446 51.2445 104.533 50.986 104.705 50.7275C105.826 49.1763 107.034 47.539 108.155 45.9879C110.484 42.8857 112.726 39.6972 115.4 36.9397C116.521 35.7332 117.642 34.5268 118.764 33.3204C120.057 31.8554 121.265 30.3905 122.731 29.0978C124.973 27.202 127.216 25.3062 129.372 23.4104C131.528 21.5146 133.684 19.6187 136.099 17.9814C140.757 14.793 145.5 11.6046 150.33 8.67466C152.141 7.5544 152.055 7.5544 152.659 9.53639C153.866 13.4142 154.729 17.3782 156.281 21.0837C157.058 22.8933 157.834 23.4104 159.473 22.721L159.386 22.6348ZM113.416 43.058C113.244 42.541 113.502 41.9377 112.899 41.8516C112.295 41.8516 112.381 42.541 112.295 42.8857C112.036 43.6612 111.864 44.523 111.174 45.1262C109.88 46.1603 109.276 47.539 109.535 49.0902C109.707 50.2966 109.707 51.3307 109.19 52.451C108.931 53.0542 109.19 53.6574 109.966 53.6574C110.57 53.6574 110.656 53.9159 110.742 54.3468C111.95 58.0522 113.416 61.5854 114.969 65.0323C115.141 65.377 115.486 65.7217 114.796 66.0664C114.451 66.1526 114.537 66.6696 114.796 66.6696C116.004 66.9281 116.349 68.0484 116.952 68.824C117.47 69.4272 118.074 70.0304 118.85 69.5995C119.798 68.9963 120.747 68.7378 121.782 68.9101C122.127 68.9101 122.472 68.6516 122.558 68.3931C122.731 68.0484 122.558 67.7037 122.3 67.6175C121.696 67.359 121.955 67.1005 122.3 66.842C124.887 64.2568 127.561 61.8439 130.579 59.7757C133.426 57.8799 136.099 55.8117 138.946 53.9159C139.98 53.2265 140.153 52.2786 139.894 51.1583C138.946 46.6773 137.307 42.3686 135.754 38.1461C135.151 36.595 134.892 34.6991 133.167 33.6651C133.081 33.6651 133.081 33.4065 132.994 33.3204C132.218 31.5969 131.528 31.2522 129.803 32.0278C129.027 32.3725 128.337 32.631 127.647 32.0278C127.388 31.8554 127.13 31.7692 126.957 32.0278C126.785 32.2863 126.957 32.4586 127.13 32.7171C127.302 32.8895 127.388 33.0618 127.561 33.2342C122.731 36.3364 118.074 39.6972 113.416 43.058ZM157.23 29.7011C157.23 29.5287 157.144 29.184 157.058 28.9255C155.85 25.8232 154.643 22.721 153.349 19.7049C152.918 18.5846 152.228 17.5506 151.624 16.4303C151.193 15.7409 150.675 15.6547 149.985 16.1718C147.053 18.4123 144.034 20.5666 141.015 22.8072C139.463 23.9274 137.997 25.0477 136.703 26.5126C135.927 27.3744 135.409 28.1499 135.841 29.5287C137.221 33.5789 138.601 37.6291 140.153 41.593C140.153 41.8516 140.325 42.0239 140.498 42.2824C140.67 42.541 140.843 42.7133 141.188 42.7133C141.533 42.7133 141.705 42.4548 141.705 42.1963C141.705 41.8516 141.964 41.6792 142.223 41.5069C144.983 39.094 147.915 36.9397 151.107 35.13C152.918 34.0098 154.729 32.8895 156.368 31.5107C156.885 31.0798 157.316 30.649 157.316 29.8734L157.23 29.7011Z" fill="#FEFEFE"/>
<path d="M83.9193 98.7263C84.4368 99.588 83.8331 100.191 83.4881 100.881C83.4881 100.967 83.4018 101.053 83.3156 101.139C82.9706 101.742 82.1943 102.432 83.0568 103.121C83.833 103.811 84.3505 102.863 84.868 102.518C87.1967 108.378 88.6629 114.496 90.4741 120.442C90.4741 120.614 90.8191 120.873 90.3879 120.959C89.3529 121.218 89.8704 121.649 90.3879 121.993C91.0779 122.424 91.5954 122.941 91.9404 123.717C92.0266 123.975 92.2854 124.234 92.5441 124.234C93.7516 124.578 94.9591 124.923 96.1665 125.354C96.684 125.526 97.2015 125.095 97.2015 124.492C97.2015 124.061 97.374 123.889 97.719 123.803C101.773 122.596 105.826 121.304 109.88 120.097C110.311 119.925 110.829 119.753 111.26 120.27C111.691 120.701 112.122 120.356 112.381 120.011C112.726 119.494 113.157 119.322 113.675 119.149C114.969 118.719 115.314 118.288 115.227 116.909C115.227 116.047 115.055 115.185 115.486 114.324C115.659 113.979 115.659 113.376 115.055 113.462C114.451 113.548 114.537 113.203 114.451 112.945C112.899 107.257 111.174 101.656 109.362 96.1411C109.362 96.0549 109.362 95.8825 109.362 95.7102C109.707 95.7102 110.052 95.8825 110.311 95.9687C110.915 96.0549 111.432 95.9687 111.691 95.3655C111.95 94.7623 111.432 94.4176 111.001 94.1591C110.57 93.9006 110.139 93.7282 109.707 93.5559C108.845 93.125 107.983 92.7803 107.551 91.66C107.293 90.9706 106.516 90.7121 105.826 90.7983C104.878 90.8845 104.101 90.7983 103.411 90.1951C103.239 90.0227 102.98 89.9366 102.721 90.1951C102.549 90.3674 102.549 90.6259 102.721 90.8845C103.153 91.4015 102.721 91.4015 102.376 91.4877C100.306 92.0909 100.306 92.0909 100.134 90.0227C99.0989 78.0446 96.684 66.4111 92.9753 55.0362C92.4579 53.3989 91.6816 51.7616 91.0779 49.9519C94.614 51.0722 98.2365 51.7616 101.773 52.5371C102.29 52.6233 102.29 53.0542 102.376 53.3989C103.756 56.5873 104.36 60.1204 105.309 63.4812C107.637 71.8401 110.656 79.8542 113.675 88.0407C117.47 98.3816 121.178 108.636 124.801 119.063C129.372 132.076 134.029 145.088 138.687 158.1C138.946 158.876 139.204 159.565 139.463 160.427C137.566 160.168 135.841 159.824 134.116 159.651C130.924 159.22 127.647 158.962 124.456 158.703C120.92 158.445 117.297 158.186 113.761 158.1C103.67 157.928 94.0103 160.082 84.6093 163.443C79.1757 165.339 73.742 167.321 68.5672 169.906C67.1009 170.595 65.376 170.509 63.8235 170.681C60.5461 171.026 57.1824 171.112 53.9912 170.337C51.4038 169.734 49.5926 168.786 49.1614 165.511C48.4714 159.651 46.2289 154.222 44.0727 148.707C42.2615 144.14 40.4503 139.659 38.5528 135.178C33.6367 123.286 29.3243 111.221 25.0981 99.071C21.7345 89.2472 17.3358 79.6819 14.0584 69.8581C12.9372 66.5835 11.9022 63.3088 10.9535 59.9481C10.6947 58.914 10.9535 58.5693 11.9022 58.3108C15.6109 57.2767 19.3195 56.1564 22.9419 55.1223C31.653 52.5371 40.4503 50.2104 49.3338 48.487C50.8001 48.2284 52.18 47.7976 53.6462 47.4529C54.6812 48.0561 55.8887 48.3146 56.8374 49.0902C60.2011 51.8477 63.3923 54.7776 66.1522 58.2246C67.6184 60.0342 68.8259 61.9301 69.4296 64.2568C66.8422 63.3088 64.2547 62.3609 61.4948 61.9301C59.5111 61.5854 57.6999 61.9301 56.1474 63.0503C52.9562 65.2909 50.1963 67.9622 47.4364 70.806C44.2452 74.0806 41.3128 77.6999 38.7253 81.4915C38.1216 82.3533 37.7766 83.3012 37.6041 84.3353C37.3454 85.8864 38.0354 87.179 39.5016 87.8684C40.364 88.2992 41.2265 88.5578 42.089 88.7301C43.2965 88.9886 43.814 89.7642 43.9865 90.9706C44.2452 94.0729 44.9352 97.089 46.5739 99.7604C48.0401 102.173 49.1613 102.69 51.9213 102.346C56.2337 101.829 60.3736 100.622 64.686 99.8465C68.1359 99.2433 71.5858 98.8125 75.0358 97.7784C75.3808 100.364 76.157 102.949 76.3295 105.534C76.3295 105.965 76.6745 106.137 77.0195 105.879C77.2782 105.706 77.6232 105.534 77.8819 105.362C80.2969 103.38 82.3668 101.139 84.3505 98.8125L83.9193 98.7263ZM50.2826 132.506C50.1101 132.506 50.0238 132.506 49.8513 132.506C49.5063 132.506 48.9026 132.248 48.7301 132.765C48.5576 133.368 49.2476 133.454 49.5926 133.54C50.8001 133.799 51.4038 134.575 51.835 135.695C52.525 137.332 53.1287 137.504 54.8537 136.901C55.6299 136.643 56.4062 136.212 57.3549 136.643C57.6999 136.815 58.3036 136.643 58.3036 136.126C58.3036 135.436 58.8211 135.522 59.2524 135.35C65.031 133.54 70.8959 131.817 76.6745 130.007C77.192 129.835 77.7094 129.49 78.3132 130.007C78.6582 130.266 79.0894 130.007 79.2619 129.663C79.7794 128.801 80.5556 128.284 81.3319 127.681C81.9356 127.25 82.4531 126.647 82.1081 125.957C81.5906 124.923 82.0218 123.975 82.1943 122.941C82.2806 122.51 82.6256 121.993 82.0218 121.735C81.5043 121.562 81.4181 122.166 81.1593 122.424C81.1593 122.424 81.0731 122.424 80.9869 122.424C79.9519 119.063 79.0032 115.703 77.9682 112.342C78.1407 112.342 78.2269 112.342 78.2269 112.342C79.0894 112.342 79.8656 112.169 79.8656 111.221C79.8656 110.274 79.0032 110.618 78.4857 110.446C77.7957 110.274 77.1919 110.187 76.9332 109.239C76.5882 108.119 75.6395 107.43 74.777 107.861C73.742 108.378 73.052 108.033 72.1896 107.602C71.7583 107.344 71.2408 107.085 70.8096 106.913C70.5508 106.827 70.3784 106.74 70.2059 106.913C70.0334 107.171 70.2059 107.344 70.2921 107.602C70.7234 108.119 71.1546 108.55 71.6721 108.981C65.031 112.083 57.6136 112.945 50.6276 115.789C50.8863 115.272 51.0588 115.099 51.145 114.841C51.3175 114.496 51.7488 114.151 51.3176 113.721C50.8863 113.376 50.6276 113.893 50.2826 114.151C49.1613 115.185 48.4714 116.564 47.0052 117.254C46.7464 117.426 46.4877 117.685 46.4877 118.029C46.4877 118.719 46.0564 119.149 45.7114 119.667C45.3664 120.184 44.9352 120.701 44.6764 121.218C44.4177 121.649 44.4177 122.079 44.849 122.424C45.2802 122.769 45.7114 122.596 46.0564 122.252C46.4014 121.993 46.5739 121.476 47.0914 121.304C48.1264 125.009 49.0751 128.715 50.3688 132.248C50.3688 132.248 50.2826 132.334 50.1963 132.42L50.2826 132.506ZM102.29 149.569C106.085 148.707 109.88 147.845 113.675 146.984C114.02 146.984 114.279 146.811 114.451 147.414C114.624 148.19 115.4 148.449 116.004 147.845C116.349 147.587 116.607 147.156 116.78 146.811C117.039 146.467 117.211 146.208 117.729 146.122C119.022 145.863 119.453 145.26 119.195 143.968C119.022 142.933 119.195 141.986 119.712 141.124C119.885 140.779 120.316 140.434 119.885 140.004C119.367 139.486 119.108 140.176 118.677 140.262C118.16 137.591 117.47 134.919 116.78 132.248C117.47 132.248 118.074 132.248 118.246 131.472C118.418 130.697 117.815 130.352 117.297 130.18C116.176 129.835 115.831 128.973 115.572 127.939C115.141 126.043 114.71 125.785 112.812 126.302C111.777 126.56 110.742 126.991 109.707 126.216C109.535 126.043 109.362 126.043 109.19 126.216C109.017 126.388 109.017 126.56 109.19 126.819C109.707 127.422 109.19 127.422 108.759 127.595C107.637 127.939 106.603 128.284 105.481 128.629C98.8402 130.438 92.0266 131.731 85.3855 133.54C83.9193 133.971 82.5393 134.316 80.9869 134.661C81.0731 134.316 81.1594 134.23 81.2456 134.144C81.3319 133.54 82.1944 132.937 81.5044 132.42C80.9006 132.076 80.4694 132.937 80.1244 133.368C79.1757 134.661 78.1407 135.695 76.4157 136.04C75.467 136.212 75.122 136.901 75.5532 137.849C75.9845 138.797 75.812 139.659 75.0358 140.348C74.8633 140.521 74.6908 140.779 74.5183 141.038C74.1733 141.468 74.0008 141.899 74.2595 142.416C74.5182 142.933 75.0357 143.02 75.6395 142.933C75.6395 143.106 75.812 143.278 75.812 143.537C76.0707 146.036 76.847 148.362 77.5369 150.775C77.3644 151.292 77.8819 151.378 78.0544 151.637C78.0544 151.982 78.0544 152.326 78.1407 152.671C78.6582 154.481 79.2619 156.29 79.7794 158.1C80.1244 159.048 80.5556 159.134 81.5044 158.703C83.7468 157.583 86.0755 156.463 88.4042 155.515C92.8029 153.791 97.1152 151.982 101.6 150.603C102.031 150.517 102.463 150.431 102.376 149.827L102.29 149.569Z" fill="#FDFDFD"/>
<path d="M157.058 8.32997C156.799 7.8991 156.713 7.46823 157.23 7.12353C160.766 4.79684 164.475 2.90102 168.529 1.78076C169.046 1.60841 169.391 1.69459 169.477 2.29781C169.995 5.57241 171.289 8.67467 172.496 11.7769C177.412 24.5306 183.191 36.9397 188.538 49.4349C196.3 67.6175 205.184 85.197 213.895 102.949C214.068 103.293 214.413 103.638 213.723 103.983C208.893 106.137 204.408 108.636 200.009 111.566L199.837 111.566C195.697 104.586 191.988 97.5198 188.193 90.3674C187.934 89.8504 187.934 89.5057 188.452 89.161C189.918 88.1269 191.298 87.0066 192.764 85.9726C194.403 84.7661 194.834 83.5597 193.972 81.6639C192.074 77.3552 190.004 73.0465 188.107 68.7378C187.244 66.842 186.382 64.9462 185.519 63.0503C185.088 62.0163 184.485 61.0683 183.881 60.2066C182.846 58.8278 182.242 58.6555 180.603 59.2587C178.878 59.9481 177.24 60.8098 175.687 62.0162C175.256 61.4992 175.17 60.8098 174.911 60.2928C174.135 58.3108 173.272 56.2426 172.496 54.1744C172.324 53.8297 172.324 53.5712 172.755 53.2265C174.825 51.6754 176.808 50.0381 179.223 49.004C180.69 48.3146 181.121 47.1943 180.603 45.6432C178.447 39.094 175.773 32.8033 172.237 26.8573C170.599 24.186 170.34 24.0998 167.58 25.4786C166.286 26.0818 164.992 26.8573 163.785 27.5467C163.267 27.8052 163.181 27.8052 163.009 27.202C162.405 25.22 161.629 23.3242 161.198 21.3422C164.13 20.5666 167.062 20.3943 170.081 20.4805C170.34 20.4805 170.685 20.3943 170.944 20.3081C171.979 19.8773 172.927 19.6187 174.048 19.7049C174.738 19.7049 174.652 19.4464 174.48 19.0155C174.048 18.0676 173.79 17.1197 173.272 16.3441C170.857 12.6387 169.995 8.41614 169.391 4.10745C169.305 3.41806 169.046 3.33189 168.442 3.59041C166.89 4.19363 165.251 4.79684 163.699 5.48623C161.543 6.43415 159.473 7.46823 157.316 8.41614L157.058 8.32997Z" fill="#FDFDFD"/>
<path d="M73.6558 74.2529C74.9495 80.5436 75.6395 86.9205 77.0195 93.2112C77.0195 93.4697 77.0195 93.7282 77.0195 93.9005C76.0707 94.0729 75.122 94.3314 74.1733 94.5038C68.9122 95.3655 63.5648 96.1411 58.4761 97.606C55.9749 98.2954 53.3875 98.8125 50.8001 98.6401C49.3339 98.5539 48.9026 98.1231 48.3851 96.8305C47.5226 94.7623 47.1777 92.6079 46.8327 90.4536C46.4877 88.2993 45.5389 86.6619 43.2102 86.0587C42.779 85.9726 42.3478 85.7141 41.9165 85.4555C40.4503 84.7661 40.4503 84.7661 41.399 83.3873C45.2802 78.1307 49.5064 73.1327 54.3362 68.6516C54.94 68.1346 55.63 67.9622 56.4062 68.0484C61.9261 68.9101 67.1009 70.806 71.8446 73.8221C72.4483 74.1668 72.9658 74.5114 73.6558 74.1667L73.6558 74.2529Z" fill="#0ABAEE"/>
<path d="M91.9404 61.2407C91.4229 62.3609 90.6466 63.3088 89.9567 64.3429C89.7842 64.6015 89.4392 64.9462 89.7841 65.2047C90.2154 65.5494 90.4741 65.0323 90.6466 64.7738C91.2504 63.9982 91.7679 63.2227 92.2854 62.4471C92.2854 62.7056 92.4578 62.9642 92.5441 63.2227C93.2341 65.2047 93.4928 67.359 94.1828 69.341C92.4579 72.2709 90.5604 75.2008 89.0942 78.3031C88.8354 78.8201 88.6629 79.3372 88.5767 79.8542C88.5767 80.1127 88.4042 80.4574 88.7492 80.5436C89.0942 80.6298 89.2667 80.3713 89.4392 80.1989C90.3879 78.6478 91.3366 77.1828 92.2854 75.6317C93.0616 74.3391 93.7516 73.0465 94.5278 71.6677C94.7003 72.4433 94.8728 73.1327 95.0453 73.9082C94.3553 75.287 93.5791 76.6658 92.8891 78.0446C92.6304 78.5616 92.1129 79.3372 92.8891 79.6819C93.4928 79.9404 93.7516 79.0787 94.0103 78.6478C94.5278 77.8722 94.959 77.0105 95.3903 76.2349C96.1665 81.5777 96.8565 86.9205 97.374 92.4356C96.0802 91.143 94.7865 90.0227 93.6653 88.8163C92.3716 87.5237 91.0779 86.1449 89.5254 85.1108C88.1454 84.0767 87.1105 84.2491 86.0755 85.6279C85.558 86.3173 85.0405 87.0928 84.6093 87.8684C83.5743 89.5919 82.4531 91.3153 81.1593 93.0388C80.9006 89.2471 79.9519 85.714 79.3482 82.0947C79.0894 80.0266 78.8307 78.0446 78.0544 76.0626C77.4507 75.3732 77.6232 74.5114 77.5369 73.8221C77.1057 70.4613 76.502 67.1005 75.812 63.8259C75.7257 63.395 75.812 63.0503 75.9845 62.7056C77.1057 60.6375 78.2269 58.3969 79.0032 56.1564C79.0894 55.8117 79.3481 55.3809 79.0032 55.1223C78.5719 54.8638 78.3132 55.3809 78.1407 55.6394C77.1919 57.0182 76.3295 58.4831 75.5532 59.9481C75.5532 60.1204 75.467 60.3789 75.122 60.3789C74.6908 59.3448 74.5183 58.4831 75.2945 57.3629C76.6745 55.5532 77.7094 53.3989 78.6582 51.3307C78.7444 51.0722 79.0894 50.7275 78.6582 50.469C78.2269 50.2104 78.0544 50.6413 77.7957 50.8136C76.4157 52.4509 75.3807 54.3468 74.3458 56.1564C74.2595 56.3288 74.1733 56.5011 74.0008 56.7596C73.397 55.0362 72.7933 53.5712 72.0171 52.0201C70.2921 48.487 67.3597 46.6773 63.8235 45.3847C63.2198 45.1262 62.5298 45.04 61.8398 44.7815C63.7373 44.3506 65.6347 44.1783 67.5322 44.0059C70.6371 43.7474 73.6558 42.9718 76.7607 43.2304C80.9869 43.5751 84.3505 45.2985 86.6792 48.9178C88.1455 51.2445 89.2667 53.6574 90.3879 56.2426C89.1804 58.3108 87.7142 60.2066 86.7655 62.4471C86.7655 62.6194 86.593 62.7918 86.593 62.9641C86.5067 63.2227 86.4205 63.4812 86.593 63.6535C86.938 63.8259 87.1105 63.4812 87.1967 63.3088C88.0592 61.9301 88.9217 60.5513 89.7841 59.1725C90.1291 58.6555 90.4742 58.2246 90.7329 57.7075C91.1641 58.7416 91.5954 59.7757 91.8541 60.8098L91.9404 61.2407Z" fill="#174074"/>
<path d="M58.2174 174.042C55.1125 175.076 52.0075 175.162 48.9026 174.732C48.2989 174.732 47.6951 174.559 47.0914 174.559C45.8839 174.559 45.194 174.042 44.849 172.922C43.2103 167.493 41.744 162.064 40.0191 156.635C38.0354 150.344 35.8792 144.226 33.378 138.108C27.5993 124.148 21.217 110.36 14.8346 96.6581C10.781 87.9546 6.89983 79.1648 2.93242 70.4613C2.50118 69.5134 2.15618 68.6516 1.89744 67.7037C1.72494 67.0143 1.89744 66.4973 2.32868 66.0664C2.93241 65.4632 3.62239 64.86 4.39862 64.3429C4.65737 64.1706 4.91612 63.9121 5.00237 64.5153C5.9511 70.806 8.71103 76.4073 11.0397 82.1809C14.2309 90.0227 17.5083 97.8645 21.1308 105.534C23.632 110.704 26.2194 115.702 28.4618 120.959C33.4642 132.851 38.6391 144.743 42.2615 157.152C43.5552 161.461 45.1077 165.683 45.7977 170.164C45.8839 170.94 46.4877 171.285 47.0914 171.715C49.1613 173.094 51.5763 173.525 54.0775 173.87C55.4575 174.042 56.8374 174.042 58.2174 174.128L58.2174 174.042Z" fill="#CDC7C7"/>
<path d="M63.5648 171.888C59.2524 172.663 55.1125 172.75 50.8863 171.715C50.5413 171.629 50.1963 171.543 49.7651 171.371C48.0401 170.768 47.0914 169.82 46.5739 167.838C43.9002 156.894 40.019 146.38 35.9654 135.953C30.4455 121.993 23.8907 108.464 17.9396 94.6761C14.4896 86.5758 10.9535 78.3893 7.93478 70.1166C7.24479 68.2208 6.64107 66.2387 6.38232 64.1706C6.29608 63.3088 6.38232 62.7056 7.15855 62.1886C7.76229 61.7577 8.27977 61.2407 8.79726 60.7236C9.14225 61.2407 9.22851 61.8439 9.40101 62.3609C11.8159 70.5474 14.8346 78.5616 18.1121 86.4896C22.1657 96.3134 25.6156 106.482 29.2381 116.478C31.3943 122.424 33.7229 128.198 36.1379 133.971C40.2778 143.709 44.3314 153.533 47.0914 163.788C47.4364 165.252 47.7814 166.631 48.1264 168.096C48.2989 168.958 48.8164 169.561 49.5926 169.906C52.2663 171.285 55.1124 171.802 58.0449 171.888C59.8561 171.888 61.6673 171.888 63.4785 171.888H63.5648Z" fill="#CDC7C7"/>
<path d="M157.058 8.32997C159.214 7.38206 161.284 6.34797 163.44 5.40006C164.992 4.71067 166.631 4.10745 168.184 3.50424C168.787 3.24571 169.046 3.33189 169.132 4.02128C169.736 8.32997 170.599 12.4663 173.013 16.258C173.531 17.1197 173.876 18.0676 174.221 18.9293C174.393 19.3602 174.48 19.7049 173.79 19.6187C172.669 19.5326 171.72 19.7911 170.685 20.2219C170.426 20.3081 170.081 20.4805 169.822 20.3943C166.804 20.3081 163.871 20.4805 160.939 21.256C159.3 17.0335 158.006 12.7248 156.971 8.24379L157.058 8.32997Z" fill="#CDC7C7"/>
<path d="M159.386 22.6348C157.834 23.3242 156.971 22.8933 156.195 20.9975C154.556 17.292 153.78 13.328 152.573 9.45022C151.969 7.46822 152.055 7.46823 150.244 8.58848C145.414 11.6046 140.757 14.7068 136.013 17.8953C133.598 19.5326 131.528 21.5146 129.286 23.3242C127.043 25.22 124.887 27.1159 122.645 29.0117C121.178 30.2181 119.971 31.7692 118.677 33.2342C117.556 34.4406 116.435 35.6471 115.314 36.8535C112.64 39.6972 110.397 42.8857 108.069 45.9017C106.861 47.4529 105.74 49.004 104.619 50.6413C104.446 50.8998 104.36 51.0722 104.015 51.1583C103.929 50.2966 104.015 49.6072 104.446 48.8317C113.157 34.3545 124.973 22.9795 138.601 13.2419C143.172 9.96727 147.657 6.69266 152.4 3.67658C153.521 2.98719 153.521 2.9872 153.866 4.19363C153.953 4.53832 154.039 4.88302 154.125 5.31389C153.866 5.65859 153.866 5.83093 154.298 5.9171C154.298 6.08945 154.298 6.17563 154.384 6.34797C154.125 6.43415 154.125 6.60649 154.211 6.86501C155.16 11.0014 156.281 15.1377 157.661 19.1879C157.748 19.4464 157.834 19.8773 158.265 19.6187C158.696 20.6528 158.955 21.6869 159.214 22.721L159.386 22.6348Z" fill="#E6DEDB"/>
<path d="M73.6558 74.2529C72.9658 74.5976 72.362 74.2529 71.8446 73.9082C67.1009 70.9783 62.0123 68.9963 56.4062 68.1346C55.6299 68.0484 54.94 68.1346 54.3362 68.7378C49.5063 73.2188 45.2802 78.2169 41.399 83.4735C40.4503 84.7661 40.4503 84.8523 41.9165 85.5417C42.3477 85.714 42.779 85.9725 43.2102 86.1449C45.4527 86.7481 46.4014 88.3854 46.8326 90.5398C47.1776 92.6941 47.5226 94.8485 48.3851 96.9166C48.9026 98.2092 49.4201 98.5539 50.8 98.7263C53.4737 98.8986 55.9749 98.4678 58.4761 97.6922C63.651 96.2272 68.9121 95.4517 74.1733 94.5899C75.122 94.4176 76.0707 94.2452 77.0194 93.9867C77.4507 95.5378 77.4507 95.624 75.9845 95.9687C71.2408 97.089 66.4972 97.7784 61.6673 98.7263C58.3899 99.4157 55.1125 100.277 51.7488 100.708C51.2313 100.708 50.7138 100.708 50.1963 100.881C49.0751 101.053 48.2989 100.45 47.7814 99.5018C46.1427 96.9166 45.3664 94.0729 45.1077 91.0568C44.8489 88.5578 44.159 87.7822 41.8303 87.0066C41.4853 86.9205 41.1403 86.8343 40.8815 86.7481C38.8978 86.0587 38.4666 85.2832 39.4153 83.3012C40.4503 81.233 42.0028 79.4233 43.469 77.6137C46.4876 73.7359 49.9376 70.3751 53.56 67.1867C54.7674 66.0664 56.4062 66.1526 57.8724 66.4973C62.0985 67.6175 66.3247 68.824 70.2059 71.0645C70.7233 71.323 71.2408 71.6677 71.7583 71.84C73.052 72.1847 73.6558 73.0465 73.6558 74.3391L73.6558 74.2529Z" fill="#FDFDFD"/>
<path d="M109.104 102.518H108.931C106.603 100.881 104.446 101.484 102.463 103.207C101.945 103.638 101.6 103.638 101.083 103.293C99.444 102.346 97.719 101.742 95.9078 101.311C94.7003 101.053 94.1828 101.311 93.8378 102.518C93.7516 102.863 93.6653 103.207 93.5791 103.552C93.3203 104.241 93.0616 104.758 92.1991 104.155C91.5091 103.638 90.9054 103.897 90.3879 104.586C89.8704 105.275 89.6979 106.137 89.2667 106.913C88.4042 104.5 88.0592 102.001 87.0242 99.588C86.8517 99.2433 86.938 98.8125 86.8517 98.3816C86.8517 98.0369 87.1105 97.8645 87.3692 97.7784C89.0079 97.089 90.7329 96.3996 92.3716 95.7102C92.9753 95.4517 93.2341 95.7102 93.5791 96.0549C94.4416 97.1751 95.2178 98.2954 96.1665 99.2433C97.2015 100.277 97.8915 100.105 98.4952 98.8125C98.5815 98.8986 98.6677 99.071 98.754 99.1572C99.099 99.5018 99.2714 100.277 99.9614 100.105C100.738 99.8465 100.565 99.071 100.565 98.5539C100.565 97.2613 100.479 95.9687 100.306 94.6761C100.306 94.159 100.306 93.8144 100.996 93.8144C101.341 93.8144 101.773 93.8144 102.118 93.5558C103.843 92.6079 105.05 93.5559 106.344 94.5899C106.516 94.7623 106.689 94.9346 106.775 95.1931C107.637 97.6922 108.5 100.191 109.19 102.69C109.19 102.69 109.19 102.69 109.19 102.776L109.104 102.518Z" fill="#0ABAEE"/>
<path d="M111.519 109.929C111.979 111.25 111.634 112.313 110.484 113.117C109.19 113.979 108.069 115.099 107.034 116.306C106.775 116.65 106.344 116.995 106.43 117.598C106.344 117.685 106.258 117.771 106.171 117.943C104.015 117.512 101.859 117.254 99.6164 117.167C97.374 117.167 95.2178 117.512 93.1478 118.202C92.9753 117.598 92.8028 116.995 92.6303 116.478C92.4578 116.133 92.5441 115.789 92.8028 115.53C94.3553 114.065 95.994 112.6 97.9777 111.652C98.4089 111.48 98.7539 111.394 99.2714 111.48C100.479 111.825 101.686 111.652 102.635 110.963C103.843 110.015 105.223 109.584 106.689 109.326C107.293 109.326 107.896 109.067 108.5 108.895C108.931 108.895 109.19 109.153 109.621 109.067C110.225 109.412 110.742 109.843 111.519 109.929Z" fill="#74B62A"/>
<path d="M78.0544 76.0626C78.8307 77.9584 79.0894 80.0266 79.3482 82.0947C79.8657 85.714 80.8144 89.2471 81.1593 93.0388C82.4531 91.3153 83.6605 89.678 84.6093 87.8684C85.0405 87.0928 85.558 86.3173 86.0755 85.6279C87.0242 84.2491 88.1454 84.0767 89.5254 85.1108C91.0779 86.2311 92.3716 87.5237 93.6653 88.8163C94.8728 90.0227 96.0802 91.143 97.374 92.4356C96.8565 86.9205 96.1665 81.5777 95.3903 76.2349C95.3903 75.804 95.649 75.4594 95.994 74.8561C97.5465 82.3533 98.409 89.8504 99.3577 97.2613C99.0127 97.2613 98.9265 96.9166 98.754 96.7443C96.4253 93.2973 93.4928 90.2812 90.4741 87.3513C88.6629 85.714 87.9729 85.7141 86.5067 87.6961C85.7305 88.7301 85.0405 89.8504 84.4368 90.9706C83.1431 93.2973 81.8493 95.624 80.3831 98.2092C80.2969 96.5719 80.2106 95.1932 80.1244 93.7282C79.5206 88.1269 78.7444 82.5256 77.8819 77.0105C77.8819 76.5796 78.1407 76.4073 78.0544 75.9764V76.0626Z" fill="#F4F5F6"/>
<path d="M68.9984 64.0844C68.4809 61.7577 67.1872 59.8619 65.721 58.0522C62.961 54.6053 59.8561 51.6754 56.4062 48.9178C55.4575 48.1423 54.25 47.8837 53.215 47.2805C54.0775 46.7635 54.94 46.6773 55.975 47.022C57.6137 47.539 59.2524 47.8837 60.8911 48.487C64.0823 49.6934 66.411 51.7616 67.9634 54.6915C69.7746 57.9661 70.7234 61.5854 71.7583 65.4632C70.7234 64.9462 69.8609 64.5153 68.9984 64.0844Z" fill="#CDC7C7"/>
<path d="M83.9193 98.7263C81.9356 101.139 79.7794 103.293 77.4507 105.275C77.192 105.448 76.847 105.62 76.5882 105.793C76.157 106.051 75.8982 105.793 75.8982 105.448C75.7257 102.776 74.9495 100.277 74.6045 97.6922C75.3808 97.4337 76.2432 97.1751 77.0195 96.8304C77.8819 96.3134 78.0544 96.8305 78.1407 97.5199C78.3132 98.6401 78.4857 99.6742 79.0894 100.622C79.6069 101.57 80.2969 101.656 80.9006 100.794C81.6768 99.6742 82.3668 98.4678 82.9706 97.2613C84.2643 94.6761 85.8168 92.2633 87.8867 90.1951C88.4904 89.678 88.7492 89.5057 89.2667 90.1951C90.1292 91.3153 91.0779 92.4356 92.0266 93.5559C92.1991 93.7282 92.6304 93.9867 92.0266 94.2452C90.6467 94.6761 89.3529 95.1932 87.8867 95.7102C87.8867 95.1932 88.0592 94.7623 88.0592 94.4176C88.0592 94.1591 88.0592 93.9005 87.8005 93.8144C87.5417 93.7282 87.3692 93.9006 87.1967 94.1591C87.1105 94.3314 87.0242 94.5038 86.938 94.6761C86.5067 95.8825 85.903 96.8305 84.4368 97.089C83.4018 97.2613 83.4018 97.8646 84.0918 98.8986L83.9193 98.7263Z" fill="#CDC7C7"/>
<path d="M90.4741 56.6735C89.4392 54.1744 88.3179 51.6754 86.7655 49.3487C84.4368 45.7294 80.9869 44.0059 76.8469 43.6612C73.742 43.4027 70.7234 44.1783 67.6184 44.4368C65.721 44.6091 63.8235 44.7815 61.9261 45.2123C60.8048 45.2123 59.7699 45.04 58.4761 44.9538C59.8561 44.2644 61.2361 43.9197 62.5298 43.7474C68.1359 42.9718 73.742 42.541 79.4344 42.3686C83.0568 42.2824 85.4718 44.1783 87.283 47.022C88.9217 49.6934 89.9567 52.6233 90.9916 55.467C91.1641 55.9841 90.9916 56.3288 90.5604 56.5873L90.4741 56.6735Z" fill="#F4F5F6"/>
<path d="M92.7166 105.793C93.1479 105.793 93.4066 106.223 93.7516 106.482C94.5278 106.999 94.9591 106.827 95.1316 105.879C95.1316 105.189 95.1316 104.586 96.1665 104.672C96.5978 104.672 96.8565 104.328 97.029 103.897C97.2878 103.293 97.719 103.121 98.3227 103.38C99.099 103.724 100.393 103.897 100.651 104.5C100.91 105.103 99.7027 105.706 99.2714 106.396C98.409 107.688 97.1152 108.636 96.684 110.187C96.684 110.274 96.4253 110.36 96.2528 110.446C94.6141 111.221 93.1478 112.256 91.7679 113.376C91.1641 112.256 91.3366 111.221 92.1991 110.274C92.7166 109.67 92.7166 108.981 92.4579 108.205C92.2854 107.688 92.1128 107.257 91.9403 106.74C91.7678 106.137 91.9403 105.706 92.6303 105.706L92.7166 105.793Z" fill="#A8A8A7"/>
<path d="M93.5791 119.236C96.0803 118.288 98.6677 117.943 101.341 118.288C102.98 118.46 104.619 118.46 106.171 118.977C106.344 118.977 106.603 118.977 106.689 119.322C103.066 120.442 99.5302 121.562 95.9078 122.683C95.3903 122.855 94.8728 122.855 94.4416 122.51C94.4416 121.39 93.7516 120.356 93.5791 119.236Z" fill="#4C742D"/>
<path d="M111.519 109.929C110.829 109.929 110.225 109.412 109.621 109.067C109.794 108.205 109.017 108.292 108.586 108.119C106.43 107.344 104.274 107.688 102.29 108.636C101.169 109.153 99.9614 109.412 98.754 109.498C98.754 109.067 99.099 108.809 99.3577 108.464C99.8752 107.602 100.824 106.999 101.083 105.965C101.514 105.534 102.031 105.534 102.463 105.706C103.67 106.223 104.705 105.965 105.654 105.103C106.344 104.5 107.206 104.241 108.155 104.5C108.672 104.586 109.19 104.672 109.017 103.897C109.017 103.724 109.017 103.638 109.19 103.638C109.362 103.638 109.535 103.638 109.621 103.811C109.794 104.155 109.88 104.586 109.966 105.017C110.484 106.654 110.915 108.378 111.432 110.015L111.519 109.929Z" fill="#A8A8A7"/>
<path d="M56.5787 64.6015C58.3036 63.3088 60.1148 63.4812 61.926 63.9121C64.9447 64.6015 67.7909 65.7217 70.5509 67.0143C72.3621 67.8761 72.7071 69.1687 72.8796 71.0645C67.7047 67.8761 62.3573 65.7217 56.4924 64.5153L56.5787 64.6015Z" fill="#0ABAEE"/>
<path d="M108.5 108.895C107.896 109.067 107.293 109.239 106.689 109.326C105.223 109.498 103.843 110.015 102.635 110.963C101.686 111.739 100.479 111.825 99.2714 111.48C98.7539 111.394 98.4089 111.48 97.9777 111.652C95.994 112.6 94.3553 114.065 92.8028 115.53C92.5441 115.789 92.4578 116.047 92.6303 116.478C92.8028 117.081 92.9753 117.685 93.1478 118.202C91.5954 119.063 91.6816 118.977 91.0779 117.426C90.5604 116.133 90.9054 115.358 91.9404 114.496C93.5791 113.203 95.2178 111.825 97.2015 111.135C100.134 110.187 102.98 108.981 106.085 108.55C106.861 108.464 107.638 108.55 108.414 108.895L108.5 108.895Z" fill="#F4F5F6"/>
<path d="M92.7166 105.793C92.0266 105.793 91.8541 106.223 92.0266 106.827C92.1991 107.344 92.3716 107.775 92.5441 108.292C92.7166 108.981 92.8029 109.757 92.2854 110.36C91.4229 111.308 91.2504 112.342 91.8541 113.462C91.5091 113.893 91.0779 114.324 90.6466 114.841C90.1291 113.203 89.6979 111.652 89.1804 110.101C89.1804 110.015 89.1804 109.757 89.1804 109.757C90.0429 109.153 89.8704 108.119 90.2154 107.257C90.5604 106.396 91.2504 106.051 91.9404 105.706C92.1991 105.534 92.5441 105.62 92.8028 105.879L92.7166 105.793Z" fill="#F4F5F6"/>
<path d="M106.171 117.857C106.258 117.771 106.344 117.685 106.43 117.512C106.947 117.943 107.293 117.512 107.637 117.254C109.104 115.789 110.57 114.238 112.295 113.031C113.244 114.927 112.985 116.823 111.26 117.943C110.397 118.546 109.104 118.805 108.069 118.805C107.637 118.805 106.861 118.115 106.171 117.857Z" fill="#4C742D"/>
<path d="M86.938 98.2954C86.938 98.7263 86.938 99.1571 87.1105 99.5018C88.0592 101.915 88.4042 104.414 89.3529 106.827C89.1804 107.516 89.0079 108.119 88.8354 109.067C87.8005 106.223 86.8517 103.638 86.0755 100.967C85.8167 100.019 86.593 99.1571 87.0242 98.2092L86.938 98.2954Z" fill="#F4F5F6"/>
<path d="M158.351 19.4464C157.92 19.7049 157.834 19.274 157.748 19.0155C156.368 14.9653 155.246 10.9152 154.298 6.69266C154.298 6.43414 154.298 6.2618 154.47 6.17563C155.419 9.36406 156.368 12.5525 157.316 15.8271C157.661 17.0335 158.265 18.1538 158.351 19.4464Z" fill="#F4F5F6"/>
<path d="M108.414 103.466C106.861 103.207 105.74 103.638 104.791 104.5C104.619 104.586 104.446 104.758 104.274 104.845C103.67 105.017 102.894 105.103 102.635 104.672C102.376 104.241 103.153 103.983 103.498 103.724C104.964 102.604 106.516 102.001 108.414 103.552L108.414 103.466Z" fill="#F4F5F6"/>
<path d="M94.2691 69.341C93.4928 67.359 93.3203 65.2047 92.6303 63.2227C92.5441 62.9642 92.4578 62.7056 92.3716 62.4471C92.3716 62.1886 92.5441 62.0162 92.8891 61.8439C93.4928 64.0844 94.0966 66.3249 94.7003 68.5654C94.7866 68.9101 94.614 69.1687 94.3553 69.341H94.2691Z" fill="#E6DEDB"/>
<path d="M93.5791 119.236C93.7516 120.356 94.3553 121.39 94.4416 122.51C93.5791 122.079 92.6304 121.993 92.2854 120.787C92.0266 120.011 92.1129 119.58 92.8891 119.408C93.1479 119.408 93.3204 119.322 93.5791 119.236Z" fill="#F4F5F6"/>
<path d="M96.8565 102.518C96.2528 103.207 95.994 103.897 94.959 103.983C94.269 103.983 94.2691 104.931 94.1828 105.62C93.8378 105.448 93.4066 105.448 93.8378 104.931C94.1828 104.414 94.3553 103.811 94.5278 103.207C94.8728 102.001 94.959 101.915 96.2527 102.259C96.4252 102.259 96.5977 102.346 96.9427 102.518L96.8565 102.518Z" fill="#F4F5F6"/>
<path d="M91.9404 61.2407C91.6816 60.1204 91.2504 59.0863 90.8191 58.1384C90.8191 57.7937 90.9916 57.5352 91.4229 57.1905C91.7679 58.3108 92.0266 59.3449 92.3716 60.3789C92.4578 60.8098 92.3716 61.1545 91.9404 61.3269V61.2407Z" fill="#E6DEDB"/>
<path d="M101.083 105.965C100.824 106.999 99.8752 107.602 99.3577 108.464C99.099 108.809 98.8402 109.067 98.754 109.498C98.409 109.584 98.1502 109.843 97.6328 109.757C98.8402 108.464 99.6165 106.913 101.083 106.051L101.083 105.965Z" fill="#E6DEDB"/>
<path d="M95.0453 73.9944C94.8728 73.2188 94.7003 72.5294 94.5278 71.7539C94.5278 71.4092 94.7003 71.1507 95.1315 70.6336C95.1315 71.9262 96.1665 72.9603 95.0453 73.9944Z" fill="#E6DEDB"/>
<path d="M154.384 5.83092C153.953 5.74475 153.866 5.5724 154.211 5.22771C154.211 5.40005 154.298 5.65857 154.384 5.83092Z" fill="#F4F5F6"/>
<path d="M109.19 102.432C109.276 102.432 109.276 102.604 109.19 102.69C109.19 102.69 109.19 102.604 109.104 102.518C109.104 102.518 109.104 102.518 109.104 102.432L109.19 102.432Z" fill="#0ABAEE"/>
<path d="M113.416 43.058C118.074 39.611 122.645 36.3364 127.561 33.2342C127.388 33.0618 127.302 32.8895 127.13 32.7171C126.957 32.5448 126.871 32.2863 126.957 32.0278C127.13 31.6831 127.475 31.8554 127.647 32.0278C128.423 32.631 129.113 32.3725 129.803 32.0278C131.614 31.2522 132.218 31.5107 132.994 33.3204C132.994 33.4065 132.994 33.6651 133.167 33.6651C134.892 34.613 135.151 36.5088 135.754 38.1461C137.393 42.3686 139.032 46.6773 139.894 51.1583C140.153 52.2786 139.894 53.2265 138.946 53.9159C136.099 55.8117 133.426 57.8799 130.579 59.7757C127.561 61.8439 124.887 64.3429 122.3 66.842C121.955 67.1867 121.782 67.359 122.3 67.6175C122.558 67.7899 122.731 68.0484 122.558 68.3931C122.386 68.7378 122.127 68.9963 121.782 68.9101C120.661 68.7378 119.798 68.9101 118.85 69.5995C118.074 70.1166 117.384 69.5134 116.952 68.824C116.349 68.0484 116.004 66.9281 114.796 66.6696C114.451 66.6696 114.451 66.1526 114.796 66.0664C115.486 65.8079 115.141 65.4632 114.969 65.0323C113.416 61.4992 111.95 57.9661 110.742 54.3468C110.656 53.9159 110.484 53.6574 109.966 53.6574C109.19 53.6574 108.931 53.0542 109.19 52.451C109.707 51.3307 109.707 50.2104 109.535 49.0902C109.276 47.4529 109.794 46.0741 111.174 45.1262C111.95 44.523 112.036 43.6612 112.295 42.8857C112.467 42.541 112.295 41.8516 112.899 41.8516C113.502 41.8516 113.244 42.541 113.416 43.058ZM134.806 55.0362C136.013 54.3468 137.221 53.6574 138.428 52.968C139.032 52.6233 139.118 50.3828 138.601 50.0381C138.514 50.0381 138.342 50.0381 138.256 50.0381C137.134 50.3828 135.927 50.2966 134.892 50.8136C133.943 50.8136 133.081 50.986 132.218 51.1583C131.701 51.503 131.183 50.7275 130.752 51.0722C128.682 52.3648 126.267 53.2265 124.628 55.1223C124.025 55.8117 123.248 56.1564 122.386 56.2426C120.575 56.5011 119.022 57.1905 117.729 58.5693C117.125 59.2587 116.866 60.3789 115.659 60.4651C115.659 60.4651 115.486 60.7236 115.4 60.896C114.969 61.6715 115.486 62.2747 115.831 62.878C116.607 64.7738 116.952 66.9281 119.626 67.0143C120.143 67.0143 120.488 67.0143 120.833 66.6696C124.887 62.1886 129.803 58.7416 134.806 55.3809C134.806 55.3809 134.892 55.2947 134.978 55.2085L134.806 55.0362ZM131.356 40.7313C131.097 40.6451 130.838 40.7313 130.579 40.9036C125.922 42.8856 123.68 47.1082 121.351 51.1583C121.178 51.4169 121.351 51.9339 120.833 51.8477C120.402 51.8477 120.316 51.3307 120.23 50.986C120.23 50.5551 120.316 50.2966 120.488 49.9519C120.747 49.3487 121.265 48.9178 121.351 48.2284C121.955 47.6252 122.3 46.8496 122.817 46.0741C124.197 43.8336 126.095 42.0239 128.423 40.9036C130.234 39.9557 132.046 39.094 133.943 38.4908C134.202 38.4908 134.461 38.3184 134.547 38.1461C134.806 37.7152 133.426 35.6471 132.822 35.5609C131.614 35.3024 130.407 35.13 129.286 34.4406C128.855 34.0959 128.51 34.4406 128.165 34.613C123.68 37.4567 119.281 40.4728 114.969 43.6612C113.675 44.6091 112.64 45.557 112.64 47.2805C112.64 47.7976 112.467 48.4008 112.295 48.9178C111.519 50.986 111.605 52.968 112.554 55.0362C113.33 56.6735 113.847 58.3969 114.451 60.0342C114.624 60.3789 114.624 60.3789 114.882 60.0342C115.4 60.1204 115.486 59.6895 115.659 59.431C117.125 57.1043 119.022 55.467 121.868 55.0362C122.472 55.0362 122.99 54.6915 123.335 54.2606C124.37 53.0542 125.75 52.1924 127.13 51.3307C128.941 50.2104 131.011 49.521 132.908 48.5731C134.288 48.0561 135.582 47.3667 137.048 47.1082C137.479 47.1082 137.393 46.8497 137.307 46.5911C136.531 44.3506 135.754 42.1101 134.978 39.8696C134.892 39.611 134.806 39.3525 134.461 39.5249C133.339 40.0419 132.132 40.2143 131.097 40.7313H131.356ZM134.892 49.0902C134.892 49.0902 134.892 49.1763 134.892 49.2625C135.927 49.0902 136.876 48.8316 137.911 48.6593C138.256 48.6593 138.256 48.4008 138.169 48.1423C138.083 47.7976 137.911 48.0561 137.738 48.1423C136.789 48.4869 135.927 48.8316 134.978 49.1763L134.892 49.0902Z" fill="#070808"/>
<path d="M157.23 29.7011C157.23 30.5628 156.799 30.9937 156.281 31.3384C154.643 32.7172 152.831 33.9236 151.02 34.9577C147.829 36.8535 144.897 38.9217 142.137 41.3345C141.878 41.5069 141.619 41.6792 141.619 42.0239C141.619 42.2824 141.447 42.541 141.102 42.541C140.757 42.541 140.584 42.3686 140.412 42.1101C140.325 41.9378 140.153 41.6792 140.067 41.4207C138.514 37.4567 137.134 33.4065 135.754 29.3564C135.323 27.9776 135.754 27.202 136.617 26.3403C137.911 24.9615 139.463 23.8412 140.929 22.6348C143.862 20.3943 146.88 18.24 149.899 15.9994C150.589 15.4824 151.107 15.5686 151.538 16.258C152.141 17.292 152.831 18.4123 153.263 19.5326C154.556 22.6348 155.764 25.7371 156.971 28.7532C157.058 29.0117 157.144 29.3564 157.144 29.5287L157.23 29.7011ZM141.36 40.4728C144.552 37.2844 148.347 35.13 151.969 32.8033C153.176 32.0278 154.298 31.166 155.419 30.3905C155.764 30.1319 155.936 29.8734 155.764 29.3564C154.125 25.5647 152.918 21.6869 151.02 17.9814C150.675 17.292 150.503 17.2059 149.899 17.7229C145.414 21.0837 140.929 24.3583 136.444 27.6329C136.099 27.8914 136.272 27.9776 136.358 28.1499C138.256 32.1139 139.635 36.3364 141.36 40.559V40.4728Z" fill="#070808"/>
<path d="M75.3807 142.761C74.8633 142.847 74.3458 142.761 74.0008 142.244C73.742 141.727 74.0008 141.296 74.2595 140.865C74.432 140.607 74.5183 140.348 74.777 140.176C75.5532 139.486 75.7257 138.625 75.2945 137.677C74.8633 136.729 75.2945 136.04 76.157 135.867C77.8819 135.609 78.9169 134.488 79.8656 133.196C80.2106 132.765 80.6419 131.903 81.2456 132.248C82.0218 132.679 81.1594 133.368 80.9869 133.971C80.9869 134.144 80.9006 134.23 80.7281 134.488C82.2806 134.058 83.7468 133.713 85.1268 133.368C91.7679 131.472 98.5815 130.266 105.223 128.456C106.344 128.198 107.379 127.767 108.5 127.422C108.845 127.336 109.362 127.25 108.931 126.647C108.759 126.474 108.845 126.216 108.931 126.043C109.104 125.871 109.276 125.871 109.449 126.043C110.484 126.819 111.519 126.474 112.554 126.13C114.451 125.612 114.882 125.871 115.314 127.767C115.572 128.801 115.917 129.663 117.039 130.007C117.556 130.18 118.16 130.524 117.987 131.3C117.815 132.076 117.211 132.076 116.521 132.076C117.211 134.747 117.901 137.418 118.419 140.09C118.85 139.917 119.109 139.314 119.626 139.831C120.057 140.262 119.626 140.607 119.453 140.951C118.936 141.813 118.763 142.761 118.936 143.795C119.195 145.088 118.677 145.691 117.47 145.949C117.039 146.036 116.78 146.294 116.521 146.639C116.262 146.984 116.09 147.414 115.745 147.673C115.141 148.276 114.279 148.018 114.192 147.242C114.106 146.639 113.847 146.725 113.416 146.811C109.621 147.673 105.826 148.535 102.031 149.396C101.686 149.396 101.341 149.483 100.996 149.569C96.5115 150.689 92.1991 152.24 87.8867 153.791C87.1967 154.05 86.5067 154.05 86.1618 154.912C85.9893 155.256 85.558 155.342 85.213 155.17C84.2643 154.739 83.3156 155.17 82.3668 155.256C80.9869 155.515 80.5556 155.256 80.2969 153.964C79.9519 152.413 79.0032 151.637 77.6232 151.206C77.3645 150.948 76.847 150.861 77.1057 150.344C77.6232 150.086 78.1407 150.344 78.5719 150.344C79.0032 150.431 79.1756 150.344 79.0032 149.913C78.1407 147.07 77.2782 144.312 76.2432 141.555C75.812 141.899 75.467 142.244 75.122 142.503L75.3807 142.761ZM87.628 143.364C87.4555 143.364 87.283 143.364 87.1967 143.537C86.0755 143.881 85.213 144.657 84.3505 145.432C83.1431 146.38 82.1081 147.414 81.0731 148.535C80.4694 149.138 80.8144 150.861 81.6768 151.465C82.6256 151.896 83.6606 152.326 84.523 152.843C85.213 153.274 85.8168 153.274 86.593 153.016C90.9054 151.551 95.1315 149.827 99.5302 148.707C101.083 148.362 102.204 147.673 103.153 146.467C105.309 143.968 107.896 142.33 111.432 142.503C111.864 142.503 112.295 142.33 112.554 142.072C113.847 141.038 115.314 140.434 117.039 140.607C117.384 140.607 117.47 140.521 117.297 140.176C116.952 137.332 116.004 134.661 115.4 131.903C115.4 131.645 115.141 131.472 114.882 131.3C114.02 130.783 113.157 130.266 112.295 129.663C111.432 128.542 110.484 128.37 109.19 128.973C108.069 129.49 106.861 129.749 105.654 130.094C97.6327 132.162 89.5254 133.885 81.5044 136.04C80.3831 136.384 79.6069 136.815 79.2619 137.935C79.0032 138.366 78.7444 138.797 78.5719 139.142C77.7094 139.917 77.6232 140.779 78.1407 141.727C78.5719 142.675 78.9169 143.623 79.2619 144.571C79.6069 145.605 80.0381 146.725 80.3831 147.932C80.6419 147.587 80.7281 147.414 80.9006 147.242C82.3668 145.777 83.7468 144.226 85.4717 143.106C87.283 141.899 89.1804 141.038 91.5091 141.382C92.1128 141.468 92.5441 141.21 92.9753 140.779C93.9241 139.917 95.0453 139.228 96.2528 138.969C97.4602 138.797 97.9777 138.194 98.409 137.16C99.5302 134.402 101.773 133.885 104.101 135.781C104.705 136.298 105.395 136.643 106.171 136.815C107.465 137.16 108.672 137.591 109.535 138.625C109.794 138.969 110.139 138.883 110.484 138.711C111.519 138.366 112.554 138.022 113.589 138.194C114.796 138.366 116.176 138.366 116.866 139.745C116.607 140.09 116.435 140.262 115.917 140.004C114.969 139.486 113.934 138.969 112.726 139.4C111.864 139.486 110.915 139.659 110.139 139.917C109.621 140.09 109.276 139.917 109.017 139.573C108.414 138.711 107.637 138.194 106.603 138.022C105.309 137.763 104.188 137.332 103.153 136.384C101.773 135.178 100.479 135.522 99.6164 137.16C99.3577 137.591 99.1852 138.022 99.0989 138.452C98.8402 139.142 98.409 139.573 97.6328 139.745C96.1665 140.004 94.7865 140.521 93.6653 141.641C93.0616 142.244 92.2854 142.503 91.4229 142.416C90.3017 142.33 89.2667 142.416 88.2317 143.02C87.973 143.02 87.8004 143.02 87.7142 143.278L87.628 143.364ZM117.039 141.986C116.176 141.899 115.314 141.986 114.71 142.416C113.157 143.623 111.432 143.968 109.535 143.968C109.362 143.968 109.276 143.968 109.104 143.968C106.775 144.485 105.05 145.863 103.325 147.587C103.756 147.759 103.929 147.587 104.188 147.587C106.689 146.984 109.19 146.294 111.691 145.863C114.106 145.519 116.09 144.743 116.952 142.244C116.952 142.244 116.952 142.158 116.952 141.986H117.039ZM114.279 128.715C114.164 127.91 113.761 127.652 113.071 127.939C113.33 128.284 113.761 128.456 114.279 128.715Z" fill="#070808"/>
<path d="M50.4551 132.334C49.1614 128.801 48.2126 125.095 47.1776 121.39C46.6601 121.562 46.4877 122.079 46.1427 122.338C45.7977 122.683 45.3664 122.769 44.9352 122.51C44.5039 122.166 44.504 121.735 44.7627 121.304C45.1077 120.787 45.4527 120.27 45.7977 119.753C46.1427 119.236 46.5739 118.805 46.5739 118.115C46.5739 117.771 46.7464 117.512 47.0914 117.34C48.4714 116.65 49.2476 115.272 50.3688 114.238C50.6276 113.979 50.8863 113.462 51.4038 113.807C51.835 114.151 51.4038 114.582 51.2313 114.927C51.1451 115.185 50.9726 115.444 50.7138 115.875C57.6999 113.031 65.031 112.169 71.7583 109.067C71.3271 108.636 70.8096 108.119 70.3783 107.688C70.2058 107.516 70.1196 107.257 70.2921 106.999C70.4646 106.74 70.7234 106.827 70.8958 106.999C71.3271 107.257 71.8446 107.43 72.2758 107.688C73.1383 108.205 73.8283 108.464 74.8633 107.947C75.7257 107.516 76.6745 108.205 77.0195 109.326C77.2782 110.274 77.8819 110.36 78.5719 110.532C79.0894 110.618 80.0381 110.274 79.9519 111.308C79.9519 112.256 79.1757 112.514 78.3132 112.428C78.3132 112.428 78.1407 112.428 78.0545 112.428C79.0894 115.789 80.0381 119.149 81.0731 122.51H81.2456C81.5043 122.252 81.5906 121.562 82.1081 121.821C82.7118 122.079 82.3668 122.596 82.2806 123.027C82.1081 123.975 81.6768 124.923 82.1943 126.043C82.5393 126.733 81.9356 127.336 81.4181 127.767C80.6419 128.37 79.7794 128.801 79.3482 129.749C79.1757 130.094 78.6582 130.352 78.3994 130.094C77.7957 129.663 77.2782 130.007 76.7607 130.094C70.9821 131.903 65.1172 133.627 59.3386 135.436C58.9074 135.522 58.4761 135.523 58.3899 136.212C58.3899 136.729 57.7861 136.901 57.4412 136.729C56.4924 136.298 55.8024 136.729 54.94 136.987C53.3012 137.591 52.6113 137.418 51.9213 135.781C51.49 134.747 50.8863 133.885 49.6788 133.627C49.3338 133.627 48.6439 133.454 48.8163 132.851C48.9888 132.334 49.5063 132.679 49.9376 132.593C50.1101 132.593 50.1963 132.593 50.3688 132.593C50.3688 132.593 50.4551 132.593 50.5413 132.679C50.5413 132.679 50.5413 132.506 50.5413 132.42L50.4551 132.334ZM53.215 133.023C53.3013 133.023 53.4737 133.023 53.56 133.11C54.3362 133.368 55.1125 133.627 55.8887 133.971C56.3199 134.144 56.6649 134.144 57.0962 133.971C60.3736 132.937 63.651 131.989 66.9284 130.955C70.5508 129.835 74.1733 128.973 77.7094 127.508C79.4344 126.819 79.9519 125.613 79.4344 123.889C78.3132 120.27 77.3644 116.65 76.502 113.031C76.3295 112.169 75.9845 111.652 75.2082 111.394C74.1733 110.36 73.052 110.274 71.6721 110.877C68.0497 112.428 64.341 113.634 60.5461 114.496C56.9237 115.358 53.3875 116.737 49.8513 117.857C48.9889 118.115 48.3851 118.719 48.5576 119.58C49.6788 123.889 50.8001 128.284 52.4388 132.42C52.6113 132.765 52.6975 133.11 53.1287 132.937L53.215 133.023Z" fill="#070808"/>
<path d="M77.8819 151.465C79.2619 151.896 80.2106 152.671 80.5556 154.222C80.8144 155.601 81.3319 155.687 82.6256 155.515C83.5743 155.342 84.4368 154.912 85.4717 155.429C85.8167 155.601 86.248 155.429 86.4205 155.17C86.7655 154.395 87.5417 154.308 88.1454 154.05C92.4578 152.499 96.7702 150.948 101.255 149.827C101.6 149.827 101.945 149.741 102.29 149.655C102.29 150.258 101.859 150.258 101.514 150.431C97.029 151.809 92.7166 153.619 88.3179 155.342C85.9893 156.29 83.6606 157.411 81.4181 158.531C80.4694 158.962 80.0381 158.876 79.6931 157.928C79.0894 156.118 78.5719 154.308 78.0544 152.499C77.9682 152.154 78.0544 151.809 77.9682 151.465H77.8819Z" fill="#CDC7C7"/>
<path d="M75.3807 142.761C75.7257 142.503 76.0707 142.158 76.502 141.813C77.5369 144.571 78.4857 147.415 79.2619 150.172C79.4344 150.603 79.2619 150.775 78.8307 150.603C78.3132 150.431 77.8819 150.258 77.3644 150.603C76.5882 148.276 75.8982 145.863 75.6395 143.364C75.6395 143.192 75.5532 143.02 75.467 142.761L75.3807 142.761Z" fill="#CDC7C7"/>
<path d="M114.969 60.0342C114.71 60.2928 114.624 60.3789 114.537 60.0342C113.934 58.3969 113.33 56.6735 112.64 55.0362C111.691 52.968 111.605 50.986 112.381 48.9178C112.554 48.4008 112.726 47.8837 112.726 47.2805C112.726 45.557 113.761 44.6091 115.055 43.6612C119.367 40.4728 123.766 37.5429 128.251 34.613C128.596 34.3545 128.941 34.0959 129.372 34.4406C130.407 35.13 131.701 35.3885 132.908 35.5609C133.426 35.6471 134.806 37.7152 134.633 38.1461C134.547 38.3184 134.202 38.4046 134.029 38.4908C132.132 39.094 130.321 40.0419 128.51 40.9036C126.181 42.1101 124.283 43.9197 122.903 46.0741C122.472 46.7635 122.127 47.6252 121.437 48.2284C121.092 48.0561 120.661 47.7976 120.23 48.1423C119.54 47.7114 119.109 48.1423 118.764 48.6593C117.384 50.6413 116.78 52.968 116.262 55.3809C116.09 55.7255 115.917 56.1564 115.831 56.5011C115.572 57.7075 115.486 58.914 115.055 60.0342H114.969Z" fill="#FDFDFD"/>
<path d="M132.132 50.986C132.994 50.8998 133.943 50.6413 134.806 50.6413C135.151 51.503 135.237 52.3648 135.151 53.2265C135.064 53.8297 134.719 54.3468 134.806 55.0362C134.806 55.0362 134.719 55.1223 134.633 55.2085C129.717 58.6555 124.715 62.0162 120.661 66.4973C120.316 66.842 119.971 66.842 119.453 66.842C116.78 66.7558 116.435 64.5153 115.659 62.7056C115.917 62.3609 116.176 61.9301 116.349 61.5854C117.47 59.3448 119.195 57.7937 121.782 57.2767C122.903 57.0182 124.283 57.0182 125.146 56.0702C126.785 54.2606 129.027 53.3989 130.924 51.9339C131.356 51.6754 131.959 51.5892 132.046 50.986H132.132Z" fill="#4C742D"/>
<path d="M114.969 60.0342C115.4 58.914 115.486 57.6214 115.745 56.5011C115.831 56.0702 116.09 55.7256 116.176 55.3809C116.78 55.7256 116.952 55.3809 117.125 54.95C117.642 53.3989 118.332 51.8477 118.85 50.2966C119.108 49.4349 119.885 49.004 120.143 48.2284C120.575 47.9699 120.92 48.2284 121.351 48.3146C121.351 49.004 120.747 49.4349 120.488 50.0381C120.316 50.3828 120.143 50.7275 120.23 51.0722C120.23 51.503 120.402 51.8477 120.833 51.9339C121.351 52.0201 121.178 51.503 121.351 51.2445C123.68 47.1082 125.922 42.9718 130.579 40.9898C130.838 40.9037 131.097 40.7313 131.356 40.8175C131.787 40.8175 132.132 41.076 132.477 41.1622C132.822 41.2484 132.908 41.5069 132.736 41.7654C132.132 42.4548 132.132 43.4027 132.132 44.1783C132.132 45.6432 131.959 47.2805 133.167 48.487C131.269 49.4349 129.2 50.1243 127.388 51.2445C126.008 52.1063 124.628 52.968 123.593 54.1744C123.162 54.6053 122.645 54.95 122.127 54.95C119.281 55.3809 117.297 57.0182 115.917 59.3449C115.745 59.6034 115.572 60.1204 115.141 59.9481L114.969 60.0342Z" fill="#A8A8A7"/>
<path d="M133.167 48.487C131.959 47.2805 132.132 45.6432 132.132 44.1783C132.132 43.3165 132.132 42.4548 132.736 41.7654C132.994 41.5069 132.822 41.2484 132.477 41.1622C132.132 41.076 131.787 40.8175 131.356 40.8175C132.391 40.2143 133.598 40.0419 134.719 39.611C135.064 39.4387 135.151 39.6111 135.237 39.9557C136.013 42.1963 136.789 44.4368 137.566 46.6773C137.652 46.9358 137.738 47.1082 137.307 47.1943C135.841 47.4529 134.547 48.1423 133.167 48.6593V48.487Z" fill="#FDFDFD"/>
<path d="M132.132 50.986C132.132 51.6754 131.442 51.6754 131.011 51.9339C129.113 53.3989 126.871 54.2606 125.232 56.0703C124.37 57.0182 123.076 57.1043 121.868 57.2767C119.281 57.7937 117.556 59.2587 116.435 61.5854C116.262 62.0162 116.004 62.3609 115.745 62.7056C115.4 62.1024 114.882 61.5854 115.314 60.7236C115.314 60.5513 115.486 60.2928 115.572 60.2928C116.78 60.2066 117.039 59.0863 117.642 58.3969C118.936 57.0182 120.488 56.3288 122.3 56.0703C123.162 55.8979 123.938 55.5532 124.542 54.95C126.267 53.0542 128.596 52.1924 130.666 50.8998C131.183 50.5551 131.614 51.3307 132.132 50.986Z" fill="#F4F5F6"/>
<path d="M134.806 55.0362C134.633 54.4329 135.064 53.8297 135.151 53.2265C135.323 52.3648 135.151 51.503 134.806 50.6413C135.841 50.1243 137.048 50.2104 138.169 49.8657C138.256 49.8657 138.428 49.8657 138.514 49.8657C139.118 50.2966 139.032 52.4509 138.342 52.7956C137.134 53.5712 135.927 54.2606 134.719 54.95L134.806 55.0362Z" fill="#F4F5F6"/>
<path d="M134.892 49.0902C135.841 48.7455 136.703 48.4008 137.652 48.0561C137.824 48.0561 137.997 47.7976 138.083 48.0561C138.083 48.3146 138.169 48.487 137.824 48.5731C136.789 48.7455 135.841 49.004 134.806 49.1763C134.806 49.1763 134.806 49.0902 134.806 49.004L134.892 49.0902Z" fill="#E6DEDB"/>
<path d="M134.633 55.1223C134.633 55.1223 134.719 55.0362 134.806 54.95C134.806 54.95 134.719 55.0362 134.633 55.1223Z" fill="#F4F5F6"/>
<path d="M141.36 40.4728C139.635 36.2503 138.256 32.1139 136.358 28.0638C136.272 27.8914 136.099 27.7191 136.444 27.5467C140.929 24.2721 145.414 20.9113 149.899 17.6367C150.503 17.2059 150.675 17.292 151.02 17.8953C152.831 21.6007 154.125 25.4785 155.764 29.2702C156.023 29.7872 155.764 30.0458 155.419 30.3043C154.298 31.166 153.176 32.0277 151.969 32.7171C148.347 35.0438 144.552 37.1982 141.36 40.3866V40.4728Z" fill="#FEFEFE"/>
<path d="M78.4857 139.314C78.7444 138.883 79.0032 138.452 79.1757 138.108C82.7981 136.901 86.6793 136.47 90.3017 135.178C92.8891 134.23 95.4765 133.54 98.1502 133.196C102.98 132.506 107.379 130.697 112.122 129.835C112.985 130.352 113.847 130.955 114.71 131.472C114.969 131.645 115.141 131.817 115.227 132.076C115.917 134.833 116.78 137.591 117.125 140.348C116.952 140.348 116.694 140.348 116.694 140.09C116.004 138.711 114.624 138.797 113.416 138.539C112.381 138.366 111.26 138.711 110.311 139.056C109.966 139.142 109.707 139.314 109.362 138.969C108.5 137.935 107.206 137.504 105.999 137.16C105.223 136.987 104.533 136.643 103.929 136.126C101.6 134.23 99.4439 134.661 98.2365 137.504C97.8052 138.539 97.2877 139.142 96.0803 139.314C94.7865 139.486 93.7516 140.176 92.8028 141.124C92.3716 141.555 91.9403 141.813 91.3366 141.727C89.0942 141.382 87.1967 142.33 85.2993 143.45C83.5743 144.571 82.1943 146.122 80.7281 147.587C79.9519 144.915 79.3482 142.158 78.3994 139.486L78.4857 139.314Z" fill="#0ABAEE"/>
<path d="M116.78 140.004C116.78 140.262 117.039 140.262 117.211 140.262C117.383 140.607 117.297 140.693 116.952 140.693C115.227 140.521 113.761 141.124 112.467 142.158C112.122 142.416 111.777 142.589 111.346 142.589C107.896 142.416 105.223 144.054 103.066 146.553C102.031 147.759 100.91 148.362 99.4439 148.793C95.0453 149.914 90.8191 151.637 86.5067 153.102C85.8167 153.36 85.213 153.36 84.4368 152.93C83.4881 152.413 82.5393 151.982 81.5906 151.551C81.4181 150.603 81.1594 149.655 80.9869 148.621C82.0218 147.501 83.1431 146.467 84.2643 145.519C85.0405 145.605 86.7655 144.485 87.1105 143.623C87.283 143.623 87.4555 143.623 87.5417 143.45C87.7142 143.45 87.9729 143.45 88.0592 143.192C89.0079 143.795 89.8704 144.226 90.9916 143.709C91.1641 143.709 91.4229 143.623 91.5954 143.709C92.1991 144.226 92.6304 143.881 93.1478 143.45C94.7003 142.244 96.5115 141.382 98.409 141.038C99.3577 140.865 99.8752 140.262 100.134 139.314C100.22 138.883 100.306 138.539 100.393 138.108C100.565 137.677 100.565 137.16 101.083 137.074C101.6 137.074 101.945 137.418 102.204 137.849C102.721 138.625 103.325 139.056 104.274 139.142C105.309 139.142 106.258 139.573 107.206 140.176C107.982 140.693 108.931 141.296 110.052 141.124C110.829 141.038 111.519 140.865 112.295 140.693C112.726 140.607 113.33 140.693 113.416 140.176C113.416 139.659 112.64 140.176 112.467 139.659C113.675 139.314 114.624 139.831 115.659 140.262C116.176 140.521 116.349 140.434 116.607 140.004H116.78ZM101.428 145.777C101.686 145.777 102.031 145.95 102.118 145.519C102.118 145.174 101.945 145.088 101.686 144.915C100.651 144.485 99.6165 144.226 98.4952 144.054C96.4253 143.709 94.5278 144.485 92.6303 145.346C92.1991 145.519 91.9403 145.95 92.1991 146.38C92.3716 146.811 92.8028 146.725 93.2341 146.639C93.5791 146.553 93.9241 146.38 94.2691 146.294C95.8215 145.605 97.4602 145.26 99.1852 145.519C99.9614 145.605 100.651 145.777 101.428 145.863V145.777Z" fill="#999999"/>
<path d="M112.122 129.749C107.379 130.611 102.894 132.506 98.1502 133.11C95.4765 133.454 92.8029 134.23 90.3017 135.092C86.6793 136.384 82.7981 136.815 79.1757 138.022C79.5207 136.901 80.2969 136.384 81.4181 136.126C89.4392 133.971 97.5465 132.248 105.568 130.18C106.775 129.835 107.983 129.577 109.104 129.059C110.397 128.456 111.346 128.629 112.209 129.749H112.122Z" fill="#F4F5F6"/>
<path d="M112.64 139.659C112.812 140.176 113.675 139.659 113.589 140.176C113.589 140.693 112.812 140.521 112.467 140.693C111.777 140.951 111.001 141.038 110.225 141.124C109.104 141.296 108.155 140.693 107.379 140.176C106.43 139.486 105.481 139.142 104.446 139.142C103.498 139.142 102.808 138.711 102.376 137.849C102.118 137.418 101.773 136.987 101.255 137.074C100.738 137.074 100.651 137.677 100.565 138.108C100.393 138.452 100.393 138.883 100.306 139.314C100.048 140.262 99.6164 140.865 98.5815 141.038C96.5978 141.382 94.8728 142.244 93.3204 143.45C92.8029 143.795 92.3716 144.14 91.7679 143.709C91.6816 143.623 91.3366 143.709 91.1642 143.709C90.0429 144.226 89.0942 143.795 88.2317 143.192C89.1804 142.589 90.3017 142.503 91.4229 142.589C92.2854 142.589 93.0616 142.416 93.6653 141.813C94.7003 140.693 96.0803 140.176 97.6328 139.917C98.409 139.745 98.8402 139.4 99.0989 138.625C99.2714 138.194 99.444 137.763 99.6165 137.332C100.479 135.695 101.773 135.35 103.153 136.557C104.188 137.504 105.309 137.935 106.603 138.194C107.637 138.366 108.5 138.883 109.017 139.745C109.276 140.176 109.621 140.348 110.139 140.09C111.001 139.745 111.864 139.659 112.726 139.573L112.64 139.659Z" fill="#F4F5F6"/>
<path d="M117.039 141.986C117.039 142.158 117.039 142.244 117.039 142.244C116.176 144.743 114.192 145.519 111.777 145.863C109.276 146.294 106.775 146.984 104.274 147.587C104.015 147.587 103.843 147.759 103.411 147.587C105.05 145.863 106.861 144.485 109.19 143.968C109.362 143.968 109.449 143.968 109.621 143.968C111.519 143.968 113.244 143.537 114.796 142.416C115.4 141.986 116.262 141.899 117.125 141.986L117.039 141.986Z" fill="#4C742D"/>
<path d="M78.4857 139.314C79.4344 141.986 80.0381 144.743 80.8144 147.414C80.6419 147.587 80.5556 147.759 80.2969 148.104C79.8656 146.897 79.5207 145.863 79.1757 144.743C78.8307 143.795 78.5719 142.761 78.0545 141.899C77.537 140.865 77.6232 140.004 78.4857 139.314Z" fill="#F4F5F6"/>
<path d="M87.1967 143.623C86.8517 144.485 85.0405 145.605 84.3505 145.519C85.213 144.829 86.0755 144.054 87.1967 143.623Z" fill="#E6DEDB"/>
<path d="M80.9869 148.535C81.1594 149.483 81.4181 150.431 81.5906 151.465C80.7281 150.861 80.3831 149.138 80.9869 148.535Z" fill="#E6DEDB"/>
<path d="M114.279 128.715C113.847 128.456 113.416 128.37 113.071 127.939C113.704 127.594 114.106 127.853 114.279 128.715Z" fill="#0ABAEE"/>
<path d="M88.1454 143.192C88.0592 143.45 87.8004 143.45 87.628 143.45C87.7142 143.192 87.9729 143.192 88.1454 143.192Z" fill="#E6DEDB"/>
<path d="M87.628 143.364C87.628 143.623 87.3692 143.623 87.1967 143.537C87.1967 143.278 87.4555 143.278 87.628 143.364Z" fill="#E6DEDB"/>
<path d="M77.6232 127.508C74.087 128.973 70.4646 129.835 66.8422 130.955C63.5648 131.989 60.2873 133.023 57.0099 133.971C56.5787 134.058 56.2337 134.144 55.8024 133.971C55.0262 133.627 54.25 133.368 53.4738 133.11C53.6463 132.765 53.7325 132.42 53.9912 132.162C55.0262 131.214 55.1125 130.007 54.94 128.715C55.6299 128.715 55.63 128.284 55.63 127.853C55.63 126.819 55.8887 125.785 56.4062 124.923C56.7512 124.406 56.8374 123.975 56.7512 123.372C56.5787 122.252 56.5787 121.131 57.6136 120.27C58.0449 119.925 58.3036 119.839 58.7349 120.27C59.3386 120.873 59.5974 121.649 59.8561 122.424C60.0286 123.2 60.3736 123.631 61.3223 123.803C62.1848 123.889 62.961 123.889 63.8235 123.975C64.686 123.975 65.6347 123.975 65.9797 124.837C66.411 125.957 66.756 126.905 68.1359 127.25C68.5672 127.336 68.8259 128.284 69.3434 127.681C69.7746 127.164 69.1709 126.733 68.8259 126.302C68.5671 126.043 68.3084 125.871 67.9634 125.785C67.7047 125.785 67.5322 125.613 67.4459 125.354C67.1009 123.372 65.5485 122.855 63.9097 122.683C63.651 122.683 63.2198 122.769 63.306 122.252C63.306 121.131 64.5135 119.58 65.6347 119.322C66.0659 119.236 66.3247 118.977 66.411 118.46C66.4972 118.029 66.5835 117.685 66.7559 117.254C67.1872 116.306 67.7047 116.133 68.4809 116.737C68.8259 116.995 69.0846 117.254 69.6021 117.254C70.5508 117.254 70.8096 117.857 70.8958 118.632C70.8958 119.063 70.8958 119.494 70.8958 119.839C70.8958 120.184 70.8958 120.701 71.3271 120.701C71.9308 120.701 71.8446 120.27 71.9308 119.839C71.9308 119.58 71.7583 119.149 72.1896 119.063C72.5346 119.063 72.7933 119.149 73.052 119.408C73.3108 119.667 73.5695 119.925 73.742 120.27C74.2595 121.218 74.777 122.079 75.2082 123.027C75.3807 123.458 75.5532 123.717 76.0707 123.458C76.157 124.923 77.5369 125.871 77.7094 127.336L77.6232 127.508Z" fill="#74B62A"/>
<path d="M77.6232 127.508C77.4507 126.043 76.0707 125.095 75.9845 123.631C76.2432 123.372 76.2432 122.941 76.157 122.683C75.467 121.304 75.122 119.58 73.7421 118.719C72.6208 118.115 71.4133 117.685 70.6371 116.65C70.6371 116.564 70.3784 116.478 70.2921 116.478C69.6884 116.478 69.2571 116.133 68.8259 115.875C67.7909 115.185 66.7559 115.272 66.2385 116.306C65.6347 117.512 64.8585 118.374 63.7373 119.149C62.8748 119.753 62.7023 120.959 62.4435 121.993C62.4435 122.338 62.4435 122.683 61.9261 122.683C61.4948 122.683 61.2361 122.51 61.0636 122.079C60.8911 121.649 60.7186 121.131 60.5461 120.787C60.0286 119.839 59.2524 119.149 58.1311 119.149C57.1824 119.149 56.4062 120.097 55.9749 121.39C55.8024 121.993 55.7162 122.683 55.9749 123.286C56.1474 123.803 55.9749 124.148 55.7162 124.492C55.0262 125.785 54.4225 127.077 55.1125 128.629C55.285 129.921 55.1987 131.128 54.1637 132.076C53.905 132.334 53.8187 132.679 53.6462 133.023C53.56 133.023 53.3875 133.023 53.3013 132.937C52.2663 128.801 51.145 124.665 49.7651 120.528C49.3338 119.236 49.3338 119.149 50.7138 118.805C54.3362 117.943 57.8724 116.909 61.4086 115.703C63.4785 114.927 65.4622 113.807 67.7047 113.376C69.9471 112.945 72.0171 112.169 74.1733 111.739C74.5183 111.739 75.0358 111.566 75.2945 111.221C76.0707 111.48 76.4157 111.997 76.5882 112.859C77.3644 116.564 78.3132 120.184 79.5206 123.717C80.0381 125.44 79.5206 126.647 77.7957 127.336L77.6232 127.508Z" fill="#0ABAEE"/>
<path d="M75.2082 111.394C74.9495 111.739 74.5183 111.825 74.087 111.911C71.9308 112.342 69.7746 113.117 67.6184 113.548C65.376 113.979 63.4785 115.099 61.3223 115.875C57.7861 117.167 54.25 118.115 50.6276 118.977C49.2476 119.322 49.2476 119.322 49.6788 120.701C51.0588 124.751 52.18 128.887 53.215 133.11C52.7838 133.196 52.6113 132.851 52.525 132.593C50.8001 128.456 49.6788 124.061 48.6439 119.753C48.4714 118.977 49.0751 118.374 49.9376 118.029C53.4737 116.823 56.9237 115.53 60.6323 114.668C64.4272 113.721 68.1359 112.6 71.7583 111.049C73.1383 110.446 74.2595 110.532 75.2945 111.566L75.2082 111.394Z" fill="#F4F5F6"/>
<path d="M50.4551 132.334C50.4551 132.334 50.4551 132.506 50.4551 132.593C50.4551 132.593 50.3688 132.593 50.2826 132.506C50.2826 132.506 50.3688 132.42 50.4551 132.334Z" fill="#FDFDFD"/>
<path d="M120.23 48.1423C119.971 48.9178 119.195 49.4349 118.936 50.2104C118.418 51.7616 117.815 53.3127 117.211 54.8638C117.039 55.3809 116.866 55.6394 116.262 55.2947C116.78 52.968 117.384 50.6413 118.764 48.5731C119.109 48.1423 119.54 47.6252 120.23 48.0561L120.23 48.1423Z" fill="#070808"/>
<path d="M101.428 145.777C100.651 145.691 99.9614 145.519 99.1852 145.432C97.4602 145.26 95.8215 145.519 94.269 146.208C93.924 146.38 93.5791 146.467 93.2341 146.553C92.8891 146.639 92.4578 146.725 92.1991 146.294C92.0266 145.863 92.1991 145.432 92.6303 145.26C94.4415 144.398 96.339 143.623 98.4952 143.968C99.6164 144.14 100.651 144.398 101.686 144.829C101.945 144.915 102.204 145.088 102.118 145.432C102.118 145.777 101.686 145.691 101.428 145.691L101.428 145.777Z" fill="#070808"/>
<path d="M55.0262 128.715C54.3362 127.25 55.0262 125.871 55.63 124.578C55.8025 124.148 55.9749 123.803 55.8887 123.372C55.7162 122.769 55.8025 122.079 55.8887 121.476C56.2337 120.184 57.0099 119.236 58.0449 119.236C59.1661 119.236 59.9423 119.925 60.4598 120.873C60.7186 121.304 60.8048 121.735 60.9773 122.166C61.1498 122.596 61.4086 122.683 61.8398 122.769C62.3573 122.769 62.2711 122.424 62.3573 122.079C62.616 121.045 62.7885 119.839 63.651 119.236C64.7722 118.46 65.5485 117.598 66.1522 116.392C66.6697 115.358 67.7047 115.272 68.7396 115.961C69.1709 116.306 69.6884 116.564 70.2059 116.564C70.3784 116.564 70.5509 116.564 70.5509 116.737C71.3271 117.857 72.6208 118.202 73.6558 118.805C75.0358 119.58 75.467 121.304 76.0707 122.769C76.2432 123.027 76.157 123.458 75.8982 123.717C75.3808 123.975 75.2083 123.717 75.0358 123.286C74.6045 122.338 74.087 121.39 73.5695 120.528C73.397 120.184 73.1383 119.925 72.8796 119.666C72.6208 119.408 72.3621 119.236 72.0171 119.322C71.5858 119.408 71.7583 119.839 71.7583 120.097C71.7583 120.528 71.7583 121.045 71.1546 120.959C70.6371 120.959 70.7234 120.442 70.7234 120.097C70.7234 119.666 70.7234 119.236 70.7234 118.891C70.7234 118.115 70.3784 117.512 69.4296 117.512C68.9984 117.512 68.6534 117.254 68.3084 116.995C67.4459 116.478 66.9284 116.564 66.5834 117.512C66.4109 117.857 66.3247 118.288 66.2385 118.719C66.1522 119.149 65.8935 119.408 65.4622 119.58C64.341 119.925 63.2198 121.39 63.1335 122.51C63.1335 123.027 63.4785 122.941 63.7373 122.941C65.4622 123.113 66.9285 123.631 67.2734 125.613C67.2734 125.871 67.5322 125.957 67.7909 126.043C68.1359 126.043 68.4809 126.302 68.6534 126.56C68.9984 126.991 69.6884 127.422 69.1709 127.939C68.6534 128.542 68.3947 127.594 67.9634 127.508C66.6697 127.164 66.3247 126.13 65.8072 125.095C65.4622 124.32 64.4272 124.234 63.651 124.234C62.7885 124.234 62.0123 124.234 61.1498 124.061C60.2874 123.975 59.9423 123.458 59.6836 122.683C59.5111 121.907 59.1661 121.131 58.5624 120.528C58.1311 120.097 57.8724 120.184 57.4412 120.528C56.4924 121.39 56.4062 122.51 56.5787 123.631C56.6649 124.234 56.5787 124.665 56.2337 125.182C55.6299 126.043 55.3712 127.077 55.4575 128.112C55.4575 128.542 55.4575 129.059 54.7675 128.973L55.0262 128.715Z" fill="#070808"/>
<defs>
<filter id="filter0_d_2222_5849" x="12" y="8" width="185" height="185" filterUnits="userSpaceOnUse" color-interpolation-filters="sRGB">
<feFlood flood-opacity="0" result="BackgroundImageFix"/>
<feColorMatrix in="SourceAlpha" type="matrix" values="0 0 0 0 0 0 0 0 0 0 0 0 0 0 0 0 0 0 127 0" result="hardAlpha"/>
<feOffset dx="-5" dy="5"/>
<feComposite in2="hardAlpha" operator="out"/>
<feColorMatrix type="matrix" values="0 0 0 0 0 0 0 0 0 0 0 0 0 0 0 0 0 0 1 0"/>
<feBlend mode="normal" in2="BackgroundImageFix" result="effect1_dropShadow_2222_5849"/>
<feBlend mode="normal" in="SourceGraphic" in2="effect1_dropShadow_2222_5849" result="shape"/>
</filter>
</defs>
</svg>
