<svg width="701" height="910" viewBox="0 0 701 910" fill="none" xmlns="http://www.w3.org/2000/svg">
<path d="M678.88 484.444C676 487.324 670.24 487.805 667.52 484.444C665.12 481.563 662.56 478.682 660.48 475.481C659.84 475.161 658.24 472.761 658.24 472.601C657.6 471.64 657.44 470.52 657.12 469.4C656.64 468.28 656.16 467.159 656 465.879C646.08 465.879 636.8 467.159 633.76 471.32C630.56 475.962 630.4 482.843 630.4 482.843L693.76 507.97C693.76 507.97 686.88 495.647 678.88 484.284V484.444Z" fill="white"/>
<path d="M234.88 909.032H113.6C113.28 905.511 112.8 901.99 112.48 898.309C111.84 891.748 111.04 885.026 110.72 878.464C110.24 869.822 109.28 861.18 108.64 852.538C108 843.736 107.52 834.933 106.88 826.131C106.08 813.328 105.76 800.524 104.96 787.881C104.16 775.078 104.32 762.275 104.48 749.471C104.48 722.905 106.08 696.338 107.52 669.771C108 661.769 108.64 653.767 109.28 645.605C110.4 634.402 112.16 623.359 114.08 612.156C116.64 596.632 119.36 581.108 122.88 565.904C127.36 546.219 132.8 526.694 139.68 507.81C149.6 480.123 161.92 453.716 180.32 430.35C189.12 418.987 199.52 409.545 211.84 402.183C220 397.381 228.64 393.38 237.44 390.18C238.72 390.34 239.84 390.66 241.12 390.82C242.24 391.14 243.36 391.14 244.16 390.02C247.04 391.14 249.92 392.1 252.48 394.021C252.48 394.181 252.48 394.341 252.48 394.501C250.88 395.141 250.24 395.941 251.84 397.221C252.48 397.701 253.44 398.022 254.24 398.502C259.2 401.062 264.32 403.463 269.28 406.024C270.56 406.664 272.16 407.144 273.44 408.584C271.2 408.584 269.6 408.264 268 408.264C257.12 407.304 246.72 408.584 236.16 411.465C224.48 414.666 216.96 422.348 211.2 432.11C207.2 438.832 204.48 446.194 202.4 453.716C202.08 454.996 201.44 456.276 200.96 457.717C198.72 459.637 197.12 462.198 195.68 464.759C184.32 484.284 178.4 505.409 176.48 527.655C175.04 544.619 175.68 561.743 178.88 578.548C184.16 607.035 194.24 633.602 213.6 656.008C214.72 657.288 216 658.408 215.84 660.329C214.4 660.969 212.96 660.489 211.68 660.329C209.6 660.009 207.68 659.368 205.76 659.048C198.08 657.608 190.4 656.808 182.88 654.567C182.08 654.407 181.44 654.247 180.64 654.567C180.32 653.927 180 653.927 179.52 654.567C178.56 654.567 177.76 653.607 176.48 654.087C177.92 655.688 179.36 656.488 180.8 657.448C186.4 661.129 192 664.49 197.92 667.53C213.28 675.533 229.28 681.134 246.56 683.054C249.28 683.375 252 683.535 254.4 685.775C252.48 687.216 250.56 687.696 248.64 688.336C228.8 694.737 208.64 696.658 188.16 693.297C179.2 691.857 170.4 689.776 161.6 687.856C160.48 687.536 159.36 686.895 158.08 687.856C160.16 689.136 162.24 689.936 164.32 690.576C171.04 692.497 177.6 694.737 184.64 695.858C185.28 697.618 187.04 697.618 188.48 698.098C197.6 701.139 206.88 703.54 216.32 705.46C223.52 707.061 231.04 707.701 238.4 706.74C241.44 706.42 244.64 706.26 248.64 705.94C243.52 711.702 237.76 715.543 232.16 719.384C226.4 723.385 219.84 725.625 212.64 728.186C235.68 732.987 256.48 727.706 276.64 718.423C277.12 719.064 276.96 719.544 276.96 720.024C276.16 725.945 274.56 731.707 272.64 737.468C268.48 750.432 263.2 762.915 254.88 773.798C246.56 784.52 238.24 795.243 228.8 805.006C224.16 809.807 219.36 814.448 213.92 818.289C213.44 818.609 212.48 818.929 212.8 820.049C214.08 820.049 215.2 820.049 216.48 820.21C216.16 820.85 215.04 821.17 215.2 821.97C215.52 822.93 216.48 822.45 217.12 822.29C217.44 822.29 217.76 821.97 218.24 821.97C223.68 820.21 228.96 817.969 234.24 815.728C242.24 812.208 249.44 807.406 256.96 803.085C261.12 808.687 261.92 815.088 261.44 821.65C260.96 829.012 258.24 835.733 256.48 842.775C252.48 858.619 248 874.303 241.92 889.507C239.36 895.749 236.96 901.99 235.2 908.552C235.2 908.872 235.2 909.032 235.04 909.352L234.88 909.032Z" fill="#FEFFFE"/>
<path d="M237.441 390.179C228.641 393.54 220.001 397.381 211.841 402.182C199.521 409.544 189.121 419.147 180.321 430.35C162.081 453.716 149.761 480.122 139.681 507.809C132.801 526.854 127.361 546.219 122.881 565.904C119.361 581.268 116.801 596.632 114.081 612.156C112.161 623.199 110.401 634.402 109.281 645.605C108.481 653.607 107.841 661.609 107.521 669.771C106.081 696.338 104.481 722.904 104.481 749.471C104.481 762.275 104.161 775.078 104.961 787.881C105.761 800.684 105.921 813.488 106.881 826.131C107.521 834.933 108.001 843.735 108.641 852.538C109.281 861.18 110.241 869.822 110.721 878.464C111.041 885.026 111.841 891.748 112.481 898.309C112.801 901.83 113.281 905.351 113.601 909.032H112.001C110.721 907.752 109.121 908.232 107.681 908.232C73.2806 908.232 39.0406 908.232 4.64062 908.232C5.28063 901.99 5.76063 895.749 6.56063 889.507C7.84063 878.304 9.44063 866.941 10.7206 855.738C11.8406 846.456 12.8006 837.174 14.0806 828.051C15.6806 814.928 17.4406 801.965 19.2006 789.001C20.8006 777.158 22.4006 765.475 24.1606 753.792C26.5606 737.628 28.9606 721.464 31.6806 705.3C32.3206 700.979 32.4806 696.338 33.9206 692.177C35.0406 688.336 36.1606 684.495 36.8006 680.494C37.1206 679.693 37.2806 679.053 37.4406 678.253C42.7206 656.487 49.2806 635.202 54.5606 613.436C57.6006 600.953 60.9606 588.63 64.0006 576.307C66.5606 565.744 68.6406 555.022 71.5206 544.619C78.7206 518.692 84.9606 492.766 89.4406 466.199C91.0406 456.756 93.2806 447.474 96.4806 438.352C99.3606 430.51 102.721 422.988 105.441 415.146C108.801 405.383 112.801 395.781 118.241 386.979C122.401 379.937 128.161 374.175 136.481 372.095C142.081 370.654 147.841 370.014 153.601 370.654C158.081 371.135 162.561 371.615 166.881 372.095C169.601 373.055 172.481 373.215 175.361 373.375C176.321 374.495 177.601 373.855 178.721 374.015C179.521 374.015 180.321 374.015 180.961 374.335C193.761 377.376 206.561 380.737 219.201 384.578C225.441 386.498 231.521 388.579 237.761 390.5L237.441 390.179Z" fill="#76B82B"/>
<path d="M33.92 692.017C32.32 696.178 32.32 700.82 31.68 705.141C29.12 721.305 26.56 737.469 24.16 753.633C22.4 765.316 20.8 777.159 19.2 788.842C17.44 801.805 15.68 814.929 14.08 827.892C12.96 837.175 11.84 846.457 10.72 855.579C9.28001 866.782 7.84001 878.145 6.56001 889.348C5.76001 895.59 5.28 901.831 4.64 908.073C4.64 908.393 4.64 908.553 4.64 908.873H0C0 901.511 1.12001 894.149 1.92001 886.787C3.52001 872.704 5.28 858.62 7.04 844.536C8.96 829.013 10.88 813.649 12.8 798.125C14.4 786.282 15.84 774.278 17.6 762.435C19.36 749.952 21.28 737.469 23.2 724.986C25.28 710.902 27.68 696.979 29.76 683.055C33.12 660.489 37.12 638.244 41.6 615.998C46.24 593.272 50.88 570.546 56 547.821C59.52 531.816 64.48 515.972 68.32 499.968C72.48 482.524 76 465.079 80 447.635C83.68 431.631 86.4 415.307 91.52 399.623C95.84 386.339 100.64 373.056 106.88 360.413C108.48 357.212 110.4 355.931 114.08 356.252C117.44 356.572 117.28 356.252 117.76 353.051C118.72 345.529 118.88 337.687 120.8 330.325C121.44 328.084 122.24 326.004 122.88 323.763C124 320.562 126.08 319.282 129.6 319.122C135.84 318.962 142.08 320.082 148.16 321.203C148.48 321.203 148.96 321.363 149.28 321.523C151.04 322.003 152 321.683 152.48 319.602C153.76 313.681 155.2 307.919 156 301.998C157.44 292.555 158.88 283.113 160.48 273.67C160.8 272.07 160 270.95 159.84 269.509C158.4 269.509 158.08 270.79 157.12 271.43C153.6 274.151 151.36 273.83 148.96 269.989C148.64 269.349 148.16 268.709 147.84 268.069C146.4 268.389 145.76 269.669 144.8 270.31C141.76 272.23 138.56 273.83 134.72 272.71C131.2 271.75 129.28 269.509 129.12 265.828C129.12 262.628 129.12 259.427 129.44 256.226C130.08 247.744 129.12 239.422 127.2 231.1C126.4 227.739 125.12 224.538 123.68 221.497C119.36 212.855 114.4 204.693 109.12 196.691C103.52 188.209 97.92 179.566 93.76 170.284C88 157.321 84.64 143.717 84.8 129.474C84.8 122.272 85.76 115.07 88.64 108.188C91.2 101.947 95.2 97.3054 100.8 93.7845C101.44 93.4644 102.08 92.9842 102.88 92.3441C101.6 90.5836 100.48 88.8232 99.36 87.2228C96.64 83.2217 93.92 79.2207 91.84 74.7396C86.88 63.6967 88.32 53.2941 95.84 43.8517C98.56 40.3308 101.92 37.29 105.6 34.7293C121.92 22.8863 139.84 14.5642 159.04 8.64267C172.96 4.32157 187.04 2.08099 201.44 0.800663C203.84 0.800663 206.08 0.800666 208.48 0.640625C211.68 0.640625 214.88 0.640625 218.24 0.640625C219.36 0.640625 220.32 0.640623 221.44 0.800663C224.8 1.12075 228 1.76092 231.36 1.92096C256.32 4.00149 278.4 12.9638 297.6 28.9679C302.72 33.289 308 37.13 313.6 40.8109C324.64 48.1728 336.64 52.6539 349.92 54.2543C352.96 54.5744 356 54.4144 359.04 53.9342C363.52 53.134 366.4 50.7334 368.32 46.8925C368.48 46.4123 368.64 45.9322 368.96 45.4521C369.6 44.0117 370.08 42.2513 372 42.5714C373.76 42.8914 374.24 44.6519 374.56 46.0923C377.28 56.1748 374.08 72.0189 361.12 78.1004C360.8 78.2605 360.48 78.4205 359.68 78.9006C363.04 81.3013 366.56 82.4215 370.4 82.7416C378.4 83.7019 385.92 82.1015 392.16 76.5C392.96 75.8599 393.76 75.0597 394.88 75.6998C396.16 76.34 396.16 77.4603 395.68 78.7406C392.96 86.9027 389.76 94.9047 383.36 100.986C377.12 107.068 369.28 110.109 360.48 110.429C358.72 110.429 356.96 110.429 354.88 110.429C354.88 112.349 355.04 114.11 355.2 115.71C355.84 128.353 357.44 140.836 358.72 153.48C360.64 172.205 364.8 190.449 369.44 208.694C371.36 215.896 374.56 222.617 379.52 228.219C379.84 228.539 380.16 229.019 380.48 229.499C382.56 232.38 382.4 234.14 379.84 236.541C376.8 239.582 372.96 240.862 368.96 241.822C365.92 242.462 362.88 242.622 359.84 242.622C356.96 242.622 356.8 242.623 356.48 245.503C355.52 254.786 353.76 263.908 351.84 273.03C349.92 282.473 346.4 291.115 341.6 299.277C334.4 311.12 323.2 317.362 310.24 320.722C303.52 322.483 296.64 322.643 289.76 321.843C286.08 321.363 286.4 320.562 284.96 324.724C282.72 331.605 281.92 338.647 281.12 345.849C280.96 347.929 281.44 348.73 283.52 349.37C293.76 352.571 304 355.931 313.92 359.932C321.6 363.133 322.4 364.254 322.08 372.576C322.08 375.456 321.44 378.177 320.8 380.898C319.2 388.1 317.12 395.302 315.04 402.343C313.12 408.905 309.76 414.827 305.28 420.108C306.08 420.748 306.72 421.228 307.36 421.548C320.16 429.39 330.56 439.793 339.84 451.636C355.04 471.161 369.28 491.486 382.72 512.451C398.08 536.298 412.96 560.464 426.72 585.27C432.16 595.033 437.12 605.115 442.24 615.198C445.44 621.279 445.92 627.361 442.88 633.602C442.08 635.363 442.4 636.163 443.84 637.443C453.92 647.046 464.64 656.168 474.88 665.451C480.48 670.572 485.92 675.693 490.56 681.615C491.68 681.615 492 680.654 492.64 680.014C499.04 672.012 507.2 666.091 515.2 659.849C527.52 650.247 540.16 640.964 551.68 630.562C563.52 619.839 574.56 608.156 584 595.193C591.2 585.27 596.8 574.547 600.96 563.024C601.92 560.304 602.56 557.743 602.56 554.862C602.88 540.939 607.84 529.256 619.04 520.454C622.56 517.733 626.24 515.172 629.92 512.612C630.88 511.971 632 511.651 632.64 510.531C640.48 506.69 646.56 501.089 651.36 493.407C645.28 493.567 640 491.966 635.2 489.566C632 486.365 631.04 486.525 628.64 489.886C626.4 492.926 626.72 495.487 629.6 497.888C630.4 498.688 631.36 499.328 632.48 499.648C634.56 501.569 637.76 501.569 639.52 504.129C637.6 504.93 636.16 503.649 634.56 504.129C632.16 502.689 629.44 501.889 627.36 499.968C626.72 499.328 625.92 499.648 625.44 500.288C624.32 501.409 624.16 502.689 624.96 504.129C626.08 506.21 627.84 507.65 630.24 507.97C630.88 508.771 632.8 508.29 632.48 510.051C629.44 510.531 626.72 510.051 624.32 507.97C621.12 505.09 621.12 500.768 624 498.688C624.96 498.048 625.28 497.408 624.96 496.127C623.68 491.966 625.6 488.926 628.48 486.365C630.08 484.924 630.72 483.964 629.92 481.724C628.48 477.082 629.44 472.921 633.6 469.881C640 465.079 647.36 463.479 655.2 464.119C655.84 464.119 656.48 464.279 657.12 464.599C657.6 464.759 657.92 465.239 657.92 465.72C657.92 466.36 657.6 466.68 657.12 466.84C656.16 467 655.04 467.16 654.08 467.16C648.32 467.32 642.72 468.44 637.6 471.481C633.6 473.882 632.48 476.282 633.28 480.603C633.28 483.484 635.04 485.405 637.12 486.845C641.44 489.726 646.24 491.326 651.36 491.966C652.48 492.126 653.28 491.966 653.92 490.846C656.64 486.845 660.16 483.484 663.36 479.963C666.24 478.043 668.64 475.642 671.68 473.882C675.52 471.641 679.52 470.361 684 471.161C688.96 471.961 691.36 474.682 691.68 479.643C692 483.644 691.04 487.485 689.76 491.166C688.96 493.407 688.16 495.807 687.52 498.048C686.08 500.768 684.64 503.489 683.2 506.21C680 512.131 676.48 517.733 672.8 523.174C671.84 524.615 670.88 526.055 668.8 524.775C668.8 523.334 669.44 522.054 670.24 520.934C673.12 515.972 676 511.011 678.88 506.05C682.24 500.128 684.8 493.887 686.56 487.325C687.04 485.405 687.52 483.324 687.52 481.243C687.52 476.922 685.12 475.002 680.8 475.642C679.52 475.802 678.4 476.282 677.12 476.602C674.72 477.403 672.64 479.003 670.56 480.443C664.64 484.764 660 490.366 655.68 496.287C650.56 503.489 644.48 509.411 636.8 513.892C631.84 516.773 627.04 520.133 622.56 523.654C612 531.816 607.04 542.699 607.2 555.983C607.2 559.824 607.36 563.665 607.84 567.506C608 570.066 608.48 572.787 607.04 575.508C604.64 573.267 605.44 569.906 603.84 567.506C603.04 568.146 602.88 568.946 602.72 569.586C599.04 578.868 594.88 587.991 589.12 596.153C577.12 612.797 563.52 627.681 547.68 640.804C535.68 650.567 523.52 660.009 511.2 669.612C502.56 676.333 495.2 684.015 490.08 693.618C488 697.459 485.6 701.14 483.36 704.821C482.88 705.461 482.72 706.581 481.44 706.261C481.12 704.821 481.44 703.54 481.76 702.1C482.88 697.939 484.32 694.098 486.4 690.417C487.36 688.817 488.96 687.376 488.96 685.776C488.96 683.855 486.4 683.215 485.12 681.935C480.96 677.454 476.64 673.133 472 668.972C462.56 660.489 452.64 652.167 443.68 643.045C443.52 642.885 443.04 642.725 442.56 642.565C438.24 651.367 433.12 659.529 427.52 667.531C423.36 673.453 419.2 679.374 414.88 685.456C410.4 690.897 406.08 696.339 401.6 701.78C391.36 714.103 380.16 725.466 367.2 735.068C366.4 735.709 365.28 736.029 364.48 737.309C368.64 740.03 372.8 742.59 376.64 745.471C387.68 753.793 399.36 761.155 411.52 767.877C422.56 773.958 433.12 781 444.8 785.961C456.64 791.083 468.32 796.524 481.28 798.445C491.36 800.045 500.8 799.085 509.6 793.483C514.56 790.283 519.36 786.922 523.68 782.921C533.6 773.958 541.28 763.396 547.84 751.873C553.6 741.95 558.88 731.708 564 721.305C581.76 684.656 600.8 648.646 621.6 613.437C631.36 597.113 643.04 582.709 657.6 570.386C664.64 564.465 671.52 558.383 678.56 552.462C682.72 548.941 685.6 544.78 687.04 539.498C688.48 533.897 689.92 528.456 691.52 522.854C693.12 517.413 694.56 511.971 697.76 507.33C699.36 507.17 700.16 507.81 700 509.411C700 510.051 699.84 510.691 699.52 511.171C696.48 518.373 695.04 526.055 693.12 533.577V533.897C688.64 550.221 688 550.061 677.12 559.504C669.76 565.905 662.24 572.147 655.04 578.708C644 588.791 634.72 600.154 627.04 613.117C611.04 640.164 595.68 667.531 581.6 695.698C574.56 709.782 567.52 723.866 560.48 737.789C552.64 753.153 542.4 766.436 531.84 779.72C522.08 791.883 509.12 798.285 495.04 803.406C493.6 803.886 492.32 803.886 490.88 803.886C481.6 803.886 472.64 801.966 464 798.765C447.84 792.843 432.48 785.641 417.76 776.519C415.04 774.759 412.32 773.158 409.44 771.718C397.44 765.156 385.92 757.634 375.04 749.472C367.2 743.711 358.72 738.909 351.04 732.988C348.48 731.067 345.76 729.307 343.36 727.226C341.6 725.786 340.16 725.306 338.08 726.746C335.84 728.347 332.96 729.147 330.56 730.427C328 731.868 325.6 731.708 323.2 730.427C320.8 729.147 318.56 727.706 316.32 726.426C315.36 725.786 314.56 724.986 312.96 724.666C312.48 727.867 312 730.907 311.68 733.948C310.88 740.35 309.76 746.591 307.36 752.513C305.92 756.034 304.16 759.235 302.08 762.275C300.64 764.516 299.84 766.757 300 769.477C300.16 772.358 300.32 775.079 300.64 777.959C301.28 786.762 301.6 795.564 299.04 804.206C297.28 809.808 297.6 815.889 297.44 821.651C297.28 829.012 297.44 836.214 297.12 843.576C296.64 853.019 295.84 862.461 295.2 871.903C295.04 875.264 294.56 878.465 294.4 881.826C294.4 890.468 292.64 899.11 292.32 907.753C292.32 908.073 292.32 908.393 292.48 908.873H286.4C287.2 901.031 288 893.189 288.8 885.347C289.12 881.346 289.28 877.505 289.76 873.504C291.04 861.501 292.32 849.338 292.48 837.175C292.48 830.613 292.48 824.051 292.8 817.65C293.12 812.048 293.6 806.447 295.84 801.165C297.28 797.804 299.04 794.444 299.36 790.603C299.84 783.561 296.8 777.319 294.88 770.117C292.16 774.279 289.12 777.159 286.4 780.52C283.36 783.081 280.32 785.641 277.28 787.882C270.88 792.843 264.32 797.644 257.76 802.606C250.24 806.927 243.04 811.728 235.04 815.249C229.76 817.65 224.48 819.73 219.04 821.491C218.72 821.491 218.4 821.811 217.92 821.811C217.28 821.811 216.32 822.291 216 821.491C215.68 820.69 216.8 820.37 217.28 819.73C221.76 817.65 226.24 815.729 230.56 813.648C231.2 813.328 232.32 813.328 232.32 812.048C233.28 812.368 233.92 812.048 234.24 811.248C235.52 811.248 236.48 810.608 237.44 809.808C239.04 809.007 240.64 808.367 242.24 807.407C255.04 799.885 267.04 791.243 278.56 781.96C283.36 778.119 287.68 773.798 291.36 768.837C297.44 760.515 303.2 751.873 305.12 741.47C306.24 735.388 307.36 729.467 308.64 723.385C308.96 721.625 308.64 720.345 307.04 719.544C306.24 719.064 305.6 718.584 304.8 718.104C296.16 710.742 287.36 703.54 278.72 696.179C277.6 695.218 276.96 695.218 276 696.339C272.32 700.82 267.84 704.501 263.2 707.861C255.52 713.463 247.52 718.424 238.4 721.305C237.12 721.625 235.84 722.425 234.56 721.785C234.88 720.505 235.84 720.345 236.64 720.025C246.08 716.023 254.56 710.262 262.72 704.181C266.4 701.46 269.92 698.419 272.96 695.058C274.88 693.138 274.88 692.818 272.96 691.057C270.88 688.977 268.48 687.216 266.4 685.136C265.28 684.015 264.32 684.175 263.04 684.976C256.32 688.817 249.28 691.537 241.76 693.458C233.76 695.538 225.76 696.499 217.6 697.459C210.24 697.459 202.72 697.139 195.36 696.659C192.16 695.538 188.64 695.218 185.28 694.898C178.4 693.778 171.68 691.537 164.96 689.617C162.88 688.977 160.8 688.336 158.72 686.896C160 685.936 161.28 686.576 162.24 686.896C171.04 688.817 179.84 690.897 188.8 692.337C209.44 695.698 229.6 693.778 249.28 687.376C251.2 686.736 253.12 686.256 255.04 684.816C252.64 682.735 249.76 682.415 247.2 682.095C229.92 680.174 213.92 674.413 198.56 666.571C192.64 663.53 187.04 660.169 181.44 656.488C180 655.528 178.4 654.568 177.12 653.127C178.4 652.647 179.2 653.448 180.16 653.608C180.48 654.088 180.8 654.088 181.28 653.768C181.28 654.248 181.6 654.728 182.08 655.048C190.4 658.889 198.72 662.89 207.2 666.411C220.16 671.692 233.44 676.333 247.52 677.934C251.04 678.254 254.4 678.734 258.4 677.934C252.8 672.332 247.52 667.371 243.36 661.29C244.16 660.809 244.48 660.97 244.64 661.29C251.68 668.972 260.16 675.053 268 681.775C280.96 692.978 294.24 703.7 307.52 714.583C312.64 718.744 318.08 722.745 323.84 725.946C325.12 726.586 326.4 727.547 328.16 726.746C332.64 724.666 337.28 722.745 341.28 719.705C347.68 714.583 353.6 708.982 359.84 703.7C369.92 696.339 380 688.977 390.24 681.615C403.52 672.012 415.68 660.969 426.56 648.646C430.56 644.165 434.4 639.524 437.28 634.243C440.64 628.161 441.28 622.4 437.6 616.158C432.16 606.556 427.52 596.633 422.08 587.031C408.48 562.544 393.6 538.858 378.56 515.332C365.44 494.847 351.52 475.002 336.64 455.797C331.52 449.235 326.08 442.674 319.68 437.072C311.84 430.03 303.04 424.429 294.24 418.668C288.48 414.987 282.4 412.746 275.68 412.106C274.08 412.106 272.32 411.786 270.72 411.626C258.56 410.345 246.72 411.306 235.2 415.307C226.72 418.187 220.8 423.949 216.64 431.631C216.16 431.791 216 432.111 216.32 432.591C215.2 433.071 214.88 434.352 214.4 435.312C210.24 442.514 207.68 450.196 205.6 458.198C203.52 465.88 200.96 473.562 199.84 481.564C198.88 488.125 197.6 494.687 196.64 501.249C195.04 511.971 193.92 522.854 193.44 533.577C193.12 544.3 195.84 554.382 199.2 564.305C202.24 573.107 206.24 581.589 209.92 590.071C216.8 605.915 222.88 622.08 231.84 636.963C232.16 637.443 232.48 638.084 231.84 638.564C231.2 638.404 230.88 637.764 230.56 637.283C227.2 632.002 223.84 626.721 221.12 621.119C212.48 603.355 204.48 585.43 196.8 567.346C190.24 551.982 188.8 536.138 190.56 519.653C191.36 512.451 192.16 505.25 193.28 498.048C194.88 488.285 196.16 478.363 198.72 468.6C199.68 464.759 201.12 461.078 201.76 457.077C202.24 455.797 202.88 454.517 203.2 453.076C205.28 445.554 208 438.193 212 431.471C217.76 421.708 225.28 413.866 236.96 410.826C247.52 407.945 257.92 406.664 268.8 407.625C270.4 407.625 272 407.945 274.24 407.945C272.8 406.344 271.36 406.024 270.08 405.384C265.12 402.823 260 400.423 255.04 397.862C254.24 397.542 253.44 397.222 252.64 396.582C251.04 395.302 251.68 394.501 253.28 393.861C254.08 394.021 254.72 394.341 255.52 394.021C255.68 394.821 256.48 394.661 257.12 394.821C257.44 395.462 257.92 395.622 258.56 395.622C258.88 396.262 259.36 396.422 260.16 396.422H260.32H260.48C260.96 397.062 261.6 397.222 262.4 397.222C269.44 400.583 276.64 403.464 283.52 407.145C289.6 410.345 295.84 413.546 301.6 417.067C303.84 418.507 304 418.347 305.28 415.947C305.76 414.987 306.24 414.186 306.72 413.226C310.72 405.224 313.12 396.582 315.2 387.94C316.48 382.658 318.24 377.377 318.4 371.776C318.56 365.694 318.4 365.534 312.96 363.293C301.12 358.332 289.12 354.331 276.8 350.97C276.16 350.81 275.36 350.01 274.72 351.29C275.36 352.731 276 354.491 276.8 356.092C278.56 360.253 280.32 364.574 281.28 369.055C281.28 369.855 281.76 370.655 280.64 370.975C279.84 370.655 279.68 369.855 279.36 369.215C277.76 365.214 276.16 361.213 274.4 357.212C273.28 354.651 272.96 351.29 270.72 349.85C268.48 348.41 265.44 348.089 262.72 347.449C260.8 346.969 258.72 346.009 256.48 346.329C258.08 350.97 260.48 355.131 261.12 360.093C260.64 359.772 260.16 359.772 260.16 359.612C259.04 357.212 257.92 354.811 256.8 352.251C253.76 345.049 253.76 345.049 246.08 343.608C244.16 343.288 242.24 342.168 240.16 343.128C240.96 346.969 243.04 350.49 243.2 354.811C241.76 354.171 241.44 353.211 241.12 352.411C239.84 349.53 238.56 346.489 237.28 343.608C236.96 342.808 236.8 341.688 235.84 341.528C232.32 340.728 228.8 339.607 224.96 339.607C225.28 342.648 227.36 344.569 227.36 347.289L227.04 347.609C224.96 345.849 224.16 343.448 223.2 341.208C222.4 339.447 221.28 338.647 219.2 338.167C199.2 333.846 179.2 330.325 159.04 326.804C155.52 326.164 152.16 325.044 148.48 325.204C143.2 323.603 137.92 322.963 132.32 322.803C127.52 322.643 127.36 322.803 125.92 327.444C125.76 327.924 125.6 328.404 125.44 328.885C122.72 337.527 122.72 346.489 121.76 355.291C121.76 356.412 122.08 356.892 123.2 356.892C126.4 357.212 129.44 357.692 132.64 358.172C134.56 358.652 136.64 358.972 138.56 359.452C151.52 362.013 164.32 365.534 177.28 368.415C199.04 373.216 220.32 379.778 241.44 387.299C242.88 387.78 244.48 387.94 244.8 390.02C244 391.301 242.88 391.14 241.76 390.82C240.48 390.5 239.36 390.34 238.08 390.18C232 388.26 225.76 386.179 219.52 384.259C206.88 380.418 194.08 377.057 181.28 374.016C180.48 373.856 179.84 373.856 179.04 373.696C178.4 372.896 177.6 372.896 176.8 373.056C173.6 372.096 170.4 371.295 167.2 370.815C160.16 368.735 152.8 367.294 145.6 365.694C136.16 363.453 126.56 362.013 116.96 360.893C112.64 360.413 112.16 360.573 110.56 364.574C105.12 377.857 99.84 391.141 95.84 404.904C90.88 422.188 87.68 439.953 83.52 457.397C79.52 474.362 76.32 491.326 72 508.13C68 523.174 63.68 538.218 60.48 553.422C53.6 585.75 46.72 618.079 40.8 650.567C39.04 660.329 37.6 670.252 36.16 680.014C35.2 683.855 34.4 687.856 34.56 691.857L33.92 692.017ZM330.72 67.5377C330.24 67.2176 329.76 66.8976 329.12 66.7375C328.64 66.5775 328.16 66.2574 327.84 66.0974C325.76 64.657 323.2 63.8568 320.96 62.8965C318.56 61.7763 316 60.816 313.44 59.8558C311.04 59.0556 308.48 58.4154 306.08 57.4552C303.68 56.655 300.96 57.1351 298.08 54.8945C306.56 55.5347 314.08 56.4949 321.44 58.8955C328.48 61.1361 335.04 64.657 341.44 68.3379C345.76 71.8588 350.56 74.2595 355.36 76.9802C356.64 77.7804 357.6 76.9801 358.4 76.34C361.6 73.9394 364.48 71.2187 366.72 68.0179C367.52 66.8976 368.64 65.9373 368.32 64.3369C369.12 64.657 368.96 64.0168 368.96 63.5367C370.88 59.3756 371.52 54.8945 371.04 50.2533C370.56 50.2533 370.24 50.2533 370.08 50.5734C365.6 57.4552 358.72 58.7355 351.36 58.4154C338.4 57.9353 326.72 53.7742 315.52 47.3726C314.08 46.5724 312.64 45.7722 311.2 45.132C311.04 44.3318 310.56 44.1718 309.92 44.1718C309.28 42.8914 308 42.4113 306.88 41.9312C305.76 41.131 304.64 40.1707 303.52 39.3705C296.16 33.7691 289.12 27.8476 281.44 22.7263C262.72 10.4031 241.76 5.92198 219.84 4.48161C208.96 3.84145 198.08 4.48161 187.36 6.08202C161.6 9.44288 137.76 18.5652 115.52 32.0086C109.76 35.5295 104.48 39.3705 100 44.3318C91.84 52.974 90.24 62.8965 95.2 73.6193C97.76 79.2207 101.44 84.182 104.96 89.1432C106.24 90.9037 107.36 91.2238 108.96 89.7834C119.84 86.5826 130.72 82.9017 142.08 81.6213C136.96 78.7406 133.28 74.7396 130.4 69.9383C127.68 65.2971 125.6 60.3359 124.64 55.0546C123.52 49.133 123.68 43.3716 125.92 37.7701C126.24 36.9699 126.88 36.1697 126.56 35.2095C127.2 35.3695 127.36 34.8894 127.36 34.4093C128 33.6091 128.48 32.9689 129.12 32.1687C129.44 31.6886 129.92 31.2084 130.4 32.1687C125.28 43.6916 126.4 54.8945 131.68 65.9373C138.72 80.501 149.28 83.0617 163.84 80.8211C161.44 78.4205 159.36 76.0199 157.92 73.2992C152.64 63.5367 150.56 53.1341 151.84 42.0912C152.48 35.6896 155.36 30.0882 160.32 25.7671C163.04 23.3664 166.08 21.9261 169.92 21.766C169.92 22.4062 169.76 22.7263 169.44 22.8863C161.12 26.5673 157.12 33.449 155.68 41.9312C153.92 52.974 156.48 63.2166 161.92 72.8191C163.52 75.6998 165.92 78.1004 168.64 80.181C169.28 80.6611 169.92 81.3013 170.56 81.3013C175.84 81.7814 181.12 82.2615 186.4 82.5816C186.4 82.1015 186.4 81.9414 186.4 81.9414C186.08 81.1412 185.76 80.341 185.44 79.3808C182.72 73.1392 181.44 66.4174 181.12 59.6957C180.64 49.2931 184.16 39.8507 189.6 31.0484C198.24 17.605 210.56 11.8435 226.4 12.9638C227.52 12.9638 228.64 12.9638 229.44 14.0841C229.28 14.0841 229.12 14.2441 228.96 14.2441C227.36 14.2441 225.92 14.2441 224.32 14.4041C214.24 14.8843 205.28 18.4052 198.4 25.9271C188.32 36.9699 183.68 50.0933 185.76 65.1371C186.4 70.4185 187.84 75.6998 190.24 80.5011C191.2 82.2615 192.32 83.5418 194.56 83.7019C197.44 84.0219 200.32 84.6621 203.2 85.3023C205.6 85.7824 208 86.7426 210.72 86.7426C210.72 83.3818 210.72 80.181 210.72 77.1402C211.04 63.8568 215.2 52.0138 224.16 42.0912C232 33.449 241.76 29.2879 253.12 28.3277C264.96 27.3675 275.52 31.2084 285.76 36.4898C286.24 36.6498 286.72 36.9699 286.24 37.6101C284.8 37.6101 283.36 36.8099 282.08 36.1697C275.36 33.449 268.48 31.8486 261.28 31.6886C241.6 31.2084 226.4 40.4908 218.88 58.0953C215.2 66.5775 214.56 75.6998 214.88 84.8222C214.88 87.5428 215.84 89.1432 218.56 89.9435C222.24 91.0637 225.76 92.6642 229.12 94.5847C229.92 95.0648 231.04 95.3848 230.88 96.8252C228.32 97.3053 226.08 96.1851 223.84 95.3849C212.8 91.7039 201.6 88.9832 189.92 87.3828C187.36 87.0627 184.96 87.3828 182.56 88.5031C177.6 91.3838 175.2 95.865 174.24 101.146C172.48 110.909 172.96 120.671 175.36 130.434C176.8 136.515 179.68 141.957 182.24 147.398C182.24 147.398 181.92 147.718 181.92 147.878C180.64 147.398 180.16 146.118 179.36 145.158C170.4 132.194 168.48 117.631 170.08 102.267C170.56 98.2656 172 94.5846 174.24 91.2238C175.36 89.6234 176.8 88.183 178.08 86.5826C177.12 85.6224 176.16 85.7824 175.2 85.7824C171.04 85.7824 167.04 85.7824 162.88 85.4623C154.56 85.1423 147.04 90.7437 145.6 99.706C144.32 107.548 145.28 115.23 147.04 122.912C148.64 129.634 151.84 135.555 154.88 141.637C155.52 142.757 156.48 143.877 156.32 145.798C154.24 144.517 153.28 142.757 152.16 141.157C149.12 136.835 147.2 132.034 145.12 127.233C144.96 126.753 145.44 125.793 144.32 125.633C144.48 124.352 144.16 123.072 143.84 121.632C142.4 115.39 141.6 109.148 142.08 102.747C142.56 96.3451 144.64 90.7437 149.76 86.7426C150.08 86.4226 150.08 86.1025 149.76 85.6224C147.2 86.1025 144.48 85.4623 141.92 86.5826C140.64 86.4226 139.52 86.5826 138.4 87.3828C137.12 88.5031 135.52 89.4633 134.08 90.5836C128.16 95.2248 125.12 101.306 125.12 108.668C125.12 118.591 127.36 127.873 132.8 136.195C134.88 139.396 137.12 142.597 139.2 145.798C139.68 146.598 140.64 147.238 140.32 148.678C138.72 148.358 137.76 147.078 136.64 146.118C132 141.637 128.8 136.195 125.76 130.434C125.6 128.993 125.12 127.553 124.32 126.273C123.04 120.351 121.6 114.59 121.92 108.508C122.08 101.146 124.64 94.7447 130.4 89.9435C131.04 89.4633 132 89.3033 131.84 88.023C131.2 88.023 130.56 88.023 129.92 88.183C121.44 89.9435 113.12 92.5041 104.8 95.0648C104.16 95.2248 103.52 95.5449 103.2 95.865C97.76 100.346 93.28 105.307 91.2 112.349C89.44 118.431 88.32 124.512 88.48 130.914C88.96 142.917 91.04 154.44 95.84 165.483C100 175.085 105.44 184.048 111.2 192.85C116.64 201.012 121.76 209.174 126.24 217.816C128 221.337 129.6 225.018 130.56 228.859C133.28 239.582 134.24 250.465 132.96 261.507C132.8 262.948 132.96 264.388 132.96 265.668C132.96 267.429 134.08 268.389 135.84 268.709C137.44 268.869 138.88 269.029 140.16 267.749C142.24 267.429 143.36 265.828 144.64 264.388C145.28 263.588 145.92 262.788 146.56 261.987C147.2 261.187 148 260.547 149.12 260.867C150.4 261.187 150.4 262.308 150.4 263.428C150.4 265.188 150.4 266.789 151.2 268.389C152 270.47 152.96 270.63 154.72 269.509C156.32 268.389 157.28 266.789 158.24 265.028C158.72 264.228 159.04 263.268 160.16 263.588C160.96 263.748 161.12 264.708 161.12 265.508C161.28 267.589 162.08 269.509 163.36 271.11C164.8 272.87 165.76 273.03 167.52 271.43C169.92 269.349 171.68 266.949 172.8 263.908C177.12 252.385 174.88 241.822 167.84 232.38C161.76 224.218 157.6 215.416 155.52 205.493C153.92 197.811 152.96 190.129 155.2 182.287C156.32 178.286 158.08 174.605 160.96 171.564C170.56 161.642 186.24 159.721 197.92 168.844C198.88 169.644 199.68 170.604 201.28 171.084C200.96 164.843 198.88 158.601 200.8 152.359C202.24 152.84 202.24 153.96 202.4 154.76C203.04 157.961 203.84 161.322 204.32 164.523C205.92 175.565 209.44 186.128 215.04 195.891C216.8 198.931 216.8 198.771 220.16 197.971C227.84 196.051 235.52 193.97 243.36 192.69C244.32 192.53 245.28 192.37 246.24 191.409C239.84 183.247 237.12 173.805 236 163.882C234.4 150.759 234.08 137.636 234.24 124.352C234.24 115.55 235.2 107.068 237.92 98.5857C238.08 97.9455 238.24 97.1453 238.24 96.3451C238.72 86.4226 244 79.7008 252.16 74.8996C259.84 70.4185 268.48 69.6183 277.12 70.8986C292.16 72.9791 306.08 78.4205 317.92 88.183C319.52 89.6234 321.28 90.7437 323.04 92.184C323.36 92.6642 323.68 92.9842 324.16 92.9842C324.96 94.1045 325.92 94.7447 327.2 95.2248C327.52 95.5449 327.68 95.7049 328 96.025C336.8 102.107 346.56 104.987 356.96 105.788C371.68 106.908 384.48 98.1056 388.64 84.5021C388.8 84.5021 389.12 84.182 389.12 84.0219C388.8 83.5418 388.48 83.7019 388.16 84.0219C377.12 88.8232 366.24 88.023 355.84 82.1015C352.48 80.181 349.12 78.4205 345.76 76.6601C344.32 75.3798 342.88 74.2594 340.96 73.6193C340.48 72.8191 339.52 72.339 338.56 72.0189C337.92 71.2187 337.12 70.8986 336.16 70.5785C335.84 70.0984 335.2 69.7783 334.56 69.7783C334.24 69.1381 333.6 68.9781 332.96 68.9781C332.96 68.3379 332.32 68.3379 331.68 68.1779C331.36 67.6978 331.04 67.5377 330.4 67.3777L330.72 67.5377ZM374.88 230.299C368.48 221.977 365.12 212.535 362.88 202.452C361.76 197.491 360.64 192.53 359.68 187.568C357.44 176.366 355.04 165.163 354.56 153.64C354.08 144.357 352.96 135.075 352.16 125.793C352.16 121.632 352 117.631 351.84 113.469C351.84 110.109 351.84 109.949 348.32 109.308C337.6 107.228 328 102.587 319.52 95.7049C316.8 93.4644 313.92 91.2238 311.04 89.1432C297.76 79.8609 283.2 74.5795 266.88 75.3797C256.8 75.8599 248.64 80.181 244 89.6234C242.24 93.3043 240.96 97.3053 239.84 101.306C235.84 114.91 236.8 128.833 237.6 142.757C237.6 151.079 238.24 159.401 239.52 167.563C240.8 174.925 242.88 181.967 247.52 188.049C251.52 193.33 251.04 194.77 244.48 196.051C236.16 197.651 227.84 199.732 219.52 201.812C215.52 202.772 214.88 202.612 212.48 199.091C209.76 195.25 207.68 190.929 206.08 186.448C205.44 184.528 204.32 182.767 202.88 181.327C199.68 175.245 194.56 171.404 188.16 169.164C177.28 165.483 161.6 171.244 159.36 186.128C158.72 190.929 158.88 195.57 159.52 200.212C160.8 208.694 163.2 216.856 167.68 224.378C170.24 228.699 173.28 232.7 177.6 235.421C181.12 237.501 184.64 238.942 188.8 237.661C191.2 237.821 193.6 237.181 195.84 236.381C199.52 235.261 203.2 233.98 207.2 232.7C206.4 235.261 204.64 236.381 203.04 237.341C194.88 241.982 186.4 243.583 177.44 240.382C177.28 240.062 176.8 239.902 176.48 240.062C176.16 240.382 176.48 240.702 176.48 241.022C177.12 243.583 177.92 246.143 178.24 248.864C179.2 257.666 177.76 265.988 171.84 272.87C169.44 275.591 166.72 277.511 163.04 276.551C161.92 284.393 160.64 292.075 159.68 299.917C158.72 307.599 157.12 315.121 155.04 323.123C166.08 325.044 176.96 326.964 187.84 328.885C199.68 331.285 211.68 333.686 223.52 336.086C240 339.447 256.64 342.648 272.96 346.969C274.08 347.289 275.04 348.089 276.32 347.449C277.12 345.209 276.8 342.968 277.12 340.728C277.44 338.967 278.24 336.887 277.6 335.446C276.96 333.686 274.4 333.846 272.64 333.206C256.16 326.324 242.72 315.281 229.6 303.438C228.64 302.638 228.16 301.678 228.64 300.397C229.76 300.397 230.56 300.717 231.52 301.358C237.44 304.558 243.84 306.799 250.24 309.36C259.52 313.04 269.28 315.441 279.04 316.882C287.68 318.322 296.48 319.602 305.28 317.842C318.4 315.121 330.08 309.52 337.28 297.677C343.04 288.074 347.36 277.992 348.64 266.469C339.36 265.508 330.56 263.428 323.68 256.386C322.56 257.506 321.44 258.467 320.48 259.427C320 259.907 319.36 260.067 318.72 259.747C318.24 259.587 318.24 258.947 318.24 258.467C318.72 253.985 320.96 250.304 323.36 246.784C323.84 246.143 324.64 245.823 325.44 246.143C326.4 246.463 326.88 247.264 326.72 248.384C326.72 249.024 326.56 249.664 326.24 250.144C324.8 252.225 325.76 253.665 327.36 255.106C332.64 259.907 339.2 261.987 346.24 262.788C349.92 263.268 349.92 263.108 350.72 259.587C352.16 253.665 352.16 247.424 353.12 241.342C354.4 240.062 356.16 239.422 357.92 239.582C360.64 239.742 363.2 239.262 365.92 238.942C368.96 238.621 371.84 237.661 374.56 235.901C377.28 234.14 377.28 233.98 375.04 231.42C375.04 231.42 374.88 231.42 374.72 231.26L374.88 230.299Z" fill="#0D0F0D"/>
<path d="M285.601 780.84C288.161 777.479 291.361 774.759 294.081 770.438C296.001 777.639 299.041 783.881 298.561 790.923C298.241 794.764 296.481 797.965 295.041 801.485C292.801 806.767 292.321 812.368 292.001 817.97C291.681 824.531 291.681 830.933 291.681 837.495C291.681 849.658 290.241 861.661 288.961 873.824C288.481 877.825 288.481 881.666 288.001 885.667C287.201 893.509 286.401 901.351 285.601 909.193H280.961C280.961 908.873 280.961 908.713 280.961 908.393C281.281 905.192 281.441 901.991 281.921 898.95C284.001 885.827 286.241 872.704 288.321 859.58C290.081 848.377 289.921 837.175 285.601 826.292C284.001 822.131 284.001 818.13 285.921 814.129C286.721 812.528 287.361 810.768 288.161 809.167C289.121 807.087 289.921 804.846 290.241 802.606C291.041 794.924 289.121 787.722 285.761 780.84H285.601Z" fill="#FAF8F7"/>
<path d="M4.64047 909.032C4.64047 908.712 4.64047 908.552 4.64047 908.232C39.0405 908.232 73.2805 908.232 107.68 908.232C109.12 908.232 110.72 907.591 112 909.032H4.48047H4.64047Z" fill="#77B82D"/>
<path d="M280.801 908.393C280.801 908.713 280.801 908.873 280.801 909.193H234.721C234.721 908.873 234.721 908.713 234.881 908.393C250.081 908.393 265.441 908.393 280.641 908.393H280.801Z" fill="#77B82D"/>
<path d="M217.759 0.480128C214.559 0.480128 211.359 0.480128 207.999 0.480128C207.839 0.480128 207.679 0.160041 207.999 0H217.919C217.919 0.160041 217.919 0.320087 217.919 0.480128H217.759Z" fill="#77B82D"/>
<path d="M208.001 0C208.001 0.160041 208.001 0.320087 208.001 0.480128C205.601 0.480128 203.361 0.480125 200.961 0.640166C200.961 0.480125 200.961 0.160041 200.961 0H207.841H208.001Z" fill="#F2C8D1"/>
<path d="M217.76 0.480128C217.92 0.480128 218.08 0.160041 217.76 0H220.8C220.8 0.160041 220.8 0.480125 220.8 0.640166C219.68 0.640166 218.72 0.640169 217.6 0.480128H217.76Z" fill="#F2C8D1"/>
<path d="M697.12 507.169C693.92 511.97 692.32 517.252 690.88 522.693C689.28 528.135 687.84 533.736 686.4 539.337C684.96 544.619 682.08 548.78 677.92 552.301C670.88 558.222 664 564.304 656.96 570.225C642.56 582.548 630.72 596.952 620.96 613.276C600.16 648.325 581.12 684.334 563.36 721.144C558.4 731.547 552.96 741.629 547.2 751.712C540.64 763.235 532.96 773.797 523.04 782.76C518.72 786.761 513.76 789.962 508.96 793.322C500.16 799.084 490.72 799.884 480.64 798.284C467.68 796.363 456 790.922 444.16 785.8C432.48 780.839 421.92 773.797 410.88 767.716C398.72 760.994 387.04 753.792 376 745.31C372.16 742.429 368 739.869 363.84 737.148C364.48 735.868 365.6 735.548 366.56 734.907C379.52 725.465 390.56 713.942 400.96 701.619C405.44 696.178 409.92 690.736 414.24 685.295C415.52 689.616 417.92 693.457 420.64 696.818C422.72 699.218 425.12 701.459 426.88 704.02C430.24 708.821 435.04 712.022 439.84 715.222C445.6 718.903 451.68 722.264 457.44 725.945C466.88 732.027 477.44 733.467 488.32 732.347C496.16 731.547 503.2 728.026 509.6 723.385C519.04 716.503 527.52 708.661 534.88 699.538C541.28 691.536 548.64 684.495 555.04 676.653C560.64 669.931 566.4 663.209 572.8 657.128C573.12 656.807 573.28 656.487 573.6 656.327C578.4 650.246 583.2 644.164 588.16 638.083C596.32 627.84 604.32 617.437 611.04 606.074C612.96 603.034 614.72 599.993 616.8 597.112C623.04 588.47 628.96 579.828 633.28 570.065C634.4 567.505 636 565.104 637.76 563.023C644.96 553.741 652.48 544.779 659.68 535.496C662.4 531.976 665.6 528.775 667.68 524.774C669.76 526.054 670.72 524.614 671.68 523.173C675.36 517.732 679.04 512.13 682.08 506.209C683.52 503.488 684.96 500.768 686.4 498.047C690.4 500.447 694.24 503.008 696.8 507.009L697.12 507.169Z" fill="#F3C8D1"/>
<path d="M662.56 480.122C659.36 483.643 655.84 487.004 653.12 491.005C652.48 491.965 651.68 492.285 650.56 492.125C645.44 491.325 640.64 489.885 636.32 487.004C634.24 485.564 632.48 483.643 632.48 480.762C639.2 475.321 647.2 473.4 655.52 471.64C656.48 471.48 657.28 471.64 657.76 472.6C659.2 475.321 661.6 477.241 662.72 480.282L662.56 480.122Z" fill="#F2C8D1"/>
<path d="M359.201 704.18C352.961 709.461 347.041 715.062 340.641 720.184C336.641 723.384 332.001 725.145 327.521 727.225C325.761 728.026 324.481 727.225 323.201 726.425C317.281 723.224 312.001 719.383 306.881 715.062C293.601 704.179 280.321 693.457 267.361 682.254C259.521 675.532 251.201 669.451 244.001 661.769C243.681 661.449 243.361 661.289 242.721 661.769C246.881 667.85 252.161 672.811 257.761 678.413C253.761 679.053 250.401 678.733 246.881 678.413C232.801 676.812 219.521 672.171 206.561 666.89C198.081 663.369 189.761 659.368 181.441 655.527C180.961 655.367 180.801 654.727 180.641 654.247C181.441 653.927 182.241 654.087 182.881 654.247C190.401 656.327 198.241 657.127 205.761 658.728C207.841 659.048 209.761 659.688 211.681 660.008C212.961 660.328 214.401 660.648 215.841 660.008C215.841 658.088 214.721 656.967 213.601 655.687C194.241 633.441 184.161 606.875 178.881 578.227C175.841 561.423 175.201 544.299 176.481 527.334C178.241 505.089 184.161 483.803 195.681 464.438C197.121 461.878 198.721 459.477 200.961 457.396C200.321 461.397 198.881 465.078 197.921 468.919C195.361 478.522 194.081 488.444 192.481 498.367C191.361 505.569 190.561 512.771 189.761 519.972C188.001 536.457 189.441 552.301 196.001 567.665C203.681 585.749 211.681 603.834 220.321 621.438C223.041 627.04 226.401 632.321 229.761 637.602C230.081 638.083 230.401 638.723 231.041 638.883C231.681 638.243 231.201 637.763 231.041 637.282C222.081 622.399 216.001 606.234 209.121 590.39C205.441 581.908 201.441 573.426 198.401 564.624C194.881 554.701 192.161 544.619 192.641 533.896C192.961 523.013 194.241 512.29 195.841 501.568C196.801 495.006 197.921 488.444 199.041 481.883C200.321 473.881 202.721 466.199 204.801 458.517C207.041 450.675 209.601 442.833 213.601 435.631C214.081 434.671 214.401 433.39 215.521 432.91C215.681 435.471 215.521 438.031 215.041 440.592C214.081 447.154 213.441 453.715 214.401 460.437C215.041 465.558 215.681 470.52 216.161 475.641C217.921 493.726 221.601 511.17 227.841 528.134C233.281 542.858 239.041 557.422 244.961 571.986C249.121 582.068 253.761 591.831 260.001 600.793C269.281 614.557 279.841 627.52 290.081 640.483C298.881 651.846 309.121 661.769 319.041 672.171C330.881 684.655 343.681 695.857 359.201 703.699V704.18Z" fill="#76B72B"/>
<path d="M259.84 397.062H259.68H259.52C259.2 396.422 258.72 396.262 257.92 396.262C257.6 395.622 257.12 395.462 256.48 395.622C256.16 394.982 255.52 394.982 254.88 394.822C254.24 393.861 253.44 393.861 252.48 394.181C249.92 392.261 247.04 391.461 244.16 390.18C243.84 388.26 242.24 388.1 240.8 387.46C219.68 380.098 198.56 373.376 176.64 368.575C163.68 365.694 150.88 362.173 137.92 359.613C136 359.292 133.92 358.812 132 358.332C131.84 353.371 132.48 348.41 132.96 343.448C133.44 338.647 134.4 333.846 136.48 329.365C137.6 326.964 139.36 325.524 142.08 325.364C144 325.364 145.92 324.884 147.84 325.364C151.52 325.044 154.88 326.324 158.4 326.964C178.56 330.485 198.56 334.006 218.56 338.327C220.64 338.807 221.6 339.447 222.56 341.368C223.52 343.608 224.32 346.169 226.4 347.77C226.4 347.77 226.72 348.09 226.72 348.25C227.04 347.93 226.88 347.769 226.72 347.449C226.72 344.729 224.64 342.808 224.32 339.767C228.16 339.767 231.68 341.048 235.2 341.688C236.16 341.848 236.32 342.968 236.64 343.768C237.92 346.649 239.2 349.69 240.48 352.571C240.8 353.371 240.96 354.331 242.56 354.971C242.4 350.65 240.16 347.289 239.52 343.288C241.76 342.328 243.68 343.288 245.44 343.768C253.12 345.209 253.12 345.209 256.16 352.411C257.28 354.811 258.4 357.372 259.52 359.773C259.52 359.773 260 359.933 260.48 360.253C259.84 355.291 257.44 351.13 255.84 346.489C258.24 346.169 260.16 347.129 262.08 347.609C264.8 348.25 267.84 348.57 270.08 350.01C272.32 351.61 272.64 354.811 273.76 357.372C275.52 361.373 277.12 365.374 278.72 369.375C279.04 370.015 279.2 370.815 280 371.135C281.12 370.815 280.8 370.015 280.64 369.215C279.84 364.734 277.92 360.413 276.16 356.252C275.52 354.651 274.72 353.051 274.08 351.45C274.88 350.33 275.52 350.97 276.16 351.13C288.48 354.491 300.48 358.652 312.32 363.453C317.92 365.694 317.92 366.014 317.76 371.936C317.6 377.537 315.84 382.658 314.56 388.1C312.32 396.742 310.08 405.384 306.08 413.386C305.6 414.347 305.28 415.307 304.64 416.107C303.36 418.508 303.2 418.668 300.96 417.227C295.04 413.546 288.96 410.506 282.88 407.305C276 403.624 268.8 400.743 261.76 397.382C261.28 396.582 260.64 396.582 259.84 396.582V397.062Z" fill="#75B72A"/>
<path d="M280.799 908.392C265.599 908.392 250.239 908.392 235.039 908.392C236.799 901.831 239.359 895.589 241.759 889.348C247.839 874.144 252.319 858.46 256.319 842.616C258.079 835.574 260.799 828.692 261.279 821.49C261.759 814.929 260.959 808.527 256.799 802.926C263.359 797.964 269.759 793.163 276.319 788.202C279.359 785.801 282.399 783.24 285.439 780.84C288.959 787.722 290.719 794.924 289.919 802.605C289.759 804.846 288.959 807.087 287.839 809.167C287.039 810.768 286.399 812.368 285.599 814.128C283.679 818.129 283.679 822.13 285.279 826.292C289.599 837.014 289.759 848.217 287.999 859.58C285.919 872.703 283.679 885.827 281.599 898.95C281.119 902.151 280.959 905.352 280.639 908.392H280.799Z" fill="#76B82B"/>
<path d="M184.48 695.537C187.84 695.697 191.2 696.178 194.56 697.298C201.92 699.378 209.28 698.418 216.8 698.098C224.96 697.138 232.96 696.178 240.96 694.097C248.48 692.176 255.52 689.456 262.24 685.615C263.52 684.815 264.48 684.655 265.6 685.775C267.68 687.855 270.08 689.616 272.16 691.696C274.08 693.457 274.08 693.617 272.16 695.697C268.96 699.058 265.6 702.099 261.92 704.82C253.76 710.901 245.28 716.663 235.84 720.664C235.04 720.984 234.08 721.144 233.76 722.424C235.2 723.064 236.32 722.424 237.6 721.944C246.72 719.063 254.72 714.102 262.4 708.501C267.04 705.14 271.52 701.459 275.2 696.978C276.16 695.857 276.8 695.857 277.92 696.818C286.56 704.179 295.36 711.381 304 718.743C300.64 727.065 296.96 735.387 292.8 743.55C290.56 748.031 288 752.352 285.12 756.353C277.28 767.076 268.32 776.838 259.68 786.921C257.92 789.001 256.16 790.922 254.24 792.842C248 798.284 242.24 804.205 235.84 809.486C235.04 810.127 233.44 810.287 233.76 811.887C232.8 811.567 232.32 812.047 231.84 812.687C231.84 813.968 230.88 813.968 230.08 814.288C225.6 816.368 221.12 818.289 216.8 820.369C215.52 820.369 214.24 820.369 213.12 820.209C212.8 818.929 213.76 818.769 214.24 818.449C219.68 814.608 224.48 809.967 229.12 805.165C238.56 795.403 246.88 784.68 255.2 773.957C263.52 763.075 268.8 750.591 272.96 737.628C274.72 731.867 276.48 726.105 277.28 720.184C277.28 719.704 277.44 719.223 276.96 718.583C256.8 727.866 236 733.307 212.96 728.346C220 725.785 226.72 723.544 232.48 719.543C238.08 715.702 243.84 711.862 248.96 706.1C244.96 706.42 241.92 706.58 238.72 706.9C231.2 707.861 223.84 707.22 216.64 705.62C207.36 703.539 197.92 701.139 188.8 698.258C187.36 697.778 185.6 697.778 184.96 696.017L184.48 695.537Z" fill="#77B82D"/>
<path d="M252.48 394.022C253.44 393.702 254.24 393.862 254.88 394.662C254.08 394.982 253.28 394.662 252.64 394.502C252.64 394.342 252.64 394.182 252.64 394.022H252.48Z" fill="#F2C8D1"/>
<path d="M180.64 654.248C180.16 654.568 179.84 654.568 179.52 654.088C180 653.608 180.32 653.608 180.64 654.248Z" fill="#76B72B"/>
<path d="M35.5192 680.334C37.1192 670.571 38.3992 660.649 40.1592 650.886C46.0792 618.398 53.1192 586.07 59.8392 553.742C63.0392 538.538 67.3592 523.494 71.3592 508.45C75.8392 491.646 78.8792 474.521 82.8792 457.717C87.0392 440.273 90.2392 422.508 95.1992 405.224C99.1992 391.46 104.319 378.177 109.919 364.893C111.519 360.892 111.999 360.732 116.319 361.212C125.919 362.333 135.519 363.773 144.959 366.014C152.159 367.614 159.519 369.054 166.559 371.135C166.559 371.455 166.559 371.775 166.559 372.095C162.079 371.615 157.599 371.135 153.279 370.655C147.519 370.015 141.759 370.655 136.159 372.095C127.839 374.336 122.239 379.937 117.919 386.979C112.639 395.941 108.479 405.384 105.119 415.146C102.399 422.988 99.0392 430.51 96.1592 438.352C92.9592 447.474 90.7192 456.757 89.1192 466.199C84.6392 492.606 78.3992 518.693 71.1992 544.619C68.3192 555.022 66.2392 565.745 63.6792 576.307C60.6392 588.631 57.2792 601.114 54.2392 613.437C48.9592 635.202 42.3992 656.488 37.1192 678.253C36.9592 679.054 36.6392 679.694 36.4792 680.494C35.9992 680.494 35.6792 680.494 35.1992 680.494L35.5192 680.334Z" fill="#FAFBF9"/>
<path d="M35.5199 680.334C35.9999 680.334 36.3199 680.334 36.7999 680.334C36.1599 684.335 35.0399 688.176 33.9199 692.177C33.9199 688.176 34.5599 684.335 35.5199 680.334Z" fill="#F2C8D1"/>
<path d="M166.561 371.935C166.561 371.615 166.561 371.295 166.561 370.975C169.761 371.455 172.961 372.255 176.161 373.215C175.681 372.895 175.361 372.895 175.041 373.215C172.161 373.055 169.281 372.895 166.561 371.935Z" fill="#F2C8D1"/>
<path d="M175.039 373.217C175.359 372.897 175.679 372.897 176.159 373.217C176.959 373.217 177.919 373.057 178.399 373.857C177.279 373.857 175.999 374.337 175.039 373.217Z" fill="#77B82D"/>
<path d="M359.201 704.181C343.681 696.339 330.881 684.976 319.041 672.652C309.121 662.25 298.881 652.327 290.081 640.964C279.841 627.841 269.441 615.038 260.001 601.274C253.921 592.152 249.121 582.389 244.961 572.467C239.041 557.903 233.281 543.339 227.841 528.616C221.601 511.651 217.921 494.047 216.161 476.122C215.681 471.001 215.201 465.88 214.401 460.918C213.441 454.197 214.081 447.635 215.041 441.073C215.361 438.513 215.841 435.952 215.521 433.391C216.001 433.231 216.001 432.911 215.841 432.431C220.001 424.749 225.921 418.988 234.401 416.107C245.921 412.106 257.761 411.146 269.921 412.426C271.521 412.586 273.281 412.746 274.881 412.906C281.601 413.546 287.681 415.787 293.441 419.468C302.241 425.229 311.041 430.831 318.881 437.872C325.281 443.474 330.561 450.035 335.841 456.597C350.881 475.802 364.641 495.647 377.761 516.132C392.961 539.658 407.681 563.505 421.281 587.831C426.721 597.433 431.361 607.356 436.801 616.958C440.321 623.2 439.841 628.961 436.481 635.043C433.441 640.324 429.761 644.965 425.761 649.446C414.881 661.77 402.721 672.652 389.441 682.415C379.361 689.777 369.121 697.139 359.041 704.501L359.201 704.181Z" fill="#FFFFFE"/>
<path d="M353.279 240.381C352.159 246.462 352.319 252.544 350.879 258.625C350.079 262.146 350.079 262.306 346.399 261.826C339.519 261.026 332.959 258.946 327.519 254.144C325.919 252.704 325.119 251.264 326.399 249.183C326.719 248.703 326.879 248.063 326.879 247.423C326.879 246.462 326.559 245.662 325.599 245.182C324.799 244.862 323.999 245.182 323.519 245.822C320.959 249.343 318.879 253.184 318.399 257.505C318.399 257.985 318.399 258.625 318.879 258.785C319.519 259.106 320.159 258.785 320.639 258.465C321.599 257.505 322.559 256.545 323.839 255.425C330.719 262.466 339.519 264.547 348.799 265.507C347.359 277.03 343.199 287.273 337.439 296.715C330.239 308.718 318.559 314.16 305.439 316.88C296.639 318.641 287.839 317.36 279.199 315.92C269.439 314.32 259.679 312.079 250.399 308.398C244.159 305.837 237.759 303.757 231.679 300.396C230.719 299.916 229.919 299.436 228.799 299.436C228.159 298.316 227.039 297.996 225.919 297.675C224.479 297.035 223.039 296.555 221.759 295.755C215.999 291.594 210.239 287.433 204.479 283.112C202.239 281.351 201.439 281.511 200.159 283.912C193.279 297.835 189.439 312.719 187.839 328.083C176.959 326.163 166.079 324.242 155.039 322.322C157.119 314.32 158.719 306.798 159.679 299.116C160.639 291.434 161.919 283.752 163.039 275.75C166.719 276.71 169.599 274.79 171.839 272.069C177.919 265.027 179.359 256.865 178.239 248.063C177.919 245.502 177.119 242.781 176.479 240.221C176.799 240.061 177.119 239.741 177.439 239.581C186.399 242.781 194.879 241.181 203.039 236.54C204.799 235.58 206.399 234.459 207.199 231.899C203.199 233.179 199.519 234.459 195.839 235.58C193.599 236.22 191.199 237.02 188.799 236.86C188.479 236.54 188.319 236.22 187.999 236.06C182.079 233.179 177.759 228.538 174.559 222.936C171.039 216.855 168.639 210.453 168.639 203.411C168.639 201.811 168.959 200.531 170.559 199.73C175.999 197.01 179.039 197.97 180.159 204.051V204.372C180.959 207.892 181.439 211.413 182.719 214.774C183.519 216.695 184.479 218.455 187.039 218.295C187.999 218.775 188.799 219.255 189.759 219.575C192.479 220.376 195.039 220.056 197.439 218.295C198.239 217.655 199.199 216.855 198.399 215.734C197.599 214.614 196.799 215.894 195.999 216.055C195.999 216.055 195.839 216.055 195.679 216.055C190.879 217.975 187.199 215.574 186.879 210.453C186.879 208.373 186.879 206.292 187.359 204.372C188.159 201.331 189.119 198.29 189.759 195.089C191.679 186.767 186.719 181.166 178.239 181.966C177.599 181.966 176.959 182.126 176.319 182.286C175.199 182.286 174.079 182.286 172.959 182.286C173.919 178.765 176.959 177.485 179.839 176.364C184.319 174.444 188.959 175.404 193.599 176.845C196.799 177.805 199.199 180.045 202.559 180.686C204.159 182.126 205.119 183.726 205.759 185.807C207.199 190.288 209.439 194.449 212.159 198.45C214.559 201.971 215.039 202.131 219.199 201.171C227.519 199.09 235.679 197.01 244.159 195.409C250.879 194.129 251.199 192.689 247.199 187.407C242.559 181.326 240.479 174.284 239.199 166.922C237.759 158.76 237.279 150.438 237.279 142.116C237.919 138.275 238.559 134.594 239.039 130.753C240.959 117.789 246.719 106.587 253.439 95.5437C256.479 90.5825 256.959 90.7425 262.719 92.0228C273.279 94.2634 282.719 98.7445 291.679 104.506C297.439 108.187 302.559 112.668 308.319 116.029C314.559 119.87 321.279 122.911 328.319 124.351C335.999 125.951 343.839 125.631 351.519 124.991C352.319 134.274 353.439 143.556 353.919 152.838C354.559 164.361 356.959 175.564 359.039 186.767C359.999 191.728 361.279 196.69 362.239 201.651C364.479 211.733 367.839 221.176 374.239 229.498C373.439 229.658 372.479 229.818 371.679 229.978C368.799 230.458 365.919 231.579 363.039 230.938C359.519 230.298 355.839 229.818 352.319 228.538C351.039 228.058 349.599 227.417 348.479 228.698C347.519 229.818 347.679 231.418 348.159 232.699C349.279 235.259 350.239 237.82 352.799 239.421L353.279 240.381ZM340.799 177.005C341.119 174.124 340.159 171.403 339.039 168.682C338.239 166.602 336.799 164.681 334.079 164.521C331.359 164.521 330.079 166.282 328.959 168.362C327.519 171.243 327.359 174.284 327.359 177.325C327.359 181.646 327.679 185.967 329.599 189.968C330.399 191.568 331.359 193.009 333.279 193.009C335.199 193.009 336.319 191.728 337.119 190.288C339.199 186.127 340.959 181.966 340.799 177.005ZM333.439 139.075C326.399 139.875 320.479 143.076 316.319 149.478C315.999 150.118 315.359 150.758 316.319 151.558C316.959 152.038 317.599 151.558 318.079 151.558C320.479 150.598 322.239 148.677 324.319 147.237C331.039 142.436 337.759 142.436 344.319 147.557C345.279 148.197 346.079 148.997 347.039 149.638C347.999 150.278 348.959 150.278 349.759 149.317C350.399 148.517 349.919 147.557 349.279 146.917C345.119 142.436 339.999 139.875 333.439 139.395V139.075Z" fill="#FEFEFE"/>
<path d="M311.521 45.2925C312.961 46.0927 314.401 46.7329 315.841 47.5331C326.881 53.9347 338.721 58.0958 351.681 58.5759C359.041 58.896 365.921 57.6157 370.401 50.7339C370.401 50.7339 370.881 50.7339 371.361 50.4138C371.681 55.055 371.041 59.5362 369.281 63.6972C368.961 63.6972 368.641 64.0173 368.641 64.4974C367.841 64.3374 367.201 64.8175 366.561 65.2976C363.521 67.3782 360.161 68.1784 356.641 68.6585C351.681 69.1386 346.721 68.8186 341.761 68.6585C335.361 64.9776 328.801 61.4567 321.761 59.2161C314.401 56.8155 306.881 56.0153 298.401 55.2151C301.281 57.4556 304.001 56.8155 306.401 57.7757C308.801 58.5759 311.361 59.2161 313.761 60.1763C316.321 61.1366 318.721 62.0968 321.281 63.2171C323.681 64.1774 326.081 64.9776 328.161 66.4179C328.641 66.578 329.121 66.8981 329.441 67.0581C329.761 67.6983 330.561 67.5382 331.041 67.8583C331.361 68.3384 331.841 68.4985 332.321 68.6585C332.801 68.9786 333.121 69.1386 333.601 69.4587C333.921 70.0989 334.561 70.2589 335.201 70.2589C335.361 71.2192 336.161 71.0591 336.801 71.0591C336.961 72.4995 337.921 72.6595 339.201 72.6595C339.361 74.0999 340.161 74.58 341.601 74.2599C341.761 76.6606 344.001 76.9806 345.441 78.1009C353.441 85.3028 362.241 91.2243 372.481 95.0653C357.441 99.0663 342.561 99.5464 327.841 94.5851C326.881 93.7849 325.921 93.3048 324.641 93.6249C324.641 92.9847 324.001 92.9847 323.521 92.8247C321.761 91.5444 320.001 90.264 318.401 88.8237C306.561 79.0612 292.801 73.6198 277.601 71.5392C268.961 70.4189 260.481 71.0591 252.641 75.5403C244.481 80.3415 239.201 87.0632 238.721 96.9858C238.721 97.786 238.721 98.5862 238.401 99.2263C235.681 107.548 234.881 116.191 234.721 124.993C234.721 138.116 234.881 151.4 236.481 164.523C237.601 174.446 240.321 183.888 246.721 192.05C245.761 193.01 244.801 193.17 243.841 193.33C236.001 194.611 228.321 196.691 220.641 198.612C217.281 199.412 217.121 199.572 215.521 196.531C209.921 186.769 206.401 176.366 204.801 165.163C204.321 161.802 203.681 158.602 202.881 155.401C202.721 154.6 202.881 153.48 201.281 153C199.521 159.242 201.281 165.483 201.761 171.725C200.161 171.405 199.361 170.285 198.401 169.484C186.721 160.522 171.041 162.282 161.441 172.205C158.561 175.246 156.801 178.927 155.681 182.928C153.441 190.61 154.401 198.452 156.001 206.134C158.081 216.056 162.241 224.858 168.321 233.021C175.361 242.463 177.761 253.026 173.281 264.549C172.161 267.429 170.401 269.99 168.001 272.071C166.241 273.511 165.281 273.511 163.841 271.75C162.561 270.15 161.761 268.23 161.601 266.149C161.601 265.349 161.441 264.389 160.641 264.228C159.521 263.908 159.041 264.869 158.721 265.669C157.921 267.429 156.801 269.03 155.201 270.15C153.441 271.43 152.641 271.11 151.681 269.03C151.041 267.429 150.881 265.829 150.881 264.068C150.881 262.948 150.881 261.988 149.601 261.508C148.481 261.188 147.681 261.828 147.041 262.628C146.401 263.428 145.761 264.228 145.121 265.029C143.841 266.469 142.721 268.069 140.641 268.39C140.801 266.789 141.121 265.029 141.281 263.428C142.721 253.666 142.721 243.743 140.161 234.141C135.841 217.977 128.481 203.413 119.521 189.489C117.921 187.089 115.841 184.848 114.401 182.288C104.801 166.283 100.641 148.839 102.081 130.114C102.561 123.232 103.521 116.351 106.561 109.949C109.281 104.348 112.321 98.7462 117.601 94.9052C117.761 95.0653 118.081 95.2253 118.241 95.5454C117.441 97.7859 116.481 100.027 116.641 102.587C117.121 111.87 119.521 120.352 124.961 128.034C124.961 129.314 125.921 130.114 126.721 130.914C129.601 136.516 132.961 141.957 137.601 146.598C138.561 147.559 139.521 148.839 141.281 149.159C141.601 147.719 140.641 147.079 140.161 146.278C138.081 143.078 135.841 139.877 133.761 136.676C128.321 128.354 125.921 119.071 126.081 109.149C126.081 101.627 129.121 95.5454 135.041 91.0642C136.481 89.944 137.921 88.9837 139.361 87.8634C140.481 86.9032 141.601 86.9032 142.881 87.0632C139.681 90.264 136.961 93.7849 136.641 98.5862C135.681 108.829 139.681 117.791 144.801 126.273C144.801 126.273 144.961 126.273 145.121 126.273C145.121 126.913 145.441 127.394 145.921 127.874C148.001 132.675 149.921 137.476 152.961 141.797C154.081 143.398 155.041 145.318 157.121 146.438C157.121 144.678 156.161 143.558 155.681 142.277C152.641 136.196 149.441 130.274 147.841 123.553C146.081 115.871 145.281 108.189 146.401 100.347C147.681 91.3843 155.201 85.7829 163.681 86.103C167.841 86.103 171.841 86.263 176.001 86.423C176.961 86.423 178.081 86.423 178.881 87.2233C177.601 88.8237 176.161 90.264 175.041 91.8644C172.801 95.2253 171.361 98.9062 170.881 102.907C169.121 118.271 171.201 132.675 180.161 145.798C180.801 146.758 181.441 148.039 182.721 148.519C182.721 148.679 183.201 148.999 183.201 148.999C183.681 148.679 183.521 148.359 183.201 148.039C180.641 142.437 177.921 136.996 176.321 131.074C173.921 121.312 173.281 111.549 175.201 101.787C176.161 96.5056 178.561 91.8644 183.521 89.1437C185.921 87.8634 188.321 87.7034 190.881 88.0235C202.401 89.6239 213.761 92.3446 224.801 96.0255C227.041 96.8257 229.281 97.946 231.841 97.4659C232.001 95.8655 230.881 95.5454 230.081 95.2253C226.721 93.3048 223.201 91.7044 219.521 90.5841C216.961 89.7839 216.001 88.1835 215.841 85.4628C215.681 76.3405 216.321 67.2181 219.841 58.736C227.361 41.1315 242.561 31.8491 262.241 32.3292C269.441 32.4893 276.321 34.2497 283.041 36.8104C284.481 37.2905 285.761 38.0907 287.201 38.2507C287.681 37.4505 287.201 37.2905 286.721 37.1304C276.481 31.689 265.921 28.0081 254.081 28.9684C242.561 29.9286 232.801 34.0897 225.121 42.7319C216.161 52.6544 212.001 64.4974 211.681 77.7808C211.681 80.9817 211.681 84.1825 211.681 87.3833C208.961 87.3833 206.561 86.423 204.161 85.9429C201.281 85.4628 198.401 84.6626 195.521 84.3425C193.281 84.1825 192.161 82.9021 191.201 81.1417C188.801 76.3405 187.361 71.0591 186.721 65.7778C184.801 50.7339 189.281 37.6106 199.361 26.5678C206.241 19.0458 215.201 15.5249 225.281 15.0448C226.881 15.0448 228.321 15.0448 229.921 14.8848C229.921 14.8848 230.081 14.8848 230.401 14.7247C229.761 13.4444 228.481 13.6044 227.361 13.6044C211.521 12.3241 199.041 18.2456 190.561 31.6891C184.961 40.3313 181.601 49.7737 182.081 60.3364C182.401 67.0581 183.681 73.7798 186.401 80.0214C186.721 80.8216 187.041 81.6218 187.361 82.5821C187.361 82.5821 187.361 82.9021 187.361 83.2222C182.081 82.7421 176.801 82.422 171.521 81.9419C170.881 81.9419 170.241 81.3017 169.601 80.8216C166.881 78.7411 164.641 76.3405 162.881 73.4597C157.441 63.8573 154.881 53.4546 156.641 42.5718C158.081 34.0897 162.081 27.2079 170.401 23.527C170.721 23.527 171.041 23.0468 170.881 22.4067C167.201 22.4067 164.001 24.0071 161.281 26.4077C156.481 30.7288 153.601 36.3302 152.801 42.7319C151.681 53.6147 153.601 64.1774 158.881 73.9398C160.481 76.8206 162.401 79.2212 164.801 81.4618C150.241 83.7024 139.681 81.3017 132.641 66.578C127.361 55.5352 126.241 44.3323 131.361 32.8093C131.841 32.6493 132.321 32.3292 132.801 32.1692C150.561 22.0866 169.441 14.7247 189.761 11.844C207.521 9.28333 225.281 8.64317 243.041 12.9643C251.041 14.8848 258.881 17.2854 265.921 21.4464C273.121 25.6075 280.321 29.7686 287.521 33.9296C293.761 37.6106 300.161 41.1315 306.881 43.8522C308.161 44.8124 309.441 45.4526 311.041 45.1325C311.041 46.0927 311.841 45.7727 312.321 46.0927L311.521 45.2925Z" fill="#EC872C"/>
<path d="M668.001 524.934C665.921 528.935 662.721 532.136 660.001 535.657C652.801 544.939 645.441 553.901 638.081 563.184C636.321 565.424 634.721 567.825 633.601 570.226C629.121 579.988 623.201 588.63 617.121 597.272C615.041 600.153 613.121 603.194 611.361 606.235C604.481 617.438 596.641 628 588.481 638.243C583.681 644.325 578.721 650.406 573.921 656.488C573.761 656.808 573.441 657.128 573.121 657.288C566.721 663.369 560.961 669.931 555.361 676.813C548.801 684.655 541.601 691.857 535.201 699.699C527.841 708.661 519.361 716.663 509.921 723.545C503.521 728.186 496.481 731.547 488.641 732.507C477.761 733.627 467.201 732.187 457.761 726.105C452.001 722.425 445.921 719.064 440.161 715.383C435.361 712.342 430.561 709.141 427.201 704.18C425.441 701.619 423.041 699.379 420.961 696.978C418.081 693.457 415.681 689.776 414.561 685.455C418.721 679.534 423.041 673.612 427.201 667.53C432.801 659.528 437.761 651.366 442.241 642.564C442.721 642.724 443.201 642.724 443.361 643.044C452.321 652.167 462.241 660.329 471.681 668.971C476.321 673.132 480.641 677.293 484.801 681.934C486.081 683.374 488.641 683.855 488.641 685.775C488.641 687.376 487.041 688.816 486.081 690.416C484.001 694.097 482.401 697.938 481.441 702.099C481.121 703.54 480.801 704.82 481.121 706.26C482.401 706.74 482.561 705.46 483.041 704.82C485.281 701.139 487.841 697.458 489.761 693.617C494.881 684.015 502.241 676.333 510.881 669.611C523.041 660.169 535.361 650.726 547.361 640.804C563.201 627.84 576.801 612.796 588.801 596.152C594.721 587.99 598.721 578.868 602.401 569.585C602.721 568.945 602.721 568.145 603.521 567.505C604.961 569.905 604.161 573.266 606.721 575.507C608.161 572.786 607.681 570.066 607.521 567.505C607.201 563.664 607.041 559.823 606.881 555.982C606.721 542.699 611.681 531.976 622.241 523.654C626.721 520.133 631.521 516.772 636.481 513.891C644.161 509.41 650.241 503.328 655.361 496.287C659.681 490.365 664.321 484.764 670.241 480.443C672.321 478.842 674.401 477.402 676.801 476.602C677.921 476.122 679.201 475.801 680.481 475.641C684.801 475.001 687.201 477.082 687.201 481.243C687.201 483.323 686.881 485.244 686.241 487.324C684.481 493.886 681.921 500.128 678.561 506.049C675.681 511.01 672.801 515.972 669.921 520.933C669.281 522.213 668.321 523.334 668.481 524.774L668.001 524.934Z" fill="#FEFEFE"/>
<path d="M188 328.405C189.6 313.041 193.6 298.157 200.32 284.233C201.6 281.833 202.24 281.673 204.64 283.433C210.4 287.754 216.16 291.915 221.92 296.076C223.2 296.877 224.64 297.517 226.08 297.997C227.2 298.477 228.32 298.637 228.96 299.757C228.48 301.038 228.96 301.838 229.92 302.798C242.88 314.641 256.48 325.684 272.96 332.566C274.72 333.206 277.28 333.046 277.92 334.806C278.4 336.247 277.6 338.327 277.44 340.088C277.12 342.328 277.44 344.729 276.64 346.809C275.36 347.449 274.24 346.809 273.28 346.329C256.96 342.008 240.48 338.807 223.84 335.446C212 333.046 200 330.645 188.16 328.245L188 328.405Z" fill="#F2C8D1"/>
<path d="M352 125.633C344.16 126.113 336.32 126.593 328.8 124.993C321.76 123.393 315.04 120.352 308.8 116.671C303.04 113.15 297.92 108.669 292.16 105.148C283.2 99.3865 273.6 94.9053 263.2 92.6648C257.44 91.3844 256.96 91.2244 253.92 96.1857C247.36 107.068 241.44 118.431 239.52 131.395C239.04 135.236 238.4 138.917 237.76 142.758C236.8 128.834 236 114.91 240 101.307C241.12 97.466 242.4 93.3049 244.16 89.624C248.8 80.1816 256.96 75.8605 267.04 75.3804C283.36 74.5801 297.92 79.8615 311.2 89.1439C314.08 91.2244 316.96 93.465 319.68 95.7055C328.16 102.587 337.6 107.389 348.48 109.309C351.84 109.949 351.84 109.949 352 113.47C352 117.631 352.16 121.632 352.32 125.793L352 125.633Z" fill="#F2C8D1"/>
<path d="M116.96 94.7435C111.68 98.5845 108.64 104.026 105.92 109.787C102.88 116.189 101.92 123.071 101.44 129.953C99.9999 148.517 104 165.962 113.76 182.126C115.2 184.687 117.44 186.767 118.88 189.328C127.84 203.251 135.36 217.975 139.52 233.979C142.08 243.582 142.24 253.504 140.64 263.267C140.32 264.867 140.16 266.627 140 268.228C138.72 269.348 137.12 269.348 135.68 269.188C133.92 268.868 132.96 267.908 132.8 266.147C132.8 264.707 132.8 263.267 132.8 261.986C134.08 250.943 133.12 240.061 130.4 229.338C129.44 225.497 127.84 221.816 126.08 218.295C121.76 209.653 116.48 201.491 111.04 193.329C105.28 184.527 99.8399 175.564 95.6799 165.962C90.8799 154.919 88.6398 143.236 88.3198 131.393C88.1598 125.151 89.2799 118.91 91.0399 112.828C93.1199 105.786 97.7599 100.825 103.04 96.3439C103.52 96.0239 104.16 95.7038 104.64 95.5437C112.96 92.823 121.28 90.4225 129.76 88.662C130.4 88.662 131.04 88.662 131.68 88.502C132 89.7823 130.88 89.9423 130.24 90.4224C124.64 95.3837 122.08 101.625 121.76 108.987C121.6 115.069 122.88 120.83 124.16 126.752C124.16 127.232 124.16 127.552 124 128.032C118.56 120.51 116.16 111.868 115.68 102.586C115.68 100.025 116.48 97.7843 117.28 95.5437C117.76 95.2237 117.92 94.7435 117.6 94.4235C117.12 93.9433 116.96 94.7435 116.64 94.9036L116.96 94.7435Z" fill="#FAFBF9"/>
<path d="M306.08 43.2108C299.2 40.6502 292.96 36.9692 286.72 33.2883C279.52 29.1272 272.32 24.9661 265.12 20.8051C257.92 16.644 250.08 14.4035 242.24 12.3229C224.64 8.00182 206.72 8.64197 188.96 11.2026C168.64 14.0834 149.76 21.4452 132 31.5278C131.52 31.8479 131.04 32.008 130.56 32.168C130.08 31.3678 129.6 31.8479 129.28 32.168C128.64 32.8082 128.16 33.6084 127.52 34.4086C127.04 34.4086 126.72 34.7286 126.72 35.2088C122.08 37.4493 118.4 40.9702 114.72 44.4911C109.12 49.7725 105.76 56.1741 105.76 64.0161C105.76 65.1364 105.76 66.2567 105.44 67.377C104.8 71.218 105.44 74.8989 106.56 78.5799C107.84 82.2608 108.8 85.9417 109.12 89.7827C107.52 91.2231 106.24 90.903 105.12 89.1425C101.6 84.1813 97.9202 79.22 95.3602 73.6186C90.4002 62.8958 92.1602 52.9733 100.16 44.3311C104.8 39.5299 110.08 35.5288 115.68 32.0079C137.92 18.5645 161.76 9.60222 187.52 6.08132C198.24 4.64095 209.12 3.84075 220 4.48091C241.92 5.92128 263.04 10.4024 281.6 22.7256C289.28 27.8469 296.32 33.7684 303.68 39.3698C304.8 40.17 305.92 41.1303 307.04 41.9305C306.72 42.2506 306.4 42.5707 306.08 42.8907V43.2108Z" fill="#FAF8F7"/>
<path d="M173.441 182.768C174.561 182.768 175.681 182.768 176.801 182.768C175.521 184.048 172.961 184.368 173.281 187.249C175.361 186.769 177.121 186.289 179.041 185.969C184.641 185.329 188.321 189.33 187.041 194.931C186.241 197.972 185.281 201.013 184.641 204.213C183.521 209.495 183.201 214.616 187.361 218.937C184.801 219.097 183.681 217.337 183.041 215.416C181.761 212.055 181.281 208.534 180.481 205.014V204.694C179.361 198.612 176.321 197.652 170.881 200.372C169.281 201.173 168.961 202.453 168.961 204.053C168.961 211.095 171.361 217.497 174.881 223.578C178.081 229.18 182.241 233.821 188.321 236.702C188.641 236.702 188.801 237.182 189.121 237.502C184.961 238.782 181.281 237.502 177.921 235.261C173.601 232.541 170.561 228.7 168.001 224.218C163.521 216.697 161.121 208.534 159.841 200.052C159.201 195.411 159.041 190.77 159.681 185.969C161.921 171.085 177.441 165.323 188.481 169.004C194.881 171.085 199.841 175.086 203.201 181.167C200.001 180.527 197.441 178.287 194.241 177.326C189.601 175.886 185.121 174.926 180.481 176.846C177.601 177.967 174.561 179.247 173.601 182.768C173.601 182.768 173.441 182.768 173.281 182.768C173.281 182.768 173.281 182.768 173.281 182.928C173.281 182.928 173.441 182.768 173.601 182.608L173.441 182.768Z" fill="#F2C8D1"/>
<path d="M235.519 809.327C241.919 804.046 247.679 798.124 253.919 792.683C255.999 790.922 257.759 788.842 259.359 786.761C267.999 776.679 277.119 766.916 284.799 756.194C287.679 752.193 290.239 747.871 292.479 743.39C296.639 735.388 300.319 727.066 303.679 718.584C304.479 719.064 305.119 719.544 305.919 720.024C307.519 720.824 307.839 722.105 307.519 723.865C306.399 729.787 305.119 735.868 303.999 741.95C302.079 752.513 296.319 760.995 290.239 769.317C286.559 774.278 282.239 778.599 277.439 782.44C265.919 791.723 253.759 800.365 241.119 807.887C239.519 808.847 237.919 809.487 236.319 810.287C235.999 809.967 235.679 809.647 235.359 809.327H235.519Z" fill="#FAFBF9"/>
<path d="M109.12 89.9431C108.96 86.1021 107.84 82.4212 106.56 78.7402C105.28 75.0593 104.8 71.3783 105.44 67.5374C105.6 66.4171 105.76 65.2968 105.76 64.1765C105.76 56.3345 109.12 49.9329 114.72 44.6515C118.4 41.1306 122.08 37.6097 126.72 35.3691C127.04 36.3294 126.4 37.1296 126.08 37.9298C123.84 43.5312 123.68 49.2927 124.8 55.2142C125.76 60.4956 127.84 65.4568 130.56 70.098C133.44 74.8992 137.12 78.9003 142.24 81.781C130.72 83.2214 120 86.7423 109.12 89.9431Z" fill="#EC872C"/>
<path d="M327.039 93.7844C341.919 98.7457 356.799 98.4256 371.679 94.2646C361.439 90.5836 352.639 84.502 344.639 77.3002C344.959 76.9801 345.279 76.66 345.599 76.5C348.959 78.2605 352.319 80.0209 355.679 81.9414C366.079 87.8629 376.959 88.6631 387.999 83.8619C387.999 84.0219 388.319 84.182 388.479 84.342C384.319 97.9455 371.519 106.748 356.799 105.627C346.399 104.827 336.479 101.947 327.839 95.865C327.519 95.7049 327.359 95.3848 327.039 95.0648C327.039 94.5846 327.039 94.1045 327.039 93.7844Z" fill="#FAF8F7"/>
<path d="M147.84 325.524C145.92 325.044 144 325.524 142.08 325.524C139.36 325.524 137.6 326.964 136.48 329.525C134.4 334.006 133.44 338.647 132.96 343.608C132.48 348.57 131.84 353.531 132 358.492C128.8 358.012 125.76 357.532 122.56 357.212C121.44 357.212 120.96 356.732 121.12 355.611C122.24 346.809 122.24 337.847 124.8 329.205C124.8 328.724 125.12 328.244 125.28 327.764C126.88 323.123 126.88 322.963 131.68 323.123C137.12 323.283 142.56 323.923 147.84 325.524Z" fill="#FAFBF9"/>
<path d="M144.48 125.791H144.16C139.04 117.309 135.04 108.347 136 98.1043C136.48 93.4631 139.04 89.7822 142.24 86.5813C144.8 85.4611 147.52 86.2613 150.08 85.6211C150.24 86.1012 150.24 86.4213 150.08 86.7414C144.8 90.7424 142.88 96.3438 142.4 102.745C141.92 109.147 142.72 115.389 144.16 121.63C144.48 122.911 144.96 124.351 144.64 125.631L144.48 125.791Z" fill="#FAF8F7"/>
<path d="M631.519 510.37C631.839 508.609 629.919 509.09 629.279 508.289C630.559 506.689 631.679 505.089 633.599 504.448C635.199 504.128 636.799 505.409 638.559 504.448C636.799 501.888 633.439 501.888 631.519 499.967C632.479 499.327 631.839 498.527 631.679 497.567C631.519 494.686 631.039 491.485 634.239 489.725C639.199 492.285 644.319 493.886 650.399 493.566C645.439 501.088 639.359 506.849 631.679 510.69C631.359 510.69 631.359 510.69 631.359 510.37H631.519Z" fill="#F2C8D1"/>
<path d="M353.28 240.381C350.88 238.781 349.76 236.06 348.64 233.66C348.16 232.379 347.999 230.779 348.959 229.659C350.079 228.378 351.52 228.858 352.8 229.499C356.32 230.779 359.999 231.259 363.519 231.899C366.399 232.379 369.279 231.419 372.159 230.939C372.959 230.939 373.919 230.619 374.719 230.459C374.719 230.459 375.04 230.459 375.04 230.619C377.28 233.179 377.279 233.5 374.559 235.1C371.999 236.7 369.119 237.661 365.919 238.141C363.199 238.461 360.639 238.941 357.919 238.781C355.999 238.781 354.399 239.261 353.119 240.541L353.28 240.381Z" fill="#F2C8D1"/>
<path d="M341.6 68.4972C346.56 68.8172 351.52 69.1373 356.48 68.4972C360.16 68.1771 363.52 67.2168 366.4 65.1363C367.04 64.6562 367.52 64.176 368.48 64.3361C368.8 65.9365 367.68 66.8967 366.88 68.017C364.64 71.2178 361.76 73.9385 358.56 76.3391C357.6 76.9793 356.8 77.7795 355.52 76.9793C350.88 74.2586 345.92 71.858 341.6 68.3371V68.4972Z" fill="#FAF8F7"/>
<path d="M634.559 489.725C631.359 491.486 631.679 494.527 631.999 497.567C631.999 498.368 632.799 499.168 631.839 499.968C630.719 499.648 629.759 499.008 628.959 498.208C626.079 495.807 625.759 493.246 627.999 490.206C630.559 486.685 631.519 486.685 634.559 489.885V489.725Z" fill="#FAF8F7"/>
<path d="M633.76 504.289C631.68 504.929 630.56 506.53 629.44 508.13C627.04 507.65 625.28 506.21 624.16 504.289C623.36 503.009 623.52 501.569 624.64 500.448C625.28 499.808 625.92 499.488 626.56 500.128C628.64 502.049 631.52 502.689 633.76 504.289Z" fill="#FAF8F7"/>
<path d="M216.801 698.099C209.441 698.419 201.921 699.379 194.561 697.299C201.921 697.779 209.441 698.259 216.801 698.099Z" fill="#F2C8D1"/>
<path d="M345.601 76.4998C345.281 76.8198 344.961 77.1399 344.641 77.3C343.201 76.1797 340.961 75.8596 340.801 73.459C342.561 74.0991 344.161 75.0594 345.601 76.4998Z" fill="#F2C8D1"/>
<path d="M306.08 43.2102C306.4 42.8901 306.72 42.5701 307.04 42.25C308.32 42.7301 309.44 43.2102 310.08 44.4906C308.48 44.9707 307.2 44.1705 305.92 43.2102H306.08Z" fill="#F2C8D1"/>
<path d="M327.04 93.7834C327.04 94.2635 327.04 94.7437 327.04 95.0637C325.76 94.5836 324.8 93.9434 324 92.8232C325.28 92.5031 326.24 92.8232 327.2 93.7834H327.04Z" fill="#F2C8D1"/>
<path d="M124.32 127.712C124.32 127.232 124.32 126.912 124.48 126.432C125.28 127.712 125.76 129.152 125.92 130.593C125.12 129.793 124.16 128.992 124.16 127.712H124.32Z" fill="#F2C8D1"/>
<path d="M235.52 809.326C235.84 809.646 236.16 809.966 236.48 810.286C235.68 811.087 234.72 811.887 233.28 811.727C233.12 810.126 234.56 809.966 235.36 809.326H235.52Z" fill="#F2C8D1"/>
<path d="M338.56 72.1785C337.28 72.1785 336.48 72.0185 336.16 70.5781C337.12 70.8982 337.92 71.3783 338.56 72.1785Z" fill="#F2C8D1"/>
<path d="M340.8 73.6199C339.52 73.94 338.56 73.6199 338.4 72.0195C339.36 72.3396 340.16 72.6597 340.8 73.6199Z" fill="#F2C8D1"/>
<path d="M145.12 127.393C144.64 126.913 144.32 126.433 144.32 125.793C145.44 125.793 144.96 126.753 145.12 127.393Z" fill="#FAF8F7"/>
<path d="M257.92 396.262C258.56 396.262 259.04 396.262 259.52 397.062C258.88 397.062 258.4 397.062 257.92 396.262Z" fill="#77B82D"/>
<path d="M259.84 397.061C260.64 397.061 261.28 397.061 261.76 397.861C260.96 397.861 260.32 397.861 259.84 397.061Z" fill="#77B82D"/>
<path d="M256.32 395.461C256.96 395.461 257.44 395.461 257.76 396.101C257.12 396.101 256.64 396.101 256.32 395.461Z" fill="#77B82D"/>
<path d="M336.161 70.5775C335.521 70.5775 334.721 70.5775 334.561 69.7773C335.201 69.7773 335.681 70.0974 336.161 70.5775Z" fill="#F2C8D1"/>
<path d="M254.721 394.66C255.361 394.66 256.001 394.82 256.321 395.46C255.681 395.3 254.881 395.46 254.721 394.66Z" fill="#F2C8D1"/>
<path d="M334.719 69.7768C334.079 69.7768 333.439 69.7768 333.119 68.9766C333.759 68.9766 334.399 68.9766 334.719 69.7768Z" fill="#F2C8D1"/>
<path d="M311.52 45.2923C311.04 44.9722 310.24 45.2923 310.24 44.332C310.88 44.332 311.36 44.4921 311.52 45.2923Z" fill="#F2C8D1"/>
<path d="M329.28 66.7378C328.8 66.5778 328.32 66.2577 328 66.0977C328.48 66.2577 328.96 66.5778 329.28 66.7378Z" fill="#F2C8D1"/>
<path d="M231.359 812.367C231.839 811.727 232.479 811.247 233.279 811.567C232.799 812.367 232.159 812.687 231.359 812.367Z" fill="#F2C8D1"/>
<path d="M330.879 67.5365C330.399 67.2165 329.599 67.3765 329.279 66.7363C329.919 66.7363 330.399 67.0564 330.879 67.5365Z" fill="#F2C8D1"/>
<path d="M126.721 35.3686C126.721 34.8884 127.041 34.5684 127.521 34.5684C127.521 35.0485 127.361 35.5286 126.721 35.3686Z" fill="#EC872C"/>
<path d="M176.64 240.701C176.48 240.381 176.16 240.061 176.64 239.741C176.96 239.58 177.28 239.741 177.6 240.061C177.28 240.221 176.96 240.541 176.64 240.701Z" fill="#FEFEFE"/>
<path d="M368.48 64.4955C368.48 64.0154 368.8 63.8554 369.12 63.6953C369.12 64.0154 369.12 64.6556 368.48 64.4955Z" fill="#FAF8F7"/>
<path d="M322.721 92.0234C323.201 92.1835 323.681 92.1835 323.841 92.8236C323.361 92.8236 323.041 92.5036 322.721 92.0234Z" fill="#F2C8D1"/>
<path d="M216.16 432.111C216.16 432.591 216.16 432.911 215.84 433.072C215.68 432.591 215.84 432.271 216.16 432.111Z" fill="#76B72B"/>
<path d="M388 84.0207C388.32 83.8607 388.64 83.7007 388.96 84.0207C388.96 84.0207 388.64 84.3408 388.48 84.5009C388.48 84.5009 388.16 84.1808 388 84.0207Z" fill="#FAF8F7"/>
<path d="M333.12 68.9779C332.64 68.6579 332.32 68.4978 331.84 68.1777C332.32 68.1777 332.96 68.1777 333.12 68.9779Z" fill="#F2C8D1"/>
<path d="M332.001 68.3373C331.521 68.1773 331.041 68.0172 330.721 67.5371C331.201 67.5371 331.681 67.8572 332.001 68.3373Z" fill="#F2C8D1"/>
<path d="M226.72 347.609C227.04 347.769 227.2 348.089 226.72 348.41C226.72 348.41 226.4 348.09 226.4 347.929L226.72 347.609Z" fill="#0D0F0D"/>
<path d="M340.801 177.005C340.961 181.966 339.201 186.127 337.121 190.288C336.321 191.889 335.201 193.169 333.281 193.009C331.361 193.009 330.401 191.569 329.601 189.968C327.681 185.967 327.201 181.646 327.361 177.325C327.361 174.284 327.681 171.244 328.961 168.363C330.081 166.122 331.361 164.362 334.081 164.522C336.801 164.522 338.401 166.602 339.041 168.683C340.001 171.404 341.121 174.284 340.801 177.005Z" fill="#0D0F0D"/>
<path d="M187.359 218.776C183.199 214.455 183.519 209.334 184.639 204.052C185.279 201.012 186.239 197.971 187.039 194.77C188.319 189.329 184.639 185.168 179.039 185.808C177.119 185.968 175.359 186.608 173.279 187.088C172.959 184.367 175.519 184.047 176.799 182.607C177.439 182.607 178.079 182.447 178.719 182.287C187.199 181.487 192.159 187.088 190.239 195.41C189.599 198.451 188.639 201.652 187.839 204.693C187.359 206.613 187.199 208.694 187.359 210.774C187.679 215.895 191.359 218.296 196.159 216.376C196.159 216.376 196.319 216.376 196.479 216.376C197.279 216.216 198.079 214.935 198.879 216.056C199.679 217.176 198.719 217.976 197.919 218.616C195.679 220.377 192.959 220.697 190.239 219.896C189.279 219.576 188.319 219.096 187.519 218.616L187.359 218.776Z" fill="#0D0F0D"/>
<path d="M333.441 139.076C340.001 139.556 345.121 141.957 349.281 146.598C349.921 147.238 350.401 148.198 349.761 148.998C348.961 149.959 348.001 149.959 347.041 149.319C346.081 148.678 345.281 147.878 344.321 147.238C337.761 142.117 331.041 142.117 324.321 146.918C322.241 148.358 320.481 150.279 318.081 151.239C317.441 151.559 316.961 151.879 316.321 151.239C315.521 150.599 316.001 149.799 316.321 149.159C320.481 142.917 326.401 139.716 333.441 138.756V139.076Z" fill="#0D0F0D"/>
<path d="M182.24 147.719C182.56 148.039 182.72 148.359 182.24 148.679C182.24 148.679 181.92 148.359 181.76 148.199C181.76 148.199 182.08 147.879 182.08 147.719H182.24Z" fill="#0D0F0D"/>
<path d="M116.961 94.7445C117.281 94.4245 117.441 93.7843 117.921 94.2644C118.241 94.5845 117.921 95.0646 117.601 95.3847C117.441 95.2247 117.121 95.0646 116.961 94.7445Z" fill="#EC872C"/>
<path d="M173.439 182.766C173.439 182.766 173.279 182.926 173.119 183.086C173.119 183.086 173.119 183.086 173.119 182.926C173.119 182.926 173.279 182.926 173.439 182.926V182.766Z" fill="#FEFEFE"/>
</svg>
