<svg width="185" height="185" viewBox="0 0 185 185" fill="none" xmlns="http://www.w3.org/2000/svg">
<g filter="url(#filter0_d_2794_55449)">
<circle cx="95" cy="90" r="90" fill="#EA5E6B"/>
</g>
<mask id="mask0_2794_55449" style="mask-type:alpha" maskUnits="userSpaceOnUse" x="5" y="-22" width="200" height="203">
<path d="M201.5 78.0005C201.5 127.706 144.706 180.002 95 180.002C45.2944 180.002 5 139.708 5 90.0024C11.0007 72.5016 -6.50075 1.50027 34.5 -13.9985C52.5 -21.4973 110.448 -23.2707 156 -18.9995C220 -12.9985 202.5 33.5002 201.5 78.0005Z" fill="#B2D2DC"/>
</mask>
<g mask="url(#mask0_2794_55449)">
<path d="M172.152 86.7382C161.789 104.958 147.97 120.979 135.408 137.942C124.102 153.335 110.911 167.785 98.6632 182.236C93.6383 188.204 87.9855 193.859 80.1341 196.372C79.1919 196.372 78.2496 197 77.3075 197C72.9107 197 69.4562 195.744 66.0015 193.23C59.7204 188.833 54.6954 183.806 49.3564 178.466C48.1002 177.209 47.7863 175.639 48.1003 174.068C49.6706 172.812 51.2409 172.497 52.8112 173.754C54.0674 174.382 54.6954 174.382 55.6376 173.44C58.7781 170.613 62.5468 169.042 66.6295 167.785C74.1668 165.272 81.7042 163.387 88.6134 159.618C95.8367 155.534 101.176 149.88 104.316 142.026C106.515 136.686 106.829 130.717 107.457 125.063C109.341 109.984 114.994 97.733 130.697 92.3927C131.325 92.3927 131.953 91.7644 132.267 91.4502C136.664 89.2513 139.805 85.7958 140.747 80.7696C141.689 75.7435 142.317 70.7173 142.003 65.6912C143.259 63.4922 142.003 60.0367 145.458 59.4084C144.83 62.8639 146.086 66.3194 145.458 70.089C145.458 71.3456 145.143 72.6022 145.143 73.8587C145.143 85.1676 140.747 93.3351 129.441 97.4189C128.813 97.4189 128.184 98.0471 127.87 98.3613C120.961 101.503 116.564 106.529 114.052 113.44C111.54 120.037 110.597 126.634 109.655 133.545C107.771 146.738 101.49 156.791 88.9276 162.759C82.6465 165.586 76.0513 167.785 69.4561 169.67C65.3734 170.927 61.6047 172.497 58.4641 175.01C56.8938 175.953 56.5798 176.895 58.4641 178.466C61.9187 181.607 65.3734 184.749 69.1421 187.262C74.481 191.031 77.9356 191.031 83.5886 187.262C88.6135 183.806 92.3821 179.408 96.4648 174.696C113.11 156.476 128.499 137 143.259 117.209C150.168 107.785 157.706 98.9895 163.359 88.623C164.615 87.3665 164.929 85.7958 164.929 84.2252C164.929 79.199 162.103 75.7434 158.962 72.6021C154.565 68.2042 150.168 63.8064 145.458 59.7226C140.747 56.5812 136.978 51.8691 131.639 49.0419V55.6388C128.499 67.5759 121.589 76.6859 113.11 85.1675C108.085 89.8796 103.06 94.9057 97.4071 99.3037C92.6963 102.759 91.4399 107.157 90.8118 112.497C89.8697 120.665 88.9276 128.833 86.4152 136.686C83.9027 144.225 81.3902 146.11 73.5388 146.11C69.142 146.11 65.3734 147.681 62.2328 150.194C60.0344 152.079 57.836 154.277 55.3236 156.162C54.3814 156.791 53.7532 158.361 52.497 157.419C51.2408 156.476 52.497 154.906 53.1251 154.277C58.15 147.681 64.7453 143.597 73.2248 143.283C79.82 143.283 82.3324 141.398 84.2167 135.115C86.4151 128.204 87.3573 121.293 87.9855 114.068C88.6136 105.272 91.754 98.3613 98.6632 92.7069C101.804 90.1938 104.63 87.3665 107.457 84.5393C113.11 79.199 118.135 73.5446 122.217 67.2618C125.044 62.5498 127.556 57.5236 127.556 51.8692C127.556 49.3561 128.185 46.5288 125.986 44.9581C115.936 38.3613 105.887 32.0785 95.8368 25.7958C92.6963 23.911 89.2415 23.9111 85.4728 25.1676C78.5636 27.6807 72.9107 32.3927 67.8858 37.4189C55.0095 49.9843 43.3895 63.8063 31.4554 77.3141C27.0586 82.3403 22.6618 87.0523 19.5212 93.0209C18.8931 93.3351 18.2649 93.6492 18.579 94.5916C17.6368 94.2775 17.6369 94.5917 17.9509 95.2199C17.3228 95.2199 17.0087 95.534 17.0087 96.1623C16.6947 96.7906 16.3806 97.4189 15.7525 98.0471C10.0995 104.33 5.38871 111.241 0.677878 118.466C-3.09079 124.12 -3.09085 129.775 1.30593 135.115C4.13243 138.885 6.95897 142.34 9.78548 146.11C9.78548 148.623 7.90114 147.995 6.64492 147.367C-0.578364 144.539 -6.23135 140.141 -8.7438 132.288C-9.05785 131.031 -8.74378 129.461 -10 128.518V123.178C-5.28916 109.67 4.76058 99.6178 12.926 88.3089C27.6867 68.2042 44.6456 50.2985 61.9187 32.7069C68.5138 25.7959 76.3653 20.1414 86.101 17.6283C90.8118 16.3717 95.2087 17 98.9774 19.5131C122.218 34.2775 146.4 48.0995 165.243 68.8325C168.384 72.288 170.896 76.3717 172.152 80.7696V87.3665V86.7382Z" fill="#050A0B"/>
<path d="M47.7854 174.382C34.9091 164.958 22.3469 155.22 9.47064 145.796C6.64414 142.026 3.8177 138.571 0.991195 134.801C-3.09153 129.461 -3.09157 123.806 0.363045 118.152C5.07388 111.241 9.78468 104.016 15.4377 97.7331C15.7517 97.1049 16.0659 96.4767 16.694 95.8484C17.3221 95.8484 17.6361 95.8483 17.6361 94.9059C18.2642 94.9059 18.5783 94.906 18.2643 93.9635C19.2064 93.9635 19.8345 93.6494 19.2064 92.3929C20.7767 93.3353 21.0907 91.7646 21.7188 91.1363C24.5453 88.3091 27.0578 85.1677 29.5702 82.3405C44.0168 66.6337 58.7775 51.2411 75.4225 37.7332C82.3317 32.0787 89.2408 31.1363 97.7204 34.5918C108.398 39.3039 118.134 44.9583 127.556 51.8693C127.556 57.5238 125.043 62.5499 122.217 67.262C118.134 73.8588 113.109 79.5133 107.456 84.5395C104.63 87.3667 101.489 89.8798 98.6625 92.707C91.7533 98.3615 88.6128 105.587 87.9847 114.068C87.3566 121.293 86.4144 128.204 84.216 135.115C82.3317 141.398 79.8192 142.969 73.224 143.283C64.7445 143.283 58.1493 147.681 53.1244 154.278C52.4963 155.22 51.24 156.477 52.4962 157.419C53.7525 158.361 54.3806 156.791 55.3228 156.162C57.5212 154.278 59.7196 152.079 62.2321 150.194C65.6867 147.367 69.4553 146.11 73.538 146.11C81.3894 146.11 83.902 143.911 86.4144 136.686C89.2409 128.833 89.8689 120.665 90.8111 112.498C91.4392 107.157 92.6955 102.759 97.4064 99.3038C103.059 94.9059 108.084 90.1939 113.109 85.1677C121.589 77.0001 128.498 67.5761 131.638 55.6389C135.721 58.4661 138.548 62.55 142.316 66.0054C142.316 71.0316 142.316 76.0578 141.06 81.0839C140.118 86.1101 136.977 89.5656 132.58 91.7646C131.952 91.7646 131.638 92.3929 131.01 92.707C115.307 98.0473 109.655 110.299 107.77 125.377C107.142 131.032 106.828 136.686 104.63 142.34C101.489 150.194 96.4642 155.848 88.9268 159.932C82.0176 163.702 74.1662 165.587 66.9429 168.1C63.1742 169.356 59.0915 170.927 55.951 173.754C55.0088 174.697 54.0666 175.011 53.1244 174.068C51.5541 172.812 49.6698 173.44 48.4136 174.382H47.7854ZM34.281 108.728C35.5373 106.215 33.6529 104.644 32.0826 103.388C31.4545 102.759 30.5124 102.445 29.5702 103.388C28.314 104.644 28.9421 106.215 29.5702 107.471C28.314 107.471 26.4297 106.529 26.1157 108.728C26.1157 110.613 26.4298 112.183 28.3141 112.812C30.5125 113.44 31.1405 111.869 31.1405 109.985C31.7686 109.985 32.0826 109.985 32.7108 109.985C33.6529 109.985 34.281 109.984 34.281 108.728ZM58.4634 79.1991C60.6618 79.1991 63.1742 79.8274 62.2321 76.3719C61.604 74.4871 60.3477 72.9164 58.4634 73.2305C56.579 73.2305 57.5211 75.7437 57.2071 77.0002C57.2071 77.3144 57.2071 77.6285 57.2071 78.2567C55.6368 78.2567 53.1244 76.0578 53.1244 79.8274C53.1244 81.7122 53.7525 83.2829 56.2649 83.2829C58.7774 83.2829 58.4633 81.0839 58.7774 79.5133L58.4634 79.1991ZM83.9018 49.3562C85.4721 49.3562 87.3566 49.6703 87.9847 47.7855C88.6128 45.5865 87.3565 44.33 86.1003 42.7593C85.1581 41.5028 83.9018 40.2463 82.3315 40.8746C80.4472 41.817 81.3895 43.3876 81.7036 44.6441C81.7036 45.2724 82.3317 45.9007 81.7036 46.8431C80.4474 46.2149 79.191 44.6441 77.6207 45.9007C76.3645 47.1572 77.6207 48.7279 78.2489 49.9845C78.2489 50.6128 79.191 50.9269 79.8191 51.5552C82.3316 53.1258 83.2738 51.5551 83.5878 49.3562H83.9018ZM77.3067 80.4556C73.8521 78.2567 72.9099 78.5709 72.5959 82.6546C72.5959 83.597 72.2818 84.5394 71.9677 85.4818C71.9677 86.4242 71.3396 86.7384 70.3975 86.4243C67.571 84.8536 66.9429 86.4243 66.3148 88.9373C66.0007 90.508 65.3726 91.7645 64.7445 93.0211C64.1164 94.2776 63.4883 94.9059 62.2321 93.6494C61.604 93.0211 60.6618 92.0787 59.7197 93.0211C59.0916 93.9635 59.4056 94.906 59.7197 95.8484C60.9759 98.6756 64.4304 99.3038 66.3148 96.7907C68.1991 94.2777 69.1413 90.8221 73.224 89.8797C73.8521 89.8797 74.1662 88.3091 74.7943 87.3667C75.1084 86.7384 75.4223 85.796 76.0504 85.4818C80.1331 85.1677 80.7613 81.3981 82.0176 78.5709C82.6457 77.3144 82.6456 76.3719 84.53 77.0002C87.3565 77.9426 88.9268 76.0578 88.9268 73.8589C88.9268 69.4609 93.9516 67.8902 93.9516 63.4923C93.9516 63.4923 94.5797 62.8641 94.8938 62.8641C97.7203 62.8641 98.0343 61.2934 98.0343 59.4086C98.0343 58.7803 98.0345 58.4662 98.9767 58.152C106.514 55.0107 104.944 55.9531 103.373 48.4138C103.373 47.1573 102.431 45.9007 100.861 46.2148C99.2906 46.529 99.2906 48.0996 99.6046 49.3562C100.233 50.9269 100.233 52.4976 99.6046 54.3824C96.7781 52.1834 95.2079 52.4976 95.2079 56.2672C95.2079 56.8955 95.2079 57.8379 94.5798 57.8379C90.183 56.8955 90.8111 60.6651 90.1829 62.8641C89.5548 64.4348 89.8689 65.3771 87.6705 63.8065C85.7862 62.5499 84.844 63.8065 84.53 66.0054C84.53 68.2044 85.1581 70.0892 84.53 72.2882C80.4472 70.0892 79.8192 70.4033 78.563 75.1154C77.9349 77.0002 77.6208 78.885 76.3646 80.7698L77.3067 80.4556ZM57.2071 106.843C56.893 105.587 57.5211 103.702 55.6368 103.073C53.7525 102.445 53.1245 104.33 52.8104 105.901C52.4964 106.843 52.1823 107.157 51.2401 107.157C49.0417 107.157 48.4137 108.728 47.1574 110.299C46.5293 111.241 46.2151 112.812 44.6448 112.812C43.7027 112.812 42.4466 112.812 42.4466 114.382C42.4466 115.953 44.0168 116.267 45.273 116.581C47.1573 116.895 48.0996 115.639 48.7277 114.382C49.6699 112.812 50.2978 111.869 52.4962 111.869C54.3806 111.869 57.8352 111.869 57.2071 107.471V106.843ZM73.224 49.3562C71.6538 49.3562 71.3397 50.2986 71.0256 51.5552C71.0256 55.0107 72.5959 58.152 74.7943 58.152C76.6786 58.152 77.6208 57.2096 77.9349 55.0107C77.9349 52.8117 75.1084 49.042 73.224 49.042V49.3562ZM40.2482 102.445C40.2482 99.6179 37.4217 95.8483 35.5373 96.1624C33.653 96.1624 33.9671 98.0473 33.9671 98.9897C34.2811 101.503 33.9671 104.958 37.7358 105.587C39.6201 105.901 40.2482 104.33 40.2482 102.759V102.445ZM49.0417 83.597C47.1574 83.597 46.8434 84.5394 47.1574 85.796C47.4715 87.9949 47.7855 90.1939 50.612 90.1939C52.1823 90.1939 53.1244 89.2515 53.1244 87.6808C53.1244 85.1677 51.2401 84.2253 49.0417 83.597ZM12.9253 123.806C13.2393 125.691 12.9253 128.519 16.0658 128.833C17.6361 128.833 18.5783 127.89 18.2643 126.32C17.9502 124.121 17.3221 121.608 14.4956 120.979C12.9253 120.979 13.2394 122.55 13.2394 123.492L12.9253 123.806ZM87.0424 38.0473C87.9845 39.9321 87.0425 42.7593 90.4971 43.3876C91.7533 43.3876 92.3814 42.4452 92.3814 41.1886C91.7533 38.9897 91.4393 36.1625 88.9268 35.5342C87.3566 35.2201 87.3566 36.7907 87.3566 38.0473H87.0424ZM61.9179 68.5185C62.546 70.0892 61.6039 72.9164 64.7445 73.5447C66.0007 73.5447 66.6288 72.6023 66.3148 71.6599C65.6867 69.4609 65.3727 67.2619 62.8602 66.6337C61.9181 66.6337 61.9179 67.5761 61.9179 68.8327V68.5185ZM23.9172 117.524C25.4875 117.524 26.1157 116.581 26.1157 115.325C26.1157 113.126 23.9172 112.183 22.0329 111.869C21.0907 111.869 20.4626 112.498 20.7767 113.44C21.0907 115.325 21.7188 116.895 23.9172 117.21V117.524ZM12.2971 130.403C11.9831 128.833 10.7269 127.89 8.84259 127.576C7.58637 127.576 7.58629 128.833 7.58629 129.775C7.58629 131.346 8.21446 132.602 10.0988 132.916C11.355 132.916 11.9831 132.288 11.9831 130.717L12.2971 130.403Z" fill="#0AB9EC"/>
<path d="M163.042 88.3074C157.389 98.6739 149.851 107.47 142.942 116.894C128.182 136.684 112.793 156.161 96.1478 174.381C92.0651 178.779 88.2965 183.177 83.2716 186.946C77.9327 190.716 74.478 190.716 68.825 186.946C65.0563 184.433 61.6018 181.292 58.1472 178.15C56.5769 176.58 56.891 175.951 58.1472 174.695C61.6018 172.182 65.3705 170.611 69.1391 169.355C75.7343 167.156 82.3293 165.271 88.6104 162.444C101.173 156.475 107.454 146.423 109.338 133.229C110.28 126.318 111.222 119.721 113.735 113.124C116.247 106.213 120.644 101.187 127.553 98.0457C128.182 98.0457 128.81 97.4175 129.124 97.1033C140.116 93.0195 144.826 84.852 144.826 73.5431C144.826 72.2866 144.826 71.03 145.14 69.7734C151.422 75.742 157.075 81.7106 162.728 88.3074H163.042ZM152.05 83.2813C149.851 83.5955 147.967 84.2237 146.397 85.7944C142.942 89.2499 140.116 93.0195 137.289 96.475C135.405 98.674 134.463 101.187 134.463 104.328C134.463 106.213 134.777 107.784 136.661 108.098C138.545 108.726 140.116 108.098 141.372 106.527C143.57 103.7 145.769 100.873 147.653 97.7315C149.851 94.5902 152.364 91.4488 154.248 88.3074C156.132 85.4802 154.876 82.9672 152.05 82.9672V83.2813Z" fill="#0AB8EB"/>
<path d="M127.558 51.8689C118.137 44.9579 108.401 39.3035 97.7229 34.5914C89.5575 31.1359 82.3343 32.0783 75.425 37.7328C58.7801 51.2407 44.0194 66.6333 29.5728 82.3401C26.7463 85.1673 24.2338 88.3087 21.7214 91.1359C21.0933 91.7642 20.7793 93.3349 19.209 92.3925C22.3495 86.738 26.7463 81.7118 31.1431 76.6857C43.0772 63.1778 54.6974 49.3558 67.5737 36.7903C72.9126 31.7642 78.2515 27.0521 85.1607 24.539C88.9294 23.2825 92.3839 22.9684 95.5245 25.1674C105.574 31.4501 115.624 38.0469 125.674 44.3296C128.186 45.9003 127.558 48.7275 127.244 51.2406L127.558 51.8689Z" fill="#F7FAFB"/>
<path d="M163.044 88.3084C157.391 82.0256 151.738 75.7429 145.457 69.7744C145.771 66.3189 144.515 62.8634 145.457 59.0938C149.854 63.4917 154.564 67.5754 158.961 71.9733C162.102 75.1147 165.242 78.5702 164.928 83.5963C164.928 85.167 164.614 86.7378 163.358 87.9943L163.044 88.3084Z" fill="#F9FAFA"/>
<path d="M142.004 65.6899C138.235 62.2344 135.409 58.4647 131.326 55.3233C131.326 53.1244 131.326 51.2397 131.326 48.7266C136.979 51.5538 140.434 56.2658 145.145 59.4072C141.376 60.3496 142.946 63.8051 141.69 65.6899H142.004Z" fill="#F7F8F9"/>
<path d="M19.2086 92.707C19.8368 93.6494 19.2087 93.9636 18.2665 94.2777C17.6384 93.3353 18.2665 93.0212 19.2086 92.707Z" fill="#F7FAFB"/>
<path d="M18.2668 94.2769C18.2668 94.9052 18.2668 95.2193 17.6387 95.2193C17.6387 94.591 17.6387 93.9628 18.2668 94.2769Z" fill="#F7FAFB"/>
<path d="M17.6355 94.9062C17.6355 95.5345 17.3215 95.8487 16.6934 95.8487C16.6934 95.5346 17.0074 94.9062 17.6355 94.9062Z" fill="#F7FAFB"/>
<path d="M77.3044 80.4554C78.5607 78.8847 78.8748 76.6858 79.5029 74.8009C80.7591 70.0889 81.3871 69.7748 85.4698 71.9737C86.0979 69.7748 85.4698 67.89 85.4698 65.691C85.4698 63.4921 86.726 62.2355 88.6104 63.492C90.4947 65.0627 90.4949 64.1203 91.123 62.5497C91.7511 60.3507 91.1228 56.8952 95.5196 57.5235C96.1477 57.5235 96.1478 56.581 96.1478 55.9528C96.1478 52.1831 97.7181 51.869 100.545 54.0679C101.173 52.1831 100.859 50.6124 100.545 49.0417C99.9165 47.7852 100.545 46.5287 101.801 45.9004C103.371 45.5862 103.999 46.8428 104.313 48.0994C105.883 55.6386 107.454 54.6963 99.9165 57.8376C99.2884 57.8376 98.9744 58.4659 98.9744 59.0941C98.9744 60.979 98.3462 62.8638 95.8338 62.5497C95.8338 62.5497 94.8915 62.8637 94.8915 63.1779C94.8915 67.2616 89.8667 69.1465 89.8667 73.5444C89.8667 75.7434 88.2963 77.6282 85.4698 76.6858C83.5855 76.0575 83.5855 76.9999 82.9574 78.2565C81.7012 81.0837 81.0732 84.5391 76.9905 85.1674C76.6764 85.1674 76.0482 86.424 75.7342 87.0522C75.106 87.9946 74.792 89.2512 74.1639 89.5654C70.0812 90.1936 69.453 93.9632 67.2546 96.4763C65.3703 98.9894 61.6017 98.3612 60.6595 95.5339C60.3455 94.5915 60.0314 93.335 60.6595 92.7067C61.6017 91.7643 62.5438 92.7067 63.1719 93.335C64.4281 94.5915 65.0562 93.9633 65.6843 92.7067C66.3124 91.4502 66.9406 89.8795 67.2546 88.6229C67.8827 86.424 68.5108 84.5392 71.3373 86.1099C72.2795 86.7381 72.5935 86.1098 72.9076 85.1674C72.9076 84.225 73.5357 83.2826 73.5357 82.3402C74.1638 78.2564 74.7919 77.9423 78.2466 80.1413L77.3044 80.4554Z" fill="#020F13"/>
<path d="M57.2077 106.843C57.8358 110.927 54.0672 110.927 52.4969 111.241C50.2985 111.241 49.3565 112.183 48.7284 113.754C47.7862 115.01 47.158 116.267 45.2737 115.953C44.0174 115.953 42.7613 115.325 42.4473 113.754C42.4473 112.497 43.7033 112.183 44.6455 112.183C46.2158 112.183 46.53 110.927 47.1581 109.67C48.1003 108.099 49.0424 106.529 51.2408 106.529C52.183 106.529 52.497 106.215 52.8111 105.272C53.4392 104.016 53.7531 102.131 55.6375 102.445C57.8358 103.073 56.8937 105.272 57.2077 106.215V106.843Z" fill="#020F13"/>
<path d="M80.1324 51.5548C79.5043 50.9265 78.8762 50.6124 78.5621 49.9841C77.934 48.7275 76.6778 47.1568 77.934 45.9003C79.1902 44.6437 80.7604 45.9003 82.0167 46.8427C82.6448 46.2144 82.0167 45.5861 82.0167 44.6437C81.7026 43.3872 80.7605 41.5024 82.6448 40.8741C84.2151 40.2459 85.4714 41.5023 86.4135 42.7589C87.6698 44.3296 88.9259 45.5861 88.2978 47.7851C87.6697 49.6699 85.4713 49.0416 84.2151 49.3558C82.0167 48.7275 81.7026 51.2406 80.4464 51.5548H80.1324Z" fill="#02151A"/>
<path d="M73.2265 49.3555C75.1109 49.3555 77.9374 53.1251 77.9374 55.324C77.9374 57.2089 76.9952 58.4654 74.7968 58.4654C72.2844 58.4654 70.714 55.3241 71.0281 51.8686C71.0281 50.6121 71.3422 49.3555 73.2265 49.6696V49.3555Z" fill="#020F13"/>
<path d="M40.2519 102.444C40.2519 104.329 39.6238 105.586 37.7395 105.272C34.2849 104.643 34.2849 101.502 33.9708 98.6749C33.9708 97.4183 33.6567 96.1618 35.5411 95.8477C37.4254 95.8477 40.2519 99.6173 40.2519 102.13V102.444Z" fill="#021217"/>
<path d="M49.0425 83.5977C50.9268 84.2259 52.8111 85.4825 53.1251 87.6815C53.1251 89.2522 52.183 90.5087 50.6127 90.1945C47.7862 90.1945 47.4723 87.6815 47.1582 85.7966C47.1582 84.5401 47.1581 83.5977 49.0425 83.5977Z" fill="#021A20"/>
<path d="M12.9254 123.806C12.9254 122.549 12.9254 120.978 14.1816 121.293C17.0081 121.607 17.6363 124.12 17.9503 126.633C17.9503 127.889 17.3222 129.146 15.7519 129.146C12.6113 128.832 12.9254 126.005 12.6113 124.12L12.9254 123.806Z" fill="#021217"/>
<path d="M87.0425 38.048C87.0425 36.7915 87.0425 34.9067 88.6128 35.535C91.1252 36.1632 91.7534 38.9904 92.0675 41.1894C92.0675 42.4459 91.7533 43.7025 90.1831 43.3884C87.0425 43.0742 87.6707 39.9328 86.7285 38.048H87.0425Z" fill="#02151A"/>
<path d="M56.8954 77.9436C56.8954 77.6295 56.8954 77.3154 56.8954 76.6871C56.8954 75.4306 56.2674 73.2316 58.1517 72.9174C60.3501 72.6033 61.6062 74.4881 61.9202 76.0588C62.8624 79.5143 60.3501 79.2002 58.1517 78.886C58.1517 77.9436 57.5235 77.6295 56.8954 77.6295V77.9436Z" fill="#02151A"/>
<path d="M56.893 77.9423C57.8351 77.9423 58.1493 78.2564 58.1493 79.1988C58.1493 80.7695 58.1491 82.9685 55.6367 82.9685C53.4383 82.9685 52.8101 81.3978 52.4961 79.5129C52.4961 75.4292 54.6946 77.6281 56.579 77.9423H56.893Z" fill="#021E25"/>
<path d="M29.2567 107.157C28.6286 105.587 28.3146 104.33 29.2567 103.074C29.8849 102.445 30.827 102.76 31.7691 103.074C33.3394 104.33 35.2238 105.901 33.9676 108.414C33.0254 108.414 32.7114 108.414 32.3973 109.671C31.7692 109.671 31.4551 109.671 30.827 109.671C30.827 108.414 29.8847 107.786 28.9426 107.157H29.2567Z" fill="#020F13"/>
<path d="M61.9199 68.5173C61.9199 67.2608 61.9201 66.0042 62.8622 66.3184C65.3747 66.9466 65.6887 69.4597 66.3168 71.3445C66.3168 72.287 66.0027 73.5435 64.7465 73.2294C61.6059 72.9152 62.548 69.7739 61.9199 68.2032V68.5173Z" fill="#021A20"/>
<path d="M29.2587 107.158C30.2009 107.786 31.1429 108.414 31.1429 109.671C31.1429 111.556 30.2009 112.812 28.3166 112.498C26.4322 111.87 25.8041 110.299 26.1181 108.414C26.1181 105.901 28.3164 107.158 29.5727 107.158H29.2587Z" fill="#02222A"/>
<path d="M23.9179 117.523C21.7195 117.523 21.0914 115.638 20.7773 113.753C20.7773 112.811 20.7773 111.869 22.0335 112.183C23.9179 112.497 25.8023 113.125 26.1163 115.638C26.1163 116.895 25.4882 117.837 23.9179 117.837V117.523Z" fill="#021A20"/>
<path d="M12.2952 130.403C12.2952 131.974 11.6672 132.602 10.4109 132.602C8.52661 132.602 7.89844 131.031 7.89844 129.461C7.89844 128.518 7.89842 127.262 9.15464 127.262C10.7249 127.262 11.9812 128.518 12.6093 130.089L12.2952 130.403Z" fill="#021E25"/>
<path d="M80.1348 51.5553C81.705 51.2411 82.0189 48.728 83.9033 49.3563C83.9033 51.8694 82.6472 53.1259 80.1348 51.5553Z" fill="#021217"/>
<path d="M32.7109 109.671C32.7109 108.728 33.339 108.414 34.2812 108.414C34.2812 109.356 33.6531 109.671 32.7109 109.671Z" fill="#02222A"/>
<path d="M152.052 83.2832C154.878 83.2832 156.135 85.7962 154.25 88.6235C152.366 91.7648 149.854 94.9062 147.655 98.0475C145.457 100.875 143.258 103.702 141.374 106.843C140.118 108.414 138.548 109.042 136.663 108.414C134.779 107.786 134.465 106.215 134.465 104.644C134.465 101.503 135.093 98.99 137.291 96.791C140.432 93.3355 143.258 89.2518 146.399 86.1104C147.969 84.5397 149.854 83.9114 152.052 83.5973V83.2832Z" fill="#010709"/>
</g>
<defs>
<filter id="filter0_d_2794_55449" x="0" y="0" width="185" height="185" filterUnits="userSpaceOnUse" color-interpolation-filters="sRGB">
<feFlood flood-opacity="0" result="BackgroundImageFix"/>
<feColorMatrix in="SourceAlpha" type="matrix" values="0 0 0 0 0 0 0 0 0 0 0 0 0 0 0 0 0 0 127 0" result="hardAlpha"/>
<feOffset dx="-5" dy="5"/>
<feComposite in2="hardAlpha" operator="out"/>
<feColorMatrix type="matrix" values="0 0 0 0 0 0 0 0 0 0 0 0 0 0 0 0 0 0 1 0"/>
<feBlend mode="normal" in2="BackgroundImageFix" result="effect1_dropShadow_2794_55449"/>
<feBlend mode="normal" in="SourceGraphic" in2="effect1_dropShadow_2794_55449" result="shape"/>
</filter>
</defs>
</svg>
