<svg width="194" height="204" viewBox="0 0 194 204" fill="none" xmlns="http://www.w3.org/2000/svg">
<g filter="url(#filter0_d_2235_3219)">
<circle cx="100" cy="109" r="90" fill="#B2D2DC"/>
</g>
<path d="M184.021 171.212C185.106 172.3 184.262 173.147 183.419 173.752C181.009 175.565 178.6 177.379 176.19 178.951C168.479 184.03 160.889 189.351 153.419 194.792C152.215 195.639 150.769 196.364 149.564 197.453C148.359 198.541 147.636 199.508 146.07 199.871C142.335 200.959 138.239 197.694 135.227 195.881C132.215 194.067 128.118 191.285 124.504 189.109C111.01 181.007 97.155 173.389 83.6612 165.287C70.1674 157.185 56.3121 149.567 42.9387 141.223C39.4448 139.047 35.9509 136.991 32.457 134.935C28.963 132.879 25.951 131.066 22.939 128.647C21.6137 127.559 20.2884 126.35 19.0836 125.14C17.8788 123.931 18.1198 124.173 17.9993 123.447C17.8788 122.722 17.7583 121.513 17.5174 120.666C16.915 116.797 16.5535 112.927 16.1921 109.058C15.4692 102.649 14.5054 96.2396 13.662 89.9516C13.0596 85.4774 12.6982 80.8824 12.0958 76.2873C11.6138 71.934 10.8909 67.5808 10.409 63.1067C9.92709 57.6651 8.96324 52.3444 7.9994 47.0238C6.55363 39.1638 6.19221 31.1829 5.34885 23.3228C4.98741 20.4207 4.62594 17.3976 4.38498 14.4955C4.14402 11.5933 3.78261 8.5702 4.86693 5.78896C6.19222 2.28218 9.68613 0.105573 13.421 1.19388C18.2402 2.52404 22.939 4.33789 27.6377 6.03082C31.7341 7.4819 35.7099 9.29575 39.8063 10.8678C45.7098 13.2862 51.7338 15.4628 57.6374 18.0022C69.2035 22.9601 80.6491 28.5226 91.7334 34.4478C101.372 39.5266 111.01 44.8472 120.649 50.1679C124.504 52.3445 126.552 55.6094 127.516 59.9626C128.359 64.4368 128.841 68.911 129.685 73.2642C130.046 75.078 130.649 75.9245 132.456 76.771C140.167 80.2778 147.395 84.3891 154.624 88.7424C163.54 93.9421 172.335 99.3837 181.25 104.825C182.214 105.43 183.54 105.914 183.54 107.365C182.937 108.211 182.094 108.332 181.25 107.848C179.925 107.123 178.6 106.518 177.275 105.793C168.961 100.835 160.769 95.6351 152.335 90.6772C145.468 86.6867 138.359 83.059 131.733 78.8267C131.371 78.5849 131.01 78.4639 130.769 78.7057C131.251 81.7288 131.853 84.7519 132.335 87.6541C132.335 88.2587 132.335 88.8634 133.299 89.1052C136.191 89.8307 138.721 91.4027 141.13 92.9747C150.407 99.0209 159.684 105.188 169.082 111.113C173.419 113.894 177.756 116.676 181.853 119.82C182.576 120.303 183.54 121.029 182.817 121.996C181.973 123.206 181.13 122.238 180.287 121.755C178.118 120.424 175.949 118.852 173.66 117.643C171.732 116.555 170.046 115.104 167.998 114.257C167.636 113.653 167.154 113.411 166.552 113.411C166.552 112.927 166.07 112.806 165.588 112.685C156.431 107.123 147.636 100.956 138.841 94.9095C138.6 94.6677 138.48 94.5468 138.118 94.5468C138.118 94.3049 137.877 94.063 137.516 94.1839C137.516 93.7002 137.154 93.4584 136.673 93.5793C135.709 92.1282 134.022 91.5236 132.697 90.4353C132.697 91.0399 132.576 91.5237 132.817 91.8864C132.817 93.3375 133.058 94.7886 133.42 96.1187C133.661 99.2628 134.143 102.286 134.624 105.43C135.95 104.342 137.034 103.374 138.239 102.528C138.721 102.165 139.203 101.681 139.805 102.286C140.408 102.89 139.805 103.495 139.444 103.979C138.6 104.825 137.636 105.672 136.914 106.397C137.998 107.606 138.962 108.816 140.046 110.025C140.769 109.42 141.251 109.058 141.853 108.574C143.54 107.365 145.106 105.793 147.154 105.309C147.636 106.639 146.672 107.365 145.95 107.969C144.624 109.178 143.179 110.267 141.853 111.476C141.974 111.597 141.974 111.718 142.094 111.839C143.419 113.048 144.745 114.257 146.07 115.346C148.239 117.28 148.239 117.28 150.769 115.708C152.094 114.862 153.419 113.894 155.106 113.411C155.347 115.104 154.263 115.829 153.299 116.555C152.335 117.401 151.251 118.006 150.166 118.852C152.576 121.029 154.745 122.964 157.034 125.019C159.443 123.326 161.733 121.634 164.022 120.062C164.624 119.699 165.227 118.852 165.949 119.578C166.552 120.303 165.708 120.908 165.226 121.392C164.865 121.754 164.383 122.117 163.901 122.48C162.214 123.81 160.528 125.14 158.6 126.591C161.251 129.01 163.901 131.428 166.431 133.847C169.082 131.912 171.612 129.977 174.142 128.163C174.263 128.284 174.383 128.526 174.624 128.647C172.937 131.186 170.528 133 167.877 135.056C170.166 136.87 172.335 138.563 174.503 140.256C174.985 139.893 175.347 139.53 175.708 139.288C176.07 139.047 176.431 138.563 176.793 139.047C177.275 139.409 177.154 140.014 176.793 140.377C176.311 141.102 175.829 141.828 175.106 142.311C172.094 144.73 169.202 147.027 166.07 149.446C168.238 151.502 170.166 153.315 172.214 155.25C173.54 154.162 174.624 153.195 175.829 152.348C176.311 151.985 176.913 151.381 177.395 151.985C177.997 152.711 177.395 153.195 176.913 153.678C175.949 154.646 174.865 155.613 173.66 156.701C174.744 157.911 175.949 159.12 177.034 160.45C177.515 160.934 177.997 161.659 177.275 162.264C176.672 162.748 176.07 162.264 175.708 161.78C174.503 160.571 173.299 159.362 172.094 158.032C169.925 159.724 167.757 161.296 165.829 162.748C167.757 164.682 169.564 166.617 171.491 168.552C171.732 168.431 172.094 168.189 172.335 168.068C174.744 166.375 177.154 164.561 179.323 162.506C179.925 162.022 180.648 161.659 181.25 162.264C181.973 162.868 181.612 163.594 181.009 164.199C180.648 164.682 180.166 165.045 179.805 165.408C177.877 167.343 175.588 168.915 173.299 170.487C173.781 171.333 175.106 172.059 174.022 172.905C172.937 173.872 172.335 172.059 171.371 171.817C171.371 171.817 171.251 171.817 171.13 171.817C163.54 176.896 156.07 182.458 148.239 187.174C147.636 187.537 147.757 187.9 147.757 188.383C148.118 190.439 148.48 192.495 148.721 194.55C149.443 194.55 149.805 193.946 150.287 193.583C159.925 185.723 170.528 179.072 180.648 171.938C181.371 171.454 182.094 170.849 183.178 171.091L184.021 171.212ZM95.3478 158.636C95.1068 158.636 94.9863 158.757 94.9863 158.999C92.8177 161.055 90.649 163.11 88.4804 165.287C106.071 175.445 123.781 185.481 141.13 196.727C141.13 195.76 141.13 195.276 140.889 194.792C138.721 186.328 137.757 177.621 136.311 169.036C134.865 160.329 133.299 151.743 131.853 143.037C130.769 136.507 129.805 129.856 128.721 123.327C127.757 117.643 126.793 111.96 125.95 106.276C125.106 100.956 124.263 95.5141 123.54 90.1935C122.938 86.0821 122.576 81.9707 121.974 77.8593C121.131 71.8131 120.287 65.7669 119.564 59.7208C119.323 58.2697 120.046 56.4558 119.082 55.4884C118.239 54.5211 116.432 54.5211 115.107 54.0374C107.878 51.498 101.131 47.9912 94.2635 44.7263C92.6571 44.0008 91.3318 44.3635 90.2876 45.8146C88.8418 47.5075 87.5166 49.2005 85.9503 50.7725C84.3841 52.2236 83.4202 54.2793 81.3721 55.2467C81.2516 54.4002 81.7335 54.0374 81.854 53.5537C84.625 49.926 87.5165 46.4192 90.649 43.0333C88.6009 42.066 86.5527 41.0986 84.625 40.1312C84.0226 40.9777 83.5407 41.7032 82.9383 42.4287C82.6973 42.6706 82.3359 42.9124 82.0949 43.2752C73.2998 53.4328 64.2638 63.3485 54.9868 72.9014C54.5049 73.3851 54.023 74.1106 53.0591 74.2316C53.3001 73.1433 53.9025 72.5387 54.3844 71.9341C58.3603 66.6134 62.6976 61.6555 67.0349 56.6977C67.1553 56.5768 67.5168 56.4559 67.2758 56.214C67.8782 56.214 67.9987 55.6094 68.3601 55.3675C72.095 51.1352 75.9504 47.0238 79.9263 43.0333C81.0106 41.945 82.0949 40.7358 83.1793 39.6475C83.1793 39.6475 83.1793 39.5266 83.0588 39.5266C69.9264 33.4804 56.9145 27.0715 43.7821 21.3881C31.7341 16.0674 19.8065 10.1422 7.03557 6.63544C6.19221 9.5376 6.79461 12.4397 7.03557 15.221C7.51749 21.1462 8.36086 26.9506 8.96326 32.8758C9.56567 38.0755 10.1681 43.2752 11.1319 48.4749C12.2162 54.2792 12.9391 60.0836 13.5415 65.8879C14.1439 71.4504 14.7463 77.0128 15.3487 82.5753C16.0716 88.2587 16.7945 93.8212 17.5174 99.3837C18.4812 106.034 18.8427 112.806 19.5655 119.457C19.8065 121.513 20.0475 123.689 21.6137 125.14C23.18 126.591 23.7823 126.35 24.8667 126.954C32.0955 131.428 39.3243 135.661 46.5532 140.135C53.3001 144.246 60.1675 148.358 66.9144 152.469C69.324 153.92 71.7336 155.25 74.0227 156.701C74.6251 156.097 74.9866 155.613 75.4685 155.129C76.3118 154.404 77.1552 153.557 77.9986 152.832C78.36 152.59 78.7215 152.227 79.0829 152.832C79.4443 153.195 79.0829 153.557 78.842 153.799C78.2396 154.525 77.6371 155.25 76.9143 155.976C76.3119 156.46 75.589 156.943 75.2275 157.669C76.5528 158.515 77.8781 159.362 79.2034 160.208C79.6853 159.483 80.0468 158.878 80.5287 158.273C80.7696 158.031 80.8901 157.911 81.1311 157.669C88.8418 148.358 97.155 139.651 105.468 131.066C105.95 130.582 106.311 129.977 107.155 130.098C107.637 130.945 106.793 131.428 106.432 131.912C101.01 138.684 94.9863 144.972 89.3237 151.502C86.5527 154.646 83.7816 157.911 80.8901 161.176C82.8178 162.385 84.625 163.473 86.5527 164.682C87.1551 163.957 87.7575 163.352 88.2394 162.868C90.1671 161.176 91.9743 159.483 93.902 157.79C94.2634 157.427 94.6249 157.064 95.1068 157.306C95.5887 157.548 95.3478 158.032 95.4683 158.394C95.2273 158.394 95.1068 158.394 95.2273 158.636C94.9864 158.636 94.8659 158.636 94.9863 158.878L95.3478 158.636ZM144.022 196.969C145.709 197.211 146.793 196.485 146.552 194.913C146.07 191.406 145.347 187.779 144.865 184.272C143.42 174.719 141.251 165.287 139.805 155.734C138.721 149.083 137.516 142.432 136.432 135.661C135.709 130.824 135.106 125.866 134.383 120.908C133.42 113.894 132.215 107.002 131.251 99.9883C130.408 93.7003 129.323 87.2913 128.239 81.0033C127.396 76.2873 126.311 71.4504 125.709 66.7344C125.227 63.4694 124.745 60.2045 123.781 57.0605C123.42 55.6094 122.576 55.1257 121.131 55.4884C121.131 55.7303 121.131 55.9722 121.251 56.214C122.697 61.6556 123.661 67.339 124.625 72.9014C125.347 77.4965 125.829 82.0916 126.552 86.8076C127.155 91.0399 127.757 95.1514 128.359 99.3837C129.203 104.704 129.926 110.025 130.89 115.346C131.853 121.513 132.938 127.559 133.902 133.726C134.865 140.135 135.829 146.423 137.034 152.832C137.998 158.273 138.841 163.594 139.805 169.036C140.648 173.993 141.371 178.951 141.974 183.909C142.576 188.383 143.781 192.616 144.142 197.211L144.022 196.969ZM8.72229 3.73324C9.08373 3.85417 9.44516 4.09604 9.80661 4.21697C16.3126 5.66805 22.3366 8.57019 28.4811 11.1096C54.023 21.6299 78.8419 33.9641 103.781 45.8146C108.962 48.233 114.263 50.4097 119.082 53.5537C119.685 53.9165 120.167 53.6746 120.649 53.4328C120.287 52.8282 119.564 52.5863 119.082 52.2236C115.829 50.4097 112.456 48.7168 109.203 46.9029C98.4803 40.8567 87.637 35.1734 76.6733 29.6109C61.8542 22.2346 46.5532 16.0674 31.1317 9.90035C24.8667 7.36095 18.6017 4.94249 12.0958 3.37049C11.0114 3.12864 9.80661 2.76589 8.72229 3.61235V3.73324ZM149.805 148.358C147.275 150.292 144.865 152.106 142.576 153.92C142.094 158.032 145.588 159.724 147.757 162.143C150.528 159.724 153.299 157.548 156.07 155.129C154.022 152.832 151.974 150.655 149.805 148.358ZM165.588 134.572C162.817 132.033 160.287 129.615 157.636 127.196C155.106 128.889 152.697 130.582 150.287 132.275C152.937 134.814 155.588 137.354 158.239 139.893C160.528 138.2 163.058 136.386 165.588 134.572ZM165.588 147.632C168.359 145.455 171.13 143.279 173.901 140.981C172.214 139.651 170.648 138.563 169.082 137.354C167.716 136.306 166.351 136.306 164.985 137.354C163.058 138.684 161.251 140.135 159.202 141.586C161.371 143.642 163.419 145.576 165.467 147.632H165.588ZM154.865 168.794C157.516 166.738 160.287 164.561 163.058 162.385C161.13 160.45 159.323 158.394 157.395 156.459C154.504 158.757 151.733 160.934 149.203 162.989C151.13 164.924 152.937 166.859 154.865 168.794ZM164.263 164.078C161.612 166.012 158.721 168.068 156.07 170.245C157.998 172.059 159.805 173.752 161.612 175.565C164.383 173.631 167.275 171.696 169.925 169.882C167.998 167.947 166.19 166.012 164.142 164.078H164.263ZM156.672 141.102C153.901 138.563 151.251 136.144 148.6 133.605C146.913 134.814 144.986 136.386 142.938 137.958C145.468 140.619 147.877 143.158 150.287 145.818C152.335 144.246 154.383 142.795 156.672 141.102ZM156.19 125.745C154.022 123.81 151.974 121.875 149.925 120.062C149.564 119.699 149.203 119.457 148.721 119.82C146.672 121.271 144.504 122.722 142.576 124.052C144.865 126.35 146.913 128.526 149.203 130.703C151.492 129.131 153.781 127.438 156.311 125.624L156.19 125.745ZM137.998 125.261C138.721 124.657 139.203 124.173 139.685 123.689C139.203 123.085 138.721 122.48 138.239 121.875C137.998 121.634 137.877 121.271 138.239 121.029C138.6 120.787 138.841 121.029 139.082 121.15C139.685 121.634 140.046 122.359 140.769 122.722C142.938 121.15 145.106 119.578 147.275 117.885C145.106 115.95 143.058 114.015 140.889 112.081C139.564 113.169 138.359 114.136 137.155 115.104C136.673 115.467 136.552 115.829 136.673 116.434C137.154 119.336 137.516 122.238 137.998 125.261ZM157.757 153.799C159.805 152.106 161.853 150.534 164.022 148.841C161.733 146.786 159.564 144.851 157.395 142.916C155.588 144.246 153.66 145.697 151.492 147.148C153.66 149.325 155.588 151.502 157.757 153.799ZM158.961 155.25C161.13 157.185 163.178 158.999 165.226 160.934C167.034 159.603 169.082 157.911 170.889 156.58C168.961 154.404 167.034 152.469 165.226 150.292C163.178 151.985 161.13 153.436 158.961 155.25ZM147.757 131.791C145.347 129.615 143.058 127.68 140.648 125.624C140.408 125.866 139.805 126.229 139.203 126.712C138.841 126.954 138.239 127.075 138.239 127.68C138.721 130.945 138.239 134.693 141.853 136.749C143.66 135.298 145.468 133.605 147.636 131.791H147.757ZM148.721 147.027C145.709 143.521 142.697 140.135 139.564 136.628C140.407 141.949 141.371 147.148 142.215 152.59C144.383 150.534 146.432 148.72 148.6 147.027H148.721ZM154.142 171.817C152.817 172.784 151.251 173.993 149.444 175.324C151.371 177.016 153.178 178.588 155.106 180.281C156.552 179.314 158.118 178.105 159.684 177.016C157.877 175.203 156.07 173.51 154.142 171.696V171.817ZM147.154 164.682C146.913 164.924 146.432 165.287 145.95 165.65C144.865 166.254 144.624 166.98 144.986 168.31C145.347 169.64 145.227 170.97 146.793 171.817C147.636 172.3 147.877 173.389 148.721 173.993C150.166 172.784 151.612 171.575 153.299 170.245C151.13 168.31 149.203 166.617 147.154 164.682ZM148.239 186.086C150.046 184.272 151.853 182.942 153.66 181.491C151.492 180.04 149.925 178.105 148.239 176.291C147.757 176.775 146.793 176.654 146.913 177.742C147.395 180.402 147.757 183.063 148.239 186.086ZM139.444 110.146C138.721 109.42 137.757 108.695 136.914 107.848C136.673 107.606 136.432 107.002 135.95 107.244C135.468 107.486 135.588 107.969 135.709 108.332C135.95 110.025 136.191 111.718 136.432 113.411C137.396 112.322 138.359 111.355 139.564 110.025L139.444 110.146ZM143.901 160.45C143.901 160.45 143.781 160.45 143.661 160.45C143.901 161.901 144.142 163.352 144.504 165.045C145.347 164.44 145.95 163.836 146.432 163.11C145.588 162.143 144.745 161.296 143.901 160.329V160.45ZM145.95 173.147C146.191 174.235 146.311 174.84 146.432 175.686C146.994 175.203 146.833 174.356 145.95 173.147Z" fill="#030607"/>
<path d="M184.021 171.212C182.937 170.97 182.214 171.575 181.491 172.059C171.371 179.193 160.769 185.844 151.13 193.704C150.648 194.067 150.287 194.55 149.564 194.671C149.203 192.616 148.841 190.56 148.6 188.504C148.6 188.02 148.48 187.658 149.082 187.295C157.034 182.7 164.383 177.137 171.973 171.938C171.973 171.938 172.094 171.938 172.214 171.938C173.178 172.18 173.781 173.872 174.865 173.026C175.949 172.18 174.503 171.333 174.142 170.608C176.311 169.036 178.6 167.464 180.648 165.529C181.009 165.166 181.491 164.682 181.853 164.32C182.335 163.715 182.696 162.989 182.094 162.385C181.491 161.78 180.768 162.022 180.166 162.627C177.997 164.682 175.588 166.496 173.178 168.189C172.937 168.431 172.576 168.552 172.335 168.673C170.407 166.738 168.6 164.803 166.672 162.868C168.6 161.417 170.769 159.845 172.937 158.152C174.142 159.362 175.347 160.571 176.552 161.901C177.034 162.385 177.515 162.989 178.118 162.385C178.841 161.78 178.359 161.176 177.877 160.571C176.793 159.362 175.588 158.152 174.503 156.822C175.588 155.855 176.672 154.888 177.756 153.799C178.238 153.316 178.841 152.711 178.238 152.106C177.636 151.502 177.034 152.106 176.672 152.469C175.467 153.436 174.383 154.283 173.058 155.371C171.01 153.436 168.961 151.502 166.913 149.567C170.046 147.148 172.937 144.851 175.949 142.432C176.552 141.949 177.154 141.223 177.636 140.498C177.877 140.135 177.997 139.53 177.636 139.167C177.154 138.805 176.793 139.167 176.552 139.409C176.19 139.651 175.829 140.014 175.347 140.377C173.178 138.684 171.01 136.991 168.72 135.177C171.251 133.242 173.66 131.307 175.467 128.768C175.347 128.647 175.226 128.405 174.985 128.284C172.455 130.098 169.925 131.912 167.275 133.968C164.745 131.549 162.094 129.252 159.443 126.712C161.251 125.261 162.937 123.931 164.745 122.601C165.227 122.238 165.708 121.875 166.07 121.513C166.552 121.029 167.395 120.424 166.793 119.699C166.19 118.973 165.467 119.699 164.865 120.182C162.576 121.754 160.287 123.447 157.877 125.14C155.588 123.085 153.299 121.029 151.01 118.973C152.094 118.248 153.178 117.522 154.142 116.676C155.106 115.95 156.19 115.225 155.949 113.532C154.263 114.015 152.937 114.983 151.612 115.829C149.082 117.401 149.082 117.401 146.913 115.467C145.588 114.257 144.263 113.048 142.938 111.96C142.938 111.96 142.938 111.839 142.697 111.597C144.022 110.388 145.468 109.299 146.793 108.09C147.516 107.365 148.48 106.639 147.998 105.43C148.239 105.43 148.48 105.551 148.6 105.672C159.082 111.96 168.6 119.578 178.841 125.987C179.805 126.591 180.768 126.833 181.491 125.987C182.214 125.14 181.973 124.173 181.25 123.327C180.648 122.601 179.805 122.117 178.961 121.634C175.708 119.578 172.214 117.643 169.202 115.225C168.961 114.983 168.359 114.983 168.6 114.378C170.648 115.225 172.335 116.676 174.263 117.764C176.552 119.094 178.72 120.545 180.889 121.875C181.732 122.359 182.576 123.327 183.419 122.117C184.142 121.029 183.058 120.424 182.455 119.941C178.359 116.797 174.142 113.895 169.684 111.234C160.287 105.309 151.01 99.1419 141.733 93.0957C139.323 91.5237 136.673 89.9517 133.902 89.2261C132.938 88.9843 133.058 88.3796 132.938 87.775C132.456 84.7519 131.853 81.8498 131.371 78.8267C131.733 78.5849 131.974 78.8267 132.335 78.9476C139.082 83.1799 146.07 86.8076 152.937 90.7981C161.371 95.635 169.564 100.835 177.877 105.914C179.202 106.639 180.527 107.365 181.853 107.969C182.696 108.453 183.54 108.332 184.142 107.486C185.226 108.09 186.311 108.816 187.395 109.299C188.238 109.783 188.841 110.509 188.841 111.113C188.841 116.797 187.636 160.208 187.033 167.705C186.913 169.398 185.829 170.608 184.503 171.333L184.021 171.212Z" fill="#0ABAEE"/>
<path d="M95.9502 158.032C95.9502 157.669 96.0707 157.185 95.5887 156.943C94.9863 156.701 94.7454 157.064 94.3839 157.427C92.4562 159.12 90.649 160.813 88.7213 162.506C87.7575 162.022 86.9142 161.538 86.0708 160.813C86.0708 160.208 86.4322 159.724 86.7937 159.362C88.9623 156.339 91.131 153.195 93.4201 150.292C97.2755 145.576 101.251 141.102 105.227 136.386C106.552 134.935 107.757 133.363 108.721 131.549C109.324 130.34 109.083 129.856 107.637 129.615C106.793 129.494 106.432 130.098 105.95 130.582C97.6369 139.288 89.3238 147.995 81.613 157.185C81.372 157.427 81.2516 157.548 81.0106 157.79C79.8058 157.064 78.601 156.339 77.5167 155.613C78.1191 154.888 78.7215 154.162 79.4444 153.436C79.6853 153.195 79.9263 152.832 79.6853 152.469C79.3239 151.985 78.9624 152.227 78.601 152.469C77.7576 153.195 76.9143 153.92 76.0709 154.767C74.1432 153.557 72.095 152.227 70.1673 151.018C58.9627 143.763 47.1556 137.837 36.1919 130.098C38.3605 127.317 40.5292 124.536 42.6978 121.634C42.9388 121.271 43.5412 120.908 43.0592 120.424C42.4568 119.941 42.0954 120.545 41.7339 120.908C39.2039 123.447 36.7943 126.229 34.8666 129.252C33.4208 128.284 31.975 127.317 30.4088 126.35C31.7341 124.657 33.0594 123.085 34.3847 121.392C37.6376 117.401 40.7701 113.29 43.6616 109.058C43.9026 108.695 44.505 108.09 43.9026 107.727C43.4207 107.365 43.0592 107.969 42.6978 108.211C42.4568 108.453 42.2159 108.695 41.9749 108.937C37.3967 114.378 32.9389 119.82 28.6016 125.503C27.2763 124.657 25.8305 123.931 24.2643 123.568C23.5414 123.327 23.4209 122.964 23.4209 122.359C23.4209 117.522 22.4571 112.927 21.7342 108.211C20.8908 102.89 19.8065 97.5698 18.9631 92.2492C18.3607 88.6215 18.1198 84.9938 17.6378 81.3661C17.1559 77.8593 16.3126 74.3525 16.3126 70.7248C16.3126 68.3064 16.0716 65.7669 15.8306 63.3485C15.3487 58.1488 14.7463 52.9491 14.5054 47.6284C14.2644 41.7032 13.662 35.778 12.9391 29.9736C12.0957 23.6856 12.0957 17.3976 11.2524 11.1096H11.4934C22.3366 14.8582 32.8184 19.5742 43.1797 24.4112C53.541 29.1272 63.6614 34.3269 74.2637 38.5592C75.8299 39.1638 77.3962 39.5266 78.842 40.6149C78.601 40.9777 78.36 41.0986 78.2396 41.3405C74.6251 45.5728 71.2517 49.926 68.3601 54.7629C67.9987 55.2466 67.5168 55.7304 67.6372 56.4559C67.3963 56.4559 67.3963 56.8186 67.3963 56.9395C63.059 61.8974 58.7217 66.8553 54.7459 72.1759C54.2639 72.9015 53.6615 73.5061 53.4206 74.4734C54.3844 74.4734 54.8663 73.7479 55.3483 73.1433C64.6253 63.4694 73.6613 53.6746 82.4564 43.5171C82.6973 43.2752 82.9383 42.9124 83.2997 42.6706C84.625 43.2752 85.9503 43.8798 87.3961 44.4845C85.8298 46.782 84.2636 48.8377 82.8178 51.0143C82.3359 51.8608 81.4925 52.5863 82.2154 53.7956C82.2154 54.2793 81.613 54.642 81.7335 55.4884C83.7817 54.4001 84.7455 52.4654 86.3117 51.0143C87.878 49.5633 89.2033 47.7494 90.649 46.0564C90.89 46.0564 91.131 46.2983 91.2514 46.4192C99.0827 50.2887 107.034 54.1583 114.866 58.0279C115.589 58.3907 116.07 58.8743 116.07 59.7208C116.07 61.0509 116.432 62.502 116.793 63.8322C118.239 69.9993 119.444 76.2873 120.046 82.5753C120.769 89.5889 122.094 96.6024 123.179 103.495C124.022 109.058 125.347 114.499 126.07 119.941C127.516 129.977 129.203 139.893 131.612 149.688C132.817 154.525 133.781 159.362 134.624 164.199C135.588 170.366 136.552 176.654 137.395 182.821C137.757 185.118 138.239 187.537 138.359 189.955C123.42 180.886 108.48 172.3 93.2996 163.836C93.6611 163.594 94.0225 163.231 94.3839 162.868C96.1911 161.176 98.1188 159.603 99.5646 157.669C99.926 157.185 100.408 156.58 99.8056 155.976C99.2032 155.371 98.6007 155.855 98.1188 156.339C97.5164 156.943 97.155 157.911 96.1911 158.152L95.9502 158.032Z" fill="#0ABAEE"/>
<path d="M30.2883 126.47C31.734 127.438 33.1798 128.405 34.7461 129.373C34.7461 130.219 35.3485 130.34 36.0714 130.219C46.9146 137.958 58.8422 143.883 70.0468 151.139C71.9745 152.469 74.0227 153.678 75.9504 154.887C75.4685 155.371 75.107 155.855 74.5046 156.459C72.095 155.008 69.6854 153.678 67.3963 152.227C53.6615 143.883 39.9267 135.661 26.1919 127.317C25.5895 126.954 24.9871 126.35 24.2643 126.108C20.8908 125.019 20.4089 122.359 20.0474 119.336C19.445 112.685 18.9631 105.914 17.9993 99.2627C17.2764 93.7003 16.433 88.0169 15.8306 82.4544C15.1077 76.892 14.6258 71.3294 14.0234 65.7669C13.421 59.9626 12.6981 54.1583 11.6138 48.354C10.65 43.1543 9.92709 38.0755 9.44517 32.7549C8.84276 26.8296 8.11987 21.0253 7.51747 15.1001C7.27651 12.1979 6.67411 9.29575 7.51747 6.51451C20.4089 10.0213 32.216 15.9465 44.264 21.2671C57.5169 27.0715 70.5288 33.3595 83.5407 39.4057C83.5407 39.4057 83.5407 39.5266 83.6612 39.5266C82.5768 40.6149 81.4925 41.8242 80.4082 42.9125C76.4323 46.9029 72.5769 51.1353 68.842 55.2467C68.6011 55.6094 68.3601 56.0931 67.7577 56.0931C67.6372 55.3675 68.1192 54.8839 68.4806 54.4002C71.3721 49.6842 74.7456 45.21 78.36 40.9776C78.601 40.7358 78.7215 40.494 78.9624 40.2521C77.6371 39.1638 75.9504 38.801 74.3842 38.1964C63.7819 34.085 53.6615 28.8853 43.3002 24.0484C32.9389 19.2115 22.457 14.6164 11.6138 10.7468H11.3729C11.3729 10.7468 11.3729 10.6259 11.2524 10.505C11.2524 10.505 11.2524 10.505 11.3729 10.6259C12.2162 16.9139 12.2162 23.2019 13.0596 29.4899C13.7825 35.4152 14.5053 41.2195 14.6258 47.1448C14.7463 52.3445 15.4692 57.6651 15.9511 62.8648C16.1921 65.2833 16.433 67.8227 16.433 70.2411C16.433 73.8688 17.2764 77.2547 17.7583 80.8824C18.2402 84.5101 18.6017 88.1378 19.0836 91.7655C19.927 97.0861 21.0113 102.407 21.8546 107.727C22.5775 112.443 23.6619 117.159 23.5414 121.875C23.5414 122.601 23.5414 122.964 24.3847 123.085C25.951 123.447 27.2763 124.294 28.722 125.019C28.722 125.624 27.8787 126.471 28.722 126.954C29.4449 127.438 29.8064 126.471 30.2883 126.108C30.2883 126.108 30.4088 126.108 30.5293 125.987L30.2883 126.47Z" fill="#FEFEFE"/>
<path d="M95.9502 158.032C96.914 157.79 97.2755 156.822 97.8779 156.218C98.4803 155.734 98.9622 155.25 99.5646 155.855C100.167 156.459 99.6851 156.943 99.3236 157.548C97.8778 159.604 95.9502 161.055 94.143 162.748C93.7815 163.11 93.4201 163.473 93.0586 163.715C108.239 172.18 123.179 180.765 138.118 189.834C137.998 187.295 137.516 184.997 137.155 182.7C136.191 176.533 135.347 170.245 134.383 164.078C133.661 159.241 132.576 154.404 131.371 149.567C128.962 139.772 127.396 129.856 125.829 119.82C124.986 114.257 123.781 108.816 122.938 103.374C121.854 96.3606 120.528 89.468 119.805 82.4544C119.203 76.1664 117.998 69.8784 116.552 63.7113C116.191 62.3811 115.95 60.93 115.829 59.5999C115.829 58.6325 115.348 58.2697 114.625 57.9069C106.793 54.0374 98.8417 50.1679 91.0105 46.2983C90.7695 46.2983 90.5286 46.0565 90.4081 45.9356C91.4523 44.4845 92.7775 44.1217 94.3839 44.8472C101.251 48.1121 107.998 51.6189 115.227 54.1583C116.552 54.642 118.36 54.642 119.203 55.6094C120.167 56.5768 119.444 58.3907 119.685 59.8417C120.528 65.8879 121.372 71.9341 122.094 77.9803C122.576 82.0917 123.058 86.2031 123.661 90.3145C124.384 95.6351 125.227 101.077 126.07 106.397C126.914 112.081 127.877 117.764 128.841 123.447C129.926 129.977 130.89 136.628 131.974 143.158C133.42 151.864 134.986 160.45 136.432 169.156C137.877 177.742 138.841 186.449 141.01 194.913C141.01 195.397 141.01 195.881 141.251 196.848C123.902 185.602 106.191 175.565 88.6009 165.408C90.7695 163.352 92.9381 161.296 95.1068 159.12C95.3478 159.12 95.5888 159.12 95.4683 158.757C95.7093 158.757 95.8297 158.757 95.7092 158.394C95.9502 158.394 96.0707 158.394 95.9502 158.152L95.9502 158.032Z" fill="#FEFEFE"/>
<path d="M144.022 196.969C143.66 192.374 142.335 188.141 141.853 183.667C141.251 178.709 140.407 173.752 139.685 168.794C138.841 163.352 137.877 158.032 136.914 152.59C135.829 146.302 134.745 139.893 133.781 133.484C132.817 127.317 131.733 121.271 130.769 115.104C129.926 109.783 129.082 104.462 128.239 99.1418C127.637 94.9095 127.034 90.7981 126.432 86.5658C125.709 81.9707 125.227 77.2547 124.504 72.6596C123.54 67.0971 122.576 61.4137 121.131 55.9722C121.131 55.7303 121.131 55.4885 121.01 55.2467C122.456 54.8839 123.179 55.3676 123.661 56.8187C124.625 59.9627 125.106 63.2276 125.588 66.4925C126.191 71.3295 127.275 76.0455 128.118 80.7615C129.203 87.0495 130.287 93.3375 131.13 99.7465C132.094 106.76 133.179 113.774 134.263 120.666C134.986 125.624 135.588 130.461 136.311 135.419C137.395 142.07 138.6 148.72 139.685 155.492C141.13 165.045 143.299 174.477 144.745 184.03C145.347 187.537 145.95 191.165 146.432 194.671C146.672 196.243 145.588 197.09 143.901 196.727L144.022 196.969Z" fill="#0ABAEE"/>
<path d="M8.72229 3.73324C9.92709 2.88678 11.0114 3.24959 12.0958 3.49143C18.6017 5.06344 24.9872 7.4819 31.1317 10.0213C46.5532 16.0675 61.8542 22.2345 76.6733 29.7318C87.637 35.1733 98.4803 40.9776 109.203 47.0238C112.456 48.8377 115.829 50.5306 119.082 52.3445C119.685 52.7072 120.287 52.9491 120.649 53.5537C120.167 53.9165 119.564 54.0374 119.082 53.6746C114.263 50.5306 108.962 48.354 103.781 45.9356C78.8419 34.0851 54.023 21.7509 28.4811 11.2305C22.3366 8.69113 16.3126 5.90988 9.8066 4.33788C9.44516 4.33788 9.08373 4.09604 8.72229 3.85419L8.72229 3.73324Z" fill="#0ABAEE"/>
<path d="M168.238 114.015C167.998 114.62 168.6 114.62 168.841 114.862C171.853 117.28 175.347 119.215 178.6 121.271C179.443 121.754 180.287 122.238 180.889 122.964C181.612 123.81 181.853 124.657 181.13 125.624C180.287 126.591 179.443 126.229 178.479 125.624C168.118 119.215 158.6 111.597 148.239 105.309C147.998 105.309 147.757 105.067 147.636 105.067C143.299 101.681 138.721 98.6581 133.902 95.9978C133.54 94.5467 133.299 93.2165 133.299 91.7655C134.745 92.0073 135.709 93.3375 137.155 93.4584C137.155 93.9421 137.636 94.063 137.998 94.063C137.998 94.4258 138.359 94.4258 138.6 94.4258C138.6 94.7886 138.962 94.7886 139.323 94.7886C148.118 100.835 156.913 107.002 166.07 112.564C166.07 113.169 166.431 113.29 167.034 113.29C167.275 113.895 167.757 114.378 168.479 114.136L168.238 114.015Z" fill="#FEFEFE"/>
<path d="M107.637 129.735C109.083 129.977 109.324 130.461 108.721 131.67C107.878 133.484 106.552 134.935 105.227 136.507C101.251 141.102 97.2755 145.697 93.4201 150.413C91.0105 153.315 88.9623 156.459 86.7937 159.483C86.5527 159.845 86.0708 160.329 86.0708 160.934C86.7937 161.659 87.7575 162.143 88.7213 162.627C88.1189 163.231 87.637 163.836 87.0346 164.44C85.1069 163.231 83.2997 162.143 81.3721 160.934C84.1431 157.669 86.9142 154.404 89.8057 151.26C95.5888 144.73 101.492 138.442 106.914 131.67C107.275 131.186 108.119 130.703 107.637 129.856V129.735Z" fill="#FEFEFE"/>
<path d="M149.805 148.358C151.974 150.655 154.022 152.832 156.07 155.129C153.299 157.427 150.528 159.724 147.757 162.143C145.588 159.724 142.215 158.152 142.576 153.92C144.865 152.227 147.275 150.292 149.805 148.358Z" fill="#0ABAEE"/>
<path d="M165.588 134.572C163.058 136.507 160.528 138.321 158.239 139.893C155.588 137.354 153.058 134.935 150.287 132.275C152.697 130.582 155.106 128.889 157.636 127.196C160.287 129.615 162.817 132.033 165.588 134.572Z" fill="#0ABAEE"/>
<path d="M165.588 147.632C163.419 145.576 161.492 143.642 159.323 141.586C161.251 140.135 163.178 138.805 165.106 137.354C166.471 136.306 167.837 136.306 169.202 137.354C170.769 138.563 172.214 139.651 174.022 140.981C171.13 143.279 168.479 145.455 165.708 147.632L165.588 147.632Z" fill="#0ABAEE"/>
<path d="M154.865 168.794C152.937 166.859 151.13 164.924 149.203 162.989C151.853 160.934 154.504 158.757 157.395 156.459C159.323 158.515 161.13 160.45 163.058 162.385C160.287 164.561 157.516 166.617 154.865 168.794Z" fill="#0ABAEE"/>
<path d="M164.263 164.078C166.19 166.133 168.118 167.947 170.046 169.882C167.275 171.696 164.504 173.752 161.733 175.565C159.805 173.752 157.998 171.938 156.19 170.245C158.841 167.947 161.612 166.012 164.383 164.078L164.263 164.078Z" fill="#0ABAEE"/>
<path d="M156.672 141.102C154.383 142.795 152.456 144.246 150.287 145.818C147.757 143.158 145.468 140.619 142.938 137.958C144.986 136.386 146.913 134.935 148.6 133.605C151.371 136.144 153.901 138.563 156.672 141.102Z" fill="#0ABAEE"/>
<path d="M156.19 125.745C153.66 127.559 151.371 129.252 149.082 130.824C146.913 128.526 144.745 126.35 142.456 124.173C144.383 122.843 146.432 121.392 148.6 119.941C149.082 119.578 149.444 119.82 149.805 120.182C151.853 121.996 153.901 123.81 156.07 125.866L156.19 125.745Z" fill="#0ABAEE"/>
<path d="M133.902 95.9978C138.721 98.6581 143.299 101.681 147.636 105.067C145.468 105.672 144.022 107.123 142.335 108.332C141.733 108.816 141.251 109.178 140.528 109.783C139.444 108.574 138.48 107.365 137.395 106.155C138.239 105.43 139.082 104.583 139.926 103.737C140.287 103.253 140.889 102.769 140.287 102.044C139.805 101.439 139.203 102.044 138.721 102.286C137.516 103.132 136.432 104.1 135.106 105.188C134.624 102.044 134.142 99.0209 133.902 95.8769V95.9978Z" fill="#0ABAEE"/>
<path d="M137.998 125.261C137.516 122.238 137.154 119.336 136.673 116.434C136.673 115.829 136.673 115.467 137.155 115.104C138.359 114.136 139.685 113.169 140.889 112.081C143.058 114.015 145.106 115.95 147.275 117.885C145.106 119.578 142.938 121.15 140.769 122.722C140.046 122.359 139.685 121.634 139.082 121.15C138.841 120.908 138.48 120.787 138.239 121.029C137.877 121.271 138.118 121.634 138.239 121.875C138.721 122.48 139.203 122.964 139.685 123.689C139.082 124.173 138.6 124.657 137.998 125.261Z" fill="#0ABAEE"/>
<path d="M157.757 153.799C155.588 151.502 153.54 149.446 151.492 147.148C153.54 145.576 155.588 144.125 157.395 142.916C159.564 144.851 161.733 146.786 164.022 148.841C161.853 150.534 159.805 152.106 157.757 153.799Z" fill="#0ABAEE"/>
<path d="M158.961 155.25C161.13 153.557 163.178 151.985 165.226 150.292C167.154 152.348 168.961 154.404 170.889 156.58C169.082 157.911 167.034 159.603 165.226 160.934C163.058 158.999 161.01 157.185 158.961 155.25Z" fill="#0ABAEE"/>
<path d="M147.757 131.791C145.588 133.605 143.781 135.298 141.974 136.749C138.359 134.693 138.841 130.945 138.359 127.68C138.359 127.075 138.962 126.954 139.323 126.712C139.926 126.229 140.407 125.866 140.769 125.624C143.179 127.68 145.468 129.735 147.877 131.791L147.757 131.791Z" fill="#0ABAEE"/>
<path d="M148.721 147.027C146.552 148.72 144.504 150.534 142.335 152.59C141.371 147.148 140.528 141.949 139.685 136.628C142.817 140.135 145.709 143.521 148.841 147.027L148.721 147.027Z" fill="#0ABAEE"/>
<path d="M154.142 171.817C156.07 173.631 157.877 175.324 159.684 177.137C158.118 178.226 156.431 179.435 155.106 180.402C153.178 178.709 151.371 177.137 149.444 175.444C151.251 173.993 152.817 172.905 154.142 171.938V171.817Z" fill="#0ABAEE"/>
<path d="M147.154 164.682C149.203 166.496 151.13 168.31 153.299 170.245C151.733 171.575 150.287 172.784 148.721 173.993C147.877 173.389 147.516 172.18 146.793 171.817C145.227 170.97 145.468 169.519 144.986 168.31C144.624 167.101 144.986 166.375 145.95 165.65C146.432 165.408 146.913 164.924 147.154 164.682Z" fill="#0ABAEE"/>
<path d="M82.0949 53.6746C81.372 52.5863 82.0949 51.7398 82.6973 50.8934C84.1431 48.7168 85.5889 46.6611 87.2756 44.3636C85.8298 43.7589 84.5046 43.1543 83.1793 42.5497C83.6612 41.8242 84.2636 41.0986 84.866 40.2521C86.9142 41.2195 88.8419 42.066 90.89 43.1543C87.637 46.5402 84.866 50.0469 82.0949 53.6746Z" fill="#FEFEFE"/>
<path d="M148.239 186.086C147.757 183.063 147.275 180.402 146.913 177.742C146.672 176.654 147.636 176.775 148.239 176.291C150.046 178.105 151.492 180.04 153.66 181.491C151.853 182.942 150.046 184.272 148.239 186.086Z" fill="#0ABAEE"/>
<path d="M139.444 110.146C138.239 111.476 137.275 112.443 136.311 113.532C136.07 111.839 135.829 110.146 135.588 108.453C135.588 107.969 135.347 107.606 135.829 107.365C136.432 107.123 136.552 107.606 136.793 107.969C137.636 108.816 138.6 109.541 139.323 110.267L139.444 110.146Z" fill="#0ABAEE"/>
<path d="M77.3962 155.613C78.601 156.339 79.8058 157.064 80.8901 157.79C80.5287 158.394 80.0468 159.12 79.5649 159.724C78.2396 158.878 76.9143 158.032 75.589 157.185C76.0709 156.46 76.6733 155.976 77.2757 155.492L77.3962 155.613Z" fill="#FEFEFE"/>
<path d="M143.901 160.45C144.745 161.296 145.588 162.264 146.432 163.231C145.95 163.957 145.347 164.561 144.504 165.166C144.142 163.473 143.901 162.022 143.66 160.571C143.66 160.571 143.781 160.571 143.901 160.571L143.901 160.45Z" fill="#0ABAEE"/>
<path d="M137.034 93.4584C135.588 93.3375 134.624 91.8864 133.179 91.7655C132.817 91.4027 132.938 90.9191 133.058 90.3144C134.383 91.4028 136.07 92.0073 137.034 93.4584Z" fill="#0ABAEE"/>
<path d="M146.432 175.686C146.994 175.203 146.833 174.356 145.95 173.147C146.191 174.235 146.311 174.961 146.432 175.686Z" fill="#0ABAEE"/>
<path d="M168.238 114.015C167.516 114.136 167.034 113.774 166.793 113.169C167.395 113.169 167.877 113.532 168.238 114.015Z" fill="#0ABAEE"/>
<path d="M137.877 93.9421C137.516 93.9421 137.155 93.9421 137.034 93.3375C137.636 93.0957 137.757 93.3375 137.877 93.9421Z" fill="#0ABAEE"/>
<path d="M166.793 113.169C166.311 113.169 165.949 113.048 165.829 112.443C166.19 112.564 166.672 112.685 166.793 113.169Z" fill="#0ABAEE"/>
<path d="M139.203 94.6677C138.962 94.6677 138.6 94.6677 138.48 94.3049C138.841 94.3049 138.962 94.4258 139.203 94.6677Z" fill="#0ABAEE"/>
<path d="M138.48 94.3049C138.239 94.3049 137.998 94.3049 137.877 93.9421C138.239 93.8212 138.359 93.9421 138.48 94.3049Z" fill="#0ABAEE"/>
<path d="M67.3963 56.8187C67.3963 56.5768 67.3963 56.3349 67.6372 56.3349C67.7577 56.6977 67.6373 56.6977 67.3963 56.8187Z" fill="#FEFEFE"/>
<path d="M95.9502 158.032C95.9502 158.273 95.9502 158.394 95.7092 158.394C95.7092 158.152 95.7092 158.032 95.9502 158.032Z" fill="#0ABAEE"/>
<path d="M95.7092 158.394C95.7092 158.636 95.7093 158.757 95.4683 158.757C95.4683 158.515 95.4682 158.394 95.7092 158.394Z" fill="#0ABAEE"/>
<path d="M95.3478 158.636C95.3478 158.878 95.2273 158.999 94.9863 158.999C94.9863 158.757 95.1068 158.636 95.3478 158.636Z" fill="#0ABAEE"/>
<path d="M30.2883 126.47C30.2883 126.47 30.1679 126.471 30.0474 126.591C29.5655 126.954 29.204 127.922 28.4811 127.438C27.6377 126.954 28.4811 126.108 28.4811 125.503C32.8184 119.941 37.2762 114.378 41.8544 108.937C42.0954 108.695 42.3364 108.453 42.5773 108.211C42.9388 107.848 43.3002 107.244 43.7821 107.727C44.3845 108.211 43.7821 108.695 43.5412 109.058C40.6496 113.29 37.5172 117.401 34.2642 121.392C32.9389 123.085 31.6136 124.657 30.2883 126.35L30.2883 126.47Z" fill="#030607"/>
<path d="M35.9509 130.219C35.228 130.461 34.7461 130.219 34.6256 129.373C36.5533 126.35 38.9629 123.568 41.493 121.029C41.8544 120.666 42.2159 120.062 42.8183 120.545C43.3002 121.029 42.8183 121.392 42.4568 121.755C40.2882 124.536 38.1195 127.438 35.9509 130.219Z" fill="#030607"/>
<path d="M11.1319 11.1096C11.1319 11.1096 11.1319 11.1096 11.0114 10.9887C11.0114 10.9887 11.0114 11.1096 11.1319 11.2305V11.1096Z" fill="#0ABAEE"/>
<defs>
<filter id="filter0_d_2235_3219" x="5" y="19" width="185" height="185" filterUnits="userSpaceOnUse" color-interpolation-filters="sRGB">
<feFlood flood-opacity="0" result="BackgroundImageFix"/>
<feColorMatrix in="SourceAlpha" type="matrix" values="0 0 0 0 0 0 0 0 0 0 0 0 0 0 0 0 0 0 127 0" result="hardAlpha"/>
<feOffset dx="-5" dy="5"/>
<feComposite in2="hardAlpha" operator="out"/>
<feColorMatrix type="matrix" values="0 0 0 0 0 0 0 0 0 0 0 0 0 0 0 0 0 0 1 0"/>
<feBlend mode="normal" in2="BackgroundImageFix" result="effect1_dropShadow_2235_3219"/>
<feBlend mode="normal" in="SourceGraphic" in2="effect1_dropShadow_2235_3219" result="shape"/>
</filter>
</defs>
</svg>
