<svg width="96" height="66" viewBox="0 0 96 66" fill="none" xmlns="http://www.w3.org/2000/svg">
<path fill-rule="evenodd" clip-rule="evenodd" d="M3.71973 39.3628C3.75046 17.5785 23.6017 -0.0461277 48.047 9.06941e-05C72.5 0.038606 92.2974 17.7326 92.2513 39.5168L92.2206 41.7045L92.259 48.2906L92.2974 52.3733C92.2974 54.4069 91.6675 56.271 90.4536 57.7808C89.4088 59.0749 86.9659 61.2472 82.3103 61.2472H81.8724C80.7355 61.2472 79.7982 61.2318 78.7073 61.2164H78.5076C77.0095 61.1933 75.1273 61.1625 71.9852 61.1548H69.7727C64.4287 61.1473 59.0961 61.6502 53.8472 62.6569L53.7857 62.6646C53.0943 62.8186 51.2428 63.2577 50.1596 63.612L48.239 64.2283L46.3031 63.7045C44.5054 63.2115 42.6924 62.7493 42.3697 62.6877C40.718 62.341 34.7411 61.2318 26.6362 61.2241H26.3597C21.7963 61.2318 19.4609 61.278 17.5941 61.3088H17.402C16.1959 61.3319 15.1665 61.355 13.8374 61.355H13.8067C7.92966 61.355 3.82728 57.7346 3.80423 52.5735L3.72741 41.8817L3.71973 39.3628Z" fill="#001689"/>
<path fill-rule="evenodd" clip-rule="evenodd" d="M3.71191 43.4455C3.76569 21.2761 23.6477 5.39236 48.0776 5.43858C72.4998 5.4848 92.3357 21.4302 92.2973 43.6304V43.9847L3.7196 44.1619V43.4609L3.71191 43.4455Z" fill="#FEFEFE"/>
<path fill-rule="evenodd" clip-rule="evenodd" d="M47.9851 6.41664C31.6677 6.41664 17.4246 13.6113 10.0342 25.0735C13.8139 34.4327 29.7471 41.481 48.8301 41.5118C66.8837 41.5426 82.1255 35.2955 86.9654 26.7219C79.8976 14.3277 65.1321 6.44745 48.0696 6.40894H47.9928" fill="url(#paint0_radial_2021_7586)"/>
<path fill-rule="evenodd" clip-rule="evenodd" d="M67.8133 22.6162C65.8927 21.3067 61.5368 18.1022 59.2782 17.4706C55.9056 16.5154 52.1336 19.4503 50.0747 19.8585C48.0235 20.2437 46.5255 17.7941 44.6202 17.7556C43.0838 17.7248 35.6472 20.7136 33.5576 21.4993L38.1286 23.4559C38.7586 23.8641 55.752 27.577 68.8274 23.841L67.8133 22.6085V22.6162Z" fill="#FEFEFE"/>
<path fill-rule="evenodd" clip-rule="evenodd" d="M33.5576 21.4993C35.6472 20.7136 43.0838 17.7248 44.6202 17.7556C45.4499 17.7633 46.2028 18.2409 46.9557 18.7493C45.8801 18.4643 43.9903 17.2857 43.1452 19.2731C42.715 20.2899 41.9929 22.4853 41.1017 22.8011C38.8738 23.9566 33.5576 21.4993 33.5576 21.4993Z" fill="#3EBFEF"/>
<path fill-rule="evenodd" clip-rule="evenodd" d="M53.1936 20.1052C54.9529 19.1423 55.4676 18.3489 55.7442 17.6094C53.4625 18.2333 50.9657 19.8356 49.7442 19.8895C49.3217 19.9049 49.0682 19.8279 48.7532 19.7431C48.661 20.2053 48.2155 21.1143 47.9466 21.6535C47.4242 22.7319 46.2565 23.1941 45.4421 23.8335L45.4268 23.8566C46.848 24.3958 48.0464 25.8594 49.5061 25.6052L50.1745 25.297C50.4433 24.3573 51.1501 21.2144 53.1936 20.0975" fill="#EBF6FC"/>
<path fill-rule="evenodd" clip-rule="evenodd" d="M56.2135 17.486C54.5388 17.9173 52.2955 18.9727 51.0049 19.5504C50.4825 19.7892 51.1355 21.584 51.1969 22.3774C51.666 21.4828 52.4055 20.7601 53.3096 20.313C54.8537 19.4734 55.6681 18.9496 55.8985 18.2948L56.1597 17.6092L56.2135 17.4783V17.486Z" fill="#93D5F5"/>
<mask id="mask0_2021_7586" style="mask-type:luminance" maskUnits="userSpaceOnUse" x="4" y="6" width="88" height="38">
<path d="M4.64147 43.1758L91.3754 42.9909C91.0374 21.6226 71.7546 6.46297 48.0699 6.41675H47.9931C24.2085 6.41675 4.84121 21.6919 4.63379 43.1758H4.64147Z" fill="white"/>
</mask>
<g mask="url(#mask0_2021_7586)">
<path fill-rule="evenodd" clip-rule="evenodd" d="M1.33822 20.6521C1.33822 20.6521 5.44828 20.4287 24.4929 17.2165C33.22 15.7452 45.5733 25.8286 53.0405 24.9196C60.5001 23.9952 71.0557 20.5443 78.7765 20.3286C85.2527 20.1437 91.6444 23.1248 91.6444 23.1248L91.6137 39.3475L1.2998 39.1857L1.33822 20.6521Z" fill="#006F3F"/>
</g>
<mask id="mask1_2021_7586" style="mask-type:luminance" maskUnits="userSpaceOnUse" x="4" y="6" width="88" height="38">
<path d="M4.64147 43.1758L91.3754 42.9909C91.0374 21.6226 71.7546 6.46297 48.0699 6.41675H47.9931C24.2085 6.41675 4.84121 21.6919 4.63379 43.1758H4.64147Z" fill="white"/>
</mask>
<g mask="url(#mask1_2021_7586)">
<path fill-rule="evenodd" clip-rule="evenodd" d="M1.28418 27.6387C1.28418 27.6387 26.1597 27.1534 34.8484 25.3663C42.3234 23.8334 48.8688 27.2304 52.6408 27.1919C56.4128 27.1611 58.4026 24.9966 66.1387 25.1121C75.2577 25.2431 91.6595 28.124 91.6595 28.124L91.6058 39.4398L1.30723 39.2858L1.28418 27.6387Z" fill="#FFEC00"/>
</g>
<mask id="mask2_2021_7586" style="mask-type:luminance" maskUnits="userSpaceOnUse" x="4" y="6" width="88" height="38">
<path d="M4.64147 43.1758L91.3754 42.9909C91.0374 21.6226 71.7546 6.46297 48.0699 6.41675H47.9931C24.2085 6.41675 4.84121 21.6919 4.63379 43.1758H4.64147Z" fill="white"/>
</mask>
<g mask="url(#mask2_2021_7586)">
<path fill-rule="evenodd" clip-rule="evenodd" d="M1.26855 33.5854C1.26855 33.5854 25.637 28.1163 34.7099 26.8452C42.2847 25.7822 49.3064 28.6555 53.0861 28.617C56.8505 28.5861 58.4638 26.9069 66.2076 27.0224C75.3266 27.1534 91.6593 32.376 91.6593 32.376L93.6567 44.4082L1.28392 44.5469L1.26855 33.5931V33.5854Z" fill="#81B82E"/>
</g>
<path fill-rule="evenodd" clip-rule="evenodd" d="M46.1491 65.4454C44.1901 64.9293 42.2311 64.4363 41.8777 64.367C36.253 63.3203 30.5436 62.7994 24.8229 62.811H24.5233C19.5835 62.811 17.056 62.8726 15.0279 62.9111H14.8128C13.5144 62.9342 12.3928 62.9573 10.9485 62.9573H10.9255C4.54911 62.9496 0.10102 59.1135 0.0779726 53.6443L0.00114893 42.2977C-0.0201402 40.9793 0.254674 39.673 0.805233 38.4756C1.35579 37.2782 2.16799 36.2203 3.18165 35.3803C4.54911 34.2326 6.97674 32.8845 10.8179 32.8845H11.4479C12.6002 32.8845 13.5836 32.8999 14.6975 32.9154H14.9203C16.3339 32.9385 18.4696 32.977 22.0649 32.9847H24.408C30.2098 32.9974 35.9998 32.461 41.701 31.3824C43.0328 31.1023 44.3526 30.7682 45.6575 30.381L47.9084 29.6724L50.1593 30.3656C51.3424 30.7354 53.3629 31.213 54.1311 31.367C55.9288 31.7214 62.4895 32.9 71.1552 32.9077H71.4625C76.3946 32.9077 78.9144 32.8614 80.9349 32.8152H80.981C82.3331 32.7921 83.5085 32.7767 85.0373 32.769H85.0987C91.4367 32.7767 95.8848 36.6205 95.9232 42.1128L95.9616 49.0995L96 53.4209C96 55.5855 95.3086 57.5652 94.0026 59.1597C92.8656 60.5309 90.2152 62.8341 85.1832 62.8418H84.7069C83.4624 62.8418 82.456 62.8264 81.2729 62.811H81.0655C79.4214 62.7802 77.3933 62.7493 73.9823 62.7416H71.5854C62.8275 62.7571 56.1977 63.9587 54.3308 64.3285L54.2617 64.3516C53.5088 64.4979 51.4961 64.9832 50.3283 65.3453L48.2464 66L46.1491 65.4454Z" fill="#E52329"/>
<path fill-rule="evenodd" clip-rule="evenodd" d="M47.2097 61.332C47.1789 61.3243 43.4837 60.3537 42.7155 60.1996C40.8333 59.8222 34.0037 58.582 24.8386 58.5666H24.5313C19.5301 58.5743 16.9949 58.6205 14.9514 58.659H14.7209C13.438 58.6898 12.3394 58.7053 10.9566 58.7053H10.9182C8.85161 58.7053 7.0693 58.1429 5.87853 57.1184C5.37368 56.6901 4.97138 56.1533 4.70143 55.548C4.43148 54.9426 4.30078 54.2841 4.31901 53.6212L4.24219 42.2669C4.24219 40.8033 4.803 39.5477 5.8939 38.6388C6.71591 37.9455 8.25238 37.1213 10.826 37.129H11.4406C12.5852 37.129 13.5839 37.1444 14.6441 37.1598H14.8592C18.0418 37.2262 21.2252 37.2493 24.4084 37.2291C30.4911 37.2426 36.5615 36.6803 42.5388 35.5498C43.3992 35.3727 45.5503 34.872 46.9331 34.4329L47.9164 34.1248L48.9075 34.4329C50.3057 34.8565 52.4874 35.3572 53.3018 35.5267C55.1993 35.9119 62.0904 37.1444 71.1402 37.1521L71.4706 37.1598C76.4334 37.1598 78.9762 37.1058 81.0198 37.0673H81.0658C82.4026 37.0365 83.5626 37.0134 85.0453 37.0134H85.0914C87.1426 37.0134 88.9326 37.5834 90.108 38.6002C90.6171 39.036 91.0227 39.5803 91.2952 40.1933C91.5677 40.8064 91.7001 41.4727 91.6829 42.1437L91.7213 49.1226L91.7674 53.4595C91.7674 54.6149 91.414 55.6317 90.7456 56.456C90.085 57.2571 88.487 58.5897 85.1682 58.6051H84.7073L81.4807 58.5666L81.135 58.5589C79.4833 58.5358 77.4321 58.505 73.9981 58.4973H71.5858C65.5163 58.4862 59.4591 59.0458 53.4938 60.1688L53.394 60.1919C51.9321 60.5 50.484 60.8701 49.0534 61.3012L48.1469 61.5785L47.2097 61.332Z" fill="#FEFEFE"/>
<path fill-rule="evenodd" clip-rule="evenodd" d="M84.6604 40.5182H88.3249L88.3018 54.2913H84.7295V53.4516C84.161 54.1218 83.2622 54.5609 81.9715 54.5686C79.2213 54.5686 78.0382 51.6722 77.9921 48.8452V48.6603C77.9767 46.411 79.083 43.5224 82.0791 43.5069C83.2007 43.5069 84.3454 43.792 84.6297 44.3697H84.6604V40.5182ZM61.4596 43.4684H61.7208L61.982 43.4838C63.6798 43.5917 65.4314 44.2619 65.5159 46.619V46.8039L65.5082 54.2527L62.2586 54.245L62.2509 53.4285L62.1357 53.5441L62.0205 53.6596C61.4678 54.2095 60.7247 54.5242 59.9462 54.5377C57.7951 54.5455 56.5045 53.675 56.4891 51.4565C56.4891 49.5847 57.7567 48.7836 59.0935 48.2983L59.4008 48.1904L59.7081 48.0903L60.7298 47.7976L60.991 47.7205C61.6671 47.5048 62.1434 47.266 62.128 46.8347C62.105 46.1414 61.5288 46.0336 60.9603 46.0336H60.8681C59.8694 46.0336 59.1242 46.3186 58.233 46.7653L57.2804 47.266L57.5109 44.6316C58.6402 43.6456 59.9769 43.4761 61.4596 43.4761V43.4684ZM35.3703 43.4453H35.5624L35.9542 43.4607C36.8377 43.4992 37.7979 43.6302 38.3203 43.9614L38.4279 44.0385V47.3354C37.9132 46.8886 36.4228 46.7962 36.008 46.8501C34.9017 47.0273 34.0105 47.6512 34.0105 49.2149C34.0105 50.5013 34.5867 51.5336 35.9311 51.5413C36.9452 51.5413 37.9746 51.3102 38.3511 51.1099L38.4202 51.0714L38.4049 54.1295C38.0822 54.2758 37.3524 54.3606 36.6379 54.4145L36.1693 54.453L35.9388 54.4607L35.5316 54.4761L35.0707 54.4915C31.5368 54.4915 30.3998 51.8956 30.3845 48.9915C30.3691 45.71 31.9978 43.4376 35.378 43.4453H35.3703ZM24.3845 43.4299C24.5382 43.4299 24.6918 43.4299 24.8608 43.4453L25.1067 43.4761L25.3525 43.5147L25.606 43.5609L25.8595 43.6302C27.6495 44.1155 29.5317 45.5868 29.5317 48.876C29.5317 53.1127 26.4357 54.4684 24.4076 54.4684L24.0542 54.4607L23.816 54.4376C21.8186 54.2065 19.2297 52.7275 19.2297 48.8991C19.2373 45.0553 21.8109 43.6918 23.8007 43.4607L24.0465 43.4376L24.3922 43.4299H24.3845ZM73.7284 43.4607C75.4339 43.4607 77.0471 44.5315 77.0625 46.9733L77.0472 54.2681H73.3673L73.3903 48.5139C73.3903 47.1967 73.0523 46.7191 72.0536 46.7191C71.2009 46.7191 70.6401 47.1813 70.6477 48.4754L70.6401 54.2527H66.9602L66.9833 43.7997H70.6554V44.7548L70.7323 44.6547C71.4083 43.6995 72.3071 43.4607 73.713 43.4607H73.7284ZM51.6339 40.4565L55.137 40.4642L55.114 54.2296H51.4572L51.4726 40.4642H51.6262L51.6339 40.4565ZM39.9106 40.4411L43.5213 40.4488V44.8319L43.6058 44.7086C44.2742 43.7534 45.1653 43.5069 46.5635 43.5069C48.2767 43.5069 49.8593 44.5777 49.8746 47.0118L49.8593 54.2219H46.2486V48.5602C46.2486 47.2429 45.9105 46.7731 44.9041 46.7731C44.0591 46.7731 43.5367 47.2583 43.5444 48.5448L43.529 54.2142H39.8875L39.9106 40.4411ZM8.02878 40.3872H11.7009L11.6933 45.14H14.4128L14.4205 40.3949L18.1004 40.4026L18.0696 54.168L14.4051 54.1603V48.8221H11.6933L11.6856 54.1526H7.99805L8.02878 40.3872ZM62.5659 49.3305C62.5659 49.4306 62.443 49.5076 62.2432 49.5693L62.0512 49.6309L61.4366 49.7927L61.0217 49.9236L60.7298 50.0237C60.315 50.1932 59.7618 50.4859 59.7541 51.1792C59.7618 51.7955 60.3995 52.0728 60.7913 52.0728C61.1523 52.0728 61.4596 51.988 61.7132 51.834L61.8207 51.7569C62.2125 51.5258 62.443 51.1022 62.5275 50.4859L62.5428 50.3319C62.5736 50.0237 62.5889 49.7002 62.5659 49.3305ZM82.9088 46.4803C82.2174 46.4803 81.0343 46.9579 81.0343 48.9992C81.0497 51.0174 82.2327 51.495 82.9242 51.495C83.6156 51.495 84.6911 51.0174 84.6911 48.9761C84.6681 46.9425 83.6002 46.4803 82.9088 46.4803ZM24.3692 46.4803C23.5856 46.4803 22.3871 46.9271 22.3948 48.8683C22.3948 50.8095 23.6086 51.2562 24.3922 51.2562C25.1758 51.2562 26.3896 50.8018 26.3743 48.8683C26.3589 46.9271 25.1605 46.4803 24.3769 46.4803H24.3692Z" fill="#001689"/>
<defs>
<radialGradient id="paint0_radial_2021_7586" cx="0" cy="0" r="1" gradientUnits="userSpaceOnUse" gradientTransform="translate(1345.89 -3866.29) rotate(-90) scale(3712.68 1561.46)">
<stop stop-color="#F3FBFF"/>
<stop offset="0.5346" stop-color="#DDF1FB"/>
<stop offset="0.6683" stop-color="#C6E8F9"/>
<stop offset="1" stop-color="#80CFF3"/>
</radialGradient>
</defs>
</svg>
