<svg width="141" height="168" viewBox="0 0 141 168" fill="none" xmlns="http://www.w3.org/2000/svg">
<g clip-path="url(#clip0_2093_8655)">
<path d="M70.5644 167.098C109.224 167.098 140.564 135.746 140.564 97.0717C140.564 58.3975 109.224 27.0459 70.5644 27.0459C31.9045 27.0459 0.564453 58.3975 0.564453 97.0717C0.564453 135.746 31.9045 167.098 70.5644 167.098Z" fill="url(#paint0_linear_2093_8655)"/>
<mask id="mask0_2093_8655" style="mask-type:alpha" maskUnits="userSpaceOnUse" x="0" y="0" width="141" height="168">
<path d="M70.5644 167.489C109.224 167.489 140.564 136.137 140.564 97.4631C140.564 58.789 109.224 0 70.5644 0C31.9045 0 0.564453 58.789 0.564453 97.4631C0.564453 136.137 31.9045 167.489 70.5644 167.489Z" fill="url(#paint1_linear_2093_8655)"/>
</mask>
<g mask="url(#mask0_2093_8655)">
<path d="M122.64 50.2491C128.792 57.0395 133.776 64.997 137.064 73.5911C140.458 82.1852 142.049 91.5219 141.943 100.859C141.731 110.195 139.716 119.532 135.685 128.126C131.761 136.72 125.928 144.36 118.928 150.619C111.822 156.773 103.549 161.548 94.746 164.519C90.2915 166.004 85.7308 167.065 81.1702 167.595C76.6096 168.232 71.943 168.338 67.2763 168.126C48.8218 167.171 30.7915 159.001 17.9582 145.314C11.5946 138.524 6.39762 130.461 3.10974 121.654C-0.178133 112.848 -1.76899 103.405 -1.34475 93.9622C-0.920504 84.5194 1.30671 75.1826 5.23095 66.5885C9.15519 57.9944 14.9886 50.2491 21.9886 43.8832C28.9886 37.6233 37.2613 32.6366 46.2764 29.5597C55.1855 26.4828 64.7309 25.3157 74.0642 26.0584C83.3976 26.8011 92.5187 29.3475 100.791 33.4854C109.064 37.6233 116.488 43.3527 122.64 50.1431V50.2491ZM122.322 50.4613C119.246 47.0662 115.852 43.9893 112.14 41.3368C108.428 38.6843 104.504 36.3501 100.261 34.5464C91.8823 30.939 82.9733 28.9231 73.9582 28.817C55.9279 28.4987 38.2158 35.0769 25.0643 47.1723C11.9128 59.0554 3.64002 76.2436 2.68547 94.0683C2.15517 102.981 3.42792 111.999 6.29156 120.487C9.26125 128.975 13.7158 136.933 19.6552 143.723C25.5945 150.513 32.9128 156.243 41.0795 160.168C49.2461 164.094 58.2612 166.322 67.2763 166.747C71.8369 166.959 76.3976 166.641 80.8521 165.898C85.3067 165.155 89.6551 163.882 93.8975 162.29C102.276 159.107 110.019 154.121 116.488 147.967C123.064 141.813 128.367 134.598 132.291 126.535C132.822 125.58 133.246 124.519 133.67 123.458C134.094 122.397 134.519 121.336 134.943 120.381C135.367 119.32 135.685 118.259 136.004 117.198C136.322 116.137 136.64 115.076 136.958 114.015C138.125 109.665 138.867 105.209 139.291 100.753C140.034 91.7341 138.867 82.6096 136.11 74.0155C134.731 69.6654 132.822 65.5275 130.488 61.6018C128.155 57.6761 125.397 53.9626 122.428 50.5674L122.322 50.4613Z" fill="black"/>
<path d="M94.6987 61.8312C94.6987 62.5747 94.6987 63.3182 94.6987 64.0045C94.6987 64.4048 94.5818 64.8624 94.2892 65.2627C92.8265 67.722 86.0396 71.3824 83.9333 69.209C83.3482 72.2402 81.6514 80.8191 81.0663 83.736C81.4174 85.3946 82.295 92.7152 83.5237 95.0601C79.4866 99.5212 69.3061 110.674 65.0935 115.249C64.9765 115.02 55.9077 94.2594 55.7907 94.0307C56.2003 93.0012 56.9609 91.1138 57.663 89.7412C58.7162 87.5107 59.2427 80.2472 59.2427 80.2472C59.2427 80.19 54.9716 73.6701 54.9131 73.6129C55.6737 61.0877 57.0779 47.4186 57.4875 32.3198C65.7371 29.5745 63.1043 29.3457 73.9869 30.4324C79.0771 30.8327 84.4598 31.2903 84.4598 31.2903C86.3906 36.7236 92.0659 51.9368 94.0552 57.313C94.0552 57.313 94.0552 57.313 94.0552 57.3702C94.9913 58.5712 94.6987 60.2298 94.6987 61.774V61.8312Z" fill="white"/>
<path d="M66.439 79.5039C66.3805 79.7327 66.439 79.6183 66.3219 79.8471C64.8592 85.7951 62.0508 91.4 58.0723 96.0898C57.0776 95.575 56.2585 95.0031 55.7904 94.0308C55.7904 94.1452 55.6734 94.3168 55.6734 94.4312C57.5457 90.0845 58.4818 85.0516 58.6574 80.3046C49.9981 81.2769 46.1366 68.9232 45.9611 62.1745C45.727 56.2837 48.7695 37.8104 48.828 36.5522C49.3546 36.0375 49.4131 36.209 50.4077 35.6371C50.4662 35.6371 50.5247 35.5799 50.5833 35.5227C52.8066 34.6076 60.1786 30.0894 61.8168 30.0322C62.1094 31.0045 62.4604 32.0912 62.2849 33.1206C61.7583 42.2143 59.5935 51.1935 55.9075 59.6008C56.8436 59.6008 57.7797 59.7152 58.7159 59.7724C60.2956 65.2057 56.3755 71.4397 59.1839 76.6443C60.5296 79.1607 64.0402 81.1053 66.439 79.5039Z" fill="#F4C6CC"/>
<path d="M81.2422 84.708C81.5347 86.481 82.9975 94.0304 82.9389 94.7739C82.1783 91.9715 81.4177 86.195 81.2422 84.708Z" fill="#F4C6CC"/>
<path d="M83.3484 70.8104L83.8165 69.209C83.8165 69.209 81.2421 84.0791 81.1836 84.365C81.1836 84.365 82.1782 74.0704 83.2899 70.8104H83.3484Z" fill="#F4C6CC"/>
<path d="M90.1939 68.9805C87.21 70.4675 84.109 69.3236 83.875 69.2664C84.109 69.3236 87.327 70.3531 90.1939 68.9805Z" fill="#F4C6CC"/>
<path d="M94.2306 65.2051C94.2306 65.2051 93.6455 66.8637 90.9541 68.5223C94.4646 66.3489 96.9804 57.9988 91.7147 55.9971C96.3953 57.4269 95.2252 62.7458 94.1721 65.2051H94.2306Z" fill="#F4C6CC"/>
<path d="M81.2422 84.708C81.5347 86.481 82.9975 94.0304 82.9389 94.7739C82.1783 91.9715 81.4177 86.195 81.2422 84.708Z" fill="white"/>
<path d="M83.3484 70.8104L83.8165 69.209C83.8165 69.209 81.2421 84.0791 81.1836 84.365C81.1836 84.365 82.1782 74.0704 83.2899 70.8104H83.3484Z" fill="white"/>
<path d="M90.1939 68.9805C87.21 70.4675 84.109 69.3236 83.875 69.2664C84.109 69.3236 87.327 70.3531 90.1939 68.9805Z" fill="white"/>
<path d="M94.2306 65.2051C94.2306 65.2051 93.6455 66.8637 90.9541 68.5223C94.4646 66.3489 96.9804 57.9988 91.7147 55.9971C96.3953 57.4269 95.2252 62.7458 94.1721 65.2051H94.2306Z" fill="white"/>
<path d="M97.9754 47.018C98.7361 48.6194 94.6989 56.4548 94.3479 56.798C93.9968 57.3699 94.1724 57.6559 93.3533 57.1412C90.4864 54.2815 86.4493 55.9401 84.226 57.7703C83.1728 58.9713 81.9441 60.1152 80.9495 57.8847C80.4814 57.999 78.7262 58.571 78.4921 57.4843H76.7369L80.6569 51.1931L84.343 40.7841C82.6462 34.8932 74.8061 33.4634 68.0191 32.8915C63.4555 32.6055 54.3282 34.4357 50.8762 35.5795C47.4242 36.7234 47.5412 36.2658 43.4456 34.1497C39.3501 32.0336 43.7382 18.7649 43.7382 18.7649C43.7382 18.7649 45.0254 19.2796 46.6636 20.4807C48.3018 21.6817 50.0571 21.1098 50.0571 21.1098C49.004 18.8793 47.6582 14.4182 49.238 11.5586C49.355 11.7302 50.8762 13.3888 51.6368 13.7319C55.4398 14.7614 67.8436 14.0179 71.7052 14.0751C76.6784 13.446 85.3376 16.9347 85.3376 16.9347C90.3693 19.1652 93.2948 23.1115 96.2202 27.2866C97.3904 31.576 97.1563 36.4374 95.167 39.4114C95.167 39.4114 95.8106 40.0405 95.8691 40.1549C98.5605 41.2416 98.2094 45.5882 98.0924 47.0752L97.9754 47.018Z" fill="url(#paint2_linear_2093_8655)"/>
<path d="M71.0029 33.1204C65.3861 31.9765 55.4982 34.0354 50.8176 35.4653C47.3656 36.6091 47.4826 36.1516 43.387 34.0354C39.2915 31.9193 43.6796 18.6506 43.6796 18.6506C43.6796 18.6506 44.9668 19.1653 46.605 20.3664C48.2432 21.5674 49.9985 20.9955 49.9985 20.9955C48.9454 18.765 47.5997 14.304 49.1794 11.4443C49.2964 11.6159 50.8176 13.2745 51.5782 13.6177C55.4398 14.6471 67.785 13.9036 71.6466 13.9608C80.3058 13.9608 88.0289 17.1636 91.832 21.6818C84.694 18.4218 76.7368 16.7633 68.8382 16.8776C62.9288 16.992 56.844 18.0787 51.1687 16.3629C50.3496 18.2503 50.642 20.5952 51.9877 22.1966C49.3549 22.6541 46.6635 22.6541 44.0306 22.1966C41.3392 40.7842 61.4661 28.1446 71.0029 33.1776V33.1204Z" fill="white"/>
<path d="M124.714 262.291C122.49 267.153 122.49 267.21 122.139 267.324C121.086 267.324 119.038 267.095 118.395 266.695C118.395 266.695 115.879 267.61 115.177 267.496C113.07 267.038 111.257 266.867 109.15 266.581C109.15 266.581 106.283 267.896 105.757 267.496C104.177 265.894 103.3 262.005 102.714 260.289C101.252 261.204 97.9168 261.548 96.5126 259.66C96.5126 259.66 96.0445 257.83 96.22 257.43C96.6881 256.114 97.4487 251.596 97.8582 250.567C97.8582 250.567 101.31 244.905 102.48 243.875C103.651 242.846 105.23 240.958 105.23 240.958C104.762 229.748 100.667 193.374 103.475 182.851C102.656 179.362 100.374 169.124 99.6135 165.807L104.236 150.88C105.991 150.765 117.4 150.136 118.863 150.079C118.804 157.057 120.033 178.332 118.863 185.195C121.086 193.831 122.9 231.579 122.724 240.158C126.001 240.158 126.586 257.773 124.772 262.291H124.714Z" fill="white"/>
<path d="M118.804 150.079L118.921 154.826C113.538 160.889 107.395 166.265 100.725 170.897L99.5547 165.864L104.177 150.937C105.932 150.823 117.341 150.193 118.804 150.136V150.079Z" fill="#F4C6CC"/>
<path d="M124.713 262.291C122.49 267.153 122.49 267.21 122.139 267.324C121.086 267.324 119.038 267.095 118.394 266.695C118.394 266.695 115.878 267.61 115.176 267.496C112.836 267.038 113.07 267.095 110.554 266.809C110.964 256.4 114.591 246.22 114.884 235.811C113.07 210.475 105.522 185.367 108.155 159.63L116.346 150.193L118.804 150.079C118.745 157.057 119.974 178.332 118.804 185.195C121.027 193.831 122.841 231.579 122.665 240.158C125.942 240.158 126.527 257.773 124.713 262.291Z" fill="#F4C6CC"/>
<path d="M34.4937 206.472C34.0841 208.302 32.8554 213.506 32.3873 215.451C22.6749 215.222 24.4887 213.22 21.3293 206.472C22.7335 203.04 23.377 203.555 22.3824 199.723C8.57444 188.799 -8.1589 179.877 -14.6533 159.459C-14.6533 159.459 -14.4778 151.51 -11.9035 147.906C-9.32909 144.36 -0.0848046 130.691 -0.0848046 130.691C2.66509 133.208 10.4467 140.414 13.2551 143.102C12.2605 144.36 4.47884 154.255 3.71824 155.227C12.8455 162.776 23.3771 179.877 30.6906 188.456C30.6321 189.142 30.3981 190.744 30.6906 191.373C31.2757 193.661 33.967 204.527 34.4351 206.586L34.4937 206.472Z" fill="white"/>
<path d="M13.3137 142.987C12.5531 143.96 4.42048 154.254 3.95242 154.941C1.90463 154.026 -0.318676 153.511 -2.54199 153.396C1.84613 148.135 4.30347 141.386 4.24496 134.58L13.3137 142.987Z" fill="#F4C6CC"/>
<path d="M30.5149 190.343C28.5256 190.915 26.5948 191.83 24.8981 193.031C17.9356 177.932 4.77121 166.494 -7.45703 155.113C-4.29758 153.74 0.20756 152.367 3.65955 151.853C4.12762 152.367 4.65419 152.882 5.12226 153.34C5.06375 153.454 3.77661 155.055 3.77661 155.055C12.9039 162.605 23.4354 179.705 30.7489 188.284L30.5734 190.286L30.5149 190.343Z" fill="#F4C6CC"/>
<path d="M83.2309 95.5176C83.0553 95.632 82.8211 95.6892 82.6455 95.8035L82.8212 95.632C82.9382 95.632 83.1138 95.5748 83.2309 95.5176Z" fill="white"/>
<path d="M70.6521 49.9925C70.6521 54.2819 67.7852 54.2819 67.7852 49.9925C67.7852 45.703 70.6521 45.703 70.6521 49.9925Z" fill="black"/>
<path d="M54.445 49.1341C54.445 53.4235 51.5781 53.4235 51.5781 49.1341C51.5781 44.8446 54.445 44.8446 54.445 49.1341Z" fill="black"/>
<path d="M56.083 78.989C41.5144 73.8988 47.5993 48.5053 48.7694 36.838C58.0137 33.8068 79.3108 29.6317 84.284 40.6127C73.811 20.0233 56.6681 31.2331 46.0781 23.9124C54.1522 32.6629 69.3058 24.0268 80.3639 35.5225C71.8217 31.2331 61.4073 31.6906 52.397 34.0927C41.1049 39.4116 41.924 26.4861 44.2058 19.5658C53.9767 28.7166 64.6837 12.3023 74.6886 23.2833C66.3805 13.4462 59.0669 22.0251 49.9396 20.9384C48.5939 18.3647 48.3014 15.2763 49.179 12.5311C55.9075 18.136 76.3854 10.9869 87.7945 18.9939C94.8155 22.9401 99.0866 31.4047 95.3421 38.9541C100.198 31.4047 95.8687 22.0251 88.6136 17.6784C75.7418 8.01286 49.2375 18.136 49.2375 9.61426C47.6578 13.2174 47.6578 17.5068 49.8811 20.824C47.4823 20.2521 45.3174 18.7079 43.7962 16.4774C40.6368 22.2538 38.2964 37.9818 48.7109 36.7236C41.3389 61.0877 42.5091 94.0878 77.263 75.8434C70.7686 79.1034 63.1625 80.476 56.083 78.8746V78.989Z" fill="black"/>
<path d="M54.913 60.7441C57.0778 61.0873 59.1842 60.7441 61.1149 59.9434C59.7692 59.7718 58.482 59.7146 57.1363 59.4859C58.4235 56.9122 59.5937 54.1098 59.5352 51.1357C57.7214 54.2241 56.0832 57.3126 54.8545 60.6869L54.913 60.7441Z" fill="black"/>
<path d="M72.8748 44.0447C72.4068 40.6131 66.673 40.4987 66.0879 43.9303C68.3697 42.7864 70.6515 42.8436 72.8748 44.0447Z" fill="black"/>
<path d="M49.9395 42.0993C52.3383 40.8983 54.7957 41.1842 56.785 42.9572C56.8435 39.1825 50.7586 38.439 49.9395 42.0993Z" fill="black"/>
<path d="M126.585 248.451C126.234 245.82 125.415 243.19 123.894 240.959C123.952 241.131 124.011 241.359 124.069 241.531C123.66 241.131 122.724 240.101 122.724 240.101C122.724 229.52 122.724 215.851 122.548 204.985C120.149 186.683 119.447 168.153 118.804 149.394C118.394 165.465 117.458 182.165 120.208 198.122C121.612 212.077 121.203 226.203 122.548 240.216C122.548 240.216 124.069 241.531 124.069 241.588C126.351 248.966 124.713 256.515 123.367 263.893C123.016 267.096 121.729 267.725 119.038 266.925C119.623 266.238 119.974 265.266 119.915 264.179C121.027 264.408 121.846 263.321 121.32 262.292C120.617 262.235 119.798 262.292 119.681 263.035C119.74 263.207 119.798 263.493 119.447 263.607C119.447 263.665 119.447 263.779 119.447 263.836C118.277 265.666 116.756 267.039 114.474 266.581C114.884 266.009 115.059 265.266 114.825 264.637C115.761 264.923 116.873 263.722 115.937 262.807C114.767 262.921 114.591 263.093 114.24 264.179C114.24 264.236 114.357 264.294 114.357 264.351C113.421 266.295 111.315 266.295 109.325 266.581C109.852 265.723 110.027 264.694 109.852 263.722C110.905 264.122 112.017 263.207 111.549 262.063C110.32 261.777 109.559 262.292 109.501 263.55C109.501 263.55 109.618 263.607 109.676 263.665C109.442 265.609 107.278 267.782 105.405 266.41C103.416 263.093 104.235 258.517 103.299 254.742C103.299 254.914 103.182 255.143 103.182 255.372C102.948 254.8 102.187 254.628 101.602 255.372C101.602 256.515 101.953 256.744 103.006 256.344C102.831 257.488 102.655 258.918 102.597 260.347C95.1663 262.807 95.8099 258.117 97.5067 252.912C98.7939 247.708 102.187 244.562 106.4 241.474V241.073L105.113 226.604C103.943 212.477 102.07 197.035 103.474 183.023C102.187 177.418 100.725 170.955 99.3204 165.35C100.257 171.012 101.368 177.532 102.421 183.194C99.9055 202.24 103.123 221.799 104.937 240.845C100.842 244.105 97.7407 247.365 96.6291 252.684C95.0493 258.231 95.0493 263.493 102.597 260.405C101.836 265.552 105.054 271.1 109.208 266.753C110.379 268.011 112.602 268.183 113.948 267.153C115.586 268.583 117.634 268.297 118.862 267.039C126.351 271.957 126.995 252.569 126.527 248.451H126.585Z" fill="black"/>
<path d="M30.6907 189.771C27.2387 190.343 20.9783 193.26 24.0793 197.264C23.3187 197.836 22.6751 198.693 22.3825 199.609C8.80858 187.312 -15.0043 174.73 -13.6586 154.198C-10.5577 145.561 -4.88237 137.955 0.149347 130.291C-5.99403 138.984 -16.1744 148.364 -15.4723 159.574C-11.2597 178.276 7.57991 189.142 22.3825 199.609C21.973 200.752 21.973 202.011 22.6166 203.097C20.0422 204.985 19.6912 208.931 23.1431 210.018C21.0368 212.591 24.5473 215.222 27.5313 214.822C26.3611 213.163 23.6697 212.591 23.8452 210.304C25.2494 210.876 26.7121 211.276 28.2333 211.276C26.8877 210.246 25.3665 209.446 23.9623 208.588C21.5049 207.673 22.09 205.499 22.9676 203.555C24.4303 205.328 26.8877 205.728 29.111 206.071C25.8345 203.612 22.0315 202.068 24.4303 197.607C25.776 199.094 27.8238 200.066 29.8131 200.238C22.4996 195.491 24.7814 193.946 30.7492 189.771H30.6907Z" fill="black"/>
<path d="M88.9646 60.5156C87.4434 60.0009 84.2839 60.6872 85.6296 62.8033C86.3317 63.6612 87.5604 63.6612 88.0285 64.5763C88.4966 65.8917 86.6828 66.2921 85.5711 66.4065C89.7252 67.2644 89.9008 63.5469 86.5658 62.117C86.7413 60.5728 89.2571 62.2314 90.3103 61.0304C91.8315 59.4862 89.7252 57.4844 88.087 58.5139C89.7252 57.942 91.1294 60.4584 89.0231 60.4584L88.9646 60.5156Z" fill="black"/>
<path d="M98.6188 43.0148C97.7997 39.0685 93.7626 38.325 89.901 38.8397C91.0712 36.2661 90.6616 33.1205 88.8479 30.8899C88.3798 33.6352 88.6139 36.2661 89.55 38.8969C88.7309 39.0113 87.9703 39.1829 87.2682 39.4117C88.3798 36.0373 87.0926 31.8622 84.1672 29.7461C84.9863 33.0061 85.981 36.2661 87.0926 39.4688C86.098 39.7548 85.1619 40.1552 84.4013 40.4983C100.257 36.0373 99.6719 46.4464 93.9966 57.1986C93.6456 56.7982 93.2945 56.3979 92.768 56.1119C93.7626 55.54 93.9966 54.053 93.119 53.2523C92.5924 54.1102 92.3584 54.9109 92.2999 55.8831C91.8318 55.6544 91.2467 55.54 90.6031 55.4828C91.6563 54.7965 92.2414 53.3095 91.6563 52.1656C90.7787 53.1379 90.2521 54.2246 90.2521 55.4828C89.667 55.4828 88.9649 55.4828 88.3214 55.7116C89.4915 55.0253 90.1351 53.3095 89.4915 52.0512C88.6139 53.1951 88.0873 54.3961 87.9702 55.826C87.0341 56.0547 86.1565 56.3979 85.4544 56.9126C86.0395 55.3684 86.2735 53.5954 86.0395 52.6232C84.9864 54.3389 83.8747 60.6301 81.1248 58.1137C82.9971 57.2558 84.1087 55.1968 84.1087 53.1951C82.646 54.7965 81.1248 58.3996 78.5504 57.5989C80.5982 56.6267 82.178 54.5677 82.4705 52.3944C81.7099 54.5105 80.0132 56.2263 77.8483 56.9126C81.1833 51.994 83.5236 46.332 84.3428 40.4983C82.1194 46.7895 79.311 52.8519 75.625 58.4568C76.6196 58.3424 77.5558 58.0565 78.4334 57.6561C78.726 58.5712 80.0717 58.6284 80.7738 58.228C81.7684 60.6873 84.4598 59.5435 85.2204 57.1986C98.7358 50.507 95.6349 72.8122 83.9332 68.6943H83.9917C83.8162 68.6371 83.4651 68.6943 83.2896 68.6943C80.4812 77.3876 79.9547 86.8816 83.0556 95.5177C80.9493 87.0532 81.4758 78.4171 84.1087 69.9525C91.5393 72.5834 97.7412 62.975 93.9966 57.313C97.0976 53.2523 99.2624 48.2193 98.5017 43.072L98.6188 43.0148Z" fill="black"/>
<path d="M64.2747 66.8065C64.6257 67.4928 65.3864 68.0075 66.2055 68.0075C65.8544 66.8065 65.1523 65.9486 64.0992 65.2051C63.9237 65.6626 63.9822 66.1774 64.1577 66.6349C60.9982 67.7216 57.7218 67.264 54.4453 67.55C57.4877 68.8082 61.7003 69.2086 64.2162 66.8065H64.2747Z" fill="black"/>
<path d="M7.34605 156.943C6.40992 156.028 5.35675 155.341 4.18659 154.827C8.10665 151.624 11.2076 147.563 13.3139 143.045C9.33531 146.191 6.11733 150.251 4.01103 154.769C1.78772 153.797 -0.728112 153.454 -3.12695 153.054C6.23438 154.655 9.51082 162.49 14.8351 169.125C19.9253 175.645 25.2496 182.393 30.8079 188.513C23.7284 177.646 15.6542 167.009 7.34605 157V156.943Z" fill="black"/>
<path d="M115.995 111.074L98.4429 162.948L98.7355 170.04C97.7993 171.87 95.342 184.738 94.8154 186.969L92.9431 187.827L94.8154 188.456L93.5868 198.922L90.7784 199.379L90.0763 203.898L62.9869 204.584C62.9869 204.584 62.9284 205.556 62.8699 205.613L48.4183 205.327L48.3013 204.355L46.6631 204.241L28.9351 203.269L29.5202 198.464L28.8765 198.064V197.549L28.2329 187.026L29.6372 185.539L27.7649 180.963L28.2329 156.313V155.799C27.8234 153.854 24.781 136.582 24.3129 134.18C24.1374 126.173 24.7224 108.5 25.3075 100.493C30.3978 98.7203 43.6792 94.1449 48.5939 92.4863L51.1097 94.4881L53.8011 102.895L65.2102 113.476L76.7949 106.155L89.9592 95.1172C94.4059 97.0046 106.342 102.152 110.964 104.154C115.469 105.984 116.639 105.641 115.878 111.131L115.995 111.074Z" fill="#A58367"/>
<path d="M75.9173 114.62L62.2849 125.086L37.3018 102.266L29.4032 105.126L26.7703 132.178L27.5895 152.31L24.3715 134.18C24.196 126.173 24.781 108.5 25.3661 100.493L41.0464 95.1172C46.3121 101.294 58.5404 114.734 64.1572 120.797L75.5078 113.533L75.8588 114.677L75.9173 114.62Z" fill="#845E41"/>
<path d="M57.7796 87.2242C57.7796 87.2242 50.2905 91.5709 49.998 93.5154C49.7055 95.46 46.6045 107.413 46.6045 107.413L53.5085 102.552L65.7953 113.933L74.1619 107.814C74.1619 107.814 76.0342 115.878 76.2682 115.363C79.1351 109.815 86.7997 101.866 90.3102 97.0614C89.8421 93.0579 88.0869 86.5951 82.8212 84.9365C82.2361 85.0509 69.0717 100.15 69.0717 100.15C68.7207 101.637 67.7845 104.782 67.4334 106.212C58.7157 99.8638 59.4178 96.7182 57.7796 87.2814V87.2242Z" fill="#FFF7F2"/>
<path d="M68.4287 103.01L72.1732 99.3496L74.806 107.528C73.5774 108.214 66.0298 113.648 64.7426 113.533C64.7426 113.533 53.8016 102.781 53.5676 102.495C53.3335 102.209 56.1419 100.436 56.1419 100.436C58.0142 101.923 64.8596 107.013 66.3223 108.729L68.4872 103.01H68.4287Z" fill="#C6B7AF"/>
<path d="M35.1369 197.149C39.5835 198.121 43.9716 199.093 48.4182 200.065C41.9238 199.15 35.3709 198.75 28.935 197.606L28.3499 187.083L29.7541 185.596L27.8818 181.02L28.3499 156.37V155.855C28.2914 155.855 28.4669 155.855 28.4669 155.855C32.4455 178.961 23.8448 183.422 51.8702 183.937C45.3173 185.882 38.3548 185.653 31.5093 185.31C34.2592 188.112 38.6474 188.455 42.5674 188.627C39.4665 189.942 36.0145 190.457 32.621 190.057C31.0413 192.745 31.2168 196.863 35.1369 197.149Z" fill="#845E41"/>
<path d="M24.8393 137.554C21.4459 141.443 14.0153 149.164 10.0367 152.367C9.15909 152.825 8.22297 154.941 7.63789 155.684C7.63789 155.684 8.457 156.656 8.51551 156.714C8.69103 157.343 9.04206 158.601 9.51012 159.059C10.8558 159.287 11.792 161.518 11.4409 162.49C6.05816 165.293 2.25513 167.637 -4.41481 170.554C-8.5689 172.327 -7.92536 172.899 -12.4305 171.812C-16.4091 169.296 -17.8132 161.346 -19.51 158.029C-19.627 152.825 -13.7761 143.159 -11.7284 139.956C-4.06376 128.117 9.68565 109.472 25.3074 102.209C25.0148 106.956 24.6638 115.764 24.4882 120.511C24.4882 120.511 24.4883 123.999 24.0202 126.973C23.5522 129.947 24.8978 137.497 24.8978 137.497L24.8393 137.554Z" fill="#FFF7F2"/>
<path d="M8.57406 154.254C8.39854 154.598 7.63794 155.684 7.63794 155.684C7.63794 155.684 8.45706 156.656 8.51557 156.714C8.69109 157.343 9.04212 158.601 9.51018 159.059C10.8559 159.287 11.792 161.518 11.441 162.49C6.05822 165.35 2.25519 167.58 -4.41476 170.554C-12.0793 165.864 -5.81901 167.923 -8.27636 164.034C-12.2549 157.972 -16.409 156.714 -7.1062 153.454C-5.40945 152.996 -5.702 151.166 -7.39874 150.88C-8.15935 150.708 -9.09542 150.708 -9.6805 150.136C-10.6751 149.221 -9.85603 147.391 -8.51034 146.876C-6.28702 146.019 -3.59564 147.506 -1.48934 146.247C0.61696 144.989 -0.494713 142.816 -2.30847 141.901C-7.04765 136.01 7.69647 139.956 9.3347 144.131C14.1324 135.838 19.164 127.66 24.4883 119.71C24.4298 120.854 24.4883 123.084 24.0203 126.916C23.5522 129.833 24.8979 137.44 24.8979 137.44L16.7652 146.247C15.478 147.62 9.27616 152.424 8.57406 154.14V154.254Z" fill="#C6B7AF"/>
<path d="M128.341 200.981C128.341 202.697 127.522 202.697 126.411 204.184C125.299 205.671 121.32 205.728 121.32 205.728L120.501 202.239C116.874 199.093 110.262 200.294 105.874 202.182C105.406 202.411 100.667 203.383 101.662 205.327C98.7361 204.756 100.316 200.466 100.257 198.693C100.14 198.236 98.7946 194.461 98.7361 193.66C98.7361 192.859 101.193 191.43 100.491 190.572C99.6137 189.599 100.023 187.598 100.316 186.969L101.369 184.795C99.7308 185.024 98.0925 182.107 99.6722 180.735C100.082 180.163 100.842 178.904 100.842 178.847C100.842 178.733 98.4436 169.754 98.4436 169.754L97.917 163.291C100.784 154.655 112.954 118.967 116.055 109.701L116.406 109.587C120.15 115.649 120.384 123.37 121.379 131.149C121.437 132.922 123.251 146.991 122.959 147.62C122.549 155.112 123.368 169.925 121.496 177.017C121.32 178.676 122.9 180.22 123.134 180.677C124.655 183.937 120.969 187.769 121.496 190.572C122.373 191.944 125.826 192.688 127.288 193.317C128.575 194.06 127.464 196.806 127.581 197.835C127.581 198.064 128.224 199.322 128.224 201.038L128.341 200.981Z" fill="#FFF7F2"/>
<path d="M104.996 186.397C108.331 186.912 111.724 187.426 114.767 188.913C107.746 189.485 104.996 195.662 109.501 200.981C106.926 202.068 100.842 202.754 101.661 205.328C98.7353 204.756 100.315 200.466 100.256 198.693C100.139 198.236 98.7938 194.461 98.7353 193.66C98.7353 192.86 101.193 191.43 100.491 190.572C100.022 190 99.964 189.428 100.023 189.028C99.7885 187.312 100.9 186.111 101.427 184.795C101.427 184.795 101.544 184.624 100.959 184.795C100.374 184.91 99.4959 183.937 99.2034 182.908C98.6183 181.307 100.725 179.877 100.959 178.905C100.959 178.79 98.5598 169.811 98.5598 169.811L98.0332 163.348L102.304 150.651C101.31 160.431 101.661 170.383 103.357 180.106C107.746 179.076 113.362 178.275 116.756 181.879C112.836 183.423 108.974 184.967 105.054 186.511L104.996 186.397Z" fill="#C6B7AF"/>
<path d="M134.309 418.999V415.911C134.25 415.911 134.25 415.739 134.25 415.739C131.149 411.678 127.288 408.19 121.847 408.19C122.022 407.847 122.256 407.217 122.373 406.874C118.453 405.387 114.474 403.9 110.496 402.585C110.73 401.956 110.964 401.269 111.14 400.583C110.496 400.297 109.326 399.897 108.682 399.611C108.214 400.583 107.687 401.555 107.278 402.47C105.347 400.469 102.597 399.554 100.491 397.895C102.246 397.38 104.353 396.637 104.294 394.463C105.23 380.222 104.294 365.981 103.65 351.798C103.533 350.025 103.475 348.137 103.182 346.364C100.842 337.214 99.9644 327.777 99.0283 318.454C98.0336 289.229 97.6826 257.144 94.5231 228.147C93.47 221.57 94.5232 209.102 90.3691 204.241C90.6031 204.241 90.9541 204.183 91.1296 204.183C91.1296 202.696 91.0126 201.152 90.8956 199.665C91.7732 199.551 93.8211 200.123 94.1721 199.093C94.5817 195.49 95.6933 191.887 95.1667 188.227C94.9327 187.826 94.1721 187.826 93.7625 187.712C94.1721 187.598 94.6987 187.483 95.1082 187.369C96.0444 182.622 97.5071 175.072 98.3262 170.383C98.5017 173.414 100.374 176.388 100.374 179.305C98.5017 181.02 97.6241 184.452 101.018 185.024C100.081 186.682 99.2623 188.856 100.432 190.572C96.2199 192.516 98.7942 196.062 99.6718 198.922C99.4963 201.209 98.6772 204.927 101.72 205.785L101.895 205.384C101.486 204.469 102.305 203.497 103.124 203.097C108.682 201.095 114.65 200.637 120.384 202.01C120.91 203.326 121.144 204.813 121.378 206.242C124.655 206.014 129.219 204.584 128.985 200.58C128.868 199.322 128.107 198.407 128.575 197.206C131.383 192.745 125.064 191.201 121.73 190.572C121.964 186.397 126.118 182.736 122.432 178.79C122.139 178.104 122.139 177.303 122.256 176.445C125.416 157.285 125.064 127.145 116.581 109.587C116.932 108.386 116.581 107.127 116.113 105.984C115.82 105.011 112.368 104.153 111.549 103.639C105.172 101.008 97.0975 97.7479 90.7201 95.2314C90.0765 90.37 87.7947 84.5363 82.0608 83.9072C77.9068 88.7686 73.7527 93.63 69.6571 98.5486C67.6093 100.55 67.4923 103.353 67.3168 105.984C60.1203 101.065 58.6575 93.6872 58.8331 85.623C55.4396 87.6819 51.9876 89.9125 49.6472 93.1153C49.6472 93.1153 48.7111 92.3717 48.7111 92.3145C41.9241 94.4307 31.8607 97.8622 25.0152 100.093C25.0152 100.722 24.8982 101.351 24.8982 102.037C10.5637 108.5 0.500278 121.311 -8.15895 133.779C-13.0737 140.7 -18.749 147.906 -19.4511 156.599C-22.0255 159.459 -17.9884 162.433 -17.5203 165.521C-16.4086 170.84 -11.0844 175.358 -5.70163 171.984C0.149199 169.01 6.05855 166.15 11.4998 162.433C6.52662 165.178 -1.02097 168.381 -6.28672 170.783C-14.0683 174.615 -15.2384 165.578 -17.8713 160.374C-21.9669 154.941 -6.2867 157.057 -3.41979 156.084C-0.845428 155.97 3.30868 155.512 5.88304 155.57C6.2926 156.256 6.46814 157.171 6.11709 157.915C0.792833 157.915 -4.53145 158.143 -9.85571 158.944C-3.88786 160.488 2.6651 160.145 8.45742 158.029C7.87234 158.029 7.34575 157.972 6.76067 157.972C7.11172 157.514 7.28724 156.942 7.34575 156.313C7.46277 156.313 7.52129 156.199 7.5798 156.142C8.74996 156.713 7.98934 158.429 9.101 159.058C6.05857 159.344 3.19162 160.145 0.500235 161.632C3.60118 162.376 7.11173 161.403 9.33505 159.173C10.7392 159.63 11.7924 160.946 11.4413 162.433C12.1434 160.717 10.6807 159.287 9.27648 158.544C8.74991 157.629 9.15951 156.084 7.93083 155.455C7.93083 155.455 7.93083 155.455 7.93083 155.398C8.92548 154.883 9.56904 153.739 9.80307 152.653C15.8879 149.278 19.2229 142.93 24.3132 138.469C25.0153 144.932 26.5949 151.681 27.1215 158.201C27.1215 158.944 27.063 179.591 27.063 181.078L27.1215 181.249L28.9938 185.767C28.8183 185.996 27.7066 187.14 27.5311 187.312C27.9992 190.4 28.3502 195.605 28.2332 198.75C28.6428 198.807 29.1694 198.922 29.5789 198.979C29.1108 200.637 28.7013 202.353 28.4087 204.069H28.4672C22.9675 237.927 20.6857 276.818 16.0635 310.905C10.9148 338.987 5.64902 371.872 1.72897 400.068C1.43643 400.183 0.792776 400.411 0.500235 400.526C0.67576 401.155 0.90985 401.898 1.14388 402.528C-2.83468 403.9 -6.81328 405.33 -10.7333 406.817C-10.6163 407.217 -10.3823 407.789 -10.2067 408.132C-15.648 408.132 -19.5096 411.621 -22.6106 415.682C-22.6106 416.254 -22.669 418.999 -22.7275 419.514C-11.4354 419.743 1.84598 419.8 13.1381 419.8L13.3721 419.571L16.7656 416.254C16.7656 416.826 16.7656 419.342 16.7656 419.857C21.3877 419.857 27.4726 419.685 32.0947 419.628C31.9777 414.481 31.8022 408.99 31.6267 403.843C35.4297 403.786 36.2489 399.496 36.834 396.637C36.951 396.637 37.0095 396.637 37.1265 396.637C37.068 396.637 36.951 396.637 36.8925 396.637C37.0095 396.122 37.068 395.664 37.4775 395.321C41.2806 393.491 39.8179 388.344 38.6477 385.255C41.1051 371.872 48.6526 317.825 50.3494 303.756C53.2748 285.683 56.2002 267.61 58.8331 249.48C58.7161 238.728 58.482 216.766 58.3065 205.956C60.0617 205.956 61.7585 205.899 63.5137 205.785C63.5137 205.442 63.5138 205.041 63.4552 204.698C72.4655 205.384 81.5343 205.099 90.4861 204.241C94.0551 208.93 92.9434 215.393 93.704 220.884C89.2574 217.452 84.6352 214.249 81.7683 209.388C82.4119 215.336 88.1457 219.625 93.7625 220.998C93.821 222.313 93.938 223.572 93.9966 224.887C88.6138 221.17 83.8746 216.995 79.545 212.19C81.8269 218.367 87.5021 223.343 93.9966 225.002C94.6987 235.925 95.8688 249.137 96.2784 260.061C97.3901 283.281 96.3954 307.874 98.9113 330.98C99.6719 336.527 100.725 342.075 101.895 347.565C102.831 363.065 103.592 378.793 102.773 394.349C103.007 397.895 82.1194 399.439 78.4919 400.297L78.3163 399.382H78.2578L78.4334 400.297C77.4972 400.297 75.5664 401.212 75.6249 399.668C75.5079 398.581 75.4494 397.437 75.6249 396.408C82.4704 396.522 91.3052 394.177 93.353 386.971C89.7255 392.004 83.6406 393.834 77.9068 395.436C77.9068 395.15 77.9068 394.921 77.7898 394.635C80.3641 393.548 82.7045 391.489 83.4651 388.801C81.3588 390.231 79.545 391.661 77.4387 393.034C77.4387 392.919 77.4387 392.805 77.3802 392.69H77.1461C77.1461 392.919 77.2047 393.034 77.2632 393.148C76.5026 393.72 75.742 394.177 74.9229 394.749C72.7581 390.517 75.5665 386.171 74.5718 381.709C72.407 362.264 70.3007 341.217 68.4284 321.886C66.1466 297.35 64.5083 272.586 59.5351 248.393C66.5561 289.858 67.3753 335.441 72.5825 377.248C72.6995 378.678 73.1676 382.682 73.2261 384.112C73.2261 388.058 71.2368 392.576 73.9867 396.122C73.8697 401.898 74.1037 402.756 80.3056 401.613C80.0716 407.561 79.896 413.852 79.7205 419.8C83.8746 419.857 90.9541 419.971 95.1082 420.029C95.1082 419.514 95.1082 416.997 95.1082 416.425L98.5017 419.743L98.7357 419.971C110.145 419.971 123.134 419.914 134.601 419.685V419.113L134.309 418.999ZM90.4276 201.209C90.3691 201.839 90.252 202.468 90.1935 203.097C89.1404 203.097 88.0872 203.04 87.0925 203.04C87.6776 201.896 87.6191 200.58 87.0925 199.436C88.1457 199.436 89.7254 199.436 90.7786 199.494C90.6616 200.066 90.6031 200.637 90.4861 201.209H90.4276ZM125.825 193.374C127.054 193.717 128.224 194.689 127.58 195.948C126.937 195.147 125.767 194.975 124.947 195.662C125.357 196.634 126.118 197.149 127.171 197.092C127.112 197.435 127.054 197.778 127.112 198.121C125.591 196.634 123.485 195.948 121.378 196.119C123.309 197.949 125.708 198.807 127.756 200.466C128.458 203.726 124.538 205.213 121.847 205.67C121.495 204.412 121.203 203.154 120.559 202.067C121.027 202.182 121.495 202.296 121.964 202.41C116.347 197.949 104.996 198.807 101.544 205.156C100.081 204.183 100.315 202.182 100.608 200.695C103.533 200.866 106.459 200.237 108.975 198.693C106.166 198.007 103.124 198.636 100.725 200.123C100.901 199.322 100.959 198.407 100.725 197.663C104.177 196.863 107.453 195.89 110.73 194.518C107.161 193.603 103.182 194.804 100.608 197.263C94.4647 186.568 121.144 191.887 125.942 193.317L125.825 193.374ZM116.464 109.758C119.623 115.706 119.448 122.798 120.618 129.261C122.724 145.389 122.783 161.689 121.027 177.818C121.027 179.19 122.315 180.448 122.841 181.478C124.128 184.509 120.91 187.483 121.495 190.572C114.65 189.199 107.219 188.284 100.491 190.514C99.4963 188.856 100.315 186.854 101.252 185.367C104.996 184.338 108.507 183.422 112.251 182.507C108.682 181.135 104.353 182.164 101.603 184.738V184.624C99.5548 184.909 98.3262 182.221 100.023 180.906C101.486 179.877 101.427 177.989 100.784 176.559C97.273 166.493 99.7889 159.859 103.358 150.422C107.512 137.954 112.544 122.341 116.405 109.816L116.464 109.758ZM97.039 98.3198L98.0921 98.8345C92.7094 101.065 87.7362 104.153 83.0555 107.642C83.6406 106.899 90.2521 98.5486 90.9542 97.6335C90.8371 96.89 90.7786 96.0893 90.603 95.3458C92.7093 96.3752 94.8157 97.3475 96.9805 98.3198H97.039ZM69.2475 100.607C73.5186 95.4601 78.2578 90.656 82.6459 85.5658C87.6191 87.1672 88.6138 92.6005 89.1989 97.1187C85.6299 101.694 80.2471 108.5 76.7951 113.018C75.5664 108.443 74.1623 102.895 72.8751 98.377C71.4124 99.7496 69.8912 101.065 68.4284 102.438C68.604 101.809 68.8965 101.179 69.2475 100.55V100.607ZM64.6839 119.309C60.1203 114.505 55.381 109.758 50.2323 105.526C51.344 104.668 52.5727 103.639 53.6843 102.781C57.2533 107.242 61.2319 111.303 65.386 115.192C68.3114 112.904 71.3539 110.502 74.0452 107.928L75.3324 113.476C71.7634 115.134 68.0189 117.251 64.6254 119.252L64.6839 119.309ZM56.4927 100.55C59.1256 102.838 61.817 105.069 64.5083 107.299C64.8594 109.186 65.269 111.074 65.6785 112.961H65.62C61.934 109.301 58.0724 105.755 53.9184 102.609C54.796 101.923 55.6736 101.179 56.5512 100.493L56.4927 100.55ZM68.6624 103.296C69.8911 102.266 71.1198 101.237 72.3485 100.207C72.9336 102.724 73.4602 105.24 74.0452 107.699C71.5879 109.015 69.2475 110.559 66.9072 112.103C67.3752 109.701 68.1359 105.698 68.6624 103.238V103.296ZM51.461 93.5728C53.0993 91.5139 55.3225 89.7981 57.4874 88.3111C57.6044 95.6317 60.5298 102.438 67.3168 106.155C67.1998 107.928 67.0242 110.502 66.8487 112.275L65.737 113.018C65.503 111.017 65.3275 109.072 65.0934 107.07C62.285 104.325 59.4181 101.637 56.5512 98.9489C53.6258 101.122 50.2323 103.639 47.3069 105.869C48.5941 101.751 49.1207 97.1759 51.5195 93.5728H51.461ZM42.9188 94.6023C44.8495 93.9159 46.7803 93.1724 48.7111 92.5433L49.6472 93.2868C48.0675 95.8033 47.5409 98.7773 46.6633 101.523C45.6687 98.9489 43.9135 96.604 41.5146 95.1742L42.9188 94.6595V94.6023ZM20.3931 140.414C16.239 143.902 13.4306 148.421 9.80307 152.367C10.1541 150.022 8.86697 147.791 7.05321 146.362C7.40426 148.992 8.63293 151.337 7.93083 153.968C7.63829 151.509 5.76604 149.45 3.48422 148.421C4.12781 150.194 5.23942 151.623 6.00003 153.282C3.89373 150.594 0.0906768 149.05 -3.30281 150.022C-0.02634 150.765 2.8991 152.252 5.06391 154.712C-1.13797 154.597 -7.33982 154.998 -13.4832 155.169C-15.414 155.341 -17.5788 155.055 -19.2755 156.37C-17.6958 148.02 -11.9035 141.386 -6.93029 134.752C1.96297 122.512 11.3828 109.987 24.8398 102.209C24.2547 114.105 22.5579 126.115 24.1376 138.011C22.7919 138.641 21.5047 139.499 20.3931 140.414ZM28.6428 156.942C27.5896 150.022 26.2439 142.587 25.3663 135.667C24.0791 124.114 25.4833 112.389 25.7759 100.779C28.8183 99.6924 38.5307 96.2037 41.3976 95.117C42.1582 97.9766 44.0304 100.493 46.4293 102.209C45.7272 104.783 45.0836 107.528 44.44 110.159C45.6687 109.186 48.8866 106.613 50.1153 105.64C54.4449 111.245 59.4182 116.45 64.3914 121.483C68.0189 119.081 71.9974 116.45 75.3909 113.705C75.5664 114.391 75.859 115.764 76.0345 116.45C77.8483 114.162 79.7205 111.874 81.5343 109.587C87.5606 106.784 93.2359 103.238 98.2091 98.8917C103.007 101.122 109.911 104.268 114.767 106.441C116.054 111.36 111.725 117.479 110.73 122.512C106.517 135.209 101.427 150.88 97.5071 163.577C99.2038 171.012 95.9274 179.362 94.4647 186.74C93.8211 186.968 92.1243 187.026 92.5338 187.998C87.9702 189.828 83.1725 191.201 78.3163 192.173C83.2895 193.546 89.1403 191.887 92.6508 188.112C93.0019 188.341 94.055 188.455 94.4061 188.57C94.4061 191.887 93.6455 195.261 93.1189 198.521C71.8804 197.663 50.8174 201.667 29.6959 197.32C29.8714 194.918 29.5204 190.228 29.1693 187.826L30.281 186.625C35.6637 189.542 42.1582 190.629 48.1845 189.428C42.5092 188.341 36.2488 187.369 30.5735 186.339L30.8661 186.053C30.749 185.767 30.398 184.967 30.281 184.624C38.0626 187.083 46.8974 186.74 54.3865 183.422C46.3123 184.509 38.2967 184.852 30.164 184.28L28.7013 180.734C28.7013 177.932 28.6428 159.287 28.6428 156.942ZM73.5186 201.209C73.5186 200.752 73.3431 200.352 73.1091 199.951C73.3431 199.951 73.6356 199.951 73.8697 199.894C73.6356 200.294 73.5186 200.752 73.5186 201.267V201.209ZM60.2373 203.669C57.0193 203.554 53.8014 203.554 50.5834 203.669C50.5834 202.811 50.5249 201.896 50.4079 201.038C53.7428 201.152 57.0193 201.209 60.3543 201.038C60.2958 201.896 60.2372 202.754 60.1787 203.669H60.2373ZM48.4186 200.923C48.3015 202.067 48.1845 203.154 48.126 204.298C42.0412 203.097 35.8393 202.811 29.6374 202.925C29.6374 202.868 29.6374 202.811 29.6374 202.754C29.6374 201.495 29.6374 200.237 29.6374 198.979C35.8978 199.951 42.1582 200.58 48.4186 200.923ZM4.47883 402.985C9.74458 403.614 15.0103 403.957 20.3346 404.186C16.356 407.275 11.9679 408.418 6.87766 408.132C6.23406 406.76 5.12242 404.358 4.47883 402.985ZM2.37254 401.898C2.31404 401.67 2.197 401.498 2.1385 401.269H2.31405C2.48957 401.441 2.60655 401.727 2.78207 401.956C2.66506 401.956 2.48955 401.956 2.43104 401.898H2.37254ZM12.2605 418.198C1.61195 418.198 -11.0844 418.198 -21.6744 418.427V417.169C-10.1482 418.256 1.67043 418.256 13.2551 417.226L12.2605 418.141V418.198ZM18.1698 418.37V417.341C22.3824 418.256 26.712 418.256 30.9246 417.283C30.9246 417.741 30.9246 418.141 30.9246 418.599C27.2385 418.542 21.9143 418.427 18.2283 418.37H18.1698ZM31.2171 406.531C31.1001 409.848 30.9831 413.737 30.8661 416.997C26.712 416.025 22.3239 416.025 18.1698 416.94C18.1698 415.853 18.1698 413.509 18.1698 412.422C17.2337 413.337 14.3667 416.082 13.3721 417.055C1.72891 416.025 -10.2068 416.025 -21.8499 417.055V416.082C-19.1 412.022 -15.5895 408.647 -10.4408 408.247C-9.50466 410.363 -7.86643 412.937 -5.17504 412.937C-0.728411 412.651 3.4842 411.278 7.63829 409.848C3.65973 410.42 -1.13798 411.507 -5.11655 411.507C-7.04732 411.335 -7.98343 409.391 -8.74404 407.789C-8.56851 407.789 -8.45154 407.675 -8.27601 407.618C-7.98347 409.619 -5.81863 411.45 -3.71234 410.763C-4.94101 409.448 -5.99419 408.418 -7.39839 407.332C-4.06341 406.131 -0.494406 404.758 2.84057 403.443C2.84057 403.443 2.60653 402.756 2.54803 402.756C2.72355 402.756 2.95758 402.814 3.13311 402.871C4.06924 404.415 5.59049 406.703 6.52662 408.247C6.52662 408.247 6.52661 408.247 6.58511 408.247L7.63829 409.905L6.93615 408.361C11.9679 410.935 18.0528 408.99 20.8027 404.243C24.3132 404.358 27.8237 404.415 31.2757 403.957C31.2757 404.815 31.2171 405.73 31.1586 406.588L31.2171 406.531ZM33.3235 396.179C33.499 395.607 33.616 394.749 33.967 394.235C34.6691 394.406 35.3127 394.521 36.0148 394.635C35.6053 395.15 35.4883 395.836 35.3712 396.408C34.6692 396.351 33.9671 396.236 33.3235 396.179ZM37.302 393.606C37.0679 393.72 36.4829 394.006 36.1903 394.406C32.0362 392.119 25.4248 392.176 23.0845 387.715C27.6482 390.174 32.6213 392.462 37.8871 392.862C37.77 393.205 37.5945 393.434 37.302 393.606ZM57.6629 227.06C57.6629 227.175 57.4874 248.851 57.4289 248.908C57.4874 249.022 56.9608 252.111 56.9023 252.34H56.6682L55.9077 255.657H56.3172C51.5195 284.024 46.4293 313.879 43.0943 342.247C42.2167 348.309 39.4083 375.933 37.0094 381.195C35.2542 384.912 39.4083 388.744 37.9456 392.576C31.9777 390.917 26.712 387.715 21.3293 384.741C19.574 391.833 28.5843 393.034 33.616 394.063C33.265 394.578 33.2064 395.436 33.0309 396.008C27.2971 394.864 11.6169 393.891 8.74996 388.973C10.6222 395.607 26.712 396.98 32.8554 396.866V397.209C32.7969 397.209 32.9724 397.209 32.9724 397.209L33.0894 396.808C33.85 396.808 34.5521 396.694 35.3127 396.637C34.7861 398.982 34.4936 402.299 31.4511 402.528C31.4511 402.413 31.4511 402.299 31.4511 402.184C31.4511 402.299 31.4511 402.413 31.4511 402.585C22.4409 403.786 13.1966 402.871 4.18629 402.07C3.71822 401.212 3.30863 400.297 2.84057 399.439L2.37254 399.611C5.94155 370.671 11.3828 340.588 17.1751 311.992C21.0367 284.139 23.4355 254.913 26.0684 226.889C31.8607 224.601 36.6584 219.797 38.7062 214.021C34.6106 218.424 30.515 222.599 26.0684 226.66L26.5364 221.398C31.3341 218.482 35.1372 213.906 37.0679 208.759C33.1479 212.591 29.7544 216.709 26.5364 221.112C27.297 216.079 27.0045 208.759 28.5257 203.897C35.0202 204.641 41.5731 204.87 48.0675 204.183C48.0675 204.641 48.0675 205.098 48.009 205.499C51.2855 205.67 54.6205 205.728 57.897 205.67L57.6044 226.832L57.6629 227.06ZM58.1309 204.813C58.1309 204.755 57.9554 204.755 57.9554 204.755C54.913 204.755 51.8706 204.755 48.8282 204.984C48.7697 203.669 48.6526 202.296 48.4771 200.981C49.1206 200.981 49.7058 201.038 50.3494 201.038C50.2909 202.067 50.2323 203.04 50.1738 204.069C53.6258 204.241 57.1363 204.183 60.5883 204.069C60.5883 203.097 60.4713 202.067 60.4128 201.095C61.1734 201.095 61.9925 201.038 62.7531 200.981C62.5776 202.296 62.5191 203.669 62.4606 204.984C60.9979 204.927 59.5351 204.87 58.0724 204.87L58.1309 204.813ZM69.7741 203.726C67.6093 203.955 65.386 204.183 63.2212 204.527C63.1627 203.326 63.0457 202.124 62.9287 200.866C66.0296 200.695 69.072 200.237 72.1729 200.008C71.6464 201.152 71.6464 202.41 72.1729 203.554C71.3538 203.611 70.5347 203.669 69.7156 203.726H69.7741ZM73.2261 203.497C73.4016 203.097 73.5186 202.639 73.5771 202.239C73.5771 202.639 73.7526 203.097 73.9282 203.44C73.6941 203.44 73.4601 203.44 73.2261 203.44V203.497ZM76.6781 203.268C76.093 203.268 75.4494 203.326 74.8644 203.383C75.3909 202.239 75.3324 200.923 74.8058 199.837C76.1515 199.722 77.4972 199.665 78.7844 199.608C78.2578 200.752 78.1993 202.067 78.7259 203.211C78.0238 203.211 77.3217 203.211 76.6781 203.268ZM83.6406 203.097C82.3534 203.097 81.0662 203.097 79.8376 203.154C80.3056 202.01 80.3056 200.695 79.7205 199.551C81.1247 199.551 82.5874 199.436 83.9916 199.436C83.4066 200.58 83.4066 201.896 83.9916 203.04C83.8746 203.04 83.7576 203.04 83.6991 203.04L83.6406 203.097ZM84.9278 203.04C85.4543 201.896 85.4543 200.58 84.9278 199.436C85.3373 199.436 85.7469 199.436 86.1564 199.436C85.5713 200.58 85.5713 201.896 86.1564 203.04C85.7469 203.04 85.3958 203.04 84.9863 203.04H84.9278ZM76.9707 394.635C77.0877 394.635 77.2047 394.521 77.3217 394.521C77.3217 394.749 77.3802 395.035 77.4387 395.264C76.7366 395.493 76.093 395.664 75.3909 395.893C75.3909 395.55 75.2154 395.264 75.0398 395.035C75.6834 394.978 76.3856 394.807 76.9707 394.578V394.635ZM97.9166 398.524C98.6772 398.353 99.4378 398.124 100.198 397.952C100.549 400.869 104.353 402.585 107.044 402.814C106.342 404.243 105.23 406.703 104.528 408.19C95.6933 409.677 93.1189 403.557 86.1564 400.64C90.0765 400.068 93.9965 399.439 97.9166 398.524ZM83.5236 400.983C84.0501 400.926 84.6352 400.812 85.1618 400.755C91.4807 404.872 95.5178 412.365 104.411 408.304L103.709 409.848L104.762 408.19C104.762 408.19 104.762 408.19 104.821 408.19C106.166 406.016 107.922 403.385 109.209 401.212H109.384C109.092 401.956 108.799 402.699 108.565 403.443C111.9 404.758 115.469 406.131 118.804 407.332C117.4 408.418 116.405 409.505 115.177 410.763C117.224 411.45 119.448 409.619 119.74 407.618C119.857 407.618 120.033 407.732 120.15 407.789C119.331 409.391 118.453 411.335 116.522 411.507C112.544 411.507 107.746 410.42 103.767 409.848C107.922 411.221 112.134 412.594 116.581 412.937C119.272 412.937 120.852 410.306 121.847 408.247C126.995 408.647 130.506 412.079 133.256 416.082V417.055C121.612 415.968 109.677 415.968 98.0336 416.997C97.039 416.025 94.1721 413.28 93.2359 412.365C93.2359 413.451 93.2359 415.796 93.2359 416.94C89.0818 416.082 84.6937 416.025 80.5396 416.997C80.4226 411.964 80.2471 406.531 80.0715 401.498C81.2417 401.327 82.4119 401.212 83.582 401.041L83.5236 400.983ZM80.5396 418.542C80.5396 418.141 80.5396 417.684 80.5396 417.283C84.6937 418.256 89.0233 418.256 93.2359 417.341V418.37C90.0765 418.37 83.7576 418.484 80.5981 418.542H80.5396ZM116.288 418.198C111.315 418.198 104.119 418.141 99.2038 418.198L98.2677 417.283C109.852 418.256 121.671 418.256 133.197 417.226V418.484C128.985 418.427 120.501 418.313 116.288 418.256V418.198Z" fill="black"/>
</g>
</g>
<defs>
<linearGradient id="paint0_linear_2093_8655" x1="0.564453" y1="97.0717" x2="140.67" y2="97.0717" gradientUnits="userSpaceOnUse">
<stop stop-color="#A25A9F"/>
<stop offset="0.6" stop-color="#693068"/>
<stop offset="1" stop-color="#501D50"/>
</linearGradient>
<linearGradient id="paint1_linear_2093_8655" x1="0.564453" y1="97.4632" x2="140.67" y2="97.4632" gradientUnits="userSpaceOnUse">
<stop stop-color="#A25A9F"/>
<stop offset="0.6" stop-color="#693068"/>
<stop offset="1" stop-color="#501D50"/>
</linearGradient>
<linearGradient id="paint2_linear_2093_8655" x1="41.6319" y1="-30.3064" x2="98.0924" y2="-30.3064" gradientUnits="userSpaceOnUse">
<stop stop-color="#EB6B2C"/>
<stop offset="1" stop-color="#D2681A"/>
</linearGradient>
<clipPath id="clip0_2093_8655">
<rect width="140" height="167.489" fill="white" transform="translate(0.564453)"/>
</clipPath>
</defs>
</svg>
