<svg width="359" height="958" viewBox="0 0 359 958" fill="none" xmlns="http://www.w3.org/2000/svg">
<path d="M267.6 121.88C267.6 123.614 267.6 125.348 267.6 126.949C267.6 127.882 267.334 128.949 266.667 129.883C263.334 135.619 247.867 144.155 243.067 139.087C241.734 146.156 237.867 166.163 236.534 172.966C237.334 176.834 239.334 193.907 242.134 199.375C232.934 209.779 209.734 235.789 200.134 246.46C199.867 245.926 179.2 197.508 178.934 196.975C179.867 194.574 181.6 190.172 183.2 186.971C185.6 181.769 186.8 164.829 186.8 164.829C186.8 164.696 177.067 149.49 176.934 149.357C178.667 120.146 181.867 88.2677 182.8 53.0547C201.6 46.6523 195.6 46.1188 220.4 48.6531C232 49.5868 244.267 50.6538 244.267 50.6538C248.667 63.3252 261.6 98.805 266.134 111.343C266.134 111.343 266.134 111.343 266.134 111.476C268.267 114.277 267.6 118.145 267.6 121.747V121.88Z" fill="white"/>
<path d="M203.2 163.095C203.066 163.628 203.2 163.362 202.933 163.895C199.6 177.767 193.2 190.838 184.133 201.776C181.866 200.575 180 199.241 178.933 196.974C178.933 197.241 178.666 197.641 178.666 197.908C182.933 187.771 185.066 176.033 185.466 164.962C165.733 167.23 156.933 138.419 156.533 122.68C156 108.941 162.933 65.8588 163.067 62.9244C164.267 61.7239 164.4 62.1241 166.666 60.7903C166.8 60.7903 166.933 60.6569 167.067 60.5235C172.133 58.3894 188.933 47.8521 192.666 47.7188C193.333 49.9863 194.133 52.5205 193.733 54.9214C192.533 76.1293 187.6 97.0703 179.2 116.678C181.333 116.678 183.466 116.944 185.6 117.078C189.2 129.749 180.266 144.288 186.666 156.426C189.733 162.294 197.733 166.829 203.2 163.095Z" fill="#F4C6CC"/>
<path d="M236.934 175.233C237.6 179.368 240.934 196.975 240.8 198.709C239.067 192.173 237.334 178.701 236.934 175.233Z" fill="#F4C6CC"/>
<path d="M241.733 142.821L242.8 139.086C242.8 139.086 236.933 173.765 236.8 174.432C236.8 174.432 239.066 150.423 241.6 142.821H241.733Z" fill="#F4C6CC"/>
<path d="M257.334 138.553C250.534 142.021 243.467 139.353 242.934 139.22C243.467 139.353 250.8 141.754 257.334 138.553Z" fill="#F4C6CC"/>
<path d="M266.533 129.749C266.533 129.749 265.2 133.617 259.066 137.485C267.066 132.417 272.8 112.943 260.8 108.274C271.466 111.609 268.8 124.014 266.4 129.749H266.533Z" fill="#F4C6CC"/>
<path d="M236.934 175.233C237.6 179.368 240.934 196.975 240.8 198.709C239.067 192.173 237.334 178.701 236.934 175.233Z" fill="white"/>
<path d="M241.733 142.821L242.8 139.086C242.8 139.086 236.933 173.765 236.8 174.432C236.8 174.432 239.066 150.423 241.6 142.821H241.733Z" fill="white"/>
<path d="M257.334 138.553C250.534 142.021 243.467 139.353 242.934 139.22C243.467 139.353 250.8 141.754 257.334 138.553Z" fill="white"/>
<path d="M266.533 129.749C266.533 129.749 265.2 133.617 259.066 137.485C267.066 132.417 272.8 112.943 260.8 108.274C271.466 111.609 268.8 124.014 266.4 129.749H266.533Z" fill="white"/>
<path d="M275.066 87.334C276.8 91.0687 267.599 109.342 266.799 110.142C265.999 111.476 266.4 112.143 264.533 110.943C258 104.274 248.8 108.142 243.733 112.41C241.333 115.211 238.533 117.879 236.266 112.677C235.199 112.943 231.2 114.277 230.666 111.743H226.666L235.599 97.0709L244 72.7953C240.133 59.0568 222.266 55.7223 206.799 54.3884C196.399 53.7215 175.6 57.9898 167.733 60.6574C159.866 63.3251 160.133 62.258 150.799 57.3229C141.466 52.3877 151.466 21.4429 151.466 21.4429C151.466 21.4429 154.399 22.6434 158.133 25.4444C161.866 28.2455 165.866 26.9116 165.866 26.9116C163.466 21.7097 160.4 11.3059 164 4.63672C164.266 5.03687 167.733 8.90497 169.466 9.70526C178.133 12.1062 206.4 10.3722 215.2 10.5056C226.533 9.03835 246.266 17.1747 246.266 17.1747C257.733 22.3766 264.4 31.58 271.066 41.3169C273.733 51.3206 273.2 62.6582 268.666 69.5941C268.666 69.5941 270.133 71.0613 270.266 71.328C276.399 73.8623 275.6 83.9994 275.333 87.4673L275.066 87.334Z" fill="url(#paint0_linear_2093_9051)"/>
<path d="M213.6 54.9221C200.8 52.2545 178.267 57.0563 167.6 60.3908C159.733 63.0585 160 61.9914 150.667 57.0563C141.333 52.1211 151.333 21.1763 151.333 21.1763C151.333 21.1763 154.267 22.3768 158 25.1778C161.733 27.9788 165.733 26.645 165.733 26.645C163.333 21.4431 160.267 11.0392 163.867 4.37012C164.133 4.77027 167.6 8.63837 169.333 9.43866C178.133 11.8395 206.267 10.1056 215.067 10.239C234.8 10.239 252.4 17.7084 261.067 28.2456C244.8 20.6428 226.667 16.7747 208.667 17.0415C195.2 17.3082 181.333 19.8425 168.4 15.841C166.533 20.2426 167.2 25.7113 170.267 29.4461C164.267 30.5131 158.133 30.5131 152.133 29.4461C146 72.7954 191.867 43.3178 213.6 55.0555V54.9221Z" fill="white"/>
<path d="M336 589.386C330.933 600.724 330.933 600.857 330.133 601.124C327.733 601.124 323.066 600.59 321.6 599.657C321.6 599.657 315.866 601.791 314.266 601.524C309.466 600.457 305.333 600.057 300.533 599.39C300.533 599.39 294 602.458 292.8 601.524C289.2 597.789 287.2 588.719 285.866 584.718C282.533 586.852 274.933 587.652 271.733 583.251C271.733 583.251 270.666 578.982 271.066 578.049C272.133 574.981 273.866 564.444 274.8 562.043C274.8 562.043 282.666 548.838 285.333 546.437C288 544.036 291.6 539.634 291.6 539.634C290.533 513.491 281.2 428.66 287.6 404.118C285.733 395.981 280.533 372.106 278.8 364.37L289.333 329.557C293.333 329.29 319.333 327.823 322.666 327.689C322.533 343.962 325.333 393.58 322.666 409.586C327.733 429.727 331.866 517.76 331.466 537.767C338.933 537.767 340.266 578.849 336.133 589.386H336Z" fill="white"/>
<path d="M322.534 327.689L322.8 338.76C310.534 352.899 296.534 365.437 281.334 376.241L278.667 364.503L289.2 329.69C293.2 329.423 319.2 327.956 322.534 327.823V327.689Z" fill="#F4C6CC"/>
<path d="M335.999 589.386C330.933 600.724 330.933 600.857 330.133 601.124C327.733 601.124 323.066 600.59 321.599 599.657C321.599 599.657 315.866 601.791 314.266 601.524C308.933 600.457 309.466 600.59 303.733 599.923C304.666 575.648 312.933 551.906 313.599 527.63C309.466 468.542 292.266 409.987 298.266 349.964L316.933 327.956L322.533 327.689C322.399 343.962 325.199 393.58 322.533 409.586C327.599 429.727 331.733 517.76 331.333 537.767C338.799 537.767 340.133 578.849 335.999 589.386Z" fill="#F4C6CC"/>
<path d="M130.4 459.205C129.467 463.473 126.666 475.611 125.6 480.146C103.466 479.612 107.6 474.944 100.4 459.205C103.6 451.202 105.066 452.402 102.8 443.466C71.3331 417.989 33.1999 397.182 18.3999 349.564C18.3999 349.564 18.7998 331.024 24.6665 322.621C30.5332 314.351 51.5998 282.473 51.5998 282.473C57.8664 288.341 75.5998 305.148 81.9998 311.417C79.7332 314.351 61.9998 337.426 60.2664 339.694C81.0664 357.3 105.067 397.182 121.733 417.189C121.6 418.79 121.067 422.524 121.733 423.992C123.067 429.327 129.2 454.67 130.266 459.471L130.4 459.205Z" fill="white"/>
<path d="M128.933 465.741L125.6 480.013C125.6 480.013 123.066 480.013 119.866 479.746C116.533 474.01 102 459.205 114.8 456.804C108 453.069 106.8 437.864 117.466 444.266C111.733 437.997 114 427.06 121.733 423.592C124 433.195 130.666 455.87 128.8 465.607L128.933 465.741Z" fill="#F4C6CC"/>
<path d="M82.1333 311.15C80.4 313.418 61.8666 337.427 60.8 339.027C56.1333 336.893 51.0667 335.693 46 335.426C56 323.155 61.6 307.416 61.4666 291.543L82.1333 311.15Z" fill="#F4C6CC"/>
<path d="M121.333 421.591C116.8 422.925 112.4 425.059 108.533 427.86C92.6665 392.647 62.6665 365.97 34.7998 339.427C41.9998 336.226 52.2665 333.025 60.1331 331.824C61.1998 333.025 62.3998 334.225 63.4665 335.292C63.3331 335.559 60.3999 339.294 60.3999 339.294C81.1999 356.9 105.2 396.782 121.867 416.789L121.466 421.457L121.333 421.591Z" fill="#F4C6CC"/>
<path d="M241.467 200.442C241.067 200.709 240.533 200.843 240.133 201.109L240.533 200.709C240.8 200.709 241.2 200.576 241.467 200.442Z" fill="white"/>
<path d="M212.8 94.2694C212.8 104.273 206.267 104.273 206.267 94.2694C206.267 84.2657 212.8 84.2657 212.8 94.2694Z" fill="black"/>
<path d="M175.866 92.2694C175.866 102.273 169.333 102.273 169.333 92.2694C169.333 82.2657 175.866 82.2657 175.866 92.2694Z" fill="black"/>
<path d="M179.6 161.895C146.4 150.024 160.266 90.8018 162.933 63.5917C184 56.5224 232.533 46.7855 243.866 72.395C220 24.3772 180.933 50.5202 156.8 33.4472C175.2 53.8548 209.733 33.714 234.933 60.5239C215.466 50.5202 191.733 51.5873 171.2 57.1893C145.466 69.5939 147.333 39.4494 152.533 23.3101C174.8 44.6514 199.2 6.37054 222 31.98C203.066 9.03819 186.4 29.0456 165.6 26.5113C162.533 20.5091 161.866 13.3064 163.866 6.90408C179.2 19.9756 225.866 3.30274 251.866 21.9763C267.866 31.1797 277.6 50.9203 269.066 68.5269C280.133 50.9203 270.266 29.0456 253.733 18.9085C224.4 -3.63315 164 19.9756 164 0.101562C160.4 8.50467 160.4 18.5084 165.466 26.2446C160 24.9107 155.066 21.3094 151.6 16.1075C144.4 29.5791 139.066 66.2593 162.8 63.3249C146 120.146 148.666 197.108 227.866 154.559C213.066 162.161 195.733 165.363 179.6 161.628V161.895Z" fill="black"/>
<path d="M176.933 119.346C181.866 120.146 186.667 119.346 191.067 117.478C188 117.078 185.067 116.945 182 116.411C184.933 110.409 187.6 103.873 187.466 96.9375C183.333 104.14 179.6 111.343 176.8 119.212L176.933 119.346Z" fill="black"/>
<path d="M217.867 80.398C216.8 72.3951 203.734 72.1283 202.4 80.1312C207.6 77.4636 212.8 77.597 217.867 80.398Z" fill="black"/>
<path d="M165.6 75.8631C171.066 73.062 176.666 73.729 181.2 77.8638C181.333 69.0606 167.466 67.3266 165.6 75.8631Z" fill="black"/>
<path d="M340.267 557.108C339.467 550.972 337.6 544.836 334.133 539.634C334.267 540.035 334.4 540.568 334.533 540.968C333.6 540.035 331.467 537.634 331.467 537.634C331.467 512.958 331.467 481.079 331.067 455.737C325.6 413.054 324 369.838 322.533 326.089C321.6 363.569 319.467 402.517 325.733 439.731C328.933 472.276 328 505.222 331.067 537.9C331.067 537.9 334.533 540.968 334.533 541.102C339.733 558.308 336 575.915 332.933 593.121C332.133 600.59 329.2 602.058 323.067 600.19C324.4 598.59 325.2 596.322 325.067 593.788C327.6 594.321 329.467 591.787 328.267 589.386C326.667 589.253 324.8 589.386 324.533 591.12C324.667 591.52 324.8 592.187 324 592.454C324 592.587 324 592.854 324 592.987C321.333 597.256 317.867 600.457 312.667 599.39C313.6 598.056 314 596.322 313.467 594.855C315.6 595.522 318.133 592.721 316 590.587C313.333 590.853 312.933 591.254 312.133 593.788C312.133 593.921 312.4 594.055 312.4 594.188C310.267 598.723 305.467 598.723 300.933 599.39C302.133 597.389 302.533 594.988 302.133 592.721C304.533 593.654 307.067 591.52 306 588.853C303.2 588.186 301.467 589.386 301.333 592.321C301.333 592.321 301.6 592.454 301.733 592.587C301.2 597.122 296.267 602.191 292 598.99C287.467 591.254 289.333 580.583 287.2 571.78C287.2 572.18 286.933 572.713 286.933 573.247C286.4 571.913 284.667 571.513 283.333 573.247C283.333 575.915 284.133 576.448 286.533 575.514C286.133 578.182 285.733 581.517 285.6 584.851C268.667 590.587 270.133 579.649 274 567.511C276.933 555.374 284.667 548.038 294.267 540.835V539.901L291.333 506.155C288.667 473.21 284.4 437.197 287.6 404.518C284.667 391.446 281.333 376.374 278.133 363.303C280.267 376.507 282.8 391.713 285.2 404.918C279.467 449.334 286.8 494.951 290.933 539.368C281.6 546.97 274.533 554.573 272 566.978C268.4 579.916 268.4 592.187 285.6 584.985C283.867 596.989 291.2 609.927 300.667 599.79C303.333 602.724 308.4 603.125 311.467 600.724C315.2 604.058 319.867 603.391 322.667 600.457C339.733 611.928 341.2 566.711 340.133 557.108H340.267Z" fill="black"/>
<path d="M121.733 420.257C113.867 421.591 99.5998 428.393 106.666 437.73C104.933 439.064 103.466 441.065 102.8 443.199C71.8665 414.522 17.5998 385.177 20.6665 337.293C27.7332 317.152 40.6665 299.412 52.1331 281.539C38.1331 301.813 14.9332 323.688 16.5332 349.831C26.1332 393.447 69.0665 418.79 102.8 443.199C101.866 445.867 101.866 448.801 103.333 451.335C97.4665 455.737 96.6665 464.94 104.533 467.475C99.7332 473.477 107.733 479.612 114.533 478.679C111.867 474.811 105.733 473.477 106.133 468.141C109.333 469.475 112.666 470.409 116.133 470.409C113.066 468.008 109.6 466.141 106.4 464.14C100.8 462.006 102.133 456.937 104.133 452.402C107.466 456.537 113.066 457.471 118.133 458.271C110.666 452.536 102 448.934 107.466 438.53C110.533 441.998 115.2 444.266 119.733 444.666C103.067 433.595 108.267 429.994 121.867 420.257H121.733Z" fill="black"/>
<path d="M254.533 118.812C251.067 117.612 243.866 119.213 246.933 124.148C248.533 126.149 251.333 126.148 252.4 128.283C253.467 131.35 249.333 132.284 246.8 132.551C256.266 134.552 256.667 125.882 249.067 122.547C249.467 118.946 255.2 122.814 257.6 120.013C261.066 116.412 256.267 111.743 252.533 114.144C256.267 112.81 259.467 118.679 254.667 118.679L254.533 118.812Z" fill="black"/>
<path d="M276.533 77.9975C274.666 68.7941 265.466 67.0601 256.666 68.2606C259.333 62.2584 258.399 54.9223 254.266 49.7204C253.199 56.1228 253.733 62.2584 255.866 68.394C254 68.6607 252.266 69.0609 250.666 69.5944C253.2 61.7248 250.266 51.9879 243.599 47.0527C245.466 54.6555 247.733 62.2584 250.266 69.7278C247.999 70.3947 245.866 71.3284 244.133 72.1287C280.266 61.7248 278.933 86.0005 266 111.076C265.2 110.143 264.4 109.209 263.2 108.542C265.466 107.208 266 103.74 264 101.873C262.8 103.874 262.266 105.741 262.133 108.009C261.066 107.475 259.733 107.208 258.266 107.075C260.666 105.474 262 102.006 260.666 99.3387C258.666 101.606 257.466 104.14 257.466 107.075C256.133 107.075 254.533 107.075 253.066 107.608C255.733 106.008 257.2 102.006 255.733 99.072C253.733 101.74 252.533 104.541 252.266 107.875C250.133 108.409 248.133 109.209 246.533 110.409C247.866 106.808 248.4 102.673 247.866 100.406C245.466 104.407 242.933 119.079 236.666 113.211C240.933 111.21 243.466 106.408 243.466 101.74C240.133 105.474 236.666 113.877 230.799 112.01C235.466 109.743 239.066 104.941 239.733 99.8723C238 104.807 234.133 108.809 229.2 110.409C236.8 98.9386 242.133 85.7337 244 72.1287C238.933 86.8008 232.533 100.939 224.133 114.011C226.399 113.744 228.533 113.077 230.533 112.143C231.2 114.278 234.266 114.411 235.866 113.477C238.133 119.213 244.266 116.545 246 111.076C276.8 95.4706 269.733 147.49 243.066 137.886H243.2C242.8 137.753 241.999 137.886 241.599 137.886C235.199 158.16 234 180.302 241.066 200.443C236.266 180.702 237.466 160.561 243.466 140.821C260.399 146.956 274.533 124.548 266 111.343C273.066 101.873 277.999 90.1353 276.266 78.1309L276.533 77.9975Z" fill="black"/>
<path d="M198.266 133.484C199.066 135.084 200.8 136.285 202.666 136.285C201.866 133.484 200.266 131.483 197.866 129.749C197.466 130.816 197.6 132.017 198 133.084C190.8 135.618 183.333 134.551 175.866 135.218C182.8 138.152 192.399 139.086 198.133 133.484H198.266Z" fill="black"/>
<path d="M68.5337 343.695C66.4004 341.561 64.0003 339.96 61.3337 338.76C70.267 331.291 77.3336 321.82 82.1336 311.283C73.067 318.619 65.7336 328.089 60.9336 338.627C55.8669 336.359 50.1337 335.559 44.667 334.625C66.0003 338.36 73.4669 356.633 85.6003 372.106C97.2003 387.311 109.334 403.05 122 417.322C105.867 391.98 87.467 367.171 68.5337 343.829V343.695Z" fill="black"/>
<path d="M299.067 419.724C294.667 426.393 293.334 435.063 295.6 442.665C298.8 435.463 300 427.593 299.067 419.724Z" fill="black"/>
<path d="M316.133 236.722L276.133 357.7L276.8 374.24C274.667 378.508 269.067 408.519 267.867 413.721L263.6 415.722L267.867 417.189L265.067 441.598L258.667 442.665L257.067 453.202L195.333 454.803C195.333 454.803 195.2 457.071 195.067 457.204L162.133 456.537L161.867 454.269L158.133 454.003L117.733 451.735L119.067 440.531L117.6 439.597V438.397L116.133 413.855L119.333 410.387L115.067 399.716L116.133 342.228V341.028C115.2 336.493 108.267 296.211 107.2 290.609C106.8 271.935 108.133 230.72 109.467 212.047C121.067 207.912 151.333 197.241 162.533 193.373L168.267 198.041L174.4 217.649L200.4 242.324L226.8 225.252L256.8 199.509C266.933 203.91 294.133 215.915 304.667 220.583C314.933 224.851 317.6 224.051 315.867 236.856L316.133 236.722Z" fill="#A58367"/>
<path d="M224.8 244.992L193.733 269.401L136.8 216.182L118.8 222.851L112.8 285.941L114.666 332.891L107.333 290.609C106.933 271.936 108.266 230.72 109.6 212.047L145.333 199.509C157.333 213.914 185.2 245.259 198 259.398L223.866 242.458L224.666 245.126L224.8 244.992Z" fill="#845E41"/>
<path d="M183.467 181.102C183.467 181.102 166.4 191.239 165.733 195.774C165.067 200.309 158 228.186 158 228.186L173.733 216.848L201.733 243.392L220.8 229.12C220.8 229.12 225.067 247.927 225.6 246.726C232.133 233.788 249.6 215.248 257.6 204.044C256.533 194.707 252.533 179.635 240.533 175.767C239.2 176.033 209.2 211.246 209.2 211.246C208.4 214.714 206.267 222.05 205.467 225.385C185.6 210.579 187.2 203.243 183.467 181.235V181.102Z" fill="#FFF7F2"/>
<path d="M207.733 217.915L216.266 209.379L222.266 228.453C219.466 230.053 202.267 242.725 199.333 242.458C199.333 242.458 174.4 217.382 173.867 216.715C173.333 216.048 179.733 211.913 179.733 211.913C184 215.381 199.6 227.252 202.933 231.254L207.867 217.915H207.733Z" fill="#C6B7AF"/>
<path d="M123.466 918.975V955.121H91.8665V944.984L79.8665 955.521C76.2665 955.521 3.06647 954.988 2.13314 954.988C2.13314 954.988 0.933105 948.052 0.933105 947.518C0.933105 946.985 9.73317 937.381 11.9998 935.381C17.9998 930.846 22.2665 930.712 27.9998 929.779L29.3332 928.178L55.1999 919.108L54.3999 912.572C56.1332 912.839 58.1331 913.106 59.4665 914.573C63.8665 937.648 86.6665 932.58 99.1999 919.108C110.533 919.108 123.466 918.708 123.466 918.708V918.975Z" fill="#B56B35"/>
<path d="M64.6665 925.644C58.6665 917.775 36.6664 925.911 45.5998 936.715C40.6664 940.049 33.4665 937.248 31.9998 931.513C21.1998 934.447 6.5332 941.65 9.19987 955.122H1.99984C1.99984 955.122 0.799805 948.052 0.799805 947.652C0.799805 947.252 9.59987 937.515 11.8665 935.514C17.8665 930.979 22.1332 930.846 27.8665 929.912L29.1999 928.312L55.0666 919.242L54.2664 912.706C61.0664 912.706 61.0666 921.376 64.3999 925.644H64.6665Z" fill="white"/>
<path d="M190.4 492.284C189.467 528.697 178.267 605.392 171.2 641.405C162.267 696.092 152.134 775.055 145.6 831.075C141.2 852.817 135.467 866.555 138.4 875.359C139.867 876.159 143.6 897.233 136.4 897.633C132.934 902.168 132.934 908.437 129.734 914.973C128.4 917.507 118.934 918.841 118.934 918.841C101.467 919.908 78.1337 918.041 60.667 917.107C56.9337 911.505 54.6671 911.772 57.0671 902.702C69.8671 812.402 89.8669 709.297 99.6003 619.264C103.6 585.118 109.6 487.482 117.2 453.202C131.2 451.869 170.8 454.936 185.067 456.537L190.4 492.417V492.284Z" fill="url(#paint1_linear_2093_9051)"/>
<path d="M67.3332 893.766C55.1998 917.641 102.533 917.241 108.933 918.975C108.133 918.975 60.3998 917.908 60.6665 917.108C60.6665 916.174 57.3332 911.505 57.3332 911.505H56.7998C63.4665 847.348 79.4664 763.584 89.5998 700.094C100.666 630.068 105.6 523.095 117.2 453.069L121.733 453.47C117.333 509.757 94.6665 808.401 71.9998 871.091C74.5332 888.03 99.5999 897.634 111.067 901.102C111.067 901.102 74.1332 906.304 67.3332 893.899V893.766Z" fill="white"/>
<path d="M116.267 503.087C122.534 497.485 129.734 492.417 134.267 485.214C131.6 496.018 124.267 504.154 114.667 509.356" fill="white"/>
<path d="M223.067 912.573C225.333 914.44 280.933 905.77 285.867 901.102C287.333 896.834 288.4 893.232 288.133 890.565C288.267 868.156 286.267 816.004 285.333 788.794C279.2 758.116 276.933 737.041 274.667 686.622C272.8 613.262 269.867 545.37 263.867 475.344C263.2 466.808 262.533 460.139 257.467 453.336C256.8 451.336 187.067 455.604 184 454.67L184.8 555.774L187.467 561.776C190.267 578.983 195.467 613.262 198 630.468C203.067 697.293 212.667 809.335 219.067 876.693L217.867 887.763L221.467 902.302L220.667 911.506L223.067 912.706V912.573Z" fill="url(#paint2_linear_2093_9051)"/>
<path d="M119.2 439.73L117.866 451.602L162 454.269L162.266 456.537L195.733 457.204V455.336L258.266 452.669L258.799 441.865C246.133 440.798 181.599 447.067 166.799 443.465" fill="#B56B35"/>
<path d="M131.866 437.463C142 439.731 152 441.998 162.133 444.266C147.333 442.132 132.4 441.198 117.733 438.53L116.4 413.988L119.6 410.52L115.333 399.849L116.4 342.362V341.161C116.266 341.161 116.666 341.161 116.666 341.161C125.733 395.048 106.133 405.452 170 406.652C155.066 411.187 139.2 410.653 123.6 409.853C129.866 416.389 139.866 417.189 148.8 417.589C141.733 420.657 133.866 421.858 126.133 420.924C122.533 427.193 122.933 436.797 131.866 437.463Z" fill="#845E41"/>
<path d="M108.4 298.478C100.667 307.548 83.7335 325.555 74.6669 333.024C72.6669 334.091 70.5336 339.027 69.2002 340.761C69.2002 340.761 71.0669 343.028 71.2002 343.162C71.6002 344.629 72.4002 347.563 73.4668 348.63C76.5335 349.164 78.6669 354.366 77.8669 356.633C65.6002 363.169 56.9336 368.638 41.7336 375.44C32.2669 379.575 33.7335 380.909 23.4668 378.375C14.4002 372.506 11.2002 353.965 7.33353 346.229C7.06687 334.091 20.4003 311.55 25.0669 304.08C42.5336 276.47 73.8668 232.987 109.467 216.048C108.8 227.119 108 247.66 107.6 258.73C107.6 258.73 107.6 266.867 106.534 273.803C105.467 280.738 108.534 298.345 108.534 298.345L108.4 298.478Z" fill="#FFF7F2"/>
<path d="M71.3332 337.426C70.9332 338.227 69.1999 340.761 69.1999 340.761C69.1999 340.761 71.0666 343.028 71.1999 343.162C71.5999 344.629 72.3998 347.563 73.4665 348.631C76.5332 349.164 78.6666 354.366 77.8666 356.634C65.5999 363.303 56.9333 368.505 41.7333 375.44C24.2666 364.503 38.5331 369.305 32.9331 360.235C23.8665 346.096 14.3998 343.162 35.5998 335.559C39.4665 334.492 38.7998 330.224 34.9331 329.557C33.1998 329.157 31.0666 329.157 29.7333 327.823C27.4666 325.689 29.3333 321.42 32.3999 320.22C37.4666 318.219 43.5999 321.687 48.3999 318.753C53.1999 315.818 50.6666 310.75 46.5332 308.616C35.7332 294.877 69.3333 304.081 73.0666 313.818C83.9999 294.477 95.4665 275.403 107.6 256.863C107.466 259.531 107.6 264.733 106.533 273.67C105.467 280.472 108.533 298.212 108.533 298.212L89.9999 318.753C87.0665 321.954 72.9332 333.158 71.3332 337.16V337.426Z" fill="#C6B7AF"/>
<path d="M344.267 446.4C344.267 450.402 342.4 450.402 339.867 453.87C337.334 457.338 328.267 457.471 328.267 457.471L326.4 449.335C318.134 441.999 303.067 444.8 293.067 449.201C292 449.735 281.2 452.002 283.467 456.537C276.8 455.204 280.4 445.2 280.267 441.065C280 439.998 276.934 431.195 276.8 429.327C276.8 427.46 282.4 424.125 280.8 422.125C278.8 419.857 279.734 415.189 280.4 413.722L282.8 408.653C279.067 409.187 275.334 402.384 278.934 399.183C279.867 397.849 281.6 394.915 281.6 394.781C281.6 394.515 276.134 373.573 276.134 373.573L274.934 358.501C281.467 338.36 309.2 255.13 316.267 233.522L317.067 233.255C325.6 247.393 326.134 265.4 328.4 283.54C328.534 287.675 332.667 320.487 332 321.954C331.067 339.427 332.934 373.974 328.667 390.513C328.267 394.381 331.867 397.982 332.4 399.049C335.867 406.652 327.467 415.589 328.667 422.125C330.667 425.326 338.534 427.06 341.867 428.527C344.8 430.261 342.267 436.663 342.534 439.064C342.534 439.598 344 442.532 344 446.534L344.267 446.4Z" fill="#FFF7F2"/>
<path d="M291.067 412.388C298.667 413.588 306.4 414.788 313.333 418.256C297.333 419.59 291.067 433.996 301.333 446.4C295.467 448.934 281.6 450.535 283.467 456.537C276.8 455.203 280.4 445.2 280.267 441.065C280 439.998 276.933 431.195 276.8 429.327C276.8 427.46 282.4 424.125 280.8 422.125C279.733 420.791 279.6 419.457 279.734 418.523C279.2 414.522 281.733 411.721 282.933 408.653C282.933 408.653 283.2 408.253 281.867 408.653C280.534 408.92 278.534 406.652 277.867 404.251C276.534 400.517 281.334 397.182 281.867 394.914C281.867 394.648 276.4 373.707 276.4 373.707L275.2 358.634L284.933 329.023C282.667 351.832 283.467 375.04 287.333 397.715C297.333 395.315 310.134 393.447 317.867 401.85C308.934 405.452 300.134 409.053 291.2 412.654L291.067 412.388Z" fill="#C6B7AF"/>
<path d="M279.6 905.369C282.267 908.17 293.467 914.839 296.8 916.973L290 929.912L279.6 931.512C279.6 931.512 258.8 921.642 258.934 921.642C259.067 921.642 246.667 912.305 246.667 912.305" fill="white"/>
<path d="M234.133 913.239L234.933 955.522L265.466 954.988C265.466 954.988 266.666 946.452 267.333 946.185C268 945.918 278.266 956.055 278.266 956.055L356.533 954.855V946.452C347.6 937.782 343.333 930.979 328.933 929.512C328.933 929.512 328.666 926.844 328.533 926.844C328.4 926.844 301.599 917.508 301.599 917.508C301.599 917.508 302.266 913.106 302.133 912.839C301.999 912.572 300.133 911.372 300.133 911.372C298.133 914.973 291.733 926.044 289.599 929.912C280.133 930.312 269.866 929.912 260.933 923.777C252.266 914.306 248.666 909.772 234.266 913.239H234.133Z" fill="#B56B35"/>
<path d="M124.534 912.039L123.333 915.907L124.667 912.172L124.534 912.039Z" fill="black"/>
<path d="M133.6 883.095L132.667 883.495C133.334 885.762 135.334 888.43 134.4 890.698L135.067 891.231C136.534 888.697 134.267 885.629 133.6 883.228V883.095Z" fill="black"/>
<path d="M131.466 868.156L130.133 867.622C128.933 870.156 129.066 873.224 129.733 875.892L130.933 875.625C130.4 873.091 130.266 870.556 131.466 868.156Z" fill="black"/>
<path d="M134.133 854.284C133.866 855.485 133.066 858.819 132.8 860.153L134.266 860.553C134.8 858.286 135.733 854.818 136.133 852.684L134.533 852.417L134.133 854.418V854.284Z" fill="black"/>
<path d="M135.733 844.28L137.467 844.547L138.667 836.544L136.8 836.277L135.733 844.28Z" fill="black"/>
<path d="M137.733 828.407L139.733 828.674L140.8 820.671L138.8 820.404L137.733 828.407Z" fill="black"/>
<path d="M139.733 812.401L142 812.668L143.067 804.665L140.8 804.398L139.733 812.401Z" fill="black"/>
<path d="M141.733 796.396L144.133 796.662L145.067 788.659L142.8 788.393L141.733 796.396Z" fill="black"/>
<path d="M143.733 780.39L146.133 780.656L147.2 772.654L144.8 772.387L143.733 780.39Z" fill="black"/>
<path d="M145.866 764.384L148.266 764.784L149.333 756.781L146.933 756.381L145.866 764.384Z" fill="black"/>
<path d="M148.133 748.378L150.666 748.778L151.866 740.909L149.333 740.509L148.133 748.378Z" fill="black"/>
<path d="M152.596 725.233L151.428 733.15L154.066 733.54L155.234 725.623L152.596 725.233Z" fill="black"/>
<path d="M152.8 716.499L155.466 716.9L156.533 709.03L154 708.63L152.8 716.499Z" fill="black"/>
<path d="M155.2 700.627L157.734 701.027L158.8 693.024L156.4 692.624L155.2 700.627Z" fill="black"/>
<path d="M157.6 684.755L160 685.022L161.2 677.152L158.8 676.752L157.6 684.755Z" fill="black"/>
<path d="M160 668.749L162.4 669.149L163.6 661.146L161.333 660.746L160 668.749Z" fill="black"/>
<path d="M162.533 652.876L164.8 653.143L166.133 645.273L163.867 644.873L162.533 652.876Z" fill="black"/>
<path d="M165.467 636.87L167.467 637.403L169.333 629.534L167.333 629.134L165.467 636.87Z" fill="black"/>
<path d="M169.2 621.264L170.933 621.664L172.534 613.661L170.8 613.395L169.2 621.264Z" fill="black"/>
<path d="M172.533 605.526L174.133 605.793L175.733 597.923L174.266 597.656L172.533 605.526Z" fill="black"/>
<path d="M175.866 589.653L177.2 589.92L178.799 582.05L177.599 581.783L175.866 589.653Z" fill="black"/>
<path d="M186 542.435H186.133L186.8 538.434L186 542.435Z" fill="black"/>
<path d="M188.134 541.902L186.667 538.034L188.001 541.902H188.134Z" fill="black"/>
<path d="M193.2 556.707H193.733C193.333 554.04 192.667 551.372 191.2 549.104H190.8C192.133 551.505 192.667 554.173 193.067 556.707H193.2Z" fill="black"/>
<path d="M194.4 564.444L195.467 572.18L196.4 572.047L195.2 564.311L194.4 564.444Z" fill="black"/>
<path d="M196.4 580.049L197.334 587.919L198.667 587.652L197.6 579.916L196.4 580.049Z" fill="black"/>
<path d="M198.267 595.655L199.2 603.524L200.8 603.258L199.733 595.521L198.267 595.655Z" fill="black"/>
<path d="M200.133 611.261L200.933 619.131L202.799 618.997L201.866 611.128L200.133 611.261Z" fill="black"/>
<path d="M201.866 627L202.666 634.87L204.666 634.603L203.733 626.733L201.866 627Z" fill="black"/>
<path d="M203.333 642.606L204.133 650.476L206.4 650.342L205.6 642.473L203.333 642.606Z" fill="black"/>
<path d="M204.533 658.345L205.067 666.215L207.466 665.948L206.933 658.212L204.533 658.345Z" fill="black"/>
<path d="M205.733 674.084L206.267 681.82L208.667 681.687L208.133 673.817L205.733 674.084Z" fill="black"/>
<path d="M206.934 689.69L207.6 697.56L210 697.426L209.334 689.557L206.934 689.69Z" fill="black"/>
<path d="M208.133 705.429L208.799 713.298L211.466 713.032L210.799 705.162L208.133 705.429Z" fill="black"/>
<path d="M212.632 719.663L209.976 719.896L210.661 727.735L213.318 727.503L212.632 719.663Z" fill="black"/>
<path d="M210.934 736.907L211.6 744.644L214.134 744.51L213.467 736.641L210.934 736.907Z" fill="black"/>
<path d="M212.4 752.513L213.067 760.383L215.6 760.116L214.8 752.38L212.4 752.513Z" fill="black"/>
<path d="M213.866 768.252L214.533 776.122L216.933 775.855L216.266 767.985L213.866 768.252Z" fill="black"/>
<path d="M215.333 783.858L216.133 791.728L218.4 791.594L217.733 783.725L215.333 783.858Z" fill="black"/>
<path d="M216.934 799.597L217.734 807.466L220 807.2L219.2 799.33L216.934 799.597Z" fill="black"/>
<path d="M218.667 815.336L219.6 823.072L221.6 822.939L220.8 815.069L218.667 815.336Z" fill="black"/>
<path d="M220.533 830.943L221.6 838.812L223.333 838.545L222.4 830.676L220.533 830.943Z" fill="black"/>
<path d="M224.4 846.281L222.8 846.548C223.333 848.815 224.133 851.883 224.667 854.15L226.133 853.884C225.6 851.616 224.8 848.415 224.4 846.147V846.281Z" fill="black"/>
<path d="M226.934 861.887H225.6V869.756L226.8 869.89L226.934 861.887Z" fill="black"/>
<path d="M226.134 877.76H225.067C224.933 880.294 224.533 882.962 225.067 885.629H225.867C225.467 882.962 225.867 880.294 226.134 877.76Z" fill="black"/>
<path d="M357.867 954.854V947.651C357.733 947.651 357.733 947.251 357.733 947.251C350.667 937.781 341.867 929.645 329.467 929.645C329.867 928.845 330.4 927.377 330.667 926.577C321.733 923.109 312.667 919.641 303.6 916.573C304.133 915.106 304.667 913.506 305.067 911.905C303.6 911.238 300.933 910.304 299.467 909.637C298.4 911.905 297.2 914.172 296.267 916.307C291.867 911.638 285.6 909.504 280.8 905.636C284.8 904.435 289.6 902.702 289.467 897.633C291.6 864.421 289.467 831.208 288 798.129C287.733 793.995 287.6 789.593 286.933 785.458C281.6 764.117 279.6 742.109 277.467 720.367C275.2 652.209 274.4 577.381 267.2 509.756C264.8 494.417 267.2 465.34 257.733 454.002C258.267 454.002 259.067 453.869 259.467 453.869C259.467 450.401 259.2 446.8 258.933 443.332C260.933 443.065 265.6 444.399 266.4 441.998C267.333 433.595 269.867 425.192 268.667 416.655C268.133 415.722 266.4 415.722 265.467 415.455C266.4 415.188 267.6 414.921 268.533 414.654C270.667 403.584 274 385.977 275.867 375.04C276.267 382.109 280.533 389.045 280.533 395.847C276.267 399.849 274.267 407.852 282 409.186C279.867 413.054 278 418.122 280.667 422.124C271.067 426.659 276.933 434.929 278.933 441.598C278.533 446.933 276.667 455.603 283.6 457.604L284 456.67C283.067 454.536 284.933 452.268 286.8 451.335C299.467 446.666 313.067 445.599 326.133 448.8C327.333 451.868 327.867 455.336 328.4 458.671C335.867 458.137 346.267 454.803 345.733 445.466C345.467 442.531 343.733 440.397 344.8 437.596C351.2 427.192 336.8 423.591 329.2 422.124C329.733 412.387 339.2 403.85 330.8 394.647C330.133 393.046 330.133 391.179 330.4 389.178C337.6 344.495 336.8 274.203 317.467 233.254C318.267 230.453 317.467 227.519 316.4 224.851C315.733 222.583 307.867 220.583 306 219.382C291.467 213.247 273.067 205.644 258.533 199.775C257.067 188.437 251.867 174.832 238.8 173.365C229.333 184.703 219.867 196.04 210.533 207.511C205.867 212.18 205.6 218.715 205.2 224.851C188.8 213.38 185.467 196.174 185.867 177.367C178.133 182.168 170.267 187.37 164.933 194.84C164.933 194.84 162.8 193.106 162.8 192.972C147.333 197.908 124.4 205.911 108.8 211.113C108.8 212.58 108.533 214.047 108.533 215.648C75.8667 230.72 52.9334 260.597 33.2 289.675C22 305.814 9.06663 322.62 7.46663 342.895C1.59997 349.564 10.8 356.5 11.8667 363.702C14.4 376.107 26.5333 386.644 38.8 378.775C52.1333 371.839 65.6 365.169 78 356.5C66.6667 362.902 49.4666 370.371 37.4666 375.973C19.7333 384.91 17.0667 363.836 11.0667 351.698C1.7334 339.026 37.4667 343.962 44 341.694C49.8667 341.427 59.3334 340.36 65.2 340.494C66.1334 342.094 66.5334 344.228 65.7334 345.962C53.6001 345.962 41.4667 346.496 29.3333 348.363C42.9333 351.965 57.8667 351.164 71.0667 346.229C69.7334 346.229 68.5334 346.096 67.2 346.096C68 345.029 68.4 343.695 68.5334 342.228C68.8 342.228 68.9334 341.961 69.0667 341.828C71.7334 343.161 70 347.163 72.5334 348.63C65.6 349.297 59.0666 351.164 52.9333 354.632C59.9999 356.366 68.0001 354.099 73.0667 348.897C76.2667 349.964 78.6667 353.032 77.8667 356.5C79.4667 352.498 76.1333 349.164 72.9333 347.43C71.7333 345.295 72.6667 341.694 69.8667 340.227C69.8667 340.227 69.8667 340.227 69.8667 340.094C72.1334 338.893 73.6 336.225 74.1333 333.691C88 325.822 95.6 311.016 107.2 300.612C108.8 315.685 112.4 331.424 113.6 346.629C113.6 348.363 113.467 396.514 113.467 399.982L113.6 400.382L117.867 410.92C117.467 411.453 114.933 414.121 114.533 414.521C115.6 421.724 116.4 433.862 116.133 441.198C117.067 441.331 118.267 441.598 119.2 441.731C118.133 445.599 117.2 449.601 116.533 453.602H116.667C104.133 532.565 98.9334 623.265 88.4001 702.761C76.6667 768.252 64.6667 844.947 55.7334 910.704C55.0667 910.971 53.5999 911.505 52.9333 911.771C53.3333 913.239 53.8667 914.973 54.4001 916.44C45.3334 919.641 36.2667 922.976 27.3333 926.444C27.6 927.377 28.1334 928.711 28.5334 929.511C16.1334 929.511 7.33327 937.648 0.266602 947.118C0.266602 948.452 0.133333 954.854 0 956.055C25.7333 956.588 56.0001 956.721 81.7334 956.721L82.2666 956.188L90 948.452C90 949.786 90 955.654 90 956.855C100.533 956.855 114.4 956.455 124.933 956.321C124.667 944.317 124.267 931.512 123.867 919.508C132.533 919.374 134.4 909.371 135.733 902.701C136 902.701 136.133 902.701 136.4 902.701C136.267 902.701 136 902.701 135.867 902.701C136.133 901.501 136.267 900.434 137.2 899.634C145.867 895.365 142.533 883.361 139.867 876.158C145.467 844.947 162.667 718.9 166.533 686.088C173.2 643.939 179.867 601.79 185.867 559.508C185.6 534.432 185.067 483.213 184.667 458.004C188.667 458.004 192.533 457.87 196.533 457.604C196.533 456.803 196.533 455.87 196.4 455.069C216.933 456.67 237.6 456.003 258 454.002C266.133 464.94 263.6 480.012 265.333 492.817C255.2 484.814 244.667 477.344 238.133 466.007C239.6 479.879 252.667 489.882 265.467 493.083C265.6 496.151 265.867 499.086 266 502.153C253.733 493.484 242.933 483.747 233.067 472.543C238.267 486.948 251.2 498.552 266 502.42C267.6 527.896 270.267 558.708 271.2 584.184C273.733 638.337 271.467 695.692 277.2 749.578C278.933 762.516 281.333 775.454 284 788.259C286.133 824.406 287.867 861.086 286 897.366C286.533 905.636 238.933 909.237 230.667 911.238L230.267 909.104H230.133L230.533 911.238C228.4 911.238 224 913.372 224.133 909.771C223.867 907.237 223.733 904.569 224.133 902.168C239.733 902.435 259.867 896.966 264.533 880.16C256.267 891.897 242.4 896.166 229.333 899.901C229.333 899.234 229.333 898.7 229.067 898.033C234.933 895.499 240.267 890.697 242 884.428C237.2 887.763 233.067 891.097 228.267 894.298C228.267 894.032 228.267 893.765 228.133 893.498H227.6C227.6 894.032 227.733 894.298 227.867 894.565C226.133 895.899 224.4 896.966 222.533 898.3C217.6 888.43 224 878.293 221.733 867.889C216.8 822.539 212 773.454 207.733 728.37C202.533 671.149 198.8 613.395 187.467 556.974C203.467 653.676 205.333 759.982 217.2 857.485C217.467 860.819 218.533 870.156 218.667 873.491C218.667 882.694 214.133 893.231 220.4 901.501C220.133 914.973 220.667 916.973 234.8 914.306C234.267 928.178 233.867 942.85 233.467 956.721C242.933 956.855 259.067 957.122 268.533 957.255C268.533 956.055 268.533 950.186 268.533 948.852L276.267 956.588L276.8 957.122C302.8 957.122 332.4 956.988 358.533 956.455V955.121L357.867 954.854ZM257.867 446.933C257.733 448.4 257.467 449.867 257.333 451.335C254.933 451.335 252.533 451.201 250.267 451.201C251.6 448.534 251.467 445.466 250.267 442.798C252.667 442.798 256.267 442.798 258.667 442.932C258.4 444.265 258.267 445.599 258 446.933H257.867ZM338.533 428.66C341.333 429.46 344 431.727 342.533 434.662C341.067 432.794 338.4 432.394 336.533 433.995C337.467 436.262 339.2 437.463 341.6 437.329C341.467 438.13 341.333 438.93 341.467 439.73C338 436.262 333.2 434.662 328.4 435.062C332.8 439.33 338.267 441.331 342.933 445.199C344.533 452.802 335.6 456.27 329.467 457.337C328.667 454.402 328 451.468 326.533 448.934C327.6 449.201 328.667 449.467 329.733 449.734C316.933 439.33 291.067 441.331 283.2 456.136C279.867 453.869 280.4 449.201 281.067 445.733C287.733 446.133 294.4 444.666 300.133 441.064C293.733 439.464 286.8 440.931 281.333 444.399C281.733 442.531 281.867 440.397 281.333 438.663C289.2 436.796 296.667 434.528 304.133 431.327C296 429.193 286.933 431.994 281.067 437.73C267.067 412.787 327.867 425.192 338.8 428.526L338.533 428.66ZM317.2 233.654C324.4 247.526 324 264.065 326.667 279.138C331.467 316.752 331.6 354.766 327.6 392.38C327.6 395.581 330.533 398.515 331.733 400.916C334.667 407.985 327.333 414.921 328.667 422.124C313.067 418.923 296.133 416.789 280.8 421.99C278.533 418.122 280.4 413.454 282.533 409.986C291.067 407.585 299.067 405.451 307.6 403.317C299.467 400.116 289.6 402.517 283.333 408.519V408.252C278.667 408.919 275.867 402.65 279.733 399.582C283.067 397.181 282.933 392.78 281.467 389.445C273.467 365.97 279.2 350.497 287.333 328.489C296.8 299.412 308.267 262.998 317.067 233.788L317.2 233.654ZM272.933 206.978L275.333 208.178C263.067 213.38 251.733 220.583 241.067 228.719C242.4 226.985 257.467 207.511 259.067 205.377C258.8 203.643 258.667 201.776 258.267 200.042C263.067 202.443 267.867 204.71 272.8 206.978H272.933ZM209.6 212.313C219.333 200.309 230.133 189.104 240.133 177.233C251.467 180.968 253.733 193.639 255.067 204.177C246.933 214.847 234.667 230.72 226.8 241.257C224 230.586 220.8 217.648 217.867 207.111C214.533 210.312 211.067 213.38 207.733 216.581C208.133 215.114 208.8 213.647 209.6 212.18V212.313ZM199.2 255.929C188.8 244.725 178 233.654 166.267 223.784C168.8 221.783 171.6 219.382 174.133 217.382C182.267 227.785 191.333 237.256 200.8 246.326C207.467 240.99 214.4 235.388 220.533 229.386L223.467 242.324C215.333 246.192 206.8 251.127 199.067 255.796L199.2 255.929ZM180.533 212.18C186.533 217.515 192.667 222.717 198.8 227.919C199.6 232.32 200.533 236.722 201.467 241.124H201.333C192.933 232.587 184.133 224.317 174.667 216.981C176.667 215.381 178.667 213.647 180.667 212.046L180.533 212.18ZM208.267 218.582C211.067 216.181 213.867 213.78 216.667 211.379C218 217.248 219.2 223.117 220.533 228.852C214.933 231.92 209.6 235.522 204.267 239.123C205.333 233.521 207.067 224.184 208.267 218.449V218.582ZM169.067 195.907C172.8 191.105 177.867 187.104 182.8 183.636C183.067 200.709 189.733 216.581 205.2 225.251C204.933 229.386 204.533 235.388 204.133 239.523L201.6 241.257C201.067 236.589 200.667 232.054 200.133 227.385C193.733 220.983 187.2 214.714 180.667 208.445C174 213.513 166.267 219.382 159.6 224.584C162.533 214.981 163.733 204.31 169.2 195.907H169.067ZM149.6 198.308C154 196.707 158.4 194.973 162.8 193.506L164.933 195.24C161.333 201.109 160.133 208.045 158.133 214.447C155.867 208.445 151.867 202.976 146.4 199.642L149.6 198.441V198.308ZM98.2666 305.147C88.7999 313.284 82.4 323.821 74.1333 333.024C74.9333 327.556 72 322.354 67.8667 319.019C68.6667 325.155 71.4667 330.623 69.8667 336.759C69.2 331.024 64.9334 326.222 59.7334 323.821C61.2001 327.956 63.7333 331.29 65.4666 335.158C60.6666 328.889 51.9999 325.288 44.2666 327.556C51.7333 329.29 58.4 332.757 63.3333 338.493C49.2 338.226 35.0667 339.16 21.0667 339.56C16.6667 339.96 11.7334 339.293 7.8667 342.361C11.4667 322.887 24.6667 307.415 36 291.942C56.2667 263.399 77.7334 234.188 108.4 216.048C107.067 243.791 103.2 271.802 106.8 299.545C103.733 301.012 100.8 303.013 98.2666 305.147ZM117.067 343.695C114.667 327.556 111.6 310.216 109.6 294.077C106.667 267.133 109.867 239.79 110.533 212.713C117.467 210.179 139.6 202.043 146.133 199.508C147.867 206.177 152.133 212.046 157.6 216.048C156 222.05 154.533 228.452 153.067 234.588C155.867 232.32 163.2 226.318 166 224.051C175.867 237.122 187.2 249.26 198.533 260.998C206.8 255.396 215.867 249.26 223.6 242.858C224 244.458 224.667 247.659 225.067 249.26C229.2 243.925 233.467 238.589 237.6 233.254C251.333 226.718 264.267 218.449 275.6 208.311C286.533 213.513 302.267 220.849 313.333 225.918C316.267 237.389 306.4 251.661 304.133 263.399C294.533 293.009 282.933 329.556 274 359.167C277.867 376.507 270.4 395.981 267.067 413.187C265.6 413.721 261.733 413.854 262.667 416.122C252.267 420.39 241.333 423.591 230.267 425.859C241.6 429.06 254.933 425.192 262.933 416.388C263.733 416.922 266.133 417.189 266.933 417.455C266.933 425.192 265.2 433.061 264 440.664C215.6 438.663 167.6 448 119.467 437.863C119.867 432.261 119.067 421.324 118.267 415.721L120.8 412.92C133.067 419.723 147.867 422.257 161.6 419.456C148.667 416.922 134.4 414.654 121.467 412.254L122.133 411.587C121.867 410.92 121.067 409.052 120.8 408.252C138.533 413.988 158.667 413.187 175.733 405.451C157.333 407.985 139.067 408.786 120.533 407.452L117.2 399.182C117.2 392.646 117.067 349.164 117.067 343.695ZM219.333 446.933C219.333 445.866 218.933 444.932 218.4 443.999C218.933 443.999 219.6 443.999 220.133 443.865C219.6 444.799 219.333 445.866 219.333 447.066V446.933ZM189.067 452.668C181.733 452.402 174.4 452.402 167.067 452.668C167.067 450.668 166.933 448.534 166.667 446.533C174.267 446.8 181.733 446.933 189.333 446.533C189.2 448.534 189.067 450.534 188.933 452.668H189.067ZM162.133 446.266C161.867 448.934 161.6 451.468 161.467 454.136C147.6 451.335 133.467 450.668 119.333 450.935C119.333 450.801 119.333 450.668 119.333 450.534C119.333 447.6 119.333 444.666 119.333 441.731C133.6 443.999 147.867 445.466 162.133 446.266ZM62 917.507C74 918.974 86 919.774 98.1333 920.308C89.0666 927.511 79.0666 930.178 67.4666 929.511C66 926.31 63.4667 920.708 62 917.507ZM57.2 914.973C57.0667 914.439 56.8 914.039 56.6667 913.505H57.0667C57.4667 913.906 57.7333 914.573 58.1333 915.106C57.8666 915.106 57.4667 915.106 57.3333 914.973H57.2ZM79.7334 952.987C55.4667 952.987 26.5334 952.987 2.40006 953.52V950.586C28.6667 953.12 55.6 953.12 82 950.719L79.7334 952.853V952.987ZM93.2 953.387V950.986C102.8 953.12 112.667 953.12 122.267 950.853C122.267 951.92 122.267 952.853 122.267 953.92C113.867 953.787 101.733 953.52 93.3333 953.387H93.2ZM122.933 925.777C122.667 933.513 122.4 942.583 122.133 950.186C112.667 947.918 102.667 947.918 93.2 950.052C93.2 947.518 93.2 942.049 93.2 939.515C91.0667 941.649 84.5333 948.052 82.2666 950.319C55.7333 947.918 28.5333 947.918 2 950.319V948.052C8.26667 938.581 16.2667 930.712 28 929.778C30.1333 934.713 33.8667 940.716 40 940.716C50.1333 940.049 59.7334 936.847 69.2 933.513C60.1334 934.847 49.2 937.381 40.1333 937.381C35.7333 936.981 33.6 932.446 31.8667 928.711C32.2667 928.711 32.5333 928.444 32.9333 928.311C33.5999 932.979 38.5333 937.248 43.3333 935.647C40.5333 932.579 38.1333 930.178 34.9333 927.644C42.5333 924.843 50.6666 921.642 58.2666 918.574C58.2666 918.574 57.7333 916.973 57.5999 916.973C57.9999 916.973 58.5333 917.107 58.9333 917.24C61.0666 920.842 64.5333 926.177 66.6667 929.778C66.6667 929.778 66.6666 929.778 66.8 929.778L69.2 933.646L67.5999 930.045C79.0666 936.047 92.9334 931.512 99.2 920.441C107.2 920.708 115.2 920.842 123.067 919.774C123.067 921.775 122.933 923.909 122.8 925.91L122.933 925.777ZM127.733 901.634C128.133 900.301 128.4 898.3 129.2 897.099C130.8 897.5 132.267 897.766 133.867 898.033C132.933 899.234 132.667 900.834 132.4 902.168C130.8 902.035 129.2 901.768 127.733 901.634ZM136.8 895.632C136.267 895.899 134.933 896.566 134.267 897.5C124.8 892.164 109.733 892.298 104.4 881.894C114.8 887.629 126.133 892.965 138.133 893.898C137.867 894.699 137.467 895.232 136.8 895.632ZM183.2 507.222C183.2 507.489 182.8 558.041 182.667 558.174C182.8 558.441 181.6 565.644 181.467 566.177H180.933L179.2 573.913H180.133C169.2 640.071 157.6 709.697 150 775.855C148 789.993 141.6 854.417 136.133 866.688C132.133 875.358 141.6 884.295 138.267 893.231C124.667 889.363 112.667 881.894 100.4 874.958C96.4001 891.497 116.933 894.298 128.4 896.699C127.6 897.9 127.467 899.901 127.067 901.234C114 898.567 78.2667 896.299 71.7334 884.828C76.0001 900.301 112.667 903.502 126.667 903.235V904.035C126.533 904.035 126.933 904.035 126.933 904.035L127.2 903.102C128.933 903.102 130.533 902.835 132.267 902.701C131.067 908.17 130.4 915.906 123.467 916.44C123.467 916.173 123.467 915.906 123.467 915.64C123.467 915.906 123.467 916.173 123.467 916.573C102.933 919.374 81.8667 917.24 61.3333 915.373C60.2667 913.372 59.3333 911.238 58.2666 909.237L57.2 909.637C65.3334 842.146 77.7333 771.987 90.9333 705.295C99.7333 640.338 105.2 572.179 111.2 506.822C124.4 501.487 135.333 490.282 140 476.811C130.667 487.081 121.333 496.818 111.2 506.288L112.267 494.017C123.2 487.215 131.867 476.544 136.267 464.54C127.333 473.476 119.6 483.08 112.267 493.35C114 481.613 113.333 464.54 116.8 453.202C131.6 454.936 146.533 455.47 161.333 453.869C161.333 454.936 161.333 456.003 161.2 456.937C168.667 457.337 176.267 457.47 183.733 457.337L183.067 506.688L183.2 507.222ZM184.267 455.336C184.267 455.203 183.867 455.203 183.867 455.203C176.933 455.203 170 455.203 163.067 455.736C162.933 452.668 162.667 449.467 162.267 446.4C163.733 446.4 165.067 446.533 166.533 446.533C166.4 448.934 166.267 451.201 166.133 453.602C174 454.002 182 453.869 189.867 453.602C189.867 451.335 189.6 448.934 189.467 446.666C191.2 446.666 193.067 446.533 194.8 446.4C194.4 449.467 194.267 452.668 194.133 455.736C190.8 455.603 187.467 455.47 184.133 455.47L184.267 455.336ZM210.8 452.802C205.867 453.335 200.8 453.869 195.867 454.669C195.733 451.868 195.467 449.067 195.2 446.133C202.267 445.733 209.2 444.666 216.267 444.132C215.067 446.8 215.067 449.734 216.267 452.402C214.4 452.535 212.533 452.669 210.667 452.802H210.8ZM218.667 452.268C219.067 451.335 219.333 450.268 219.467 449.334C219.467 450.268 219.867 451.335 220.267 452.135C219.733 452.135 219.2 452.135 218.667 452.135V452.268ZM226.533 451.735C225.2 451.735 223.733 451.868 222.4 452.002C223.6 449.334 223.467 446.266 222.267 443.732C225.333 443.465 228.4 443.332 231.333 443.198C230.133 445.866 230 448.934 231.2 451.601C229.6 451.601 228 451.601 226.533 451.735ZM242.4 451.335C239.467 451.335 236.533 451.335 233.733 451.468C234.8 448.8 234.8 445.733 233.467 443.065C236.667 443.065 240 442.798 243.2 442.798C241.867 445.466 241.867 448.534 243.2 451.201C242.933 451.201 242.667 451.201 242.533 451.201L242.4 451.335ZM245.333 451.201C246.533 448.534 246.533 445.466 245.333 442.798C246.267 442.798 247.2 442.798 248.133 442.798C246.8 445.466 246.8 448.534 248.133 451.201C247.2 451.201 246.4 451.201 245.467 451.201H245.333ZM227.2 898.033C227.467 898.033 227.733 897.766 228 897.766C228 898.3 228.133 898.967 228.267 899.5C226.667 900.034 225.2 900.434 223.6 900.968C223.6 900.167 223.2 899.5 222.8 898.967C224.267 898.833 225.867 898.433 227.2 897.9V898.033ZM274.933 907.103C276.667 906.703 278.4 906.169 280.133 905.769C280.933 912.572 289.6 916.573 295.733 917.107C294.133 920.441 291.6 926.177 290 929.645C269.867 933.113 264 918.841 248.133 912.038C257.067 910.704 266 909.237 274.933 907.103ZM242.133 912.839C243.333 912.705 244.667 912.438 245.867 912.305C260.267 921.909 269.467 939.382 289.733 929.912L288.133 933.513L290.533 929.645C290.533 929.645 290.533 929.645 290.667 929.645C293.733 924.576 297.733 918.441 300.667 913.372H301.067C300.4 915.106 299.733 916.84 299.2 918.574C306.8 921.642 314.933 924.843 322.533 927.644C319.333 930.178 317.067 932.713 314.267 935.647C318.933 937.248 324 932.979 324.667 928.311C324.933 928.311 325.333 928.578 325.6 928.711C323.733 932.446 321.733 936.981 317.333 937.381C308.267 937.381 297.333 934.847 288.267 933.513C297.733 936.714 307.333 939.915 317.467 940.716C323.6 940.716 327.2 934.58 329.467 929.778C341.2 930.712 349.2 938.715 355.467 948.052V950.319C328.933 947.785 301.733 947.785 275.2 950.186C272.933 947.918 266.4 941.516 264.267 939.382C264.267 941.916 264.267 947.385 264.267 950.052C254.8 948.052 244.8 947.918 235.333 950.186C235.067 938.448 234.667 925.777 234.267 914.039C236.933 913.639 239.6 913.372 242.267 912.972L242.133 912.839ZM235.333 953.787C235.333 952.853 235.333 951.786 235.333 950.853C244.8 953.12 254.667 953.12 264.267 950.986V953.387C257.067 953.387 242.667 953.654 235.467 953.787H235.333ZM316.8 952.987C305.467 952.987 289.067 952.853 277.867 952.987L275.733 950.853C302.133 953.12 329.067 953.12 355.333 950.719V953.654C345.733 953.52 326.4 953.254 316.8 953.12V952.987Z" fill="black"/>
<path d="M61.8662 917.508L67.4661 929.912L78.5329 930.446C78.5329 930.446 93.3328 925.111 93.5994 925.111C93.8661 925.111 99.3328 919.375 99.3328 919.375" fill="white"/>
<defs>
<linearGradient id="paint0_linear_2093_9051" x1="146.666" y1="-92.9994" x2="275.333" y2="-92.9994" gradientUnits="userSpaceOnUse">
<stop stop-color="#EB6B2C"/>
<stop offset="1" stop-color="#D2681A"/>
</linearGradient>
<linearGradient id="paint1_linear_2093_9051" x1="56.0004" y1="685.955" x2="190.4" y2="685.955" gradientUnits="userSpaceOnUse">
<stop stop-color="#0ABBEF"/>
<stop offset="0.2" stop-color="#0D9ACF"/>
<stop offset="0.8" stop-color="#14598E"/>
<stop offset="1" stop-color="#174075"/>
</linearGradient>
<linearGradient id="paint2_linear_2093_9051" x1="184" y1="682.888" x2="288.133" y2="682.888" gradientUnits="userSpaceOnUse">
<stop stop-color="#0ABBEF"/>
<stop offset="0.2" stop-color="#0D9ACF"/>
<stop offset="0.8" stop-color="#14598E"/>
<stop offset="1" stop-color="#174075"/>
</linearGradient>
</defs>
</svg>
