<svg width="282" height="557" viewBox="0 0 282 557" fill="none" xmlns="http://www.w3.org/2000/svg">
<rect width="280" height="387" transform="translate(0.899414 0.0498047)" fill="url(#paint0_linear_2972_9175)"/>
<g clip-path="url(#clip0_2972_9175)">
<path d="M1863.91 235.9V480.045L1849.52 496.983C1849.52 496.983 1845.88 492.71 1841.79 495.609C1836.04 448.001 1816.95 484.47 1816.95 484.47C1816.95 484.47 1813.16 450.9 1797.26 419.009C1797.56 471.347 1780.29 496.83 1780.29 496.83L1779.99 491.337C1767.26 483.402 1731.97 508.274 1741.51 485.996C1714.7 503.544 1719.85 489.658 1719.85 489.658C1704.09 493.168 1691.67 504.154 1691.67 504.154C1691.67 504.154 1713.64 462.802 1716.82 433.963C1696.22 466.465 1656.23 474.247 1656.23 474.247L1656.98 464.939L1626.38 469.974L1629.41 455.783C1613.2 454.868 1598.51 461.887 1598.51 461.887C1598.51 461.887 1626.99 415.804 1630.78 373.537C1612.45 402.529 1576.09 415.041 1576.09 415.041C1303.73 187.986 1157.24 479.893 1157.24 479.893L1148.15 479.435V464.328L1100.13 467.38L1101.19 437.32L1062.87 448.154C1062.87 448.154 1079.08 413.973 1076.35 379.64C1049.99 450.29 974.25 469.364 974.25 469.364L975.613 459.598L933.652 461.734L934.864 437.167C909.87 485.844 849.276 506.291 849.276 506.291L855.033 486.301L845.641 487.064C845.641 487.064 846.398 471.653 843.369 470.127C840.339 468.601 831.553 479.435 831.553 479.435C823.221 455.783 790.198 427.096 790.198 427.096C790.198 427.096 797.318 469.211 786.866 491.489C786.866 491.489 773.838 487.827 765.203 473.484C765.052 484.318 772.778 504.765 772.778 504.765C772.778 504.765 730.514 501.408 715.972 480.808C705.368 488.743 698.097 472.721 698.097 472.721C695.673 484.013 693.098 495.304 690.674 506.443C690.674 506.443 634.928 478.061 615.841 459.445C615.69 463.26 615.538 467.228 615.235 471.195C598.118 465.396 582.212 455.936 568.882 443.728C569.639 447.543 570.397 451.358 571.305 455.325C554.945 450.595 540.1 440.524 529.648 426.943C533.889 433.2 535.253 448.306 535.253 448.306L414.975 330.964L422.852 364.839C206.383 262.45 44.4482 457.614 44.4482 457.614L23.2406 434.115L22.1802 442.66L-12.6609 414.431C-12.6609 414.431 -8.87381 449.527 -17.5083 468.906C-27.8092 464.939 -42.2 446.933 -42.2 446.933L-44.3208 456.241L-75.0718 432.589C-75.0718 432.589 -74.7688 459.903 -85.8271 477.909C-137.483 456.088 -156.267 399.019 -156.267 399.019L-184.442 431.521L-193.077 416.415L-265.031 490.879C-265.031 490.879 -261.547 475.315 -264.577 465.549C-334.865 517.888 -330.32 487.98 -330.32 487.98L-344.257 491.947L-341.833 460.666L-357.89 469.822C-357.89 469.822 -345.923 441.745 -355.012 413.973C-364.707 461.124 -429.542 478.519 -429.542 478.519L-428.784 473.026L-444.084 475.162L-443.478 455.936L-484.53 464.023C-484.53 464.023 -478.925 433.505 -488.166 412.295C-501.345 463.413 -555.121 478.519 -555.121 478.519L-557.999 471.347L-581.933 486.301L-577.995 461.124L-632.832 506.596C-632.832 506.596 -705.846 506.596 -712.057 506.596C-718.268 506.596 -725.085 501.56 -730.538 502.171C-736.143 502.934 -741.293 506.291 -746.898 506.291C-752.352 506.291 -757.199 502.934 -762.047 500.34C-784.163 487.675 -807.794 500.95 -815.368 499.882C-822.943 498.814 -825.972 492.863 -825.972 492.863L-858.238 496.983L-867.024 464.328L-890.352 472.873C-890.352 472.873 -884.748 450.9 -892.776 435.489C-904.743 471.5 -937.009 482.029 -937.009 482.029L-937.464 473.484L-950.643 479.435C-950.643 479.435 -947.916 461.734 -949.279 452.884C-963.822 487.064 -1004.12 492.558 -1004.12 492.558L-1004.57 488.132L-1020.17 489.048L-1018.05 478.672L-1044.56 491.489V323.182L-1020.63 297.089L-991.997 285.339L-967.609 302.734L-920.801 274.81L-861.268 317.078L-846.422 311.737L-830.82 310.211L-763.713 373.689L-730.993 416.11H-708.119L-698.575 447.391L-664.795 368.806L-604.353 317.383L-569.36 273.284L-545.88 262.908L-497.86 224.15L-451.355 209.807L-411.515 231.169L-335.471 197.141L-238.673 248.412L-188.532 239.409L-129.303 188.444L-78.8589 124.966L-38.11 129.238L18.5446 52.0275L58.3845 106.502L90.0445 128.933L98.982 149.228L111.555 137.173L144.578 141.904L161.999 160.367L237.74 111.538L251.222 97.0418L282.579 126.95L317.269 130.917L388.011 190.275L450.422 191.953L544.796 245.513L571.003 232.543L598.572 209.501L616.296 204.313L654.318 183.866L691.583 176.237L722.788 187.681L783.381 169.828L806.558 177.762L825.191 167.081L861.698 120.236L898.054 102.84L929.259 128.628L988.338 87.5812L1065.14 150.296L1082.86 141.751L1102.71 139.462L1196.48 241.545L1239.19 207.365L1289.64 143.887L1330.39 148.312L1387.04 70.9487L1427.03 125.729L1458.54 148.007L1467.33 168.76L1480.2 156.247L1513.23 160.977L1528.98 177.61L1556.85 162.503L1606.24 130.459L1619.72 115.963L1650.92 145.871L1685.76 149.838L1756.2 209.349L1818.92 211.027L1864.21 235.289L1863.91 235.9Z" fill="#98CBD3"/>
<path d="M205.022 255.89L142.005 226.897L65.0515 272.522L104.74 302.277C104.74 302.277 108.527 295.411 106.709 285.187C115.95 288.697 121.403 301.362 121.403 301.362C121.403 301.362 122.463 289.154 118.222 277.863C124.736 279.541 128.826 286.103 128.826 286.103C128.826 286.103 129.886 275.726 123.827 267.181C130.492 266.571 134.885 273.132 134.885 273.132C134.885 273.132 137.763 265.045 133.673 256.042C157.456 278.778 186.389 280.152 186.389 280.152C186.389 280.152 177.755 273.59 175.483 264.892C180.481 269.928 185.329 270.386 185.329 270.386C185.329 270.386 185.935 265.045 183.057 260.62C188.662 260.925 194.569 265.655 194.569 265.655C194.569 265.655 195.024 258.941 191.843 254.364C195.781 255.127 205.022 255.584 205.022 255.584V255.89Z" fill="white"/>
<path d="M-56.136 338.441L-26.8998 367.739L-28.4146 349.428L-11.7515 344.24L13.6976 325.776L39.2982 289.307L-28.8691 333.558L-56.136 338.441Z" fill="white"/>
<path d="M72.3216 116.878L58.3852 111.69L65.8079 126.492C64.7475 128.628 55.507 119.015 50.811 128.933C46.8725 130.001 30.058 103.908 30.058 103.908C30.058 103.908 30.9668 117.336 26.4223 127.407C20.0601 118.862 16.7274 105.587 16.7274 105.587C16.7274 105.587 17.0304 114.437 9.75922 121.151C6.72957 95.9735 3.39693 94.4476 3.39693 94.4476L-9.02468 113.521C-9.02468 113.521 -17.0532 111.233 -22.2036 121.609C-23.4155 111.69 -29.1719 116.573 -29.1719 116.573L18.0908 52.0273L58.0823 106.807L72.1702 116.726L72.3216 116.878Z" fill="white"/>
<path d="M43.6893 197.294L71.8651 218.352L72.7739 217.741L80.0452 225.981C80.3481 226.439 80.954 226.592 81.4085 226.439L90.043 224.761L90.649 231.017L76.7125 233.153L48.2338 227.812L45.81 224.15L40.8111 231.017L31.2677 229.186L33.237 220.488L5.36408 232.085L21.8757 216.521L-8.57227 222.472L43.8407 197.294H43.6893Z" fill="white"/>
<path d="M153.971 152.432L140.337 148.464L127.916 163.418L110.949 154.11L79.744 174.863C78.9866 169.217 96.5586 160.519 98.6793 150.296L111.252 137.325L144.276 142.056L153.819 152.279L153.971 152.432Z" fill="white"/>
<path d="M331.506 143.734L308.935 135.494L309.541 140.377L294.09 139.767V151.211L255.159 130.001L254.553 142.971L248.19 136.563L233.8 151.364L230.921 137.326L206.684 152.432L209.562 138.546L196.383 138.241L237.435 111.843L250.917 97.3467L282.274 127.255L316.964 131.222L331.506 143.734Z" fill="white"/>
<path d="M572.214 308.838L484.505 247.954C484.505 247.954 468.751 257.567 467.994 257.873C467.236 258.178 446.18 237.578 438.909 237.731C431.638 237.883 404.219 266.723 396.645 255.736L377.558 273.284L366.803 262.45C366.349 261.993 365.894 261.382 365.137 261.23C364.379 260.924 363.622 261.23 363.016 261.535L353.018 267.181L348.171 252.379L331.659 241.545L326.357 243.376L317.117 228.423L319.843 241.393L272.884 204.618V216.826C272.732 216.826 261.371 210.569 261.371 210.569H248.344C248.344 210.417 206.383 232.695 206.383 232.695C198.96 226.744 189.417 231.932 189.417 231.932L198.809 203.855L205.02 209.654L219.259 180.356L221.077 192.411L224.106 168.759L238.497 173.337L248.192 139.157L255.766 146.634L256.221 132.595C268.945 139.157 295 153.348 295 153.348V141.293L310.149 141.598L309.694 137.021L331.508 144.498L384.224 188.901C384.224 188.901 369.227 188.901 366.046 188.444C355.896 187.528 348.322 180.356 348.322 180.356L329.841 187.223L309.543 165.86L320.904 179.593C320.904 179.593 314.844 188.139 313.481 197.599C318.48 190.122 321.055 179.746 321.055 179.746L329.69 188.596C329.69 188.596 326.66 193.632 326.206 200.041C329.387 195.005 329.993 188.596 329.993 188.596L338.93 185.697C338.93 185.697 336.204 195.158 336.81 207.212C340.142 195.768 339.385 185.544 339.385 185.544L348.322 181.882C348.322 181.882 346.656 193.327 349.231 204.313C351.352 189.97 348.625 181.882 348.625 181.882C351.958 185.087 358.32 187.833 358.32 187.833C358.32 187.833 357.26 192.106 359.077 198.21C360.138 192.258 358.775 187.986 358.775 187.986C358.775 187.986 362.41 189.054 366.197 189.359C369.984 189.664 384.83 188.901 384.83 188.901L387.859 190.885L450.27 192.564L531.919 238.799L450.422 191.038L388.162 189.054L317.571 129.544L282.882 125.424L250.767 94.7529L236.073 110.165L160.787 158.536L145.032 141.446L110.797 136.258L98.9816 147.549L91.1044 128.628L59.4445 105.739L18.2412 48.9756L-39.6252 127.102L-80.0711 122.982L-131.575 187.376L-189.29 236.815L-238.977 245.513L-335.774 193.327L-411.818 227.66L-431.814 218.962L-451.204 206.755L-500.436 221.861L-547.85 260.772L-572.087 271.911L-606.474 316.162L-667.218 368.196L-698.575 447.391L-707.664 415.499L-730.387 415.194L-762.501 372.468L-830.214 307.465L-846.725 309.143L-860.056 314.636L-920.498 271.758L-967.609 299.835L-979.576 292.663L-991.695 282.44L-1021.39 294.647L-1044.56 319.825V323.182L-1020.63 297.088L-991.997 285.339L-980.939 295.105L-967.609 302.887L-920.801 274.963L-916.256 278.015L-927.466 297.088L-940.796 291.595L-968.821 314.636C-968.821 314.636 -974.577 323.029 -980.485 327.912L-993.664 339.204L-1013.05 327.301L-1044.56 347.901V348.664L-1013.21 328.37L-993.512 340.729L-985.029 332.947C-985.029 332.947 -986.544 339.204 -984.423 345.765C-982.303 339.814 -984.272 332.184 -984.272 332.184L-980.182 328.98C-980.182 328.98 -981.091 335.236 -979.273 340.424C-977.758 334.168 -979.576 328.522 -979.576 328.522L-976.243 325.47C-976.243 325.47 -976.849 331.574 -974.425 336.457C-973.517 330.048 -975.789 324.86 -975.789 324.86L-971.699 319.825C-971.699 319.825 -972.305 324.86 -970.335 329.743C-969.427 323.487 -971.093 319.062 -971.093 319.062L-968.063 314.636L-940.645 291.9L-927.011 297.394L-919.74 284.576C-925.8 331.269 -888.838 332.49 -882.93 371.705C-882.93 371.705 -885.96 377.656 -886.565 389.559C-882.93 378.267 -882.778 371.705 -882.778 371.705L-876.871 371.4C-876.871 371.4 -879.143 377.962 -879.597 387.88C-876.871 379.64 -876.568 371.4 -876.568 371.4L-870.205 371.705C-870.205 371.705 -872.629 379.03 -872.932 389.101C-869.751 379.945 -869.902 371.705 -869.902 371.705L-865.206 372.468C-865.206 372.468 -867.782 378.877 -867.327 387.88C-864.752 379.793 -864.903 372.468 -864.903 372.468L-859.147 373.994C-859.147 373.994 -861.116 379.03 -860.965 385.744C-858.844 380.098 -858.844 374.147 -858.844 374.147C-828.851 385.744 -812.49 418.093 -812.49 418.093C-776.437 403.597 -743.566 460.819 -743.566 460.819C-743.566 460.819 -772.802 403.292 -812.036 416.109C-812.036 416.109 -839 365.754 -882.172 370.027C-888.989 330.353 -924.285 331.269 -919.286 283.508L-915.65 277.252L-860.965 316.162C-860.207 326.539 -873.841 325.776 -878.991 342.408C-863.843 331.116 -852.027 334.778 -852.027 334.778C-852.027 334.778 -841.575 316.773 -830.668 309.296L-763.561 372.774L-740.385 402.987C-752.503 403.597 -744.323 408.48 -770.681 411.074L-736.295 428.164C-736.295 428.164 -736.598 435.183 -733.416 443.423C-733.871 434.573 -736.143 428.164 -736.143 428.164C-733.719 428.927 -732.053 427.554 -732.053 427.554C-732.053 427.554 -732.053 432.894 -730.235 438.693C-729.932 432.894 -731.75 427.249 -731.75 427.249L-728.417 425.875C-728.417 425.875 -728.417 429.995 -726.448 435.031C-726.751 429.537 -727.963 425.875 -727.963 425.875L-725.085 425.112C-725.085 425.112 -725.085 428.774 -723.57 432.894C-723.57 427.554 -724.782 424.96 -724.782 424.96C-724.782 424.96 -712.815 423.129 -705.695 423.281L-696.303 454.715L-698.424 446.17L-672.975 402.987L-660.856 389.406L-658.432 397.951L-634.044 378.114C-628.742 377.199 -605.413 365.754 -605.413 365.754L-595.719 375.062C-576.783 362.397 -566.331 359.193 -566.331 359.193C-566.331 359.193 -565.27 371.095 -559.969 383.455C-561.938 369.569 -566.028 359.04 -566.028 359.04C-566.028 359.04 -564.059 358.43 -562.544 358.43C-561.029 358.43 -559.363 358.888 -559.363 358.888C-559.363 358.888 -558.757 368.959 -554.667 378.572C-555.273 368.501 -559.06 358.888 -559.06 358.888L-553.909 359.956C-553.909 359.956 -553.152 369.111 -549.062 377.046C-549.819 368.348 -553.606 359.956 -553.606 359.956L-547.547 360.871C-547.547 360.871 -547.547 367.128 -543.911 374.147C-544.517 367.128 -547.093 360.871 -547.093 360.871L-540.882 361.329C-540.882 361.329 -540.579 366.823 -537.549 372.621C-537.852 366.365 -540.276 361.329 -540.276 361.329C-540.276 361.329 -521.643 362.855 -494.68 346.986C-430.148 363.923 -429.996 446.475 -429.996 446.475C-429.996 446.475 -425.906 365.449 -494.831 345.307C-536.186 368.043 -553.909 356.599 -562.847 357.057C-571.784 357.514 -595.567 373.842 -595.567 373.842L-605.11 364.686C-605.11 364.686 -629.196 376.131 -634.347 377.046C-635.407 377.046 -648.435 380.251 -647.98 372.774C-647.223 361.482 -588.75 336.762 -588.75 336.762L-583.903 338.288L-565.725 335.541L-563.453 338.593L-561.938 328.217L-564.665 329.743L-576.48 330.964L-569.663 324.555L-600.263 329.438L-550.274 287.933L-531.793 285.186L-486.802 260.924L-454.385 275.726L-439.994 265.35C-439.994 265.35 -442.115 274.658 -438.631 282.898C-436.056 273.284 -439.237 264.892 -439.237 264.892L-433.026 260.467C-433.026 260.467 -434.086 269.47 -431.057 276.336C-429.542 267.944 -432.269 259.856 -432.269 259.856L-426.664 256.042C-426.664 256.042 -427.421 264.129 -424.24 270.69C-423.028 262.45 -425.603 255.431 -425.603 255.431L-418.787 250.701C-418.787 250.701 -419.847 257.567 -416.817 263.213C-415.757 256.042 -418.181 250.396 -418.181 250.396L-368.646 217.131L-346.681 223.54L-334.259 207.67C-350.922 289.917 -268.819 259.551 -274.878 314.026C-274.878 314.026 -281.089 326.539 -281.089 337.678C-275.635 329.285 -274.575 314.026 -274.575 314.026C-274.575 314.026 -267.91 313.721 -264.729 313.721C-264.729 313.721 -269.879 325.928 -269.879 336.152C-264.729 326.081 -264.577 313.721 -264.577 313.721C-261.093 313.721 -257.609 313.873 -254.125 314.179C-254.125 314.179 -259.124 325.013 -258.821 334.931C-254.428 326.081 -253.973 314.179 -253.973 314.179C-251.398 314.484 -248.671 314.789 -246.096 315.094C-247.157 317.993 -249.58 324.707 -249.732 334.015C-246.248 325.623 -246.096 318.299 -245.945 315.094C-242.915 315.552 -236.401 316.925 -236.25 317.078C-236.25 317.078 -239.583 323.487 -239.28 331.574C-235.795 325.013 -235.947 317.078 -235.947 317.078C-235.947 317.078 -186.563 325.318 -157.024 371.248C-101.733 319.519 -27.8095 448.916 -27.8095 448.916C-27.8095 448.916 -99.0065 320.13 -156.873 368.959C-200.954 302.887 -274.272 312.805 -274.272 312.805C-269.425 258.33 -348.802 289.917 -334.108 207.212L-328.2 199.735L-239.885 246.581C-244.43 264.587 -264.88 255.584 -268.213 278.015C-249.429 260.009 -225.04 270.69 -225.04 270.69L-209.74 255.736L-181.413 244.75C-181.413 244.75 -81.1315 315.857 -80.9801 315.857L-43.5638 352.479C-77.6474 351.258 -50.8349 363.771 -91.7353 362.092L-38.1104 383.15C-38.1104 383.15 -37.353 392 -32.2026 401.613C-32.5055 391.847 -37.3529 383.15 -37.3529 383.15L-29.9303 381.624C-29.9303 381.624 -29.9303 389.559 -25.3859 395.51C-25.3859 388.185 -29.4759 381.471 -29.4759 381.471C-29.4759 381.471 -11.2979 378.114 13.0908 377.809L32.1776 422.671L9.60672 366.212H-27.2037C-27.2037 366.06 -56.5913 336.762 -56.5913 336.762L-29.3244 331.879L53.5367 278.167L73.5324 290.832C73.5324 290.832 70.8058 303.955 72.4721 317.841C75.1988 303.955 73.6839 290.832 73.6839 290.832L81.561 296.02C81.561 296.02 78.6829 307.617 80.0462 321.35C83.2274 308.075 81.7125 296.02 81.7125 296.02L88.6807 300.751C88.6807 300.751 85.651 310.974 86.4084 325.47C89.5896 312.348 88.8322 300.751 88.8322 300.751L95.3459 305.481C95.3459 305.481 92.3163 316.162 93.6797 332.642C96.8608 317.383 95.4974 305.634 95.4974 305.634L103.677 311.737C103.677 311.737 102.011 318.299 103.223 330.964C105.495 319.977 103.98 312.042 103.98 312.042L140.488 341.035L124.279 326.996L141.548 316.01L149.577 320.893L155.636 316.925C155.636 316.925 156.848 327.149 161.695 335.389C160.332 324.555 155.788 316.773 155.788 316.773L161.241 312.958C161.241 312.958 161.847 321.503 166.24 327.759C166.088 319.519 161.392 312.805 161.392 312.805L166.694 308.838L174.42 321.503L186.993 316.162L194.567 321.045C194.567 321.045 192.901 329.59 195.931 343.324C197.142 330.811 194.719 321.198 194.719 321.198C194.719 321.198 196.991 323.029 201.384 323.487C201.384 323.487 199.869 329.59 201.384 338.441C203.505 330.048 201.687 323.639 201.687 323.639C206.686 324.097 209.564 325.013 209.564 325.013C209.564 325.013 208.049 330.353 209.564 336.762C211.079 330.658 209.715 325.013 209.715 325.013C209.715 325.013 219.562 327.912 228.802 338.135C219.713 325.928 207.595 323.029 201.535 322.266C196.536 321.656 195.93 320.282 187.144 314.636L175.026 319.367L167.149 306.549C159.878 312.5 148.668 318.756 148.668 318.756L141.245 314.942L135.034 318.909L130.338 307.922L118.371 311.127C118.371 311.127 79.7432 282.287 64.595 270.69L68.382 268.249C84.1362 265.96 99.5875 261.535 112.615 252.837C123.067 245.818 141.548 225.066 141.548 225.066L204.565 254.058C204.565 254.058 212.745 245.971 220.925 252.685C220.925 252.685 211.382 270.538 212.442 290.222C220.622 274.047 220.925 252.837 220.925 252.837L229.257 259.399C229.257 259.399 223.046 269.47 223.197 284.271C230.014 271.606 229.711 259.704 229.711 259.704L236.982 265.502C236.982 265.502 231.832 274.2 232.135 287.475C238.043 277.709 237.134 265.655 237.134 265.655L246.374 272.979C246.374 272.979 241.072 280.914 241.224 292.511C246.98 283.355 246.526 272.979 246.526 272.979L254.706 279.388C254.706 279.388 251.373 283.05 250.616 292.053C254.554 286.255 254.857 279.541 254.857 279.541L277.731 297.394L221.38 251.464C212.442 245.055 204.414 252.685 204.414 252.685L172.602 237.883L188.811 230.711C188.811 230.711 198.809 225.523 205.928 231.627L248.192 209.806L264.401 222.777C264.401 222.777 256.221 235.442 256.221 245.208C261.22 238.341 263.643 226.744 264.552 222.929C265.916 224.15 268.642 226.439 268.642 226.439C268.642 226.439 263.189 236.205 263.643 246.123C268.036 239.562 268.945 226.744 268.945 226.744L273.641 231.017C273.641 231.017 268.794 238.951 268.794 247.039C272.884 241.698 273.944 231.169 273.944 231.169L278.337 235.137C278.337 235.137 274.399 241.088 274.55 249.175C278.186 243.682 278.64 235.442 278.64 235.442L283.336 239.714C283.336 239.714 280.609 245.818 281.064 252.379C284.093 247.191 283.791 240.019 283.791 240.019L291.971 246.886L312.421 238.494L319.995 249.938L353.321 266.113L363.47 260.161C364.076 259.856 364.531 259.704 365.137 259.856C365.743 260.009 366.197 260.467 366.652 260.924L377.71 272.216L396.494 255.279C400.432 261.687 413.46 253.6 413.46 253.6C413.46 253.6 426.184 252.685 432.85 249.785C432.85 253.295 431.486 261.687 431.486 261.687C431.486 261.687 440.727 254.363 444.211 250.548C445.726 255.279 457.087 257.567 462.086 262.756L453.754 246.276C456.935 248.87 467.691 258.483 467.691 258.483L484.354 248.259L486.323 249.48C486.323 249.48 485.111 266.723 487.383 278.472C489.05 266.265 486.626 249.785 486.626 249.785L495.715 255.889C495.715 255.889 494.352 268.859 496.169 280.303C497.836 269.012 496.169 256.194 496.169 256.194L503.895 261.382C503.895 261.382 501.926 270.69 504.046 284.576C505.41 274.505 504.349 261.687 504.349 261.687L511.166 266.57C511.166 266.57 509.803 276.031 511.166 285.797C513.135 277.252 511.772 267.028 511.772 267.028L520.104 272.827C520.104 272.827 518.892 282.135 520.861 288.849C522.073 281.524 520.558 273.132 520.558 273.132L571.759 308.38C594.785 323.029 602.813 292.358 631.14 322.113C604.48 292.206 592.967 321.656 572.062 307.465L572.214 308.838ZM237.437 111.843L250.919 97.3469L282.276 127.255L316.965 131.222L331.356 143.735L308.937 135.495L309.391 140.378L294.091 139.767V151.212L255.16 130.001L254.403 142.972L248.041 136.563L233.65 151.364L230.772 137.326L206.534 152.432L209.412 138.546L196.233 138.241L237.437 111.69V111.843ZM-852.33 334.015C-852.33 334.015 -864.6 331.421 -877.628 341.187C-873.235 327.912 -859.753 327.607 -860.813 316.925L-846.423 311.585L-831.123 310.059C-841.272 315.399 -852.33 333.863 -852.33 333.863V334.015ZM-736.295 427.554L-767.651 412.6C-745.081 409.548 -751.291 405.123 -740.385 404.055L-731.144 416.109H-708.27L-705.846 424.044C-730.993 422.976 -731.75 428.469 -736.295 427.554ZM-346.681 224.303L-368.343 217.741L-454.234 275.726L-486.499 261.077L-531.793 285.949L-560.575 289.764V280.303L-573.905 285.644L-569.663 273.589L-546.335 263.213L-498.315 224.455L-451.81 210.112L-433.783 221.861L-412.121 231.322L-336.077 197.294L-328.503 201.261L-346.832 224.303H-346.681ZM-225.192 270.538C-225.192 270.538 -247.914 261.382 -265.183 275.268C-259.124 258.636 -243.067 265.96 -238.977 248.565L-193.532 240.325L-225.192 270.538ZM-27.3551 369.264L9.30374 368.959L13.3938 379.335C-10.692 377.809 -37.3529 383.76 -37.3529 383.76L-85.8274 364.839C-52.3497 365.602 -75.5266 354.615 -42.9578 354.31L-27.3551 369.417V369.264ZM111.252 137.478L144.275 142.209C147.456 145.718 153.818 152.432 153.818 152.432L140.185 148.465L127.763 163.419L110.797 154.111L79.5917 174.863C82.9243 165.402 95.6489 162.503 98.527 150.296L111.1 137.326L111.252 137.478ZM18.0897 52.18L57.9297 106.655C57.9297 106.655 57.9297 106.808 58.2327 106.808L72.3205 116.726L58.3841 111.538L65.8068 126.339C63.989 127.713 54.2941 117.336 50.81 128.781C48.5377 129.238 30.0569 103.756 30.0569 103.756C30.0569 103.756 30.0569 115.963 26.4213 127.255C19.756 115.2 16.7263 105.434 16.7263 105.434C16.7263 105.434 15.969 113.216 9.75817 120.999C9.15224 117.947 7.33448 87.2759 1.27517 95.821L-9.02573 113.369C-17.8117 110.47 -22.2047 121.456 -22.2047 121.456C-22.2047 121.456 -22.8106 111.538 -29.1729 116.421L18.0897 51.8748V52.18ZM-176.869 245.208C-166.568 235.289 -159.751 264.281 -121.274 232.543C-121.274 232.543 -123.244 239.867 -120.063 247.954C-118.396 238.646 -120.971 232.39 -120.971 232.39C-120.971 232.39 -114.761 227.965 -111.428 226.134C-111.428 226.134 -114.155 235.442 -111.58 244.902C-108.701 234.526 -111.125 225.981 -111.125 225.981C-110.822 225.829 -103.854 222.166 -103.248 221.861C-103.248 221.861 -105.672 230.864 -103.551 241.698C-100.37 230.559 -103.097 221.709 -103.097 221.709C-102.945 221.709 -97.7946 219.42 -96.8857 219.114C-96.8857 219.114 -99.0065 228.117 -97.0372 242.613C-94.0075 228.88 -96.7342 219.114 -96.7342 219.114C-94.3105 218.199 -89.6145 216.673 -89.6145 216.673C-89.6145 216.673 -91.5838 228.117 -90.069 246.581C-86.4334 228.423 -89.1601 216.673 -89.1601 216.673C-89.1601 216.673 -78.7077 212.706 -57.8031 229.796L-82.4949 206.144L-105.975 216.215L-125.062 211.332L-151.117 227.66L-167.325 222.014L-129.909 188.901L-79.4652 125.424L-38.7163 129.696L-30.6878 119.015C-22.6592 110.928 -22.8106 124.508 -22.8106 124.508C-22.8106 124.508 -18.5691 111.385 -8.87419 114.742C0.820704 118.099 -8.72269 114.742 -8.57121 114.59L2.03259 97.0417C4.60779 93.8373 6.57707 101.467 8.84931 124.661C14.3027 119.32 16.8779 110.775 16.8779 110.775C16.8779 110.775 20.5134 121.304 26.5727 130.612C29.1479 123.745 31.1173 115.505 30.8143 108.181C30.8143 108.181 47.7803 131.68 51.5674 131.222C54.4456 118.099 63.686 130.612 66.7157 127.56L59.2931 113.064L72.775 117.794L89.4381 129.544L98.0726 150.449C93.6796 164.182 79.2888 165.86 76.4106 178.983L101.405 162.351C101.405 162.351 101.405 167.386 103.526 172.116C103.98 166.471 101.708 162.045 101.708 162.045L107.162 158.383C107.162 158.383 106.404 164.487 109.131 170.896C109.737 164.182 107.465 158.231 107.465 158.231L110.494 156.247L115.19 158.994C115.19 158.994 114.281 167.234 117.917 174.558C118.22 166.318 115.645 159.146 115.645 159.146L123.219 163.419C123.219 163.419 122.31 168.759 126.4 177.61C125.794 168.454 123.522 163.571 123.522 163.571L127.915 165.708L140.336 149.38L153.667 152.89C153.667 152.89 157.605 157.163 159.726 159.146L71.4117 216.215L43.3874 195.463C43.3874 195.463 -108.853 269.47 -108.853 269.622L-120.668 286.102L-177.172 245.513L-176.869 245.208ZM-9.48016 222.929L19.4531 217.741L1.7296 234.374L31.2687 222.777L29.7539 229.033C7.78891 223.997 9.45517 257.72 -9.02573 265.655L-25.9917 271.911L-36.5955 281.829L-40.9886 276.336L-64.014 289.459C-77.193 271.758 -93.4016 263.061 -93.4016 263.061L-9.48016 222.624V222.929ZM-77.6474 316.925L-60.6813 314.026L-72.6485 321.961L-77.6474 316.925ZM-29.4759 331.574L-57.8031 336.762L-71.7395 322.876L-55.5309 311.89L-79.0107 315.552L-119.305 286.407L-108.095 270.843C-108.095 270.843 -94.462 274.963 -76.1326 299.835C-66.5892 311.737 -40.0797 295.257 -40.0797 295.257C-40.0797 295.257 -39.4738 303.192 -36.7471 310.059C-36.7471 301.666 -39.1708 294.8 -39.1708 294.8L-32.657 291.443C-32.657 291.443 -32.2026 298.92 -29.1729 305.786C-29.1729 297.699 -32.2026 291.29 -32.2026 291.29L-25.9917 287.78C-25.9917 287.78 -25.9918 293.731 -22.8106 300.14C-23.1136 292.206 -25.6888 287.628 -25.6888 287.628L-19.0236 283.508C-19.0236 283.508 -19.0236 289.001 -15.8425 293.731C-16.2969 287.323 -18.7206 283.355 -18.7206 283.355L-11.1464 278.472C-11.1464 278.472 -10.995 283.355 -8.41976 287.78C-8.41976 282.135 -10.5406 278.167 -10.5406 278.167C12.9393 267.333 8.09186 298.767 52.1733 279.235L-29.3244 331.727L-29.4759 331.574ZM42.327 231.322L45.6596 226.439L47.1744 229.186C47.1744 229.186 45.5081 232.085 42.327 231.474V231.322ZM48.0833 227.812L45.6596 224.15L40.6607 231.017L31.1172 229.186L33.0866 220.488L5.21369 232.085L21.7253 216.52L-8.72275 222.471L43.6904 197.294L71.8661 218.352L72.775 217.741L80.0462 225.981C80.3492 226.439 80.9551 226.591 81.4095 226.439L90.044 224.76C68.079 249.022 62.1713 206.144 48.2348 227.66L48.0833 227.812ZM127.612 190.885C104.738 195.615 90.4985 224.15 90.4985 224.15L81.4095 226.134C80.9551 226.134 80.3491 226.134 79.8947 225.676L72.6235 217.741L161.544 160.672C161.544 160.672 171.39 181.425 127.46 191.038L127.612 190.885ZM459.965 261.382C456.481 257.72 446.483 256.194 444.665 250.243C439.212 256.042 433.153 260.314 433.153 260.314C433.153 260.314 433.91 257.415 434.061 249.785C427.093 253.142 414.975 254.516 414.975 254.516C420.579 251.616 435.576 239.257 439.06 238.951C442.545 238.646 453.3 247.344 453.3 247.344L459.965 261.535V261.382Z" fill="black"/>
</g>
<rect width="280" height="62" transform="translate(0.899414 387.05)" fill="#76B943"/>
<g clip-path="url(#clip1_2972_9175)">
<rect width="280" height="107" transform="translate(0.899414 449.05)" fill="#757B70"/>
<path d="M1.89941 501.05H401.899" stroke="white" stroke-width="5" stroke-linejoin="round" stroke-dasharray="20 20"/>
</g>
<defs>
<linearGradient id="paint0_linear_2972_9175" x1="140" y1="0" x2="140" y2="236.5" gradientUnits="userSpaceOnUse">
<stop stop-color="#A2E3FF"/>
<stop offset="1" stop-color="#E2F8FF"/>
</linearGradient>
<clipPath id="clip0_2972_9175">
<rect width="280" height="507" fill="white" transform="translate(1.19922 20.5)"/>
</clipPath>
<clipPath id="clip1_2972_9175">
<rect width="280" height="107" fill="white" transform="translate(0.899414 449.05)"/>
</clipPath>
</defs>
</svg>
