<svg width="185" height="210" viewBox="0 0 185 210" fill="none" xmlns="http://www.w3.org/2000/svg">
<g filter="url(#filter0_d_2946_28324)">
<circle cx="95" cy="110" r="90" fill="#76B82A"/>
</g>
<path d="M75.3219 0C79.1494 0 82.9769 0 86.8043 0C90.6318 0 91.7254 1.11244e-05 94.0948 0.182318C96.4642 0.364626 96.0997 0.546927 97.1932 0.546927C98.2868 0.546927 99.5627 0.911559 100.656 1.27617C101.75 1.64079 101.75 1.64078 102.297 1.64078C103.026 1.82309 103.755 2.1877 104.484 2.55232C105.395 3.09924 105.759 3.82848 105.395 4.92232C105.03 5.65155 105.03 6.38076 104.666 7.29229C104.484 7.83921 104.119 8.38615 103.572 8.93307C103.026 9.48 101.567 9.29768 101.75 9.66229C101.932 11.1208 102.114 12.5792 101.932 14.22C101.932 14.7669 102.661 14.5846 103.026 14.5846C104.484 14.5846 105.759 14.7669 107.218 14.9492C110.134 15.3138 111.41 16.9546 110.681 19.6892C110.316 21.33 110.681 21.6946 112.139 21.8769C114.508 22.4238 115.602 23.8823 115.966 26.2523C116.513 30.0807 115.966 33.7268 115.602 37.373C115.055 44.1184 114.69 50.8637 114.873 57.6091C114.873 58.703 115.419 59.0676 116.331 59.6145C121.069 62.1668 125.626 64.7191 129.818 68.0006C132.005 69.8237 134.192 71.4645 136.379 73.4698C143.123 79.8506 146.586 87.8721 148.044 96.8052C149.138 102.457 149.502 108.108 149.684 113.942C150.413 136.184 150.778 158.607 150.231 180.849C150.231 185.042 149.867 189.235 149.32 193.428C148.955 196.163 147.133 198.533 144.763 200.173C142.576 201.632 140.207 202.543 137.837 203.273C130.365 206.007 122.527 207.283 114.508 208.013C102.297 209.106 90.2673 209.836 78.0559 209.653C68.7606 209.653 59.8298 208.195 51.0813 204.549C47.4361 202.908 44.8844 200.356 43.0618 196.892C42.6973 196.163 42.515 195.433 42.515 194.522C41.786 185.042 41.6037 175.562 40.8746 166.082C39.7811 153.32 39.7811 140.377 39.4166 127.433C39.2343 116.13 38.323 104.644 39.9633 93.5236C40.6924 88.0544 42.3327 82.9498 44.8844 78.0275C47.6183 73.2875 51.6281 70.006 56.0024 66.9068C60.0121 64.1722 64.5686 62.1668 68.7606 59.9791C70.9477 58.8853 70.9477 58.8853 70.5832 56.5153C70.0364 51.7753 69.4896 47.2176 69.125 42.4776C68.7605 37.1907 68.396 31.7215 69.125 26.4346C69.6718 21.8769 70.5831 20.9653 74.9574 20.6007C75.8687 20.6007 77.3269 20.9653 77.8736 20.2361C78.2382 19.6892 77.8736 18.413 77.8736 17.5015C77.8736 15.3138 78.4204 14.5846 80.6075 14.4023C82.2479 14.22 83.7059 14.22 85.3463 14.22C86.0753 14.22 86.2576 14.0377 86.2576 13.3084C85.8931 8.93306 85.8931 8.93306 81.7011 9.11536C71.859 9.11536 62.1992 10.2092 52.5394 12.3969C48.8941 13.1261 45.4312 10.0269 46.1602 6.19846C46.3425 4.74001 47.436 4.3754 48.5296 4.01078C51.8103 3.09925 55.091 2.36999 58.3717 1.82307C63.1105 1.09384 67.8493 0.911542 72.588 0.546927C73.4993 0.546927 74.4106 0.546927 75.3219 0.546927V0ZM101.385 87.8721C101.203 87.8721 100.838 87.8721 100.838 87.8721C100.838 88.2367 101.203 88.0544 101.385 88.0544C101.75 88.0544 102.114 88.0544 102.661 88.0544C103.39 88.419 104.301 88.6014 105.213 88.6014C105.213 88.6014 105.395 88.7837 105.577 88.7837C113.597 90.4244 121.798 90.6067 130 90.2421C133.099 90.2421 136.015 89.3306 138.749 87.8721C140.936 86.596 140.936 84.9552 138.749 83.4967C138.384 83.1321 138.02 82.9498 137.291 82.9498C134.192 81.6737 130.911 81.6737 127.813 81.856C119.064 82.2206 110.681 84.9552 102.479 87.6898C102.114 87.6898 101.75 87.6898 101.385 87.6898V87.8721ZM44.5198 176.291C44.5198 176.291 44.5199 176.656 44.7022 176.838C44.5199 181.943 45.0667 187.047 45.2489 192.152C45.2489 193.61 45.249 195.433 45.978 196.892C47.4361 199.626 49.6232 201.085 52.3571 202.179C59.8298 204.913 67.4847 206.007 75.3219 206.19C88.8092 206.19 102.296 205.46 115.602 204.366C123.803 203.637 131.823 201.814 139.66 199.262C141.665 198.533 143.487 197.803 144.763 196.163C145.31 195.616 145.857 195.069 145.675 194.34C145.31 192.881 145.675 191.423 145.857 189.964C146.586 180.12 146.586 170.457 146.586 160.613C146.95 150.586 146.404 140.741 146.221 130.714C146.221 123.057 145.857 115.401 145.31 107.744C145.31 105.921 145.31 103.915 144.581 102.092C144.399 97.7167 143.305 93.706 141.847 89.5129C141.483 88.419 141.118 88.4191 140.389 89.1483C139.113 90.2421 137.655 90.6067 136.197 91.1536C128.724 93.7059 121.069 92.7944 113.414 92.2475C108.129 91.8829 103.208 90.6067 98.1045 89.6952C97.5577 89.5129 97.011 89.3306 96.2819 89.5129C96.2819 89.1483 95.7351 89.1483 95.5528 89.1483C94.277 88.7837 93.1834 88.6014 91.9076 88.2367C86.4398 86.9606 80.972 86.4137 75.3219 85.8667C74.7752 85.8667 74.0461 85.8667 73.8639 85.8667C73.6816 86.4137 74.2283 86.7783 74.5929 87.3252C75.3219 88.4191 75.8687 89.3306 76.5978 90.4244C76.7801 90.789 77.1446 91.1537 76.5978 91.5183C76.051 91.8829 75.8687 91.5183 75.5042 91.1536C74.4106 89.6952 73.4993 88.2367 72.588 86.9606C71.6767 85.8668 69.3073 85.3198 68.0315 86.0491C68.0315 86.0491 68.0315 86.4137 68.0315 86.596C67.667 86.596 67.3025 86.596 66.7557 86.596C66.3911 85.8667 65.8444 85.8667 65.1154 85.8667C61.2879 86.2314 57.2781 86.7783 53.4507 87.5075C50.7168 88.0544 47.9829 88.6013 45.6135 89.8775C44.3377 90.6067 43.6086 91.336 43.4263 92.7944C43.0618 95.8937 42.8795 98.8106 42.6972 101.91C42.1505 109.567 42.515 117.224 42.6972 125.063C42.6972 140.012 43.2441 154.779 44.3376 169.728C44.3376 171.369 44.3376 172.827 44.3376 174.468C44.3376 175.015 44.1554 175.744 44.3376 176.291H44.5198ZM72.2235 26.6169C72.2235 27.3461 72.2235 28.2576 72.2235 28.9869C71.859 36.4615 72.7703 43.9361 73.1348 51.4107C73.1348 53.0514 73.4993 54.6922 73.4993 56.333C73.4993 57.9737 74.9575 57.6091 76.051 57.6091C77.3269 57.6091 76.78 56.6976 76.78 55.9684C76.5977 53.4161 76.5978 50.6814 76.5978 48.1291C76.5978 41.0192 76.5977 33.7269 76.4155 26.6169C76.4155 25.8876 76.4155 24.9761 76.4155 24.2469C76.4155 23.7 76.2333 23.5177 75.6865 23.5177C73.3171 23.5177 72.588 24.0646 72.2235 26.4346V26.6169ZM98.2867 57.6091C99.198 57.6091 100.109 57.6091 100.838 57.6091C103.026 57.6091 102.843 57.6091 103.026 55.4214C103.755 46.1238 103.026 36.8261 103.026 27.5284C103.026 26.7992 103.026 26.07 103.39 25.3407C103.572 24.4292 103.39 24.0646 102.297 24.0646C101.203 24.0646 100.109 24.0646 99.0158 24.0646C97.74 23.8823 97.3754 24.4292 97.3754 25.7053C97.3754 27.893 97.3755 29.8984 97.1932 32.0861C96.8287 39.9253 96.0997 47.9468 96.0997 55.786C96.0997 57.2445 96.8287 57.913 98.2867 57.7914V57.6091ZM80.7898 57.9737C81.5188 57.9737 82.2479 57.9737 82.9769 57.9737C85.3463 57.9737 85.3463 57.9737 85.3463 55.6037C85.3463 53.5983 85.3463 51.593 85.3463 49.5876C85.3463 41.9307 85.3463 34.4561 85.3463 26.7992C85.3463 26.2523 85.3462 25.7053 85.5285 25.3407C85.893 24.0646 85.5285 23.5177 84.0704 23.5177C82.7946 23.5177 81.5188 23.5177 80.4252 23.5177C79.3317 23.5177 78.9672 23.8823 78.9672 24.9761C79.5139 34.2738 78.9672 43.5714 79.3317 52.8691C79.3317 54.1453 79.3317 55.4214 79.3317 56.6976C79.3317 57.7914 79.8785 58.156 80.7898 57.9737ZM95.1884 27.1638C95.1884 26.6169 95.1884 26.07 95.1884 25.7053C95.1884 23.7 95.1884 23.6999 93.3658 23.6999C91.9077 23.6999 90.4496 23.6999 88.9915 23.6999C87.7157 23.6999 87.3511 23.8823 87.3511 25.1584C87.3511 28.4399 87.5334 31.9038 87.3511 35.1853C87.3511 42.113 86.9866 49.0407 87.1689 55.9684C87.1689 57.7914 87.1688 57.7914 89.1737 57.7914C90.085 57.7914 90.9963 57.7914 91.9076 57.7914C93.3657 57.7914 93.7302 57.4268 93.7302 55.9684C93.7302 50.8638 93.7303 45.7591 94.0948 40.6545C94.4593 36.0968 94.6416 31.7215 95.0061 27.1638H95.1884ZM113.05 27.1638C113.232 25.7053 112.503 25.1584 111.227 24.9761C109.587 24.6115 107.947 24.6115 106.306 24.2469C105.577 24.2469 105.213 24.2469 105.213 25.1584C105.213 26.0699 105.213 26.9815 105.213 27.7107C105.577 37.1907 105.759 46.4884 105.395 55.9684C105.395 57.6091 106.124 57.4268 107.035 57.2445C108.311 57.4268 109.587 57.6091 110.863 57.7914C111.774 57.7914 112.321 57.7914 112.139 56.5153C111.774 51.593 111.956 46.853 112.139 41.9307C112.503 37.0084 113.232 32.0861 112.685 27.1638H113.05ZM136.561 79.486C136.015 78.7568 135.468 78.2098 134.921 77.4806C128.724 70.9175 121.434 65.8129 113.961 61.0729C113.597 60.8906 113.232 60.7083 112.685 60.7083C108.858 60.3437 105.213 60.3437 101.385 60.3437C93.0012 60.526 84.6172 61.2553 76.2332 60.7083C75.5042 60.7083 74.9575 60.7083 74.2284 61.0729C68.9429 63.8076 63.8396 66.9068 58.7363 70.006C56.0024 71.6468 53.4506 73.6522 51.2635 76.0222C48.1651 79.1214 46.3425 83.1321 45.0667 87.3252C45.0667 87.8721 44.7021 88.7837 45.7957 88.2367C48.5296 86.9606 51.4458 86.596 54.362 85.6844C55.091 85.6844 55.6377 85.6844 56.3668 85.6844C67.8492 83.4967 79.1495 83.8614 90.6319 86.0491C94.6416 86.7783 98.8335 86.596 102.843 85.5021C110.498 83.4968 117.971 80.9444 125.99 79.8506C129.636 79.8506 133.281 79.8506 136.926 80.5798C137.108 80.5798 137.291 80.5798 137.291 80.5798C137.291 80.2152 137.291 80.0329 136.926 80.0329L136.561 79.486ZM84.7995 2.18771C80.7898 2.18771 77.1446 2.36999 73.4993 2.73461C66.2089 3.09922 58.7362 3.64616 51.6281 5.65154C48.7119 6.38077 48.7119 6.38077 49.6232 9.29768C49.9878 10.3915 50.17 10.5738 51.4458 10.3915C61.2879 8.02154 71.3122 7.10999 81.3365 6.92768C87.8979 6.92768 94.4593 6.56308 101.021 7.65693C101.75 7.65693 102.297 7.65693 102.661 6.74539C103.208 4.92232 103.208 4.55769 101.385 4.19307C95.9174 2.91692 90.2673 2.55231 84.7995 2.37V2.18771ZM88.6269 16.59C86.4398 16.59 84.435 16.59 82.2478 16.59C81.5188 16.59 80.6075 16.4077 80.7898 17.6838C80.7898 19.6892 81.1543 20.4184 82.4302 20.4184C90.6319 20.4184 98.8335 20.7831 106.853 21.33C107.218 21.33 107.4 21.33 107.582 20.9653C107.947 19.6892 106.671 17.6838 105.213 17.5015C99.7449 17.1369 94.0948 16.4077 88.4447 16.59H88.6269ZM99.198 87.6898H99.7449C99.7449 87.5075 99.5626 87.5075 99.3804 87.5075C99.1981 87.5075 98.8336 87.5075 98.8336 87.5075C98.8336 87.6898 99.0159 87.6898 99.3804 87.8721L99.198 87.6898Z" fill="#080D0E"/>
<path d="M44.3376 169.911C43.244 155.144 42.8794 140.194 42.6972 125.245C42.6972 117.588 42.3326 109.931 42.6972 102.092C42.8794 98.993 43.0617 96.076 43.4263 92.9768C43.4263 91.3361 44.3376 90.6068 45.6134 90.0599C48.1651 88.7838 50.7167 88.2368 53.4506 87.6899C57.2781 86.9607 61.1056 86.4138 65.1153 86.0492C65.8444 86.0492 66.3911 86.0492 66.7556 86.7784C67.1201 87.3253 67.1201 88.4191 68.0314 88.0545C68.5782 87.8722 68.0314 87.143 68.0314 86.7784C68.0314 86.5961 68.0314 86.2315 68.0314 86.2315C69.3073 85.5022 71.6767 86.0491 72.588 87.143C73.6815 88.6014 74.5928 90.0599 75.5041 91.3361C75.6863 91.7007 76.0509 92.0653 76.5977 91.7007C77.1445 91.3361 76.5977 90.9715 76.5977 90.6068C76.0509 89.513 75.3218 88.6014 74.5928 87.5076C74.2283 86.9607 73.6815 86.5961 73.8638 86.0492C73.8638 85.8669 74.7751 86.0492 75.3219 86.0492C80.7897 86.4138 86.4397 87.143 91.9075 88.4191C93.1834 88.6014 94.2769 88.9661 95.5528 89.3307C95.735 89.513 96.0996 89.6953 96.2818 89.6953C96.6464 90.4245 97.3754 90.4245 98.1045 90.6068C98.8335 90.7892 99.3802 91.1538 100.109 91.3361C109.222 94.4353 118.7 95.7114 128.36 95.5291C131.64 95.5291 134.921 94.6176 137.837 92.9768C140.389 91.5184 140.389 91.5184 140.936 94.4353C141.665 97.7168 142.212 100.998 143.305 104.098C143.305 104.462 143.487 104.827 143.852 104.827C144.216 104.827 144.399 104.28 144.399 103.915C144.399 103.368 144.399 102.821 144.399 102.274C144.945 104.098 144.945 105.921 145.128 107.926C145.674 115.583 146.039 123.24 146.039 130.897C146.039 140.924 146.586 150.768 146.404 160.795C145.31 161.524 145.492 162.801 145.31 163.894C144.581 173.374 144.399 182.854 143.487 192.334C143.487 193.61 143.123 194.522 141.665 194.704C141.3 194.704 140.753 194.887 140.389 195.069C140.389 193.975 139.842 193.793 139.113 193.246C135.65 191.24 131.823 190.511 127.995 189.964C124.168 189.417 120.34 189.6 116.513 189.053C116.877 188.324 116.331 188.141 115.784 188.141C112.685 187.777 109.769 187.23 106.671 187.047C98.6513 186.5 90.814 186.136 82.7945 187.412C78.238 188.141 73.6815 188.688 69.3073 190.511C68.9428 190.511 68.9428 190.511 68.7605 190.876C68.7605 190.876 68.3959 190.876 68.2137 191.058C65.2975 191.787 62.3813 192.334 59.4652 193.064C58.5539 193.246 57.6425 193.428 57.278 194.522C54.5441 193.975 53.2684 192.152 52.9038 189.417C51.9925 183.766 51.8102 178.114 51.628 172.463C51.2635 161.342 51.4457 150.404 51.0812 139.283C51.0812 133.267 50.5345 127.433 49.6232 121.417C48.3473 112.666 47.436 103.915 46.7069 94.9822C46.7069 94.4353 46.3424 94.253 46.1602 94.0707C45.0666 92.9768 45.0666 94.0707 45.0666 94.6176C45.0666 96.623 44.7021 98.8107 45.0666 100.816C44.8844 101.181 44.7021 101.728 45.0666 102.092C44.8844 103.915 45.0666 105.738 45.0666 107.561C45.0666 107.926 45.0666 108.108 45.0666 108.473C45.0666 109.202 45.0666 109.749 45.0666 110.478C45.6134 115.036 45.9779 119.776 46.1602 124.334C46.7069 135.272 46.8892 146.028 46.7069 156.967C46.7069 165.9 46.8892 175.015 47.2537 183.948C47.2537 186.683 47.8005 189.417 48.5295 192.152C49.2586 195.069 51.0812 197.257 53.9974 198.168C57.0958 199.262 60.1943 199.809 63.2927 199.991C64.0218 199.991 64.204 199.991 63.8395 199.262C64.5685 198.533 63.8395 198.168 63.2927 197.804C61.6524 196.527 59.8297 195.616 58.0071 194.522C59.2829 194.34 60.3765 194.522 61.6523 194.157C69.6718 192.152 77.8735 191.605 86.2575 191.423C96.0996 191.24 105.942 191.423 115.784 191.423C123.803 191.423 131.64 192.152 139.295 195.251C134.374 198.35 128.724 199.262 123.256 200.356C116.513 201.814 109.769 202.179 103.026 202.361C89.9028 202.726 76.9622 203.09 63.8395 202.179C59.1007 201.814 54.5441 200.903 49.9876 199.627C48.165 199.08 47.2537 198.168 46.7069 196.345C45.0666 189.964 44.8843 183.401 43.973 177.02C43.973 176.291 44.3375 175.562 43.6085 174.833C43.6085 173.192 43.9731 171.734 43.244 170.093L44.3376 169.911ZM107.4 156.237C107.946 156.237 108.129 156.055 108.311 155.691C109.587 154.779 111.227 154.05 112.321 152.956C113.05 152.227 114.326 152.044 114.326 150.586C115.055 150.951 114.872 150.221 115.237 150.039C116.331 149.492 117.242 148.945 117.971 148.034C118.335 148.034 118.882 147.851 119.247 147.304C122.345 145.481 124.35 142.747 125.626 139.647C127.448 135.454 128.177 130.897 127.813 126.157C127.448 119.594 124.35 114.489 119.611 110.114C119.064 109.567 118.335 109.02 117.424 109.567C114.872 107.744 111.956 106.285 109.405 104.462C109.769 103.733 109.405 103.368 108.676 103.186C107.035 101.545 104.848 100.451 102.661 99.7222C98.2867 98.2638 93.9125 98.6284 89.356 99.7222C85.3462 100.634 81.701 102.092 78.238 104.462C77.3267 105.009 76.0509 105.556 76.5977 107.015C73.6815 108.473 71.4944 110.843 69.3073 113.213C69.3073 113.213 69.3072 113.213 69.125 113.213C68.2137 113.031 67.8492 113.76 67.4847 114.307C66.2089 116.13 65.2976 117.953 64.7508 120.141C63.475 124.881 63.4749 129.803 64.0217 134.725C64.3862 137.095 65.2976 139.283 66.5734 141.288C66.9379 141.653 67.3024 142.382 67.6669 141.288C70.2186 144.205 72.4057 147.304 75.5041 149.492C74.4105 150.404 75.6864 150.586 76.051 150.951C82.0656 156.602 89.3559 158.972 97.3754 158.607C100.109 158.607 102.661 157.696 105.213 157.149C105.577 157.149 106.124 157.149 106.306 156.784C106.671 156.784 107.035 156.784 107.217 156.42L107.4 156.237ZM77.3267 93.5237C77.3267 93.8884 77.6913 94.4353 78.0558 94.0707C78.4203 93.8884 78.0558 93.3414 77.6912 92.9768C77.6912 92.4299 77.509 91.7007 76.7799 92.0653C76.2332 92.4299 76.78 92.9768 76.9623 93.3415L77.3267 93.5237ZM127.631 97.1699C126.173 96.623 125.626 97.5345 125.626 98.8107C125.626 99.7222 125.626 100.269 124.35 100.087C123.621 100.087 123.074 100.451 123.074 101.181C123.074 101.91 123.439 102.457 124.168 102.457C125.808 102.457 126.355 103.004 126.173 104.645C126.173 105.191 126.537 105.921 127.266 106.103C127.813 106.103 128.177 105.738 128.36 105.191C129.089 105.374 129.818 105.191 129.818 104.28C129.818 102.821 130.365 101.91 132.187 102.092C132.734 102.092 133.099 101.728 133.099 101.181C133.099 100.634 132.734 100.269 132.187 100.087C132.005 100.087 131.823 100.087 131.64 100.087C130.547 100.087 130 99.9045 129.818 98.6284C129.818 97.3522 128.906 96.623 127.448 97.1699H127.631ZM122.345 154.232C122.345 153.321 122.163 152.591 121.069 152.591C120.158 152.591 119.976 153.503 119.794 154.232C119.794 154.961 119.976 155.691 118.7 156.237C117.606 156.602 117.971 157.514 119.429 158.061C119.976 159.154 121.616 159.337 121.798 160.795C121.798 161.342 122.892 161.16 123.074 160.795C123.439 159.519 124.35 159.154 125.444 158.972C126.355 158.972 126.902 158.243 126.902 157.331C126.902 156.42 126.173 155.873 125.261 155.873C124.532 155.873 123.985 155.691 123.621 154.961C123.439 154.414 122.892 154.232 122.345 154.232ZM67.4847 151.315C67.4847 150.768 67.1201 150.221 66.3911 150.404C65.8443 150.404 65.6621 150.951 65.6621 151.497C65.6621 152.409 65.662 153.138 65.8443 154.05C65.1153 154.232 64.204 154.05 63.8395 155.326C62.7459 156.055 62.7459 156.967 63.8395 157.331C65.2976 157.878 65.662 158.79 65.8443 160.066C65.8443 160.613 66.2089 161.16 66.9379 161.16C67.667 161.16 67.8492 160.613 68.0314 159.884C69.6718 159.884 69.4896 158.607 69.6718 157.696C69.6718 156.784 69.854 156.237 70.9476 156.237C71.8589 156.237 73.1347 156.42 73.1347 155.326C73.1347 154.232 71.6767 154.414 70.7654 154.414C69.6718 154.414 69.125 154.05 69.125 152.956C69.125 152.044 68.396 151.68 67.4847 151.497V151.315ZM60.0119 98.2637C59.1006 98.2637 58.3716 99.3576 59.1006 99.5399C60.5587 100.451 61.6523 101.728 62.9282 102.821C62.9282 102.821 63.1105 102.821 63.2927 102.821C64.0218 103.551 64.7508 103.551 65.1153 102.639C65.2976 102.092 65.6621 101.545 65.6621 100.998C65.6621 100.087 66.0266 99.7222 66.9379 99.9045C67.667 99.9045 68.2137 99.9045 68.396 98.993C68.396 98.2637 67.8491 97.8991 67.3024 97.8991C66.2088 97.8991 65.8443 97.3522 65.4798 96.4407C65.1152 95.5291 64.3862 95.1645 63.4749 95.5291C63.2927 94.7999 62.9282 94.0707 62.0169 94.4353C61.2878 94.6176 61.1056 95.3468 61.1056 96.0761C61.1056 96.623 61.2878 97.1699 61.4701 97.7168C61.1056 97.8991 60.5588 98.2637 60.1943 98.446L60.0119 98.2637ZM141.482 191.24C141.482 191.423 141.482 191.605 141.847 191.605C142.029 191.605 142.212 191.605 142.212 191.24C142.212 190.694 142.576 189.964 142.758 189.417C143.305 183.219 143.305 176.838 143.305 170.64C143.305 170.093 143.305 169.546 142.394 169.364C141.118 168.452 140.571 168.452 140.389 169.911C139.478 175.562 138.931 181.214 139.478 187.047C139.478 187.959 139.66 189.053 140.207 189.964C140.571 190.694 140.936 190.329 141.3 189.964C141.3 190.329 141.483 190.876 141.665 191.24H141.482ZM142.212 160.248V160.613C142.212 160.977 142.212 161.524 142.394 161.524C142.758 161.524 142.576 160.977 142.758 160.795C142.758 160.066 142.941 159.519 142.941 158.79C143.123 149.674 143.852 140.559 143.487 131.444C143.305 124.881 143.123 118.318 143.852 111.937C143.852 111.208 143.852 110.661 143.67 109.931C143.487 108.838 142.941 108.655 142.212 109.384C141.483 110.114 141.3 111.208 140.936 112.119C140.024 115.218 139.478 118.318 139.295 121.599C138.566 130.532 138.02 139.465 138.384 148.398C138.566 152.409 138.931 156.42 140.571 160.431C140.753 160.977 140.936 161.524 141.482 161.524C142.212 161.524 141.847 160.613 142.029 160.248C142.029 160.248 142.212 160.248 142.394 160.248H142.212ZM66.9379 182.49C67.3024 183.037 67.6669 183.766 68.5782 182.854C69.125 182.854 69.125 183.401 68.9427 183.766C70.9476 184.86 73.317 185.407 75.6864 184.86C83.5236 183.037 89.3559 178.479 93.1834 171.369C93.7302 170.457 94.0947 169.364 94.0947 168.27C94.0947 167.358 93.9124 166.447 92.8189 166.264C91.543 166.264 91.5431 165.535 91.5431 164.624C91.5431 162.801 90.814 162.436 88.9914 162.618C87.5333 162.618 87.351 160.066 85.5284 160.977C85.3462 160.977 85.164 160.613 85.164 160.248C84.2527 158.243 83.3413 157.878 81.3365 158.972C79.6961 159.884 78.4203 161.342 77.509 162.983C77.3268 163.347 77.1445 164.259 76.2332 163.712C74.5928 162.983 73.317 163.712 72.4057 164.806C69.3073 168.087 67.1201 171.734 66.2088 176.109C65.8443 176.474 65.8443 177.02 65.8443 177.385C65.662 179.208 65.4798 180.849 67.1201 182.307L66.9379 182.49ZM103.572 166.629C102.661 166.082 101.567 165.9 100.838 166.629C100.109 167.358 100.474 168.452 100.838 169.364C101.203 170.457 101.75 171.551 102.479 172.463C105.395 176.474 108.676 179.937 112.503 182.854C114.143 184.131 116.148 185.042 118.335 185.589C123.256 186.683 127.084 184.313 127.813 179.573C128.542 174.65 127.448 170.275 124.168 166.447C123.439 165.535 122.345 164.806 121.252 164.259C120.158 163.894 119.064 163.712 118.518 164.624C117.606 165.9 117.242 165.171 116.513 164.624C114.872 162.983 113.05 161.524 110.863 160.431C109.222 159.701 109.04 159.884 107.947 161.524C107.4 162.254 106.853 163.165 105.759 163.53C103.937 163.894 103.755 164.259 104.119 166.447H103.937V166.629H103.572ZM52.1747 111.208C52.1747 113.578 53.9973 115.401 56.3667 115.401C58.7361 115.401 60.9233 112.848 61.1056 110.114C61.1056 108.473 58.7361 106.103 56.7313 106.103C54.3619 106.103 52.1747 108.655 52.1747 111.208ZM83.5236 97.8991C86.2575 97.8991 88.8091 95.5291 88.6269 93.1591C88.6269 92.0653 88.0801 90.9715 87.351 90.0599C86.622 88.9661 85.5284 89.8776 84.6171 89.6953C82.2477 89.513 79.3316 92.2476 79.5138 94.4353C79.5138 96.4407 81.3364 97.8991 83.7058 97.8991H83.5236ZM135.103 165.535C137.29 165.535 138.384 164.441 138.384 162.436C138.384 160.431 136.379 158.425 134.374 158.607C132.37 158.607 130.911 160.066 130.911 161.889C130.911 164.077 132.734 165.535 135.103 165.535ZM133.828 123.604C135.286 123.604 136.744 122.328 136.744 120.87C136.744 119.776 135.65 118.682 134.192 118.682C132.734 118.682 131.458 119.776 131.276 121.052C131.276 122.328 132.369 123.422 133.828 123.422V123.604ZM63.2927 169.364C63.2927 168.999 63.2927 168.634 62.9282 168.634C61.6523 168.452 61.1055 167.723 60.741 166.447C60.741 165.717 59.6474 165.9 59.4652 166.447C59.2829 167.358 58.9185 167.905 57.8249 168.087C57.2781 168.087 57.0958 168.817 57.8249 168.999C58.9185 169.364 59.283 170.275 59.283 171.369C59.283 171.734 59.2829 172.281 59.8297 172.463C60.3765 172.463 60.5588 171.916 60.741 171.369C60.741 170.275 61.2878 169.91 62.1991 170.093C62.7459 170.093 63.1105 169.91 63.2927 169.181V169.364ZM75.6864 101.728C77.1445 101.728 78.238 100.998 78.238 99.7222C78.238 98.4461 77.1445 97.1699 75.8686 97.1699C74.5928 97.1699 73.317 98.4461 73.317 99.7222C73.317 100.998 74.4106 101.91 75.6864 101.91V101.728ZM134.01 133.084C134.01 131.808 133.281 131.079 132.005 131.079C130.729 131.079 129.636 132.173 129.636 133.449C129.636 134.543 130.547 135.637 131.64 135.637C132.916 135.637 134.01 134.543 134.01 133.084ZM57.8249 122.693C59.283 122.693 60.3765 121.599 60.5588 120.323C60.5588 119.047 59.6475 118.864 58.9184 118.864C57.6426 118.864 56.1845 119.958 56.1845 121.052C56.1845 122.328 57.0958 122.511 58.0071 122.693H57.8249ZM69.125 88.9661C69.125 88.7838 69.1251 88.4191 68.7605 88.4191C68.396 88.4191 68.3959 88.4192 68.2137 88.7838C68.2137 89.1484 68.2138 89.513 68.7605 89.513C68.9428 89.513 69.125 89.3307 69.125 89.1484V88.9661Z" fill="#0BB9EC"/>
<path d="M125.809 79.6688C117.971 80.7626 110.316 83.3149 102.661 85.3203C98.6517 86.4142 94.4597 86.5965 90.45 85.8672C78.9676 83.6796 67.6674 83.3149 56.185 85.5026C55.6382 85.5026 54.9092 85.5026 54.1802 85.5026C55.2737 81.8565 57.0963 78.7572 59.8302 76.2049C64.3867 71.6473 69.6723 68.1834 75.3224 65.2665C78.9676 63.4434 82.7951 62.5319 86.9871 62.3496C93.3662 62.3496 99.7453 63.0788 106.124 62.8965C107.036 62.8965 107.765 63.2611 108.494 63.808C111.957 65.9957 115.055 68.548 117.971 71.2827C120.705 73.835 123.804 76.3873 125.809 79.6688Z" fill="#AFE7F8"/>
<path d="M125.808 79.668C123.803 76.3865 120.887 73.8342 117.971 71.2819C115.054 68.5473 111.956 65.995 108.493 63.8073C107.764 63.2604 107.035 62.8957 106.124 62.8957C99.7445 63.078 93.3653 62.3488 86.9862 62.3488C82.7942 62.3488 78.9667 63.2604 75.3215 65.2657C69.6714 68.1827 64.3858 71.6465 59.8293 76.2042C57.0954 78.9388 55.2729 82.038 54.1793 85.5019C51.4454 86.4134 48.3469 86.778 45.613 88.0542C44.5195 88.6011 44.8839 87.6895 44.8839 87.1426C46.1598 82.9496 47.8001 78.9388 51.0808 75.8396C53.268 73.6519 55.8196 71.4642 58.5535 69.8234C63.6568 66.7242 68.7601 63.625 74.0456 60.8904C74.7747 60.5258 75.5038 60.5258 76.0506 60.5258C84.4346 61.0727 92.8185 60.5257 101.203 60.1611C105.03 60.1611 108.675 60.1612 112.503 60.5258C112.867 60.5258 113.414 60.7081 113.778 60.8904C121.433 65.6304 128.724 70.735 134.738 77.298C135.285 77.845 135.832 78.5742 136.379 79.3034C136.379 79.4857 136.379 79.8503 136.379 80.0326C132.734 79.4857 129.088 79.3034 125.443 79.3034L125.808 79.668Z" fill="#FAFBFB"/>
<path d="M140.936 194.886C141.301 194.886 141.665 194.521 142.212 194.521C143.67 194.339 143.852 193.428 144.034 192.151C144.764 182.671 145.128 173.192 145.857 163.712C145.857 162.618 145.857 161.342 146.951 160.612C146.951 170.457 146.951 180.302 146.222 189.964C146.222 191.422 145.675 192.881 146.039 194.339C146.039 195.068 145.493 195.615 145.128 196.162C143.67 197.803 141.847 198.532 140.025 199.261C132.188 201.996 124.168 203.819 115.966 204.366C102.479 205.46 89.174 206.371 75.6867 206.189C67.8495 206.189 60.1945 204.913 52.7218 202.178C49.9879 201.084 47.8008 199.444 46.3427 196.891C45.6137 195.433 45.6137 193.61 45.6137 192.151C45.4315 187.047 44.8847 181.942 45.067 176.838C45.067 176.838 45.2491 176.838 45.4314 176.838C46.3427 183.218 46.525 189.781 48.1653 196.162C48.7121 197.985 49.6235 198.897 51.4461 199.444C56.0026 200.72 60.5591 201.631 65.2978 201.996C78.4206 202.908 91.3611 202.543 104.484 202.178C111.228 201.996 118.153 201.631 124.715 200.173C130.183 199.079 135.833 198.168 140.754 195.068C140.936 195.068 141.301 194.886 141.483 194.704L140.936 194.886Z" fill="#F3F8F9"/>
<path d="M84.7991 2.18818C90.2669 2.18818 95.9169 2.7351 101.385 4.01125C103.207 4.37587 103.39 4.74047 102.661 6.56354C102.296 7.47508 101.749 7.65738 101.02 7.47508C94.4588 6.38123 87.8975 6.56355 81.3361 6.74586C71.3118 6.92817 61.2875 8.022 51.4454 10.2097C50.3518 10.5743 49.9873 10.2097 49.6228 9.11583C48.7115 6.19892 48.7115 6.38122 51.6276 5.46969C58.7358 3.46431 66.2085 2.9174 73.4989 2.55279C77.1441 2.37048 80.9716 2.18817 84.7991 2.00586V2.18818Z" fill="#0AB6E8"/>
<path d="M137.473 82.9492C138.02 82.9492 138.384 83.3138 138.931 83.4961C140.936 84.9546 140.936 86.5954 138.931 87.8715C136.197 89.33 133.281 90.2415 130.183 90.2415C121.981 90.6061 113.779 90.4238 105.76 88.7831C105.76 88.7831 105.578 88.7831 105.395 88.6008C106.671 88.4184 107.765 88.2362 109.04 87.8715C118.154 85.3192 127.267 83.3139 136.562 83.3139C136.926 83.3139 137.473 83.3138 137.655 82.9492H137.473Z" fill="#0CBAED"/>
<path d="M113.05 27.1631C113.597 32.0854 112.868 37.0077 112.503 41.93C112.139 46.8523 112.139 51.5922 112.503 56.5145C112.503 57.7907 112.139 57.7907 111.227 57.7907C109.952 57.7907 108.676 57.6084 107.4 57.2438C107.4 56.3323 107.947 55.2384 107.947 54.3269C107.947 47.0346 108.494 39.56 108.494 32.2677C108.494 30.8092 107.765 28.8038 108.858 27.8923C109.769 26.9808 111.774 27.3454 113.232 27.3454L113.05 27.1631Z" fill="#0CBAED"/>
<path d="M95.1886 27.1631C95.0064 31.7208 94.8241 36.0961 94.2773 40.6538C93.9128 45.7584 93.9128 50.863 93.9128 55.9676C93.9128 57.4261 93.5483 57.973 92.0902 57.7907C91.1789 57.7907 90.2676 57.7907 89.3563 57.7907C89.7208 55.4207 89.7208 53.233 89.7208 50.863C89.7208 43.5707 89.7208 36.2785 89.7208 28.9862C89.7208 27.71 89.903 27.1631 91.3611 27.3454C92.4546 27.3454 93.7305 27.3454 94.8241 27.3454L95.1886 27.1631Z" fill="#0CBAED"/>
<path d="M85.1635 26.6169C85.1635 34.2738 85.1635 41.7484 85.1635 49.4053C85.1635 51.4107 85.1635 53.4161 85.1635 55.4214C85.1635 57.7914 85.1634 57.7914 82.794 57.7914C82.065 57.7914 81.336 57.7914 80.607 57.7914C81.336 56.5153 81.336 55.2391 81.336 53.7807C81.336 45.9415 81.336 38.2846 81.336 30.4454C81.336 26.4346 81.336 26.4346 85.3457 26.4346L85.1635 26.6169Z" fill="#0CBAED"/>
<path d="M103.025 27.5283C103.025 36.826 103.937 46.1237 103.025 55.4213C103.025 57.4267 103.025 57.4267 100.838 57.609C99.927 57.609 99.0157 57.609 98.2866 57.609C98.4689 54.8744 98.8334 51.9575 99.0157 49.2229C99.3802 43.2067 99.5625 37.0083 99.5625 30.9921C99.5625 27.5283 99.5625 27.5283 103.025 27.5283Z" fill="#0AB6E8"/>
<path d="M76.2334 26.7998C76.2334 33.9098 76.2334 41.2021 76.4156 48.312C76.4156 50.8643 76.4157 53.599 76.5979 56.1513C76.5979 56.6982 77.1447 57.792 75.8689 57.792C74.9576 57.792 73.4995 58.1566 73.3173 56.5159C73.3173 54.8751 72.9527 53.2343 72.9527 51.5936C72.5882 44.119 71.4947 36.6444 72.0414 29.1698C72.0414 28.4405 72.0414 27.529 72.0414 26.7998C73.3173 26.7998 74.7754 26.7998 76.0512 26.7998H76.2334Z" fill="#0AB6E8"/>
<path d="M144.946 102.092C144.946 102.639 144.946 103.186 144.946 103.732C144.946 104.097 144.946 104.644 144.399 104.644C144.035 104.644 143.852 104.097 143.852 103.915C142.941 100.816 142.212 97.534 141.483 94.2525C140.754 91.3356 140.754 91.3356 138.385 92.794C135.468 94.4348 132.188 95.164 128.907 95.3463C119.247 95.7109 109.77 94.4348 100.657 91.1532C99.9276 90.9709 99.3808 90.6063 98.6517 90.424C98.6517 90.2417 98.6517 90.0594 98.6517 89.6948C103.755 90.6063 108.858 91.8825 113.962 92.2471C121.617 92.794 129.272 93.7055 136.744 91.1532C138.202 90.6063 139.843 90.2417 140.936 89.1479C141.848 88.4186 142.212 88.4186 142.394 89.5125C143.67 93.5232 144.764 97.7163 145.128 102.092H144.946Z" fill="#F0F6F7"/>
<path d="M95.1886 27.1638C94.095 27.1638 92.8191 27.1638 91.7256 27.1638C90.2675 27.1638 90.0852 27.5284 90.0852 28.8045C90.0852 36.0968 90.0852 43.3891 90.0852 50.6814C90.0852 53.0514 90.0853 55.2391 89.7208 57.6091C87.7159 57.6091 87.7158 57.6091 87.7158 55.786C87.7158 48.8584 87.7159 41.9307 87.8981 35.003C87.8981 31.7215 87.8981 28.2576 87.8981 24.9761C87.8981 23.7 88.2626 23.3353 89.5384 23.5176C90.9965 23.5176 92.4546 23.5176 93.9127 23.5176C95.7353 23.5176 95.7353 23.5176 95.7353 25.523C95.7353 26.0699 95.7353 26.6169 95.7353 26.9815L95.1886 27.1638Z" fill="#F3F8F9"/>
<path d="M88.6266 16.5901C94.2767 16.5901 99.7446 17.137 105.395 17.5016C106.853 17.5016 108.129 19.6893 107.764 20.9654C107.764 21.33 107.4 21.3301 107.035 21.3301C98.8333 20.7831 90.6315 20.6008 82.6121 20.4185C81.3362 20.4185 81.1539 19.6893 80.9717 17.6839C80.9717 16.4078 81.7008 16.5901 82.4299 16.5901C84.617 16.5901 86.6218 16.5901 88.809 16.5901H88.6266Z" fill="#0AB6E8"/>
<path d="M103.026 27.5276C99.5627 27.5276 99.5627 27.5276 99.5627 30.9914C99.5627 37.0075 99.5627 43.206 99.0159 49.2221C99.0159 51.9567 98.4691 54.8737 98.2868 57.6083C96.8287 57.6083 96.0998 56.9398 96.0998 55.6029C96.0998 47.7637 96.8288 39.7422 97.1933 31.9029C97.1933 29.7153 97.3755 27.7099 97.3755 25.5222C97.3755 24.4283 97.5578 23.6991 99.0159 23.8814C100.109 23.8814 101.203 23.8814 102.297 23.8814C103.208 23.8814 103.572 24.246 103.39 25.1576C103.39 25.8868 103.208 26.616 103.026 27.3453V27.5276Z" fill="#F3F8F9"/>
<path d="M113.05 27.1642C111.592 27.1642 109.587 26.7996 108.676 27.7112C107.765 28.6227 108.311 30.6281 108.311 32.0865C108.311 39.3788 107.947 46.8534 107.765 54.1457C107.765 55.2396 107.4 56.1511 107.218 57.0626C106.307 57.0626 105.395 57.4272 105.577 55.7865C105.942 46.3065 105.578 37.0088 105.395 27.5288C105.395 26.6173 105.395 25.7058 105.395 24.9765C105.395 24.2473 105.577 23.8827 106.489 24.065C108.129 24.4296 109.769 24.2473 111.41 24.7942C112.503 25.1588 113.415 25.7058 113.232 26.9819L113.05 27.1642Z" fill="#F3F8F9"/>
<path d="M85.1638 26.6172C81.1541 26.6172 81.154 26.6172 81.154 30.6279C81.154 38.4671 81.154 46.124 81.154 53.9633C81.154 55.4217 81.154 56.6979 80.425 57.974C79.3314 58.1563 78.9669 57.7917 78.9669 56.6979C78.9669 55.4217 78.9669 54.1456 78.9669 52.8694C78.9669 43.5717 78.9669 34.2741 78.6024 24.9764C78.6024 23.8826 78.9669 23.3356 80.0604 23.5179C81.3362 23.5179 82.6121 23.5179 83.7056 23.5179C85.1637 23.5179 85.5283 23.8826 85.1638 25.341C85.1638 25.8879 85.1637 26.2526 84.9815 26.7995L85.1638 26.6172Z" fill="#F3F8F9"/>
<path d="M137.473 82.9492C137.291 83.3138 136.744 83.3138 136.379 83.3138C126.902 83.3138 117.789 85.3192 108.858 87.8715C107.764 88.2361 106.489 88.4184 105.213 88.6007C104.302 88.6007 103.39 88.6007 102.661 88.0538C102.661 88.0538 102.661 87.6892 102.661 87.5069C110.863 84.7723 119.247 82.0377 127.995 81.6731C131.276 81.6731 134.557 81.4908 137.473 82.7669V82.9492Z" fill="#F0F6F7"/>
<path d="M76.2334 26.7991C74.9576 26.7991 73.4995 26.7991 72.2236 26.7991C72.5882 24.4291 73.3172 23.6998 75.6866 23.8821C76.2334 23.8821 76.4156 24.0644 76.4156 24.6113C76.4156 25.3406 76.4156 26.2521 76.4156 26.9813L76.2334 26.7991Z" fill="#F0F6F7"/>
<path d="M44.3373 169.91C45.0663 171.369 44.7018 173.009 44.7018 174.65C44.7018 174.65 44.5195 174.65 44.3373 174.65C44.3373 173.009 44.3373 171.551 44.3373 169.91Z" fill="#A3E0F3"/>
<path d="M68.2132 86.9609C68.3954 87.3256 68.9422 88.0548 68.2132 88.2371C67.3019 88.6017 67.302 87.5079 66.9374 86.9609C67.302 86.9609 67.6664 86.9609 68.2132 86.9609Z" fill="#213338"/>
<path d="M98.2862 89.695C98.2862 89.8773 98.2862 90.0596 98.2862 90.4242C97.5571 90.4242 96.8281 90.4242 96.4636 89.5127C97.0103 89.5127 97.7394 89.5127 98.2862 89.695Z" fill="#AFE7F8"/>
<path d="M45.0666 176.838C45.0666 176.838 44.8843 176.838 44.702 176.838C44.702 176.838 44.702 176.473 44.5197 176.291C44.5197 175.744 44.5197 175.197 44.5197 174.65C45.2488 175.197 44.8843 175.927 44.8843 176.838H45.0666Z" fill="#A3E0F3"/>
<path d="M44.5199 174.65C44.5199 175.197 44.5199 175.744 44.5199 176.291C44.1554 175.744 44.3376 175.197 44.5199 174.468C44.5199 174.468 44.5199 174.468 44.8844 174.468L44.5199 174.65Z" fill="#213338"/>
<path d="M99.1981 87.6888C99.0159 87.6888 98.6514 87.6888 98.6514 87.3242C98.6514 87.3242 99.0159 87.3242 99.1981 87.3242C99.1981 87.3242 99.5627 87.3242 99.5627 87.5065C99.5627 87.5065 99.1982 87.5065 99.0159 87.5065L99.1981 87.6888Z" fill="#213338"/>
<path d="M102.478 87.6895C102.478 87.6895 102.478 88.0541 102.478 88.2364C102.114 88.2364 101.749 88.2364 101.203 88.2364C101.203 88.2364 101.203 88.0541 101.203 87.8718C101.567 87.8718 101.932 87.8718 102.296 87.8718L102.478 87.6895Z" fill="#0AB6E8"/>
<path d="M136.561 80.2155C136.561 80.0332 136.561 79.6686 136.561 79.4863C136.926 79.4863 137.108 79.8509 136.926 80.0333C136.926 80.2156 136.743 80.2156 136.561 80.0333V80.2155Z" fill="#A3E0F3"/>
<path d="M101.386 87.8721C101.386 87.8721 101.386 88.0544 101.386 88.2367C101.203 88.2367 100.839 88.419 100.839 88.0544C100.839 88.0544 101.203 88.0544 101.386 88.0544V87.8721Z" fill="#213338"/>
<path d="M96.6466 89.5121C96.282 89.5121 96.0997 89.5121 95.9175 89.1475C96.282 89.1475 96.6466 89.1475 96.6466 89.5121Z" fill="#AFE7F8"/>
<path d="M117.971 147.851C117.242 148.762 116.33 149.309 115.237 149.856C114.872 149.674 114.508 149.492 114.143 149.856C113.961 150.039 114.143 150.403 114.325 150.586C113.779 149.674 113.232 150.586 112.685 150.586C112.503 150.586 112.321 150.768 112.138 150.95C112.138 151.132 112.138 151.315 111.774 151.315C110.133 150.403 108.675 151.315 107.217 151.679C104.119 152.409 101.203 153.502 97.922 153.502C91.9074 153.685 86.075 152.956 80.4249 150.221C79.5136 149.856 78.9668 149.856 78.4201 150.95C77.3265 150.586 76.4151 149.856 75.5038 149.309C72.2231 147.122 70.036 144.022 67.6666 141.106C67.3021 140.559 67.1199 139.829 67.1199 139.283C68.7602 138.918 68.0312 137.642 68.0312 136.73C67.6667 132.719 67.4844 128.709 68.0312 124.698C68.3957 121.416 69.307 118.317 70.2183 115.036C70.4006 114.306 70.7651 113.213 69.4892 113.03C71.6764 110.66 73.8635 108.29 76.7797 106.832C78.42 107.379 79.3313 105.556 80.7894 105.373C80.9717 105.556 81.154 105.738 81.5185 105.738C82.9766 105.373 84.6169 105.009 86.075 104.644C90.9961 103.368 96.0993 102.639 101.203 103.915C102.843 104.279 104.483 104.826 106.124 105.556C107.764 106.103 108.311 105.738 108.675 104.28C108.858 104.28 109.222 104.279 109.404 104.462C111.956 106.467 114.872 107.743 117.424 109.566C117.424 109.931 117.424 110.113 117.424 110.478C117.424 110.843 117.424 111.207 117.242 111.754C116.33 111.389 115.054 111.389 114.69 110.113C114.69 109.749 113.779 109.566 113.596 110.113C112.867 111.754 111.409 111.572 109.951 111.754C109.587 111.754 109.04 111.936 109.04 112.483C109.04 113.03 109.587 113.213 109.951 113.213C110.316 113.213 110.68 113.213 111.045 113.213C112.138 113.213 112.867 113.577 112.685 114.853C112.685 115.218 112.685 115.765 113.414 115.765C113.961 115.765 114.325 115.218 114.325 114.853C114.508 113.942 115.054 113.395 116.148 113.395C116.513 113.395 116.877 113.213 117.424 113.03C117.788 113.03 117.971 113.395 118.153 113.759C119.246 116.129 120.705 118.317 121.616 120.687C123.074 123.969 123.438 127.433 123.256 131.079C123.256 134.178 122.527 137.277 122.527 140.376C121.798 142.929 119.793 144.569 118.517 146.575C117.971 146.939 117.606 147.304 117.971 147.851ZM83.5233 123.422C82.0652 123.422 80.7894 123.422 79.3314 123.422C77.1442 123.422 76.5975 123.786 76.5975 126.156C76.5975 128.344 76.5975 130.532 76.5975 132.719C76.5975 134.725 76.9619 135.089 79.149 135.454C82.2475 136.001 85.346 135.636 88.4444 135.819C90.6315 135.819 90.6315 135.819 90.8138 138.006C90.8138 138.553 90.8138 139.1 90.8138 139.465C90.8138 141.835 90.8138 144.205 90.8138 146.392C90.8138 147.486 90.9961 148.398 92.4542 148.216C95.3703 148.216 98.2865 148.58 101.203 148.58C104.666 148.58 105.759 147.486 105.941 144.205C105.941 142.199 105.941 140.194 105.941 138.371C105.941 135.636 105.941 136.183 108.129 136.183C110.316 136.183 112.321 136.183 114.508 136.183C115.783 136.183 117.059 135.819 117.242 134.36C117.788 131.626 117.971 128.709 117.971 125.974C117.971 124.151 117.242 123.422 115.237 123.239C112.138 122.875 109.222 122.875 106.124 122.875C105.212 122.875 104.848 122.875 104.848 121.781C104.848 120.14 104.666 118.499 104.483 116.859C104.483 113.699 102.843 112.119 99.5622 112.119C97.1929 112.119 94.8235 112.483 92.4542 112.119C90.4493 111.754 89.7202 112.119 89.7202 114.489C89.7202 117.041 89.7202 119.776 89.7202 122.328C89.7202 123.604 89.3556 123.969 88.2621 123.969C86.6217 123.969 84.9815 123.969 83.3411 123.969L83.5233 123.422ZM116.33 142.017C116.33 141.47 115.966 141.106 115.601 141.106C114.325 141.106 113.779 140.741 113.414 139.283C113.414 138.553 111.956 138.553 111.774 139.283C111.591 140.376 111.409 141.106 110.133 141.47C109.587 141.47 109.587 142.564 110.133 142.564C111.591 142.564 111.591 143.84 111.956 144.752C111.956 145.116 112.138 145.663 112.685 145.663C113.05 145.663 113.232 145.299 113.232 144.752C113.232 143.476 113.596 142.929 115.054 142.929C115.601 142.929 116.148 142.564 116.148 141.835L116.33 142.017ZM83.7055 120.14C83.7055 120.14 84.0701 119.958 84.0701 119.776C84.2524 118.317 85.1636 117.77 86.4395 117.588C86.804 117.588 87.1686 117.041 86.9863 116.494C86.9863 115.947 86.6218 115.583 86.2572 115.583C85.3459 115.583 84.6169 115.218 84.2524 114.124C84.2524 113.577 82.9766 113.395 82.9766 114.124C82.9766 115.4 82.0653 115.765 81.154 115.947C80.7894 115.947 80.4249 116.129 80.4249 116.676C80.4249 117.041 80.7894 117.406 81.154 117.406C82.6121 117.406 83.1588 118.317 82.9766 119.776C82.9766 119.958 83.1588 120.323 83.7055 120.14ZM75.5038 109.019C74.5925 109.019 74.7748 110.296 74.0458 110.478C72.7699 111.025 71.3118 111.389 74.0458 112.119C74.4103 112.119 74.4103 112.666 74.5925 113.03C74.5925 113.577 74.5926 114.124 74.7748 114.489C74.7748 115.036 74.7748 115.583 75.5038 115.765C76.0506 115.765 76.2329 115.218 76.2329 114.671C76.2329 113.213 76.9619 112.119 78.6023 112.119C79.1491 112.119 79.3314 111.754 79.3314 111.207C79.3314 110.66 78.9668 110.296 78.6023 110.296C77.5087 110.296 76.4151 110.296 75.8684 109.019C75.8684 109.019 75.6861 109.019 75.5038 109.019ZM86.075 146.575C86.075 146.028 85.7105 145.663 85.3459 145.663C84.4346 145.481 83.5233 145.299 83.5233 144.022C83.5233 143.658 83.1588 143.658 82.7942 143.658C82.4297 143.658 82.2475 144.022 82.2475 144.205C82.4297 145.481 81.7007 145.663 80.7894 145.663C80.4249 145.663 79.8781 145.846 79.8781 146.392C79.8781 146.939 80.2426 147.122 80.7894 147.304C81.7007 147.486 82.612 147.486 82.7942 148.945C82.7942 149.127 83.3411 149.492 83.3411 148.945C83.5234 147.669 84.7991 147.851 85.5282 147.486C85.8927 147.304 86.2573 146.939 86.075 146.392V146.575ZM75.1394 139.1C75.1394 138.553 74.7748 138.371 74.4103 138.371C73.3167 138.371 72.9522 138.006 72.5877 136.912C72.5877 136.548 72.041 136.183 71.4942 136.366C70.9474 136.366 69.8538 138.918 70.2183 139.283C70.7651 139.829 70.7651 140.559 71.1296 141.288C71.1296 141.652 71.3118 142.199 71.8586 142.199C72.2231 142.199 72.4054 141.835 72.5877 141.47C72.77 140.559 73.1345 139.829 74.2281 140.012C74.5926 140.012 74.9571 139.647 74.9571 139.1H75.1394Z" fill="#A5E3F5"/>
<path d="M68.9424 183.766C68.9424 183.401 68.9424 183.036 68.5779 182.854C68.5779 182.489 68.3956 182.489 68.0311 182.307C66.9375 181.213 66.573 179.937 66.7553 178.296C67.4843 173.192 70.2182 169.363 73.4989 165.717C73.8635 165.353 74.4103 164.623 75.1393 165.17C75.8684 165.717 75.1393 166.264 75.1393 166.811C75.1393 166.993 75.1393 167.176 75.1393 167.54C75.1393 167.905 75.1392 168.269 75.5038 168.452C75.8683 168.452 76.0506 168.452 76.2328 168.087C76.7796 167.54 77.1442 166.811 77.5087 166.082C78.6023 164.076 79.6958 162.071 81.5184 160.795C81.883 160.613 82.4297 160.066 82.7942 160.43C83.341 160.795 83.1587 161.524 83.1587 162.071C83.1587 162.618 82.6119 162.8 82.2474 163.165C81.1539 164.076 80.2426 165.17 79.5135 166.446C79.149 167.176 77.8732 168.27 78.9668 168.999C79.6958 169.546 80.2426 167.905 80.7894 167.358C82.0652 165.535 83.5232 163.894 85.5281 162.983C85.8926 162.983 86.2571 162.436 86.4394 162.8C86.6217 162.983 86.6217 163.53 86.6217 163.894C86.6217 164.623 86.0749 164.988 85.5281 165.535C84.2523 166.993 82.7942 168.27 81.7007 169.91C81.5184 170.275 81.3361 170.457 81.7007 170.822C82.0652 171.369 82.6119 170.822 82.7942 170.822C83.7055 170.093 84.4346 169.181 85.1637 168.269C86.2572 166.993 87.3508 165.9 88.8089 164.806C89.5379 164.259 90.0847 164.623 89.9024 165.535C89.9024 166.446 89.3556 167.358 88.6265 168.087C87.1685 169.728 85.7104 171.369 84.4346 173.374C84.2523 173.921 84.2523 174.103 84.7991 173.921C85.8927 173.556 86.4394 172.463 87.1685 171.733C88.262 170.457 89.5378 169.363 90.9959 168.452C91.725 168.087 92.2718 168.269 92.0895 169.181C92.0895 169.728 91.9073 170.093 91.725 170.639C90.8137 173.009 89.3556 175.015 87.533 176.656C82.612 181.396 77.1442 185.224 69.6715 183.401C69.1247 183.401 68.7602 183.401 68.7602 183.948L68.9424 183.766Z" fill="#A3E0F3"/>
<path d="M47.6178 95.1641C48.3468 103.915 49.2582 112.848 50.534 121.599C51.4453 127.432 51.8098 133.449 51.9921 139.465C52.1744 150.585 52.1743 161.524 52.5388 172.645C52.5388 178.296 52.9034 183.948 53.8147 189.599C54.1792 192.152 55.455 193.975 58.1889 194.704C58.5534 194.704 58.7357 194.886 59.1002 195.068C60.9228 195.98 62.7454 197.074 64.3858 198.35C64.7503 198.715 65.6616 199.079 64.9326 199.808C64.7503 199.808 64.5681 199.808 64.3858 199.808C62.0164 199.079 59.8293 198.168 57.4599 197.438C53.4502 196.345 51.4453 193.792 51.0808 189.599C50.1695 179.755 49.2581 170.092 49.4404 160.248C49.6227 150.039 49.4404 139.829 49.2582 129.802C49.2582 123.786 48.3469 117.588 47.8001 111.572C47.2533 106.285 46.8888 100.998 47.4356 95.711C47.6178 95.711 47.8001 95.5287 47.9823 95.3464L47.6178 95.1641Z" fill="#F0F6F7"/>
<path d="M59.1008 194.704C58.7362 194.704 58.554 194.522 58.1895 194.339C58.554 193.245 59.6476 193.063 60.3766 192.881C63.2928 192.152 66.2089 191.605 69.1251 190.876C69.3074 190.876 69.672 190.875 69.672 190.511H70.0364C70.7654 190.511 71.4945 190.511 72.2235 190.511C77.1446 189.782 82.0656 189.599 87.1689 189.235C93.0013 188.87 98.6514 189.235 104.484 188.87C108.676 188.87 112.685 188.87 116.877 188.87C116.877 188.87 117.242 188.87 117.424 188.87C121.252 189.417 125.079 189.235 128.907 189.782C132.734 190.329 136.562 191.058 140.025 193.063C140.754 193.428 141.483 193.792 141.3 194.886C141.118 194.886 140.754 195.069 140.571 195.251C133.099 192.334 125.079 191.422 117.06 191.422C107.218 191.422 97.3756 191.422 87.5335 191.422C79.3318 191.605 71.13 192.152 62.9283 194.157C61.6525 194.522 60.5589 194.157 59.2831 194.522L59.1008 194.704Z" fill="#031317"/>
<path d="M47.0711 95.5287C46.5243 100.816 47.0711 106.102 47.4356 111.389C47.9824 117.406 48.8937 123.422 48.8937 129.62C48.8937 139.829 49.4404 149.856 49.0759 160.065C48.8937 169.91 49.805 179.572 50.7163 189.417C51.0808 193.428 53.268 195.98 57.0954 197.256C59.4648 197.985 61.8342 198.715 64.0213 199.626C64.0213 199.808 64.0213 200.173 64.0213 200.355C60.7406 200.355 57.6422 199.444 54.7261 198.532C51.8099 197.621 50.1696 195.433 49.2582 192.516C48.5292 189.782 48.1647 187.047 47.9824 184.312C47.6179 175.379 47.2534 166.264 47.4356 157.331C47.6179 146.392 47.4357 135.454 46.8889 124.698C46.7066 120.14 46.342 115.4 45.7952 110.842C45.7952 110.113 45.7952 109.566 45.7952 108.837C46.1598 108.473 46.1598 108.29 45.7952 107.926C45.7952 106.103 45.4307 104.279 45.7952 102.456C45.7952 102.092 45.7952 101.545 45.7952 101.18C45.4307 99.1748 45.7952 96.9871 45.7952 94.9818C45.7952 94.4348 45.7953 93.341 46.8889 94.4348C46.7066 94.7994 46.7066 95.3464 46.8889 95.711L47.0711 95.5287Z" fill="#0B1314"/>
<path d="M103.937 166.447C103.572 164.26 103.937 163.895 105.577 163.53C106.67 163.348 107.4 162.254 107.764 161.525C108.858 159.884 109.04 159.702 110.68 160.431C112.867 161.343 114.69 162.801 116.33 164.624C117.059 165.353 117.424 165.9 118.335 164.624C118.882 163.713 120.158 163.895 121.069 164.26C122.345 164.624 123.256 165.353 123.985 166.447C127.266 170.276 128.36 174.833 127.631 179.573C126.901 184.496 123.074 186.683 118.153 185.59C115.966 185.043 113.961 184.313 112.321 182.855C108.493 179.756 105.03 176.292 102.296 172.463C101.567 171.552 101.02 170.458 100.656 169.364C100.474 168.453 100.109 167.541 100.656 166.63C101.567 165.718 102.479 166.083 103.39 166.63V166.447H103.937ZM110.133 162.254C110.133 162.254 110.133 162.072 109.951 162.072C109.951 162.072 109.951 162.072 110.133 162.254C110.133 163.166 110.68 163.895 111.045 164.624C112.138 166.265 113.232 167.723 114.326 169.182C114.872 169.911 115.966 170.823 115.054 171.552C114.325 172.099 113.596 170.823 113.05 170.093C111.409 168.27 110.133 166.265 109.04 164.26C109.04 163.895 108.493 163.53 108.311 163.713C107.946 163.713 108.311 164.26 108.311 164.624C109.04 166.63 110.316 168.27 111.409 170.093C111.956 170.823 113.232 172.099 112.503 172.646C111.409 173.193 110.863 171.734 110.316 170.823C109.04 169.364 107.946 167.723 107.217 165.9C107.035 165.353 106.488 165.171 105.941 165.353C105.395 165.536 105.759 166.083 105.941 166.447C106.488 167.906 106.853 169.364 108.129 170.276C108.675 170.64 109.04 171.187 109.404 171.734C109.769 172.099 110.133 172.646 109.587 173.01C109.222 173.557 108.675 173.01 108.311 172.828C107.582 172.099 107.035 171.552 106.306 170.823C105.577 169.911 104.848 169 103.937 168.27C103.39 167.906 103.025 167.176 102.296 167.723C101.749 168.088 102.296 168.817 102.296 169.364C102.479 169.911 102.661 170.64 103.025 171.187C106.306 176.11 110.316 180.485 115.601 183.219C117.606 184.313 119.793 184.496 121.98 184.313C123.985 184.131 125.261 183.219 125.99 181.214C127.63 175.927 126.172 171.552 122.709 167.541C122.345 167.176 121.98 166.994 121.616 166.63C121.069 166.265 120.34 165.718 119.611 166.083C118.882 166.447 119.246 167.176 119.611 167.906C119.611 168.453 119.611 169 119.064 169.182C118.517 169.546 118.153 169.182 117.788 168.817C116.877 167.723 115.966 166.63 115.054 165.718C113.596 164.442 112.321 162.801 110.316 162.436L110.133 162.254Z" fill="#0A1518"/>
<path d="M68.9429 183.765C68.9429 183.036 69.3075 183.218 69.8543 183.218C77.3269 185.041 82.6125 181.212 87.7158 176.472C89.5384 174.832 90.9964 172.644 91.9077 170.456C92.09 169.909 92.2723 169.545 92.2723 168.998C92.4546 168.086 91.9078 167.722 91.1788 168.269C89.7207 168.998 88.6271 170.274 87.3512 171.55C86.6222 172.279 86.0754 173.373 84.9819 173.738C84.9819 173.556 84.6173 173.373 84.6173 173.191C85.8931 171.186 87.3513 169.545 88.8094 167.904C89.3562 167.175 89.9029 166.446 90.0851 165.352C90.0851 164.44 89.7207 164.076 88.9916 164.622C87.5335 165.534 86.44 166.81 85.3464 168.086C84.6174 168.998 83.7061 169.727 82.977 170.639C82.6125 170.821 82.2479 171.368 81.8834 170.639C81.5189 170.274 81.8834 169.909 81.8834 169.727C82.977 168.086 84.4351 166.81 85.711 165.352C86.0755 164.805 86.8045 164.44 86.8045 163.711C86.8045 163.346 86.8045 162.982 86.6223 162.617C86.44 162.252 85.8932 162.617 85.711 162.799C83.7061 163.893 82.2479 165.534 80.9721 167.175C80.4253 167.904 79.8785 169.362 79.1495 168.816C78.0559 168.086 79.1496 166.992 79.6964 166.263C80.4254 164.987 81.3367 163.893 82.4303 162.982C82.7948 162.617 83.3416 162.435 83.3416 161.888C83.3416 161.341 83.3416 160.612 82.977 160.247C82.6125 159.882 82.0657 160.247 81.7012 160.612C79.6963 161.888 78.785 163.893 77.6914 165.899C77.3269 166.628 76.9624 167.357 76.4156 167.904C76.2333 168.086 75.8689 168.269 75.6866 168.269C75.3221 168.269 75.3221 167.722 75.3221 167.357C75.3221 167.175 75.3221 166.992 75.3221 166.628C75.3221 166.081 76.0511 165.534 75.3221 164.987C74.593 164.44 74.0462 164.987 73.6817 165.534C70.401 169.18 67.6672 173.009 66.9381 178.113C66.7559 179.754 66.938 181.03 68.2139 182.124C67.8493 182.124 67.4849 182.124 67.1203 182.124C65.6623 180.848 65.6622 179.025 65.8445 177.202C66.3913 176.837 66.209 176.29 66.209 175.925C66.9381 171.55 69.3075 167.904 72.4059 164.622C73.4995 163.529 74.593 162.617 76.2334 163.529C77.1447 163.893 77.1447 163.164 77.5092 162.799C78.6028 161.159 79.6963 159.7 81.3367 158.789C83.3415 157.695 84.2529 158.059 85.1642 160.065C85.1642 160.247 85.3464 160.794 85.5286 160.794C87.3512 159.882 87.7158 162.617 88.9916 162.435C90.8142 162.435 91.3611 162.617 91.5433 164.44C91.5433 165.352 91.5432 166.081 92.8191 166.081C93.9126 166.081 94.0949 166.992 94.0949 168.086C94.0949 169.18 93.7304 170.274 93.1836 171.186C89.3561 178.296 83.5238 182.853 75.6866 184.676C73.3172 185.223 71.1301 184.676 68.9429 183.582V183.765Z" fill="#0A1518"/>
<path d="M142.029 160.248C141.847 160.612 142.029 161.341 141.483 161.524C140.936 161.524 140.754 160.977 140.571 160.43C139.113 156.601 138.566 152.591 138.384 148.398C137.837 139.465 138.384 130.531 139.295 121.598C139.66 118.499 140.025 115.218 140.936 112.118C141.118 111.207 141.483 110.113 142.212 109.384C142.576 109.384 142.941 109.384 143.305 109.748C142.576 110.478 142.576 111.571 142.394 112.665C141.665 119.958 141.665 127.068 142.029 134.36C142.029 137.459 142.029 140.558 142.029 143.475C142.029 146.939 142.029 150.403 142.029 153.867C142.029 155.872 142.029 157.878 142.029 159.883V160.248Z" fill="#F3F8F9"/>
<path d="M104.302 189.052C98.4692 189.235 92.8191 189.052 86.9867 189.417C82.0657 189.782 76.9624 189.964 72.0413 190.693C71.3123 190.693 70.5832 190.693 69.8542 190.693C69.8542 190.693 69.8542 190.511 69.8542 190.328C74.2284 188.505 78.785 187.958 83.3415 187.229C91.1787 185.953 99.1982 186.318 107.218 186.865C110.316 187.047 113.232 187.594 116.331 187.958C116.877 187.958 117.424 187.958 117.06 188.87C117.06 188.87 116.695 188.87 116.513 188.87C116.148 188.505 115.784 188.505 115.237 188.505C111.956 188.505 108.676 188.505 105.213 188.505C104.848 188.505 104.301 188.505 103.937 188.87L104.302 189.052Z" fill="#F3F8F9"/>
<path d="M117.424 110.295C117.424 109.931 117.424 109.748 117.424 109.384C118.335 108.837 118.882 109.384 119.611 109.931C124.35 114.306 127.448 119.411 127.813 125.974C127.995 130.531 127.448 135.089 125.626 139.464C124.168 142.746 122.345 145.298 119.247 147.121C118.882 147.121 118.7 146.757 118.7 146.574C119.976 144.569 121.981 142.928 122.71 140.376C125.444 135.454 126.355 129.985 125.444 124.333C124.714 118.681 121.434 114.124 117.424 110.295Z" fill="#090F11"/>
<path d="M112.686 150.585C113.233 150.585 113.779 149.674 114.326 150.585C114.326 151.861 113.05 152.226 112.321 152.955C111.046 154.049 109.587 154.778 108.312 155.69C107.947 155.872 107.583 155.69 107.4 156.419C107.036 156.419 106.671 156.419 106.489 156.784C106.124 156.784 105.578 156.784 105.395 157.148C102.844 157.695 100.292 158.607 97.5583 158.607C89.3565 158.789 82.0661 156.601 76.2337 150.95C75.8692 150.767 74.7757 150.403 75.687 149.491C76.7805 150.038 77.5095 150.767 78.6031 151.132C80.7902 152.773 83.1596 153.502 85.529 154.414C94.642 157.695 103.573 157.148 111.775 151.497C111.957 151.497 112.139 151.497 112.139 151.132C112.321 151.132 112.504 151.132 112.686 150.767V150.585Z" fill="#090F11"/>
<path d="M141.847 154.05C141.847 150.586 141.847 147.122 141.847 143.658C142.394 140.559 142.394 137.46 141.847 134.543C141.482 127.251 141.665 120.141 142.211 112.849C142.211 111.937 142.211 110.843 143.123 109.932C143.123 109.932 143.487 109.932 143.669 109.932C144.034 110.479 144.034 111.208 143.852 111.937C143.123 118.5 143.305 125.063 143.487 131.444C143.852 140.559 143.123 149.675 142.94 158.79C142.94 159.519 142.94 160.066 142.758 160.795C142.758 161.16 142.758 161.707 142.394 161.525C142.029 161.525 142.211 160.978 142.211 160.613V160.248C142.211 158.243 142.576 156.055 141.847 154.05Z" fill="#031317"/>
<path d="M80.7893 105.374C79.3313 105.556 78.4199 107.379 76.7796 106.832C76.2328 105.192 77.5087 104.827 78.42 104.28C81.8829 102.092 85.5281 100.452 89.5378 99.5401C93.9121 98.4462 98.2863 98.0816 102.843 99.5401C105.03 100.269 107.035 101.363 108.858 103.004C108.858 103.369 108.858 103.551 108.858 103.915C105.759 103.004 102.843 101.728 99.7445 101.363C93.0008 100.452 86.9862 102.457 80.9716 105.374H80.7893Z" fill="#090F11"/>
<path d="M67.1198 139.465C67.1198 140.195 67.302 140.742 67.6666 141.288C67.302 142.382 66.7553 141.653 66.573 141.288C65.1149 139.283 64.3859 137.095 64.0213 134.725C63.2923 129.803 63.2923 124.881 64.7504 120.141C65.2972 117.953 66.3908 116.13 67.4843 114.307C67.8489 113.76 68.2133 113.031 69.1246 113.213C69.1246 113.942 68.9424 114.672 68.5779 115.219C64.5681 122.875 64.7504 130.897 66.9376 138.918C66.9376 139.101 66.9375 139.283 67.1198 139.465Z" fill="#0B1314"/>
<path d="M66.9375 138.918C64.9326 130.897 64.7503 122.875 68.5778 115.218C68.9423 114.489 69.3068 113.942 69.1245 113.213H69.3068C70.7649 113.395 70.2181 114.489 70.0358 115.218C69.1245 118.5 68.3956 121.599 67.8488 124.881C67.302 128.891 67.302 132.902 67.8488 136.913C67.8488 137.824 68.5778 139.101 66.9375 139.465C66.9375 139.283 66.9374 139.101 66.7551 138.918H66.9375Z" fill="#F3F8F9"/>
<path d="M141.118 189.781C140.754 190.328 140.389 190.693 140.025 189.781C139.478 188.87 139.296 187.776 139.296 186.865C138.749 181.031 139.296 175.379 140.207 169.728C140.389 168.269 141.118 168.087 142.212 169.181C141.847 169.545 141.847 169.91 141.847 170.457C141.483 176.838 141.118 183.401 141.118 189.781Z" fill="#F3F8F9"/>
<path d="M52.1743 111.208C52.1743 108.473 54.3614 105.921 56.7308 106.103C58.7357 106.103 61.2874 108.473 61.1051 110.114C61.1051 112.848 58.7357 115.401 56.3663 115.401C53.9969 115.401 52.1743 113.578 52.1743 111.208ZM56.3663 113.578C58.1889 113.578 60.1938 110.478 59.4647 108.838C59.4647 108.473 58.918 108.291 58.5534 108.291C56.5486 107.379 54.5437 108.655 53.9969 111.025C53.6324 112.666 54.5437 113.76 56.1841 113.76L56.3663 113.578Z" fill="#0A1518"/>
<path d="M83.5241 97.899C81.1547 97.899 79.3322 96.6228 79.3322 94.4351C79.3322 92.2474 82.066 89.3305 84.4354 89.6952C85.3467 89.6952 86.4403 88.9659 87.1693 90.0598C87.8984 90.9713 88.4452 92.0651 88.4452 93.159C88.4452 95.529 86.0758 97.899 83.3419 97.899H83.5241ZM86.9871 92.9767C86.9871 91.5182 86.0757 90.789 84.6176 90.9713C83.5241 90.9713 82.795 91.7005 81.8837 92.4298C81.1547 93.159 80.4257 93.8882 80.9724 95.1644C81.5192 96.2582 82.6128 96.6228 83.7063 96.4405C85.5289 96.2582 86.8048 94.6174 86.8048 93.159L86.9871 92.9767Z" fill="#0A1518"/>
<path d="M141.117 189.781C141.117 183.401 141.482 176.838 141.846 170.457C141.846 170.092 141.847 169.545 142.211 169.181C142.94 169.181 143.122 169.728 143.122 170.457C143.122 176.655 143.122 183.036 142.576 189.234C142.576 189.781 142.211 190.511 142.029 191.058C141.846 191.058 141.664 191.058 141.3 191.058C141.3 190.693 141.117 190.146 140.935 189.781H141.117Z" fill="#0B1314"/>
<path d="M63.1105 95.5294C64.0218 95.1648 64.9332 95.5294 65.1154 96.4409C65.4799 97.3524 66.0267 97.8994 66.938 97.8994C67.4848 97.8994 68.0316 98.264 68.0316 98.9932C68.0316 99.9047 67.3025 100.087 66.5735 99.9047C65.6622 99.9047 65.2976 100.087 65.2976 100.999C65.2976 101.546 65.1154 102.092 64.7509 102.639C64.2041 103.551 63.6573 103.733 62.9283 102.822C62.9283 102.275 62.7459 101.91 62.7459 101.363C62.7459 100.087 62.3814 99.3578 60.9233 99.5401C60.1943 99.5401 59.6476 99.1755 59.8298 98.264C60.1943 98.0817 60.7411 97.717 61.1057 97.5347C62.5638 97.5347 62.5638 96.2586 62.9283 95.5294H63.1105Z" fill="#031317"/>
<path d="M63.8394 155.144C64.2039 154.05 65.1151 154.05 65.8442 153.867C66.391 153.867 66.9378 154.05 66.9378 153.32C66.9378 152.409 66.9377 151.68 67.6668 151.133C68.5781 151.133 69.1249 151.68 69.3072 152.591C69.3072 153.685 69.8539 154.05 70.9475 154.05C71.8588 154.05 73.1347 154.05 73.3169 154.961C73.3169 156.237 71.8588 156.055 71.1298 155.873C70.0362 155.873 69.8539 156.42 69.8539 157.331C69.8539 158.243 69.8539 159.701 68.2135 159.519C68.2135 159.154 67.849 158.79 67.6668 158.425C67.6668 156.602 66.7555 155.508 64.9329 155.69C64.5684 155.69 64.3861 155.326 64.0216 155.144H63.8394Z" fill="#031317"/>
<path d="M135.103 165.534C132.734 165.534 130.911 163.893 130.911 161.888C130.911 159.883 132.369 158.606 134.374 158.606C136.379 158.606 138.384 160.43 138.384 162.435C138.384 164.44 137.29 165.534 135.103 165.534ZM135.285 164.076C136.197 163.893 137.108 163.711 137.108 162.435C137.108 161.159 135.832 160.065 134.374 160.065C133.281 160.065 132.552 160.43 132.552 161.706C132.552 162.982 133.645 164.076 135.285 164.076Z" fill="#0A1518"/>
<path d="M122.345 154.231C122.892 154.231 123.438 154.414 123.621 154.961C123.985 155.69 124.532 156.055 125.261 155.872C126.172 155.872 126.901 156.237 126.901 157.331C126.901 158.242 126.355 158.789 125.443 158.971C124.35 158.971 123.438 159.518 123.074 160.795C123.074 161.341 121.98 161.341 121.798 160.795C121.616 159.154 119.975 159.154 119.429 158.06C120.34 156.784 121.251 155.508 122.345 154.231Z" fill="#090F11"/>
<path d="M127.631 97.17C128.907 96.623 129.818 97.17 130.001 98.6284C130.001 99.9046 130.73 100.269 131.823 100.087C132.006 100.087 132.188 100.087 132.37 100.087C132.917 100.087 133.281 100.634 133.281 101.181C133.281 101.728 132.917 102.275 132.37 102.092C130.547 101.91 130.183 102.821 130.001 104.28C130.001 105.009 129.272 105.374 128.543 105.191C127.814 104.098 127.996 102.275 126.173 101.728C125.627 101.728 126.173 100.998 126.356 100.816C127.449 100.451 127.449 99.54 127.267 98.8107C127.267 98.2638 127.267 97.7169 127.631 97.17Z" fill="#080D0E"/>
<path d="M127.631 97.1688C127.631 97.7157 127.266 98.2626 127.266 98.8095C127.266 99.7211 127.448 100.45 126.355 100.815C125.99 100.815 125.626 101.544 126.173 101.726C127.995 102.273 127.631 104.096 128.542 105.19C128.542 105.737 128.177 106.102 127.448 106.102C126.719 106.102 126.355 105.19 126.355 104.643C126.355 103.003 125.808 102.456 124.35 102.456C123.621 102.456 123.256 101.909 123.256 101.18C123.256 100.45 123.803 99.9034 124.532 100.086C125.626 100.086 125.808 99.7211 125.808 98.8095C125.808 97.5334 126.173 96.6218 127.813 97.1688H127.631Z" fill="#F0F6F7"/>
<path d="M133.827 123.604C132.369 123.604 131.276 122.51 131.276 121.234C131.276 119.958 132.734 118.682 134.192 118.864C135.65 118.864 136.744 119.958 136.744 121.052C136.744 122.51 135.286 123.786 133.827 123.786V123.604ZM133.463 121.052C133.463 121.416 133.645 121.781 134.01 121.599C134.739 121.599 134.921 121.052 135.103 120.323C135.103 119.958 134.739 119.776 134.557 119.958C134.01 119.958 133.463 120.505 133.463 121.052Z" fill="#031317"/>
<path d="M63.2924 169.363C63.2924 169.909 62.7456 170.274 62.1988 170.274C61.2875 170.274 60.7407 170.639 60.7407 171.55C60.7407 172.097 60.5584 172.644 59.8294 172.644C59.2826 172.644 59.2826 171.915 59.2826 171.55C59.2826 170.456 58.9181 169.727 57.8246 169.18C57.2778 168.998 57.4601 168.269 57.8246 168.269C58.9181 168.269 59.1003 167.539 59.4649 166.628C59.4649 165.899 60.5584 165.716 60.7407 166.628C61.1052 167.904 61.652 168.451 62.9279 168.816C63.1101 168.816 63.2924 169.18 63.2924 169.545V169.363Z" fill="#031317"/>
<path d="M75.6866 101.727C74.2285 101.727 73.3172 100.816 73.3172 99.5396C73.3172 98.2634 74.4107 97.1696 75.8688 96.9873C77.1446 96.9873 78.2381 98.2634 78.2381 99.5396C78.2381 100.816 77.3269 101.727 75.6866 101.545V101.727ZM76.5979 99.3573C76.5979 98.9927 76.5979 98.6281 76.0511 98.6281C75.5043 98.6281 75.322 98.9927 75.322 99.5396C75.322 99.9042 75.6866 100.087 76.0511 100.087C76.4156 100.087 76.5979 99.9042 76.5979 99.3573Z" fill="#031317"/>
<path d="M134.01 133.084C134.01 134.543 132.916 135.637 131.64 135.637C130.547 135.637 129.635 134.543 129.635 133.449C129.635 132.173 130.729 131.079 132.005 131.079C133.28 131.079 134.01 131.808 134.01 133.084ZM132.734 133.084C132.734 133.084 132.734 132.72 132.369 132.72C132.005 132.72 131.64 132.902 131.64 133.267C131.64 133.449 131.822 133.814 131.822 133.814C132.187 133.814 132.551 133.631 132.551 133.084H132.734Z" fill="#0A1518"/>
<path d="M63.8397 155.144C64.022 155.509 64.3865 155.691 64.751 155.691C66.7559 155.691 67.4849 156.785 67.4849 158.426C67.4849 158.79 67.8494 159.155 68.0317 159.52C68.0317 160.067 67.6672 160.796 66.9382 160.796C66.2091 160.796 65.8445 160.249 65.8445 159.702C65.6623 158.426 65.2978 157.514 63.8397 156.967C62.7461 156.603 62.7461 155.691 63.8397 154.962V155.144Z" fill="#F0F6F7"/>
<path d="M122.345 154.232C121.433 155.508 120.522 156.784 119.429 158.06C117.97 157.513 117.606 156.602 118.699 156.237C119.975 155.872 119.611 154.961 119.793 154.232C119.793 153.502 120.158 152.773 121.069 152.591C122.162 152.591 122.345 153.32 122.345 154.232Z" fill="#F0F6F7"/>
<path d="M57.825 122.693C57.096 122.693 56.0024 122.328 56.0024 121.052C56.0024 119.958 57.4605 118.682 58.7364 118.864C59.6477 118.864 60.5589 119.046 60.3766 120.323C60.3766 121.599 59.2831 122.693 57.6427 122.693H57.825ZM58.3718 121.416C59.1009 121.416 59.4653 120.687 59.4653 120.14C59.4653 119.958 59.4653 119.593 59.1008 119.776C58.554 119.958 58.0073 120.505 57.825 121.234C57.825 121.234 58.1895 121.416 58.3718 121.416Z" fill="#031317"/>
<path d="M60.0114 98.2627C60.0114 99.1742 60.376 99.5388 61.105 99.5388C62.5631 99.5388 62.9276 100.268 62.9276 101.362C62.9276 101.909 62.9276 102.273 63.1098 102.82H62.7453C61.4695 101.727 60.3759 100.45 58.9179 99.5388C58.3711 99.1742 58.9179 98.2627 59.8292 98.2627H60.0114Z" fill="#F0F6F7"/>
<path d="M63.1104 95.5283C62.5636 96.2575 62.7458 97.7159 61.2878 97.5336C61.1055 96.9867 60.7409 96.4398 60.9232 95.8929C60.9232 95.1637 60.9232 94.6167 61.8345 94.2521C62.7458 94.0698 63.1104 94.6167 63.2927 95.346L63.1104 95.5283Z" fill="#F0F6F7"/>
<path d="M67.4849 151.314C66.7559 151.861 66.7558 152.591 66.7558 153.502C66.7558 154.414 66.2091 154.231 65.6623 154.049C65.48 153.138 65.2977 152.408 65.48 151.497C65.48 150.95 65.6623 150.585 66.209 150.403C66.9381 150.221 67.1203 150.768 67.3026 151.314H67.4849Z" fill="#F0F6F7"/>
<path d="M141.848 154.049C142.577 156.054 142.03 158.242 142.212 160.247C142.212 160.247 142.212 160.247 141.848 160.247C141.848 158.242 141.848 156.237 141.848 154.231V154.049Z" fill="#213338"/>
<path d="M118.7 146.575C118.7 146.94 119.064 147.122 119.246 147.122C119.064 147.669 118.517 147.669 117.971 147.851C117.788 147.122 117.971 146.758 118.517 146.575H118.7Z" fill="#213338"/>
<path d="M108.676 103.914C108.676 103.55 108.676 103.368 108.676 103.003C109.223 103.185 109.769 103.55 109.405 104.279C109.223 104.279 108.858 104.279 108.676 104.097C108.676 104.097 108.676 104.097 108.676 103.914Z" fill="#213338"/>
<path d="M77.327 93.5237C77.1448 93.1591 76.4158 92.6122 77.1448 92.2476C77.6916 91.8829 77.8739 92.6122 78.0561 93.1591C78.0561 93.1591 77.6916 93.5237 77.5094 93.706L77.327 93.5237Z" fill="#080D0E"/>
<path d="M143.669 110.114C143.669 110.114 143.305 110.114 143.122 110.114C142.94 109.749 142.575 109.749 142.029 109.749C142.94 109.02 143.305 109.202 143.487 110.296L143.669 110.114Z" fill="#AFE7F8"/>
<path d="M114.326 150.586C114.143 150.586 113.961 150.039 114.143 149.857C114.508 149.492 114.872 149.675 115.237 149.857C115.055 150.039 115.055 150.951 114.326 150.404V150.586Z" fill="#090F11"/>
<path d="M47.0717 95.5291C47.0717 95.1645 47.0717 94.6175 47.0717 94.2529C47.2539 94.6175 47.8007 94.7999 47.6184 95.1645C47.4362 95.1645 47.2539 95.3468 47.0717 95.5291Z" fill="#A3E0F3"/>
<path d="M77.3264 93.5235C77.3264 93.5235 77.691 93.1589 77.8733 92.9766C78.2378 93.3412 78.42 93.7058 78.2377 94.0704C77.6909 94.435 77.691 93.8881 77.5087 93.5235H77.3264Z" fill="#213338"/>
<path d="M69.1247 88.9655C69.1247 89.1479 69.1248 89.3302 68.7602 89.3302C68.3957 89.3302 68.2134 88.9656 68.2134 88.6009C68.2134 88.6009 68.2135 88.2363 68.7602 88.2363C69.1248 88.2363 69.1247 88.6009 69.1247 88.7833V88.9655Z" fill="#213338"/>
<path d="M64.3867 200.356C64.3867 200.174 64.3867 199.809 64.3867 199.627C64.569 199.627 64.7512 199.627 64.9335 199.627C65.298 200.356 65.1158 200.538 64.3867 200.356Z" fill="#213338"/>
<path d="M105.396 157.148C105.76 156.783 106.125 156.783 106.489 156.783C106.307 157.33 105.76 157.148 105.396 157.148Z" fill="#A3E0F3"/>
<path d="M45.978 101.18C45.978 101.544 45.978 102.091 45.978 102.456C45.7957 102.091 45.7957 101.544 45.978 101.18Z" fill="#0A1518"/>
<path d="M66.0271 176.291C66.0271 176.838 66.0271 177.203 65.6626 177.567C65.6626 177.02 65.6626 176.656 66.0271 176.291Z" fill="#213338"/>
<path d="M66.9375 182.489C67.302 182.489 67.6665 182.489 68.031 182.489C68.2133 182.489 68.5778 182.489 68.5778 183.036C67.8487 183.948 67.4843 183.036 66.9375 182.672V182.489Z" fill="#213338"/>
<path d="M107.4 156.237C107.4 155.69 107.947 155.872 108.311 155.508C108.311 155.872 107.947 156.237 107.4 156.237Z" fill="#A3E0F3"/>
<path d="M106.489 156.783C106.489 156.237 107.036 156.419 107.4 156.419C107.4 156.966 106.853 156.783 106.489 156.783Z" fill="#A3E0F3"/>
<path d="M46.1605 107.926C46.525 108.108 46.525 108.473 46.1605 108.837C46.1605 108.473 46.1605 108.29 46.1605 107.926Z" fill="#0A1518"/>
<path d="M141.483 191.24C141.665 191.24 141.847 191.24 142.212 191.24C142.212 191.605 142.212 191.605 141.847 191.605C141.483 191.605 141.483 191.605 141.483 191.24Z" fill="#213338"/>
<path d="M70.0362 190.329C70.0362 190.329 70.0362 190.511 70.0362 190.694H69.6718C69.6718 190.511 69.854 190.329 70.2185 190.329H70.0362Z" fill="#A3E0F3"/>
<path d="M69.4901 190.692C69.4901 191.057 69.3079 191.057 68.9434 191.057C68.9434 191.057 69.3079 190.875 69.4901 190.692Z" fill="#A3E0F3"/>
<path d="M83.5239 123.422C85.1642 123.422 86.8046 123.422 88.4449 123.422C89.5385 123.422 90.0853 123.057 89.903 121.781C89.903 119.229 89.903 116.494 89.903 113.942C89.903 111.754 90.632 111.207 92.6369 111.572C95.0063 112.119 97.3757 111.572 99.7451 111.572C102.904 111.572 104.545 113.152 104.666 116.312C104.666 117.953 105.031 119.593 105.031 121.234C105.031 122.328 105.577 122.328 106.306 122.328C109.405 122.328 112.321 122.328 115.419 122.693C117.242 123.057 118.153 123.604 118.153 125.427C118.153 128.344 117.789 131.079 117.424 133.813C117.242 135.454 115.784 135.636 114.69 135.636C112.503 135.636 110.498 135.636 108.311 135.636C106.124 135.636 106.124 135.272 106.124 137.824C106.124 139.83 106.124 141.835 106.124 143.658C106.124 147.122 104.848 148.216 101.385 148.033C98.4692 148.033 95.5531 147.486 92.6369 147.669C91.1788 147.669 90.9965 146.94 90.9965 145.846C90.9965 143.476 90.9965 141.106 90.9965 138.918C90.9965 138.371 90.9965 137.824 90.9965 137.46C90.9965 135.272 90.9965 135.272 88.6272 135.272C85.5287 135.272 82.4303 135.454 79.3319 134.907C77.1448 134.543 76.7802 134.178 76.7802 132.173C76.7802 129.985 76.7802 127.797 76.7802 125.61C76.7802 123.422 77.327 122.875 79.5141 122.875C80.9722 122.875 82.248 122.875 83.7061 122.875L83.5239 123.422ZM93.0015 134.907C93.0015 138.189 93.0015 141.288 93.0015 144.57C93.0015 145.116 92.6369 145.846 93.9128 145.846C96.6467 145.846 99.3806 146.028 102.114 146.21C102.844 146.21 103.208 146.21 103.39 145.299C103.573 144.57 103.39 143.658 103.573 142.929C103.573 140.741 103.573 138.371 103.937 136.183C104.119 135.272 104.302 134.36 105.213 133.813C108.129 133.813 111.045 133.813 114.144 133.813C115.055 133.813 115.419 133.631 115.419 132.537C115.419 130.532 115.419 128.527 115.602 126.521C115.602 125.245 115.055 124.88 113.779 125.063C111.227 124.333 108.858 124.698 106.306 124.516C103.573 124.516 103.573 124.333 103.208 121.781C102.843 119.411 103.208 117.223 102.843 114.853C103.208 113.395 102.114 113.577 101.385 113.577C99.016 113.942 96.6467 114.124 94.2773 113.942C93.1837 113.942 92.8192 114.124 93.0015 115.218C93.0015 117.77 93.0015 120.505 93.0015 123.057C92.0902 124.698 90.8143 125.427 88.9917 125.245C86.0755 125.245 83.3416 125.245 80.4254 125.245C79.3319 125.063 78.6028 125.063 78.6028 126.521C78.6028 128.344 78.6028 130.35 78.6028 132.173C78.6028 133.084 78.9674 133.266 79.6964 133.266C83.3417 133.266 86.9869 133.813 90.6321 133.266C91.3611 133.266 92.0902 133.631 92.4547 134.36C92.4547 134.543 92.4546 134.907 92.8191 134.725L93.0015 134.907Z" fill="#0C0E0E"/>
<path d="M111.774 151.496C103.572 157.148 94.8237 157.695 85.5284 154.413C83.159 153.502 80.6074 152.773 78.6025 151.132C78.9671 150.22 79.6962 150.038 80.6075 150.403C86.0753 152.955 91.9076 153.866 98.1045 153.684C101.385 153.684 104.301 152.59 107.4 151.861C108.858 151.496 110.316 150.585 111.956 151.496H111.774Z" fill="#F3F8F9"/>
<path d="M117.424 110.296C121.434 114.307 124.532 118.682 125.443 124.334C126.172 129.985 125.443 135.272 122.709 140.377C122.709 137.277 123.256 134.178 123.439 131.079C123.439 127.615 123.074 123.969 121.798 120.687C120.705 118.317 119.429 115.947 118.335 113.76C118.335 113.395 117.971 113.213 117.606 113.031C117.606 112.484 117.606 111.937 117.606 111.572C117.606 111.207 117.606 110.843 117.788 110.296H117.424Z" fill="#F3F8F9"/>
<path d="M108.675 103.915C108.675 103.915 108.675 103.915 108.675 104.097C108.311 105.738 107.764 106.102 106.124 105.373C104.483 104.826 102.843 104.279 101.203 103.732C96.0995 102.456 91.1785 103.185 86.0752 104.462C84.6171 104.826 82.9767 105.191 81.5186 105.555C81.1541 105.555 80.9718 105.555 80.7896 105.191C86.6219 102.274 92.8187 100.268 99.5624 101.18C102.661 101.545 105.577 102.821 108.675 103.732V103.915Z" fill="#F0F6F7"/>
<path d="M117.242 111.572C117.425 112.119 117.425 112.483 117.242 113.03C116.878 113.03 116.331 113.395 115.966 113.395C114.873 113.395 114.326 113.759 114.144 114.853C114.144 115.4 113.779 115.947 113.233 115.765C112.686 115.765 112.504 115.218 112.504 114.853C112.504 113.577 111.957 113.213 110.863 113.213C110.499 113.213 110.134 113.213 109.77 113.213C109.405 113.213 108.858 113.03 108.858 112.483C108.858 111.936 109.405 111.754 109.77 111.754C111.046 111.572 112.686 111.754 113.415 110.113C113.415 109.749 114.326 109.749 114.508 110.113C114.873 111.572 115.967 111.389 117.06 111.754L117.242 111.572Z" fill="#0B1314"/>
<path d="M116.33 142.017C116.33 142.746 115.784 143.111 115.237 143.111C113.779 143.111 113.414 143.658 113.414 144.934C113.414 145.299 113.232 145.663 112.867 145.846C112.321 145.846 112.138 145.481 112.138 144.934C111.774 144.023 111.774 142.746 110.316 142.746C109.769 142.746 109.587 141.835 110.316 141.653C111.592 141.288 111.774 140.559 111.956 139.465C111.956 138.553 113.414 138.553 113.596 139.465C113.779 140.741 114.508 141.288 115.784 141.288C116.148 141.288 116.513 141.835 116.513 142.2L116.33 142.017Z" fill="#0A1518"/>
<path d="M83.7065 120.14C83.3419 120.14 82.9775 119.958 82.9775 119.776C82.9775 118.499 82.613 117.588 81.1549 117.406C80.7903 117.406 80.4258 117.041 80.4258 116.676C80.4258 116.312 80.7903 116.129 81.1549 115.947C82.2484 115.765 82.9775 115.4 82.9775 114.124C82.9775 113.395 84.0711 113.395 84.2533 114.124C84.6178 115.218 85.3468 115.4 86.2581 115.583C86.8049 115.583 86.9872 116.129 86.9872 116.494C86.9872 117.041 86.8049 117.406 86.4404 117.588C85.1645 117.77 84.2533 118.499 84.071 119.776C84.071 119.776 83.7065 119.958 83.7065 120.14Z" fill="#0A1518"/>
<path d="M75.5044 109.02H75.8689C76.4157 110.296 77.5093 110.113 78.6028 110.296C79.1496 110.296 79.3319 110.66 79.3319 111.207C79.3319 111.754 78.9674 112.119 78.6028 112.119C76.7802 112.119 76.2335 113.03 76.2335 114.671C76.2335 115.218 76.2334 115.765 75.5044 115.765C74.7753 115.765 74.9577 115.036 74.7754 114.489C74.7754 113.942 74.7753 113.577 74.5931 113.03C74.5931 112.666 74.5931 112.301 74.0463 112.119C71.4947 111.39 72.9528 110.843 74.0463 110.478C74.7754 110.296 74.5931 109.02 75.5044 109.02Z" fill="#0A1518"/>
<path d="M86.0753 146.575C86.0753 147.122 85.893 147.487 85.5285 147.669C84.7994 148.034 83.5237 147.669 83.3414 149.128C83.3414 149.492 82.7945 149.128 82.7945 149.128C82.7945 147.852 81.701 147.852 80.7897 147.487C80.4252 147.487 79.8784 147.122 79.8784 146.575C79.8784 146.029 80.4252 145.846 80.7897 145.846C81.701 145.846 82.6123 145.482 82.2478 144.388C82.2478 144.023 82.43 143.841 82.7945 143.841C83.1591 143.841 83.5236 143.841 83.5236 144.205C83.5236 145.482 84.4349 145.664 85.3462 145.846C85.7108 145.846 86.0753 146.211 86.0753 146.758V146.575Z" fill="#0A1518"/>
<path d="M75.1398 139.101C75.1398 139.648 74.7753 140.012 74.4108 140.012C73.3172 140.012 72.9526 140.742 72.7704 141.471C72.7704 141.835 72.4059 142.2 72.0414 142.2C71.4946 142.2 71.4946 141.835 71.3123 141.289C71.13 140.559 71.13 139.83 70.401 139.283C70.0365 138.919 71.1301 136.549 71.6768 136.366C72.2236 136.366 72.5881 136.366 72.7704 136.913C72.9526 137.825 73.4994 138.372 74.593 138.372C74.9575 138.372 75.3221 138.736 75.3221 139.101H75.1398Z" fill="#0A1518"/>
<path d="M112.686 150.585C112.686 150.767 112.321 150.95 112.139 150.95C112.139 150.767 112.503 150.585 112.686 150.585Z" fill="#F3F8F9"/>
<path d="M84.9819 173.739C84.2529 173.922 84.2528 173.739 84.6174 173.192C84.6174 173.375 84.9819 173.557 84.9819 173.739Z" fill="#0A1518"/>
<path d="M104.302 189.053C104.666 188.688 105.031 188.688 105.577 188.688C108.858 188.688 112.139 188.688 115.602 188.688C115.966 188.688 116.513 188.688 116.878 189.053C112.686 189.053 108.676 189.053 104.484 189.053H104.302Z" fill="#A3E0F3"/>
<path d="M110.133 162.254C112.138 162.618 113.414 164.259 114.872 165.535C115.965 166.447 116.694 167.54 117.606 168.634C117.97 168.999 118.335 169.364 118.882 168.999C119.428 168.634 119.611 168.27 119.428 167.723C119.246 167.176 118.882 166.447 119.428 165.9C120.157 165.535 120.886 166.082 121.433 166.447C121.798 166.629 122.162 166.994 122.527 167.358C125.99 171.369 127.266 175.927 125.807 181.031C125.261 183.037 123.803 183.948 121.798 184.13C119.611 184.313 117.423 184.13 115.419 183.037C110.133 180.302 106.123 175.927 102.843 171.004C102.478 170.457 102.296 169.91 102.114 169.181C101.931 168.634 101.385 168.087 102.114 167.541C102.843 166.994 103.207 167.723 103.754 168.087C104.665 168.817 105.394 169.728 106.123 170.64C106.67 171.369 107.399 172.098 108.128 172.645C108.493 173.01 109.039 173.374 109.404 172.827C109.769 172.463 109.404 171.916 109.222 171.551C108.857 171.004 108.493 170.457 107.946 170.093C106.488 169.181 106.123 167.723 105.759 166.264C105.759 165.9 105.212 165.353 105.759 165.171C106.306 164.988 106.67 165.171 107.035 165.717C107.764 167.541 108.857 169.181 110.133 170.64C110.862 171.369 111.409 173.01 112.32 172.463C113.049 172.098 111.773 170.822 111.227 169.911C109.951 168.27 108.675 166.447 108.128 164.441C108.128 164.077 107.764 163.53 108.128 163.53C108.493 163.53 108.675 163.894 108.857 164.077C109.951 166.264 111.409 168.087 112.867 169.911C113.414 170.64 114.143 171.916 114.872 171.369C115.783 170.64 114.507 169.728 114.143 168.999C113.049 167.541 111.956 165.9 110.862 164.441C110.315 163.712 109.768 162.983 109.951 162.071L110.133 162.254Z" fill="#A3E0F3"/>
<path d="M109.951 162.436C109.951 162.436 109.951 162.436 109.769 162.254C109.769 162.254 109.951 162.254 109.951 162.436Z" fill="#A3E0F3"/>
<path d="M103.937 166.446L103.754 166.629H103.572L103.754 166.446H103.937Z" fill="#213338"/>
<path d="M141.847 134.543C142.394 137.642 142.394 140.741 141.847 143.658C141.847 140.559 141.847 137.46 141.847 134.543Z" fill="#213338"/>
<path d="M66.9374 138.918C67.1197 138.918 67.3019 139.283 67.1197 139.465C66.9374 139.465 66.9374 139.1 66.9374 138.918Z" fill="#A5E3F5"/>
<path d="M56.3669 113.577C54.7266 113.577 53.8154 112.483 54.1799 110.843C54.7267 108.473 56.7315 107.197 58.7364 108.108C59.1009 108.108 59.4654 108.29 59.6477 108.655C60.3767 110.296 58.3719 113.577 56.5493 113.395L56.3669 113.577Z" fill="#F3F8F9"/>
<path d="M86.9866 92.9761C86.9866 94.6168 85.5284 96.0753 83.8881 96.2576C82.7945 96.2576 81.701 96.2576 81.1542 94.9815C80.6074 93.8876 81.1542 92.9761 82.0655 92.2468C82.7945 91.5176 83.7058 90.9707 84.7994 90.7884C86.4397 90.6061 87.1688 91.153 87.1688 92.7938L86.9866 92.9761Z" fill="#F0F6F7"/>
<path d="M135.286 164.076C133.828 164.076 132.552 162.982 132.552 161.706C132.552 160.43 133.281 160.065 134.374 160.065C135.833 160.065 136.926 161.159 137.108 162.435C137.108 163.712 136.197 163.894 135.286 164.076Z" fill="#F3F8F9"/>
<path d="M133.463 121.052C133.463 120.505 134.01 120.14 134.556 119.958C134.739 119.958 135.103 119.958 135.103 120.323C135.103 120.87 134.739 121.416 134.01 121.599C133.645 121.599 133.463 121.599 133.463 121.052Z" fill="#AFE7F8"/>
<path d="M76.5977 99.3571C76.5977 99.7218 76.4154 100.086 76.0509 100.086C75.6864 100.086 75.3218 100.086 75.3218 99.5395C75.3218 98.9925 75.6864 98.8102 76.0509 98.6279C76.4154 98.6279 76.5977 98.9925 76.5977 99.3571Z" fill="#0AB6E8"/>
<path d="M132.735 133.084C132.735 133.631 132.37 133.813 132.006 133.813C132.006 133.813 131.641 133.449 131.823 133.266C131.823 132.902 132.188 132.537 132.553 132.719C132.553 132.719 132.917 132.902 132.917 133.084H132.735Z" fill="#AFE7F8"/>
<path d="M58.3712 121.416L57.8244 121.234C57.8244 120.505 58.3711 120.14 59.1001 119.775C59.2824 119.775 59.4647 119.958 59.4647 120.14C59.4647 120.687 59.1002 121.234 58.3712 121.416Z" fill="#0AB6E8"/>
<path d="M80.4257 125.792C83.3418 125.792 86.0758 125.792 88.9919 125.792C90.8145 125.792 92.0904 125.245 93.0017 123.604C94.0953 123.239 94.2775 122.51 94.2775 121.599C94.2775 120.322 94.2775 119.046 94.2775 117.77C94.2775 116.494 94.642 115.947 95.9178 115.765C98.2872 115.4 100.474 115.582 102.844 115.218C103.026 117.588 102.844 119.775 103.208 122.145C103.573 124.698 103.755 124.698 106.307 124.88C108.858 124.88 111.41 124.88 113.779 125.427C113.415 126.339 113.233 127.25 113.233 128.162C113.233 131.99 113.233 131.99 109.223 132.355C107.765 132.537 105.942 132.355 105.031 133.995C104.12 134.542 103.937 135.454 103.755 136.365C103.208 138.553 103.391 140.923 103.391 143.111C103.391 143.84 103.391 144.752 103.208 145.481C101.386 144.205 99.1986 144.022 97.0114 144.022C94.8243 144.022 94.8242 144.022 94.642 141.652C94.642 140.194 94.4597 138.553 94.0952 137.095C94.0952 136.365 94.0952 135.089 92.8194 134.725C92.8194 134.725 92.8195 134.36 92.4549 134.36C91.9081 133.813 91.3614 133.448 90.6323 133.266C89.721 132.537 88.6274 132.355 87.5339 131.99C85.8935 131.625 84.0709 131.625 82.4306 131.443C80.4257 131.443 80.4257 131.261 80.4257 129.255C80.4257 127.979 80.4257 126.703 80.4257 125.427V125.792Z" fill="#EC666D"/>
<path d="M80.4247 125.791C80.4247 127.068 80.4247 128.344 80.4247 129.62C80.4247 131.625 80.4248 131.625 82.4296 131.808C84.07 131.808 85.8926 131.808 87.5329 132.355C88.6265 132.719 89.7201 132.901 90.6314 133.631C86.9862 134.36 83.3409 133.813 79.6957 133.631C78.9667 133.631 78.4198 133.631 78.6021 132.537C78.6021 130.714 78.6021 128.708 78.6021 126.885C78.6021 125.427 79.3311 125.427 80.4247 125.609V125.791Z" fill="#F0F6F7"/>
<path d="M93.0006 134.907C94.2765 135.272 94.0942 136.366 94.2765 137.277C94.641 138.736 94.8233 140.194 94.8233 141.835C94.8233 144.023 94.8232 144.205 97.1926 144.205C99.3798 144.205 101.567 144.387 103.39 145.663C103.39 146.393 102.843 146.575 102.114 146.575C99.3798 146.575 96.6459 146.393 93.912 146.21C92.8184 146.21 93.0006 145.481 93.0006 144.934C93.0006 141.653 93.0006 138.371 93.0006 135.272V134.907Z" fill="#F3F8F9"/>
<path d="M105.395 133.996C106.307 132.355 108.129 132.538 109.587 132.355C113.415 131.808 113.415 131.808 113.597 128.162C113.597 127.251 113.779 126.339 114.144 125.428C115.237 125.428 115.966 125.428 115.966 126.886C115.966 128.892 115.966 130.897 115.784 132.902C115.784 133.814 115.237 134.178 114.508 134.178C111.592 134.178 108.676 134.178 105.577 134.178L105.395 133.996Z" fill="#F0F6F7"/>
<path d="M103.025 115.218C100.656 115.401 98.4686 115.218 96.0992 115.765C94.8234 115.947 94.2766 116.494 94.4588 117.771C94.4588 119.047 94.4588 120.323 94.4588 121.599C94.4588 122.511 94.0943 123.24 93.183 123.604C93.183 121.052 93.183 118.317 93.183 115.765C93.183 114.671 93.5475 114.489 94.4588 114.489C96.8282 114.489 99.1977 114.489 101.567 114.124C102.478 114.124 103.39 113.76 103.025 115.401V115.218Z" fill="#FAFBFB"/>
<path d="M92.6365 134.543C92.8188 134.543 93.0011 134.725 93.0011 134.908C92.6366 134.908 92.6365 134.725 92.6365 134.543Z" fill="#F3F8F9"/>
<defs>
<filter id="filter0_d_2946_28324" x="0" y="20" width="185" height="185" filterUnits="userSpaceOnUse" color-interpolation-filters="sRGB">
<feFlood flood-opacity="0" result="BackgroundImageFix"/>
<feColorMatrix in="SourceAlpha" type="matrix" values="0 0 0 0 0 0 0 0 0 0 0 0 0 0 0 0 0 0 127 0" result="hardAlpha"/>
<feOffset dx="-5" dy="5"/>
<feComposite in2="hardAlpha" operator="out"/>
<feColorMatrix type="matrix" values="0 0 0 0 0 0 0 0 0 0 0 0 0 0 0 0 0 0 1 0"/>
<feBlend mode="normal" in2="BackgroundImageFix" result="effect1_dropShadow_2946_28324"/>
<feBlend mode="normal" in="SourceGraphic" in2="effect1_dropShadow_2946_28324" result="shape"/>
</filter>
</defs>
</svg>
