<svg width="132" height="323" viewBox="0 0 132 323" fill="none" xmlns="http://www.w3.org/2000/svg">
<mask id="mask0_2987_7482" style="mask-type:alpha" maskUnits="userSpaceOnUse" x="0" y="0" width="132" height="323">
<rect width="132" height="323" fill="#A25A9F"/>
</mask>
<g mask="url(#mask0_2987_7482)">
<path d="M78.173 70.8726C77.658 70.8726 53.7484 70.8726 53.7484 70.8726L67.7263 156.642L72.5818 155.753L84.8677 155.012" fill="#A25A9F"/>
<path d="M37.5634 286.555C37.122 286.777 36.9012 286.851 36.9748 286.777C37.122 286.481 37.4898 284.703 37.8576 282.185L37.3427 282.481C37.3427 282.259 38.0783 273.816 38.0783 273.816L41.6832 224.783L42.051 224.709V219.08L44.1109 186.861L45.0673 185.454L66.1078 155.753L83.6906 155.012L90.4588 185.084C90.4588 185.084 90.3117 185.528 90.0174 186.195C92.1509 185.824 96.2707 184.565 99.2135 183.676C101.273 183.01 102.818 182.565 102.818 182.565L105.614 220.043C105.614 220.043 107.453 244.559 107.674 247.152C107.894 249.744 110.322 277.223 110.322 277.223C110.322 277.223 113.265 300.257 113.339 300.85C113.339 301.072 113.78 302.998 114.221 305.516C115.325 311.071 117.017 319.515 117.017 319.515L118.268 325.884L120.254 333.587L119.96 333.736C119.96 333.736 119.739 333.81 119.445 333.587C119.15 333.365 115.031 332.106 115.031 332.106L114.957 332.032C114.736 332.106 114.516 332.254 114.295 332.254C110.469 332.847 106.717 333.884 103.039 335.217C98.9928 336.624 95.1672 338.476 91.5624 340.55C90.606 333.884 89.6496 327.218 88.7668 320.552C88.5461 318.774 88.2518 316.922 87.2954 315.293C87.0747 314.849 86.7069 314.478 86.6333 313.96C86.2655 312.627 87.4426 311.367 88.5461 310.479C86.9276 310.775 85.5298 309.071 85.6034 307.442C85.6769 305.812 86.7804 304.405 87.9575 303.368C86.0448 294.851 84.647 286.259 83.8377 277.519L84.0584 276.334C84.132 274.186 83.5434 272.038 83.3963 269.89C83.3963 269.594 83.3963 269.297 83.3963 268.927C83.3963 268.927 83.1756 263.372 83.0285 263.298C82.8813 263.15 83.9113 259.817 84.2791 257.447C84.647 255.077 82.2192 249.448 82.2192 249.448C82.2192 249.448 81.4835 246.485 81.1893 245.3C80.895 244.115 79.0558 235.893 79.0558 235.893L76.2602 219.451L76.0395 218.265L75.9659 217.451C75.8924 217.451 75.7452 217.525 75.6717 217.525L73.3175 229.82L69.6391 249.299L66.7699 264.705L66.3285 268.927C66.3285 268.927 66.3285 268.927 66.2549 268.927C66.6228 269.89 67.1378 270.779 67.7263 271.594C67.947 271.964 68.2413 272.26 68.3149 272.705C68.3884 274.038 66.1814 274.186 65.5193 275.371C64.71 276.926 66.9906 278.408 66.9906 280.185C66.9906 280.704 66.8435 281.148 66.6963 281.593C65.3721 285.666 65.225 290.11 65.0778 294.406C65.0043 296.998 64.9307 299.665 64.8571 302.257C64.5629 312.923 64.5629 323.588 65.5928 334.18C65.74 335.587 65.8871 337.069 65.0778 338.254C64.71 338.846 64.1215 339.291 63.4593 339.661C60.8845 341.142 57.7946 341.364 54.8519 341.068C51.9092 340.772 49.04 339.883 46.1708 339.217C43.4488 338.55 40.2854 338.18 38.2255 340.031C37.9312 340.253 37.6369 340.624 37.2691 340.698C37.1219 340.772 36.9013 340.772 36.6805 340.698C35.9449 340.624 35.1356 340.253 34.7678 340.772C33.5907 339.365 33.37 337.365 33.2964 335.513C32.34 319.07 36.1656 302.85 37.5634 286.555ZM38.4462 277.963C38.2255 279 38.0783 280.111 38.0048 281.148C38.1519 280.185 38.299 279.074 38.4462 277.963Z" fill="url(#paint0_linear_2987_7482)"/>
<path d="M76.1866 219.376L78.9822 235.819C78.9822 235.819 80.8214 244.041 81.1157 245.226C81.41 246.411 82.1456 249.374 82.1456 249.374C82.1456 249.374 84.5734 255.077 84.2056 257.373C83.8377 259.743 82.8078 263.076 82.9549 263.224C83.102 263.372 83.3227 268.853 83.3227 268.853C83.3227 269.149 83.3227 269.52 83.3227 269.816C83.4699 271.964 84.132 274.112 83.9849 276.26L83.7642 277.445C84.5734 286.111 85.8976 294.776 87.884 303.294C86.7069 304.331 85.6034 305.738 85.5298 307.368C85.4562 308.997 86.854 310.701 88.4725 310.405C87.4426 311.293 86.2655 312.552 86.5597 313.886C86.7069 314.404 87.0012 314.774 87.2219 315.219C88.1782 316.774 88.3989 318.626 88.6932 320.478C89.6496 327.144 90.606 333.81 91.4888 340.476C95.0936 338.402 98.9192 336.55 102.965 335.143L102.892 335.069C98.6985 330.403 96.1972 324.477 93.7694 318.7C93.4016 317.885 93.1073 317.071 93.0337 316.182C92.9602 314.256 94.5051 312.552 94.5051 310.553C93.1809 310.849 91.7831 310.849 90.5324 310.405C90.9738 309.442 91.7831 308.701 92.5188 307.886C93.9901 306.405 95.3144 304.85 96.4179 303.146C96.1236 303.516 95.7558 303.887 95.3143 304.183C94.1373 305.072 92.5188 305.442 91.1945 304.85C90.8267 304.701 90.4589 304.405 90.2381 304.035C89.9439 303.368 90.1646 302.628 90.5324 302.035C90.9003 301.442 91.4152 300.924 91.7095 300.331C94.4315 298.184 96.6386 295.073 98.6249 292.11C96.7857 293.147 94.2844 294.036 92.8866 292.554C92.2245 291.888 92.0038 290.851 91.8566 289.888C90.4588 280.704 90.091 271.371 90.8267 262.113C90.9738 259.817 91.2681 257.521 91.0474 255.225C90.8267 253.225 90.3117 251.299 89.7967 249.374C88.4725 244.93 86.854 240.56 84.9412 236.338C81.8514 229.376 77.9523 222.635 76.5545 215.155C76.5545 216.414 76.3338 217.895 76.1866 219.376Z" fill="#174075"/>
<path d="M33.2228 335.513C33.2964 337.365 33.5171 339.365 34.6942 340.772C35.062 340.179 35.8713 340.624 36.607 340.698C37.9312 338.55 39.2554 336.402 40.5796 334.254C40.7268 333.958 40.9475 333.662 41.0211 333.365C41.1682 332.995 41.1682 332.625 41.2418 332.254C41.536 330.847 42.7867 329.81 44.1109 329.366C45.4351 328.921 46.9065 328.995 48.3043 329.069C47.2008 327.736 46.0237 326.477 44.773 325.292C46.9801 324.181 49.555 323.885 51.9091 324.625C50.3642 321.292 45.3616 320.7 43.9638 317.293C43.5224 316.256 43.5224 315.071 43.5224 313.96C43.5224 304.405 43.8166 294.776 44.3316 285.222C44.8466 281.889 45.3616 278.482 45.803 275.149C47.2008 264.187 47.7158 253.151 49.04 242.189C50.5849 229.45 53.1598 216.858 56.7646 204.563C57.721 201.378 58.751 198.045 61.0316 195.601C63.2386 193.083 68.9034 189.379 71.9933 190.713C71.7725 188.491 69.4919 188.491 69.1977 186.269L45.0673 185.602L44.1109 187.009L42.051 219.228V224.857L41.6832 224.932L38.0783 273.964C38.0783 273.964 37.3427 282.407 37.3427 282.63L37.8576 282.333C37.4898 284.852 37.1219 286.629 36.9748 286.925C36.9012 286.999 37.1219 286.925 37.5634 286.703C36.1656 302.85 32.34 319.07 33.2228 335.513Z" fill="#174075"/>
<path d="M40.8004 35.4686C41.0946 36.2834 41.6096 36.95 42.051 37.6907C43.0074 39.0979 44.0374 40.4311 45.1409 41.6903C45.2144 41.7643 45.288 41.8384 45.4352 41.8384C45.5087 41.8384 45.5823 41.7643 45.6559 41.6903C46.7594 40.6533 48.3779 40.4311 49.7757 40.8015C51.1735 41.1718 52.4241 42.0606 53.6012 42.9494C53.8219 43.0975 54.0426 43.3197 54.2633 43.4679C54.6312 43.9123 54.999 44.4307 55.4404 44.8751C56.5439 43.9863 57.721 43.2457 59.0453 42.6531C58.236 41.6903 57.7946 40.4311 57.3532 39.2461C56.1761 35.839 55.2933 32.4319 54.5576 28.8767C54.484 28.3582 54.3369 27.8398 54.484 27.3213V27.2472C54.6312 26.8769 54.9254 26.5066 55.2197 26.2103C56.7646 24.4327 58.4567 22.581 60.8109 21.9144C62.9444 21.396 65.225 22.0626 67.3585 22.4329C68.9034 22.7292 70.5219 22.8773 72.0668 22.8773C72.3611 22.8773 72.6554 22.8773 72.9496 22.8032C73.7589 23.0254 74.5681 23.3217 75.3038 23.5439C77.8051 24.2105 80.7479 24.6549 82.8813 23.1736C83.6906 22.581 84.3527 21.8404 84.8677 21.0256C85.2355 20.4331 85.6034 19.8406 85.8241 19.248C85.8976 19.0999 85.9712 18.9518 86.0448 18.7296C86.2655 18.137 86.4862 17.6186 86.6333 17.026C87.369 14.4337 87.2954 11.5451 86.4862 8.95274C85.0148 10.36 83.1756 11.3229 81.1893 11.6932C81.2628 11.5451 81.41 11.471 81.4835 11.3229C82.2928 10.2859 82.9549 9.02681 83.2492 7.6936C83.7642 5.6938 83.617 3.54586 82.8813 1.69419C81.2628 3.39773 78.9086 4.1384 76.628 4.3606C74.3474 4.5828 71.9932 4.43466 69.7126 4.65686C66.6228 4.95313 63.68 5.916 60.7373 6.87887C58.3096 7.6936 55.8818 8.5824 53.5276 9.69341C51.4677 10.7303 49.4814 11.9895 47.7158 13.4708C46.3915 14.5818 45.1409 15.8409 43.9638 17.1742C42.7131 18.6555 41.4625 20.5072 41.6832 22.4329C41.9039 24.2846 43.3752 25.7659 44.6995 27.0991L44.9202 27.4694C44.9937 27.4694 44.9937 27.4694 45.0673 27.4694C45.0673 27.5435 45.0673 27.5435 45.1409 27.6176C45.0673 27.6176 44.9202 27.6176 44.8466 27.6176C43.1545 27.8398 41.6832 28.9508 40.9475 30.5062C40.2118 32.0616 40.2118 33.8392 40.8004 35.4686Z" fill="#ED6C2E"/>
<path d="M44.8466 47.9859C45.0673 48.7266 45.288 49.4673 45.7294 50.1339C46.4651 51.2449 47.7893 51.9115 49.04 52.2077C50.3642 52.504 51.6884 52.5781 53.0127 52.7262C53.3069 52.7262 53.6012 52.8003 53.8219 52.9484C54.1162 53.1706 54.1898 53.5409 54.3369 53.8372C55.7347 59.0219 55.3669 64.5028 56.5439 69.6875C56.6911 70.206 56.8382 70.7244 57.1325 71.1688C57.2061 71.391 57.2061 71.6132 57.2796 71.9095C57.4268 72.7242 57.6475 73.539 57.7946 74.3537C57.7946 74.5018 57.8682 74.5759 57.9417 74.7241C58.0153 74.7981 58.1624 74.8722 58.3096 74.8722C61.3994 75.6869 64.71 75.761 67.7999 75.0944C69.5655 74.724 71.2576 74.1315 72.8761 73.3908C73.5382 73.0946 74.1267 72.7983 74.7153 72.428C75.0095 72.2058 75.3774 71.8355 75.3774 71.3911C75.3774 71.1689 75.3038 71.0207 75.2302 70.8726C75.2302 70.7985 75.1567 70.7244 75.0831 70.6504C75.2302 69.9838 75.2302 69.2431 75.2302 68.5024C75.2302 67.6136 75.1567 66.7248 75.0831 65.9101C75.0095 64.2806 74.936 62.7252 74.8624 61.0958C76.4073 61.6142 77.9523 60.7254 79.2765 59.7626C80.5272 58.7997 81.7778 57.6887 82.6606 56.3555C84.4263 53.7631 84.8677 50.4301 85.0884 47.2453C85.5298 39.3201 84.5734 31.3209 82.2928 23.7661L82.3664 23.9883C79.6443 23.9883 76.8487 23.8402 74.1267 23.5439C71.9197 23.3217 69.7126 22.9514 67.5056 22.4329C65.4457 21.9885 63.3858 21.47 61.3259 21.9144C58.8981 22.507 57.0589 24.3586 55.3668 26.1362C55.0726 26.4325 54.7783 26.7288 54.6312 27.0991C54.4105 27.6176 54.5576 28.136 54.6312 28.6545C55.3669 33.0244 56.1025 37.4685 58.3096 41.2459C58.5303 41.6162 58.751 41.9865 58.8245 42.4309C58.8245 42.5791 58.8246 42.6531 58.8981 42.8013C58.0889 43.4679 57.2796 44.0604 56.3968 44.727C56.2497 44.8751 56.029 44.9492 55.8083 44.9492C55.6611 44.9492 55.514 44.8011 55.3668 44.727C54.4105 43.9123 53.6748 42.7272 52.6448 42.0606C52.0563 41.6903 51.3206 41.394 50.5849 41.2459C49.2607 40.9496 47.8629 40.8015 46.6858 41.4681C45.5823 42.0606 44.9202 43.2457 44.6995 44.4307C44.4052 45.5417 44.5523 46.8009 44.8466 47.9859Z" fill="white"/>
<path d="M87.8104 72.428C87.7368 72.3539 87.7368 72.2798 87.6633 72.2058C87.5161 72.2058 87.8104 72.3539 87.8104 72.428Z" fill="white"/>
<path d="M8.7982 117.905L13.2859 119.979C13.2859 119.979 13.2859 119.979 13.3594 119.979C13.8744 120.275 17.8471 122.423 19.1713 123.164C20.5691 123.904 26.1603 127.237 26.1603 127.237L31.4572 129.682L37.2691 121.386C37.2691 121.386 38.814 126.275 39.844 129.608C40.3589 131.385 40.8004 132.718 40.8004 132.792C40.8739 132.941 44.773 147.828 44.773 147.828C44.773 147.828 45.7294 153.901 45.7294 154.938C45.7294 155.975 45.3616 160.864 45.3616 161.16V161.234L43.7431 183.454C43.7431 183.454 43.5224 186.343 43.5224 186.491C43.5224 186.639 61.1787 189.305 61.1787 189.305H71.3311C71.3311 189.305 72.2139 173.899 71.9197 171.233C71.699 169.455 71.4783 168.27 71.3311 167.604C71.184 165.308 70.9633 162.345 70.9633 162.345L68.0941 135.533L63.6065 100.573L60.958 86.2785L60.443 85.8341C60.5902 85.9081 60.8109 85.9081 60.8845 85.8341C60.958 85.76 60.958 85.6119 60.8845 85.5378C60.6638 84.1305 60.2223 82.7233 59.8545 81.316C58.0889 75.3906 56.6911 69.4653 55.5876 63.3918V63.0956C54.1898 63.3178 52.7184 63.54 51.5413 64.4288C50.8792 64.9472 50.4378 65.6138 49.9228 66.2804C48.8929 67.8358 47.9365 69.5394 47.2008 71.317C46.8329 72.0576 46.5387 72.8724 46.0973 73.539L46.0237 73.4649L29.9858 85.5378L29.5444 85.9822L28.8823 86.6488L24.1004 89.9077C24.1004 89.9077 22.629 90.6484 21.3048 92.1297C19.907 93.6111 13.8744 103.832 13.8744 103.832C13.8744 103.832 12.918 106.276 12.1088 108.35C11.1524 110.498 8.7982 117.905 8.7982 117.905Z" fill="white"/>
<path d="M74.8624 72.9464C74.8624 73.3908 75.0095 73.8352 75.0831 74.2796C75.3038 75.0944 75.5245 75.9091 75.7452 76.7979C76.2602 78.7977 76.7752 80.7975 77.2902 82.7973C77.3637 82.7233 77.4373 82.6492 77.5109 82.501L77.7316 84.9453L78.3937 93.6111L79.7915 110.943L81.3364 134.866L83.617 159.605L85.3091 185.972C85.3091 185.972 85.3091 185.972 85.6769 186.343C86.1183 186.713 99.9491 183.454 100.17 183.306C100.391 183.232 107.085 180.269 107.085 180.269L104.584 159.975L102.083 133.533C102.083 133.533 101.494 124.645 102.083 118.201C102.671 111.757 103.113 85.1675 103.113 85.1675L103.995 79.0199L100.464 76.5017L95.4615 74.2056C95.4615 74.2056 91.5624 72.9464 89.2082 72.428C88.2518 72.2058 87.8104 72.1317 87.7368 72.2058C87.8104 72.2798 87.8104 72.3539 87.884 72.428C87.8104 72.428 87.5897 72.2058 87.7368 72.2058C86.854 70.6504 85.8976 69.095 84.7205 67.7618C83.2492 66.1323 81.4835 64.725 79.4972 63.8362C78.0994 63.2437 76.7016 62.8734 75.1567 62.8734H75.0831L75.2302 68.6506L75.3038 70.6504C75.0095 71.391 74.7888 72.1317 74.8624 72.9464Z" fill="white"/>
<path d="M87.8104 72.428C87.7368 72.3539 87.7368 72.2798 87.6633 72.2058C87.5161 72.2058 87.8104 72.3539 87.8104 72.428Z" fill="white"/>
<path d="M122.682 105.462C122.682 105.462 119.518 112.424 117.753 114.276C115.913 116.127 110.543 119.979 110.543 119.979C110.543 119.979 105.246 123.016 103.848 123.46C102.45 123.904 102.083 123.978 102.083 123.978V99.5364L103.995 79.0199" fill="#A25A9F"/>
<path d="M1.66211 143.754C1.80924 145.606 2.17707 147.458 3.42773 148.717C4.67839 149.976 23.2176 166.197 23.2176 166.197L36.5334 176.418C36.5334 176.418 38.0048 177.232 41.1682 176.196C44.3316 175.085 47.2744 173.825 47.2744 173.825C47.2744 173.825 49.1136 173.529 49.1871 173.603C49.2607 173.677 52.9391 177.158 53.9691 177.232C54.999 177.307 56.3232 176.27 56.3232 176.121C56.3232 175.973 57.1325 176.566 57.1325 176.566C57.1325 176.566 58.9717 177.455 59.4131 177.307C59.8545 177.158 60.3695 176.64 60.3695 176.64L60.6637 175.603L60.958 174.492C60.958 174.492 61.5466 174.492 61.6201 174.492C61.6937 174.492 62.7237 173.529 62.6501 172.863C62.5765 172.196 62.4294 171.307 62.4294 171.307C62.4294 171.307 63.9008 171.159 63.9743 170.492C64.1215 169.752 64.3422 168.937 64.3422 168.937L63.3858 166.789C63.3858 166.789 54.0426 160.123 53.9691 160.049C53.8955 160.049 45.2144 161.16 45.1409 161.234C45.0673 161.308 38.299 163.382 38.299 163.382C38.299 163.382 27.0431 150.124 26.9695 150.05C26.9695 149.976 20.7162 143.902 20.3484 143.606C19.907 143.31 19.392 142.94 19.4656 142.94C19.5392 142.94 20.1277 141.162 20.1277 141.162L25.6453 128.274L26.0867 127.311L17.4057 122.201L10.1225 118.572C10.1225 118.572 9.60746 119.757 8.94534 121.46C8.3568 122.793 7.69469 124.497 7.03258 126.275C5.70835 129.608 4.31056 133.163 3.86915 134.792C2.76563 138.421 1.51497 141.903 1.66211 143.754Z" fill="white"/>
<path d="M103.995 153.087L105.172 165.011L105.393 167.308L106.938 174.27C106.938 174.27 107.159 174.566 107.747 174.344C108.336 174.122 111.794 170.418 111.794 170.122C111.794 169.826 111.426 168.196 111.426 168.196L113.265 162.493L126.728 140.866C126.728 140.866 131.583 133.681 131.216 132.2C130.774 130.719 129.818 128.126 129.818 128.126L120.769 113.683L119.96 112.35C119.96 112.35 115.398 116.646 114.81 117.09C114.221 117.535 108.777 121.016 108.777 121.016L111.794 125.015L116.723 132.718L114.516 137.162L108.483 152.05L103.995 153.087Z" fill="white"/>
<path d="M34.7678 340.328C34.7678 340.624 34.7678 340.92 34.8413 341.142C34.9149 341.661 35.1356 342.253 35.2827 342.772C35.5034 343.957 35.2827 345.142 35.3563 346.401C35.4299 347.586 35.7977 348.919 36.9012 349.512C37.2691 349.734 37.7105 349.808 38.1519 349.808C43.8902 350.623 49.7021 349.29 55.514 349.438C56.5439 349.438 57.6475 349.586 58.6774 349.29C59.7074 349.067 60.7373 348.475 61.1787 347.512C61.3994 346.994 61.473 346.475 61.5466 345.957C61.6201 345.438 61.6937 344.92 61.7673 344.401C61.8408 344.031 61.8408 343.661 61.9144 343.29C61.988 342.55 62.1351 341.809 61.988 341.068C61.8408 340.105 61.2523 339.291 60.5902 338.476C59.5602 337.143 58.3831 335.884 57.1325 334.773C56.2497 333.958 55.2197 333.143 54.1897 332.551C51.9091 331.291 49.2607 330.995 46.7594 331.365C44.1845 331.736 41.8303 332.773 39.6233 334.18L39.6968 334.402C38.8876 334.476 38.2255 335.143 37.7105 335.735C37.0484 336.476 36.4598 337.217 35.8713 338.031C35.3563 338.698 34.8413 339.439 34.7678 340.328Z" fill="#A25A9F"/>
<path d="M92.5923 341.142C92.7395 343.809 92.8866 346.475 93.0337 349.141C94.5787 349.29 96.1972 349.438 97.6685 348.919C98.8456 348.549 100.096 347.66 101.273 348.105C101.641 348.253 101.935 348.475 102.303 348.623C103.186 348.993 104.216 348.919 105.172 348.845C114.516 348.179 123.932 348.993 133.349 348.179C134.453 348.105 135.777 347.882 136.365 346.919C136.88 346.105 136.66 344.92 136.145 344.105C136.071 343.957 135.998 343.883 135.924 343.735C135.85 343.586 135.777 343.438 135.85 343.216C135.85 343.068 135.998 342.92 136.071 342.772C136.733 341.809 136.66 340.402 136.071 339.365C135.483 338.328 134.526 337.513 133.57 336.846C130.48 334.847 126.728 333.884 123.05 334.032C122.682 334.032 122.387 334.032 122.02 334.106C121.431 334.18 120.842 334.18 120.254 334.106C119.15 333.884 118.341 332.921 117.679 332.032L117.311 331.884C108.851 332.995 100.611 335.884 93.2544 340.179C93.0337 340.328 92.813 340.402 92.7395 340.624C92.5188 340.624 92.5923 340.846 92.5923 341.142Z" fill="#A25A9F"/>
<path d="M7.03258 126.275C7.10615 126.275 7.10615 126.349 7.17972 126.349C8.20967 126.719 9.16605 127.089 10.196 127.46C10.9317 127.682 11.6674 127.904 12.4031 128.052C14.5365 128.497 16.7436 128.497 18.877 128.497C20.8634 128.497 22.8497 128.422 24.8361 128.348C25.1303 128.348 25.351 128.274 25.6453 128.274L26.0867 127.311L17.4057 122.201L10.1225 118.572C10.1225 118.572 9.60746 119.757 8.94534 121.46C8.43037 122.867 7.76826 124.571 7.03258 126.275Z" fill="#F4C6CC"/>
<path d="M1.66211 143.754C1.80924 145.606 2.17707 147.458 3.42773 148.717C4.67839 149.976 23.2176 166.197 23.2176 166.197L36.5334 176.418C36.5334 176.418 38.0048 177.232 41.1682 176.196C44.3316 175.085 47.2744 173.825 47.2744 173.825C47.2744 173.825 49.1136 173.529 49.1871 173.603C49.2607 173.677 52.9391 177.158 53.9691 177.232C54.999 177.307 56.3232 176.27 56.3232 176.121C56.3232 175.973 57.1325 176.566 57.1325 176.566C57.1325 176.566 58.9717 177.455 59.4131 177.307C59.8545 177.158 60.3695 176.64 60.3695 176.64L60.6637 175.603L58.8245 172.64C58.0889 173.751 56.3968 173.381 55.3668 172.566C54.3369 171.752 53.4541 170.566 52.2034 170.344C52.2034 170.863 52.2034 171.455 52.2034 171.974C48.2307 171.159 44.1109 170.937 39.9911 171.381C39.0347 171.455 38.1519 171.603 37.1955 171.381C36.3863 171.159 35.7242 170.715 34.9885 170.27C26.1603 164.345 18.1414 157.16 11.226 149.087C10.0489 147.754 8.87178 146.273 8.1361 144.643C5.85548 139.532 7.9154 133.607 9.82817 128.348C9.90174 128.052 10.0489 127.756 10.1224 127.534C10.6374 125.83 11.0053 123.978 10.0489 122.571C9.7546 122.127 9.31319 121.831 8.87178 121.534C8.28323 122.867 7.62111 124.571 6.959 126.349C5.63478 129.682 4.23699 133.237 3.79558 134.866C2.76562 138.421 1.51497 141.903 1.66211 143.754Z" fill="#F4C6CC"/>
<path d="M103.995 153.087L105.172 165.011C106.129 164.493 107.085 163.9 107.894 163.234C108.189 163.012 108.409 162.789 108.557 162.493C108.777 161.975 108.704 161.382 108.704 160.864C108.777 159.605 109.366 158.42 109.954 157.309C112.897 151.828 115.84 146.273 118.783 140.792C120.107 138.421 121.357 135.977 122.387 133.459C122.461 133.163 122.608 132.941 122.608 132.644C122.608 132.2 122.387 131.755 122.167 131.385C120.769 128.793 119.665 126.052 118.93 123.238C118.783 122.793 118.709 122.275 118.709 121.756C118.709 121.238 118.93 120.645 119.077 120.127C119.813 118.053 120.328 115.905 120.622 113.683L119.813 112.35C119.813 112.35 115.251 116.646 114.663 117.09C114.074 117.535 108.63 121.016 108.63 121.016L111.646 125.015L116.576 132.718L114.368 137.162L108.336 152.05L103.995 153.087Z" fill="#F4C6CC"/>
<path d="M63.0915 58.7997C63.9743 59.17 64.6364 59.9107 65.1514 60.6514C65.74 61.392 66.3285 62.0586 67.0642 62.7252C68.9034 64.2806 71.1104 65.0954 73.4646 65.6138C73.906 65.6879 74.5681 65.9842 75.0831 65.836C75.0095 64.2066 74.936 62.6512 74.8624 61.0217C76.4073 61.5402 77.9523 60.6514 79.2765 59.6885C80.5272 58.7256 81.7778 57.6146 82.6606 56.2814C84.4263 53.6891 84.8677 50.3561 85.0884 47.1712C85.5298 39.2461 84.5734 31.2468 82.2928 23.692L82.3664 23.9142C79.6443 23.9142 76.8487 23.7661 74.1267 23.4698C73.6117 26.4325 74.421 29.4692 74.6417 32.4319C74.7888 34.6539 74.6417 36.8759 74.8624 39.0239C75.0831 41.2459 75.8188 43.4679 77.5109 44.9492C76.9959 45.3195 76.2602 45.3195 75.7452 45.6899C75.0095 46.2083 74.936 47.3193 75.0095 48.2081C75.0831 49.0969 75.2302 50.1339 74.7153 50.8745C74.4946 51.2449 74.0532 51.5411 73.9796 51.9115C73.906 52.2077 73.9796 52.4299 74.0532 52.7262C74.6417 54.9482 74.8624 57.3924 73.6853 59.3181C73.391 59.7625 73.0232 60.207 72.5818 60.4292C72.1404 60.6514 71.699 60.7254 71.2576 60.7254C68.2413 60.9476 65.8135 59.6885 63.0915 58.7997Z" fill="#F4C6CC"/>
<path d="M54.484 27.2472C54.6312 26.8769 54.9254 26.5066 55.2197 26.2103C56.7646 24.4327 58.4567 22.581 60.8109 21.9144C62.9444 21.396 65.225 22.0626 67.3585 22.4329C68.9034 22.7292 70.5219 22.8773 72.0668 22.8773C72.3611 22.8773 72.6554 22.8773 72.9496 22.8032C73.7589 23.0254 74.5681 23.3217 75.3038 23.5439C77.8051 24.2105 80.7479 24.6549 82.8813 23.1736C83.6906 22.581 84.3527 21.8404 84.8677 21.0256C85.2355 20.4331 85.6034 19.8406 85.8241 19.248C85.9712 19.248 86.1183 19.174 86.2655 19.0999C86.2655 18.8777 86.2655 18.5814 86.2655 18.3592C86.1919 18.5074 86.1183 18.6555 85.9712 18.8036C85.8241 19.0258 85.6769 19.174 85.5298 19.3221C84.3527 20.6553 82.6606 21.396 80.9686 21.6922C78.8351 21.9885 76.628 21.6922 74.5681 21.2478C71.9933 20.7294 69.4184 20.1368 66.7699 19.9887C64.1215 19.8406 61.3994 20.1368 59.1188 21.3219C56.9118 22.507 54.999 24.6549 54.484 27.2472Z" fill="white"/>
<path d="M62.3558 14.0633C66.9906 10.5081 73.3175 9.24901 78.9822 10.8044C79.865 11.0266 80.7479 11.3229 81.6307 11.3969C82.4399 10.36 83.102 9.10087 83.3963 7.76767C82.7342 8.138 81.9249 8.36021 81.1893 8.43427C79.2765 8.73054 77.3637 8.36021 75.451 8.28614C72.9496 8.138 70.4483 8.28614 68.0941 9.17494C65.74 10.0637 63.68 11.0266 62.7237 13.3227L62.3558 14.0633Z" fill="white"/>
<path d="M67.432 18.8777L70.9633 17.2482C72.0668 16.6557 73.6117 16.8779 74.7888 17.026C75.9659 17.1742 77.143 17.6186 78.3201 17.9889C80.3064 18.7296 82.4399 19.3962 84.5734 19.3962C84.9412 19.3962 85.3826 19.3962 85.7505 19.3221C85.8241 19.3221 85.8976 19.3221 85.9712 19.248C86.1183 19.248 86.2655 19.174 86.4126 19.0999C86.4126 18.8777 86.4126 18.5814 86.4126 18.3592C86.339 18.5074 86.2655 18.6555 86.1183 18.8036C86.339 18.2111 86.5597 17.6926 86.7069 17.1001C85.2355 17.8408 83.3227 17.7667 81.7042 17.3964C79.7915 16.952 78.0258 16.0631 76.1131 15.7669C72.8761 15.1743 69.3448 16.2854 67.432 18.8777Z" fill="white"/>
<path d="M41.8303 22.4329C42.051 24.2846 43.5224 25.7659 44.8466 27.0991L45.0673 27.4694C45.1409 27.4694 45.1409 27.4694 45.2144 27.4694L48.0836 26.7288C46.9801 26.8028 45.8766 26.3584 45.1409 25.5437C44.6995 25.0252 44.4788 24.5068 44.2581 23.8402C43.6695 21.9885 43.9638 19.9146 44.773 18.137C45.5087 16.3594 46.7594 14.804 48.1572 13.3967C48.0836 13.3967 47.9365 13.3967 47.8629 13.3967C46.5387 14.5077 45.288 15.7669 44.1109 17.1001C42.7867 18.6555 41.6096 20.5072 41.8303 22.4329Z" fill="white"/>
<path d="M90.9003 79.2421C88.9875 79.7606 87.0747 79.8347 85.0884 79.6125C84.7941 79.6125 84.4263 79.5384 84.2056 79.6865C84.0584 79.7606 83.9113 79.9087 83.7641 80.0569C81.6307 82.1307 79.7179 84.3527 78.0994 86.871C76.9959 84.0565 78.0994 80.8716 79.6443 78.3533C80.3064 77.2423 81.2628 75.9832 82.5871 75.9091C83.1756 75.8351 83.6906 76.0572 84.2056 76.2054C85.6033 76.6498 87.0747 77.0942 88.4725 77.5386" fill="#A25A9F"/>
<path d="M60.5902 85.8341C61.1787 87.1673 61.473 88.6486 61.5466 90.1299C58.3831 87.982 55.0726 85.9081 51.8356 83.9083C51.3942 83.6121 50.9528 83.3899 50.4378 83.3158C49.9228 83.2417 49.4814 83.3158 48.9664 83.3899C47.3479 83.6861 45.803 83.9083 44.1845 84.2046C44.2581 83.4639 44.3316 82.7973 44.4788 82.0567C44.4788 81.7604 44.5523 81.4641 44.6995 81.2419C44.9202 81.0197 45.2144 80.8716 45.5087 80.7975C47.2744 80.205 49.04 79.6125 50.8056 79.0199C51.1735 78.8718 51.6149 78.7236 51.9827 78.7977C53.4541 78.8718 54.1162 80.7975 55.4404 81.3901" fill="#A25A9F"/>
<path d="M8.7982 117.905L13.2859 119.979C13.2859 119.979 13.2859 119.979 13.3594 119.979C14.7572 120.571 16.155 121.164 17.4793 121.905C17.2586 119.312 17.7 116.646 18.2149 114.128C20.0541 106.054 23.2176 98.2773 27.9259 91.4631C28.9559 90.0559 30.0594 88.5745 31.6779 87.9079C33.6642 87.0932 35.8713 87.6857 37.9312 88.2783L36.092 87.0932C34.0321 86.2785 31.7515 85.9081 29.5444 85.9822L28.8823 86.6488L24.1004 89.9077C24.1004 89.9077 22.629 90.6484 21.3048 92.1297C19.907 93.6111 13.8744 103.832 13.8744 103.832C13.8744 103.832 12.918 106.276 12.1088 108.35C11.1524 110.498 8.7982 117.905 8.7982 117.905Z" fill="#A25A9F"/>
<path d="M36.3863 122.719L37.2691 121.46C37.2691 121.46 38.814 126.349 39.844 129.682C43.5224 124.201 44.6259 117.238 44.9937 110.498C45.1409 107.61 45.288 104.795 44.8466 101.907C44.5523 99.5364 43.8902 97.1663 43.0074 95.0183L43.081 95.8331C43.5959 104.573 41.4625 113.461 37.0484 121.016C36.7541 121.534 36.4598 121.979 36.3127 122.571C36.3863 122.571 36.3863 122.645 36.3863 122.719Z" fill="#A25A9F"/>
<path d="M74.5681 72.8724C74.5681 73.4649 74.7888 74.0574 75.0095 74.65C75.2302 75.3166 75.5245 76.0572 75.7452 76.7238C75.8188 76.946 75.8924 77.1683 75.9659 77.4645C77.5109 75.0203 79.0558 72.5761 79.7179 69.7616C80.1593 67.8358 80.1593 65.6879 79.4236 63.8362C78.0258 63.2437 76.628 62.8734 75.0831 62.8734C75.2302 64.7991 75.3038 66.7248 75.1567 68.6506C75.0831 69.3172 75.0095 70.0578 74.8624 70.7244C74.7153 71.391 74.5681 72.1317 74.5681 72.8724Z" fill="#A25A9F"/>
<path d="M34.7678 340.328C34.7678 340.624 34.7678 340.92 34.8413 341.142C35.2092 339.809 36.3863 338.698 37.5634 337.957C41.0211 335.661 45.3616 334.55 49.4814 335.143C53.6012 335.735 57.5003 337.957 60.0016 341.29C60.7373 342.253 61.3259 343.29 61.8408 344.401C61.9144 344.031 61.9144 343.661 61.988 343.29C62.0615 342.55 62.2087 341.809 62.0616 341.068C61.9144 340.105 61.3259 339.291 60.6637 338.476C59.6338 337.143 58.4567 335.884 57.2061 334.773C56.3232 333.958 55.2933 333.143 54.2633 332.551C51.9827 331.291 49.3343 330.995 46.8329 331.365C44.2581 331.736 41.9039 332.773 39.6968 334.18L39.7704 334.402C38.9612 334.476 38.299 335.143 37.7841 335.735C37.122 336.476 36.5334 337.217 35.9449 338.031C35.3563 338.698 34.8413 339.439 34.7678 340.328Z" fill="white"/>
<path d="M110.102 338.106L110.984 337.735C113.78 336.92 116.576 336.106 119.445 336.106C124.006 336.106 128.273 338.031 132.098 340.55C132.319 340.698 132.613 340.92 132.761 341.142C132.981 341.513 132.908 342.031 132.761 342.401C132.54 342.772 132.246 343.142 131.951 343.438C133.276 343.438 134.6 343.512 135.924 343.586C135.85 343.438 135.777 343.29 135.85 343.068C135.85 342.92 135.998 342.772 136.071 342.624C136.733 341.661 136.66 340.253 136.071 339.217C135.483 338.18 134.526 337.365 133.57 336.698C130.48 334.698 126.728 333.736 123.05 333.884C118.562 334.328 114.074 335.884 110.102 338.106Z" fill="white"/>
<path d="M80.4536 193.379C79.2765 199.378 78.0994 205.452 77.2166 211.525L80.4536 193.379Z" fill="#4C742C"/>
<path d="M76.628 214.488C76.628 214.636 76.7016 214.784 76.7016 214.858C76.8487 213.747 76.9959 212.636 77.143 211.525L76.628 214.488Z" fill="#4C742C"/>
<path d="M96.565 302.998C97.1536 302.257 97.6685 301.442 98.0364 300.628C97.595 301.442 97.08 302.257 96.565 302.998Z" fill="#4C742C"/>
<path d="M99.2135 183.602C101.568 200.712 101.862 218.043 103.039 235.301C104.069 250.559 105.687 265.816 107.894 281C108.557 285.444 109.292 289.888 110.396 294.258C111.352 298.109 112.676 301.887 114.295 305.516C113.78 302.924 113.412 300.998 113.412 300.85C113.339 300.257 110.396 277.223 110.396 277.223C110.396 277.223 107.968 249.744 107.747 247.152C107.527 244.559 105.687 220.043 105.687 220.043L102.892 182.565C102.818 182.491 101.273 183.01 99.2135 183.602Z" fill="white"/>
<path d="M61.1052 277.667C61.9144 278.556 63.0179 279.297 63.3122 280.408C63.4593 281 63.3858 281.593 63.3122 282.185C62.7237 288.851 63.2386 295.665 64.8571 302.183C64.9307 299.591 65.0043 296.924 65.0778 294.332C65.225 290.036 65.3721 285.666 66.6963 281.519C66.8435 281.074 66.9906 280.63 66.9906 280.111C66.9171 278.408 64.6364 276.852 65.5193 275.297C66.1814 274.112 68.462 273.964 68.3148 272.63C68.3148 272.186 68.0206 271.89 67.7263 271.519C67.0642 270.705 66.6228 269.816 66.2549 268.853H66.3285L66.7699 264.631L69.6391 249.225C70.5219 242.189 71.8461 235.153 73.2439 228.19C76.2602 213.081 79.3501 197.971 82.5871 182.936L67.2849 237.671C65.3721 245.374 63.4593 253.077 61.473 260.78C60.7373 263.668 60.0752 266.853 61.3994 269.446C61.9144 270.557 62.8708 271.816 62.2087 272.853C61.7673 273.519 60.8845 273.741 60.443 274.334C59.6338 275.371 60.2959 276.778 61.1052 277.667Z" fill="white"/>
<path d="M81.8514 23.4698C82.7342 25.6178 83.1756 27.9138 83.3963 30.2099C83.617 32.506 83.8377 34.802 83.9849 37.0981C84.2791 41.6903 84.3527 46.2824 83.3227 50.7264C82.8813 52.9484 82.1456 55.0963 80.895 56.8739C79.7179 58.6516 77.8787 60.0588 75.7452 60.4292C74.7153 60.6514 73.5382 60.6514 72.4347 60.5773C71.3311 60.5773 70.154 60.4292 69.0505 60.281C66.7699 59.9848 64.5629 59.3182 62.4294 58.4294C64.4157 59.6144 66.6228 60.4292 68.9034 60.9476C70.0069 61.2439 71.184 61.392 72.3611 61.5402C73.5382 61.6142 74.7153 61.6883 75.8924 61.5402C77.143 61.392 78.3201 60.8736 79.3501 60.207C80.38 59.5404 81.2628 58.6516 81.9985 57.6146C83.3963 55.6148 84.2056 53.2447 84.7205 50.9486C85.2355 48.6525 85.4562 46.2824 85.4562 43.9123C85.4562 41.5421 85.3091 39.2461 85.0148 36.8759C84.7205 34.5798 84.3527 32.2838 83.9849 29.9877C83.617 27.8398 83.0285 25.5437 81.8514 23.4698Z" fill="black"/>
<path d="M52.8655 42.2828C51.9827 41.6903 51.0999 41.0977 50.0699 40.7274C49.04 40.3571 47.7893 40.2089 46.6858 40.7274C45.5823 41.2459 44.773 42.2087 44.2581 43.2457C43.7431 44.3567 43.5959 45.5417 43.7431 46.7268C43.9638 49.0969 45.3616 51.2449 47.3479 52.504C49.3343 53.6891 51.762 54.0594 54.0426 53.4669L53.2334 53.0225C53.8219 55.0223 54.2633 57.0221 54.7047 59.096C55.1461 61.1698 55.4404 63.2437 55.7347 65.3176C55.8818 63.1696 55.8083 61.0958 55.5875 58.9478C55.3668 56.7999 54.999 54.726 54.484 52.6521C54.4105 52.2818 54.0426 52.1337 53.7484 52.1337C51.8356 52.504 49.7757 52.2077 48.0836 51.1708C46.3915 50.2079 45.288 48.4303 44.9937 46.5046C44.8466 45.5417 44.9202 44.5789 45.288 43.6901C45.6559 42.8013 46.2444 41.9865 47.0536 41.4681C47.8629 41.0237 48.8929 40.9496 49.9228 41.1718C50.9528 41.394 51.9091 41.8384 52.8655 42.2828Z" fill="black"/>
<path d="M54.0426 48.6525C53.4541 48.8747 52.8655 49.0969 52.277 49.2451C51.6884 49.3932 51.0999 49.5413 50.5113 49.6895L50.8792 49.9117C50.732 49.3191 50.3642 49.0229 50.2906 48.6525C50.2171 48.3563 50.2906 48.06 50.5113 47.7637C50.732 47.4675 51.0999 47.1712 51.3942 46.8009C51.6884 46.4305 51.9827 45.9121 51.9091 45.3195C51.8356 45.0233 51.6884 44.727 51.3942 44.5789C51.1735 44.4307 50.8792 44.3567 50.5849 44.3567C50.0699 44.3567 49.6285 44.5048 49.1871 44.6529C48.8193 44.8011 48.3779 44.8751 48.01 44.727C47.6422 44.5789 47.4215 44.1345 47.2744 43.7641C47.3479 44.2085 47.4215 44.727 47.8629 45.0233C48.3043 45.3195 48.8193 45.2455 49.2607 45.1714C49.7021 45.0973 50.0699 44.9492 50.5113 45.0233C50.8792 45.0233 51.0999 45.2455 51.1735 45.5417C51.1735 45.838 51.0999 46.2083 50.8056 46.4305C50.5113 46.7268 50.2171 47.0231 49.9228 47.4675C49.7757 47.6897 49.6285 47.9119 49.555 48.2081C49.4814 48.5044 49.555 48.8007 49.6285 49.0969C49.8492 49.6154 50.2171 49.9117 50.2906 50.2079C50.3642 50.3561 50.5114 50.4301 50.6585 50.4301C51.247 50.282 51.8356 50.0598 52.4241 49.7635C53.0127 49.3191 53.5276 49.0229 54.0426 48.6525Z" fill="black"/>
<path d="M54.1898 26.8769C54.1162 28.2842 54.1898 29.6914 54.3369 31.0987C54.484 32.506 54.7783 33.9132 55.1461 35.2464C55.514 36.6537 55.9554 37.9869 56.4704 39.2461C56.9853 40.5793 57.5739 41.8384 58.3096 43.0975L58.5303 42.2828C58.0153 42.6531 57.5003 43.0235 56.9853 43.3197L56.1761 43.8382C55.9554 43.9863 55.5876 44.2826 55.4404 44.3567C55.3669 44.3567 55.3668 44.4307 55.2933 44.3567C55.2197 44.3567 55.1461 44.2826 54.999 44.2085C54.7783 43.9863 54.5576 43.7641 54.3369 43.5419C53.8955 43.0975 53.4541 42.6531 52.9391 42.2087C53.2334 42.8013 53.6012 43.3197 53.8955 43.8382C54.0426 44.1345 54.1898 44.3567 54.4105 44.6529C54.484 44.8011 54.6312 44.9492 54.8519 45.0973C55.0726 45.2455 55.3668 45.2455 55.5876 45.1714C56.029 45.0233 56.2497 44.8751 56.5439 44.727L57.3532 44.2826C57.9417 43.9863 58.4567 43.6901 59.0453 43.3938C59.3395 43.2457 59.4131 42.8753 59.3395 42.5791V42.505C58.751 41.2459 58.236 39.9867 57.721 38.7276C57.2061 37.4685 56.7646 36.1352 56.3232 34.8761C55.8818 33.5429 55.514 32.2838 55.1461 30.9506C54.9254 29.5433 54.5576 28.2101 54.1898 26.8769Z" fill="black"/>
<path d="M45.7294 41.9865C44.4788 40.1349 43.081 38.3572 42.1246 36.4315C41.1682 34.5058 40.6532 32.3578 41.7567 30.7284C42.7867 29.0248 44.773 28.136 46.8329 27.6916C48.9664 27.2472 51.1735 26.951 53.3805 26.7288C51.1735 26.3584 48.8929 26.2844 46.6122 26.5806C45.4352 26.7288 44.3316 27.025 43.2281 27.5435C42.1246 28.062 41.1682 28.9508 40.5061 29.9877C39.844 31.0987 39.6233 32.506 39.844 33.691C40.0647 34.9502 40.5797 35.9871 41.1682 37.024C42.3453 38.9498 43.9638 40.5052 45.7294 41.9865Z" fill="black"/>
<path d="M81.4835 11.6191C82.6606 10.2859 83.4699 8.5824 83.7641 6.73073C84.0584 4.95313 83.9113 3.0274 83.2492 1.24979C83.1756 1.02759 82.8813 0.953525 82.6606 1.02759C82.5871 1.02759 82.5135 1.10166 82.4399 1.17573C81.8514 2.06453 80.895 2.65706 79.9386 3.10146C78.9822 3.54586 77.8787 3.76806 76.7752 3.84213C74.5681 4.06433 72.214 3.9162 69.9333 4.21246C65.2985 4.805 60.8109 5.84193 56.4704 7.54547C52.1299 9.24901 48.01 11.7673 44.9202 15.3225C44.1109 16.2113 43.3752 17.1001 42.7867 18.137C42.1981 19.174 41.6832 20.285 41.6096 21.5441C41.536 22.1366 41.6096 22.8032 41.8303 23.3217C42.051 23.9142 42.3453 24.4327 42.7131 24.8771C43.4488 25.7659 44.3316 26.5066 45.0673 27.4694C44.4788 26.5066 43.6695 25.6178 43.0074 24.729C42.3453 23.8402 42.051 22.7292 42.1982 21.6182C42.3453 20.5812 42.8603 19.5443 43.5224 18.6555C44.1845 17.7667 44.9202 16.8779 45.7294 16.0632C48.8928 12.8042 52.8655 10.5822 57.0589 8.95274C59.1924 8.138 61.3259 7.54547 63.5329 6.95294C65.74 6.43447 67.947 5.99007 70.2276 5.6938C71.3311 5.54567 72.4347 5.4716 73.6117 5.39753C74.7153 5.32347 75.8924 5.32347 77.0694 5.17533C78.2465 5.0272 79.4236 4.73093 80.5271 4.1384C81.6307 3.61993 82.6606 2.80519 83.3227 1.76826L82.5871 1.69419C83.3227 3.2496 83.617 5.0272 83.4699 6.8048C83.102 8.43427 82.5135 10.1378 81.4835 11.6191Z" fill="black"/>
<path d="M61.8408 14.5077C63.6065 13.0264 65.5928 11.9154 67.7999 11.3229C68.9034 10.9525 70.0069 10.8044 71.1104 10.6563C72.2139 10.5081 73.3175 10.5081 74.421 10.5822C75.5245 10.6563 76.628 10.8785 77.658 11.1747C78.6879 11.471 79.7915 11.9154 80.9686 12.2117C82.1457 12.5079 83.5434 12.3598 84.7205 11.7673C85.8976 11.1747 86.7804 10.1378 87.2954 8.87867L86.0448 8.95274C86.7804 10.5822 86.854 12.4339 86.5597 14.2855C86.2655 16.1372 85.6769 17.9889 84.8677 19.6184C84.0584 21.2478 82.7342 22.6551 81.1157 23.1736C79.4972 23.692 77.5844 23.3958 75.6716 23.1736L69.9333 22.3588C68.0206 22.0626 66.1078 21.8404 64.195 21.6182C63.2386 21.5441 62.2087 21.47 61.1787 21.6182C60.1488 21.7663 59.1924 22.2848 58.4567 22.9514C56.9118 24.2105 55.8818 25.914 54.3369 27.1732C55.9554 26.1362 57.1325 24.4327 58.6774 23.3958C59.4131 22.8773 60.2959 22.507 61.2523 22.3588C62.1351 22.2848 63.0915 22.3588 64.0479 22.507C67.8734 23.1736 71.699 23.8402 75.4509 24.5068C76.4073 24.6549 77.3637 24.8771 78.3937 24.8771C79.4236 24.9512 80.4536 24.8771 81.4835 24.5808C82.5135 24.2846 83.4699 23.618 84.2056 22.8773C84.9412 22.1366 85.6033 21.2478 86.0448 20.359C87.0011 18.5074 87.5897 16.5816 87.884 14.5818C88.1782 12.582 88.1782 10.36 87.2219 8.43427C87.0747 8.06394 86.6333 7.9158 86.339 8.138C86.1919 8.21207 86.0448 8.36021 85.9712 8.50834C85.6769 9.39714 84.9412 10.2119 84.132 10.7303C83.2492 11.2488 82.2928 11.3229 81.2628 11.1747C80.2329 11.0266 79.1294 10.5822 78.0258 10.2859C76.9223 9.98967 75.7452 9.84154 74.5681 9.76747C72.2139 9.69341 69.8598 10.0637 67.7263 10.9525C65.4457 11.6191 63.4593 12.8783 61.8408 14.5077Z" fill="black"/>
<path d="M86.854 15.7669C85.9712 15.915 85.2355 15.8409 84.4998 15.6928C83.7641 15.5447 82.9549 15.3225 82.1456 15.1743C81.3364 15.0262 80.5271 14.9521 79.7179 14.9521C78.9086 14.9521 78.0258 14.9521 77.2166 15.1003C77.9523 15.5447 78.7615 15.8409 79.5708 16.0632C80.38 16.2854 81.1893 16.5075 81.9985 16.6557C82.8078 16.8038 83.617 16.8779 84.4998 16.8779C85.3826 16.8038 86.339 16.4335 86.854 15.7669Z" fill="black"/>
<path d="M85.6769 19.3221C84.0584 19.248 82.5135 18.8036 81.0421 18.2111C79.5708 17.6186 78.0994 16.952 76.4809 16.4335C75.6717 16.2113 74.7888 16.0632 73.906 16.0632C73.0232 16.0632 72.1404 16.2113 71.3311 16.5075C69.7126 17.026 68.3148 17.9889 67.0642 19.0999C68.6091 18.5074 70.0805 17.9148 71.6254 17.6186C73.0968 17.3223 74.5681 17.4704 76.1131 17.9148C77.5844 18.2852 79.1294 18.9518 80.7479 19.3221C82.3664 19.7665 84.132 19.9146 85.6769 19.3221Z" fill="black"/>
<path d="M64.1215 5.99007C62.503 6.50854 60.8845 7.32327 59.4867 8.21207C58.0153 9.17494 56.6911 10.2859 55.514 11.6932C54.9254 12.3598 54.4105 13.1005 53.9691 13.8411C53.5276 14.5818 53.1598 15.3965 52.8655 16.2854C52.277 17.9889 52.0563 19.7665 52.277 21.47C52.6448 19.7665 53.1598 18.2111 53.8955 16.7298C54.6312 15.2484 55.5875 13.9152 56.6175 12.6561C57.6475 11.3969 58.8981 10.2859 60.1488 9.17494C61.3994 8.13801 62.7972 7.10107 64.1215 5.99007Z" fill="black"/>
<path d="M54.6312 9.10087C53.6012 9.69341 52.7184 10.5081 51.9827 11.3969C51.247 12.2857 50.5849 13.3227 50.1435 14.4337C49.7021 15.5447 49.4078 16.7298 49.2607 17.9148C49.1136 19.0999 49.1871 20.285 49.4814 21.47C49.7757 20.285 50.0699 19.248 50.3642 18.137C50.6585 17.1001 51.0999 16.0631 51.4677 15.0262C51.9091 13.9893 52.3506 13.0264 52.9391 12.0635C53.4541 11.1007 54.0426 10.1378 54.6312 9.10087Z" fill="black"/>
<path d="M48.8929 12.4339C48.2307 12.9523 47.7158 13.693 47.3479 14.5077C46.9801 15.2484 46.6858 16.1372 46.6122 16.952C46.4651 17.8408 46.4651 18.6555 46.6122 19.5443C46.7594 20.4331 47.0536 21.2478 47.5686 21.9144L47.7893 19.4702C47.8629 18.6555 47.9365 17.9148 48.0836 17.1742C48.2307 16.4335 48.3043 15.6187 48.4514 14.8781C48.5986 14.0633 48.8193 13.2486 48.8929 12.4339Z" fill="black"/>
<path d="M50.6585 26.6547C50.2171 27.4694 50.0699 28.4323 50.1435 29.3952C50.2171 30.358 50.3642 31.2468 50.6585 32.1356C50.9528 33.0244 51.3206 33.8392 51.8356 34.6539C52.3506 35.3946 53.0127 36.1353 53.8955 36.5797C53.5276 35.7649 53.1598 34.9502 52.8655 34.1354C52.5713 33.3207 52.3506 32.506 52.0563 31.6912C51.762 30.8765 51.5413 30.0618 51.247 29.247C50.9528 28.4323 50.8056 27.6176 50.6585 26.6547Z" fill="black"/>
<path d="M48.3043 26.8769C47.3479 28.2842 47.2008 30.1358 47.6422 31.7653C47.8629 32.58 48.2307 33.3207 48.6721 34.0614C49.1136 34.728 49.7021 35.3946 50.3642 35.839C50.2171 35.0242 49.9228 34.2836 49.7021 33.5429C49.4814 32.8022 49.2607 32.1356 49.04 31.395C48.8193 30.6543 48.6721 29.9877 48.5986 29.247C48.4514 28.4323 48.4514 27.6916 48.3043 26.8769Z" fill="black"/>
<path d="M45.9501 27.2472C45.4352 27.9138 45.1409 28.8026 44.9202 29.6174C44.773 30.5062 44.773 31.395 44.9202 32.2097C45.0673 33.0985 45.3616 33.9132 45.803 34.6539C46.2444 35.3946 46.8329 36.0612 47.5686 36.5056C47.2744 35.6909 47.0536 34.9502 46.8329 34.2095C46.6122 33.4688 46.4651 32.7282 46.318 31.9875C46.1708 31.2468 46.0973 30.5062 46.0237 29.6914C46.0237 28.8767 46.0237 28.062 45.9501 27.2472Z" fill="black"/>
<path d="M43.3752 28.136C42.7131 28.5804 42.051 29.3211 41.8303 30.2099C41.6096 31.0987 41.6096 31.9875 41.7567 32.8022C41.9039 33.617 42.1981 34.5058 42.6396 35.2464C43.081 35.9871 43.7431 36.6537 44.4788 37.024C44.1845 36.2093 43.8902 35.5427 43.6695 34.802C43.4488 34.0614 43.3017 33.3948 43.1545 32.6541C43.0074 31.9134 42.9338 31.1728 42.9338 30.4321C42.9338 29.7655 43.1545 29.0248 43.3752 28.136Z" fill="black"/>
<path d="M69.0505 31.395C68.9034 30.6543 68.6091 29.9877 68.0206 29.4692C67.7263 29.173 67.3585 28.9508 66.917 28.8026C66.4756 28.6545 66.0342 28.6545 65.5928 28.7286C64.7836 28.8767 64.1215 29.3211 63.6065 29.9136C63.0915 30.5062 62.7972 31.1728 62.7972 31.9134C63.3858 31.469 63.8272 31.0246 64.3422 30.8024C64.8571 30.5062 65.3721 30.284 65.8871 30.2099C66.4021 30.1358 66.7699 30.1358 67.2849 30.358C67.8734 30.5802 68.3884 31.0246 69.0505 31.395Z" fill="black"/>
<path d="M81.7778 28.8767C81.6307 28.2101 81.2628 27.6176 80.7479 27.1732C80.4536 26.951 80.0857 26.7288 79.7179 26.6547C79.3501 26.5806 78.8351 26.5806 78.4672 26.7288C77.7316 27.025 77.2166 27.4694 76.7752 27.9879C76.3338 28.5064 76.0395 29.173 76.0395 29.8396C76.628 29.4692 77.0694 29.173 77.5844 28.8767C78.0258 28.5804 78.5408 28.2842 78.9822 28.136C79.3501 27.9879 79.6443 27.9879 80.1593 28.136C80.6743 28.3582 81.1893 28.6545 81.7778 28.8767Z" fill="black"/>
<path d="M73.6117 35.9871C73.7589 38.2091 74.4946 40.3571 75.5245 42.2828C75.8188 42.8013 76.0395 43.2457 76.3338 43.6901C76.4809 43.9123 76.628 44.1345 76.7752 44.3567C76.8487 44.5048 76.9223 44.5789 76.9223 44.5789C76.9223 44.5789 76.9223 44.5789 76.9223 44.5048C76.9223 44.5048 76.9223 44.5048 76.8487 44.5048C75.9659 45.0233 74.936 45.4677 73.906 45.6899C75.0095 45.6899 76.1131 45.4677 77.143 45.0233C77.2166 45.0233 77.2902 44.9492 77.4373 44.8011C77.5109 44.6529 77.5109 44.4307 77.5109 44.3567C77.4373 44.1345 77.3637 44.0604 77.2902 43.9123C77.143 43.6901 76.9959 43.4679 76.8487 43.2457C76.5545 42.8013 76.3338 42.3569 76.0395 41.8384C75.1567 39.9867 74.3474 38.061 73.6117 35.9871Z" fill="black"/>
<path d="M77.658 51.8374C76.4809 51.5411 75.2302 51.393 74.1267 51.0227C73.0232 50.7264 71.9932 50.2079 71.0369 49.3932C71.2576 49.9857 71.699 50.5042 72.2139 50.8745C72.7289 51.2449 73.3175 51.5411 73.906 51.6893C75.2302 52.1337 76.4809 52.1337 77.658 51.8374Z" fill="black"/>
<path d="M71.2576 48.2081C70.8162 48.5785 70.5955 49.0229 70.4483 49.4673C70.3012 49.9117 70.2276 50.3561 70.3012 50.9486C70.7426 50.5783 70.9633 50.1339 71.1104 49.6895C71.3311 49.2451 71.4047 48.7266 71.2576 48.2081Z" fill="black"/>
<path d="M62.8708 45.3195C62.8708 46.6527 63.9008 47.9859 65.3721 48.06C66.1078 48.1341 66.8435 47.8378 67.3585 47.3934C67.8734 46.8749 68.2413 46.1343 68.2413 45.3936C68.2413 44.6529 67.947 43.9123 67.3585 43.3938C66.8435 42.8753 66.0342 42.6531 65.3721 42.7272C63.9743 42.6531 62.8708 43.9863 62.8708 45.3195ZM62.8708 45.3195C62.8708 44.6529 63.1651 43.9863 63.6801 43.5419C64.195 43.0975 64.7836 42.8753 65.4457 42.9494C66.6963 43.0235 67.5792 44.1345 67.5792 45.3195C67.5792 46.4305 66.6963 47.6156 65.4457 47.6897C64.8571 47.7637 64.195 47.5415 63.6801 47.0971C63.1651 46.6527 62.8708 45.9861 62.8708 45.3195Z" fill="black"/>
<path d="M81.1157 43.9863C81.1157 44.8751 81.4835 45.6899 82.2192 46.2824C82.5871 46.5787 83.0285 46.8009 83.5434 46.8749C84.0584 46.949 84.5734 46.949 85.0884 46.7268C85.2355 46.6527 85.3091 46.5046 85.3826 46.3565V46.2083C85.6769 44.727 85.7505 43.1716 85.5298 41.6903V41.5421C85.5298 41.394 85.3826 41.2459 85.2355 41.1718C84.7205 40.9496 84.2056 40.8755 83.6906 40.9496C83.1756 41.0237 82.7342 41.2459 82.3663 41.5421C81.4835 42.2828 81.1157 43.1716 81.1157 43.9863ZM81.1157 43.9863C81.1157 43.5419 81.2628 43.0975 81.4835 42.7272C81.7042 42.3569 82.0721 42.1347 82.4399 41.9865C82.8078 41.8384 83.2492 41.8384 83.617 41.9125C83.9849 41.9865 84.2791 42.1347 84.5734 42.3569L84.2791 41.8384C84.132 43.3197 84.132 44.727 84.2056 46.2083L84.4998 45.7639C83.9849 46.1343 83.1756 46.3565 82.4399 45.9861C82.0721 45.838 81.7042 45.5417 81.4835 45.1714C81.2628 44.8751 81.1157 44.4307 81.1157 43.9863Z" fill="black"/>
<path d="M66.917 40.283C66.3888 40.283 65.9607 39.056 65.9607 37.5425C65.9607 36.029 66.3888 34.802 66.917 34.802C67.4452 34.802 67.8734 36.029 67.8734 37.5425C67.8734 39.056 67.4452 40.283 66.917 40.283Z" fill="black"/>
<path d="M79.865 38.3573C79.2962 38.3573 78.8351 37.064 78.8351 35.4686C78.8351 33.8733 79.2962 32.58 79.865 32.58C80.4339 32.58 80.895 33.8733 80.895 35.4686C80.895 37.064 80.4339 38.3573 79.865 38.3573Z" fill="black"/>
<path d="M74.5681 61.0217C74.3474 61.9846 74.2739 63.0215 74.2003 63.9844C74.1267 64.9472 74.1267 65.9101 74.1267 66.873C74.1267 67.8358 74.1267 68.7987 74.2003 69.7616C74.2739 70.7244 74.3474 71.6873 74.5681 72.7242C74.936 71.7614 75.1567 70.7985 75.3038 69.8356C75.4509 68.8728 75.5245 67.8358 75.5245 66.873C75.5245 65.9101 75.4509 64.8732 75.3038 63.9103C75.1567 62.9474 75.0095 61.9846 74.5681 61.0217Z" fill="black"/>
<path d="M8.7982 118.127C9.90172 114.35 11.226 110.721 12.8445 107.165C14.463 103.61 16.3022 100.129 18.4356 96.9441C20.5691 93.7592 23.0704 90.6484 26.3074 88.7967C27.9259 87.9079 29.7651 87.2413 31.5308 87.1673C33.37 87.0191 35.2092 87.4635 36.7541 88.3523C38.299 89.3152 39.5497 90.7225 40.5061 92.2779C41.4625 93.9073 41.9774 95.6849 42.1981 97.5366C42.6396 101.314 41.9774 105.165 41.0211 108.869C39.0347 116.35 35.577 123.46 30.8686 129.608L31.5308 129.459C27.8524 127.237 24.1739 125.164 20.3484 123.238C16.5229 121.312 12.6973 119.534 8.72465 117.905C12.5502 119.757 16.3022 121.682 20.0541 123.83C23.7325 125.904 27.4109 128.052 31.0158 130.348C31.2365 130.496 31.5308 130.422 31.6779 130.274C36.6805 124.127 40.2854 116.942 42.3453 109.239C43.3752 105.462 44.1845 101.388 43.6695 97.3144C43.1545 93.3148 41.0946 89.2411 37.4898 87.0932C35.7241 85.9822 33.5171 85.6119 31.4572 85.76C29.3973 85.9081 27.411 86.6488 25.6453 87.6117C23.8797 88.6486 22.4083 90.0559 21.0841 91.5372C19.7599 93.0185 18.6563 94.648 17.6264 96.3515C15.5665 99.6845 13.8008 103.24 12.3295 106.869C10.8581 110.498 9.60745 114.276 8.7982 118.127Z" fill="#174075"/>
<path d="M33.2228 127.237C31.5308 125.756 29.6916 124.497 27.8524 123.312C26.0132 122.127 24.0268 121.016 22.114 119.979C20.1277 118.942 18.1414 118.053 16.0815 117.238C14.0216 116.424 11.9616 115.683 9.75461 115.165C11.6674 116.276 13.6537 117.312 15.5665 118.275L21.3784 121.312L27.2638 124.349C29.2502 125.312 31.2365 126.349 33.2228 127.237Z" fill="#174075"/>
<path d="M26.1603 126.793C25.2039 127.904 24.4682 129.163 23.7325 130.422C23.0704 131.681 22.4083 133.015 21.8933 134.348C21.3784 135.681 20.8634 137.088 20.4956 138.496C20.1277 139.903 19.8334 141.31 19.6863 142.791C20.422 141.532 21.0105 140.199 21.5255 138.866C22.1141 137.533 22.629 136.274 23.2176 134.94C23.7326 133.607 24.2475 132.274 24.7625 130.941C25.2775 129.608 25.7925 128.274 26.1603 126.793Z" fill="black"/>
<path d="M10.196 118.572C6.81187 125.015 4.08986 131.83 2.10352 138.866C1.58854 140.643 1 142.421 1 144.347C1 145.31 1.14712 146.347 1.58853 147.235C2.02994 148.124 2.6185 148.939 3.28061 149.606C3.94273 150.272 4.60483 150.939 5.26694 151.531L7.2533 153.383L11.2995 157.012C16.7436 161.827 22.2612 166.493 28.0731 170.863C29.5444 171.974 30.9422 173.011 32.4871 174.048L34.6942 175.603L35.7977 176.344C36.1656 176.566 36.607 176.862 37.1219 177.01C38.1519 177.307 39.1083 176.936 39.9911 176.714C40.8739 176.418 41.6832 176.121 42.566 175.825C44.2581 175.159 45.9501 174.418 47.4951 173.603C45.803 174.344 44.1109 174.936 42.4188 175.455C41.536 175.751 40.7268 175.973 39.844 176.196C38.9611 176.418 38.0783 176.64 37.3427 176.344C36.607 176.047 35.9449 175.381 35.2092 174.862L33.0757 173.233C31.6779 172.122 30.2065 171.011 28.8087 169.9C23.144 165.382 17.7 160.642 12.3295 155.827L8.28324 152.198C6.95901 151.013 5.56122 149.754 4.31057 148.569C3.72202 147.976 3.20704 147.309 2.8392 146.569C2.47136 145.828 2.32421 145.013 2.32421 144.199C2.32421 142.495 2.76564 140.792 3.20705 139.014C5.04625 132.126 7.32685 125.238 10.196 118.572Z" fill="black"/>
<path d="M14.6101 140.199C17.185 141.236 19.4656 142.94 21.5255 144.865C23.5854 146.791 25.4246 148.865 27.2638 151.013L38.2255 163.826C38.4462 164.049 38.6669 164.123 38.9612 164.049C41.6096 163.16 44.2581 162.419 46.9065 161.753C48.2307 161.382 49.6285 161.086 50.9528 160.79C51.6149 160.642 52.277 160.493 52.9391 160.419C53.6012 160.345 54.1898 160.493 54.7783 160.79C55.3669 161.086 55.9554 161.456 56.5439 161.827L58.236 163.012C59.4131 163.826 60.5166 164.641 61.6201 165.456C62.7237 166.271 63.8272 167.159 64.2686 168.493C64.4893 169.159 64.3422 169.9 63.9008 170.418C63.5329 171.011 62.8708 171.381 62.1351 171.233C62.7972 171.455 63.5329 171.085 63.9743 170.492C64.4157 169.9 64.6364 169.159 64.4157 168.419C64.2686 167.678 63.8272 167.085 63.3858 166.567C62.9444 166.048 62.3558 165.604 61.8409 165.086C60.7373 164.197 59.6338 163.308 58.5303 162.493L56.8382 161.234C56.2497 160.79 55.7347 160.419 55.0726 160.049C54.4105 159.679 53.6012 159.456 52.8655 159.531C52.1299 159.531 51.3942 159.679 50.7321 159.753C49.3343 159.975 48.01 160.271 46.6122 160.493C43.8902 161.086 41.1682 161.678 38.4462 162.493L39.1819 162.715L27.6317 150.42C25.7189 148.346 23.8061 146.347 21.5991 144.495C19.6127 142.717 17.2586 141.088 14.6101 140.199Z" fill="black"/>
<path d="M74.6417 72.3539C73.2439 72.8724 71.8461 73.3168 70.4483 73.6871C69.0505 74.0574 67.6527 74.3537 66.2549 74.5759C64.8571 74.7981 63.4593 74.8722 61.988 74.9462C60.5902 74.9462 59.1188 74.9462 57.6475 74.8722C58.9717 75.5388 60.4431 75.9091 61.988 76.1313C63.4593 76.3535 65.0043 76.3535 66.4756 76.1313C67.947 75.9091 69.4184 75.4647 70.8162 74.8722C72.2875 74.2056 73.6117 73.3908 74.6417 72.3539Z" fill="black"/>
<path d="M60.8109 86.3525C61.473 90.6484 62.2087 94.9443 62.7972 99.1661C63.3858 103.462 64.0479 107.758 64.5629 112.054C65.4457 120.645 66.917 129.237 68.0206 137.829C68.5355 142.125 69.0505 146.421 69.4184 150.791L70.4483 163.752C71.1104 172.418 71.2576 181.01 71.0369 189.676L71.8461 188.935C69.4919 188.861 67.1378 188.787 64.7836 188.713C62.4294 188.565 60.0752 188.417 57.721 188.194C55.3669 187.972 53.0127 187.75 50.6585 187.38C48.3043 187.083 45.9501 186.713 43.596 186.343L43.9638 186.787C44.1109 183.158 44.2581 179.603 44.3316 175.973C44.3316 175.899 44.3316 175.899 44.2581 175.899C44.1845 175.899 44.1845 175.899 44.1845 175.973C43.8167 179.529 43.4488 183.158 43.1545 186.713C43.1545 186.935 43.3017 187.083 43.4488 187.157C45.803 187.676 48.0836 188.12 50.4378 188.491C52.792 188.861 55.1461 189.231 57.5003 189.528C59.8545 189.824 62.2087 190.046 64.6364 190.194C66.9906 190.342 69.4184 190.49 71.7725 190.49C72.214 190.49 72.5818 190.12 72.5818 189.75C72.6554 185.38 72.5818 181.084 72.4347 176.714C72.3611 174.566 72.214 172.344 72.0668 170.196L71.8461 166.937C71.7725 165.826 71.6254 164.789 71.4783 163.678C70.3747 155.086 69.4184 146.421 68.5355 137.829C67.7263 129.163 66.9906 120.571 65.8871 111.906C65.2985 107.61 64.5629 103.314 63.7536 99.092C62.9444 94.7961 61.988 90.5743 60.958 86.3525C60.958 86.2785 60.8845 86.2785 60.8845 86.2785C60.8109 86.2785 60.8109 86.3525 60.8109 86.3525Z" fill="#174075"/>
<path d="M37.2691 121.386C37.8576 124.793 38.7404 128.052 39.7704 131.385C40.7268 134.644 41.8303 137.903 42.7131 141.162C43.6695 144.421 44.4052 147.68 44.9202 151.087C45.4352 154.42 45.5823 157.827 45.3616 161.234C46.1708 157.901 46.318 154.42 46.0237 150.939C45.7294 147.458 44.9937 144.125 44.1109 140.792C43.1545 137.459 42.051 134.274 40.8004 131.015C39.6233 127.83 38.4462 124.645 37.2691 121.386Z" fill="#174075"/>
<path d="M108.115 158.197C108.262 159.086 108.557 159.827 108.63 160.567C108.777 161.308 108.777 161.975 108.557 162.493C108.336 163.086 107.895 163.752 107.453 164.419C107.012 165.086 106.644 165.826 106.35 166.641C107.085 166.197 107.747 165.678 108.336 165.086C108.924 164.493 109.513 163.9 109.954 162.938C110.322 161.975 110.175 160.864 109.807 160.123C109.366 159.382 108.777 158.716 108.115 158.197Z" fill="black"/>
<path d="M109.513 162.493C109.439 163.53 109.954 164.419 110.102 165.234C110.322 166.048 110.102 166.493 109.587 167.308C109.145 168.122 108.704 168.863 108.189 169.455C107.674 170.048 107.012 170.566 106.055 170.715C106.497 171.011 107.012 171.011 107.527 170.937C108.042 170.863 108.557 170.641 108.998 170.344C109.881 169.752 110.396 168.863 110.911 168.048C111.131 167.678 111.426 167.159 111.499 166.567C111.573 165.974 111.426 165.308 111.205 164.863C110.69 163.826 110.028 163.308 109.513 162.493Z" fill="black"/>
<path d="M110.837 166.567C110.837 167.085 110.911 167.604 110.911 168.122L110.984 168.863C110.984 169.085 111.058 169.381 111.058 169.53C111.058 169.678 111.058 169.678 110.911 169.826C110.837 169.974 110.617 170.196 110.469 170.344C110.175 170.715 109.881 171.085 109.587 171.455L108.777 172.64C108.483 173.011 108.189 173.307 107.894 173.529C107.6 173.751 107.306 173.899 106.865 173.825C106.497 173.825 106.055 173.603 105.835 173.085C105.761 173.307 105.835 173.677 105.982 173.899C106.129 174.122 106.35 174.344 106.644 174.492C106.938 174.64 107.232 174.714 107.527 174.714C107.821 174.714 108.115 174.64 108.409 174.492C108.998 174.27 109.366 173.825 109.734 173.455C110.102 173.085 110.396 172.64 110.69 172.27C110.984 171.9 111.279 171.455 111.573 171.011C111.72 170.789 111.867 170.641 112.014 170.344C112.088 170.196 112.161 170.048 112.235 169.826C112.235 169.604 112.235 169.381 112.161 169.233C112.088 168.937 111.941 168.715 111.867 168.493L111.499 167.826C111.426 167.456 111.131 167.011 110.837 166.567Z" fill="black"/>
<path d="M77.4373 83.0195C77.658 87.3154 77.9523 91.6113 78.173 95.9812L79.0558 108.869C79.6443 117.461 80.3065 126.126 80.9686 134.718C81.3364 139.014 81.7042 143.31 82.0721 147.606L83.2492 160.493C83.6906 164.789 84.0584 169.085 84.4263 173.381C84.8677 177.677 85.0884 181.973 85.3091 186.269C85.3091 186.417 85.4562 186.491 85.5298 186.491C88.1047 186.417 90.6796 186.12 93.1809 185.528C95.6822 185.009 98.1835 184.269 100.611 183.38C101.788 182.936 103.039 182.417 104.143 181.825C104.731 181.528 105.32 181.232 105.908 180.936C106.202 180.788 106.497 180.64 106.791 180.417C106.938 180.269 107.085 180.121 107.232 179.899C107.38 179.677 107.38 179.454 107.38 179.232C107.38 178.788 107.306 178.492 107.306 178.195L107.159 177.232L106.938 175.307L106.423 171.455C105.172 161.234 104.143 150.939 103.48 140.643L103.039 132.941C102.892 130.348 102.745 127.756 102.745 125.238C102.671 120.053 102.745 114.942 102.745 109.758C102.745 104.573 102.892 99.4623 103.039 94.2777C103.113 91.6853 103.26 89.093 103.407 86.5747C103.48 85.3156 103.554 83.9824 103.701 82.7233C103.775 81.4641 103.995 80.1309 104.143 78.8718C104.143 78.7236 104.069 78.5755 103.995 78.5014C102.745 77.5386 101.494 76.7238 100.17 76.0572C98.8456 75.3166 97.4478 74.7981 96.05 74.2056C94.6522 73.6871 93.1809 73.2427 91.7095 72.8724C90.9738 72.6502 90.2381 72.5761 89.5025 72.3539C88.7668 72.2058 88.0311 72.1317 87.2954 71.9836C87.2219 71.9836 87.2219 71.9836 87.2219 72.0576C87.2219 72.1317 87.2219 72.1317 87.2954 72.1317C88.0311 72.2798 88.7668 72.428 89.5025 72.5761C90.2381 72.7983 90.9738 72.9464 91.6359 73.1686C93.0337 73.613 94.5051 74.0574 95.8293 74.65C97.2271 75.2425 98.5513 75.9091 99.802 76.5757C101.053 77.3164 102.377 78.1311 103.48 79.0199L103.333 78.6496C103.113 79.9087 102.892 81.1678 102.745 82.501C102.598 83.7602 102.45 85.0934 102.303 86.3525C102.083 88.9449 101.862 91.5372 101.715 94.1295C101.421 99.3142 101.273 104.499 101.126 109.684C101.053 114.868 100.979 120.053 101.053 125.238C101.126 130.422 101.494 135.607 101.862 140.792C102.598 151.087 103.701 161.456 105.172 171.677L106.35 179.306C106.35 179.529 106.276 179.603 106.129 179.825C105.982 179.973 105.687 180.121 105.393 180.269C104.878 180.565 104.29 180.862 103.701 181.158C102.598 181.751 101.421 182.269 100.243 182.787C97.8892 183.75 95.4615 184.565 92.9602 185.084C90.4588 185.602 87.9575 185.972 85.3826 186.046L85.8976 186.269C85.6033 181.973 85.3827 177.677 85.0148 173.381C84.647 169.085 84.4263 164.789 84.132 160.493L83.2492 147.606C82.9549 143.31 82.5871 139.014 82.2928 134.718C81.6307 126.126 80.8214 117.535 80.0857 108.943L78.9087 96.0553C78.4672 91.7594 78.0994 87.4635 77.5844 83.1677C77.5844 83.0936 77.5109 83.0936 77.5109 83.0936C77.5109 82.9455 77.4373 83.0195 77.4373 83.0195Z" fill="#174075"/>
<path d="M51.5413 164.863C52.277 165.011 53.0862 164.937 53.7484 164.937C54.1162 164.937 54.4105 165.011 54.7047 165.16C54.999 165.308 55.2197 165.456 55.4404 165.678C56.544 166.641 57.6475 167.604 58.6774 168.567C59.7074 169.53 60.7373 170.566 61.6202 171.677C61.8409 171.974 62.0616 172.27 62.2087 172.492C62.3558 172.788 62.4294 172.937 62.4294 173.233C62.3558 173.825 61.6937 174.27 61.0316 174.64C61.3994 174.566 61.7673 174.492 62.1351 174.344C62.503 174.196 62.8708 173.899 63.0915 173.455C63.3122 173.011 63.2386 172.418 63.0915 172.048C62.9444 171.603 62.7237 171.307 62.5765 171.011C61.8409 169.678 60.8109 168.493 59.7074 167.456C58.6038 166.419 57.3532 165.53 56.1761 164.715C55.8818 164.493 55.4404 164.271 54.999 164.197C54.5576 164.123 54.1162 164.123 53.7484 164.197C52.9391 164.419 52.277 164.715 51.5413 164.863Z" fill="black"/>
<path d="M49.4078 168.344C50.2907 168.419 51.1735 168.493 51.9827 168.567C52.4241 168.567 52.8655 168.567 53.1598 168.641C53.4541 168.715 53.6748 168.937 54.0426 169.233C55.2933 170.344 56.6175 171.455 57.8682 172.64C58.4567 173.233 59.1188 173.825 59.7074 174.418C59.8545 174.566 60.0016 174.714 60.0752 174.862C60.2224 175.01 60.2959 175.159 60.3695 175.233C60.3695 175.233 60.3695 175.307 60.3695 175.381C60.2959 175.529 60.2224 175.751 60.1488 175.899C60.0016 176.27 59.7809 176.566 59.5602 176.788C59.3395 177.01 59.1188 177.01 58.751 176.936C58.3832 176.862 57.9417 176.566 57.5003 176.492C57.0589 176.344 56.6911 176.27 56.2497 176.121C56.6175 176.344 56.9854 176.64 57.3532 176.862C57.721 177.084 58.0153 177.307 58.4567 177.603C58.6774 177.751 58.8981 177.825 59.1924 177.825C59.4867 177.825 59.7809 177.751 60.0752 177.603C60.5902 177.307 60.8845 176.936 61.1787 176.492C61.3259 176.27 61.3994 176.121 61.5466 175.899C61.6201 175.751 61.6937 175.603 61.6937 175.381C61.7673 175.159 61.6937 174.936 61.6202 174.714C61.473 174.344 61.3259 174.196 61.2523 173.974C61.1052 173.751 60.958 173.603 60.8109 173.381C60.2223 172.714 59.5602 172.122 58.9717 171.455C57.6475 170.27 56.3232 169.159 54.8519 168.196C54.484 167.974 54.0426 167.604 53.4541 167.604C52.9391 167.604 52.4977 167.678 52.0563 167.752C51.0999 167.974 50.2171 168.122 49.4078 168.344Z" fill="black"/>
<path d="M46.4651 170.048C48.2307 169.974 50.0699 169.9 51.5413 170.566C51.9091 170.715 52.277 170.937 52.4241 171.159C52.7184 171.455 52.9391 171.752 53.2334 172.122C53.7484 172.788 54.1898 173.529 54.6312 174.27C54.8519 174.64 54.999 175.01 55.1461 175.381C55.1461 175.455 55.2197 175.529 55.2197 175.603V175.677C55.2197 175.751 55.2197 175.899 55.1461 175.973C54.999 176.196 54.8519 176.344 54.5576 176.344C54.2633 176.418 53.9691 176.344 53.6012 176.196C52.9391 175.899 52.2034 175.381 51.5413 174.862C50.8792 174.344 50.2171 173.751 49.555 173.159L49.4814 173.085C49.4078 173.011 49.3343 173.011 49.2607 173.011C48.525 173.233 47.7158 173.455 46.9801 173.677C47.7893 173.677 48.5986 173.677 49.3343 173.603L49.04 173.529C49.555 174.27 50.1435 175.01 50.8056 175.677C51.4677 176.344 52.1298 176.936 53.0862 177.455C53.6012 177.677 54.1162 177.825 54.7783 177.751C55.4404 177.677 56.029 177.232 56.3968 176.714C56.5439 176.418 56.6911 176.121 56.6911 175.751C56.6911 175.677 56.6911 175.529 56.6911 175.455L56.6175 175.233C56.6175 175.085 56.5439 174.936 56.4704 174.862C56.2497 174.344 56.029 173.974 55.8083 173.529C55.2933 172.714 54.7783 171.974 54.1898 171.233C53.8955 170.863 53.6012 170.566 53.2334 170.196C52.792 169.826 52.3506 169.604 51.8356 169.455C50.8792 169.159 49.9228 169.159 49.04 169.233C48.1572 169.53 47.2743 169.752 46.4651 170.048Z" fill="black"/>
<path d="M47.8629 172.344C47.5686 172.344 47.3479 172.418 47.2008 172.492C47.0536 172.566 46.9801 172.64 46.9801 172.714C46.9801 172.788 46.9801 172.863 47.0536 173.011C47.1272 173.085 47.2743 173.233 47.5686 173.455C47.8629 173.455 48.0836 173.381 48.1572 173.381C48.3043 173.307 48.3779 173.233 48.3779 173.159C48.3779 173.085 48.3779 172.937 48.3043 172.863C48.3043 172.566 48.1572 172.492 47.8629 172.344Z" fill="black"/>
<path d="M46.6122 172.64C46.4651 172.937 46.4651 173.159 46.4651 173.307C46.4651 173.455 46.5387 173.603 46.6122 173.677C46.6858 173.751 46.833 173.825 46.9801 173.825C47.1272 173.825 47.3479 173.751 47.6422 173.603C47.7893 173.307 47.7893 173.085 47.7893 172.937C47.7893 172.788 47.7158 172.64 47.6422 172.566C47.5686 172.492 47.4215 172.418 47.2744 172.492C47.0536 172.418 46.9065 172.492 46.6122 172.64Z" fill="black"/>
<path d="M83.3227 155.235C82.2928 154.79 81.1893 154.568 80.1593 154.42C79.0558 154.346 77.9523 154.346 76.9223 154.42C75.8188 154.494 74.7888 154.642 73.7589 154.864C72.7289 155.087 71.699 155.309 70.5955 155.605C71.699 155.901 72.7289 155.975 73.8325 156.049C74.936 156.049 75.9659 156.049 76.9959 155.975C78.0258 155.901 79.0558 155.753 80.1593 155.679C81.1893 155.457 82.2192 155.383 83.3227 155.235Z" fill="black"/>
<path d="M83.5434 157.901C82.5135 157.605 81.41 157.457 80.38 157.383C79.3501 157.309 78.2465 157.234 77.2166 157.308C76.1866 157.308 75.0831 157.383 74.0532 157.531C73.5382 157.605 73.0232 157.679 72.5082 157.753C71.9933 157.901 71.4047 158.049 70.9633 158.345C71.4783 158.345 71.9933 158.345 72.5082 158.419C73.0232 158.494 73.5382 158.568 74.1267 158.568C75.1567 158.642 76.2602 158.716 77.2901 158.642C78.3201 158.642 79.4236 158.568 80.4536 158.419C81.41 158.419 82.5135 158.197 83.5434 157.901Z" fill="black"/>
<path d="M83.6906 160.345C82.6606 160.123 81.5571 160.049 80.5272 160.049C79.4972 160.049 78.3937 160.123 77.3637 160.197C76.3338 160.271 75.3038 160.493 74.2739 160.641C73.2439 160.864 72.214 161.086 71.184 161.382C72.214 161.678 73.3175 161.753 74.3474 161.753C75.3774 161.753 76.4809 161.753 77.5109 161.604C78.5408 161.456 79.5708 161.308 80.6007 161.086C81.6307 161.012 82.6606 160.79 83.6906 160.345Z" fill="black"/>
<path d="M46.7594 72.8724C44.9937 73.8352 43.3017 74.8722 41.6096 76.0572C39.9175 77.1682 38.299 78.3533 36.7541 79.5384C35.1356 80.7235 33.5907 81.9826 32.0457 83.3158C30.5008 84.5749 29.0295 85.9081 27.6317 87.3895C29.3973 86.4266 31.0894 85.3897 32.7814 84.2046C34.4735 83.0936 36.092 81.9085 37.6369 80.7235C39.2554 79.5384 40.8004 78.2793 42.3453 76.946C43.8902 75.6869 45.3616 74.3537 46.7594 72.8724Z" fill="#174075"/>
<path d="M47.2744 80.1309C46.3915 80.6494 45.5823 81.316 44.773 81.9826C44.0374 82.6492 43.3017 83.3899 42.566 84.1305C41.9039 84.8712 41.2418 85.6859 40.5796 86.5007C39.9911 87.3154 39.4026 88.2042 38.9612 89.1671C39.844 88.6486 40.6532 87.982 41.4625 87.3154C42.1982 86.6488 42.9338 85.9081 43.6695 85.1675C44.3316 84.4268 44.9938 83.6121 45.6559 82.7973C46.2444 81.9085 46.833 81.0938 47.2744 80.1309Z" fill="#174075"/>
<path d="M103.48 82.1307C102.45 81.316 101.347 80.6494 100.243 79.9828C99.1399 79.3162 97.9628 78.7977 96.7857 78.2052C95.6086 77.6867 94.4315 77.1682 93.1809 76.7238C92.0038 76.2794 90.7531 75.9091 89.4289 75.6869C90.4589 76.5016 91.5624 77.1683 92.6659 77.8349C93.7694 78.4274 94.9465 79.0199 96.1236 79.6125C97.3007 80.1309 98.4778 80.6494 99.7284 81.0197C100.979 81.5382 102.23 81.9085 103.48 82.1307Z" fill="#174075"/>
<path d="M119.813 112.202C122.387 116.35 124.889 120.497 127.316 124.719C127.905 125.756 128.494 126.867 129.009 127.904C129.524 128.941 130.039 130.052 130.406 131.163C130.48 131.311 130.48 131.459 130.48 131.533V131.83C130.48 131.904 130.406 132.052 130.406 132.126C130.406 132.2 130.333 132.348 130.259 132.496C130.039 133.015 129.818 133.533 129.524 134.052C129.009 135.088 128.42 136.199 127.831 137.236C125.477 141.458 122.902 145.606 120.401 149.754C117.9 153.901 115.398 158.049 112.897 162.271C112.897 162.271 112.897 162.271 112.897 162.345C112.382 164.271 111.794 166.197 111.279 168.122C112.014 166.271 112.676 164.419 113.412 162.493V162.567C116.208 158.568 118.93 154.568 121.578 150.42C122.902 148.346 124.227 146.347 125.477 144.199C126.728 142.125 127.979 140.051 129.156 137.903C129.744 136.866 130.333 135.755 130.848 134.644C131.142 134.052 131.363 133.533 131.583 132.866C131.657 132.718 131.657 132.57 131.731 132.348C131.731 132.126 131.804 131.978 131.804 131.755V131.459L131.731 131.163C131.731 131.015 131.657 130.793 131.583 130.644C130.774 128.2 129.45 126.126 128.199 124.053C125.624 119.979 122.829 116.053 119.813 112.202Z" fill="black"/>
<path d="M116.723 132.422C116.355 131.311 115.84 130.274 115.251 129.311C114.663 128.348 114.074 127.386 113.412 126.423C112.75 125.46 112.088 124.571 111.279 123.756C110.543 122.942 109.734 122.053 108.777 121.386C109.292 122.423 109.734 123.46 110.322 124.423C110.911 125.386 111.499 126.349 112.161 127.311C112.824 128.2 113.486 129.163 114.221 129.978C115.031 130.867 115.84 131.681 116.723 132.422Z" fill="black"/>
<path d="M122.682 131.015C121.505 130.496 120.033 130.496 118.783 131.089C118.12 131.311 117.605 131.755 117.017 132.2C116.796 132.422 116.502 132.644 116.281 132.941C116.061 133.237 115.84 133.459 115.619 133.755C114.148 136.051 113.191 138.421 112.088 140.866C111.131 143.31 110.175 145.754 109.292 148.198L108.189 151.457C107.747 151.679 107.085 151.902 106.497 152.05C105.908 152.198 105.246 152.42 104.657 152.568H104.584C104.29 152.642 104.069 152.939 104.143 153.235C104.143 153.309 104.216 153.457 104.29 153.531L107.159 156.42C107.527 156.716 107.747 157.012 107.747 157.309C107.747 157.605 107.6 158.049 107.38 158.42C107.159 158.79 106.938 159.234 106.717 159.605C106.276 160.345 105.687 161.086 105.172 161.827C105.835 161.234 106.497 160.567 107.085 159.827C107.38 159.456 107.674 159.086 107.894 158.716C108.115 158.345 108.483 157.901 108.483 157.309C108.483 157.012 108.409 156.716 108.262 156.42C108.115 156.197 107.968 155.975 107.821 155.827L105.172 152.716L105.025 153.679C105.687 153.531 106.35 153.457 106.938 153.309C107.6 153.161 108.189 153.013 108.924 152.642C109.072 152.568 109.145 152.568 109.292 152.346C109.366 152.198 109.439 152.198 109.439 152.124L109.513 151.976L109.734 151.457L110.102 150.568L110.764 148.717C111.646 146.273 112.529 143.828 113.486 141.384C113.927 140.199 114.442 138.94 114.883 137.755C115.398 136.57 115.84 135.311 116.502 134.274C117.091 133.163 117.973 132.274 119.003 131.607C120.107 131.015 121.431 130.793 122.682 131.015Z" fill="black"/>
<path d="M102.083 123.904C103.26 123.756 104.437 123.312 105.54 122.867C106.644 122.423 107.747 121.905 108.777 121.312C109.881 120.794 110.911 120.127 111.941 119.534C112.971 118.942 114.001 118.275 114.957 117.535C116.943 116.053 118.635 114.276 120.107 112.276C121.505 110.276 122.682 108.054 123.344 105.61C123.417 105.388 123.344 105.24 123.27 105.091C121.725 102.869 120.18 100.647 118.562 98.4254L113.78 91.8335C112.161 89.6115 110.543 87.4635 108.924 85.2415L106.423 81.9826C105.982 81.4641 105.614 80.8716 105.172 80.3531L103.848 78.7977C105.467 81.0197 106.791 83.3899 108.336 85.6119C109.807 87.9079 111.279 90.1299 112.824 92.426L117.385 99.1661C118.93 101.388 120.475 103.61 122.02 105.832L121.872 105.24C121.284 107.388 120.18 109.535 118.93 111.461C117.605 113.387 116.061 115.165 114.221 116.646C112.382 118.127 110.396 119.46 108.336 120.72C107.306 121.386 106.276 121.979 105.246 122.497C104.363 123.09 103.26 123.682 102.083 123.904Z" fill="#174075"/>
<path d="M121.137 103.166C119.739 104.943 118.415 106.721 117.017 108.424C115.619 110.128 114.221 111.832 112.676 113.387C111.131 114.942 109.513 116.35 107.747 117.535C105.835 118.646 103.922 119.757 102.083 121.09C104.216 120.349 106.276 119.534 108.262 118.572C110.322 117.535 112.088 116.053 113.706 114.424C115.251 112.794 116.649 111.017 117.9 109.091C119.15 107.239 120.254 105.24 121.137 103.166Z" fill="#174075"/>
<path d="M102.671 348.845C102.23 348.105 101.347 347.734 100.464 347.734C99.5813 347.66 98.7721 347.956 97.9628 348.179C97.2271 348.401 96.4914 348.697 95.8293 348.697L95.2408 348.771C95.0936 348.771 94.8729 348.771 94.7258 348.771C94.5787 348.771 94.358 348.771 94.2108 348.771H93.9166C93.843 348.771 93.6223 348.771 93.7694 348.771C93.7694 348.771 93.9166 348.845 93.9901 348.919C94.0637 348.993 94.0637 349.067 94.1373 349.141C94.1373 349.216 94.1373 349.067 94.1373 348.993L94.0637 348.401L93.9901 347.216C93.9166 346.401 93.843 345.66 93.6958 344.846C93.4751 343.29 93.2544 341.661 92.813 340.105C92.5923 341.735 92.5188 343.29 92.5188 344.92C92.5188 345.734 92.5188 346.549 92.5188 347.29L92.5923 348.475V349.067C92.5923 349.141 92.5923 349.216 92.6659 349.512C92.6659 349.66 92.7395 349.808 92.8866 349.956C93.0337 350.104 93.1809 350.178 93.328 350.252C93.6223 350.327 93.6223 350.327 93.7694 350.327H94.0637C94.2844 350.327 94.5051 350.327 94.7258 350.327C94.9465 350.327 95.1672 350.327 95.3879 350.252C95.6086 350.252 95.8293 350.178 95.9765 350.178C96.9328 349.956 97.6685 349.586 98.4042 349.216C99.1399 348.919 99.802 348.549 100.464 348.401C101.2 348.327 102.009 348.401 102.671 348.845Z" fill="black"/>
<path d="M107.968 339.661C110.469 338.031 113.118 336.624 115.84 335.661C117.238 335.217 118.635 334.847 120.033 334.624C121.431 334.402 122.902 334.328 124.3 334.402C127.169 334.55 129.965 335.291 132.466 336.698C133.717 337.439 134.968 338.18 135.63 339.365C135.998 339.957 136.145 340.55 136.145 341.216C136.145 341.883 135.85 342.475 135.335 342.92L135.262 342.994C135.115 343.142 135.115 343.29 135.188 343.438C135.262 343.512 135.262 343.512 135.335 343.512C135.924 343.661 136.365 344.327 136.439 345.068C136.513 345.808 136.292 346.549 136.071 347.29C136.439 346.623 136.807 345.883 136.807 344.994C136.807 344.549 136.733 344.105 136.513 343.735C136.292 343.364 135.998 342.994 135.556 342.772L135.63 343.364C136.365 342.92 136.807 342.031 136.954 341.216C137.101 340.402 136.88 339.439 136.513 338.772C135.703 337.291 134.379 336.328 133.055 335.513C131.731 334.698 130.333 334.106 128.788 333.662C127.316 333.217 125.772 332.995 124.227 332.921C121.137 332.773 118.047 333.439 115.251 334.624C112.676 335.884 110.102 337.587 107.968 339.661Z" fill="black"/>
<path d="M135.85 347.66C133.128 347.808 130.406 347.882 127.611 347.882H119.371C116.649 347.882 113.854 347.956 111.131 348.105C108.409 348.253 105.614 348.401 102.892 348.771C105.614 349.067 108.409 349.216 111.131 349.29C113.854 349.364 116.649 349.438 119.371 349.364C122.093 349.364 124.889 349.29 127.611 349.067C130.406 348.771 133.202 348.401 135.85 347.66Z" fill="black"/>
<path d="M135.188 343.364L124.815 343.29C121.357 343.29 117.9 343.29 114.442 343.29C110.984 343.364 107.527 343.364 104.069 343.586C100.611 343.735 97.1536 344.031 93.6958 344.549C97.1536 344.697 100.611 344.697 104.069 344.772C107.527 344.846 110.984 344.846 114.442 344.846C117.9 344.772 121.357 344.697 124.815 344.475C128.273 344.253 131.731 343.883 135.188 343.364Z" fill="black"/>
<path d="M133.496 348.03C133.79 347.66 133.938 347.29 134.085 346.919C134.158 346.549 134.232 346.179 134.232 345.808C134.232 345.438 134.158 345.068 134.011 344.697C133.864 344.327 133.717 343.957 133.423 343.586C133.128 343.957 132.981 344.327 132.908 344.772C132.834 345.142 132.761 345.512 132.761 345.883C132.761 346.475 132.908 347.216 133.496 348.03Z" fill="black"/>
<path d="M129.818 343.661C129.524 344.105 129.376 344.475 129.303 344.846C129.229 345.216 129.156 345.586 129.229 346.031C129.229 346.401 129.303 346.771 129.45 347.216C129.597 347.586 129.744 347.956 130.112 348.327C130.406 347.956 130.553 347.512 130.627 347.142C130.701 346.771 130.774 346.327 130.701 345.957C130.701 345.586 130.627 345.142 130.48 344.772C130.259 344.401 130.112 344.031 129.818 343.661Z" fill="black"/>
<path d="M125.109 343.883C124.815 344.253 124.668 344.697 124.521 345.068C124.447 345.438 124.374 345.883 124.374 346.253C124.374 346.623 124.447 347.068 124.521 347.438C124.668 347.808 124.815 348.179 125.109 348.623C125.404 348.253 125.551 347.808 125.698 347.438C125.772 347.068 125.845 346.623 125.845 346.253C125.845 345.883 125.772 345.438 125.698 345.068C125.551 344.623 125.404 344.253 125.109 343.883Z" fill="black"/>
<path d="M121.137 343.957C120.842 344.327 120.695 344.772 120.548 345.142C120.475 345.512 120.401 345.883 120.401 346.327C120.401 346.697 120.475 347.068 120.548 347.512C120.695 347.882 120.842 348.253 121.137 348.697C121.431 348.327 121.578 347.882 121.725 347.512C121.799 347.142 121.872 346.771 121.872 346.327C121.872 345.957 121.799 345.586 121.725 345.142C121.652 344.697 121.505 344.327 121.137 343.957Z" fill="black"/>
<path d="M117.017 344.031C116.723 344.475 116.576 344.846 116.502 345.216C116.428 345.586 116.428 345.957 116.428 346.401C116.428 346.771 116.502 347.142 116.649 347.512C116.796 347.882 116.943 348.253 117.311 348.623C117.605 348.253 117.753 347.808 117.826 347.438C117.9 347.068 117.9 346.623 117.9 346.253C117.9 345.883 117.826 345.512 117.679 345.142C117.532 344.772 117.311 344.401 117.017 344.031Z" fill="black"/>
<path d="M113.559 348.623C113.854 348.253 114.001 347.882 114.148 347.438C114.221 347.068 114.295 346.697 114.295 346.253C114.295 345.883 114.221 345.512 114.148 345.068C114.001 344.697 113.854 344.327 113.559 343.957C113.265 344.327 113.118 344.697 112.971 345.142C112.897 345.512 112.824 345.883 112.824 346.327C112.824 346.697 112.897 347.068 112.971 347.438C113.118 347.882 113.265 348.253 113.559 348.623Z" fill="black"/>
<path d="M108.557 348.697C108.924 348.327 109.072 348.03 109.292 347.66C109.439 347.29 109.513 346.919 109.587 346.549C109.66 346.179 109.66 345.734 109.587 345.364C109.513 344.994 109.439 344.549 109.145 344.179C108.777 344.549 108.63 344.92 108.409 345.29C108.262 345.66 108.189 346.031 108.115 346.401C108.042 346.771 108.115 347.142 108.115 347.586C108.189 347.882 108.336 348.253 108.557 348.697Z" fill="black"/>
<path d="M105.099 348.697C105.393 348.327 105.54 347.956 105.687 347.586C105.835 347.216 105.835 346.845 105.835 346.475C105.835 346.105 105.761 345.734 105.687 345.364C105.54 344.994 105.393 344.623 105.099 344.253C104.805 344.623 104.658 344.994 104.51 345.364C104.363 345.734 104.363 346.105 104.363 346.475C104.363 346.845 104.437 347.216 104.51 347.586C104.658 347.956 104.805 348.327 105.099 348.697Z" fill="black"/>
<path d="M101.347 344.253C101.053 344.623 100.906 344.92 100.758 345.216C100.685 345.512 100.611 345.883 100.611 346.179C100.611 346.475 100.685 346.845 100.758 347.142C100.906 347.438 101.053 347.808 101.347 348.105C101.641 347.734 101.788 347.438 101.935 347.142C102.009 346.845 102.083 346.475 102.083 346.179C102.083 345.883 102.009 345.512 101.935 345.216C101.788 344.846 101.641 344.549 101.347 344.253Z" fill="black"/>
<path d="M98.0364 348.771C98.3306 348.401 98.5513 348.03 98.6249 347.66C98.7721 347.29 98.772 346.919 98.8456 346.549C98.8456 346.179 98.8456 345.808 98.6985 345.438C98.6249 345.068 98.4778 344.697 98.1835 344.327C97.8892 344.697 97.6685 345.068 97.595 345.438C97.4478 345.808 97.4478 346.179 97.3743 346.549C97.3743 346.919 97.3743 347.29 97.5214 347.66C97.595 348.03 97.7421 348.401 98.0364 348.771Z" fill="black"/>
<path d="M95.4615 349.438C95.7558 348.993 95.9765 348.623 96.05 348.179C96.1972 347.734 96.1972 347.364 96.2707 346.919C96.2707 346.475 96.2707 346.105 96.1236 345.66C96.05 345.216 95.9029 344.846 95.6086 344.401C95.3143 344.846 95.0936 345.216 95.0201 345.66C94.8729 346.105 94.8729 346.475 94.7994 346.919C94.7994 347.364 94.7994 347.734 94.9465 348.179C95.0201 348.623 95.1672 349.067 95.4615 349.438Z" fill="black"/>
<path d="M61.8408 343.735C61.6201 344.475 61.6201 345.216 61.5466 345.957C61.473 346.697 61.3259 347.438 60.8845 347.956C60.5166 348.475 59.8545 348.845 59.1924 348.993C58.5303 349.141 57.7946 349.216 57.0589 349.216C54.1162 349.364 51.247 349.512 48.3043 349.586C45.3616 349.66 42.4924 349.66 39.6233 349.438C38.8876 349.364 38.1519 349.364 37.5634 349.216C37.2691 349.141 37.0484 348.993 36.9012 348.845C36.7541 348.697 36.607 348.549 36.5334 348.253C36.4598 347.956 36.3863 347.66 36.3863 347.29C36.3127 346.919 36.3127 346.623 36.3127 346.253C36.2391 345.586 36.3127 344.846 36.3863 344.179L35.4299 344.772C37.6369 345.438 39.9175 345.66 42.1982 345.586C44.4788 345.586 46.6858 345.29 48.8928 344.92C51.0999 344.549 53.2334 344.105 55.4404 343.809C57.6475 343.438 59.7809 343.29 62.0616 343.29C59.8545 342.994 57.6475 343.068 55.3668 343.142C53.1598 343.29 50.9528 343.586 48.7457 343.883C46.5387 344.105 44.4052 344.327 42.1982 344.327C40.0647 344.327 37.8576 344.031 35.8713 343.438C35.5034 343.29 35.062 343.512 34.9885 343.883C34.9885 343.957 34.9885 343.957 34.9885 344.031C34.9149 344.772 34.9149 345.586 34.9149 346.327C34.9149 346.697 34.9885 347.068 34.9885 347.512C35.062 347.882 35.062 348.253 35.2092 348.697C35.3563 349.141 35.577 349.586 36.0184 349.956C36.3863 350.327 36.8277 350.475 37.2691 350.623C38.1519 350.845 38.8876 350.845 39.6233 350.919C42.566 351.067 45.5087 350.993 48.4514 350.845C51.3942 350.697 54.3369 350.401 57.2061 350.03C57.9417 349.956 58.6774 349.808 59.4131 349.586C60.1488 349.364 60.8845 348.845 61.2523 348.179C61.6937 347.512 61.7673 346.697 61.7673 345.957C61.7673 345.216 61.7673 344.475 61.8408 343.735Z" fill="black"/>
<path d="M58.8246 349.364C59.266 348.993 59.5602 348.475 59.7809 347.956C60.0016 347.438 60.0752 346.845 60.0752 346.327C60.0752 345.809 60.0752 345.216 59.9281 344.697C59.7809 344.179 59.6338 343.661 59.266 343.142C58.9717 343.661 58.8246 344.179 58.751 344.697C58.6774 345.216 58.6038 345.734 58.6038 346.253C58.6038 346.771 58.6038 347.216 58.6038 347.734C58.6774 348.253 58.6774 348.771 58.8246 349.364Z" fill="black"/>
<path d="M55.2197 343.438C54.9254 343.957 54.7047 344.475 54.5576 344.994C54.4105 345.512 54.3369 346.031 54.3369 346.549C54.3369 347.586 54.4105 348.623 54.9254 349.734C55.2933 349.216 55.4404 348.697 55.5876 348.179C55.7347 347.66 55.8083 347.142 55.8083 346.623C55.8083 346.105 55.8083 345.586 55.7347 345.068C55.6611 344.549 55.514 343.957 55.2197 343.438Z" fill="black"/>
<path d="M51.1735 350.03C51.4677 349.512 51.6149 349.067 51.762 348.549C51.9092 348.03 51.9091 347.512 51.9827 347.068C51.9827 346.549 51.9827 346.031 51.8356 345.586C51.762 345.068 51.6149 344.549 51.3206 344.031C51.0263 344.549 50.8056 344.994 50.7321 345.512C50.5849 346.031 50.5849 346.549 50.5113 346.994C50.5113 347.512 50.5114 348.03 50.6585 348.475C50.7321 348.993 50.8792 349.512 51.1735 350.03Z" fill="black"/>
<path d="M47.4951 350.178C47.7893 349.734 48.01 349.29 48.1572 348.771C48.3043 348.327 48.3779 347.808 48.3779 347.364C48.3779 346.919 48.3779 346.401 48.3043 345.957C48.2307 345.512 48.0836 344.994 47.7893 344.549C47.4951 344.994 47.2744 345.512 47.1272 345.957C46.9801 346.401 46.9065 346.919 46.9065 347.364C46.9065 347.808 46.9065 348.327 46.9801 348.771C47.0537 349.216 47.2008 349.66 47.4951 350.178Z" fill="black"/>
<path d="M43.8902 350.252C44.1845 349.808 44.3316 349.364 44.4788 348.919C44.5523 348.475 44.6259 348.03 44.6259 347.586C44.6259 347.142 44.5523 346.697 44.4788 346.253C44.3316 345.808 44.1845 345.364 43.8902 344.92C43.5959 345.364 43.4488 345.808 43.3017 346.253C43.2281 346.697 43.1545 347.142 43.1545 347.586C43.1545 348.03 43.2281 348.475 43.3017 348.919C43.3752 349.364 43.5959 349.808 43.8902 350.252Z" fill="black"/>
<path d="M40.0647 350.178C40.4325 349.734 40.6532 349.364 40.8004 348.919C40.9475 348.475 41.0211 348.03 41.0946 347.66C41.1682 347.216 41.1682 346.771 41.0946 346.327C41.0211 345.883 40.9475 345.438 40.6532 344.92C40.2854 345.29 40.0647 345.734 39.9175 346.179C39.7704 346.623 39.6968 347.068 39.6233 347.512C39.5497 347.956 39.5497 348.401 39.6233 348.845C39.7704 349.216 39.844 349.66 40.0647 350.178Z" fill="black"/>
<path d="M37.2691 344.401C36.9748 344.846 36.8277 345.29 36.6805 345.734C36.607 346.179 36.5334 346.623 36.5334 347.068C36.5334 347.512 36.607 347.956 36.6805 348.401C36.8277 348.845 36.9748 349.29 37.2691 349.734C37.5634 349.29 37.7105 348.845 37.8576 348.401C37.9312 347.956 38.0048 347.512 38.0048 347.068C38.0048 346.623 37.9312 346.179 37.8576 345.734C37.7105 345.364 37.5634 344.92 37.2691 344.401Z" fill="black"/>
<path d="M35.6506 343.883C35.5034 343.068 35.2092 342.253 35.062 341.439C34.9149 340.624 35.2092 339.883 35.6506 339.217C36.5334 337.809 37.6369 336.624 38.8876 335.587C40.1382 334.55 41.536 333.736 43.0074 333.143C44.4788 332.551 46.0237 332.106 47.6422 331.958C49.2607 331.81 50.8792 331.884 52.3506 332.328C53.8219 332.773 55.2197 333.662 56.4704 334.698C57.0589 335.217 57.6475 335.809 58.3096 336.402C58.8981 336.995 59.4867 337.587 60.0752 338.18C61.1787 339.365 62.2087 340.846 62.0615 342.55C62.2822 341.735 62.2087 340.846 61.8408 340.031C61.5466 339.217 61.1052 338.476 60.5902 337.735C59.5602 336.328 58.4567 335.069 57.2796 333.884C56.029 332.625 54.5576 331.588 52.8655 330.995C51.1735 330.403 49.3343 330.329 47.6422 330.477C44.1109 330.773 40.8003 332.328 38.2255 334.698C36.9748 335.884 35.8713 337.291 35.062 338.846C34.8413 339.217 34.6942 339.661 34.6206 340.105C34.5471 340.55 34.6206 341.068 34.6942 341.439C34.9149 342.401 35.3563 343.142 35.6506 343.883Z" fill="black"/>
<path d="M119.739 333.662C119.665 333.291 119.592 332.995 119.371 332.773C119.224 332.551 119.003 332.328 118.783 332.18C118.562 332.032 118.341 331.958 118.047 331.884C117.753 331.81 117.458 331.81 117.091 331.958C117.164 332.328 117.238 332.625 117.458 332.847C117.605 333.069 117.826 333.291 118.047 333.439C118.268 333.587 118.488 333.662 118.783 333.736C119.003 333.736 119.298 333.81 119.739 333.662Z" fill="black"/>
<path d="M82.5135 182.195C80.8214 188.787 79.2765 195.453 77.8051 202.119C76.3338 208.785 75.0095 215.451 73.7589 222.191L72.0668 232.264C71.5518 235.597 70.9633 239.004 70.3747 242.337C69.1241 249.077 67.6527 255.669 66.1814 262.335L65.2985 266.113C65.225 266.557 65.0778 267.001 65.0778 267.52C65.0778 268.038 65.1514 268.705 65.4457 269.149C65.6664 269.594 65.9607 270.038 66.2549 270.334C66.8435 271.001 67.2849 271.668 67.2113 271.964C67.2113 272.186 67.1377 272.26 66.917 272.482C66.6963 272.705 66.4021 272.853 66.0342 273.075C65.6664 273.297 65.225 273.519 64.8571 273.89C64.4157 274.26 64.0479 274.927 63.9743 275.593C63.9007 276.334 64.195 276.926 64.4157 277.371C64.71 277.815 64.9307 278.185 65.225 278.556C65.4457 278.852 65.6664 279.222 65.8135 279.445C65.9607 279.741 65.9607 279.889 65.8871 280.037C65.8871 280.185 65.7399 280.333 65.4457 280.704C65.1514 281 64.7836 281.593 64.6364 282.111C64.3422 283.222 64.3422 284.111 64.3422 284.926L64.195 290.036C64.0479 293.443 63.9743 296.85 63.9008 300.257C63.8272 307.072 63.68 313.886 63.7536 320.7C63.7536 324.107 63.9743 327.588 64.5629 330.995C64.8571 332.699 65.3721 334.328 65.225 335.958C65.1514 336.772 64.9307 337.513 64.4893 338.18C64.0479 338.846 63.3858 339.439 62.5765 339.587C62.503 339.587 62.503 339.661 62.503 339.735C62.503 339.809 62.5765 339.809 62.6501 339.809C63.5329 339.735 64.3422 339.142 64.8571 338.476C65.4457 337.809 65.8135 336.92 65.9607 336.032C66.2549 334.254 65.8871 332.476 65.6664 330.847C65.2985 327.514 65.3721 324.107 65.4457 320.774C65.7399 313.96 66.0342 307.146 66.2549 300.331C66.3285 296.924 66.4021 293.517 66.4756 290.11L66.5492 285C66.5492 284.111 66.5492 283.296 66.6963 282.778C66.7699 282.481 66.8435 282.333 67.1377 281.963C67.3585 281.667 67.7999 281.148 67.947 280.408C68.0941 279.667 67.8734 279 67.6527 278.482C67.3585 277.963 67.0642 277.593 66.8435 277.297C66.3285 276.63 65.8871 276.038 65.9607 275.741C65.9607 275.593 66.0342 275.445 66.1814 275.223C66.4021 275.001 66.6963 274.853 67.0642 274.556C67.432 274.334 67.8734 274.038 68.2413 273.667C68.6827 273.297 68.9769 272.556 68.9769 271.89C68.9769 271.223 68.6827 270.631 68.3884 270.186C68.0941 269.742 67.7999 269.446 67.5056 269.149C67.2113 268.853 66.9906 268.557 66.8435 268.261C66.6963 267.964 66.6228 267.742 66.6228 267.446C66.6228 266.779 66.8435 265.89 66.9906 265.076L67.432 262.557C68.5355 255.817 69.7126 249.151 71.1104 242.411C71.7725 239.078 72.5818 235.745 73.3175 232.412L75.5981 222.413C77.0694 215.747 78.3201 209.081 79.4972 202.341C80.6743 195.601 81.7778 188.935 82.7342 182.121C82.7342 182.047 82.7342 181.973 82.6606 181.973C82.5871 182.121 82.5871 182.121 82.5135 182.195Z" fill="black"/>
<path d="M44.1109 186.861C43.5224 193.305 43.081 199.749 42.566 206.193L41.0946 225.524C40.1382 238.412 39.1819 251.225 38.1519 264.113C37.1955 277 36.092 289.814 34.9885 302.702L33.2964 321.959C33.0021 325.144 32.7079 328.403 32.7079 331.662C32.7079 334.921 33.0021 338.18 33.9585 341.216C33.1493 338.106 32.9286 334.847 33.0757 331.662C33.2228 328.477 33.6643 325.218 34.0321 322.033C34.7678 315.589 35.4299 309.219 36.092 302.776C37.4162 289.962 38.5197 277.074 39.5497 264.187C40.5061 251.299 41.4625 238.412 42.1982 225.524L43.2281 206.193C43.5224 199.749 43.8902 193.305 44.1109 186.861Z" fill="black"/>
<path d="M120.401 333.884C118.856 327.736 117.458 321.515 116.355 315.293C115.178 309.071 114.148 302.776 113.339 296.48C111.646 283.889 110.396 271.297 109.366 258.632L106.276 220.636L104.657 201.6C104.069 195.305 103.48 188.935 102.892 182.639C103.186 189.009 103.628 195.305 103.995 201.675L105.246 220.71C105.614 227.079 106.129 233.375 106.57 239.745L107.968 258.78C109.072 271.445 110.322 284.111 112.235 296.702C113.191 302.998 114.295 309.294 115.693 315.441C117.017 321.663 118.562 327.81 120.401 333.884Z" fill="black"/>
<path d="M75.8188 216.71C76.1131 220.339 76.5545 223.969 77.143 227.598C77.7316 231.227 78.3937 234.856 79.1294 238.412C79.865 241.967 80.7479 245.596 81.6307 249.151L83.0285 254.484C83.4699 256.262 83.7642 257.965 83.3227 259.595C83.102 260.409 82.8078 261.372 82.6606 262.335C82.5135 263.298 82.5135 264.261 82.5135 265.15C82.5871 267.001 82.6606 268.853 82.7342 270.631C82.9549 274.26 83.2492 277.963 83.5434 281.593C83.9113 285.222 84.3527 288.925 84.7941 292.554C85.0148 294.406 85.3091 296.184 85.7505 298.035C86.1919 299.887 86.854 301.665 87.8104 303.368L87.9575 302.405C87.2954 302.924 86.5597 303.516 85.8976 304.183C85.6033 304.553 85.3091 304.924 85.0884 305.368C84.8677 305.812 84.7205 306.331 84.647 306.849C84.5734 307.886 84.7941 309.071 85.7505 309.812C86.2655 310.182 86.7069 310.33 87.0747 310.479C87.2218 310.553 87.369 310.627 87.5161 310.701C87.5897 310.775 87.5897 310.775 87.6633 310.849C87.6633 310.923 87.6633 310.923 87.6633 310.997C87.5897 311.071 87.5161 311.219 87.369 311.367C87.0747 311.664 86.7069 311.886 86.4126 312.33C86.0448 312.775 85.8241 313.515 85.9712 314.108C86.1183 314.7 86.4126 315.145 86.6333 315.515C86.854 315.886 87.1483 316.256 87.2954 316.552C87.4426 316.848 87.5897 317.219 87.6633 317.589C87.8104 318.33 87.884 319.293 88.0311 320.107C88.9139 326.996 89.9439 333.884 90.9003 340.698C90.9003 340.92 91.1945 341.142 91.4152 341.068C91.4888 341.068 91.5624 341.068 91.5624 340.994C95.6086 338.624 99.802 336.624 104.216 334.995C108.63 333.365 113.118 332.18 117.753 331.365C113.118 331.958 108.483 333.069 103.995 334.55C99.5077 336.032 95.1672 337.957 91.0474 340.328L91.7095 340.698C90.8267 333.81 90.091 326.921 89.1346 320.033C88.9875 319.144 88.9139 318.33 88.7668 317.441C88.6932 316.997 88.5461 316.478 88.3254 316.034C88.1047 315.589 87.8104 315.219 87.5897 314.849C87.369 314.478 87.1483 314.182 87.1483 313.886C87.0747 313.589 87.1483 313.441 87.2954 313.219C87.5161 312.997 87.8104 312.701 88.1782 312.404C88.3254 312.256 88.5461 312.034 88.6932 311.738C88.8404 311.441 88.9139 310.997 88.8404 310.627C88.7668 310.256 88.5461 309.886 88.2518 309.738C88.0311 309.516 87.7368 309.442 87.5161 309.294C87.0747 309.071 86.7069 308.997 86.4862 308.775C86.0448 308.405 85.8241 307.738 85.8976 306.997C85.9712 306.331 86.339 305.664 86.854 305.072C87.369 304.479 88.0311 303.961 88.6932 303.442C88.9875 303.22 89.0611 302.85 88.9139 302.479C87.1483 299.443 86.6333 295.813 86.1183 292.258C85.6034 288.629 85.1619 285 84.7941 281.37C84.4263 277.741 84.132 274.112 83.9113 270.483C83.7641 268.631 83.6906 266.853 83.617 265.002C83.617 264.113 83.617 263.224 83.6906 262.335C83.8377 261.52 84.0584 260.632 84.2791 259.669C84.4998 258.706 84.5734 257.743 84.4263 256.78C84.3527 255.817 84.132 254.929 83.9113 253.966L82.4399 248.707C81.4835 245.152 80.6007 241.671 79.7179 238.041C78.2465 231.153 76.8487 223.969 75.8188 216.71Z" fill="black"/>
<path d="M99.802 290.332C98.8456 291.443 97.9628 292.554 97.08 293.665C96.1972 294.776 95.2408 295.813 94.2844 296.85C93.328 297.887 92.3716 298.924 91.4152 299.961C90.4589 300.998 89.4289 301.961 88.3989 303.072C89.7232 302.553 91.0474 301.739 92.1509 300.85C93.328 299.961 94.4315 298.998 95.3879 297.887C96.3443 296.776 97.2271 295.591 97.9628 294.332C98.7721 293.073 99.3606 291.74 99.802 290.332Z" fill="black"/>
<path d="M99.4342 298.924C98.1099 300.628 96.9328 302.405 95.5351 304.035C94.8729 304.85 94.1373 305.59 93.328 306.257C92.5188 306.923 91.7095 307.59 90.8267 308.331C90.606 308.553 90.3853 308.701 90.2381 308.923C90.1646 308.997 90.0174 309.145 89.8703 309.294C89.7232 309.442 89.6496 309.664 89.576 309.96C89.5025 310.256 89.6496 310.775 89.9439 310.923C90.2381 311.145 90.3853 311.219 90.5324 311.219C90.9003 311.293 91.2681 311.367 91.5624 311.367C92.2245 311.293 92.7395 311.145 93.2544 310.997C93.4751 310.923 93.7694 310.849 93.9166 310.849C93.9901 310.849 94.0637 310.849 94.0637 310.849C94.0637 310.849 93.9901 310.775 94.0637 310.775C94.0637 310.775 94.1373 310.923 94.0637 311.071C93.9901 311.219 93.843 311.367 93.6223 311.59C93.2544 311.96 92.8866 312.404 92.5188 312.775C91.7831 313.589 91.0474 314.33 90.2381 315.071C91.1945 314.552 92.1509 313.96 93.0337 313.367C93.4751 313.071 93.9166 312.701 94.2844 312.33C94.5051 312.182 94.7258 311.96 94.9465 311.664C95.1672 311.367 95.3143 310.849 95.0936 310.405C95.0201 310.182 94.7994 309.886 94.5051 309.812C94.2108 309.664 93.9901 309.664 93.843 309.738C93.4751 309.738 93.2544 309.812 92.9602 309.886C92.4452 309.96 91.9302 310.108 91.4888 310.108C91.2681 310.108 91.121 310.108 90.9003 310.034C90.8267 310.034 90.7531 309.96 90.8267 310.034C90.9003 310.108 90.9738 310.256 90.9003 310.33C90.8267 310.405 91.3417 309.886 91.7095 309.59C92.4452 308.849 93.328 308.257 94.1373 307.442C94.9465 306.627 95.6822 305.812 96.2707 304.924C97.6685 302.924 98.6249 300.998 99.4342 298.924Z" fill="black"/>
<path d="M61.1052 303.294C60.3695 307.368 59.7809 311.516 59.1924 315.589L58.3096 321.737C58.1624 322.774 58.0153 323.959 58.4567 325.144C58.8981 326.255 59.6338 327.144 60.2959 327.884C60.958 328.699 61.5466 329.44 61.6937 330.254C61.6937 330.477 61.7673 330.625 61.7673 330.847C61.7673 331.069 61.6937 331.143 61.7673 331.069L61.8408 330.995C61.8408 330.995 61.8408 330.995 61.7673 330.995C61.6201 330.995 61.473 330.847 61.3259 330.773C59.7074 329.662 58.1624 328.255 56.4704 326.996C55.6611 326.329 54.7047 325.736 53.8219 325.218C52.8655 324.699 51.8356 324.329 50.7321 324.107C49.6285 323.885 48.525 323.811 47.4215 323.959C46.318 324.107 45.2144 324.551 44.3316 325.218C44.1109 325.366 44.0374 325.736 44.1845 325.959C44.1845 326.033 44.2581 326.033 44.3316 326.107C45.803 327.218 47.3479 328.255 48.8193 329.366L49.04 328.625C47.3479 328.699 45.7294 328.995 44.1109 329.44C42.4924 329.884 40.9475 330.477 39.4761 331.217C41.0211 330.625 42.6396 330.18 44.2581 329.884C45.8766 329.588 47.4951 329.514 49.1136 329.514C49.3343 329.514 49.555 329.366 49.555 329.069C49.555 328.921 49.4814 328.847 49.4078 328.773C48.01 327.588 46.5387 326.477 45.0673 325.292V326.181C46.6122 325.144 48.6721 324.996 50.5113 325.514C52.4241 325.959 54.1162 326.996 55.6611 328.255C57.2796 329.44 58.8246 330.847 60.5902 332.032C60.8109 332.18 61.1052 332.402 61.473 332.476C61.6937 332.551 61.9144 332.551 62.1351 332.551C62.4294 332.551 62.7237 332.402 62.8708 332.18C63.3122 331.736 63.3122 331.291 63.3122 330.995C63.3122 330.699 63.3122 330.329 63.2386 330.032C62.9444 328.773 62.1351 327.884 61.473 327.07C60.8109 326.255 60.1488 325.514 59.8545 324.699C59.4867 323.885 59.5602 322.996 59.7074 321.959L60.2959 315.737C60.5166 311.59 60.8109 307.442 61.1052 303.294Z" fill="black"/>
<path d="M55.9554 63.0956C54.999 63.2437 54.0426 63.3178 53.1598 63.614C52.2034 63.9103 51.3942 64.5028 50.7321 65.2435C49.4814 66.7989 48.525 68.4284 47.5686 70.1319C46.6122 71.8354 45.803 73.539 45.0673 75.3906C44.3316 77.1682 43.6695 79.0199 43.1545 80.8716C43.081 81.2419 43.2281 81.6123 43.596 81.6863C43.7431 81.7604 43.8902 81.7604 43.9638 81.6863L51.247 79.4643C51.6149 79.3162 52.0563 79.2421 52.4241 79.168L52.6448 79.094C52.5713 79.094 52.4977 79.094 52.3506 79.0199C52.1298 78.9458 51.9827 78.6496 51.9827 78.5755C52.0563 78.6496 52.0563 78.7236 52.1299 78.7977C52.2034 78.8718 52.277 78.9459 52.277 78.9459L52.3506 79.0199L52.792 79.4643C55.2933 81.7604 57.8682 84.0565 60.3695 86.2785C60.6638 86.5007 61.0316 86.5007 61.2523 86.2044C61.3994 86.0563 61.473 85.76 61.3994 85.6119C60.443 82.3529 59.4867 79.094 58.5303 75.835L57.2061 70.9466L55.8818 65.9842C56.1025 67.6877 56.3968 69.3172 56.6911 71.0207C56.9853 72.7242 57.2796 74.3537 57.6475 76.0572C58.3831 79.3902 59.1924 82.7233 60.0752 85.9822L61.1052 85.3156L53.6012 78.4274L53.1598 77.983V78.057C53.1598 77.983 52.9391 77.6867 52.7184 77.6127C52.5713 77.5386 52.4977 77.5386 52.4241 77.5386H52.277C52.0563 77.5386 51.9827 77.6127 51.9092 77.6127C51.4677 77.7608 51.0999 77.8349 50.6585 77.983L48.2307 78.7236C46.6122 79.2421 44.9937 79.7606 43.3752 80.279L44.2581 81.0938C44.773 79.2421 45.3616 77.4645 46.0237 75.6869C46.6858 73.9093 47.4215 72.1317 48.2307 70.4282C48.6722 69.5394 49.04 68.7246 49.555 67.9099C49.9964 67.0952 50.4378 66.2064 51.0263 65.4657C51.5413 64.725 52.277 64.1325 53.1598 63.7622C54.1162 63.54 55.0726 63.3178 55.9554 63.0956Z" fill="#174075"/>
<path d="M75.3774 62.7252C77.2901 63.2437 79.2029 63.7622 80.8214 64.725C82.5135 65.6879 83.7642 67.1692 84.7941 68.7987C85.8241 70.4282 86.7804 72.1317 87.7368 73.9093C88.6196 75.6869 89.5025 77.3904 90.3853 79.168L91.1945 78.1311C89.7967 77.6867 88.3989 77.2423 87.0747 76.7238C86.4126 76.4276 85.7505 76.1313 85.0884 75.835C84.7205 75.6869 84.3527 75.5388 83.9113 75.3906C83.4699 75.2425 82.9549 75.2425 82.4399 75.3906C81.9249 75.5388 81.5571 75.835 81.2628 76.0572C80.9686 76.2794 80.6743 76.5757 80.38 76.872C79.7915 77.3904 79.3501 78.057 78.8351 78.6496C77.9523 79.9087 77.2902 81.39 76.9959 82.9454H77.9523C77.3637 81.1678 76.8487 79.4643 76.1866 77.7608L74.3474 72.5761C74.7153 74.3537 75.1567 76.1313 75.5981 77.9089C76.0395 79.6865 76.5545 81.4641 76.9223 83.1677C76.9959 83.4639 77.2166 83.6121 77.5109 83.538C77.658 83.4639 77.8051 83.3899 77.8787 83.1677C78.2465 81.8345 78.9087 80.5012 79.7915 79.3902C80.2329 78.7977 80.6743 78.2792 81.1893 77.8348C81.7042 77.3904 82.2928 76.872 82.7342 76.7979C83.1756 76.7238 83.7641 76.872 84.4263 77.1682C85.0884 77.4645 85.7505 77.8348 86.4862 78.1311C87.884 78.7236 89.2818 79.2421 90.7531 79.6124C91.121 79.6865 91.5624 79.4643 91.6359 79.094C91.7095 78.9458 91.6359 78.7237 91.5624 78.5755C90.6796 76.7979 89.7967 75.0203 88.7668 73.3168C87.8104 71.5392 86.7804 69.8356 85.5298 68.2062C84.3527 66.5767 82.8078 65.0954 80.9686 64.2066C79.2765 63.3178 77.2901 62.9474 75.3774 62.7252Z" fill="#174075"/>
</g>
<defs>
<linearGradient id="paint0_linear_2987_7482" x1="137.074" y1="175.946" x2="0.920643" y2="175.946" gradientUnits="userSpaceOnUse">
<stop stop-color="#0ABBEF"/>
<stop offset="0.2385" stop-color="#0D9BCF"/>
<stop offset="0.756" stop-color="#145A8E"/>
<stop offset="1" stop-color="#174075"/>
</linearGradient>
</defs>
</svg>
