<svg width="196" height="185" viewBox="0 0 196 185" fill="none" xmlns="http://www.w3.org/2000/svg">
<g filter="url(#filter0_d_2932_7757)">
<circle cx="95" cy="90" r="90" fill="#AFE8F8"/>
</g>
<path d="M21.0904 19.5451C24.1378 20.2078 27.1853 20.8704 30.2328 21.4006C39.1102 23.1235 47.9876 24.8464 56.865 26.7019C65.7424 28.4248 74.6198 30.2802 83.4972 32.0032C92.7721 33.8586 102.18 35.7141 111.454 37.437C120.862 39.2924 130.269 41.1479 139.677 43.0034C149.482 44.9914 159.286 46.8468 169.091 48.8348C177.041 50.4252 184.991 52.0156 193.074 53.4734C195.061 53.871 195.459 54.4012 195.194 56.3892C194.796 61.1603 194.531 65.9315 194.134 70.7027C193.736 76.6666 193.206 82.498 192.809 88.462C192.544 92.8356 192.279 97.2091 191.881 101.583C191.616 106.221 191.219 110.993 190.821 115.631C190.556 120.005 190.291 124.378 189.894 128.619C189.629 133.125 189.364 137.632 188.966 142.005C188.834 143.993 188.304 144.258 186.316 144.126C178.631 143.596 170.946 143.198 163.261 142.668C154.384 142.138 145.507 141.475 136.629 140.812C130.402 140.415 124.174 140.017 117.947 139.62C111.719 139.222 105.625 138.692 99.3971 138.294C93.1696 137.897 87.0747 137.499 80.8473 137.101C74.6198 136.704 68.5249 136.306 62.2974 135.776C57.66 135.511 53.0225 135.246 48.3851 134.848C43.3501 134.583 38.3152 134.186 33.2802 133.788C28.6428 133.523 24.0053 133.125 19.3679 132.86C17.9104 132.86 16.5854 132.86 15.3929 131.403C14.3329 130.21 12.6105 129.547 11.418 128.222V121.993C11.948 121.86 11.683 121.33 11.683 121.065C11.8155 110.86 12.0804 100.655 12.2129 90.45C12.4779 69.5099 12.6105 48.5697 12.743 27.6296C12.743 26.0392 13.1404 24.8464 14.3329 23.6536C15.9229 22.0632 17.6454 20.4728 18.9704 18.6174C19.3679 18.6174 19.8979 18.6174 20.2954 18.6174L21.0904 19.5451ZM20.6929 67.1243C20.4279 69.3773 20.4279 71.7629 20.2954 74.016C20.2954 77.9919 20.1629 81.9679 20.0304 85.9439C19.7654 92.8356 19.7654 99.7273 19.6329 106.619C19.6329 107.017 19.6329 107.414 19.6329 107.812C19.5004 115.234 19.3679 122.655 19.1029 130.077C19.1029 130.74 19.3679 131.005 20.0304 131.005C25.1978 131.27 30.3653 131.668 35.5327 132.065C38.8452 132.33 42.0251 132.463 45.3376 132.595C50.5051 132.993 55.6725 133.258 60.9724 133.656C64.1524 133.921 67.1999 134.053 70.3799 134.186C75.1498 134.451 80.0523 134.848 84.8222 135.246C88.2672 135.511 91.5796 135.644 95.0246 135.909C100.192 136.306 105.36 136.571 110.659 136.969C113.839 137.234 116.887 137.366 120.067 137.499C124.837 137.764 129.739 138.162 134.509 138.559C137.954 138.824 141.267 138.957 144.712 139.222C150.012 139.62 155.179 139.885 160.479 140.282C163.791 140.547 167.236 140.812 170.549 141.077C173.729 141.342 176.776 141.475 179.956 141.608C182.076 141.74 184.064 141.873 186.184 142.005C186.581 142.005 186.979 142.138 186.979 141.475C187.111 138.957 187.509 136.439 187.376 133.788C187.641 131.403 187.906 129.017 187.774 126.631C188.304 122.788 188.436 118.812 188.701 114.836C188.834 112.45 189.099 110.065 189.231 107.679C189.629 102.51 189.894 97.3417 190.291 92.3054C190.689 85.6788 191.219 79.0522 191.616 72.4256C192.014 67.3893 192.279 62.2206 192.676 57.1843C192.676 56.3891 192.676 56.1241 191.749 55.9915C188.436 55.4614 185.124 54.6662 181.679 54.1361C167.634 51.3529 153.722 48.5697 139.677 45.9191C136.497 45.2564 133.317 44.5937 130.269 44.0636C119.934 42.0756 109.599 39.9551 99.2646 37.9671C97.5421 37.5695 95.6871 36.9069 93.8321 37.1719C92.2421 36.2442 90.3872 36.2442 88.6647 35.9791C88.3997 35.9791 88.1347 35.7141 87.7372 35.7141C85.0872 35.3165 82.4372 34.9189 79.7873 34.3888C70.5123 32.2682 61.2374 30.5453 51.9625 28.6898C42.1576 26.7019 32.4853 24.8464 22.6804 22.8584C21.6204 22.5933 21.2229 22.7259 21.2229 23.9187C21.0904 32.7983 20.8254 41.678 20.6929 50.5577C20.6929 54.4011 20.5604 58.2446 20.4279 61.9555C20.4279 63.6784 20.1629 65.5339 20.4279 67.2568L20.6929 67.1243Z" fill="#040404"/>
<path d="M179.824 141.475C176.644 141.342 173.597 141.077 170.417 140.945C167.104 140.68 163.659 140.415 160.347 140.15C155.047 139.752 149.879 139.487 144.579 139.089C141.134 138.824 137.822 138.692 134.377 138.427C129.607 138.162 124.705 137.764 119.935 137.366C116.755 137.101 113.707 136.969 110.527 136.836C105.36 136.439 100.192 136.174 94.8924 135.776C91.4474 135.511 88.135 135.379 84.69 135.113C79.9201 134.848 75.0176 134.451 70.2477 134.053C67.0677 133.788 64.0202 133.656 60.8403 133.523C55.6728 133.125 50.5054 132.86 45.2054 132.463C41.893 132.198 38.713 132.065 35.4005 131.933C30.2331 131.535 25.0656 131.27 19.8982 130.872C19.2357 130.872 18.9707 130.607 18.9707 129.945C19.1032 122.523 19.3682 115.101 19.5007 107.679C19.5007 107.282 19.5007 106.884 19.5007 106.486C19.5007 99.5947 19.6332 92.703 19.8982 85.8113C19.8982 81.8354 20.0307 77.8594 20.1632 73.8834C20.5607 73.6184 20.6932 73.2208 20.9582 72.8232C22.0182 71.3653 22.6807 69.6424 23.8731 68.1845C23.8731 68.5821 23.8731 69.1123 23.8731 69.5099C23.7406 74.4136 23.4757 79.1847 23.3432 84.0884C23.0782 90.7151 22.9457 97.4742 22.6807 104.101C22.6807 107.679 22.4157 111.39 22.2832 114.969C22.1507 118.812 22.0182 122.655 21.8857 126.366C21.8857 127.559 22.1507 128.354 23.6082 128.354C26.9206 128.487 30.3656 128.884 33.6781 129.017C37.918 129.282 42.158 129.547 46.2654 129.945C51.9629 130.342 57.5278 130.872 63.2252 131.27C67.5977 131.535 72.1026 131.8 76.4751 132.198C83.365 132.728 90.255 133.258 97.1449 133.788C101.517 134.053 106.022 134.318 110.395 134.716C117.285 135.246 124.042 135.776 130.932 136.306C136.629 136.704 142.327 137.101 148.157 137.499C156.637 138.162 165.117 138.692 173.597 139.354C175.849 139.487 178.234 139.487 180.487 140.017C180.487 140.68 179.692 140.945 179.427 141.475H179.824Z" fill="#606060"/>
<path d="M139.809 45.7863C153.854 48.5695 167.766 51.3527 181.811 54.0033C185.123 54.666 188.436 55.3286 191.881 55.8588C192.676 55.9913 192.941 56.3889 192.808 57.0516C192.411 62.0878 192.146 67.2566 191.748 72.2928C191.351 78.9195 190.821 85.5461 190.423 92.1727C190.026 97.3415 189.761 102.51 189.363 107.546C189.231 109.932 188.966 112.318 188.833 114.703C187.906 115.631 186.846 116.426 185.918 117.354C185.918 116.426 185.918 115.498 185.918 114.703C186.183 111.39 186.448 108.077 186.713 104.763C186.978 100.39 187.243 96.0161 187.641 91.6426C188.038 85.4135 188.568 79.1845 188.966 72.9555C189.231 69.5097 189.363 65.9312 189.628 62.4854C189.893 59.7022 189.363 59.1721 186.581 58.907C186.316 58.907 185.918 58.907 185.653 58.7745C173.066 56.2564 160.479 53.6058 147.891 51.0876C144.446 50.425 140.869 49.8948 137.424 48.8346C138.086 47.6418 139.411 46.9791 140.206 45.7863H139.809Z" fill="#606060"/>
<path d="M20.5602 61.9551C20.5602 58.1116 20.6927 54.2682 20.8252 50.5573C20.9577 41.6776 21.2227 32.7979 21.3552 23.9183C21.3552 22.7255 21.7527 22.5929 22.8127 22.858C32.6176 24.846 42.29 26.7015 52.0949 28.6894C61.3698 30.5449 70.6447 32.2678 79.9196 34.3883C82.5696 35.051 85.2196 35.3161 87.8695 35.7137C88.1345 35.7137 88.3995 35.8462 88.797 35.9787C87.8696 36.9065 86.677 37.5691 85.7496 38.6294C84.8221 38.6294 84.0271 38.3643 83.0996 38.0992C70.3797 35.4486 57.6599 32.9305 44.94 30.2798C39.11 29.087 33.4126 27.8942 27.4501 26.9665C25.5952 26.7014 25.4627 26.9665 25.3302 28.6894C25.3302 32.6654 25.1977 36.7739 24.9327 40.7499C24.6677 45.7861 24.9327 50.6898 24.2702 55.7261C23.7402 55.7261 23.7402 56.3887 23.4752 56.7863C22.4152 58.5093 21.6202 60.3647 20.4277 61.9551H20.5602Z" fill="#CEC8C8"/>
<path d="M139.81 45.7864C139.147 46.9792 137.822 47.6419 137.027 48.8347C136.762 48.8347 136.365 48.9672 136.1 48.8347C127.09 46.7142 118.08 45.1238 109.07 43.2683C103.373 42.0755 97.8078 40.8827 92.1104 39.6899C92.1104 39.0273 92.5078 38.6297 92.7728 38.2321C93.1703 37.8345 93.8328 37.5694 93.9653 36.9068C95.8203 36.6417 97.5428 37.3044 99.3978 37.702C109.733 39.6899 120.068 41.8105 130.402 43.7984C133.582 44.4611 136.762 45.1238 139.81 45.6539V45.7864Z" fill="#CEC8C8"/>
<path d="M185.654 117.487C186.582 116.559 187.642 115.764 188.569 114.836C188.304 118.812 188.172 122.656 187.642 126.632C186.449 127.029 186.184 128.62 184.727 128.62C184.727 126.366 184.859 124.113 185.124 121.86C185.257 120.403 185.124 118.945 185.522 117.487H185.654Z" fill="#CCC6C6"/>
<path d="M179.824 141.474C180.089 140.944 180.884 140.811 180.884 140.016C182.606 139.486 184.461 139.089 184.329 136.703C184.329 136.703 184.329 136.57 184.329 136.438C185.521 135.908 186.051 134.45 187.111 133.787C187.111 136.305 186.846 138.824 186.714 141.474C186.714 142.137 186.316 142.004 185.919 142.004C183.799 141.872 181.811 141.739 179.691 141.607L179.824 141.474Z" fill="#CCC6C6"/>
<path d="M20.5605 61.9557C21.753 60.3654 22.548 58.5099 23.608 56.787C23.873 56.3894 23.873 55.8593 24.403 55.7267C24.8005 58.1123 24.403 60.4979 24.2705 62.751C23.4755 62.8835 23.2105 63.5461 22.813 64.0763C22.1505 65.1365 21.753 66.3293 20.6931 67.1245C20.4281 65.4016 20.6931 63.6787 20.6931 61.8232L20.5605 61.9557Z" fill="#626262"/>
<path d="M20.6924 67.1247C21.7524 66.3295 22.1499 65.1367 22.8124 64.0765C23.2099 63.5464 23.4749 62.8837 24.2699 62.7512C24.2699 64.6066 24.4024 66.4621 24.0049 68.3175C22.8124 69.7754 22.0174 71.3658 21.0899 72.9562C20.8249 73.3538 20.6924 73.7514 20.2949 74.0164C20.2949 71.7634 20.2949 69.3778 20.6924 67.1247Z" fill="#CCC6C6"/>
<path d="M187.244 133.788C186.184 134.583 185.654 135.908 184.461 136.438C184.064 133.788 184.726 131.27 184.859 128.619C186.184 128.619 186.581 127.029 187.774 126.631C187.774 129.017 187.509 131.402 187.376 133.788H187.244Z" fill="#626262"/>
<path d="M93.9643 37.0396C93.9643 37.7022 93.1693 37.9673 92.7718 38.3649C92.3743 38.7625 91.9768 39.1601 92.1093 39.8227C89.9893 39.4251 87.8693 39.1601 85.8818 38.4974C86.6768 37.4372 88.0018 36.7745 88.9293 35.8468C90.6518 36.1118 92.5068 36.1118 94.0968 37.0396H93.9643Z" fill="#626262"/>
<path d="M85.7497 38.4973C87.8697 39.16 89.9897 39.4251 91.9772 39.8227C97.6746 41.0155 103.24 42.2083 108.937 43.401C117.947 45.2565 127.089 46.9794 135.967 48.9674C136.232 48.9674 136.629 48.9674 136.894 48.9674C140.339 50.0277 143.917 50.5578 147.362 51.2205C159.949 53.8711 172.536 56.3892 185.124 58.9074C185.389 58.9074 185.786 58.9074 186.051 59.0399C188.834 59.305 189.364 59.9676 189.099 62.6183C188.834 66.0641 188.569 69.6425 188.436 73.0883C188.039 79.3173 187.509 85.5464 187.111 91.7754C186.846 96.149 186.581 100.523 186.184 104.896C185.919 108.209 185.654 111.523 185.389 114.836C185.389 115.764 185.389 116.692 185.389 117.487C184.859 118.945 185.124 120.402 184.991 121.86C184.726 124.113 184.726 126.366 184.594 128.619C184.461 131.27 183.931 133.788 184.196 136.439C184.196 136.439 184.196 136.571 184.196 136.704C184.196 139.222 182.474 139.487 180.751 140.017C178.499 139.487 176.114 139.62 173.861 139.355C165.381 138.692 156.902 138.029 148.422 137.499C142.724 137.102 137.027 136.704 131.197 136.306C124.307 135.776 117.549 135.246 110.66 134.716C106.287 134.451 101.782 134.186 97.4096 133.788C90.5197 133.258 83.6298 132.728 76.7398 132.198C72.3674 131.933 67.8624 131.668 63.49 131.27C57.7925 130.873 52.2276 130.342 46.5302 129.945C42.2902 129.68 38.0502 129.415 33.9428 129.017C30.6303 128.752 27.1853 128.487 23.8729 128.354C22.4154 128.354 22.1504 127.559 22.1504 126.366C22.1504 122.523 22.2829 118.68 22.5479 114.969C22.5479 111.39 22.8129 107.679 22.9454 104.101C23.2104 97.4743 23.3429 90.7152 23.6079 84.0885C23.7404 79.1848 24.0054 74.4137 24.1379 69.51C24.1379 69.1124 24.1379 68.5822 24.1379 68.1846C24.6679 66.3292 24.4029 64.4737 24.4029 62.6183C24.4029 60.2327 24.9329 57.8471 24.5354 55.5941C25.0654 50.6903 24.9329 45.6541 25.1979 40.6179C25.3304 36.6419 25.4629 32.5334 25.5954 28.5574C25.5954 26.7019 25.8604 26.5694 27.7153 26.8345C33.5453 27.7622 39.3752 28.955 45.2052 30.1478C57.925 32.6659 70.6449 35.3166 83.3648 37.9672C84.2923 38.0998 85.0873 38.4973 86.0147 38.4973H85.7497ZM101.782 132.33C102.18 132.33 102.71 132.463 103.107 132.595C109.864 133.126 116.622 133.523 123.247 134.053C130.137 134.583 137.159 134.981 144.049 135.511C152.794 136.174 161.539 136.704 170.284 137.367C173.861 137.632 177.571 137.897 181.149 138.294C182.076 138.294 182.076 138.294 182.076 137.499C182.209 134.318 182.474 131.138 182.739 127.957C183.666 115.896 184.461 103.703 185.389 91.6429C186.051 81.968 186.581 72.4257 187.641 62.7508C187.641 61.4255 187.376 60.8953 186.184 60.7628C185.919 60.7628 185.654 60.6303 185.389 60.6303C165.381 56.5218 145.507 52.5458 125.499 48.4373C124.969 48.3047 124.704 48.4373 124.307 48.8349C120.994 52.1482 117.417 55.1965 113.972 58.3772C113.574 58.1122 113.707 57.8471 113.972 57.582C114.369 57.0519 114.899 56.5218 115.297 56.1242C117.019 54.1362 119.007 52.4133 120.597 50.1602C121.657 49.6301 122.187 48.7024 122.982 47.9072C121.259 47.5096 119.537 47.2445 117.947 46.8469C117.549 46.8469 117.019 46.7144 116.754 47.112C116.224 47.7746 115.562 48.3048 115.032 48.9674C114.767 49.1 114.502 49.365 114.237 49.4975C109.467 54.1362 104.432 58.6423 99.1321 62.6183C98.3371 63.1484 97.6746 63.9436 96.4821 64.0761C96.4821 63.546 97.0121 63.2809 97.4096 63.0159C102.71 57.9796 108.01 52.9434 113.309 47.9072C113.839 47.377 114.369 46.9794 114.767 46.3168C114.104 46.0517 113.309 45.9192 112.647 45.9192C112.647 45.9192 112.382 45.7866 112.249 45.6541C96.6146 42.4733 80.9798 39.2925 65.345 36.1118C53.1551 33.5936 41.0977 31.0755 29.0403 28.5574C26.9204 28.1598 27.1854 28.0273 27.0529 30.1478C26.9204 35.8467 26.6554 41.5456 26.3904 47.2445C25.8604 61.8231 25.3304 76.4016 24.8004 90.9802C24.5354 97.7394 24.2704 104.499 24.1379 111.125C24.0054 115.896 23.8729 120.535 23.7404 125.306C23.7404 126.366 24.0054 126.897 25.1979 126.897C28.2453 127.029 31.2928 127.294 34.3403 127.559C40.1702 127.957 46.1326 128.354 51.9626 128.885C57.5275 129.282 62.96 129.68 68.5249 130.077C74.3549 130.475 80.0523 130.873 85.8822 131.27C86.2797 131.27 86.8097 131.535 87.0747 131.005C87.4722 130.74 88.0022 130.475 88.3997 130.077C91.1822 127.957 93.8322 125.836 97.0121 124.378C97.5421 125.041 96.7471 125.041 96.6146 125.306C95.4222 126.631 93.6997 127.294 92.7722 128.885C91.3147 129.282 90.6522 130.475 89.1947 131.403C91.4472 131.535 93.4347 131.8 95.4222 131.933C95.6872 131.933 95.9522 131.933 96.0847 131.933C96.8796 131.005 98.0721 130.607 98.7346 129.68C101.252 127.957 103.637 126.234 106.155 124.511C106.552 124.246 106.817 123.981 107.347 124.113C104.697 127.029 101.517 129.415 98.4696 132.198C99.6621 132.463 100.59 132.595 101.65 132.463L101.782 132.33Z" fill="#080808"/>
<path d="M120.596 50.027C119.006 52.1475 117.019 54.0029 115.296 55.9909C114.899 56.5211 114.369 57.0512 113.972 57.4488C113.707 57.7139 113.574 57.9789 113.972 58.244C113.972 58.6416 113.442 59.0392 113.972 59.3042C114.369 59.5693 114.634 59.3043 114.899 59.0392C115.296 58.7741 115.694 58.5091 116.091 58.1115C118.609 55.9909 120.861 53.6053 123.246 51.3523C123.644 50.9547 123.909 50.5571 124.439 50.4246C124.704 50.4246 124.969 50.6896 125.234 50.6896C144.579 54.5331 163.923 58.5091 183.401 62.3525C185.786 62.8826 185.786 62.8826 185.521 65.2682C185.521 65.2682 185.521 65.2682 185.521 65.4008C185.123 70.7021 184.593 76.1359 184.196 81.4372C183.931 85.5457 183.666 89.7867 183.268 93.8952C182.871 98.6664 182.606 103.305 182.208 108.076C181.943 110.859 181.811 113.643 181.678 116.426C181.281 122.257 180.751 128.089 180.353 134.053C180.353 135.113 180.088 135.51 178.896 135.378C173.993 134.98 169.091 134.583 164.321 134.318C159.419 134.053 154.384 133.655 149.481 133.257C142.194 132.595 134.774 132.197 127.486 131.534C124.306 131.269 121.126 131.137 117.946 130.872C113.309 130.474 108.672 129.944 104.034 129.812C104.034 129.281 104.564 129.016 104.962 128.619C106.817 126.631 108.804 124.775 110.792 122.787C111.189 122.39 111.719 121.992 111.189 121.462C110.659 120.932 110.262 121.462 109.732 121.727C108.937 122.125 108.539 123.185 107.612 123.583C107.082 123.583 106.817 123.715 106.419 123.98C103.902 125.703 101.517 127.426 98.9991 129.149C97.0117 128.884 94.8917 129.149 93.0367 128.486C93.9642 126.896 95.6867 126.101 96.8791 124.908C97.1441 124.643 97.9392 124.643 97.2767 123.98C98.8666 122.39 100.722 121.197 102.047 119.342C100.722 119.342 99.6616 120.269 98.6017 120.932C95.5542 123.052 92.3742 125.305 89.3267 127.426C88.6643 127.824 88.0018 128.486 87.2068 128.486C86.8093 128.486 86.4118 128.221 86.0143 128.221C80.8468 127.824 75.6794 127.426 70.6444 127.028C66.537 126.763 62.4295 126.498 58.3221 126.233C53.1546 125.836 47.8547 125.305 42.6872 124.908C38.1823 124.643 33.5448 123.98 29.0399 123.98C27.9799 123.98 27.3174 123.583 27.3174 122.257C27.3174 111.257 27.7149 100.389 27.9799 89.3891C27.9799 86.871 27.9799 84.3529 28.1124 81.8348C28.5099 72.5575 28.7749 63.1477 29.0399 53.8704C29.1724 46.5811 29.3049 39.1593 29.3049 31.87C29.3049 31.4724 29.3049 31.2074 29.3049 30.8098C41.7597 33.3279 54.2146 35.846 66.6695 38.3641C80.7143 41.2798 94.7592 44.063 108.672 46.9787C109.334 47.1113 110.262 46.8462 110.659 47.7739C108.009 50.292 105.227 52.8102 102.577 55.3283C99.2641 58.5091 95.9517 61.6898 92.5067 64.8706C92.2417 65.1357 91.7117 65.5333 91.9767 65.9309C92.2417 66.3285 92.7717 65.9309 93.1692 65.7983C94.3617 65.0031 95.5542 64.208 96.7467 63.4128C97.8067 63.4128 98.6017 62.6176 99.3967 61.9549C104.697 57.9789 109.732 53.4728 114.501 48.8342C114.766 48.5691 115.031 48.4366 115.296 48.3041C117.151 48.7017 119.006 49.0993 120.861 49.6294L120.596 50.027Z" fill="#626262"/>
<path d="M110.395 48.1719C109.997 47.2442 109.07 47.5092 108.407 47.3767C94.3623 44.461 80.3175 41.6778 66.4051 38.7621C53.9502 36.244 41.4954 33.7259 29.0405 31.2077C29.0405 31.6053 29.0405 32.0029 29.0405 32.268C29.0405 39.5573 28.908 46.9791 28.7755 54.2684C28.5105 63.5457 28.2455 72.9555 27.848 82.2328C27.848 84.7509 27.848 87.269 27.7155 89.7871C27.583 100.787 27.1855 111.655 27.053 122.655C27.053 123.981 27.583 124.378 28.7755 124.378C33.4129 124.378 37.9179 124.908 42.4229 125.306C47.7228 125.703 52.8903 126.234 58.0577 126.631C62.1652 126.896 66.2726 127.161 70.3801 127.426C75.5475 127.824 80.715 128.222 85.7499 128.619C86.1474 128.619 86.5449 128.752 86.9424 128.884C86.6774 129.679 86.6774 130.342 87.2074 131.005C86.8099 131.402 86.4124 131.27 86.0149 131.27C80.185 130.872 74.4875 130.475 68.6576 130.077C63.0926 129.679 57.6602 129.282 52.0953 128.884C46.2653 128.487 40.3029 128.089 34.4729 127.559C31.4255 127.294 28.378 127.029 25.3305 126.896C24.1381 126.896 23.873 126.234 23.873 125.306C24.0055 120.535 24.138 115.896 24.2705 111.125C24.5355 104.366 24.8005 97.6065 24.933 90.9799C25.463 76.4013 25.993 61.8228 26.523 47.2442C26.788 41.5453 26.9205 35.8464 27.1855 30.1475C27.1855 28.027 27.053 28.1595 29.173 28.5571C41.2304 31.0752 53.4203 33.5933 65.4776 36.1114C81.1125 39.2922 96.7473 42.473 112.382 45.6538C112.382 45.6538 112.647 45.6538 112.78 45.9189C112.117 46.8466 111.19 47.6418 110.395 48.437V48.1719Z" fill="#CDC7C7"/>
<path d="M103.902 130.209C108.539 130.342 113.177 130.872 117.814 131.27C120.994 131.535 124.174 131.667 127.354 131.932C134.642 132.462 142.061 132.992 149.349 133.655C154.251 134.053 159.286 134.45 164.189 134.715C169.091 134.98 173.994 135.378 178.764 135.776C179.824 135.776 180.089 135.511 180.221 134.45C180.619 128.619 181.016 122.787 181.546 116.824C181.811 114.04 181.944 111.257 182.076 108.474C182.474 103.703 182.739 99.0641 183.136 94.293C183.401 90.1845 183.666 85.9434 184.064 81.8349C184.461 76.5336 184.859 71.0998 185.389 65.7985C185.389 65.7985 185.389 65.7985 185.389 65.666C185.654 63.1479 185.654 63.1479 183.269 62.7503C163.924 58.9068 144.579 54.9309 125.102 51.0874C124.837 51.0874 124.572 50.9549 124.307 50.8223C124.439 49.8946 125.764 49.6295 125.367 48.4367C145.374 52.5452 165.249 56.5212 185.256 60.6297C185.521 60.6297 185.786 60.7623 186.051 60.7623C187.244 61.0273 187.641 61.5575 187.509 62.7503C186.581 72.4251 186.051 81.9675 185.256 91.6423C184.461 103.703 183.534 115.896 182.606 127.956C182.341 131.137 182.209 134.318 181.944 137.499C181.944 138.161 181.944 138.426 181.016 138.294C177.439 137.896 173.729 137.631 170.151 137.366C161.406 136.703 152.661 136.173 143.916 135.511C137.027 134.98 130.004 134.583 123.114 134.053C116.357 133.523 109.599 133.125 102.974 132.595C102.577 132.595 102.047 132.462 101.649 132.33C102.179 131.402 102.974 130.872 103.769 130.209H103.902Z" fill="#CDC7C7"/>
<path d="M110.394 48.1716C111.189 47.3764 112.117 46.7138 112.779 45.6535C113.442 45.6535 114.237 45.786 114.899 46.0511C114.502 46.7137 113.972 47.1114 113.442 47.6415C108.142 52.6777 102.842 57.714 97.542 62.7502C97.1445 63.0153 96.7471 63.2803 96.6146 63.8104C95.4221 64.6056 94.2296 65.4008 93.0371 66.196C92.6396 66.4611 92.1096 66.8587 91.8446 66.3286C91.5796 65.931 91.9771 65.5334 92.3746 65.2683C95.687 62.0875 98.9995 58.9068 102.444 55.726C105.094 53.2079 107.877 50.6897 110.527 48.1716H110.394Z" fill="#F5F5F5"/>
<path d="M103.902 130.21C103.107 130.873 102.312 131.403 101.782 132.331C100.723 132.331 99.795 132.331 98.6025 132.066C101.65 129.283 104.83 126.897 107.48 123.981C108.407 123.584 108.672 122.523 109.6 122.126C109.997 121.861 110.527 121.331 111.057 121.861C111.587 122.391 111.057 122.921 110.66 123.186C108.805 125.174 106.817 127.03 104.83 129.018C104.432 129.415 104.035 129.68 103.902 130.21Z" fill="#F5F5F5"/>
<path d="M87.2076 131.138C86.6776 130.475 86.6776 129.812 86.9426 129.017C87.8701 129.017 88.4001 128.487 89.0626 127.957C92.1101 125.836 95.29 123.583 98.3375 121.463C99.3975 120.8 100.457 120.005 101.782 119.872C100.457 121.728 98.6025 123.053 97.0125 124.511C93.8326 125.969 91.1826 128.089 88.4001 130.21C88.0026 130.475 87.4726 130.872 87.0751 131.138H87.2076Z" fill="#F5F5F5"/>
<path d="M125.499 48.1723C125.897 49.2325 124.572 49.6301 124.439 50.5578C123.909 50.5578 123.644 51.088 123.247 51.4856C120.862 53.7386 118.609 56.1242 116.092 58.2448C115.694 58.5098 115.297 58.7749 114.899 59.1725C114.634 59.305 114.237 59.7026 113.972 59.4375C113.442 59.1725 113.972 58.7749 113.972 58.3773C117.417 55.1965 120.994 52.1482 124.307 48.8349C124.704 48.4373 124.969 48.1723 125.499 48.4373V48.1723Z" fill="#F3F3F3"/>
<path d="M92.7718 129.017C94.7593 129.68 96.7468 129.415 98.7343 129.68C98.0718 130.608 96.8793 131.005 96.0843 131.933C96.0843 131.933 95.6868 131.933 95.4218 131.933C93.4343 131.801 91.4468 131.668 89.1943 131.403C90.5193 130.475 91.3143 129.283 92.7718 128.885V129.017Z" fill="#CBC5C5"/>
<path d="M120.597 50.0274C118.742 49.6298 116.887 49.2322 115.032 48.7021C115.562 48.0394 116.225 47.5093 116.755 46.8466C117.152 46.449 117.55 46.449 117.947 46.5816C119.537 46.9792 121.26 47.2442 122.982 47.6418C122.187 48.5695 121.525 49.3647 120.597 49.8948V50.0274Z" fill="#CBC5C5"/>
<defs>
<filter id="filter0_d_2932_7757" x="0" y="0" width="185" height="185" filterUnits="userSpaceOnUse" color-interpolation-filters="sRGB">
<feFlood flood-opacity="0" result="BackgroundImageFix"/>
<feColorMatrix in="SourceAlpha" type="matrix" values="0 0 0 0 0 0 0 0 0 0 0 0 0 0 0 0 0 0 127 0" result="hardAlpha"/>
<feOffset dx="-5" dy="5"/>
<feComposite in2="hardAlpha" operator="out"/>
<feColorMatrix type="matrix" values="0 0 0 0 0 0 0 0 0 0 0 0 0 0 0 0 0 0 1 0"/>
<feBlend mode="normal" in2="BackgroundImageFix" result="effect1_dropShadow_2932_7757"/>
<feBlend mode="normal" in="SourceGraphic" in2="effect1_dropShadow_2932_7757" result="shape"/>
</filter>
</defs>
</svg>
