<svg width="131" height="333" viewBox="0 0 131 333" fill="none" xmlns="http://www.w3.org/2000/svg">
<mask id="mask0_2987_12022" style="mask-type:alpha" maskUnits="userSpaceOnUse" x="0" y="0" width="131" height="333">
<rect width="131" height="333" fill="#A25A9F"/>
</mask>
<g mask="url(#mask0_2987_12022)">
<path d="M77.173 70.8727C76.658 70.8727 52.7484 70.8727 52.7484 70.8727L66.7263 156.642L71.5818 155.753L83.8677 155.013" fill="#0ABBEF"/>
<path d="M36.5634 286.555C36.122 286.777 35.9012 286.851 35.9748 286.777C36.122 286.481 36.4898 284.703 36.8576 282.185L36.3427 282.481C36.3427 282.259 37.0783 273.816 37.0783 273.816L40.6832 224.783L41.051 224.709V219.08L43.1109 186.861L44.0673 185.454L65.1078 155.753L82.6906 155.013L89.4588 185.084C89.4588 185.084 89.3117 185.528 89.0174 186.195C91.1509 185.824 95.2707 184.565 98.2135 183.676C100.273 183.01 101.818 182.565 101.818 182.565L104.614 220.043C104.614 220.043 106.453 244.559 106.674 247.152C106.894 249.744 109.322 277.223 109.322 277.223C109.322 277.223 112.265 300.258 112.339 300.85C112.339 301.072 112.78 302.998 113.221 305.516C114.325 311.071 116.017 319.515 116.017 319.515L117.268 325.885L119.254 333.588L118.96 333.736C118.96 333.736 118.739 333.81 118.445 333.588C118.15 333.365 114.031 332.106 114.031 332.106L113.957 332.032C113.736 332.106 113.516 332.254 113.295 332.254C109.469 332.847 105.717 333.884 102.039 335.217C97.9928 336.624 94.1672 338.476 90.5624 340.55C89.606 333.884 88.6496 327.218 87.7668 320.552C87.5461 318.774 87.2518 316.923 86.2954 315.293C86.0747 314.849 85.7069 314.478 85.6333 313.96C85.2655 312.627 86.4426 311.368 87.5461 310.479C85.9276 310.775 84.5298 309.071 84.6034 307.442C84.6769 305.813 85.7804 304.405 86.9575 303.368C85.0448 294.851 83.647 286.259 82.8377 277.519L83.0584 276.334C83.132 274.186 82.5434 272.038 82.3963 269.89C82.3963 269.594 82.3963 269.298 82.3963 268.927C82.3963 268.927 82.1756 263.372 82.0285 263.298C81.8813 263.15 82.9113 259.817 83.2791 257.447C83.647 255.077 81.2192 249.448 81.2192 249.448C81.2192 249.448 80.4835 246.485 80.1893 245.3C79.895 244.115 78.0558 235.893 78.0558 235.893L75.2602 219.451L75.0395 218.266L74.9659 217.451C74.8924 217.451 74.7452 217.525 74.6717 217.525L72.3175 229.82L68.6391 249.3L65.7699 264.705L65.3285 268.927C65.3285 268.927 65.3285 268.927 65.2549 268.927C65.6228 269.89 66.1378 270.779 66.7263 271.594C66.947 271.964 67.2413 272.26 67.3149 272.705C67.3884 274.038 65.1814 274.186 64.5193 275.371C63.71 276.926 65.9906 278.408 65.9906 280.185C65.9906 280.704 65.8435 281.148 65.6963 281.593C64.3721 285.666 64.225 290.11 64.0778 294.406C64.0043 296.999 63.9307 299.665 63.8571 302.257C63.5629 312.923 63.5629 323.589 64.5928 334.18C64.74 335.587 64.8871 337.069 64.0778 338.254C63.71 338.846 63.1215 339.291 62.4593 339.661C59.8845 341.142 56.7946 341.365 53.8519 341.068C50.9092 340.772 48.04 339.883 45.1708 339.217C42.4488 338.55 39.2854 338.18 37.2255 340.031C36.9312 340.254 36.6369 340.624 36.2691 340.698C36.1219 340.772 35.9013 340.772 35.6805 340.698C34.9449 340.624 34.1356 340.254 33.7678 340.772C32.5907 339.365 32.37 337.365 32.2964 335.513C31.34 319.071 35.1656 302.85 36.5634 286.555ZM37.4462 277.963C37.2255 279 37.0783 280.111 37.0048 281.148C37.1519 280.185 37.299 279.074 37.4462 277.963Z" fill="url(#paint0_linear_2987_12022)"/>
<path d="M75.1866 219.377L77.9822 235.819C77.9822 235.819 79.8214 244.041 80.1157 245.226C80.41 246.411 81.1456 249.374 81.1456 249.374C81.1456 249.374 83.5734 255.077 83.2056 257.373C82.8377 259.743 81.8078 263.076 81.9549 263.224C82.102 263.372 82.3227 268.853 82.3227 268.853C82.3227 269.149 82.3227 269.52 82.3227 269.816C82.4699 271.964 83.132 274.112 82.9849 276.26L82.7642 277.445C83.5734 286.111 84.8976 294.777 86.884 303.294C85.7069 304.331 84.6034 305.738 84.5298 307.368C84.4562 308.997 85.854 310.701 87.4725 310.405C86.4426 311.293 85.2655 312.553 85.5597 313.886C85.7069 314.404 86.0012 314.775 86.2219 315.219C87.1782 316.774 87.3989 318.626 87.6932 320.478C88.6496 327.144 89.606 333.81 90.4888 340.476C94.0936 338.402 97.9192 336.55 101.965 335.143L101.892 335.069C97.6985 330.403 95.1972 324.477 92.7694 318.7C92.4016 317.885 92.1073 317.071 92.0337 316.182C91.9602 314.256 93.5051 312.553 93.5051 310.553C92.1809 310.849 90.7831 310.849 89.5324 310.405C89.9738 309.442 90.7831 308.701 91.5188 307.886C92.9901 306.405 94.3144 304.85 95.4179 303.146C95.1236 303.516 94.7558 303.887 94.3143 304.183C93.1373 305.072 91.5188 305.442 90.1945 304.85C89.8267 304.702 89.4589 304.405 89.2381 304.035C88.9439 303.368 89.1646 302.628 89.5324 302.035C89.9003 301.443 90.4152 300.924 90.7095 300.332C93.4315 298.184 95.6386 295.073 97.6249 292.11C95.7857 293.147 93.2844 294.036 91.8866 292.555C91.2245 291.888 91.0038 290.851 90.8566 289.888C89.4588 280.704 89.091 271.371 89.8267 262.113C89.9738 259.817 90.2681 257.521 90.0474 255.225C89.8267 253.225 89.3117 251.299 88.7967 249.374C87.4725 244.93 85.854 240.56 83.9412 236.338C80.8514 229.376 76.9523 222.636 75.5545 215.155C75.5545 216.414 75.3338 217.895 75.1866 219.377Z" fill="#174075"/>
<path d="M32.2228 335.513C32.2964 337.365 32.5171 339.365 33.6942 340.772C34.062 340.18 34.8713 340.624 35.607 340.698C36.9312 338.55 38.2554 336.402 39.5796 334.254C39.7268 333.958 39.9475 333.662 40.0211 333.365C40.1682 332.995 40.1682 332.625 40.2418 332.254C40.536 330.847 41.7867 329.81 43.1109 329.366C44.4351 328.921 45.9065 328.995 47.3043 329.07C46.2008 327.736 45.0237 326.477 43.773 325.292C45.9801 324.181 48.555 323.885 50.9091 324.625C49.3642 321.292 44.3616 320.7 42.9638 317.293C42.5224 316.256 42.5224 315.071 42.5224 313.96C42.5224 304.405 42.8166 294.777 43.3316 285.222C43.8466 281.889 44.3616 278.482 44.803 275.149C46.2008 264.187 46.7158 253.151 48.04 242.189C49.5849 229.45 52.1598 216.858 55.7646 204.563C56.721 201.378 57.751 198.045 60.0316 195.601C62.2386 193.083 67.9034 189.38 70.9933 190.713C70.7725 188.491 68.4919 188.491 68.1977 186.269L44.0673 185.602L43.1109 187.009L41.051 219.228V224.858L40.6832 224.932L37.0783 273.964C37.0783 273.964 36.3427 282.407 36.3427 282.63L36.8576 282.333C36.4898 284.852 36.1219 286.629 35.9748 286.925C35.9012 287 36.1219 286.926 36.5634 286.703C35.1656 302.85 31.34 319.071 32.2228 335.513Z" fill="#174075"/>
<path d="M39.8004 35.4688C40.0946 36.2835 40.6096 36.9501 41.051 37.6908C42.0074 39.098 43.0374 40.4312 44.1409 41.6904C44.2144 41.7644 44.288 41.8385 44.4352 41.8385C44.5087 41.8385 44.5823 41.7644 44.6559 41.6904C45.7594 40.6534 47.3779 40.4312 48.7757 40.8016C50.1735 41.1719 51.4241 42.0607 52.6012 42.9495C52.8219 43.0976 53.0426 43.3198 53.2633 43.468C53.6312 43.9124 53.999 44.4309 54.4404 44.8753C55.5439 43.9864 56.721 43.2458 58.0453 42.6532C57.236 41.6904 56.7946 40.4312 56.3532 39.2462C55.1761 35.8391 54.2933 32.432 53.5576 28.8768C53.484 28.3584 53.3369 27.8399 53.484 27.3214V27.2474C53.6312 26.877 53.9254 26.5067 54.2197 26.2104C55.7646 24.4328 57.4567 22.5811 59.8109 21.9145C61.9444 21.3961 64.225 22.0627 66.3585 22.433C67.9034 22.7293 69.5219 22.8774 71.0668 22.8774C71.3611 22.8774 71.6554 22.8774 71.9496 22.8033C72.7589 23.0255 73.5681 23.3218 74.3038 23.544C76.8051 24.2106 79.7479 24.655 81.8813 23.1737C82.6906 22.5811 83.3527 21.8405 83.8677 21.0257C84.2355 20.4332 84.6034 19.8407 84.8241 19.2481C84.8976 19.1 84.9712 18.9519 85.0448 18.7297C85.2655 18.1371 85.4862 17.6187 85.6333 17.0261C86.369 14.4338 86.2954 11.5452 85.4862 8.95286C84.0148 10.3601 82.1756 11.323 80.1893 11.6933C80.2628 11.5452 80.41 11.4711 80.4835 11.323C81.2928 10.2861 81.9549 9.02693 82.2492 7.69373C82.7642 5.69392 82.617 3.54598 81.8813 1.69432C80.2628 3.39785 77.9086 4.13852 75.628 4.36072C73.3474 4.58292 70.9932 4.43479 68.7126 4.65699C65.6228 4.95325 62.68 5.91612 59.7373 6.87899C57.3096 7.69373 54.8818 8.58253 52.5276 9.69353C50.4677 10.7305 48.4814 11.9896 46.7158 13.4709C45.3915 14.5819 44.1409 15.8411 42.9638 17.1743C41.7131 18.6556 40.4625 20.5073 40.6832 22.433C40.9039 24.2847 42.3752 25.766 43.6995 27.0992L43.9202 27.4696C43.9937 27.4696 43.9937 27.4696 44.0673 27.4696C44.0673 27.5436 44.0673 27.5436 44.1409 27.6177C44.0673 27.6177 43.9202 27.6177 43.8466 27.6177C42.1545 27.8399 40.6832 28.9509 39.9475 30.5063C39.2118 32.0617 39.2118 33.8393 39.8004 35.4688Z" fill="#ED6C2E"/>
<path d="M43.8466 47.9861C44.0673 48.7267 44.288 49.4674 44.7294 50.134C45.4651 51.245 46.7893 51.9116 48.04 52.2079C49.3642 52.5041 50.6884 52.5782 52.0127 52.7263C52.3069 52.7263 52.6012 52.8004 52.8219 52.9485C53.1162 53.1707 53.1898 53.5411 53.3369 53.8373C54.7347 59.022 54.3669 64.503 55.5439 69.6876C55.6911 70.2061 55.8382 70.7246 56.1325 71.169C56.2061 71.3912 56.2061 71.6134 56.2796 71.9096C56.4268 72.7244 56.6475 73.5391 56.7946 74.3538C56.7946 74.502 56.8682 74.576 56.9417 74.7242C57.0153 74.7982 57.1624 74.8723 57.3096 74.8723C60.3994 75.687 63.71 75.7611 66.7999 75.0945C68.5655 74.7242 70.2576 74.1316 71.8761 73.391C72.5382 73.0947 73.1267 72.7984 73.7153 72.4281C74.0095 72.2059 74.3774 71.8356 74.3774 71.3912C74.3774 71.169 74.3038 71.0208 74.2302 70.8727C74.2302 70.7986 74.1567 70.7246 74.0831 70.6505C74.2302 69.9839 74.2302 69.2432 74.2302 68.5026C74.2302 67.6138 74.1567 66.725 74.0831 65.9102C74.0095 64.2808 73.936 62.7253 73.8624 61.0959C75.4073 61.6143 76.9523 60.7255 78.2765 59.7627C79.5272 58.7998 80.7778 57.6888 81.6606 56.3556C83.4263 53.7633 83.8677 50.4303 84.0884 47.2454C84.5298 39.3202 83.5734 31.321 81.2928 23.7662L81.3664 23.9884C78.6443 23.9884 75.8487 23.8403 73.1267 23.544C70.9197 23.3218 68.7126 22.9515 66.5056 22.433C64.4457 21.9886 62.3858 21.4701 60.3259 21.9145C57.8981 22.5071 56.0589 24.3588 54.3668 26.1364C54.0726 26.4326 53.7783 26.7289 53.6312 27.0992C53.4105 27.6177 53.5576 28.1362 53.6312 28.6546C54.3669 33.0246 55.1025 37.4686 57.3096 41.246C57.5303 41.6163 57.751 41.9867 57.8245 42.4311C57.8245 42.5792 57.8246 42.6533 57.8981 42.8014C57.0889 43.468 56.2796 44.0605 55.3968 44.7271C55.2497 44.8753 55.029 44.9493 54.8083 44.9493C54.6611 44.9493 54.514 44.8012 54.3668 44.7271C53.4105 43.9124 52.6748 42.7273 51.6448 42.0607C51.0563 41.6904 50.3206 41.3941 49.5849 41.246C48.2607 40.9497 46.8629 40.8016 45.6858 41.4682C44.5823 42.0607 43.9202 43.2458 43.6995 44.4309C43.4052 45.5419 43.5523 46.801 43.8466 47.9861Z" fill="white"/>
<path d="M86.8104 72.4281C86.7368 72.354 86.7368 72.28 86.6633 72.2059C86.5161 72.2059 86.8104 72.354 86.8104 72.4281Z" fill="white"/>
<path d="M7.7982 117.905L12.2859 119.979C12.2859 119.979 12.2859 119.979 12.3594 119.979C12.8744 120.275 16.8471 122.423 18.1713 123.164C19.5691 123.905 25.1603 127.238 25.1603 127.238L30.4572 129.682L36.2691 121.386C36.2691 121.386 37.814 126.275 38.844 129.608C39.3589 131.385 39.8004 132.718 39.8004 132.793C39.8739 132.941 43.773 147.828 43.773 147.828C43.773 147.828 44.7294 153.902 44.7294 154.938C44.7294 155.975 44.3616 160.864 44.3616 161.16V161.234L42.7431 183.454C42.7431 183.454 42.5224 186.343 42.5224 186.491C42.5224 186.639 60.1787 189.305 60.1787 189.305H70.3311C70.3311 189.305 71.2139 173.9 70.9197 171.233C70.699 169.456 70.4783 168.271 70.3311 167.604C70.184 165.308 69.9633 162.345 69.9633 162.345L67.0941 135.533L62.6065 100.573L59.958 86.2786L59.443 85.8342C59.5902 85.9082 59.8109 85.9082 59.8845 85.8342C59.958 85.7601 59.958 85.612 59.8845 85.5379C59.6638 84.1306 59.2223 82.7234 58.8545 81.3161C57.0889 75.3908 55.6911 69.4654 54.5876 63.3919V63.0957C53.1898 63.3179 51.7184 63.5401 50.5413 64.4289C49.8792 64.9473 49.4378 65.614 48.9228 66.2806C47.8929 67.836 46.9365 69.5395 46.2008 71.3171C45.8329 72.0578 45.5387 72.8725 45.0973 73.5391L45.0237 73.465L28.9858 85.5379L28.5444 85.9823L27.8823 86.6489L23.1004 89.9079C23.1004 89.9079 21.629 90.6485 20.3048 92.1299C18.907 93.6112 12.8744 103.832 12.8744 103.832C12.8744 103.832 11.918 106.277 11.1088 108.35C10.1524 110.498 7.7982 117.905 7.7982 117.905Z" fill="white"/>
<path d="M73.8624 72.9466C73.8624 73.391 74.0095 73.8354 74.0831 74.2798C74.3038 75.0945 74.5245 75.9092 74.7452 76.798C75.2602 78.7978 75.7752 80.7976 76.2902 82.7974C76.3637 82.7234 76.4373 82.6493 76.5109 82.5012L76.7316 84.9454L77.3937 93.6112L78.7915 110.943L80.3364 134.866L82.617 159.605L84.3091 185.972C84.3091 185.972 84.3091 185.972 84.6769 186.343C85.1183 186.713 98.9491 183.454 99.1698 183.306C99.3905 183.232 106.085 180.269 106.085 180.269L103.584 159.975L101.083 133.533C101.083 133.533 100.494 124.645 101.083 118.201C101.671 111.758 102.113 85.1676 102.113 85.1676L102.995 79.02L99.4641 76.5018L94.4615 74.2057C94.4615 74.2057 90.5624 72.9466 88.2082 72.4281C87.2518 72.2059 86.8104 72.1318 86.7368 72.2059C86.8104 72.28 86.8104 72.354 86.884 72.4281C86.8104 72.4281 86.5897 72.2059 86.7368 72.2059C85.854 70.6505 84.8976 69.0951 83.7205 67.7619C82.2492 66.1324 80.4835 64.7251 78.4972 63.8363C77.0994 63.2438 75.7016 62.8735 74.1567 62.8735H74.0831L74.2302 68.6507L74.3038 70.6505C74.0095 71.3912 73.7888 72.1318 73.8624 72.9466Z" fill="white"/>
<path d="M86.8104 72.4281C86.7368 72.354 86.7368 72.28 86.6633 72.2059C86.5161 72.2059 86.8104 72.354 86.8104 72.4281Z" fill="white"/>
<path d="M121.682 105.462C121.682 105.462 118.518 112.424 116.753 114.276C114.913 116.128 109.543 119.979 109.543 119.979C109.543 119.979 104.246 123.016 102.848 123.46C101.45 123.905 101.083 123.979 101.083 123.979V99.5365L102.995 79.02" fill="#0ABBEF"/>
<path d="M0.662105 143.754C0.809241 145.606 1.17707 147.458 2.42773 148.717C3.67839 149.976 22.2176 166.197 22.2176 166.197L35.5334 176.418C35.5334 176.418 37.0048 177.233 40.1682 176.196C43.3316 175.085 46.2744 173.826 46.2744 173.826C46.2744 173.826 48.1136 173.529 48.1871 173.603C48.2607 173.677 51.9391 177.159 52.9691 177.233C53.999 177.307 55.3232 176.27 55.3232 176.122C55.3232 175.973 56.1325 176.566 56.1325 176.566C56.1325 176.566 57.9717 177.455 58.4131 177.307C58.8545 177.159 59.3695 176.64 59.3695 176.64L59.6637 175.603L59.958 174.492C59.958 174.492 60.5466 174.492 60.6201 174.492C60.6937 174.492 61.7237 173.529 61.6501 172.863C61.5765 172.196 61.4294 171.307 61.4294 171.307C61.4294 171.307 62.9008 171.159 62.9743 170.493C63.1215 169.752 63.3422 168.937 63.3422 168.937L62.3858 166.789C62.3858 166.789 53.0426 160.123 52.9691 160.049C52.8955 160.049 44.2144 161.16 44.1409 161.234C44.0673 161.308 37.299 163.382 37.299 163.382C37.299 163.382 26.0431 150.124 25.9695 150.05C25.9695 149.976 19.7162 143.903 19.3484 143.606C18.907 143.31 18.392 142.94 18.4656 142.94C18.5392 142.94 19.1277 141.162 19.1277 141.162L24.6453 128.274L25.0867 127.312L16.4057 122.201L9.12245 118.572C9.12245 118.572 8.60746 119.757 7.94534 121.46C7.3568 122.794 6.69469 124.497 6.03258 126.275C4.70835 129.608 3.31056 133.163 2.86915 134.792C1.76563 138.422 0.514969 141.903 0.662105 143.754Z" fill="white"/>
<path d="M102.995 153.087L104.172 165.012L104.393 167.308L105.938 174.27C105.938 174.27 106.159 174.566 106.747 174.344C107.336 174.122 110.794 170.418 110.794 170.122C110.794 169.826 110.426 168.196 110.426 168.196L112.265 162.493L125.728 140.866C125.728 140.866 130.583 133.681 130.216 132.2C129.774 130.719 128.818 128.126 128.818 128.126L119.769 113.683L118.96 112.35C118.96 112.35 114.398 116.646 113.81 117.09C113.221 117.535 107.777 121.016 107.777 121.016L110.794 125.016L115.723 132.718L113.516 137.162L107.483 152.05L102.995 153.087Z" fill="white"/>
<path d="M33.7678 340.328C33.7678 340.624 33.7678 340.92 33.8413 341.142C33.9149 341.661 34.1356 342.253 34.2827 342.772C34.5034 343.957 34.2827 345.142 34.3563 346.401C34.4299 347.586 34.7977 348.919 35.9012 349.512C36.2691 349.734 36.7105 349.808 37.1519 349.808C42.8902 350.623 48.7021 349.29 54.514 349.438C55.5439 349.438 56.6475 349.586 57.6774 349.29C58.7074 349.068 59.7373 348.475 60.1787 347.512C60.3994 346.994 60.473 346.475 60.5466 345.957C60.6201 345.438 60.6937 344.92 60.7673 344.401C60.8408 344.031 60.8408 343.661 60.9144 343.29C60.988 342.55 61.1351 341.809 60.988 341.068C60.8408 340.105 60.2523 339.291 59.5902 338.476C58.5602 337.143 57.3831 335.884 56.1325 334.773C55.2497 333.958 54.2197 333.143 53.1897 332.551C50.9091 331.292 48.2607 330.995 45.7594 331.366C43.1845 331.736 40.8303 332.773 38.6233 334.18L38.6968 334.402C37.8876 334.476 37.2255 335.143 36.7105 335.735C36.0484 336.476 35.4598 337.217 34.8713 338.032C34.3563 338.698 33.8413 339.439 33.7678 340.328Z" fill="#0ABBEF"/>
<path d="M91.5923 341.142C91.7395 343.809 91.8866 346.475 92.0337 349.142C93.5787 349.29 95.1972 349.438 96.6685 348.919C97.8456 348.549 99.0963 347.66 100.273 348.105C100.641 348.253 100.935 348.475 101.303 348.623C102.186 348.994 103.216 348.919 104.172 348.845C113.516 348.179 122.932 348.993 132.349 348.179C133.453 348.105 134.777 347.882 135.365 346.92C135.88 346.105 135.66 344.92 135.145 344.105C135.071 343.957 134.998 343.883 134.924 343.735C134.85 343.587 134.777 343.438 134.85 343.216C134.85 343.068 134.998 342.92 135.071 342.772C135.733 341.809 135.66 340.402 135.071 339.365C134.483 338.328 133.526 337.513 132.57 336.847C129.48 334.847 125.728 333.884 122.05 334.032C121.682 334.032 121.387 334.032 121.02 334.106C120.431 334.18 119.842 334.18 119.254 334.106C118.15 333.884 117.341 332.921 116.679 332.032L116.311 331.884C107.851 332.995 99.6113 335.884 92.2544 340.18C92.0337 340.328 91.813 340.402 91.7395 340.624C91.5188 340.624 91.5923 340.846 91.5923 341.142Z" fill="#0ABBEF"/>
<path d="M6.03258 126.275C6.10615 126.275 6.10615 126.349 6.17972 126.349C7.20967 126.719 8.16605 127.089 9.196 127.46C9.93169 127.682 10.6674 127.904 11.4031 128.052C13.5365 128.497 15.7436 128.497 17.877 128.497C19.8634 128.497 21.8497 128.423 23.8361 128.349C24.1303 128.349 24.351 128.274 24.6453 128.274L25.0867 127.312L16.4057 122.201L9.12245 118.572C9.12245 118.572 8.60746 119.757 7.94534 121.46C7.43037 122.868 6.76826 124.571 6.03258 126.275Z" fill="#F4C6CC"/>
<path d="M0.662105 143.754C0.809241 145.606 1.17707 147.458 2.42773 148.717C3.67839 149.976 22.2176 166.197 22.2176 166.197L35.5334 176.418C35.5334 176.418 37.0048 177.233 40.1682 176.196C43.3316 175.085 46.2744 173.826 46.2744 173.826C46.2744 173.826 48.1136 173.529 48.1871 173.603C48.2607 173.677 51.9391 177.159 52.9691 177.233C53.999 177.307 55.3232 176.27 55.3232 176.122C55.3232 175.973 56.1325 176.566 56.1325 176.566C56.1325 176.566 57.9717 177.455 58.4131 177.307C58.8545 177.159 59.3695 176.64 59.3695 176.64L59.6637 175.603L57.8245 172.64C57.0889 173.751 55.3968 173.381 54.3668 172.566C53.3369 171.752 52.4541 170.567 51.2034 170.344C51.2034 170.863 51.2034 171.455 51.2034 171.974C47.2307 171.159 43.1109 170.937 38.9911 171.381C38.0347 171.455 37.1519 171.604 36.1955 171.381C35.3863 171.159 34.7242 170.715 33.9885 170.27C25.1603 164.345 17.1414 157.161 10.226 149.087C9.04887 147.754 7.87178 146.273 7.1361 144.643C4.85548 139.533 6.9154 133.607 8.82817 128.349C8.90174 128.052 9.04886 127.756 9.12243 127.534C9.6374 125.83 10.0053 123.979 9.04888 122.571C8.7546 122.127 8.31319 121.831 7.87178 121.534C7.28323 122.868 6.62111 124.571 5.959 126.349C4.63478 129.682 3.23699 133.237 2.79558 134.866C1.76562 138.422 0.514969 141.903 0.662105 143.754Z" fill="#F4C6CC"/>
<path d="M102.995 153.087L104.172 165.012C105.129 164.493 106.085 163.901 106.894 163.234C107.189 163.012 107.409 162.79 107.557 162.493C107.777 161.975 107.704 161.382 107.704 160.864C107.777 159.605 108.366 158.42 108.954 157.309C111.897 151.828 114.84 146.273 117.783 140.792C119.107 138.422 120.357 135.977 121.387 133.459C121.461 133.163 121.608 132.941 121.608 132.644C121.608 132.2 121.387 131.756 121.167 131.385C119.769 128.793 118.665 126.052 117.93 123.238C117.783 122.794 117.709 122.275 117.709 121.757C117.709 121.238 117.93 120.646 118.077 120.127C118.813 118.053 119.328 115.905 119.622 113.683L118.813 112.35C118.813 112.35 114.251 116.646 113.663 117.09C113.074 117.535 107.63 121.016 107.63 121.016L110.646 125.016L115.576 132.718L113.368 137.162L107.336 152.05L102.995 153.087Z" fill="#F4C6CC"/>
<path d="M62.0915 58.7998C62.9743 59.1701 63.6364 59.9108 64.1514 60.6515C64.74 61.3921 65.3285 62.0587 66.0642 62.7253C67.9034 64.2808 70.1104 65.0955 72.4646 65.614C72.906 65.688 73.5681 65.9843 74.0831 65.8362C74.0095 64.2067 73.936 62.6513 73.8624 61.0218C75.4073 61.5403 76.9523 60.6515 78.2765 59.6886C79.5272 58.7257 80.7778 57.6147 81.6606 56.2815C83.4263 53.6892 83.8677 50.3562 84.0884 47.1713C84.5298 39.2462 83.5734 31.247 81.2928 23.6922L81.3664 23.9144C78.6443 23.9144 75.8487 23.7662 73.1267 23.4699C72.6117 26.4326 73.421 29.4694 73.6417 32.432C73.7888 34.654 73.6417 36.876 73.8624 39.024C74.0831 41.246 74.8188 43.468 76.5109 44.9493C75.9959 45.3196 75.2602 45.3196 74.7452 45.69C74.0095 46.2085 73.936 47.3195 74.0095 48.2083C74.0831 49.0971 74.2302 50.134 73.7153 50.8747C73.4946 51.245 73.0532 51.5413 72.9796 51.9116C72.906 52.2079 72.9796 52.4301 73.0532 52.7263C73.6417 54.9483 73.8624 57.3925 72.6853 59.3183C72.391 59.7627 72.0232 60.2071 71.5818 60.4293C71.1404 60.6515 70.699 60.7255 70.2576 60.7255C67.2413 60.9477 64.8135 59.6886 62.0915 58.7998Z" fill="#F4C6CC"/>
<path d="M53.484 27.2474C53.6312 26.877 53.9254 26.5067 54.2197 26.2104C55.7646 24.4328 57.4567 22.5811 59.8109 21.9145C61.9444 21.3961 64.225 22.0627 66.3585 22.433C67.9034 22.7293 69.5219 22.8774 71.0668 22.8774C71.3611 22.8774 71.6554 22.8774 71.9496 22.8033C72.7589 23.0255 73.5681 23.3218 74.3038 23.544C76.8051 24.2106 79.7479 24.655 81.8813 23.1737C82.6906 22.5811 83.3527 21.8405 83.8677 21.0257C84.2355 20.4332 84.6034 19.8407 84.8241 19.2481C84.9712 19.2481 85.1183 19.1741 85.2655 19.1C85.2655 18.8778 85.2655 18.5815 85.2655 18.3593C85.1919 18.5075 85.1183 18.6556 84.9712 18.8037C84.8241 19.0259 84.6769 19.1741 84.5298 19.3222C83.3527 20.6554 81.6606 21.3961 79.9686 21.6923C77.8351 21.9886 75.628 21.6923 73.5681 21.2479C70.9933 20.7295 68.4184 20.1369 65.7699 19.9888C63.1215 19.8407 60.3994 20.1369 58.1188 21.322C55.9118 22.5071 53.999 24.655 53.484 27.2474Z" fill="white"/>
<path d="M61.3558 14.0635C65.9906 10.5083 72.3175 9.24913 77.9822 10.8045C78.865 11.0267 79.7479 11.323 80.6307 11.3971C81.4399 10.3601 82.102 9.10099 82.3963 7.76779C81.7342 8.13813 80.9249 8.36033 80.1893 8.43439C78.2765 8.73066 76.3637 8.36033 74.451 8.28626C71.9496 8.13813 69.4483 8.28626 67.0941 9.17506C64.74 10.0639 62.68 11.0267 61.7237 13.3228L61.3558 14.0635Z" fill="white"/>
<path d="M66.432 18.8778L69.9633 17.2483C71.0668 16.6558 72.6117 16.878 73.7888 17.0261C74.9659 17.1743 76.143 17.6187 77.3201 17.989C79.3064 18.7297 81.4399 19.3963 83.5734 19.3963C83.9412 19.3963 84.3826 19.3963 84.7505 19.3222C84.8241 19.3222 84.8976 19.3222 84.9712 19.2481C85.1183 19.2481 85.2655 19.1741 85.4126 19.1C85.4126 18.8778 85.4126 18.5815 85.4126 18.3593C85.339 18.5075 85.2655 18.6556 85.1183 18.8037C85.339 18.2112 85.5597 17.6927 85.7069 17.1002C84.2355 17.8409 82.3227 17.7668 80.7042 17.3965C78.7915 16.9521 77.0258 16.0633 75.1131 15.767C71.8761 15.1745 68.3448 16.2855 66.432 18.8778Z" fill="white"/>
<path d="M40.8303 22.433C41.051 24.2847 42.5224 25.766 43.8466 27.0992L44.0673 27.4696C44.1409 27.4696 44.1409 27.4696 44.2144 27.4696L47.0836 26.7289C45.9801 26.803 44.8766 26.3586 44.1409 25.5438C43.6995 25.0254 43.4788 24.5069 43.2581 23.8403C42.6695 21.9886 42.9638 19.9147 43.773 18.1371C44.5087 16.3595 45.7594 14.8041 47.1572 13.3969C47.0836 13.3969 46.9365 13.3969 46.8629 13.3969C45.5387 14.5079 44.288 15.767 43.1109 17.1002C41.7867 18.6556 40.6096 20.5073 40.8303 22.433Z" fill="white"/>
<path d="M89.9003 79.2422C87.9875 79.7607 86.0747 79.8348 84.0884 79.6126C83.7941 79.6126 83.4263 79.5385 83.2056 79.6866C83.0584 79.7607 82.9113 79.9088 82.7641 80.057C80.6307 82.1308 78.7179 84.3529 77.0994 86.8711C75.9959 84.0566 77.0994 80.8717 78.6443 78.3534C79.3064 77.2424 80.2628 75.9833 81.5871 75.9092C82.1756 75.8352 82.6906 76.0574 83.2056 76.2055C84.6033 76.6499 86.0747 77.0943 87.4725 77.5387" fill="#0ABBEF"/>
<path d="M59.5902 85.8342C60.1787 87.1674 60.473 88.6487 60.5466 90.1301C57.3831 87.9821 54.0726 85.9083 50.8356 83.9085C50.3942 83.6122 49.9528 83.39 49.4378 83.3159C48.9228 83.2418 48.4814 83.3159 47.9664 83.39C46.3479 83.6863 44.803 83.9084 43.1845 84.2047C43.2581 83.464 43.3316 82.7974 43.4788 82.0568C43.4788 81.7605 43.5523 81.4642 43.6995 81.242C43.9202 81.0198 44.2144 80.8717 44.5087 80.7977C46.2744 80.2051 48.04 79.6126 49.8056 79.02C50.1735 78.8719 50.6149 78.7238 50.9827 78.7978C52.4541 78.8719 53.1162 80.7976 54.4404 81.3902" fill="#0ABBEF"/>
<path d="M7.7982 117.905L12.2859 119.979C12.2859 119.979 12.2859 119.979 12.3594 119.979C13.7572 120.571 15.155 121.164 16.4793 121.905C16.2586 119.312 16.7 116.646 17.2149 114.128C19.0541 106.054 22.2176 98.2774 26.9259 91.4633C27.9559 90.056 29.0594 88.5747 30.6779 87.9081C32.6642 87.0933 34.8713 87.6859 36.9312 88.2784L35.092 87.0933C33.0321 86.2786 30.7515 85.9083 28.5444 85.9823L27.8823 86.6489L23.1004 89.9079C23.1004 89.9079 21.629 90.6485 20.3048 92.1299C18.907 93.6112 12.8744 103.832 12.8744 103.832C12.8744 103.832 11.918 106.277 11.1088 108.35C10.1524 110.498 7.7982 117.905 7.7982 117.905Z" fill="#0ABBEF"/>
<path d="M35.3863 122.719L36.2691 121.46C36.2691 121.46 37.814 126.349 38.844 129.682C42.5224 124.201 43.6259 117.238 43.9937 110.498C44.1409 107.61 44.288 104.795 43.8466 101.907C43.5523 99.5365 42.8902 97.1664 42.0074 95.0185L42.081 95.8332C42.5959 104.573 40.4625 113.461 36.0484 121.016C35.7541 121.534 35.4598 121.979 35.3127 122.571C35.3863 122.571 35.3863 122.645 35.3863 122.719Z" fill="#0ABBEF"/>
<path d="M73.5681 72.8725C73.5681 73.465 73.7888 74.0576 74.0095 74.6501C74.2302 75.3167 74.5245 76.0574 74.7452 76.724C74.8188 76.9462 74.8924 77.1684 74.9659 77.4646C76.5109 75.0204 78.0558 72.5762 78.7179 69.7617C79.1593 67.836 79.1593 65.688 78.4236 63.8363C77.0258 63.2438 75.628 62.8735 74.0831 62.8735C74.2302 64.7992 74.3038 66.725 74.1567 68.6507C74.0831 69.3173 74.0095 70.058 73.8624 70.7246C73.7153 71.3912 73.5681 72.1318 73.5681 72.8725Z" fill="#0ABBEF"/>
<path d="M33.7678 340.328C33.7678 340.624 33.7678 340.92 33.8413 341.142C34.2092 339.809 35.3863 338.698 36.5634 337.957C40.0211 335.661 44.3616 334.55 48.4814 335.143C52.6012 335.736 56.5003 337.958 59.0016 341.291C59.7373 342.253 60.3259 343.29 60.8408 344.401C60.9144 344.031 60.9144 343.661 60.988 343.29C61.0615 342.55 61.2087 341.809 61.0616 341.068C60.9144 340.105 60.3259 339.291 59.6637 338.476C58.6338 337.143 57.4567 335.884 56.2061 334.773C55.3232 333.958 54.2933 333.143 53.2633 332.551C50.9827 331.292 48.3343 330.995 45.8329 331.366C43.2581 331.736 40.9039 332.773 38.6968 334.18L38.7704 334.402C37.9612 334.476 37.299 335.143 36.7841 335.735C36.122 336.476 35.5334 337.217 34.9449 338.032C34.3563 338.698 33.8413 339.439 33.7678 340.328Z" fill="white"/>
<path d="M109.102 338.106L109.984 337.735C112.78 336.921 115.576 336.106 118.445 336.106C123.006 336.106 127.273 338.032 131.098 340.55C131.319 340.698 131.613 340.92 131.761 341.142C131.981 341.513 131.908 342.031 131.761 342.402C131.54 342.772 131.246 343.142 130.951 343.438C132.276 343.438 133.6 343.513 134.924 343.587C134.85 343.438 134.777 343.29 134.85 343.068C134.85 342.92 134.998 342.772 135.071 342.624C135.733 341.661 135.66 340.254 135.071 339.217C134.483 338.18 133.526 337.365 132.57 336.698C129.48 334.699 125.728 333.736 122.05 333.884C117.562 334.328 113.074 335.884 109.102 338.106Z" fill="white"/>
<path d="M79.4536 193.379C78.2765 199.379 77.0994 205.452 76.2166 211.526L79.4536 193.379Z" fill="#4C742C"/>
<path d="M75.628 214.488C75.628 214.636 75.7016 214.784 75.7016 214.859C75.8487 213.748 75.9959 212.637 76.143 211.526L75.628 214.488Z" fill="#4C742C"/>
<path d="M95.565 302.998C96.1536 302.257 96.6685 301.443 97.0364 300.628C96.595 301.443 96.08 302.257 95.565 302.998Z" fill="#4C742C"/>
<path d="M98.2135 183.602C100.568 200.712 100.862 218.043 102.039 235.301C103.069 250.559 104.687 265.816 106.894 281C107.557 285.444 108.292 289.888 109.396 294.258C110.352 298.11 111.676 301.887 113.295 305.516C112.78 302.924 112.412 300.998 112.412 300.85C112.339 300.258 109.396 277.223 109.396 277.223C109.396 277.223 106.968 249.744 106.747 247.152C106.527 244.559 104.687 220.043 104.687 220.043L101.892 182.565C101.818 182.491 100.273 183.01 98.2135 183.602Z" fill="white"/>
<path d="M60.1052 277.667C60.9144 278.556 62.0179 279.297 62.3122 280.408C62.4593 281 62.3858 281.593 62.3122 282.185C61.7237 288.851 62.2386 295.665 63.8571 302.183C63.9307 299.591 64.0043 296.925 64.0778 294.332C64.225 290.036 64.3721 285.666 65.6963 281.519C65.8435 281.074 65.9906 280.63 65.9906 280.111C65.9171 278.408 63.6364 276.852 64.5193 275.297C65.1814 274.112 67.462 273.964 67.3148 272.631C67.3148 272.186 67.0206 271.89 66.7263 271.52C66.0642 270.705 65.6228 269.816 65.2549 268.853H65.3285L65.7699 264.631L68.6391 249.226C69.5219 242.189 70.8461 235.153 72.2439 228.191C75.2602 213.081 78.3501 197.971 81.5871 182.936L66.2849 237.671C64.3721 245.374 62.4593 253.077 60.473 260.78C59.7373 263.669 59.0752 266.853 60.3994 269.446C60.9144 270.557 61.8708 271.816 61.2087 272.853C60.7673 273.519 59.8845 273.742 59.443 274.334C58.6338 275.371 59.2959 276.778 60.1052 277.667Z" fill="white"/>
<path d="M80.8514 23.4699C81.7342 25.6179 82.1756 27.914 82.3963 30.21C82.617 32.5061 82.8377 34.8022 82.9849 37.0982C83.2791 41.6904 83.3527 46.2825 82.3227 50.7265C81.8813 52.9485 81.1456 55.0965 79.895 56.8741C78.7179 58.6517 76.8787 60.0589 74.7452 60.4293C73.7153 60.6515 72.5382 60.6515 71.4347 60.5774C70.3311 60.5774 69.154 60.4293 68.0505 60.2811C65.7699 59.9849 63.5629 59.3183 61.4294 58.4295C63.4157 59.6145 65.6228 60.4293 67.9034 60.9477C69.0069 61.244 70.184 61.3921 71.3611 61.5403C72.5382 61.6143 73.7153 61.6884 74.8924 61.5403C76.143 61.3921 77.3201 60.8737 78.3501 60.2071C79.38 59.5405 80.2628 58.6517 80.9985 57.6147C82.3963 55.6149 83.2056 53.2448 83.7205 50.9487C84.2355 48.6527 84.4562 46.2825 84.4562 43.9124C84.4562 41.5422 84.3091 39.2462 84.0148 36.876C83.7205 34.58 83.3527 32.2839 82.9849 29.9878C82.617 27.8399 82.0285 25.5438 80.8514 23.4699Z" fill="black"/>
<path d="M51.8655 42.2829C50.9827 41.6904 50.0999 41.0978 49.0699 40.7275C48.04 40.3572 46.7893 40.209 45.6858 40.7275C44.5823 41.246 43.773 42.2088 43.2581 43.2458C42.7431 44.3568 42.5959 45.5419 42.7431 46.7269C42.9638 49.0971 44.3616 51.245 46.3479 52.5041C48.3343 53.6892 50.762 54.0595 53.0426 53.467L52.2334 53.0226C52.8219 55.0224 53.2633 57.0222 53.7047 59.0961C54.1461 61.1699 54.4404 63.2438 54.7347 65.3177C54.8818 63.1698 54.8083 61.0959 54.5875 58.9479C54.3668 56.8 53.999 54.7261 53.484 52.6523C53.4105 52.2819 53.0426 52.1338 52.7484 52.1338C50.8356 52.5041 48.7757 52.2079 47.0836 51.1709C45.3915 50.2081 44.288 48.4305 43.9937 46.5047C43.8466 45.5419 43.9202 44.579 44.288 43.6902C44.6559 42.8014 45.2444 41.9866 46.0536 41.4682C46.8629 41.0238 47.8929 40.9497 48.9228 41.1719C49.9528 41.3941 50.9091 41.8385 51.8655 42.2829Z" fill="black"/>
<path d="M53.0426 48.6527C52.4541 48.8749 51.8655 49.0971 51.277 49.2452C50.6884 49.3933 50.0999 49.5415 49.5113 49.6896L49.8792 49.9118C49.732 49.3193 49.3642 49.023 49.2906 48.6527C49.2171 48.3564 49.2906 48.0601 49.5113 47.7639C49.732 47.4676 50.0999 47.1713 50.3942 46.801C50.6884 46.4307 50.9827 45.9122 50.9091 45.3197C50.8356 45.0234 50.6884 44.7271 50.3942 44.579C50.1735 44.4308 49.8792 44.3568 49.5849 44.3568C49.0699 44.3568 48.6285 44.5049 48.1871 44.6531C47.8193 44.8012 47.3779 44.8753 47.01 44.7271C46.6422 44.579 46.4215 44.1346 46.2744 43.7642C46.3479 44.2087 46.4215 44.7271 46.8629 45.0234C47.3043 45.3197 47.8193 45.2456 48.2607 45.1715C48.7021 45.0975 49.0699 44.9493 49.5113 45.0234C49.8792 45.0234 50.0999 45.2456 50.1735 45.5419C50.1735 45.8381 50.0999 46.2085 49.8056 46.4307C49.5113 46.7269 49.2171 47.0232 48.9228 47.4676C48.7757 47.6898 48.6285 47.912 48.555 48.2083C48.4814 48.5045 48.555 48.8008 48.6285 49.0971C48.8492 49.6155 49.2171 49.9118 49.2906 50.2081C49.3642 50.3562 49.5114 50.4303 49.6585 50.4303C50.247 50.2821 50.8356 50.0599 51.4241 49.7637C52.0127 49.3193 52.5276 49.023 53.0426 48.6527Z" fill="black"/>
<path d="M53.1898 26.877C53.1162 28.2843 53.1898 29.6916 53.3369 31.0988C53.484 32.5061 53.7783 33.9134 54.1461 35.2466C54.514 36.6538 54.9554 37.987 55.4704 39.2462C55.9853 40.5794 56.5739 41.8385 57.3096 43.0976L57.5303 42.2829C57.0153 42.6532 56.5003 43.0236 55.9853 43.3199L55.1761 43.8383C54.9554 43.9864 54.5876 44.2827 54.4404 44.3568C54.3669 44.3568 54.3668 44.4309 54.2933 44.3568C54.2197 44.3568 54.1461 44.2827 53.999 44.2086C53.7783 43.9864 53.5576 43.7643 53.3369 43.5421C52.8955 43.0976 52.4541 42.6532 51.9391 42.2088C52.2334 42.8014 52.6012 43.3198 52.8955 43.8383C53.0426 44.1346 53.1898 44.3568 53.4105 44.6531C53.484 44.8012 53.6312 44.9493 53.8519 45.0975C54.0726 45.2456 54.3668 45.2456 54.5876 45.1715C55.029 45.0234 55.2497 44.8753 55.5439 44.7271L56.3532 44.2827C56.9417 43.9865 57.4567 43.6902 58.0453 43.3939C58.3395 43.2458 58.4131 42.8755 58.3395 42.5792V42.5051C57.751 41.246 57.236 39.9868 56.721 38.7277C56.2061 37.4686 55.7646 36.1354 55.3232 34.8762C54.8818 33.543 54.514 32.2839 54.1461 30.9507C53.9254 29.5434 53.5576 28.2102 53.1898 26.877Z" fill="black"/>
<path d="M44.7294 41.9866C43.4788 40.135 42.081 38.3574 41.1246 36.4316C40.1682 34.5059 39.6532 32.358 40.7567 30.7285C41.7867 29.025 43.773 28.1362 45.8329 27.6918C47.9664 27.2474 50.1735 26.9511 52.3805 26.7289C50.1735 26.3586 47.8929 26.2845 45.6122 26.5808C44.4352 26.7289 43.3316 27.0252 42.2281 27.5436C41.1246 28.0621 40.1682 28.9509 39.5061 29.9878C38.844 31.0988 38.6233 32.5061 38.844 33.6912C39.0647 34.9503 39.5797 35.9872 40.1682 37.0242C41.3453 38.9499 42.9638 40.5053 44.7294 41.9866Z" fill="black"/>
<path d="M80.4835 11.6193C81.6606 10.2861 82.4699 8.58253 82.7641 6.73086C83.0584 4.95325 82.9113 3.02752 82.2492 1.24992C82.1756 1.02771 81.8813 0.953647 81.6606 1.02771C81.5871 1.02771 81.5135 1.10178 81.4399 1.17585C80.8514 2.06465 79.895 2.65718 78.9386 3.10158C77.9822 3.54599 76.8787 3.76819 75.7752 3.84225C73.5681 4.06445 71.214 3.91632 68.9333 4.21259C64.2985 4.80512 59.8109 5.84206 55.4704 7.54559C51.1299 9.24913 47.01 11.7674 43.9202 15.3226C43.1109 16.2114 42.3752 17.1002 41.7867 18.1371C41.1981 19.1741 40.6832 20.2851 40.6096 21.5442C40.536 22.1367 40.6096 22.8034 40.8303 23.3218C41.051 23.9144 41.3453 24.4328 41.7131 24.8772C42.4488 25.766 43.3316 26.5067 44.0673 27.4696C43.4788 26.5067 42.6695 25.6179 42.0074 24.7291C41.3453 23.8403 41.051 22.7293 41.1982 21.6183C41.3453 20.5813 41.8603 19.5444 42.5224 18.6556C43.1845 17.7668 43.9202 16.878 44.7294 16.0633C47.8928 12.8043 51.8655 10.5823 56.0589 8.95286C58.1924 8.13812 60.3259 7.54559 62.5329 6.95306C64.74 6.43459 66.947 5.99019 69.2276 5.69392C70.3311 5.54579 71.4347 5.47172 72.6117 5.39765C73.7153 5.32359 74.8924 5.32359 76.0694 5.17545C77.2465 5.02732 78.4236 4.73105 79.5271 4.13852C80.6307 3.62005 81.6606 2.80532 82.3227 1.76838L81.5871 1.69431C82.3227 3.24972 82.617 5.02732 82.4699 6.80492C82.102 8.43439 81.5135 10.1379 80.4835 11.6193Z" fill="black"/>
<path d="M60.8408 14.5079C62.6065 13.0265 64.5928 11.9155 66.7999 11.323C67.9034 10.9527 69.0069 10.8045 70.1104 10.6564C71.2139 10.5083 72.3175 10.5083 73.421 10.5823C74.5245 10.6564 75.628 10.8786 76.658 11.1749C77.6879 11.4711 78.7915 11.9155 79.9686 12.2118C81.1457 12.5081 82.5434 12.3599 83.7205 11.7674C84.8976 11.1749 85.7804 10.1379 86.2954 8.87879L85.0448 8.95286C85.7804 10.5823 85.854 12.434 85.5597 14.2857C85.2655 16.1373 84.6769 17.989 83.8677 19.6185C83.0584 21.2479 81.7342 22.6552 80.1157 23.1737C78.4972 23.6922 76.5844 23.3959 74.6716 23.1737L68.9333 22.3589C67.0206 22.0627 65.1078 21.8405 63.195 21.6183C62.2386 21.5442 61.2087 21.4701 60.1787 21.6183C59.1488 21.7664 58.1924 22.2849 57.4567 22.9515C55.9118 24.2106 54.8818 25.9142 53.3369 27.1733C54.9554 26.1364 56.1325 24.4328 57.6774 23.3959C58.4131 22.8774 59.2959 22.5071 60.2523 22.3589C61.1351 22.2849 62.0915 22.359 63.0479 22.5071C66.8734 23.1737 70.699 23.8403 74.4509 24.5069C75.4073 24.655 76.3637 24.8772 77.3937 24.8772C78.4236 24.9513 79.4536 24.8772 80.4835 24.581C81.5135 24.2847 82.4699 23.6181 83.2056 22.8774C83.9412 22.1367 84.6033 21.2479 85.0448 20.3591C86.0011 18.5075 86.5897 16.5817 86.884 14.5819C87.1782 12.5821 87.1782 10.3601 86.2219 8.4344C86.0747 8.06406 85.6333 7.91593 85.339 8.13813C85.1919 8.21219 85.0448 8.36033 84.9712 8.50846C84.6769 9.39726 83.9412 10.212 83.132 10.7305C82.2492 11.2489 81.2928 11.323 80.2628 11.1749C79.2329 11.0267 78.1294 10.5823 77.0258 10.2861C75.9223 9.9898 74.7452 9.84166 73.5681 9.7676C71.2139 9.69353 68.8598 10.0639 66.7263 10.9527C64.4457 11.6193 62.4593 12.8784 60.8408 14.5079Z" fill="black"/>
<path d="M85.854 15.767C84.9712 15.9151 84.2355 15.8411 83.4998 15.6929C82.7641 15.5448 81.9549 15.3226 81.1456 15.1745C80.3364 15.0263 79.5271 14.9523 78.7179 14.9523C77.9086 14.9523 77.0258 14.9523 76.2166 15.1004C76.9523 15.5448 77.7615 15.8411 78.5708 16.0633C79.38 16.2855 80.1893 16.5077 80.9985 16.6558C81.8078 16.8039 82.617 16.878 83.4998 16.878C84.3826 16.8039 85.339 16.4336 85.854 15.767Z" fill="black"/>
<path d="M84.6769 19.3222C83.0584 19.2481 81.5135 18.8037 80.0421 18.2112C78.5708 17.6187 77.0994 16.9521 75.4809 16.4336C74.6717 16.2114 73.7888 16.0633 72.906 16.0633C72.0232 16.0633 71.1404 16.2114 70.3311 16.5077C68.7126 17.0261 67.3148 17.989 66.0642 19.1C67.6091 18.5075 69.0805 17.9149 70.6254 17.6187C72.0968 17.3224 73.5681 17.4705 75.1131 17.9149C76.5844 18.2853 78.1294 18.9519 79.7479 19.3222C81.3664 19.7666 83.132 19.9147 84.6769 19.3222Z" fill="black"/>
<path d="M63.1215 5.99019C61.503 6.50866 59.8845 7.32339 58.4867 8.21219C57.0153 9.17506 55.6911 10.2861 54.514 11.6933C53.9254 12.3599 53.4105 13.1006 52.9691 13.8413C52.5276 14.5819 52.1598 15.3967 51.8655 16.2855C51.277 17.989 51.0563 19.7666 51.277 21.4701C51.6448 19.7666 52.1598 18.2112 52.8955 16.7299C53.6312 15.2485 54.5875 13.9153 55.6175 12.6562C56.6475 11.3971 57.8981 10.2861 59.1488 9.17506C60.3994 8.13813 61.7972 7.10119 63.1215 5.99019Z" fill="black"/>
<path d="M53.6312 9.10099C52.6012 9.69353 51.7184 10.5083 50.9827 11.3971C50.247 12.2859 49.5849 13.3228 49.1435 14.4338C48.7021 15.5448 48.4078 16.7299 48.2607 17.9149C48.1136 19.1 48.1871 20.2851 48.4814 21.4701C48.7757 20.2851 49.0699 19.2481 49.3642 18.1371C49.6585 17.1002 50.0999 16.0633 50.4677 15.0263C50.9091 13.9894 51.3506 13.0265 51.9391 12.0637C52.4541 11.1008 53.0426 10.1379 53.6312 9.10099Z" fill="black"/>
<path d="M47.8929 12.434C47.2307 12.9525 46.7158 13.6931 46.3479 14.5079C45.9801 15.2485 45.6858 16.1373 45.6122 16.9521C45.4651 17.8409 45.4651 18.6556 45.6122 19.5444C45.7594 20.4332 46.0536 21.2479 46.5686 21.9145L46.7893 19.4703C46.8629 18.6556 46.9365 17.9149 47.0836 17.1743C47.2307 16.4336 47.3043 15.6189 47.4514 14.8782C47.5986 14.0635 47.8193 13.2487 47.8929 12.434Z" fill="black"/>
<path d="M49.6585 26.6548C49.2171 27.4696 49.0699 28.4324 49.1435 29.3953C49.2171 30.3582 49.3642 31.247 49.6585 32.1358C49.9528 33.0246 50.3206 33.8393 50.8356 34.654C51.3506 35.3947 52.0127 36.1354 52.8955 36.5798C52.5276 35.765 52.1598 34.9503 51.8655 34.1356C51.5713 33.3208 51.3506 32.5061 51.0563 31.6914C50.762 30.8766 50.5413 30.0619 50.247 29.2472C49.9528 28.4324 49.8056 27.6177 49.6585 26.6548Z" fill="black"/>
<path d="M47.3043 26.877C46.3479 28.2843 46.2008 30.136 46.6422 31.7654C46.8629 32.5802 47.2307 33.3208 47.6721 34.0615C48.1136 34.7281 48.7021 35.3947 49.3642 35.8391C49.2171 35.0244 48.9228 34.2837 48.7021 33.543C48.4814 32.8024 48.2607 32.1358 48.04 31.3951C47.8193 30.6544 47.6721 29.9878 47.5986 29.2472C47.4514 28.4324 47.4514 27.6918 47.3043 26.877Z" fill="black"/>
<path d="M44.9501 27.2474C44.4352 27.914 44.1409 28.8028 43.9202 29.6175C43.773 30.5063 43.773 31.3951 43.9202 32.2098C44.0673 33.0986 44.3616 33.9134 44.803 34.654C45.2444 35.3947 45.8329 36.0613 46.5686 36.5057C46.2744 35.691 46.0536 34.9503 45.8329 34.2096C45.6122 33.469 45.4651 32.7283 45.318 31.9876C45.1708 31.247 45.0973 30.5063 45.0237 29.6916C45.0237 28.8768 45.0237 28.0621 44.9501 27.2474Z" fill="black"/>
<path d="M42.3752 28.1362C41.7131 28.5806 41.051 29.3212 40.8303 30.21C40.6096 31.0988 40.6096 31.9876 40.7567 32.8024C40.9039 33.6171 41.1981 34.5059 41.6396 35.2466C42.081 35.9872 42.7431 36.6538 43.4788 37.0242C43.1845 36.2094 42.8902 35.5428 42.6695 34.8022C42.4488 34.0615 42.3017 33.3949 42.1545 32.6542C42.0074 31.9136 41.9338 31.1729 41.9338 30.4322C41.9338 29.7656 42.1545 29.025 42.3752 28.1362Z" fill="black"/>
<path d="M68.0505 31.3951C67.9034 30.6544 67.6091 29.9878 67.0206 29.4694C66.7263 29.1731 66.3585 28.9509 65.917 28.8028C65.4756 28.6546 65.0342 28.6546 64.5928 28.7287C63.7836 28.8768 63.1215 29.3212 62.6065 29.9138C62.0915 30.5063 61.7972 31.1729 61.7972 31.9136C62.3858 31.4692 62.8272 31.0248 63.3422 30.8026C63.8571 30.5063 64.3721 30.2841 64.8871 30.21C65.4021 30.136 65.7699 30.136 66.2849 30.3582C66.8734 30.5804 67.3884 31.0248 68.0505 31.3951Z" fill="black"/>
<path d="M80.7778 28.8768C80.6307 28.2102 80.2628 27.6177 79.7479 27.1733C79.4536 26.9511 79.0857 26.7289 78.7179 26.6548C78.3501 26.5808 77.8351 26.5808 77.4672 26.7289C76.7316 27.0252 76.2166 27.4696 75.7752 27.988C75.3338 28.5065 75.0395 29.1731 75.0395 29.8397C75.628 29.4694 76.0694 29.1731 76.5844 28.8768C77.0258 28.5806 77.5408 28.2843 77.9822 28.1362C78.3501 27.988 78.6443 27.988 79.1593 28.1362C79.6743 28.3584 80.1893 28.6546 80.7778 28.8768Z" fill="black"/>
<path d="M72.6117 35.9872C72.7589 38.2092 73.4946 40.3572 74.5245 42.2829C74.8188 42.8014 75.0395 43.2458 75.3338 43.6902C75.4809 43.9124 75.628 44.1346 75.7752 44.3568C75.8487 44.5049 75.9223 44.579 75.9223 44.579C75.9223 44.579 75.9223 44.579 75.9223 44.5049C75.9223 44.5049 75.9223 44.5049 75.8487 44.5049C74.9659 45.0234 73.936 45.4678 72.906 45.69C74.0095 45.69 75.1131 45.4678 76.143 45.0234C76.2166 45.0234 76.2902 44.9493 76.4373 44.8012C76.5109 44.6531 76.5109 44.4309 76.5109 44.3568C76.4373 44.1346 76.3637 44.0605 76.2902 43.9124C76.143 43.6902 75.9959 43.468 75.8487 43.2458C75.5545 42.8014 75.3338 42.357 75.0395 41.8385C74.1567 39.9868 73.3474 38.0611 72.6117 35.9872Z" fill="black"/>
<path d="M76.658 51.8375C75.4809 51.5413 74.2302 51.3931 73.1267 51.0228C72.0232 50.7265 70.9932 50.2081 70.0369 49.3933C70.2576 49.9859 70.699 50.5043 71.2139 50.8747C71.7289 51.245 72.3175 51.5413 72.906 51.6894C74.2302 52.1338 75.4809 52.1338 76.658 51.8375Z" fill="black"/>
<path d="M70.2576 48.2083C69.8162 48.5786 69.5955 49.023 69.4483 49.4674C69.3012 49.9118 69.2276 50.3562 69.3012 50.9487C69.7426 50.5784 69.9633 50.134 70.1104 49.6896C70.3311 49.2452 70.4047 48.7267 70.2576 48.2083Z" fill="black"/>
<path d="M61.8708 45.3197C61.8708 46.6529 62.9008 47.9861 64.3721 48.0601C65.1078 48.1342 65.8435 47.8379 66.3585 47.3935C66.8734 46.8751 67.2413 46.1344 67.2413 45.3937C67.2413 44.6531 66.947 43.9124 66.3585 43.3939C65.8435 42.8754 65.0342 42.6532 64.3721 42.7273C62.9743 42.6532 61.8708 43.9865 61.8708 45.3197ZM61.8708 45.3197C61.8708 44.6531 62.1651 43.9865 62.6801 43.5421C63.195 43.0976 63.7836 42.8754 64.4457 42.9495C65.6963 43.0236 66.5792 44.1346 66.5792 45.3197C66.5792 46.4307 65.6963 47.6157 64.4457 47.6898C63.8571 47.7639 63.195 47.5417 62.6801 47.0973C62.1651 46.6529 61.8708 45.9863 61.8708 45.3197Z" fill="black"/>
<path d="M80.1157 43.9865C80.1157 44.8753 80.4835 45.69 81.2192 46.2825C81.5871 46.5788 82.0285 46.801 82.5434 46.8751C83.0584 46.9491 83.5734 46.9491 84.0884 46.7269C84.2355 46.6529 84.3091 46.5047 84.3826 46.3566V46.2085C84.6769 44.7271 84.7505 43.1717 84.5298 41.6904V41.5422C84.5298 41.3941 84.3826 41.246 84.2355 41.1719C83.7205 40.9497 83.2056 40.8756 82.6906 40.9497C82.1756 41.0238 81.7342 41.246 81.3663 41.5422C80.4835 42.2829 80.1157 43.1717 80.1157 43.9865ZM80.1157 43.9865C80.1157 43.5421 80.2628 43.0977 80.4835 42.7273C80.7042 42.357 81.0721 42.1348 81.4399 41.9866C81.8078 41.8385 82.2492 41.8385 82.617 41.9126C82.9849 41.9866 83.2791 42.1348 83.5734 42.357L83.2791 41.8385C83.132 43.3199 83.132 44.7271 83.2056 46.2085L83.4998 45.7641C82.9849 46.1344 82.1756 46.3566 81.4399 45.9863C81.0721 45.8381 80.7042 45.5419 80.4835 45.1715C80.2628 44.8753 80.1157 44.4309 80.1157 43.9865Z" fill="black"/>
<path d="M65.917 40.2831C65.3888 40.2831 64.9607 39.0562 64.9607 37.5426C64.9607 36.0291 65.3888 34.8022 65.917 34.8022C66.4452 34.8022 66.8734 36.0291 66.8734 37.5426C66.8734 39.0562 66.4452 40.2831 65.917 40.2831Z" fill="black"/>
<path d="M78.865 38.3574C78.2962 38.3574 77.8351 37.0641 77.8351 35.4688C77.8351 33.8734 78.2962 32.5802 78.865 32.5802C79.4339 32.5802 79.895 33.8734 79.895 35.4688C79.895 37.0641 79.4339 38.3574 78.865 38.3574Z" fill="black"/>
<path d="M73.5681 61.0218C73.3474 61.9847 73.2739 63.0216 73.2003 63.9845C73.1267 64.9474 73.1267 65.9102 73.1267 66.8731C73.1267 67.836 73.1267 68.7988 73.2003 69.7617C73.2739 70.7246 73.3474 71.6874 73.5681 72.7244C73.936 71.7615 74.1567 70.7986 74.3038 69.8358C74.4509 68.8729 74.5245 67.836 74.5245 66.8731C74.5245 65.9102 74.4509 64.8733 74.3038 63.9104C74.1567 62.9476 74.0095 61.9847 73.5681 61.0218Z" fill="black"/>
<path d="M7.7982 118.127C8.90172 114.35 10.226 110.721 11.8445 107.165C13.463 103.61 15.3022 100.129 17.4356 96.9442C19.5691 93.7593 22.0704 90.6485 25.3074 88.7969C26.9259 87.908 28.7651 87.2415 30.5308 87.1674C32.37 87.0193 34.2092 87.4637 35.7541 88.3525C37.299 89.3153 38.5497 90.7226 39.5061 92.278C40.4625 93.9075 40.9774 95.6851 41.1981 97.5367C41.6396 101.314 40.9774 105.166 40.0211 108.869C38.0347 116.35 34.577 123.46 29.8686 129.608L30.5308 129.46C26.8524 127.238 23.1739 125.164 19.3484 123.238C15.5229 121.312 11.6973 119.535 7.72465 117.905C11.5502 119.757 15.3022 121.683 19.0541 123.83C22.7325 125.904 26.4109 128.052 30.0158 130.348C30.2365 130.496 30.5308 130.422 30.6779 130.274C35.6805 124.127 39.2854 116.942 41.3453 109.239C42.3752 105.462 43.1845 101.388 42.6695 97.3145C42.1545 93.3149 40.0946 89.2413 36.4898 87.0933C34.7241 85.9823 32.5171 85.612 30.4572 85.7601C28.3973 85.9083 26.411 86.6489 24.6453 87.6118C22.8797 88.6487 21.4083 90.056 20.0841 91.5373C18.7599 93.0187 17.6563 94.6481 16.6264 96.3517C14.5665 99.6847 12.8008 103.24 11.3295 106.869C9.85811 110.498 8.60745 114.276 7.7982 118.127Z" fill="#174075"/>
<path d="M32.2228 127.238C30.5308 125.756 28.6916 124.497 26.8524 123.312C25.0132 122.127 23.0268 121.016 21.114 119.979C19.1277 118.942 17.1414 118.053 15.0815 117.238C13.0216 116.424 10.9616 115.683 8.75461 115.165C10.6674 116.276 12.6537 117.313 14.5665 118.275L20.3784 121.312L26.2638 124.349C28.2502 125.312 30.2365 126.349 32.2228 127.238Z" fill="#174075"/>
<path d="M25.1603 126.793C24.2039 127.904 23.4682 129.163 22.7325 130.422C22.0704 131.682 21.4083 133.015 20.8933 134.348C20.3784 135.681 19.8634 137.088 19.4956 138.496C19.1277 139.903 18.8334 141.31 18.6863 142.792C19.422 141.532 20.0105 140.199 20.5255 138.866C21.1141 137.533 21.629 136.274 22.2176 134.94C22.7326 133.607 23.2475 132.274 23.7625 130.941C24.2775 129.608 24.7925 128.274 25.1603 126.793Z" fill="black"/>
<path d="M9.196 118.572C5.81187 125.016 3.08986 131.83 1.10352 138.866C0.588541 140.644 -4.76837e-07 142.421 -4.76837e-07 144.347C-4.76837e-07 145.31 0.147119 146.347 0.588528 147.236C1.02994 148.124 1.6185 148.939 2.28061 149.606C2.94273 150.272 3.60483 150.939 4.26694 151.531L6.2533 153.383L10.2995 157.012C15.7436 161.827 21.2612 166.493 27.0731 170.863C28.5444 171.974 29.9422 173.011 31.4871 174.048L33.6942 175.603L34.7977 176.344C35.1656 176.566 35.607 176.862 36.1219 177.01C37.1519 177.307 38.1083 176.936 38.9911 176.714C39.8739 176.418 40.6832 176.122 41.566 175.825C43.2581 175.159 44.9501 174.418 46.4951 173.603C44.803 174.344 43.1109 174.937 41.4188 175.455C40.536 175.751 39.7268 175.973 38.844 176.196C37.9611 176.418 37.0783 176.64 36.3427 176.344C35.607 176.048 34.9449 175.381 34.2092 174.862L32.0757 173.233C30.6779 172.122 29.2065 171.011 27.8087 169.9C22.144 165.382 16.7 160.642 11.3295 155.827L7.28324 152.198C5.95901 151.013 4.56122 149.754 3.31057 148.569C2.72202 147.976 2.20704 147.31 1.8392 146.569C1.47136 145.828 1.32421 145.014 1.32421 144.199C1.32421 142.495 1.76564 140.792 2.20705 139.014C4.04625 132.126 6.32685 125.238 9.196 118.572Z" fill="black"/>
<path d="M13.6101 140.199C16.185 141.236 18.4656 142.94 20.5255 144.865C22.5854 146.791 24.4246 148.865 26.2638 151.013L37.2255 163.827C37.4462 164.049 37.6669 164.123 37.9612 164.049C40.6096 163.16 43.2581 162.419 45.9065 161.753C47.2307 161.382 48.6285 161.086 49.9528 160.79C50.6149 160.642 51.277 160.494 51.9391 160.419C52.6012 160.345 53.1898 160.494 53.7783 160.79C54.3669 161.086 54.9554 161.456 55.5439 161.827L57.236 163.012C58.4131 163.827 59.5166 164.641 60.6201 165.456C61.7237 166.271 62.8272 167.16 63.2686 168.493C63.4893 169.159 63.3422 169.9 62.9008 170.418C62.5329 171.011 61.8708 171.381 61.1351 171.233C61.7972 171.455 62.5329 171.085 62.9743 170.493C63.4157 169.9 63.6364 169.159 63.4157 168.419C63.2686 167.678 62.8272 167.085 62.3858 166.567C61.9444 166.049 61.3558 165.604 60.8409 165.086C59.7373 164.197 58.6338 163.308 57.5303 162.493L55.8382 161.234C55.2497 160.79 54.7347 160.419 54.0726 160.049C53.4105 159.679 52.6012 159.457 51.8655 159.531C51.1299 159.531 50.3942 159.679 49.7321 159.753C48.3343 159.975 47.01 160.271 45.6122 160.494C42.8902 161.086 40.1682 161.679 37.4462 162.493L38.1819 162.716L26.6317 150.42C24.7189 148.347 22.8061 146.347 20.5991 144.495C18.6127 142.717 16.2586 141.088 13.6101 140.199Z" fill="black"/>
<path d="M73.6417 72.354C72.2439 72.8725 70.8461 73.3169 69.4483 73.6872C68.0505 74.0576 66.6527 74.3538 65.2549 74.576C63.8571 74.7982 62.4593 74.8723 60.988 74.9464C59.5902 74.9464 58.1188 74.9464 56.6475 74.8723C57.9717 75.5389 59.4431 75.9092 60.988 76.1314C62.4593 76.3536 64.0043 76.3536 65.4756 76.1314C66.947 75.9092 68.4184 75.4648 69.8162 74.8723C71.2875 74.2057 72.6117 73.391 73.6417 72.354Z" fill="black"/>
<path d="M59.8109 86.3527C60.473 90.6485 61.2087 94.9444 61.7972 99.1662C62.3858 103.462 63.0479 107.758 63.5629 112.054C64.4457 120.646 65.917 129.237 67.0206 137.829C67.5355 142.125 68.0505 146.421 68.4184 150.791L69.4483 163.752C70.1104 172.418 70.2576 181.01 70.0369 189.676L70.8461 188.935C68.4919 188.861 66.1378 188.787 63.7836 188.713C61.4294 188.565 59.0752 188.417 56.721 188.194C54.3669 187.972 52.0127 187.75 49.6585 187.38C47.3043 187.083 44.9501 186.713 42.596 186.343L42.9638 186.787C43.1109 183.158 43.2581 179.603 43.3316 175.973C43.3316 175.899 43.3316 175.899 43.2581 175.899C43.1845 175.899 43.1845 175.899 43.1845 175.973C42.8167 179.529 42.4488 183.158 42.1545 186.713C42.1545 186.935 42.3017 187.083 42.4488 187.158C44.803 187.676 47.0836 188.12 49.4378 188.491C51.792 188.861 54.1461 189.231 56.5003 189.528C58.8545 189.824 61.2087 190.046 63.6364 190.194C65.9906 190.342 68.4184 190.491 70.7725 190.491C71.214 190.491 71.5818 190.12 71.5818 189.75C71.6554 185.38 71.5818 181.084 71.4347 176.714C71.3611 174.566 71.214 172.344 71.0668 170.196L70.8461 166.937C70.7725 165.826 70.6254 164.789 70.4783 163.678C69.3747 155.087 68.4184 146.421 67.5355 137.829C66.7263 129.163 65.9906 120.572 64.8871 111.906C64.2985 107.61 63.5629 103.314 62.7536 99.0921C61.9444 94.7963 60.988 90.5745 59.958 86.3527C59.958 86.2786 59.8845 86.2786 59.8845 86.2786C59.8109 86.2786 59.8109 86.3527 59.8109 86.3527Z" fill="#174075"/>
<path d="M36.2691 121.386C36.8576 124.793 37.7404 128.052 38.7704 131.385C39.7268 134.644 40.8303 137.903 41.7131 141.162C42.6695 144.421 43.4052 147.68 43.9202 151.087C44.4352 154.42 44.5823 157.827 44.3616 161.234C45.1708 157.901 45.318 154.42 45.0237 150.939C44.7294 147.458 43.9937 144.125 43.1109 140.792C42.1545 137.459 41.051 134.274 39.8004 131.015C38.6233 127.83 37.4462 124.645 36.2691 121.386Z" fill="#174075"/>
<path d="M107.115 158.197C107.262 159.086 107.557 159.827 107.63 160.568C107.777 161.308 107.777 161.975 107.557 162.493C107.336 163.086 106.895 163.752 106.453 164.419C106.012 165.086 105.644 165.826 105.35 166.641C106.085 166.197 106.747 165.678 107.336 165.086C107.924 164.493 108.513 163.901 108.954 162.938C109.322 161.975 109.175 160.864 108.807 160.123C108.366 159.382 107.777 158.716 107.115 158.197Z" fill="black"/>
<path d="M108.513 162.493C108.439 163.53 108.954 164.419 109.102 165.234C109.322 166.049 109.102 166.493 108.587 167.308C108.145 168.122 107.704 168.863 107.189 169.456C106.674 170.048 106.012 170.567 105.055 170.715C105.497 171.011 106.012 171.011 106.527 170.937C107.042 170.863 107.557 170.641 107.998 170.344C108.881 169.752 109.396 168.863 109.911 168.048C110.131 167.678 110.426 167.16 110.499 166.567C110.573 165.974 110.426 165.308 110.205 164.863C109.69 163.827 109.028 163.308 108.513 162.493Z" fill="black"/>
<path d="M109.837 166.567C109.837 167.085 109.911 167.604 109.911 168.122L109.984 168.863C109.984 169.085 110.058 169.382 110.058 169.53C110.058 169.678 110.058 169.678 109.911 169.826C109.837 169.974 109.617 170.196 109.469 170.344C109.175 170.715 108.881 171.085 108.587 171.455L107.777 172.64C107.483 173.011 107.189 173.307 106.894 173.529C106.6 173.751 106.306 173.9 105.865 173.826C105.497 173.826 105.055 173.603 104.835 173.085C104.761 173.307 104.835 173.677 104.982 173.9C105.129 174.122 105.35 174.344 105.644 174.492C105.938 174.64 106.232 174.714 106.527 174.714C106.821 174.714 107.115 174.64 107.409 174.492C107.998 174.27 108.366 173.826 108.734 173.455C109.102 173.085 109.396 172.64 109.69 172.27C109.984 171.9 110.279 171.455 110.573 171.011C110.72 170.789 110.867 170.641 111.014 170.344C111.088 170.196 111.161 170.048 111.235 169.826C111.235 169.604 111.235 169.382 111.161 169.233C111.088 168.937 110.941 168.715 110.867 168.493L110.499 167.826C110.426 167.456 110.131 167.011 109.837 166.567Z" fill="black"/>
<path d="M76.4373 83.0196C76.658 87.3155 76.9523 91.6114 77.173 95.9813L78.0558 108.869C78.6443 117.461 79.3065 126.127 79.9686 134.718C80.3364 139.014 80.7042 143.31 81.0721 147.606L82.2492 160.493C82.6906 164.789 83.0584 169.085 83.4263 173.381C83.8677 177.677 84.0884 181.973 84.3091 186.269C84.3091 186.417 84.4562 186.491 84.5298 186.491C87.1047 186.417 89.6796 186.121 92.1809 185.528C94.6822 185.01 97.1835 184.269 99.6113 183.38C100.788 182.936 102.039 182.417 103.143 181.825C103.731 181.528 104.32 181.232 104.908 180.936C105.202 180.788 105.497 180.64 105.791 180.417C105.938 180.269 106.085 180.121 106.232 179.899C106.38 179.677 106.38 179.455 106.38 179.232C106.38 178.788 106.306 178.492 106.306 178.195L106.159 177.233L105.938 175.307L105.423 171.455C104.172 161.234 103.143 150.939 102.48 140.644L102.039 132.941C101.892 130.348 101.745 127.756 101.745 125.238C101.671 120.053 101.745 114.942 101.745 109.758C101.745 104.573 101.892 99.4625 102.039 94.2778C102.113 91.6855 102.26 89.0931 102.407 86.5748C102.48 85.3157 102.554 83.9825 102.701 82.7234C102.775 81.4642 102.995 80.131 103.143 78.8719C103.143 78.7238 103.069 78.5756 102.995 78.5016C101.745 77.5387 100.494 76.724 99.1698 76.0574C97.8456 75.3167 96.4478 74.7982 95.05 74.2057C93.6522 73.6872 92.1809 73.2428 90.7095 72.8725C89.9738 72.6503 89.2381 72.5762 88.5025 72.354C87.7668 72.2059 87.0311 72.1318 86.2954 71.9837C86.2219 71.9837 86.2219 71.9837 86.2219 72.0578C86.2219 72.1318 86.2219 72.1318 86.2954 72.1318C87.0311 72.28 87.7668 72.4281 88.5025 72.5762C89.2381 72.7984 89.9738 72.9466 90.6359 73.1688C92.0337 73.6132 93.5051 74.0576 94.8293 74.6501C96.2271 75.2426 97.5513 75.9092 98.802 76.5758C100.053 77.3165 101.377 78.1312 102.48 79.02L102.333 78.6497C102.113 79.9088 101.892 81.168 101.745 82.5012C101.598 83.7603 101.45 85.0935 101.303 86.3527C101.083 88.945 100.862 91.5373 100.715 94.1297C100.421 99.3143 100.273 104.499 100.126 109.684C100.053 114.868 99.9791 120.053 100.053 125.238C100.126 130.422 100.494 135.607 100.862 140.792C101.598 151.087 102.701 161.456 104.172 171.678L105.35 179.306C105.35 179.529 105.276 179.603 105.129 179.825C104.982 179.973 104.687 180.121 104.393 180.269C103.878 180.566 103.29 180.862 102.701 181.158C101.598 181.751 100.421 182.269 99.2434 182.788C96.8892 183.75 94.4615 184.565 91.9602 185.084C89.4588 185.602 86.9575 185.972 84.3826 186.047L84.8976 186.269C84.6033 181.973 84.3827 177.677 84.0148 173.381C83.647 169.085 83.4263 164.789 83.132 160.493L82.2492 147.606C81.9549 143.31 81.5871 139.014 81.2928 134.718C80.6307 126.127 79.8214 117.535 79.0857 108.943L77.9087 96.0554C77.4672 91.7595 77.0994 87.4637 76.5844 83.1678C76.5844 83.0937 76.5109 83.0937 76.5109 83.0937C76.5109 82.9456 76.4373 83.0196 76.4373 83.0196Z" fill="#174075"/>
<path d="M50.5413 164.863C51.277 165.012 52.0862 164.938 52.7484 164.938C53.1162 164.938 53.4105 165.012 53.7047 165.16C53.999 165.308 54.2197 165.456 54.4404 165.678C55.544 166.641 56.6475 167.604 57.6774 168.567C58.7074 169.53 59.7373 170.567 60.6202 171.678C60.8409 171.974 61.0616 172.27 61.2087 172.492C61.3558 172.789 61.4294 172.937 61.4294 173.233C61.3558 173.826 60.6937 174.27 60.0316 174.64C60.3994 174.566 60.7673 174.492 61.1351 174.344C61.503 174.196 61.8708 173.9 62.0915 173.455C62.3122 173.011 62.2386 172.418 62.0915 172.048C61.9444 171.604 61.7237 171.307 61.5765 171.011C60.8409 169.678 59.8109 168.493 58.7074 167.456C57.6038 166.419 56.3532 165.53 55.1761 164.715C54.8818 164.493 54.4404 164.271 53.999 164.197C53.5576 164.123 53.1162 164.123 52.7484 164.197C51.9391 164.419 51.277 164.715 50.5413 164.863Z" fill="black"/>
<path d="M48.4078 168.345C49.2907 168.419 50.1735 168.493 50.9827 168.567C51.4241 168.567 51.8655 168.567 52.1598 168.641C52.4541 168.715 52.6748 168.937 53.0426 169.233C54.2933 170.344 55.6175 171.455 56.8682 172.64C57.4567 173.233 58.1188 173.826 58.7074 174.418C58.8545 174.566 59.0016 174.714 59.0752 174.862C59.2224 175.011 59.2959 175.159 59.3695 175.233C59.3695 175.233 59.3695 175.307 59.3695 175.381C59.2959 175.529 59.2224 175.751 59.1488 175.899C59.0016 176.27 58.7809 176.566 58.5602 176.788C58.3395 177.01 58.1188 177.01 57.751 176.936C57.3832 176.862 56.9417 176.566 56.5003 176.492C56.0589 176.344 55.6911 176.27 55.2497 176.122C55.6175 176.344 55.9854 176.64 56.3532 176.862C56.721 177.084 57.0153 177.307 57.4567 177.603C57.6774 177.751 57.8981 177.825 58.1924 177.825C58.4867 177.825 58.7809 177.751 59.0752 177.603C59.5902 177.307 59.8845 176.936 60.1787 176.492C60.3259 176.27 60.3994 176.122 60.5466 175.899C60.6201 175.751 60.6937 175.603 60.6937 175.381C60.7673 175.159 60.6937 174.937 60.6202 174.714C60.473 174.344 60.3259 174.196 60.2523 173.974C60.1052 173.751 59.958 173.603 59.8109 173.381C59.2223 172.715 58.5602 172.122 57.9717 171.455C56.6475 170.27 55.3232 169.159 53.8519 168.196C53.484 167.974 53.0426 167.604 52.4541 167.604C51.9391 167.604 51.4977 167.678 51.0563 167.752C50.0999 167.974 49.2171 168.122 48.4078 168.345Z" fill="black"/>
<path d="M45.4651 170.048C47.2307 169.974 49.0699 169.9 50.5413 170.567C50.9091 170.715 51.277 170.937 51.4241 171.159C51.7184 171.455 51.9391 171.752 52.2334 172.122C52.7484 172.789 53.1898 173.529 53.6312 174.27C53.8519 174.64 53.999 175.011 54.1461 175.381C54.1461 175.455 54.2197 175.529 54.2197 175.603V175.677C54.2197 175.751 54.2197 175.899 54.1461 175.973C53.999 176.196 53.8519 176.344 53.5576 176.344C53.2633 176.418 52.9691 176.344 52.6012 176.196C51.9391 175.899 51.2034 175.381 50.5413 174.862C49.8792 174.344 49.2171 173.751 48.555 173.159L48.4814 173.085C48.4078 173.011 48.3343 173.011 48.2607 173.011C47.525 173.233 46.7158 173.455 45.9801 173.677C46.7893 173.677 47.5986 173.677 48.3343 173.603L48.04 173.529C48.555 174.27 49.1435 175.011 49.8056 175.677C50.4677 176.344 51.1298 176.936 52.0862 177.455C52.6012 177.677 53.1162 177.825 53.7783 177.751C54.4404 177.677 55.029 177.233 55.3968 176.714C55.5439 176.418 55.6911 176.122 55.6911 175.751C55.6911 175.677 55.6911 175.529 55.6911 175.455L55.6175 175.233C55.6175 175.085 55.5439 174.937 55.4704 174.862C55.2497 174.344 55.029 173.974 54.8083 173.529C54.2933 172.715 53.7783 171.974 53.1898 171.233C52.8955 170.863 52.6012 170.567 52.2334 170.196C51.792 169.826 51.3506 169.604 50.8356 169.456C49.8792 169.159 48.9228 169.159 48.04 169.233C47.1572 169.53 46.2743 169.752 45.4651 170.048Z" fill="black"/>
<path d="M46.8629 172.344C46.5686 172.344 46.3479 172.418 46.2008 172.492C46.0536 172.566 45.9801 172.64 45.9801 172.715C45.9801 172.789 45.9801 172.863 46.0536 173.011C46.1272 173.085 46.2743 173.233 46.5686 173.455C46.8629 173.455 47.0836 173.381 47.1572 173.381C47.3043 173.307 47.3779 173.233 47.3779 173.159C47.3779 173.085 47.3779 172.937 47.3043 172.863C47.3043 172.566 47.1572 172.492 46.8629 172.344Z" fill="black"/>
<path d="M45.6122 172.64C45.4651 172.937 45.4651 173.159 45.4651 173.307C45.4651 173.455 45.5387 173.603 45.6122 173.677C45.6858 173.751 45.833 173.826 45.9801 173.826C46.1272 173.826 46.3479 173.751 46.6422 173.603C46.7893 173.307 46.7893 173.085 46.7893 172.937C46.7893 172.789 46.7158 172.64 46.6422 172.566C46.5686 172.492 46.4215 172.418 46.2744 172.492C46.0536 172.418 45.9065 172.492 45.6122 172.64Z" fill="black"/>
<path d="M82.3227 155.235C81.2928 154.79 80.1893 154.568 79.1593 154.42C78.0558 154.346 76.9523 154.346 75.9223 154.42C74.8188 154.494 73.7888 154.642 72.7589 154.864C71.7289 155.087 70.699 155.309 69.5955 155.605C70.699 155.901 71.7289 155.975 72.8325 156.049C73.936 156.049 74.9659 156.05 75.9959 155.975C77.0258 155.901 78.0558 155.753 79.1593 155.679C80.1893 155.457 81.2192 155.383 82.3227 155.235Z" fill="black"/>
<path d="M82.5434 157.901C81.5135 157.605 80.41 157.457 79.38 157.383C78.3501 157.309 77.2465 157.235 76.2166 157.309C75.1866 157.309 74.0831 157.383 73.0532 157.531C72.5382 157.605 72.0232 157.679 71.5082 157.753C70.9933 157.901 70.4047 158.049 69.9633 158.346C70.4783 158.346 70.9933 158.346 71.5082 158.42C72.0232 158.494 72.5382 158.568 73.1267 158.568C74.1567 158.642 75.2602 158.716 76.2901 158.642C77.3201 158.642 78.4236 158.568 79.4536 158.42C80.41 158.42 81.5135 158.197 82.5434 157.901Z" fill="black"/>
<path d="M82.6906 160.345C81.6606 160.123 80.5571 160.049 79.5272 160.049C78.4972 160.049 77.3937 160.123 76.3637 160.197C75.3338 160.271 74.3038 160.493 73.2739 160.642C72.2439 160.864 71.214 161.086 70.184 161.382C71.214 161.679 72.3175 161.753 73.3474 161.753C74.3774 161.753 75.4809 161.753 76.5109 161.605C77.5408 161.456 78.5708 161.308 79.6007 161.086C80.6307 161.012 81.6606 160.79 82.6906 160.345Z" fill="black"/>
<path d="M45.7594 72.8725C43.9937 73.8354 42.3017 74.8723 40.6096 76.0574C38.9175 77.1684 37.299 78.3534 35.7541 79.5385C34.1356 80.7236 32.5907 81.9827 31.0457 83.3159C29.5008 84.575 28.0295 85.9083 26.6317 87.3896C28.3973 86.4267 30.0894 85.3898 31.7814 84.2047C33.4735 83.0937 35.092 81.9086 36.6369 80.7236C38.2554 79.5385 39.8004 78.2794 41.3453 76.9462C42.8902 75.687 44.3616 74.3538 45.7594 72.8725Z" fill="#174075"/>
<path d="M46.2744 80.131C45.3915 80.6495 44.5823 81.3161 43.773 81.9827C43.0374 82.6493 42.3017 83.39 41.566 84.1307C40.9039 84.8713 40.2418 85.6861 39.5796 86.5008C38.9911 87.3155 38.4026 88.2043 37.9612 89.1672C38.844 88.6487 39.6532 87.9821 40.4625 87.3155C41.1982 86.6489 41.9338 85.9082 42.6695 85.1676C43.3316 84.4269 43.9938 83.6122 44.6559 82.7974C45.2444 81.9086 45.833 81.0939 46.2744 80.131Z" fill="#174075"/>
<path d="M102.48 82.1308C101.45 81.3161 100.347 80.6495 99.2434 79.9829C98.1399 79.3163 96.9628 78.7978 95.7857 78.2053C94.6086 77.6868 93.4315 77.1684 92.1809 76.724C91.0038 76.2796 89.7531 75.9092 88.4289 75.687C89.4589 76.5018 90.5624 77.1684 91.6659 77.835C92.7694 78.4275 93.9465 79.02 95.1236 79.6126C96.3007 80.131 97.4778 80.6495 98.7284 81.0198C99.9791 81.5383 101.23 81.9086 102.48 82.1308Z" fill="#174075"/>
<path d="M118.813 112.202C121.387 116.35 123.889 120.497 126.316 124.719C126.905 125.756 127.494 126.867 128.009 127.904C128.524 128.941 129.039 130.052 129.406 131.163C129.48 131.311 129.48 131.459 129.48 131.533V131.83C129.48 131.904 129.406 132.052 129.406 132.126C129.406 132.2 129.333 132.348 129.259 132.496C129.039 133.015 128.818 133.533 128.524 134.052C128.009 135.089 127.42 136.2 126.831 137.237C124.477 141.458 121.902 145.606 119.401 149.754C116.9 153.902 114.398 158.049 111.897 162.271C111.897 162.271 111.897 162.271 111.897 162.345C111.382 164.271 110.794 166.197 110.279 168.122C111.014 166.271 111.676 164.419 112.412 162.493V162.567C115.208 158.568 117.93 154.568 120.578 150.42C121.902 148.347 123.227 146.347 124.477 144.199C125.728 142.125 126.979 140.051 128.156 137.903C128.744 136.866 129.333 135.755 129.848 134.644C130.142 134.052 130.363 133.533 130.583 132.867C130.657 132.718 130.657 132.57 130.731 132.348C130.731 132.126 130.804 131.978 130.804 131.756V131.459L130.731 131.163C130.731 131.015 130.657 130.793 130.583 130.645C129.774 128.2 128.45 126.127 127.199 124.053C124.624 119.979 121.829 116.053 118.813 112.202Z" fill="black"/>
<path d="M115.723 132.422C115.355 131.311 114.84 130.274 114.251 129.311C113.663 128.349 113.074 127.386 112.412 126.423C111.75 125.46 111.088 124.571 110.279 123.756C109.543 122.942 108.734 122.053 107.777 121.386C108.292 122.423 108.734 123.46 109.322 124.423C109.911 125.386 110.499 126.349 111.161 127.312C111.824 128.2 112.486 129.163 113.221 129.978C114.031 130.867 114.84 131.682 115.723 132.422Z" fill="black"/>
<path d="M121.682 131.015C120.505 130.496 119.033 130.496 117.783 131.089C117.12 131.311 116.605 131.756 116.017 132.2C115.796 132.422 115.502 132.644 115.281 132.941C115.061 133.237 114.84 133.459 114.619 133.755C113.148 136.051 112.191 138.422 111.088 140.866C110.131 143.31 109.175 145.754 108.292 148.198L107.189 151.457C106.747 151.68 106.085 151.902 105.497 152.05C104.908 152.198 104.246 152.42 103.657 152.568H103.584C103.29 152.642 103.069 152.939 103.143 153.235C103.143 153.309 103.216 153.457 103.29 153.531L106.159 156.42C106.527 156.716 106.747 157.012 106.747 157.309C106.747 157.605 106.6 158.049 106.38 158.42C106.159 158.79 105.938 159.234 105.717 159.605C105.276 160.345 104.687 161.086 104.172 161.827C104.835 161.234 105.497 160.568 106.085 159.827C106.38 159.457 106.674 159.086 106.894 158.716C107.115 158.346 107.483 157.901 107.483 157.309C107.483 157.012 107.409 156.716 107.262 156.42C107.115 156.198 106.968 155.975 106.821 155.827L104.172 152.716L104.025 153.679C104.687 153.531 105.35 153.457 105.938 153.309C106.6 153.161 107.189 153.013 107.924 152.642C108.072 152.568 108.145 152.568 108.292 152.346C108.366 152.198 108.439 152.198 108.439 152.124L108.513 151.976L108.734 151.457L109.102 150.569L109.764 148.717C110.646 146.273 111.529 143.828 112.486 141.384C112.927 140.199 113.442 138.94 113.883 137.755C114.398 136.57 114.84 135.311 115.502 134.274C116.091 133.163 116.973 132.274 118.003 131.607C119.107 131.015 120.431 130.793 121.682 131.015Z" fill="black"/>
<path d="M101.083 123.905C102.26 123.756 103.437 123.312 104.54 122.868C105.644 122.423 106.747 121.905 107.777 121.312C108.881 120.794 109.911 120.127 110.941 119.535C111.971 118.942 113.001 118.275 113.957 117.535C115.943 116.053 117.635 114.276 119.107 112.276C120.505 110.276 121.682 108.054 122.344 105.61C122.417 105.388 122.344 105.24 122.27 105.092C120.725 102.87 119.18 100.648 117.562 98.4255L112.78 91.8336C111.161 89.6116 109.543 87.4637 107.924 85.2417L105.423 81.9827C104.982 81.4642 104.614 80.8717 104.172 80.3532L102.848 78.7978C104.467 81.0198 105.791 83.39 107.336 85.612C108.807 87.9081 110.279 90.1301 111.824 92.4261L116.385 99.1662C117.93 101.388 119.475 103.61 121.02 105.832L120.872 105.24C120.284 107.388 119.18 109.536 117.93 111.461C116.605 113.387 115.061 115.165 113.221 116.646C111.382 118.127 109.396 119.461 107.336 120.72C106.306 121.386 105.276 121.979 104.246 122.497C103.363 123.09 102.26 123.682 101.083 123.905Z" fill="#174075"/>
<path d="M120.137 103.166C118.739 104.943 117.415 106.721 116.017 108.425C114.619 110.128 113.221 111.832 111.676 113.387C110.131 114.942 108.513 116.35 106.747 117.535C104.835 118.646 102.922 119.757 101.083 121.09C103.216 120.349 105.276 119.535 107.262 118.572C109.322 117.535 111.088 116.053 112.706 114.424C114.251 112.795 115.649 111.017 116.9 109.091C118.15 107.239 119.254 105.24 120.137 103.166Z" fill="#174075"/>
<path d="M101.671 348.845C101.23 348.105 100.347 347.734 99.4641 347.734C98.5813 347.66 97.7721 347.957 96.9628 348.179C96.2271 348.401 95.4914 348.697 94.8293 348.697L94.2408 348.771C94.0936 348.771 93.8729 348.771 93.7258 348.771C93.5787 348.771 93.358 348.771 93.2108 348.771H92.9166C92.843 348.771 92.6223 348.771 92.7694 348.771C92.7694 348.771 92.9166 348.845 92.9901 348.919C93.0637 348.993 93.0637 349.068 93.1373 349.142C93.1373 349.216 93.1373 349.068 93.1373 348.993L93.0637 348.401L92.9901 347.216C92.9166 346.401 92.843 345.66 92.6958 344.846C92.4751 343.29 92.2544 341.661 91.813 340.105C91.5923 341.735 91.5188 343.29 91.5188 344.92C91.5188 345.735 91.5188 346.549 91.5188 347.29L91.5923 348.475V349.068C91.5923 349.142 91.5923 349.216 91.6659 349.512C91.6659 349.66 91.7395 349.808 91.8866 349.956C92.0337 350.104 92.1809 350.179 92.328 350.253C92.6223 350.327 92.6223 350.327 92.7694 350.327H93.0637C93.2844 350.327 93.5051 350.327 93.7258 350.327C93.9465 350.327 94.1672 350.327 94.3879 350.253C94.6086 350.253 94.8293 350.179 94.9765 350.179C95.9328 349.956 96.6685 349.586 97.4042 349.216C98.1399 348.919 98.802 348.549 99.4641 348.401C100.2 348.327 101.009 348.401 101.671 348.845Z" fill="black"/>
<path d="M106.968 339.661C109.469 338.032 112.118 336.624 114.84 335.661C116.238 335.217 117.635 334.847 119.033 334.624C120.431 334.402 121.902 334.328 123.3 334.402C126.169 334.55 128.965 335.291 131.466 336.698C132.717 337.439 133.968 338.18 134.63 339.365C134.998 339.957 135.145 340.55 135.145 341.216C135.145 341.883 134.85 342.476 134.335 342.92L134.262 342.994C134.115 343.142 134.115 343.29 134.188 343.438C134.262 343.513 134.262 343.513 134.335 343.513C134.924 343.661 135.365 344.327 135.439 345.068C135.513 345.809 135.292 346.549 135.071 347.29C135.439 346.623 135.807 345.883 135.807 344.994C135.807 344.549 135.733 344.105 135.513 343.735C135.292 343.364 134.998 342.994 134.556 342.772L134.63 343.364C135.365 342.92 135.807 342.031 135.954 341.216C136.101 340.402 135.88 339.439 135.513 338.772C134.703 337.291 133.379 336.328 132.055 335.513C130.731 334.699 129.333 334.106 127.788 333.662C126.316 333.217 124.772 332.995 123.227 332.921C120.137 332.773 117.047 333.439 114.251 334.624C111.676 335.884 109.102 337.587 106.968 339.661Z" fill="black"/>
<path d="M134.85 347.66C132.128 347.808 129.406 347.882 126.611 347.882H118.371C115.649 347.882 112.854 347.957 110.131 348.105C107.409 348.253 104.614 348.401 101.892 348.771C104.614 349.068 107.409 349.216 110.131 349.29C112.854 349.364 115.649 349.438 118.371 349.364C121.093 349.364 123.889 349.29 126.611 349.068C129.406 348.771 132.202 348.401 134.85 347.66Z" fill="black"/>
<path d="M134.188 343.364L123.815 343.29C120.357 343.29 116.9 343.29 113.442 343.29C109.984 343.364 106.527 343.364 103.069 343.587C99.6112 343.735 96.1536 344.031 92.6958 344.549C96.1536 344.698 99.6112 344.698 103.069 344.772C106.527 344.846 109.984 344.846 113.442 344.846C116.9 344.772 120.357 344.698 123.815 344.475C127.273 344.253 130.731 343.883 134.188 343.364Z" fill="black"/>
<path d="M132.496 348.031C132.79 347.66 132.938 347.29 133.085 346.92C133.158 346.549 133.232 346.179 133.232 345.809C133.232 345.438 133.158 345.068 133.011 344.698C132.864 344.327 132.717 343.957 132.423 343.587C132.128 343.957 131.981 344.327 131.908 344.772C131.834 345.142 131.761 345.512 131.761 345.883C131.761 346.475 131.908 347.216 132.496 348.031Z" fill="black"/>
<path d="M128.818 343.661C128.524 344.105 128.376 344.475 128.303 344.846C128.229 345.216 128.156 345.586 128.229 346.031C128.229 346.401 128.303 346.771 128.45 347.216C128.597 347.586 128.744 347.957 129.112 348.327C129.406 347.957 129.553 347.512 129.627 347.142C129.701 346.771 129.774 346.327 129.701 345.957C129.701 345.586 129.627 345.142 129.48 344.772C129.259 344.401 129.112 344.031 128.818 343.661Z" fill="black"/>
<path d="M124.109 343.883C123.815 344.253 123.668 344.698 123.521 345.068C123.447 345.438 123.374 345.883 123.374 346.253C123.374 346.623 123.447 347.068 123.521 347.438C123.668 347.808 123.815 348.179 124.109 348.623C124.404 348.253 124.551 347.808 124.698 347.438C124.772 347.068 124.845 346.623 124.845 346.253C124.845 345.883 124.772 345.438 124.698 345.068C124.551 344.624 124.404 344.253 124.109 343.883Z" fill="black"/>
<path d="M120.137 343.957C119.842 344.327 119.695 344.772 119.548 345.142C119.475 345.512 119.401 345.883 119.401 346.327C119.401 346.697 119.475 347.068 119.548 347.512C119.695 347.882 119.842 348.253 120.137 348.697C120.431 348.327 120.578 347.882 120.725 347.512C120.799 347.142 120.872 346.771 120.872 346.327C120.872 345.957 120.799 345.586 120.725 345.142C120.652 344.698 120.505 344.327 120.137 343.957Z" fill="black"/>
<path d="M116.017 344.031C115.723 344.475 115.576 344.846 115.502 345.216C115.428 345.586 115.428 345.957 115.428 346.401C115.428 346.771 115.502 347.142 115.649 347.512C115.796 347.882 115.943 348.253 116.311 348.623C116.605 348.253 116.753 347.808 116.826 347.438C116.9 347.068 116.9 346.623 116.9 346.253C116.9 345.883 116.826 345.512 116.679 345.142C116.532 344.772 116.311 344.401 116.017 344.031Z" fill="black"/>
<path d="M112.559 348.623C112.854 348.253 113.001 347.882 113.148 347.438C113.221 347.068 113.295 346.697 113.295 346.253C113.295 345.883 113.221 345.512 113.148 345.068C113.001 344.698 112.854 344.327 112.559 343.957C112.265 344.327 112.118 344.698 111.971 345.142C111.897 345.512 111.824 345.883 111.824 346.327C111.824 346.697 111.897 347.068 111.971 347.438C112.118 347.882 112.265 348.253 112.559 348.623Z" fill="black"/>
<path d="M107.557 348.697C107.924 348.327 108.072 348.031 108.292 347.66C108.439 347.29 108.513 346.92 108.587 346.549C108.66 346.179 108.66 345.735 108.587 345.364C108.513 344.994 108.439 344.549 108.145 344.179C107.777 344.549 107.63 344.92 107.409 345.29C107.262 345.66 107.189 346.031 107.115 346.401C107.042 346.771 107.115 347.142 107.115 347.586C107.189 347.882 107.336 348.253 107.557 348.697Z" fill="black"/>
<path d="M104.099 348.697C104.393 348.327 104.54 347.957 104.687 347.586C104.835 347.216 104.835 346.846 104.835 346.475C104.835 346.105 104.761 345.735 104.687 345.364C104.54 344.994 104.393 344.624 104.099 344.253C103.805 344.624 103.658 344.994 103.51 345.364C103.363 345.735 103.363 346.105 103.363 346.475C103.363 346.846 103.437 347.216 103.51 347.586C103.658 347.957 103.805 348.327 104.099 348.697Z" fill="black"/>
<path d="M100.347 344.253C100.053 344.624 99.9055 344.92 99.7584 345.216C99.6848 345.512 99.6113 345.883 99.6113 346.179C99.6113 346.475 99.6848 346.846 99.7584 347.142C99.9055 347.438 100.053 347.808 100.347 348.105C100.641 347.734 100.788 347.438 100.935 347.142C101.009 346.846 101.083 346.475 101.083 346.179C101.083 345.883 101.009 345.512 100.935 345.216C100.788 344.846 100.641 344.549 100.347 344.253Z" fill="black"/>
<path d="M97.0364 348.771C97.3306 348.401 97.5513 348.031 97.6249 347.66C97.7721 347.29 97.772 346.92 97.8456 346.549C97.8456 346.179 97.8456 345.809 97.6985 345.438C97.6249 345.068 97.4778 344.698 97.1835 344.327C96.8892 344.698 96.6685 345.068 96.595 345.438C96.4478 345.809 96.4478 346.179 96.3743 346.549C96.3743 346.92 96.3743 347.29 96.5214 347.66C96.595 348.031 96.7421 348.401 97.0364 348.771Z" fill="black"/>
<path d="M94.4615 349.438C94.7558 348.993 94.9765 348.623 95.05 348.179C95.1972 347.734 95.1972 347.364 95.2707 346.92C95.2707 346.475 95.2707 346.105 95.1236 345.66C95.05 345.216 94.9029 344.846 94.6086 344.401C94.3143 344.846 94.0936 345.216 94.0201 345.66C93.8729 346.105 93.8729 346.475 93.7994 346.92C93.7994 347.364 93.7994 347.734 93.9465 348.179C94.0201 348.623 94.1672 349.068 94.4615 349.438Z" fill="black"/>
<path d="M60.8408 343.735C60.6201 344.475 60.6201 345.216 60.5466 345.957C60.473 346.697 60.3259 347.438 59.8845 347.957C59.5166 348.475 58.8545 348.845 58.1924 348.993C57.5303 349.142 56.7946 349.216 56.0589 349.216C53.1162 349.364 50.247 349.512 47.3043 349.586C44.3616 349.66 41.4924 349.66 38.6233 349.438C37.8876 349.364 37.1519 349.364 36.5634 349.216C36.2691 349.142 36.0484 348.993 35.9012 348.845C35.7541 348.697 35.607 348.549 35.5334 348.253C35.4598 347.957 35.3863 347.66 35.3863 347.29C35.3127 346.92 35.3127 346.623 35.3127 346.253C35.2391 345.586 35.3127 344.846 35.3863 344.179L34.4299 344.772C36.6369 345.438 38.9175 345.66 41.1982 345.586C43.4788 345.586 45.6858 345.29 47.8928 344.92C50.0999 344.549 52.2334 344.105 54.4404 343.809C56.6475 343.438 58.7809 343.29 61.0616 343.29C58.8545 342.994 56.6475 343.068 54.3668 343.142C52.1598 343.29 49.9528 343.587 47.7457 343.883C45.5387 344.105 43.4052 344.327 41.1982 344.327C39.0647 344.327 36.8576 344.031 34.8713 343.438C34.5034 343.29 34.062 343.513 33.9885 343.883C33.9885 343.957 33.9885 343.957 33.9885 344.031C33.9149 344.772 33.9149 345.586 33.9149 346.327C33.9149 346.697 33.9885 347.068 33.9885 347.512C34.062 347.882 34.062 348.253 34.2092 348.697C34.3563 349.142 34.577 349.586 35.0184 349.956C35.3863 350.327 35.8277 350.475 36.2691 350.623C37.1519 350.845 37.8876 350.845 38.6233 350.919C41.566 351.067 44.5087 350.993 47.4514 350.845C50.3942 350.697 53.3369 350.401 56.2061 350.03C56.9417 349.956 57.6774 349.808 58.4131 349.586C59.1488 349.364 59.8845 348.845 60.2523 348.179C60.6937 347.512 60.7673 346.697 60.7673 345.957C60.7673 345.216 60.7673 344.475 60.8408 343.735Z" fill="black"/>
<path d="M57.8246 349.364C58.266 348.993 58.5602 348.475 58.7809 347.957C59.0016 347.438 59.0752 346.846 59.0752 346.327C59.0752 345.809 59.0752 345.216 58.9281 344.698C58.7809 344.179 58.6338 343.661 58.266 343.142C57.9717 343.661 57.8246 344.179 57.751 344.698C57.6774 345.216 57.6038 345.735 57.6038 346.253C57.6038 346.771 57.6038 347.216 57.6038 347.734C57.6774 348.253 57.6774 348.771 57.8246 349.364Z" fill="black"/>
<path d="M54.2197 343.438C53.9254 343.957 53.7047 344.475 53.5576 344.994C53.4105 345.512 53.3369 346.031 53.3369 346.549C53.3369 347.586 53.4105 348.623 53.9254 349.734C54.2933 349.216 54.4404 348.697 54.5876 348.179C54.7347 347.66 54.8083 347.142 54.8083 346.623C54.8083 346.105 54.8083 345.586 54.7347 345.068C54.6611 344.549 54.514 343.957 54.2197 343.438Z" fill="black"/>
<path d="M50.1735 350.03C50.4677 349.512 50.6149 349.068 50.762 348.549C50.9092 348.031 50.9091 347.512 50.9827 347.068C50.9827 346.549 50.9827 346.031 50.8356 345.586C50.762 345.068 50.6149 344.549 50.3206 344.031C50.0263 344.549 49.8056 344.994 49.7321 345.512C49.5849 346.031 49.5849 346.549 49.5113 346.994C49.5113 347.512 49.5114 348.031 49.6585 348.475C49.7321 348.993 49.8792 349.512 50.1735 350.03Z" fill="black"/>
<path d="M46.4951 350.178C46.7893 349.734 47.01 349.29 47.1572 348.771C47.3043 348.327 47.3779 347.808 47.3779 347.364C47.3779 346.92 47.3779 346.401 47.3043 345.957C47.2307 345.512 47.0836 344.994 46.7893 344.549C46.4951 344.994 46.2744 345.512 46.1272 345.957C45.9801 346.401 45.9065 346.92 45.9065 347.364C45.9065 347.808 45.9065 348.327 45.9801 348.771C46.0537 349.216 46.2008 349.66 46.4951 350.178Z" fill="black"/>
<path d="M42.8902 350.253C43.1845 349.808 43.3316 349.364 43.4788 348.919C43.5523 348.475 43.6259 348.031 43.6259 347.586C43.6259 347.142 43.5523 346.697 43.4788 346.253C43.3316 345.809 43.1845 345.364 42.8902 344.92C42.5959 345.364 42.4488 345.809 42.3017 346.253C42.2281 346.697 42.1545 347.142 42.1545 347.586C42.1545 348.031 42.2281 348.475 42.3017 348.919C42.3752 349.364 42.5959 349.808 42.8902 350.253Z" fill="black"/>
<path d="M39.0647 350.179C39.4325 349.734 39.6532 349.364 39.8004 348.919C39.9475 348.475 40.0211 348.031 40.0946 347.66C40.1682 347.216 40.1682 346.771 40.0946 346.327C40.0211 345.883 39.9475 345.438 39.6532 344.92C39.2854 345.29 39.0647 345.735 38.9175 346.179C38.7704 346.623 38.6968 347.068 38.6233 347.512C38.5497 347.957 38.5497 348.401 38.6233 348.845C38.7704 349.216 38.844 349.66 39.0647 350.179Z" fill="black"/>
<path d="M36.2691 344.401C35.9748 344.846 35.8277 345.29 35.6805 345.735C35.607 346.179 35.5334 346.623 35.5334 347.068C35.5334 347.512 35.607 347.957 35.6805 348.401C35.8277 348.845 35.9748 349.29 36.2691 349.734C36.5634 349.29 36.7105 348.845 36.8576 348.401C36.9312 347.957 37.0048 347.512 37.0048 347.068C37.0048 346.623 36.9312 346.179 36.8576 345.735C36.7105 345.364 36.5634 344.92 36.2691 344.401Z" fill="black"/>
<path d="M34.6506 343.883C34.5034 343.068 34.2092 342.253 34.062 341.439C33.9149 340.624 34.2092 339.883 34.6506 339.217C35.5334 337.809 36.6369 336.624 37.8876 335.587C39.1382 334.55 40.536 333.736 42.0074 333.143C43.4788 332.551 45.0237 332.106 46.6422 331.958C48.2607 331.81 49.8792 331.884 51.3506 332.328C52.8219 332.773 54.2197 333.662 55.4704 334.699C56.0589 335.217 56.6475 335.81 57.3096 336.402C57.8981 336.995 58.4867 337.587 59.0752 338.18C60.1787 339.365 61.2087 340.846 61.0615 342.55C61.2822 341.735 61.2087 340.846 60.8408 340.031C60.5466 339.217 60.1052 338.476 59.5902 337.735C58.5602 336.328 57.4567 335.069 56.2796 333.884C55.029 332.625 53.5576 331.588 51.8655 330.995C50.1735 330.403 48.3343 330.329 46.6422 330.477C43.1109 330.773 39.8003 332.328 37.2255 334.699C35.9748 335.884 34.8713 337.291 34.062 338.846C33.8413 339.217 33.6942 339.661 33.6206 340.105C33.5471 340.55 33.6206 341.068 33.6942 341.439C33.9149 342.402 34.3563 343.142 34.6506 343.883Z" fill="black"/>
<path d="M118.739 333.662C118.665 333.291 118.592 332.995 118.371 332.773C118.224 332.551 118.003 332.328 117.783 332.18C117.562 332.032 117.341 331.958 117.047 331.884C116.753 331.81 116.458 331.81 116.091 331.958C116.164 332.328 116.238 332.625 116.458 332.847C116.605 333.069 116.826 333.291 117.047 333.439C117.268 333.588 117.488 333.662 117.783 333.736C118.003 333.736 118.298 333.81 118.739 333.662Z" fill="black"/>
<path d="M81.5135 182.195C79.8214 188.787 78.2765 195.453 76.8051 202.119C75.3338 208.785 74.0095 215.451 72.7589 222.191L71.0668 232.264C70.5518 235.597 69.9633 239.004 69.3747 242.337C68.1241 249.077 66.6527 255.669 65.1814 262.335L64.2985 266.113C64.225 266.557 64.0778 267.002 64.0778 267.52C64.0778 268.038 64.1514 268.705 64.4457 269.149C64.6664 269.594 64.9607 270.038 65.2549 270.335C65.8435 271.001 66.2849 271.668 66.2113 271.964C66.2113 272.186 66.1377 272.26 65.917 272.482C65.6963 272.705 65.4021 272.853 65.0342 273.075C64.6664 273.297 64.225 273.519 63.8571 273.89C63.4157 274.26 63.0479 274.927 62.9743 275.593C62.9007 276.334 63.195 276.926 63.4157 277.371C63.71 277.815 63.9307 278.186 64.225 278.556C64.4457 278.852 64.6664 279.223 64.8135 279.445C64.9607 279.741 64.9607 279.889 64.8871 280.037C64.8871 280.185 64.7399 280.334 64.4457 280.704C64.1514 281 63.7836 281.593 63.6364 282.111C63.3422 283.222 63.3422 284.111 63.3422 284.926L63.195 290.036C63.0479 293.443 62.9743 296.85 62.9008 300.258C62.8272 307.072 62.68 313.886 62.7536 320.7C62.7536 324.107 62.9743 327.588 63.5629 330.995C63.8571 332.699 64.3721 334.328 64.225 335.958C64.1514 336.772 63.9307 337.513 63.4893 338.18C63.0479 338.846 62.3858 339.439 61.5765 339.587C61.503 339.587 61.503 339.661 61.503 339.735C61.503 339.809 61.5765 339.809 61.6501 339.809C62.5329 339.735 63.3422 339.143 63.8571 338.476C64.4457 337.809 64.8135 336.921 64.9607 336.032C65.2549 334.254 64.8871 332.477 64.6664 330.847C64.2985 327.514 64.3721 324.107 64.4457 320.774C64.7399 313.96 65.0342 307.146 65.2549 300.332C65.3285 296.925 65.4021 293.517 65.4756 290.11L65.5492 285C65.5492 284.111 65.5492 283.296 65.6963 282.778C65.7699 282.482 65.8435 282.333 66.1377 281.963C66.3585 281.667 66.7999 281.148 66.947 280.408C67.0941 279.667 66.8734 279 66.6527 278.482C66.3585 277.963 66.0642 277.593 65.8435 277.297C65.3285 276.63 64.8871 276.038 64.9607 275.741C64.9607 275.593 65.0342 275.445 65.1814 275.223C65.4021 275.001 65.6963 274.853 66.0642 274.556C66.432 274.334 66.8734 274.038 67.2413 273.668C67.6827 273.297 67.9769 272.557 67.9769 271.89C67.9769 271.223 67.6827 270.631 67.3884 270.186C67.0941 269.742 66.7999 269.446 66.5056 269.149C66.2113 268.853 65.9906 268.557 65.8435 268.261C65.6963 267.964 65.6228 267.742 65.6228 267.446C65.6228 266.779 65.8435 265.891 65.9906 265.076L66.432 262.558C67.5355 255.817 68.7126 249.151 70.1104 242.411C70.7725 239.078 71.5818 235.745 72.3175 232.412L74.5981 222.413C76.0694 215.747 77.3201 209.081 78.4972 202.341C79.6743 195.601 80.7778 188.935 81.7342 182.121C81.7342 182.047 81.7342 181.973 81.6606 181.973C81.5871 182.121 81.5871 182.121 81.5135 182.195Z" fill="black"/>
<path d="M43.1109 186.861C42.5224 193.305 42.081 199.749 41.566 206.193L40.0946 225.524C39.1382 238.412 38.1819 251.225 37.1519 264.113C36.1955 277.001 35.092 289.814 33.9885 302.702L32.2964 321.959C32.0021 325.144 31.7079 328.403 31.7079 331.662C31.7079 334.921 32.0021 338.18 32.9585 341.216C32.1493 338.106 31.9286 334.847 32.0757 331.662C32.2228 328.477 32.6643 325.218 33.0321 322.033C33.7678 315.589 34.4299 309.22 35.092 302.776C36.4162 289.962 37.5197 277.075 38.5497 264.187C39.5061 251.299 40.4625 238.412 41.1982 225.524L42.2281 206.193C42.5224 199.749 42.8902 193.305 43.1109 186.861Z" fill="black"/>
<path d="M119.401 333.884C117.856 327.736 116.458 321.515 115.355 315.293C114.178 309.071 113.148 302.776 112.339 296.48C110.646 283.889 109.396 271.297 108.366 258.632L105.276 220.636L103.657 201.601C103.069 195.305 102.48 188.935 101.892 182.639C102.186 189.009 102.628 195.305 102.995 201.675L104.246 220.71C104.614 227.08 105.129 233.375 105.57 239.745L106.968 258.78C108.072 271.446 109.322 284.111 111.235 296.702C112.191 302.998 113.295 309.294 114.693 315.441C116.017 321.663 117.562 327.81 119.401 333.884Z" fill="black"/>
<path d="M74.8188 216.71C75.1131 220.339 75.5545 223.969 76.143 227.598C76.7316 231.227 77.3937 234.857 78.1294 238.412C78.865 241.967 79.7479 245.596 80.6307 249.151L82.0285 254.484C82.4699 256.262 82.7642 257.965 82.3227 259.595C82.102 260.41 81.8078 261.372 81.6606 262.335C81.5135 263.298 81.5135 264.261 81.5135 265.15C81.5871 267.002 81.6606 268.853 81.7342 270.631C81.9549 274.26 82.2492 277.963 82.5434 281.593C82.9113 285.222 83.3527 288.925 83.7941 292.555C84.0148 294.406 84.3091 296.184 84.7505 298.036C85.1919 299.887 85.854 301.665 86.8104 303.368L86.9575 302.405C86.2954 302.924 85.5597 303.516 84.8976 304.183C84.6033 304.553 84.3091 304.924 84.0884 305.368C83.8677 305.813 83.7205 306.331 83.647 306.849C83.5734 307.886 83.7941 309.071 84.7505 309.812C85.2655 310.182 85.7069 310.331 86.0747 310.479C86.2218 310.553 86.369 310.627 86.5161 310.701C86.5897 310.775 86.5897 310.775 86.6633 310.849C86.6633 310.923 86.6633 310.923 86.6633 310.997C86.5897 311.071 86.5161 311.219 86.369 311.368C86.0747 311.664 85.7069 311.886 85.4126 312.33C85.0448 312.775 84.8241 313.516 84.9712 314.108C85.1183 314.701 85.4126 315.145 85.6333 315.515C85.854 315.886 86.1483 316.256 86.2954 316.552C86.4426 316.848 86.5897 317.219 86.6633 317.589C86.8104 318.33 86.884 319.293 87.0311 320.107C87.9139 326.996 88.9439 333.884 89.9003 340.698C89.9003 340.92 90.1945 341.142 90.4152 341.068C90.4888 341.068 90.5624 341.068 90.5624 340.994C94.6086 338.624 98.802 336.624 103.216 334.995C107.63 333.365 112.118 332.18 116.753 331.366C112.118 331.958 107.483 333.069 102.995 334.55C98.5077 336.032 94.1672 337.958 90.0474 340.328L90.7095 340.698C89.8267 333.81 89.091 326.922 88.1346 320.033C87.9875 319.145 87.9139 318.33 87.7668 317.441C87.6932 316.997 87.5461 316.478 87.3254 316.034C87.1047 315.589 86.8104 315.219 86.5897 314.849C86.369 314.478 86.1483 314.182 86.1483 313.886C86.0747 313.59 86.1483 313.441 86.2954 313.219C86.5161 312.997 86.8104 312.701 87.1782 312.404C87.3254 312.256 87.5461 312.034 87.6932 311.738C87.8404 311.442 87.9139 310.997 87.8404 310.627C87.7668 310.257 87.5461 309.886 87.2518 309.738C87.0311 309.516 86.7368 309.442 86.5161 309.294C86.0747 309.071 85.7069 308.997 85.4862 308.775C85.0448 308.405 84.8241 307.738 84.8976 306.998C84.9712 306.331 85.339 305.664 85.854 305.072C86.369 304.479 87.0311 303.961 87.6932 303.442C87.9875 303.22 88.0611 302.85 87.9139 302.48C86.1483 299.443 85.6333 295.814 85.1183 292.258C84.6034 288.629 84.1619 285 83.7941 281.37C83.4263 277.741 83.132 274.112 82.9113 270.483C82.7641 268.631 82.6906 266.853 82.617 265.002C82.617 264.113 82.617 263.224 82.6906 262.335C82.8377 261.521 83.0584 260.632 83.2791 259.669C83.4998 258.706 83.5734 257.743 83.4263 256.78C83.3527 255.817 83.132 254.929 82.9113 253.966L81.4399 248.707C80.4835 245.152 79.6007 241.671 78.7179 238.041C77.2465 231.153 75.8487 223.969 74.8188 216.71Z" fill="black"/>
<path d="M98.802 290.333C97.8456 291.444 96.9628 292.555 96.08 293.666C95.1972 294.777 94.2408 295.814 93.2844 296.85C92.328 297.887 91.3716 298.924 90.4152 299.961C89.4589 300.998 88.4289 301.961 87.3989 303.072C88.7232 302.554 90.0474 301.739 91.1509 300.85C92.328 299.961 93.4315 298.998 94.3879 297.887C95.3443 296.776 96.2271 295.591 96.9628 294.332C97.7721 293.073 98.3606 291.74 98.802 290.333Z" fill="black"/>
<path d="M98.4342 298.924C97.1099 300.628 95.9328 302.405 94.5351 304.035C93.8729 304.85 93.1373 305.59 92.328 306.257C91.5188 306.924 90.7095 307.59 89.8267 308.331C89.606 308.553 89.3853 308.701 89.2381 308.923C89.1646 308.997 89.0174 309.146 88.8703 309.294C88.7232 309.442 88.6496 309.664 88.576 309.96C88.5025 310.257 88.6496 310.775 88.9439 310.923C89.2381 311.145 89.3853 311.219 89.5324 311.219C89.9003 311.293 90.2681 311.368 90.5624 311.368C91.2245 311.293 91.7395 311.145 92.2544 310.997C92.4751 310.923 92.7694 310.849 92.9166 310.849C92.9901 310.849 93.0637 310.849 93.0637 310.849C93.0637 310.849 92.9901 310.775 93.0637 310.775C93.0637 310.775 93.1373 310.923 93.0637 311.071C92.9901 311.219 92.843 311.368 92.6223 311.59C92.2544 311.96 91.8866 312.404 91.5188 312.775C90.7831 313.59 90.0474 314.33 89.2381 315.071C90.1945 314.552 91.1509 313.96 92.0337 313.367C92.4751 313.071 92.9166 312.701 93.2844 312.33C93.5051 312.182 93.7258 311.96 93.9465 311.664C94.1672 311.368 94.3143 310.849 94.0936 310.405C94.0201 310.182 93.7994 309.886 93.5051 309.812C93.2108 309.664 92.9901 309.664 92.843 309.738C92.4751 309.738 92.2544 309.812 91.9602 309.886C91.4452 309.96 90.9302 310.108 90.4888 310.108C90.2681 310.108 90.121 310.108 89.9003 310.034C89.8267 310.034 89.7531 309.96 89.8267 310.034C89.9003 310.108 89.9738 310.257 89.9003 310.331C89.8267 310.405 90.3417 309.886 90.7095 309.59C91.4452 308.849 92.328 308.257 93.1373 307.442C93.9465 306.627 94.6822 305.813 95.2707 304.924C96.6685 302.924 97.6249 300.998 98.4342 298.924Z" fill="black"/>
<path d="M60.1052 303.294C59.3695 307.368 58.7809 311.516 58.1924 315.589L57.3096 321.737C57.1624 322.774 57.0153 323.959 57.4567 325.144C57.8981 326.255 58.6338 327.144 59.2959 327.884C59.958 328.699 60.5466 329.44 60.6937 330.255C60.6937 330.477 60.7673 330.625 60.7673 330.847C60.7673 331.069 60.6937 331.143 60.7673 331.069L60.8408 330.995C60.8408 330.995 60.8408 330.995 60.7673 330.995C60.6201 330.995 60.473 330.847 60.3259 330.773C58.7074 329.662 57.1624 328.255 55.4704 326.996C54.6611 326.329 53.7047 325.737 52.8219 325.218C51.8655 324.7 50.8356 324.329 49.7321 324.107C48.6285 323.885 47.525 323.811 46.4215 323.959C45.318 324.107 44.2144 324.551 43.3316 325.218C43.1109 325.366 43.0374 325.736 43.1845 325.959C43.1845 326.033 43.2581 326.033 43.3316 326.107C44.803 327.218 46.3479 328.255 47.8193 329.366L48.04 328.625C46.3479 328.699 44.7294 328.995 43.1109 329.44C41.4924 329.884 39.9475 330.477 38.4761 331.217C40.0211 330.625 41.6396 330.18 43.2581 329.884C44.8766 329.588 46.4951 329.514 48.1136 329.514C48.3343 329.514 48.555 329.366 48.555 329.07C48.555 328.921 48.4814 328.847 48.4078 328.773C47.01 327.588 45.5387 326.477 44.0673 325.292V326.181C45.6122 325.144 47.6721 324.996 49.5113 325.514C51.4241 325.959 53.1162 326.996 54.6611 328.255C56.2796 329.44 57.8246 330.847 59.5902 332.032C59.8109 332.18 60.1052 332.403 60.473 332.477C60.6937 332.551 60.9144 332.551 61.1351 332.551C61.4294 332.551 61.7237 332.403 61.8708 332.18C62.3122 331.736 62.3122 331.291 62.3122 330.995C62.3122 330.699 62.3122 330.329 62.2386 330.032C61.9444 328.773 61.1351 327.884 60.473 327.07C59.8109 326.255 59.1488 325.514 58.8545 324.7C58.4867 323.885 58.5602 322.996 58.7074 321.959L59.2959 315.737C59.5166 311.59 59.8109 307.442 60.1052 303.294Z" fill="black"/>
<path d="M54.9554 63.0957C53.999 63.2438 53.0426 63.3179 52.1598 63.6142C51.2034 63.9104 50.3942 64.5029 49.7321 65.2436C48.4814 66.799 47.525 68.4285 46.5686 70.132C45.6122 71.8356 44.803 73.5391 44.0673 75.3908C43.3316 77.1684 42.6695 79.02 42.1545 80.8717C42.081 81.242 42.2281 81.6124 42.596 81.6864C42.7431 81.7605 42.8902 81.7605 42.9638 81.6864L50.247 79.4644C50.6149 79.3163 51.0563 79.2422 51.4241 79.1682L51.6448 79.0941C51.5713 79.0941 51.4977 79.0941 51.3506 79.02C51.1298 78.946 50.9827 78.6497 50.9827 78.5756C51.0563 78.6497 51.0563 78.7238 51.1299 78.7978C51.2034 78.8719 51.277 78.946 51.277 78.946L51.3506 79.02L51.792 79.4644C54.2933 81.7605 56.8682 84.0566 59.3695 86.2786C59.6638 86.5008 60.0316 86.5008 60.2523 86.2045C60.3994 86.0564 60.473 85.7601 60.3994 85.612C59.443 82.3531 58.4867 79.0941 57.5303 75.8352L56.2061 70.9468L54.8818 65.9843C55.1025 67.6878 55.3968 69.3173 55.6911 71.0208C55.9853 72.7244 56.2796 74.3538 56.6475 76.0574C57.3831 79.3904 58.1924 82.7234 59.0752 85.9823L60.1052 85.3157L52.6012 78.4275L52.1598 77.9831V78.0572C52.1598 77.9831 51.9391 77.6868 51.7184 77.6128C51.5713 77.5387 51.4977 77.5387 51.4241 77.5387H51.277C51.0563 77.5387 50.9827 77.6128 50.9092 77.6128C50.4677 77.7609 50.0999 77.835 49.6585 77.9831L47.2307 78.7238C45.6122 79.2422 43.9937 79.7607 42.3752 80.2792L43.2581 81.0939C43.773 79.2422 44.3616 77.4646 45.0237 75.687C45.6858 73.9094 46.4215 72.1318 47.2307 70.4283C47.6722 69.5395 48.04 68.7248 48.555 67.91C48.9964 67.0953 49.4378 66.2065 50.0263 65.4658C50.5413 64.7251 51.277 64.1326 52.1598 63.7623C53.1162 63.5401 54.0726 63.3179 54.9554 63.0957Z" fill="#174075"/>
<path d="M74.3774 62.7253C76.2901 63.2438 78.2029 63.7623 79.8214 64.7251C81.5135 65.688 82.7642 67.1693 83.7941 68.7988C84.8241 70.4283 85.7804 72.1318 86.7368 73.9094C87.6196 75.687 88.5025 77.3906 89.3853 79.1682L90.1945 78.1312C88.7967 77.6868 87.3989 77.2424 86.0747 76.724C85.4126 76.4277 84.7505 76.1314 84.0884 75.8352C83.7205 75.687 83.3527 75.5389 82.9113 75.3908C82.4699 75.2426 81.9549 75.2426 81.4399 75.3908C80.9249 75.5389 80.5571 75.8352 80.2628 76.0574C79.9686 76.2796 79.6743 76.5758 79.38 76.8721C78.7915 77.3906 78.3501 78.0572 77.8351 78.6497C76.9523 79.9088 76.2902 81.3902 75.9959 82.9456H76.9523C76.3637 81.168 75.8487 79.4644 75.1866 77.7609L73.3474 72.5762C73.7153 74.3538 74.1567 76.1314 74.5981 77.909C75.0395 79.6866 75.5545 81.4642 75.9223 83.1678C75.9959 83.464 76.2166 83.6122 76.5109 83.5381C76.658 83.464 76.8051 83.39 76.8787 83.1678C77.2465 81.8346 77.9087 80.5014 78.7915 79.3904C79.2329 78.7978 79.6743 78.2794 80.1893 77.835C80.7042 77.3906 81.2928 76.8721 81.7342 76.798C82.1756 76.724 82.7641 76.8721 83.4263 77.1684C84.0884 77.4646 84.7505 77.835 85.4862 78.1312C86.884 78.7238 88.2818 79.2422 89.7531 79.6126C90.121 79.6866 90.5624 79.4644 90.6359 79.0941C90.7095 78.946 90.6359 78.7238 90.5624 78.5756C89.6796 76.798 88.7967 75.0204 87.7668 73.3169C86.8104 71.5393 85.7804 69.8358 84.5298 68.2063C83.3527 66.5768 81.8078 65.0955 79.9686 64.2067C78.2765 63.3179 76.2901 62.9475 74.3774 62.7253Z" fill="#174075"/>
</g>
<defs>
<linearGradient id="paint0_linear_2987_12022" x1="136.074" y1="175.946" x2="-0.0793568" y2="175.946" gradientUnits="userSpaceOnUse">
<stop stop-color="#0ABBEF"/>
<stop offset="0.2385" stop-color="#0D9BCF"/>
<stop offset="0.756" stop-color="#145A8E"/>
<stop offset="1" stop-color="#174075"/>
</linearGradient>
</defs>
</svg>
