<svg width="135" height="214" viewBox="0 0 135 214" fill="none" xmlns="http://www.w3.org/2000/svg">
<path d="M77.173 69.8727C76.658 69.8727 52.7484 69.8727 52.7484 69.8727L66.7263 155.642L71.5818 154.753L83.8677 154.013" fill="#76B82A"/>
<path d="M36.5634 285.555C36.122 285.777 35.9013 285.852 35.9748 285.777C36.122 285.481 36.4898 283.704 36.8576 281.185L36.3427 281.482C36.3427 281.259 37.0783 272.816 37.0783 272.816L40.6832 223.784L41.051 223.709V218.08L43.1109 185.861L44.0673 184.454L65.1078 154.753L82.6906 154.013L89.4589 184.084C89.4589 184.084 89.3117 184.528 89.0174 185.195C91.1509 184.824 95.2707 183.565 98.2135 182.676C100.273 182.01 101.818 181.565 101.818 181.565L104.614 219.043C104.614 219.043 106.453 243.559 106.674 246.152C106.894 248.744 109.322 276.223 109.322 276.223C109.322 276.223 112.265 299.258 112.339 299.85C112.339 300.072 112.78 301.998 113.221 304.516C114.325 310.071 116.017 318.515 116.017 318.515L117.268 324.885L119.254 332.588L118.96 332.736C118.96 332.736 118.739 332.81 118.445 332.588C118.15 332.365 114.031 331.106 114.031 331.106L113.957 331.032C113.736 331.106 113.516 331.254 113.295 331.254C109.469 331.847 105.717 332.884 102.039 334.217C97.9928 335.624 94.1672 337.476 90.5624 339.55C89.606 332.884 88.6496 326.218 87.7668 319.552C87.5461 317.774 87.2518 315.923 86.2954 314.293C86.0747 313.849 85.7069 313.478 85.6333 312.96C85.2655 311.627 86.4426 310.368 87.5461 309.479C85.9276 309.775 84.5298 308.072 84.6034 306.442C84.6769 304.813 85.7804 303.405 86.9575 302.368C85.0448 293.851 83.647 285.259 82.8377 276.519L83.0584 275.334C83.132 273.186 82.5434 271.038 82.3963 268.89C82.3963 268.594 82.3963 268.298 82.3963 267.927C82.3963 267.927 82.1756 262.372 82.0285 262.298C81.8813 262.15 82.9113 258.817 83.2791 256.447C83.647 254.077 81.2192 248.448 81.2192 248.448C81.2192 248.448 80.4835 245.485 80.1893 244.3C79.895 243.115 78.0558 234.894 78.0558 234.894L75.2602 218.451L75.0395 217.266L74.9659 216.451C74.8924 216.451 74.7452 216.525 74.6717 216.525L72.3175 228.82L68.6391 248.3L65.7699 263.706L65.3285 267.927C65.3285 267.927 65.3285 267.927 65.2549 267.927C65.6228 268.89 66.1378 269.779 66.7263 270.594C66.947 270.964 67.2413 271.26 67.3148 271.705C67.3884 273.038 65.1814 273.186 64.5193 274.371C63.71 275.927 65.9906 277.408 65.9906 279.185C65.9906 279.704 65.8435 280.148 65.6963 280.593C64.3721 284.666 64.225 289.11 64.0778 293.406C64.0043 295.999 63.9307 298.665 63.8571 301.257C63.5629 311.923 63.5629 322.589 64.5928 333.18C64.74 334.587 64.8871 336.069 64.0778 337.254C63.71 337.846 63.1215 338.291 62.4593 338.661C59.8845 340.142 56.7946 340.365 53.8519 340.068C50.9092 339.772 48.04 338.883 45.1708 338.217C42.4488 337.55 39.2854 337.18 37.2255 339.031C36.9312 339.254 36.6369 339.624 36.2691 339.698C36.1219 339.772 35.9013 339.772 35.6805 339.698C34.9449 339.624 34.1356 339.254 33.7678 339.772C32.5907 338.365 32.37 336.365 32.2964 334.513C31.34 318.071 35.1656 301.85 36.5634 285.555ZM37.4462 276.963C37.2255 278 37.0783 279.111 37.0048 280.148C37.1519 279.185 37.299 278.074 37.4462 276.963Z" fill="url(#paint0_linear_2021_1652)"/>
<path d="M75.1866 218.377L77.9822 234.819C77.9822 234.819 79.8214 243.041 80.1157 244.226C80.41 245.411 81.1456 248.374 81.1456 248.374C81.1456 248.374 83.5734 254.077 83.2056 256.373C82.8377 258.743 81.8078 262.076 81.9549 262.224C82.102 262.372 82.3227 267.853 82.3227 267.853C82.3227 268.15 82.3227 268.52 82.3227 268.816C82.4699 270.964 83.132 273.112 82.9849 275.26L82.7642 276.445C83.5734 285.111 84.8976 293.777 86.884 302.294C85.7069 303.331 84.6034 304.739 84.5298 306.368C84.4562 307.997 85.854 309.701 87.4725 309.405C86.4426 310.294 85.2655 311.553 85.5597 312.886C85.7069 313.404 86.0012 313.775 86.2219 314.219C87.1782 315.774 87.3989 317.626 87.6932 319.478C88.6496 326.144 89.606 332.81 90.4888 339.476C94.0936 337.402 97.9192 335.55 101.965 334.143L101.892 334.069C97.6985 329.403 95.1972 323.477 92.7694 317.7C92.4016 316.885 92.1073 316.071 92.0337 315.182C91.9602 313.256 93.5051 311.553 93.5051 309.553C92.1809 309.849 90.7831 309.849 89.5324 309.405C89.9738 308.442 90.7831 307.701 91.5188 306.886C92.9901 305.405 94.3144 303.85 95.4179 302.146C95.1236 302.517 94.7558 302.887 94.3144 303.183C93.1373 304.072 91.5188 304.442 90.1945 303.85C89.8267 303.702 89.4589 303.405 89.2381 303.035C88.9439 302.368 89.1646 301.628 89.5324 301.035C89.9003 300.443 90.4152 299.924 90.7095 299.332C93.4315 297.184 95.6386 294.073 97.6249 291.11C95.7857 292.147 93.2844 293.036 91.8866 291.555C91.2245 290.888 91.0038 289.851 90.8566 288.888C89.4589 279.704 89.091 270.372 89.8267 261.113C89.9738 258.817 90.2681 256.521 90.0474 254.225C89.8267 252.225 89.3117 250.299 88.7967 248.374C87.4725 243.93 85.854 239.56 83.9412 235.338C80.8514 228.376 76.9523 221.636 75.5545 214.155C75.5545 215.414 75.3338 216.895 75.1866 218.377Z" fill="#174075"/>
<path d="M32.2228 334.513C32.2964 336.365 32.5171 338.365 33.6942 339.772C34.062 339.18 34.8713 339.624 35.607 339.698C36.9312 337.55 38.2554 335.402 39.5796 333.254C39.7268 332.958 39.9475 332.662 40.0211 332.365C40.1682 331.995 40.1682 331.625 40.2418 331.254C40.536 329.847 41.7867 328.81 43.1109 328.366C44.4352 327.921 45.9065 327.995 47.3043 328.07C46.2008 326.736 45.0237 325.477 43.773 324.292C45.9801 323.181 48.555 322.885 50.9091 323.626C49.3642 320.293 44.3616 319.7 42.9638 316.293C42.5224 315.256 42.5224 314.071 42.5224 312.96C42.5224 303.405 42.8166 293.777 43.3316 284.222C43.8466 280.889 44.3616 277.482 44.803 274.149C46.2008 263.187 46.7158 252.151 48.04 241.189C49.5849 228.45 52.1598 215.858 55.7646 203.563C56.721 200.378 57.751 197.045 60.0316 194.601C62.2386 192.083 67.9034 188.38 70.9933 189.713C70.7725 187.491 68.4919 187.491 68.1977 185.269L44.0673 184.602L43.1109 186.009L41.051 218.229V223.858L40.6832 223.932L37.0783 272.964C37.0783 272.964 36.3427 281.408 36.3427 281.63L36.8576 281.333C36.4898 283.852 36.1219 285.629 35.9748 285.926C35.9012 286 36.1219 285.926 36.5634 285.703C35.1656 301.85 31.34 318.071 32.2228 334.513Z" fill="#174075"/>
<path d="M39.8004 34.4688C40.0946 35.2836 40.6096 35.9502 41.051 36.6908C42.0074 38.0981 43.0374 39.4313 44.1409 40.6904C44.2144 40.7645 44.288 40.8386 44.4352 40.8386C44.5087 40.8386 44.5823 40.7645 44.6559 40.6904C45.7594 39.6535 47.3779 39.4313 48.7757 39.8016C50.1735 40.172 51.4241 41.0608 52.6012 41.9496C52.8219 42.0977 53.0426 42.3199 53.2633 42.468C53.6312 42.9124 53.999 43.4309 54.4404 43.8753C55.5439 42.9865 56.721 42.2458 58.0453 41.6533C57.236 40.6904 56.7946 39.4313 56.3532 38.2462C55.1761 34.8392 54.2933 31.4321 53.5576 27.8769C53.484 27.3584 53.3369 26.84 53.484 26.3215V26.2474C53.6312 25.8771 53.9254 25.5068 54.2197 25.2105C55.7646 23.4329 57.4567 21.5812 59.8109 20.9146C61.9444 20.3961 64.225 21.0627 66.3585 21.4331C67.9034 21.7293 69.5219 21.8775 71.0668 21.8775C71.3611 21.8775 71.6554 21.8775 71.9496 21.8034C72.7589 22.0256 73.5681 22.3219 74.3038 22.5441C76.8051 23.2107 79.7479 23.6551 81.8813 22.1737C82.6906 21.5812 83.3527 20.8405 83.8677 20.0258C84.2355 19.4333 84.6034 18.8407 84.8241 18.2482C84.8976 18.1001 84.9712 17.9519 85.0448 17.7297C85.2655 17.1372 85.4862 16.6187 85.6333 16.0262C86.369 13.4339 86.2954 10.5453 85.4862 7.95292C84.0148 9.36019 82.1756 10.3231 80.1893 10.6934C80.2628 10.5453 80.41 10.4712 80.4835 10.3231C81.2928 9.28612 81.9549 8.02699 82.2492 6.69379C82.7642 4.69398 82.617 2.54605 81.8813 0.694376C80.2628 2.39791 77.9086 3.13858 75.628 3.36078C73.3474 3.58298 70.9932 3.43485 68.7126 3.65705C65.6228 3.95332 62.68 4.91618 59.7373 5.87905C57.3096 6.69379 54.8818 7.58259 52.5276 8.69359C50.4677 9.73052 48.4814 10.9897 46.7158 12.471C45.3915 13.582 44.1409 14.8411 42.9638 16.1743C41.7131 17.6557 40.4625 19.5073 40.6832 21.4331C40.9039 23.2847 42.3752 24.7661 43.6995 26.0993L43.9202 26.4696C43.9937 26.4696 43.9937 26.4696 44.0673 26.4696C44.0673 26.5437 44.0673 26.5437 44.1409 26.6178C44.0673 26.6178 43.9202 26.6178 43.8466 26.6178C42.1545 26.84 40.6832 27.951 39.9475 29.5064C39.2118 31.0618 39.2118 32.8394 39.8004 34.4688Z" fill="#ED6C2E"/>
<path d="M43.8466 46.9861C44.0673 47.7268 44.288 48.4675 44.7294 49.1341C45.4651 50.2451 46.7893 50.9117 48.04 51.2079C49.3642 51.5042 50.6884 51.5783 52.0127 51.7264C52.3069 51.7264 52.6012 51.8005 52.8219 51.9486C53.1162 52.1708 53.1898 52.5411 53.3369 52.8374C54.7347 58.0221 54.3669 63.503 55.5439 68.6877C55.6911 69.2062 55.8382 69.7246 56.1325 70.169C56.2061 70.3912 56.2061 70.6134 56.2796 70.9097C56.4268 71.7244 56.6475 72.5392 56.7946 73.3539C56.7946 73.502 56.8682 73.5761 56.9417 73.7242C57.0153 73.7983 57.1624 73.8724 57.3096 73.8724C60.3994 74.6871 63.71 74.7612 66.7999 74.0946C68.5655 73.7242 70.2576 73.1317 71.8761 72.391C72.5382 72.0948 73.1267 71.7985 73.7153 71.4282C74.0095 71.206 74.3774 70.8356 74.3774 70.3912C74.3774 70.169 74.3038 70.0209 74.2302 69.8728C74.2302 69.7987 74.1567 69.7246 74.0831 69.6506C74.2302 68.984 74.2302 68.2433 74.2302 67.5026C74.2302 66.6138 74.1567 65.725 74.0831 64.9103C74.0095 63.2808 73.936 61.7254 73.8624 60.0959C75.4073 60.6144 76.9523 59.7256 78.2765 58.7627C79.5272 57.7999 80.7778 56.6889 81.6606 55.3557C83.4263 52.7633 83.8677 49.4303 84.0884 46.2455C84.5298 38.3203 83.5734 30.3211 81.2928 22.7663L81.3664 22.9885C78.6443 22.9885 75.8487 22.8403 73.1267 22.5441C70.9197 22.3219 68.7126 21.9515 66.5056 21.4331C64.4457 20.9887 62.3858 20.4702 60.3259 20.9146C57.8981 21.5071 56.0589 23.3588 54.3668 25.1364C54.0726 25.4327 53.7783 25.729 53.6312 26.0993C53.4105 26.6178 53.5576 27.1362 53.6312 27.6547C54.3669 32.0246 55.1025 36.4686 57.3096 40.246C57.5303 40.6164 57.751 40.9867 57.8245 41.4311C57.8245 41.5793 57.8246 41.6533 57.8981 41.8014C57.0889 42.468 56.2796 43.0606 55.3968 43.7272C55.2497 43.8753 55.029 43.9494 54.8083 43.9494C54.6611 43.9494 54.514 43.8012 54.3668 43.7272C53.4105 42.9124 52.6748 41.7274 51.6448 41.0608C51.0563 40.6904 50.3206 40.3942 49.5849 40.246C48.2607 39.9498 46.8629 39.8016 45.6858 40.4682C44.5823 41.0608 43.9202 42.2458 43.6995 43.4309C43.4052 44.5419 43.5523 45.8011 43.8466 46.9861Z" fill="white"/>
<path d="M86.8104 71.4282C86.7368 71.3541 86.7368 71.28 86.6633 71.206C86.5161 71.206 86.8104 71.3541 86.8104 71.4282Z" fill="white"/>
<path d="M7.7982 116.905L12.2859 118.979C12.2859 118.979 12.2859 118.979 12.3594 118.979C12.8744 119.275 16.8471 121.423 18.1713 122.164C19.5691 122.905 25.1603 126.238 25.1603 126.238L30.4572 128.682L36.2691 120.386C36.2691 120.386 37.814 125.275 38.844 128.608C39.3589 130.385 39.8004 131.719 39.8004 131.793C39.8739 131.941 43.773 146.828 43.773 146.828C43.773 146.828 44.7294 152.902 44.7294 153.939C44.7294 154.975 44.3616 159.864 44.3616 160.16V160.234L42.7431 182.454C42.7431 182.454 42.5224 185.343 42.5224 185.491C42.5224 185.639 60.1787 188.306 60.1787 188.306H70.3311C70.3311 188.306 71.214 172.9 70.9197 170.233C70.699 168.456 70.4783 167.271 70.3311 166.604C70.184 164.308 69.9633 161.345 69.9633 161.345L67.0941 134.533L62.6065 99.5735L59.958 85.2786L59.443 84.8342C59.5902 84.9083 59.8109 84.9083 59.8845 84.8342C59.958 84.7602 59.958 84.612 59.8845 84.538C59.6638 83.1307 59.2224 81.7234 58.8545 80.3162C57.0889 74.3908 55.6911 68.4655 54.5876 62.392V62.0957C53.1898 62.3179 51.7184 62.5401 50.5413 63.4289C49.8792 63.9474 49.4378 64.614 48.9228 65.2806C47.8929 66.836 46.9365 68.5396 46.2008 70.3172C45.8329 71.0578 45.5387 71.8726 45.0973 72.5392L45.0237 72.4651L28.9858 84.538L28.5444 84.9824L27.8823 85.649L23.1004 88.9079C23.1004 88.9079 21.629 89.6486 20.3048 91.1299C18.907 92.6113 12.8744 102.832 12.8744 102.832C12.8744 102.832 11.918 105.277 11.1088 107.351C10.1524 109.498 7.7982 116.905 7.7982 116.905Z" fill="white"/>
<path d="M73.8624 71.9466C73.8624 72.391 74.0095 72.8354 74.0831 73.2798C74.3038 74.0946 74.5245 74.9093 74.7452 75.7981C75.2602 77.7979 75.7752 79.7977 76.2902 81.7975C76.3637 81.7234 76.4373 81.6494 76.5109 81.5012L76.7316 83.9454L77.3937 92.6113L78.7915 109.943L80.3364 133.866L82.617 158.605L84.3091 184.973C84.3091 184.973 84.3091 184.973 84.6769 185.343C85.1183 185.713 98.9491 182.454 99.1698 182.306C99.3905 182.232 106.085 179.269 106.085 179.269L103.584 158.975L101.083 132.533C101.083 132.533 100.494 123.645 101.083 117.201C101.671 110.758 102.113 84.1676 102.113 84.1676L102.995 78.0201L99.4641 75.5018L94.4615 73.2057C94.4615 73.2057 90.5624 71.9466 88.2082 71.4282C87.2518 71.206 86.8104 71.1319 86.7368 71.206C86.8104 71.28 86.8104 71.3541 86.884 71.4282C86.8104 71.4282 86.5897 71.206 86.7368 71.206C85.854 69.6506 84.8976 68.0951 83.7205 66.7619C82.2492 65.1325 80.4835 63.7252 78.4972 62.8364C77.0994 62.2439 75.7016 61.8735 74.1567 61.8735H74.0831L74.2302 67.6507L74.3038 69.6506C74.0095 70.3912 73.7888 71.1319 73.8624 71.9466Z" fill="white"/>
<path d="M86.8104 71.4282C86.7368 71.3541 86.7368 71.28 86.6633 71.206C86.5161 71.206 86.8104 71.3541 86.8104 71.4282Z" fill="white"/>
<path d="M121.682 104.462C121.682 104.462 118.518 111.424 116.753 113.276C114.913 115.128 109.543 118.979 109.543 118.979C109.543 118.979 104.246 122.016 102.848 122.46C101.45 122.905 101.083 122.979 101.083 122.979V98.5366L102.995 78.0201" fill="#76B82A"/>
<path d="M0.662109 142.754C0.809235 144.606 1.17706 146.458 2.42773 147.717C3.67839 148.976 22.2176 165.197 22.2176 165.197L35.5334 175.418C35.5334 175.418 37.0048 176.233 40.1682 175.196C43.3316 174.085 46.2744 172.826 46.2744 172.826C46.2744 172.826 48.1136 172.529 48.1871 172.603C48.2607 172.677 51.9391 176.159 52.9691 176.233C53.999 176.307 55.3232 175.27 55.3232 175.122C55.3232 174.974 56.1325 175.566 56.1325 175.566C56.1325 175.566 57.9717 176.455 58.4131 176.307C58.8545 176.159 59.3695 175.64 59.3695 175.64L59.6637 174.603L59.958 173.492C59.958 173.492 60.5466 173.492 60.6201 173.492C60.6937 173.492 61.7237 172.529 61.6501 171.863C61.5765 171.196 61.4294 170.307 61.4294 170.307C61.4294 170.307 62.9008 170.159 62.9743 169.493C63.1215 168.752 63.3422 167.937 63.3422 167.937L62.3858 165.789C62.3858 165.789 53.0426 159.123 52.9691 159.049C52.8955 159.049 44.2144 160.16 44.1409 160.234C44.0673 160.308 37.299 162.382 37.299 162.382C37.299 162.382 26.0431 149.124 25.9695 149.05C25.9695 148.976 19.7162 142.903 19.3484 142.606C18.907 142.31 18.392 141.94 18.4656 141.94C18.5392 141.94 19.1277 140.162 19.1277 140.162L24.6453 127.275L25.0867 126.312L16.4057 121.201L9.12245 117.572C9.12245 117.572 8.60746 118.757 7.94534 120.46C7.3568 121.794 6.69469 123.497 6.03258 125.275C4.70836 128.608 3.31056 132.163 2.86916 133.792C1.76562 137.422 0.514969 140.903 0.662109 142.754Z" fill="white"/>
<path d="M102.995 152.087L104.172 164.012L104.393 166.308L105.938 173.27C105.938 173.27 106.159 173.566 106.747 173.344C107.336 173.122 110.794 169.419 110.794 169.122C110.794 168.826 110.426 167.197 110.426 167.197L112.265 161.493L125.728 139.866C125.728 139.866 130.583 132.681 130.216 131.2C129.774 129.719 128.818 127.126 128.818 127.126L119.769 112.683L118.96 111.35C118.96 111.35 114.398 115.646 113.81 116.09C113.221 116.535 107.777 120.016 107.777 120.016L110.794 124.016L115.723 131.719L113.516 136.163L107.483 151.05L102.995 152.087Z" fill="white"/>
<path d="M33.7678 339.328C33.7678 339.624 33.7678 339.92 33.8413 340.142C33.9149 340.661 34.1356 341.253 34.2827 341.772C34.5034 342.957 34.2827 344.142 34.3563 345.401C34.4299 346.586 34.7977 347.919 35.9012 348.512C36.2691 348.734 36.7105 348.808 37.1519 348.808C42.8902 349.623 48.7021 348.29 54.514 348.438C55.5439 348.438 56.6475 348.586 57.6774 348.29C58.7074 348.068 59.7373 347.475 60.1787 346.512C60.3994 345.994 60.473 345.475 60.5466 344.957C60.6201 344.438 60.6937 343.92 60.7673 343.401C60.8408 343.031 60.8408 342.661 60.9144 342.29C60.988 341.55 61.1351 340.809 60.988 340.068C60.8408 339.106 60.2523 338.291 59.5902 337.476C58.5602 336.143 57.3831 334.884 56.1325 333.773C55.2497 332.958 54.2197 332.143 53.1897 331.551C50.9091 330.292 48.2607 329.995 45.7594 330.366C43.1845 330.736 40.8303 331.773 38.6233 333.18L38.6968 333.402C37.8876 333.476 37.2255 334.143 36.7105 334.736C36.0484 335.476 35.4598 336.217 34.8713 337.032C34.3563 337.698 33.8413 338.439 33.7678 339.328Z" fill="#76B82A"/>
<path d="M91.5923 340.142C91.7395 342.809 91.8866 345.475 92.0337 348.142C93.5787 348.29 95.1972 348.438 96.6685 347.919C97.8456 347.549 99.0963 346.66 100.273 347.105C100.641 347.253 100.935 347.475 101.303 347.623C102.186 347.994 103.216 347.919 104.172 347.845C113.516 347.179 122.932 347.994 132.349 347.179C133.453 347.105 134.777 346.883 135.365 345.92C135.88 345.105 135.66 343.92 135.145 343.105C135.071 342.957 134.998 342.883 134.924 342.735C134.85 342.587 134.777 342.439 134.85 342.216C134.85 342.068 134.998 341.92 135.071 341.772C135.733 340.809 135.66 339.402 135.071 338.365C134.483 337.328 133.526 336.513 132.57 335.847C129.48 333.847 125.728 332.884 122.05 333.032C121.682 333.032 121.387 333.032 121.02 333.106C120.431 333.18 119.842 333.18 119.254 333.106C118.15 332.884 117.341 331.921 116.679 331.032L116.311 330.884C107.851 331.995 99.6113 334.884 92.2544 339.18C92.0337 339.328 91.813 339.402 91.7395 339.624C91.5188 339.624 91.5923 339.846 91.5923 340.142Z" fill="#76B82A"/>
<path d="M6.03258 125.275C6.10614 125.275 6.10616 125.349 6.17972 125.349C7.20967 125.719 8.16605 126.089 9.19601 126.46C9.93169 126.682 10.6674 126.904 11.4031 127.052C13.5365 127.497 15.7436 127.497 17.877 127.497C19.8634 127.497 21.8497 127.423 23.8361 127.349C24.1303 127.349 24.3511 127.275 24.6453 127.275L25.0867 126.312L16.4057 121.201L9.12245 117.572C9.12245 117.572 8.60746 118.757 7.94534 120.46C7.43037 121.868 6.76826 123.571 6.03258 125.275Z" fill="#F4C6CC"/>
<path d="M0.662109 142.754C0.809235 144.606 1.17706 146.458 2.42773 147.717C3.67839 148.976 22.2176 165.197 22.2176 165.197L35.5334 175.418C35.5334 175.418 37.0048 176.233 40.1682 175.196C43.3316 174.085 46.2744 172.826 46.2744 172.826C46.2744 172.826 48.1136 172.529 48.1871 172.603C48.2607 172.677 51.9391 176.159 52.9691 176.233C53.999 176.307 55.3232 175.27 55.3232 175.122C55.3232 174.974 56.1325 175.566 56.1325 175.566C56.1325 175.566 57.9717 176.455 58.4131 176.307C58.8545 176.159 59.3695 175.64 59.3695 175.64L59.6637 174.603L57.8245 171.641C57.0889 172.752 55.3968 172.381 54.3668 171.566C53.3369 170.752 52.4541 169.567 51.2034 169.344C51.2034 169.863 51.2034 170.455 51.2034 170.974C47.2307 170.159 43.1109 169.937 38.9911 170.381C38.0347 170.455 37.1519 170.604 36.1955 170.381C35.3863 170.159 34.7242 169.715 33.9885 169.27C25.1603 163.345 17.1414 156.161 10.226 148.087C9.04887 146.754 7.87178 145.273 7.13609 143.643C4.85548 138.533 6.91541 132.607 8.82817 127.349C8.90174 127.052 9.04886 126.756 9.12243 126.534C9.63741 124.83 10.0053 122.979 9.04887 121.571C8.7546 121.127 8.31319 120.831 7.87178 120.534C7.28323 121.868 6.62111 123.571 5.959 125.349C4.63478 128.682 3.23698 132.237 2.79558 133.866C1.76562 137.422 0.514969 140.903 0.662109 142.754Z" fill="#F4C6CC"/>
<path d="M102.995 152.087L104.172 164.012C105.129 163.493 106.085 162.901 106.894 162.234C107.189 162.012 107.409 161.79 107.557 161.493C107.777 160.975 107.704 160.382 107.704 159.864C107.777 158.605 108.366 157.42 108.954 156.309C111.897 150.828 114.84 145.273 117.783 139.792C119.107 137.422 120.357 134.977 121.387 132.459C121.461 132.163 121.608 131.941 121.608 131.644C121.608 131.2 121.387 130.756 121.167 130.385C119.769 127.793 118.665 125.053 117.93 122.238C117.783 121.794 117.709 121.275 117.709 120.757C117.709 120.238 117.93 119.646 118.077 119.127C118.813 117.053 119.328 114.905 119.622 112.683L118.813 111.35C118.813 111.35 114.251 115.646 113.663 116.09C113.074 116.535 107.63 120.016 107.63 120.016L110.646 124.016L115.576 131.719L113.368 136.163L107.336 151.05L102.995 152.087Z" fill="#F4C6CC"/>
<path d="M62.0915 57.7999C62.9743 58.1702 63.6364 58.9109 64.1514 59.6515C64.74 60.3922 65.3285 61.0588 66.0642 61.7254C67.9034 63.2808 70.1104 64.0955 72.4646 64.614C72.906 64.6881 73.5681 64.9844 74.0831 64.8362C74.0095 63.2067 73.936 61.6513 73.8624 60.0219C75.4073 60.5403 76.9523 59.6515 78.2765 58.6887C79.5272 57.7258 80.7778 56.6148 81.6606 55.2816C83.4263 52.6893 83.8677 49.3563 84.0884 46.1714C84.5298 38.2462 83.5734 30.247 81.2928 22.6922L81.3664 22.9144C78.6443 22.9144 75.8487 22.7663 73.1267 22.47C72.6117 25.4327 73.421 28.4694 73.6417 31.4321C73.7888 33.6541 73.6417 35.8761 73.8624 38.024C74.0831 40.246 74.8188 42.468 76.5109 43.9494C75.9959 44.3197 75.2602 44.3197 74.7452 44.69C74.0095 45.2085 73.936 46.3195 74.0095 47.2083C74.0831 48.0971 74.2302 49.1341 73.7153 49.8747C73.4946 50.2451 73.0532 50.5413 72.9796 50.9117C72.906 51.2079 72.9796 51.4301 73.0532 51.7264C73.6417 53.9484 73.8624 56.3926 72.6853 58.3183C72.391 58.7627 72.0232 59.2071 71.5818 59.4293C71.1404 59.6515 70.699 59.7256 70.2576 59.7256C67.2413 59.9478 64.8135 58.6887 62.0915 57.7999Z" fill="#F4C6CC"/>
<path d="M53.484 26.2474C53.6312 25.8771 53.9254 25.5068 54.2197 25.2105C55.7646 23.4329 57.4567 21.5812 59.8109 20.9146C61.9444 20.3961 64.225 21.0627 66.3585 21.4331C67.9034 21.7293 69.5219 21.8775 71.0668 21.8775C71.3611 21.8775 71.6554 21.8775 71.9496 21.8034C72.7589 22.0256 73.5681 22.3219 74.3038 22.5441C76.8051 23.2107 79.7479 23.6551 81.8813 22.1737C82.6906 21.5812 83.3527 20.8405 83.8677 20.0258C84.2355 19.4333 84.6034 18.8407 84.8241 18.2482C84.9712 18.2482 85.1183 18.1741 85.2655 18.1001C85.2655 17.8779 85.2655 17.5816 85.2655 17.3594C85.1919 17.5075 85.1183 17.6557 84.9712 17.8038C84.8241 18.026 84.6769 18.1741 84.5298 18.3223C83.3527 19.6555 81.6606 20.3961 79.9686 20.6924C77.8351 20.9887 75.628 20.6924 73.5681 20.248C70.9932 19.7295 68.4184 19.137 65.7699 18.9889C63.1215 18.8407 60.3994 19.137 58.1188 20.3221C55.9118 21.5071 53.999 23.6551 53.484 26.2474Z" fill="white"/>
<path d="M61.3558 13.0635C65.9906 9.50832 72.3175 8.24919 77.9822 9.80459C78.865 10.0268 79.7479 10.3231 80.6307 10.3971C81.4399 9.36019 82.102 8.10106 82.3963 6.76785C81.7342 7.13819 80.9249 7.36039 80.1893 7.43446C78.2765 7.73072 76.3637 7.36039 74.451 7.28632C71.9496 7.13819 69.4483 7.28632 67.0941 8.17512C64.74 9.06392 62.68 10.0268 61.7237 12.3229L61.3558 13.0635Z" fill="white"/>
<path d="M66.432 17.8779L69.9633 16.2484C71.0668 15.6559 72.6117 15.8781 73.7888 16.0262C74.9659 16.1743 76.143 16.6187 77.3201 16.9891C79.3064 17.7297 81.4399 18.3963 83.5734 18.3963C83.9412 18.3963 84.3826 18.3963 84.7505 18.3223C84.8241 18.3223 84.8976 18.3223 84.9712 18.2482C85.1183 18.2482 85.2655 18.1741 85.4126 18.1001C85.4126 17.8779 85.4126 17.5816 85.4126 17.3594C85.339 17.5075 85.2655 17.6557 85.1183 17.8038C85.339 17.2113 85.5597 16.6928 85.7069 16.1003C84.2355 16.8409 82.3227 16.7669 80.7042 16.3965C78.7915 15.9521 77.0258 15.0633 75.1131 14.7671C71.8761 14.1745 68.3448 15.2855 66.432 17.8779Z" fill="white"/>
<path d="M40.8303 21.4331C41.051 23.2847 42.5224 24.7661 43.8466 26.0993L44.0673 26.4696C44.1409 26.4696 44.1409 26.4696 44.2144 26.4696L47.0836 25.729C45.9801 25.803 44.8766 25.3586 44.1409 24.5439C43.6995 24.0254 43.4788 23.5069 43.2581 22.8403C42.6695 20.9887 42.9638 18.9148 43.773 17.1372C44.5087 15.3596 45.7594 13.8042 47.1572 12.3969C47.0836 12.3969 46.9365 12.3969 46.8629 12.3969C45.5387 13.5079 44.288 14.7671 43.1109 16.1003C41.7867 17.6557 40.6096 19.5073 40.8303 21.4331Z" fill="white"/>
<path d="M89.9003 78.2423C87.9875 78.7608 86.0747 78.8348 84.0884 78.6126C83.7941 78.6126 83.4263 78.5386 83.2056 78.6867C83.0584 78.7608 82.9113 78.9089 82.7641 79.057C80.6307 81.1309 78.7179 83.3529 77.0994 85.8712C75.9959 83.0566 77.0994 79.8718 78.6443 77.3535C79.3064 76.2425 80.2628 74.9834 81.5871 74.9093C82.1756 74.8352 82.6906 75.0574 83.2056 75.2056C84.6033 75.65 86.0747 76.0944 87.4725 76.5388" fill="#76B82A"/>
<path d="M59.5902 84.8342C60.1787 86.1674 60.473 87.6488 60.5466 89.1301C57.3831 86.9822 54.0726 84.9083 50.8356 82.9085C50.3942 82.6122 49.9528 82.39 49.4378 82.316C48.9228 82.2419 48.4814 82.316 47.9664 82.39C46.3479 82.6863 44.803 82.9085 43.1845 83.2048C43.2581 82.4641 43.3316 81.7975 43.4788 81.0568C43.4788 80.7606 43.5523 80.4643 43.6995 80.2421C43.9202 80.0199 44.2144 79.8718 44.5087 79.7977C46.2744 79.2052 48.04 78.6126 49.8056 78.0201C50.1735 77.872 50.6149 77.7238 50.9827 77.7979C52.4541 77.872 53.1162 79.7977 54.4404 80.3902" fill="#76B82A"/>
<path d="M7.7982 116.905L12.2859 118.979C12.2859 118.979 12.2859 118.979 12.3594 118.979C13.7572 119.572 15.155 120.164 16.4793 120.905C16.2586 118.312 16.7 115.646 17.2149 113.128C19.0541 105.054 22.2176 97.2775 26.9259 90.4633C27.9559 89.0561 29.0594 87.5747 30.6779 86.9081C32.6642 86.0934 34.8713 86.6859 36.9312 87.2785L35.092 86.0934C33.0321 85.2787 30.7515 84.9083 28.5444 84.9824L27.8823 85.649L23.1004 88.9079C23.1004 88.9079 21.629 89.6486 20.3048 91.1299C18.907 92.6113 12.8744 102.832 12.8744 102.832C12.8744 102.832 11.918 105.277 11.1088 107.351C10.1524 109.498 7.7982 116.905 7.7982 116.905Z" fill="#76B82A"/>
<path d="M35.3863 121.72L36.2691 120.46C36.2691 120.46 37.814 125.349 38.844 128.682C42.5224 123.201 43.6259 116.239 43.9937 109.498C44.1409 106.61 44.288 103.795 43.8466 100.907C43.5523 98.5366 42.8902 96.1665 42.0074 94.0185L42.081 94.8333C42.5959 103.573 40.4625 112.461 36.0484 120.016C35.7541 120.534 35.4598 120.979 35.3127 121.571C35.3863 121.571 35.3863 121.645 35.3863 121.72Z" fill="#76B82A"/>
<path d="M73.5681 71.8726C73.5681 72.4651 73.7888 73.0576 74.0095 73.6502C74.2302 74.3168 74.5245 75.0574 74.7452 75.724C74.8188 75.9462 74.8924 76.1684 74.9659 76.4647C76.5109 74.0205 78.0558 71.5763 78.7179 68.7617C79.1593 66.836 79.1593 64.6881 78.4236 62.8364C77.0258 62.2439 75.628 61.8735 74.0831 61.8735C74.2302 63.7993 74.3038 65.725 74.1567 67.6507C74.0831 68.3174 74.0095 69.058 73.8624 69.7246C73.7153 70.3912 73.5681 71.1319 73.5681 71.8726Z" fill="#76B82A"/>
<path d="M33.7678 339.328C33.7678 339.624 33.7678 339.92 33.8413 340.142C34.2092 338.809 35.3863 337.698 36.5634 336.958C40.0211 334.661 44.3616 333.551 48.4814 334.143C52.6012 334.736 56.5003 336.958 59.0016 340.291C59.7373 341.253 60.3259 342.29 60.8408 343.401C60.9144 343.031 60.9144 342.661 60.988 342.29C61.0615 341.55 61.2087 340.809 61.0616 340.068C60.9144 339.106 60.3259 338.291 59.6637 337.476C58.6338 336.143 57.4567 334.884 56.2061 333.773C55.3232 332.958 54.2933 332.143 53.2633 331.551C50.9827 330.292 48.3343 329.995 45.8329 330.366C43.2581 330.736 40.9039 331.773 38.6968 333.18L38.7704 333.402C37.9612 333.476 37.299 334.143 36.7841 334.736C36.122 335.476 35.5334 336.217 34.9449 337.032C34.3563 337.698 33.8413 338.439 33.7678 339.328Z" fill="white"/>
<path d="M109.102 337.106L109.984 336.735C112.78 335.921 115.576 335.106 118.445 335.106C123.006 335.106 127.273 337.032 131.098 339.55C131.319 339.698 131.613 339.92 131.761 340.142C131.981 340.513 131.908 341.031 131.761 341.402C131.54 341.772 131.246 342.142 130.951 342.439C132.276 342.439 133.6 342.513 134.924 342.587C134.85 342.439 134.777 342.29 134.85 342.068C134.85 341.92 134.998 341.772 135.071 341.624C135.733 340.661 135.66 339.254 135.071 338.217C134.483 337.18 133.526 336.365 132.57 335.698C129.48 333.699 125.728 332.736 122.05 332.884C117.562 333.328 113.074 334.884 109.102 337.106Z" fill="white"/>
<path d="M79.4536 192.379C78.2765 198.379 77.0994 204.452 76.2166 210.526L79.4536 192.379Z" fill="#4C742C"/>
<path d="M75.628 213.488C75.628 213.636 75.7016 213.785 75.7016 213.859C75.8487 212.748 75.9959 211.637 76.143 210.526L75.628 213.488Z" fill="#4C742C"/>
<path d="M95.565 301.998C96.1536 301.257 96.6685 300.443 97.0364 299.628C96.595 300.443 96.08 301.257 95.565 301.998Z" fill="#4C742C"/>
<path d="M98.2135 182.602C100.568 199.712 100.862 217.043 102.039 234.301C103.069 249.559 104.687 264.817 106.894 280C107.557 284.444 108.292 288.888 109.396 293.258C110.352 297.11 111.676 300.887 113.295 304.516C112.78 301.924 112.412 299.998 112.412 299.85C112.339 299.258 109.396 276.223 109.396 276.223C109.396 276.223 106.968 248.744 106.747 246.152C106.527 243.559 104.687 219.043 104.687 219.043L101.892 181.565C101.818 181.491 100.273 182.01 98.2135 182.602Z" fill="white"/>
<path d="M60.1052 276.667C60.9144 277.556 62.0179 278.297 62.3122 279.408C62.4594 280 62.3858 280.593 62.3122 281.185C61.7237 287.851 62.2386 294.665 63.8571 301.183C63.9307 298.591 64.0043 295.925 64.0778 293.332C64.225 289.036 64.3721 284.666 65.6963 280.519C65.8435 280.074 65.9906 279.63 65.9906 279.111C65.9171 277.408 63.6364 275.853 64.5193 274.297C65.1814 273.112 67.462 272.964 67.3148 271.631C67.3148 271.186 67.0206 270.89 66.7263 270.52C66.0642 269.705 65.6228 268.816 65.2549 267.853H65.3285L65.7699 263.631L68.6391 248.226C69.5219 241.189 70.8461 234.153 72.2439 227.191C75.2602 212.081 78.3501 196.971 81.5871 181.936L66.2849 236.671C64.3721 244.374 62.4593 252.077 60.473 259.78C59.7373 262.669 59.0752 265.853 60.3994 268.446C60.9144 269.557 61.8708 270.816 61.2087 271.853C60.7673 272.52 59.8845 272.742 59.443 273.334C58.6338 274.371 59.2959 275.778 60.1052 276.667Z" fill="white"/>
<path d="M80.8514 22.47C81.7342 24.6179 82.1756 26.914 82.3963 29.2101C82.617 31.5062 82.8377 33.8022 82.9849 36.0983C83.2791 40.6904 83.3527 45.2826 82.3227 49.7266C81.8813 51.9486 81.1456 54.0965 79.895 55.8741C78.7179 57.6517 76.8787 59.059 74.7452 59.4293C73.7153 59.6515 72.5382 59.6515 71.4347 59.5775C70.3311 59.5775 69.154 59.4293 68.0505 59.2812C65.7699 58.9849 63.5629 58.3183 61.4294 57.4295C63.4157 58.6146 65.6228 59.4293 67.9034 59.9478C69.0069 60.2441 70.184 60.3922 71.3611 60.5403C72.5382 60.6144 73.7153 60.6885 74.8924 60.5403C76.143 60.3922 77.3201 59.8737 78.3501 59.2071C79.38 58.5405 80.2628 57.6517 80.9985 56.6148C82.3963 54.615 83.2056 52.2449 83.7205 49.9488C84.2355 47.6527 84.4562 45.2826 84.4562 42.9124C84.4562 40.5423 84.3091 38.2462 84.0148 35.8761C83.7205 33.58 83.3527 31.284 82.9849 28.9879C82.617 26.84 82.0285 24.5439 80.8514 22.47Z" fill="black"/>
<path d="M51.8655 41.283C50.9827 40.6904 50.0999 40.0979 49.0699 39.7276C48.04 39.3572 46.7893 39.2091 45.6858 39.7276C44.5823 40.246 43.773 41.2089 43.2581 42.2458C42.7431 43.3568 42.5959 44.5419 42.7431 45.727C42.9638 48.0971 44.3616 50.2451 46.3479 51.5042C48.3343 52.6893 50.762 53.0596 53.0426 52.4671L52.2334 52.0227C52.8219 54.0225 53.2633 56.0223 53.7047 58.0961C54.1461 60.17 54.4404 62.2439 54.7347 64.3177C54.8818 62.1698 54.8083 60.0959 54.5875 57.948C54.3668 55.8001 53.999 53.7262 53.484 51.6523C53.4105 51.282 53.0426 51.1339 52.7484 51.1339C50.8356 51.5042 48.7757 51.2079 47.0836 50.171C45.3915 49.2081 44.288 47.4305 43.9937 45.5048C43.8466 44.5419 43.9202 43.579 44.288 42.6902C44.6559 41.8014 45.2444 40.9867 46.0536 40.4682C46.8629 40.0238 47.8929 39.9498 48.9228 40.172C49.9528 40.3942 50.9091 40.8386 51.8655 41.283Z" fill="black"/>
<path d="M53.0426 47.6527C52.4541 47.8749 51.8655 48.0971 51.277 48.2453C50.6884 48.3934 50.0999 48.5415 49.5113 48.6897L49.8792 48.9119C49.732 48.3193 49.3642 48.0231 49.2906 47.6527C49.2171 47.3565 49.2906 47.0602 49.5113 46.7639C49.732 46.4676 50.0999 46.1714 50.3942 45.801C50.6884 45.4307 50.9827 44.9122 50.9091 44.3197C50.8356 44.0234 50.6884 43.7272 50.3942 43.579C50.1735 43.4309 49.8792 43.3568 49.5849 43.3568C49.0699 43.3568 48.6285 43.505 48.1871 43.6531C47.8193 43.8013 47.3779 43.8753 47.01 43.7272C46.6422 43.579 46.4215 43.1346 46.2744 42.7643C46.3479 43.2087 46.4215 43.7272 46.8629 44.0234C47.3043 44.3197 47.8193 44.2456 48.2607 44.1716C48.7021 44.0975 49.0699 43.9494 49.5113 44.0234C49.8792 44.0234 50.0999 44.2456 50.1735 44.5419C50.1735 44.8382 50.0999 45.2085 49.8056 45.4307C49.5113 45.727 49.2171 46.0233 48.9228 46.4677C48.7757 46.6898 48.6285 46.9121 48.555 47.2083C48.4814 47.5046 48.555 47.8009 48.6285 48.0971C48.8492 48.6156 49.2171 48.9119 49.2906 49.2081C49.3642 49.3563 49.5114 49.4303 49.6585 49.4303C50.247 49.2822 50.8356 49.06 51.4241 48.7637C52.0127 48.3193 52.5276 48.0231 53.0426 47.6527Z" fill="black"/>
<path d="M53.1898 25.8771C53.1162 27.2844 53.1898 28.6916 53.3369 30.0989C53.484 31.5062 53.7783 32.9134 54.1461 34.2466C54.514 35.6539 54.9554 36.9871 55.4704 38.2462C55.9854 39.5794 56.5739 40.8386 57.3096 42.0977L57.5303 41.283C57.0153 41.6533 56.5003 42.0236 55.9854 42.3199L55.1761 42.8384C54.9554 42.9865 54.5876 43.2828 54.4404 43.3568C54.3669 43.3568 54.3668 43.4309 54.2933 43.3568C54.2197 43.3568 54.1461 43.2828 53.999 43.2087C53.7783 42.9865 53.5576 42.7643 53.3369 42.5421C52.8955 42.0977 52.4541 41.6533 51.9391 41.2089C52.2334 41.8014 52.6012 42.3199 52.8955 42.8384C53.0426 43.1346 53.1898 43.3568 53.4105 43.6531C53.484 43.8013 53.6312 43.9494 53.8519 44.0975C54.0726 44.2456 54.3669 44.2456 54.5876 44.1716C55.029 44.0234 55.2497 43.8753 55.5439 43.7272L56.3532 43.2828C56.9417 42.9865 57.4567 42.6902 58.0453 42.394C58.3395 42.2458 58.4131 41.8755 58.3395 41.5792V41.5052C57.751 40.246 57.236 38.9869 56.721 37.7278C56.2061 36.4686 55.7646 35.1354 55.3232 33.8763C54.8818 32.5431 54.514 31.284 54.1461 29.9508C53.9254 28.5435 53.5576 27.2103 53.1898 25.8771Z" fill="black"/>
<path d="M44.7294 40.9867C43.4788 39.135 42.081 37.3574 41.1246 35.4317C40.1682 33.506 39.6532 31.358 40.7567 29.7286C41.7867 28.025 43.773 27.1362 45.8329 26.6918C47.9664 26.2474 50.1735 25.9512 52.3805 25.729C50.1735 25.3586 47.8929 25.2846 45.6123 25.5808C44.4352 25.729 43.3316 26.0252 42.2281 26.5437C41.1246 27.0622 40.1682 27.951 39.5061 28.9879C38.844 30.0989 38.6233 31.5062 38.844 32.6912C39.0647 33.9504 39.5797 34.9873 40.1682 36.0242C41.3453 37.95 42.9638 39.5054 44.7294 40.9867Z" fill="black"/>
<path d="M80.4835 10.6193C81.6606 9.28612 82.4699 7.58259 82.7641 5.73092C83.0584 3.95331 82.9113 2.02758 82.2492 0.249976C82.1756 0.0277758 81.8813 -0.0462919 81.6606 0.0277749C81.5871 0.0277749 81.5135 0.101842 81.4399 0.175909C80.8514 1.06471 79.895 1.65725 78.9386 2.10165C77.9822 2.54605 76.8787 2.76825 75.7752 2.84231C73.5681 3.06451 71.214 2.91638 68.9333 3.21265C64.2985 3.80518 59.8109 4.84212 55.4704 6.54565C51.1299 8.24919 47.01 10.7675 43.9202 14.3227C43.1109 15.2115 42.3752 16.1003 41.7867 17.1372C41.1981 18.1741 40.6832 19.2851 40.6096 20.5443C40.536 21.1368 40.6096 21.8034 40.8303 22.3219C41.051 22.9144 41.3453 23.4329 41.7131 23.8773C42.4488 24.7661 43.3316 25.5068 44.0673 26.4696C43.4788 25.5068 42.6695 24.618 42.0074 23.7291C41.3453 22.8403 41.051 21.7293 41.1982 20.6183C41.3453 19.5814 41.8603 18.5445 42.5224 17.6557C43.1845 16.7669 43.9202 15.8781 44.7294 15.0633C47.8928 11.8044 51.8655 9.58239 56.0589 7.95292C58.1924 7.13819 60.3259 6.54565 62.5329 5.95312C64.74 5.43465 66.947 4.99025 69.2276 4.69398C70.3311 4.54585 71.4347 4.47178 72.6117 4.39772C73.7153 4.32365 74.8924 4.32365 76.0695 4.17552C77.2465 4.02738 78.4236 3.73111 79.5271 3.13858C80.6307 2.62011 81.6606 1.80538 82.3227 0.768443L81.5871 0.694376C82.3227 2.24978 82.617 4.02738 82.4699 5.80499C82.102 7.43445 81.5135 9.13799 80.4835 10.6193Z" fill="black"/>
<path d="M60.8408 13.5079C62.6065 12.0266 64.5928 10.9156 66.7999 10.3231C67.9034 9.95272 69.0069 9.80459 70.1104 9.65646C71.214 9.50833 72.3175 9.50832 73.421 9.58239C74.5245 9.65646 75.628 9.87866 76.658 10.1749C77.6879 10.4712 78.7915 10.9156 79.9686 11.2119C81.1457 11.5081 82.5434 11.36 83.7205 10.7675C84.8976 10.1749 85.7804 9.13799 86.2954 7.87886L85.0448 7.95292C85.7804 9.58239 85.854 11.4341 85.5597 13.2857C85.2655 15.1374 84.6769 16.9891 83.8677 18.6185C83.0584 20.248 81.7342 21.6553 80.1157 22.1737C78.4972 22.6922 76.5844 22.3959 74.6716 22.1737L68.9333 21.359C67.0206 21.0627 65.1078 20.8405 63.195 20.6183C62.2386 20.5443 61.2087 20.4702 60.1787 20.6183C59.1488 20.7665 58.1924 21.2849 57.4567 21.9515C55.9118 23.2107 54.8818 24.9142 53.3369 26.1734C54.9554 25.1364 56.1325 23.4329 57.6774 22.3959C58.4131 21.8775 59.2959 21.5071 60.2523 21.359C61.1351 21.2849 62.0915 21.359 63.0479 21.5071C66.8734 22.1737 70.699 22.8403 74.4509 23.5069C75.4073 23.6551 76.3637 23.8773 77.3937 23.8773C78.4236 23.9513 79.4536 23.8773 80.4835 23.581C81.5135 23.2847 82.4699 22.6181 83.2056 21.8775C83.9412 21.1368 84.6033 20.248 85.0448 19.3592C86.0011 17.5075 86.5897 15.5818 86.884 13.582C87.1782 11.5822 87.1782 9.36019 86.2219 7.43446C86.0747 7.06412 85.6333 6.91599 85.339 7.13819C85.1919 7.21225 85.0448 7.36039 84.9712 7.50852C84.6769 8.39732 83.9412 9.21206 83.132 9.73053C82.2492 10.249 81.2928 10.3231 80.2628 10.1749C79.2329 10.0268 78.1294 9.58239 77.0258 9.28613C75.9223 8.98986 74.7452 8.84172 73.5681 8.76766C71.2139 8.69359 68.8598 9.06392 66.7263 9.95272C64.4457 10.6193 62.4593 11.8785 60.8408 13.5079Z" fill="black"/>
<path d="M85.854 14.7671C84.9712 14.9152 84.2355 14.8411 83.4998 14.693C82.7641 14.5449 81.9549 14.3227 81.1456 14.1745C80.3364 14.0264 79.5271 13.9523 78.7179 13.9523C77.9086 13.9523 77.0258 13.9523 76.2166 14.1005C76.9523 14.5449 77.7615 14.8411 78.5708 15.0633C79.38 15.2855 80.1893 15.5077 80.9985 15.6559C81.8078 15.804 82.617 15.8781 83.4998 15.8781C84.3826 15.804 85.339 15.4337 85.854 14.7671Z" fill="black"/>
<path d="M84.6769 18.3223C83.0584 18.2482 81.5135 17.8038 80.0421 17.2113C78.5708 16.6187 77.0994 15.9521 75.4809 15.4337C74.6717 15.2115 73.7888 15.0633 72.906 15.0633C72.0232 15.0633 71.1404 15.2115 70.3311 15.5077C68.7126 16.0262 67.3148 16.9891 66.0642 18.1001C67.6091 17.5075 69.0805 16.915 70.6254 16.6187C72.0968 16.3225 73.5681 16.4706 75.1131 16.915C76.5844 17.2853 78.1294 17.9519 79.7479 18.3223C81.3664 18.7667 83.132 18.9148 84.6769 18.3223Z" fill="black"/>
<path d="M63.1215 4.99025C61.503 5.50872 59.8845 6.32345 58.4867 7.21225C57.0153 8.17512 55.6911 9.28612 54.514 10.6934C53.9254 11.36 53.4105 12.1007 52.9691 12.8413C52.5276 13.582 52.1598 14.3967 51.8655 15.2855C51.277 16.9891 51.0563 18.7667 51.277 20.4702C51.6448 18.7667 52.1598 17.2113 52.8955 15.7299C53.6312 14.2486 54.5875 12.9154 55.6175 11.6563C56.6475 10.3971 57.8981 9.28613 59.1488 8.17512C60.3994 7.13819 61.7972 6.10125 63.1215 4.99025Z" fill="black"/>
<path d="M53.6312 8.10106C52.6012 8.69359 51.7184 9.50833 50.9827 10.3971C50.247 11.2859 49.5849 12.3229 49.1435 13.4339C48.7021 14.5449 48.4078 15.7299 48.2607 16.915C48.1136 18.1001 48.1871 19.2851 48.4814 20.4702C48.7757 19.2851 49.0699 18.2482 49.3642 17.1372C49.6585 16.1003 50.0999 15.0633 50.4677 14.0264C50.9091 12.9895 51.3506 12.0266 51.9391 11.0637C52.4541 10.1009 53.0426 9.13799 53.6312 8.10106Z" fill="black"/>
<path d="M47.8929 11.4341C47.2307 11.9525 46.7158 12.6932 46.3479 13.5079C45.9801 14.2486 45.6858 15.1374 45.6123 15.9521C45.4651 16.8409 45.4651 17.6557 45.6123 18.5445C45.7594 19.4333 46.0536 20.248 46.5686 20.9146L46.7893 18.4704C46.8629 17.6557 46.9365 16.915 47.0836 16.1743C47.2307 15.4337 47.3043 14.6189 47.4514 13.8783C47.5986 13.0635 47.8193 12.2488 47.8929 11.4341Z" fill="black"/>
<path d="M49.6585 25.6549C49.2171 26.4696 49.0699 27.4325 49.1435 28.3954C49.2171 29.3582 49.3642 30.247 49.6585 31.1358C49.9528 32.0246 50.3206 32.8394 50.8356 33.6541C51.3505 34.3948 52.0127 35.1354 52.8955 35.5798C52.5276 34.7651 52.1598 33.9504 51.8655 33.1356C51.5713 32.3209 51.3506 31.5062 51.0563 30.6914C50.762 29.8767 50.5413 29.062 50.247 28.2472C49.9528 27.4325 49.8056 26.6178 49.6585 25.6549Z" fill="black"/>
<path d="M47.3043 25.8771C46.3479 27.2844 46.2008 29.136 46.6422 30.7655C46.8629 31.5802 47.2307 32.3209 47.6721 33.0616C48.1135 33.7282 48.7021 34.3948 49.3642 34.8392C49.2171 34.0244 48.9228 33.2838 48.7021 32.5431C48.4814 31.8024 48.2607 31.1358 48.04 30.3952C47.8193 29.6545 47.6721 28.9879 47.5986 28.2472C47.4514 27.4325 47.4514 26.6918 47.3043 25.8771Z" fill="black"/>
<path d="M44.9501 26.2474C44.4352 26.914 44.1409 27.8028 43.9202 28.6176C43.773 29.5064 43.773 30.3952 43.9202 31.2099C44.0673 32.0987 44.3616 32.9134 44.803 33.6541C45.2444 34.3948 45.8329 35.0614 46.5686 35.5058C46.2744 34.691 46.0536 33.9504 45.8329 33.2097C45.6122 32.469 45.4651 31.7284 45.318 30.9877C45.1708 30.247 45.0973 29.5064 45.0237 28.6916C45.0237 27.8769 45.0237 27.0622 44.9501 26.2474Z" fill="black"/>
<path d="M42.3752 27.1362C41.7131 27.5806 41.051 28.3213 40.8303 29.2101C40.6096 30.0989 40.6096 30.9877 40.7567 31.8024C40.9039 32.6172 41.1981 33.506 41.6396 34.2466C42.081 34.9873 42.7431 35.6539 43.4788 36.0242C43.1845 35.2095 42.8902 34.5429 42.6695 33.8022C42.4488 33.0616 42.3017 32.395 42.1545 31.6543C42.0074 30.9136 41.9338 30.173 41.9338 29.4323C41.9338 28.7657 42.1545 28.025 42.3752 27.1362Z" fill="black"/>
<path d="M68.0505 30.3952C67.9034 29.6545 67.6091 28.9879 67.0206 28.4694C66.7263 28.1732 66.3585 27.951 65.917 27.8028C65.4756 27.6547 65.0342 27.6547 64.5928 27.7288C63.7836 27.8769 63.1215 28.3213 62.6065 28.9138C62.0915 29.5064 61.7972 30.173 61.7972 30.9136C62.3858 30.4692 62.8272 30.0248 63.3422 29.8026C63.8571 29.5064 64.3721 29.2842 64.8871 29.2101C65.4021 29.136 65.7699 29.136 66.2849 29.3582C66.8734 29.5804 67.3884 30.0248 68.0505 30.3952Z" fill="black"/>
<path d="M80.7778 27.8769C80.6307 27.2103 80.2628 26.6178 79.7479 26.1734C79.4536 25.9512 79.0857 25.729 78.7179 25.6549C78.3501 25.5808 77.8351 25.5808 77.4672 25.729C76.7316 26.0252 76.2166 26.4696 75.7752 26.9881C75.3338 27.5066 75.0395 28.1732 75.0395 28.8398C75.628 28.4694 76.0695 28.1732 76.5844 27.8769C77.0258 27.5806 77.5408 27.2844 77.9822 27.1362C78.3501 26.9881 78.6443 26.9881 79.1593 27.1362C79.6743 27.3584 80.1893 27.6547 80.7778 27.8769Z" fill="black"/>
<path d="M72.6117 34.9873C72.7589 37.2093 73.4946 39.3572 74.5245 41.283C74.8188 41.8014 75.0395 42.2458 75.3338 42.6902C75.4809 42.9124 75.628 43.1346 75.7752 43.3568C75.8487 43.505 75.9223 43.579 75.9223 43.579C75.9223 43.579 75.9223 43.579 75.9223 43.505C75.9223 43.505 75.9223 43.505 75.8487 43.505C74.9659 44.0234 73.936 44.4678 72.906 44.69C74.0095 44.69 75.1131 44.4678 76.143 44.0234C76.2166 44.0234 76.2902 43.9494 76.4373 43.8012C76.5109 43.6531 76.5109 43.4309 76.5109 43.3568C76.4373 43.1346 76.3637 43.0606 76.2902 42.9124C76.143 42.6902 75.9959 42.468 75.8487 42.2458C75.5545 41.8014 75.3338 41.357 75.0395 40.8386C74.1567 38.9869 73.3474 37.0612 72.6117 34.9873Z" fill="black"/>
<path d="M76.658 50.8376C75.4809 50.5413 74.2302 50.3932 73.1267 50.0229C72.0232 49.7266 70.9932 49.2081 70.0369 48.3934C70.2576 48.9859 70.699 49.5044 71.2139 49.8747C71.7289 50.2451 72.3175 50.5413 72.906 50.6895C74.2302 51.1339 75.4809 51.1339 76.658 50.8376Z" fill="black"/>
<path d="M70.2576 47.2083C69.8162 47.5787 69.5955 48.0231 69.4483 48.4675C69.3012 48.9119 69.2276 49.3563 69.3012 49.9488C69.7426 49.5785 69.9633 49.1341 70.1104 48.6897C70.3311 48.2453 70.4047 47.7268 70.2576 47.2083Z" fill="black"/>
<path d="M61.8708 44.3197C61.8708 45.6529 62.9008 46.9861 64.3721 47.0602C65.1078 47.1343 65.8435 46.838 66.3585 46.3936C66.8734 45.8751 67.2413 45.1344 67.2413 44.3938C67.2413 43.6531 66.947 42.9124 66.3585 42.394C65.8435 41.8755 65.0342 41.6533 64.3721 41.7274C62.9743 41.6533 61.8708 42.9865 61.8708 44.3197ZM61.8708 44.3197C61.8708 43.6531 62.1651 42.9865 62.6801 42.5421C63.195 42.0977 63.7836 41.8755 64.4457 41.9496C65.6963 42.0236 66.5792 43.1346 66.5792 44.3197C66.5792 45.4307 65.6963 46.6158 64.4457 46.6899C63.8571 46.7639 63.195 46.5417 62.6801 46.0973C62.1651 45.6529 61.8708 44.9863 61.8708 44.3197Z" fill="black"/>
<path d="M80.1157 42.9865C80.1157 43.8753 80.4835 44.69 81.2192 45.2826C81.5871 45.5788 82.0285 45.8011 82.5434 45.8751C83.0584 45.9492 83.5734 45.9492 84.0884 45.727C84.2355 45.6529 84.3091 45.5048 84.3826 45.3567V45.2085C84.6769 43.7272 84.7505 42.1718 84.5298 40.6904V40.5423C84.5298 40.3942 84.3826 40.246 84.2355 40.172C83.7205 39.9498 83.2056 39.8757 82.6906 39.9498C82.1756 40.0238 81.7342 40.246 81.3663 40.5423C80.4835 41.283 80.1157 42.1718 80.1157 42.9865ZM80.1157 42.9865C80.1157 42.5421 80.2628 42.0977 80.4835 41.7274C80.7042 41.357 81.0721 41.1348 81.4399 40.9867C81.8078 40.8386 82.2492 40.8386 82.617 40.9126C82.9849 40.9867 83.2791 41.1348 83.5734 41.357L83.2791 40.8386C83.132 42.3199 83.132 43.7272 83.2056 45.2085L83.4998 44.7641C82.9849 45.1345 82.1756 45.3567 81.4399 44.9863C81.0721 44.8382 80.7042 44.5419 80.4835 44.1716C80.2628 43.8753 80.1157 43.4309 80.1157 42.9865Z" fill="black"/>
<path d="M65.917 39.2832C65.3888 39.2832 64.9607 38.0562 64.9607 36.5427C64.9607 35.0292 65.3888 33.8022 65.917 33.8022C66.4452 33.8022 66.8734 35.0292 66.8734 36.5427C66.8734 38.0562 66.4452 39.2832 65.917 39.2832Z" fill="black"/>
<path d="M78.865 37.3574C78.2962 37.3574 77.8351 36.0642 77.8351 34.4688C77.8351 32.8735 78.2962 31.5802 78.865 31.5802C79.4339 31.5802 79.895 32.8735 79.895 34.4688C79.895 36.0642 79.4339 37.3574 78.865 37.3574Z" fill="black"/>
<path d="M73.5681 60.0219C73.3474 60.9847 73.2739 62.0217 73.2003 62.9845C73.1267 63.9474 73.1267 64.9103 73.1267 65.8732C73.1267 66.836 73.1267 67.7989 73.2003 68.7617C73.2739 69.7246 73.3474 70.6875 73.5681 71.7244C73.936 70.7616 74.1567 69.7987 74.3038 68.8358C74.451 67.873 74.5245 66.836 74.5245 65.8732C74.5245 64.9103 74.451 63.8733 74.3038 62.9105C74.1567 61.9476 74.0095 60.9847 73.5681 60.0219Z" fill="black"/>
<path d="M7.7982 117.127C8.90173 113.35 10.226 109.721 11.8445 106.165C13.463 102.61 15.3022 99.1291 17.4356 95.9443C19.5691 92.7594 22.0704 89.6486 25.3074 87.7969C26.9259 86.9081 28.7651 86.2415 30.5308 86.1674C32.37 86.0193 34.2092 86.4637 35.7541 87.3525C37.299 88.3154 38.5497 89.7227 39.5061 91.2781C40.4625 92.9075 40.9774 94.6851 41.1982 96.5368C41.6396 100.314 40.9774 104.166 40.0211 107.869C38.0347 115.35 34.577 122.46 29.8686 128.608L30.5308 128.46C26.8524 126.238 23.1739 124.164 19.3484 122.238C15.5229 120.312 11.6973 118.535 7.72466 116.905C11.5502 118.757 15.3022 120.683 19.0541 122.831C22.7325 124.904 26.4109 127.052 30.0158 129.348C30.2365 129.497 30.5308 129.422 30.6779 129.274C35.6805 123.127 39.2854 115.942 41.3453 108.239C42.3752 104.462 43.1845 100.388 42.6695 96.3146C42.1545 92.315 40.0946 88.2413 36.4898 86.0934C34.7241 84.9824 32.5171 84.612 30.4572 84.7602C28.3973 84.9083 26.411 85.649 24.6453 86.6118C22.8797 87.6488 21.4083 89.0561 20.0841 90.5374C18.7599 92.0187 17.6563 93.6482 16.6264 95.3517C14.5665 98.6847 12.8008 102.24 11.3295 105.869C9.85812 109.498 8.60745 113.276 7.7982 117.127Z" fill="#174075"/>
<path d="M32.2228 126.238C30.5308 124.756 28.6916 123.497 26.8524 122.312C25.0132 121.127 23.0268 120.016 21.1141 118.979C19.1277 117.942 17.1414 117.053 15.0815 116.239C13.0216 115.424 10.9616 114.683 8.75461 114.165C10.6674 115.276 12.6537 116.313 14.5665 117.275L20.3784 120.312L26.2638 123.349C28.2502 124.312 30.2365 125.349 32.2228 126.238Z" fill="#174075"/>
<path d="M25.1603 125.793C24.2039 126.904 23.4682 128.163 22.7325 129.422C22.0704 130.682 21.4083 132.015 20.8933 133.348C20.3784 134.681 19.8634 136.088 19.4956 137.496C19.1277 138.903 18.8334 140.31 18.6863 141.792C19.422 140.532 20.0105 139.199 20.5255 137.866C21.1141 136.533 21.629 135.274 22.2176 133.941C22.7326 132.607 23.2475 131.274 23.7625 129.941C24.2775 128.608 24.7925 127.275 25.1603 125.793Z" fill="black"/>
<path d="M9.19601 117.572C5.81187 124.016 3.08986 130.83 1.10352 137.866C0.588547 139.644 0 141.421 0 143.347C0 144.31 0.147125 145.347 0.588531 146.236C1.02994 147.124 1.6185 147.939 2.28061 148.606C2.94272 149.272 3.60483 149.939 4.26694 150.532L6.2533 152.383L10.2995 156.012C15.7436 160.827 21.2612 165.493 27.0731 169.863C28.5444 170.974 29.9422 172.011 31.4871 173.048L33.6942 174.603L34.7977 175.344C35.1656 175.566 35.607 175.862 36.1219 176.01C37.1519 176.307 38.1083 175.936 38.9911 175.714C39.8739 175.418 40.6832 175.122 41.566 174.825C43.2581 174.159 44.9501 173.418 46.4951 172.603C44.803 173.344 43.1109 173.937 41.4188 174.455C40.536 174.751 39.7268 174.974 38.844 175.196C37.9612 175.418 37.0783 175.64 36.3427 175.344C35.607 175.048 34.9449 174.381 34.2092 173.863L32.0757 172.233C30.6779 171.122 29.2065 170.011 27.8087 168.9C22.144 164.382 16.7 159.642 11.3295 154.827L7.28323 151.198C5.95901 150.013 4.56122 148.754 3.31056 147.569C2.72202 146.976 2.20705 146.31 1.8392 145.569C1.47136 144.828 1.3242 144.014 1.3242 143.199C1.3242 141.495 1.76564 139.792 2.20705 138.014C4.04625 131.126 6.32684 124.238 9.19601 117.572Z" fill="black"/>
<path d="M13.6101 139.199C16.185 140.236 18.4656 141.94 20.5255 143.865C22.5854 145.791 24.4246 147.865 26.2638 150.013L37.2255 162.827C37.4462 163.049 37.6669 163.123 37.9612 163.049C40.6096 162.16 43.2581 161.419 45.9065 160.753C47.2307 160.382 48.6285 160.086 49.9528 159.79C50.6149 159.642 51.277 159.494 51.9391 159.42C52.6012 159.345 53.1898 159.494 53.7783 159.79C54.3669 160.086 54.9554 160.456 55.5439 160.827L57.236 162.012C58.4131 162.827 59.5166 163.641 60.6201 164.456C61.7237 165.271 62.8272 166.16 63.2686 167.493C63.4893 168.159 63.3422 168.9 62.9008 169.419C62.5329 170.011 61.8708 170.381 61.1351 170.233C61.7972 170.455 62.5329 170.085 62.9743 169.493C63.4157 168.9 63.6364 168.159 63.4157 167.419C63.2686 166.678 62.8272 166.086 62.3858 165.567C61.9444 165.049 61.3558 164.604 60.8409 164.086C59.7373 163.197 58.6338 162.308 57.5303 161.493L55.8382 160.234C55.2497 159.79 54.7347 159.42 54.0726 159.049C53.4105 158.679 52.6012 158.457 51.8655 158.531C51.1299 158.531 50.3942 158.679 49.7321 158.753C48.3343 158.975 47.01 159.271 45.6123 159.494C42.8902 160.086 40.1682 160.679 37.4462 161.493L38.1819 161.716L26.6317 149.42C24.7189 147.347 22.8061 145.347 20.5991 143.495C18.6127 141.718 16.2586 140.088 13.6101 139.199Z" fill="black"/>
<path d="M73.6417 71.3541C72.2439 71.8726 70.8461 72.317 69.4483 72.6873C68.0505 73.0576 66.6527 73.3539 65.2549 73.5761C63.8571 73.7983 62.4594 73.8724 60.988 73.9464C59.5902 73.9464 58.1188 73.9464 56.6475 73.8724C57.9717 74.539 59.4431 74.9093 60.988 75.1315C62.4594 75.3537 64.0043 75.3537 65.4756 75.1315C66.947 74.9093 68.4184 74.4649 69.8162 73.8724C71.2875 73.2058 72.6117 72.391 73.6417 71.3541Z" fill="black"/>
<path d="M59.8109 85.3527C60.473 89.6486 61.2087 93.9445 61.7972 98.1663C62.3858 102.462 63.0479 106.758 63.5629 111.054C64.4457 119.646 65.917 128.237 67.0206 136.829C67.5355 141.125 68.0505 145.421 68.4184 149.791L69.4483 162.753C70.1104 171.418 70.2576 180.01 70.0369 188.676L70.8461 187.935C68.4919 187.861 66.1377 187.787 63.7836 187.713C61.4294 187.565 59.0752 187.417 56.721 187.195C54.3669 186.972 52.0127 186.75 49.6585 186.38C47.3043 186.084 44.9501 185.713 42.596 185.343L42.9638 185.787C43.1109 182.158 43.2581 178.603 43.3316 174.974C43.3316 174.899 43.3316 174.899 43.2581 174.899C43.1845 174.899 43.1845 174.899 43.1845 174.974C42.8167 178.529 42.4488 182.158 42.1545 185.713C42.1545 185.935 42.3017 186.084 42.4488 186.158C44.803 186.676 47.0836 187.12 49.4378 187.491C51.792 187.861 54.1461 188.231 56.5003 188.528C58.8545 188.824 61.2087 189.046 63.6364 189.194C65.9906 189.342 68.4184 189.491 70.7725 189.491C71.214 189.491 71.5818 189.12 71.5818 188.75C71.6554 184.38 71.5818 180.084 71.4347 175.714C71.3611 173.566 71.214 171.344 71.0668 169.196L70.8461 165.937C70.7725 164.826 70.6254 163.789 70.4783 162.678C69.3747 154.087 68.4184 145.421 67.5355 136.829C66.7263 128.163 65.9906 119.572 64.8871 110.906C64.2986 106.61 63.5629 102.314 62.7536 98.0922C61.9444 93.7963 60.988 89.5745 59.958 85.3527C59.958 85.2786 59.8845 85.2786 59.8845 85.2786C59.8109 85.2786 59.8109 85.3527 59.8109 85.3527Z" fill="#174075"/>
<path d="M36.2691 120.386C36.8576 123.793 37.7404 127.052 38.7704 130.385C39.7268 133.644 40.8303 136.903 41.7131 140.162C42.6695 143.421 43.4052 146.68 43.9202 150.087C44.4352 153.42 44.5823 156.827 44.3616 160.234C45.1708 156.901 45.318 153.42 45.0237 149.939C44.7294 146.458 43.9937 143.125 43.1109 139.792C42.1545 136.459 41.051 133.274 39.8004 130.015C38.6233 126.83 37.4462 123.645 36.2691 120.386Z" fill="#174075"/>
<path d="M107.115 157.198C107.262 158.086 107.557 158.827 107.63 159.568C107.777 160.308 107.777 160.975 107.557 161.493C107.336 162.086 106.895 162.752 106.453 163.419C106.012 164.086 105.644 164.826 105.35 165.641C106.085 165.197 106.747 164.678 107.336 164.086C107.924 163.493 108.513 162.901 108.954 161.938C109.322 160.975 109.175 159.864 108.807 159.123C108.366 158.383 107.777 157.716 107.115 157.198Z" fill="black"/>
<path d="M108.513 161.493C108.439 162.53 108.954 163.419 109.102 164.234C109.322 165.049 109.102 165.493 108.587 166.308C108.145 167.122 107.704 167.863 107.189 168.456C106.674 169.048 106.012 169.567 105.055 169.715C105.497 170.011 106.012 170.011 106.527 169.937C107.042 169.863 107.557 169.641 107.998 169.344C108.881 168.752 109.396 167.863 109.911 167.048C110.131 166.678 110.426 166.16 110.499 165.567C110.573 164.975 110.426 164.308 110.205 163.864C109.69 162.827 109.028 162.308 108.513 161.493Z" fill="black"/>
<path d="M109.837 165.567C109.837 166.086 109.911 166.604 109.911 167.122L109.984 167.863C109.984 168.085 110.058 168.382 110.058 168.53C110.058 168.678 110.058 168.678 109.911 168.826C109.837 168.974 109.617 169.196 109.469 169.344C109.175 169.715 108.881 170.085 108.587 170.455L107.777 171.641C107.483 172.011 107.189 172.307 106.894 172.529C106.6 172.752 106.306 172.9 105.865 172.826C105.497 172.826 105.055 172.603 104.835 172.085C104.761 172.307 104.835 172.677 104.982 172.9C105.129 173.122 105.35 173.344 105.644 173.492C105.938 173.64 106.232 173.714 106.527 173.714C106.821 173.714 107.115 173.64 107.409 173.492C107.998 173.27 108.366 172.826 108.734 172.455C109.102 172.085 109.396 171.641 109.69 171.27C109.984 170.9 110.279 170.455 110.573 170.011C110.72 169.789 110.867 169.641 111.014 169.344C111.088 169.196 111.161 169.048 111.235 168.826C111.235 168.604 111.235 168.382 111.161 168.233C111.088 167.937 110.941 167.715 110.867 167.493L110.499 166.826C110.426 166.456 110.131 166.011 109.837 165.567Z" fill="black"/>
<path d="M76.4373 82.0197C76.658 86.3156 76.9523 90.6115 77.173 94.9814L78.0558 107.869C78.6443 116.461 79.3064 125.127 79.9686 133.718C80.3364 138.014 80.7042 142.31 81.0721 146.606L82.2492 159.494C82.6906 163.789 83.0584 168.085 83.4263 172.381C83.8677 176.677 84.0884 180.973 84.3091 185.269C84.3091 185.417 84.4562 185.491 84.5298 185.491C87.1047 185.417 89.6796 185.121 92.1809 184.528C94.6822 184.01 97.1835 183.269 99.6113 182.38C100.788 181.936 102.039 181.417 103.143 180.825C103.731 180.529 104.32 180.232 104.908 179.936C105.202 179.788 105.497 179.64 105.791 179.418C105.938 179.269 106.085 179.121 106.232 178.899C106.38 178.677 106.38 178.455 106.38 178.232C106.38 177.788 106.306 177.492 106.306 177.196L106.159 176.233L105.938 174.307L105.423 170.455C104.172 160.234 103.143 149.939 102.48 139.644L102.039 131.941C101.892 129.348 101.745 126.756 101.745 124.238C101.671 119.053 101.745 113.942 101.745 108.758C101.745 103.573 101.892 98.4625 102.039 93.2779C102.113 90.6855 102.26 88.0932 102.407 85.5749C102.48 84.3158 102.554 82.9826 102.701 81.7234C102.775 80.4643 102.995 79.1311 103.143 77.872C103.143 77.7238 103.069 77.5757 102.995 77.5016C101.745 76.5388 100.494 75.724 99.1698 75.0574C97.8456 74.3168 96.4478 73.7983 95.05 73.2057C93.6522 72.6873 92.1809 72.2429 90.7095 71.8726C89.9738 71.6504 89.2381 71.5763 88.5025 71.3541C87.7668 71.2059 87.0311 71.1319 86.2954 70.9838C86.2219 70.9838 86.2219 70.9838 86.2219 71.0578C86.2219 71.1319 86.2219 71.1319 86.2954 71.1319C87.0311 71.28 87.7668 71.4282 88.5025 71.5763C89.2381 71.7985 89.9738 71.9466 90.6359 72.1688C92.0337 72.6132 93.5051 73.0576 94.8293 73.6502C96.2271 74.2427 97.5513 74.9093 98.802 75.5759C100.053 76.3166 101.377 77.1313 102.48 78.0201L102.333 77.6498C102.113 78.9089 101.892 80.168 101.745 81.5012C101.598 82.7604 101.45 84.0936 101.303 85.3527C101.083 87.9451 100.862 90.5374 100.715 93.1297C100.421 98.3144 100.273 103.499 100.126 108.684C100.053 113.868 99.9791 119.053 100.053 124.238C100.126 129.422 100.494 134.607 100.862 139.792C101.598 150.087 102.701 160.456 104.172 170.678L105.35 178.307C105.35 178.529 105.276 178.603 105.129 178.825C104.982 178.973 104.687 179.121 104.393 179.269C103.878 179.566 103.29 179.862 102.701 180.158C101.598 180.751 100.421 181.269 99.2434 181.788C96.8892 182.751 94.4615 183.565 91.9602 184.084C89.4588 184.602 86.9575 184.973 84.3826 185.047L84.8976 185.269C84.6034 180.973 84.3827 176.677 84.0148 172.381C83.647 168.085 83.4263 163.789 83.132 159.494L82.2492 146.606C81.9549 142.31 81.5871 138.014 81.2928 133.718C80.6307 125.127 79.8214 116.535 79.0857 107.943L77.9086 95.0555C77.4672 90.7596 77.0994 86.4637 76.5844 82.1678C76.5844 82.0938 76.5109 82.0938 76.5109 82.0938C76.5109 81.9456 76.4373 82.0197 76.4373 82.0197Z" fill="#174075"/>
<path d="M50.5413 163.864C51.277 164.012 52.0862 163.938 52.7484 163.938C53.1162 163.938 53.4105 164.012 53.7048 164.16C53.999 164.308 54.2197 164.456 54.4404 164.678C55.544 165.641 56.6475 166.604 57.6774 167.567C58.7074 168.53 59.7373 169.567 60.6202 170.678C60.8409 170.974 61.0616 171.27 61.2087 171.492C61.3558 171.789 61.4294 171.937 61.4294 172.233C61.3558 172.826 60.6937 173.27 60.0316 173.64C60.3994 173.566 60.7673 173.492 61.1351 173.344C61.503 173.196 61.8708 172.9 62.0915 172.455C62.3122 172.011 62.2386 171.418 62.0915 171.048C61.9444 170.604 61.7237 170.307 61.5765 170.011C60.8409 168.678 59.8109 167.493 58.7074 166.456C57.6038 165.419 56.3532 164.53 55.1761 163.715C54.8818 163.493 54.4404 163.271 53.999 163.197C53.5576 163.123 53.1162 163.123 52.7484 163.197C51.9391 163.419 51.277 163.715 50.5413 163.864Z" fill="black"/>
<path d="M48.4078 167.345C49.2907 167.419 50.1735 167.493 50.9827 167.567C51.4241 167.567 51.8655 167.567 52.1598 167.641C52.4541 167.715 52.6748 167.937 53.0426 168.233C54.2933 169.344 55.6175 170.455 56.8682 171.641C57.4567 172.233 58.1188 172.826 58.7074 173.418C58.8545 173.566 59.0016 173.714 59.0752 173.863C59.2224 174.011 59.2959 174.159 59.3695 174.233C59.3695 174.233 59.3695 174.307 59.3695 174.381C59.2959 174.529 59.2224 174.751 59.1488 174.899C59.0016 175.27 58.7809 175.566 58.5602 175.788C58.3395 176.01 58.1188 176.01 57.751 175.936C57.3832 175.862 56.9417 175.566 56.5003 175.492C56.0589 175.344 55.6911 175.27 55.2497 175.122C55.6175 175.344 55.9854 175.64 56.3532 175.862C56.721 176.085 57.0153 176.307 57.4567 176.603C57.6774 176.751 57.8981 176.825 58.1924 176.825C58.4867 176.825 58.7809 176.751 59.0752 176.603C59.5902 176.307 59.8845 175.936 60.1787 175.492C60.3259 175.27 60.3994 175.122 60.5466 174.899C60.6201 174.751 60.6937 174.603 60.6937 174.381C60.7673 174.159 60.6937 173.937 60.6202 173.714C60.473 173.344 60.3259 173.196 60.2523 172.974C60.1052 172.752 59.958 172.603 59.8109 172.381C59.2223 171.715 58.5602 171.122 57.9717 170.455C56.6475 169.27 55.3232 168.159 53.8519 167.197C53.484 166.974 53.0426 166.604 52.4541 166.604C51.9391 166.604 51.4977 166.678 51.0563 166.752C50.0999 166.974 49.2171 167.122 48.4078 167.345Z" fill="black"/>
<path d="M45.4651 169.048C47.2307 168.974 49.0699 168.9 50.5413 169.567C50.9091 169.715 51.277 169.937 51.4241 170.159C51.7184 170.455 51.9391 170.752 52.2334 171.122C52.7484 171.789 53.1898 172.529 53.6312 173.27C53.8519 173.64 53.999 174.011 54.1461 174.381C54.1461 174.455 54.2197 174.529 54.2197 174.603V174.677C54.2197 174.751 54.2197 174.899 54.1461 174.974C53.999 175.196 53.8519 175.344 53.5576 175.344C53.2633 175.418 52.9691 175.344 52.6012 175.196C51.9391 174.899 51.2034 174.381 50.5413 173.863C49.8792 173.344 49.2171 172.752 48.555 172.159L48.4814 172.085C48.4078 172.011 48.3343 172.011 48.2607 172.011C47.525 172.233 46.7158 172.455 45.9801 172.677C46.7893 172.677 47.5986 172.677 48.3343 172.603L48.04 172.529C48.555 173.27 49.1435 174.011 49.8056 174.677C50.4677 175.344 51.1298 175.936 52.0862 176.455C52.6012 176.677 53.1162 176.825 53.7783 176.751C54.4404 176.677 55.029 176.233 55.3968 175.714C55.5439 175.418 55.6911 175.122 55.6911 174.751C55.6911 174.677 55.6911 174.529 55.6911 174.455L55.6175 174.233C55.6175 174.085 55.5439 173.937 55.4704 173.863C55.2497 173.344 55.029 172.974 54.8083 172.529C54.2933 171.715 53.7783 170.974 53.1898 170.233C52.8955 169.863 52.6012 169.567 52.2334 169.196C51.792 168.826 51.3505 168.604 50.8356 168.456C49.8792 168.159 48.9228 168.159 48.04 168.233C47.1572 168.53 46.2743 168.752 45.4651 169.048Z" fill="black"/>
<path d="M46.8629 171.344C46.5686 171.344 46.3479 171.418 46.2008 171.492C46.0536 171.566 45.9801 171.641 45.9801 171.715C45.9801 171.789 45.9801 171.863 46.0536 172.011C46.1272 172.085 46.2743 172.233 46.5686 172.455C46.8629 172.455 47.0836 172.381 47.1572 172.381C47.3043 172.307 47.3779 172.233 47.3779 172.159C47.3779 172.085 47.3779 171.937 47.3043 171.863C47.3043 171.566 47.1572 171.492 46.8629 171.344Z" fill="black"/>
<path d="M45.6123 171.641C45.4651 171.937 45.4651 172.159 45.4651 172.307C45.4651 172.455 45.5387 172.603 45.6123 172.677C45.6858 172.752 45.833 172.826 45.9801 172.826C46.1272 172.826 46.3479 172.752 46.6422 172.603C46.7893 172.307 46.7893 172.085 46.7893 171.937C46.7893 171.789 46.7158 171.641 46.6422 171.566C46.5686 171.492 46.4215 171.418 46.2744 171.492C46.0536 171.418 45.9065 171.492 45.6123 171.641Z" fill="black"/>
<path d="M82.3227 154.235C81.2928 153.79 80.1893 153.568 79.1593 153.42C78.0558 153.346 76.9523 153.346 75.9223 153.42C74.8188 153.494 73.7888 153.642 72.7589 153.865C71.7289 154.087 70.699 154.309 69.5955 154.605C70.699 154.901 71.7289 154.975 72.8325 155.05C73.936 155.05 74.9659 155.05 75.9959 154.975C77.0258 154.901 78.0558 154.753 79.1593 154.679C80.1893 154.457 81.2192 154.383 82.3227 154.235Z" fill="black"/>
<path d="M82.5434 156.901C81.5135 156.605 80.41 156.457 79.38 156.383C78.3501 156.309 77.2465 156.235 76.2166 156.309C75.1866 156.309 74.0831 156.383 73.0532 156.531C72.5382 156.605 72.0232 156.679 71.5082 156.753C70.9933 156.901 70.4047 157.049 69.9633 157.346C70.4783 157.346 70.9933 157.346 71.5082 157.42C72.0232 157.494 72.5382 157.568 73.1267 157.568C74.1567 157.642 75.2602 157.716 76.2901 157.642C77.3201 157.642 78.4236 157.568 79.4536 157.42C80.41 157.42 81.5135 157.197 82.5434 156.901Z" fill="black"/>
<path d="M82.6906 159.345C81.6606 159.123 80.5571 159.049 79.5272 159.049C78.4972 159.049 77.3937 159.123 76.3637 159.197C75.3338 159.271 74.3038 159.494 73.2739 159.642C72.2439 159.864 71.214 160.086 70.184 160.382C71.214 160.679 72.3175 160.753 73.3474 160.753C74.3774 160.753 75.4809 160.753 76.5109 160.605C77.5408 160.456 78.5708 160.308 79.6007 160.086C80.6307 160.012 81.6606 159.79 82.6906 159.345Z" fill="black"/>
<path d="M45.7594 71.8726C43.9937 72.8354 42.3017 73.8724 40.6096 75.0574C38.9175 76.1684 37.299 77.3535 35.7541 78.5386C34.1356 79.7236 32.5907 80.9828 31.0457 82.316C29.5008 83.5751 28.0295 84.9083 26.6317 86.3896C28.3973 85.4268 30.0894 84.3898 31.7814 83.2048C33.4735 82.0938 35.092 80.9087 36.6369 79.7236C38.2554 78.5386 39.8004 77.2794 41.3453 75.9462C42.8902 74.6871 44.3616 73.3539 45.7594 71.8726Z" fill="#174075"/>
<path d="M46.2744 79.1311C45.3915 79.6496 44.5823 80.3162 43.773 80.9828C43.0374 81.6494 42.3017 82.39 41.566 83.1307C40.9039 83.8714 40.2418 84.6861 39.5797 85.5008C38.9911 86.3156 38.4026 87.2044 37.9612 88.1672C38.844 87.6488 39.6532 86.9822 40.4625 86.3156C41.1982 85.649 41.9338 84.9083 42.6695 84.1676C43.3316 83.427 43.9938 82.6122 44.6559 81.7975C45.2444 80.9087 45.833 80.094 46.2744 79.1311Z" fill="#174075"/>
<path d="M102.48 81.1309C101.45 80.3162 100.347 79.6496 99.2434 78.983C98.1399 78.3164 96.9628 77.7979 95.7857 77.2054C94.6086 76.6869 93.4315 76.1684 92.1809 75.724C91.0038 75.2796 89.7531 74.9093 88.4289 74.6871C89.4589 75.5018 90.5624 76.1684 91.6659 76.835C92.7694 77.4276 93.9465 78.0201 95.1236 78.6126C96.3007 79.1311 97.4778 79.6496 98.7284 80.0199C99.9791 80.5384 101.23 80.9087 102.48 81.1309Z" fill="#174075"/>
<path d="M118.813 111.202C121.387 115.35 123.889 119.498 126.316 123.719C126.905 124.756 127.494 125.867 128.009 126.904C128.524 127.941 129.039 129.052 129.406 130.163C129.48 130.311 129.48 130.459 129.48 130.533V130.83C129.48 130.904 129.406 131.052 129.406 131.126C129.406 131.2 129.333 131.348 129.259 131.496C129.039 132.015 128.818 132.533 128.524 133.052C128.009 134.089 127.42 135.2 126.831 136.237C124.477 140.458 121.902 144.606 119.401 148.754C116.9 152.902 114.398 157.049 111.897 161.271C111.897 161.271 111.897 161.271 111.897 161.345C111.382 163.271 110.794 165.197 110.279 167.122C111.014 165.271 111.676 163.419 112.412 161.493V161.567C115.208 157.568 117.93 153.568 120.578 149.42C121.902 147.347 123.227 145.347 124.477 143.199C125.728 141.125 126.979 139.051 128.156 136.903C128.744 135.866 129.333 134.755 129.848 133.644C130.142 133.052 130.363 132.533 130.583 131.867C130.657 131.719 130.657 131.57 130.731 131.348C130.731 131.126 130.804 130.978 130.804 130.756V130.459L130.731 130.163C130.731 130.015 130.657 129.793 130.583 129.645C129.774 127.2 128.45 125.127 127.199 123.053C124.624 118.979 121.829 115.053 118.813 111.202Z" fill="black"/>
<path d="M115.723 131.422C115.355 130.311 114.84 129.274 114.251 128.311C113.663 127.349 113.074 126.386 112.412 125.423C111.75 124.46 111.088 123.571 110.279 122.756C109.543 121.942 108.734 121.053 107.777 120.386C108.292 121.423 108.734 122.46 109.322 123.423C109.911 124.386 110.499 125.349 111.161 126.312C111.824 127.2 112.486 128.163 113.221 128.978C114.031 129.867 114.84 130.682 115.723 131.422Z" fill="black"/>
<path d="M121.682 130.015C120.505 129.497 119.033 129.497 117.783 130.089C117.12 130.311 116.605 130.756 116.017 131.2C115.796 131.422 115.502 131.644 115.281 131.941C115.061 132.237 114.84 132.459 114.619 132.755C113.148 135.052 112.191 137.422 111.088 139.866C110.131 142.31 109.175 144.754 108.292 147.198L107.189 150.457C106.747 150.68 106.085 150.902 105.497 151.05C104.908 151.198 104.246 151.42 103.658 151.568H103.584C103.29 151.642 103.069 151.939 103.143 152.235C103.143 152.309 103.216 152.457 103.29 152.531L106.159 155.42C106.527 155.716 106.747 156.012 106.747 156.309C106.747 156.605 106.6 157.049 106.38 157.42C106.159 157.79 105.938 158.234 105.717 158.605C105.276 159.345 104.687 160.086 104.172 160.827C104.835 160.234 105.497 159.568 106.085 158.827C106.38 158.457 106.674 158.086 106.894 157.716C107.115 157.346 107.483 156.901 107.483 156.309C107.483 156.012 107.409 155.716 107.262 155.42C107.115 155.198 106.968 154.975 106.821 154.827L104.172 151.717L104.025 152.679C104.687 152.531 105.35 152.457 105.938 152.309C106.6 152.161 107.189 152.013 107.924 151.642C108.072 151.568 108.145 151.568 108.292 151.346C108.366 151.198 108.439 151.198 108.439 151.124L108.513 150.976L108.734 150.457L109.102 149.569L109.764 147.717C110.646 145.273 111.529 142.829 112.486 140.384C112.927 139.199 113.442 137.94 113.883 136.755C114.398 135.57 114.84 134.311 115.502 133.274C116.091 132.163 116.973 131.274 118.003 130.608C119.107 130.015 120.431 129.793 121.682 130.015Z" fill="black"/>
<path d="M101.083 122.905C102.26 122.756 103.437 122.312 104.54 121.868C105.644 121.423 106.747 120.905 107.777 120.312C108.881 119.794 109.911 119.127 110.941 118.535C111.971 117.942 113.001 117.275 113.957 116.535C115.943 115.053 117.635 113.276 119.107 111.276C120.505 109.276 121.682 107.054 122.344 104.61C122.417 104.388 122.344 104.24 122.27 104.092C120.725 101.87 119.18 99.6476 117.562 97.4256L112.78 90.8336C111.161 88.6116 109.543 86.4637 107.924 84.2417L105.423 80.9828C104.982 80.4643 104.614 79.8718 104.172 79.3533L102.848 77.7979C104.467 80.0199 105.791 82.39 107.336 84.6121C108.807 86.9081 110.279 89.1301 111.824 91.4262L116.385 98.1663C117.93 100.388 119.475 102.61 121.02 104.832L120.872 104.24C120.284 106.388 119.18 108.536 117.93 110.461C116.605 112.387 115.061 114.165 113.221 115.646C111.382 117.127 109.396 118.461 107.336 119.72C106.306 120.386 105.276 120.979 104.246 121.497C103.363 122.09 102.26 122.682 101.083 122.905Z" fill="#174075"/>
<path d="M120.137 102.166C118.739 103.943 117.415 105.721 116.017 107.425C114.619 109.128 113.221 110.832 111.676 112.387C110.131 113.942 108.513 115.35 106.747 116.535C104.835 117.646 102.922 118.757 101.083 120.09C103.216 119.349 105.276 118.535 107.262 117.572C109.322 116.535 111.088 115.053 112.706 113.424C114.251 111.795 115.649 110.017 116.9 108.091C118.15 106.24 119.254 104.24 120.137 102.166Z" fill="#174075"/>
<path d="M101.671 347.845C101.23 347.105 100.347 346.734 99.4641 346.734C98.5813 346.66 97.7721 346.957 96.9628 347.179C96.2271 347.401 95.4914 347.697 94.8293 347.697L94.2408 347.771C94.0936 347.771 93.8729 347.771 93.7258 347.771C93.5787 347.771 93.358 347.771 93.2108 347.771H92.9166C92.843 347.771 92.6223 347.771 92.7694 347.771C92.7694 347.771 92.9166 347.845 92.9901 347.919C93.0637 347.994 93.0637 348.068 93.1373 348.142C93.1373 348.216 93.1373 348.068 93.1373 347.994L93.0637 347.401L92.9901 346.216C92.9166 345.401 92.843 344.661 92.6959 343.846C92.4751 342.29 92.2544 340.661 91.813 339.106C91.5923 340.735 91.5188 342.29 91.5188 343.92C91.5188 344.735 91.5188 345.549 91.5188 346.29L91.5923 347.475V348.068C91.5923 348.142 91.5923 348.216 91.6659 348.512C91.6659 348.66 91.7395 348.808 91.8866 348.956C92.0337 349.105 92.1809 349.179 92.328 349.253C92.6223 349.327 92.6223 349.327 92.7694 349.327H93.0637C93.2844 349.327 93.5051 349.327 93.7258 349.327C93.9465 349.327 94.1672 349.327 94.3879 349.253C94.6086 349.253 94.8293 349.179 94.9765 349.179C95.9328 348.956 96.6685 348.586 97.4042 348.216C98.1399 347.919 98.802 347.549 99.4641 347.401C100.2 347.327 101.009 347.401 101.671 347.845Z" fill="black"/>
<path d="M106.968 338.661C109.469 337.032 112.118 335.624 114.84 334.662C116.238 334.217 117.635 333.847 119.033 333.625C120.431 333.402 121.902 333.328 123.3 333.402C126.169 333.551 128.965 334.291 131.466 335.698C132.717 336.439 133.968 337.18 134.63 338.365C134.998 338.957 135.145 339.55 135.145 340.217C135.145 340.883 134.85 341.476 134.335 341.92L134.262 341.994C134.115 342.142 134.115 342.29 134.188 342.439C134.262 342.513 134.262 342.513 134.335 342.513C134.924 342.661 135.365 343.327 135.439 344.068C135.513 344.809 135.292 345.549 135.071 346.29C135.439 345.623 135.807 344.883 135.807 343.994C135.807 343.55 135.733 343.105 135.513 342.735C135.292 342.364 134.998 341.994 134.556 341.772L134.63 342.364C135.365 341.92 135.807 341.031 135.954 340.217C136.101 339.402 135.88 338.439 135.513 337.772C134.703 336.291 133.379 335.328 132.055 334.513C130.731 333.699 129.333 333.106 127.788 332.662C126.316 332.217 124.772 331.995 123.227 331.921C120.137 331.773 117.047 332.439 114.251 333.625C111.676 334.884 109.102 336.587 106.968 338.661Z" fill="black"/>
<path d="M134.85 346.66C132.128 346.808 129.406 346.883 126.611 346.883H118.371C115.649 346.883 112.854 346.957 110.131 347.105C107.409 347.253 104.614 347.401 101.892 347.771C104.614 348.068 107.409 348.216 110.131 348.29C112.854 348.364 115.649 348.438 118.371 348.364C121.093 348.364 123.889 348.29 126.611 348.068C129.406 347.771 132.202 347.401 134.85 346.66Z" fill="black"/>
<path d="M134.188 342.364L123.815 342.29C120.357 342.29 116.9 342.29 113.442 342.29C109.984 342.364 106.527 342.364 103.069 342.587C99.6112 342.735 96.1535 343.031 92.6959 343.55C96.1535 343.698 99.6112 343.698 103.069 343.772C106.527 343.846 109.984 343.846 113.442 343.846C116.9 343.772 120.357 343.698 123.815 343.475C127.273 343.253 130.731 342.883 134.188 342.364Z" fill="black"/>
<path d="M132.496 347.031C132.79 346.66 132.938 346.29 133.085 345.92C133.158 345.549 133.232 345.179 133.232 344.809C133.232 344.438 133.158 344.068 133.011 343.698C132.864 343.327 132.717 342.957 132.423 342.587C132.128 342.957 131.981 343.327 131.908 343.772C131.834 344.142 131.761 344.512 131.761 344.883C131.761 345.475 131.908 346.216 132.496 347.031Z" fill="black"/>
<path d="M128.818 342.661C128.524 343.105 128.376 343.475 128.303 343.846C128.229 344.216 128.156 344.586 128.229 345.031C128.229 345.401 128.303 345.772 128.45 346.216C128.597 346.586 128.744 346.957 129.112 347.327C129.406 346.957 129.553 346.512 129.627 346.142C129.701 345.772 129.774 345.327 129.701 344.957C129.701 344.586 129.627 344.142 129.48 343.772C129.259 343.401 129.112 343.031 128.818 342.661Z" fill="black"/>
<path d="M124.109 342.883C123.815 343.253 123.668 343.698 123.521 344.068C123.447 344.438 123.374 344.883 123.374 345.253C123.374 345.623 123.447 346.068 123.521 346.438C123.668 346.808 123.815 347.179 124.109 347.623C124.404 347.253 124.551 346.808 124.698 346.438C124.772 346.068 124.845 345.623 124.845 345.253C124.845 344.883 124.772 344.438 124.698 344.068C124.551 343.624 124.404 343.253 124.109 342.883Z" fill="black"/>
<path d="M120.137 342.957C119.842 343.327 119.695 343.772 119.548 344.142C119.475 344.512 119.401 344.883 119.401 345.327C119.401 345.697 119.475 346.068 119.548 346.512C119.695 346.883 119.842 347.253 120.137 347.697C120.431 347.327 120.578 346.883 120.725 346.512C120.799 346.142 120.872 345.772 120.872 345.327C120.872 344.957 120.799 344.586 120.725 344.142C120.652 343.698 120.505 343.327 120.137 342.957Z" fill="black"/>
<path d="M116.017 343.031C115.723 343.475 115.576 343.846 115.502 344.216C115.428 344.586 115.428 344.957 115.428 345.401C115.428 345.772 115.502 346.142 115.649 346.512C115.796 346.883 115.943 347.253 116.311 347.623C116.605 347.253 116.753 346.808 116.826 346.438C116.9 346.068 116.9 345.623 116.9 345.253C116.9 344.883 116.826 344.512 116.679 344.142C116.532 343.772 116.311 343.401 116.017 343.031Z" fill="black"/>
<path d="M112.559 347.623C112.854 347.253 113.001 346.883 113.148 346.438C113.221 346.068 113.295 345.697 113.295 345.253C113.295 344.883 113.221 344.512 113.148 344.068C113.001 343.698 112.854 343.327 112.559 342.957C112.265 343.327 112.118 343.698 111.971 344.142C111.897 344.512 111.824 344.883 111.824 345.327C111.824 345.697 111.897 346.068 111.971 346.438C112.118 346.883 112.265 347.253 112.559 347.623Z" fill="black"/>
<path d="M107.557 347.697C107.924 347.327 108.072 347.031 108.292 346.66C108.439 346.29 108.513 345.92 108.587 345.549C108.66 345.179 108.66 344.735 108.587 344.364C108.513 343.994 108.439 343.55 108.145 343.179C107.777 343.55 107.63 343.92 107.409 344.29C107.262 344.661 107.189 345.031 107.115 345.401C107.042 345.772 107.115 346.142 107.115 346.586C107.189 346.883 107.336 347.253 107.557 347.697Z" fill="black"/>
<path d="M104.099 347.697C104.393 347.327 104.54 346.957 104.687 346.586C104.835 346.216 104.835 345.846 104.835 345.475C104.835 345.105 104.761 344.735 104.687 344.364C104.54 343.994 104.393 343.624 104.099 343.253C103.805 343.624 103.658 343.994 103.51 344.364C103.363 344.735 103.363 345.105 103.363 345.475C103.363 345.846 103.437 346.216 103.51 346.586C103.658 346.957 103.805 347.327 104.099 347.697Z" fill="black"/>
<path d="M100.347 343.253C100.053 343.624 99.9055 343.92 99.7584 344.216C99.6848 344.512 99.6113 344.883 99.6113 345.179C99.6113 345.475 99.6848 345.846 99.7584 346.142C99.9055 346.438 100.053 346.808 100.347 347.105C100.641 346.734 100.788 346.438 100.935 346.142C101.009 345.846 101.083 345.475 101.083 345.179C101.083 344.883 101.009 344.512 100.935 344.216C100.788 343.846 100.641 343.549 100.347 343.253Z" fill="black"/>
<path d="M97.0364 347.771C97.3306 347.401 97.5513 347.031 97.6249 346.66C97.7721 346.29 97.772 345.92 97.8456 345.549C97.8456 345.179 97.8456 344.809 97.6985 344.438C97.6249 344.068 97.4778 343.698 97.1835 343.327C96.8892 343.698 96.6685 344.068 96.595 344.438C96.4478 344.809 96.4478 345.179 96.3743 345.549C96.3743 345.92 96.3743 346.29 96.5214 346.66C96.595 347.031 96.7421 347.401 97.0364 347.771Z" fill="black"/>
<path d="M94.4615 348.438C94.7558 347.993 94.9765 347.623 95.05 347.179C95.1972 346.734 95.1972 346.364 95.2707 345.92C95.2707 345.475 95.2707 345.105 95.1236 344.661C95.05 344.216 94.9029 343.846 94.6086 343.401C94.3143 343.846 94.0936 344.216 94.0201 344.661C93.8729 345.105 93.8729 345.475 93.7994 345.92C93.7994 346.364 93.7994 346.734 93.9465 347.179C94.0201 347.623 94.1672 348.068 94.4615 348.438Z" fill="black"/>
<path d="M60.8408 342.735C60.6201 343.475 60.6201 344.216 60.5466 344.957C60.473 345.697 60.3259 346.438 59.8845 346.957C59.5166 347.475 58.8545 347.845 58.1924 347.994C57.5303 348.142 56.7946 348.216 56.0589 348.216C53.1162 348.364 50.247 348.512 47.3043 348.586C44.3616 348.66 41.4924 348.66 38.6233 348.438C37.8876 348.364 37.1519 348.364 36.5634 348.216C36.2691 348.142 36.0484 347.994 35.9012 347.845C35.7541 347.697 35.607 347.549 35.5334 347.253C35.4598 346.957 35.3863 346.66 35.3863 346.29C35.3127 345.92 35.3127 345.623 35.3127 345.253C35.2391 344.586 35.3127 343.846 35.3863 343.179L34.4299 343.772C36.6369 344.438 38.9175 344.661 41.1982 344.586C43.4788 344.586 45.6858 344.29 47.8928 343.92C50.0999 343.55 52.2334 343.105 54.4404 342.809C56.6475 342.439 58.7809 342.29 61.0616 342.29C58.8545 341.994 56.6475 342.068 54.3668 342.142C52.1598 342.29 49.9528 342.587 47.7457 342.883C45.5387 343.105 43.4052 343.327 41.1982 343.327C39.0647 343.327 36.8576 343.031 34.8713 342.439C34.5034 342.29 34.062 342.513 33.9885 342.883C33.9885 342.957 33.9885 342.957 33.9885 343.031C33.9149 343.772 33.9149 344.586 33.9149 345.327C33.9149 345.697 33.9885 346.068 33.9885 346.512C34.062 346.883 34.062 347.253 34.2092 347.697C34.3563 348.142 34.577 348.586 35.0184 348.956C35.3863 349.327 35.8277 349.475 36.2691 349.623C37.1519 349.845 37.8876 349.845 38.6233 349.919C41.566 350.067 44.5087 349.993 47.4514 349.845C50.3942 349.697 53.3369 349.401 56.2061 349.03C56.9417 348.956 57.6774 348.808 58.4131 348.586C59.1488 348.364 59.8845 347.845 60.2523 347.179C60.6937 346.512 60.7673 345.697 60.7673 344.957C60.7673 344.216 60.7673 343.475 60.8408 342.735Z" fill="black"/>
<path d="M57.8246 348.364C58.266 347.994 58.5602 347.475 58.7809 346.957C59.0016 346.438 59.0752 345.846 59.0752 345.327C59.0752 344.809 59.0752 344.216 58.9281 343.698C58.7809 343.179 58.6338 342.661 58.266 342.142C57.9717 342.661 57.8246 343.179 57.751 343.698C57.6774 344.216 57.6038 344.735 57.6038 345.253C57.6038 345.772 57.6038 346.216 57.6038 346.734C57.6774 347.253 57.6774 347.771 57.8246 348.364Z" fill="black"/>
<path d="M54.2197 342.439C53.9254 342.957 53.7047 343.475 53.5576 343.994C53.4105 344.512 53.3369 345.031 53.3369 345.549C53.3369 346.586 53.4105 347.623 53.9254 348.734C54.2933 348.216 54.4404 347.697 54.5876 347.179C54.7347 346.66 54.8083 346.142 54.8083 345.623C54.8083 345.105 54.8083 344.586 54.7347 344.068C54.6611 343.55 54.514 342.957 54.2197 342.439Z" fill="black"/>
<path d="M50.1735 349.03C50.4677 348.512 50.6149 348.068 50.762 347.549C50.9092 347.031 50.9091 346.512 50.9827 346.068C50.9827 345.549 50.9827 345.031 50.8356 344.586C50.762 344.068 50.6149 343.549 50.3206 343.031C50.0263 343.549 49.8056 343.994 49.7321 344.512C49.5849 345.031 49.5849 345.549 49.5114 345.994C49.5114 346.512 49.5114 347.031 49.6585 347.475C49.7321 347.994 49.8792 348.512 50.1735 349.03Z" fill="black"/>
<path d="M46.4951 349.179C46.7893 348.734 47.01 348.29 47.1572 347.771C47.3043 347.327 47.3779 346.808 47.3779 346.364C47.3779 345.92 47.3779 345.401 47.3043 344.957C47.2307 344.512 47.0836 343.994 46.7893 343.549C46.495 343.994 46.2744 344.512 46.1272 344.957C45.9801 345.401 45.9065 345.92 45.9065 346.364C45.9065 346.808 45.9065 347.327 45.9801 347.771C46.0536 348.216 46.2008 348.66 46.4951 349.179Z" fill="black"/>
<path d="M42.8902 349.253C43.1845 348.808 43.3316 348.364 43.4788 347.919C43.5523 347.475 43.6259 347.031 43.6259 346.586C43.6259 346.142 43.5523 345.697 43.4788 345.253C43.3316 344.809 43.1845 344.364 42.8902 343.92C42.5959 344.364 42.4488 344.809 42.3017 345.253C42.2281 345.697 42.1545 346.142 42.1545 346.586C42.1545 347.031 42.2281 347.475 42.3017 347.919C42.3752 348.364 42.5959 348.808 42.8902 349.253Z" fill="black"/>
<path d="M39.0647 349.179C39.4325 348.734 39.6532 348.364 39.8004 347.919C39.9475 347.475 40.0211 347.031 40.0946 346.66C40.1682 346.216 40.1682 345.772 40.0946 345.327C40.0211 344.883 39.9475 344.438 39.6532 343.92C39.2854 344.29 39.0647 344.735 38.9175 345.179C38.7704 345.623 38.6968 346.068 38.6233 346.512C38.5497 346.957 38.5497 347.401 38.6233 347.845C38.7704 348.216 38.844 348.66 39.0647 349.179Z" fill="black"/>
<path d="M36.2691 343.401C35.9748 343.846 35.8277 344.29 35.6805 344.735C35.607 345.179 35.5334 345.623 35.5334 346.068C35.5334 346.512 35.607 346.957 35.6805 347.401C35.8277 347.845 35.9748 348.29 36.2691 348.734C36.5634 348.29 36.7105 347.845 36.8576 347.401C36.9312 346.957 37.0048 346.512 37.0048 346.068C37.0048 345.623 36.9312 345.179 36.8576 344.735C36.7105 344.364 36.5634 343.92 36.2691 343.401Z" fill="black"/>
<path d="M34.6506 342.883C34.5034 342.068 34.2092 341.253 34.062 340.439C33.9149 339.624 34.2092 338.883 34.6506 338.217C35.5334 336.809 36.6369 335.624 37.8876 334.587C39.1382 333.551 40.536 332.736 42.0074 332.143C43.4788 331.551 45.0237 331.106 46.6422 330.958C48.2607 330.81 49.8792 330.884 51.3505 331.328C52.8219 331.773 54.2197 332.662 55.4704 333.699C56.0589 334.217 56.6475 334.81 57.3096 335.402C57.8981 335.995 58.4867 336.587 59.0752 337.18C60.1787 338.365 61.2087 339.846 61.0615 341.55C61.2822 340.735 61.2087 339.846 60.8408 339.031C60.5466 338.217 60.1052 337.476 59.5902 336.735C58.5602 335.328 57.4567 334.069 56.2796 332.884C55.029 331.625 53.5576 330.588 51.8655 329.995C50.1735 329.403 48.3343 329.329 46.6422 329.477C43.1109 329.773 39.8003 331.328 37.2255 333.699C35.9748 334.884 34.8713 336.291 34.062 337.846C33.8413 338.217 33.6942 338.661 33.6206 339.106C33.5471 339.55 33.6206 340.068 33.6942 340.439C33.9149 341.402 34.3563 342.142 34.6506 342.883Z" fill="black"/>
<path d="M118.739 332.662C118.665 332.291 118.592 331.995 118.371 331.773C118.224 331.551 118.003 331.328 117.783 331.18C117.562 331.032 117.341 330.958 117.047 330.884C116.753 330.81 116.458 330.81 116.091 330.958C116.164 331.329 116.238 331.625 116.458 331.847C116.605 332.069 116.826 332.291 117.047 332.44C117.268 332.588 117.488 332.662 117.783 332.736C118.003 332.736 118.298 332.81 118.739 332.662Z" fill="black"/>
<path d="M81.5135 181.195C79.8214 187.787 78.2765 194.453 76.8051 201.119C75.3338 207.785 74.0095 214.451 72.7589 221.191L71.0668 231.264C70.5518 234.597 69.9633 238.004 69.3747 241.337C68.1241 248.077 66.6527 254.669 65.1814 261.335L64.2985 265.113C64.225 265.557 64.0778 266.002 64.0778 266.52C64.0778 267.039 64.1514 267.705 64.4457 268.15C64.6664 268.594 64.9607 269.038 65.2549 269.335C65.8435 270.001 66.2849 270.668 66.2113 270.964C66.2113 271.186 66.1377 271.26 65.917 271.483C65.6963 271.705 65.4021 271.853 65.0342 272.075C64.6664 272.297 64.225 272.519 63.8571 272.89C63.4157 273.26 63.0479 273.927 62.9743 274.593C62.9007 275.334 63.195 275.927 63.4157 276.371C63.71 276.815 63.9307 277.186 64.225 277.556C64.4457 277.852 64.6664 278.223 64.8135 278.445C64.9607 278.741 64.9607 278.889 64.8871 279.037C64.8871 279.185 64.74 279.334 64.4457 279.704C64.1514 280 63.7836 280.593 63.6364 281.111C63.3422 282.222 63.3422 283.111 63.3422 283.926L63.195 289.036C63.0479 292.443 62.9743 295.85 62.9007 299.258C62.8272 306.072 62.68 312.886 62.7536 319.7C62.7536 323.107 62.9743 326.588 63.5629 329.995C63.8571 331.699 64.3721 333.328 64.225 334.958C64.1514 335.773 63.9307 336.513 63.4893 337.18C63.0479 337.846 62.3858 338.439 61.5765 338.587C61.503 338.587 61.503 338.661 61.503 338.735C61.503 338.809 61.5765 338.809 61.6501 338.809C62.5329 338.735 63.3421 338.143 63.8571 337.476C64.4457 336.809 64.8135 335.921 64.9607 335.032C65.2549 333.254 64.8871 331.477 64.6664 329.847C64.2985 326.514 64.3721 323.107 64.4457 319.774C64.74 312.96 65.0342 306.146 65.2549 299.332C65.3285 295.925 65.4021 292.518 65.4756 289.11L65.5492 284C65.5492 283.111 65.5492 282.296 65.6963 281.778C65.7699 281.482 65.8435 281.333 66.1377 280.963C66.3585 280.667 66.7999 280.148 66.947 279.408C67.0941 278.667 66.8734 278 66.6527 277.482C66.3585 276.964 66.0642 276.593 65.8435 276.297C65.3285 275.63 64.8871 275.038 64.9607 274.742C64.9607 274.593 65.0342 274.445 65.1814 274.223C65.4021 274.001 65.6963 273.853 66.0642 273.556C66.432 273.334 66.8734 273.038 67.2413 272.668C67.6827 272.297 67.977 271.557 67.977 270.89C67.977 270.223 67.6827 269.631 67.3884 269.186C67.0941 268.742 66.7999 268.446 66.5056 268.15C66.2113 267.853 65.9906 267.557 65.8435 267.261C65.6963 266.964 65.6228 266.742 65.6228 266.446C65.6228 265.779 65.8435 264.891 65.9906 264.076L66.432 261.558C67.5355 254.818 68.7126 248.151 70.1104 241.411C70.7725 238.078 71.5818 234.745 72.3175 231.412L74.5981 221.413C76.0694 214.747 77.3201 208.081 78.4972 201.341C79.6743 194.601 80.7778 187.935 81.7342 181.121C81.7342 181.047 81.7342 180.973 81.6606 180.973C81.5871 181.121 81.5871 181.121 81.5135 181.195Z" fill="black"/>
<path d="M43.1109 185.861C42.5224 192.305 42.081 198.749 41.566 205.193L40.0946 224.524C39.1382 237.412 38.1819 250.225 37.1519 263.113C36.1955 276.001 35.092 288.814 33.9885 301.702L32.2964 320.959C32.0021 324.144 31.7079 327.403 31.7079 330.662C31.7079 333.921 32.0021 337.18 32.9585 340.217C32.1493 337.106 31.9286 333.847 32.0757 330.662C32.2228 327.477 32.6643 324.218 33.0321 321.033C33.7678 314.589 34.4299 308.22 35.092 301.776C36.4162 288.962 37.5197 276.075 38.5497 263.187C39.5061 250.299 40.4625 237.412 41.1982 224.524L42.2281 205.193C42.5224 198.749 42.8902 192.305 43.1109 185.861Z" fill="black"/>
<path d="M119.401 332.884C117.856 326.736 116.458 320.515 115.355 314.293C114.178 308.072 113.148 301.776 112.339 295.48C110.646 282.889 109.396 270.297 108.366 257.632L105.276 219.636L103.658 200.601C103.069 194.305 102.48 187.935 101.892 181.64C102.186 188.009 102.628 194.305 102.995 200.675L104.246 219.71C104.614 226.08 105.129 232.375 105.57 238.745L106.968 257.78C108.072 270.446 109.322 283.111 111.235 295.702C112.191 301.998 113.295 308.294 114.693 314.441C116.017 320.663 117.562 326.81 119.401 332.884Z" fill="black"/>
<path d="M74.8188 215.71C75.1131 219.34 75.5545 222.969 76.143 226.598C76.7316 230.227 77.3937 233.857 78.1294 237.412C78.865 240.967 79.7479 244.596 80.6307 248.151L82.0285 253.484C82.4699 255.262 82.7641 256.965 82.3227 258.595C82.102 259.41 81.8078 260.373 81.6606 261.335C81.5135 262.298 81.5135 263.261 81.5135 264.15C81.5871 266.002 81.6606 267.853 81.7342 269.631C81.9549 273.26 82.2492 276.964 82.5434 280.593C82.9113 284.222 83.3527 287.925 83.7941 291.555C84.0148 293.406 84.3091 295.184 84.7505 297.036C85.1919 298.887 85.854 300.665 86.8104 302.368L86.9575 301.406C86.2954 301.924 85.5597 302.517 84.8976 303.183C84.6034 303.553 84.3091 303.924 84.0884 304.368C83.8677 304.813 83.7205 305.331 83.647 305.85C83.5734 306.886 83.7941 308.072 84.7505 308.812C85.2655 309.183 85.7069 309.331 86.0747 309.479C86.2218 309.553 86.369 309.627 86.5161 309.701C86.5897 309.775 86.5897 309.775 86.6633 309.849C86.6633 309.923 86.6633 309.923 86.6633 309.997C86.5897 310.071 86.5161 310.219 86.369 310.368C86.0747 310.664 85.7069 310.886 85.4126 311.331C85.0448 311.775 84.8241 312.516 84.9712 313.108C85.1183 313.701 85.4126 314.145 85.6333 314.515C85.854 314.886 86.1483 315.256 86.2954 315.552C86.4426 315.849 86.5897 316.219 86.6633 316.589C86.8104 317.33 86.884 318.293 87.0311 319.107C87.9139 325.996 88.9439 332.884 89.9003 339.698C89.9003 339.92 90.1945 340.142 90.4152 340.068C90.4888 340.068 90.5624 340.068 90.5624 339.994C94.6086 337.624 98.802 335.624 103.216 333.995C107.63 332.365 112.118 331.18 116.753 330.366C112.118 330.958 107.483 332.069 102.995 333.551C98.5077 335.032 94.1672 336.958 90.0474 339.328L90.7095 339.698C89.8267 332.81 89.091 325.922 88.1346 319.033C87.9875 318.145 87.9139 317.33 87.7668 316.441C87.6932 315.997 87.5461 315.478 87.3254 315.034C87.1047 314.589 86.8104 314.219 86.5897 313.849C86.369 313.478 86.1483 313.182 86.1483 312.886C86.0747 312.59 86.1483 312.441 86.2954 312.219C86.5161 311.997 86.8104 311.701 87.1782 311.405C87.3254 311.256 87.5461 311.034 87.6932 310.738C87.8404 310.442 87.9139 309.997 87.8404 309.627C87.7668 309.257 87.5461 308.886 87.2518 308.738C87.0311 308.516 86.7368 308.442 86.5161 308.294C86.0747 308.072 85.7069 307.997 85.4862 307.775C85.0448 307.405 84.8241 306.738 84.8976 305.998C84.9712 305.331 85.339 304.664 85.854 304.072C86.369 303.479 87.0311 302.961 87.6932 302.443C87.9875 302.22 88.0611 301.85 87.9139 301.48C86.1483 298.443 85.6333 294.814 85.1183 291.258C84.6034 287.629 84.1619 284 83.7941 280.371C83.4263 276.741 83.132 273.112 82.9113 269.483C82.7641 267.631 82.6906 265.853 82.617 264.002C82.617 263.113 82.617 262.224 82.6906 261.335C82.8377 260.521 83.0584 259.632 83.2791 258.669C83.4998 257.706 83.5734 256.743 83.4263 255.78C83.3527 254.818 83.132 253.929 82.9113 252.966L81.4399 247.707C80.4835 244.152 79.6007 240.671 78.7179 237.042C77.2465 230.153 75.8488 222.969 74.8188 215.71Z" fill="black"/>
<path d="M98.802 289.333C97.8456 290.444 96.9628 291.555 96.08 292.666C95.1972 293.777 94.2408 294.814 93.2844 295.85C92.328 296.887 91.3716 297.924 90.4152 298.961C89.4589 299.998 88.4289 300.961 87.3989 302.072C88.7232 301.554 90.0474 300.739 91.1509 299.85C92.328 298.961 93.4315 297.998 94.3879 296.887C95.3443 295.776 96.2271 294.591 96.9628 293.332C97.7721 292.073 98.3606 290.74 98.802 289.333Z" fill="black"/>
<path d="M98.4342 297.924C97.1099 299.628 95.9328 301.406 94.5351 303.035C93.8729 303.85 93.1373 304.59 92.328 305.257C91.5188 305.924 90.7095 306.59 89.8267 307.331C89.606 307.553 89.3853 307.701 89.2381 307.923C89.1646 307.997 89.0174 308.146 88.8703 308.294C88.7232 308.442 88.6496 308.664 88.576 308.96C88.5025 309.257 88.6496 309.775 88.9439 309.923C89.2381 310.145 89.3853 310.219 89.5324 310.219C89.9003 310.294 90.2681 310.368 90.5624 310.368C91.2245 310.294 91.7395 310.145 92.2544 309.997C92.4751 309.923 92.7694 309.849 92.9166 309.849C92.9901 309.849 93.0637 309.849 93.0637 309.849C93.0637 309.849 92.9901 309.775 93.0637 309.775C93.0637 309.775 93.1373 309.923 93.0637 310.071C92.9901 310.219 92.843 310.368 92.6223 310.59C92.2544 310.96 91.8866 311.405 91.5188 311.775C90.7831 312.59 90.0474 313.33 89.2381 314.071C90.1945 313.552 91.1509 312.96 92.0337 312.367C92.4751 312.071 92.9166 311.701 93.2844 311.33C93.5051 311.182 93.7258 310.96 93.9465 310.664C94.1672 310.368 94.3143 309.849 94.0936 309.405C94.0201 309.183 93.7994 308.886 93.5051 308.812C93.2108 308.664 92.9901 308.664 92.843 308.738C92.4751 308.738 92.2544 308.812 91.9602 308.886C91.4452 308.96 90.9302 309.108 90.4888 309.108C90.2681 309.108 90.121 309.108 89.9003 309.034C89.8267 309.034 89.7531 308.96 89.8267 309.034C89.9003 309.108 89.9738 309.257 89.9003 309.331C89.8267 309.405 90.3417 308.886 90.7095 308.59C91.4452 307.849 92.328 307.257 93.1373 306.442C93.9465 305.627 94.6822 304.813 95.2707 303.924C96.6685 301.924 97.6249 299.998 98.4342 297.924Z" fill="black"/>
<path d="M60.1052 302.294C59.3695 306.368 58.7809 310.516 58.1924 314.589L57.3096 320.737C57.1624 321.774 57.0153 322.959 57.4567 324.144C57.8981 325.255 58.6338 326.144 59.2959 326.885C59.958 327.699 60.5466 328.44 60.6937 329.255C60.6937 329.477 60.7673 329.625 60.7673 329.847C60.7673 330.069 60.6937 330.143 60.7673 330.069L60.8408 329.995C60.8408 329.995 60.8408 329.995 60.7673 329.995C60.6201 329.995 60.473 329.847 60.3259 329.773C58.7074 328.662 57.1624 327.255 55.4704 325.996C54.6611 325.329 53.7047 324.737 52.8219 324.218C51.8655 323.7 50.8356 323.329 49.7321 323.107C48.6285 322.885 47.525 322.811 46.4215 322.959C45.318 323.107 44.2144 323.552 43.3316 324.218C43.1109 324.366 43.0374 324.737 43.1845 324.959C43.1845 325.033 43.2581 325.033 43.3316 325.107C44.803 326.218 46.3479 327.255 47.8193 328.366L48.04 327.625C46.3479 327.699 44.7294 327.995 43.1109 328.44C41.4924 328.884 39.9475 329.477 38.4761 330.218C40.0211 329.625 41.6396 329.181 43.2581 328.884C44.8766 328.588 46.4951 328.514 48.1136 328.514C48.3343 328.514 48.555 328.366 48.555 328.07C48.555 327.921 48.4814 327.847 48.4078 327.773C47.01 326.588 45.5387 325.477 44.0673 324.292V325.181C45.6122 324.144 47.6721 323.996 49.5113 324.514C51.4241 324.959 53.1162 325.996 54.6611 327.255C56.2796 328.44 57.8246 329.847 59.5902 331.032C59.8109 331.18 60.1052 331.403 60.473 331.477C60.6937 331.551 60.9144 331.551 61.1351 331.551C61.4294 331.551 61.7237 331.403 61.8708 331.18C62.3122 330.736 62.3122 330.292 62.3122 329.995C62.3122 329.699 62.3122 329.329 62.2386 329.032C61.9444 327.773 61.1351 326.884 60.473 326.07C59.8109 325.255 59.1488 324.514 58.8545 323.7C58.4867 322.885 58.5602 321.996 58.7074 320.959L59.2959 314.738C59.5166 310.59 59.8109 306.442 60.1052 302.294Z" fill="black"/>
<path d="M54.9554 62.0957C53.999 62.2439 53.0426 62.3179 52.1598 62.6142C51.2034 62.9105 50.3942 63.503 49.7321 64.2437C48.4814 65.7991 47.525 67.4286 46.5686 69.1321C45.6122 70.8356 44.803 72.5392 44.0673 74.3908C43.3316 76.1684 42.6695 78.0201 42.1545 79.8718C42.081 80.2421 42.2281 80.6124 42.596 80.6865C42.7431 80.7606 42.8902 80.7606 42.9638 80.6865L50.247 78.4645C50.6149 78.3164 51.0563 78.2423 51.4241 78.1682L51.6448 78.0942C51.5713 78.0942 51.4977 78.0942 51.3505 78.0201C51.1298 77.946 50.9827 77.6498 50.9827 77.5757C51.0563 77.6498 51.0563 77.7238 51.1299 77.7979C51.2034 77.872 51.277 77.946 51.277 77.946L51.3505 78.0201L51.792 78.4645C54.2933 80.7606 56.8682 83.0566 59.3695 85.2786C59.6638 85.5008 60.0316 85.5008 60.2523 85.2046C60.3994 85.0564 60.473 84.7602 60.3994 84.6121C59.443 81.3531 58.4867 78.0942 57.5303 74.8352L56.2061 69.9468L54.8818 64.9843C55.1025 66.6879 55.3968 68.3174 55.6911 70.0209C55.9854 71.7244 56.2796 73.3539 56.6475 75.0574C57.3831 78.3904 58.1924 81.7234 59.0752 84.9824L60.1052 84.3158L52.6012 77.4276L52.1598 76.9832V77.0572C52.1598 76.9832 51.9391 76.6869 51.7184 76.6128C51.5713 76.5388 51.4977 76.5388 51.4241 76.5388H51.277C51.0563 76.5388 50.9827 76.6128 50.9091 76.6128C50.4677 76.761 50.0999 76.835 49.6585 76.9832L47.2307 77.7238C45.6122 78.2423 43.9937 78.7608 42.3752 79.2792L43.2581 80.094C43.773 78.2423 44.3616 76.4647 45.0237 74.6871C45.6858 72.9095 46.4215 71.1319 47.2307 69.4284C47.6721 68.5396 48.04 67.7248 48.555 66.9101C48.9964 66.0953 49.4378 65.2065 50.0263 64.4659C50.5413 63.7252 51.277 63.1327 52.1598 62.7623C53.1162 62.5401 54.0726 62.3179 54.9554 62.0957Z" fill="#174075"/>
<path d="M74.3774 61.7254C76.2901 62.2439 78.2029 62.7623 79.8214 63.7252C81.5135 64.6881 82.7641 66.1694 83.7941 67.7989C84.8241 69.4284 85.7804 71.1319 86.7368 72.9095C87.6196 74.6871 88.5025 76.3906 89.3853 78.1682L90.1945 77.1313C88.7967 76.6869 87.3989 76.2425 86.0747 75.724C85.4126 75.4278 84.7505 75.1315 84.0884 74.8352C83.7205 74.6871 83.3527 74.539 82.9113 74.3908C82.4699 74.2427 81.9549 74.2427 81.4399 74.3908C80.9249 74.539 80.5571 74.8352 80.2628 75.0574C79.9686 75.2796 79.6743 75.5759 79.38 75.8722C78.7915 76.3906 78.3501 77.0572 77.8351 77.6498C76.9523 78.9089 76.2901 80.3902 75.9959 81.9456H76.9523C76.3637 80.168 75.8487 78.4645 75.1866 76.761L73.3474 71.5763C73.7153 73.3539 74.1567 75.1315 74.5981 76.9091C75.0395 78.6867 75.5545 80.4643 75.9223 82.1678C75.9959 82.4641 76.2166 82.6122 76.5109 82.5382C76.658 82.4641 76.8051 82.39 76.8787 82.1678C77.2465 80.8346 77.9086 79.5014 78.7915 78.3904C79.2329 77.7979 79.6743 77.2794 80.1893 76.835C80.7042 76.3906 81.2928 75.8722 81.7342 75.7981C82.1756 75.724 82.7641 75.8722 83.4263 76.1684C84.0884 76.4647 84.7505 76.835 85.4862 77.1313C86.884 77.7238 88.2818 78.2423 89.7531 78.6126C90.121 78.6867 90.5624 78.4645 90.6359 78.0942C90.7095 77.946 90.6359 77.7238 90.5624 77.5757C89.6796 75.7981 88.7967 74.0205 87.7668 72.317C86.8104 70.5394 85.7804 68.8358 84.5298 67.2063C83.3527 65.5769 81.8078 64.0955 79.9686 63.2067C78.2765 62.3179 76.2901 61.9476 74.3774 61.7254Z" fill="#174075"/>
<defs>
<linearGradient id="paint0_linear_2021_1652" x1="136.074" y1="174.946" x2="-0.0793568" y2="174.946" gradientUnits="userSpaceOnUse">
<stop stop-color="#0ABBEF"/>
<stop offset="0.2385" stop-color="#0D9BCF"/>
<stop offset="0.756" stop-color="#145A8E"/>
<stop offset="1" stop-color="#174075"/>
</linearGradient>
</defs>
</svg>
