<svg width="187" height="185" viewBox="0 0 187 185" fill="none" xmlns="http://www.w3.org/2000/svg">
<g filter="url(#filter0_d_2932_15463)">
<circle cx="97" cy="90" r="90" fill="#ABE0C5"/>
</g>
<mask id="mask0_2932_15463" style="mask-type:alpha" maskUnits="userSpaceOnUse" x="-24" y="-1" width="211" height="182">
<path d="M187 90.0015C187 139.707 146.706 180.001 97 180.001C47.2944 180.001 -23.6553 173.788 -23.6553 90.0015C-23.6553 6.21494 40.1661 -0.0392873 97 -0.0401916C146.932 -0.0409862 187 40.2959 187 90.0015Z" fill="white"/>
</mask>
<g mask="url(#mask0_2932_15463)">
<path d="M321.297 44.8274C321.297 44.3716 321.297 43.6879 321.297 43.2321C321.525 43.2321 321.753 43.0041 321.981 42.7762C328.133 42.5483 334.513 42.0925 340.665 41.8646C342.943 41.8646 345.449 40.953 347.272 43.0041C347.956 43.6879 349.095 43.232 349.779 43.0041C351.829 42.5483 353.88 42.0925 355.931 41.6367C357.07 41.6367 358.209 41.1809 359.12 42.0925C361.171 43.9158 363.222 43.232 365.5 42.7762C368.918 42.0925 372.336 41.6367 375.754 40.953C377.348 40.7251 378.716 40.953 379.171 42.5484C379.627 43.9158 380.538 43.46 381.45 43.46C387.146 42.7763 392.842 42.3204 398.539 42.7762C400.589 42.7762 402.64 43.4599 403.779 45.0553C404.69 46.1948 405.374 45.739 406.058 45.0553C407.425 44.1437 409.02 43.46 410.615 43.46C414.716 43.0042 417.678 45.2833 417.678 49.3856C417.678 57.5903 417.678 66.0229 417.906 74.2276C417.906 92.6882 415.399 110.921 412.21 128.926C411.298 133.94 411.298 133.94 406.285 134.167C367.323 136.447 328.361 138.498 289.398 140.777C250.892 143.056 212.613 145.335 174.106 147.614C144.03 149.437 113.954 151.033 83.8777 152.628C73.6245 153.312 63.3712 154.907 53.3458 153.995C42.6369 153.084 31.9279 153.995 21.4468 153.995C16.2063 153.995 10.9657 154.907 5.72516 154.679C1.39601 154.679 0.940308 154.223 0.940308 149.893C0.940308 144.651 2.99096 139.637 4.35806 134.395C8.91506 117.53 13.6999 100.893 18.2569 84.0276C22.1304 70.1252 27.1431 56.6786 31.9279 43.0041C32.1558 42.3204 32.6115 41.4088 32.6115 40.7251C33.0672 38.2181 34.4343 36.8506 36.9406 36.6227C44.4597 35.2553 51.9787 34.3436 59.4978 32.7483C66.3333 31.1529 73.1688 31.3809 80.0043 30.0134C81.1435 30.0134 82.5106 30.0134 83.422 28.8739H85.7005C90.2575 30.2413 94.3588 32.5204 99.3715 32.0646C100.055 32.0646 100.511 32.2924 101.194 32.5203C104.84 33.2041 108.485 34.3436 112.131 32.5203C113.042 32.0645 114.41 31.8366 114.865 32.7483C116.232 35.0274 118.055 34.5716 120.106 34.5716C125.346 34.5716 130.359 35.939 135.6 35.2553C136.967 35.2553 138.334 35.4832 139.017 36.8507C139.701 38.2181 141.296 38.2181 142.663 38.2181C145.853 38.2181 149.043 37.5343 152.005 38.2181C157.473 39.3576 162.486 38.2181 167.726 37.3064C170.916 36.6227 174.334 37.3064 177.524 37.3064C179.575 37.3064 181.397 38.6739 183.22 39.5855C183.22 40.953 183.448 42.5483 183.676 43.9158C183.676 50.5251 182.765 57.1345 181.625 63.7438C179.347 76.2788 177.98 88.5858 178.663 101.349C179.575 114.795 179.575 128.014 179.803 141.461C179.803 143.056 180.258 143.74 182.081 143.512C183.676 143.512 185.271 143.056 186.866 143.284C189.144 143.284 189.6 142.372 189.6 140.321C188.689 117.302 188.005 94.2835 187.094 71.2647C186.638 60.5531 186.41 50.0693 185.954 39.3576C185.954 37.7622 187.094 37.7623 188.233 37.5344C199.398 36.8506 210.79 36.1669 221.955 36.8507C222.638 36.8507 223.778 36.8506 224.005 37.3064C225.828 39.5855 227.651 38.446 229.93 38.446C235.17 38.446 240.411 39.3576 245.651 39.8134C246.107 39.8134 246.563 39.8135 246.563 40.2693C248.613 43.46 251.347 41.6367 253.854 40.953C256.588 40.2693 259.094 40.2693 261.373 42.0925C262.968 43.2321 264.563 42.7762 266.386 42.0925C268.436 41.4088 270.487 41.1809 272.31 42.5484C273.677 43.46 274.816 43.0042 276.183 42.5484C277.778 41.8646 279.373 41.1809 280.968 42.7762C281.879 43.6879 283.019 43.232 284.158 42.7762C285.981 42.3204 287.803 41.4088 289.626 40.953C292.816 40.2693 295.778 40.4972 298.285 43.2321C299.196 44.3716 300.335 44.3716 301.702 43.9158C304.209 43.0041 306.715 41.8646 309.449 41.6367C311.044 41.6367 312.867 41.1809 314.006 42.7762C314.69 43.9158 316.74 41.6367 316.968 43.9158C316.968 55.0833 317.424 66.0229 317.652 77.1904C318.107 95.6509 318.563 114.339 318.791 132.8C318.791 134.851 319.475 135.535 321.525 135.079C323.348 134.623 322.664 133.256 322.664 132.116C322.664 110.921 322.209 89.4974 321.981 68.302C321.981 60.0973 321.981 51.8926 321.525 43.6879L321.297 44.8274ZM278.234 47.3344C276.867 46.8786 276.183 47.3344 275.955 48.7018C274.36 54.3996 272.765 60.3252 271.398 66.0229C265.93 89.0416 260.461 112.288 254.993 135.307C253.854 140.093 253.854 140.093 258.639 139.865C260.006 139.865 260.461 139.409 260.689 138.042C261.373 134.167 262.284 130.293 263.196 126.646C268.208 104.995 274.132 83.7998 278.462 61.9206C279.373 57.8182 280.057 53.4879 280.284 49.1577C280.284 47.7902 280.284 46.4227 278.234 47.3344ZM297.601 48.7018C295.55 47.3344 295.55 48.7019 295.095 50.0693C288.259 77.8741 281.651 105.907 277.778 134.395C277.094 138.954 277.094 138.954 281.196 138.042C282.791 138.498 282.563 137.13 282.791 136.447C288.031 113.884 293.272 91.3207 297.145 68.5299C298.057 63.288 298.968 57.8182 298.968 52.3484C298.968 50.9809 299.424 49.1577 297.373 48.7018H297.601ZM100.511 146.93C100.055 147.386 99.8272 148.07 100.511 148.526C100.739 148.754 101.194 148.526 101.65 148.526C101.65 148.526 101.878 148.526 102.106 148.526C102.334 148.526 102.561 148.754 102.789 148.754C108.486 148.298 114.41 148.07 120.106 147.614C121.473 147.614 121.245 146.474 121.473 145.791C122.84 137.358 124.435 128.926 126.258 120.493C130.359 100.893 133.321 81.2927 136.739 61.4647C137.878 55.3112 138.562 48.9298 139.245 42.5484C139.245 41.4088 139.929 39.8134 137.878 39.5855C133.549 39.3576 129.448 38.446 125.119 39.1297C122.081 39.1297 120.41 40.4972 120.106 43.2321C119.422 50.753 118.739 58.274 117.372 65.567C113.27 86.5346 107.802 107.046 104.156 128.242C103.017 134.395 101.194 140.549 100.511 146.93ZM410.387 129.381C410.387 128.698 410.387 128.242 410.615 127.558C411.754 112.516 412.893 97.7021 414.26 82.6602C415.172 72.6322 416.311 62.3763 414.944 52.1205C414.488 47.1065 414.488 47.1065 409.703 48.2461C408.564 48.474 407.425 48.9298 406.285 49.1577C404.235 49.3856 403.551 50.5251 404.235 52.5763C404.007 58.9577 404.007 65.5671 403.323 71.9485C401.273 91.3207 398.994 110.465 397.399 129.837C397.399 131.433 397.399 131.888 398.994 131.66C402.412 131.433 405.602 131.205 409.02 131.205C410.159 131.205 410.615 130.521 410.387 129.381ZM369.829 133.028C372.791 133.712 373.475 131.888 373.703 129.609C373.931 126.646 374.159 123.684 374.614 120.721C376.665 103.856 378.716 87.2183 380.083 70.3531C380.538 63.7438 381.222 57.1345 380.083 50.5252C379.399 46.8786 378.716 46.4228 375.07 46.4228C373.703 46.4228 372.336 46.4228 370.969 46.4228C367.551 46.6507 367.551 46.6507 368.007 50.2972C368.234 61.4647 367.095 72.8601 366.184 84.0276C365.045 98.6137 364.133 112.972 363.45 127.558C363.222 133.94 363.45 133.94 369.829 133.028ZM302.842 113.428C304.664 99.5254 307.399 85.8509 309.677 72.1764C311.044 64.6555 312.411 57.3624 311.728 49.8414C311.5 48.246 309.905 48.4739 308.993 48.4739C307.626 48.4739 306.259 48.4739 304.892 48.4739C303.069 48.4739 302.386 48.9298 302.386 50.9809C302.842 55.0833 302.386 59.1856 301.702 63.288C298.968 79.6974 295.55 95.8789 291.905 112.06C290.082 120.037 288.259 128.014 286.436 136.219C286.436 137.13 285.525 138.27 287.348 138.27C290.765 138.27 294.183 138.27 297.601 138.042C298.74 138.042 299.424 137.358 299.652 135.991C299.88 133.484 300.563 131.205 301.019 128.698C301.474 123.684 303.069 118.898 302.842 113.884V113.428ZM129.448 146.93C131.498 146.93 133.549 146.93 135.6 146.93C137.195 146.93 137.65 146.247 137.878 144.879C138.79 138.726 139.929 132.572 141.068 126.419C144.714 105.223 149.498 84.2556 152.461 63.0601C153.6 54.1717 154.283 55.3112 145.853 53.9438C145.169 53.9438 144.714 53.9438 144.03 53.9438C141.752 53.2601 140.84 53.9437 140.384 56.4507C138.106 70.581 136.055 84.7113 133.549 98.8417C131.043 113.428 128.081 128.014 125.346 142.372C124.435 147.386 124.663 147.386 129.676 146.93H129.448ZM349.779 50.753C349.779 51.4367 349.551 52.1205 349.551 52.8042C348.639 66.7066 347.728 80.609 346.817 94.2835C345.905 107.046 345.222 119.581 344.31 132.344C344.31 133.94 344.31 134.623 346.361 134.395C350.006 133.94 353.652 133.94 357.298 133.484C359.576 133.94 360.488 133.028 360.488 130.749C360.488 130.065 360.488 129.381 360.488 128.926C361.399 109.325 362.766 89.9532 364.133 70.3531C364.589 63.5159 365.272 56.6786 364.817 49.6135C364.817 47.5623 363.905 46.6507 361.855 46.4228C358.209 45.9669 354.791 46.4228 351.146 46.4228C350.006 46.4228 349.323 46.6507 349.551 48.0181C349.551 48.9298 349.551 49.8414 349.779 50.753ZM91.3968 33.8878C89.8018 32.5204 88.6625 32.5204 88.2068 35.0274C86.384 44.5995 83.8777 53.9437 81.3714 63.288C74.0802 91.0928 67.0168 118.898 59.7256 146.702C58.5864 151.261 58.3585 151.261 63.3712 150.805C63.5991 150.805 63.8269 150.805 64.0548 150.805C66.3333 150.805 68.8396 150.577 71.1181 150.577C72.9409 150.577 73.6245 149.893 73.8523 148.07C77.0422 133.028 80.6878 118.214 83.8777 103.172C88.4347 81.9764 92.3082 60.5531 97.5487 39.3576C98.0044 37.0785 98.2323 35.7111 95.4981 35.2553C94.131 35.2553 92.7639 34.3436 91.3968 33.8878ZM324.943 48.2461C324.943 57.5903 324.943 66.7066 325.171 76.0508C325.627 94.9672 325.627 113.884 326.082 132.8C326.082 133.256 326.082 133.484 326.082 133.94C326.082 135.307 326.538 135.763 327.905 135.763C330.867 135.763 333.829 135.763 336.563 135.079C339.146 135.383 340.513 134.167 340.665 131.433C342.032 112.06 343.171 92.4603 344.538 73.0881C344.994 65.1113 345.905 57.3624 346.133 49.3856C346.133 46.6507 345.677 45.5112 342.487 45.7391C337.475 45.7391 332.462 45.739 327.449 45.2832C324.943 45.2832 324.259 45.967 324.715 48.2461H324.943ZM225.6 140.549C226.284 139.637 226.512 138.726 226.74 137.814C231.297 117.53 235.626 97.0184 240.866 76.7346C243.373 67.1625 245.879 57.8182 247.474 48.0181C247.93 45.7391 247.474 44.5995 244.968 44.3716C240.411 43.9158 235.854 43.0042 231.297 42.5484C227.423 42.0925 227.423 42.3204 226.967 46.1948C225.6 53.4879 224.689 60.781 223.094 67.8461C217.853 91.7765 213.296 115.707 209.195 139.865C208.967 141.688 209.195 142.144 211.018 142.144C215.575 142.144 220.132 141.688 224.689 141.461C225.373 141.461 226.056 141.461 226.056 140.549H225.6ZM108.03 36.6227C107.118 36.1669 105.979 36.1669 105.068 36.1669C102.789 36.1669 101.194 36.6227 101.194 39.3576C101.194 41.1809 100.739 43.232 100.283 45.0553C96.6373 62.8321 92.7639 80.8369 89.1183 98.6137C85.9284 114.111 82.2827 129.609 79.7764 145.335C79.0928 150.121 79.0928 150.121 83.1941 149.437C86.8397 149.893 90.2575 148.981 93.6753 149.209C95.7259 149.209 96.6373 148.526 96.8651 146.474C102.106 120.037 108.03 93.8277 113.726 67.6183C115.777 58.274 116.688 48.9298 116.916 39.5855C116.916 37.5343 116.46 36.3948 114.182 36.6227C112.131 36.6227 110.08 36.6227 108.03 36.6227ZM200.993 142.828C203.727 143.132 205.322 141.992 205.777 139.409C208.056 126.419 210.334 113.428 212.841 100.437C216.486 82.2044 220.816 63.9717 223.55 45.7391C224.233 41.1809 224.233 41.4088 219.448 40.953C210.79 40.2693 202.132 40.953 193.474 40.7251C189.6 40.7251 189.6 40.7251 190.284 44.5995C190.284 45.0553 190.284 45.5112 190.284 45.967C191.423 73.0881 192.334 100.209 193.474 127.33C193.474 131.888 193.701 136.674 193.929 141.233C193.929 142.144 193.701 143.512 195.296 143.284C197.119 143.284 199.17 143.512 200.993 142.828ZM384.412 61.6926C383.956 72.6322 383.045 81.9765 382.133 91.5486C380.766 104.539 379.399 117.302 377.804 130.293C377.804 132.116 377.804 132.8 379.855 132.8C383.728 132.344 387.374 132.116 391.247 132.116C393.07 132.116 393.526 131.205 393.526 129.609C393.526 126.419 393.982 123 394.437 119.809C396.26 101.804 398.311 83.5718 399.906 65.567C400.361 60.3252 400.589 55.0833 399.906 49.8414C399.906 48.246 399.45 46.8786 397.627 46.4228C393.07 45.5111 388.513 45.5111 384.184 46.4228C383.273 46.4228 382.817 47.1065 383.045 48.2461C384.412 53.0321 383.728 58.0461 383.956 61.4647L384.412 61.6926ZM235.17 141.005C236.309 141.005 237.449 140.777 238.36 141.005C241.094 141.005 242.461 140.321 242.689 137.358C242.689 135.307 243.373 133.256 243.828 131.205C248.158 109.098 253.854 87.4462 259.094 65.567C260.234 60.3252 261.373 55.3112 262.056 50.0693C262.284 48.0181 261.829 46.6507 259.322 46.6507C257.044 46.6507 254.537 46.6507 252.259 46.6507C251.12 46.6507 250.664 47.1065 250.664 48.2461C250.208 50.7531 249.752 53.26 249.297 55.767C242.917 82.4323 236.081 108.87 230.613 135.763C229.474 141.688 229.246 141.688 235.398 141.233L235.17 141.005ZM170.916 48.0181C170.916 48.9298 170.916 50.5251 170.689 52.1205C168.866 63.9717 166.815 75.8229 164.992 87.6742C162.03 105.451 160.891 123.456 156.79 141.005C155.65 145.791 155.65 145.563 160.435 145.335C162.258 145.335 163.397 145.107 163.853 142.828C169.549 116.846 174.334 90.637 178.435 64.1996C179.575 57.3624 180.486 50.5252 180.714 43.6879C180.714 41.8646 180.03 40.953 178.208 40.953C176.157 40.953 174.106 40.953 171.828 40.953C170.916 40.953 170.005 40.953 170.461 42.5484C170.916 44.1437 170.916 45.7391 170.916 48.0181ZM293.044 47.7902C292.133 47.7902 291.221 47.3344 290.31 47.3344C288.259 47.3344 285.525 46.4228 283.93 47.7902C282.563 48.7019 283.93 51.2088 283.246 53.0321C283.246 53.4879 283.246 53.7158 283.246 54.1716C280.968 69.6694 277.094 84.7113 273.221 99.9812C270.259 112.516 267.297 125.051 264.107 137.586C263.651 139.181 264.107 139.865 265.702 139.637C267.525 139.637 269.348 139.181 271.17 139.409C274.132 139.637 274.816 138.042 275.272 135.535C277.55 117.758 280.512 99.9812 284.614 82.4323C287.348 71.0369 289.626 59.6415 293.272 48.0181L293.044 47.7902ZM167.726 48.4739C167.726 46.8786 167.726 45.2832 167.726 43.9158C167.726 42.7762 167.043 42.3204 165.904 42.3204C164.764 42.3204 164.537 43.0042 164.309 43.6879C164.081 44.8274 163.625 46.1948 163.397 47.3344C160.207 63.7438 157.245 80.1532 154.055 96.5626C151.093 112.06 149.271 128.014 146.536 143.74C146.536 144.423 146.081 145.107 146.536 145.791C147.904 146.93 152.233 145.563 152.688 143.74C153.6 139.409 154.739 134.851 155.423 130.521C158.157 115.479 159.524 100.209 162.03 85.1672C164.081 73.088 166.359 60.781 167.726 48.4739ZM247.474 140.321C249.98 140.549 251.12 139.637 251.803 136.902C258.639 108.414 264.335 79.9253 272.537 51.8925C273.905 46.8786 273.905 46.8786 268.664 48.0181C266.613 48.474 265.246 49.1577 265.018 51.4368C264.791 57.3624 263.196 63.0601 261.829 68.7578C256.132 91.7765 250.664 115.023 245.879 138.27C245.423 140.093 245.651 141.005 247.702 140.549L247.474 140.321ZM313.55 71.7206C312.411 78.3299 311.272 84.9393 310.361 91.5486C308.082 106.135 305.804 120.721 303.525 135.307C303.525 136.674 303.525 137.13 305.12 136.902C307.626 136.674 310.133 136.447 312.411 136.674C314.69 136.674 315.145 135.991 315.145 133.712C314.918 118.214 314.69 102.716 314.234 86.9905C314.234 81.7486 314.234 76.7346 313.323 71.4927L313.55 71.7206ZM152.461 41.8646C149.498 41.8646 146.536 41.8646 143.802 41.8646C141.524 41.8646 142.435 43.6879 142.207 45.0553C141.979 46.6507 143.119 46.1949 144.03 46.4228C146.992 46.4228 149.726 46.8786 152.461 48.0181C154.283 48.7019 156.106 49.8414 156.106 52.1205C156.106 56.2228 156.106 60.3252 155.65 64.1996C153.6 79.0137 149.954 93.3719 147.448 108.186C145.397 120.265 143.119 132.116 141.068 144.195C141.068 144.879 140.157 146.247 141.752 146.702C143.347 146.93 143.347 145.563 143.574 144.651C144.03 142.144 144.486 139.409 144.941 136.902C149.271 105.679 155.423 74.9113 161.802 44.1437C162.258 42.5483 161.802 42.3204 160.207 42.3204C157.701 42.3204 155.195 42.3204 152.461 42.3204V41.8646ZM176.157 100.437C175.018 106.363 174.106 111.832 172.967 117.302C171.144 125.735 169.549 133.94 167.499 142.372C167.043 144.423 167.499 145.107 169.549 144.879C171.372 144.879 172.967 144.423 174.79 144.423C177.068 144.423 177.296 143.512 177.296 141.688C177.296 129.609 177.296 117.758 177.296 105.679C177.296 104.084 177.296 102.488 176.385 100.437H176.157ZM152.916 52.3484C150.866 50.2972 143.802 48.7019 141.979 49.3856C141.296 49.6135 141.068 50.0693 141.296 50.753C141.296 51.2088 141.752 51.4368 142.207 51.4368C145.625 51.2089 149.043 51.4368 152.916 52.3484ZM176.84 99.2975C176.84 99.2975 176.84 99.0696 176.84 98.8417C176.84 98.8417 176.84 99.0696 176.84 99.2975C176.84 99.2975 176.84 99.5254 176.84 99.7533C176.84 99.7533 176.84 99.5254 176.84 99.2975Z" fill="#080A0A"/>
<path d="M186.638 40.0409C187.093 50.7525 187.321 61.2363 187.777 71.948C188.461 94.9667 189.372 117.985 190.283 141.004C190.283 143.283 189.828 144.195 187.549 143.967C185.954 143.967 184.359 143.967 182.764 144.195C180.942 144.423 180.714 143.739 180.486 142.144C180.258 128.697 180.258 115.478 179.347 102.032C178.435 89.269 180.03 76.962 182.309 64.427C183.448 57.8177 184.587 51.4363 184.359 44.599C184.359 43.2316 184.131 41.6362 183.904 40.2688C184.815 40.2688 185.726 40.2688 186.638 40.0409Z" fill="#CCC6C6"/>
<path d="M124.891 38.9022C129.22 38.2185 133.321 38.9022 137.65 39.358C139.701 39.358 139.017 41.1813 139.017 42.3208C138.334 48.7023 137.422 54.8558 136.511 61.2372C133.321 80.8373 130.359 100.665 126.03 120.265C124.207 128.698 122.612 137.131 121.245 145.563C121.245 146.475 121.245 147.387 119.878 147.387C114.182 147.614 108.258 148.07 102.561 148.526C102.334 148.526 102.106 148.526 101.878 148.298C105.068 148.298 105.979 146.019 106.435 143.284C108.03 133.712 109.853 124.368 111.675 115.024C114.865 98.1583 117.599 81.521 120.562 64.6558C121.929 55.9953 124.207 47.5627 124.891 38.9022Z" fill="#76B62B"/>
<path d="M108.03 36.6229C110.08 36.6229 112.131 36.6229 114.182 36.6229C116.46 36.6229 116.916 37.5345 116.916 39.5857C116.916 49.1578 115.777 58.5021 113.726 67.6184C108.03 93.8279 102.106 120.037 96.8651 146.475C96.4094 148.526 95.498 149.21 93.6752 149.21C90.2574 149.21 86.6118 149.893 83.1941 149.437C84.1055 148.07 84.789 146.703 85.0169 144.879C87.9789 128.47 91.8524 112.288 94.5866 96.107C98.0043 76.051 102.561 56.223 107.802 36.6229H108.03Z" fill="#A05A9E"/>
<path d="M91.3975 33.8875C92.7646 34.3434 94.1317 35.0271 95.4988 35.255C98.4609 35.4829 98.233 36.8503 97.5495 39.3573C92.5368 60.5528 88.4355 81.9762 83.8785 103.172C80.6886 118.214 77.2708 133.028 73.8531 148.07C73.3974 149.893 72.9417 150.577 71.1189 150.577C68.8404 150.577 66.334 150.577 64.0555 150.805C64.9669 147.386 65.6505 143.967 66.5619 140.776C72.0303 120.721 75.448 100.209 80.2329 79.925C83.8785 64.6552 87.5241 49.3853 91.3975 34.1155V33.8875Z" fill="#EA656D"/>
<path d="M170.916 48.0191C170.916 45.74 170.916 44.1447 170.461 42.5493C170.005 41.1819 170.688 40.9539 171.828 40.9539C173.878 40.9539 175.929 40.9539 178.207 40.9539C180.03 40.9539 180.714 41.8656 180.714 43.6889C180.714 50.5261 179.575 57.3634 178.435 64.2006C174.334 90.4101 169.321 116.62 163.853 142.829C163.397 145.108 162.258 145.336 160.435 145.336C155.65 145.336 155.65 145.564 156.79 141.006C160.891 123.457 162.258 105.452 164.992 87.6751C166.815 75.8239 168.866 63.9727 170.688 52.1214C170.916 50.5261 170.916 48.9308 170.916 48.0191Z" fill="#CCC6C6"/>
<path d="M144.03 53.9433C144.714 53.9433 145.397 53.9433 145.853 53.9433C154.511 55.3107 153.828 53.9433 152.461 63.0596C149.498 84.2551 144.714 105.451 141.068 126.418C139.929 132.572 138.79 138.725 137.878 144.879C137.65 146.474 137.195 147.158 135.6 146.93C133.549 146.93 131.498 146.93 129.448 146.93C129.448 146.702 129.22 146.246 129.22 146.018C130.131 140.32 131.043 134.395 132.182 128.697C135.372 110.009 138.334 91.0923 141.752 72.4038C142.891 66.2503 144.714 60.0968 144.03 53.9433Z" fill="#A05A9E"/>
<path d="M167.726 48.4729C166.359 60.7799 164.08 72.8591 162.03 85.1661C159.523 100.208 158.384 115.478 155.422 130.52C154.511 135.078 153.599 139.408 152.688 143.739C152.232 145.562 147.903 146.929 146.536 145.79C145.852 145.106 146.536 144.422 146.536 143.739C149.27 128.013 151.093 112.287 154.055 96.5615C157.245 80.1521 160.207 63.7427 163.397 47.3333C163.625 46.1938 164.08 44.8264 164.308 43.6869C164.308 42.7752 164.764 42.0915 165.903 42.3194C167.042 42.3194 167.498 43.0031 167.726 43.9147C167.954 45.5101 167.954 46.8775 167.726 48.4729Z" fill="#0CB9EC"/>
<path d="M108.03 36.6234C102.789 56.2235 98.2323 76.0515 94.8145 96.1074C91.8525 112.517 88.2069 128.698 85.2448 144.88C85.017 146.475 84.3334 148.071 83.422 149.438C79.3207 150.122 79.0929 150.122 80.0043 145.336C82.7385 129.61 86.1562 114.112 89.3461 98.6144C92.9917 80.8375 96.8652 62.8328 100.511 45.0559C100.966 43.2327 101.194 41.1815 101.422 39.3582C101.422 36.6233 103.017 35.9396 105.296 36.1675C106.207 36.1675 107.346 36.1676 108.258 36.6234H108.03Z" fill="#F2F3F5"/>
<path d="M124.891 38.9012C124.207 47.5617 121.929 55.9943 120.562 64.6548C117.599 81.52 114.865 98.1573 111.675 115.023C109.853 124.367 108.03 133.939 106.435 143.283C105.979 146.018 105.068 148.069 101.878 148.297C101.878 148.297 101.65 148.297 101.422 148.297C101.194 147.841 100.739 147.386 100.511 146.93C100.966 140.548 103.017 134.395 104.156 128.241C107.802 107.274 113.27 86.534 117.372 65.5664C118.739 58.0455 119.422 50.7524 120.106 43.2315C120.41 40.3446 122.081 38.9772 125.119 39.1291L124.891 38.9012Z" fill="#F2F3F5"/>
<path d="M91.3974 33.8888C87.7518 49.1587 83.8783 64.4286 80.2327 79.6984C75.4479 99.9822 72.0301 120.494 66.5617 140.55C65.6503 143.969 64.9668 147.159 64.0554 150.578C63.8275 150.578 63.5997 150.578 63.3718 150.578C58.587 151.262 58.587 151.262 59.7262 146.476C67.0174 118.671 74.0808 90.8659 81.372 63.0611C83.8783 53.7169 86.3847 44.1447 88.2075 34.8005C88.6632 32.2935 89.8024 32.2935 91.3974 33.6609V33.8888Z" fill="#F2F3F5"/>
<path d="M144.029 53.9433C144.713 60.3248 143.118 66.4782 141.751 72.4038C138.105 91.0923 135.371 109.781 132.181 128.697C131.27 134.395 130.131 140.321 129.219 146.018C129.219 146.246 129.219 146.702 129.447 146.93C124.434 147.386 124.206 147.386 125.118 142.372C127.852 127.786 130.814 113.199 133.32 98.8412C135.827 84.7109 138.105 70.5806 140.156 56.4503C140.612 53.7154 141.523 53.2596 143.802 53.9433H144.029Z" fill="#F2F3F5"/>
<path d="M152.46 41.8658C154.967 41.8658 157.473 41.8658 160.207 41.8658C161.574 41.8658 162.03 41.8658 161.802 43.6891C155.195 74.4567 149.27 105.224 144.941 136.448C144.486 138.955 144.03 141.69 143.574 144.197C143.574 145.336 143.574 146.704 141.751 146.248C140.156 146.02 141.068 144.652 141.068 143.741C143.118 131.662 145.169 119.81 147.448 107.731C149.954 93.1451 153.6 78.559 155.65 63.745C156.106 59.6426 156.106 55.5403 156.106 51.6659C156.106 49.6147 154.283 48.4751 152.46 47.5635C149.726 46.4239 146.764 45.9682 144.03 45.9682C143.118 45.9682 141.979 46.1961 142.207 44.6007C142.435 43.4612 141.751 41.6379 143.802 41.41C146.764 41.41 149.726 41.41 152.46 41.41V41.8658Z" fill="#C5C0C0"/>
<path d="M176.157 100.437C176.841 102.489 177.068 104.084 177.068 105.679C177.068 117.758 177.068 129.61 177.068 141.689C177.068 143.512 176.841 144.652 174.562 144.424C172.967 144.424 171.144 144.424 169.322 144.879C167.271 144.879 166.815 144.424 167.271 142.372C169.094 134.168 170.916 125.735 172.739 117.303C173.879 111.833 174.79 106.363 175.929 100.437H176.157Z" fill="#5E5E5E"/>
<path d="M152.915 52.3488C149.042 51.4372 145.624 51.2093 142.206 51.4372C141.751 51.4372 141.295 51.4372 141.295 50.7535C141.295 50.2976 141.295 49.8419 141.978 49.3861C143.801 48.7023 151.092 50.2977 152.915 52.3488Z" fill="#A05A9E"/>
<path d="M100.512 146.93C100.74 147.386 101.195 147.842 101.423 148.297C100.967 148.525 100.512 148.753 100.284 148.297C99.8276 147.842 100.284 147.158 100.284 146.702L100.512 146.93Z" fill="#76B62B"/>
</g>
<defs>
<filter id="filter0_d_2932_15463" x="2" y="0" width="185" height="185" filterUnits="userSpaceOnUse" color-interpolation-filters="sRGB">
<feFlood flood-opacity="0" result="BackgroundImageFix"/>
<feColorMatrix in="SourceAlpha" type="matrix" values="0 0 0 0 0 0 0 0 0 0 0 0 0 0 0 0 0 0 127 0" result="hardAlpha"/>
<feOffset dx="-5" dy="5"/>
<feComposite in2="hardAlpha" operator="out"/>
<feColorMatrix type="matrix" values="0 0 0 0 0 0 0 0 0 0 0 0 0 0 0 0 0 0 1 0"/>
<feBlend mode="normal" in2="BackgroundImageFix" result="effect1_dropShadow_2932_15463"/>
<feBlend mode="normal" in="SourceGraphic" in2="effect1_dropShadow_2932_15463" result="shape"/>
</filter>
</defs>
</svg>
