<svg width="207" height="185" viewBox="0 0 207 185" fill="none" xmlns="http://www.w3.org/2000/svg">
<g filter="url(#filter0_d_2932_18749)">
<circle cx="117" cy="90" r="90" fill="#945091"/>
</g>
<path d="M0.286133 101.512C5.38597 93.1647 10.254 91.0779 20.2219 92.9328C21.1491 92.9328 21.8446 92.9328 22.54 92.7009C27.6398 89.9185 32.9715 89.4548 37.6077 93.3966C38.5349 94.0922 38.7667 93.6285 39.4622 93.3966C45.2574 90.6142 48.2709 91.0779 52.9072 95.7153C53.6026 96.4109 54.2981 95.9472 54.9935 95.7153C59.1661 95.0197 61.4842 96.179 62.8751 99.8889C63.3387 100.816 63.5705 101.28 64.4977 101.048C66.3522 101.048 68.6703 102.44 70.0612 101.512C71.4521 100.585 71.6839 98.2659 72.3793 96.6428C85.1289 71.6008 101.124 48.8775 122.914 30.5598C125.232 28.7048 134.736 25.4586 136.127 25.6905C136.823 25.6905 142.618 26.1543 144.472 26.1543C148.413 26.618 149.572 27.3136 150.5 31.2554C150.963 33.5741 151.195 35.8927 151.659 37.9796C165.336 35.6609 178.781 35.429 192.226 37.9796C197.094 38.9071 200.571 40.9939 201.73 46.095C201.73 47.0225 202.425 47.95 202.657 48.8775C203.121 50.5006 203.352 52.1237 202.657 53.7468C198.948 61.6304 195.471 69.7458 190.371 76.9338C189.907 77.6294 189.212 78.325 189.212 79.4844C188.98 86.6724 187.821 93.8603 186.43 101.048C186.43 101.976 186.198 102.671 187.589 102.903C190.835 103.831 191.53 105.686 189.676 108.468C188.053 110.787 185.967 112.874 183.649 114.497C175.072 120.525 166.726 126.322 158.149 132.119C155.368 133.974 152.354 134.901 149.109 134.901C146.327 134.901 143.313 134.901 140.532 134.901C123.378 133.974 106.455 132.351 89.5332 130.496C87.2151 130.264 84.6653 130.496 82.3472 129.568C78.6382 128.409 77.7109 125.858 80.0291 122.612C80.4927 121.917 80.2609 121.453 80.0291 120.989C79.7972 120.062 79.5655 119.134 79.3336 117.975C79.1018 117.279 80.0291 116.12 78.6382 115.656C77.0156 115.192 77.0156 116.584 76.3201 117.511C67.2795 129.105 56.1525 136.756 40.853 136.061C35.7532 136.061 30.8852 134.438 28.1034 129.568C27.1762 127.945 26.2489 127.481 24.3944 127.25C17.4401 126.554 12.3403 123.54 10.254 116.352C10.254 115.656 10.0222 114.96 9.09492 114.96C4.92232 114.265 2.60426 111.482 0.517958 108.236V101.048L0.286133 101.512ZM135.664 61.6304C135.2 61.6304 134.968 61.8622 134.736 62.3259C133.809 63.4853 132.65 64.181 132.186 65.5722C131.491 66.2678 130.564 66.9634 130.1 67.659C124.305 77.1657 117.119 85.9767 111.092 95.4834C110.628 96.179 110.396 97.3384 109.005 97.5702C109.005 97.3384 108.774 96.8746 109.005 96.6428C115.264 85.9767 122.914 76.4701 128.709 65.5722C127.782 65.1084 126.623 65.5722 125.464 65.5722C122.914 64.8766 120.596 65.1084 117.119 65.5722C120.596 67.1953 120.596 69.9777 120.364 72.5283C118.278 78.325 115.728 83.8899 110.628 87.8317C107.151 90.6141 105.296 94.0922 104.833 98.4977C104.833 99.6571 103.906 100.585 103.442 101.512C100.892 105.686 97.4148 108.932 95.3285 113.337C93.9376 114.729 94.1696 115.656 96.0241 116.352C96.9513 116.584 97.8784 116.815 98.8057 116.815C106.455 117.743 114.105 118.67 121.987 119.366C128.014 120.062 134.041 121.685 140.068 121.685C144.704 121.685 145.632 120.989 146.559 116.352C150.731 110.323 154.904 104.063 159.308 98.034C171.594 81.8031 183.185 65.3403 194.312 48.1819C198.253 42.3852 197.325 41.2258 190.139 40.5302C188.517 39.8346 186.894 39.6027 185.271 39.6027C183.185 39.139 181.33 38.9071 179.244 38.9071C177.39 38.6752 175.303 38.4434 173.449 38.9071C167.422 38.6752 161.395 38.9071 155.599 39.8346C153.977 40.0665 151.89 40.0664 150.731 41.6895C147.718 46.095 143.777 49.1094 140.068 52.8193C137.982 54.9062 135.664 56.5292 132.65 55.138C129.173 54.6743 122.682 58.8479 120.828 62.7897C123.146 62.7897 125.464 63.0216 127.782 63.2535C129.868 63.7172 131.723 63.2534 132.882 61.1666C133.114 60.7029 133.809 60.2392 134.273 59.7754C134.736 59.3117 135.432 58.616 136.127 59.0798C136.823 59.5435 136.127 60.2392 135.895 60.7029C135.895 60.9348 135.895 61.3985 135.664 61.6304ZM188.285 75.7745C189.907 74.6151 190.603 72.992 191.298 71.3689C193.616 68.3546 195.471 65.1084 197.094 61.8622C199.875 56.993 201.962 52.3556 198.948 46.7907C198.948 45.8632 198.716 45.1676 197.789 46.5588C196.862 48.4138 195.703 50.0369 194.544 51.66C185.735 64.4128 176.926 77.1657 167.885 89.9185C160.467 100.353 152.354 110.323 146.095 121.453C145.863 123.076 146.327 124.235 147.022 125.627C147.718 127.018 147.95 128.873 149.341 129.105C150.731 129.105 151.659 127.481 152.354 126.09C161.395 113.105 170.667 100.353 180.403 87.8317C181.562 86.4404 182.953 85.0493 183.185 82.9624C185.271 82.2668 185.503 80.4118 186.198 78.7887C187.357 78.0931 187.821 77.1657 188.053 76.0063L188.285 75.7745ZM141.459 123.308C128.709 122.38 116.191 120.062 103.442 119.134C100.197 118.902 96.7194 119.598 93.9377 117.279C93.4741 116.815 93.2423 117.047 92.7786 117.279C91.6196 118.207 90.4606 117.975 89.0697 117.743C86.9834 117.279 84.8971 116.815 82.8108 117.047C81.6518 116.584 80.7245 116.352 81.1881 118.207C82.3472 122.38 83.5063 123.772 87.9107 124.235C96.2559 125.163 104.601 126.09 112.946 127.018C123.146 128.177 133.346 129.105 143.545 130.032C147.022 130.264 147.022 130.032 145.632 127.25C145.4 126.554 144.936 125.858 144.936 125.163C144.472 122.844 143.313 122.612 141.459 123.54V123.308ZM142.386 31.2554C143.545 30.3279 144.704 29.6323 146.559 28.2411C138.214 27.5455 131.259 25.9224 124.537 31.951C110.164 44.472 97.8785 58.6161 87.6788 74.6151C82.1153 83.1943 76.7838 92.0053 72.843 101.744C72.3793 103.135 73.5383 103.367 74.2338 103.599C77.4791 104.99 80.7245 105.454 84.2016 105.918C85.3607 105.918 85.3607 105.222 85.8243 104.526C95.5604 81.3393 109.469 60.9347 127.782 44.0082C132.418 39.6027 137.518 35.6609 142.618 31.4872L142.386 31.2554ZM19.5264 95.0196C12.5721 93.1647 6.08138 95.4834 3.29965 100.585C0.981537 104.758 1.90877 109.396 5.38593 111.946C6.54498 112.874 7.70405 113.801 9.09492 113.569C10.254 113.337 9.55854 111.482 10.254 110.787C10.254 110.787 10.254 110.323 10.4858 110.091C11.1812 108.468 12.1085 106.845 14.1948 107.309C16.2811 107.773 16.7447 109.396 16.9765 111.251C16.9765 113.337 16.0493 114.961 13.963 115.424C11.8767 115.888 12.1085 116.815 12.8039 118.439C14.8902 123.54 19.2946 125.163 24.1626 126.09C25.5535 126.322 26.2489 126.09 26.2489 124.467C26.2489 120.989 27.6398 117.975 30.6534 116.12C32.276 114.96 33.8987 114.96 35.5213 116.12C37.144 117.279 37.6077 118.902 37.3759 120.757C36.9122 123.772 35.0577 125.858 32.276 127.25C31.3488 127.713 29.4943 127.25 29.4943 128.873C29.4943 130.032 30.6534 130.96 31.5806 131.655C32.7397 132.583 34.1305 133.51 35.7532 133.742C40.3894 134.901 45.2574 135.365 49.8936 133.742C59.6297 130.728 67.743 125.627 73.7701 117.047C74.2338 116.352 75.3929 115.656 74.002 114.729C70.9885 112.874 70.5248 110.091 70.293 107.077C70.293 104.294 68.2067 104.063 66.3522 103.831C64.4977 103.367 62.6432 103.367 62.1796 106.149C61.9478 107.541 61.0206 108.7 59.3979 108.7C58.7025 108.7 58.2388 108.236 58.007 107.541C57.5434 105.918 58.007 104.758 59.3979 103.599C59.3979 103.599 59.6297 103.367 59.8615 103.135C61.716 101.512 61.4842 99.1934 59.1661 98.034C56.848 96.8746 54.5299 98.034 53.3708 100.121C52.9072 101.048 52.6754 102.439 51.2845 101.744C50.1255 101.28 50.5891 99.8889 51.0527 98.9615C52.2118 96.4109 51.7481 95.0197 48.9664 94.0922C46.1847 92.9328 43.4029 93.3965 40.6212 94.7878C39.694 95.2515 39.2303 95.9471 39.4622 97.1065C39.9258 99.1933 39.4621 101.048 37.8395 102.671C37.3758 103.367 36.6804 103.831 35.7532 103.599C34.8259 103.367 34.5941 102.439 34.5941 101.744C34.5941 99.8889 34.8259 98.2659 35.985 96.8746C37.144 95.4834 36.6805 94.5559 35.2896 93.8603C32.276 92.0053 29.0307 92.2372 25.5535 93.1647C23.9308 93.6285 22.7718 94.324 24.3944 96.179C24.8581 96.8746 25.3217 97.8021 25.3217 98.7296C25.3217 100.816 24.6262 102.44 22.7717 103.367C21.3809 104.063 19.9901 103.831 18.831 102.903C17.2083 101.512 16.7447 99.8889 17.6719 97.8021C18.1356 96.8746 18.5992 95.9471 19.0628 95.0196H19.5264ZM145.168 133.742C149.572 133.742 153.745 132.815 157.454 130.264C165.336 124.699 173.449 119.366 181.33 113.801C183.649 112.178 185.735 110.091 187.589 108.004C188.053 107.309 188.748 106.613 188.053 105.686C187.589 105.222 187.126 104.99 186.43 104.99C185.503 104.99 185.271 105.686 185.039 106.613C185.039 107.773 184.112 108.7 183.185 109.164C174.376 115.888 165.799 123.076 155.831 128.409C153.513 129.568 151.427 131.191 148.877 131.655C145.168 132.351 141.459 131.655 137.982 131.191C128.709 130.496 119.669 129.568 110.396 128.641C103.906 127.945 97.4149 127.713 90.9242 126.786C88.1425 126.554 85.3607 126.786 82.8108 125.163C82.1154 124.699 80.9562 123.54 80.2608 125.163C79.7972 126.322 80.7245 127.018 81.6518 127.481C83.7381 128.409 86.0561 128.641 88.1424 128.641C98.5739 129.336 109.005 131.191 119.437 131.655C128.014 131.887 136.591 133.046 144.936 133.742H145.168ZM118.046 70.6733C118.046 69.5139 118.046 68.5864 116.887 68.1227C115.728 67.659 115.264 68.5864 114.569 69.282C110.628 73.9194 107.151 79.0206 105.296 85.0493C105.065 85.9767 103.906 87.136 105.296 87.8317C106.224 88.5273 107.383 87.8317 108.078 87.368C113.642 83.1943 116.655 77.6294 118.278 70.9052L118.046 70.6733ZM72.1474 105.454C72.8429 107.773 72.8429 109.396 73.7701 111.019C74.6974 112.178 75.6246 113.105 76.5519 111.019C76.7837 110.323 77.0155 109.164 78.1746 109.628C79.1018 110.091 79.1019 111.019 78.6382 111.714C78.4064 112.642 78.1745 113.569 79.5654 113.801C83.2744 114.497 86.9834 114.497 90.4605 115.424C88.6061 113.569 87.2152 111.482 85.8243 109.396C85.3607 108.7 84.8971 108.236 83.9699 108.236C80.0291 108.004 76.0883 107.077 71.9157 105.454H72.1474ZM34.8259 119.366C34.8259 117.279 33.4351 116.352 31.8124 117.279C29.7261 118.207 27.6398 121.917 28.1034 124.235C28.1034 124.931 28.3352 125.395 29.2625 125.163C31.8124 124.931 34.8259 121.685 34.8259 119.366ZM23.699 98.7296C23.699 97.5702 23.2354 95.7152 21.6127 95.9471C20.2218 95.9471 19.5264 97.8021 19.5264 99.4252C19.5264 100.816 20.2218 101.976 21.6127 101.744C23.0036 101.744 23.699 100.353 23.699 98.7296ZM12.5721 113.801C13.9629 113.569 14.8902 112.642 14.6584 111.251C14.6584 110.555 14.4266 109.164 13.4993 109.396C12.1084 109.859 12.1085 111.482 11.6449 112.874C11.6449 113.569 11.6448 114.033 12.5721 113.801ZM37.8395 97.5702C36.4486 98.7296 35.985 100.121 36.4486 101.976C37.6077 100.585 38.0713 99.1933 37.8395 97.5702Z" fill="#080B0C"/>
<path d="M125.696 65.5722C126.855 65.5722 127.782 65.1084 128.941 65.5722C123.146 76.4701 115.264 85.9767 109.237 96.6427C109.237 96.6427 109.237 97.1065 109.237 97.5702C110.628 97.5702 110.86 96.4109 111.323 95.4834C117.35 85.9767 124.537 77.3975 130.332 67.659C130.795 66.7315 131.723 66.2678 132.418 65.5722C133.114 65.5722 133.577 65.5721 134.273 65.1084C138.213 62.7897 142.154 60.7029 146.327 58.3842C148.645 58.3842 151.195 58.3841 153.513 58.8479C151.89 60.2391 150.036 60.9348 148.413 61.8622C146.79 63.0216 144.936 63.4853 144.241 66.2677C149.572 64.4128 153.976 62.0941 157.917 58.8479C161.626 58.616 165.335 59.0798 169.276 59.3116C181.562 59.5435 177.621 61.1666 184.344 51.66C188.285 46.3269 187.821 46.7906 181.562 46.095L190.371 40.5302C197.557 41.2258 198.252 42.3852 194.543 48.1819C183.417 65.1084 171.826 81.8031 159.54 98.034C155.136 104.063 150.963 110.323 146.79 116.352C142.618 119.366 137.75 119.134 132.882 118.67C120.364 117.511 108.078 115.656 95.792 113.337C97.8783 108.932 101.355 105.686 103.905 101.512C104.369 100.585 105.065 99.657 105.296 98.4977C105.76 94.0922 107.614 90.6141 111.092 87.8316C116.191 83.8899 118.741 78.325 120.828 72.5283C122.682 70.4414 124.305 68.1227 125.696 65.804V65.5722ZM134.736 73.2239C133.577 73.2239 132.65 73.2239 131.955 73.2239C130.796 73.2239 129.173 73.2238 128.941 75.0788C128.941 76.7019 130.1 77.3975 131.259 77.8613C134.041 79.2525 136.823 79.2524 139.604 78.5568C140.763 78.325 141.922 77.8612 142.154 76.2381C142.154 74.8469 140.995 73.9195 139.836 73.6876C137.982 73.2239 136.127 73.2238 134.968 72.992L134.736 73.2239ZM156.99 72.7601C156.99 72.5282 156.99 72.0645 156.99 71.6007C156.295 69.9776 155.136 69.0502 153.513 69.0502C150.963 69.0502 148.645 70.2096 147.254 72.5283C146.327 73.9195 146.095 75.3107 147.254 76.7019C147.254 76.9338 147.718 77.3975 147.949 77.3975C149.804 78.5568 151.89 78.0931 153.745 77.3975C155.599 76.47 157.222 75.0788 157.454 72.992L156.99 72.7601ZM143.313 110.323C145.863 110.323 147.949 108.7 147.949 106.613C147.949 104.758 146.095 102.903 144.241 102.903C141.459 102.903 138.677 104.758 138.677 106.845C138.677 108.932 140.763 110.555 143.545 110.323H143.313ZM140.531 72.992C141.459 72.992 142.154 72.992 143.081 72.992C144.241 72.992 145.631 72.992 145.863 71.3689C145.863 69.9777 144.704 69.2821 143.777 68.8183C140.763 67.8909 137.518 67.4271 134.273 68.1227C133.577 68.1227 132.418 68.3546 132.418 69.5139C132.418 70.4414 133.114 70.9052 133.809 71.3689C135.895 72.7601 138.213 72.7601 140.763 72.992H140.531ZM164.64 80.8755C165.567 80.8755 166.494 80.8756 167.19 80.4118C168.117 80.4118 169.276 79.9481 169.508 78.7887C169.74 77.3975 168.581 76.7019 167.653 76.47C165.335 75.7744 163.017 75.3107 160.699 75.7744C159.54 75.7744 158.381 76.47 158.381 77.8613C158.381 79.2525 159.308 79.7162 160.235 80.4118C161.626 81.1075 163.017 81.1074 164.64 81.3393V80.8755ZM131.491 101.976C128.709 101.976 126.159 103.831 126.159 105.686C126.159 107.541 128.477 109.164 131.027 109.164C133.577 109.164 135.663 107.772 135.663 105.686C135.663 103.599 133.809 101.744 131.259 101.744L131.491 101.976ZM120.132 107.309C122.45 107.309 124.537 105.686 124.537 103.831C124.537 101.744 121.987 99.657 119.668 99.8889C117.582 99.8889 115.96 101.744 115.96 103.599C115.96 105.918 117.814 107.309 120.132 107.309ZM130.332 88.7592C131.955 88.7592 133.577 88.0635 133.809 85.7448C133.809 83.8899 131.491 81.803 129.405 82.2668C127.55 82.4986 125.927 83.658 125.696 85.7448C125.696 87.5998 127.55 88.9911 130.1 88.7592H130.332ZM167.653 74.6151C168.117 74.6151 169.044 74.6151 169.971 74.3832C170.899 74.3832 171.594 73.6876 171.594 72.7601C171.594 71.8326 171.131 71.3689 170.435 70.9052C167.653 69.7458 164.872 69.0502 161.858 70.2096C161.163 70.4414 160.235 70.9052 160.235 72.0645C160.235 72.992 160.931 73.4557 161.626 73.9194C163.249 74.615 164.872 74.847 167.422 74.847L167.653 74.6151ZM152.354 92.2372C154.904 92.2372 156.758 91.0778 156.526 89.2229C156.295 86.9042 154.672 85.9767 152.586 85.9767C150.499 85.9767 148.645 86.2086 148.413 88.7592C148.413 90.6141 150.036 92.2372 152.586 92.2372H152.354ZM147.949 100.584C149.572 100.584 151.427 99.8889 151.658 97.5702C151.658 95.7153 149.804 94.0922 147.718 94.3241C145.631 94.3241 143.545 95.0196 143.313 97.5702C143.081 99.4252 145.168 100.816 148.181 100.816L147.949 100.584ZM140.995 90.6141C142.618 90.6141 144.24 90.1504 144.472 88.0635C144.472 86.4404 142.618 84.3536 140.531 84.5855C138.677 84.5855 137.054 85.2811 136.591 87.3679C136.359 89.2229 138.213 90.6141 140.763 90.846L140.995 90.6141ZM124.073 97.8021C126.623 97.8021 128.246 96.179 128.014 94.3241C128.014 92.2372 126.623 91.0779 124.537 91.0779C122.45 91.0779 120.364 93.1647 120.596 94.7877C120.596 97.1064 122.45 97.8021 124.073 97.8021ZM135.663 99.4251C137.75 99.4251 139.372 98.4977 139.141 96.179C139.141 94.324 137.982 92.9328 135.895 93.1647C134.041 93.1647 132.186 94.0922 131.955 96.4109C131.955 98.7296 133.577 99.1933 135.432 99.4251H135.663Z" fill="#0BB7E9"/>
<path d="M142.386 31.2541C137.518 35.4278 132.419 39.3695 127.551 43.7751C109.006 60.9335 95.3289 81.1062 85.5928 104.293C85.361 104.989 85.361 105.916 83.9701 105.684C80.7248 104.989 77.2476 104.757 74.0023 103.366C73.3069 103.134 72.1477 102.902 72.6113 101.511C74.6976 101.743 75.1613 99.8877 75.8568 98.7283C80.0293 90.381 84.8974 82.2656 90.2291 74.382C100.661 58.8467 112.483 44.9345 127.087 33.1091C130.332 30.3267 133.809 28.7035 137.982 30.3266C139.373 30.7904 140.764 30.7903 142.386 31.0222V31.2541Z" fill="#0CB9EC"/>
<path d="M183.417 82.7304C183.417 84.8173 181.794 86.2085 180.635 87.5997C171.131 100.121 161.626 112.874 152.586 125.858C151.659 127.018 150.963 128.873 149.572 128.873C148.181 128.873 147.718 126.786 147.254 125.395C146.559 124.003 146.095 122.612 146.327 121.221C147.486 120.989 148.181 120.293 148.877 119.366C155.368 108.7 163.481 99.1932 170.899 89.2228C174.144 84.5854 177.621 80.1798 181.099 75.3105C182.258 77.8611 182.953 80.1798 183.417 82.7304Z" fill="#194174"/>
<path d="M135.664 61.6291C135.664 61.3973 135.664 60.9335 135.896 60.7017C136.127 60.2379 136.823 59.5423 136.128 59.0786C135.432 58.3829 134.737 59.0786 134.273 59.7742C133.809 60.238 133.346 60.7016 132.882 61.1654C131.723 63.0203 129.869 63.716 127.782 63.2523C127.782 62.0929 128.478 61.3973 129.173 60.7017C130.332 58.8467 131.955 57.2236 132.882 55.1368C136.127 56.528 138.446 55.1368 140.3 52.8181C144.009 49.1082 147.95 45.862 150.963 41.6883C152.122 40.0652 153.977 40.0652 155.831 39.8334C161.859 38.9059 167.654 38.674 173.681 38.9059C170.204 41.2246 166.727 43.5433 163.249 45.862C160.004 46.0939 156.759 46.5576 153.513 46.7895C152.586 46.7895 151.427 46.7894 151.659 48.4125C150.963 49.1081 150.5 49.8038 149.804 50.2675C147.254 52.3544 145.168 54.4412 144.009 57.4555C141.227 58.6149 138.446 60.7017 135.432 61.3973L135.664 61.6291Z" fill="#0BB5E7"/>
<path d="M142.386 31.2555C140.996 31.2555 139.373 31.2556 137.982 30.5599C133.578 28.705 130.332 30.5599 127.087 33.3423C112.483 45.1677 100.661 59.3118 90.229 74.6153C84.8974 82.4989 80.2611 90.3824 75.8567 98.9616C75.1613 100.353 74.9294 101.976 72.6113 101.744C76.5521 92.2374 81.8838 83.4263 87.4473 74.6153C97.647 58.6162 109.933 44.4722 124.305 31.9512C131.028 26.1544 138.214 27.5456 146.327 28.2412C144.473 29.6325 143.314 30.328 142.155 31.2555H142.386Z" fill="#E8F0F2"/>
<path d="M82.8105 117.048C84.8968 116.816 86.9832 117.279 89.0695 117.743C90.4603 117.975 91.6193 118.207 92.7784 117.279C93.242 116.816 93.4738 116.816 93.9374 117.279C96.7192 119.598 100.428 118.903 103.442 119.134C116.191 120.062 128.709 122.381 141.459 123.308C140.995 124.699 142.154 125.627 142.386 127.018C142.386 127.018 142.386 127.018 142.154 127.25C139.604 127.018 137.054 126.786 134.504 126.554C120.827 125.395 107.151 124.931 93.7057 123.308C89.3013 122.844 85.1286 121.685 83.0423 117.279L82.8105 117.048Z" fill="#1C4375"/>
<path d="M145.168 133.742C136.591 133.047 128.245 131.887 119.668 131.655C109.237 131.192 98.8054 129.105 88.3739 128.641C86.2876 128.641 83.9696 128.409 81.8833 127.482C80.956 127.018 80.0288 126.322 80.4925 125.163C81.1879 123.54 82.1151 124.699 83.0423 125.163C85.5922 126.786 88.374 126.554 91.1557 126.786C97.6464 127.482 104.137 127.945 110.628 128.641C119.9 129.568 128.941 130.496 138.213 131.192C141.922 131.423 145.399 132.119 149.108 131.655C151.89 131.192 153.976 129.8 156.063 128.409C165.799 123.076 174.608 115.888 183.416 109.164C184.344 108.468 185.039 107.773 185.271 106.613C185.271 105.918 185.735 105.222 186.662 104.99C187.357 104.99 188.053 104.99 188.285 105.686C188.98 106.613 188.284 107.309 187.821 108.005C185.966 110.323 183.88 112.178 181.562 113.801C173.68 119.366 165.567 124.699 157.685 130.264C153.976 132.815 149.804 133.974 145.399 133.742H145.168Z" fill="#153B6B"/>
<path d="M183.416 82.7313C182.952 80.4126 182.257 77.862 181.098 75.3115C177.621 80.1807 174.144 84.5863 170.898 89.2237C163.712 99.426 155.367 108.701 148.876 119.367C148.181 120.294 147.485 120.99 146.326 121.222C152.585 110.092 160.698 100.122 168.116 89.6875C177.157 76.9346 185.966 64.1817 194.775 51.4289C195.934 49.8058 196.861 47.9508 198.02 46.3277C198.716 44.9365 198.947 45.6321 199.179 46.5596C197.325 50.0376 195.702 53.7476 193.152 56.7619C189.675 61.1674 188.748 65.8048 191.066 70.906C191.066 70.906 191.066 70.906 191.066 71.1378C190.37 72.9928 189.675 74.384 188.052 75.5434C187.589 72.9928 187.125 70.4422 186.661 67.6598C185.502 69.2829 183.416 69.9785 184.111 72.0653C184.807 74.1521 185.734 76.239 186.43 78.0939C185.734 79.717 185.502 81.572 183.416 82.2676V82.7313Z" fill="#EAEBEE"/>
<path d="M142.386 127.018C142.155 125.859 140.996 124.7 141.459 123.308C143.314 122.381 144.705 122.613 144.936 124.931C144.936 125.627 145.4 126.323 145.632 127.018C147.023 130.033 147.023 130.264 143.546 129.801C133.346 128.873 123.146 127.714 112.946 126.786C104.601 125.859 96.2561 125.163 87.9109 124.004C83.5065 123.54 82.1156 122.149 81.1883 117.975C80.7247 116.12 81.652 116.352 82.811 116.816C84.8973 121.222 89.0699 122.381 93.4743 122.845C106.919 124.468 120.596 124.931 134.273 126.091C136.823 126.091 139.373 126.555 141.923 126.786C141.923 126.786 142.155 126.786 142.386 126.786C142.386 126.786 142.386 126.555 142.386 126.323V127.018Z" fill="#EAEBEE"/>
<path d="M95.5596 113.106C107.846 115.425 120.363 117.28 132.649 118.439C137.517 118.903 142.154 119.367 146.558 116.121C145.399 120.758 144.703 121.454 140.067 121.454C134.04 121.454 128.013 119.599 121.986 119.135C114.336 118.439 106.686 117.512 98.8048 116.584C97.8776 116.584 96.9505 116.584 96.0232 116.121C94.1687 115.425 93.9368 114.498 95.3277 113.106H95.5596Z" fill="#E8F0F2"/>
<path d="M118.046 70.6738C116.656 77.3981 113.41 82.963 107.847 87.1366C106.919 87.8322 105.76 88.296 105.065 87.6004C103.906 86.9048 105.065 85.7454 105.065 84.8179C106.919 78.7893 110.397 73.6882 114.337 69.0508C115.033 68.3552 115.496 67.4277 116.655 67.8914C117.815 68.3552 117.583 69.5145 117.815 70.4419L118.046 70.6738Z" fill="#163E70"/>
<path d="M191.299 71.1378C191.299 71.1378 191.299 71.1378 191.299 70.9059C188.981 65.8048 189.908 61.1674 193.385 56.7618C195.703 53.7475 197.326 50.0376 199.412 46.5596C202.194 52.1245 200.108 56.7619 197.558 61.6311C195.703 64.8773 194.081 68.1235 191.763 71.1378H191.299Z" fill="#1C4375"/>
<path d="M72.1465 105.454C76.5509 107.077 80.2599 108.005 84.2007 108.237C85.1279 108.237 85.5915 108.7 86.0551 109.396C87.446 111.483 88.8369 113.338 90.6914 115.425C86.9824 114.497 83.2735 114.497 79.7964 113.802C78.4055 113.57 78.6372 112.642 78.8691 111.715C79.1009 110.787 79.3326 110.092 78.4054 109.628C77.2464 109.164 77.0145 110.092 76.7827 111.019C75.8555 113.106 74.9283 112.41 74.0011 111.019C72.842 109.628 73.0738 107.773 72.3784 105.454H72.1465Z" fill="#163E70"/>
<path d="M132.882 55.138C132.187 57.2248 130.564 58.8479 129.173 60.7028C128.71 61.6303 127.782 62.0941 127.782 63.2534C125.464 63.2534 123.146 63.0215 120.828 62.7896C122.683 58.8478 129.173 54.6742 132.651 55.138H132.882Z" fill="#163E70"/>
<path d="M179.476 39.1377C181.563 39.1377 183.417 39.1377 185.503 39.8333C182.258 41.9202 178.781 44.2389 175.536 46.3257C173.449 46.3257 171.131 46.3257 169.045 46.3257C172.522 44.007 175.999 41.6883 179.476 39.3696V39.1377Z" fill="#0BB5E7"/>
<path d="M179.477 39.1392C176 41.4579 172.522 43.7766 169.045 46.0953C167.191 46.0953 165.336 46.0953 163.25 46.0953C166.727 43.7766 170.204 41.4579 173.681 39.1392C175.536 38.9073 177.622 39.1392 179.477 39.1392Z" fill="#E8F0F2"/>
<path d="M175.535 46.0949C178.781 44.008 182.258 41.6894 185.503 39.6025C187.126 39.6025 188.748 39.6025 190.371 40.53C187.357 42.385 184.576 44.2399 181.562 46.0949C179.476 46.0949 177.621 46.0949 175.535 46.0949Z" fill="#E8F0F2"/>
<path d="M186.43 78.5573C185.735 76.4705 184.808 74.6156 184.112 72.5288C183.417 70.4419 185.503 69.5144 186.662 68.1232C187.126 70.6737 187.589 73.2244 188.053 76.0068C187.821 77.1662 187.358 78.0936 186.199 78.7892L186.43 78.5573Z" fill="#1C4375"/>
<path d="M135.663 61.6303C138.677 60.9347 141.227 58.8478 144.24 57.6885C144.936 57.6885 145.631 58.1523 146.327 58.3841C142.386 60.7028 138.445 62.7896 134.273 65.1083C133.577 65.3402 133.113 65.5721 132.418 65.5721C132.65 64.1809 134.041 63.4852 134.968 62.3259C135.432 62.3259 135.663 62.3259 135.895 61.6303H135.663Z" fill="#E8F0F2"/>
<path d="M125.695 65.5719C124.073 67.8906 122.682 70.2093 120.827 72.2961C120.827 69.7455 120.827 67.195 117.582 65.34C120.827 65.1081 123.377 64.8763 125.927 65.34L125.695 65.5719Z" fill="#163E70"/>
<path d="M135.665 61.6309C135.665 62.095 135.201 62.3271 134.736 62.3271C134.736 61.8629 134.969 61.6309 135.665 61.6309Z" fill="#0BB5E7"/>
<path d="M146.095 58.3845C145.4 58.3845 144.704 57.9207 144.009 57.6888C145.168 54.6745 147.486 52.5878 149.804 50.5009C149.804 52.8196 147.718 53.7471 146.559 55.3701C145.632 56.5295 145.863 56.7614 147.254 56.5295C156.99 56.9932 166.494 57.2251 176.231 57.6888C176.926 57.6888 177.621 57.9208 178.085 57.2251C179.708 54.4427 182.258 52.3559 183.185 49.1097C184.112 47.9503 183.185 47.9503 182.489 47.9503C172.058 47.9503 161.858 46.7909 151.427 48.414C151.195 46.7909 152.354 46.791 153.281 46.791C156.527 46.5591 159.772 46.0954 163.017 45.8635C164.872 45.8635 166.726 45.8635 168.813 45.8635C170.899 45.8635 173.217 45.8635 175.303 45.8635C177.39 45.8635 179.244 45.8635 181.33 45.8635C187.358 46.5591 187.821 45.8635 183.88 51.4284C176.926 60.9351 180.867 59.5438 168.813 59.0801C165.104 59.0801 161.395 58.3845 157.454 58.6164C156.063 58.3845 154.672 58.3845 153.049 58.6164C150.731 57.9208 148.181 58.3845 145.863 58.1526L146.095 58.3845Z" fill="#081115"/>
<path d="M134.736 73.2236C136.127 73.2236 137.981 73.4555 139.604 73.9192C140.995 74.1511 142.154 75.0786 141.922 76.4698C141.922 77.861 140.763 78.3248 139.372 78.7885C136.59 79.4841 133.577 79.2523 131.027 78.0929C129.868 77.6292 128.709 76.7017 128.709 75.3105C128.709 73.6874 130.563 73.6874 131.722 73.4555C132.418 73.4555 133.113 73.4555 134.504 73.4555L134.736 73.2236ZM131.259 75.3105C133.577 77.6292 136.359 77.861 139.604 76.4698C137.054 74.6148 134.272 74.8467 131.259 75.3105Z" fill="#081115"/>
<path d="M156.991 72.7601C156.759 75.0788 155.136 76.2382 153.282 77.1657C151.427 78.0932 149.341 78.5569 147.487 77.1657C147.255 77.1657 147.023 76.7019 146.791 76.47C145.864 75.0788 146.096 73.6876 146.791 72.2964C148.182 69.9777 150.5 68.8184 153.05 68.8184C154.673 68.8184 156.064 69.7459 156.527 71.3689C156.527 71.6008 156.527 72.0646 156.527 72.5283L156.991 72.7601ZM150.268 76.0063C152.123 76.0063 155.136 73.9195 154.905 72.5283C154.905 71.1371 153.746 70.4414 152.355 70.4414C150.732 70.4414 148.182 72.5283 148.182 74.3832C148.182 75.7744 148.878 76.0063 150.268 76.0063Z" fill="#081115"/>
<path d="M143.314 110.323C140.764 110.323 138.446 108.7 138.446 106.845C138.446 104.758 141.228 102.903 144.01 102.903C145.864 102.903 147.719 104.758 147.719 106.613C147.719 108.7 145.632 110.323 143.083 110.323H143.314ZM143.083 108.468C144.242 108.468 145.632 108.468 145.632 106.613C145.632 105.222 144.705 104.758 143.314 104.758C141.923 104.758 140.533 104.758 140.533 106.613C140.533 108.236 141.923 108.236 143.083 108.468Z" fill="#081115"/>
<path d="M140.532 72.9924C138.214 72.9924 135.664 72.9924 133.577 71.3693C132.882 70.9056 132.187 70.4418 132.187 69.5143C132.187 68.355 133.346 68.355 134.041 68.1231C137.286 67.4275 140.532 68.1231 143.545 68.8187C144.704 69.0506 145.863 69.9781 145.632 71.3693C145.4 72.7605 144.009 72.7605 142.85 72.9924C141.923 72.9924 141.227 72.9924 140.3 72.9924H140.532ZM134.041 69.5143C137.286 71.3693 140.068 71.3693 143.082 70.6737C140.532 69.0506 137.75 68.5868 134.041 69.5143Z" fill="#081115"/>
<path d="M164.641 80.8756C163.019 80.8756 161.628 80.6437 160.237 79.9481C159.078 79.4843 158.151 78.7887 158.382 77.3975C158.382 76.0063 159.541 75.5426 160.701 75.3107C163.019 74.8469 165.569 75.3107 167.655 76.0063C168.582 76.2382 169.741 77.1657 169.509 78.325C169.509 79.4844 168.118 79.7162 167.191 79.9481C166.264 79.9481 165.337 80.18 164.641 80.4119V80.8756ZM159.773 77.6294C161.86 79.4843 164.178 79.0206 166.264 79.0206C166.728 79.0206 166.959 79.0206 166.959 78.325C166.959 78.0932 166.496 77.3975 166.496 77.3975C164.41 77.3975 162.323 76.0063 159.773 77.3975V77.6294Z" fill="#081115"/>
<path d="M131.49 101.975C133.809 101.975 135.895 103.83 135.895 105.916C135.895 107.771 133.809 109.163 131.259 109.394C128.709 109.394 126.391 107.771 126.391 105.916C126.391 103.83 128.709 102.206 131.722 102.206L131.49 101.975ZM130.795 103.366C129.868 103.366 128.245 103.83 128.245 105.453C128.245 107.308 129.868 107.308 131.027 107.308C132.186 107.308 133.577 107.308 133.577 105.453C133.577 104.061 132.881 103.134 130.795 103.134V103.366Z" fill="#081115"/>
<path d="M120.133 107.308C117.583 107.308 115.96 105.917 115.96 103.598C115.96 101.743 117.814 99.8879 119.669 99.8879C121.987 99.8879 124.537 101.975 124.537 103.83C124.537 105.685 122.451 107.076 120.133 107.308ZM122.219 103.83C121.755 102.67 121.292 101.511 119.901 101.511C118.742 101.511 117.583 101.975 117.583 103.366C117.583 104.525 118.278 105.453 119.669 105.453C120.828 105.453 121.755 105.453 122.219 103.83Z" fill="#081115"/>
<path d="M130.331 88.7592C127.549 88.7592 125.695 87.3679 125.927 85.7448C125.927 83.658 127.55 82.4986 129.636 82.2668C131.722 82.0349 134.272 84.1217 134.04 85.7448C133.808 88.0635 132.186 88.5273 130.563 88.7592H130.331ZM129.636 86.6723C130.331 86.6723 131.258 86.6723 131.258 85.7448C131.258 84.8173 130.331 84.1218 129.404 84.1218C128.708 84.1218 128.013 84.8173 127.781 85.5129C127.781 86.6723 128.708 86.6723 129.404 86.6723H129.636Z" fill="#081115"/>
<path d="M167.653 74.616C165.335 74.616 163.48 74.616 161.858 73.6886C161.162 73.2248 160.467 72.761 160.467 71.8336C160.467 70.9061 161.162 70.4424 162.09 69.9786C165.103 68.8193 167.885 69.5149 170.666 70.6742C171.362 70.9061 171.825 71.6017 171.825 72.5292C171.825 73.4567 171.13 73.9204 170.203 74.1523C169.276 74.3841 168.117 74.3841 167.885 74.3841L167.653 74.616ZM161.858 71.6017C164.176 72.9929 166.262 72.9929 168.348 72.761C168.812 72.761 169.507 72.7611 169.507 72.0654C169.507 71.3698 169.044 71.138 168.348 71.138C166.494 71.138 164.408 70.6742 161.858 71.6017Z" fill="#081115"/>
<path d="M153.281 58.8477C154.672 58.6159 156.295 58.6159 157.686 58.8477C153.745 62.0939 149.109 64.4126 144.009 66.2676C144.704 63.4852 146.791 63.0214 148.181 61.8621C149.804 60.7027 151.89 60.239 153.281 58.8477Z" fill="#E8F0F2"/>
<path d="M152.354 92.2378C149.804 92.2378 148.182 90.8466 148.182 88.7598C148.413 86.2092 150.5 85.9773 152.354 85.9773C154.441 85.9773 156.063 87.1366 156.295 89.2235C156.295 91.0784 154.672 92.2378 152.122 92.2378H152.354ZM152.818 90.3828C153.281 90.3828 154.44 90.3828 154.44 89.2235C154.44 88.0641 153.281 87.1367 152.122 87.3685C151.195 87.3685 150.268 87.8322 150.5 88.9916C150.5 90.1509 151.659 90.3828 153.05 90.3828H152.818Z" fill="#081115"/>
<path d="M147.949 100.584C144.935 100.584 142.849 99.1929 143.081 97.338C143.545 94.7874 145.399 94.3237 147.485 94.0918C149.572 94.0918 151.658 95.483 151.426 97.338C151.426 99.8885 149.34 100.352 147.717 100.352L147.949 100.584ZM147.485 98.7292C148.413 98.7292 149.803 98.7292 149.803 97.1061C149.803 95.9467 148.876 95.2512 147.717 95.483C146.558 95.483 145.167 95.9467 145.167 97.338C145.167 98.7292 146.558 98.4973 147.485 98.7292Z" fill="#081115"/>
<path d="M140.996 90.6131C138.446 90.6131 136.591 88.99 136.823 87.135C137.055 85.0482 138.91 84.3525 140.764 84.3525C142.85 84.3525 144.705 86.2075 144.705 87.8306C144.705 90.1493 142.85 90.3812 141.228 90.3812L140.996 90.6131ZM142.387 87.8306C142.155 86.6712 141.459 85.9756 140.532 85.7438C139.605 85.7438 138.678 86.2075 138.678 87.135C138.678 88.2944 139.605 88.7581 140.532 88.7581C141.228 88.7581 142.155 88.7581 142.387 87.8306Z" fill="#081115"/>
<path d="M124.073 97.8023C122.45 97.8023 120.828 97.1067 120.596 94.788C120.596 93.1649 122.682 91.0781 124.537 91.0781C126.623 91.0781 127.782 92.2375 128.014 94.3243C128.014 96.4111 126.623 97.8023 124.073 97.8023ZM124.073 95.9473C125 95.9473 125.927 95.7155 125.927 94.5562C125.927 93.6287 125.464 92.4693 124.537 92.7012C123.377 92.7012 122.45 93.3968 122.45 94.788C122.45 95.9473 123.377 96.1792 124.305 96.1792L124.073 95.9473Z" fill="#080B0C"/>
<path d="M135.664 99.4255C133.809 99.1936 132.187 98.7299 132.187 96.4112C132.187 94.0925 134.273 93.3969 136.127 93.165C138.214 93.165 139.141 94.5562 139.373 96.1793C139.373 98.2662 137.75 99.1936 135.895 99.4255H135.664ZM137.286 95.9474C137.055 95.2518 136.823 94.0925 135.664 94.5563C134.736 94.5563 133.809 95.2519 133.809 96.4112C133.809 97.3387 134.505 97.8024 135.432 97.8024C136.591 97.8024 137.054 97.3387 137.054 96.1793L137.286 95.9474Z" fill="#081115"/>
<path d="M151.659 48.6452C161.859 47.0221 172.29 48.1815 182.721 48.1815C183.417 48.1815 184.344 48.1815 183.417 49.3409C176.231 50.2684 169.045 50.7321 161.858 50.2683C155.6 49.8046 150.963 51.4277 147.486 56.7607C146.095 56.7607 145.863 56.7607 146.791 55.6013C147.95 53.9782 149.804 53.0507 150.036 50.732C150.732 50.0364 151.195 49.3408 151.891 48.8771L151.659 48.6452Z" fill="#EAEBEE"/>
<path d="M142.386 127.019C142.386 127.019 142.386 127.251 142.386 127.483C142.386 127.483 142.154 127.483 141.922 127.483C141.922 127.483 141.922 127.483 142.154 127.251L142.386 127.019Z" fill="#1C4375"/>
<path d="M147.485 56.7606C150.963 51.4276 155.599 49.8045 161.858 50.2683C169.044 50.732 176.23 50.2683 183.416 49.3408C182.489 52.587 179.939 54.6738 178.316 57.4563C177.853 58.1519 177.157 57.92 176.462 57.92C166.726 57.4562 157.221 57.2244 147.485 56.7606Z" fill="#75B52C"/>
<path d="M131.26 75.3104C134.273 75.0785 137.055 74.6148 139.605 76.4697C136.591 77.8609 133.578 77.3972 131.26 75.3104Z" fill="#D95C64"/>
<path d="M150.268 76.0054C149.109 76.0054 148.182 75.7735 148.182 74.3823C148.182 72.7592 150.5 70.4404 152.354 70.4404C153.745 70.4404 154.672 71.368 154.904 72.5273C154.904 73.9185 152.122 75.7735 150.268 76.0054Z" fill="#D95C64"/>
<path d="M143.081 108.469C141.922 108.469 140.531 108.469 140.531 106.614C140.531 104.991 142.154 104.759 143.313 104.759C144.472 104.759 145.631 105.223 145.631 106.614C145.631 108.237 144.24 108.237 143.081 108.469Z" fill="#D95C64"/>
<path d="M134.041 69.514C137.75 68.8184 140.532 69.2821 143.082 70.6733C140.068 71.3689 137.286 71.3689 134.041 69.514Z" fill="#D95C64"/>
<path d="M159.771 77.6296C162.321 76.0065 164.408 77.6296 166.494 77.6296C166.494 77.6296 166.958 78.0933 166.958 78.557C166.958 79.0208 166.494 79.2527 166.262 79.2527C164.176 79.2527 161.858 79.7164 159.771 77.8615V77.6296Z" fill="#D95C64"/>
<path d="M130.796 103.367C132.882 103.367 133.578 104.063 133.578 105.686C133.578 107.309 132.187 107.541 131.028 107.541C129.869 107.541 128.246 107.541 128.246 105.686C128.246 103.831 129.869 103.831 130.796 103.599V103.367Z" fill="#D95C64"/>
<path d="M122.218 103.831C121.755 105.223 120.827 105.454 119.668 105.454C118.277 105.454 117.582 104.759 117.582 103.368C117.582 101.976 118.741 101.513 119.9 101.513C121.291 101.513 121.755 102.672 122.218 103.831Z" fill="#D95C64"/>
<path d="M129.637 86.6726C128.942 86.6726 127.783 86.6726 128.015 85.5132C128.015 84.8176 128.71 84.1221 129.637 84.1221C130.564 84.1221 131.492 84.8176 131.492 85.7451C131.492 86.6726 130.564 86.6726 129.869 86.6726H129.637Z" fill="#D95C64"/>
<path d="M161.857 71.6018C164.407 70.6743 166.494 70.9062 168.348 71.1381C168.812 71.1381 169.507 71.6018 169.507 72.0655C169.507 72.7611 168.812 72.7611 168.348 72.7611C166.262 72.7611 164.407 72.7611 161.857 71.6018Z" fill="#D95C64"/>
<path d="M152.817 90.3824C151.426 90.3824 150.498 90.1506 150.267 88.9912C150.267 87.8319 150.962 87.3682 151.889 87.3682C153.048 87.3682 153.976 88.2956 154.207 89.2231C154.207 90.3824 153.28 90.3824 152.585 90.3824H152.817Z" fill="#D95C64"/>
<path d="M147.486 98.7305C146.559 98.7305 145.168 98.7305 145.168 97.3393C145.168 96.18 146.559 95.7162 147.718 95.4844C148.877 95.4844 149.804 95.9481 149.804 97.1074C149.804 98.4986 148.645 98.4987 147.486 98.7305Z" fill="#D95C64"/>
<path d="M142.386 87.8323C142.154 88.9916 141.227 88.7598 140.531 88.7598C139.604 88.7598 138.677 88.2961 138.677 87.1367C138.677 85.9774 139.604 85.5136 140.531 85.7455C141.69 85.7455 142.154 86.6729 142.386 87.8323Z" fill="#D95C64"/>
<path d="M124.073 95.9458C123.146 95.9458 122.219 95.4821 122.219 94.5547C122.219 93.1634 123.378 92.4678 124.305 92.4678C125.232 92.4678 125.928 93.3953 125.696 94.3228C125.696 95.4821 124.769 95.714 123.841 95.714L124.073 95.9458Z" fill="#D95C64"/>
<path d="M137.286 95.9475C137.286 97.1069 136.591 97.5706 135.664 97.5706C134.736 97.5706 134.041 97.3387 134.041 96.1794C134.041 95.2519 134.968 94.5563 135.895 94.3245C137.055 94.0926 137.286 95.0201 137.518 95.7157L137.286 95.9475Z" fill="#D95C64"/>
<defs>
<filter id="filter0_d_2932_18749" x="22" y="0" width="185" height="185" filterUnits="userSpaceOnUse" color-interpolation-filters="sRGB">
<feFlood flood-opacity="0" result="BackgroundImageFix"/>
<feColorMatrix in="SourceAlpha" type="matrix" values="0 0 0 0 0 0 0 0 0 0 0 0 0 0 0 0 0 0 127 0" result="hardAlpha"/>
<feOffset dx="-5" dy="5"/>
<feComposite in2="hardAlpha" operator="out"/>
<feColorMatrix type="matrix" values="0 0 0 0 0 0 0 0 0 0 0 0 0 0 0 0 0 0 1 0"/>
<feBlend mode="normal" in2="BackgroundImageFix" result="effect1_dropShadow_2932_18749"/>
<feBlend mode="normal" in="SourceGraphic" in2="effect1_dropShadow_2932_18749" result="shape"/>
</filter>
</defs>
</svg>
