<svg width="1920" height="1082" viewBox="0 0 1920 1082" fill="none" xmlns="http://www.w3.org/2000/svg">
<g clip-path="url(#clip0_2370_1465)">
<rect width="1920" height="1082" fill="white"/>
<g clip-path="url(#clip1_2370_1465)">
<path d="M1830.88 1094H144.481C144.481 1092.24 144.641 1090.48 145.121 1088.72C146.881 1080.89 149.601 1073.37 148.641 1064.9C147.201 1052.11 148.961 1039.16 150.561 1026.37C151.521 1019.01 152.481 1011.5 153.441 1004.14C153.921 1000.14 155.041 996.145 154.241 991.988C153.441 988.31 153.601 984.473 152.961 980.635C152.161 975.199 151.841 969.762 151.201 964.326C150.561 959.369 149.761 954.573 149.121 949.616C148.321 943.38 147.521 937.304 146.561 931.068C145.441 923.393 144.161 915.718 143.041 908.043C141.921 900.368 140.961 892.693 139.681 885.018C137.761 873.026 135.681 861.034 133.761 848.882C132.961 844.085 132.001 839.608 128.161 836.25C128.001 836.09 127.841 835.931 127.681 835.771C126.721 834.811 126.721 833.852 127.681 832.733C128.961 830.974 130.241 829.375 131.681 827.616C136.321 821.54 140.641 815.144 145.761 809.548C156.001 798.035 167.521 787.962 181.761 781.566C184.161 780.447 186.561 779.328 188.801 777.729C194.561 773.891 198.721 768.615 202.721 763.019C204.641 760.3 206.081 757.422 206.881 754.064C210.721 739.034 213.761 723.844 215.521 708.335C218.241 708.654 218.561 708.494 218.721 705.936C219.041 700.82 219.361 695.543 219.521 690.426C219.681 686.109 220.481 682.112 223.201 678.754C225.601 678.754 228.001 678.754 230.561 678.754C327.041 678.754 423.521 678.754 519.841 678.754C520.801 678.754 521.601 678.754 522.561 678.754C523.201 678.754 523.841 678.754 524.321 678.274C524.801 677.795 525.121 677.315 524.961 676.675C524.961 676.036 524.321 675.876 523.841 675.876C522.721 675.876 521.601 675.876 520.321 675.876C471.841 675.876 423.361 675.876 374.881 675.876C324.641 676.036 274.401 675.236 224.161 676.516C224.481 673.797 223.681 671.559 221.601 670.12C219.361 668.361 219.041 666.282 219.041 663.724C219.041 659.407 219.041 655.09 218.881 650.772C218.561 634.303 218.881 617.834 219.201 601.365C219.201 597.687 219.681 594.01 221.921 590.812C222.561 589.853 223.201 589.213 224.321 589.373C227.521 590.332 230.881 590.012 234.241 590.172C278.721 590.652 323.201 589.533 367.681 590.812C380.801 591.132 394.081 590.812 407.201 590.812C408.481 590.812 409.761 591.132 410.881 590.332C411.521 589.853 412.321 589.533 411.841 588.573C411.521 587.774 410.721 588.094 410.241 587.934C409.441 587.934 408.641 587.934 408.001 587.934C348.961 587.934 290.081 587.934 231.041 587.934C228.801 587.934 226.401 587.934 224.161 587.934C224.001 587.934 223.681 587.934 223.521 587.934C223.521 587.934 223.201 587.934 223.041 587.934C222.401 585.855 221.281 584.256 219.521 582.977C217.601 581.698 217.121 579.939 217.281 577.701C217.281 570.345 217.761 562.99 217.921 555.475C218.401 539.486 218.241 523.336 218.401 507.347C218.401 501.271 217.921 495.035 221.761 489.758C226.881 489.758 232.001 489.439 236.961 489.279C254.241 488.639 271.681 489.599 289.121 488.479C298.881 487.84 308.801 488.479 318.721 488.479C320.801 488.479 322.561 488 323.681 486.081C322.241 485.281 320.961 485.601 319.681 485.601C311.521 485.601 303.361 485.601 295.201 486.081C278.401 486.88 261.441 485.761 244.641 486.88C239.041 487.2 233.441 486.88 227.841 486.88C225.761 486.88 223.841 487.04 221.761 487.68C219.201 485.281 217.441 482.723 217.441 478.726C218.241 452.983 218.081 427.399 217.441 401.656C217.441 395.101 217.441 388.545 217.441 382.149C217.441 377.033 217.761 371.916 220.481 367.279C221.441 365.52 221.121 364.081 219.841 362.802C219.201 362.002 218.401 361.363 217.761 360.563C215.041 358.005 214.081 355.127 213.921 351.29C213.601 340.257 213.601 329.384 213.601 318.351C213.601 306.199 214.561 294.047 215.841 282.055C216.321 276.779 217.121 271.662 220.801 267.505C223.681 264.147 223.521 263.188 220.161 260.15C216.801 257.112 215.041 253.434 214.881 249.117C214.721 245.279 214.401 241.442 214.401 237.604C214.401 229.61 214.401 221.775 214.401 213.78C213.921 194.912 214.721 176.045 215.361 157.017C215.681 149.023 216.801 141.188 222.241 134.792C230.721 134.792 239.041 135.272 247.521 135.272C310.081 135.112 372.641 135.911 435.201 134.792C465.121 134.312 495.041 134.792 524.961 134.792C526.081 134.792 527.201 134.792 528.481 134.792C529.761 134.632 531.201 134.312 531.841 132.554C530.081 132.554 528.801 132.554 527.361 132.554C447.201 132.554 367.201 132.554 287.041 132.554C266.881 132.554 246.561 132.554 226.401 132.554C224.961 132.554 223.361 131.914 222.081 133.353C217.441 132.074 216.001 130.475 215.841 125.678C215.201 103.453 212.641 81.3872 213.761 59.1618C213.921 53.8853 215.841 50.2077 219.681 47.1697C220.641 47.1697 221.441 47.1697 222.401 47.1697C255.841 47.6494 289.441 47.3296 322.881 47.8093C403.681 48.7687 484.641 47.4895 565.441 48.6088C611.841 49.2484 658.401 48.6088 704.801 48.7687C709.121 48.7687 713.441 48.1291 717.761 49.4083C718.881 49.7281 720.161 49.4083 720.321 47.8093C720.481 46.3703 719.361 45.7307 718.081 45.7307C716.321 45.7307 714.561 45.7307 712.641 45.7307C656.801 45.251 601.121 46.0505 545.281 45.0911C481.121 44.1317 416.801 45.4109 352.641 44.2916C310.081 43.6521 267.361 44.2916 224.801 44.2916C223.201 44.2916 221.441 43.9718 220.001 44.9312C214.881 43.3323 212.481 40.7739 212.321 34.6979C212.161 23.6652 212.001 12.6325 212.641 1.59973C212.641 1.27994 212.641 0.960153 212.801 0.480469C755.041 0.480469 1297.12 0.480469 1839.36 0.480469C1839.68 4.31794 1839.04 7.99552 1840.16 11.833C1839.36 13.1122 1839.68 14.5512 1839.68 15.9903C1839.68 23.8251 1839.68 31.6599 1839.68 39.3349C1839.68 44.7713 1838.72 49.5682 1833.28 52.1265C1827.52 51.8067 1821.76 51.327 1816.16 51.327C1804.96 51.327 1793.6 51.6468 1782.4 51.8067C1714.88 52.6062 1647.36 51.327 1579.84 52.6062C1556.64 53.0858 1533.28 52.6062 1509.92 52.6062C1469.92 52.926 1429.92 51.9666 1389.92 53.2457C1372.8 53.7254 1355.68 53.2457 1338.56 53.2457C1336.96 53.2457 1335.52 52.6062 1334.08 52.6062C1332.8 52.6062 1331.84 53.2457 1331.84 54.6848C1331.84 56.1238 1332.8 56.2837 1333.92 56.2837C1334.56 56.2837 1335.2 56.2837 1335.84 56.2837C1346.4 55.964 1357.12 55.8041 1367.68 55.8041C1445.12 55.0046 1522.4 55.964 1599.84 55.0046C1656.96 54.365 1713.92 55.0046 1771.04 54.6848C1784.16 54.6848 1797.28 55.1645 1810.56 54.2051C1818.08 53.5655 1825.6 54.2051 1833.12 54.2051C1834.24 55.6442 1835.36 57.0832 1836.48 58.3624C1837.6 59.8014 1838.4 61.4004 1838.4 63.3191C1838.24 70.6743 1839.2 78.0294 1838.88 85.5445C1838.08 100.894 1837.28 116.084 1836.64 131.434C1836.64 135.432 1835.52 138.47 1832 140.228C1828.96 139.269 1825.76 139.429 1822.56 139.429C1724.48 139.429 1626.4 139.429 1528.48 139.429C1526.88 139.429 1525.12 139.589 1523.52 139.429C1517.6 138.31 1511.84 138.949 1505.92 138.789C1502.24 138.789 1498.88 139.589 1496.96 140.868C1501.76 141.827 1506.24 143.107 1511.04 143.266C1523.04 143.746 1535.04 142.467 1547.04 142.467C1608 142.467 1668.96 142.467 1729.76 142.467C1763.84 142.467 1797.92 142.467 1831.84 142.467C1835.36 145.825 1836 150.142 1836.16 154.779C1836.16 156.058 1836.32 157.337 1836.48 158.616C1837.6 176.205 1837.6 193.793 1837.28 211.382C1837.28 220.815 1835.84 230.249 1834.08 239.523C1833.28 243.361 1831.68 246.239 1827.68 247.358C1826.08 247.838 1824.96 249.117 1823.52 250.076C1818.08 250.076 1812.8 250.076 1807.36 250.076C1805.12 250.076 1803.04 250.236 1800.8 250.076C1794.72 249.117 1788.64 249.117 1782.56 248.797C1776 248.477 1769.6 247.518 1763.04 247.838C1762.72 247.838 1762.56 247.838 1762.24 247.838C1756.48 246.558 1750.72 247.358 1744.96 247.198C1743.52 247.198 1742.24 247.198 1741.12 248.797C1742.72 249.596 1744 250.076 1745.6 250.076C1749.92 250.076 1754.24 250.556 1758.56 250.716C1765.76 251.036 1773.12 252.155 1780.32 251.675C1781.12 251.675 1781.92 251.675 1782.56 251.675C1788.8 252.794 1795.2 252.634 1801.6 252.954C1808.96 253.434 1816.48 252.954 1823.84 252.954C1827.52 254.074 1828.8 257.112 1829.6 260.469C1830.88 265.426 1831.36 270.543 1831.52 275.659C1831.84 290.37 1832.16 305.24 1833.44 319.95C1833.92 326.186 1834.4 332.422 1834.4 338.658C1834.4 343.295 1831.52 346.013 1828.96 349.211C1827.52 350.97 1825.76 350.33 1824.16 350.81C1822.24 350.33 1820.32 350.81 1818.4 350.49C1809.6 349.691 1800.8 349.051 1792 349.051C1783.36 349.051 1774.56 349.051 1765.92 349.051C1764.96 349.051 1763.84 349.051 1762.88 349.051C1756.48 347.932 1750.08 348.571 1743.84 348.411C1743.2 348.411 1742.24 348.092 1742.24 349.531C1745.76 350.49 1749.28 351.449 1752.96 351.449C1760.32 351.449 1767.68 351.609 1775.04 351.449C1784.96 351.13 1794.72 352.569 1804.48 352.249C1804.8 352.249 1805.28 352.249 1805.6 352.249C1811.68 353.368 1817.76 352.729 1824 352.729C1825.28 353.208 1826.88 352.089 1828 353.368C1829.6 354.967 1831.52 356.566 1832.32 358.645C1834.56 363.921 1837.12 369.038 1837.44 374.954C1838.24 388.065 1837.12 401.017 1836.32 413.968C1835.84 421.164 1834.56 428.199 1834.24 435.234C1833.76 450.424 1833.28 465.614 1833.92 480.804C1833.92 483.363 1834.24 485.921 1834.08 488.479C1834.08 492.317 1830.88 494.875 1827.2 494.875C1824.48 494.875 1821.92 494.395 1819.2 494.875C1818.4 493.756 1817.12 493.916 1816 493.916C1805.12 493.596 1794.4 493.756 1783.52 493.276C1766.08 492.637 1748.48 493.116 1731.04 492.956C1730.08 492.956 1729.12 492.637 1728.32 493.436C1729.44 495.515 1731.2 495.355 1732.8 495.355C1741.44 495.515 1750.08 495.355 1758.88 495.834C1770.88 496.634 1782.88 495.834 1794.88 496.634C1801.76 497.114 1808.64 496.634 1815.52 496.634C1816.96 496.634 1818.4 496.634 1819.68 496.314C1822.4 496.794 1825.28 496.474 1828.16 496.474C1829.28 496.474 1829.92 496.794 1830.56 497.913C1832.64 501.271 1833.6 504.789 1833.6 508.786C1833.6 519.179 1833.6 529.732 1833.6 540.125C1833.6 548.28 1833.28 556.435 1833.92 564.589C1834.56 571.465 1834.56 578.34 1834.56 585.216C1834.56 587.134 1834.08 588.733 1832.48 589.853C1831.2 590.812 1829.76 591.771 1829.44 593.21C1828.96 595.289 1827.36 595.129 1825.92 595.449C1824.48 594.17 1822.72 594.809 1821.12 594.809C1764.64 594.809 1708 594.489 1651.52 595.449C1649.28 595.449 1647.2 595.449 1644.96 595.449C1644.16 595.449 1643.36 595.449 1642.72 595.449C1642.08 595.449 1641.76 595.929 1641.76 596.408C1641.76 596.888 1642.08 597.368 1642.72 597.368C1644 597.368 1645.28 597.368 1646.56 597.368C1699.84 597.368 1752.96 597.368 1806.24 597.368C1812.96 597.368 1819.52 596.568 1826.08 596.408C1828.16 596.088 1829.28 596.888 1830.24 598.807C1832 602.164 1832.32 605.682 1832.32 609.2C1832.64 625.989 1832.96 642.618 1832.48 659.407C1832.48 662.605 1832 665.803 1832.48 669C1832.48 670.28 1832.48 671.559 1832.32 672.838C1832.32 673.797 1832.32 675.076 1831.36 675.556C1828.48 677.635 1827.2 680.673 1826.24 683.871C1824.96 683.231 1823.52 683.391 1822.08 683.391C1770.4 683.391 1718.72 683.391 1667.2 683.391C1666.08 683.391 1664 682.592 1664 684.35C1664 686.589 1666.08 685.629 1667.36 685.629C1698.4 686.109 1729.44 685.15 1760.48 686.269C1776 686.749 1791.68 686.269 1807.2 686.269C1813.76 686.269 1820.16 685.47 1826.72 685.31C1827.2 685.31 1827.52 685.31 1828 685.47C1830.08 688.348 1831.36 691.386 1831.68 694.903C1832 698.261 1832.32 701.459 1832.32 704.817C1832.32 722.885 1832.32 741.113 1832.48 759.181C1832.48 768.455 1832 777.729 1831.2 787.003C1830.88 791.48 1828.16 793.718 1824.32 795.157C1819.84 794.358 1815.52 796.117 1811.04 795.797C1806.72 795.477 1802.4 796.756 1798.08 796.596C1791.04 796.596 1787.84 797.236 1785.6 798.995C1785.92 799.475 1786.4 799.475 1786.88 799.475C1795.84 799.954 1804.8 799.155 1813.6 798.515C1817.12 798.195 1821.12 798.835 1824.48 796.916C1824.8 796.916 1825.12 796.916 1825.28 796.916C1827.84 799.475 1829.92 802.353 1830.08 806.19C1830.4 809.868 1830.88 813.545 1830.88 817.223C1830.72 840.248 1830.4 863.113 1830.08 886.138C1830.08 889.176 1829.6 892.213 1827.68 894.772C1826.72 896.051 1825.92 897.65 1825.76 899.249C1825.76 900.208 1824.96 900.528 1824.16 900.528C1814.88 900.208 1805.44 900.688 1796.16 901.328C1792 901.647 1787.84 900.688 1783.52 900.528C1768.16 900.208 1752.8 901.327 1737.6 901.168C1728.96 901.168 1720.48 901.967 1712 902.127C1708.16 902.127 1704.32 902.447 1700.64 902.767C1694.24 903.406 1688 904.046 1681.6 904.206C1680.64 904.206 1679.52 903.886 1678.88 905.165C1679.04 905.165 1679.36 905.485 1679.52 905.485C1686.24 904.046 1692.96 904.685 1699.68 904.365C1718.24 903.406 1736.96 904.685 1755.68 903.566C1765.44 902.926 1775.2 903.246 1784.8 903.566C1791.52 903.566 1798.24 904.365 1804.96 903.566C1811.36 902.926 1817.76 903.566 1824 902.607C1827.52 904.845 1828.96 908.363 1829.12 912.2C1829.6 926.911 1831.52 941.621 1831.68 956.491C1832 973.76 1832.16 990.869 1831.68 1008.14C1831.52 1013.57 1828.64 1017.09 1824.8 1020.13C1823.04 1018.53 1820.8 1019.17 1819.04 1019.49C1812.64 1020.29 1806.4 1020.61 1800 1020.77C1792.8 1020.93 1785.76 1022.05 1778.56 1021.73C1778.24 1021.73 1778.08 1021.73 1777.76 1021.73C1771.04 1023.01 1764.16 1023.33 1757.28 1023.81C1748.48 1024.45 1739.68 1025.25 1730.88 1025.41C1718.56 1025.57 1706.08 1026.69 1693.76 1026.37C1688.16 1026.37 1682.56 1026.53 1676.96 1026.84C1666.72 1027.32 1656.32 1027.64 1646.08 1028.6C1641.12 1029.08 1636.16 1028.92 1630.88 1030.52C1634.72 1031.16 1638.08 1030.2 1641.44 1030.04C1652.96 1029.72 1664.48 1030.04 1675.84 1029.4C1689.28 1028.6 1702.72 1029.72 1716 1028.6C1723.84 1027.96 1731.84 1028.28 1739.68 1027.8C1746.24 1027.48 1752.96 1026.84 1759.52 1026.68C1762.72 1026.68 1765.92 1026.37 1768.96 1026.05C1774.24 1025.41 1779.52 1024.61 1784.96 1024.61C1791.84 1024.61 1798.72 1023.49 1805.6 1023.81C1806.08 1023.81 1806.56 1023.81 1807.04 1023.65C1812.96 1023.17 1818.88 1022.37 1824.96 1022.53C1828.32 1027.8 1828.8 1033.72 1828.96 1039.8C1829.12 1046.67 1829.44 1053.55 1829.6 1060.42C1829.92 1070.18 1830.24 1079.77 1830.4 1089.52C1830.4 1090.8 1830.88 1092.08 1829.76 1093.2L1830.88 1094ZM639.521 484.962C637.761 484.962 636.641 484.962 635.361 484.962C578.561 485.441 521.761 484.322 464.961 485.601C440.801 486.081 416.641 485.601 392.481 485.601C391.521 485.601 390.401 485.601 389.441 485.601C388.161 485.601 386.881 486.081 386.241 487.52C391.841 488.959 397.281 488.639 402.881 488.639C423.521 488.319 444.001 488.639 464.641 488.159C501.281 487.52 537.761 487.84 574.401 487.84C594.241 487.84 614.081 486.72 633.761 487.2C635.681 487.2 637.441 486.72 639.521 484.962ZM746.241 358.325C759.841 358.165 773.601 358.485 787.201 357.525C787.521 357.525 788.001 357.525 788.321 357.525C789.121 357.525 789.921 357.525 790.081 356.406C790.081 355.287 789.281 354.807 788.481 354.647C787.681 354.647 786.881 354.647 786.241 354.647C782.401 354.487 778.561 355.127 774.721 355.287C761.281 355.767 747.841 355.287 734.561 355.927C717.281 356.886 700.161 355.927 682.881 356.726C665.281 357.685 647.681 356.726 630.081 357.525C613.441 358.325 596.801 357.525 580.321 358.485C576.801 358.645 573.441 358.485 569.921 358.485C569.121 358.485 568.321 358.485 567.681 358.485C567.041 358.485 566.401 358.805 566.561 359.604C566.561 360.244 567.041 360.404 567.681 360.563C568.641 360.563 569.761 360.563 570.721 360.563C590.081 360.563 609.601 360.563 628.961 359.924C641.921 359.444 655.041 359.924 668.001 359.284C685.761 358.325 703.521 359.444 721.281 358.485C729.761 358.005 738.081 358.485 746.561 358.485L746.241 358.325ZM614.401 588.573C596.161 588.573 577.761 588.573 559.521 588.573C558.241 588.573 556.481 588.413 556.481 590.012C556.481 591.451 558.401 590.812 559.361 590.812C586.241 591.292 613.281 590.652 640.321 591.451C666.561 592.251 692.801 591.611 719.041 591.771C721.281 591.771 723.681 591.611 725.921 592.251C726.561 592.411 727.521 592.251 728.161 592.251C728.961 592.091 729.441 591.451 729.441 590.652C729.441 589.853 728.961 589.053 728.161 588.893C727.201 588.733 726.081 588.733 725.121 588.733C716.481 588.733 707.841 589.053 699.041 589.373C686.081 589.853 672.961 589.373 660.001 588.893C644.801 588.573 629.601 588.893 614.401 588.893V588.573ZM1356.32 141.348C1358.88 142.307 1361.12 142.627 1363.36 142.627C1371.04 142.627 1378.72 142.307 1386.24 141.987C1396.64 141.508 1406.88 141.668 1417.28 141.987C1434.72 142.307 1452 141.188 1469.28 141.188C1470.72 141.188 1472.96 141.827 1472.96 139.749C1472.96 138.15 1470.56 138.949 1469.44 138.949C1450.24 138.949 1431.04 138.949 1412 138.949C1394.88 138.789 1377.76 140.228 1360.64 139.749C1359.2 139.749 1357.6 139.749 1356.16 141.508L1356.32 141.348ZM1559.84 492.637C1561.92 495.515 1564.32 495.675 1566.72 495.675C1589.28 495.675 1611.68 495.675 1634.24 495.675C1644.16 495.675 1653.92 495.675 1663.84 495.675C1664.64 495.675 1665.76 496.154 1666.08 494.875C1664.32 492.956 1661.92 492.796 1659.36 492.796C1627.52 492.796 1595.68 492.796 1563.84 492.796C1562.72 492.796 1561.6 492.796 1559.68 492.796L1559.84 492.637ZM425.601 590.012C426.881 590.972 428.001 590.652 428.961 590.652C467.041 590.652 505.281 590.652 543.361 590.652C544.641 590.652 547.041 591.292 547.041 589.213C547.041 587.614 544.641 588.413 543.361 588.413C518.721 587.934 494.081 588.893 469.281 587.774C456.641 587.134 444.001 587.774 431.361 587.774C429.281 587.774 427.361 588.413 425.601 590.012ZM583.041 133.513C584.321 134.792 585.281 135.112 586.561 135.112C590.561 135.112 594.721 135.432 598.721 135.751C608.961 136.551 619.041 135.112 629.281 135.112C629.601 135.112 629.761 135.112 630.081 135.112C638.721 133.673 647.361 133.833 656.001 133.033C661.921 132.394 668.001 133.033 673.921 132.234C680.161 131.274 686.401 130.955 693.281 130.315C690.721 129.356 688.641 129.196 686.401 129.036C676.641 128.716 667.041 130.315 657.281 129.835C656.961 129.835 656.801 129.835 656.481 129.835C648.641 130.955 640.801 131.274 632.961 131.914C624.801 132.554 616.481 133.193 608.161 133.033C601.121 132.873 594.081 133.033 587.041 133.033C585.761 133.033 584.481 132.713 583.041 133.673V133.513ZM1575.2 907.883C1577.92 908.683 1580.32 909.162 1582.88 909.162C1609.12 908.683 1635.2 910.122 1661.44 908.363C1662.56 908.363 1664.64 909.002 1664.64 907.404C1664.64 905.325 1662.56 906.124 1661.28 906.124C1648.96 906.124 1636.48 906.124 1624.16 906.124C1609.92 906.124 1595.84 906.124 1581.6 906.124C1579.52 906.124 1577.44 906.124 1575.2 907.883ZM954.241 44.9312C951.521 44.2916 948.961 43.8119 946.241 43.6521C941.761 43.4922 937.121 43.3323 932.641 43.6521C925.601 44.1317 918.401 43.6521 911.201 43.0125C907.041 42.6927 902.881 43.4922 898.561 43.6521C893.441 43.8119 888.321 43.6521 883.201 43.6521C880.961 43.6521 878.561 43.6521 876.321 43.6521C875.521 43.6521 874.241 43.4922 874.081 44.6114C873.921 45.8906 875.041 45.7307 876.001 45.8906C878.241 46.3703 880.481 46.5302 882.881 46.6901C893.281 47.1697 903.681 46.0505 914.081 46.5302C927.041 47.1697 940.161 46.5302 953.121 45.8906C953.441 45.8906 953.921 45.8906 954.081 44.9312H954.241ZM604.801 243.201C593.281 243.201 581.761 243.201 570.241 243.201C569.281 243.201 568.161 243.201 567.201 243.201C566.401 243.201 566.241 243.84 566.241 244.64C566.241 245.279 566.561 245.919 567.361 245.919C568.321 245.919 569.441 245.919 570.401 245.919C593.281 245.919 616.161 245.919 639.041 245.919C640.001 245.919 640.801 245.919 641.761 245.919C642.881 245.919 643.681 245.119 643.521 243.84C643.521 242.881 642.401 242.881 641.761 242.881C640.801 242.881 640.001 242.881 639.041 242.881C627.681 242.881 616.321 242.881 604.961 242.881L604.801 243.201ZM1183.68 42.6927C1180.96 41.4135 1178.24 40.7739 1175.36 40.7739C1158.56 40.2943 1141.92 42.0531 1125.28 41.5734C1121.12 41.5734 1117.12 41.5734 1112.96 41.5734C1111.2 41.5734 1109.76 42.0531 1108 42.3729C1107.52 42.3729 1107.04 42.6927 1107.04 43.3323C1107.04 43.8119 1107.52 44.2916 1108 44.2916C1109.12 44.2916 1110.24 44.6114 1111.36 44.4515C1127.2 44.4515 1143.04 44.7713 1158.88 43.8119C1166.72 43.3323 1174.72 42.5328 1182.56 42.8526C1182.88 42.8526 1183.2 42.6927 1183.68 42.5328V42.6927ZM1695.68 802.033C1702.88 804.431 1710.08 802.672 1717.12 802.193C1724.8 801.713 1732.32 800.594 1740 800.914C1741.92 800.914 1743.68 799.954 1745.6 800.274C1750.4 801.393 1755.2 800.594 1760.16 800.754C1761.12 800.754 1761.92 800.754 1762.72 800.274C1763.2 799.954 1763.68 799.794 1763.52 799.155C1763.52 798.515 1763.04 798.195 1762.56 798.036C1762.08 798.036 1761.6 797.716 1761.12 797.876C1755.04 798.195 1749.12 797.076 1743.2 797.076C1737.44 797.076 1731.84 798.195 1726.08 797.876C1725.76 797.876 1725.28 797.876 1724.96 797.876C1720.16 798.515 1715.36 799.155 1710.56 799.315C1707.04 799.315 1703.52 799.954 1700 800.594C1698.56 800.914 1696.96 800.594 1695.84 801.873L1695.68 802.033ZM599.841 675.876C585.921 675.876 572.001 675.876 558.081 675.876C557.121 675.876 556.001 675.876 555.041 675.876C554.721 675.876 554.241 675.876 554.241 676.516C554.241 677.155 554.401 677.475 554.881 677.795C556.161 678.434 557.601 678.114 559.041 678.114C586.081 678.114 612.961 678.114 640.001 678.114C640.801 678.114 641.601 678.114 642.241 678.114C643.361 678.114 644.961 678.114 644.641 676.516C644.481 675.236 642.881 675.876 642.081 675.716C641.281 675.716 640.481 675.716 639.841 675.716H600.001L599.841 675.876ZM1721.76 495.195C1719.52 492.637 1717.12 491.837 1714.24 491.837C1703.84 491.837 1693.44 491.837 1683.2 491.837C1680.32 491.837 1677.6 492.796 1674.88 492.637C1674.24 492.637 1673.6 493.116 1673.6 493.756C1673.6 494.395 1674.08 495.035 1674.72 495.195C1675.68 495.355 1676.8 495.515 1677.76 495.515C1690.88 495.515 1704.16 495.515 1717.28 495.515C1718.56 495.515 1720 495.675 1721.76 495.035V495.195ZM330.561 487.68C333.601 488.319 336.321 488.639 339.041 488.799C351.361 488.959 363.521 487.68 375.841 488C376.481 488 377.121 488 377.761 487.84C378.081 487.84 378.401 487.36 378.401 487.04C378.561 486.561 378.401 485.921 377.761 485.921C375.841 485.441 374.081 484.962 372.161 484.962C360.321 484.962 348.641 484.962 336.801 484.962C334.241 484.962 332.481 485.761 330.561 487.68ZM1588.8 1031.96C1582.4 1031.96 1576 1031.96 1569.6 1031.96C1568.64 1031.96 1567.52 1031.96 1566.56 1031.96C1565.92 1031.96 1565.44 1032.28 1565.44 1032.76C1565.44 1033.24 1565.92 1033.72 1566.4 1033.88C1568.32 1034.36 1570.24 1035 1572.48 1035C1582.72 1035 1592.96 1035 1603.2 1035C1605.92 1035 1608.8 1034.52 1611.52 1034.2C1612 1034.2 1612.48 1033.88 1612.64 1033.24C1612.64 1032.44 1612.16 1032.12 1611.52 1031.96C1610.56 1031.96 1609.76 1031.96 1608.8 1031.96C1602.08 1031.96 1595.52 1031.96 1588.8 1031.96ZM1556.48 250.236C1555.68 248.957 1554.56 248.637 1553.28 248.637C1549.6 248.637 1545.92 248.317 1542.24 248.637C1534.56 249.437 1526.88 250.076 1519.04 250.076C1518.24 250.076 1517.28 250.076 1516.48 250.396C1515.84 250.396 1515.36 251.036 1515.36 251.835C1515.36 252.634 1515.84 252.954 1516.64 252.954C1517.6 252.954 1518.4 252.954 1519.36 252.954C1527.2 253.434 1534.88 252.155 1542.56 252.155C1546.24 252.155 1549.92 251.195 1553.6 251.355C1554.56 251.355 1555.52 251.036 1556.48 249.916V250.236ZM713.121 243.201C708.001 243.201 702.881 243.201 697.761 243.201C696.801 243.201 696.001 243.201 695.041 243.361C694.241 243.361 693.761 244.16 693.761 244.96C693.761 246.079 694.561 246.079 695.361 246.239C696.321 246.239 697.441 246.239 698.401 246.239C708.481 246.558 718.561 245.599 728.641 246.878C729.281 246.878 729.921 246.878 730.561 246.878C731.521 246.878 731.841 246.239 732.001 245.279C732.161 243.52 731.201 243.041 729.601 243.041C724.161 243.041 718.561 243.041 713.121 243.041V243.201ZM673.121 678.274C674.081 678.274 675.201 678.274 676.161 678.274C681.441 678.274 686.881 678.274 692.161 678.274C693.761 678.274 695.361 677.635 695.201 676.196C695.201 674.757 693.281 675.556 692.321 675.396C691.841 675.396 691.361 675.396 690.721 675.396C679.841 675.236 669.121 676.515 658.241 676.036C657.281 676.036 656.481 676.036 655.521 676.036C654.881 676.036 654.241 676.036 653.761 676.356C653.281 676.516 652.961 676.995 653.121 677.635C653.121 678.114 653.601 678.274 653.921 678.274C654.721 678.274 655.521 678.274 656.161 678.274C661.761 678.274 667.361 678.274 672.961 678.274H673.121ZM1527.68 346.812C1526.88 346.812 1526.08 346.812 1525.44 346.812C1521.6 346.812 1517.76 346.812 1513.92 346.812C1513.28 346.812 1512.48 346.812 1512.48 347.612C1512.48 348.411 1513.12 348.571 1513.76 348.891C1513.92 348.891 1514.24 348.891 1514.56 348.891C1518.72 348.891 1522.88 349.85 1527.04 349.691C1532.96 349.691 1538.72 349.051 1544.64 350.33C1546.08 350.65 1547.36 350.01 1548.8 349.531C1549.28 349.371 1549.76 349.051 1549.76 348.411C1549.76 347.612 1549.12 347.452 1548.48 347.292C1548.16 347.292 1548 347.292 1547.68 347.292C1541.12 346.493 1534.4 346.493 1527.84 346.653L1527.68 346.812ZM1162.24 135.272C1160.8 133.673 1158.88 133.513 1156.96 133.513C1148.32 133.513 1139.68 133.513 1130.88 133.513C1129.76 133.513 1127.52 132.713 1127.52 134.792C1127.52 136.711 1129.44 136.391 1130.88 136.391C1137.76 136.391 1144.64 136.391 1151.52 136.391C1155.04 136.391 1158.56 135.432 1162.08 135.112L1162.24 135.272ZM722.561 678.914C724.481 678.914 726.721 678.914 728.961 678.914C730.241 678.914 731.041 678.114 731.041 676.675C731.041 675.236 729.921 675.076 728.961 675.076C728.321 675.076 727.681 675.076 727.041 675.076C721.121 675.076 715.361 675.076 709.441 675.076C708.161 675.076 706.881 675.076 705.601 675.076C704.481 675.076 703.521 675.396 703.681 676.835C703.681 678.114 704.801 678.114 705.601 678.114C711.201 677.795 716.801 679.074 722.561 678.914ZM922.401 124.719C919.361 124.399 916.481 123.759 913.441 123.759C909.441 123.599 905.281 123.759 901.121 123.759C899.521 123.759 897.761 123.759 896.161 123.28C895.041 122.96 894.081 123.44 894.081 124.719C894.081 125.678 894.881 125.998 895.681 125.998C897.601 125.998 899.361 126.797 901.281 126.797C906.721 126.797 912.001 126.797 917.441 126.797C919.201 126.797 920.961 126.797 922.401 124.879V124.719ZM1737.28 348.092C1734.24 347.612 1731.2 347.292 1728.32 348.092C1727.52 348.252 1726.56 348.731 1726.72 349.851C1726.88 350.81 1727.84 350.81 1728.64 350.65C1731.68 350.17 1734.72 350.01 1737.28 348.092ZM1731.04 250.876C1731.36 250.876 1731.84 250.876 1732.16 250.876C1733.28 250.876 1734.88 251.036 1735.2 249.756C1735.52 247.998 1733.6 248.797 1732.64 248.317C1731.68 247.838 1730.72 247.838 1729.6 247.838C1728.48 247.838 1727.52 248.157 1727.36 249.437C1727.36 251.036 1728.48 250.716 1729.44 250.876C1729.92 250.876 1730.4 250.876 1731.04 250.876Z" fill="white"/>
<path d="M215.36 708.494C213.6 724.003 210.56 739.193 206.72 754.224C205.92 757.581 204.48 760.459 202.56 763.178C198.72 768.774 194.4 774.05 188.64 777.888C186.4 779.327 184 780.606 181.6 781.725C167.36 788.121 155.84 798.195 145.6 809.707C140.48 815.303 136.16 821.699 131.52 827.775C130.24 829.534 128.96 831.293 127.52 832.892C126.56 834.011 126.72 834.97 127.52 835.93C127.68 836.09 127.84 836.25 128 836.409C131.84 839.767 132.8 844.244 133.6 849.041C135.36 861.033 137.6 873.185 139.52 885.177C140.8 892.852 141.76 900.527 142.88 908.202C144 915.877 145.28 923.552 146.4 931.227C147.36 937.463 148.16 943.539 148.96 949.775C149.6 954.732 150.4 959.528 151.04 964.485C151.68 969.922 152 975.358 152.8 980.794C153.44 984.632 153.28 988.469 154.08 992.147C155.04 996.144 153.76 1000.3 153.28 1004.3C152.32 1011.65 151.36 1019.17 150.4 1026.52C148.8 1039.32 147.04 1052.27 148.48 1065.06C149.44 1073.53 146.72 1081.05 144.96 1088.88C144.64 1090.64 144.32 1092.4 144.32 1094.16H0V0.799474C0.32 0.479684 0.48 0.31979 0.8 0C69.6 0 138.56 0 207.36 0C207.68 0.31979 208.16 0.799474 208.48 1.11926C208.48 11.3525 208.32 21.5858 208.48 31.8191C208.48 36.9357 209.76 41.7325 214.4 44.9304C215.84 45.8898 215.36 47.0091 214.4 48.1283C212.16 50.5267 210.88 53.5647 211.04 56.7626C211.2 59.6407 211.04 62.359 210.72 65.2371C210.24 74.511 210.72 83.625 211.2 92.739C211.84 103.292 212 114.005 212.32 124.558C212.32 125.677 212.48 126.797 212.64 127.916C212.64 129.994 213.6 131.593 215.2 132.713C216.64 133.672 216.8 134.471 215.52 135.751C213.92 137.19 213.44 139.268 213.12 141.347C212.16 149.821 210.56 158.296 210.56 166.93C210.56 175.405 210.4 183.879 210.4 192.193C210.4 209.142 210.08 226.251 210.72 243.2C211.04 250.235 211.52 257.271 217.76 262.227C218.88 263.027 218.56 263.826 217.76 264.786C214.4 268.463 213.12 272.94 212.48 277.737C210.72 291.488 209.92 305.239 209.76 318.99C209.76 326.505 209.76 334.02 209.76 341.535C209.76 345.533 209.76 349.37 210.08 353.367C210.4 356.405 211.52 358.964 213.76 361.202C214.4 361.842 215.04 362.481 215.68 363.121C216.64 364.08 216.96 365.2 216.32 366.639C213.92 371.915 213.6 377.512 213.6 383.108C213.6 396.859 213.6 410.45 213.92 424.201C214.4 442.269 214.72 460.497 214.08 478.565C214.08 481.603 214.4 484.481 216.64 486.72C217.92 487.999 218.08 489.278 216.96 490.717C215.2 493.275 214.72 495.994 214.72 499.032C215.04 512.782 214.08 526.374 214.08 539.965C214.08 546.2 213.76 552.436 213.76 558.672C213.76 564.588 214.08 570.664 213.92 576.74C213.92 580.098 214.72 582.656 217.44 584.735C219.52 586.494 219.68 587.293 218.4 589.692C216.16 593.689 215.68 597.846 215.68 602.324C215.52 612.717 215.2 622.95 215.2 633.343C215.2 643.576 215.52 653.81 215.68 664.043C215.68 667.241 216.32 669.959 219.2 672.038C221.6 673.796 221.6 675.555 219.84 677.954C217.6 680.992 216.8 684.35 216.32 688.027C215.52 694.743 215.84 701.618 215.04 708.334L215.36 708.494Z" fill="#D2CCCC"/>
<path d="M1920 0.799476V1094H1835.52C1835.2 1082.81 1834.72 1071.45 1834.4 1060.26C1834.08 1052.43 1833.92 1044.75 1833.6 1036.92C1833.44 1032.92 1833.12 1028.92 1831.2 1025.4C1830.08 1023.33 1830.24 1021.73 1832 1020.29C1835.2 1017.57 1836 1013.89 1836.16 1009.9C1836.32 1003.98 1836.64 998.223 1836.8 992.307C1837.12 977.117 1836.48 961.927 1836.16 946.737C1836.16 945.138 1836.16 943.699 1835.84 942.1C1835.04 933.785 1834.24 925.631 1834.4 917.316C1834.4 912.519 1833.92 907.882 1830.72 903.885C1829.6 902.286 1829.6 900.847 1830.72 899.248C1831.2 898.449 1831.52 897.649 1832 896.85C1833.92 894.451 1834.56 891.573 1834.56 888.535C1834.72 882.139 1835.04 875.744 1835.04 869.348C1835.04 850.64 1836 832.092 1835.04 813.385C1834.88 808.268 1835.04 802.832 1831.36 798.354C1830.56 797.235 1830.88 796.596 1831.84 795.796C1834.24 794.037 1835.2 791.319 1835.52 788.441C1835.84 784.444 1836.48 780.606 1836.64 776.609C1837.6 760.619 1836.8 744.63 1837.12 728.64C1837.28 717.768 1836.48 706.735 1835.36 695.702C1834.88 691.385 1834.4 687.068 1830.56 684.03C1830.4 681.631 1831.36 679.872 1833.12 678.433C1834.88 677.154 1836 675.555 1835.36 673.157C1836.32 672.357 1836 671.238 1836 670.279C1836 658.127 1836.64 645.975 1836.32 633.823C1836.16 625.828 1836.32 617.673 1836.16 609.679C1836.16 605.042 1835.68 600.405 1833.12 596.407C1831.84 594.489 1832.64 593.05 1834.24 591.77C1837.28 589.532 1837.92 586.654 1837.92 582.976C1837.92 563.949 1837.92 544.921 1837.12 525.894C1836.8 519.178 1837.12 512.623 1837.12 505.907C1837.12 502.869 1836.8 499.991 1834.88 497.592C1833.76 496.153 1833.76 494.714 1835.04 493.435C1837.44 491.197 1837.92 488.478 1837.76 485.44C1836.32 458.258 1838.56 431.076 1840.96 404.054C1841.92 393.981 1842.4 383.907 1841.6 373.834C1840.96 365.839 1840.48 357.525 1833.28 352.088C1831.68 350.809 1832.48 349.69 1833.6 348.571C1837.44 345.213 1838.72 340.736 1838.56 335.779C1838.56 332.901 1838.56 329.863 1838.24 326.985C1836.96 310.676 1835.84 294.366 1836 278.057C1836 272.78 1835.52 267.344 1834.56 262.067C1833.76 257.75 1832.48 253.593 1829.12 249.916C1834.88 247.837 1836.96 243.68 1837.92 238.563C1840.32 225.452 1841.76 212.18 1841.28 198.909C1840.8 186.597 1840.48 174.125 1840 161.813C1840 157.656 1839.52 153.659 1839.04 149.661C1838.72 147.103 1838.4 144.545 1836.64 142.466C1835.84 141.667 1835.52 140.547 1836.64 139.748C1839.84 137.509 1839.68 133.992 1839.84 130.794C1840.48 117.842 1840.8 105.051 1841.44 92.0994C1841.76 83.9447 1841.44 75.7901 1841.12 67.6355C1840.96 62.1991 1840.48 57.2423 1836.64 53.0851C1836.64 53.0851 1836.64 52.9252 1836.64 52.2856C1840 50.6866 1841.76 47.6486 1842.88 44.131C1843.68 41.5726 1843.84 38.8544 1843.84 36.1362C1843.84 28.7811 1843.84 21.266 1843.84 13.9108C1843.84 12.9515 1843.68 11.8322 1843.52 10.8728C1843.52 7.51506 1843.52 4.15727 1843.2 0.799476C1843.2 2.72334e-06 1843.04 -0.799471 1844.16 -0.639576H1919.36C1919.84 -0.639576 1920.16 -0.319787 1920.16 0.159897L1920 0.799476Z" fill="#D2CCCC"/>
<path d="M1830.56 684.352C1834.4 687.39 1834.88 691.707 1835.36 696.024C1836.48 706.897 1837.44 717.929 1837.12 728.962C1836.8 744.952 1837.6 760.941 1836.64 776.931C1836.48 780.928 1835.84 784.765 1835.52 788.763C1835.2 791.641 1834.4 794.199 1831.84 796.118C1830.88 796.917 1830.4 797.557 1831.36 798.676C1834.88 803.153 1834.88 808.59 1835.04 813.706C1835.84 832.414 1835.04 850.962 1835.04 869.67C1835.04 876.065 1834.88 882.461 1834.56 888.857C1834.56 891.895 1833.92 894.613 1832 897.171C1831.52 897.811 1831.2 898.77 1830.72 899.57C1829.76 901.169 1829.76 902.608 1830.72 904.207C1833.76 908.204 1834.4 912.841 1834.4 917.638C1834.24 925.953 1835.04 934.267 1835.84 942.422C1835.84 944.021 1836 945.46 1836.16 947.059C1836.48 962.249 1837.12 977.439 1836.8 992.629C1836.8 998.545 1836.48 1004.3 1836.16 1010.22C1836.16 1014.05 1835.2 1017.89 1832 1020.61C1830.24 1022.05 1830.08 1023.65 1831.2 1025.73C1833.12 1029.24 1833.44 1033.24 1833.6 1037.24C1833.92 1045.07 1834.08 1052.75 1834.4 1060.58C1834.72 1071.78 1835.2 1083.13 1835.52 1094.32H1830.88C1832 1093.2 1831.52 1091.92 1831.52 1090.64C1831.2 1080.89 1830.88 1071.3 1830.72 1061.54C1830.56 1054.67 1830.24 1047.79 1830.08 1040.92C1830.08 1034.84 1829.44 1028.92 1826.08 1023.65C1825.92 1022.85 1825.76 1022.05 1825.6 1021.41C1829.44 1018.37 1832.32 1014.85 1832.48 1009.42C1833.12 992.149 1832.96 975.04 1832.48 957.772C1832.16 942.901 1830.24 928.351 1829.92 913.481C1829.92 909.483 1828.32 906.126 1824.8 903.887C1824.8 903.088 1824.8 902.448 1824.8 901.649C1825.6 901.649 1826.24 901.329 1826.4 900.369C1826.4 898.611 1827.36 897.171 1828.32 895.892C1830.24 893.334 1830.72 890.296 1830.72 887.258C1831.04 864.233 1831.2 841.368 1831.52 818.343C1831.52 814.666 1831.04 810.988 1830.72 807.311C1830.4 803.473 1828.32 800.595 1825.92 798.037C1825.92 798.037 1825.44 798.037 1825.12 798.037C1825.12 797.397 1825.12 796.758 1825.12 796.278C1828.96 794.839 1831.52 792.6 1832 788.123C1832.8 778.849 1833.28 769.575 1833.28 760.302C1833.28 742.233 1833.28 724.005 1833.12 705.937C1833.12 702.58 1832.8 699.382 1832.48 696.024C1832.16 692.506 1830.88 689.308 1828.8 686.59C1829.44 686.11 1830.08 685.631 1830.88 684.991L1830.56 684.352Z" fill="#6A6A6A"/>
<path d="M1844 -0.000261483C1842.88 -0.000261483 1843.04 0.639318 1843.04 1.43879C1843.04 4.79658 1843.2 8.15437 1843.36 11.5122C1842.24 11.832 1841.28 11.1924 1840.16 11.1924C1839.04 7.51479 1839.68 3.67732 1839.36 -0.160156H1844V-0.000261483Z" fill="#121111"/>
<path d="M208.64 1.11926C208.32 0.799474 207.84 0.31979 207.52 0C209.28 0 211.04 0 212.96 0C212.96 0.31979 212.96 0.639579 212.8 1.11926C211.52 0.639579 210.08 0.479684 208.8 1.11926H208.64Z" fill="#EBE9E9"/>
<path d="M1920 0.799474C1920 0.31979 1919.84 0 1919.2 0C1919.84 0 1920.16 0 1920 0.799474Z" fill="#121111"/>
<path d="M0.8 0C0.48 0.31979 0.32 0.479684 0 0.799474C0 0 0 0 0.8 0Z" fill="#EBE9E9"/>
<path d="M208.641 1.12106C209.921 0.481484 211.361 0.641378 212.641 1.12106C212.001 12.1538 212.161 23.1865 212.321 34.2193C212.321 40.2953 214.881 43.0135 220.001 44.4525C220.801 45.4119 219.841 45.8916 219.521 46.6911C215.521 49.7291 213.761 53.4067 213.601 58.6832C212.641 80.9086 215.201 102.974 215.681 125.199C215.681 129.996 217.281 131.595 221.921 132.874C221.921 133.354 222.081 133.994 222.241 134.473C216.801 140.869 215.681 148.704 215.361 156.699C214.721 175.566 213.921 194.434 214.401 213.461C214.561 221.456 214.401 229.291 214.401 237.286C214.401 241.123 214.721 244.961 214.881 248.798C215.201 253.275 216.961 256.793 220.161 259.831C223.521 262.869 223.681 263.828 220.801 267.186C217.121 271.503 216.321 276.62 215.841 281.736C214.721 293.888 213.761 305.88 213.601 318.032C213.601 329.065 213.601 339.938 213.921 350.971C213.921 354.648 215.041 357.686 217.761 360.245C218.561 360.884 219.201 361.684 219.841 362.483C221.121 363.762 221.601 365.361 220.481 366.96C217.761 371.597 217.601 376.714 217.441 381.831C217.441 388.386 217.281 394.942 217.441 401.338C217.921 427.081 218.081 452.664 217.441 478.407C217.441 482.404 219.201 484.963 221.761 487.361C221.761 488.001 221.761 488.8 221.761 489.44C217.761 494.716 218.401 500.952 218.401 507.028C218.401 523.018 218.401 539.167 217.921 555.156C217.761 562.512 217.281 569.867 217.281 577.382C217.281 579.62 217.761 581.379 219.521 582.658C221.281 583.937 222.401 585.536 223.041 587.615C223.041 588.095 223.201 587.935 223.521 587.615C223.681 587.615 224.001 587.615 224.161 587.615C224.161 588.095 224.161 588.574 224.161 589.054C223.041 589.054 222.401 589.694 221.761 590.493C219.521 593.691 219.041 597.369 219.041 601.046C218.721 617.515 218.561 633.984 218.721 650.454C218.721 654.771 219.041 659.088 218.881 663.405C218.881 665.963 219.201 668.042 221.441 669.801C223.521 671.4 224.481 673.638 224.001 676.197C223.361 676.836 223.041 677.476 223.041 678.435C220.321 681.953 219.521 685.95 219.361 690.108C219.041 695.224 218.881 700.501 218.561 705.617C218.401 708.176 218.081 708.336 215.361 708.016C216.161 701.3 215.681 694.425 216.641 687.709C217.121 684.032 217.921 680.674 220.161 677.636C221.921 675.077 221.921 673.479 219.521 671.72C216.801 669.641 216.001 666.923 216.001 663.725C216.001 653.492 215.521 643.258 215.521 633.025C215.521 622.632 215.841 612.399 216.001 602.006C216.001 597.688 216.481 593.371 218.721 589.374C220.161 586.975 220.001 586.176 217.761 584.417C215.201 582.179 214.241 579.62 214.241 576.422C214.241 570.346 214.081 564.43 214.081 558.354C214.081 552.118 214.401 545.883 214.401 539.647C214.401 526.056 215.361 512.305 215.041 498.714C215.041 495.676 215.521 492.797 217.281 490.399C218.401 488.96 218.241 487.681 216.961 486.402C214.721 484.163 214.241 481.445 214.401 478.247C215.041 460.179 214.721 441.951 214.241 423.883C213.921 410.132 213.921 396.541 213.921 382.79C213.921 377.194 214.081 371.597 216.641 366.321C217.281 364.882 216.961 363.922 216.001 362.803C215.361 362.163 214.721 361.524 214.081 360.884C212.001 358.646 210.721 356.087 210.401 353.049C209.921 349.052 210.081 345.215 210.081 341.217C210.081 333.702 209.921 326.187 210.081 318.672C210.401 304.921 211.041 291.17 212.801 277.419C213.441 272.622 214.561 268.145 218.081 264.468C218.881 263.508 219.201 262.709 218.081 261.909C211.841 256.953 211.201 249.917 211.041 242.882C210.401 225.933 210.721 208.824 210.721 191.876C210.721 183.401 210.721 174.927 210.881 166.612C210.881 157.978 212.321 149.503 213.441 141.029C213.601 138.95 214.241 137.032 215.841 135.433C217.121 134.154 216.801 133.354 215.521 132.395C213.761 131.275 213.121 129.517 212.961 127.598C212.961 126.479 212.801 125.359 212.641 124.24C212.321 113.687 212.161 102.974 211.521 92.421C211.041 83.1471 210.561 74.0331 211.041 64.9191C211.201 62.041 211.521 59.3228 211.361 56.4447C211.201 53.0869 212.481 50.2088 214.721 47.8103C215.681 46.6911 216.161 45.5718 214.721 44.6124C210.081 41.4145 208.961 36.6177 208.801 31.5011C208.641 21.2678 208.801 11.0345 208.801 0.801273L208.641 1.12106Z" fill="#6C6C6C"/>
<path d="M1840.16 11.3516C1841.28 11.3516 1842.24 11.9911 1843.36 11.6714C1843.36 12.6307 1843.68 13.75 1843.68 14.7094C1843.68 22.0645 1843.68 29.5796 1843.68 36.9347C1843.68 39.6529 1843.52 42.3711 1842.72 44.9295C1841.6 48.4472 1839.84 51.4852 1836.48 53.0841C1836.48 53.5638 1836.48 53.7237 1836.48 53.8836C1840.48 58.0408 1840.8 62.9976 1840.96 68.434C1841.28 76.5886 1841.6 84.7433 1841.28 92.8979C1840.8 105.849 1840.32 118.641 1839.68 131.592C1839.68 134.79 1839.68 138.308 1836.48 140.547C1835.36 141.346 1835.68 142.305 1836.48 143.265C1838.24 145.343 1838.72 147.902 1838.88 150.46C1839.2 154.457 1839.68 158.615 1839.84 162.612C1840.32 174.924 1840.64 187.396 1841.12 199.708C1841.6 212.979 1840.32 226.25 1837.76 239.361C1836.8 244.478 1834.72 248.635 1828.96 250.714C1832.32 254.392 1833.6 258.389 1834.4 262.866C1835.36 268.143 1835.84 273.579 1835.84 278.856C1835.84 295.165 1836.96 311.474 1838.08 327.783C1838.24 330.661 1838.24 333.699 1838.4 336.578C1838.4 341.534 1837.28 346.011 1833.44 349.369C1832.32 350.488 1831.52 351.608 1833.12 352.887C1840.32 358.483 1840.8 366.798 1841.44 374.632C1842.24 384.706 1841.76 394.779 1840.8 404.853C1838.4 431.875 1836.16 459.057 1837.6 486.239C1837.76 489.277 1837.28 492.155 1834.88 494.234C1833.44 495.513 1833.6 496.952 1834.72 498.391C1836.64 500.949 1836.96 503.668 1836.96 506.706C1836.96 513.421 1836.8 519.977 1836.96 526.692C1837.76 545.72 1837.6 564.747 1837.76 583.775C1837.76 587.293 1837.12 590.331 1834.08 592.569C1832.48 593.688 1831.68 595.127 1832.96 597.206C1835.68 601.203 1836 605.84 1836 610.477C1836 618.472 1836 626.627 1836.16 634.621C1836.48 646.773 1836 658.925 1835.84 671.077C1835.84 672.037 1836.16 673.156 1835.2 673.956C1833.76 672.836 1834.4 670.598 1832.96 669.638C1832.32 666.44 1832.96 663.243 1832.96 660.045C1833.44 643.256 1832.96 626.627 1832.8 609.838C1832.8 606.32 1832.48 602.802 1830.72 599.445C1829.76 597.686 1828.48 596.726 1826.56 597.046C1826.56 596.566 1826.56 596.087 1826.4 595.767C1827.84 595.447 1829.44 595.607 1829.92 593.528C1830.24 592.089 1831.68 591.13 1832.96 590.171C1834.56 588.891 1835.04 587.452 1835.04 585.534C1835.04 578.658 1835.04 571.783 1834.4 564.907C1833.6 556.753 1834.08 548.598 1834.08 540.443C1834.08 530.05 1834.08 519.497 1834.08 509.104C1834.08 505.107 1833.28 501.589 1831.04 498.231C1830.4 497.272 1829.76 496.792 1828.64 496.792C1825.76 496.792 1823.04 497.112 1820.16 496.632C1820.16 496.153 1820 495.513 1819.84 495.033C1822.56 494.394 1825.12 495.033 1827.84 495.033C1831.52 495.033 1834.56 492.315 1834.72 488.637C1834.72 486.079 1834.72 483.521 1834.56 480.962C1833.92 465.772 1834.56 450.582 1834.88 435.392C1835.04 428.197 1836.48 421.162 1836.96 414.126C1837.76 401.175 1838.88 388.224 1838.08 375.112C1837.76 369.196 1835.2 364.079 1832.96 358.803C1832.16 356.724 1830.24 355.125 1828.64 353.526C1827.52 352.407 1825.92 353.526 1824.64 352.887C1824.64 352.247 1824.64 351.608 1824.64 350.968C1826.24 350.328 1828 350.968 1829.44 349.369C1832 346.171 1834.88 343.453 1834.88 338.816C1834.88 332.58 1834.4 326.344 1833.92 320.108C1832.8 305.398 1832.48 290.528 1832 275.818C1832 270.701 1831.36 265.584 1830.08 260.628C1829.28 257.43 1828 254.232 1824.32 253.112C1824 252.153 1823.36 251.354 1823.68 250.234C1825.12 249.275 1826.24 247.996 1827.84 247.516C1831.68 246.237 1833.44 243.359 1834.24 239.681C1836 230.407 1837.28 220.974 1837.44 211.54C1837.76 193.951 1837.92 176.363 1836.64 158.775C1836.64 157.495 1836.48 156.216 1836.32 154.937C1836.16 150.46 1835.36 145.983 1832 142.625C1832 141.986 1832 141.186 1832.16 140.547C1835.68 138.628 1836.64 135.59 1836.8 131.752C1837.44 116.402 1838.24 101.212 1839.04 85.8625C1839.36 78.5074 1838.4 71.1522 1838.56 63.6372C1838.56 61.7184 1837.76 60.1195 1836.64 58.6804C1835.52 57.2414 1834.4 55.9622 1833.28 54.5231C1833.12 53.7237 1832.8 52.9242 1833.6 52.4445C1839.04 49.8862 1840.16 45.0894 1840 39.6529C1840 31.8181 1840 23.9832 1840 16.3083C1840 14.8692 1839.68 13.4302 1840.48 12.151L1840.16 11.3516Z" fill="#6D6C6C"/>
<path d="M219.52 46.689C219.84 46.0494 220.8 45.4098 220 44.4504C221.44 43.4911 223.2 43.8108 224.8 43.8108C267.36 43.8108 310.08 43.3312 352.64 43.8108C416.8 44.9301 481.12 43.4911 545.279 44.6103C601.119 45.5697 656.8 44.7702 712.64 45.2499C714.4 45.2499 716.159 45.2499 718.079 45.2499C719.359 45.2499 720.48 45.8895 720.32 47.3285C720.16 48.7676 718.88 49.2473 717.76 48.9275C713.44 47.6483 709.119 48.2879 704.799 48.2879C658.399 48.2879 611.84 48.7676 565.44 48.128C484.64 47.0087 403.68 48.128 322.88 47.3285C289.44 46.8489 255.84 47.3285 222.4 46.689C221.44 46.689 220.64 46.689 219.68 46.689H219.52Z" fill="#D6D1D1"/>
<path d="M1833.44 51.6471C1832.64 52.2867 1832.96 53.0862 1833.12 53.7258C1825.6 53.7258 1817.92 53.2461 1810.56 53.7258C1797.44 54.6851 1784.16 54.2054 1771.04 54.2054C1713.92 54.2054 1656.96 53.7258 1599.84 54.5252C1522.4 55.4846 1445.12 54.5252 1367.68 55.3247C1357.12 55.3247 1346.56 55.6445 1335.84 55.8044C1335.2 55.8044 1334.56 55.8044 1333.92 55.8044C1332.8 55.8044 1331.84 55.6445 1331.84 54.2054C1331.84 52.7664 1332.64 52.1268 1334.08 52.1268C1335.52 52.1268 1336.96 52.7664 1338.56 52.7664C1355.68 52.7664 1372.8 53.0862 1389.92 52.7664C1429.92 51.4872 1469.92 52.4466 1509.92 52.1268C1533.28 51.9669 1556.48 52.4466 1579.84 52.1268C1647.36 50.8477 1714.88 52.1268 1782.4 51.3273C1793.6 51.3273 1804.8 50.8477 1816.16 50.8477C1821.92 50.8477 1827.68 51.3273 1833.28 51.6471H1833.44Z" fill="#D6D0D0"/>
<path d="M1831.84 139.908C1831.84 140.548 1831.84 141.347 1831.68 141.987C1797.6 141.987 1763.52 141.987 1729.6 141.987C1668.64 141.987 1607.68 141.987 1546.88 141.987C1534.88 141.987 1522.88 143.266 1510.88 142.786C1506.08 142.626 1501.6 141.347 1496.8 140.388C1498.72 139.109 1502.24 138.149 1505.76 138.309C1511.68 138.309 1517.44 137.83 1523.36 138.949C1524.96 139.269 1526.72 138.949 1528.32 138.949C1626.4 138.949 1724.48 138.949 1822.4 138.949C1825.6 138.949 1828.8 138.949 1831.84 139.748V139.908Z" fill="#D8D3D3"/>
<path d="M223.359 678.912C223.359 678.113 223.679 677.313 224.319 676.673C274.559 675.234 324.799 676.194 375.039 676.034C423.519 675.874 471.999 676.034 520.479 676.034C521.599 676.034 522.719 676.034 523.999 676.034C524.479 676.034 524.959 676.034 525.119 676.833C525.279 677.473 525.119 678.112 524.479 678.432C523.999 678.912 523.359 678.912 522.719 678.912C521.759 678.912 520.959 678.912 519.999 678.912C423.519 678.912 327.039 678.912 230.719 678.912C228.319 678.912 225.919 678.912 223.359 678.912Z" fill="#D7D2D2"/>
<path d="M222.24 134.471C222.24 133.991 222.08 133.352 221.92 132.872C223.2 131.593 224.8 132.072 226.24 132.072C246.4 132.072 266.72 132.072 286.88 132.072C367.04 132.072 447.04 132.072 527.2 132.072C528.64 132.072 529.92 132.072 531.68 132.072C531.04 133.831 529.6 134.151 528.32 134.311C527.2 134.311 526.08 134.311 524.8 134.311C494.88 134.311 464.96 133.831 435.04 134.311C372.48 135.43 309.92 134.631 247.36 134.791C238.88 134.791 230.56 134.151 222.08 134.311L222.24 134.471Z" fill="#D4CECE"/>
<path d="M639.52 484.961C637.44 486.72 635.68 487.359 633.76 487.2C613.92 486.72 594.08 487.839 574.4 487.839C537.76 487.839 501.12 487.359 464.64 488.159C444 488.479 423.52 488.319 402.88 488.639C397.44 488.639 391.84 488.958 386.24 487.519C386.88 486.08 388.16 485.76 389.44 485.601C390.4 485.601 391.52 485.601 392.48 485.601C416.64 485.601 440.8 485.92 464.96 485.601C521.76 484.321 578.56 485.441 635.36 484.961C636.48 484.961 637.6 484.961 639.52 484.961Z" fill="#D6D1D1"/>
<path d="M746.24 358.323C737.76 358.323 729.28 357.844 720.96 358.323C703.2 359.443 685.44 358.323 667.68 359.123C654.72 359.763 641.6 359.123 628.64 359.763C609.28 360.562 589.76 360.402 570.4 360.402C569.44 360.402 568.32 360.402 567.36 360.402C566.88 360.402 566.4 360.082 566.24 359.443C566.24 358.643 566.72 358.323 567.36 358.323C568.16 358.323 568.96 358.323 569.6 358.323C573.12 358.323 576.48 358.323 580 358.323C596.64 357.364 613.28 358.323 629.76 357.364C647.36 356.565 664.96 357.524 682.56 356.565C699.84 355.605 717.12 356.565 734.24 355.765C747.68 355.126 761.12 355.605 774.4 355.126C778.24 355.126 782.08 354.326 785.92 354.486C786.72 354.486 787.52 354.486 788.16 354.486C789.12 354.486 789.92 355.126 789.76 356.245C789.76 357.204 788.8 357.364 788 357.364C787.68 357.364 787.2 357.364 786.88 357.364C773.28 358.323 759.52 358.004 745.92 358.164L746.24 358.323Z" fill="#D6D1D1"/>
<path d="M1825.6 1021.25C1825.76 1022.05 1825.92 1022.85 1826.08 1023.48C1820.16 1023.48 1814.08 1024.12 1808.16 1024.6C1807.68 1024.6 1807.2 1024.76 1806.72 1024.76C1799.84 1024.44 1792.96 1025.56 1786.08 1025.56C1780.64 1025.56 1775.36 1026.36 1770.08 1027C1766.88 1027.32 1763.68 1027.64 1760.64 1027.64C1753.92 1027.64 1747.36 1028.44 1740.8 1028.76C1732.96 1029.24 1724.96 1028.76 1717.12 1029.56C1703.68 1030.68 1690.24 1029.56 1676.96 1030.36C1665.44 1031 1653.92 1030.68 1642.56 1031C1639.2 1031 1635.84 1032.12 1632 1031.48C1637.28 1029.88 1642.24 1030.04 1647.2 1029.56C1657.44 1028.6 1667.84 1028.12 1678.08 1027.8C1683.68 1027.48 1689.28 1027.16 1694.88 1027.32C1707.36 1027.48 1719.68 1026.52 1732 1026.36C1740.8 1026.36 1749.6 1025.56 1758.4 1024.76C1765.28 1024.28 1772.16 1023.96 1778.88 1022.69C1779.2 1022.69 1779.36 1022.69 1779.68 1022.69C1786.88 1023 1793.92 1021.89 1801.12 1021.73C1807.52 1021.57 1813.92 1021.41 1820.16 1020.45C1822.08 1020.13 1824.16 1019.49 1825.92 1021.09L1825.6 1021.25Z" fill="#D6D1D1"/>
<path d="M1826.24 595.448C1826.24 595.928 1826.24 596.408 1826.4 596.728C1819.84 596.887 1813.12 597.687 1806.56 597.687C1753.28 597.687 1700.16 597.687 1646.88 597.687C1645.6 597.687 1644.32 597.687 1643.04 597.687C1642.4 597.687 1642.08 597.207 1642.08 596.728C1642.08 596.248 1642.4 595.768 1643.04 595.768C1643.84 595.768 1644.64 595.768 1645.28 595.768C1647.52 595.768 1649.6 595.768 1651.84 595.768C1708.32 594.649 1764.96 595.129 1821.44 595.129C1823.04 595.129 1824.8 594.489 1826.24 595.768V595.448Z" fill="#D7D2D2"/>
<path d="M224.32 589.212C224.32 588.733 224.32 588.253 224.32 587.773C226.56 587.773 228.96 587.773 231.2 587.773C290.24 587.773 349.12 587.773 408.16 587.773C408.96 587.773 409.76 587.773 410.4 587.773C411.04 587.773 411.84 587.773 412 588.413C412.32 589.372 411.52 589.852 411.04 590.172C409.92 590.971 408.64 590.652 407.36 590.652C394.24 590.652 380.96 590.971 367.84 590.652C323.36 589.372 278.88 590.492 234.4 590.012C231.04 590.012 227.68 590.172 224.48 589.212H224.32Z" fill="#D7D2D2"/>
<path d="M614.4 588.574C629.6 588.574 644.8 588.254 660 588.574C672.96 588.894 686.08 589.534 699.04 589.054C707.68 588.734 716.321 588.574 725.121 588.414C726.081 588.414 727.201 588.414 728.161 588.574C728.961 588.574 729.44 589.374 729.44 590.333C729.44 591.133 728.961 591.772 728.161 591.932C727.361 591.932 726.561 592.252 725.921 591.932C723.681 591.133 721.28 591.452 719.04 591.452C692.8 591.452 666.561 591.932 640.321 591.133C613.281 590.333 586.4 591.133 559.36 590.493C558.4 590.493 556.48 591.133 556.48 589.693C556.48 588.095 558.241 588.254 559.521 588.254C577.761 588.254 596.16 588.254 614.4 588.254V588.574Z" fill="#D6D1D1"/>
<path d="M1827.2 685.788C1820.64 685.788 1814.24 686.747 1807.68 686.747C1792.16 686.747 1776.48 687.067 1760.96 686.747C1729.92 685.628 1698.88 686.587 1667.84 686.107C1666.72 686.107 1664.48 686.907 1664.48 684.828C1664.48 683.069 1666.56 683.869 1667.68 683.869C1719.36 683.869 1771.04 683.869 1822.56 683.869C1824 683.869 1825.44 683.869 1826.72 684.348C1826.08 684.988 1827.04 685.468 1827.04 685.947L1827.2 685.788Z" fill="#D5CFCF"/>
<path d="M1824.8 901.488C1824.8 902.288 1824.8 902.927 1824.8 903.727C1818.4 904.526 1812 904.047 1805.76 904.686C1799.04 905.326 1792.32 904.686 1785.6 904.686C1775.84 904.526 1766.08 904.206 1756.48 904.686C1737.76 905.805 1719.2 904.686 1700.48 905.486C1693.76 905.805 1686.88 905.326 1680.32 906.605C1680.16 906.605 1679.84 906.445 1679.68 906.285C1680.16 905.006 1681.44 905.326 1682.4 905.326C1688.8 905.326 1695.04 904.526 1701.44 903.887C1705.28 903.567 1709.12 903.247 1712.8 903.247C1721.28 902.927 1729.92 902.128 1738.4 902.288C1753.76 902.288 1769.12 901.328 1784.32 901.648C1788.48 901.648 1792.64 902.608 1796.96 902.448C1806.24 901.968 1815.52 901.488 1824.96 901.648L1824.8 901.488Z" fill="#D6D0D0"/>
<path d="M1356.32 141.348C1357.76 139.589 1359.2 139.589 1360.8 139.589C1377.92 140.069 1395.04 138.63 1412.16 138.79C1431.36 138.95 1450.56 138.79 1469.6 138.79C1470.88 138.79 1473.12 137.99 1473.12 139.589C1473.12 141.668 1470.72 141.028 1469.44 141.028C1452 141.028 1434.72 142.147 1417.44 141.828C1407.04 141.668 1396.8 141.508 1386.4 141.828C1378.72 142.147 1371.04 142.307 1363.52 142.467C1361.12 142.467 1359.04 142.148 1356.48 141.188L1356.32 141.348Z" fill="#D6D1D1"/>
<path d="M1559.84 492.636C1561.6 492.636 1562.72 492.636 1564 492.636C1595.84 492.636 1627.68 492.636 1659.52 492.636C1662.08 492.636 1664.32 492.636 1666.24 494.715C1665.76 495.994 1664.8 495.515 1664 495.515C1654.08 495.515 1644.32 495.515 1634.4 495.515C1611.84 495.515 1589.44 495.515 1566.88 495.515C1564.48 495.515 1562.08 495.515 1560 492.477L1559.84 492.636Z" fill="#D8D3D3"/>
<path d="M425.6 590.01C427.36 588.411 429.12 587.772 431.36 587.772C444 587.772 456.64 587.292 469.28 587.772C493.92 588.891 518.56 587.932 543.36 588.411C544.64 588.411 546.88 587.612 547.04 589.211C547.04 591.289 544.8 590.65 543.36 590.65C505.28 590.65 467.04 590.65 428.96 590.65C428 590.65 426.88 590.97 425.6 590.01Z" fill="#D8D3D3"/>
<path d="M583.039 133.512C584.479 132.552 585.919 132.872 587.039 132.872C594.079 132.872 601.119 132.872 608.159 132.872C616.479 133.192 624.799 132.552 632.959 131.753C640.799 131.113 648.639 130.953 656.479 129.674C656.799 129.674 656.959 129.674 657.279 129.674C667.039 130.154 676.639 128.555 686.399 128.875C688.639 128.875 690.719 129.194 693.279 130.154C686.559 130.793 680.159 131.113 673.919 132.073C667.999 132.872 661.919 132.232 655.999 132.872C647.359 133.672 638.719 133.672 630.079 134.951C629.759 134.951 629.599 134.951 629.279 134.951C619.039 134.951 608.799 136.39 598.719 135.59C594.719 135.27 590.559 135.111 586.559 134.951C585.439 134.951 584.319 134.631 583.039 133.352V133.512Z" fill="#D6D1D1"/>
<path d="M221.76 489.439C221.76 488.8 221.76 488 221.76 487.361C223.68 486.721 225.76 486.561 227.84 486.561C233.44 486.561 239.04 486.881 244.64 486.561C261.44 485.442 278.4 486.561 295.2 485.762C303.36 485.442 311.52 485.442 319.68 485.282C320.96 485.282 322.24 484.962 323.68 485.762C322.56 487.84 320.8 488.16 318.72 488.16C308.8 488.16 299.04 487.68 289.12 488.16C271.68 489.279 254.4 488.32 236.96 488.959C231.84 489.119 226.72 489.599 221.76 489.439Z" fill="#D6D1D1"/>
<path d="M1575.2 907.881C1577.28 906.122 1579.52 906.122 1581.6 906.122C1595.84 906.122 1609.92 906.122 1624.16 906.122C1636.48 906.122 1648.96 906.122 1661.28 906.122C1662.4 906.122 1664.64 905.163 1664.64 907.401C1664.64 909 1662.56 908.361 1661.44 908.361C1635.2 910.12 1609.12 908.681 1582.88 909.16C1580.32 909.16 1577.92 908.681 1575.2 907.881Z" fill="#D6D1D1"/>
<path d="M1823.36 249.437C1823.04 250.556 1823.84 251.356 1824 252.315C1816.64 252.315 1809.12 252.795 1801.76 252.315C1795.36 251.836 1788.96 252.155 1782.72 251.036C1781.92 251.036 1781.12 251.036 1780.48 251.036C1773.12 251.356 1765.92 250.396 1758.72 250.077C1754.4 249.917 1750.08 249.597 1745.76 249.437C1744.16 249.437 1742.88 248.957 1741.28 248.158C1742.4 246.559 1743.68 246.399 1745.12 246.559C1750.88 246.719 1756.64 245.919 1762.4 247.199C1762.72 247.199 1762.88 247.199 1763.2 247.199C1769.76 246.879 1776.16 247.838 1782.72 248.158C1788.8 248.478 1794.88 248.478 1800.96 249.437C1803.04 249.757 1805.28 249.437 1807.52 249.437C1812.96 249.437 1818.24 249.437 1823.68 249.437H1823.36Z" fill="#D6D1D1"/>
<path d="M1819.36 494.394C1819.36 494.873 1819.52 495.513 1819.68 495.993C1818.4 496.472 1816.96 496.312 1815.52 496.312C1808.64 496.312 1801.76 496.792 1794.88 496.312C1782.88 495.353 1770.88 496.312 1758.88 495.513C1750.24 494.873 1741.6 495.193 1732.8 495.033C1731.2 495.033 1729.44 495.353 1728.32 493.115C1729.12 492.475 1730.24 492.635 1731.04 492.635C1748.48 492.635 1766.08 492.155 1783.52 492.955C1794.4 493.434 1805.12 493.275 1816 493.594C1817.12 493.594 1818.4 493.274 1819.2 494.554L1819.36 494.394Z" fill="#D6D1D1"/>
<path d="M954.24 44.9293C953.92 45.8887 953.6 45.8887 953.28 45.8887C940.32 46.6882 927.2 47.1678 914.24 46.5283C903.84 46.0486 893.44 47.1678 883.04 46.6882C880.8 46.6882 878.4 46.3684 876.16 45.8887C875.36 45.7288 874.08 45.8887 874.24 44.6095C874.4 43.4903 875.52 43.6502 876.48 43.6502C878.72 43.6502 881.12 43.6502 883.36 43.6502C888.48 43.6502 893.6 43.6502 898.72 43.6502C902.88 43.6502 907.04 42.6908 911.36 43.0106C918.4 43.6502 925.6 43.9699 932.8 43.6502C937.44 43.3304 941.92 43.6502 946.4 43.6502C949.12 43.6502 951.68 44.2897 954.4 44.9293H954.24Z" fill="#D6D1D1"/>
<path d="M604.8 243.199C616.16 243.199 627.52 243.199 638.88 243.199C639.84 243.199 640.64 243.199 641.6 243.199C642.4 243.199 643.36 243.199 643.36 244.159C643.36 245.438 642.72 246.077 641.6 246.237C640.64 246.237 639.84 246.237 638.88 246.237C616 246.237 593.12 246.237 570.24 246.237C569.28 246.237 568.16 246.237 567.2 246.237C566.4 246.237 566.08 245.598 566.08 244.958C566.08 244.318 566.4 243.679 567.04 243.519C568 243.519 569.12 243.519 570.08 243.519C581.6 243.519 593.12 243.519 604.64 243.519L604.8 243.199Z" fill="#D8D3D3"/>
<path d="M1183.68 42.6902C1183.36 42.6902 1183.04 43.01 1182.56 43.01C1174.72 42.6902 1166.72 43.4897 1158.88 43.9694C1143.04 44.7689 1127.2 44.4491 1111.36 44.609C1110.24 44.609 1109.12 44.609 1108 44.4491C1107.52 44.4491 1107.04 43.9694 1107.04 43.4897C1107.04 42.8501 1107.52 42.6902 1108 42.5303C1109.6 42.2106 1111.2 41.7309 1112.96 41.7309C1117.12 41.7309 1121.12 41.7309 1125.28 41.7309C1142.08 42.2106 1158.72 40.4517 1175.36 40.9314C1178.24 40.9314 1180.96 41.571 1183.68 42.8501V42.6902Z" fill="#D7D2D2"/>
<path d="M1824.32 350.169C1824.32 350.808 1824.32 351.448 1824.32 352.088C1818.24 352.088 1812 352.727 1805.92 351.608C1805.6 351.608 1805.12 351.608 1804.8 351.608C1795.04 351.928 1785.12 350.489 1775.36 350.808C1768 350.968 1760.64 350.808 1753.28 350.808C1749.6 350.808 1746.08 349.849 1742.56 348.89C1742.56 347.451 1743.52 347.77 1744.16 347.77C1750.56 347.93 1756.96 347.291 1763.2 348.41C1764.16 348.57 1765.28 348.41 1766.24 348.41C1774.88 348.41 1783.68 348.41 1792.32 348.41C1801.12 348.41 1809.92 349.05 1818.72 349.849C1820.64 350.009 1822.56 349.849 1824.48 350.169H1824.32Z" fill="#D5CFCF"/>
<path d="M1695.68 802.031C1696.8 800.592 1698.4 801.072 1699.84 800.752C1703.36 800.112 1706.88 799.473 1710.4 799.473C1715.2 799.473 1720 798.673 1724.8 798.034C1725.12 798.034 1725.6 798.034 1725.92 798.034C1731.68 798.354 1737.28 797.234 1743.04 797.234C1748.96 797.234 1755.04 798.354 1760.96 798.034C1761.44 798.034 1761.92 798.034 1762.4 798.194C1762.88 798.354 1763.36 798.673 1763.36 799.313C1763.36 799.953 1762.88 800.112 1762.56 800.432C1761.76 800.912 1760.8 800.912 1760 800.912C1755.2 800.752 1750.24 801.392 1745.44 800.432C1743.52 799.953 1741.76 801.072 1739.84 801.072C1732.16 800.912 1724.64 801.871 1716.96 802.351C1709.92 802.831 1702.72 804.59 1695.52 802.191L1695.68 802.031Z" fill="#D5CFCF"/>
<path d="M599.841 675.876H639.681C640.481 675.876 641.281 675.876 641.921 675.876C642.881 675.876 644.321 675.236 644.481 676.675C644.641 678.115 643.201 678.274 642.081 678.274C641.281 678.274 640.481 678.274 639.841 678.274C612.801 678.274 585.921 678.274 558.881 678.274C557.441 678.274 556.001 678.594 554.721 677.955C554.241 677.795 553.921 677.315 554.081 676.675C554.081 676.196 554.561 676.036 554.881 676.036C555.841 676.036 556.961 676.036 557.921 676.036C571.841 676.036 585.761 676.036 599.681 676.036L599.841 675.876Z" fill="#D6D1D1"/>
<path d="M1721.76 495.194C1720 495.834 1718.56 495.674 1717.28 495.674C1704.16 495.674 1690.88 495.674 1677.76 495.674C1676.8 495.674 1675.68 495.674 1674.72 495.354C1674.08 495.354 1673.6 494.714 1673.6 493.915C1673.6 493.115 1674.08 492.636 1674.88 492.796C1677.76 492.955 1680.48 491.996 1683.2 491.996C1693.6 491.996 1704 491.996 1714.24 491.996C1717.12 491.996 1719.52 492.796 1721.76 495.354V495.194Z" fill="#D6D0D0"/>
<path d="M330.561 487.679C332.481 485.76 334.241 484.961 336.801 484.961C348.641 484.961 360.321 484.961 372.161 484.961C374.081 484.961 376.001 485.441 377.761 485.92C378.241 485.92 378.561 486.56 378.401 487.04C378.401 487.359 377.921 487.679 377.761 487.839C377.121 487.999 376.481 487.999 375.841 487.999C363.521 487.519 351.361 488.958 339.041 488.798C336.321 488.798 333.601 488.319 330.561 487.679Z" fill="#D5CFCF"/>
<path d="M1588.8 1031.96C1595.52 1031.96 1602.08 1031.96 1608.8 1031.96C1609.76 1031.96 1610.56 1031.96 1611.52 1031.96C1612.16 1031.96 1612.8 1032.44 1612.64 1033.24C1612.64 1033.88 1612.16 1034.04 1611.52 1034.2C1608.8 1034.52 1605.92 1035 1603.2 1035C1592.96 1035 1582.72 1035 1572.48 1035C1570.4 1035 1568.48 1034.36 1566.4 1033.88C1565.92 1033.88 1565.44 1033.4 1565.44 1032.76C1565.44 1032.12 1565.92 1031.96 1566.56 1031.96C1567.52 1031.96 1568.64 1031.96 1569.6 1031.96C1576 1031.96 1582.4 1031.96 1588.8 1031.96Z" fill="#D6D1D1"/>
<path d="M1556.48 250.235C1555.68 251.194 1554.56 251.674 1553.6 251.674C1549.92 251.514 1546.24 252.473 1542.56 252.473C1534.88 252.473 1527.04 253.752 1519.36 253.273C1518.4 253.273 1517.6 253.273 1516.64 253.273C1516 253.273 1515.36 252.793 1515.36 252.153C1515.36 251.354 1515.84 250.874 1516.48 250.714C1517.28 250.554 1518.24 250.394 1519.04 250.394C1526.72 250.394 1534.56 249.755 1542.24 248.955C1545.92 248.476 1549.6 248.955 1553.28 248.955C1554.4 248.955 1555.52 249.275 1556.48 250.554V250.235Z" fill="#D6D1D1"/>
<path d="M713.12 243.199C718.56 243.199 724.16 243.199 729.6 243.199C731.2 243.199 732.16 243.679 732 245.438C732 246.397 731.52 246.877 730.56 247.037C729.92 247.037 729.28 247.037 728.64 247.037C718.56 245.598 708.48 246.717 698.4 246.397C697.44 246.397 696.32 246.397 695.36 246.397C694.56 246.397 693.76 246.397 693.76 245.118C693.76 244.318 694.24 243.679 695.04 243.519C695.84 243.359 696.8 243.359 697.76 243.359C702.88 243.359 708 243.359 713.12 243.359V243.199Z" fill="#D8D3D3"/>
<path d="M673.119 678.274C667.519 678.274 661.919 678.274 656.319 678.274C655.519 678.274 654.719 678.274 654.079 678.274C653.759 678.274 653.279 678.274 653.279 677.635C653.279 676.995 653.599 676.676 653.919 676.356C654.559 676.036 655.199 676.036 655.679 676.036C656.639 676.036 657.439 676.036 658.399 676.036C669.279 676.516 679.999 675.236 690.879 675.396C691.359 675.396 691.839 675.396 692.479 675.396C693.439 675.556 695.359 674.757 695.359 676.196C695.359 677.795 693.919 678.274 692.319 678.274C687.039 678.274 681.599 678.274 676.319 678.274C675.359 678.274 674.239 678.274 673.279 678.274H673.119Z" fill="#D5CFCF"/>
<path d="M1824.96 795.796C1824.96 796.436 1824.96 797.076 1824.96 797.555C1821.6 799.314 1817.6 798.834 1814.08 799.154C1805.12 799.794 1796.32 800.753 1787.36 800.114C1786.88 800.114 1786.4 800.114 1786.08 799.634C1788.32 797.875 1791.68 797.076 1798.56 797.235C1802.88 797.235 1807.2 796.116 1811.52 796.436C1816 796.756 1820.32 794.997 1824.8 795.796H1824.96Z" fill="#D7D2D2"/>
<path d="M1527.68 346.812C1534.24 346.812 1540.96 346.813 1547.52 347.452C1547.84 347.452 1548 347.452 1548.32 347.452C1548.96 347.452 1549.6 347.772 1549.6 348.571C1549.6 349.211 1549.28 349.531 1548.64 349.691C1547.36 350.17 1545.92 350.65 1544.48 350.49C1538.72 349.371 1532.8 349.851 1526.88 349.851C1522.72 349.851 1518.56 348.891 1514.4 349.051C1514.08 349.051 1513.92 349.051 1513.6 349.051C1512.96 348.891 1512.32 348.571 1512.32 347.772C1512.32 346.972 1513.12 346.972 1513.76 346.972C1517.6 346.972 1521.44 346.972 1525.28 346.972C1526.08 346.972 1526.88 346.972 1527.52 346.972L1527.68 346.812Z" fill="#D6D0D0"/>
<path d="M1162.24 135.27C1158.72 135.589 1155.2 136.549 1151.68 136.549C1144.8 136.549 1137.92 136.549 1131.04 136.549C1129.6 136.549 1127.68 136.709 1127.68 134.95C1127.68 132.871 1129.76 133.671 1131.04 133.671C1139.68 133.671 1148.32 133.671 1157.12 133.671C1159.04 133.671 1160.8 133.671 1162.4 135.429L1162.24 135.27Z" fill="#D8D3D3"/>
<path d="M722.56 678.912C716.8 679.231 711.2 677.792 705.6 678.112C704.64 678.112 703.68 678.112 703.68 676.833C703.68 675.394 704.48 675.074 705.6 675.074C706.88 675.074 708.16 675.074 709.44 675.074C715.36 675.074 721.12 675.074 727.04 675.074C727.68 675.074 728.32 675.074 728.96 675.074C730.08 675.074 731.04 675.234 731.04 676.673C731.04 678.112 730.24 678.912 728.96 678.912C726.72 678.912 724.64 678.912 722.56 678.912Z" fill="#D6D1D1"/>
<path d="M922.4 124.718C920.96 126.477 919.2 126.637 917.44 126.637C912 126.637 906.72 126.637 901.28 126.637C899.36 126.637 897.6 125.997 895.68 125.838C894.88 125.838 894.08 125.518 894.08 124.558C894.08 123.279 895.2 122.8 896.16 123.119C897.76 123.599 899.36 123.599 901.12 123.599C905.28 123.599 909.28 123.599 913.44 123.599C916.48 123.599 919.36 124.239 922.4 124.558V124.718Z" fill="#D7D2D2"/>
<path d="M1827.2 685.789C1827.2 685.31 1826.24 684.83 1826.88 684.191C1827.84 680.993 1829.12 677.955 1832 675.876C1832.8 675.236 1832.8 674.117 1832.96 673.158C1832.96 671.879 1832.96 670.599 1833.12 669.32C1834.72 670.44 1834.08 672.518 1835.36 673.637C1836 675.876 1834.88 677.475 1833.12 678.914C1831.36 680.353 1830.24 682.112 1830.56 684.51C1829.92 684.99 1829.28 685.47 1828.48 686.109C1828 686.109 1827.68 686.109 1827.2 685.949V685.789Z" fill="#121111"/>
<path d="M1737.28 348.09C1734.56 349.849 1731.52 350.168 1728.64 350.648C1728 350.648 1727.04 350.648 1726.72 349.849C1726.4 348.57 1727.52 348.25 1728.32 348.09C1731.36 347.45 1734.24 347.61 1737.28 348.09Z" fill="#D8D3D3"/>
<path d="M1731.04 250.874C1730.56 250.874 1730.08 250.874 1729.44 250.874C1728.48 250.874 1727.2 250.874 1727.36 249.435C1727.36 248.156 1728.48 247.996 1729.6 247.836C1730.56 247.836 1731.68 247.836 1732.64 248.316C1733.44 248.795 1735.52 247.996 1735.2 249.755C1735.04 251.034 1733.44 250.714 1732.16 250.874C1731.84 250.874 1731.36 250.874 1731.04 250.874Z" fill="#D8D3D3"/>
<path d="M223.519 587.773C223.359 588.093 223.199 588.093 223.039 587.773C223.199 587.773 223.359 587.773 223.519 587.773Z" fill="#D7D2D2"/>
</g>
</g>
<defs>
<clipPath id="clip0_2370_1465">
<rect width="1920" height="1082" fill="white"/>
</clipPath>
<clipPath id="clip1_2370_1465">
<rect width="1920" height="1094" fill="white"/>
</clipPath>
</defs>
</svg>
