<svg width="245" height="185" viewBox="0 0 245 185" fill="none" xmlns="http://www.w3.org/2000/svg">
<g filter="url(#filter0_d_2637_26957)">
<circle cx="111" cy="90" r="90" fill="#0ABBEF"/>
</g>
<path d="M0 71.9952C1.40288 68.5633 3.57096 65.6398 6.50424 63.2247C7.90712 62.0807 9.43753 61.4451 11.0955 60.6825C8.16218 58.3945 8.41725 55.3439 9.05492 52.2932C10.0752 47.4631 13.136 44.1582 17.7272 42.2516C17.9823 42.2516 18.3649 42.1245 18.4925 41.7431C17.9823 41.3618 17.4722 40.8534 17.0896 40.3449C14.794 38.0569 14.6664 35.0063 16.962 32.5912C19.1301 30.1761 21.9359 29.0321 25.1242 28.3966C29.0778 27.6339 32.9038 28.0153 36.8574 28.3966C43.9993 29.0321 51.0137 29.0321 58.0281 27.6339C67.7207 25.8544 77.5408 24.7104 87.1058 22.5495C92.0797 21.4056 96.926 20.2616 101.772 18.482C103.303 17.9736 104.961 17.4652 106.619 17.0838C107.256 16.8296 107.766 17.2109 108.404 17.4652C111.847 19.1176 114.908 21.4056 118.097 23.4393C123.836 27.1255 129.957 30.049 136.079 33.0996C143.859 37.04 151.256 41.7431 159.035 45.8106C167.325 50.1324 175.742 53.9456 184.159 57.886C191.301 61.318 199.081 62.9704 207.116 63.606C209.921 63.8602 212.599 63.9873 215.405 64.2415C216.298 64.2415 217.318 64.2416 217.828 65.2584C218.083 65.6398 218.466 65.5126 218.849 65.5126C220.379 65.5126 221.527 65.894 222.547 67.038C223.695 68.5633 223.822 68.5633 222.547 69.9615C225.098 70.597 227.776 71.3597 230.327 72.1224C230.964 72.2495 231.73 72.5037 231.857 73.2663C231.857 74.1561 231.092 74.2832 230.582 74.5374C230.072 74.7917 229.562 75.0459 229.051 75.3001C227.776 75.9357 226.883 76.6983 226.628 78.2236C226.118 80.5116 224.205 81.5285 222.292 82.4183C220.762 83.1809 219.231 83.8164 217.446 84.7062C219.486 85.2147 220.507 86.4858 221.527 88.0111C222.42 89.2822 222.292 90.8075 221.654 92.0786C221.144 93.3497 221.654 93.9853 222.675 94.6208C223.567 95.1292 224.46 95.7648 225.353 96.4003C227.138 97.7985 227.138 98.6883 225.353 99.9594C225.098 100.086 224.843 100.341 224.588 100.595C230.327 101.866 235.683 103.518 240.657 106.569C241.805 107.205 242.953 107.967 243.845 108.857C245.503 110.382 245.376 111.399 243.463 112.543C243.208 112.67 242.825 112.925 242.442 113.179C242.825 113.433 243.208 113.814 243.59 114.069C244.1 114.577 244.866 114.958 244.611 115.721C244.483 116.611 243.59 116.738 242.953 116.865C238.106 117.882 233.26 118.899 228.286 119.789C216.553 121.949 205.202 125.508 193.979 129.83C173.446 137.711 152.658 144.956 131.488 151.185C127.789 152.329 124.091 153.345 120.265 153.854C116.184 154.362 112.613 153.6 109.552 150.676C104.45 145.846 98.4564 142.033 92.8449 137.584C74.8626 123.602 55.3498 111.908 35.9646 100.214C27.1648 94.875 18.3649 89.6635 10.4578 83.0538C7.39698 80.5116 4.46369 77.8423 1.40287 75.3001C0.892737 74.7917 1.02027 74.029 0.382597 73.6477V71.8681L0 71.9952ZM108.532 101.612C108.532 101.739 108.787 101.993 108.914 101.612C108.914 101.612 108.787 101.485 108.659 101.358L108.277 101.103C108.149 100.976 108.021 100.849 107.894 100.722C105.471 97.2901 105.598 93.6039 107.256 89.9177C110.062 84.5791 114.271 80.8929 119.755 78.2236C126.004 75.173 132.508 74.029 139.267 73.1392C146.282 72.1223 153.296 71.741 160.438 70.9784C173.446 69.4531 186.582 68.4362 199.719 67.4193C203.162 67.1651 206.733 66.7838 210.431 66.0211C208.773 65.6398 207.371 65.3855 205.84 65.2584C196.148 64.2416 186.71 62.0807 178.038 57.2505C176.38 56.3607 174.594 55.471 172.809 54.7083C161.841 49.751 151.256 44.1582 141.053 38.057C138.885 36.7859 136.717 35.5147 134.549 34.4979C128.044 31.5743 121.923 28.1424 116.056 24.3291C113.76 22.8038 111.337 21.4055 109.042 19.7531C107.766 18.8633 106.746 18.8634 105.343 19.3718C99.2216 22.0411 92.8449 23.6935 86.4682 25.2189C77.9234 27.2526 69.2511 28.1424 60.7063 29.7948C53.8194 31.193 46.9326 31.5743 40.0457 31.193C37.6226 31.193 35.327 30.8117 33.0313 30.6846C28.8227 30.1761 24.7416 30.3032 21.0431 32.5912C17.9823 34.4979 16.707 36.5316 20.533 39.5822C24.9967 43.1413 29.5879 46.3191 34.1792 49.6239C45.5297 57.5047 56.6252 65.7669 68.2308 73.2663C77.1582 78.9863 86.0856 84.8333 94.6304 91.3159C98.9665 94.4937 103.175 97.9256 107.766 100.722C107.894 100.849 108.149 100.976 108.277 101.103C108.404 101.103 108.532 101.103 108.659 101.23L108.532 101.612ZM83.79 93.9853C83.9175 93.9853 84.1725 94.2395 84.3001 94.3666C85.1928 95.1292 86.0856 95.8919 86.9783 96.6545C87.7435 97.4172 88.1261 96.9088 88.2536 96.1461C89.1464 94.7479 90.0391 93.3497 91.3145 92.3328C91.3145 92.3328 91.3145 92.2057 91.3145 92.0786C85.3204 87.5027 78.6886 83.6894 72.5669 79.2405C71.9293 78.8592 71.8017 79.2405 71.5467 79.4947C70.7815 80.5116 70.1438 81.6556 69.3786 82.6725C68.8685 83.4351 68.996 83.8165 69.6337 84.1978C74.3524 87.1213 78.9437 90.299 83.5349 93.6039C83.6624 93.6039 83.9175 93.8581 84.045 93.9853H83.79ZM202.397 95.0021C202.142 95.0021 202.014 95.2564 201.759 95.2564C199.846 96.1461 197.806 97.0359 195.892 97.9256C179.186 106.315 162.096 113.687 144.241 119.534C142.583 120.043 140.925 120.932 139.012 120.551C139.905 120.17 140.543 119.789 141.308 119.534C149.47 116.738 157.505 113.306 165.539 110.128C177.783 105.298 189.516 99.3238 201.376 93.6039C205.585 91.5701 209.666 89.5364 213.747 87.5026C214.002 87.5026 214.257 87.5026 214.385 87.2484C214.895 87.1213 215.405 86.8671 215.915 86.6129C216.17 86.4858 216.936 86.6129 216.553 85.8502C216.298 85.3418 216.043 85.2147 215.405 85.4689C213.875 86.2315 212.344 86.8671 210.814 87.5026C204.437 90.172 197.806 92.4599 191.301 94.7479C190.919 94.7479 190.536 94.7479 190.281 95.0021C189.898 95.0021 189.388 95.0021 189.006 95.3834C185.69 96.1461 182.246 96.6545 179.313 98.5612C174.594 101.612 169.493 103.773 164.519 106.442C158.525 109.493 152.276 111.908 145.899 114.069C138.885 116.484 131.743 118.136 124.601 120.17C122.433 120.805 120.265 121.568 118.734 123.348C118.097 124.619 118.989 125.127 119.882 125.508C120.01 125.508 120.137 125.508 120.265 125.508C120.52 125.508 120.775 125.763 121.157 125.763C124.473 126.398 127.789 126.144 131.105 125.763C139.395 124.746 147.43 122.458 155.464 120.043C155.719 120.043 155.974 120.043 156.102 119.789C158.142 119.153 160.055 118.517 162.096 117.882C162.479 117.882 162.861 117.882 163.116 117.501C163.499 117.501 163.754 117.501 164.136 117.246C168.218 115.848 172.299 114.45 176.38 113.179C183.267 111.018 190.153 108.73 197.04 106.569C197.423 106.569 197.806 106.569 198.061 106.188C206.095 103.773 214.002 100.849 221.782 96.5275C218.466 95.2564 218.211 93.3497 219.231 90.6804C219.741 89.4093 218.976 88.3924 218.211 87.5026C217.828 86.9942 217.446 86.9942 216.808 87.2484C211.834 89.5364 207.116 92.0786 202.269 94.4937C202.142 94.4937 202.014 94.6208 201.887 94.7479L202.397 95.0021ZM202.269 106.95C202.014 106.95 201.759 106.95 201.504 107.205C196.403 108.73 191.301 110.382 186.2 112.035C177.91 114.704 169.62 117.373 161.203 120.17C161.968 120.551 162.351 120.424 162.734 120.297C170.641 118.772 178.548 117.246 186.455 115.467C192.449 114.069 198.443 112.67 204.437 111.272C204.82 111.272 205.202 111.272 205.458 111.018C212.727 109.366 219.869 107.713 227.266 105.679C226.883 105.171 226.628 104.79 226.246 104.408C225.608 103.9 224.97 103.264 224.205 102.756C221.527 100.849 221.527 100.722 224.078 98.5612C224.078 98.5612 224.205 98.307 224.333 98.1799C223.95 97.7985 223.185 97.163 223.057 97.4172C222.292 98.9425 220.507 98.9425 219.486 99.8323C214.13 102.247 208.773 104.535 203.289 106.442C202.907 106.442 202.524 106.442 202.397 106.823L202.269 106.95ZM196.658 123.093C196.275 123.093 195.893 123.093 195.51 123.475C195.127 123.475 194.872 123.475 194.49 123.602C181.226 127.034 168.09 130.72 154.699 133.516C142.711 135.931 130.723 138.347 118.862 140.762C115.929 141.397 112.995 142.033 110.19 143.177C109.169 143.558 108.532 144.066 108.659 145.338C108.914 147.498 110.7 148.897 111.592 150.676C112.103 151.693 113.505 151.947 114.653 152.202C118.097 152.964 121.413 152.202 124.601 151.312C143.731 145.973 162.606 139.745 181.226 132.754C198.443 126.271 215.66 119.916 234.025 116.992C236.576 116.611 238.999 115.975 241.805 115.467C241.167 114.958 240.785 114.704 240.529 114.45C239.892 113.433 240.274 112.543 241.167 111.781C240.657 111.526 240.274 111.781 239.892 111.781C234.535 112.925 229.306 114.196 224.078 115.594C216.681 117.628 209.156 119.407 201.759 121.695C200.101 122.076 198.443 122.458 196.785 123.093H196.658ZM175.487 119.026C170.896 119.789 166.305 120.933 161.841 121.949C154.316 123.602 146.792 125.636 139.395 128.051C138.247 128.305 136.972 128.559 135.824 128.813C129.702 130.211 123.581 131.61 117.204 130.339C117.076 130.084 116.694 130.084 116.439 130.084C115.546 129.068 114.398 129.83 113.505 129.449C111.592 128.686 109.807 127.924 108.021 126.907C102.92 124.11 98.3289 120.678 93.4826 117.501C82.2596 110.255 71.9293 101.612 60.5787 94.4937C57.1353 92.3328 54.0745 89.6635 50.7586 87.2484C50.376 86.9942 49.9934 86.2316 49.3557 86.9942C47.3152 89.4093 45.5297 91.8244 44.892 95.0021C43.7442 95.7648 43.8718 94.875 43.7442 94.1123C44.2544 91.0617 45.7848 88.6466 47.8253 86.4857C48.5905 85.7231 48.3354 85.4689 47.5702 84.9605C46.4224 84.3249 45.4022 83.4351 44.2544 82.7996C44.1268 82.6725 43.9993 82.7996 43.9993 82.7996C41.5761 85.0875 39.9182 87.884 38.8979 91.0617C38.1327 92.2057 37.24 92.0786 36.2197 91.4431C30.3531 87.6298 24.6141 83.5622 18.3649 80.1303C17.9823 79.876 17.4722 79.6218 17.0896 79.2405C16.3244 78.4779 16.0693 77.7152 16.707 76.6983C16.962 76.6983 17.3446 76.6983 17.2171 76.8254C16.962 78.3508 17.9823 78.7321 19.0026 79.3676C22.3185 81.2743 25.7619 83.1809 28.9503 85.3418C31.5009 86.9942 33.9241 88.6466 36.4748 90.299C36.8574 90.5533 37.495 91.3159 37.8776 90.299C38.3878 89.0279 38.8979 87.7569 39.5356 86.6129C40.4283 84.9604 41.3211 83.4351 43.1065 82.6725C43.3616 82.6725 43.6167 82.6725 43.6167 82.2911C43.6167 82.2911 43.3616 82.0369 43.2341 82.0369C42.979 81.9098 42.7239 81.7827 42.4689 81.6556C35.9646 77.461 29.4604 73.3935 22.9562 69.1989C22.3185 68.8175 21.5533 68.182 21.0431 69.1989C19.6403 71.4868 18.2374 73.7748 17.7272 76.4441C17.4722 76.6983 17.3446 77.3338 16.8345 76.9525C16.4519 76.5712 16.8345 76.1899 16.8345 75.8085C17.7272 73.1392 18.7475 70.597 20.533 68.4362C20.9156 67.9277 20.6605 67.8006 20.4055 67.5464C18.2374 66.0211 16.1968 64.3687 14.0288 62.8434C13.5186 62.462 13.0085 62.462 12.3708 62.5891C7.77958 64.2416 4.71876 67.4193 2.67822 71.741C2.29561 72.6308 2.42315 73.3935 2.80575 74.1561C3.82602 75.9357 5.22889 77.0796 6.88684 78.2236C11.6056 82.6725 16.707 86.4858 22.1909 90.0448C38.0052 100.595 54.7122 109.874 70.5264 120.424C80.219 126.907 89.7841 133.643 99.0941 140.762C101.645 142.668 104.323 144.575 107.001 146.482C106.746 143.177 107.384 142.033 110.317 141.016C111.975 140.38 113.633 140.126 115.291 139.618C125.366 137.33 135.569 135.677 145.772 133.898C150.745 133.008 155.719 132.245 160.693 130.847C160.948 130.847 161.203 130.847 161.458 130.847C171.278 128.305 181.226 126.017 190.919 123.348C204.82 119.534 218.594 115.594 232.495 112.162C235.556 111.399 238.616 110.764 241.805 110.128C238.872 107.332 229.944 103.391 227.393 103.646C227.649 103.9 227.904 104.281 228.159 104.535C229.306 106.061 229.051 106.696 227.393 107.205C227.138 107.205 226.883 107.332 226.628 107.459C215.405 110.128 204.31 112.67 193.087 115.34C187.985 116.484 183.012 117.628 177.91 118.772C177.528 118.772 177.145 118.772 176.89 119.026C176.507 119.026 176.125 119.026 175.87 119.153L175.487 119.026ZM96.5434 101.739C95.5231 103.137 94.7579 104.662 94.2478 106.315C93.8651 107.205 93.9927 108.094 94.8854 108.73C96.5434 109.874 98.0738 111.145 99.7317 112.416C100.497 113.052 100.88 112.797 101.262 112.035C102.155 110.128 103.175 108.222 104.578 106.442C105.343 105.679 106.108 104.917 107.001 104.408C107.894 103.9 107.639 103.518 107.001 103.137C105.471 102.247 104.068 101.231 102.41 100.341C101.262 99.7052 100.369 98.0527 99.0941 98.5612C97.9462 99.0696 97.3086 100.595 96.6709 101.739C96.6709 101.739 96.6709 101.739 96.6709 101.866L96.5434 101.739ZM158.397 84.7062C157.887 84.7062 157.377 84.7062 156.995 85.0876C156.74 85.0876 156.484 85.0876 156.229 85.0876C144.496 87.7569 133.146 91.3159 121.668 94.7479C121.285 94.7479 120.902 94.7479 120.647 95.0021C119.117 95.1292 117.587 95.7648 116.184 96.2732C114.908 96.6545 113.633 97.2901 112.23 97.163C112.23 96.9088 112.23 96.6546 112.358 96.4003C113.378 95.2563 114.908 94.875 116.184 94.3666C123.453 92.587 130.595 90.172 137.864 88.2653C161.203 81.7827 184.797 76.4441 208.391 71.2326C212.344 70.3428 216.298 69.4531 220.634 68.5633C218.466 67.1651 216.425 66.9109 214.385 67.038C211.962 67.1651 209.666 67.9277 207.243 68.4362C206.988 68.4362 206.605 68.4362 206.35 68.4362H206.095C201.632 68.9446 197.04 69.326 192.577 69.8344C188.113 69.8344 183.777 70.4699 179.313 70.8513C172.936 71.4868 166.687 72.1224 160.438 72.885C156.867 73.2664 153.296 73.6477 149.725 74.029C145.134 74.1561 140.67 74.9188 136.079 75.5543C129.575 76.4441 123.326 78.0965 117.714 81.5285C113.633 84.0707 110.445 87.3755 108.659 91.8244C107.001 96.2732 108.659 99.9594 112.868 100.722C112.868 100.849 112.995 100.849 113.25 100.849C114.526 101.103 115.674 101.358 116.949 101.485C125.621 102.247 134.293 101.485 142.966 100.087C155.337 98.0527 167.58 95.0021 179.823 91.6973C193.979 87.7569 208.008 83.6893 221.272 77.0796C223.695 75.9356 225.991 74.6645 228.796 73.2663C228.031 73.1392 227.649 73.0121 227.266 73.0121C225.48 72.5037 223.567 71.8681 221.654 71.6139C220.634 70.9784 219.231 71.1055 218.339 70.2157C218.083 69.9615 217.701 70.2157 217.446 70.2157C203.545 73.3935 189.643 76.5712 175.742 79.7489C169.876 81.1472 164.009 82.4183 158.27 84.1978L158.397 84.7062ZM121.795 113.56C123.198 113.306 124.601 113.179 126.004 112.797C136.844 110.51 147.302 107.078 158.015 104.154C160.31 103.518 162.479 102.756 164.647 101.612C164.009 101.358 163.499 101.612 162.989 101.612C159.035 102.502 155.209 103.391 151.256 104.154C145.261 105.425 139.012 105.552 132.891 105.934C127.279 106.315 121.54 105.934 115.929 105.425C113.633 105.171 111.465 104.79 109.169 104.535C108.021 105.044 107.129 105.806 106.363 106.823C105.598 107.459 104.961 108.349 104.45 109.111C103.685 110.51 102.92 111.781 102.155 113.179C101.645 114.069 101.007 114.45 99.9868 113.814C97.6912 112.416 95.5231 110.891 93.6101 109.111C92.7173 108.349 92.4623 107.459 92.8449 106.188C93.355 104.154 94.5028 102.502 95.3956 100.722C96.4158 99.5781 97.181 98.307 98.3288 97.163C96.1608 95.6377 94.1202 94.1124 92.0797 92.587C91.0594 94.1124 89.6565 95.2563 89.1464 97.0359C87.9986 99.0696 87.616 99.1967 85.703 97.6714C83.2798 95.7648 80.9842 93.6039 78.306 91.8244C74.9901 89.5364 71.6742 87.2484 68.2308 84.9605C67.5931 84.5791 66.9554 84.0707 67.083 83.1809C67.9757 81.7827 68.7409 80.3845 69.7612 79.1134C70.3989 78.2236 70.3989 77.8423 69.3786 77.2068C66.0627 75.173 62.8743 73.0121 59.5585 70.8513C55.4774 68.3091 55.0948 68.3091 52.0339 72.2495C51.7789 72.5037 51.6513 72.885 51.5238 73.1392C50.8861 74.029 50.2485 74.9188 49.6108 76.0628C48.9731 74.5375 49.6108 73.5206 50.1209 72.3766C51.2687 70.8513 52.289 69.3259 53.947 68.3091C54.7122 67.8006 54.4571 67.5464 53.947 67.1651C52.0339 65.894 50.1209 64.6229 48.3354 63.3518C43.3616 59.6656 38.2603 56.1065 33.2864 52.4203C32.6487 52.039 32.3937 52.1661 31.8835 52.4203C29.2053 54.1999 27.0372 56.4878 25.1242 59.1571C24.6141 59.9198 24.4866 60.3012 25.5068 60.9367C29.2053 62.7163 32.6487 65.0042 35.7096 67.8006C36.9849 68.9446 38.5153 69.9615 39.7907 71.1055C40.6834 69.8344 41.3211 68.6904 42.2138 67.6735C43.8718 65.7669 45.5297 63.9873 48.2079 63.606C48.5905 64.6229 47.6978 65.0042 47.0601 65.3856C45.9123 66.1482 44.7645 66.9108 43.8717 68.0548C42.8515 68.8175 42.3413 69.9615 41.7037 70.9784C40.3008 73.3935 40.0457 73.5206 38.0052 71.741C33.4139 68.0549 28.9503 64.2415 23.5938 61.6993C22.5736 61.1909 22.5735 60.4283 23.0837 59.5385C23.7214 58.1403 24.7416 56.8692 25.7619 55.5981C27.4198 53.9457 28.9503 52.1661 31.1183 50.895C27.6749 48.4799 24.359 46.3191 21.2982 43.904C21.0431 43.6498 20.7881 43.3955 20.2779 43.5227C18.4924 44.1582 16.707 44.7938 15.3041 46.0649C12.1157 48.607 10.9679 52.039 11.0955 55.9794C11.0955 57.1234 11.6056 58.0132 12.6259 58.6487C16.707 61.5722 20.4055 64.8771 24.6141 67.4193C41.5761 77.5881 57.2628 89.5364 73.4597 100.722C84.1725 108.222 94.5028 115.975 105.216 123.348C107.766 125.127 110.445 126.652 113.505 127.796C112.103 121.441 113.633 116.738 117.587 114.196C118.862 113.687 120.265 113.56 121.668 113.306L121.795 113.56ZM126.386 127.924C124.218 127.542 122.05 127.669 119.882 126.907C116.821 125.636 116.439 123.22 118.989 121.187C120.775 119.661 123.07 118.772 125.239 118.263C137.609 114.958 149.853 111.272 161.713 106.442C167.325 104.154 172.426 101.23 178.038 98.5612C177.145 98.4341 176.507 98.5612 175.87 98.5612C172.681 98.9425 170.131 100.722 167.325 102.12C160.183 105.552 152.531 107.586 144.879 109.874C136.717 112.289 128.554 114.831 120.01 115.848C118.097 116.102 116.821 117.119 116.056 118.772C115.418 119.916 114.908 121.06 114.653 122.331C113.633 126.525 114.908 128.305 119.117 129.068C122.433 129.576 125.749 129.068 128.937 128.559C130.467 128.305 131.87 128.051 133.273 127.415C130.978 127.669 128.554 127.796 126.259 128.051L126.386 127.924ZM121.923 104.535C122.815 104.662 123.708 104.917 124.601 104.917C130.723 105.171 136.717 104.535 142.711 104.154C148.705 103.773 154.571 102.374 160.438 100.976C175.36 97.2901 190.409 94.3666 204.692 88.5195C210.176 86.3586 215.533 83.9436 220.889 81.5285C222.42 80.8929 223.695 80.0032 223.822 77.9694C223.312 78.2236 222.93 78.3507 222.547 78.605C216.425 81.4014 210.304 84.452 203.8 86.6129C189.006 91.6973 174.084 95.8919 158.908 99.451C150.618 101.358 142.201 103.137 133.656 103.9C129.702 104.281 125.876 104.408 121.923 104.535ZM160.055 120.551C160.438 120.805 160.821 120.932 161.203 120.551C160.821 120.17 160.438 120.551 160.055 120.551ZM109.297 102.247C109.297 102.247 109.297 102.12 109.297 101.993L109.169 101.739C109.042 101.739 108.914 101.866 109.169 101.993C109.169 101.993 109.169 101.993 109.424 102.12L109.297 102.247Z" fill="#0B0C0C"/>
<path d="M32.6487 30.9388C34.9444 31.0659 37.3675 31.3201 39.6631 31.4472C46.55 31.8285 53.4368 31.4472 60.3237 30.049C68.8685 28.3966 77.6683 27.5068 86.0856 25.473C92.4623 23.9477 98.839 22.1682 104.961 19.626C106.364 18.9905 107.384 19.1176 108.659 20.0073C110.955 21.5326 113.378 23.058 115.673 24.5833C121.54 28.3966 127.789 31.8285 134.166 34.7521C136.462 35.7689 138.63 37.04 140.67 38.3111C151 44.5395 161.586 50.0052 172.426 54.9625C174.212 55.7252 175.997 56.6149 177.655 57.5047C186.327 62.2078 195.765 64.3686 205.458 65.5126C206.86 65.6397 208.391 65.7668 210.049 66.2753C206.35 67.0379 202.907 67.4193 199.336 67.6735C186.2 68.6904 173.191 69.7072 160.055 71.2325C153.041 72.1223 145.899 72.5037 138.885 73.3934C132.125 74.2832 125.621 75.5543 119.372 78.4778C114.016 81.1471 109.679 84.8333 106.874 90.1719C106.746 88.6466 105.726 87.7568 104.45 87.1213C103.175 86.3586 101.9 85.596 100.624 84.7062C91.1869 77.9694 81.6219 71.6139 71.6742 65.894C58.4107 58.2674 45.4022 50.1323 33.2864 40.8533C31.2459 39.328 29.2053 37.6756 27.8024 35.3876C26.7822 33.8623 27.1648 32.8454 28.9503 32.2099C30.0981 31.8285 31.1183 31.5743 32.2661 31.3201L32.6487 30.9388ZM142.328 45.8106C142.201 45.8106 142.073 45.8106 141.946 45.8106C142.201 44.9208 141.563 44.9208 140.925 44.9208C139.65 44.9208 138.375 45.0479 137.099 45.3022C124.601 46.9546 112.613 50.1323 101.007 54.8354C100.369 55.0896 99.6042 55.2167 99.3491 55.9794C99.2216 56.8691 99.9868 57.3776 100.624 57.7589C105.216 60.4282 109.552 63.3517 113.633 66.7837C115.546 68.4361 117.969 69.5801 120.902 68.8175C128.044 66.9108 135.314 65.2584 142.583 63.8602C146.154 63.2246 149.725 62.462 153.296 61.8264C153.806 61.8264 154.316 61.8264 154.699 61.318C154.061 61.0638 153.551 61.318 152.913 61.318C150.363 61.6993 147.812 62.0807 145.261 62.462C147.43 61.318 149.853 60.9367 152.148 60.4282C156.102 59.5384 160.055 59.5385 164.009 58.9029C164.774 58.9029 165.794 60.3011 166.177 59.6656C166.687 58.6487 165.157 58.2674 164.392 57.886C157.632 53.6914 150.49 50.2595 143.603 46.1919C143.221 45.9377 142.711 45.9377 142.328 45.9377V45.8106ZM80.0915 57.2505C81.2393 57.2505 82.132 56.742 83.1523 56.2336C87.4884 54.1999 91.9521 52.1661 96.5434 50.7679C99.3491 49.8781 102.155 49.1155 104.961 48.2257C107.001 47.5902 107.256 46.4462 105.981 44.7937C105.216 43.904 104.323 43.1413 103.43 42.3787C99.7317 39.5822 95.3956 37.5485 91.442 35.1334C89.529 33.9894 87.4884 32.2099 84.9378 33.8623C77.4132 34.7521 70.0163 35.6418 62.4917 36.6587C59.5585 37.04 56.6252 37.5485 53.6919 38.4382C53.0542 38.5654 52.5441 38.8196 52.4165 39.5822C52.4165 40.2178 52.7991 40.5991 53.3093 40.9804C54.0745 41.4889 54.7122 41.8702 55.4774 42.3787C63.512 46.8275 71.4191 51.4034 78.8161 56.742C79.1987 56.9963 79.7089 57.2505 80.219 57.2505H80.0915ZM104.068 77.588C103.813 76.5712 103.43 76.317 103.048 76.0627C99.9868 74.029 97.181 71.4868 93.9927 69.5801C76.648 58.9029 58.5382 49.3697 40.8109 39.2009C39.0255 38.184 36.9849 37.4214 34.9444 36.5316C34.4342 36.2774 33.669 35.6418 33.414 36.2774C33.0313 37.1671 34.1792 37.1672 34.6893 37.4214C36.2197 38.184 37.7501 38.8196 39.2805 39.5822C50.6311 45.3022 61.3439 52.1661 72.5669 58.1403C82.132 63.3518 91.6971 68.6904 100.497 75.173C101.517 75.9356 102.665 76.6983 104.195 77.588H104.068ZM109.424 25.8544C109.042 25.2188 108.404 25.473 107.894 25.7273C104.578 26.9984 101.262 28.2695 97.9463 29.5406C96.5434 30.049 95.1405 30.5574 93.9927 31.4472C93.6101 31.7014 93.0999 31.9556 93.2275 32.4641C93.4825 33.0996 93.9927 32.7183 94.3753 32.4641C99.3491 30.8116 103.94 28.6508 108.659 26.617C109.042 26.4899 109.297 26.2357 109.297 25.7273L109.424 25.8544ZM103.175 41.616C103.558 41.616 103.685 41.616 103.813 41.616C108.787 39.328 113.633 37.1672 118.607 34.8792C118.989 34.7521 119.5 34.4978 119.244 33.9894C118.989 33.3539 118.479 33.7352 118.097 33.9894C114.016 35.6418 109.807 37.2943 105.853 39.328C104.833 39.8365 103.813 40.472 103.175 41.616ZM91.5695 64.4957H91.8246C94.3753 63.8602 96.6709 62.462 98.9665 61.4451C99.3491 61.318 99.6042 60.8095 99.3491 60.4282C98.9665 59.7927 98.4564 59.9198 98.0738 60.174C96.2883 60.9367 94.5028 61.6993 92.8449 62.8433C92.3347 63.2247 91.5695 63.606 91.5695 64.3686V64.4957ZM115.036 41.4889C118.479 40.3449 121.795 39.2009 124.983 37.8027C125.239 37.8027 125.494 37.4214 125.366 37.1671C125.239 36.6587 124.856 36.7858 124.473 36.9129C121.54 37.8027 118.734 38.8196 116.056 40.2178C115.674 40.472 115.163 40.5991 114.908 41.4889H115.036ZM110.19 28.905C110.19 28.3966 109.807 28.1424 109.424 28.2695C107.256 29.2863 104.833 29.9219 102.92 31.3201C102.793 31.4472 102.537 31.7014 102.665 31.9556C102.793 32.337 103.175 32.2099 103.43 32.0828C105.598 31.5743 107.639 30.5574 109.679 29.5406C109.934 29.4134 110.19 29.1592 110.19 28.7779V28.905ZM106.874 70.7241C109.042 70.7241 110.955 70.0886 112.74 69.1988C113.123 69.0717 113.25 68.5633 113.123 68.1819C112.995 67.8006 112.613 67.4193 112.23 67.6735C110.19 68.309 108.277 69.1988 107.001 70.8512L106.874 70.7241ZM95.7782 65.5126C97.8187 65.0042 99.2216 64.2415 100.497 63.3518C100.752 63.0975 101.007 62.8433 100.752 62.462C100.497 62.0807 100.114 61.9536 99.7317 62.2078C98.3288 62.9704 96.926 63.7331 95.6506 65.5126H95.7782ZM122.688 41.9973C124.473 41.9973 126.131 41.2347 127.789 40.5991C128.172 40.472 128.427 40.2178 128.172 39.8365C128.044 39.4551 127.789 39.328 127.407 39.5822C125.749 40.3449 124.091 40.8533 122.688 41.9973ZM107.639 31.8285C109.297 31.8285 110.445 31.193 111.592 30.8117C111.975 30.8117 112.23 30.4303 112.103 30.049C111.975 29.5406 111.465 29.5406 111.082 29.7948C109.934 30.3032 108.914 30.8116 107.639 31.9556V31.8285ZM101.135 66.7837C102.027 66.4024 102.665 66.1482 103.303 65.894C103.685 65.7669 103.94 65.5126 103.685 65.1313C103.43 64.75 103.048 64.8771 102.793 65.1313C102.282 65.5126 101.645 65.7668 101.135 66.7837Z" fill="#FCFCFC"/>
<path d="M50.2485 72.3766C49.8659 73.5205 49.1007 74.6645 49.7383 76.0627C50.376 75.0459 51.0137 74.1561 51.6513 73.1392C52.4165 73.3934 53.0542 73.7747 53.5644 74.4103C53.4368 75.0458 52.6716 75.4272 53.0542 76.3169C53.6919 75.8085 54.202 75.4272 54.7122 74.9188C55.2223 75.3001 55.86 75.8085 56.3701 76.1899C56.3701 76.6983 55.86 77.0796 56.2426 77.8423C56.7527 77.4609 57.1353 77.0796 57.5179 76.6983C60.5787 79.1134 63.8946 81.1471 67.338 83.1809C67.338 84.0707 67.9757 84.5791 68.4858 84.9604C71.8017 87.2484 75.1176 89.5364 78.561 91.8243C81.2393 93.6039 83.5349 95.7647 85.958 97.6714C87.871 99.1967 88.2536 99.0696 89.4014 97.0358C91.6971 97.9256 93.4825 99.578 95.5231 100.722C94.6303 102.502 93.4825 104.154 92.9724 106.188C92.7173 107.332 92.9724 108.349 93.7376 109.111C95.6506 110.891 97.8187 112.416 100.114 113.814C101.007 114.45 101.772 114.069 102.282 113.179C103.048 111.781 103.813 110.382 104.578 109.111C105.088 108.222 105.598 107.459 106.491 106.823C106.874 107.459 107.511 107.713 108.021 107.967C111.337 109.874 114.526 112.289 117.714 114.45C113.76 116.992 112.23 121.695 113.633 128.051C110.572 126.907 107.894 125.381 105.343 123.602C94.6303 116.229 84.1726 108.476 73.5872 100.976C57.3904 89.6635 41.7037 77.7152 24.7416 67.6735C20.4055 65.1313 16.707 61.6993 12.7534 58.9029C11.8607 58.2674 11.3505 57.3776 11.223 56.2336C11.223 52.2932 12.2433 48.8613 15.4316 46.3191C17.2171 48.8613 19.7678 50.7679 22.1909 52.6745C23.4663 53.6914 24.8692 54.4541 25.8894 55.7252C24.9967 56.9963 23.9764 58.1403 23.2112 59.6656C22.8286 60.5554 22.7011 61.318 23.7214 61.8264C29.0778 64.3686 33.5415 68.1819 38.1327 71.8681C40.3008 73.5205 40.4283 73.5205 41.8312 71.1055C42.4689 70.0886 42.979 68.9446 43.9993 68.1819C46.1674 69.5801 48.463 70.7241 50.2485 72.5036V72.3766ZM76.2654 97.0358C76.648 95.6376 76.9031 94.6208 77.1582 93.731C77.1582 93.3497 77.1582 92.8412 76.648 92.8412C76.1379 92.8412 75.7553 93.0954 75.6278 93.6039C75.6278 94.6207 75.3727 95.7648 76.2654 97.163V97.0358ZM72.4394 94.1123C73.0771 93.2225 73.4597 92.7141 73.8423 92.0786C74.0973 91.6972 74.0974 91.3159 73.5872 91.0617C73.0771 90.8075 72.822 91.0617 72.5669 91.443C72.1843 92.2057 71.8017 92.9683 72.3119 94.1123H72.4394Z" fill="#FCFCFC"/>
<path d="M16.707 76.8254C16.0693 77.7152 16.3244 78.6049 17.0896 79.3676C17.4722 79.7489 17.8548 80.0031 18.3649 80.2573C24.6141 83.5622 30.3531 87.6297 36.2197 91.5701C37.24 92.3328 38.1327 92.4599 38.8979 91.1888C40.6834 91.9514 42.0863 93.2225 43.7442 94.2394C43.7442 95.0021 43.7442 95.8919 44.892 95.1292C45.1471 95.2563 45.4022 95.3834 45.6572 95.5105C58.1556 103.646 71.1641 111.018 83.9175 118.899C90.0391 122.712 96.2883 126.525 102.282 130.593C105.471 132.881 108.659 135.169 112.103 137.33C113.123 137.965 114.526 138.219 115.163 139.491C113.505 139.999 111.847 140.253 110.19 140.889C107.256 141.906 106.619 143.05 106.874 146.354C104.195 144.448 101.517 142.541 98.9665 140.635C89.6565 133.516 80.219 126.78 70.3989 120.297C54.5846 109.747 37.8776 100.468 22.0634 89.9177C16.707 86.3586 11.4781 82.5453 6.75931 78.0965C7.01437 75.8085 7.26944 73.5205 9.18246 71.9952C10.0752 71.3597 10.7129 71.3597 11.6056 71.9952C13.2636 73.2663 14.794 74.7916 16.707 75.6814C16.707 76.0627 16.3244 76.4441 16.707 76.8254Z" fill="#FCFCFC"/>
<path d="M32.6487 30.9388C31.5009 31.193 30.3531 31.4472 29.3329 31.8285C27.6749 32.4641 27.2923 33.4809 28.1851 35.0063C29.5879 37.1671 31.6285 38.8196 33.669 40.472C45.7848 49.8781 58.7933 57.886 72.0568 65.5126C82.0045 71.2325 91.6971 77.5881 101.007 84.3249C102.282 85.2146 103.558 85.9773 104.833 86.7399C106.108 87.5026 107.001 88.2653 107.256 89.7906C105.726 93.4768 105.471 97.1629 107.894 100.595L107.511 100.849C102.793 98.0527 98.7115 94.7479 94.3753 91.443C85.8305 85.0875 76.9031 79.2405 67.9757 73.3934C56.3701 65.8939 45.2746 57.6318 33.9241 49.751C29.3329 46.4461 24.7416 43.2684 20.2779 39.7093C16.4519 36.6587 17.5997 34.6249 20.7881 32.7183C24.4866 30.4303 28.5677 30.3032 32.7763 30.8116L32.6487 30.9388Z" fill="#AFE7F8"/>
<path d="M240.402 114.323C240.785 114.577 241.04 114.831 241.677 115.34C238.872 115.848 236.321 116.484 233.898 116.865C215.66 119.789 198.316 126.144 181.099 132.627C162.479 139.618 143.603 145.846 124.473 151.185C121.285 152.074 117.969 152.837 114.526 152.074C113.378 151.82 111.975 151.566 111.465 150.549C110.572 148.77 108.787 147.371 108.532 145.21C108.532 144.066 109.169 143.431 110.062 143.05C112.868 141.906 115.801 141.27 118.734 140.635C130.723 138.219 142.711 135.804 154.571 133.389C167.963 130.593 181.099 126.907 194.362 123.475C194.745 123.475 195 123.475 195.382 123.348C195.765 123.348 196.275 123.475 196.53 122.966C198.316 122.966 199.846 122.458 201.504 121.822C201.887 121.822 202.269 121.822 202.779 121.822C209.539 120.424 216.17 118.899 222.93 117.501C228.669 116.229 234.535 115.085 240.402 114.323Z" fill="#AEE6F6"/>
<path d="M117.204 130.339C123.581 131.61 129.702 130.211 135.824 128.813C136.972 128.559 138.247 128.305 139.395 128.051C141.18 128.051 142.966 127.669 144.624 127.288C153.296 125.254 161.841 123.093 170.513 120.933C172.171 120.551 174.084 120.424 175.487 119.153C175.87 119.407 176.252 119.407 176.507 119.026C176.89 119.026 177.273 119.026 177.528 118.772C182.629 117.628 187.603 116.611 192.704 115.34C203.927 112.797 215.023 110.128 226.246 107.459C226.501 107.459 226.756 107.459 227.011 107.205C228.796 106.696 229.051 105.934 227.776 104.535C227.521 104.281 227.266 103.9 227.011 103.646C229.689 103.391 238.489 107.332 241.422 110.128C238.234 110.764 235.173 111.399 232.112 112.162C218.211 115.594 204.31 119.661 190.536 123.348C180.716 126.017 170.896 128.305 161.076 130.847C160.821 130.847 160.566 130.847 160.31 130.847C158.78 130.593 157.122 130.974 155.592 131.228C151.256 131.864 146.792 132.118 142.456 132.627C138.63 133.008 134.804 133.516 130.978 133.643C127.534 133.771 124.346 133.643 121.03 132.627C119.627 132.245 117.969 131.737 117.076 130.339L117.204 130.339Z" fill="#FCFCFC"/>
<path d="M117.204 130.339C118.097 131.737 119.755 132.118 121.157 132.627C124.346 133.643 127.662 133.771 131.105 133.643C134.931 133.516 138.757 133.008 142.583 132.627C146.919 132.118 151.383 131.864 155.719 131.228C157.25 130.974 158.78 130.593 160.438 130.847C155.592 132.245 150.49 133.008 145.516 133.898C135.314 135.677 125.111 137.33 115.036 139.618C114.398 138.346 113.123 138.092 111.975 137.457C108.532 135.423 105.471 133.008 102.155 130.72C96.1608 126.525 89.9116 122.839 83.79 119.026C71.0365 111.145 58.028 103.9 45.5297 95.6376C45.2746 95.5105 45.0196 95.3834 44.7645 95.2563C45.4022 92.0786 47.1876 89.6635 49.2282 87.2484C49.8659 86.4857 50.2485 87.2484 50.6311 87.5026C53.947 89.9177 57.0078 92.587 60.4512 94.7479C71.8017 101.866 82.132 110.382 93.355 117.755C98.2013 120.933 102.793 124.364 107.894 127.161C109.679 128.178 111.592 128.94 113.378 129.703C114.398 130.084 115.546 129.322 116.311 130.339C116.439 130.593 116.821 130.72 117.076 130.593L117.204 130.339ZM48.9731 95.5105L49.3557 95.7648C50.2485 94.4937 51.1412 93.2226 51.9064 91.9515C52.1615 91.6973 52.1615 91.3159 51.9064 91.0617C51.6513 90.8075 51.2687 91.0617 51.1412 91.3159C50.1209 92.587 49.2282 93.9852 48.9731 95.6376V95.5105ZM52.0339 98.4341C52.7991 97.0359 53.3093 96.019 53.8194 95.0021C54.0745 94.6208 54.0745 94.2394 53.5644 93.9852C53.1818 93.8581 52.9267 94.1123 52.7991 94.4937C52.289 95.6377 51.7789 96.6545 52.0339 98.4341Z" fill="#AFE7F7"/>
<path d="M227.393 73.3934C227.776 73.3934 228.031 73.5206 228.924 73.6477C226.118 75.0459 223.822 76.1899 221.399 77.461C208.263 84.0707 194.107 88.1382 179.951 92.0786C167.835 95.3834 155.592 98.434 143.093 100.468C134.549 101.866 125.876 102.629 117.076 101.866C115.801 101.866 114.526 101.358 113.378 101.23C113.378 101.23 113.123 101.103 112.995 100.976C112.995 99.5781 111.975 98.5612 112.23 97.163C113.633 97.2901 114.908 96.6545 116.184 96.2732C117.714 95.7648 119.117 95.2563 120.647 95.0021C120.137 95.8919 118.989 95.8919 118.224 96.4003C117.714 96.7816 116.949 96.9087 117.204 97.6714C117.459 98.3069 118.224 98.0527 118.862 97.9256C120.902 97.29 123.07 96.6545 125.111 95.8919C139.267 91.1888 153.806 87.8839 168.6 85.3417C181.099 83.1809 193.469 80.5116 205.84 77.7151C209.029 76.9525 212.089 76.1899 215.278 75.5543C215.278 75.8085 215.023 75.9356 214.895 76.0627C207.243 79.1134 199.463 81.7827 191.429 83.8164C183.777 85.7231 175.997 87.2484 168.345 89.155C158.015 91.6972 147.557 93.8581 137.099 95.8919C136.334 96.019 135.059 95.8919 135.186 96.9087C135.314 97.9256 136.589 97.4172 137.227 97.29C141.435 96.6545 145.772 96.019 149.98 95.1292C162.223 92.587 174.467 89.9177 186.71 87.1213C198.316 84.5791 209.539 80.6387 220.634 76.1899C222.93 75.3001 225.225 74.6645 227.266 73.2663L227.393 73.3934Z" fill="#AFE7F7"/>
<path d="M213.875 87.5026C209.794 89.5364 205.585 91.6972 201.504 93.6039C189.643 99.3238 177.91 105.298 165.667 110.128C157.632 113.306 149.598 116.738 141.435 119.534C140.67 119.788 140.033 120.17 139.14 120.551C141.053 120.932 142.711 120.043 144.369 119.534C162.096 113.687 179.313 106.315 196.02 97.9256C197.933 96.9087 199.846 96.1461 201.887 95.2563C201.887 95.8919 201.376 95.8918 200.994 96.1461C195.127 99.578 189.006 102.629 182.884 105.679C174.467 109.874 166.432 114.577 158.015 118.772C157.505 119.026 156.867 119.153 156.74 119.916C156.484 119.788 156.229 119.916 156.102 120.17C148.067 122.585 140.033 124.873 131.743 125.89C128.427 126.271 125.111 126.525 121.795 125.89C121.54 125.89 121.285 125.636 120.902 125.636C120.902 125.508 120.647 125.381 120.52 125.508C120.647 124.492 119.882 123.983 119.372 123.348C120.902 121.568 123.07 120.678 125.239 120.17C132.38 118.136 139.522 116.484 146.537 114.069C152.913 111.908 159.163 109.493 165.157 106.442C170.131 103.9 175.232 101.612 179.951 98.5611C182.884 96.6545 186.327 96.1461 189.643 95.3834C190.026 95.3834 190.664 95.5105 190.919 95.0021C191.301 95.0021 191.684 95.1292 191.939 94.7478C192.577 94.7478 193.214 94.7479 193.852 94.4937C198.698 92.8412 203.417 91.443 208.136 89.5364C210.176 88.7737 212.089 87.6297 214.257 87.5026H213.875Z" fill="#ADE4F5"/>
<path d="M227.393 73.3934C225.353 74.9187 223.057 75.4272 220.762 76.3169C209.794 80.8929 198.571 84.7062 186.838 87.2484C174.594 89.9177 162.351 92.587 150.108 95.2563C145.899 96.1461 141.69 96.7816 137.354 97.4172C136.717 97.4172 135.441 98.0527 135.314 97.0358C135.186 96.019 136.462 96.1461 137.227 96.0189C147.685 93.9852 158.142 91.6972 168.473 89.2821C176.125 87.3755 183.904 85.9773 191.556 83.9435C199.591 81.9098 207.371 79.2405 215.023 76.1899C215.15 76.1899 215.278 75.9356 215.405 75.6814C212.217 76.444 209.156 77.2067 205.968 77.8423C193.597 80.6387 181.226 83.308 168.728 85.4688C154.061 88.011 139.522 91.3159 125.239 96.0189C123.198 96.6545 121.03 97.2901 118.989 98.0527C118.352 98.1798 117.714 98.4341 117.331 97.7985C116.949 97.0359 117.842 96.9087 118.352 96.5274C119.117 96.019 120.265 96.019 120.775 95.1292C121.157 95.2563 121.54 95.1292 121.795 94.875C133.273 91.443 144.624 87.8839 156.357 85.2146C156.612 85.2146 156.867 85.2146 157.122 85.2146C157.632 85.2146 158.142 85.4689 158.525 84.8333C159.035 84.8333 159.418 84.8333 159.928 84.8333C164.136 84.0706 168.345 83.308 172.681 82.4182C182.246 80.6387 191.684 78.732 201.121 76.6983C208.136 75.173 215.023 73.2663 222.037 72.1223C223.95 72.5037 225.735 73.0121 227.648 73.5205L227.393 73.3934Z" fill="#FAFCFD"/>
<path d="M192.704 69.9614C197.168 69.453 201.759 69.0717 206.223 68.5633C206.223 68.8175 205.968 68.9446 205.713 69.0717C203.927 69.5801 202.142 69.9614 200.356 70.597C194.617 72.3765 188.878 74.029 183.012 75.0458C172.681 76.9525 162.351 78.9863 152.021 81.2742C141.818 83.6893 131.87 87.1213 121.795 90.299C120.01 90.9346 118.224 91.6972 116.439 92.4599C115.418 92.9683 115.163 93.6039 116.439 94.2394C115.036 94.875 113.633 95.2563 112.613 96.2732C112.23 96.019 111.975 95.6376 112.103 95.2563C112.358 93.9852 112.485 92.7141 112.995 91.5701C114.143 89.155 116.184 87.5026 118.224 85.9773C121.03 83.9435 123.836 81.7827 127.152 80.6387C132.38 78.8592 137.864 78.0965 143.348 77.3338C148.832 76.6983 154.316 76.5712 159.8 75.8085C166.177 74.9187 172.299 73.5205 178.548 72.1223C179.058 72.1223 179.568 71.8681 179.441 71.2325C181.354 70.597 183.394 70.9783 185.307 70.597C187.73 70.2157 190.153 70.2157 192.577 69.7072L192.704 69.9614Z" fill="#B0E8F8"/>
<path d="M116.311 94.2394C115.036 93.6039 115.291 92.9683 116.311 92.4599C118.097 91.6972 119.882 90.9345 121.668 90.299C131.615 87.1213 141.563 83.5622 151.893 81.2742C162.096 78.8591 172.554 76.9525 182.884 75.0458C188.751 74.0289 194.49 72.3765 200.229 70.597C202.014 70.0885 203.8 69.5801 205.585 69.0717C205.84 69.0717 206.095 68.9446 206.095 68.5633H206.35C206.733 68.8175 206.988 68.8175 207.243 68.5633C209.666 68.0548 211.962 67.2922 214.385 67.165C216.298 67.0379 218.466 67.165 220.634 68.6903C216.298 69.5801 212.344 70.4699 208.391 71.3596C184.797 76.6983 161.203 81.9098 137.864 88.3924C130.595 90.4261 123.453 92.8412 116.184 94.4936L116.311 94.2394Z" fill="#F3F8FA"/>
<path d="M17.5997 76.444C18.1098 73.7747 19.5127 71.4868 20.9156 69.1988C21.4257 68.1819 22.1909 68.8175 22.8286 69.1988C29.3329 73.3934 35.8371 77.4609 42.3413 81.6556C42.5964 81.7827 42.8515 81.9098 43.1065 82.0369C43.2341 82.2911 43.1065 82.4182 43.1065 82.6725C41.1935 83.308 40.3008 84.9604 39.5356 86.6129C38.8979 87.7569 38.3878 89.1551 37.8776 90.299C33.414 87.3755 28.9503 84.452 24.6141 81.4013C22.3185 79.7489 19.7678 78.3507 17.5997 76.444Z" fill="#AFE7F7"/>
<path d="M179.568 71.3597C179.568 71.9952 179.186 72.1223 178.675 72.2494C172.426 73.6477 166.305 75.0458 159.928 75.9356C154.444 76.6983 148.96 76.6983 143.476 77.461C137.992 78.0965 132.508 78.8591 127.279 80.7658C123.963 81.9098 121.157 84.0706 118.352 86.1044C116.184 87.6297 114.271 89.155 113.123 91.6972C112.613 92.8412 112.485 94.1123 112.23 95.3834C112.23 95.7647 112.23 96.1461 112.74 96.4003C112.74 96.6545 112.74 96.9087 112.613 97.163C112.485 98.5612 113.505 99.7052 113.378 100.976C109.297 100.086 107.511 96.5274 109.169 92.0786C110.827 87.5026 114.016 84.1978 118.224 81.7827C123.836 78.3507 130.085 76.6983 136.589 75.8085C141.18 75.173 145.644 74.4103 150.235 74.2832C153.169 74.4103 156.102 73.9019 159.035 73.6477C162.479 73.3934 165.922 73.0121 169.238 72.6308C172.809 72.2494 176.38 71.8681 179.951 71.4868L179.568 71.3597Z" fill="#F3F8FA"/>
<path d="M156.74 119.916C156.74 119.153 157.505 119.026 158.015 118.772C166.305 114.577 174.467 109.874 182.884 105.679C189.006 102.629 195.127 99.578 200.994 96.1461C201.376 95.8918 201.887 95.8919 201.887 95.2563C202.142 95.2563 202.397 95.2563 202.524 95.0021C202.779 95.0021 202.907 95.0021 202.907 94.7478C207.753 92.2057 212.472 89.7906 217.446 87.5026C218.083 87.2484 218.466 87.2484 218.849 87.7568C219.614 88.6466 220.252 89.6635 219.869 90.9346C218.849 93.4768 219.104 95.5105 222.42 96.7816C214.64 101.103 206.733 104.027 198.698 106.442C198.698 105.806 199.336 105.679 199.719 105.552C202.269 104.408 204.82 103.264 207.371 102.12C210.686 100.468 214.13 98.8154 217.573 97.163C215.788 95.7648 215.023 94.1123 215.66 91.9515C214.512 92.3328 213.62 92.8412 212.727 93.3497C208.136 96.019 203.545 98.5611 198.953 101.103C192.449 104.535 185.435 107.078 178.803 110.255C174.722 112.289 170.641 114.069 166.56 116.102C165.539 116.611 164.264 116.611 163.626 117.755C163.244 117.755 162.861 117.755 162.606 118.136C160.566 118.772 158.653 119.407 156.612 120.043L156.74 119.916Z" fill="#F9FBFC"/>
<path d="M204.31 111.272C198.316 112.67 192.322 114.069 186.327 115.467C178.42 117.246 170.513 118.772 162.606 120.297C162.223 120.297 161.841 120.551 161.076 120.17C169.62 117.373 177.783 114.704 186.072 112.035C186.455 112.797 187.093 112.416 187.73 112.289C191.174 111.145 194.745 110.128 198.188 108.857C199.336 108.476 200.739 108.476 201.504 107.332C201.759 107.332 202.014 107.332 202.269 107.078C202.652 107.078 203.034 107.078 203.162 106.696C208.646 104.79 214.002 102.502 219.359 100.086C220.124 101.612 220.889 103.264 221.909 104.79C222.93 106.188 222.675 106.823 220.889 107.078C216.936 107.459 213.11 108.476 209.284 109.62C208.008 110.001 206.35 110.001 205.33 111.272C204.947 111.145 204.565 111.018 204.31 111.526V111.272Z" fill="#AEE6F6"/>
<path d="M48.2079 63.606C45.5297 63.9873 43.7442 65.7669 42.2138 67.6735C41.3211 68.6904 40.6834 69.9615 39.7907 71.1055C38.3878 69.9615 36.9849 68.9446 35.7096 67.8006C32.6487 65.1313 29.2053 62.8434 25.5068 60.9367C24.4866 60.4283 24.4866 60.0469 25.1242 59.1571C26.9097 56.4878 29.0778 54.1999 31.8835 52.4203C32.3937 52.039 32.7763 51.9119 33.2864 52.4203C38.2603 56.1065 43.3616 59.6656 48.3354 63.3518C48.3354 63.3518 48.3354 63.606 48.3354 63.7331L48.2079 63.606Z" fill="#AEE6F6"/>
<path d="M163.626 117.628C164.264 116.484 165.539 116.484 166.56 115.975C170.641 113.941 174.722 112.162 178.803 110.128C185.435 106.823 192.322 104.408 198.953 100.976C203.672 98.5612 208.263 95.8919 212.727 93.2226C213.62 92.7141 214.512 92.2057 215.66 91.8243C215.023 93.9852 215.66 95.6376 217.573 97.0359C214.002 98.8154 210.686 100.468 207.371 101.993C204.82 103.137 202.269 104.281 199.719 105.425C199.336 105.679 198.698 105.679 198.698 106.315C198.316 106.315 197.933 106.315 197.678 106.696C190.791 108.857 183.904 111.018 177.017 113.306C172.936 114.577 168.855 115.975 164.774 117.373C164.392 117.373 164.136 117.501 163.754 117.628H163.626Z" fill="#AFE7F8"/>
<path d="M129.065 128.559C125.749 129.195 122.56 129.576 119.244 129.068C115.036 128.305 113.888 126.525 114.781 122.331C115.036 121.06 115.546 119.916 116.184 118.772C117.076 117.119 118.352 116.102 120.137 115.848C128.682 114.831 136.844 112.289 145.006 109.874C152.531 107.586 160.31 105.552 167.452 102.12C170.258 100.849 172.809 98.9425 175.997 98.5612C176.635 98.5612 177.273 98.4341 178.165 98.5612C172.554 101.23 167.325 104.154 161.841 106.442C149.98 111.145 137.737 114.958 125.366 118.263C123.07 118.899 120.902 119.661 119.117 121.187C116.566 123.22 117.076 125.636 120.01 126.907C122.05 127.796 124.346 127.669 126.514 127.924C127.407 128.178 128.427 127.924 129.192 128.559H129.065Z" fill="#F3F6F7"/>
<path d="M121.923 104.535C125.749 104.281 129.702 104.154 133.656 103.9C142.201 103.137 150.49 101.358 158.908 99.451C174.084 96.019 189.133 91.6973 203.8 86.6129C210.304 84.452 216.425 81.4014 222.547 78.605C222.93 78.4779 223.312 78.2236 223.822 77.9694C223.822 80.0032 222.42 80.7658 220.889 81.5285C215.533 83.9436 210.176 86.2315 204.692 88.5195C190.409 94.3666 175.36 97.2901 160.438 100.976C154.571 102.374 148.705 103.773 142.711 104.154C136.717 104.535 130.595 105.171 124.601 104.917C123.708 104.917 122.815 104.662 121.923 104.535Z" fill="#F4F4F4"/>
<path d="M109.169 104.662C111.465 104.917 113.633 105.298 115.929 105.552C121.54 106.188 127.152 106.442 132.891 106.061C139.012 105.679 145.261 105.552 151.256 104.281C155.209 103.518 159.035 102.629 162.989 101.739C163.499 101.739 164.009 101.485 164.647 101.739C162.479 102.883 160.183 103.646 158.015 104.281C147.43 107.205 136.844 110.637 126.004 112.925C124.601 113.179 123.198 113.433 121.795 113.687C121.795 112.925 121.54 112.416 121.03 111.908C119.5 110.382 117.459 109.365 115.673 108.221C113.633 106.95 111.21 106.188 109.169 104.662Z" fill="#F9FBFC"/>
<path d="M16.707 75.6814C14.794 74.7916 13.136 73.3934 11.6056 71.9952C10.7129 71.2325 10.0752 71.2325 9.18246 71.9952C7.14191 73.5205 7.01437 75.8085 6.75931 78.0965C5.2289 76.9525 3.69849 75.8085 2.67822 74.029C2.16808 73.2663 2.16808 72.3765 2.55068 71.6139C4.59123 67.2922 7.65205 64.1144 12.2433 62.462C12.881 62.2077 13.3911 62.2078 13.9012 62.7162C16.0693 64.2415 18.1098 65.8939 20.2779 67.4192C20.6605 67.6735 20.9156 67.8006 20.4055 68.309C18.62 70.4699 17.5997 73.1392 16.707 75.6814Z" fill="#AEE6F6"/>
<path d="M83.2798 93.6039C78.6886 90.4261 74.0973 87.2484 69.3786 84.1977C68.6134 83.6893 68.4858 83.308 69.1235 82.6724C69.8887 81.6555 70.5264 80.6387 71.2916 79.4947C71.5467 79.1133 71.8017 78.732 72.3119 79.2405C78.4335 83.6893 85.0653 87.5026 91.0594 92.0786C91.0594 92.0786 91.0594 92.0785 91.0594 92.3328C89.6565 93.3496 88.8913 94.875 87.9986 96.1461C87.3609 95.8918 86.8508 95.5105 86.2131 95.2563C85.5754 95.0021 85.0653 94.1123 84.045 94.4936C84.1725 93.9852 83.9175 94.1123 83.5349 93.9852C83.4073 93.9852 83.1523 93.731 83.0247 93.6039H83.2798Z" fill="#ADE4F5"/>
<path d="M67.2105 83.308C63.8946 81.2742 60.4512 79.3676 57.3904 76.8254C57.5179 76.0627 59.0483 75.3001 58.1556 74.6645C57.0078 74.029 57.0078 75.5543 56.4976 76.1899C55.9875 75.8085 55.3498 75.3001 54.8397 74.9188C55.4774 74.2832 56.115 73.6477 56.7527 73.0121C57.0078 72.7579 57.6455 72.3765 57.1353 71.8681C56.7527 71.3596 56.2426 71.8681 55.9875 72.1223C55.2223 72.885 54.4571 73.6476 53.6919 74.4103C53.1818 73.7747 52.5441 73.3934 51.7789 73.1392C51.9064 72.885 52.1615 72.5037 52.289 72.2494C55.3498 68.309 55.7324 68.309 59.8135 70.8512C63.1294 73.0121 66.3178 75.173 69.6337 77.2067C70.6539 77.8423 70.6539 78.3507 70.0163 79.1134C68.996 80.3845 68.2308 81.7827 67.338 83.1809L67.2105 83.308Z" fill="#ADE4F5"/>
<path d="M221.909 71.9952C214.895 73.1392 208.008 75.0459 200.994 76.5712C191.556 78.6049 182.119 80.6387 172.554 82.2911C168.345 83.0538 164.136 83.8164 159.8 84.7062C159.418 84.7062 158.908 84.7062 158.397 84.7062C164.136 82.9267 170.003 81.6556 175.87 80.2574C189.771 76.9525 203.672 73.9019 217.573 70.7241C217.828 70.7241 218.211 70.3428 218.466 70.7241C219.359 71.6139 220.762 71.4868 221.782 72.1223L221.909 71.9952Z" fill="#ADE4F5"/>
<path d="M25.7619 55.5981C24.7416 54.327 23.2112 53.5643 22.0634 52.5474C19.6403 50.6408 17.2171 48.7341 15.3041 46.1919C16.707 44.7937 18.4924 44.1582 20.2779 43.6497C20.7881 43.5226 21.0431 43.6497 21.2982 44.0311C24.359 46.4461 27.6749 48.7341 31.1183 51.0221C28.9503 52.2932 27.4198 53.9456 25.7619 55.7252V55.5981Z" fill="#AEE6F6"/>
<path d="M104.578 106.315C103.303 108.094 102.282 110.001 101.262 111.908C100.88 112.797 100.497 112.925 99.7317 112.289C98.0738 111.018 96.5434 109.747 94.8854 108.603C93.9927 107.967 93.8652 107.078 94.2478 106.188C94.8854 104.535 95.5231 103.01 96.5434 101.612C97.3086 101.993 97.9462 102.247 98.7115 102.756C100.624 104.027 102.793 104.79 104.578 106.315Z" fill="#FCFCFC"/>
<path d="M240.402 114.323C234.535 115.213 228.796 116.229 222.93 117.501C216.17 118.899 209.539 120.424 202.779 121.822C202.397 121.822 202.014 121.822 201.504 121.822V121.568C208.901 119.28 216.425 117.5 223.822 115.467C229.051 114.069 234.408 112.797 239.637 111.653C240.019 111.653 240.402 111.399 240.912 111.653C240.019 112.416 239.637 113.179 240.274 114.323L240.402 114.323Z" fill="#F3F6F7"/>
<path d="M109.169 104.662C111.21 106.188 113.505 106.95 115.673 108.221C117.459 109.365 119.5 110.255 121.03 111.908C121.54 112.416 121.923 112.925 121.795 113.687C120.392 113.941 118.989 114.069 117.714 114.577C114.526 112.416 111.337 110.128 108.021 108.094C107.511 107.713 106.874 107.459 106.491 106.95C107.256 105.934 108.277 105.298 109.297 104.662L109.169 104.662Z" fill="#AFE7F7"/>
<path d="M43.7442 94.2394C42.0863 93.2225 40.6834 91.9514 38.8979 91.1888C39.9182 88.011 41.5761 85.2146 43.9993 82.9267H44.2544C45.4022 83.6893 46.4224 84.452 47.5702 85.0875C48.3354 85.596 48.463 85.8502 47.8253 86.6128C45.7848 88.7737 44.2544 91.1888 43.7442 94.2394Z" fill="#ADE4F5"/>
<path d="M48.2079 63.606C48.2079 63.606 48.2079 63.3518 48.2079 63.2246C50.1209 64.4957 51.9064 65.7668 53.8194 67.0379C54.4571 67.4193 54.5846 67.6735 53.8194 68.1819C52.289 69.1988 51.1412 70.7241 49.9934 72.2494C48.2079 70.4699 45.9123 69.3259 43.7442 67.9277C44.637 66.7837 45.7848 66.1482 46.9326 65.2584C47.5702 64.8771 48.463 64.4958 48.0804 63.4789L48.2079 63.606Z" fill="#ADE4F5"/>
<path d="M205.458 111.145C206.478 109.874 208.008 109.874 209.411 109.493C213.237 108.349 216.936 107.332 221.017 106.95C222.802 106.823 223.057 106.188 222.037 104.662C221.017 103.137 220.379 101.612 219.486 99.9594C220.507 98.9425 222.292 99.0696 223.057 97.5443C223.057 97.2901 223.95 97.9256 224.333 98.307C224.333 98.4341 224.333 98.5612 224.078 98.6883C221.527 100.849 221.527 101.103 224.205 102.883C224.97 103.391 225.608 103.9 226.246 104.535C226.628 104.79 226.883 105.171 227.266 105.806C219.869 107.84 212.727 109.493 205.458 111.145Z" fill="#F4F4F4"/>
<path d="M104.578 106.315C102.793 104.79 100.624 104.027 98.7115 102.756C98.0738 102.374 97.3086 101.993 96.5434 101.612C96.5434 101.612 96.5434 101.612 96.5434 101.485C97.181 100.341 97.9462 98.8154 98.9665 98.3069C100.242 97.7985 101.135 99.4509 102.282 100.086C103.813 100.976 105.343 101.993 106.874 102.883C107.511 103.264 107.766 103.518 106.874 104.154C105.981 104.662 105.216 105.552 104.45 106.188L104.578 106.315Z" fill="#ADE4F5"/>
<path d="M95.3956 100.849C93.2275 99.7052 91.442 98.0527 89.2739 97.163C89.7841 95.3834 91.1869 94.2394 92.2072 92.7141C94.2478 94.2394 96.2883 95.7647 98.4564 97.29C97.3086 98.3069 96.4158 99.7052 95.5231 100.849H95.3956Z" fill="#ADE4F5"/>
<path d="M175.487 119.026C174.084 120.297 172.171 120.424 170.513 120.805C161.968 122.966 153.296 125.127 144.624 127.161C142.966 127.542 141.18 127.924 139.395 127.924C146.792 125.508 154.189 123.602 161.841 121.822C166.432 120.805 170.896 119.661 175.487 118.899V119.026Z" fill="#ADE4F5"/>
<path d="M17.5997 76.444C19.6403 78.4778 22.1909 79.876 24.6141 81.4013C28.9503 84.452 33.414 87.3755 37.8776 90.299C37.495 91.443 36.9849 90.6804 36.4748 90.299C33.9241 88.6466 31.5009 86.9942 28.9503 85.3418C25.7619 83.1809 22.3185 81.2743 19.0026 79.3676C18.1098 78.8592 16.962 78.3508 17.2171 76.8254C17.2171 76.5712 16.962 76.5712 16.707 76.6983C17.3446 77.0796 17.3446 76.4441 17.5997 76.1899V76.444Z" fill="#F4F4F4"/>
<path d="M179.568 71.3597C175.997 71.741 172.426 72.1223 168.855 72.5036C165.412 72.885 161.968 73.1392 158.653 73.5205C155.719 73.7748 152.786 74.2832 149.853 74.1561C153.424 73.7748 156.995 73.3934 160.566 73.0121C166.815 72.3766 173.191 71.6139 179.441 70.9784C183.777 70.597 188.24 69.9614 192.704 69.9614C190.281 70.4699 187.858 70.4699 185.435 70.8512C183.522 71.1055 181.481 70.8512 179.568 71.4868L179.568 71.3597Z" fill="#F4F4F4"/>
<path d="M213.875 87.5026C211.579 87.5026 209.666 88.7737 207.753 89.5364C203.034 91.443 198.188 92.9683 193.469 94.4937C192.832 94.7479 192.194 94.7479 191.556 94.7479C198.061 92.3328 204.692 90.1719 211.069 87.5026C212.599 86.8671 214.13 86.2315 215.66 85.4689C216.298 85.2146 216.553 85.4688 216.808 85.8502C217.191 86.6128 216.426 86.4857 216.17 86.6128C215.66 86.8671 215.15 86.9942 214.64 87.2484C214.385 87.2484 214.13 87.2484 214.002 87.5026L213.875 87.5026Z" fill="#F4F4F4"/>
<path d="M201.504 107.205C200.739 108.349 199.336 108.349 198.188 108.73C194.745 110.001 191.301 111.018 187.73 112.162C187.22 112.289 186.582 112.797 186.072 111.908C191.174 110.255 196.275 108.73 201.376 107.078L201.504 107.205Z" fill="#F4F4F4"/>
<path d="M129.065 128.559C128.299 127.924 127.279 128.178 126.386 127.924C128.682 127.669 131.105 127.542 133.401 127.288C131.998 128.051 130.467 128.178 129.065 128.432L129.065 128.559Z" fill="#ADE4F5"/>
<path d="M84.3001 94.4937C85.1928 94.1123 85.703 95.0021 86.4682 95.2563C87.1058 95.5106 87.616 95.8919 88.2536 96.1461C88.1261 96.9088 87.871 97.4172 86.9783 96.6545C86.0856 95.8919 85.1928 95.2563 84.3001 94.4937Z" fill="#F4F4F4"/>
<path d="M201.632 121.695V121.949C200.101 122.585 198.443 123.093 196.658 123.093C198.188 122.458 199.974 122.076 201.632 121.695Z" fill="#F4F4F4"/>
<path d="M119.117 123.348C119.627 123.983 120.392 124.492 120.265 125.508C119.372 125.127 118.479 124.619 119.117 123.348Z" fill="#F3F6F7"/>
<path d="M161.203 120.551C160.821 120.17 160.438 120.551 160.055 120.551C160.438 120.805 160.821 120.932 161.203 120.551Z" fill="#AEE6F6"/>
<path d="M158.397 84.7062C158.015 85.3418 157.505 85.0876 156.995 85.0876C157.377 84.7062 157.887 84.8333 158.397 84.7062Z" fill="#ADE4F5"/>
<path d="M43.1065 82.6725C43.1065 82.4182 43.3616 82.2911 43.1065 82.0369C43.2341 82.0369 43.4892 82.164 43.4892 82.2911C43.4892 82.5453 43.2341 82.5453 42.979 82.6724L43.1065 82.6725Z" fill="#161718"/>
<path d="M190.536 95.0021C190.281 95.5105 189.643 95.2563 189.261 95.3834C189.643 95.0021 190.026 95.1292 190.536 95.0021Z" fill="#F4F4F4"/>
<path d="M191.556 94.7479C191.301 95.1292 190.919 95.0021 190.536 95.0021C190.791 94.6208 191.174 94.7479 191.556 94.7479Z" fill="#F4F4F4"/>
<path d="M203.162 106.696C202.907 107.205 202.524 106.95 202.269 107.078C202.524 106.823 202.907 106.823 203.162 106.696Z" fill="#F4F4F4"/>
<path d="M121.795 94.7479C121.54 95.1292 121.157 95.1292 120.775 95.0021C121.03 94.7479 121.413 94.7479 121.795 94.7479Z" fill="#AFE7F7"/>
<path d="M207.498 68.4362C207.243 68.8175 206.86 68.8175 206.605 68.4362C206.86 68.4362 207.243 68.4362 207.498 68.4362Z" fill="#B0E8F8"/>
<path d="M197.678 106.823C197.933 106.315 198.316 106.442 198.698 106.442C198.443 106.823 198.061 106.696 197.678 106.823Z" fill="#F9FBFC"/>
<path d="M204.31 111.272C204.565 110.764 204.947 110.891 205.33 111.018C205.075 111.399 204.692 111.272 204.31 111.272Z" fill="#F4F4F4"/>
<path d="M177.783 118.517C177.528 118.899 177.145 118.899 176.762 118.772C177.017 118.517 177.4 118.517 177.783 118.517Z" fill="#ADE4F5"/>
<path d="M176.507 118.899C176.252 119.28 175.87 119.28 175.487 119.026C175.742 118.772 176.125 118.772 176.507 118.899Z" fill="#ADE4F5"/>
<path d="M162.734 118.009C162.989 117.628 163.371 117.628 163.754 117.628C163.499 118.009 163.116 117.882 162.734 118.009Z" fill="#AFE7F8"/>
<path d="M196.658 123.093C196.403 123.602 195.893 123.348 195.51 123.475C195.765 123.093 196.275 123.22 196.658 123.093Z" fill="#F4F4F4"/>
<path d="M108.021 100.722C108.149 100.849 108.277 100.976 108.404 101.103C108.404 101.103 108.277 101.23 108.149 101.358C108.021 101.23 107.766 101.103 107.639 100.976C107.766 100.976 107.894 100.849 108.021 100.722Z" fill="#AFE7F8"/>
<path d="M109.297 102.247C109.297 102.247 109.169 102.247 109.042 102.12C109.042 101.993 109.042 101.866 109.042 101.866C109.042 101.866 109.169 101.866 109.169 102.12C109.169 102.12 109.169 102.247 109.169 102.374L109.297 102.247Z" fill="#AFE7F8"/>
<path d="M202.397 95.0021C202.397 95.3834 202.142 95.3835 201.759 95.2564C202.014 95.2564 202.142 95.0021 202.397 95.0021Z" fill="#ADE4F5"/>
<path d="M155.974 120.17C156.102 119.788 156.357 119.788 156.612 119.916C156.484 120.17 156.229 120.17 155.974 120.17Z" fill="#F9FBFC"/>
<path d="M213.875 87.5026C214.002 87.2484 214.257 87.1213 214.512 87.2484C214.385 87.5026 214.13 87.5026 213.875 87.5026Z" fill="#ADE4F5"/>
<path d="M83.79 93.9853C84.045 93.9853 84.4276 93.9852 84.3001 94.4937C84.1725 94.3666 83.9175 94.2395 83.79 93.9853Z" fill="#F4F4F4"/>
<path d="M202.269 106.95C202.142 107.332 201.887 107.332 201.504 107.205C201.632 106.95 202.014 106.95 202.269 106.95Z" fill="#F4F4F4"/>
<path d="M117.204 130.339C116.949 130.339 116.566 130.339 116.439 130.084C116.694 130.084 117.076 130.084 117.204 130.339Z" fill="#FCFCFC"/>
<path d="M108.532 101.612C108.404 101.612 108.277 101.612 108.149 101.485C108.149 101.485 108.277 101.358 108.404 101.23L108.787 101.485C108.787 101.485 108.787 101.485 108.659 101.612L108.532 101.612Z" fill="#AFE7F8"/>
<path d="M83.2798 93.6039C83.4074 93.6039 83.6624 93.8581 83.79 93.9853C83.6624 93.9853 83.4074 93.731 83.2798 93.6039Z" fill="#F4F4F4"/>
<path d="M113.123 100.976C113.123 100.976 113.378 101.103 113.505 101.23C113.378 101.23 113.25 101.23 113.123 100.976Z" fill="#F3F8FA"/>
<path d="M44.2536 82.7993L43.9993 82.7996C43.9993 82.6728 44.1264 82.6725 44.2536 82.7993Z" fill="#161718"/>
<path d="M202.907 94.875C202.907 95.0021 202.652 95.1292 202.524 95.1292C202.652 95.1292 202.779 95.0021 202.907 94.875Z" fill="#ADE4F5"/>
<path d="M120.392 125.381C120.647 125.381 120.647 125.381 120.775 125.508C120.647 125.508 120.52 125.508 120.392 125.381Z" fill="#F3F6F7"/>
<path d="M108.659 101.485L108.914 101.739C108.659 101.993 108.659 101.739 108.532 101.739C108.532 101.739 108.532 101.739 108.659 101.612V101.485Z" fill="#AFE7F8"/>
<path d="M164.136 58.9029C160.183 59.6656 156.229 59.5384 152.276 60.4282C149.98 60.9367 147.557 61.318 145.389 62.462C145.134 62.462 145.006 62.462 144.751 62.5891L143.859 62.8433C142.201 63.0976 140.543 63.2247 139.012 63.4789C132.763 64.75 126.386 66.0211 120.265 67.5464C119.627 67.6735 118.989 67.8006 118.352 67.5464C116.439 66.7837 114.398 65.8939 112.995 64.2415C110.955 62.0806 108.659 60.3011 105.981 58.9029C104.833 58.2674 103.685 57.5047 102.537 56.742C103.048 56.3607 103.685 56.3607 103.813 55.7252C104.068 55.7252 104.323 55.7252 104.45 55.4709C104.833 55.4709 105.216 55.471 105.343 55.0896C106.619 54.4541 108.021 53.9456 109.424 53.6914C109.679 53.6914 110.062 53.6914 110.19 53.4372C110.7 53.4372 111.21 53.4372 111.72 53.3101C114.781 52.4203 117.714 51.5306 120.775 50.6408C122.305 50.1323 123.836 50.1323 125.239 49.2426C125.621 48.8612 126.131 48.9884 126.514 48.8613C130.85 47.9715 135.186 46.8275 139.65 46.5733C140.543 46.5733 141.308 47.3359 142.201 47.5902C144.369 48.3528 146.282 49.8781 148.577 50.2594C151.128 51.6576 153.806 53.0559 156.357 54.4541C159.035 55.8523 161.713 57.2505 164.136 59.03V58.9029Z" fill="#AFE7F8"/>
<path d="M80.0915 57.2505C79.5813 57.2505 79.0712 56.9963 78.6886 56.742C71.2916 51.4034 63.3845 46.7004 55.3498 42.3787C54.5846 41.9973 53.8194 41.4889 53.1818 40.9804C52.6716 40.7262 52.289 40.2178 52.289 39.5822C52.289 38.8196 52.9267 38.6925 53.5644 38.4382C56.4976 37.6756 59.4309 37.04 62.3642 36.6587C69.8887 35.7689 77.2857 34.8792 84.8102 33.8623C87.3609 32.2099 89.4015 33.9894 91.3145 35.1334C95.3956 37.5485 99.6042 39.5822 103.303 42.3787C104.195 43.1413 105.088 43.7769 105.853 44.7937C107.129 46.4462 106.874 47.5902 104.833 48.2257C102.027 49.1155 99.2216 49.8781 96.4158 50.7679C91.8246 52.1661 87.3609 54.1999 83.0247 56.2336C82.0045 56.6149 81.1117 57.1234 79.9639 57.2505L80.0915 57.2505ZM54.7122 39.9636C56.4976 40.9805 58.0281 41.8702 59.5585 42.76C66.0627 46.4462 72.3119 50.3866 78.306 54.5812C79.5813 55.471 80.4741 55.7252 81.8769 55.0896C88.5087 52.039 95.5231 49.4968 102.665 47.5902C103.43 47.3359 104.706 47.3359 104.706 46.7004C104.833 45.8106 103.813 45.1751 103.048 44.6666C98.0738 40.9804 92.5898 38.184 87.1059 35.2605C86.7233 35.0063 86.3406 35.0063 85.8305 35.2605C79.4538 36.5316 72.822 37.2943 66.3178 38.0569C62.4918 38.5654 58.6657 38.9467 54.7122 40.0907V39.9636Z" fill="#0C0D0E"/>
<path d="M102.282 56.8692C103.43 57.6318 104.578 58.3945 105.726 59.03C108.277 60.4282 110.7 62.2078 112.74 64.3686C114.271 66.021 116.184 66.7837 118.097 67.6735C118.734 67.9277 119.372 67.8006 120.01 67.6735C126.259 66.0211 132.508 64.8771 138.757 63.606C140.415 63.2246 141.946 63.0975 143.603 62.9704C143.859 62.9704 144.241 62.9704 144.496 62.7162C144.751 62.7162 144.879 62.7162 145.134 62.5891C147.685 62.2078 150.235 61.8264 152.786 61.4451C152.786 61.5722 153.041 61.8264 153.041 61.9535C149.47 62.5891 145.899 63.3518 142.328 63.9873C135.059 65.3855 127.789 67.0379 120.647 68.9446C117.714 69.7072 115.163 68.5632 113.378 66.9108C109.297 63.4789 104.961 60.5553 100.369 57.886C99.7317 57.5047 98.9665 56.9963 99.094 56.1065C99.2216 55.2167 100.114 55.2167 100.752 54.9625C112.358 50.2594 124.473 47.0817 136.844 45.4293C138.12 45.3022 139.395 45.1751 140.67 45.048C141.308 45.048 141.818 45.0479 141.69 45.9377C140.925 46.1919 140.16 46.0648 139.395 46.5733C134.931 46.8275 130.595 47.9715 126.259 48.8613C125.876 48.8613 125.366 48.8612 124.983 49.2426C119.882 50.2594 114.908 51.6576 110.062 53.5643C109.807 53.5643 109.424 53.5643 109.297 53.8185C107.894 54.0727 106.491 54.5812 105.216 55.2167C104.833 55.2167 104.578 55.2167 104.323 55.5981C104.068 55.5981 103.813 55.5981 103.685 55.8523C103.175 55.9794 102.665 56.1065 102.155 56.3607C101.645 56.6149 101.9 56.8692 102.282 56.9963V56.8692Z" fill="#0C0D0E"/>
<path d="M104.068 77.588C102.665 76.5712 101.517 75.9356 100.369 75.173C91.5695 68.6904 82.0045 63.3518 72.4394 58.1403C61.2164 52.1661 50.5035 45.3022 39.153 39.5822C37.6226 38.8196 36.0922 38.184 34.5618 37.4214C34.0516 37.1672 32.9038 37.1671 33.2864 36.2774C33.5415 35.5147 34.4342 36.2774 34.8168 36.5316C36.7298 37.4214 38.7704 38.184 40.6834 39.2009C58.4106 49.3697 76.393 58.9029 93.8651 69.5801C97.0535 71.4868 99.8593 74.029 102.92 76.0628C103.303 76.317 103.685 76.4441 103.94 77.588L104.068 77.588Z" fill="#161718"/>
<path d="M164.136 58.9029C161.586 57.2505 159.035 55.7252 156.357 54.327C153.679 52.9287 151.128 51.5306 148.577 50.1324C147.047 48.9884 145.261 48.2257 143.603 47.5902C142.838 47.3359 141.946 47.0817 142.456 45.9377C142.966 45.9377 143.348 45.9377 143.731 46.1919C150.618 50.1323 157.76 53.6914 164.519 57.886C165.284 58.3945 166.815 58.7758 166.305 59.6656C165.922 60.3011 164.902 59.03 164.136 58.9029Z" fill="#161718"/>
<path d="M109.424 25.8544C109.424 26.3628 109.042 26.4899 108.787 26.7441C104.068 28.7779 99.3491 30.9388 94.5028 32.5912C94.1202 32.7183 93.6101 33.0996 93.355 32.5912C93.0999 32.0827 93.7376 31.8285 94.1202 31.5743C95.3956 30.8117 96.7984 30.3032 98.0738 29.6677C101.39 28.3966 104.706 27.1255 108.021 25.8544C108.532 25.6002 109.169 25.3459 109.552 25.9815L109.424 25.8544Z" fill="#0C0D0E"/>
<path d="M103.175 41.616C103.813 40.3449 104.833 39.8365 105.853 39.328C109.807 37.2943 113.888 35.6418 118.097 33.9894C118.479 33.8623 118.989 33.481 119.244 33.9894C119.5 34.4978 118.862 34.625 118.607 34.8792C113.633 37.1672 108.787 39.4551 103.813 41.616C103.813 41.616 103.558 41.616 103.175 41.616Z" fill="#161718"/>
<path d="M91.5695 64.4957C91.5695 63.7331 92.3347 63.3517 92.8449 62.9704C94.5028 61.8264 96.2883 61.0638 98.0738 60.3011C98.5839 60.0469 99.0941 59.9198 99.3491 60.5553C99.6042 60.9366 99.3491 61.4451 98.9665 61.5722C96.5434 62.5891 94.3753 64.1144 91.8246 64.6228C91.8246 64.6228 91.6971 64.6228 91.5695 64.6228V64.4957Z" fill="#161718"/>
<path d="M115.036 41.4889C115.291 40.7262 115.673 40.472 116.184 40.2178C118.862 38.8196 121.795 37.8027 124.601 36.9129C124.983 36.9129 125.366 36.6587 125.494 37.1671C125.621 37.5485 125.366 37.8027 125.111 37.8027C121.923 39.2009 118.607 40.3449 115.163 41.4889L115.036 41.4889Z" fill="#161718"/>
<path d="M110.19 28.905C110.19 29.2863 109.934 29.5406 109.679 29.6677C107.639 30.6845 105.598 31.7014 103.43 32.2099C103.175 32.2099 102.793 32.4641 102.665 32.0827C102.665 31.8285 102.665 31.5743 102.92 31.4472C104.833 29.9219 107.256 29.2863 109.424 28.3966C109.934 28.1424 110.19 28.5237 110.19 29.0321V28.905Z" fill="#161718"/>
<path d="M106.874 70.7241C108.277 69.0717 110.19 68.1819 112.103 67.5464C112.485 67.4193 112.868 67.6735 112.995 68.0548C113.123 68.4361 112.995 68.9446 112.613 69.0717C110.827 69.9615 108.914 70.7241 106.746 70.597L106.874 70.7241Z" fill="#161718"/>
<path d="M95.7782 65.5126C97.0535 63.7331 98.4564 62.9704 99.8593 62.2078C100.242 61.9536 100.624 62.0806 100.88 62.462C101.135 62.8433 100.88 63.2246 100.624 63.3518C99.2216 64.2415 97.9462 65.0042 95.9057 65.5126L95.7782 65.5126Z" fill="#161718"/>
<path d="M122.688 41.9973C124.091 40.8533 125.876 40.3449 127.407 39.5822C127.662 39.4551 128.044 39.5822 128.172 39.8365C128.299 40.2178 128.172 40.472 127.789 40.5991C126.131 41.2347 124.473 41.8702 122.688 41.9973Z" fill="#161718"/>
<path d="M142.328 45.8106C141.818 46.9546 142.711 47.2088 143.476 47.463C145.261 48.2257 146.919 48.9884 148.45 50.0052C146.154 49.6239 144.241 48.0986 142.073 47.3359C141.18 47.0817 140.543 46.4462 139.522 46.3191C140.16 45.8106 141.053 45.9377 141.818 45.6835C141.946 45.6835 142.073 45.6835 142.201 45.6835L142.328 45.8106Z" fill="#F4F4F4"/>
<path d="M107.639 31.8285C108.914 30.6845 109.934 30.1761 111.082 29.6677C111.465 29.5406 111.975 29.4134 112.103 29.9219C112.23 30.3032 111.847 30.5574 111.592 30.6845C110.445 31.0659 109.424 31.7014 107.639 31.7014V31.8285Z" fill="#161718"/>
<path d="M101.135 66.7837C101.645 65.7668 102.282 65.5126 102.793 65.1313C103.048 64.8771 103.43 64.75 103.685 65.1313C103.94 65.5126 103.685 65.7669 103.303 65.894C102.665 66.1482 102.155 66.4024 101.135 66.7837Z" fill="#161718"/>
<path d="M153.296 61.9535C153.296 61.8264 153.041 61.5722 153.041 61.4451C153.551 61.4451 154.189 61.1909 154.826 61.4451C154.444 61.8264 153.934 62.0806 153.424 61.9535H153.296Z" fill="#161718"/>
<path d="M53.5644 74.4103C54.3296 73.6476 55.0948 72.885 55.86 72.1223C56.115 71.8681 56.6252 71.4868 57.0078 71.8681C57.5179 72.3765 57.0078 72.6308 56.6252 73.0121C55.9875 73.6477 55.3498 74.2832 54.7122 74.9188C54.202 75.3001 53.6919 75.8085 53.0542 76.3169C52.6716 75.4272 53.4368 74.9187 53.5644 74.4103Z" fill="#161718"/>
<path d="M76.2654 97.0358C75.2452 95.6376 75.5002 94.4936 75.6278 93.4768C75.6278 92.9683 76.0104 92.587 76.648 92.7141C77.1582 92.7141 77.2857 93.2225 77.1582 93.6039C76.9031 94.6207 76.648 95.6376 76.2654 96.9087V97.0358Z" fill="#161718"/>
<path d="M56.3701 76.317C56.8802 75.6814 57.0078 74.029 58.028 74.7917C59.0483 75.4272 57.3904 76.0627 57.2628 76.9525C56.8802 77.3338 56.4976 77.7152 55.9875 78.0965C55.6049 77.461 56.115 76.9525 56.115 76.4441L56.3701 76.317Z" fill="#161718"/>
<path d="M72.4394 94.1123C71.9293 92.9683 72.1843 92.0786 72.6945 91.443C72.9496 91.0617 73.2046 90.8075 73.7148 91.0617C74.0974 91.3159 74.2249 91.6972 73.9698 92.0786C73.5872 92.7141 73.2046 93.3496 72.5669 94.1123L72.4394 94.1123Z" fill="#161718"/>
<path d="M48.9731 95.5105C49.1006 93.8581 49.9934 92.4599 51.1412 91.1888C51.3963 90.9346 51.6513 90.8075 51.9064 90.9346C52.289 91.1888 52.1615 91.5701 51.9064 91.8244C51.0137 93.0955 50.1209 94.3666 49.3557 95.6377L48.9731 95.3834L48.9731 95.5105Z" fill="#161718"/>
<path d="M52.0339 98.4341C51.7789 96.6545 52.289 95.6377 52.7991 94.4937C52.9267 94.2394 53.1818 93.8581 53.5644 93.9852C54.0745 94.2394 54.0745 94.6208 53.8194 95.0021C53.3093 96.019 52.7991 97.0359 52.0339 98.4341Z" fill="#161718"/>
<path d="M110.19 53.4372C115.036 51.5305 120.01 50.1323 125.111 49.1155C123.708 50.0052 122.178 50.1323 120.647 50.5137C117.587 51.4034 114.653 52.2932 111.592 53.183C111.082 53.3101 110.572 53.3101 110.062 53.3101L110.19 53.4372Z" fill="#F4F4F4"/>
<path d="M102.282 56.8692C101.9 56.8692 101.517 56.6149 102.155 56.2336C102.665 55.9794 103.175 55.8523 103.685 55.7252C103.558 56.4878 102.793 56.4878 102.41 56.742L102.282 56.8692Z" fill="#F4F4F4"/>
<path d="M104.323 55.5981C104.578 55.3438 104.961 55.3439 105.216 55.2167C105.088 55.7252 104.578 55.5981 104.323 55.5981Z" fill="#F4F4F4"/>
<path d="M144.624 62.7162C144.369 62.9704 144.114 62.9704 143.731 62.9704C143.986 62.9704 144.369 62.8433 144.624 62.7162Z" fill="#161718"/>
<path d="M103.558 55.8523C103.685 55.5981 103.94 55.5981 104.195 55.5981C104.068 55.9794 103.813 55.8523 103.558 55.8523Z" fill="#F4F4F4"/>
<path d="M109.297 53.6914C109.552 53.4372 109.807 53.4372 110.062 53.4372C109.807 53.8185 109.552 53.6914 109.297 53.6914Z" fill="#F4F4F4"/>
<path d="M54.7122 39.9636C58.7933 38.8196 62.6193 38.4383 66.3178 37.9298C72.822 37.0401 79.3263 36.4045 85.8305 35.1334C86.3406 35.1334 86.7232 35.0063 87.1058 35.1334C92.5898 38.0569 98.0738 40.8533 103.048 44.5395C103.813 45.0479 104.833 45.6835 104.706 46.5733C104.706 47.3359 103.303 47.3359 102.665 47.4631C95.5231 49.3697 88.6363 51.9119 81.8769 54.9625C80.4741 55.5981 79.5813 55.3439 78.306 54.4541C72.3119 50.1324 65.9352 46.1919 59.5585 42.6329C58.028 41.7431 56.4976 40.8533 54.7122 39.8365L54.7122 39.9636Z" fill="#AFE7F8"/>
<defs>
<filter id="filter0_d_2637_26957" x="16" y="0" width="185" height="185" filterUnits="userSpaceOnUse" color-interpolation-filters="sRGB">
<feFlood flood-opacity="0" result="BackgroundImageFix"/>
<feColorMatrix in="SourceAlpha" type="matrix" values="0 0 0 0 0 0 0 0 0 0 0 0 0 0 0 0 0 0 127 0" result="hardAlpha"/>
<feOffset dx="-5" dy="5"/>
<feComposite in2="hardAlpha" operator="out"/>
<feColorMatrix type="matrix" values="0 0 0 0 0 0 0 0 0 0 0 0 0 0 0 0 0 0 1 0"/>
<feBlend mode="normal" in2="BackgroundImageFix" result="effect1_dropShadow_2637_26957"/>
<feBlend mode="normal" in="SourceGraphic" in2="effect1_dropShadow_2637_26957" result="shape"/>
</filter>
</defs>
</svg>
