<svg width="308" height="173" viewBox="0 0 308 173" fill="none" xmlns="http://www.w3.org/2000/svg">
<path d="M0 69.18C1.76 64.8628 4.48 61.1852 8.16 58.1472C9.92 56.7082 11.84 55.9087 13.92 54.9494C10.24 52.0712 10.56 48.2338 11.36 44.3963C12.64 38.3203 16.48 34.163 22.24 31.7646C22.56 31.7646 23.04 31.6047 23.2 31.125C22.56 30.6454 21.92 30.0058 21.44 29.3662C18.56 26.4881 18.4 22.6506 21.28 19.6126C24 16.5746 27.52 15.1356 31.52 14.3361C36.48 13.3767 41.28 13.8564 46.24 14.3361C55.2 15.1356 64 15.1356 72.8 13.3767C84.96 11.1382 97.28 9.69913 109.28 6.98092C115.52 5.54187 121.6 4.10279 127.68 1.86427C129.6 1.22469 131.68 0.585148 133.76 0.105464C134.56 -0.214326 135.2 0.265339 136 0.585128C140.32 2.66376 144.16 5.54189 148.16 8.1002C155.36 12.7371 163.04 16.4147 170.72 20.2522C180.48 25.2089 189.76 31.125 199.52 36.2416C209.92 41.6781 220.48 46.4749 231.04 51.4316C240 55.7488 249.76 57.8274 259.84 58.6269C263.36 58.9467 266.72 59.1066 270.24 59.4264C271.36 59.4264 272.64 59.4264 273.28 60.7056C273.6 61.1853 274.08 61.0253 274.56 61.0253C276.48 61.0253 277.92 61.505 279.2 62.9441C280.64 64.8628 280.8 64.8628 279.2 66.6217C282.4 67.4211 285.76 68.3805 288.96 69.3399C289.76 69.4998 290.72 69.8196 290.88 70.7789C290.88 71.8982 289.92 72.0581 289.28 72.3779C288.64 72.6977 288 73.0175 287.36 73.3372C285.76 74.1367 284.64 75.0961 284.32 77.0148C283.68 79.8929 281.28 81.1721 278.88 82.2914C276.96 83.2507 275.04 84.0502 272.8 85.1694C275.36 85.809 276.64 87.408 277.92 89.3267C279.04 90.9257 278.88 92.8444 278.08 94.4434C277.44 96.0423 278.08 96.8418 279.36 97.6413C280.48 98.2809 281.6 99.0803 282.72 99.8798C284.96 101.639 284.96 102.758 282.72 104.357C282.4 104.517 282.08 104.836 281.76 105.156C288.96 106.755 295.68 108.834 301.92 112.671C303.36 113.471 304.8 114.43 305.92 115.549C308 117.468 307.84 118.747 305.44 120.186C305.12 120.346 304.64 120.666 304.16 120.986C304.64 121.306 305.12 121.785 305.6 122.105C306.24 122.745 307.2 123.224 306.88 124.184C306.72 125.303 305.6 125.463 304.8 125.623C298.72 126.902 292.64 128.181 286.4 129.3C271.68 132.019 257.44 136.496 243.36 141.932C217.6 151.846 191.52 160.96 164.96 168.794C160.32 170.233 155.68 171.513 150.88 172.152C145.76 172.792 141.28 171.832 137.44 168.155C131.04 162.079 123.52 157.282 116.48 151.686C93.92 134.097 69.44 119.387 45.12 104.677C34.08 97.961 23.04 91.4054 13.12 83.0908C9.27999 79.8929 5.6 76.5351 1.76 73.3372C1.12 72.6977 1.27999 71.7383 0.479993 71.2586V69.0201L0 69.18ZM136.16 106.435C136.16 106.595 136.48 106.915 136.64 106.435C136.64 106.435 136.48 106.276 136.32 106.116L135.84 105.796C135.68 105.636 135.52 105.476 135.36 105.316C132.32 100.999 132.48 96.3621 134.56 91.7251C138.08 85.0096 143.36 80.3726 150.24 77.0148C158.08 73.1773 166.24 71.7383 174.72 70.619C183.52 69.3399 192.32 68.8602 201.28 67.9008C217.6 65.9821 234.08 64.7029 250.56 63.4238C254.88 63.104 259.36 62.6243 264 61.665C261.92 61.1853 260.16 60.8655 258.24 60.7056C246.08 59.4264 234.24 56.7082 223.36 50.6322C221.28 49.5129 219.04 48.3936 216.8 47.4343C203.04 41.1984 189.76 34.163 176.96 26.4881C174.24 24.8892 171.52 23.2902 168.8 22.011C160.64 18.3334 152.96 14.0163 145.6 9.21944C142.72 7.3007 139.68 5.54185 136.8 3.46321C135.2 2.34395 133.92 2.34397 132.16 2.98355C124.48 6.34134 116.48 8.41998 108.48 10.3387C97.76 12.897 86.88 14.0163 76.16 16.0949C67.52 17.8538 58.88 18.3334 50.24 17.8537C47.2 17.8537 44.32 17.3741 41.44 17.2142C36.16 16.5746 31.04 16.7345 26.4 19.6126C22.56 22.011 20.96 24.5693 25.76 28.4068C31.36 32.8839 37.12 36.8812 42.88 41.0385C57.12 50.952 71.04 61.3451 85.6 70.7789C96.8 77.9742 108 85.3294 118.72 93.484C124.16 97.4814 129.44 101.799 135.2 105.316C135.36 105.476 135.68 105.636 135.84 105.796C136 105.796 136.16 105.796 136.32 105.956L136.16 106.435ZM105.12 96.8418C105.28 96.8418 105.6 97.1616 105.76 97.3215C106.88 98.2808 108 99.2402 109.12 100.2C110.08 101.159 110.56 100.519 110.72 99.56C111.84 97.8011 112.96 96.0423 114.56 94.7631C114.56 94.7631 114.56 94.6033 114.56 94.4434C107.04 88.6872 98.72 83.8903 91.04 78.294C90.24 77.8143 90.08 78.294 89.76 78.6138C88.8 79.8929 88 81.332 87.04 82.6111C86.4 83.5705 86.56 84.0502 87.36 84.5299C93.28 88.2075 99.04 92.2048 104.8 96.3621C104.96 96.3621 105.28 96.6819 105.44 96.8418H105.12ZM253.92 98.1209C253.6 98.1209 253.44 98.4408 253.12 98.4408C250.72 99.56 248.16 100.679 245.76 101.799C224.8 112.352 203.36 121.625 180.96 128.981C178.88 129.62 176.8 130.739 174.4 130.26C175.52 129.78 176.32 129.3 177.28 128.981C187.52 125.463 197.6 121.146 207.68 117.148C223.04 111.072 237.76 103.557 252.64 96.3621C257.92 93.8038 263.04 91.2455 268.16 88.6872C268.48 88.6872 268.8 88.6871 268.96 88.3673C269.6 88.2075 270.24 87.8877 270.88 87.5679C271.2 87.408 272.16 87.5679 271.68 86.6085C271.36 85.9689 271.04 85.809 270.24 86.1288C268.32 87.0882 266.4 87.8877 264.48 88.6872C256.48 92.0449 248.16 94.923 240 97.8011C239.52 97.8011 239.04 97.8012 238.72 98.1209C238.24 98.1209 237.6 98.1209 237.12 98.6006C232.96 99.56 228.64 100.2 224.96 102.598C219.04 106.435 212.64 109.154 206.4 112.511C198.88 116.349 191.04 119.387 183.04 122.105C174.24 125.143 165.28 127.222 156.32 129.78C153.6 130.58 150.88 131.539 148.96 133.777C148.16 135.376 149.28 136.016 150.4 136.496C150.56 136.496 150.72 136.496 150.88 136.496C151.2 136.496 151.52 136.815 152 136.815C156.16 137.615 160.32 137.295 164.48 136.815C174.88 135.536 184.96 132.658 195.04 129.62C195.36 129.62 195.68 129.62 195.84 129.3C198.4 128.501 200.8 127.701 203.36 126.902C203.84 126.902 204.32 126.902 204.64 126.422C205.12 126.422 205.44 126.422 205.92 126.103C211.04 124.344 216.16 122.585 221.28 120.986C229.92 118.268 238.56 115.39 247.2 112.671C247.68 112.671 248.16 112.671 248.48 112.192C258.56 109.154 268.48 105.476 278.24 100.04C274.08 98.4407 273.76 96.0423 275.04 92.6845C275.68 91.0856 274.72 89.8064 273.76 88.6872C273.28 88.0476 272.8 88.0476 272 88.3673C265.76 91.2455 259.84 94.4434 253.76 97.4814C253.6 97.4814 253.44 97.6412 253.28 97.8011L253.92 98.1209ZM253.76 113.151C253.44 113.151 253.12 113.151 252.8 113.471C246.4 115.39 240 117.468 233.6 119.547C223.2 122.905 212.8 126.262 202.24 129.78C203.2 130.26 203.68 130.1 204.16 129.94C214.08 128.021 224 126.102 233.92 123.864C241.44 122.105 248.96 120.346 256.48 118.587C256.96 118.587 257.44 118.587 257.76 118.268C266.88 116.189 275.84 114.11 285.12 111.552C284.64 110.912 284.32 110.433 283.84 109.953C283.04 109.314 282.24 108.514 281.28 107.875C277.92 105.476 277.92 105.316 281.12 102.598C281.12 102.598 281.28 102.278 281.44 102.118C280.96 101.639 280 100.839 279.84 101.159C278.88 103.078 276.64 103.078 275.36 104.197C268.64 107.235 261.92 110.113 255.04 112.511C254.56 112.511 254.08 112.511 253.92 112.991L253.76 113.151ZM246.72 133.458C246.24 133.458 245.76 133.458 245.28 133.937C244.8 133.937 244.48 133.937 244 134.097C227.36 138.414 210.88 143.051 194.08 146.569C179.04 149.607 164 152.645 149.12 155.683C145.44 156.483 141.76 157.282 138.24 158.721C136.96 159.201 136.16 159.84 136.32 161.439C136.64 164.157 138.88 165.916 140 168.155C140.64 169.434 142.4 169.754 143.84 170.074C148.16 171.033 152.32 170.074 156.32 168.954C180.32 162.239 204 154.404 227.36 145.61C248.96 137.455 270.56 129.46 293.6 125.783C296.8 125.303 299.84 124.504 303.36 123.864C302.56 123.224 302.08 122.905 301.76 122.585C300.96 121.306 301.44 120.186 302.56 119.227C301.92 118.907 301.44 119.227 300.96 119.227C294.24 120.666 287.68 122.265 281.12 124.024C271.84 126.582 262.4 128.821 253.12 131.699C251.04 132.179 248.96 132.658 246.88 133.458H246.72ZM220.16 128.341C214.4 129.3 208.64 130.739 203.04 132.019C193.6 134.097 184.16 136.656 174.88 139.694C173.44 140.013 171.84 140.333 170.4 140.653C162.72 142.412 155.04 144.171 147.04 142.572C146.88 142.252 146.4 142.252 146.08 142.252C144.96 140.973 143.52 141.932 142.4 141.452C140 140.493 137.76 139.534 135.52 138.254C129.12 134.737 123.36 130.42 117.28 126.422C103.2 117.308 90.24 106.435 76 97.4814C71.68 94.7632 67.84 91.4053 63.68 88.3673C63.2 88.0476 62.72 87.0882 61.92 88.0476C59.36 91.0856 57.12 94.1236 56.32 98.1209C54.88 99.0803 55.04 97.961 54.88 97.0017C55.52 93.1642 57.44 90.1262 60 87.408C60.96 86.4486 60.64 86.1288 59.68 85.4893C58.24 84.6898 56.96 83.5705 55.52 82.771C55.36 82.6111 55.2 82.771 55.2 82.771C52.16 85.6491 50.08 89.1668 48.8 93.1642C47.84 94.6032 46.72 94.4434 45.44 93.6439C38.08 88.8471 30.88 83.7304 23.04 79.4132C22.56 79.0934 21.92 78.7737 21.44 78.294C20.48 77.3346 20.16 76.3753 20.96 75.0961C21.28 75.0961 21.76 75.0961 21.6 75.256C21.28 77.1747 22.56 77.6544 23.84 78.4539C28 80.8523 32.32 83.2507 36.32 85.9689C39.52 88.0476 42.56 90.1262 45.76 92.2048C46.24 92.5246 47.04 93.484 47.52 92.2048C48.16 90.6059 48.8 89.0069 49.6 87.5679C50.72 85.4892 51.84 83.5705 54.08 82.6111C54.4 82.6111 54.72 82.6111 54.72 82.1315C54.72 82.1315 54.4 81.8117 54.24 81.8117C53.92 81.6518 53.6 81.4919 53.28 81.332C45.12 76.0555 36.96 70.9388 28.8 65.6623C28 65.1826 27.04 64.3832 26.4 65.6623C24.64 68.5404 22.88 71.4185 22.24 74.7763C21.92 75.0961 21.76 75.8955 21.12 75.4159C20.64 74.9362 21.12 74.4565 21.12 73.9768C22.24 70.619 23.52 67.4212 25.76 64.7029C26.24 64.0634 25.92 63.9034 25.6 63.5837C22.88 61.6649 20.32 59.5863 17.6 57.6676C16.96 57.1879 16.32 57.1879 15.52 57.3478C9.76 59.4264 5.92 63.4238 3.36 68.8602C2.88 69.9795 3.04 70.9388 3.52 71.8982C4.8 74.1367 6.55999 75.5758 8.63999 77.0148C14.56 82.6111 20.96 87.408 27.84 91.885C47.68 105.156 68.64 116.829 88.48 130.1C100.64 138.255 112.64 146.729 124.32 155.683C127.52 158.081 130.88 160.48 134.24 162.878C133.92 158.721 134.72 157.282 138.4 156.003C140.48 155.203 142.56 154.884 144.64 154.244C157.28 151.366 170.08 149.287 182.88 147.049C189.12 145.929 195.36 144.97 201.6 143.211C201.92 143.211 202.24 143.211 202.56 143.211C214.88 140.013 227.36 137.135 239.52 133.777C256.96 128.981 274.24 124.024 291.68 119.707C295.52 118.747 299.36 117.948 303.36 117.148C299.68 113.631 288.48 108.674 285.28 108.994C285.6 109.314 285.92 109.793 286.24 110.113C287.68 112.032 287.36 112.831 285.28 113.471C284.96 113.471 284.64 113.631 284.32 113.791C270.24 117.148 256.32 120.346 242.24 123.704C235.84 125.143 229.6 126.582 223.2 128.021C222.72 128.021 222.24 128.021 221.92 128.341C221.44 128.341 220.96 128.341 220.64 128.501L220.16 128.341ZM121.12 106.595C119.84 108.354 118.88 110.273 118.24 112.352C117.76 113.471 117.92 114.59 119.04 115.39C121.12 116.829 123.04 118.428 125.12 120.027C126.08 120.826 126.56 120.506 127.04 119.547C128.16 117.148 129.44 114.75 131.2 112.511C132.16 111.552 133.12 110.593 134.24 109.953C135.36 109.314 135.04 108.834 134.24 108.354C132.32 107.235 130.56 105.956 128.48 104.837C127.04 104.037 125.92 101.958 124.32 102.598C122.88 103.238 122.08 105.156 121.28 106.595C121.28 106.595 121.28 106.595 121.28 106.755L121.12 106.595ZM198.72 85.1694C198.08 85.1694 197.44 85.1695 196.96 85.6492C196.64 85.6492 196.32 85.6492 196 85.6492C181.28 89.007 167.04 93.484 152.64 97.8011C152.16 97.8011 151.68 97.8012 151.36 98.1209C149.44 98.2808 147.52 99.0803 145.76 99.7199C144.16 100.2 142.56 100.999 140.8 100.839C140.8 100.519 140.8 100.2 140.96 99.8798C142.24 98.4407 144.16 97.961 145.76 97.3215C154.88 95.0829 163.84 92.045 172.96 89.6465C202.24 81.4919 231.84 74.7763 261.44 68.2206C266.4 67.1013 271.36 65.9821 276.8 64.8628C274.08 63.104 271.52 62.7842 268.96 62.9441C265.92 63.104 263.04 64.0634 260 64.7029C259.68 64.7029 259.2 64.7029 258.88 64.7029H258.56C252.96 65.3425 247.2 65.8222 241.6 66.4618C236 66.4618 230.56 67.2612 224.96 67.7409C216.96 68.5404 209.12 69.3399 201.28 70.2993C196.8 70.7789 192.32 71.2586 187.84 71.7383C182.08 71.8982 176.48 72.8576 170.72 73.6571C162.56 74.7763 154.72 76.8549 147.68 81.1721C142.56 84.37 138.56 88.5272 136.32 94.1236C134.24 99.7199 136.32 104.357 141.6 105.316C141.6 105.476 141.76 105.476 142.08 105.476C143.68 105.796 145.12 106.116 146.72 106.276C157.6 107.235 168.48 106.276 179.36 104.517C194.88 101.958 210.24 98.1209 225.6 93.9637C243.36 89.0069 260.96 83.8903 277.6 75.5758C280.64 74.1367 283.52 72.5378 287.04 70.7789C286.08 70.619 285.6 70.4592 285.12 70.4592C282.88 69.8196 280.48 69.0201 278.08 68.7003C276.8 67.9008 275.04 68.0607 273.92 66.9415C273.6 66.6217 273.12 66.9415 272.8 66.9415C255.36 70.9388 237.92 74.9362 220.48 78.9336C213.12 80.6924 205.76 82.2914 198.56 84.5299L198.72 85.1694ZM152.8 121.466C154.56 121.146 156.32 120.986 158.08 120.506C171.68 117.628 184.8 113.311 198.24 109.633C201.12 108.834 203.84 107.875 206.56 106.435C205.76 106.116 205.12 106.435 204.48 106.435C199.52 107.555 194.72 108.674 189.76 109.633C182.24 111.232 174.4 111.392 166.72 111.872C159.68 112.352 152.48 111.872 145.44 111.232C142.56 110.913 139.84 110.433 136.96 110.113C135.52 110.753 134.4 111.712 133.44 112.991C132.48 113.791 131.68 114.91 131.04 115.869C130.08 117.628 129.12 119.227 128.16 120.986C127.52 122.105 126.72 122.585 125.44 121.785C122.56 120.026 119.84 118.108 117.44 115.869C116.32 114.91 116 113.791 116.48 112.192C117.12 109.633 118.56 107.555 119.68 105.316C120.96 103.877 121.92 102.278 123.36 100.839C120.64 98.9204 118.08 97.0017 115.52 95.0829C114.24 97.0017 112.48 98.4407 111.84 100.679C110.4 103.238 109.92 103.397 107.52 101.479C104.48 99.0803 101.6 96.3621 98.24 94.1236C94.08 91.2455 89.92 88.3674 85.6 85.4893C84.8 85.0096 84 84.37 84.16 83.2507C85.28 81.4919 86.24 79.733 87.52 78.1341C88.32 77.0148 88.32 76.5351 87.04 75.7357C82.88 73.1774 78.88 70.4591 74.72 67.7409C69.6 64.543 69.12 64.543 65.28 69.4998C64.96 69.8196 64.8 70.2992 64.64 70.619C63.84 71.7383 63.04 72.8576 62.24 74.2966C61.44 72.3779 62.24 71.0987 62.88 69.6597C64.32 67.741 65.6 65.8222 67.68 64.543C68.64 63.9035 68.32 63.5837 67.68 63.104C65.28 61.505 62.88 59.9061 60.64 58.3072C54.4 53.6702 48 49.1931 41.76 44.5562C40.96 44.0765 40.64 44.2364 40 44.5562C36.64 46.7947 33.92 49.6728 31.52 53.0306C30.88 53.99 30.72 54.4697 32 55.2692C36.64 57.5077 40.96 60.3858 44.8 63.9035C46.4 65.3425 48.32 66.6217 49.92 68.0607C51.04 66.4618 51.84 65.0227 52.96 63.7436C55.04 61.3451 57.12 59.1066 60.48 58.6269C60.96 59.9061 59.84 60.3858 59.04 60.8655C57.6 61.8248 56.16 62.7842 55.04 64.2232C53.76 65.1826 53.12 66.6217 52.32 67.9008C50.56 70.9388 50.24 71.0987 47.68 68.8602C41.92 64.2233 36.32 59.4264 29.6 56.2285C28.32 55.5889 28.32 54.6296 28.96 53.5103C29.76 51.7515 31.04 50.1525 32.32 48.5536C34.4 46.4749 36.32 44.2364 39.04 42.6374C34.72 39.5994 30.56 36.8812 26.72 33.8432C26.4 33.5234 26.08 33.2037 25.44 33.3636C23.2 34.163 20.96 34.9625 19.2 36.5615C15.2 39.7593 13.76 44.0765 13.92 49.0332C13.92 50.4723 14.56 51.5916 15.84 52.391C20.96 56.0686 25.6 60.2259 30.88 63.4238C52.16 76.2153 71.84 91.2455 92.16 105.316C105.6 114.75 118.56 124.504 132 133.777C135.2 136.016 138.56 137.935 142.4 139.374C140.64 131.379 142.56 125.463 147.52 122.265C149.12 121.625 150.88 121.466 152.64 121.146L152.8 121.466ZM158.56 139.534C155.84 139.054 153.12 139.214 150.4 138.254C146.56 136.656 146.08 133.618 149.28 131.059C151.52 129.14 154.4 128.021 157.12 127.382C172.64 123.224 188 118.587 202.88 112.511C209.92 109.633 216.32 105.956 223.36 102.598C222.24 102.438 221.44 102.598 220.64 102.598C216.64 103.078 213.44 105.316 209.92 107.075C200.96 111.392 191.36 113.951 181.76 116.829C171.52 119.867 161.28 123.065 150.56 124.344C148.16 124.664 146.56 125.943 145.6 128.021C144.8 129.46 144.16 130.899 143.84 132.498C142.56 137.775 144.16 140.013 149.44 140.973C153.6 141.612 157.76 140.973 161.76 140.333C163.68 140.013 165.44 139.694 167.2 138.894C164.32 139.214 161.28 139.374 158.4 139.694L158.56 139.534ZM152.96 110.113C154.08 110.273 155.2 110.593 156.32 110.593C164 110.912 171.52 110.113 179.04 109.633C186.56 109.154 193.92 107.395 201.28 105.636C220 100.999 238.88 97.3215 256.8 89.9663C263.68 87.2481 270.4 84.2101 277.12 81.1721C279.04 80.3726 280.64 79.2534 280.8 76.695C280.16 77.0148 279.68 77.1747 279.2 77.4945C271.52 81.0122 263.84 84.8497 255.68 87.5679C237.12 93.9637 218.4 99.2402 199.36 103.717C188.96 106.116 178.4 108.354 167.68 109.314C162.72 109.793 157.92 109.953 152.96 110.113ZM200.8 130.26C201.28 130.58 201.76 130.739 202.24 130.26C201.76 129.78 201.28 130.26 200.8 130.26ZM137.12 107.235C137.12 107.235 137.12 107.075 137.12 106.915L136.96 106.595C136.8 106.595 136.64 106.755 136.96 106.915C136.96 106.915 136.96 106.915 137.28 107.075L137.12 107.235Z" fill="#0B0C0C"/>
<path d="M40.96 17.534C43.84 17.6938 46.88 18.0136 49.76 18.1735C58.4 18.6532 67.04 18.1735 75.68 16.4147C86.4 14.336 97.44 13.2168 108 10.6585C116 8.73971 124 6.50123 131.68 3.30333C133.44 2.50386 134.72 2.66373 136.32 3.783C139.2 5.70173 142.24 7.62048 145.12 9.53922C152.48 14.3361 160.32 18.6532 168.32 22.3308C171.2 23.61 173.92 25.2089 176.48 26.8078C189.44 34.6427 202.72 41.5182 216.32 47.7541C218.56 48.7134 220.8 49.8327 222.88 50.952C233.76 56.8681 245.6 59.5862 257.76 61.0253C259.52 61.1852 261.44 61.3451 263.52 61.9847C258.88 62.944 254.56 63.4237 250.08 63.7435C233.6 65.0227 217.28 66.3018 200.8 68.2206C192 69.3398 183.04 69.8195 174.24 70.9388C165.76 72.0581 157.6 73.657 149.76 77.3346C143.04 80.6924 137.6 85.3293 134.08 92.0449C133.92 90.1262 132.64 89.0069 131.04 88.2074C129.44 87.248 127.84 86.2887 126.24 85.1694C114.4 76.695 102.4 68.7003 89.92 61.505C73.28 51.9113 56.96 41.678 41.76 30.0057C39.2 28.087 36.64 26.0084 34.88 23.1303C33.6 21.2115 34.08 19.9324 36.32 19.1329C37.76 18.6532 39.04 18.3334 40.48 18.0136L40.96 17.534ZM178.56 36.2416C178.4 36.2416 178.24 36.2416 178.08 36.2416C178.4 35.1223 177.6 35.1224 176.8 35.1224C175.2 35.1224 173.6 35.2823 172 35.602C156.32 37.6807 141.28 41.678 126.72 47.5942C125.92 47.9139 124.96 48.0738 124.64 49.0332C124.48 50.1525 125.44 50.7921 126.24 51.2718C132 54.6295 137.44 58.3071 142.56 62.6242C144.96 64.7029 148 66.1419 151.68 65.1826C160.64 62.7841 169.76 60.7055 178.88 58.9467C183.36 58.1472 187.84 57.1878 192.32 56.3884C192.96 56.3884 193.6 56.3884 194.08 55.7488C193.28 55.429 192.64 55.7488 191.84 55.7488C188.64 56.2285 185.44 56.7082 182.24 57.1878C184.96 55.7488 188 55.2691 190.88 54.6295C195.84 53.5102 200.8 53.5103 205.76 52.7108C206.72 52.7108 208 54.4697 208.48 53.6702C209.12 52.391 207.2 51.9113 206.24 51.4316C197.76 46.1551 188.8 41.838 180.16 36.7213C179.68 36.4015 179.04 36.4015 178.56 36.4015V36.2416ZM100.48 50.6321C101.92 50.6321 103.04 49.9926 104.32 49.353C109.76 46.7947 115.36 44.2364 121.12 42.4775C124.64 41.3583 128.16 40.3989 131.68 39.2797C134.24 38.4802 134.56 37.0411 132.96 34.9625C132 33.8432 130.88 32.8839 129.76 31.9245C125.12 28.4068 119.68 25.8485 114.72 22.8105C112.32 21.3714 109.76 19.1329 106.56 21.2115C97.12 22.3308 87.84 23.4501 78.4 24.7292C74.72 25.2089 71.04 25.8485 67.36 26.9677C66.56 27.1276 65.92 27.4474 65.76 28.4068C65.76 29.2063 66.24 29.6859 66.88 30.1656C67.84 30.8052 68.64 31.2849 69.6 31.9245C79.68 37.5208 89.6 43.277 98.88 49.9926C99.36 50.3124 100 50.6321 100.64 50.6321H100.48ZM130.56 76.2153C130.24 74.9361 129.76 74.6164 129.28 74.2966C125.44 71.7383 121.92 68.5404 117.92 66.142C96.16 52.7108 73.44 40.7187 51.2 27.9271C48.96 26.648 46.4 25.6886 43.84 24.5693C43.2 24.2495 42.24 23.45 41.92 24.2495C41.44 25.3688 42.88 25.3688 43.52 25.6886C45.44 26.648 47.36 27.4474 49.28 28.4068C63.52 35.602 76.96 44.2364 91.04 51.7514C103.04 58.3071 115.04 65.0227 126.08 73.1773C127.36 74.1367 128.8 75.096 130.72 76.2153H130.56ZM137.28 11.1382C136.8 10.3387 136 10.6585 135.36 10.9783C131.2 12.5772 127.04 14.1762 122.88 15.7751C121.12 16.4147 119.36 17.0543 117.92 18.1735C117.44 18.4933 116.8 18.8131 116.96 19.4527C117.28 20.2521 117.92 19.7725 118.4 19.4527C124.64 17.374 130.4 14.6559 136.32 12.0975C136.8 11.9376 137.12 11.6178 137.12 10.9783L137.28 11.1382ZM129.44 30.9651C129.92 30.9651 130.08 30.9651 130.24 30.9651C136.48 28.087 142.56 25.3688 148.8 22.4907C149.28 22.3308 149.92 22.011 149.6 21.3714C149.28 20.5719 148.64 21.0516 148.16 21.3714C143.04 23.4501 137.76 25.5287 132.8 28.087C131.52 28.7266 130.24 29.5261 129.44 30.9651ZM114.88 59.7462H115.2C118.4 58.9467 121.28 57.1879 124.16 55.9087C124.64 55.7488 124.96 55.1092 124.64 54.6295C124.16 53.83 123.52 53.99 123.04 54.3097C120.8 55.2691 118.56 56.2285 116.48 57.6675C115.84 58.1472 114.88 58.6269 114.88 59.5863V59.7462ZM144.32 30.8052C148.64 29.3661 152.8 27.9271 156.8 26.1683C157.12 26.1683 157.44 25.6886 157.28 25.3688C157.12 24.7292 156.64 24.8891 156.16 25.049C152.48 26.1682 148.96 27.4474 145.6 29.2063C145.12 29.526 144.48 29.6859 144.16 30.8052H144.32ZM138.24 14.9756C138.24 14.336 137.76 14.0163 137.28 14.1762C134.56 15.4553 131.52 16.2548 129.12 18.0136C128.96 18.1735 128.64 18.4933 128.8 18.8131C128.96 19.2928 129.44 19.1329 129.76 18.973C132.48 18.3334 135.04 17.0543 137.6 15.7751C137.92 15.6152 138.24 15.2954 138.24 14.8157V14.9756ZM134.08 67.581C136.8 67.581 139.2 66.7815 141.44 65.6623C141.92 65.5024 142.08 64.8628 141.92 64.3831C141.76 63.9034 141.28 63.4237 140.8 63.7435C138.24 64.543 135.84 65.6623 134.24 67.7409L134.08 67.581ZM120.16 61.0253C122.72 60.3857 124.48 59.4264 126.08 58.3071C126.4 57.9873 126.72 57.6675 126.4 57.1878C126.08 56.7082 125.6 56.5483 125.12 56.8681C123.36 57.8274 121.6 58.7868 120 61.0253H120.16ZM153.92 31.4448C156.16 31.4448 158.24 30.4854 160.32 29.686C160.8 29.5261 161.12 29.2063 160.8 28.7266C160.64 28.2469 160.32 28.087 159.84 28.4068C157.76 29.3661 155.68 30.0057 153.92 31.4448ZM135.04 18.6532C137.12 18.6532 138.56 17.8537 140 17.3741C140.48 17.3741 140.8 16.8944 140.64 16.4147C140.48 15.7751 139.84 15.7751 139.36 16.0949C137.92 16.7345 136.64 17.374 135.04 18.8131V18.6532ZM126.88 62.6242C128 62.1446 128.8 61.8248 129.6 61.505C130.08 61.3451 130.4 61.0253 130.08 60.5456C129.76 60.066 129.28 60.2258 128.96 60.5456C128.32 61.0253 127.52 61.3451 126.88 62.6242Z" fill="#FCFCFC"/>
<path d="M63.04 69.6596C62.56 71.0987 61.6 72.5377 62.4 74.2966C63.2 73.0174 64 71.8981 64.8 70.619C65.76 70.9388 66.56 71.4185 67.2 72.2179C67.04 73.0174 66.08 73.4971 66.56 74.6163C67.36 73.9768 68 73.4971 68.64 72.8575C69.28 73.3372 70.08 73.9768 70.72 74.4565C70.72 75.0961 70.08 75.5757 70.56 76.5351C71.2 76.0554 71.68 75.5757 72.16 75.0961C76 78.1341 80.16 80.6924 84.48 83.2507C84.48 84.37 85.28 85.0095 85.92 85.4892C90.08 88.3673 94.24 91.2454 98.56 94.1235C101.92 96.362 104.8 99.0803 107.84 101.479C110.24 103.397 110.72 103.238 112.16 100.679C115.04 101.798 117.28 103.877 119.84 105.316C118.72 107.555 117.28 109.633 116.64 112.192C116.32 113.631 116.64 114.91 117.6 115.869C120 118.108 122.72 120.026 125.6 121.785C126.72 122.585 127.68 122.105 128.32 120.986C129.28 119.227 130.24 117.468 131.2 115.869C131.84 114.75 132.48 113.791 133.6 112.991C134.08 113.791 134.88 114.11 135.52 114.43C139.68 116.829 143.68 119.867 147.68 122.585C142.72 125.783 140.8 131.699 142.56 139.694C138.72 138.254 135.36 136.336 132.16 134.097C118.72 124.823 105.6 115.07 92.32 105.636C72 91.4053 52.32 76.3752 31.04 63.7435C25.6 60.5456 20.96 56.2285 16 52.7108C14.88 51.9113 14.24 50.792 14.08 49.353C14.08 44.3963 15.36 40.0791 19.36 36.8812C21.6 40.0791 24.8 42.4775 27.84 44.876C29.44 46.1551 31.2 47.1145 32.48 48.7134C31.36 50.3124 30.08 51.7514 29.12 53.6702C28.64 54.7894 28.48 55.7488 29.76 56.3884C36.48 59.5862 42.08 64.3831 47.84 69.02C50.56 71.0987 50.72 71.0987 52.48 68.0607C53.28 66.7815 53.92 65.3425 55.2 64.3831C57.92 66.1419 60.8 67.581 63.04 69.8195V69.6596ZM95.68 100.679C96.16 98.9204 96.48 97.6412 96.8 96.5219C96.8 96.0423 96.8 95.4027 96.16 95.4027C95.52 95.4027 95.04 95.7225 94.88 96.362C94.88 97.6412 94.56 99.0803 95.68 100.839V100.679ZM90.88 97.0016C91.68 95.8823 92.16 95.2428 92.64 94.4433C92.96 93.9636 92.96 93.4839 92.32 93.1641C91.68 92.8444 91.36 93.1642 91.04 93.6439C90.56 94.6032 90.08 95.5626 90.72 97.0016H90.88Z" fill="#FCFCFC"/>
<path d="M20.96 75.256C20.16 76.3752 20.48 77.4945 21.44 78.4539C21.92 78.9335 22.4 79.2533 23.04 79.5731C30.88 83.7304 38.08 88.847 45.44 93.8037C46.72 94.7631 47.84 94.923 48.8 93.3241C51.04 94.2834 52.8 95.8824 54.88 97.1615C54.88 98.1209 54.88 99.2402 56.32 98.2808C56.64 98.4407 56.96 98.6006 57.28 98.7605C72.96 108.994 89.28 118.268 105.28 128.181C112.96 132.978 120.8 137.775 128.32 142.891C132.32 145.77 136.32 148.648 140.64 151.366C141.92 152.165 143.68 152.485 144.48 154.084C142.4 154.724 140.32 155.043 138.24 155.843C134.56 157.122 133.76 158.561 134.08 162.718C130.72 160.32 127.36 157.922 124.16 155.523C112.48 146.569 100.64 138.095 88.32 129.94C68.48 116.669 47.52 104.996 27.68 91.7251C20.96 87.2481 14.4 82.4512 8.47999 76.8549C8.79999 73.9768 9.11999 71.0987 11.52 69.1799C12.64 68.3805 13.44 68.3805 14.56 69.1799C16.64 70.7789 18.56 72.6976 20.96 73.8169C20.96 74.2966 20.48 74.7763 20.96 75.256Z" fill="#FCFCFC"/>
<path d="M40.96 17.534C39.52 17.8537 38.08 18.1735 36.8 18.6532C34.72 19.4527 34.24 20.7318 35.36 22.6505C37.12 25.3688 39.68 27.4474 42.24 29.5261C57.44 41.3583 73.76 51.4316 90.4 61.0253C102.88 68.2206 115.04 76.2153 126.72 84.6898C128.32 85.809 129.92 86.7684 131.52 87.7277C133.12 88.6871 134.24 89.6465 134.56 91.5652C132.64 96.2021 132.32 100.839 135.36 105.156L134.88 105.476C128.96 101.958 123.84 97.8011 118.4 93.6439C107.68 85.6491 96.48 78.2939 85.28 70.9388C70.72 61.505 56.8 51.1118 42.56 41.1983C36.8 37.0411 31.04 33.0437 25.44 28.5667C20.64 24.7292 22.08 22.1709 26.08 19.7725C30.72 16.8944 35.84 16.7345 41.12 17.374L40.96 17.534Z" fill="#AFE7F8"/>
<path d="M301.6 122.425C302.08 122.745 302.4 123.064 303.2 123.704C299.68 124.344 296.48 125.143 293.44 125.623C270.56 129.3 248.8 137.295 227.2 145.45C203.84 154.244 180.16 162.079 156.16 168.794C152.16 169.914 148 170.873 143.68 169.914C142.24 169.594 140.48 169.274 139.84 167.995C138.72 165.756 136.48 163.998 136.16 161.279C136.16 159.84 136.96 159.041 138.08 158.561C141.6 157.122 145.28 156.323 148.96 155.523C164 152.485 179.04 149.447 193.92 146.409C210.72 142.891 227.2 138.255 243.84 133.937C244.32 133.937 244.64 133.937 245.12 133.777C245.6 133.777 246.24 133.937 246.56 133.298C248.8 133.298 250.72 132.658 252.8 131.859C253.28 131.859 253.76 131.859 254.4 131.859C262.88 130.1 271.2 128.181 279.68 126.422C286.88 124.823 294.24 123.384 301.6 122.425Z" fill="#AEE6F6"/>
<path d="M147.04 142.572C155.04 144.171 162.72 142.412 170.4 140.653C171.84 140.333 173.44 140.013 174.88 139.694C177.12 139.694 179.36 139.214 181.44 138.734C192.32 136.176 203.04 133.458 213.92 130.739C216 130.26 218.4 130.1 220.16 128.501C220.64 128.821 221.12 128.821 221.44 128.341C221.92 128.341 222.4 128.341 222.72 128.021C229.12 126.582 235.36 125.303 241.76 123.704C255.84 120.506 269.76 117.148 283.84 113.791C284.16 113.791 284.48 113.791 284.8 113.471C287.04 112.831 287.36 111.872 285.76 110.113C285.44 109.793 285.12 109.314 284.8 108.994C288.16 108.674 299.2 113.631 302.88 117.148C298.88 117.948 295.04 118.747 291.2 119.707C273.76 124.024 256.32 129.14 239.04 133.777C226.72 137.135 214.4 140.013 202.08 143.211C201.76 143.211 201.44 143.211 201.12 143.211C199.2 142.891 197.12 143.371 195.2 143.691C189.76 144.49 184.16 144.81 178.72 145.45C173.92 145.929 169.12 146.569 164.32 146.729C160 146.889 156 146.729 151.84 145.45C150.08 144.97 148 144.33 146.88 142.572L147.04 142.572Z" fill="#FCFCFC"/>
<path d="M147.04 142.572C148.16 144.33 150.24 144.81 152 145.45C156 146.729 160.16 146.889 164.48 146.729C169.28 146.569 174.08 145.929 178.88 145.45C184.32 144.81 189.92 144.49 195.36 143.691C197.28 143.371 199.2 142.891 201.28 143.211C195.2 144.97 188.8 145.929 182.56 147.049C169.76 149.287 156.96 151.366 144.32 154.244C143.52 152.645 141.92 152.325 140.48 151.526C136.16 148.967 132.32 145.929 128.16 143.051C120.64 137.775 112.8 133.138 105.12 128.341C89.12 118.428 72.8 109.314 57.12 98.9204C56.8 98.7605 56.48 98.6006 56.16 98.4407C56.96 94.4434 59.2 91.4053 61.76 88.3673C62.56 87.4079 63.04 88.3673 63.52 88.6871C67.68 91.7251 71.52 95.0829 75.84 97.8011C90.08 106.755 103.04 117.468 117.12 126.742C123.2 130.739 128.96 135.057 135.36 138.574C137.6 139.853 140 140.813 142.24 141.772C143.52 142.252 144.96 141.292 145.92 142.572C146.08 142.891 146.56 143.051 146.88 142.891L147.04 142.572ZM61.44 98.7605L61.92 99.0803C63.04 97.4813 64.16 95.8824 65.12 94.2834C65.44 93.9637 65.44 93.484 65.12 93.1642C64.8 92.8444 64.32 93.1642 64.16 93.484C62.88 95.0829 61.76 96.8417 61.44 98.9204V98.7605ZM65.28 102.438C66.24 100.679 66.88 99.4001 67.52 98.1209C67.84 97.6412 67.84 97.1616 67.2 96.8418C66.72 96.6819 66.4 97.0017 66.24 97.4813C65.6 98.9204 64.96 100.2 65.28 102.438Z" fill="#AFE7F7"/>
<path d="M285.28 70.9388C285.76 70.9388 286.08 71.0987 287.2 71.2586C283.68 73.0174 280.8 74.4565 277.76 76.0554C261.28 84.37 243.52 89.4866 225.76 94.4433C210.56 98.6006 195.2 102.438 179.52 104.996C168.8 106.755 157.92 107.715 146.88 106.755C145.28 106.755 143.68 106.116 142.24 105.956C142.24 105.956 141.92 105.796 141.76 105.636C141.76 103.877 140.48 102.598 140.8 100.839C142.56 100.999 144.16 100.2 145.76 99.7199C147.68 99.0803 149.44 98.4407 151.36 98.1209C150.72 99.2402 149.28 99.2402 148.32 99.8798C147.68 100.359 146.72 100.519 147.04 101.479C147.36 102.278 148.32 101.958 149.12 101.798C151.68 100.999 154.4 100.2 156.96 99.2402C174.72 93.3241 192.96 89.1668 211.52 85.9689C227.2 83.2507 242.72 79.8929 258.24 76.3752C262.24 75.4158 266.08 74.4565 270.08 73.657C270.08 73.9768 269.76 74.1367 269.6 74.2966C260 78.1341 250.24 81.4919 240.16 84.0502C230.56 86.4486 220.8 88.3673 211.2 90.7657C198.24 93.9636 185.12 96.6819 172 99.2402C171.04 99.4001 169.44 99.2402 169.6 100.519C169.76 101.798 171.36 101.159 172.16 100.999C177.44 100.2 182.88 99.4001 188.16 98.2808C203.52 95.0829 218.88 91.7251 234.24 88.2074C248.8 85.0095 262.88 80.0528 276.8 74.4565C279.68 73.3372 282.56 72.5377 285.12 70.7789L285.28 70.9388Z" fill="#AFE7F7"/>
<path d="M268.32 88.6871C263.2 91.2454 257.92 93.9636 252.8 96.362C237.92 103.557 223.2 111.072 207.84 117.148C197.76 121.146 187.68 125.463 177.44 128.981C176.48 129.3 175.68 129.78 174.56 130.26C176.96 130.739 179.04 129.62 181.12 128.981C203.36 121.625 224.96 112.352 245.92 101.798C248.32 100.519 250.72 99.56 253.28 98.4407C253.28 99.2402 252.64 99.2402 252.16 99.5599C244.8 103.877 237.12 107.715 229.44 111.552C218.88 116.829 208.8 122.745 198.24 128.021C197.6 128.341 196.8 128.501 196.64 129.46C196.32 129.3 196 129.46 195.84 129.78C185.76 132.818 175.68 135.696 165.28 136.975C161.12 137.455 156.96 137.775 152.8 136.975C152.48 136.975 152.16 136.656 151.68 136.656C151.68 136.496 151.36 136.336 151.2 136.496C151.36 135.216 150.4 134.577 149.76 133.777C151.68 131.539 154.4 130.42 157.12 129.78C166.08 127.222 175.04 125.143 183.84 122.105C191.84 119.387 199.68 116.349 207.2 112.511C213.44 109.314 219.84 106.435 225.76 102.598C229.44 100.2 233.76 99.5599 237.92 98.6006C238.4 98.6006 239.2 98.7605 239.52 98.1209C240 98.1209 240.48 98.2808 240.8 97.8011C241.6 97.8011 242.4 97.8011 243.2 97.4813C249.28 95.4027 255.2 93.6439 261.12 91.2454C263.68 90.2861 266.08 88.847 268.8 88.6871H268.32Z" fill="#ADE4F5"/>
<path d="M285.28 70.9388C282.72 72.8575 279.84 73.4971 276.96 74.6163C263.2 80.3726 249.12 85.1694 234.4 88.3673C219.04 91.7251 203.68 95.0829 188.32 98.4407C183.04 99.56 177.76 100.359 172.32 101.159C171.52 101.159 169.92 101.958 169.76 100.679C169.6 99.4001 171.2 99.5599 172.16 99.4C185.28 96.8417 198.4 93.9636 211.36 90.9256C220.96 88.5272 230.72 86.7683 240.32 84.21C250.4 81.6517 260.16 78.294 269.76 74.4565C269.92 74.4565 270.08 74.1367 270.24 73.8169C266.24 74.7762 262.4 75.7356 258.4 76.5351C242.88 80.0528 227.36 83.4106 211.68 86.1288C193.28 89.3267 175.04 93.4839 157.12 99.4C154.56 100.2 151.84 100.999 149.28 101.958C148.48 102.118 147.68 102.438 147.2 101.639C146.72 100.679 147.84 100.519 148.48 100.04C149.44 99.4001 150.88 99.4001 151.52 98.2808C152 98.4407 152.48 98.2808 152.8 97.961C167.2 93.6438 181.44 89.1668 196.16 85.809C196.48 85.809 196.8 85.809 197.12 85.809C197.76 85.809 198.4 86.1288 198.88 85.3293C199.52 85.3293 200 85.3293 200.64 85.3293C205.92 84.3699 211.2 83.4106 216.64 82.2913C228.64 80.0528 240.48 77.6544 252.32 75.0961C261.12 73.1773 269.76 70.7789 278.56 69.3398C280.96 69.8195 283.2 70.4591 285.6 71.0987L285.28 70.9388Z" fill="#FAFCFD"/>
<path d="M241.76 66.6216C247.36 65.982 253.12 65.5024 258.72 64.8628C258.72 65.1826 258.4 65.3425 258.08 65.5024C255.84 66.142 253.6 66.6216 251.36 67.4211C244.16 69.6596 236.96 71.7382 229.6 73.0174C216.64 75.4158 203.68 77.9742 190.72 80.8523C177.92 83.8903 165.44 88.2074 152.8 92.2048C150.56 93.0042 148.32 93.9636 146.08 94.923C144.8 95.5626 144.48 96.362 146.08 97.1615C144.32 97.961 142.56 98.4407 141.28 99.7198C140.8 99.4001 140.48 98.9204 140.64 98.4407C140.96 96.8418 141.12 95.2428 141.76 93.8037C143.2 90.7657 145.76 88.6871 148.32 86.7684C151.84 84.21 155.36 81.4919 159.52 80.0528C166.08 77.8143 172.96 76.8549 179.84 75.8955C186.72 75.0961 193.6 74.9361 200.48 73.9768C208.48 72.8575 216.16 71.0987 224 69.3398C224.64 69.3398 225.28 69.02 225.12 68.2206C227.52 67.4211 230.08 67.9008 232.48 67.4211C235.52 66.9414 238.56 66.9414 241.6 66.3018L241.76 66.6216Z" fill="#B0E8F8"/>
<path d="M145.92 97.1615C144.32 96.362 144.64 95.5626 145.92 94.923C148.16 93.9636 150.4 93.0042 152.64 92.2048C165.12 88.2074 177.6 83.7304 190.56 80.8523C203.36 77.8143 216.48 75.4158 229.44 73.0174C236.8 71.7382 244 69.6596 251.2 67.4211C253.44 66.7815 255.68 66.1419 257.92 65.5024C258.24 65.5024 258.56 65.3425 258.56 64.8628H258.88C259.36 65.1826 259.68 65.1826 260 64.8628C263.04 64.2232 265.92 63.2638 268.96 63.1039C271.36 62.944 274.08 63.1039 276.8 65.0226C271.36 66.1419 266.4 67.2612 261.44 68.3804C231.84 75.096 202.24 81.6517 172.96 89.8063C163.84 92.3647 154.88 95.4027 145.76 97.4813L145.92 97.1615Z" fill="#F3F8FA"/>
<path d="M22.08 74.7762C22.72 71.4185 24.48 68.5404 26.24 65.6623C26.88 64.3831 27.84 65.1826 28.64 65.6623C36.8 70.9388 44.96 76.0554 53.12 81.3319C53.44 81.4918 53.76 81.6517 54.08 81.8116C54.24 82.1314 54.08 82.2913 54.08 82.6111C51.68 83.4106 50.56 85.4892 49.6 87.5679C48.8 89.0069 48.16 90.7658 47.52 92.2048C41.92 88.5272 36.32 84.8496 30.88 81.0121C28 78.9335 24.8 77.1747 22.08 74.7762Z" fill="#AFE7F7"/>
<path d="M225.28 68.3805C225.28 69.1799 224.8 69.3399 224.16 69.4997C216.32 71.2586 208.64 73.0174 200.64 74.1367C193.76 75.096 186.88 75.0961 180 76.0554C173.12 76.8549 166.24 77.8142 159.68 80.2127C155.52 81.6517 152 84.37 148.48 86.9283C145.76 88.847 143.36 90.7657 141.92 93.9636C141.28 95.4027 141.12 97.0016 140.8 98.6006C140.8 99.0802 140.8 99.56 141.44 99.8798C141.44 100.2 141.44 100.519 141.28 100.839C141.12 102.598 142.4 104.037 142.24 105.636C137.12 104.517 134.88 100.04 136.96 94.4433C139.04 88.6871 143.04 84.5299 148.32 81.4919C155.36 77.1747 163.2 75.096 171.36 73.9768C177.12 73.1773 182.72 72.218 188.48 72.0581C192.16 72.218 195.84 71.5784 199.52 71.2586C203.84 70.9388 208.16 70.4591 212.32 69.9794C216.8 69.4997 221.28 69.0201 225.76 68.5404L225.28 68.3805Z" fill="#F3F8FA"/>
<path d="M196.64 129.46C196.64 128.501 197.6 128.341 198.24 128.021C208.64 122.745 218.88 116.829 229.44 111.552C237.12 107.715 244.8 103.877 252.16 99.5599C252.64 99.2402 253.28 99.2402 253.28 98.4407C253.6 98.4407 253.92 98.4407 254.08 98.1209C254.4 98.1209 254.56 98.1209 254.56 97.8011C260.64 94.6032 266.56 91.5652 272.8 88.6871C273.6 88.3673 274.08 88.3673 274.56 89.0069C275.52 90.1261 276.32 91.4053 275.84 93.0042C274.56 96.2021 274.88 98.7605 279.04 100.359C269.28 105.796 259.36 109.473 249.28 112.511C249.28 111.712 250.08 111.552 250.56 111.392C253.76 109.953 256.96 108.514 260.16 107.075C264.32 104.996 268.64 102.918 272.96 100.839C270.72 99.0803 269.76 97.0016 270.56 94.2834C269.12 94.7631 268 95.4027 266.88 96.0423C261.12 99.4001 255.36 102.598 249.6 105.796C241.44 110.113 232.64 113.311 224.32 117.308C219.2 119.867 214.08 122.105 208.96 124.663C207.68 125.303 206.08 125.303 205.28 126.742C204.8 126.742 204.32 126.742 204 127.222C201.44 128.021 199.04 128.821 196.48 129.62L196.64 129.46Z" fill="#F9FBFC"/>
<path d="M256.32 118.587C248.8 120.346 241.28 122.105 233.76 123.864C223.84 126.102 213.92 128.021 204 129.94C203.52 129.94 203.04 130.26 202.08 129.78C212.8 126.262 223.04 122.905 233.44 119.547C233.92 120.506 234.72 120.026 235.52 119.867C239.84 118.428 244.32 117.148 248.64 115.549C250.08 115.07 251.84 115.07 252.8 113.631C253.12 113.631 253.44 113.631 253.76 113.311C254.24 113.311 254.72 113.311 254.88 112.831C261.76 110.433 268.48 107.555 275.2 104.517C276.16 106.435 277.12 108.514 278.4 110.433C279.68 112.192 279.36 112.991 277.12 113.311C272.16 113.791 267.36 115.07 262.56 116.509C260.96 116.988 258.88 116.988 257.6 118.587C257.12 118.428 256.64 118.268 256.32 118.907V118.587Z" fill="#AEE6F6"/>
<path d="M60.48 58.6269C57.12 59.1066 54.88 61.3451 52.96 63.7436C51.84 65.0227 51.04 66.6217 49.92 68.0607C48.16 66.6217 46.4 65.3425 44.8 63.9035C40.96 60.5457 36.64 57.6676 32 55.2692C30.72 54.6296 30.72 54.1499 31.52 53.0306C33.76 49.6728 36.48 46.7947 40 44.5562C40.64 44.0765 41.12 43.9166 41.76 44.5562C48 49.1931 54.4 53.6702 60.64 58.3072C60.64 58.3072 60.64 58.6269 60.64 58.7868L60.48 58.6269Z" fill="#AEE6F6"/>
<path d="M205.28 126.582C206.08 125.143 207.68 125.143 208.96 124.504C214.08 121.945 219.2 119.707 224.32 117.148C232.64 112.991 241.28 109.953 249.6 105.636C255.52 102.598 261.28 99.2402 266.88 95.8824C268 95.2428 269.12 94.6032 270.56 94.1235C269.76 96.8417 270.56 98.9204 272.96 100.679C268.48 102.918 264.32 104.996 260.16 106.915C256.96 108.354 253.76 109.793 250.56 111.232C250.08 111.552 249.28 111.552 249.28 112.352C248.8 112.352 248.32 112.352 248 112.831C239.36 115.549 230.72 118.268 222.08 121.146C216.96 122.745 211.84 124.504 206.72 126.262C206.24 126.262 205.92 126.422 205.44 126.582H205.28Z" fill="#AFE7F8"/>
<path d="M161.92 140.333C157.76 141.133 153.76 141.612 149.6 140.973C144.32 140.013 142.88 137.775 144 132.498C144.32 130.899 144.96 129.46 145.76 128.021C146.88 125.943 148.48 124.663 150.72 124.344C161.44 123.065 171.68 119.867 181.92 116.829C191.36 113.951 201.12 111.392 210.08 107.075C213.6 105.476 216.8 103.078 220.8 102.598C221.6 102.598 222.4 102.438 223.52 102.598C216.48 105.956 209.92 109.633 203.04 112.511C188.16 118.428 172.8 123.224 157.28 127.382C154.4 128.181 151.68 129.14 149.44 131.059C146.24 133.618 146.88 136.656 150.56 138.254C153.12 139.374 156 139.214 158.72 139.534C159.84 139.853 161.12 139.534 162.08 140.333H161.92Z" fill="#F3F6F7"/>
<path d="M152.96 110.113C157.76 109.793 162.72 109.633 167.68 109.314C178.4 108.354 188.8 106.116 199.36 103.717C218.4 99.4001 237.28 93.9637 255.68 87.5679C263.84 84.8497 271.52 81.0122 279.2 77.4945C279.68 77.3346 280.16 77.0148 280.8 76.695C280.8 79.2534 279.04 80.2127 277.12 81.1721C270.4 84.2101 263.68 87.0882 256.8 89.9663C238.88 97.3215 220 100.999 201.28 105.636C193.92 107.395 186.56 109.154 179.04 109.633C171.52 110.113 163.84 110.912 156.32 110.593C155.2 110.593 154.08 110.273 152.96 110.113Z" fill="#F4F4F4"/>
<path d="M136.96 110.273C139.84 110.593 142.56 111.072 145.44 111.392C152.48 112.192 159.52 112.511 166.72 112.032C174.4 111.552 182.24 111.392 189.76 109.793C194.72 108.834 199.52 107.715 204.48 106.595C205.12 106.595 205.76 106.276 206.56 106.595C203.84 108.034 200.96 108.994 198.24 109.793C184.96 113.471 171.68 117.788 158.08 120.666C156.32 120.986 154.56 121.306 152.8 121.625C152.8 120.666 152.48 120.026 151.84 119.387C149.92 117.468 147.36 116.189 145.12 114.75C142.56 113.151 139.52 112.192 136.96 110.273Z" fill="#F9FBFC"/>
<path d="M20.96 73.8169C18.56 72.6976 16.48 70.9388 14.56 69.1799C13.44 68.2206 12.64 68.2206 11.52 69.1799C8.95999 71.0987 8.79999 73.9768 8.47999 76.8549C6.55999 75.4159 4.64 73.9768 3.36 71.7382C2.72 70.7789 2.72 69.6596 3.2 68.7003C5.76 63.2638 9.6 59.2664 15.36 57.1878C16.16 56.868 16.8 56.868 17.44 57.5076C20.16 59.4264 22.72 61.505 25.44 63.4237C25.92 63.7435 26.24 63.9034 25.6 64.543C23.36 67.2612 22.08 70.619 20.96 73.8169Z" fill="#AEE6F6"/>
<path d="M104.48 96.362C98.72 92.3647 92.96 88.3673 87.04 84.5298C86.08 83.8902 85.92 83.4105 86.72 82.6111C87.68 81.3319 88.48 80.0528 89.44 78.6137C89.76 78.134 90.08 77.6544 90.72 78.2939C98.4 83.8903 106.72 88.6871 114.24 94.4433C114.24 94.4433 114.24 94.4433 114.24 94.7631C112.48 96.0422 111.52 97.961 110.4 99.5599C109.6 99.2401 108.96 98.7605 108.16 98.4407C107.36 98.1209 106.72 97.0016 105.44 97.4813C105.6 96.8417 105.28 97.0016 104.8 96.8417C104.64 96.8417 104.32 96.5219 104.16 96.362H104.48Z" fill="#ADE4F5"/>
<path d="M84.32 83.4106C80.16 80.8522 75.84 78.4539 72 75.256C72.16 74.2966 74.08 73.3372 72.96 72.5377C71.52 71.7383 71.52 73.657 70.88 74.4565C70.24 73.9768 69.44 73.3372 68.8 72.8575C69.6 72.0581 70.4 71.2586 71.2 70.4591C71.52 70.1393 72.32 69.6596 71.68 69.02C71.2 68.3804 70.56 69.02 70.24 69.3398C69.28 70.2992 68.32 71.2586 67.36 72.2179C66.72 71.4185 65.92 70.9388 64.96 70.619C65.12 70.2992 65.44 69.8195 65.6 69.4997C69.44 64.543 69.92 64.543 75.04 67.7409C79.2 70.4591 83.2 73.1773 87.36 75.7356C88.64 76.5351 88.64 77.1747 87.84 78.134C86.56 79.733 85.6 81.4919 84.48 83.2507L84.32 83.4106Z" fill="#ADE4F5"/>
<path d="M278.4 69.1799C269.6 70.619 260.96 73.0174 252.16 74.9362C240.32 77.4945 228.48 80.0528 216.48 82.1314C211.2 83.0908 205.92 84.0502 200.48 85.1694C200 85.1694 199.36 85.1694 198.72 85.1694C205.92 82.9309 213.28 81.3319 220.64 79.5731C238.08 75.4158 255.52 71.5784 272.96 67.581C273.28 67.581 273.76 67.1013 274.08 67.581C275.2 68.7003 276.96 68.5404 278.24 69.3399L278.4 69.1799Z" fill="#ADE4F5"/>
<path d="M32.32 48.5536C31.04 46.9546 29.12 45.9952 27.68 44.716C24.64 42.3176 21.6 39.9192 19.2 36.7213C20.96 34.9625 23.2 34.163 25.44 33.5234C26.08 33.3635 26.4 33.5234 26.72 34.0031C30.56 37.0411 34.72 39.9192 39.04 42.7973C36.32 44.3962 34.4 46.4749 32.32 48.7134V48.5536Z" fill="#AEE6F6"/>
<path d="M131.2 112.352C129.6 114.59 128.32 116.988 127.04 119.387C126.56 120.506 126.08 120.666 125.12 119.867C123.04 118.268 121.12 116.669 119.04 115.23C117.92 114.43 117.76 113.311 118.24 112.192C119.04 110.113 119.84 108.194 121.12 106.435C122.08 106.915 122.88 107.235 123.84 107.874C126.24 109.473 128.96 110.433 131.2 112.352Z" fill="#FCFCFC"/>
<path d="M301.6 122.425C294.24 123.544 287.04 124.823 279.68 126.422C271.2 128.181 262.88 130.1 254.4 131.859C253.92 131.859 253.44 131.859 252.8 131.859V131.539C262.08 128.661 271.52 126.422 280.8 123.864C287.36 122.105 294.08 120.506 300.64 119.067C301.12 119.067 301.6 118.747 302.24 119.067C301.12 120.026 300.64 120.986 301.44 122.425L301.6 122.425Z" fill="#F3F6F7"/>
<path d="M136.96 110.273C139.52 112.192 142.4 113.151 145.12 114.75C147.36 116.189 149.92 117.308 151.84 119.387C152.48 120.026 152.96 120.666 152.8 121.625C151.04 121.945 149.28 122.105 147.68 122.745C143.68 120.027 139.68 117.148 135.52 114.59C134.88 114.11 134.08 113.791 133.6 113.151C134.56 111.872 135.84 111.072 137.12 110.273L136.96 110.273Z" fill="#AFE7F7"/>
<path d="M54.88 97.1615C52.8 95.8824 51.04 94.2834 48.8 93.3241C50.08 89.3267 52.16 85.809 55.2 82.9309H55.52C56.96 83.8903 58.24 84.8497 59.68 85.6491C60.64 86.2887 60.8 86.6085 60 87.5678C57.44 90.2861 55.52 93.324 54.88 97.1615Z" fill="#ADE4F5"/>
<path d="M60.48 58.6269C60.48 58.6269 60.48 58.3071 60.48 58.1472C62.88 59.7462 65.12 61.3451 67.52 62.9441C68.32 63.4237 68.48 63.7435 67.52 64.3831C65.6 65.6623 64.16 67.581 62.72 69.4997C60.48 67.2612 57.6 65.8222 54.88 64.0633C56 62.6243 57.44 61.8248 58.88 60.7055C59.68 60.2259 60.8 59.7462 60.32 58.467L60.48 58.6269Z" fill="#ADE4F5"/>
<path d="M257.76 118.428C259.04 116.829 260.96 116.829 262.72 116.349C267.52 114.91 272.16 113.631 277.28 113.151C279.52 112.991 279.84 112.192 278.56 110.273C277.28 108.354 276.48 106.435 275.36 104.357C276.64 103.078 278.88 103.238 279.84 101.319C279.84 100.999 280.96 101.798 281.44 102.278C281.44 102.438 281.44 102.598 281.12 102.758C277.92 105.476 277.92 105.796 281.28 108.034C282.24 108.674 283.04 109.314 283.84 110.113C284.32 110.433 284.64 110.912 285.12 111.712C275.84 114.27 266.88 116.349 257.76 118.428Z" fill="#F4F4F4"/>
<path d="M131.2 112.352C128.96 110.433 126.24 109.473 123.84 107.874C123.04 107.395 122.08 106.915 121.12 106.435C121.12 106.435 121.12 106.435 121.12 106.276C121.92 104.836 122.88 102.918 124.16 102.278C125.76 101.639 126.88 103.717 128.32 104.517C130.24 105.636 132.16 106.915 134.08 108.034C134.88 108.514 135.2 108.834 134.08 109.633C132.96 110.273 132 111.392 131.04 112.192L131.2 112.352Z" fill="#ADE4F5"/>
<path d="M119.68 105.476C116.96 104.037 114.72 101.958 112 100.839C112.64 98.6006 114.4 97.1616 115.68 95.2428C118.24 97.1616 120.8 99.0802 123.52 100.999C122.08 102.278 120.96 104.037 119.84 105.476H119.68Z" fill="#ADE4F5"/>
<path d="M220.16 128.341C218.4 129.94 216 130.1 213.92 130.58C203.2 133.298 192.32 136.016 181.44 138.574C179.36 139.054 177.12 139.534 174.88 139.534C184.16 136.496 193.44 134.097 203.04 131.859C208.8 130.579 214.4 129.14 220.16 128.181V128.341Z" fill="#ADE4F5"/>
<path d="M22.08 74.7762C24.64 77.3346 27.84 79.0934 30.88 81.0121C36.32 84.8496 41.92 88.5272 47.52 92.2048C47.04 93.6439 46.4 92.6845 45.76 92.2048C42.56 90.1262 39.52 88.0476 36.32 85.9689C32.32 83.2507 28 80.8523 23.84 78.4539C22.72 77.8143 21.28 77.1747 21.6 75.256C21.6 74.9362 21.28 74.9362 20.96 75.0961C21.76 75.5758 21.76 74.7763 22.08 74.4565V74.7762Z" fill="#F4F4F4"/>
<path d="M225.28 68.3805C220.8 68.8601 216.32 69.3398 211.84 69.8195C207.52 70.2992 203.2 70.619 199.04 71.0987C195.36 71.4185 191.68 72.0581 188 71.8982C192.48 71.4185 196.96 70.9388 201.44 70.4591C209.28 69.6597 217.28 68.7003 225.12 67.9008C230.56 67.4211 236.16 66.6216 241.76 66.6216C238.72 67.2612 235.68 67.2612 232.64 67.7409C230.24 68.0607 227.68 67.7409 225.28 68.5404L225.28 68.3805Z" fill="#F4F4F4"/>
<path d="M268.32 88.6871C265.44 88.6871 263.04 90.2861 260.64 91.2455C254.72 93.6439 248.64 95.5626 242.72 97.4813C241.92 97.8011 241.12 97.8011 240.32 97.8011C248.48 94.7631 256.8 92.0449 264.8 88.6871C266.72 87.8877 268.64 87.0882 270.56 86.1288C271.36 85.809 271.68 86.1288 272 86.6085C272.48 87.5678 271.52 87.4079 271.2 87.5678C270.56 87.8876 269.92 88.0475 269.28 88.3673C268.96 88.3673 268.64 88.3673 268.48 88.6871L268.32 88.6871Z" fill="#F4F4F4"/>
<path d="M252.8 113.471C251.84 114.91 250.08 114.91 248.64 115.39C244.32 116.988 240 118.268 235.52 119.707C234.88 119.867 234.08 120.506 233.44 119.387C239.84 117.308 246.24 115.39 252.64 113.311L252.8 113.471Z" fill="#F4F4F4"/>
<path d="M161.92 140.333C160.96 139.534 159.68 139.854 158.56 139.534C161.44 139.214 164.48 139.054 167.36 138.734C165.6 139.694 163.68 139.853 161.92 140.173L161.92 140.333Z" fill="#ADE4F5"/>
<path d="M105.76 97.4814C106.88 97.0017 107.52 98.1209 108.48 98.4407C109.28 98.7605 109.92 99.2402 110.72 99.56C110.56 100.519 110.24 101.159 109.12 100.2C108 99.2402 106.88 98.4407 105.76 97.4814Z" fill="#F4F4F4"/>
<path d="M252.96 131.699V132.019C251.04 132.818 248.96 133.458 246.72 133.458C248.64 132.658 250.88 132.178 252.96 131.699Z" fill="#F4F4F4"/>
<path d="M149.44 133.777C150.08 134.577 151.04 135.217 150.88 136.496C149.76 136.016 148.64 135.376 149.44 133.777Z" fill="#F3F6F7"/>
<path d="M202.24 130.26C201.76 129.78 201.28 130.26 200.8 130.26C201.28 130.58 201.76 130.739 202.24 130.26Z" fill="#AEE6F6"/>
<path d="M198.72 85.1694C198.24 85.9689 197.6 85.6492 196.96 85.6492C197.44 85.1695 198.08 85.3293 198.72 85.1694Z" fill="#ADE4F5"/>
<path d="M54.08 82.6111C54.08 82.2913 54.4 82.1314 54.08 81.8116C54.24 81.8116 54.56 81.9715 54.56 82.1314C54.56 82.4512 54.24 82.4512 53.92 82.6111L54.08 82.6111Z" fill="#161718"/>
<path d="M239.04 98.1209C238.72 98.7605 237.92 98.4407 237.44 98.6006C237.92 98.1209 238.4 98.2808 239.04 98.1209Z" fill="#F4F4F4"/>
<path d="M240.32 97.8011C240 98.2808 239.52 98.1209 239.04 98.1209C239.36 97.6412 239.84 97.8011 240.32 97.8011Z" fill="#F4F4F4"/>
<path d="M254.88 112.831C254.56 113.471 254.08 113.151 253.76 113.311C254.08 112.991 254.56 112.991 254.88 112.831Z" fill="#F4F4F4"/>
<path d="M152.8 97.8011C152.48 98.2808 152 98.2808 151.52 98.1209C151.84 97.8011 152.32 97.8011 152.8 97.8011Z" fill="#AFE7F7"/>
<path d="M260.32 64.7029C260 65.1826 259.52 65.1826 259.2 64.7029C259.52 64.7029 260 64.7029 260.32 64.7029Z" fill="#B0E8F8"/>
<path d="M248 112.991C248.32 112.352 248.8 112.511 249.28 112.511C248.96 112.991 248.48 112.831 248 112.991Z" fill="#F9FBFC"/>
<path d="M256.32 118.587C256.64 117.948 257.12 118.108 257.6 118.268C257.28 118.747 256.8 118.587 256.32 118.587Z" fill="#F4F4F4"/>
<path d="M223.04 127.701C222.72 128.181 222.24 128.181 221.76 128.021C222.08 127.701 222.56 127.701 223.04 127.701Z" fill="#ADE4F5"/>
<path d="M221.44 128.181C221.12 128.661 220.64 128.661 220.16 128.341C220.48 128.021 220.96 128.021 221.44 128.181Z" fill="#ADE4F5"/>
<path d="M204.16 127.062C204.48 126.582 204.96 126.582 205.44 126.582C205.12 127.062 204.64 126.902 204.16 127.062Z" fill="#AFE7F8"/>
<path d="M246.72 133.458C246.4 134.097 245.76 133.777 245.28 133.937C245.6 133.458 246.24 133.618 246.72 133.458Z" fill="#F4F4F4"/>
<path d="M135.52 105.316C135.68 105.476 135.84 105.636 136 105.796C136 105.796 135.84 105.956 135.68 106.116C135.52 105.956 135.2 105.796 135.04 105.636C135.2 105.636 135.36 105.476 135.52 105.316Z" fill="#AFE7F8"/>
<path d="M137.12 107.235C137.12 107.235 136.96 107.235 136.8 107.075C136.8 106.915 136.8 106.755 136.8 106.755C136.8 106.755 136.96 106.755 136.96 107.075C136.96 107.075 136.96 107.235 136.96 107.395L137.12 107.235Z" fill="#AFE7F8"/>
<path d="M253.92 98.1209C253.92 98.6006 253.6 98.6006 253.12 98.4408C253.44 98.4408 253.6 98.1209 253.92 98.1209Z" fill="#ADE4F5"/>
<path d="M195.68 129.78C195.84 129.3 196.16 129.3 196.48 129.46C196.32 129.78 196 129.78 195.68 129.78Z" fill="#F9FBFC"/>
<path d="M268.32 88.6871C268.48 88.3673 268.8 88.2074 269.12 88.3673C268.96 88.6871 268.64 88.6871 268.32 88.6871Z" fill="#ADE4F5"/>
<path d="M105.12 96.8418C105.44 96.8418 105.92 96.8418 105.76 97.4814C105.6 97.3215 105.28 97.1616 105.12 96.8418Z" fill="#F4F4F4"/>
<path d="M253.76 113.151C253.6 113.631 253.28 113.631 252.8 113.471C252.96 113.151 253.44 113.151 253.76 113.151Z" fill="#F4F4F4"/>
<path d="M147.04 142.572C146.72 142.572 146.24 142.572 146.08 142.252C146.4 142.252 146.88 142.252 147.04 142.572Z" fill="#FCFCFC"/>
<path d="M136.16 106.435C136 106.435 135.84 106.435 135.68 106.276C135.68 106.276 135.84 106.116 136 105.956L136.48 106.276C136.48 106.276 136.48 106.276 136.32 106.435L136.16 106.435Z" fill="#AFE7F8"/>
<path d="M104.48 96.362C104.64 96.362 104.96 96.6819 105.12 96.8418C104.96 96.8418 104.64 96.5219 104.48 96.362Z" fill="#F4F4F4"/>
<path d="M141.92 105.636C141.92 105.636 142.24 105.796 142.4 105.956C142.24 105.956 142.08 105.956 141.92 105.636Z" fill="#F3F8FA"/>
<path d="M55.5191 82.7707L55.2 82.771C55.2 82.6115 55.3595 82.6112 55.5191 82.7707Z" fill="#161718"/>
<path d="M254.56 97.961C254.56 98.1209 254.24 98.2808 254.08 98.2808C254.24 98.2808 254.4 98.1209 254.56 97.961Z" fill="#ADE4F5"/>
<path d="M151.04 136.336C151.36 136.336 151.36 136.336 151.52 136.496C151.36 136.496 151.2 136.496 151.04 136.336Z" fill="#F3F6F7"/>
<path d="M136.32 106.276L136.64 106.595C136.32 106.915 136.32 106.595 136.16 106.595C136.16 106.595 136.16 106.595 136.32 106.435V106.276Z" fill="#AFE7F8"/>
<path d="M205.92 52.7108C200.96 53.6702 196 53.5102 191.04 54.6295C188.16 55.2691 185.12 55.7488 182.4 57.1878C182.08 57.1878 181.92 57.1878 181.6 57.3477L180.48 57.6675C178.4 57.9873 176.32 58.1472 174.4 58.467C166.56 60.066 158.56 61.6649 150.88 63.5836C150.08 63.7435 149.28 63.9034 148.48 63.5836C146.08 62.6243 143.52 61.505 141.76 59.4263C139.2 56.7081 136.32 54.4696 132.96 52.7108C131.52 51.9113 130.08 50.9519 128.64 49.9926C129.28 49.5129 130.08 49.5129 130.24 48.7134C130.56 48.7134 130.88 48.7134 131.04 48.3936C131.52 48.3936 132 48.3936 132.16 47.914C133.76 47.1145 135.52 46.4749 137.28 46.1551C137.6 46.1551 138.08 46.1551 138.24 45.8353C138.88 45.8353 139.52 45.8353 140.16 45.6754C144 44.5562 147.68 43.4369 151.52 42.3176C153.44 41.6781 155.36 41.678 157.12 40.5588C157.6 40.0791 158.24 40.239 158.72 40.0791C164.16 38.9599 169.6 37.5208 175.2 37.201C176.32 37.201 177.28 38.1604 178.4 38.4802C181.12 39.4395 183.52 41.3582 186.4 41.8379C189.6 43.5968 192.96 45.3556 196.16 47.1145C199.52 48.8733 202.88 50.6322 205.92 52.8707V52.7108Z" fill="#AFE7F8"/>
<path d="M100.48 50.6321C99.84 50.6321 99.2 50.3124 98.72 49.9926C89.44 43.277 79.52 37.3609 69.44 31.9245C68.48 31.4448 67.52 30.8052 66.72 30.1656C66.08 29.8458 65.6 29.2063 65.6 28.4068C65.6 27.4474 66.4 27.2875 67.2 26.9677C70.88 26.0084 74.56 25.2089 78.24 24.7292C87.68 23.61 96.96 22.4907 106.4 21.2115C109.6 19.1329 112.16 21.3714 114.56 22.8105C119.68 25.8485 124.96 28.4068 129.6 31.9245C130.72 32.8839 131.84 33.6833 132.8 34.9625C134.4 37.0411 134.08 38.4802 131.52 39.2797C128 40.3989 124.48 41.3583 120.96 42.4776C115.2 44.2364 109.6 46.7947 104.16 49.353C102.88 49.8327 101.76 50.4723 100.32 50.6321L100.48 50.6321ZM68.64 28.8865C70.88 30.1657 72.8 31.2849 74.72 32.4042C82.88 37.0411 90.72 41.9979 98.24 47.2744C99.84 48.3937 100.96 48.7134 102.72 47.914C111.04 44.0765 119.84 40.8786 128.8 38.4802C129.76 38.1604 131.36 38.1604 131.36 37.3609C131.52 36.2416 130.24 35.4422 129.28 34.8026C123.04 30.1656 116.16 26.6479 109.28 22.9704C108.8 22.6506 108.32 22.6506 107.68 22.9704C99.68 24.5693 91.36 25.5287 83.2 26.4881C78.4 27.1277 73.6 27.6073 68.64 29.0464V28.8865Z" fill="#0C0D0E"/>
<path d="M128.32 50.1525C129.76 51.1118 131.2 52.0712 132.64 52.8707C135.84 54.6295 138.88 56.868 141.44 59.5863C143.36 61.6649 145.76 62.6243 148.16 63.7435C148.96 64.0633 149.76 63.9034 150.56 63.7435C158.4 61.6649 166.24 60.2258 174.08 58.6269C176.16 58.1472 178.08 57.9873 180.16 57.8274C180.48 57.8274 180.96 57.8274 181.28 57.5076C181.6 57.5076 181.76 57.5076 182.08 57.3477C185.28 56.868 188.48 56.3884 191.68 55.9087C191.68 56.0686 192 56.3884 192 56.5483C187.52 57.3477 183.04 58.3071 178.56 59.1066C169.44 60.8654 160.32 62.9441 151.36 65.3425C147.68 66.3018 144.48 64.8628 142.24 62.7841C137.12 58.467 131.68 54.7894 125.92 51.4316C125.12 50.9519 124.16 50.3124 124.32 49.1931C124.48 48.0738 125.6 48.0738 126.4 47.754C140.96 41.8379 156.16 37.8406 171.68 35.7619C173.28 35.602 174.88 35.4422 176.48 35.2823C177.28 35.2823 177.92 35.2822 177.76 36.4015C176.8 36.7213 175.84 36.5614 174.88 37.201C169.28 37.5208 163.84 38.9599 158.4 40.0791C157.92 40.0791 157.28 40.0791 156.8 40.5588C150.4 41.8379 144.16 43.5968 138.08 45.9952C137.76 45.9952 137.28 45.9952 137.12 46.315C135.36 46.6348 133.6 47.2744 132 48.0739C131.52 48.0739 131.2 48.0738 130.88 48.5535C130.56 48.5535 130.24 48.5535 130.08 48.8733C129.44 49.0332 128.8 49.1931 128.16 49.5129C127.52 49.8327 127.84 50.1525 128.32 50.3124V50.1525Z" fill="#0C0D0E"/>
<path d="M130.56 76.2153C128.8 74.9361 127.36 74.1367 125.92 73.1773C114.88 65.0227 102.88 58.3071 90.88 51.7514C76.8 44.2364 63.36 35.6021 49.12 28.4068C47.2 27.4474 45.28 26.648 43.36 25.6886C42.72 25.3688 41.28 25.3688 41.76 24.2495C42.08 23.2901 43.2 24.2495 43.68 24.5693C46.08 25.6886 48.64 26.648 51.04 27.9271C73.28 40.7187 95.84 52.7108 117.76 66.142C121.76 68.5404 125.28 71.7383 129.12 74.2966C129.6 74.6164 130.08 74.7763 130.4 76.2153L130.56 76.2153Z" fill="#161718"/>
<path d="M205.92 52.7108C202.72 50.6322 199.52 48.7134 196.16 46.9546C192.8 45.1957 189.6 43.4369 186.4 41.6781C184.48 40.239 182.24 39.2796 180.16 38.4802C179.2 38.1604 178.08 37.8406 178.72 36.4015C179.36 36.4015 179.84 36.4015 180.32 36.7213C188.96 41.6781 197.92 46.1551 206.4 51.4316C207.36 52.0712 209.28 52.5509 208.64 53.6702C208.16 54.4696 206.88 52.8707 205.92 52.7108Z" fill="#161718"/>
<path d="M137.28 11.1382C137.28 11.7777 136.8 11.9376 136.48 12.2574C130.56 14.8157 124.64 17.5339 118.56 19.6126C118.08 19.7725 117.44 20.2521 117.12 19.6126C116.8 18.973 117.6 18.6532 118.08 18.3334C119.68 17.3741 121.44 16.7345 123.04 15.935C127.2 14.3361 131.36 12.7371 135.52 11.1382C136.16 10.8184 136.96 10.4986 137.44 11.2981L137.28 11.1382Z" fill="#0C0D0E"/>
<path d="M129.44 30.9651C130.24 29.3662 131.52 28.7266 132.8 28.087C137.76 25.5287 142.88 23.4501 148.16 21.3714C148.64 21.2115 149.28 20.7318 149.6 21.3714C149.92 22.011 149.12 22.1709 148.8 22.4907C142.56 25.3688 136.48 28.2469 130.24 30.9651C130.24 30.9651 129.92 30.9651 129.44 30.9651Z" fill="#161718"/>
<path d="M114.88 59.7462C114.88 58.7868 115.84 58.3071 116.48 57.8274C118.56 56.3883 120.8 55.429 123.04 54.4696C123.68 54.1498 124.32 53.9899 124.64 54.7894C124.96 55.2691 124.64 55.9087 124.16 56.0686C121.12 57.3477 118.4 59.2665 115.2 59.906C115.2 59.906 115.04 59.906 114.88 59.906V59.7462Z" fill="#161718"/>
<path d="M144.32 30.8052C144.64 29.8458 145.12 29.526 145.76 29.2063C149.12 27.4474 152.8 26.1682 156.32 25.049C156.8 25.049 157.28 24.7292 157.44 25.3688C157.6 25.8485 157.28 26.1683 156.96 26.1683C152.96 27.9271 148.8 29.3661 144.48 30.8052L144.32 30.8052Z" fill="#161718"/>
<path d="M138.24 14.9756C138.24 15.4553 137.92 15.7751 137.6 15.935C135.04 17.2142 132.48 18.4933 129.76 19.1329C129.44 19.1329 128.96 19.4527 128.8 18.973C128.8 18.6532 128.8 18.3334 129.12 18.1735C131.52 16.2548 134.56 15.4553 137.28 14.3361C137.92 14.0163 138.24 14.4959 138.24 15.1355V14.9756Z" fill="#161718"/>
<path d="M134.08 67.581C135.84 65.5024 138.24 64.3831 140.64 63.5836C141.12 63.4237 141.6 63.7435 141.76 64.2232C141.92 64.7029 141.76 65.3425 141.28 65.5024C139.04 66.6217 136.64 67.581 133.92 67.4211L134.08 67.581Z" fill="#161718"/>
<path d="M120.16 61.0253C121.76 58.7868 123.52 57.8274 125.28 56.8681C125.76 56.5483 126.24 56.7081 126.56 57.1878C126.88 57.6675 126.56 58.1472 126.24 58.3071C124.48 59.4264 122.88 60.3857 120.32 61.0253L120.16 61.0253Z" fill="#161718"/>
<path d="M153.92 31.4448C155.68 30.0057 157.92 29.3661 159.84 28.4068C160.16 28.2469 160.64 28.4068 160.8 28.7266C160.96 29.2063 160.8 29.5261 160.32 29.686C158.24 30.4854 156.16 31.2849 153.92 31.4448Z" fill="#161718"/>
<path d="M178.56 36.2416C177.92 37.6807 179.04 38.0005 180 38.3203C182.24 39.2796 184.32 40.239 186.24 41.5182C183.36 41.0385 180.96 39.1197 178.24 38.1604C177.12 37.8406 176.32 37.0411 175.04 36.8812C175.84 36.2416 176.96 36.4015 177.92 36.0817C178.08 36.0817 178.24 36.0817 178.4 36.0817L178.56 36.2416Z" fill="#F4F4F4"/>
<path d="M135.04 18.6532C136.64 17.2141 137.92 16.5746 139.36 15.935C139.84 15.7751 140.48 15.6152 140.64 16.2548C140.8 16.7345 140.32 17.0542 140 17.2141C138.56 17.6938 137.28 18.4933 135.04 18.4933V18.6532Z" fill="#161718"/>
<path d="M126.88 62.6242C127.52 61.3451 128.32 61.0253 128.96 60.5456C129.28 60.2258 129.76 60.066 130.08 60.5456C130.4 61.0253 130.08 61.3451 129.6 61.505C128.8 61.8248 128.16 62.1446 126.88 62.6242Z" fill="#161718"/>
<path d="M192.32 56.5482C192.32 56.3883 192 56.0686 192 55.9087C192.64 55.9087 193.44 55.5889 194.24 55.9087C193.76 56.3884 193.12 56.7081 192.48 56.5482H192.32Z" fill="#161718"/>
<path d="M67.2 72.2179C68.16 71.2586 69.12 70.2992 70.08 69.3398C70.4 69.02 71.04 68.5403 71.52 69.02C72.16 69.6596 71.52 69.9794 71.04 70.4591C70.24 71.2586 69.44 72.0581 68.64 72.8575C68 73.3372 67.36 73.9768 66.56 74.6163C66.08 73.4971 67.04 72.8575 67.2 72.2179Z" fill="#161718"/>
<path d="M95.68 100.679C94.4 98.9204 94.72 97.4813 94.88 96.2021C94.88 95.5626 95.36 95.0829 96.16 95.2428C96.8 95.2428 96.96 95.8824 96.8 96.362C96.48 97.6412 96.16 98.9204 95.68 100.519V100.679Z" fill="#161718"/>
<path d="M70.72 74.6164C71.36 73.8169 71.52 71.7383 72.8 72.6977C74.08 73.4971 72 74.2966 71.84 75.4158C71.36 75.8955 70.88 76.3753 70.24 76.8549C69.76 76.0555 70.4 75.4159 70.4 74.7763L70.72 74.6164Z" fill="#161718"/>
<path d="M90.88 97.0016C90.24 95.5626 90.56 94.4433 91.2 93.6439C91.52 93.1642 91.84 92.8444 92.48 93.1642C92.96 93.4839 93.12 93.9637 92.8 94.4433C92.32 95.2428 91.84 96.0422 91.04 97.0016L90.88 97.0016Z" fill="#161718"/>
<path d="M61.44 98.7605C61.6 96.6818 62.72 94.923 64.16 93.3241C64.48 93.0043 64.8 92.8444 65.12 93.0043C65.6 93.3241 65.44 93.8038 65.12 94.1236C64 95.7225 62.88 97.3215 61.92 98.9204L61.44 98.6006L61.44 98.7605Z" fill="#161718"/>
<path d="M65.28 102.438C64.96 100.2 65.6 98.9204 66.24 97.4813C66.4 97.1615 66.72 96.6819 67.2 96.8418C67.84 97.1616 67.84 97.6412 67.52 98.1209C66.88 99.4001 66.24 100.679 65.28 102.438Z" fill="#161718"/>
<path d="M138.24 45.8353C144.32 43.4369 150.56 41.678 156.96 40.3989C155.2 41.5181 153.28 41.678 151.36 42.1577C147.52 43.277 143.84 44.3963 140 45.5155C139.36 45.6754 138.72 45.6754 138.08 45.6754L138.24 45.8353Z" fill="#F4F4F4"/>
<path d="M128.32 50.1525C127.84 50.1525 127.36 49.8327 128.16 49.353C128.8 49.0332 129.44 48.8733 130.08 48.7134C129.92 49.6728 128.96 49.6728 128.48 49.9926L128.32 50.1525Z" fill="#F4F4F4"/>
<path d="M130.88 48.5535C131.2 48.2337 131.68 48.2338 132 48.0739C131.84 48.7134 131.2 48.5535 130.88 48.5535Z" fill="#F4F4F4"/>
<path d="M181.44 57.5076C181.12 57.8274 180.8 57.8274 180.32 57.8274C180.64 57.8274 181.12 57.6675 181.44 57.5076Z" fill="#161718"/>
<path d="M129.92 48.8733C130.08 48.5535 130.4 48.5535 130.72 48.5535C130.56 49.0332 130.24 48.8733 129.92 48.8733Z" fill="#F4F4F4"/>
<path d="M137.12 46.1551C137.44 45.8353 137.76 45.8353 138.08 45.8353C137.76 46.315 137.44 46.1551 137.12 46.1551Z" fill="#F4F4F4"/>
<path d="M68.64 28.8865C73.76 27.4474 78.56 26.9678 83.2 26.3282C91.36 25.2089 99.52 24.4094 107.68 22.8105C108.32 22.8105 108.8 22.6506 109.28 22.8105C116.16 26.4881 123.04 30.0057 129.28 34.6427C130.24 35.2823 131.52 36.0817 131.36 37.201C131.36 38.1604 129.6 38.1604 128.8 38.3203C119.84 40.7187 111.2 43.9166 102.72 47.7541C100.96 48.5535 99.84 48.2338 98.24 47.1145C90.72 41.6781 82.72 36.7213 74.72 32.2443C72.8 31.125 70.88 30.0058 68.64 28.7266L68.64 28.8865Z" fill="#AFE7F8"/>
</svg>
