<svg width="287" height="944" viewBox="0 0 287 944" fill="none" xmlns="http://www.w3.org/2000/svg">
<path d="M226.863 47.9955C226.329 52.3972 223.396 53.4642 223.396 53.4642C223.262 59.5998 213.129 85.6094 210.996 91.745C201.929 87.3434 192.729 92.6787 186.196 97.2137C185.263 96.5468 105.796 47.8621 104.863 47.3286C103.796 47.3286 101.129 43.8607 100.463 43.3271C99.7959 42.3935 98.1958 33.9904 102.062 33.5902C89.5291 5.98 127.529 5.44646 149.129 1.97852C184.729 2.51205 222.196 12.249 226.863 47.9955Z" fill="#635A55"/>
<path d="M207.93 16.3841C178.196 7.04733 146.33 9.18145 115.93 14.7835C95.9298 18.3848 108.597 34.3908 117.797 42.3937L104.73 47.1955C103.796 47.1955 100.997 43.7276 100.33 43.194C99.3965 42.2603 98.3298 33.7239 101.93 33.4571C89.6631 5.44673 127.13 5.58012 148.997 1.84541C178.197 1.71202 186.863 6.64719 207.797 16.2507L207.93 16.3841Z" fill="white"/>
<path d="M213.396 116.687C209.93 121.089 186.063 123.757 186.063 123.757L181.53 161.504L143.663 181.245C140.463 177.777 132.33 168.707 129.263 165.239L130.863 146.699L120.596 143.097C120.063 142.564 106.73 132.56 106.463 125.757C103.13 108.684 104.73 51.0631 104.73 51.0631L121.53 28.5215C135.663 35.8575 172.463 50.2629 188.063 55.5982C188.063 55.8649 179.93 92.5452 179.93 92.5452L185.796 97.2135C187.263 94.4125 205.53 87.2098 210.463 91.4781C217.13 98.1472 222.463 105.883 213.396 116.821V116.687Z" fill="white"/>
<path d="M144.463 146.432C141.663 154.701 138.196 162.838 134.063 170.574L129.263 165.239L130.863 146.699L120.596 143.097C119.796 143.364 107.53 131.626 106.463 125.757C103.13 108.684 104.73 51.0631 104.73 51.0631L121.53 28.5215C121.53 28.5215 127.93 31.4559 134.196 34.3903C131.93 57.3321 127.263 80.0072 120.33 101.882C123.263 103.349 126.33 104.016 129.53 104.016C129.53 109.885 129.53 115.887 129.663 121.889C131.93 122.156 134.196 122.289 136.33 122.556C135.93 130.426 136.33 138.429 137.93 146.165C140.063 146.165 142.196 146.432 144.33 146.565L144.463 146.432Z" fill="#F4C6CC"/>
<path d="M217.929 495.361C171.396 496.829 96.729 496.428 50.5957 494.161L57.7957 380.786C60.7291 379.185 88.8624 364.246 92.5957 362.379L209.929 386.655L217.929 495.495V495.361Z" fill="#282F39"/>
<path d="M120.729 457.481L105.529 495.895L50.5957 494.161L57.7957 380.786L63.1291 377.852L58.5957 485.758L104.329 489.493L120.729 457.481Z" fill="#5E6F84"/>
<path d="M276.996 277.947C273.53 308.492 265.396 340.904 257.13 360.911C250.463 372.516 242.063 381.319 231.663 384.653C229.663 385.721 218.33 385.987 202.196 385.854C181.53 385.587 152.996 384.653 126.73 383.586C125.93 383.586 124.996 383.586 124.196 383.586C91.7963 382.253 63.2629 380.919 57.7962 380.919L56.9963 380.385L54.5962 378.785C23.5295 380.519 10.8628 365.847 7.39618 344.772C7.39618 344.772 7.39618 344.639 7.39618 344.505C3.92951 322.23 10.5963 292.886 16.9963 267.81C16.9963 267.81 16.9963 267.81 16.9963 267.677C20.1963 255.406 23.2629 244.068 24.9963 235.265C24.9963 234.731 25.2629 234.064 25.2629 233.531L33.1296 209.789H34.0628C35.5295 206.588 41.2628 194.45 41.3962 194.316C41.5295 194.05 48.1963 186.18 48.1963 186.18C51.263 184.713 56.4629 181.778 61.1296 181.112C63.7962 180.845 66.3295 181.112 68.0628 183.246C68.0628 183.246 68.1963 183.379 68.3296 183.512C68.9963 183.379 83.6629 180.711 89.6629 179.644C90.0629 179.644 90.4628 179.511 90.7295 179.378C91.3962 179.378 91.7962 179.244 91.9296 179.111L116.33 162.171V162.972L116.463 163.238L118.063 173.242L120.463 188.581L141.796 182.445L142.863 182.179L149.263 186.847L166.196 199.118L189.53 163.238L190.596 161.638L207.13 180.845C210.996 182.846 242.596 196.05 246.196 200.052C246.196 200.185 246.33 200.319 246.463 200.452C246.596 200.452 246.73 200.452 246.863 200.319C248.196 199.785 249.396 199.518 250.596 199.252C254.596 198.451 258.063 198.851 260.863 200.185C276.863 207.521 276.33 243.001 275.263 260.874C274.33 265.81 275.796 271.812 276.863 278.081L276.996 277.947Z" fill="#282F39"/>
<path d="M82.9959 374.517C77.6626 374.65 66.3293 375.717 54.8626 376.251C50.996 376.384 47.2626 376.517 43.6626 376.517C38.9959 376.517 34.5959 376.384 31.2625 375.85C28.9959 375.584 27.1292 375.05 25.7959 374.383C22.4626 372.116 19.5292 369.448 17.1292 366.78C16.8626 366.514 16.5959 366.247 16.4626 365.98C16.1959 365.58 15.796 365.18 15.5293 364.78C15.2626 364.513 15.1293 364.246 14.8626 363.979C6.99596 353.575 4.19583 340.637 4.0625 326.499C6.19583 309.959 11.6626 275.813 20.3293 244.735C21.9293 241.401 23.9293 238.199 24.8626 235.132C24.8626 234.865 24.8626 234.732 24.9959 234.465C24.9959 234.065 25.1292 233.531 25.2625 233.131L33.1292 209.389H34.0625C35.5292 206.188 41.2625 194.05 41.3958 193.916C41.5292 193.65 48.196 185.78 48.196 185.78C48.4626 185.78 48.7293 185.513 48.9959 185.38C49.3959 185.247 49.6625 184.98 50.0625 184.846C50.7292 184.58 51.2625 184.18 51.9292 183.913C52.4625 183.646 53.1292 183.379 53.7959 183.112C54.1959 182.979 54.7292 182.712 55.1292 182.579C55.6626 182.312 56.0625 182.179 56.5959 182.045C57.1292 181.779 57.7959 181.645 58.3293 181.512C58.5959 181.512 58.8626 181.512 59.1292 181.378C59.1292 181.378 59.2625 181.378 59.3958 181.378C59.5292 181.378 59.7959 181.378 59.9292 181.378C60.0625 181.378 60.3292 181.378 60.4626 181.378C60.5959 181.378 60.8626 181.378 60.9959 181.378C60.9959 181.378 60.9959 181.378 61.1292 181.378C62.4626 181.245 63.6625 181.378 64.7292 181.645C64.9958 181.645 65.2625 181.645 65.3958 181.912C65.5292 181.912 65.6625 182.045 65.9292 182.179C66.1959 182.312 66.4625 182.446 66.7292 182.712C66.7292 182.712 66.9959 182.846 66.9959 182.979C66.9959 182.979 67.1292 183.112 67.2625 183.246C67.2625 183.246 67.5293 183.513 67.6626 183.646C67.6626 183.646 67.7959 183.779 67.9292 183.913L70.196 183.513C65.796 184.446 61.7959 186.58 57.9292 189.782C26.1959 216.325 12.7292 313.427 10.0625 336.769C7.2625 370.382 49.5293 374.65 72.3293 375.183C76.7293 375.183 80.3292 375.183 82.7292 375.183L82.9959 374.517Z" fill="#5E6F84"/>
<path d="M93.263 177.91L67.7964 199.252L83.3963 216.058L67.6631 231.664L117.13 304.357C117.13 304.357 80.063 237.132 80.063 236.599C80.063 236.065 92.3298 212.99 92.3298 212.99L79.3963 200.986L110.596 168.04" fill="#5E6F84"/>
<path d="M131.13 912.582C130.463 918.184 128.33 929.121 126.863 934.59L106.063 934.056L107.13 923.652L92.4632 929.121C70.7299 945.927 32.0633 940.459 2.9966 938.725C-3.4034 933.389 59.5299 908.18 63.6633 904.312L72.9966 888.84C77.6633 888.306 111.797 884.305 117.263 883.638L131.13 912.715V912.582Z" fill="#5E6F84"/>
<path d="M80.8633 893.376C77.13 905.513 64.3299 910.982 53.6633 915.517C38.5966 922.186 23.93 930.056 10.1966 938.992C5.92996 938.726 3.2632 938.592 3.2632 938.592C-3.1368 933.257 59.7965 908.048 63.9299 904.179L73.2632 888.707L80.9966 887.773C81.7966 889.374 81.5299 891.508 80.9966 893.242L80.8633 893.376Z" fill="white"/>
<path d="M280.863 903.379C278.197 901.912 275.53 900.845 272.997 899.778C271.263 899.111 269.663 898.577 267.93 898.044C267.93 898.044 267.797 898.044 267.663 898.044C257.397 895.109 247.663 895.376 238.463 897.91C238.063 897.91 237.796 898.177 237.396 898.177C237.13 898.177 236.996 898.177 236.73 898.31C229.796 900.311 223.13 903.646 216.597 907.514C216.197 907.781 215.93 907.914 215.53 908.181L205.13 867.899L190.197 809.744L175.53 752.523C174.597 747.188 173.53 741.853 172.597 736.517H173.263C170.463 714.376 165.263 683.298 159.263 653.286C156.33 638.748 153.263 624.342 150.063 611.404C149.796 610.604 149.663 609.804 149.53 609.003C149.13 607.536 148.73 606.069 148.463 604.602C146.73 598.066 144.996 591.93 143.396 586.328L140.863 605.535L136.997 635.28L136.597 638.481H136.997C127.263 706.639 137.396 831.352 138.063 901.245C137.396 902.045 136.73 911.649 134.197 911.649C126.063 907.914 108.997 900.444 97.7966 896.576C94.4632 895.643 72.5965 892.842 72.5965 892.842L72.0632 893.509L66.0632 901.245L64.0632 903.779C64.0632 903.512 64.0632 903.245 64.0632 902.979C64.0632 902.845 64.0632 902.579 64.0632 902.445C63.2632 899.111 60.5966 894.176 58.8633 892.041C68.4633 766.262 69.6632 621.008 68.7298 494.961H106.73L122.063 454.68L132.863 496.695L206.197 496.028V496.829L209.263 518.703L220.463 602.601H221.663C225.663 633.279 236.063 700.237 243.53 729.715H245.53C245.53 729.981 245.663 730.382 245.797 730.782C249.397 747.455 253.397 768.129 257.663 790.004C257.663 790.004 257.663 790.137 257.663 790.27C265.397 830.285 273.53 874.035 280.997 903.512L280.863 903.379Z" fill="#282F39"/>
<path d="M273.263 900.044C271.529 899.377 269.796 898.71 268.062 898.177C268.062 898.177 267.929 898.177 267.796 898.177C257.263 894.975 247.529 895.509 238.596 898.043C238.196 898.043 237.796 898.31 237.529 898.31C237.263 898.31 237.129 898.31 236.863 898.443C229.663 900.711 222.996 904.045 216.729 907.647C216.329 907.913 216.063 908.047 215.663 908.314C205.796 875.635 187.529 802.675 176.463 757.325C176.196 755.857 175.929 754.257 175.663 752.789C174.729 747.454 173.663 742.119 172.729 736.784H173.396C170.596 714.642 165.396 683.564 159.396 653.553C156.463 639.014 153.396 624.609 150.196 611.671C149.929 610.87 149.796 610.07 149.663 609.27C149.263 607.803 148.863 606.335 148.596 604.868C146.863 598.332 145.129 592.197 143.529 586.595C144.463 588.195 145.529 590.196 146.596 592.464C169.929 643.816 207.529 849.225 219.796 883.504C232.063 881.504 255.529 885.505 270.463 897.243C271.529 898.043 272.463 898.843 273.396 899.777C273.396 899.777 273.529 899.911 273.663 900.044H273.263Z" fill="#5E6F84"/>
<path d="M126.996 908.714C122.729 906.713 104.996 899.244 97.6624 896.709C94.3291 895.776 72.4624 892.975 72.4624 892.975L63.929 903.912C63.929 900.711 60.4624 894.575 58.5957 892.041C68.1957 766.261 69.3957 621.008 68.4624 494.961H76.729C75.6623 600.2 69.929 785.335 66.5957 882.438C80.5957 884.438 115.129 886.572 126.996 908.714Z" fill="#5E6F84"/>
<path d="M282.596 934.323C282.729 934.723 282.196 938.058 282.196 938.058H221.796L226.062 919.518V904.312C235.262 898.843 237.529 897.91 250.996 894.975C256.996 893.375 271.129 898.977 271.129 898.977C271.129 907.38 277.796 910.981 282.196 918.584C282.996 920.985 282.196 933.789 282.463 934.323H282.596Z" fill="#5E6F84"/>
<path d="M263.129 914.716C246.596 916.85 231.929 920.852 226.463 938.191H221.796L226.062 919.651V904.446L229.529 902.578C234.729 927.121 228.729 910.981 263.129 914.849V914.716Z" fill="white"/>
<path d="M84.1968 319.562C82.1968 316.628 77.9301 313.427 73.7967 313.827C64.5967 308.225 70.4635 305.424 59.5301 305.023C59.5301 305.023 54.1968 302.089 54.1968 301.956C54.1968 301.822 44.4635 303.823 44.1968 303.823C43.9301 303.823 31.3968 310.359 30.9968 312.626C30.5968 314.894 31.3967 319.162 31.3967 319.162C34.73 320.096 35.7967 327.432 40.73 325.831L43.5301 330.233C49.1301 331.833 59.1301 327.832 62.9968 324.497C65.3968 328.499 72.73 323.297 73.93 322.096" fill="white"/>
<path d="M168.729 312.894L176.596 340.771C192.196 340.504 206.33 329.167 218.33 324.365C218.996 320.63 219.53 308.359 219.796 305.025C216.863 300.756 197.53 301.823 194.863 302.357" fill="white"/>
<path d="M184.596 147.633C187.663 149.233 191.129 159.37 190.196 162.705L183.929 182.446L174.196 200.852L149.529 272.079L142.729 208.855C142.729 208.855 154.062 194.85 153.396 195.117C152.729 195.384 144.596 184.18 144.596 184.18L129.929 190.582L133.129 206.988L118.729 250.871L115.663 197.785L109.796 198.852L117.263 163.239C118.063 160.037 124.996 151.634 130.196 152.301L129.129 164.839L144.863 182.179C144.863 182.179 180.463 160.838 180.463 160.704" fill="white"/>
<path d="M139.663 115.754C138.597 114.553 137.53 113.886 135.663 113.486C135.13 114.954 135.263 116.021 135.93 117.221C130.73 120.689 124.73 119.755 118.863 121.356C124.33 125.091 133.53 125.091 136.997 118.555C138.197 119.622 139.53 120.289 141.263 119.889C141.263 118.021 140.73 116.821 139.663 115.62V115.754Z" fill="black"/>
<path d="M119.396 99.7475C118.596 104.149 124.73 104.683 127.797 104.016C126.197 103.082 123.396 101.882 122.73 100.681C125.93 96.2796 128.596 89.7438 129.396 83.875C124.73 88.41 121.663 93.7453 119.396 99.8809V99.7475Z" fill="black"/>
<path d="M156.196 59.5997C152.463 57.0654 142.063 57.4656 142.863 63.4678C147.396 60.1332 154.33 62.6675 159.663 63.4678C158.996 61.8672 157.663 60.5334 156.063 59.5997H156.196Z" fill="black"/>
<path d="M117.129 58.6661C118.196 58.9329 119.263 59.333 120.596 60.1333C120.596 52.6639 108.063 52.2637 107.529 59.7332C110.863 58.266 113.663 57.8658 117.129 58.7995V58.6661Z" fill="black"/>
<path d="M192.996 115.087C198.729 116.154 202.063 108.418 198.596 104.016C201.796 104.016 209.396 105.083 207.263 99.7481C206.863 104.15 197.796 99.0812 194.463 99.7481C191.529 105.884 201.929 109.885 192.996 115.087Z" fill="black"/>
<path d="M152.73 76.5394C148.996 76.2727 148.996 92.2786 152.73 92.0118C156.463 92.2786 156.463 76.2727 152.73 76.5394Z" fill="black"/>
<path d="M114.996 70.4037C111.263 70.1369 111.263 86.1428 114.996 85.8761C118.73 86.1428 118.73 70.1369 114.996 70.4037Z" fill="black"/>
<path d="M128.463 924.72C127.263 927.121 126.196 929.522 125.263 932.056C119.396 931.789 113.53 931.789 107.796 932.056C107.796 929.388 107.796 926.721 107.663 924.053C111.796 923.786 125.396 922.586 129.796 922.319C129.396 923.119 128.996 923.92 128.596 924.72H128.463ZM131.13 912.982C130.596 915.783 130.063 918.584 129.663 921.519C69.5296 919.918 100.596 949.129 4.46289 936.858L4.19629 936.191C14.9963 930.455 29.2629 922.852 39.9295 917.384C51.7962 910.981 66.3295 907.247 72.0628 893.642C93.1295 895.909 112.996 901.778 130.996 912.982H131.13ZM214.463 469.485C204.73 466.817 194.729 464.95 184.729 463.349C184.063 448.944 182.996 434.539 180.596 420.133C190.863 420.667 201.263 421.067 211.663 420.667C212.196 432.138 213.663 457.881 214.463 469.485ZM211.663 420.533C200.996 418.399 190.063 417.199 179.263 416.132C179.263 414.798 178.996 413.464 178.863 412.13C189.663 413.197 200.463 414.131 211.263 414.131L211.53 420.533H211.663ZM256.063 200.719C293.129 213.39 267.263 358.51 240.196 379.852C212.596 391.589 165.796 378.518 138.33 368.114C152.996 365.58 167.529 362.912 182.063 359.978C182.063 359.978 177.263 341.304 177.13 340.771C190.596 341.838 203.396 335.302 213.93 327.566C217.13 327.832 221.663 325.698 220.596 321.563C230.33 325.031 238.596 330.633 246.063 337.703C242.729 327.032 231.263 319.563 220.196 319.963C220.196 319.829 220.063 319.696 219.93 319.429C228.73 317.695 237.13 316.362 245.93 314.761C237.396 310.893 226.596 312.76 219.396 318.762C219.263 318.629 218.996 318.362 218.863 318.229C224.196 287.951 222.063 211.256 256.196 200.585L256.063 200.719ZM217.93 313.427C217.396 312.627 216.863 311.827 216.196 311.16C217.13 311.693 217.796 312.227 219.13 312.894C219.13 313.827 218.996 314.894 218.863 315.828C218.73 315.028 218.463 314.094 217.93 313.427ZM246.863 200.185C246.863 200.185 246.996 200.185 247.13 200.185C219.396 229.263 223.663 273.279 219.13 310.493C218.463 306.491 212.863 303.957 209.796 306.891C211.13 307.958 211.93 308.492 213.13 309.159C209.396 307.692 205.13 308.359 201.93 310.759C207.663 311.693 213.796 312.093 217.263 317.295C210.996 314.761 202.596 315.294 197.663 320.096C201.263 317.162 218.196 316.762 216.596 323.164C214.063 323.164 209.93 324.365 208.33 326.232C199.13 333.435 188.463 337.97 176.996 340.504L169.663 312.093C184.063 309.826 206.063 296.621 219.13 304.891C206.063 291.152 183.263 304.49 169.53 311.827L169.263 311.026H168.33L147.663 313.027C171.663 287.284 195.13 260.341 217.93 233.531C217.663 233.264 206.33 220.459 205.663 219.792C212.063 213.524 218.463 207.388 224.729 201.119C219.263 194.717 213.796 188.314 208.33 181.912C214.196 185.78 220.33 189.115 226.596 192.049C232.863 194.983 239.263 197.651 245.93 199.785C246.196 199.785 246.33 199.919 246.596 200.052L246.863 200.185ZM144.063 185.113L152.063 196.184C147.796 199.118 143.796 202.586 140.063 206.321C138.863 205.921 137.663 205.521 136.596 205.254C134.996 200.585 133.263 195.917 130.863 191.515C135.263 189.381 139.663 187.381 144.063 185.246V185.113ZM152.463 196.717L165.263 214.324L166.33 215.791C168.863 211.923 171.396 207.921 173.663 203.787C164.996 224.861 156.73 247.936 149.53 269.678C149.13 249.403 146.996 228.996 142.596 209.122C146.196 205.254 149.53 201.119 152.463 196.717ZM132.996 206.454C126.996 218.992 122.73 232.33 119.796 245.802C118.596 230.463 117.529 213.657 116.063 198.318C120.729 196.184 125.53 193.916 130.196 191.782C130.73 196.717 131.796 201.652 132.996 206.454ZM133.53 208.322C134.063 208.588 134.73 208.722 135.263 208.989C132.996 211.79 132.063 215.391 133.13 218.992C135.396 217.525 136.729 215.391 137.396 212.99C137.796 213.79 138.463 214.457 139.663 214.724C140.596 213.257 141.13 212.323 140.863 210.856H141.13C141.13 210.856 141.929 210.056 142.063 210.056C142.063 230.997 144.463 252.071 148.729 272.612C144.196 286.484 139.796 300.356 136.063 314.494L131.53 314.894C127.13 293.553 120.463 272.745 120.063 250.604C126.329 237.132 130.863 222.994 133.53 208.455V208.322ZM176.33 199.518C182.463 187.647 190.33 175.376 190.596 161.638C192.996 164.972 195.53 168.173 197.93 171.508C205.13 181.112 213.263 191.649 220.729 200.986C214.063 207.121 207.396 213.524 200.596 219.659C200.863 219.926 212.196 232.997 212.863 233.664C190.73 259.541 168.463 286.217 147.663 313.16H147.13L136.33 314.227C152.063 277.014 165.396 238.199 176.33 199.385V199.518ZM188.729 154.302C189.396 157.236 189.529 160.304 189.396 163.238C188.463 180.711 174.463 196.584 166.33 211.523L149.13 186.714L147.13 183.779H147.396C147.396 183.646 147.263 183.379 147.263 183.379L181.796 162.438L182.596 162.038V161.104L184.596 147.899C186.596 149.633 187.929 151.901 188.729 154.302ZM216.863 73.205C215.396 79.6073 213.396 85.8763 210.33 91.345C202.063 87.4769 192.596 91.4784 185.796 96.6803L180.33 92.0119C183.263 80.1409 187.529 68.4032 188.729 56.132C197.929 50.7967 210.063 51.8638 219.93 55.0649C219.263 61.2005 218.33 67.3361 216.996 73.205H216.863ZM100.596 37.4584C102.196 37.0583 106.33 39.3258 107.93 39.8593C90.1962 12.5159 112.596 9.98161 135.263 5.17983C161.93 1.31174 199.929 5.04645 218.063 27.0546C222.329 34.1239 231.796 46.5285 223.263 53.4643V53.1976C220.196 51.4636 216.73 50.9301 213.263 50.3965C216.33 42.1268 212.063 31.3228 203.663 28.1216C207.93 35.0575 210.73 42.2602 212.33 50.2632C210.463 49.9964 208.596 49.7296 206.729 49.7296C207.529 46.6618 205.796 43.3273 202.596 42.6604C201.93 45.328 202.463 47.8623 204.33 49.863C202.73 49.863 201.263 50.1298 199.663 50.2632C199.263 42.2602 193.93 34.3906 186.196 31.723C189.93 38.1253 194.33 44.5277 198.596 50.5299C196.863 50.7967 195.129 51.1968 193.396 51.7304C192.863 45.5948 186.73 41.1931 180.863 41.0598C183.93 45.5948 188.33 48.5292 192.196 52.1305C190.196 52.9308 187.93 53.4643 186.596 55.4651C162.596 41.4599 133.796 37.992 112.196 19.8519C114.73 23.0531 117.663 26.1209 120.863 28.7886C114.863 33.3236 110.063 39.3258 106.863 46.1283L106.596 45.4614C106.063 45.328 105.263 45.1946 104.729 44.9279C102.063 43.8608 100.196 40.793 100.596 37.992V37.4584ZM130.996 146.832C142.596 148.433 154.73 145.098 163.93 138.029C92.1962 172.175 105.796 92.0119 107.663 47.3287C113.796 42.527 118.73 36.1246 121.663 28.7886C140.33 43.1939 164.73 47.5955 186.596 55.1983C185.396 67.7363 181.53 80.1409 178.863 92.5455C179.263 92.8122 185.663 97.8808 186.063 98.2809C192.729 92.6788 201.93 88.0105 210.596 91.6118L209.796 93.079C218.73 96.9471 218.463 109.218 211.396 114.954C204.196 121.49 193.929 121.489 184.729 121.489L184.463 123.09L179.263 159.77L145.263 180.978C140.463 175.643 135.663 170.441 130.729 165.239C130.863 161.104 131.263 148.966 131.263 147.099L130.996 146.832ZM121.13 158.036C123.13 155.369 126.463 153.635 129.93 152.834C129.263 157.103 128.73 161.371 128.196 165.639C132.596 171.241 137.13 176.71 141.796 182.179C132.063 186.447 122.063 190.982 112.463 195.517C114.063 189.515 116.329 180.578 118.063 172.975C120.063 164.572 121.53 157.636 121.13 157.903V158.036ZM69.5296 185.38C69.7963 185.38 78.4629 182.712 78.5962 182.712C82.1962 181.645 85.7962 180.445 89.3962 179.378C89.9295 179.244 90.3296 179.111 90.863 178.844C90.863 178.844 90.5962 178.977 90.4629 179.111C81.9296 185.513 73.3962 192.049 65.2629 198.985C70.9962 204.72 77.1295 210.722 83.2629 216.058C79.1295 210.456 74.3296 204.72 69.7962 199.385C85.7962 188.047 101.53 175.776 116.196 162.838C116.196 162.838 116.196 162.838 116.33 162.705C116.33 162.838 116.33 162.971 116.33 163.105C112.063 175.91 109.53 189.115 107.263 202.319C109.263 201.386 113.53 199.385 115.53 198.585C113.396 238.066 115.263 278.214 131.396 314.894C130.596 314.894 125.13 315.561 124.463 315.561C107.796 286.484 88.7296 258.207 69.1296 230.997C73.9296 226.061 78.5962 221.126 83.2629 216.058C77.3962 220.86 71.6629 225.661 65.9295 230.73C83.9295 259.807 103.263 288.751 124.33 315.695C110.996 317.028 89.9296 319.163 76.863 320.23C72.863 321.43 69.6629 325.965 65.2629 324.364C73.2629 317.695 73.9295 311.56 84.0628 319.429C81.3962 316.495 78.463 310.893 73.5296 313.16C72.463 311.293 70.5963 309.826 68.3296 309.426C67.6629 305.691 63.3962 303.69 59.9295 304.09C58.0629 302.623 55.9296 301.423 53.5296 300.622C49.263 263.008 54.1963 224.994 61.5296 188.047C64.1963 187.247 66.7295 186.58 69.3962 185.78L69.5296 185.38ZM61.3962 325.432C56.5962 326.765 51.7962 330.367 46.5962 328.766C44.0629 328.366 42.9962 326.632 45.1296 324.765C52.1962 320.23 64.5963 306.625 72.9963 313.16C68.7296 316.362 61.7962 319.163 61.2629 324.898C61.2629 325.031 61.2628 325.165 61.3962 325.432ZM30.9963 317.962C30.1963 308.092 50.3295 299.955 58.5962 303.957C49.3962 307.158 37.2628 310.893 32.7295 319.963C32.1962 319.163 31.6629 318.496 30.9963 317.962ZM32.7295 320.363C32.7295 320.363 32.5962 320.363 32.4629 320.363H32.7295ZM56.4629 409.329C66.4629 410.796 76.7296 411.463 86.863 411.864C86.5963 413.197 86.1962 414.531 85.9295 415.732C76.0629 415.331 66.063 415.065 56.1963 415.732L56.4629 409.329ZM56.1963 415.865C65.3963 417.599 74.7295 418.666 83.9295 419.466C79.3962 433.338 76.4628 447.61 74.0628 461.882C67.2628 462.149 60.4629 462.682 53.6629 463.616C54.3296 452.012 55.663 427.336 56.1963 415.865ZM105.53 494.694C87.7963 493.627 69.9296 492.56 52.1963 491.493L53.6629 463.883C61.3963 464.816 69.1296 465.217 76.9963 465.35C80.4629 450.278 83.2629 434.939 84.4629 419.466C85.9296 419.466 87.5296 419.733 88.9963 419.733C90.0629 415.865 90.9962 411.864 91.7962 407.862C80.0629 407.729 68.1962 407.862 56.4629 409.062C56.8629 399.592 57.3962 390.122 57.7962 380.652C57.7962 380.385 57.7962 380.118 57.7962 379.985C80.7296 377.851 103.263 373.983 125.93 370.115C125.263 374.516 124.596 378.918 124.196 383.32C121.796 403.46 120.996 424.001 121.53 444.276C121.13 445.476 106.33 491.893 105.53 494.694ZM133.396 494.694C132.729 491.893 122.996 445.876 122.729 444.542C125.396 424.401 126.863 403.861 126.729 383.586C126.729 379.051 126.596 374.65 126.463 370.248C130.33 369.581 134.196 368.914 138.063 368.247C158.196 377.718 180.196 383.053 202.196 385.854C204.73 386.121 207.263 386.521 209.93 386.654C210.33 395.324 210.73 404.127 211.263 412.931V414.131C199.263 411.197 186.863 409.329 174.463 407.862C174.73 411.864 175.263 415.998 175.663 420C177.13 420 178.73 420.267 180.196 420.267C179.396 435.739 179.93 451.345 180.996 466.817C192.063 468.418 203.263 469.618 214.463 470.018L215.93 493.76C192.063 493.894 157.663 494.561 133.396 494.961V494.694ZM275.263 917.384C266.196 906.313 244.996 912.849 233.13 916.317C229.396 922.452 226.73 929.121 223.263 935.39C225.663 925.253 230.063 915.116 226.463 904.712C239.796 896.309 255.396 893.508 270.196 899.644C269.663 901.378 269.796 902.978 270.196 904.579C262.063 897.91 249.663 896.576 243.93 906.846C256.463 894.175 270.329 909.648 280.596 917.65C281.13 921.519 281.796 925.387 282.596 929.255C280.596 924.987 278.329 920.985 275.263 917.25V917.384ZM139.13 621.274C139.663 617.94 140.063 614.605 140.33 611.271C139.93 614.605 139.53 617.94 139.13 621.274ZM286.729 939.925L285.93 937.525C282.73 926.987 286.463 913.916 274.463 907.647C274.863 904.979 274.063 902.445 272.463 900.311C275.796 901.511 279.13 902.845 282.33 904.179C273.796 866.298 265.53 828.151 257.663 790.003C257.663 790.003 257.663 789.87 257.663 789.737C253.663 769.996 249.663 750.389 245.796 730.515C232.063 659.955 219.796 589.129 209.263 518.57C208.196 511.234 207.129 504.031 206.063 496.695H206.33C210.596 496.695 214.996 496.428 219.263 496.295C216.73 463.883 213.13 418.399 210.196 386.521C222.863 387.188 238.196 388.121 247.663 377.851C250.73 374.65 254.063 368.648 257.396 360.778C265.663 340.771 273.796 308.359 277.263 277.814C281.396 241 278.73 206.721 261.263 199.918C258.329 198.718 254.863 198.451 250.996 198.985C250.196 198.985 249.263 199.252 248.33 199.518C235.663 191.115 221.93 184.446 207.263 180.044C202.463 174.576 195.663 166.706 190.863 161.371C190.73 156.302 188.996 150.834 184.863 147.499L188.196 124.957C206.463 128.159 232.73 108.818 214.863 91.345C220.596 79.3406 222.463 66.2691 223.663 53.1976C232.996 46.6618 223.663 33.1902 219.663 25.8541C205.796 -3.7568 93.2629 -13.4937 98.3296 27.4547C98.3296 27.3213 101.13 33.1902 101.13 33.1902C93.1296 34.6574 98.463 46.3951 104.196 47.8623C105.796 77.6066 89.1295 140.963 131.396 146.699C131.129 148.566 130.863 150.434 130.596 152.301C125.53 152.434 120.463 155.369 118.33 160.037C91.6629 176.977 101.263 176.71 68.7295 182.846C68.7295 182.846 68.7295 182.846 68.5962 182.846C66.1962 181.645 63.9296 180.845 61.6629 180.711C44.0629 179.378 30.463 210.189 20.863 244.735C12.1963 275.813 6.72952 309.959 4.59619 326.499C4.32952 328.9 4.06286 331.034 3.92952 332.634C0.729525 362.245 28.9963 385.587 57.5296 380.118C57.7963 380.118 58.0629 380.118 58.3296 379.985C58.3296 380.252 58.3296 380.385 58.3296 380.652C55.5296 412.931 51.9296 461.749 49.5296 494.294C55.9296 494.828 62.463 495.228 68.863 495.761C65.6629 627.143 69.5296 760.659 57.6629 891.641H58.7295C58.5962 896.042 60.5963 900.177 64.3296 902.311C64.3296 902.311 64.3296 902.311 64.4629 902.311C65.1296 898.31 63.3962 894.442 60.5962 891.774C64.5962 892.174 68.5962 892.708 72.4629 893.375C70.8629 896.443 68.7296 898.977 66.4629 901.111C65.7962 901.778 65.1296 902.312 64.3296 902.845C56.9963 908.314 47.6629 910.715 39.2629 914.849C26.1962 920.985 13.3962 927.387 0.462891 933.923C1.12956 937.124 0.996256 936.858 1.66292 940.059C54.3296 945.261 60.863 947.928 107.53 923.919C106.33 927.521 105.396 931.122 104.729 934.857C112.596 935.524 120.33 935.657 128.196 934.99C129.13 930.722 130.063 926.32 130.33 922.052H130.729C130.996 918.984 131.263 915.917 131.53 912.849C136.463 914.983 138.73 910.715 138.33 906.18C139.796 811.078 129.263 715.709 139.396 621.141C138.729 625.676 137.93 630.344 137.13 635.279C134.33 651.952 130.996 671.293 130.463 699.036C131.53 768.129 134.996 840.822 134.463 909.648C111.396 896.576 86.3295 891.107 59.9295 889.507C68.9962 758.925 72.9962 626.343 69.3962 495.494C82.5962 496.428 95.6629 497.362 108.863 498.296L109.263 496.828L122.063 457.214L130.463 496.695L130.729 498.296C151.263 497.762 185.663 497.095 205.93 496.428C219.13 633.012 251.796 767.061 280.196 900.978C276.996 899.377 273.796 897.91 270.596 896.976C251.396 890.574 233.93 895.376 215.93 907.513C212.596 894.575 209.263 881.637 205.93 868.832C205.93 868.566 205.796 868.166 205.663 867.899C199.796 848.692 194.863 829.351 190.729 809.744C175.129 737.451 167.796 663.023 146.729 592.33C139.796 569.255 131.53 546.58 120.863 524.438H120.463C138.196 562.319 142.196 584.594 141.13 605.535C141.13 607.402 140.863 609.136 140.729 610.87C141.663 603.401 142.73 596.065 143.93 588.596C155.663 637.547 163.93 687.032 172.996 736.384C173.93 741.719 174.996 747.054 175.93 752.389C176.196 753.857 176.463 755.457 176.729 756.924C186.463 809.21 197.396 861.23 214.063 912.182C217.929 909.648 222.063 907.113 226.063 904.846C225.263 914.983 220.596 925.12 223.663 935.257C223.263 936.191 222.863 936.991 222.33 937.925C226.33 930.989 229.663 922.852 234.729 916.85C260.996 913.249 270.996 908.714 281.93 936.324C264.196 936.858 245.53 937.925 227.663 937.925C247.263 937.925 267.53 939.258 286.996 939.792L286.729 939.925ZM16.863 267.41C19.1296 256.473 21.6628 245.535 24.7295 235.265C24.7295 235.265 24.7295 235.131 24.7295 234.998C34.5962 201.519 48.8629 175.643 67.7962 183.112C64.8629 183.779 61.9296 184.446 58.9963 185.113C58.7296 186.447 58.3295 187.781 58.0628 188.981C49.2628 225.128 44.9962 263.409 53.2629 300.089C43.7962 297.555 28.0629 305.558 28.9963 316.628C25.6629 314.894 21.5296 314.494 18.1963 316.362C20.863 318.095 23.5296 318.896 26.4629 319.696C21.5296 319.963 16.7296 321.43 12.9963 324.898C19.7963 325.298 26.3295 323.964 32.5962 321.163C32.5962 322.364 33.1295 323.431 33.9295 324.098C28.8629 323.698 23.6629 327.032 22.3296 331.967C27.2629 330.767 31.2628 328.366 34.7295 324.765C36.1962 325.832 38.3295 325.965 39.9295 325.565C26.8629 321.83 42.0629 315.294 47.1296 312.627C53.1296 310.093 62.1962 301.823 67.7962 308.892C58.0629 309.559 44.3295 316.628 39.9295 325.565C38.8629 332.367 48.3296 333.034 52.863 331.167C55.663 329.566 58.4629 327.566 61.1296 325.698C68.8629 333.835 75.3962 319.963 83.1296 319.563C109.53 317.829 140.996 315.561 167.396 313.561L177.93 357.577C142.73 363.579 107.663 370.248 72.1963 374.516C66.463 375.183 60.5962 375.85 54.7295 376.384C54.7295 376.384 54.5962 376.384 54.4629 376.384C50.5962 376.917 46.8629 377.051 43.2629 376.651C25.5295 375.05 11.9296 363.446 6.99626 344.639C6.99626 332.634 9.92952 300.489 16.5962 267.81C16.5962 267.81 16.5962 267.81 16.5962 267.677L16.863 267.41Z" fill="black"/>
</svg>
