<svg width="146" height="139" viewBox="0 0 146 139" fill="none" xmlns="http://www.w3.org/2000/svg">
<path d="M145.299 67.4289C145.139 73.5049 143.539 79.2612 141.939 85.1773C140.019 92.3725 137.459 99.248 134.099 105.804C126.899 119.715 116.339 130.268 100.979 135.224C92.6588 137.943 83.8588 138.742 75.0588 138.422C71.3788 138.422 67.6988 138.262 64.1788 137.623C63.0588 137.463 62.2588 136.983 61.4588 136.503C50.8988 129.308 39.8588 122.593 28.8188 115.877C24.9788 113.479 20.8188 112.04 16.9788 109.641C16.0188 109.002 15.0588 108.362 14.4188 107.403C7.53882 98.2886 3.53882 88.0554 1.61882 76.8628C0.178816 68.5482 0.0188158 60.3936 1.61882 52.2389C3.85882 41.526 8.65882 32.0922 16.0188 23.7777C24.9788 13.7043 36.3388 7.62833 49.2988 3.95075C57.2988 1.71222 65.4588 0.752841 73.7788 0.592946C74.0988 0.592946 74.5788 0.75286 74.5788 0.113281H79.2188C79.2188 0.75286 79.6988 0.592946 80.0188 0.592946C85.4588 0.912736 90.8988 1.5523 96.3388 2.83146C103.379 4.59031 110.419 6.66896 116.659 10.3465C124.659 15.1434 130.419 22.1787 135.219 29.8537C138.739 35.7698 141.299 42.1656 142.899 48.8812C144.339 54.7973 145.299 60.8733 145.139 66.9493C145.139 67.1092 145.139 67.269 145.139 67.4289H145.299ZM18.4188 107.563C23.6988 108.682 28.6588 110.281 33.6188 112.359C44.6588 116.836 54.7388 122.753 60.9788 133.465C61.4588 134.265 62.0988 134.585 63.0588 134.585C71.5388 135.704 79.8588 135.864 88.3388 134.425C96.4988 132.986 104.179 130.268 110.899 125.631C119.699 119.555 126.579 111.72 131.059 101.966C135.379 92.5324 138.579 82.6189 140.179 72.2258C141.939 65.5102 140.979 58.7947 139.539 52.0791C137.139 41.3661 133.299 31.2927 125.299 23.4579C121.779 19.9402 118.259 16.1027 113.779 13.8642C101.139 7.4684 87.6988 4.7502 73.7788 5.22988C64.3388 5.54967 54.8988 6.98873 45.9388 10.0267C31.3788 14.9835 20.0188 23.7777 12.3388 37.3687C8.97884 43.2848 7.05884 49.6806 5.93884 56.3962C4.81884 63.4316 4.4988 70.6269 5.2988 77.6622C6.5788 88.0554 10.4188 97.3293 15.6988 106.283C16.4988 107.563 17.1388 108.202 18.7388 108.042L18.4188 107.563Z" fill="#070707"/>
<path d="M140.179 72.0659C138.579 82.4591 135.539 92.3725 131.059 101.806C126.579 111.56 119.699 119.395 110.899 125.471C104.019 130.108 96.4989 132.986 88.3389 134.265C79.8589 135.704 71.5388 135.704 63.0588 134.425C62.0988 134.425 61.4588 134.105 60.9788 133.306C54.5788 122.593 44.6589 116.677 33.6189 112.199C28.6589 110.281 23.6989 108.522 18.4189 107.403C14.2589 101.806 11.6988 95.5704 9.77882 88.8549C6.41882 77.0226 5.4588 64.8706 8.6588 52.8785C12.1788 39.6073 18.8989 28.2547 30.7389 20.7397C43.3789 12.585 57.6189 9.54706 72.3389 8.108C78.2589 7.46842 84.1788 8.10799 90.0988 8.74757C105.299 10.5064 117.299 17.7016 126.739 29.0542C135.059 39.1275 138.739 51.2795 139.539 64.231C139.539 66.7893 139.539 69.3477 140.179 71.906V72.0659ZM48.9788 95.7303C48.9788 101.167 48.9788 106.763 48.9788 112.199C48.9788 115.078 50.5788 116.357 53.2988 116.517C56.9788 116.677 60.6589 116.357 64.3389 116.197C73.4589 115.717 82.5789 114.918 91.5389 113.159C97.2989 112.04 97.7788 111.24 97.2988 105.324C96.8188 98.7683 95.6989 92.3725 95.5389 85.8168C95.5389 81.3398 95.0588 76.8627 93.7788 72.5456C92.9788 69.6675 92.0189 69.0279 89.1389 69.1878C85.9389 69.5076 82.5788 69.6675 79.3788 70.1472C71.2188 71.2664 63.0588 71.5862 55.0588 73.505C49.2988 74.944 49.1388 75.1039 48.9788 80.8601C48.8188 85.8169 48.6588 90.7736 48.6588 95.7303H48.9788ZM37.9389 57.0358C38.5789 57.8352 38.8988 58.3149 39.3788 58.9545C42.5788 63.1118 46.4189 63.1118 49.1389 58.6347C51.0589 55.4368 52.1788 52.079 52.1788 48.2416C52.1788 46.9624 52.4988 45.0437 50.5788 44.8838C48.6588 44.8838 48.8189 46.6426 48.8189 48.0817C48.8189 51.2796 47.6989 54.3176 45.9389 57.0358C44.8189 58.6347 43.6989 58.6347 42.4189 57.1957C41.2989 55.9165 40.6588 54.4774 40.1788 53.0384C39.5388 51.2796 39.3788 49.3608 39.0588 47.602C38.8988 46.6426 38.2588 45.8431 37.2988 46.003C36.1788 46.003 35.8588 46.9624 35.6988 47.9218C35.6988 48.4015 35.6988 48.8812 35.6988 49.5207C35.5388 52.239 35.3788 55.1171 33.7788 57.6754C33.1388 58.6347 32.6589 60.0738 31.2189 59.9139C29.9389 59.754 29.7788 58.3149 29.2988 57.1957C28.1788 54.1577 27.5388 51.1197 27.0588 47.9218C27.0588 47.2822 26.8988 46.4827 26.0988 46.4827C25.2988 46.4827 25.1389 47.2822 25.1389 47.7619C24.8189 52.3988 25.1389 57.0358 27.5389 61.0331C29.4589 64.3909 32.3388 64.5508 35.0588 61.8326C36.3388 60.5534 37.2988 58.7946 38.0988 56.8759L37.9389 57.0358ZM94.0988 29.0542C95.2188 29.2141 95.5388 31.1328 96.6588 29.6938C97.6188 28.5745 97.1389 27.4552 96.3389 26.6558C95.0589 25.3766 93.1389 25.3766 91.5389 26.6558C90.4189 27.6151 89.6189 28.8943 89.1389 30.3334C88.1789 33.0516 87.8589 35.7698 88.0189 38.6479C88.0189 41.3661 88.0188 43.7645 84.6588 44.2442C84.6588 44.2442 84.4989 44.2442 84.3389 44.4041C83.8589 44.7239 83.2189 45.0437 83.5389 45.6833C83.6989 46.4827 84.4989 46.4827 85.1389 46.4827C86.0989 46.4827 87.2189 46.163 88.3389 46.4827C88.3389 47.1223 88.4988 47.7619 88.6588 48.2416C88.9788 50.9598 89.2988 53.8379 90.0988 56.5561C90.4188 57.5155 90.8988 58.3149 92.1788 58.155C93.4588 57.9952 93.7788 57.0358 93.7788 55.9165C93.7788 55.4368 93.7789 55.117 93.6189 54.6373C93.2989 51.7592 92.4988 49.041 92.6588 46.003C94.5788 46.003 96.3388 46.0031 98.0988 45.6833C99.5388 45.3635 100.659 44.7239 100.499 43.2849C100.499 41.6859 99.0589 41.3661 97.6189 41.3661C97.1389 41.3661 96.6589 41.3661 96.3389 41.3661C95.0589 41.526 93.7788 41.6859 92.1788 41.8458C92.4988 37.2088 91.3788 32.5719 94.5788 28.7344L94.0988 29.0542ZM104.659 43.6046C104.659 47.1223 104.339 49.5207 104.819 51.9192C105.139 53.0384 105.779 54.1577 107.219 53.9978C108.499 53.9978 109.139 52.8785 109.299 51.5993C109.299 51.2796 109.299 50.7999 109.299 50.4801C109.299 46.163 108.499 41.8458 107.379 37.5286C107.219 36.7292 107.059 35.9297 105.939 36.0896C105.139 36.0896 104.979 37.049 104.979 37.6885C104.659 40.087 104.659 42.3255 104.659 43.6046ZM57.9389 52.8785C57.6189 54.1577 57.9389 55.2769 57.9389 56.3962C57.9389 57.6754 58.4188 58.9545 59.8588 58.9545C61.4588 58.9545 61.9389 57.6754 61.9389 56.3962C62.0989 52.8785 61.2988 49.3608 60.6588 45.8431C60.6588 45.0437 60.4989 44.2442 59.5389 44.2442C58.5789 44.2442 58.4188 45.2036 58.2588 45.8431C57.6188 48.2416 57.4588 50.64 57.7788 53.0384L57.9389 52.8785ZM72.6588 50.4801C73.9388 50.3202 75.2188 50.0004 76.1788 49.2009C76.8188 48.7212 77.1389 48.0817 76.8189 47.2822C76.4989 46.4827 75.8589 46.1629 75.2189 46.1629C73.4589 46.1629 72.0189 46.8025 70.7389 47.9218C69.9389 48.7213 70.0988 49.3608 71.0588 49.8405C71.6988 50.1603 72.3389 50.1603 72.8189 50.3202L72.6588 50.4801ZM60.4988 37.6885C60.3388 36.4094 59.5389 35.6099 58.4189 35.45C57.6189 35.45 56.9788 35.9297 56.9788 36.8891C56.9788 38.1682 57.7788 39.1276 59.0588 39.1276C60.0188 39.1276 60.4988 38.6479 60.4988 37.6885ZM105.459 30.3334C105.459 29.374 105.299 28.5745 104.179 28.4146C103.219 28.4146 102.899 29.2141 102.899 30.0136C102.899 30.813 102.899 31.9323 104.179 32.0922C105.299 32.0922 105.299 31.1328 105.459 30.3334Z" fill="#EA5E6B"/>
<path d="M140.179 72.0659C139.539 69.5076 139.699 66.9492 139.539 64.3909C138.739 51.4394 135.219 39.2874 126.739 29.2141C117.299 17.8615 105.139 10.5064 90.0988 8.90746C84.1788 8.26788 78.2589 7.62826 72.3389 8.26784C57.6189 9.70689 43.3789 12.7449 30.7389 20.8996C19.0589 28.5745 12.1788 39.927 8.65881 53.0384C5.45881 65.0305 6.41883 77.0226 9.77883 89.0147C11.6988 95.7303 14.2588 101.966 18.4188 107.563C16.9788 107.722 16.1788 107.083 15.3788 105.804C10.0988 96.8495 6.09883 87.5756 4.97883 77.1825C4.17883 70.1471 4.49887 62.9519 5.61887 55.9165C6.73887 49.2009 8.65887 42.8051 12.0189 36.889C19.6989 23.4579 31.0589 14.6637 45.6189 9.54703C54.7389 6.50903 64.0188 5.06997 73.4588 4.75018C87.5388 4.43039 100.979 6.9887 113.459 13.3845C117.939 15.7829 121.459 19.4605 124.979 22.9782C132.979 30.9729 136.659 41.0463 139.219 51.5993C140.819 58.3149 141.619 65.0305 139.859 71.7461L140.179 72.0659Z" fill="#FDFDFD"/>
<path d="M48.9788 95.7303C48.9788 90.7736 48.9788 85.8169 49.2988 80.8601C49.4588 74.944 49.6188 74.944 55.3788 73.505C63.3788 71.4263 71.5388 71.1065 79.6988 70.1472C82.8988 69.6675 86.0988 69.5076 89.4588 69.1878C92.3388 69.0279 93.2988 69.6675 94.0988 72.5456C95.3788 76.8627 95.6988 81.3398 95.8588 85.8168C96.0188 92.3725 97.1388 98.9282 97.6188 105.324C98.0988 111.24 97.6188 112.199 91.8588 113.159C82.8988 114.918 73.7788 115.557 64.6588 116.197C60.9788 116.357 57.2988 116.836 53.6188 116.517C50.7388 116.517 49.2988 115.078 49.2988 112.199C49.2988 106.763 49.2988 101.167 49.2988 95.7303L48.9788 95.7303ZM51.8588 113.159C53.2988 113.159 54.4188 113.319 55.6988 113.319C66.8988 112.839 78.0988 112.199 89.1388 110.281C95.6988 109.161 94.5788 110.281 94.2588 104.045C93.7788 97.3293 92.8188 90.4538 92.6588 83.7382C92.6588 80.5403 92.1788 77.3424 91.5388 74.3044C91.2188 72.5456 90.2588 72.0659 88.6588 72.3857C81.9388 73.1852 75.2188 73.8248 68.4988 74.4643C62.8988 75.1039 57.2988 75.5836 51.6988 76.543C52.3388 88.8548 52.3388 101.007 52.1788 113.319L51.8588 113.159Z" fill="#070707"/>
<path d="M37.9389 57.0358C37.1389 58.9545 36.1788 60.5534 34.8988 61.9925C32.1788 64.7107 29.2988 64.5508 27.3788 61.193C24.9788 57.0358 24.4988 52.5587 24.9788 47.9218C24.9788 47.2822 25.1388 46.4827 25.9388 46.6426C26.7388 46.6426 26.8988 47.4421 26.8988 48.0817C27.3788 51.2796 28.0188 54.3176 29.1388 57.3556C29.4588 58.3149 29.7787 59.9139 31.0587 60.0738C32.4987 60.2337 32.9788 58.7946 33.6188 57.8352C35.2188 55.4368 35.2188 52.5587 35.5388 49.6806C35.5388 49.2009 35.5388 48.7213 35.5388 48.0817C35.5388 47.1223 36.0188 46.3228 37.1388 46.1629C38.2588 46.1629 38.7388 46.8025 38.8988 47.7619C39.2188 49.5207 39.3788 51.4394 40.0188 53.1983C40.4988 54.7972 41.1387 56.2363 42.2587 57.3556C43.5387 58.7946 44.8188 58.7946 45.7788 57.1957C47.5388 54.4774 48.4987 51.4394 48.6587 48.2415C48.6587 46.8025 48.4988 45.0436 50.4188 45.0436C52.3388 45.0436 52.0188 46.9624 52.0188 48.4014C52.0188 52.079 50.8988 55.5967 48.9788 58.7946C46.0988 63.2717 42.2588 63.4316 39.2188 59.1144C38.7388 58.6347 38.4188 57.9951 37.7788 57.1957L37.9389 57.0358Z" fill="#070707"/>
<path d="M94.0988 29.0542C90.8988 32.8917 92.0188 37.5286 91.6988 42.1655C93.2988 42.0057 94.5788 41.8458 95.8588 41.6859C96.3388 41.6859 96.8189 41.6859 97.1389 41.6859C98.5789 41.6859 99.8589 42.1655 100.019 43.6046C100.019 45.2035 99.0589 45.8431 97.6189 46.003C95.8589 46.3228 94.0988 46.3228 92.1788 46.3228C92.1788 49.3608 92.8189 52.079 93.1389 54.9571C93.1389 55.4368 93.2988 55.9165 93.2988 56.2363C93.2988 57.3555 92.8188 58.3149 91.6988 58.4748C90.5788 58.6347 89.9389 57.8353 89.6189 56.8759C88.8189 54.1577 88.4988 51.4394 88.1788 48.5613C88.1788 47.9218 88.0188 47.2822 87.8588 46.8025C86.7388 46.3228 85.7788 46.8025 84.6588 46.8025C84.0188 46.8025 83.3788 46.8025 83.0588 46.003C82.8988 45.3634 83.3788 45.0437 83.8588 44.7239C83.8588 44.7239 84.0188 44.564 84.1788 44.564C87.5388 43.9244 87.5389 41.6859 87.5389 38.9677C87.5389 36.2494 87.6988 33.3713 88.6588 30.6531C89.1388 29.2141 89.9388 27.9349 91.0588 26.9755C92.6588 25.6964 94.7388 25.6964 95.8588 26.9755C96.6588 27.9349 97.1388 28.8943 96.1788 30.0135C95.0588 31.2927 94.7389 29.5339 93.6189 29.374L94.0988 29.0542Z" fill="#070707"/>
<path d="M104.659 43.6046C104.659 42.3255 104.659 39.9271 104.979 37.6885C104.979 37.049 105.139 36.0896 105.939 36.0896C106.899 36.0896 107.059 36.8891 107.379 37.5286C108.659 41.6859 109.299 46.0031 109.299 50.4801C109.299 50.7999 109.299 51.2796 109.299 51.5993C109.299 52.8785 108.499 53.8379 107.219 53.9978C105.779 53.9978 105.139 53.0384 104.819 51.9192C104.339 49.5207 104.499 47.1223 104.659 43.6046Z" fill="#070707"/>
<path d="M57.9389 52.8785C57.6189 50.4801 57.9388 48.0817 58.4188 45.6833C58.5788 45.0437 58.5788 44.0843 59.6988 44.0843C60.6588 44.0843 60.8188 45.0437 60.8188 45.6833C61.2988 49.201 62.2588 52.7186 62.0988 56.2363C62.0988 57.6753 61.6188 58.9545 60.0188 58.7946C58.4188 58.7946 58.0988 57.5154 58.0988 56.2363C58.0988 55.117 57.7788 53.9978 58.0988 52.7186L57.9389 52.8785Z" fill="#070707"/>
<path d="M72.6588 50.4801C72.1788 50.4801 71.5388 50.4801 70.8988 50.0004C69.9388 49.5207 69.7788 48.8812 70.5788 48.0817C71.8588 46.9624 73.4588 46.3228 75.0588 46.3228C75.8588 46.3228 76.4988 46.6426 76.6588 47.4421C76.9788 48.2415 76.6588 48.8811 76.0188 49.3608C75.0588 50.1603 73.7788 50.3202 72.4988 50.64L72.6588 50.4801Z" fill="#070707"/>
<path d="M60.4988 37.6885C60.4988 38.6479 59.8588 39.1276 59.0588 39.1276C57.7788 39.1276 56.9788 38.1682 56.9788 36.8891C56.9788 36.0896 57.6189 35.45 58.4189 35.45C59.6989 35.45 60.3388 36.4094 60.4988 37.6885Z" fill="#070707"/>
<path d="M105.459 30.3334C105.459 31.1328 105.459 32.0922 104.179 32.0922C103.059 32.0922 103.059 30.813 102.899 30.0136C102.899 29.2141 103.219 28.4146 104.179 28.4146C105.299 28.4146 105.299 29.374 105.459 30.3334Z" fill="#070707"/>
<path d="M51.8588 113.159C52.0188 100.847 52.0188 88.6949 51.3788 76.383C56.9788 75.4237 62.5788 74.944 68.1788 74.3044C74.8988 73.505 81.6188 73.0252 88.3388 72.2258C90.0988 72.0659 90.8988 72.3857 91.2188 74.1445C91.8588 77.3424 92.3388 80.3804 92.3388 83.5783C92.4988 90.4538 93.6188 97.1694 93.9388 103.885C94.2588 110.121 95.5388 109.002 88.8188 110.121C77.7788 112.04 66.5788 112.679 55.3788 113.159C54.0988 113.159 52.9788 113.159 51.5388 112.999L51.8588 113.159ZM57.4588 92.2126C57.4588 95.7303 57.2988 99.0881 57.6188 102.606C57.9388 105.484 59.8588 107.403 62.2588 107.243C66.2588 107.083 70.2588 106.763 74.2588 106.443C77.6188 106.124 80.9788 105.964 84.3388 105.324C86.2588 104.844 86.7388 104.045 86.7388 102.126C86.5788 99.248 86.4188 96.21 86.2588 93.3319C86.0988 88.8548 86.2588 84.3778 85.1388 80.0607C84.6588 77.8221 83.8588 77.1825 81.4588 77.5023C79.5388 77.6622 77.6188 77.982 75.6988 78.3018C70.2588 79.1013 64.9788 79.5809 59.6988 81.02C58.0988 81.3398 57.4588 82.4591 57.4588 83.8981C57.4588 86.7762 57.4588 89.4944 57.4588 92.3725V92.2126Z" fill="#FDFDFD"/>
<path d="M57.4588 92.2126C57.4588 89.3345 57.4588 86.6163 57.4588 83.7382C57.4588 82.2991 58.2588 81.3398 59.6988 80.8601C64.9788 79.5809 70.4188 78.9414 75.6988 78.1419C77.6188 77.8221 79.5388 77.5023 81.4588 77.3424C83.8588 77.0226 84.6589 77.5023 85.1389 79.9007C86.0989 84.2179 86.0988 88.6949 86.2588 93.172C86.2588 96.0501 86.5789 99.0881 86.7389 101.966C86.7389 104.045 86.4189 104.844 84.3389 105.164C80.9789 105.804 77.6188 106.123 74.2588 106.283C70.2588 106.603 66.2588 106.763 62.2588 107.083C59.8588 107.083 57.9389 105.324 57.6189 102.446C57.2989 99.0881 57.4588 95.5704 57.4588 92.0527L57.4588 92.2126ZM63.8588 101.806C64.1788 101.646 64.6589 101.487 65.1389 101.327C67.5389 100.687 70.5789 101.327 71.5389 97.8089C71.5389 97.1693 72.3388 96.6897 72.9788 96.8496C73.7788 97.0095 73.4588 97.9688 73.7788 98.6084C74.4188 98.4485 75.2188 98.1287 75.6988 98.7683C76.1788 99.4079 75.8588 100.047 75.6988 100.687C75.2188 101.646 74.4188 102.446 73.2988 103.405C76.1788 103.885 78.5789 102.766 81.6189 102.766C80.4989 101.806 80.3388 100.847 79.3788 100.527C78.0988 100.047 77.9388 99.0881 78.0988 97.8089C78.0988 97.0094 78.4188 96.5298 77.4588 95.8902C76.3388 95.2506 76.4988 94.1313 77.2988 93.172C78.4188 91.8928 79.3788 90.2939 80.8188 89.3345C83.6988 87.4158 83.2188 84.8575 82.5788 82.1392C81.1388 83.4184 80.0188 82.459 79.2188 81.4997C78.4188 80.7002 77.9388 80.7002 76.9788 80.7002C73.2988 81.1799 69.6189 81.6596 65.9389 81.9793C64.4989 81.9793 64.0189 82.6189 63.5389 84.058C64.6589 83.5783 65.4589 83.2585 66.4189 84.058C67.2189 84.6976 68.0188 85.1773 68.9788 85.6569C70.5788 82.1393 72.4988 81.3398 75.6988 83.2585C76.0188 82.459 76.3388 81.6596 77.2988 81.6596C78.7388 81.6596 78.5788 83.2585 79.2188 84.058C79.8588 83.7382 80.3388 83.4184 80.9788 84.058C81.4588 84.5377 81.2988 85.1773 80.9788 85.6569C79.8588 87.8955 78.2588 89.8142 76.9788 91.7329C75.6988 91.0933 76.0188 89.6543 75.2188 88.8548C73.7788 89.4944 73.1388 88.5351 72.4988 87.2559C72.0188 87.5757 71.5388 87.7356 71.2188 88.0554C72.4988 90.4538 72.6588 91.0933 71.8588 91.7329C69.7788 93.3319 69.1388 90.6137 67.6988 90.134C66.7388 92.2126 65.2988 94.1314 63.8588 95.8902C63.3788 96.5298 62.7388 97.4892 61.7788 96.8496C60.6588 96.21 61.4588 95.0907 61.7788 94.2913C62.2588 93.4918 62.7389 92.8522 63.2189 92.0527C64.1789 90.7736 65.1388 89.4944 66.2588 88.2152C65.6188 87.5756 65.2989 86.6163 64.8189 86.4564C61.7789 91.2533 59.3788 96.21 60.6588 102.126C60.6588 102.126 60.6588 102.126 60.6588 102.286C60.4988 103.725 61.4589 104.205 62.7389 104.205C63.5389 104.205 64.3389 104.045 65.1389 103.885C64.4989 103.085 62.7389 102.926 64.3389 101.646L63.8588 101.806ZM80.8188 98.6084C82.2588 99.5678 83.0589 100.847 82.4189 102.766C83.0589 102.766 83.8588 102.766 83.6988 101.966C83.2188 98.9282 83.2188 95.8902 83.0588 92.3725C82.2588 93.3319 81.1388 94.2912 81.4588 94.611C82.2588 96.21 81.1388 97.3292 80.9788 98.7683L80.8188 98.6084ZM59.0588 82.9387C59.0588 83.5783 59.0589 84.2179 59.5389 85.1772C60.0189 84.2179 60.4989 83.5783 60.8189 82.9387C60.0189 82.7788 59.5388 82.7788 58.8988 82.9387H59.0588Z" fill="#070707"/>
<path d="M63.8588 101.806C62.2588 103.085 63.8588 103.405 64.6588 104.045C63.8588 104.045 63.0588 104.365 62.2588 104.365C61.1388 104.365 60.0188 104.045 60.1788 102.446C60.1788 102.446 60.1788 102.446 60.1788 102.286C58.8988 96.3699 61.1389 91.4131 64.3389 86.6163C64.9789 86.7762 65.2988 87.5757 65.7788 88.3751C64.8188 89.6543 63.8589 90.9334 62.7389 92.2126C62.2589 92.8522 61.6188 93.6517 61.2988 94.4512C60.8188 95.2506 60.1788 96.21 61.2988 97.0094C62.2588 97.649 62.8988 96.6897 63.3788 96.0501C64.8188 94.2913 66.0988 92.3725 67.2188 90.2939C68.6588 90.7736 69.2988 93.4918 71.3788 91.8928C72.1788 91.2533 72.0189 90.6136 70.7389 88.2152C71.0589 88.0553 71.5389 87.7355 72.0189 87.4158C72.4989 88.6949 73.2989 89.6543 74.7389 89.0147C75.5389 89.8142 75.2188 91.2533 76.4988 91.8928C77.7788 89.8142 79.5388 88.0553 80.4988 85.8168C80.8188 85.3371 80.9788 84.6975 80.4988 84.2179C79.8588 83.5783 79.3789 83.8981 78.7389 84.2179C78.0989 83.4184 78.4188 81.9793 76.8188 81.8194C75.8588 81.8194 75.5388 82.6189 75.2188 83.4184C72.1788 81.4997 70.0988 82.1392 68.4988 85.8168C67.6988 85.3371 66.7389 84.8574 65.9389 84.2179C64.9789 83.5783 64.1788 83.7382 63.0588 84.2179C63.5388 82.7788 64.0188 82.2991 65.4588 82.1392C69.1388 81.8195 72.8188 81.3398 76.4988 80.8601C77.4588 80.8601 78.0989 80.8601 78.7389 81.6596C79.5389 82.4591 80.6588 83.5783 82.0988 82.2991C82.8988 85.0174 83.3789 87.5757 80.3389 89.4944C78.8989 90.4538 77.9388 91.8928 76.8188 93.3319C76.0188 94.2912 75.8588 95.4105 76.9788 96.0501C77.9388 96.5298 77.6189 97.1693 77.6189 97.9688C77.4589 99.0881 77.6188 100.207 78.8988 100.687C79.8588 101.007 80.0189 102.126 81.1389 102.926C78.0989 102.926 75.8588 104.045 72.8188 103.565C73.9388 102.606 74.7388 101.806 75.2188 100.847C75.5388 100.207 75.8588 99.5678 75.2188 98.9282C74.7388 98.1287 73.9388 98.4485 73.2988 98.7683C72.9788 98.2886 73.2988 97.1693 72.4988 97.0094C71.6988 96.8495 71.0588 97.3292 71.0588 97.9688C70.2588 101.487 67.2188 101.007 64.6588 101.487C64.1788 101.487 63.8588 101.806 63.3788 101.966C63.5388 100.847 64.4988 100.367 65.4588 100.047C66.7388 99.4079 68.3389 99.248 69.6189 98.4485C71.3789 97.3293 72.8189 95.5704 73.9389 93.6517C74.2589 93.172 74.4189 92.6923 73.9389 92.2126C73.6189 91.7329 72.9788 91.8928 72.4988 92.0527C71.6988 92.3725 70.8988 93.172 70.0988 93.172C65.7788 93.4918 63.6988 96.5298 61.4588 99.4079C60.9788 100.047 60.6589 100.687 61.1389 101.327C61.6189 102.126 62.4188 102.126 63.3788 101.806H63.8588Z" fill="#FDFDFD"/>
<path d="M80.8188 98.6084C81.1388 97.1693 82.0988 96.0501 81.2988 94.4512C81.1388 94.1314 82.2588 93.172 82.8988 92.2126C83.0588 95.7303 83.0588 98.7683 83.5388 101.806C83.5388 102.766 82.8988 102.606 82.2588 102.606C82.8988 100.847 82.2588 99.4079 80.6588 98.4485L80.8188 98.6084Z" fill="#FDFDFD"/>
<path d="M59.0588 82.9387C59.6988 82.6189 60.1788 82.6189 60.9788 82.9387C60.4988 83.5783 60.1788 84.3778 59.6988 85.1772C59.2188 84.3778 59.2188 83.5783 59.2188 82.9387L59.0588 82.9387Z" fill="#FDFDFD"/>
<path d="M63.8588 101.806C63.0588 102.126 62.2589 102.126 61.6189 101.327C61.1389 100.687 61.6189 100.047 61.9389 99.4079C64.1789 96.3699 66.2588 93.3319 70.5788 93.172C71.3788 93.172 72.1788 92.3725 72.9788 92.0527C73.4588 91.8929 73.9389 91.7329 74.4189 92.2126C74.8989 92.6923 74.4189 93.172 74.4189 93.6517C73.2989 95.5704 71.8588 97.3293 70.0988 98.4485C68.9788 99.248 67.3789 99.4079 65.9389 100.047C64.9789 100.527 64.0188 100.847 63.8588 101.966L63.8588 101.806Z" fill="#070707"/>
</svg>
