<svg width="195" height="242" viewBox="0 0 195 242" fill="none" xmlns="http://www.w3.org/2000/svg">
<path d="M42.3291 194.432C42.9691 194.432 42.8091 193.792 42.8091 193.313C43.7691 188.196 46.8091 184.359 50.6491 181.321C51.2891 180.681 51.7691 180.041 52.0891 179.242C53.6891 174.605 57.0491 171.727 61.6891 170.448C62.6491 170.128 63.4491 169.808 63.9291 168.689C64.8891 166.93 66.6491 166.131 68.5691 165.811C73.5291 165.171 78.3291 165.971 82.9691 167.57C94.1691 171.247 103.929 177.643 111.449 186.757C118.329 195.072 118.809 203.706 113.049 212.98C113.049 212.98 113.049 213.3 113.049 213.459C115.449 214.419 117.529 215.858 119.769 216.977C120.569 217.457 121.369 217.937 121.529 219.056C121.529 219.855 122.169 219.855 122.809 220.175C133.209 224.652 143.769 229.129 155.289 230.408C160.729 231.048 166.169 230.728 171.449 229.129C180.249 226.571 184.249 221.294 184.889 212.02C185.209 208.183 185.209 204.345 183.609 200.668C181.529 200.988 180.089 199.709 178.969 198.11C177.689 196.511 176.409 194.912 174.969 193.633C170.169 196.351 165.049 196.99 159.929 195.551C147.609 192.034 136.569 186.437 128.249 176.364C124.409 171.727 121.529 166.45 120.729 160.215C120.409 157.496 120.729 154.778 122.009 152.38C124.089 149.022 125.689 145.344 128.569 142.626C129.209 141.987 129.049 141.187 129.529 140.388C132.089 136.71 135.609 134.471 139.929 133.352C140.729 133.192 141.689 133.352 142.329 132.553C143.609 132.553 144.889 132.553 146.169 132.553L146.489 132.873C153.529 133.352 160.089 135.751 166.329 138.789C176.569 143.905 185.209 150.781 190.009 161.494C192.409 166.61 193.689 171.727 192.569 177.483C191.769 181.321 190.169 184.838 187.929 187.876C191.769 190.595 191.929 190.914 190.009 195.391C189.849 195.871 190.009 196.191 190.009 196.671C193.049 203.066 194.489 209.782 194.329 216.817C194.329 223.373 191.929 228.969 186.809 232.967C177.849 240.002 167.769 242.72 156.569 240.642C143.289 238.243 130.809 233.766 119.289 226.571C118.009 228.33 116.089 228.01 114.329 227.69C111.769 227.21 109.369 226.251 107.129 225.292C106.649 225.132 106.169 224.652 105.529 225.292C103.289 227.69 100.249 228.809 97.5291 230.568C93.0491 233.446 88.2491 235.365 82.6491 234.885C76.7291 234.566 71.6091 232.647 66.9691 229.129C61.2091 224.812 55.7691 220.175 50.8091 214.899C47.6091 211.381 44.8891 207.383 43.2891 202.747C42.9691 201.947 43.2891 200.988 42.3291 200.348V198.749C42.9691 197.95 42.8091 197.15 42.3291 196.511V194.592V194.432ZM46.4891 193.952C46.0091 193.952 46.1691 194.432 46.1691 194.752C45.0491 199.549 48.2491 208.183 51.7691 209.942C51.7691 207.543 51.7691 204.985 51.7691 202.587C51.7691 199.229 52.8891 196.99 54.6491 196.351C54.6491 196.671 54.8091 196.83 54.6491 196.99C53.5291 200.988 53.8491 205.145 54.3291 209.142C54.8091 212.82 55.9291 216.018 59.1291 218.256C59.1291 218.416 59.2891 218.576 59.4491 218.896C59.7691 218.576 59.6091 218.256 59.4491 217.937C58.4891 215.218 57.8491 212.34 57.5291 209.462C57.2091 206.584 57.0491 203.546 58.4891 200.828C58.8091 200.188 59.1291 199.229 60.4091 199.389C58.9691 203.386 59.6091 207.384 60.4091 211.381C61.3691 216.977 63.4491 221.934 67.7691 225.612C68.4091 226.251 69.0491 226.891 70.1691 226.731C63.7691 215.858 62.3291 208.343 66.1691 205.305C65.8491 209.782 66.8091 213.939 68.2491 217.937C70.0091 222.733 73.2091 226.731 75.9291 227.85C74.1691 224.812 73.0491 221.614 72.5691 218.256C72.0891 215.538 71.4491 212.82 72.5691 210.102C72.8891 209.302 73.2091 208.183 74.4891 208.023C74.4891 208.183 74.4891 208.343 74.4891 208.503C74.4891 208.823 74.4891 209.302 74.4891 209.622C74.0091 216.498 75.4491 223.053 79.6091 228.649C80.4091 229.769 81.3691 230.408 82.8091 229.929C78.1691 221.454 77.0491 216.018 79.4491 213.619C79.9291 213.779 79.9291 214.259 80.0891 214.739C80.8891 217.617 81.5291 220.495 82.3291 223.373C82.9691 225.452 83.7691 227.37 85.0491 228.969C85.3691 229.289 85.5291 229.929 86.1691 229.769C88.8891 228.969 91.7691 228.49 93.8491 226.411C94.0091 226.411 94.3291 226.411 94.4891 226.251C98.8091 222.893 101.209 218.576 101.369 213.3C101.689 205.625 98.8091 198.909 93.8491 193.313C87.4491 185.958 79.2891 181.481 69.5291 179.882C62.9691 178.762 56.8891 179.722 51.6091 184.359C48.7291 186.917 46.3291 189.635 46.0091 193.792L46.4891 193.952ZM177.209 179.562C177.209 173.166 175.449 167.889 171.769 163.093C165.849 155.418 158.009 150.141 148.729 146.943C144.089 145.344 139.289 144.865 134.329 145.824C124.569 147.903 120.729 154.618 123.609 163.732C125.369 169.329 128.409 174.125 132.729 178.283C140.889 185.958 150.809 190.754 161.529 193.473C169.529 195.391 174.649 192.194 176.569 184.199C176.889 182.6 176.889 180.841 177.049 179.562H177.209ZM185.849 199.229C187.609 203.386 187.929 207.383 187.769 211.701C187.289 222.573 181.849 229.129 171.449 232.007C162.489 234.406 153.689 233.606 144.889 231.368C136.569 229.129 128.569 226.251 121.049 221.774C120.729 222.733 120.409 223.693 120.089 224.652C121.689 225.452 123.289 226.091 124.729 226.731C135.929 231.687 147.289 236.324 159.609 237.923C169.529 239.203 178.169 236.005 185.529 229.609C187.289 228.17 188.409 226.251 189.209 224.172C190.169 221.614 190.809 218.896 190.809 216.018C190.809 209.942 189.529 204.026 187.289 198.269C186.809 198.589 186.329 198.909 185.849 199.389V199.229ZM113.049 207.703C114.969 201.148 114.009 195.391 110.169 190.275C104.409 182.76 96.7291 177.323 88.2491 173.166C82.3291 170.288 76.0891 168.689 69.3691 168.849C68.0891 168.849 66.8091 168.849 65.6891 169.968C68.0891 169.968 70.3291 170.128 72.5691 170.768C80.2491 172.686 87.1291 176.204 94.0091 180.201C104.409 186.437 111.129 195.231 113.369 207.863L113.049 207.703ZM188.089 181.321C188.889 181.321 188.889 180.681 189.049 180.201C189.689 178.283 190.169 176.204 190.169 174.125C190.169 165.811 186.649 158.935 181.369 153.019C171.929 142.626 159.769 137.03 145.849 135.271C141.689 134.791 137.689 135.911 134.329 138.789C137.209 138.149 140.089 137.35 143.129 137.35C158.649 137.35 170.809 144.065 180.249 155.897C186.009 163.253 188.889 171.727 188.089 181.161V181.321ZM112.089 214.579C111.289 217.617 109.689 219.855 108.089 222.254C109.209 222.733 110.329 223.213 111.449 223.533C117.689 225.292 116.409 225.771 118.649 220.015C118.649 220.015 118.649 219.695 118.649 219.535C116.569 218.096 114.329 216.498 112.249 214.579H112.089ZM182.169 197.47C183.449 196.99 184.409 196.351 185.209 195.551C188.889 192.513 188.889 191.714 185.209 188.676C185.209 188.676 185.049 188.676 184.729 188.676C182.969 190.754 180.729 192.193 177.689 192.673C179.129 194.432 180.569 195.871 182.009 197.63L182.169 197.47ZM70.8091 227.051L70.6491 227.21C70.6491 227.21 70.8091 227.37 70.9691 227.53C70.9691 227.53 70.9691 227.37 70.9691 227.21C70.9691 227.21 70.9691 227.051 70.8091 226.891V227.051Z" fill="#050606"/>
<path d="M42.3291 196.351C42.8091 197.15 42.9691 197.95 42.3291 198.589V196.351Z" fill="#464646"/>
<path d="M94.1691 226.89C91.9291 228.969 89.2091 229.449 86.4891 230.248C85.8491 230.408 85.6891 229.769 85.3691 229.449C84.0891 227.69 83.2891 225.771 82.6491 223.853C81.8491 220.974 81.0491 218.096 80.4091 215.218C80.4091 214.739 80.4091 214.259 79.7691 214.099C77.5291 216.497 78.6491 221.934 83.1291 230.408C81.6891 230.888 80.7291 230.408 79.9291 229.129C75.7691 223.373 74.3291 216.977 74.8091 210.102C74.8091 209.782 74.8091 209.302 74.8091 208.982C74.8091 208.982 74.8091 208.822 74.8091 208.503C73.5291 208.503 73.2091 209.622 72.8891 210.581C71.7691 213.299 72.4091 216.018 72.8891 218.736C73.3691 222.094 74.6491 225.132 76.2491 228.33C73.5291 227.21 70.3291 223.213 68.5691 218.416C67.1291 214.419 66.1691 210.261 66.4891 205.784C62.6491 208.822 64.0891 216.337 70.4891 227.21C69.3691 227.37 68.7291 226.731 68.0891 226.091C63.7691 222.254 61.6891 217.297 60.7291 211.86C60.0891 207.863 59.2891 203.866 60.7291 199.868C59.2891 199.708 59.1291 200.668 58.8091 201.307C57.3691 204.026 57.5291 206.904 57.8491 209.942C58.1691 212.82 58.8091 215.698 59.7691 218.416C59.7691 218.416 59.6091 218.576 59.4491 218.736C56.2491 216.497 55.1291 213.14 54.6491 209.622C54.1691 205.625 53.8491 201.467 54.9691 197.47C54.9691 197.31 54.9691 196.99 54.9691 196.83C53.2091 197.63 52.0891 199.868 52.0891 203.066C52.0891 205.465 52.0891 208.023 52.0891 210.421C48.5691 208.503 45.3691 200.028 46.4891 195.231C46.8091 195.071 46.8091 194.752 46.8091 194.432C48.5691 192.513 50.3291 190.594 52.2491 188.836C58.8091 182.6 65.8491 181.64 73.6891 186.277C83.9291 192.193 90.8091 201.147 95.4491 211.7C96.8891 215.058 97.2091 218.576 96.4091 222.094C96.0891 223.852 94.9691 225.451 94.6491 227.21L94.1691 226.89Z" fill="#0AB9EC"/>
<path d="M177.209 179.562C177.209 181.001 177.209 182.6 176.729 184.199C174.809 192.354 169.689 195.552 161.689 193.473C150.969 190.755 141.049 185.958 132.889 178.283C128.569 174.286 125.369 169.329 123.769 163.732C120.889 154.459 124.889 147.903 134.489 145.824C139.289 144.705 144.249 145.185 148.889 146.944C158.009 150.141 165.849 155.418 171.929 163.093C175.609 167.89 177.369 173.166 177.369 179.562H177.209ZM146.489 158.456C138.649 158.456 134.809 164.212 138.329 171.088C142.969 180.042 150.329 185.318 160.569 185.958C162.009 185.958 163.289 185.798 164.569 184.839C168.089 182.12 168.889 178.443 168.089 174.445C166.329 166.131 155.769 158.456 146.489 158.456Z" fill="#FDFDFD"/>
<path d="M94.1691 226.891C94.6491 225.132 95.6091 223.533 95.9291 221.774C96.7291 218.256 96.5691 214.579 94.9691 211.381C90.1691 200.828 83.4491 191.874 73.2091 185.958C65.3691 181.48 58.3291 182.28 51.7691 188.516C49.8491 190.275 48.2491 192.193 46.3291 194.112C46.6491 190.115 49.0491 187.237 51.9291 184.678C57.0491 180.041 63.2891 179.242 69.8491 180.201C79.6091 181.8 87.7691 186.277 94.1691 193.633C99.1291 199.229 102.009 205.944 101.689 213.619C101.529 218.896 99.1291 223.373 94.8091 226.571C94.6491 226.571 94.3291 226.571 94.1691 226.731V226.891Z" fill="#FDFDFD"/>
<path d="M185.849 199.229C186.329 198.909 186.809 198.589 187.289 198.109C189.529 203.866 190.649 209.782 190.809 215.858C190.809 218.736 190.329 221.454 189.209 224.012C188.409 226.091 187.289 228.01 185.529 229.449C178.009 235.845 169.529 239.042 159.609 237.763C147.289 236.324 135.929 231.687 124.729 226.571C123.289 225.931 121.689 225.132 120.089 224.492C120.409 223.533 120.729 222.573 121.049 221.614C128.409 226.091 136.569 229.129 144.889 231.208C153.689 233.446 162.489 234.405 171.449 231.847C182.009 228.969 187.289 222.413 187.769 211.541C187.929 207.223 187.609 203.226 185.849 199.069V199.229Z" fill="#FDFDFD"/>
<path d="M113.049 207.703C110.809 195.231 104.249 186.277 93.6891 180.042C86.9691 176.044 80.0891 172.367 72.2491 170.608C70.1691 170.128 67.9291 169.968 65.3691 169.808C66.6491 168.689 67.9291 168.689 69.0491 168.689C75.6091 168.689 82.0091 170.128 87.9291 173.006C96.4091 177.163 104.089 182.6 109.849 190.115C113.849 195.231 114.649 200.988 112.729 207.543L113.049 207.703Z" fill="#FDFDFD"/>
<path d="M188.089 181.321C189.049 171.727 186.169 163.252 180.249 156.057C170.809 144.225 158.649 137.35 143.129 137.509C140.089 137.509 137.209 138.309 134.329 138.948C137.529 135.91 141.529 134.791 145.849 135.431C159.769 137.03 171.929 142.786 181.369 153.179C186.809 159.095 190.329 166.131 190.169 174.285C190.169 176.364 189.689 178.442 189.049 180.361C189.049 180.841 189.049 181.48 188.089 181.48V181.321Z" fill="#0AB9EC"/>
<path d="M112.089 214.579C114.329 216.497 116.409 218.096 118.489 219.535C118.489 219.695 118.489 219.855 118.489 220.015C116.249 225.771 117.529 225.451 111.289 223.533C110.169 223.213 109.049 222.733 107.929 222.254C109.529 219.855 111.129 217.617 111.929 214.579H112.089Z" fill="#FDFDFD"/>
<path d="M182.169 197.47C180.729 195.871 179.289 194.272 177.849 192.513C180.729 192.034 182.969 190.595 184.889 188.516C185.049 188.516 185.209 188.516 185.369 188.516C189.049 191.394 189.049 192.354 185.369 195.392C184.569 196.191 183.609 196.831 182.329 197.31L182.169 197.47Z" fill="#FDFDFD"/>
<path d="M46.4891 193.952C46.4891 194.272 46.4891 194.592 46.1691 194.752C46.1691 194.432 45.8491 194.112 46.4891 193.952Z" fill="#FDFDFD"/>
<path d="M59.7692 217.937C59.9292 218.256 60.0892 218.416 59.7692 218.896C59.7692 218.576 59.6092 218.416 59.4492 218.256C59.4492 218.256 59.6092 218.096 59.7692 217.937Z" fill="#0AB9EC"/>
<path d="M70.8092 227.051C70.8092 227.051 70.9692 227.051 70.9692 227.371C70.9692 227.371 70.9692 227.53 70.9692 227.69C70.9692 227.69 70.8092 227.53 70.6492 227.371C70.6492 227.371 70.6492 227.371 70.8092 227.211V227.051Z" fill="#0AB9EC"/>
<path d="M146.489 158.456C155.769 158.456 166.329 166.131 168.089 174.445C168.889 178.442 168.089 182.12 164.569 184.838C163.289 185.798 162.009 185.957 160.569 185.957C150.329 185.318 142.969 180.041 138.329 171.087C134.649 164.212 138.649 158.456 146.489 158.456ZM158.489 182.6C158.969 177.483 156.249 174.285 152.729 171.247C149.049 168.209 144.889 166.93 140.089 168.369C142.169 175.244 151.449 182.6 158.329 182.6H158.489Z" fill="#050606"/>
<path d="M158.489 182.6C151.609 182.6 142.169 175.245 140.249 168.369C145.049 167.09 149.209 168.209 152.889 171.247C156.249 174.126 159.129 177.483 158.649 182.6H158.489Z" fill="#FDFDFD"/>
<path d="M181.368 31.819C180.568 34.0576 180.728 36.456 180.728 38.8544C180.088 51.9658 178.968 64.9173 176.568 77.8687C175.288 84.5843 174.808 91.6197 173.368 98.3353C171.768 106.33 167.768 111.607 159.448 113.365C158.008 113.685 156.568 114.165 155.128 114.645C134.328 120.561 113.848 127.596 93.5284 135.271C74.9684 142.306 56.2484 148.702 37.2084 153.979C31.6084 155.578 25.8484 157.336 19.9284 157.816C15.7684 158.136 12.2484 157.177 9.36839 154.139C7.76839 152.38 5.68836 150.941 4.08836 149.182C1.36836 146.304 0.248363 142.786 0.0883626 138.949C-0.231637 131.274 0.408392 123.599 0.568392 115.764C0.888392 105.371 1.68838 94.8176 2.80838 84.4244C3.76838 75.4703 3.92837 66.5162 5.84837 57.722C7.44837 50.0471 11.9284 44.2908 18.6484 40.2935C26.0084 35.9763 34.1684 33.8977 42.1684 31.819C58.9684 27.342 74.9684 20.9462 91.4484 15.5098C107.288 10.0734 123.128 4.95674 139.448 1.59895C142.328 0.959369 145.048 0.479684 147.928 0C152.728 0 157.688 0 162.488 0C162.488 0.479684 162.968 0.319785 163.288 0.319785C166.968 0.479679 170.168 1.91873 172.728 4.63694C174.168 6.07599 175.448 7.51506 176.888 8.95412C178.808 10.8729 180.248 12.7916 180.568 15.6697C180.728 16.789 180.568 18.228 181.208 19.3473V20.1468C180.568 22.3853 180.568 24.7837 181.208 27.0222V32.4586L181.368 31.819ZM165.208 106.33C166.648 105.371 167.288 103.772 167.928 102.333C169.048 99.4545 169.528 96.4165 170.168 93.5384C171.288 87.9421 171.608 82.3458 172.728 76.7495C174.328 68.9146 175.288 60.76 175.928 52.7653C176.408 47.9684 176.568 43.1716 176.728 38.5346C177.048 31.6592 177.848 24.9436 177.048 18.0681C176.408 12.6317 174.328 9.4338 168.408 8.95412C165.688 8.63433 162.968 8.95411 160.408 9.2739C150.968 10.3932 141.528 12.4718 132.248 15.0301C115.928 19.5072 100.088 25.4233 83.7684 30.0602C73.2084 33.0982 62.9684 36.9357 52.5684 40.2935C44.5684 42.8518 36.4084 45.2502 28.4084 47.8085C23.6084 49.4075 20.4084 52.6054 18.8084 57.4022C18.1684 59.3209 17.6884 61.2397 17.2084 63.3183C15.6084 70.8334 14.8084 78.3484 14.0084 85.8635C13.0484 94.8176 12.5684 103.612 12.2484 112.566C11.9284 121.52 11.7684 130.474 11.2884 139.268C11.2884 142.466 11.2884 145.504 11.4484 148.702C11.6084 151.101 12.8884 152.859 15.2884 153.659C17.6884 154.458 19.9284 154.458 22.3284 153.659C23.1284 153.659 23.7684 153.659 24.5684 153.339C38.3284 150.301 51.7684 145.824 65.0484 141.507C79.7684 136.71 94.3284 130.954 108.888 125.677C125.368 119.601 142.168 114.485 159.128 109.688C161.208 109.048 163.448 108.569 165.048 106.65L165.208 106.33Z" fill="#030303"/>
<path d="M181.368 26.5425C180.728 24.3039 180.728 21.9055 181.368 19.667V26.5425Z" fill="#343434"/>
<path d="M165.208 106.33C163.608 108.089 161.528 108.729 159.288 109.368C142.328 114.325 125.528 119.442 109.048 125.358C94.4883 130.794 79.9283 136.39 65.2083 141.187C51.7683 145.664 38.4883 149.982 24.7283 153.02C23.9283 153.179 23.2883 153.339 22.4883 153.339C21.2083 153.019 19.7683 152.7 18.4883 152.22C16.0883 151.58 14.9683 149.981 14.8083 147.583C14.3283 142.626 14.3283 137.67 14.4883 132.713C14.9683 117.363 15.2883 102.013 16.7283 86.6632C17.2083 80.747 17.6883 74.6711 18.9683 68.9149C19.6083 65.8769 20.5683 62.9987 21.6883 60.1206C24.7283 52.7655 30.8083 49.7275 37.8483 47.6488C57.8483 41.7327 77.6883 35.0172 97.8483 29.5807C117.528 24.3042 136.888 18.0683 156.728 13.7512C161.848 12.6319 166.968 12.3121 171.768 15.1902C173.368 16.1496 174.328 17.2688 174.488 19.1876C174.968 23.1849 174.968 27.0224 174.488 31.0198C174.008 35.8166 173.688 40.6135 173.208 45.2504C172.728 50.6868 172.408 56.1233 171.768 61.5597C170.968 69.7143 169.688 78.0288 168.568 86.1835C167.768 91.1402 167.608 96.2569 166.328 101.214C165.848 102.813 165.048 104.411 165.048 106.17L165.208 106.33ZM25.2083 137.19C28.2483 137.829 30.9683 137.51 33.6883 136.55C50.1683 130.954 66.6483 125.518 82.9683 119.921C106.968 111.927 130.808 103.772 154.808 95.6173C156.408 95.1376 157.688 93.8584 158.008 91.9397C158.328 89.2215 158.808 86.6632 159.128 83.9449C160.568 73.5518 161.848 63.1586 163.128 52.9254C164.408 43.1718 165.848 33.4182 166.648 23.5047C166.968 20.4667 165.528 19.5074 162.808 20.4667C162.328 20.4667 162.008 20.7865 161.528 20.7865C127.608 30.2203 93.8483 39.6541 59.9283 49.0879C51.4483 51.4863 42.9683 53.8847 34.4883 56.2832C32.8883 56.7628 32.0883 57.5623 31.7683 59.3212C30.8083 66.6763 30.3283 74.0315 29.6883 81.3866C28.8883 90.0209 28.2483 98.4954 27.6083 107.13C26.8083 117.043 26.0083 126.957 25.2083 137.03V137.19Z" fill="#0BBAED"/>
<path d="M165.209 106.33C165.209 104.571 166.008 103.132 166.488 101.373C167.768 96.4164 167.928 91.2998 168.728 86.343C169.848 78.1884 171.128 70.0338 171.928 61.7193C172.408 56.2828 172.889 50.8464 173.369 45.41C173.849 40.6131 174.169 35.8163 174.649 31.1794C174.969 27.182 174.969 23.3445 174.649 19.3471C174.489 17.4284 173.528 16.3091 171.928 15.3498C167.128 12.4717 162.168 12.7914 156.888 13.9107C137.048 18.2279 117.689 24.4638 98.0085 29.7403C77.8485 35.1767 58.0085 41.8923 38.0085 47.8084C30.9685 49.887 24.8885 53.0849 21.8485 60.2802C20.7285 63.1583 19.7685 66.0364 19.1285 69.0744C17.8485 74.9905 17.3685 80.9066 16.8885 86.8227C15.4485 102.173 15.1285 117.523 14.6485 132.872C14.6485 137.829 14.6485 142.786 14.9685 147.743C15.1285 150.141 16.2485 151.74 18.6485 152.38C19.9285 152.699 21.3685 153.019 22.6485 153.499C20.2485 154.298 18.0085 154.298 15.6085 153.499C13.2085 152.699 11.9285 150.941 11.7685 148.542C11.6085 145.504 11.4485 142.306 11.6085 139.108C12.0885 130.154 12.2485 121.2 12.5685 112.406C12.8885 103.452 13.5285 94.6576 14.3285 85.7035C15.1285 78.1884 15.9285 70.5135 17.5285 63.1583C18.0085 61.2396 18.4885 59.1609 19.1285 57.2422C20.7285 52.4454 23.9285 49.2475 28.7285 47.6485C36.7285 45.0902 44.8885 42.6918 52.8885 40.1335C63.2885 36.7757 73.5285 32.9382 84.0885 29.9002C100.408 25.2632 116.249 19.3471 132.569 14.8701C141.849 12.3118 151.128 10.393 160.728 9.11387C163.288 8.79408 166.008 8.47429 168.728 8.79408C174.648 9.43366 176.729 12.6316 177.369 17.9081C178.329 24.7836 177.369 31.4991 177.049 38.3746C176.729 43.1715 176.569 47.9683 176.249 52.6052C175.609 60.6 174.649 68.5947 173.049 76.5895C171.929 82.1858 171.608 87.7821 170.488 93.3784C169.848 96.4164 169.369 99.2945 168.249 102.173C167.609 103.772 166.968 105.211 165.528 106.17L165.209 106.33Z" fill="#FEFEFE"/>
<path d="M25.2085 137.19C26.0085 127.116 26.8085 117.203 27.6085 107.289C28.2485 98.655 28.8885 90.1806 29.6885 81.5463C30.3285 74.1911 30.8085 66.8359 31.7685 59.4808C31.9285 57.562 32.8885 56.7626 34.4885 56.4428C42.9685 54.0444 51.4485 51.486 59.9285 49.2475C93.8485 39.8137 127.608 30.3799 161.528 20.9462C162.008 20.9462 162.328 20.6263 162.808 20.6263C165.528 19.667 166.968 20.6264 166.648 23.6644C165.848 33.5778 164.408 43.3314 163.128 53.085C161.848 63.4781 160.408 73.8713 159.128 84.1046C158.808 86.8228 158.328 89.3811 158.008 92.0993C157.848 94.178 156.568 95.2972 154.808 95.7769C130.968 103.932 106.969 111.926 82.9685 120.081C66.4885 125.677 50.0085 131.114 33.6885 136.71C30.9685 137.669 28.2485 137.829 25.2085 137.35V137.19ZM137.048 30.5398C134.968 30.5398 133.529 31.4992 133.369 33.7377C132.089 36.7757 130.808 39.8137 129.528 42.8517C126.328 50.2069 122.488 57.2423 118.328 64.1177C118.008 64.5974 117.848 65.5568 116.728 65.5568C116.728 64.9172 116.728 64.2776 116.888 63.638C117.048 62.199 118.328 61.5594 118.808 60.2802C120.248 57.0824 121.688 53.7246 123.128 50.5267C125.848 44.2908 128.568 38.2148 131.928 32.1388C131.288 32.1388 130.808 32.1388 130.328 32.2987C108.248 38.5346 86.1685 44.6106 64.0885 50.8465C63.2885 51.1663 62.6485 51.3261 62.3285 52.2855C60.8885 57.2422 58.4885 61.8792 56.2485 66.676C55.6085 66.676 55.4485 67.6354 54.4885 67.1557C54.1685 66.1964 54.4885 65.3969 54.9685 64.4375C56.4085 61.0797 57.8485 57.7219 59.1285 54.2042C59.7685 53.5647 60.0885 52.9251 60.2485 52.1256C57.0485 52.1256 55.7685 52.9251 54.8085 55.1636C54.6485 55.4834 54.4885 55.6433 54.3285 55.9631C48.7285 67.1557 43.6085 78.6682 38.3285 90.0207C38.0085 90.8202 37.8485 91.7795 36.7285 91.9394C36.0885 91.1399 36.7285 90.3405 36.7285 89.7009C38.8085 83.9447 41.2085 78.5083 43.6085 72.912C46.1685 67.3156 48.8885 61.7193 51.4485 56.123C52.0885 55.4834 52.5685 54.8438 52.7285 53.8845C46.1685 55.6433 39.9285 57.4021 33.5285 59.0011C31.9285 84.4244 29.3685 109.688 27.4485 134.951C29.5285 134.951 30.6485 133.352 32.2485 133.032C34.9685 132.393 37.6885 131.433 40.4085 130.794C42.9685 130.314 43.9285 128.715 44.0885 126.317C44.0885 126.317 44.2485 126.157 44.4085 125.997C46.8085 120.88 49.0485 115.764 51.4485 110.487C51.7685 110.008 51.7685 108.888 52.7285 109.208C53.6885 109.528 53.0485 110.487 52.7285 110.967C51.2885 115.604 49.3685 120.081 47.4485 124.558C46.9685 125.837 46.3285 126.956 45.8485 128.395C49.4752 127.543 51.8218 125.73 52.8885 122.959C53.8485 121.04 54.9685 118.962 55.9285 117.043C56.0885 116.563 56.4085 116.084 57.0485 116.403C57.6885 116.723 57.5285 117.203 57.3685 117.682C57.0485 118.962 56.2485 120.241 56.0885 121.68C55.1285 122.799 54.8085 124.238 54.0085 125.837C54.4885 125.677 54.8085 125.677 54.9685 125.517C74.3285 118.962 93.6885 112.406 113.048 106.01C115.608 105.211 117.369 103.932 118.169 101.213C120.249 97.216 122.328 93.0587 124.248 89.0613C124.408 88.5816 124.728 88.1019 125.048 87.7821C125.208 87.4624 125.528 87.1426 126.008 87.3025C126.488 87.4624 126.648 87.9421 126.488 88.4217C126.488 88.9014 126.168 89.3811 126.008 89.8608C124.888 93.0587 123.608 96.2566 122.488 99.4545C121.528 100.574 120.889 101.853 120.569 103.132C120.569 103.132 120.568 103.132 120.408 103.292C120.408 103.292 120.409 103.292 120.569 103.292C120.729 103.292 120.729 103.132 120.569 102.972C123.929 102.333 127.288 102.013 128.088 97.6956C131.128 91.2999 134.008 84.904 137.048 78.6682C138.488 75.79 139.769 72.752 141.369 69.8739C141.689 69.0745 142.329 67.9552 142.969 69.8739C141.049 74.5109 139.128 79.3077 137.048 83.7848C134.648 89.2212 132.248 94.6576 129.528 99.7743C129.528 99.7743 129.528 100.094 129.528 100.254C129.688 99.7743 129.529 99.7743 129.369 99.7743C132.089 100.254 134.328 98.8149 135.608 95.617C137.048 92.7389 138.648 89.8608 140.088 86.9827C140.568 86.0233 141.368 85.2238 142.008 86.9827C140.728 90.5004 139.288 93.8582 137.208 97.216C137.848 97.216 138.168 97.216 138.488 97.216C143.288 95.617 148.248 93.8582 153.048 92.2592C153.688 92.0993 153.848 91.6196 154.008 90.98C155.128 81.7061 156.248 72.4323 157.528 63.1584C158.808 52.7652 160.248 42.5319 161.688 32.1388C162.168 29.1008 162.649 26.0628 162.969 22.8649C162.169 23.0248 161.528 23.1847 160.888 23.3446C154.488 25.1034 148.088 26.8622 141.688 28.6211C139.768 29.1008 138.328 29.9003 138.008 31.9789C135.608 38.0549 133.368 44.1309 129.688 49.5673C129.048 47.6486 129.688 46.0496 130.328 44.4507C131.928 40.6132 133.529 36.9356 134.969 33.258C135.769 32.4586 136.248 31.6591 136.408 30.5398C136.568 30.5398 136.729 30.5398 136.569 30.22H136.248L137.048 30.5398Z" fill="#030303"/>
<path d="M135.768 33.4182C134.168 37.0958 132.568 40.9333 131.128 44.6108C130.488 46.2098 129.848 47.8088 130.488 49.7275C134.168 44.2911 136.408 38.2151 138.808 32.1391C143.768 31.1797 148.728 29.9005 153.688 28.4615C155.768 27.8219 158.008 27.0224 160.408 26.7026C159.608 32.4588 158.968 37.8953 158.168 43.3317C156.728 53.4051 155.448 63.3185 154.168 73.3919C153.528 78.8283 152.568 84.2648 151.928 89.8611C151.928 90.5006 151.608 90.9803 150.968 91.1402C148.408 92.0996 145.688 92.8991 142.808 94.0183C143.608 90.6606 145.208 87.9423 145.368 84.5845C143.608 85.2241 143.608 86.6632 142.808 87.3028C142.168 85.5439 141.368 86.3434 140.888 87.3028C139.288 90.1809 137.848 93.059 136.408 95.9371C135.928 95.9371 135.288 96.097 134.808 96.2569C134.808 96.2569 134.648 95.9371 134.488 95.7772C134.968 94.498 135.448 93.2189 135.928 91.9397C138.488 85.384 141.208 78.6684 143.768 72.1128C144.088 71.4732 144.888 70.5138 143.448 70.0341C142.808 68.2753 142.168 69.3945 141.848 70.0341C140.408 72.9122 138.968 75.7903 137.528 78.8283C134.488 85.2241 131.608 91.46 128.568 97.8558C126.648 98.3355 124.888 98.8152 122.968 99.2949C124.088 96.097 125.368 92.8991 126.488 89.7012C126.648 89.2215 126.808 88.7418 126.968 88.2621C126.968 87.7824 126.968 87.3028 126.488 87.1429C126.008 86.983 125.688 87.1429 125.528 87.6226C125.208 88.1022 125.048 88.422 124.728 88.9017C122.648 92.8991 120.568 97.0563 118.648 101.054C118.328 101.054 118.168 101.054 117.848 101.054C105.528 105.211 93.2083 109.368 80.8883 113.366C72.7283 116.084 64.5683 118.642 56.4083 121.36C56.4083 119.921 57.3683 118.802 57.6883 117.363C57.6883 116.883 58.0083 116.404 57.3683 116.084C56.7283 115.764 56.4083 116.404 56.2483 116.723C55.2883 118.642 54.1683 120.721 53.2083 122.64C51.4483 123.119 49.6883 123.759 47.9283 124.238C49.8483 119.761 51.7683 115.284 53.2083 110.647C53.3683 110.008 54.0083 109.208 53.2083 108.889C52.2483 108.569 52.0883 109.528 51.9283 110.168C49.5283 115.284 47.2883 120.401 44.8883 125.678C44.7283 125.678 44.5683 125.677 44.5683 125.997C43.9283 125.837 43.2883 125.997 42.8083 126.317C39.1283 127.596 35.4483 128.875 31.7683 130.155C32.8883 106.65 35.2883 83.3054 36.4083 59.9608C41.6883 58.5217 46.8083 57.2425 52.0883 55.8035C49.5283 61.3998 46.8083 66.9961 44.2483 72.5924C41.6883 78.0289 39.4483 83.6252 37.3683 89.3814C37.0483 90.021 36.5683 90.8204 37.3683 91.6199C38.4883 91.46 38.6483 90.5007 38.9683 89.7012C44.2483 78.3487 49.3683 66.8362 54.9683 55.6436C54.9683 55.3238 55.2883 55.1639 55.4483 54.8441C56.8883 54.5243 58.3283 54.2045 59.7683 53.8847C58.3283 57.2425 56.8883 60.6003 55.6083 64.118C55.2883 65.0774 54.8083 65.8769 55.1283 66.8362C56.0883 67.156 56.2483 66.3565 56.8883 66.3565C56.7283 68.2753 55.7683 70.0341 56.2483 72.1128C57.3683 72.1128 57.5283 71.3133 57.8483 70.8336C60.8883 65.3972 63.2883 59.8009 65.2083 53.8847C65.5283 52.6056 66.1683 52.1259 67.2883 51.8061C71.7683 50.3671 76.2483 49.2478 80.7283 48.1285C94.1683 44.6109 107.608 41.5728 120.728 37.4156C123.128 36.6161 125.688 35.8166 128.408 35.0172C126.648 38.8546 125.208 42.2124 123.608 45.5702C121.208 51.0066 118.488 56.1233 116.888 61.8795C116.888 62.5191 115.928 63.3185 117.368 63.4784C117.368 64.118 117.368 64.7576 117.208 65.3972C118.328 65.3972 118.488 64.5977 118.808 63.9581C122.968 57.0826 126.808 50.0473 130.008 42.6921C131.288 39.6541 132.568 36.6161 133.848 33.5781C134.648 33.5781 135.448 32.9385 136.248 33.2583L135.768 33.4182Z" fill="#174075"/>
<path d="M142.648 87.4623C143.448 86.6628 143.448 85.2237 145.208 84.7441C145.208 88.1018 143.608 90.82 142.648 94.1778C145.528 93.2185 148.248 92.2591 150.808 91.2997C151.448 91.1399 151.608 90.6602 151.768 90.0206C152.568 84.5842 153.368 79.1477 154.008 73.5514C155.288 63.4781 156.568 53.5646 158.008 43.4912C158.808 38.0548 159.448 32.4585 160.248 26.8622C157.848 27.1819 155.768 27.9814 153.528 28.621C148.568 30.06 143.768 31.3392 138.648 32.2986C138.968 30.2199 140.408 29.4205 142.328 28.9408C148.728 27.3418 155.128 25.4231 161.528 23.6643C162.168 23.5044 162.808 23.3445 163.608 23.1846C163.128 26.3825 162.648 29.4205 162.328 32.4585C160.888 42.8516 159.608 53.0849 158.168 63.478C157.048 72.7519 155.768 82.0259 154.648 91.2997C154.648 91.9393 154.328 92.419 153.688 92.5789C148.888 94.1778 143.928 95.9367 139.128 97.5356C138.808 97.5356 138.328 97.5356 137.848 97.5356C139.928 94.1778 141.208 90.8201 142.648 87.3024V87.4623Z" fill="#FEFEFE"/>
<path d="M51.9283 56.283C46.8083 57.722 41.5283 59.0012 36.2483 60.4402C35.2883 83.7849 32.7283 107.13 31.6083 130.634C35.2883 129.355 38.9683 128.076 42.6483 126.797C43.2883 126.637 43.7683 126.317 44.4083 126.477C44.2483 128.875 43.2883 130.314 40.7283 130.954C38.0083 131.593 35.4483 132.553 32.5683 133.192C30.9683 133.512 29.8483 135.111 27.7683 135.111C29.5283 109.848 32.2483 84.5843 33.8483 59.1611C40.0883 57.4022 46.4883 55.8033 53.0483 54.0444C52.8883 55.1637 52.4083 55.8033 51.7683 56.283H51.9283Z" fill="#FEFEFE"/>
<path d="M116.888 63.6382C115.448 63.6382 116.248 62.6788 116.408 62.0392C118.008 56.283 120.728 51.0065 123.128 45.73C124.728 42.3722 126.168 39.0144 127.928 35.1769C125.048 36.1363 122.648 36.7758 120.248 37.5753C107.128 41.8925 93.5284 44.9305 80.2484 48.2883C75.7684 49.4075 71.1284 50.5268 66.8084 51.9658C65.6884 52.2856 65.0484 52.9252 64.7284 54.0445C62.8084 59.9606 60.4084 65.5569 57.3684 70.9933C57.0484 71.473 56.8884 72.4324 55.7684 72.2725C55.2884 70.1938 56.2484 68.435 56.4084 66.5163C58.6484 61.8793 61.0484 57.2424 62.4884 52.1258C62.8084 51.1664 63.2884 50.8466 64.2484 50.6867C86.3284 44.4508 108.408 38.3748 130.488 32.1389C130.968 32.1389 131.288 32.1389 132.088 31.979C128.728 38.055 126.008 44.2909 123.288 50.3669C121.848 53.5648 120.248 56.7627 118.968 60.1205C118.488 61.3997 117.208 62.0392 117.048 63.4783L116.888 63.6382Z" fill="#FEFEFE"/>
<path d="M56.5685 121.999C64.7285 119.281 72.8884 116.723 81.0484 114.005C93.3684 109.847 105.688 105.69 118.008 101.693C118.168 101.693 118.488 101.693 118.808 101.693C118.168 104.251 116.408 105.53 113.688 106.49C94.3284 112.886 74.9684 119.601 55.6084 125.997C55.4484 125.997 55.1284 125.997 54.6484 126.317C55.2884 124.718 55.6084 123.279 56.7284 122.159L56.5685 121.999Z" fill="#FEFEFE"/>
<path d="M143.288 70.1938C144.728 70.6735 143.768 71.6329 143.608 72.2725C141.048 78.8282 138.328 85.5438 135.768 92.0994C135.288 93.3786 134.808 94.6578 134.328 95.9369C134.328 95.9369 134.328 96.2567 134.328 96.4166C134.328 96.4166 134.648 96.4166 134.808 96.4166C135.288 96.4166 135.928 96.2567 136.408 96.0968C134.968 99.2947 132.888 100.734 130.168 100.254C132.888 94.9775 135.448 89.5411 137.848 84.2646C139.928 79.6276 141.688 74.9907 143.768 70.3538L143.288 70.1938Z" fill="#FEFEFE"/>
<path d="M122.968 99.7745C124.888 99.2948 126.648 98.8151 128.568 98.3354C127.768 102.493 124.408 102.972 121.048 103.612C121.368 102.333 122.008 101.054 122.968 99.9344V99.7745Z" fill="#FEFEFE"/>
<path d="M48.0884 124.878C49.8484 124.398 51.6084 123.758 53.3684 123.279C52.3017 126.05 49.955 127.862 46.3284 128.715C46.9684 127.276 47.4484 126.157 47.9284 124.878H48.0884Z" fill="#FEFEFE"/>
<path d="M59.1283 54.3643C57.6883 54.6841 56.2483 55.0039 54.8083 55.3237C55.6083 53.0851 57.0483 52.2856 60.2483 52.2856C60.2483 53.0851 59.7683 53.7247 59.1283 54.3643Z" fill="#FEFEFE"/>
<path d="M135.768 33.4181C134.968 33.2582 134.168 33.7379 133.368 33.7379C133.528 31.4994 134.968 30.6999 137.048 30.54C137.048 30.54 137.048 30.54 137.208 30.54C136.888 31.4994 136.408 32.4588 135.768 33.2582V33.4181Z" fill="#FEFEFE"/>
<path d="M137.048 30.54H137.368C137.368 30.6999 137.368 30.8598 137.208 30.8598C137.208 30.8598 137.208 30.8598 137.048 30.8598V30.54Z" fill="#FEFEFE"/>
<path d="M129.848 100.254C130.008 100.254 130.168 100.254 130.008 100.734C130.008 100.734 130.008 100.414 130.008 100.254H129.848Z" fill="#FEFEFE"/>
<path d="M121.048 103.452C121.048 103.452 121.048 103.612 121.048 103.772C121.048 103.772 121.048 103.772 120.888 103.772C120.888 103.772 120.888 103.772 121.048 103.612V103.452Z" fill="#FEFEFE"/>
<path d="M44.5684 126.477C44.5684 126.157 44.5683 126.157 44.8883 126.157C44.8883 126.157 44.7284 126.317 44.5684 126.477Z" fill="#FEFEFE"/>
<path d="M134.648 96.4167C134.648 96.4167 134.328 96.4167 134.168 96.4167C134.168 96.4167 134.168 96.0969 134.168 95.937C134.168 95.937 134.328 96.2568 134.488 96.4167H134.648Z" fill="#174075"/>
</svg>
