<svg width="105" height="96" viewBox="0 0 105 96" fill="none" xmlns="http://www.w3.org/2000/svg">
<path d="M90.6675 95.5648C84.5875 95.4048 77.3875 93.8044 70.1875 92.6841C54.0275 89.9634 37.8676 87.2427 21.7076 84.3619C15.7876 83.4017 9.70749 82.6015 4.74749 78.4404C0.747491 75.0796 -1.01247 70.7585 0.58753 65.6372C1.86753 61.4761 4.42753 58.1152 6.98753 54.9144C16.2675 43.0714 26.8275 32.3486 36.4275 20.8257C41.0675 15.3843 45.7075 10.1029 50.6675 4.98164C56.2675 -0.779835 62.3475 -1.41998 69.3875 2.421C70.8275 3.2212 71.4676 4.66157 72.1076 5.94189C75.9476 13.4638 79.6275 21.1458 82.9875 28.9878C89.2275 43.7115 95.1476 58.5953 100.908 73.4792C102.348 77.1601 103.627 81.0011 104.427 84.8421C105.227 89.0031 103.788 92.0439 100.108 93.9644C97.7076 95.2447 95.6275 95.5648 90.3475 95.5648H90.6675ZM92.1076 93.9644C93.0676 93.9644 94.1876 93.8044 95.3076 93.6443C101.868 93.0042 104.427 89.4832 102.827 83.0816C101.067 76.1999 98.3475 69.6382 95.7875 62.9164C88.5875 44.5117 81.2275 26.107 72.5875 8.18246C70.3475 3.54127 66.6675 2.10092 62.0275 1.62079C57.8675 1.30071 54.6675 3.38122 51.9475 6.10192C45.0675 12.9837 38.8275 20.6657 32.4275 28.0275C24.1075 37.63 15.4675 47.0724 7.62747 56.9949C5.54747 59.7156 3.62755 62.5964 2.50755 65.9572C1.38755 69.1581 1.70749 72.5189 3.94749 74.9195C6.98749 78.1203 10.5075 80.681 14.9875 81.4812C22.6675 82.9216 30.5075 84.0418 38.1875 85.3222C50.0275 87.2427 61.8675 89.3232 73.8675 91.4037C79.9475 92.364 85.8675 93.4843 92.2675 93.8043L92.1076 93.9644Z" fill="#141111"/>
<path d="M92.1073 93.9644C85.7073 93.6444 79.6273 92.5241 73.7073 91.5638C61.8673 89.4833 50.0272 87.5628 38.0272 85.4823C30.3472 84.2019 22.5072 83.0817 14.8272 81.6413C10.3472 80.8411 6.82729 78.2804 3.78729 75.0796C1.54729 72.519 1.22725 69.3181 2.34725 66.1173C3.46725 62.7565 5.38727 59.8757 7.46727 57.155C15.3073 47.0725 23.9473 37.7901 32.2673 28.1876C38.6673 20.8257 44.9073 13.3038 51.7873 6.26202C54.5073 3.38128 57.7073 1.46079 61.8673 1.78087C66.5073 2.10095 70.0272 3.54133 72.4272 8.34256C81.0672 26.2671 88.4272 44.5118 95.6272 63.0765C98.1872 69.6382 100.907 76.3599 102.667 83.2417C104.267 89.4833 101.867 93.0042 95.1473 93.8044C94.0273 93.8044 92.9073 93.9644 91.9473 94.1245L92.1073 93.9644ZM88.4272 88.523C89.0672 88.523 90.1873 88.363 91.3073 88.0429C94.0273 87.4028 95.9473 85.1622 95.9473 82.6015C95.9473 80.521 95.7873 78.6005 95.1473 76.52C93.0673 69.9583 90.8273 63.2366 88.2673 56.835C82.3473 42.2712 76.9073 27.7075 70.6673 13.3038C69.7073 11.0632 68.4273 9.30279 66.3473 8.18251C62.3473 6.26202 58.9873 7.70239 55.7873 10.263C53.7073 11.8635 52.2673 14.104 50.6673 16.1846C40.4273 28.0276 30.1873 39.8706 19.9473 51.7136C16.5873 55.5546 13.2272 59.3956 10.8272 64.0368C7.46723 70.2784 10.1873 75.7198 17.0673 77.1601C22.3473 78.1204 27.6273 78.9206 32.9073 79.8808C46.5073 82.1214 60.1073 84.362 73.7073 86.6026C78.6673 87.4028 83.4673 88.363 88.9073 88.6831L88.4272 88.523Z" fill="#FAFAFA"/>
<path d="M88.4272 88.5229C82.9872 88.2028 78.1872 87.2426 73.2272 86.4424C59.6272 84.2018 46.0272 81.9612 32.4272 79.7206C27.1472 78.9204 21.8672 77.9602 16.5872 77C9.70721 75.7196 6.98717 70.2782 10.3472 63.8766C12.7472 59.3955 16.1072 55.5545 19.4672 51.5535C29.7072 39.7104 39.9472 27.8674 50.1872 16.0244C51.9472 14.1039 53.2272 11.8633 55.3072 10.1028C58.5072 7.54219 61.8672 6.10184 65.8672 8.02233C68.1072 9.14262 69.2272 10.9031 70.1872 13.1436C76.4272 27.5473 81.8672 42.111 87.7872 56.6748C90.3472 63.0764 92.5872 69.6381 94.6672 76.3598C95.3072 78.2803 95.4672 80.3608 95.4672 82.4414C95.4672 85.002 93.5472 87.2426 90.8272 87.8827C89.7072 88.2028 88.7472 88.2028 87.9472 88.3629L88.4272 88.5229ZM16.5872 75.2395C16.7472 75.7196 17.2272 75.5596 17.5472 75.5596C17.8672 75.5596 18.1872 75.8797 18.3472 75.8797C22.5072 76.5198 26.8272 77.16 30.9872 77.8002C45.0672 80.0407 59.3072 82.2813 73.3872 84.5219C77.7072 85.162 82.0272 86.2823 86.3472 86.2823C87.6272 86.6024 88.9072 86.4424 90.1872 86.2823C91.9472 85.9622 93.3872 85.002 93.7072 83.0815C93.8672 81.4811 93.7072 79.7206 93.3872 78.1202C89.3872 65.637 84.5872 53.634 79.7872 41.4709C77.8672 36.5096 75.7872 31.5483 73.7072 26.427C72.5872 22.1059 70.5072 18.1049 68.7472 14.1039C67.3072 10.583 64.7472 8.98257 61.3872 9.46269C59.6272 9.78278 58.1872 10.583 56.9072 11.7033C54.5072 13.9438 51.9472 16.1844 49.8672 18.7451C40.2672 30.7481 30.3472 42.2711 20.4272 53.794C17.7072 56.9948 14.9872 60.1957 12.4272 63.5565C8.90715 68.3578 11.1472 74.1192 16.5872 74.9194V75.2395Z" fill="#12100D"/>
<path d="M86.5076 86.2825C82.0276 86.2825 77.8676 85.3222 73.5476 84.522C59.3076 82.2815 45.2276 80.0409 31.1476 77.8003C26.9876 77.1601 22.6676 76.52 18.5076 75.8798C18.1876 75.8798 17.8676 75.7198 17.7076 75.5597C17.3876 75.2397 17.2276 74.7595 16.7476 75.2397C17.0676 74.4395 16.2676 74.1194 15.7876 73.6393C12.9076 70.2784 12.7475 67.7177 15.6275 64.1968C16.1075 63.5567 16.5876 63.0766 17.0676 62.4364C27.9476 49.9532 38.5076 37.31 48.7476 24.3467C51.9476 20.1856 55.4675 16.1846 59.6275 12.9837C62.3475 10.9032 63.9476 10.9032 66.6676 12.9837C67.3076 13.4639 67.9476 13.944 68.9076 13.944C70.6676 18.1051 72.7476 21.946 73.8676 26.2671C72.9076 26.9073 73.2276 27.8676 73.3876 28.6678C74.6676 34.1091 76.2676 39.3905 78.6676 44.3518C83.7876 55.3946 87.1476 67.0776 90.9876 78.6005C92.2676 82.2815 91.4676 83.5618 87.9476 85.1622C87.4676 85.3222 86.9876 85.6423 86.6676 85.9624L86.5076 86.2825ZM50.0275 56.5149C50.0275 57.155 50.0275 57.9552 50.0275 58.5954C50.0275 60.6759 51.6276 61.7962 54.5076 62.5964C56.4276 63.0765 57.3876 61.9563 58.1876 60.5159C58.8276 59.2356 59.4676 57.9552 59.9476 56.6749C63.4676 46.7524 65.5476 36.5098 67.3076 26.2671C67.6276 24.6667 66.8276 23.5464 65.5476 22.7462C63.3076 21.3059 60.9076 20.5057 58.3476 20.1856C56.4276 19.8655 54.3475 21.4659 54.0275 23.3864C51.7875 34.2692 50.9876 45.312 50.1876 56.3548L50.0275 56.5149ZM52.1076 75.5597C54.5076 75.5597 56.4275 73.6393 56.4275 71.5587C56.4275 68.9981 53.8676 66.5975 51.4676 66.7575C49.3876 66.7575 47.7876 68.678 47.7876 70.9185C47.7876 73.4792 49.8676 75.7198 52.1076 75.7198V75.5597Z" fill="#FCEB02"/>
<path d="M68.7477 14.264C67.9477 14.264 67.1477 13.7838 66.5077 13.3037C63.7877 11.2232 62.1877 11.2232 59.4677 13.3037C55.3077 16.5045 51.9477 20.5055 48.5877 24.6666C38.3477 37.6299 27.7877 50.2732 16.9077 62.7564C16.4277 63.3965 15.9477 63.8766 15.4677 64.5168C12.7477 68.0377 12.7477 70.4383 15.6277 73.9592C15.9477 74.4393 16.9077 74.5994 16.5877 75.5596C10.9877 74.7594 8.90767 68.9979 12.4277 64.1967C14.9877 60.8359 17.5477 57.6351 20.4277 54.4342C30.3477 42.9113 40.2677 31.2283 49.8677 19.3853C51.9477 16.8246 54.5077 14.584 56.9077 12.3435C58.1877 11.2232 59.6277 10.2629 61.3877 10.1029C64.7477 9.62275 67.3077 11.2232 68.7477 14.7441V14.264Z" fill="#FAFAFA"/>
<path d="M86.5072 86.2827C86.9872 85.9626 87.3072 85.8025 87.7872 85.4825C91.3072 83.722 92.1071 82.6017 90.8271 78.9208C86.9871 67.3978 83.6272 55.7149 78.5072 44.672C76.1072 39.7108 74.5071 34.4294 73.2271 28.988C73.0671 28.1878 72.7472 27.2276 73.7072 26.5874C75.7872 31.5487 77.8672 36.51 79.7872 41.6313C84.5872 53.7944 89.5472 65.7974 93.3872 78.2806C93.8672 79.881 94.0272 81.4815 93.7072 83.2419C93.3872 85.3224 91.9472 86.1226 90.1872 86.4427C88.9072 86.6028 87.6271 86.7628 86.3471 86.4427L86.5072 86.2827Z" fill="#F5F5F1"/>
<path d="M16.5879 75.2397C17.0679 74.7596 17.2279 75.2397 17.5479 75.5598C17.2279 75.5598 16.7479 75.5598 16.5879 75.2397Z" fill="#FAFAFA"/>
<path d="M50.0271 56.5149C50.9871 45.4721 51.6272 34.4292 53.8672 23.5465C54.3472 21.626 56.2672 20.1856 58.1872 20.3456C60.7472 20.6657 63.1472 21.4659 65.3872 22.9063C66.6672 23.7065 67.4672 24.8268 67.1472 26.4272C65.5472 36.8299 63.3072 46.9124 59.7872 56.835C59.3072 58.1153 58.6671 59.3956 58.0271 60.676C57.2271 62.1163 56.2672 63.2366 54.3472 62.7565C51.4672 61.9563 50.0272 60.676 49.8672 58.7555C49.8672 58.1153 49.8672 57.3151 49.8672 56.6749L50.0271 56.5149ZM65.2271 25.3069C63.6271 23.3864 61.2272 23.0663 58.9872 22.4262C56.5872 21.786 55.7872 22.4262 55.4672 24.8268C54.8272 29.628 54.1872 34.4293 53.7072 39.2305C53.0672 45.312 52.7472 51.2335 52.2672 57.3151C52.2672 58.2753 51.9472 59.3956 53.3872 59.7157C55.6272 61.1561 55.9472 60.996 57.0672 58.7555C57.5472 57.7952 58.0272 56.6749 58.5072 55.5546C61.2272 48.5128 62.8272 41.151 64.2672 33.7891C64.7472 30.9083 65.8671 28.1876 65.2271 25.1469V25.3069Z" fill="#12100D"/>
<path d="M52.1071 75.5595C49.8671 75.5595 47.9471 73.3189 47.7871 70.7582C47.7871 68.5177 49.2271 66.7572 51.4671 66.5972C53.8671 66.5972 56.4271 68.8377 56.4271 71.3984C56.4271 73.4789 54.5071 75.3994 52.1071 75.3994V75.5595ZM51.4671 74.2791C53.0671 74.5992 54.5071 73.959 54.9871 72.5187C55.4671 70.9183 54.9871 69.4779 53.2271 68.6777C52.2671 67.8775 51.1471 67.8775 50.1871 68.6777C49.2271 69.4779 49.2271 70.5982 49.3871 71.5584C49.7071 72.8388 50.3471 73.9591 51.6271 74.2791H51.4671Z" fill="#141111"/>
<path d="M65.2276 25.3067C65.8676 28.3475 64.7477 31.0682 64.2677 33.949C62.8277 41.3109 61.2277 48.6727 58.5077 55.7145C58.0277 56.8348 57.5477 57.7951 57.0677 58.9153C55.9477 61.1559 55.6277 61.316 53.3877 59.8756C53.8677 53.9541 54.3477 48.0326 55.1477 42.2711C55.7877 37.1498 56.2677 32.0285 57.5477 27.0672C58.1877 24.6666 58.6677 24.5066 61.0677 24.8266C62.5077 25.1467 63.9477 25.6268 65.3877 25.4668L65.2276 25.3067Z" fill="#E9636B"/>
<path d="M65.2274 25.3069C63.7874 25.4669 62.3475 24.9868 60.9075 24.6667C58.5075 24.1866 58.0274 24.5067 57.3874 26.9073C56.1074 31.8686 55.6274 36.9899 54.9874 42.1112C54.3474 48.0327 53.8674 53.9542 53.2274 59.7157C51.7874 59.3956 52.1075 58.2753 52.1075 57.3151C52.5875 51.2335 52.9074 45.152 53.5474 39.2305C54.0274 34.4292 54.6675 29.628 55.3075 24.8268C55.6275 22.4262 56.4274 21.786 58.8274 22.4262C61.0674 22.9063 63.4674 23.3864 65.0674 25.3069H65.2274Z" fill="#F5F5F1"/>
<path d="M53.2279 68.5179C54.8279 69.3181 55.6279 70.7585 54.9879 72.3589C54.5079 73.7993 53.2279 74.5995 51.4679 74.1194C50.8279 71.8788 51.4679 69.9583 53.0679 68.3579L53.2279 68.5179Z" fill="#E9636B"/>
<path d="M53.2279 68.5177C51.4679 70.1181 50.9879 72.0386 51.6279 74.2792C50.3479 73.7991 49.7079 72.8389 49.3879 71.5585C49.2279 70.4382 49.2279 69.318 50.1879 68.6778C51.1479 67.8776 52.2679 67.8776 53.2279 68.6778V68.5177Z" fill="#F5F5F1"/>
</svg>
