<svg width="109" height="407" viewBox="0 0 109 407" fill="none" xmlns="http://www.w3.org/2000/svg">
<path d="M57.6006 0.41608C60.1606 0.41608 62.7207 0.895774 65.1207 1.37546C83.8407 5.05304 98.7207 18.1644 105.121 36.0726C110.881 52.5418 108.321 69.6505 98.2407 83.8812C93.9207 89.9572 88.4807 95.2337 82.0807 98.9113C78.2407 101.15 74.0807 102.749 69.7607 104.028C65.4407 105.307 65.2806 105.147 63.2006 105.627C61.1206 106.107 58.2407 105.787 58.2407 107.865C58.4007 137.286 58.5607 166.707 58.7207 195.967C59.0407 254.009 59.3607 312.051 59.8407 370.093C59.8407 370.732 59.8407 371.532 59.8407 372.491C60.8007 371.852 61.6007 371.052 62.8807 371.532C63.3607 371.852 63.6806 371.212 64.0006 370.892C64.8006 370.253 65.4407 369.453 66.2407 368.814C68.3207 367.375 69.4407 367.534 70.8807 369.453C71.8407 368.494 72.8007 367.694 74.0807 367.055C76.3207 366.095 77.6007 367.055 77.4407 369.453C77.4407 370.253 77.1207 370.892 76.9607 371.692C76.8007 372.491 76.4807 373.131 76.3207 374.09C80.6407 373.291 84.6407 373.93 88.4807 375.369C90.2407 376.009 91.8407 377.128 93.2807 378.407C96.8007 381.605 97.6007 385.123 95.6807 389.44C93.6007 394.237 89.7607 397.435 85.4407 399.833C79.2007 403.511 72.3207 404.95 65.2807 405.749C56.0007 406.869 46.5607 407.508 37.2807 406.069C32.4807 405.27 27.8407 404.15 23.3607 402.232C20.1607 400.793 17.6007 398.554 15.8407 395.356C13.9207 391.359 14.2407 387.841 17.1207 384.483C19.5207 381.605 22.7207 380.006 26.2407 379.047C27.2007 378.727 27.5207 378.567 27.0407 377.608C26.0807 375.209 26.8807 373.77 29.4407 373.451C29.7607 373.451 30.2407 373.451 30.5607 373.451C32.6407 373.93 34.2407 374.41 35.5207 371.692C36.3207 369.933 38.7207 370.413 40.3207 371.212C41.2807 371.692 41.7607 371.852 42.0807 370.413C42.4007 368.494 44.0006 368.014 45.6006 369.133C46.2406 369.613 46.8807 370.253 47.8407 371.052C47.8407 369.933 47.8407 369.133 47.8407 368.334C47.3607 286.148 46.7207 204.122 46.2407 121.936C46.2407 117.139 46.2407 112.183 46.2407 107.386C46.2407 106.266 46.0806 105.787 44.8006 105.467C29.2806 102.909 15.2007 93.3149 7.36066 79.7239C-2.07934 63.4146 -2.39934 42.6283 7.36066 26.3191C9.28066 23.1212 11.3607 20.243 13.9207 17.5248C25.1207 5.37284 41.4407 -0.863049 57.7607 0.0963194L57.6006 0.41608ZM22.8807 382.565C20.0007 383.524 17.2807 386.562 16.9607 389.12C17.9207 388.96 18.8807 388.641 19.8407 388.481C20.9607 388.481 22.5607 388.641 22.8807 387.521C23.2007 385.283 23.8407 383.364 25.2807 381.445C24.4807 381.445 23.8407 381.445 23.5207 382.085C23.2007 382.085 22.8807 382.085 22.8807 382.405V382.565ZM19.8407 390.239C15.8407 390.559 15.3607 391.359 17.2807 395.036C19.0407 398.714 19.3607 398.714 22.2407 395.676C23.0407 395.036 23.8407 394.397 24.4807 393.757C24.8007 393.597 24.9607 393.278 24.9607 392.798C24.3207 390.24 22.8807 389.44 20.4807 390.08C20.3207 390.08 20.1606 390.24 20.0006 390.399L19.8407 390.239ZM36.8006 401.272C36.3206 401.912 36.0007 402.392 35.5207 403.031C34.7207 403.99 34.7207 404.47 36.1607 404.63C38.4007 404.95 40.4807 405.43 42.7207 405.43C44.7473 405.536 46.0273 404.577 46.5607 402.551C46.8807 401.592 47.3607 400.473 47.6807 399.513C48.1607 398.554 47.6807 398.394 46.7207 398.394C45.1207 398.394 43.3607 398.554 41.7607 398.394C39.0407 397.915 37.6007 399.034 36.6407 401.432L36.8006 401.272ZM48.1607 402.871C48.1607 403.191 48.0007 403.511 47.8407 403.671C47.0407 405.27 47.5207 405.589 49.2807 405.589C51.0407 405.589 52.9607 405.27 54.7207 405.11C56.1607 405.11 57.1207 404.79 56.9607 403.191C56.9607 401.752 56.9607 400.473 57.1207 399.034C57.1207 398.554 57.4407 397.915 56.6407 397.915C54.4007 397.915 52.0007 397.915 49.9207 398.394C48.6407 398.714 48.9607 400.952 48.3207 402.232C48.3207 402.232 48.3207 402.551 48.3207 402.711L48.1607 402.871ZM23.5207 396.795C23.0407 397.275 22.5607 397.755 21.9207 398.074C20.4807 399.034 20.9607 399.673 22.2407 400.313C24.8007 401.752 27.3607 402.392 30.0807 403.191C33.2807 404.15 33.2807 403.99 34.8807 400.952C35.6807 400.153 36.3207 399.034 36.9607 397.915C34.0807 397.275 31.3606 396.795 28.8006 395.516C26.0806 394.077 26.0807 394.077 23.8407 396.316C23.8407 396.316 23.8407 396.475 23.6807 396.635L23.5207 396.795ZM71.5207 402.551C70.7207 400.793 70.5607 398.394 69.1207 397.275C67.6807 396.156 65.4407 397.275 63.5207 397.435H63.2006C59.894 397.648 58.4007 399.46 58.7207 402.871C59.0407 403.671 57.6007 405.27 59.6807 405.11C63.5207 404.95 67.5207 404.31 71.3607 403.671C72.3207 403.511 72.3207 403.031 71.8407 402.392L71.5207 402.551ZM76.8006 402.232C79.5206 401.752 81.7607 400.473 84.1607 399.194C86.8807 397.755 86.8807 397.915 84.6407 395.516C83.2007 393.917 82.0807 393.597 80.1607 394.557C78.7207 395.196 77.1207 395.356 75.6807 395.996C74.0807 396.635 71.5206 395.676 71.2006 397.435C70.8806 398.874 72.3207 400.793 73.2807 402.232C74.4007 404.15 75.6806 402.392 76.8006 402.232ZM77.9207 393.118C82.0807 392.638 85.4406 390.559 88.0006 387.361C89.7606 384.963 89.7606 382.405 88.0006 380.646C85.9206 378.567 83.3607 377.128 80.3207 376.968C78.2407 376.169 76.1607 375.209 74.0807 377.288C73.7607 376.169 74.5606 375.529 74.4006 374.89C75.3606 373.451 75.5207 371.852 75.8407 370.253C75.8407 369.933 76.0007 369.453 75.8407 369.133C75.3607 368.814 75.0407 369.133 74.5607 369.293C73.2807 369.933 72.3207 371.052 71.3607 372.012C71.0407 372.491 70.7207 372.971 70.0807 372.811C69.2807 372.651 69.2807 371.852 69.2807 371.212C69.2807 369.613 68.4807 369.773 67.5207 370.413C66.4007 371.052 65.4407 372.171 64.6407 373.131C64.1607 373.611 63.8407 374.09 63.0407 373.77C61.2807 373.291 60.6407 373.77 60.1607 375.849C59.0407 378.567 63.0407 377.128 62.8807 379.207C62.8807 379.527 63.2007 379.527 63.3607 379.527C63.6807 379.527 63.8406 379.367 64.0006 379.207C64.6406 379.047 65.2807 378.727 66.0807 378.727C67.8407 378.407 68.9606 379.527 68.8006 381.285C68.8006 381.925 68.6407 382.405 68.4807 383.044C68.4807 383.684 68.3207 384.643 67.5207 384.643C66.4007 384.643 67.0407 383.524 67.0407 382.884C67.2007 379.846 67.0407 379.686 64.1607 380.966C63.8407 380.966 63.5207 381.285 63.3607 381.445C62.5607 381.765 61.9207 382.725 61.1207 381.925C60.3207 381.285 61.1207 380.486 61.1207 379.846C61.1207 379.846 61.1206 379.687 60.8006 379.527C60.0006 380.006 59.3607 380.646 58.5607 381.285C57.6007 382.085 57.6007 383.524 56.3207 384.004C56.0007 383.364 56.3207 382.725 56.6407 382.405C58.4007 380.326 57.9207 377.928 57.9207 375.529C57.7607 331.398 57.4407 287.427 57.1207 243.296C56.9607 205.081 56.6407 166.867 56.4807 128.652C56.4807 122.576 56.4807 116.66 56.4807 110.584C56.4807 109.304 56.3207 108.825 54.8807 109.464C53.7607 110.104 52.4807 110.424 51.3607 110.743C50.0807 111.223 47.8407 110.104 47.8407 113.142C48.4807 200.604 49.1206 287.907 49.6006 375.369C49.6006 378.887 50.5606 381.765 52.8006 384.323C53.2806 385.443 54.2407 385.603 55.0407 386.402C55.5207 387.841 56.4807 389.44 55.3607 391.519C54.7207 390.08 54.7207 388.8 54.0807 387.681C53.6007 387.042 53.2807 386.562 52.4807 386.562C51.6807 386.562 51.6807 387.361 51.5207 388.001C51.2007 389.12 51.0407 390.08 51.3607 391.199C51.3607 391.679 51.8407 392.318 51.3607 392.638C50.7207 392.958 50.4007 392.158 50.0807 391.838C49.4407 391.199 48.8006 390.559 48.0006 390.239C47.2006 389.92 46.2407 389.44 45.4407 390.239C44.6407 391.039 45.1207 391.998 45.4407 392.798C45.4407 393.118 46.0807 393.278 45.7607 393.757C44.4807 393.278 43.6806 391.998 44.0006 390.719C44.3206 389.44 45.1207 388.96 46.5607 388.801C47.8407 388.801 49.1207 390.399 49.7607 389.76C50.5607 389.12 49.9207 387.201 50.7207 386.242C51.5207 385.123 51.0406 384.164 50.4006 383.364C50.0806 382.724 49.6007 382.565 49.1207 383.364C47.8407 385.283 47.5207 385.283 46.0807 383.364C45.1207 382.245 44.4807 380.806 43.0407 380.166C42.5607 380.646 42.7207 381.126 42.7207 381.605C42.7207 382.245 42.8807 383.044 42.0807 383.204C41.4407 383.524 40.9607 383.044 40.3207 382.565C39.8407 382.085 39.2007 381.605 38.7207 381.285C38.0807 380.966 37.4406 380.486 36.8006 381.126C36.1606 381.605 36.3207 382.405 36.4807 382.884C37.1207 384.803 37.4406 387.042 39.2006 388.481C39.6806 388.96 40.1607 389.44 40.1607 390.08C40.1607 390.559 40.4807 391.039 39.8407 391.199C39.3607 391.359 39.2007 390.879 39.0407 390.559C38.4007 389.92 37.7606 388.96 36.8006 389.28C35.8406 389.76 35.6807 390.879 35.5207 391.838C35.5207 392.318 35.8406 393.118 35.2006 393.118C34.4006 393.118 34.2407 392.478 34.0807 391.838C34.0807 391.359 34.0807 390.879 33.9207 390.559C33.2807 389.44 32.4807 388.321 31.0407 388.481C29.4407 388.481 29.9207 390.08 30.0807 391.199C28.4807 390.399 28.3207 389.44 29.1207 388.161C30.0807 386.722 31.5207 386.722 33.2807 387.841C33.7607 388.161 33.9207 389.44 34.8807 388.321C35.5207 387.681 36.4807 387.042 35.5207 385.762C35.0407 385.123 34.8807 384.323 34.7207 383.684C34.2407 382.085 34.0807 380.646 35.5207 379.527C36.8007 378.407 38.2407 378.887 39.5207 379.527C40.3207 380.006 40.6407 380.006 40.9607 379.047C41.6007 377.448 42.7206 377.128 44.0006 378.407C44.9606 379.207 45.6006 380.166 46.4006 381.126C46.7206 381.445 46.8807 382.085 47.3607 381.765C47.8407 381.605 47.6807 381.126 47.6807 380.806C47.6807 379.207 47.6807 377.448 47.6807 375.849C47.8407 373.77 47.2007 372.491 45.4407 371.372C44.8007 371.052 44.3207 370.253 43.6807 370.732C43.0407 371.052 43.3607 371.852 43.3607 372.491C43.3607 374.25 42.7207 374.57 41.2807 373.93C40.3207 373.611 39.5207 373.131 38.5607 372.971C36.6407 372.651 35.6807 373.61 35.8407 375.369C36.0007 377.288 35.5207 377.608 33.7607 376.808C32.4807 376.169 31.0406 375.849 29.6006 376.009C28.3206 376.009 28.0007 376.808 28.4807 377.768C28.9607 378.727 29.4407 379.686 29.9207 380.646C30.0807 381.125 30.7207 381.445 30.2407 381.925C29.9207 382.245 29.4407 381.925 29.1207 381.605C28.4807 381.126 28.0007 381.285 27.5207 381.765C23.2007 385.922 24.0007 391.199 29.2807 393.917C32.6407 395.516 36.1607 396.156 39.8407 396.475C48.1607 397.115 56.3207 396.475 64.6407 395.676C69.1207 395.196 73.7607 395.036 77.9207 393.278V393.118ZM29.4407 20.5628C29.4407 21.0425 29.2807 21.3623 28.6407 21.2024C26.2407 19.9232 24.1607 18.1644 21.9207 16.5655C21.2807 16.0858 20.8006 14.9665 20.0006 15.6061C18.7206 16.5655 17.9207 17.8446 17.1207 19.1238C16.9607 19.4436 17.4407 19.6035 17.7607 19.7634C20.3207 21.0425 22.7207 22.8014 25.2807 24.2404C26.2407 25.1998 27.2007 26.1592 28.6407 27.4383C26.5607 26.9587 25.2807 26.1592 23.8407 25.5196C21.9207 24.2404 20.1607 23.1212 18.2407 21.842C16.0007 20.2431 16.0007 20.2431 14.5607 22.6415C14.0807 23.2811 14.0807 23.6008 14.8807 24.0805C17.1207 25.3597 19.2007 26.6389 21.4407 28.0779C25.7607 31.1159 30.0807 34.1539 34.2407 37.1919C34.0807 37.5117 33.9207 37.6716 33.7607 37.9914C29.1207 35.2731 24.8006 32.0753 20.0006 29.6769C18.2406 28.3977 16.3207 27.2784 14.7207 25.9992C13.4407 25.0399 12.9607 25.1998 12.3207 26.479C8.32067 33.8341 5.92069 41.5091 5.44069 49.8236C4.48069 64.5339 8.64068 77.1656 18.8807 87.8785C19.2007 88.1983 19.5207 88.9978 20.3207 88.8379C21.1207 90.5968 22.7207 91.2363 24.4807 92.5155C24.3207 88.3582 24.0006 84.8405 24.0006 81.1629C24.0006 74.7671 24.3207 68.3714 25.1207 62.1355C26.0807 54.7803 30.2407 50.1434 37.7607 48.7043C46.8807 46.7856 56.0007 46.146 65.2807 47.2653C67.8407 47.5851 67.8406 47.5851 68.0006 45.0268C68.1606 42.3085 68.4806 39.7502 68.8006 37.032C68.9606 35.2732 69.4407 35.1133 71.0407 36.0726C73.4407 37.5117 75.8407 39.2705 78.0807 41.0294C83.2007 45.0268 88.0007 49.3439 93.2807 53.0215C95.5207 54.6204 95.5207 55.4199 93.2807 57.0189C88.8007 60.3767 84.3207 63.7344 79.8407 67.0922C76.9607 69.1708 74.0807 71.0896 71.0407 72.6885C69.2807 73.6479 68.6407 73.3281 68.4807 71.2495C68.4807 68.0516 68.4807 64.8537 68.3207 61.6558C68.3207 60.2167 67.8406 59.5772 66.4006 59.4173C59.6806 58.6178 52.9607 58.9376 46.2407 60.3766C42.4007 61.1761 40.0007 63.5745 39.0407 67.2521C37.9207 71.5693 37.4407 75.8864 37.7607 80.3635C38.0807 86.2796 38.7207 92.1957 39.0407 98.1118C39.0407 99.3909 39.8406 99.7108 40.8006 100.031C51.2006 103.069 61.6007 102.909 71.8407 99.2311C74.8807 98.1118 77.9206 96.8326 80.8006 94.9139C76.4806 92.0358 72.4807 89.1577 68.4807 86.4395C68.1607 86.1197 67.6807 85.9598 67.3607 85.64C67.2007 85.64 67.0406 85.3202 67.2006 85.0004C67.2006 84.6807 67.5207 84.6806 67.8407 84.8405C68.3207 84.8405 68.6407 85.1603 69.1207 85.3202C73.6007 87.3988 77.9207 89.9572 82.0807 92.6754C82.5607 92.9952 83.0407 93.6347 83.6807 93.155C84.9607 92.1957 86.4007 91.3962 87.5207 90.1171C84.9607 88.678 82.5607 87.0791 80.1607 85.4801C79.8407 85.1603 79.2007 85.0004 79.5207 84.5207C79.8407 83.8812 80.4806 84.2009 80.8006 84.5207C83.0406 85.4801 85.1206 86.2796 87.2006 87.3989C88.9606 88.3582 90.4007 88.678 91.3607 86.4395C92.0007 86.4395 92.3207 85.7999 92.6407 85.4801C101.441 74.1276 106.561 61.4959 104.641 46.9455C102.721 32.395 96.6406 20.403 84.0006 12.0884C80.3206 9.69001 76.6407 6.9718 72.3207 5.85254C59.8407 2.49475 47.5207 2.97441 35.3607 6.97177C30.4007 8.57072 26.0807 11.289 21.9207 14.4868C24.8007 16.4056 27.5207 18.3243 29.7607 20.7227L29.4407 20.5628ZM70.4006 37.032C69.7606 40.7096 69.1207 44.0674 68.4807 47.585C68.4807 48.0647 68.4807 48.7043 67.5207 48.7043C59.6807 48.7043 51.8407 48.7043 44.1607 49.6637C41.2807 49.9835 38.4007 50.3033 35.6807 51.2626C31.5207 52.8616 28.0007 55.26 27.0407 60.2168C25.1207 70.7698 25.2806 81.6426 25.6006 92.3556C25.6006 92.9951 25.6007 93.6347 26.2407 94.1144C29.6007 96.1931 33.1207 97.9519 37.1207 99.2311C36.8007 94.9139 36.3206 90.9165 36.0006 86.9192C35.5206 80.3635 35.2007 73.8078 36.9607 67.2521C38.0807 63.4146 40.3207 60.3767 44.3207 59.4173C51.6807 57.4985 59.0407 57.3386 66.5607 58.298C68.6407 58.6178 69.2807 59.5772 69.2807 61.4959C69.2807 64.2141 69.4406 66.9323 69.6006 69.6505C69.6006 70.7698 69.9207 71.0896 71.0407 70.45C78.5607 65.8131 85.2807 60.0568 92.6407 54.7803C85.2807 48.8642 78.0807 43.108 70.5607 37.032H70.4006ZM90.7207 387.521C90.2407 387.521 89.9207 387.841 89.4407 388.321C88.6407 389.12 87.8407 389.92 87.0407 390.879C86.2407 391.838 84.3207 392.158 84.4807 393.278C84.6407 394.397 86.2406 395.036 87.2006 395.996C87.8406 396.635 88.1606 396.475 88.8006 395.996C90.4006 394.717 91.8407 393.278 92.9607 391.519C93.6007 390.559 94.7207 389.28 94.0807 388.321C93.6007 387.521 91.8407 387.681 90.5607 387.521H90.7207ZM92.6407 382.085C91.2007 382.085 91.0407 382.085 91.0407 385.123C91.0407 387.202 93.1207 386.082 94.2407 386.562C95.2007 387.042 95.0407 385.922 95.0407 385.443C95.0407 383.044 94.2407 382.085 92.4807 382.085H92.6407ZM92.4807 380.486C91.3607 378.727 88.9607 377.288 86.8807 377.448C89.2807 378.087 89.7607 381.285 92.4807 380.486Z" fill="#0B0D0D"/>
<path d="M0 51.1016C0.48 51.4214 0.48 51.9011 0 52.2208V51.1016Z" fill="#73B32A"/>
<path d="M90.8801 86.4413C89.9201 88.6799 88.4801 88.3601 86.7201 87.4007C84.6401 86.2815 82.4001 85.482 80.3201 84.5226C79.8401 84.3627 79.2002 84.0429 79.0402 84.5226C78.8802 85.0023 79.3601 85.3221 79.6801 85.482C81.9201 87.2408 84.3202 88.8397 87.0402 90.1189C85.9202 91.3981 84.4801 92.1975 83.2001 93.1569C82.4001 93.6366 82.0801 93.1569 81.6001 92.6772C77.4401 89.959 73.2802 87.4007 68.6402 85.3221C68.1602 85.1622 67.8401 85.0023 67.3601 84.8424C67.0401 84.8424 66.8801 84.8424 66.7201 85.0023C66.5601 85.3221 66.7201 85.482 66.8801 85.6419C67.2001 85.9617 67.5201 86.1216 68.0001 86.4413C72.0001 89.1596 76.1601 92.0376 80.3201 94.9157C77.4401 96.8345 74.5601 98.1137 71.3601 99.2329C61.1201 102.911 50.7201 103.07 40.3201 100.032C39.3601 99.7126 38.5601 99.3928 38.5601 98.1136C38.2401 92.1975 37.6001 86.2814 37.2801 80.3653C36.9601 75.8883 37.4401 71.5711 38.5601 67.254C39.5201 63.4165 41.9201 61.1779 45.7601 60.3785C52.4801 58.9394 59.2001 58.7796 65.9201 59.4191C67.3601 59.4191 67.8402 60.2186 67.8402 61.6577C68.0002 64.8556 67.8401 68.0534 68.0001 71.2513C68.0001 73.33 68.6401 73.6498 70.5601 72.6904C73.6001 71.0914 76.6401 69.1727 79.3601 67.0941C83.8401 63.7363 88.3201 60.3785 92.8001 57.0207C95.0401 55.4218 95.0401 54.4624 92.8001 53.0234C87.5201 49.3458 82.7201 45.0286 77.6001 41.0312C75.3601 39.2724 73.1201 37.5136 70.5601 36.0745C69.1201 35.1151 68.6401 35.275 68.3201 37.0339C68.0001 39.7521 67.6801 42.3104 67.5201 45.0286C67.3601 47.5869 67.5201 47.5869 64.8001 47.2671C55.5201 46.1479 46.4001 46.7874 37.2801 48.7062C29.7601 50.3051 25.7602 54.7822 24.6402 62.1373C23.8402 68.5331 23.3601 74.769 23.5201 81.1648C23.5201 84.8424 23.8401 88.3601 24.0001 92.5173C22.4001 91.2382 20.6402 90.5986 19.8402 88.8398C19.5202 88.3601 19.2001 87.8804 18.8801 87.4007C13.9201 79.406 10.2402 70.7716 9.44016 61.3379C8.32016 49.3457 11.6801 38.7927 19.6801 29.6787C24.4801 32.0771 28.8002 35.4349 33.4402 37.9932C33.6002 37.6734 33.7601 37.5135 33.9201 37.1937C29.6001 34.1557 25.2801 31.1178 21.1201 28.0798C21.9201 27.2803 22.7201 26.4808 23.5201 25.6813C24.9601 26.3209 26.2401 27.1204 28.3201 27.6C27.0401 26.3209 26.0801 25.3615 24.9601 24.4022C26.0801 23.4428 27.2001 22.4834 28.3201 21.5241C28.8001 21.5241 29.1201 21.5241 29.1201 20.8845C30.8801 19.9251 32.4802 18.9657 34.2402 18.0064C50.4002 8.09288 74.8801 10.8111 88.1601 28.5594C99.3601 43.4296 103.04 67.8936 90.5601 86.4413C90.5601 86.4413 90.5601 86.7611 90.7201 86.921L90.8801 86.4413Z" fill="#0ABAED"/>
<path d="M51.201 110.585C52.321 110.105 53.601 109.785 54.721 109.305C56.161 108.666 56.321 109.146 56.321 110.425C56.321 116.501 56.321 122.417 56.321 128.493C56.481 166.708 56.801 204.923 56.961 243.137C57.281 287.268 57.441 331.239 57.761 375.37C57.761 377.769 58.241 380.167 56.481 382.246C56.161 382.726 56.001 383.365 56.161 383.845C55.681 384.644 55.201 385.604 54.721 386.403C54.081 385.604 52.961 385.444 52.481 384.325C53.441 383.685 52.961 382.726 52.961 381.926C52.801 349.308 52.481 316.689 52.321 284.07C52.001 248.094 51.841 211.958 51.521 175.982C51.521 154.236 51.201 132.49 51.041 110.904L51.201 110.585Z" fill="#0CB9EB"/>
<path d="M70.3997 37.0312C77.7597 42.9474 85.1197 48.8634 92.4797 54.7795C85.2797 59.8962 78.3997 65.6524 70.8797 70.4492C69.7597 71.0888 69.5997 70.9289 69.4397 69.6498C69.4397 66.9316 69.1197 64.2133 69.1197 61.4951C69.1197 59.5764 68.4797 58.617 66.3997 58.2972C58.8797 57.3379 51.5197 57.4978 44.1597 59.4165C40.1597 60.3759 37.9197 63.254 36.7997 67.2514C35.0397 73.6471 35.3597 80.3627 35.8397 86.9184C36.1597 90.9158 36.4797 94.9131 36.9597 99.2303C32.9597 97.9511 29.4397 96.3522 26.0797 94.1137C25.4397 93.634 25.4397 92.9944 25.4397 92.3548C25.1197 81.6419 24.9597 70.9289 26.8797 60.216C27.8397 55.4191 31.1997 52.8608 35.5197 51.2619C38.2397 50.3025 41.1197 49.9827 43.9997 49.6629C51.8397 48.5437 59.6797 48.5437 67.3597 48.7035C68.3197 48.7035 68.1597 48.0639 68.3197 47.5843C68.9597 44.2265 69.5997 40.8687 70.2397 37.0312H70.3997Z" fill="#FBFBFB"/>
<path d="M90.8794 86.4386C90.8794 86.4386 90.7194 86.1188 90.7194 85.9589C103.199 67.4111 99.5194 43.1071 88.3194 28.077C75.0394 10.3287 50.5594 7.61049 34.3994 17.524C32.7994 18.4833 31.0394 19.4427 29.2794 20.4021C27.0394 18.0036 24.3195 16.2448 21.4395 14.1662C25.5995 10.9683 29.9194 8.25009 34.8794 6.65115C47.0394 2.65378 59.5195 2.17407 71.8395 5.53186C76.1594 6.65113 79.8394 9.36933 83.5194 11.7677C96.1594 19.9224 102.239 32.0744 104.159 46.6248C106.079 61.1753 100.959 73.8069 92.1594 85.1594C91.8394 85.6391 91.5194 86.1188 90.8794 86.1188V86.4386Z" fill="#FBFCFC"/>
<path d="M51.1997 110.582C51.1997 132.327 51.5197 154.073 51.6797 175.659C51.9997 211.635 52.1597 247.771 52.4797 283.748C52.6397 316.366 52.9597 348.985 53.1197 381.603C53.1197 382.403 53.5997 383.362 52.6397 384.002C50.3997 381.444 49.4397 378.725 49.4397 375.048C48.9597 287.585 48.3197 200.283 47.6797 112.82C47.6797 109.782 49.7597 110.902 51.1997 110.422V110.582Z" fill="#F6F8F9"/>
<path d="M54.8803 386.241C55.3603 385.441 55.8403 384.482 56.3203 383.683C57.6003 383.203 57.6003 381.764 58.5603 380.964C59.2003 380.325 60.0003 379.685 60.8003 379.206C60.8003 379.206 61.1203 379.365 61.1203 379.525C61.1203 380.325 60.3203 381.124 61.1203 381.604C61.9203 382.244 62.5603 381.284 63.3603 381.124C63.6803 381.124 64.0003 380.804 64.1603 380.645C67.0403 379.365 67.2003 379.525 67.0403 382.563C67.0403 383.203 66.4003 384.162 67.5203 384.322C68.3203 384.322 68.4803 383.363 68.4803 382.723C68.4803 382.084 68.6403 381.604 68.8003 380.964C68.8003 379.205 67.8403 378.246 66.0803 378.406C65.4403 378.406 64.8003 378.726 64.0003 378.886C63.6803 378.886 63.5203 379.046 63.3603 379.206C63.0403 379.206 62.7203 379.206 62.8803 378.886C63.0403 376.807 59.0403 378.246 60.1603 375.528C60.8003 375.528 61.4403 375.048 61.9203 375.528C63.3603 376.807 63.8403 375.528 64.4803 374.728C66.0803 372.65 67.6803 372.81 69.1203 375.048C69.2803 375.368 69.1203 376.167 69.9203 376.167C70.2403 375.368 70.5603 374.569 71.2003 373.929C72.4803 372.49 73.6003 372.65 74.4003 374.569C74.5603 375.368 73.7603 376.008 74.0803 376.967C76.1603 374.888 78.2403 376.008 80.3203 376.647C80.6403 377.447 81.6003 377.447 82.2403 378.086C87.2003 382.403 87.6803 385.601 82.8803 389.599C81.2803 390.878 79.3603 391.517 78.0803 392.956C73.7603 394.715 69.2803 395.035 64.8003 395.355C56.6403 396.154 48.3203 396.794 40.0003 396.154C36.3203 395.835 32.8003 395.355 29.4403 393.596C24.1603 390.878 23.3603 385.601 27.6803 381.444C28.1603 380.964 28.6403 380.645 29.2803 381.284C29.6003 381.444 30.0803 381.924 30.4003 381.604C30.8803 381.124 30.4003 380.645 30.0803 380.325C29.6003 379.365 28.9603 378.406 28.6403 377.447C28.1603 376.327 28.6403 375.688 29.7603 375.688C31.2003 375.688 32.6403 375.848 33.9203 376.487C35.6803 377.447 36.1603 376.967 36.0003 375.048C35.8403 373.129 36.8003 372.33 38.7203 372.65C39.6803 372.81 40.4803 373.289 41.4403 373.609C43.0403 374.249 43.5203 373.929 43.5203 372.17C43.5203 371.531 43.2003 370.731 43.8403 370.411C44.6403 369.932 45.1203 370.731 45.6003 371.051C47.2003 372.01 48.0003 373.449 47.8403 375.528C47.6803 377.127 47.8403 378.886 47.8403 380.485C47.8403 380.804 47.8403 381.284 47.5203 381.444C46.8803 381.764 46.7203 381.124 46.5603 380.804C45.7603 379.845 45.1203 378.886 44.1603 378.086C42.8803 376.807 41.6003 377.127 41.1203 378.726C40.8003 379.685 40.4803 379.685 39.6803 379.206C38.4003 378.406 36.9603 377.926 35.6803 379.206C34.2403 380.325 34.5603 381.924 34.8803 383.363C35.0403 384.162 35.2003 384.962 35.6803 385.441C36.6403 386.721 35.6803 387.36 35.0403 388C34.2403 388.959 33.9203 387.84 33.4403 387.52C31.6803 386.241 30.2403 386.241 29.2803 387.84C28.4803 389.119 28.6403 390.078 30.2403 390.878C30.2403 389.759 29.6003 388.319 31.2003 388.16C32.6403 388.16 33.4403 389.119 34.0803 390.238C34.2403 390.558 34.0803 391.198 34.2403 391.517C34.4003 392.157 34.5603 392.956 35.3603 392.797C36.0003 392.797 35.6803 391.997 35.6803 391.517C35.6803 390.398 36.0003 389.279 36.9603 388.959C37.9203 388.639 38.5603 389.599 39.2003 390.238C39.5203 390.558 39.5203 391.038 40.0003 390.878C40.4803 390.718 40.3203 390.078 40.3203 389.759C40.3203 389.119 39.8403 388.639 39.3603 388.16C37.6003 386.721 37.2803 384.642 36.6403 382.563C36.4803 381.924 36.3203 381.284 36.9603 380.804C37.6003 380.325 38.2403 380.804 38.8803 380.964C39.5203 381.284 40.0003 381.764 40.4803 382.243C40.9603 382.723 41.4403 383.203 42.2403 382.883C43.0403 382.563 42.7203 381.764 42.8803 381.284C42.8803 380.804 42.8803 380.325 43.2003 379.845C44.6403 380.485 45.2803 382.084 46.2403 383.043C47.8403 384.802 48.0003 384.802 49.2803 383.043C49.7603 382.243 50.0803 382.563 50.5603 383.043C51.2003 384.002 51.6803 384.802 50.8803 385.921C50.0803 387.04 50.5603 388.799 49.9203 389.439C49.1203 390.078 48.0003 388.479 46.7203 388.479C45.4403 388.479 44.4803 389.119 44.1603 390.398C43.8403 391.677 44.6403 392.956 45.9203 393.436C46.2403 392.956 45.9203 392.797 45.6003 392.477C45.1203 391.677 44.6403 390.718 45.6003 389.918C46.4003 389.119 47.3603 389.599 48.1603 389.918C48.9603 390.238 49.7603 390.878 50.2403 391.517C50.5603 391.837 50.8803 392.797 51.5203 392.317C52.0003 391.997 51.5203 391.358 51.5203 390.878C51.2003 389.759 51.5203 388.799 51.6803 387.68C51.8403 387.04 52.0003 386.401 52.6403 386.241C53.4403 386.241 53.9203 386.721 54.2403 387.36C55.0403 388.319 54.8803 389.599 55.5203 391.198C56.6403 389.119 55.6803 387.68 55.2003 386.081L54.8803 386.241ZM77.6003 383.523C77.6003 383.842 77.6003 384.162 77.6003 384.322C77.6003 385.761 76.9603 387.2 76.4803 388.639C76.4803 389.119 76.3203 389.759 76.8003 389.918C77.4403 390.078 77.7603 389.759 77.9203 389.279C78.5603 387.68 79.2003 386.241 79.2003 384.482C79.2003 381.924 77.7603 380.964 75.5203 382.243C74.0803 383.043 72.9603 384.322 71.6803 385.441C71.3603 385.761 71.0403 386.401 70.4003 386.081C68.4803 384.482 67.3603 386.081 66.0803 387.2C64.8003 388.32 63.6803 389.439 63.5203 391.357C64.9603 390.398 66.0803 389.119 67.3603 388C68.0003 387.36 68.8003 386.721 69.1203 388.32C69.2803 389.279 70.0803 389.279 70.8803 388.639C71.3603 388.16 71.8403 387.68 72.3203 387.2C73.7603 385.921 74.8803 384.162 76.9603 383.523H77.6003Z" fill="#73B32A"/>
<path d="M19.8406 29.5181C11.8406 38.6321 8.48053 49.1851 9.60053 61.1772C10.4005 70.611 14.0806 79.2454 19.0406 87.2401C19.3606 87.7198 19.6805 88.1995 20.0005 88.6792C19.2005 88.9989 18.8805 88.1995 18.5605 87.7198C8.32054 77.1667 4.16055 64.3752 5.12055 49.6648C5.76055 41.3503 8.00053 33.5155 12.0005 26.3202C12.8005 25.041 13.2805 24.7213 14.4005 25.8405C16.0005 27.2796 17.9206 28.3988 19.6806 29.5181H19.8406Z" fill="#F8FAFB"/>
<path d="M73.2798 402.233C72.3198 400.794 70.8798 398.875 71.1998 397.436C71.6798 395.517 74.2398 396.636 75.6798 395.997C77.1198 395.357 78.8798 395.357 80.1598 394.558C82.0798 393.598 83.3598 394.078 84.6398 395.517C86.7198 397.756 86.8798 397.756 84.1598 399.195C81.7598 400.314 79.5198 401.753 76.7998 402.233C75.6798 401.113 74.3998 402.552 73.2798 402.233Z" fill="#CDC7C7"/>
<path d="M58.5604 402.872C58.3471 399.567 59.8404 397.755 63.0404 397.435H63.3604C65.2804 397.435 67.6804 396.156 68.9604 397.276C70.2404 398.235 70.5604 400.633 71.3604 402.552C67.0404 402.552 62.7204 403.192 58.4004 402.872H58.5604Z" fill="#CEC8C8"/>
<path d="M77.9198 393.118C79.3598 391.679 81.2798 391.039 82.7198 389.76C87.5198 385.763 87.0398 382.565 82.0798 378.248C81.4398 377.768 80.4798 377.768 80.1598 376.809C83.1998 376.968 85.7598 378.408 87.8398 380.486C89.5998 382.245 89.7598 384.963 87.8398 387.202C85.2798 390.56 81.9198 392.478 77.7598 392.958L77.9198 393.118Z" fill="#F4F5F3"/>
<path d="M90.7203 387.52C92.0003 387.839 93.7603 387.52 94.2403 388.319C94.8803 389.278 93.6003 390.558 93.1203 391.517C92.1603 393.276 90.5603 394.715 88.9603 395.994C88.3203 396.474 88.0003 396.634 87.3603 395.994C86.4003 395.035 84.8003 394.235 84.6403 393.276C84.4803 392.157 86.4002 391.837 87.2002 390.877C88.0002 390.078 88.8002 389.278 89.6002 388.319C89.9202 387.839 90.2403 387.36 90.8803 387.52H90.7203Z" fill="#CAC5C5"/>
<path d="M74.24 374.569C73.44 372.81 72.32 372.49 71.04 373.929C70.4 374.569 70.08 375.368 69.76 376.168C68.96 376.168 69.12 375.368 68.96 375.048C67.52 372.81 65.92 372.65 64.32 374.729C63.68 375.688 63.2 376.967 61.76 375.528C61.28 375.049 60.48 375.528 60 375.528C60.48 373.45 61.12 372.97 62.88 373.45C63.68 373.609 64 373.29 64.48 372.81C65.44 371.851 66.24 370.731 67.36 370.092C68.32 369.452 69.28 369.292 69.12 370.891C69.12 371.531 69.12 372.17 69.92 372.49C70.56 372.65 70.88 372.01 71.2 371.691C72.16 370.571 73.12 369.612 74.4 368.972C74.72 368.813 75.2 368.493 75.68 368.813C76 369.132 75.84 369.452 75.68 369.932C75.36 371.531 75.2 373.13 74.24 374.569Z" fill="#F4F5F3"/>
<path d="M28.6397 21.2023C27.5197 22.1617 26.3997 23.1211 25.2797 24.0805C22.7197 22.6414 20.4797 20.8825 17.7597 19.6034C17.4397 19.6034 16.9597 19.2836 17.1197 18.9638C17.9197 17.6846 18.7197 16.2456 19.9997 15.4462C20.7997 14.8066 21.4397 16.0857 21.9197 16.4055C24.1597 18.0044 26.2397 19.7633 28.6397 21.0425V21.2023Z" fill="#F6F6F6"/>
<path d="M23.5194 396.795C23.5194 396.795 23.5194 396.635 23.6794 396.475C25.9194 394.236 25.9194 394.236 28.6394 395.675C31.1994 396.955 34.0794 397.434 36.7994 398.074C36.3194 399.193 35.6794 400.312 34.7194 401.112C30.5594 400.632 26.7194 399.353 23.3594 396.795H23.5194Z" fill="#CDC7C7"/>
<path d="M23.5203 396.797C26.8803 399.355 30.7203 400.634 34.8803 401.114C33.2803 404.152 33.2803 404.152 30.0803 403.353C27.3603 402.553 24.6403 401.754 22.2403 400.474C20.9603 399.835 20.6403 399.195 21.9203 398.236C22.5603 397.916 23.0403 397.277 23.5203 396.957V396.797Z" fill="#F6F6F6"/>
<path d="M48.16 402.869C48.16 402.709 48.16 402.55 48.16 402.39C48.8 401.11 48.48 398.872 49.76 398.552C51.84 397.913 54.24 398.072 56.48 398.072C57.28 398.072 57.12 398.712 56.96 399.192C56.96 400.631 56.96 401.91 56.8 403.349C53.92 403.029 51.04 402.869 48 403.029L48.16 402.869Z" fill="#CEC8C8"/>
<path d="M36.8008 401.272C37.7608 398.874 39.2008 397.754 41.9208 398.234C43.5208 398.554 45.2808 398.234 46.8808 398.234C47.8408 398.234 48.3208 398.234 47.8408 399.353C47.3608 400.313 47.0408 401.432 46.7208 402.391C43.5208 401.912 40.1608 401.592 36.9608 401.112L36.8008 401.272Z" fill="#CAC5C5"/>
<path d="M36.7994 401.273C39.9994 401.753 43.3594 402.073 46.5594 402.553C46.0261 404.685 44.7461 405.644 42.7194 405.431C40.4794 405.431 38.2394 404.951 36.1594 404.631C34.7194 404.471 34.8794 403.832 35.5194 403.032C35.9994 402.553 36.3194 401.913 36.7994 401.273Z" fill="#F4F5F3"/>
<path d="M23.6799 25.5182C22.8799 26.3177 22.0799 27.1172 21.2799 27.9167C19.0399 26.6375 16.9599 25.1984 14.7199 23.9193C13.9199 23.4396 13.9198 23.1198 14.3998 22.4802C15.8398 20.0818 15.8399 20.0818 18.0799 21.6808C19.8399 22.9599 21.7599 24.0792 23.6799 25.3583V25.5182Z" fill="#F6F6F6"/>
<path d="M22.0799 395.675C19.1999 398.713 19.0399 398.713 17.1199 395.035C15.3599 391.358 15.6799 390.718 19.6799 390.238C19.8399 392.317 20.9599 394.076 21.9199 395.675H22.0799Z" fill="#F6F6F6"/>
<path d="M58.56 402.871C62.88 403.03 67.2 402.551 71.52 402.551C72.16 403.19 72.16 403.67 71.04 403.83C67.2 404.469 63.36 405.109 59.36 405.269C57.28 405.269 58.7199 403.83 58.3999 403.03L58.56 402.871Z" fill="#F4F5F3"/>
<path d="M48.1605 402.871C51.0405 402.871 53.9205 402.871 56.9605 403.191C56.9605 404.79 56.1605 405.11 54.7205 405.11C52.9605 405.11 51.0405 405.429 49.2805 405.589C47.6805 405.589 47.0405 405.27 47.8405 403.671C47.8405 403.351 48.1605 403.031 48.1605 402.871Z" fill="#FBFBFB"/>
<path d="M22.0798 395.676C20.9598 394.077 19.9998 392.318 19.8398 390.239C19.9998 390.239 20.1598 390.08 20.3198 389.92C22.8798 389.28 24.1598 390.239 24.7998 392.638C24.7998 393.118 24.7998 393.278 24.3198 393.597C23.5198 394.237 22.7198 394.876 22.0798 395.516V395.676Z" fill="#CAC5C5"/>
<path d="M92.6393 382.086C94.3993 382.086 95.1992 383.045 95.1992 385.444C95.1992 386.083 95.1992 387.043 94.3992 386.563C93.2792 386.083 91.1992 387.203 91.1992 385.124C91.1992 382.086 91.1992 382.086 92.7992 382.086H92.6393Z" fill="#CAC5C5"/>
<path d="M19.841 388.322C18.881 388.482 17.9209 388.802 16.9609 388.962C17.2809 386.404 20.001 383.526 22.881 382.406C22.881 383.046 22.561 383.366 22.241 383.845C21.121 385.124 20.3209 386.564 20.0009 388.322H19.841Z" fill="#F4F5F3"/>
<path d="M19.8397 388.322C20.1597 386.563 20.9597 385.124 22.0797 383.845C22.3997 383.365 22.8797 383.046 22.7197 382.406C22.8797 382.406 23.1997 382.086 23.3597 382.086C23.5197 381.287 24.1597 381.447 25.1197 381.447C23.8397 383.365 23.0397 385.284 22.7197 387.523C22.5597 388.642 20.7997 388.322 19.6797 388.482L19.8397 388.322Z" fill="#CAC5C5"/>
<path d="M92.4809 380.487C89.7609 381.127 89.2809 378.089 86.8809 377.449C88.9609 377.449 91.3609 378.728 92.4809 380.487Z" fill="#CAC5C5"/>
<path d="M73.2793 402.23C74.3993 402.55 75.6793 401.111 76.7993 402.23C75.6793 402.39 74.3993 404.149 73.2793 402.23Z" fill="#CEC8C8"/>
<path d="M23.5208 382.244C23.3608 382.244 23.0409 382.564 22.8809 382.564C22.8809 382.084 23.2008 382.084 23.5208 382.244Z" fill="#F4F5F3"/>
<path d="M77.6001 383.523C75.5201 384.162 74.4002 385.761 72.9602 387.2C72.4802 387.68 72.0002 388.16 71.5202 388.639C70.8802 389.279 70.0802 389.279 69.7602 388.32C69.4402 386.561 68.6401 387.36 68.0001 388C66.7201 389.119 65.6002 390.238 64.1602 391.358C64.1602 389.439 65.4402 388.32 66.7202 387.2C67.8402 386.081 69.1202 384.642 71.0402 386.081C71.6802 386.561 72.0002 385.761 72.3202 385.441C73.4402 384.322 74.7202 383.043 76.1602 382.244C78.4002 380.964 79.8402 381.764 79.8402 384.482C79.8402 386.241 79.2002 387.68 78.5602 389.279C78.4002 389.759 77.9202 390.238 77.4402 389.919C76.8002 389.759 76.9602 389.119 77.1202 388.639C77.4402 387.2 78.2402 385.921 78.2402 384.322C78.2402 384.002 78.2402 383.843 78.2402 383.523H77.6001Z" fill="#0A1004"/>
</svg>
