<svg width="186" height="165" viewBox="0 0 186 165" fill="none" xmlns="http://www.w3.org/2000/svg">
<path d="M23.333 51.4539L116.133 51.7207L104 2.63591L11.0664 2.36914L23.333 51.4539Z" fill="url(#paint0_linear_2095_5832)"/>
<path d="M66.9338 60.9238H4.40039V135.885H66.9338V60.9238Z" fill="#174075"/>
<path d="M69.0664 60.9239C67.7331 56.2555 55.4664 59.8568 51.333 58.9231C36.133 59.0565 19.4664 59.3233 4.39977 59.8568C1.59977 62.7912 4.5331 74.7957 3.7331 79.7308C4.1331 98.5378 2.93303 117.211 2.66637 135.885C2.3997 139.086 10.7998 137.085 12.3998 137.619C29.7331 137.619 49.5998 136.819 67.0664 136.018C68.1331 111.076 69.0664 85.9998 69.0664 60.9239ZM50.6664 135.085C36.3997 134.551 20.2665 134.018 6.13316 134.151C5.4665 110.142 4.39983 86.1332 5.4665 62.1243C24.7998 62.7912 45.3332 63.058 64.7998 63.1913C64.7998 86.8001 65.8665 112.143 66.7998 135.885L50.7998 135.218L50.6664 135.085Z" fill="black"/>
<path d="M179.867 61.0574V84.9328C179.867 89.4678 176.267 93.0692 171.733 93.0692H51.6001C47.0667 93.0692 43.4668 89.3345 43.4668 84.9328V61.0574H180H179.867Z" fill="white"/>
<path d="M170 61.0574C169.067 67.9932 173.733 86.5334 161.867 86.2667H43.4668C43.4668 85.8665 43.4668 85.333 43.4668 84.9328V61.0574H170.133H170Z" fill="#3EB2E6"/>
<path d="M157.2 93.0693H26.667V135.885H157.2V93.0693Z" fill="url(#paint1_linear_2095_5832)"/>
<path d="M143.333 101.873H43.333V112.01H143.333V101.873Z" fill="#3EB2E6"/>
<path d="M143.467 100.805C110.134 99.4715 76.6667 99.3382 43.3334 101.072C41.2 103.073 43.6001 109.342 43.2001 112.143C67.7334 113.61 93.4668 114.144 118.134 112.81C126.534 111.743 136.533 113.877 144 112.01C143.6 111.076 145.467 100.539 143.333 100.805H143.467ZM118.533 111.076C93.4667 109.742 68.6668 110.409 43.4668 111.743L44.1335 102.673C76.8002 104.407 109.6 104.273 142.267 102.939L142.533 111.209C134.533 111.343 126.4 111.476 118.533 111.209V111.076Z" fill="black"/>
<path d="M36.0003 51.5873L26.667 8.77148H94.8005L104.134 51.5873H36.0003Z" fill="white"/>
<path d="M36.0003 51.5873L26.667 8.77148H94.8005L104.134 51.5873H36.0003Z" fill="white"/>
<path d="M36.0003 51.5873L26.667 8.77148H94.8005L104.134 51.5873H36.0003Z" fill="white"/>
<path d="M183.467 51.4538H35.7334V61.0574H183.467V51.4538Z" fill="url(#paint2_linear_2095_5832)"/>
<path d="M183.333 49.453C166.8 49.453 132.933 49.5864 116.667 49.7198C111.333 34.2474 109.6 16.2408 104 1.56868C84.8 0.768387 65.2 0.635002 46 0.368237C2 2.36898 6.13343 -9.76884 16.2668 27.5783C18.0001 33.5805 21.4667 45.4516 23.2 51.4538H0V61.0574H35.7334L36.1335 52.2541C82.9335 54.2548 134.533 52.921 181.6 53.4545V59.0566C135.6 60.6572 35.8667 61.0574 35.8667 61.0574H42.4001C44.0001 70.7943 40.2668 83.0655 46.1335 91.3352C42.0001 92.2689 26.4 89.7346 25.3333 93.2026C25.6 105.474 26.2668 123.747 26.8001 136.152C69.4668 138.019 114.267 137.886 157.467 136.685C159.2 123.747 157.467 108.008 158.533 94.403C187.2 96.0036 179.867 85.0662 180.933 63.1915C182.667 63.1915 185.467 63.725 185.6 61.1907C185.067 59.4567 187.2 49.3197 183.6 49.5864L183.333 49.453ZM93.2 49.9866C74 49.7198 55.2 50.12 35.8667 50.7869C33.7334 39.0492 30.5334 21.7095 28.2668 10.1052C49.3334 10.5053 72.2667 10.6387 93.2 10.7721C95.3334 20.509 99.7333 40.1163 102 49.8532C99.0667 49.8532 96.1334 49.8532 93.2 49.9866ZM109.6 49.8532C108.267 49.8532 106.933 49.8532 105.6 49.8532C103.467 39.5827 99.0668 18.6417 96.8001 8.37119C96.6668 7.43752 95.8668 6.77061 94.8001 6.77061C78.4001 6.77061 60.1334 6.90398 43.7334 7.17075L26.6667 7.43752C25.8667 7.43752 25.0667 8.23781 25.3333 9.03811C28.2667 21.4427 32.6667 38.2489 35.7334 50.7869C31.6001 50.9203 27.6 51.0536 23.3333 51.3204C20.2667 36.2482 16.8 19.3086 13.3333 4.36972C43.0667 4.90325 73.3334 4.63648 103.067 3.83618C107.333 19.0418 111.333 34.3808 114.667 49.7198H109.467L109.6 49.8532ZM156.533 114.544C156.533 120.546 156.533 129.349 156.533 135.351C112.933 134.018 70.9335 134.151 26.8001 135.885C27.2001 124.281 27.8668 106.141 28.1335 94.8031C70.2668 95.7368 113.867 95.3367 156 94.403C156.133 101.206 156.4 107.875 156.4 114.677L156.533 114.544ZM169.2 92.4023C129.333 91.2018 86.8001 90.6683 46.9334 91.2018C43.0668 87.8672 43.0667 79.8643 44.4001 62.1244C89.2001 63.9918 134.133 62.2578 178.933 62.9247C177.6 72.5283 185.067 93.7361 169.2 92.2689V92.4023Z" fill="black"/>
<path d="M142.666 106.808C170.666 115.477 182 142.821 182 162.962H110.4C110.4 135.885 91.1997 113.077 65.333 106.808H142.666Z" fill="white"/>
<path d="M183.466 158.293C181.866 136.552 168.133 115.077 147.066 107.875C120.266 103.473 92.5328 105.607 65.3328 104.54C62.9328 104.54 62.3996 108.275 64.7996 108.808C91.9996 115.077 107.2 138.286 110.4 163.895C114.8 163.762 123.866 163.629 128.266 163.495C146.133 163.228 163.999 164.162 181.866 164.562C184.799 164.295 183.2 160.161 183.466 158.16V158.293ZM164.133 161.761C146.666 162.428 128.933 162.561 111.466 162.028C112 139.486 97.8662 118.145 77.4662 108.808C99.1996 108.542 120.933 108.008 142.666 106.941L146.8 108.808C167.066 117.878 179.2 139.62 180.266 161.361C174.933 161.361 169.6 161.628 164.133 161.761Z" fill="black"/>
<defs>
<linearGradient id="paint0_linear_2095_5832" x1="0" y1="82.2811" x2="185.751" y2="82.2811" gradientUnits="userSpaceOnUse">
<stop stop-color="#0ABBEF"/>
<stop offset="0.2" stop-color="#0D9ACF"/>
<stop offset="0.8" stop-color="#14598E"/>
<stop offset="1" stop-color="#174075"/>
</linearGradient>
<linearGradient id="paint1_linear_2095_5832" x1="0" y1="82.5374" x2="185.751" y2="82.5374" gradientUnits="userSpaceOnUse">
<stop stop-color="#0ABBEF"/>
<stop offset="0.2" stop-color="#0D9ACF"/>
<stop offset="0.8" stop-color="#14598E"/>
<stop offset="1" stop-color="#174075"/>
</linearGradient>
<linearGradient id="paint2_linear_2095_5832" x1="0" y1="82.2811" x2="185.583" y2="82.2811" gradientUnits="userSpaceOnUse">
<stop stop-color="#0ABBEF"/>
<stop offset="0.2" stop-color="#0D9ACF"/>
<stop offset="0.8" stop-color="#14598E"/>
<stop offset="1" stop-color="#174075"/>
</linearGradient>
</defs>
</svg>
