<svg width="128" height="139" viewBox="0 0 128 139" fill="none" xmlns="http://www.w3.org/2000/svg">
<path d="M49.2608 46.4379C44.4608 46.4379 40.4608 45.6377 36.4608 44.5175C32.7808 43.3972 29.5808 41.1566 27.1808 38.1158C26.3808 37.1556 25.9008 37.1556 24.9408 38.1158C22.3808 40.6765 19.6608 42.597 15.8208 43.0771C12.4608 43.3972 8.78082 41.4767 7.50082 38.4359C7.18082 37.4756 6.86082 36.6754 7.50082 35.7152C7.98082 34.755 7.82084 34.1148 7.02084 33.3146C3.66084 30.1138 3.8208 25.1525 7.9808 23.232C8.9408 22.7519 8.62078 22.2718 8.46078 21.4716C7.50078 17.6306 7.82076 14.1097 10.5408 11.0689C11.8208 9.4685 13.7408 8.50826 14.8608 6.74781C15.9808 5.30744 17.7408 5.46748 19.5008 5.94761C22.3808 6.90785 24.4608 8.98838 26.2208 11.389C36.3008 2.26666 48.6208 -0.294008 61.5808 0.0260736C75.5008 0.346155 87.6608 5.62751 98.2208 14.4298C113.581 27.073 122.861 43.2371 126.381 62.7621C127.501 69.3238 127.021 76.0455 126.061 82.6072C125.101 89.649 123.501 96.6908 120.621 103.252C117.901 109.334 114.381 114.775 108.621 118.296C107.981 118.776 108.141 118.936 108.461 119.417C110.861 123.418 111.181 127.739 109.901 132.06C109.101 134.62 107.341 136.381 105.101 137.501C102.221 138.782 99.8208 138.141 97.5808 135.581C96.7808 134.62 96.3008 134.3 95.0208 134.781C91.3408 136.061 88.3008 134.62 86.7008 131.1C86.3808 130.139 85.9008 129.819 84.9408 130.139C80.9408 131.58 76.6208 127.739 78.3808 122.777C79.6608 118.936 82.2208 115.896 85.2608 113.335C86.0608 112.695 86.2208 112.375 85.2608 111.575C81.5808 107.574 79.6608 103.092 79.8208 97.491C79.8208 92.6898 80.4608 87.8885 81.7408 83.2474C81.7408 82.7672 81.7408 82.4472 81.9008 81.807C80.7808 82.1271 80.3008 82.9273 79.6608 83.5675C72.9408 90.2892 64.7808 93.1699 55.3408 93.1699C55.0208 93.1699 54.7008 93.1699 54.3808 93.1699C51.8208 92.0496 50.3808 93.65 48.7808 95.4105C44.6208 100.052 40.1408 104.533 35.9808 109.174C31.9808 113.495 28.3008 118.296 25.9008 123.738C23.6608 128.699 19.6608 131.74 14.5408 133.18C7.66077 135.101 -2.25922 129.659 0.460784 118.776C1.74078 113.655 4.94078 109.814 9.26078 107.093C13.9008 104.213 18.5408 101.172 22.3808 97.331C27.6608 91.8896 33.1008 86.7683 37.2608 80.3666C37.7408 79.5664 38.0608 78.7662 37.9008 77.806C37.1008 71.7244 37.7408 65.8029 40.4608 60.0414C42.8608 55.4002 45.1008 50.7591 49.4208 46.758L49.2608 46.4379ZM125.101 69.964C125.101 67.7234 125.101 65.3228 124.781 63.0822C124.781 61.9619 124.461 60.8416 124.301 59.7213C119.661 40.3564 109.741 24.3523 93.4208 12.6693C78.0608 1.78654 61.2608 -1.25425 43.0208 3.70702C37.4208 5.14739 32.1408 7.54801 27.8208 11.8691C26.0608 13.6296 25.9008 13.4695 24.4608 11.549C23.0208 9.62855 21.4208 8.18817 19.0208 7.38797C17.5808 6.90784 15.9808 6.74781 15.1808 8.34822C14.5408 9.78859 13.4208 10.5888 12.1408 11.389C11.3408 11.8691 10.8608 12.6693 10.3808 13.4695C9.1008 15.7101 8.94084 18.1107 9.42084 20.5113C9.74084 22.2718 9.74084 23.5521 7.82084 24.6724C5.58084 26.1128 5.1008 28.1933 6.3808 30.7539C6.8608 31.7142 7.50082 32.5144 8.30082 33.1546C8.78082 33.6347 9.10076 34.2748 8.94076 35.075C8.14076 38.916 10.8608 41.9568 14.7008 41.9568C18.3808 41.9568 21.2608 40.0363 23.8208 37.6357C26.0608 35.5552 26.2208 35.5552 28.1408 37.7957C34.0608 44.1974 41.5808 45.6377 49.9008 44.9976C50.3808 44.9976 51.0208 44.6775 51.3408 45.1576C51.6608 45.7978 51.0208 46.1179 50.7008 46.598C42.7008 55.5603 37.9008 65.6429 39.5008 77.966C39.5008 78.9263 39.5008 79.8865 38.8608 80.5267C36.7808 82.2871 35.5008 84.6877 33.7408 86.6082C26.3808 94.4502 19.6608 102.772 10.0608 108.214C5.74078 110.614 2.86082 114.615 1.90082 119.577C1.10082 123.258 1.5808 126.939 4.7808 129.499C7.9808 132.06 11.6608 132.86 15.5008 131.26C19.6608 129.659 22.8608 126.939 24.7808 122.938C26.5408 119.417 28.6208 116.216 31.1808 113.175C37.1008 106.133 43.9808 99.8916 50.0608 93.0099C50.8608 92.0496 51.8208 91.8896 52.9408 92.0496C60.9408 92.5297 68.3008 91.0894 74.8608 86.2881C77.5808 84.3677 80.1408 82.1271 82.3808 79.5664C82.7008 79.0863 83.1808 78.4461 83.9808 78.7662C84.6208 79.0863 84.1408 79.7265 83.9808 80.3666C82.8608 84.5277 82.0608 88.6888 81.7408 93.0099C81.4208 99.4115 81.9008 105.333 86.5408 110.454C88.6208 112.695 88.4608 113.175 86.0608 115.256C83.6608 117.496 81.4208 120.057 80.3008 123.258C79.0208 127.099 81.4208 129.819 85.2608 128.859C87.3408 128.219 87.8208 129.019 88.4608 130.619C89.4208 133.5 92.3008 134.781 95.1808 133.5C97.1008 132.7 98.0608 133.18 99.1808 134.62C101.421 137.501 103.981 137.501 106.701 134.941C108.461 133.34 108.941 131.26 109.261 128.859C109.581 125.338 108.141 122.297 107.501 118.936C107.341 118.136 107.501 117.816 107.981 117.336C113.581 113.815 117.101 108.534 119.501 102.772C123.821 92.3697 125.421 81.4869 125.581 70.2841L125.101 69.964Z" fill="#141111"/>
<path d="M125.101 69.9639C124.781 81.1668 123.341 92.0496 119.021 102.452C116.461 108.374 113.101 113.655 107.501 117.016C106.861 117.496 106.861 117.816 107.021 118.616C107.821 121.817 109.261 125.018 108.781 128.539C108.461 130.78 107.981 132.86 106.221 134.62C103.501 137.181 100.941 137.181 98.7008 134.3C97.5808 132.86 96.6208 132.22 94.7008 133.18C91.9808 134.46 89.1007 133.18 87.9807 130.299C87.3407 128.699 86.8607 127.899 84.7807 128.539C80.9407 129.659 78.5408 126.778 79.8208 122.938C80.9408 119.737 83.1807 117.176 85.5807 114.935C87.9807 112.695 88.1407 112.375 86.0607 110.134C81.5807 105.173 80.9407 99.0914 81.2607 92.6897C81.5807 88.3686 82.3808 84.2076 83.5008 80.0465C83.5008 79.5664 84.1408 78.9262 83.5008 78.4461C82.7008 77.966 82.3808 78.7662 81.9008 79.2463C79.6608 81.8069 77.1007 84.0475 74.3807 85.968C67.8207 90.7693 60.4607 92.2096 52.4607 91.7295C51.3407 91.7295 50.3807 91.7295 49.5807 92.6897C43.5007 99.7315 36.7808 105.813 30.7008 112.855C28.1408 115.896 26.0608 119.097 24.3008 122.617C22.3808 126.618 19.1808 129.339 15.0208 130.94C11.0208 132.38 7.50077 131.74 4.30077 129.179C1.10077 126.618 0.620785 122.937 1.42079 119.257C2.54079 114.295 5.42075 110.294 9.58075 107.894C19.1807 102.452 25.9007 94.1301 33.2607 86.2881C35.0207 84.3676 36.4607 81.967 38.3807 80.2065C39.1807 79.5664 39.1808 78.6061 39.0208 77.6459C37.4208 65.3227 42.2208 55.2402 50.2208 46.2779C50.5408 45.7977 51.3407 45.4777 50.8607 44.8375C50.5407 44.3574 49.9008 44.5174 49.4208 44.6775C41.1008 45.3176 33.5807 43.8773 27.6607 37.4756C25.5807 35.235 25.4207 35.235 23.3407 37.3156C20.7807 39.7162 18.0608 41.6367 14.2208 41.6367C10.2208 41.6367 7.66073 38.5959 8.46073 34.7549C8.46073 33.9547 8.46079 33.3145 7.82079 32.8344C7.02079 32.1943 6.38077 31.394 5.90077 30.4338C4.78077 28.0332 5.10071 25.7926 7.34071 24.3523C9.10071 23.232 9.26071 21.9516 8.94071 20.1912C8.46071 17.7906 8.62077 15.39 9.90077 13.1494C10.3808 12.3492 10.8607 11.549 11.6607 11.0689C12.9407 10.2687 13.9008 9.46844 14.7008 8.02807C15.5008 6.42766 17.1007 6.58772 18.5407 7.06784C20.7807 7.70801 22.5407 9.3084 23.9807 11.2289C25.4207 13.1494 25.5807 13.3094 27.3407 11.549C31.6607 7.22789 36.9407 4.98731 42.5407 3.3869C60.7807 -1.41433 77.5807 1.46641 92.9407 12.3492C109.261 24.0322 119.181 40.0363 123.821 59.4012C124.141 60.5215 124.301 61.6418 124.301 62.7621C124.621 65.0027 124.781 67.4033 124.621 69.6438L125.101 69.9639ZM87.5008 63.5623C88.3008 63.0822 88.3008 61.8018 89.4208 61.8018C89.4208 62.1219 89.4208 62.282 89.4208 62.442C92.4608 67.2432 93.1007 72.3645 92.4607 77.8059C91.9807 82.2871 90.7007 86.4482 89.5807 90.7693C87.6607 98.4512 87.5007 105.653 93.5807 111.735C94.5407 112.695 94.7008 113.815 93.1008 114.615C91.6608 115.416 90.2207 116.376 88.9407 117.176C87.9807 117.816 86.5407 118.136 86.5407 119.417C86.5407 120.857 88.1408 121.017 89.1008 121.657C89.1008 121.657 89.2608 121.657 89.4208 121.657C91.3408 122.137 92.3007 123.258 92.1407 125.338C92.1407 126.778 92.7807 127.419 94.0607 126.778C95.9807 125.978 97.7408 126.138 99.5008 127.099C101.581 128.219 103.661 126.618 103.661 124.218C103.661 123.258 103.661 122.457 103.661 121.497C103.661 121.177 103.661 121.017 103.341 120.857C102.541 119.417 101.901 117.976 100.621 117.176C100.621 116.696 100.301 116.536 99.9807 116.216C99.1807 115.095 99.5007 113.655 100.941 113.495C104.941 112.695 107.501 110.134 109.741 106.933C114.701 100.212 116.941 92.3697 118.221 84.2076C120.781 68.2035 119.021 52.9996 110.541 38.756C103.661 27.393 95.0208 17.7906 82.7008 12.1891C70.5408 6.58771 57.7407 4.1871 44.4607 6.58771C37.2607 7.86804 30.3807 10.2687 27.1807 17.7906C26.7007 18.7508 26.3808 18.4307 25.9008 17.7906C24.9408 16.5103 23.8207 15.55 22.5407 14.7498C19.9807 12.9894 18.8607 13.1494 17.2607 15.8701C16.7807 16.6703 16.3008 17.4705 15.8208 18.4307C14.8608 20.3512 14.2208 22.2717 15.8208 24.1922C16.3008 24.8324 15.8208 25.1525 15.5008 25.6326C12.4608 27.5531 12.6208 29.1535 14.7008 32.6744C15.5008 33.9547 16.4608 34.1147 17.9008 33.6346C20.7808 32.6744 22.3808 30.1137 24.6208 28.3533C25.7408 27.393 26.2208 27.0729 26.7008 28.8334C28.3008 34.2748 31.9808 37.6357 37.4208 39.076C42.0608 40.3564 46.8607 41.1566 51.6607 41.7967C54.8607 42.1168 58.0607 42.2768 61.5807 43.0771C60.6207 43.8773 59.9808 44.3574 59.5008 44.9975C54.8608 49.6387 50.7008 54.6 47.5008 60.3615C44.6208 65.6428 42.7007 71.2443 44.1407 77.0057C45.1007 80.3666 44.6207 82.2871 42.0607 84.2076C41.4207 84.6877 40.9407 85.3279 40.4607 85.808C34.2207 92.2096 28.3007 99.0914 21.7407 105.173C18.0607 108.534 14.3807 111.895 9.26073 113.175C8.14073 113.495 7.34077 114.295 6.70077 115.416C5.42077 117.656 5.26077 120.057 6.70077 122.297C8.30077 124.698 10.5407 125.978 13.5807 125.818C16.4607 125.498 19.0207 123.738 19.1807 121.657C19.3407 119.257 20.4607 117.496 22.0607 115.736C30.8607 105.493 40.6207 96.2106 50.0607 86.6082C50.5407 86.1281 50.8608 85.968 51.5008 86.2881C55.6608 88.2086 59.5007 87.2483 63.3407 85.3279C68.4607 82.7672 72.6207 79.0862 76.7807 75.2453C79.6607 72.5246 81.7407 69.1637 84.4607 66.283C84.6207 65.9629 84.9408 65.8029 85.1008 65.4828C85.5808 64.8426 86.0608 64.2025 86.7008 63.5623H87.5008Z" fill="#FAFAFA"/>
<path d="M103.981 122.138C103.981 123.098 103.981 123.898 103.981 124.858C103.981 127.259 101.901 128.699 99.8212 127.739C97.9012 126.779 96.3012 126.619 94.3812 127.419C92.9412 128.059 92.3012 127.419 92.4612 125.979C92.6212 123.898 91.6611 122.778 89.7411 122.298H89.4212C88.4612 121.657 86.8612 121.657 86.8612 120.057C86.8612 118.617 88.3012 118.457 89.2612 117.816C90.7012 116.856 91.9812 116.056 93.4212 115.256C95.0212 114.456 94.8612 113.335 93.9012 112.375C87.8212 106.294 87.9812 98.9316 89.9012 91.4097C91.0212 87.0886 92.3012 82.9275 92.7812 78.4464C93.4212 73.005 92.7811 67.7236 89.7411 63.0825C89.7411 62.9224 89.7411 62.6023 89.7411 62.4423C89.4211 62.1222 89.2611 61.9621 88.9411 61.6421C89.2611 61.1619 89.5812 60.6818 90.0612 60.5218C90.0612 61.0019 90.2211 61.6421 90.5411 61.9622C93.2611 64.8429 94.2211 68.5238 94.5411 72.3648C95.0211 78.6064 94.0611 84.5279 92.1411 90.4494C90.3811 95.8908 90.0612 101.172 91.9812 106.614C93.4212 110.775 96.1412 112.535 100.461 112.375C102.381 112.535 103.821 111.735 105.101 110.615C107.181 109.014 108.781 106.774 110.221 104.373C111.075 102.986 110.808 101.866 109.421 101.012C108.141 99.7318 106.541 99.0917 105.101 98.2915C104.621 97.9714 103.661 97.9714 103.981 97.0111C104.301 96.2109 104.941 96.8511 105.421 97.0111C107.181 97.3312 108.941 97.8113 110.861 98.1314C111.661 98.1314 112.621 99.0916 113.101 98.4515C113.901 97.3312 114.381 96.0509 114.381 94.7706C114.381 93.9704 113.101 93.4902 112.141 93.1701C110.221 91.7298 107.981 91.0896 105.741 90.4494C105.421 90.4494 104.781 90.1294 104.781 89.6492C104.781 89.0091 105.421 89.1691 105.741 89.0091C108.301 88.689 110.861 88.2089 113.421 87.8888C116.301 87.8888 116.301 87.8888 116.781 85.1681C117.101 83.4077 117.261 81.4871 117.581 79.7267C117.581 79.4066 117.581 79.0865 117.581 78.7665C117.581 77.1661 117.901 75.7257 118.061 74.1253C118.381 73.9652 118.541 73.6451 118.061 73.3251C118.381 70.6044 118.221 67.7236 118.061 65.0029C117.901 61.9622 117.741 61.8021 114.541 62.6023C112.141 62.6023 109.901 63.0824 107.661 63.7226C107.341 63.7226 106.701 64.0427 106.541 63.5626C106.381 63.0825 106.861 62.7624 107.181 62.6023C109.261 61.162 111.501 60.0417 113.901 59.0814C116.941 58.1212 116.941 58.1212 116.141 55.2404C115.661 53.64 115.181 52.0396 114.541 50.5993C113.261 47.2384 113.261 47.2384 109.901 48.3587C106.541 48.8388 103.501 50.4392 100.461 51.7195C99.9812 51.8796 99.1812 52.6798 98.7012 51.8796C98.0612 51.0794 99.0211 50.5992 99.3411 50.1191C101.581 47.3984 104.461 45.3179 107.341 43.3974C107.821 43.2374 108.301 42.9173 108.781 42.7573C110.061 42.2771 110.541 41.637 109.581 40.3566C108.461 38.7562 107.501 37.1558 106.381 35.5554C104.621 33.1548 104.621 33.1548 101.901 34.7552C98.3812 36.3556 95.5012 38.9163 92.4612 41.1568C91.9812 41.4769 91.5012 42.4372 90.8612 41.637C90.3812 41.1568 91.0211 40.6767 91.3411 40.1966C93.5811 36.9958 95.9811 33.955 98.5411 31.0743C98.8611 30.7542 99.1812 30.2741 99.6612 30.114C100.781 29.3138 100.941 28.6736 99.6612 27.7134C98.3812 26.5931 97.1012 25.1527 95.8212 24.0325C93.1012 21.4718 93.1012 21.4718 90.0612 23.8724C90.0612 23.8724 90.0612 24.0325 89.9012 24.1925C89.1012 24.5126 88.6211 24.9927 88.1411 25.6329C85.5811 28.0335 83.6612 30.9142 81.5812 33.6349C81.1012 34.115 80.6212 35.2353 79.8212 34.7552C79.0212 34.2751 79.8212 33.3148 79.8212 32.6747C81.2612 28.6737 83.5012 25.1527 86.0612 21.7919C87.1812 20.9917 88.1412 20.1915 89.4212 19.2312C87.6612 18.271 86.7012 17.6308 85.5812 16.9907C84.3012 16.3505 82.8612 15.5503 81.4212 14.9101C77.7412 13.3097 77.5812 13.3097 75.0212 16.5105C75.0212 16.5105 75.0212 16.5105 75.0212 16.6706C72.6212 19.2312 71.1812 22.272 69.5812 25.3128C68.7812 26.9132 68.1411 28.3536 67.3411 29.954C67.1811 30.4341 66.8612 30.7542 66.3812 30.5941C65.9012 30.4341 65.9012 29.954 66.0612 29.4739C66.0612 28.9937 66.2212 28.3536 66.3812 27.7134C67.1812 23.3923 68.6211 19.0712 70.5411 15.0702C71.1811 13.9499 71.9812 12.8296 72.7812 11.7093C67.9812 10.429 63.1812 9.46873 58.2212 9.30869C57.9012 8.82857 57.5812 8.82858 57.1012 9.14867C55.9812 9.14867 54.8611 9.14867 53.7411 9.14867C53.2611 9.14867 52.7812 8.98861 52.4612 9.30869C48.4612 9.46873 44.4612 9.94886 40.6212 11.3892C36.4612 12.8296 32.4612 14.7501 30.3812 19.0712C29.5812 20.6716 28.7812 22.272 28.6212 24.0325C28.3012 24.9927 28.3012 25.9529 28.4612 26.9132C29.5812 34.115 32.9412 37.796 39.9812 39.3964C46.7012 40.9968 53.5812 42.1171 60.4612 42.9173C62.0612 43.0773 63.6612 43.7175 64.6212 41.797C64.6212 41.797 64.7811 41.637 64.9411 41.4769C64.9411 41.4769 65.1012 41.3169 65.1012 41.1568C65.1012 40.9968 64.7812 41.1568 64.6212 41.1568C64.6212 41.1568 64.3011 41.1568 64.1411 41.1568C63.6611 40.1966 64.4612 39.8765 65.1012 39.7165C67.1812 38.9163 71.0212 39.7165 72.6212 41.797C73.2612 42.4372 74.2212 43.5575 73.1012 44.1976C71.8212 45.1579 72.1411 43.0773 71.3411 42.9173C70.7011 43.2374 70.3812 43.8775 69.9012 44.5177C68.7812 45.3179 68.7812 45.9581 70.2212 46.5982C71.6612 47.2384 73.1012 48.0386 74.3812 48.9988C75.6612 49.9591 76.1412 49.639 76.6212 48.3587C76.7812 48.3587 77.1011 48.0386 76.9411 47.8786C76.7811 47.5585 76.6212 47.7185 76.3012 47.8786C76.3012 47.5585 76.1412 47.5585 75.8212 47.5585C75.8212 47.2384 75.8212 46.9183 76.3012 46.7583C78.8612 45.798 83.1812 48.1986 83.5012 50.9193C83.5012 51.8796 83.3412 52.1997 82.3812 52.1997C82.2212 51.5595 81.9012 51.5595 81.5812 52.1997C81.1012 52.5197 80.4612 52.8398 80.4612 53.48C80.4612 53.48 80.3011 53.64 80.1411 53.8001C78.8611 54.4402 78.0612 55.7206 77.1012 56.6808C71.9812 61.9622 66.8611 67.4036 62.5411 73.4851C61.5811 74.9255 60.6212 76.3658 60.4612 78.1263C60.3012 80.0468 61.1012 80.847 62.8612 80.2068C64.4612 79.7267 65.9011 78.9265 67.3411 77.9663C74.3811 72.6849 80.3012 66.4433 86.2212 60.0417C86.2212 60.0417 86.2212 59.8816 86.2212 59.7216C86.7012 59.7216 87.0212 59.7216 87.0212 59.0814C87.3412 58.6013 88.7812 58.2812 87.0212 57.8011C86.2212 57.481 87.0212 56.8409 87.0212 56.3607C87.1812 56.3607 87.5012 56.3607 87.6612 56.3607C90.7012 56.0407 92.4612 57.481 93.1012 60.5218C93.1012 61.0019 93.4211 61.482 92.9411 61.8021C92.4611 62.1222 92.3012 61.6421 91.9812 61.322C91.6612 61.0019 91.1812 60.5218 90.8612 61.322C90.7012 61.322 90.3812 61.322 90.2212 61.322C90.2212 60.8419 90.2212 60.5218 90.7012 60.2017C91.1812 59.5615 90.7012 59.2415 90.2212 58.7613C89.7412 58.2812 89.2611 58.4413 88.9411 58.7613C87.5011 60.5218 85.7412 62.1222 84.4612 64.0427C82.8612 65.163 81.9012 66.6034 80.6212 67.8837C79.9812 68.5238 79.3412 69.164 78.7012 69.8042C77.4212 71.0845 76.1412 72.3648 74.8612 73.6451C74.3812 74.1253 73.9012 74.6054 73.2612 75.0855C72.9412 75.2456 72.7812 75.4056 72.4612 75.7257C69.7412 77.9662 67.1812 80.2068 63.8212 81.4872C62.5412 81.9673 61.1012 82.2874 59.8212 81.1671C58.7012 80.0468 58.5412 78.6064 59.0212 77.1661C59.5012 75.4056 60.3012 73.9652 61.2612 72.5249C63.0212 69.6441 65.4212 67.4035 67.5012 64.8429C67.9812 64.3628 68.3012 63.8827 68.7812 63.4025C69.5812 62.7624 70.3812 61.9622 70.8612 61.0019C71.6612 60.3618 72.4611 59.7216 72.9411 58.9214C74.3811 57.481 75.6612 56.0406 77.1012 54.6003C78.3812 53.48 79.5012 52.1997 80.7812 51.0794C81.2612 50.5993 81.5812 49.9591 80.7812 49.479C80.1412 48.9988 79.1811 47.8785 78.5411 48.8388C77.2611 50.5992 75.3412 51.8796 74.7012 54.1201C72.9412 55.0804 71.9812 57.0009 70.8612 58.4412C69.9012 59.2415 69.1012 60.2017 68.4612 61.162C67.6612 61.6421 67.1812 62.2822 66.7012 63.0825C65.9012 63.5626 65.2612 64.2027 64.7812 65.0029C63.1812 66.2833 61.5812 67.7236 59.9812 69.004C58.0612 70.4443 56.1412 71.8847 53.9012 72.5249C51.9812 73.165 51.0212 72.2048 51.5012 70.2843C51.8212 68.8439 52.4611 67.5636 52.9411 66.1232C53.4211 65.323 53.7412 64.6829 54.2212 63.8827C54.7012 63.0825 55.1812 62.2822 55.6612 61.482C56.3012 60.6818 56.9412 59.8816 57.2612 58.7613C60.3012 54.7603 63.3412 50.7593 66.3812 46.9183C67.3412 45.798 68.1412 44.8378 69.1012 43.7175C69.4212 43.2374 70.5411 42.5972 69.7411 42.1171C68.9411 41.637 67.8212 40.6767 66.7012 41.797C65.1012 43.5575 63.6612 45.3179 62.2212 47.2384C58.5412 50.9193 55.0212 54.7603 52.3012 59.2415C51.6612 60.0417 51.0212 60.8419 50.7012 61.9622C50.2212 62.4423 49.7412 63.0825 49.5812 63.8827C49.1012 64.5228 48.6212 65.323 48.4612 66.2833C46.8612 69.6441 46.3812 73.005 46.3812 76.6859C46.3812 83.4076 54.3812 89.4892 61.1012 86.7685C66.7012 84.5279 71.3412 81.007 75.6612 77.006C76.6212 76.3658 77.4212 75.4056 78.2212 74.6054C79.5012 73.6451 80.6212 72.5249 81.4212 71.0845C82.2212 70.6044 82.8611 69.9642 83.3411 69.164C83.8211 68.6839 84.4611 68.2038 84.9411 67.7236C85.1011 67.8837 85.4212 68.0437 85.5812 68.2038C82.8612 71.0845 80.7812 74.4454 77.9012 77.1661C73.7412 81.007 69.5812 84.688 64.4612 87.2486C60.6212 89.1691 56.6212 90.1294 52.6212 88.2089C51.9812 87.8888 51.5012 88.2089 51.1812 88.5289C41.7412 98.1314 31.9812 107.414 23.1812 117.656C21.7412 119.417 20.6212 121.177 20.3012 123.578C20.1412 125.658 17.5812 127.419 14.7012 127.739C11.8212 128.059 9.42121 126.619 7.82121 124.218C6.38121 121.978 6.38121 119.577 7.82121 117.336C8.46121 116.376 9.26117 115.416 10.3812 115.096C15.5012 113.975 19.1812 110.455 22.8612 107.094C29.4212 101.012 35.3412 94.2904 41.5812 87.7287C42.0612 87.2486 42.5412 86.4484 43.1812 86.1283C45.7412 84.2078 46.0612 82.2874 45.2612 78.9265C43.6612 73.165 45.7412 67.4036 48.6212 62.2822C51.8212 56.5208 55.9812 51.5595 60.6212 46.9183C61.2612 46.2781 61.9012 45.798 62.7012 44.9978C59.1812 44.0376 55.9812 44.0376 52.7812 43.7175C47.9812 43.0773 43.1811 42.4372 38.5411 40.9968C33.1011 39.5564 29.4212 36.1956 27.8212 30.7542C27.3412 28.9937 26.8611 29.4739 25.7411 30.2741C23.5011 32.0345 21.9012 34.5952 19.0212 35.5554C17.5812 36.0355 16.6212 35.8755 15.8212 34.5952C13.7412 31.0743 13.5812 29.4739 16.6212 27.5534C17.1012 27.2333 17.5811 26.9132 16.9411 26.113C15.5011 24.1925 16.1411 22.272 16.9411 20.3515C17.4211 19.5513 17.9012 18.5911 18.3812 17.7909C19.9812 15.0702 20.9412 14.9101 23.6612 16.6706C24.9412 17.4708 26.0612 18.5911 27.0212 19.7114C27.5012 20.3515 27.9812 20.6716 28.3012 19.7114C31.6612 12.1894 38.3812 9.78881 45.5812 8.50849C58.8612 6.10787 71.6612 8.50849 83.8212 14.1099C95.9812 19.7114 104.781 29.3138 111.661 40.6767C120.141 54.7603 121.901 70.1242 119.341 86.1283C118.061 94.2904 115.661 101.972 110.861 108.854C108.621 111.895 106.061 114.616 102.061 115.416C100.781 115.736 100.301 117.016 101.101 118.137C101.261 118.457 101.581 118.617 101.741 119.097C101.101 119.737 100.941 118.777 100.461 118.777C100.141 118.297 99.8211 117.976 99.3411 118.777C98.5411 120.217 97.5812 121.497 96.6212 122.938C95.3412 122.618 96.3012 121.977 96.3012 121.497C96.4612 120.377 97.4212 119.577 97.5812 118.457C96.3012 118.937 95.6612 120.217 94.2212 120.057C94.7012 119.257 95.3412 118.297 95.8212 117.496C95.8212 117.496 95.8212 117.336 95.6612 117.176C94.8612 117.656 93.9012 118.297 93.1012 118.777C92.9412 118.777 92.6212 118.777 92.6212 119.257C91.8212 119.257 91.1812 119.897 90.3812 120.377C89.9012 120.697 88.7811 120.857 88.9411 121.657C88.9411 122.298 90.0612 122.298 90.7012 122.778C90.7012 122.778 90.7012 122.778 90.8612 122.778C92.9412 123.418 94.3812 124.538 94.2212 126.939C94.2212 128.059 94.8612 127.899 95.5012 127.579C96.9412 127.099 98.5412 126.939 99.9812 127.739C101.741 128.859 103.021 128.219 103.981 126.779C104.301 126.459 104.141 125.979 104.141 125.658C104.141 125.018 102.861 124.058 104.621 123.738L103.981 122.138ZM81.7411 29.6339C81.7411 29.6339 81.5812 29.954 81.4212 30.114C81.4212 29.954 81.4212 29.7939 81.4212 29.6339C81.4212 29.6339 81.4212 29.6339 81.4212 29.4739L81.7411 29.6339ZM83.8212 27.0732C86.2212 24.3525 88.7811 21.7919 92.1411 19.8714C91.5011 19.3913 91.0212 18.9112 90.3812 18.5911C90.0612 18.271 89.9012 18.1109 89.4212 18.5911C87.1812 21.1517 85.1012 23.7124 83.5012 26.5931C83.5012 26.7532 83.1812 26.9132 83.1812 27.0732C83.5012 27.2333 83.8212 27.0732 83.9812 26.9132L83.8212 27.0732ZM19.9812 21.1517C20.7812 20.0314 21.7412 20.6716 22.7012 20.8316C23.6612 20.9917 25.1012 19.8714 24.7812 19.0712C24.6212 18.431 21.2612 15.8704 20.6212 15.8704C19.3412 15.8704 19.1811 17.3107 18.5411 18.1109C18.2211 18.5911 17.9012 19.0712 17.5812 19.5513C16.6212 21.1517 16.1412 22.5921 17.5812 24.3526C18.3812 25.3128 18.0612 26.113 17.1012 26.7532C16.6212 27.0732 16.1412 27.3933 15.8212 27.8734C14.7012 28.9937 15.3411 32.3546 16.9411 33.1548C17.4211 33.4749 17.5812 33.1548 17.9012 32.9948C21.4212 31.7144 23.5012 28.5136 26.2212 26.113C26.5412 25.7929 26.7012 25.4728 26.2212 25.1528C25.9012 24.9927 25.4211 24.9927 24.9411 25.1528C23.9811 25.953 23.0212 26.9132 22.0612 27.7134C21.5812 28.1935 21.1011 28.6737 20.1411 28.3536C20.6211 26.7532 22.0612 25.6329 23.1812 24.5126C24.1412 23.5523 23.8212 22.9122 22.8612 22.272C21.9012 21.7919 20.7812 21.6318 19.9812 20.9917V21.1517ZM48.7812 84.5279C47.3945 82.7141 45.9545 82.6074 44.4612 84.2078C37.5812 91.7298 30.8612 99.4117 23.5012 106.454C19.6612 109.974 15.8211 113.495 10.5411 114.936C7.66113 115.736 7.34113 120.057 9.74113 121.978C11.1811 124.058 13.1011 124.218 15.3411 123.738C17.2611 123.258 18.5412 122.138 18.7012 119.897C18.7012 118.297 19.6612 117.016 20.7812 115.896C24.3012 112.055 27.8211 108.374 31.3411 104.533C37.2611 98.4515 43.3412 92.3699 49.2612 86.2884C50.0612 85.4882 50.5411 84.848 48.9411 84.3679L48.7812 84.5279ZM53.1012 69.4841C54.7012 69.004 56.3012 68.0437 57.9012 66.9234C64.1412 62.2822 69.2612 56.3607 74.0612 50.2792C74.7012 49.479 74.5411 49.3189 73.7411 48.8388C72.1411 47.7185 70.5412 46.7583 68.7812 45.9581C67.9812 45.638 67.6612 45.798 67.1812 46.2782C62.2212 52.1997 57.7412 58.2812 54.0612 65.163C53.4212 66.2833 52.9412 67.4036 52.6212 68.6839C52.6212 69.164 52.4612 69.4841 53.1012 69.324V69.4841ZM101.901 48.0386C105.261 46.9183 108.781 45.638 112.461 45.3179C111.981 44.5177 111.661 43.8775 111.341 43.0773C110.861 41.797 110.221 41.797 109.261 42.4372C106.701 44.0376 104.141 45.638 101.901 48.0386ZM114.701 92.69C115.181 91.0896 115.661 89.6492 115.821 88.0488C113.101 88.0488 110.541 88.529 107.341 89.0091C110.221 90.1294 112.621 91.0896 114.701 92.69ZM76.4612 11.8694C74.6478 11.1225 73.3145 11.4959 72.4612 12.9896C71.0212 15.5503 69.9012 18.271 69.1012 21.1517C71.3412 17.9509 73.2612 14.43 76.4612 11.7093V11.8694ZM103.501 31.3943C103.181 30.9142 102.701 30.4341 102.541 30.114C101.741 28.8337 101.101 28.8337 100.141 30.114C98.5411 32.0345 96.7812 33.795 95.1812 35.7154C95.1812 35.7154 95.3412 36.0355 95.5012 36.1956C98.0612 34.4351 100.461 32.6747 103.501 31.5544V31.3943ZM111.341 60.3618C113.101 60.3618 114.701 60.3618 116.301 60.3618C117.421 60.3618 117.101 59.7216 117.101 59.0814C117.101 58.1212 116.461 58.2812 115.981 58.6013C114.541 59.2415 112.941 59.7216 111.501 60.3618H111.341ZM27.0212 20.0314C25.5812 20.0314 24.9412 20.8317 24.7812 21.9519C24.6212 22.9122 25.1012 23.7124 26.0612 23.7124C26.8612 23.7124 26.5411 22.9122 26.5411 22.432C26.7011 21.7919 26.8612 20.9917 27.0212 20.0314ZM111.501 100.852C112.461 99.5718 112.461 98.7716 110.701 98.6115C109.741 98.6115 108.781 98.1314 107.821 97.9714V98.2915C108.941 99.0917 110.221 100.052 111.501 101.012V100.852ZM95.6612 113.175C96.7812 115.096 97.1012 115.096 98.7012 113.975C97.7412 113.655 96.7812 113.495 95.6612 113.175Z" fill="#12100D"/>
<path d="M93.741 118.296C95.181 118.456 95.8211 117.176 97.1011 116.696C96.9411 117.976 95.9811 118.776 95.8211 119.737C95.8211 120.217 94.861 120.857 96.141 121.177C96.461 122.777 97.2611 122.617 98.2211 121.657C99.3411 120.377 99.8211 118.776 99.9811 117.176C100.461 117.176 100.621 118.136 101.261 117.496C101.261 118.616 102.861 121.337 103.821 121.497C103.821 121.497 103.821 121.337 103.981 121.177C104.301 121.177 104.301 121.657 104.301 121.817C102.701 122.137 103.981 123.097 103.821 123.738C103.821 124.058 103.821 124.538 103.661 124.858C102.541 126.298 101.421 126.938 99.661 125.818C98.221 125.018 96.7811 125.178 95.1811 125.658C94.5411 125.818 93.9011 125.978 93.9011 125.018C94.0611 122.617 92.621 121.497 90.541 120.857C90.541 120.857 90.5411 120.857 90.3811 120.857C89.7411 120.537 88.7811 120.537 88.6211 119.737C88.6211 118.936 89.581 118.776 90.061 118.456C90.701 117.976 91.3411 117.336 92.3011 117.336C92.6211 117.976 92.9411 118.936 93.9011 118.136L93.741 118.296Z" fill="#E9636B"/>
<path d="M103.821 121.497L103.661 121.817C102.701 121.657 101.101 118.936 101.101 117.816C102.541 118.776 103.181 120.217 103.821 121.497Z" fill="#141111"/>
<path d="M87.5006 63.5623C87.0206 64.2025 86.5406 64.8426 85.9006 65.4828C85.5806 65.4828 85.2606 65.4828 85.1006 65.3227C85.5806 64.5225 86.2205 63.8824 86.8605 63.2422L87.5006 63.7223V63.5623Z" fill="#141111"/>
<path d="M88.6204 61.0015C88.9404 61.3215 89.1004 61.4816 89.4204 61.8017C88.3004 61.8017 88.3004 63.082 87.5004 63.5621L86.8604 63.082C86.8604 63.082 87.0204 62.7619 87.1804 62.6019C87.6604 62.1218 88.1404 61.4816 88.6204 61.0015Z" fill="#141111"/>
<path d="M85.1011 65.3226C85.4211 65.3226 85.7411 65.3226 85.9011 65.4827C85.7411 65.8028 85.421 65.9628 85.261 66.2829C85.101 66.1228 84.7811 65.9628 84.6211 65.8028C84.7811 65.6427 84.9411 65.4827 85.1011 65.1626V65.3226Z" fill="#12100D"/>
<path d="M110.541 97.491C108.781 97.1709 107.021 96.6908 105.101 96.3707C104.621 96.3707 103.821 95.7306 103.661 96.3707C103.341 97.1709 104.301 97.331 104.781 97.651C106.221 98.6113 107.821 99.2515 109.101 100.372C108.461 102.772 107.181 104.693 105.741 106.613C104.301 108.694 102.701 110.614 100.141 111.415C99.6607 111.094 99.3407 110.774 98.8607 110.614C93.5807 108.214 91.8208 103.413 92.6208 98.1312C93.4208 93.1699 94.3807 88.2086 95.6607 83.4074C96.1407 81.4869 96.6208 79.4064 96.6208 77.3259C96.6208 70.7642 95.3408 64.5226 90.3808 59.7214C90.7008 58.9212 91.1808 59.2412 91.5008 59.7214C91.8208 60.0414 91.9807 60.5216 92.4607 60.2015C92.9407 59.8814 92.7808 59.4013 92.6208 58.9212C92.1408 56.0404 90.2208 54.6001 87.1808 54.7601C87.0208 54.7601 86.7007 54.7601 86.5407 54.7601C84.9407 53.4798 83.3407 52.3595 82.0607 50.9191C83.0207 50.9191 83.3408 50.599 83.1808 49.6388C82.8608 46.9181 78.5408 44.5175 75.9808 45.4777C75.5008 45.6378 75.5008 45.9578 75.5008 46.438C73.4208 45.7978 71.8208 44.0374 69.5808 43.5572C69.9008 42.9171 70.3808 42.2769 71.0208 41.9568C71.8208 42.1169 71.6608 44.1974 72.7808 43.2371C73.7408 42.4369 72.7808 41.4767 72.3008 40.8365C70.7008 38.916 66.8608 37.9558 64.7808 38.756C64.1408 39.0761 63.3408 39.2361 63.8208 40.1964C63.0208 40.1964 62.2208 39.8763 61.4208 39.8763C55.3408 39.0761 49.4207 38.596 43.3407 37.4757C34.8607 35.8753 30.2208 32.3544 29.1008 24.1923C29.1008 23.7122 29.1008 22.9119 28.3008 22.9119C28.3008 20.9915 29.2607 19.5511 30.0607 17.9507C31.9807 17.1505 33.7408 15.7101 35.8208 15.07C40.4608 13.6296 45.2608 12.8294 50.2208 12.5093C50.3808 13.3095 49.9007 14.1097 49.7407 14.9099C48.9407 17.6306 48.3008 20.5113 48.3008 23.3921C48.3008 24.5124 47.6608 26.2728 48.6208 26.5929C49.9008 26.913 50.0608 24.9925 50.3808 23.8722C51.8208 19.8712 53.2607 15.8701 55.6607 12.1892C60.6207 12.1892 65.4208 12.6693 70.2208 14.2697C68.3008 18.2708 67.0207 22.5919 66.0607 26.913C66.0607 27.5531 65.9007 28.0333 65.7407 28.6734C65.7407 29.1536 65.7407 29.6337 66.0607 29.7937C66.5407 29.9538 66.8608 29.4736 67.0208 29.1536C67.8208 27.5531 68.4607 26.1128 69.2607 24.5124C70.7007 21.4716 72.3008 18.2708 74.7008 15.8702C78.5408 17.1505 82.2207 19.071 85.7407 20.9915C83.1807 24.3523 80.9408 27.8732 79.5008 31.8742C79.3408 32.5144 78.5408 33.4747 79.5008 33.9548C80.3008 34.4349 80.7807 33.4746 81.2607 32.8345C83.3407 30.1138 85.2608 27.233 87.8208 24.8324C88.3008 24.3523 88.9408 23.7122 89.5808 23.3921C92.6208 25.4726 95.3407 27.8732 98.0607 30.4339C95.5007 33.4746 93.1007 36.3554 90.8607 39.5562C90.5407 40.0363 89.9008 40.5165 90.3808 40.9966C91.0208 41.6367 91.5008 40.8365 91.9808 40.5164C95.0208 38.2759 97.9008 35.7152 101.421 34.1148C103.181 36.9955 105.101 39.8763 106.861 42.597C103.981 44.5175 101.101 46.598 98.8607 49.3187C98.5407 49.7988 97.5808 50.279 98.2208 51.0792C98.7008 51.7193 99.3408 51.0791 99.9808 50.9191C103.021 49.6388 106.061 48.0384 109.421 47.5583C110.541 51.2392 112.621 54.6 113.421 58.441C111.181 59.5613 108.781 60.5216 106.701 61.9619C106.381 62.282 105.901 62.4421 106.061 62.9222C106.221 63.5623 106.861 63.2423 107.181 63.0822C109.421 62.4421 111.661 61.8019 114.061 61.9619C114.701 65.6429 114.701 69.3238 114.861 73.0048C112.621 73.805 110.541 74.6052 108.301 75.4054C107.821 75.5654 107.181 75.7255 107.341 76.3656C107.341 76.8457 107.981 76.8457 108.461 76.8457C110.381 76.8457 112.301 77.1658 114.221 78.1261C113.741 81.1668 113.421 84.2076 112.941 87.2484C110.381 87.5685 107.821 88.0486 105.261 88.3687C104.781 88.3687 104.301 88.3687 104.301 89.0088C104.301 89.489 104.781 89.649 105.261 89.8091C107.501 90.6093 109.741 91.0894 111.661 92.5297C111.661 94.2902 110.861 95.8906 110.381 97.491H110.541ZM38.8607 32.6745C39.1807 32.6745 39.6608 32.6745 39.8208 32.3544C40.1408 31.8743 39.6607 31.7142 39.3407 31.5542C38.3807 31.074 37.5808 30.754 36.6208 30.2738C35.9808 29.9538 35.3408 30.1138 35.1808 30.754C35.0208 31.3941 35.5008 31.8742 35.9808 32.0343C36.9408 32.3544 37.9007 32.5144 38.8607 32.8345V32.6745ZM34.5407 20.3513C35.5007 19.231 36.4608 18.1107 37.5808 16.9904C37.9008 16.6704 38.2207 16.3503 37.7407 15.8702C37.2607 15.39 36.9408 15.8702 36.6208 15.8702C35.1808 16.9904 34.3808 18.4308 34.7008 20.3513H34.5407ZM33.5808 24.8324C33.5808 24.1923 33.5808 23.3921 32.6208 23.3921C31.9808 23.3921 31.8208 24.0322 31.8208 24.5124C31.8208 25.3126 31.8207 26.5929 32.9407 26.5929C33.7407 26.5929 33.2608 25.3126 33.5808 24.6724V24.8324Z" fill="#E9636B"/>
<path d="M67.1804 63.4022C65.1004 65.9629 62.7003 68.3635 60.9403 71.0842C59.9803 72.5246 59.1804 73.9649 58.7004 75.7254C58.2204 77.3258 58.3804 78.6061 59.5004 79.7264C60.6204 80.8467 62.0604 80.5266 63.5004 80.0465C66.8604 78.7662 69.5803 76.5256 72.1403 74.285C72.3003 74.125 72.6203 73.9649 72.9403 73.6448C72.9403 74.4451 73.5803 74.4451 74.0603 74.4451C74.5403 74.4451 75.0204 74.4451 75.1804 75.0852C70.8604 79.2463 66.2204 82.6071 60.6204 84.8477C53.9004 87.5684 45.9004 81.4869 45.9004 74.7652C45.9004 71.2443 46.3804 67.7234 47.9804 64.3625C49.4204 64.3625 51.0204 64.3625 52.4604 64.3625C51.9804 65.8029 51.3404 67.0832 51.0204 68.5235C50.5404 70.444 51.5004 71.4043 53.4204 70.7641C55.6604 70.124 57.7404 68.6836 59.5004 67.2432C61.1004 65.9629 62.7004 64.5225 64.3004 63.2422C65.2604 63.2422 66.0604 63.2422 67.0204 63.2422L67.1804 63.4022Z" fill="#CEC8C8"/>
<path d="M85.9009 57.9608V58.2809C79.9809 64.6826 74.0609 71.0842 67.0209 76.2055C65.7409 77.1657 64.1408 77.9659 62.5408 78.4461C60.6208 79.0862 59.8208 78.286 60.1408 76.3655C60.3008 74.6051 61.2609 73.1647 62.2209 71.7243C66.5409 65.6428 71.6609 60.2014 76.7809 54.92C77.7409 53.9598 78.5409 52.6795 79.8209 52.0393C81.5809 54.2799 83.9809 55.7203 85.9009 57.8008V57.9608Z" fill="#FAFAFA"/>
<path d="M53.1009 69.4838C52.3009 69.4838 52.4609 69.1637 52.6209 68.8436C52.9409 67.5633 53.4208 66.443 54.0608 65.3227C57.7408 58.601 62.2208 52.3594 67.1808 46.4379C67.6608 45.7977 67.9808 45.6377 68.7808 46.1178C70.5408 46.918 72.1408 47.8782 73.7408 48.9985C74.3808 49.4787 74.5408 49.7987 74.0608 50.4389C69.2608 56.5204 64.1409 62.2819 57.9009 67.0832C56.4609 68.2034 54.8609 69.1637 53.1009 69.6438V69.4838Z" fill="#FAFAFA"/>
<path d="M9.5811 122.137C7.1811 120.217 7.6611 115.896 10.3811 115.095C15.6611 113.655 19.5011 110.134 23.3411 106.613C30.7011 99.5714 37.4211 91.8894 44.3011 84.3675C45.7945 82.7671 47.2345 82.8738 48.6211 84.6876C47.0211 85.1677 46.2211 86.448 45.1011 87.5683C38.0611 95.4103 30.7011 102.772 23.3411 110.294C19.6611 113.975 16.1411 117.656 11.1811 119.737C10.0611 120.217 9.10113 121.017 9.42113 122.297L9.5811 122.137Z" fill="#CEC8C8"/>
<path d="M9.58093 122.137C9.42093 120.697 10.2209 119.897 11.3409 119.577C16.3009 117.496 19.821 113.975 23.501 110.134C30.861 102.612 38.2209 95.2503 45.2609 87.4083C46.2209 86.288 47.1809 85.0077 48.7809 84.5276C50.3809 85.0077 49.901 85.6479 49.101 86.4481C43.021 92.5296 37.1009 98.6112 31.1809 104.693C27.6609 108.374 24.141 112.215 20.621 116.056C19.661 117.176 18.7009 118.616 18.5409 120.057C18.5409 122.297 17.2609 123.418 15.1809 123.898C13.1009 124.378 11.0209 124.218 9.58093 122.137Z" fill="#5F6060"/>
<path d="M90.5403 59.7215C95.5003 64.5228 96.6204 70.7644 96.7804 77.3261C96.7804 79.4066 96.4604 81.3271 95.8204 83.4076C94.3804 88.2088 93.4204 93.1701 92.7804 98.1314C91.9804 103.413 93.7404 108.374 99.0204 110.615C99.5004 110.775 99.8204 111.095 100.3 111.415C100.3 111.415 100.3 111.575 100.3 111.735C96.1404 112.055 93.2604 110.134 91.8204 105.973C90.0604 100.532 90.2204 95.2506 91.9804 89.8092C93.9004 83.8877 94.8604 77.9662 94.3804 71.7246C94.0604 67.8836 93.1004 64.2027 90.3804 61.322C90.0604 61.0019 90.0604 60.3617 89.9004 59.8816V59.5615C90.0604 59.5615 90.3803 59.5615 90.5403 59.5615V59.7215Z" fill="#F5F5F1"/>
<path d="M20.1405 28.3533C20.9405 28.8334 21.4205 28.1933 22.0605 27.7131C23.0205 26.9129 23.9805 26.1127 24.9405 25.1525C25.4205 24.8324 25.7406 24.8324 26.2206 25.1525C26.7006 25.4726 26.3806 25.7926 26.2206 26.1127C23.5006 28.5133 21.4205 31.7142 17.9005 32.9945C17.5805 32.9945 17.4205 33.4746 16.9405 33.1545C15.5005 32.3543 14.7006 28.9935 15.8206 27.8732C16.3006 27.5531 16.7805 27.073 17.1005 26.7529C18.0605 26.1127 18.3805 25.1525 17.5805 24.3523C16.3005 22.7519 16.6205 21.1515 17.5805 19.5511C17.9005 19.0709 18.0605 18.5908 18.5405 18.1107C19.1805 17.3105 19.3406 16.0302 20.6206 15.8701C21.2606 15.8701 24.6205 18.4308 24.7805 19.0709C24.9405 19.7111 23.5005 20.9914 22.7005 20.8314C21.7405 20.6713 20.7805 20.0312 19.9805 21.1515C19.5005 21.1515 19.1805 21.4716 19.3405 21.9517C19.5005 23.392 21.1005 22.7519 21.9005 23.7121C21.1005 24.6724 19.9805 25.4726 19.3405 26.5929C18.7005 27.5531 18.7005 28.5133 20.3005 28.5133L20.1405 28.3533Z" fill="#E9636B"/>
<path d="M28.4607 22.752C29.2607 22.752 29.2607 23.5521 29.2607 24.0323C30.3807 32.1943 35.0208 35.5552 43.5008 37.3157C49.4208 38.4359 55.5007 38.9161 61.5807 39.7163C62.3807 39.7163 63.1807 39.8763 63.9807 40.0364C63.9807 40.0364 64.3007 40.3564 64.4607 40.5165C63.5007 42.437 61.9008 41.7968 60.3008 41.6368C53.4208 40.9966 46.5408 39.7163 39.8208 38.1159C32.7808 36.3554 29.4208 32.6745 28.3008 25.6327C28.3008 24.6724 28.1407 23.7122 28.4607 22.752Z" fill="#F5F5F1"/>
<path d="M50.2206 12.3492C45.4206 12.6693 40.4606 13.4695 35.8206 14.9098C33.7406 15.55 31.9805 16.8303 30.0605 17.7906C32.1405 13.4695 36.1406 11.549 40.3006 10.1086C44.1406 8.82829 48.1405 8.34816 52.1405 8.02808C51.5005 9.46844 50.8606 10.9088 50.2206 12.1891V12.3492Z" fill="#FAC4C7"/>
<path d="M51.8213 57.6406C54.5413 53.1595 58.0612 49.3185 61.7412 45.6376C63.1812 46.1177 64.6212 45.4775 66.0612 45.4775C63.0212 49.4786 59.9812 53.4796 56.9412 57.3206C55.3412 57.3206 53.5813 57.6406 51.9813 57.6406H51.8213Z" fill="#CEC8C8"/>
<path d="M70.3813 13.9499C65.5813 12.5095 60.7813 12.0294 55.8213 11.8693C56.3013 10.4289 57.7412 9.62873 58.0612 8.02832C63.0212 8.02832 67.8213 8.98857 72.6213 10.4289C71.8213 11.7093 71.1813 12.8296 70.3813 13.7898V13.9499Z" fill="#FAC4C7"/>
<path d="M85.9004 20.5111C82.2204 18.5906 78.7004 16.8302 74.8604 15.3898C74.8604 15.3898 74.8604 15.3898 74.8604 15.2298C77.4204 12.029 77.5804 12.029 81.2604 13.6294C82.7004 14.2695 83.9804 14.9097 85.4204 15.7099C86.5404 16.3501 87.5004 16.9902 89.2604 17.9505C87.9804 18.9107 87.0204 19.7109 85.9004 20.5111Z" fill="#FAC4C7"/>
<path d="M57.9008 8.18825C57.5808 9.62862 56.1407 10.5889 55.6607 12.0292C53.2607 15.5501 51.9807 19.7112 50.3807 23.7122C50.0607 24.6725 49.9008 26.5929 48.6208 26.4329C47.6608 26.2729 48.3008 24.3524 48.3008 23.2321C48.3008 20.3513 48.9407 17.6307 49.7407 14.7499C49.9007 13.9497 50.3808 13.1495 50.2208 12.3493C50.8608 10.909 51.5007 9.46858 52.1407 8.18825C52.4607 7.70813 52.9408 7.86816 53.4208 8.0282C51.3408 13.1495 49.4208 18.4309 49.1008 24.0323C51.0208 18.4309 53.4208 12.9895 56.6208 8.18825C57.1008 8.02821 57.4207 7.86818 57.7407 8.3483L57.9008 8.18825Z" fill="#141111"/>
<path d="M113.581 58.1209C112.781 54.2799 110.701 50.919 109.581 47.2381C112.941 46.2778 113.101 46.2779 114.221 49.4787C114.861 51.0791 115.341 52.6795 115.821 54.1199C116.621 57.1606 116.621 57.1606 113.581 57.9609V58.1209Z" fill="#FAC4C7"/>
<path d="M98.3804 30.1136C95.6604 27.553 92.9404 25.1524 89.9004 23.0718C89.9004 23.0718 89.9004 22.9118 90.0604 22.7518C93.1004 20.5112 93.1004 20.5112 95.8204 22.9118C97.1004 24.1921 98.2204 25.4725 99.6604 26.5927C100.78 27.553 100.62 28.1932 99.6604 28.9934C99.1804 29.3134 98.8603 29.6335 98.5403 29.9536L98.3804 30.1136Z" fill="#FAC4C7"/>
<path d="M115.021 72.8448C115.021 69.1639 115.021 65.3229 114.221 61.802C117.261 61.1618 117.421 61.3219 117.741 64.2026C117.901 66.9233 118.221 69.804 117.741 72.5247C116.781 72.3647 115.821 72.6848 115.021 72.8448Z" fill="#FAC4C7"/>
<path d="M107.181 42.4369C105.421 39.5562 103.501 36.6754 101.741 33.9547C104.461 32.3543 104.461 32.3543 106.221 34.7549C107.341 36.3554 108.301 37.9558 109.421 39.5562C110.381 40.8365 110.061 41.4767 108.621 41.9568C108.141 42.1168 107.661 42.4369 107.181 42.5969V42.4369Z" fill="#FAC4C7"/>
<path d="M56.7808 7.86806C53.5808 12.8293 51.0207 18.1107 49.2607 23.7121C49.5807 18.1107 51.5008 12.8293 53.5808 7.70801C54.7008 7.70801 55.8207 7.70801 56.9407 7.70801L56.7808 7.86806Z" fill="#FAC4C7"/>
<path d="M113.261 87.0884C113.741 84.0476 114.061 81.0068 114.541 77.9661C115.661 77.9661 116.301 78.9263 117.421 78.9263C117.101 80.6867 116.941 82.6073 116.621 84.3677C116.141 87.0884 116.141 87.0884 113.261 87.0884Z" fill="#FAC4C7"/>
<path d="M117.421 78.9262C116.301 78.9262 115.501 77.966 114.541 77.966C112.781 77.1658 110.861 76.8457 108.781 76.6857C108.301 76.6857 107.821 76.6857 107.661 76.2056C107.501 75.5654 108.141 75.4053 108.621 75.2453C110.861 74.4451 112.941 73.6449 115.181 72.8447C116.141 72.8447 116.941 72.3646 117.901 72.5246C118.221 72.8447 118.221 73.0047 117.901 73.3248C115.821 74.125 113.581 74.2851 111.341 75.5654C113.581 76.2056 115.661 76.8457 117.421 77.966C117.421 78.2861 117.421 78.6062 117.421 78.9262Z" fill="#141111"/>
<path d="M100.141 111.735C100.141 111.735 100.141 111.575 100.141 111.415C102.701 110.614 104.301 108.694 105.741 106.613C107.181 104.693 108.461 102.772 109.101 100.372C110.487 101.225 110.754 102.346 109.901 103.733C108.461 105.973 107.021 108.214 104.781 109.974C103.341 111.095 101.901 111.895 100.141 111.735Z" fill="#FAC4C7"/>
<path d="M101.9 48.0385C103.98 45.6379 106.54 44.0375 109.26 42.4371C110.22 41.7969 110.86 41.7969 111.34 43.0773C111.66 43.8775 112.14 44.5176 112.46 45.3178C108.78 45.6379 105.26 46.9182 101.9 48.0385Z" fill="#FAC4C7"/>
<path d="M65.9011 45.3178C64.4611 45.3178 63.0211 45.958 61.5811 45.4779C63.0211 43.7174 64.461 41.7969 66.061 40.0365C67.021 38.9162 68.3011 39.8764 69.1011 40.3566C69.9011 40.9967 68.941 41.4768 68.461 41.957C67.661 43.0772 66.701 44.0375 65.741 45.1578L65.9011 45.3178Z" fill="#5F6060"/>
<path d="M74.3809 52.5196C75.1809 50.279 76.9409 48.9986 78.2209 47.2382C78.8609 46.438 79.8208 47.5583 80.4608 47.8784C81.2608 48.3585 80.9408 48.9987 80.4608 49.4788C79.1808 50.5991 78.0609 51.8794 76.7809 52.9997C75.9809 52.9997 75.1809 52.8396 74.3809 52.3595V52.5196Z" fill="#5F6060"/>
<path d="M114.701 92.6898C112.621 90.9293 110.061 90.1291 107.341 89.0088C110.541 88.6888 113.101 88.0486 115.821 88.0486C115.821 89.649 115.181 91.0894 114.701 92.6898Z" fill="#FAC4C7"/>
<path d="M76.4605 11.8692C73.2605 14.5899 71.3406 17.9507 69.1006 21.3116C69.9006 18.4308 71.0205 15.7101 72.4605 13.1495C73.3139 11.6558 74.6472 11.2823 76.4605 12.0292V11.8692Z" fill="#FAC4C7"/>
<path d="M89.9007 60.0415C89.2607 60.2015 88.9407 60.6816 88.7807 61.1618C88.3007 61.6419 87.8206 62.2821 87.3406 62.7622C86.3806 62.122 85.2606 63.0823 84.1406 62.7622C85.4206 60.6816 87.1807 59.2413 88.6207 57.4808C88.9407 57.0007 89.4207 56.8407 89.9007 57.4808C90.2207 57.8009 90.8607 58.281 90.3807 58.9212C90.0607 59.2413 89.9007 59.5613 89.9007 60.0415Z" fill="#5F6060"/>
<path d="M103.501 31.3941C100.461 32.5144 97.9007 34.2748 95.5007 36.0353C95.5007 36.0353 95.3407 35.7152 95.1807 35.5552C96.7807 33.6347 98.5406 31.8742 100.141 29.9537C101.101 28.8335 101.741 28.8335 102.541 29.9537C102.861 30.4339 103.181 30.7539 103.501 31.234V31.3941Z" fill="#FAC4C7"/>
<path d="M20.1406 28.3536C18.7006 28.3536 18.7006 27.3933 19.1806 26.4331C19.8206 25.3128 20.9406 24.5126 21.7406 23.5524C21.1006 22.7522 19.3406 23.2323 19.1806 21.7919C19.1806 21.3118 19.5007 21.1517 19.8207 20.9917C20.6207 21.6319 21.7407 21.7919 22.7007 22.272C23.6607 22.7522 24.1407 23.5523 23.0207 24.5126C21.9007 25.6329 20.4606 26.5931 19.9806 28.3536H20.1406Z" fill="#F5F5F1"/>
<path d="M83.9808 62.6022C84.9408 63.0823 86.0608 61.962 87.1808 62.6022C87.1808 62.6022 87.0207 62.9223 86.8607 63.0823C86.2207 63.7225 85.5808 64.3627 85.1008 65.1629C84.9408 65.3229 84.7808 65.4829 84.6208 65.803C84.1408 66.2831 83.5008 66.7633 83.0208 67.2434L80.3008 66.4432C81.5808 65.0028 82.5407 63.5624 84.1407 62.6022H83.9808Z" fill="#CEC8C8"/>
<path d="M83.3408 26.7528C84.9408 23.8721 87.1808 21.3114 89.2608 18.7508C89.7408 18.2707 89.9009 18.4307 90.2209 18.7508C90.7009 19.0709 91.1809 19.551 91.9809 20.0311C88.6209 21.7915 86.0608 24.3522 83.6608 27.2329C83.6608 27.2329 83.3408 27.0729 83.3408 26.9128V26.7528Z" fill="#CEC8C8"/>
<path d="M117.421 77.9659C115.661 76.8456 113.581 76.3655 111.341 75.5653C113.581 74.285 115.821 74.1249 117.901 73.3247C117.901 74.9251 117.581 76.3655 117.421 77.9659Z" fill="#FAC4C7"/>
<path d="M74.3809 72.2045C75.6609 70.9242 76.9409 69.6439 78.2209 68.3635C78.8609 69.3238 79.9808 69.0037 80.9408 69.1637C80.1408 70.6041 79.0208 71.7244 77.7408 72.6846C76.6208 72.6846 75.5009 72.3645 74.3809 72.2045Z" fill="#CEC8C8"/>
<path d="M69.741 43.2373C71.981 43.7174 73.581 45.4779 75.661 46.118C75.661 46.4381 75.821 46.4381 76.141 46.4381C76.141 46.7582 76.141 46.9183 76.461 47.0783C75.981 48.3586 75.5011 48.6787 74.2211 47.7185C72.9411 46.7582 71.501 45.958 70.061 45.3178C68.621 44.6777 68.781 44.0375 69.741 43.2373Z" fill="#F5F5F1"/>
<path d="M51.8207 57.6409C53.4207 57.6409 55.1807 57.3208 56.7807 57.3208C56.4607 58.281 55.8207 59.0812 55.1807 60.0415C53.5807 60.0415 51.8207 60.3616 50.2207 60.3616C50.5407 59.4013 51.1807 58.4411 51.8207 57.6409Z" fill="#F5F5F1"/>
<path d="M74.3811 52.5195C75.1811 52.8396 75.9811 52.9997 76.7811 53.1597C75.3411 54.6001 74.0611 56.0404 72.6211 57.4808C72.1411 56.6806 71.181 57.0007 70.541 57.0007C71.821 55.5603 72.6211 53.6398 74.3811 52.6796V52.5195Z" fill="#CEC8C8"/>
<path d="M110.541 97.4911C111.021 95.8907 111.661 94.2902 111.821 92.5298C112.781 92.8499 114.061 93.1699 114.061 94.1302C114.061 95.4105 113.421 96.6909 112.781 97.8111C112.301 98.4513 111.341 97.6511 110.541 97.4911Z" fill="#FAC4C7"/>
<path d="M82.0604 50.7592C83.3404 52.1995 85.1004 53.4799 86.5404 54.6001C86.5404 55.0803 85.9004 55.7204 86.5404 56.0405C88.3004 56.5206 86.8604 57.0008 86.5404 57.3208C84.6204 55.2403 82.8605 52.8397 79.9805 51.8795C79.9805 51.2393 80.6205 50.9192 81.1005 50.5991C81.4205 50.5991 81.5805 50.5991 81.9005 50.5991L82.0604 50.7592Z" fill="#F5F5F1"/>
<path d="M52.4604 64.5224C51.0204 64.5224 49.4205 64.5224 47.9805 64.5224C47.9805 63.7222 48.4605 62.922 49.1005 62.1218C50.7005 62.6019 52.3004 61.1616 53.7404 62.1218C53.2604 62.922 52.9404 63.5622 52.4604 64.3624V64.5224Z" fill="#FAFAFA"/>
<path d="M80.1412 51.8794C83.0212 52.9997 84.7813 55.2402 86.7013 57.3208C86.7013 57.8009 86.3813 57.961 85.9013 57.961C83.9813 55.8804 81.5813 54.28 79.8213 52.1995C79.8213 52.1995 79.9812 52.0394 80.1412 51.8794Z" fill="#141111"/>
<path d="M99.6612 117.176C99.5012 118.777 99.0213 120.377 97.9013 121.657C97.1013 122.778 96.3013 122.938 95.8213 121.177C96.7813 119.737 97.7412 118.457 98.5412 117.016C99.0212 116.216 99.3412 116.536 99.6612 117.016V117.176Z" fill="#F5F5F1"/>
<path d="M53.7405 62.2821C52.1405 61.1618 50.5406 62.6022 49.1006 62.2821C49.2606 61.4819 49.7406 60.8417 50.2206 60.3616C51.8206 60.3616 53.5806 60.0415 55.1806 60.0415C54.7006 60.8417 54.2205 61.6419 53.7405 62.4421V62.2821Z" fill="#CEC8C8"/>
<path d="M80.9406 69.1638C79.9806 69.1638 78.8607 69.3239 78.2207 68.3636C78.8607 67.7235 79.5006 67.0833 80.1406 66.4431L82.8606 67.2433C82.3806 68.0435 81.7406 68.6837 80.9406 69.1638Z" fill="#F5F5F1"/>
<path d="M74.3805 72.2046C75.5005 72.2046 76.6204 72.5247 77.7404 72.6847C77.1004 73.645 76.1405 74.4452 75.1805 75.0853C75.0205 74.4452 74.5404 74.4452 74.0604 74.4452C73.4204 74.4452 72.9404 74.4452 72.9404 73.6449C73.4204 73.1648 73.9004 72.6847 74.5404 72.2046H74.3805Z" fill="#F5F5F1"/>
<path d="M70.5406 56.8407C71.1806 56.8407 72.1407 56.6807 72.6207 57.3208C72.1407 58.2811 71.3406 58.9212 70.5406 59.4014C69.7406 59.4014 68.9406 59.4014 68.1406 59.4014C68.7806 58.4411 69.5806 57.4809 70.5406 56.6807V56.8407Z" fill="#F5F5F1"/>
<path d="M111.341 60.3616C112.781 59.7214 114.381 59.0813 115.821 58.6011C116.461 58.4411 116.941 58.2811 116.941 59.0813C116.941 59.7214 117.261 60.3616 116.141 60.3616C114.541 60.3616 112.941 60.3616 111.181 60.3616H111.341Z" fill="#CEC8C8"/>
<path d="M27.0213 20.0312C26.8613 20.9915 26.7013 21.7917 26.5413 22.4319C26.5413 22.912 26.8613 23.8722 26.0613 23.7122C25.1013 23.7122 24.6213 22.752 24.7813 21.9518C24.9413 20.8315 25.5813 20.1913 27.0213 20.0312Z" fill="#CEC8C8"/>
<path d="M68.1408 59.5613C68.9408 59.5613 69.7408 59.5613 70.5408 59.5613C70.0608 60.5215 69.2608 61.1617 68.4608 61.9619C67.6608 61.9619 67.0209 61.9619 66.3809 61.4818C66.8609 60.6816 67.5008 60.0414 68.1408 59.5613Z" fill="#CEC8C8"/>
<path d="M111.501 100.852C110.221 99.8916 108.941 98.9313 107.661 98.1311V97.811C108.781 98.1311 109.741 98.4512 110.701 98.4512C112.461 98.6112 112.461 99.4114 111.501 100.692V100.852Z" fill="#CEC8C8"/>
<path d="M93.7406 118.296C92.6206 119.096 92.4606 118.136 92.1406 117.496C92.4606 117.496 92.4607 117.336 92.6207 117.016C93.4207 116.536 94.3807 115.896 95.1807 115.416C95.1807 115.416 95.1806 115.576 95.3406 115.736C94.8606 116.536 94.2206 117.496 93.7406 118.296Z" fill="#FAC4C7"/>
<path d="M66.381 61.4819C67.021 61.9621 67.6609 61.9621 68.4609 61.9621C67.9809 62.4422 67.661 62.9223 67.181 63.4024C66.221 63.4024 65.4209 63.4024 64.4609 63.4024C64.9409 62.6022 65.581 61.9621 66.381 61.4819Z" fill="#F5F5F1"/>
<path d="M95.6611 113.175C96.9411 113.495 97.7412 113.655 98.7012 113.975C97.1012 115.095 96.7811 115.095 95.6611 113.175Z" fill="#E9636B"/>
<path d="M103.341 125.178C103.341 124.858 103.341 124.378 103.501 124.058C103.501 124.378 103.501 124.858 103.341 125.178Z" fill="#141111"/>
<path d="M81.7412 29.6338C81.7412 29.7938 81.7412 29.9539 81.7412 30.1139C81.7412 30.1139 81.9012 29.7938 82.0612 29.6338H81.7412Z" fill="#141111"/>
<path d="M82.0607 50.759C81.7407 50.759 81.5807 50.759 81.2607 50.759C81.5807 50.2789 81.9007 50.2789 82.0607 50.759Z" fill="#E9636B"/>
<path d="M83.8205 27.073C83.6605 27.3931 83.3405 27.3931 83.0205 27.233C83.0205 27.073 83.3404 26.913 83.3404 26.7529C83.3404 26.7529 83.6604 26.913 83.6604 27.073H83.8205Z" fill="#CEC8C8"/>
<path d="M76.3008 47.078C75.9808 47.078 75.8207 46.7579 75.9807 46.4378C76.1407 46.4378 76.4608 46.2778 76.6208 46.4378C76.7808 46.7579 76.6208 46.918 76.3008 46.918V47.078Z" fill="#E9636B"/>
<path d="M64.3013 40.3566C64.3013 40.3566 63.9813 40.0365 63.8213 39.8765C63.8213 39.8765 64.1413 39.8765 64.3013 39.8765C64.3013 39.8765 64.4613 40.0365 64.6213 40.1965C64.6213 40.1965 64.4613 40.3566 64.3013 40.5166V40.3566Z" fill="#E9636B"/>
<path d="M92.4604 117.016C92.4604 117.176 92.4605 117.496 91.9805 117.496C91.9805 117.176 92.1404 117.176 92.4604 117.016Z" fill="#E9636B"/>
<path d="M64.3008 39.8763C64.3008 39.8763 64.6208 39.7163 64.7808 39.8763C64.7808 39.8763 64.7808 40.0363 64.6208 40.1964C64.6208 40.1964 64.4608 40.0363 64.3008 39.8763Z" fill="#E9636B"/>
<path d="M75.981 46.438C75.661 46.438 75.501 46.438 75.501 46.1179C75.661 46.1179 75.981 46.1179 75.981 46.438Z" fill="#E9636B"/>
<path d="M38.8609 32.6743C37.9009 32.3542 36.941 32.1942 35.981 31.8741C35.341 31.7141 34.861 31.2339 35.181 30.5938C35.341 29.9536 35.981 29.7936 36.621 30.1137C37.581 30.5938 38.5409 30.9139 39.3409 31.394C39.6609 31.554 40.141 31.8741 39.821 32.1942C39.821 32.3542 39.3409 32.3542 38.8609 32.5143V32.6743Z" fill="#141111"/>
<path d="M34.5408 20.3512C34.3808 18.4307 35.1808 16.9904 36.4608 15.8701C36.7808 15.55 37.2609 15.2299 37.5809 15.8701C38.0609 16.3502 37.5809 16.6703 37.4209 16.9904C36.4609 18.1107 35.5009 19.231 34.3809 20.3512H34.5408Z" fill="#141111"/>
<path d="M33.5812 24.8326C33.2612 25.4727 33.5812 26.7531 32.9412 26.7531C31.9812 26.7531 31.9813 25.4727 31.8213 24.6725C31.8213 24.1924 31.8213 23.5522 32.6213 23.5522C33.5813 23.5522 33.5812 24.1924 33.5812 24.9926V24.8326Z" fill="#141111"/>
</svg>
