<svg width="229" height="179" viewBox="0 0 229 179" fill="none" xmlns="http://www.w3.org/2000/svg">
<path d="M228.48 158.457C228.32 160.536 227.68 162.615 226.72 164.373C225.6 166.452 224 167.891 221.76 168.371C210.88 170.929 199.84 172.688 188.8 173.807C174.72 175.246 160.48 176.365 146.4 177.485C142.4 177.805 138.4 178.124 134.4 178.284C125.76 178.764 118.24 176.365 112.32 169.65C108.32 165.013 104.48 160.216 100.64 155.419C93.92 146.945 86.72 138.95 78.4 131.915C75.04 129.037 71.36 126.638 67.2 124.879C66.4 124.56 65.28 124.4 65.28 123.28C65.28 122.001 66.56 122.001 67.36 121.681C73.28 119.763 79.36 118.803 85.44 117.684C96 115.605 106.24 112.887 116.96 111.288C124.8 110.169 132.64 109.37 140.32 107.771C144.16 106.971 146.56 108.41 149.12 110.809C165.92 126.638 184.32 140.709 204 153.021C204.96 153.501 205.92 153.98 206.4 154.94C205.6 155.099 204.96 154.78 204.16 154.46C202.4 153.66 200.64 152.701 198.88 151.742C195.52 149.503 192 147.424 188.64 145.026C174.24 134.633 159.68 124.4 147.2 111.768C145.44 110.009 143.68 109.05 141.12 109.849C139.52 110.329 137.92 110.329 136.16 110.649C128 111.928 119.68 112.727 111.52 114.326C101.12 116.405 90.72 118.484 80.48 120.722C76.64 121.522 72.8 122.161 68.64 123.44C72.16 125.039 75.36 126.958 78.24 129.197C87.36 136.392 95.04 144.866 102.08 153.98C104.16 156.539 106.24 159.097 108.48 161.655C111.36 165.972 114.88 169.65 119.2 172.688C121.6 174.287 124.16 175.246 127.04 175.406C130.88 175.726 133.44 173.807 133.92 169.97C134.24 168.051 133.92 166.132 133.12 164.373C132 161.975 132.16 161.655 134.88 161.975C135.2 161.975 135.36 161.975 135.68 161.975C143.36 162.615 151.04 161.655 158.88 161.016C171.36 160.056 183.68 158.937 196 157.658C199.84 157.338 203.52 157.018 207.2 155.899C213.28 154.94 218.72 153.021 222.24 147.425C223.36 145.506 224.32 145.666 225.76 147.425C227.68 149.663 228.64 152.541 228.8 155.579C228.96 158.617 228.8 157.658 228.8 158.617L228.48 158.457Z" fill="#050505"/>
<path d="M0 130.636C1.12 128.717 1.43999 126.478 2.23999 124.4C3.67999 121.042 5.27996 117.844 8.15996 115.286C10.88 112.887 13.92 111.448 17.44 111.288C18.56 111.288 18.72 110.968 18.72 109.849C18.72 106.012 20 102.334 20.48 98.4967C21.76 88.5832 24.32 78.8296 25.6 68.9162C25.76 67.4771 26.08 66.198 24.48 65.0787C23.36 64.2792 23.68 62.8402 23.84 61.7209C24.96 53.8861 26.24 46.0512 28.48 38.3763C29.28 35.4982 30.08 32.3003 33.44 30.8612C34.08 30.5414 33.92 30.0617 32.8 29.7419C30.56 28.9425 28.8 27.5034 27.68 25.4248C24.64 20.4681 27.2 14.552 32.96 13.5926C34.56 13.2728 35.04 12.6332 35.36 11.1942C36.64 5.59787 41.28 0.960879 46.72 0.161406C51.04 -0.478174 55.04 0.801004 58.24 3.67911C60.8 6.07753 63.04 8.79573 63.84 12.3134C63.84 12.953 64.16 13.2728 64.96 13.1129C73.12 11.6738 80.16 15.1915 83.84 22.5467C86.24 27.3435 87.2 32.4602 86.56 37.7367C86.08 41.8939 84.16 45.4117 80.48 47.97C80.48 48.1299 80.64 48.2898 80.8 48.4496C89.92 52.447 94.88 59.6423 96.32 69.3959C97.92 80.1088 92.8 89.7025 82.88 94.0197C80.32 95.1389 77.6 95.6186 74.4 95.1389C74.4 95.7785 74.56 96.2582 74.72 96.7379C75.68 100.256 75.2 103.613 72.96 106.491C69.28 111.608 64.48 114.966 58.08 115.286C57.12 115.286 56.8 115.765 56.48 116.565C53.12 122.321 48.16 125.359 41.44 125.519C40.16 125.519 38.88 125.199 37.76 124.719C36.96 124.4 36.8 124.4 36.48 125.199C36.16 125.999 36.16 126.798 36.48 127.598C36.96 129.197 36.96 130.955 37.12 132.714C37.28 135.432 36 137.191 33.76 138.311C28.32 140.869 22.56 141.988 16.48 141.029C12.16 140.389 8.15999 138.95 4.63999 136.552C2.71999 135.273 1.28 133.674 0 131.915V130.316V130.636ZM15.36 117.524C14.72 114.646 14.08 114.486 11.68 115.925C10.24 116.725 8.95999 117.844 7.83999 119.123C5.11999 122.001 3.99997 125.679 2.71997 129.197C1.75997 131.755 2.24 132.714 4.8 134.313C5.12 134.953 5.92 135.113 6.4 135.592C7.52 136.392 8.15997 136.392 9.11997 135.272C12.16 131.755 14.08 127.598 15.2 123.121C15.68 121.362 16.16 119.443 15.2 117.524H15.36ZM28 64.4391C28.8 65.0787 29.92 65.0787 30.88 65.2386C34.08 65.8782 34.72 65.5584 35.68 62.5204C38.08 54.6855 39.68 46.6908 40.8 38.5362C41.28 35.1784 40.8 34.8586 37.44 34.219C34.24 32.9399 33.6 33.2596 32.32 36.1377C32.16 36.6174 32 36.9372 31.84 37.4169C29.12 45.5715 27.68 53.8861 26.72 62.3605C26.72 63.4798 27.04 64.1193 28.32 64.2792L28 64.4391ZM42.08 43.9726C41.44 47.4903 40.8 50.8481 40 54.3658C39.36 57.5637 38.88 60.7616 37.76 63.7996C36.96 66.0381 36 68.1167 33.12 68.2766C32.32 68.2766 32.32 69.0761 32.32 69.5558C30.88 78.5099 28.64 87.3041 26.72 96.0983C25.6 100.895 24.96 105.692 24.32 110.649C24.32 111.608 23.68 112.567 25.12 113.367C26.88 114.326 28.48 115.605 29.92 116.885C30.4 117.204 30.72 117.524 31.36 117.364C34.88 116.565 36.8 117.844 37.12 121.681C37.12 122.961 37.76 123.28 38.72 123.6C44.96 125.999 53.12 120.562 54.88 116.405C55.2 115.605 55.2 115.286 54.4 114.966C52.32 114.166 50.88 112.727 49.76 110.809C49.12 109.529 48.64 108.25 49.76 107.131C51.04 105.852 52.48 106.172 53.76 106.811C56 107.931 57.12 110.009 57.12 112.408C57.12 114.007 57.92 114.007 59.2 114.007C64.64 113.527 71.52 108.25 72.96 103.134C73.92 99.4561 74.24 95.7785 70.4 93.2202C69.6 92.7405 69.12 91.7811 68.64 90.9817C68.32 90.502 68.32 89.8624 68.64 89.3827C69.12 88.903 69.76 89.0629 70.24 89.3827C71.04 89.8624 71.68 90.6619 72.16 91.4613C72.96 93.2202 74.56 93.6999 76.32 93.6999C78.24 93.6999 80 93.3801 81.76 92.7405C91.36 88.7431 96.32 79.1495 94.08 68.5964C92.32 60.2819 88.16 53.8861 80 50.2085C78.72 49.7288 77.6 49.409 76.32 50.0486C75.36 50.5283 74.4 50.5283 73.28 50.3684C72.48 50.3684 71.52 50.2085 71.36 49.0892C71.2 47.97 72.16 47.6502 73.12 47.3304C73.92 47.1705 74.88 47.0106 75.52 47.3304C77.44 47.9699 78.88 47.0106 80.16 45.8913C82.24 44.2924 83.52 42.0538 84 39.4955C85.28 32.9398 84 26.7039 80.16 21.1076C76.96 16.6306 72.32 14.552 66.72 15.0316C65.12 15.0316 63.84 15.3514 63.36 17.2702C63.04 18.3894 61.92 19.3488 60.64 18.5493C59.36 17.7498 60.16 16.6306 60.8 15.8311C61.28 15.1915 61.76 14.8717 61.6 13.9124C60.64 8.47594 54.72 3.19942 48.8 2.71973C43.52 2.24005 38.88 7.35668 36.8 12.3134C36.32 13.5926 36.48 14.2322 37.92 14.7118C40.48 15.6712 42.24 17.7498 43.2 20.3082C43.68 21.5873 44 23.0264 42.72 24.1456C41.44 25.2649 40 24.7852 38.72 24.1456C36.16 22.7066 35.04 20.1483 34.72 17.4301C34.72 16.3108 34.24 15.991 33.28 16.1509C30.4 16.6306 27.84 19.6686 28.32 22.2269C28.8 25.9045 32 28.6227 35.04 28.143C35.68 28.143 36.16 28.143 36.64 28.6227C37.12 29.1024 37.12 29.742 36.64 30.2217C35.52 31.3409 36.32 31.6607 37.28 31.8206C38.08 31.9805 39.04 32.3003 39.68 32.78C41.12 33.5795 42.88 34.219 42.88 36.4575C42.88 37.257 43.68 36.9372 44.32 37.0971C48.8 38.0565 50.56 40.1351 50.72 44.7721C50.72 45.4117 50.72 45.8913 50.72 46.5309C49.6 56.7642 47.36 66.8375 45.6 77.0708C45.12 79.9489 43.2 80.7484 40.48 79.6291C38.72 78.9895 38.24 78.0302 39.36 76.4312C40.64 74.5125 41.44 72.4339 41.92 70.3552C43.36 64.1194 44 57.7235 44.8 51.3277C45.12 48.6095 45.44 45.5715 41.92 44.2924L42.08 43.9726ZM30.72 68.9162C30.88 67.9568 30.4 67.637 28.32 67.3172C27.04 67.1573 27.52 67.7969 27.36 68.4365C25.44 82.3473 21.92 95.9384 20 110.009C20 111.128 19.68 111.608 20.96 111.768C22.08 111.768 22.72 112.248 22.88 110.649C23.68 104.892 24.48 99.2962 25.76 93.6999C27.68 85.5452 29.28 77.2307 30.72 69.0761V68.9162ZM36.8 16.3108C37.12 19.029 37.92 21.1077 40.16 22.2269C40.48 22.3868 40.96 22.7066 41.44 22.2269C41.92 21.9071 41.44 21.4274 41.44 20.9477C40.64 18.7092 39.2 17.1103 36.8 16.1509V16.3108ZM55.84 113.367C55.84 111.128 55.2 109.37 53.44 108.25C52.8 107.771 52 107.451 51.36 108.25C50.72 108.73 51.36 109.529 51.52 110.169C52.48 111.768 53.76 112.887 55.84 113.527V113.367Z" fill="#080808"/>
<path d="M198.72 151.902C200.48 152.861 202.24 153.82 204 154.62C204.64 154.94 205.44 155.259 206.24 155.1C206.72 155.259 207.04 155.419 207.04 155.899C203.36 157.018 199.52 157.338 195.84 157.658C183.52 158.777 171.04 160.056 158.72 161.016C151.04 161.655 143.36 162.615 135.52 161.975C135.2 161.975 135.04 161.975 134.72 161.975C132 161.655 131.84 161.975 132.96 164.373C133.76 166.132 133.92 168.051 133.76 169.97C133.28 173.967 130.88 175.726 126.88 175.406C124 175.086 121.44 174.127 119.04 172.688C114.72 169.81 111.2 165.972 108.32 161.655C108.64 161.655 108.96 161.655 109.28 161.655C112.32 162.455 115.2 163.734 118.24 164.054C121.6 164.373 124.16 163.254 123.84 159.577C123.84 158.457 123.68 157.178 124.16 156.059C124.32 155.579 124.64 155.259 124.96 156.059C124.64 156.539 124.32 157.018 125.12 157.178C125.76 157.178 126.56 157.178 127.2 157.178C130.88 156.698 134.56 156.059 138.24 155.579C138.56 156.059 139.04 155.899 139.52 155.899C152.48 155.899 165.44 156.219 178.4 154.78C184.8 154.14 191.04 153.021 197.6 152.701C198.24 152.701 198.72 152.381 198.72 151.742V151.902Z" fill="#CFC9C9"/>
<path d="M198.72 151.902C198.72 152.541 198.24 152.861 197.6 152.861C191.2 153.021 184.8 154.14 178.4 154.94C165.44 156.379 152.48 155.899 139.52 156.059C139.04 156.059 138.56 156.059 138.24 155.739C139.52 155.419 140.8 155.259 141.92 154.94C143.627 154.62 144.853 154.14 145.6 153.501C142.24 153.341 139.2 153.82 136 154.14C132.32 154.62 128.48 154.94 124.8 156.219C124.48 155.419 124.16 155.739 124 156.219C123.52 157.338 123.52 158.617 123.68 159.736C124 163.414 121.44 164.533 118.08 164.214C115.04 163.894 112 162.774 109.12 161.815C108.8 161.815 108.48 161.815 108.16 161.815C106.08 159.257 103.84 156.698 101.76 154.14C94.72 145.026 87.04 136.552 77.92 129.356C75.04 127.118 72 125.199 68.32 123.6C72.32 122.161 76.32 121.681 80.16 120.882C90.56 118.803 100.96 116.565 111.2 114.486C119.36 112.887 127.68 112.088 135.84 110.809C137.44 110.489 139.2 110.489 140.8 110.009C143.36 109.21 145.12 110.169 146.88 111.928C159.36 124.56 173.92 134.793 188.32 145.186C191.68 147.584 195.2 149.663 198.56 151.902L198.72 151.902ZM162.4 141.029C161.12 140.709 160 141.668 158.56 141.189C159.68 140.229 161.28 140.389 162.56 138.95C160 138.95 157.76 139.43 155.52 140.069C154.56 140.389 152.96 140.389 153.28 141.508C153.6 142.628 155.04 141.828 156 141.828L156.32 142.308C156 143.907 156.32 144.387 157.76 143.907C159.36 143.427 160.8 142.628 162.24 142.148C162.72 142.148 163.36 142.148 163.36 141.349C163.36 140.709 162.72 141.029 162.24 141.029H162.4ZM140.96 117.204C140 116.565 139.2 116.725 138.4 116.725C135.52 117.045 132.48 117.204 129.6 117.524C115.36 118.963 101.28 121.042 87.2 123.76C84.96 124.24 82.72 124.719 80.48 125.199C79.84 125.199 79.36 125.519 79.52 126.318C79.52 126.958 80.32 127.118 80.96 126.958C81.28 126.958 81.44 126.958 81.76 126.958C99.04 123.6 116.32 121.202 133.76 119.123C136.16 118.803 138.72 118.643 141.12 117.204H140.96ZM159.52 134.793C158.56 134.793 157.44 135.113 156.32 135.272C141.12 138.151 126.24 142.628 111.36 146.785C109.92 147.265 108.48 147.584 107.04 148.064C106.56 148.064 106.24 148.544 106.24 149.023C106.24 149.503 106.88 149.503 107.36 149.503C107.68 149.503 108 149.503 108.32 149.343C116.32 147.584 124 145.186 132 143.107C141.12 140.549 150.24 137.991 159.52 136.072C160 136.072 160.96 136.072 160.96 135.272C160.96 134.793 160.16 134.793 159.52 134.793ZM148 123.76C147.36 122.961 146.56 122.961 145.76 123.121C137.6 123.44 129.6 125.039 121.76 127.118C121.12 127.278 120 127.598 120.48 128.557C120.8 129.356 121.6 129.197 122.24 129.037C128.8 127.438 135.52 126.159 142.24 125.359C144.16 125.039 146.08 125.039 147.84 123.92L148 123.76ZM112.8 128.397C112.8 128.237 112.8 128.077 112.8 127.917C112 127.917 111.36 127.917 110.56 127.917C104 127.917 97.6 129.356 91.04 130.636C90.72 130.636 90.56 130.636 90.24 130.795C89.92 130.955 89.6 131.275 89.76 131.755C89.76 132.075 90.24 132.235 90.56 132.235C91.2 132.235 91.84 132.234 92.48 132.075C95.04 131.595 97.76 131.115 100.32 130.636C104.48 129.996 108.64 129.197 112.64 128.557L112.8 128.397ZM129.44 132.075C133.76 131.435 138.08 130.476 142.4 129.516C142.72 129.516 143.36 129.676 143.36 129.037C143.36 128.397 142.72 128.557 142.24 128.557C137.76 128.557 133.44 129.676 129.12 130.316C128.48 130.316 127.68 130.636 128 131.435C128 132.234 128.8 132.075 129.6 132.075H129.44ZM107.84 134.313C107.36 133.993 107.2 133.833 107.04 133.833C103.04 133.034 99.2 134.153 95.36 135.272C94.88 135.272 94.4 135.912 94.72 136.392C95.04 137.031 95.52 137.031 96.16 136.871C100 136.072 103.68 135.273 107.68 134.313H107.84ZM102.56 138.79C100.64 138.47 98.72 138.79 96.8 138.95C96.32 138.95 96.32 139.43 96.48 139.909C96.64 140.389 97.12 140.549 97.6 140.389C99.2 139.909 101.12 139.75 102.56 138.79ZM164.64 143.907C163.36 144.227 162.08 144.387 160.8 144.706C160.32 144.706 159.84 145.026 160 145.666C160.16 146.145 160.64 146.305 161.12 145.985C162.4 145.346 163.68 145.186 164.64 143.907Z" fill="#FCFCFC"/>
<path d="M37.28 34.379C40.64 35.0185 41.12 35.3383 40.64 38.6961C39.52 46.8507 37.92 54.8455 35.52 62.6803C34.56 65.7183 33.92 66.0381 30.72 65.3985C29.76 65.2386 28.64 65.0787 27.84 64.5991C28.48 60.7616 28.96 57.084 29.6 53.2465C30.56 47.97 31.52 42.8534 34.08 38.0565C34.88 36.6175 35.52 35.0185 37.28 34.379Z" fill="#76B62B"/>
<path d="M30.72 68.9162C29.28 77.2307 27.84 85.3854 25.76 93.54C24.48 99.1363 23.52 104.733 22.88 110.489C22.72 112.088 22.08 111.768 20.96 111.608C19.68 111.608 19.84 110.969 20 109.849C21.92 95.9384 25.44 82.1875 27.36 68.2766C27.36 67.7969 27.04 66.9975 28.32 67.1574C30.4 67.4772 30.88 67.797 30.72 68.7563L30.72 68.9162Z" fill="#72B229"/>
<path d="M15.36 117.524C16.16 119.443 15.84 121.362 15.36 123.121C14.24 127.598 12.32 131.755 9.28 135.273C8.32 136.392 7.51998 136.552 6.55998 135.592C6.07998 135.113 5.27998 134.953 4.95998 134.313C6.07998 130.955 7.68001 127.917 9.44001 124.879C11.04 122.161 12.8 119.443 15.36 117.524Z" fill="#76B62B"/>
<path d="M15.36 117.524C12.8 119.443 11.04 122.161 9.44001 124.879C7.68001 127.917 6.07998 130.955 4.95998 134.313C2.39998 132.714 2.08 131.755 2.88 129.197C4.16 125.679 5.28002 122.001 8.00002 119.123C9.12002 117.844 10.4 116.885 11.84 115.925C14.24 114.486 14.88 114.806 15.52 117.524L15.36 117.524Z" fill="#F9FAF8"/>
<path d="M37.28 34.379C35.52 35.0185 34.88 36.4576 34.08 38.0565C31.68 42.8534 30.56 47.97 29.6 53.2465C28.96 56.9241 28.48 60.7616 27.84 64.5991C26.56 64.5991 26.24 63.9594 26.24 62.6803C27.2 54.2059 28.64 45.8913 31.36 37.7367C31.36 37.257 31.68 36.9372 31.84 36.4576C33.12 33.5795 33.92 33.2596 36.96 34.5388L37.28 34.379Z" fill="#F4F6F3"/>
<path d="M124.8 156.059C128.48 154.78 132.32 154.46 136 153.98C139.04 153.501 142.24 153.021 145.6 153.341C144.853 153.98 143.627 154.46 141.92 154.78C140.64 155.099 139.36 155.259 138.24 155.579C134.56 156.059 130.88 156.698 127.2 157.178C126.56 157.178 125.76 157.178 125.12 157.178C124.16 157.178 124.48 156.539 124.96 156.059L124.8 156.059Z" fill="#111111"/>
<path d="M140.96 117.204C138.56 118.643 136 118.803 133.6 119.123C116.16 121.202 98.88 123.6 81.6 126.958C81.28 126.958 81.12 126.958 80.8 126.958C80.16 126.958 79.52 126.958 79.36 126.318C79.36 125.519 79.84 125.359 80.32 125.199C82.56 124.719 84.8 124.24 87.04 123.76C101.12 121.042 115.2 118.963 129.44 117.524C132.32 117.204 135.36 116.885 138.24 116.725C139.04 116.725 139.84 116.405 140.8 117.204L140.96 117.204Z" fill="#0E0E0E"/>
<path d="M159.52 134.793C160.16 134.793 160.96 134.793 160.96 135.272C160.96 136.072 160 136.072 159.52 136.072C150.24 137.991 141.12 140.549 132 143.107C124.16 145.186 116.32 147.584 108.32 149.343C108 149.343 107.68 149.503 107.36 149.503C106.88 149.503 106.4 149.503 106.24 149.023C106.24 148.544 106.56 148.224 107.04 148.064C108.48 147.584 109.92 147.105 111.36 146.785C126.24 142.468 141.12 138.151 156.32 135.272C157.44 135.113 158.56 134.953 159.52 134.793Z" fill="#111111"/>
<path d="M148 123.76C146.24 124.879 144.16 124.879 142.4 125.199C135.68 126.159 128.96 127.438 122.4 128.877C121.6 129.037 120.8 129.197 120.64 128.397C120.32 127.438 121.28 127.118 121.92 126.958C129.76 125.039 137.76 123.28 145.92 122.961C146.56 122.961 147.36 122.961 148.16 123.6L148 123.76Z" fill="#111111"/>
<path d="M112.8 128.397C108.64 129.037 104.48 129.836 100.48 130.476C97.92 130.955 95.2 131.435 92.64 131.915C92 131.915 91.36 132.075 90.72 132.075C90.4 132.075 90.08 132.075 89.92 131.595C89.92 131.115 89.92 130.795 90.4 130.636C90.56 130.636 90.88 130.476 91.2 130.476C97.6 129.197 104 127.917 110.72 127.757C111.52 127.757 112.16 127.757 112.96 127.757C112.96 127.917 112.96 128.077 112.96 128.237L112.8 128.397Z" fill="#181818"/>
<path d="M156.16 141.828C155.2 141.828 153.76 142.628 153.44 141.508C153.12 140.389 154.72 140.229 155.68 140.069C157.92 139.43 160 138.95 162.72 138.95C161.6 140.229 160 140.229 158.72 141.189C160.16 141.668 161.28 140.709 162.56 141.029C162.56 141.349 162.56 141.668 162.56 142.148C161.12 142.788 159.52 143.427 158.08 143.907C156.64 144.387 156.32 143.907 156.64 142.308C156.64 142.308 156.64 141.988 156.64 141.828C156.48 141.828 156.32 141.828 156.16 141.828Z" fill="#181818"/>
<path d="M129.44 132.075C128.8 132.075 128 132.075 127.84 131.435C127.68 130.636 128.48 130.316 128.96 130.316C133.28 129.516 137.6 128.557 142.08 128.557C142.56 128.557 143.04 128.397 143.2 129.037C143.2 129.836 142.56 129.516 142.24 129.516C137.92 130.636 133.6 131.435 129.28 132.075L129.44 132.075Z" fill="#111111"/>
<path d="M107.84 134.313C103.84 135.113 100 136.072 96.32 136.871C95.68 136.871 95.2 136.871 94.88 136.392C94.56 135.752 94.88 135.432 95.52 135.272C99.36 134.153 103.2 133.034 107.2 133.833C107.36 133.833 107.52 133.993 108 134.313L107.84 134.313Z" fill="#111111"/>
<path d="M102.56 138.79C100.96 139.75 99.2 139.909 97.6 140.389C97.12 140.389 96.64 140.389 96.48 139.909C96.48 139.59 96.48 139.11 96.8 138.95C98.72 138.63 100.64 138.311 102.56 138.79Z" fill="#181818"/>
<path d="M164.64 143.907C163.68 145.186 162.24 145.506 161.12 145.985C160.64 146.145 160.16 145.985 160 145.666C159.84 145.026 160.32 144.706 160.8 144.706C162.08 144.387 163.36 144.227 164.64 143.907Z" fill="#373737"/>
<path d="M162.4 142.148C162.4 141.828 162.4 141.508 162.4 141.029C162.88 141.029 163.36 140.709 163.52 141.349C163.52 141.988 162.88 141.988 162.4 142.148Z" fill="#111111"/>
<path d="M156.16 141.828C156.32 141.828 156.48 141.828 156.64 141.828C156.64 141.828 156.64 142.148 156.64 142.308C156.64 142.308 156.32 141.988 156.32 141.828L156.16 141.828Z" fill="#FCFCFC"/>
</svg>
