<svg width="293" height="89" viewBox="0 0 293 89" fill="none" xmlns="http://www.w3.org/2000/svg">
<path d="M224.96 11.2029C224.96 10.8828 224.96 10.4026 224.96 10.0826C225.12 10.0826 225.28 9.9225 225.44 9.76246C229.76 9.60242 234.24 9.28234 238.56 9.1223C240.16 9.1223 241.92 8.48214 243.2 9.92251C243.68 10.4026 244.48 10.0825 244.96 9.92251C246.4 9.60243 247.84 9.28233 249.28 8.96225C250.08 8.96225 250.88 8.64219 251.52 9.28235C252.96 10.5627 254.4 10.0825 256 9.76246C258.4 9.28233 260.8 8.96227 263.2 8.48215C264.32 8.32211 265.28 8.48217 265.6 9.60245C265.92 10.5627 266.56 10.2426 267.2 10.2426C271.2 9.76249 275.2 9.44237 279.2 9.76246C280.64 9.76246 282.08 10.2426 282.88 11.3629C283.52 12.1631 284 11.843 284.48 11.3629C285.44 10.7227 286.56 10.2426 287.68 10.2426C290.56 9.92253 292.64 11.5229 292.64 14.4037C292.64 20.1652 292.64 26.0867 292.8 31.8481C292.8 44.8114 291.04 57.6147 288.8 70.258C288.16 73.7789 288.16 73.7788 284.64 73.9389C257.28 75.5393 229.92 76.9796 202.56 78.5801C175.52 80.1805 148.64 81.7809 121.6 83.3813C100.48 84.6616 79.36 85.7819 58.24 86.9022C51.04 87.3823 43.84 88.5026 36.8 87.8625C29.28 87.2223 21.76 87.8625 14.4 87.8625C10.72 87.8625 7.04 88.5026 3.36 88.3426C0.320001 88.3426 0 88.0225 0 84.9817C0 81.3007 1.44 77.7799 2.4 74.0989C5.6 62.2559 8.96 50.5729 12.16 38.7299C14.88 28.9674 18.4 19.525 21.76 9.92251C21.92 9.44238 22.24 8.80222 22.24 8.3221C22.56 6.56165 23.52 5.60142 25.28 5.44138C30.56 4.48114 35.84 3.84095 41.12 2.72067C45.92 1.60038 50.72 1.76045 55.52 0.800205C56.32 0.800205 57.28 0.800205 57.92 0H59.52C62.72 0.960246 65.6 2.56064 69.12 2.24056C69.6 2.24056 69.92 2.40057 70.4 2.56062C72.96 3.04074 75.52 3.84094 78.08 2.56062C78.72 2.24053 79.68 2.0805 80 2.72067C80.96 4.32108 82.24 4.00102 83.68 4.00102C87.36 4.00102 90.88 4.96125 94.56 4.48113C95.52 4.48113 96.48 4.64119 96.96 5.60143C97.44 6.56168 98.56 6.56164 99.52 6.56164C101.76 6.56164 104 6.08152 106.08 6.56164C109.92 7.36184 113.44 6.56165 117.12 5.92148C119.36 5.44136 121.76 5.92148 124 5.92148C125.44 5.92148 126.72 6.88173 128 7.52189C128 8.48214 128.16 9.60242 128.32 10.5627C128.32 15.2038 127.68 19.8451 126.88 24.4862C125.28 33.2885 124.32 41.9307 124.8 50.893C125.44 60.3354 125.44 69.6178 125.6 79.0602C125.6 80.1805 125.92 80.6606 127.2 80.5006C128.32 80.5006 129.44 80.1805 130.56 80.3405C132.16 80.3405 132.48 79.7004 132.48 78.26C131.84 62.0959 131.36 45.9317 130.72 29.7676C130.4 22.2456 130.24 14.8838 129.92 7.36184C129.92 6.24156 130.72 6.24158 131.52 6.08154C139.36 5.60141 147.36 5.12131 155.2 5.60143C155.68 5.60143 156.48 5.6014 156.64 5.92148C157.92 7.52189 159.2 6.72169 160.8 6.72169C164.48 6.72169 168.16 7.36186 171.84 7.68194C172.16 7.68194 172.48 7.68196 172.48 8.00205C173.92 10.2426 175.84 8.96227 177.6 8.48215C179.52 8.00203 181.28 8.00203 182.88 9.28235C184 10.0826 185.12 9.76248 186.4 9.28235C187.84 8.80223 189.28 8.64221 190.56 9.60245C191.52 10.2426 192.32 9.92254 193.28 9.60245C194.4 9.12233 195.52 8.64217 196.64 9.76246C197.28 10.4026 198.08 10.0825 198.88 9.76246C200.16 9.44237 201.44 8.80223 202.72 8.48215C204.96 8.00203 207.04 8.16207 208.8 10.0826C209.44 10.8828 210.24 10.8827 211.2 10.5627C212.96 9.9225 214.72 9.12229 216.64 8.96225C217.76 8.96225 219.04 8.64217 219.84 9.76246C220.32 10.5627 221.76 8.96225 221.92 10.5627C221.92 18.4047 222.24 26.0866 222.4 33.9286C222.72 46.892 223.04 60.0153 223.2 72.9786C223.2 74.419 223.68 74.8991 225.12 74.579C226.4 74.2589 225.92 73.2987 225.92 72.4985C225.92 57.6147 225.6 42.5709 225.44 27.6871C225.44 21.9256 225.44 16.1641 225.12 10.4027L224.96 11.2029ZM194.72 12.9633C193.76 12.6432 193.28 12.9633 193.12 13.9235C192 17.9246 190.88 22.0856 189.92 26.0866C186.08 42.2508 182.24 58.5749 178.4 74.7391C177.6 78.0999 177.6 78.0999 180.96 77.9399C181.92 77.9399 182.24 77.6198 182.4 76.6596C182.88 73.9389 183.52 71.2182 184.16 68.6575C187.68 53.4537 191.84 38.5699 194.88 23.2059C195.52 20.3252 196 17.2844 196.16 14.2436C196.16 13.2834 196.16 12.3231 194.72 12.9633ZM208.32 13.9235C206.88 12.9633 206.88 13.9235 206.56 14.8838C201.76 34.4088 197.12 54.0938 194.4 74.0989C193.92 77.2997 193.92 77.2998 196.8 76.6596C197.92 76.9797 197.76 76.0194 197.92 75.5393C201.6 59.6952 205.28 43.8512 208 27.8471C208.64 24.1662 209.28 20.3252 209.28 16.4842C209.28 15.5239 209.6 14.2436 208.16 13.9235H208.32ZM69.92 82.9012C69.6 83.2213 69.44 83.7014 69.92 84.0215C70.08 84.1815 70.4 84.0215 70.72 84.0215C70.72 84.0215 70.88 84.0215 71.04 84.0215C71.2 84.0215 71.36 84.1815 71.52 84.1815C75.52 83.8614 79.68 83.7014 83.68 83.3813C84.64 83.3813 84.48 82.5811 84.64 82.101C85.6 76.1795 86.72 70.2579 88 64.3364C90.88 50.5729 92.96 36.8094 95.36 22.8858C96.16 18.5647 96.64 14.0836 97.12 9.60245C97.12 8.80225 97.6 7.68193 96.16 7.52189C93.12 7.36185 90.24 6.72172 87.2 7.20184C85.0667 7.20184 83.8933 8.16207 83.68 10.0826C83.2 15.3639 82.72 20.6452 81.76 25.7665C78.88 40.4903 75.04 54.894 72.48 69.7778C71.68 74.0989 70.4 78.42 69.92 82.9012ZM287.52 70.578C287.52 70.0979 287.52 69.7778 287.68 69.2977C288.48 58.735 289.28 48.3323 290.24 37.7696C290.88 30.7278 291.68 23.526 290.72 16.3241C290.4 12.8032 290.4 12.8033 287.04 13.6035C286.24 13.7635 285.44 14.0836 284.64 14.2436C283.2 14.4037 282.72 15.2039 283.2 16.6442C283.04 21.1254 283.04 25.7666 282.56 30.2477C281.12 43.8512 279.52 57.2946 278.4 70.8981C278.4 72.0184 278.4 72.3385 279.52 72.1784C281.92 72.0184 284.16 71.8584 286.56 71.8584C287.36 71.8584 287.68 71.3782 287.52 70.578ZM259.04 73.1387C261.12 73.6188 261.6 72.3385 261.76 70.7381C261.92 68.6575 262.08 66.577 262.4 64.4965C263.84 52.6534 265.28 40.9704 266.24 29.1274C266.56 24.4862 267.04 19.8451 266.24 15.2039C265.76 12.6432 265.28 12.3231 262.72 12.3231C261.76 12.3231 260.8 12.3231 259.84 12.3231C257.44 12.4832 257.44 12.4832 257.76 15.0438C257.92 22.8858 257.12 30.8879 256.48 38.7299C255.68 48.9725 255.04 59.0551 254.56 69.2977C254.4 73.7788 254.56 73.7788 259.04 73.1387ZM212 59.3751C213.28 49.6126 215.2 40.0102 216.8 30.4078C217.76 25.1264 218.72 20.0051 218.24 14.7237C218.08 13.6034 216.96 13.7635 216.32 13.7635C215.36 13.7635 214.4 13.7635 213.44 13.7635C212.16 13.7635 211.68 14.0836 211.68 15.5239C212 18.4047 211.68 21.2854 211.2 24.1661C209.28 35.6891 206.88 47.052 204.32 58.4149C203.04 64.0164 201.76 69.6178 200.48 75.3792C200.48 76.0194 199.84 76.8196 201.12 76.8196C203.52 76.8196 205.92 76.8196 208.32 76.6596C209.12 76.6596 209.6 76.1795 209.76 75.2192C209.92 73.4588 210.4 71.8584 210.72 70.0979C211.04 66.577 212.16 63.2161 212 59.6952V59.3751ZM90.24 82.9012C91.68 82.9012 93.12 82.9012 94.56 82.9012C95.68 82.9012 96 82.4211 96.16 81.4608C96.8 77.1397 97.6 72.8186 98.4 68.4975C100.96 53.6137 104.32 38.8899 106.4 24.0061C107.2 17.7645 107.68 18.5647 101.76 17.6045C101.28 17.6045 100.96 17.6045 100.48 17.6045C98.88 17.1244 98.24 17.6045 97.92 19.3649C96.32 29.2874 94.88 39.21 93.12 49.1325C91.36 59.3752 89.28 69.6178 87.36 79.7004C86.72 83.2213 86.88 83.2213 90.4 82.9012H90.24ZM244.96 15.3639C244.96 15.844 244.8 16.3242 244.8 16.8043C244.16 26.5668 243.52 36.3293 242.88 45.9317C242.24 54.894 241.76 63.6963 241.12 72.6586C241.12 73.7789 241.12 74.259 242.56 74.0989C245.12 73.7788 247.68 73.7789 250.24 73.4588C251.84 73.7789 252.48 73.1387 252.48 71.5383C252.48 71.0581 252.48 70.578 252.48 70.258C253.12 56.4944 254.08 42.8909 255.04 29.1274C255.36 24.3262 255.84 19.525 255.52 14.5637C255.52 13.1233 254.88 12.4832 253.44 12.3231C250.88 12.003 248.48 12.3231 245.92 12.3231C245.12 12.3231 244.64 12.4832 244.8 13.4434C244.8 14.0836 244.8 14.7237 244.96 15.3639ZM63.52 3.52087C62.4 2.56063 61.6 2.56063 61.28 4.32108C60 11.0428 58.24 17.6045 56.48 24.1661C51.36 43.6911 46.4 63.2161 41.28 82.7411C40.48 85.9419 40.32 85.942 43.84 85.6219C44 85.6219 44.16 85.6219 44.32 85.6219C45.92 85.6219 47.68 85.4618 49.28 85.4618C50.56 85.4618 51.04 84.9817 51.2 83.7014C53.44 73.1387 56 62.736 58.24 52.1733C61.44 37.2895 64.16 22.2456 67.84 7.36184C68.16 5.76143 68.32 4.80121 66.4 4.48113C65.44 4.48113 64.48 3.84095 63.52 3.52087ZM227.52 13.6035C227.52 20.1652 227.52 26.5668 227.68 33.1284C228 46.4118 228 59.6952 228.32 72.9786C228.32 73.2987 228.32 73.4587 228.32 73.7788C228.32 74.7391 228.64 75.0592 229.6 75.0592C231.68 75.0592 233.76 75.0592 235.68 74.579C237.493 74.7924 238.453 73.9389 238.56 72.0184C239.52 58.4149 240.32 44.6514 241.28 31.0479C241.6 25.4465 242.24 20.0051 242.4 14.4037C242.4 12.4832 242.08 11.683 239.84 11.843C236.32 11.843 232.8 11.843 229.28 11.5229C227.52 11.5229 227.04 12.0031 227.36 13.6035H227.52ZM157.76 78.42C158.24 77.7799 158.4 77.1397 158.56 76.4995C161.76 62.2559 164.8 47.8522 168.48 33.6086C170.24 26.8869 172 20.3252 173.12 13.4434C173.44 11.843 173.12 11.0428 171.36 10.8828C168.16 10.5627 164.96 9.92254 161.76 9.60245C159.04 9.28237 159.04 9.44237 158.72 12.1631C157.76 17.2844 157.12 22.4057 156 27.367C152.32 44.1713 149.12 60.9756 146.24 77.9399C146.08 79.2202 146.24 79.5403 147.52 79.5403C150.72 79.5403 153.92 79.2202 157.12 79.0602C157.6 79.0602 158.08 79.0602 158.08 78.42H157.76ZM75.2 5.44138C74.56 5.1213 73.76 5.12128 73.12 5.12128C71.52 5.12128 70.4 5.44135 70.4 7.36184C70.4 8.64217 70.08 10.0825 69.76 11.3629C67.2 23.8461 64.48 36.4893 61.92 48.9725C59.68 59.8553 57.12 70.738 55.36 81.7809C54.88 85.1417 54.88 85.1418 57.76 84.6616C60.32 84.9817 62.72 84.3415 65.12 84.5016C66.56 84.5016 67.2 84.0214 67.36 82.5811C71.04 64.0163 75.2 45.6117 79.2 27.207C80.64 20.6453 81.28 14.0836 81.44 7.52189C81.44 6.08153 81.12 5.28134 79.52 5.44138C78.08 5.44138 76.64 5.44138 75.2 5.44138ZM140.48 80.0205C142.4 80.2338 143.52 79.4336 143.84 77.6198C145.44 68.4975 147.04 59.3752 148.8 50.2528C151.36 37.4496 154.4 24.6463 156.32 11.843C156.8 8.6422 156.8 8.80223 153.44 8.48215C147.36 8.00203 141.28 8.48214 135.2 8.3221C132.48 8.3221 132.48 8.32212 132.96 11.0428C132.96 11.3629 132.96 11.683 132.96 12.0031C133.76 31.0479 134.4 50.0928 135.2 69.1376C135.2 72.3385 135.36 75.6993 135.52 78.9002C135.52 79.5403 135.36 80.5006 136.48 80.3405C137.76 80.3405 139.2 80.5006 140.48 80.0205ZM269.28 23.0459C268.96 30.7278 268.32 37.2895 267.68 44.0113C266.72 53.1336 265.76 62.0959 264.64 71.2182C264.64 72.4985 264.64 72.9786 266.08 72.9786C268.8 72.6585 271.36 72.4985 274.08 72.4985C275.36 72.4985 275.68 71.8583 275.68 70.7381C275.68 68.4975 276 66.0969 276.32 63.8563C277.6 51.2131 279.04 38.4098 280.16 25.7665C280.48 22.0856 280.64 18.4047 280.16 14.7237C280.16 13.6034 279.84 12.6432 278.56 12.3231C275.36 11.683 272.16 11.683 269.12 12.3231C268.48 12.3231 268.16 12.8033 268.32 13.6035C269.28 16.9643 268.8 20.4852 268.96 22.8858L269.28 23.0459ZM164.48 78.7401C165.28 78.7401 166.08 78.5801 166.72 78.7401C168.64 78.7401 169.6 78.26 169.76 76.1794C169.76 74.7391 170.24 73.2987 170.56 71.8584C173.6 56.3344 177.6 41.1305 181.28 25.7665C182.08 22.0856 182.88 18.5647 183.36 14.8838C183.52 13.4434 183.2 12.4832 181.44 12.4832C179.84 12.4832 178.08 12.4832 176.48 12.4832C175.68 12.4832 175.36 12.8033 175.36 13.6035C175.04 15.3639 174.72 17.1244 174.4 18.8848C169.92 37.6096 165.12 56.1744 161.28 75.0592C160.48 79.2202 160.32 79.2202 164.64 78.9002L164.48 78.7401ZM119.36 13.4434C119.36 14.0836 119.36 15.2039 119.2 16.3241C117.92 24.6463 116.48 32.9684 115.2 41.2905C113.12 53.7737 112.32 66.417 109.44 78.7401C108.64 82.101 108.64 81.9409 112 81.7809C113.28 81.7809 114.08 81.6209 114.4 80.0205C118.4 61.7758 121.76 43.3711 124.64 24.8063C125.44 20.0051 126.08 15.2039 126.24 10.4027C126.24 9.12233 125.76 8.48215 124.48 8.48215C123.04 8.48215 121.6 8.48215 120 8.48215C119.36 8.48215 118.72 8.48217 119.04 9.60245C119.36 10.7227 119.36 11.843 119.36 13.4434ZM205.12 13.2834C204.48 13.2834 203.84 12.9633 203.2 12.9633C201.76 12.9633 199.84 12.3231 198.72 13.2834C197.76 13.9235 198.72 15.684 198.24 16.9643C198.24 17.2844 198.24 17.4444 198.24 17.7645C196.64 28.6473 193.92 39.21 191.2 49.9327C189.12 58.735 187.04 67.5372 184.8 76.3395C184.48 77.4598 184.8 77.9399 185.92 77.7798C187.2 77.7798 188.48 77.4598 189.76 77.6198C191.84 77.7799 192.32 76.6596 192.64 74.8991C194.24 62.4159 196.32 49.9328 199.2 37.6096C201.12 29.6076 202.72 21.6055 205.28 13.4434L205.12 13.2834ZM117.12 13.7635C117.12 12.6432 117.12 11.5229 117.12 10.5627C117.12 9.76246 116.64 9.4424 115.84 9.4424C115.04 9.4424 114.88 9.92254 114.72 10.4027C114.56 11.2029 114.24 12.1631 114.08 12.9633C111.84 24.4862 109.76 36.0092 107.52 47.5321C105.44 58.4149 104.16 69.6178 102.24 80.6606C102.24 81.1407 101.92 81.6208 102.24 82.101C103.2 82.9012 106.24 81.9409 106.56 80.6606C107.2 77.6198 108 74.419 108.48 71.3782C110.4 60.8155 111.36 50.0928 113.12 39.5301C114.56 31.0479 116.16 22.4057 117.12 13.7635ZM173.12 78.26C174.88 78.42 175.68 77.7799 176.16 75.8594C180.96 55.8543 184.96 35.8491 190.72 16.1641C191.68 12.6432 191.68 12.6432 188 13.4434C186.56 13.7635 185.6 14.2436 185.44 15.844C185.28 20.0051 184.16 24.0061 183.2 28.0072C179.2 44.1713 175.36 60.4955 172 76.8196C171.68 78.1 171.84 78.7401 173.28 78.42L173.12 78.26ZM219.52 30.0877C218.72 34.7289 217.92 39.3701 217.28 44.0113C215.68 54.2539 214.08 64.4965 212.48 74.7391C212.48 75.6993 212.48 76.0194 213.6 75.8594C215.36 75.6993 217.12 75.5393 218.72 75.6993C220.32 75.6993 220.64 75.2192 220.64 73.6188C220.48 62.736 220.32 51.8533 220 40.8104C220 37.1295 220 33.6086 219.36 29.9276L219.52 30.0877ZM106.4 9.1223C104.32 9.1223 102.24 9.1223 100.32 9.1223C98.72 9.1223 99.36 10.4026 99.2 11.3629C99.04 12.4832 99.84 12.1631 100.48 12.3231C102.56 12.3231 104.48 12.6432 106.4 13.4434C107.68 13.9235 108.96 14.7237 108.96 16.3241C108.96 19.2049 108.96 22.0856 108.64 24.8063C107.2 35.209 104.64 45.2916 102.88 55.6942C101.44 64.1764 99.84 72.4985 98.4 80.9807C98.4 81.4608 97.76 82.421 98.88 82.7411C100 82.9012 100 81.9409 100.16 81.3008C100.48 79.5403 100.8 77.6198 101.12 75.8594C104.16 53.9338 108.48 32.3282 112.96 10.7227C113.28 9.60243 112.96 9.4424 111.84 9.4424C110.08 9.4424 108.32 9.4424 106.4 9.4424V9.1223ZM123.04 50.2528C122.24 54.4139 121.6 58.2549 120.8 62.0959C119.52 68.0174 118.4 73.7788 116.96 79.7004C116.64 81.1407 116.96 81.6209 118.4 81.4608C119.68 81.4608 120.8 81.1407 122.08 81.1407C123.68 81.1407 123.84 80.5006 123.84 79.2203C123.84 70.7381 123.84 62.4159 123.84 53.9338C123.84 52.8135 123.84 51.6932 123.2 50.2528H123.04ZM106.72 16.4842C105.28 15.0438 100.32 13.9236 99.04 14.4037C98.56 14.5637 98.4 14.8838 98.56 15.3639C98.56 15.684 98.88 15.844 99.2 15.844C101.6 15.684 104 15.844 106.72 16.4842ZM123.52 49.4526C123.52 49.4526 123.52 49.2926 123.52 49.1325C123.52 49.1325 123.52 49.2926 123.52 49.4526C123.52 49.4526 123.52 49.6126 123.52 49.7727C123.52 49.7727 123.52 49.6127 123.52 49.4526Z" fill="#080A0A"/>
<path d="M130.401 7.8418C130.721 15.3637 130.881 22.7256 131.201 30.2475C131.681 46.4117 132.321 62.5758 132.961 78.7399C132.961 80.3403 132.641 80.9805 131.041 80.8205C129.921 80.8205 128.801 80.8204 127.681 80.9805C126.401 81.1405 126.241 80.6604 126.081 79.5401C125.921 70.0977 125.921 60.8153 125.281 51.3729C124.641 42.4106 125.761 33.7684 127.361 24.9661C128.161 20.325 128.961 15.8438 128.801 11.0426C128.801 10.0824 128.641 8.96209 128.481 8.00185C129.121 8.00185 129.761 8.00184 130.401 7.8418Z" fill="#CCC6C6"/>
<path d="M224.96 11.2031C225.44 16.9646 225.28 22.7261 225.28 28.4875C225.44 43.3713 225.6 58.4152 225.76 73.299C225.76 73.9391 226.4 75.0594 224.96 75.3795C223.52 75.6996 223.04 75.3795 223.04 73.7791C222.88 60.8158 222.56 47.6924 222.24 34.7291C222.24 26.8871 221.92 19.2051 221.76 11.3631H224.8L224.96 11.2031Z" fill="#C5C0C0"/>
<path d="M225.602 9.76269C225.442 9.76269 225.281 9.92289 225.121 10.0831C224.801 9.92289 224.801 9.76273 225.121 9.60254C225.281 9.60254 225.602 9.6025 225.602 9.76269Z" fill="#C5C0C0"/>
<path d="M140.481 80.0206C139.201 80.5007 137.921 80.3407 136.481 80.3407C135.361 80.3407 135.521 79.5405 135.521 78.9003C135.521 75.6995 135.361 72.3386 135.201 69.1378C134.401 50.0929 133.761 31.0481 132.961 12.0032C132.961 11.6831 132.961 11.3631 132.961 11.043C134.401 11.043 135.841 11.203 137.281 11.363C141.601 11.6831 145.921 11.363 150.241 11.363C153.121 11.363 153.281 11.8432 152.801 14.7239C152.001 20.0052 150.721 24.9665 149.441 30.2479C146.721 42.0909 144.321 53.7739 142.081 65.6169C141.121 70.4182 140.161 75.2194 140.161 80.1806L140.481 80.0206Z" fill="#9EDCBD"/>
<path d="M87.0409 7.04199C90.0809 6.56187 92.9609 7.04196 96.0009 7.36205C97.4409 7.36205 96.9609 8.6424 96.9609 9.44261C96.4809 13.9238 95.8409 18.2448 95.2009 22.726C92.9609 36.4895 90.8809 50.4131 87.8409 64.1766C86.5609 70.0981 85.4409 76.0196 84.4809 81.9411C84.4809 82.5813 84.4809 83.2215 83.5209 83.2215C79.5209 83.3815 75.3609 83.7016 71.3609 84.0217C71.2009 84.0217 71.0409 84.0217 70.8809 83.8616C73.1209 83.8616 73.7609 82.2612 74.0809 80.3407C75.2009 73.619 76.4809 67.0573 77.7609 60.4957C80.0009 48.6526 81.9209 36.9696 84.0009 25.1266C84.9609 19.045 86.5609 13.1235 87.0409 7.04199Z" fill="#76B62B"/>
<path d="M75.1998 5.44141C76.6398 5.44141 78.0798 5.44141 79.5198 5.44141C81.1198 5.44141 81.4398 6.08155 81.4398 7.52192C81.4398 14.2436 80.6398 20.8053 79.1998 27.207C75.1998 45.6117 71.0398 64.0164 67.3598 82.5811C67.0398 84.0215 66.3998 84.5016 65.1198 84.5016C62.7198 84.5016 60.1598 84.9817 57.7598 84.6617C58.3998 83.7014 58.8798 82.7412 59.0398 81.4608C61.1198 69.9379 63.8398 58.575 65.7598 47.2121C68.1598 33.1285 71.3598 19.2049 75.0398 5.44141H75.1998Z" fill="#A05A9E"/>
<path d="M269.28 23.0457C269.28 20.485 269.6 17.1241 268.64 13.7633C268.48 12.9631 268.64 12.643 269.44 12.483C272.64 11.6828 275.68 11.6828 278.88 12.483C280.16 12.803 280.32 13.7633 280.48 14.8836C280.8 18.5645 280.64 22.2455 280.48 25.9264C279.2 38.5696 277.92 51.3729 276.64 64.0162C276.48 66.2567 276.16 68.6573 276 70.8979C276 72.0182 275.68 72.6584 274.4 72.6584C271.68 72.6584 268.96 72.8184 266.4 73.1385C264.96 73.1385 264.8 72.8184 264.96 71.378C266.08 62.2557 267.04 53.2934 268 44.171C268.64 37.4493 269.44 30.8877 269.6 23.2057L269.28 23.0457Z" fill="#FAFAFA"/>
<path d="M157.76 78.4201C157.76 79.0602 157.28 79.0602 156.8 79.0602C153.6 79.2203 150.4 79.5403 147.2 79.5403C145.92 79.5403 145.76 79.2202 145.92 77.9399C148.8 60.9756 152.16 44.1713 155.68 27.367C156.8 22.4057 157.44 17.2844 158.4 12.1631C161.44 12.4832 164.48 13.4434 167.52 13.1233C169.92 12.8033 169.44 13.7635 169.12 15.2039C165.12 31.368 161.12 47.3721 157.76 63.6963C156.96 67.3772 156.16 71.0582 155.36 74.7391C154.88 77.1397 155.52 78.1 157.6 78.4201H157.76Z" fill="#1A4275"/>
<path d="M235.84 74.419C233.76 74.8991 231.84 74.739 229.76 74.8991C228.8 74.8991 228.32 74.579 228.48 73.6188C228.48 73.2987 228.48 73.1386 228.48 72.8185C228.32 59.5352 228.16 46.2517 227.84 32.9683C227.84 26.4066 227.52 20.005 227.68 13.4434C231.2 13.4434 234.56 13.4434 238.08 13.4434C239.68 13.4434 239.84 14.0835 239.68 15.3638C239.36 18.5646 239.04 21.7655 238.88 25.1263C238.88 32.0081 238.4 39.0499 237.92 45.9316C237.44 53.6136 236.64 61.2956 235.68 68.9775C235.52 70.738 235.04 72.6585 235.68 74.419H235.84Z" fill="#76B62B"/>
<path d="M164.48 78.7402C160.32 78.9003 160.32 78.9003 161.12 74.8992C164.96 56.0144 169.76 37.4497 174.24 18.7249C174.72 16.9644 175.04 15.204 175.2 13.4435C175.2 12.6433 175.52 12.3232 176.32 12.3232C177.92 12.3232 179.68 12.3232 181.28 12.3232C182.88 12.3232 183.36 13.2835 183.2 14.7239C182.72 18.4048 182.08 22.0858 181.12 25.6067C177.44 40.9706 173.44 56.1745 170.4 71.6984C170.08 73.1388 169.76 74.5792 169.6 76.0196C169.44 77.94 168.48 78.5802 166.56 78.5802C165.76 78.5802 164.96 78.5802 164.32 78.5802L164.48 78.7402Z" fill="#E8852B"/>
<path d="M63.5203 3.52051C64.4803 3.84059 65.4403 4.32072 66.4003 4.48076C68.4803 4.6408 68.3203 5.60103 67.8403 7.36148C64.3203 22.2453 61.4403 37.2891 58.2403 52.1729C56.0003 62.7356 53.6003 73.1383 51.2003 83.701C50.8803 84.9813 50.5603 85.4615 49.2803 85.4615C47.6803 85.4615 45.9203 85.4615 44.3203 85.6215C44.9603 83.2209 45.4403 80.8203 46.0803 78.5797C49.9203 64.4961 52.3203 50.0924 55.6803 35.8488C58.2403 25.1261 60.8003 14.4033 63.5203 3.68056V3.52051Z" fill="#EA656D"/>
<path d="M250.081 73.7784C247.521 73.9385 244.961 74.0986 242.401 74.4186C241.121 74.4186 240.961 74.0985 240.961 72.9782C241.601 64.0159 242.081 55.2137 242.721 46.2514C243.361 36.4889 244.001 26.7264 244.641 17.124C244.641 16.6438 244.641 16.1637 244.801 15.6836C246.721 15.6836 248.481 15.6836 250.401 15.6836C251.681 15.6836 252.321 16.1637 252.161 17.6041C251.841 23.5256 251.681 29.2871 251.521 35.2086C251.361 47.0516 249.921 58.8946 249.121 70.8977C249.121 72.018 249.121 73.1383 249.761 73.9385L250.081 73.7784Z" fill="#0CB9EC"/>
<path d="M119.359 13.4437C119.359 11.8433 119.359 10.723 119.039 9.60273C118.719 8.64248 119.199 8.48242 119.999 8.48242C121.439 8.48242 122.879 8.48242 124.479 8.48242C125.759 8.48242 126.239 9.12261 126.239 10.4029C126.239 15.2042 125.439 20.0054 124.639 24.8066C121.759 43.2113 118.239 61.616 114.399 80.0207C114.079 81.6211 113.279 81.7811 111.999 81.7811C108.639 81.7811 108.639 81.9412 109.439 78.7404C112.319 66.4172 113.279 53.774 115.199 41.2908C116.479 32.9687 117.919 24.6465 119.199 16.3244C119.359 15.2041 119.359 14.0839 119.359 13.4437Z" fill="#CCC6C6"/>
<path d="M100.48 17.6045C100.96 17.6045 101.44 17.6045 101.76 17.6045C107.84 18.5647 107.36 17.6045 106.4 24.0061C104.32 38.8899 100.96 53.7737 98.4001 68.4975C97.6001 72.8186 96.8001 77.1397 96.1601 81.4608C96.0001 82.5811 95.6801 83.0612 94.5601 82.9012C93.1201 82.9012 91.6801 82.9012 90.2401 82.9012C90.2401 82.7411 90.0801 82.4211 90.0801 82.261C90.7201 78.26 91.3601 74.0989 92.1601 70.0979C94.4001 56.9745 96.4801 43.6911 98.8801 30.5678C99.6801 26.2467 100.96 21.9256 100.48 17.6045Z" fill="#A05A9E"/>
<path d="M205.119 13.2831C202.559 21.2852 200.959 29.4473 199.039 37.4493C196.159 49.7725 194.079 62.2556 192.479 74.7388C192.319 76.4993 191.839 77.6196 189.599 77.4595C188.319 77.4595 187.039 77.4596 185.759 77.6196C184.479 77.6196 184.479 77.2995 184.639 76.1792C186.719 67.3769 188.799 58.5747 191.039 49.7724C193.599 39.0497 196.479 28.487 198.079 17.6042C198.079 17.2842 198.079 17.1241 198.079 16.804C198.399 15.5237 197.599 13.9233 198.559 13.1231C199.679 12.3229 201.439 12.803 203.039 12.803C203.679 12.803 204.319 12.803 204.959 13.1231L205.119 13.2831Z" fill="#F5E501"/>
<path d="M212 59.3751C212 62.896 211.2 66.2568 210.72 69.7777C210.56 71.5382 210.08 73.1386 209.76 74.8991C209.76 75.8593 209.12 76.3394 208.32 76.3394C205.92 76.3394 203.52 76.4995 201.12 76.4995C199.84 76.4995 200.32 75.6993 200.48 75.0591C201.76 69.4577 203.2 63.8562 204.32 58.0948C206.88 46.7319 209.28 35.369 211.2 23.846C211.68 20.9653 212 18.0846 211.68 15.2038C211.68 13.7635 212 13.4434 213.44 13.4434C214.4 13.4434 215.36 13.4434 216.32 13.4434C217.12 13.4434 218.08 13.4434 218.24 14.4036C217.6 15.0438 217.44 15.844 217.28 16.6442C215.52 24.9663 213.76 33.2884 212.32 41.6106C210.56 51.8532 208.8 61.9357 207.04 72.1784C207.04 72.9786 206.88 73.6188 207.04 74.419C207.2 74.8991 207.52 75.3792 208 75.3792C208.48 75.3792 208.8 74.899 208.96 74.579C209.44 73.6187 209.44 72.6585 209.6 71.6982C210.4 67.5372 211.04 63.3761 211.84 59.3751H212Z" fill="#1A4275"/>
<path d="M117.121 13.7632C116.161 22.4054 114.561 30.8876 113.121 39.5298C111.361 50.0925 110.561 60.8153 108.481 71.378C107.841 74.5788 107.201 77.6196 106.561 80.6604C106.241 81.9407 103.201 82.9009 102.241 82.1007C101.761 81.6206 102.241 81.1405 102.241 80.6604C104.161 69.6175 105.441 58.5747 107.521 47.5319C109.761 36.0089 111.841 24.486 114.081 12.963C114.241 12.1628 114.561 11.2026 114.721 10.4024C114.721 9.76224 115.041 9.28211 115.841 9.44215C116.641 9.44215 116.961 9.92224 117.121 10.5624C117.281 11.6827 117.281 12.6429 117.121 13.7632Z" fill="#0CB9EC"/>
<path d="M140.479 80.0205C140.479 75.0593 141.439 70.258 142.399 65.4568C144.639 53.6138 147.039 41.7707 149.759 30.0877C150.879 24.9664 152.319 19.8451 153.119 14.5637C153.599 11.683 153.279 11.363 150.559 11.2029C146.239 11.2029 141.919 11.523 137.599 11.2029C136.159 11.2029 134.719 11.0429 133.279 10.8828C132.799 8.16213 132.799 8.16211 135.519 8.16211C141.599 8.32215 147.679 8.00208 153.759 8.32216C157.119 8.4822 157.119 8.32217 156.639 11.683C154.719 24.6463 151.679 37.2896 149.119 50.0929C147.359 59.2152 145.759 68.3375 144.159 77.4599C143.839 79.2737 142.719 80.0739 140.799 79.8605L140.479 80.0205Z" fill="#FAFAFA"/>
<path d="M75.1992 5.44148C71.5192 19.205 68.3192 33.1286 65.9192 47.2122C63.8392 58.7351 61.2792 70.098 59.1992 81.4609C59.0392 82.5812 58.5592 83.7015 57.9192 84.6617C55.0392 85.1419 54.8792 85.1418 55.5192 81.781C57.4392 70.7381 59.8392 59.8554 62.0792 48.9726C64.6392 36.4894 67.3592 23.8462 69.9192 11.363C70.2392 10.0826 70.3992 8.64227 70.5592 7.36194C70.5592 5.44145 71.6792 4.96134 73.2792 5.12138C73.9192 5.12138 74.7192 5.1214 75.3592 5.44148H75.1992Z" fill="#F2F3F5"/>
<path d="M173.12 78.2605C171.68 78.5806 171.52 77.9404 171.84 76.6601C175.2 60.3359 179.2 44.1718 183.04 27.8476C184 23.8466 185.12 19.8455 185.28 15.6845C185.28 14.084 186.4 13.6039 187.84 13.2838C191.52 12.4836 191.68 12.4837 190.56 16.0046C184.96 35.6896 180.8 55.8547 176 75.6998C175.52 77.6203 174.72 78.2605 172.96 78.1004L173.12 78.2605Z" fill="#1A4275"/>
<path d="M259.041 73.1388C254.561 73.7789 254.401 73.779 254.561 69.2978C255.041 59.0552 255.681 48.9726 256.481 38.73C257.121 30.888 257.921 23.046 257.761 15.0439C258.401 15.0439 259.201 15.0439 259.841 15.0439C261.868 15.0439 262.934 16.0042 263.041 17.9247C263.041 21.6056 263.201 25.1265 262.881 28.8075C261.441 42.411 259.841 55.8544 258.241 69.4579C258.241 70.7382 258.241 72.0185 259.041 73.1388Z" fill="#1A4275"/>
<path d="M157.76 78.4204C155.68 78.2604 155.04 77.1401 155.52 74.7395C156.32 71.0585 157.12 67.3776 157.92 63.6967C161.28 47.3725 165.44 31.3684 169.28 15.2043C169.6 13.6039 170.08 12.8036 167.68 13.1237C164.64 13.4438 161.6 12.4835 158.56 12.1635C158.88 9.44276 158.88 9.28276 161.6 9.60284C164.8 9.92292 168 10.5631 171.2 10.8832C172.96 11.0432 173.28 11.8434 172.96 13.4438C171.84 20.3256 170.08 26.8873 168.32 33.609C164.64 47.8526 161.6 62.0962 158.4 76.4999C158.4 77.1401 158.08 77.9403 157.6 78.4204H157.76Z" fill="#F2F3F5"/>
<path d="M287.52 70.5777C287.68 71.3779 287.36 71.698 286.56 71.858C284.16 71.858 281.92 72.018 279.52 72.1781C278.4 72.1781 278.24 71.858 278.4 70.8978C279.52 57.2943 281.28 43.6908 282.56 30.2474C283.04 25.7662 283.04 21.1251 283.2 16.6439C283.52 16.6439 283.68 16.6439 284 16.6439C285.44 16.6439 287.36 15.0435 288.32 16.6439C288.96 17.9242 288.48 19.8447 288.48 21.6052C288.48 21.6052 288.48 21.6051 288.48 21.7652C287.84 32.3279 285.28 42.5705 284.16 52.9732C283.52 58.5746 282.72 64.176 282.4 69.7775C282.4 71.0578 282.72 71.3779 283.84 71.0578C285.12 70.7377 286.4 70.7377 287.68 70.5777H287.52Z" fill="#76B62B"/>
<path d="M287.521 70.5777C286.241 70.7378 284.961 70.8978 283.681 71.0579C282.401 71.378 282.081 71.0578 282.241 69.7775C282.561 64.1761 283.361 58.5746 284.001 52.9732C285.281 42.5706 287.681 32.3279 288.321 21.7652C288.321 21.7652 288.321 21.7653 288.321 21.6052C288.321 20.0048 288.801 17.9243 288.161 16.644C287.201 15.0435 285.281 16.644 283.841 16.644C283.521 16.644 283.361 16.644 283.041 16.644C282.561 15.2036 283.041 14.4034 284.481 14.2433C285.281 14.2433 286.081 13.9233 286.881 13.6032C290.241 12.803 290.241 12.803 290.561 16.3239C291.361 23.5257 290.561 30.5675 290.081 37.7693C289.281 48.332 288.481 58.7347 287.521 69.2974C287.521 69.7775 287.521 70.0976 287.361 70.5777H287.521Z" fill="#F2F3F5"/>
<path d="M87.0399 7.04199C86.5599 13.1235 84.9599 19.045 83.9999 25.1266C81.9199 36.9696 79.9999 48.6526 77.7599 60.4956C76.4799 67.0573 75.1999 73.779 74.0799 80.3407C73.7599 82.2612 73.1199 83.7016 70.8799 83.8616C70.8799 83.8616 70.7199 83.8616 70.5599 83.8616C70.3999 83.5415 70.0799 83.2215 69.9199 82.9014C70.2399 78.4202 71.6799 74.0991 72.4799 69.778C75.0399 55.0542 78.8799 40.4905 81.7599 25.7667C82.7199 20.4854 83.1999 15.3641 83.6799 10.0828C83.8933 8.05557 85.0666 7.09535 87.1999 7.20204L87.0399 7.04199Z" fill="#F2F3F5"/>
<path d="M259.04 73.1388C258.08 72.0185 258.08 70.8982 258.24 69.4579C259.84 55.8544 261.28 42.411 262.88 28.8075C263.2 25.1265 263.2 21.6056 263.04 17.9247C263.04 15.8975 261.973 14.9373 259.84 15.044C259.2 15.044 258.4 15.044 257.76 15.044C257.44 12.6433 257.44 12.6433 259.84 12.3232C260.8 12.3232 261.76 12.3232 262.72 12.3232C265.28 12.3232 265.76 12.6434 266.24 15.204C267.04 19.8452 266.56 24.4864 266.24 29.1275C265.28 40.9706 263.84 52.6536 262.4 64.4966C262.08 66.5771 262.08 68.6576 261.76 70.7382C261.6 72.3386 261.12 73.6189 259.04 73.1388Z" fill="#F2F3F5"/>
<path d="M63.5205 3.52135C60.9605 14.2441 58.2405 24.9668 55.6805 35.6896C52.3205 49.9332 49.9205 64.3369 46.0805 78.4205C45.4405 80.8212 44.9605 83.0617 44.3205 85.4623C44.1605 85.4623 44.0005 85.4623 43.8405 85.4623C40.4805 85.9425 40.4805 85.9424 41.2805 82.5816C46.4005 63.0566 51.3605 43.5316 56.4805 24.0066C58.2405 17.4449 60.0005 10.7232 61.2805 4.16151C61.6005 2.40106 62.4005 2.40106 63.5205 3.3613V3.52135Z" fill="#F2F3F5"/>
<path d="M235.839 74.4189C235.039 72.6584 235.519 70.7379 235.839 68.9774C236.639 61.2955 237.439 53.6135 238.079 45.9316C238.559 39.0498 239.039 32.008 239.039 25.1262C239.039 21.9254 239.519 18.7246 239.839 15.3637C239.839 14.0834 239.839 13.4433 238.239 13.4433C234.879 13.4433 231.359 13.4433 227.839 13.4433C227.359 11.8429 227.839 11.2027 229.759 11.3627C233.279 11.6828 236.799 11.6828 240.319 11.6828C242.399 11.6828 242.879 12.483 242.879 14.2435C242.879 19.8449 242.239 25.2863 241.759 30.8877C240.799 44.4912 239.999 58.2547 239.039 71.8582C238.932 73.672 237.972 74.5256 236.159 74.4189H235.839Z" fill="#F2F3F5"/>
<path d="M219.521 30.0879C220.001 33.7688 220.001 37.2897 220.161 40.9707C220.481 51.8534 220.481 62.7362 220.801 73.779C220.801 75.2194 220.481 75.8596 218.881 75.8596C217.121 75.8596 215.361 75.8596 213.761 76.0197C212.801 76.0197 212.481 75.8596 212.641 74.8993C214.241 64.6567 215.841 54.4141 217.441 44.1715C218.241 39.5303 218.881 34.8891 219.681 30.2479L219.521 30.0879Z" fill="#5E5E5E"/>
<path d="M196.961 76.8194C193.921 77.2996 194.081 77.4596 194.561 74.2588C197.281 54.2537 201.921 34.5686 206.721 15.0436C207.041 14.0834 207.041 12.9631 208.481 14.0834C208.481 15.0436 208.161 15.8439 208.161 16.8041C205.441 35.6889 202.401 54.5737 197.441 72.9784C197.121 74.2587 196.801 75.5391 197.121 76.9794L196.961 76.8194Z" fill="#1A4275"/>
<path d="M250.081 73.7789C249.281 72.8186 249.281 71.8584 249.441 70.7381C250.241 58.8951 251.521 47.0521 251.841 35.049C251.841 29.1275 252.161 23.366 252.481 17.4445C252.481 16.0041 252.001 15.524 250.721 15.524C248.801 15.524 247.041 15.524 245.121 15.524C245.121 14.8838 245.121 14.2437 244.961 13.6035C244.961 12.8033 245.281 12.4832 246.081 12.4832C248.641 12.4832 251.041 12.3232 253.601 12.4832C255.041 12.6433 255.521 13.2834 255.681 14.7238C256.001 19.525 255.681 24.4863 255.201 29.2875C254.241 43.0511 253.281 56.6546 252.641 70.4181C252.641 70.8982 252.641 71.3783 252.641 71.6984C252.641 73.2988 252.161 73.939 250.401 73.6189L250.081 73.7789Z" fill="#F2F3F5"/>
<path d="M100.48 17.6045C100.96 22.0856 99.8395 26.4067 98.8795 30.5678C96.3195 43.6911 94.3995 56.8145 92.1595 70.0979C91.5195 74.0989 90.7195 78.26 90.0795 82.261C90.0795 82.421 90.0795 82.7411 90.2395 82.9012C86.7195 83.2212 86.5595 83.2212 87.1995 79.7003C89.1195 69.4577 91.1995 59.2151 92.9595 49.1325C94.7195 39.21 96.3195 29.2874 97.7595 19.3649C98.0795 17.4444 98.7195 17.1244 100.32 17.6045H100.48Z" fill="#F2F3F5"/>
<path d="M181.121 77.9394C177.601 78.0995 177.761 78.0995 178.561 74.7386C182.401 58.5745 186.241 42.2503 190.081 26.0862C191.041 21.9251 192.161 17.9241 193.281 13.9231C193.601 12.9628 193.921 12.6427 194.881 12.9628C194.561 14.7233 194.401 16.3237 194.081 18.0841C190.081 37.4491 186.401 56.814 181.441 75.8589C181.281 76.4991 180.961 77.1392 181.441 77.9394H181.121Z" fill="#1A4275"/>
<path d="M106.401 9.12279C108.161 9.12279 109.921 9.12279 111.841 9.12279C112.801 9.12279 113.121 9.12282 112.961 10.4031C108.321 32.0087 104.161 53.6142 101.121 75.5398C100.801 77.3002 100.481 79.2207 100.161 80.9812C100.161 81.7814 100.161 82.7416 98.8808 82.4216C97.7608 82.2615 98.4008 81.3013 98.4008 80.6611C99.8408 72.1789 101.281 63.8568 102.881 55.3746C104.641 45.132 107.201 34.8894 108.641 24.4867C108.961 21.606 108.961 18.7253 108.961 16.0046C108.961 14.5642 107.681 13.764 106.401 13.1238C104.481 12.3236 102.401 12.0036 100.481 12.0036C99.8408 12.0036 99.0408 12.1636 99.2008 11.0433C99.3608 10.2431 98.8808 8.96278 100.321 8.80273C102.401 8.80273 104.481 8.80273 106.401 8.80273V9.12279Z" fill="#C5C0C0"/>
<path d="M212 59.3748C211.2 63.5358 210.56 67.6969 209.76 71.6979C209.6 72.6582 209.76 73.7785 209.12 74.5787C208.96 74.8987 208.64 75.3789 208.16 75.3789C207.52 75.3789 207.36 74.8988 207.2 74.4187C206.88 73.6185 207.04 72.9783 207.2 72.1781C208.96 61.9354 210.72 51.8529 212.48 41.6103C213.92 33.2881 215.68 24.966 217.44 16.6439C217.6 15.8437 217.6 15.0435 218.4 14.4033C218.88 19.6847 217.92 24.966 216.96 30.0873C215.36 39.6898 213.44 49.4523 212.16 59.0547L212 59.3748Z" fill="#F2F3F5"/>
<path d="M181.121 77.9398C180.801 77.2996 181.121 76.4994 181.121 75.8592C186.081 56.8144 189.761 37.4494 193.761 18.0845C194.081 16.324 194.241 14.7236 194.561 12.9631C196.001 12.323 196.161 13.2832 196.001 14.2435C196.001 17.2843 195.361 20.165 194.721 23.2058C191.681 38.4097 187.521 53.4535 184.001 68.6574C183.361 71.3781 182.721 73.9388 182.241 76.6595C182.081 77.6197 181.601 77.9398 180.801 77.9398H181.121Z" fill="#E6E8EB"/>
<path d="M123.041 50.2529C123.521 51.6933 123.681 52.8136 123.681 53.9339C123.681 62.416 123.681 70.7382 123.681 79.2203C123.681 80.5007 123.521 81.3008 121.921 81.1408C120.801 81.1408 119.521 81.1408 118.241 81.4609C116.801 81.4609 116.481 81.1408 116.801 79.7004C118.081 73.939 119.361 68.0175 120.641 62.0959C121.441 58.255 122.081 54.414 122.881 50.2529H123.041Z" fill="#5E5E5E"/>
<path d="M196.961 76.8199C196.641 75.5396 196.961 74.0992 197.281 72.8189C202.241 54.4142 205.281 35.5294 208.001 16.6445C208.001 15.6843 208.321 14.8841 208.321 13.9238C209.921 14.2439 209.441 15.5242 209.441 16.4845C209.441 20.3255 208.801 24.1665 208.161 27.8474C205.281 43.8515 201.761 59.6955 198.081 75.5396C198.081 76.1797 198.081 76.98 196.961 76.6599V76.8199Z" fill="#E6E8EB"/>
<path d="M106.719 16.4843C103.999 15.8442 101.599 15.6841 99.1986 15.8442C98.8786 15.8442 98.5586 15.8441 98.5586 15.364C98.5586 15.0439 98.5586 14.7239 99.0386 14.4038C100.319 13.9237 105.439 15.044 106.719 16.4843Z" fill="#A05A9E"/>
<path d="M69.9196 82.9013C70.0797 83.2213 70.3998 83.5414 70.5599 83.8615C70.2397 84.0216 69.9196 84.1816 69.7595 83.8615C69.4393 83.5414 69.7595 83.0613 69.7595 82.7412L69.9196 82.9013Z" fill="#76B62B"/>
</svg>
