<svg width="246" height="264" viewBox="0 0 246 264" fill="none" xmlns="http://www.w3.org/2000/svg">
<path d="M238.901 225.185C240.341 226.624 239.221 227.743 238.101 228.542C234.901 230.941 231.701 233.339 228.501 235.418C218.261 242.133 208.181 249.169 198.261 256.364C196.661 257.483 194.741 258.443 193.141 259.882C191.541 261.321 190.581 262.6 188.501 263.08C183.541 264.519 178.101 260.202 174.101 257.803C170.101 255.405 164.661 251.727 159.861 248.849C141.941 238.136 123.541 228.063 105.621 217.35C87.7014 206.637 69.3014 196.563 51.5414 185.531C46.9014 182.653 42.2614 179.934 37.6214 177.216C32.9814 174.498 28.9814 172.1 24.9814 168.902C23.2214 167.463 21.4614 165.864 19.8614 164.265C18.2614 162.666 18.5814 162.986 18.4214 162.026C18.2614 161.067 18.1014 159.468 17.7814 158.349C16.9814 153.232 16.5014 148.115 16.0214 142.999C15.0614 134.524 13.7814 126.05 12.6614 117.735C11.8614 111.819 11.3814 105.743 10.5814 99.6672C9.94141 93.911 8.98137 88.1548 8.34137 82.2387C7.70137 75.0435 6.42137 68.008 5.14137 60.9726C3.22137 50.5795 2.7414 40.0265 1.6214 29.6333C1.1414 25.7958 0.661371 21.7985 0.341371 17.961C0.0213709 14.1235 -0.45859 10.1261 0.98141 6.44857C2.74141 1.81162 7.38137 -1.06647 12.3414 0.372584C18.7414 2.13143 24.9814 4.52985 31.2214 6.76837C36.6614 8.68711 41.9414 11.0855 47.3814 13.1642C55.2214 16.3621 63.2214 19.2402 71.0614 22.5979C86.4214 29.1536 101.621 36.5088 116.341 44.3436C129.141 51.0592 141.941 58.0946 154.741 65.13C159.861 68.0081 162.581 72.3252 163.861 78.0814C164.981 83.9975 165.621 89.9136 166.741 95.6698C167.221 98.0682 168.021 99.1875 170.421 100.307C180.661 104.944 190.261 110.38 199.861 116.136C211.701 123.012 223.381 130.207 235.221 137.402C236.501 138.202 238.261 138.841 238.261 140.76C237.461 141.879 236.341 142.039 235.221 141.4C233.461 140.44 231.701 139.641 229.941 138.682C218.901 132.126 208.021 125.25 196.821 118.695C187.701 113.418 178.261 108.621 169.461 103.025C168.981 102.705 168.501 102.545 168.181 102.865C168.821 106.862 169.621 110.86 170.261 114.697C170.261 115.497 170.261 116.296 171.541 116.616C175.381 117.575 178.741 119.654 181.941 121.733C194.261 129.727 206.581 137.882 219.061 145.717C224.821 149.394 230.581 153.072 236.021 157.229C236.981 157.869 238.261 158.828 237.301 160.107C236.181 161.706 235.061 160.427 233.941 159.788C231.061 158.029 228.181 155.95 225.141 154.351C222.581 152.912 220.341 150.993 217.621 149.874C217.141 149.075 216.501 148.755 215.701 148.755C215.701 148.115 215.061 147.955 214.421 147.796C202.261 140.44 190.581 132.286 178.901 124.291C178.581 123.971 178.421 123.811 177.941 123.811C177.941 123.492 177.621 123.172 177.141 123.332C177.141 122.692 176.661 122.372 176.021 122.532C174.741 120.613 172.501 119.814 170.741 118.375C170.741 119.174 170.581 119.814 170.901 120.294C170.901 122.212 171.221 124.131 171.701 125.89C172.021 130.047 172.661 134.045 173.301 138.202C175.061 136.763 176.501 135.484 178.101 134.364C178.741 133.885 179.381 133.245 180.181 134.045C180.981 134.844 180.181 135.644 179.701 136.283C178.581 137.402 177.301 138.522 176.341 139.481C177.781 141.08 179.061 142.679 180.501 144.278C181.461 143.478 182.101 142.999 182.901 142.359C185.141 140.76 187.221 138.682 189.941 138.042C190.581 139.801 189.301 140.76 188.341 141.56C186.581 143.159 184.661 144.598 182.901 146.197C183.061 146.357 183.061 146.516 183.221 146.676C184.981 148.275 186.741 149.874 188.501 151.313C191.381 153.871 191.381 153.872 194.741 151.793C196.501 150.674 198.261 149.394 200.501 148.755C200.821 150.993 199.381 151.953 198.101 152.912C196.821 154.031 195.381 154.831 193.941 155.95C197.141 158.828 200.021 161.387 203.061 164.105C206.261 161.866 209.301 159.628 212.341 157.549C213.141 157.069 213.941 155.95 214.901 156.909C215.701 157.869 214.581 158.668 213.941 159.308C213.461 159.788 212.821 160.267 212.181 160.747C209.941 162.506 207.701 164.265 205.141 166.183C208.661 169.381 212.181 172.579 215.541 175.777C219.061 173.219 222.421 170.661 225.781 168.262C225.941 168.422 226.101 168.742 226.421 168.902C224.181 172.259 220.981 174.658 217.461 177.376C220.501 179.775 223.381 182.013 226.261 184.252C226.901 183.772 227.381 183.292 227.861 182.972C228.341 182.653 228.821 182.013 229.301 182.653C229.941 183.132 229.781 183.932 229.301 184.411C228.661 185.371 228.021 186.33 227.061 186.97C223.061 190.168 219.221 193.206 215.061 196.404C217.941 199.122 220.501 201.52 223.221 204.078C224.981 202.639 226.421 201.36 228.021 200.241C228.661 199.761 229.461 198.962 230.101 199.761C230.901 200.721 230.101 201.36 229.461 202C228.181 203.279 226.741 204.558 225.141 205.997C226.581 207.596 228.181 209.195 229.621 210.954C230.261 211.594 230.901 212.553 229.941 213.352C229.141 213.992 228.341 213.352 227.861 212.713C226.261 211.114 224.661 209.515 223.061 207.756C220.181 209.995 217.301 212.073 214.741 213.992C217.301 216.55 219.701 219.109 222.261 221.667C222.581 221.507 223.061 221.187 223.381 221.027C226.581 218.789 229.781 216.39 232.661 213.672C233.461 213.033 234.421 212.553 235.221 213.352C236.181 214.152 235.701 215.111 234.901 215.911C234.421 216.55 233.781 217.03 233.301 217.51C230.741 220.068 227.701 222.147 224.661 224.225C225.301 225.345 227.061 226.304 225.621 227.423C224.181 228.702 223.381 226.304 222.101 225.984C222.101 225.984 221.941 225.984 221.781 225.984C211.701 232.7 201.781 240.055 191.381 246.291C190.581 246.77 190.741 247.25 190.741 247.89C191.221 250.608 191.701 253.326 192.021 256.044C192.981 256.044 193.461 255.245 194.101 254.765C206.901 244.372 220.981 235.578 234.421 226.144C235.381 225.504 236.341 224.705 237.781 225.025L238.901 225.185ZM121.141 208.556C120.821 208.556 120.661 208.715 120.661 209.035C117.781 211.753 114.901 214.472 112.021 217.35C135.381 230.781 158.901 244.052 181.941 258.922C181.941 257.643 181.941 257.004 181.621 256.364C178.741 245.171 177.461 233.659 175.541 222.306C173.621 210.794 171.541 199.442 169.621 187.929C168.181 179.295 166.901 170.501 165.461 161.866C164.181 154.351 162.901 146.836 161.781 139.321C160.661 132.286 159.541 125.09 158.581 118.055C157.781 112.619 157.301 107.182 156.501 101.746C155.381 93.7511 154.261 85.7563 153.301 77.7616C152.981 75.8429 153.941 73.4444 152.661 72.1653C151.541 70.8861 149.141 70.8862 147.381 70.2466C137.781 66.8888 128.821 62.2519 119.701 57.9347C117.568 56.9753 115.808 57.455 114.421 59.3737C112.501 61.6122 110.741 63.8508 108.661 65.9294C106.581 67.8482 105.301 70.5664 102.581 71.8456C102.421 70.7263 103.061 70.2466 103.221 69.607C106.901 64.8102 110.741 60.1732 114.901 55.6961C112.181 54.417 109.461 53.1379 106.901 51.8587C106.101 52.978 105.461 53.9373 104.661 54.8967C104.341 55.2164 103.861 55.5363 103.541 56.0159C91.8614 69.4471 79.8614 82.5585 67.5414 95.1902C66.9014 95.8297 66.2614 96.7891 64.9814 96.949C65.3014 95.5099 66.1014 94.7105 66.7414 93.911C72.0214 86.8756 77.7814 80.3199 83.5414 73.7642C83.7014 73.6043 84.1814 73.4445 83.8614 73.1247C84.6614 73.1247 84.8214 72.3252 85.3014 72.0054C90.2614 66.4091 95.3814 60.9727 100.661 55.6961C102.101 54.2571 103.541 52.6582 104.981 51.2191C104.981 51.2191 104.981 51.0592 104.821 51.0592C87.3814 43.0645 70.1014 34.59 52.6614 27.075C36.6614 20.0396 20.8214 12.2048 3.86139 7.56785C2.74139 11.4053 3.54139 15.2428 3.86139 18.9203C4.50139 26.7552 5.6214 34.4302 6.4214 42.265C7.2214 49.1405 8.02138 56.0159 9.30138 62.8914C10.7414 70.5663 11.7014 78.2413 12.5014 85.9163C13.3014 93.2714 14.1014 100.627 14.9014 107.982C15.8614 115.497 16.8214 122.852 17.7814 130.207C19.0614 139.001 19.5414 147.955 20.5014 156.75C20.8214 159.468 21.1414 162.346 23.2214 164.265C25.3014 166.183 26.1014 165.864 27.5414 166.663C37.1414 172.579 46.7414 178.176 56.3414 184.092C65.3014 189.528 74.4214 194.964 83.3814 200.401C86.5814 202.32 89.7814 204.078 92.8214 205.997C93.6214 205.198 94.1014 204.558 94.7414 203.919C95.8614 202.959 96.9814 201.84 98.1014 200.881C98.5814 200.561 99.0614 200.081 99.5414 200.881C100.021 201.36 99.5414 201.84 99.2214 202.16C98.4214 203.119 97.6214 204.079 96.6614 205.038C95.8614 205.677 94.9014 206.317 94.4214 207.276C96.1814 208.396 97.9414 209.515 99.7014 210.634C100.341 209.675 100.821 208.875 101.461 208.076C101.781 207.756 101.941 207.596 102.261 207.276C112.501 194.964 123.541 183.452 134.581 172.1C135.221 171.46 135.701 170.66 136.821 170.82C137.461 171.94 136.341 172.579 135.861 173.219C128.661 182.173 120.661 190.487 113.141 199.122C109.461 203.279 105.781 207.596 101.941 211.913C104.501 213.512 106.901 214.951 109.461 216.55C110.261 215.591 111.061 214.791 111.701 214.152C114.261 211.913 116.661 209.675 119.221 207.436C119.701 206.957 120.181 206.477 120.821 206.797C121.461 207.116 121.141 207.756 121.301 208.236C120.981 208.236 120.821 208.236 120.981 208.556C120.661 208.556 120.501 208.556 120.661 208.875L121.141 208.556ZM185.781 259.242C188.021 259.562 189.461 258.603 189.141 256.524C188.501 251.887 187.541 247.09 186.901 242.453C184.981 229.822 182.101 217.35 180.181 204.718C178.741 195.924 177.141 187.13 175.701 178.176C174.741 171.78 173.941 165.224 172.981 158.668C171.701 149.395 170.101 140.281 168.821 131.007C167.701 122.692 166.261 114.218 164.821 105.903C163.701 99.6672 162.261 93.2715 161.461 87.0356C160.821 82.7184 160.181 78.4012 158.901 74.244C158.421 72.3252 157.301 71.6856 155.381 72.1653C155.381 72.4851 155.381 72.8049 155.541 73.1247C157.461 80.32 158.741 87.835 160.021 95.1902C160.981 101.266 161.621 107.342 162.581 113.578C163.381 119.174 164.181 124.611 164.981 130.207C166.101 137.243 167.061 144.278 168.341 151.313C169.621 159.468 171.061 167.463 172.341 175.617C173.621 184.092 174.901 192.406 176.501 200.881C177.781 208.076 178.901 215.111 180.181 222.306C181.301 228.862 182.261 235.418 183.061 241.974C183.861 247.89 185.461 253.486 185.941 259.562L185.781 259.242ZM6.10138 3.73034C6.58138 3.89023 7.06137 4.21006 7.54137 4.36995C16.1814 6.28869 24.1814 10.1261 32.3414 13.4839C66.2614 27.3948 99.2214 43.704 132.341 59.3737C139.221 62.5716 146.261 65.4497 152.661 69.607C153.461 70.0867 154.101 69.7669 154.741 69.4471C154.261 68.6477 153.301 68.3279 152.661 67.8482C148.341 65.4498 143.861 63.2112 139.541 60.8128C125.301 52.818 110.901 45.303 96.3414 37.9479C76.6614 28.1943 56.3414 20.0396 35.8614 11.885C27.5414 8.52719 19.2214 5.3293 10.5814 3.25067C9.14141 2.93088 7.54138 2.45122 6.10138 3.57048V3.73034ZM193.461 194.965C190.101 197.523 186.901 199.921 183.861 202.32C183.221 207.756 187.861 209.995 190.741 213.192C194.421 209.995 198.101 207.116 201.781 203.919C199.061 200.881 196.341 198.003 193.461 194.965ZM214.421 176.736C210.741 173.379 207.381 170.181 203.861 166.983C200.501 169.221 197.301 171.46 194.101 173.698C197.621 177.056 201.141 180.414 204.661 183.772C207.701 181.533 211.061 179.135 214.421 176.736ZM214.421 194.005C218.101 191.127 221.781 188.249 225.461 185.211C223.221 183.452 221.141 182.013 219.061 180.414C217.248 179.028 215.435 179.028 213.621 180.414C211.061 182.173 208.661 184.092 205.941 186.01C208.821 188.729 211.541 191.287 214.261 194.005H214.421ZM200.181 221.987C203.701 219.268 207.381 216.39 211.061 213.512C208.501 210.954 206.101 208.236 203.541 205.677C199.701 208.715 196.021 211.594 192.661 214.312C195.221 216.87 197.621 219.428 200.181 221.987ZM212.661 215.751C209.141 218.309 205.301 221.027 201.781 223.905C204.341 226.304 206.741 228.542 209.141 230.941C212.821 228.383 216.661 225.824 220.181 223.426C217.621 220.867 215.221 218.309 212.501 215.751H212.661ZM202.581 185.371C198.901 182.013 195.381 178.815 191.861 175.457C189.621 177.056 187.061 179.135 184.341 181.214C187.701 184.731 190.901 188.089 194.101 191.607C196.821 189.528 199.541 187.609 202.581 185.371ZM201.941 165.064C199.061 162.506 196.341 159.948 193.621 157.549C193.141 157.069 192.661 156.75 192.021 157.229C189.301 159.148 186.421 161.067 183.861 162.826C186.901 165.864 189.621 168.742 192.661 171.62C195.701 169.541 198.741 167.303 202.101 164.904L201.941 165.064ZM177.781 164.425C178.741 163.625 179.381 162.986 180.021 162.346C179.381 161.546 178.741 160.747 178.101 159.948C177.781 159.628 177.621 159.148 178.101 158.828C178.581 158.508 178.901 158.828 179.221 158.988C180.021 159.628 180.501 160.587 181.461 161.067C184.341 158.988 187.221 156.91 190.101 154.671C187.221 152.113 184.501 149.554 181.621 146.996C179.861 148.435 178.261 149.714 176.661 150.993C176.021 151.473 175.861 151.953 176.021 152.752C176.661 156.59 177.141 160.427 177.781 164.425ZM204.021 202.16C206.741 199.921 209.461 197.843 212.341 195.604C209.301 192.886 206.421 190.328 203.541 187.769C201.141 189.528 198.581 191.447 195.701 193.366C198.581 196.244 201.141 199.122 204.021 202.16ZM205.621 204.078C208.501 206.637 211.221 209.035 213.941 211.594C216.341 209.835 219.061 207.596 221.461 205.837C218.901 202.959 216.341 200.401 213.941 197.523C211.221 199.761 208.501 201.68 205.621 204.078ZM190.741 173.059C187.541 170.181 184.501 167.622 181.301 164.904C180.981 165.224 180.181 165.704 179.381 166.343C178.901 166.663 178.101 166.823 178.101 167.622C178.741 171.94 178.101 176.896 182.901 179.615C185.301 177.696 187.701 175.457 190.581 173.059H190.741ZM192.021 193.206C188.021 188.569 184.021 184.092 179.861 179.455C180.981 186.49 182.261 193.366 183.381 200.561C186.261 197.843 188.981 195.444 191.861 193.206H192.021ZM199.221 225.984C197.461 227.263 195.381 228.862 192.981 230.621C195.541 232.86 197.941 234.938 200.501 237.177C202.421 235.898 204.501 234.299 206.581 232.86C204.181 230.461 201.781 228.223 199.221 225.824V225.984ZM189.941 216.55C189.621 216.87 188.981 217.35 188.341 217.829C186.901 218.629 186.581 219.588 187.061 221.347C187.541 223.106 187.381 224.865 189.461 225.984C190.581 226.624 190.901 228.063 192.021 228.862C193.941 227.263 195.861 225.664 198.101 223.905C195.221 221.347 192.661 219.109 189.941 216.55ZM191.381 244.852C193.781 242.453 196.181 240.694 198.581 238.776C195.701 236.857 193.621 234.299 191.381 231.9C190.741 232.54 189.461 232.38 189.621 233.819C190.261 237.337 190.741 240.854 191.381 244.852ZM179.701 144.438C178.741 143.478 177.461 142.519 176.341 141.4C176.021 141.08 175.701 140.281 175.061 140.6C174.421 140.92 174.581 141.56 174.741 142.039C175.061 144.278 175.381 146.516 175.701 148.755C176.981 147.316 178.261 146.037 179.861 144.278L179.701 144.438ZM185.621 210.954C185.621 210.954 185.461 210.954 185.301 210.954C185.621 212.873 185.941 214.791 186.421 217.03C187.541 216.231 188.341 215.431 188.981 214.472C187.861 213.192 186.741 212.073 185.621 210.794V210.954ZM188.341 227.743C188.661 229.182 188.821 229.981 188.981 231.101C189.728 230.461 189.515 229.342 188.341 227.743Z" fill="#030607"/>
<path d="M238.901 225.185C237.461 224.865 236.501 225.664 235.541 226.304C222.101 235.738 208.021 244.532 195.221 254.925C194.581 255.405 194.101 256.044 193.141 256.204C192.661 253.486 192.181 250.768 191.861 248.049C191.861 247.41 191.701 246.93 192.501 246.451C203.061 240.375 212.821 233.019 222.901 226.144C222.901 226.144 223.061 226.144 223.221 226.144C224.501 226.464 225.301 228.702 226.741 227.583C228.181 226.464 226.261 225.344 225.781 224.385C228.661 222.306 231.701 220.228 234.421 217.669C234.901 217.19 235.541 216.55 236.021 216.071C236.661 215.271 237.141 214.312 236.341 213.512C235.541 212.713 234.581 213.033 233.781 213.832C230.901 216.55 227.701 218.949 224.501 221.187C224.181 221.507 223.701 221.667 223.381 221.827C220.821 219.268 218.421 216.71 215.861 214.152C218.421 212.233 221.301 210.154 224.181 207.916C225.781 209.515 227.381 211.114 228.981 212.873C229.621 213.512 230.261 214.312 231.061 213.512C232.021 212.713 231.381 211.913 230.741 211.114C229.301 209.515 227.701 207.916 226.261 206.157C227.701 204.878 229.141 203.599 230.581 202.16C231.221 201.52 232.021 200.721 231.221 199.921C230.421 199.122 229.621 199.921 229.141 200.401C227.541 201.68 226.101 202.799 224.341 204.238C221.621 201.68 218.901 199.122 216.181 196.563C220.341 193.366 224.181 190.328 228.181 187.13C228.981 186.49 229.781 185.531 230.421 184.571C230.741 184.092 230.901 183.292 230.421 182.812C229.781 182.333 229.301 182.812 228.981 183.132C228.501 183.452 228.021 183.932 227.381 184.411C224.501 182.173 221.621 179.934 218.581 177.536C221.941 174.978 225.141 172.419 227.541 169.062C227.381 168.902 227.221 168.582 226.901 168.422C223.541 170.82 220.181 173.219 216.661 175.937C213.301 172.739 209.781 169.701 206.261 166.343C208.661 164.425 210.901 162.666 213.301 160.907C213.941 160.427 214.581 159.948 215.061 159.468C215.701 158.828 216.821 158.029 216.021 157.069C215.221 156.11 214.261 157.069 213.461 157.709C210.421 159.788 207.381 162.026 204.181 164.265C201.141 161.546 198.101 158.828 195.061 156.11C196.501 155.151 197.941 154.191 199.221 153.072C200.501 152.113 201.941 151.153 201.621 148.915C199.381 149.554 197.621 150.834 195.861 151.953C192.501 154.031 192.501 154.031 189.621 151.473C187.861 149.874 186.101 148.275 184.341 146.836C184.341 146.836 184.341 146.676 184.021 146.356C185.781 144.758 187.701 143.318 189.461 141.719C190.421 140.76 191.701 139.801 191.061 138.202C191.381 138.202 191.701 138.362 191.861 138.522C205.781 146.836 218.421 156.91 232.021 165.384C233.301 166.183 234.581 166.503 235.541 165.384C236.501 164.265 236.181 162.986 235.221 161.866C234.421 160.907 233.301 160.267 232.181 159.628C227.861 156.909 223.221 154.351 219.221 151.153C218.901 150.834 218.101 150.833 218.421 150.034C221.141 151.153 223.381 153.072 225.941 154.511C228.981 156.27 231.861 158.189 234.741 159.948C235.861 160.587 236.981 161.866 238.101 160.267C239.061 158.828 237.621 158.029 236.821 157.389C231.381 153.232 225.781 149.394 219.861 145.877C207.381 138.042 195.061 129.887 182.741 121.893C179.541 119.814 176.021 117.735 172.341 116.776C171.061 116.456 171.221 115.657 171.061 114.857C170.421 110.86 169.621 107.022 168.981 103.025C169.461 102.705 169.781 103.025 170.261 103.185C179.221 108.781 188.501 113.578 197.621 118.855C208.821 125.25 219.701 132.126 230.741 138.841C232.501 139.801 234.261 140.76 236.021 141.56C237.141 142.199 238.261 142.039 239.061 140.92C240.501 141.719 241.941 142.679 243.381 143.318C244.501 143.958 245.301 144.917 245.301 145.717C245.301 153.232 243.701 210.634 242.901 220.548C242.741 222.786 241.301 224.385 239.541 225.345L238.901 225.185Z" fill="#0ABAEE"/>
<path d="M121.941 207.756C121.941 207.276 122.101 206.637 121.461 206.317C120.661 205.997 120.341 206.477 119.861 206.957C117.301 209.195 114.901 211.434 112.341 213.672C111.061 213.033 109.941 212.393 108.821 211.434C108.821 210.634 109.301 209.995 109.781 209.515C112.661 205.518 115.541 201.36 118.581 197.523C123.701 191.287 128.981 185.371 134.261 179.135C136.021 177.216 137.621 175.138 138.901 172.739C139.701 171.14 139.381 170.501 137.461 170.181C136.341 170.021 135.861 170.82 135.221 171.46C124.181 182.972 113.141 194.485 102.901 206.637C102.581 206.957 102.421 207.116 102.101 207.436C100.501 206.477 98.9014 205.518 97.4614 204.558C98.2614 203.599 99.0614 202.639 100.021 201.68C100.341 201.36 100.661 200.881 100.341 200.401C99.8614 199.761 99.3814 200.081 98.9014 200.401C97.7814 201.36 96.6614 202.32 95.5414 203.439C92.9814 201.84 90.2614 200.081 87.7014 198.482C72.8214 188.888 57.1414 181.054 42.5814 170.82C45.4614 167.143 48.3414 163.465 51.2214 159.628C51.5414 159.148 52.3414 158.668 51.7014 158.029C50.9014 157.389 50.4214 158.189 49.9414 158.668C46.5814 162.026 43.3814 165.704 40.8214 169.701C38.9014 168.422 36.9814 167.143 34.9014 165.864C36.6614 163.625 38.4214 161.546 40.1814 159.308C44.5014 154.031 48.6614 148.595 52.5014 142.999C52.8214 142.519 53.6214 141.719 52.8214 141.24C52.1814 140.76 51.7014 141.56 51.2214 141.879C50.9014 142.199 50.5814 142.519 50.2614 142.839C44.1814 150.034 38.2614 157.229 32.5014 164.744C30.7414 163.625 28.8214 162.666 26.7414 162.186C25.7814 161.866 25.6214 161.387 25.6214 160.587C25.6214 154.191 24.3414 148.115 23.3814 141.879C22.2614 134.844 20.8214 127.809 19.7014 120.773C18.9014 115.976 18.5814 111.18 17.9414 106.383C17.3014 101.746 16.1814 97.1089 16.1814 92.312C16.1814 89.1141 15.8614 85.7563 15.5414 82.5584C14.9014 75.6829 14.1014 68.8074 13.7814 61.7721C13.4614 53.9372 12.6614 46.1024 11.7014 38.4275C10.5814 30.113 10.5814 21.7984 9.46143 13.4839H9.78145C24.1814 18.4406 38.1014 24.6765 51.8614 31.0723C65.6214 37.3082 79.0614 44.1837 93.1414 49.78C95.2214 50.5794 97.3014 51.0591 99.2214 52.4982C98.9014 52.9779 98.5814 53.1378 98.4214 53.4576C93.6214 59.0539 89.1414 64.8101 85.3014 71.2059C84.8214 71.8455 84.1814 72.4851 84.3414 73.4445C84.0214 73.4445 84.0214 73.9241 84.0214 74.084C78.2614 80.6397 72.5014 87.1954 67.2214 94.2308C66.5814 95.1902 65.7814 95.9896 65.4614 97.2687C66.7414 97.2687 67.3814 96.3094 68.0214 95.5099C80.3414 82.7183 92.3414 69.7669 104.021 56.3357C104.341 56.0159 104.661 55.5362 105.141 55.2164C106.901 56.0159 108.661 56.8154 110.581 57.6149C108.501 60.6529 106.421 63.3711 104.501 66.2492C103.861 67.3685 102.741 68.3278 103.701 69.9268C103.701 70.5663 102.901 71.046 103.061 72.1652C105.781 70.7262 107.061 68.1679 109.141 66.2492C111.221 64.3305 112.981 61.932 114.901 59.6935C115.221 59.6935 115.541 60.0132 115.701 60.1731C126.101 65.2898 136.661 70.4065 147.061 75.5231C148.021 76.0028 148.661 76.6423 148.661 77.7616C148.661 79.5204 149.141 81.4392 149.621 83.198C151.541 91.3526 153.141 99.6672 153.941 107.982C154.901 117.256 156.661 126.529 158.101 135.643C159.221 142.999 160.981 150.194 161.941 157.389C163.861 170.66 166.101 183.772 169.301 196.723C170.901 203.119 172.181 209.515 173.301 215.911C174.581 224.065 175.861 232.38 176.981 240.535C177.461 243.573 178.101 246.77 178.261 249.968C158.421 237.976 138.581 226.624 118.421 215.431C118.901 215.111 119.381 214.632 119.861 214.152C122.261 211.913 124.821 209.835 126.741 207.276C127.221 206.637 127.861 205.837 127.061 205.038C126.261 204.238 125.461 204.878 124.821 205.518C124.021 206.317 123.541 207.596 122.261 207.916L121.941 207.756Z" fill="#0ABAEE"/>
<path d="M34.7413 166.023C36.6613 167.302 38.5814 168.582 40.6614 169.861C40.6614 170.98 41.4614 171.14 42.4214 170.98C56.8214 181.213 72.6613 189.048 87.5413 198.642C90.1013 200.401 92.8214 202 95.3814 203.599C94.7414 204.238 94.2614 204.878 93.4614 205.677C90.2614 203.758 87.0614 202 84.0214 200.081C65.7814 189.048 47.5414 178.175 29.3014 167.143C28.5014 166.663 27.7013 165.863 26.7413 165.544C22.2613 164.105 21.6213 160.587 21.1413 156.59C20.3413 147.795 19.7014 138.841 18.4214 130.047C17.4614 122.692 16.3413 115.177 15.5413 107.822C14.5813 100.466 13.9413 93.1113 13.1413 85.7561C12.3413 78.0812 11.3813 70.4063 9.94134 62.7313C8.66134 55.8558 7.70136 49.1402 7.06136 42.1048C6.26136 34.27 5.30135 26.5951 4.50135 18.7603C4.18135 14.9228 3.38135 11.0853 4.50135 7.40771C21.6213 12.0447 37.3013 19.8795 53.3013 26.9148C70.9013 34.5898 88.1814 42.9043 105.461 50.8991C105.461 50.8991 105.461 51.059 105.621 51.059C104.181 52.4981 102.741 54.097 101.301 55.536C96.0214 60.8126 90.9013 66.4089 85.9413 71.8453C85.6213 72.325 85.3014 72.9645 84.5014 72.9645C84.3414 72.0052 84.9814 71.3656 85.4614 70.7261C89.3014 64.4902 93.7814 58.574 98.5814 52.9777C98.9014 52.6579 99.0614 52.3381 99.3814 52.0183C97.6214 50.5793 95.3814 50.0996 93.3014 49.3001C79.2213 43.8637 65.7814 36.9882 52.0214 30.5925C38.2614 24.1967 24.3413 18.1207 9.94134 13.004H9.62137C9.62137 13.004 9.62136 12.8441 9.46136 12.6842C9.46136 12.6842 9.46137 12.6842 9.62137 12.8441C10.7414 21.1587 10.7414 29.4731 11.8614 37.7877C12.8214 45.6225 13.7813 53.2975 13.9413 61.1324C14.1013 68.0078 15.0613 75.0432 15.7013 81.9187C16.0213 85.1166 16.3413 88.4743 16.3413 91.6722C16.3413 96.4691 17.4614 100.946 18.1014 105.743C18.7414 110.54 19.2214 115.337 19.8614 120.133C20.9814 127.169 22.4213 134.204 23.5413 141.24C24.5013 147.475 25.9414 153.711 25.7814 159.947C25.7814 160.907 25.7814 161.386 26.9014 161.546C28.9814 162.026 30.7414 163.145 32.6614 164.105C32.6614 164.904 31.5414 166.023 32.6614 166.663C33.6214 167.302 34.1013 166.023 34.7413 165.544C34.7413 165.544 34.9014 165.544 35.0614 165.384L34.7413 166.023Z" fill="#FEFEFE"/>
<path d="M121.941 207.756C123.221 207.436 123.701 206.157 124.501 205.358C125.301 204.718 125.941 204.078 126.741 204.878C127.541 205.677 126.901 206.317 126.421 207.116C124.501 209.835 121.941 211.753 119.541 213.992C119.061 214.472 118.581 214.951 118.101 215.271C138.261 226.464 158.101 237.816 177.941 249.808C177.781 246.45 177.141 243.412 176.661 240.374C175.381 232.22 174.261 223.905 172.981 215.751C172.021 209.355 170.581 202.959 168.981 196.563C165.781 183.612 163.701 170.5 161.621 157.229C160.501 149.874 158.901 142.679 157.781 135.484C156.341 126.21 154.581 117.096 153.621 107.822C152.821 99.5072 151.221 91.1927 149.301 83.0381C148.821 81.2792 148.501 79.3604 148.341 77.6016C148.341 76.3224 147.701 75.8427 146.741 75.363C136.341 70.2464 125.781 65.1298 115.381 60.0132C115.061 60.0132 114.741 59.6934 114.581 59.5335C115.968 57.6148 117.728 57.1351 119.861 58.0944C128.981 62.4116 137.941 67.0485 147.541 70.4063C149.301 71.0459 151.701 71.0459 152.821 72.3251C154.101 73.6043 153.141 76.0027 153.461 77.9214C154.581 85.9161 155.701 93.9109 156.661 101.906C157.301 107.342 157.941 112.778 158.741 118.215C159.701 125.25 160.821 132.446 161.941 139.481C163.061 146.996 164.341 154.511 165.621 162.026C167.061 170.66 168.341 179.455 169.781 188.089C171.701 199.601 173.781 210.954 175.701 222.466C177.621 233.819 178.901 245.331 181.781 256.524C181.781 257.163 181.781 257.803 182.101 259.082C159.061 244.212 135.541 230.941 112.181 217.51C115.061 214.791 117.941 212.073 120.821 209.195C121.141 209.195 121.461 209.195 121.301 208.715C121.621 208.715 121.781 208.715 121.621 208.236C121.941 208.236 122.101 208.236 121.941 207.916V207.756Z" fill="#FEFEFE"/>
<path d="M185.781 259.242C185.301 253.166 183.542 247.57 182.902 241.654C182.102 235.098 180.981 228.542 180.021 221.987C178.901 214.791 177.621 207.756 176.341 200.561C174.901 192.246 173.461 183.772 172.181 175.297C170.901 167.143 169.461 159.148 168.181 150.993C167.061 143.958 165.941 136.923 164.821 129.887C164.021 124.291 163.221 118.855 162.421 113.258C161.461 107.182 160.821 100.946 159.861 94.8703C158.581 87.5151 157.301 80.0001 155.381 72.8048C155.381 72.4851 155.381 72.1653 155.221 71.8455C157.141 71.3658 158.101 72.0054 158.741 73.9241C160.021 78.0814 160.662 82.3986 161.302 86.7157C162.102 93.1115 163.541 99.3474 164.661 105.583C166.101 113.898 167.541 122.212 168.661 130.687C169.941 139.961 171.381 149.235 172.821 158.349C173.781 164.904 174.581 171.3 175.541 177.856C176.981 186.65 178.581 195.444 180.021 204.398C181.941 217.03 184.821 229.502 186.741 242.133C187.541 246.77 188.341 251.567 188.981 256.204C189.301 258.283 187.861 259.402 185.621 258.922L185.781 259.242Z" fill="#0ABAEE"/>
<path d="M6.10132 3.73045C7.70132 2.61119 9.14135 3.0909 10.5813 3.41069C19.2213 5.48932 27.7013 8.68721 35.8613 12.045C56.3413 20.0397 76.6613 28.1944 96.3413 38.1078C110.901 45.3031 125.301 52.978 139.541 60.9728C143.861 63.3712 148.341 65.6097 152.661 68.0082C153.461 68.4879 154.261 68.8076 154.741 69.6071C154.101 70.0868 153.301 70.2467 152.661 69.767C146.261 65.6097 139.221 62.7317 132.341 59.5338C99.2213 43.8641 66.2613 27.5548 32.3413 13.6439C24.1813 10.2862 16.1813 6.60856 7.54131 4.52993C7.06131 4.52993 6.58132 4.21015 6.10132 3.89036V3.73045Z" fill="#0ABAEE"/>
<path d="M217.941 149.554C217.621 150.354 218.421 150.354 218.741 150.674C222.741 153.872 227.381 156.43 231.701 159.148C232.821 159.788 233.941 160.427 234.741 161.387C235.701 162.506 236.021 163.625 235.061 164.904C233.941 166.183 232.821 165.704 231.541 164.904C217.781 156.43 205.141 146.357 191.381 138.042C191.061 138.042 190.741 137.722 190.581 137.722C184.821 133.245 178.741 129.248 172.341 125.73C171.861 123.811 171.541 122.053 171.541 120.134C173.461 120.454 174.741 122.212 176.661 122.372C176.661 123.012 177.301 123.172 177.781 123.172C177.781 123.652 178.261 123.651 178.581 123.651C178.581 124.131 179.061 124.131 179.541 124.131C191.221 132.126 202.901 140.281 215.061 147.636C215.061 148.435 215.541 148.595 216.341 148.595C216.661 149.395 217.301 150.034 218.261 149.714L217.941 149.554Z" fill="#FEFEFE"/>
<path d="M137.461 170.341C139.381 170.661 139.701 171.3 138.901 172.899C137.781 175.298 136.021 177.216 134.261 179.295C128.981 185.371 123.701 191.447 118.581 197.683C115.381 201.52 112.661 205.678 109.781 209.675C109.461 210.155 108.821 210.794 108.821 211.594C109.781 212.553 111.061 213.193 112.341 213.832C111.541 214.632 110.901 215.431 110.101 216.231C107.541 214.632 105.141 213.193 102.581 211.594C106.261 207.276 109.941 202.959 113.781 198.802C121.461 190.168 129.301 181.853 136.501 172.899C136.981 172.26 138.101 171.62 137.461 170.501V170.341Z" fill="#FEFEFE"/>
<path d="M193.461 194.964C196.341 198.002 199.061 200.88 201.781 203.918C198.101 206.956 194.421 209.994 190.741 213.192C187.861 209.994 183.381 207.916 183.861 202.319C186.901 200.081 190.101 197.523 193.461 194.964Z" fill="#0ABAEE"/>
<path d="M214.421 176.736C211.061 179.295 207.701 181.693 204.661 183.772C201.141 180.414 197.781 177.216 194.101 173.698C197.301 171.46 200.501 169.221 203.861 166.983C207.381 170.181 210.741 173.379 214.421 176.736Z" fill="#0ABAEE"/>
<path d="M214.421 194.005C211.541 191.287 208.981 188.728 206.101 186.01C208.661 184.091 211.221 182.333 213.781 180.414C215.595 179.028 217.408 179.028 219.221 180.414C221.301 182.013 223.221 183.452 225.621 185.211C221.781 188.249 218.261 191.127 214.581 194.005H214.421Z" fill="#0ABAEE"/>
<path d="M200.181 221.987C197.621 219.428 195.221 216.87 192.661 214.312C196.181 211.593 199.701 208.715 203.541 205.677C206.101 208.395 208.501 210.954 211.061 213.512C207.381 216.39 203.701 219.108 200.181 221.987Z" fill="#0ABAEE"/>
<path d="M212.661 215.751C215.221 218.469 217.781 220.868 220.341 223.426C216.661 225.824 212.981 228.543 209.301 230.941C206.741 228.543 204.341 226.144 201.941 223.906C205.461 220.868 209.141 218.309 212.821 215.751H212.661Z" fill="#0ABAEE"/>
<path d="M202.581 185.371C199.541 187.61 196.981 189.528 194.101 191.607C190.741 188.089 187.701 184.731 184.341 181.214C187.061 179.135 189.621 177.216 191.861 175.458C195.541 178.815 198.901 182.013 202.581 185.371Z" fill="#0ABAEE"/>
<path d="M201.941 165.064C198.581 167.463 195.541 169.701 192.501 171.78C189.621 168.742 186.741 165.864 183.701 162.985C186.261 161.227 188.981 159.308 191.861 157.389C192.501 156.909 192.981 157.229 193.461 157.709C196.181 160.107 198.901 162.506 201.781 165.224L201.941 165.064Z" fill="#0ABAEE"/>
<path d="M172.341 125.73C178.741 129.248 184.821 133.245 190.581 137.722C187.701 138.522 185.781 140.441 183.541 142.039C182.741 142.679 182.101 143.159 181.141 143.958C179.701 142.359 178.421 140.76 176.981 139.161C178.101 138.202 179.221 137.083 180.341 135.963C180.821 135.324 181.621 134.684 180.821 133.725C180.181 132.925 179.381 133.725 178.741 134.045C177.141 135.164 175.701 136.443 173.941 137.882C173.301 133.725 172.661 129.728 172.341 125.57V125.73Z" fill="#0ABAEE"/>
<path d="M177.781 164.425C177.141 160.427 176.661 156.59 176.021 152.752C176.021 151.953 176.021 151.473 176.661 150.993C178.261 149.714 180.021 148.435 181.621 146.996C184.501 149.554 187.221 152.113 190.101 154.671C187.221 156.91 184.341 158.988 181.461 161.067C180.501 160.587 180.021 159.628 179.221 158.988C178.901 158.668 178.421 158.508 178.101 158.828C177.621 159.148 177.941 159.628 178.101 159.948C178.741 160.747 179.381 161.387 180.021 162.346C179.221 162.986 178.581 163.625 177.781 164.425Z" fill="#0ABAEE"/>
<path d="M204.021 202.16C201.141 199.122 198.421 196.404 195.701 193.366C198.421 191.287 201.141 189.368 203.541 187.77C206.421 190.328 209.301 192.886 212.341 195.604C209.461 197.843 206.741 199.922 204.021 202.16Z" fill="#0ABAEE"/>
<path d="M205.621 204.079C208.501 201.84 211.221 199.761 213.941 197.523C216.501 200.241 218.901 202.959 221.461 205.837C219.061 207.596 216.341 209.835 213.941 211.594C211.061 209.035 208.341 206.637 205.621 204.079Z" fill="#0ABAEE"/>
<path d="M190.741 173.059C187.861 175.457 185.461 177.696 183.061 179.615C178.261 176.896 178.901 171.94 178.261 167.623C178.261 166.823 179.061 166.663 179.541 166.343C180.341 165.704 180.981 165.224 181.461 164.904C184.661 167.623 187.702 170.341 190.902 173.059H190.741Z" fill="#0ABAEE"/>
<path d="M192.021 193.206C189.141 195.444 186.421 197.843 183.541 200.561C182.261 193.365 181.141 186.49 180.021 179.455C184.181 184.092 188.021 188.569 192.181 193.206H192.021Z" fill="#0ABAEE"/>
<path d="M199.221 225.984C201.781 228.382 204.181 230.621 206.581 233.019C204.501 234.458 202.261 236.057 200.501 237.336C197.941 235.098 195.541 233.019 192.981 230.781C195.381 228.862 197.461 227.423 199.221 226.144V225.984Z" fill="#0ABAEE"/>
<path d="M189.941 216.55C192.661 218.949 195.221 221.347 198.101 223.905C196.021 225.664 194.101 227.263 192.021 228.862C190.901 228.063 190.421 226.464 189.461 225.984C187.381 224.865 187.701 222.946 187.061 221.347C186.581 219.748 187.061 218.789 188.341 217.829C188.981 217.51 189.621 216.87 189.941 216.55Z" fill="#0ABAEE"/>
<path d="M103.541 69.7668C102.581 68.3278 103.541 67.2085 104.341 66.0893C106.261 63.2112 108.181 60.493 110.421 57.455C108.501 56.6555 106.741 55.8561 104.981 55.0566C105.621 54.0972 106.421 53.1378 107.221 52.0186C109.941 53.2977 112.501 54.417 115.221 55.8561C110.901 60.3331 107.221 64.97 103.541 69.7668Z" fill="#FEFEFE"/>
<path d="M191.381 244.852C190.741 240.854 190.101 237.337 189.621 233.819C189.301 232.38 190.581 232.54 191.381 231.9C193.781 234.299 195.701 236.857 198.581 238.776C196.181 240.695 193.781 242.453 191.381 244.852Z" fill="#0ABAEE"/>
<path d="M179.701 144.438C178.101 146.197 176.821 147.476 175.541 148.915C175.221 146.676 174.901 144.438 174.581 142.199C174.581 141.56 174.261 141.08 174.901 140.76C175.701 140.441 175.861 141.08 176.181 141.56C177.301 142.679 178.581 143.639 179.541 144.598L179.701 144.438Z" fill="#0ABAEE"/>
<path d="M97.3014 204.558C98.9014 205.518 100.501 206.477 101.941 207.436C101.461 208.236 100.821 209.195 100.181 209.995C98.4214 208.875 96.6614 207.756 94.9014 206.637C95.5414 205.678 96.3414 205.038 97.1414 204.398L97.3014 204.558Z" fill="#FEFEFE"/>
<path d="M185.621 210.954C186.741 212.073 187.861 213.353 188.981 214.632C188.341 215.591 187.541 216.39 186.421 217.19C185.941 214.951 185.622 213.033 185.302 211.114C185.302 211.114 185.461 211.114 185.621 211.114V210.954Z" fill="#0ABAEE"/>
<path d="M176.501 122.372C174.581 122.212 173.301 120.293 171.381 120.134C170.901 119.654 171.061 119.014 171.221 118.215C172.981 119.654 175.221 120.453 176.501 122.372Z" fill="#0ABAEE"/>
<path d="M188.341 227.743C189.515 229.342 189.728 230.461 188.981 231.101C188.821 230.142 188.661 229.182 188.341 227.743Z" fill="#0ABAEE"/>
<path d="M217.941 149.554C216.981 149.714 216.341 149.235 216.021 148.435C216.821 148.435 217.461 148.915 217.941 149.554Z" fill="#0ABAEE"/>
<path d="M177.621 123.012C177.141 123.012 176.661 123.012 176.501 122.212C177.301 121.893 177.461 122.212 177.621 123.012Z" fill="#0ABAEE"/>
<path d="M216.021 148.435C215.381 148.435 214.901 148.275 214.741 147.476C215.221 147.635 215.861 147.795 216.021 148.435Z" fill="#0ABAEE"/>
<path d="M179.381 123.971C179.061 123.971 178.581 123.971 178.421 123.492C178.901 123.492 179.061 123.652 179.381 123.971Z" fill="#0ABAEE"/>
<path d="M178.421 123.492C178.101 123.492 177.781 123.492 177.621 123.012C178.101 122.852 178.261 123.012 178.421 123.492Z" fill="#0ABAEE"/>
<path d="M84.0215 73.9243C84.0215 73.6045 84.0215 73.2847 84.3415 73.2847C84.5015 73.7644 84.3415 73.7644 84.0215 73.9243Z" fill="#FEFEFE"/>
<path d="M121.941 207.756C121.941 208.076 121.941 208.236 121.621 208.236C121.621 207.916 121.621 207.756 121.941 207.756Z" fill="#0ABAEE"/>
<path d="M121.621 208.236C121.621 208.556 121.622 208.716 121.302 208.716C121.302 208.396 121.301 208.236 121.621 208.236Z" fill="#0ABAEE"/>
<path d="M121.141 208.556C121.141 208.875 120.981 209.035 120.661 209.035C120.661 208.716 120.821 208.556 121.141 208.556Z" fill="#0ABAEE"/>
<path d="M34.7413 166.024C34.7413 166.024 34.5813 166.024 34.4213 166.184C33.7813 166.663 33.3013 167.942 32.3413 167.303C31.2213 166.663 32.3413 165.544 32.3413 164.745C38.1013 157.389 44.0213 150.034 50.1013 142.839C50.4213 142.519 50.7413 142.199 51.0613 141.88C51.5413 141.4 52.0213 140.6 52.6613 141.24C53.4613 141.88 52.6613 142.519 52.3413 142.999C48.5013 148.595 44.3413 154.032 40.0213 159.308C38.2613 161.547 36.5013 163.625 34.7413 165.864V166.024Z" fill="#030607"/>
<path d="M42.2615 170.98C41.3015 171.3 40.6615 170.98 40.5015 169.861C43.0615 165.864 46.2615 162.186 49.6215 158.828C50.1015 158.349 50.5815 157.549 51.3815 158.189C52.0215 158.828 51.3815 159.308 50.9015 159.788C48.0215 163.465 45.1415 167.303 42.2615 170.98Z" fill="#030607"/>
<path d="M9.30137 13.4841C9.30137 13.4841 9.30136 13.4841 9.14136 13.3242C9.14136 13.3242 9.14137 13.4841 9.30137 13.644V13.4841Z" fill="#0ABAEE"/>
</svg>
