<svg width="129" height="136" viewBox="0 0 129 136" fill="none" xmlns="http://www.w3.org/2000/svg">
<path d="M127.5 123.35L106.7 128.786L87.6603 134.542L59.1803 99.6852L12.7803 67.7063C12.7803 67.7063 9.58025 61.7902 12.4602 60.8308C25.9002 56.5137 68.3002 49.6382 68.6202 49.6382C68.9402 49.6382 83.8202 52.5163 83.8202 52.5163L96.3003 66.4271" fill="#FEFEFE"/>
<path d="M90.8602 133.423C89.7402 134.382 88.1402 134.382 86.7002 135.022C84.7802 132.783 83.1801 130.225 81.4201 127.827C80.6201 126.548 79.8202 125.428 79.1802 124.149C77.5802 120.791 75.0202 119.192 71.5002 118.873C69.1002 118.873 66.8601 117.913 64.9401 116.314C64.3001 115.835 63.9801 115.995 63.3401 116.314C61.9001 116.634 60.6202 117.114 59.1802 117.434C55.3402 118.233 52.3001 117.434 49.7401 114.236C45.9001 109.759 43.1802 104.642 40.3002 99.3655C40.1402 98.8858 39.8202 98.4061 39.6602 98.0863C31.8202 99.3654 21.2601 91.5306 23.8201 85.9343C21.5801 84.3354 19.1801 82.8963 17.7401 80.338C16.1401 77.7797 15.6601 75.2213 17.7401 72.5031C14.3801 69.9448 10.3802 67.8662 11.5002 62.5897C14.2202 67.7063 18.3802 70.7443 23.9802 71.7037C25.7402 72.3432 27.3401 72.1834 28.9401 71.5438C30.8601 70.7443 31.0202 70.2646 29.5802 68.8256C25.9002 64.9881 21.4202 62.5897 16.4602 60.9907C15.6602 60.8308 15.0201 60.6709 14.2201 60.9907C13.2601 60.9907 12.7801 62.11 11.8201 61.6303C11.5001 59.5517 12.9401 58.2725 16.1401 57.7928C13.9001 54.435 11.8201 51.0772 9.74014 47.7194C6.06014 41.9632 2.86012 36.0471 0.620117 29.6514V25.4941C2.22012 20.6972 5.74014 17.8191 9.74014 15.5806C19.3401 10.1442 29.5801 5.50723 39.8201 1.50986C45.2601 -0.568768 48.3002 0.550491 51.9802 5.02754C52.9402 6.3067 54.0602 7.58586 54.8602 9.02491C60.3002 17.6592 65.7401 26.2935 71.0201 34.9279C73.4201 38.9252 74.8602 43.4023 76.7802 47.5596C77.1002 48.5189 77.5801 49.1585 78.5401 49.3184C79.5001 49.6382 80.3002 50.1179 81.2602 50.2778C88.9402 52.8361 93.9002 58.4324 98.0602 64.9881C108.14 80.9776 117.1 97.6066 125.58 114.555C126.7 116.794 127.5 119.033 128.14 121.271C128.46 122.071 128.3 122.87 127.66 123.19C126.86 123.669 126.7 122.55 126.38 122.071C120.3 112.157 115.02 101.604 109.26 91.5306C103.66 81.9369 98.2202 72.3433 91.6602 63.2293C89.2602 60.0314 86.5402 57.1532 82.7002 55.7142C79.6602 54.1152 76.4602 52.6762 73.1002 51.7168C71.0202 51.0772 68.7802 50.7575 66.7002 50.7575C64.1402 50.7575 62.5402 52.1965 62.3802 54.7548C62.3802 56.5137 62.7002 58.1126 63.5002 59.7115C66.2202 65.148 69.5801 69.7849 75.0201 72.9828C77.2601 74.4219 78.3801 76.3406 78.2201 79.0588C78.2201 81.9369 77.5801 84.9749 78.5401 87.853C80.1401 92.49 82.7002 96.3275 87.9802 97.4467C90.7002 98.0863 93.4201 99.0457 95.8201 100.165C96.9401 100.645 97.7402 101.444 97.2602 102.723C96.7802 104.002 95.5002 103.843 94.3802 103.523C92.6202 102.883 90.7002 102.084 89.1002 101.284C82.3802 106.241 75.5002 110.878 67.9802 114.555C69.9002 115.035 71.5002 115.355 73.2602 115.355C77.1002 115.355 79.9802 117.114 82.0602 120.312C84.9402 124.789 87.6601 129.266 91.0201 133.423H90.8602ZM31.9802 88.1728C29.9002 87.853 27.9802 87.3734 25.9002 87.0536C26.2202 90.7311 32.7801 95.2082 37.7401 95.0483C40.9401 94.5686 41.5802 93.4493 40.4602 90.5712C39.8202 88.9723 38.8602 87.6931 37.9002 86.2541C36.3002 88.0129 34.0602 87.853 31.9802 88.1728ZM24.3002 74.9016H23.8201C23.0201 74.5818 22.0602 74.262 21.2602 74.1021C19.6602 73.6224 18.8601 74.1021 19.0201 75.8609C19.0201 76.6604 19.1802 77.4599 19.6602 78.0994C22.3802 82.2567 26.0602 84.6552 31.1802 84.815C31.6602 84.815 32.1402 84.815 32.4602 84.815C35.8202 84.815 36.6202 83.6958 35.1802 80.6578C34.5402 79.2187 33.7402 77.6198 33.1002 76.1807C32.9402 75.701 32.3002 74.9016 33.1002 74.4219C33.9002 73.9422 34.3802 74.5818 34.8602 75.0615C37.2602 76.9802 38.7001 79.5385 39.0201 82.5765C39.1801 84.1755 39.8202 84.9749 40.7802 85.7744C44.9402 89.2921 45.2602 93.929 41.5802 97.4467C43.1802 99.5254 44.7801 101.764 46.2201 103.843C46.8601 103.523 46.7002 103.203 46.7002 102.723C47.3402 98.4061 47.9801 94.0889 48.6201 89.7718C48.6201 89.1322 48.6202 88.3327 49.5802 88.4926C50.3802 88.4926 50.3802 89.452 50.3802 90.0916C50.3802 90.5712 50.3802 91.0509 50.3802 91.6905C50.3802 96.6472 49.5802 101.444 48.7802 106.241C48.4602 108.16 49.4201 108.959 50.5401 110.238C50.8601 108.32 50.8602 106.881 51.1802 105.282C51.6602 103.523 51.1801 101.444 52.6201 99.8451C53.7401 100.165 53.4201 101.124 53.4201 101.924C53.4201 105.122 53.4202 108.16 52.7802 111.198C52.4602 113.276 53.4201 113.916 55.0201 114.236C55.8201 114.396 56.7801 114.555 57.7401 114.236C61.1001 113.596 64.1402 112.317 67.1802 110.878V107.2C67.3402 105.921 67.5002 104.642 67.6602 103.523C67.6602 102.723 68.1402 102.084 69.1002 102.244C70.0602 104.642 69.2602 107.04 69.1002 109.759C74.8602 107.52 79.5001 103.683 84.6201 100.485C82.8601 100.005 81.5802 99.0457 80.3002 98.2462C74.8602 93.6093 72.7801 87.6932 73.4201 80.8177C73.5801 78.739 72.9402 77.4599 71.1802 76.3406C64.9402 72.5031 60.7802 66.7469 58.3802 60.0314C55.3402 52.0366 60.6202 45.9606 69.1002 47.3997C70.5402 47.5596 71.8201 47.7195 73.7401 48.0393C70.0601 41.1638 66.7001 34.6081 62.2201 28.8519C61.9001 27.8925 61.4202 27.093 60.4602 26.2936C59.6602 29.8112 59.3402 33.169 57.9002 36.207C56.1402 35.8872 57.1002 34.4482 57.2602 33.8086C57.7402 30.9305 58.3802 28.0524 58.8602 25.3342C58.8602 24.6946 59.3402 24.055 58.8602 23.5753C58.0602 22.1363 57.4201 20.6972 56.1401 19.4181C56.1401 20.2175 56.1401 20.8571 56.1401 21.3368C54.5401 27.4128 53.7402 33.6487 51.5002 39.5648C50.7002 38.1258 51.5002 36.5268 51.1802 35.0878C51.9802 29.1717 53.1002 23.4155 54.7002 17.6592C54.8602 16.8598 54.7001 16.2202 54.2201 15.5806C52.4601 12.7025 50.3802 9.9843 48.4602 7.26609C46.7002 4.70777 44.3001 4.06818 41.4201 5.02754C40.6201 5.34733 39.6602 5.50723 38.8602 5.82702C30.5402 9.02491 22.5401 13.0223 14.5401 17.0197C11.8201 18.4587 9.26016 20.0577 6.86016 21.9764C4.14016 24.2149 3.1802 27.093 4.3002 30.4508C5.4202 33.9685 7.18014 37.3263 8.94014 40.6841C9.74014 42.1231 10.7001 43.5622 11.8201 45.4809C11.9801 44.2018 12.1402 43.4023 12.3002 42.7627C12.9402 39.8846 13.5802 37.0065 14.3802 34.1284C14.3802 33.4888 14.5402 32.6894 15.5002 32.8492C16.4602 33.0091 15.9802 33.8086 15.9802 34.4482C15.9802 34.6081 15.9802 34.768 15.9802 35.0878C15.3402 38.6054 14.7001 42.283 13.7401 45.6408C13.1001 48.0393 14.2202 49.4783 15.6602 51.2371C15.6602 48.1991 16.4602 45.6408 17.1002 43.0825C17.1002 42.6028 17.4201 41.8034 18.2201 41.9632C18.8601 41.9632 18.8602 42.6028 18.8602 43.2424C18.8602 45.8007 18.5401 48.1991 18.2201 50.5976C18.2201 51.5569 17.9002 52.5163 17.1002 53.1559C19.0202 56.8335 21.2601 60.1912 25.4201 61.4704C25.9001 61.4704 26.3802 61.9501 26.7002 62.2699C29.1002 63.7089 31.3401 65.4678 32.9401 67.7063C34.8601 70.4245 34.2202 72.9828 31.1802 74.4219C28.9402 75.5412 26.7002 75.701 24.3002 75.3812V74.9016Z" fill="#070707"/>
<path d="M90.8602 133.423C87.5002 129.266 84.7802 124.789 81.9002 120.312C79.8202 117.114 76.9402 115.515 73.1002 115.355C71.3402 115.355 69.5802 115.035 67.8202 114.555C75.3402 111.038 82.2202 106.401 88.9402 101.284C90.5402 101.924 92.4602 102.723 94.2202 103.523C95.3402 104.002 96.4602 104.162 97.1002 102.723C97.5802 101.444 96.7802 100.645 95.6602 100.165C93.1002 99.0457 90.5402 98.0863 87.8202 97.4467C82.7002 96.3275 79.9802 92.49 78.3802 87.853C77.4202 84.9749 77.9002 82.0968 78.0602 79.0588C78.0602 76.3406 77.1002 74.4219 74.8602 72.9828C69.5802 69.7849 66.0602 65.148 63.3402 59.7115C62.5402 58.1126 62.0602 56.5137 62.2202 54.7548C62.3802 52.1965 63.9802 50.7575 66.5402 50.7575C68.7802 50.7575 70.8602 51.0772 72.9402 51.7168C76.3002 52.6762 79.5002 53.9553 82.5402 55.7142C84.7802 61.9501 85.1002 68.6656 87.1802 74.9015C88.9402 80.1781 91.9802 84.815 95.6602 89.1322C99.8202 93.929 104.46 98.566 107.18 104.482C107.5 105.122 107.82 105.601 107.98 106.241C109.9 110.718 109.26 111.997 104.62 113.276C103.66 113.596 102.7 113.756 101.9 114.076C99.8202 114.715 99.6602 115.195 100.78 117.114C102.7 120.472 105.26 123.35 107.98 126.068C108.46 126.548 109.26 127.027 109.26 128.147C107.5 128.626 105.74 129.106 103.98 129.586C99.8202 130.705 95.6602 131.824 91.5002 133.423C91.1802 133.423 90.8602 133.423 90.5402 133.423H90.8602Z" fill="#EEC6CE"/>
<path d="M14.2201 60.9907C14.8601 60.511 15.6602 60.6709 16.4602 60.9907C21.4202 62.5897 25.9002 65.148 29.5802 68.8256C31.0202 70.2646 30.8601 70.9042 28.9401 71.5438C27.3401 72.1834 25.5802 72.3432 23.9802 71.7037C24.9402 68.186 24.9402 68.1859 21.5802 66.9068C19.3402 66.1073 17.2602 65.148 15.5002 63.3891C14.8602 62.5896 14.3802 61.9501 14.3802 60.8308L14.2201 60.9907Z" fill="#EEC6CE"/>
<path d="M31.1802 74.1021C28.9402 75.2213 26.7002 75.3812 24.3002 75.0614C24.3002 78.4192 26.3802 80.6578 28.6202 82.7364C29.4202 83.5359 30.2202 84.0156 31.1802 84.6551C31.6602 84.6551 32.1402 84.6551 32.4602 84.6551C35.8202 84.6551 36.6202 83.5359 35.1802 80.4979C34.5402 79.0588 33.7402 77.4599 33.1002 76.0208C32.9402 75.5411 32.3002 74.7417 33.1002 74.262C33.1002 74.262 33.2602 74.262 33.4202 74.262C33.2602 73.9422 32.9402 73.6224 32.7802 73.3026C32.4602 73.6224 31.9802 73.9422 31.5002 74.1021H31.1802Z" fill="#EEC6CE"/>
<path d="M73.9002 80.4979C74.0602 78.4192 73.4202 77.1401 71.6602 76.0208C65.4202 72.1834 61.2602 66.4271 58.8602 59.7115C55.8202 51.7168 61.1002 45.6408 69.5802 47.0799C71.0202 47.2398 72.3002 47.3997 74.2202 47.7194C70.5402 40.844 67.1802 34.2883 62.7002 28.5321C62.2202 30.9305 61.7402 33.3289 61.1002 35.7273C61.1002 35.8872 61.1002 36.207 61.1002 36.207C60.6202 37.1664 60.7802 38.9252 59.3402 38.6054C58.0602 38.2857 58.8602 36.8466 58.5402 35.7273C56.7802 35.4075 57.7402 33.9685 57.9002 33.3289C58.3802 30.4508 59.0202 27.5727 59.5002 24.8545C59.5002 24.2149 59.9802 23.5753 59.5002 23.0957C58.0602 23.0957 58.0602 21.017 56.7802 20.8571C55.1802 26.9331 54.3802 33.169 52.1402 39.0851C51.3402 37.6461 52.1402 36.0471 51.8202 34.6081C50.3802 34.6081 50.3802 33.8086 50.2202 32.6893C49.9002 27.5727 50.7002 22.616 52.1402 17.8191C53.2602 13.8218 50.5402 12.0629 48.6202 9.82439C47.0202 7.90565 44.6202 7.42597 42.2202 7.90566C37.1002 8.86502 32.7802 11.5832 28.1402 13.6619C27.6602 13.8218 27.1802 14.1416 27.3402 14.7811C28.6202 15.7405 29.2602 16.8598 28.1402 18.2988C27.1802 19.578 25.9002 19.4181 24.7802 18.6186C23.6602 17.8191 23.9802 16.6999 24.3002 15.7405C20.1402 17.0196 16.6202 19.2582 12.9402 21.4967C12.6202 21.8165 12.3002 21.9764 11.8202 22.2962C8.78016 24.5347 7.02024 27.2529 8.30024 31.4102C9.26024 34.6081 10.0602 37.806 11.6602 40.6841C11.9802 41.3237 12.1402 42.1231 12.9402 42.1231C13.5802 39.245 14.2202 36.3669 15.0202 33.4888C15.0202 32.8492 15.1802 32.0498 16.1402 32.2097C17.1002 32.3696 16.6202 33.169 16.6202 33.8086C16.6202 33.9685 16.6202 34.1284 16.6202 34.4482C15.9802 37.9659 15.3402 41.6434 14.3802 45.0012C13.7402 47.3997 14.8602 48.8387 16.3002 50.5976C16.3002 47.5596 17.1002 45.0013 17.7402 42.4429C17.7402 41.9632 18.0602 41.1638 18.8602 41.3237C19.5002 41.3237 19.5002 41.9632 19.5002 42.6028C19.5002 45.1611 19.1802 47.5596 18.8602 49.958C18.8602 50.9174 18.5402 51.8767 17.7402 52.5163C19.6602 56.1939 21.9002 59.5517 26.0602 60.8308C26.5402 60.8308 27.0202 61.3105 27.3402 61.6303C29.7402 63.0694 31.9802 64.8282 33.5802 67.0667C35.1802 69.3052 35.0202 71.3839 33.1002 72.9828C33.2602 73.3026 33.5802 73.6224 33.7402 73.9422C34.3802 73.7823 34.8602 74.262 35.3402 74.7417C37.7402 76.6604 39.1802 79.2187 39.5002 82.2567C39.6602 83.8557 40.3002 84.6551 41.2602 85.4546C45.4202 88.9723 45.7402 93.6093 42.0602 97.1269C43.6602 99.2056 45.2602 101.444 46.7002 103.523C47.3402 103.203 47.1802 102.883 47.1802 102.403C47.8202 98.0863 48.4602 93.7691 49.1002 89.452C49.1002 88.8124 49.1002 88.0129 50.0602 88.1728C50.8602 88.1728 50.8602 89.1322 50.8602 89.7718C50.8602 90.2515 50.8602 90.7311 50.8602 91.3707C50.8602 96.3275 50.0602 101.124 49.2602 105.921C48.9402 107.84 49.9002 108.639 51.0202 109.919C51.3402 108 51.3402 106.561 51.6602 104.962C52.1402 103.203 51.6602 101.124 53.1002 99.5254C53.2602 98.566 53.1002 97.6066 54.3802 96.8072C55.8202 98.8858 55.5002 101.124 55.8202 103.363C56.1402 105.601 56.4602 107.68 56.7802 110.078C59.9802 110.878 62.5402 109.599 65.2602 108.16C66.0602 107.68 66.7002 106.881 67.8202 106.881C67.9802 105.601 68.1402 104.322 68.3002 103.203C68.3002 102.403 68.7802 101.764 69.7402 101.924C69.7402 101.604 69.7402 101.124 69.7402 100.805C69.7402 100.325 70.0602 99.8451 70.5402 99.6852C71.1802 99.6852 71.3402 100.325 71.5002 100.805C71.5002 101.284 71.5002 101.764 71.5002 102.244C71.5002 102.723 71.5002 103.043 71.5002 103.843C74.7002 101.924 77.4202 99.5253 80.7802 98.0863C75.3402 93.4493 73.2602 87.5332 73.9002 80.6578V80.4979Z" fill="#D1CACB"/>
<path d="M23.8202 15.9004C19.6602 17.1795 16.1402 19.4181 12.4602 21.6566C12.1402 21.9764 11.8202 22.1363 11.3402 22.4561C8.30021 24.6946 6.5402 27.4128 7.8202 31.5701C8.7802 34.768 9.58025 37.9659 11.1803 40.844C11.5003 41.4836 11.6602 42.283 12.4602 42.283C12.4602 43.0825 12.3003 43.7221 11.9803 45.0012C10.8603 43.0825 9.90027 41.6434 9.10027 40.2044C7.18027 37.0065 5.58023 33.6487 4.46023 29.9711C3.34023 26.4534 4.4602 23.7352 7.0202 21.4967C9.4202 19.578 11.9803 17.8191 14.7003 16.5399C22.7003 12.5426 30.7002 8.54521 39.0202 5.34732C39.8202 5.02753 40.6203 4.70774 41.5803 4.54784C44.4603 3.58847 46.8602 4.22807 48.6202 6.78638C50.5402 9.50459 52.6203 12.2228 54.3803 15.1009C54.8603 15.7405 55.0202 16.3801 54.8602 17.1795C53.2602 22.9358 52.1402 28.692 51.3402 34.6081C49.9002 34.6081 49.9002 33.8086 49.7402 32.6893C49.4202 27.5727 50.2202 22.616 51.6602 17.8191C52.7802 13.8217 50.0602 12.0629 48.1402 9.82437C46.5402 7.90564 44.1402 7.42596 41.7402 7.90564C36.6202 8.86501 32.3002 11.5832 27.6602 13.6619C27.1802 13.8218 26.7002 14.1415 26.8602 14.7811C25.5802 14.4613 24.7802 15.1009 23.8202 15.7405V15.9004Z" fill="#FEFEFE"/>
<path d="M53.1002 99.5254C53.2602 98.566 53.1002 97.6066 54.3802 96.8072C55.8202 98.8858 55.5002 101.124 55.8202 103.363C56.1402 105.601 56.4602 107.68 56.7802 110.078C59.9802 110.878 62.5402 109.599 65.2602 108.16C66.0602 107.68 66.7002 106.881 67.8202 106.881L67.8202 110.558C64.7802 111.997 61.7402 113.276 58.3802 113.916C57.5802 114.076 56.6202 113.916 55.6602 113.916C54.2202 113.596 53.1002 112.956 53.4202 110.878C54.0602 107.84 54.0602 104.642 54.0602 101.604C54.0602 100.805 54.3802 99.8451 53.2602 99.5254L53.1002 99.5254Z" fill="#FEFEFE"/>
<path d="M69.5802 101.924C69.5802 101.604 69.5802 101.124 69.5802 100.805C69.5802 100.325 69.9002 99.8451 70.3802 99.6852C71.0202 99.6852 71.1802 100.325 71.3402 100.805C71.3402 101.284 71.3402 101.764 71.3402 102.244C71.3402 102.723 71.3402 103.043 71.3402 103.843C74.5402 101.924 77.2602 99.5253 80.6202 98.0863C82.0602 98.8858 83.3402 99.8451 84.9402 100.325C79.8202 103.523 75.1802 107.36 69.4202 109.599C69.4202 106.881 70.2202 104.482 69.4202 102.084L69.5802 101.924Z" fill="#FEFEFE"/>
<path d="M24.3002 75.0614C24.3002 78.4192 26.3802 80.6578 28.6202 82.7364C29.4202 83.5359 30.2202 84.0156 31.1802 84.6551C26.2202 84.3353 22.3802 82.0968 19.6602 77.9396C19.3402 77.3 19.0202 76.5005 19.0202 75.701C19.0202 73.9422 19.6602 73.4625 21.2602 73.9422C22.0602 74.262 23.0202 74.4219 23.8202 74.7417C23.8202 74.9016 24.1402 75.0615 24.3002 74.7417L24.3002 75.0614Z" fill="#FEFEFE"/>
<path d="M31.9802 88.1728C34.0602 87.853 36.3002 88.1728 37.9002 86.2541C38.8602 87.6931 39.8202 88.9723 40.4602 90.5712C41.5802 93.4493 40.9401 94.5686 37.7401 95.0483C35.5001 92.9697 33.1002 91.0509 31.9802 88.1728Z" fill="#EEC6CE"/>
<path d="M31.9802 88.1728C33.1002 91.2108 35.5001 93.1296 37.7401 95.0483C32.7801 95.2082 26.2202 90.7311 25.9002 87.0536C27.9802 87.3734 29.9002 87.853 31.9802 88.1728Z" fill="#FEFEFE"/>
<path d="M62.7002 28.3722C62.2202 30.7706 61.7402 33.169 61.1002 35.5674C61.1002 35.7273 61.1002 36.0471 61.1002 36.0471C60.6202 37.0065 60.7802 38.7653 59.3402 38.4456C58.0602 38.1258 58.8602 36.6867 58.5402 35.5674C59.9802 32.5294 60.1402 29.1717 61.1002 25.654C62.0602 26.4535 62.3802 27.2529 62.8602 28.2123L62.7002 28.3722Z" fill="#FEFEFE"/>
<path d="M59.1802 23.0957C57.7402 23.0957 57.7402 21.017 56.4602 20.8571C56.4602 20.2176 56.4602 19.7379 56.4602 18.9384C57.7402 20.3774 58.3802 21.8165 59.1802 23.0957Z" fill="#FEFEFE"/>
<path d="M24.3002 74.9016C24.1402 75.0614 23.9801 74.9016 23.8201 74.9016C23.9801 74.9016 24.1402 74.9016 24.3002 74.9016Z" fill="#D1CACB"/>
<path d="M23.8202 15.9004C24.7802 15.2608 25.7402 14.6212 26.8602 14.941C28.1402 15.9004 28.7802 17.0197 27.6602 18.4587C26.7002 19.7379 25.4202 19.578 24.3002 18.7785C23.1802 17.979 23.5002 16.8597 23.8202 15.9004Z" fill="#070707"/>
</svg>
