<svg width="197" height="1002" viewBox="0 0 197 1002" fill="none" xmlns="http://www.w3.org/2000/svg">
<path d="M46.617 103.041V41.9515C85.417 29.2802 123.55 16.8756 161.017 4.73778C161.017 24.4784 161.017 44.3524 161.017 64.0931C123.684 76.7644 85.5503 89.8359 46.7503 103.041H46.617ZM46.7503 102.774C85.417 89.5691 123.417 76.631 160.617 63.9597C160.617 44.219 160.617 24.6118 160.617 4.87117C123.284 17.009 85.2837 29.4136 46.617 42.0849C46.617 62.3591 46.617 82.4999 46.617 102.774H46.7503Z" fill="#76B82A"/>
<path d="M41.1504 107.576C41.1504 85.5677 41.1504 63.5595 41.1504 41.5514C83.2837 27.813 124.484 14.3413 165.15 1.13646C165.15 22.6111 165.15 43.9523 165.15 65.2935C124.617 79.0319 83.417 93.1705 41.2837 107.442L41.1504 107.576Z" fill="white"/>
<path d="M166.75 33.2817C166.75 25.2787 166.484 9.13942 166.217 1.13646C166.217 0.336163 165.417 -0.197372 164.75 0.0693932C144.217 7.27206 123.684 14.208 102.884 20.4769C84.4836 25.9456 58.4837 33.6818 40.617 39.9508C39.9504 40.2176 39.417 40.7511 39.417 41.5514C39.817 63.2928 41.0171 85.9678 41.0171 107.709C70.8838 97.5721 104.35 88.2353 134.217 77.9649C174.484 63.026 166.484 76.631 166.75 33.1483V33.2817ZM133.817 73.83C104.084 83.9671 71.017 97.3053 41.2837 107.442C41.2837 86.368 42.3503 63.9597 42.8836 42.8852C82.7503 30.3473 123.817 14.3413 164.084 2.73705C163.55 22.6111 163.284 44.219 163.15 63.9597C153.417 67.1609 143.684 70.4954 133.95 73.83H133.817Z" fill="black"/>
<path d="M50.75 44.619C86.8833 32.8813 122.35 21.2771 157.15 9.80615C157.15 27.0125 157.15 44.3522 157.15 61.5586C122.35 73.4297 86.8833 85.4341 50.75 97.7053C50.75 79.9654 50.75 62.3589 50.75 44.619ZM142.883 52.7554C148.35 52.0884 146.083 48.087 146.483 44.0855C146.75 42.4849 144.617 44.8858 145.017 43.1518C144.35 28.7465 149.017 28.3463 133.683 33.6816C132.35 37.5497 133.683 42.885 132.217 47.2867C132.217 48.7539 130.617 48.087 130.483 49.2874C131.15 53.0221 128.083 58.891 134.083 55.6898V51.8217C137.15 50.7546 140.083 49.8209 143.017 48.8873C143.017 50.2211 143.017 51.4215 143.017 52.7554H142.883ZM72.4834 62.6257C74.2167 61.1585 74.8833 59.4245 74.75 57.4237C74.0833 51.0214 66.0834 56.7568 62.3501 57.2904C60.8834 62.6257 62.3501 69.695 61.8167 75.5638C65.6834 75.1636 73.2834 73.2963 75.0168 68.6279C75.8168 66.227 75.6834 62.6257 72.4834 62.6257ZM114.35 49.154C113.683 60.0914 126.217 57.5571 128.483 49.154C133.95 31.4141 114.083 34.0818 114.35 49.154ZM98.4834 45.2859C105.15 53.8224 101.55 55.0229 98.0833 63.8261C103.283 63.2926 104.217 59.8246 105.95 55.423C108.483 60.3582 108.35 60.8917 113.683 58.4908C107.15 49.9543 109.417 49.2874 113.283 40.3508C108.083 41.1511 107.55 43.8187 105.95 48.3537C103.55 43.2852 103.817 43.1518 98.4834 45.2859ZM77.8167 52.0884C78.0834 57.9573 77.0166 65.4267 78.2166 70.4953C82.6166 68.6279 89.8168 68.2277 91.0168 62.6257C92.4834 56.4901 88.0834 55.1562 83.1501 57.4237C82.3501 57.6905 82.4834 57.6905 82.4834 57.0236C81.9501 51.8217 84.75 49.2874 77.95 52.0884H77.8167ZM96.6167 55.1562C96.6167 52.2218 96.6167 49.2874 96.6167 46.353C96.0834 45.2859 93.6834 47.1533 92.4834 47.1533C91.2834 52.622 92.4833 59.4245 92.0833 65.2933C92.75 66.227 95.0167 64.493 96.0833 64.3596C97.55 61.9588 96.0834 57.9573 96.6167 54.8895V55.1562Z" fill="#76B82A"/>
<path d="M142.883 52.7554C142.883 51.4215 142.884 50.221 142.884 48.8872L133.951 51.8216V55.6897C127.951 58.7575 131.017 53.0221 130.351 49.2873C130.351 48.0869 132.084 48.7538 132.084 47.2866C133.684 42.7516 132.217 37.5497 133.551 33.6816C148.884 28.3463 144.217 28.7464 144.884 43.1518C144.484 44.8857 146.617 42.4848 146.351 44.0854C145.951 48.0869 148.217 52.0884 142.751 52.7553L142.883 52.7554ZM136.084 46.7531C143.017 45.686 139.817 41.5512 140.484 36.3492C140.084 35.5489 138.351 36.8828 137.551 36.8828C136.217 39.5504 137.017 43.5519 136.084 46.7531Z" fill="white"/>
<path d="M72.4834 62.6257C75.8167 62.6257 75.8168 66.227 75.0168 68.6279C73.2834 73.2963 65.6834 75.1636 61.8167 75.5638C62.3501 69.695 60.8834 62.6257 62.3501 57.2904C65.9501 56.7568 74.0833 51.1548 74.75 57.4237C74.75 59.4245 74.2167 61.1585 72.4834 62.6257ZM66.6171 70.362C71.8171 69.6951 72.8837 63.8263 66.6171 66.6273V70.362ZM66.4838 63.1594C71.0171 62.6259 72.0838 57.2905 66.4838 59.6914C66.4838 60.8919 66.4838 61.9589 66.4838 63.1594Z" fill="white"/>
<path d="M114.35 49.154C114.217 43.9521 117.55 37.6831 122.883 36.8828C129.95 35.549 129.95 44.2189 128.483 49.2874C126.216 57.5571 113.683 60.0914 114.35 49.2874L114.35 49.154ZM118.883 47.6868C119.95 58.2241 127.683 47.0199 124.083 42.0848C121.283 39.4171 118.616 44.8858 118.883 47.6868Z" fill="white"/>
<path d="M98.4834 45.2859C103.817 43.1518 103.55 43.4186 105.95 48.3537C107.55 43.9521 108.083 41.1511 113.283 40.3508C109.417 49.4208 107.15 49.9543 113.683 58.4908C108.35 60.8917 108.483 60.2248 105.95 55.423C104.35 59.6913 103.283 63.2926 98.0833 63.8261C101.55 55.0229 105.283 53.8224 98.4834 45.2859Z" fill="white"/>
<path d="M77.8167 52.0884C84.6167 49.2874 81.8167 51.6884 82.35 57.0237C82.35 57.824 82.35 57.6906 83.0167 57.4239C87.95 55.1564 92.3499 56.4902 90.8832 62.6258C89.6832 68.2279 82.6166 68.4946 78.0833 70.4954C77.0166 65.2934 78.0834 57.9574 77.6834 52.0886L77.8167 52.0884ZM82.35 65.0267C87.4167 64.3598 88.6167 58.6243 82.35 61.4253C82.35 62.6258 82.35 63.8262 82.35 65.0267Z" fill="white"/>
<path d="M96.6167 55.1562C96.2167 58.0907 97.5498 62.2256 96.0831 64.6265C94.8831 64.6265 92.7498 66.3605 92.0831 65.5602C92.4831 59.6914 91.2832 52.8888 92.4832 47.4202C93.6832 47.4202 95.9498 45.5528 96.6165 46.6199C96.6165 49.5543 96.6165 52.4887 96.6165 55.4231L96.6167 55.1562Z" fill="white"/>
<path d="M136.084 46.7531C137.017 43.5519 136.084 39.5504 137.551 36.8828C138.351 36.8828 140.084 35.5489 140.484 36.3492C139.817 41.6845 143.017 45.686 136.084 46.7531Z" fill="#76B82A"/>
<path d="M66.6171 66.6273V70.362C71.8171 69.6951 72.8837 63.8263 66.6171 66.6273Z" fill="#76B82A"/>
<path d="M66.4838 59.6914C66.4838 60.8919 66.4838 61.9589 66.4838 63.1594C71.0171 62.6259 72.0838 57.2905 66.4838 59.6914Z" fill="#76B82A"/>
<path d="M124.083 42.0848C121.283 39.4171 118.616 44.8858 118.883 47.6868C119.95 58.2241 127.55 47.0199 124.083 42.0848Z" fill="#76B82A"/>
<path d="M82.35 61.4253C82.35 62.6258 82.35 63.8262 82.35 65.0267C87.4167 64.3598 88.6167 58.6243 82.35 61.4253Z" fill="#76B82A"/>
<path d="M8.08398 144.523L194.751 78.8984V1000.04L8.08398 921.477V144.523Z" fill="white"/>
<path d="M24.084 154.393L178.751 100.106V957.357L24.084 892.933V154.393Z" fill="#E8E1DD"/>
<path d="M195.817 539.469C196.617 395.149 196.484 223.219 196.084 78.8985C150.484 89.7025 54.7504 129.317 7.95044 144.389C6.75044 355.134 5.81707 613.763 6.08374 824.241L6.21704 921.477C6.21704 922.277 6.61707 922.944 7.41707 923.211L100.884 962.292L194.35 1001.24C195.15 1001.64 196.217 1000.97 196.217 1000.04C195.684 851.317 195.15 687.657 195.95 539.469H195.817ZM194.084 769.687C194.084 826.642 193.684 941.084 193.417 997.905C147.684 978.431 55.6838 939.483 9.95044 920.143C10.4838 674.719 9.6837 390.48 8.21704 144.523C54.4837 128.65 147.284 96.6384 193.417 80.6325C192.217 306.183 194.084 544.404 194.084 769.554V769.687Z" fill="black"/>
<path d="M180.217 153.593L179.95 99.9731C179.95 99.1728 179.15 98.5059 178.35 98.7726C139.817 112.511 62.35 140.255 23.95 154.26C22.4833 385.679 21.6832 661.381 22.2166 892.799C22.0832 896.401 177.017 956.823 178.75 958.557C180.75 694.193 179.95 419.558 180.217 153.593ZM178.083 743.011C178.083 813.837 177.683 884.53 177.417 955.356L25.95 891.599C26.4833 660.714 25.8166 385.412 24.2166 154.527C62.4832 141.455 139.283 115.045 177.417 101.84C176.083 312.452 177.95 532.666 178.083 743.011Z" fill="black"/>
<path d="M49.9507 466.508H24.084V483.181H49.9507V466.508Z" fill="#9C9C9C"/>
<path d="M50.0837 465.175C43.817 464.908 36.8837 465.175 30.617 465.308C28.4837 465.842 24.7503 464.641 23.417 466.375C25.017 489.05 16.3503 484.649 50.0837 483.181C49.817 480.38 53.017 465.308 50.0837 465.041V465.175ZM43.0171 482.514C36.8838 482.114 30.8837 481.714 24.7503 482.381C24.3503 477.446 24.3503 472.244 24.7503 467.309C32.617 467.842 40.8837 468.109 48.617 467.842C48.7504 471.844 49.4171 478.913 49.8171 483.048C47.4171 482.781 45.1504 482.648 43.0171 482.514Z" fill="black"/>
<path d="M34.8836 474.912C34.7503 502.522 1.01696 502.522 0.883626 474.912C1.01696 447.301 34.7503 447.301 34.8836 474.912Z" fill="#EAEAEA"/>
<path d="M31.1504 460.373C12.7504 436.631 -10.1831 470.91 4.8836 489.317C23.9503 513.059 43.817 478.78 31.1504 460.373ZM17.817 494.919C-4.18297 494.919 -3.1163 456.238 17.817 455.171C40.0837 456.105 39.417 493.852 17.817 494.919Z" fill="black"/>
</svg>
