<svg width="306" height="221" viewBox="0 0 306 221" fill="none" xmlns="http://www.w3.org/2000/svg">
<path d="M0 99.5345C2.4 97.296 3.84002 94.7376 3.52002 91.22C3.52002 89.9408 4.32004 88.9815 5.44004 88.3419C22.72 76.5097 40 64.8374 58.08 54.2843C79.84 41.4927 102.56 30.4599 125.76 20.8663C138.24 15.5897 150.4 9.67363 163.2 5.03669C167.68 3.43774 172.32 1.83879 176.96 0.239842C178.56 -0.0799474 180.16 -0.0799474 181.6 0.239842C182.88 0.559632 184.16 0.719536 185.28 1.19922C195.36 5.0367 204.32 10.633 212.8 17.0288C222.56 24.384 231.52 32.6985 240.32 41.1729C252.32 52.5254 265.12 63.0785 277.92 73.6315C284.64 79.068 290.72 85.1439 297.92 90.1007C300.8 92.0194 303.68 94.098 305.6 97.2959V99.5345C304.16 101.293 302.72 103.052 300.64 104.172C300.32 104.331 300.16 104.651 300.64 104.971C302.4 107.849 302.08 109.448 299.36 111.527C297.12 113.285 294.56 114.565 291.84 115.684C282.56 119.521 274.08 125.118 265.28 129.915C249.92 138.389 234.88 147.183 220.64 157.416C213.12 162.853 205.6 168.449 198.4 174.205C188.8 181.88 178.56 188.756 168 194.992C156.32 202.027 144.8 209.222 133.28 216.258C130.4 218.017 127.52 219.456 124.32 220.415C121.6 221.214 119.52 220.895 117.44 218.976C114.4 216.418 111.68 213.38 108.96 210.342C99.8401 200.108 89.6001 190.834 80.9601 180.122C66.8801 162.853 50.08 148.622 33.92 133.592C25.28 125.437 15.84 117.922 7.2 109.768C5.92 108.649 4.80002 107.369 3.52002 106.09C2.40002 104.971 1.27998 103.852 1.27998 102.093C1.27998 101.453 0.80002 101.293 0.32002 100.974C0.32002 100.334 0.32002 99.8543 0.32002 99.2147L0 99.5345ZM118.72 192.114C118.72 192.114 118.72 191.954 118.72 191.794C118.08 190.515 117.12 189.395 116 188.276C115.68 187.637 115.2 187.157 114.88 186.677C110.72 180.601 106.4 174.685 101.6 169.089C101.6 168.929 101.44 168.609 101.28 168.449C91.68 156.457 81.44 145.264 69.28 135.671C57.12 126.077 44.32 117.443 31.04 109.608C30.72 109.288 30.24 109.128 29.92 108.808C29.92 108.808 29.76 108.808 29.6 108.649C29.6 108.649 29.6 108.489 29.44 108.489C24.96 105.291 20.16 102.572 15.52 99.6944C15.52 99.8543 15.36 100.014 15.2 100.174C19.68 103.052 24.16 105.93 28.64 108.968C28.8 108.968 28.96 109.128 29.28 109.288C29.28 109.288 29.44 109.288 29.6 109.448C29.76 109.928 30.24 110.088 30.72 110.247C34.56 112.966 38.24 115.684 42.08 118.402C56.64 128.795 70.4001 140.308 83.3601 152.779C89.1201 158.376 94.5601 164.292 100.16 170.048C104.96 175.804 109.76 181.401 114.56 187.157C114.88 187.796 115.2 188.276 115.68 188.596V188.756C116.32 190.035 117.28 191.154 118.24 192.273C118.4 192.593 118.56 192.753 118.72 193.073C120.32 195.631 122.08 198.19 124 200.428C124.8 201.387 125.6 202.507 127.04 202.187C128.8 201.707 130.4 201.068 132.16 200.428C131.68 199.629 131.04 199.469 130.24 199.469C128 199.469 126.08 198.829 124.16 197.39C122.24 195.951 120.8 194.192 119.2 192.433C119.2 192.273 118.88 192.114 118.72 191.954V192.114ZM15.84 96.6564C23.84 101.773 31.68 106.73 39.84 111.686C53.44 120.001 66.4 129.435 78.4 139.988C91.68 151.82 102.72 165.571 113.28 179.802C117.12 184.918 120.64 190.355 125.28 194.832C125.6 195.152 125.92 195.951 126.4 195.471C127.04 194.992 126.4 194.512 125.92 194.032C123.2 190.994 120.64 187.796 118.4 184.439C105.6 165.571 90.8801 148.462 73.7601 133.432C63.0401 123.998 52.16 114.724 40 107.209C32.48 102.572 24.64 98.4152 16 96.0168C15.68 95.5371 15.2 95.697 14.88 96.0168C15.04 96.4965 15.52 96.6564 15.84 96.6564ZM7.36006 91.3799C9.92006 91.8596 12.16 91.8596 14.24 92.3392C24.8 94.8976 34.24 99.8543 43.2 105.77C65.44 120.641 84.8 138.549 102.4 158.696C109.76 167.17 115.84 176.444 122.56 185.398C126.24 190.195 130.08 194.992 134.56 198.989C136.32 200.428 138.08 201.228 140.48 200.908C144.48 200.268 147.84 198.669 151.04 196.271C175.36 178.523 200.64 162.213 225.92 146.064C243.04 135.191 260.48 124.958 277.6 114.085C284.96 109.288 292.96 105.291 299.36 99.3747C300.48 98.2554 300.64 97.6157 299.36 96.4965C296.48 94.098 293.28 92.1794 290.4 89.781C283.36 83.8649 276.48 77.6289 269.28 71.7128C257.12 61.6394 245.28 51.0864 233.76 40.0536C224 30.6198 213.92 21.6658 202.56 14.1507C196 9.83355 189.44 5.67626 181.92 3.43774C180 2.79816 178.08 1.99868 176 2.63826C171.68 4.07732 167.36 5.5164 163.2 7.11535C152.48 10.9528 142.24 15.7496 131.84 20.2267C108.8 30.1402 85.9201 40.3734 64.1601 53.3249C47.0401 63.3983 29.92 73.4716 14.24 85.6236C11.84 87.3825 9.59998 89.3013 6.87998 91.3799H7.36006ZM9.6 102.732C9.92 103.052 10.2401 103.212 10.5601 103.532C25.2801 113.285 39.36 123.839 52.64 135.511C64.96 146.384 77.12 157.576 88.32 169.568C97.92 179.962 107.04 190.675 116 201.547C118.24 204.266 119.84 204.745 123.68 204.266C122.24 203.146 121.12 201.707 120.16 200.268C113.92 191.154 106.88 182.84 99.68 174.525C85.92 158.696 70.72 144.305 54.24 131.194C41.6 121.12 28.16 112.006 14.72 102.892C12.96 101.613 11.36 100.174 9.44004 102.892L9.6 102.732ZM4.16006 99.5345C8.00006 101.293 10.4 100.174 11.04 96.6564C11.04 96.1767 11.68 95.3773 11.04 95.0575C9.92004 94.258 8.64006 94.5778 7.36006 94.5778C6.24006 94.5778 6.72002 95.697 6.72002 96.3366C6.72002 97.7757 7.04 99.5345 4 99.5345H4.16006Z" fill="#090909"/>
<path d="M7.36006 91.3799C10.0801 89.3013 12.32 87.3825 14.72 85.6236C30.56 73.4716 47.68 63.5581 64.64 53.3249C86.24 40.5333 109.12 30.1402 132.32 20.2267C142.72 15.7496 152.96 10.9528 163.68 7.11535C168 5.5164 172.16 4.07732 176.48 2.63826C178.56 1.99868 180.48 2.79816 182.4 3.43774C189.92 5.67626 196.48 9.83355 203.04 14.1507C214.4 21.6658 224.48 30.6198 234.24 40.0536C245.6 51.0864 257.44 61.6394 269.76 71.7128C276.96 77.6289 283.84 83.7049 290.88 89.781C293.76 92.1794 296.96 93.9381 299.84 96.4965C301.12 97.6157 300.96 98.2554 299.84 99.3746C293.28 105.451 285.44 109.448 278.08 114.085C260.96 124.958 243.52 135.191 226.4 146.064C201.12 162.213 175.84 178.522 151.52 196.271C148.32 198.509 144.96 200.108 140.96 200.908C138.56 201.387 136.8 200.588 135.04 198.989C130.4 194.992 126.56 190.355 123.04 185.398C116.32 176.444 110.24 167.01 102.88 158.696C85.2799 138.549 65.9199 120.481 43.6799 105.77C34.7199 99.8543 25.28 94.8975 14.72 92.3392C12.64 91.8595 10.4 91.8596 7.83999 91.3799L7.36006 91.3799ZM16.8 89.4611C17.28 89.7809 17.6 89.9408 17.76 89.9408C25.44 92.4991 32.6399 96.4965 40 99.8543C49.92 104.331 59.2 109.928 67.52 117.123C81.12 128.955 94.0799 141.587 104.48 156.297C111.2 165.731 118.72 174.365 125.76 183.479C128.64 187.157 131.52 190.994 135.68 193.553C139.36 195.791 143.2 196.271 147.04 193.713C149.44 192.114 151.84 190.834 154.24 189.235C164.64 182.68 174.56 175.485 184.64 168.609C197.6 159.975 210.72 151.66 223.84 143.186C232.32 137.749 240.48 131.993 249.12 126.557C263.2 117.763 277.44 109.128 290.88 99.3746C292.16 98.4153 292.16 97.9356 290.88 96.9762C283.68 92.0195 277.44 85.9434 270.72 80.507C257.92 70.2737 245.92 59.0811 234.08 47.5687C223.36 37.1755 212.16 27.7418 200.16 18.9475C193.92 14.4705 187.52 10.1533 180.32 7.2752C179.2 6.79552 178.24 6.47576 176.8 6.95544C163.52 11.2726 150.56 16.3892 137.92 22.1454C128 26.6225 118.24 31.2594 108.48 35.5766C94.3999 41.8125 80.64 48.528 67.52 56.5228C54.56 64.5175 41.92 72.8321 29.12 81.1466C25.12 83.7049 21.28 86.2632 17.12 89.1413L16.8 89.4611Z" fill="#F4F8F9"/>
<path d="M9.6 102.732C11.52 100.174 13.1199 101.613 14.8799 102.732C28.3199 111.846 41.7599 120.96 54.3999 131.034C70.8799 144.145 86.08 158.536 99.84 174.365C107.04 182.68 114.08 191.154 120.32 200.108C121.28 201.547 122.4 202.986 123.84 204.106C120 204.585 118.4 204.106 116.16 201.387C107.2 190.515 98.0799 179.802 88.4799 169.408C77.2799 157.256 65.1199 146.224 52.7999 135.351C39.52 123.679 25.44 113.126 10.72 103.372C10.4 103.052 10.08 102.892 9.76001 102.573L9.6 102.732Z" fill="#F3F3F3"/>
<path d="M16 96.0168C24.64 98.4152 32.48 102.572 40 107.209C52.16 114.724 63.0401 123.998 73.7601 133.432C90.8801 148.462 105.6 165.571 118.4 184.439C120.64 187.796 123.2 190.994 125.92 194.032C126.24 194.512 126.88 194.992 126.4 195.471C125.92 195.951 125.6 195.152 125.28 194.832C120.48 190.355 116.96 184.918 113.28 179.802C102.72 165.571 91.68 151.66 78.4 139.988C66.4 129.435 53.44 120.161 39.84 111.686C31.84 106.73 23.84 101.613 15.84 96.6564C15.84 96.4965 15.84 96.1767 15.84 96.0168L16 96.0168Z" fill="#EAEAEA"/>
<path d="M99.52 170.048C93.92 164.292 88.48 158.376 82.72 152.779C69.76 140.308 56 128.795 41.44 118.402C37.6 115.684 33.9199 112.966 30.0799 110.247C30.0799 110.088 30.4 109.768 30.56 109.608C43.84 117.603 56.6399 126.077 68.7999 135.671C80.9599 145.264 91.2 156.617 100.8 168.449C100.8 168.609 101.12 168.929 101.12 169.089C100.32 169.089 100 169.728 99.36 170.048H99.52Z" fill="#EDEDED"/>
<path d="M99.52 170.048C100 169.728 100.48 169.089 101.28 169.089C101.28 169.089 101.28 169.249 101.12 169.409C101.12 169.409 101.28 169.249 101.44 169.089C106.24 174.685 110.56 180.601 114.72 186.677C114.56 186.837 114.24 186.997 114.08 187.157C109.28 181.401 104.48 175.804 99.6799 170.048H99.52Z" fill="#DDDFE0"/>
<path d="M119.04 192.593C120.48 194.352 122.08 196.111 124 197.55C125.76 198.829 127.84 199.469 130.08 199.629C130.88 199.629 131.52 199.629 132 200.588C130.24 201.228 128.64 201.867 126.88 202.347C125.44 202.667 124.64 201.547 123.84 200.588C121.92 198.19 120 195.791 118.56 193.233C118.72 193.073 118.88 192.753 119.04 192.593Z" fill="#EAEAEA"/>
<path d="M4.16006 99.5345C7.20006 99.5345 6.71993 97.7757 6.87993 96.3367C6.87993 95.6971 6.55997 94.7377 7.51997 94.5779C8.79997 94.5779 10.08 94.258 11.2 95.0575C11.68 95.3773 11.2 96.1768 11.2 96.6565C10.56 100.174 8.15997 101.293 4.31997 99.5345L4.16006 99.5345Z" fill="#0BBAEE"/>
<path d="M28.32 108.649C23.84 105.77 19.3599 102.892 14.8799 99.8543C14.8799 99.6944 15.04 99.5346 15.2 99.3747C19.84 102.413 24.64 104.971 29.12 108.169C28.8 108.169 28.48 108.169 28.32 108.649Z" fill="#A9A9A9"/>
<path d="M117.92 192.273C116.96 191.154 116 190.035 115.36 188.756C115.52 188.596 115.68 188.436 115.84 188.276C116.96 189.395 117.76 190.515 118.56 191.794C118.4 191.954 118.08 192.114 117.92 192.273Z" fill="#A9A9A9"/>
<path d="M115.2 188.596C114.72 188.276 114.24 187.637 114.08 187.157C114.24 186.997 114.56 186.837 114.72 186.677C115.04 187.157 115.52 187.637 115.84 188.276C115.68 188.276 115.52 188.596 115.2 188.756V188.596Z" fill="#DDDFE0"/>
<path d="M16 96.0168C16 96.1768 16.0005 96.4972 16.0005 96.6572C15.5202 96.6572 15.2001 96.4971 15.04 96.017C15.5202 95.6969 15.8404 95.6969 16.1606 96.017L16 96.0168Z" fill="#A9A9A9"/>
<path d="M30.24 110.088C29.76 110.088 29.44 109.768 29.12 109.288C29.12 109.128 29.28 108.968 29.44 108.649C29.76 108.968 30.24 109.128 30.56 109.448C30.56 109.608 30.2399 109.928 30.0799 110.088H30.24Z" fill="#EDEDED"/>
<path d="M28.32 108.649C28.32 108.169 28.8001 108.329 29.12 108.169C29.12 108.169 29.2794 108.169 29.2794 108.329L28.9597 108.808C28.7998 108.808 28.6398 108.648 28.32 108.489V108.649Z" fill="#EDEDED"/>
<path d="M118.56 193.233C118.4 192.913 118.24 192.753 118.08 192.433C118.24 192.433 118.56 192.274 118.72 192.114C118.72 192.274 119.04 192.433 119.2 192.593C119.04 192.753 118.88 193.073 118.72 193.233L118.56 193.233Z" fill="#EAEAEA"/>
<path d="M29.2798 108.489C29.2798 108.489 29.4401 108.489 29.6 108.649C29.6 108.808 29.4399 108.968 29.28 109.288C29.28 109.288 29.1199 109.288 28.96 109.128C28.96 108.968 29.2798 108.808 29.2798 108.649V108.489Z" fill="#EDEDED"/>
<path d="M101.28 169.089C101.28 169.089 101.12 169.249 100.96 169.409C100.96 169.409 100.96 169.249 101.12 169.089H101.28Z" fill="#EDEDED"/>
<path d="M115.84 188.276C115.68 188.436 115.52 188.596 115.36 188.756C115.36 188.756 115.36 188.756 115.36 188.596C115.52 188.596 115.68 188.276 116 188.116L115.84 188.276Z" fill="#DDDFE0"/>
<path d="M117.92 192.273C118.08 192.114 118.4 191.954 118.56 191.794C118.56 191.794 118.56 191.794 118.56 192.114C118.4 192.114 118.08 192.273 117.92 192.433L117.92 192.273Z" fill="#EAEAEA"/>
<path d="M16.8 89.4611C20.96 86.7429 24.9599 84.0247 28.7999 81.4664C41.5999 73.1519 54.24 64.8373 67.2 56.8426C80.32 48.8478 94.08 41.9724 108.16 35.8964C118.08 31.5792 127.84 26.7824 137.6 22.4652C150.24 16.709 163.2 11.5924 176.48 7.2752C177.76 6.79552 178.88 7.27522 180 7.59501C187.2 10.4731 193.6 14.7903 199.84 19.2673C211.84 27.9016 223.2 37.4954 233.76 47.8885C245.6 59.241 257.44 70.5935 270.4 80.8268C277.12 86.2632 283.52 92.3392 290.56 97.2959C291.84 98.2553 291.84 98.735 290.56 99.6944C277.12 109.448 262.88 117.922 248.8 126.876C240.32 132.313 232 137.909 223.52 143.506C210.56 151.98 197.28 160.135 184.32 168.929C174.24 175.804 164.32 183 153.92 189.555C151.52 190.994 149.12 192.433 146.72 194.032C142.88 196.591 139.04 196.111 135.36 193.872C131.2 191.474 128.32 187.477 125.44 183.799C118.4 174.685 110.88 166.051 104.16 156.617C93.6 141.747 80.7999 129.275 67.2 117.443C59.04 110.247 49.5999 104.651 39.6799 100.174C32.3199 96.8163 25.28 92.8189 17.44 90.2606C17.28 90.2606 16.9599 90.1007 16.4799 89.781L16.8 89.4611ZM136.64 43.2515C136.64 42.9317 136.48 42.9318 136.16 42.7719C135.04 41.3328 134.24 41.8125 133.6 43.2515C132.8 45.3302 134.08 46.9291 134.88 48.688C134.88 49.0078 135.36 49.3275 135.04 49.6473C134.56 49.9671 134.24 49.4874 133.92 49.3275C133.92 48.2082 133.6 47.2489 132.96 46.2896C132.32 45.1703 131.2 44.8505 130.24 45.3301C129.12 45.9697 129.12 47.0891 129.44 48.2083C129.44 48.688 129.92 49.0077 130.08 49.3275C126.4 50.6067 122.88 52.3655 120 54.9238C111.2 62.1191 104.16 70.5936 103.36 82.5857C102.72 84.8242 102.72 87.0627 103.04 89.4612C102.4 90.1007 101.12 90.1007 100.8 91.3799C99.3599 92.3393 99.68 93.1387 100.96 93.7783C101.44 94.0981 102.08 94.0981 102.56 94.258C102.56 94.5778 102.56 95.0575 102.4 95.3773C100.48 96.8163 100.32 97.7756 102.4 98.8949C102.4 99.5345 103.04 99.5345 103.52 99.6944C102.88 100.334 102.24 100.814 101.76 101.773C100.96 103.532 101.6 104.491 103.52 104.491C104.48 104.491 105.28 104.491 106.24 104.491C107.68 110.407 110.88 115.524 114.72 120.161C121.6 128.316 129.6 135.191 139.68 139.348C139.68 139.828 139.68 140.308 139.68 140.787C139.68 141.747 140 142.706 140.96 143.186C141.92 143.506 142.56 142.866 143.04 142.226C143.52 141.747 144 141.267 144.32 140.947C144.64 141.747 144 143.186 144.96 143.506C146.08 143.825 145.92 142.066 146.56 141.587C146.88 142.706 147.36 143.825 148.64 144.305C149.76 145.744 149.76 144.145 150.24 143.665C150.88 143.026 151.68 142.386 152.48 143.665C152.8 144.305 152.8 145.424 153.76 145.424C154.56 145.424 154.08 144.305 154.4 143.825C155.04 143.346 155.2 142.386 156.32 142.706C156.64 143.506 157.28 143.825 158.08 143.985C162.4 145.104 166.72 145.904 171.2 145.904C173.92 145.904 176.64 145.904 178.88 143.985C179.36 144.305 179.84 144.785 180.48 144.945C181.6 145.584 182.24 145.264 182.4 143.825C183.2 143.346 182.56 142.386 183.04 141.747C183.68 142.067 184.32 142.546 184.96 142.866C185.76 143.346 186.88 143.825 187.52 142.866C188.32 142.066 188.16 140.947 187.2 140.148C187.2 140.148 187.2 139.988 187.04 139.828C187.04 139.348 187.2 138.869 187.84 138.709C188.16 139.348 188.48 139.988 189.28 139.029C190.72 139.828 192 139.348 193.12 138.709C194.24 138.069 193.12 136.95 192.96 135.99C192.96 135.831 192.96 135.671 192.96 135.511C193.6 135.351 194.4 135.351 194.88 134.871C200.16 131.513 204.32 127.356 206.24 121.28C210.56 106.73 209.92 92.8189 200.96 79.8675C202.88 78.9081 203.52 76.9893 202.08 76.3498C200.48 75.7102 200 74.5909 199.2 73.3117C198.56 72.3524 197.76 72.1925 196.64 72.3524C197.6 71.0732 198.88 69.7941 197.44 68.1952C196 66.5962 194.56 67.7154 193.28 68.355C193.28 68.355 193.28 68.355 193.12 68.355C193.12 67.8753 193.12 67.3956 193.28 66.9159C193.28 66.2764 193.28 65.477 192.8 64.9973C192.32 64.6775 191.84 64.3576 191.52 63.718C190.88 61.9592 189.6 61.6394 188 62.7587C187.36 63.2384 186.88 63.7181 186.24 64.1978C185.76 62.9186 184.64 62.1191 183.52 61.3196C178.72 57.642 173.44 54.7639 168 52.0457C162.4 49.3275 156.32 47.7286 150.08 47.2489C150.08 47.089 150.08 46.7693 150.08 46.6094C150.4 45.8099 150.4 45.0104 150.08 44.3708C149.44 42.9318 148.48 42.7719 147.2 43.5713C146.88 43.2515 146.56 43.0916 146.24 42.7719C145.6 40.6932 144.48 40.3735 142.72 41.4927C142.24 41.8125 142.08 42.2922 141.76 42.7719C140.48 42.7719 140 43.4115 140.16 44.6906C140.32 45.9698 140.64 47.4088 140.96 48.688C140 48.688 139.2 48.6879 138.24 48.8478C137.44 48.528 137.44 47.8885 137.6 47.089C137.92 46.2896 137.6 45.4901 137.6 44.6906C137.6 44.3708 137.6 43.8911 137.12 43.7312C137.12 43.7312 136.8 43.7312 136.64 43.7312C136.64 43.7312 136.64 43.7312 136.48 43.5713C136.8 43.5713 136.96 43.5714 136.96 43.0917L136.64 43.2515Z" fill="#0BBAEE"/>
<path d="M138.08 49.0078C139.04 49.0078 139.84 49.0077 140.8 48.8479C140.96 48.8479 141.28 48.8479 141.44 49.0078C142.24 51.5661 144.64 51.2463 146.4 51.5661C159.52 53.8046 171.36 59.2411 182.56 66.2764C183.52 66.916 184.48 67.5555 184.8 68.8347C184.96 69.6342 185.76 69.6342 186.4 69.1545C186.72 69.1545 187.04 69.1545 187.2 68.9947C187.52 69.4743 187.68 69.7941 188 70.2738C188 71.0733 188.16 71.7128 189.12 71.7128C189.76 71.7128 190.24 71.3931 190.24 70.5936C190.72 70.5936 191.2 70.5936 191.68 70.5936C191.68 71.2332 191.04 72.0326 191.52 72.6722V73.3117C192.64 74.5909 193.76 73.3118 194.88 73.4717C194.56 73.9514 194.24 74.431 193.92 74.9107C193.6 75.3904 193.28 75.7102 193.6 76.3498C193.92 76.8295 194.4 76.6696 194.88 76.6696C195.2 76.6696 195.68 76.6696 196 76.6696C196 76.9894 196 77.3091 195.52 77.3091C193.28 77.3091 194.24 78.4284 194.88 79.2279C195.52 80.3471 196.16 81.4664 196.8 82.5857C199.68 88.5018 201.6 94.7376 202.08 101.293C202.4 105.451 202.56 109.608 201.92 113.605C200.64 120.8 196.48 126.077 191.04 130.554C190.4 131.034 189.6 131.513 189.6 132.473C189.28 132.952 189.12 133.272 188.32 133.272C186.08 132.952 185.6 133.272 185.44 135.831C184.8 135.831 184.16 135.511 183.84 136.31C183.84 136.31 183.68 136.31 183.52 136.31C182.4 136.31 181.76 136.95 181.28 137.909C180.64 137.589 180.16 137.909 179.52 138.069C177.44 137.589 176.48 138.069 176.48 140.148C176.48 141.267 176.16 141.587 175.04 141.587C173.6 141.747 172.32 141.907 170.88 141.747C167.04 141.427 163.2 140.947 159.36 139.988C158.08 139.668 156.64 139.988 155.52 138.709C153.76 136.95 151.04 137.43 149.12 135.99C149.12 135.99 148.64 135.99 148.32 135.99C147.52 136.47 146.88 135.99 146.24 135.671C145.28 135.031 144.32 134.711 143.36 134.232C140.16 132.633 136.8 131.833 133.92 129.755C127.52 125.278 122.08 119.681 116.8 113.925C113.76 110.567 111.68 106.57 110.24 102.413C109.76 100.974 109.28 99.3747 109.92 97.7757C110.56 97.296 110.24 96.8163 109.76 96.4965C109.76 95.697 109.12 95.3772 108.48 95.2173C109.333 92.8722 109.013 91.3266 107.52 90.5804C108 89.6211 108 88.8215 106.72 88.5017C107.04 85.1439 107.68 81.7862 108.96 78.7482C110.88 73.6316 113.28 68.9946 117.44 65.317C122.24 61.1597 127.36 57.6421 132.8 54.6041C134.24 53.8046 135.84 53.165 137.28 52.3656C138.08 51.8859 139.52 51.4062 138.08 50.127C138.08 49.8072 138.08 49.6473 138.08 49.3275V49.0078ZM148.64 59.8806C148.64 59.8806 148.8 60.0405 148.96 60.2004C148.64 61.1598 148 61.9592 147.36 62.7587C146.72 63.5582 145.92 64.3577 146.4 65.4769C147.04 66.7561 148.16 66.4363 149.12 66.2764C150.08 66.2764 151.2 66.1165 152.16 66.2764C152.96 66.2764 154.08 65.7968 154.4 66.5962C154.72 67.3957 153.44 67.8754 152.8 68.355C150.08 70.7535 147.2 72.6722 144.8 75.3904C144.16 76.1899 143.04 77.3091 144.16 78.4284C145.12 79.3877 146.24 78.4284 147.04 77.6289C150.4 74.9107 153.76 72.0327 157.12 68.9947C158.4 67.8754 159.84 66.5962 159.04 64.6775C158.24 62.7587 156.32 63.2384 154.72 63.2384C153.76 63.2384 152.32 63.5582 151.84 63.2384C150.88 62.279 152.48 61.4795 152.8 60.5201C153.12 59.0811 153.6 57.8019 152.48 56.5228C151.36 55.2436 149.92 55.4035 148.64 55.7233C147.36 56.0431 146.24 56.5229 144.96 57.0025C141.76 58.2817 138.88 60.0405 136 61.7994C134.88 62.5989 133.92 63.5582 134.72 64.9973C135.52 66.4363 136.8 65.9566 138.08 65.4769C138.72 65.1572 139.36 64.6775 140.16 64.3577C143.04 62.7587 145.76 60.9999 148.96 60.0405L148.64 59.8806ZM180.64 119.042C184 118.562 187.52 117.283 189.92 114.085C191.36 112.166 192 109.928 190.72 107.689C190.56 107.369 190.56 107.05 190.56 106.57C190.56 104.811 189.76 104.012 188 104.491C186.08 104.811 184.32 105.291 182.56 106.41C181.6 107.05 181.12 106.41 180.64 105.77C180 104.971 180 104.491 180.64 103.852C181.76 102.892 183.04 101.933 184.16 100.814C184.8 100.174 185.6 99.3747 184.8 98.5752C184 97.6158 183.04 98.0955 182.24 98.5752C179.2 100.654 176.16 102.892 173.12 104.971C172.16 105.611 171.52 106.41 171.04 107.369C170.72 107.849 170.72 108.489 171.04 108.968C171.52 109.448 172 109.288 172.48 108.968C173.76 108.649 174.88 108.009 175.84 107.209C176.64 106.41 177.28 106.57 178.08 107.369C178.88 108.329 178.56 108.808 177.76 109.448C177.12 109.928 176.64 110.567 176.16 111.207C175.04 112.646 174.24 114.245 175.2 116.164C176.16 118.082 177.92 118.722 180.48 118.882L180.64 119.042ZM152.48 82.4258C152.48 86.4231 155.36 90.1007 158.88 91.22C159.84 91.5397 160.8 91.6996 161.76 91.6996C162.08 91.6996 162.72 91.5397 162.88 91.22C163.2 90.7403 162.56 90.4205 162.24 90.2606C161.12 89.3013 159.84 88.3419 158.72 87.3825C157.76 86.5831 156.8 85.6236 156.32 84.5044C155.52 82.5856 156.8 81.1466 157.92 79.8675C158.88 78.7482 159.84 79.8675 160.64 80.1873C162.4 80.9868 164.16 81.9461 166.08 82.4258C168.48 83.0653 170.24 81.7862 170.56 79.3878C171.04 74.9108 166.72 71.393 162.24 72.5123C160 73.1518 158.08 74.1112 156.64 75.7102C154.56 77.7888 152.8 80.0274 152.48 82.5857V82.4258ZM166.88 104.651C167.68 104.491 168.64 104.012 169.44 103.372C172 101.453 174.4 99.3746 176.96 97.4559C178.08 96.4965 179.36 95.5371 180.48 94.4179C181.28 93.7783 181.92 92.9788 181.12 91.8596C180.32 90.7403 179.36 91.3799 178.4 91.8596C177.76 92.3393 177.28 92.659 176.8 93.1387C174.24 95.2173 174.24 95.2174 172.16 92.6591C171.36 91.6997 171.52 91.22 172.32 90.4205C173.44 89.4611 174.4 88.5018 175.36 87.5424C176 86.7429 176.48 85.9435 175.68 84.9841C174.88 84.0248 173.92 84.5044 173.12 84.9841C170.08 87.3825 167.04 89.9408 163.84 92.4991C163.04 93.1387 162.56 93.9382 162.24 94.8975C161.92 95.5371 161.76 96.1767 162.24 96.6564C162.72 97.296 163.36 97.1361 164 96.8163C164.96 96.4965 165.92 96.0168 166.56 95.2173C168 93.6184 168.96 93.9382 170.24 95.5371C171.36 96.8163 171.2 97.2959 169.92 98.0954C168.48 99.0548 167.04 100.174 165.92 101.773C165.12 103.052 165.6 104.171 166.72 104.331L166.88 104.651ZM140.48 81.9461C140 81.9461 139.84 82.2659 140 82.5857C140 83.0654 140.48 83.3851 140.64 83.7049C146.72 90.7403 152.32 98.0954 157.92 105.61C158.4 106.25 159.04 107.529 159.68 107.05C160.64 106.41 159.68 105.291 159.04 104.651C153.44 97.1361 148 89.621 141.28 82.9054C140.96 82.5856 140.64 82.2658 140.32 82.1059L140.48 81.9461ZM153.12 102.732C153.12 102.413 152.96 102.253 152.8 101.933C150.88 98.735 148.48 95.8569 146.08 93.2986C145.76 92.9788 145.28 92.4992 144.8 92.9789C144.32 93.4585 144.8 93.9382 144.96 94.4179C146.4 96.3366 147.84 98.2554 149.44 100.174C150.24 101.293 151.04 102.253 152.16 103.052C152.48 103.212 152.8 103.372 153.12 103.052C153.12 103.052 153.12 102.732 153.28 102.573L153.12 102.732Z" fill="#EB646C"/>
<path d="M108.48 94.8975C109.12 95.2173 109.6 95.3773 109.76 96.1768C109.76 96.6564 109.6 97.1361 109.92 97.4559C109.28 99.0548 109.6 100.494 110.24 102.093C111.84 106.25 113.76 110.247 116.8 113.605C122.08 119.361 127.52 124.798 133.92 129.435C136.8 131.513 140.32 132.313 143.36 133.912C144.32 134.392 145.28 134.871 146.24 135.351C146.88 135.831 147.52 136.15 148.32 135.671C148.48 135.671 148.96 135.511 149.12 135.671C151.04 137.11 153.76 136.63 155.52 138.389C156.64 139.508 158.08 139.188 159.36 139.668C163.2 140.627 167.04 141.107 170.88 141.427C172.32 141.427 173.6 141.427 175.04 141.267C176 141.267 176.48 140.787 176.48 139.828C176.48 137.909 177.6 137.27 179.52 137.749C179.2 140.148 180.32 142.226 181.92 143.825C181.92 145.264 181.28 145.584 180 144.945C179.52 144.625 178.88 144.305 178.4 143.985C178.08 143.026 177.12 143.186 176.48 143.186C170.24 143.825 164 143.186 157.92 141.907C157.12 141.747 156.32 141.907 156 142.706C155.04 142.386 154.72 143.346 154.08 143.825C154.08 142.706 154.08 141.587 154.08 140.627C154.08 139.988 153.76 139.508 153.12 139.508C152.32 139.508 152 139.988 151.84 140.627C151.84 141.587 151.84 142.706 152.16 143.665C151.36 142.546 150.72 143.186 149.92 143.665C149.92 142.706 150.24 141.747 150.24 140.627C150.24 139.828 150.08 139.188 149.12 139.188C148.32 139.188 148 139.828 147.84 140.627C147.84 141.907 148.16 143.186 148.32 144.305C147.04 143.825 146.56 142.706 146.24 141.587V141.267C146.24 140.148 147.2 138.389 145.76 138.069C143.84 137.749 144.32 139.828 144 140.947C143.52 141.427 143.04 141.907 142.72 142.226C142.08 142.866 141.6 143.506 140.64 143.186C139.68 142.706 139.36 141.907 139.36 140.787C139.36 140.308 139.36 139.828 139.36 139.348C140 139.188 140.8 139.828 141.12 139.029C141.28 138.389 140.48 138.069 140 137.589C140 137.43 139.68 137.27 139.36 137.11C133.28 135.031 128.64 130.874 124 126.876C116.8 120.641 110.56 113.605 108 104.172C107.84 103.532 107.52 102.892 106.72 103.052C105.76 103.212 106.08 104.171 105.92 104.811C104.96 104.811 104.16 104.811 103.2 104.811C101.28 104.811 100.64 103.852 101.44 102.093C101.76 101.293 102.4 100.654 103.2 100.014C104.48 99.6944 105.76 99.5345 107.04 98.8949C107.84 98.4152 108.64 97.9356 108.16 96.9762C107.68 95.857 106.72 96.3366 105.92 96.6564C104.48 97.296 103.2 98.0954 102.24 99.2147C100.32 97.9355 100.32 97.1361 102.24 95.697C103.52 95.8569 104.8 95.3773 106.08 95.0575C106.88 95.0575 107.68 95.2174 108.48 95.3773V94.8975Z" fill="#F4F1F2"/>
<path d="M189.6 132.153C189.6 131.194 190.4 130.714 191.04 130.234C196.64 125.917 200.64 120.481 201.92 113.285C202.72 109.128 202.56 104.971 202.08 100.974C201.44 94.4179 199.68 88.182 196.8 82.2659C196.32 81.1466 195.52 80.0273 194.88 78.9081C194.4 77.9487 193.44 76.9894 195.52 76.9894C195.84 76.9894 196 76.6696 196 76.3498C197.12 75.3904 199.2 75.3904 199.2 73.3117C199.84 74.5909 200.48 75.7102 202.08 76.3498C203.36 76.8294 202.72 78.7482 200.96 79.8675C200.48 79.3878 200 78.7482 199.36 78.4284C198.88 78.1086 198.4 77.469 197.92 77.9487C197.44 78.4284 197.92 79.068 198.24 79.5477C200.64 81.9461 201.6 85.144 202.88 88.182C206.56 97.9356 206.72 107.849 204.48 117.763C202.88 124.798 198.24 129.595 192.64 133.592C191.52 133.592 190.4 133.592 189.76 132.313L189.6 132.153Z" fill="#F4F1F2"/>
<path d="M186.4 69.1545C185.76 69.7941 184.96 69.7941 184.8 68.8347C184.48 67.3956 183.52 66.916 182.56 66.2764C171.36 59.0812 159.52 53.8046 146.4 51.5661C144.64 51.2463 142.24 51.5661 141.44 49.0078C142.24 47.0891 143.36 45.0104 141.76 42.9317C141.92 42.452 142.08 41.9724 142.72 41.6526C143.68 41.9724 145.28 41.013 145.6 42.9317C144.64 44.6906 144.64 46.4495 144.8 48.2083C144.8 49.3276 145.44 49.1676 146.24 48.8479C148.64 48.8479 147.52 47.4088 147.2 46.2896L147.52 44.3708C148.48 43.7312 149.44 44.051 150.24 44.3708C150.72 45.1703 150.72 45.8099 150.24 46.6094C149.92 46.6094 149.76 46.9292 149.76 47.4089C148.32 48.0484 148.64 48.688 149.76 49.1677C150.4 49.4875 151.2 49.6474 152 49.8073C154.24 50.287 156.48 50.4468 158.56 51.0864C167.84 53.9645 176.16 58.4415 183.68 64.5175C184.8 65.4769 185.76 65.7967 186.56 64.0379C187.2 63.5582 187.68 62.9187 188.32 62.5989C189.76 61.4796 191.2 61.7994 191.84 63.5582C192.16 64.3577 192.64 64.5175 193.12 64.8373C193.76 65.317 193.76 66.1165 193.6 66.7561C192.64 65.7967 191.84 66.1165 190.88 66.7561C189.92 67.5556 189.12 68.6749 188.64 69.7941H188.32C188 69.3144 187.84 68.9946 187.52 68.5149C188.16 67.5555 188.96 66.5962 189.6 65.477C189.92 64.9973 190.08 64.3576 189.28 64.0379C188.8 63.7181 188.16 64.0378 188 64.5175C187.36 65.7967 186.4 67.0759 186.72 68.6748L186.4 69.1545Z" fill="#F4F1F2"/>
<path d="M192.48 133.272C198.08 129.275 202.72 124.478 204.32 117.443C206.56 107.369 206.4 97.4559 202.72 87.8622C201.6 84.8242 200.64 81.6263 198.08 79.2279C197.76 78.9081 197.28 78.1086 197.76 77.6289C198.24 77.1492 198.88 77.6289 199.2 78.1086C199.84 78.5883 200.32 79.068 200.8 79.5477C209.76 92.4992 210.4 106.41 206.08 120.96C204.32 127.036 200 131.194 194.72 134.552C194.08 135.031 193.44 134.871 192.8 135.191C192.16 134.551 192 133.912 192.48 133.272Z" fill="#0E1113"/>
<path d="M137.92 49.6473C139.36 51.0864 137.92 51.5661 137.12 51.8859C135.68 52.6854 134.08 53.3249 132.64 54.1244C127.2 57.1624 122.08 60.6801 117.28 64.8373C113.12 68.5149 110.72 73.1519 108.8 78.2685C107.68 81.4664 106.88 84.6643 106.56 88.0221C105.44 88.6617 104.16 88.9814 102.88 89.3012C102.56 87.0627 102.56 84.6643 103.2 82.4258C103.2 84.0247 103.36 85.6237 103.52 87.3826C104.8 86.743 104.64 85.6237 104.96 84.8242C105.92 81.4664 106.08 77.9487 107.52 74.7508C112.64 63.3983 120.96 55.2436 132.48 50.4468C133.12 50.127 133.76 49.9671 133.92 49.1677C134.24 49.3276 134.56 49.9672 135.04 49.4875C135.36 49.1677 135.04 48.8478 134.88 48.528C134.24 46.7692 132.96 45.1703 133.6 43.0917C134.4 43.0917 135.36 42.7719 136.16 42.612V42.9317C136.16 42.9317 136.16 43.0916 136.16 43.2515C135.52 42.9317 135.04 42.9318 134.72 43.5713C134.08 44.6906 135.52 48.0484 136.96 48.528C136.96 49.3275 137.44 49.3275 138.08 49.3275L137.92 49.6473Z" fill="#F4F1F2"/>
<path d="M133.92 49.1677C133.92 49.9671 133.12 50.127 132.48 50.4468C120.96 55.2436 112.64 63.3983 107.52 74.7508C106.08 77.9487 106.08 81.6263 104.96 84.8242C104.64 85.6237 104.96 86.743 103.52 87.3826C103.52 85.6237 103.36 84.0247 103.2 82.4258C104 70.2738 111.04 61.9592 119.84 54.764C122.88 52.2057 126.24 50.4468 129.92 49.1677C131.2 49.1677 132.32 48.2083 133.6 49.1677L133.92 49.1677Z" fill="#0E1113"/>
<path d="M106.08 104.491C106.4 103.852 106.08 102.892 106.88 102.732C107.68 102.572 108 103.212 108.16 103.852C110.72 113.445 116.96 120.321 124.16 126.557C128.8 130.554 133.44 134.711 139.52 136.79C139.68 136.79 140 136.95 140.16 137.27C140.48 137.749 141.44 138.069 141.28 138.709C140.96 139.508 140.16 138.869 139.52 139.029C129.44 134.871 121.6 127.996 114.56 119.841C110.56 115.204 107.52 110.247 106.08 104.171V104.491Z" fill="#0E1113"/>
<path d="M186.24 64.1978C185.6 65.9566 184.64 65.6368 183.36 64.6775C175.84 58.6015 167.52 54.1244 158.24 51.2463C156.16 50.6067 153.92 50.4468 151.68 49.9671C150.88 49.9671 150.24 49.6473 149.44 49.3275C148.32 48.8478 147.84 48.2083 149.44 47.5687C149.6 47.5687 149.76 47.5687 149.92 47.5687C156.16 48.0484 162.24 49.6473 167.84 52.3656C173.28 55.0838 178.56 57.802 183.36 61.6394C184.48 62.4389 185.44 63.2384 186.08 64.5175L186.24 64.1978Z" fill="#0E1113"/>
<path d="M156 142.546C156.48 141.747 157.12 141.587 157.92 141.747C164 143.186 170.24 143.825 176.48 143.026C177.12 143.026 178.08 142.706 178.4 143.825C176.16 145.744 173.44 145.744 170.72 145.744C166.24 145.744 161.92 145.105 157.6 143.825C156.8 143.665 156.16 143.506 155.84 142.546H156Z" fill="#0E1113"/>
<path d="M192.48 133.272C192 134.072 192 134.711 192.8 135.191C192.8 135.351 192.8 135.511 192.8 135.671C192.8 136.63 194.08 137.749 192.96 138.389C191.84 139.028 190.56 139.668 189.12 138.709C188.96 137.27 189.12 135.831 188.32 134.551C187.84 133.912 187.52 133.432 186.72 134.232C186.08 134.551 186.72 135.511 185.92 135.671C185.92 135.511 185.92 135.351 185.76 135.191C185.92 132.793 186.4 132.313 188.64 132.633C189.44 132.633 189.6 132.313 189.92 131.833C190.56 133.112 191.68 132.953 192.8 133.112L192.48 133.272Z" fill="#EAEAEA"/>
<path d="M108.48 94.8975C107.68 94.8975 106.88 94.7377 106.08 94.5778C106.72 94.0981 107.52 93.6184 106.88 92.8189C106.4 92.0194 105.6 92.3392 104.8 92.8189C104 93.2986 103.2 93.7783 102.4 94.258C101.92 94.0981 101.28 93.9382 100.8 93.7783C99.5199 93.1388 99.0399 92.3393 100.64 91.3799C103.04 92.1794 105.12 90.7403 107.36 90.4205C108.96 91.1667 109.28 92.7123 108.32 95.0575L108.48 94.8975Z" fill="#EAEAEA"/>
<path d="M191.52 72.5123C191.04 71.7128 191.52 71.0733 191.68 70.4337C192 70.1139 192 69.7941 191.84 69.4743L193.12 68.355C193.12 68.355 193.12 68.355 193.28 68.355C194.72 67.5555 196.16 66.4363 197.44 68.1952C198.88 69.7941 197.44 71.0732 196.64 72.3524C196 72.6722 195.52 72.992 194.88 73.4717C193.76 73.3118 192.48 74.5909 191.52 73.3117C193.44 73.7914 194.56 72.5124 195.84 71.3931C196.32 70.9134 196.8 70.2738 196.32 69.7942C195.84 69.1546 195.04 69.4744 194.4 69.7942C193.28 70.5936 192.32 71.5529 191.52 72.6722L191.52 72.5123Z" fill="#DDDFE0"/>
<path d="M181.28 137.27C181.76 136.31 182.4 135.671 183.52 135.671C183.04 137.909 184 139.668 185.12 141.587C185.76 142.546 186.24 142.386 186.72 141.427C186.88 141.107 186.88 140.628 187.04 140.148C187.84 140.947 188 142.066 187.36 142.866C186.56 143.665 185.6 143.186 184.8 142.866C184.16 142.546 183.52 142.067 182.88 141.747C182.4 140.308 182.08 138.869 181.6 137.43L181.28 137.27Z" fill="#DDDFE0"/>
<path d="M194.88 73.3117C195.52 72.9919 196 72.6722 196.64 72.1925C197.76 71.8727 198.56 72.1925 199.2 73.1519C199.2 75.2305 197.28 75.3904 196 76.1899C195.68 76.1899 195.2 76.1899 194.88 76.1899C194.4 76.1899 193.92 76.3498 193.6 75.8701C193.28 75.3904 193.6 74.9107 193.92 74.431C194.24 73.9513 194.56 73.4717 194.88 72.992V73.3117Z" fill="#0E1113"/>
<path d="M186.88 140.148C186.88 140.628 186.88 141.107 186.56 141.427C186.24 142.386 185.6 142.706 184.96 141.587C184 139.828 182.88 137.909 183.36 135.671C183.36 135.671 183.52 135.671 183.68 135.671C184.32 135.671 184.96 135.671 185.44 135.671C185.76 136.95 186.08 138.229 186.4 139.508C186.4 139.508 186.4 139.668 186.56 139.828L186.88 140.148Z" fill="#090909"/>
<path d="M133.92 49.1677C132.64 48.2083 131.36 49.1677 130.24 49.1677C130.08 48.8479 129.76 48.5281 129.6 48.0484C129.12 46.9291 129.12 45.8099 130.4 45.1703C131.52 44.6906 132.48 45.0104 133.12 46.1296C133.76 47.089 134.08 48.0484 134.08 49.1677L133.92 49.1677Z" fill="#EDEDED"/>
<path d="M102.24 98.8949C103.2 97.7756 104.48 96.9762 105.92 96.3366C106.72 96.0168 107.68 95.5371 108.16 96.6564C108.64 97.6158 107.84 98.0955 107.04 98.5752C105.92 99.2147 104.48 99.3746 103.2 99.6944C102.72 99.6944 102.24 99.5345 102.08 98.8949H102.24Z" fill="#1E1E1F"/>
<path d="M107.36 90.2606C105.12 90.5804 103.04 92.0194 100.64 91.22C100.96 90.1007 102.24 90.1007 102.88 89.3012C104.16 88.9814 105.44 88.8215 106.56 88.0221C107.84 88.3419 107.84 89.1413 107.36 90.1007V90.2606Z" fill="#1E1E1F"/>
<path d="M181.28 137.27C181.76 138.709 182.08 140.148 182.56 141.587C182.24 142.226 182.72 143.186 181.92 143.665C180.32 141.907 179.2 139.988 179.52 137.589C180 137.27 180.64 137.11 181.28 137.43L181.28 137.27Z" fill="#1E1E1F"/>
<path d="M141.6 42.9317C143.2 45.0104 142.08 46.9292 141.28 49.0078C141.12 49.0078 140.8 49.0077 140.64 48.8479C140.32 47.5687 140.16 46.1296 139.84 44.8505C139.68 43.5713 140.16 42.9317 141.44 42.9317H141.6Z" fill="#1E1E1F"/>
<path d="M145.92 48.8479C145.28 49.1676 144.64 49.3276 144.48 48.2083C144.48 46.2896 144.48 44.5307 145.28 42.9317C145.44 42.9317 145.76 42.9317 145.92 42.9317C146.24 43.2515 146.56 43.4114 146.88 43.7312C146.88 44.051 146.88 44.2109 146.88 44.5307C146.88 45.1703 146.72 45.8098 146.56 46.4494C146.24 47.2489 145.92 48.2083 145.6 49.0078L145.92 48.8479Z" fill="#1E1E1F"/>
<path d="M152.16 143.346C151.84 142.386 151.68 141.427 151.84 140.308C151.84 139.508 152.32 139.028 153.12 139.188C153.76 139.188 154.08 139.828 154.08 140.308C154.08 141.427 154.08 142.546 154.08 143.506C153.76 143.985 154.08 145.105 153.44 145.105C152.48 145.105 152.48 143.985 152.16 143.346Z" fill="#1E1E1F"/>
<path d="M193.12 68.355C192.64 68.6748 192.32 69.1546 191.84 69.4743C191.2 69.4743 190.56 69.7941 190.24 70.4337C189.6 70.4337 188.8 71.0732 188.32 70.1139C188.8 68.9946 189.6 67.8754 190.56 67.0759C191.36 66.2765 192.32 66.1166 193.28 67.0759C193.28 67.5556 193.28 68.0352 193.12 68.5149V68.355Z" fill="#1E1E1F"/>
<path d="M148.48 144.145C148.48 142.866 148 141.747 148 140.468C148 139.668 148.32 139.029 149.28 139.029C150.08 139.029 150.4 139.828 150.4 140.468C150.4 141.427 150.24 142.546 150.08 143.506C149.6 143.825 149.6 145.584 148.48 144.145Z" fill="#1E1E1F"/>
<path d="M144 140.787C144.32 139.668 144 137.589 145.76 137.909C147.2 138.229 146.24 139.988 146.24 141.107V141.427C145.44 141.907 145.76 143.665 144.64 143.346C143.68 143.026 144.32 141.587 144 140.787Z" fill="#0E1113"/>
<path d="M102.56 94.098C103.36 93.6183 104.16 93.1387 104.96 92.659C105.6 92.3392 106.4 92.0194 107.04 92.659C107.68 93.6184 106.72 93.9381 106.24 94.4178C104.96 94.7376 103.84 95.2173 102.4 95.0574C102.4 94.7377 102.4 94.2579 102.56 93.9382V94.098Z" fill="#1E1E1F"/>
<path d="M136.96 48.8479C135.68 48.3682 134.08 45.0104 134.72 43.8912C135.04 43.2516 135.68 43.2516 136.16 43.5714C136.16 43.5714 136.16 43.7312 136.32 43.7312C136.32 44.051 136.64 44.3709 136.8 44.6907C136.8 45.9698 137.28 47.4089 136.8 48.688L136.96 48.8479Z" fill="#1E1E1F"/>
<path d="M188.16 134.711C188.8 135.991 188.8 137.43 188.96 138.869C188.32 139.828 188 139.188 187.52 138.549C187.52 137.11 186.56 135.831 186.56 134.392C187.04 134.392 187.52 134.551 188.16 134.711Z" fill="#090909"/>
<path d="M186.56 134.552C186.56 135.991 187.68 137.11 187.52 138.709C186.88 138.709 186.72 139.348 186.72 139.828C186.4 138.549 186.08 137.27 185.76 135.991C186.56 135.991 186.08 134.871 186.56 134.711V134.552Z" fill="#1E1E1F"/>
<path d="M136.96 48.8479C137.28 47.5687 136.96 46.1296 136.96 44.8505C136.96 44.8505 136.96 44.8505 137.12 44.6906C137.12 44.6906 137.12 44.6906 137.28 44.6906C137.6 45.4901 137.76 46.2896 137.28 47.0891C137.12 47.8885 137.28 48.3682 137.92 48.8479C137.92 49.1676 137.92 49.3275 137.92 49.6473C137.28 49.6473 136.8 49.6473 136.8 48.8479L136.96 48.8479Z" fill="#A9A9A9"/>
<path d="M147.2 44.3708C147.2 44.051 147.2 43.8911 147.2 43.5713C148.48 42.612 149.44 42.7719 150.08 44.3708C149.12 44.051 148.16 43.7312 147.36 44.3708H147.2Z" fill="#EAEAEA"/>
<path d="M146.08 42.9318C145.92 42.9318 145.6 42.9318 145.44 42.9318C145.12 41.013 143.68 41.9724 142.56 41.6526C144.32 40.3735 145.44 40.8531 146.08 42.9318Z" fill="#EAEAEA"/>
<path d="M136.16 42.7719C135.36 42.7719 134.4 43.0916 133.6 43.2515C134.24 41.8125 135.04 41.4927 136.16 42.7719Z" fill="#EAEAEA"/>
<path d="M150.08 47.2489C149.92 47.2489 149.76 47.2489 149.6 47.2489C149.6 46.9291 149.6 46.6093 150.08 46.4494C150.08 46.6093 150.08 46.9292 150.08 47.0891L150.08 47.2489Z" fill="#EAEAEA"/>
<path d="M136.8 44.8505C136.8 44.5307 136.48 44.2109 136.32 43.8912C136.32 43.8912 136.64 43.8912 136.8 43.8912C136.8 44.2109 136.8 44.3708 136.96 44.6906C136.96 44.6906 136.96 44.6906 136.8 44.8505Z" fill="#A9A9A9"/>
<path d="M136.96 44.6906C136.96 44.3708 136.96 44.2109 136.8 43.8912C137.279 43.8912 137.28 44.3708 137.28 44.8505C137.28 44.8505 137.28 44.8505 137.12 44.8505L136.96 44.6906Z" fill="#EAEAEA"/>
<path d="M136.16 43.5714C136.16 43.5714 136.16 43.4116 136.16 43.2515C136.32 43.2515 136.48 43.2515 136.64 43.2515C136.64 43.5716 136.48 43.7314 136.16 43.5714Z" fill="#DDDFE0"/>
<path d="M136.64 43.2515C136.48 43.2515 136.32 43.2515 136.16 43.2515V42.9317C136.48 42.9317 136.64 42.9318 136.64 43.4119L136.64 43.2515Z" fill="#EAEAEA"/>
<path d="M148.64 59.8806C145.44 60.84 142.72 62.5988 139.84 64.1978C139.2 64.5175 138.56 64.9972 137.76 65.3169C136.48 65.9565 135.2 66.4362 134.4 64.8373C133.6 63.3982 134.4 62.4389 135.68 61.6394C138.56 59.8805 141.44 58.1217 144.64 56.8425C145.76 56.3629 147.04 56.0431 148.32 55.5634C149.76 55.0837 151.2 55.0837 152.16 56.3629C153.28 57.642 152.8 58.9212 152.48 60.3602C152.16 61.3196 150.72 62.1191 151.52 63.0785C152 63.5582 153.44 63.0785 154.4 63.0785C156 63.0785 157.92 62.5987 158.72 64.5175C159.52 66.4362 158.08 67.7154 156.8 68.8347C153.44 71.7128 150.08 74.5909 146.72 77.469C145.92 78.1086 144.8 79.068 143.84 78.2685C142.72 77.3091 143.84 76.0299 144.48 75.2304C146.88 72.5122 149.92 70.5936 152.48 68.1951C153.12 67.7154 154.24 67.2357 154.08 66.4362C153.76 65.6368 152.64 66.1164 151.84 66.1164C150.88 66.1164 149.76 66.1164 148.8 66.1164C147.84 66.1164 146.72 66.4362 146.08 65.3169C145.6 64.1977 146.4 63.3983 147.04 62.5988C147.68 61.7993 148.48 61.1597 148.64 60.0404V59.7206C148.64 59.7206 148.32 59.7206 148.16 59.7206L148.64 59.8806Z" fill="#100707"/>
<path d="M180.64 119.042C178.08 119.042 176.32 118.242 175.36 116.323C174.4 114.405 175.36 112.806 176.32 111.367C176.8 110.727 177.44 110.088 177.92 109.608C178.72 108.968 179.04 108.489 178.24 107.529C177.44 106.57 176.96 106.57 176 107.369C175.04 108.169 173.92 108.808 172.64 109.128C172.16 109.128 171.68 109.448 171.2 109.128C170.72 108.648 170.88 108.009 171.2 107.529C171.68 106.57 172.48 105.77 173.28 105.131C176.32 102.892 179.36 100.814 182.4 98.735C183.2 98.0954 184.16 97.6158 184.96 98.735C185.76 99.6944 184.96 100.494 184.32 100.974C183.2 101.933 182.08 103.052 180.8 104.012C180 104.651 180 105.131 180.8 105.93C181.28 106.57 181.76 107.209 182.72 106.57C184.32 105.451 186.24 104.971 188.16 104.651C189.92 104.331 190.72 104.971 190.72 106.73C190.72 107.05 190.72 107.529 190.88 107.849C192.16 110.247 191.52 112.326 190.08 114.245C187.68 117.443 184.16 118.722 180.8 119.202L180.64 119.042ZM180.32 115.524C184.16 115.524 188 112.486 188.64 108.649C188.64 107.849 188.64 107.369 187.68 107.689C184.32 108.808 181.44 110.567 179.2 113.285C178.72 113.765 178.4 114.405 178.72 115.044C179.04 115.684 179.68 115.524 180.32 115.524Z" fill="#100707"/>
<path d="M152.48 82.4258C152.8 79.8674 154.72 77.6289 156.64 75.5503C158.08 73.9513 160 72.992 162.24 72.3524C166.72 71.2331 170.88 74.7508 170.56 79.2278C170.4 81.6263 168.48 82.9054 166.08 82.2659C164.16 81.7862 162.4 80.8268 160.64 80.0273C159.84 79.7075 158.88 78.5882 157.92 79.7075C156.8 80.9867 155.52 82.2659 156.32 84.3445C156.8 85.6236 157.76 86.4231 158.72 87.2226C159.84 88.1819 161.12 89.1413 162.24 90.1007C162.56 90.4204 163.2 90.7403 162.88 91.0601C162.72 91.3799 162.08 91.5397 161.76 91.5397C160.8 91.5397 159.84 91.3799 158.88 91.0601C155.36 89.9408 152.48 86.2632 152.48 82.2659V82.4258ZM166.56 78.7482C166.08 75.8701 164.32 75.0706 161.6 76.8294C163.2 77.7888 164.8 78.4284 166.56 78.7482Z" fill="#100707"/>
<path d="M166.88 104.651C165.6 104.651 165.28 103.372 166.08 102.093C167.04 100.494 168.48 99.5345 170.08 98.4153C171.36 97.6158 171.36 97.1361 170.4 95.857C169.12 94.4179 168.16 94.0981 166.72 95.5372C166.08 96.3366 165.12 96.8163 164.16 97.1361C163.52 97.296 162.88 97.4559 162.4 96.9763C161.92 96.3367 162.08 95.8569 162.4 95.2174C162.72 94.258 163.36 93.4585 164 92.8189C167.04 90.2606 170.08 87.8622 173.28 85.3039C174.08 84.6643 175.04 84.3445 175.84 85.3039C176.64 86.2632 176.16 87.0628 175.52 87.8622C174.56 88.8216 173.6 89.9408 172.48 90.7403C171.68 91.3799 171.52 92.0195 172.32 92.9789C174.4 95.5372 174.4 95.5372 176.96 93.4586C177.44 92.9789 178.08 92.4992 178.56 92.1794C179.36 91.5398 180.32 91.0602 181.28 92.1794C182.08 93.1388 181.44 93.9382 180.64 94.7377C179.52 95.6971 178.4 96.8164 177.12 97.7757C174.56 99.8544 172.16 101.773 169.6 103.692C168.8 104.331 168 104.651 167.04 104.971L166.88 104.651Z" fill="#100707"/>
<path d="M140.48 81.9461C140.8 82.106 141.12 82.4258 141.44 82.7456C148.16 89.3012 153.44 96.9762 159.2 104.491C159.68 105.131 160.64 106.25 159.84 106.89C159.2 107.369 158.56 106.09 158.08 105.451C152.48 98.0955 146.72 90.7403 140.8 83.545C140.48 83.2253 140.32 82.9054 140.16 82.4258C140.16 82.106 140.16 81.7862 140.64 81.7862L140.48 81.9461Z" fill="#220F10"/>
<path d="M153.12 102.732C153.12 102.732 153.12 103.052 152.96 103.212C152.64 103.372 152.32 103.212 152 103.212C150.88 102.413 150.08 101.293 149.28 100.334C147.84 98.4153 146.24 96.4966 144.8 94.5778C144.48 94.2581 144.16 93.6184 144.64 93.1387C145.12 92.6591 145.6 93.1388 145.92 93.4586C148.48 96.1768 150.72 99.0548 152.64 102.093C152.64 102.253 152.8 102.573 152.96 102.892L153.12 102.732Z" fill="#220F10"/>
<path d="M191.52 72.5123C192.32 71.393 193.28 70.4336 194.4 69.6341C195.04 69.1545 195.68 68.8347 196.32 69.6341C196.8 70.2737 196.32 70.9133 195.84 71.2331C194.56 72.1925 193.44 73.4716 191.52 73.1518C191.52 72.992 191.52 72.8321 191.52 72.5123Z" fill="#1E1E1F"/>
<path d="M186.4 69.1545C186.08 67.5556 187.04 66.2764 187.68 64.9973C188 64.5176 188.48 64.1977 188.96 64.5175C189.6 64.8373 189.6 65.4769 189.28 65.9566C188.64 66.916 188 67.8754 187.2 68.9947C186.88 68.9947 186.56 68.9946 186.4 69.1545Z" fill="#1E1E1F"/>
<path d="M188.32 70.1139C188.8 71.0732 189.6 70.2738 190.24 70.4337C190.24 71.2332 189.76 71.5529 189.12 71.5529C188.32 71.5529 188 70.9133 188 70.1138C188 70.1138 188.16 70.1139 188.32 70.1139Z" fill="#A9A9A9"/>
<path d="M185.601 135.831C184.961 135.831 184.32 135.831 183.84 135.831C184.16 135.031 184.8 135.351 185.441 135.351C185.441 135.511 185.441 135.671 185.601 135.831Z" fill="#1E1E1F"/>
<path d="M190.24 70.4337C190.56 69.7935 191.2 69.6344 191.84 69.4743C191.84 69.7944 191.841 70.1144 191.681 70.4345C191.2 70.4345 190.72 70.4337 190.24 70.4337Z" fill="#A9A9A9"/>
<path d="M109.92 97.6158C109.44 97.296 109.6 96.8163 109.76 96.3366C110.24 96.6564 110.56 97.1361 109.92 97.6158Z" fill="#EAEAEA"/>
<path d="M145.92 48.8479C146.24 48.0484 146.56 47.089 146.88 46.2896C147.2 47.4088 148.32 48.8479 145.92 48.8479Z" fill="#EAEAEA"/>
<path d="M188.161 134.712C187.681 134.712 187.2 134.552 186.56 134.392C187.2 133.591 187.681 133.912 188.161 134.712Z" fill="#1E1E1F"/>
<path d="M148.64 59.8806C148.64 59.8806 148.96 59.8806 149.12 59.8806V60.2007C149.12 60.2007 148.96 60.0407 148.8 59.8806L148.64 59.8806Z" fill="#EB646C"/>
<path d="M180.32 115.524C179.68 115.524 179.04 115.524 178.72 115.044C178.4 114.405 178.72 113.765 179.2 113.285C181.44 110.567 184.32 108.808 187.68 107.689C188.64 107.369 188.8 107.849 188.64 108.649C188 112.486 184.16 115.524 180.32 115.524Z" fill="#EB646C"/>
<path d="M161.6 76.8294C163.2 77.7888 164.8 78.4284 166.56 78.7482C166.08 75.7102 164.32 75.0706 161.6 76.8294Z" fill="#EB646C"/>
</svg>
