<svg width="186" height="185" viewBox="0 0 186 185" fill="none" xmlns="http://www.w3.org/2000/svg">
<g filter="url(#filter0_d_2558_4163)">
<circle cx="95" cy="90" r="90" fill="#0ABBEF"/>
</g>
<path d="M22.1943 161.394V78.752C74.6831 61.6102 126.27 44.8292 176.955 28.4092C176.955 55.1143 176.955 81.9999 176.955 108.705C126.45 125.847 74.8634 143.53 22.3747 161.394H22.1943ZM22.3747 161.033C74.683 143.169 126.09 125.666 176.414 108.525C176.414 81.8195 176.414 55.2948 176.414 28.5896C125.909 45.0097 74.5027 61.7906 22.1943 78.9325C22.1943 106.359 22.1943 133.606 22.1943 161.033H22.3747Z" fill="#76B82A"/>
<path d="M14.7979 167.528C14.7979 137.756 14.7979 107.983 14.7979 78.2105C71.7959 59.6252 127.531 41.4007 182.545 23.5371C182.545 52.588 182.545 81.4584 182.545 110.329C127.712 128.914 71.9762 148.041 14.9782 167.348L14.7979 167.528Z" fill="white"/>
<path d="M184.71 67.0235C184.71 56.1971 184.349 34.3638 183.988 23.5374C183.988 22.4548 182.906 21.733 182.004 22.0939C154.227 31.8377 126.449 41.2206 98.3109 49.7012C73.4194 57.0993 38.2466 67.5648 14.0765 76.0455C13.1747 76.4064 12.4531 77.1282 12.4531 78.2108C12.9942 107.623 14.6177 138.297 14.6177 167.709C55.0214 153.996 100.295 141.365 140.699 127.471C195.172 107.262 184.349 125.667 184.71 66.8431V67.0235ZM140.158 121.877C99.9344 135.591 55.2017 153.635 14.9784 167.348C14.9784 138.839 16.4213 108.525 17.1428 80.0152C71.0745 63.0538 126.63 41.401 181.102 25.7027C180.381 52.5883 180.02 81.8196 179.84 108.525C166.673 112.855 153.505 117.366 140.338 121.877H140.158Z" fill="black"/>
<path d="M27.7842 82.3609C76.6654 66.4822 124.645 50.7839 171.722 35.266C171.722 58.5428 171.722 82 171.722 105.277C124.645 121.336 76.6654 137.576 27.7842 154.176C27.7842 130.178 27.7842 106.359 27.7842 82.3609ZM152.422 93.3678C159.818 92.4656 156.751 87.0524 157.293 81.6391C157.653 79.4739 154.767 82.7218 155.308 80.3761C154.407 60.8885 160.72 60.3472 139.977 67.5648C138.173 72.7976 139.977 80.0152 137.992 85.9697C137.992 87.9546 135.828 87.0524 135.648 88.6763C136.55 93.7286 132.401 101.668 140.518 97.3375V92.1047C144.666 90.6612 148.635 89.3981 152.603 88.135C152.603 89.9394 152.603 91.5634 152.603 93.3678H152.422ZM57.1852 106.72C59.53 104.736 60.4318 102.39 60.2514 99.6832C59.3496 91.022 48.5273 98.781 43.4768 99.5027C41.4927 106.72 43.4768 116.284 42.7553 124.223C47.9861 123.682 58.2674 121.156 60.6123 114.84C61.6945 111.592 61.5141 106.72 57.1852 106.72ZM113.823 88.4959C112.921 103.292 129.876 99.8636 132.942 88.4959C140.337 64.4973 113.462 68.1061 113.823 88.4959ZM92.358 83.2631C101.377 94.8113 96.5065 96.4353 91.8168 108.344C98.8514 107.623 100.114 102.931 102.459 96.9766C105.886 103.653 105.706 104.375 112.921 101.127C104.082 89.5785 107.149 88.6763 112.379 76.5868C105.345 77.6695 104.623 81.2783 102.459 87.4132C99.2122 80.5565 99.573 80.3761 92.358 83.2631ZM64.4001 92.4656C64.7609 100.405 63.3177 110.51 64.9411 117.366C70.8934 114.84 80.6338 114.299 82.2571 106.72C84.2412 98.4201 78.2889 96.6157 71.6151 99.6832C70.5328 100.044 70.7132 100.044 70.7132 99.1419C69.9917 92.1047 73.7795 88.6763 64.5804 92.4656H64.4001ZM89.8327 96.6157C89.8327 92.646 89.8327 88.6763 89.8327 84.7066C89.1112 83.2631 85.8646 85.7893 84.2412 85.7893C82.6178 93.1873 84.2411 102.39 83.7 110.329C84.6019 111.592 87.6682 109.247 89.1112 109.066C91.0953 105.818 89.1112 100.405 89.8327 96.2548V96.6157Z" fill="#76B82A"/>
<path d="M152.423 93.3677C152.423 91.5633 152.423 89.9393 152.423 88.1349L140.338 92.1046V97.3374C132.221 101.488 136.37 93.7286 135.468 88.6763C135.468 87.0523 137.813 87.9545 137.813 85.9697C139.977 79.8347 137.993 72.7975 139.797 67.5648C160.54 60.3471 154.227 60.8885 155.129 80.376C154.588 82.7217 157.474 79.4738 157.113 81.6391C156.572 87.0523 159.638 92.4655 152.243 93.3677H152.423ZM143.224 85.2479C152.603 83.8044 148.275 78.2107 149.176 71.1736C148.635 70.0909 146.29 71.8953 145.208 71.8953C143.404 75.5041 144.487 80.9173 143.224 85.2479Z" fill="white"/>
<path d="M57.1862 106.72C61.6955 106.72 61.6956 111.592 60.6133 114.84C58.2685 121.155 47.9871 123.682 42.7563 124.223C43.4778 116.283 41.4937 106.72 43.4778 99.5025C48.3479 98.7808 59.3506 91.2023 60.2524 99.683C60.2524 102.39 59.531 104.735 57.1862 106.72ZM49.2497 117.186C56.2843 116.283 57.7272 108.344 49.2497 112.133V117.186ZM49.0694 107.442C55.2021 106.72 56.645 99.5025 49.0694 102.75C49.0694 104.374 49.0694 105.818 49.0694 107.442Z" fill="white"/>
<path d="M113.822 88.4958C113.641 81.4586 118.151 72.9779 125.366 71.8953C134.925 70.0909 134.925 81.8195 132.941 88.6762C129.875 99.8635 112.92 103.292 113.822 88.6762V88.4958ZM119.954 86.511C121.397 100.766 131.859 85.6088 126.989 78.9325C123.201 75.3237 119.594 82.7217 119.954 86.511Z" fill="white"/>
<path d="M92.3596 83.2633C99.5745 80.3763 99.2137 80.7372 102.46 87.4135C104.625 81.4589 105.346 77.6697 112.381 76.587C107.15 88.857 104.084 89.5787 112.922 101.127C105.707 104.375 105.888 103.473 102.46 96.9768C100.296 102.751 98.8529 107.623 91.8184 108.345C96.5081 96.4355 101.559 94.8115 92.3596 83.2633Z" fill="white"/>
<path d="M64.4005 92.4657C73.5996 88.6764 69.8118 91.9244 70.5333 99.142C70.5333 100.225 70.5333 100.044 71.4352 99.6833C78.109 96.6158 84.0611 98.4202 82.077 106.72C80.4537 114.299 70.8939 114.66 64.7612 117.366C63.3182 110.329 64.7613 100.405 64.2202 92.4657H64.4005ZM70.5333 109.968C77.3875 109.066 79.0109 101.307 70.5333 105.097C70.5333 106.72 70.5333 108.344 70.5333 109.968Z" fill="white"/>
<path d="M89.8331 96.6156C89.292 100.585 91.0956 106.179 89.1115 109.427C87.4882 109.427 84.6022 111.773 83.7003 110.69C84.2415 102.751 82.6182 93.5481 84.2415 86.1501C85.8649 86.1501 88.9312 83.6239 89.8331 85.0674C89.8331 89.0371 89.8331 93.0068 89.8331 96.9765V96.6156Z" fill="white"/>
<path d="M143.225 85.2479C144.487 80.9173 143.225 75.5041 145.209 71.8953C146.291 71.8953 148.636 70.0909 149.177 71.1736C148.275 78.3912 152.604 83.8044 143.225 85.2479Z" fill="#76B82A"/>
<path d="M49.249 117.186V112.134C57.7266 108.344 56.2836 116.284 49.249 117.186Z" fill="#76B82A"/>
<path d="M49.0684 107.442C49.0684 105.818 49.0684 104.375 49.0684 102.751C56.6441 99.5027 55.2011 106.72 49.0684 107.442Z" fill="#76B82A"/>
<path d="M119.957 86.5107C119.596 82.7215 123.203 75.3234 126.991 78.9322C131.681 85.6085 121.4 100.766 119.957 86.5107Z" fill="#76B82A"/>
<path d="M70.5332 109.968C70.5332 108.344 70.5332 106.72 70.5332 105.096C79.0108 101.307 77.3874 109.066 70.5332 109.968Z" fill="#76B82A"/>
<defs>
<filter id="filter0_d_2558_4163" x="0" y="0" width="185" height="185" filterUnits="userSpaceOnUse" color-interpolation-filters="sRGB">
<feFlood flood-opacity="0" result="BackgroundImageFix"/>
<feColorMatrix in="SourceAlpha" type="matrix" values="0 0 0 0 0 0 0 0 0 0 0 0 0 0 0 0 0 0 127 0" result="hardAlpha"/>
<feOffset dx="-5" dy="5"/>
<feComposite in2="hardAlpha" operator="out"/>
<feColorMatrix type="matrix" values="0 0 0 0 0 0 0 0 0 0 0 0 0 0 0 0 0 0 1 0"/>
<feBlend mode="normal" in2="BackgroundImageFix" result="effect1_dropShadow_2558_4163"/>
<feBlend mode="normal" in="SourceGraphic" in2="effect1_dropShadow_2558_4163" result="shape"/>
</filter>
</defs>
</svg>
