<svg width="197" height="235" viewBox="0 0 197 235" fill="none" xmlns="http://www.w3.org/2000/svg">
<mask id="mask0_2558_4177" style="mask-type:alpha" maskUnits="userSpaceOnUse" x="0" y="0" width="197" height="235">
<rect width="197" height="235" fill="#D9D9D9"/>
</mask>
<g mask="url(#mask0_2558_4177)">
<g filter="url(#filter0_d_2558_4177)">
<circle cx="96" cy="130" r="90" fill="#945091"/>
</g>
<path d="M56.898 188.939C57.471 188.939 57.3277 188.326 57.3277 187.866C58.1873 182.96 60.9091 179.28 64.3472 176.367C64.9202 175.754 65.35 175.141 65.6365 174.374C67.069 169.928 70.0773 167.168 74.2317 165.942C75.0912 165.635 75.8075 165.328 76.2372 164.255C77.0968 162.569 78.6726 161.802 80.3916 161.495C84.8325 160.882 89.1301 161.649 93.2845 163.182C103.312 166.708 112.051 172.841 118.784 181.58C124.944 189.552 125.373 197.831 120.216 206.724C120.216 206.724 120.216 207.03 120.216 207.184C122.365 208.104 124.227 209.484 126.233 210.557C126.949 211.017 127.665 211.477 127.809 212.55C127.809 213.316 128.382 213.317 128.955 213.623C138.266 217.916 147.721 222.209 158.035 223.435C162.906 224.049 167.777 223.742 172.504 222.209C180.383 219.756 183.964 214.696 184.537 205.804C184.824 202.124 184.824 198.445 183.391 194.918C181.529 195.225 180.24 193.999 179.237 192.465C178.091 190.932 176.945 189.399 175.656 188.173C171.358 190.779 166.774 191.392 162.19 190.012C151.159 186.639 141.275 181.273 133.825 171.614C130.387 167.168 127.809 162.109 127.092 156.129C126.806 153.523 127.092 150.916 128.238 148.617C130.101 145.397 131.533 141.871 134.112 139.264C134.685 138.651 134.542 137.884 134.971 137.118C137.263 133.592 140.415 131.445 144.283 130.372C144.999 130.219 145.859 130.372 146.432 129.605C147.578 129.605 148.724 129.605 149.87 129.605L150.156 129.912C156.459 130.372 162.333 132.672 167.92 135.585C177.088 140.491 184.824 147.084 189.121 157.356C191.27 162.262 192.416 167.168 191.413 172.687C190.697 176.367 189.265 179.74 187.259 182.653C190.697 185.259 190.84 185.566 189.121 189.859C188.978 190.319 189.121 190.626 189.121 191.086C191.843 197.218 193.132 203.658 192.989 210.403C192.989 216.689 190.84 222.056 186.256 225.889C178.234 232.634 169.209 235.241 159.181 233.248C147.291 230.948 136.117 226.655 125.803 219.756C124.657 221.442 122.938 221.136 121.362 220.829C119.07 220.369 116.921 219.449 114.916 218.529C114.486 218.376 114.056 217.916 113.483 218.529C111.478 220.829 108.756 221.902 106.321 223.589C102.309 226.348 98.0119 228.188 92.998 227.728C87.6976 227.422 83.1135 225.582 78.9591 222.209C73.802 218.069 68.9313 213.623 64.4904 208.564C61.6254 205.191 59.19 201.358 57.7575 196.912C57.471 196.145 57.7575 195.225 56.898 194.612V193.079C57.471 192.312 57.3277 191.545 56.898 190.932V188.939ZM60.6226 188.479C60.1928 188.479 60.3361 188.939 60.3361 189.246C59.3333 193.845 62.1984 202.124 65.35 203.811C65.35 201.511 65.35 199.058 65.35 196.758C65.35 193.539 66.3527 191.392 67.9285 190.779C67.9285 191.085 68.0718 191.239 67.9285 191.392C66.9258 195.225 67.2122 199.211 67.642 203.044C68.0718 206.571 69.0745 209.637 71.9396 211.783C71.9396 211.937 72.0829 212.09 72.2262 212.397C72.5127 212.09 72.3694 211.783 72.2262 211.477C71.3666 208.87 70.7936 206.111 70.5071 203.351C70.2206 200.591 70.0773 197.678 71.3666 195.072C71.6531 194.458 71.9397 193.539 73.0857 193.692C71.7964 197.525 72.3694 201.358 73.0857 205.191C73.9452 210.557 75.8075 215.31 79.6754 218.836C80.2484 219.449 80.8214 220.062 81.8242 219.909C76.094 209.484 74.8047 202.278 78.2428 199.365C77.9563 203.658 78.8158 207.644 80.1051 211.477C81.6809 216.076 84.546 219.909 86.9813 220.982C85.4055 218.069 84.4028 215.003 83.973 211.783C83.5432 209.177 82.9702 206.571 83.973 203.964C84.2595 203.198 84.546 202.124 85.692 201.971C85.692 202.124 85.692 202.278 85.692 202.431C85.692 202.738 85.692 203.198 85.692 203.504C85.2623 210.097 86.5516 216.383 90.2762 221.749C90.9924 222.822 91.852 223.435 93.1412 222.975C88.9869 214.85 87.9841 209.637 90.1329 207.337C90.5627 207.49 90.5627 207.95 90.7059 208.41C91.4222 211.17 91.9952 213.93 92.7115 216.689C93.2845 218.683 94.0008 220.522 95.1468 222.056C95.4333 222.362 95.5766 222.975 96.1496 222.822C98.5849 222.056 101.163 221.596 103.026 219.603C103.169 219.603 103.456 219.603 103.599 219.449C107.467 216.23 109.615 212.09 109.759 207.03C110.045 199.671 107.467 193.232 103.026 187.866C97.2956 180.813 89.9896 176.52 81.2511 174.987C75.3777 173.914 69.9341 174.834 65.2067 179.28C62.6281 181.733 60.4793 184.34 60.1928 188.326L60.6226 188.479ZM177.661 174.681C177.661 168.548 176.085 163.488 172.79 158.889C167.49 151.53 160.471 146.47 152.162 143.404C148.007 141.871 143.71 141.411 139.269 142.331C130.531 144.324 127.092 150.763 129.671 159.502C131.247 164.868 133.969 169.468 137.836 173.454C145.142 180.813 154.024 185.413 163.622 188.019C170.785 189.859 175.369 186.793 177.088 179.127C177.375 177.594 177.375 175.907 177.518 174.681H177.661ZM185.397 193.539C186.973 197.525 187.259 201.358 187.116 205.497C186.686 215.923 181.815 222.209 172.504 224.969C164.482 227.268 156.603 226.502 148.724 224.355C141.275 222.209 134.112 219.449 127.379 215.156C127.092 216.076 126.806 216.996 126.519 217.916C127.952 218.683 129.384 219.296 130.674 219.909C140.702 224.662 150.873 229.108 161.903 230.641C170.785 231.868 178.521 228.802 185.11 222.669C186.686 221.289 187.689 219.449 188.405 217.456C189.265 215.003 189.838 212.397 189.838 209.637C189.838 203.811 188.692 198.138 186.686 192.619C186.256 192.925 185.827 193.232 185.397 193.692V193.539ZM120.216 201.664C121.935 195.378 121.076 189.859 117.638 184.953C112.481 177.747 105.604 172.534 98.0119 168.548C92.7115 165.788 87.1246 164.255 81.1079 164.408C79.9619 164.408 78.8158 164.408 77.813 165.482C79.9619 165.482 81.9674 165.635 83.973 166.248C90.8492 168.088 97.0091 171.461 103.169 175.294C112.481 181.273 118.497 189.706 120.503 201.818L120.216 201.664ZM187.402 176.367C188.119 176.367 188.119 175.754 188.262 175.294C188.835 173.454 189.265 171.461 189.265 169.468C189.265 161.495 186.113 154.903 181.386 149.23C172.934 139.264 162.046 133.898 149.583 132.212C145.859 131.752 142.277 132.825 139.269 135.585C141.848 134.971 144.426 134.205 147.148 134.205C161.044 134.205 171.931 140.644 180.383 151.99C185.54 159.042 188.119 167.168 187.402 176.214V176.367ZM119.357 208.257C118.64 211.17 117.208 213.316 115.775 215.616C116.778 216.076 117.781 216.536 118.784 216.843C124.371 218.529 123.225 218.989 125.23 213.47C125.23 213.47 125.23 213.163 125.23 213.01C123.368 211.63 121.362 210.097 119.5 208.257H119.357ZM182.102 191.852C183.248 191.392 184.107 190.779 184.824 190.012C188.119 187.099 188.119 186.333 184.824 183.42C184.824 183.42 184.681 183.42 184.394 183.42C182.818 185.413 180.813 186.793 178.091 187.253C179.38 188.939 180.669 190.319 181.959 192.005L182.102 191.852ZM82.3972 220.216L82.2539 220.369C82.2539 220.369 82.3972 220.522 82.5405 220.676C82.5405 220.676 82.5405 220.522 82.5405 220.369C82.5405 220.369 82.5404 220.216 82.3972 220.062V220.216Z" fill="#050606"/>
<path d="M56.898 190.779C57.3277 191.545 57.471 192.312 56.898 192.925V190.779Z" fill="#464646"/>
<path d="M103.313 220.063C101.308 222.056 98.8723 222.516 96.4369 223.282C95.8639 223.436 95.7207 222.822 95.4342 222.516C94.2882 220.829 93.5719 218.99 92.9989 217.15C92.2826 214.39 91.5663 211.63 90.9933 208.871C90.9933 208.411 90.9933 207.951 90.4203 207.797C88.4147 210.097 89.4175 215.31 93.4286 223.436C92.1393 223.896 91.2798 223.436 90.5635 222.209C86.8389 216.69 85.5497 210.557 85.9794 203.964C85.9794 203.658 85.9794 203.198 85.9794 202.891C85.9794 202.891 85.9794 202.738 85.9794 202.431C84.8334 202.431 84.5469 203.505 84.2604 204.424C83.2576 207.031 83.8306 209.637 84.2604 212.244C84.6901 215.463 85.8362 218.376 87.2687 221.443C84.8334 220.369 81.9683 216.536 80.3925 211.937C79.1032 208.104 78.2437 204.118 78.5302 199.825C75.0921 202.738 76.3814 209.944 82.1115 220.369C81.1088 220.523 80.5357 219.909 79.9627 219.296C76.0949 215.617 74.2326 210.864 73.373 205.651C72.8 201.818 72.0838 197.985 73.373 194.152C72.0838 193.999 71.9405 194.919 71.654 195.532C70.3647 198.138 70.508 200.898 70.7945 203.811C71.081 206.571 71.654 209.331 72.5135 211.937C72.5135 211.937 72.3703 212.09 72.227 212.244C69.3619 210.097 68.3592 206.878 67.9294 203.505C67.4996 199.672 67.2131 195.685 68.2159 191.852C68.2159 191.699 68.2159 191.392 68.2159 191.239C66.6401 192.006 65.6373 194.152 65.6373 197.219C65.6373 199.518 65.6373 201.971 65.6373 204.271C62.4857 202.431 59.6207 194.306 60.6234 189.706C60.9099 189.553 60.91 189.246 60.91 188.939C62.4858 187.1 64.0615 185.26 65.7806 183.573C71.654 177.594 77.9572 176.674 84.9766 181.12C94.1449 186.793 100.305 195.379 104.459 205.498C105.748 208.717 106.035 212.09 105.319 215.463C105.032 217.15 104.029 218.683 103.743 220.369L103.313 220.063Z" fill="#0AB9EC"/>
<path d="M177.661 174.681C177.661 176.06 177.661 177.593 177.231 179.127C175.512 186.946 170.928 190.012 163.765 188.019C154.167 185.413 145.285 180.813 137.979 173.454C134.112 169.621 131.247 164.868 129.814 159.502C127.235 150.61 130.817 144.324 139.412 142.33C143.71 141.257 148.15 141.717 152.305 143.404C160.47 146.47 167.49 151.529 172.933 158.889C176.228 163.488 177.804 168.548 177.804 174.68L177.661 174.681ZM150.156 154.443C143.137 154.443 139.698 159.962 142.85 166.555C147.004 175.14 153.594 180.2 162.762 180.813C164.052 180.813 165.198 180.66 166.344 179.74C169.495 177.133 170.212 173.607 169.495 169.774C167.92 161.802 158.465 154.443 150.156 154.443Z" fill="#FDFDFD"/>
<path d="M103.313 220.063C103.743 218.376 104.602 216.843 104.888 215.157C105.604 211.784 105.461 208.257 104.029 205.191C99.7309 195.072 93.7143 186.486 84.546 180.814C77.5266 176.521 71.2234 177.287 65.35 183.267C63.6309 184.953 62.1984 186.793 60.4793 188.633C60.7658 184.8 62.9146 182.04 65.4932 179.587C70.0773 175.141 75.6643 174.374 81.5377 175.294C90.2762 176.827 97.5821 181.12 103.312 188.173C107.753 193.539 110.332 199.978 110.045 207.338C109.902 212.397 107.753 216.69 103.885 219.756C103.742 219.756 103.456 219.756 103.312 219.91L103.313 220.063Z" fill="#FDFDFD"/>
<path d="M185.397 193.539C185.827 193.232 186.256 192.925 186.686 192.465C188.691 197.985 189.694 203.657 189.837 209.483C189.837 212.243 189.408 214.849 188.405 217.303C187.689 219.296 186.686 221.135 185.11 222.515C178.377 228.648 170.785 231.714 161.903 230.488C150.872 229.108 140.701 224.662 130.674 219.756C129.384 219.142 127.952 218.376 126.519 217.762C126.806 216.843 127.092 215.923 127.379 215.003C133.968 219.296 141.274 222.209 148.724 224.202C156.603 226.348 164.482 227.268 172.504 224.815C181.959 222.055 186.686 215.769 187.116 205.344C187.259 201.204 186.972 197.371 185.397 193.385L185.397 193.539Z" fill="#FDFDFD"/>
<path d="M120.216 201.664C118.211 189.706 112.336 181.119 102.882 175.14C96.865 171.307 90.705 167.781 83.6856 166.094C81.8233 165.634 79.8178 165.481 77.5257 165.328C78.6717 164.255 79.8177 164.255 80.8205 164.255C86.6939 164.255 92.4241 165.634 97.7245 168.394C105.317 172.38 112.193 177.593 117.35 184.799C120.932 189.705 121.648 195.225 119.929 201.511L120.216 201.664Z" fill="#FDFDFD"/>
<path d="M187.402 176.367C188.262 167.168 185.683 159.043 180.383 152.143C171.931 140.798 161.044 134.205 147.148 134.359C144.426 134.359 141.848 135.125 139.269 135.738C142.134 132.825 145.715 131.752 149.583 132.365C162.046 133.899 172.934 139.418 181.386 149.384C186.256 155.056 189.408 161.802 189.265 169.622C189.265 171.615 188.835 173.608 188.262 175.448C188.262 175.908 188.262 176.521 187.402 176.521V176.367Z" fill="#0AB9EC"/>
<path d="M119.357 208.257C121.362 210.097 123.224 211.63 125.087 213.01C125.087 213.163 125.087 213.317 125.087 213.47C123.081 218.99 124.227 218.683 118.64 216.843C117.637 216.536 116.635 216.077 115.632 215.617C117.064 213.317 118.497 211.17 119.213 208.257L119.357 208.257Z" fill="#FDFDFD"/>
<path d="M182.102 191.852C180.813 190.319 179.523 188.785 178.234 187.099C180.812 186.639 182.818 185.259 184.537 183.266C184.68 183.266 184.823 183.266 184.967 183.266C188.261 186.026 188.261 186.946 184.967 189.859C184.25 190.625 183.391 191.239 182.245 191.699L182.102 191.852Z" fill="#FDFDFD"/>
<path d="M60.6226 188.479C60.6226 188.786 60.6226 189.092 60.3361 189.246C60.3361 188.939 60.0496 188.632 60.6226 188.479Z" fill="#FDFDFD"/>
<path d="M72.5119 211.477C72.6551 211.783 72.7984 211.937 72.5119 212.397C72.5119 212.09 72.3686 211.937 72.2254 211.783C72.2254 211.783 72.3686 211.63 72.5119 211.477Z" fill="#0AB9EC"/>
<path d="M82.3972 220.216C82.3972 220.216 82.5407 220.216 82.5407 220.523C82.5407 220.523 82.5407 220.676 82.5407 220.829C82.5407 220.829 82.3975 220.676 82.2542 220.523C82.2542 220.523 82.2542 220.523 82.3975 220.369L82.3972 220.216Z" fill="#0AB9EC"/>
<path d="M150.156 154.443C158.465 154.443 167.92 161.802 169.495 169.774C170.212 173.607 169.495 177.133 166.344 179.74C165.198 180.66 164.052 180.813 162.762 180.813C153.594 180.2 147.004 175.14 142.85 166.555C139.555 159.962 143.137 154.443 150.156 154.443ZM160.9 177.594C161.33 172.688 158.895 169.621 155.743 166.708C152.448 163.795 148.724 162.569 144.426 163.949C146.288 170.541 154.597 177.594 160.757 177.594H160.9Z" fill="#050606"/>
<path d="M160.9 177.594C154.74 177.594 146.288 170.541 144.569 163.948C148.867 162.721 152.592 163.795 155.886 166.708C158.895 169.467 161.473 172.687 161.044 177.593L160.9 177.594Z" fill="#FDFDFD"/>
<path d="M181.386 33.0156C180.67 35.162 180.813 37.4618 180.813 39.7616C180.24 52.3336 179.237 64.7522 177.088 77.1709C175.942 83.6102 175.513 90.3562 174.223 96.7955C172.791 104.461 169.209 109.521 161.76 111.207C160.471 111.514 159.182 111.974 157.892 112.434C139.269 118.107 120.933 124.853 102.739 132.212C86.122 138.958 69.3613 145.09 52.3141 150.15C47.3002 151.683 42.143 153.37 36.8426 153.829C33.118 154.136 29.9664 153.216 27.3879 150.303C25.9553 148.617 24.093 147.237 22.6605 145.55C20.2251 142.791 19.2224 139.418 19.0791 135.738C18.7926 128.379 19.3656 121.02 19.5089 113.507C19.7954 103.541 20.5117 93.4225 21.5145 83.4569C22.374 74.8712 22.5172 66.2854 24.2363 57.853C25.6688 50.4938 29.6799 44.9743 35.6966 41.1414C42.2863 37.0018 49.5922 35.0087 56.7549 33.0156C71.7966 28.7227 86.122 22.59 100.877 17.3772C115.059 12.1645 129.241 7.25832 143.853 4.03866C146.432 3.4254 148.867 2.96544 151.446 2.50549C155.743 2.50549 160.184 2.50549 164.482 2.50549C164.482 2.96544 164.912 2.81212 165.198 2.81212C168.493 2.96544 171.358 4.34529 173.65 6.95168C174.939 8.33153 176.086 9.71141 177.375 11.0913C179.094 12.9311 180.383 14.7709 180.67 17.5306C180.813 18.6038 180.67 19.9837 181.243 21.0569V21.8235C180.67 23.9699 180.67 26.2696 181.243 28.4161V33.6289L181.386 33.0156ZM166.917 104.461C168.207 103.541 168.78 102.008 169.353 100.628C170.355 97.8687 170.785 94.9557 171.358 92.196C172.361 86.8299 172.647 81.4638 173.65 76.0977C175.083 68.5852 175.942 60.766 176.515 53.1001C176.945 48.5006 177.088 43.9011 177.232 39.4549C177.518 32.8623 178.234 26.423 177.518 19.8303C176.945 14.6175 175.083 11.5512 169.782 11.0913C167.347 10.7846 164.912 11.0913 162.62 11.3979C154.168 12.4711 145.716 14.4642 137.407 16.9173C122.795 21.2102 108.613 26.8829 94.001 31.3291C84.5462 34.2421 75.378 37.9217 66.0665 41.1414C58.9038 43.5945 51.5978 45.8942 44.4351 48.3473C40.1375 49.8805 37.2724 52.9468 35.8398 57.5463C35.2668 59.3861 34.8371 61.226 34.4073 63.2191C32.9748 70.425 32.2585 77.6309 31.5422 84.8368C30.6827 93.4225 30.2529 101.855 29.9664 110.441C29.6799 119.026 29.5367 127.612 29.1069 136.045C29.1069 139.111 29.1069 142.024 29.2502 145.09C29.3934 147.39 30.5394 149.077 32.6882 149.843C34.8371 150.61 36.8426 150.61 38.9914 149.843C39.7077 149.843 40.2807 149.843 40.997 149.537C53.3168 146.624 65.3502 142.331 77.2402 138.191C90.4196 133.592 103.456 128.072 116.492 123.013C131.247 117.187 146.289 112.281 161.474 107.681C163.336 107.068 165.341 106.608 166.774 104.768L166.917 104.461Z" fill="#030303"/>
<path d="M181.386 27.9561C180.813 25.8096 180.813 23.5099 181.386 21.3634V27.9561Z" fill="#343434"/>
<path d="M166.917 104.461C165.485 106.148 163.622 106.761 161.617 107.374C146.432 112.127 131.39 117.033 116.635 122.706C103.599 127.919 90.5629 133.285 77.3835 137.884C65.3502 142.177 53.4601 146.317 41.1402 149.23C40.424 149.383 39.8509 149.537 39.1347 149.537C37.9886 149.23 36.6994 148.923 35.5533 148.463C33.4045 147.85 32.4018 146.317 32.2585 144.017C31.8287 139.264 31.8287 134.512 31.972 129.759C32.4017 115.04 32.6882 100.322 33.9775 85.6034C34.4073 79.9306 34.8371 74.1046 35.9831 68.5852C36.5561 65.6722 37.4156 62.9125 38.4184 60.1528C41.1402 53.1002 46.5839 50.1871 52.8871 48.194C70.7938 42.5213 88.5573 36.082 106.607 30.8692C124.228 25.8097 141.561 19.8304 159.325 15.6908C163.909 14.6176 168.493 14.3109 172.791 17.0706C174.223 17.9905 175.083 19.0638 175.226 20.9036C175.656 24.7365 175.656 28.4161 175.226 32.249C174.796 36.8485 174.51 41.4481 174.08 45.8943C173.65 51.107 173.364 56.3198 172.791 61.5326C172.074 69.3518 170.928 77.3242 169.926 85.1434C169.209 89.8962 169.066 94.8024 167.92 99.5552C167.49 101.088 166.774 102.622 166.774 104.308L166.917 104.461ZM41.57 134.052C44.2918 134.665 46.7271 134.358 49.1625 133.438C63.9176 128.072 78.6728 122.859 93.2847 117.493C114.773 109.827 136.118 102.008 157.606 94.1891C159.038 93.7292 160.184 92.5026 160.471 90.6628C160.757 88.0565 161.187 85.6034 161.474 82.997C162.763 73.0314 163.909 63.0658 165.055 53.2535C166.201 43.9011 167.49 34.5488 168.207 25.0431C168.493 22.1301 167.204 21.2102 164.768 22.1301C164.339 22.1301 164.052 22.4367 163.622 22.4367C133.253 31.4824 103.026 40.5281 72.6561 49.5739C65.0636 51.8736 57.4712 54.1734 49.8787 56.4731C48.4462 56.9331 47.7299 57.6997 47.4434 59.3862C46.5839 66.4387 46.1541 73.4913 45.5811 80.5439C44.8648 88.823 44.2918 96.9488 43.7188 105.228C43.0026 114.734 42.2863 124.239 41.57 133.898V134.052Z" fill="#0BBAED"/>
<path d="M166.917 104.461C166.917 102.775 167.634 101.395 168.064 99.7089C169.21 94.956 169.353 90.0499 170.07 85.2971C171.072 77.4779 172.218 69.6587 172.935 61.6862C173.364 56.4735 173.794 51.2607 174.224 46.0479C174.654 41.4484 174.94 36.8489 175.37 32.4027C175.657 28.5697 175.657 24.8901 175.37 21.0572C175.227 19.2174 174.367 18.1442 172.935 17.2243C168.637 14.4646 164.196 14.7712 159.469 15.8444C141.705 19.984 124.372 25.9634 106.751 31.0228C88.7013 36.2356 70.9379 42.6749 53.0311 48.3476C46.7279 50.3408 41.2843 53.4071 38.5624 60.3064C37.5597 63.0661 36.7001 65.8258 36.1271 68.7388C34.9811 74.4115 34.5513 80.0843 34.1216 85.757C32.8323 100.475 32.5458 115.194 32.116 129.912C32.116 134.665 32.116 139.418 32.4025 144.171C32.5458 146.471 33.5485 148.004 35.6974 148.617C36.8434 148.924 38.1327 149.23 39.2787 149.69C37.1299 150.457 35.1243 150.457 32.9755 149.69C30.8267 148.924 29.6807 147.237 29.5375 144.937C29.3942 142.024 29.2509 138.958 29.3942 135.892C29.824 127.306 29.9672 118.72 30.2537 110.288C30.5402 101.702 31.1132 93.2696 31.8295 84.6838C32.5458 77.4779 33.262 70.1187 34.6946 63.0661C35.1243 61.2263 35.5541 59.2332 36.1271 57.3934C37.5596 52.7939 40.4247 49.7275 44.7223 48.1943C51.885 45.7413 59.191 43.4415 66.3537 40.9884C75.6652 37.7688 84.8335 34.0892 94.2882 31.1761C108.9 26.7299 123.082 21.0572 137.694 16.7643C146.003 14.3113 154.312 12.4714 162.907 11.2449C165.199 10.9383 167.634 10.6316 170.07 10.9383C175.37 11.5515 177.232 14.6179 177.805 19.6773C178.665 26.27 177.805 32.7093 177.519 39.3019C177.232 43.9015 177.089 48.501 176.803 52.9472C176.23 60.613 175.37 68.2789 173.937 75.9447C172.935 81.3108 172.648 86.6769 171.645 92.043C171.072 94.956 170.643 97.7157 169.64 100.475C169.067 102.009 168.494 103.388 167.205 104.308L166.917 104.461Z" fill="#FEFEFE"/>
<path d="M41.5688 134.052C42.2851 124.393 43.0013 114.887 43.7176 105.382C44.2906 97.1026 44.8636 88.9767 45.5799 80.6976C46.1529 73.645 46.5827 66.5924 47.4422 59.5398C47.5855 57.7 48.445 56.9335 49.8775 56.6268C57.47 54.3271 65.0624 51.874 72.6549 49.7276C103.025 40.6819 133.251 31.6362 163.621 22.5904C164.051 22.5904 164.337 22.2838 164.767 22.2838C167.203 21.3639 168.492 22.2838 168.205 25.1968C167.489 34.7025 166.2 44.0548 165.054 53.4072C163.908 63.3728 162.618 73.3384 161.472 83.1507C161.186 85.7571 160.756 88.2102 160.47 90.8166C160.326 92.8097 159.18 93.8829 157.605 94.3428C136.26 102.162 114.772 109.828 93.2835 117.647C78.5283 123.013 63.7732 128.226 49.1612 133.592C46.7259 134.512 44.2906 134.665 41.5688 134.205V134.052ZM141.703 31.7895C139.841 31.7895 138.552 32.7094 138.409 34.8558C137.262 37.7688 136.116 40.6819 134.97 43.5949C132.105 50.6475 128.667 57.3934 124.943 63.9861C124.656 64.446 124.513 65.3659 123.51 65.3659C123.51 64.7526 123.51 64.1394 123.653 63.5261C123.797 62.1463 124.943 61.533 125.372 60.3064C126.662 57.2401 127.951 54.0204 129.24 50.9541C131.676 44.9747 134.111 39.1487 137.119 33.3226C136.546 33.3226 136.116 33.3226 135.687 33.4759C115.918 39.4553 96.1486 45.2814 76.3795 51.2607C75.6632 51.5674 75.0902 51.7207 74.8037 52.6406C73.5144 57.3934 71.3656 61.8396 69.3601 66.4391C68.7871 66.4391 68.6438 67.359 67.7843 66.8991C67.4978 65.9792 67.7843 65.2126 68.2141 64.2927C69.5033 61.073 70.7926 57.8534 71.9386 54.4804C72.5116 53.8671 72.7982 53.2539 72.9414 52.4873C70.0763 52.4873 68.9303 53.2539 68.0708 55.4003C67.9275 55.7069 67.7843 55.8602 67.641 56.1669C62.6271 66.8991 58.043 77.9379 53.3156 88.8234C53.0291 89.59 52.8858 90.5099 51.8831 90.6632C51.31 89.8966 51.8831 89.1301 51.8831 88.5168C53.7454 82.9974 55.8942 77.7846 58.043 72.4185C60.3351 67.0524 62.7704 61.6863 65.0625 56.3202C65.6355 55.7069 66.0652 55.0937 66.2085 54.1737C60.335 55.8602 54.7481 57.5467 49.018 59.0799C47.5854 83.4573 45.2934 107.681 43.5743 131.906C45.4367 131.906 46.4394 130.372 47.872 130.066C50.3073 129.452 52.7426 128.533 55.1779 127.919C57.47 127.459 58.3295 125.926 58.4728 123.626C58.4728 123.626 58.616 123.473 58.7593 123.32C60.9081 118.414 62.9136 113.507 65.0625 108.448C65.349 107.988 65.3489 106.915 66.2085 107.221C67.068 107.528 66.495 108.448 66.2085 108.908C64.9192 113.354 63.2001 117.647 61.4811 121.94C61.0513 123.166 60.4783 124.24 60.0486 125.619C63.2957 124.802 65.3967 123.064 66.3517 120.407C67.2113 118.567 68.214 116.574 69.0735 114.734C69.2168 114.274 69.5033 113.814 70.0763 114.121C70.6494 114.427 70.5061 114.887 70.3629 115.347C70.0764 116.574 69.3601 117.8 69.2168 119.18C68.3573 120.253 68.0708 121.633 67.3545 123.166C67.7843 123.013 68.0708 123.013 68.2141 122.86C85.5478 116.574 102.882 110.288 120.215 104.155C122.507 103.389 124.083 102.162 124.799 99.5556C126.662 95.7227 128.524 91.7364 130.243 87.9035C130.386 87.4436 130.673 86.9836 130.959 86.677C131.103 86.3703 131.389 86.0637 131.819 86.217C132.249 86.3704 132.392 86.8303 132.249 87.2903C132.249 87.7502 131.962 88.2102 131.819 88.6701C130.816 91.7364 129.67 94.8028 128.667 97.8691C127.808 98.9423 127.235 100.169 126.948 101.395C126.948 101.395 126.948 101.395 126.805 101.549C126.805 101.549 126.805 101.549 126.948 101.549C127.091 101.549 127.091 101.395 126.948 101.242C129.957 100.629 132.965 100.322 133.681 96.1827C136.403 90.05 138.982 83.9173 141.703 77.9379C142.993 75.1782 144.139 72.2652 145.571 69.5055C145.858 68.7389 146.431 67.6656 147.004 69.5055C145.285 73.9517 143.566 78.5512 141.703 82.844C139.555 88.0568 137.406 93.2696 134.97 98.1758C134.97 98.1758 134.97 98.4824 134.97 98.6357C135.114 98.1758 134.97 98.1758 134.827 98.1758C137.262 98.6357 139.268 97.2559 140.414 94.1895C141.703 91.4298 143.136 88.6701 144.425 85.9104C144.855 84.9905 145.571 84.2239 146.144 85.9104C144.998 89.2834 143.709 92.503 141.847 95.7227C142.42 95.7227 142.706 95.7227 142.993 95.7227C147.29 94.1895 151.731 92.503 156.029 90.9699C156.602 90.8165 156.745 90.3566 156.888 89.7433C157.891 80.8509 158.894 71.9585 160.04 63.0661C161.186 53.1005 162.475 43.2883 163.764 33.3226C164.194 30.4096 164.624 27.4966 164.911 24.4302C164.194 24.5836 163.621 24.7369 163.048 24.8902C157.318 26.5767 151.588 28.2632 145.858 29.9496C144.139 30.4096 142.849 31.1762 142.563 33.1693C140.414 38.9954 138.408 44.8214 135.114 50.0342C134.541 48.1944 135.114 46.6612 135.687 45.1281C137.119 41.4484 138.552 37.9221 139.841 34.3959C140.557 33.6293 140.987 32.8627 141.13 31.7895C141.274 31.7895 141.417 31.7895 141.274 31.4828H140.987L141.703 31.7895Z" fill="#030303"/>
<path d="M140.56 34.5485C139.127 38.0748 137.694 41.7544 136.405 45.2807C135.832 46.8139 135.259 48.3471 135.832 50.1869C139.127 44.9741 141.133 39.148 143.281 33.322C147.722 32.4021 152.163 31.1755 156.604 29.7957C158.466 29.1824 160.472 28.4158 162.621 28.1092C161.904 33.6286 161.331 38.8414 160.615 44.0542C159.326 53.7132 158.18 63.2188 157.034 72.8778C156.461 78.0906 155.601 83.3033 155.028 88.6694C155.028 89.2827 154.742 89.7427 154.169 89.896C151.877 90.8159 149.441 91.5825 146.863 92.6557C147.579 89.436 149.012 86.8296 149.155 83.61C147.579 84.2232 147.579 85.6031 146.863 86.2164C146.29 84.5299 145.573 85.2965 145.144 86.2164C143.711 88.9761 142.422 91.7358 141.133 94.4955C140.703 94.4955 140.13 94.6488 139.7 94.8021C139.7 94.8021 139.557 94.4955 139.413 94.3422C139.843 93.1156 140.273 91.8891 140.703 90.6626C142.995 84.3766 145.43 77.9373 147.722 71.6513C148.009 71.038 148.725 70.1181 147.436 69.6581C146.863 67.9716 146.29 69.0449 146.003 69.6581C144.714 72.4178 143.425 75.1775 142.135 78.0906C139.413 84.2233 136.835 90.2026 134.113 96.3353C132.394 96.7952 130.818 97.2552 129.099 97.7152C130.102 94.6488 131.248 91.5825 132.251 88.5161C132.394 88.0562 132.537 87.5962 132.681 87.1363C132.681 86.6763 132.681 86.2164 132.251 86.063C131.821 85.9097 131.535 86.0631 131.391 86.523C131.105 86.983 130.961 87.2896 130.675 87.7495C128.813 91.5825 126.95 95.5687 125.231 99.4016C124.945 99.4016 124.802 99.4016 124.515 99.4016C113.485 103.388 102.454 107.374 91.4234 111.207C84.1174 113.813 76.8115 116.267 69.5056 118.873C69.5056 117.493 70.3651 116.42 70.6516 115.04C70.6516 114.58 70.9381 114.12 70.3651 113.813C69.7921 113.507 69.5056 114.12 69.3623 114.427C68.5028 116.267 67.5 118.26 66.6405 120.099C65.0647 120.559 63.4889 121.173 61.9131 121.633C63.6321 117.34 65.3512 113.047 66.6405 108.601C66.7837 107.987 67.3568 107.221 66.6405 106.914C65.781 106.608 65.6377 107.527 65.4944 108.141C63.3456 113.047 61.3401 117.953 59.1913 123.012C59.048 123.012 58.9048 123.012 58.9048 123.319C58.3318 123.166 57.7587 123.319 57.329 123.626C54.0341 124.852 50.7393 126.079 47.4445 127.305C48.4472 104.768 50.596 82.3834 51.5988 59.9991C56.3262 58.6193 60.9103 57.3927 65.6377 56.0129C63.3456 61.379 60.9103 66.7451 58.6182 72.1112C56.3262 77.324 54.3206 82.6901 52.4583 88.2095C52.1718 88.8227 51.7421 89.5893 52.4583 90.3559C53.4611 90.2026 53.6044 89.2827 53.8909 88.5161C58.6183 77.6306 63.2024 66.5918 68.2163 55.8596C68.2163 55.553 68.5028 55.3996 68.646 55.093C69.9353 54.7864 71.2246 54.4797 72.5139 54.1731C71.2246 57.3928 69.9353 60.6124 68.7893 63.9854C68.5028 64.9053 68.073 65.6719 68.3595 66.5918C69.219 66.8984 69.3623 66.1318 69.9353 66.1318C69.792 67.9716 68.9325 69.6581 69.3623 71.6513C70.3651 71.6513 70.5083 70.8847 70.7948 70.4247C73.5167 65.2119 75.6655 59.8458 77.3845 54.1731C77.671 52.9466 78.244 52.4866 79.2468 52.18C83.2579 50.8001 87.269 49.7269 91.2801 48.6537C103.313 45.2807 115.347 42.3677 127.094 38.3814C129.242 37.6148 131.535 36.8483 133.97 36.0817C132.394 39.7613 131.105 42.9809 129.672 46.2006C127.523 51.4134 125.088 56.3195 123.656 61.8389C123.656 62.4522 122.796 63.2188 124.085 63.3721C124.085 63.9854 124.085 64.5986 123.942 65.2119C124.945 65.2119 125.088 64.4453 125.375 63.8321C129.099 57.2394 132.537 50.4935 135.402 43.4409C136.548 40.5279 137.694 37.6148 138.84 34.7018C139.557 34.7018 140.273 34.0886 140.989 34.3952L140.56 34.5485Z" fill="#174075"/>
<path d="M146.718 86.3698C147.434 85.6032 147.434 84.2233 149.01 83.7634C149.01 86.9831 147.577 89.5894 146.718 92.8091C149.296 91.8892 151.732 90.9693 154.024 90.0494C154.597 89.8961 154.74 89.4361 154.883 88.8229C155.6 83.6101 156.316 78.3973 156.889 73.0312C158.035 63.3722 159.181 53.8666 160.47 44.2076C161.186 38.9948 161.759 33.6287 162.476 28.2626C160.327 28.5692 158.465 29.3358 156.459 29.9491C152.018 31.3289 147.721 32.5555 143.136 33.4754C143.423 31.4823 144.712 30.7157 146.431 30.2557C152.161 28.7226 157.892 26.8828 163.622 25.1963C164.195 25.0429 164.768 24.8896 165.484 24.7363C165.054 27.8027 164.625 30.7157 164.338 33.6287C163.049 43.5943 161.903 53.4066 160.613 63.3722C159.611 72.2646 158.465 81.157 157.462 90.0494C157.462 90.6627 157.175 91.1226 156.602 91.2759C152.305 92.8091 147.864 94.4956 143.566 96.0288C143.28 96.0288 142.85 96.0288 142.42 96.0288C144.282 92.8091 145.429 89.5895 146.718 86.2165V86.3698Z" fill="#FEFEFE"/>
<path d="M65.4944 56.4736C60.9103 57.8534 56.1829 59.08 51.4555 60.4598C50.596 82.8441 48.304 105.228 47.3012 127.766C50.596 126.54 53.8909 125.313 57.1857 124.086C57.7587 123.933 58.1885 123.626 58.7615 123.78C58.6183 126.08 57.7587 127.459 55.4666 128.073C53.0313 128.686 50.7393 129.606 48.1607 130.219C46.7282 130.526 45.7254 132.059 43.8631 132.059C45.4389 107.835 47.8742 83.6107 49.3067 59.2333C54.8936 57.5468 60.6238 56.0136 66.4972 54.3271C66.354 55.4004 65.9242 56.0136 65.3512 56.4736H65.4944Z" fill="#FEFEFE"/>
<path d="M123.656 63.5253C122.367 63.5253 123.083 62.6054 123.226 61.9921C124.659 56.4727 127.094 51.4132 129.243 46.3538C130.675 43.1341 131.965 39.9144 133.54 36.2348C130.962 37.1547 128.813 37.768 126.664 38.5346C114.917 42.6742 102.741 45.5872 90.8507 48.8068C86.8396 49.8801 82.6852 50.9533 78.8174 52.3331C77.8146 52.6398 77.2416 53.253 76.9551 54.3263C75.236 59.999 73.0872 65.3651 70.3654 70.5779C70.0789 71.0378 69.9356 71.9577 68.9329 71.8044C68.5031 69.8113 69.3626 68.1248 69.5059 66.285C71.5114 61.8388 73.6602 57.3926 74.9495 52.4865C75.236 51.5666 75.6658 51.2599 76.5253 51.1066C96.2944 45.1272 116.063 39.3012 135.832 33.3218C136.262 33.3218 136.549 33.3218 137.265 33.1685C134.257 38.9945 131.821 44.9739 129.386 50.8C128.097 53.8663 126.664 56.9327 125.518 60.1523C125.088 61.3788 123.942 61.9921 123.799 63.372L123.656 63.5253Z" fill="#FEFEFE"/>
<path d="M69.6479 119.487C76.9538 116.88 84.2598 114.427 91.5657 111.821C102.596 107.835 113.627 103.848 124.657 100.015C124.801 100.015 125.087 100.015 125.374 100.015C124.801 102.469 123.225 103.695 120.79 104.615C103.456 110.748 86.1221 117.187 68.7883 123.32C68.6451 123.32 68.3586 123.32 67.9288 123.626C68.5018 122.093 68.7883 120.713 69.7911 119.64L69.6479 119.487Z" fill="#FEFEFE"/>
<path d="M147.291 69.8113C148.58 70.2712 147.721 71.1911 147.578 71.8044C145.286 78.0904 142.85 84.5297 140.558 90.8157C140.128 92.0423 139.699 93.2688 139.269 94.4953C139.269 94.4953 139.269 94.802 139.269 94.9553C139.269 94.9553 139.555 94.9553 139.699 94.9553C140.128 94.9553 140.701 94.802 141.131 94.6487C139.842 97.715 137.98 99.0948 135.544 98.6349C137.98 93.5754 140.272 88.3627 142.42 83.3032C144.283 78.857 145.859 74.4108 147.721 69.9646L147.291 69.8113Z" fill="#FEFEFE"/>
<path d="M129.099 98.175C130.818 97.7151 132.393 97.2552 134.113 96.7952C133.396 100.781 130.388 101.241 127.38 101.855C127.666 100.628 128.239 99.4016 129.099 98.3284V98.175Z" fill="#FEFEFE"/>
<path d="M62.0551 122.247C63.6309 121.787 65.2067 121.173 66.7825 120.713C65.8275 123.371 63.7264 125.108 60.4793 125.926C61.0523 124.546 61.4821 123.473 61.9118 122.247H62.0551Z" fill="#FEFEFE"/>
<path d="M71.94 54.6329C70.6507 54.9395 69.3615 55.2462 68.0722 55.5528C68.7885 53.4064 70.0777 52.6398 72.9428 52.6398C72.9428 53.4064 72.513 54.0196 71.94 54.6329Z" fill="#FEFEFE"/>
<path d="M140.557 34.5489C139.841 34.3956 139.125 34.8558 138.409 34.8558C138.552 32.7094 139.841 31.9428 141.703 31.7895C141.703 31.7895 141.703 31.7892 141.847 31.7892C141.56 32.7091 141.13 33.629 140.557 34.3956V34.5489Z" fill="#FEFEFE"/>
<path d="M141.705 31.7892H141.991C141.991 31.9425 141.991 32.0958 141.848 32.0958C141.848 32.0958 141.848 32.0958 141.705 32.0958V31.7892Z" fill="#FEFEFE"/>
<path d="M135.257 98.6352C135.401 98.6352 135.544 98.6352 135.401 99.0952C135.401 99.0952 135.401 98.7885 135.401 98.6352H135.257Z" fill="#FEFEFE"/>
<path d="M127.379 101.702C127.379 101.702 127.379 101.855 127.379 102.009C127.379 102.009 127.379 102.009 127.236 102.009C127.236 102.009 127.236 102.008 127.38 101.855L127.379 101.702Z" fill="#FEFEFE"/>
<path d="M58.9037 123.78C58.9037 123.473 58.9037 123.473 59.1902 123.473C59.1902 123.473 59.047 123.626 58.9037 123.78Z" fill="#FEFEFE"/>
<path d="M139.555 94.9554C139.555 94.9554 139.269 94.9554 139.126 94.9554C139.126 94.9554 139.126 94.6487 139.126 94.4954C139.126 94.4954 139.269 94.8021 139.412 94.9554H139.555Z" fill="#174075"/>
</g>
<defs>
<filter id="filter0_d_2558_4177" x="1" y="40" width="185" height="185" filterUnits="userSpaceOnUse" color-interpolation-filters="sRGB">
<feFlood flood-opacity="0" result="BackgroundImageFix"/>
<feColorMatrix in="SourceAlpha" type="matrix" values="0 0 0 0 0 0 0 0 0 0 0 0 0 0 0 0 0 0 127 0" result="hardAlpha"/>
<feOffset dx="-5" dy="5"/>
<feComposite in2="hardAlpha" operator="out"/>
<feColorMatrix type="matrix" values="0 0 0 0 0 0 0 0 0 0 0 0 0 0 0 0 0 0 1 0"/>
<feBlend mode="normal" in2="BackgroundImageFix" result="effect1_dropShadow_2558_4177"/>
<feBlend mode="normal" in="SourceGraphic" in2="effect1_dropShadow_2558_4177" result="shape"/>
</filter>
</defs>
</svg>
