<svg width="185" height="185" viewBox="0 0 185 185" fill="none" xmlns="http://www.w3.org/2000/svg">
<g filter="url(#filter0_d_2557_166124)">
<circle cx="95" cy="90" r="90" fill="#0BB8EB"/>
</g>
<mask id="mask0_2557_166124" style="mask-type:alpha" maskUnits="userSpaceOnUse" x="5" y="0" width="180" height="180">
<circle cx="95" cy="90" r="90" fill="white"/>
</mask>
<g mask="url(#mask0_2557_166124)">
<path d="M301.24 186.52L-25.0003 -52.043V186.52H301.24Z" fill="#FEFEFE"/>
<path d="M236.12 186.52C219.8 186.52 203.48 186.52 187.32 186.52C184.92 186.52 183.8 184.761 182.36 183.482C174.36 176.607 166.52 169.251 158.36 162.536C148.92 154.701 139.96 146.546 130.84 138.392C130.2 137.752 128.76 137.592 129.08 136.153C130.36 137.113 131.96 137.912 133.08 139.191C135.16 141.43 137.88 142.069 140.76 142.229C141.08 142.229 141.56 142.229 141.88 142.229C147.96 142.709 154.04 143.668 160.28 142.869C163 142.549 163.64 141.749 162.84 139.031C160.76 131.836 158.52 124.801 156.76 117.605C155.64 112.808 153.24 108.971 149.72 105.773C148.6 104.654 147.48 103.535 146.2 102.575C144.76 101.456 143.64 101.936 143.48 103.694C143.48 104.174 143.48 104.654 143.48 104.974C143.64 112.169 144.6 119.364 145.56 126.4C145.56 127.359 146.2 128.318 144.44 128.478C138.04 129.118 131.8 128.158 125.56 128.478C124.92 128.478 124.28 128.478 123.96 129.118C123.48 129.757 123.8 130.397 124.28 131.037C124.76 131.676 125.4 132.316 125.88 132.795C123.8 132.635 122.84 130.717 121.4 129.597C115 124.321 108.6 118.884 102.2 113.608C96.9197 109.131 91.4797 104.654 86.0397 100.177C86.0397 100.177 86.0397 99.857 85.8797 99.6971C86.5197 99.6971 86.9997 99.6971 87.6397 99.6971C95.4797 102.895 103.96 103.215 112.12 104.494C114.68 104.814 115.32 104.014 114.68 101.616C113.08 95.8596 111.48 90.1035 109.72 84.3472C108.92 81.629 108.6 78.591 106.84 76.5124C103.48 72.3551 99.1597 69.1572 94.6797 66.1192C93.2397 65.1598 91.7997 65.9593 91.7997 67.7182C91.7997 68.8374 91.7997 69.9567 92.1197 71.076C93.0797 76.3525 94.1997 81.629 95.3197 86.7457C95.6397 88.0248 95.6397 88.8243 93.8797 88.5045C88.7597 87.8649 83.6397 87.5451 78.6797 86.4259C77.5597 86.266 76.5997 86.266 75.9597 87.2253C75.4797 88.1847 75.9597 89.1441 76.5997 89.7837C77.7197 91.0629 78.9997 92.5019 80.1197 93.7811C79.3197 93.941 78.8397 93.4613 78.3597 92.9816C71.7997 87.2254 65.2397 81.3093 58.1997 75.8728C49.0797 68.9974 40.1197 61.802 31.6397 54.1271C22.5197 45.8126 12.5997 38.4574 2.83969 30.9424C-3.88031 25.8257 -11.2403 21.6685 -18.1203 16.5518C-19.0803 15.7523 -20.2003 15.1128 -21.1603 14.1534C-22.1203 13.194 -23.2403 12.8743 -24.5203 13.3539V-34.9342C-23.8803 -34.9342 -23.5603 -34.6145 -23.2403 -34.2947C3.79968 -14.1479 30.8397 5.99881 57.7197 25.9857C90.3597 50.2897 123 74.5936 155.64 98.8976C189.72 124.321 223.96 149.744 258.04 175.167C262.36 178.365 267 181.563 271.16 185.081C270.84 185.721 270.2 185.561 269.56 185.561C263 185.561 256.44 185.561 249.88 185.561C246.84 180.924 242.52 177.406 238.2 174.048C236.92 173.089 236.12 173.569 236.12 175.327C236.12 178.845 236.12 182.203 236.44 185.721L236.12 186.52ZM209.88 185.081C210.2 185.081 210.68 185.081 211 185.081C214.2 185.081 214.68 184.122 213.88 181.084C211.8 174.048 210.04 167.173 207.64 160.297C206.04 155.5 205.56 150.224 201.72 146.386C197.88 142.549 193.56 139.351 189.24 136.313C187.96 135.514 186.84 136.313 186.68 137.752C186.68 139.031 186.68 140.47 186.84 141.75C187.96 148.785 189.24 155.98 190.52 163.015C190.84 164.455 190.36 164.614 189.24 164.295C185.88 163.655 182.52 163.015 179.16 162.216C175.8 161.417 172.44 160.297 169.08 159.498C168.12 159.178 167 159.018 166.36 159.977C165.72 160.937 166.36 161.736 167 162.536C167.32 163.016 167.8 163.495 168.28 163.975C171.8 167.812 175.48 171.49 179.16 175.008C181.24 177.086 183.48 178.525 186.2 179.325C194.04 181.883 201.72 184.282 210.04 184.921L209.88 185.081ZM11.7997 25.6658C14.9997 25.6658 15.9597 24.7065 14.8397 22.1481C11.6397 14.1534 8.27969 5.99877 4.59969 -1.83607C4.27969 -2.31575 3.95969 -2.79542 3.63969 -3.11521C-0.200314 -6.63289 -4.52031 -9.35112 -8.84031 -12.2292C-9.64031 -12.7089 -10.6003 -13.5084 -11.5603 -12.7089C-12.5203 -11.9094 -12.2003 -10.9501 -12.0403 -9.83081C-10.9203 -4.0746 -8.52031 1.3619 -6.28031 6.63843C-5.32031 8.87696 -5.32031 8.8769 -7.88031 8.8769C-12.2003 8.8769 -16.3603 8.39721 -20.6803 8.07742C-21.8003 8.07742 -23.0803 7.91755 -23.7203 9.19671C-24.3603 10.4759 -23.2403 11.2754 -22.4403 11.9149C-19.8803 14.1535 -17.4803 16.2321 -14.9203 18.4706C-13.1603 20.0695 -11.2403 21.1889 -9.00031 21.8284C-2.12031 24.067 4.91969 25.1862 11.7997 25.8258V25.6658ZM42.6797 46.4522C40.1197 46.6121 37.7197 46.4522 35.3197 46.2923C32.5997 45.9725 30.0397 45.6527 27.3197 45.3329C26.5197 45.3329 25.7197 45.173 25.2397 45.9725C24.7597 46.772 25.2397 47.4115 25.7197 48.0511C26.3597 48.8506 27.1597 49.4902 27.7997 50.2897C29.2397 51.7287 30.9997 53.0079 32.2797 54.7667C33.3997 56.0459 34.5197 56.8454 36.1197 57.4849C41.7197 59.7235 47.6397 61.4823 53.3997 63.0813C55.1597 63.5609 57.0797 64.2005 58.9997 64.2005C61.2397 64.2005 61.8797 63.2411 61.0797 61.1625C58.6797 54.7667 56.4397 48.3709 54.0397 41.9751C52.9197 39.097 51.7997 36.2189 49.7197 33.9804C47.4797 31.582 44.7597 29.5033 42.0397 27.7445C40.7597 26.945 39.7997 27.5846 39.6397 29.0237C39.6397 30.4628 39.6397 31.9017 39.6397 33.3408C40.2797 37.8178 41.2397 42.135 42.5197 46.4522H42.6797Z" fill="#D0CACA"/>
<path d="M-25.0003 61.3224C-22.4403 62.4416 -20.5203 64.3604 -18.4403 66.1192C-11.0803 72.515 -3.56031 78.9108 3.63969 85.4665C7.31969 88.8243 10.6797 92.342 14.5197 95.38C22.9997 102.415 30.6797 110.41 39.1597 117.445C44.2797 121.603 49.2397 125.92 53.8797 130.397C64.4397 140.47 75.1597 150.064 86.6797 159.018C93.8797 164.614 100.76 170.69 107.8 176.447C111.32 179.485 115 182.363 118.52 185.401C118.68 185.561 119 185.88 119.48 186.36H-25.0003V61.1625V61.3224Z" fill="#D1CBCB"/>
<path d="M270.68 186.2C266.52 182.683 262.04 179.485 257.56 176.287C223.48 150.863 189.4 125.44 155.16 100.017C122.52 75.7129 89.8797 51.409 57.2397 27.1049C30.1997 6.9582 3.15969 -13.1886 -23.7203 -33.1754C-24.0403 -33.4952 -24.3603 -33.9749 -25.0003 -33.815V-40.3707C-21.9603 -38.9316 -19.5603 -36.6931 -17.0003 -34.7744C33.0797 2.48112 82.9997 39.7366 132.92 76.9921C178.68 111.05 224.44 145.107 270.2 179.325C273.4 181.723 276.6 184.122 280.28 186.84C276.76 186.52 273.56 187.319 270.52 186.36L270.68 186.2Z" fill="#040404"/>
<path d="M-25.0003 -52.043C-23.7203 -52.043 -23.0803 -51.0836 -22.1203 -50.444C-6.44031 -39.0915 9.07969 -27.739 24.7597 -16.3865C58.1997 8.07745 91.7997 32.5413 125.24 57.1651C159.96 82.5884 194.52 108.012 229.08 133.435C252.6 150.704 276.28 168.132 299.8 185.401C300.12 185.721 300.6 186.04 301.24 186.52C297.4 186.52 294.2 186.84 291 184.441C237.56 145.107 184.12 105.773 130.68 66.599C90.3597 36.8585 50.0397 7.27799 9.55969 -22.4624C-1.48031 -30.6171 -12.3603 -38.7717 -23.4003 -46.7665C-23.8803 -47.0863 -24.2003 -47.7258 -25.0003 -47.5659V-52.043Z" fill="#060606"/>
<path d="M172.92 186.52C171.64 186.52 170.52 186.52 169.24 186.52C167.8 186.68 166.52 186.04 165.4 185.241C157.56 179.005 149.88 172.769 142.2 166.373C131.64 157.579 121.08 148.945 110.36 140.31C97.3997 129.757 84.5997 118.725 71.7997 107.852C54.6797 93.1415 37.7197 78.2712 20.4397 63.5609C5.39969 50.7693 -9.80031 37.9778 -24.3603 24.7065C-24.6803 24.3867 -25.0003 24.2268 -25.3203 24.0669C-25.3203 23.1075 -25.3203 21.9883 -25.3203 21.0289C-24.6803 20.2295 -24.5203 21.1887 -24.0403 21.3486C-23.2403 21.6684 -22.9203 22.7878 -21.8003 22.6279C-21.6403 23.5872 -20.8403 24.0669 -19.8803 24.2268C-20.2003 24.7065 -19.8803 24.8663 -19.4003 24.5465C-19.2403 25.346 -18.7603 25.8257 -17.8003 25.6658C-17.9603 26.6252 -17.3203 26.6252 -16.6803 26.7851C-16.6803 27.1049 -16.6803 27.1049 -16.2003 27.1049C-16.0403 27.2648 -15.8803 27.5845 -15.7203 27.7444C-3.24031 37.9777 8.91969 48.3709 21.2397 58.7641C39.9597 74.2738 58.1997 90.2634 76.5997 106.253C94.3597 121.763 112.6 136.473 130.84 151.503C144.76 163.175 158.84 174.688 172.92 186.2V186.52Z" fill="#060606"/>
<path d="M104.28 164.135C109.72 168.772 115.32 173.409 120.76 178.205C123.96 180.924 127 183.642 130.36 186.52C127 186.68 124.44 186.68 121.72 184.281C111.16 175.167 100.44 166.373 89.7197 157.419C74.5197 144.468 59.1597 131.996 44.1197 118.725C31.9597 108.012 19.6397 97.2988 7.63969 86.5858C-1.00031 78.9109 -9.32031 71.076 -17.8003 63.4011C-20.2003 61.3224 -22.6003 59.2438 -25.0003 57.1651C-25.0003 56.2058 -25.0003 55.0865 -25.0003 54.1271C-22.9203 55.0865 -21.1603 56.6854 -19.2403 58.1245C-11.2403 64.3604 -3.88031 71.3957 3.79969 78.1113C14.5197 87.3852 25.0797 96.6591 35.7997 105.933C40.5997 110.09 45.3997 114.248 50.1997 118.405C50.6797 119.204 51.3197 119.684 52.1197 120.004C53.5597 121.763 55.4797 123.042 57.2397 124.641C68.5997 134.234 79.7997 143.828 91.3197 153.422C95.6397 157.099 99.9597 160.777 104.44 164.135H104.28Z" fill="#060606"/>
<path d="M-25.0003 17.3513C-24.5203 16.8716 -24.3603 17.3514 -24.0403 17.5113C-11.5603 26.945 1.07969 36.219 13.3997 45.8127C30.1997 58.924 46.3597 73.1546 62.8397 86.7457C88.1197 107.692 113.72 128.478 138.52 150.064C152.28 162.056 166.04 173.888 180.12 185.401C180.44 185.721 180.76 185.88 181.4 186.52C179.32 186.52 177.72 187 176.12 186.04C175.64 185.561 175.16 185.081 174.68 184.601C167 178.046 159.16 171.81 151.48 165.094C131 147.186 110.36 129.438 89.2397 112.169C75.7997 101.136 62.3597 90.2634 49.2397 79.0707C28.4397 61.3224 7.31969 44.2136 -14.4403 27.7445C-14.9203 27.4247 -15.2403 26.6253 -16.0403 27.1049C-16.0403 27.1049 -15.7203 26.7852 -16.0403 26.6253C-16.0403 26.6253 -16.3603 26.6253 -16.5203 26.6253C-16.5203 25.8258 -17.1603 25.6659 -17.6403 25.506C-17.9603 24.8664 -18.4403 24.3867 -19.2403 24.3867C-19.2403 24.0669 -19.2403 23.907 -19.7203 23.907C-20.2003 23.1076 -20.8403 22.6279 -21.6403 22.3081C-22.6003 21.0289 -23.8803 20.2294 -25.1603 19.2701V17.0316L-25.0003 17.3513Z" fill="#090909"/>
<path d="M-25.0003 19.5899C-23.7203 20.5492 -22.4403 21.3487 -21.4803 22.6279C-22.6003 22.7878 -22.9203 21.6685 -23.7203 21.3487C-24.2003 21.3487 -24.3603 20.2295 -25.0003 21.029V19.43V19.5899Z" fill="#CCC6C6"/>
<path d="M-16.2003 27.2648C-15.4003 26.7851 -14.9203 27.5846 -14.6003 27.9044C7.15969 44.3736 28.4397 61.4823 49.0797 79.2306C62.1997 90.4232 75.7997 101.296 89.0797 112.329C110.2 129.597 130.84 147.346 151.32 165.254C159 171.97 166.84 178.205 174.52 184.761C175 185.241 175.48 185.721 175.96 186.2C175 187.16 173.88 186.52 172.76 186.52C158.68 175.008 144.6 163.495 130.68 151.823C112.6 136.793 94.1997 121.923 76.4397 106.573C58.0397 90.5832 39.7997 74.5937 21.0797 59.0839C8.75969 48.8506 -3.40031 38.2975 -15.8803 28.0642C-16.0403 27.9044 -16.2003 27.5846 -16.3603 27.4247L-16.2003 27.2648Z" fill="#CCC6C6"/>
<path d="M79.4797 94.7404C78.3597 93.4613 77.0797 92.0222 75.9597 90.7431C75.3197 89.9436 74.8397 89.1442 75.3197 88.1848C75.9597 87.0655 76.9197 87.0655 78.0397 87.3853C82.9997 88.3447 88.1197 88.6645 93.2397 89.4639C94.9997 89.6238 94.9997 88.9842 94.6797 87.705C93.5597 82.4285 92.5997 77.3119 91.4797 72.0354C91.3197 70.9161 91.1597 69.7969 91.1597 68.6776C91.1597 66.9188 92.5997 66.1193 94.0397 67.0787C98.5197 70.1167 102.84 73.3146 106.2 77.4718C107.96 79.5505 108.28 82.5884 109.08 85.3066C110.84 91.0628 112.44 96.8191 114.04 102.575C114.68 104.974 114.04 105.773 111.48 105.453C103.32 104.174 94.8397 103.854 86.9997 100.657C86.5197 100.497 85.8797 100.657 85.2397 100.657C83.1597 98.8977 81.2397 96.979 79.1597 95.2201L79.4797 94.7404ZM110.2 98.8977C110.36 98.2581 110.2 97.6186 109.88 97.1389C108.6 92.342 107 87.5452 106.2 82.7483C105.56 79.0708 104.12 76.8322 100.92 75.2333C98.6797 74.114 96.7597 72.3552 94.3597 70.5964C95.6397 76.9922 96.7597 82.9082 98.0397 88.8243C98.6797 91.8623 98.0397 92.6618 94.8397 92.5019C91.7997 92.5019 88.9197 92.0223 85.8797 91.8624C84.1197 91.5426 82.3597 91.3826 79.9597 90.9029C82.0397 92.8217 83.7997 94.5806 85.3997 96.1795C86.8397 97.6186 88.2797 98.5779 90.5197 99.0576C96.5997 100.337 102.84 101.296 108.92 101.936C111 102.096 111 102.096 110.36 100.017C110.36 99.6972 110.36 99.2175 110.04 99.2175L110.2 98.8977Z" fill="#060809"/>
<path d="M125.56 133.275C125.08 132.635 124.44 131.996 123.96 131.516C123.48 130.877 123.16 130.237 123.64 129.597C123.96 128.958 124.6 128.958 125.24 128.958C131.48 128.638 137.88 129.597 144.12 128.958C145.88 128.798 145.4 127.679 145.24 126.879C144.12 119.684 143.32 112.649 143.16 105.453C143.16 104.974 143.16 104.494 143.16 104.174C143.32 102.415 144.44 101.776 145.88 103.055C147.16 104.014 148.28 105.134 149.4 106.253C152.92 109.451 155.32 113.288 156.44 118.085C158.2 125.28 160.44 132.476 162.52 139.511C163.32 142.229 162.68 142.869 159.96 143.348C153.88 144.148 147.64 143.348 141.56 142.709C141.24 142.709 140.76 142.709 140.44 142.709C137.56 142.709 135 141.909 132.76 139.671C131.64 138.552 130.2 137.592 128.76 136.633C128.44 136.473 128.28 136.153 127.96 135.993C127.64 135.354 127.16 135.034 126.52 134.714C126.04 134.394 125.72 134.075 125.24 133.755L125.56 133.275ZM132.6 131.676C131.48 131.196 130.2 131.356 129.08 131.356C130.84 133.115 132.6 134.714 133.88 136.633C135 138.232 136.44 138.711 138.36 138.871C144.92 139.351 151.48 140.31 158.2 140.151C159.64 140.151 160.28 139.831 159.32 138.392C159.32 137.912 159.32 137.592 159 137.113C156.76 128.958 154.04 120.803 152.76 112.329C152.76 112.009 152.76 111.689 152.44 111.529C150.04 109.771 147.8 107.852 145.4 106.093C144.76 107.052 145.4 107.852 145.4 108.491C146.2 114.887 146.84 121.283 147.96 127.519C148.6 130.557 147.8 131.516 144.6 131.676C140.44 131.836 136.44 131.676 132.28 131.676H132.6Z" fill="#07090A"/>
<path d="M104.28 164.135C99.6397 160.777 95.4797 156.939 91.1597 153.422C79.7997 143.828 68.4397 134.234 57.0797 124.641C55.3197 123.202 53.3997 121.922 51.9597 120.004C53.5597 119.684 54.1997 121.123 55.1597 121.763C66.0397 130.557 76.7597 139.351 87.6397 148.145C93.0797 152.462 98.1997 157.259 103.16 162.056C103.64 162.536 104.44 163.015 104.28 163.975V164.135Z" fill="#D0CACA"/>
<path d="M72.1197 117.925C72.1197 121.123 70.3597 123.042 67.7997 123.042C64.4397 123.042 61.3997 120.004 61.3997 116.646C61.3997 114.248 63.3197 111.369 64.9197 111.689C66.6797 112.009 68.5997 110.41 70.1997 112.489C71.6397 114.247 71.9597 116.326 72.1197 117.925ZM68.5997 118.245C68.5997 115.367 67.4797 113.928 65.5597 113.928C64.1197 113.928 64.2797 115.047 64.2797 115.846C64.1197 117.605 65.7197 119.524 67.3197 119.524C68.4397 119.524 68.5997 118.884 68.5997 118.245Z" fill="#090909"/>
<path d="M110.68 150.544C110.68 151.343 110.68 152.143 110.36 153.102C109.56 155.98 107.16 157.259 104.28 156.3C100.76 155.021 98.6797 150.384 99.9597 147.026C100.76 145.267 102.2 144.308 103.96 143.828C104.44 143.828 105.08 143.828 105.24 143.988C105.24 145.907 106.84 144.947 107.8 145.267C109.56 145.587 110.68 147.666 110.68 150.704V150.544ZM107.48 150.064C107.96 148.145 106.2 147.026 105.72 145.427C105.72 145.107 105.24 145.427 104.92 145.427C102.36 146.227 101.56 148.625 103 151.183C103.8 152.462 104.6 153.742 106.2 153.262C107.8 152.782 107.32 151.183 107.48 150.064Z" fill="#0B0B0B"/>
<path d="M132.76 176.926C132.76 173.569 135 171.49 138.04 171.81C138.84 171.81 139.64 171.81 139.96 172.769C140.12 173.409 140.44 173.249 140.92 173.249C142.52 173.249 143.16 174.048 143.32 175.327C143.64 177.086 143.32 178.845 142.68 180.604C141.08 183.802 136.92 184.282 134.36 181.403C133.24 180.124 132.76 178.685 132.76 177.086V176.926ZM138.68 173.569C136.44 173.569 135.64 174.208 135.48 176.287C135.48 178.365 136.6 179.964 138.2 180.124C139.64 180.124 140.44 179.165 140.44 176.127C140.44 175.168 140.92 173.249 138.84 173.569H138.68Z" fill="#0B0B0B"/>
<path d="M236.12 186.52C235.8 183.162 235.64 179.645 235.8 176.127C235.8 174.368 236.6 173.888 237.88 174.848C242.2 178.205 246.36 181.723 249.56 186.36C248.12 186.36 246.68 186.36 245.24 186.36C243.16 183.482 240.6 180.764 238.04 177.726C238.36 180.924 238.68 183.642 238.84 186.36C237.88 186.36 237.08 186.36 236.12 186.36V186.52Z" fill="#070A0B"/>
<path d="M32.1197 83.5478C32.1197 85.9462 30.5197 87.705 28.2797 87.705C25.7197 87.705 23.1597 85.1468 23.1597 82.5884C23.1597 80.5098 24.9197 78.2712 26.6797 78.4311C30.8397 78.591 32.1197 79.8702 32.1197 83.5478ZM26.0397 82.1087C26.0397 83.3878 26.9997 84.0275 28.1197 84.3472C28.9197 84.3472 28.7597 83.7076 28.7597 83.228C28.7597 81.9488 28.2797 80.8295 27.1597 80.5097C26.5197 80.3498 26.3597 81.4691 26.1997 82.1087H26.0397Z" fill="#090909"/>
<path d="M-4.84031 53.3276C-4.84031 55.0864 -5.48031 56.5255 -7.24031 57.1651C-9.16031 57.8047 -10.7603 57.1651 -12.2003 55.886C-13.4803 54.6068 -13.8003 53.1677 -13.0003 51.5688C-12.5203 50.4495 -11.8803 49.4902 -10.4403 49.81C-9.96031 49.81 -9.80031 49.65 -9.48031 49.3302C-7.56031 47.8912 -6.12031 48.3709 -5.32031 50.6095C-5.00031 51.4089 -4.84031 52.3683 -4.84031 53.1677V53.3276ZM-8.20031 53.1677C-8.20031 51.7287 -9.00031 51.249 -10.1203 51.249C-11.0803 51.249 -11.0803 52.0485 -11.0803 52.6881C-11.0803 53.8073 -10.2803 54.287 -9.16031 54.4469C-8.20031 54.4469 -8.20031 53.8073 -8.20031 53.1677Z" fill="#0B0B0B"/>
<path d="M238.84 186.52C238.52 183.802 238.36 181.084 238.04 177.886C240.76 180.924 243.16 183.642 245.24 186.52C243.16 186.52 240.92 186.52 238.84 186.52Z" fill="#0BB8EB"/>
<path d="M50.1997 118.405C50.6797 119.204 51.3197 119.684 52.1197 120.004C51.9597 118.725 51.3197 118.405 50.1997 118.405Z" fill="#D0CACA"/>
<path d="M126.84 134.394C127.48 134.714 127.96 135.034 128.28 135.673C127.32 135.673 126.68 135.673 126.84 134.394Z" fill="#D0CACA"/>
<path d="M209.88 185.081C201.72 184.441 193.88 182.043 186.04 179.485C183.32 178.525 181.08 177.086 179 175.167C175.32 171.49 171.64 167.972 168.12 164.135C167.64 163.655 167.32 163.175 166.84 162.696C166.2 161.896 165.56 161.097 166.2 160.137C166.84 159.018 167.96 159.338 168.92 159.658C172.28 160.617 175.64 161.576 179 162.376C182.36 163.175 185.72 163.815 189.08 164.454C190.2 164.614 190.68 164.454 190.36 163.175C189.08 156.14 187.8 148.945 186.68 141.909C186.52 140.63 186.36 139.191 186.52 137.912C186.52 136.473 187.8 135.673 189.08 136.473C193.56 139.511 197.88 142.709 201.56 146.546C205.4 150.384 205.88 155.66 207.48 160.457C209.72 167.333 211.64 174.368 213.72 181.243C214.68 184.281 214.04 185.081 210.84 185.241C210.52 185.241 210.04 185.241 209.72 185.241L209.88 185.081ZM175.32 164.295C174.04 163.975 172.76 163.495 170.84 163.015C174.84 167.493 178.68 171.33 182.68 175.167C183 175.487 183.48 175.647 183.96 175.807C188.28 177.246 192.44 178.845 196.92 179.964C201.4 181.084 206.04 182.203 210.84 182.363C210.84 181.723 210.84 181.084 210.36 180.604C208.76 175.008 207.16 169.411 205.56 163.815C204.6 160.617 203.48 157.419 203 154.221C202.36 150.384 200.92 147.186 197.24 145.267C195 144.148 193.08 142.549 191 141.11C190.52 140.79 190.2 140.31 189.4 140.47C189.72 144.468 190.52 148.465 191.16 152.303C191.8 156.14 192.6 160.137 193.24 163.975C193.72 166.533 192.92 167.333 190.36 167.173C189.24 167.173 188.12 167.013 187.16 166.853C183.16 166.053 179.16 165.254 175.16 164.454L175.32 164.295Z" fill="#080909"/>
<path d="M11.7997 25.6658C4.91969 25.0263 -2.12031 23.907 -9.00031 21.6685C-11.2403 21.0289 -13.1603 19.7498 -14.9203 18.3108C-17.4803 16.0722 -20.0403 13.9935 -22.4403 11.755C-23.2403 11.1154 -24.2003 10.1561 -23.7203 9.03687C-23.0803 7.75771 -21.8003 7.91759 -20.6803 7.91759C-16.3603 8.23738 -12.2003 8.71706 -7.88031 8.71706C-5.48031 8.71706 -5.48031 8.71703 -6.28031 6.4785C-8.52031 1.04208 -10.9203 -4.23443 -12.0403 -9.99064C-12.2003 -10.95 -12.6803 -12.0693 -11.5603 -12.8687C-10.4403 -13.6682 -9.64031 -12.8687 -8.84031 -12.3891C-4.52031 -9.51096 -0.200312 -6.95262 3.63969 -3.27504C4.11969 -2.79536 4.43969 -2.47559 4.59969 -1.9959C8.43969 5.83894 11.6397 13.9936 14.8397 21.9883C15.9597 24.5466 14.8397 25.6659 11.7997 25.506L11.7997 25.6658ZM11.7997 21.8285C8.75969 13.9936 5.39969 6.31865 2.83969 -1.67609C2.83969 -1.99588 2.51969 -2.31567 2.35969 -2.47557C-1.32031 -4.71409 -5.00031 -6.79274 -9.00031 -9.19117C-8.84031 -8.2318 -8.68031 -7.75214 -8.52031 -7.11256C-7.08031 -1.99593 -4.84031 2.96085 -2.92031 7.91759C-1.96031 10.316 -2.44031 10.9556 -5.00031 11.2753C-8.52031 11.755 -11.8803 11.2753 -15.4003 11.2753C-16.6803 11.2753 -18.1203 10.9556 -19.4003 10.7957C-17.3203 13.0342 -15.2403 14.9529 -13.0003 16.8717C-11.2403 18.4706 -9.16031 19.2701 -6.92031 19.9097C-1.16031 21.5086 4.59969 22.6279 10.5197 22.9476C11.1597 22.9476 12.9197 23.5872 11.6397 21.6685L11.7997 21.8285Z" fill="#070A0B"/>
<path d="M42.6797 46.4522C41.3997 42.135 40.2797 37.8178 39.7997 33.3407C39.6397 31.9017 39.4797 30.4627 39.7997 29.0237C39.7997 27.5846 40.9197 26.9449 42.1997 27.7444C45.0797 29.5033 47.6397 31.5819 49.8797 33.9803C51.9597 36.2189 53.2397 39.097 54.1997 41.9751C56.4397 48.3709 58.8397 54.7667 61.2397 61.1625C62.0397 63.2411 61.2397 64.2005 59.1597 64.2005C57.2397 64.2005 55.3197 63.5609 53.5597 63.0812C47.7997 61.3224 42.0397 59.5635 36.2797 57.4849C34.8397 56.8453 33.5597 56.2057 32.4397 54.7667C31.1597 53.1677 29.3997 51.8886 27.9597 50.2896C27.1597 49.6501 26.5197 48.8505 25.8797 48.0511C25.3997 47.4115 24.9197 46.7719 25.3997 45.9725C25.8797 45.173 26.6797 45.1729 27.4797 45.3328C30.1997 45.6526 32.7597 45.9725 35.4797 46.2923C37.8797 46.6121 40.2797 46.612 42.8397 46.4521L42.6797 46.4522ZM32.9197 48.6907C31.7997 48.5308 30.5197 48.211 28.9197 47.8912C30.8397 49.81 32.4397 51.4089 34.0397 53.1677C34.5197 53.6474 34.9997 53.9672 35.6397 54.1271C40.9197 55.8859 46.0397 57.8047 51.3197 59.4037C53.3997 60.0432 55.6397 60.8427 58.0397 61.0026C57.7197 60.2031 57.3997 59.7234 57.0797 59.2437C57.0797 59.0838 57.0797 58.924 57.0797 58.6042C54.3597 51.0891 51.4797 43.4141 49.7197 35.5793C49.7197 35.2595 49.7197 35.0996 49.3997 34.9397C46.6797 33.8204 44.5997 31.7418 41.8797 30.3028C42.3597 35.4194 43.3197 40.0564 44.7597 44.6933C45.7197 47.8912 45.0797 48.6907 41.5597 49.0105C38.6797 49.0105 35.6397 48.6906 32.7597 48.5307L32.9197 48.6907Z" fill="#07090A"/>
<path d="M-21.4803 22.6279C-20.6803 22.9477 -20.0403 23.4274 -19.5603 24.2269C-20.6803 24.2269 -21.3203 23.7472 -21.4803 22.6279Z" fill="#CCC6C6"/>
<path d="M-19.2403 24.5466C-18.4403 24.5466 -17.9603 25.1862 -17.6403 25.6658C-18.6003 25.6658 -19.0803 25.346 -19.2403 24.5466Z" fill="#CCC6C6"/>
<path d="M-17.6403 25.6658C-17.1603 25.9856 -16.3603 25.9856 -16.5203 26.7851C-17.1603 26.6252 -17.9603 26.6252 -17.6403 25.6658Z" fill="#CCC6C6"/>
<path d="M-19.5603 24.2269C-19.2403 24.2269 -19.0803 24.2268 -19.0803 24.7065C-19.5603 24.8664 -19.7203 24.7065 -19.5603 24.2269Z" fill="#CCC6C6"/>
<path d="M-16.5203 26.945C-16.5203 26.945 -16.2003 26.945 -16.0403 26.945C-15.7203 26.945 -16.0403 27.2649 -16.0403 27.4248C-16.3603 27.4248 -16.5203 27.4247 -16.5203 26.945Z" fill="#CCC6C6"/>
<path d="M85.8797 91.5425C88.9197 91.8623 91.7997 92.1821 94.8397 92.1821C98.0397 92.1821 98.6797 91.5425 98.0397 88.5045C96.9197 82.5884 95.6397 76.6723 94.3597 70.2765C96.7597 72.0354 98.6797 73.7942 100.92 74.9134C104.12 76.6723 105.56 78.9108 106.2 82.4285C107 87.2253 108.6 92.0222 109.88 96.819C110.04 97.4586 110.36 97.9383 110.2 98.7378C106.04 97.6185 101.56 97.7784 97.2397 96.819C92.9197 96.0195 88.5997 95.5399 85.8797 91.3827V91.5425Z" fill="#0BB8EB"/>
<path d="M85.8797 91.5425C88.5997 95.6998 92.9197 96.1795 97.2397 96.979C101.56 97.7784 105.88 97.7784 110.2 98.8977C109.88 99.3774 110.2 99.5372 110.52 99.6971C111.16 101.776 111.16 101.776 109.08 101.616C102.84 100.976 96.7597 100.017 90.6797 98.7378C88.4397 98.2581 86.9997 97.2988 85.5597 95.8597C83.7997 94.2607 82.1997 92.6618 80.1197 90.5832C82.5197 90.903 84.2797 91.2227 86.0397 91.5425H85.8797Z" fill="#F4F7F8"/>
<path d="M110.52 99.6971C110.36 99.5372 109.88 99.3774 110.2 98.8977C110.68 98.8977 110.52 99.3773 110.52 99.6971Z" fill="#0BB8EB"/>
<path d="M132.6 131.676C136.76 131.836 140.76 131.836 144.92 131.676C148.12 131.676 148.92 130.557 148.28 127.519C147 121.283 146.52 114.727 145.72 108.491C145.72 107.692 144.92 107.052 145.72 106.093C148.12 107.852 150.52 109.771 152.76 111.529C152.92 111.529 153.08 112.009 153.08 112.329C154.36 120.803 157.08 128.798 159.32 137.113C159.32 137.592 159.48 137.912 159.64 138.392C155.48 136.153 151 136.153 146.52 136.153C141.56 136.153 136.28 136.793 132.92 131.676L132.6 131.676Z" fill="#0BB8EB"/>
<path d="M132.6 131.676C135.96 136.793 141.24 136.153 146.2 136.153C150.68 136.153 155.16 136.153 159.32 138.392C160.28 139.831 159.64 140.151 158.2 140.151C151.48 140.31 144.92 139.351 138.36 138.871C136.44 138.871 135.16 138.072 133.88 136.633C132.44 134.714 130.68 133.115 129.08 131.356C130.2 131.356 131.48 131.356 132.6 131.676Z" fill="#F4F7F8"/>
<path d="M68.5997 118.245C68.5997 118.884 68.4397 119.684 67.3197 119.524C65.7197 119.524 63.9597 117.445 64.2797 115.846C64.2797 115.047 64.2797 113.928 65.5597 113.928C67.6397 113.928 68.7597 115.367 68.5997 118.245Z" fill="#F4F7F8"/>
<path d="M107.48 150.064C107.32 151.183 107.8 152.942 106.2 153.262C104.6 153.742 103.64 152.462 103 151.183C101.56 148.785 102.36 146.227 104.92 145.427C105.24 145.427 105.72 145.107 105.72 145.427C106.2 147.026 107.96 148.145 107.48 150.064Z" fill="#FEFEFE"/>
<path d="M138.68 173.569C140.92 173.249 140.28 175.008 140.28 176.127C140.28 179.005 139.48 180.124 138.04 180.124C136.44 180.124 135.32 178.365 135.32 176.287C135.32 174.368 136.28 173.568 138.52 173.568L138.68 173.569Z" fill="#F4F7F8"/>
<path d="M26.0397 82.1087C26.0397 81.4691 26.3597 80.3499 26.9997 80.5098C28.1197 80.8296 28.7597 81.9488 28.5997 83.228C28.5997 83.7077 28.5997 84.5072 27.9597 84.3473C26.8397 84.1874 26.0397 83.3879 25.8797 82.1087L26.0397 82.1087Z" fill="#F4F7F8"/>
<path d="M-8.20031 53.1677C-8.20031 53.8073 -8.20031 54.4469 -9.16031 54.4469C-10.1203 54.4469 -10.9203 53.8073 -11.0803 52.6881C-11.0803 52.0485 -11.0803 51.249 -10.1203 51.249C-9.00031 51.249 -8.04031 51.8886 -8.20031 53.1677Z" fill="#F4F7F8"/>
<path d="M175.32 164.295C179.32 165.094 183.32 165.894 187.32 166.693C188.44 166.853 189.4 167.013 190.52 167.013C193.08 167.013 193.88 166.373 193.4 163.815C192.76 159.978 191.96 155.98 191.32 152.143C190.68 148.145 189.72 144.308 189.56 140.31C190.36 140.151 190.68 140.63 191.16 140.95C193.24 142.389 195.16 143.988 197.4 145.107C201.24 147.026 202.52 150.064 203.16 154.061C203.8 157.259 204.92 160.457 205.72 163.655C207.32 169.251 208.92 174.848 210.52 180.444C208.92 179.964 207.32 179.645 205.72 179.165C199.64 177.086 193.56 175.008 187.16 174.208C186.36 174.208 185.72 173.728 185.24 173.089C182.2 169.891 178.84 167.013 175.48 164.295L175.32 164.295Z" fill="#0BB9EC"/>
<path d="M175.32 164.295C178.84 167.013 182.2 169.891 185.08 173.089C185.72 173.728 186.36 174.048 187 174.208C193.4 175.008 199.48 177.246 205.56 179.165C207.16 179.645 208.76 180.124 210.36 180.444C210.68 180.924 210.84 181.403 210.84 182.203C206.04 182.043 201.56 180.924 196.92 179.804C192.6 178.685 188.28 177.246 183.96 175.647C183.48 175.487 183 175.327 182.68 175.008C178.68 171.33 174.84 167.333 170.84 162.856C172.6 163.335 173.88 163.815 175.32 164.135L175.32 164.295Z" fill="#F4F7F8"/>
<path d="M-15.4003 11.2753C-11.8803 11.2753 -8.52031 11.755 -5.00031 11.2753C-2.44031 10.9556 -1.96031 10.316 -2.92031 7.91759C-4.84031 2.96085 -7.08031 -1.83603 -8.52031 -7.11256C-8.68031 -7.75214 -8.84031 -8.39169 -9.00031 -9.19117C-5.00031 -6.79274 -1.32031 -4.71409 2.35969 -2.47557C2.51969 -2.47557 2.83969 -1.99588 2.83969 -1.67609C5.39969 6.31865 8.75969 13.9936 11.7997 21.8285C9.71969 21.1889 7.79969 20.0696 5.55969 19.9097C1.07969 19.5899 -3.08031 18.3107 -7.40031 17.1914C-8.52031 16.8717 -9.48031 16.5518 -10.2803 15.7523C-12.0403 14.1534 -13.8003 12.7144 -15.5603 11.2753L-15.4003 11.2753Z" fill="#0BB8EB"/>
<path d="M-15.4003 11.2753C-13.6403 12.7144 -11.8803 14.3133 -10.1203 15.7523C-9.32031 16.5518 -8.36031 16.8717 -7.24031 17.1914C-2.92031 18.3107 1.23969 19.5899 5.71969 19.9097C7.95969 19.9097 9.87968 21.1889 11.9597 21.8284C13.0797 23.7472 11.4797 23.1076 10.8397 23.1076C4.91969 22.6279 -0.840311 21.5086 -6.60031 20.0695C-9.00031 19.43 -10.9203 18.4706 -12.6803 17.0316C-14.9203 15.1128 -17.0003 13.3539 -19.0803 10.9555C-17.8003 10.9555 -16.3603 11.2754 -15.0803 11.4353L-15.4003 11.2753Z" fill="#F4F7F8"/>
<path d="M32.9197 48.6907C35.7997 48.6907 38.6797 49.3303 41.7197 49.1704C45.0797 49.0105 45.8797 48.0511 44.9197 44.8532C43.4797 40.2163 42.3597 35.5793 42.0397 30.4627C44.5997 32.0616 46.8397 33.9804 49.5597 35.0997C49.8797 35.0997 49.8797 35.4194 49.8797 35.7392C51.6397 43.574 54.5197 51.249 57.2397 58.7641C57.2397 58.924 57.2397 59.0839 57.2397 59.4037C52.2797 57.9646 47.7997 55.0865 42.6797 53.9672C38.8397 53.1678 35.9597 50.9293 33.0797 48.6907L32.9197 48.6907Z" fill="#0BB8EB"/>
<path d="M32.9197 48.6907C35.7997 50.9292 38.6797 53.1678 42.5197 53.9672C47.6397 55.0865 52.1197 57.9646 57.0797 59.4037C57.3997 59.8834 57.5597 60.363 58.0397 61.1625C55.4797 61.0026 53.3997 60.2031 51.3197 59.5636C46.0397 57.9646 40.9197 56.0459 35.6397 54.287C34.9997 54.1272 34.5197 53.8073 34.0397 53.3276C32.4397 51.7287 30.8397 50.1297 28.9197 48.0511C30.5197 48.3709 31.7997 48.5308 32.9197 48.8506V48.6907Z" fill="#F4F7F8"/>
</g>
<defs>
<filter id="filter0_d_2557_166124" x="0" y="0" width="185" height="185" filterUnits="userSpaceOnUse" color-interpolation-filters="sRGB">
<feFlood flood-opacity="0" result="BackgroundImageFix"/>
<feColorMatrix in="SourceAlpha" type="matrix" values="0 0 0 0 0 0 0 0 0 0 0 0 0 0 0 0 0 0 127 0" result="hardAlpha"/>
<feOffset dx="-5" dy="5"/>
<feComposite in2="hardAlpha" operator="out"/>
<feColorMatrix type="matrix" values="0 0 0 0 0 0 0 0 0 0 0 0 0 0 0 0 0 0 1 0"/>
<feBlend mode="normal" in2="BackgroundImageFix" result="effect1_dropShadow_2557_166124"/>
<feBlend mode="normal" in="SourceGraphic" in2="effect1_dropShadow_2557_166124" result="shape"/>
</filter>
</defs>
</svg>
