<svg width="219" height="185" viewBox="0 0 219 185" fill="none" xmlns="http://www.w3.org/2000/svg">
<g filter="url(#filter0_d_2819_17866)">
<circle cx="111" cy="90" r="90" fill="#0ABBEF"/>
</g>
<path d="M218.862 67.121C218.862 84.2574 218.862 101.394 218.862 118.392C218.862 118.945 216.376 122.814 214.718 122.814C151.716 122.814 88.5762 122.814 25.5747 122.814C19.9101 122.814 14.2454 122.814 8.71896 122.814C4.71228 122.814 1.53459 119.636 1.39643 115.766C0.843784 98.9062 0.84375 82.1844 0.84375 65.3244C0.84375 59.9347 1.25825 59.5202 6.64654 59.382C12.8638 59.1056 76.9706 58.691 85.9511 58.691C89.1288 58.9674 92.3065 58.691 95.6224 58.691C102.254 58.691 108.886 58.691 115.656 58.691C123.669 58.691 203.665 58.1382 211.264 58C212.783 58 213.75 58.5528 214.718 59.6584C216.237 61.4549 219.001 66.7064 219.001 67.3974L218.862 67.121ZM86.2275 118.668C88.5763 118.945 90.7869 118.668 93.1356 118.668C94.1027 118.668 95.0698 118.668 96.1751 118.668C129.334 118.668 162.493 118.668 195.789 118.668C201.454 118.668 206.981 118.668 212.645 118.668C214.395 118.76 215.27 117.977 215.27 116.319C215.27 100.15 215.27 83.8428 215.27 67.6738C215.27 66.5682 214.994 66.2918 213.889 66.1536C207.809 65.8772 201.592 65.8772 195.513 66.1536C188.605 66.43 181.559 66.2918 174.651 66.2918C149.644 66.2918 124.498 66.2918 99.491 66.2918C98.8002 66.2918 98.1094 66.2918 97.2804 66.2918C97.0041 66.2918 96.5895 66.2918 96.3132 66.2918C72.135 66.2918 47.8186 66.2918 23.6404 66.2918C19.081 66.2918 14.6599 66.2918 10.1006 66.2918C9.54793 66.8446 9.82424 67.5356 9.82424 68.0884C9.82424 84.2574 9.82424 100.426 9.82424 116.734C9.82424 117.01 9.82424 117.425 9.82424 117.701C9.82424 118.392 10.1006 118.668 10.7914 118.668C13.5546 118.668 16.4561 118.945 19.2193 118.807C28.0616 118.53 36.9039 118.668 45.7462 118.668C59.286 118.668 72.964 118.668 86.5038 118.668H86.2275ZM120.215 62.4223C144.67 62.4223 168.986 62.4223 193.441 62.4223C193.855 62.4223 194.27 62.4223 194.822 62.4223C195.513 62.4223 195.651 62.1459 195.789 61.4549C195.928 59.9348 194.961 60.073 193.993 60.073C177.69 60.073 161.387 60.3493 145.084 60.3493C132.235 60.3493 119.524 60.6257 106.675 60.6257C86.6419 60.7639 66.7467 60.9021 46.7133 61.0403C46.4369 61.0403 46.0225 61.0403 45.7462 61.0403C45.1935 61.0403 44.9173 61.0403 44.9173 61.7313C44.9173 62.2841 45.3317 62.2841 45.7462 62.2841C46.1607 62.2841 46.5752 62.2841 47.1278 62.2841C71.5824 62.2841 95.8988 62.2841 120.353 62.2841L120.215 62.4223ZM5.6794 119.221C5.6794 118.668 5.6794 118.392 5.6794 118.116C5.6794 100.703 5.6794 83.29 5.6794 65.8772C5.6794 64.4952 4.85045 64.0807 3.88332 63.5279C3.46883 64.0807 3.74514 64.6334 3.60698 65.1862C3.33065 82.0462 4.02146 98.9062 3.60698 115.766C3.60698 117.286 4.43598 118.116 5.54127 119.221H5.6794ZM6.50833 61.3167C6.50833 61.3167 6.50833 61.5931 6.50833 61.7313C6.78465 61.8695 7.06098 62.2841 7.19914 62.2841C10.515 62.2841 13.831 62.2841 17.285 62.2841C17.5613 62.2841 17.6994 62.0077 17.6994 61.7313C17.6994 61.3167 17.423 61.1785 17.0086 61.1785C13.5545 61.1785 9.96237 61.1785 6.50833 61.1785V61.3167ZM214.303 62.4223C213.474 60.6257 212.231 60.2111 210.573 60.073C209.882 60.073 209.744 60.2111 209.882 60.9021C209.882 61.8695 210.296 62.5605 211.402 62.4223C212.231 62.4223 213.198 62.4223 214.303 62.4223ZM199.382 62.2841C199.934 62.2841 201.04 62.8369 201.04 61.1785C201.04 59.9348 200.349 59.7966 199.52 59.9348C198.691 59.9348 197.586 59.382 197.586 61.0403C197.586 62.4223 198.414 62.2841 199.382 62.1459V62.2841ZM33.1735 62.4223C33.8643 62.4223 34.5552 62.4223 35.1078 62.4223C35.5223 62.4223 35.7986 62.2841 35.7986 61.7313C35.7986 61.3167 35.5223 61.1785 35.1078 61.1785C33.7262 61.1785 32.4827 61.1785 31.1011 61.1785C30.6866 61.1785 30.4103 61.3167 30.4103 61.7313C30.4103 62.2841 30.8248 62.2841 31.2392 62.2841C31.7919 62.2841 32.4828 62.2841 33.0354 62.2841L33.1735 62.4223ZM24.7457 62.4223C25.2984 62.4223 25.9891 62.4223 26.5417 62.4223C26.9562 62.4223 27.2325 62.4223 27.2325 61.8695C27.2325 61.4549 27.0943 61.3167 26.6799 61.3167C25.4364 61.3167 24.193 61.3167 22.9496 61.3167C22.5351 61.3167 22.2587 61.4549 22.3969 61.8695C22.3969 62.2841 22.6732 62.4223 23.0877 62.4223C23.6403 62.4223 24.3312 62.4223 24.8839 62.4223H24.7457ZM207.257 61.0403C207.257 60.3493 207.119 59.9348 206.151 59.9348C205.046 59.9348 205.184 60.6257 205.184 61.3167C205.184 62.1459 205.461 62.4223 206.29 62.4223C207.257 62.4223 207.257 61.7313 207.257 61.0403ZM40.496 62.4223C41.0486 62.4223 42.0159 62.6987 42.154 61.7313C42.154 60.6257 41.1869 61.1785 40.6343 61.1785C40.0816 61.1785 38.9763 60.6257 38.9763 61.8695C38.9763 62.8369 39.9433 62.2841 40.496 62.4223Z" fill="#050806"/>
<path d="M9.96424 66.4297C14.5236 66.4297 18.9448 66.4297 23.5041 66.4297C47.6824 66.4297 71.9987 66.4297 96.177 66.4297C96.4533 66.4297 96.8677 66.4297 97.144 66.4297C97.4204 68.0881 98.9402 67.6735 99.7691 67.6735C109.579 67.9499 119.388 68.6409 129.198 69.0555C134.448 69.3319 139.836 69.4701 145.086 69.8847C153.79 70.2992 162.356 70.9902 171.06 71.2666C180.041 71.543 188.883 71.543 197.864 71.6812C199.798 71.6812 201.594 71.9576 203.667 72.0958C202.009 74.4451 200.351 76.5181 199.245 78.7292C198.969 79.282 198.416 79.973 199.245 80.3876C199.936 80.8022 200.351 80.1112 200.627 79.5584C202.285 77.3473 203.943 75.1361 205.601 72.925C205.877 72.5104 206.153 71.9576 206.844 71.9576C208.226 71.9576 209.469 71.9576 211.127 71.9576C209.884 73.616 208.917 74.9979 207.95 76.3799C206.292 78.8674 204.357 81.0786 202.976 83.8425C202.699 84.3953 202.009 85.2245 202.699 85.7773C203.528 86.3301 203.943 85.5009 204.357 84.9481C205.877 83.2897 207.259 81.355 208.64 79.4202C209.469 78.1765 210.298 76.9327 211.265 75.6889C210.436 90.0614 211.956 104.296 212.509 118.53C206.844 118.806 201.318 118.53 195.653 118.53C162.494 118.53 129.336 118.53 96.0388 118.53C95.0717 118.53 94.1045 118.53 92.9992 118.53C91.2031 118.115 89.2689 118.53 87.3346 118.115C86.0912 118.115 84.8478 118.115 83.4662 117.977C76.0055 117.286 68.6828 116.872 61.2221 116.457C52.5179 116.042 43.952 115.628 35.2478 115.49C28.2016 115.49 21.2934 114.66 14.2472 115.766C13.4182 115.766 13.4183 115.766 13.2802 114.937C13.2802 114.246 13.5565 113.831 13.971 113.278C15.3526 111.344 16.7342 109.409 17.9777 107.474C18.3922 106.921 19.4975 106.092 18.5303 105.401C17.4251 104.71 17.1487 106.092 16.5961 106.645C15.4908 108.027 14.3855 109.547 13.142 111.067C12.4512 108.442 13.1419 106.645 14.2472 104.71C15.6288 102.637 16.8723 100.564 18.1158 98.3532C18.3921 97.9386 18.6684 97.524 18.1158 97.2476C17.7013 96.9712 17.2868 97.1094 16.8723 97.3858C16.1815 98.0768 15.629 98.906 15.0763 99.7351C14.2473 100.979 13.4183 102.223 12.5893 103.466C12.1749 96.142 11.2077 89.094 11.3459 81.9078C11.3459 78.591 11.3459 75.2743 10.9314 71.8194C10.7932 69.7465 10.9314 67.5353 9.27344 65.877L9.96424 66.4297ZM112.342 100.979C112.618 101.532 112.756 101.808 112.894 102.084C114.691 104.71 116.349 107.336 118.145 109.962C119.664 112.035 120.355 112.035 122.704 111.344C123.809 111.067 124.776 110.791 125.882 110.514C129.059 109.547 130.026 107.06 128.23 104.434C125.882 100.703 123.533 96.9712 121.184 93.2399C120.631 92.2725 120.079 91.4433 120.77 90.1996C122.842 86.6065 124.086 82.8751 125.191 78.8674C126.02 75.9653 125.743 76.2417 123.257 74.8597C121.184 73.7542 119.112 73.8924 117.039 73.7542C115.934 73.7542 115.381 74.1688 115.105 75.2743C114.552 77.4855 113.585 79.5584 112.756 81.6314C112.342 82.5988 111.927 82.4606 111.237 81.7696C109.164 79.5584 106.539 77.9001 104.19 76.1035C102.809 75.1361 101.289 74.8597 99.7691 75.4125C98.3875 75.9653 97.4204 77.2091 96.4532 78.3147C95.0716 79.8348 95.0716 80.3876 96.4532 82.046C99.0783 85.0863 101.289 88.403 103.5 91.8579C104.052 92.6871 104.052 93.3781 103.5 94.2073C101.98 96.6948 100.598 99.1824 99.2164 101.808C98.1112 103.881 97.1441 105.954 96.7296 108.303C96.4533 109.547 96.7296 110.238 98.1113 110.376C99.631 110.514 101.151 111.067 102.67 111.482C105.019 112.173 106.954 111.482 108.335 109.409C109.993 106.921 111.375 104.296 112.342 101.117V100.979ZM44.3665 91.5815C44.9191 91.0287 45.4717 90.6142 46.0243 90.0614C47.8204 88.1266 48.9257 85.9155 48.6494 83.1515C48.2349 78.4529 44.9191 75.1361 40.2216 74.1688C34.4188 73.0632 28.7543 72.234 22.8133 73.616C21.4317 73.8924 20.879 74.3069 20.879 75.6889C20.879 84.2571 20.8791 92.9635 21.2936 101.532C21.4317 104.987 21.2935 108.442 21.5698 111.896C21.5698 113.14 21.9842 113.417 23.2277 113.417C31.1029 113.831 38.5636 111.758 46.0243 110.376C50.031 109.685 52.1034 106.23 51.5508 102.223C50.9981 97.3858 48.5113 93.9309 44.3665 91.4433V91.5815ZM202.837 108.856C202.837 108.856 202.838 108.856 202.699 108.856C202.699 106.645 202.699 104.296 202.699 102.084C202.699 101.255 202.423 100.979 201.594 100.979C200.074 100.979 198.555 100.979 197.173 100.979C196.344 100.979 196.068 100.703 195.929 99.8733C195.929 97.524 195.653 95.0365 195.377 92.6871C194.824 86.7447 193.581 80.9404 191.094 75.5507C190.679 74.5833 189.988 74.0306 188.883 73.8924C186.396 73.4778 183.909 73.8924 181.561 74.3069C178.107 74.7215 177.554 75.1361 176.863 78.5911C175.205 86.6065 173.409 94.4837 172.166 102.499C172.028 103.743 171.475 104.296 170.231 104.157C168.435 104.019 166.639 104.019 164.981 103.881C163.185 103.743 162.771 104.157 162.356 105.816C161.942 108.027 162.356 110.238 162.633 112.587C162.633 113.555 163.323 113.969 164.291 114.108C165.672 114.108 166.916 114.246 168.297 114.384C170.784 114.522 171.06 114.384 171.06 111.758C171.06 110.929 171.06 110.376 172.166 110.376C179.765 109.824 187.502 109.685 195.1 110.1C195.653 110.1 196.068 110.238 195.929 110.929C195.653 112.864 196.759 113.002 198.14 112.864C198.831 112.864 199.522 112.864 200.074 112.587C201.041 112.311 202.423 113.002 202.837 112.173C203.252 111.344 202.837 110.1 202.837 109.133V108.856ZM53.7615 95.0365C53.7615 100.564 53.4851 105.539 54.1759 110.653C54.4522 112.864 54.8667 113.417 57.0772 113.278C60.6694 113.278 64.3998 113.14 67.992 112.864C70.3408 112.726 72.5514 112.449 74.762 111.344C78.216 109.547 81.9463 103.881 79.7357 99.0442C77.387 94.0691 73.2421 91.8579 67.992 91.167C66.8867 91.167 66.4723 90.7524 66.4723 89.6468C66.196 85.5009 65.7815 81.2168 65.5052 77.0709C65.5052 75.6889 64.8143 74.8597 63.2945 74.9979C63.0182 74.9979 62.88 74.9979 62.6037 74.9979C60.2549 73.7542 57.7681 74.0306 55.4194 74.3069C53.8996 74.4451 53.3469 75.1361 53.4851 76.6563C53.7614 82.8752 54.0378 89.094 53.8996 95.0365H53.7615ZM131.546 95.7274C131.546 96.0038 131.546 96.6948 131.546 97.3858C132.237 105.401 141.079 114.66 152.27 109.133C152.961 108.856 153.514 108.58 154.205 108.303C157.106 107.474 159.317 105.954 160.698 103.328C162.356 100.288 163.462 97.1094 163.6 93.6545C164.014 87.9884 161.942 81.6314 155.724 78.5911C153.79 77.6237 151.856 77.0709 149.784 76.7945C146.191 76.5181 142.599 76.7945 139.698 79.1438C134.586 83.2897 131.684 88.6794 131.546 95.7274ZM80.9792 91.7197H81.5319C81.5319 96.2802 81.5319 100.703 81.5319 105.263C81.5319 110.376 81.9463 110.791 87.1965 110.653C88.1636 110.653 88.8544 110.376 89.2689 109.409C89.2689 109.133 89.2689 108.718 89.9597 108.718C92.1703 108.718 92.9993 107.889 92.7229 105.816C92.0321 98.7678 92.4466 91.5815 91.3413 84.5335C90.9268 81.355 91.3413 77.9001 87.8873 75.4125C86.3675 74.307 85.1241 74.0306 83.6043 74.0306C81.6701 74.0306 80.703 75.1361 80.703 77.0709C80.703 82.046 80.703 87.0211 80.703 91.8579L80.9792 91.7197Z" fill="#75B62A"/>
<path d="M212.646 118.668C212.093 104.434 210.574 90.1998 211.403 75.8273C210.574 77.0711 209.745 78.3149 208.777 79.5586C207.396 81.4934 206.152 83.2899 204.494 85.0865C204.08 85.6393 203.527 86.4685 202.836 85.9157C202.146 85.3629 202.836 84.5337 203.113 83.9809C204.494 81.3552 206.429 79.0059 208.087 76.5183C209.054 75.1363 210.021 73.7544 211.264 72.096C209.606 72.096 208.363 72.096 206.981 72.096C206.29 72.096 206.152 72.6488 205.738 73.0634C204.08 75.2745 202.422 77.4857 200.764 79.6968C200.488 80.1114 200.073 80.9406 199.382 80.526C198.692 80.1114 199.382 79.4204 199.382 78.8677C200.626 76.5183 202.146 74.5836 203.804 72.2342C201.731 72.2342 199.797 71.9578 198.001 71.8196C189.02 71.6814 180.04 71.6814 171.198 71.405C162.493 71.1286 153.927 70.4377 145.223 70.0231C139.973 69.7467 134.585 69.4703 129.335 69.1939C119.525 68.7793 109.716 67.9501 99.9062 67.8119C98.9391 67.8119 97.5576 68.2265 97.2812 66.5681C97.9721 66.5681 98.6628 66.5681 99.4918 66.5681C124.499 66.5681 149.644 66.5681 174.652 66.5681C181.56 66.5681 188.606 66.7063 195.514 66.43C201.593 66.1536 207.81 66.1536 213.889 66.43C215.133 66.43 215.271 66.8445 215.271 67.9501C215.271 84.1191 215.271 100.426 215.271 116.595C215.271 118.254 214.396 119.037 212.646 118.945V118.668Z" fill="#FCFDFB"/>
<path d="M9.96484 66.4297C11.6228 68.088 11.3465 70.2992 11.6228 72.3721C11.8991 75.6889 12.0373 79.0056 12.0373 82.4605C12.0373 89.6467 12.8663 96.6948 13.2808 104.019C14.1097 102.775 14.9388 101.532 15.7677 100.288C16.3204 99.4587 16.8729 98.6295 17.5637 97.9385C17.9782 97.6621 18.3927 97.3857 18.8072 97.8003C19.2217 98.2149 18.9454 98.4913 18.8072 98.9059C17.5638 100.979 16.3202 103.19 14.9386 105.263C13.6952 107.06 13.1426 108.994 13.8334 111.62C15.0769 109.962 16.1822 108.58 17.2875 107.198C17.8401 106.645 18.1165 105.125 19.2218 105.954C20.1889 106.645 19.0836 107.474 18.6691 108.027C17.4256 109.962 16.044 111.896 14.6624 113.831C14.386 114.384 13.9716 114.799 13.9716 115.49C13.9716 116.18 13.9715 116.457 14.9386 116.319C21.8467 115.213 28.893 116.042 35.9392 116.042C44.6434 116.042 53.2093 116.457 61.9135 117.01C69.3742 117.424 76.835 117.839 84.1576 118.53C85.4011 118.53 86.6444 118.53 88.026 118.668C87.6115 118.944 87.0589 118.668 86.7825 119.083C73.2427 119.083 59.5647 119.083 46.0249 119.083C37.1826 119.083 28.3403 119.083 19.498 119.221C16.7348 119.221 13.8334 118.944 11.0702 119.083C10.3794 119.083 10.1031 118.806 10.1031 118.115C10.1031 117.839 10.1031 117.424 10.1031 117.148C10.1031 100.979 10.1031 84.8098 10.1031 68.5026C10.1031 67.9499 9.82675 67.2589 10.3794 66.7061L9.96484 66.4297Z" fill="#FAFCF9"/>
<path d="M120.217 62.4214C95.7628 62.4214 71.4464 62.4214 46.9918 62.4214C46.5773 62.4214 46.1628 62.4214 45.6102 62.4214C45.1957 62.4214 44.7812 62.4215 44.7812 61.8687C44.7812 61.3159 45.1957 61.1777 45.6102 61.1777C45.8865 61.1777 46.3009 61.1777 46.5772 61.1777C66.6106 61.1777 86.5059 60.9013 106.539 60.7631C119.388 60.7631 132.099 60.4867 144.948 60.4867C161.251 60.4867 177.554 60.2103 193.857 60.2103C194.824 60.2103 195.792 60.0721 195.653 61.5923C195.653 62.2833 195.377 62.5596 194.686 62.5596C194.272 62.5596 193.857 62.5596 193.305 62.5596C168.85 62.5596 144.534 62.5596 120.079 62.5596L120.217 62.4214Z" fill="#6BA726"/>
<path d="M5.6774 119.221C4.57211 118.115 3.7431 117.286 3.7431 115.766C4.15759 98.9057 3.46678 82.0457 3.7431 65.1857C3.7431 64.6329 3.74312 64.0801 4.01944 63.5273C4.98657 64.0801 5.81553 64.4947 5.81553 65.8767C5.81553 83.2895 5.81553 100.702 5.81553 118.115C5.81553 118.391 5.81553 118.668 5.81553 119.221H5.6774Z" fill="#75B62A"/>
<path d="M6.51172 61.3164C9.96575 61.3164 13.5579 61.3164 17.0119 61.3164C17.4264 61.3164 17.7028 61.3164 17.7028 61.8692C17.7028 62.1456 17.5647 62.422 17.2884 62.422C13.9725 62.422 10.6566 62.422 7.20253 62.422C6.9262 62.422 6.64988 62.0074 6.51172 61.8692C6.51172 61.8692 6.51172 61.5928 6.51172 61.4546V61.3164Z" fill="#6BA726"/>
<path d="M214.3 62.4216C213.195 62.4216 212.366 62.4216 211.399 62.4216C210.155 62.5598 209.879 62.007 209.879 60.9014C209.879 60.2105 209.879 60.0723 210.57 60.0723C212.089 60.0723 213.471 60.625 214.3 62.4216Z" fill="#6BA726"/>
<path d="M199.382 62.284C198.415 62.284 197.586 62.4222 197.586 61.1784C197.586 59.52 198.691 60.0728 199.52 60.0728C200.349 60.0728 201.04 60.0728 201.04 61.3166C201.04 62.8368 199.935 62.284 199.382 62.4222V62.284Z" fill="#75B62A"/>
<path d="M33.172 62.422C32.6193 62.422 31.9285 62.422 31.3758 62.422C30.9613 62.422 30.5469 62.422 30.5469 61.8692C30.5469 61.4546 30.8232 61.3164 31.2377 61.3164C32.6193 61.3164 33.8628 61.3164 35.2444 61.3164C35.6589 61.3164 35.9352 61.3164 35.9352 61.8692C35.9352 62.422 35.6589 62.5602 35.2444 62.5602C34.5536 62.5602 33.8627 62.5602 33.3101 62.5602L33.172 62.422Z" fill="#6BA726"/>
<path d="M24.7448 62.422C24.1921 62.422 23.5013 62.422 22.9486 62.422C22.5341 62.422 22.2578 62.422 22.2578 61.8692C22.2578 61.4546 22.5342 61.3164 22.8105 61.3164C24.0539 61.3164 25.2973 61.3164 26.5408 61.3164C26.9553 61.3164 27.0935 61.4546 27.0935 61.8692C27.0935 62.2838 26.8171 62.422 26.4027 62.422C25.85 62.422 25.1591 62.422 24.6065 62.422H24.7448Z" fill="#6BA726"/>
<path d="M85.9531 58.5526C86.9203 57.8616 88.0256 58.2762 88.9928 58.2762C91.2034 58.2762 93.4138 57.8616 95.6244 58.4144C92.4467 58.6908 89.269 58.6908 85.9531 58.4144V58.5526Z" fill="#B9BABA"/>
<path d="M207.255 61.0411C207.255 61.7321 207.255 62.4231 206.288 62.4231C205.459 62.4231 205.044 62.1467 205.182 61.3175C205.182 60.6265 205.044 59.9355 206.149 59.9355C206.978 59.9355 207.255 60.3501 207.255 61.0411Z" fill="#6BA726"/>
<path d="M40.4963 62.423C39.9437 62.1466 38.9766 62.8376 38.9766 61.8702C38.9766 60.7646 40.082 61.1792 40.6346 61.1792C41.1872 61.1792 42.1543 60.6264 42.1543 61.732C42.1543 62.6994 41.1871 62.2848 40.4963 62.423Z" fill="#6BA726"/>
<path d="M86.2305 118.669C86.5068 118.254 87.1975 118.53 87.4738 118.254C89.2699 118.668 91.2043 118.254 93.1385 118.669C90.7898 118.669 88.5792 118.807 86.2305 118.669Z" fill="#A6A8A5"/>
<path d="M112.339 100.98C111.372 104.158 109.99 106.784 108.332 109.271C106.951 111.344 105.016 112.035 102.668 111.344C101.148 110.93 99.7662 110.377 98.1083 110.239C96.8649 110.239 96.4504 109.271 96.7267 108.166C97.1412 105.816 98.1082 103.743 99.2135 101.671C100.595 99.0448 101.977 96.5572 103.497 94.0697C104.049 93.1023 104.049 92.5495 103.497 91.7203C101.286 88.2654 99.2135 84.9487 96.4503 81.9084C95.0687 80.3882 95.0687 79.8354 96.4503 78.1771C97.4174 77.0715 98.3846 75.8277 99.7662 75.2749C101.286 74.7222 102.806 74.8603 104.187 75.9659C106.536 77.7625 109.161 79.4208 111.234 81.632C111.924 82.323 112.339 82.4612 112.753 81.4938C113.582 79.4208 114.549 77.3479 115.102 75.1367C115.378 74.0312 115.931 73.4784 117.036 73.6166C119.109 73.7548 121.181 73.6166 123.254 74.7222C125.879 76.1041 126.017 75.9659 125.188 78.7299C124.083 82.5994 122.839 86.4689 120.767 90.062C120.076 91.3058 120.629 92.1349 121.181 93.1023C123.53 96.8336 125.879 100.565 128.227 104.296C130.023 107.06 129.056 109.548 125.879 110.377C124.773 110.653 123.806 110.93 122.701 111.206C120.352 111.897 119.661 111.759 118.142 109.824C116.346 107.337 114.688 104.573 112.892 101.947C112.753 101.671 112.615 101.394 112.339 100.841V100.98ZM100.319 77.0715C99.6281 77.3479 99.2136 78.0389 98.661 78.5917C97.5557 79.559 97.5557 80.25 98.661 81.3556C101.424 84.3959 103.497 87.8508 105.707 91.3058C106.26 92.1349 106.536 92.8259 105.845 93.9315C103.22 97.6628 101.148 101.671 99.3518 105.955C98.3847 108.442 98.3846 108.442 100.872 108.995C101.286 108.995 101.839 109.133 102.253 109.41C103.082 109.686 103.497 109.41 103.911 108.719C105.707 106.093 107.503 103.467 108.885 100.565C109.161 99.8739 109.438 99.3212 109.99 98.7684C111.51 96.8336 112.063 96.9718 113.306 99.0448C113.582 99.5976 113.859 100.289 114.273 100.841C115.793 103.329 117.451 105.955 119.109 108.304C119.661 109.133 120.352 110.239 121.458 110.101C122.563 110.101 123.668 109.548 124.773 109.271C125.74 108.995 126.017 108.58 125.464 107.475C122.563 102.776 119.661 98.0774 116.484 93.5169C115.24 91.8585 115.24 90.3384 116.207 88.5418C117.865 85.6397 119.662 82.7376 120.767 79.559C122.425 74.8603 122.01 75.6895 117.589 75.1367C116.898 75.1367 116.622 75.2749 116.346 75.9659C115.378 78.7299 114.273 81.4938 113.306 84.2577C113.03 85.0869 113.168 86.0543 111.924 86.4689C110.681 86.8835 109.714 86.4689 108.885 85.5015C105.983 82.7376 103.635 79.559 100.457 77.0715H100.319Z" fill="#080B08"/>
<path d="M44.3624 91.5825C48.5073 94.0701 50.9941 97.6632 51.5468 102.362C52.0994 106.37 50.027 109.686 46.0203 110.515C38.4214 111.897 30.9607 113.97 23.2237 113.556C21.9802 113.556 21.704 113.279 21.5658 112.036C21.2895 108.581 21.5659 105.126 21.2896 101.671C20.8751 93.1027 21.0132 84.3963 20.875 75.8281C20.875 74.308 21.4277 74.0316 22.8093 73.7552C28.7502 72.3732 34.4148 73.2024 40.2176 74.308C44.9151 75.2753 48.2309 78.5921 48.6454 83.2907C48.9217 85.9165 47.6782 88.2658 46.0203 90.2006C45.4677 90.7534 44.9151 91.3062 44.3624 91.7207V91.5825ZM22.6712 93.6555C22.6712 93.6555 22.9474 93.6555 23.0855 93.6555C23.0855 98.907 23.0855 104.158 23.0855 109.41C23.0855 110.792 23.3619 111.345 24.8817 111.206C27.3686 111.206 29.7173 110.93 32.2042 110.654C34.9674 110.377 37.7307 109.825 40.3557 108.719C42.7045 107.613 44.915 106.093 45.3295 103.191C46.1585 99.0452 43.2571 94.8993 38.9741 94.0701C37.0398 93.6555 34.9674 93.5173 32.895 93.2409C32.2042 93.2409 31.6517 92.8263 31.6517 92.1353C31.6517 91.4443 32.2042 91.0298 32.7568 91.0298C34.5529 91.0298 36.0727 90.3388 37.7306 90.0624C41.1847 89.6478 44.2242 86.1929 43.9479 82.8762C43.8097 79.5594 41.5992 77.9011 38.836 76.7955C33.8622 74.9989 28.7502 74.9989 23.6382 75.9663C22.6711 76.1045 22.6712 76.5191 22.6712 77.3483C22.6712 82.738 22.6712 88.1276 22.6712 93.5173V93.6555Z" fill="#070A08"/>
<path d="M202.84 108.856C202.84 109.962 203.254 111.205 202.84 111.896C202.425 112.726 201.044 112.035 200.076 112.311C199.386 112.449 198.695 112.449 198.142 112.587C196.623 112.726 195.517 112.587 195.932 110.653C195.932 109.962 195.655 109.823 195.103 109.823C187.366 109.409 179.767 109.547 172.168 110.1C171.063 110.1 171.063 110.653 171.063 111.482C171.063 113.969 170.786 114.246 168.299 114.108C166.918 114.108 165.674 113.831 164.293 113.831C163.326 113.831 162.635 113.278 162.635 112.311C162.497 110.1 161.944 107.889 162.359 105.539C162.773 103.881 163.188 103.466 164.984 103.605C166.78 103.605 168.576 103.605 170.234 103.881C171.615 104.019 172.03 103.466 172.168 102.223C173.411 94.2072 175.346 86.33 176.865 78.3146C177.556 74.8596 178.109 74.4451 181.563 74.0305C184.05 73.7541 186.399 73.2013 188.885 73.6159C189.991 73.7541 190.681 74.3069 191.096 75.2742C193.583 80.6639 194.826 86.4682 195.379 92.4106C195.655 94.76 195.793 97.2475 195.932 99.5969C195.932 100.426 196.208 100.702 197.175 100.702C198.695 100.702 200.215 100.702 201.596 100.702C202.425 100.702 202.702 100.979 202.702 101.808C202.702 104.019 202.702 106.368 202.702 108.58C202.702 108.58 202.702 108.58 202.84 108.58V108.856ZM169.128 105.954C168.299 105.954 167.47 105.954 166.641 105.954C164.155 105.954 164.016 105.954 164.155 108.58C164.155 108.718 164.155 108.856 164.155 109.132C164.569 112.173 164.569 112.173 167.609 112.449C168.714 112.449 169.266 112.449 168.99 111.067C168.714 109.685 169.543 109.271 170.786 109.132C173.55 108.718 176.451 108.718 179.214 108.58C184.602 108.303 189.853 108.58 195.241 108.58C197.175 108.58 197.59 108.718 197.452 110.653C197.452 112.311 198.557 111.758 199.386 111.896C200.353 111.896 201.182 111.896 201.044 110.653C201.044 109.271 201.044 107.75 201.044 106.368C201.044 105.401 200.767 105.263 199.938 105.263C197.728 105.401 195.655 105.539 193.445 105.678C192.201 105.678 191.649 105.539 191.511 104.157C190.958 95.8656 189.576 87.5737 188.195 79.4201C187.504 75.5506 187.366 75.5506 183.497 75.9652C183.359 75.9652 183.221 75.9652 182.945 75.9652C180.273 76.2416 178.662 77.7157 178.109 80.3875C178.109 80.9403 177.971 81.3549 177.833 81.9077C176.865 89.5085 175.208 96.9711 173.964 104.572C173.688 105.954 173.135 106.783 171.477 106.368C170.648 106.23 169.681 106.368 168.852 106.368L169.128 105.954Z" fill="#090D09"/>
<path d="M53.7622 95.0355C53.9004 89.2313 53.624 83.0124 53.3477 76.6554C53.3477 75.1352 53.9003 74.4442 55.2819 74.306C57.7689 74.0296 60.2557 73.7532 62.4663 74.997C62.6044 74.997 62.8808 74.997 63.1571 74.997C64.6769 74.8588 65.2295 75.688 65.3676 77.07C65.6439 81.2159 66.0585 85.5 66.3349 89.6459C66.3349 90.7514 66.7493 91.0278 67.8546 91.166C73.1047 91.857 77.2496 94.0682 79.5983 99.0432C81.8089 103.88 78.0786 109.546 74.6245 111.343C72.5521 112.448 70.2033 112.725 67.8546 112.863C64.2624 113.139 60.532 113.139 56.9398 113.277C54.7292 113.277 54.3148 112.725 54.0385 110.652C53.4858 105.677 53.7621 100.563 53.6239 95.0355H53.7622ZM61.3611 88.1257C61.4992 85.3618 61.361 82.4596 60.9465 79.6957C60.3939 75.2734 61.4992 76.1026 56.8017 75.8262C55.4201 75.8262 55.1438 76.2408 55.2819 77.4845C56.1109 86.1909 55.9728 94.8973 55.9728 103.604C55.9728 105.815 56.249 108.026 56.3871 110.375C56.3871 111.066 56.6636 111.343 57.3544 111.205C57.7689 111.205 58.1834 111.205 58.5979 111.205C63.1572 111.205 67.7164 111.481 72.1376 109.823C75.8679 108.441 77.1114 105.4 75.5916 101.807C73.5192 97.1085 69.098 94.4827 63.8479 95.1737C61.7755 95.4501 61.3609 95.1737 61.2228 92.9626C61.2228 91.3042 61.2228 89.6459 61.2228 87.9875L61.3611 88.1257Z" fill="#070A08"/>
<path d="M131.543 95.7273C131.543 88.6793 134.583 83.2896 139.695 79.1437C142.596 76.7944 146.188 76.518 149.78 76.7944C151.853 76.9326 153.787 77.6236 155.721 78.591C161.938 81.6313 164.011 88.1265 163.597 93.6544C163.32 97.1093 162.215 100.288 160.695 103.328C159.313 105.954 157.103 107.612 154.201 108.303C153.511 108.441 152.82 108.718 152.267 109.132C141.214 114.66 132.234 105.401 131.543 97.3857C131.543 96.6947 131.543 96.0037 131.543 95.7273ZM134.03 94.8982C134.03 96.1419 134.03 97.2475 134.444 98.4913C135.411 103.328 139.556 107.336 144.254 108.165C148.675 108.856 153.511 106.507 155.998 102.084C158.07 98.4913 159.175 94.6218 158.761 90.4759C158.208 85.639 155.859 82.1841 151.162 80.6639C146.464 79.1437 142.043 79.8347 138.589 83.566C135.688 86.7446 134.168 90.6141 134.168 94.8982H134.03Z" fill="#060907"/>
<path d="M80.9766 91.72C80.9766 86.7449 80.9766 81.7698 80.9766 76.9329C80.9766 74.9981 81.8055 73.8926 83.8779 73.8926C85.3977 73.8926 86.6411 74.169 88.1609 75.2745C91.6149 77.7621 91.0623 81.217 91.6149 84.3955C92.7202 91.4436 92.3057 98.6298 92.9965 105.678C93.1347 107.751 92.4439 108.58 90.2333 108.58C89.6807 108.58 89.6807 108.995 89.5425 109.271C89.2662 110.238 88.4372 110.515 87.4701 110.515C82.2199 110.653 81.8055 110.238 81.8055 105.125C81.8055 100.565 81.8055 96.1422 81.8055 91.5818H81.2528L80.9766 91.72ZM87.6084 104.019C87.4702 100.288 87.1939 96.0041 86.9176 91.8582C86.6412 87.1595 86.5031 82.4608 86.2268 77.7621C86.2268 76.3801 85.8123 75.6891 84.1543 75.8273C82.4964 75.8273 82.9109 76.9329 82.9109 77.9003C83.4635 86.8831 83.6017 95.8658 83.6017 104.71C83.6017 105.54 83.6017 106.231 83.6017 107.06C83.6017 107.889 83.878 108.442 84.9833 108.442C87.4702 108.442 87.4702 108.442 87.6084 105.954C87.6084 105.401 87.6084 104.987 87.6084 104.019Z" fill="#060907"/>
<path d="M100.322 77.0715C103.5 79.559 105.849 82.7375 108.75 85.5015C109.717 86.3307 110.546 86.8834 111.79 86.4688C112.895 86.1925 112.895 85.0869 113.171 84.2577C114.138 81.4938 115.244 78.7298 116.211 75.9659C116.487 75.4131 116.764 75.1367 117.454 75.1367C121.875 75.6895 122.29 74.8603 120.632 79.559C119.527 82.7375 117.731 85.6397 116.073 88.5418C114.967 90.3384 115.106 91.8585 116.349 93.5169C119.527 98.0774 122.428 102.776 125.329 107.475C126.02 108.58 125.744 108.995 124.639 109.271C123.533 109.548 122.428 109.962 121.323 110.1C120.079 110.1 119.527 109.133 118.974 108.304C117.316 105.816 115.796 103.329 114.138 100.841C113.724 100.289 113.586 99.7357 113.171 99.0447C111.928 96.9718 111.375 96.8336 109.855 98.7684C109.441 99.3211 109.165 100.012 108.75 100.565C107.23 103.467 105.434 106.093 103.776 108.719C103.362 109.409 102.947 109.686 102.118 109.409C101.704 109.271 101.151 109.133 100.737 108.995C98.2499 108.442 98.2498 108.442 99.2169 105.955C100.875 101.67 103.086 97.6628 105.711 93.9315C106.401 92.9641 105.987 92.1349 105.572 91.3057C103.5 87.8508 101.289 84.3959 98.5261 81.3556C97.559 80.25 97.559 79.559 98.5261 78.5916C99.0788 78.0388 99.4934 77.3479 100.184 77.0715H100.322Z" fill="#FAFAFA"/>
<path d="M22.6758 93.6536C22.6758 88.2639 22.6758 82.8742 22.6758 77.4846C22.6758 76.7936 22.6757 76.379 23.6428 76.1026C28.7548 75.1352 33.8668 75.1352 38.8406 76.9318C41.6038 77.8992 43.8143 79.6957 43.9525 83.0124C44.0907 86.3292 41.1893 89.7841 37.7352 90.1987C36.0773 90.4751 34.5576 91.166 32.7615 91.166C32.2088 91.166 31.6563 91.5806 31.6563 92.2716C31.6563 92.9626 32.2088 93.239 32.8996 93.3772C34.972 93.6536 36.9063 93.7918 38.9787 94.2064C43.2617 95.1737 46.1631 99.3196 45.3341 103.327C44.7815 106.091 42.7091 107.75 40.3603 108.855C37.7353 110.099 34.972 110.514 32.2088 110.79C29.86 111.066 27.3732 111.205 24.8863 111.343C23.3666 111.343 23.0902 110.928 23.0902 109.546C23.0902 104.295 23.0902 99.0433 23.0902 93.7918C23.0902 93.7918 22.8139 93.7918 22.6758 93.7918V93.6536ZM26.2679 83.427C26.2679 84.2562 26.406 85.2236 26.5442 86.0528C26.5442 86.8819 27.235 87.4347 28.0639 87.5729C30.5508 87.7111 32.8996 87.1583 34.8339 85.3618C36.0773 84.2562 35.9392 82.736 34.5576 81.7687C33.176 80.8013 31.5181 80.3867 29.722 80.2485C27.2351 80.1103 26.2679 81.0777 26.2679 83.427ZM27.3731 101.945C27.3731 102.498 27.3731 103.051 27.3731 103.604C27.3731 104.848 28.3403 105.538 29.3074 105.262C31.3798 104.848 33.3141 104.295 34.972 102.775C35.801 101.945 36.0774 100.84 35.3866 99.8724C34.4194 98.4905 31.7943 97.6613 29.9982 98.0759C27.5113 98.7669 27.3731 99.0432 27.3731 101.945Z" fill="#FAFAFA"/>
<path d="M169.125 105.954C169.954 105.954 170.921 105.815 171.75 105.954C173.408 106.368 173.96 105.539 174.237 104.157C175.48 96.5563 177.138 89.0936 178.105 81.4928C178.105 80.94 178.243 80.5254 178.382 79.9727C178.842 77.3009 180.454 75.8268 183.217 75.5504C183.355 75.5504 183.494 75.5504 183.77 75.5504C187.638 75.1358 187.777 75.1358 188.467 79.0053C189.849 87.1589 191.23 95.4507 191.783 103.742C191.783 105.124 192.474 105.401 193.717 105.263C195.928 105.124 198 104.986 200.211 104.848C201.04 104.848 201.454 104.986 201.316 105.954C201.316 107.336 201.316 108.856 201.316 110.238C201.316 111.62 200.487 111.62 199.658 111.482C198.829 111.482 197.724 111.896 197.724 110.238C197.724 108.303 197.448 108.165 195.514 108.165C190.125 108.165 184.875 108.027 179.487 108.165C176.724 108.165 173.822 108.441 171.059 108.718C169.815 108.856 168.987 109.409 169.263 110.652C169.539 111.896 168.987 112.172 167.881 112.034C164.704 111.758 164.704 111.758 164.427 108.718C164.427 108.579 164.427 108.441 164.427 108.165C164.289 105.677 164.427 105.539 166.914 105.539C167.743 105.539 168.572 105.539 169.401 105.539L169.125 105.954ZM187.638 98.0764C187.638 96.0035 187.362 94.0687 187.086 92.2722C186.948 91.443 187.086 90.4756 185.842 90.4756C184.599 90.4756 183.079 90.1992 182.25 91.5812C180.592 94.7597 179.349 98.2146 178.105 101.531C177.691 102.637 178.105 103.466 179.349 103.328C181.007 103.328 182.665 103.052 184.323 102.913C186.948 102.637 187.5 101.946 187.638 99.182C187.638 98.7674 187.638 98.3528 187.638 98.2146V98.0764Z" fill="#F8F9F8"/>
<path d="M61.359 88.1273C61.359 89.7857 61.359 91.4441 61.359 93.1024C61.359 95.3136 61.7733 95.59 63.9839 95.3136C69.234 94.6226 73.6552 97.1101 75.7276 101.947C77.2474 105.54 76.0039 108.58 72.2736 109.962C67.8524 111.621 63.2932 111.206 58.7339 111.344C58.3194 111.344 57.9049 111.206 57.4904 111.344C56.7996 111.483 56.5233 111.344 56.5233 110.515C56.5233 108.304 56.1088 106.093 56.1088 103.744C56.1088 95.0372 56.2469 86.3308 55.418 77.6244C55.418 76.3806 55.6943 75.8278 56.9377 75.966C61.6352 76.2424 60.5299 75.4132 61.0826 79.8355C61.3589 82.5995 61.6353 85.3634 61.4971 88.2656L61.359 88.1273ZM64.9511 99.5977C62.8787 99.5977 62.7406 99.5977 62.8787 101.809C62.8787 102.362 62.8787 102.776 62.8787 103.329C63.0169 104.987 63.8459 105.678 65.5038 105.678C66.4709 105.678 67.438 105.402 68.4052 104.987C70.0631 104.02 70.2013 102.5 68.9578 101.256C67.8526 100.289 66.4709 99.7359 65.0893 99.7359L64.9511 99.5977Z" fill="#FAFAFA"/>
<path d="M134.029 94.8982C134.029 90.6141 135.548 86.7446 138.45 83.5661C141.904 79.6966 146.325 79.1438 151.022 80.664C155.72 82.1841 158.069 85.6391 158.621 90.4759C159.036 94.6218 157.931 98.4913 155.858 102.084C153.371 106.507 148.536 108.856 144.114 108.165C139.417 107.336 135.41 103.328 134.305 98.4913C134.029 97.2476 133.891 96.142 133.891 94.8982H134.029ZM150.884 93.6545C150.884 91.1669 149.088 89.094 146.878 89.094C144.253 89.094 142.733 91.4433 142.595 94.069C142.595 96.4184 144.391 98.2149 146.463 98.3531C148.812 98.3531 150.884 96.2802 150.884 93.7927V93.6545Z" fill="#FBFBFB"/>
<path d="M87.6068 104.02C87.6068 104.849 87.6068 105.402 87.6068 105.955C87.6068 108.581 87.6068 108.443 84.9817 108.443C83.8765 108.443 83.6001 108.028 83.6001 107.061C83.6001 106.231 83.6001 105.54 83.6001 104.711C83.6001 95.7284 83.6001 86.7457 82.9093 77.9011C82.9093 76.9337 82.4949 75.9663 84.1528 75.8281C85.8107 75.8281 86.0871 76.5191 86.2252 77.7629C86.3634 82.4616 86.6397 87.1603 86.916 91.8589C87.1924 96.0048 87.3305 100.151 87.6068 104.02Z" fill="#F8F9F8"/>
<path d="M26.2617 83.4277C26.2617 81.0784 27.2288 80.111 29.7158 80.2492C31.3737 80.2492 33.1698 80.6638 34.5514 81.7694C35.933 82.7368 36.2093 84.2569 34.8277 85.3625C32.8934 87.0209 30.6828 87.7118 28.0577 87.5736C27.2287 87.5736 26.6761 87.0209 26.538 86.0535C26.538 85.2243 26.3999 84.2569 26.2617 83.4277ZM31.2355 82.0458C30.1302 82.5986 30.9592 83.8423 30.4066 84.6715C30.1302 85.0861 30.4066 85.5007 30.9592 85.3625C32.0645 85.0861 33.7224 84.9479 33.8606 83.7041C33.8606 82.5986 32.3408 82.5986 31.2355 82.184V82.0458Z" fill="#0C0E0D"/>
<path d="M27.3711 101.948C27.3711 99.0454 27.5093 98.7691 29.9962 98.0781C31.7923 97.5253 34.4174 98.3545 35.3845 99.8746C36.0753 100.98 35.9371 101.948 34.97 102.777C33.4502 104.297 31.3778 104.85 29.3054 105.264C28.2001 105.541 27.3711 104.85 27.3711 103.606C27.3711 103.053 27.3711 102.5 27.3711 101.948ZM31.1016 102.915C32.345 102.224 33.7265 102.224 33.5884 100.98C33.5884 100.289 32.345 99.8746 31.7924 100.151C30.6871 100.566 31.516 101.809 31.1016 102.915Z" fill="#0C0E0D"/>
<path d="M187.639 98.078C187.639 98.3544 187.639 98.6308 187.639 99.0454C187.639 101.809 187.087 102.5 184.324 102.777C182.666 102.915 181.008 103.053 179.35 103.191C177.968 103.191 177.692 102.5 178.106 101.395C179.35 98.078 180.593 94.6231 182.251 91.4445C182.942 90.0626 184.462 90.339 185.843 90.339C186.949 90.339 186.949 91.3063 187.087 92.1355C187.363 94.0703 187.501 96.005 187.639 97.9398V98.078ZM185.843 96.005H185.567C185.567 96.1432 185.429 96.4196 185.291 96.5578C184.738 98.078 184.185 99.7363 183.494 101.257C185.152 101.257 185.981 100.842 185.843 99.1836C185.843 98.2162 185.843 97.1106 185.843 96.1432V96.005Z" fill="#090D09"/>
<path d="M64.9488 99.5972C66.4686 99.5972 67.8501 100.15 68.8172 101.117C70.1989 102.499 69.9227 104.019 68.2647 104.849C67.4358 105.401 66.4685 105.54 65.3632 105.54C63.7053 105.54 62.8764 104.849 62.7383 103.19C62.7383 102.638 62.7383 102.223 62.7383 101.67C62.7383 99.459 62.7383 99.459 64.8107 99.459L64.9488 99.5972ZM66.1923 103.605C66.6068 103.605 67.4357 103.605 67.2975 102.776C67.2975 101.947 66.1923 101.947 65.5015 101.67C64.9489 101.532 64.8107 101.947 64.9488 102.361C64.9488 103.052 64.9489 103.743 66.1923 103.605Z" fill="#0C0E0D"/>
<path d="M150.883 93.6557C150.883 96.1433 148.811 98.2162 146.462 98.2162C144.251 98.2162 142.455 96.2815 142.593 93.9321C142.593 91.4446 144.251 88.957 146.876 88.957C149.225 88.957 150.883 90.8918 150.883 93.5175V93.6557ZM148.258 93.6557C148.258 93.2411 148.396 92.6883 147.844 92.5501C147.429 92.5501 146.047 94.6231 145.909 95.3141C145.909 95.7287 146.048 96.0051 146.462 95.8669C147.705 95.5905 148.12 94.8995 148.258 93.6557Z" fill="#090D09"/>
<path d="M31.2381 82.0464C32.3434 82.5992 33.8632 82.461 33.8632 83.5666C33.8632 84.9485 32.0672 84.9485 30.9619 85.2249C30.4092 85.3631 30.271 84.9485 30.4092 84.5339C30.9618 83.7048 29.9947 82.461 31.2381 81.9082V82.0464Z" fill="#6BA726"/>
<path d="M31.1016 102.913C31.516 101.669 30.6871 100.564 31.7924 100.149C32.4832 99.8727 33.5884 100.287 33.5884 100.978C33.5884 102.222 32.345 102.222 31.1016 102.913Z" fill="#6BA726"/>
<path d="M185.841 96.0034C185.841 96.9708 185.841 98.0764 185.841 99.0438C185.979 100.702 185.15 101.255 183.492 101.117C184.045 99.4583 184.736 97.9382 185.288 96.418C185.288 96.2798 185.426 96.0034 185.565 95.8652H185.841V96.0034Z" fill="#6BA726"/>
<path d="M66.1927 103.604C64.9493 103.743 64.9492 103.052 64.9492 102.361C64.9492 101.946 64.9493 101.531 65.5019 101.67C66.1927 101.946 67.1597 101.946 67.2979 102.775C67.2979 103.466 66.469 103.466 66.1927 103.604Z" fill="#6BA726"/>
<path d="M148.263 93.6547C148.263 94.7603 147.71 95.5895 146.467 95.8659C146.052 95.8659 145.914 95.8659 145.914 95.3131C145.914 94.6221 147.434 92.411 147.848 92.5492C148.401 92.6874 148.125 93.2401 148.263 93.6547Z" fill="#6BA726"/>
<defs>
<filter id="filter0_d_2819_17866" x="16" y="0" width="185" height="185" filterUnits="userSpaceOnUse" color-interpolation-filters="sRGB">
<feFlood flood-opacity="0" result="BackgroundImageFix"/>
<feColorMatrix in="SourceAlpha" type="matrix" values="0 0 0 0 0 0 0 0 0 0 0 0 0 0 0 0 0 0 127 0" result="hardAlpha"/>
<feOffset dx="-5" dy="5"/>
<feComposite in2="hardAlpha" operator="out"/>
<feColorMatrix type="matrix" values="0 0 0 0 0 0 0 0 0 0 0 0 0 0 0 0 0 0 1 0"/>
<feBlend mode="normal" in2="BackgroundImageFix" result="effect1_dropShadow_2819_17866"/>
<feBlend mode="normal" in="SourceGraphic" in2="effect1_dropShadow_2819_17866" result="shape"/>
</filter>
</defs>
</svg>
