<svg width="185" height="190" viewBox="0 0 185 190" fill="none" xmlns="http://www.w3.org/2000/svg">
<g filter="url(#filter0_d_2946_27057)">
<circle cx="95" cy="95" r="90" fill="#945091"/>
</g>
<path d="M96.6949 0.76861C104.826 0.875623 113.064 1.83874 120.981 3.979C136.066 8.15251 148.369 16.7136 158.319 28.806C160.03 30.8393 161.421 33.1936 163.24 35.1198C163.668 35.5479 163.668 36.0829 163.454 36.618C162.812 38.2232 162.17 39.8284 161.635 41.5406C161.421 42.2897 160.993 42.2897 160.458 42.0757C159.389 41.5406 158.319 41.1125 157.249 40.5775C157.249 43.0388 157.249 45.5001 157.249 47.9614C157.142 74.9287 157.035 101.789 156.928 128.756C156.928 147.591 156.928 166.532 156.928 185.366C156.928 186.65 156.286 187.613 155.965 188.684C155.965 189.005 155.537 189.112 155.216 189.112C153.718 189.112 152.327 189.54 150.83 189.433C139.703 189.326 128.577 189.219 117.45 189.112C97.1228 188.898 76.6886 188.684 56.3613 188.47C55.2914 188.47 54.4355 188.256 53.5796 187.721C48.7653 184.938 44.1649 181.835 39.5645 178.838C38.8156 178.303 38.3877 177.34 37.4248 177.019C37.1038 176.912 36.9969 176.377 37.1038 175.949C37.7458 169.849 37.3178 163.857 37.3178 157.757C36.9969 115.701 36.6759 73.5375 36.248 31.4814C36.248 31.1603 36.3549 30.8393 36.034 30.4112C35.0711 31.3744 34.1082 32.3375 33.1454 33.1936C32.8244 33.5146 32.6104 33.9427 32.0755 33.8357C30.2567 33.5146 28.224 33.8357 26.9402 31.8024C26.8332 31.5884 26.5123 31.4814 26.4053 31.3744C26.4053 31.1603 26.4053 30.8393 26.4053 30.6253C26.9402 29.8762 27.3681 29.2341 28.0101 28.485C30.3637 25.7027 33.0384 23.2414 35.82 20.8871C41.3833 16.0715 47.1605 11.4699 54.0076 8.36654C66.9529 2.58783 81.289 0.447571 95.4111 0.554585C95.946 0.554585 96.4809 0.554585 97.0159 0.554585L96.6949 0.76861ZM58.715 58.6627C58.715 58.4487 58.715 58.3417 58.501 58.3417C58.501 58.1276 58.501 58.0206 58.287 58.0206C58.287 57.6996 58.073 57.5926 57.859 57.4856C56.6822 56.5224 55.9333 54.8102 54.0076 55.3453C51.6539 55.3453 49.1932 55.3453 46.8395 55.2383C45.7697 55.2383 45.5557 55.4523 45.5557 56.5224C45.6627 82.9547 45.7697 109.28 45.8767 135.712C45.8767 148.661 45.8767 161.609 45.8767 174.558C45.6627 175.628 45.8767 176.056 47.0535 176.056C54.8635 176.056 62.6735 176.163 70.4834 176.27C84.8195 176.377 99.2626 176.484 113.599 176.591C113.92 176.591 114.348 176.805 114.775 176.377C113.385 174.665 111.887 173.06 110.496 171.454C109.961 170.812 109.319 170.384 109.319 169.421C109.961 168.886 110.389 169.421 110.71 169.849C112.208 171.454 113.599 173.06 115.096 174.665C115.738 175.414 116.059 176.484 117.129 176.591C118.841 176.698 120.446 176.591 122.371 176.591C121.944 176.056 121.73 175.628 121.409 175.307C118.734 171.776 116.059 168.244 113.278 164.82C113.92 163.643 114.348 164.499 114.775 164.927C117.557 168.03 120.232 171.347 122.799 174.665C123.441 176.27 124.511 176.912 126.33 176.698C128.898 176.484 131.465 176.698 134.033 176.698C134.782 176.698 135.21 176.591 134.996 175.735C134.996 175.414 134.996 175.093 134.996 174.772C135.103 167.495 135.21 160.218 135.317 152.834C135.531 130.683 135.745 108.531 135.959 86.3791C135.959 76.7479 136.173 67.1167 136.28 57.3785C136.28 56.8435 136.601 56.2014 135.531 56.2014C129.54 55.9874 123.548 55.8804 117.45 55.8804C117.022 55.8804 116.487 55.7733 115.845 56.0944C117.022 57.4855 118.092 58.8767 119.162 60.2679C119.376 60.5889 120.018 60.6959 119.697 61.338C119.59 61.124 119.376 61.124 119.055 61.124C117.771 59.6258 116.38 58.2346 115.096 56.7365C114.454 55.9874 113.813 55.7733 112.85 55.9874C112.101 55.8804 111.352 55.8804 110.496 55.9874C111.566 57.6996 113.278 58.9837 114.027 60.91C113.385 61.017 113.171 60.4819 112.85 60.3749C111.673 59.0907 110.389 57.9136 109.212 56.6294C108.57 55.8804 107.928 55.6663 107.072 55.8804C106.752 55.8804 106.431 55.8804 106.217 55.8804C92.2015 55.8804 78.2933 55.8804 64.2782 55.7733C64.0642 55.7733 63.7433 55.6663 63.5293 55.9874C66.8459 59.9469 70.0555 63.9063 72.0882 68.8289C71.3393 68.6149 71.3393 67.9728 70.9113 67.7588C68.2367 63.9063 65.3481 60.1609 62.3525 56.5224C61.7105 55.6663 60.9617 55.3453 59.8918 55.6663C59.1429 55.5593 58.394 55.5593 57.5381 55.6663C58.394 57.0575 59.6778 58.1276 60.3198 59.7328C59.5709 59.7328 59.4638 58.9837 58.9289 58.9837C58.9289 58.7697 58.929 58.6627 58.715 58.7697V58.6627ZM32.2895 26.3447C30.6847 27.4149 29.4009 28.9131 28.224 30.4112C27.6891 30.9463 28.224 31.1603 28.545 31.4814C28.8659 31.8024 29.1869 31.9094 29.4009 31.4814C30.3637 29.7692 31.3266 28.164 32.2895 26.4518C32.3965 26.4518 32.5034 26.4518 32.3964 26.2377C32.2895 26.2377 32.2894 26.2377 32.1825 26.3447H32.2895ZM44.8068 21.5291C44.1649 21.7432 44.0579 21.1011 43.8439 20.7801C43.63 20.459 43.523 20.031 42.9881 20.352C42.0252 20.9941 40.9553 21.4221 39.8855 22.2782C41.1693 22.2782 41.1693 23.3484 41.7042 23.8834C42.7741 23.1343 43.844 22.3853 44.8068 21.6362C45.7697 21.1011 46.8395 20.673 47.8024 20.031C48.5513 19.6029 47.8024 19.1749 47.8024 18.7468C47.8024 18.4258 47.8024 17.9977 47.0535 18.2117C45.4487 18.6398 44.8068 19.4959 44.8068 21.1011C44.8068 21.3151 44.8068 21.4221 44.8068 21.6362V21.5291ZM121.516 14.3593C120.66 13.6102 119.59 13.7172 118.627 13.3962C118.413 13.3962 118.092 13.2891 118.092 13.7172C118.092 15.0014 117.236 16.0715 116.701 17.1416C116.808 17.1416 116.915 17.3556 117.022 17.3556C117.985 17.6767 119.055 17.8907 120.018 18.2117C120.446 18.4258 120.767 18.5328 121.195 18.7468C123.762 19.7099 123.762 19.7099 124.725 17.1416C124.939 16.6065 124.939 15.8575 125.688 15.8575C126.223 16.6065 125.581 17.2486 125.474 17.8907C125.367 18.6398 124.297 19.2819 124.832 19.924C125.26 20.459 126.223 20.566 126.972 20.9941C127.507 21.2081 127.721 21.1011 127.935 20.566C128.256 19.6029 128.577 18.5328 129.005 17.5697C129.112 17.1416 129.005 16.9276 128.684 16.8206C127.721 16.4995 126.865 15.8575 125.902 15.7504C124.725 15.1084 123.441 14.5733 122.05 14.3593C122.05 14.3593 121.944 14.3593 121.837 14.3593H121.516ZM94.2342 13.2891C95.732 13.2891 97.1228 13.7172 98.6206 13.6102C99.9045 13.8242 101.188 13.9312 102.365 14.1452C103.114 14.2523 103.328 14.0382 103.221 13.2891C103.221 12.326 103.221 11.3629 103.649 10.3998C103.007 10.3998 102.365 10.1858 101.723 10.0787C100.083 9.86472 99.0486 10.5425 98.6206 12.112C98.6206 12.326 98.6206 12.6471 98.5136 12.8611C98.1927 13.0751 97.8718 13.8242 97.7648 12.8611C97.7648 11.898 97.7647 10.9349 97.9787 9.75771H94.1272C92.4155 9.54368 90.7037 9.6507 88.9919 9.75771C87.9221 9.75771 86.7452 9.75771 85.6753 9.75771C84.8194 9.75771 83.6426 9.54368 83.2147 9.97174C82.6797 10.5068 83.2147 11.6839 83.2147 12.5401C82.0378 12.5401 82.3588 11.5769 82.3588 11.0419C82.1448 9.97174 81.6099 9.6507 80.6471 9.86472C79.2562 10.0787 77.9724 10.0788 76.5815 10.1858C74.2279 10.3998 74.2279 10.5068 74.1209 13.0751C75.0838 13.0751 76.0466 13.0751 77.0095 13.0751C77.8654 13.0751 78.1864 12.8611 77.9724 12.005C77.9724 11.4699 77.5444 10.6138 78.1863 10.6138C78.9352 10.6138 78.7213 11.4699 78.7213 12.005C78.7213 12.7541 78.9353 13.0751 79.6842 12.9681C80.861 12.9681 82.0378 12.9681 83.2147 12.8611C85.0334 12.8611 86.8522 12.9681 88.564 13.0751C90.2757 13.0751 92.0945 13.2891 93.8063 13.2891H94.2342ZM51.7609 16.1785C52.2958 16.1785 52.8308 16.1785 52.8308 16.9276C52.8308 17.7837 53.2587 17.8907 54.1145 17.5697C57.5381 16.2855 60.9617 15.1084 64.7062 14.2523C63.7433 13.8242 64.4922 12.326 63.5293 12.433C62.4595 12.433 61.0687 12.433 60.6407 13.9312C59.7848 13.1821 54.3286 14.5733 51.7609 16.1785C50.798 16.1785 49.9421 16.7136 49.1932 17.1416C48.3373 17.6767 49.0862 18.3188 49.1932 18.9608C49.3002 19.6029 49.8351 19.0679 50.0491 18.9608C50.798 18.7468 51.6539 18.5328 52.0819 18.1047C52.5098 17.6767 51.5469 17.0346 51.7609 16.3925C51.7609 16.3925 51.7609 16.2855 51.7609 16.1785ZM117.664 13.1821C115.31 12.326 112.85 11.791 110.282 11.3629C110.175 12.8611 109.854 14.1452 108.998 15.3224C111.031 15.8575 113.064 16.2855 114.989 16.8206C115.845 17.0346 115.952 16.8206 116.166 16.0715C116.487 15.0014 116.487 13.8242 117.664 13.2891C117.664 13.2891 117.771 13.2891 117.878 13.2891H117.664V13.1821ZM137.136 174.665C136.993 175.949 137.563 176.591 138.847 176.591C139.275 176.591 139.703 176.591 140.131 176.591C140.987 176.591 141.308 176.27 141.308 175.307C141.629 148.875 141.95 122.442 142.378 96.0103C142.699 75.0357 142.806 54.1681 143.341 33.1936C143.341 32.4445 143.341 31.8024 142.485 31.4814C141.094 30.4112 139.703 29.4481 137.991 28.592C137.991 29.0201 137.991 29.2341 137.991 29.5551C137.67 76.4269 137.456 123.299 137.136 170.277C137.136 171.776 137.136 173.274 137.136 174.772V174.665ZM41.1693 19.0678C41.7042 18.8538 42.1322 18.6398 42.6671 18.3188C48.3374 15.1084 54.3286 12.6471 60.6407 11.0419C67.8088 9.11563 75.1908 8.25953 82.5728 7.83147C91.9875 7.29641 101.295 7.61745 110.603 9.32966C121.302 11.2559 131.144 15.3224 140.559 20.673C142.699 21.9572 144.945 23.1343 146.871 24.8466C148.155 25.9167 149.332 26.9868 150.83 27.7359C152.969 28.806 154.895 30.0902 157.035 31.3744C157.035 30.7323 156.607 30.5183 156.393 30.1972C154.039 27.2008 151.365 24.5255 148.583 21.9572C137.67 11.791 124.832 5.90524 110.068 3.87199C102.151 2.80186 94.2342 2.58783 86.3173 3.01588C76.5816 3.55095 67.1668 5.26316 57.9661 8.68758C51.6539 11.0419 46.0906 14.5733 40.9553 18.8538C40.8483 18.8538 40.7413 18.9608 40.6344 19.0678C40.8483 19.1749 40.9553 19.0678 41.1693 19.0678ZM43.309 174.665C43.523 173.916 43.523 173.167 43.523 172.418C43.737 123.406 43.9509 74.3936 44.1649 25.3816C44.1649 25.0606 44.3788 24.7395 43.9509 24.4185C42.0252 25.8097 39.9925 27.2008 38.1737 28.806C37.4248 29.1271 37.2108 29.5551 37.2108 30.4112C37.2108 32.1234 37.3178 33.7286 37.3178 35.4409C37.7458 75.9988 38.2807 116.557 38.7086 157.222C38.7086 162.786 38.7086 168.351 39.1365 173.916C39.1365 174.772 38.8156 175.949 39.4575 176.377C39.9925 176.805 41.1693 176.377 41.9182 176.377C43.202 176.591 43.523 175.949 43.202 174.879L43.309 174.665ZM116.701 42.9318C117.058 44.0019 118.199 44.4656 120.125 44.3229C119.804 43.5738 119.376 42.9318 119.055 42.1827C118.413 40.7915 117.45 39.5074 117.236 37.9022C117.985 37.4741 118.199 38.0092 118.413 38.5442C119.162 40.0424 119.911 41.5406 120.66 43.0388C120.874 44.3229 121.623 44.644 122.799 44.537C124.19 44.537 125.688 44.537 127.186 44.537C128.684 44.537 128.684 44.537 128.577 42.9318C128.684 39.1863 128.898 35.5479 129.112 31.8024C129.112 31.1603 128.898 31.0533 128.363 31.1603C126.758 31.1603 125.153 31.2673 123.548 31.2673C101.83 30.9463 80.0051 30.6253 58.287 30.3042C56.2543 30.3042 54.3286 30.3042 52.2958 30.3042C51.4399 29.9832 51.226 30.4112 51.226 31.2673C51.226 34.4777 51.226 37.7951 51.3329 41.0055C51.3329 41.9687 50.798 43.2528 51.4399 43.7879C52.0818 44.43 53.3657 44.0019 54.4355 44.0019C74.7628 44.2159 95.0901 44.0019 115.417 44.3229C115.631 44.3229 115.845 44.3229 115.952 44.1089C115.738 43.6809 115.417 43.2528 115.203 42.7177C114.882 42.0757 114.241 41.4336 114.669 40.5775C116.059 40.6845 115.952 42.1827 116.594 42.9318H116.701ZM45.4487 23.5624C45.4487 32.6585 45.4487 41.7546 45.4487 50.8507C45.4487 53.5261 45.4487 53.5261 48.0164 53.5261C77.1165 53.5261 106.11 54.3822 135.21 54.0611C136.387 54.0611 136.387 53.5261 136.28 52.67C136.28 44.537 136.494 36.404 136.601 28.271C136.601 27.8429 136.601 27.5219 136.066 27.3079C135.531 26.9868 134.889 26.7728 134.354 26.4518C133.712 26.1307 133.498 26.2377 133.498 26.8798C133.498 27.7359 133.498 28.699 133.498 29.5551C133.498 30.5182 133.177 31.0533 132.214 30.8393C132 30.8393 131.786 30.8393 131.572 30.8393C130.716 30.8393 130.395 30.8393 130.395 32.0164C130.395 35.8689 130.395 39.8284 130.181 43.6809C130.181 45.6071 129.967 45.7141 128.042 45.7141C125.046 45.7141 121.944 45.7141 118.948 45.7141C96.4809 45.6071 73.9069 45.3931 51.4399 45.2861C50.584 45.2861 50.1561 45.072 50.1561 44.0019C49.9421 39.7214 49.8351 35.4408 49.8351 31.1603C49.8351 30.7323 50.0491 30.1972 49.4072 29.9832C48.1234 29.5551 48.0164 28.592 48.1234 27.4149C48.1234 26.3447 48.2303 25.3816 48.2303 24.3115C48.2303 23.3484 48.6583 23.0273 49.6212 23.1343C50.798 23.1343 51.9748 23.1343 53.2587 23.1343C77.7584 23.2414 102.258 23.4554 126.758 23.6694C127.186 23.6694 127.614 23.6694 128.042 23.6694C127.721 23.2414 127.293 23.1343 126.972 22.9203C119.804 19.6029 112.315 17.6767 104.612 16.2855C99.5835 15.4294 94.4482 15.1084 89.3129 14.8943C81.075 14.5733 72.944 14.3593 64.8131 16.0715C58.501 17.4627 52.2958 19.3889 46.6255 22.4923C46.1976 22.7063 45.5557 22.8133 45.5557 23.4554L45.4487 23.5624ZM154.253 186.222C154.36 186.222 154.574 186.222 154.681 186.115C154.681 183.226 154.681 180.23 154.681 177.34C154.681 163.964 154.681 150.48 154.895 137.103C155.109 120.409 155.109 103.822 155.216 87.1282C155.216 75.8918 155.216 64.7624 155.323 53.5261C155.323 49.1385 155.537 44.644 155.644 40.2564C155.644 39.7214 155.537 39.5074 155.109 39.2933C152.648 37.7951 150.295 36.1899 147.727 34.9058C146.657 34.3707 145.694 33.5146 144.517 33.1936C144.517 33.5146 144.517 33.7286 144.517 33.9427C144.517 47.9614 144.518 62.0871 144.304 76.1058C144.09 90.3386 143.983 104.464 143.876 118.697C143.662 137.21 143.662 155.724 143.341 174.237C143.341 176.912 143.983 178.517 146.229 180.016C149.118 181.942 151.686 184.296 154.36 186.436L154.253 186.222ZM103.863 14.2523C104.398 14.3593 104.933 14.4663 105.468 14.5733C107.607 14.93 108.82 14.0382 109.105 11.898V11.6839C109.105 11.2559 109.105 11.0419 108.57 11.0419C107.5 10.9349 106.431 10.7208 105.254 10.5068C104.719 10.5068 104.505 10.5068 104.398 11.1489C104.398 12.219 103.97 13.1821 103.649 14.2523H103.863ZM134.675 19.7099C134.568 19.8169 134.461 19.924 134.354 20.138C133.819 21.2081 133.284 22.3853 132.856 23.4554C133.819 23.9904 134.675 24.4185 135.638 24.9536C135.638 24.9536 135.638 24.9536 135.745 24.9536C136.28 25.2746 136.494 25.1676 136.601 24.5255C136.708 23.5624 137.135 22.7063 137.563 21.9572C137.563 21.7432 137.991 21.4221 137.777 21.3151C136.815 20.7801 135.745 20.245 134.675 19.7099ZM133.605 19.4959C133.605 19.3532 133.141 19.0322 132.214 18.5328C130.181 17.5697 130.181 17.4627 129.539 19.6029C129.326 20.352 128.149 20.9941 128.898 21.7432C129.433 22.2782 130.395 22.4923 131.251 22.8133C131.465 22.8133 131.786 23.0273 131.893 22.8133C132.428 21.7432 132.963 20.673 133.498 19.6029L133.605 19.4959ZM145.48 26.2377C145.159 27.2008 144.838 28.0569 144.517 28.9131C144.304 29.5551 144.517 30.0902 145.052 30.5182C147.192 32.0164 147.192 32.1234 148.155 29.6621C148.369 29.2341 148.69 28.9131 148.155 28.378C147.299 27.6289 146.55 26.7728 145.48 26.1307V26.2377ZM137.777 24.8466C137.777 25.9167 138.74 27.0938 139.703 27.2008C139.917 27.2008 140.131 27.2008 140.238 26.9868C140.666 26.0237 141.094 25.0606 141.522 24.0975C141.522 23.8834 141.522 23.6694 141.415 23.5624C140.559 23.1343 139.81 22.1712 138.954 22.3853C138.312 22.4923 138.098 23.6694 137.884 24.4185C137.884 24.6325 137.884 24.9536 137.884 24.9536L137.777 24.8466ZM143.127 29.2341C143.448 28.378 143.662 27.5219 143.983 26.6658C144.41 25.5956 143.769 24.5255 142.699 24.3115C142.485 24.3115 142.378 24.3115 142.271 24.4185C141.736 25.4886 140.987 26.6658 140.88 27.7359C140.88 28.271 142.164 28.806 142.913 29.2341C142.913 29.2341 142.913 29.2341 143.127 29.2341ZM37.3178 27.3079C38.0667 26.6658 38.8156 26.1307 39.4575 25.5956C40.3134 24.9536 41.0623 24.4185 39.8855 23.4554C39.5645 23.2414 39.8854 22.7063 39.6715 22.2782C39.2435 22.5993 38.9226 22.8133 38.4946 23.1343C37.1395 24.1331 36.7472 25.5243 37.3178 27.3079ZM71.0183 13.3962C71.6603 13.3962 72.1951 13.1821 72.837 13.1821C73.372 13.1821 73.479 12.8611 73.479 12.433C73.479 10.5068 73.479 10.5068 71.6602 10.7208C71.3393 10.7208 71.1253 10.8278 70.8044 10.8278C69.3066 10.8278 69.8415 12.112 69.8415 12.8611C69.8415 13.9312 70.6974 13.0751 71.0183 13.3962ZM65.0271 14.2523C66.097 14.0382 67.1668 13.9312 68.2367 13.7172C69.5205 13.3962 68.6646 12.433 68.7716 11.6839C68.7716 10.9349 68.1297 11.4699 67.8088 11.4699C66.311 11.6839 64.5992 11.791 65.0271 14.2523ZM32.6104 29.2341C31.9685 30.0902 31.3266 31.0533 30.6847 31.9094C30.3637 32.3375 30.4707 32.5515 30.8987 32.7655C31.2196 32.9795 31.5406 33.1936 31.8615 32.7655C32.1825 32.3375 32.5035 31.9094 32.8244 31.5884C33.7873 30.8393 33.8942 30.0902 32.7174 29.2341H32.6104ZM34.6432 29.3411C34.7502 29.3411 34.8571 29.4481 34.9641 29.5551C35.2851 29.1271 35.713 28.699 36.034 28.271C36.5689 27.4149 36.034 26.7728 35.4991 26.2377C34.9641 25.9167 34.8571 26.6658 34.5362 26.8798C33.3593 27.8429 34.6432 28.485 34.7501 29.2341L34.6432 29.3411Z" fill="#04090A"/>
<path d="M45.9831 174.665C45.9831 161.717 45.9831 148.768 45.9831 135.82C45.9831 109.387 45.7691 83.062 45.6621 56.6298C45.6621 55.5597 45.8761 55.2386 46.946 55.3457C49.2996 55.4527 51.7603 55.3456 54.1139 55.4527C55.1838 57.2719 56.6816 58.556 58.3934 59.6262C59.1423 60.0542 59.0353 59.3051 59.1423 58.9841C59.6772 58.9841 59.7842 59.6262 60.5331 59.7332C59.8912 58.128 58.6074 57.0579 57.7515 55.6667C58.6074 55.5597 59.3563 55.5597 60.1052 55.6667C60.2122 56.6298 61.068 57.0579 61.6029 57.6999C64.2776 60.6963 66.7383 63.9067 69.6269 66.796C70.0548 67.2241 70.3758 67.8662 71.1247 67.7592C71.5526 67.9732 71.5526 68.6153 72.3015 68.8293C70.2688 63.9067 67.0592 59.8402 63.7427 55.9877C63.9566 55.6667 64.1706 55.7737 64.4916 55.7737C78.5067 55.7737 92.4149 55.7737 106.43 55.8807C106.751 55.8807 107.072 55.8807 107.286 55.8807C108.57 58.021 110.388 59.5192 112.314 60.8033C112.849 61.1244 113.17 61.1244 112.956 60.3753C113.384 60.3753 113.491 61.0173 114.133 60.9103C113.384 58.9841 111.779 57.807 110.602 55.9877C111.458 55.8807 112.207 55.8807 112.956 55.9877C114.775 58.556 117.022 60.6963 119.482 62.6225C119.803 62.8366 120.124 63.1576 120.445 62.8366C120.659 62.8366 120.98 63.0506 120.873 62.8366C120.873 62.5155 120.659 61.8734 120.017 62.0875C120.445 61.8734 120.017 61.5524 120.017 61.4454C119.91 61.2314 119.696 61.4454 119.589 61.5524C120.017 60.9103 119.375 60.8033 119.054 60.4823C117.984 59.0911 116.808 57.6999 115.738 56.3088C116.38 55.9877 116.808 56.0947 117.343 56.0947C123.334 56.0947 129.325 56.2018 135.423 56.4158C136.493 56.4158 136.172 57.1649 136.172 57.5929C136.172 67.2241 135.958 76.8553 135.851 86.5935C135.637 108.745 135.423 130.897 135.209 153.049C135.209 160.326 134.995 167.602 134.888 174.986C130.823 174.986 126.757 174.986 122.692 174.986C120.124 171.669 117.45 168.459 114.668 165.248C114.24 164.82 113.812 163.964 113.17 165.141C112.528 165.89 112.956 166.532 113.277 167.174C114.347 169.208 115.952 170.813 117.343 172.632C117.877 173.381 118.733 174.023 119.054 175.093H114.989C113.491 173.488 112.1 171.883 110.602 170.278C110.282 169.85 109.854 169.315 109.212 169.85C108.142 169.957 108.57 170.706 108.891 171.134C109.747 172.418 110.602 173.595 111.672 175.093H45.8761L45.9831 174.665ZM123.548 113.668C123.441 113.668 123.334 113.668 123.227 113.668C123.12 100.398 122.906 87.1285 122.799 73.8589C122.799 71.0766 122.799 71.0766 119.91 71.0766C99.4759 71.3976 78.9347 71.7187 58.5004 72.1467C56.6816 72.1467 56.5746 72.2537 56.7886 73.9659C56.7886 74.501 56.7886 75.0361 56.7886 75.6781C56.7886 80.3867 56.7886 85.2023 56.7886 89.9109C56.7886 111.314 56.5746 132.716 56.4676 154.119C56.4676 156.366 56.6816 156.58 58.8213 156.473C79.1486 156.473 99.5829 156.259 119.91 156.152C120.552 156.152 121.087 156.152 121.729 156.152C123.548 155.938 123.655 155.724 123.548 154.012C123.548 153.37 123.548 152.835 123.548 152.193C123.548 139.351 123.548 126.509 123.548 113.775V113.668ZM89.5263 70.2205C93.1638 70.2205 95.8384 67.6522 95.8384 64.1207C95.8384 60.8033 92.7358 57.5929 89.5263 57.6999C85.2468 57.8069 83.642 60.4823 83.4281 64.5488C83.2141 67.6522 86.1027 70.2205 89.5263 70.2205Z" fill="#1AC9FD"/>
<path d="M154.253 186.222C151.578 184.082 149.011 181.728 146.122 179.801C143.875 178.303 143.233 176.698 143.233 174.023C143.554 155.509 143.554 136.996 143.768 118.483C143.875 104.25 144.089 90.1245 144.196 75.8917C144.41 61.873 144.517 47.7473 144.41 33.7286C144.41 33.5146 144.41 33.3005 144.41 32.9795C145.587 33.3005 146.55 34.1566 147.62 34.6917C150.187 35.9759 152.541 37.5811 155.002 39.0792C155.43 39.2933 155.537 39.5073 155.537 40.0424C155.43 44.4299 155.216 48.9244 155.216 53.312C155.216 64.5484 155.216 75.6777 155.109 86.9141C155.109 103.608 155.109 120.195 154.788 136.889C154.681 150.266 154.681 163.749 154.574 177.126C154.574 180.015 154.574 183.012 154.574 185.901C154.467 185.901 154.253 185.901 154.146 186.008L154.253 186.222Z" fill="#0096C2"/>
<path d="M45.4489 23.5625C45.4489 22.9205 46.0908 22.8135 46.5187 22.5994C52.296 19.496 58.3941 17.5698 64.7063 16.1786C72.7302 14.3594 80.9682 14.5734 89.2061 15.0015C94.3414 15.2155 99.4767 15.5366 104.505 16.3927C112.208 17.7838 119.697 19.8171 126.865 23.0275C127.293 23.2415 127.614 23.3485 127.935 23.7766C127.507 23.7766 127.079 23.7766 126.651 23.7766C102.151 23.5625 77.6516 23.4555 53.1519 23.2415C51.975 23.2415 50.7981 23.2415 49.5143 23.2415C48.5514 23.2415 48.1235 23.5625 48.1235 24.4187C48.1235 25.4888 48.1235 26.4519 48.0166 27.522C47.9096 28.6992 48.0165 29.6623 49.3003 30.0903C49.9422 30.3044 49.7283 30.8394 49.7283 31.2675C49.7283 35.548 49.8353 39.8285 50.0492 44.1091C50.0492 45.0722 50.4772 45.2862 51.3331 45.3932C73.8001 45.5002 96.3741 45.7143 118.841 45.8213C121.837 45.8213 124.939 45.8213 127.935 45.8213C129.861 45.8213 129.968 45.8213 130.075 43.788C130.182 39.9355 130.289 35.9761 130.289 32.1236C130.289 31.0535 130.61 30.8394 131.465 30.9464C131.679 30.9464 131.893 30.9464 132.107 30.9464C133.177 31.1605 133.498 30.6254 133.391 29.6623C133.391 28.8062 133.391 27.8431 133.391 26.987C133.391 26.2379 133.605 26.1309 134.247 26.5589C134.782 26.88 135.317 27.201 135.959 27.415C136.387 27.629 136.494 27.9501 136.494 28.3781C136.387 36.5111 136.28 44.6441 136.173 52.6701C135.531 52.3491 134.889 52.4561 134.247 52.4561C126.009 52.4561 117.878 52.4561 109.64 52.4561C89.313 52.2421 68.9857 52.028 48.6584 51.921C46.8397 51.921 46.8397 51.921 46.7327 49.9948C46.6257 42.9319 46.5188 35.8691 46.4118 28.8062C46.4118 27.308 46.3048 25.9168 46.1978 24.4187C46.1978 23.6696 45.8768 23.3485 45.1279 23.5625H45.4489Z" fill="#1AC9FC"/>
<path d="M52.2959 30.1973C54.3286 30.1973 56.2543 30.1973 58.2871 30.1973C80.0052 30.5183 101.83 30.8393 123.548 31.1604C125.153 31.1604 126.758 31.1604 128.363 31.0534C128.898 31.0534 129.112 31.0534 129.112 31.6954C128.898 35.4409 128.791 39.0794 128.577 42.8248C125.902 42.8248 123.334 42.8248 120.66 42.8248C119.911 41.3266 119.162 39.8284 118.413 38.3303C118.199 37.9022 117.985 37.2601 117.236 37.6882C116.808 37.3671 116.808 36.404 116.059 36.8321C115.417 37.1531 115.845 37.7952 116.059 38.3303C116.594 39.8284 117.129 41.3266 117.985 42.7178C117.45 42.7178 117.022 42.7178 116.701 42.7178C116.059 41.9687 116.273 40.4705 114.776 40.3635C114.562 39.9355 114.348 39.4004 114.027 38.9723C113.813 38.6513 113.492 38.1162 113.064 38.4373C112.529 38.6513 112.636 39.1864 112.85 39.7214C113.064 40.3635 113.385 41.0056 113.706 41.5407C114.134 42.3968 113.92 42.7178 112.957 42.7178C93.2714 42.7178 73.479 42.7178 53.7937 42.7178C52.9378 42.7178 52.7238 42.3968 52.7238 41.6477C52.4028 38.3303 52.6168 35.1199 52.5098 31.8025C52.5098 31.2674 52.5099 30.7323 52.2959 30.1973Z" fill="#58D7FD"/>
<path d="M38.1734 28.6991C39.9922 27.0939 41.9179 25.7027 43.9506 24.3115C44.3786 24.6326 44.1646 24.9536 44.1646 25.2746C43.9506 74.2866 43.7367 123.299 43.5227 172.311C43.5227 173.06 43.5227 173.809 43.3087 174.558C43.0948 174.558 42.7738 174.558 42.5598 174.558C41.383 174.772 40.955 174.237 40.955 173.06C40.955 170.277 40.9551 167.388 40.8481 164.606C40.6341 153.69 40.5271 142.775 40.3131 131.86C40.3131 127.044 40.3131 122.336 40.0992 117.52C39.8852 111.42 39.9922 105.427 39.7782 99.3277C39.5642 91.0877 39.4573 82.7407 39.2433 74.5007C39.0293 66.4747 38.8153 58.3417 38.7084 50.3157C38.6014 44.323 38.4944 38.3302 38.3874 32.3375C38.3874 31.0533 38.1734 29.8762 38.0664 28.592L38.1734 28.6991Z" fill="#58D6FB"/>
<path d="M40.9551 18.8541C46.0904 14.5736 51.6537 11.0421 57.9658 8.68785C67.0596 5.26344 76.5814 3.55123 86.3171 3.01616C94.234 2.58811 102.151 2.69512 110.068 3.87227C124.725 5.90551 137.67 11.7912 148.583 21.9575C151.364 24.5258 154.039 27.3081 156.393 30.1975C156.607 30.5185 157.035 30.7326 157.035 31.3746C154.895 30.0905 152.969 28.8063 150.829 27.7362C149.332 26.9871 148.155 25.917 146.871 24.8468C144.945 23.2416 142.806 21.9575 140.559 20.6733C131.144 15.3227 121.301 11.2562 110.603 9.32993C101.295 7.61772 91.9873 7.29669 82.5726 7.83175C75.1905 8.2598 67.8085 9.22292 60.6405 11.0421C54.3283 12.6473 48.3371 15.1086 42.6669 18.319C42.2389 18.6401 41.704 18.8541 41.1691 19.0681C41.1691 19.0681 41.0621 18.9611 40.9551 18.8541Z" fill="#0094C0"/>
<path d="M137.135 174.665C137.135 173.167 137.135 171.669 137.135 170.171C137.456 123.299 137.67 76.4272 137.991 29.4485C137.991 29.2344 137.991 28.9134 137.991 28.4854C139.595 29.3415 141.093 30.3046 142.484 31.3747C141.949 31.6957 141.842 32.1238 141.842 32.6589C141.842 34.05 141.628 35.3342 141.628 36.7254C141.521 41.541 141.628 46.4636 141.414 51.2791C141.2 57.1649 141.414 62.9436 141.2 68.8293C140.986 74.822 141.2 80.9218 140.986 86.9145C140.772 92.2652 140.986 97.7228 140.772 103.073C140.558 112.17 140.558 121.159 140.451 130.255C140.451 133.786 140.451 137.211 140.344 140.742C140.023 151.229 139.916 161.61 139.702 172.097C139.702 174.451 139.702 174.451 137.349 174.451L137.135 174.665Z" fill="#58D6FB"/>
<path d="M38.1747 28.6988C38.1747 29.983 38.4956 31.1601 38.4956 32.4443C38.6026 38.437 38.7096 44.4297 38.8166 50.4225C39.0306 58.4485 39.1375 66.5815 39.3515 74.6074C39.5655 82.8474 39.6725 91.1945 39.8864 99.4345C39.9934 105.534 39.8864 111.527 40.2074 117.627C40.4214 122.442 40.3144 127.151 40.4214 131.966C40.6353 142.882 40.7423 153.797 40.9563 164.712C40.9563 167.495 41.1703 170.384 41.0633 173.167C41.0633 174.451 41.3843 174.879 42.6681 174.665C42.8821 174.665 43.203 174.665 43.417 174.665C43.6309 175.735 43.417 176.377 42.1332 176.163C41.2773 176.163 40.2074 176.484 39.6725 176.163C39.0305 175.735 39.3515 174.558 39.3515 173.702C39.0306 168.137 39.0306 162.572 38.9236 157.008C38.3887 116.45 37.9607 75.8916 37.5327 35.2266C37.5327 33.5144 37.5328 31.9092 37.4258 30.197C37.4258 29.4479 37.6398 28.9128 38.3887 28.5918L38.1747 28.6988Z" fill="#F6F9FA"/>
<path d="M137.136 174.665C139.489 174.665 139.382 174.665 139.489 172.311C139.703 161.824 139.81 151.337 140.131 140.956C140.131 137.425 140.238 134 140.238 130.469C140.345 121.373 140.345 112.384 140.559 103.288C140.666 97.937 140.559 92.4793 140.773 87.1287C140.987 81.1359 140.773 75.0362 140.987 69.0434C141.201 63.1577 140.987 57.379 141.201 51.4933C141.415 46.6777 141.201 41.7551 141.415 36.9395C141.415 35.5484 141.522 34.2642 141.629 32.873C141.629 32.338 141.736 31.9099 142.271 31.5889C143.127 31.9099 143.234 32.552 143.127 33.3011C142.592 54.2756 142.485 75.1432 142.164 96.1178C141.736 122.55 141.415 148.982 141.094 175.414C141.094 176.378 140.773 176.699 139.917 176.699C139.489 176.699 139.061 176.699 138.634 176.699C137.35 176.699 136.779 176.057 136.922 174.772L137.136 174.665Z" fill="#F3F9FA"/>
<path d="M45.4492 23.5625C46.1981 23.3485 46.4121 23.7765 46.5191 24.4186C46.5191 25.9168 46.7331 27.308 46.7331 28.8061C46.84 35.869 46.947 42.9319 47.054 49.9947C47.054 51.921 47.054 51.814 48.9797 51.921C69.307 52.135 89.6343 52.242 109.962 52.456C118.2 52.456 126.33 52.6701 134.568 52.456C135.21 52.456 135.852 52.456 136.494 52.6701C136.601 53.5262 136.708 53.9542 135.424 54.0612C106.324 54.3823 77.3309 53.5262 48.2308 53.5262C45.6632 53.5262 45.6632 53.5262 45.6632 50.8508C45.6632 41.7547 45.6632 32.6586 45.6632 23.5625H45.4492Z" fill="#F2F7F8"/>
<path d="M45.9836 174.666H111.78C110.71 173.167 109.854 171.99 108.998 170.706C108.677 170.278 108.249 169.529 109.319 169.422C109.319 170.278 110.068 170.813 110.496 171.455C111.887 173.167 113.278 174.773 114.775 176.378C114.347 176.699 114.027 176.592 113.599 176.592C99.2625 176.592 84.8195 176.378 70.4834 176.271C62.6734 176.271 54.8634 176.057 47.0535 176.057C45.7696 176.057 45.5557 175.629 45.8767 174.559L45.9836 174.666Z" fill="#F2F7F8"/>
<path d="M52.2953 30.197C52.6163 30.7321 52.5093 31.2671 52.5093 31.8022C52.5093 35.1196 52.5093 38.33 52.7232 41.6474C52.7232 42.3965 52.9372 42.7175 53.7931 42.7175C73.4785 42.7175 93.2708 42.7175 112.956 42.7175C113.919 42.7175 114.24 42.5035 113.705 41.5404C113.384 40.8983 113.063 40.3632 112.849 39.7212C112.635 39.2931 112.528 38.758 113.063 38.437C113.598 38.223 113.812 38.651 114.026 38.9721C114.347 39.4001 114.561 39.8282 114.775 40.3632C114.347 41.2194 114.989 41.7544 115.31 42.5035C115.524 43.0386 115.845 43.4666 116.059 43.8947C115.952 44.2157 115.631 44.1087 115.524 44.1087C95.1966 43.7877 74.8693 44.1087 54.542 43.7877C53.4722 43.7877 52.2953 44.1087 51.5464 43.5736C50.9045 43.0386 51.4394 41.7544 51.4394 40.7913C51.4394 37.5809 51.4394 34.2635 51.3324 31.0531C51.3324 30.197 51.4394 29.7689 52.4023 30.09L52.2953 30.197Z" fill="#F2F7F8"/>
<path d="M117.664 13.2895C116.487 13.9316 116.487 15.1087 116.166 16.0719C115.952 16.821 115.738 17.035 114.989 16.821C113.063 16.2859 111.031 15.8578 108.998 15.3228C109.854 14.2526 110.175 12.8615 110.282 11.3633C112.849 11.7913 115.31 12.3264 117.664 13.1825V13.2895Z" fill="#F6F9FA"/>
<path d="M51.8682 16.1791C54.4358 14.5739 59.8921 13.1827 60.748 13.9318C61.1759 12.4336 62.5667 12.5406 63.6366 12.4336C64.5995 12.4336 63.9575 13.8248 64.8134 14.2528C61.0689 15.0019 57.6454 16.2861 54.2219 17.5702C53.366 17.8913 53.045 17.7842 52.938 16.9281C52.938 16.1791 52.4031 16.1791 51.8682 16.1791Z" fill="#19C3F5"/>
<path d="M115.096 174.665H119.161C118.734 173.595 117.985 172.953 117.45 172.204C116.059 170.385 114.454 168.779 113.384 166.746C113.063 166.104 112.635 165.462 113.277 164.713C115.952 168.244 118.627 171.669 121.408 175.2C121.729 175.628 121.943 175.949 122.371 176.484C120.445 176.484 118.84 176.484 117.129 176.484C116.059 176.484 115.738 175.2 115.096 174.558V174.665Z" fill="#F2F7F8"/>
<path d="M122.799 174.665C126.864 174.665 130.93 174.665 134.995 174.665C134.995 174.986 134.995 175.307 134.995 175.628C135.102 176.484 134.674 176.591 134.032 176.591C131.465 176.591 128.897 176.484 126.329 176.591C124.511 176.698 123.441 176.056 122.799 174.558V174.665Z" fill="#F3F9FA"/>
<path d="M83.5352 12.754C82.3584 12.754 81.1815 12.754 80.0047 12.861C79.1488 12.861 79.0418 12.6469 79.0418 11.8978C79.0418 11.3628 79.2558 10.3997 78.5069 10.5067C77.865 10.5067 78.1859 11.4698 78.2929 11.8978C78.3999 12.754 78.1859 13.075 77.33 12.968C76.3672 12.968 75.4043 12.968 74.4414 12.968C74.5484 10.3997 74.5484 10.3997 76.9021 10.0786C78.2929 9.97161 79.6837 9.8646 80.9676 9.75759C82.0374 9.65057 82.4654 9.75759 82.6793 10.9347C82.6793 11.4698 82.4653 12.4329 83.5352 12.4329C83.5352 12.4329 83.5352 12.6469 83.5352 12.754Z" fill="#19C3F5"/>
<path d="M71.0186 67.6521C70.2697 67.7591 69.9487 67.117 69.5208 66.689C66.6322 63.7996 64.1715 60.5892 61.4968 57.5929C60.9619 56.9508 60.106 56.5227 59.999 55.5596C61.0689 55.2386 61.7108 55.5596 62.4597 56.4157C65.5623 60.0542 68.344 63.7996 71.0186 67.6521Z" fill="#F2F7F8"/>
<path d="M103.863 14.2523C104.184 13.1822 104.505 12.2191 104.612 11.1489C104.612 10.5069 104.933 10.3998 105.468 10.5069C106.538 10.7209 107.608 10.8279 108.785 11.0419C109.213 11.0419 109.32 11.363 109.32 11.684V11.898C109.034 14.0383 107.822 14.9301 105.682 14.5734C105.147 14.5734 104.612 14.3593 104.077 14.2523H103.863Z" fill="#F6F9FA"/>
<path d="M83.5353 12.7545C83.5353 12.7545 83.5353 12.5405 83.5353 12.4335C83.5353 11.5774 82.8934 10.4003 83.5353 9.86519C83.9632 9.43714 85.1401 9.65116 85.996 9.65116C87.0659 9.65116 88.2427 9.65116 89.3126 9.65116C88.8846 10.6143 89.0986 11.5774 89.2056 12.4335C89.2056 12.6475 89.2056 12.8616 89.2056 13.0756C87.3868 13.0756 85.5681 12.9686 83.8563 12.8616L83.5353 12.7545Z" fill="#1AC9FC"/>
<path d="M98.6211 12.8609C98.6211 12.6469 98.6211 12.3258 98.7281 12.1118C99.156 10.5423 100.19 9.86454 101.831 10.0786C102.473 10.0786 103.114 10.2926 103.756 10.3996C103.435 11.3627 103.221 12.3258 103.328 13.289C103.328 14.038 103.221 14.2521 102.473 14.1451C101.189 13.931 100.012 13.824 98.7281 13.61C98.7281 13.396 98.7281 13.0749 98.7281 12.8609H98.6211Z" fill="#19C3F5"/>
<path d="M134.675 19.71C135.745 20.245 136.815 20.7801 137.778 21.3152C138.099 21.5292 137.778 21.7432 137.564 21.9572C137.136 22.8133 136.708 23.5624 136.601 24.5256C136.601 25.1676 136.173 25.2746 135.745 24.9536C135.745 24.9536 135.745 24.9536 135.638 24.9536C134.675 24.4185 133.819 23.9905 132.856 23.4554C133.391 22.3853 133.926 21.2081 134.354 20.138C134.354 20.031 134.568 19.924 134.675 19.71Z" fill="#19C3F5"/>
<path d="M133.605 19.4961C133.07 20.5662 132.535 21.6364 132 22.7065C131.893 23.0275 131.572 22.9205 131.359 22.7065C130.61 22.3854 129.647 22.2784 129.005 21.6364C128.149 20.8873 129.433 20.2452 129.647 19.4961C130.289 17.3558 130.396 17.4628 132.321 18.426C133.249 18.854 133.712 19.1751 133.712 19.3891L133.605 19.4961Z" fill="#19C3F5"/>
<path d="M121.729 14.3599C123.12 14.574 124.404 15.002 125.58 15.7511C124.725 15.7511 124.725 16.6072 124.618 17.0353C123.655 19.6036 123.762 19.6036 121.087 18.6405C120.659 18.5335 120.338 18.3194 119.91 18.1054C119.91 17.9984 120.017 17.7844 120.124 17.6773C121.408 16.9283 122.05 15.4301 121.622 14.2529L121.729 14.3599Z" fill="#F6F9FA"/>
<path d="M88.9922 12.9678C88.9922 12.7537 88.9922 12.5397 88.9922 12.3257C89.9551 12.8607 89.7411 11.8976 89.8481 11.5766C89.8481 10.8275 90.597 9.86437 89.2062 9.54333C90.9179 9.32931 92.6297 9.32931 94.3415 9.54333C94.3415 9.65035 94.3415 9.75736 94.3415 9.86437C94.0205 9.86437 93.6995 9.86437 93.6995 10.1854C93.6995 10.9345 93.4856 11.7906 94.1275 12.4327C94.1275 12.6467 94.2345 12.8607 94.3415 13.0748C92.6297 13.0748 90.8109 12.8607 89.0991 12.8607L88.9922 12.9678Z" fill="#19C3F5"/>
<path d="M125.688 15.8574C126.758 15.8574 127.613 16.6065 128.469 16.9276C128.897 17.0346 129.004 17.2486 128.79 17.6766C128.469 18.6398 128.148 19.7099 127.72 20.673C127.506 21.2081 127.292 21.3151 126.758 21.1011C126.009 20.78 125.046 20.673 124.618 20.0309C124.19 19.3889 125.153 18.7468 125.26 17.9977C125.26 17.3556 126.009 16.7135 125.474 15.9644L125.688 15.8574Z" fill="#19C3F5"/>
<path d="M94.2344 13.2892C94.2344 13.0752 94.1275 12.8612 94.0205 12.6472C94.5554 11.7911 94.3414 10.935 94.2344 10.0789C94.2344 9.97184 94.2344 9.86483 94.2344 9.75781C95.4113 9.75781 96.6951 9.75781 98.086 9.75781C97.872 10.935 97.765 11.8981 97.872 12.8612C97.872 13.8243 98.2999 13.1822 98.6209 12.8612C98.6209 13.0752 98.6209 13.3963 98.6209 13.6103C97.1231 13.7173 95.7322 13.2892 94.2344 13.2892Z" fill="#F6F9FA"/>
<path d="M145.48 26.2383C146.443 26.8804 147.299 27.7365 148.155 28.4856C148.69 28.9136 148.369 29.3417 148.155 29.7697C147.192 32.231 147.192 32.124 145.052 30.6258C144.41 30.1978 144.303 29.6627 144.517 29.0206C144.838 28.1645 145.159 27.3084 145.48 26.3453V26.2383Z" fill="#19C3F5"/>
<path d="M120.232 17.6765C120.232 17.7835 120.125 17.9975 120.018 18.1045C119.055 17.7835 117.985 17.5695 117.022 17.2484C116.915 17.2484 116.808 17.1414 116.701 17.0344C117.343 15.9643 118.092 14.8941 118.092 13.61C118.092 13.1819 118.413 13.1819 118.627 13.2889C119.59 13.61 120.767 13.61 121.516 14.2521C120.66 15.2152 120.125 16.2853 120.232 17.6765Z" fill="#19C3F5"/>
<path d="M137.778 24.847C137.778 24.847 137.778 24.5259 137.778 24.3119C137.992 23.5628 138.206 22.3857 138.848 22.2787C139.704 22.0646 140.452 23.0278 141.308 23.4558C141.522 23.5628 141.522 23.7768 141.415 23.9909C140.987 24.954 140.56 25.9171 140.132 26.8802C140.132 27.0943 139.918 27.2013 139.597 27.0943C138.634 26.9872 137.671 25.8101 137.671 24.74L137.778 24.847Z" fill="#19C3F5"/>
<path d="M116.702 42.9321C117.13 42.9321 117.558 42.9321 117.985 42.9321C117.13 41.541 116.595 40.0428 116.06 38.5446C115.846 38.0095 115.418 37.3674 116.06 37.0464C116.809 36.7254 116.809 37.5815 117.237 37.9025C117.451 39.5077 118.413 40.7919 119.055 42.183C119.376 42.9321 119.804 43.5742 120.125 44.3233C118.128 44.466 116.987 44.0023 116.702 42.9321Z" fill="#F2F7F8"/>
<path d="M120.767 42.8242C123.441 42.8242 126.009 42.8242 128.684 42.8242C128.79 44.4294 128.791 44.4294 127.293 44.4294C125.795 44.4294 124.404 44.2154 122.906 44.4294C121.729 44.4294 120.981 44.2154 120.767 42.9312V42.8242Z" fill="#F3F9FA"/>
<path d="M120.552 62.7293C120.125 63.0503 119.804 62.7293 119.59 62.5152C117.129 60.589 114.882 58.4487 113.063 55.8804C113.919 55.6664 114.668 55.8804 115.31 56.6295C116.594 58.1277 117.985 59.5189 119.269 61.017C119.376 61.2311 119.376 61.5521 119.697 61.2311C119.697 61.6591 119.697 61.8732 120.232 61.7661C120.018 62.1942 120.552 62.3012 120.659 62.6222L120.552 62.7293Z" fill="#F2F7F8"/>
<path d="M143.128 29.2341C143.128 29.2341 143.021 29.2341 142.914 29.2341C142.165 28.8061 140.774 28.378 140.881 27.7359C140.881 26.5588 141.737 25.4886 142.272 24.4185C142.272 24.2045 142.486 24.2045 142.7 24.3115C143.876 24.5255 144.411 25.5957 143.983 26.6658C143.662 27.5219 143.448 28.378 143.128 29.2341Z" fill="#19C3F5"/>
<path d="M37.3181 27.3079C36.7475 25.5957 37.1397 24.2046 38.4949 23.1344C38.8158 22.8134 39.2437 22.5994 39.6717 22.2783C39.7787 22.7064 39.6717 23.1344 39.8857 23.4555C41.0625 24.4186 40.3137 24.9536 39.4578 25.5957C38.7089 26.1308 38.067 26.6659 37.3181 27.3079Z" fill="#19C3F5"/>
<path d="M71.0188 13.3959C70.6978 13.0749 69.7349 13.931 69.8419 12.8609C69.8419 12.1118 69.307 10.9346 70.8048 10.8276C71.1257 10.8276 71.3397 10.8276 71.6607 10.7206C73.5864 10.5066 73.4794 10.5066 73.4794 12.4328C73.4794 12.8609 73.3724 13.1819 72.8375 13.1819C72.1956 13.1819 71.6607 13.2889 71.0188 13.3959Z" fill="#19C3F5"/>
<path d="M112.85 60.2675C113.064 61.0166 112.743 61.0166 112.208 60.6956C110.175 59.4114 108.357 57.9133 107.18 55.773C108.036 55.559 108.677 55.773 109.319 56.5221C110.496 57.8062 111.673 58.9834 112.957 60.2675H112.85Z" fill="#F2F7F8"/>
<path d="M65.0277 14.2517C64.4927 11.7904 66.2045 11.6833 67.8093 11.4693C68.1303 11.4693 68.7722 10.9343 68.7722 11.6833C68.7722 12.3254 69.5211 13.3956 68.2372 13.7166C67.1674 14.0376 66.0975 14.1447 65.0277 14.2517Z" fill="#19C3F5"/>
<path d="M59.0362 58.9833C59.0362 59.4114 59.0361 60.1605 58.2872 59.6254C56.5755 58.5553 54.9707 57.2711 54.0078 55.4519C56.0405 54.9168 56.6824 56.6291 57.8593 57.5922C57.8593 57.9132 57.9663 58.0202 58.2872 58.1272C58.2872 58.3413 58.2873 58.4483 58.5012 58.4483C58.5012 58.6623 58.5012 58.7693 58.7152 58.7693C58.7152 58.9833 58.7152 59.0904 58.9291 59.0904L59.0362 58.9833Z" fill="#F2F7F8"/>
<path d="M44.9135 21.5288C43.8436 22.2779 42.8808 23.027 41.8109 23.7761C41.169 23.241 41.276 22.0639 39.9922 22.1709C41.062 21.3148 42.1319 20.7797 43.0947 20.2447C43.6297 19.9236 43.7366 20.2447 43.9506 20.6727C44.1646 21.1008 44.2716 21.6358 44.9135 21.4218V21.5288Z" fill="#19C3F5"/>
<path d="M44.8066 21.5297C44.8066 21.3156 44.8066 21.2086 44.8066 20.9946C44.8066 19.3894 45.5555 18.6403 47.0533 18.1053C47.6952 17.8912 47.6952 18.4263 47.8022 18.6403C47.9092 19.0684 48.6581 19.4964 47.8022 19.9245C46.8394 20.4595 45.7695 20.9946 44.8066 21.5297Z" fill="#19C3F5"/>
<path d="M51.7611 16.1787V16.3927C51.5471 17.0348 52.51 17.6769 52.082 18.1049C51.5471 18.64 50.6912 18.747 50.0493 18.9611C49.7283 18.9611 49.3004 19.6031 49.1934 18.9611C49.0864 18.426 48.3375 17.6769 49.1934 17.1418C49.9423 16.7138 50.7982 16.1787 51.7611 16.1787Z" fill="#19C3F5"/>
<path d="M32.3968 26.4517C31.4339 28.164 30.3641 29.7691 29.4012 31.4814C29.0803 32.0164 28.8663 31.9094 28.5453 31.4814C28.2244 31.1603 27.6895 30.9463 28.2244 30.4112C29.5082 28.913 30.6851 27.4149 32.2898 26.3447L32.3968 26.4517Z" fill="#0094C0"/>
<path d="M32.6108 29.2344C33.8946 30.0905 33.6806 30.8396 32.7178 31.5887C32.2898 31.9097 31.9689 32.3378 31.7549 32.7658C31.434 33.1939 31.22 33.0868 30.792 32.7658C30.3641 32.4448 30.3641 32.2307 30.578 31.9097C31.22 31.0536 31.8619 30.0905 32.5038 29.2344H32.6108Z" fill="#19C3F5"/>
<path d="M34.6438 29.3418C34.6438 28.5927 33.253 27.8436 34.4298 26.9875C34.7508 26.7735 34.9647 26.0244 35.3927 26.3454C36.0346 26.7735 36.4625 27.5226 35.9276 28.3787C35.6066 28.8068 35.2857 29.2348 34.8577 29.6629C34.7507 29.6629 34.6438 29.5558 34.5368 29.4488L34.6438 29.3418Z" fill="#19C3F5"/>
<path d="M120.232 17.6773C120.232 16.3932 120.66 15.216 121.516 14.2529C121.516 14.2529 121.623 14.2529 121.73 14.2529C122.158 15.4301 121.516 16.8212 120.232 17.6773Z" fill="#081112"/>
<path d="M119.698 61.2306C119.377 61.4447 119.377 61.2306 119.27 61.0166C119.484 61.0166 119.697 61.0166 119.911 61.2306H119.698Z" fill="#081112"/>
<path d="M41.1697 19.0685C40.9557 19.0685 40.8487 19.1755 40.6348 19.0685C40.7418 19.0685 40.8487 18.9615 40.9557 18.8545C40.9557 18.8545 41.0627 18.9615 41.1697 19.0685Z" fill="#0094C0"/>
<path d="M58.2873 58.1278C57.9664 58.1278 57.8594 57.9138 57.8594 57.5928C58.0733 57.6998 58.3943 57.8068 58.2873 58.1278Z" fill="#1AC9FD"/>
<path d="M32.2891 26.345C32.2891 26.345 32.2891 26.131 32.503 26.238C32.503 26.238 32.503 26.452 32.396 26.452L32.2891 26.345Z" fill="#0094C0"/>
<path d="M58.5011 58.448C58.2871 58.448 58.1801 58.341 58.2871 58.127C58.5011 58.127 58.6081 58.127 58.5011 58.448Z" fill="#1AC9FD"/>
<path d="M58.7149 58.6628C58.501 58.6628 58.394 58.6628 58.501 58.3418C58.7149 58.3418 58.8219 58.3418 58.7149 58.6628Z" fill="#1AC9FD"/>
<path d="M59.0362 58.9841C58.8223 58.9841 58.7153 58.9841 58.8222 58.6631C59.0362 58.6631 59.1432 58.6631 59.0362 58.9841Z" fill="#1AC9FD"/>
<path d="M123.549 113.667C123.549 126.509 123.549 139.35 123.549 152.085C123.549 152.727 123.549 153.262 123.549 153.904C123.549 155.723 123.549 155.83 121.73 156.044C121.088 156.044 120.553 156.044 119.911 156.044C99.584 156.044 79.1497 156.258 58.8224 156.365C56.5757 156.365 56.4688 156.258 56.4688 154.011C56.4688 132.608 56.6827 111.206 56.7897 89.8031C56.7897 85.0945 56.7897 80.2789 56.7897 75.5703C56.7897 75.0353 56.7897 74.5002 56.7897 73.8581C56.5757 72.1459 56.6827 72.0389 58.5015 72.0389C78.9358 71.7178 99.477 71.3968 119.911 70.9688C122.693 70.9688 122.8 70.9687 122.8 73.7511C122.907 87.0207 123.121 100.29 123.228 113.56C123.335 113.56 123.442 113.56 123.549 113.56V113.667ZM86.1038 73.323C85.7829 73.323 85.4619 73.323 85.1409 73.323C77.01 73.5371 68.8791 73.6441 60.7482 73.8581C60.7482 74.6072 60.7482 75.2493 60.7482 75.9984C60.7482 83.2753 60.6412 90.5521 60.5342 97.829C60.4272 116.449 60.7482 134.963 60.5342 153.583C60.5342 154.867 60.9622 155.081 62.032 154.867C62.46 154.867 62.7809 154.867 63.2088 154.867C82.0383 154.867 100.761 154.653 119.59 154.546C121.837 154.546 121.837 154.546 121.837 152.192C121.837 136.568 121.623 120.944 121.623 105.32C121.623 94.9397 121.623 84.5594 121.516 74.1791C121.837 73.109 121.302 72.895 120.339 72.895C112.957 73.002 105.575 73.109 98.1932 73.216C96.2674 73.216 94.3417 73.216 92.095 73.216C94.5557 76.7475 96.9094 79.8508 98.4072 83.4893C97.6583 83.8103 97.5513 83.0612 97.3373 82.7402C95.3046 80.0649 93.6998 77.1755 91.5601 74.6072C91.1321 73.5371 90.4902 73.216 89.4203 73.323C88.3505 73.323 87.2806 73.323 86.2108 73.323H86.1038ZM59.4643 115.272C59.4643 106.604 59.4643 98.8992 59.4643 91.3012C59.4643 85.8436 59.4643 80.2789 59.4643 74.8212C59.4643 74.5002 59.8923 73.9651 59.0364 73.9651C58.3945 73.9651 58.1806 74.1791 58.1806 74.7142C58.1806 76.3194 58.1806 77.9246 58.1806 79.5298C58.1806 103.929 58.1806 128.435 58.1806 152.834C58.1806 153.369 58.1806 153.904 58.1806 154.332C58.1806 154.653 58.2875 154.76 58.6085 154.76C58.9294 154.76 59.0364 154.546 59.0364 154.225C59.0364 154.011 59.0364 153.797 59.0364 153.583C59.0364 140.42 59.0364 127.258 59.3574 115.165L59.4643 115.272Z" fill="#050E10"/>
<path d="M89.5273 70.2207C86.1038 70.2207 83.2152 67.6524 83.4291 64.549C83.6431 60.4825 85.3549 57.8072 89.5273 57.7002C92.8439 57.7002 95.8395 60.8036 95.8395 64.121C95.8395 67.6524 93.1649 70.2207 89.5273 70.2207ZM84.927 63.7999C84.927 66.6893 86.7457 68.6155 89.6343 68.6155C92.202 68.6155 94.3417 66.6893 94.3417 64.121C94.3417 61.6597 91.988 59.0914 89.4203 58.9844C86.8527 58.9844 84.927 60.9106 84.927 63.7999Z" fill="#050E10"/>
<path d="M120.553 62.729C120.553 62.4079 119.911 62.3009 120.125 61.8729C120.767 61.6588 120.874 62.3009 120.981 62.622C120.981 62.943 120.66 62.729 120.553 62.622V62.729Z" fill="#081112"/>
<path d="M120.125 61.7656C119.697 61.8726 119.483 61.7656 119.59 61.2305C119.59 61.0165 119.911 60.9095 120.018 61.1235C120.125 61.3375 120.446 61.5515 120.018 61.7656H120.125Z" fill="#081112"/>
<path d="M89.2057 9.65039C90.5966 9.86442 89.9546 10.9345 89.8476 11.6836C89.8476 12.0047 89.9546 12.9678 88.9918 12.4327C88.9918 11.4696 88.7778 10.6135 89.0987 9.65039H89.2057Z" fill="#081112"/>
<path d="M94.3412 9.97156C94.3412 10.8277 94.5552 11.7908 94.1272 12.5399C93.4853 11.8978 93.6993 11.0417 93.6993 10.2926C93.6993 9.86455 94.0203 9.86455 94.3412 9.97156Z" fill="#081112"/>
<path d="M91.5593 74.5007C93.699 77.069 95.3038 79.9584 97.3365 82.6337C97.5505 82.9548 97.7645 83.7039 98.4064 83.3828C98.8343 83.5968 99.0483 84.1319 99.5832 84.2389C99.7972 83.7039 99.4762 83.3828 99.2623 83.0618C98.1924 80.9215 97.0156 78.9953 95.7318 76.962C95.3038 76.3199 94.3409 75.4638 94.7689 74.8218C95.0898 74.1797 96.3737 74.5007 97.2296 74.5007C105.361 74.5007 113.384 74.5007 121.515 74.1797C121.515 84.56 121.515 94.9402 121.622 105.32C121.622 120.944 121.836 136.568 121.836 152.192C121.836 154.547 121.836 154.547 119.59 154.547C100.76 154.547 82.0376 154.761 63.2081 154.868C62.7801 154.868 62.4592 154.868 62.0312 154.868C62.0312 154.547 62.0312 154.225 62.0312 154.011C62.0312 128.114 62.0312 102.217 62.0312 76.3199C62.0312 75.2498 62.2452 74.9288 63.3151 74.9288C69.6273 74.9288 76.0464 74.8218 82.3585 74.7148C83.3214 74.7148 83.8563 74.9288 84.2843 75.6779C85.0332 76.962 85.9961 78.1392 87.1729 79.1023C87.4939 79.3163 87.9218 79.9584 88.1358 78.9953C88.3498 78.9953 88.4567 79.4233 88.7777 79.3163C89.0986 79.2093 88.7777 78.8883 88.7777 78.6742C88.1358 77.3901 87.3868 75.9989 86.7449 74.7148C88.3497 74.7148 89.8475 74.7148 91.4523 74.7148L91.5593 74.5007ZM71.66 122.336C71.0181 122.336 70.9111 122.55 70.8041 123.192C70.4831 124.797 70.4831 126.402 70.5901 128.007C70.5901 129.398 71.767 130.362 73.1578 130.469C75.8324 130.683 78.4001 130.148 80.9677 129.398C81.1817 129.398 81.2887 129.077 81.2887 128.863C81.5027 128.649 82.0376 128.649 81.9306 128.221C81.8236 127.686 81.2887 127.686 80.8607 127.793C78.935 127.793 76.9022 128.007 74.9765 128.007C72.9438 128.007 72.9438 128.007 72.7298 125.867C72.6228 124.69 72.7298 123.299 71.66 122.336ZM99.9042 102.538C99.6903 103.394 100.225 103.287 100.76 103.287C102.258 103.287 103.649 103.287 105.04 103.501C106.965 103.715 106.965 103.822 107.072 105.642C107.072 107.033 107.286 108.531 107.393 110.029C107.928 109.601 107.714 109.173 107.928 108.852C108.356 109.173 108.677 109.173 108.784 108.531C109.105 107.14 109.533 105.749 109.426 104.25C109.319 102.966 108.891 101.682 107.5 101.361C105.146 100.719 102.686 100.826 100.332 101.361C99.7972 101.468 99.1553 101.682 99.6902 102.538H99.9042ZM85.8891 128.649C85.996 129.398 86.638 129.398 87.1729 129.398C88.8847 129.612 90.7035 129.826 92.4152 130.041C96.2667 130.576 100.118 130.897 104.077 131.218C108.142 131.539 109.747 127.9 108.463 124.262C108.249 123.727 108.035 123.834 107.714 124.048C107.393 123.299 107.072 123.62 106.965 124.048C106.644 124.797 106.43 125.546 106.216 126.402C105.574 128.221 105.36 128.328 103.435 128.328C103.114 128.328 102.793 128.328 102.365 128.328C96.9086 127.793 91.4523 127.793 85.8891 127.9C85.5681 127.9 85.1402 127.686 85.0332 128.221C85.0332 128.542 85.5681 128.435 85.7821 128.649H85.8891ZM75.9394 108.21C78.721 110.885 81.5026 113.668 84.2843 116.343C84.7122 116.771 85.3541 117.734 85.8891 117.306C86.531 116.771 85.5681 116.129 85.1401 115.701C82.4655 112.704 79.149 110.35 76.4743 107.354C76.2604 107.033 75.9394 107.033 75.6185 107.033C75.4045 106.712 75.1905 106.712 74.8695 106.819C74.6556 106.498 74.8696 105.749 74.2276 105.856C73.7997 105.856 73.7997 106.498 73.7997 106.926C73.7997 107.782 73.7997 108.531 73.7997 109.387C73.4787 114.524 73.2648 119.66 73.6927 124.904C73.9067 127.151 74.1207 127.472 76.3674 127.365C85.3542 127.044 94.4479 126.937 103.435 127.793C105.147 128.007 105.681 127.472 105.788 125.76C105.895 123.513 106.109 121.265 106.216 119.018C106.43 115.487 106.644 112.062 106.858 108.531C106.858 108.103 107.072 107.461 106.323 107.461C105.788 107.461 105.895 108.103 105.788 108.531C105.254 114.203 104.612 119.874 104.505 125.653C104.505 126.509 104.184 126.83 103.328 126.723C101.295 126.509 99.1553 126.295 97.1226 126.081C97.0156 125.653 96.5876 125.546 96.2667 125.439C92.4152 124.797 88.5637 124.476 84.7122 124.69C82.1446 124.904 79.5769 124.797 77.0093 124.904C76.3673 124.904 76.0464 124.69 76.0464 124.048C75.9394 118.804 75.6184 113.668 76.0464 108.424L75.9394 108.21ZM76.0464 103.501C75.6184 103.501 74.9765 102.966 74.6556 103.501C74.3346 104.036 75.0835 104.357 75.4045 104.785C78.721 108.745 82.6795 112.062 86.531 115.487C88.5637 117.306 89.8475 117.199 92.0942 115.808C97.0156 112.811 101.509 109.173 106.216 105.856C107.072 105.32 106.858 104.892 106.109 104.464C105.681 104.25 105.36 104.143 104.933 104.143C103.221 104.143 101.509 103.929 99.7972 103.929C91.8803 103.822 84.0703 103.608 76.1534 103.501H76.0464ZM90.2755 118.804C91.0244 118.804 91.9873 118.483 92.7362 117.948C96.5877 115.487 100.332 112.811 103.649 109.494C103.97 109.173 104.719 108.852 104.291 108.317C103.863 107.889 103.435 108.531 103.007 108.852C99.7972 111.313 96.6946 113.775 93.3781 116.022C92.2012 116.878 90.9174 117.52 89.4196 117.627C88.9916 117.627 88.1358 117.413 88.2428 118.162C88.2428 118.697 89.0986 118.804 89.6336 118.804C89.7405 118.804 89.8476 118.804 90.2755 118.804ZM118.092 107.889C118.092 107.568 118.092 107.354 117.664 107.14C117.236 106.926 116.808 107.14 116.487 107.354C115.096 108.852 113.598 110.35 112.422 112.062C112.208 112.383 111.887 112.704 112.315 113.025C112.636 113.239 112.956 113.025 113.277 112.811C115.096 111.634 116.487 110.029 117.771 108.424C117.878 108.317 117.985 107.996 117.985 107.889H118.092ZM64.8129 113.132C64.5989 113.132 64.2779 113.132 63.957 113.132C63.529 113.132 62.8871 113.132 62.8871 113.561C62.8871 114.096 63.4221 114.096 63.85 114.203C65.4548 114.631 67.0596 114.952 68.6644 115.273C69.1993 115.38 69.7342 115.38 69.9482 114.738C70.1622 113.989 69.5203 113.775 68.9853 113.668C67.7015 113.239 66.3107 113.025 64.8129 112.918V113.132ZM118.199 123.406C118.199 122.871 117.985 122.657 117.664 122.443C116.059 121.694 114.454 120.944 112.743 120.409C112.529 120.409 112.208 120.195 112.101 120.516C112.101 120.73 112.101 120.944 112.315 121.051C113.705 122.336 115.417 123.299 117.236 123.941C117.771 124.048 118.199 123.941 118.306 123.406H118.199ZM115.524 115.166C114.668 115.166 113.705 115.166 112.743 115.487C112.529 115.487 112.315 115.701 112.315 115.808C112.315 116.022 112.422 116.236 112.635 116.236C114.24 116.878 115.845 117.092 117.45 116.771C117.878 116.771 118.199 116.343 118.199 115.915C118.199 115.38 117.771 115.166 117.343 115.166C116.808 115.166 116.273 115.166 115.631 115.166H115.524ZM64.8129 107.247C66.4176 108.745 68.1294 109.922 70.0552 110.885C70.3761 111.099 70.6971 110.992 70.9111 110.671C71.125 110.35 71.018 109.922 70.6971 109.815C68.8783 108.638 67.0596 107.354 64.7059 107.247H64.8129ZM63.85 120.302C65.5618 119.874 67.2736 119.232 68.6644 118.162C68.9853 117.948 69.0923 117.627 68.9853 117.306C68.7714 116.985 68.4504 116.985 68.2364 117.092C66.6316 117.841 64.9199 118.483 63.5291 119.446C63.3151 119.553 63.1011 119.767 63.2081 120.088C63.2081 120.409 63.636 120.302 63.957 120.302H63.85Z" fill="#58D7FD"/>
<path d="M88.2429 78.8885C88.029 79.8516 87.601 79.2095 87.28 78.9955C86.1032 78.0324 85.2474 76.8552 84.3915 75.5711C83.8565 74.822 83.3216 74.501 82.4657 74.608C76.1535 74.715 69.7344 74.822 63.4222 74.822C62.3524 74.822 62.1384 75.143 62.1384 76.2132C62.1384 102.11 62.1384 128.008 62.1384 153.905C62.1384 154.226 62.1384 154.547 62.1384 154.761C61.0685 155.082 60.6406 154.761 60.6406 153.477C60.9616 134.856 60.6406 116.343 60.6406 97.7228C60.6406 90.4459 60.9616 83.169 60.8546 75.8921C60.8546 75.25 60.8546 74.501 60.8546 73.7519C68.8785 73.5378 77.1164 73.4308 85.2473 73.2168C85.2473 73.8589 85.5683 74.3939 85.8892 74.929C86.7451 76.2132 87.494 77.4973 88.3499 78.7815L88.2429 78.8885Z" fill="#F2F7F8"/>
<path d="M59.4639 115.272C59.143 127.365 59.143 140.527 59.143 153.69C59.143 153.904 59.143 154.118 59.143 154.332C59.143 154.653 59.143 154.867 58.7151 154.867C58.3941 154.867 58.2871 154.653 58.2871 154.439C58.2871 153.904 58.2871 153.369 58.2871 152.941C58.2871 128.542 58.2871 104.036 58.2871 79.6369C58.2871 78.0317 58.2871 76.4265 58.2871 74.8214C58.2871 74.2863 58.5011 73.9652 59.143 74.0723C59.9989 74.0723 59.571 74.6073 59.571 74.9284C59.571 80.386 59.571 85.9507 59.571 91.4084C59.571 99.0063 59.571 106.711 59.571 115.379L59.4639 115.272Z" fill="#54CFF3"/>
<path d="M121.409 74.0728C113.278 74.2868 105.254 74.3938 97.1236 74.3938C96.2677 74.3938 95.0909 74.1798 94.6629 74.7149C94.235 75.357 95.1979 76.2131 95.6258 76.8552C96.9097 78.7814 98.0865 80.8146 99.1563 82.9549C99.3703 83.2759 99.6913 83.597 99.4773 84.132C98.9424 84.132 98.7284 83.49 98.3005 83.2759C96.8027 79.6375 94.449 76.5341 91.9883 73.0027C94.235 73.0027 96.1607 73.0027 98.0865 73.0027C105.468 73.0027 112.851 72.7887 120.233 72.6816C121.302 72.6816 121.73 72.8957 121.409 73.9658V74.0728Z" fill="#F2F7F8"/>
<path d="M88.2432 78.8889C87.3874 77.6047 86.6385 76.3206 85.7826 75.0364C85.4616 74.5014 85.1406 73.9663 85.1406 73.3242C85.4616 73.3242 85.7826 73.3242 86.1035 73.3242C86.1035 73.8593 86.5314 74.1803 86.7454 74.6084C87.3873 75.8925 88.1363 77.1767 88.7782 78.5679C88.7782 78.7819 89.0991 79.1029 88.7782 79.2099C88.4572 79.317 88.3502 78.9959 88.1363 78.8889H88.2432Z" fill="#081112"/>
<path d="M86.8519 74.6084C86.531 74.1803 86.21 73.8593 86.21 73.3242C87.2798 73.3242 88.3497 73.3242 89.4195 73.3242C90.4894 73.3242 91.2383 73.5382 91.5592 74.6084C89.9545 74.6084 88.4567 74.6084 86.8519 74.6084Z" fill="#F2F7F8"/>
<path d="M84.9261 63.799C84.9261 60.9096 86.8518 58.9834 89.4195 58.9834C91.9871 58.9834 94.4478 61.5517 94.3408 64.12C94.3408 66.6883 92.2011 68.6146 89.6335 68.6146C86.7448 68.6146 84.8191 66.6883 84.9261 63.799ZM91.9872 62.8359C91.9872 61.6587 91.3452 60.9096 90.3824 60.5886C89.3125 60.2676 88.2426 60.2676 87.4937 61.3377C86.7448 62.3008 86.9588 63.4779 87.7077 64.227C88.3496 64.8691 88.7776 65.6182 88.7776 66.5813C88.7776 67.0094 88.9915 67.3304 89.4195 67.4374C89.7404 67.4374 90.1684 67.4374 90.1684 67.1164C90.3824 65.7252 91.2383 64.6551 91.9872 63.4779C92.0941 63.2639 92.0941 63.0499 92.0941 62.9429L91.9872 62.8359Z" fill="#88DCF5"/>
<path d="M96.9097 125.76C98.9425 125.974 101.082 126.188 103.115 126.402C103.971 126.402 104.292 126.188 104.292 125.332C104.399 119.66 105.041 113.881 105.576 108.21C105.576 107.781 105.576 107.246 106.111 107.139C106.859 107.139 106.645 107.781 106.645 108.21C106.431 111.741 106.217 115.165 106.004 118.697C105.897 120.944 105.79 123.191 105.576 125.439C105.469 127.151 104.934 127.686 103.222 127.472C94.2351 126.509 85.1413 126.723 76.1545 127.044C74.0148 127.044 73.6939 126.83 73.4799 124.583C73.0519 119.446 73.2659 114.309 73.5869 109.066C73.5869 108.21 73.5869 107.46 73.5869 106.604C73.5869 106.176 73.5869 105.641 74.0148 105.534C74.6567 105.534 74.4427 106.176 74.6567 106.497C74.6567 107.46 74.6567 108.424 74.6567 109.387C74.3358 113.56 74.1218 117.734 74.2288 121.907C74.2288 122.977 74.2288 123.94 74.4427 125.011C74.5497 125.76 74.8707 125.974 75.6196 125.867C79.792 125.439 84.0715 125.332 88.2439 125.439C91.1325 125.439 93.9142 125.439 96.8028 125.439L96.9097 125.76Z" fill="#081112"/>
<path d="M76.0464 103.501C83.9633 103.608 91.7733 103.822 99.6903 103.929C101.402 103.929 103.114 104.143 104.826 104.143C105.254 104.143 105.681 104.25 106.002 104.464C106.751 104.892 106.965 105.32 106.109 105.855C101.402 109.173 96.9086 112.704 91.9873 115.808C89.7406 117.199 88.4568 117.306 86.424 115.487C82.5725 112.062 78.6141 108.745 75.2976 104.785C74.9766 104.464 74.3347 104.143 74.5486 103.501C74.8696 102.859 75.5115 103.501 75.9394 103.501H76.0464ZM78.2931 104.785C77.6512 104.464 76.9023 104.571 76.1534 104.571C76.5814 105.32 77.1163 105.855 77.6512 106.284C80.5398 108.745 83.4285 111.313 86.3171 113.774C86.959 114.31 87.6009 114.738 88.3498 115.166C89.0987 115.701 89.9546 115.594 90.7035 115.166C94.448 112.597 98.2994 110.243 101.723 107.354C102.472 106.819 103.328 106.284 104.077 105.748C95.4108 105.213 86.852 104.678 78.2931 104.785Z" fill="#081112"/>
<path d="M96.9079 125.761C94.0193 125.761 91.2377 125.761 88.3491 125.761C84.0697 125.761 79.8972 125.761 75.7248 126.189C74.9759 126.189 74.655 125.975 74.548 125.333C74.334 124.369 74.334 123.299 74.334 122.229C74.334 118.056 74.441 113.882 74.762 109.709C74.762 108.746 74.762 107.782 74.762 106.819C75.0829 106.819 75.2968 106.819 75.5108 107.033C75.4038 107.354 75.6178 107.675 75.7248 107.996C75.7248 108.103 75.7248 108.318 75.9388 108.318C75.4038 113.454 75.8318 118.698 75.9388 123.941C75.9388 124.584 76.2598 124.905 76.9017 124.798C79.4693 124.798 82.0369 124.798 84.6046 124.584C88.4561 124.262 92.3076 124.584 96.1591 125.333C96.4801 125.333 96.908 125.44 97.015 125.975L96.9079 125.761Z" fill="#F6F9FA"/>
<path d="M107.715 124.155C108.036 123.941 108.25 123.834 108.464 124.369C109.748 128.007 108.143 131.646 104.077 131.325C100.226 131.004 96.2673 130.683 92.4158 130.148C90.704 129.934 88.8853 129.72 87.1735 129.506C86.6386 129.506 85.9966 129.506 85.8896 128.756C88.9922 128.863 92.2018 128.756 95.3044 128.97C98.193 129.291 101.082 129.613 103.97 129.72C105.896 129.827 106.752 129.184 107.18 127.258C107.501 126.188 107.501 125.118 107.715 124.155Z" fill="#1AC9FC"/>
<path d="M107.715 124.154C107.501 125.225 107.501 126.295 107.18 127.258C106.645 129.077 105.896 129.826 103.97 129.719C101.082 129.505 98.1929 129.291 95.3043 128.97C92.2017 128.649 88.9921 128.863 85.8895 128.756C85.6756 128.542 85.1406 128.756 85.1406 128.328C85.1406 127.793 85.6756 128.007 85.9966 128.007C91.4528 128.007 97.0161 127.9 102.472 128.435C102.793 128.435 103.114 128.435 103.542 128.435C105.468 128.435 105.682 128.328 106.324 126.509C106.538 125.76 106.752 125.011 107.073 124.154C107.287 123.619 107.501 123.298 107.822 124.154H107.715Z" fill="#081112"/>
<path d="M90.2759 118.805C89.848 118.805 89.741 118.805 89.634 118.805C89.099 118.805 88.2432 118.805 88.2432 118.163C88.2432 117.413 88.992 117.735 89.42 117.627C90.9178 117.52 92.2016 116.878 93.3785 116.022C96.695 113.775 99.7976 111.314 103.007 108.852C103.328 108.531 103.863 107.889 104.291 108.317C104.719 108.852 103.97 109.173 103.649 109.494C100.333 112.812 96.695 115.487 92.7366 117.949C91.8807 118.484 91.0248 118.805 90.2759 118.805Z" fill="#081112"/>
<path d="M99.9043 102.538C99.3694 101.789 100.118 101.468 100.546 101.361C102.9 100.826 105.361 100.719 107.714 101.361C109.105 101.789 109.533 102.966 109.64 104.251C109.747 105.749 109.319 107.14 108.998 108.531C108.891 109.173 108.57 109.173 108.142 108.852C108.035 107.461 108.57 106.177 108.463 104.786C108.463 103.823 108.142 102.859 107.072 102.645C104.719 102.11 102.365 101.896 100.011 102.431L99.9043 102.538Z" fill="#19C3F5"/>
<path d="M71.6606 122.336C72.7305 123.299 72.6235 124.583 72.7305 125.868C72.9445 128.008 72.8375 128.008 74.9772 128.008C76.9029 128.008 78.9356 127.901 80.8614 127.794C81.2893 127.794 81.8243 127.794 81.9313 128.222C81.9313 128.65 81.5033 128.65 81.2894 128.864C80.6474 128.864 80.0055 128.864 79.3636 128.971C77.5449 129.185 75.8331 129.185 74.0143 128.971C72.4096 128.864 71.7676 128.329 71.6606 126.724C71.5537 125.225 71.4467 123.62 71.6606 122.122V122.336Z" fill="#081112"/>
<path d="M71.6605 122.335C71.4465 123.833 71.4465 125.438 71.6605 126.937C71.7674 128.542 72.4094 129.077 74.0142 129.184C75.8329 129.291 77.5447 129.291 79.3634 129.184C80.0054 129.184 80.6473 129.184 81.2892 129.077C81.2892 129.291 81.2892 129.505 80.9682 129.612C78.4006 130.254 75.8329 130.896 73.1583 130.682C71.7675 130.575 70.5906 129.612 70.5906 128.221C70.5906 126.615 70.3766 125.01 70.8046 123.405C70.9116 122.87 71.1255 122.549 71.6605 122.549V122.335Z" fill="#1AC9FC"/>
<path d="M75.726 107.889C75.726 107.568 75.2981 107.354 75.5121 106.926C75.833 106.926 76.154 106.926 76.368 107.247C79.0426 110.243 82.2522 112.704 85.0338 115.594C85.4618 116.022 86.4246 116.664 85.7827 117.199C85.2478 117.734 84.7129 116.771 84.1779 116.236C81.3963 113.561 78.6147 110.778 75.8331 108.103C75.8331 108.103 75.7261 107.889 75.6191 107.782L75.726 107.889Z" fill="#081112"/>
<path d="M99.9043 102.538C102.258 102.003 104.612 102.217 106.965 102.752C108.035 102.966 108.356 103.823 108.356 104.893C108.356 106.284 107.928 107.568 108.035 108.959C107.821 109.28 108.035 109.708 107.5 110.136C107.393 108.531 107.179 107.14 107.179 105.749C107.179 103.93 107.072 103.823 105.147 103.609C103.756 103.395 102.258 103.395 100.867 103.395C100.332 103.395 99.7973 103.395 100.011 102.645L99.9043 102.538Z" fill="#081112"/>
<path d="M118.092 107.888C118.092 108.102 117.985 108.316 117.878 108.423C116.487 110.029 115.203 111.741 113.385 112.811C113.064 113.025 112.743 113.239 112.422 113.025C111.994 112.704 112.422 112.276 112.529 112.062C113.599 110.243 115.096 108.851 116.594 107.353C116.915 107.032 117.343 106.818 117.771 107.139C118.092 107.353 118.092 107.567 118.199 107.888H118.092Z" fill="#050E10"/>
<path d="M64.8124 113.133C66.3102 113.133 67.7011 113.454 68.9849 113.882C69.5198 114.096 70.1618 114.31 69.9478 114.952C69.7338 115.594 69.1989 115.594 68.664 115.487C67.0592 115.166 65.4544 114.738 63.8496 114.417C63.4217 114.417 62.8867 114.31 62.8867 113.775C62.8867 113.24 63.5286 113.454 63.9566 113.347C64.2775 113.347 64.5985 113.347 64.8124 113.347V113.133Z" fill="#081112"/>
<path d="M118.199 123.406C118.092 123.941 117.664 124.155 117.129 123.941C115.311 123.406 113.599 122.443 112.208 121.052C112.101 120.945 111.887 120.731 111.994 120.517C112.101 120.196 112.422 120.303 112.636 120.41C114.348 120.945 115.952 121.587 117.557 122.443C117.878 122.657 118.199 122.871 118.092 123.406H118.199Z" fill="#081112"/>
<path d="M115.525 115.165C116.274 115.165 116.808 115.165 117.236 115.165C117.664 115.165 118.092 115.379 118.092 115.914C118.092 116.449 117.878 116.77 117.343 116.77C115.632 117.091 114.027 116.77 112.529 116.235C112.315 116.235 112.101 116.021 112.208 115.807C112.208 115.593 112.529 115.486 112.636 115.486C113.599 115.272 114.669 115.165 115.418 115.165H115.525Z" fill="#081112"/>
<path d="M64.8125 107.247C67.1662 107.354 68.985 108.638 70.8037 109.815C71.1247 110.029 71.2317 110.35 71.0177 110.671C70.8038 110.993 70.4827 111.1 70.1618 110.886C68.236 109.815 66.5243 108.638 64.9195 107.247H64.8125Z" fill="#081112"/>
<path d="M63.8505 120.302C63.5295 120.302 63.2085 120.302 63.1016 120.088C63.1016 119.767 63.2085 119.66 63.4225 119.446C64.9203 118.483 66.5251 117.733 68.1299 117.091C68.4509 116.984 68.7718 116.984 68.8788 117.305C69.0928 117.626 68.8788 117.947 68.5578 118.161C67.06 119.339 65.4552 119.981 63.7435 120.302H63.8505Z" fill="#081112"/>
<path d="M91.9873 62.8363C91.9873 62.9433 91.9873 63.2644 91.8803 63.3714C91.1314 64.5485 90.2755 65.5116 90.0615 67.0098C90.0615 67.3309 89.6336 67.4379 89.3126 67.3309C88.8847 67.3309 88.6707 66.9028 88.6707 66.4748C88.6707 65.5116 88.3498 64.8696 87.6009 64.1205C86.852 63.2644 86.638 62.1942 87.3869 61.2311C88.1358 60.268 89.2057 60.161 90.2755 60.482C91.3454 60.8031 91.8803 61.6592 91.8803 62.7293L91.9873 62.8363Z" fill="#04090A"/>
<path d="M78.293 104.785C86.8518 104.785 95.4107 105.213 104.077 105.748C103.328 106.283 102.472 106.818 101.723 107.353C101.509 106.818 101.081 107.032 100.653 107.139C99.5831 107.353 98.7273 107.889 97.7644 108.531C95.6247 109.922 93.4849 111.42 91.4522 112.811C90.5963 113.346 89.7404 113.667 88.7776 113.132C84.9261 110.885 81.3956 108.103 78.293 104.785Z" fill="#58D7FD"/>
<path d="M78.294 104.785C81.3966 108.103 84.9271 110.778 88.7786 113.132C89.7415 113.667 90.5974 113.346 91.4532 112.811C93.593 111.313 95.7327 109.922 97.7654 108.531C98.6213 107.889 99.5841 107.461 100.654 107.14C101.082 107.14 101.51 106.819 101.724 107.354C98.1933 110.243 94.4488 112.597 90.7043 115.166C89.9554 115.701 89.0995 115.701 88.3506 115.166C87.7087 114.738 86.9599 114.309 86.3179 113.774C83.4293 111.313 80.5407 108.745 77.6521 106.283C77.1171 105.855 76.5822 105.32 76.1543 104.571C76.9032 104.571 77.6521 104.571 78.294 104.785Z" fill="#F2F7F8"/>
<path d="M75.7256 107.889C75.7256 107.889 75.8326 108.103 75.9396 108.21C75.7256 108.21 75.7256 108.103 75.7256 107.889Z" fill="#58D7FD"/>
<defs>
<filter id="filter0_d_2946_27057" x="0" y="5" width="185" height="185" filterUnits="userSpaceOnUse" color-interpolation-filters="sRGB">
<feFlood flood-opacity="0" result="BackgroundImageFix"/>
<feColorMatrix in="SourceAlpha" type="matrix" values="0 0 0 0 0 0 0 0 0 0 0 0 0 0 0 0 0 0 127 0" result="hardAlpha"/>
<feOffset dx="-5" dy="5"/>
<feComposite in2="hardAlpha" operator="out"/>
<feColorMatrix type="matrix" values="0 0 0 0 0 0 0 0 0 0 0 0 0 0 0 0 0 0 1 0"/>
<feBlend mode="normal" in2="BackgroundImageFix" result="effect1_dropShadow_2946_27057"/>
<feBlend mode="normal" in="SourceGraphic" in2="effect1_dropShadow_2946_27057" result="shape"/>
</filter>
</defs>
</svg>
