<svg width="300" height="335" viewBox="0 0 300 335" fill="none" xmlns="http://www.w3.org/2000/svg">
<g clip-path="url(#clip0_1934_11127)">
<path d="M298.678 154.406C298.678 232.657 232.109 296.014 149.89 296.014C128.068 296.014 107.128 291.609 88.3913 283.427C78.0313 278.811 68.1121 273.357 59.0746 266.644C56.8704 264.965 54.6661 263.287 52.6823 261.609C39.8975 251.119 29.0967 238.741 20.7205 224.895C8.3766 204.126 1.10254 180 1.10254 154.406C1.10254 76.154 67.6712 12.7974 149.89 12.7974C212.05 12.7974 265.173 48.8813 287.436 100.28C294.71 116.853 298.678 135.315 298.678 154.406Z" fill="url(#paint0_linear_1934_11127)"/>
<path d="M178.325 281.329L169.067 293.916L117.487 292.238L87.7295 282.168L92.5789 235.804L126.084 178.741L173.916 168.881L193.093 187.133" fill="white"/>
<path d="M169.728 207.902C169.728 207.902 168.406 208.112 168.626 208.951C169.287 211.678 168.626 214.196 168.626 216.713C168.626 224.895 168.626 233.077 167.965 241.259C167.303 249.65 167.083 257.832 166.863 266.224C166.642 273.357 166.201 280.49 165.981 287.413C165.981 288.462 165.981 289.72 165.32 290.769C165.32 290.979 164.879 291.189 164.658 291.189C164.438 291.189 163.997 291.189 163.997 290.769C163.777 289.93 163.556 289.301 163.556 288.462C163.556 281.539 163.997 274.825 164.217 268.112C164.438 262.867 164.658 257.832 164.879 252.587C165.099 246.504 165.54 240.21 165.76 234.126C166.201 228.671 165.76 223.217 166.201 217.762C166.201 215.245 166.422 212.518 166.642 210C166.422 210 166.201 210 166.201 210C162.454 212.518 158.045 212.727 153.857 213.357C149.228 213.986 144.379 214.196 139.53 214.196C135.782 214.196 132.696 215.455 129.831 217.553C127.406 219.441 126.304 221.329 126.304 224.266C126.304 229.301 125.863 234.546 125.643 239.58C125.422 245.664 124.982 251.958 124.761 258.042C124.32 267.273 124.1 276.713 123.879 285.944C123.879 286.573 123.879 287.413 123.879 288.042C123.879 288.881 123.218 289.511 122.557 290.14C121.455 288.042 121.455 285.944 121.455 283.636C121.455 277.553 121.675 271.469 121.896 265.385C122.116 258.462 122.557 251.539 122.998 244.615C123.439 237.483 124.1 230.14 124.541 223.007C124.541 222.587 124.541 222.378 124.1 222.168C122.336 223.427 120.573 224.476 118.81 225.944C118.148 226.364 117.487 226.783 116.826 227.203C108.67 233.287 100.294 239.371 92.1381 245.455C91.2564 246.084 91.2564 246.713 91.2564 247.343C90.8155 257.832 90.8155 268.112 89.2725 278.601C87.95 279.021 87.5091 278.811 87.7295 277.762C88.1704 273.566 87.95 269.371 88.1704 264.965C88.6113 259.511 88.6113 254.056 88.8317 248.601C88.8317 248.392 88.8317 247.972 88.6112 247.762C87.95 248.182 87.2887 248.601 86.6274 249.021C81.9985 252.168 76.9287 254.895 71.418 256.573C69.2137 257.413 66.7891 257.832 64.5848 258.042C59.0741 258.462 54.886 256.364 51.8001 251.958C48.2733 246.923 46.069 241.259 45.6281 235.175C44.9669 227.413 45.4077 219.65 46.9507 212.098C47.3916 209.79 47.8324 207.692 48.7141 205.594C49.3754 203.916 49.155 203.916 47.612 203.287C45.1873 202.238 42.5422 201.189 40.1175 199.72C39.0154 199.091 37.9132 198.462 37.0315 197.622C35.0477 195.944 34.8273 194.895 35.9294 192.797C37.4724 189.441 39.2358 186.294 41.2196 183.147C48.0528 172.028 55.3269 161.329 63.7031 151.049C73.6223 138.881 86.1866 130.28 101.396 125.245C103.821 124.406 106.466 123.776 109.111 123.357C110.213 123.357 111.095 122.727 111.536 121.678C113.079 118.322 115.503 115.804 118.589 113.916C121.675 111.818 124.761 109.72 128.288 108.462C128.729 108.462 128.949 108.042 128.949 107.622C128.949 106.154 128.729 104.476 128.729 103.007C128.729 102.587 128.508 102.168 128.068 101.958C122.557 97.1329 119.03 91.2588 116.605 84.7553C116.605 84.7553 116.605 84.5455 116.385 84.3357C113.299 85.1749 111.095 83.9162 109.111 81.8183C106.907 79.091 105.804 75.5245 105.364 72.1679C104.923 70.2798 104.923 68.1819 105.364 66.2938C106.025 63.1469 107.568 61.8882 111.095 61.6784C111.095 60.4196 111.095 59.1609 110.874 57.6924C110.874 57.063 110.213 57.063 109.772 57.063C104.923 56.2238 101.176 52.6574 100.294 48.2518C100.294 47.8322 100.294 47.4127 100.294 46.9931C100.294 46.1539 100.735 45.9441 101.616 45.9441C102.057 45.9441 102.498 46.1539 102.939 46.3637C104.702 46.9931 106.466 46.9931 108.229 46.3637C108.229 45.5245 107.347 45.5245 106.907 45.105C100.514 40.6994 95.8853 35.035 94.3423 27.6924C93.4606 23.9162 93.4606 20.1399 94.3423 16.3637C94.3423 15.7343 94.5628 15.3148 94.7832 14.6854C95.224 13.8462 95.8853 13.6364 96.5466 14.2658C100.735 18.2518 105.584 17.4127 110.213 15.7343C114.401 14.2658 117.708 11.7483 121.234 9.44063C125.202 6.50356 129.39 3.98608 134.239 2.72734C147.024 -0.419514 159.368 0.209857 171.491 5.87419C174.357 7.13293 176.782 8.81125 178.766 11.1189C182.733 15.7343 183.615 20.9791 181.19 26.4336C180.749 27.2728 180.309 28.112 179.868 29.1609C183.615 30.2099 185.158 33.1469 185.819 36.5036C186.701 40.07 186.921 43.6364 185.819 47.2029C185.158 49.5106 184.497 51.8182 182.292 53.4966C186.921 55.3847 187.803 58.9511 187.803 62.9371C187.803 67.3427 186.701 71.5385 184.497 75.5245C182.513 78.8812 179.647 80.9791 175.459 80.7693C174.577 80.7693 174.357 81.1889 174.357 81.6085C173.034 86.2238 171.271 90.6294 168.626 94.6155C167.965 95.4546 168.185 96.7134 167.965 97.7623C167.524 100.07 167.524 102.378 167.303 104.685C167.303 105.734 167.524 106.154 168.626 106.364C170.169 106.364 171.712 106.993 173.475 107.413C177.663 108.671 181.19 110.56 184.276 113.706C184.497 113.916 184.717 114.336 185.378 114.336C186.04 112.867 186.921 111.189 187.803 109.511C190.228 104.266 193.093 99.021 195.959 93.7763C197.061 91.8882 198.163 91.4686 200.147 92.7273C206.319 96.084 212.491 99.021 218.883 101.539C225.496 104.056 231.668 107.832 238.06 110.56C241.367 111.818 244.673 113.287 247.759 114.755C249.302 115.385 249.522 115.594 249.081 117.273C248.42 120 247.098 122.518 245.996 125.035C242.91 131.748 240.044 138.671 237.178 145.594C236.517 147.063 235.856 148.532 235.195 150C234.974 150.839 234.313 150.629 233.652 150.42C232.77 150.42 232.77 150.839 233.211 151.259C233.652 151.888 234.093 152.308 234.533 152.937C239.162 158.811 242.248 165.315 244.673 172.238C246.216 176.224 247.759 180.21 248.42 184.406C248.861 187.762 248.861 187.972 245.555 189.441C245.334 189.441 245.114 189.65 244.673 189.86C247.318 194.056 249.302 198.252 251.065 202.657C255.033 212.518 257.899 222.587 259.001 233.077C259.442 237.692 259.662 242.518 258.339 247.133C257.458 250.49 255.915 253.636 253.931 256.573C250.184 261.818 245.996 263.287 239.383 262.028C233.652 260.769 228.802 257.832 224.614 254.056C222.63 252.378 221.087 250.49 219.544 248.392C215.797 243.776 212.27 239.161 209.625 233.916C209.625 233.497 209.405 233.077 208.743 233.077C208.523 233.077 208.523 233.497 208.523 233.497C208.743 246.084 208.082 258.462 208.523 271.049C208.523 272.937 208.523 274.825 208.523 276.504C208.523 277.553 208.523 278.811 207.201 279.441C206.539 279.021 206.319 278.601 206.319 277.762C205.878 275.245 206.098 272.518 205.878 269.79C205.878 256.364 206.76 242.727 206.319 229.301C206.319 228.042 206.098 226.783 205.437 225.734C203.894 223.007 202.351 220.07 201.249 216.923C201.029 216.084 200.367 215.664 199.706 215.245C198.163 214.615 196.84 213.776 195.738 212.518C194.857 211.469 193.975 211.259 192.652 211.259C189.787 211.259 186.921 211.259 184.276 210.629C181.852 210.21 179.647 209.371 178.545 207.063C177.663 205.594 175.9 206.014 174.798 204.965C174.798 204.965 174.357 204.965 174.137 205.175C172.814 206.014 171.491 206.853 170.169 207.692L169.728 207.902ZM132.696 26.8532V26.4336C136.003 24.3357 139.089 23.2868 142.836 23.2868C145.702 23.2868 148.567 23.2868 151.433 23.9162C158.707 25.3847 165.54 27.6924 168.846 34.8252C170.389 33.3567 170.61 31.4686 170.169 29.5805C169.728 27.4826 168.846 25.5945 167.303 24.1259C165.099 21.8182 162.234 20.1399 159.148 19.091C154.519 17.4127 149.89 16.9931 145.04 16.9931C136.885 16.9931 130.492 19.9301 125.863 26.4336C124.541 28.112 123.218 29.7903 121.675 31.4686C119.691 33.7763 117.046 35.035 113.96 35.4546C113.079 35.4546 112.197 35.4546 111.095 34.8252C112.638 34.4057 113.96 34.4057 115.283 33.7763C117.708 32.5176 119.691 31.049 121.234 28.9511C122.998 26.8532 124.541 24.7553 126.084 22.6574C129.17 19.091 133.137 16.7833 137.766 15.7343C138.868 15.5245 140.191 15.7343 141.073 14.8952C145.481 14.8952 149.89 14.8952 154.298 15.7343C159.148 16.5735 163.556 18.2518 167.303 21.3987C169.728 23.2868 171.271 25.5945 171.932 28.5315C172.153 29.3707 172.153 30.4196 172.373 31.4686C175.9 30.0001 177.663 28.112 178.766 24.9651C180.97 19.5106 179.427 13.8462 174.577 10.07C169.728 6.29377 163.777 4.19587 157.605 3.35671C157.605 3.35671 157.164 3.14692 157.164 2.93713C153.857 2.51755 150.551 2.30776 147.245 2.30776C143.718 2.30776 139.971 2.51755 136.444 3.77629C134.901 3.77629 133.358 4.19587 132.035 5.03503C129.611 5.6644 127.627 6.92314 125.643 8.39167C123.218 10.07 120.793 11.7483 118.148 13.4266C115.724 14.8952 113.299 16.3637 110.654 17.2029C105.584 18.8812 100.514 18.6714 96.1057 15.5245C96.1057 15.5245 95.8853 15.5245 95.4445 15.7343C94.7832 18.042 94.5628 20.7693 94.7832 23.4966C95.224 27.063 95.8853 30.6294 98.31 33.5665C98.31 33.9861 98.5304 34.1959 98.7509 34.6155C100.955 37.9721 104.041 40.6994 107.568 42.7973C108.229 43.2169 108.89 43.4266 109.552 43.8462C110.213 44.2658 110.874 44.4756 110.874 45.3148C110.874 46.1539 110.213 46.3637 109.552 46.5735C107.568 47.4127 105.364 47.8322 103.159 47.4127C102.719 47.4127 102.278 46.9931 101.837 47.4127C101.837 48.4616 102.278 49.3008 102.939 50.1399C106.025 53.9162 109.993 55.1749 113.96 53.2868C116.165 52.2378 117.928 50.7693 119.25 48.8812C121.234 46.3637 122.336 43.6364 123.659 40.6994C125.422 36.2938 127.406 31.6784 130.713 27.9022C130.713 27.9022 130.713 27.4826 130.713 27.2728C130.713 27.2728 131.374 27.2728 131.153 26.8532C131.153 26.8532 131.815 26.6434 132.035 26.4336L132.696 26.8532ZM137.105 104.476C137.105 104.476 137.766 104.895 138.207 104.895C138.207 104.895 139.089 105.315 139.75 105.315C141.734 106.154 143.718 106.364 145.922 106.364C151.212 106.783 155.841 105.105 159.809 101.748C165.76 97.1329 169.287 90.8392 171.712 84.1259C172.594 81.8183 173.034 79.7203 174.137 77.4127C174.137 76.9931 174.357 76.5735 175.018 76.5735C175.459 78.4616 175.9 78.4616 177.884 78.042C179.868 77.6224 181.411 76.5735 182.513 74.8952C185.158 70.6994 186.48 66.084 186.26 61.2588C186.26 59.7903 185.819 58.112 184.937 56.8532C183.835 55.1749 181.411 54.1259 179.206 54.5455C177.443 54.9651 176.561 56.2238 176.12 58.5315C176.12 59.5805 176.12 60.8392 175.68 61.8882C175.68 62.3078 175.68 63.1469 174.577 63.1469C173.696 61.8882 174.577 60.0001 173.255 58.7413C173.255 58.7413 173.255 58.112 173.255 57.9022C173.255 57.2728 173.475 56.4336 173.696 55.8043C174.357 49.9301 173.255 44.2658 169.508 39.4406C168.185 37.7623 166.863 36.5036 166.422 34.4057C166.422 33.5665 165.76 32.9371 165.099 32.5175C164.658 31.4686 163.777 31.049 162.895 30.4196C156.723 25.5945 149.228 24.5455 141.514 24.9651C137.325 25.1749 134.019 27.2728 131.815 30.6294C130.051 32.9371 128.949 35.4546 127.847 38.1819C126.304 41.9581 124.982 45.7343 122.557 49.091C122.116 49.091 121.896 49.5106 122.116 49.9301C120.353 52.6574 117.708 54.3357 114.842 55.5945C113.226 56.0141 112.491 56.9231 112.638 58.3217C113.519 65.8742 115.062 73.4266 117.487 80.7693C119.471 87.063 122.336 92.7273 126.965 97.7623C129.611 100.49 132.476 102.797 136.223 104.266C136.223 104.266 136.885 104.685 137.325 104.685L137.105 104.476ZM229.023 194.056C229.023 194.056 230.345 193.636 230.786 193.217C235.415 191.119 239.824 188.811 244.673 187.133C246.657 186.504 246.436 186.504 246.216 184.615C245.555 179.79 243.35 175.175 241.587 170.769C238.942 163.427 235.415 156.713 229.904 150.839C229.464 150.42 229.243 150 229.023 149.58C228.141 147.692 226.378 147.063 224.394 146.853C224.394 146.853 223.732 146.434 223.292 146.434C223.071 145.804 222.41 145.804 221.969 145.594C212.05 141.818 202.351 138.252 192.432 134.476C191.55 134.056 191.109 134.266 190.889 135.315C190.007 141.189 187.803 146.643 185.378 152.098C183.835 155.245 183.395 155.245 181.19 152.518C180.749 153.147 180.749 153.776 180.529 154.615C180.088 156.084 179.427 156.294 178.325 155.245C177.884 154.825 177.663 154.615 177.223 154.196C175.9 152.937 174.577 151.469 173.255 150.21C172.814 149.79 172.373 148.741 171.491 149.161C170.83 149.58 170.169 150.21 169.949 151.049C169.949 151.469 169.949 152.098 169.949 152.518C169.949 154.825 169.949 157.133 169.949 159.65C169.949 160.49 169.949 161.329 169.508 162.168C169.287 163.217 168.626 162.797 167.965 162.168C167.524 160.699 167.965 159.021 167.965 157.553C167.965 149.371 168.626 141.189 168.406 133.007C168.406 131.329 168.185 129.65 167.965 127.553C162.013 130.699 156.062 132.378 149.669 132.797C143.057 133.427 136.885 131.958 130.713 129.65C130.713 130.699 130.713 131.539 130.713 132.378C130.492 137.413 130.272 142.238 130.051 147.273C129.39 154.825 128.729 162.168 128.068 169.72C127.627 174.755 127.406 179.79 127.186 184.825C127.186 187.553 127.186 190.07 127.186 192.797C128.068 192.797 128.068 192.168 128.508 191.958C130.051 190.07 131.374 187.972 132.917 186.084C134.68 183.357 137.105 181.678 140.632 181.049C141.514 181.049 142.175 180.629 143.057 180.42C146.363 179.58 146.363 179.58 146.363 176.434C146.363 173.916 146.583 171.399 147.465 169.091C148.126 167.203 149.449 165.944 151.433 165.315C153.417 164.685 155.4 164.476 157.384 164.056C160.911 163.427 164.658 163.217 168.185 163.007C169.728 163.007 171.491 163.007 173.034 163.007C176.341 162.797 179.647 162.797 182.954 163.636C185.599 164.476 186.701 165.734 186.701 168.462C186.701 169.72 186.701 170.979 186.701 172.238C186.701 175.175 186.701 178.322 186.701 181.469C189.126 181.049 191.55 180.839 193.975 181.049C196.179 181.049 198.163 181.888 199.706 183.566C200.367 184.406 201.249 185.245 201.91 185.874C202.572 186.504 203.012 187.553 204.115 187.762C204.555 186.084 204.776 184.825 204.996 183.357C206.98 172.867 209.405 162.587 211.829 152.098C211.829 151.259 212.27 150.42 212.491 149.58C212.491 149.161 212.932 148.951 213.372 148.951C213.813 148.951 214.034 149.371 214.034 149.79C214.034 150.42 214.034 150.839 214.034 151.469C213.813 153.776 212.932 156.084 212.932 158.392C211.829 161.748 211.389 165.315 210.507 168.671C209.184 175.385 207.641 182.098 206.319 188.601C206.319 189.231 205.878 189.86 206.319 190.699C208.082 193.007 209.625 195.105 211.389 197.413C212.05 198.671 212.491 200.14 213.813 201.189C214.695 201.818 215.136 201.818 216.238 201.189C218.883 199.511 221.749 198.252 224.614 196.783C226.157 196.154 227.48 195.315 228.802 194.476C229.243 194.476 229.464 194.476 229.684 194.056H229.023ZM186.48 142.448C185.378 142.657 184.276 143.287 183.394 143.916C182.072 143.916 181.852 143.916 182.292 142.867C182.292 142.657 182.513 142.448 182.733 142.028C183.615 141.399 184.497 140.56 185.599 140.14C188.464 138.881 189.346 136.993 189.566 134.056C189.566 133.217 189.566 132.797 188.685 132.587C187.583 132.168 186.48 131.748 185.378 131.119C183.615 130.28 182.072 129.65 180.529 128.601C179.647 128.182 179.206 127.762 179.647 126.504C180.529 124.196 181.852 122.098 182.513 119.79C182.513 119.79 182.733 119.58 182.954 119.371C183.395 118.322 184.276 117.483 184.056 116.434C184.056 115.594 182.733 115.175 181.852 114.336C177.884 110.56 172.814 109.091 167.744 107.832C167.303 108.462 167.524 109.091 167.744 109.511C167.744 114.126 168.626 118.741 169.067 123.147C169.508 127.553 170.169 131.958 170.169 136.364C170.169 138.671 170.169 141.189 170.169 143.497C170.169 144.336 169.728 145.175 170.169 146.224C170.83 146.224 171.051 145.594 171.271 145.175C172.153 144.336 172.814 143.497 173.696 142.657C175.018 141.399 175.9 141.399 177.223 142.657C177.884 143.287 178.545 143.916 178.986 144.546C180.088 146.224 181.19 148.112 182.513 149.79C182.733 150.21 182.954 150.839 183.615 151.049C184.937 147.692 186.701 144.546 187.803 140.769C187.142 141.189 186.921 141.399 186.701 141.608C186.48 141.608 186.26 141.608 186.26 142.028L186.48 142.448ZM192.212 195.315C192.212 195.315 192.873 195.734 193.093 195.525C194.195 195.944 195.298 196.364 196.4 196.783C196.84 196.783 197.281 197.203 197.061 197.622C197.061 198.042 196.4 198.042 196.179 197.832C194.636 197.832 192.873 197.413 191.33 197.203C191.33 197.203 190.889 197.203 190.669 197.203C186.04 197.832 181.411 198.881 176.561 198.462C176.341 199.72 175.9 200.979 175.9 202.238C175.9 203.706 175.9 203.916 177.663 204.126C179.206 204.336 180.529 204.546 182.072 204.546C186.701 204.546 191.33 204.546 196.179 204.126C197.502 204.755 198.604 205.175 199.265 206.434C198.604 207.273 197.722 206.853 197.061 206.434C195.518 205.804 193.975 205.804 192.432 206.014C188.685 206.434 185.158 206.434 181.411 206.434C180.97 206.434 180.529 206.434 180.309 206.853C180.97 207.692 182.072 208.112 183.174 208.322C186.26 208.951 189.566 209.371 192.652 209.161C194.416 209.161 195.518 209.58 196.62 210.839C198.383 213.147 201.249 214.196 204.115 214.406C204.996 214.406 205.878 214.406 206.76 214.406C207.201 214.406 207.862 214.406 207.862 215.035C207.862 215.664 207.421 215.874 206.76 215.874C205.878 216.084 205.217 216.294 204.335 216.084C203.674 216.084 203.233 215.874 202.572 216.084C202.572 216.504 203.012 216.923 203.233 217.343C205.658 222.168 208.523 226.573 210.948 231.399C213.152 235.804 216.238 239.79 219.104 243.776C222.63 248.601 226.818 253.007 232.329 256.154C235.415 258.042 238.721 259.091 242.248 259.511C244.893 259.72 247.318 259.091 249.302 257.203C250.845 255.734 252.167 254.056 253.049 251.958C256.135 246.923 257.017 241.469 256.576 236.014C255.915 227.832 254.372 219.65 251.727 211.888C249.522 204.755 246.877 197.832 242.91 191.329C242.028 190.07 241.807 190.07 240.485 190.699C240.044 190.909 239.824 191.329 239.383 191.748C233.872 196.993 228.582 202.238 221.749 206.224C221.528 206.224 221.308 206.434 221.308 206.853C226.818 210.629 231.888 214.615 237.619 218.182C239.603 219.231 241.146 220.699 242.689 222.378C246.216 225.734 247.759 229.93 248.861 234.546C248.861 234.965 248.861 235.175 248.861 235.594C248.861 236.014 248.861 236.434 248.42 236.434C248.2 236.434 247.759 236.434 247.759 236.014C247.098 234.965 246.657 233.706 246.216 232.448C244.893 228.042 242.689 224.476 238.942 221.748C237.84 220.909 236.517 220.07 235.415 219.231C232.55 217.343 229.684 215.245 227.039 213.357C224.835 211.678 222.63 210 220.206 208.532C216.458 206.224 213.593 203.287 210.066 200.769C209.846 200.769 209.625 200.14 209.405 199.93C206.319 194.476 202.131 189.86 197.943 185.245C196.179 183.357 193.975 182.518 191.33 182.727C185.158 182.937 179.427 184.825 173.916 187.553C173.475 187.762 172.594 187.972 172.814 189.021C172.814 190.07 173.475 190.49 174.357 190.699C175.239 190.909 176.12 191.119 177.002 190.909C181.852 190.49 186.701 189.231 191.55 188.182C193.314 188.182 194.636 188.811 195.959 190.07C195.959 190.07 196.179 190.49 195.959 190.909C195.959 191.329 195.298 191.329 195.077 191.119C194.416 191.119 193.755 190.49 193.534 190.699C192.652 191.539 191.991 190.699 191.109 190.699C190.007 189.86 188.905 190.699 187.803 190.699C183.615 191.329 179.427 193.007 174.798 192.797C174.137 192.797 174.137 193.217 173.916 193.427C173.255 195.105 173.916 196.154 176.12 196.573C178.545 196.783 181.19 196.573 183.615 196.573C186.26 196.154 188.905 195.734 191.55 195.525L192.212 195.315ZM168.846 168.252C165.32 168.252 161.572 168.671 158.045 169.301C155.4 169.72 152.976 170.35 150.771 171.608C149.228 172.657 148.347 173.706 148.347 175.594C148.347 178.112 148.347 180.839 147.465 183.357C147.465 183.986 147.245 184.825 147.465 185.455C149.449 185.664 151.433 186.084 153.417 186.294C154.739 186.504 156.062 186.294 157.384 185.874C161.131 184.825 164.879 183.986 168.626 183.357C170.389 183.147 171.051 183.357 171.932 184.825C172.373 185.664 172.814 185.874 173.696 185.245C176.561 183.776 179.647 182.727 182.733 181.678C183.615 181.469 184.056 180.839 184.056 180C184.056 176.853 184.056 173.706 184.056 170.56C184.056 169.93 183.835 169.511 183.174 169.091C181.19 167.832 178.986 167.832 176.782 167.832C174.577 167.832 172.153 167.832 169.949 167.832C169.508 167.622 169.287 167.622 168.846 167.832V168.252ZM204.335 96.2938C204.335 96.2938 203.894 95.6644 203.233 95.8742C202.572 94.8252 201.249 94.6154 200.367 93.7763C200.367 93.7763 200.147 93.7763 199.926 93.7763C200.147 93.7763 200.147 93.7763 200.147 93.3567C199.486 94.1959 200.147 94.6155 200.588 95.2448C206.319 103.846 211.168 113.077 216.458 121.888C216.679 121.888 217.12 121.678 217.34 121.469C223.071 120.42 228.582 119.371 234.313 118.322C238.501 117.483 242.469 117.063 246.436 116.014C246.877 116.014 247.538 115.804 246.877 115.175C246.657 114.965 245.996 114.755 245.775 114.546C242.689 113.077 239.383 111.818 236.297 110.35C230.345 107.832 224.835 104.685 218.883 102.168C214.254 100.28 209.405 98.3917 204.996 95.8742C204.776 95.8742 204.335 95.4546 203.894 95.6644L204.335 96.2938ZM196.62 133.846C196.62 133.846 197.281 134.266 197.722 134.266C198.163 134.895 198.824 134.895 199.486 135.105C210.066 139.301 220.867 142.867 231.447 147.273C232.329 147.692 233.211 148.112 234.313 148.112C237.84 137.832 242.689 128.392 246.877 118.112C245.775 118.112 245.114 118.322 244.453 118.532C241.807 118.951 238.942 119.58 236.297 120C234.093 120.42 231.668 120.839 229.464 121.259C227.259 121.678 225.055 122.098 222.851 122.518C220.646 123.147 218.442 122.937 216.238 123.776C215.797 123.776 215.577 123.776 215.356 123.566C214.915 123.147 214.695 122.727 214.254 122.098C211.389 116.643 207.862 111.608 204.996 106.364C203.233 103.427 201.69 100.28 199.706 97.5525C199.045 96.2938 198.383 95.035 197.722 93.3567C191.33 104.266 186.48 115.594 180.749 126.504C184.937 128.811 189.346 130.699 193.755 132.587C194.636 133.007 195.518 133.427 196.4 133.427L196.62 133.846ZM179.647 50.5595C179.647 50.5595 180.309 50.1399 180.309 49.9301C180.97 48.6714 181.19 47.6224 181.411 46.1539C181.411 44.6854 181.631 43.2169 181.852 41.7483C181.852 41.3287 181.852 40.9092 182.292 40.9092C182.954 40.9092 182.954 41.3287 183.174 41.7483C183.174 42.1679 183.174 42.5875 183.174 43.0071C183.174 44.2658 183.174 45.7343 183.174 46.9931C184.937 41.9581 184.937 37.1329 182.292 32.5175C181.852 31.8882 181.411 31.2588 180.749 30.6294C179.427 29.5805 178.545 29.5805 177.223 30.6294C176.341 31.2588 175.459 31.8882 174.357 32.3078C172.153 33.1469 170.83 34.8252 169.508 36.7134C171.932 39.021 173.255 41.7483 174.357 44.6854C175.239 47.6224 175.68 50.5595 175.68 53.4966C177.663 50.7693 178.325 47.6224 177.884 44.4756C177.884 43.0071 177.443 41.3287 177.223 39.8602C177.223 39.4406 177.223 39.021 177.663 38.8113C178.325 38.8113 178.545 39.2308 178.545 39.4406C178.986 40.4896 179.206 41.7483 179.647 43.0071C180.309 45.5245 179.647 48.042 179.647 50.5595C179.647 50.5595 178.986 50.7693 179.647 51.1889C179.647 51.1889 179.647 50.7693 179.647 50.5595ZM160.25 103.846C157.384 105.525 154.519 107.413 151.653 109.091C145.261 112.448 138.648 114.126 131.374 111.818C131.153 112.028 131.153 112.238 131.153 112.657C131.374 116.014 131.153 119.161 131.153 122.518C131.153 123.776 131.153 125.245 130.933 126.504C130.933 127.343 130.933 127.972 132.256 128.182C133.578 128.392 134.68 128.811 136.003 129.231C138.428 130.07 140.632 130.49 143.277 130.699C151.653 131.119 159.368 129.65 166.863 126.084C167.965 125.664 168.406 125.035 167.965 123.986C167.965 123.357 167.965 122.937 167.744 122.308C166.422 114.965 165.32 107.622 165.981 100.28C165.981 100.07 165.981 99.6504 166.201 100.07C164.658 101.329 163.115 102.587 161.352 103.846C161.131 103.846 160.911 103.846 160.911 104.266L160.25 103.846ZM114.401 144.336C114.401 144.336 115.944 143.287 116.826 142.657C119.03 141.189 119.912 141.399 121.896 142.867C123.659 144.546 124.982 146.434 126.304 148.532C126.304 148.951 126.304 149.58 127.186 149.371C127.847 142.448 128.288 135.315 128.508 128.392C128.508 126.713 128.508 124.825 128.729 123.147C129.17 118.951 129.39 114.755 128.729 110.35C128.729 109.72 128.729 109.301 128.068 109.72C125.863 110.979 123.439 112.448 121.234 113.706C115.283 117.063 111.976 122.308 111.095 128.811C110.213 134.266 109.552 139.72 108.89 145.175C108.89 146.853 108.229 148.532 108.67 150.42C110.433 148.112 112.417 146.014 114.401 144.126V144.336ZM145.04 181.888C143.277 182.308 141.514 182.727 139.75 183.147C137.766 183.566 136.444 184.615 135.342 186.084C132.476 190.07 129.39 194.056 126.525 198.042C125.643 199.301 124.761 200.559 123.439 201.608C118.148 205.594 112.197 208.532 105.804 210.629C98.31 212.937 91.0359 215.245 83.7619 218.182C79.5738 219.86 75.6061 221.748 72.0793 224.266C71.418 224.685 70.7567 225.315 69.875 225.734C69.4342 225.944 68.9933 225.944 68.5525 225.734C68.1116 225.315 68.5525 224.895 68.5525 224.685C69.2137 223.846 70.0955 223.007 70.9772 222.168C72.0793 221.119 73.6223 220.49 74.504 219.231C69.4342 216.294 64.1439 213.776 59.0741 211.259C56.2086 209.371 53.3431 207.692 50.0367 206.014C49.5958 208.532 48.9345 210.839 48.7141 213.147C47.612 219.86 47.3916 226.364 47.8324 233.077C48.2733 239.58 50.4775 245.455 54.2248 250.699C56.429 253.636 59.515 255.315 63.4827 255.105C65.2461 255.105 67.0095 254.685 68.7729 254.266C72.7406 253.007 76.4878 251.539 80.0146 249.441C84.864 246.713 89.2725 243.776 93.6811 240.629C104.262 232.867 114.842 225.105 125.422 217.343C132.476 212.308 133.578 211.678 142.395 211.678C146.804 211.678 151.212 211.259 155.621 210.839C160.029 210.21 163.997 209.161 167.744 206.853C169.508 205.804 171.271 204.546 173.475 203.916C173.916 203.916 174.137 203.497 174.137 203.077C174.137 202.448 174.137 201.818 174.137 200.979C173.255 201.608 172.594 202.028 171.932 202.657C170.61 203.706 169.067 204.755 167.744 205.804C166.201 206.853 164.217 207.273 162.234 207.063C160.25 207.063 158.266 206.643 156.282 206.434C155.621 206.434 154.519 206.434 154.519 205.594C154.519 204.755 155.621 204.755 156.282 204.755C157.164 204.755 157.825 204.755 158.707 204.755C159.588 204.755 160.47 204.755 161.352 204.965C163.997 205.385 166.201 204.546 168.185 203.077C169.728 201.818 171.271 200.769 172.594 199.511C173.255 198.881 174.577 199.091 174.577 198.042C174.577 197.203 173.255 196.783 173.034 195.944C170.389 197.622 167.965 199.091 165.54 200.769C164.217 201.608 162.674 202.448 161.131 202.238C158.045 202.028 154.96 201.608 152.094 201.189C151.653 201.189 151.212 200.769 151.212 200.35C151.212 199.93 151.653 199.72 152.094 199.72C152.976 199.72 153.857 199.72 154.739 199.72C156.062 199.72 157.384 200.14 158.707 200.35C160.029 200.35 161.352 200.769 162.674 200.14C166.201 198.462 169.067 196.154 172.373 194.266C173.034 193.846 173.255 192.587 173.034 192.168C171.932 190.699 171.712 190.49 170.169 191.329C167.303 192.797 164.438 194.476 161.572 196.154C160.47 196.783 159.148 197.203 157.825 197.413C154.96 197.413 152.314 197.413 149.669 197.203C148.788 197.203 147.685 197.203 147.685 196.364C147.685 195.315 149.008 195.525 149.89 195.525C152.094 195.525 154.298 195.944 156.282 195.734C158.045 195.734 159.588 195.315 160.911 194.476C163.997 192.587 167.083 190.699 170.389 189.441C171.271 189.021 171.491 188.601 171.051 187.762C170.389 185.874 170.389 185.874 168.406 186.084C167.744 186.084 167.303 186.084 166.642 186.294C163.777 186.923 160.911 187.553 158.045 188.392C156.282 188.811 154.519 189.021 152.535 188.601C149.89 187.972 147.245 187.762 144.599 187.553C144.159 187.553 143.718 187.553 143.277 187.553C142.836 187.553 142.836 187.133 142.616 186.923C142.616 186.504 142.836 186.084 143.277 186.294C145.481 186.504 145.261 185.035 145.261 183.776C145.261 183.776 145.261 183.357 145.261 183.147C145.261 182.518 145.261 182.518 144.82 182.727L145.04 181.888ZM76.9287 149.161C76.047 147.063 75.1653 145.175 73.8427 143.077C73.4018 143.497 72.961 143.706 72.5201 144.126C70.3159 146.224 68.1116 148.532 66.1278 150.839C60.3967 157.343 55.5473 164.685 50.6979 171.608C46.5099 177.692 42.3218 183.986 39.0154 190.49C36.8111 194.685 35.709 194.266 41.2196 197.622C46.069 200.35 51.3592 202.238 56.429 204.126C56.8699 204.126 57.0903 204.126 57.5312 204.126C57.5312 204.546 57.972 204.546 58.1924 204.546C64.8052 206.643 71.1976 208.951 78.0308 210.629C80.2351 211.259 82.2189 211.888 84.4232 212.727C85.0844 212.937 85.7457 213.566 86.407 213.357C86.8478 212.518 87.0683 211.888 87.5091 211.259C89.0521 208.112 91.0359 204.965 93.4606 202.238C94.1219 201.399 94.5628 200.979 94.1219 199.93C90.5951 184.196 85.5253 169.091 79.5738 154.196C78.9125 152.308 78.0308 150.42 76.9287 148.741V149.161ZM120.353 200.35C121.675 199.93 122.557 198.881 123.439 198.042C124.32 197.413 124.761 196.364 124.761 195.315C124.761 193.217 124.761 191.119 124.761 189.021C124.761 182.937 124.982 176.643 125.422 170.56C125.422 167.413 125.863 164.266 126.084 161.329C126.084 160.49 126.084 159.86 125.643 159.021C124.761 157.762 123.879 156.504 122.557 155.455C121.896 154.615 121.014 153.986 120.132 153.357C117.707 151.678 117.487 151.678 115.062 153.357C114.842 153.566 114.401 153.776 114.181 153.986C113.74 154.406 113.079 154.825 112.638 155.035C112.197 155.455 111.536 155.874 110.874 155.664C110.213 155.245 110.433 154.615 110.433 153.986C110.433 153.567 110.874 153.147 110.213 152.937C109.552 153.357 109.111 154.196 108.67 154.615C108.229 155.035 107.788 155.455 107.127 155.245C106.466 155.035 106.466 154.406 106.466 153.776C106.466 151.888 106.466 150 106.686 148.322C107.347 142.238 108.45 136.364 108.89 130.28C109.331 128.601 109.772 126.923 109.993 125.035C106.245 125.874 102.939 126.713 99.6326 127.972C91.2564 131.119 83.5415 135.315 76.7082 140.979C75.3857 142.028 75.3857 142.028 76.2674 143.287C78.6921 147.063 80.6759 151.049 82.4393 155.245C87.95 168.462 92.3585 181.678 95.6649 195.525C96.767 200.14 98.0896 204.546 98.5304 209.371C99.6326 209.371 100.294 209.161 101.176 208.532C105.143 207.692 108.89 206.224 112.638 204.755C115.503 203.497 118.148 202.238 120.353 200.35ZM115.944 82.2378C113.96 75.9441 112.417 69.8602 111.536 63.5665C111.536 62.7273 110.874 62.5175 109.993 62.5175C108.67 62.5175 107.568 63.5665 107.127 65.035C106.466 66.9231 106.686 69.021 107.127 70.9092C107.788 74.056 108.45 76.9931 110.433 79.5106C111.756 81.1889 113.299 82.2378 115.944 81.8183V82.2378ZM149.228 170.35C151.874 168.671 154.739 168.042 157.605 167.622C159.809 167.203 162.013 167.203 164.217 166.993C170.389 166.574 176.561 166.364 182.733 166.993C183.174 166.993 183.615 166.993 183.615 166.574C183.615 166.154 183.395 165.944 182.954 165.734C181.631 165.315 180.088 164.685 178.545 164.685C172.594 164.685 166.642 164.685 160.691 165.105C157.605 165.525 154.739 165.944 151.653 166.783C150.11 167.203 149.228 168.042 149.008 170.14L149.228 170.35ZM94.7832 202.657C93.0198 206.224 90.5951 209.161 88.8317 212.937C91.6972 211.888 94.3423 211.049 96.9874 210C95.6649 207.692 95.4445 205.385 94.7832 202.657Z" fill="#1C1C1B"/>
<path d="M169.728 207.902C171.051 207.063 172.374 206.224 173.696 205.385C173.696 205.385 174.137 205.175 174.357 205.175C175.459 206.224 177.443 205.804 178.105 207.273C179.427 209.58 181.411 210.42 183.836 210.839C186.701 211.259 189.567 211.469 192.212 211.469C193.534 211.469 194.416 211.678 195.298 212.727C196.18 213.986 197.723 215.035 199.266 215.455C200.147 215.874 200.588 216.294 200.808 217.133C201.911 220.07 203.454 223.007 204.997 225.944C205.658 227.203 205.878 228.252 205.878 229.51C206.099 242.937 205.217 256.573 205.437 270C205.437 272.727 205.437 275.245 205.878 277.972C205.878 278.601 206.099 279.231 206.76 279.65C206.76 280.909 206.76 282.378 206.76 283.636C206.76 285.105 206.099 285.944 204.776 286.364C203.233 286.993 201.69 287.832 199.927 288.252C193.755 290.14 187.583 292.028 181.191 293.287C177.002 294.126 172.814 294.126 168.626 294.336C167.745 294.336 166.642 294.336 165.761 293.916C165.761 293.916 165.761 293.496 165.761 293.287C168.626 290.35 169.288 286.783 169.728 283.007C170.61 275.874 169.728 268.741 169.728 261.818C169.508 257.413 169.288 253.007 169.728 248.601C170.169 235.804 170.831 223.007 171.492 210.21C171.492 209.58 171.712 208.741 171.492 208.112C170.831 207.902 170.39 208.112 169.728 208.112V207.902Z" fill="#79B62F"/>
<path d="M122.116 289.93C122.116 291.818 121.896 292.448 120.132 292.657C119.912 292.657 119.691 292.657 119.471 292.657C111.315 292.028 103.159 290.769 96.3261 286.154C93.681 284.476 90.8154 282.587 89.9337 279.441C89.9337 279.231 89.4929 278.811 89.2725 278.601C90.595 268.322 90.8154 257.832 91.2563 247.343C91.2563 246.504 91.2563 245.874 92.138 245.455C100.514 239.371 108.67 233.287 116.826 227.203C117.487 226.783 118.148 226.364 118.81 225.944C118.81 226.573 118.81 227.413 118.81 228.042C118.369 235.385 118.81 242.727 117.928 250.07C117.267 257.413 117.267 264.755 116.605 271.888C116.164 276.713 115.944 281.748 115.724 286.573C115.724 289.301 117.487 290.979 120.353 290.769C121.014 290.769 121.675 290.559 122.336 290.35L122.116 289.93Z" fill="#79B62F"/>
<path d="M244.453 103.217C244.453 103.217 243.571 102.797 243.571 102.378C243.571 101.958 243.571 101.329 243.792 100.909C245.114 97.972 246.657 95.2447 248.421 92.7272C248.862 92.3077 249.302 91.8881 249.964 91.4685C250.184 91.4685 250.625 91.4685 250.845 91.4685C251.066 91.4685 250.845 91.8881 250.845 92.3077C250.404 93.3566 249.964 94.1958 249.523 95.2447C248.421 97.5524 247.098 100.07 245.996 102.378C245.776 103.007 245.335 103.427 244.453 103.427V103.217Z" fill="#1C1C1B"/>
<path d="M257.017 96.2938C255.474 98.1819 253.711 99.8602 252.168 101.539C251.506 102.168 250.625 103.007 249.743 103.427C249.082 103.846 248.42 103.846 247.98 103.427C247.539 102.797 247.98 102.378 248.2 101.958C250.184 100.28 251.947 98.1819 254.372 96.9231C255.033 96.5036 255.695 95.8742 256.797 96.5036L257.017 96.2938Z" fill="#292629"/>
<path d="M253.049 106.574C253.049 106.574 251.286 106.574 251.065 105.734C251.065 104.895 251.727 104.476 252.388 104.476C254.592 104.056 256.797 103.846 259.001 103.636C259.442 103.636 259.662 103.636 260.103 103.636C260.323 103.636 260.764 103.636 260.764 104.056C260.764 104.476 260.764 104.476 260.323 104.685C258.56 105.105 256.797 105.525 255.254 105.944C254.372 105.944 253.711 106.154 253.27 106.364L253.049 106.574Z" fill="#292629"/>
<path d="M212.27 157.972C212.27 155.664 213.152 153.357 213.372 151.049C213.372 150.42 213.372 150 213.372 149.371C213.372 148.951 213.372 148.531 212.711 148.531C212.27 148.531 212.05 148.741 211.829 149.161C211.609 150 211.168 150.839 211.168 151.678C208.743 161.958 206.539 172.448 204.335 182.937C204.114 184.406 203.673 185.874 203.453 187.343C202.351 186.923 201.91 186.084 201.249 185.455C200.367 184.825 199.706 183.986 199.044 183.147C197.501 181.468 195.518 180.839 193.313 180.629C190.889 180.629 188.464 180.629 186.039 181.049C186.039 177.902 186.039 174.965 186.039 171.818C186.039 170.559 186.039 169.301 186.039 168.042C186.039 165.315 184.937 164.056 182.292 163.217C178.986 162.378 175.679 162.168 172.373 162.587C170.83 162.587 169.066 162.797 167.523 162.587C167.523 162.378 167.523 161.958 167.523 161.748C168.185 162.378 168.626 162.587 169.066 161.748C169.287 160.909 169.507 160.07 169.507 159.231C169.507 156.923 169.507 154.615 169.507 152.098C169.507 151.678 169.507 151.049 169.507 150.629C169.507 149.79 170.389 148.951 171.05 148.741C171.932 148.322 172.373 149.371 172.814 149.79C174.136 151.049 175.459 152.517 176.781 153.776C177.222 154.196 177.443 154.615 177.883 154.825C179.206 155.874 179.867 155.664 180.088 154.196C180.088 153.566 180.308 152.727 180.749 152.098C182.953 154.825 183.394 154.825 184.937 151.678C187.582 146.224 189.566 140.769 190.448 134.895C190.448 133.846 190.889 133.846 191.991 134.056C201.91 137.832 211.609 141.608 221.528 145.175C221.969 145.175 222.63 145.175 222.85 146.014C223.291 146.014 223.512 146.853 223.953 146.434C223.953 146.434 223.953 146.853 223.953 147.063C227.92 151.888 230.565 157.552 233.431 163.007C236.517 168.881 238.942 175.175 240.044 181.888C240.264 183.357 240.044 184.196 238.942 185.245C235.856 187.972 232.77 190.28 229.684 192.797C229.022 193.007 228.361 193.217 228.361 194.056C228.361 194.056 227.7 194.056 227.479 194.476C226.157 195.524 224.834 196.154 223.291 196.783C220.426 198.042 217.56 199.51 214.915 201.189C214.033 201.818 213.372 201.608 212.49 201.189C211.168 200.14 210.947 198.671 210.066 197.413C210.507 196.364 210.286 195.315 210.286 194.266C210.286 191.329 210.286 188.392 210.286 185.455C210.286 176.434 210.727 167.203 211.388 158.182L212.27 157.972ZM195.077 142.448C195.077 142.448 195.077 141.189 194.195 140.979C193.313 140.979 193.093 141.399 192.652 142.028C191.77 143.916 191.109 146.014 190.668 148.112C190.668 148.531 190.668 148.951 190.668 149.371C190.668 149.79 190.889 150 191.329 150.21C191.77 150.21 191.991 150 192.211 149.58C192.872 148.531 193.313 147.273 193.975 146.224C194.415 144.965 195.077 143.916 195.077 142.448ZM198.383 147.063C198.383 148.531 198.383 150.21 198.824 151.468C198.824 151.678 199.044 151.888 199.485 151.888C199.706 151.888 199.926 151.678 200.147 151.259C200.808 148.741 201.469 146.224 201.249 143.706C201.249 143.077 200.808 142.448 199.926 142.448C199.044 142.448 198.604 143.077 198.604 143.706C198.604 144.755 198.604 145.804 198.604 146.853L198.383 147.063Z" fill="#78B62F"/>
<path d="M165.099 32.5176C165.099 32.5176 166.201 33.7764 166.422 34.4058C166.863 36.5037 168.406 37.7624 169.508 39.4407C173.475 44.2659 174.357 49.7204 173.696 55.8044C173.696 56.4337 173.475 57.2729 173.255 57.9023C173.255 58.1121 173.255 58.5316 173.255 58.7414C174.798 60.0002 173.696 61.8883 174.577 63.147C175.459 63.147 175.459 62.3079 175.68 61.8883C175.9 60.8393 175.9 59.5806 176.12 58.5316C176.341 56.4337 177.443 54.9652 179.206 54.5456C181.411 54.126 183.835 55.175 184.938 56.8533C185.819 58.3218 186.04 59.7904 186.26 61.2589C186.26 66.0841 185.158 70.6995 182.513 74.8953C181.411 76.5736 179.868 77.6225 177.884 78.0421C175.9 78.6715 175.459 78.4617 175.018 76.5736C174.357 76.5736 174.357 76.9932 174.137 77.4128C173.255 79.5107 172.594 81.8184 171.712 84.126C169.287 90.8393 165.76 97.133 159.809 101.748C155.841 104.895 151.212 106.574 145.922 106.364C145.922 105.525 144.82 104.895 144.379 104.056C143.277 101.958 142.395 99.8603 142.836 97.5526C143.057 95.2449 143.718 92.9372 144.6 90.8393C144.82 90.0002 145.261 89.161 145.04 88.3218C147.245 87.6925 149.449 87.4827 151.433 86.2239C151.653 86.2239 151.874 86.0142 152.314 86.2239C153.857 86.2239 153.857 86.2239 153.417 84.9652C153.417 84.3358 152.976 83.9162 152.755 83.2869C152.535 82.8673 152.094 82.4477 151.433 82.6575C150.992 82.6575 150.771 83.2869 150.771 83.7065C151.212 84.9652 150.331 85.175 149.449 85.5946C147.465 86.2239 145.481 86.8533 143.277 86.6435C143.277 86.0142 143.277 85.175 143.277 84.5456C143.057 82.6575 143.718 80.9792 145.04 79.7204C145.481 79.7204 146.363 79.7204 146.583 79.0911C146.583 78.4617 145.922 78.2519 145.481 78.0421C144.6 77.6225 143.718 77.4128 142.836 76.9932C142.175 76.7834 141.954 76.5736 142.175 75.7344C144.6 70.9093 144.6 65.6645 145.04 60.6295C145.04 60.0002 145.04 59.5806 144.6 59.161C144.6 58.7414 144.159 58.3218 144.159 57.9023C143.938 55.3848 142.395 54.126 140.191 53.0771C138.648 52.4477 137.325 51.8183 136.003 50.7694C136.003 49.9302 135.562 49.5107 134.901 49.0911C134.239 48.6715 133.578 48.2519 132.917 47.8323C132.917 47.4128 132.917 46.9932 132.476 46.5736C131.594 44.4757 131.815 42.5876 132.476 40.4897C133.358 37.9722 135.342 36.0841 137.546 34.6155C143.938 30.0002 157.164 28.9512 163.777 33.147C164.658 33.7764 165.099 33.5666 165.099 32.5176ZM183.174 65.0351C183.174 65.0351 184.276 64.196 184.056 63.3568C183.835 62.3079 183.615 61.2589 182.513 60.8393C182.513 60.4197 182.513 60.21 182.072 60.0002C180.309 59.161 178.545 59.7904 177.663 61.2589C176.782 62.9372 177.002 64.4058 177.663 66.0841C178.104 67.3428 178.545 68.3918 178.986 69.6505C179.206 70.4897 179.427 71.5386 178.986 72.3778C178.325 73.2169 177.443 73.6365 176.561 73.4267C176.341 73.4267 175.9 73.4267 175.9 73.8463C175.9 74.2659 175.9 74.4757 176.341 74.6855C177.002 75.1051 177.443 75.1051 178.325 75.1051C180.088 74.6855 181.19 73.2169 181.411 71.3288C181.411 70.0701 180.97 69.0211 180.97 67.9722C181.411 66.7135 182.733 66.2939 183.615 65.2449L183.174 65.0351ZM155.18 60.8393C155.18 60.8393 155.18 62.5176 155.4 63.3568C155.621 64.196 156.062 64.8253 157.164 65.0351C158.046 65.0351 158.707 64.6155 159.148 63.7764C160.029 61.8883 160.47 59.7904 159.809 57.6925C159.588 56.4337 158.707 55.8044 157.825 55.8044C156.723 55.8044 155.621 56.6435 155.621 57.9023C155.621 58.9512 155.18 60.0002 155.18 61.0491V60.8393ZM155.841 45.9442C154.298 45.9442 151.874 46.7834 149.89 48.4617C149.228 48.8813 148.347 49.7204 149.008 50.3498C149.89 51.3988 150.331 50.3498 150.992 49.7204C153.417 47.4127 157.825 46.7834 161.131 48.4617C161.572 48.6715 162.013 48.8813 162.454 49.0911C162.895 49.0911 163.336 49.7204 163.777 49.0911C163.997 48.4617 163.556 48.2519 163.115 47.8323C161.352 46.3638 159.368 45.5246 156.062 45.5246L155.841 45.9442Z" fill="#FDFDFD"/>
<path d="M108.67 130.07C108.229 136.154 107.127 142.028 106.466 148.112C106.466 150 106.245 151.678 106.245 153.567C106.245 154.196 106.245 154.825 106.907 155.035C107.568 155.035 108.009 155.035 108.45 154.406C108.891 153.776 109.331 153.147 109.993 152.727C110.654 152.727 110.213 153.357 110.213 153.776C110.213 154.406 109.993 155.245 110.654 155.455C111.315 155.664 111.977 155.245 112.417 154.825C113.079 154.406 113.52 153.986 113.96 153.776C114.181 153.567 114.622 153.357 114.842 153.147C117.046 151.469 117.487 151.469 119.912 153.147C120.794 153.776 121.675 154.406 122.337 155.245C122.557 163.846 121.896 172.448 121.455 181.049C121.014 187.553 120.573 193.846 120.132 200.35C117.708 202.238 115.063 203.706 112.417 204.755C108.67 206.434 104.923 207.692 100.955 208.532C100.955 206.434 100.294 204.336 99.8531 202.238C97.208 191.958 93.9016 181.888 90.5952 171.818C87.9501 163.217 85.0845 154.406 80.8965 146.224C80.2352 144.965 80.676 143.706 81.3373 142.657C81.7782 141.818 82.6599 141.189 83.3211 140.769C91.0361 135.734 99.1918 131.748 108.45 130.07H108.67Z" fill="#79B62F"/>
<path d="M191.33 197.203C192.873 197.413 194.416 197.622 196.179 197.832C196.62 197.832 197.061 197.832 197.061 197.622C197.061 196.993 196.841 196.783 196.4 196.783C195.298 196.364 194.196 195.944 193.094 195.524C192.873 195.105 192.432 195.105 192.212 195.315C192.212 195.315 191.991 194.895 191.771 194.895C188.905 193.007 188.905 192.797 191.771 190.699C192.653 190.699 193.314 191.748 194.196 190.699C194.637 190.28 195.298 190.909 195.739 191.119C196.179 191.119 196.4 191.119 196.62 190.909C196.62 190.699 196.62 190.28 196.62 190.07C195.518 188.811 194.196 188.182 192.212 188.182C191.11 187.133 189.787 186.923 188.465 186.923C186.481 186.923 184.497 187.343 182.513 187.343C179.427 187.552 176.341 187.972 173.476 189.021C173.476 188.182 174.137 187.972 174.578 187.552C180.088 184.825 185.819 182.937 191.991 182.727C194.637 182.727 196.62 183.357 198.604 185.245C202.792 189.86 206.98 194.476 210.066 199.93C210.066 200.14 210.507 200.559 210.728 200.769C214.254 203.077 217.12 206.224 220.867 208.531C223.292 210 225.496 211.678 227.7 213.357C230.346 215.455 233.211 217.552 236.077 219.231C237.399 220.07 238.501 220.909 239.603 221.748C243.351 224.476 245.775 228.042 246.878 232.448C247.318 233.706 247.759 234.965 248.421 236.014C248.421 236.224 248.861 236.434 249.082 236.434C249.523 236.434 249.523 236.014 249.523 235.594C249.523 235.175 249.523 234.965 249.523 234.545C248.641 229.93 246.878 225.734 243.351 222.378C241.808 220.909 240.044 219.441 238.281 218.182C232.55 214.825 227.48 210.629 221.969 206.853C221.969 206.434 221.969 206.434 222.41 206.224C229.023 202.238 234.534 196.993 240.044 191.748C240.485 191.329 240.706 190.909 241.146 190.699C242.469 190.07 242.689 190.07 243.571 191.329C247.539 197.832 249.963 204.755 252.388 211.888C254.813 219.86 256.576 227.832 257.238 236.014C257.678 241.678 256.797 247.133 253.711 251.958C251.947 251.538 250.404 251.119 249.082 250.07C243.571 246.713 239.163 241.888 234.534 237.483C230.346 233.287 226.378 228.671 222.41 224.056C219.545 220.699 216.679 217.552 213.814 214.196C212.491 212.727 211.389 210.839 209.846 209.371C209.185 208.951 208.744 208.322 207.642 208.322C205.658 208.322 203.674 207.692 201.911 206.643C201.249 206.224 200.368 205.804 199.486 205.804C198.825 204.545 197.502 204.126 196.4 203.497C196.179 203.287 195.739 203.077 195.518 203.077C193.094 202.657 190.448 202.448 188.024 201.818C186.922 201.608 185.379 201.399 185.379 200.14C185.379 199.091 186.701 198.252 187.803 197.832C188.244 197.832 188.685 197.832 189.126 197.413C189.787 196.993 190.889 197.413 191.551 196.573L191.33 197.203Z" fill="#FDFDFD"/>
<path d="M76.9289 149.161C78.031 150.839 78.6923 152.727 79.574 154.615C85.7459 169.511 90.5953 184.825 94.1221 200.35C94.3426 201.399 94.1221 201.818 93.4609 202.657C91.0362 205.385 89.0523 208.322 87.5094 211.678C87.0685 212.308 86.8481 213.147 86.4072 213.776C85.5255 213.776 84.8642 213.357 84.4234 213.147C82.4396 212.098 80.2353 211.469 78.031 211.049C71.4182 209.371 64.8055 206.853 58.1927 204.965C57.9723 204.965 57.5314 204.965 57.5314 204.546C56.8701 204.126 56.2088 203.706 55.5476 203.287C52.9025 201.608 50.0369 200.14 47.6122 198.252C45.8488 196.993 45.8488 196.783 46.7305 194.895C50.6982 186.084 55.1067 177.483 59.9561 169.301C63.0421 164.056 66.3484 158.811 70.757 154.196C72.5204 152.308 74.5042 150.629 77.1493 149.79L76.9289 149.161Z" fill="#79B62F"/>
<path d="M167.744 161.748C167.744 161.748 167.744 162.378 167.744 162.587C163.997 162.797 160.47 163.007 156.943 163.636C154.96 164.056 152.976 164.266 150.992 164.895C149.008 165.524 147.686 166.783 147.024 168.671C146.143 170.979 146.143 173.496 145.922 176.014C145.922 179.161 145.922 179.161 142.616 180C141.734 180 141.073 180.42 140.191 180.629C136.885 181.049 134.24 182.937 132.476 185.664C131.154 187.762 129.611 189.65 128.068 191.538C127.847 191.958 127.627 192.587 126.745 192.378C126.745 189.65 126.745 187.133 126.745 184.406C126.745 179.371 127.186 174.336 127.627 169.301C128.288 161.748 128.949 154.406 129.611 146.853C130.052 141.818 130.052 136.993 130.272 131.958C130.272 131.119 130.272 130.489 130.272 129.231C136.664 131.538 142.836 133.007 149.229 132.378C155.621 131.748 161.572 130.07 167.524 127.133C167.524 129.021 167.965 130.909 167.965 132.587C167.965 140.769 167.965 148.951 167.524 157.133C167.524 158.601 167.083 160.28 167.524 161.748H167.744Z" fill="#FDFDFD"/>
<path d="M59.2948 211.259C64.3646 213.776 69.6549 216.294 74.7247 219.231C73.6225 220.49 72.3 221.119 71.1978 222.168C70.3161 223.007 69.4344 223.636 68.7732 224.685C68.5527 225.105 68.3323 225.525 68.7732 225.734C69.214 226.154 69.6549 225.944 70.0957 225.734C70.757 225.315 71.4183 224.685 72.3 224.266C75.8268 221.748 80.0149 219.86 83.9826 218.182C91.2566 215.245 98.5307 212.937 106.025 210.629C112.418 208.532 118.369 205.594 123.659 201.608C124.982 200.56 125.864 199.301 126.745 198.042C129.611 194.056 132.697 190.07 135.562 186.084C136.664 184.615 138.207 183.566 139.971 183.147C141.734 182.727 143.498 182.308 145.261 181.888C145.261 181.888 145.481 182.098 145.702 182.308C145.702 182.308 145.702 182.727 145.702 182.937C145.702 184.196 145.922 185.664 143.718 185.455C143.277 185.455 143.057 185.874 143.057 186.084C143.057 186.294 143.277 186.713 143.718 186.713C144.159 186.713 144.6 186.713 145.041 186.713C147.686 186.923 150.331 187.133 152.976 187.762C154.739 188.182 156.503 187.972 158.487 187.553C161.352 186.713 164.218 186.084 167.083 185.455C167.744 185.455 168.185 185.455 168.847 185.245C170.61 185.245 170.61 185.245 171.492 186.923C170.39 186.923 169.508 186.923 168.406 187.133C164.218 187.972 160.03 189.021 155.841 189.65C152.756 190.07 149.449 190.699 146.584 191.748C143.718 192.587 141.073 194.056 140.412 197.413C140.412 198.042 139.971 198.462 139.31 198.671C136.885 199.511 135.342 201.189 133.799 202.867C131.595 205.175 128.949 206.643 126.084 207.902C125.643 207.902 125.423 208.112 124.982 208.322C118.81 211.678 112.858 215.455 107.127 219.65C100.515 224.685 94.1222 229.93 87.7298 235.175C83.3213 238.741 78.6923 242.098 73.6225 245.035C70.9774 246.713 68.1119 248.182 65.0259 248.811C60.8378 249.65 57.311 248.182 55.5476 244.406C55.1067 243.566 54.8863 242.727 54.6659 241.888C53.3433 237.692 53.7842 233.497 54.225 229.511C54.8863 224.056 56.2089 218.811 58.1927 213.567C58.4131 212.727 58.6336 211.888 59.5153 211.469L59.2948 211.259Z" fill="#FDFDFD"/>
<path d="M59.2946 211.259C59.2946 211.259 58.1924 212.518 57.972 213.357C55.9882 218.602 54.886 223.846 54.0043 229.301C53.3431 233.497 53.1226 237.692 54.4452 241.678C54.6656 242.518 54.886 243.357 55.3269 244.196C57.0903 247.972 60.6171 249.441 64.8052 248.602C67.8912 247.972 70.7567 246.504 73.4018 244.825C78.2512 241.888 82.8802 238.532 87.5091 234.965C93.9015 229.72 100.514 224.476 106.907 219.441C112.417 215.245 118.369 211.469 124.761 208.112C124.982 208.112 125.422 207.902 125.863 207.692C128.729 206.434 131.374 204.965 133.578 202.657C135.121 200.979 136.664 199.301 139.089 198.462C139.75 198.252 139.971 197.832 140.191 197.203C140.852 194.056 143.277 192.588 146.363 191.539C149.449 190.49 152.535 190.07 155.621 189.441C159.809 188.811 163.997 187.762 168.185 186.923C169.287 186.923 170.169 186.923 171.271 186.713C171.712 187.553 171.271 187.972 170.61 188.392C167.303 189.65 164.217 191.748 161.131 193.427C159.588 194.266 158.045 194.685 156.502 194.685C154.298 194.685 152.094 194.476 150.11 194.476C149.228 194.476 147.906 194.476 147.906 195.315C147.906 196.154 149.228 196.154 149.89 196.154C152.535 196.574 155.4 196.574 158.045 196.364C159.368 196.364 160.691 195.944 161.793 195.105C164.658 193.427 167.524 191.958 170.389 190.28C171.712 189.441 172.153 189.65 173.255 191.119C173.696 191.539 173.255 192.797 172.594 193.217C169.287 195.105 166.201 197.622 162.895 199.091C161.572 199.72 160.25 199.511 158.927 199.301C157.605 199.301 156.282 198.881 154.96 198.671C154.078 198.671 153.196 198.671 152.314 198.671C151.874 198.671 151.433 198.671 151.433 199.301C151.433 199.72 151.653 200.14 152.314 200.14C155.4 200.56 158.266 200.979 161.352 201.189C162.895 201.189 164.438 200.56 165.76 199.72C168.185 198.252 170.83 196.574 173.255 194.895C173.696 195.734 175.018 196.154 174.798 196.993C174.798 198.042 173.475 197.832 172.814 198.462C171.271 199.72 169.728 200.769 168.406 202.028C166.422 203.497 164.217 204.336 161.572 203.916C160.691 203.916 159.809 203.916 158.927 203.706C158.045 203.706 157.384 203.706 156.502 203.706C155.841 203.706 154.739 203.706 154.739 204.546C154.739 205.595 155.841 205.385 156.502 205.385C158.486 205.595 160.47 205.804 162.454 206.014C164.438 206.014 166.422 205.804 167.965 204.755C169.508 203.706 170.83 202.657 172.153 201.608C172.814 201.189 173.475 200.769 174.357 199.93C174.357 200.769 174.357 201.399 174.357 202.028C174.357 202.448 174.357 202.657 173.696 202.867C171.712 203.497 169.948 204.755 167.965 205.804C164.217 208.112 160.25 209.161 155.841 209.79C151.433 210.42 147.024 210.629 142.616 210.629C133.799 210.629 132.696 211.049 125.643 216.294C115.062 224.056 104.262 231.608 93.9015 239.581C89.493 242.727 84.864 245.664 80.2351 248.392C76.7082 250.49 72.961 251.958 68.9933 253.217C67.2299 253.846 65.4665 254.056 63.7031 254.056C59.7354 254.056 56.6495 252.588 54.4452 249.65C50.6979 244.406 48.4937 238.532 48.0528 232.028C47.612 225.315 48.0528 218.601 48.9345 212.098C49.3754 209.79 49.8162 207.483 50.2571 204.965C53.5635 206.643 56.429 208.322 59.2946 210.21V211.259Z" fill="#F2C8D0"/>
<path d="M103.379 50.1399C103.379 50.1399 102.277 48.4615 102.277 47.4126C102.718 46.993 103.159 47.4126 103.6 47.4126C105.804 47.8322 107.788 47.4126 109.992 46.5734C110.653 46.3636 111.315 45.9441 111.315 45.3147C111.315 44.4755 110.653 44.2657 109.992 43.8461C109.331 43.4266 108.67 43.2168 108.008 42.7972C104.482 40.6993 101.396 37.972 99.1913 34.6154C99.1913 34.4056 98.7505 33.986 98.7505 33.5664C98.53 29.3706 98.3096 25.1748 100.073 20.979C104.482 24.7552 108.67 23.0769 112.637 20.7692C114.401 19.7203 115.944 18.042 117.487 16.5734C120.793 13.2168 124.54 10.2797 128.728 7.76224C130.051 6.92308 131.374 6.2937 132.696 5.45454C134.239 5.03496 135.562 4.40559 136.884 3.56643C140.411 2.51748 143.938 2.30769 147.685 2.0979C150.991 2.0979 154.298 2.0979 157.604 2.72727C157.604 2.72727 158.045 2.72727 158.045 3.14685C162.674 5.24475 166.642 7.76224 170.169 11.3287C172.593 13.6364 174.577 16.3636 175.459 19.5105C176.12 21.8182 175.9 23.9161 174.797 26.014C174.797 26.014 174.577 26.014 174.357 26.014C174.357 26.014 174.136 25.5944 173.916 25.3846C172.814 22.2378 170.389 20.1399 167.523 18.4615C164.437 16.5734 161.131 15.1049 157.604 14.2657C152.094 13.007 146.803 12.7972 141.293 14.6853C140.191 15.3147 139.088 15.1049 137.986 15.5245C133.357 16.5734 129.39 18.8811 126.304 22.4476C124.54 24.5455 122.997 26.6434 121.454 28.7413C119.911 30.8392 117.928 32.3077 115.503 33.5664C114.401 34.1958 112.858 34.1958 111.315 34.6154C112.417 35.4545 113.299 35.4545 114.18 35.2448C117.266 34.8252 119.911 33.5664 121.895 31.2587C123.438 29.5804 124.761 27.9021 126.083 26.2238C130.712 19.7203 137.105 16.7832 145.26 16.7832C150.11 16.7832 154.739 17.2028 159.368 18.8811C162.454 19.9301 165.319 21.6084 167.523 23.9161C169.066 25.3846 169.948 27.2727 170.389 29.3706C170.83 31.2587 170.389 32.9371 169.066 34.6154C165.76 27.2727 158.927 25.1748 151.653 23.7063C148.787 23.0769 145.922 23.0769 143.056 23.0769C139.529 23.0769 136.223 24.1259 133.357 26.2238C133.357 26.2238 133.357 26.4336 133.137 26.6434C133.137 26.6434 132.255 26.6434 132.255 27.0629C132.255 27.0629 131.594 27.0629 131.814 27.4825C131.374 27.2727 130.933 27.4825 130.712 27.9021C129.39 28.7413 128.288 29.7902 127.406 31.049C124.54 34.1958 122.777 37.7622 120.793 41.3287C119.911 43.007 119.03 44.8951 117.928 46.3636C114.842 50.1399 110.213 51.6084 105.363 50.3497C104.922 50.3497 104.482 49.9301 103.82 50.1399H103.379Z" fill="#EB882F"/>
<path d="M199.926 97.7622C201.91 100.489 203.674 103.636 205.217 106.573C208.082 111.818 211.609 116.853 214.474 122.308C214.695 122.727 215.136 123.147 215.577 123.776C215.797 123.986 216.238 124.196 216.458 123.986C218.442 123.147 220.867 123.147 223.071 122.727C225.275 122.308 227.48 121.888 229.684 121.469C231.888 121.049 234.313 120.629 236.517 120.21C239.162 119.79 242.028 119.161 244.673 118.741C245.334 118.741 245.995 118.531 247.098 118.322C242.689 128.392 238.06 138.042 234.533 148.322C233.652 148.322 232.549 147.902 231.668 147.482C221.087 143.077 210.286 139.51 199.706 135.315C199.045 135.105 198.383 134.895 197.942 134.475C197.722 134.056 197.281 133.846 196.84 134.056C196.84 134.056 196.62 133.427 196.179 133.217C194.857 132.168 193.314 131.538 191.771 130.699C190.007 129.86 188.244 128.811 186.48 127.972C185.378 127.343 185.158 126.713 185.599 125.664C186.26 124.406 186.921 122.937 187.582 121.678C190.889 115.385 194.416 109.091 197.502 102.587C198.163 101.119 198.824 99.6503 199.926 98.1818V97.7622Z" fill="#FAE81A"/>
<path d="M135.783 50.5596C137.105 51.6085 138.428 52.2379 139.971 52.8673C142.175 53.9162 143.718 55.3847 143.938 57.6924C143.938 58.112 144.159 58.5316 144.379 58.9512C143.277 58.9512 143.277 60.0001 143.057 60.6295C142.836 62.098 142.616 63.7764 142.616 65.2449C142.395 68.8113 142.175 72.3778 140.191 75.5246C139.31 76.7833 139.75 77.6225 141.073 78.2519C142.175 78.8812 143.498 79.3008 144.82 79.5106C143.277 80.7694 142.836 82.4477 143.057 84.3358C143.057 84.9652 143.057 85.8043 143.057 86.4337C141.293 86.4337 139.53 86.2239 137.767 85.8043C137.326 85.8043 136.885 85.8043 136.664 86.2239C136.444 86.8533 136.885 87.0631 137.326 87.2729C137.767 87.2729 138.207 87.4826 138.648 87.6924C140.632 88.3218 142.836 88.112 144.82 88.112C144.82 88.9512 144.82 89.7903 144.379 90.6295C143.718 92.7274 143.057 95.0351 142.616 97.3428C142.395 99.6505 143.057 101.748 144.159 103.846C144.6 104.685 145.481 105.315 145.702 106.154C143.498 106.154 141.514 106.154 139.53 105.105C139.089 104.476 138.648 104.685 137.987 104.476C137.987 104.056 137.326 104.056 136.885 104.056C136.885 103.636 136.444 103.427 135.783 103.636C135.783 103.217 135.783 102.797 135.342 102.588C134.019 101.748 132.917 100.699 131.815 99.6505C128.068 96.084 125.643 91.8882 122.998 87.6924C120.794 84.126 119.692 80.14 118.369 76.154C116.165 69.2309 115.063 62.098 114.401 54.9652C117.267 53.7064 119.912 51.8183 121.675 49.3008C121.675 49.9302 121.675 50.3498 122.337 50.14C122.998 50.14 123.439 49.7204 123.88 49.5106C127.186 48.0421 130.272 47.8323 133.358 49.9302C134.019 50.3498 134.46 50.5596 135.121 50.14L135.783 50.5596ZM132.697 61.2589C132.697 61.2589 132.697 59.7903 132.256 58.9512C132.256 58.112 131.595 57.2729 130.713 57.2729C129.611 57.2729 129.17 58.112 128.949 58.7414C128.288 60.8393 128.509 62.7274 128.949 64.8253C128.949 65.4547 129.611 66.084 130.492 66.084C131.595 66.084 132.035 65.4547 132.256 64.6155C132.476 63.3568 132.697 62.3078 132.917 61.0491L132.697 61.2589Z" fill="#F3C8D1"/>
<path d="M199.486 206.224C199.486 206.224 201.249 206.643 201.91 207.063C203.674 208.112 205.657 208.741 207.641 208.741C208.523 208.741 209.184 209.371 209.846 209.79C211.609 211.259 212.491 213.147 213.813 214.615C216.679 217.762 219.544 221.119 222.41 224.476C226.378 229.091 230.125 233.706 234.533 237.902C238.942 242.518 243.35 247.133 249.081 250.49C250.624 251.329 252.167 251.958 253.71 252.378C252.829 254.266 251.506 256.154 249.963 257.622C247.979 259.511 245.555 260.14 242.909 259.93C239.383 259.511 236.076 258.462 232.99 256.574C227.7 253.427 223.512 249.231 219.765 244.196C216.899 240.21 213.813 236.224 211.609 231.818C209.184 227.203 206.319 222.588 203.894 217.762C203.894 217.343 203.453 216.923 203.233 216.504C203.894 216.084 204.555 216.504 204.996 216.504C205.878 216.504 206.539 216.504 207.421 216.294C207.862 216.294 208.523 216.084 208.523 215.455C208.523 215.035 207.862 215.035 207.421 214.825C206.539 214.825 205.657 214.825 204.776 214.825C201.69 214.825 199.045 213.776 197.281 211.259C196.179 210 195.077 209.371 193.314 209.581C190.007 209.581 186.921 209.581 183.835 208.741C182.733 208.532 181.631 208.112 180.97 207.273C180.97 206.643 181.631 206.853 182.072 206.853C185.819 206.853 189.346 206.853 193.093 206.434C194.636 206.434 196.179 206.434 197.722 206.853C198.383 207.063 199.265 207.483 199.926 206.853L199.486 206.224Z" fill="#F3C8D1"/>
<path d="M76.9288 149.161C74.2837 150 72.2999 151.678 70.5364 153.566C66.3483 158.182 62.8215 163.427 59.7356 168.671C54.8862 177.063 50.4777 185.455 46.51 194.266C45.6283 196.154 45.6283 196.364 47.3917 197.622C49.8164 199.511 52.6819 200.979 55.327 202.657C55.9883 203.077 56.6496 203.497 57.3109 203.916C56.87 203.916 56.6496 203.916 56.2087 203.916C50.9185 202.028 45.6283 200.35 40.9993 197.413C35.7091 194.266 36.5908 194.685 38.7951 190.28C42.3219 183.776 46.2896 177.483 50.4777 171.399C55.327 164.266 60.1764 157.133 65.9075 150.629C67.8913 148.322 70.0956 146.014 72.2998 143.916C72.7407 143.497 72.9611 143.287 73.6224 142.867C74.7245 144.965 75.8267 146.853 76.7084 148.951L76.9288 149.161Z" fill="#FBFBFA"/>
<path d="M160.912 103.427C162.454 102.168 163.997 100.909 165.761 99.6504C165.761 99.4406 165.54 99.6504 165.54 99.8602C165.1 107.203 165.981 114.545 167.304 121.888C167.304 122.518 167.304 122.937 167.524 123.566C167.745 124.615 167.524 125.245 166.422 125.664C158.928 129.231 151.213 130.699 142.837 130.28C140.412 130.28 137.987 129.65 135.562 128.811C135.783 128.392 136.224 128.182 136.665 127.972C142.175 125.455 146.804 121.888 150.551 117.483C153.858 113.497 156.944 109.511 159.809 105.315C160.03 104.895 160.471 104.266 160.25 103.636C160.471 103.636 160.691 103.636 160.691 103.217L160.912 103.427Z" fill="#FDFDFD"/>
<path d="M170.39 143.916C170.39 141.609 170.39 139.091 170.39 136.783C170.39 132.378 169.728 127.972 169.287 123.567C168.847 118.951 167.965 114.546 167.965 109.93C169.508 110.14 171.051 110.769 172.594 111.399C176.782 113.287 180.088 116.224 182.733 120C182.072 122.308 180.75 124.406 179.868 126.713C179.427 127.972 179.868 128.392 180.75 128.811C182.293 129.65 184.056 130.49 185.599 131.329C186.701 131.748 187.803 132.378 188.905 132.797C189.787 133.007 189.787 133.636 189.787 134.266C189.787 136.993 188.685 139.091 185.819 140.35C184.717 140.769 183.836 141.609 182.954 142.238C182.293 140.979 181.631 139.72 180.75 138.671C179.647 137.413 179.427 137.413 178.104 138.462C175.459 140.14 173.035 142.238 170.61 144.336L170.39 143.916Z" fill="#78B62F"/>
<path d="M128.949 110.56C129.39 114.755 129.17 118.951 128.949 123.357C128.949 125.035 128.729 126.923 128.729 128.602C128.509 135.525 128.068 142.657 127.406 149.581C126.525 149.581 126.745 148.951 126.525 148.741C125.423 146.643 124.1 144.755 122.116 143.077C120.132 141.399 119.03 141.399 117.046 142.867C116.165 143.287 115.503 143.916 114.622 144.546C113.96 143.706 113.74 142.867 113.52 141.818C113.52 139.93 113.52 138.042 113.74 136.364C115.063 129.86 117.708 123.986 121.675 118.532C123.659 115.595 126.304 113.077 129.17 110.979L128.949 110.56Z" fill="#78B62F"/>
<path d="M204.335 96.2937C204.335 96.2937 204.996 96.2937 205.437 96.5035C209.846 98.8112 214.695 100.909 219.324 102.797C225.275 105.105 230.786 108.462 236.738 110.979C240.044 112.238 243.13 113.706 246.216 115.175C246.657 115.175 247.098 115.385 247.318 115.804C247.979 116.434 247.318 116.643 246.877 116.643C245.995 116.643 244.893 116.224 244.012 116.434C240.044 116.434 236.076 116.853 232.329 117.273C228.141 117.692 223.953 118.112 219.985 118.531C218.663 118.531 217.561 118.322 216.899 117.273C216.458 116.643 216.018 116.224 215.797 115.594C214.254 112.867 212.711 110.14 211.168 107.413C209.405 104.056 207.421 100.699 204.996 97.7622C204.776 97.3426 204.115 97.1329 204.555 96.5035L204.335 96.2937Z" fill="#FAE81A"/>
<path d="M176.782 168.042C178.986 168.042 181.191 168.042 183.175 169.301C183.836 169.72 184.056 170.14 184.056 170.769C184.056 173.916 184.056 177.063 184.056 180.21C184.056 181.259 183.615 181.678 182.734 181.888C179.648 182.727 176.562 183.986 173.696 185.455C172.814 185.874 172.374 185.874 171.933 185.035C171.272 183.566 170.39 183.357 168.626 183.566C164.879 184.196 161.132 185.035 157.385 186.084C156.062 186.504 154.74 186.713 153.417 186.504C153.417 183.566 153.858 180.629 154.299 177.692C154.74 175.175 156.062 173.497 158.707 172.448C162.675 170.979 166.863 170.14 171.051 169.93C171.051 170.769 170.61 171.608 170.39 172.657C169.949 174.336 170.39 176.224 170.39 177.902C170.39 178.322 170.39 179.161 171.272 179.161C171.933 179.161 171.933 178.322 172.153 177.902C172.153 177.692 172.153 177.273 172.153 177.063C172.153 175.804 172.153 174.755 172.153 173.497C172.153 171.608 172.594 171.189 174.578 170.979C175.68 170.979 176.562 170.979 177.664 170.979C177.884 170.979 178.325 170.979 178.325 170.559C178.325 170.35 178.325 170.14 177.884 169.93C177.443 169.93 176.782 169.93 176.562 169.301C176.341 168.881 176.562 168.881 176.782 168.671V168.042ZM176.562 173.287C176.562 173.287 175.68 171.399 174.798 171.399C173.696 171.399 172.594 172.448 172.594 173.497C172.594 174.545 173.255 175.385 174.137 175.385C175.019 175.385 176.341 174.336 176.562 173.287ZM181.411 173.287C181.411 173.287 180.529 171.399 179.648 171.399C178.546 171.399 177.443 172.238 177.443 173.287C177.443 174.126 178.105 174.965 179.207 174.965C180.309 174.965 181.191 174.126 181.411 173.077V173.287ZM179.648 179.79C179.648 179.79 181.411 178.951 181.411 178.112C181.411 177.063 180.309 176.014 179.207 176.014C178.325 176.014 177.443 176.643 177.443 177.483C177.443 178.531 178.546 179.79 179.648 179.79ZM176.121 178.322C176.121 177.273 175.239 176.434 174.137 176.434C173.255 176.434 172.374 177.063 172.374 177.902C172.374 178.951 173.255 179.79 174.357 179.79C175.46 179.79 176.121 179.371 176.121 178.322Z" fill="#636363"/>
<path d="M108.67 130.07C99.4126 131.748 91.2568 135.525 83.5419 140.769C82.6602 141.399 81.9989 141.818 81.558 142.658C80.8968 143.706 80.4559 144.965 81.1172 146.224C85.3053 154.406 88.1708 163.007 90.8159 171.818C93.9019 181.888 97.4287 191.958 100.074 202.238C100.515 204.336 100.956 206.434 101.176 208.532C100.294 208.951 99.4126 209.371 98.5309 209.371C98.09 204.755 96.547 200.14 95.6653 195.525C92.3589 181.679 87.9504 168.252 82.4397 155.245C80.6763 151.049 78.6925 147.063 76.2678 143.287C75.3861 142.028 75.3861 142.028 76.7087 140.979C83.5419 135.315 91.2568 131.119 99.633 127.972C102.939 126.713 106.466 125.874 109.993 125.035C109.993 126.923 109.332 128.602 108.891 130.28L108.67 130.07Z" fill="#F8F9F7"/>
<path d="M122.116 289.93C122.116 289.93 120.793 290.35 120.132 290.35C117.266 290.559 115.283 289.091 115.503 286.154C115.723 281.329 116.164 276.294 116.385 271.469C117.046 264.126 117.266 256.783 117.707 249.65C118.369 242.308 118.148 234.965 118.589 227.622C118.589 226.993 118.589 226.154 118.589 225.525C120.132 224.056 122.116 223.007 123.879 221.748C124.541 221.748 124.541 222.378 124.32 222.587C123.879 229.72 123.218 237.063 122.777 244.196C122.336 251.119 121.895 258.042 121.675 264.965C121.455 271.049 121.455 277.133 121.234 283.217C121.234 285.525 121.234 287.622 122.336 289.72L122.116 289.93Z" fill="white"/>
<path d="M160.25 103.846C160.25 103.846 160.25 104.895 159.809 105.525C156.943 109.72 153.857 113.706 150.551 117.692C146.583 122.308 141.954 125.664 136.664 128.182C136.223 128.182 136.003 128.602 135.562 129.021C134.239 128.602 133.137 128.182 131.815 127.972C130.713 127.972 130.492 127.133 130.492 126.294C130.492 125.035 130.492 123.567 130.713 122.308C130.933 118.951 131.153 115.804 130.713 112.448C130.713 112.238 130.713 111.818 130.933 111.609C138.207 113.916 144.82 112.238 151.212 108.881C154.298 107.203 156.943 105.525 159.809 103.636L160.25 103.846Z" fill="#F3C8D1"/>
<path d="M165.099 32.5177C165.099 32.5177 164.658 33.7764 163.776 33.147C157.164 28.9512 143.938 30.0002 137.546 34.6156C135.341 36.0841 133.578 37.9722 132.476 40.4897C131.815 42.5876 131.594 44.4757 132.476 46.5736C132.476 46.9932 132.696 47.4128 132.917 47.8323C129.61 46.9932 126.304 47.203 123.218 49.0911C123.218 49.0911 122.777 49.0911 122.557 49.0911C124.981 45.7344 126.304 41.9582 127.847 38.182C128.949 35.4547 130.272 32.9372 131.815 30.6296C134.239 27.2729 137.325 25.175 141.513 24.9652C149.228 24.5456 156.502 25.5946 162.895 30.4198C163.776 31.0491 164.658 31.6785 165.099 32.5177Z" fill="#F2C8D0"/>
<path d="M141.293 14.8952C146.583 13.007 152.094 13.2168 157.605 14.4756C161.131 15.3147 164.438 16.7833 167.524 18.6714C170.389 20.3497 172.593 22.4476 173.916 25.5945C173.916 25.5945 173.916 26.014 174.357 26.2238C174.357 26.2238 174.357 26.2238 174.798 26.2238C175.9 24.1259 176.12 22.028 175.459 19.7203C174.577 16.3637 172.593 13.8462 170.169 11.5385C166.642 7.97207 162.674 5.45459 158.045 3.35669C164.438 4.19585 170.169 6.08396 175.018 10.07C180.088 14.056 181.411 19.5105 179.206 24.9651C178.104 28.1119 176.341 29.7903 172.814 31.4686C172.814 30.4196 172.814 29.5805 172.373 28.5315C171.712 25.5945 170.169 23.2868 167.744 21.3986C163.997 18.2518 159.588 16.7833 154.739 15.7343C150.33 14.8952 145.922 14.8952 141.513 14.8952H141.293Z" fill="#FAF7F5"/>
<path d="M230.345 192.797C233.431 190.28 236.738 187.972 239.603 185.245C240.705 184.196 240.926 183.357 240.705 181.888C239.383 175.175 237.179 169.091 234.093 163.007C231.227 157.552 228.582 151.888 224.614 147.063C224.614 147.063 224.614 146.643 224.614 146.434C226.598 146.643 228.362 147.273 229.243 149.161C229.243 149.58 229.904 150 230.125 150.42C235.636 156.294 239.162 163.007 241.808 170.35C243.571 174.965 245.555 179.371 246.436 184.196C246.657 186.084 246.877 186.084 244.893 186.713C240.044 188.392 235.636 190.909 231.007 192.797C231.007 192.797 230.566 192.587 230.566 192.378L230.345 192.797Z" fill="#F8F9F7"/>
<path d="M179.647 50.7694C179.647 48.2519 180.309 45.7344 179.647 43.217C179.427 41.9582 179.207 40.9093 178.545 39.6505C178.545 39.2309 178.104 38.8114 177.664 39.0211C177.223 39.0211 177.223 39.6505 177.223 40.0701C177.223 41.5386 177.664 43.217 177.884 44.6855C178.325 47.8323 177.664 50.9792 175.68 53.7065C175.68 50.7694 175.239 47.8323 174.357 44.8953C173.255 41.9582 171.933 39.2309 169.508 36.9232C170.83 35.2449 172.153 33.3568 174.357 32.5177C175.459 32.0981 176.121 31.2589 177.223 30.8393C178.545 30.0002 179.427 30.0002 180.75 30.8393C181.411 31.2589 181.852 31.8883 182.293 32.7274C184.717 37.3428 184.938 42.3778 183.174 47.203C183.174 45.9442 183.174 44.4757 183.174 43.217C183.174 42.7974 183.174 42.3778 183.174 41.9582C183.174 41.5386 182.954 41.1191 182.293 41.1191C181.852 41.1191 181.852 41.5386 181.852 41.9582C181.852 43.4267 181.631 44.8953 181.411 46.3638C181.411 47.6225 180.97 48.8813 180.309 50.14C180.309 50.3498 180.088 50.7694 179.647 50.7694Z" fill="#EB882F"/>
<path d="M128.949 110.56C126.084 112.657 123.659 115.175 121.455 118.112C117.487 123.567 114.842 129.441 113.519 135.944C113.079 137.832 113.079 139.511 113.299 141.399C113.299 142.448 113.74 143.287 114.401 144.126C112.417 146.014 110.433 147.902 108.67 150.42C108.229 148.532 108.67 146.853 108.891 145.175C109.552 139.72 110.213 134.266 111.095 128.811C111.976 122.308 115.283 117.273 121.234 113.706C123.439 112.448 125.863 110.979 128.068 109.72C128.729 109.301 128.949 109.72 128.729 110.35L128.949 110.56Z" fill="#F8F9F7"/>
<path d="M132.697 5.66445C131.374 6.50361 130.052 7.13298 128.729 7.97215C124.541 10.2798 120.794 13.2169 117.487 16.7833C115.944 18.2519 114.622 19.9302 112.638 20.9791C108.67 23.2868 104.482 24.9652 100.074 21.1889C98.3102 25.3847 98.3102 29.5805 98.7511 33.7763C96.5468 30.8393 95.6651 27.2728 95.2243 23.7064C95.0038 20.9791 95.2243 18.2519 95.8855 15.9442C96.106 15.5246 96.3264 15.5246 96.5468 15.7344C101.176 18.8812 106.025 19.091 111.095 17.4127C113.74 16.5735 116.165 15.105 118.589 13.6365C121.014 11.9582 123.659 10.2798 126.084 8.60152C128.068 7.34278 130.272 6.08403 132.476 5.24487C132.697 5.24487 132.917 5.45466 132.917 5.87424L132.697 5.66445Z" fill="#FAF7F5"/>
<path d="M199.927 97.7624C198.825 99.0211 198.163 100.49 197.502 102.168C194.416 108.671 190.889 114.965 187.583 121.259C186.922 122.518 186.26 123.986 185.599 125.245C185.158 126.294 185.379 126.923 186.481 127.553C188.244 128.392 190.007 129.441 191.771 130.28C193.314 131.119 194.857 131.958 196.179 132.797C196.4 133.007 197.061 133.217 196.841 133.846C195.739 133.846 195.077 133.217 194.196 133.007C189.787 131.119 185.158 129.231 181.19 126.923C186.922 116.014 191.55 104.476 198.163 93.7764C198.825 95.2449 199.486 96.5036 200.147 97.9722L199.927 97.7624Z" fill="#F8F9F7"/>
<path d="M120.353 200.35C120.793 193.846 121.234 187.553 121.675 181.049C122.116 172.448 122.777 163.846 122.557 155.245C123.879 156.084 124.761 157.553 125.643 158.811C126.304 159.441 126.084 160.28 126.084 161.119C126.084 164.266 125.643 167.413 125.422 170.35C124.981 176.434 124.761 182.727 124.761 188.811C124.761 190.909 124.761 193.007 124.761 195.105C124.761 196.364 124.32 197.203 123.439 197.832C122.336 198.671 121.675 199.72 120.353 200.14V200.35Z" fill="#F8F9F7"/>
<path d="M204.335 96.2939C204.335 96.2939 204.335 97.133 204.776 97.5526C207.201 100.49 209.185 103.846 210.948 107.203C212.491 109.93 214.034 112.657 215.577 115.385C215.797 116.014 216.238 116.434 216.679 117.063C217.34 118.112 218.442 118.532 219.765 118.322C223.953 117.902 228.141 117.483 232.109 117.063C236.077 116.644 240.044 116.224 243.791 116.224C244.673 116.224 245.775 116.224 246.657 116.434C242.689 117.692 238.501 118.112 234.534 118.741C228.802 119.79 223.292 120.839 217.561 121.888C217.12 121.888 216.899 122.098 216.679 122.308C211.389 113.497 206.539 104.266 200.808 95.6645C200.367 95.2449 199.486 94.6155 200.367 93.7764C200.367 93.7764 202.572 94.8253 203.233 95.8743C203.453 96.0841 203.674 96.7134 204.335 96.2939Z" fill="#FAF7F5"/>
<path d="M176.782 168.042C176.782 168.042 176.121 168.252 176.562 168.671C175.68 168.671 174.798 168.671 173.917 168.881C173.696 168.881 173.476 168.881 173.255 168.881C172.594 168.881 171.712 168.881 171.051 169.301C166.863 169.511 162.675 170.35 158.707 171.818C156.283 172.867 154.74 174.546 154.299 177.063C153.858 180 153.637 182.937 153.417 185.874C151.433 185.664 149.449 185.245 147.465 185.035C147.025 184.406 147.245 183.567 147.465 182.937C148.127 180.42 148.127 177.692 148.347 175.175C148.347 173.287 149.229 172.028 150.772 171.189C152.976 169.72 155.621 169.301 158.046 168.881C161.573 168.252 165.32 168.042 168.847 167.832C169.288 167.832 169.508 167.832 169.949 167.832C172.153 167.832 174.578 167.832 176.782 167.832V168.042Z" fill="#F8F9F7"/>
<path d="M114.621 55.5945C115.282 62.7273 116.384 69.8602 118.589 76.7833C119.911 80.7693 121.013 84.7553 123.218 88.3218C125.642 92.5176 128.287 96.7134 132.035 100.28C133.137 101.329 134.459 102.168 135.562 103.217C136.002 103.427 136.223 103.846 136.002 104.266C132.255 102.797 129.39 100.49 126.745 97.7623C122.116 92.9371 119.47 87.063 117.266 80.7693C114.842 73.4266 113.299 65.8742 112.417 58.3218C112.27 56.9232 113.005 56.0141 114.621 55.5945Z" fill="#FAF7F5"/>
<path d="M103.38 50.1398C103.38 50.1398 104.482 50.1398 104.923 50.3496C109.772 51.6083 114.401 50.1398 117.487 46.3636C118.81 44.8951 119.471 43.0069 120.353 41.3286C122.116 37.7622 124.1 34.1958 126.965 31.0489C128.068 30 128.949 28.7412 130.272 27.9021C130.713 27.6923 130.933 27.2727 131.374 27.4825C131.374 27.4825 131.374 27.9021 131.374 28.1118C128.068 31.8881 126.084 36.2937 124.32 40.909C123.218 43.8461 121.896 46.5734 119.912 49.0909C118.589 50.979 116.826 52.4475 114.622 53.4965C110.654 55.3846 106.466 54.1258 103.6 50.3496L103.38 50.1398Z" fill="#FAF7F5"/>
<path d="M212.27 157.972C211.609 166.993 211.168 176.014 211.168 185.245C211.168 188.182 211.168 191.119 211.168 194.056C211.168 195.105 211.168 196.154 210.947 197.203C209.184 194.895 207.641 192.588 205.878 190.49C205.437 189.86 205.657 189.231 205.878 188.392C207.2 181.678 208.743 174.965 210.066 168.462C210.727 164.895 211.388 161.539 212.49 158.182L212.27 157.972Z" fill="#F8F9F7"/>
<path d="M115.945 82.2377C113.299 82.4475 111.756 81.6083 110.434 79.93C108.45 77.4125 107.568 74.2657 107.128 71.3286C106.687 69.4405 106.687 67.3426 107.128 65.4545C107.568 63.7762 108.67 62.937 109.993 62.937C110.654 62.937 111.316 62.937 111.536 63.986C112.197 70.2797 113.961 76.3636 115.945 82.6573V82.2377Z" fill="#EEC4CD"/>
<path d="M191.33 197.203C191.33 197.203 189.787 197.622 188.906 198.042C188.465 198.042 188.024 198.042 187.583 198.462C186.481 198.881 185.158 199.72 185.158 200.769C185.158 201.818 186.701 202.028 187.803 202.448C190.228 203.077 192.653 203.287 195.298 203.706C195.739 203.706 195.959 203.706 196.18 204.126C191.551 204.336 186.922 204.755 182.072 204.546C180.529 204.546 179.207 204.546 177.664 204.126C176.121 203.916 175.9 203.497 175.9 202.238C175.9 200.979 176.121 199.93 176.562 198.462C181.411 198.881 186.04 197.832 190.669 197.203C190.669 197.203 191.11 197.203 191.33 197.203Z" fill="#EEC4CD"/>
<path d="M170.389 143.916C172.814 141.818 175.238 139.93 177.883 138.042C179.206 137.203 179.426 137.203 180.529 138.252C181.41 139.301 182.072 140.56 182.733 141.818C182.733 142.028 182.512 142.238 182.292 142.657C181.851 143.706 182.072 143.706 183.394 143.706C183.835 144.336 183.835 145.385 184.717 146.224C185.378 144.755 186.48 143.706 186.48 142.238C186.48 142.238 186.921 142.238 186.921 141.818C187.141 141.818 187.362 141.399 188.023 140.979C186.921 144.755 185.158 147.902 183.835 151.259C183.174 151.259 182.953 150.42 182.733 150C181.631 148.322 180.529 146.434 179.206 144.755C178.765 144.126 178.104 143.287 177.443 142.867C176.12 141.609 175.238 141.609 173.916 142.867C173.034 143.706 172.373 144.546 171.491 145.385C171.05 145.804 171.05 146.224 170.389 146.434C170.169 145.595 170.389 144.755 170.389 143.706V143.916Z" fill="#F8F9F7"/>
<path d="M191.771 190.489C188.905 192.797 188.905 193.007 191.771 194.685C191.771 194.685 191.991 195.105 192.212 195.105C189.566 195.105 186.921 195.734 184.276 196.154C181.852 196.364 179.206 196.573 176.782 196.154C174.798 195.944 173.916 194.685 174.577 193.007C174.577 192.587 175.018 192.168 175.459 192.378C179.868 192.797 184.056 191.119 188.464 190.28C189.566 190.28 190.669 189.231 191.771 190.28V190.489Z" fill="#EEC4CD"/>
<path d="M149.229 170.35C149.229 168.462 150.331 167.623 151.874 166.993C154.739 166.154 157.825 165.525 160.911 165.315C166.863 164.685 172.814 164.685 178.766 164.895C180.309 164.895 181.631 165.315 183.174 165.944C183.615 165.944 183.835 166.364 183.835 166.783C183.835 167.203 183.395 167.203 182.954 167.203C176.782 166.364 170.61 166.783 164.438 167.203C162.234 167.203 160.029 167.413 157.825 167.832C154.96 168.252 152.094 168.881 149.449 170.56L149.229 170.35Z" fill="#636363"/>
<path d="M182.513 119.79C179.868 116.014 176.561 113.077 172.373 111.189C170.83 110.56 169.508 109.93 167.744 109.72C167.744 109.091 167.524 108.671 167.744 107.832C172.814 109.091 178.104 110.56 181.852 114.336C182.513 114.965 183.836 115.385 184.056 116.434C184.056 117.483 183.395 118.322 182.954 119.371C182.954 119.371 182.733 119.79 182.513 119.79Z" fill="#F8F9F7"/>
<path d="M173.476 188.811C176.341 187.762 179.427 187.552 182.513 187.133C184.497 187.133 186.481 186.503 188.465 186.713C190.008 186.713 191.11 187.133 192.212 187.972C187.362 189.021 182.513 190.28 177.664 190.699C176.782 190.699 175.9 190.699 175.019 190.489C174.137 190.28 173.476 189.86 173.476 188.811Z" fill="#EEC4CD"/>
<path d="M94.7835 202.657C95.4448 205.385 95.6652 207.692 96.9878 210C94.3427 211.049 91.6976 211.888 88.832 212.937C90.5954 209.161 93.0201 206.224 94.7835 202.657Z" fill="#78B62F"/>
<path d="M122.337 49.0909C122.337 49.0909 122.777 49.0909 122.998 49.0909C126.084 47.2028 129.17 46.993 132.697 47.8321C133.358 48.2517 134.019 48.6713 134.68 49.0909C135.342 49.5105 136.003 49.93 135.783 50.7692C135.121 51.1888 134.46 50.7692 134.019 50.5594C130.933 48.4615 127.627 48.8811 124.541 50.1398C124.1 50.3496 123.439 50.7692 122.998 50.7692C122.337 50.7692 122.116 50.5594 122.337 49.93C122.337 49.5105 122.337 49.3007 122.777 49.0909H122.337Z" fill="#292629"/>
<path d="M186.481 142.448C186.481 143.916 185.378 144.965 184.717 146.434C183.835 145.594 183.835 144.545 183.395 143.916C184.276 143.287 185.378 142.657 186.481 142.448Z" fill="#78B62F"/>
<path d="M132.697 5.66448C132.697 5.66448 132.697 5.2449 132.256 5.03511C133.578 4.19595 135.121 3.77637 136.664 3.77637C135.342 4.40574 134.019 5.2449 132.476 5.66448H132.697Z" fill="#EEC4CD"/>
<path d="M230.345 192.797C230.345 192.797 230.786 193.007 230.786 193.217C230.345 193.637 229.684 194.056 229.022 194.056C229.022 193.217 229.684 193.217 230.345 192.797Z" fill="#EEC4CD"/>
<path d="M137.986 104.895C137.986 104.895 139.088 104.895 139.529 105.525C139.088 105.525 138.427 105.525 137.986 104.895Z" fill="#FAF7F5"/>
<path d="M136.224 104.056C136.224 104.056 137.105 104.056 137.326 104.475C136.885 104.475 136.444 104.475 136.224 104.056Z" fill="#FAF7F5"/>
<path d="M224.614 146.643C224.614 146.643 223.953 146.224 223.512 146.224C223.953 146.224 224.393 146.224 224.614 146.643Z" fill="#F8F9F7"/>
<path d="M137.105 104.476C137.105 104.476 137.987 104.476 138.208 104.895C137.767 104.895 137.326 104.895 137.105 104.476Z" fill="#FAF7F5"/>
<path d="M196.62 133.846C196.62 133.846 197.502 133.846 197.722 134.266C197.281 134.266 196.841 134.266 196.62 133.846Z" fill="#F8F9F7"/>
<path d="M228.141 194.475C228.141 194.475 228.581 194.056 229.022 194.056C229.022 194.475 228.581 194.475 228.141 194.475Z" fill="#EEC4CD"/>
<path d="M192.212 195.315C192.212 195.315 192.873 195.315 193.094 195.524C192.653 195.524 192.432 195.524 192.212 195.315Z" fill="#EEC4CD"/>
<path d="M131.814 27.2729C131.814 27.2729 132.476 26.8533 132.696 26.8533C132.476 27.0631 132.255 27.4826 131.814 27.2729Z" fill="#FAF7F5"/>
<path d="M169.949 168.042C169.949 168.042 169.288 168.252 168.847 168.042C169.067 167.622 169.508 167.622 169.949 168.042Z" fill="#636363"/>
<path d="M204.335 96.2938C204.335 96.2938 203.673 96.2938 203.232 95.8743C203.673 95.8743 204.114 95.8743 204.335 96.2938Z" fill="#FAE81A"/>
<path d="M179.647 50.5596C179.647 50.5596 179.647 50.9792 179.647 51.1889C179.206 50.9792 179.647 50.7694 179.647 50.5596Z" fill="#EB882F"/>
<path d="M200.367 93.7764C200.367 93.7764 200.367 94.1959 200.146 94.1959C200.146 94.1959 200.367 94.1959 200.587 94.1959L200.367 93.7764Z" fill="#FAF7F5"/>
<path d="M145.04 181.888C145.04 181.888 145.701 181.888 145.481 182.308C145.481 182.308 145.26 182.098 145.04 181.888Z" fill="#FDFDFD"/>
<path d="M186.921 142.028C186.921 142.028 186.921 142.448 186.48 142.448C186.48 142.238 186.48 142.028 186.921 142.028Z" fill="#78B62F"/>
<path d="M131.374 27.6923C131.374 27.6923 131.374 27.2727 131.815 27.2727C131.815 27.6923 131.594 27.6923 131.374 27.6923Z" fill="#FAF7F5"/>
<path d="M160.911 103.427C160.911 103.427 160.911 103.846 160.47 103.846C160.47 103.637 160.69 103.427 160.911 103.427Z" fill="#F3C8D1"/>
<path d="M132.696 26.8532C132.696 26.8532 132.696 26.6434 132.917 26.4336C132.917 26.4336 132.917 26.6434 132.696 26.8532Z" fill="#FAF7F5"/>
<path d="M195.077 142.448C195.077 143.916 194.416 144.965 193.975 146.224C193.534 147.483 192.873 148.532 192.212 149.581C192.212 149.79 191.771 150.21 191.33 150.21C190.889 150.21 190.669 149.79 190.669 149.371C190.669 148.951 190.669 148.532 190.669 148.112C191.11 146.014 191.771 144.126 192.653 142.028C192.873 141.399 193.314 140.769 194.196 140.979C195.077 140.979 195.077 141.818 195.077 142.448Z" fill="#1C1C1B"/>
<path d="M198.384 147.063C198.384 147.063 198.384 144.965 198.384 143.916C198.384 143.287 198.824 142.657 199.706 142.657C200.588 142.657 200.808 143.077 201.029 143.916C201.029 146.434 200.588 148.951 199.926 151.469C199.926 151.678 199.706 151.888 199.265 152.098C199.045 152.098 198.824 151.888 198.604 151.678C197.943 150.21 198.384 148.741 198.163 147.273L198.384 147.063Z" fill="#1C1C1B"/>
<path d="M144.82 79.7203C143.498 79.5105 142.175 79.3008 141.073 78.4616C139.75 77.6224 139.309 76.9931 140.191 75.7343C142.175 72.5875 142.175 69.021 142.616 65.4546C142.616 63.9861 142.836 62.3077 143.057 60.8392C143.057 60.2098 143.057 59.1609 144.379 59.1609C145.041 59.5805 144.82 60.2098 144.82 60.6294C144.379 65.6644 144.379 70.9091 141.955 75.7343C141.514 76.5735 141.955 76.7833 142.616 76.9931C143.498 77.4126 144.379 77.6224 145.261 78.042C145.702 78.2518 146.583 78.4616 146.363 79.091C146.363 79.7203 145.481 79.5105 144.82 79.7203Z" fill="#292629"/>
<path d="M180.529 67.7622C180.529 68.8111 181.19 69.8601 180.97 71.1188C180.97 73.007 179.647 74.4755 177.884 74.8951C177.222 74.8951 176.561 74.8951 175.9 74.4755C175.459 74.2657 175.459 74.0559 175.459 73.6363C175.459 73.2167 175.9 73.2167 176.12 73.2167C177.222 73.2167 178.104 73.2167 178.545 72.1678C179.206 71.3286 178.986 70.4895 178.545 69.4405C178.104 68.1818 177.663 67.1328 177.222 65.8741C176.561 64.4056 176.341 62.7272 177.222 61.0489C178.104 59.5804 179.868 58.951 181.631 59.7902C182.072 59.7902 182.072 60.2098 182.072 60.6293C181.19 60.6293 180.529 60.8391 179.647 61.0489C179.206 61.0489 178.765 61.4685 178.765 61.8881C178.765 62.3077 179.206 62.5174 179.427 62.5174C180.308 62.937 181.19 63.1468 182.072 63.5664C182.733 63.7762 182.733 64.1958 182.513 64.8251C181.19 64.8251 179.868 64.8251 178.545 64.4056C178.765 65.6643 179.206 66.7132 179.868 67.5524L180.529 67.7622Z" fill="#292629"/>
<path d="M155.18 60.8392C155.18 60.8392 155.18 58.7413 155.621 57.6924C155.621 56.6434 156.943 55.8043 157.825 55.5945C158.927 55.5945 159.588 56.2239 159.809 57.4826C160.249 59.5805 159.809 61.4686 159.147 63.5665C158.927 64.4057 158.266 64.8252 157.164 64.8252C156.061 64.8252 155.621 64.1959 155.4 63.1469C155.4 62.3078 155.18 61.6784 155.18 60.6294V60.8392Z" fill="#1C1C1B"/>
<path d="M144.82 88.5315C142.836 88.5315 140.632 88.5315 138.648 88.1119C138.207 88.1119 137.766 88.1119 137.325 87.6924C136.884 87.6924 136.223 87.2728 136.664 86.6434C136.664 86.2238 137.325 86.2238 137.766 86.2238C139.529 86.6434 141.293 86.8532 143.056 86.8532C145.261 86.8532 147.244 86.4336 149.228 85.8043C150.11 85.5945 150.992 85.1749 150.551 83.9161C150.551 83.4966 150.551 83.077 151.212 82.8672C151.873 82.8672 152.314 82.8672 152.535 83.4966C152.755 83.9161 152.975 84.5455 153.196 85.1749C153.637 86.4336 153.637 86.4336 152.094 86.4336C151.873 86.4336 151.432 86.4336 151.212 86.4336C149.228 87.4826 147.024 87.9021 144.82 88.5315Z" fill="#292629"/>
<path d="M155.841 45.9441C159.368 45.9441 161.352 46.5735 162.895 48.2518C163.335 48.4616 163.776 48.8812 163.556 49.5105C163.115 50.1399 162.674 49.5105 162.233 49.5105C161.792 49.5105 161.352 49.0909 160.911 48.8812C157.604 46.993 153.196 47.8322 150.771 50.1399C150.33 50.5595 149.669 51.8182 148.787 50.7693C148.126 49.9301 149.228 49.3007 149.669 48.8812C151.653 47.2028 154.078 46.3637 155.62 46.3637L155.841 45.9441Z" fill="#292629"/>
<path d="M183.174 65.0349C183.174 65.0349 183.174 63.986 182.733 63.7762C181.851 63.5664 180.97 63.1468 180.088 62.7272C179.647 62.7272 179.427 62.5174 179.427 62.0979C179.427 61.6783 179.868 61.2587 180.308 61.2587C181.19 61.0489 181.851 60.8391 182.733 60.8391C183.835 61.4685 184.056 62.5174 184.276 63.3566C184.276 63.986 184.276 64.8251 183.394 65.0349H183.174Z" fill="#EEC4CD"/>
<path d="M180.529 67.7623C180.529 67.7623 179.426 65.8742 179.206 64.6155C180.749 65.0351 181.851 65.2448 183.174 65.0351C182.292 65.8742 180.969 66.2938 180.529 67.7623Z" fill="#EEC4CD"/>
<path d="M132.697 61.2588C132.697 62.5175 132.256 63.5665 132.035 64.8252C132.035 65.6644 131.374 66.2937 130.272 66.2937C129.39 66.2937 128.95 65.6644 128.729 65.035C128.288 62.9371 128.288 61.049 128.729 58.9511C128.95 58.1119 129.39 57.2728 130.492 57.4826C131.595 57.4826 132.035 58.3217 132.035 59.1609C132.035 60 132.476 60.6294 132.476 61.4686L132.697 61.2588Z" fill="#0F1112"/>
<path d="M171.05 169.51C171.05 169.51 172.373 169.091 173.255 169.091C173.475 169.091 173.695 169.091 173.916 169.091C174.798 169.091 175.679 169.091 176.561 168.881C176.781 169.51 177.443 169.301 177.883 169.51C178.104 169.51 178.324 169.93 178.324 170.14C178.324 170.35 178.104 170.559 177.663 170.559C176.561 170.559 175.679 170.559 174.577 170.559C172.593 170.559 172.152 170.979 172.152 173.077C172.152 174.336 172.152 175.385 172.152 176.643C172.152 176.853 172.152 177.273 172.152 177.482C172.152 178.112 172.152 178.741 171.271 178.741C170.609 178.741 170.389 178.112 170.389 177.482C170.389 175.804 170.169 173.916 170.389 172.238C170.389 171.399 170.83 170.559 171.05 169.51Z" fill="#1C1C1B"/>
<path d="M176.562 173.287C176.562 173.287 175.239 175.594 174.137 175.385C173.255 175.385 172.373 174.336 172.594 173.497C172.594 172.448 173.696 171.399 174.798 171.399C175.68 171.399 176.562 172.238 176.562 173.287Z" fill="#0F1112"/>
<path d="M181.411 173.287C181.411 173.287 180.309 175.175 179.207 175.175C178.105 175.175 177.443 174.336 177.443 173.497C177.443 172.448 178.545 171.399 179.648 171.609C180.529 171.609 181.411 172.657 181.411 173.497V173.287Z" fill="#0F1112"/>
<path d="M179.648 179.79C179.648 179.79 177.443 178.532 177.443 177.483C177.443 176.644 178.325 176.014 179.207 176.014C180.309 176.014 181.411 177.063 181.411 178.112C181.411 179.161 180.529 179.79 179.648 179.79Z" fill="#0F1112"/>
<path d="M176.12 178.322C176.12 178.322 175.459 179.79 174.357 179.79C173.255 179.79 172.373 178.951 172.373 177.902C172.373 177.063 173.255 176.434 174.136 176.434C175.239 176.434 176.12 177.273 176.12 178.322Z" fill="#0F1112"/>
<path d="M173.916 168.881C173.916 168.881 173.475 169.091 173.255 168.881C173.255 168.881 173.696 168.671 173.916 168.881Z" fill="#636363"/>
<path d="M298.016 134.056C292.285 101.748 274.871 71.3288 249.743 49.091C230.566 32.098 206.76 20.5595 181.411 15.105L181.852 19.5106C189.346 20.9791 196.4 22.8672 203.453 25.3847C247.318 41.3288 281.925 78.042 292.285 121.888C294.71 132.797 295.812 143.916 295.592 154.825C294.489 192.378 277.737 229.511 248.641 255.315C248.2 255.525 247.759 255.944 247.318 256.364C244.673 258.671 241.808 260.979 238.722 263.287C205.878 287.413 162.895 297.273 121.675 289.93C73.8428 281.539 30.8597 250.07 12.3439 206.643C-2.20418 172.657 -1.76333 133.636 13.8869 100.07C29.7576 66.5036 59.2947 40.6994 94.7833 27.2728L93.6812 20.7693C50.0368 37.3427 17.1933 75.105 5.06988 118.322C2.86562 126.084 1.54306 134.266 0.661358 142.238C-1.10205 162.378 1.32264 182.727 7.93542 202.028C23.3653 245.664 61.2785 282.378 108.229 294.965C157.384 307.972 212.491 295.804 250.404 263.287C282.366 236.014 300.441 195.734 300 155.035C299.78 147.902 299.118 140.979 298.016 134.056Z" fill="black"/>
</g>
<path d="M150.238 334.297C168.49 334.297 183.286 319.057 183.286 300.259C183.286 281.46 168.49 266.221 150.238 266.221C131.986 266.221 117.189 281.46 117.189 300.259C117.189 319.057 131.986 334.297 150.238 334.297Z" fill="white"/>
<path d="M169.999 272.714C176.939 278.048 182.416 285.83 184.283 295.012C186.3 304.106 183.986 314.25 178.277 321.617C172.567 329.05 163.97 333.509 155.225 334.646C146.48 335.892 137.311 333.837 129.861 328.634C122.368 323.541 116.934 314.993 115.491 305.637C113.92 296.302 116.149 286.246 121.752 278.594C127.292 270.943 136.037 265.784 145.101 265.128C154.164 264.319 163.037 267.402 169.999 272.714ZM169.744 273.064C162.803 267.708 153.612 266.177 145.546 268.079C137.481 270.003 130.264 274.725 125.552 281.458C120.818 288.126 118.526 296.652 119.609 304.959C120.67 313.244 124.83 321.136 131.304 326.601C137.757 332.067 146.629 334.646 155.013 333.16C163.419 331.717 170.763 326.295 175.305 319.343C179.953 312.392 182.14 303.953 181.524 295.406C180.887 286.902 176.77 278.288 169.744 273.064Z" fill="black"/>
<path d="M161.829 288C162.403 288 162.937 288.103 163.429 288.308C163.921 288.513 164.358 288.807 164.741 289.189C165.124 289.572 165.411 290.003 165.603 290.481C165.794 290.96 165.903 291.5 165.931 292.102C165.931 292.648 165.828 293.175 165.623 293.681C165.418 294.187 165.124 294.631 164.741 295.014L148.458 311.317C148.075 311.7 147.631 311.994 147.125 312.199C146.619 312.404 146.093 312.514 145.546 312.527C144.999 312.527 144.473 312.425 143.967 312.22C143.461 312.015 143.017 311.714 142.634 311.317L135.21 303.894C134.827 303.511 134.533 303.066 134.328 302.561C134.123 302.055 134.014 301.528 134 300.981C134 300.407 134.109 299.874 134.328 299.382C134.547 298.89 134.841 298.452 135.21 298.069C135.579 297.687 136.01 297.399 136.502 297.208C136.994 297.017 137.534 296.907 138.122 296.88C138.669 296.88 139.195 296.982 139.701 297.188C140.207 297.393 140.651 297.687 141.034 298.069L145.546 302.581L158.917 289.189C159.3 288.807 159.744 288.513 160.25 288.308C160.756 288.103 161.282 288 161.829 288Z" fill="#88E51D"/>
<path fill-rule="evenodd" clip-rule="evenodd" d="M168.931 292.033V292.102C168.931 293.034 168.754 293.943 168.403 294.808C168.049 295.682 167.532 296.465 166.864 297.134C166.864 297.134 166.864 297.133 166.864 297.134C166.864 297.134 166.863 297.135 166.863 297.135L150.579 313.439C149.91 314.108 149.127 314.625 148.252 314.979C147.411 315.321 146.528 315.504 145.621 315.526L145.583 315.527H145.546C144.613 315.527 143.704 315.35 142.84 315C141.951 314.64 141.163 314.107 140.496 313.423L133.089 306.015C132.419 305.346 131.903 304.563 131.548 303.688C131.207 302.846 131.024 301.964 131.001 301.056L131 301.019V300.981C131 300.016 131.186 299.064 131.587 298.163C131.946 297.356 132.435 296.625 133.05 295.987C133.719 295.294 134.515 294.762 135.415 294.412C136.242 294.09 137.107 293.924 137.983 293.883L138.052 293.88H138.122C139.055 293.88 139.964 294.057 140.828 294.407C141.703 294.762 142.486 295.279 143.156 295.948L145.544 298.337L156.796 287.068C157.465 286.399 158.248 285.882 159.123 285.527C159.987 285.177 160.897 285 161.829 285C162.769 285 163.697 285.17 164.583 285.538C165.442 285.897 166.207 286.413 166.863 287.068C167.518 287.723 168.038 288.493 168.388 289.367C168.723 290.205 168.887 291.084 168.928 291.965L168.931 292.033ZM158.917 289.189C159.3 288.807 159.744 288.513 160.25 288.308C160.756 288.103 161.282 288 161.829 288C162.403 288 162.937 288.103 163.429 288.308C163.921 288.513 164.358 288.807 164.741 289.189C165.124 289.572 165.411 290.003 165.603 290.481C165.794 290.96 165.903 291.5 165.931 292.102C165.931 292.648 165.828 293.175 165.623 293.681C165.418 294.187 165.124 294.631 164.741 295.014L148.458 311.317C148.075 311.7 147.631 311.994 147.125 312.199C146.619 312.404 146.093 312.514 145.546 312.527C144.999 312.527 144.473 312.425 143.967 312.22C143.461 312.015 143.017 311.714 142.634 311.317L135.21 303.894C134.827 303.511 134.533 303.066 134.328 302.561C134.123 302.055 134.014 301.528 134 300.981C134 300.407 134.109 299.874 134.328 299.382C134.547 298.89 134.841 298.452 135.21 298.069C135.579 297.687 136.01 297.399 136.502 297.208C136.994 297.017 137.534 296.907 138.122 296.88C138.669 296.88 139.195 296.982 139.701 297.188C140.207 297.393 140.651 297.687 141.034 298.069L145.546 302.581L158.917 289.189Z" fill="black"/>
<defs>
<linearGradient id="paint0_linear_1934_11127" x1="1.10254" y1="154.406" x2="298.678" y2="154.406" gradientUnits="userSpaceOnUse">
<stop stop-color="#EE882B"/>
<stop offset="0.17" stop-color="#EF8F29"/>
<stop offset="0.43" stop-color="#F2A525"/>
<stop offset="0.74" stop-color="#F8C81F"/>
<stop offset="1" stop-color="#FEEB1A"/>
</linearGradient>
<clipPath id="clip0_1934_11127">
<rect width="300" height="300" fill="white"/>
</clipPath>
</defs>
</svg>
