<svg width="300" height="335" viewBox="0 0 300 335" fill="none" xmlns="http://www.w3.org/2000/svg">
<g clip-path="url(#clip0_2560_123368)">
<path d="M298.677 151.27C298.677 230.184 232.108 294.076 149.889 294.076C128.067 294.076 107.127 289.634 88.3903 281.382C78.0303 276.728 68.1111 271.227 59.0736 264.457C56.8694 262.765 54.6651 261.072 52.6813 259.38C39.8966 248.801 29.0957 236.319 20.7195 222.356C8.37563 201.622 1.10156 177.292 1.10156 151.27C1.10156 72.3557 67.6703 8.46289 149.889 8.46289C212.049 8.46289 265.172 44.8522 287.435 96.6857C294.709 113.399 298.677 132.017 298.677 151.27Z" fill="url(#paint0_linear_2560_123368)"/>
<path d="M144.819 296.192L110.212 288.999L78.9114 277.998L67.4492 270.381L75.3846 247.744L96.5455 203.315L130.05 177.504L216.678 235.684" fill="white"/>
<path d="M74.0629 266.572C74.0629 266.572 72.079 264.668 70.7565 263.822C70.0952 265.303 69.8748 266.996 69.4339 268.476C69.2135 269.323 68.9931 270.169 68.3318 270.804C67.8909 271.227 67.4501 271.015 67.2297 270.592C66.7888 269.746 67.2297 268.9 67.2297 268.053C67.6705 266.361 68.1114 264.457 68.5522 262.764C68.7726 261.706 68.7726 261.072 67.8909 260.649C67.4501 260.437 67.2297 260.014 67.0092 259.802C65.6867 258.533 65.2458 257.052 65.6867 255.359C66.3479 251.974 67.6705 249.012 68.7726 245.839C72.5199 235.261 77.3693 225.317 83.1003 215.585C87.9497 207.546 93.2399 199.718 100.294 193.159C102.277 191.255 104.482 189.774 106.686 188.293C107.788 187.658 108.89 187.024 110.213 186.812C110.213 184.697 110.433 182.792 111.094 180.888C111.535 178.773 112.858 177.08 114.842 176.022C116.385 175.176 117.928 174.118 119.471 173.272C120.352 172.849 120.573 172.214 120.132 171.368C119.25 169.464 118.589 167.56 118.589 165.656C118.589 164.175 119.03 162.694 119.912 161.424C120.352 160.79 120.793 160.155 120.793 159.097C120.793 156.77 121.454 154.443 123.659 152.962C124.1 152.75 124.1 152.327 124.1 152.115C124.1 150.423 124.761 148.942 125.643 147.461C123.438 145.768 122.116 143.441 120.573 141.326C119.25 139.21 118.148 136.883 116.826 134.767C112.417 136.671 108.229 135.825 104.923 132.228C102.718 129.689 101.616 126.728 101.396 123.343C100.734 123.131 100.073 123.343 99.6323 123.343C96.5463 124.189 94.1216 123.342 91.697 121.438C89.4927 119.534 88.1701 116.996 87.9497 114.034C87.9497 112.553 87.9497 111.283 87.9497 109.591C86.8476 110.014 85.7454 110.225 84.8637 110.649C81.7778 111.495 78.4714 111.706 75.3854 110.437C74.5037 110.014 74.0629 110.225 73.8424 111.072C72.9607 112.976 72.7403 114.88 73.4016 116.996C73.8424 118.688 74.5037 120.169 75.165 121.862C75.8263 123.554 75.6058 123.977 73.8424 124.612C70.7565 125.67 67.6705 126.939 64.5845 128.209C63.9233 128.42 63.262 128.632 62.3803 128.843C61.2781 129.055 60.3964 128.843 59.9556 127.785C57.3105 123.131 55.7675 118.053 55.9879 112.764C55.9879 110.437 56.8696 108.321 58.1922 106.629C58.8535 105.783 59.5147 104.936 59.9556 104.09C54.4449 100.493 54.0041 95.4158 55.1062 89.9151C52.2407 89.7036 47.6117 92.2424 44.7462 95.4159C41.8806 98.5893 40.7785 102.186 40.7785 106.417C39.6764 106.417 39.0151 105.571 38.5743 104.936C36.1496 102.186 33.9453 99.4356 31.5206 96.6852C31.0798 96.2621 30.8593 95.839 30.4185 95.2043C28.8755 93.3002 28.8755 91.3961 29.9776 89.2804C31.741 86.107 33.9453 83.145 36.5904 80.8178C42.1011 75.7402 48.273 71.5089 55.7675 69.6048C53.5632 60.296 54.6654 51.6218 61.719 44.4285C69.2135 36.8122 78.4714 33.004 89.7131 35.7544C89.7131 34.485 89.7131 33.004 89.9335 31.7346C91.4765 24.3298 95.4442 18.1944 100.734 12.9053C101.837 11.8474 102.939 10.7896 104.041 9.73179C109.992 4.65422 117.046 1.6923 124.981 0.846038C133.578 -0.21179 141.954 1.0576 149.669 5.07735C151.212 5.92361 152.755 6.76987 154.078 7.8277C159.368 11.8474 161.792 15.4441 163.556 22.4257C163.556 22.4257 163.776 22.4257 163.997 22.4257C171.491 16.5019 179.647 16.2903 188.244 19.8869C194.856 22.6373 199.265 27.2917 201.249 33.8503C202.351 37.6584 201.469 41.2551 199.706 44.6401C199.045 46.1211 197.942 47.3905 196.84 48.6599C198.163 49.2946 199.485 49.5061 200.808 50.1408C206.098 53.5259 209.405 58.1803 210.066 64.1041C210.727 68.9702 210.066 74.0477 208.302 78.7022C205.878 84.626 201.69 88.4342 195.297 90.1267C195.297 90.973 195.738 91.1845 196.179 91.8192C197.942 95.2043 197.942 98.3778 195.738 101.551C195.297 101.974 195.077 102.609 194.416 102.821C192.652 103.455 192.652 104.725 192.652 106.206C192.873 111.072 191.33 115.515 188.023 119.323C186.48 121.015 184.717 122.285 182.513 122.919C181.41 123.131 181.41 123.766 181.41 124.612C181.851 128.42 182.292 132.017 182.513 135.825C182.733 142.595 184.717 149.153 186.48 155.5C186.48 155.712 186.701 155.924 186.921 156.347C188.023 155.924 188.905 155.289 190.007 154.443C191.55 153.173 192.211 153.173 193.754 154.443C195.518 155.924 196.84 157.616 198.163 159.52C200.147 162.482 202.13 165.656 203.894 168.829C204.555 169.887 205.437 170.31 206.539 170.945C209.845 172.426 213.152 174.118 216.458 175.811C224.393 179.619 230.786 185.12 236.297 191.89C238.501 194.64 240.044 198.025 240.925 201.41C242.909 208.392 245.114 215.374 246.216 222.355C246.877 226.375 247.097 230.395 247.538 234.203C247.979 239.915 247.759 245.416 247.759 251.128C247.759 254.302 246.216 255.783 242.909 255.994C241.146 255.994 239.382 255.994 237.839 255.994C235.856 255.994 236.076 255.994 235.194 257.687C232.77 262.764 229.904 267.419 226.377 271.862C224.834 273.766 223.291 275.458 221.528 277.151C216.679 281.805 211.168 284.344 204.114 284.132C204.114 284.132 203.673 283.921 203.453 283.921C196.62 282.44 190.668 279.266 185.378 274.612C179.206 268.9 174.577 262.13 170.61 255.148C163.556 242.877 156.723 230.395 150.33 217.701C149.449 216.008 148.567 214.316 147.465 212.835C146.803 211.565 146.363 210.084 144.82 209.027C144.599 209.873 144.379 210.719 144.158 211.565C142.836 217.489 141.954 223.413 141.293 229.548C140.411 237.165 139.529 244.993 139.309 252.609C139.089 258.533 138.648 264.668 138.207 270.592C137.766 277.997 137.325 285.19 137.105 292.595C136.884 293.441 136.664 294.287 136.443 294.922C136.003 295.134 135.341 295.345 135.341 294.499C135.341 293.653 135.121 293.018 135.121 292.172C135.782 281.382 136.443 270.381 136.884 259.591C137.325 253.667 137.546 247.955 137.986 242.031C139.089 231.453 139.75 220.874 142.395 210.508C142.395 210.296 142.395 209.873 142.615 209.661C144.379 206.488 142.615 204.161 140.632 201.833C140.411 201.41 139.97 201.199 139.75 200.776C138.648 199.295 137.325 198.237 135.341 198.237C133.137 198.237 131.153 196.967 129.169 195.486C128.067 198.237 127.406 200.987 126.745 203.526C124.1 214.95 123.218 226.587 121.675 238.011C120.352 247.532 119.691 256.84 118.809 266.361C118.148 272.073 118.148 277.574 117.707 283.286C117.707 285.19 117.707 287.094 116.826 288.998C115.723 288.575 115.723 287.729 115.503 286.883C115.283 284.767 115.503 282.44 115.503 280.324C115.503 275.67 115.944 271.227 116.385 266.572C117.266 258.11 117.707 249.647 118.809 241.396C119.691 233.991 120.793 226.587 121.675 219.182C122.116 215.797 122.557 212.623 122.997 209.238C123.438 206.911 122.997 206.276 120.573 205.218C119.691 205.007 119.03 205.43 118.369 205.642C117.487 206.065 116.605 206.488 115.723 206.699C115.062 206.911 114.18 207.546 113.519 206.911C112.858 206.276 113.519 205.43 113.519 204.795C113.519 204.372 113.96 203.949 113.96 203.314C114.842 201.199 115.503 199.083 116.826 197.179C117.266 196.333 117.046 196.121 116.385 195.698C115.283 195.275 114.842 195.275 114.401 196.544C113.299 198.871 112.417 201.41 111.535 203.737C111.315 204.372 111.094 205.007 110.654 205.642C110.654 206.065 110.213 206.276 109.772 206.065C109.551 206.065 109.331 205.642 109.331 205.43C109.331 204.584 109.111 203.737 109.111 202.891C109.111 200.987 109.111 198.871 109.111 196.967C109.111 194.217 109.331 191.467 109.111 188.928C109.111 188.505 109.331 188.293 109.111 187.87C108.89 187.658 108.67 187.87 108.449 187.87C106.025 189.351 103.6 191.043 101.616 192.948C97.8689 196.333 94.7829 200.352 91.9174 204.372C81.5574 218.759 74.0629 234.626 68.3318 251.128C67.8909 252.186 67.6705 253.244 67.4501 254.513C66.7888 256.206 67.4501 257.264 68.7726 258.321C70.7565 259.802 72.9607 261.283 75.3854 262.341C75.3854 262.341 75.6058 262.341 75.8263 262.553C80.0144 265.303 84.6433 267.207 89.2723 269.746C89.2723 269.111 89.2723 268.9 89.2723 268.476C89.4927 263.399 89.9335 258.11 90.154 253.032C90.5948 244.993 91.2561 236.742 91.697 228.702C92.1378 223.201 92.5787 217.489 93.4604 211.988C93.9012 209.661 94.5625 207.334 94.5625 205.007C95.0033 204.372 94.5625 203.103 95.885 202.891C96.5463 203.737 96.3259 204.795 96.1055 205.853C96.1055 207.969 95.6646 209.873 95.4442 211.988C94.5625 220.24 93.9012 228.491 93.4604 236.742C93.0195 245.839 92.3582 254.936 91.9174 264.034C91.697 268.476 91.697 272.708 91.4765 277.151C91.4765 278.42 91.4765 279.901 90.3744 280.959C90.3744 280.959 89.9335 280.747 89.7131 280.536C89.2723 279.478 89.0518 278.42 89.0518 277.151C89.0518 276.516 88.8314 276.304 88.1701 275.881C84.6433 274.189 81.5574 272.285 78.4714 269.957C76.708 268.688 75.165 267.419 73.4016 266.149L74.0629 266.572ZM225.496 269.323C225.496 269.323 225.936 269.323 225.936 268.9C225.936 268.9 226.598 268.476 226.598 268.053C229.684 264.245 231.888 260.014 234.092 255.571C231.227 254.936 228.361 254.302 225.716 253.667C225.275 253.667 224.834 253.667 224.394 253.667C223.953 254.09 224.394 254.513 224.394 254.725C224.394 255.148 224.834 255.571 225.055 255.994C225.055 256.206 225.496 256.629 225.055 257.052C224.614 257.264 224.394 257.052 224.173 256.629C223.732 255.994 223.291 255.571 222.851 254.936C219.765 250.282 216.238 245.839 212.711 241.608C208.743 237.165 204.776 232.51 199.706 229.125C191.991 223.836 185.158 217.912 178.765 211.142C175.9 208.18 173.034 205.218 170.83 201.833C167.524 196.967 163.997 191.89 162.454 186.177C162.454 185.754 162.013 185.12 162.013 184.697C162.674 183.004 162.454 181.311 162.674 179.619C163.335 176.234 163.776 173.06 162.674 169.675C162.013 167.56 161.131 165.656 160.029 163.752C158.927 161.424 158.707 159.309 159.368 156.77C159.368 155.924 159.809 155.289 160.029 154.443C160.029 153.385 160.47 152.115 160.029 151.058C159.588 149.577 158.707 148.519 157.384 148.307C156.061 148.096 155.18 149.154 154.518 150.211C152.314 154.02 151.873 158.251 152.755 162.694C152.755 163.54 153.637 164.175 152.755 165.232C151.653 164.598 150.992 163.54 150.33 162.482C148.126 158.674 145.04 155.712 141.734 152.75C137.325 148.73 134.019 144.076 131.594 138.787C131.594 138.364 131.374 138.152 130.933 137.941C129.169 139.421 128.508 141.326 129.169 143.441C129.831 145.557 130.712 147.673 131.815 149.577C133.798 153.596 136.003 157.405 138.207 161.424C138.648 162.271 139.309 162.905 139.089 163.752C138.427 163.752 138.207 163.328 137.766 163.328C137.766 163.117 137.766 162.905 137.325 162.905C137.325 162.905 137.325 162.482 136.884 162.482C136.884 162.059 136.664 161.847 136.223 161.847C136.223 161.636 136.223 161.424 135.782 161.424C132.917 156.77 130.712 152.115 128.288 147.038C127.406 147.884 126.745 148.73 126.304 149.788C125.202 151.904 126.304 153.808 126.745 155.712C128.288 159.943 130.712 163.752 132.917 167.771C132.917 168.618 132.696 169.041 131.815 168.406C130.712 167.56 129.831 166.502 129.169 165.232C127.186 162.271 125.863 158.886 124.54 155.5C124.54 155.077 124.54 154.443 123.659 154.231C122.557 156.135 121.895 158.251 122.336 160.366C122.777 163.328 124.32 165.656 126.083 168.194C126.965 169.464 128.067 170.733 128.949 172.003C129.169 172.426 129.61 172.637 128.949 173.272C127.847 173.06 127.186 172.214 126.304 171.579C124.1 169.252 122.336 166.713 121.234 163.752C121.234 163.328 121.234 162.694 120.352 162.694C119.912 163.963 119.911 165.232 120.132 166.713C120.573 168.618 121.454 170.31 122.336 172.003C124.1 174.753 125.863 177.715 127.626 180.465C132.476 187.658 137.325 194.64 143.277 200.987C144.599 202.468 145.701 204.161 146.803 205.642C147.024 206.065 147.465 206.488 147.244 206.699C146.583 207.757 147.244 208.18 147.685 208.815C149.669 211.777 151.653 214.95 153.196 218.124C159.588 230.818 166.642 243.089 173.695 255.571C178.104 263.61 183.835 270.592 191.991 275.881C195.297 277.997 198.824 279.901 202.792 280.747C205.216 281.382 207.421 281.382 209.845 280.747C216.238 279.055 220.646 274.612 224.394 269.534C224.614 269.534 224.834 269.323 224.834 269.111L225.496 269.323ZM173.034 78.7022C173.034 78.7022 171.271 78.9137 170.169 79.1253C169.507 79.1253 169.287 79.5484 169.507 80.1831C170.61 83.145 170.83 86.3185 170.83 89.492C171.05 95.2043 171.05 100.917 168.626 106.417C169.948 107.052 171.491 107.052 173.034 107.052C175.238 107.052 176.12 106.629 176.781 104.513C177.663 101.763 179.427 99.6472 181.851 98.1662C184.056 96.8968 186.48 96.6852 188.905 97.7431C189.346 97.7431 189.787 98.3778 190.448 98.1662C191.33 93.9349 191.109 89.492 190.668 85.2607C190.668 83.145 190.227 81.0294 189.346 78.9137C187.582 75.1056 187.362 75.3171 183.615 75.9518C183.174 75.9518 182.513 75.9518 181.851 76.5865C183.174 79.3369 184.056 82.0872 183.174 85.2607C182.072 84.4144 182.072 83.3566 181.851 82.5103C181.41 80.8178 181.19 79.1253 180.088 77.6443C179.427 76.5865 178.986 76.5865 177.663 77.0096C176.561 77.4328 177.002 78.0675 177.002 78.7022C177.443 81.8757 177.222 85.0491 176.12 88.011C175.9 88.6457 175.679 89.492 174.577 89.9151C174.357 89.2804 174.357 88.6458 174.577 88.2226C174.577 86.9532 175.018 85.6838 175.238 84.4144C175.459 82.5103 175.459 80.6063 175.238 78.7022C175.238 78.279 174.798 78.0675 174.357 77.8559C173.916 77.8559 173.695 77.8559 173.475 78.279C173.475 78.279 173.034 78.279 173.034 78.7022ZM205.216 228.279C205.216 228.279 204.335 228.914 204.776 229.337C204.335 230.183 204.776 230.606 205.657 230.818C209.845 234.414 213.372 238.434 216.458 242.877C218.001 244.993 219.544 247.108 221.308 249.224C222.189 250.282 223.071 251.128 224.614 250.917C224.614 250.917 225.055 251.128 225.275 251.34C225.496 251.34 225.716 251.551 226.157 251.763C231.668 253.244 237.399 253.244 242.909 253.032C245.334 253.032 245.775 252.821 245.775 250.705C245.775 242.877 245.775 235.049 245.114 227.221C244.011 217.489 241.146 207.969 238.06 198.448C237.399 196.121 236.076 194.005 234.313 192.101C232.549 190.197 230.565 189.351 227.92 189.774C224.394 189.774 221.087 191.044 218.222 193.371C218.222 193.371 217.56 193.371 217.56 193.794C215.356 195.063 213.593 196.544 211.609 198.237C204.114 205.007 199.265 213.469 193.313 221.509C196.399 224.048 199.485 226.163 202.792 228.491C204.776 225.106 205.878 221.509 208.523 218.759C208.082 221.297 206.98 223.625 205.878 225.952C205.657 226.587 204.996 227.221 205.216 228.067V228.279ZM179.206 74.894C180.529 74.894 181.631 74.6824 182.733 74.4709C184.056 74.2593 185.598 74.4709 186.26 73.6246C187.141 72.7783 187.141 71.2974 187.582 70.028C189.125 64.7388 188.464 60.0844 184.937 55.6415C182.733 52.8912 180.088 50.7755 176.781 49.083C169.287 45.0632 161.352 42.9476 152.975 42.736C144.599 42.3129 136.223 43.3707 127.847 45.0632C123.438 46.1211 118.809 46.9673 114.18 47.1789C110.433 47.602 107.127 47.1789 104.041 44.8517C103.6 44.6401 103.38 44.0054 102.498 44.4285C102.057 47.602 102.277 50.5639 104.482 52.8912C106.686 55.2184 106.686 55.2184 109.551 53.7374C110.874 53.1027 112.197 52.2565 113.519 51.4102C115.723 50.1408 117.928 49.083 120.352 48.2367C126.965 45.9095 133.578 45.9095 140.411 46.7558C144.379 47.1789 148.346 48.2367 151.873 50.1408C155.18 51.8333 157.825 54.1606 159.588 57.334C159.809 57.9687 160.47 58.6034 159.588 59.0266C158.927 59.6613 158.486 58.6034 158.045 58.3919C156.502 55.43 154.078 53.3143 150.992 51.8333C146.803 49.7177 142.395 48.8714 137.986 48.4483C132.035 48.0252 126.083 48.2367 120.352 50.3524C117.707 51.4102 115.283 52.6796 112.858 54.1606C111.094 55.2184 109.331 56.0647 107.568 56.9109C104.041 58.3919 100.734 57.7572 97.6485 55.8531C97.2076 55.6415 96.9872 55.0068 96.3259 55.43C96.7668 60.296 97.428 65.162 99.1914 69.8164C100.294 72.7783 102.057 74.6824 104.923 75.9518C108.229 77.4328 111.535 77.8559 115.062 76.1634C117.046 75.3171 119.03 74.2593 120.793 73.2015C123.879 71.0858 126.745 68.9702 129.831 66.8545C131.153 66.2198 132.255 65.5851 133.578 64.9504C137.986 63.0463 142.836 62.8347 147.685 63.2579C150.992 63.4694 154.298 64.1041 157.384 65.7967C158.266 66.2198 159.147 66.6429 159.588 67.4892C159.588 67.7008 160.029 67.9123 159.588 68.3355C159.368 68.547 158.927 68.547 158.707 68.3355C157.384 67.7008 156.282 66.8545 154.959 66.4314C146.583 63.8926 138.427 63.8926 130.712 68.7586C129.39 69.6048 128.067 70.4511 126.965 71.2974C124.32 73.2015 121.675 75.1056 118.589 76.7981C115.283 78.4906 111.976 79.5484 108.229 79.1253C108.229 79.1253 108.008 79.1253 108.008 79.5484C109.551 80.6063 111.756 81.4525 113.74 81.6641C120.793 82.5103 127.847 81.6641 134.68 79.1253C138.648 77.6443 142.395 75.7402 146.142 74.0477C152.535 71.2974 162.013 71.0858 167.303 77.0096C167.744 77.6443 167.964 78.4906 168.846 78.279C169.728 78.0675 170.61 77.6443 170.61 76.3749C170.61 75.1056 171.271 73.8362 171.271 72.5668C171.712 68.3355 170.83 64.3157 168.405 60.9307C168.405 60.9307 168.405 60.5075 168.185 60.296C167.744 59.6613 167.524 59.0266 167.083 58.3919C167.083 57.9687 166.421 57.5456 167.083 57.334C167.744 56.9109 167.964 57.334 168.405 57.7572C172.153 62.2001 173.916 67.0661 173.255 72.9899C173.255 74.2593 172.373 75.3171 172.593 76.7981C176.341 75.1056 178.324 72.3552 178.765 68.547C179.206 65.5851 179.206 62.6232 179.206 59.6613C179.206 59.2381 178.986 58.6034 179.206 58.1803C179.206 58.3919 179.647 58.6034 179.647 58.815C179.647 59.8728 180.088 61.1422 180.088 62.2001C180.529 66.6429 180.308 70.8742 177.663 74.6824C177.443 74.6824 177.443 75.1056 177.663 75.1056C178.104 75.1056 178.545 75.1056 178.765 74.6824L179.206 74.894ZM63.7028 92.0308C62.3803 90.1267 60.3964 89.492 58.1922 89.0689C57.3105 89.0689 56.8696 89.0689 56.6492 90.1267C56.6492 91.6077 55.9879 93.0886 56.2083 94.5696C56.4288 97.9546 57.9718 100.705 61.0577 102.821C62.3803 101.34 63.7028 100.07 64.5845 98.3778C65.9071 96.0505 65.4662 93.9349 63.7028 92.0308ZM126.083 199.083C127.406 195.486 128.288 191.678 129.831 188.293C130.051 187.87 129.831 187.447 129.831 186.812C127.406 183.004 124.761 179.196 122.336 175.176C122.336 175.176 122.336 174.753 122.116 174.541C121.675 173.484 121.234 173.484 120.352 174.118C119.03 175.176 117.487 176.022 115.944 177.08C114.401 178.138 113.519 179.407 113.299 181.1C113.299 181.946 112.858 183.004 112.858 183.85C112.197 188.716 112.417 193.794 112.417 198.66C112.417 199.083 112.417 199.506 112.417 199.929C113.299 198.66 113.74 197.179 114.401 195.698C115.062 193.794 116.385 193.371 118.369 194.217C119.912 194.852 121.014 195.698 122.116 196.756C123.438 198.025 124.54 199.506 125.863 200.987C126.524 200.352 126.524 199.718 126.524 198.871L126.083 199.083ZM225.936 187.87C227.259 187.87 228.582 187.658 230.125 187.447C227.7 184.485 224.834 182.581 221.969 180.677C217.34 177.715 212.05 175.388 207.2 172.849C206.759 172.637 206.319 172.426 205.878 172.849C205.437 173.272 204.996 173.484 204.335 173.907C202.792 175.176 201.249 176.445 199.706 177.926C198.163 179.407 196.399 180.465 195.077 181.946C193.754 182.792 192.873 183.85 191.991 184.908C186.039 191.043 181.19 198.237 175.238 204.372C180.529 210.084 185.819 215.585 191.991 220.663C194.636 216.855 197.061 213.258 199.485 209.873C202.792 205.007 206.98 200.564 211.168 196.333C211.609 196.121 211.829 195.909 212.27 195.486C216.238 191.89 220.867 189.351 226.157 188.082L225.936 187.87ZM165.319 177.503C165.319 177.926 165.319 178.138 165.319 178.561C165.099 179.407 165.099 180.042 165.76 180.677C169.067 184.485 171.712 188.716 174.136 192.948C174.357 193.371 174.357 194.005 175.238 194.217C176.561 192.736 177.663 191.043 178.765 189.351C180.749 186.389 182.733 183.639 184.937 180.888C186.48 179.196 188.464 177.715 190.448 176.657C193.313 175.176 196.399 174.33 199.706 173.272C201.249 172.849 202.792 172.426 204.335 171.368C203.233 170.099 202.571 168.829 201.69 167.56C200.147 165.021 198.604 162.694 197.061 160.155C195.959 158.251 194.636 156.558 192.873 155.289C192.432 155.077 191.991 155.289 191.77 155.712C183.835 160.79 175.679 165.444 166.421 168.194C165.54 168.406 165.099 168.829 165.319 169.887C165.981 172.426 165.76 174.753 165.54 177.292L165.319 177.503ZM127.186 143.23C127.186 143.23 127.186 142.172 127.186 141.749C127.186 139.633 128.288 137.729 130.051 136.46C131.594 135.402 132.035 135.613 132.917 137.094C133.798 138.787 134.46 140.479 135.782 141.96C137.546 145.345 140.191 148.307 143.056 151.058C143.938 151.904 144.82 152.115 145.922 151.692C147.465 151.269 149.228 150.634 150.771 150.211C151.653 150 152.094 149.577 152.755 148.942C153.416 147.673 154.518 146.826 156.061 146.403C159.368 145.768 162.233 144.287 164.658 142.172C165.099 141.749 165.54 141.537 165.981 141.749C166.421 142.172 166.201 142.595 165.981 143.018C165.099 144.287 164.438 145.557 163.335 146.826C162.233 148.096 161.572 149.365 162.233 151.269C162.895 153.173 162.233 155.077 161.572 156.981C161.131 158.462 160.911 160.155 161.572 161.636C162.454 163.54 163.335 165.232 164.217 167.137C172.152 164.809 178.765 160.79 185.599 156.981C186.26 156.558 186.039 156.135 185.599 155.712C182.953 151.481 182.072 146.826 181.41 141.96C180.529 136.248 180.088 130.324 180.088 124.4C180.088 123.343 180.088 122.496 178.765 122.285C178.324 122.285 177.884 121.862 177.884 121.227C178.324 121.015 178.986 121.015 179.427 121.015C183.615 121.015 186.48 118.688 188.464 115.303C189.566 113.61 190.227 111.706 190.668 109.591C191.109 107.052 191.109 104.513 190.227 102.186C188.905 98.8009 185.598 97.7431 182.513 99.8587C180.749 100.917 179.647 102.398 178.765 104.09C178.324 105.148 177.443 106.206 176.781 107.264C176.12 108.11 175.459 108.533 174.357 108.533C171.932 108.533 169.507 108.533 167.303 107.687C166.201 107.264 165.981 106.84 166.642 105.783C167.303 104.513 167.744 103.244 167.964 101.974C169.287 95.4159 169.067 88.8573 167.964 82.2988C167.303 78.0675 164.438 75.7402 160.249 74.4709C160.249 74.4709 159.809 74.2593 159.588 74.2593C155.18 73.2015 150.771 73.6246 146.583 75.3171C143.056 76.7981 139.529 78.4906 135.782 79.3369C133.798 79.76 132.035 80.3947 130.051 81.0294C123.879 83.145 117.487 83.5682 110.874 82.2988C110.213 82.2988 109.772 81.4525 108.89 81.8756C108.89 82.2988 108.89 82.9335 108.89 83.3566C108.89 89.7036 109.331 96.2621 110.433 102.609C111.315 108.956 112.197 115.303 113.96 121.438C116.385 130.324 119.912 138.575 126.304 145.345C127.847 144.711 126.965 143.653 126.965 142.807L127.186 143.23ZM32.1819 89.2804C30.8593 90.973 30.8593 92.4539 32.1819 94.1464C33.284 95.4158 34.1657 96.6852 35.2679 97.9546C36.5904 99.4356 37.913 100.917 39.2355 102.398C40.9989 94.1465 46.2892 89.492 54.2245 87.3764C57.5309 86.5301 60.6169 87.3764 63.262 89.0689C66.7888 91.6077 67.6705 95.6274 65.4662 99.4356C64.5845 100.705 63.7028 101.974 62.6007 103.032C61.4986 104.09 60.6169 105.359 59.5147 106.417C57.7513 108.744 56.6492 111.283 57.09 114.245C57.5309 118.265 58.633 122.073 60.3964 125.458C61.2781 126.939 61.2781 127.151 62.8211 126.304C65.6867 125.035 68.5522 123.766 71.6382 122.708C72.9607 122.285 72.9607 121.65 72.2995 120.592C72.2995 120.169 72.079 119.534 71.8586 119.111C69.6543 114.245 70.7565 109.802 74.0629 105.571C75.165 104.302 76.0467 103.032 77.1488 101.763C80.0144 97.9546 81.9982 93.9349 82.6595 89.2804C83.7616 82.0872 80.8961 75.1056 73.4016 71.9321C67.6705 69.6048 61.9394 68.7586 55.7675 70.4511C48.4934 72.5668 42.5419 76.7981 37.0313 81.6641C34.827 83.5682 32.8432 85.8954 31.741 88.4342L32.1819 89.2804ZM80.0144 102.398C78.4714 104.302 76.9284 106.206 75.165 108.321C77.1488 109.379 78.9122 109.591 80.8961 109.379C83.3208 109.379 85.525 108.744 87.9497 107.898C89.2723 107.475 89.7131 107.898 89.7131 108.956C89.7131 110.225 89.7131 111.495 89.7131 112.553C89.9335 118.688 94.3421 122.285 100.734 121.438C102.498 121.227 102.718 121.438 103.159 122.919C103.159 123.554 103.38 123.977 103.6 124.612C104.041 127.362 105.584 129.478 107.347 131.17C109.551 133.286 113.299 133.921 116.164 132.651C114.842 129.478 113.74 126.304 112.858 123.131C109.772 109.802 107.788 96.2621 108.229 82.5103C108.229 81.4525 108.008 81.0294 107.127 80.6063C101.837 77.6443 98.3097 73.2015 96.5463 67.4892C95.4442 63.8926 95.0034 60.296 94.7829 56.4878C94.7829 55.2184 94.5625 53.7374 94.7829 52.468C94.7829 51.4102 95.6646 50.9871 96.7668 51.6218C97.2076 51.8333 97.428 52.2565 97.8689 52.6796C99.1914 53.949 100.734 54.5837 102.498 55.0068C103.38 55.0068 104.261 55.43 105.143 54.5837C102.718 53.1027 101.396 50.9871 100.955 48.4483C100.734 46.9673 100.734 45.6979 100.955 44.217C101.175 41.6782 102.498 40.1972 105.143 42.3129C107.347 44.0054 109.992 44.6401 112.858 44.6401C116.164 44.6401 119.471 44.0054 122.777 43.3707C130.051 41.6782 137.546 40.4088 145.04 39.9857C153.416 39.5625 161.792 39.9857 169.728 42.9476C175.459 44.8517 180.749 47.3905 184.937 51.6218C189.566 56.2762 191.77 61.5654 190.448 68.1239C190.007 69.8164 189.566 71.2974 188.905 72.7783C188.684 73.413 188.684 73.8362 189.125 74.4709C190.448 75.5287 191.109 77.2212 191.77 78.7022C192.432 80.1831 192.432 81.8757 192.873 83.3566C192.873 85.2607 192.873 87.1648 193.534 89.0689C196.179 88.2226 198.383 86.7417 200.587 85.4723C203.233 83.7797 205.216 81.241 206.539 78.4906C208.302 74.2593 208.964 69.8164 208.743 65.162C208.302 60.0844 206.098 55.6415 201.91 52.2565C200.147 50.9871 198.383 49.9292 196.179 49.7177C194.636 49.7177 194.416 49.083 195.297 47.8136C196.62 46.1211 197.942 44.217 198.824 42.1013C200.367 38.7163 200.587 35.5428 199.265 32.1577C195.738 23.272 184.717 17.5597 175.238 19.4638C171.271 20.3101 167.303 21.791 164.217 24.1182C163.335 24.7529 162.674 24.5414 162.454 23.4836C162.454 23.0604 162.454 22.6373 162.454 22.2142C162.233 19.4638 161.131 16.925 159.588 14.5978C157.825 12.2706 155.841 10.3665 153.637 8.4624C146.142 2.96169 137.546 1.0576 128.288 1.6923C120.573 2.11543 113.519 4.65422 107.568 9.52023C99.6323 16.0788 94.1216 23.6951 92.3582 33.8503C92.3582 34.9081 91.9174 35.9659 93.0195 37.0237C88.1701 36.1775 83.5412 35.1197 78.6918 36.6006C74.0629 37.87 69.8748 39.9857 66.1275 42.9476C62.3803 46.1211 59.9556 49.9292 58.4126 54.5837C57.0901 59.2381 57.5309 63.681 57.9718 68.3355C61.4986 67.4892 64.805 67.7008 68.3318 68.1239C69.6543 68.547 71.1973 68.7586 72.5199 69.1817C82.6595 72.1436 86.8476 79.9716 85.525 89.2804C84.8637 93.7233 82.8799 97.9546 80.4552 101.763L80.0144 102.398ZM193.313 90.3383C193.313 90.3383 193.313 91.3961 193.313 91.8192C193.313 93.9349 193.313 96.2621 192.211 98.3778C191.55 99.8587 191.77 100.917 192.652 101.974C196.84 98.3778 197.281 94.1465 193.313 90.3383ZM136.443 196.121C134.68 193.794 133.137 191.678 131.374 189.351C130.712 190.62 130.492 191.678 130.272 192.736C130.272 193.159 130.272 193.371 130.492 193.582C132.255 194.64 133.798 195.91 136.223 195.91L136.443 196.121Z" fill="#1A1B1D"/>
<path d="M137.105 294.5C137.105 294.5 137.546 292.807 137.767 292.172C137.767 292.384 137.987 292.595 138.208 292.807C138.869 293.653 139.53 294.5 140.853 294.076C141.955 293.653 142.616 293.019 142.616 291.749C142.616 291.538 142.616 291.115 142.616 290.903C142.837 283.71 143.057 276.516 143.057 269.323C143.057 253.244 143.718 237.377 146.143 221.509C146.584 218.548 146.804 215.374 147.906 212.412C149.229 213.893 149.89 215.586 150.772 217.278C157.164 229.972 163.997 242.454 171.051 254.725C175.019 261.918 179.648 268.477 185.82 274.189C190.889 278.844 196.841 282.017 203.895 283.498C203.895 283.498 204.335 283.498 204.556 283.71C203.674 284.556 202.352 284.556 201.249 284.768C200.809 285.402 201.911 285.614 201.47 286.248C201.029 286.672 200.588 287.095 200.147 287.306C199.927 287.306 199.707 287.729 199.486 287.729C191.11 291.538 182.734 294.5 173.476 294.923C165.32 295.346 156.944 295.557 148.788 295.981C146.143 295.981 143.498 295.981 140.853 295.769C139.53 295.557 138.208 295.346 137.105 294.5Z" fill="#79B630"/>
<path d="M91.0352 281.593C92.3577 280.535 92.1373 279.054 92.1373 277.785C92.1373 273.342 92.1373 269.11 92.5781 264.668C93.019 255.57 93.6803 246.473 94.1211 237.376C94.562 229.125 95.2233 220.874 96.105 212.622C96.105 210.507 96.5458 208.603 96.7662 206.487C96.7662 205.429 97.2071 204.583 96.5458 203.525C97.8684 201.621 99.4113 199.717 100.954 197.813C103.599 194.639 106.685 191.466 110.212 189.139C110.433 191.889 110.212 194.639 110.212 197.178C110.212 199.082 110.212 201.198 110.212 203.102C110.212 203.948 110.212 204.795 110.433 205.641C110.433 205.852 110.433 206.275 110.874 206.275C111.314 206.275 111.535 206.275 111.755 205.852C111.976 205.218 112.416 204.583 112.637 203.948C113.519 201.409 114.4 199.082 115.502 196.755C116.164 195.486 116.605 195.486 117.486 195.909C118.148 196.332 118.368 196.755 117.927 197.39C116.825 199.294 115.943 201.409 115.062 203.525C115.062 203.948 114.621 204.371 114.621 205.006C114.621 205.641 113.739 206.487 114.621 207.122C115.282 207.756 116.164 207.122 116.825 206.91C117.707 206.487 118.588 206.064 119.47 205.852C120.131 205.641 120.793 205.218 121.674 205.429C120.131 210.295 119.691 215.584 119.029 220.662C118.148 227.432 117.266 234.202 116.605 240.972C115.943 248.589 115.282 256.205 114.841 263.821C114.841 267.206 114.621 270.591 114.18 274.188C113.739 278.631 113.959 282.862 113.959 287.305C113.959 288.998 114.841 290.267 116.605 290.479C116.825 290.479 117.266 290.479 117.045 290.902C117.045 291.325 116.825 291.325 116.384 291.325C115.723 291.325 115.282 291.325 114.621 291.325C110.433 290.902 106.024 290.267 102.056 288.786C100.073 288.151 98.0888 287.305 96.5458 286.036C95.4437 285.189 94.1211 284.766 92.7986 284.132C91.6964 283.497 91.0352 282.862 91.0352 281.593Z" fill="#79B630"/>
<path d="M213.592 97.5312C219.323 97.5312 224.393 99.6469 228.581 103.244C231.226 105.359 232.99 108.11 233.651 111.495C234.533 116.572 231.006 124.189 226.377 126.727C224.834 127.785 223.071 128.208 221.087 128.42C218.442 128.631 215.797 129.055 213.372 129.266C212.49 129.266 211.829 129.478 210.947 129.689C209.184 130.112 208.082 131.17 207.641 132.863C207.641 133.921 207.2 134.978 206.98 136.036C206.539 137.729 205.877 137.94 204.555 137.306C202.791 136.459 201.028 135.613 199.044 134.978C197.942 134.555 197.281 133.921 197.501 132.651C198.162 128.843 198.603 125.035 199.926 121.65C201.248 118.265 203.012 117.418 206.759 117.842C208.082 117.842 209.404 118.265 210.727 118.476C211.609 118.476 212.49 118.688 213.372 118.688C216.458 118.688 218.001 116.361 216.899 113.61C215.797 110.648 212.049 108.321 208.523 108.321C206.465 108.321 205.73 107.404 206.318 105.571C206.98 103.667 207.861 101.763 208.302 99.6469C208.743 98.1659 209.625 97.7428 210.947 97.7428C211.829 97.7428 212.49 97.7428 213.372 97.7428L213.592 97.5312ZM208.082 106.84C208.082 106.84 209.184 106.84 209.625 106.84C212.931 107.263 215.576 108.744 217.56 111.495C219.103 113.399 219.544 115.726 218.221 117.842C216.899 120.169 214.474 120.592 212.049 120.169C211.168 120.169 210.066 119.746 209.184 119.534C208.302 119.534 207.42 119.111 206.539 119.111C204.114 118.899 203.012 119.534 201.91 121.65C200.367 125.035 199.926 128.631 199.485 132.016C199.485 132.44 199.485 133.074 200.146 133.286C201.91 133.921 203.453 134.555 205.216 135.19C205.216 134.555 205.657 133.921 205.657 133.286C206.098 129.901 208.302 127.997 211.829 127.362C214.915 126.727 218.221 126.516 221.307 126.093C224.173 125.669 226.597 124.4 228.361 122.284C229.683 120.592 230.565 118.899 231.226 116.995C232.769 111.918 231.226 107.898 227.259 104.513C222.63 100.705 217.34 99.0122 211.388 99.4353C210.506 99.4353 210.066 99.8585 209.845 100.493C209.184 102.397 208.523 104.301 208.082 106.205V106.629C208.082 106.629 208.082 106.629 208.302 106.629L208.082 106.84Z" fill="#1B2529"/>
<path d="M74.0621 266.572C75.8255 267.842 77.3685 269.111 79.1319 270.38C82.2179 272.708 85.3038 274.823 88.8307 276.304C89.4919 276.516 89.7124 276.939 89.7124 277.574C89.7124 278.843 89.9328 279.901 90.3736 280.959C88.8306 283.074 88.8307 283.074 86.406 281.593C83.32 279.901 80.0136 278.208 76.7072 276.516C75.3847 275.881 74.2825 274.612 73.1804 273.554C72.2987 272.708 72.5191 271.65 72.96 270.804C73.4008 269.323 74.2825 268.053 74.0621 266.572Z" fill="#F3C8D1"/>
<path d="M76.7085 129.479C79.7944 129.479 81.9987 131.171 81.9987 133.498C81.9987 136.037 79.1332 138.787 76.488 138.787C73.8429 138.787 71.6387 136.883 71.6387 134.556C71.6387 131.806 74.0634 129.479 76.7085 129.479ZM76.2676 136.883C78.031 136.883 80.0149 135.191 80.0149 133.498C80.0149 132.229 78.4719 131.383 76.7085 131.171C74.9451 131.171 73.1817 132.652 73.1817 134.133C73.1817 135.614 74.5042 136.883 76.2676 136.883Z" fill="#1B2529"/>
<path d="M201.69 149.789C199.486 149.789 197.943 148.52 197.502 146.404C197.061 144.5 197.943 143.23 199.927 142.384C199.927 142.384 200.147 142.384 200.367 142.384C201.91 141.538 203.233 141.326 204.556 142.384C205.878 143.442 206.319 144.923 205.878 146.616C205.437 148.308 203.894 149.154 202.131 149.577C201.91 149.577 201.47 149.577 201.47 149.577L201.69 149.789ZM201.69 147.462C202.792 147.462 203.894 146.404 203.894 145.558C203.894 144.5 203.013 143.654 201.91 143.654C200.808 143.654 199.927 144.288 199.706 145.346C199.706 146.404 200.588 147.462 201.69 147.462Z" fill="#1A1B1D"/>
<path d="M192.652 83.5683C191.99 82.0873 192.211 80.3948 191.549 78.9139C190.888 77.4329 190.227 75.7404 188.904 74.6825C188.243 74.0478 188.243 73.6247 188.684 72.99C189.345 71.5091 189.786 69.8165 190.227 68.3356C191.77 61.777 189.345 56.4879 184.716 51.8335C180.528 47.6022 175.017 45.0634 169.507 43.1593C161.571 40.4089 153.195 39.7742 144.819 40.1974C137.325 40.6205 129.83 41.8899 122.556 43.5824C119.25 44.2171 115.943 44.6402 112.637 44.8518C109.771 44.8518 107.126 44.4287 104.922 42.5246C102.277 40.4089 100.954 41.6783 100.734 44.4287C100.734 45.9096 100.734 47.3906 100.734 48.66C101.175 51.1988 102.497 53.3144 104.922 54.7954C104.04 55.4301 103.159 55.2185 102.277 55.2185C100.513 54.7954 98.9704 54.1607 97.6479 52.8913C97.207 52.4682 96.9866 52.045 96.5458 51.8335C95.664 51.1988 94.7823 51.4103 94.5619 52.6797C94.5619 53.9491 94.5619 55.4301 94.5619 56.6995C94.7823 60.5077 95.4436 64.1043 96.3253 67.7009C98.0887 73.4132 101.395 77.856 106.906 80.8179C107.787 81.2411 108.228 81.8758 108.008 82.722C107.567 96.4738 109.551 110.014 112.637 123.343C110.433 123.343 109.11 122.496 108.228 120.592C107.567 119.323 107.567 118.053 107.347 116.573C107.347 115.303 106.906 115.092 105.583 115.515C105.142 115.515 104.922 115.726 104.481 115.938C101.395 116.784 98.9704 115.938 97.4275 113.399C95.664 110.649 95.4436 107.687 95.8845 104.725C96.1049 102.821 96.7662 100.705 96.7662 98.3779C91.4759 102.398 86.1857 104.302 79.7934 102.398C82.218 98.5895 84.2019 94.3581 84.8632 89.9153C85.9653 80.6064 81.9976 72.7785 71.858 69.8165C70.5355 69.3934 68.9925 68.9703 67.6699 68.7587C67.6699 65.1621 67.6699 61.5655 69.2129 58.1804C73.1806 48.4484 83.9815 40.1974 94.5619 40.6205C96.3253 40.6205 96.3253 40.6205 96.5458 38.7164C96.9866 34.9082 98.0887 31.1 100.513 27.9266C102.277 25.3878 104.481 22.849 107.126 20.9449C111.314 17.5598 115.723 14.8095 120.793 13.117C123.658 12.2707 126.744 11.636 129.61 11.4244C136.884 10.3666 143.717 11.8476 150.109 15.2326C152.314 16.502 154.297 18.1945 156.281 19.4639C158.706 20.9449 160.028 23.0605 160.69 25.5993C160.69 25.8109 160.69 26.234 161.131 26.4456C161.571 26.4456 162.012 26.4456 162.674 26.234C162.894 26.234 163.335 26.234 163.555 26.0225C168.625 24.5415 173.915 23.6952 179.206 24.1184C185.157 24.5415 189.566 27.2919 192.211 32.3694C194.856 37.6586 194.195 45.9096 188.463 49.7178C187.802 50.1409 187.802 50.5641 188.463 50.9872C189.566 51.6219 190.668 52.2566 191.549 53.1029C194.856 55.6416 197.281 58.6036 198.383 62.4117C199.705 66.8546 200.366 71.5091 199.485 76.1635C198.823 79.7601 197.501 83.1452 193.092 83.9914L192.652 83.5683Z" fill="#FEFEFE"/>
<path d="M160.69 74.8945C164.658 76.1639 167.524 78.4911 168.405 82.7225C169.507 89.281 169.507 95.8395 168.405 102.398C168.185 103.667 167.744 104.937 167.083 106.206C166.422 107.476 166.642 107.687 167.744 108.11C169.948 108.745 172.373 109.168 174.798 108.957C175.9 108.957 176.561 108.533 177.222 107.687C177.884 106.629 178.765 105.783 179.206 104.514C180.088 102.821 181.19 101.34 182.953 100.282C186.039 98.1667 189.346 99.2246 190.668 102.61C191.55 104.937 191.55 107.476 191.109 110.014C190.668 111.919 190.007 113.823 188.905 115.727C186.921 119.112 184.056 121.227 179.868 121.439C179.427 121.439 178.765 121.439 178.325 121.651C178.325 122.285 178.545 122.708 179.206 122.708C180.529 122.92 180.529 123.766 180.529 124.824C180.529 130.748 181.19 136.46 181.851 142.384C182.513 147.038 183.394 151.904 186.039 156.136C186.26 156.559 186.48 156.982 186.039 157.405C179.206 161.213 172.373 165.233 164.658 167.56C163.776 165.868 162.895 163.964 162.013 162.06C161.352 160.579 161.572 158.886 162.013 157.405C162.454 155.501 163.336 153.597 162.674 151.693C162.013 149.789 162.674 148.731 163.776 147.25C164.658 145.981 165.54 144.711 166.422 143.442C166.642 143.019 167.083 142.596 166.422 142.172C165.981 141.749 165.54 142.172 165.099 142.596C162.454 144.5 159.809 146.192 156.502 146.827C154.959 147.038 154.078 148.096 153.196 149.366C152.755 150 152.094 150.423 151.212 150.635C149.669 151.058 147.906 151.693 146.363 152.116C145.261 152.328 144.379 152.116 143.497 151.481C140.632 148.731 137.987 145.981 136.223 142.384C136.223 141.961 136.223 141.538 136.223 141.115C135.562 138.999 135.782 137.095 136.223 134.979C136.664 134.979 137.325 134.979 137.766 134.979C138.648 134.979 139.53 134.979 140.191 134.133C140.632 133.287 140.191 132.44 139.75 131.806C139.53 131.383 139.089 131.171 138.868 130.959C137.325 129.902 135.782 128.844 133.798 128.844C133.798 127.574 132.917 126.093 133.358 124.824C133.798 123.343 133.578 121.862 133.798 120.381C134.019 120.381 134.46 119.958 134.68 119.746C133.137 118.689 131.374 118.054 130.051 116.996C129.61 116.573 129.169 116.361 129.61 115.515C131.815 112.765 132.476 109.38 133.137 106.206C133.358 104.937 133.578 103.879 133.578 102.61C133.578 101.763 133.137 101.129 132.255 101.763C132.255 98.1667 132.255 94.5701 132.255 90.7619C132.255 89.9157 132.476 89.281 133.358 88.6463C136.223 86.3191 139.089 83.7803 141.734 81.4531C144.158 79.3374 147.024 77.6449 150.33 76.5871C153.857 75.5292 157.384 75.1061 161.131 75.1061L160.69 74.8945ZM186.921 110.014C186.921 110.014 187.803 109.168 187.803 108.533C187.803 107.687 187.803 106.629 187.803 105.783C187.803 104.725 187.362 104.302 186.26 104.725C186.26 104.725 185.819 104.725 185.599 104.725C183.394 103.879 182.513 104.091 181.41 105.995C180.97 106.841 180.529 107.899 180.529 108.745C180.529 110.014 180.97 111.072 181.41 112.342C182.072 114.669 182.072 114.669 179.868 115.727C179.427 115.727 178.986 116.15 178.986 116.573C178.986 117.208 179.647 117.208 180.308 117.208C182.072 117.208 182.953 116.15 183.835 114.034C184.937 112.553 186.26 111.495 186.921 109.803V110.014ZM141.513 105.783C141.513 105.783 141.513 106.629 141.513 106.841C141.513 107.899 141.513 108.957 143.056 109.168C144.379 109.38 145.04 108.533 145.481 107.476C146.363 105.783 146.804 103.879 146.363 101.763C146.363 100.917 145.922 100.071 144.82 99.8593C143.497 99.6477 143.056 100.494 142.615 101.34C141.734 102.821 141.734 104.302 141.513 105.572V105.783ZM151.873 96.2627C151.873 96.2627 150.992 96.0511 150.551 96.0511C146.583 96.4742 142.615 96.6858 138.648 96.4742C138.427 96.4742 138.207 96.4742 137.987 96.4742C137.546 96.4742 137.325 96.6858 137.325 97.1089C137.325 97.5321 137.325 97.7436 137.766 97.9552C137.987 97.9552 138.427 98.1667 138.868 98.3783C142.615 98.8014 146.363 99.013 150.11 97.5321C150.771 97.3205 151.653 97.1089 151.873 96.2627Z" fill="#FEFEFE"/>
<path d="M137.766 163.329C137.766 163.329 138.428 163.964 139.089 163.752C139.089 162.906 138.648 162.06 138.207 161.425C136.003 157.617 133.799 153.597 131.815 149.578C130.933 147.462 129.831 145.558 129.17 143.442C128.508 141.326 129.17 139.422 130.933 137.941C131.374 137.941 131.374 138.576 131.594 138.788C133.799 144.077 137.325 148.943 141.734 152.751C145.04 155.713 148.126 158.675 150.331 162.483C150.992 163.541 151.433 164.387 152.755 165.233C153.417 164.176 152.755 163.541 152.755 162.695C151.874 158.252 152.314 154.232 154.519 150.212C155.18 149.154 155.841 148.097 157.384 148.308C158.927 148.52 159.809 149.578 160.029 151.058C160.25 152.116 160.029 153.386 160.029 154.444C160.029 155.29 159.588 155.924 159.368 156.771C158.707 159.098 158.927 161.425 160.029 163.752C160.911 165.656 162.013 167.561 162.674 169.676C163.777 173.061 163.336 176.446 162.674 179.62C162.234 181.312 162.674 183.005 162.013 184.697C162.013 185.121 162.013 185.755 162.454 186.178C164.217 191.891 167.524 196.968 170.83 201.834C173.034 205.219 175.9 208.181 178.766 211.143C185.158 217.702 192.212 223.837 199.706 229.126C204.776 232.511 208.743 236.954 212.711 241.609C216.458 245.84 219.765 250.283 222.851 254.937C223.292 255.572 223.732 256.207 224.173 256.63C224.394 256.841 224.614 257.264 225.055 257.053C225.496 256.841 225.055 256.418 225.055 255.995C225.055 255.572 224.614 255.149 224.394 254.726C224.394 254.302 223.732 253.879 224.394 253.668C224.614 253.245 225.275 253.456 225.716 253.668C228.582 254.302 231.227 254.937 234.092 255.572C232.109 260.015 229.684 264.034 226.598 268.054C226.157 268.054 225.937 268.477 225.937 268.9C225.716 268.9 225.496 269.112 225.496 269.324C225.275 269.324 225.055 269.535 225.055 269.747C224.394 269.747 223.953 269.747 223.732 270.17C221.087 272.709 218.222 272.497 215.136 271.228C212.05 269.747 209.405 267.843 206.98 265.515C203.674 262.342 200.367 259.168 197.281 255.783C195.077 253.456 193.093 250.917 190.889 248.59C187.583 244.782 184.497 240.762 181.411 236.743C175.9 229.972 170.389 222.991 165.32 215.798C162.013 211.143 158.927 206.277 155.621 201.623C149.89 193.583 144.599 185.121 139.089 176.869C137.105 173.908 135.342 170.523 132.917 167.772C130.713 163.752 128.288 159.944 126.745 155.713C126.084 153.809 125.202 151.693 126.304 149.789C127.627 152.963 129.61 155.924 132.035 158.463C133.137 159.521 133.799 161.002 135.782 161.425C136.003 161.425 136.003 161.425 136.223 161.848C136.223 162.271 136.223 162.695 136.885 162.483C136.885 162.695 136.885 162.906 137.325 162.906C137.325 163.118 137.325 163.329 137.766 163.329Z" fill="#FEFEFE"/>
<path d="M180.087 59.0258C180.087 59.0258 179.646 58.6027 179.646 58.3911C179.206 58.8142 179.646 59.2374 179.646 59.8721C179.646 62.834 179.646 65.7959 179.206 68.7578C178.544 72.566 176.56 75.3164 173.034 77.0089C173.034 75.5279 173.474 74.4701 173.695 73.2007C174.356 67.4884 172.372 62.4109 168.846 57.968C168.625 57.5448 168.184 56.9101 167.523 57.5448C167.082 57.968 167.523 58.3911 167.523 58.6027C167.964 59.2374 168.184 59.8721 168.625 60.5068C168.625 60.7183 168.625 61.1415 168.846 61.1415C168.846 61.1415 168.846 61.9877 168.846 62.4109C169.948 66.6422 169.948 70.6619 168.405 74.6817C168.184 75.5279 167.743 76.3742 167.743 77.2204C162.453 71.2966 153.195 71.5082 146.582 74.2585C142.615 75.9511 139.088 77.8551 135.12 79.3361C128.287 81.8749 121.454 82.7211 114.18 81.8749C111.976 81.6633 109.992 80.8171 108.449 79.7592C108.449 79.3361 108.449 79.3361 108.669 79.3361C112.416 79.7592 115.723 78.7014 119.029 77.0089C121.895 75.5279 124.54 73.4123 127.405 71.5082C128.728 70.6619 129.83 69.8156 131.153 68.9694C138.868 64.1034 147.023 64.1034 155.4 66.6422C156.722 67.0653 158.045 67.9116 159.147 68.5463C159.367 68.5463 159.808 68.5463 160.028 68.5463C160.249 68.3347 160.028 67.9116 160.028 67.7C159.367 66.8537 158.485 66.4306 157.824 66.0075C154.959 64.3149 151.652 63.6802 148.125 63.4687C143.276 63.0455 138.647 63.4687 134.018 65.1612C132.475 65.5843 130.932 66.0075 129.61 66.8537C127.405 67.7 125.422 68.9694 123.658 70.0272C121.674 71.2966 119.911 72.3544 117.707 73.2007C114.841 74.4701 111.976 74.4701 109.11 73.2007C104.701 70.8735 101.836 67.2769 100.293 62.834C100.293 62.4109 100.293 61.9877 100.293 61.5646C100.293 60.7183 100.513 60.2952 101.616 60.2952C104.04 60.7183 106.465 59.8721 108.89 59.0258C112.416 57.7564 115.723 56.2754 118.809 54.5829C124.981 51.1979 131.373 50.1401 138.206 51.1979C144.819 52.2557 151.211 53.9482 156.061 58.8142C156.061 58.8142 156.281 58.8142 156.502 59.0258C157.383 59.8721 158.265 59.6605 158.926 58.6027C159.367 58.8142 159.808 59.8721 160.469 59.2374C161.131 58.8142 160.469 57.968 160.469 57.5448C158.706 54.3714 156.061 52.0441 152.754 50.3516C149.228 48.4475 145.26 47.6013 141.292 46.9666C134.459 46.1203 127.846 46.1203 121.233 48.4475C118.809 49.2938 116.605 50.3516 114.4 51.621C113.078 52.2557 111.755 53.102 110.433 53.9482C107.567 55.4292 107.567 55.4292 105.363 53.102C102.938 50.5632 102.718 47.6013 103.379 44.6393C104.04 44.2162 104.481 44.6393 104.922 45.0625C108.008 47.1781 111.535 47.6013 115.062 47.3897C119.69 46.9666 124.099 46.1203 128.728 45.274C136.884 43.5815 145.26 42.5237 153.857 42.9468C162.233 43.3699 170.388 45.274 177.663 49.2938C180.749 50.9863 183.614 53.102 185.818 55.8523C189.345 60.2952 190.006 65.1612 188.463 70.2388C188.023 71.5082 187.802 72.9891 187.141 73.8354C186.48 74.6817 184.716 74.2585 183.614 74.6817C182.512 74.8932 181.41 75.3164 180.087 75.3164C181.851 73.4123 182.953 71.2966 183.173 68.7578C183.173 66.0075 182.732 63.2571 182.071 60.5068C182.071 59.8721 181.63 59.4489 180.969 59.2374L180.087 59.0258Z" fill="#EA882E"/>
<path d="M133.137 167.772C135.562 170.734 137.105 173.907 139.309 176.869C144.82 185.12 150.11 193.371 155.841 201.622C159.148 206.277 162.234 211.143 165.54 215.797C170.61 222.991 176.12 229.761 181.631 236.742C184.938 240.762 188.023 244.782 191.109 248.59C193.093 251.129 195.298 253.456 197.502 255.783C200.588 259.168 203.894 262.342 207.201 265.515C209.625 267.843 212.27 269.747 215.356 271.228C218.442 272.709 221.308 272.709 223.953 270.17C224.394 269.747 224.835 269.535 225.276 269.747C221.528 274.824 217.34 279.267 210.727 280.96C208.303 281.594 206.098 281.594 203.674 280.96C199.706 280.113 196.179 278.209 192.873 276.094C184.938 271.016 179.206 263.823 174.577 255.783C167.524 243.301 160.47 231.03 154.078 218.336C152.535 215.163 150.551 211.989 148.567 209.027C148.126 208.393 147.245 207.758 148.126 206.912C148.347 206.488 147.906 206.065 147.685 205.854C146.583 204.373 145.481 202.68 144.159 201.199C138.207 194.852 133.137 187.871 128.508 180.677C126.745 177.927 124.982 175.177 123.218 172.215C122.116 170.522 121.455 168.83 121.014 166.926C120.794 165.445 120.794 164.175 121.234 162.906C121.896 162.906 121.896 163.541 122.116 163.964C123.439 166.926 124.982 169.465 127.186 171.792C127.847 172.638 128.729 173.273 129.831 173.484C130.272 172.85 129.831 172.638 129.831 172.215C128.949 170.945 127.847 169.676 126.965 168.407C125.202 166.079 123.879 163.541 123.218 160.579C122.777 158.463 123.218 156.347 124.541 154.443C125.202 154.655 125.202 155.29 125.422 155.713C126.525 159.098 128.068 162.483 130.051 165.445C130.713 166.503 131.594 167.772 132.697 168.618C133.578 169.253 133.799 168.618 133.799 167.984L133.137 167.772Z" fill="#F3C8D1"/>
<path d="M192.653 83.5684C197.062 82.5106 198.384 79.3371 199.045 75.7405C199.927 71.0861 199.266 66.4316 197.943 61.9887C196.841 58.1806 194.196 55.2186 191.11 52.6799C190.228 51.8336 189.126 51.1989 188.024 50.5642C187.363 50.1411 187.363 49.7179 188.024 49.2948C193.755 45.4866 194.416 37.2356 191.771 31.9464C189.126 26.8689 184.718 24.1185 178.766 23.6954C173.476 23.2722 168.186 24.1185 163.116 25.5995C162.896 25.5995 162.455 25.5995 162.234 25.811C161.793 25.811 161.132 25.811 160.691 26.0226C160.471 25.811 160.25 25.5995 160.25 25.1763C159.589 22.6376 158.267 20.5219 155.842 19.0409C153.638 17.7715 151.874 16.079 149.67 14.8096C143.278 11.4246 136.665 9.94362 129.17 11.0014C126.084 11.4246 123.219 11.8477 120.353 12.694C115.063 14.3865 110.875 17.3484 106.687 20.5219C104.042 22.6376 102.058 24.9648 100.074 27.5036C97.8698 30.8886 96.7677 34.4852 96.1064 38.2934C95.886 39.9859 95.886 40.1975 94.1226 40.1975C83.5421 39.7744 72.7412 48.0254 68.7736 57.7574C67.451 61.1425 67.0101 64.7391 67.2306 68.3357C63.7038 68.1241 60.3974 67.701 56.8705 68.5473C56.4297 63.8928 55.9888 59.2384 57.3114 54.7955C58.6339 50.1411 61.2791 46.3329 65.0263 43.1594C68.5531 39.9859 72.9617 38.0818 77.5906 36.8124C82.44 35.3315 87.0689 36.3893 91.9183 37.2356C90.8162 36.1777 91.0366 35.3315 91.257 34.0621C93.0204 24.1185 98.7515 16.2906 106.466 9.73205C112.418 4.86604 119.472 2.53882 127.186 1.90413C136.444 1.26943 145.041 3.17352 152.535 8.67422C154.96 10.3667 156.944 12.4824 158.487 14.8096C160.03 17.1368 161.132 19.6756 161.353 22.426C161.353 22.8491 161.353 23.2722 161.353 23.6954C161.573 24.7532 162.234 24.9648 163.116 24.3301C166.422 21.7913 170.17 20.3103 174.137 19.6756C183.836 17.7715 194.637 23.6954 198.164 32.3696C199.486 35.7546 199.266 39.1397 197.723 42.3131C196.841 44.4288 195.519 46.1213 194.196 48.0254C193.094 49.2948 193.535 49.9295 195.078 49.9295C197.282 49.9295 199.266 50.9873 200.809 52.4683C204.997 55.8533 207.201 60.0847 207.642 65.3738C208.083 70.0282 207.422 74.2596 205.438 78.7024C204.115 81.6643 202.131 83.9916 199.486 85.6841C197.282 87.1651 195.078 88.4344 192.433 89.2807C191.992 87.3766 191.992 85.4725 191.771 83.5684H192.653Z" fill="#B2DCEE"/>
<path d="M205.216 228.279C205.216 228.279 205.656 226.798 205.877 226.163C206.979 223.836 208.081 221.509 208.522 218.97C205.877 221.72 204.554 225.317 202.791 228.702C199.484 226.375 196.398 224.259 193.312 221.72C199.264 213.892 204.334 205.218 211.608 198.448C213.371 196.756 215.355 195.063 217.559 194.005C217.78 194.005 218.221 194.005 218.221 193.582C221.968 193.582 223.952 194.851 225.274 198.236C225.274 198.66 225.495 199.083 225.715 199.506C226.817 203.314 227.479 207.122 227.699 210.93C228.14 224.259 227.479 237.376 224.613 250.493C224.613 250.705 224.613 251.128 224.613 251.339C223.07 251.339 222.188 250.705 221.307 249.647C219.764 247.531 218 245.416 216.457 243.3C213.371 238.857 209.624 234.837 205.656 231.241C206.758 230.183 207.861 229.337 208.963 228.279C210.065 227.221 211.387 226.586 212.049 224.894C210.947 225.105 210.065 225.74 209.404 226.163C208.301 227.009 207.199 227.856 206.318 228.49C206.097 228.702 205.656 229.125 205.216 228.49V228.279Z" fill="#FEFEFE"/>
<path d="M32.1814 89.2812C33.5039 86.7424 35.4878 84.4152 37.4716 82.5111C42.9822 77.4335 48.9338 73.4138 56.2078 71.2981C62.3797 69.6056 68.1108 70.2403 73.8419 72.7791C81.3364 75.9526 84.2019 82.9343 83.0998 90.1275C82.4385 94.7819 80.4547 98.8017 77.5892 102.61C76.7075 103.879 75.6053 105.149 74.5032 106.418C71.1968 110.438 70.0947 114.881 72.2989 119.958C72.2989 120.381 72.5194 121.016 72.7398 121.439C71.4172 120.381 70.0947 120.593 68.5517 121.016C66.5678 121.651 64.8044 122.285 62.8206 122.92C61.9389 120.804 61.7185 118.689 61.2776 116.573C60.1755 112.553 61.9389 109.803 64.8044 107.264C65.9066 106.206 67.0087 105.36 67.8904 104.302C73.6215 98.3785 71.1968 90.339 64.584 87.1656C58.6325 84.4152 52.681 84.6268 46.7295 87.3771C42.5414 89.4928 38.7941 92.2431 37.2512 96.8976C37.2512 96.8976 37.0307 96.8976 36.8103 96.8976C35.0469 94.5704 33.9448 91.82 31.9609 89.4928L32.1814 89.2812Z" fill="#26B8E9"/>
<path d="M160.691 74.893C156.944 74.893 153.417 75.3162 149.89 76.374C146.584 77.4318 143.718 79.1243 141.294 81.24C138.428 83.5672 135.783 86.106 132.917 88.4332C132.256 88.8564 131.815 89.4911 131.815 90.5489C131.815 94.1455 131.815 97.7421 131.815 101.55C131.374 103.878 130.934 106.205 130.272 108.532C129.611 110.648 129.17 112.763 127.627 114.456C126.305 115.937 126.525 116.571 127.627 117.841C128.95 119.322 130.934 119.745 132.697 120.168C132.697 121.649 132.697 123.13 132.256 124.611C131.815 125.88 132.697 127.361 132.697 128.631C131.815 128.631 130.713 128.631 130.272 129.9C130.052 130.958 130.713 131.804 131.595 132.439C132.697 133.497 134.019 133.92 135.342 134.555C134.681 136.67 134.681 138.574 135.342 140.69C135.342 141.113 135.342 141.536 135.342 141.959C134.019 140.478 133.358 138.786 132.476 137.093C131.815 135.612 131.154 135.401 129.611 136.459C127.848 137.728 126.745 139.421 126.745 141.748C126.745 142.171 126.745 142.806 126.745 143.229C126.305 142.382 125.864 141.748 125.423 140.901C120.353 133.074 117.267 124.399 114.842 115.514C113.079 109.59 112.418 103.454 111.756 97.319C111.756 96.2612 111.316 94.9918 111.977 93.9339C113.52 93.5108 114.842 92.453 116.385 91.8183C120.133 90.5489 122.337 91.1836 124.982 93.9339C125.423 94.5686 126.084 95.6265 126.966 94.7802C127.848 94.1455 126.966 93.0877 126.525 92.453C122.778 87.3754 115.063 87.7985 111.756 93.2992C111.536 91.8183 111.095 90.3373 111.095 88.6448C111.095 86.5291 111.095 84.4135 110.654 82.2978C117.267 83.5672 123.439 83.1441 129.831 81.0284C131.815 80.3937 133.579 79.759 135.562 79.3359C139.31 78.4897 142.837 76.7971 146.363 75.3162C150.551 73.4121 154.96 73.2005 159.368 74.2583C159.368 74.2583 159.809 74.2583 160.03 74.4699L160.691 74.893ZM121.014 105.57C121.014 105.57 121.014 103.666 120.573 102.82C120.133 101.762 119.03 101.762 118.149 101.762C117.267 101.762 117.047 102.608 117.047 103.243C116.826 105.147 117.047 107.051 117.708 108.955C118.149 110.224 119.471 110.224 120.353 109.167C121.014 108.109 121.235 107.051 121.235 105.782L121.014 105.57Z" fill="#F3C8D1"/>
<path d="M224.613 251.127C224.613 251.127 224.613 250.493 224.613 250.281C227.479 237.164 228.14 224.047 227.699 210.718C227.699 206.91 226.817 203.102 225.715 199.294C225.715 198.871 225.495 198.448 225.274 198.024C223.952 194.639 221.968 193.37 218.221 193.37C221.086 191.043 224.393 189.985 227.919 189.773C228.36 190.408 228.801 191.043 229.242 191.466C233.43 196.332 236.075 201.833 237.618 207.756C240.263 218.335 242.247 229.125 242.688 239.914C242.908 244.146 242.688 248.589 242.688 252.82C236.957 253.032 231.446 252.82 225.936 251.551C225.715 251.551 225.495 251.339 225.054 251.127C225.054 250.916 224.613 250.704 224.393 250.704L224.613 251.127Z" fill="#79B630"/>
<path d="M210.947 196.121C206.759 200.352 202.571 204.795 199.264 209.661C196.84 213.258 194.415 216.643 191.77 220.451C185.598 215.373 180.308 209.873 175.018 204.16C180.969 197.813 185.818 190.832 191.77 184.696C192.872 183.638 193.533 182.369 194.856 181.734C198.383 183.85 201.91 186.389 204.996 189.139C207.2 191.255 209.404 193.37 210.727 196.121H210.947Z" fill="#FEFEFE"/>
<path d="M95.0032 205.43C95.0032 207.757 94.342 210.084 93.9011 212.411C93.0194 217.912 92.5786 223.413 92.1377 229.125C91.4764 237.165 91.0356 245.416 90.5947 253.455C90.3743 258.533 89.9334 263.822 89.713 268.899C89.713 269.322 89.713 269.534 89.713 270.169C85.0841 267.63 80.4551 265.726 76.267 262.976C76.267 262.976 76.0466 262.976 75.8262 262.764C75.8262 258.956 75.8262 255.148 76.4874 251.551C78.9121 239.28 82.439 227.432 88.3905 216.431C90.3743 212.623 92.3581 209.026 95.0032 205.641V205.43Z" fill="#79B630"/>
<path d="M165.099 178.349C165.099 178.349 165.099 177.714 165.099 177.291C165.099 174.752 165.54 172.213 164.879 169.886C164.658 168.828 164.879 168.617 165.981 168.194C175.018 165.232 183.174 160.577 191.33 155.711C191.771 155.5 191.991 155.077 192.432 155.288C191.991 156.346 192.652 157.404 193.093 158.25C194.857 162.058 196.62 165.655 198.383 169.463C199.045 170.732 199.045 170.732 197.502 171.367C195.959 172.002 194.636 172.425 193.093 173.06C189.126 174.964 185.378 176.868 182.292 180.041C179.647 182.792 177.443 185.754 175.459 188.715C175.018 189.35 174.798 189.985 174.137 190.408C173.475 189.985 173.255 189.139 173.034 188.715C171.712 186.388 170.169 184.061 168.405 181.734C167.303 180.464 166.201 178.983 164.658 178.137L165.099 178.349Z" fill="#79B630"/>
<path d="M174.356 77.8554C174.356 77.8554 175.017 78.067 175.238 78.7017C175.679 80.6058 175.679 82.5099 175.238 84.4139C175.238 85.6833 174.797 86.9527 174.577 88.2221C174.577 88.8568 174.577 89.28 174.577 89.9147C175.679 89.7031 175.679 88.8568 176.119 88.0106C177.222 85.0486 177.442 81.8752 177.001 78.7017C177.001 78.067 176.56 77.2207 177.662 77.0092C178.985 76.586 179.426 76.586 180.087 77.6438C180.969 79.1248 181.41 80.8173 181.851 82.5099C182.071 83.3561 181.851 84.414 183.173 85.2602C184.055 82.0867 183.173 79.1248 181.851 76.586C182.291 75.9513 182.953 76.1629 183.614 75.9513C187.361 75.3166 187.582 75.1051 189.345 78.9132C190.227 80.8173 190.447 83.1446 190.668 85.2602C191.108 89.7031 191.329 93.9344 190.447 98.1657C189.786 98.5888 189.345 98.1657 188.904 97.7426C186.48 96.4732 184.055 96.6847 181.851 98.1657C179.426 99.6467 177.662 101.762 176.781 104.513C176.119 106.628 175.238 107.051 173.034 107.051C171.491 107.051 170.168 107.051 168.625 106.417C171.05 100.916 171.05 95.2038 170.829 89.4915C170.829 86.318 170.609 83.1446 169.507 80.1826C169.507 79.5479 169.507 79.1248 170.168 79.1248C171.05 79.1248 171.931 78.2785 173.034 78.7017C172.593 79.9711 171.27 80.8173 171.491 82.7214C172.813 81.0289 174.797 80.1826 174.356 77.8554Z" fill="#EA882E"/>
<path d="M80.0134 102.397C86.4058 104.301 91.696 102.397 96.9863 98.377C96.9863 100.704 96.325 102.608 96.1045 104.724C95.6637 107.686 95.6637 110.648 97.6475 113.398C99.4109 115.937 101.836 116.783 104.701 115.937C105.142 115.937 105.362 115.725 105.803 115.514C107.126 115.091 107.567 115.514 107.567 116.572C107.567 118.053 107.787 119.322 108.448 120.591C109.33 122.495 110.653 123.553 112.857 123.342C113.739 126.515 114.841 129.689 116.163 132.862C113.298 134.132 109.551 133.708 107.346 131.381C105.362 129.477 104.04 127.361 103.599 124.823C103.599 124.188 103.379 123.765 103.158 123.13C102.717 121.438 102.497 121.438 100.733 121.649C94.3411 122.495 89.9326 118.899 89.7122 112.763C89.7122 111.494 89.7122 110.225 89.7122 109.167C89.7122 107.897 89.2713 107.686 87.9488 108.109C85.7445 108.744 83.3198 109.378 80.8951 109.59C78.9113 109.59 77.1479 109.59 75.1641 108.532C76.707 106.628 78.25 104.512 80.0134 102.608V102.397Z" fill="#B2DCEE"/>
<path d="M32.1825 89.2803C34.1663 91.6075 35.2684 94.3579 37.0318 96.6851C37.2523 96.6851 37.4727 96.6851 37.4727 96.6851C39.2361 92.0306 42.7629 89.2803 46.951 87.1646C52.6821 84.4143 58.6336 83.9911 64.8055 86.9531C71.4183 90.1266 73.6226 98.166 68.1119 104.09C67.0098 105.148 65.9077 106.206 65.026 107.052C62.1604 109.591 60.397 112.341 61.4991 116.361C62.1604 118.476 62.3808 120.592 63.0421 122.708C65.026 122.073 66.7894 121.438 68.7732 120.804C70.3162 120.38 71.6387 120.169 72.9613 121.227C73.6226 122.285 73.6226 122.919 72.3 123.342C69.2141 124.4 66.3485 125.67 63.483 126.939C61.7196 127.574 61.7196 127.574 61.0583 126.093C59.2949 122.496 58.1927 118.688 57.7519 114.88C57.5315 111.918 58.4132 109.379 60.1766 107.052C61.0583 105.782 62.1604 104.725 63.2625 103.667C64.3647 102.609 65.2464 101.34 66.1281 100.07C68.3324 96.4735 67.4506 92.2422 63.9238 89.7034C61.0583 87.7993 57.9723 87.1646 54.8864 88.0109C46.951 89.915 41.4404 94.5694 39.8974 103.032C38.5748 101.551 37.2523 100.07 35.9297 98.5892C34.8276 97.3198 33.9459 96.0504 32.8437 94.781C31.5212 93.0885 31.3008 91.6075 32.8437 89.915L32.1825 89.2803Z" fill="#F7F6F7"/>
<path d="M147.905 212.412C146.803 215.374 146.583 218.336 146.142 221.509C143.717 237.376 143.056 253.455 143.056 269.323C143.056 276.516 143.056 283.709 142.615 290.903C142.615 291.114 142.615 291.537 142.615 291.749C142.615 292.807 141.954 293.653 140.852 294.076C139.749 294.499 138.868 293.653 138.206 292.807C138.206 292.595 137.986 292.383 137.766 292.172C138.206 284.767 138.427 277.362 138.868 270.169C139.088 264.245 139.529 258.11 139.97 252.186C140.411 244.57 141.072 236.742 141.954 229.125C142.615 222.99 143.497 217.066 144.819 211.142C144.819 210.296 145.26 209.661 145.481 208.604C146.803 209.661 147.244 211.142 148.126 212.412H147.905Z" fill="#F7F6F7"/>
<path d="M95.0043 205.429C92.3592 208.814 90.3754 212.622 88.3915 216.219C82.2196 227.22 78.6928 239.068 76.4885 251.339C75.8272 255.147 75.8272 258.955 75.8272 262.552C73.4025 261.494 71.4187 260.013 69.2144 258.532C67.8919 257.474 67.451 256.416 67.8919 254.724C68.3327 253.666 68.5532 252.608 68.7736 251.339C74.5047 234.837 81.9992 218.969 92.3592 204.583C95.2247 200.563 98.5311 196.755 102.058 193.158C104.042 191.254 106.466 189.35 108.891 188.081C109.112 188.081 109.332 187.658 109.552 188.081C109.773 188.292 109.552 188.715 109.552 189.138C106.026 191.466 102.94 194.639 100.295 197.813C98.7515 199.717 97.2086 201.409 95.886 203.525C94.7839 203.736 95.0043 205.006 94.5634 205.641L95.0043 205.429Z" fill="#F7F6F7"/>
<path d="M210.947 196.121C209.624 193.371 207.64 191.044 205.216 189.14C202.13 186.389 198.823 184.062 195.076 181.735C196.399 180.042 198.162 178.984 199.705 177.715C201.248 176.446 202.791 174.965 204.334 173.695C204.775 174.542 205.436 174.753 206.318 175.176C209.845 177.292 213.592 179.196 217.119 181.1C220.425 182.793 223.511 185.12 225.936 187.87C220.646 189.14 216.017 191.89 212.049 195.275C211.829 195.487 211.388 195.698 210.947 196.121Z" fill="#79B630"/>
<path d="M158.266 58.3911C157.604 59.449 156.723 59.449 155.841 58.8143C155.841 58.8143 155.621 58.8143 155.4 58.6027C150.551 53.7367 144.158 52.0442 137.546 50.9863C130.712 49.9285 124.32 50.9863 118.148 54.3714C115.062 56.0639 111.756 57.5449 108.229 58.8143C105.804 59.6605 103.6 60.2952 100.955 60.0837C99.8527 60.0837 99.6323 60.2952 99.6323 61.3531C99.6323 61.7762 99.6323 62.1993 99.6323 62.6224C101.175 67.2769 103.82 70.8735 108.449 72.9892C111.315 74.4701 114.18 74.2586 117.046 72.9892C119.03 72.1429 121.014 71.0851 122.997 69.8157C124.981 68.5463 126.965 67.4885 128.949 66.6422C129.169 66.6422 129.39 66.6422 129.61 67.0653C126.524 69.181 123.659 71.2966 120.573 73.4123C118.809 74.6817 116.826 75.5279 114.842 76.3742C111.315 77.8552 108.008 77.432 104.702 76.1626C101.837 74.8932 99.8527 72.9892 98.971 70.0272C97.2076 65.3728 96.3259 60.5068 96.1055 55.6408C96.7667 55.2177 97.2076 55.8523 97.428 56.0639C100.514 58.1796 103.82 58.6027 107.347 57.1217C109.111 56.2755 110.874 55.4292 112.637 54.3714C115.062 52.8904 117.487 51.621 120.132 50.5632C125.863 48.4476 131.815 48.0244 137.766 48.6591C142.395 49.0822 146.803 49.9285 150.771 52.0442C153.857 53.5251 156.282 55.6408 157.825 58.6027L158.266 58.3911Z" fill="#F7F6F7"/>
<path d="M122.116 175.387C124.54 179.195 127.185 183.003 129.61 187.023C129.831 187.446 130.051 187.869 129.61 188.504C128.067 192.1 127.185 195.697 125.863 199.294C125.202 198.447 124.54 197.601 123.879 196.755C121.013 192.735 118.148 191.677 113.078 192.947C113.078 189.35 113.078 185.753 114.18 182.368C114.842 179.83 116.385 177.925 118.809 176.868C119.911 176.445 120.793 176.021 121.895 175.598L122.116 175.387Z" fill="#79B630"/>
<path d="M242.909 253.243C242.909 249.012 243.35 244.569 242.909 240.338C242.248 229.336 240.484 218.758 237.839 208.18C236.296 202.044 233.651 196.544 229.463 191.889C229.022 191.254 228.581 190.831 228.141 190.197C230.786 189.773 232.77 190.62 234.533 192.524C236.296 194.428 237.399 196.544 238.28 198.871C241.366 208.18 244.232 217.7 245.334 227.644C246.216 235.472 246.216 243.3 245.995 251.128C245.995 253.243 245.554 253.666 243.13 253.455L242.909 253.243Z" fill="#F7F6F7"/>
<path d="M111.316 82.7211C111.756 84.8367 111.756 86.9524 111.756 89.0681C111.756 90.549 112.197 92.2415 112.418 93.7225C112.418 93.7225 112.418 93.9341 112.418 94.1456C111.756 95.2035 111.977 96.4729 112.197 97.5307C112.859 103.666 113.52 109.801 115.283 115.725C117.708 124.611 121.014 133.074 125.864 141.113C126.305 141.748 126.745 142.594 127.186 143.44C127.186 144.287 128.288 145.345 126.525 145.979C120.133 138.998 116.606 130.746 114.181 122.072C112.418 115.937 111.536 109.59 110.654 103.243C109.773 96.896 109.111 90.549 109.111 83.9905C109.111 83.5673 109.111 82.9327 109.111 82.5095C109.993 82.0864 110.434 82.7211 111.095 82.9327L111.316 82.7211Z" fill="#F7F6F7"/>
<path d="M165.1 178.349C166.643 179.195 167.745 180.676 168.847 181.946C170.61 184.061 171.933 186.6 173.476 188.927C173.917 189.562 174.137 190.197 174.578 190.62C175.239 190.197 175.46 189.562 175.9 188.927C177.884 185.965 180.089 182.792 182.734 180.253C185.82 177.08 189.567 175.176 193.535 173.272C194.857 172.637 196.4 172.002 197.943 171.579C199.486 170.944 199.486 170.944 198.825 169.675C197.061 165.867 195.298 162.27 193.535 158.462C193.094 157.404 192.432 156.558 192.873 155.5C194.637 156.769 195.959 158.673 197.061 160.366C198.604 162.693 200.147 165.232 201.69 167.771C202.572 169.04 203.233 170.31 204.335 171.579C203.013 172.637 201.25 173.06 199.707 173.483C196.621 174.541 193.535 175.387 190.449 176.868C188.244 177.926 186.481 179.195 184.938 181.099C182.513 183.638 180.529 186.6 178.766 189.562C177.664 191.255 176.562 192.947 175.239 194.428C174.578 194.216 174.358 193.582 174.137 193.159C171.712 188.927 169.067 184.696 165.761 180.888C165.1 180.253 165.1 179.618 165.32 178.772L165.1 178.349Z" fill="#F7F6F7"/>
<path d="M225.936 187.87C223.511 185.12 220.425 182.793 217.119 181.1C213.371 179.196 209.845 177.292 206.318 175.176C205.657 174.753 204.775 174.542 204.334 173.695C204.775 173.484 205.436 173.061 205.877 172.638C206.318 172.215 206.759 172.215 207.2 172.638C212.049 175.176 217.339 177.504 221.968 180.466C224.834 182.37 227.699 184.485 230.124 187.236C228.581 187.236 227.258 187.447 225.936 187.659V187.87Z" fill="#F7F6F7"/>
<path d="M64.5852 98.5894C63.7035 100.282 62.6013 101.551 61.0584 103.032C57.9724 101.128 56.4294 98.3778 56.209 94.7812C56.209 93.3002 56.4294 91.8193 56.6498 90.3383C56.6498 89.492 57.3111 89.0689 58.1928 89.2805C60.3971 89.7036 62.3809 90.3383 63.7035 92.2424C62.8218 94.5696 63.2626 96.6853 64.5852 98.5894Z" fill="#B2DCEE"/>
<path d="M122.116 175.387C122.116 175.387 120.132 176.234 119.03 176.657C116.606 177.715 115.063 179.619 114.401 182.158C113.52 185.543 113.299 189.139 113.299 192.736C118.148 191.255 121.014 192.313 124.1 196.544C124.761 197.39 125.423 198.237 126.084 199.083C126.084 199.718 126.084 200.564 125.423 201.198C124.1 199.718 123.218 198.237 121.675 196.967C120.573 195.909 119.471 194.851 117.928 194.428C115.944 193.582 114.842 194.217 113.96 195.909C113.299 197.179 112.858 198.66 111.977 200.141C111.977 199.718 111.977 199.294 111.977 198.871C111.977 194.005 111.977 188.928 112.417 184.062C112.417 183.215 112.638 182.158 112.858 181.311C113.079 179.619 113.96 178.349 115.503 177.292C117.046 176.445 118.589 175.387 119.912 174.33C120.794 173.695 121.234 173.695 121.675 174.753C121.675 174.753 121.675 175.176 121.896 175.387H122.116Z" fill="#F7F6F7"/>
<path d="M167.523 76.7977C167.523 76.7977 167.744 75.1052 168.185 74.2589C169.948 70.2392 169.948 66.0079 168.626 61.9881C168.626 61.565 168.405 61.1419 168.626 60.7188C171.271 64.3154 171.932 68.3351 171.491 72.3549C171.491 73.6243 170.83 74.8936 170.83 76.163C170.83 77.4324 169.948 77.8556 169.066 78.0671C168.185 78.2787 167.964 77.4324 167.523 76.7977Z" fill="#F7F6F7"/>
<path d="M136.002 161.213C134.238 161.001 133.357 159.52 132.255 158.251C129.83 155.712 127.846 152.75 126.523 149.577C126.744 148.519 127.405 147.672 128.507 146.826C130.932 151.692 133.136 156.558 136.002 161.213Z" fill="#F3C8D1"/>
<path d="M193.313 90.3379C197.281 94.1461 196.84 98.589 192.652 101.974C191.55 100.916 191.55 99.6468 192.211 98.3774C193.093 96.2617 193.093 94.1461 193.313 91.8189C193.313 91.3957 193.313 90.9726 193.313 90.3379Z" fill="#F7F6F7"/>
<path d="M180.087 59.0273C180.087 59.0273 180.969 59.662 181.189 60.2967C181.851 63.0471 182.292 65.7974 182.292 68.5478C182.292 71.0866 181.189 73.2022 179.206 75.1063C178.765 75.1063 178.544 75.1063 178.104 75.1063C180.969 71.2981 180.969 67.0668 180.528 62.624C180.528 61.5661 180.308 60.2967 180.087 59.2389V59.0273Z" fill="#F7F6F7"/>
<path d="M136.443 196.121C134.019 196.121 132.255 194.852 130.712 193.794C130.492 193.582 130.271 193.159 130.492 192.948C130.712 191.89 131.153 190.832 131.594 189.562C133.357 191.89 134.9 194.005 136.664 196.333L136.443 196.121Z" fill="#F7F6F7"/>
<path d="M205.216 228.278C205.216 228.278 205.877 228.278 206.318 228.278C207.42 227.432 208.522 226.586 209.404 225.951C210.065 225.528 210.726 224.893 212.049 224.682C211.388 226.374 210.065 227.009 208.963 228.067C207.861 229.125 206.759 230.182 205.657 231.029C204.775 230.817 204.554 230.394 204.775 229.548C204.995 229.125 205.877 229.125 205.216 228.49V228.278Z" fill="#3C3C3A"/>
<path d="M64.5846 98.5891C63.262 96.4735 63.0416 94.3578 63.7029 92.2422C65.4663 94.1463 65.9072 96.2619 64.5846 98.5891Z" fill="#F7F6F7"/>
<path d="M174.357 77.8555C174.798 80.1827 172.814 81.029 171.491 82.7215C171.271 80.6058 172.594 79.9711 173.034 78.7017C173.255 78.7017 173.475 78.7017 173.475 78.2786C173.696 77.8555 174.136 77.8555 174.357 77.8555Z" fill="#1B2529"/>
<path d="M130.052 66.643C130.052 66.643 129.611 66.4314 129.391 66.2199C130.713 65.3736 132.256 64.9505 133.799 64.5273C132.477 65.162 131.374 65.7967 130.052 66.4314V66.643Z" fill="#CAC4C4"/>
<path d="M178.105 74.8945C178.105 74.8945 178.766 74.8945 179.207 74.8945C178.986 75.3177 178.546 75.3177 178.105 75.3177C177.884 75.3177 177.884 75.1061 178.105 74.8945Z" fill="#EA882E"/>
<path d="M136.884 162.482C136.884 162.482 136.223 162.271 136.223 161.848C136.664 161.848 136.884 162.271 136.884 162.482Z" fill="#F3C8D1"/>
<path d="M205.217 228.279C205.217 228.279 205.217 229.126 204.776 229.337C204.336 228.702 204.776 228.491 205.217 228.279Z" fill="#FEFEFE"/>
<path d="M168.625 60.7187C168.625 60.7187 168.404 60.2955 168.404 60.084C168.404 60.084 168.404 60.5071 168.625 60.7187Z" fill="#F7F6F7"/>
<path d="M225.936 268.899C225.936 268.899 225.936 268.053 226.597 268.053C226.597 268.476 226.376 268.687 225.936 268.899Z" fill="#F3C8D1"/>
<path d="M137.326 162.906C137.326 162.906 136.885 162.906 136.885 162.482C137.105 162.482 137.326 162.694 137.326 162.906Z" fill="#F3C8D1"/>
<path d="M173.476 78.2793C173.476 78.2793 173.476 78.7024 173.035 78.7024C173.035 78.2793 173.256 78.2793 173.476 78.2793Z" fill="#EA882E"/>
<path d="M107.568 78.4902L107.348 78.7018V78.4902H107.568Z" fill="#EA882E"/>
<path d="M218.443 193.582C218.443 193.582 218.002 194.005 217.781 194.005C217.781 193.794 218.222 193.582 218.443 193.582Z" fill="#79B630"/>
<path d="M224.613 251.129C224.613 251.129 225.275 251.129 225.275 251.552C225.054 251.552 224.613 251.552 224.613 251.129Z" fill="#FEFEFE"/>
<path d="M137.765 163.329C137.765 163.329 137.324 163.329 137.324 162.906C137.545 162.906 137.765 163.118 137.765 163.329Z" fill="#F3C8D1"/>
<path d="M75.8262 262.764C75.8262 262.764 76.0466 262.764 76.267 262.975C76.267 262.975 76.0466 262.975 75.8262 262.764Z" fill="#F7F6F7"/>
<path d="M225.496 269.324C225.496 269.324 225.496 268.9 225.937 268.9C225.937 269.112 225.937 269.324 225.496 269.324Z" fill="#F3C8D1"/>
<path d="M225.055 269.745C225.055 269.745 225.055 269.322 225.496 269.322C225.496 269.534 225.496 269.745 225.055 269.745Z" fill="#F3C8D1"/>
<path d="M207.642 106.417C208.303 104.513 208.964 102.608 209.405 100.704C209.625 99.8581 210.066 99.6465 210.948 99.6465C216.899 99.435 222.19 101.127 226.819 104.724C231.007 108.109 232.329 112.129 230.786 117.206C230.125 119.111 229.243 121.015 227.921 122.496C226.157 124.823 223.953 125.881 220.867 126.304C217.781 126.727 214.475 126.939 211.389 127.573C207.862 128.208 205.878 130.112 205.217 133.497C205.217 134.132 204.996 134.555 204.776 135.401C203.013 134.766 201.249 134.132 199.706 133.497C199.045 133.285 199.045 132.862 199.045 132.228C199.706 128.631 200.147 125.034 201.47 121.861C202.351 119.745 203.674 119.111 206.099 119.322C206.98 119.322 207.862 119.534 208.744 119.745C209.625 119.745 210.728 120.168 211.609 120.38C214.034 120.803 216.459 120.38 217.781 118.053C219.104 115.726 218.663 113.61 217.12 111.706C215.136 109.167 212.491 107.474 209.185 107.051C208.744 107.051 208.082 107.051 207.642 107.051C207.642 107.051 207.421 106.84 207.201 106.628L207.642 106.417Z" fill="#26B8E9"/>
<path d="M208.082 106.841H207.861C207.861 106.841 207.861 106.63 207.861 106.418C207.861 106.418 208.082 106.63 208.302 106.841H208.082Z" fill="#26B8E9"/>
<path d="M76.2676 136.882C74.5042 136.882 73.1816 135.824 73.1816 134.132C73.1816 132.651 74.9451 131.17 76.7085 131.17C78.4719 131.17 80.0149 132.228 80.0149 133.497C80.0149 135.19 78.2514 136.882 76.2676 136.882Z" fill="#26B8E9"/>
<path d="M201.689 147.461C201.689 147.461 199.705 146.403 199.705 145.345C199.705 144.287 200.587 143.652 201.909 143.652C203.011 143.652 203.893 144.499 203.893 145.556C203.893 146.614 203.011 147.461 201.689 147.461Z" fill="#26B8E9"/>
<path d="M133.136 119.958C131.152 119.534 129.389 119.111 128.066 117.63C126.744 116.149 126.523 115.726 128.066 114.245C129.389 112.553 130.05 110.437 130.712 108.321C131.373 105.994 131.814 103.667 132.254 101.34C133.357 100.917 133.577 101.34 133.577 102.186C133.577 103.455 133.357 104.513 133.136 105.783C132.254 108.956 131.814 112.341 129.609 115.092C128.948 115.726 129.609 116.149 130.05 116.573C131.373 117.63 132.916 118.477 134.679 119.323C134.238 119.534 134.018 119.746 133.797 119.958H133.136Z" fill="#1B2529"/>
<path d="M183.836 114.457C183.174 116.572 182.072 117.419 180.309 117.63C179.868 117.63 179.207 117.63 178.986 116.995C178.986 116.572 179.427 116.361 179.868 116.149C182.072 115.091 182.072 115.091 181.411 112.764C180.97 111.706 180.529 110.437 180.529 109.167C180.529 108.11 180.75 107.263 181.411 106.417C182.513 104.725 183.615 104.301 185.599 105.148C185.599 105.571 185.599 105.994 184.938 105.994C183.836 105.994 183.174 106.84 182.954 108.11C184.056 108.533 185.158 108.744 186.04 109.167C186.701 109.167 187.142 109.591 186.922 110.437C185.599 110.437 184.056 110.437 182.734 110.437C183.174 111.918 183.615 113.399 183.836 114.88V114.457Z" fill="#1B2529"/>
<path d="M141.514 105.782C141.514 104.513 141.514 102.82 142.616 101.551C143.057 100.705 143.718 99.8584 144.82 100.07C145.922 100.282 146.143 101.128 146.363 101.974C146.583 103.878 146.363 105.782 145.481 107.686C145.04 108.533 144.379 109.59 143.057 109.379C141.734 109.167 141.734 108.109 141.514 107.052C141.514 106.84 141.514 106.417 141.514 105.994V105.782Z" fill="#1A1B1D"/>
<path d="M151.872 96.2625C151.872 96.2625 150.77 97.3203 150.109 97.5319C146.362 98.8013 142.614 98.8013 138.867 98.3782C138.426 98.3782 138.206 98.3782 137.765 97.955C137.324 97.955 137.324 97.5319 137.324 97.1088C137.324 96.6856 137.765 96.4741 137.986 96.4741C137.986 96.4741 138.426 96.4741 138.647 96.4741C142.614 96.6856 146.582 96.4741 150.55 96.0509C150.991 96.0509 151.431 95.8394 151.872 96.2625Z" fill="#1B2529"/>
<path d="M135.782 134.555C134.46 133.92 133.137 133.497 132.035 132.439C131.374 131.804 130.492 130.958 130.712 129.9C130.933 128.631 132.255 128.842 133.137 128.631C135.121 128.631 136.664 129.689 138.207 130.747C138.648 130.958 138.868 131.381 139.088 131.593C139.529 132.227 139.97 133.074 139.529 133.92C139.088 134.766 138.207 134.766 137.105 134.766C136.664 134.766 136.002 134.766 135.562 134.766L135.782 134.555ZM138.207 133.285C137.105 130.535 134.9 129.477 132.696 130.535C134.019 132.227 136.002 132.862 138.207 133.285Z" fill="#1B2529"/>
<path d="M186.921 110.014C186.921 110.014 186.48 108.956 186.039 108.744C184.937 108.321 184.055 108.11 182.953 107.687C183.174 106.417 183.835 105.782 184.937 105.571C185.598 105.571 185.598 105.148 185.598 104.725C185.598 104.725 186.039 104.725 186.26 104.725C187.362 104.302 187.803 104.725 187.803 105.782C187.803 106.629 187.803 107.687 187.803 108.533C187.803 109.168 187.802 109.802 186.921 110.014Z" fill="#F3C8D1"/>
<path d="M183.835 114.457C183.394 112.976 182.953 111.495 182.732 110.014C184.275 110.014 185.598 110.225 186.921 110.014C186.259 111.706 184.937 112.976 183.835 114.245V114.457Z" fill="#F3C8D1"/>
<path d="M112.418 94.1457C112.418 94.1457 112.418 93.9342 112.418 93.7226C115.724 88.2219 123.439 87.7988 127.187 92.8764C127.627 93.511 128.509 94.3573 127.627 95.2036C126.525 96.0498 126.084 94.7804 125.644 94.3573C122.998 91.607 120.574 90.9723 117.047 92.2417C115.504 92.6648 114.181 93.7226 112.638 94.3573L112.418 94.1457Z" fill="#1A1B1D"/>
<path d="M121.014 105.571C121.014 106.84 121.014 108.109 120.132 108.956C119.471 110.013 118.148 110.013 117.487 108.744C116.605 106.84 116.385 104.936 116.826 103.032C116.826 102.397 117.046 101.551 117.928 101.551C118.81 101.551 119.912 101.551 120.353 102.609C120.794 103.455 121.014 104.513 120.794 105.359L121.014 105.571Z" fill="#1A1B1D"/>
<path d="M138.206 133.287C135.781 132.864 134.018 132.229 132.695 130.536C134.9 129.479 137.324 130.536 138.206 133.287Z" fill="#F7F6F7"/>
<path d="M298.015 132.651C292.064 100.07 274.871 69.3925 249.742 46.9666C223.732 23.6944 189.345 10.1542 154.077 8.88477L159.367 14.597C174.356 15.0202 189.345 17.9821 203.452 23.0597C247.317 39.1386 281.924 76.1626 292.284 120.38C294.709 131.381 295.811 142.594 295.591 153.596C294.488 191.466 277.736 228.913 248.64 254.936C248.199 255.147 247.758 255.57 247.317 255.993C244.672 258.321 241.807 260.648 238.721 262.763C205.877 287.094 162.894 297.249 121.674 289.844C73.8419 281.381 30.8588 249.646 12.343 205.852C-2.20516 171.579 -1.76431 132.228 13.886 98.377C29.5362 64.7381 58.8529 39.1386 93.6802 25.3869L98.3092 16.5011C52.2401 32.157 17.6332 71.5082 5.06891 116.783C2.86464 124.611 1.54209 132.862 0.660382 140.902C-1.10303 161.212 1.32166 181.734 7.93445 200.986C23.3643 245.204 61.2776 282.227 108.228 294.921C157.383 308.038 212.49 295.768 250.403 262.975C282.365 235.472 300.44 194.851 299.999 153.596C299.779 146.614 299.117 139.632 298.015 132.651Z" fill="black"/>
</g>
<path d="M150.238 334.296C168.49 334.296 183.286 319.057 183.286 300.258C183.286 281.46 168.49 266.221 150.238 266.221C131.986 266.221 117.189 281.46 117.189 300.258C117.189 319.057 131.986 334.296 150.238 334.296Z" fill="white"/>
<path d="M169.999 272.714C176.939 278.048 182.416 285.83 184.283 295.012C186.3 304.106 183.986 314.25 178.277 321.617C172.567 329.05 163.97 333.509 155.225 334.646C146.48 335.892 137.311 333.837 129.861 328.634C122.368 323.541 116.934 314.993 115.491 305.637C113.92 296.302 116.149 286.246 121.752 278.594C127.292 270.943 136.037 265.784 145.101 265.128C154.164 264.319 163.037 267.402 169.999 272.714ZM169.744 273.064C162.803 267.708 153.612 266.177 145.546 268.079C137.481 270.003 130.264 274.725 125.552 281.458C120.818 288.126 118.526 296.652 119.609 304.959C120.67 313.244 124.83 321.136 131.304 326.601C137.757 332.067 146.629 334.646 155.013 333.16C163.419 331.717 170.763 326.295 175.305 319.343C179.953 312.392 182.14 303.953 181.524 295.406C180.887 286.902 176.77 278.288 169.744 273.064Z" fill="black"/>
<path d="M167.352 290.353L156.569 301.313C156.569 301.313 167.004 311.644 167.352 311.644C167.7 311.644 160.569 318.381 160.569 318.381L150.048 306.613L140.917 318.381C140.917 318.381 134.395 312.003 134.395 311.644C134.395 311.284 144.569 301.223 144.308 301.313C144.048 301.403 133.004 290.353 133.004 290.353L139.439 283.705L150.221 294.216L161.178 283.705L167.352 290.353Z" fill="#FC4E58"/>
<path d="M167.527 290.353C164.484 294.036 161.093 298.168 157.44 302.211V300.414C158.919 301.762 160.397 303.199 161.962 304.547C163.44 305.894 164.919 307.331 166.397 308.679L167.527 309.667C167.701 309.847 167.875 310.026 168.049 310.116H168.136C167.962 310.116 167.614 309.937 167.44 310.026C167.527 310.026 167.18 310.026 167.701 310.026C168.049 310.026 168.571 310.386 168.745 310.745C169.006 311.194 168.919 311.194 169.006 311.374C169.006 311.554 169.006 311.733 169.006 311.823C169.006 311.913 168.919 312.183 168.919 312.183V312.362L168.745 312.452V312.632V312.811C168.658 312.811 168.484 312.991 168.484 312.991C167.701 313.8 167.006 314.518 166.223 315.237C164.745 316.674 163.266 318.022 161.701 319.369C161.093 319.908 160.223 319.908 159.701 319.369C158.049 317.303 156.31 315.237 154.745 313.171C153.092 311.105 151.44 309.038 149.788 306.972H150.832C149.266 308.859 147.701 310.745 146.136 312.722C144.658 314.698 143.092 316.674 141.614 318.651C141.44 318.92 141.005 319.01 140.744 318.74C139.527 317.573 138.31 316.495 137.092 315.417L135.266 313.71C135.005 313.44 134.657 313.171 134.397 312.811C134.397 312.811 134.223 312.632 134.136 312.542V312.362C133.962 312.362 133.962 312.362 133.788 312.003C133.788 311.913 133.701 311.733 133.701 311.554C133.701 311.554 133.701 311.464 133.701 311.374C133.701 311.194 133.788 311.015 133.788 311.015V310.835L134.049 310.655L134.223 310.386C136.397 307.781 138.571 305.355 140.831 302.93L142.484 301.133C142.745 300.863 143.005 300.504 143.266 300.234V300.324C143.266 300.324 143.266 300.504 143.179 300.504C143.179 300.594 143.179 300.684 143.179 300.774C143.353 300.504 142.571 301.402 144.136 302.57C145.527 302.75 144.484 302.57 144.745 302.57C144.745 302.57 144.658 302.57 144.571 302.57C144.484 302.57 144.31 302.57 144.223 302.57C144.136 302.57 143.962 302.57 143.875 302.48C143.875 302.48 143.788 302.48 143.701 302.48L143.44 302.301H143.266C143.266 302.211 142.745 301.762 142.745 301.762C141.44 300.594 140.31 299.516 139.092 298.348L131.962 291.521C131.266 290.802 131.179 289.634 131.875 288.915C132.918 287.747 133.962 286.669 135.092 285.591C136.136 284.513 137.179 283.346 138.31 282.268C139.005 281.549 140.136 281.549 140.831 282.268L146.136 287.568L151.44 292.958H149.353L155.092 287.927C157.006 286.22 158.919 284.603 160.832 282.986C161.179 282.627 161.614 282.717 161.962 282.986C163.006 284.244 163.962 285.502 164.919 286.669L167.701 290.173L167.527 290.353ZM167.18 290.353L163.788 287.208C162.658 286.22 161.614 285.232 160.571 284.334H161.788C160.049 286.22 158.31 288.107 156.571 289.903L151.266 295.383C150.745 295.922 149.788 296.012 149.266 295.383L143.701 290.173L138.223 284.963H140.831C139.788 286.041 138.744 287.119 137.614 288.197C136.571 289.275 135.527 290.442 134.397 291.521V288.825L141.266 295.833C142.397 297 143.614 298.168 144.745 299.246L145.179 299.606C145.179 299.695 145.179 299.606 145.179 299.695C145.179 299.695 145.179 299.695 145.092 299.695C145.005 299.695 144.918 299.695 144.831 299.606C144.745 299.606 144.658 299.606 144.484 299.606C144.484 299.606 144.397 299.606 144.31 299.606C144.571 299.606 143.527 299.606 144.918 299.695C146.571 300.863 145.701 301.762 145.875 301.492C145.875 301.582 145.875 301.672 145.788 301.762L145.701 302.031L145.614 302.211L145.44 302.391C145.092 302.75 144.831 303.019 144.484 303.289L142.745 304.996C140.397 307.242 137.875 309.487 135.614 311.733L135.44 311.913C135.44 311.913 135.527 311.644 135.527 311.554V311.374C135.527 311.284 135.527 311.194 135.527 311.105C135.353 310.835 135.527 311.015 135.527 311.015C135.527 311.194 135.614 311.284 135.701 311.374C135.962 311.644 136.223 312.003 136.484 312.272L138.136 314.069C139.266 315.237 140.31 316.495 141.527 317.662H140.658C142.223 315.776 143.788 313.8 145.266 311.913C146.745 309.937 148.223 307.96 149.701 305.894C149.875 305.625 150.31 305.535 150.571 305.714C152.397 307.691 154.223 309.487 156.136 311.374C158.049 313.261 159.875 315.147 161.701 317.034H159.701C161.093 315.506 162.571 314.069 164.049 312.632L166.136 310.565C166.136 310.476 166.136 310.476 166.136 310.565C166.136 310.655 166.136 310.745 166.136 310.745C166.136 310.745 166.136 310.925 166.049 311.105C166.049 311.284 166.049 311.464 166.049 311.554C166.049 311.733 166.049 311.733 166.31 312.183C166.484 312.542 167.006 312.901 167.353 312.901C167.788 312.901 167.44 312.901 167.527 312.901C167.18 312.901 166.745 312.722 166.484 312.452L166.31 312.272C166.049 312.093 165.875 311.913 165.701 311.733L164.571 310.655C163.093 309.218 161.701 307.781 160.223 306.253C158.832 304.816 157.353 303.289 155.962 301.762C155.527 301.223 155.527 300.504 155.962 300.055C159.44 296.731 163.266 293.587 167.353 289.903L167.18 290.353Z" fill="black"/>
<defs>
<linearGradient id="paint0_linear_2560_123368" x1="1.10156" y1="151.27" x2="298.677" y2="151.27" gradientUnits="userSpaceOnUse">
<stop stop-color="#EE882B"/>
<stop offset="0.17" stop-color="#EF8F29"/>
<stop offset="0.43" stop-color="#F2A525"/>
<stop offset="0.74" stop-color="#F8C81F"/>
<stop offset="1" stop-color="#FEEB1A"/>
</linearGradient>
<clipPath id="clip0_2560_123368">
<rect width="300" height="300" fill="white"/>
</clipPath>
</defs>
</svg>
