<svg width="168" height="168" viewBox="0 0 168 168" fill="none" xmlns="http://www.w3.org/2000/svg">
<g filter="url(#filter0_d_2637_23829)">
<mask id="mask0_2637_23829" style="mask-type:luminance" maskUnits="userSpaceOnUse" x="8" y="0" width="160" height="160">
<path d="M88 160C132.183 160 168 124.183 168 80C168 35.8172 132.183 0 88 0C66.9425 0 47.7852 8.13578 33.5 21.4355C17.812 36.0412 8 56.8747 8 80C8 124.183 43.8172 160 88 160Z" fill="white"/>
</mask>
<g mask="url(#mask0_2637_23829)">
<path d="M216.752 -47.8262H-23.6934V237.167H216.752V-47.8262Z" fill="url(#paint0_linear_2637_23829)" stroke="black" stroke-width="4" stroke-linecap="round" stroke-linejoin="round"/>
<path d="M32.8153 63.9361L17.3691 65.3664L47.5527 31.5518L65.1401 69.1789L48.5027 64.8929C48.5027 64.8929 34.0065 98.7026 67.2764 127.279C67.2764 127.279 27.8241 112.513 32.8153 63.9361Z" fill="#ABF853"/>
<path d="M32.8679 63.8825C28.2508 64.2179 21.8961 64.6273 17.3332 64.9923L17.6482 65.6137C27.5715 54.7976 38.3022 42.9309 48.0385 31.9865L46.9605 31.8287C52.5473 43.5819 59.3746 57.5053 64.9269 69.2734L65.1976 68.9478C60.3886 67.6951 53.4432 65.9244 48.5701 64.6224C46.926 66.8517 46.6061 70.4176 45.8727 73.1944C41.5755 93.6873 50.9574 114.817 66.7629 127.877L67.5505 126.54C42.8061 115.936 30.1804 90.1313 32.8679 63.8825ZM32.7646 63.9861C28.9252 88.3557 40.3745 114.328 62.5445 125.884C63.6077 126.397 69.1306 129.835 67.7917 126.683C49.909 112.277 40.5812 87.0783 48.7522 64.9972L48.4372 65.155C53.389 66.1661 60.6248 68.6864 65.365 69.2388C65.4733 69.0563 61.0186 59.8136 61.0137 59.6459C57.2038 51.2169 52.0059 39.6806 48.1468 31.2763C47.3346 29.2985 40.8372 38.6893 39.5278 39.5771C32.5234 47.4734 23.998 57.1354 17.087 65.1156C15.6596 66.7678 31.4897 63.7839 32.7597 63.9861H32.7646Z" fill="black"/>
<path d="M141.071 35.4813C140.772 37.8516 139.172 38.3993 139.172 38.3993C139.095 41.7194 133.661 55.7188 132.506 59.0389C127.697 56.6686 122.588 59.5352 119.105 61.9825C118.601 61.6488 75.7211 35.3444 75.2162 35.0706C74.6686 35.0192 73.2139 33.2137 72.8117 32.9228C72.4352 32.4436 71.5709 27.8741 73.7016 27.6858C66.9672 12.8308 87.4357 12.5313 99.1161 10.623C118.387 10.9225 138.504 16.1424 141.063 35.4813H141.071Z" fill="#635A55"/>
<path d="M130.847 18.4018C114.786 13.3617 97.5946 14.4998 81.225 17.5461C70.5115 19.403 77.2802 28.2082 82.2689 32.4611L75.2179 35.071C74.7302 35.0282 73.1814 33.2056 72.8134 32.9232C72.3085 32.4868 71.7438 27.7205 73.7033 27.6863C67.0288 12.7028 87.3433 12.6002 99.1178 10.6235C114.88 10.5293 119.578 13.2248 130.839 18.4018H130.847Z" fill="white"/>
<path d="M133.78 72.5512C131.923 74.9215 119.061 76.3335 119.061 76.3335L116.64 96.6907L96.2311 107.319C94.5111 105.419 90.0957 100.533 88.4356 98.6931L89.2913 88.6642L83.772 86.7046C83.4554 86.4051 76.3274 80.9885 76.1734 77.3346C74.3764 68.093 75.215 37.0651 75.215 37.0651L84.2683 24.9141C91.8841 28.8845 111.737 36.6544 120.182 39.5295C120.182 39.6664 115.784 59.4589 115.784 59.4589L118.924 61.9747C119.669 60.4687 129.655 56.5324 132.222 58.8942C135.79 62.3427 138.674 66.818 133.788 72.5427L133.78 72.5512Z" fill="white"/>
<path d="M96.6084 88.5436C95.0681 93.0104 93.1941 97.366 91.012 101.55L88.4278 98.6923L89.2835 88.6634C84.1407 87.3457 78.8781 84.3079 76.1655 77.3424C74.3686 68.1008 75.2072 37.0729 75.2072 37.0729L84.2605 24.9219C84.2605 24.9219 87.7347 26.522 91.0891 28.0623C89.8825 40.4187 87.3668 52.6468 83.6102 64.4812C85.159 65.2428 86.8704 65.6449 88.5904 65.6535C88.6161 68.8538 88.6417 72.0542 88.6674 75.2545C89.8739 75.3658 91.0891 75.4856 92.3042 75.5968C92.0902 79.8582 92.3726 84.1453 93.1428 88.3383C94.298 88.4067 95.4532 88.4752 96.5998 88.5436H96.6084Z" fill="#F4C6CC"/>
<path d="M164.929 166.842C167.445 152.612 173.033 111.179 151.589 117.631C150.699 115.714 132.404 108.124 130.341 107.045L121.416 96.6914L108.247 116.912L95.7194 107.773L83.6283 111.23L81.3949 96.9396L68.2171 106.053C67.31 106.224 55.9291 108.312 55.4499 108.406C52.8999 105.248 47.2437 108.56 44.6338 109.852C44.6338 109.852 41.0227 114.156 40.9542 114.268C40.8858 114.37 37.8138 120.925 36.9838 122.671L36.5046 122.636C32.9705 130.826 27.0405 157.789 25.0039 166.825H164.938L164.929 166.842Z" fill="#282F39"/>
<path d="M28.1525 166.841C30.6597 154.262 33.8172 140.28 35.9308 134.042C40.0125 122.045 51.188 110.331 51.188 110.331L56.9898 108.131L55.4324 108.422C52.8824 105.265 47.2261 108.576 44.6162 109.868C44.6162 109.868 41.0052 114.173 40.9367 114.284C40.8682 114.387 37.7963 120.941 36.9662 122.687L36.487 122.653C32.953 130.842 27.0229 157.805 24.9863 166.841H28.1525Z" fill="#5E6F84"/>
<path d="M77.1662 166.841H78.0562C72.2716 156.316 61.8662 137.388 61.8662 137.191C61.8662 136.917 68.4979 124.475 68.4979 124.475L61.5068 118.015L78.3214 100.225L68.9686 105.539L55.2516 117.022L63.646 126.058L55.166 134.496L77.1662 166.841Z" fill="#5E6F84"/>
<path d="M118.199 89.2539C119.782 89.9813 121.75 95.7573 121.254 97.3746L117.899 108.054L112.637 118.014L99.3477 156.47L95.6425 122.353C95.6425 122.353 101.727 114.831 101.393 114.959C101.059 115.088 96.6608 109.081 96.6608 109.081L88.7455 112.521L90.5083 121.377L82.7556 145.063L81.1297 116.405L77.9551 117.013L82.0197 97.7939C82.4048 96.1167 86.2725 91.4702 89.0108 91.9066L88.4289 98.6923L96.9089 108.079C96.9089 108.079 116.094 96.5616 116.094 96.5017" fill="white"/>
<path d="M91.8317 70.7879C91.6948 71.481 91.8488 72.1741 92.1826 72.7645C89.5384 74.9295 86.0215 74.5358 82.7441 75.0664C85.722 76.8291 91.0188 76.6751 92.4992 73.2352C93.064 73.9026 93.894 74.339 94.8011 74.3134C94.4331 72.6447 93.3977 71.4382 91.8232 70.7793L91.8317 70.7879Z" fill="black"/>
<path d="M87.5173 65.731C86.5503 65.2176 85.1726 64.8154 84.5736 63.9683C86.2252 61.153 87.7055 58.081 88.4158 54.8379C86.0112 57.9099 78.9859 66.6809 87.5173 65.731Z" fill="black"/>
<path d="M95.7168 43.8489C97.9245 41.6668 102.049 43.1215 104.804 43.8232C103.41 40.717 95.9307 39.8099 95.7168 43.8489Z" fill="black"/>
<path d="M83.7623 42.0352C83.4029 38.3642 77.3102 38.1503 76.6855 41.787C78.996 40.3494 81.5545 40.4436 83.7623 42.0352Z" fill="black"/>
<path d="M122.789 71.6431C126.503 71.7458 126.922 67.9635 125.485 65.3964C127.786 65.6018 131.235 66.1922 130.49 63.377C130.49 65.9441 125.519 63.3513 123.73 63.6679C122.549 66.7228 127.795 69.1102 122.789 71.6431Z" fill="black"/>
<path d="M99.5082 55.0513C99.4655 60.4765 102.657 60.4765 102.623 55.0513C102.666 49.6261 99.474 49.6261 99.5082 55.0513Z" fill="black"/>
<path d="M79.1489 51.7232C79.1061 57.1484 82.2979 57.1484 82.2636 51.7232C82.3064 46.298 79.1146 46.298 79.1489 51.7232Z" fill="black"/>
<path d="M58.467 140.22C64.1147 148.957 70.4298 158.361 76.4112 166.849H77.8916C70.9347 155.956 63.3445 144.678 55.8314 134.144C58.4756 131.483 61.094 128.805 63.6526 126.066C60.555 128.659 57.5258 131.312 54.5137 133.999C55.8058 136.087 57.1492 138.149 58.467 140.228V140.22Z" fill="black"/>
<path d="M162.222 118.947C159.612 116.123 155.573 115.618 152.544 117.423C145.536 113.025 137.989 109.423 130.15 106.787C127.215 103.356 124.255 99.9327 121.345 96.6126C121.157 93.9171 120.156 91.4099 117.982 89.2279C118.675 84.53 119.488 79.0107 119.788 76.9742C129.765 78.4545 143.953 68.0834 133.993 59.1926C137.176 52.7577 138.271 45.5441 138.921 38.4674C139.495 38.2021 139.923 37.8342 140.239 37.4063C139.897 37.7914 139.469 38.1251 138.921 38.4075C138.921 38.3818 138.921 38.3561 138.921 38.3305C137.287 37.6801 135.473 37.1667 133.607 36.833C135.131 32.3405 132.889 26.6586 128.559 24.6392C131.237 28.2759 132.743 32.3405 133.299 36.7816C132.213 36.6019 131.1 36.4821 129.988 36.4479C130.33 34.8477 129.457 33.0764 127.9 32.4518C127.754 33.9492 128.191 35.3355 129.141 36.4308C128.165 36.4308 127.198 36.4907 126.257 36.6276C125.829 32.3576 122.997 28.2845 119.095 26.5046C121.516 29.8846 123.698 33.1962 125.915 36.6875C124.871 36.8501 123.861 37.0982 122.885 37.4491C122.517 34.2231 119.24 31.8784 116.16 31.4848C118.111 33.7439 120.515 35.3868 122.535 37.5689C121.422 37.9967 120.361 38.5615 119.403 39.2717C119.403 39.2717 119.403 39.2803 119.403 39.2889C106.268 32.0838 90.5996 30.1071 79.1331 20.0183C80.6306 21.7982 82.2822 23.3642 84.0449 24.759C80.7676 27.4887 78.0978 30.9029 76.2066 34.7279C76.1125 34.437 76.0184 34.1632 75.9671 34.0091C73.9904 33.7182 72.3816 31.656 72.6726 29.6707C72.6982 29.6536 72.6982 29.6108 72.7154 29.5937C73.6053 29.106 75.4536 30.2697 76.3607 30.5521C75.5221 28.0534 72.5186 24.0316 72.7496 21.3019C77.2421 10.7853 101.501 10.6313 111.419 12.0261C122.252 14.0626 134.78 17.862 139.289 28.9605C140.479 31.2709 141.839 35.2242 140.222 37.4063C143.251 34.0091 138.913 27.095 136.893 23.7064C131.46 15.6286 120.669 12.8818 111.624 10.8024C102.52 8.79148 67.5555 9.63008 71.68 24.391L71.6372 24.314L73.2973 27.8481C69.4124 27.7026 71.0724 34.3514 74.7349 35.3526L74.906 35.8746C74.752 49.7199 70.5162 73.1492 79.33 84.1621C82.1025 86.7549 85.5681 88.2181 89.222 88.7401C89.0765 89.7926 88.9396 90.8452 88.8027 91.8977C85.9361 92.1373 83.9337 93.6347 82.479 95.851C77.8667 98.9316 73.3315 102.149 68.8647 105.469C64.5434 106.393 59.914 107.446 55.49 108.49C53.0769 105.726 48.1908 107.386 45.2301 109.209C32.4972 120.803 27.9961 150.171 24 166.84H25.3435C29.0144 150.565 33.3187 120.992 45.4098 109.491C48.2678 107.66 52.9828 105.906 55.4301 108.498C53.8043 108.883 52.2041 109.26 50.6638 109.636C46.9415 125.065 44.323 141.007 45.5125 156.914C45.7435 160.226 46.0259 163.546 46.4966 166.84H46.9672C45.4611 147.964 47.8143 129.112 51.7163 110.663C53.1368 110.261 54.6086 109.85 56.1061 109.423C56.2345 109.654 56.3542 109.893 56.4569 110.167C56.3628 109.893 56.2516 109.654 56.1232 109.423C60.2221 108.25 64.492 107.001 68.4711 105.777C63.6278 109.388 58.8615 113.111 54.1893 116.884C57.2185 119.973 60.4189 123.14 63.6192 126.057C61.2318 123.028 58.6219 119.956 56.0719 117.038C64.8771 110.663 73.6053 103.989 81.8629 96.8864C78.6283 102.919 78.577 112.905 76.8827 118.279C78.2689 117.654 79.6637 117.013 81.05 116.371C80.6564 126.965 80.9216 137.55 81.7602 148.118C82.3164 154.45 83.0266 160.868 85.3542 166.84H86.5436C84.5755 159.798 83.6256 152.542 83.0437 145.208C86.4238 137.55 88.9909 129.489 90.6767 121.283C90.7195 121.437 90.7622 121.591 90.805 121.745C91.1901 121.882 91.5922 122.01 91.9773 122.138C90.7622 123.696 90.1804 125.698 90.4627 127.683C91.9517 126.331 92.7902 124.406 92.8416 122.429C92.9015 122.446 92.9614 122.464 93.0299 122.489C92.679 123.576 92.6533 124.8 93.9626 125.373C94.3219 124.74 94.5359 123.696 94.3391 122.9C94.4589 122.934 94.5787 122.977 94.707 123.011C94.9124 122.789 95.1178 122.558 95.3231 122.335C95.5799 133.887 96.8377 145.525 99.0283 156.871C97.9245 160.2 96.8377 163.529 95.7681 166.84H96.9404C103.05 150.411 108.929 133.468 113.841 116.619C117.743 110.21 121.73 102.919 121.302 96.6212C126.676 103.706 132.435 111.065 137.954 118.014C134.343 121.36 130.775 124.74 127.181 128.103C127.181 128.103 133.59 135.427 133.796 135.658C125.743 145.097 115.484 157.282 107.671 166.858H108.852C117.178 157.513 127.78 145.208 135.935 135.641L135.464 135.111L129.337 128.197C132.786 124.842 136.26 121.505 139.683 118.125C136.671 114.531 133.573 110.86 130.45 107.206C137.27 111.485 144.603 114.985 152.219 117.595C151.406 118.125 150.679 118.818 150.08 119.691C139.46 133.066 139.418 150.625 137.706 166.849H138.108C140.017 155.134 139.846 142.427 144.689 131.508C148.668 122.181 156.557 109.825 164.148 124.243C168.563 137.892 166.141 152.824 164.798 166.849H166.424C167.288 152.011 172.183 131.363 162.171 118.955L162.222 118.947ZM120.293 39.828C120.293 39.828 120.31 39.8108 120.31 39.8023C125.307 36.7816 132.11 37.3122 137.509 39.1776C136.748 45.9291 135.618 52.9887 132.427 59.0129C127.943 56.7538 122.663 58.9615 118.915 61.8367L115.834 59.2183C117.417 52.8604 119.779 46.1687 120.301 39.828H120.293ZM89.2904 88.7572C95.4857 89.6215 102.212 87.7732 107.029 84.0508C96.9575 91.6153 77.7298 89.6386 76.1553 74.9718C74.8375 61.9736 75.4964 48.6845 76.5404 35.6607C76.5062 35.5494 76.4463 35.3868 76.3864 35.1986C79.6979 32.3662 82.3934 28.8407 84.2332 24.8959C94.1594 32.6571 107.705 35.0617 119.411 39.3659C118.658 46.0917 116.673 52.7919 115.141 59.4322C115.235 59.5092 118.795 62.3758 118.889 62.4443C122.552 59.398 127.78 56.9164 132.401 59.0214C132.29 59.2268 132.187 59.4322 132.076 59.629C136.902 61.8282 136.551 68.6481 132.752 71.6859C128.918 75.22 123.339 75.2799 118.393 75.2456L118.299 75.9216L115.475 95.8425L96.7949 107.395C94.1765 104.459 91.5238 101.55 88.8626 98.6577C88.9824 96.4329 89.2562 89.7841 89.2904 88.7401V88.7572ZM79.1674 115.498C80.5879 109.371 80.1429 100.078 83.8909 95.1579C84.2247 94.8584 84.4899 94.5504 84.2845 94.6873C85.4055 93.3952 86.8773 92.471 88.8198 92.0688C88.5203 94.3707 88.2379 96.6639 87.9726 98.9658C90.4627 102.004 92.9699 105.033 95.5114 108.036C90.1033 110.441 84.5584 112.982 79.176 115.498H79.1674ZM82.9924 144.121C82.2907 134.846 82.1196 125.484 81.1954 116.328C83.7454 115.156 86.304 113.975 88.854 112.785C89.2305 115.481 89.8466 118.142 90.5654 120.761C87.2453 128.248 84.6867 136.112 82.9838 144.121H82.9924ZM94.2792 121.171C93.5604 120.94 92.8501 120.709 92.1313 120.487C91.2585 117.834 90.2916 115.199 89.085 112.674C91.558 111.519 94.0225 110.355 96.4527 109.191L100.894 115.344C98.5406 117.115 96.3671 119.109 94.2792 121.18V121.171ZM99.2765 156.23C98.9599 144.832 97.702 133.357 95.5114 122.181C97.4709 120.059 99.345 117.86 101.005 115.498L107.988 125.159L108.433 125.775C109.665 123.371 111.487 120.53 113.37 117.458C108.279 130.139 103.606 143.197 99.2765 156.238V156.23ZM108.347 123.867L97.6934 108.601C97.6934 108.601 97.7704 108.567 97.8132 108.541C97.7876 108.507 97.7619 108.481 97.7362 108.456C101.262 106.308 116.605 96.9378 116.861 96.7752C116.887 96.5869 117.383 93.2155 117.965 89.2621C127.018 99.3166 113.618 114.189 108.338 123.867H108.347Z" fill="black"/>
</g>
</g>
<defs>
<filter id="filter0_d_2637_23829" x="0" y="0" width="168" height="168" filterUnits="userSpaceOnUse" color-interpolation-filters="sRGB">
<feFlood flood-opacity="0" result="BackgroundImageFix"/>
<feColorMatrix in="SourceAlpha" type="matrix" values="0 0 0 0 0 0 0 0 0 0 0 0 0 0 0 0 0 0 127 0" result="hardAlpha"/>
<feOffset dx="-8" dy="8"/>
<feComposite in2="hardAlpha" operator="out"/>
<feColorMatrix type="matrix" values="0 0 0 0 0 0 0 0 0 0 0 0 0 0 0 0 0 0 1 0"/>
<feBlend mode="normal" in2="BackgroundImageFix" result="effect1_dropShadow_2637_23829"/>
<feBlend mode="normal" in="SourceGraphic" in2="effect1_dropShadow_2637_23829" result="shape"/>
</filter>
<linearGradient id="paint0_linear_2637_23829" x1="-23.6934" y1="94.666" x2="216.743" y2="94.666" gradientUnits="userSpaceOnUse">
<stop stop-color="#0ABBEF"/>
<stop offset="0.24" stop-color="#0D9ACF"/>
<stop offset="0.76" stop-color="#14598E"/>
<stop offset="1" stop-color="#174075"/>
</linearGradient>
</defs>
</svg>
