<svg width="165" height="179" viewBox="0 0 165 179" fill="none" xmlns="http://www.w3.org/2000/svg">
<g filter="url(#filter0_d_2637_15933)">
<ellipse cx="85" cy="94.2432" rx="80" ry="79.7568" fill="url(#paint0_linear_2637_15933)"/>
</g>
<mask id="mask0_2637_15933" style="mask-type:alpha" maskUnits="userSpaceOnUse" x="5" y="0" width="160" height="174">
<path d="M165 94.2432C165 138.292 129.183 174 85 174C40.8172 174 5 138.292 5 94.2432C5 50.1947 40.6228 0 84.8056 0C128.988 0 165 50.1947 165 94.2432Z" fill="#AFE8F9"/>
</mask>
<g mask="url(#mask0_2637_15933)">
<path d="M97.0381 71.2263C96.5307 71.2263 72.9726 71.2263 72.9726 71.2263L86.745 155.075L91.5291 154.206L103.634 153.482" fill="#76B82A"/>
<path d="M57.0257 282.08C56.5907 282.297 56.3733 282.37 56.4458 282.297C56.5907 282.007 56.9532 280.27 57.3156 277.808L56.8082 278.097C56.8082 277.88 57.5331 269.626 57.5331 269.626L61.0849 221.691L61.4473 221.619V216.116L63.4769 184.618L64.4193 183.242L85.1503 154.206L102.475 153.482L109.143 182.88C109.143 182.88 108.998 183.315 108.708 183.966C110.81 183.604 114.87 182.373 117.769 181.504C119.799 180.853 121.321 180.418 121.321 180.418L124.075 217.057C124.075 217.057 125.888 241.024 126.105 243.559C126.323 246.093 128.715 272.956 128.715 272.956C128.715 272.956 131.614 295.475 131.687 296.055C131.687 296.272 132.121 298.155 132.556 300.616C133.644 306.047 135.311 314.302 135.311 314.302L136.543 320.529L138.5 328.059L138.21 328.204C138.21 328.204 137.993 328.276 137.703 328.059C137.413 327.842 133.354 326.611 133.354 326.611L133.281 326.539C133.064 326.611 132.846 326.756 132.629 326.756C128.86 327.335 125.163 328.349 121.538 329.652C117.552 331.028 113.782 332.838 110.231 334.866C109.288 328.349 108.346 321.832 107.476 315.315C107.259 313.578 106.969 311.767 106.026 310.174C105.809 309.74 105.446 309.378 105.374 308.871C105.012 307.568 106.171 306.337 107.259 305.468C105.664 305.757 104.287 304.092 104.359 302.499C104.432 300.906 105.519 299.53 106.679 298.517C104.794 290.19 103.417 281.79 102.62 273.246L102.837 272.088C102.909 269.988 102.33 267.888 102.185 265.788C102.185 265.498 102.185 265.209 102.185 264.847C102.185 264.847 101.967 259.416 101.822 259.344C101.677 259.199 102.692 255.94 103.054 253.623C103.417 251.306 101.025 245.803 101.025 245.803C101.025 245.803 100.3 242.907 100.01 241.748C99.7201 240.59 97.9079 232.552 97.9079 232.552L95.1534 216.478L94.936 215.319L94.8635 214.523C94.791 214.523 94.646 214.595 94.5735 214.595L92.254 226.615L88.6297 245.658L85.8027 260.719L85.3678 264.847C85.3678 264.847 85.3678 264.847 85.2953 264.847C85.6577 265.788 86.1651 266.657 86.745 267.453C86.9625 267.815 87.2524 268.105 87.3249 268.539C87.3974 269.843 85.2228 269.988 84.5704 271.146C83.7731 272.667 86.0202 274.115 86.0202 275.853C86.0202 276.36 85.8752 276.794 85.7302 277.229C84.4255 281.211 84.2805 285.555 84.1355 289.755C84.063 292.289 83.9905 294.896 83.9181 297.43C83.6281 307.857 83.6281 318.284 84.6429 328.639C84.7879 330.014 84.9329 331.462 84.1355 332.621C83.7731 333.2 83.1932 333.635 82.5408 333.997C80.0038 335.445 76.9594 335.662 74.0599 335.373C71.1605 335.083 68.3335 334.214 65.5066 333.562C62.8246 332.911 59.7076 332.549 57.678 334.359C57.3881 334.576 57.0981 334.938 56.7357 335.01C56.5907 335.083 56.3733 335.083 56.1558 335.01C55.431 334.938 54.6336 334.576 54.2712 335.083C53.1114 333.707 52.8939 331.752 52.8215 329.942C51.8791 313.867 55.6484 298.01 57.0257 282.08ZM57.8955 273.68C57.678 274.694 57.5331 275.78 57.4606 276.794C57.6055 275.853 57.7505 274.767 57.8955 273.68Z" fill="url(#paint1_linear_2637_15933)"/>
<path d="M95.0809 216.405L97.8354 232.48C97.8354 232.48 99.6476 240.517 99.9375 241.676C100.227 242.834 100.952 245.731 100.952 245.731C100.952 245.731 103.344 251.306 102.982 253.551C102.62 255.868 101.605 259.126 101.75 259.271C101.895 259.416 102.112 264.774 102.112 264.774C102.112 265.064 102.112 265.426 102.112 265.716C102.257 267.815 102.909 269.915 102.764 272.015L102.547 273.174C103.344 281.645 104.649 290.117 106.606 298.444C105.446 299.458 104.359 300.834 104.287 302.427C104.214 304.02 105.591 305.685 107.186 305.395C106.171 306.264 105.012 307.495 105.302 308.799C105.446 309.305 105.736 309.667 105.954 310.102C106.896 311.623 107.114 313.433 107.404 315.243C108.346 321.76 109.288 328.276 110.158 334.793C113.71 332.766 117.479 330.956 121.466 329.58L121.393 329.507C117.262 324.946 114.797 319.153 112.405 313.505C112.043 312.709 111.753 311.912 111.68 311.043C111.608 309.161 113.13 307.495 113.13 305.54C111.825 305.83 110.448 305.83 109.216 305.395C109.651 304.454 110.448 303.73 111.173 302.934C112.623 301.485 113.927 299.965 115.015 298.299C114.725 298.661 114.362 299.023 113.927 299.313C112.768 300.182 111.173 300.544 109.868 299.965C109.506 299.82 109.143 299.53 108.926 299.168C108.636 298.517 108.853 297.793 109.216 297.213C109.578 296.634 110.086 296.127 110.376 295.548C113.058 293.448 115.232 290.407 117.189 287.511C115.377 288.524 112.913 289.393 111.535 287.945C110.883 287.293 110.665 286.28 110.521 285.338C109.143 276.36 108.781 267.236 109.506 258.185C109.651 255.94 109.941 253.696 109.723 251.451C109.506 249.496 108.998 247.613 108.491 245.731C107.186 241.386 105.591 237.114 103.707 232.987C100.662 226.181 96.8206 219.591 95.4434 212.278C95.4434 213.509 95.2259 214.957 95.0809 216.405Z" fill="#174075"/>
<path d="M52.749 329.942C52.8214 331.752 53.0389 333.707 54.1987 335.083C54.5611 334.504 55.3585 334.938 56.0833 335.01C57.3881 332.911 58.6928 330.811 59.9976 328.711C60.1425 328.421 60.36 328.132 60.4325 327.842C60.5775 327.48 60.5775 327.118 60.65 326.756C60.9399 325.38 62.1722 324.366 63.4769 323.932C64.7817 323.498 66.2314 323.57 67.6087 323.642C66.5214 322.339 65.3616 321.108 64.1293 319.949C66.3039 318.863 68.8409 318.574 71.1605 319.298C69.6383 316.039 64.7092 315.46 63.332 312.129C62.897 311.116 62.897 309.957 62.897 308.871C62.897 299.53 63.187 290.117 63.6944 280.777C64.2018 277.518 64.7092 274.187 65.1441 270.929C66.5214 260.212 67.0287 249.424 68.3335 238.707C69.8557 226.253 72.3927 213.943 75.9446 201.924C76.8869 198.81 77.9017 195.552 80.1488 193.162C82.3234 190.7 87.9048 187.08 90.9492 188.383C90.7318 186.211 88.4847 186.211 88.1947 184.039L64.4192 183.387L63.4769 184.763L61.4473 216.261V221.764L61.0849 221.836L57.5331 269.77C57.5331 269.77 56.8082 278.025 56.8082 278.242L57.3156 277.953C56.9532 280.414 56.5907 282.152 56.4458 282.442C56.3733 282.514 56.5907 282.442 57.0257 282.225C55.6484 298.01 51.8791 313.867 52.749 329.942Z" fill="#174075"/>
<path d="M60.2151 36.6151C60.505 37.4116 61.0124 38.0632 61.4473 38.7873C62.3896 40.1631 63.4044 41.4664 64.4917 42.6974C64.5642 42.7698 64.6367 42.8422 64.7817 42.8422C64.8542 42.8422 64.9267 42.7698 64.9992 42.6974C66.0864 41.6837 67.6811 41.4664 69.0584 41.8285C70.4356 42.1905 71.6679 43.0594 72.8277 43.9283C73.0451 44.0731 73.2626 44.2904 73.48 44.4352C73.8425 44.8696 74.2049 45.3765 74.6398 45.811C75.7271 44.9421 76.8869 44.218 78.1916 43.6387C77.3943 42.6974 76.9594 41.4664 76.5245 40.3079C75.3647 36.9771 74.4948 33.6463 73.77 30.1707C73.6975 29.6639 73.5525 29.157 73.6975 28.6501V28.5777C73.8425 28.2157 74.1324 27.8536 74.4224 27.564C75.9446 25.8262 77.6118 24.016 79.9313 23.3643C82.0334 22.8575 84.2805 23.5091 86.3826 23.8712C87.9048 24.1608 89.4995 24.3056 91.0217 24.3056C91.3117 24.3056 91.6016 24.3056 91.8915 24.2332C92.6889 24.4504 93.4862 24.7401 94.2111 24.9573C96.6756 25.609 99.5751 26.0434 101.677 24.5953C102.475 24.016 103.127 23.2919 103.634 22.4954C103.997 21.9162 104.359 21.3369 104.577 20.7576C104.649 20.6128 104.722 20.468 104.794 20.2508C105.012 19.6715 105.229 19.1646 105.374 18.5854C106.099 16.0511 106.026 13.2271 105.229 10.6928C103.779 12.0686 101.967 13.0099 100.01 13.3719C100.082 13.2271 100.227 13.1547 100.3 13.0099C101.097 11.9962 101.75 10.7652 102.04 9.46189C102.547 7.50686 102.402 5.40701 101.677 3.5968C100.082 5.26219 97.7629 5.98628 95.5159 6.2035C93.2688 6.42073 90.9492 6.27591 88.7022 6.49314C85.6577 6.78277 82.7583 7.72408 79.8588 8.66539C77.4668 9.46189 75.0747 10.3308 72.7552 11.4169C70.7256 12.4306 68.7684 13.6616 67.0288 15.1098C65.724 16.1959 64.4918 17.4268 63.332 18.7302C62.0997 20.1783 60.8674 21.9886 61.0849 23.8712C61.3024 25.6814 62.7521 27.1296 64.0568 28.4329L64.2743 28.795C64.3468 28.795 64.3468 28.795 64.4193 28.795C64.4193 28.8674 64.4193 28.8674 64.4917 28.9398C64.4193 28.9398 64.2743 28.9398 64.2018 28.9398C62.5346 29.157 61.0849 30.2431 60.36 31.7637C59.6352 33.2843 59.6352 35.0221 60.2151 36.6151Z" fill="#ED6C2E"/>
<path d="M64.2018 48.8521C64.4193 49.5762 64.6367 50.3003 65.0716 50.952C65.7965 52.0381 67.1012 52.6898 68.3335 52.9794C69.6383 53.269 70.943 53.3414 72.2478 53.4863C72.5377 53.4863 72.8277 53.5587 73.0451 53.7035C73.3351 53.9207 73.4076 54.2827 73.5525 54.5724C74.9298 59.641 74.5673 64.9992 75.7271 70.0678C75.8721 70.5747 76.0171 71.0815 76.307 71.516C76.3795 71.7332 76.3795 71.9504 76.452 72.2401C76.5969 73.0365 76.8144 73.833 76.9594 74.6295C76.9594 74.7744 77.0319 74.8468 77.1044 74.9916C77.1768 75.064 77.3218 75.1364 77.4668 75.1364C80.5112 75.9329 83.7731 76.0053 86.8175 75.3536C88.5572 74.9916 90.2244 74.4123 91.8191 73.6882C92.4714 73.3986 93.0513 73.109 93.6312 72.7469C93.9212 72.5297 94.2836 72.1677 94.2836 71.7332C94.2836 71.516 94.2111 71.3711 94.1386 71.2263C94.1386 71.1539 94.0661 71.0815 93.9937 71.0091C94.1386 70.3574 94.1386 69.6333 94.1386 68.9093C94.1386 68.0404 94.0661 67.1715 93.9937 66.375C93.9212 64.782 93.8487 63.2614 93.7762 61.6684C95.2984 62.1753 96.8206 61.3064 98.1254 60.3651C99.3576 59.4237 100.59 58.3376 101.46 57.0343C103.199 54.5 103.634 51.2416 103.852 48.128C104.287 40.3803 103.344 32.5602 101.097 25.1745L101.17 25.3918C98.4878 25.3918 95.7333 25.2469 93.0513 24.9573C90.8767 24.7401 88.7021 24.378 86.5276 23.8712C84.4979 23.4367 82.4683 22.9299 80.4387 23.3643C78.0467 23.9436 76.2345 25.7538 74.5673 27.4916C74.2774 27.7812 73.9875 28.0709 73.8425 28.4329C73.625 28.9398 73.77 29.4466 73.8425 29.9535C74.5673 34.2256 75.2922 38.5701 77.4668 42.2629C77.6842 42.625 77.9017 42.987 77.9742 43.4215C77.9742 43.5663 77.9742 43.6387 78.0467 43.7835C77.2493 44.4352 76.452 45.0145 75.5821 45.6661C75.4372 45.811 75.2197 45.8834 75.0023 45.8834C74.8573 45.8834 74.7123 45.7385 74.5673 45.6661C73.625 44.8696 72.9001 43.7111 71.8853 43.0594C71.3054 42.6974 70.5806 42.4078 69.8557 42.2629C68.551 41.9733 67.1737 41.8285 66.0139 42.4802C64.9267 43.0594 64.2743 44.218 64.0568 45.3765C63.7669 46.4626 63.9118 47.6936 64.2018 48.8521Z" fill="white"/>
<path d="M106.534 72.7469C106.461 72.6745 106.461 72.6021 106.389 72.5297C106.244 72.5297 106.534 72.6745 106.534 72.7469Z" fill="white"/>
<path d="M28.6835 117.206L33.1052 119.233C33.1052 119.233 33.1052 119.233 33.1777 119.233C33.6851 119.523 37.5993 121.623 38.9041 122.347C40.2813 123.071 45.7903 126.329 45.7903 126.329L51.0093 128.719L56.7357 120.609C56.7357 120.609 58.2579 125.388 59.2727 128.646C59.7801 130.384 60.2151 131.687 60.2151 131.76C60.2875 131.905 64.1293 146.459 64.1293 146.459C64.1293 146.459 65.0716 152.396 65.0716 153.41C65.0716 154.424 64.7092 159.203 64.7092 159.492V159.565L63.1145 181.287C63.1145 181.287 62.897 184.111 62.897 184.256C62.897 184.401 80.2937 187.008 80.2937 187.008H90.2968C90.2968 187.008 91.1667 171.947 90.8767 169.34C90.6593 167.602 90.4418 166.444 90.2968 165.792C90.1519 163.547 89.9344 160.651 89.9344 160.651L87.1075 134.439L82.6858 100.262L80.0763 86.2873L79.5689 85.8528C79.7139 85.9253 79.9313 85.9253 80.0038 85.8528C80.0763 85.7804 80.0763 85.6356 80.0038 85.5632C79.7863 84.1875 79.3514 82.8117 78.989 81.4359C77.2493 75.6433 75.8721 69.8506 74.7848 63.9131V63.6234C73.4076 63.8407 71.9578 64.0579 70.798 64.9268C70.1457 65.4336 69.7108 66.0853 69.2034 66.737C68.1885 68.2576 67.2462 69.923 66.5213 71.6608C66.1589 72.3849 65.869 73.1814 65.4341 73.833L65.3616 73.7606L49.5596 85.5632L49.1247 85.9977L48.4723 86.6493L43.7607 89.8353C43.7607 89.8353 42.3109 90.5594 41.0062 92.0076C39.629 93.4557 33.6851 103.448 33.6851 103.448C33.6851 103.448 32.7428 105.838 31.9454 107.865C31.0031 109.965 28.6835 117.206 28.6835 117.206Z" fill="white"/>
<path d="M93.7762 73.2538C93.7762 73.6882 93.9212 74.1227 93.9937 74.5571C94.2111 75.3536 94.4286 76.1501 94.646 77.019C95.1534 78.974 95.6608 80.9291 96.1682 82.8841C96.2407 82.8117 96.3132 82.7393 96.3857 82.5945L96.6032 84.9839L97.2555 93.4557L98.6328 110.399L100.155 133.787L102.402 157.972L104.069 183.749C104.069 183.749 104.069 183.749 104.432 184.111C104.867 184.473 118.494 181.287 118.711 181.142C118.929 181.07 125.525 178.174 125.525 178.174L123.061 158.334L120.596 132.484C120.596 132.484 120.016 123.795 120.596 117.495C121.176 111.196 121.611 85.2012 121.611 85.2012L122.481 79.1913L119.001 76.7294L114.072 74.4847C114.072 74.4847 110.231 73.2538 107.911 72.7469C106.969 72.5297 106.534 72.4573 106.461 72.5297C106.534 72.6021 106.534 72.6745 106.606 72.7469C106.534 72.7469 106.316 72.5297 106.461 72.5297C105.591 71.0091 104.649 69.4885 103.489 68.1852C102.04 66.5922 100.3 65.2164 98.3428 64.3475C96.9656 63.7683 95.5884 63.4062 94.0661 63.4062H93.9937L94.1386 69.0541L94.2111 71.0091C93.9212 71.7332 93.7037 72.4573 93.7762 73.2538Z" fill="white"/>
<path d="M106.534 72.7469C106.461 72.6745 106.461 72.6021 106.389 72.5297C106.244 72.5297 106.534 72.6745 106.534 72.7469Z" fill="white"/>
<path d="M140.892 105.041C140.892 105.041 137.775 111.848 136.036 113.658C134.224 115.468 128.932 119.233 128.932 119.233C128.932 119.233 123.713 122.202 122.336 122.636C120.959 123.071 120.596 123.143 120.596 123.143V99.2484L122.481 79.1913" fill="#76B82A"/>
<path d="M21.6524 142.476C21.7973 144.287 22.1598 146.097 23.392 147.328C24.6243 148.559 42.8908 164.416 42.8908 164.416L56.0108 174.408C56.0108 174.408 57.4606 175.205 60.5775 174.191C63.6944 173.105 66.5938 171.874 66.5938 171.874C66.5938 171.874 68.406 171.585 68.4785 171.657C68.551 171.729 72.1753 175.133 73.1901 175.205C74.2049 175.277 75.5097 174.264 75.5097 174.119C75.5097 173.974 76.307 174.553 76.307 174.553C76.307 174.553 78.1192 175.422 78.5541 175.277C78.989 175.133 79.4964 174.626 79.4964 174.626L79.7863 173.612L80.0763 172.526C80.0763 172.526 80.6562 172.526 80.7287 172.526C80.8012 172.526 81.816 171.584 81.7435 170.933C81.671 170.281 81.526 169.412 81.526 169.412C81.526 169.412 82.9757 169.267 83.0482 168.616C83.1932 167.892 83.4107 167.095 83.4107 167.095L82.4683 164.995C82.4683 164.995 73.2626 158.479 73.1901 158.406C73.1176 158.406 64.5642 159.492 64.4917 159.565C64.4193 159.637 57.7505 161.665 57.7505 161.665C57.7505 161.665 46.6601 148.703 46.5876 148.631C46.5876 148.559 40.4263 142.621 40.0639 142.331C39.6289 142.042 39.1216 141.68 39.194 141.68C39.2665 141.68 39.8464 139.942 39.8464 139.942L45.2829 127.343L45.7178 126.402L37.1644 121.405L29.9883 117.857C29.9883 117.857 29.4809 119.016 28.8285 120.681C28.2486 121.985 27.5962 123.65 26.9439 125.388C25.6391 128.646 24.2619 132.122 23.827 133.715C22.7397 137.263 21.5074 140.666 21.6524 142.476Z" fill="white"/>
<path d="M122.481 151.6L123.641 163.258L123.858 165.502L125.38 172.309C125.38 172.309 125.598 172.598 126.178 172.381C126.757 172.164 130.164 168.543 130.164 168.254C130.164 167.964 129.802 166.371 129.802 166.371L131.614 160.796L144.879 139.652C144.879 139.652 149.663 132.629 149.301 131.181C148.866 129.732 147.923 127.198 147.923 127.198L139.008 113.078L138.21 111.775C138.21 111.775 133.716 115.975 133.136 116.409C132.556 116.844 127.192 120.247 127.192 120.247L130.164 124.157L135.021 131.687L132.846 136.032L126.902 150.586L122.481 151.6Z" fill="white"/>
<path d="M54.2712 334.648C54.2712 334.938 54.2712 335.228 54.3437 335.445C54.4161 335.952 54.6336 336.531 54.7786 337.038C54.996 338.196 54.7786 339.355 54.8511 340.586C54.9236 341.744 55.286 343.048 56.3733 343.627C56.7357 343.844 57.1706 343.917 57.6056 343.917C63.2595 344.713 68.9859 343.41 74.7123 343.555C75.7271 343.555 76.8144 343.7 77.8292 343.41C78.844 343.193 79.8588 342.613 80.2937 341.672C80.5112 341.165 80.5837 340.658 80.6562 340.151C80.7287 339.645 80.8011 339.138 80.8736 338.631C80.9461 338.269 80.9461 337.907 81.0186 337.545C81.0911 336.821 81.2361 336.097 81.0911 335.373C80.9461 334.431 80.3662 333.635 79.7139 332.838C78.6991 331.535 77.5393 330.304 76.307 329.218C75.4372 328.421 74.4223 327.625 73.4075 327.046C71.1605 325.815 68.551 325.525 66.0864 325.887C63.5494 326.249 61.2299 327.263 59.0553 328.639L59.1278 328.856C58.3304 328.928 57.678 329.58 57.1706 330.159C56.5183 330.883 55.9384 331.607 55.3585 332.404C54.8511 333.055 54.3437 333.78 54.2712 334.648Z" fill="#76B82A"/>
<path d="M111.245 335.445C111.39 338.052 111.535 340.658 111.68 343.265C113.202 343.41 114.797 343.555 116.247 343.048C117.407 342.686 118.639 341.817 119.799 342.251C120.161 342.396 120.451 342.613 120.814 342.758C121.683 343.12 122.698 343.048 123.641 342.975C132.846 342.324 142.125 343.12 151.403 342.324C152.49 342.251 153.795 342.034 154.375 341.093C154.882 340.296 154.665 339.138 154.157 338.341C154.085 338.196 154.012 338.124 153.94 337.979C153.867 337.834 153.795 337.69 153.867 337.472C153.867 337.328 154.012 337.183 154.085 337.038C154.737 336.097 154.665 334.721 154.085 333.707C153.505 332.693 152.563 331.897 151.62 331.245C148.576 329.29 144.879 328.349 141.255 328.494C140.892 328.494 140.602 328.494 140.24 328.566C139.66 328.639 139.08 328.639 138.5 328.566C137.413 328.349 136.616 327.408 135.963 326.539L135.601 326.394C127.265 327.48 119.146 330.304 111.898 334.504C111.68 334.648 111.463 334.721 111.39 334.938C111.173 334.938 111.245 335.155 111.245 335.445Z" fill="#76B82A"/>
<path d="M26.9439 125.388C27.0163 125.388 27.0164 125.46 27.0888 125.46C28.1036 125.822 29.046 126.184 30.0608 126.546C30.7856 126.764 31.5105 126.981 32.2353 127.126C34.3375 127.56 36.512 127.56 38.6141 127.56C40.5713 127.56 42.5284 127.488 44.4855 127.415C44.7755 127.415 44.9929 127.343 45.2829 127.343L45.7178 126.402L37.1644 121.405L29.9883 117.857C29.9883 117.857 29.4809 119.016 28.8285 120.681C28.3211 122.057 27.6687 123.723 26.9439 125.388Z" fill="#F4C6CC"/>
<path d="M21.6524 142.476C21.7973 144.287 22.1598 146.097 23.392 147.328C24.6243 148.559 42.8908 164.416 42.8908 164.416L56.0108 174.408C56.0108 174.408 57.4606 175.205 60.5775 174.191C63.6944 173.105 66.5938 171.874 66.5938 171.874C66.5938 171.874 68.406 171.585 68.4785 171.657C68.551 171.729 72.1753 175.133 73.1901 175.205C74.2049 175.277 75.5097 174.264 75.5097 174.119C75.5097 173.974 76.307 174.553 76.307 174.553C76.307 174.553 78.1192 175.422 78.5541 175.277C78.989 175.133 79.4964 174.626 79.4964 174.626L79.7863 173.612L77.9742 170.716C77.2493 171.802 75.5821 171.44 74.5673 170.643C73.5525 169.847 72.6827 168.688 71.4504 168.471C71.4504 168.978 71.4504 169.557 71.4504 170.064C67.5362 169.267 63.4769 169.05 59.4177 169.485C58.4754 169.557 57.6055 169.702 56.6632 169.485C55.8659 169.267 55.2135 168.833 54.4886 168.399C45.7903 162.606 37.8893 155.582 31.0756 147.69C29.9158 146.386 28.756 144.938 28.0312 143.345C25.7841 138.349 27.8137 132.556 29.6983 127.415C29.7708 127.126 29.9158 126.836 29.9883 126.619C30.4957 124.953 30.8581 123.143 29.9158 121.767C29.6259 121.333 29.1909 121.043 28.756 120.754C28.1761 122.057 27.5237 123.722 26.8714 125.46C25.5666 128.719 24.1894 132.194 23.7545 133.787C22.7397 137.263 21.5074 140.666 21.6524 142.476Z" fill="#F4C6CC"/>
<path d="M122.481 151.6L123.641 163.258C124.583 162.751 125.525 162.171 126.323 161.52C126.612 161.302 126.83 161.085 126.975 160.796C127.192 160.289 127.12 159.71 127.12 159.203C127.192 157.972 127.772 156.813 128.352 155.727C131.252 150.369 134.151 144.938 137.05 139.58C138.355 137.263 139.588 134.873 140.602 132.412C140.675 132.122 140.82 131.905 140.82 131.615C140.82 131.181 140.602 130.746 140.385 130.384C139.008 127.85 137.92 125.171 137.195 122.419C137.05 121.985 136.978 121.478 136.978 120.971C136.978 120.464 137.195 119.885 137.34 119.378C138.065 117.351 138.573 115.251 138.863 113.078L138.065 111.775C138.065 111.775 133.571 115.975 132.991 116.409C132.411 116.844 127.047 120.247 127.047 120.247L130.019 124.157L134.876 131.687L132.701 136.032L126.757 150.586L122.481 151.6Z" fill="#F4C6CC"/>
<path d="M82.1784 59.4237C83.0482 59.7858 83.7006 60.5099 84.208 61.234C84.7879 61.958 85.3678 62.6097 86.0926 63.2614C87.9048 64.782 90.0794 65.5785 92.399 66.0853C92.8339 66.1577 93.4863 66.4474 93.9937 66.3026C93.9212 64.7096 93.8487 63.189 93.7762 61.596C95.2984 62.1029 96.8206 61.234 98.1254 60.2927C99.3576 59.3513 100.59 58.2652 101.46 56.9619C103.199 54.4276 103.634 51.1692 103.852 48.0556C104.287 40.3079 103.344 32.4878 101.097 25.1021L101.17 25.3193C98.4878 25.3193 95.7333 25.1745 93.0513 24.8849C92.5439 27.7812 93.3413 30.75 93.5587 33.6463C93.7037 35.8186 93.5587 37.9908 93.7762 40.0907C93.9937 42.2629 94.7185 44.4352 96.3857 45.8834C95.8783 46.2454 95.1534 46.2454 94.646 46.6074C93.9212 47.1143 93.8487 48.2004 93.9212 49.0693C93.9936 49.9382 94.1386 50.952 93.6312 51.676C93.4138 52.0381 92.9788 52.3277 92.9064 52.6898C92.8339 52.9794 92.9064 53.1966 92.9788 53.4863C93.5587 55.6585 93.7762 58.048 92.6164 59.9306C92.3265 60.3651 91.964 60.7995 91.5291 61.0167C91.0942 61.234 90.6593 61.3064 90.2244 61.3064C87.2524 61.5236 84.8604 60.2926 82.1784 59.4237Z" fill="#F4C6CC"/>
<path d="M73.6975 28.5777C73.8425 28.2157 74.1324 27.8536 74.4224 27.564C75.9446 25.8262 77.6118 24.016 79.9313 23.3643C82.0334 22.8575 84.2805 23.5091 86.3826 23.8712C87.9048 24.1608 89.4995 24.3056 91.0217 24.3056C91.3117 24.3056 91.6016 24.3056 91.8915 24.2332C92.6889 24.4504 93.4862 24.7401 94.2111 24.9573C96.6756 25.609 99.5751 26.0434 101.677 24.5953C102.475 24.016 103.127 23.2919 103.634 22.4954C103.997 21.9162 104.359 21.3369 104.577 20.7576C104.722 20.7576 104.867 20.6852 105.012 20.6128C105.012 20.3956 105.012 20.1059 105.012 19.8887C104.939 20.0335 104.867 20.1783 104.722 20.3232C104.577 20.5404 104.432 20.6852 104.287 20.83C103.127 22.1334 101.46 22.8575 99.7926 23.1471C97.6905 23.4367 95.5159 23.1471 93.4862 22.7126C90.9492 22.2058 88.4122 21.6265 85.8027 21.4817C83.1932 21.3369 80.5112 21.6265 78.2641 22.785C76.0895 23.9436 74.2049 26.0434 73.6975 28.5777Z" fill="white"/>
<path d="M81.4535 15.689C86.0202 12.2134 92.254 10.9825 97.8354 12.503C98.7053 12.7203 99.5751 13.0099 100.445 13.0823C101.242 12.0686 101.895 10.8376 102.185 9.5343C101.532 9.89634 100.735 10.1136 100.01 10.186C98.1254 10.4756 96.2407 10.1136 94.3561 10.0412C91.8915 9.89634 89.427 10.0412 87.1075 10.9101C84.7879 11.779 82.7583 12.7203 81.816 14.9649L81.4535 15.689Z" fill="white"/>
<path d="M86.4551 20.3956L89.9344 18.8026C91.0217 18.2233 92.5439 18.4405 93.7037 18.5854C94.8635 18.7302 96.0233 19.1646 97.183 19.5267C99.1402 20.2508 101.242 20.9024 103.344 20.9024C103.707 20.9024 104.142 20.9024 104.504 20.83C104.577 20.83 104.649 20.83 104.722 20.7576C104.867 20.7576 105.012 20.6852 105.157 20.6128C105.157 20.3956 105.157 20.1059 105.157 19.8887C105.084 20.0335 105.012 20.1783 104.867 20.3232C105.084 19.7439 105.302 19.237 105.446 18.6578C103.997 19.3818 102.112 19.3094 100.517 18.9474C98.6328 18.5129 96.8931 17.644 95.0085 17.3544C91.8191 16.7751 88.3397 17.8613 86.4551 20.3956Z" fill="white"/>
<path d="M61.2299 23.8712C61.4473 25.6814 62.897 27.1296 64.2018 28.4329L64.4193 28.795C64.4917 28.795 64.4917 28.795 64.5642 28.795L67.3912 28.0709C66.3039 28.1433 65.2166 27.7088 64.4917 26.9123C64.0568 26.4055 63.8394 25.8986 63.6219 25.2469C63.042 23.4367 63.332 21.4093 64.1293 19.6715C64.8542 17.9337 66.0864 16.4131 67.4637 15.0373C67.3912 15.0373 67.2462 15.0373 67.1737 15.0373C65.869 16.1235 64.6367 17.3544 63.4769 18.6578C62.1722 20.1783 61.0124 21.9886 61.2299 23.8712Z" fill="white"/>
<path d="M109.578 79.4085C107.694 79.9154 105.809 79.9878 103.852 79.7705C103.562 79.7705 103.199 79.6981 102.982 79.8429C102.837 79.9154 102.692 80.0602 102.547 80.205C100.445 82.2324 98.5603 84.4047 96.9656 86.8666C95.8783 84.1151 96.9656 81.0015 98.4878 78.5396C99.1402 77.4535 100.082 76.2225 101.387 76.1501C101.967 76.0777 102.475 76.2949 102.982 76.4397C104.359 76.8742 105.809 77.3086 107.186 77.7431" fill="#76B82A"/>
<path d="M79.7139 85.8528C80.2938 87.1562 80.5837 88.6044 80.6562 90.0525C77.5393 87.9527 74.2774 85.9253 71.088 83.9702C70.6531 83.6806 70.2182 83.4634 69.7108 83.391C69.2033 83.3185 68.7684 83.391 68.261 83.4634C66.6663 83.753 65.1441 83.9702 63.5494 84.2599C63.6219 83.5358 63.6944 82.8841 63.8394 82.16C63.8394 81.8704 63.9118 81.5807 64.0568 81.3635C64.2743 81.1463 64.5642 81.0015 64.8542 80.9291C66.5938 80.3498 68.3335 79.7705 70.0732 79.1913C70.4356 79.0464 70.8705 78.9016 71.233 78.974C72.6827 79.0464 73.3351 80.9291 74.6398 81.5083" fill="#76B82A"/>
<path d="M28.6835 117.206L33.1052 119.233C33.1052 119.233 33.1052 119.233 33.1777 119.233C34.5549 119.812 35.9322 120.392 37.2369 121.116C37.0194 118.581 37.4544 115.975 37.9618 113.513C39.7739 105.62 42.8908 98.0175 47.53 91.3559C48.5448 89.9801 49.6321 88.532 51.2268 87.8803C53.1839 87.0838 55.3585 87.6631 57.3881 88.2423L55.5759 87.0838C53.5463 86.2873 51.2992 85.9253 49.1247 85.9977L48.4723 86.6493L43.7607 89.8353C43.7607 89.8353 42.3109 90.5594 41.0062 92.0076C39.629 93.4557 33.6851 103.448 33.6851 103.448C33.6851 103.448 32.7428 105.838 31.9454 107.865C31.0031 109.965 28.6835 117.206 28.6835 117.206Z" fill="#76B82A"/>
<path d="M55.8659 121.912L56.7357 120.681C56.7357 120.681 58.2579 125.46 59.2727 128.719C62.897 123.36 63.9843 116.554 64.3468 109.965C64.4917 107.141 64.6367 104.389 64.2018 101.565C63.9118 99.2484 63.2595 96.9313 62.3896 94.8315L62.4621 95.628C62.9695 104.172 60.8674 112.861 56.5183 120.247C56.2283 120.754 55.9384 121.188 55.7934 121.767C55.8659 121.767 55.8659 121.84 55.8659 121.912Z" fill="#76B82A"/>
<path d="M93.4862 73.1814C93.4862 73.7606 93.7037 74.3399 93.9212 74.9192C94.1386 75.5708 94.4286 76.2949 94.646 76.9466C94.7185 77.1638 94.791 77.3811 94.8635 77.6707C96.3857 75.2812 97.9079 72.8917 98.5603 70.1402C98.9952 68.2576 98.9952 66.1577 98.2703 64.3475C96.8931 63.7683 95.5159 63.4062 93.9937 63.4062C94.1386 65.2888 94.2111 67.1715 94.0661 69.0541C93.9937 69.7058 93.9212 70.4298 93.7762 71.0815C93.6312 71.7332 93.4862 72.4573 93.4862 73.1814Z" fill="#76B82A"/>
<path d="M54.2712 334.648C54.2712 334.938 54.2712 335.228 54.3437 335.445C54.7061 334.142 55.8659 333.055 57.0257 332.331C60.4325 330.087 64.7092 329.001 68.7684 329.58C72.8277 330.159 76.6694 332.331 79.134 335.59C79.8588 336.531 80.4387 337.545 80.9461 338.631C81.0186 338.269 81.0186 337.907 81.0911 337.545C81.1636 336.821 81.3086 336.097 81.1636 335.373C81.0186 334.431 80.4387 333.635 79.7863 332.838C78.7715 331.535 77.6118 330.304 76.3795 329.218C75.5097 328.421 74.4948 327.625 73.48 327.046C71.233 325.815 68.6235 325.525 66.1589 325.887C63.6219 326.249 61.3023 327.263 59.1278 328.639L59.2002 328.856C58.4029 328.928 57.7505 329.58 57.2431 330.159C56.5907 330.883 56.0109 331.607 55.431 332.404C54.8511 333.055 54.3437 333.78 54.2712 334.648Z" fill="white"/>
<path d="M128.497 332.476L129.367 332.114C132.121 331.318 134.876 330.521 137.703 330.521C142.197 330.521 146.401 332.404 150.17 334.866C150.388 335.01 150.678 335.228 150.823 335.445C151.04 335.807 150.968 336.314 150.823 336.676C150.605 337.038 150.315 337.4 150.026 337.69C151.33 337.69 152.635 337.762 153.94 337.834C153.867 337.69 153.795 337.545 153.867 337.328C153.867 337.183 154.012 337.038 154.085 336.893C154.737 335.952 154.665 334.576 154.085 333.562C153.505 332.549 152.563 331.752 151.62 331.1C148.576 329.145 144.879 328.204 141.255 328.349C136.833 328.783 132.411 330.304 128.497 332.476Z" fill="white"/>
<path d="M99.2851 190.99C98.1254 196.855 96.9656 202.793 96.0958 208.73L99.2851 190.99Z" fill="#4C742C"/>
<path d="M95.5159 211.626C95.5159 211.771 95.5883 211.916 95.5883 211.988C95.7333 210.902 95.8783 209.816 96.0233 208.73L95.5159 211.626Z" fill="#4C742C"/>
<path d="M115.16 298.155C115.74 297.43 116.247 296.634 116.609 295.837C116.174 296.634 115.667 297.43 115.16 298.155Z" fill="#4C742C"/>
<path d="M117.769 181.432C120.089 198.158 120.379 215.102 121.538 231.973C122.553 246.889 124.148 261.805 126.323 276.649C126.975 280.994 127.7 285.338 128.787 289.61C129.729 293.376 131.034 297.068 132.629 300.616C132.121 298.082 131.759 296.2 131.759 296.055C131.687 295.475 128.787 272.956 128.787 272.956C128.787 272.956 126.395 246.093 126.178 243.559C125.96 241.024 124.148 217.057 124.148 217.057L121.393 180.418C121.321 180.346 119.799 180.853 117.769 181.432Z" fill="white"/>
<path d="M80.2213 273.391C81.0186 274.26 82.1059 274.984 82.3958 276.07C82.5408 276.649 82.4683 277.228 82.3958 277.808C81.816 284.325 82.3234 290.986 83.9181 297.358C83.9905 294.824 84.063 292.217 84.1355 289.683C84.2805 285.483 84.4255 281.211 85.7302 277.156C85.8752 276.722 86.0202 276.287 86.0202 275.78C85.9477 274.115 83.7006 272.594 84.5704 271.074C85.2228 269.915 87.4699 269.77 87.3249 268.467C87.3249 268.033 87.035 267.743 86.745 267.381C86.0927 266.584 85.6577 265.716 85.2953 264.774H85.3678L85.8027 260.647L88.6297 245.586C89.4995 238.707 90.8043 231.828 92.1815 225.022C95.1534 210.251 98.1979 195.479 101.387 180.78L86.3101 234.29C84.4255 241.821 82.5408 249.351 80.5837 256.882C79.8588 259.706 79.2064 262.819 80.5112 265.354C81.0186 266.44 81.9609 267.671 81.3086 268.684C80.8736 269.336 80.0038 269.553 79.5689 270.132C78.7715 271.146 79.4239 272.522 80.2213 273.391Z" fill="white"/>
<path d="M100.662 24.8849C101.532 26.9847 101.967 29.2294 102.185 31.4741C102.402 33.7187 102.62 35.9634 102.764 38.2081C103.054 42.6974 103.127 47.1867 102.112 51.5312C101.677 53.7035 100.952 55.8033 99.7201 57.5411C98.5603 59.2789 96.7481 60.6547 94.646 61.0167C93.6312 61.234 92.4714 61.234 91.3841 61.1616C90.2968 61.1616 89.1371 61.0167 88.0498 60.8719C85.8027 60.5823 83.6281 59.9306 81.526 59.0617C83.4831 60.2202 85.6577 61.0167 87.9048 61.5236C88.9921 61.8132 90.1519 61.958 91.3117 62.1029C92.4714 62.1753 93.6312 62.2477 94.791 62.1029C96.0233 61.958 97.183 61.4512 98.1978 60.7995C99.2127 60.1478 100.082 59.2789 100.807 58.2652C102.185 56.3102 102.982 53.9931 103.489 51.7485C103.997 49.5038 104.214 47.1867 104.214 44.8696C104.214 42.5526 104.069 40.3079 103.779 37.9908C103.489 35.7462 103.127 33.5015 102.764 31.2568C102.402 29.157 101.822 26.9123 100.662 24.8849Z" fill="black"/>
<path d="M72.1028 43.2767C71.233 42.6974 70.3631 42.1181 69.3483 41.7561C68.3335 41.394 67.1012 41.2492 66.0139 41.7561C64.9266 42.2629 64.1293 43.2042 63.6219 44.218C63.1145 45.3041 62.9695 46.4626 63.1145 47.6212C63.332 49.9382 64.7092 52.0381 66.6663 53.269C68.6235 54.4276 71.0155 54.7896 73.2626 54.2103L72.4652 53.7759C73.0451 55.7309 73.48 57.6859 73.915 59.7134C74.3499 61.7408 74.6398 63.7683 74.9298 65.7957C75.0747 63.6959 75.0022 61.6684 74.7848 59.5686C74.5673 57.4687 74.2049 55.4413 73.6975 53.4138C73.625 53.0518 73.2626 52.907 72.9726 52.907C71.088 53.269 69.0584 52.9794 67.3912 51.9657C65.724 51.0244 64.6367 49.2866 64.3467 47.4039C64.2018 46.4626 64.2743 45.5213 64.6367 44.6524C64.9991 43.7835 65.579 42.987 66.3764 42.4802C67.1737 42.0457 68.1885 41.9733 69.2034 42.1905C70.2182 42.4077 71.1605 42.8422 72.1028 43.2767Z" fill="black"/>
<path d="M73.2626 49.5038C72.6827 49.721 72.1028 49.9382 71.5229 50.0831C70.943 50.2279 70.3631 50.3727 69.7832 50.5175L70.1457 50.7347C70.0007 50.1555 69.6383 49.8658 69.5658 49.5038C69.4933 49.2141 69.5658 48.9245 69.7832 48.6349C70.0007 48.3453 70.3631 48.0556 70.6531 47.6936C70.943 47.3315 71.233 46.8247 71.1605 46.2454C71.088 45.9558 70.943 45.6661 70.6531 45.5213C70.4356 45.3765 70.1457 45.3041 69.8557 45.3041C69.3483 45.3041 68.9134 45.4489 68.4785 45.5937C68.1161 45.7385 67.6811 45.811 67.3187 45.6661C66.9563 45.5213 66.7388 45.0869 66.5938 44.7248C66.6663 45.1593 66.7388 45.6661 67.1737 45.9558C67.6087 46.2454 68.116 46.173 68.551 46.1006C68.9859 46.0282 69.3483 45.8834 69.7832 45.9558C70.1457 45.9558 70.3631 46.173 70.4356 46.4626C70.4356 46.7523 70.3631 47.1143 70.0732 47.3315C69.7832 47.6212 69.4933 47.9108 69.2034 48.3452C69.0584 48.5625 68.9134 48.7797 68.8409 49.0693C68.7684 49.359 68.8409 49.6486 68.9134 49.9382C69.1309 50.4451 69.4933 50.7347 69.5658 51.0244C69.6383 51.1692 69.7832 51.2416 69.9282 51.2416C70.5081 51.0968 71.088 50.8795 71.6679 50.5899C72.2478 50.1555 72.7552 49.8658 73.2626 49.5038Z" fill="black"/>
<path d="M73.4075 28.2157C73.3351 29.5914 73.4076 30.9672 73.5525 32.343C73.6975 33.7187 73.9874 35.0945 74.3499 36.3978C74.7123 37.7736 75.1472 39.077 75.6546 40.3079C76.162 41.6113 76.7419 42.8422 77.4668 44.0731L77.6842 43.2766C77.1768 43.6387 76.6694 44.0007 76.162 44.2904L75.3647 44.7972C75.1472 44.942 74.7848 45.2317 74.6398 45.3041C74.5673 45.3041 74.5673 45.3765 74.4948 45.3041C74.4224 45.3041 74.3499 45.2317 74.2049 45.1593C73.9874 44.942 73.77 44.7248 73.5525 44.5076C73.1176 44.0731 72.6827 43.6387 72.1753 43.2042C72.4652 43.7835 72.8277 44.2904 73.1176 44.7972C73.2626 45.0869 73.4076 45.3041 73.625 45.5937C73.6975 45.7385 73.8425 45.8834 74.0599 46.0282C74.2774 46.173 74.5673 46.173 74.7848 46.1006C75.2197 45.9558 75.4372 45.8109 75.7271 45.6661L76.5245 45.2317C77.1044 44.942 77.6118 44.6524 78.1916 44.3628C78.4816 44.218 78.5541 43.8559 78.4816 43.5663V43.4939C77.9017 42.2629 77.3943 41.032 76.8869 39.8011C76.3795 38.5701 75.9446 37.2668 75.5097 36.0358C75.0747 34.7325 74.7123 33.5015 74.3499 32.1982C74.1324 30.8224 73.77 29.519 73.4075 28.2157Z" fill="black"/>
<path d="M65.0716 42.987C63.8394 41.1768 62.4621 39.439 61.5198 37.5564C60.5775 35.6738 60.0701 33.5739 61.1574 31.9809C62.1722 30.3155 64.1293 29.4466 66.1589 29.0122C68.261 28.5777 70.4356 28.2881 72.6102 28.0709C70.4356 27.7088 68.1885 27.6364 65.9415 27.9261C64.7817 28.0709 63.6944 28.3605 62.6071 28.8674C61.5198 29.3742 60.5775 30.2431 59.9251 31.2568C59.2727 32.343 59.0553 33.7187 59.2727 34.8773C59.4902 36.1082 59.9976 37.1219 60.5775 38.1357C61.7373 40.0183 63.332 41.5388 65.0716 42.987Z" fill="black"/>
<path d="M100.3 13.2995C101.46 11.9962 102.257 10.3308 102.547 8.52058C102.837 6.78277 102.692 4.90015 102.04 3.16235C101.967 2.94512 101.677 2.87271 101.46 2.94512C101.387 2.94512 101.315 3.01753 101.242 3.08994C100.662 3.95884 99.7201 4.53811 98.7777 4.97256C97.8354 5.40701 96.7481 5.62424 95.6608 5.69665C93.4862 5.91387 91.1667 5.76905 88.9196 6.05869C84.353 6.63796 79.9313 7.65167 75.6546 9.31707C71.3779 10.9825 67.3187 13.4444 64.2743 16.92C63.4769 17.7889 62.7521 18.6578 62.1722 19.6715C61.5923 20.6852 61.0849 21.7713 61.0124 23.0023C60.9399 23.5815 61.0124 24.2332 61.2299 24.7401C61.4473 25.3193 61.7373 25.8262 62.0997 26.2607C62.8246 27.1296 63.6944 27.8536 64.4193 28.795C63.8394 27.8536 63.042 26.9847 62.3896 26.1158C61.7373 25.2469 61.4473 24.1608 61.5923 23.0747C61.7373 22.061 62.2447 21.0472 62.897 20.1783C63.5494 19.3094 64.2743 18.4405 65.0716 17.644C68.1885 14.4581 72.1028 12.2858 76.2345 10.6928C78.3366 9.89634 80.4387 9.31707 82.6133 8.7378C84.7879 8.23094 86.9625 7.79649 89.2095 7.50686C90.2968 7.36204 91.3841 7.28963 92.5439 7.21722C93.6312 7.14481 94.791 7.14481 95.9508 7C97.1106 6.85518 98.2703 6.56555 99.3576 5.98628C100.445 5.47942 101.46 4.68293 102.112 3.66921L101.387 3.5968C102.112 5.11738 102.402 6.85518 102.257 8.59299C101.895 10.186 101.315 11.8514 100.3 13.2995Z" fill="black"/>
<path d="M80.9461 16.1235C82.6858 14.6753 84.6429 13.5892 86.8175 13.0099C87.9048 12.6479 88.9921 12.503 90.0794 12.3582C91.1667 12.2134 92.254 12.2134 93.3413 12.2858C94.4286 12.3582 95.5159 12.5755 96.5307 12.8651C97.5455 13.1547 98.6328 13.5892 99.7926 13.8788C100.952 14.1684 102.33 14.0236 103.489 13.4444C104.649 12.8651 105.519 11.8514 106.026 10.6204L104.794 10.6928C105.519 12.2858 105.591 14.096 105.302 15.9062C105.012 17.7165 104.432 19.5267 103.634 21.1197C102.837 22.7126 101.532 24.0884 99.9375 24.5953C98.3428 25.1021 96.4582 24.8125 94.5735 24.5953L88.9196 23.7988C87.035 23.5091 85.1503 23.2919 83.2657 23.0747C82.3234 23.0023 81.3085 22.9299 80.2937 23.0747C79.2789 23.2195 78.3366 23.7264 77.6118 24.378C76.0895 25.609 75.0747 27.2744 73.5525 28.5053C75.1472 27.4916 76.307 25.8262 77.8292 24.8125C78.5541 24.3056 79.4239 23.9436 80.3662 23.7988C81.2361 23.7264 82.1784 23.7988 83.1207 23.9436C86.89 24.5953 90.6593 25.2469 94.3561 25.8986C95.2984 26.0434 96.2407 26.2607 97.2555 26.2607C98.2703 26.3331 99.2851 26.2607 100.3 25.971C101.315 25.6814 102.257 25.0297 102.982 24.3056C103.707 23.5815 104.359 22.7126 104.794 21.8437C105.736 20.0335 106.316 18.1509 106.606 16.1959C106.896 14.2408 106.896 12.0686 105.954 10.186C105.809 9.82393 105.374 9.67911 105.084 9.89634C104.939 9.96875 104.794 10.1136 104.722 10.2584C104.432 11.1273 103.707 11.9238 102.909 12.4306C102.04 12.9375 101.097 13.0099 100.082 12.8651C99.0677 12.7203 97.9804 12.2858 96.8931 11.9962C95.8058 11.7066 94.646 11.5617 93.4862 11.4893C91.1667 11.4169 88.8471 11.779 86.745 12.6479C84.498 13.2995 82.5408 14.5305 80.9461 16.1235Z" fill="black"/>
<path d="M105.591 17.3544C104.722 17.4992 103.997 17.4268 103.272 17.282C102.547 17.1372 101.75 16.92 100.952 16.7751C100.155 16.6303 99.3576 16.5579 98.5603 16.5579C97.7629 16.5579 96.8931 16.5579 96.0958 16.7027C96.8206 17.1372 97.618 17.4268 98.4153 17.644C99.2127 17.8613 100.01 18.0785 100.807 18.2233C101.605 18.3681 102.402 18.4405 103.272 18.4405C104.142 18.3681 105.084 18.0061 105.591 17.3544Z" fill="black"/>
<path d="M104.432 20.83C102.837 20.7576 101.315 20.3232 99.865 19.7439C98.4153 19.1646 96.9656 18.5129 95.3709 18.0061C94.5735 17.7889 93.7037 17.644 92.8339 17.644C91.964 17.644 91.0942 17.7889 90.2968 18.0785C88.7022 18.5854 87.3249 19.5267 86.0926 20.6128C87.6149 20.0335 89.0646 19.4543 90.5868 19.1646C92.0365 18.875 93.4862 19.0198 95.0085 19.4543C96.4582 19.8163 97.9804 20.468 99.5751 20.83C101.17 21.2645 102.909 21.4093 104.432 20.83Z" fill="black"/>
<path d="M83.1932 7.79649C81.5985 8.30335 80.0038 9.09984 78.6266 9.96875C77.1768 10.9101 75.8721 11.9962 74.7123 13.3719C74.1324 14.0236 73.625 14.7477 73.1901 15.4718C72.7552 16.1959 72.3927 16.9924 72.1028 17.8613C71.5229 19.5267 71.3054 21.2645 71.5229 22.9299C71.8853 21.2645 72.3927 19.7439 73.1176 18.2957C73.8425 16.8476 74.7848 15.5442 75.7996 14.3133C76.8144 13.0823 78.0467 11.9962 79.2789 10.9101C80.5112 9.89634 81.8884 8.88262 83.1932 7.79649Z" fill="black"/>
<path d="M73.8425 10.8376C72.8277 11.4169 71.9578 12.2134 71.233 13.0823C70.5081 13.9512 69.8557 14.9649 69.4208 16.0511C68.9859 17.1372 68.6959 18.2957 68.551 19.4543C68.406 20.6128 68.4785 21.7713 68.7684 22.9299C69.0584 21.7713 69.3483 20.7576 69.6383 19.6715C69.9282 18.6578 70.3631 17.644 70.7256 16.6303C71.1605 15.6166 71.5954 14.6753 72.1753 13.734C72.6827 12.7927 73.2626 11.8514 73.8425 10.8376Z" fill="black"/>
<path d="M68.1885 14.096C67.5362 14.6029 67.0288 15.327 66.6663 16.1235C66.3039 16.8476 66.014 17.7165 65.9415 18.5129C65.7965 19.3819 65.7965 20.1783 65.9415 21.0472C66.0864 21.9161 66.3764 22.7126 66.8838 23.3643L67.1013 20.9748C67.1737 20.1783 67.2462 19.4543 67.3912 18.7302C67.5362 18.0061 67.6087 17.2096 67.7536 16.4855C67.8986 15.689 68.1161 14.8925 68.1885 14.096Z" fill="black"/>
<path d="M69.9282 27.9985C69.4933 28.795 69.3483 29.7363 69.4208 30.6776C69.4933 31.6189 69.6383 32.4878 69.9282 33.3567C70.2182 34.2256 70.5806 35.0221 71.088 35.8186C71.5954 36.5427 72.2478 37.2668 73.1176 37.7012C72.7552 36.9047 72.3927 36.1082 72.1028 35.3117C71.8129 34.5152 71.5954 33.7187 71.3055 32.9222C71.0155 32.1257 70.798 31.3293 70.5081 30.5328C70.2182 29.7363 70.0732 28.9398 69.9282 27.9985Z" fill="black"/>
<path d="M67.6086 28.2157C66.6663 29.5914 66.5214 31.4017 66.9563 32.9947C67.1737 33.7911 67.5362 34.5152 67.9711 35.2393C68.406 35.891 68.9859 36.5427 69.6383 36.9771C69.4933 36.1806 69.2033 35.4565 68.9859 34.7325C68.7684 34.0084 68.551 33.3567 68.3335 32.6326C68.116 31.9085 67.9711 31.2568 67.8986 30.5328C67.7536 29.7363 67.7536 29.0122 67.6086 28.2157Z" fill="black"/>
<path d="M65.2891 28.5777C64.7817 29.2294 64.4917 30.0983 64.2743 30.8948C64.1293 31.7637 64.1293 32.6326 64.2743 33.4291C64.4193 34.298 64.7092 35.0945 65.1441 35.8186C65.579 36.5427 66.1589 37.1943 66.8838 37.6288C66.5938 36.8323 66.3764 36.1082 66.1589 35.3841C65.9415 34.66 65.7965 33.936 65.6515 33.2119C65.5066 32.4878 65.4341 31.7637 65.3616 30.9672C65.3616 30.1707 65.3616 29.3742 65.2891 28.5777Z" fill="black"/>
<path d="M62.7521 29.4466C62.0997 29.8811 61.4473 30.6052 61.2299 31.4741C61.0124 32.343 61.0124 33.2119 61.1574 34.0084C61.3023 34.8049 61.5923 35.6738 62.0272 36.3978C62.4621 37.1219 63.1145 37.7736 63.8394 38.1357C63.5494 37.3392 63.2595 36.6875 63.042 35.9634C62.8246 35.2393 62.6796 34.5876 62.5346 33.8635C62.3896 33.1395 62.3172 32.4154 62.3172 31.6913C62.3172 31.0396 62.5346 30.3155 62.7521 29.4466Z" fill="black"/>
<path d="M88.0498 32.6326C87.9048 31.9085 87.6149 31.2568 87.035 30.75C86.745 30.4603 86.3826 30.2431 85.9477 30.0983C85.5128 29.9535 85.0778 29.9535 84.6429 30.0259C83.8456 30.1707 83.1932 30.6052 82.6858 31.1844C82.1784 31.7637 81.8884 32.4154 81.8884 33.1395C82.4683 32.705 82.9032 32.2706 83.4107 32.0533C83.9181 31.7637 84.4255 31.5465 84.9329 31.4741C85.4403 31.4017 85.8027 31.4017 86.3101 31.6189C86.89 31.8361 87.3974 32.2706 88.0498 32.6326Z" fill="black"/>
<path d="M100.59 30.1707C100.445 29.519 100.082 28.9398 99.5751 28.5053C99.2851 28.2881 98.9227 28.0709 98.5603 27.9985C98.1978 27.9261 97.6904 27.9261 97.328 28.0709C96.6032 28.3605 96.0958 28.795 95.6608 29.3018C95.2259 29.8087 94.936 30.4604 94.936 31.112C95.5159 30.75 95.9508 30.4604 96.4582 30.1707C96.8931 29.8811 97.4005 29.5914 97.8354 29.4466C98.1979 29.3018 98.4878 29.3018 98.9952 29.4466C99.5026 29.6639 100.01 29.9535 100.59 30.1707Z" fill="black"/>
<path d="M92.5439 37.1219C92.6889 39.2942 93.4138 41.394 94.4286 43.2767C94.7185 43.7835 94.936 44.218 95.2259 44.6524C95.3709 44.8696 95.5159 45.0869 95.6608 45.3041C95.7333 45.4489 95.8058 45.5213 95.8058 45.5213C95.8058 45.5213 95.8058 45.5213 95.8058 45.4489C95.8058 45.4489 95.8058 45.4489 95.7333 45.4489C94.8635 45.9558 93.8487 46.3902 92.8339 46.6074C93.9212 46.6074 95.0085 46.3902 96.0233 45.9558C96.0958 45.9558 96.1682 45.8834 96.3132 45.7385C96.3857 45.5937 96.3857 45.3765 96.3857 45.3041C96.3132 45.0869 96.2407 45.0145 96.1682 44.8696C96.0233 44.6524 95.8783 44.4352 95.7333 44.218C95.4434 43.7835 95.2259 43.3491 94.936 42.8422C94.0661 41.032 93.2688 39.1494 92.5439 37.1219Z" fill="black"/>
<path d="M96.5307 52.6173C95.3709 52.3277 94.1386 52.1829 93.0513 51.8209C91.964 51.5312 90.9492 51.0244 90.0069 50.2279C90.2244 50.8071 90.6593 51.314 91.1667 51.676C91.6741 52.0381 92.254 52.3277 92.8339 52.4725C94.1386 52.907 95.3709 52.907 96.5307 52.6173Z" fill="black"/>
<path d="M90.2244 49.0693C89.7894 49.4314 89.572 49.8658 89.427 50.3003C89.282 50.7347 89.2096 51.1692 89.282 51.7485C89.717 51.3864 89.9344 50.952 90.0794 50.5175C90.2968 50.0831 90.3693 49.5762 90.2244 49.0693Z" fill="black"/>
<path d="M81.9609 46.2454C81.9609 47.5488 82.9757 48.8521 84.4255 48.9245C85.1503 48.9969 85.8752 48.7073 86.3826 48.2728C86.89 47.766 87.2524 47.0419 87.2524 46.3178C87.2524 45.5937 86.9625 44.8696 86.3826 44.3628C85.8752 43.8559 85.0778 43.6387 84.4255 43.7111C83.0482 43.6387 81.9609 44.942 81.9609 46.2454ZM81.9609 46.2454C81.9609 45.5937 82.2509 44.9421 82.7583 44.5076C83.2657 44.0731 83.8456 43.8559 84.4979 43.9283C85.7302 44.0007 86.6001 45.0869 86.6001 46.2454C86.6001 47.3315 85.7302 48.4901 84.4979 48.5625C83.9181 48.6349 83.2657 48.4177 82.7583 47.9832C82.2509 47.5488 81.9609 46.8971 81.9609 46.2454Z" fill="black"/>
<path d="M99.9375 44.9421C99.9375 45.811 100.3 46.6074 101.025 47.1867C101.387 47.4764 101.822 47.6936 102.33 47.766C102.837 47.8384 103.344 47.8384 103.852 47.6212C103.997 47.5488 104.069 47.4039 104.142 47.2591V47.1143C104.432 45.6661 104.504 44.1456 104.287 42.6974V42.5526C104.287 42.4078 104.142 42.2629 103.997 42.1905C103.489 41.9733 102.982 41.9009 102.475 41.9733C101.967 42.0457 101.532 42.2629 101.17 42.5526C100.3 43.2767 99.9375 44.1456 99.9375 44.9421ZM99.9375 44.9421C99.9375 44.5076 100.082 44.0732 100.3 43.7111C100.517 43.3491 100.88 43.1318 101.242 42.987C101.605 42.8422 102.04 42.8422 102.402 42.9146C102.764 42.987 103.054 43.1318 103.344 43.3491L103.054 42.8422C102.909 44.2904 102.909 45.6661 102.982 47.1143L103.272 46.6799C102.764 47.0419 101.967 47.2591 101.242 46.8971C100.88 46.7523 100.517 46.4626 100.3 46.1006C100.082 45.811 99.9375 45.3765 99.9375 44.9421Z" fill="black"/>
<path d="M85.9477 41.3216C85.4272 41.3216 85.0053 40.1221 85.0053 38.6425C85.0053 37.1629 85.4272 35.9634 85.9477 35.9634C86.4681 35.9634 86.89 37.1629 86.89 38.6425C86.89 40.1221 86.4681 41.3216 85.9477 41.3216Z" fill="black"/>
<path d="M98.7053 39.439C98.1448 39.439 97.6905 38.1747 97.6905 36.6151C97.6905 35.0555 98.1448 33.7911 98.7053 33.7911C99.2657 33.7911 99.7201 35.0555 99.7201 36.6151C99.7201 38.1747 99.2657 39.439 98.7053 39.439Z" fill="black"/>
<path d="M93.4862 61.596C93.2688 62.5373 93.1963 63.551 93.1238 64.4923C93.0513 65.4337 93.0513 66.375 93.0513 67.3163C93.0513 68.2576 93.0513 69.1989 93.1238 70.1402C93.1963 71.0815 93.2688 72.0228 93.4862 73.0365C93.8487 72.0952 94.0661 71.1539 94.2111 70.2126C94.3561 69.2713 94.4286 68.2576 94.4286 67.3163C94.4286 66.375 94.3561 65.3613 94.2111 64.4199C94.0661 63.4786 93.9212 62.5373 93.4862 61.596Z" fill="black"/>
<path d="M28.6835 117.423C29.7708 113.73 31.0756 110.182 32.6703 106.706C34.265 103.231 36.0771 99.8277 38.1792 96.7141C40.2813 93.6006 42.7459 90.5594 45.9353 88.7492C47.53 87.8803 49.3421 87.2286 51.0818 87.1562C52.8939 87.0114 54.7061 87.4458 56.2283 88.3147C57.7505 89.256 58.9828 90.6318 59.9251 92.1524C60.8674 93.7454 61.3748 95.4832 61.5923 97.2934C62.0272 100.986 61.3748 104.751 60.4325 108.372C58.4754 115.685 55.0685 122.636 50.4294 128.646L51.0818 128.501C47.4575 126.329 43.8331 124.302 40.0639 122.419C36.2946 120.537 32.5253 118.799 28.611 117.206C32.3803 119.016 36.0771 120.899 39.7739 122.998C43.3982 125.026 47.0225 127.126 50.5744 129.37C50.7918 129.515 51.0818 129.443 51.2268 129.298C56.1558 123.288 59.7077 116.264 61.7373 108.734C62.7521 105.041 63.5494 101.059 63.042 97.0762C62.5346 93.1661 60.505 89.1836 56.9532 87.0838C55.2135 85.9977 53.0389 85.6356 51.0093 85.7804C48.9797 85.9253 47.0226 86.6493 45.2829 87.5907C43.5432 88.6044 42.0935 89.9801 40.7887 91.4283C39.484 92.8765 38.3967 94.4695 37.3819 96.1348C35.3522 99.3932 33.6126 102.869 32.1629 106.417C30.7131 109.965 29.4809 113.658 28.6835 117.423Z" fill="#174075"/>
<path d="M52.749 126.329C51.0818 124.881 49.2696 123.65 47.4575 122.492C45.6453 121.333 43.6882 120.247 41.8035 119.233C39.8464 118.219 37.8893 117.351 35.8597 116.554C33.8301 115.758 31.8004 115.033 29.6259 114.527C31.5105 115.613 33.4676 116.626 35.3523 117.568L41.0787 120.537L46.8776 123.505C48.8347 124.447 50.7918 125.46 52.749 126.329Z" fill="#174075"/>
<path d="M45.7903 125.895C44.848 126.981 44.1231 128.212 43.3982 129.443C42.7459 130.674 42.0935 131.977 41.5861 133.28C41.0787 134.584 40.5713 135.96 40.2088 137.335C39.8464 138.711 39.5565 140.087 39.4115 141.535C40.1363 140.304 40.7163 139.001 41.2237 137.697C41.8035 136.394 42.311 135.163 42.8908 133.86C43.3983 132.556 43.9056 131.253 44.413 129.95C44.9204 128.646 45.4279 127.343 45.7903 125.895Z" fill="black"/>
<path d="M30.0608 117.857C26.7264 124.157 24.0444 130.819 22.0873 137.697C21.5799 139.435 21 141.173 21 143.056C21 143.997 21.145 145.011 21.5799 145.88C22.0148 146.748 22.5947 147.545 23.2471 148.197C23.8994 148.848 24.5518 149.5 25.2042 150.079L27.1613 151.889L31.1481 155.437C36.512 160.144 41.9485 164.706 47.6749 168.978C49.1247 170.064 50.5019 171.078 52.0241 172.091L54.1987 173.612L55.286 174.336C55.6484 174.553 56.0833 174.843 56.5907 174.988C57.6055 175.277 58.5479 174.915 59.4177 174.698C60.2875 174.408 61.0849 174.119 61.9547 173.829C63.6219 173.177 65.2891 172.453 66.8113 171.657C65.1441 172.381 63.4769 172.96 61.8097 173.467C60.9399 173.757 60.1426 173.974 59.2727 174.191C58.4029 174.408 57.5331 174.626 56.8082 174.336C56.0833 174.046 55.431 173.395 54.7061 172.888L52.604 171.295C51.2267 170.209 49.777 169.123 48.3998 168.036C42.8183 163.62 37.4544 158.985 32.1629 154.279L28.1761 150.731C26.8714 149.572 25.4941 148.341 24.2619 147.183C23.682 146.604 23.1746 145.952 22.8121 145.228C22.4497 144.504 22.3047 143.707 22.3047 142.911C22.3047 141.245 22.7397 139.58 23.1746 137.842C24.9867 131.108 27.2338 124.374 30.0608 117.857Z" fill="black"/>
<path d="M34.4099 139.001C36.947 140.014 39.194 141.68 41.2237 143.562C43.2533 145.445 45.0654 147.472 46.8776 149.572L57.678 162.099C57.8955 162.316 58.1129 162.389 58.4029 162.316C61.0124 161.447 63.6219 160.723 66.2314 160.072C67.5362 159.71 68.9134 159.42 70.2182 159.13C70.8705 158.985 71.5229 158.841 72.1753 158.768C72.8277 158.696 73.4076 158.841 73.9874 159.13C74.5673 159.42 75.1472 159.782 75.7271 160.144L77.3943 161.303C78.5541 162.099 79.6414 162.895 80.7287 163.692C81.816 164.488 82.9033 165.357 83.3382 166.661C83.5556 167.312 83.4107 168.036 82.9757 168.543C82.6133 169.123 81.9609 169.485 81.2361 169.34C81.8884 169.557 82.6133 169.195 83.0482 168.616C83.4831 168.036 83.7006 167.312 83.4831 166.588C83.3382 165.864 82.9032 165.285 82.4683 164.778C82.0334 164.271 81.4535 163.837 80.9461 163.33C79.8588 162.461 78.7715 161.592 77.6842 160.796L76.0171 159.565C75.4372 159.13 74.9298 158.768 74.2774 158.406C73.625 158.044 72.8277 157.827 72.1028 157.899C71.3779 157.899 70.6531 158.044 70.0007 158.117C68.6235 158.334 67.3187 158.623 65.9415 158.841C63.2595 159.42 60.5775 159.999 57.8955 160.796L58.6204 161.013L47.24 148.993C45.3554 146.966 43.4707 145.011 41.2961 143.2C39.339 141.463 37.0194 139.87 34.4099 139.001Z" fill="black"/>
<path d="M93.5587 72.6745C92.1815 73.1814 90.8043 73.6158 89.427 73.9779C88.0498 74.3399 86.6725 74.6295 85.2953 74.8468C83.9181 75.064 82.5408 75.1364 81.0911 75.2088C79.7139 75.2088 78.2641 75.2088 76.8144 75.1364C78.1192 75.7881 79.5689 76.1501 81.0911 76.3673C82.5408 76.5846 84.063 76.5846 85.5128 76.3673C86.9625 76.1501 88.4122 75.7157 89.7895 75.1364C91.2392 74.4847 92.5439 73.6882 93.5587 72.6745Z" fill="black"/>
<path d="M79.9313 86.3597C80.5837 90.5594 81.3086 94.7591 81.8884 98.8864C82.4683 103.086 83.1207 107.286 83.6281 111.485C84.498 119.885 85.9477 128.284 87.035 136.684C87.5424 140.883 88.0498 145.083 88.4122 149.355L89.427 162.027C90.0794 170.498 90.2244 178.898 90.0069 187.37L90.8042 186.645C88.4847 186.573 86.1651 186.501 83.8456 186.428C81.526 186.283 79.2065 186.139 76.8869 185.921C74.5673 185.704 72.2478 185.487 69.9282 185.125C67.6087 184.835 65.2891 184.473 62.9695 184.111L63.332 184.546C63.4769 180.998 63.6219 177.522 63.6944 173.974C63.6944 173.902 63.6944 173.902 63.6219 173.902C63.5494 173.902 63.5494 173.902 63.5494 173.974C63.187 177.45 62.8246 180.998 62.5346 184.473C62.5346 184.69 62.6796 184.835 62.8246 184.908C65.1441 185.415 67.3912 185.849 69.7108 186.211C72.0303 186.573 74.3499 186.935 76.6694 187.225C78.989 187.514 81.3086 187.732 83.7006 187.876C86.0202 188.021 88.4122 188.166 90.7318 188.166C91.1667 188.166 91.5291 187.804 91.5291 187.442C91.6016 183.17 91.5291 178.97 91.3841 174.698C91.3117 172.598 91.1667 170.426 91.0217 168.326L90.8042 165.14C90.7318 164.054 90.5868 163.04 90.4418 161.954C89.3545 153.555 88.4122 145.083 87.5424 136.684C86.745 128.212 86.0202 119.812 84.9329 111.341C84.353 107.141 83.6281 102.941 82.8308 98.814C82.0334 94.6143 81.0911 90.487 80.0763 86.3597C80.0763 86.2873 80.0038 86.2873 80.0038 86.2873C79.9313 86.2873 79.9313 86.3597 79.9313 86.3597Z" fill="#174075"/>
<path d="M56.7357 120.609C57.3156 123.94 58.1854 127.126 59.2002 130.384C60.1426 133.57 61.2299 136.756 62.0997 139.942C63.042 143.128 63.7669 146.314 64.2743 149.645C64.7817 152.903 64.9267 156.234 64.7092 159.565C65.5065 156.306 65.6515 152.903 65.3616 149.5C65.0716 146.097 64.3468 142.838 63.4769 139.58C62.5346 136.322 61.4473 133.208 60.2151 130.022C59.0553 126.908 57.8955 123.795 56.7357 120.609Z" fill="#174075"/>
<path d="M126.54 156.596C126.685 157.465 126.975 158.189 127.047 158.913C127.192 159.637 127.192 160.289 126.975 160.796C126.757 161.375 126.323 162.027 125.888 162.678C125.453 163.33 125.09 164.054 124.8 164.851C125.525 164.416 126.178 163.909 126.757 163.33C127.337 162.751 127.917 162.171 128.352 161.23C128.715 160.289 128.57 159.203 128.207 158.479C127.772 157.754 127.192 157.103 126.54 156.596Z" fill="black"/>
<path d="M127.917 160.796C127.845 161.809 128.352 162.678 128.497 163.475C128.715 164.271 128.497 164.706 127.99 165.502C127.555 166.299 127.12 167.023 126.612 167.602C126.105 168.181 125.453 168.688 124.51 168.833C124.945 169.123 125.453 169.123 125.96 169.05C126.467 168.978 126.975 168.761 127.41 168.471C128.28 167.892 128.787 167.023 129.294 166.226C129.512 165.864 129.802 165.357 129.874 164.778C129.947 164.199 129.802 163.547 129.584 163.113C129.077 162.099 128.425 161.592 127.917 160.796Z" fill="black"/>
<path d="M129.222 164.778C129.222 165.285 129.294 165.792 129.294 166.299L129.367 167.023C129.367 167.24 129.439 167.53 129.439 167.674C129.439 167.819 129.439 167.819 129.294 167.964C129.222 168.109 129.005 168.326 128.86 168.471C128.57 168.833 128.28 169.195 127.99 169.557L127.192 170.716C126.902 171.078 126.612 171.367 126.323 171.584C126.033 171.802 125.743 171.947 125.308 171.874C124.945 171.874 124.51 171.657 124.293 171.15C124.22 171.367 124.293 171.729 124.438 171.947C124.583 172.164 124.8 172.381 125.09 172.526C125.38 172.671 125.67 172.743 125.96 172.743C126.25 172.743 126.54 172.671 126.83 172.526C127.41 172.309 127.772 171.874 128.135 171.512C128.497 171.15 128.787 170.716 129.077 170.354C129.367 169.992 129.657 169.557 129.947 169.123C130.092 168.905 130.237 168.761 130.382 168.471C130.454 168.326 130.527 168.181 130.599 167.964C130.599 167.747 130.599 167.53 130.527 167.385C130.454 167.095 130.309 166.878 130.237 166.661L129.874 166.009C129.802 165.647 129.512 165.213 129.222 164.778Z" fill="black"/>
<path d="M96.3132 83.1013C96.5307 87.301 96.8206 91.5007 97.0381 95.7728L97.9079 108.372C98.4878 116.771 99.1402 125.243 99.7926 133.642C100.155 137.842 100.517 142.042 100.88 146.242L102.04 158.841C102.475 163.04 102.837 167.24 103.199 171.44C103.634 175.639 103.852 179.839 104.069 184.039C104.069 184.184 104.214 184.256 104.287 184.256C106.824 184.184 109.361 183.894 111.825 183.315C114.29 182.808 116.754 182.084 119.146 181.215C120.306 180.78 121.538 180.274 122.626 179.694C123.206 179.405 123.786 179.115 124.365 178.825C124.655 178.681 124.945 178.536 125.235 178.319C125.38 178.174 125.525 178.029 125.67 177.812C125.815 177.594 125.815 177.377 125.815 177.16C125.815 176.726 125.743 176.436 125.743 176.146L125.598 175.205L125.38 173.322L124.873 169.557C123.641 159.565 122.626 149.5 121.973 139.435L121.538 131.905C121.393 129.37 121.248 126.836 121.248 124.374C121.176 119.306 121.248 114.309 121.248 109.241C121.248 104.172 121.393 99.176 121.538 94.1074C121.611 91.5731 121.756 89.0388 121.901 86.5769C121.973 85.346 122.046 84.0426 122.191 82.8117C122.263 81.5807 122.481 80.2774 122.626 79.0464C122.626 78.9016 122.553 78.7568 122.481 78.6844C121.248 77.7431 120.016 76.9466 118.711 76.2949C117.407 75.5708 116.029 75.064 114.652 74.4847C113.275 73.9778 111.825 73.5434 110.376 73.1814C109.651 72.9641 108.926 72.8917 108.201 72.6745C107.476 72.5297 106.751 72.4573 106.026 72.3125C105.954 72.3125 105.954 72.3125 105.954 72.3849C105.954 72.4573 105.954 72.4573 106.026 72.4573C106.751 72.6021 107.476 72.7469 108.201 72.8917C108.926 73.109 109.651 73.2538 110.303 73.471C111.68 73.9054 113.13 74.3399 114.435 74.9192C115.812 75.4984 117.117 76.1501 118.349 76.8018C119.581 77.5259 120.886 78.3224 121.973 79.1913L121.828 78.8292C121.611 80.0602 121.393 81.2911 121.248 82.5945C121.104 83.8254 120.959 85.1288 120.814 86.3597C120.596 88.894 120.379 91.4283 120.234 93.9626C119.944 99.0312 119.799 104.1 119.654 109.168C119.581 114.237 119.509 119.306 119.581 124.374C119.654 129.443 120.016 134.511 120.379 139.58C121.104 149.645 122.191 159.782 123.641 169.774L124.8 177.232C124.8 177.45 124.728 177.522 124.583 177.739C124.438 177.884 124.148 178.029 123.858 178.174C123.351 178.463 122.771 178.753 122.191 179.043C121.104 179.622 119.944 180.129 118.784 180.636C116.464 181.577 114.072 182.373 111.608 182.88C109.143 183.387 106.679 183.749 104.142 183.822L104.649 184.039C104.359 179.839 104.142 175.639 103.779 171.44C103.417 167.24 103.199 163.04 102.909 158.841L102.04 146.242C101.75 142.042 101.387 137.842 101.097 133.642C100.445 125.243 99.6476 116.844 98.9227 108.444L97.7629 95.8452C97.328 91.6455 96.9656 87.4458 96.4582 83.2461C96.4582 83.1737 96.3857 83.1737 96.3857 83.1737C96.3857 83.0289 96.3132 83.1013 96.3132 83.1013Z" fill="#174075"/>
<path d="M70.7981 163.113C71.5229 163.258 72.3203 163.185 72.9726 163.185C73.3351 163.185 73.625 163.258 73.915 163.402C74.2049 163.547 74.4224 163.692 74.6398 163.909C75.7271 164.851 76.8144 165.792 77.8292 166.733C78.844 167.674 79.8588 168.688 80.7287 169.774C80.9461 170.064 81.1636 170.354 81.3086 170.571C81.4535 170.86 81.526 171.005 81.526 171.295C81.4535 171.874 80.8012 172.309 80.1488 172.671C80.5112 172.598 80.8736 172.526 81.2361 172.381C81.5985 172.236 81.9609 171.947 82.1784 171.512C82.3959 171.078 82.3234 170.498 82.1784 170.136C82.0334 169.702 81.816 169.412 81.671 169.123C80.9461 167.819 79.9313 166.661 78.844 165.647C77.7567 164.633 76.5245 163.764 75.3647 162.968C75.0747 162.751 74.6398 162.533 74.2049 162.461C73.77 162.389 73.3351 162.389 72.9726 162.461C72.1753 162.678 71.5229 162.968 70.7981 163.113Z" fill="black"/>
<path d="M68.6959 166.516C69.5658 166.588 70.4356 166.661 71.233 166.733C71.6679 166.733 72.1028 166.733 72.3928 166.806C72.6827 166.878 72.9002 167.095 73.2626 167.385C74.4949 168.471 75.7996 169.557 77.0319 170.716C77.6118 171.295 78.2641 171.874 78.844 172.453C78.989 172.598 79.134 172.743 79.2065 172.888C79.3514 173.033 79.4239 173.178 79.4964 173.25C79.4964 173.25 79.4964 173.322 79.4964 173.395C79.4239 173.54 79.3514 173.757 79.279 173.902C79.134 174.264 78.9165 174.553 78.6991 174.77C78.4816 174.988 78.2641 174.988 77.9017 174.915C77.5393 174.843 77.1044 174.553 76.6694 174.481C76.2345 174.336 75.8721 174.264 75.4372 174.119C75.7996 174.336 76.162 174.626 76.5245 174.843C76.8869 175.06 77.1768 175.277 77.6118 175.567C77.8292 175.712 78.0467 175.784 78.3366 175.784C78.6266 175.784 78.9165 175.712 79.2065 175.567C79.7139 175.277 80.0038 174.915 80.2937 174.481C80.4387 174.264 80.5112 174.119 80.6562 173.902C80.7287 173.757 80.8012 173.612 80.8012 173.395C80.8736 173.177 80.8012 172.96 80.7287 172.743C80.5837 172.381 80.4387 172.236 80.3662 172.019C80.2213 171.802 80.0763 171.657 79.9313 171.44C79.3514 170.788 78.6991 170.209 78.1192 169.557C76.8144 168.399 75.5097 167.312 74.0599 166.371C73.6975 166.154 73.2626 165.792 72.6827 165.792C72.1753 165.792 71.7404 165.864 71.3055 165.937C70.3631 166.154 69.4933 166.299 68.6959 166.516Z" fill="black"/>
<path d="M65.7965 168.181C67.5362 168.109 69.3483 168.036 70.798 168.688C71.1605 168.833 71.5229 169.05 71.6679 169.267C71.9578 169.557 72.1753 169.847 72.4652 170.209C72.9726 170.86 73.4075 171.584 73.8425 172.309C74.0599 172.671 74.2049 173.033 74.3499 173.395C74.3499 173.467 74.4224 173.54 74.4224 173.612V173.684C74.4224 173.757 74.4224 173.902 74.3499 173.974C74.2049 174.191 74.0599 174.336 73.77 174.336C73.48 174.408 73.1901 174.336 72.8277 174.191C72.1753 173.902 71.4504 173.395 70.798 172.888C70.1457 172.381 69.4933 171.802 68.8409 171.222L68.7684 171.15C68.6959 171.078 68.6235 171.078 68.551 171.078C67.8261 171.295 67.0288 171.512 66.3039 171.729C67.1013 171.729 67.8986 171.729 68.6235 171.657L68.3335 171.584C68.8409 172.309 69.4208 173.033 70.0732 173.684C70.7255 174.336 71.3779 174.915 72.3203 175.422C72.8277 175.639 73.3351 175.784 73.9874 175.712C74.6398 175.639 75.2197 175.205 75.5821 174.698C75.7271 174.408 75.8721 174.119 75.8721 173.757C75.8721 173.684 75.8721 173.54 75.8721 173.467L75.7996 173.25C75.7996 173.105 75.7271 172.96 75.6546 172.888C75.4372 172.381 75.2197 172.019 75.0022 171.584C74.4948 170.788 73.9874 170.064 73.4075 169.34C73.1176 168.978 72.8277 168.688 72.4652 168.326C72.0303 167.964 71.5954 167.747 71.088 167.602C70.1457 167.312 69.2033 167.312 68.3335 167.385C67.4637 167.674 66.5938 167.892 65.7965 168.181Z" fill="black"/>
<path d="M67.1737 170.426C66.8838 170.426 66.6663 170.498 66.5213 170.571C66.3764 170.643 66.3039 170.716 66.3039 170.788C66.3039 170.86 66.3039 170.933 66.3764 171.078C66.4489 171.15 66.5938 171.295 66.8838 171.512C67.1737 171.512 67.3912 171.44 67.4637 171.44C67.6087 171.367 67.6811 171.295 67.6811 171.222C67.6811 171.15 67.6811 171.005 67.6086 170.933C67.6086 170.643 67.4637 170.571 67.1737 170.426Z" fill="black"/>
<path d="M65.9415 170.716C65.7965 171.005 65.7965 171.222 65.7965 171.367C65.7965 171.512 65.869 171.657 65.9415 171.729C66.014 171.802 66.1589 171.874 66.3039 171.874C66.4489 171.874 66.6663 171.802 66.9563 171.657C67.1013 171.367 67.1013 171.15 67.1013 171.005C67.1013 170.86 67.0288 170.716 66.9563 170.643C66.8838 170.571 66.7388 170.498 66.5938 170.571C66.3764 170.498 66.2314 170.571 65.9415 170.716Z" fill="black"/>
<path d="M102.112 153.7C101.097 153.265 100.01 153.048 98.9952 152.903C97.9079 152.831 96.8206 152.831 95.8058 152.903C94.7185 152.976 93.7037 153.12 92.6889 153.338C91.6741 153.555 90.6593 153.772 89.572 154.062C90.6593 154.351 91.6741 154.424 92.7614 154.496C93.8487 154.496 94.8635 154.496 95.8783 154.424C96.8931 154.351 97.9079 154.206 98.9952 154.134C100.01 153.917 101.025 153.844 102.112 153.7Z" fill="black"/>
<path d="M102.33 156.306C101.315 156.017 100.227 155.872 99.2127 155.799C98.1978 155.727 97.1106 155.655 96.0958 155.727C95.0809 155.727 93.9936 155.799 92.9788 155.944C92.4714 156.017 91.964 156.089 91.4566 156.161C90.9492 156.306 90.3693 156.451 89.9344 156.741C90.4418 156.741 90.9492 156.741 91.4566 156.813C91.964 156.886 92.4714 156.958 93.0513 156.958C94.0661 157.03 95.1534 157.103 96.1682 157.03C97.183 157.03 98.2703 156.958 99.2851 156.813C100.227 156.813 101.315 156.596 102.33 156.306Z" fill="black"/>
<path d="M102.475 158.696C101.46 158.479 100.372 158.406 99.3576 158.406C98.3428 158.406 97.2555 158.479 96.2407 158.551C95.2259 158.623 94.2111 158.841 93.1963 158.985C92.1815 159.203 91.1667 159.42 90.1519 159.71C91.1667 159.999 92.254 160.072 93.2688 160.072C94.2836 160.072 95.3709 160.072 96.3857 159.927C97.4005 159.782 98.4153 159.637 99.4301 159.42C100.445 159.347 101.46 159.13 102.475 158.696Z" fill="black"/>
<path d="M66.0864 73.1814C64.3468 74.1227 62.6796 75.1364 61.0124 76.2949C59.3452 77.3811 57.7505 78.5396 56.2283 79.6981C54.6336 80.8567 53.1114 82.0876 51.5892 83.391C50.067 84.6219 48.6173 85.9253 47.24 87.3734C48.9797 86.4321 50.6469 85.4184 52.314 84.2599C53.9812 83.1737 55.5759 82.0152 57.0981 80.8567C58.6928 79.6981 60.2151 78.4672 61.7373 77.1638C63.2595 75.9329 64.7092 74.6295 66.0864 73.1814Z" fill="#174075"/>
<path d="M66.5938 80.2774C65.724 80.7843 64.9267 81.4359 64.1293 82.0876C63.4045 82.7393 62.6796 83.4634 61.9547 84.1875C61.3024 84.9115 60.65 85.708 59.9976 86.5045C59.4177 87.301 58.8378 88.1699 58.4029 89.1112C59.2727 88.6044 60.0701 87.9527 60.8674 87.301C61.5923 86.6493 62.3172 85.9253 63.042 85.2012C63.6944 84.4771 64.3468 83.6806 64.9992 82.8841C65.579 82.0152 66.1589 81.2187 66.5938 80.2774Z" fill="#174075"/>
<path d="M121.973 82.2324C120.959 81.4359 119.871 80.7843 118.784 80.1326C117.697 79.4809 116.537 78.974 115.377 78.3948C114.217 77.8879 113.058 77.3811 111.825 76.9466C110.665 76.5122 109.433 76.1501 108.128 75.9329C109.143 76.7294 110.231 77.3811 111.318 78.0327C112.405 78.612 113.565 79.1913 114.725 79.7705C115.884 80.2774 117.044 80.7843 118.277 81.1463C119.509 81.6532 120.741 82.0152 121.973 82.2324Z" fill="#174075"/>
<path d="M138.065 111.63C140.602 115.685 143.067 119.74 145.459 123.867C146.039 124.881 146.619 125.967 147.126 126.981C147.633 127.995 148.141 129.081 148.503 130.167C148.576 130.312 148.576 130.456 148.576 130.529V130.819C148.576 130.891 148.503 131.036 148.503 131.108C148.503 131.181 148.431 131.325 148.358 131.47C148.141 131.977 147.923 132.484 147.633 132.991C147.126 134.005 146.546 135.091 145.966 136.104C143.647 140.232 141.11 144.286 138.645 148.341C136.181 152.396 133.716 156.451 131.252 160.578C131.252 160.578 131.252 160.578 131.252 160.651C130.744 162.533 130.164 164.416 129.657 166.299C130.382 164.488 131.034 162.678 131.759 160.796V160.868C134.513 156.958 137.195 153.048 139.805 148.993C141.11 146.966 142.414 145.011 143.647 142.911C144.879 140.883 146.111 138.856 147.271 136.756C147.851 135.742 148.431 134.656 148.938 133.57C149.228 132.991 149.446 132.484 149.663 131.832C149.736 131.687 149.736 131.543 149.808 131.325C149.808 131.108 149.881 130.963 149.881 130.746V130.456L149.808 130.167C149.808 130.022 149.736 129.805 149.663 129.66C148.866 127.271 147.561 125.243 146.329 123.216C143.792 119.233 141.037 115.396 138.065 111.63Z" fill="black"/>
<path d="M135.021 131.398C134.658 130.312 134.151 129.298 133.571 128.357C132.991 127.415 132.411 126.474 131.759 125.533C131.107 124.591 130.454 123.722 129.657 122.926C128.932 122.13 128.135 121.261 127.192 120.609C127.7 121.623 128.135 122.636 128.715 123.578C129.294 124.519 129.874 125.46 130.527 126.402C131.179 127.27 131.831 128.212 132.556 129.008C133.354 129.877 134.151 130.674 135.021 131.398Z" fill="black"/>
<path d="M140.892 130.022C139.732 129.515 138.283 129.515 137.05 130.094C136.398 130.312 135.891 130.746 135.311 131.181C135.093 131.398 134.803 131.615 134.586 131.905C134.368 132.194 134.151 132.412 133.934 132.701C132.484 134.946 131.542 137.263 130.454 139.652C129.512 142.042 128.57 144.431 127.7 146.821L126.612 150.007C126.178 150.224 125.525 150.441 124.945 150.586C124.365 150.731 123.713 150.948 123.133 151.093H123.061C122.771 151.165 122.553 151.455 122.626 151.745C122.626 151.817 122.698 151.962 122.771 152.034L125.598 154.858C125.96 155.148 126.178 155.437 126.178 155.727C126.178 156.017 126.033 156.451 125.815 156.813C125.598 157.175 125.38 157.61 125.163 157.972C124.728 158.696 124.148 159.42 123.641 160.144C124.293 159.565 124.945 158.913 125.525 158.189C125.815 157.827 126.105 157.465 126.323 157.103C126.54 156.741 126.902 156.306 126.902 155.727C126.902 155.437 126.83 155.148 126.685 154.858C126.54 154.641 126.395 154.424 126.25 154.279L123.641 151.238L123.496 152.179C124.148 152.034 124.8 151.962 125.38 151.817C126.033 151.672 126.612 151.527 127.337 151.165C127.482 151.093 127.555 151.093 127.7 150.876C127.772 150.731 127.845 150.731 127.845 150.658L127.917 150.514L128.135 150.007L128.497 149.138L129.149 147.328C130.019 144.938 130.889 142.549 131.831 140.159C132.266 139.001 132.774 137.77 133.209 136.611C133.716 135.453 134.151 134.222 134.803 133.208C135.383 132.122 136.253 131.253 137.268 130.601C138.355 130.022 139.66 129.805 140.892 130.022Z" fill="black"/>
<path d="M120.596 123.071C121.756 122.926 122.916 122.492 124.003 122.057C125.09 121.623 126.178 121.116 127.192 120.537C128.28 120.03 129.294 119.378 130.309 118.799C131.324 118.219 132.339 117.568 133.281 116.844C135.238 115.396 136.906 113.658 138.355 111.703C139.732 109.748 140.892 107.575 141.545 105.186C141.617 104.969 141.545 104.824 141.472 104.679C139.95 102.507 138.428 100.335 136.833 98.1623L132.121 91.7179C130.527 89.5457 128.932 87.4458 127.337 85.2736L124.873 82.0876C124.438 81.5808 124.075 81.0015 123.641 80.4946L122.336 78.974C123.93 81.1463 125.235 83.4634 126.757 85.6356C128.207 87.8803 129.657 90.0525 131.179 92.2972L135.673 98.8864C137.195 101.059 138.718 103.231 140.24 105.403L140.095 104.824C139.515 106.924 138.428 109.024 137.195 110.906C135.891 112.789 134.368 114.527 132.556 115.975C130.744 117.423 128.787 118.726 126.757 119.957C125.743 120.609 124.728 121.188 123.713 121.695C122.843 122.274 121.756 122.854 120.596 123.071Z" fill="#174075"/>
<path d="M139.37 102.796C137.993 104.534 136.688 106.272 135.311 107.937C133.934 109.603 132.556 111.268 131.034 112.789C129.512 114.309 127.917 115.685 126.178 116.844C124.293 117.93 122.408 119.016 120.596 120.319C122.698 119.595 124.728 118.799 126.685 117.857C128.715 116.844 130.454 115.396 132.049 113.803C133.571 112.21 134.948 110.472 136.181 108.589C137.413 106.779 138.5 104.824 139.37 102.796Z" fill="#174075"/>
<path d="M121.176 342.975C120.741 342.251 119.871 341.889 119.001 341.889C118.132 341.817 117.334 342.107 116.537 342.324C115.812 342.541 115.087 342.831 114.435 342.831L113.855 342.903C113.71 342.903 113.492 342.903 113.347 342.903C113.203 342.903 112.985 342.903 112.84 342.903H112.55C112.478 342.903 112.26 342.903 112.405 342.903C112.405 342.903 112.55 342.975 112.623 343.048C112.695 343.12 112.695 343.193 112.768 343.265C112.768 343.337 112.768 343.193 112.768 343.12L112.695 342.541L112.623 341.382C112.55 340.586 112.478 339.862 112.333 339.065C112.115 337.545 111.898 335.952 111.463 334.431C111.245 336.024 111.173 337.545 111.173 339.138C111.173 339.934 111.173 340.731 111.173 341.455L111.245 342.613V343.193C111.245 343.265 111.245 343.337 111.318 343.627C111.318 343.772 111.39 343.917 111.535 344.062C111.68 344.206 111.825 344.279 111.97 344.351C112.26 344.424 112.26 344.424 112.405 344.424H112.695C112.913 344.424 113.13 344.424 113.347 344.424C113.565 344.424 113.782 344.424 114 344.351C114.217 344.351 114.435 344.279 114.58 344.279C115.522 344.062 116.247 343.7 116.972 343.337C117.697 343.048 118.349 342.686 119.001 342.541C119.726 342.469 120.524 342.541 121.176 342.975Z" fill="black"/>
<path d="M126.395 333.997C128.86 332.404 131.469 331.028 134.151 330.087C135.528 329.652 136.906 329.29 138.283 329.073C139.66 328.856 141.11 328.783 142.487 328.856C145.314 329.001 148.068 329.725 150.533 331.1C151.765 331.825 152.997 332.549 153.65 333.707C154.012 334.286 154.157 334.866 154.157 335.517C154.157 336.169 153.867 336.748 153.36 337.183L153.287 337.255C153.142 337.4 153.142 337.545 153.215 337.69C153.287 337.762 153.287 337.762 153.36 337.762C153.94 337.907 154.375 338.558 154.447 339.283C154.52 340.007 154.302 340.731 154.085 341.455C154.447 340.803 154.81 340.079 154.81 339.21C154.81 338.776 154.737 338.341 154.52 337.979C154.302 337.617 154.012 337.255 153.577 337.038L153.65 337.617C154.375 337.183 154.81 336.314 154.955 335.517C155.1 334.721 154.882 333.78 154.52 333.128C153.722 331.68 152.418 330.738 151.113 329.942C149.808 329.145 148.431 328.566 146.909 328.132C145.459 327.697 143.937 327.48 142.414 327.408C139.37 327.263 136.326 327.914 133.571 329.073C131.034 330.304 128.497 331.969 126.395 333.997Z" fill="black"/>
<path d="M153.867 341.817C151.185 341.962 148.503 342.034 145.749 342.034H137.63C134.948 342.034 132.194 342.107 129.512 342.251C126.83 342.396 124.075 342.541 121.393 342.903C124.075 343.193 126.83 343.337 129.512 343.41C132.194 343.482 134.948 343.555 137.63 343.482C140.312 343.482 143.067 343.41 145.749 343.193C148.503 342.903 151.258 342.541 153.867 341.817Z" fill="black"/>
<path d="M153.215 337.617L142.994 337.545C139.588 337.545 136.181 337.545 132.774 337.545C129.367 337.617 125.96 337.617 122.553 337.834C119.146 337.979 115.74 338.269 112.333 338.776C115.74 338.921 119.146 338.921 122.553 338.993C125.96 339.065 129.367 339.065 132.774 339.065C136.181 338.993 139.588 338.921 142.994 338.703C146.401 338.486 149.808 338.124 153.215 337.617Z" fill="black"/>
<path d="M151.548 342.179C151.838 341.817 151.983 341.455 152.128 341.093C152.2 340.731 152.273 340.369 152.273 340.007C152.273 339.645 152.2 339.283 152.055 338.921C151.91 338.558 151.765 338.196 151.475 337.834C151.185 338.196 151.04 338.558 150.968 338.993C150.895 339.355 150.823 339.717 150.823 340.079C150.823 340.658 150.968 341.382 151.548 342.179Z" fill="black"/>
<path d="M147.923 337.907C147.633 338.341 147.489 338.703 147.416 339.065C147.344 339.427 147.271 339.789 147.344 340.224C147.344 340.586 147.416 340.948 147.561 341.382C147.706 341.744 147.851 342.107 148.213 342.469C148.503 342.107 148.648 341.672 148.721 341.31C148.793 340.948 148.866 340.514 148.793 340.151C148.793 339.789 148.721 339.355 148.576 338.993C148.358 338.631 148.213 338.269 147.923 337.907Z" fill="black"/>
<path d="M143.284 338.124C142.994 338.486 142.849 338.921 142.704 339.283C142.632 339.645 142.559 340.079 142.559 340.441C142.559 340.803 142.632 341.238 142.704 341.6C142.849 341.962 142.994 342.324 143.284 342.758C143.574 342.396 143.719 341.962 143.864 341.6C143.937 341.238 144.009 340.803 144.009 340.441C144.009 340.079 143.937 339.645 143.864 339.283C143.719 338.848 143.574 338.486 143.284 338.124Z" fill="black"/>
<path d="M139.37 338.196C139.08 338.559 138.935 338.993 138.79 339.355C138.718 339.717 138.645 340.079 138.645 340.514C138.645 340.876 138.718 341.238 138.79 341.672C138.935 342.034 139.08 342.396 139.37 342.831C139.66 342.469 139.805 342.034 139.95 341.672C140.022 341.31 140.095 340.948 140.095 340.514C140.095 340.152 140.022 339.789 139.95 339.355C139.877 338.921 139.732 338.559 139.37 338.196Z" fill="black"/>
<path d="M135.311 338.269C135.021 338.703 134.876 339.065 134.803 339.427C134.731 339.789 134.731 340.152 134.731 340.586C134.731 340.948 134.803 341.31 134.948 341.672C135.093 342.034 135.238 342.396 135.601 342.758C135.891 342.396 136.036 341.962 136.108 341.6C136.181 341.238 136.181 340.803 136.181 340.441C136.181 340.079 136.108 339.717 135.963 339.355C135.818 338.993 135.601 338.631 135.311 338.269Z" fill="black"/>
<path d="M131.904 342.758C132.194 342.396 132.339 342.034 132.484 341.6C132.556 341.238 132.629 340.876 132.629 340.441C132.629 340.079 132.556 339.717 132.484 339.283C132.339 338.921 132.194 338.559 131.904 338.196C131.614 338.559 131.469 338.921 131.324 339.355C131.252 339.717 131.179 340.079 131.179 340.514C131.179 340.876 131.252 341.238 131.324 341.6C131.469 342.034 131.614 342.396 131.904 342.758Z" fill="black"/>
<path d="M126.975 342.831C127.337 342.469 127.482 342.179 127.7 341.817C127.845 341.455 127.917 341.093 127.99 340.731C128.062 340.369 128.062 339.934 127.99 339.572C127.917 339.21 127.845 338.776 127.555 338.414C127.192 338.776 127.047 339.138 126.83 339.5C126.685 339.862 126.612 340.224 126.54 340.586C126.467 340.948 126.54 341.31 126.54 341.744C126.612 342.034 126.757 342.396 126.975 342.831Z" fill="black"/>
<path d="M123.568 342.831C123.858 342.469 124.003 342.106 124.148 341.744C124.293 341.382 124.293 341.02 124.293 340.658C124.293 340.296 124.22 339.934 124.148 339.572C124.003 339.21 123.858 338.848 123.568 338.486C123.278 338.848 123.133 339.21 122.988 339.572C122.843 339.934 122.843 340.296 122.843 340.658C122.843 341.02 122.916 341.382 122.988 341.744C123.133 342.106 123.278 342.469 123.568 342.831Z" fill="black"/>
<path d="M119.871 338.486C119.581 338.848 119.436 339.138 119.291 339.427C119.219 339.717 119.146 340.079 119.146 340.369C119.146 340.658 119.219 341.02 119.291 341.31C119.436 341.6 119.581 341.962 119.871 342.251C120.161 341.889 120.306 341.6 120.451 341.31C120.524 341.02 120.596 340.658 120.596 340.369C120.596 340.079 120.524 339.717 120.451 339.427C120.306 339.065 120.161 338.776 119.871 338.486Z" fill="black"/>
<path d="M116.609 342.903C116.899 342.541 117.117 342.179 117.189 341.817C117.334 341.455 117.334 341.093 117.407 340.731C117.407 340.369 117.407 340.007 117.262 339.645C117.189 339.283 117.044 338.92 116.754 338.558C116.464 338.92 116.247 339.283 116.174 339.645C116.029 340.007 116.029 340.369 115.957 340.731C115.957 341.093 115.957 341.455 116.102 341.817C116.174 342.179 116.319 342.541 116.609 342.903Z" fill="black"/>
<path d="M114.072 343.555C114.362 343.12 114.58 342.758 114.652 342.324C114.797 341.889 114.797 341.527 114.87 341.093C114.87 340.658 114.87 340.296 114.725 339.862C114.652 339.427 114.507 339.065 114.217 338.631C113.927 339.065 113.71 339.427 113.637 339.862C113.492 340.296 113.492 340.658 113.42 341.093C113.42 341.527 113.42 341.889 113.565 342.324C113.637 342.758 113.782 343.193 114.072 343.555Z" fill="black"/>
<path d="M80.9461 337.979C80.7287 338.703 80.7287 339.427 80.6562 340.151C80.5837 340.876 80.4387 341.6 80.0038 342.106C79.6414 342.613 78.989 342.975 78.3366 343.12C77.6842 343.265 76.9594 343.337 76.2345 343.337C73.3351 343.482 70.5081 343.627 67.6086 343.699C64.7092 343.772 61.8822 343.772 59.0553 343.555C58.3304 343.482 57.6055 343.482 57.0257 343.337C56.7357 343.265 56.5182 343.12 56.3733 342.975C56.2283 342.831 56.0833 342.686 56.0108 342.396C55.9384 342.107 55.8659 341.817 55.8659 341.455C55.7934 341.093 55.7934 340.803 55.7934 340.441C55.7209 339.789 55.7934 339.065 55.8659 338.414L54.9236 338.993C57.0981 339.645 59.3452 339.862 61.5923 339.789C63.8394 339.789 66.0139 339.5 68.1885 339.138C70.3631 338.776 72.4652 338.341 74.6398 338.052C76.8144 337.69 78.9165 337.545 81.1636 337.545C78.989 337.255 76.8144 337.328 74.5673 337.4C72.3927 337.545 70.2182 337.834 68.0436 338.124C65.869 338.341 63.7669 338.558 61.5923 338.558C59.4902 338.558 57.3156 338.269 55.3585 337.69C54.996 337.545 54.5611 337.762 54.4886 338.124C54.4886 338.196 54.4886 338.196 54.4886 338.269C54.4162 338.993 54.4161 339.789 54.4161 340.514C54.4161 340.876 54.4886 341.238 54.4886 341.672C54.5611 342.034 54.5611 342.396 54.7061 342.831C54.8511 343.265 55.0685 343.7 55.5035 344.062C55.8659 344.424 56.3008 344.568 56.7357 344.713C57.6055 344.93 58.3304 344.93 59.0553 345.003C61.9547 345.148 64.8542 345.075 67.7536 344.93C70.6531 344.786 73.5525 344.496 76.3795 344.134C77.1044 344.062 77.8292 343.917 78.5541 343.699C79.2789 343.482 80.0038 342.975 80.3662 342.324C80.8011 341.672 80.8736 340.876 80.8736 340.151C80.8736 339.427 80.8736 338.703 80.9461 337.979Z" fill="black"/>
<path d="M77.9742 343.482C78.4091 343.12 78.699 342.613 78.9165 342.106C79.134 341.6 79.2065 341.02 79.2065 340.514C79.2065 340.007 79.2065 339.427 79.0615 338.921C78.9165 338.414 78.7715 337.907 78.4091 337.4C78.1192 337.907 77.9742 338.414 77.9017 338.921C77.8292 339.427 77.7567 339.934 77.7567 340.441C77.7567 340.948 77.7567 341.382 77.7567 341.889C77.8292 342.396 77.8292 342.903 77.9742 343.482Z" fill="black"/>
<path d="M74.4224 337.69C74.1324 338.196 73.915 338.703 73.77 339.21C73.625 339.717 73.5525 340.224 73.5525 340.731C73.5525 341.744 73.625 342.758 74.1324 343.844C74.4948 343.337 74.6398 342.831 74.7848 342.324C74.9298 341.817 75.0023 341.31 75.0023 340.803C75.0023 340.296 75.0023 339.789 74.9298 339.283C74.8573 338.776 74.7123 338.196 74.4224 337.69Z" fill="black"/>
<path d="M70.4356 344.134C70.7256 343.627 70.8705 343.193 71.0155 342.686C71.1605 342.179 71.1605 341.672 71.233 341.238C71.233 340.731 71.233 340.224 71.088 339.789C71.0155 339.283 70.8705 338.776 70.5806 338.269C70.2906 338.776 70.0732 339.21 70.0007 339.717C69.8557 340.224 69.8557 340.731 69.7832 341.165C69.7832 341.672 69.7833 342.179 69.9282 342.613C70.0007 343.12 70.1457 343.627 70.4356 344.134Z" fill="black"/>
<path d="M66.8113 344.279C67.1012 343.844 67.3187 343.41 67.4637 342.903C67.6087 342.469 67.6811 341.962 67.6811 341.527C67.6811 341.093 67.6811 340.586 67.6086 340.151C67.5362 339.717 67.3912 339.21 67.1012 338.776C66.8113 339.21 66.5938 339.717 66.4489 340.151C66.3039 340.586 66.2314 341.093 66.2314 341.527C66.2314 341.962 66.2314 342.469 66.3039 342.903C66.3764 343.337 66.5214 343.772 66.8113 344.279Z" fill="black"/>
<path d="M63.2595 344.351C63.5494 343.917 63.6944 343.482 63.8394 343.048C63.9119 342.613 63.9843 342.179 63.9843 341.744C63.9843 341.31 63.9119 340.876 63.8394 340.441C63.6944 340.007 63.5494 339.572 63.2595 339.138C62.9695 339.572 62.8246 340.007 62.6796 340.441C62.6071 340.876 62.5346 341.31 62.5346 341.744C62.5346 342.179 62.6071 342.613 62.6796 343.048C62.7521 343.482 62.9695 343.917 63.2595 344.351Z" fill="black"/>
<path d="M59.4902 344.279C59.8526 343.844 60.0701 343.482 60.2151 343.048C60.36 342.613 60.4325 342.179 60.505 341.817C60.5775 341.382 60.5775 340.948 60.505 340.514C60.4325 340.079 60.36 339.645 60.0701 339.138C59.7076 339.5 59.4902 339.934 59.3452 340.369C59.2002 340.803 59.1278 341.238 59.0553 341.672C58.9828 342.107 58.9828 342.541 59.0553 342.975C59.2002 343.337 59.2727 343.772 59.4902 344.279Z" fill="black"/>
<path d="M56.7357 338.631C56.4458 339.065 56.3008 339.5 56.1558 339.934C56.0833 340.369 56.0108 340.803 56.0108 341.238C56.0108 341.672 56.0833 342.107 56.1558 342.541C56.3008 342.975 56.4458 343.41 56.7357 343.844C57.0257 343.41 57.1706 342.975 57.3156 342.541C57.3881 342.107 57.4606 341.672 57.4606 341.238C57.4606 340.803 57.3881 340.369 57.3156 339.934C57.1706 339.572 57.0257 339.138 56.7357 338.631Z" fill="black"/>
<path d="M55.141 338.124C54.996 337.328 54.7061 336.531 54.5611 335.735C54.4161 334.938 54.7061 334.214 55.141 333.562C56.0108 332.187 57.0981 331.028 58.3304 330.014C59.5627 329.001 60.9399 328.204 62.3896 327.625C63.8394 327.046 65.3616 326.611 66.9563 326.466C68.551 326.321 70.1457 326.394 71.5954 326.828C73.0451 327.263 74.4224 328.132 75.6546 329.145C76.2345 329.652 76.8144 330.232 77.4668 330.811C78.0467 331.39 78.6266 331.969 79.2064 332.549C80.2937 333.707 81.3086 335.155 81.1636 336.821C81.381 336.024 81.3086 335.155 80.9461 334.359C80.6562 333.562 80.2213 332.838 79.7139 332.114C78.6991 330.738 77.6118 329.507 76.452 328.349C75.2197 327.118 73.77 326.104 72.1028 325.525C70.4356 324.946 68.6235 324.873 66.9563 325.018C63.4769 325.308 60.2151 326.828 57.678 329.145C56.4458 330.304 55.3585 331.68 54.5611 333.2C54.3437 333.562 54.1987 333.997 54.1262 334.431C54.0537 334.866 54.1262 335.373 54.1987 335.735C54.4161 336.676 54.8511 337.4 55.141 338.124Z" fill="black"/>
<path d="M137.993 328.132C137.92 327.77 137.848 327.48 137.63 327.263C137.485 327.046 137.268 326.828 137.05 326.684C136.833 326.539 136.616 326.466 136.326 326.394C136.036 326.321 135.746 326.321 135.383 326.466C135.456 326.828 135.528 327.118 135.746 327.335C135.891 327.552 136.108 327.77 136.326 327.914C136.543 328.059 136.761 328.132 137.05 328.204C137.268 328.204 137.558 328.276 137.993 328.132Z" fill="black"/>
<path d="M101.315 180.056C99.6476 186.501 98.1254 193.017 96.6756 199.534C95.2259 206.051 93.9212 212.568 92.6889 219.157L91.0217 229.004C90.5143 232.263 89.9344 235.594 89.3545 238.852C88.1223 245.441 86.6725 251.886 85.2228 258.402L84.353 262.095C84.2805 262.53 84.1355 262.964 84.1355 263.471C84.1355 263.978 84.208 264.629 84.4979 265.064C84.7154 265.498 85.0053 265.933 85.2953 266.222C85.8752 266.874 86.3101 267.526 86.2376 267.815C86.2376 268.033 86.1651 268.105 85.9477 268.322C85.7302 268.539 85.4403 268.684 85.0778 268.902C84.7154 269.119 84.2805 269.336 83.918 269.698C83.4831 270.06 83.1207 270.712 83.0482 271.363C82.9757 272.088 83.2657 272.667 83.4831 273.101C83.7731 273.536 83.9905 273.898 84.2805 274.26C84.4979 274.549 84.7154 274.911 84.8604 275.129C85.0053 275.418 85.0053 275.563 84.9329 275.708C84.9329 275.853 84.7879 275.998 84.4979 276.36C84.208 276.649 83.8456 277.228 83.7006 277.735C83.4107 278.821 83.4107 279.69 83.4107 280.487L83.2657 285.483C83.1207 288.814 83.0482 292.145 82.9757 295.475C82.9033 302.137 82.7583 308.799 82.8308 315.46C82.8308 318.791 83.0482 322.194 83.6281 325.525C83.9181 327.19 84.4255 328.783 84.2805 330.376C84.208 331.173 83.9905 331.897 83.5556 332.549C83.1207 333.2 82.4683 333.78 81.671 333.924C81.5985 333.924 81.5985 333.997 81.5985 334.069C81.5985 334.142 81.671 334.142 81.7435 334.142C82.6133 334.069 83.4106 333.49 83.918 332.838C84.4979 332.187 84.8604 331.318 85.0053 330.449C85.2953 328.711 84.9329 326.973 84.7154 325.38C84.353 322.122 84.4255 318.791 84.4979 315.533C84.7879 308.871 85.0778 302.209 85.2953 295.548C85.3678 292.217 85.4403 288.886 85.5128 285.556L85.5852 280.559C85.5852 279.69 85.5852 278.894 85.7302 278.387C85.8027 278.097 85.8752 277.953 86.1651 277.591C86.3826 277.301 86.8175 276.794 86.9625 276.07C87.1075 275.346 86.89 274.694 86.6725 274.187C86.3826 273.681 86.0926 273.318 85.8752 273.029C85.3678 272.377 84.9329 271.798 85.0053 271.508C85.0053 271.363 85.0778 271.219 85.2228 271.001C85.4403 270.784 85.7302 270.639 86.0926 270.35C86.4551 270.133 86.89 269.843 87.2524 269.481C87.6873 269.119 87.9773 268.395 87.9773 267.743C87.9773 267.091 87.6873 266.512 87.3974 266.078C87.1075 265.643 86.8175 265.353 86.5276 265.064C86.2376 264.774 86.0202 264.485 85.8752 264.195C85.7302 263.905 85.6577 263.688 85.6577 263.398C85.6577 262.747 85.8752 261.878 86.0202 261.081L86.4551 258.62C87.5424 252.03 88.7021 245.514 90.0794 238.924C90.7318 235.666 91.5291 232.408 92.254 229.149L94.501 219.374C95.9508 212.857 97.183 206.341 98.3428 199.751C99.5026 193.162 100.59 186.645 101.532 179.984C101.532 179.912 101.532 179.839 101.46 179.839C101.387 179.984 101.387 179.984 101.315 180.056Z" fill="black"/>
<path d="M63.4769 184.618C62.897 190.918 62.4621 197.217 61.9547 203.517L60.505 222.415C59.5627 235.014 58.6204 247.541 57.6056 260.14C56.6632 272.739 55.5759 285.266 54.4886 297.865L52.8215 316.691C52.5315 319.805 52.2416 322.991 52.2416 326.177C52.2416 329.363 52.5315 332.549 53.4738 335.517C52.6765 332.476 52.459 329.29 52.604 326.177C52.749 323.063 53.1839 319.877 53.5463 316.764C54.2712 310.464 54.9236 304.237 55.5759 297.937C56.8807 285.411 57.968 272.812 58.9828 260.212C59.9251 247.613 60.8674 235.014 61.5923 222.415L62.6071 203.517C62.897 197.217 63.2595 190.918 63.4769 184.618Z" fill="black"/>
<path d="M138.645 328.349C137.123 322.339 135.746 316.257 134.658 310.174C133.499 304.092 132.484 297.937 131.687 291.783C130.019 279.473 128.787 267.164 127.772 254.782L124.728 217.636L123.133 199.027C122.553 192.873 121.973 186.645 121.393 180.491C121.683 186.718 122.118 192.873 122.481 199.1L123.713 217.709C124.075 223.936 124.583 230.091 125.018 236.318L126.395 254.927C127.482 267.309 128.715 279.69 130.599 292C131.542 298.155 132.629 304.309 134.006 310.319C135.311 316.401 136.833 322.411 138.645 328.349Z" fill="black"/>
<path d="M94.7185 213.799C95.0085 217.347 95.4434 220.895 96.0233 224.443C96.6032 227.991 97.2555 231.539 97.9804 235.014C98.7053 238.49 99.5751 242.038 100.445 245.514L101.822 250.727C102.257 252.465 102.547 254.13 102.112 255.723C101.895 256.52 101.605 257.461 101.46 258.402C101.315 259.344 101.315 260.285 101.315 261.154C101.387 262.964 101.46 264.774 101.532 266.512C101.75 270.06 102.04 273.68 102.33 277.229C102.692 280.777 103.127 284.397 103.562 287.945C103.779 289.755 104.069 291.493 104.504 293.303C104.939 295.113 105.591 296.851 106.534 298.517L106.679 297.575C106.026 298.082 105.302 298.661 104.649 299.313C104.359 299.675 104.069 300.037 103.852 300.472C103.634 300.906 103.489 301.413 103.417 301.92C103.344 302.934 103.562 304.092 104.504 304.816C105.012 305.178 105.446 305.323 105.809 305.468C105.954 305.54 106.099 305.613 106.244 305.685C106.316 305.757 106.316 305.757 106.389 305.83C106.389 305.902 106.389 305.902 106.389 305.975C106.316 306.047 106.244 306.192 106.099 306.337C105.809 306.626 105.446 306.844 105.157 307.278C104.794 307.712 104.577 308.437 104.722 309.016C104.867 309.595 105.157 310.03 105.374 310.392C105.591 310.754 105.881 311.116 106.026 311.405C106.171 311.695 106.316 312.057 106.389 312.419C106.534 313.143 106.606 314.084 106.751 314.881C107.621 321.615 108.636 328.349 109.578 335.01C109.578 335.228 109.868 335.445 110.086 335.373C110.158 335.373 110.231 335.373 110.231 335.3C114.217 332.983 118.349 331.028 122.698 329.435C127.047 327.842 131.469 326.684 136.036 325.887C131.469 326.466 126.902 327.552 122.481 329.001C118.059 330.449 113.782 332.331 109.723 334.648L110.376 335.01C109.506 328.276 108.781 321.542 107.839 314.808C107.694 313.94 107.621 313.143 107.476 312.274C107.404 311.84 107.259 311.333 107.041 310.898C106.824 310.464 106.534 310.102 106.316 309.74C106.099 309.378 105.881 309.088 105.881 308.799C105.809 308.509 105.881 308.364 106.026 308.147C106.244 307.93 106.534 307.64 106.896 307.35C107.041 307.206 107.259 306.988 107.404 306.699C107.549 306.409 107.621 305.975 107.549 305.613C107.476 305.251 107.259 304.889 106.969 304.744C106.751 304.527 106.461 304.454 106.244 304.309C105.809 304.092 105.446 304.02 105.229 303.802C104.794 303.44 104.577 302.789 104.649 302.065C104.722 301.413 105.084 300.761 105.591 300.182C106.099 299.603 106.751 299.096 107.404 298.589C107.694 298.372 107.766 298.01 107.621 297.648C105.881 294.679 105.374 291.131 104.867 287.655C104.359 284.107 103.924 280.559 103.562 277.011C103.199 273.463 102.909 269.915 102.692 266.367C102.547 264.557 102.475 262.819 102.402 261.009C102.402 260.14 102.402 259.271 102.475 258.402C102.62 257.606 102.837 256.737 103.054 255.796C103.272 254.854 103.344 253.913 103.199 252.972C103.127 252.03 102.909 251.161 102.692 250.22L101.242 245.079C100.3 241.604 99.4301 238.2 98.5603 234.652C97.1106 227.918 95.7333 220.895 94.7185 213.799Z" fill="black"/>
<path d="M118.349 285.773C117.407 286.859 116.537 287.945 115.667 289.031C114.797 290.117 113.855 291.131 112.913 292.145C111.97 293.158 111.028 294.172 110.086 295.186C109.143 296.2 108.128 297.141 107.114 298.227C108.418 297.72 109.723 296.924 110.81 296.055C111.97 295.186 113.058 294.245 114 293.158C114.942 292.072 115.812 290.914 116.537 289.683C117.334 288.452 117.914 287.148 118.349 285.773Z" fill="black"/>
<path d="M117.987 294.172C116.682 295.837 115.522 297.575 114.145 299.168C113.492 299.965 112.768 300.689 111.97 301.341C111.173 301.992 110.376 302.644 109.506 303.368C109.288 303.585 109.071 303.73 108.926 303.947C108.853 304.02 108.708 304.164 108.563 304.309C108.418 304.454 108.346 304.671 108.273 304.961C108.201 305.251 108.346 305.757 108.636 305.902C108.926 306.119 109.071 306.192 109.216 306.192C109.578 306.264 109.941 306.337 110.231 306.337C110.883 306.264 111.39 306.119 111.898 305.975C112.115 305.902 112.405 305.83 112.55 305.83C112.623 305.83 112.695 305.83 112.695 305.83C112.695 305.83 112.623 305.757 112.695 305.757C112.695 305.757 112.768 305.902 112.695 306.047C112.623 306.192 112.478 306.337 112.26 306.554C111.898 306.916 111.535 307.35 111.173 307.712C110.448 308.509 109.723 309.233 108.926 309.957C109.868 309.45 110.81 308.871 111.68 308.292C112.115 308.002 112.55 307.64 112.913 307.278C113.13 307.133 113.347 306.916 113.565 306.626C113.782 306.337 113.927 305.83 113.71 305.395C113.637 305.178 113.42 304.889 113.13 304.816C112.84 304.671 112.623 304.671 112.478 304.744C112.115 304.744 111.898 304.816 111.608 304.889C111.1 304.961 110.593 305.106 110.158 305.106C109.941 305.106 109.796 305.106 109.578 305.033C109.506 305.033 109.433 304.961 109.506 305.033C109.578 305.106 109.651 305.251 109.578 305.323C109.506 305.395 110.013 304.889 110.376 304.599C111.1 303.875 111.97 303.296 112.768 302.499C113.565 301.703 114.29 300.906 114.87 300.037C116.247 298.082 117.189 296.2 117.987 294.172Z" fill="black"/>
<path d="M80.2213 298.444C79.4964 302.427 78.9165 306.482 78.3366 310.464L77.4668 316.474C77.3218 317.488 77.1768 318.646 77.6118 319.805C78.0467 320.891 78.7715 321.76 79.4239 322.484C80.0763 323.28 80.6562 324.004 80.8012 324.801C80.8012 325.018 80.8736 325.163 80.8736 325.38C80.8736 325.597 80.8011 325.67 80.8736 325.597L80.9461 325.525C80.9461 325.525 80.9461 325.525 80.8736 325.525C80.7287 325.525 80.5837 325.38 80.4387 325.308C78.844 324.222 77.3218 322.846 75.6546 321.615C74.8573 320.963 73.9149 320.384 73.0451 319.877C72.1028 319.37 71.088 319.008 70.0007 318.791C68.9134 318.574 67.8261 318.501 66.7388 318.646C65.6515 318.791 64.5642 319.225 63.6944 319.877C63.4769 320.022 63.4045 320.384 63.5494 320.601C63.5494 320.674 63.6219 320.674 63.6944 320.746C65.1441 321.832 66.6663 322.846 68.116 323.932L68.3335 323.208C66.6663 323.28 65.0716 323.57 63.4769 324.004C61.8822 324.439 60.36 325.018 58.9103 325.742C60.4325 325.163 62.0272 324.728 63.6219 324.439C65.2166 324.149 66.8113 324.077 68.406 324.077C68.6235 324.077 68.8409 323.932 68.8409 323.642C68.8409 323.498 68.7684 323.425 68.6959 323.353C67.3187 322.194 65.869 321.108 64.4192 319.95V320.818C65.9415 319.805 67.9711 319.66 69.7832 320.167C71.6679 320.601 73.3351 321.615 74.8573 322.846C76.452 324.004 77.9742 325.38 79.7139 326.539C79.9313 326.683 80.2213 326.901 80.5837 326.973C80.8012 327.046 81.0186 327.046 81.2361 327.046C81.526 327.046 81.816 326.901 81.9609 326.684C82.3958 326.249 82.3958 325.815 82.3958 325.525C82.3958 325.235 82.3958 324.873 82.3234 324.584C82.0334 323.353 81.2361 322.484 80.5837 321.687C79.9313 320.891 79.2789 320.167 78.989 319.37C78.6266 318.574 78.699 317.705 78.844 316.691L79.4239 310.609C79.6414 306.554 79.9313 302.499 80.2213 298.444Z" fill="black"/>
<path d="M75.1472 63.6234C74.2049 63.7683 73.2626 63.8407 72.3927 64.1303C71.4504 64.4199 70.6531 64.9992 70.0007 65.7233C68.7684 67.2439 67.8261 68.8369 66.8838 70.5022C65.9415 72.1676 65.1441 73.833 64.4193 75.6433C63.6944 77.3811 63.042 79.1913 62.5346 81.0015C62.4621 81.3635 62.6071 81.7256 62.9695 81.798C63.1145 81.8704 63.2595 81.8704 63.332 81.798L70.5081 79.6257C70.8705 79.4809 71.3055 79.4085 71.6679 79.3361L71.8854 79.2637C71.8129 79.2637 71.7404 79.2637 71.5954 79.1913C71.3779 79.1189 71.233 78.8292 71.233 78.7568C71.3055 78.8292 71.3055 78.9016 71.3779 78.974C71.4504 79.0464 71.5229 79.1189 71.5229 79.1189L71.5954 79.1913L72.0303 79.6257C74.4948 81.8704 77.0319 84.115 79.4964 86.2873C79.7863 86.5045 80.1488 86.5045 80.3662 86.2149C80.5112 86.0701 80.5837 85.7804 80.5112 85.6356C79.5689 82.4497 78.6266 79.2637 77.6842 76.0777L76.3795 71.2987L75.0747 66.4474C75.2922 68.1128 75.5821 69.7058 75.8721 71.3712C76.162 73.0365 76.452 74.6295 76.8144 76.2949C77.5393 79.5533 78.3366 82.8117 79.2065 85.9977L80.2213 85.346L72.8277 78.612L72.3927 78.1776V78.25C72.3927 78.1775 72.1753 77.8879 71.9578 77.8155C71.8129 77.7431 71.7404 77.7431 71.6679 77.7431H71.5229C71.3055 77.7431 71.233 77.8155 71.1605 77.8155C70.7256 77.9603 70.3631 78.0327 69.9282 78.1776L67.5362 78.9016C65.9415 79.4085 64.3468 79.9153 62.7521 80.4222L63.6219 81.2187C64.1293 79.4085 64.7092 77.6707 65.3616 75.9329C66.014 74.1951 66.7388 72.4573 67.5362 70.7919C67.9711 69.923 68.3335 69.1265 68.8409 68.33C69.2758 67.5335 69.7108 66.6646 70.2906 65.9405C70.798 65.2164 71.5229 64.6372 72.3927 64.2751C73.3351 64.0579 74.2774 63.8407 75.1472 63.6234Z" fill="#174075"/>
<path d="M94.2836 63.2614C96.1682 63.7683 98.0529 64.2751 99.6476 65.2164C101.315 66.1577 102.547 67.6059 103.562 69.1989C104.577 70.7919 105.519 72.4573 106.461 74.1951C107.331 75.9329 108.201 77.5983 109.071 79.3361L109.868 78.3224C108.491 77.8879 107.114 77.4535 105.809 76.9466C105.157 76.657 104.504 76.3673 103.852 76.0777C103.489 75.9329 103.127 75.7881 102.692 75.6433C102.257 75.4984 101.75 75.4984 101.242 75.6433C100.735 75.7881 100.372 76.0777 100.082 76.2949C99.7925 76.5121 99.5026 76.8018 99.2127 77.0914C98.6328 77.5983 98.1979 78.25 97.6905 78.8292C96.8206 80.0602 96.1682 81.5083 95.8783 83.0289H96.8206C96.2407 81.2911 95.7333 79.6257 95.0809 77.9603L93.2688 72.8917C93.6312 74.6295 94.0661 76.3673 94.501 78.1051C94.936 79.8429 95.4434 81.5807 95.8058 83.2461C95.8783 83.5358 96.0957 83.6806 96.3857 83.6082C96.5307 83.5358 96.6756 83.4634 96.7481 83.2461C97.1106 81.9428 97.7629 80.6394 98.6328 79.5533C99.0677 78.974 99.5026 78.4672 100.01 78.0327C100.517 77.5983 101.097 77.0914 101.532 77.019C101.967 76.9466 102.547 77.0914 103.199 77.381C103.852 77.6707 104.504 78.0327 105.229 78.3224C106.606 78.9016 107.983 79.4085 109.433 79.7705C109.796 79.8429 110.231 79.6257 110.303 79.2637C110.376 79.1189 110.303 78.9016 110.231 78.7568C109.361 77.019 108.491 75.2812 107.476 73.6158C106.534 71.878 105.519 70.2126 104.287 68.6196C103.127 67.0266 101.605 65.5785 99.7926 64.7096C98.1254 63.8407 96.1682 63.4786 94.2836 63.2614Z" fill="#174075"/>
</g>
<defs>
<filter id="filter0_d_2637_15933" x="0" y="14.4863" width="165" height="164.514" filterUnits="userSpaceOnUse" color-interpolation-filters="sRGB">
<feFlood flood-opacity="0" result="BackgroundImageFix"/>
<feColorMatrix in="SourceAlpha" type="matrix" values="0 0 0 0 0 0 0 0 0 0 0 0 0 0 0 0 0 0 127 0" result="hardAlpha"/>
<feOffset dx="-5" dy="5"/>
<feComposite in2="hardAlpha" operator="out"/>
<feColorMatrix type="matrix" values="0 0 0 0 0 0 0 0 0 0 0 0 0 0 0 0 0 0 1 0"/>
<feBlend mode="normal" in2="BackgroundImageFix" result="effect1_dropShadow_2637_15933"/>
<feBlend mode="normal" in="SourceGraphic" in2="effect1_dropShadow_2637_15933" result="shape"/>
</filter>
<linearGradient id="paint0_linear_2637_15933" x1="5" y1="107.309" x2="165.121" y2="107.309" gradientUnits="userSpaceOnUse">
<stop stop-color="#A25A9F"/>
<stop offset="0.6" stop-color="#693068"/>
<stop offset="1" stop-color="#501D50"/>
</linearGradient>
<linearGradient id="paint1_linear_2637_15933" x1="155.073" y1="173.948" x2="20.9218" y2="173.948" gradientUnits="userSpaceOnUse">
<stop stop-color="#0ABBEF"/>
<stop offset="0.2385" stop-color="#0D9BCF"/>
<stop offset="0.756" stop-color="#145A8E"/>
<stop offset="1" stop-color="#174075"/>
</linearGradient>
</defs>
</svg>
