<svg width="300" height="335" viewBox="0 0 300 335" fill="none" xmlns="http://www.w3.org/2000/svg">
<path d="M298.72 150.57C298.72 233.122 232.103 299.961 149.824 299.961C127.986 299.961 107.03 295.313 88.2801 286.681C77.9125 281.812 67.9861 276.058 58.942 268.976C56.7362 267.205 54.5303 265.435 52.545 263.664C39.751 252.598 28.9422 239.54 20.5599 224.933C7.98641 203.022 0.707031 177.571 0.707031 150.57C0.927618 68.0172 67.5449 0.957275 149.824 0.957275C212.03 0.957275 265.191 39.2456 287.47 93.469C294.75 110.953 298.72 130.429 298.72 150.57Z" fill="url(#paint0_linear_1937_30023)"/>
<path d="M296.03 128.286C295.591 125.683 294.934 122.863 294.276 120.26C294.057 118.742 293.618 117.224 293.399 115.705C285.947 87.0724 269.945 60.6088 248.026 40.4358C220.845 15.2737 184.24 1.3911 147.415 0.957275C133.386 0.957275 119.139 2.69259 105.548 6.59706C77.2723 14.8398 52.9415 32.193 34.7483 54.5352C34.5291 54.5352 34.5291 54.7521 34.5291 54.7521C30.5836 59.5243 27.0764 64.5133 23.7885 69.7193C23.1309 70.8038 22.2541 71.8884 21.5965 73.1899C18.3086 78.8297 15.2399 84.4695 12.6095 90.5431C11.0752 93.363 9.97917 96.1829 9.10239 99.0027C9.10239 99.0027 8.88319 99.0027 8.88319 99.4366L9.97917 102.907C9.97917 102.907 10.1984 102.473 10.1984 102.256C11.0752 99.2197 12.3903 96.1829 13.7055 93.146C35.4059 44.7741 83.6289 12.4538 136.674 7.46472C158.594 5.51249 181.171 8.11546 201.995 15.9244C245.615 32.193 280.028 70.37 290.33 115.705C292.961 126.768 294.057 138.264 293.618 149.761C293.18 169.066 288.796 188.372 280.905 205.942C279.151 210.28 276.96 214.401 274.768 218.306C274.329 219.174 273.891 220.041 273.233 220.909C266.219 232.839 257.451 243.902 246.93 253.446C246.491 253.88 246.272 254.314 245.834 254.748C242.984 257.134 240.135 259.52 237.285 261.689C204.406 286.634 161.663 297.046 120.892 289.454C85.1633 282.946 52.5031 263.207 30.3644 234.791C29.4876 233.49 28.3916 232.188 27.5148 230.887C24.8845 227.416 22.6925 223.946 20.7198 220.475C17.2126 214.835 14.3631 209.195 11.9519 203.339C10.856 200.736 9.97917 198.133 9.10239 195.53C8.88319 195.096 8.664 194.879 8.664 194.445C7.78722 191.625 6.91043 188.805 6.25285 185.986C5.37606 183.166 4.71848 180.129 4.06089 177.309C0.772955 159.956 0.772955 142.169 4.06089 124.816V124.382L2.96491 120.043C2.96491 120.043 2.74571 120.694 2.74571 120.911C1.64974 126.117 0.992149 131.323 0.553757 136.746C-1.19981 157.57 1.21135 178.61 7.78722 198.35C22.9117 243.685 60.6134 281.645 107.302 294.66C156.183 308.109 210.982 295.527 248.683 261.906C263.589 248.674 275.425 232.405 283.755 214.618C285.727 210.714 287.262 206.809 288.577 202.905C295.153 185.986 298.221 167.982 298.002 149.761C298.002 142.603 297.345 135.444 296.03 128.286Z" fill="black"/>
<path d="M288.001 174.095C288.001 174.095 259.613 179.854 254.094 180.28C248.574 180.707 219.398 180.28 219.398 180.28C219.398 180.28 207.964 180.92 200.473 186.679C192.982 192.438 176.028 202.889 175.634 204.809C175.24 206.728 173.071 209.074 175.043 210.994C177.014 212.914 181.351 213.767 181.351 213.767C181.351 213.767 177.014 219.952 179.577 221.658C182.14 223.365 200.079 218.672 200.276 218.033C200.473 217.393 208.753 210.567 208.753 210.567L222.946 208.861C222.946 208.861 219.792 218.886 226.889 218.886C233.986 218.886 254.291 213.553 254.291 213.553L272.821 215.046L278.144 210.141L287.803 174.095H288.001Z" fill="white"/>
<path d="M277.158 176.441C274.792 176.654 272.624 176.868 270.258 177.294C260.204 179.214 249.756 179.854 239.505 179.854C232.408 179.64 225.311 179.214 218.215 179.427C216.243 179.427 214.469 179.854 212.695 180.707C205.401 183.906 198.501 187.745 191.602 191.798C187.067 194.357 182.731 196.704 178.591 199.903C177.014 200.969 175.634 202.249 174.451 203.955C171.297 208.221 173.071 213.553 177.802 215.047C178.394 215.047 179.182 215.047 179.774 215.686C178.196 218.033 176.817 220.379 178.788 223.365C177.408 223.152 176.422 224.005 175.437 223.578C174.648 223.152 173.859 223.152 173.071 223.152C169.917 223.152 166.763 222.938 163.806 223.578C163.411 223.791 162.82 223.791 162.426 223.578C159.272 222.938 156.117 223.152 152.963 223.365C152.372 223.578 151.978 223.791 151.583 223.578C150.006 222.938 148.232 223.152 146.655 223.152C143.304 223.365 139.755 223.152 136.207 223.578C133.841 223.791 131.279 223.791 128.913 224.005C128.322 224.218 127.533 224.431 126.744 224.431C122.408 224.431 118.071 224.218 113.734 224.858H112.157C109.002 224.218 105.848 223.791 102.694 224.431C102.3 224.431 101.906 224.645 101.511 224.431C99.3429 223.578 96.9773 223.791 94.6117 224.005C93.4289 224.005 92.2461 224.645 91.0633 223.578C90.8661 223.365 90.2747 223.578 89.8805 223.578C87.5149 223.365 85.1492 223.365 82.7836 223.365C81.0094 223.152 79.4324 223.365 77.8553 223.791C76.0811 223.791 74.7011 225.071 74.3069 227.417C74.1097 228.271 73.9126 229.124 73.7155 229.977C73.7155 230.403 73.7155 230.617 73.1241 230.617C72.5327 230.617 72.1384 230.617 71.9413 230.19C71.9413 229.764 71.7441 229.337 71.7441 229.124C68.59 219.526 65.633 209.714 62.676 199.903C53.0164 168.549 43.554 137.196 34.0916 105.842C33.6973 104.989 33.5002 103.922 33.303 103.069C33.303 103.069 33.2373 102.927 33.1059 102.642C29.7546 91.3381 26.2062 80.0337 22.8549 68.7293C18.518 54.4388 14.181 39.9351 9.64696 25.6446C8.66129 23.0851 7.47849 22.6586 5.31002 23.9383C5.11288 23.9383 4.91575 23.9383 4.71861 24.3649C3.53581 25.2181 2.35301 26.0712 1.1702 26.7111C-0.0126001 27.351 -0.209734 27.9908 0.184534 29.2706C1.56447 33.7497 2.74727 38.4421 4.12721 43.1344C12.0126 70.2223 19.7008 97.0969 27.389 124.185C27.7833 124.825 27.7833 125.251 27.9804 125.891C28.1775 126.531 28.3747 127.384 28.5718 128.024C34.683 149.14 40.7941 170.469 46.9053 191.585C51.0451 205.875 55.1849 219.952 58.7333 234.456C59.5218 237.655 60.9018 240.428 62.676 243.201C63.4645 244.267 64.2531 244.907 65.633 244.907C68.3929 244.907 70.9556 245.12 73.7155 245.12C128.322 244.907 182.928 244.694 237.534 244.907H238.519C239.702 244.694 240.688 243.841 240.688 242.561V238.935C240.688 238.935 240.491 237.869 240.688 237.442C241.279 235.949 241.674 234.243 242.068 232.75C242.659 230.19 241.476 228.697 238.914 228.697C238.322 228.697 237.534 228.91 236.745 228.91C221.763 229.337 206.781 229.124 191.799 229.337C191.207 229.337 190.616 229.55 190.222 229.337C190.222 228.484 190.222 227.631 191.404 227.417C196.333 226.778 200.67 224.431 204.81 221.019C207.175 219.099 209.541 217.179 211.709 215.047C212.892 214.193 213.878 213.767 215.258 213.554C217.426 213.554 219.397 213.554 221.566 212.7C221.566 213.127 221.763 213.127 221.566 213.34C221.566 217.606 223.537 220.805 227.48 221.659C229.451 222.085 231.225 222.085 233.197 221.872C236.942 221.445 240.688 220.592 244.236 219.739C249.953 218.459 255.276 218.459 260.598 221.232C261.978 221.872 263.358 222.512 264.935 222.725C266.907 223.152 268.878 223.152 270.652 222.725C272.624 222.298 274.201 221.232 275.581 219.526C275.581 219.739 275.581 219.312 275.581 219.312C275.975 219.312 276.172 218.886 276.369 218.672L275.975 218.246C275.975 218.246 275.383 218.459 275.186 218.672C274.201 219.312 273.018 219.739 271.835 220.165C271.244 220.165 270.455 220.166 269.667 220.592C267.695 221.232 265.724 220.805 263.753 220.165C262.767 219.952 261.781 219.526 260.796 219.099C255.276 216.326 249.559 216.113 243.645 217.606C240.096 218.459 236.548 219.312 232.803 219.739C231.225 219.952 229.451 219.952 227.677 219.526C224.917 218.886 223.34 216.753 223.734 213.767C223.734 211.207 225.311 209.501 227.086 208.008C229.254 206.088 231.817 205.022 234.577 204.382C238.914 203.102 243.251 202.676 247.588 201.823C249.559 201.396 251.727 200.756 253.699 200.116C254.29 199.903 255.473 199.69 255.079 198.836C254.882 197.983 253.896 198.41 253.304 198.623C252.713 198.623 251.925 198.836 251.136 199.05C248.77 199.903 246.011 199.903 243.448 200.33C240.294 200.969 237.139 201.183 234.182 202.249C232.605 202.676 231.225 202.249 229.648 202.036C226.691 202.036 223.537 201.823 220.58 202.676C219.003 202.676 217.426 203.102 216.046 203.102C213.286 203.102 210.724 202.889 207.964 202.249C206.584 202.036 205.401 202.249 204.415 203.316C203.035 204.809 201.458 205.662 199.881 206.941C197.121 209.074 193.967 210.567 190.419 210.781C189.433 210.781 188.645 210.781 187.856 212.06C187.659 212.06 187.462 212.487 187.067 212.7C183.716 213.98 180.365 213.98 177.014 212.487C175.239 211.847 174.648 210.141 174.648 208.221C174.845 206.728 175.437 205.662 176.422 204.595C177.999 202.889 179.774 201.396 181.745 200.116C191.404 193.931 201.458 188.385 211.709 183.48C213.483 182.626 215.455 182.2 217.623 181.773C221.96 181.133 226.1 181.347 230.437 181.56C242.462 181.987 254.487 181.986 266.512 180.067C270.061 179.64 273.412 179 276.763 177.721C277.158 177.721 277.946 177.721 278.143 176.868C277.749 176.441 277.355 176.654 276.961 176.654L277.158 176.441ZM179.576 225.071C179.576 225.071 180.956 225.284 181.548 225.071C183.913 224.645 185.688 225.711 187.659 226.778C188.645 227.417 188.053 228.484 188.645 229.337H178.196C178.196 229.337 177.211 229.337 177.211 228.484C176.817 224.858 176.028 225.284 179.576 225.071ZM173.465 224.858C173.465 224.858 174.648 225.284 174.648 226.138C175.042 227.204 175.239 228.057 175.634 229.337C172.282 229.337 169.128 229.55 165.974 229.55C165.383 229.55 165.186 229.337 165.186 228.697C165.383 227.631 164.988 226.564 164.791 225.498C167.748 224.858 170.508 224.858 173.465 224.858ZM161.44 225.498C161.44 225.498 162.623 225.924 162.82 226.778C163.017 227.631 163.214 228.484 163.411 229.55H154.738C154.738 229.55 153.752 229.337 153.752 228.697C153.752 227.631 153.358 226.778 153.358 225.498C155.92 225.498 158.68 225.498 161.44 225.498ZM139.755 225.071H148.824C150.401 225.071 150.598 225.071 151.189 226.778C151.386 227.631 151.781 228.484 151.978 229.124C151.978 229.124 151.912 229.337 151.781 229.764H141.332C141.332 229.764 139.755 229.764 139.755 228.484C139.558 227.417 139.164 226.564 138.77 225.498C138.77 225.071 139.361 225.498 139.755 225.071ZM135.418 225.711C135.418 225.711 136.404 226.138 136.601 226.564C136.995 227.631 137.587 228.697 138.573 229.764H128.519C128.519 229.764 128.519 227.631 128.124 226.351C130.49 225.711 132.856 225.711 135.418 225.711ZM119.253 226.564C121.028 226.351 122.802 226.351 124.576 226.351C125.562 226.138 125.956 226.564 126.153 227.417C126.153 228.271 126.35 228.91 126.547 229.764H119.451C119.451 229.764 118.071 229.977 117.479 229.977C116.494 229.764 115.508 230.403 114.719 229.764C114.128 229.124 114.719 227.844 114.325 226.778C115.902 226.351 117.676 226.778 119.253 226.778V226.564ZM111.171 226.778C111.171 226.778 112.157 227.204 112.354 227.631C112.551 228.271 112.748 229.124 113.142 229.977H104.271C104.271 229.977 103.286 229.764 103.286 229.124C103.286 228.271 103.286 227.417 103.286 226.351C106.045 226.138 108.608 226.138 111.368 226.778H111.171ZM95.5973 225.711C96.9773 225.498 98.3572 225.711 99.7372 225.711C100.526 225.711 100.92 226.138 100.92 226.991C101.117 227.204 101.117 227.417 101.117 227.631C101.38 229.195 100.789 229.977 99.3429 229.977H97.1744L93.8231 230.19C93.0346 230.19 92.8375 229.764 92.8375 229.124C92.8375 225.498 92.2461 226.138 95.5973 225.711ZM76.2782 227.204C76.2782 227.204 76.8696 226.138 77.461 225.924C78.2496 225.498 79.2352 225.284 80.0238 225.284H89.2891C89.2891 225.284 90.669 225.711 90.4719 226.778V229.977C85.5435 230.19 80.6152 230.403 75.6868 230.403C75.4897 229.124 76.0811 228.057 76.2782 227.204ZM61.0989 229.55C55.9734 213.767 51.4394 197.77 46.9053 181.987C42.9626 168.549 39.0199 155.325 35.0772 141.888C33.1059 135.489 31.3317 129.09 29.5575 122.692C29.1632 121.839 28.9661 121.199 28.7689 120.346C28.7689 119.919 28.5718 119.706 28.5718 119.279C27.1919 115.013 26.0091 110.748 24.8263 106.482C21.0807 93.6843 17.3352 81.1001 13.7868 68.516C10.4355 56.785 7.08422 45.2674 3.53581 33.7497C3.14154 32.2566 2.55014 30.7636 2.15587 29.2706C2.15587 28.844 1.7616 28.4174 2.35301 28.2041C3.53581 27.7775 4.32435 26.4978 5.90142 26.2845C6.09855 26.0712 6.29568 25.6446 6.68995 25.6446C7.28135 25.6446 7.28135 26.2845 7.47849 26.7111C15.1667 53.799 23.4463 80.6736 31.5288 107.548V107.761C31.726 108.615 31.9231 109.468 32.3174 110.321C32.7116 111.601 32.9088 112.88 33.303 113.947C43.554 148.713 54.0021 183.48 64.4502 218.246C65.4359 221.659 66.4215 225.284 67.4072 228.91C67.9986 230.83 67.6043 231.257 65.4359 231.257C65.0416 232.75 63.6617 233.176 62.8731 234.669C61.8874 232.963 61.4932 231.257 60.9018 229.55H61.0989ZM68.59 233.816C68.59 236.376 67.6043 237.229 65.0416 237.015C66.0273 235.522 67.0129 234.456 68.59 233.816ZM237.731 241.921C236.351 241.921 234.971 242.348 233.591 242.348C197.121 242.348 160.849 242.134 124.379 242.561C105.257 242.561 86.1349 242.561 67.0129 242.561C65.4359 242.561 64.4502 241.921 63.6617 239.788H236.351C236.351 239.788 237.139 239.788 237.534 240.002C238.125 240.002 238.322 240.215 238.322 240.855C238.322 241.281 238.125 241.708 237.731 241.708V241.921ZM235.168 231.896H237.534C238.848 231.896 239.242 232.607 238.717 234.029V234.669C238.322 236.233 237.402 237.015 235.957 237.015C202.838 237.015 169.917 237.015 136.995 237.229C115.705 237.229 94.4145 237.229 73.3212 237.015C72.5327 237.015 71.7441 237.229 70.9556 236.802C70.9556 236.162 71.3499 235.309 71.547 234.669C71.4156 233.532 71.8099 232.963 72.7298 232.963H77.0668C113.339 232.963 149.415 232.323 185.688 232.11C202.05 232.11 218.609 232.11 235.168 232.11V231.896ZM221.172 210.567C218.806 210.994 216.243 211.207 213.878 211.421C212.695 211.634 211.906 212.274 210.921 213.127C208.161 215.473 205.401 218.033 202.444 220.379C199.29 222.725 195.939 224.431 192.193 225.284C190.419 225.284 188.842 225.711 187.265 224.431C188.053 224.005 188.842 223.578 189.63 223.578C196.333 220.379 202.444 216.326 208.161 211.207C210.132 209.501 212.301 208.861 214.863 209.074C217.032 209.501 219.2 209.074 221.566 208.861C221.96 208.861 222.552 208.648 223.143 209.074C222.749 209.928 222.157 210.567 221.172 210.567ZM181.351 216.54C181.351 216.54 182.533 215.473 183.519 215.473C185.688 215.26 187.856 214.833 189.433 213.127C189.827 212.7 190.419 212.7 190.813 212.7C193.77 212.7 196.53 211.634 199.093 209.928C201.655 208.435 204.021 206.728 205.992 204.595C206.781 203.955 207.175 203.742 208.161 203.955C213.681 205.448 219.2 205.448 224.72 203.742C226.1 203.316 227.48 203.742 229.057 203.742C226.889 205.448 224.72 206.728 222.157 206.728C219.2 206.941 216.44 207.155 213.483 206.941C211.906 206.941 210.329 207.155 208.949 208.008C208.949 208.008 208.752 208.15 208.358 208.435C208.358 208.435 208.358 208.648 208.161 208.648C207.767 209.074 207.569 209.288 207.175 209.501C201.458 214.62 195.347 218.886 188.447 221.659C186.673 222.298 184.899 222.938 182.928 222.938C181.942 222.725 181.351 222.512 180.562 222.085C180.365 221.872 179.971 221.445 179.971 221.019C179.379 219.312 180.562 218.033 181.351 216.54Z" fill="#171719"/>
<path d="M190.616 148.926C187.659 134.636 180.168 124.611 167.551 119.492C161.44 116.933 154.934 116.08 148.429 116.293C146.852 116.293 145.275 116.08 143.895 116.293C136.995 116.933 130.884 119.066 124.773 122.692C112.551 129.73 103.483 140.182 99.5398 155.112C97.1742 163.644 96.3857 172.175 98.9484 181.133C101.708 190.945 107.425 197.77 116.296 201.823C124.182 205.448 132.461 205.875 140.741 203.529C141.726 203.102 142.515 203.316 143.304 204.169C145.669 206.302 148.035 208.648 150.597 210.781C151.189 211.421 151.78 211.847 152.569 211.421C153.357 211.207 153.357 210.354 153.357 209.501C153.752 206.728 153.949 203.955 154.343 201.396C154.54 199.476 154.54 199.263 156.314 199.263C161.046 199.05 165.58 197.343 169.719 194.571C171.099 193.717 172.676 192.651 174.254 191.585C186.082 183.266 194.164 166.416 190.616 148.926ZM174.648 189.025C171.691 191.158 168.734 193.291 165.58 194.997C162.623 196.49 159.271 197.343 155.92 197.77H154.343C154.343 197.77 152.963 198.41 152.963 199.476C152.569 201.823 152.372 204.382 152.175 206.728C151.977 207.581 152.175 208.435 151.78 209.074H151.386C149.612 207.581 148.035 206.088 146.458 204.382C143.501 201.396 143.501 201.609 139.361 202.249C133.25 203.102 127.336 203.316 121.225 201.609C118.07 200.543 114.719 199.263 112.156 196.917C106.637 193.291 103.285 187.959 101.314 181.347C98.5541 173.028 99.3427 164.497 101.511 156.178C104.271 145.514 109.791 136.769 118.07 130.157C123.393 125.891 129.307 122.478 135.812 120.132C136.798 120.132 137.981 119.492 139.164 119.492C141.332 118.639 143.895 118.639 146.261 118.426C151.977 118.426 157.694 118.853 163.214 120.559C172.479 123.118 179.576 128.877 184.307 137.835C184.702 138.262 185.096 138.689 185.096 139.328C185.293 139.542 185.49 139.755 185.293 139.968C185.293 139.968 185.359 140.11 185.49 140.395C186.87 142.528 187.462 144.874 188.25 147.433C192.587 164.283 185.293 180.92 174.648 189.025Z" fill="#1D1D1F"/>
<path d="M284.452 204.809C283.269 208.648 281.889 212.487 280.115 216.326C278.932 217.179 277.75 217.819 276.567 218.459L276.173 218.033C276.173 218.033 275.581 218.246 275.384 218.459C274.398 219.099 273.216 219.526 272.033 219.952C271.441 219.952 270.653 219.952 269.864 220.379C267.893 221.019 265.922 220.592 263.95 219.952C262.965 219.739 261.979 219.312 260.993 218.886C255.473 216.113 249.757 215.9 243.843 217.393C240.294 218.246 236.746 219.099 233 219.526C231.423 219.739 229.649 219.739 227.875 219.312C225.115 218.672 223.538 216.54 223.932 213.553C224.523 213.767 224.918 214.193 225.312 214.62C226.101 215.26 226.889 215.473 227.875 215.26C229.058 216.113 230.24 216.54 231.817 216.54C232.212 216.326 232.803 216.326 232.606 215.473H234.38C234.38 215.473 235.563 216.54 235.76 215.047C239.9 213.767 243.843 211.207 247.785 209.288C250.348 208.221 253.108 207.795 255.868 208.435C260.008 209.714 264.147 210.141 268.484 209.714C271.441 209.501 274.595 209.074 277.552 207.795C278.735 207.581 280.115 207.155 281.298 206.515H281.495C281.495 206.515 283.466 205.448 284.452 204.809Z" fill="#F3C8D1"/>
<path d="M251.333 198.836C248.77 199.689 246.208 199.903 243.448 200.329C240.294 200.969 237.337 201.182 234.183 202.036C232.605 202.462 231.226 202.036 229.648 202.036C230.24 201.396 231.226 202.036 231.817 201.182C231.817 201.182 231.62 200.969 231.423 200.969C227.874 200.969 224.523 200.756 220.975 200.969C218.215 201.182 215.455 200.969 212.695 201.182C211.118 201.182 209.738 200.756 208.161 200.756C206.387 200.756 205.007 201.182 203.627 202.249C199.881 205.662 195.347 207.155 190.813 208.861C190.419 208.861 190.222 208.861 189.827 208.861C188.447 208.861 187.265 209.288 186.082 210.141C184.702 211.207 182.928 211.847 181.153 211.847C180.759 211.847 180.168 211.847 179.971 211.207C180.365 210.141 181.548 209.927 182.139 209.074C183.125 208.008 184.111 207.155 185.096 206.301C186.673 204.808 188.645 204.169 190.616 203.955C196.136 203.315 201.064 201.182 205.795 198.196C208.752 196.277 211.709 194.57 214.863 192.651C216.046 191.798 217.229 191.798 218.609 192.438C222.946 194.144 227.086 196.063 231.817 196.917C234.38 197.343 236.942 197.77 239.505 198.196C243.054 198.623 246.602 198.41 250.15 198.623C250.545 198.623 250.742 198.623 251.136 198.623L251.333 198.836Z" fill="#F3C8D1"/>
<path d="M235.76 215.047C235.563 216.54 234.774 215.686 234.38 215.473C233 213.34 232.803 210.781 232.803 208.221C230.832 209.074 229.649 209.714 228.86 210.567C227.677 211.847 227.677 213.127 229.254 214.193C230.24 214.833 231.62 215.26 232.803 215.686C232.803 216.326 232.606 216.54 232.014 216.54C230.634 216.54 229.254 216.113 228.072 215.473C228.072 215.26 227.677 215.047 227.48 214.833C226.1 212.914 226.1 211.421 227.48 209.714C228.86 208.008 230.832 207.155 232.606 206.302C234.577 205.449 234.774 205.449 234.774 207.795C234.774 210.354 235.168 212.914 235.957 215.473L235.76 215.047Z" fill="#242426"/>
<path d="M188.645 127.811C188.645 127.811 186.871 127.811 186.871 126.531C186.871 125.465 187.265 124.825 188.251 124.611C191.405 123.758 194.756 122.905 197.911 122.479C198.305 122.479 198.502 122.479 198.896 122.479C199.093 122.479 199.488 122.479 199.488 122.905C199.488 123.118 199.488 123.545 199.291 123.758C199.291 123.758 198.896 123.972 198.896 124.185C195.742 126.318 192.391 127.171 188.842 127.811H188.645Z" fill="#1D1D1F"/>
<path d="M78.6445 161.724C78.6445 161.724 79.4331 160.657 79.8273 160.444C82.3901 158.951 85.15 157.671 87.9098 156.605C88.3041 156.605 88.5012 156.605 88.8955 156.605C89.4869 156.605 89.8812 157.031 90.0783 157.671C90.0783 158.098 90.0783 158.738 89.684 158.951C89.684 158.951 89.2898 159.378 89.0926 159.378C86.3328 160.657 83.3757 161.937 80.4187 162.15C79.8273 162.15 79.4331 162.364 78.8417 161.724H78.6445Z" fill="#1D1D1F"/>
<path d="M92.4429 123.972C92.4429 123.972 93.6257 124.398 94.02 124.825C95.9913 126.958 97.7656 129.304 99.1455 131.863C99.7369 133.143 99.7369 134.209 98.9483 134.423C98.1598 134.849 97.5684 134.423 96.7799 133.356C95.3999 131.01 94.02 128.451 92.8372 125.891C92.4429 125.251 92.0487 124.611 92.2458 123.545L92.4429 123.972Z" fill="#1D1D1F"/>
<path d="M180.364 107.762C179.97 110.961 179.181 114.16 177.999 117.146C177.999 117.573 177.604 118 177.407 118.213C176.816 118.853 175.83 118.213 175.83 117.573C175.83 117.146 175.83 116.506 175.83 116.08C176.619 113.307 177.407 110.534 178.196 107.975C178.196 107.975 178.196 107.548 178.393 107.335C178.787 106.695 178.984 105.629 179.773 105.842C180.561 106.055 180.167 107.122 180.167 107.762H180.364Z" fill="#1D1D1F"/>
<path d="M102.497 124.398C102.497 122.905 102.3 121.625 102.497 120.346C102.497 119.919 102.497 119.492 102.891 119.492C103.285 119.492 103.482 119.919 103.68 120.132C104.468 122.265 105.06 124.398 105.454 126.531C105.454 127.171 105.651 127.811 105.848 128.451C105.848 129.304 105.651 129.944 104.862 130.157C104.074 130.157 103.482 129.944 103.285 128.877C102.891 127.171 102.694 125.678 102.694 124.185L102.497 124.398Z" fill="#1D1D1F"/>
<path d="M83.7695 143.168C83.7695 143.168 84.7552 141.888 85.3466 141.888C87.3179 141.888 89.4864 141.888 91.4578 142.528C91.6549 142.528 91.852 142.741 92.2463 142.954C93.0348 143.381 93.232 144.234 92.8377 144.874C92.4434 145.514 91.852 145.94 91.0635 145.727C89.4864 145.087 87.7122 144.661 86.1351 144.021C85.3466 143.594 84.3609 144.021 83.7695 143.168Z" fill="#242426"/>
<path d="M188.25 113.733C188.25 113.733 188.25 114.16 188.053 114.373C187.068 116.506 185.885 118.213 184.505 120.132C184.505 120.345 184.111 120.559 183.913 120.772C183.519 121.199 182.928 121.199 182.336 120.772C181.745 120.345 181.745 119.706 181.942 119.279C183.125 116.933 184.702 114.8 186.87 113.307C187.462 112.88 188.25 113.094 188.25 113.733Z" fill="#1D1D1F"/>
<path d="M65.6328 231.257C65.2386 232.75 63.8586 233.176 63.0701 234.669C62.0844 232.963 61.6902 231.257 61.2959 229.55C56.1704 213.767 51.6363 197.77 46.9051 181.773C42.9624 168.549 39.0198 155.112 35.0771 141.888C31.5287 130.157 28.1774 118.213 24.8261 106.482C21.0806 93.8976 17.5322 81.1002 13.7866 68.516C10.4354 56.785 7.08408 45.2674 3.53567 33.7497C3.1414 32.2566 2.55 30.9769 2.15573 29.4839C2.15573 29.0573 1.95859 28.6307 2.35286 28.4174C3.53567 27.9908 4.52134 26.4978 5.90127 26.4978C5.90127 26.7111 6.09841 26.9244 6.29554 27.351C10.6325 43.1345 15.1666 58.7047 19.8978 74.4881C35.0771 125.891 50.0593 177.507 65.2386 228.91C65.4357 229.764 66.0271 230.617 65.83 231.683L65.6328 231.257Z" fill="#636363"/>
<path d="M238.717 234.03C238.717 234.03 238.717 234.456 238.717 234.669C238.126 237.016 238.126 237.016 235.957 237.016C203.036 237.016 169.917 237.016 136.996 237.016C115.705 237.016 94.6121 237.016 73.3217 237.016C72.5331 237.016 71.9417 237.016 70.9561 236.802C71.1532 236.163 71.3503 235.309 71.5475 234.669C74.8987 235.096 78.0529 234.883 81.4042 234.883C106.243 234.883 131.082 234.456 155.921 234.243C180.957 234.03 205.796 233.816 230.832 233.603C231.423 233.603 232.212 233.603 232.803 233.603C234.774 233.816 236.746 233.816 238.717 233.816V234.03Z" fill="#636363"/>
<path d="M65.6328 231.257C65.6328 231.257 65.2385 229.337 65.0414 228.484C49.8621 177.081 34.8799 125.465 19.7006 74.0615C15.1665 58.4913 10.4353 42.7078 6.09837 26.9243C6.09837 26.7111 5.90124 26.4978 5.7041 26.0712C5.7041 25.6446 6.09837 25.4313 6.68977 25.218C7.28117 25.218 7.28117 26.0712 7.28117 26.4978C15.5608 55.7185 24.629 84.5128 33.3028 113.734C43.7509 148.5 54.199 183.266 64.45 218.033C65.4357 221.445 66.4213 225.071 67.407 228.484C67.9984 230.403 67.6041 230.83 65.4357 231.043L65.6328 231.257Z" fill="#F4F3F4"/>
<path d="M63.4648 240.002C64.8448 240.002 65.8305 240.002 66.8161 240.002C120.239 240.002 173.663 240.002 227.086 240.002C230.24 240.002 233.197 240.002 236.351 240.002C236.746 240.002 237.14 240.002 237.534 240.002C237.928 240.002 238.125 240.428 238.323 240.855C238.323 241.281 238.323 241.708 237.731 241.708C236.351 241.708 235.168 242.134 233.789 242.134C197.319 242.134 160.849 242.134 124.379 242.134C105.257 242.134 86.1352 242.134 67.2104 242.348C65.4362 242.348 64.4505 241.708 63.662 239.575L63.4648 240.002Z" fill="#636363"/>
<path d="M238.717 234.029C236.746 234.029 234.774 234.029 232.803 233.816C232.212 233.816 231.423 233.816 230.832 233.816C205.796 233.816 180.957 234.243 155.921 234.456C131.082 234.669 106.243 235.096 81.4041 235.096C78.0528 235.096 74.8987 235.096 71.5474 234.882C71.3503 233.389 71.3503 233.176 72.7302 233.176C74.1102 233.176 75.6872 233.176 77.0672 233.176C113.34 233.176 149.415 232.749 185.688 232.536C202.247 232.536 218.609 232.11 235.169 232.11C235.957 232.11 236.746 232.11 237.534 232.11C239.505 232.11 239.703 232.11 238.717 234.243V234.029Z" fill="#F4F3F4"/>
<path d="M183.322 215.473C185.49 215.047 187.658 214.62 189.433 212.914C189.827 212.487 190.221 212.487 190.813 212.487C193.77 212.487 196.53 211.421 199.092 209.714C201.458 208.008 204.021 206.515 205.992 204.382C206.583 203.742 207.175 203.529 208.16 203.742C213.68 205.235 219.2 205.235 224.72 203.529C226.1 203.102 227.282 203.529 228.859 203.529C226.691 205.449 224.72 206.515 222.157 206.728C219.2 206.728 216.243 206.942 213.286 206.942C211.709 206.942 210.329 206.942 208.949 208.008C208.752 208.008 208.358 208.008 208.16 208.435C207.569 208.435 206.978 208.435 206.978 209.288C205.992 208.861 205.401 209.714 204.809 210.141C198.895 214.833 192.193 217.819 185.293 220.166C184.307 220.592 183.322 220.592 182.336 220.592C181.153 220.592 181.153 220.379 181.547 219.099C181.942 217.819 183.124 216.966 183.322 215.473Z" fill="#F3C8D1"/>
<path d="M189.631 223.578C196.333 220.379 202.445 216.326 208.161 211.421C210.133 209.714 212.498 208.861 215.061 209.288C217.23 209.501 219.398 209.288 221.567 209.288C222.158 209.288 222.749 208.861 223.341 209.288C223.341 209.288 222.355 210.781 221.369 210.994C219.004 211.421 216.638 211.634 214.075 211.634C214.075 210.994 214.075 210.354 213.09 210.567C212.498 210.567 212.104 211.207 211.513 211.634C210.724 212.7 209.739 213.34 208.753 214.193C205.204 217.179 201.656 220.166 197.319 222.085C194.953 223.152 192.391 224.431 189.631 223.791V223.578Z" fill="#F3C8D1"/>
<path d="M75.6865 230.404C75.6865 229.124 75.8837 228.057 76.0808 226.991C76.0808 226.351 76.6722 225.925 77.2636 225.711C78.0521 225.498 79.0378 225.285 79.8263 225.285C82.9805 225.285 85.9375 225.285 89.0916 225.285C90.2744 225.285 90.4716 225.711 90.4716 226.778C90.4716 227.844 90.4716 228.697 90.4716 229.977C85.5432 229.977 80.6149 230.19 75.6865 230.404Z" fill="#D3CCCD"/>
<path d="M183.322 215.473C183.125 216.753 181.942 217.819 181.548 219.099C181.154 220.166 181.351 220.592 182.337 220.592C183.322 220.592 184.308 220.592 185.294 220.166C192.193 217.819 198.896 214.833 204.81 210.141C205.401 209.714 205.993 209.074 206.978 209.288C201.262 214.407 195.15 218.672 188.251 221.445C186.477 222.085 184.505 222.725 182.534 222.725C181.745 222.725 180.957 222.512 180.365 221.872C179.971 221.659 179.774 221.232 179.577 220.805C178.985 218.886 180.365 217.819 180.957 216.326C181.351 215.26 182.14 215.26 183.125 215.473H183.322Z" fill="#F4F3F4"/>
<path d="M151.781 229.764C148.233 229.764 144.685 229.764 141.136 229.764C140.15 229.764 139.756 229.764 139.559 228.484C139.559 227.417 138.968 226.564 138.771 225.498C138.771 225.071 139.362 225.071 139.756 225.071C142.713 225.071 145.67 225.071 148.824 225.071C150.401 225.071 150.599 225.071 151.19 226.778C151.387 227.631 151.781 228.484 151.978 229.124C151.978 229.124 151.978 229.124 151.978 229.764H151.781Z" fill="#CBC5C5"/>
<path d="M188.644 229.337C185.096 229.337 181.547 229.337 178.196 229.337C177.605 229.337 177.21 229.337 177.21 228.484C176.816 224.858 176.028 225.284 179.576 225.284C180.167 225.284 180.956 225.284 181.547 225.284C183.716 224.858 185.687 225.711 187.461 226.991C188.447 227.63 188.053 228.697 188.644 229.55V229.337Z" fill="#CBC5C5"/>
<path d="M164.791 225.498C167.748 224.858 170.705 225.071 173.662 225.071C174.451 225.071 174.648 225.498 174.845 226.138C175.042 227.204 175.436 228.271 175.633 229.337C172.479 229.337 169.128 229.337 165.974 229.337C165.382 229.337 164.988 229.124 165.185 228.484C165.185 227.417 164.791 226.351 164.791 225.285V225.498Z" fill="#CBC5C5"/>
<path d="M189.63 223.578C192.39 224.218 194.953 222.938 197.319 221.872C201.458 219.952 205.204 216.966 208.752 213.98C209.738 213.127 210.724 212.487 211.512 211.42C211.907 210.994 212.498 210.567 213.089 210.354C213.878 209.927 214.075 210.567 214.075 211.42C212.892 211.634 212.104 212.487 211.118 213.127C208.358 215.473 205.598 218.033 202.641 220.379C199.487 222.725 196.136 224.431 192.39 225.284C190.813 225.711 189.039 225.711 187.462 224.431C188.448 224.005 189.039 223.578 189.828 223.578H189.63Z" fill="#F4F3F4"/>
<path d="M163.411 229.55C160.257 229.55 157.497 229.55 154.737 229.55C154.146 229.55 153.752 229.337 153.752 228.484C153.752 227.418 153.357 226.564 153.357 225.285C156.117 225.285 158.68 225.285 161.44 225.285C162.228 225.285 162.623 225.925 162.82 226.564C163.017 227.418 163.214 228.271 163.608 229.337L163.411 229.55Z" fill="#CBC5C5"/>
<path d="M114.325 226.778C115.902 226.351 117.479 226.564 119.056 226.564C120.83 226.564 122.605 226.564 124.379 226.351C125.365 226.351 125.759 226.564 125.956 227.631C125.956 228.271 126.153 229.124 126.35 229.977C123.985 229.977 121.619 229.977 119.253 229.977C118.662 229.977 117.873 229.977 117.282 229.977C116.296 229.977 115.311 230.404 114.522 229.977C113.931 229.337 114.522 228.057 114.128 226.991L114.325 226.778Z" fill="#CBC5C5"/>
<path d="M97.175 230.19C95.9922 230.19 95.0066 230.19 93.8238 230.19C93.0352 230.19 92.8381 229.977 92.8381 229.124C92.8381 225.498 92.2467 226.138 95.598 225.711C96.9779 225.711 98.3578 225.711 99.7378 225.711C100.526 225.711 100.921 226.138 101.118 226.991C101.118 226.991 101.118 227.417 101.118 227.631C101.512 229.977 101.512 229.977 99.3435 229.977C98.555 229.977 97.9636 229.977 97.175 229.977V230.19Z" fill="#CBC5C5"/>
<path d="M113.143 229.977C109.988 229.977 107.031 229.977 104.074 229.977C103.483 229.977 103.089 229.764 103.089 228.91C103.089 228.057 103.089 227.204 102.892 226.138C105.651 226.138 108.411 226.138 110.974 226.564C111.565 226.564 111.96 226.991 112.157 227.631C112.354 228.271 112.551 228.91 112.945 229.977H113.143Z" fill="#CBC5C5"/>
<path d="M138.572 229.763H128.518C128.518 229.763 128.518 227.631 128.124 226.351C130.687 225.711 133.052 225.711 135.418 225.711C136.009 225.711 136.404 226.138 136.601 226.564C136.995 227.631 137.586 228.484 138.572 229.55V229.763Z" fill="#D3CCCD"/>
<path d="M68.5904 233.816C68.5904 236.375 67.6047 237.229 65.042 237.015C66.0277 235.522 67.2105 234.456 68.5904 233.816Z" fill="#636363"/>
<path d="M206.978 209.501C206.978 209.501 207.569 208.434 208.16 208.648C207.963 209.074 207.372 209.501 206.978 209.501Z" fill="#F4F3F4"/>
<path d="M208.16 208.648C208.16 208.648 208.554 208.221 208.949 208.221C208.949 208.434 208.554 208.648 208.16 208.648Z" fill="#F4F3F4"/>
<path d="M185.491 141.675V140.395C185.491 140.395 185.491 140.182 185.294 139.968C185.097 139.968 185.097 139.542 185.097 139.328C185.097 138.689 184.702 138.262 184.308 137.835C179.577 128.877 172.48 123.118 163.215 120.559C157.695 118.853 151.978 118.426 146.261 118.426C143.896 118.639 141.333 118.639 139.165 119.492C135.616 121.199 132.068 122.692 128.716 124.611C121.028 129.091 114.326 135.276 109.792 143.381C105.652 150.846 103.286 158.738 103.286 167.483C103.483 174.308 104.666 181.133 107.032 187.532C108.017 190.305 109.397 192.864 111.171 195.211C111.566 195.637 112.157 196.064 112.157 196.917C114.72 199.263 118.071 200.543 121.225 201.609C127.336 203.316 133.25 203.102 139.362 202.249C143.501 201.609 143.501 201.396 146.458 204.382C148.036 206.088 149.613 207.581 151.387 209.074C151.584 206.302 150.795 203.529 150.993 200.543V199.05C150.993 196.277 150.993 196.064 153.95 195.424C161.638 193.291 168.34 189.238 174.254 183.693C177.803 180.28 180.957 176.654 183.125 172.388C185.491 167.909 186.674 163.004 187.068 157.885C187.659 152.339 187.068 147.007 185.491 141.675ZM167.355 165.137C167.355 165.137 165.383 166.203 164.398 166.63C151.387 172.815 138.573 179.214 125.759 185.826C125.168 186.039 124.774 186.466 124.182 186.039C123.788 185.826 124.182 185.186 123.788 184.759C120.24 177.721 117.283 170.469 114.72 163.004C113.931 161.084 113.143 158.951 112.749 156.605C112.551 155.112 112.749 154.899 113.931 154.046C114.129 153.832 114.326 153.619 114.72 153.619C124.182 149.14 133.448 144.021 142.91 139.968C146.853 138.262 150.993 136.556 154.738 134.849C155.527 134.423 156.118 134.849 156.512 135.276C157.104 135.916 157.498 136.556 157.892 137.196C161.441 144.447 164.398 151.913 167.749 159.378C168.143 160.444 168.537 161.724 168.735 163.217C168.735 164.07 168.143 164.71 167.355 165.137Z" fill="#26B8E9"/>
<path d="M151.387 209.074C151.387 206.302 150.795 203.529 150.992 200.756C150.992 200.329 150.992 199.69 150.992 199.263C150.992 196.49 151.19 196.277 153.949 195.424C161.638 193.291 168.34 189.238 174.451 183.693C178 180.493 180.957 176.867 183.322 172.388C185.688 167.909 186.674 163.004 187.265 157.885C187.856 152.339 187.265 147.007 185.688 141.675C185.688 141.248 185.688 140.821 185.688 140.395C187.265 142.528 187.856 144.874 188.448 147.433C192.982 164.497 185.491 180.92 174.846 189.025C171.889 191.158 168.932 193.291 165.777 194.997C162.82 196.49 159.469 197.557 156.118 197.77C155.526 197.77 155.132 197.77 154.541 197.77C153.555 197.77 153.161 198.41 152.964 199.476C152.767 201.822 152.372 204.382 152.175 206.728C152.175 207.581 152.175 208.221 151.781 209.074H151.387Z" fill="#F8F8F8"/>
<path d="M139.164 119.492C135.616 121.199 132.068 122.692 128.716 124.611C120.831 129.091 114.325 135.063 109.791 143.381C105.652 150.846 103.089 158.738 103.286 167.483C103.286 174.308 104.666 181.133 107.032 187.532C108.017 190.305 109.397 192.864 111.171 195.211C111.566 195.85 112.157 196.277 112.157 197.13C106.637 193.504 103.483 187.959 101.315 181.56C98.5548 173.028 99.3433 164.71 101.512 156.178C104.272 145.514 109.791 136.982 118.071 130.37C123.591 125.891 129.505 122.692 135.813 120.346C136.799 119.919 137.982 119.706 139.164 119.706V119.492Z" fill="#F8F8F8"/>
<path d="M185.49 140.395C185.49 140.395 185.096 139.755 185.096 139.329C185.49 139.542 185.687 139.968 185.49 140.395Z" fill="#F8F8F8"/>
<path d="M232.605 215.473C231.422 215.047 230.239 214.62 229.057 213.98C227.677 212.914 227.48 211.847 228.662 210.354C229.451 209.501 230.634 208.861 232.605 208.008C232.605 210.568 232.802 213.127 234.182 215.26C233.591 215.26 232.999 215.26 232.408 215.26L232.605 215.473Z" fill="#F8F8F8"/>
<path d="M167.749 159.378C164.397 151.913 161.44 144.447 157.892 137.196C157.498 136.556 157.103 135.916 156.512 135.276C156.118 134.636 155.526 134.423 154.738 134.849C150.992 136.556 146.852 138.262 142.91 139.968C133.447 144.021 124.182 149.14 114.72 153.619C114.325 153.619 114.128 153.832 113.931 154.046C112.748 154.899 112.551 155.112 112.748 156.605C113.143 158.951 113.931 161.084 114.72 163.004C117.282 170.469 120.239 177.721 123.788 184.759C123.985 185.186 123.788 185.826 124.182 186.039C124.773 186.466 125.168 186.039 125.759 185.826C138.573 179.214 151.386 172.815 164.397 166.63C165.383 166.203 166.369 165.563 167.354 165.137C168.143 164.71 168.734 164.07 168.734 163.217C168.537 161.724 168.143 160.444 167.749 159.378ZM153.161 137.622C152.569 139.115 152.175 140.182 151.584 141.248C148.429 148.287 145.67 155.325 142.713 162.364C142.187 163.359 141.398 163.715 140.347 163.43C135.222 161.724 130.096 160.231 124.971 158.738C121.816 157.671 118.859 156.392 115.311 155.112C127.928 149.14 139.953 142.528 153.161 137.622ZM163.017 165.137C158.483 167.483 154.146 169.616 149.612 171.749C143.895 174.735 138.179 177.507 132.264 180.494C131.476 180.92 130.687 181.56 129.702 181.773C128.322 182.626 126.745 183.48 125.168 184.333C121.422 175.801 117.677 167.696 115.114 158.951C114.917 158.525 114.522 158.098 114.917 157.458C114.917 157.458 114.851 157.458 114.72 157.458H114.917C116.297 157.458 117.479 158.311 118.662 158.738C124.971 161.297 131.279 163.004 137.587 164.923C138.376 165.137 139.164 165.137 139.756 165.776C141.727 166.203 143.107 165.421 143.895 163.43C143.895 163.43 145.078 161.084 145.67 159.804C145.67 159.378 145.867 159.164 146.064 158.951C146.064 158.951 146.064 158.738 146.064 158.311C147.444 154.472 149.021 150.846 150.598 147.22C151.781 144.447 152.964 141.888 153.949 139.115C154.343 138.475 154.541 137.835 155.132 136.982C159.469 145.727 162.82 154.685 166.96 163.43C165.58 164.283 164.397 164.923 162.82 165.35L163.017 165.137Z" fill="#242426"/>
<path d="M163.017 165.137C158.482 167.27 154.146 169.402 149.611 171.749C143.895 174.735 137.981 177.507 132.264 180.494C131.475 180.92 130.687 181.56 129.701 181.773C129.701 181.773 129.701 181.347 129.504 181.133C127.73 176.868 126.941 172.389 124.97 168.336C124.97 168.336 124.97 167.909 124.97 167.696C124.97 167.056 124.97 166.63 125.758 166.63C128.912 166.63 131.869 165.777 135.024 165.777C136.601 165.777 138.178 165.777 139.755 165.777C141.595 166.203 142.975 165.492 143.895 163.644C144.486 162.364 145.077 161.084 145.669 159.804C146.063 159.591 146.26 159.378 146.063 158.951C146.063 158.951 146.457 158.738 146.063 158.311C146.654 158.525 146.852 158.311 147.049 157.885C147.64 156.818 148.429 155.752 149.02 154.685C150.597 152.339 151.977 149.993 153.554 147.86C154.54 146.367 154.934 146.58 155.723 148.073C155.723 148.287 155.92 148.5 156.117 148.927C157.891 153.406 159.862 157.885 161.637 162.364C162.031 163.43 162.622 164.497 162.622 165.563L163.017 165.137Z" fill="white"/>
<path d="M153.16 137.622C152.569 139.115 152.175 140.395 151.78 141.461C148.429 148.287 145.866 155.538 142.909 162.364C142.121 164.07 142.318 163.857 140.544 163.43C135.418 161.937 130.293 160.444 125.167 158.738C122.013 157.671 119.056 156.605 115.508 155.325C128.124 149.353 140.15 142.528 153.16 137.622Z" fill="#FBFBFB"/>
<path d="M139.756 165.563C138.179 165.563 136.602 165.563 135.025 165.563C131.87 165.563 128.913 166.416 125.759 166.416C125.168 166.416 124.774 166.843 124.971 167.483C124.971 167.483 124.971 167.909 124.971 168.123C126.745 172.175 127.731 176.868 129.505 180.92C129.505 180.92 129.505 181.347 129.702 181.56C128.125 182.413 126.745 183.266 124.971 184.119C121.422 175.801 117.48 167.483 114.917 158.951C114.917 158.525 114.128 157.885 114.917 157.245C116.297 157.245 117.48 158.098 118.662 158.525C124.774 160.871 131.279 162.577 137.587 164.497C138.376 164.71 139.164 164.923 139.756 165.35V165.563Z" fill="#B4DDEF"/>
<path d="M163.017 165.137C163.017 163.857 162.426 163.004 162.032 161.937C160.257 157.458 158.286 152.979 156.512 148.5C156.512 148.287 156.315 148.073 156.118 147.647C155.329 146.154 154.935 145.94 153.949 147.433C152.372 149.566 150.992 151.913 149.415 154.259C148.626 155.325 148.035 156.392 147.444 157.458C147.247 157.885 147.049 158.098 146.458 157.885C147.641 154.259 149.218 150.633 150.795 147.007C151.978 144.234 153.161 141.675 154.343 138.689C154.54 138.049 154.935 137.409 155.329 136.556C159.666 145.301 163.214 154.259 167.157 163.004C165.777 163.857 164.397 164.71 163.017 164.923V165.137Z" fill="#B4DDEF"/>
<path d="M146.063 158.524C146.063 158.524 146.063 159.164 145.669 159.378C145.669 158.951 145.669 158.738 146.063 158.524Z" fill="#B4DDEF"/>
<path d="M150.238 334.297C168.49 334.297 183.286 319.057 183.286 300.259C183.286 281.46 168.49 266.221 150.238 266.221C131.986 266.221 117.189 281.46 117.189 300.259C117.189 319.057 131.986 334.297 150.238 334.297Z" fill="white"/>
<path d="M169.999 272.714C176.939 278.048 182.416 285.83 184.283 295.012C186.3 304.106 183.986 314.25 178.277 321.617C172.567 329.05 163.97 333.509 155.225 334.646C146.48 335.892 137.311 333.837 129.861 328.634C122.368 323.541 116.934 314.993 115.491 305.637C113.92 296.302 116.149 286.246 121.752 278.594C127.292 270.943 136.037 265.784 145.101 265.128C154.164 264.319 163.037 267.402 169.999 272.714ZM169.744 273.064C162.803 267.708 153.612 266.177 145.546 268.079C137.481 270.003 130.264 274.725 125.552 281.458C120.818 288.126 118.526 296.652 119.609 304.959C120.67 313.244 124.83 321.136 131.304 326.601C137.757 332.067 146.629 334.646 155.013 333.16C163.419 331.717 170.763 326.295 175.305 319.343C179.953 312.392 182.14 303.953 181.524 295.406C180.887 286.902 176.77 278.288 169.744 273.064Z" fill="black"/>
<path d="M161.829 288C162.403 288 162.937 288.103 163.429 288.308C163.921 288.513 164.358 288.807 164.741 289.189C165.124 289.572 165.411 290.003 165.603 290.481C165.794 290.96 165.903 291.5 165.931 292.102C165.931 292.648 165.828 293.175 165.623 293.681C165.418 294.187 165.124 294.631 164.741 295.014L148.458 311.317C148.075 311.7 147.631 311.994 147.125 312.199C146.619 312.404 146.093 312.514 145.546 312.527C144.999 312.527 144.473 312.425 143.967 312.22C143.461 312.015 143.017 311.714 142.634 311.317L135.21 303.894C134.827 303.511 134.533 303.066 134.328 302.561C134.123 302.055 134.014 301.528 134 300.981C134 300.407 134.109 299.874 134.328 299.382C134.547 298.89 134.841 298.452 135.21 298.069C135.579 297.687 136.01 297.399 136.502 297.208C136.994 297.017 137.534 296.907 138.122 296.88C138.669 296.88 139.195 296.982 139.701 297.188C140.207 297.393 140.651 297.687 141.034 298.069L145.546 302.581L158.917 289.189C159.3 288.807 159.744 288.513 160.25 288.308C160.756 288.103 161.282 288 161.829 288Z" fill="#88E51D"/>
<path fill-rule="evenodd" clip-rule="evenodd" d="M168.931 292.033V292.102C168.931 293.034 168.754 293.943 168.403 294.808C168.049 295.682 167.532 296.465 166.864 297.134C166.864 297.134 166.864 297.133 166.864 297.134C166.864 297.134 166.863 297.135 166.863 297.135L150.579 313.439C149.91 314.108 149.127 314.625 148.252 314.979C147.411 315.321 146.528 315.504 145.621 315.526L145.583 315.527H145.546C144.613 315.527 143.704 315.35 142.84 315C141.951 314.64 141.163 314.107 140.496 313.423L133.089 306.015C132.419 305.346 131.903 304.563 131.548 303.688C131.207 302.846 131.024 301.964 131.001 301.056L131 301.019V300.981C131 300.016 131.186 299.064 131.587 298.163C131.946 297.356 132.435 296.625 133.05 295.987C133.719 295.294 134.515 294.762 135.415 294.412C136.242 294.09 137.107 293.924 137.983 293.883L138.052 293.88H138.122C139.055 293.88 139.964 294.057 140.828 294.407C141.703 294.762 142.486 295.279 143.156 295.948L145.544 298.337L156.796 287.068C157.465 286.399 158.248 285.882 159.123 285.527C159.987 285.177 160.897 285 161.829 285C162.769 285 163.697 285.17 164.583 285.538C165.442 285.897 166.207 286.413 166.863 287.068C167.518 287.723 168.038 288.493 168.388 289.367C168.723 290.205 168.887 291.084 168.928 291.965L168.931 292.033ZM158.917 289.189C159.3 288.807 159.744 288.513 160.25 288.308C160.756 288.103 161.282 288 161.829 288C162.403 288 162.937 288.103 163.429 288.308C163.921 288.513 164.358 288.807 164.741 289.189C165.124 289.572 165.411 290.003 165.603 290.481C165.794 290.96 165.903 291.5 165.931 292.102C165.931 292.648 165.828 293.175 165.623 293.681C165.418 294.187 165.124 294.631 164.741 295.014L148.458 311.317C148.075 311.7 147.631 311.994 147.125 312.199C146.619 312.404 146.093 312.514 145.546 312.527C144.999 312.527 144.473 312.425 143.967 312.22C143.461 312.015 143.017 311.714 142.634 311.317L135.21 303.894C134.827 303.511 134.533 303.066 134.328 302.561C134.123 302.055 134.014 301.528 134 300.981C134 300.407 134.109 299.874 134.328 299.382C134.547 298.89 134.841 298.452 135.21 298.069C135.579 297.687 136.01 297.399 136.502 297.208C136.994 297.017 137.534 296.907 138.122 296.88C138.669 296.88 139.195 296.982 139.701 297.188C140.207 297.393 140.651 297.687 141.034 298.069L145.546 302.581L158.917 289.189Z" fill="black"/>
<defs>
<linearGradient id="paint0_linear_1937_30023" x1="0.927618" y1="150.57" x2="298.72" y2="150.57" gradientUnits="userSpaceOnUse">
<stop stop-color="#EE882B"/>
<stop offset="0.17" stop-color="#EF8F29"/>
<stop offset="0.43" stop-color="#F2A525"/>
<stop offset="0.74" stop-color="#F8C81F"/>
<stop offset="1" stop-color="#FEEB1A"/>
</linearGradient>
</defs>
</svg>
