<svg width="141" height="138" viewBox="0 0 141 138" fill="none" xmlns="http://www.w3.org/2000/svg">
<circle cx="69.0001" cy="69.0001" r="66.0714" fill="#B9E199" stroke="black" stroke-width="5"/>
<path d="M65.6164 17.2797C73.5592 17.6581 81.1238 19.928 88.6884 22.198C98.0181 25.0985 106.97 28.8818 115.291 33.9261C117.56 35.3133 118.947 37.205 119.829 39.7271C122.225 46.4109 124.999 52.9686 127.394 59.5263C131.555 71.2545 135.841 82.9826 139.497 94.8369C139.75 95.8457 140.002 96.7285 140.128 97.7374C140.38 100.512 139.119 102.529 136.724 103.791C133.95 105.304 130.924 105.682 127.898 106.187C117.812 107.7 107.852 109.087 97.766 110.727C90.9578 111.862 84.4018 113.753 77.5937 115.014C69.3987 116.528 61.3298 118.293 53.513 121.068C50.1089 122.329 47.2092 121.572 44.4355 119.554C40.7792 116.78 37.8794 113.249 35.3579 109.465C27.1629 97.4851 19.3462 85.2526 13.1684 72.0111C10.7729 66.7145 9.13396 61.1657 9.00788 55.3647C8.8818 51.077 10.2686 47.2937 13.1684 44.0149C15.3117 41.6188 17.8332 39.3488 20.6069 37.7094C31.1974 31.6562 41.6618 25.6029 52.6305 20.3063C56.791 18.2886 60.9515 16.7753 65.6164 17.0275V17.2797ZM10.3947 55.2386C10.5208 59.9046 11.5294 64.5707 13.4206 68.8584C20.2287 84.4959 29.3062 98.8724 39.5184 112.492C41.4096 115.014 43.5529 117.284 46.3266 118.924C48.2178 120.185 50.235 120.437 52.5044 119.68C55.7824 118.545 59.1865 117.536 62.5906 116.528C68.8944 114.762 75.4504 113.879 81.8803 112.366C94.7402 109.339 107.726 107.196 120.712 105.556C124.873 105.052 129.159 104.547 133.194 103.412C138.111 102.025 139.245 100.007 137.606 95.0891C131.555 76.4249 125.125 58.013 118.064 39.7271C117.182 37.5833 115.921 36.07 114.03 34.935C110.878 32.9173 107.6 31.2778 104.196 29.6384C94.8663 25.3507 85.0322 22.198 74.9461 19.928C70.4073 18.9191 65.7425 18.1625 61.0776 19.0453C57.5475 19.6758 54.3955 21.3152 51.1175 22.8285C43.8051 26.2335 36.9969 30.5212 29.9366 34.3045C25.9022 36.4483 21.7416 38.5922 18.0854 41.4927C13.7987 45.0237 10.2686 48.9331 10.5207 55.1125L10.3947 55.2386Z" fill="#12100D"/>
<path d="M10.3946 55.2389C10.1424 49.1857 13.6726 45.1502 17.9592 41.6192C21.4894 38.5925 25.6499 36.5748 29.8105 34.4309C36.8708 30.6476 43.805 26.4861 50.9914 22.955C54.2694 21.4417 57.4213 19.8023 60.9514 19.1717C65.6163 18.4151 70.2811 19.0456 74.8199 20.0545C84.906 22.3244 94.614 25.3511 104.07 29.7649C107.474 31.2782 110.752 33.0437 113.904 35.0615C115.795 36.1964 117.182 37.7098 117.938 39.8536C124.998 58.1395 131.428 76.5514 137.48 95.2155C139.119 100.134 137.984 102.025 133.067 103.539C129.033 104.674 124.746 105.178 120.586 105.683C107.474 107.322 94.4879 109.466 81.7541 112.493C75.3242 114.006 68.7682 114.889 62.4644 116.654C59.0603 117.537 55.7823 118.672 52.3782 119.807C50.1088 120.563 48.2177 120.185 46.2005 119.05C43.5529 117.411 41.2834 115.141 39.3923 112.619C29.1801 98.9988 20.1025 84.6224 13.2944 68.9849C11.4032 64.6971 10.3946 60.1572 10.2686 55.365L10.3946 55.2389ZM104.322 101.395C112.139 100.512 119.199 99.6293 126.385 98.7466C127.772 98.6205 129.159 98.4944 130.546 98.2421C131.176 98.116 131.933 97.9899 131.681 96.9811C130.546 93.45 128.781 90.2973 126.511 87.5229C126.007 86.8923 125.377 86.7662 124.62 87.1446C123.359 87.7751 122.099 87.7751 120.838 87.1446C118.316 86.0096 117.938 82.7307 120.334 80.5869C121.342 79.7041 122.603 78.8213 123.738 78.0647C124.746 77.308 125.125 76.4253 124.62 75.1642C123.486 72.5159 122.477 69.9937 121.468 67.3454C120.964 65.9582 120.334 65.0755 118.569 65.706C117.182 66.2104 115.669 65.3277 115.038 64.0666C114.282 62.5533 114.408 61.1661 115.669 60.0311C116.425 59.2744 117.308 58.5178 118.064 57.7611C119.073 56.8783 119.199 55.8695 118.821 54.6084C118.19 52.969 117.434 51.2035 117.056 49.4379C116.173 45.2763 113.526 43.1325 109.869 41.7453C106.087 40.3581 102.305 38.8447 98.6484 37.0792C96.3791 35.9442 93.9836 34.9354 91.5882 34.1787C90.8317 33.9265 90.0752 33.9265 89.4448 34.3048C88.1841 35.0615 86.6712 34.9354 85.2843 34.6831C82.5106 34.1787 82.0063 32.7915 83.7714 30.5216C84.9061 29.0083 84.6539 28.3777 82.8888 27.8733C79.7369 26.9905 76.4589 26.1077 73.4331 24.8467C71.7941 24.2161 70.029 23.3333 68.1378 23.5856C66.751 23.7117 65.3641 24.09 63.9773 24.3422C57.9256 25.6033 52.2521 27.8732 46.7047 30.6476C37.5011 35.1876 28.8019 40.4842 21.6155 47.9246C19.8504 49.6901 18.5896 51.834 18.5896 54.4823C18.5896 58.6439 19.0939 62.5533 20.859 66.3366C24.7674 75.1642 29.5583 83.6135 33.971 92.1889C37.5012 98.9988 41.5356 105.556 46.5787 111.484C47.2091 112.24 48.4698 112.745 48.8481 113.627C49.3524 115.015 50.2349 114.889 51.2436 114.636C62.3383 110.979 73.4331 107.574 84.78 105.052C88.3101 104.295 91.4621 103.16 92.8489 99.3771C93.2272 98.2421 94.3618 97.3594 95.4965 96.8549C98.0181 95.72 100.161 96.4766 102.053 98.9988C102.809 100.008 103.439 101.521 104.7 101.269L104.322 101.395Z" fill="#FAFAFA"/>
<path d="M104.322 101.394C103.062 101.773 102.431 100.259 101.675 99.1245C99.7837 96.6023 97.6404 95.9717 95.1188 96.9806C93.8581 97.485 92.8494 98.3678 92.4712 99.5028C91.0843 103.412 87.9325 104.421 84.4023 105.178C73.0554 107.7 61.8345 111.105 50.8658 114.762C49.8572 115.14 48.9747 115.266 48.4704 113.753C48.0921 112.87 46.9575 112.366 46.201 111.609C41.1579 105.682 37.1235 99.1245 33.5933 92.3146C29.1806 83.7391 24.5157 75.2898 20.4813 66.4622C18.7162 62.6789 18.2119 58.6434 18.2119 54.6079C18.2119 51.9596 19.4726 49.9419 21.2377 48.0502C28.5502 40.7359 37.1234 35.3132 46.3271 30.7733C51.8744 27.9989 57.5479 25.7289 63.5996 24.4678C64.9865 24.2156 66.3733 23.8373 67.7601 23.7112C69.6513 23.4589 71.4164 24.3417 73.0554 24.9722C76.0812 26.2333 79.3592 27.1161 82.5112 27.9989C84.2762 28.5033 84.5284 29.1339 83.3937 30.6472C81.6286 32.9171 82.1329 34.3043 84.9066 34.8088C86.2934 35.061 87.6803 35.1871 89.0672 34.4304C89.6976 34.0521 90.4539 34.0521 91.2104 34.3044C93.6059 35.061 96.0014 36.196 98.2708 37.2049C101.927 38.9704 105.709 40.4837 109.492 41.8709C113.274 43.2581 115.922 45.4019 116.678 49.5635C117.056 51.3291 117.813 52.9685 118.443 54.734C118.947 55.9951 118.695 57.004 117.687 57.8867C116.804 58.6434 116.048 59.4001 115.291 60.1567C114.156 61.2917 113.904 62.6789 114.661 64.1922C115.291 65.4533 116.93 66.3361 118.191 65.8316C119.956 65.2011 120.586 66.0838 121.091 67.471C122.099 70.1193 123.108 72.7676 124.243 75.2898C124.747 76.5509 124.495 77.4337 123.36 78.1903C122.225 78.947 120.965 79.7036 119.956 80.7125C117.687 82.8564 117.939 86.1352 120.46 87.2702C121.721 87.7746 122.982 87.9007 124.243 87.2702C124.999 86.8919 125.629 87.018 126.134 87.6485C128.403 90.549 130.168 93.7017 131.303 97.1067C131.555 98.1156 130.799 98.2417 130.168 98.3678C128.781 98.7461 127.395 98.7461 126.008 98.8722C118.821 99.755 111.761 100.638 103.944 101.521L104.322 101.394ZM25.1461 58.5173C24.894 59.6523 25.0201 60.7873 25.3983 61.9223C26.2809 64.8228 27.5416 67.7232 29.0545 70.3715C34.4758 80.2081 40.0232 90.0446 46.201 99.5028C48.4704 102.908 50.4876 106.439 53.2613 109.465C53.7656 111.105 54.7742 111.609 56.4132 110.979C56.7914 110.853 57.1697 110.726 57.5479 110.6C60.6999 109.592 63.9778 108.457 67.1297 107.574C73.1814 105.934 79.3592 104.169 85.5369 102.782C88.1846 102.151 89.6975 101.142 90.58 98.4939C91.5886 95.7195 94.2363 94.3323 97.136 94.2062C100.036 94.2062 102.179 95.7195 103.44 98.3678C103.692 98.9983 104.07 99.1245 104.701 99.1245C111.005 98.1156 117.561 97.7372 123.864 96.8545C125.882 96.6022 127.899 96.2239 130.042 95.8456C128.403 93.7017 127.521 91.4318 126.26 89.2879C125.629 88.279 124.999 88.0268 124.243 89.0357C123.612 89.1618 123.108 89.414 122.478 89.5401C120.839 89.5401 119.452 89.0357 118.317 87.7746C115.795 85.2524 116.3 80.8386 119.578 78.3164C120.46 77.5598 121.469 77.0553 122.478 76.4248C122.982 76.0465 123.234 75.7942 122.982 75.0376C121.973 72.6415 120.965 70.2455 120.082 67.7233C119.83 67.0927 119.578 66.8405 118.821 67.0927C116.3 67.8494 114.03 66.7144 113.022 64.1922C112.013 61.4178 112.391 59.6523 115.039 57.5084C116.3 56.3734 117.182 55.6168 116.3 53.599C115.291 51.5813 114.913 49.3113 114.283 47.1675C114.156 46.663 114.03 46.0325 113.148 46.1586C107.096 46.1586 101.044 46.663 95.1188 47.1675C85.4109 47.9241 75.7029 48.5547 65.995 49.8158C64.9864 49.9419 64.6082 50.3202 64.356 51.3291C63.2214 55.6168 59.313 58.139 54.9003 57.5084C52.5048 57.2562 50.3615 56.3734 49.479 53.9774C48.9747 52.5902 48.2182 52.5902 47.2096 52.8424C44.9402 53.2207 42.5448 53.599 40.2754 53.9774C35.7366 54.8601 31.0718 55.7429 26.6591 57.1301C26.1548 57.2562 25.5244 57.1301 25.5244 58.139L25.1461 58.5173ZM110.626 44.6453C110.626 44.267 110.248 44.267 109.996 44.1409C103.692 41.997 97.8925 38.8443 91.7148 36.4482C90.8322 36.0699 90.0758 36.0699 89.1932 36.4482C87.4281 37.331 85.5369 37.2049 83.6458 36.5743C81.1243 35.6915 79.6114 33.2955 81.2504 30.7733C81.6286 30.1427 81.3765 29.8905 80.8722 29.6383C77.8463 28.6294 74.6944 27.9989 71.4164 28.7555C65.869 30.0166 60.4477 31.7821 55.1524 33.7999C46.0749 37.0787 38.2581 42.3753 30.8196 48.3024C28.4241 50.1941 27.1634 52.9685 25.7765 55.869C33.3411 53.7251 40.6536 52.4641 47.966 51.203C48.8486 51.0769 49.6051 50.9508 50.1094 50.068C50.8658 48.8069 52.0005 47.9241 53.2613 47.2936C56.5393 45.4019 61.3302 44.5192 64.356 47.9241C64.8604 48.5547 65.4908 48.3025 66.1212 48.1764C68.0123 47.9241 70.0295 47.6719 71.9207 47.4197C77.8463 46.9153 83.898 46.4108 89.8236 45.9064C96.3796 45.4019 102.936 44.3931 109.492 44.6453C109.87 44.6453 110.374 44.7714 110.752 44.5192L110.626 44.6453ZM72.0468 26.8639C70.0295 25.7289 67.8862 25.7289 65.7429 25.9811C63.0953 26.3595 60.5737 27.1161 58.0522 27.8728C46.8313 31.7822 36.6191 37.4571 27.4155 44.7714C24.894 46.7891 23.0028 49.1852 21.3638 51.8335C19.2205 55.4907 19.977 59.2739 21.3638 62.9311C23.1289 68.1016 25.7765 72.7676 28.2981 77.5598C33.089 86.7657 37.7538 96.0978 43.5533 104.799C45.4445 107.574 47.9661 109.718 49.3529 112.87C49.3529 113.123 49.605 113.249 49.8572 113.123C50.7397 112.492 52.0005 112.744 52.8831 111.988C51.2441 110.979 50.1094 109.465 49.1008 108.078C43.0491 99.3767 37.6278 90.2968 32.3325 80.9647C29.1806 75.4159 25.7765 70.1193 23.7593 64.0661C23.1289 62.1744 22.6246 60.2828 22.8768 58.2651C23.3811 54.3557 25.5243 51.203 28.1719 48.5547C30.6935 46.0325 33.4672 43.8886 36.2409 41.7448C44.1837 35.8177 53.1352 31.9083 62.591 29.0078C65.7429 27.9989 69.0209 27.7466 72.1728 26.8639H72.0468ZM55.6568 56.4995C58.8087 56.4995 61.3302 54.9862 62.2127 52.2118C62.717 50.8246 62.4649 50.5724 61.0781 50.8246C57.8001 51.3291 54.522 51.9596 51.118 52.4641C49.8572 52.5902 49.9833 53.0946 50.4876 53.9774C51.6223 55.9951 53.5135 56.4996 55.6568 56.3735V56.4995ZM62.3388 48.8069C60.1955 46.2847 54.1439 47.1675 51.8745 50.5724C55.5307 49.9419 58.9348 49.4375 62.3388 48.8069Z" fill="#12100D"/>
<path d="M122.35 89.6663C122.981 89.5402 123.485 89.288 124.115 89.1619C124.872 90.5491 125.628 92.0624 126.511 93.4496C127.141 94.4584 127.015 94.7107 125.754 94.8368C118.946 95.3412 112.138 95.8456 105.33 96.4762C104.7 96.4762 104.447 96.4762 104.069 95.9717C98.7739 89.7924 90.2007 91.1796 87.1749 98.7461C86.7966 99.6289 86.4183 100.133 85.5358 100.386C77.3408 102.908 69.1458 105.178 60.8247 107.195C58.3032 107.826 55.5296 108.078 53.1341 109.339C50.3604 106.313 48.3431 102.782 46.0737 99.3767C39.896 89.9185 34.3486 80.082 28.9273 70.2455C27.4144 67.5972 26.2797 64.6967 25.271 61.7962C24.8928 60.6612 24.7667 59.5262 25.0189 58.3912C25.5232 59.1478 26.1536 59.0218 26.91 58.7695C30.4402 57.7607 33.9704 57.2562 37.5005 56.6257C40.9046 55.9951 44.4348 55.6168 47.8388 54.3557C48.2171 55.9951 49.2257 57.3823 50.6126 58.3912C55.4035 61.67 62.3376 59.7784 64.7331 54.4818C64.9853 53.8513 65.2374 53.0946 65.6157 52.338C65.7417 51.9596 65.8679 51.7074 66.3722 51.5813C70.1545 51.3291 73.9367 50.9508 77.593 50.6986C82.8882 50.3202 88.1834 50.068 93.6048 49.8158C99.2782 49.5636 104.826 48.6808 110.499 48.5547C111.508 48.5547 112.012 48.8069 112.39 49.8158C113.147 51.5813 113.147 53.7251 114.786 55.2385C113.021 56.2473 112.138 57.8868 111.129 59.4001C108.734 63.1834 111.129 68.7321 115.542 69.1105C117.938 69.2366 118.82 70.3716 119.577 72.1371C119.829 72.6416 120.081 73.146 120.333 73.6504C120.963 74.5332 120.711 75.0376 119.955 75.6682C118.064 77.0554 116.425 78.6948 115.416 80.8386C113.903 84.3697 115.416 88.4052 118.82 89.4141C119.955 89.7924 121.09 89.4141 122.224 89.4141L122.35 89.6663ZM54.8991 83.9914C54.8991 83.9914 55.0252 83.8652 55.1513 83.7391C56.1599 82.7303 56.7903 81.5953 57.1685 80.2081C57.6728 79.9559 57.925 79.5776 57.925 79.0731C58.0511 77.0554 57.5468 75.416 56.0338 74.0288C51.9994 70.4977 45.4434 72.1371 43.5522 77.1815C42.4175 80.082 43.5522 83.3608 45.9477 85.2525C48.5953 87.1441 51.2429 87.1441 53.8905 85.2525C54.3948 85.0002 54.8992 84.748 55.0252 83.9914H54.8991ZM69.6501 85.883C72.2978 87.6485 75.0714 87.6485 77.8451 86.2613C78.2234 86.6396 78.6016 86.7658 78.9799 86.5136C81.2492 85.0002 83.3925 80.9648 80.4927 77.812C77.8451 74.9115 73.0542 74.4071 69.6501 76.677C66.6243 78.8209 65.9939 82.6041 68.3894 85.5047C68.6415 85.883 69.0198 86.5136 69.5241 85.883H69.6501ZM103.061 61.7962C104.321 61.4178 104.7 60.6612 104.069 59.1479C102.808 55.9951 100.287 54.4818 97.1349 53.5991C92.7222 52.338 88.4356 53.5991 86.1662 56.7518C82.3839 62.0484 84.9055 69.2366 91.3354 71.3805C93.4787 72.1371 95.6219 72.011 97.5131 70.4977C101.295 68.8583 103.061 65.9578 103.061 61.9223V61.7962ZM61.3291 100.007C62.7159 100.007 64.2288 99.2506 65.3635 97.8634C67.5068 95.089 65.8678 90.0446 62.4637 89.6663C61.0769 89.5402 59.4379 89.6663 58.051 90.2968C56.5381 90.9274 55.4035 91.9363 55.0252 93.5757C54.2688 96.8545 57.0424 100.007 61.4551 100.007H61.3291ZM74.315 68.606C76.9626 68.606 77.0887 68.6061 79.1059 66.9666C80.871 65.5794 81.3753 64.0661 80.6188 61.7962C79.3581 57.8868 74.9454 55.869 70.9109 57.1301C67.3808 58.2651 65.9939 61.67 67.6329 64.9489C69.0198 67.5972 71.4152 68.606 74.315 68.4799V68.606ZM35.105 64.9489C33.2139 64.9489 31.9531 66.0838 31.9531 67.8494C31.9531 70.3716 34.6007 73.3982 36.9962 73.3982C38.8873 73.3982 40.4003 71.8849 40.5264 69.9932C40.5264 67.2188 38.257 65.075 35.105 65.075V64.9489ZM40.9046 61.9223C41.9132 61.9223 42.9218 60.7873 42.7958 59.7784C42.7958 58.7695 41.6611 57.7606 40.6524 57.8868C39.5178 58.0129 38.7613 58.5173 38.7613 59.7784C38.7613 61.0395 39.7699 61.9223 40.7785 61.9223H40.9046Z" fill="#FCEB02"/>
<path d="M110.626 44.6457C110.248 45.0241 109.744 44.898 109.365 44.7719C102.809 44.6458 96.2535 45.5285 89.6975 46.033C83.7719 46.5374 77.7202 47.0418 71.7946 47.5463C69.9034 47.6724 67.8862 48.0507 65.995 48.3029C65.3646 48.3029 64.7343 48.5551 64.23 48.0507C61.2041 44.5197 56.4132 45.4024 53.1352 47.4202C51.8745 48.1768 50.7398 48.9334 49.9833 50.1945C49.479 51.0773 48.5964 51.2034 47.84 51.3296C40.5275 52.5906 33.215 53.7256 25.6504 55.9956C27.1633 53.0951 28.298 50.3207 30.6935 48.429C38.132 42.3758 46.0749 37.2053 55.0264 33.9265C60.3216 31.9087 65.7429 30.1432 71.2902 28.8821C74.5682 28.1254 77.5941 28.8821 80.746 29.7649C81.3764 29.891 81.5025 30.2693 81.1242 30.8999C79.4852 33.422 81.1243 35.8181 83.5197 36.7009C85.4109 37.3314 87.3021 37.3314 89.0671 36.5748C89.9497 36.1964 90.7061 36.1964 91.5887 36.5748C97.7664 38.9708 103.692 42.1236 109.87 44.2674C110.122 44.2674 110.5 44.2674 110.5 44.7719L110.626 44.6457ZM41.5361 48.8074C44.4359 48.5552 46.9574 47.7985 48.8486 45.4024C49.9833 44.0152 49.9833 42.7541 48.8486 41.7452C47.84 40.8625 46.4531 40.2319 45.1923 40.6103C42.4186 41.3669 40.0232 42.8802 38.5103 45.4024C37.7538 46.5374 38.2581 47.4202 39.2668 48.0507C40.0232 48.5551 40.7797 48.5551 41.5361 48.6813V48.8074ZM63.5996 38.3403C64.23 38.3403 64.8604 38.3403 65.4907 37.962C66.2472 37.4575 66.8775 36.9531 66.6254 35.9442C66.3732 35.0615 64.23 33.422 63.3474 33.422C62.2127 33.422 60.3215 35.1876 60.3215 36.1965C60.3215 37.2053 61.4562 38.2142 63.0952 38.3403C63.3474 38.3403 63.4735 38.3403 63.7256 38.3403H63.5996ZM74.19 43.3847C75.7029 43.3847 76.8377 42.628 76.8377 41.493C76.8377 40.4841 75.0726 38.5925 74.064 38.5925C72.8032 38.5925 71.2903 39.9797 71.4164 41.1147C71.4164 42.3758 72.6771 43.2585 74.3161 43.3847H74.19Z" fill="#FCEB02"/>
<path d="M72.0465 26.864C68.8945 27.7468 65.6165 28.1251 62.4646 29.0079C53.0088 31.9084 44.0574 35.8178 36.1145 41.7449C33.2148 43.8888 30.5671 46.0326 28.0456 48.5548C25.398 51.2031 23.2546 54.3558 22.7503 58.2652C22.4982 60.283 23.0025 62.1746 23.6329 64.0662C25.6501 70.1195 29.1803 75.4161 32.2061 80.9649C37.3753 90.1708 42.9226 99.3768 48.9743 108.078C49.9829 109.592 51.1176 110.979 52.7566 111.988C51.8741 112.744 50.6134 112.618 49.7308 113.123C49.4787 113.123 49.3526 113.123 49.2265 112.87C47.8396 109.844 45.3181 107.574 43.427 104.799C37.6274 96.098 32.9625 86.7659 28.1716 77.5599C25.6501 72.7678 23.0025 68.1017 21.2374 62.9312C19.9766 59.2741 19.2202 55.4908 21.2374 51.8337C22.7503 49.1854 24.7676 46.6632 27.2891 44.7715C36.6188 37.4572 46.705 31.7823 57.9258 27.8729C60.4474 26.9901 63.0949 26.3596 65.6165 25.9813C67.7598 25.6029 69.9031 25.729 71.9203 26.864H72.0465Z" fill="#DD7E29"/>
<path d="M122.352 89.6663C121.217 89.6663 120.082 89.9185 118.948 89.6663C115.544 88.6574 113.905 84.6219 115.544 81.0909C116.552 78.947 118.191 77.3076 120.082 75.9204C120.965 75.2899 121.091 74.7854 120.461 73.9027C120.208 73.3982 119.83 72.8938 119.704 72.3893C118.948 70.4977 118.065 69.4888 115.67 69.3627C111.131 69.1105 108.735 63.4356 111.257 59.6523C112.266 58.139 113.274 56.4996 114.913 55.4907C113.274 53.9774 113.274 51.8336 112.518 50.068C112.14 49.1853 111.761 48.807 110.627 48.807C104.953 49.0592 99.4057 49.8158 93.7323 50.068C88.437 50.3203 83.0158 50.5725 77.7206 50.9508C73.9383 51.203 70.1559 51.5814 66.4997 51.8336C65.9954 51.8336 65.8693 52.2119 65.7433 52.5902C65.4911 53.3469 65.2389 53.9774 64.8607 54.7341C62.5913 60.0306 55.531 61.9223 50.7401 58.6435C49.2272 57.6346 48.3446 56.2474 47.9664 54.6079C44.5623 55.869 41.0321 56.1213 37.6281 56.8779C34.0979 57.6346 30.4417 58.139 27.0376 59.0218C26.2812 59.274 25.6508 59.4001 25.1465 58.6435C25.1465 57.7607 25.7768 57.8868 26.2811 57.6346C30.8199 56.2474 35.3587 55.4907 39.8975 54.4819C42.1669 53.9774 44.5623 53.7252 46.8317 53.3469C47.9664 53.0946 48.7229 53.0947 49.1011 54.4819C49.9836 56.8779 52.1269 57.7607 54.5224 58.0129C58.9351 58.6435 62.8435 55.9952 63.9782 51.8336C64.2303 50.8247 64.6085 50.4464 65.6171 50.3202C75.3251 49.0592 85.033 48.4286 94.741 47.6719C100.793 47.1675 106.718 46.7892 112.77 46.6631C113.652 46.6631 113.779 47.1675 113.905 47.6719C114.661 49.8158 115.039 52.0858 115.922 54.1035C116.93 56.1213 115.922 56.8779 114.661 58.0129C112.013 60.2829 111.509 62.0484 112.644 64.6967C113.652 67.2189 115.922 68.3539 118.443 67.5972C119.2 67.345 119.452 67.5972 119.704 68.2278C120.713 70.6238 121.595 73.146 122.604 75.5421C122.856 76.1726 122.604 76.551 122.1 76.9293C121.091 77.5598 120.082 78.0643 119.2 78.8209C116.048 81.217 115.544 85.6308 117.939 88.2791C119.074 89.4141 120.587 89.9185 122.1 90.0446L122.352 89.6663Z" fill="#F5F5F1"/>
<path d="M53.1348 109.466C55.5302 108.205 58.1778 107.952 60.8254 107.322C69.1465 105.304 77.4675 103.034 85.5365 100.512C86.419 100.26 86.7973 99.6292 87.1755 98.8725C90.3275 91.1799 98.7746 89.7927 104.07 96.0982C104.448 96.4765 104.7 96.7287 105.331 96.6026C112.139 95.972 118.947 95.4676 125.755 94.9632C127.016 94.9632 127.016 94.4587 126.511 93.576C125.629 92.1888 124.873 90.6754 124.116 89.2882C124.873 88.2794 125.503 88.5316 126.133 89.5405C127.394 91.6843 128.277 93.9543 129.916 96.0982C127.772 96.4765 125.755 96.7287 123.738 97.107C117.308 97.9898 110.878 98.3681 104.574 99.377C103.944 99.377 103.692 99.377 103.313 98.6203C102.053 95.9721 99.9093 94.4587 97.0095 94.4587C93.9837 94.4587 91.4621 95.8459 90.4535 98.7464C89.4449 101.395 88.058 102.404 85.4104 103.034C79.2327 104.421 73.181 106.061 67.0032 107.826C63.7252 108.709 60.5733 109.844 57.4213 110.853C57.0431 110.853 56.6649 111.105 56.2867 111.231C54.6477 111.862 53.6391 111.483 53.1348 109.718V109.466Z" fill="#F5F5F1"/>
<path d="M55.656 56.4996C53.5127 56.4996 51.6215 56.1212 50.4868 54.1035C49.9825 53.3468 49.9825 52.8424 51.1172 52.5902C54.3952 52.0858 57.6732 51.4552 61.0773 50.9508C62.5902 50.6985 62.7163 50.9508 62.212 52.338C61.2033 54.9863 58.8079 56.6257 55.656 56.6257V56.4996Z" fill="#DD7E29"/>
<path d="M62.3384 48.8071C58.9343 49.4376 55.5303 49.942 51.874 50.5726C54.1434 47.1676 60.1951 46.2849 62.3384 48.8071Z" fill="#DD7E29"/>
<path d="M103.062 61.7963C103.062 65.8317 101.297 68.7322 97.5142 70.3717C97.136 70.3717 96.7577 70.3717 96.2534 70.3717C91.5886 70.3717 86.0413 67.2189 87.8063 60.5352C89.0671 55.6169 93.3537 53.4731 97.8925 55.6169C100.414 56.878 102.936 58.2652 102.936 61.544L103.062 61.7963ZM97.8925 68.1017C94.9927 67.7234 93.3537 65.9579 92.8494 63.3096C92.3451 60.6613 93.4798 58.6435 95.7492 57.0041C92.9755 56.3736 91.5887 57.0041 90.3279 59.0218C88.815 61.6701 88.815 64.5707 90.3279 66.3362C92.093 68.2278 95.3709 69.1106 97.7664 68.1017H97.8925Z" fill="#12100D"/>
<path d="M103.061 61.796C103.061 58.391 100.539 57.0038 98.0177 55.8688C93.3528 53.5989 89.1923 55.8689 87.9315 60.7871C86.1664 67.4709 91.7138 70.6236 96.3787 70.6236C96.7569 70.6236 97.1351 70.6236 97.6394 70.6236C95.7483 72.1369 93.731 72.1369 91.4616 71.5064C85.0317 69.3625 82.5102 62.3004 86.2925 56.8777C88.4358 53.8511 92.7225 52.59 97.2612 53.725C100.287 54.6078 102.935 56.1211 104.195 59.2738C104.826 60.7871 104.448 61.5438 103.187 61.9221L103.061 61.796Z" fill="#F5F5F1"/>
<path d="M61.3303 100.007C56.9176 100.007 54.1439 96.8542 54.9004 93.5754C55.2786 91.936 56.4133 90.801 57.9262 90.2965C59.3131 89.666 60.9521 89.4138 62.3389 89.666C65.743 90.0443 67.5081 95.2148 65.2387 97.8631C64.104 99.3764 62.5911 100.133 61.2042 100.007H61.3303ZM59.4392 91.4315C57.0437 91.8098 55.783 93.4493 56.2873 95.3409C56.7916 97.6109 59.313 98.8719 61.5824 98.1153C58.8087 96.0975 58.5566 95.0887 59.5652 91.3054L59.4392 91.4315Z" fill="#12100D"/>
<path d="M57.1691 80.3346C56.7909 81.7218 56.1605 82.8568 55.1519 83.8656C55.1519 83.8656 55.0258 83.9917 54.8998 84.1179C54.3954 84.3701 53.8911 84.7484 53.3868 85.0006C53.1347 85.0006 52.7565 85.1267 52.5043 85.2528C52.2522 85.2528 52 85.2528 51.874 85.379C51.3696 85.379 50.8653 85.379 50.361 85.379C50.2349 85.1267 49.9828 85.1267 49.7306 85.2528C46.7048 84.1179 45.318 82.3523 45.5701 79.5779C45.8223 77.0557 48.5959 74.2813 50.9914 74.0291C52.3782 73.903 53.639 74.0291 54.6476 75.038C55.9084 76.5513 57.1691 78.1907 57.1691 80.3346ZM50.1088 76.0468C48.4698 77.0557 47.083 78.4429 47.083 80.4607C47.083 82.1001 48.2177 82.9829 49.6045 83.4873C50.9914 83.9917 52.6304 83.6134 53.5129 82.7307C49.4785 82.1001 48.3438 79.9562 50.1088 76.0468Z" fill="#12100D"/>
<path d="M77.8461 86.261C75.0724 87.6482 72.2987 87.6483 69.6511 85.8827C69.1468 85 68.5164 84.2433 68.5164 83.2344C68.0121 78.6945 72.9291 76.4245 76.3332 77.4334C80.7459 78.6945 81.6284 82.73 78.3504 85.7566C78.2244 85.8827 77.9722 86.1349 77.8461 86.261ZM76.3332 85.2522C73.8116 83.6128 73.4334 82.73 74.0638 79.7034C74.0638 79.199 74.316 78.9467 73.6856 78.8206C72.5509 78.6945 70.5336 80.0817 70.0293 81.4689C69.525 82.8561 70.0294 84.3694 71.4162 85C72.9291 85.7566 74.5681 86.0088 76.3332 85.1261V85.2522Z" fill="#12100D"/>
<path d="M50.3611 85.2528C50.8654 85.2528 51.3697 85.2528 51.874 85.2528C52.1262 85.6311 52.3783 85.3789 52.5044 85.1267C52.7566 85.1267 53.1347 85.0005 53.3869 84.8744C53.513 84.8744 53.6391 85.0005 53.7652 85.1267C51.2436 87.1444 48.4699 87.1444 45.8223 85.1267C43.3007 83.235 42.2922 79.9562 43.4268 77.0557C45.318 72.0113 51.874 70.3719 55.9084 73.903C57.4213 75.2902 58.0517 76.9296 57.7996 78.9473C57.7996 79.4518 57.5474 79.9562 57.0431 80.0823C57.0431 77.9384 55.7824 76.299 54.5216 74.7857C53.6391 73.6507 52.2522 73.5246 50.8653 73.7768C48.3438 74.0291 45.6962 76.8034 45.444 79.3256C45.1919 81.9739 46.4526 83.8656 49.6046 85.0005C49.7306 85.2528 49.8567 85.505 50.235 85.1267L50.3611 85.2528Z" fill="#F5F5F1"/>
<path d="M74.3158 68.606C71.416 68.606 69.0206 67.8494 67.6337 65.075C65.9947 61.7962 67.3815 58.3912 70.9117 57.2562C74.9462 55.869 79.3589 58.0129 80.6196 61.9223C81.3761 64.0661 80.8718 65.5794 79.1067 67.0927C77.0895 68.6061 76.9634 68.7322 74.3158 68.7322V68.606ZM74.8201 67.4711C77.4677 67.4711 78.9806 66.5883 79.4849 64.6966C80.3675 61.7961 76.7112 57.3823 73.8115 57.7606C71.7942 58.0129 70.1553 59.1479 69.5249 61.1656C68.8945 63.0572 69.6509 64.6967 71.1639 66.0839C72.2986 67.0927 73.5593 67.5972 74.8201 67.4711Z" fill="#F5F5F1"/>
<path d="M77.8458 86.2612C77.9719 86.1351 78.2241 85.8828 78.3501 85.7567C81.6281 82.604 80.7456 78.5685 76.3329 77.4335C72.9288 76.5508 68.0118 78.6946 68.5161 83.2346C68.5161 84.2434 69.1465 85.1262 69.6508 85.8829C69.0204 86.5134 68.7682 85.8828 68.5161 85.5045C66.1206 82.604 66.6249 78.8207 69.7769 76.6769C73.1809 74.2808 77.9719 74.7853 80.6195 77.8119C83.3932 80.8385 81.376 84.874 79.1066 86.5134C78.6023 86.8917 78.224 86.6395 77.9718 86.2612H77.8458Z" fill="#F5F5F1"/>
<path d="M35.1063 64.9494C38.1321 64.9494 40.5276 67.2193 40.5276 69.8676C40.5276 71.7592 38.8886 73.2726 36.9974 73.2726C34.602 73.2726 31.8283 70.246 31.9543 67.7238C31.9543 65.9582 33.3412 64.8232 35.1063 64.8232V64.9494ZM38.0061 71.5071C36.241 70.6243 35.9888 69.4893 36.367 68.1021C36.367 67.7238 36.9974 67.2193 36.367 66.9671C35.7366 66.5888 34.9802 66.5888 34.3498 66.9671C33.9716 67.0932 33.5934 67.3454 33.4673 67.8499C33.4673 69.7415 35.6106 71.7592 37.88 71.6331L38.0061 71.5071Z" fill="#12100D"/>
<path d="M40.905 61.9222C39.7703 61.9222 38.8877 61.0394 38.8877 59.7783C38.8877 58.5172 39.6442 58.0128 40.7788 57.8867C41.7875 57.7606 42.7961 58.7695 42.9222 59.7783C42.9222 60.7872 42.0396 61.9222 41.031 61.9222H40.905Z" fill="#12100D"/>
<path d="M53.8909 85.2523C53.7648 85.2523 53.6388 85.1262 53.5127 85.0001C54.017 84.6217 54.5213 84.3695 55.0256 83.9912C55.0256 84.6218 54.5213 85.0001 53.8909 85.2523Z" fill="#CEC8C8"/>
<path d="M54.8994 83.992C54.8994 83.992 55.0257 83.8656 55.1521 83.7393C55.1521 83.7393 55.0257 83.8656 54.8994 83.992Z" fill="#CEC8C8"/>
<path d="M41.5356 48.807C40.7791 48.807 39.8966 48.6809 39.2662 48.1765C38.2576 47.546 37.7533 46.6632 38.5097 45.5282C40.0226 43.006 42.4181 41.4927 45.1918 40.736C46.4525 40.3577 47.8394 40.9883 48.848 41.871C49.9827 42.8799 49.9827 44.141 48.848 45.5282C46.9569 47.7982 44.3093 48.5548 41.5356 48.9331V48.807ZM42.0399 47.0415C43.4267 46.9154 45.0657 46.411 46.5787 45.4021C47.2091 44.8976 48.2176 44.3932 47.9655 43.3843C47.7133 42.3755 46.4526 42.3755 45.5701 42.1232C45.3179 42.1232 44.9396 42.1233 44.5614 42.3755C43.0485 42.8799 41.9138 43.8888 40.7791 45.0238C40.4009 45.4021 39.6444 45.7804 40.0227 46.5371C40.4009 47.1676 41.0312 47.0415 42.0399 47.0415Z" fill="#12100D"/>
<path d="M63.5994 38.3401C63.3473 38.3401 63.2212 38.3401 62.969 38.3401C61.4561 38.3401 60.1953 37.3313 60.1953 36.1963C60.1953 35.1874 62.2126 33.4219 63.2212 33.4219C64.1037 33.4219 66.247 35.0613 66.4992 35.9441C66.7513 36.9529 66.1209 37.5835 65.3644 37.9618C64.7341 38.3401 64.1037 38.3401 63.4733 38.3401H63.5994ZM63.3472 36.7007C63.8515 36.4485 64.7341 36.9529 64.8602 36.0702C64.8602 35.1874 64.1037 34.8091 63.3472 34.8091C62.7169 34.8091 61.9604 35.3135 61.9604 35.9441C61.9604 36.9529 62.969 36.4485 63.4733 36.7007H63.3472Z" fill="#12100D"/>
<path d="M74.1898 43.3839C72.5508 43.3839 71.29 42.3751 71.29 41.114C71.29 39.979 72.6769 38.5918 73.9377 38.5918C74.9463 38.5918 76.7113 40.4834 76.7113 41.4923C76.7113 42.6273 75.5767 43.3839 74.0637 43.3839H74.1898ZM73.9377 41.6184C74.3159 41.6184 74.8202 41.7445 74.8202 41.2401C74.8202 40.6096 74.1898 40.3573 73.6855 40.2312C73.1812 40.2312 72.803 40.3573 72.803 40.8617C72.803 41.4923 73.3073 41.6184 73.8116 41.6184H73.9377Z" fill="#12100D"/>
<path d="M97.8915 68.1016C95.496 69.1105 92.218 68.3539 90.4529 66.3361C88.8139 64.5706 88.8139 61.6701 90.4529 59.0218C91.7137 57.004 93.1005 56.3735 95.8742 57.0041C93.6048 58.6435 92.4701 60.6612 92.9744 63.3095C93.4787 65.9578 95.1177 67.7233 98.0175 68.1016H97.8915Z" fill="#DD7E29"/>
<path d="M59.4388 91.4316C58.4302 95.2149 58.6823 96.2238 61.456 98.2415C59.1866 98.9982 56.7911 97.611 56.1608 95.4671C55.6565 93.5755 56.9172 91.9361 59.3127 91.5578L59.4388 91.4316Z" fill="#DD7E29"/>
<path d="M50.1089 76.0464C48.4699 79.9558 49.4785 82.0996 53.513 82.7302C52.7565 83.613 50.9914 83.9913 49.6045 83.4869C48.2177 82.9824 47.083 82.0996 47.083 80.4602C47.083 78.4425 48.3438 77.0553 50.1089 76.0464Z" fill="#DD7E29"/>
<path d="M50.3618 85.2526C49.9836 85.6309 49.8575 85.3787 49.7314 85.1265C49.9836 85.1265 50.2358 85.1265 50.3618 85.2526Z" fill="#CEC8C8"/>
<path d="M52.5044 85.1268C52.3783 85.379 52.2523 85.6312 51.874 85.2529C52.0001 85.0007 52.2523 85.0007 52.5044 85.1268Z" fill="#CEC8C8"/>
<path d="M76.3329 85.2522C74.6939 86.1349 73.0549 85.8827 71.4159 85.126C70.0291 84.3694 69.5247 82.8561 70.029 81.595C70.5333 80.2078 72.5506 78.6945 73.6853 78.9467C74.3157 78.9467 74.1896 79.325 74.0635 79.8294C73.4331 82.8561 73.8113 83.7389 76.3329 85.3783V85.2522Z" fill="#DD7E29"/>
<path d="M74.8198 67.471C73.4329 67.471 72.1722 67.0927 71.1636 66.0838C69.7767 64.8227 68.8942 63.0572 69.5246 61.1656C70.155 59.2739 71.7939 58.0128 73.8112 57.7606C76.7109 57.3823 80.3672 61.7961 79.4846 64.6966C78.9803 66.4621 77.3413 67.471 74.8198 67.471ZM75.8285 65.5794C73.6851 63.4355 73.433 62.6789 73.9373 60.7872C73.9373 60.4089 74.5677 60.0306 74.0633 59.6522C73.559 59.2739 73.1808 59.6523 72.6765 59.9045C71.4158 60.7872 70.7853 62.0483 71.2896 63.4355C71.92 65.201 73.6851 66.0838 75.8285 65.7055V65.5794Z" fill="#12100D"/>
<path d="M38.0056 71.5069C35.7362 71.633 33.4668 69.6152 33.5929 67.7236C33.5929 67.0931 33.9711 66.9669 34.4754 66.8408C35.1058 66.5886 35.8623 66.4625 36.4927 66.8408C37.1231 67.2192 36.4927 67.5975 36.4927 67.9758C36.1144 69.363 36.3666 70.6241 38.1317 71.3808L38.0056 71.5069Z" fill="#DD7E29"/>
<path d="M42.0402 47.0416C41.0316 47.0416 40.2752 47.0416 40.023 46.5372C39.6448 45.7806 40.4012 45.4023 40.7794 45.0239C41.7881 43.8889 43.0488 42.8801 44.5617 42.3756C44.94 42.3756 45.3183 41.9973 45.5704 42.1234C46.453 42.3756 47.5876 42.3756 47.9658 43.3845C48.218 44.3934 47.3355 44.8978 46.579 45.4022C45.1922 46.4111 43.4271 46.9155 42.0402 47.0416Z" fill="#DD7E29"/>
<path d="M63.3469 36.7007C62.8426 36.4485 61.834 36.9529 61.834 35.9441C61.834 35.3135 62.5905 34.8091 63.2209 34.8091C63.9773 34.8091 64.7337 35.3135 64.7337 36.0702C64.7337 36.9529 63.8513 36.4485 63.2209 36.7007H63.3469Z" fill="#DD7E29"/>
<path d="M73.9381 41.6191C73.4338 41.6191 72.8033 41.619 72.9294 40.8624C72.9294 40.358 73.3076 40.1057 73.812 40.2318C74.3163 40.2318 74.9467 40.6102 74.9467 41.2407C74.9467 41.8713 74.3163 41.6191 74.0641 41.6191H73.9381Z" fill="#DD7E29"/>
<path d="M75.8286 65.5791C73.8113 65.9574 71.9201 65.0747 71.2898 63.3091C70.7855 62.048 71.2898 60.6608 72.6767 59.7781C73.181 59.5258 73.5592 59.2736 74.0635 59.5259C74.4417 59.9042 74.0635 60.2825 73.9374 60.6608C73.4331 62.5525 73.8113 63.3091 75.8286 65.453V65.5791Z" fill="#DD7E29"/>
</svg>
