<svg width="138" height="138" viewBox="0 0 138 138" fill="none" xmlns="http://www.w3.org/2000/svg">
<circle cx="69.0011" cy="69.0001" r="66.0714" fill="#B9E199" stroke="black" stroke-width="5"/>
<path d="M63.7012 37.6502C81.3997 37.6502 99.0983 37.6502 116.9 37.6502C118.752 37.6502 120.604 37.5473 122.456 37.6502C125.234 37.8561 127.087 39.5029 127.704 42.1789C130.791 55.9709 133.363 69.7628 136.245 83.6576C136.553 85.0986 136.759 86.6425 136.759 88.1863C136.759 89.9361 136.039 91.0682 134.392 91.6858C133.158 92.0975 132.026 92.4062 130.688 92.5092C126.263 92.6121 121.942 93.0238 117.517 92.9209C117.003 92.9209 116.797 93.1267 116.488 93.5384C112.681 100.846 102.7 103.213 95.9084 95.9057C95.4968 95.494 95.0852 95.0823 94.9823 94.5677C94.5707 93.2296 93.7475 93.1267 92.5127 93.1267C81.5026 93.1267 70.3895 93.1267 59.3794 92.9209C57.1156 92.9209 55.4693 93.1267 54.0287 95.1852C52.2794 97.6554 49.8099 99.3022 46.7229 100.126C41.9896 101.361 38.3881 99.4051 35.3012 96.2145C34.6838 95.5969 34.1693 94.8764 33.8606 94.053C33.5519 93.1267 32.9345 93.1267 32.2142 93.1267C26.2461 93.1267 20.3809 93.2296 14.4127 93.2296C11.4287 93.2296 8.44468 93.2296 5.46062 92.9209C3.29975 92.715 2.68235 91.8916 2.68235 89.7302C2.68235 78.5114 2.68235 67.2926 2.68235 56.0738C2.68235 51.9568 2.88815 47.7369 2.68235 43.6199C2.47655 40.8409 4.01999 39.0912 6.69535 38.3707C7.82724 38.0619 9.06204 37.959 10.1939 37.959C28.2012 37.959 46.1055 37.959 64.1128 37.959C64.1128 37.959 64.1128 37.7532 64.1128 37.6502H63.7012ZM76.8722 91.9945C76.975 92.2004 77.1809 92.4062 77.4896 92.0975C79.4447 93.0238 79.6504 90.7594 80.7823 90.1419C81.1939 90.9653 80.1649 91.377 80.2678 92.0975H82.4287C82.6345 92.3033 82.7374 92.4062 82.9432 92.0975C86.6475 92.0975 90.4547 92.2004 94.1591 92.0975C94.6736 92.0975 94.9823 91.8916 95.291 91.4799C95.8055 90.4507 95.9084 90.4507 96.5258 90.2448C96.4229 91.6858 94.3649 92.9209 96.2171 94.4647C96.8344 94.053 96.9374 93.2296 97.6577 92.9209C97.8635 93.5384 97.4518 94.053 97.246 94.4647C96.8344 95.0823 96.9374 95.494 97.4519 96.0086C98.6866 97.2437 100.333 97.9642 101.876 98.5817C106.816 100.537 113.195 98.0671 115.562 93.2296C115.974 92.4062 116.385 92.2004 117.208 92.2004C118.443 92.2004 119.678 92.2004 120.295 90.6565C120.501 90.1419 121.016 89.7302 121.633 89.5243C121.427 90.4507 120.501 90.9653 120.295 91.6858C122.559 92.715 123.382 90.5536 124.823 89.3185C124.823 90.4507 124 90.8624 123.897 91.2741C126.778 91.2741 129.659 91.2741 132.54 91.2741C134.598 91.2741 135.936 89.5243 135.524 87.4658C135.01 84.2752 134.29 81.1874 133.775 78.0997C131.511 66.4692 129.35 54.8387 127.087 43.2082C126.572 40.5321 125.132 39.1941 122.456 38.8853C120.09 38.5766 117.62 38.5766 115.15 38.5766C102.288 38.5766 89.5287 38.5766 76.6663 38.5766C57.2185 38.5766 37.8736 38.6795 18.4258 38.7824C17.8084 38.7824 17.0882 38.6795 16.7795 39.5029C16.6766 39.8117 16.5736 40.6351 16.162 40.4292C15.6475 40.1204 16.2649 39.6058 16.3678 39.1941C16.3678 39.0912 16.3678 38.9883 16.3678 38.8853C15.236 38.5766 14.4127 38.8853 13.8982 40.0175C13.7954 40.2234 13.6925 40.4292 13.4867 40.6351C13.4867 40.738 13.4867 41.0468 13.0751 40.8409C12.8693 40.738 12.8693 40.5321 12.9722 40.3263C13.178 39.8117 13.6925 39.5029 13.7954 38.7824C13.4867 38.7824 13.0751 38.7824 12.7664 38.7824C11.7374 38.5766 11.0171 38.9883 10.6055 40.0175C10.2969 40.6351 9.98811 41.3555 9.26782 41.7672C9.26782 40.5321 10.2969 39.8117 10.6055 38.7824C9.16497 38.2678 8.23888 38.6795 7.51859 39.9146C7.0041 40.9438 6.48958 41.9731 5.56349 42.6936C5.56349 41.2526 6.69539 40.2234 7.31278 39.0912C7.31278 39.0912 7.31278 38.8853 7.31278 38.7824C7.31278 38.7824 7.107 38.7824 7.0041 38.7824C4.22584 39.5029 3.19683 40.6351 2.99103 43.5169C2.99103 44.855 2.88816 46.193 2.88816 47.6339C2.88816 61.3229 2.99101 74.909 3.09391 88.598C3.09391 88.9068 3.09391 89.2156 3.09391 89.6273C2.88811 91.0682 3.40261 91.6858 4.84319 91.8916C7.41566 92.0975 9.88525 92.3033 12.4577 92.3033C14.7215 92.3033 16.9852 92.2004 19.249 92.2004C19.8664 92.2004 20.1751 91.9945 20.5867 91.5828C21.204 90.9653 21.6157 90.1419 22.7476 89.8331C22.4389 90.7594 21.5128 91.1711 21.4099 91.9945C23.365 92.715 24.5997 91.6858 25.7316 90.3477C26.2461 91.1711 25.4229 91.4799 25.4229 91.9945C27.7896 91.9945 30.2591 91.9945 32.6258 91.9945C33.3461 91.9945 33.8606 92.0975 34.1693 93.0238C35.4041 96.3174 39.9316 99.4051 43.4301 99.4051C47.5461 99.4051 50.736 97.3466 53.1026 94.156C54.2345 92.715 55.2635 91.8916 57.1156 92.2004C57.733 92.3033 58.2476 92.2004 58.4534 91.377C58.4534 90.8624 59.0707 89.936 59.3794 90.1419C60.0997 90.5536 59.1736 91.1711 58.9679 91.6858C58.9679 91.7887 58.9679 91.8916 58.9679 91.9945C60.82 92.8179 60.82 90.7594 61.7461 90.1419C62.1577 90.9653 61.2316 91.4799 61.3345 92.2004C66.2736 92.2004 71.2127 92.2004 76.1518 92.2004C76.3576 92.2004 76.5634 92.0975 76.6663 91.9945H76.8722Z" fill="#141111"/>
<path d="M7.51706 39.1945C6.89967 40.3266 5.87067 41.3559 5.76778 42.7968C6.59096 41.9734 7.20832 40.9442 7.72281 40.0179C8.4431 38.6798 9.36919 38.3711 10.8098 38.8857C10.5011 39.9149 9.575 40.6354 9.4721 41.8705C10.1924 41.4588 10.5011 40.7383 10.8098 40.1208C11.2214 39.0915 11.8388 38.6798 12.9707 38.8857C13.2794 38.8857 13.5881 38.8857 13.9997 38.8857C13.9997 39.5032 13.3823 39.9149 13.1765 40.4296C13.1765 40.6354 13.0736 40.8413 13.2794 40.9442C13.588 41.15 13.5881 40.8413 13.691 40.7383C13.8968 40.5325 13.9996 40.3266 14.1025 40.1208C14.617 39.0915 15.3373 38.6798 16.5721 38.9886C16.5721 38.9886 16.5721 39.1945 16.5721 39.2974C16.4692 39.7091 15.7489 40.2237 16.3663 40.5325C16.7779 40.7383 16.8808 39.9149 16.9837 39.6062C17.2924 38.7828 18.0127 38.8857 18.6301 38.8857C38.0779 38.8857 57.4228 38.6798 76.8706 38.6798C89.7329 38.6798 102.492 38.6798 115.355 38.6798C117.824 38.6798 120.191 38.6798 122.66 38.9886C125.336 39.2974 126.776 40.6354 127.291 43.3115C129.555 54.942 131.716 66.5725 133.979 78.203C134.597 81.2907 135.214 84.4814 135.729 87.5691C136.037 89.6276 134.802 91.2744 132.745 91.3774C129.863 91.3774 126.982 91.3774 124.101 91.3774C124.101 90.9657 125.027 90.554 125.027 89.4218C123.587 90.554 122.763 92.8183 120.5 91.7891C120.808 91.0686 121.631 90.554 121.837 89.6276C121.22 89.7306 120.705 90.2452 120.5 90.7598C119.882 92.2008 118.647 92.3037 117.413 92.3037C116.589 92.3037 116.178 92.6125 115.766 93.3329C113.4 98.0675 107.02 100.538 102.081 98.685C100.434 98.0675 98.8909 97.347 97.6561 96.1119C97.1416 95.5973 97.0387 95.1856 97.4503 94.568C97.759 94.1563 98.0677 93.6417 97.8619 93.0242C97.0388 93.3329 97.0387 94.2593 96.4213 94.568C94.5692 93.0242 96.6271 91.7891 96.73 90.3481C96.1126 90.554 96.0098 90.554 95.4953 91.5832C95.1866 92.0978 94.9808 92.2008 94.3634 92.2008C90.659 92.3037 86.8518 92.3037 83.1475 92.2008C83.1475 92.0978 83.3532 91.892 83.3532 91.7891C83.559 91.2744 84.0735 90.9657 83.7648 90.3481C83.7648 90.1423 83.4561 90.1423 83.3532 90.3481C82.9416 90.7598 82.53 91.1715 82.53 91.7891C82.53 91.9949 82.53 92.0978 82.53 92.3037H80.3692C80.3692 91.5832 81.2953 91.1715 80.8837 90.3481C79.7518 90.8627 79.546 93.23 77.5909 92.3037C77.5909 92.3037 77.5909 92.2007 77.5909 92.0978C78.0025 91.3773 78.6199 90.7598 78.517 89.6276C77.7967 90.451 77.0765 91.1715 76.9736 92.2008C76.7678 92.2008 76.562 92.4066 76.4591 92.4066C71.5199 92.4066 66.5808 92.4066 61.6417 92.4066C61.6417 91.6861 62.4649 91.2744 62.0533 90.3481C61.1272 90.9657 61.1272 93.0242 59.275 92.2008C59.275 92.0978 59.275 91.9949 59.275 91.892C59.4808 91.3774 60.304 90.8627 59.6866 90.3481C59.3779 90.1423 58.8634 91.0686 58.7605 91.5832C58.5547 92.4066 58.0402 92.5095 57.4228 92.4066C55.5707 91.9949 54.5417 92.8183 53.4098 94.3622C51.0431 97.5529 47.8532 99.6113 43.7373 99.6113C40.2387 99.6113 35.7112 96.5236 34.4764 93.23C34.1677 92.3037 33.6532 92.2008 32.9329 92.2008C30.5663 92.2008 28.1996 92.2008 25.73 92.2008C25.73 91.6861 26.5533 91.3773 26.0388 90.554C24.9069 91.892 23.6721 92.9212 21.717 92.2008C21.717 91.3774 22.746 91.0686 23.0547 90.0393C22.0257 90.3481 21.5113 91.1715 20.8939 91.7891C20.4823 92.2008 20.0706 92.4066 19.5561 92.4066C17.2924 92.4066 15.0286 92.6125 12.7649 92.5095C10.1924 92.5095 7.72281 92.3037 5.15035 92.0978C3.70977 91.9949 3.29822 91.2744 3.40112 89.8335C3.40112 89.5247 3.40112 89.2159 3.40112 88.8042C3.40112 75.1152 3.19531 61.5292 3.19531 47.8401C3.19531 46.5021 3.19529 45.1641 3.29819 43.7232C3.50398 40.8413 4.43009 39.7091 7.31125 38.9886L7.51706 39.1945ZM16.0576 41.15C16.0576 41.15 16.1605 40.9442 16.0576 40.8413C15.7489 40.8413 15.8518 41.0471 15.8518 41.253C15.8518 41.253 15.8518 41.253 15.9547 41.3559C15.9547 41.3559 16.0576 41.15 16.1605 41.15H16.0576ZM38.1808 89.9364C38.2837 90.554 38.7982 90.8627 39.1069 91.2744C39.3127 91.7891 39.6214 91.789 40.033 91.5832C39.6214 91.9949 40.033 92.2008 40.3417 92.4066C40.8561 92.7154 41.3706 93.1271 42.0909 93.23C44.4576 94.2593 46.8243 93.8475 48.9852 92.6124C49.1909 92.5095 49.6025 92.4066 49.2938 91.9949C49.6025 92.3037 49.7054 91.9949 49.9112 91.892C51.146 90.8627 52.0721 89.5247 52.3808 87.8779C52.4837 87.1574 52.7924 86.9516 53.5126 86.9516C55.9822 86.9516 58.5547 86.9516 61.0243 86.9516C61.4359 86.9516 61.8474 86.9516 61.7445 87.5691C61.6416 88.4955 62.1561 88.7013 62.9793 88.7013C66.9924 88.7013 70.9025 88.8042 74.9156 88.9072C79.1344 88.9072 83.3532 88.9072 87.4692 88.9072C88.1894 88.9072 89.0126 88.9072 89.0126 87.8779C89.0126 87.0545 89.4243 87.1574 89.9387 87.2604C92.5112 87.4662 94.9808 87.5691 97.5533 87.3633C98.3765 87.3633 98.5822 87.5691 98.8909 88.2896C99.9199 91.4803 102.595 93.5388 105.991 93.6417C109.387 93.8475 112.474 91.892 113.605 88.9072C114.017 87.6721 114.532 87.0545 115.869 87.3633H116.075C116.692 87.3633 117.001 87.3633 117.001 88.0838C117.001 88.5984 117.207 88.8042 117.824 88.8042C119.471 88.7013 121.22 88.4955 122.866 88.3925C123.381 88.3925 123.792 88.0838 123.792 87.5691C123.792 86.5399 124.616 86.5399 125.233 86.6428C127.291 86.7457 127.394 86.7457 127.703 84.5843C127.703 84.0697 127.703 83.5551 127.703 82.9375C127.703 82.5258 127.702 82.32 128.114 82.217C129.349 81.8053 129.452 80.7761 129.349 79.7468C129.349 78.7176 129.143 77.5854 128.731 76.5562C128.526 75.9386 128.526 75.3211 128.217 74.8065C127.805 74.1889 127.085 74.6006 126.365 74.3948C126.571 74.1889 126.674 74.086 126.776 74.086C127.702 73.6743 127.805 72.8509 127.703 72.0275C127.6 71.2041 127.188 70.6895 126.159 70.7924C125.542 70.7924 125.645 70.2778 125.645 70.0719C124.718 64.7198 123.587 59.3677 122.558 54.0156C122.043 51.4425 121.734 48.8694 121.014 46.2963C120.705 45.0612 120.088 44.0319 118.647 43.8261C117.824 43.7231 117.104 43.5173 116.178 43.5173C105.476 43.5173 94.6721 43.5173 83.9706 43.5173C83.662 43.5173 83.3533 43.5173 82.9417 43.5173C82.633 43.5173 82.7358 43.8261 82.8387 43.929C80.6779 43.5173 78.4141 43.6202 76.2533 43.929C76.2533 43.0027 75.6358 43.4144 75.3271 43.4144C65.5518 43.4144 55.6736 43.4144 45.8982 43.2085C34.8881 43.0027 23.9808 43.0027 12.9707 43.2085C11.5301 43.2085 10.8098 43.7231 10.2953 45.4729C9.67788 47.8401 9.67793 50.2074 9.57503 52.5747C9.26634 60.0882 9.06053 67.7046 8.85473 75.2182C8.85473 78.3059 8.75179 81.3936 8.75179 84.4814C8.75179 86.437 9.26631 86.9516 11.2214 86.9516C12.5591 86.9516 13.8967 86.9516 15.1315 86.9516C21.9228 86.9516 28.817 87.0545 35.6083 87.0545C36.4315 87.0545 36.946 87.1574 37.1518 88.0838C37.1518 88.4955 37.2547 88.8042 37.4605 89.113C37.5634 89.3189 37.6663 89.5247 37.8721 89.7306L38.1808 89.9364Z" fill="#FAFAFA"/>
<path d="M82.4297 92.2002C82.4297 91.9944 82.4297 91.8915 82.4297 91.6856C82.4297 91.0681 82.8413 90.6564 83.2529 90.2447C83.3558 90.1417 83.5616 90.1417 83.6645 90.2447C83.9732 90.8622 83.4587 91.171 83.2529 91.6856C83.2529 91.7885 83.0471 91.9944 83.0471 92.0973C82.8413 92.4061 82.7384 92.3032 82.5326 92.0973L82.4297 92.2002Z" fill="#5F6060"/>
<path d="M76.8711 91.9946C77.0769 91.9946 77.2827 91.9946 77.4885 91.9946C77.4885 91.9946 77.4885 92.0976 77.4885 92.2005C77.1798 92.5092 77.0769 92.3034 76.8711 92.0975V91.9946Z" fill="#5F6060"/>
<path d="M7.3125 38.9883C7.3125 38.9883 7.51828 38.9883 7.62118 38.9883C7.62118 38.9883 7.62118 39.1941 7.62118 39.2971L7.41537 39.0912L7.3125 38.9883Z" fill="#FAFAFA"/>
<path d="M76.6664 44.0313C78.8273 43.7225 81.0911 43.6196 83.252 44.0313C87.6766 44.0313 91.9983 44.2372 96.423 44.2372C102.288 44.2372 108.051 44.2372 113.813 44.2372C113.813 46.2957 112.372 45.9869 111.137 45.9869C110.829 45.9869 110.52 45.9869 110.108 45.9869C93.336 45.9869 76.6664 45.884 59.894 45.781C59.4824 45.781 59.1737 45.781 58.7621 45.781C58.5563 45.781 58.3505 45.884 58.3505 46.0898C58.3505 46.2957 58.5563 46.3986 58.7621 46.3986C58.9679 46.3986 59.2766 46.3986 59.4824 46.3986C62.7752 46.3986 65.965 46.3986 69.2578 46.3986C83.4578 46.3986 97.6578 46.3986 111.755 46.6044C112.269 46.6044 112.784 46.3986 113.195 46.8103C112.784 47.222 112.372 47.0161 111.961 47.0161C110.314 47.0161 108.668 46.9132 107.021 46.9132C105.581 46.9132 105.169 47.4278 105.169 48.8688C105.169 52.5741 105.066 56.1764 105.066 59.8817C105.066 61.1168 105.066 62.4549 105.478 63.69C105.787 64.9251 106.404 65.6455 107.845 65.7485C112.269 66.0572 116.591 65.5426 121.016 65.6455C122.148 65.6455 122.456 64.925 122.251 63.9987C121.736 61.0139 121.324 58.0291 120.295 55.1472C119.781 53.8092 119.472 52.4711 119.678 51.0302C119.678 50.2068 119.678 49.3834 118.649 49.0746C117.826 48.7659 118.34 48.0454 118.237 47.4278C118.237 47.222 118.237 46.9132 118.443 46.8103C119.369 46.3986 120.501 47.0161 120.604 48.0454C121.736 54.9413 123.382 61.7344 124.411 68.6304C125.132 73.3649 126.469 78.0994 126.572 82.9369C126.572 85.2012 126.675 85.2012 124.514 85.4071C124.308 85.4071 124 85.4071 123.794 85.4071C121.53 85.6129 119.164 85.8188 116.9 86.0246C116.488 86.0246 116.077 86.2305 116.179 85.51C116.385 81.5989 115.048 79.3345 111.446 77.6877C110.829 77.3789 110.108 77.0702 109.491 76.8643C109.697 76.6585 109.903 76.6585 110.108 76.6585C114.327 76.6585 118.546 76.6585 122.765 76.6585C123.588 76.6585 124.411 76.5556 123.691 75.4234C124 74.2912 123.691 73.9824 122.559 73.9824C118.546 73.9824 114.43 74.0854 110.417 74.3941C105.787 74.7029 101.053 74.7029 96.423 74.8058C95.5998 74.8058 95.394 74.6 95.394 73.7766C95.394 70.7918 95.394 67.704 95.394 64.7192C96.1143 65.3368 97.0403 65.4397 97.9664 65.4397C98.8925 65.4397 99.8186 65.4397 100.745 65.4397C103.729 65.6455 104.449 64.925 104.449 61.9402C104.449 57.9262 104.449 54.015 104.449 50.001C104.449 47.9425 103.935 47.4278 101.979 47.4278C100.127 47.4278 98.2751 47.4278 96.423 47.6337C95.4969 47.6337 94.8795 48.2512 94.8795 49.1775C94.8795 54.015 94.6737 58.9554 94.9824 63.7929C93.9534 64.1017 94.5708 65.028 94.2621 65.6455C94.0563 65.1309 94.1592 64.6163 94.1592 64.1016C94.1592 59.3671 94.0563 54.6326 93.9534 49.898C93.9534 48.8688 93.6447 48.56 92.6157 48.56C88.0882 48.56 83.6635 48.56 79.136 48.56C78.3128 48.56 78.2099 48.8688 78.2099 49.5893C78.2099 51.6477 78.2099 53.8092 78.2099 55.8677C78.2099 62.0432 78.2099 68.1157 78.2099 74.2912C69.3606 74.2912 60.6143 74.4971 51.765 74.4971C49.3984 74.4971 47.0317 74.3941 44.665 74.4971C40.0346 74.9088 35.507 74.4971 30.8766 74.7029C30.3621 74.7029 30.0534 74.4971 30.0534 73.9824C29.8476 71.1005 29.7447 68.2186 29.8476 65.2338C31.2882 66.2631 33.0375 66.1601 34.6838 66.1601C39.9317 66.1601 45.0766 65.6455 50.3244 65.6455C52.6911 65.6455 53.5143 64.8221 53.4114 62.4549C53.4114 58.132 53.7201 53.8092 53.4114 49.3834C53.4114 48.1483 52.8969 47.8395 51.765 47.8395C45.0766 47.8395 38.4911 47.8395 31.8027 47.8395C29.7447 47.8395 29.2302 48.3542 29.2302 50.4127C29.2302 54.6326 29.2302 58.8525 29.436 63.0724H29.0244C29.0244 61.6315 28.8186 60.2934 28.8186 58.8525C28.8186 55.6618 28.8186 52.4711 28.8186 49.3834C28.8186 48.7659 28.8186 48.2512 27.9954 48.2512C23.6737 48.2512 19.352 48.2512 15.0302 48.3542C13.8984 48.3542 13.5896 48.8688 13.5896 49.898C13.5896 55.6618 13.5896 61.4256 13.5896 67.1894C13.5896 72.9532 13.7955 78.8199 13.4868 84.5837C12.4578 84.4808 11.3259 84.6866 10.2969 84.7895C10.2969 84.4808 10.2969 84.172 10.2969 83.9661C10.2969 78.0994 10.2969 72.1298 10.6056 66.2631C10.9143 60.0876 10.8114 53.9121 11.3259 47.8395C11.3259 46.9132 11.5317 46.6044 12.5607 46.6044C26.452 46.6044 40.4462 46.6044 54.3375 46.6044C55.5723 46.6044 56.807 46.5015 58.0418 46.3986C58.2476 46.3986 58.4534 46.3986 58.5563 46.1927C58.5563 45.9869 58.3505 45.884 58.1447 45.884C57.836 45.884 57.5273 45.884 57.3215 45.884C42.607 45.884 27.9954 45.884 13.281 45.884C12.7665 45.884 12.0462 46.2957 11.9433 45.5752C11.8404 45.0606 12.3548 44.5459 12.8693 44.2372C13.0751 44.1342 13.2809 44.0313 13.3838 43.9284C16.7795 43.9284 20.1752 44.1342 23.5708 44.1342C41.2694 44.1342 58.9679 44.1342 76.6664 44.1342V44.0313ZM66.4795 47.6337C63.3926 47.6337 60.2027 47.5308 57.1157 47.6337C55.6751 47.6337 54.5432 48.3542 54.5432 49.3834C54.5432 53.9121 54.2346 58.4408 54.7491 62.9695C55.0577 65.6455 55.5723 66.1602 58.2476 66.2631C63.7012 66.4689 69.2578 66.2631 74.7114 65.9543C77.0781 65.7484 77.9012 64.925 77.9012 62.5578C77.9012 60.8081 77.9012 59.0583 77.9012 57.4115C77.9012 54.9413 77.9012 52.4711 77.6954 50.001C77.4896 47.9425 76.7693 47.7366 75.3288 47.7366C72.3447 47.7366 69.3607 47.7366 66.4795 47.7366V47.6337Z" fill="#BED8FA"/>
<path d="M13.3855 43.8259C13.1797 43.8259 12.9739 44.0318 12.871 44.1347C12.3565 44.4435 11.842 44.9581 11.9449 45.4727C12.1507 46.0902 12.871 45.7815 13.2826 45.7815C27.9971 45.7815 42.6087 45.7815 57.3231 45.7815C57.6318 45.7815 57.9405 45.7815 58.1463 45.7815C58.3521 45.7815 58.5579 45.7815 58.5579 46.0902C58.5579 46.399 58.2492 46.2961 58.0435 46.2961C56.8087 46.2961 55.5739 46.5019 54.3391 46.5019C40.4478 46.5019 26.4536 46.5019 12.5623 46.5019C11.5333 46.5019 11.3275 46.9137 11.3275 47.7371C10.813 53.9125 10.916 60.088 10.6073 66.1606C10.2986 72.0273 10.4014 77.9969 10.2985 83.8637C10.2985 84.1724 10.2985 84.4812 10.2985 84.6871C10.4014 85.8192 11.0188 86.128 13.0768 85.9222C14.2087 85.8192 13.2826 84.9958 13.4884 84.4812C13.7971 78.7174 13.6942 72.8507 13.5913 67.0869C13.5913 61.3231 13.5913 55.5593 13.5913 49.7955C13.5913 48.7663 13.9 48.2517 15.0319 48.2517C19.3536 48.0458 23.6753 48.2517 27.9971 48.1487C28.8203 48.1487 28.8202 48.6634 28.8202 49.2809C28.8202 52.4716 28.8202 55.6623 28.8202 58.75C28.8202 60.191 28.9232 61.529 29.0261 62.9699C29.0261 66.4694 29.0261 70.0717 29.0261 73.5712C29.0261 75.6297 29.0261 75.6297 31.084 75.6297C37.6695 75.6297 44.3579 75.6297 50.9434 75.6297C51.1492 75.6297 51.2521 75.6297 51.4579 75.6297C60.2043 75.6297 68.9507 75.5267 77.8 75.4238C77.9029 75.4238 78.1086 75.4238 78.2115 75.3209C78.4173 74.9092 78.3144 74.4975 78.2115 74.1887C78.2115 68.0132 78.2115 61.9407 78.2115 55.7652C78.2115 53.7067 78.2115 51.5453 78.2115 49.4868C78.2115 48.7663 78.3145 48.4575 79.1376 48.4575C83.6652 48.4575 88.0898 48.4575 92.6173 48.4575C93.6463 48.4575 93.9551 48.8692 93.9551 49.7955C93.9551 54.5301 93.955 59.2646 94.1608 63.9992C94.1608 64.5138 94.1608 65.0284 94.2637 65.543C94.2637 68.322 94.2637 71.101 94.3666 73.88C94.3666 75.3209 95.0869 76.0414 96.5275 76.0414C104.451 75.8355 112.477 75.6297 120.4 75.4238C120.914 75.4238 121.429 75.4238 121.841 75.4238C122.149 75.4238 122.458 75.4238 122.87 75.4238H123.075H123.487C124.207 76.6589 123.487 76.7619 122.561 76.7619C118.342 76.7619 114.123 76.7619 109.904 76.7619C109.699 76.7619 109.493 76.7618 109.287 76.9677C109.904 77.2765 110.625 77.4823 111.242 77.7911C114.741 79.4379 116.181 81.7023 115.975 85.6134C115.975 86.3339 116.387 86.128 116.696 86.128C118.959 85.9222 121.326 85.7163 123.59 85.5105C123.796 85.5105 124.104 85.5105 124.31 85.5105C126.471 85.3046 126.471 85.3046 126.368 83.0403C126.265 78.2028 124.927 73.4683 124.207 68.7337C123.178 61.8377 121.532 55.0447 120.4 48.1487C120.194 47.1195 119.165 46.5019 118.239 46.9136C117.93 47.0166 117.93 47.3253 118.033 47.5312C118.033 48.0458 117.622 48.8692 118.445 49.178C119.474 49.4868 119.577 50.3102 119.474 51.1336C119.371 52.5745 119.68 53.9125 120.091 55.2506C121.12 58.1325 121.532 61.1173 122.046 64.1021C122.252 65.1313 121.841 65.7489 120.812 65.7489C116.387 65.7489 112.065 66.1606 107.641 65.8518C106.2 65.7489 105.583 64.9255 105.274 63.7933C104.965 62.5582 104.862 61.3231 104.862 59.9851C104.862 56.2798 104.862 52.6774 104.965 48.9721C104.965 47.5312 105.377 47.0166 106.817 47.0166C108.464 47.0166 110.11 47.0166 111.756 47.1195C112.168 47.1195 112.58 47.3253 112.991 46.9136C112.477 46.5019 111.962 46.7078 111.551 46.7078C97.3507 46.7078 83.1507 46.6049 69.0536 46.5019C65.7609 46.5019 62.571 46.5019 59.2782 46.5019C59.0724 46.5019 58.7637 46.5019 58.5579 46.5019C58.3521 46.5019 58.1463 46.399 58.1463 46.1932C58.1463 45.9873 58.3521 45.8844 58.5579 45.8844C58.9695 45.8844 59.2782 45.8844 59.6898 45.8844C76.4623 45.8844 93.1319 45.9873 109.904 46.0902C110.213 46.0902 110.522 46.0902 110.933 46.0902C112.168 46.0902 113.609 46.399 113.609 44.3405C107.846 44.3405 102.084 44.3405 96.2188 44.3405C91.7941 44.3405 87.4724 44.2376 83.0478 44.1347C82.9449 43.9288 82.842 43.723 83.1507 43.723C83.4594 43.723 83.7681 43.723 84.1797 43.723C94.8811 43.723 105.685 43.723 116.387 43.723C117.21 43.723 118.033 43.9288 118.856 44.0317C120.297 44.2376 120.914 45.2668 121.223 46.5019C121.943 49.0751 122.252 51.6482 122.767 54.2213C123.796 59.5734 125.03 64.9255 125.854 70.2776C125.854 70.5864 125.751 71.101 126.368 70.9981C127.294 70.8951 127.706 71.4098 127.912 72.2332C128.117 73.0566 127.912 73.88 126.985 74.2917C126.985 74.2917 126.78 74.3946 126.574 74.6004C127.294 74.8063 128.014 74.3946 128.426 75.0121C128.735 75.5268 128.735 76.1443 128.941 76.7619C129.249 77.7911 129.455 78.8204 129.558 79.9525C129.558 80.9818 129.558 82.011 128.323 82.4227C127.912 82.5256 127.809 82.7315 127.912 83.1432C127.912 83.6578 127.912 84.1724 127.912 84.79C127.603 86.9514 127.603 86.9514 125.442 86.8485C124.722 86.8485 124.001 86.7456 124.001 87.7748C124.001 88.2894 123.59 88.4953 123.075 88.5982C121.429 88.7011 119.68 88.907 118.033 89.0099C117.519 89.0099 117.21 88.8041 117.21 88.2894C117.21 87.569 116.901 87.466 116.284 87.569H116.078C114.741 87.2602 114.329 87.8777 113.814 89.1128C112.683 92.2006 109.493 94.0532 106.2 93.8474C102.907 93.6415 100.129 91.583 99.1 88.4953C98.8942 87.7748 98.5854 87.466 97.7623 87.569C95.1898 87.7748 92.7203 87.6719 90.1478 87.466C89.6333 87.466 89.2217 87.2602 89.2217 88.0836C89.2217 89.0099 88.3985 89.1128 87.6782 89.1128C83.4594 89.1128 79.2405 89.1128 75.1246 89.1128C71.1115 89.1128 67.2014 89.0099 63.1884 88.907C62.3652 88.907 61.7478 88.7011 61.9536 87.7748C61.9536 87.1573 61.6449 87.1573 61.2333 87.1573C58.7637 87.1573 56.1913 87.1573 53.7217 87.1573C53.0014 87.1573 52.6927 87.3631 52.5898 88.0836C52.2811 89.7304 51.355 91.0684 50.1203 92.0976C49.9145 92.2006 49.8116 92.5094 49.5029 92.2006C49.2971 91.3772 50.2231 91.2743 50.4289 90.6567C51.4579 89.8333 51.7667 88.4953 52.0754 87.2602C52.384 85.8192 52.0754 85.7163 50.7377 86.0251C50.5319 86.0251 50.3261 86.0251 50.2232 85.8192C50.6348 85.2017 52.384 85.6134 51.6637 83.8637C51.1492 82.7315 50.6347 82.8344 49.6058 83.349C51.1492 82.1139 50.2231 81.4964 49.4 80.7759C48.6797 80.1584 48.4739 80.7759 48.0623 81.3935C48.0623 80.673 48.2681 79.9525 47.4449 79.7467C46.1072 79.4379 46.9304 80.9818 46.2101 81.2905C46.0043 79.335 46.0043 79.335 45.3869 79.232C43.5348 79.0262 44.8724 80.7759 44.1522 81.2905C43.6377 80.7759 44.1521 80.0555 43.7405 79.4379C43.1231 79.8496 42.0942 79.4379 41.8884 80.673C41.8884 80.673 41.7855 80.673 41.6826 80.673C41.4768 80.5701 41.271 80.5701 41.0652 80.673C39.5217 81.5993 38.6985 83.1432 38.2869 84.79C37.7724 86.5397 37.8753 86.5397 39.5217 86.3339C39.6246 86.3339 39.8304 86.3339 39.8304 86.6426C39.4188 87.2602 37.8754 86.7456 38.1841 88.1865C37.9783 88.1865 37.8754 88.1865 37.6696 88.2894C37.5667 87.3631 37.0522 87.2602 36.1261 87.2602C29.3348 87.2602 22.4406 87.2602 15.6493 87.1573C14.3116 87.1573 12.9739 87.1573 11.7391 87.1573C9.78405 87.1573 9.26953 86.6426 9.26953 84.6871C9.26953 81.5993 9.26957 78.5116 9.37247 75.4238C9.57826 67.9103 9.78407 60.2939 10.0928 52.7804C10.0928 50.4131 10.1956 48.0458 10.813 45.6786C11.3275 43.9288 12.0478 43.3113 13.4884 43.4142C13.4884 43.5171 13.4884 43.723 13.4884 43.8259H13.3855ZM108.978 59.3676C109.39 58.5442 108.772 58.2354 108.155 58.0295C107.846 57.8237 107.435 57.8237 107.229 58.2354C106.406 59.7793 105.583 61.4261 106.406 63.2787C107.023 62.9699 106.714 62.0436 107.538 61.9407C107.846 62.7641 107.126 63.2787 106.92 63.8962C106.714 64.6167 106.92 65.0284 107.538 65.1313C108.669 65.1313 109.698 65.4401 110.83 65.1313C114.02 65.1313 117.107 65.1313 120.297 64.9255C121.223 64.9255 121.532 64.6167 121.326 63.6904C121.017 62.4553 120.914 61.2202 120.606 60.088C120.297 58.75 120.297 57.412 119.577 56.074C119.062 57.5149 118.651 57.7208 116.696 57.5149C115.667 57.412 115.358 56.7944 115.255 55.8681C114.946 54.1184 115.152 52.4716 115.152 50.7219C115.152 49.8985 115.461 49.178 116.49 49.0751C116.798 49.0751 117.313 49.178 117.313 48.7663C117.313 48.2517 116.798 48.4575 116.49 48.3546C114.535 47.9429 112.58 48.2517 110.625 48.1487C109.493 48.1487 108.361 47.737 107.229 48.1487C106.612 48.3546 106.303 48.6634 106.303 49.3838C106.303 51.6482 106.303 54.0155 106.303 56.2798C106.303 57.3091 106.612 57.6178 107.538 57.0003C107.846 56.7944 107.949 56.8974 108.258 57.0003C108.772 57.412 109.493 57.7208 110.11 57.9266C110.213 57.9266 110.522 57.7208 110.419 58.0295C110.11 59.1617 111.036 59.9851 110.933 61.0143C110.933 62.2494 111.654 63.5875 111.036 64.8226C110.316 64.6167 110.419 63.8962 110.316 63.3816C110.11 62.1465 110.007 60.8085 109.801 59.5734C109.698 59.3676 109.39 59.3676 109.184 59.2646L108.978 59.3676ZM109.596 92.2006C108.875 92.2006 108.67 91.7889 108.361 91.2743C108.155 90.9655 108.155 90.4509 107.641 90.6567C106.817 90.8626 105.994 90.6567 105.274 90.4509C104.554 90.245 104.451 90.4508 104.142 91.0684C103.936 91.4801 104.142 92.2006 103.422 92.3035C103.422 91.686 103.422 91.1713 103.627 90.6567C104.142 89.9362 103.628 89.5245 103.216 89.3187C102.393 88.907 102.084 89.7304 101.672 90.1421C101.261 90.4509 101.158 90.8626 101.672 91.2743C102.187 91.686 102.701 92.4064 103.525 92.4064C104.862 93.4357 106.303 93.5386 107.846 93.2298C108.464 93.1269 109.287 93.2298 109.699 92.4064C110.933 92.4064 111.551 91.583 112.168 90.7596C113.197 89.9362 113.506 88.5982 113.814 87.3631C114.123 85.9222 113.917 85.8192 112.477 86.128C112.271 86.128 112.065 86.128 111.962 85.9222C113.712 84.79 113.609 84.79 113.3 83.6578C112.785 82.1139 112.065 83.6578 111.448 83.452C112.271 82.011 112.168 81.7022 110.933 80.7759C109.904 79.9525 110.316 81.4964 109.699 81.4964C109.39 81.0847 110.316 80.1584 109.184 79.9525C107.743 79.6438 108.464 81.1876 107.846 81.4964C107.332 80.8789 108.67 79.335 106.817 79.4379C105.171 79.4379 106.509 80.9818 105.788 81.4964C105.274 81.1876 105.48 80.7759 105.48 80.3642C105.48 79.7467 105.274 79.5408 104.656 79.8496C104.142 80.0554 103.525 80.0555 103.216 80.673C101.055 81.3935 100.232 83.0403 99.7174 85.0988C99.3058 86.8485 99.4086 86.8485 101.055 86.6426C101.055 86.6426 101.261 86.6426 101.364 86.7456C101.158 87.6719 99.5116 86.8485 99.7174 88.1865C99.8202 89.0099 100.232 89.7304 100.746 90.4509C100.952 90.245 101.055 89.9362 101.364 89.8333C102.29 89.3187 102.393 88.5982 102.187 87.466C101.981 85.7163 101.981 83.9666 103.627 82.7315C104.142 82.3198 103.627 82.011 103.627 81.5993C104.142 81.5993 104.348 82.2169 105.068 82.011C108.361 81.0847 112.065 83.452 110.625 88.1865C110.316 89.2158 110.728 89.5245 111.448 89.9362C111.757 90.1421 112.271 90.1421 112.065 90.7596C111.551 90.7596 111.139 90.7596 110.83 90.3479C110.11 89.4216 109.596 90.1421 108.978 90.5538C108.258 91.0684 108.978 91.4801 109.184 91.7889C109.287 91.9947 109.596 92.2006 109.596 92.5094V92.2006ZM94.7782 84.79C94.4695 85.9222 94.7782 86.2309 96.013 86.2309C97.2478 86.2309 97.042 85.5105 97.1449 84.79C98.1739 81.2905 100.026 78.6145 103.525 77.1735C100.746 77.1735 98.071 77.1736 95.2927 77.0706C94.7782 77.0706 94.5724 77.1736 94.5724 77.7911C94.5724 80.1584 94.5724 82.5256 94.6753 84.79H94.7782ZM30.055 76.7619C29.4377 76.556 29.129 76.7618 29.129 77.4823C29.129 80.2613 29.2319 83.0403 29.2319 85.8192C29.2319 86.3339 29.4377 86.3339 29.7464 86.3339C31.084 86.3339 32.3188 86.3339 33.6565 86.3339C34.6855 86.3339 35.0971 86.0251 34.8913 85.0988C35.7145 81.1876 37.6695 78.3057 41.3739 76.7619H29.9522H30.055ZM27.8942 84.79C27.8942 84.5841 27.8942 84.4812 27.8942 84.2754C27.8942 72.9536 27.6884 61.529 27.6884 50.2072C27.6884 49.3838 27.2768 49.2809 26.6594 49.2809C22.7493 49.178 18.8391 49.2809 14.9289 48.9721C14.2087 48.9721 14.2087 49.178 14.2087 49.7955C14.4145 60.7056 14.6203 71.6156 14.7232 82.6286C14.7232 83.2461 14.8261 83.9666 14.9289 84.5841C14.5174 85.7163 14.929 86.128 16.1637 86.128C19.6623 86.128 23.058 86.128 26.5565 86.3339C27.7913 86.3339 28.1 86.0251 27.7913 84.8929L27.8942 84.79ZM93.3376 84.79C93.3376 84.5841 93.3376 84.3783 93.3376 84.1724C93.2347 72.9536 93.1318 61.8377 93.0289 50.6189C93.0289 49.7955 92.7203 49.6926 92 49.6926C88.0898 49.6926 84.0768 49.6926 80.1666 49.6926C79.3434 49.6926 79.3434 50.1043 79.4463 50.6189C79.755 56.1769 79.6521 61.6319 79.6521 67.1898C79.6521 73.1595 79.6521 79.1291 79.6521 85.0988C79.3434 86.128 79.7551 86.4368 80.8869 86.4368C84.6942 86.4368 88.3985 86.4368 92.2058 86.3339C93.4406 86.3339 93.6463 85.8192 93.3376 84.8929V84.79ZM78.4173 85.0988C78.4173 82.5256 78.4173 79.9525 78.4173 77.4823C78.4173 76.7618 78.0058 76.7619 77.4913 76.7619C67.7159 76.7619 57.9406 76.7619 48.1652 76.7619C52.2812 78.2028 54.442 80.9818 54.5449 85.4075C54.1333 86.3339 54.5449 86.4368 55.3681 86.4368C62.6739 86.4368 69.9797 86.4368 77.2855 86.4368C78.4174 86.4368 78.6231 86.128 78.4173 85.0988ZM102.907 86.2309C102.598 88.8041 105.171 89.9362 107.023 89.9362C109.081 89.9362 110.419 88.1865 110.419 85.5105C110.419 83.7607 108.669 82.3198 106.509 82.3198C104.142 82.3198 103.01 83.6578 103.01 86.2309H102.907ZM128.735 80.4672C128.735 78.7174 128.22 77.3794 127.912 75.9384C127.912 75.6297 127.706 75.3209 127.397 75.5268C127.088 75.5268 127.088 75.9384 127.191 76.1443C127.603 77.7911 127.706 79.4379 127.912 81.0847C127.912 81.1876 127.912 81.3935 128.117 81.4964C128.323 81.4964 128.529 81.4964 128.632 81.2905C128.735 80.9818 128.838 80.673 128.838 80.5701L128.735 80.4672ZM120.297 87.9807C121.017 87.9807 121.841 87.8777 122.664 87.7748C122.972 87.7748 123.178 87.6719 123.178 87.2602C123.178 86.9514 122.87 86.9514 122.664 86.9514C121.326 86.9514 119.988 87.1573 118.651 87.2602C118.445 87.2602 118.033 87.2602 118.033 87.6719C118.033 88.0836 118.445 87.9807 118.651 87.9807C119.165 87.9807 119.68 87.9807 120.297 87.9807ZM119.783 45.6786C118.959 44.6493 117.725 44.3405 116.284 44.5464C117.313 45.3698 118.239 46.2961 119.783 45.6786ZM114.329 46.8107C114.329 46.9136 114.329 47.0166 114.329 47.1195C115.152 47.2224 116.078 47.3253 116.901 47.4283C117.107 47.4283 117.416 47.4283 117.416 47.1195C117.416 46.8107 117.21 46.7078 116.901 46.7078C116.078 46.7078 115.152 46.7078 114.329 46.7078V46.8107ZM116.798 45.7815C115.975 45.1639 115.358 44.9581 114.638 45.1639C114.432 45.1639 114.226 45.3698 114.226 45.6786C114.226 45.9873 114.535 45.8844 114.741 45.8844C115.358 45.8844 115.975 45.8844 116.798 45.8844V45.7815Z" fill="#12100D"/>
<path d="M13.3828 43.8256C13.3828 43.7227 13.3828 43.5168 13.3828 43.4139C24.393 43.311 35.3002 43.4139 46.3103 43.4139C56.0857 43.5168 65.964 43.5168 75.7394 43.6198C76.0481 43.6198 76.7683 43.2081 76.6654 44.1344C58.9669 44.1344 41.2683 44.1344 23.5698 44.1344C20.1741 44.1344 16.7785 44.0315 13.3828 43.9285V43.8256Z" fill="#141111"/>
<path d="M50.4255 90.5537C50.3226 91.1713 49.2937 91.2742 49.4995 92.0976C49.2937 91.9947 49.0878 92.0976 48.882 92.0976C46.927 93.3327 44.7661 93.4356 42.6053 92.921C41.7821 92.5093 41.0618 92.0976 40.2386 91.6859C39.827 91.8918 39.4154 91.8918 39.3125 91.3771C39.7241 90.6567 40.1357 89.8333 40.6502 89.1128C42.1936 89.1128 42.5024 89.6274 41.9879 91.0684C41.885 91.3771 41.7821 91.7888 42.0908 92.0976C42.5024 91.7888 42.5024 91.2742 42.6053 90.9654C42.7082 90.7596 42.8111 90.245 43.1198 90.3479C44.3545 90.9654 46.3096 90.0391 47.0299 91.8918C47.1328 92.2005 47.4415 92.5093 47.956 92.2005C47.7502 91.4801 46.3096 90.8625 47.8531 89.9362C48.3676 89.6274 48.6763 89.5245 49.0879 89.9362C49.3966 90.3479 49.911 90.5537 50.4255 90.4508V90.5537Z" fill="#5F6060"/>
<path d="M42.5041 92.9208C44.7678 93.4354 46.8258 93.3325 48.7808 92.0974C48.9866 91.9944 49.1924 91.8915 49.3982 92.0974C49.7069 92.5091 49.2953 92.612 49.0895 92.7149C46.8258 93.95 44.562 94.3617 42.1953 93.3325C42.2982 93.2295 42.4012 93.1266 42.5041 93.0237V92.9208Z" fill="#12100D"/>
<path d="M40.445 89.0099C40.0335 89.7304 39.6218 90.5538 39.1073 91.2743C38.6957 90.8626 38.2842 90.4509 38.1813 89.9362C38.1813 89.6275 38.1812 89.4216 37.7696 89.3187C37.5639 89.0099 37.3581 88.7011 37.461 88.2894C37.6668 88.2894 37.7697 88.2894 37.9755 88.1865C38.4899 88.7011 38.49 89.3187 38.6958 89.9362C38.7987 89.9362 38.9015 90.1421 39.0044 90.245C39.416 89.7304 39.7248 89.1128 40.445 89.0099Z" fill="#141111"/>
<path d="M77.4885 91.9945C77.2827 91.9945 77.0769 91.9945 76.8711 91.9945C76.8711 90.9653 77.5914 90.3477 78.4146 89.4214C78.5175 90.5536 77.9001 91.1711 77.4885 91.8916V91.9945Z" fill="#141111"/>
<path d="M42.5047 92.921C42.4018 93.024 42.2989 93.1269 42.196 93.2298C41.5786 93.2298 41.0641 92.7152 40.4468 92.4064C40.1381 92.2006 39.7264 91.9947 40.138 91.583C40.9612 91.9947 41.6815 92.4064 42.5047 92.8181V92.921Z" fill="#141111"/>
<path d="M37.875 89.3184C38.2866 89.3184 38.2866 89.6271 38.2866 89.9359C38.1837 89.7301 38.0808 89.5242 37.875 89.3184Z" fill="#12100D"/>
<path d="M16.0587 41.1499C16.0587 41.1499 15.9558 41.3557 15.8529 41.3557C15.8529 41.3557 15.8529 41.3558 15.75 41.2528C15.8529 41.2528 15.9558 41.2528 16.0587 41.2528V41.1499Z" fill="#5F6060"/>
<path d="M16.0587 41.15C15.9558 41.15 15.8529 41.15 15.75 41.15C15.75 40.9441 15.7499 40.7383 15.9557 40.7383C16.1615 40.7383 15.9557 40.9441 15.9557 41.0471L16.0587 41.15Z" fill="#141111"/>
<path d="M66.4799 47.6342C69.464 47.6342 72.448 47.6342 75.3292 47.6342C76.7698 47.6342 77.49 47.84 77.6958 49.8985C78.0045 52.3687 77.9016 54.8389 77.9016 57.3091C77.9016 59.0588 77.9016 60.8086 77.9016 62.4553C77.9016 64.9255 77.0785 65.7489 74.7118 65.8519C69.2582 66.1606 63.7017 66.2636 58.2481 66.1606C55.6756 66.1606 55.0582 65.5431 54.7495 62.8671C54.235 58.3384 54.6466 53.8097 54.5437 49.281C54.5437 48.2517 55.6756 47.5312 57.1161 47.5312C60.2031 47.5312 63.393 47.5312 66.4799 47.5312V47.6342ZM70.9046 54.2214C69.3611 54.2214 67.8176 54.2214 66.377 54.2214C65.4509 54.2214 65.1422 54.4272 65.2451 55.4565C65.4509 58.2354 65.7596 61.0144 65.5538 63.7934C65.5538 64.1021 65.3481 64.5138 65.6568 64.8226C65.6568 64.8226 65.9654 64.8226 66.0683 64.8226C66.4799 64.6168 66.377 64.1021 66.2741 63.7934C65.9654 62.3524 66.0683 60.8086 66.0683 59.3676C66.0683 57.9267 66.7886 57.2062 68.2292 57.2062C69.2582 57.2062 70.1843 57.412 71.2132 57.412C72.2422 57.412 72.7567 57.8237 73.0654 58.853C73.477 60.2939 73.6828 61.8378 73.7857 63.2788C73.9915 64.6168 75.0205 65.0285 76.0495 64.2051C76.564 63.7934 76.564 63.0729 76.6669 62.3524C76.6669 59.8822 76.6669 57.515 76.6669 55.0448C76.6669 54.2214 76.3582 54.1184 75.6379 54.1184C73.9915 54.1184 72.4481 54.1184 70.8017 54.1184L70.9046 54.2214ZM69.8756 64.8226C70.6988 64.8226 71.522 64.8226 72.3452 64.8226C72.9626 64.8226 73.1683 64.5138 73.0654 63.8963C72.9625 62.97 72.8596 61.9407 72.6539 61.0144C72.2423 58.3384 72.1393 58.3384 69.464 58.1325C69.1553 58.1325 68.8466 58.1325 68.6408 58.1325C67.3031 58.1325 66.8915 58.3384 66.8915 59.6764C66.8915 60.6027 66.8915 61.529 67.0973 62.4553C67.2002 63.2787 66.7886 64.4109 67.406 64.8226C68.0234 65.2343 69.0524 64.8226 69.8756 64.8226ZM61.7466 59.4705C61.7466 58.1325 61.7466 56.7945 61.7466 55.4565C61.7466 54.3243 61.335 54.1184 60.4089 54.2214C59.4828 54.3243 58.4539 54.4272 57.4249 54.4272C55.6756 54.4272 55.6756 54.4272 55.5727 56.074C55.5727 56.2799 55.5727 56.4857 55.5727 56.6916C55.5727 57.412 55.7785 57.6179 56.6016 57.6179C58.9683 57.6179 59.5858 58.2354 59.9973 60.6027C60.2031 61.7349 60.306 62.867 60.5118 63.9992C60.5118 64.5138 60.8205 64.8226 61.4379 64.8226C62.2611 64.8226 61.7466 64.2051 61.7466 63.8963C61.7466 62.4554 61.7466 60.9115 61.7466 59.4705ZM55.7785 60.3969C55.7785 61.3232 55.7785 62.2495 55.9843 63.1758C56.1901 64.5139 58.3509 65.5431 59.5857 64.8226C59.7915 64.7197 59.7915 64.6168 59.7915 64.4109C59.4828 62.7641 59.5858 61.0144 58.9684 59.3676C58.6597 58.6471 57.1162 57.9267 56.1901 58.2354C55.264 58.5442 55.9843 59.3676 55.7785 59.8822C55.7785 59.9852 55.7785 60.191 55.7785 60.3969Z" fill="#12100D"/>
<path d="M29.5378 63.0727C29.4349 58.8528 29.332 54.6329 29.332 50.413C29.332 48.3545 29.8465 47.8398 31.9045 47.8398C38.5929 47.8398 45.1784 47.8398 51.8668 47.8398C52.9987 47.8398 53.4103 48.2515 53.5132 49.3837C53.8219 53.7066 53.4103 58.1323 53.5132 62.4552C53.5132 64.9254 52.7929 65.6458 50.4262 65.6458C45.1784 65.6458 40.0335 66.0575 34.7857 66.1605C33.1393 66.1605 31.39 66.2634 29.9495 65.2341C29.5379 64.6166 29.7437 63.7932 29.6408 63.0727H29.5378ZM47.1335 53.7066C44.9727 53.7066 42.9147 53.7066 40.7538 53.9124C40.2393 53.9124 39.9306 54.0153 39.9306 54.6329C40.1364 57.6177 39.8277 60.7054 40.1364 63.7932C40.1364 64.2049 39.9306 64.8224 40.7538 64.7195C41.4741 64.7195 41.2683 63.999 41.1654 63.6903C41.0625 62.1464 40.7538 60.4996 40.7538 58.9557C40.7538 57.7206 41.2683 57.206 42.5031 57.206C43.5321 57.206 44.4581 57.206 45.4871 57.206C47.9567 57.3089 48.677 58.0294 49.2944 60.3967C49.5002 61.4259 49.706 62.4552 50.0147 63.3815C50.1176 63.7932 50.0146 64.7195 50.9407 64.5137C51.661 64.4107 52.3813 64.2049 52.3813 63.1756C52.3813 60.2937 52.5871 57.4119 52.69 54.53C52.69 53.9124 52.4842 53.7066 51.8668 53.7066C50.3234 53.7066 48.7799 53.7066 47.3393 53.7066H47.1335ZM45.3842 64.6166C46.4132 64.6166 47.4422 64.6166 48.4712 64.6166C48.9857 64.6166 49.1915 64.4107 49.0886 63.8961C48.7799 62.661 48.677 61.4259 48.3683 60.1908C48.1625 58.9557 47.5451 58.2353 46.1045 58.1323C44.9727 58.1323 43.9437 58.1323 42.8118 57.9265C41.7828 57.9265 41.4741 58.3382 41.577 59.3674C41.7828 60.7054 41.9886 62.0435 41.9886 63.3815C41.9886 64.3078 42.0915 64.9254 43.3263 64.6166C43.9437 64.4107 44.6639 64.6166 45.3842 64.6166ZM37.2552 59.6762C37.2552 58.1323 37.2552 56.5885 37.2552 55.1475C37.2552 54.53 37.2552 54.2212 36.4321 54.2212C34.7857 54.2212 33.2422 54.2212 31.6987 54.0153C30.6698 53.9124 30.361 54.2212 30.361 55.2504C30.361 57.1031 30.3611 57.1031 32.2132 57.1031C32.5219 57.1031 32.8306 57.1031 33.0364 57.1031C34.1683 57.1031 34.7857 57.6177 35.0944 58.647C35.3002 59.1616 35.3001 59.7791 35.5059 60.2937C35.9175 61.6318 35.506 62.9698 35.9176 64.3078C36.0205 64.8224 36.2262 65.0283 36.7407 64.9254C37.2552 64.9254 37.2552 64.5137 37.2552 64.102C37.2552 62.5581 37.2552 61.0142 37.2552 59.5733V59.6762ZM31.2871 57.6177C30.9784 57.8236 30.1553 57.0002 30.1553 58.1323C30.1553 59.882 30.1552 61.6318 30.361 63.3815C30.361 63.999 30.7726 64.5137 31.4929 64.7195C32.5219 64.9254 33.5509 65.0283 34.5799 65.0283C34.9915 65.0283 35.1973 64.9254 35.0944 64.4107C34.8886 62.9698 34.8886 61.4259 34.6828 59.985C34.2712 57.9265 34.0654 57.7206 31.9045 57.6177C31.6987 57.6177 31.5958 57.6177 31.39 57.6177H31.2871Z" fill="#12100D"/>
<path d="M29.5405 63.0726C29.6434 63.7931 29.5405 64.5136 29.8491 65.2341C29.7462 68.116 29.8492 71.1008 30.055 73.9827C30.055 74.6002 30.3636 74.8061 30.8781 74.7032C35.5086 74.6002 40.0361 74.909 44.6666 74.4973C47.0332 74.2915 49.3999 74.4973 51.7666 74.4973C60.6159 74.4973 69.4651 74.2915 78.2115 74.2915C78.2115 74.7032 78.3144 75.1149 78.2115 75.4236C69.4651 75.4236 60.6158 75.4236 51.8695 75.4236C51.5608 75.4236 51.2521 75.4236 51.0463 75.6295C44.4608 75.6295 37.7724 75.6295 31.1869 75.6295C29.1289 75.6295 29.1289 75.6295 29.1289 73.571C29.1289 70.0715 29.1289 66.4692 29.1289 62.9697C29.2318 62.9697 29.4376 62.9697 29.5405 62.9697V63.0726Z" fill="#FAFAFA"/>
<path d="M95.1896 63.7933C94.8809 58.9558 95.0867 54.0154 95.0867 49.1779C95.0867 48.2516 95.7041 47.6341 96.6302 47.6341C98.4824 47.6341 100.335 47.4282 102.187 47.4282C104.142 47.4282 104.656 47.9428 104.656 50.0013C104.656 54.0154 104.656 57.9266 104.656 61.9406C104.656 65.0284 103.936 65.6459 100.952 65.4401C100.026 65.4401 99.0998 65.4401 98.1737 65.4401C97.2476 65.4401 96.4244 65.3371 95.6012 64.7196C95.4983 64.4108 95.3955 63.9991 95.2926 63.6904L95.1896 63.7933ZM103.627 49.075C102.29 51.0306 101.569 52.8832 99.923 54.1183C101.055 52.2657 102.084 50.3101 103.216 48.3545C102.084 48.0458 101.364 48.1487 100.849 49.1779C100.643 49.6926 100.232 50.2072 99.923 50.6189C99.0998 51.854 98.4824 53.2949 97.3505 54.4271C97.9679 52.1628 99.5114 50.3101 100.643 48.3545C100.026 48.1487 99.6143 48.3545 99.0998 48.3545C98.5853 48.3545 98.0708 48.3545 97.6592 48.3545C96.0128 48.3545 95.807 48.5604 95.807 50.1043C95.807 52.1628 95.807 54.1183 95.807 56.1768C95.807 57.0002 96.0128 57.309 96.9389 57.309C98.3795 57.309 98.894 57.9266 99.0998 59.2646C99.2027 60.1909 99.3056 61.1172 99.5114 62.0435C99.923 64.205 99.923 64.205 102.187 64.102C103.113 64.102 103.524 63.7933 103.627 62.8669C104.039 59.8821 103.73 57.0002 103.833 54.0154C103.833 52.4715 103.833 50.8247 103.833 48.9721L103.627 49.075ZM95.7041 60.1909C95.7041 60.6026 95.7041 60.9114 95.7041 61.3231C95.7041 62.1465 95.807 63.0728 96.2186 63.7933C96.6302 64.7196 97.5563 64.6167 98.2766 64.4108C99.0998 64.205 98.5853 63.4845 98.5853 63.0728C98.4824 61.7348 98.1737 60.4997 97.9679 59.1617C97.865 58.0295 96.9389 58.1324 96.2186 58.1324C95.2925 58.1324 95.9099 58.9558 95.7041 59.3675C95.7041 59.5734 95.7041 59.9851 95.7041 60.1909Z" fill="#141111"/>
<path d="M95.1877 63.7935C95.2906 64.1022 95.3935 64.5139 95.4964 64.8227C95.4964 67.8075 95.4964 70.8953 95.4964 73.8801C95.4964 74.7035 95.7022 74.9093 96.5254 74.9093C101.156 74.9093 105.889 74.9093 110.52 74.4976C114.533 74.2918 118.649 74.1889 122.662 74.0859C123.896 74.0859 124.102 74.3947 123.794 75.5269C123.691 75.5269 123.485 75.5269 123.382 75.5269C123.382 75.424 123.176 75.424 123.176 75.5269C122.867 75.5269 122.559 75.5269 122.147 75.5269C121.633 75.321 121.118 75.321 120.707 75.5269C112.783 75.7327 104.757 75.9386 96.8341 76.1444C95.3935 76.1444 94.6732 75.424 94.6732 73.983C94.6732 71.204 94.6732 68.4251 94.5703 65.6461C94.879 65.0286 94.2616 64.1022 95.2906 63.7935H95.1877Z" fill="#FAFAFA"/>
<path d="M13.5883 84.584C13.3825 84.9957 14.2057 85.8191 13.1767 86.0249C11.1187 86.2308 10.6042 86.0249 10.3984 84.7898C11.4274 84.7898 12.4564 84.4811 13.5883 84.584Z" fill="#F5F5F1"/>
<path d="M54.5437 85.3044C54.4408 80.9815 52.28 78.0996 48.1641 76.6587C57.9394 76.6587 67.7148 76.6587 77.4901 76.6587C78.0046 76.6587 78.4162 76.6587 78.4162 77.3792C78.4162 79.9523 78.4162 82.5254 78.4162 84.9956C70.493 84.9956 62.5698 84.9956 54.6467 85.2015L54.5437 85.3044Z" fill="#BED8FA"/>
<path d="M79.7526 85.0987C79.7526 79.129 79.7526 73.1594 79.7526 67.1897C79.7526 61.6318 79.7527 56.1768 79.5469 50.6188C79.5469 50.0013 79.5468 49.5896 80.2671 49.6925C84.1773 49.6925 88.1903 49.6925 92.1004 49.6925C92.8207 49.6925 93.1294 49.6925 93.1294 50.6188C93.1294 61.8377 93.3353 72.9535 93.4382 84.1723C93.4382 84.3782 93.4382 84.584 93.4382 84.7899C88.9106 85.2016 84.3831 84.9957 79.8556 85.0987H79.7526ZM92.2034 63.7932C92.4092 60.0879 92.2034 56.3826 91.9976 52.6773C91.9976 51.1335 91.1744 50.5159 89.6309 50.413C87.7787 50.413 85.8237 50.413 83.9715 50.413C81.5019 50.413 81.0903 50.8247 80.9874 53.192C80.9874 53.3978 80.9874 53.7066 80.9874 53.9124C80.6787 60.4996 81.399 67.1898 81.5019 73.7769C81.5019 75.4237 82.3251 76.2471 84.0744 76.2471C86.2352 76.2471 88.3961 76.2471 90.4541 76.2471C91.8947 76.2471 92.3063 75.7325 92.2034 74.2916C92.1005 70.7921 91.9976 67.1897 92.2034 63.6903V63.7932Z" fill="#BED8FA"/>
<path d="M15.0289 84.5842C15.0289 83.9666 14.8231 83.2461 14.8231 82.6286C14.6173 71.7186 14.4115 60.8085 14.3086 49.7956C14.3086 49.2809 14.3086 48.9722 15.0289 48.9722C18.939 49.3839 22.8491 49.0751 26.7593 49.2809C27.3767 49.2809 27.7883 49.3839 27.7883 50.2073C27.7883 61.529 27.8912 72.9537 27.9941 84.2754C27.9941 84.4812 27.9941 84.5842 27.9941 84.79C23.6723 84.79 19.4535 84.8929 15.1318 84.5842H15.0289ZM15.9549 61.529C15.7491 66.3665 15.955 69.9688 16.0579 73.5712C16.1608 76.2472 17.1898 77.0707 19.8651 76.8648C21.6144 76.7619 23.2608 76.659 25.0101 76.556C26.6564 76.556 27.068 76.1443 27.1709 74.6004C27.5825 69.1454 27.1709 63.7933 27.2738 58.3383C27.2738 56.1769 27.068 54.1184 26.9651 51.957C26.9651 50.7219 26.2448 50.0014 24.9071 49.8985C22.6434 49.6926 20.3796 49.8985 18.1159 50.0014C16.5724 50.1043 15.9549 50.7219 15.9549 52.2658C15.9549 55.7652 16.0578 59.2646 15.9549 61.529ZM26.1419 77.5853C25.5245 77.7911 25.2158 78.2028 25.1129 78.9233C25.1129 79.6438 25.3188 80.2613 26.039 80.2613C26.8622 80.2613 27.1709 79.6438 27.1709 78.9233C27.1709 78.3058 26.9651 77.6882 26.039 77.5853H26.1419Z" fill="#BED8FA"/>
<path d="M110.726 64.8226C111.343 63.4846 110.52 62.2495 110.623 61.0144C110.623 59.9852 109.799 59.1618 110.108 58.0296C110.108 57.6179 109.902 57.9267 109.799 57.9267C109.182 57.6179 108.462 57.412 107.947 57.0003C107.639 56.7945 107.536 56.6916 107.227 57.0003C106.301 57.6179 105.992 57.2062 105.992 56.2799C105.992 54.0155 105.992 51.6482 105.992 49.3839C105.992 48.6634 106.198 48.3546 106.918 48.1488C108.05 47.7371 109.182 48.1488 110.314 48.1488C112.269 48.1488 114.224 47.943 116.179 48.3547C116.488 48.3547 117.002 48.1488 117.002 48.7664C117.002 49.281 116.488 49.0751 116.179 49.0751C115.15 49.0751 114.841 49.8985 114.841 50.7219C114.841 52.4716 114.739 54.1184 114.944 55.8682C115.047 56.7945 115.356 57.412 116.385 57.515C118.34 57.7208 118.752 57.515 119.266 56.074C119.986 57.412 119.986 58.7501 120.295 60.0881C120.604 61.3232 120.707 62.4554 121.015 63.6905C121.221 64.6168 121.015 64.9256 119.986 64.9256C116.797 65.0285 113.71 65.1314 110.52 65.1314V64.9256L110.726 64.8226ZM109.285 53.9126C109.285 53.9126 109.285 53.9126 109.285 54.0155C109.285 54.0155 109.079 54.0155 109.285 54.2214C109.285 54.2214 109.285 54.1184 109.285 54.0155V53.9126ZM107.844 56.1769C107.844 56.2799 107.844 56.4857 108.05 56.3828C108.565 55.8682 108.77 55.2506 108.873 54.5301C108.462 55.0448 107.947 55.5594 107.844 56.1769Z" fill="#5F6060"/>
<path d="M30.0547 76.7617H41.4765C37.7721 78.3056 35.7141 81.1875 34.9938 85.0986C33.759 85.0986 32.4214 85.0986 31.1866 84.8928C30.4663 84.7898 30.3634 84.584 30.2605 83.8635C30.2605 81.4963 30.0547 79.129 30.0547 76.7617Z" fill="#BED8FA"/>
<path d="M94.7748 84.7897C94.7748 82.4224 94.7748 80.0551 94.6719 77.7908C94.6719 77.2762 94.8777 77.0703 95.3922 77.0703C98.0675 77.0703 100.846 77.0703 103.624 77.1732C100.126 78.6142 98.2733 81.2902 97.2443 84.7897C96.4211 84.7897 95.7009 84.7897 94.8777 84.7897H94.7748Z" fill="#BED8FA"/>
<path d="M111.96 90.4505C112.166 89.833 111.651 89.833 111.343 89.6271C110.622 89.2154 110.211 88.9067 110.519 87.8774C111.96 83.2458 108.358 80.8785 104.963 81.7019C104.243 81.9078 104.037 81.1873 103.522 81.2902C103.522 80.8785 103.317 80.5697 103.008 80.261C103.214 79.6434 103.934 79.6434 104.448 79.4376C105.066 79.2317 105.272 79.4376 105.272 79.9522C105.272 80.3639 105.066 80.7756 105.58 81.0844C106.198 80.5698 104.963 79.1288 106.609 79.0259C108.461 79.0259 107.124 80.4668 107.638 81.0844C108.256 80.6727 107.638 79.2317 108.976 79.5405C110.108 79.7464 109.182 80.6727 109.49 81.0844C110.005 81.0844 109.593 79.6434 110.725 80.3639C111.96 81.2902 112.063 81.7019 111.24 83.04C111.857 83.2458 112.68 81.7019 113.092 83.2458C113.401 84.378 113.503 84.378 111.754 85.5101C111.754 85.8189 112.063 85.716 112.269 85.716C113.709 85.4072 113.915 85.5101 113.606 86.9511C113.298 88.1862 113.092 89.4213 111.96 90.3476C111.96 90.3476 111.96 90.3476 111.96 90.2447V90.4505ZM111.651 87.157C111.651 87.2599 111.651 87.3628 111.651 87.4657C112.269 87.4657 112.886 87.6716 113.401 86.7452C112.68 86.8482 112.063 87.054 111.548 87.157H111.651Z" fill="#5F6060"/>
<path d="M41.6797 80.57C41.8855 79.4378 42.9145 79.7466 43.5319 79.3349C43.9435 79.9524 43.429 80.57 43.9435 81.1876C44.6638 80.6729 43.3261 78.9232 45.1783 79.1291C45.7957 79.1291 45.7956 79.1291 46.0014 81.1876C46.7217 80.9817 46.0015 79.4378 47.2362 79.6437C48.0594 79.8495 47.8536 80.57 47.8536 81.2905C48.2652 80.6729 48.471 79.9525 49.1913 80.6729C50.0145 81.3934 50.9406 82.1139 49.3971 83.246C50.4261 82.7314 50.9406 82.6285 51.455 83.7607C52.1753 85.4075 50.4261 84.9958 50.0145 85.7162C50.0145 86.025 50.3232 86.025 50.529 85.9221C51.9696 85.6133 52.1754 85.7162 51.8667 87.1572C51.558 88.3923 51.3522 89.6274 50.2203 90.5537C50.3232 90.142 50.2203 89.9362 49.8087 89.8332C48.7797 89.5245 48.5739 89.0098 48.8826 87.7747C50.0145 83.4519 47.1334 81.4963 44.0464 81.7022C43.2232 81.7022 42.6058 81.908 41.8855 81.3934C41.8855 81.1875 41.8855 80.9817 41.6797 80.8788V80.6729V80.57ZM50.0145 87.363C50.6319 87.5689 51.3522 87.7747 51.7638 86.8484C51.0435 86.8484 50.529 86.9513 50.0145 87.363Z" fill="#5F6060"/>
<path d="M102.904 86.2305C102.904 83.6574 104.139 82.3193 106.403 82.3193C108.563 82.3193 110.313 83.7603 110.313 85.51C110.313 88.1861 108.975 90.0387 106.917 89.9358C105.065 89.9358 102.595 88.8036 102.801 86.2305H102.904ZM108.358 86.1276C108.358 84.9954 107.534 83.9661 106.505 83.9661C104.962 83.9661 104.242 84.4808 104.242 85.7159C104.242 86.848 105.271 88.0831 106.3 88.1861C107.432 88.1861 108.358 87.3627 108.358 86.1276Z" fill="#5F6060"/>
<path d="M54.5417 85.3045C62.4649 84.9957 70.3881 84.9957 78.3113 85.0987C78.5171 86.025 78.3112 86.4367 77.1794 86.4367C69.8736 86.4367 62.5678 86.4367 55.262 86.4367C54.4388 86.4367 54.0272 86.4367 54.4388 85.4074L54.5417 85.3045Z" fill="#FEFEFE"/>
<path d="M40.4462 89.0095C39.623 89.0095 39.4172 89.7299 39.0056 90.2446C38.9027 90.2446 38.7998 90.0387 38.6969 89.9358C38.4911 89.3182 38.3882 88.7007 37.9766 88.1861C37.6679 86.7451 39.2113 87.2598 39.6229 86.6422C39.6229 86.3334 39.4171 86.3334 39.3142 86.3334C37.565 86.5393 37.565 86.5393 38.0795 84.7896C38.491 83.1428 39.3142 81.5989 40.8577 80.6726C41.1664 80.4667 41.2694 80.5696 41.4752 80.6726C41.4752 80.7755 41.4751 80.8784 41.6809 80.8784C41.6809 81.0843 41.6809 81.2901 41.8867 81.393C41.8867 81.8047 42.4012 82.1135 41.8867 82.6281C40.1374 84.0691 40.3432 85.9217 40.6519 87.8773C40.6519 88.3919 40.6519 88.7007 40.549 89.1124L40.4462 89.0095Z" fill="#5F6060"/>
<path d="M103.626 81.2906C103.626 81.7023 104.14 82.0111 103.626 82.4228C101.979 83.6579 101.979 85.4076 102.185 87.1573C102.391 88.1866 102.185 88.907 101.362 89.5246C101.156 89.6275 100.95 89.9363 100.745 90.1421C100.23 89.4216 99.8185 88.7012 99.7156 87.8778C99.5098 86.6427 101.156 87.3631 101.362 86.4368C101.259 86.4368 101.156 86.3339 101.053 86.3339C99.4068 86.4368 99.304 86.4368 99.7156 84.79C100.23 82.8345 101.053 81.0847 103.214 80.3643C103.214 80.776 103.214 81.1877 103.729 81.3935L103.626 81.2906Z" fill="#5F6060"/>
<path d="M79.7529 85.0988C84.2804 85.0988 88.808 85.2017 93.3355 84.79C93.6442 85.8193 93.5413 86.231 92.2036 86.231C88.3964 86.231 84.692 86.3339 80.8848 86.3339C79.7529 86.3339 79.3413 86.0251 79.65 84.9959L79.7529 85.0988Z" fill="#FAFAFA"/>
<path d="M15.0292 84.5839C19.3509 84.9956 23.5697 84.7897 27.8915 84.7897C28.2002 85.9219 27.8915 86.2307 26.6567 86.2307C23.1581 86.1278 19.7625 86.0248 16.264 86.0248C14.9263 86.0248 14.6176 85.7161 15.0292 84.481V84.5839Z" fill="#FAFAFA"/>
<path d="M30.0536 76.7617C30.0536 79.1289 30.2595 81.4962 30.2595 83.8635C30.2595 84.481 30.4653 84.6869 31.1856 84.8927C32.4203 85.2015 33.758 84.8927 34.9928 85.0986C35.1986 86.1278 34.787 86.4366 33.758 86.3337C32.4203 86.2308 31.1855 86.3337 29.8478 86.3337C29.5391 86.3337 29.3333 86.3337 29.3333 85.8191C29.3333 83.0401 29.3334 80.2611 29.2305 77.4821C29.2305 76.6587 29.5392 76.5558 30.1566 76.7617H30.0536Z" fill="#F5F5F1"/>
<path d="M110.726 64.8225V65.0284C109.595 65.2342 108.566 65.0284 107.434 65.0284C106.713 65.0284 106.61 64.5137 106.816 63.7933C107.022 63.1757 107.742 62.6611 107.434 61.8377C108.051 62.0435 107.948 61.426 108.154 61.2201C108.668 60.7055 108.566 59.8821 109.389 59.6763C109.595 60.9114 109.697 62.2494 109.903 63.4845C109.903 63.9991 109.903 64.6167 110.623 64.9254L110.726 64.8225Z" fill="#CEC8C8"/>
<path d="M103.418 92.2003C104.138 92.0974 103.932 91.3769 104.138 90.9652C104.447 90.4506 104.55 90.1418 105.27 90.3477C105.99 90.5535 106.814 90.8623 107.637 90.5535C108.151 90.3477 108.151 90.8623 108.357 91.1711C108.666 91.6857 108.872 92.2003 109.592 92.0974C109.18 92.9208 108.357 92.8179 107.74 92.9208C106.196 93.2296 104.756 93.1266 103.418 92.0974V92.2003ZM106.608 91.8916C106.608 91.5828 106.711 91.0682 106.299 90.9652C105.888 90.9652 105.888 91.3769 105.99 91.7886C105.99 92.2003 105.888 92.715 106.402 92.715C106.814 92.715 106.608 92.2003 106.711 91.8916H106.608Z" fill="#5F6060"/>
<path d="M107.641 61.8377C106.818 61.8377 107.023 62.8669 106.509 63.1757C105.686 61.3231 106.509 59.7792 107.332 58.1324C107.538 57.7207 107.95 57.8236 108.258 57.9265C108.773 58.2353 109.39 58.4412 109.081 59.2646C108.567 60.088 107.744 60.7055 107.744 61.7348L107.641 61.8377Z" fill="#CEC8C8"/>
<path d="M51.0443 75.6297C51.2501 75.4238 51.5588 75.4238 51.8675 75.4238C60.6139 75.4238 69.4631 75.4238 78.2095 75.4238C78.1066 75.4238 77.9009 75.5268 77.798 75.5268C69.0516 75.5268 60.3052 75.6297 51.4559 75.7326C51.2501 75.7326 51.1472 75.7326 50.9414 75.7326L51.0443 75.6297Z" fill="#CEC8C8"/>
<path d="M128.732 80.4671C128.732 80.4671 128.732 80.8788 128.527 81.1875C128.527 81.3934 128.218 81.4963 128.012 81.3934C127.806 81.3934 127.806 81.1875 127.806 80.9817C127.6 79.3349 127.498 77.6881 127.086 76.0413C127.086 75.8355 127.086 75.5267 127.292 75.4237C127.703 75.3208 127.806 75.5267 127.806 75.8355C128.115 77.2764 128.527 78.7173 128.629 80.3641L128.732 80.4671Z" fill="#DD7E29"/>
<path d="M112.064 90.5534C111.447 91.3768 110.726 92.2002 109.594 92.2002C109.594 91.8915 109.286 91.6856 109.183 91.4798C108.977 91.0681 108.257 90.7593 108.977 90.2447C109.492 89.833 110.006 89.1125 110.829 90.0388C111.138 90.3476 111.55 90.5535 112.064 90.4505C112.064 90.4505 112.064 90.4505 112.064 90.5534Z" fill="#5F6060"/>
<path d="M103.419 92.2002C102.596 92.2002 102.185 91.5827 101.567 91.0681C101.053 90.6564 101.259 90.2447 101.567 89.9359C102.082 89.6271 102.288 88.7008 103.111 89.1125C103.625 89.4213 104.037 89.833 103.522 90.4505C103.214 90.9651 103.214 91.4798 103.317 92.0973L103.419 92.2002Z" fill="#5F6060"/>
<path d="M120.295 87.9804C119.678 87.9804 119.163 87.9804 118.649 87.9804C118.443 87.9804 118.031 88.1863 118.031 87.6717C118.031 87.26 118.443 87.2599 118.649 87.2599C119.986 87.157 121.324 87.0541 122.662 86.9512C122.867 86.9512 123.176 86.9512 123.176 87.2599C123.176 87.6716 122.97 87.7746 122.662 87.7746C121.838 87.7746 121.015 87.8775 120.295 87.9804Z" fill="#DD7E29"/>
<path d="M94.775 84.79C95.5982 84.79 96.3185 84.79 97.1417 84.79C96.9359 85.4076 97.1417 86.231 96.0098 86.231C94.8779 86.231 94.4663 85.9222 94.775 84.79Z" fill="#F5F5F1"/>
<path d="M119.78 45.6782C118.236 46.2958 117.31 45.3694 116.281 44.546C117.722 44.3402 118.957 44.649 119.78 45.6782Z" fill="#BED8FA"/>
<path d="M114.328 46.8105C115.151 46.8105 116.077 46.8105 116.901 46.8105C117.209 46.8105 117.415 46.8105 117.415 47.2222C117.415 47.6339 117.106 47.531 116.901 47.531C116.077 47.4281 115.151 47.3252 114.328 47.2222C114.328 47.1193 114.328 47.0164 114.328 46.9135V46.8105Z" fill="#CEC8C8"/>
<path d="M116.795 45.7816C115.869 45.7816 115.252 45.7816 114.737 45.7816C114.531 45.7816 114.326 45.7816 114.223 45.5757C114.223 45.2669 114.326 45.164 114.634 45.0611C115.355 44.8552 115.972 45.0611 116.795 45.6786V45.7816Z" fill="#BED8FA"/>
<path d="M107.641 61.8374C107.641 60.8081 108.464 60.0877 108.978 59.3672C109.184 59.3672 109.493 59.3672 109.596 59.676C108.875 59.8818 108.875 60.8081 108.361 61.2198C108.155 61.4257 108.155 62.0432 107.641 61.8374Z" fill="#141111"/>
<path d="M120.707 75.6295C121.222 75.3208 121.633 75.3208 122.148 75.6295C121.633 75.6295 121.119 75.6295 120.707 75.6295Z" fill="#BED8FA"/>
<path d="M123.176 75.5264C123.176 75.4235 123.382 75.4235 123.382 75.5264H123.176Z" fill="#BED8FA"/>
<path d="M41.6823 80.8787C41.4765 80.8787 41.4766 80.7758 41.4766 80.6729C41.4766 80.6729 41.5794 80.6729 41.6823 80.6729V80.8787Z" fill="#141111"/>
<path d="M40.4467 89.0099C40.6525 88.5982 40.6525 88.1865 40.5496 87.7748C40.2409 85.9221 40.138 83.9666 41.7844 82.5256C42.2988 82.1139 41.7844 81.7022 41.7844 81.2905C42.4017 81.7022 43.122 81.5993 43.9452 81.5993C47.0322 81.3935 50.0162 83.349 48.7814 87.6719C48.4727 88.8041 48.7815 89.3187 49.7076 89.7304C50.1191 89.8333 50.222 90.0391 50.1191 90.4508C49.6046 90.4508 49.0901 90.3479 48.7814 89.9362C48.3698 89.4216 48.0611 89.5245 47.5466 89.9362C46.0032 90.7596 47.5467 91.3772 47.6496 92.2006C47.238 92.5093 46.9293 92.2006 46.7235 91.8918C45.9003 90.0391 44.0481 91.0684 42.8133 90.3479C42.5046 90.245 42.4017 90.6567 42.2988 90.9655C42.093 91.2742 42.093 91.7889 41.7844 92.0976C41.4757 91.7889 41.5785 91.4801 41.6814 91.0684C42.1959 89.6274 41.8872 89.1128 40.3438 89.1128L40.4467 89.0099ZM44.6655 82.3198C42.2988 82.3198 41.1669 83.6578 41.1669 86.3339C41.1669 88.3924 42.8133 89.9362 45.18 89.9362C47.3409 89.9362 48.5757 88.2894 48.6786 85.6134C48.6786 83.7607 47.0321 82.3198 44.7684 82.3198H44.6655Z" fill="#141111"/>
<path d="M38.6953 89.936C38.7982 89.936 38.9011 90.1419 39.004 90.2448C38.9011 90.2448 38.7982 90.039 38.6953 89.936Z" fill="#12100D"/>
<path d="M70.9042 54.2212C72.5506 54.2212 74.0941 54.2212 75.7404 54.2212C76.4607 54.2212 76.7694 54.3241 76.7694 55.1475C76.7694 57.5148 76.7694 59.985 76.7694 62.4552C76.7694 63.0727 76.7694 63.7932 76.152 64.3078C75.123 65.1312 73.9912 64.7195 73.8883 63.3815C73.6825 61.8376 73.5796 60.3967 73.168 58.9557C72.8593 58.0294 72.3448 57.5148 71.3158 57.5148C70.2868 57.5148 69.3607 57.3089 68.3317 57.3089C66.8912 57.3089 66.2738 58.0294 66.1709 59.4704C66.1709 60.9113 66.1708 62.4552 66.3766 63.8961C66.3766 64.2049 66.5825 64.6166 66.1709 64.9254C66.068 64.9254 65.8622 64.9254 65.7593 64.9254C65.3477 64.6166 65.5535 64.3078 65.6564 63.8961C65.9651 61.1172 65.6564 58.3382 65.3477 55.5592C65.3477 54.53 65.5535 54.3241 66.4796 54.3241C68.0231 54.3241 69.5665 54.3241 71.0071 54.3241L70.9042 54.2212Z" fill="#5F6060"/>
<path d="M69.8747 64.8226C69.0515 64.8226 68.0225 65.1314 67.4051 64.8226C66.7877 64.4109 67.1993 63.2787 67.0964 62.4553C66.9935 61.529 66.8906 60.6027 66.8906 59.6764C66.8906 58.3383 67.3022 58.0296 68.6399 58.1325C68.9486 58.1325 69.2573 58.1325 69.4631 58.1325C72.2413 58.2354 72.2414 58.2354 72.653 61.0144C72.8588 61.9407 72.8587 62.97 73.0645 63.8963C73.0645 64.5138 73.0646 64.8226 72.3443 64.8226C71.5211 64.8226 70.6979 64.8226 69.8747 64.8226Z" fill="#CEC8C8"/>
<path d="M61.7442 59.4703C61.7442 60.9113 61.7442 62.4552 61.7442 63.8961C61.7442 64.2049 62.2588 64.7195 61.4356 64.8224C60.8182 64.8224 60.6124 64.5137 60.5095 63.999C60.3037 62.8669 60.2008 61.7347 59.995 60.6025C59.5834 58.2352 58.966 57.7206 56.5993 57.6177C55.879 57.6177 55.4674 57.4118 55.5703 56.6914C55.5703 56.4855 55.5703 56.2797 55.5703 56.0738C55.6732 54.427 55.6733 54.427 57.4226 54.427C58.4515 54.427 59.3776 54.427 60.4066 54.2212C61.3327 54.1182 61.8471 54.3241 61.7442 55.4563C61.7442 56.7943 61.7442 58.1323 61.7442 59.4703Z" fill="#5F6060"/>
<path d="M55.7777 60.3969C55.7777 60.1911 55.7777 60.0882 55.7777 59.8823C55.9835 59.3677 55.2633 58.5443 56.1893 58.2355C57.1154 57.9267 58.6589 58.6472 58.9676 59.3677C59.585 61.0145 59.585 62.7642 59.7908 64.411C59.7908 64.6169 59.7908 64.7198 59.585 64.8227C58.4531 65.5432 56.1893 64.5139 55.9835 63.1759C55.8806 62.2496 55.7777 61.3233 55.7777 60.3969Z" fill="#CEC8C8"/>
<path d="M47.1353 53.7065C48.6787 53.7065 50.2222 53.7065 51.6628 53.7065C52.2802 53.7065 52.5888 53.9124 52.4859 54.5299C52.383 57.4118 52.2802 60.2937 52.1773 63.1756C52.1773 64.2049 51.457 64.3078 50.7367 64.5137C49.7077 64.7195 50.0164 63.7932 49.8106 63.3815C49.5019 62.3522 49.399 61.4259 49.0903 60.3967C48.4729 58.0294 47.7526 57.3089 45.283 57.206C44.2541 57.206 43.328 57.206 42.299 57.206C41.0642 57.206 40.5497 57.7206 40.5497 58.9557C40.5497 60.4996 40.8585 62.1464 40.9614 63.6903C40.9614 64.102 41.27 64.7195 40.5497 64.7195C39.8294 64.7195 40.0353 64.2049 39.9324 63.7932C39.5208 60.8084 39.9324 57.7206 39.7266 54.6329C39.7266 54.0153 40.0352 53.9124 40.5497 53.9124C42.7106 53.7065 44.7686 53.7065 46.9295 53.7065H47.1353Z" fill="#5F6060"/>
<path d="M45.3846 64.6164C44.6643 64.6164 43.944 64.5135 43.3266 64.6164C42.0918 64.9252 41.9889 64.3076 41.9889 63.3813C41.9889 62.0433 41.6802 60.7052 41.5773 59.3672C41.4744 58.338 41.7831 57.9263 42.8121 57.9263C43.944 57.9263 44.973 58.0292 46.1049 58.1321C47.4426 58.1321 48.0599 58.9555 48.3686 60.1906C48.6773 61.4257 48.7802 62.6608 49.0889 63.8959C49.1918 64.4105 49.0889 64.6164 48.4715 64.6164C47.4426 64.6164 46.4136 64.6164 45.3846 64.6164Z" fill="#CEC8C8"/>
<path d="M37.2575 59.6763C37.2575 61.2202 37.2575 62.764 37.2575 64.205C37.2575 64.6167 37.2575 64.9255 36.743 65.0284C36.2285 65.0284 36.0227 64.8225 35.9198 64.4108C35.6111 63.0728 35.9198 61.7348 35.5082 60.3968C35.3024 59.8821 35.3024 59.2646 35.0967 58.75C34.788 57.7207 34.0677 57.2061 33.0387 57.2061C32.73 57.2061 32.4213 57.2061 32.2155 57.2061C30.3633 57.2061 30.3633 57.2061 30.3633 55.3535C30.3633 54.3242 30.672 53.9125 31.701 54.1184C33.2445 54.3242 34.8908 54.4271 36.4343 54.3242C37.1546 54.3242 37.2575 54.633 37.2575 55.2505C37.2575 56.7944 37.2575 58.3383 37.2575 59.7792V59.6763Z" fill="#5F6060"/>
<path d="M31.2885 57.6175C31.4943 57.6175 31.7001 57.6175 31.803 57.6175C33.9639 57.8233 34.1697 57.9263 34.5813 59.9848C34.89 61.4257 34.8899 62.8667 34.9928 64.4105C34.9928 64.8222 34.8899 65.0281 34.4783 65.0281C33.4494 65.0281 32.4204 65.0281 31.3914 64.7193C30.6711 64.5135 30.3624 63.9988 30.2595 63.3813C29.9508 61.6316 29.9508 59.8818 30.0537 58.1321C30.0537 56.9999 30.877 57.8233 31.1856 57.6175H31.2885Z" fill="#CEC8C8"/>
<path d="M103.628 49.0749C103.628 51.0305 103.628 52.5743 103.628 54.1182C103.628 57.103 103.833 59.9849 103.422 62.9698C103.319 63.8961 102.907 64.2049 101.981 64.2049C99.7175 64.2049 99.7175 64.2049 99.3059 62.1464C99.1001 61.22 98.9972 60.2937 98.8943 59.3674C98.6885 57.9264 98.174 57.4118 96.7334 57.4118C95.9102 57.4118 95.6016 57.206 95.6016 56.2796C95.6016 54.2211 95.6016 52.2656 95.6016 50.2071C95.6016 48.5603 95.8073 48.4574 97.4537 48.4574C97.9682 48.4574 98.4827 48.4574 98.8943 48.4574C99.4088 48.4574 99.8204 48.2515 100.438 48.4574C99.3059 50.5159 97.7624 52.2656 97.145 54.5299C98.2769 53.3977 98.8943 51.9568 99.7175 50.7217C100.026 50.2071 100.335 49.7954 100.644 49.2808C101.158 48.2515 101.878 48.1486 103.01 48.4574C101.878 50.4129 100.849 52.2656 99.7175 54.2211C101.364 52.986 102.084 51.0305 103.422 49.1778L103.628 49.0749Z" fill="#5F6060"/>
<path d="M95.7016 60.1908C95.7016 59.882 95.7016 59.5733 95.7016 59.3674C95.9074 58.9557 95.2901 58.1323 96.2161 58.1323C96.9364 58.1323 97.8625 58.1323 97.9654 59.1616C98.1712 60.4996 98.3771 61.7347 98.5829 63.0727C98.5829 63.4844 99.0973 64.2049 98.2741 64.4107C97.5538 64.6166 96.7306 64.6166 96.2161 63.7932C95.8045 62.9698 95.8045 62.1464 95.7016 61.323C95.7016 60.9113 95.7016 60.6025 95.7016 60.1908Z" fill="#CEC8C8"/>
<path d="M92.2022 63.7929C92.0993 67.2924 92.0993 70.8947 92.2022 74.3942C92.2022 75.8351 91.8935 76.3498 90.4529 76.3498C88.292 76.3498 86.1311 76.3498 84.0732 76.3498C82.3239 76.3498 81.5007 75.5264 81.5007 73.8796C81.5007 67.2924 80.7804 60.7052 80.9862 54.0151C80.9862 53.8092 80.9862 53.5004 80.9862 53.2946C81.0891 50.8244 81.5007 50.5156 83.9703 50.5156C85.8225 50.5156 87.7775 50.5156 89.6297 50.5156C91.2761 50.5156 91.9964 51.2361 91.9964 52.78C92.0993 56.4853 92.408 60.1906 92.2022 63.8959V63.7929ZM82.6326 51.7507C82.0152 51.9566 82.221 52.5741 82.1181 52.9858C81.7065 56.6911 82.1181 60.4993 82.1181 64.2046C82.221 67.3953 82.4268 70.586 82.5297 73.7766C82.5297 74.703 83.0442 75.2176 83.9703 75.2176C86.0283 75.2176 88.1891 75.2176 90.2471 75.2176C90.9674 75.2176 91.1732 74.9088 91.1732 74.2913C91.1732 73.9825 91.2761 73.7766 91.2761 73.4679C91.3789 66.7778 91.2761 60.1906 90.9674 53.5004C90.9674 53.0887 90.8645 52.78 90.7616 52.3683C90.7616 52.1624 90.7616 51.8536 90.4529 51.7507C90.1442 51.7507 90.1442 52.0595 89.9384 52.2653C89.5268 53.0887 89.2181 54.0151 88.292 54.7355C88.292 53.2946 89.321 52.4712 89.5268 51.339C88.3949 50.9273 87.7775 51.339 87.263 52.3683C86.6457 53.3975 86.234 54.5297 85.1021 55.6619C85.1021 53.7063 86.5427 52.78 86.9543 51.2361C85.4108 51.5449 83.8674 50.8244 82.5297 51.8537L82.6326 51.7507Z" fill="#12100D"/>
<path d="M15.9552 61.5288C16.161 59.2645 15.9552 55.7651 15.9552 52.2656C15.9552 50.7217 16.5727 50.2071 18.1161 50.0013C20.3799 49.7954 22.6437 49.6925 24.9074 49.8983C26.1422 50.0013 26.8625 50.7217 26.9654 51.9568C27.0683 54.1183 27.377 56.1768 27.2741 58.3382C27.2741 63.7932 27.5828 69.1453 27.1712 74.6003C27.0683 76.1442 26.5538 76.5559 25.0104 76.5559C23.2611 76.5559 21.6147 76.7617 19.8654 76.8647C17.1901 77.0705 16.264 76.2471 16.0582 73.571C15.9553 69.9687 15.7494 66.3663 15.9552 61.5288ZM25.5248 51.4422C25.5248 50.7217 24.9075 50.9276 24.4959 50.9276C22.7466 50.7217 20.9973 50.9276 19.248 50.9276C17.2929 51.1334 16.8813 51.5451 16.8813 53.6036C16.8813 58.4411 16.8813 63.1756 16.9842 68.0131C16.9842 70.1745 16.9843 72.336 17.293 74.4974C17.3959 75.3208 17.7045 75.6295 18.5277 75.6295C20.7915 75.6295 23.0553 75.6296 25.319 75.5266C26.0393 75.5266 26.2451 75.2179 26.0393 74.4974C26.348 73.674 26.4509 72.7476 26.348 71.8213C26.348 69.2482 26.0393 66.778 26.2451 64.2049C26.5538 60.4996 26.0393 56.8972 26.1422 53.1919C26.1422 52.5744 26.348 51.751 25.5248 51.4422Z" fill="#141111"/>
<path d="M26.1449 77.585C26.968 77.6879 27.1738 78.3054 27.2767 78.923C27.2767 79.6435 26.8652 80.261 26.1449 80.261C25.4246 80.261 25.2188 79.5405 25.2188 78.923C25.2188 78.2025 25.6303 77.7908 26.2477 77.585H26.1449ZM26.2477 79.6435C26.4535 79.4376 26.7623 79.2318 26.6594 78.8201C26.6594 78.5113 26.4536 78.0996 26.042 78.2025C25.7333 78.2025 25.6303 78.6142 25.7332 78.923C25.7332 79.2318 25.7332 79.5405 26.2477 79.6435Z" fill="#141111"/>
<path d="M107.844 56.1766C108.05 55.559 108.461 55.0444 108.873 54.5298C108.873 55.2503 108.461 55.8678 108.049 56.3824C108.049 56.3824 107.947 56.2795 107.844 56.1766Z" fill="#141111"/>
<path d="M109.284 53.9121C109.284 53.9121 109.284 54.015 109.284 54.118C109.181 53.9121 109.284 54.015 109.284 53.9121Z" fill="#141111"/>
<path d="M107.844 56.1768C107.844 56.1768 107.947 56.2797 108.049 56.3826C107.844 56.3826 107.844 56.3826 107.844 56.1768Z" fill="#12100D"/>
<path d="M111.652 87.1573C112.27 87.0544 112.784 86.9515 113.505 86.7456C112.887 87.6719 112.27 87.569 111.755 87.4661C111.755 87.3632 111.755 87.2602 111.755 87.1573H111.652Z" fill="#141111"/>
<path d="M103.624 81.3935C103.212 81.1877 103.109 80.8789 103.109 80.3643C103.418 80.5701 103.727 80.8789 103.624 81.3935Z" fill="#12100D"/>
<path d="M50.0156 87.3628C50.5301 87.054 51.1475 86.8481 51.7649 86.8481C51.3533 87.7745 50.633 87.5686 50.0156 87.3628Z" fill="#141111"/>
<path d="M41.9884 81.393C41.7826 81.393 41.6797 81.0843 41.7826 80.8784C41.9883 80.8784 42.0913 81.1872 41.9884 81.393Z" fill="#141111"/>
<path d="M108.357 86.1277C108.357 87.3628 107.431 88.2892 106.299 88.1862C105.168 88.1862 104.139 86.8482 104.241 85.716C104.241 84.4809 105.065 83.9663 106.505 83.9663C107.534 83.9663 108.46 84.8926 108.357 86.1277ZM105.991 84.5839C105.27 84.5839 104.756 84.9956 104.653 85.716C104.653 86.4365 105.373 87.4658 106.197 87.5687C107.123 87.5687 107.637 87.157 107.843 86.2307C108.049 85.4073 107.123 84.6868 106.094 84.5839H105.991Z" fill="#141111"/>
<path d="M106.612 91.8916C106.612 92.2004 106.612 92.7151 106.303 92.7151C105.788 92.7151 105.891 92.0975 105.891 91.7887C105.891 91.48 105.891 90.9653 106.2 90.9653C106.714 90.9653 106.509 91.5829 106.509 91.8916H106.612Z" fill="#141111"/>
<path d="M44.6639 82.3193C46.9277 82.3193 48.5741 83.7603 48.5741 85.6129C48.5741 88.289 47.2364 89.9358 45.0756 89.9358C42.8118 89.9358 41.0625 88.3919 41.0625 86.3334C41.0625 83.6574 42.1944 82.3193 44.5611 82.3193H44.6639ZM44.5611 84.0691C43.1205 84.0691 42.4002 84.7895 42.4002 86.0246C42.4002 87.2597 43.5321 88.289 44.6639 88.289C45.7958 88.289 46.8248 87.1568 46.8248 86.0246C46.8248 84.9954 45.693 84.0691 44.5611 84.0691Z" fill="#5F6060"/>
<path d="M82.6328 51.7509C83.9705 50.7216 85.514 51.4421 87.0574 51.1333C86.5429 52.6772 85.2053 53.7065 85.2053 55.5591C86.3372 54.5299 86.8516 53.2947 87.3661 52.2655C87.8806 51.3392 88.498 50.8246 89.6299 51.2363C89.4241 52.3684 88.2922 53.1918 88.3951 54.6328C89.2183 53.9123 89.527 52.986 90.0415 52.1626C90.1444 51.9567 90.2473 51.648 90.5559 51.648C90.8646 51.648 90.7618 52.0597 90.8647 52.2655C90.8647 52.6772 91.0704 52.986 91.0704 53.3977C91.2762 60.0878 91.4821 66.675 91.3792 73.3651C91.3792 73.6739 91.3791 73.8797 91.2763 74.1885C90.9676 74.0856 90.556 73.9826 90.2473 74.0856C88.3951 74.4973 86.44 74.2914 84.5878 74.3943C83.7647 74.3943 83.5589 74.0856 83.5589 73.3651C83.5589 71.8212 83.3531 70.3803 83.3531 68.8364C83.3531 64.2048 83.3531 59.5732 83.3531 54.9416C83.3531 53.9123 83.3531 52.7801 82.9415 51.7509H82.6328Z" fill="#5F6060"/>
<path d="M82.6338 51.7509C82.9424 52.7801 83.0453 53.8094 83.0453 54.9415C83.0453 59.5732 83.0453 64.2048 83.0453 68.8364C83.0453 70.3803 83.2511 71.8212 83.2511 73.3651C83.2511 74.1885 83.4569 74.4973 84.2801 74.3943C86.1323 74.3943 88.0873 74.4973 89.9395 74.0856C90.3511 74.0856 90.6598 74.0856 90.9685 74.1885C90.9685 74.806 90.7627 75.2177 90.0424 75.1148C87.9844 75.1148 85.8236 75.1148 83.7656 75.1148C82.8395 75.1148 82.325 74.6002 82.325 73.6739C82.2221 70.4832 82.0163 67.2925 81.9134 64.1019C81.8106 60.3966 81.399 56.6913 81.9134 52.8831C81.9134 52.3684 81.9134 51.8538 82.4279 51.6479L82.6338 51.7509Z" fill="#F5F5F1"/>
<path d="M25.526 51.4424C26.3492 51.8541 26.1433 52.5746 26.1433 53.1921C26.1433 56.8974 26.5549 60.4998 26.2462 64.2051C26.0404 66.6753 26.2463 69.2484 26.3492 71.8215C26.3492 72.7478 26.3492 73.5712 26.0405 74.4976C23.7767 74.4976 21.41 74.6005 19.1463 74.4976C18.5289 74.4976 18.3231 74.2917 18.3231 73.7771C18.3231 72.8508 18.2202 72.0274 18.7346 71.204C19.9694 68.9396 21.3071 66.6753 22.5419 64.5138C22.9535 63.8963 23.2622 63.1758 23.3651 62.3524C21.2042 64.5138 19.7636 67.2928 18.2202 70.0718C17.9115 68.7338 18.1172 67.7045 18.5288 66.6753C19.8665 63.6904 21.5129 60.9115 22.8506 58.0296C23.0564 57.7208 23.3651 57.3091 23.0564 56.6915C20.9984 59.4705 19.5579 62.3524 17.8086 65.5431C17.8086 64.6168 17.8086 64.1021 17.8086 63.5875C17.8086 60.4998 17.8086 57.412 17.8086 54.3243C17.8086 52.4716 17.8086 52.5746 19.6608 52.2658C21.6158 51.957 23.6738 52.2658 25.6289 51.5453L25.526 51.4424Z" fill="#5F6060"/>
<path d="M25.5276 51.4422C23.5726 52.0598 21.5145 51.8539 19.5595 52.1627C17.7073 52.4715 17.7073 52.3686 17.7073 54.2212C17.7073 57.309 17.7073 60.3967 17.7073 63.4845C17.7073 63.9991 17.7073 64.5137 17.7073 65.44C19.5595 62.3523 21.0001 59.3675 22.9552 56.5885C23.2639 57.206 22.9551 57.6177 22.7494 57.9265C21.4117 60.9113 19.6624 63.6903 18.4276 66.5722C18.016 67.6015 17.8102 68.6307 18.1189 69.9687C19.7653 67.1897 21.103 64.5137 23.2638 62.2494C23.2638 63.0728 22.8523 63.6903 22.4407 64.4108C21.103 66.6751 19.8682 68.8365 18.6334 71.1009C18.1189 72.0272 18.2218 72.8506 18.2218 73.674C18.2218 74.1886 18.5305 74.3945 19.045 74.3945C21.3087 74.4974 23.6754 74.3945 25.9392 74.3945C26.145 75.115 25.9392 75.3208 25.2189 75.4237C22.9551 75.5267 20.6914 75.6296 18.4276 75.5267C17.6044 75.5267 17.2957 75.2179 17.1928 74.3945C16.8841 72.2331 16.987 70.0716 16.8841 67.9102C16.8841 63.0727 16.8841 58.3382 16.7812 53.5007C16.7812 51.4422 17.1928 51.0306 19.1479 50.8247C20.8972 50.7218 22.6464 50.5159 24.3957 50.8247C24.8073 50.8247 25.4247 50.6189 25.4247 51.3393L25.5276 51.4422Z" fill="#F5F5F1"/>
<path d="M26.245 79.6436C25.8334 79.6436 25.7305 79.2319 25.7305 78.9231C25.7305 78.6143 25.7305 78.3056 26.0392 78.2026C26.4508 78.2026 26.5537 78.5114 26.6566 78.8202C26.6566 79.2319 26.4508 79.4377 26.245 79.6436Z" fill="#CEC8C8"/>
<path d="M105.992 84.5839C107.124 84.6868 107.947 85.4073 107.742 86.2307C107.536 87.0541 107.021 87.6717 106.095 87.5687C105.272 87.5687 104.449 86.5395 104.552 85.7161C104.552 84.9956 105.272 84.481 105.889 84.5839H105.992Z" fill="#F5F5F1"/>
<path d="M44.5633 84.0693C45.6951 84.0693 46.827 84.9957 46.827 86.0249C46.827 87.1571 45.798 88.2892 44.6661 88.2892C43.5342 88.2892 42.4023 87.26 42.4023 86.0249C42.4023 84.7898 43.1227 84.0693 44.5633 84.0693ZM44.0488 84.584C43.4314 84.6869 42.9168 85.0986 42.9168 85.8191C42.9168 86.5395 43.7401 87.4658 44.5633 87.4658C45.4893 87.4658 46.0038 86.9512 46.1067 86.0249C46.1067 85.3044 45.1806 84.481 44.0488 84.481V84.584Z" fill="#141111"/>
<path d="M44.046 84.584C45.075 84.584 46.104 85.3045 46.104 86.1279C46.104 86.9513 45.4866 87.5688 44.5605 87.5688C43.7373 87.5688 42.9141 86.6425 42.9141 85.922C42.9141 85.2015 43.4286 84.7898 44.046 84.6869V84.584Z" fill="#F5F5F1"/>
</svg>
