<svg width="195" height="206" viewBox="0 0 195 206" fill="none" xmlns="http://www.w3.org/2000/svg">
<g filter="url(#filter0_d_2637_15924)">
<circle cx="95" cy="111" r="90" fill="#76B72A"/>
</g>
<path d="M105.374 184.769C98.0446 184.32 90.8644 183.871 83.5347 183.572C81.8892 183.572 81.1413 184.32 81.1413 185.966C81.1413 186.863 81.2909 187.611 81.4405 188.509C81.59 190.155 82.4875 190.903 84.133 190.903C90.266 191.202 96.2495 191.501 102.383 191.801C111.059 192.249 119.884 191.801 128.56 191.801C129.757 191.801 130.505 191.202 130.355 190.005C130.355 188.509 129.906 187.013 129.159 185.816C128.71 185.068 128.111 184.918 127.364 184.918C119.884 184.918 112.554 184.918 105.075 184.918L105.374 184.769Z" fill="#FEFEFE"/>
<path d="M114.35 0.149611C115.846 0.897661 117.192 1.94493 117.791 3.59064C117.94 4.03947 118.24 4.18908 118.838 4.33869C136.19 6.28363 151.897 12.268 165.21 23.788C172.839 30.3709 179.57 37.5521 184.357 46.5288C188.695 54.6077 190.939 63.1355 191.986 72.2617C192.434 76.002 192.435 79.8918 193.93 83.4825C194.23 84.2305 194.379 85.1282 193.93 85.8762C193.482 86.4747 193.93 86.9235 194.08 87.3723C195.127 89.1676 195.127 90.963 194.828 92.9079V93.2071C192.734 94.5536 193.482 96.3489 193.93 98.2939C194.23 99.9396 193.631 101.286 192.435 102.483C192.135 102.782 191.537 102.932 191.687 103.53C192.435 107.27 191.537 110.712 190.49 114.302C185.853 129.712 177.027 142.429 165.21 153.201C155.337 162.177 143.669 167.563 131.104 171.304C126.916 172.5 122.727 173.697 118.389 173.847C117.94 173.847 117.641 173.847 117.342 174.296C115.846 176.54 113.902 176.241 111.807 175.642C111.508 175.642 111.059 175.044 110.76 175.642C108.816 177.587 106.871 176.69 105.076 175.642C104.328 175.193 103.879 175.044 103.131 175.642C101.486 176.69 98.9429 176.091 97.447 174.445C96.9983 173.847 96.5495 173.548 95.652 173.398C79.3471 171.154 65.7347 163.823 53.319 153.201C38.9587 140.933 31.0306 125.224 27.2909 107.121C26.8422 104.727 26.2438 102.483 25.4959 100.089C24.5983 97.5458 24.4488 94.8528 26.8422 92.4591C25.4959 92.1599 24.7479 91.1126 24 90.0653V87.5219C24.7479 86.4747 25.9446 85.1282 25.4959 84.0809C24.8975 82.4352 25.3463 81.0887 25.7951 79.5926C25.9446 79.1438 26.2438 78.6949 25.9447 78.2461C25.4959 76.8996 25.6455 75.4035 25.6455 74.057C25.9446 66.2773 28.0389 59.096 31.0306 51.9147C35.5182 41.5916 41.2025 32.1662 50.0281 24.9849C62.5934 14.8114 76.6545 7.48051 92.5107 3.74025C94.9041 3.14181 97.447 2.84259 99.8404 2.09454C101.336 1.64571 102.533 1.19688 104.029 1.94493C104.328 2.09454 104.627 2.09454 104.926 1.94493C107.469 0.14961 108.367 0.299221 110.76 1.94493C111.957 3.88986 112.555 5.98441 112.555 8.22856C112.555 10.4727 112.854 10.6223 115.397 10.4727C115.996 10.4727 116.893 10.9215 116.744 10.1735C116.445 7.48051 116.594 4.4883 114.201 2.39376C113.303 1.64571 111.957 2.84259 111.059 1.79532C110.76 0.59844 112.106 0.748051 112.406 0H114.5L114.35 0.149611ZM27.8893 80.7895C26.9917 82.136 27.4405 82.884 28.9364 83.0336C29.5347 83.0336 30.2826 83.1832 30.881 83.4825C32.2273 84.0809 32.2273 83.1832 32.2273 82.2856C32.2273 81.5375 32.3769 80.9391 32.5265 80.191C32.5265 79.8918 32.5264 79.5926 32.2273 79.2934C30.5818 78.3957 28.9364 78.9941 28.0389 80.7895H27.8893ZM107.021 174.146C108.217 174.595 108.516 173.697 108.666 172.8C108.816 171.304 108.816 169.808 109.115 168.461C109.264 166.965 108.816 166.366 107.32 166.666C106.422 166.217 105.824 166.366 105.824 167.563C105.824 168.76 105.375 169.808 105.226 171.004C104.777 173.249 104.926 173.398 107.17 174.146H107.021ZM108.816 10.1735H110.611C110.311 8.52778 110.012 7.03168 109.564 5.38597C109.264 4.33869 108.965 3.14181 107.768 2.69298C105.824 2.69298 105.525 2.9922 105.824 4.63792C105.973 5.98441 106.422 7.18129 106.422 8.52778C106.422 10.0239 107.32 10.4727 108.666 10.0239L108.816 10.1735ZM190.639 97.5458C189.592 96.4985 188.246 96.1993 186.9 96.3489C186.301 96.3489 186.301 97.6954 186.301 98.4435C185.553 101.585 185.703 101.735 188.844 100.987H189.144C190.939 100.388 191.387 99.4907 190.49 97.5458H190.639ZM190.34 81.5375C189.892 80.0414 188.844 79.5926 187.498 79.8918C185.853 80.3406 186.9 81.5375 186.75 82.4352C186.451 83.3328 186.75 84.0809 186.75 84.8289C186.75 85.2778 186.9 85.577 187.498 85.577C190.789 85.7266 191.687 84.3801 190.34 81.5375ZM113.602 166.516C111.957 166.366 111.209 166.815 111.508 168.611C111.658 169.808 111.508 171.004 111.508 172.201C111.508 173.548 111.957 174.146 113.154 173.997C114.35 174.296 114.949 173.548 114.949 172.351C114.949 171.004 114.949 169.508 115.397 168.162C115.697 166.366 114.949 166.217 113.602 166.516ZM26.6926 87.3723C25.7951 89.4669 25.9447 89.9157 28.1885 90.2149C32.0777 90.8134 31.9281 91.711 31.7785 87.3723C31.7785 86.9235 32.0777 86.325 31.1802 86.1754C30.2827 86.1754 29.3851 86.0258 28.4876 85.8762C27.4405 85.8762 26.8422 86.1754 26.6926 87.3723ZM192.135 89.7661C191.687 87.5219 189.892 88.4196 188.695 88.27C186.9 87.9708 186.75 88.8684 187.049 90.2149C187.049 90.963 187.049 91.711 186.9 92.4591C186.9 92.7583 186.9 93.3567 187.349 93.3567C188.994 93.3567 190.639 93.5063 191.986 92.7583C193.033 92.1598 192.434 90.8134 192.285 89.7661H192.135ZM99.99 166.067C99.3917 166.217 98.4941 165.02 98.3445 166.366C98.0454 168.012 97.8958 169.658 98.0454 171.304C98.0454 172.65 98.7933 173.697 100.289 173.847C101.635 174.146 102.084 173.249 102.383 172.351C102.683 171.603 102.683 170.705 102.832 169.957C103.231 167.563 102.284 166.317 99.99 166.217V166.067ZM102.533 10.6223C103.281 10.6223 104.627 11.2208 104.478 10.0239C104.178 8.07895 104.478 5.83479 102.982 4.03947C102.383 3.14181 101.635 3.44103 100.888 3.74025C99.99 4.03947 100.289 4.78753 100.289 5.38597C100.289 6.58285 100.289 7.92934 100.289 9.12622C99.99 10.6223 100.289 11.3704 101.935 10.7719C102.084 10.7719 102.383 10.7719 102.683 10.6223H102.533ZM27.2909 97.9946C27.4405 100.089 28.0389 100.538 31.3298 101.136C32.8256 101.436 33.424 101.136 32.676 99.6404C32.5265 97.9946 32.3768 96.3489 32.2273 94.7032C32.2273 94.404 32.2273 94.1048 31.7785 93.9552C29.2355 93.3567 26.9918 95.4513 27.4405 97.9946H27.2909ZM95.9511 166.666C96.2503 165.768 96.2503 165.469 95.0536 165.17C77.2528 161.579 62.4438 152.902 50.4768 139.137C41.9504 129.263 36.5653 117.893 33.8727 105.176C33.424 103.381 32.8256 103.081 31.1802 103.53C30.1331 103.53 29.086 103.53 27.8893 103.53C28.1884 105.176 28.6372 106.522 28.9364 108.019C33.7232 131.657 47.1859 149.012 67.6793 161.429C75.757 166.217 84.433 169.508 93.7074 171.304C95.0536 171.603 95.9511 171.453 95.8016 169.658C95.8016 168.76 95.8016 167.863 95.9511 166.965V166.666ZM97.8958 9.27583C98.3446 8.22856 97.8958 7.18129 98.1949 6.13402C98.1949 4.93714 97.8958 4.78752 96.6991 5.08674C83.2363 7.92934 70.9702 13.6145 59.452 21.095C49.5793 27.5283 41.6512 35.6072 36.2661 46.2295C31.9281 54.9069 28.4876 63.8835 27.8893 73.7578C27.7397 76.4508 27.8893 76.4508 30.4322 76.3012C32.8256 77.0492 32.8256 76.8996 33.424 74.3562C35.5182 63.4347 39.557 53.4108 45.9892 44.135C52.8702 34.1111 61.6958 26.1818 72.3165 20.1974C79.7958 16.0083 87.7239 13.0161 96.2503 11.8192C97.7462 11.52 98.4941 10.9215 98.1949 9.42544L97.8958 9.27583ZM117.791 168.162C117.791 168.76 117.641 169.209 117.641 169.808C117.492 172.949 117.492 172.949 120.633 172.351C126.616 171.304 132.151 169.359 137.686 167.264C154.739 160.98 168.052 149.909 178.074 134.948C184.357 125.673 188.545 115.499 190.041 104.278V103.979C190.041 103.979 189.742 103.979 189.592 103.979C188.844 104.129 187.947 104.428 187.199 104.577C185.404 103.979 184.806 104.877 184.506 106.522C181.365 120.735 174.484 133.153 164.312 143.476C151.896 156.193 136.639 163.673 118.987 166.067C117.192 166.366 117.043 166.815 117.492 168.311L117.791 168.162ZM187.797 77.1988C188.844 77.1988 189.891 77.6477 191.238 77.9469C190.639 70.7656 189.443 63.8835 187.049 57.3007C182.711 45.4815 175.531 35.6072 166.257 27.0794C153.542 15.4098 138.434 9.12622 121.68 6.13402C118.688 5.53558 118.688 5.68518 119.137 8.67739C118.688 10.4727 119.586 11.0711 121.381 11.2208C130.506 12.4176 139.182 15.5595 147.259 20.0478C159.675 27.0794 169.548 36.8041 176.578 49.2217C181.365 57.4503 184.506 66.2773 185.853 75.8523C186.152 77.4981 186.601 77.6477 187.797 77.0492V77.1988ZM118.09 162.626C130.206 161.429 141.126 157.091 150.999 150.358C161.919 142.878 170.296 133.003 175.98 121.035C180.617 111.16 183.011 100.837 183.31 89.9157C183.459 81.3879 182.263 73.0098 179.57 64.9308C176.13 54.3085 170.445 45.0327 162.816 36.9537C159.077 32.9142 154.888 29.3236 150.251 26.3314C148.755 25.4337 147.409 24.3865 145.913 23.6384C136.938 18.402 127.065 15.4098 116.744 14.213C110.461 13.6145 104.178 13.7641 98.0454 14.8114C89.2197 16.1579 80.9925 19.0005 73.3636 23.3392C61.0975 30.3709 51.6736 39.9459 44.7926 52.3635C39.8562 61.1905 37.014 70.7656 35.9669 80.7895C35.219 87.3723 35.5182 93.8055 36.5653 100.388C38.3603 112.058 42.6983 122.531 49.5793 132.106C57.9562 143.925 68.876 152.453 82.3388 157.988C90.2668 161.28 98.4941 162.776 107.021 163.225C110.76 163.374 114.5 163.225 118.24 162.626H118.09Z" fill="#07090A"/>
<path d="M105.374 184.769C112.854 184.769 120.184 184.769 127.663 184.769C128.411 184.769 129.009 185.068 129.458 185.666C130.206 187.013 130.505 188.359 130.655 189.855C130.655 191.202 129.907 191.8 128.86 191.651C120.184 191.651 111.358 191.95 102.682 191.651C96.5489 191.352 90.5655 191.052 84.4325 190.753C82.787 190.753 81.8895 190.005 81.7399 188.359C81.7399 187.462 81.4407 186.714 81.4407 185.816C81.4407 184.32 82.1886 183.422 83.8341 183.422C91.1638 183.721 98.344 184.17 105.674 184.619L105.374 184.769ZM129.308 189.855C128.86 188.958 128.411 188.06 127.962 187.163C127.663 186.414 127.214 186.414 126.616 186.265C117.491 186.115 108.516 185.816 99.3911 185.666C98.9424 185.666 98.4936 185.367 98.4936 186.265C98.4936 187.761 96.8481 187.911 95.9506 188.808C95.9506 188.808 95.6514 188.808 95.5019 188.808C95.2027 188.509 95.5019 188.21 95.5019 188.06C95.9506 187.312 96.549 186.714 96.9977 185.966C92.5101 185.666 88.0225 185.517 83.5349 185.218C83.3853 185.218 82.9366 185.218 82.9366 185.218C82.9366 186.265 82.9366 187.163 83.2357 188.21C83.3853 188.958 83.9837 188.958 84.582 188.958C91.3134 189.407 98.0448 189.855 104.776 190.304C112.854 190.903 120.932 190.903 129.159 189.855H129.308Z" fill="#131313"/>
<path d="M150.251 26.3314C154.888 29.3236 159.077 32.9142 162.816 36.9537C170.445 45.0327 175.98 54.4581 179.57 64.9308C182.263 73.0098 183.459 81.3879 183.31 89.9157C183.16 100.837 180.767 111.16 175.98 121.035C170.296 133.003 161.919 142.878 150.999 150.358C141.126 157.24 130.206 161.579 118.09 162.626C114.201 162.626 110.461 162.177 106.571 161.429C97.8952 159.933 89.5184 157.24 82.0391 152.602C80.5432 151.705 78.8977 150.957 78.0002 149.311C78.2994 148.862 78.5986 148.563 78.8977 148.114C80.6928 144.523 82.039 140.783 83.2357 137.043C83.2357 136.744 83.3853 136.444 83.2357 136.145C83.2357 135.547 83.2357 134.799 82.6374 134.649C82.0391 134.649 81.5903 135.098 81.4407 135.547C80.992 136.594 80.5432 137.641 80.244 138.689C79.3465 141.232 78.5986 143.775 77.2523 146.319C75.6068 142.728 74.7093 139.287 73.5126 135.846C73.363 135.248 73.0639 134.35 72.3159 134.649C71.4184 134.948 71.568 135.696 71.8672 136.444C72.4655 138.689 73.0639 140.783 73.6622 143.027C72.9143 143.027 72.7647 142.728 72.4655 142.279C69.773 138.09 67.23 133.901 65.2854 129.413C64.687 127.917 64.2383 126.271 63.0416 124.924C62.892 121.633 62.5928 118.491 62.4432 115.2C62.4432 114.452 62.4432 113.404 61.5457 113.255C60.349 113.255 60.6482 114.302 60.4986 114.901C59.6011 114.452 59.7507 113.404 59.6011 112.656C58.1052 104.877 57.9556 97.2466 59.1523 89.4669C61.0969 77.3485 66.0333 66.5765 72.7647 56.5526C75.4572 52.6628 78.5986 49.3714 81.4407 45.6311C81.4407 45.6311 81.5903 45.4815 81.7399 45.3319C81.8895 45.3319 82.0391 45.0327 81.8895 44.883C82.787 44.883 83.0862 44.135 83.5349 43.6862C87.7234 39.1979 92.3605 35.308 97.7457 32.1662C98.6432 31.7174 99.3911 30.9693 100.438 31.1189C99.6903 33.0638 98.344 34.56 97.8952 36.5049C97.8952 37.1033 97.4465 37.7018 98.0448 38.1506C98.7927 38.5994 99.0919 37.7018 99.3911 37.4025C100.737 35.7568 101.485 33.6623 102.682 31.867C103.58 33.6623 104.178 35.6072 105.375 37.1033C105.674 37.5522 105.973 38.3002 106.571 37.8514C107.17 37.5522 106.87 36.8041 106.571 36.3553C105.973 34.8592 105.225 33.3631 104.627 31.7174C104.327 30.8197 103.43 30.0716 103.879 28.8748C105.375 28.4259 107.02 27.8275 108.516 27.3787C108.516 30.2213 108.516 32.9142 108.516 35.7568C108.516 36.6545 108.516 38.001 109.713 38.001C110.76 38.001 110.46 36.6545 110.76 35.7568C110.76 35.1584 110.76 34.4103 110.76 33.8119C110.76 31.2685 110.909 28.8748 111.059 26.3314L114.051 25.8826C114.051 28.8748 113.901 31.867 113.751 34.8592C113.751 36.056 113.751 37.2529 114.2 38.3002C114.2 38.5994 114.499 39.0483 114.948 39.0483C115.397 39.0483 115.546 38.749 115.696 38.3002C116.145 36.9537 116.294 35.6072 116.294 34.2607C116.294 31.2685 116.294 28.1267 116.294 25.1345C123.624 23.4888 130.954 24.2369 138.284 24.9849C142.173 25.2841 146.062 26.481 150.101 26.1818L150.251 26.3314ZM129.458 59.2456C129.907 57.4503 130.206 55.5054 129.907 53.5604C129.608 51.6155 129.608 49.521 129.458 47.4264C129.458 46.3792 129.458 45.1823 128.261 44.883C127.065 44.5838 125.868 44.5838 124.821 45.7807C122.427 48.4737 119.735 51.0171 117.042 53.4108C116.444 53.8597 115.995 54.4581 115.696 55.0565C115.696 55.5054 115.546 55.9542 115.995 56.403C116.444 56.8519 116.893 56.7023 117.342 56.403C117.94 56.1038 118.538 55.8046 118.987 55.3558C120.483 54.1589 121.829 52.8124 123.175 51.6155C123.175 51.6155 123.175 51.6155 123.325 51.7651C122.727 53.2612 121.979 54.7573 121.38 56.2534C118.239 63.2851 115.247 70.3168 111.657 77.0492C103.43 77.0492 98.344 81.8368 98.6432 89.3173C98.7928 93.3567 102.682 97.6954 106.422 98.1443C109.713 98.4435 112.555 97.5458 115.098 95.6009C116.444 94.5536 117.641 93.3567 118.688 91.8606C119.585 90.6638 120.632 91.2622 121.38 91.8606C122.278 92.4591 121.38 92.9079 120.932 93.3567C120.483 93.9552 119.884 94.7032 119.436 95.3017C119.137 95.7505 118.688 96.3489 118.987 96.9474C119.436 97.6954 120.184 97.5458 120.782 97.2466C122.427 96.7978 123.923 96.1993 124.97 94.8528C125.718 94.8528 126.466 94.8528 126.915 94.2544C129.009 92.1599 131.103 89.9157 132.749 87.3723C133.646 86.0258 133.347 84.9786 131.851 84.3801C130.056 83.4825 128.261 82.5848 126.317 81.6871C125.419 81.2383 124.222 79.8918 123.325 81.2383C122.577 82.5848 124.222 83.0336 125.12 83.6321C126.466 84.5297 127.813 85.2778 129.458 86.3251C126.017 87.0731 122.876 86.9235 119.884 86.9235C119.884 84.9786 119.286 83.1832 118.089 81.8367C116.893 80.4903 117.192 79.443 117.641 78.0965C119.585 72.8601 122.128 67.923 124.671 62.9859C125.419 61.6394 125.868 61.0409 127.214 62.3874C127.962 63.2851 128.71 62.8363 129.009 61.9386C129.458 60.8913 129.308 59.9937 129.159 58.9464L129.458 59.2456ZM107.319 152.902C106.87 152.004 106.721 151.555 106.422 150.957C105.375 148.563 104.178 146.02 103.131 143.626C102.832 143.027 102.383 142.429 101.635 142.728C100.887 143.027 101.186 143.626 101.336 144.224C102.832 147.815 104.178 151.555 105.524 155.146C105.823 155.894 106.272 156.791 107.17 156.791C108.217 156.791 108.665 155.894 108.965 154.996C110.161 151.555 111.358 148.114 112.405 144.673C112.704 143.775 113.303 142.279 112.106 141.83C110.909 141.382 110.46 142.878 110.012 143.925C108.965 146.618 108.217 149.461 107.17 152.602L107.319 152.902ZM138.583 141.082C137.835 140.783 137.835 140.185 137.536 139.586C136.189 136.893 134.843 134.35 133.497 131.657C133.198 131.059 132.898 130.61 132.151 130.759C131.403 131.059 131.403 131.657 131.702 132.255C133.347 136.444 135.292 140.484 137.685 144.374C138.433 145.571 139.63 145.421 140.228 144.075C140.527 143.476 140.527 142.878 140.677 142.429C141.574 139.137 142.322 135.846 143.22 132.555C143.519 131.507 143.968 129.862 142.771 129.562C141.575 129.263 141.425 130.909 141.126 131.956C140.228 134.948 139.48 137.941 138.732 141.082H138.583ZM162.666 116.397C162.068 114.153 161.469 112.357 160.871 110.412C160.722 109.814 160.273 108.916 159.375 109.215C158.478 109.515 158.777 110.263 158.927 111.011C159.674 113.704 160.273 116.397 161.021 119.09C161.32 120.137 161.17 121.783 162.816 121.783C164.461 121.783 164.312 120.137 164.461 119.09C165.209 115.948 165.658 112.806 166.406 109.664C166.705 108.467 167.453 106.672 166.107 106.373C164.76 105.924 164.461 107.869 164.162 109.066C163.564 111.31 163.265 113.704 162.666 116.397ZM67.5292 119.987C67.5292 118.192 67.5292 115.948 67.5292 113.704C67.5292 112.806 67.5292 111.908 66.3325 111.759C65.1358 111.759 64.9862 112.656 64.8366 113.554C64.3879 116.397 64.3878 119.389 64.5374 122.231C64.5374 124.176 64.9862 125.972 65.7341 127.767C66.0333 128.366 66.1829 128.964 66.9308 128.814C67.5292 128.814 67.5292 127.917 67.5292 127.468C67.6787 125.074 67.5292 122.68 67.5292 119.838V119.987ZM143.07 39.1979C143.07 36.3553 143.07 33.6623 142.771 31.1189C142.771 30.3709 142.622 29.4732 141.575 29.4732C140.527 29.4732 140.527 30.5205 140.527 31.2685C140.527 34.56 140.527 38.001 140.527 41.2924C140.527 43.0877 140.527 44.883 140.976 46.5288C141.126 46.9776 141.275 47.7256 141.874 47.7256C142.622 47.7256 142.622 46.9776 142.771 46.3792C143.37 43.8358 142.771 41.442 143.07 39.1979ZM157.431 56.2534C157.431 56.2534 157.58 56.2534 157.73 56.2534C157.73 53.8597 157.73 51.4659 157.73 49.0721C157.73 48.3241 157.73 47.1272 156.683 47.1272C155.636 47.1272 155.636 48.1745 155.636 48.9225C155.187 53.4108 155.037 57.8991 155.037 62.2378C155.037 63.1355 155.187 64.0331 155.636 64.7812C155.785 65.23 156.084 65.5293 156.533 65.3796C156.982 65.3796 157.132 64.9308 157.132 64.6316C157.132 64.0331 157.431 63.2851 157.431 62.6867C157.431 60.4425 157.431 58.348 157.431 56.1038V56.2534ZM162.965 55.8046C162.965 55.8046 162.965 55.8046 163.115 55.8046C163.115 53.4108 163.115 51.0171 163.115 48.6233C163.115 47.8753 163.265 46.9776 162.367 46.828C161.32 46.828 161.17 47.7256 161.17 48.4737C160.871 53.4108 160.572 58.4976 160.422 63.4347C160.422 64.3324 160.422 65.5293 161.32 65.6789C162.367 65.6789 162.367 64.482 162.517 63.5843C162.666 61.0409 162.816 58.348 162.965 55.655V55.8046ZM157.73 122.68C157.281 120.137 156.982 117.444 156.533 114.751C156.234 112.956 155.785 111.31 155.336 109.515C155.187 108.916 154.738 108.467 153.99 108.617C153.242 108.767 153.093 109.365 153.242 109.963C153.242 110.712 153.541 111.31 153.541 112.058C153.99 115.649 154.439 119.09 155.037 122.68C155.037 123.578 155.486 124.775 156.683 124.775C157.879 124.775 157.58 123.428 157.879 122.68H157.73ZM175.979 81.6871C175.979 79.8918 175.979 78.0965 175.979 76.3012C175.979 75.5531 175.68 74.6555 174.783 74.6555C173.736 74.6555 173.586 75.5531 173.586 76.3012C173.586 79.443 173.287 82.7344 173.586 85.8762C173.586 86.7739 173.885 87.6716 174.334 88.4196C174.633 88.8684 174.783 89.4669 175.381 89.4669C175.979 89.4669 176.129 88.7188 176.279 88.27C176.877 86.0258 176.428 83.7817 176.279 81.5375L175.979 81.6871ZM90.2663 140.933C90.5655 143.925 90.2663 146.468 91.0143 148.862C91.1638 149.461 91.3134 150.508 92.2109 150.358C92.9589 150.358 92.9589 149.311 93.1085 148.712C93.4076 144.374 93.1085 140.185 92.5101 135.846C92.5101 135.098 92.0614 134.35 91.1639 134.5C90.4159 134.5 90.2663 135.248 90.2663 135.996C90.2663 137.791 90.2663 139.736 90.2663 140.933ZM113.751 148.264C113.751 150.358 113.452 152.303 113.901 154.248C114.2 155.146 114.35 156.193 115.397 156.193C116.294 156.193 116.444 154.996 116.444 154.098C116.444 150.508 116.294 146.917 115.696 143.327C115.696 142.728 115.546 141.83 114.649 141.83C113.602 141.83 113.602 142.728 113.602 143.476C113.602 144.972 113.602 146.618 113.602 148.114L113.751 148.264ZM88.7705 147.964C88.3217 143.775 87.7234 139.736 87.2746 135.547C87.2746 134.948 87.125 133.901 86.0779 134.2C85.3299 134.35 85.3299 135.248 85.3299 135.846C85.4795 138.689 85.7787 141.681 85.9283 144.523C86.0779 146.169 86.2275 147.815 86.9754 149.161C87.2746 149.61 87.4242 150.059 88.0225 149.909C88.4713 149.909 88.4713 149.311 88.4713 148.862C88.4713 148.563 88.4713 148.264 88.4713 147.964H88.7705ZM164.91 82.4352C164.91 84.2305 165.06 85.8762 165.209 87.6715C165.209 88.7188 165.209 89.7661 165.807 90.8134C165.957 91.1126 166.256 91.4118 166.705 91.2622C167.004 91.2622 167.154 90.963 167.303 90.6637C167.303 90.0653 167.603 89.4669 167.603 88.8684C167.453 84.829 167.154 80.6399 167.004 76.6004C167.004 75.8524 167.004 74.9547 165.957 75.1043C165.06 75.1043 165.06 76.1516 165.06 76.75C165.06 78.6949 165.06 80.4903 165.06 82.4352H164.91ZM169.697 82.2856C169.697 84.3801 169.398 86.4747 169.697 88.5692C169.697 89.1676 169.846 90.2149 170.744 90.2149C171.492 90.2149 171.492 89.1676 171.641 88.5692C172.389 84.6793 171.941 80.7895 171.941 77.0492C171.941 76.3012 171.641 75.5531 170.744 75.5531C169.846 75.5531 169.547 76.3012 169.547 77.0492C169.547 78.8446 169.547 80.6399 169.547 82.4352L169.697 82.2856ZM69.7729 120.287C69.7729 122.531 69.4738 124.775 70.0721 127.019C70.2217 127.617 70.3713 128.665 71.1192 128.665C71.8672 128.665 71.8672 127.767 72.0168 127.019C72.6151 122.98 72.0168 118.79 71.7176 114.751C71.7176 114.153 71.568 113.405 70.8201 113.405C69.9226 113.405 69.9225 114.153 69.9225 114.901C69.9225 116.696 69.9225 118.491 69.9225 120.287H69.7729Z" fill="#FDFDFD"/>
<path d="M100.438 30.9693C99.3912 30.9693 98.4937 31.5677 97.7458 32.0165C92.5102 35.1583 87.873 39.1978 83.535 43.5365C83.0863 43.9853 82.7871 44.7334 81.8896 44.7334C82.4879 43.2373 82.6375 41.7412 82.6375 40.2451C82.6375 37.1033 82.6375 33.8119 82.0392 30.67C82.0392 29.922 81.74 29.1739 80.8424 29.1739C79.9449 29.1739 79.7954 29.922 79.6458 30.67C79.6458 30.9693 79.6458 31.4181 79.6458 31.7173C79.6458 35.1583 79.6458 38.4498 79.6458 41.8908C79.6458 42.7885 79.6458 43.8357 80.0945 44.7334C80.2441 45.4814 80.6929 45.9303 81.5904 45.6311C78.8978 49.3713 75.6069 52.6627 72.9144 56.5526C66.0334 66.5765 61.097 77.3484 59.302 89.4668C58.1053 97.2466 58.2549 105.026 59.7508 112.656C59.7508 113.404 59.7507 114.302 60.6483 114.901C60.6483 118.491 60.4987 122.082 60.6483 125.523C60.6483 126.57 60.9474 127.617 61.3962 128.665C61.5458 128.964 61.845 129.413 62.2937 129.263C62.7425 129.263 62.7425 128.665 62.7425 128.365C62.7425 127.169 62.7425 125.972 62.8921 124.775C63.9392 126.121 64.3879 127.767 65.1359 129.263C67.2301 133.751 69.7731 137.941 72.316 142.13C72.6152 142.578 72.9144 143.027 73.5127 142.878C73.3631 143.326 73.5127 143.476 73.8119 143.626C74.4103 145.122 75.0086 146.468 75.6069 147.964C76.0557 148.862 76.8036 149.311 77.8507 149.012C78.7482 150.657 80.3937 151.405 81.8896 152.303C89.3689 157.091 97.7457 159.634 106.422 161.13C110.311 161.878 114.051 162.177 117.94 162.327C114.2 162.925 110.461 163.075 106.721 162.925C98.1945 162.477 89.9673 160.98 82.0392 157.689C68.726 152.153 57.6566 143.626 49.2797 131.806C42.5483 122.231 38.2103 111.609 36.2657 100.089C35.2186 93.5063 34.9194 87.0731 35.6673 80.4902C36.7144 70.4663 39.5566 60.8913 44.4929 52.0643C51.3739 39.7963 60.7979 30.0716 73.064 23.0399C80.6929 18.7012 88.9202 15.8586 97.7458 14.5122C104.028 13.4649 110.161 13.3153 116.444 13.9137C126.766 14.961 136.638 17.9532 145.613 23.3391C147.109 24.2368 148.605 25.1345 149.951 26.0321C145.913 26.3313 142.023 25.1345 138.134 24.8353C130.804 24.2368 123.475 23.3391 116.145 24.9849C116.145 24.2368 116.145 23.4888 115.995 22.7407C115.995 22.1423 115.846 21.5438 115.098 21.5438C114.35 21.5438 114.051 22.1423 114.051 22.7407C114.051 23.788 113.901 24.6856 113.901 25.7329C112.854 25.7329 111.807 26.0321 110.909 26.1817C110.909 25.2841 110.909 24.2368 110.76 23.3391C110.76 22.5911 110.76 21.3942 109.713 21.3942C108.666 21.3942 108.815 22.4415 108.815 23.1895C108.815 24.536 108.815 25.8825 108.516 27.0794C107.02 27.5282 105.375 28.1267 103.879 28.5755C104.776 26.481 105.524 24.2368 106.422 22.1423C106.721 21.5438 107.02 20.7958 106.123 20.4966C105.375 20.1973 105.075 20.9454 104.926 21.5438C104.178 23.0399 103.43 24.6856 102.533 26.481C101.934 25.1345 101.336 23.9376 100.887 22.8903C100.588 22.4415 100.289 21.843 99.6904 22.1423C99.092 22.4415 99.092 23.0399 99.3912 23.4888C99.84 24.6856 100.289 25.8825 100.887 26.9298C101.785 28.4259 101.635 29.6228 100.588 30.8197L100.438 30.9693ZM42.8475 100.837C43.745 100.837 43.745 100.239 43.745 99.4907C43.745 96.1993 43.745 92.9079 43.745 89.6164C43.745 87.8211 43.4458 85.8762 43.1467 84.0808C42.8475 82.5848 42.2491 82.5848 41.202 83.632C40.1549 83.632 40.0053 84.3801 39.8557 85.1281C39.2574 89.766 39.2574 94.2543 39.8557 98.8923C40.1549 100.538 41.202 101.136 42.8475 100.688V100.837ZM47.6343 114.152C47.1855 113.554 46.5872 113.554 46.1384 113.853C45.3905 114.302 45.2409 115.2 45.5401 115.948C46.7367 121.184 48.9805 126.121 51.5235 130.759C52.421 132.405 53.9169 132.255 54.964 130.759C55.4128 130.161 55.7119 129.562 55.8615 128.814C57.2078 125.373 57.8061 121.783 58.4045 118.042C58.5541 116.995 59.0028 115.649 57.6565 114.751C57.6565 114.452 57.6565 114.003 57.6565 113.704C57.6565 113.255 57.6565 112.507 57.0582 112.357C56.3103 112.357 56.0111 112.956 55.8615 113.404C55.7119 113.853 55.5623 114.302 55.4127 114.751C55.1136 116.397 54.964 117.893 54.6648 119.538C54.216 121.783 54.2161 124.027 53.4681 126.72C52.1218 122.531 50.9252 118.94 49.8781 115.2C49.5789 114.302 49.2797 113.404 48.083 113.853L47.6343 114.152ZM47.1855 83.3328C45.9888 82.4351 45.2408 82.7344 44.9417 83.9312C44.6425 85.8762 47.0359 90.3645 48.8309 91.1125C48.8309 92.0102 48.3822 92.6086 48.083 93.2071C47.3351 95.0024 46.4376 96.6481 46.288 98.593C46.288 99.0419 46.1384 99.7899 46.7367 100.089C47.4847 100.388 47.7838 99.6403 47.9334 99.0419C48.6813 97.3962 49.4293 95.7505 50.3268 93.9551C51.0747 95.3016 51.6731 96.4985 52.7202 97.5458C53.3185 97.9946 53.7673 98.8923 54.6648 98.4434C55.2631 97.9946 54.8144 97.0969 54.6648 96.4985C54.216 94.8528 53.1689 93.3567 52.421 91.8606C51.9722 91.1125 51.9722 90.3645 52.421 89.4668C53.1689 87.8211 53.7673 86.0258 54.5153 84.3801C54.8144 83.7816 54.964 83.1832 54.2161 82.884C53.4681 82.5848 53.169 83.1832 52.8698 83.632C52.1219 84.9785 51.3739 86.4746 50.626 87.9707C50.0276 86.6242 49.4293 85.577 48.9805 84.3801C48.6814 83.632 48.2326 83.0336 47.1855 83.1832V83.3328ZM51.6731 51.1666C51.0747 50.8674 50.3268 50.5682 49.7285 51.1666C49.1301 51.7651 48.9805 52.3635 49.2797 53.2612C49.7285 54.458 50.3268 55.6549 51.2243 56.5526C52.2714 57.5999 52.1219 58.3479 51.5235 59.5448C50.0277 62.0882 48.5318 64.6315 47.1855 67.3245C46.288 68.9702 47.0359 69.8679 48.8309 69.8679C50.1772 70.4663 50.4764 69.2695 50.9251 68.671C52.7202 65.978 54.5152 63.1354 56.3103 60.2928C57.6565 62.2378 59.0028 64.1827 60.3491 65.978C60.6483 66.4269 61.2466 67.1749 61.9946 66.8757C62.8921 66.4269 62.2938 65.5292 61.9946 64.9308C61.2466 62.6866 59.7507 60.8913 58.4045 58.9464C57.8061 58.1983 57.6566 57.5999 58.2549 56.7022C59.1524 55.2061 60.0499 53.71 60.9475 52.2139C61.2466 51.7651 61.5458 51.1666 60.9475 50.7178C60.1995 50.269 59.9003 50.7178 59.4516 51.3162C58.8532 52.0643 58.2549 52.962 57.8061 53.8596C56.3103 56.1038 56.4598 56.1038 54.6648 53.8596C53.7673 52.8123 53.3186 51.017 51.5235 50.8674L51.6731 51.1666ZM73.9615 40.9931C75.1582 42.3396 75.7565 44.135 77.1028 45.1822C77.5515 45.4814 78.0003 45.9303 78.5987 45.4814C79.0474 45.1822 78.8978 44.5838 78.5987 44.135C78.0003 42.3396 76.9532 40.8435 75.9061 39.3474C75.3078 38.5994 75.1582 37.8513 75.6069 36.9537C76.3549 35.308 76.9532 33.5126 77.5516 31.8669C77.7012 31.2685 78.0003 30.3708 77.1028 30.0716C76.2053 29.7724 75.7565 30.5204 75.4574 31.1189C74.7094 32.615 74.1111 34.1111 73.5127 35.7568C72.316 34.4103 71.2689 33.2134 70.0722 32.0165C69.6235 31.5677 69.1747 31.2685 68.5764 31.7173C67.978 32.1661 68.4268 32.7646 68.5764 33.0638C69.4739 34.4103 70.3714 35.7568 71.4185 36.9537C72.0169 37.8513 72.1665 38.5994 71.5681 39.497C70.6706 41.1428 69.9226 42.9381 69.0251 44.5838C68.7259 45.3318 68.4268 45.9303 68.4268 46.8279C68.4268 47.2768 68.4268 47.7256 69.0251 47.8752C69.4739 48.0248 69.7731 47.8752 70.2218 47.576C70.8202 46.9775 71.2689 46.2295 71.7177 45.4814C72.4656 43.9853 73.2136 42.4892 73.9615 40.9931Z" fill="#AEE6F6"/>
<path d="M119.137 8.82669C118.688 5.83449 118.688 5.68488 121.68 6.28332C138.434 9.27552 153.542 15.5591 166.257 27.2287C175.531 35.7565 182.711 45.6308 187.049 57.45C189.443 64.0328 190.639 70.9149 191.238 78.0962C190.041 77.797 188.994 77.3481 187.797 77.3481C188.096 76.3009 187.797 75.4032 187.498 74.3559C185.853 67.1746 184.207 59.9934 180.617 53.4105C171.941 37.5518 159.525 25.4334 143.669 16.756C136.04 12.5669 127.663 10.1732 118.987 8.9763L119.137 8.82669Z" fill="#0DB9EB"/>
<path d="M190.191 104.128C188.695 115.349 184.507 125.522 178.224 134.798C168.052 149.61 154.889 160.83 137.836 167.114C132.301 169.209 126.617 171.154 120.783 172.201C117.492 172.799 117.492 172.799 117.791 169.657C117.791 169.059 117.791 168.61 117.941 168.012C118.539 168.012 119.287 167.862 119.885 167.713C132.301 165.618 143.969 161.279 154.29 153.948C160.274 149.759 165.36 144.523 170.147 138.987C178.823 128.814 184.806 117.294 187.648 104.278C188.396 104.128 189.294 103.829 190.042 103.679C190.042 103.679 190.191 103.979 190.341 103.979L190.191 104.128Z" fill="#0DB9EB"/>
<path d="M30.4329 76.1516C27.7403 76.3012 27.7403 76.3012 27.8899 73.6082C28.4882 63.7339 31.9287 54.7573 36.2667 46.0799C41.6519 35.4576 49.58 27.3787 59.4527 20.9454C70.9708 13.4649 83.2369 7.77973 96.6997 4.93714C97.7468 4.63792 98.3452 4.78753 98.1956 5.98441C98.1956 7.03168 98.1956 8.07895 97.8964 9.12622C96.6997 8.67739 95.503 8.827 94.3063 9.12622C78.8989 12.268 65.137 18.7013 53.7684 29.922C43.1477 40.3947 36.8651 53.2612 32.3775 67.3246C31.48 70.1671 30.2833 73.0097 30.2833 76.1516H30.4329Z" fill="#0DB9EB"/>
<path d="M95.9511 166.666C95.9511 167.563 95.6521 168.461 95.8017 169.358C95.9513 171.154 95.0538 171.303 93.7075 171.004C84.4331 169.209 75.7571 166.067 67.6794 161.13C47.1861 148.712 33.7233 131.357 28.9365 107.719C28.6373 106.223 28.3382 104.876 27.8894 103.231C29.0861 103.231 30.1332 103.231 31.1803 103.231C31.6291 105.625 32.0778 108.018 32.5266 110.412C36.4158 127.617 45.6902 141.232 59.7514 151.555C70.5216 159.484 82.7877 164.122 95.8017 166.366L95.9511 166.666Z" fill="#0DB9EB"/>
<path d="M30.4329 76.1516C30.4329 73.0097 31.6296 70.1675 32.5271 67.3249C36.8651 53.2615 43.1477 40.3951 53.918 29.9223C65.2865 18.8512 79.0485 12.418 94.4559 9.12653C95.6526 8.82731 96.8493 8.6777 98.046 9.12653C98.3452 10.6226 97.7468 11.2211 96.1014 11.5203C87.5749 12.8668 79.6469 15.859 72.1675 19.8985C61.5469 25.7333 52.7213 33.8122 45.8403 43.8361C39.5577 52.9623 35.3692 63.1358 33.275 74.0573C32.8263 76.6007 32.6767 76.6007 30.2833 76.0023L30.4329 76.1516Z" fill="#F3F7F8"/>
<path d="M95.9511 166.666C82.7875 164.422 70.5212 159.783 59.9006 151.854C45.8395 141.531 36.5651 127.767 32.6759 110.711C32.0775 108.317 31.7784 105.924 31.3296 103.53C32.8255 103.081 33.5734 103.53 34.0221 105.176C36.8643 117.892 42.2494 129.263 50.6263 139.137C62.4436 152.901 77.4022 161.579 95.203 165.169C96.3997 165.469 96.3997 165.768 96.1006 166.665L95.9511 166.666Z" fill="#F3F7F8"/>
<path d="M119.137 8.82669C127.813 10.0236 136.04 12.4175 143.819 16.6065C159.675 25.2839 172.24 37.4023 180.767 53.261C184.357 59.8439 186.002 67.0252 187.648 74.2064C187.947 75.2537 188.246 76.1514 187.947 77.1986C186.601 77.7971 186.152 77.4979 185.853 76.0018C184.506 66.5763 181.215 57.7493 176.578 49.3712C169.398 36.9535 159.675 27.2289 147.259 20.1972C139.182 15.7089 130.655 12.5671 121.381 11.3702C119.586 11.071 118.838 10.622 119.137 8.82669Z" fill="#ECF2F3"/>
<path d="M187.499 104.428C184.657 117.444 178.673 129.114 169.997 139.138C165.21 144.673 160.274 149.91 154.141 154.099C143.67 161.28 132.152 165.619 119.736 167.863C119.138 167.863 118.389 168.012 117.791 168.162C117.342 166.815 117.492 166.217 119.287 165.918C136.939 163.524 152.047 156.044 164.612 143.327C174.784 132.854 181.515 120.586 184.806 106.373C185.255 104.728 185.704 103.83 187.499 104.428Z" fill="#ECF2F3"/>
<path d="M110.461 1.94537C110.461 1.94537 110.761 1.94537 110.91 1.94537C111.808 2.99264 113.154 1.79576 114.052 2.54381C114.5 5.23679 115.398 7.92978 115.099 10.6228C112.556 10.7724 112.406 10.6228 112.256 8.37861C112.256 6.13446 111.658 3.8903 110.461 2.09498V1.94537Z" fill="#ECF2F3"/>
<path d="M27.2909 97.9946C26.8422 95.4513 29.2349 93.3567 31.6283 93.9551C32.0771 93.9551 32.0771 94.4039 32.0771 94.7032C32.2267 96.3489 32.3763 97.9946 32.5259 99.6403C30.7308 99.0418 29.0854 98.2938 27.1407 97.9946L27.2909 97.9946Z" fill="#0DB9EB"/>
<path d="M102.533 10.6223C102.234 10.6223 102.084 10.6223 101.785 10.7719C100.139 11.3704 99.8402 10.7719 100.139 9.12621C100.289 7.92933 100.139 6.58284 100.139 5.38596C100.139 4.78752 99.9898 4.03946 100.738 3.74024C101.486 3.44102 102.234 3.29141 102.832 4.03946C102.682 6.13401 102.832 8.37816 102.383 10.4727L102.533 10.6223Z" fill="#F3F7F8"/>
<path d="M100.139 173.847C98.6428 173.697 97.8949 172.65 97.8949 171.303C97.8949 169.658 97.8949 168.012 98.194 166.366C98.3436 165.169 99.3907 166.366 99.8395 166.067C100.288 168.012 99.9891 170.107 100.737 172.052C101.036 172.8 100.587 173.398 99.9891 173.847H100.139Z" fill="#ECF2F3"/>
<path d="M100.139 173.847C100.737 173.398 101.186 172.8 100.887 172.052C100.139 170.107 100.289 168.012 99.99 166.067C102.383 166.267 103.33 167.514 102.831 169.808C102.682 170.556 102.532 171.453 102.383 172.201C102.084 173.249 101.485 174.146 100.288 173.698L100.139 173.847Z" fill="#0DB9EB"/>
<path d="M192.135 89.7661C192.285 90.8134 192.883 92.0099 191.836 92.758C190.49 93.6556 188.695 93.3564 187.199 93.3564C186.75 93.3564 186.75 92.9076 186.75 92.4588C186.75 91.7107 186.75 90.9627 186.9 90.2146C188.695 90.2146 190.34 90.2149 192.135 89.7661Z" fill="#ECF2F3"/>
<path d="M31.7777 87.2228C31.7777 91.7111 32.2265 90.6638 28.1877 90.0654C25.9439 89.7662 25.7943 89.3173 26.6918 87.2228C28.3373 87.2228 29.9827 87.2228 31.7777 87.2228Z" fill="#ECF2F3"/>
<path d="M113.154 173.847C111.808 173.847 111.359 173.398 111.508 172.052C111.508 170.855 111.658 169.658 111.508 168.461C111.209 166.666 112.107 166.217 113.603 166.366C114.201 168.91 113.603 171.304 113.154 173.847Z" fill="#ECF2F3"/>
<path d="M190.34 81.5375C191.687 84.3801 190.639 85.7266 187.498 85.577C186.9 85.577 186.75 85.2778 186.75 84.8289C186.75 84.0809 186.451 83.1836 186.75 82.2859C187.947 81.9867 189.143 81.9867 190.34 81.2387L190.34 81.5375Z" fill="#ECF2F3"/>
<path d="M190.639 97.5458C191.537 99.3411 191.088 100.389 189.293 100.987H188.994C185.853 101.735 185.703 101.586 186.451 98.4438C187.797 98.1445 189.293 97.8453 190.639 97.3965L190.639 97.5458Z" fill="#ECF2F3"/>
<path d="M108.816 10.1735C107.469 10.6223 106.722 10.1733 106.573 8.67725C106.573 7.33075 106.124 6.13387 105.974 4.78738C105.675 2.99206 105.974 2.69284 107.919 2.84245C107.919 5.38582 108.517 7.77958 108.816 10.323L108.816 10.1735Z" fill="#F3F7F8"/>
<path d="M107.021 174.146C104.627 173.398 104.628 173.249 105.077 171.004C105.226 169.807 105.525 168.76 105.675 167.563C105.675 166.366 106.273 166.217 107.171 166.666C107.171 169.209 107.17 171.603 107.021 174.146Z" fill="#ECF2F3"/>
<path d="M107.021 174.146C107.32 171.603 107.021 169.209 107.171 166.666C108.667 166.366 109.115 166.965 108.966 168.461C108.816 169.957 108.816 171.453 108.517 172.8C108.517 173.698 108.218 174.446 106.872 174.146L107.021 174.146Z" fill="#0DB9EB"/>
<path d="M113.154 173.847C113.603 171.453 114.201 168.91 113.603 166.366C114.949 166.067 115.696 166.217 115.397 168.012C115.098 169.358 115.098 170.855 114.948 172.201C114.948 173.248 114.351 173.997 113.154 173.847Z" fill="#0DB9EB"/>
<path d="M108.816 10.1735C108.516 7.63012 107.918 5.23619 107.918 2.69282C109.115 3.14165 109.414 4.33853 109.713 5.3858C110.162 6.8819 110.311 8.52761 110.76 10.1733H108.965L108.816 10.1735Z" fill="#0DB9EB"/>
<path d="M27.2909 97.9946C29.2355 98.2939 30.881 99.0419 32.676 99.6404C33.424 101.136 32.6761 101.436 31.3298 101.136C28.0389 100.388 27.5901 100.089 27.2909 97.9946Z" fill="#F4F4F4"/>
<path d="M27.8893 80.7895C28.6372 78.9941 30.4323 78.396 32.0777 79.2936C32.5265 79.5928 32.5264 79.7424 32.3769 80.1913C32.3769 80.9393 32.2273 81.5378 32.0777 82.2858C30.7314 81.3881 29.2355 81.2385 27.7397 80.7897L27.8893 80.7895Z" fill="#0DB9EB"/>
<path d="M115.099 10.6228C115.398 7.78017 114.5 5.23679 114.052 2.54381C116.445 4.63835 116.295 7.62971 116.594 10.3227C116.594 11.0707 115.697 10.7715 115.248 10.6219L115.099 10.6228Z" fill="#0DB9EB"/>
<path d="M192.135 89.7661C190.49 90.2149 188.695 90.2146 186.9 90.2146C186.601 88.8681 186.9 87.9708 188.546 88.2701C189.892 88.4197 191.687 87.522 191.986 89.7662L192.135 89.7661Z" fill="#0DB9EB"/>
<path d="M27.8893 80.7895C29.3851 81.0887 30.881 81.3879 32.2273 82.2856C32.2273 83.1832 32.2273 83.9313 30.881 83.4825C30.2826 83.1832 29.6843 83.1832 28.9364 83.0336C27.2909 82.884 26.9917 82.136 27.8893 80.7895Z" fill="#ECF2F3"/>
<path d="M102.533 10.6223C102.982 8.52778 102.683 6.28408 102.982 4.18954C104.328 5.98486 104.178 8.0794 104.478 10.1739C104.478 11.2212 103.281 10.6228 102.533 10.7724V10.6223Z" fill="#0DB9EB"/>
<path d="M190.34 81.5375C189.293 82.136 187.947 82.2856 186.75 82.5848C186.75 81.6871 185.852 80.3407 187.498 80.0414C188.844 79.7422 189.891 80.191 190.34 81.6871L190.34 81.5375Z" fill="#0DB9EB"/>
<path d="M190.639 97.5458C189.293 97.845 187.797 98.144 186.451 98.5928C186.451 97.8448 186.451 96.4983 187.049 96.4983C188.395 96.4983 189.742 96.6479 190.789 97.6952L190.639 97.5458Z" fill="#0DB9EB"/>
<path d="M31.7793 87.2231C30.1338 87.2231 28.4884 87.2231 26.6934 87.2231C26.6934 86.1758 27.4413 85.727 28.4884 85.727C29.3859 85.727 30.2834 85.8766 31.181 86.0262C32.0785 86.0262 31.7793 86.6247 31.7793 87.2231Z" fill="#0DB9EB"/>
<path d="M189.891 103.829C189.891 103.829 190.19 103.829 190.34 103.829V104.128C190.34 104.128 190.19 103.829 190.041 103.829H189.891Z" fill="#0DB9EB"/>
<path d="M129.308 189.855C121.081 190.753 113.003 190.903 104.926 190.304C98.1942 189.855 91.4628 189.407 84.7314 188.958C84.1331 188.958 83.5347 188.958 83.3852 188.21C83.086 187.163 83.086 186.265 83.086 185.218C83.086 185.218 83.5348 185.068 83.6843 185.218C88.1719 185.517 92.6595 185.666 97.1471 185.966C96.5488 186.714 96.1 187.462 95.6513 188.06C95.5017 188.359 95.3521 188.659 95.6513 188.808C95.6513 188.808 96.1 188.958 96.1 188.808C96.9975 188.06 98.643 187.911 98.643 186.265C98.643 185.367 99.0917 185.666 99.5405 185.666C108.665 185.816 117.64 186.115 126.765 186.265C127.364 186.265 127.812 186.265 128.112 187.163C128.411 188.06 128.859 188.808 129.458 189.855L129.308 189.855ZM105.225 188.21C105.225 187.611 104.926 187.312 104.327 187.163C103.43 187.163 102.981 187.911 102.831 188.509C102.682 188.958 102.831 189.257 103.43 189.257C104.178 189.257 104.926 188.958 105.225 188.06V188.21ZM107.319 189.107C107.917 188.808 108.964 188.958 108.964 187.761C108.964 187.312 108.516 187.013 108.067 187.013C107.169 187.163 106.721 187.911 106.571 188.808C106.571 189.107 106.87 189.257 107.319 189.107ZM101.635 187.761C101.635 187.312 101.336 186.863 100.887 186.863C99.8397 186.863 99.5405 187.761 99.2413 188.509C99.2413 188.808 99.2413 189.107 99.6901 189.107C100.438 188.808 101.336 188.659 101.635 187.761ZM111.507 189.107C111.956 188.659 113.003 188.359 113.003 187.462C113.003 187.013 112.704 186.564 112.255 186.714C111.208 186.863 110.909 187.761 110.759 188.659C110.759 188.958 110.76 189.257 111.358 189.107H111.507ZM122.577 188.659C122.577 188.21 122.278 187.761 121.829 187.761C121.231 187.761 120.931 188.21 120.931 188.808C120.931 189.257 120.931 189.706 121.53 189.556C122.128 189.556 122.427 189.107 122.577 188.509V188.659ZM116.743 188.958C117.192 188.659 117.64 188.359 117.64 187.761C117.64 187.312 117.341 187.013 117.042 187.013C116.444 187.013 116.145 187.462 116.145 188.06C116.145 188.359 116.145 188.808 116.743 188.808V188.958Z" fill="#F4F4F4"/>
<path d="M111.807 77.1984C115.398 70.4659 118.389 63.4343 121.531 56.4026C122.129 54.9065 122.877 53.4104 123.475 51.9143C123.475 51.7647 123.475 51.4655 123.475 51.4655C123.326 51.4655 123.176 51.4655 123.176 51.7647C121.83 52.9616 120.334 54.308 118.988 55.5049C118.539 55.9538 117.941 56.253 117.342 56.5522C116.893 56.8514 116.445 56.8514 115.996 56.5522C115.547 56.1034 115.697 55.6545 115.697 55.2057C115.846 54.4577 116.445 54.0088 117.043 53.56C119.736 51.1662 122.428 48.6229 124.822 45.9299C125.869 44.733 127.065 44.733 128.262 45.0322C129.309 45.3314 129.309 46.5283 129.459 47.5756C129.459 49.6701 129.608 51.6151 129.907 53.7096C130.207 55.6545 129.907 57.4499 129.459 59.3948C128.86 60.2924 128.262 60.2924 127.813 59.2452C127.514 58.4971 127.215 57.5995 127.215 56.8514C127.065 55.2057 126.916 53.4104 126.766 51.4655C126.617 51.7647 126.467 51.9143 126.467 51.9143C122.129 62.0878 117.641 72.4109 112.555 82.2851C112.555 82.5844 114.65 87.5215 114.949 87.5215C115.248 87.5215 115.398 87.5215 115.697 87.5215C117.193 87.5215 118.688 87.5215 120.184 87.3719C123.326 87.3719 126.317 87.5215 129.758 86.7734C128.112 85.8758 126.766 85.1277 125.42 84.0805C124.522 83.482 122.877 82.8836 123.625 81.6867C124.373 80.3402 125.569 81.6867 126.617 82.1355C128.412 82.8836 130.207 83.9308 132.151 84.8285C133.647 85.5766 133.946 86.6238 133.049 87.8207C131.403 90.3641 129.459 92.6082 127.215 94.7028C126.617 95.3012 126.018 95.4508 125.27 95.3012C124.373 94.2539 124.822 93.5059 125.569 92.6082C126.317 91.561 127.215 90.6633 128.262 89.3168C123.774 89.3168 119.885 89.3168 115.846 89.3168C115.248 89.3168 114.65 89.3168 114.35 90.0649C113.004 93.0571 111.209 93.9547 107.918 93.6555C104.926 93.3563 102.683 90.9625 102.683 88.1199C102.683 84.2301 104.627 81.3875 107.769 81.5371C109.863 81.5371 110.76 80.6394 111.359 78.9937C111.658 78.3953 111.807 77.7968 112.107 77.1984H111.807Z" fill="#080909"/>
<path d="M111.806 77.199C111.507 77.7974 111.208 78.3959 111.059 78.9943C110.46 80.64 109.563 81.5377 107.468 81.5377C104.327 81.5377 102.383 84.2307 102.383 88.1205C102.383 90.9631 104.776 93.3569 107.618 93.6561C110.909 93.9553 112.704 93.0577 114.05 90.0655C114.499 89.1678 114.948 89.3174 115.546 89.3174C119.585 89.3174 123.474 89.3174 127.962 89.3174C126.915 90.6639 126.017 91.5616 125.269 92.6088C124.521 93.5065 124.073 94.2545 124.97 95.3018C123.923 96.6483 122.278 97.2467 120.782 97.6956C120.183 97.8452 119.435 98.1444 118.987 97.3963C118.687 96.7979 118.987 96.1995 119.435 95.7506C119.884 95.0026 120.483 94.4041 120.931 93.8057C121.23 93.3569 122.278 92.7584 121.38 92.3096C120.632 91.8608 119.585 91.1127 118.687 92.3096C117.79 93.8057 116.444 95.0026 115.097 96.0499C112.554 97.9948 109.563 98.8925 106.421 98.5932C102.831 98.294 98.9421 93.8057 98.6429 89.7662C98.1941 82.2857 103.43 77.3486 111.657 77.4982L111.806 77.199Z" fill="#AEE6F6"/>
<path d="M120.035 87.2226C118.539 87.2226 117.043 87.2226 115.547 87.3722C115.248 87.3722 115.099 87.3722 114.799 87.3722C114.5 87.3722 112.256 82.2854 112.406 82.1358C117.492 72.2616 121.98 62.0881 126.318 51.765C126.318 51.765 126.318 51.6154 126.617 51.3161C126.617 53.2611 126.766 54.9068 127.066 56.7021C127.066 57.4501 127.365 58.3478 127.664 59.0959C128.113 60.1431 128.711 60.1431 129.309 59.2455C129.309 60.2927 129.459 61.1904 129.16 62.2377C128.711 63.2849 128.113 63.5842 127.365 62.6865C126.168 61.1904 125.57 61.9385 124.822 63.2849C122.279 68.2221 119.736 73.1592 117.791 78.3956C117.342 79.7421 117.043 80.7893 118.24 82.1358C119.586 83.4823 120.035 85.2776 120.035 87.2226Z" fill="#ADE4F4"/>
<path d="M107.319 152.902C108.366 149.76 109.264 146.917 110.161 144.224C110.46 143.177 111.059 141.83 112.255 142.129C113.452 142.578 112.854 143.925 112.555 144.972C111.358 148.413 110.161 151.854 109.114 155.295C108.815 156.193 108.516 157.09 107.319 157.09C106.422 157.09 105.973 156.193 105.674 155.445C104.327 151.854 102.832 148.114 101.485 144.523C101.186 143.925 101.036 143.326 101.784 143.027C102.532 142.578 102.981 143.326 103.28 143.925C104.477 146.319 105.524 148.862 106.571 151.256C106.87 151.704 107.02 152.303 107.469 153.201L107.319 152.902Z" fill="#0D0D0D"/>
<path d="M138.583 141.082C139.331 137.941 140.229 134.949 140.976 131.956C141.276 131.059 141.425 129.263 142.622 129.563C143.819 129.862 143.37 131.508 143.071 132.555C142.173 135.846 141.425 139.138 140.528 142.429C140.528 143.028 140.229 143.626 140.079 144.075C139.481 145.421 138.284 145.721 137.536 144.374C135.292 140.484 133.198 136.445 131.553 132.256C131.253 131.657 131.253 131.059 132.001 130.76C132.749 130.61 133.048 131.059 133.348 131.657C134.694 134.35 136.04 136.894 137.386 139.587C137.686 140.035 137.686 140.783 138.433 141.083L138.583 141.082Z" fill="#0D0D0D"/>
<path d="M78.0006 149.161C76.9534 149.46 76.2055 149.161 75.7568 148.114C75.1584 146.618 74.5601 145.271 73.9617 143.775C73.9617 143.476 73.9614 143.177 73.6622 143.027C73.0639 140.783 72.4655 138.689 71.8672 136.444C71.7176 135.696 71.4184 134.948 72.3159 134.649C73.2135 134.5 73.363 135.248 73.5126 135.846C74.7093 139.287 75.6068 142.728 77.2523 146.319C78.5986 143.775 79.3465 141.232 80.244 138.689C80.6928 137.641 80.992 136.594 81.4407 135.547C81.5903 135.098 82.0391 134.5 82.6374 134.649C83.3853 134.799 83.2357 135.547 83.2357 136.145C83.2357 136.444 83.2357 136.744 83.2357 137.043C82.039 140.933 80.8424 144.673 78.8977 148.114C78.7482 148.563 78.2994 148.862 78.0002 149.311L78.0006 149.161Z" fill="#0D0D0D"/>
<path d="M100.438 30.9693C101.485 29.7724 101.635 28.5759 100.737 27.0798C100.139 26.0325 99.69 24.8356 99.2412 23.6388C99.0916 23.1899 98.942 22.4419 99.5404 22.2923C100.139 21.9931 100.438 22.5915 100.737 23.0403C101.335 24.0876 101.784 25.2845 102.383 26.631C103.28 24.8356 104.028 23.3395 104.776 21.6938C105.075 21.0954 105.374 20.497 105.973 20.6466C106.87 20.9458 106.421 21.6938 106.272 22.2923C105.524 24.3868 104.626 26.631 103.729 28.7255C103.28 29.9224 104.178 30.6704 104.477 31.5681C105.075 33.0642 105.823 34.5603 106.421 36.206C106.571 36.6549 106.87 37.4029 106.421 37.7021C105.823 38.0013 105.524 37.2533 105.225 36.9541C104.028 35.3084 103.43 33.513 102.532 31.7177C101.335 33.6626 100.587 35.6076 99.2412 37.2533C98.942 37.7021 98.6429 38.4502 97.8949 38.0013C97.2966 37.7021 97.5958 36.9541 97.7454 36.3556C98.1941 34.4107 99.6899 32.765 100.288 30.9697L100.438 30.9693Z" fill="#0D0D0D"/>
<path d="M162.668 116.396C163.266 113.703 163.715 111.31 164.163 109.065C164.463 107.869 164.762 106.073 166.108 106.372C167.454 106.672 166.557 108.467 166.407 109.664C165.809 112.806 165.211 115.948 164.463 119.089C164.163 120.137 164.463 121.782 162.817 121.782C161.172 121.782 161.321 120.137 161.022 119.089C160.274 116.396 159.676 113.703 158.928 111.01C158.778 110.262 158.479 109.514 159.377 109.215C160.274 108.916 160.573 109.813 160.873 110.412C161.471 112.207 161.92 114.152 162.668 116.396Z" fill="#0D0D0D"/>
<path d="M67.5292 119.987C67.6787 122.83 67.8283 125.224 67.5291 127.617C67.5291 128.066 67.5291 128.814 66.9308 128.964C66.1828 129.114 66.0333 128.366 65.7341 127.917C64.8366 126.121 64.5374 124.326 64.5374 122.381C64.3878 119.539 64.3878 116.546 64.8366 113.704C64.8366 112.806 65.1357 111.759 66.3324 111.908C67.3795 111.908 67.5291 112.956 67.5291 113.853C67.5291 116.097 67.5291 118.342 67.5291 120.137L67.5292 119.987Z" fill="#080909"/>
<path d="M143.072 39.1976C142.922 41.4418 143.371 43.9851 142.773 46.3789C142.773 46.9774 142.623 47.7254 141.875 47.7254C141.277 47.7254 141.127 47.127 140.977 46.5285C140.379 44.7332 140.529 42.9379 140.529 41.2922C140.529 38.0007 140.529 34.5597 140.529 31.2683C140.529 30.5202 140.529 29.6226 141.576 29.473C142.623 29.473 142.623 30.3706 142.773 31.1187C143.221 33.662 143.072 36.355 143.072 39.1976Z" fill="#080909"/>
<path d="M157.431 56.2534C157.431 58.4976 157.431 60.5918 157.431 62.8359C157.431 63.4343 157.282 64.1824 157.132 64.7808C157.132 65.2297 156.983 65.5289 156.534 65.5289C156.085 65.5289 155.786 65.2297 155.636 64.9305C155.188 64.0328 155.038 63.2847 155.038 62.3871C155.038 57.8988 155.188 53.4105 155.636 49.0718C155.636 48.3237 155.636 47.2765 156.683 47.2765C157.88 47.2765 157.731 48.3237 157.731 49.2214C157.731 51.6151 157.731 54.0089 157.731 56.4027C157.731 56.4027 157.581 56.4027 157.431 56.4027L157.431 56.2534Z" fill="#0D0D0D"/>
<path d="M81.291 45.6313C80.543 45.7809 80.0943 45.4817 79.7951 44.7336C79.4959 43.836 79.3463 42.9383 79.3463 41.891C79.3463 38.45 79.3463 35.1586 79.3463 31.7175C79.3463 31.4183 79.3463 30.9695 79.3463 30.6703C79.3463 29.9222 79.6455 29.1742 80.543 29.1742C81.4405 29.1742 81.7397 29.9222 81.7397 30.6703C82.1884 33.8121 82.338 37.1035 82.338 40.2453C82.338 41.7414 82.338 43.3871 81.5901 44.7336C81.5901 44.8832 81.5901 45.0328 81.4405 45.1825C81.4405 45.1825 81.2909 45.3321 81.1414 45.4817L81.291 45.6313Z" fill="#050708"/>
<path d="M162.965 55.8046C162.816 58.4976 162.666 61.0408 162.517 63.7338C162.517 64.6314 162.517 65.8283 161.32 65.8283C160.273 65.8283 160.273 64.4818 160.422 63.5842C160.572 58.647 160.871 53.5603 161.17 48.6232C161.17 47.8751 161.17 46.8278 162.367 46.9774C163.265 46.9774 163.115 48.0247 163.115 48.7728C163.115 51.1665 163.115 53.5603 163.115 55.9541C163.115 55.9541 163.115 55.9541 162.965 55.9541L162.965 55.8046Z" fill="#0D0D0D"/>
<path d="M157.73 122.68C157.431 123.578 157.731 124.775 156.534 124.775C155.337 124.775 155.038 123.578 154.888 122.681C154.29 119.09 153.841 115.649 153.392 112.058C153.392 111.31 153.093 110.712 153.093 109.964C153.093 109.365 153.093 108.767 153.841 108.617C154.589 108.617 155.038 108.917 155.188 109.515C155.636 111.161 156.085 112.956 156.384 114.751C156.833 117.444 157.282 119.988 157.581 122.681L157.73 122.68Z" fill="#0D0D0D"/>
<path d="M175.979 81.6871C176.279 83.9313 176.727 86.1753 175.979 88.4195C175.83 88.8683 175.68 89.6164 175.082 89.6164C174.483 89.6164 174.334 89.0179 174.035 88.5691C173.586 87.821 173.436 86.9234 173.287 86.0257C172.988 82.8839 173.287 79.5925 173.287 76.4507C173.287 75.7026 173.436 74.805 174.484 74.805C175.531 74.805 175.68 75.7026 175.68 76.4507C175.68 78.246 175.68 80.0413 175.68 81.8366L175.979 81.6871Z" fill="#0D0D0D"/>
<path d="M114.201 25.8824C114.201 24.8351 114.201 23.7879 114.35 22.8902C114.35 22.2917 114.65 21.6933 115.398 21.6933C116.145 21.6933 116.145 22.2917 116.295 22.8902C116.295 23.6382 116.295 24.3863 116.445 25.1343C116.445 28.1265 116.445 31.2684 116.445 34.2606C116.445 35.6071 116.295 36.9535 115.846 38.3C115.846 38.5993 115.547 39.0481 115.098 39.0481C114.65 39.0481 114.5 38.7489 114.35 38.3C113.902 37.1032 113.902 35.9063 113.902 34.859C113.902 31.8668 114.051 28.8746 114.201 25.8824Z" fill="#0D0D0D"/>
<path d="M90.2677 140.932C90.2677 139.736 90.2677 137.94 90.2677 135.995C90.2677 135.247 90.2677 134.649 91.1652 134.499C92.0627 134.499 92.3619 135.098 92.5115 135.846C92.9602 140.035 93.2594 144.374 93.1098 148.712C93.1098 149.311 93.1098 150.208 92.2123 150.358C91.3147 150.358 91.1652 149.61 91.0156 148.862C90.2677 146.468 90.5668 144.074 90.2677 140.932Z" fill="#0D0D0D"/>
<path d="M108.666 27.3785C108.966 26.032 108.816 24.8351 108.966 23.4886C108.966 22.7406 108.816 21.6933 109.863 21.6933C111.06 21.6933 110.91 22.7406 110.91 23.6382C110.91 24.5359 110.91 25.5832 111.06 26.4808C111.06 29.0242 110.91 31.418 110.761 33.9613C110.761 34.5598 110.761 35.3078 110.761 35.9063C110.611 36.6543 110.761 38.1504 109.713 38.1504C108.517 38.1504 108.517 36.8039 108.517 35.9063C108.517 33.0637 108.517 30.3707 108.517 27.5281L108.666 27.3785Z" fill="#0D0D0D"/>
<path d="M113.751 148.264C113.751 146.768 113.751 145.122 113.751 143.626C113.751 142.878 113.751 141.98 114.798 141.98C115.696 141.98 115.696 142.728 115.845 143.476C116.294 147.067 116.593 150.658 116.593 154.248C116.593 154.996 116.593 156.193 115.546 156.343C114.499 156.343 114.2 155.295 114.05 154.398C113.452 152.453 113.901 150.358 113.901 148.413L113.751 148.264Z" fill="#0D0D0D"/>
<path d="M62.8921 124.775C62.8921 125.972 62.8921 127.169 62.7425 128.365C62.7425 128.665 62.7425 129.114 62.2937 129.263C61.845 129.263 61.5458 128.964 61.3962 128.665C60.9474 127.767 60.6483 126.72 60.6483 125.523C60.3491 121.932 60.4987 118.342 60.6483 114.901C60.9474 114.302 60.6491 113.105 61.6962 113.255C62.7433 113.255 62.5937 114.452 62.5937 115.2C62.7433 118.491 63.0425 121.633 63.192 124.924L62.8921 124.775Z" fill="#0D0D0D"/>
<path d="M88.7705 147.964C88.7705 148.264 88.7709 148.563 88.7709 148.862C88.7709 149.311 88.7709 149.76 88.3221 149.91C87.7238 150.059 87.4246 149.61 87.2751 149.162C86.5271 147.665 86.3775 146.02 86.2279 144.524C85.9288 141.681 85.7792 138.689 85.6296 135.846C85.6296 135.248 85.6296 134.35 86.3775 134.201C87.4246 134.051 87.5742 134.949 87.5742 135.547C88.1725 139.736 88.6213 143.776 89.0701 147.965L88.7705 147.964Z" fill="#0D0D0D"/>
<path d="M164.911 82.4356C164.911 80.4906 164.911 78.6953 164.911 76.7504C164.911 76.0023 164.911 75.1047 165.809 75.1047C166.856 75.1047 166.856 76.0023 166.856 76.6008C167.155 80.6402 167.304 84.8293 167.454 88.8688C167.454 89.4672 167.454 90.0657 167.155 90.6641C167.155 90.9633 167.005 91.2626 166.556 91.2626C166.108 91.2626 165.958 91.1129 165.659 90.8137C165.061 89.9161 165.061 88.7192 165.061 87.6719C165.061 85.8766 164.911 84.2309 164.761 82.4356H164.911Z" fill="#0D0D0D"/>
<path d="M169.697 82.2856C169.697 80.4903 169.698 78.6949 169.698 76.8996C169.698 76.1515 169.997 75.4035 170.894 75.4035C171.792 75.4035 172.091 76.1515 172.091 76.8996C172.091 80.7894 172.39 84.6793 171.792 88.4195C171.792 89.018 171.792 89.9156 170.894 90.0652C169.997 90.0652 169.847 89.1676 169.847 88.4195C169.398 86.325 169.548 84.2305 169.847 82.1359L169.697 82.2856Z" fill="#080909"/>
<path d="M69.7729 120.287C69.7729 118.491 69.7732 116.696 69.7732 114.901C69.7732 114.152 69.7732 113.404 70.6707 113.404C71.4186 113.404 71.5682 114.152 71.5682 114.751C71.8674 118.79 72.4657 122.979 71.8674 127.019C71.8674 127.617 71.8674 128.515 70.9699 128.665C70.0724 128.665 70.0724 127.767 69.9228 127.019C69.3244 124.775 69.7732 122.531 69.6236 120.287L69.7729 120.287Z" fill="#0D0D0D"/>
<path d="M81.5905 45.3322C81.5905 45.1826 81.5905 45.033 81.7401 44.8833C81.7401 45.1826 81.74 45.3322 81.5905 45.3322Z" fill="#AEE6F6"/>
<path d="M51.6731 51.1666C53.4681 51.4659 53.7677 53.1118 54.8148 54.1591C56.6099 56.2537 56.6099 56.4033 57.9561 54.1591C58.5545 53.2615 59.0033 52.5134 59.6016 51.6157C59.9008 51.1669 60.3495 50.5685 61.0975 51.0173C61.6958 51.4661 61.2471 51.915 61.0975 52.5134C60.2 54.0095 59.3024 55.5056 58.4049 57.0017C57.8065 57.8994 57.9561 58.4978 58.5545 59.2459C60.0503 61.0412 61.3966 62.9861 62.1446 65.2303C62.2941 65.8287 62.8925 66.7264 62.1446 67.1752C61.3966 67.4744 60.9479 66.7264 60.4991 66.2775C59.1529 64.4822 57.8066 62.6869 56.4603 60.5924C54.6652 63.4349 52.8702 66.2775 51.0752 68.9705C50.6264 69.7186 50.1776 70.9155 48.981 70.1674C48.8314 68.8209 49.4297 67.624 50.1776 66.5768C51.6735 64.183 53.1694 61.9388 54.8148 59.5451C55.2636 58.797 55.2636 58.3482 54.8148 57.7498C53.7677 56.4033 52.8702 54.9072 51.9727 53.4111C51.5239 52.663 51.3743 52.0646 51.9727 51.3165L51.6731 51.1666Z" fill="#0D0D0D"/>
<path d="M73.9615 40.9931C73.2136 42.6389 72.4656 44.135 71.7177 45.4814C71.4185 46.2295 70.9698 46.9775 70.2218 47.576C69.9227 47.8752 69.4739 48.0248 69.0251 47.8752C68.5764 47.7256 68.5764 47.2768 68.4268 46.8279C68.4268 46.0799 68.7259 45.3318 69.0251 44.5838C69.9226 42.9381 70.6706 41.1428 71.5681 39.497C72.1665 38.5994 72.0169 37.8513 71.4185 36.9537C70.3714 35.6072 69.6235 34.4103 68.5764 33.0638C68.2772 32.615 67.8284 32.1661 68.5764 31.7173C69.0251 31.2685 69.6235 31.5677 70.0722 32.0165C71.2689 33.2134 72.316 34.4103 73.5127 35.7568C74.2607 34.1111 74.859 32.615 75.4574 31.1189C75.7565 30.5204 76.2053 29.7724 77.1028 30.0716C78.0003 30.3708 77.8507 31.2685 77.5516 31.8669C76.9532 33.6622 76.3549 35.308 75.6069 36.9537C75.1582 37.8513 75.3078 38.5994 75.9061 39.3474C76.9532 40.8435 78.0003 42.3396 78.5987 44.135C78.7482 44.5838 78.8978 45.1822 78.5987 45.4814C78.0003 45.9303 77.5515 45.4814 77.1028 45.1822C75.6069 44.135 75.1582 42.3396 73.9615 40.9931Z" fill="#07090A"/>
<path d="M47.1855 83.3328C48.083 83.3328 48.5322 83.7818 48.981 84.5298C49.4297 85.7267 50.0281 86.774 50.6264 88.1205C51.3744 86.6244 52.1223 85.1283 52.8702 83.7818C53.1694 83.1833 53.4686 82.5849 54.2165 83.0337C54.9644 83.3329 54.6653 83.9314 54.5157 84.5298C53.7678 86.1755 53.1694 87.9709 52.4215 89.6166C51.9727 90.5142 52.1223 91.1127 52.4215 92.0103C53.1694 93.5064 54.2165 95.0025 54.6653 96.6482C54.8148 97.3963 55.4132 98.1443 54.6653 98.5932C53.9173 99.042 53.319 98.1444 52.7206 97.6955C51.6735 96.7979 51.0752 95.601 50.3273 94.1049C49.4297 95.9002 48.6818 97.5459 47.9339 99.1916C47.6347 99.6405 47.4851 100.388 46.7372 100.239C46.1388 99.9397 46.2884 99.3412 46.2884 98.7428C46.2884 96.7979 47.3355 95.1521 48.0835 93.3568C48.3826 92.6088 48.981 92.0103 48.8314 91.2623C48.5322 89.467 47.3355 87.8212 46.8868 86.0259C46.5876 85.1283 46.2884 84.2306 47.0364 83.3329L47.1855 83.3328Z" fill="#07090A"/>
<path d="M47.6343 114.152C48.831 113.704 49.1302 114.601 49.4294 115.499C50.6261 119.239 51.8228 122.83 53.0195 127.019C53.7674 124.326 53.917 122.082 54.2162 119.838C54.5153 118.192 54.6649 116.696 54.9641 115.05C54.9641 114.601 55.1137 114.152 55.4128 113.704C55.712 113.255 56.0112 112.507 56.6096 112.656C57.3575 112.656 57.0583 113.554 57.2079 114.003C57.2079 114.302 57.2079 114.751 57.2079 115.05C57.2079 115.2 57.0583 115.499 56.9087 115.649C56.4599 119.987 55.8616 124.176 54.8145 128.365C54.6649 129.263 54.5153 130.31 53.4682 130.46C52.2715 130.61 51.9724 129.562 51.5236 128.665C49.7286 124.476 48.5318 120.137 47.1856 115.649C47.036 115.2 47.1856 114.601 47.1856 114.003L47.6343 114.152Z" fill="#0D0D0D"/>
<path d="M47.6343 114.152C47.4847 114.601 47.3356 115.2 47.6348 115.798C48.9811 120.137 50.0282 124.625 51.9728 128.814C52.272 129.712 52.5711 130.759 53.9174 130.609C54.9645 130.46 55.1141 129.412 55.2637 128.515C56.3108 124.326 56.9092 119.987 57.3579 115.798C57.3579 115.648 57.5075 115.349 57.6571 115.2C59.0033 115.948 58.5546 117.294 58.405 118.491C57.8066 122.082 57.2083 125.822 55.8621 129.263C55.5629 129.861 55.2637 130.609 54.9645 131.208C53.9174 132.704 52.4216 132.704 51.5241 131.208C48.9811 126.42 46.8869 121.633 45.5406 116.396C45.391 115.648 45.5406 114.751 46.1389 114.302C46.7373 114.003 47.3356 114.003 47.6348 114.601L47.6343 114.152Z" fill="#F3F7F8"/>
<path d="M51.6731 51.1666C51.0747 51.9147 51.2243 52.5136 51.6731 53.2617C52.5706 54.7578 53.4681 56.1042 54.5152 57.6003C54.964 58.3484 55.1136 58.7972 54.5152 59.3957C52.8698 61.6398 51.3739 64.0336 49.878 66.4274C49.1301 67.4746 48.5317 68.6715 48.6813 70.018C46.7367 70.018 46.1384 69.1203 47.0359 67.4746C48.3822 64.7816 49.878 62.2383 51.3739 59.6949C51.9723 58.6476 52.1218 57.75 51.0747 56.7027C50.1772 55.805 49.5789 54.6082 49.1301 53.4113C48.8309 52.5136 49.1301 51.9152 49.5789 51.3167C50.1772 50.5687 50.9252 50.8679 51.5235 51.3167L51.6731 51.1666Z" fill="#F3F7F8"/>
<path d="M41.0529 83.6321C42.2496 82.5848 42.6984 82.5848 42.9976 84.0809C43.2967 85.8763 43.4463 87.6716 43.5959 89.6165C43.5959 92.9079 43.5959 96.1994 43.5959 99.4908C43.5959 100.239 43.5959 100.688 42.6984 100.837C41.2025 99.6404 41.2025 97.8451 41.2025 96.0498C41.2025 91.8607 41.0529 87.8212 40.9034 83.6321H41.0529Z" fill="#0D0D0D"/>
<path d="M41.0529 83.6321C41.0529 87.8212 41.0525 91.8603 41.3517 96.0494C41.3517 97.6951 41.3516 99.4907 42.8475 100.837C41.202 101.286 40.0054 100.837 39.8558 99.0416C39.1079 94.4037 39.2575 89.9154 39.8558 85.2775C39.8558 84.5294 40.155 83.7814 41.2021 83.7814L41.0529 83.6321Z" fill="#F4FAFC"/>
<path d="M47.1855 83.3328C46.4375 84.2305 46.7369 85.1278 47.0361 86.0255C47.4849 87.8208 48.6815 89.4665 48.9807 91.2618C47.1857 90.3642 44.6427 85.8759 45.0914 84.0805C45.3906 82.7341 46.1386 82.5844 47.3352 83.4821L47.1855 83.3328Z" fill="#F4F4F4"/>
<path d="M73.514 143.027C73.8132 143.177 73.8132 143.476 73.8132 143.775C73.3644 143.626 73.3644 143.326 73.514 143.027Z" fill="#FDFDFD"/>
<path d="M105.225 188.21C104.926 189.107 104.178 189.257 103.43 189.407C102.832 189.407 102.682 189.257 102.832 188.659C103.131 187.911 103.43 187.163 104.327 187.312C104.926 187.312 105.075 187.761 105.225 188.359L105.225 188.21Z" fill="#131313"/>
<path d="M107.32 189.107C106.871 189.107 106.572 189.107 106.572 188.808C106.722 188.06 107.17 187.312 108.068 187.012C108.517 187.012 108.965 187.162 108.965 187.76C108.965 188.957 107.918 188.808 107.32 189.107Z" fill="#131313"/>
<path d="M101.636 187.761C101.337 188.659 100.439 188.808 99.6912 189.108C99.2425 189.108 99.2425 188.808 99.2425 188.509C99.5416 187.761 99.8408 186.863 100.888 186.863C101.337 186.863 101.636 187.163 101.636 187.761Z" fill="#131313"/>
<path d="M111.507 189.107C110.909 189.107 110.76 189.107 110.91 188.659C110.91 187.761 111.359 186.863 112.406 186.714C112.854 186.714 113.154 187.013 113.154 187.462C113.154 188.509 112.107 188.659 111.658 189.107L111.507 189.107Z" fill="#131313"/>
<path d="M122.577 188.659C122.577 189.257 122.128 189.556 121.53 189.706C120.932 189.706 120.932 189.407 120.932 188.958C120.932 188.359 121.231 187.911 121.829 187.911C122.278 187.911 122.577 188.21 122.577 188.808L122.577 188.659Z" fill="#131313"/>
<path d="M116.744 188.958C116.146 188.958 116.146 188.658 116.146 188.21C116.146 187.611 116.445 187.162 117.043 187.162C117.492 187.162 117.642 187.461 117.642 187.91C117.642 188.509 117.193 188.808 116.744 189.107V188.958Z" fill="#131313"/>
<path d="M123.325 51.7651C123.325 51.6155 123.326 51.466 123.625 51.466C123.625 51.466 123.625 51.7652 123.625 51.9148C123.625 51.9148 123.475 51.9148 123.475 51.7652L123.325 51.7651Z" fill="#FDFDFD"/>
<defs>
<filter id="filter0_d_2637_15924" x="0" y="21" width="185" height="185" filterUnits="userSpaceOnUse" color-interpolation-filters="sRGB">
<feFlood flood-opacity="0" result="BackgroundImageFix"/>
<feColorMatrix in="SourceAlpha" type="matrix" values="0 0 0 0 0 0 0 0 0 0 0 0 0 0 0 0 0 0 127 0" result="hardAlpha"/>
<feOffset dx="-5" dy="5"/>
<feComposite in2="hardAlpha" operator="out"/>
<feColorMatrix type="matrix" values="0 0 0 0 0 0 0 0 0 0 0 0 0 0 0 0 0 0 1 0"/>
<feBlend mode="normal" in2="BackgroundImageFix" result="effect1_dropShadow_2637_15924"/>
<feBlend mode="normal" in="SourceGraphic" in2="effect1_dropShadow_2637_15924" result="shape"/>
</filter>
</defs>
</svg>
