<svg width="1920" height="1082" viewBox="0 0 1920 1082" fill="none" xmlns="http://www.w3.org/2000/svg">
<g clip-path="url(#clip0_2144_5298)">
<rect width="1920" height="1082" fill="white"/>
<g clip-path="url(#clip1_2144_5298)">
<path d="M1680.93 -4.53516H-0.933594V981.829H1680.93V-4.53516Z" fill="white"/>
<path d="M1681.2 981.829L1261.2 982.629L840.667 983.163H630.267C630.267 983.296 419.867 983.296 419.867 983.296L-0.933333 982.763C-1.46667 982.763 -2 982.229 -2 981.695L-1.6 735.071V488.446L-2 -4.66918C-2 -5.3361 -1.46667 -5.73624 -0.933333 -5.73624L840 -6.66992H1260.53H1681.07C1682.13 -6.66992 1682.93 -5.86963 1682.93 -4.80256L1682.27 488.847L1681.2 981.695V981.829ZM1680.93 981.562L1679.87 488.046L1679.2 -4.66918L1681.07 -2.80183H1260.53C1260.53 -2.66844 840 -2.80183 840 -2.80183L-0.933333 -3.46874L0.133333 -4.5358L-0.266667 488.58V735.204L0.133333 981.829L-0.933333 980.762L419.2 980.228H629.2L839.333 980.362L1259.73 980.895L1680.8 981.695L1680.93 981.562Z" fill="black"/>
<path d="M1049.6 902.198C1061.73 901.932 1073.73 901.798 1085.87 901.665H1122.13C1122.13 901.531 1158.4 901.665 1158.4 901.665H1176.53C1176.53 901.798 1194.67 902.198 1194.67 902.198L1176.53 902.465H1158.4C1158.4 902.598 1122.13 902.865 1122.13 902.865H1085.87C1073.73 902.598 1061.73 902.465 1049.6 902.198Z" fill="#BFBAB8"/>
<path d="M997.066 874.989L1023.07 874.722L1049.07 874.456L1101.07 874.322L1153.07 874.456L1179.07 874.722L1205.07 874.989L1179.07 875.256L1153.07 875.523L1101.07 875.656L1049.07 875.523L1023.07 875.256L997.066 874.989Z" fill="#BFBAB8"/>
<path d="M1128.8 875.256C1129.33 879.657 1129.47 884.059 1129.47 888.461C1129.47 892.862 1129.33 897.264 1128.8 901.666C1128.27 897.264 1128.13 892.862 1128.13 888.461C1128.13 884.059 1128.27 879.657 1128.8 875.256Z" fill="#BFBAB8"/>
<path d="M1130 821.369C1130.53 825.771 1130.67 830.172 1130.67 834.574C1130.67 838.976 1130.53 843.377 1130 847.779C1129.47 843.377 1129.33 838.976 1129.33 834.574C1129.33 830.172 1129.47 825.771 1130 821.369Z" fill="#BFBAB8"/>
<path d="M1103.47 874.589C1102.93 870.454 1102.8 866.319 1102.8 862.184C1102.8 858.049 1102.93 853.914 1103.47 849.779C1104 853.914 1104.13 858.049 1104.13 862.184C1104.13 866.319 1104 870.454 1103.47 874.589Z" fill="#BFBAB8"/>
<path d="M1160.93 874.589C1160.4 870.454 1160.27 866.319 1160.27 862.184C1160.27 858.049 1160.4 853.914 1160.93 849.779C1161.47 853.914 1161.6 858.049 1161.6 862.184C1161.6 866.319 1161.47 870.454 1160.93 874.589Z" fill="#BFBAB8"/>
<path d="M1045.07 848.847C1056.67 848.58 1068.27 848.447 1079.87 848.313H1114.67C1114.67 848.18 1149.47 848.313 1149.47 848.313H1166.8C1166.8 848.447 1184.13 848.847 1184.13 848.847L1166.8 849.113H1149.47C1149.47 849.247 1114.67 849.514 1114.67 849.514H1079.87C1068.27 849.247 1056.67 849.114 1045.07 848.847Z" fill="#BFBAB8"/>
<path d="M1103.07 902.6C1103.6 906.734 1103.73 910.869 1103.73 915.138C1103.73 919.272 1103.6 923.407 1103.07 927.676C1102.53 923.541 1102.4 919.406 1102.4 915.138C1102.4 911.003 1102.53 906.868 1103.07 902.6Z" fill="#BFBAB8"/>
<path d="M1160.93 902.465C1161.47 906.6 1161.6 910.735 1161.6 915.003C1161.6 919.138 1161.47 923.273 1160.93 927.541C1160.4 923.406 1160.27 919.271 1160.27 915.003C1160.27 910.868 1160.4 906.733 1160.93 902.465Z" fill="#BFBAB8"/>
<path d="M794.667 717.865H765.2C765.733 713.33 765.867 709.062 765.867 704.66C765.867 700.392 765.733 696.124 765.2 691.722H789.333L815.333 691.455L841.333 691.188L815.333 690.922H797.2C797.733 686.653 797.867 682.519 797.867 678.384C797.867 674.249 797.733 670.114 797.2 665.979C796.667 670.114 796.533 674.249 796.533 678.384C796.533 682.519 796.667 686.653 797.2 690.788H789.333L739.867 690.521C740.4 686.387 740.533 682.385 740.533 678.25C740.533 674.115 740.4 669.981 739.867 665.846C739.333 669.981 739.2 674.115 739.2 678.25C739.2 682.385 739.333 686.387 739.867 690.521H737.467L685.467 690.655H659.467C659.467 690.788 633.467 691.188 633.467 691.188L659.467 691.455H685.467C685.467 691.589 737.467 691.855 737.467 691.855H765.333C764.8 696.124 764.667 700.392 764.667 704.66C764.667 709.062 764.8 713.33 765.333 717.732H758.667H722.4C710.267 717.732 698.267 717.998 686.133 718.265C698.267 718.532 710.267 718.665 722.4 718.799H739.6C739.067 722.933 738.933 727.068 738.933 731.07C738.933 735.205 739.067 739.34 739.6 743.608C740.133 739.473 740.267 735.338 740.267 731.07C740.267 726.935 740.133 722.933 739.6 718.799H758.667H794.933H797.467C796.933 722.8 796.8 726.935 796.8 731.07C796.8 735.205 796.933 739.34 797.467 743.608C798 739.473 798.133 735.338 798.133 731.07C798.133 726.935 798 722.933 797.467 718.799H813.067C813.067 718.665 831.2 718.265 831.2 718.265L813.067 717.998H794.933L794.667 717.865Z" fill="#BFBAB8"/>
<path d="M766.801 650.906C766.801 646.504 766.667 642.103 766.134 637.701C765.6 642.103 765.467 646.504 765.467 650.906C765.467 655.308 765.6 659.709 766.134 664.111C766.667 659.709 766.801 655.308 766.801 650.906Z" fill="#BFBAB8"/>
<path d="M750.933 665.713H785.733C785.733 665.579 803.066 665.313 803.066 665.313L820.4 665.046L803.066 664.779H785.733C785.733 664.646 750.933 664.379 750.933 664.379H716.133C704.533 664.646 692.933 664.779 681.333 665.046C692.933 665.313 704.533 665.446 716.133 665.579H750.933V665.713Z" fill="#BFBAB8"/>
<path d="M971.867 525.795H942.4C943.333 516.991 943.333 508.321 942.4 499.652C964.933 499.652 995.867 499.385 1018.53 499.118C1007.87 498.985 984.933 498.718 974.4 498.718C975.333 490.448 975.333 482.045 974.4 473.775C973.466 482.045 973.466 490.448 974.4 498.718C970.8 498.718 922 498.585 916.933 498.451C917.867 490.181 917.867 481.912 916.933 473.775C916 482.045 916 490.315 916.933 498.451C886.4 498.451 840.667 498.585 810.533 499.118C833.867 499.518 865.6 499.652 888.933 499.652C888.933 499.652 888.933 525.795 888.933 525.928C880.267 525.928 871.733 526.195 863.066 526.328C880.266 526.728 899.2 526.862 916.533 526.862C915.6 535.131 915.6 543.401 916.533 551.671C917.467 543.401 917.467 535.131 916.533 526.862C930 526.862 960.666 526.862 974.4 526.862C973.466 535.131 973.466 543.401 974.4 551.671C975.333 543.401 975.333 535.131 974.4 526.862C982.666 526.862 999.733 526.595 1008.13 526.328C999.066 526.195 980.933 525.928 971.867 525.795ZM899.333 525.795C896.267 525.795 893.2 525.795 890.267 525.795V499.652C903.067 499.652 929.466 499.652 942.4 499.652C941.6 508.321 941.466 516.991 942.4 525.661C938.666 525.661 904 525.661 899.466 525.661L899.333 525.795Z" fill="#BFBAB8"/>
<path d="M944.134 458.836C944.134 454.434 944.001 450.032 943.467 445.631C942.533 454.434 942.533 463.371 943.467 472.174C944.001 467.772 944.134 463.371 944.134 458.969V458.836Z" fill="#BFBAB8"/>
<path d="M928.267 473.508C948 473.508 978.267 473.374 997.867 472.841C953.2 471.907 903.466 471.907 858.8 472.841C878.933 473.374 908 473.374 928.4 473.508H928.267Z" fill="#BFBAB8"/>
<path d="M703.467 528.861H674C674.533 524.326 674.667 520.058 674.667 515.656C674.667 511.388 674.533 507.12 674 502.718H698.133L724.133 502.451L750.133 502.184L724.133 501.918H706C706.533 497.649 706.667 493.515 706.667 489.38C706.667 485.245 706.533 481.11 706 476.975C705.467 481.11 705.333 485.245 705.333 489.38C705.333 493.515 705.467 497.65 706 501.784H698.133L648.667 501.518C649.2 497.383 649.333 493.381 649.333 489.246C649.333 485.112 649.2 480.977 648.667 476.842C648.133 480.977 648 485.112 648 489.246C648 493.381 648.133 497.383 648.667 501.518H646.267L594.267 501.651H568.267C568.267 501.784 542.267 502.184 542.267 502.184L568.267 502.451H594.267C594.267 502.585 646.267 502.851 646.267 502.851H674.133C673.6 507.12 673.467 511.388 673.467 515.656C673.467 520.058 673.6 524.326 674.133 528.728H667.467H631.2C619.067 528.728 607.067 528.994 594.933 529.261C607.067 529.528 619.067 529.661 631.2 529.795H648.4C647.867 533.93 647.733 538.064 647.733 542.066C647.733 546.201 647.867 550.336 648.4 554.604C648.933 550.469 649.067 546.334 649.067 542.066C649.067 537.931 648.933 533.93 648.4 529.795H667.467H703.733H706.267C705.733 533.796 705.6 537.931 705.6 542.066C705.6 546.201 705.733 550.336 706.267 554.604C706.8 550.469 706.933 546.334 706.933 542.066C706.933 537.931 706.8 533.93 706.267 529.795H721.867C721.867 529.661 740 529.261 740 529.261L721.867 528.994H703.733L703.467 528.861Z" fill="#BFBAB8"/>
<path d="M675.733 461.769C675.733 457.368 675.6 452.966 675.066 448.564C674.533 452.966 674.399 457.368 674.399 461.769C674.399 466.171 674.533 470.573 675.066 474.974C675.6 470.573 675.733 466.171 675.733 461.769Z" fill="#BFBAB8"/>
<path d="M659.733 476.576H694.533C694.533 476.443 711.866 476.176 711.866 476.176L729.2 475.909L711.866 475.642H694.533C694.533 475.509 659.733 475.242 659.733 475.242H624.933C613.333 475.509 601.733 475.642 590.133 475.909C601.733 476.176 613.333 476.309 624.933 476.443H659.733V476.576Z" fill="#BFBAB8"/>
<path d="M1375.6 395.746H1346.13C1346.67 391.211 1346.8 386.943 1346.8 382.541C1346.8 378.273 1346.67 374.004 1346.13 369.603H1370.27L1396.27 369.336L1422.27 369.069L1396.27 368.802H1378.13C1378.67 364.534 1378.8 360.399 1378.8 356.265C1378.8 352.13 1378.67 347.995 1378.13 343.86C1377.6 347.995 1377.47 352.13 1377.47 356.265C1377.47 360.399 1377.6 364.534 1378.13 368.669H1370.27L1320.8 368.402C1321.33 364.267 1321.47 360.266 1321.47 356.131C1321.47 351.996 1321.33 347.861 1320.8 343.727C1320.27 347.861 1320.13 351.996 1320.13 356.131C1320.13 360.266 1320.27 364.267 1320.8 368.402H1318.4L1266.4 368.536H1240.4C1240.4 368.669 1214.4 369.069 1214.4 369.069L1240.4 369.336H1266.4C1266.4 369.469 1318.4 369.736 1318.4 369.736H1346.27C1345.73 374.004 1345.6 378.273 1345.6 382.541C1345.6 386.943 1345.73 391.211 1346.27 395.612H1339.6H1303.33C1291.2 395.612 1279.2 395.879 1267.07 396.146C1279.2 396.413 1291.2 396.546 1303.33 396.679H1320.53C1320 400.814 1319.87 404.949 1319.87 408.951C1319.87 413.086 1320 417.22 1320.53 421.489C1321.07 417.354 1321.2 413.219 1321.2 408.951C1321.2 404.816 1321.07 400.814 1320.53 396.679H1339.6H1375.87H1378.4C1377.87 400.681 1377.73 404.816 1377.73 408.951C1377.73 413.086 1377.87 417.22 1378.4 421.489C1378.93 417.354 1379.07 413.219 1379.07 408.951C1379.07 404.816 1378.93 400.814 1378.4 396.679H1394C1394 396.546 1412.13 396.146 1412.13 396.146L1394 395.879H1375.87L1375.6 395.746Z" fill="#BFBAB8"/>
<path d="M1347.87 328.787C1347.87 324.385 1347.73 319.984 1347.2 315.582C1346.67 319.984 1346.53 324.385 1346.53 328.787C1346.53 333.189 1346.67 337.59 1347.2 341.992C1347.73 337.59 1347.87 333.189 1347.87 328.787Z" fill="#BFBAB8"/>
<path d="M1331.87 343.592H1366.67C1366.67 343.458 1384 343.191 1384 343.191L1401.33 342.925L1384 342.658H1366.67C1366.67 342.525 1331.87 342.258 1331.87 342.258H1297.07C1285.47 342.525 1273.87 342.658 1262.27 342.925C1273.87 343.191 1285.47 343.325 1297.07 343.458H1331.87V343.592Z" fill="#BFBAB8"/>
<path d="M1144.67 395.746H1115.2C1115.73 391.211 1115.87 386.943 1115.87 382.541C1115.87 378.273 1115.73 374.004 1115.2 369.603H1139.33L1165.33 369.336L1191.33 369.069L1165.33 368.802H1147.2C1147.73 364.534 1147.87 360.399 1147.87 356.265C1147.87 352.13 1147.73 347.995 1147.2 343.86C1146.67 347.995 1146.53 352.13 1146.53 356.265C1146.53 360.399 1146.67 364.534 1147.2 368.669H1139.33L1089.87 368.402C1090.4 364.267 1090.53 360.266 1090.53 356.131C1090.53 351.996 1090.4 347.861 1089.87 343.727C1089.33 347.861 1089.2 351.996 1089.2 356.131C1089.2 360.266 1089.33 364.267 1089.87 368.402H1087.47L1035.47 368.536H1009.47C1009.47 368.669 983.467 369.069 983.467 369.069L1009.47 369.336H1035.47C1035.47 369.469 1087.47 369.736 1087.47 369.736H1115.33C1114.8 374.004 1114.67 378.273 1114.67 382.541C1114.67 386.943 1114.8 391.211 1115.33 395.612H1108.67H1072.4C1060.27 395.612 1048.27 395.879 1036.13 396.146C1048.27 396.413 1060.27 396.546 1072.4 396.679H1089.6C1089.07 400.814 1088.93 404.949 1088.93 408.951C1088.93 413.086 1089.07 417.22 1089.6 421.489C1090.13 417.354 1090.27 413.219 1090.27 408.951C1090.27 404.816 1090.13 400.814 1089.6 396.679H1108.67H1144.93H1147.47C1146.93 400.681 1146.8 404.816 1146.8 408.951C1146.8 413.086 1146.93 417.22 1147.47 421.489C1148 417.354 1148.13 413.219 1148.13 408.951C1148.13 404.816 1148 400.814 1147.47 396.679H1163.07C1163.07 396.546 1181.2 396.146 1181.2 396.146L1163.07 395.879H1144.93L1144.67 395.746Z" fill="#BFBAB8"/>
<path d="M1116.93 328.787C1116.93 324.385 1116.8 319.984 1116.27 315.582C1115.73 319.984 1115.6 324.385 1115.6 328.787C1115.6 333.189 1115.73 337.59 1116.27 341.992C1116.8 337.59 1116.93 333.189 1116.93 328.787Z" fill="#BFBAB8"/>
<path d="M1101.07 343.592H1135.87C1135.87 343.458 1153.2 343.191 1153.2 343.191L1170.53 342.925L1153.2 342.658H1135.87C1135.87 342.525 1101.07 342.258 1101.07 342.258H1066.27C1054.67 342.525 1043.07 342.658 1031.47 342.925C1043.07 343.191 1054.67 343.325 1066.27 343.458H1101.07V343.592Z" fill="#BFBAB8"/>
<path d="M643.866 395.746H614.399C614.933 391.211 615.066 386.943 615.066 382.541C615.066 378.273 614.933 374.004 614.399 369.603H638.533L664.533 369.336L690.533 369.069L664.533 368.802H646.399C646.933 364.534 647.066 360.399 647.066 356.265C647.066 352.13 646.933 347.995 646.399 343.86C645.866 347.995 645.733 352.13 645.733 356.265C645.733 360.399 645.866 364.534 646.399 368.669H638.533L589.066 368.402C589.599 364.267 589.733 360.266 589.733 356.131C589.733 351.996 589.599 347.861 589.066 343.727C588.533 347.861 588.399 351.996 588.399 356.131C588.399 360.266 588.533 364.267 589.066 368.402H586.666L534.666 368.536H508.666C508.666 368.669 482.666 369.069 482.666 369.069L508.666 369.336H534.666C534.666 369.469 586.666 369.736 586.666 369.736H614.533C613.999 374.004 613.866 378.273 613.866 382.541C613.866 386.943 613.999 391.211 614.533 395.612H607.866H571.599C559.466 395.612 547.466 395.879 535.333 396.146C547.466 396.413 559.466 396.546 571.599 396.679H588.799C588.266 400.814 588.133 404.949 588.133 408.951C588.133 413.086 588.266 417.22 588.799 421.489C589.333 417.354 589.466 413.219 589.466 408.951C589.466 404.816 589.333 400.814 588.799 396.679H607.866H644.133H646.666C646.133 400.681 645.999 404.816 645.999 408.951C645.999 413.086 646.133 417.22 646.666 421.489C647.199 417.354 647.333 413.219 647.333 408.951C647.333 404.816 647.199 400.814 646.666 396.679H662.266C662.266 396.546 680.399 396.146 680.399 396.146L662.266 395.879H644.133L643.866 395.746Z" fill="#BFBAB8"/>
<path d="M616.134 328.787C616.134 324.385 616 319.984 615.467 315.582C614.933 319.984 614.8 324.385 614.8 328.787C614.8 333.189 614.933 337.59 615.467 341.992C616 337.59 616.134 333.189 616.134 328.787Z" fill="#BFBAB8"/>
<path d="M600.133 343.592H634.933C634.933 343.458 652.267 343.191 652.267 343.191L669.6 342.925L652.267 342.658H634.933C634.933 342.525 600.133 342.258 600.133 342.258H565.333C553.733 342.525 542.133 342.658 530.533 342.925C542.133 343.191 553.733 343.325 565.333 343.458H600.133V343.592Z" fill="#BFBAB8"/>
<path d="M1266.4 161.66H1236.93C1237.47 157.125 1237.6 152.857 1237.6 148.455C1237.6 144.187 1237.47 139.918 1236.93 135.517H1261.07L1287.07 135.25L1313.07 134.983L1287.07 134.717H1268.93C1269.47 130.448 1269.6 126.313 1269.6 122.179C1269.6 118.044 1269.47 113.909 1268.93 109.774C1268.4 113.909 1268.27 118.044 1268.27 122.179C1268.27 126.313 1268.4 130.448 1268.93 134.583H1261.07L1211.6 134.316C1212.13 130.182 1212.27 126.18 1212.27 122.045C1212.27 117.91 1212.13 113.775 1211.6 109.641C1211.07 113.775 1210.93 117.91 1210.93 122.045C1210.93 126.18 1211.07 130.182 1211.6 134.316H1209.2L1157.2 134.45H1131.2C1131.2 134.583 1105.2 134.983 1105.2 134.983L1131.2 135.25H1157.2C1157.2 135.383 1209.2 135.65 1209.2 135.65H1237.07C1236.53 139.918 1236.4 144.187 1236.4 148.455C1236.4 152.857 1236.53 157.125 1237.07 161.526H1230.4H1194.13C1182 161.526 1170 161.793 1157.87 162.06C1170 162.327 1182 162.46 1194.13 162.594H1211.33C1210.8 166.728 1210.67 170.863 1210.67 174.865C1210.67 179 1210.8 183.134 1211.33 187.403C1211.87 183.268 1212 179.133 1212 174.865C1212 170.73 1211.87 166.728 1211.33 162.594H1230.4H1266.67H1269.2C1268.67 166.595 1268.53 170.73 1268.53 174.865C1268.53 179 1268.67 183.134 1269.2 187.403C1269.73 183.268 1269.87 179.133 1269.87 174.865C1269.87 170.73 1269.73 166.728 1269.2 162.594H1284.8C1284.8 162.46 1302.93 162.06 1302.93 162.06L1284.8 161.793H1266.67L1266.4 161.66Z" fill="#BFBAB8"/>
<path d="M1222.8 109.373H1257.6C1257.6 109.24 1274.93 108.973 1274.93 108.973L1292.27 108.706L1274.93 108.439H1257.6C1257.6 108.306 1222.8 108.039 1222.8 108.039H1188C1176.4 108.306 1164.8 108.439 1153.2 108.706C1164.8 108.973 1176.4 109.106 1188 109.24H1222.8V109.373Z" fill="#BFBAB8"/>
<path d="M872.4 161.66H842.934C843.467 157.125 843.6 152.857 843.6 148.455C843.6 144.187 843.467 139.918 842.934 135.517H867.067L893.067 135.25L919.067 134.983L893.067 134.717H874.934C875.467 130.448 875.6 126.313 875.6 122.179C875.6 118.044 875.467 113.909 874.934 109.774C874.4 113.909 874.267 118.044 874.267 122.179C874.267 126.313 874.4 130.448 874.934 134.583H867.067L817.6 134.316C818.134 130.182 818.267 126.18 818.267 122.045C818.267 117.91 818.134 113.775 817.6 109.641C817.067 113.775 816.934 117.91 816.934 122.045C816.934 126.18 817.067 130.182 817.6 134.316H815.2L763.2 134.45H737.2C737.2 134.583 711.2 134.983 711.2 134.983L737.2 135.25H763.2C763.2 135.383 815.2 135.65 815.2 135.65H843.067C842.533 139.918 842.4 144.187 842.4 148.455C842.4 152.857 842.533 157.125 843.067 161.526H836.4H800.133C788 161.526 776 161.793 763.867 162.06C776 162.327 788 162.46 800.133 162.594H817.333C816.8 166.728 816.667 170.863 816.667 174.865C816.667 179 816.8 183.134 817.333 187.403C817.867 183.268 818 179.133 818 174.865C818 170.73 817.867 166.728 817.333 162.594H836.4H872.667H875.2C874.667 166.595 874.534 170.73 874.534 174.865C874.534 179 874.667 183.134 875.2 187.403C875.734 183.268 875.867 179.133 875.867 174.865C875.867 170.73 875.734 166.728 875.2 162.594H890.8C890.8 162.46 908.934 162.06 908.934 162.06L890.8 161.793H872.667L872.4 161.66Z" fill="#BFBAB8"/>
<path d="M844.667 94.701C844.667 90.2994 844.534 85.8977 844 81.4961C843.466 85.8977 843.333 90.2994 843.333 94.701C843.333 99.1026 843.466 103.504 844 107.906C844.534 103.504 844.667 99.1026 844.667 94.701Z" fill="#BFBAB8"/>
<path d="M828.666 109.373H863.466C863.466 109.24 880.8 108.973 880.8 108.973L898.133 108.706L880.8 108.439H863.466C863.466 108.306 828.666 108.039 828.666 108.039H793.866C782.266 108.306 770.666 108.439 759.066 108.706C770.666 108.973 782.266 109.106 793.866 109.24H828.666V109.373Z" fill="#BFBAB8"/>
<path d="M418 161.66H388.533C389.066 157.125 389.2 152.857 389.2 148.455C389.2 144.187 389.066 139.918 388.533 135.517H412.666L438.666 135.25L464.666 134.983L438.666 134.717H420.533C421.066 130.448 421.2 126.313 421.2 122.179C421.2 118.044 421.066 113.909 420.533 109.774C420 113.909 419.866 118.044 419.866 122.179C419.866 126.313 420 130.448 420.533 134.583H412.666L363.2 134.316C363.733 130.182 363.866 126.18 363.866 122.045C363.866 117.91 363.733 113.775 363.2 109.641C362.666 113.775 362.533 117.91 362.533 122.045C362.533 126.18 362.666 130.182 363.2 134.316H360.8L308.8 134.45H282.8C282.8 134.583 256.8 134.983 256.8 134.983L282.8 135.25H308.8C308.8 135.383 360.8 135.65 360.8 135.65H388.666C388.133 139.918 388 144.187 388 148.455C388 152.857 388.133 157.125 388.666 161.526H382H345.733C333.6 161.526 321.6 161.793 309.466 162.06C321.6 162.327 333.6 162.46 345.733 162.594H362.933C362.4 166.728 362.266 170.863 362.266 174.865C362.266 179 362.4 183.134 362.933 187.403C363.466 183.268 363.6 179.133 363.6 174.865C363.6 170.73 363.466 166.728 362.933 162.594H382H418.266H420.8C420.266 166.595 420.133 170.73 420.133 174.865C420.133 179 420.266 183.134 420.8 187.403C421.333 183.268 421.466 179.133 421.466 174.865C421.466 170.73 421.333 166.728 420.8 162.594H436.4C436.4 162.46 454.533 162.06 454.533 162.06L436.4 161.793H418.266L418 161.66Z" fill="#BFBAB8"/>
<path d="M390.268 94.701C390.268 90.2994 390.134 85.8977 389.601 81.4961C389.067 85.8977 388.934 90.2994 388.934 94.701C388.934 99.1026 389.067 103.504 389.601 107.906C390.134 103.504 390.268 99.1026 390.268 94.701Z" fill="#BFBAB8"/>
<path d="M374.266 109.373H409.066C409.066 109.24 426.399 108.973 426.399 108.973L443.733 108.706L426.399 108.439H409.066C409.066 108.306 374.266 108.039 374.266 108.039H339.466C327.866 108.306 316.266 108.439 304.666 108.706C316.266 108.973 327.866 109.106 339.466 109.24H374.266V109.373Z" fill="#BFBAB8"/>
<path d="M1924.8 980.096H-3.4668V1085.73H1924.8V980.096Z" fill="#D1CDCB"/>
<path d="M1674.93 980.095L1924.67 1085.73V-1.33398L1673.07 0.93352" fill="#BFBAB8"/>
<path d="M562.399 1064.66C562.932 1065.72 563.466 1066.66 564.132 1067.73C564.799 1068.79 564.799 1068.66 565.199 1069.19C565.599 1069.73 565.999 1069.99 566.399 1070.39C566.799 1070.79 567.466 1070.39 567.199 1069.86C566.932 1069.33 566.532 1068.93 566.266 1068.39C565.999 1067.86 565.599 1067.46 565.332 1067.06C564.666 1066.13 564.132 1065.19 563.599 1064.12C563.066 1063.06 563.066 1063.72 562.666 1063.86C562.266 1063.99 562.266 1064.39 562.399 1064.79V1064.66Z" fill="black"/>
<path d="M555.333 1065.59C556.133 1067.33 556.933 1068.93 557.866 1070.53C558.799 1072.13 558.399 1070.93 558.666 1070.79C558.933 1070.66 559.066 1070.26 558.933 1069.99C558.133 1068.26 557.333 1066.66 556.533 1064.93C555.733 1063.19 555.999 1064.52 555.599 1064.66C555.199 1064.79 555.199 1065.19 555.333 1065.59Z" fill="black"/>
<path d="M546.266 1065.19C546.666 1065.99 546.933 1066.79 547.333 1067.59C547.733 1068.39 547.999 1069.19 548.533 1069.86C549.066 1070.53 549.333 1069.86 549.333 1069.59C549.333 1068.66 548.799 1067.86 548.533 1066.93C548.266 1065.99 547.866 1065.33 547.466 1064.53C547.066 1063.73 546.799 1064.13 546.533 1064.26C546.266 1064.39 546.133 1064.79 546.266 1065.19Z" fill="black"/>
<path d="M537.066 1065.46C537.466 1067.06 537.999 1068.66 538.799 1070.13C539.599 1071.59 539.866 1070.26 539.733 1069.73C539.466 1068.93 539.199 1068.13 538.933 1067.46C538.666 1066.79 538.399 1065.86 538.266 1065.06C538.133 1064.26 536.933 1064.66 537.066 1065.33V1065.46Z" fill="black"/>
<path d="M528.666 1065.46C528.8 1066.26 529.066 1067.06 529.333 1067.86C529.6 1068.66 529.6 1068.66 529.733 1069.06C529.866 1069.46 529.866 1069.46 530 1069.73C530.133 1069.99 530.266 1070.13 530.4 1070.39C530.533 1070.66 530.8 1070.53 531.066 1070.39C531.333 1070.26 531.333 1069.99 531.333 1069.86C531.2 1069.06 530.8 1068.26 530.533 1067.59C530.266 1066.93 530.133 1065.99 529.866 1065.19C529.6 1064.39 529.466 1064.66 529.066 1064.79C528.666 1064.93 528.533 1065.19 528.666 1065.59V1065.46Z" fill="black"/>
<path d="M520.133 1064.66C520.133 1065.59 520.133 1066.39 520.133 1067.33C520.133 1068.26 520.266 1069.19 520.8 1069.86C521.333 1070.53 521.467 1069.99 521.467 1069.73C521.467 1068.93 521.333 1067.99 521.2 1067.19C521.067 1066.39 521.2 1065.46 521.2 1064.66C521.2 1063.86 520.933 1064.26 520.8 1064.26C520.666 1064.26 520.4 1064.52 520.4 1064.66H520.133Z" fill="black"/>
<path d="M511.199 1064.79C511.199 1065.72 511.199 1066.66 511.199 1067.59C511.199 1068.53 510.932 1069.46 511.066 1070.26C511.199 1071.06 511.733 1070.79 511.866 1070.26C512.133 1069.33 512.266 1068.39 512.266 1067.46C512.266 1066.53 512.266 1065.59 512.133 1064.66C512 1063.72 511.332 1064.12 511.332 1064.66L511.199 1064.79Z" fill="black"/>
<path d="M501.866 1065.19C501.866 1065.99 501.866 1066.79 501.733 1067.59C501.6 1068.39 501.466 1069.19 501.333 1069.99C501.199 1070.79 501.866 1070.66 502.133 1070.26C502.4 1069.46 502.533 1068.66 502.533 1067.73C502.533 1066.79 502.533 1066.13 502.533 1065.19C502.533 1064.26 501.866 1064.79 501.866 1065.19Z" fill="black"/>
<path d="M491.866 1064.93C491.866 1065.73 491.733 1066.66 491.599 1067.46C491.466 1068.26 491.599 1068.26 491.599 1068.79C491.599 1069.33 491.599 1069.73 491.599 1070.13C491.599 1070.53 492.266 1070.66 492.4 1070.13C492.533 1069.59 492.533 1069.19 492.667 1068.79C492.8 1068.39 492.667 1067.86 492.667 1067.46C492.667 1066.53 492.667 1065.73 492.667 1064.79C492.667 1063.86 491.866 1064.26 491.866 1064.79V1064.93Z" fill="black"/>
<path d="M482.399 1065.06C482.399 1065.86 482.399 1066.66 482.399 1067.46C482.399 1068.26 482.399 1069.06 482.266 1069.86C482.133 1070.66 482.933 1070.39 483.066 1069.86C483.333 1069.06 483.333 1068.26 483.333 1067.46C483.333 1066.66 483.333 1065.86 483.333 1065.06C483.333 1064.26 483.2 1064.66 482.933 1064.66C482.666 1064.66 482.533 1064.79 482.533 1065.06H482.399Z" fill="black"/>
<path d="M474.8 1064.93C474.667 1065.86 474.4 1066.66 474.266 1067.59C474.133 1068.53 473.866 1069.33 473.733 1070.26C473.599 1071.2 474.4 1070.79 474.533 1070.26C474.8 1069.46 474.933 1068.53 475.067 1067.73C475.2 1066.93 475.334 1065.99 475.467 1065.06C475.6 1064.13 474.8 1064.39 474.8 1064.93Z" fill="black"/>
<path d="M468.266 1064.93C468 1065.73 467.733 1066.39 467.599 1067.19C467.466 1067.99 467.199 1068.79 467.199 1069.59C467.199 1070.39 467.733 1069.99 467.733 1069.59C468 1068.79 468.133 1068.13 468.266 1067.33C468.4 1066.53 468.667 1065.86 468.933 1065.06C469.2 1064.26 468.4 1064.53 468.266 1064.93Z" fill="black"/>
<path d="M460.134 1064.79C460.134 1065.59 459.867 1066.39 459.733 1067.19C459.6 1067.99 459.333 1068.79 459.2 1069.59C459.066 1070.39 459.2 1069.99 459.467 1070.13C459.733 1070.26 459.867 1070.13 460 1069.99C460.4 1069.19 460.667 1068.39 460.801 1067.46C460.934 1066.53 461.067 1065.73 461.067 1064.79C461.067 1063.86 460.801 1064.39 460.667 1064.39C460.534 1064.39 460.267 1064.66 460.267 1064.79H460.134Z" fill="black"/>
<path d="M452.934 1064.79C452.667 1065.59 452.533 1066.39 452.267 1067.06C452 1067.73 452 1067.86 451.866 1068.13C451.733 1068.39 451.733 1068.93 451.6 1069.33C451.466 1069.73 452.133 1069.86 452.267 1069.46C452.4 1069.06 452.533 1068.79 452.667 1068.39C452.8 1067.99 452.8 1067.59 452.934 1067.19C453.067 1066.39 453.334 1065.59 453.467 1064.79C453.601 1063.99 452.934 1064.26 452.8 1064.66L452.934 1064.79Z" fill="black"/>
<path d="M447.733 1065.19C447.467 1065.86 447.067 1066.53 446.8 1067.33C446.533 1068.13 446.267 1068.79 446 1069.46C445.733 1070.13 446.4 1069.99 446.533 1069.59C446.8 1068.93 446.933 1068.13 447.2 1067.46C447.467 1066.79 447.733 1065.99 448 1065.32C448.267 1064.66 447.733 1064.92 447.6 1065.19H447.733Z" fill="black"/>
<path d="M439.867 1065.06C439.734 1065.73 439.467 1066.39 439.334 1067.06C439.2 1067.73 438.8 1068.26 438.667 1068.93C438.533 1069.59 438.667 1069.33 438.933 1069.33C439.2 1069.33 439.334 1069.33 439.334 1069.06C439.867 1067.86 440.134 1066.53 440.401 1065.19C440.668 1063.86 440.001 1064.79 440.001 1065.19L439.867 1065.06Z" fill="black"/>
<path d="M432.933 1065.06C432.533 1065.59 432.266 1066.26 431.866 1066.79C431.466 1067.33 431.599 1067.33 431.333 1067.73C431.066 1068.13 431.199 1067.99 431.066 1068.13C430.933 1068.26 431.066 1068.26 431.066 1068.39C431.066 1068.53 431.066 1068.53 431.066 1068.66C431.066 1068.93 431.466 1069.06 431.599 1068.93C431.733 1068.79 431.733 1068.79 431.733 1068.66C431.733 1068.53 431.733 1068.53 431.733 1068.39C431.733 1068.26 431.733 1068.13 431.866 1067.99C431.866 1067.73 432.133 1067.33 432.266 1067.06C432.533 1066.39 432.799 1065.86 433.199 1065.19C433.599 1064.53 432.933 1064.66 432.799 1064.93L432.933 1065.06Z" fill="black"/>
<path d="M426.133 1065.06C425.866 1065.73 425.6 1066.39 425.333 1066.93C425.066 1067.46 424.933 1068.26 424.933 1068.93C424.933 1069.59 425.333 1069.33 425.466 1068.93C425.6 1068.26 425.733 1067.73 426 1067.06C426.267 1066.39 426.4 1065.86 426.667 1065.19C426.934 1064.53 426.667 1064.79 426.667 1064.79H426.267L426.133 1065.06Z" fill="black"/>
<path d="M419.333 1064.92C418.799 1066.26 418.266 1067.59 418.266 1068.93C418.266 1070.26 418.933 1069.46 418.933 1068.93C419.066 1068.26 419.199 1067.59 419.333 1066.93C419.466 1066.26 419.733 1065.59 420 1065.06C420.267 1064.52 419.466 1064.39 419.333 1064.79V1064.92Z" fill="black"/>
<path d="M413.066 1065.19C412.399 1066.26 411.733 1067.46 411.599 1068.79C411.466 1070.13 411.999 1069.19 412.133 1068.79C412.266 1068.26 412.399 1067.59 412.666 1067.06C412.933 1066.53 413.199 1065.99 413.466 1065.46C413.733 1064.93 413.199 1064.93 413.066 1065.19Z" fill="black"/>
<path d="M406.933 1065.19C406.666 1065.86 406.266 1066.53 406 1067.06C405.733 1067.59 405.2 1068.26 404.933 1068.93C404.666 1069.59 404.933 1069.19 404.933 1069.33C404.933 1069.46 405.2 1069.33 405.333 1069.33C405.333 1069.19 405.6 1069.06 405.733 1068.93C405.866 1068.79 405.866 1068.53 406 1068.39C406.133 1068.13 406.266 1067.73 406.533 1067.46C406.8 1066.79 407.2 1066.13 407.466 1065.46C407.733 1064.79 407.2 1065.06 407.066 1065.33L406.933 1065.19Z" fill="black"/>
<path d="M400.933 1064.66C400.267 1065.06 399.866 1065.73 399.466 1066.53C399.066 1067.33 399.2 1067.19 398.933 1067.59C398.667 1067.99 398.8 1067.86 398.666 1068.13C398.533 1068.39 398.533 1068.39 398.4 1068.53C398.266 1068.66 398.266 1068.79 398.4 1068.93C398.533 1069.06 398.666 1069.06 398.8 1068.93C399.2 1068.66 399.467 1068.39 399.6 1068.13C399.733 1067.86 400 1067.46 400.133 1067.06C400.266 1066.66 400.4 1066.39 400.666 1065.99C400.933 1065.59 401.066 1065.46 401.333 1065.33C401.733 1065.06 401.333 1064.39 400.933 1064.66Z" fill="black"/>
<path d="M394.133 1064.92C393.199 1066.13 392.266 1067.46 391.866 1068.93C391.466 1070.39 392.399 1069.73 392.666 1069.19C392.932 1068.66 393.066 1068.53 393.199 1068.26C393.332 1067.99 393.466 1067.59 393.732 1067.33C394.132 1066.66 394.399 1065.99 394.933 1065.46C395.466 1064.92 394.533 1064.66 394.266 1064.92H394.133Z" fill="black"/>
<path d="M386.799 1065.33C386.533 1065.86 386.266 1066.53 385.866 1067.06C385.466 1067.59 385.199 1068.26 385.066 1068.93C384.933 1069.59 385.066 1069.46 385.333 1069.46C385.599 1069.46 385.733 1069.46 385.866 1069.33C386.266 1068.79 386.533 1068.26 386.799 1067.59C387.066 1066.93 387.333 1066.39 387.599 1065.86C387.866 1065.33 387.599 1065.33 387.466 1065.19C387.333 1065.06 386.933 1065.19 386.799 1065.33Z" fill="black"/>
<path d="M380.132 1064.79C379.332 1065.99 378.532 1067.19 377.866 1068.53C377.199 1069.86 377.866 1069.06 377.999 1069.19C378.132 1069.33 378.532 1069.19 378.666 1069.06C379.466 1067.86 380.132 1066.53 380.932 1065.33C381.732 1064.13 380.932 1064.79 380.799 1064.79C380.666 1064.79 380.399 1064.79 380.266 1064.93L380.132 1064.79Z" fill="black"/>
<path d="M372.8 1064.93C372.533 1065.59 372.266 1066.39 372 1067.06C371.733 1067.73 371.733 1067.73 371.6 1068.13C371.466 1068.53 371.333 1068.93 371.333 1069.33C371.333 1069.73 371.333 1069.73 371.6 1069.73C371.866 1069.73 372 1069.73 372 1069.59C372.533 1068.93 372.666 1068.13 372.933 1067.46C373.2 1066.79 373.466 1065.99 373.733 1065.33C374 1064.66 373.733 1064.79 373.333 1064.79C372.933 1064.79 372.8 1064.79 372.8 1065.19V1064.93Z" fill="black"/>
<path d="M365.199 1065.06C364.932 1065.59 364.799 1066.26 364.532 1066.79C364.266 1067.33 364.266 1067.33 364.266 1067.59C364.266 1067.86 364.132 1068.26 363.999 1068.53C363.866 1068.79 364.532 1069.19 364.666 1068.79C364.799 1068.39 364.932 1068.26 365.066 1067.99C365.199 1067.73 365.332 1067.33 365.466 1067.06C365.732 1066.53 365.866 1065.86 366.132 1065.33C366.399 1064.79 366.132 1064.79 365.732 1064.66C365.332 1064.53 365.199 1064.66 365.066 1065.06H365.199Z" fill="black"/>
<path d="M357.732 1065.33C357.199 1066.39 356.532 1067.33 355.999 1068.39C355.466 1069.46 355.999 1068.93 356.132 1069.06C356.266 1069.19 356.666 1069.06 356.799 1068.93C357.466 1067.99 357.999 1066.93 358.532 1065.86C359.066 1064.79 358.532 1065.33 358.399 1065.19C358.266 1065.06 357.866 1065.19 357.732 1065.33Z" fill="black"/>
<path d="M349.466 1065.06C349.466 1065.73 349.2 1066.26 348.933 1066.79C348.666 1067.33 348.666 1067.33 348.533 1067.59C348.4 1067.86 348.133 1068.13 348 1068.39C347.866 1068.66 348 1068.79 348 1068.93C348 1069.06 348.4 1068.93 348.533 1068.93C348.8 1068.66 349.066 1068.39 349.2 1068.13C349.333 1067.86 349.6 1067.59 349.733 1067.19C350 1066.53 350.266 1065.86 350.266 1065.19C350.266 1064.53 350.133 1064.79 349.866 1064.79C349.6 1064.79 349.466 1064.79 349.333 1065.06H349.466Z" fill="black"/>
<path d="M344.133 1064.39C343.066 1065.86 342.133 1067.59 341.6 1069.33C341.066 1071.06 342.266 1070.13 342.4 1069.73C343.2 1068.13 344 1066.53 344.933 1064.93C345.866 1063.33 344.933 1064.39 344.8 1064.26C344.666 1064.13 344.266 1064.26 344.133 1064.39Z" fill="black"/>
<path d="M336.399 1065.33C335.999 1066.93 335.199 1068.26 334.399 1069.73C333.599 1071.2 334.666 1070.53 335.066 1070.26C335.599 1069.59 336.133 1068.93 336.399 1068.13C336.666 1067.33 337.066 1066.53 337.199 1065.73C337.333 1064.93 336.533 1064.93 336.399 1065.46V1065.33Z" fill="black"/>
<path d="M329.199 1065.19C328.799 1065.86 328.399 1066.53 327.999 1067.19C327.599 1067.86 327.599 1067.86 327.466 1068.26C327.333 1068.66 327.199 1069.06 327.199 1069.33C327.199 1069.59 327.199 1069.73 327.466 1069.86C327.733 1069.99 327.866 1069.86 327.999 1069.73C328.666 1068.39 329.199 1066.93 330.133 1065.73C331.066 1064.53 330.133 1065.19 329.999 1065.06C329.866 1064.93 329.466 1065.06 329.333 1065.19H329.199Z" fill="black"/>
<path d="M320.399 1063.99L319.599 1065.86C319.466 1066.26 319.333 1066.53 319.199 1066.93C319.066 1067.33 318.933 1067.59 318.933 1067.99C318.933 1068.39 319.466 1068.79 319.733 1068.26C319.999 1067.59 320.399 1066.93 320.666 1066.26L321.333 1064.26C321.333 1063.99 321.333 1063.86 321.066 1063.73C320.799 1063.59 320.533 1063.73 320.533 1063.86L320.399 1063.99Z" fill="black"/>
<path d="M311.333 1064.93C311.066 1065.59 310.933 1066.13 310.666 1066.79C310.399 1067.46 310.399 1067.33 310.399 1067.73C310.399 1068.13 310.266 1068.39 310.133 1068.66C309.999 1068.93 310.533 1069.19 310.666 1068.93C310.799 1068.66 310.933 1068.26 311.066 1067.99C311.199 1067.73 311.333 1067.33 311.333 1067.06C311.599 1066.39 311.733 1065.86 311.999 1065.19C312.266 1064.53 311.999 1064.79 311.733 1064.79C311.466 1064.79 311.333 1064.79 311.333 1065.06V1064.93Z" fill="black"/>
<path d="M303.199 1065.06C302.399 1066.39 301.732 1067.73 301.199 1069.19C300.666 1070.66 301.732 1069.86 301.866 1069.46C302.532 1068.13 303.066 1066.79 303.866 1065.46C304.666 1064.13 303.332 1064.53 303.066 1065.06H303.199Z" fill="black"/>
<path d="M294.933 1065.19L294 1067.19C293.6 1067.86 293.333 1068.53 293.067 1069.19C292.8 1069.86 293.067 1069.59 293.333 1069.73C293.6 1069.86 293.733 1069.73 293.867 1069.59C294.267 1068.93 294.533 1068.39 294.933 1067.73L295.867 1065.86C295.867 1065.59 295.867 1065.33 295.733 1065.06C295.6 1064.79 295.067 1065.06 294.933 1065.19Z" fill="black"/>
<path d="M287.866 1064.26C286.933 1065.33 286 1066.53 285.466 1067.99C284.933 1069.46 285.466 1068.39 285.733 1068.53C286 1068.66 286.133 1068.53 286.266 1068.39C286.666 1067.86 286.933 1067.19 287.333 1066.66C287.733 1066.13 288.133 1065.59 288.533 1065.06C288.933 1064.53 288.8 1064.53 288.533 1064.26C288.266 1063.99 288 1063.99 287.733 1064.26H287.866Z" fill="black"/>
<path d="M280 1064.79C279.333 1066.39 278.666 1067.86 278.266 1069.46C277.866 1071.06 278.666 1070.13 278.933 1069.73C279.733 1068.26 280.266 1066.66 280.933 1065.06C281.6 1063.46 280.933 1064.53 280.666 1064.53C280.4 1064.53 280.133 1064.53 280.133 1064.79H280Z" fill="black"/>
<path d="M271.599 1064.93C271.466 1065.59 271.199 1066.13 270.932 1066.79C270.666 1067.46 270.666 1067.33 270.399 1067.73C270.132 1068.13 270.132 1068.26 269.866 1068.66C269.599 1069.06 270.132 1069.33 270.399 1069.06C270.666 1068.79 270.932 1068.53 271.066 1068.26C271.199 1067.99 271.466 1067.59 271.599 1067.33C271.866 1066.66 272.132 1065.99 272.266 1065.33C272.399 1064.66 272.266 1064.93 271.999 1064.79C271.732 1064.66 271.599 1064.79 271.466 1065.06L271.599 1064.93Z" fill="black"/>
<path d="M262 1065.06C261.733 1065.73 261.467 1066.26 261.2 1066.93C260.933 1067.59 260.933 1067.59 260.8 1067.86C260.667 1068.13 260.533 1068.53 260.4 1068.79C260.267 1069.06 260.667 1069.19 260.8 1068.93C260.933 1068.66 261.067 1068.39 261.2 1067.99C261.333 1067.59 261.467 1067.33 261.6 1067.06C261.867 1066.39 262.133 1065.86 262.4 1065.19C262.667 1064.53 262 1064.66 261.867 1064.93L262 1065.06Z" fill="black"/>
<path d="M253.999 1065.46C253.999 1065.99 253.732 1066.66 253.466 1067.19C253.199 1067.73 253.199 1067.73 253.066 1067.99C252.932 1068.26 252.799 1068.53 252.666 1068.79C252.532 1069.06 252.666 1069.19 252.666 1069.33C252.666 1069.46 253.066 1069.33 253.199 1069.33C253.466 1069.06 253.599 1068.79 253.866 1068.53C254.132 1068.26 254.132 1067.99 254.266 1067.59C254.532 1066.93 254.799 1066.26 254.932 1065.59C255.066 1064.93 254.932 1065.06 254.532 1064.93C254.132 1064.79 253.999 1064.93 253.866 1065.33L253.999 1065.46Z" fill="black"/>
<path d="M247.066 1065.06C246.666 1066.26 246.133 1067.46 245.466 1068.66C244.8 1069.86 245.466 1069.19 245.6 1069.33C245.733 1069.46 246.133 1069.33 246.266 1069.19C247.066 1068.13 247.733 1066.79 248.133 1065.46C248.533 1064.12 248.133 1064.93 247.733 1064.79C247.333 1064.66 247.2 1064.79 247.066 1065.19V1065.06Z" fill="black"/>
<path d="M240.266 1064.39C239.866 1065.06 239.466 1065.72 239.066 1066.39C238.666 1067.06 238.266 1067.73 237.866 1068.39C237.466 1069.06 237.866 1068.79 237.866 1068.93C237.866 1069.06 238.266 1069.06 238.4 1068.93C239.333 1067.59 240.133 1066.26 240.933 1064.79C241.733 1063.32 240.4 1063.72 240.133 1064.26L240.266 1064.39Z" fill="black"/>
<path d="M233.733 1064.26C233.2 1064.79 232.8 1065.46 232.533 1066.13C232.267 1066.79 232 1067.59 231.867 1068.26C231.733 1068.93 232 1068.66 232.267 1068.66C232.533 1068.66 232.667 1068.66 232.8 1068.26C233.2 1067.06 233.6 1065.86 234.533 1064.93C235.467 1063.99 234.8 1064.39 234.533 1064.13C234.267 1063.86 234 1063.86 233.733 1064.13V1064.26Z" fill="black"/>
<path d="M225.466 1064.66C225.199 1065.32 225.066 1065.99 224.799 1066.53C224.533 1067.06 224.533 1067.19 224.533 1067.46C224.533 1067.73 224.399 1068.13 224.399 1068.53C224.399 1068.93 224.399 1068.93 224.666 1069.06C224.933 1069.19 225.066 1069.06 225.199 1068.93C225.333 1068.66 225.599 1068.26 225.733 1067.99C225.866 1067.73 225.999 1067.33 226.133 1066.93C226.399 1066.26 226.533 1065.59 226.799 1064.92C227.066 1064.26 226.799 1064.26 226.399 1064.12C225.999 1063.99 225.733 1064.12 225.599 1064.52L225.466 1064.66Z" fill="black"/>
<path d="M220.666 1064.26C220.399 1064.66 219.999 1065.19 219.733 1065.59C219.466 1065.99 219.066 1066.53 218.799 1066.93C218.533 1067.33 218.799 1067.33 218.799 1067.46C218.799 1067.59 219.199 1067.46 219.333 1067.46C219.733 1067.06 220.133 1066.53 220.399 1066.13C220.666 1065.73 221.066 1065.19 221.333 1064.79C221.599 1064.39 221.332 1064.26 221.199 1064.13C221.066 1063.99 220.666 1064.13 220.532 1064.26H220.666Z" fill="black"/>
<path d="M213.732 1064.53L212.932 1066.39C212.799 1066.79 212.666 1067.06 212.532 1067.46C212.399 1067.86 212.266 1068.13 212.266 1068.53C212.266 1068.93 212.799 1069.33 213.066 1068.79C213.332 1068.13 213.732 1067.46 213.999 1066.79L214.666 1064.79C214.666 1064.53 214.666 1064.39 214.399 1064.26C214.132 1064.12 213.866 1064.26 213.866 1064.39L213.732 1064.53Z" fill="black"/>
<path d="M204.799 1065.46C204.533 1066.13 204.399 1066.66 204.133 1067.33C203.866 1067.99 203.866 1067.86 203.866 1068.26C203.866 1068.66 203.733 1068.93 203.599 1069.19C203.466 1069.46 203.999 1069.73 204.133 1069.46C204.266 1069.19 204.399 1068.79 204.533 1068.53C204.666 1068.26 204.799 1067.86 204.799 1067.59C205.066 1066.93 205.199 1066.39 205.466 1065.73C205.733 1065.06 205.466 1065.33 205.199 1065.33C204.933 1065.33 204.799 1065.33 204.799 1065.59V1065.46Z" fill="black"/>
<path d="M196.666 1065.46C195.866 1066.79 195.199 1068.13 194.666 1069.59C194.133 1071.06 195.199 1070.26 195.333 1069.86C195.999 1068.53 196.533 1067.19 197.333 1065.86C198.133 1064.53 196.799 1064.93 196.533 1065.46H196.666Z" fill="black"/>
<path d="M188.399 1065.59L187.466 1067.59C187.066 1068.26 186.799 1068.93 186.532 1069.59C186.266 1070.26 186.532 1069.99 186.799 1070.13C187.066 1070.26 187.199 1070.13 187.332 1069.99C187.732 1069.33 187.999 1068.79 188.399 1068.13L189.332 1066.26C189.332 1065.99 189.332 1065.73 189.199 1065.46C189.066 1065.19 188.532 1065.46 188.399 1065.59Z" fill="black"/>
<path d="M181.332 1064.79C180.399 1065.86 179.466 1067.06 178.932 1068.53C178.399 1069.99 178.932 1068.93 179.199 1069.06C179.466 1069.19 179.599 1069.06 179.732 1068.93C180.132 1068.39 180.399 1067.73 180.799 1067.19C181.199 1066.66 181.599 1066.13 181.999 1065.59C182.399 1065.06 182.266 1065.06 181.999 1064.79C181.732 1064.53 181.466 1064.53 181.199 1064.79H181.332Z" fill="black"/>
<path d="M173.466 1065.19C172.8 1066.79 172.133 1068.26 171.733 1069.86C171.333 1071.46 172.133 1070.53 172.4 1070.13C173.2 1068.66 173.733 1067.06 174.4 1065.46C175.066 1063.86 174.4 1064.92 174.133 1064.92C173.866 1064.92 173.6 1064.92 173.6 1065.19H173.466Z" fill="black"/>
<path d="M164.933 1065.46C164.8 1066.13 164.533 1066.66 164.266 1067.33C164 1067.99 164 1067.86 163.733 1068.26C163.466 1068.66 163.466 1068.79 163.2 1069.19C162.933 1069.59 163.466 1069.86 163.733 1069.59C164 1069.33 164.266 1069.06 164.4 1068.79C164.533 1068.53 164.8 1068.13 164.933 1067.86C165.2 1067.19 165.466 1066.53 165.6 1065.86C165.733 1065.19 165.6 1065.46 165.333 1065.33C165.066 1065.19 164.933 1065.33 164.8 1065.59L164.933 1065.46Z" fill="black"/>
<path d="M155.333 1065.59C155.066 1066.26 154.8 1066.79 154.533 1067.46C154.266 1068.13 154.266 1068.13 154.133 1068.39C154 1068.66 153.866 1069.06 153.733 1069.33C153.6 1069.59 154 1069.73 154.133 1069.46C154.266 1069.19 154.4 1068.93 154.533 1068.53C154.666 1068.13 154.8 1067.86 154.933 1067.59C155.2 1066.93 155.466 1066.39 155.733 1065.73C156 1065.06 155.333 1065.19 155.2 1065.46L155.333 1065.59Z" fill="black"/>
<path d="M147.466 1065.99C147.466 1066.53 147.199 1067.19 146.932 1067.73C146.666 1068.26 146.666 1068.26 146.533 1068.53C146.399 1068.79 146.266 1069.06 146.133 1069.33C145.999 1069.59 146.133 1069.73 146.133 1069.86C146.133 1069.99 146.533 1069.86 146.666 1069.86C146.933 1069.59 147.066 1069.33 147.333 1069.06C147.599 1068.79 147.599 1068.53 147.733 1068.13C147.999 1067.46 148.266 1066.79 148.399 1066.13C148.533 1065.46 148.399 1065.59 147.999 1065.46C147.599 1065.32 147.466 1065.46 147.333 1065.86L147.466 1065.99Z" fill="black"/>
<path d="M140.533 1065.59C140.133 1066.79 139.6 1067.99 138.933 1069.19C138.267 1070.39 138.933 1069.73 139.067 1069.86C139.2 1069.99 139.6 1069.86 139.733 1069.73C140.533 1068.66 141.2 1067.33 141.6 1065.99C142 1064.66 141.6 1065.46 141.2 1065.33C140.8 1065.19 140.667 1065.33 140.533 1065.73V1065.59Z" fill="black"/>
<path d="M133.599 1064.93C133.199 1065.59 132.799 1066.26 132.399 1066.93C131.999 1067.59 131.599 1068.26 131.199 1068.93C130.799 1069.59 131.199 1069.33 131.199 1069.46C131.199 1069.59 131.599 1069.59 131.733 1069.46C132.666 1068.13 133.466 1066.79 134.266 1065.33C135.066 1063.86 133.733 1064.26 133.466 1064.79L133.599 1064.93Z" fill="black"/>
<path d="M127.199 1064.79C126.666 1065.33 126.266 1065.99 125.999 1066.66C125.732 1067.33 125.466 1068.13 125.332 1068.79C125.199 1069.46 125.466 1069.19 125.732 1069.19C125.999 1069.19 126.132 1069.19 126.266 1068.79C126.666 1067.59 127.066 1066.39 127.999 1065.46C128.932 1064.53 128.266 1064.93 127.999 1064.66C127.732 1064.39 127.466 1064.39 127.199 1064.66V1064.79Z" fill="black"/>
<path d="M118.933 1065.19C118.666 1065.86 118.533 1066.53 118.266 1067.06C118 1067.59 118 1067.73 118 1067.99C118 1068.26 117.866 1068.66 117.866 1069.06C117.866 1069.46 117.866 1069.46 118.133 1069.59C118.4 1069.73 118.533 1069.59 118.666 1069.46C118.8 1069.19 119.066 1068.79 119.2 1068.53C119.333 1068.26 119.466 1067.86 119.6 1067.46C119.866 1066.79 120 1066.13 120.266 1065.46C120.533 1064.79 120.266 1064.79 119.866 1064.66C119.466 1064.53 119.2 1064.66 119.066 1065.06L118.933 1065.19Z" fill="black"/>
<path d="M113.199 1065.46L112.399 1067.33C112.266 1067.73 112.132 1067.99 111.999 1068.39C111.866 1068.79 111.732 1069.06 111.732 1069.46C111.732 1069.86 112.266 1070.26 112.532 1069.73C112.799 1069.06 113.199 1068.39 113.466 1067.73L114.132 1065.73C114.132 1065.46 114.132 1065.33 113.866 1065.19C113.599 1065.06 113.332 1065.19 113.332 1065.33L113.199 1065.46Z" fill="black"/>
<path d="M104.266 1066.39C103.999 1067.06 103.866 1067.59 103.599 1068.26C103.333 1068.93 103.333 1068.79 103.333 1069.19C103.333 1069.59 103.199 1069.86 103.066 1070.13C102.933 1070.39 103.466 1070.66 103.599 1070.39C103.733 1070.13 103.866 1069.73 103.999 1069.46C104.133 1069.19 104.266 1068.79 104.266 1068.53C104.533 1067.86 104.666 1067.33 104.933 1066.66C105.199 1065.99 104.933 1066.26 104.666 1066.26C104.399 1066.26 104.266 1066.26 104.266 1066.53V1066.39Z" fill="black"/>
<path d="M96.1327 1066.39C95.3327 1067.73 94.666 1069.06 94.1327 1070.53C93.5993 1071.99 94.666 1071.19 94.7993 1070.79C95.466 1069.46 95.9993 1068.13 96.7993 1066.79C97.5993 1065.46 96.266 1065.86 95.9993 1066.39H96.1327Z" fill="black"/>
<path d="M87.733 1066.53L86.7996 1068.53C86.3996 1069.19 86.133 1069.86 85.8663 1070.53C85.5997 1071.2 85.8663 1070.93 86.133 1071.06C86.3996 1071.2 86.533 1071.06 86.6663 1070.93C87.0663 1070.26 87.333 1069.73 87.733 1069.06L88.6663 1067.19C88.6663 1066.93 88.6663 1066.66 88.533 1066.39C88.3997 1066.13 87.8663 1066.39 87.733 1066.53Z" fill="black"/>
<path d="M80.7991 1065.73C79.8658 1066.79 78.9324 1067.99 78.3991 1069.46C77.8658 1070.93 78.3991 1069.86 78.6658 1069.99C78.9324 1070.13 79.0658 1069.99 79.1991 1069.86C79.5991 1069.33 79.8658 1068.66 80.2658 1068.13C80.6658 1067.59 81.0658 1067.06 81.4658 1066.53C81.8658 1065.99 81.7324 1065.99 81.4658 1065.73C81.1991 1065.46 80.9324 1065.46 80.6658 1065.73H80.7991Z" fill="black"/>
<path d="M72.7994 1066.12C72.1327 1067.73 71.466 1069.19 71.066 1070.79C70.666 1072.39 71.466 1071.46 71.7327 1071.06C72.5327 1069.59 73.066 1067.99 73.7327 1066.39C74.3994 1064.79 73.7327 1065.86 73.466 1065.86C73.1994 1065.86 72.9327 1065.86 72.9327 1066.12H72.7994Z" fill="black"/>
<path d="M64.3998 1066.39C64.2664 1067.06 63.9998 1067.59 63.7331 1068.26C63.4664 1068.93 63.4664 1068.79 63.1998 1069.19C62.9331 1069.59 62.9331 1069.73 62.6664 1070.13C62.3998 1070.53 62.9331 1070.79 63.1998 1070.53C63.4664 1070.26 63.7331 1069.99 63.8664 1069.73C63.9998 1069.46 64.2664 1069.06 64.3998 1068.79C64.6664 1068.13 64.9331 1067.46 65.0664 1066.79C65.1998 1066.13 65.0664 1066.39 64.7998 1066.26C64.5331 1066.13 64.3998 1066.26 64.2664 1066.53L64.3998 1066.39Z" fill="black"/>
<path d="M54.7997 1066.53C54.533 1067.19 54.2664 1067.73 53.9997 1068.39C53.733 1069.06 53.733 1069.06 53.5997 1069.33C53.4664 1069.59 53.333 1069.99 53.1997 1070.26C53.0664 1070.53 53.4664 1070.66 53.5997 1070.39C53.733 1070.13 53.8664 1069.86 53.9997 1069.46C54.133 1069.06 54.2664 1068.79 54.3997 1068.53C54.6664 1067.86 54.933 1067.33 55.1997 1066.66C55.4664 1065.99 54.7997 1066.13 54.6664 1066.39L54.7997 1066.53Z" fill="black"/>
<path d="M46.7998 1066.93C46.7998 1067.46 46.5332 1068.13 46.2665 1068.66C45.9998 1069.19 45.9998 1069.19 45.8665 1069.46C45.7332 1069.73 45.5998 1069.99 45.4665 1070.26C45.3332 1070.53 45.4665 1070.66 45.4665 1070.79C45.4665 1070.93 45.8665 1070.79 45.9998 1070.79C46.2665 1070.53 46.3998 1070.26 46.6665 1069.99C46.9332 1069.73 46.9332 1069.46 47.0665 1069.06C47.3332 1068.39 47.5998 1067.73 47.7332 1067.06C47.8665 1066.39 47.7332 1066.53 47.3332 1066.39C46.9332 1066.26 46.7998 1066.39 46.6665 1066.79L46.7998 1066.93Z" fill="black"/>
<path d="M39.999 1066.53C39.599 1067.73 39.0657 1068.93 38.399 1070.13C37.7323 1071.33 38.399 1070.66 38.5323 1070.79C38.6657 1070.93 39.0657 1070.79 39.199 1070.66C39.999 1069.59 40.6657 1068.26 41.0657 1066.93C41.4657 1065.59 41.0657 1066.39 40.6657 1066.26C40.2657 1066.13 40.1323 1066.26 39.999 1066.66V1066.53Z" fill="black"/>
<path d="M33.0661 1065.86C32.6661 1066.53 32.2661 1067.19 31.8661 1067.86C31.4661 1068.53 31.0661 1069.19 30.6661 1069.86C30.2661 1070.53 30.6661 1070.26 30.6661 1070.39C30.6661 1070.53 31.0661 1070.53 31.1994 1070.39C32.1327 1069.06 32.9327 1067.73 33.7327 1066.26C34.5327 1064.79 33.1994 1065.19 32.9327 1065.73L33.0661 1065.86Z" fill="black"/>
<path d="M26.6658 1065.73C26.1325 1066.26 25.7325 1066.93 25.4658 1067.59C25.1991 1068.26 24.9325 1069.06 24.7991 1069.73C24.6658 1070.39 24.9325 1070.13 25.1991 1070.13C25.4658 1070.13 25.5991 1070.13 25.7325 1069.73C26.1325 1068.53 26.5325 1067.33 27.4658 1066.39C28.3991 1065.46 27.7325 1065.86 27.4658 1065.59C27.1991 1065.33 26.9325 1065.33 26.6658 1065.59V1065.73Z" fill="black"/>
<path d="M18.3997 1066.13C18.133 1066.79 17.9997 1067.46 17.733 1067.99C17.4663 1068.53 17.4663 1068.66 17.4663 1068.93C17.4663 1069.19 17.333 1069.59 17.333 1069.99C17.333 1070.39 17.333 1070.39 17.5997 1070.53C17.8663 1070.66 17.9997 1070.53 18.133 1070.39C18.2663 1070.13 18.533 1069.73 18.6663 1069.46C18.7997 1069.19 18.933 1068.79 19.0663 1068.39C19.333 1067.73 19.4663 1067.06 19.733 1066.39C19.9997 1065.73 19.733 1065.73 19.333 1065.59C18.933 1065.46 18.6663 1065.59 18.533 1065.99L18.3997 1066.13Z" fill="black"/>
<path d="M13.4657 1065.59C13.199 1065.99 12.799 1066.53 12.5323 1066.93C12.2657 1067.33 11.8657 1067.86 11.599 1068.26C11.3323 1068.66 11.599 1068.66 11.599 1068.79C11.599 1068.93 11.999 1068.79 12.1323 1068.79C12.5323 1068.39 12.9323 1067.86 13.199 1067.46C13.4657 1067.06 13.8657 1066.53 14.1323 1066.13C14.399 1065.73 14.1323 1065.59 13.999 1065.46C13.8657 1065.33 13.4657 1065.46 13.3323 1065.59H13.4657Z" fill="black"/>
<path d="M9.73319 1065.59C9.19985 1066.13 8.79985 1066.79 8.53319 1067.46C8.26652 1068.13 7.99985 1068.93 7.86652 1069.59C7.73319 1070.26 7.99985 1069.99 8.26652 1069.99C8.53319 1069.99 8.66652 1069.99 8.79985 1069.59C9.19985 1068.39 9.59985 1067.19 10.5332 1066.26C11.4665 1065.33 10.7999 1065.73 10.5332 1065.46C10.2665 1065.19 9.99985 1065.19 9.73319 1065.46V1065.59Z" fill="black"/>
<path d="M1.46608 1065.99C1.19941 1066.66 1.06608 1067.33 0.799414 1067.86C0.532747 1068.39 0.532747 1068.53 0.532747 1068.79C0.532747 1069.06 0.399414 1069.46 0.399414 1069.86C0.399414 1070.26 0.399414 1070.26 0.666081 1070.39C0.932747 1070.53 1.06608 1070.39 1.19941 1070.26C1.33275 1069.99 1.59941 1069.59 1.73275 1069.33C1.86608 1069.06 1.99941 1068.66 2.13275 1068.26C2.39941 1067.59 2.53275 1066.93 2.79941 1066.26C3.06608 1065.59 2.79941 1065.59 2.39941 1065.46C1.99941 1065.32 1.73275 1065.46 1.59941 1065.86L1.46608 1065.99Z" fill="black"/>
<path d="M570.4 1065.46C570.666 1066.13 571.066 1066.79 571.333 1067.33C571.6 1067.86 571.733 1067.86 571.866 1068.26C572 1068.66 572.266 1068.79 572.533 1069.19C572.8 1069.59 573.333 1069.19 573.2 1068.66C573.066 1068.13 572.8 1068.13 572.666 1067.73C572.533 1067.33 572.266 1067.19 572.133 1066.93C571.733 1066.39 571.466 1065.73 571.066 1065.19C570.666 1064.66 570.8 1064.93 570.533 1065.19C570.266 1065.46 570.266 1065.46 570.533 1065.73L570.4 1065.46Z" fill="black"/>
<path d="M579.066 1065.59C580 1067.19 581.066 1068.79 582.4 1070.13C583.733 1071.46 583.466 1070.13 583.2 1069.46C582.133 1067.99 581.066 1066.53 580 1065.06C578.933 1063.59 579.466 1064.66 579.2 1064.79C578.933 1064.93 578.8 1065.33 578.933 1065.59H579.066Z" fill="black"/>
<path d="M589.866 1065.46C590.933 1067.33 592.133 1069.06 593.733 1070.53C595.333 1071.99 594.8 1070.53 594.4 1069.99C593.2 1068.26 592 1066.66 590.8 1064.79C589.6 1062.92 589.333 1064.79 589.733 1065.46H589.866Z" fill="black"/>
<path d="M616.399 989.297C615.599 989.297 614.666 989.564 613.866 989.564C613.066 989.564 612.133 989.698 611.333 989.964C610.533 990.231 611.066 990.498 611.333 990.498C612.266 990.498 613.066 990.498 613.999 990.498C614.933 990.498 615.866 990.231 616.666 990.098C617.466 989.964 617.066 989.698 617.066 989.564C617.066 989.431 616.799 989.164 616.533 989.164L616.399 989.297Z" fill="black"/>
<path d="M620.533 993.032C619.733 993.032 619.066 993.299 618.266 993.299C617.466 993.299 616.666 993.432 616 993.565C615.333 993.699 615.733 994.099 616 994.099C616.266 994.099 616.8 994.099 617.2 994.099C617.6 994.099 618 994.099 618.4 993.965C619.2 993.965 620 993.699 620.8 993.565C621.6 993.432 621.066 992.898 620.666 992.898L620.533 993.032Z" fill="black"/>
<path d="M624.532 997.034C623.999 997.034 623.332 997.301 622.799 997.434C622.266 997.568 621.599 997.701 621.066 997.835C620.532 997.968 620.799 997.968 620.799 998.101C620.799 998.235 620.932 998.368 621.066 998.368C622.266 998.235 623.466 997.835 624.532 997.568C625.599 997.301 624.799 996.901 624.399 997.034H624.532Z" fill="black"/>
<path d="M628.532 1000.77C628.132 1000.9 627.732 1001.17 627.199 1001.3C626.666 1001.43 626.266 1001.57 625.866 1001.7C625.466 1001.83 625.599 1002.23 625.866 1002.23C626.399 1002.23 626.799 1002.23 627.332 1001.97C627.866 1001.7 628.266 1001.57 628.799 1001.43C629.332 1001.3 628.932 1001.17 628.799 1001.03C628.666 1000.9 628.532 1000.9 628.399 1001.03L628.532 1000.77Z" fill="black"/>
<path d="M632.799 1003.7C631.733 1003.97 630.666 1004.24 629.733 1004.5C628.799 1004.77 629.466 1005.17 629.733 1005.17C630.799 1005.17 631.866 1004.77 632.933 1004.5C633.999 1004.24 633.199 1004.24 633.199 1003.97C633.199 1003.7 632.933 1003.57 632.666 1003.7H632.799Z" fill="black"/>
<path d="M638.533 1007.97C637.999 1008.11 637.333 1008.37 636.799 1008.51C636.266 1008.64 636.266 1008.77 635.999 1008.91C635.733 1009.04 635.466 1009.17 635.199 1009.44C634.933 1009.71 635.199 1010.11 635.466 1009.97C635.733 1009.84 635.999 1009.84 636.266 1009.71C636.533 1009.57 636.799 1009.44 637.066 1009.31C637.599 1009.04 638.133 1008.91 638.799 1008.77C639.466 1008.64 639.066 1007.84 638.533 1007.97Z" fill="black"/>
<path d="M642.266 1011.71C641.866 1011.71 641.466 1011.97 640.932 1012.11C640.399 1012.24 640.532 1012.11 640.266 1012.24C639.999 1012.37 639.866 1012.37 639.599 1012.51C639.199 1012.51 639.332 1013.17 639.732 1013.04C640.132 1012.91 640.132 1013.04 640.399 1012.91C640.666 1012.77 640.799 1012.91 641.066 1012.77C641.466 1012.77 641.866 1012.51 642.399 1012.37C642.932 1012.24 642.666 1011.57 642.266 1011.71Z" fill="black"/>
<path d="M645.866 1015.17C645.333 1015.31 644.933 1015.44 644.4 1015.57C643.866 1015.71 643.333 1015.84 642.933 1016.11C642.533 1016.37 642.8 1016.37 642.933 1016.51C643.066 1016.64 643.066 1016.64 643.333 1016.64C643.866 1016.64 644.266 1016.37 644.8 1016.24C645.333 1016.11 645.733 1015.97 646.266 1015.84C646.8 1015.71 646.533 1015.04 646.133 1015.17H645.866Z" fill="black"/>
<path d="M650.4 1019.04L648.933 1019.71C648.4 1019.97 648 1020.11 647.466 1020.37C646.933 1020.64 647.466 1021.04 647.733 1020.91C648.266 1020.78 648.8 1020.51 649.2 1020.24L650.666 1019.57C650.8 1019.57 650.933 1019.31 650.666 1019.17C650.4 1019.04 650.4 1019.04 650.266 1019.17L650.4 1019.04Z" fill="black"/>
<path d="M603.066 1068.79C602.533 1068.13 602 1067.59 601.6 1066.79C601.2 1065.99 600.666 1065.46 600.266 1064.66C599.866 1063.86 599.866 1064.39 599.6 1064.52C599.333 1064.66 599.333 1064.92 599.466 1065.19C599.866 1065.99 600.266 1066.79 600.666 1067.46C601.066 1068.13 601.733 1068.79 602.266 1069.46C602.8 1070.13 602.8 1069.59 602.933 1069.46C603.066 1069.33 603.066 1068.93 602.933 1068.79H603.066Z" fill="black"/>
<path d="M612.932 1069.06C611.999 1067.73 611.332 1066.39 610.932 1064.79C610.532 1063.19 610.666 1064.39 610.399 1064.53C610.132 1064.66 609.999 1064.79 610.132 1065.06C610.399 1066.79 611.199 1068.39 612.266 1069.73C613.332 1071.06 612.799 1069.86 612.932 1069.73C613.066 1069.59 613.199 1069.33 613.066 1069.06H612.932Z" fill="black"/>
<path d="M0.399414 989.83V1065.59H705.599L611.199 989.83H0.399414Z" fill="white"/>
<path d="M560.934 989.83L631.734 1065.59H672L588.267 989.83H560.934Z" fill="#76B82A"/>
<path d="M525.2 989.83L579.067 1065.59H614.134L548.934 989.83H525.2Z" fill="#76B82A"/>
<path d="M159.733 1065.59L189.6 1065.32L260.267 989.83H232.8L159.733 1065.59Z" fill="#76B82A"/>
<path d="M206.134 1065.59H242L296 989.83H272.134L206.134 1065.59Z" fill="#76B82A"/>
<path d="M706.4 1064.66C705.333 1064.26 612.533 987.697 611.2 988.097C419.733 987.43 191.733 988.231 0.266421 989.698C1.19975 990.631 -2.26691 1066.66 0.266421 1066.53L88.3998 1067.06C155.866 1067.19 241.733 1067.46 308.8 1067.19C435.2 1066.26 578.933 1065.86 705.466 1066.79C706.533 1066.79 707.066 1065.33 706.266 1064.66H706.4ZM1.33309 1064.66L0.533088 989.965C191.6 991.432 419.333 992.365 610.533 991.565L702.133 1064.26C471.2 1065.99 232.133 1062.26 1.33309 1064.53V1064.66Z" fill="black"/>
<path d="M786.267 902.062L776.667 996.631H683.067C681.6 981.692 674.8 915.668 673.467 902.062H786.267Z" fill="white"/>
<path d="M786.267 902.062L776.667 996.631H743.2C748 977.024 750.267 956.749 749.867 936.475C729.333 941.01 694.667 930.606 675.467 922.203L673.467 902.062H786.267Z" fill="#F3969F"/>
<path d="M607.6 758.811C649.2 783.086 708.933 863.383 718.533 904.331C683.333 886.058 615.2 798.158 607.6 758.811Z" fill="#76B82A"/>
<path d="M607.6 758.811C607.6 758.811 610.933 761.078 616.4 765.346C617.067 766.413 617.733 767.48 618.4 768.547C646.933 817.366 681.2 862.982 718.4 904.464C683.2 886.191 615.067 798.292 607.467 758.944L607.6 758.811Z" fill="white"/>
<path d="M607.333 757.609C620.666 809.762 673.733 875.653 719.066 905.531C704.933 848.843 654.933 791.622 607.333 757.609ZM634.4 780.951C671.333 812.963 698.533 855.112 715.733 900.596C667.066 866.183 629.6 817.898 609.866 761.611C618.4 767.613 626.533 774.149 634.4 780.951Z" fill="black"/>
<path d="M796.266 745.204C796.933 741.469 797.466 737.735 797.866 734C797.333 734.534 796.799 735.067 796.266 735.601C792.399 738.935 788.266 743.47 783.999 748.939C750.799 789.087 725.199 854.845 720.933 902.729C755.866 870.717 779.599 818.565 791.466 768.946C793.733 760.543 795.333 752.54 796.266 745.204Z" fill="black"/>
<path d="M766 823.234C791.467 782.819 824.8 755.742 824.8 755.742C821.333 795.223 763.333 882.722 732.533 902.063C732.533 902.063 740.4 863.515 766 823.1V823.234Z" fill="#4C742C"/>
<path d="M765.866 823.233C777.999 804.293 791.599 786.153 807.466 770.28C812.799 764.945 818.266 759.876 824.133 755.075C824.799 754.408 825.999 755.075 825.866 756.008C824.266 768.946 819.066 780.951 813.733 792.689C797.333 827.368 764.799 881.788 733.199 903.396C732.266 904.063 730.799 903.129 731.199 901.929C732.799 894.86 734.799 887.924 737.333 881.121C744.399 860.714 754.533 841.507 765.866 823.233ZM766.133 823.367C751.066 847.642 740.666 874.852 733.999 902.462L731.866 900.995C737.866 897.127 743.199 892.059 748.266 886.99C776.933 856.979 819.199 797.224 823.733 755.742L825.466 756.675C819.866 761.477 814.399 766.679 809.066 771.881C803.733 777.083 798.533 782.418 793.466 788.02C783.333 798.958 773.999 810.695 765.999 823.367H766.133Z" fill="black"/>
<path d="M717.066 799.892C716.933 744.538 731.2 699.588 731.2 699.588C748.933 737.202 749.066 863.515 731.733 900.062C731.733 900.062 717.2 855.245 717.066 799.892Z" fill="#4C742C"/>
<path d="M716.933 799.891C716.933 774.415 718.799 748.939 723.866 723.996C725.599 715.726 727.599 707.457 730.133 699.32C730.266 698.787 730.933 698.387 731.466 698.52C731.733 698.52 731.999 698.787 732.133 699.187C735.599 707.056 737.599 715.46 739.066 723.863C745.599 765.745 747.066 808.561 743.466 850.71C741.599 867.649 739.866 884.856 732.933 900.728C732.666 901.395 731.866 901.662 731.066 901.395C730.666 901.262 730.399 900.861 730.266 900.595C727.733 892.458 725.733 884.189 723.999 875.785C718.799 850.843 716.933 825.367 716.666 799.891H716.933ZM717.199 799.891C717.333 825.234 721.199 850.443 726.666 875.252C728.533 883.522 730.533 891.658 733.066 899.661H730.533C737.066 884.189 739.066 866.982 741.066 850.443C743.599 825.233 744.533 799.757 743.466 774.415C742.933 761.743 741.866 749.072 739.866 736.534C737.866 724.129 735.333 711.458 730.133 700.121L732.133 699.987C729.733 707.99 727.866 716.26 726.133 724.53C720.799 749.339 717.066 774.548 717.199 799.891Z" fill="black"/>
<path d="M858.533 787.754C836 830.303 758.4 893.526 717.866 904.864C734.666 868.851 819.466 797.091 858.533 787.754Z" fill="#76B82A"/>
<path d="M858.533 787.754C858.533 787.754 856.399 791.222 852.399 796.825C851.333 797.491 850.4 798.292 849.333 798.959C801.866 829.637 757.6 865.783 717.866 904.731C734.666 868.718 819.466 796.958 858.533 787.621V787.754Z" fill="white"/>
<path d="M859.6 787.354C808.133 802.959 744.533 858.713 716.533 905.264C772.533 888.724 827.467 836.305 859.6 787.354ZM837.466 815.364C807.066 853.645 766.133 882.722 721.466 901.796C753.733 851.644 800.266 812.163 855.733 790.021C850.133 798.824 844 807.228 837.466 815.364Z" fill="black"/>
<path d="M688.133 723.996C716 763.211 737.333 861.113 729.2 902.329C704.666 871.117 678.8 762.944 688.133 723.996Z" fill="#76B82A"/>
<path d="M688.133 723.996C688.133 723.996 690.266 727.464 693.466 733.6C693.599 734.8 693.866 736.134 693.999 737.334C699.866 793.622 712.266 849.376 729.066 902.462C704.533 871.251 678.666 763.077 687.999 724.13L688.133 723.996Z" fill="white"/>
<path d="M688.133 722.93C682.933 752.807 687.2 791.355 697.066 827.768C676.666 795.223 650.666 763.745 633.066 752.941C633.066 752.941 641.733 791.355 668 831.37C688.133 862.048 712.666 884.856 723.066 893.793C724.933 897.261 726.933 900.595 728.933 903.797C739.333 846.042 717.466 773.882 688.133 722.93ZM728.133 897.794C726.4 881.255 714.666 856.046 699.2 830.97C689.466 797.624 685.866 762.678 688.933 727.598C694.266 736.535 698.933 745.871 703.333 755.342C723.733 799.625 731.2 849.243 728.133 897.794Z" fill="black"/>
<path d="M786.266 900.194C749.333 902.195 710.133 902.195 673.2 900.194C669.466 900.061 672.666 912.466 672.266 914.333C674.266 940.743 677.6 970.754 680.666 997.03C682.266 1001.83 701.066 997.83 706.533 998.764C730 998.231 753.333 997.297 776.8 997.564C780.4 984.759 781.066 963.551 783.6 949.679C785.6 934.34 787.2 917.534 788.266 902.062C788.266 900.995 787.333 900.194 786.4 900.328L786.266 900.194ZM776 995.83C745.733 996.096 715.6 994.496 685.333 994.229C682.666 965.018 679.733 933.14 675.733 904.062C711.866 902.062 748 902.062 784.133 904.062C780 933.94 778.666 965.819 776 995.963V995.83Z" fill="black"/>
<path d="M729.867 890.324H665.467L668.267 906.463H791.467L794.267 890.324H729.867Z" fill="url(#paint0_linear_2144_5298)"/>
<path d="M794.267 889.256C773.067 889.923 751.067 890.323 729.867 890.457C750.667 890.457 772.133 890.99 792.933 891.524L790.267 904.862C750.133 903.528 709.867 903.528 669.6 904.862L666.933 891.391C687.733 890.724 709.2 890.324 730 890.324C709.067 891.657 683.733 887.256 664.533 890.457C665.2 891.524 665.867 908.864 668.4 907.93C709.467 909.264 750.533 909.264 791.6 907.93C794.267 908.864 794.8 891.524 795.6 890.457C795.733 889.79 795.2 889.123 794.533 889.123L794.267 889.256Z" fill="black"/>
<path d="M373.467 1009.7C378 1012.5 382.933 1013.3 388.133 1011.17L419.6 690.247L412.4 611.018L373.467 1009.83V1009.7Z" fill="black"/>
<path d="M522.533 1000.76C527.067 1003.56 532 1004.36 537.2 1002.23L540.667 968.617L525.6 969.951L522.667 1000.76H522.533Z" fill="black"/>
<path d="M472.267 974.886L474.267 1022.77C479.333 1025.44 484.133 1025.84 488.8 1021.7L487.467 973.152L472.267 974.886Z" fill="black"/>
<path d="M612.667 962.08L597.2 963.547L603.6 1012.5C608.267 1014.5 614.267 1014.23 618 1011.3L612.8 962.214L612.667 962.08Z" fill="black"/>
<path d="M387.467 347.32L447.2 977.152L641.467 959.413L576.533 336.516L387.467 347.32Z" fill="white"/>
<path d="M642.533 959.28C623.333 764.007 599.333 531.388 578.133 336.383C578.133 332.114 389.067 348.52 387.467 347.187C405.733 550.862 425.067 775.878 447.333 977.82C502.267 971.684 588.533 967.283 642.667 959.28H642.533ZM544.267 967.549C516.933 970.084 474.8 974.085 447.733 976.486C429.733 774.011 408.533 550.195 387.733 347.453L575.2 338.117C594.533 532.588 618.933 764.141 640.133 958.346L544.133 967.549H544.267Z" fill="black"/>
<path opacity="0.9" d="M402.4 360.659L459.467 962.215L627.467 947.276L566 350.922L402.4 360.659Z" fill="#0ABBEF"/>
<path d="M415.2 495.641L501.734 354.789L530.4 353.055L418.667 532.454L415.2 495.641Z" fill="white"/>
<path d="M421.333 559.666L548.666 353.056L560.533 351.322L423.066 572.604L421.333 559.666Z" fill="white"/>
<path d="M450.4 866.179L595.734 639.162L597.2 665.839L453.734 900.859L450.4 866.179Z" fill="white"/>
<path d="M66.934 265.689H-58.666V957.012H66.934V265.689Z" fill="white"/>
<path d="M66.9335 957.012C66.2668 957.012 -58.7998 957.679 -59.3331 957.679C-60.5331 762.941 -60.5331 464.03 -60.7998 265.69V263.689C-56.5331 263.689 64.4002 263.689 68.6669 263.689C68.6669 457.628 67.4669 760.807 66.8002 956.879L66.9335 957.012ZM66.9335 957.012C66.0002 761.073 65.2002 459.362 65.0669 265.69L66.9335 267.558H-58.6665L-56.6665 265.69C-56.6665 464.964 -57.0665 761.207 -57.9998 957.012L-58.5331 956.479L67.0669 957.012H66.9335Z" fill="black"/>
<path d="M417.6 269.693L397.333 270.093C394.933 376.799 381.733 973.953 382.266 1013.57H355.866V955.546C355.733 955.546 79.9995 954.879 79.9995 954.879C79.9995 969.685 79.7329 998.629 79.5995 1013.57L53.3329 1011.3C51.4662 974.486 50.7995 736.665 50.3995 694.65H51.8662C48.9329 647.832 40.9329 330.382 39.3329 275.828C35.9995 275.828 29.1995 275.962 25.8662 276.095V245.417L29.5995 228.211C29.5995 228.211 123.866 228.611 124 228.477C133.866 212.338 153.733 179.526 178.133 169.122C233.333 148.181 270.933 151.516 314.133 189.129C324.533 198.199 322.933 195.932 326.666 204.735C330.8 213.672 337.866 227.277 341.733 234.613C342.666 234.613 413.466 240.215 416.8 240.482L417.733 269.559L417.6 269.693Z" fill="white"/>
<path d="M203.867 651.966C163.6 647.964 122.267 655.167 82.8002 657.835C66.8002 543.126 68.5335 424.415 65.2002 308.639C105.467 302.37 149.867 306.905 191.6 305.438V307.172C193.467 307.038 195.2 306.771 196.934 306.638C201.467 417.212 198.134 540.991 203.734 651.966H203.867Z" fill="#D1CDCB"/>
<path d="M363.6 721.459H78.5332V810.825H363.6V721.459Z" fill="#D1CDCB"/>
<path d="M363.733 829.633H78.5332V916.998H363.733V829.633Z" fill="#D1CDCB"/>
<path d="M382.8 953.678C382.8 967.683 382.533 999.295 382.4 1013.57H356V955.546C355.867 955.546 80.1335 954.879 80.1335 954.879C80.1335 969.684 79.8668 998.628 79.7335 1013.57L53.4668 1011.3V953.545H382.933L382.8 953.678Z" fill="#D1CDCB"/>
<path d="M230.267 873.782C230.4 890.589 212.267 890.589 212.4 873.782C212.267 856.976 230.4 856.976 230.267 873.782Z" fill="white"/>
<path d="M229.333 759.339C229.467 776.145 211.333 776.145 211.467 759.339C211.333 742.533 229.467 742.533 229.333 759.339Z" fill="white"/>
<path d="M84.2665 733.996C89.1999 736.531 94.3999 737.464 99.4665 738.398C92.5332 737.331 85.4665 736.397 78.5332 737.998V721.592H166.933L169.467 722.525C141.333 726.66 112.8 724.926 84.6665 727.727C84.5332 729.728 84.3999 731.862 84.2665 733.996Z" fill="white"/>
<path d="M136.133 763.742C116.933 765.742 97.7332 766.676 78.5332 766.543V750.27C89.5999 750.137 100.8 750.937 111.733 752.938L111.067 754.005C101.867 754.538 92.6665 754.938 83.4665 755.472C81.9999 755.339 82.5332 758.006 81.5999 758.406C99.4665 763.875 118.133 759.207 136 763.742H136.133Z" fill="white"/>
<path d="M81.9999 786.55C80.7999 789.351 83.0665 793.619 85.4665 793.886C83.9999 795.219 82.2665 796.153 80.5332 796.687C81.4665 800.021 83.7332 802.555 86.2665 803.089L82.1332 803.756C93.0665 810.425 106.667 807.757 118.933 810.692H78.5332V781.348C82.9332 779.614 87.4665 780.147 91.9999 780.547C107.6 782.415 123.067 779.48 138.533 778.146C120.267 784.149 100.933 784.149 81.9999 786.416V786.55Z" fill="white"/>
<path d="M363.733 721.458V754.003C359.466 754.003 355.2 753.87 351.066 753.47C354.4 750.135 363.066 749.868 361.333 743.599C352.666 741.865 343.866 745.2 335.2 743.599C343.2 741.999 351.2 739.731 359.066 736.93C358.666 733.863 361.466 728.661 359.066 726.526C347.733 724.392 336.266 723.192 324.8 722.925C334.266 721.725 354.133 721.191 363.866 721.458H363.733Z" fill="white"/>
<path d="M363.734 759.473V810.958H332.8C340.8 808.691 348.8 806.557 356.8 804.423C359.067 802.822 358.134 798.554 359.067 796.019C355.334 795.619 351.734 794.952 348.134 793.752C351.6 793.352 355.067 792.418 358.4 790.818C354.4 790.151 350.534 789.484 346.534 788.95C351.6 787.083 356.667 785.215 361.467 782.548C351.2 782.548 340.934 781.747 330.667 780.414C341.467 778.413 352.4 777.346 363.2 776.412C359.467 774.145 355.6 771.877 351.867 769.61L363.734 759.606V759.473Z" fill="white"/>
<path d="M363.866 829.631V844.17C360.266 842.57 356.666 841.636 352.933 841.236C354.4 839.635 356.133 838.301 358 837.368C358 836.301 357.066 835.9 356.266 836.034C334.533 838.568 312.533 836.434 291.333 829.498H364L363.866 829.631Z" fill="white"/>
<path d="M363.866 875.916V884.719C356.4 882.985 348.666 879.651 341.066 881.518C337.333 882.452 333.6 884.853 329.866 883.652C320.266 880.718 309.733 883.652 299.866 879.117V878.584C309.6 875.516 319.866 875.249 329.733 877.783C333.066 879.251 335.733 875.649 338.666 874.849C346.8 873.248 356.266 880.851 363.733 875.783L363.866 875.916Z" fill="white"/>
<path d="M363.866 863.511V870.046C356.533 869.246 348.933 870.847 341.6 868.579C348.666 864.844 356.133 862.177 363.866 863.511Z" fill="white"/>
<path d="M363.867 895.522V916.997H325.733C335.467 913.662 345.6 912.862 355.733 911.661C358.267 911.795 358.667 908.86 360.133 907.527C357.333 907.927 354.4 907.526 351.6 906.726C354.533 904.592 357.2 902.191 359.867 899.257C355.2 896.989 348.267 897.123 342.933 895.655L364 895.389L363.867 895.522Z" fill="white"/>
<path d="M137.867 844.971C138.133 844.971 138.4 844.971 138.667 844.971C131.2 852.174 121.333 846.972 112.667 849.506C103.6 855.108 94.2665 846.572 84.9332 848.706C83.8665 862.044 85.9999 859.243 98.1332 861.511C91.7332 863.111 85.1999 863.778 78.5332 863.511V829.632C87.0665 829.632 136.933 829.232 144.133 830.299C124.4 830.299 104.933 836.435 85.3332 836.568C86.5332 838.969 83.8665 843.504 85.9999 844.838C96.1332 847.105 106.267 852.174 115.867 845.638C126.267 842.704 120.267 850.306 137.733 844.971H137.867Z" fill="white"/>
<path d="M138.533 844.838C131.733 842.837 124.666 843.104 118.266 840.036C114.133 839.502 110.266 843.637 106 843.904C100.133 843.37 94.2664 840.836 88.2664 841.103C85.8664 840.836 78.5331 841.77 80.9331 845.371C84.6664 848.706 89.5998 847.105 94.1331 847.772C97.5998 848.305 100.933 850.306 104.533 850.44C112 849.906 119.466 844.838 127.066 848.572L138.533 844.704V844.838Z" fill="white"/>
<path d="M82.1337 886.186C90.5337 889.921 99.2003 892.855 108 894.989C106.4 894.989 79.2003 893.522 78.667 893.255V877.383C91.2003 880.717 104.267 880.451 117.067 879.117C93.867 892.722 79.467 875.249 82.267 886.053L82.1337 886.186Z" fill="white"/>
<path d="M186.666 472.833C186.266 475.9 190.533 490.706 186.933 490.572C184.133 490.439 180 488.172 179.066 492.173C175.866 501.643 177.466 512.847 177.333 522.851C178.533 528.32 174.666 572.603 186 561.399C191.333 575.937 192.933 582.206 174.4 579.139C164.4 557.664 168.133 530.854 168.8 506.845C170.666 495.241 167.2 464.163 186.533 472.833H186.666Z" fill="white"/>
<path d="M292.8 537.125C294 542.727 292.8 549.129 289.6 553.131C293.2 553.131 298.8 554.598 299.2 559.4C296.8 564.201 290 565.535 286 568.736C289.6 571.804 292.533 576.473 294.133 581.941C294.4 583.275 294.933 584.609 296.4 584.876C307.2 587.944 309.866 607.017 298 610.752C280.8 617.154 261.866 612.619 243.866 613.686C242.533 613.82 241.866 612.753 242 611.419C242.133 586.61 238.666 561.134 241.866 536.591C258.666 535.791 275.866 536.458 292.8 536.991V537.125Z" fill="url(#paint1_linear_2144_5298)"/>
<path d="M25.0668 271.826C24.6668 257.821 25.0668 243.282 28.1334 229.277C60.5334 225.275 94.1334 227.009 126.133 228.877C143.6 165.92 228.533 139.644 283.867 168.454C283.867 168.454 283.733 168.454 283.6 168.321C311.333 182.059 331.867 207.802 341.6 236.746C337.067 218.873 327.467 202.067 314.667 188.462C306.133 179.392 296.133 171.655 284.933 166.053L285.2 166.32C228.533 135.642 144.133 165.12 124.933 228.076C93.3334 223.675 61.2001 223.408 29.6001 227.276C21.6001 225.675 24.0001 265.824 24.9335 271.826H25.0668ZM313.2 189.929C313.067 189.795 312.933 189.395 312.933 189.262L313.2 189.929Z" fill="black"/>
<path d="M215.867 771.61C231.6 779.879 235.867 747.467 220.4 746.4C232.8 747.467 232.4 770.543 220.4 771.743C208.4 770.543 208 747.467 220.4 746.4C209.067 747.601 207.467 765.608 215.867 771.61Z" fill="black"/>
<path d="M216.666 885.92C232.4 894.19 236.666 861.778 221.2 860.711C233.6 861.778 233.2 884.853 221.2 886.054C209.2 884.853 208.8 861.778 221.2 860.711C209.866 861.911 208.266 879.918 216.666 885.92Z" fill="black"/>
<path d="M176.133 473.1C178 470.966 180.533 470.699 182.8 471.366C178.666 467.498 173.066 473.233 171.6 477.635C154.666 483.637 162.933 532.722 161.466 548.861C162.133 560.199 160.933 573.137 166 583.407C171.2 590.743 184.533 590.743 186.933 581.007C193.466 581.273 187.733 558.598 185.733 560.999C174.266 573.004 180.4 519.384 178.533 514.048C179.2 508.313 174.933 492.974 182 490.306C185.2 491.107 188.933 494.174 189.466 488.172C186.133 466.297 185.066 464.297 187.733 487.905C187.466 490.04 186.266 489.239 184.8 488.306C171.866 483.104 176 507.113 175.6 514.182C177.333 520.584 173.333 573.804 186 562.733C187.333 567.135 190.266 574.471 187.466 578.339C179.866 581.673 172.666 577.138 172.4 568.469C171.2 546.06 172.666 522.185 171.733 499.91C172 490.84 169.733 480.169 175.866 473.1H176.133Z" fill="black"/>
<path d="M243.2 580.607C247.067 583.275 254.267 584.209 259.334 585.543V581.541C254 581.141 248.667 580.607 243.2 580.607Z" fill="black"/>
<path d="M256.134 371.463C237.467 371.996 238 372.663 256.134 374.397V371.463Z" fill="black"/>
<path d="M420.933 239.147C410.8 232.078 394.267 235.412 382.8 234.745C370.4 235.145 356.933 234.212 345.067 235.679C367.467 240.748 394.933 237.146 416.667 244.349C415.6 251.285 414.933 258.354 414.667 265.423C284.8 271.025 153.867 267.291 24.2666 275.961C28.3999 277.428 34.3999 276.627 39.1999 277.161C45.3333 472.833 51.3333 847.639 51.7333 1014.37L79.7333 1014.1C81.5999 995.16 79.5999 973.685 80.1333 953.945C170.8 955.012 265.2 954.211 356 955.278C356.533 964.882 354.533 1004.5 356.133 1013.97C362.4 1013.43 377.6 1015.17 383.2 1013.3C387.2 782.948 394.8 507.379 397.733 274.227C403.2 272.759 421.333 277.161 420.933 269.425C419.467 261.689 424.533 243.148 421.333 238.88L420.933 239.147ZM78.9333 1012.77L52.6666 1012.5C53.7333 994.493 54.2666 973.418 54.5333 955.545C60.1333 966.883 69.1999 974.085 79.1999 980.888C79.1999 991.425 78.9333 1002.1 78.9333 1012.63V1012.77ZM381.867 983.689C381.867 991.025 381.733 1005.7 381.733 1012.9C375.467 1012.9 362.8 1012.9 356.533 1012.9C356.533 995.16 356.267 973.818 356 956.079C359.467 970.217 371.333 970.484 382 975.019V983.555L381.867 983.689ZM396.667 291.033C344 288.232 290.933 288.232 238.4 291.033C238 285.564 238.4 279.829 237.6 274.493C236.533 387.335 239.867 500.577 240.267 613.552C239.733 613.552 239.733 614.086 240.267 614.086C240.933 639.695 241.2 665.705 242.667 691.181C243.333 679.31 242.933 666.905 243.2 654.901C248.667 655.968 254 656.368 259.333 656.635V650.232C253.867 651.033 248.533 651.966 243.2 653.7C243.2 640.629 243.2 627.557 243.2 614.619C248.533 615.419 254 615.953 259.333 616.353V613.019C254 613.019 248.533 613.285 243.2 613.552C243.2 598.346 242.933 583.007 242.667 567.802C248.133 569.536 253.6 570.603 259.333 570.736V566.335C253.733 565.801 248.267 566.068 242.667 567.135C242.667 561.666 242.533 556.197 242.4 550.729C248 552.196 253.6 553.13 259.2 553.663V549.128C253.6 548.995 248 549.128 242.267 549.928C242.267 545.527 242.267 540.992 242.133 536.59C247.867 537.791 253.6 538.191 259.2 537.257V534.456C253.467 533.522 247.733 534.189 242.133 535.79C241.867 524.986 241.6 514.315 241.333 503.511C247.067 502.978 253.333 504.445 259.2 504.178V500.977C257.333 500.977 255.467 501.244 253.6 501.377C251.733 496.042 250.267 490.573 248.667 485.105C252 483.637 255.6 483.504 259.2 483.771V480.036C256.667 479.903 254.133 480.036 251.6 480.703C250.533 480.303 249.733 479.236 249.2 478.035C249.467 478.836 251.6 480.436 251.467 479.369C245.467 474.034 252 464.83 259.2 465.897V462.296C258.267 462.429 257.2 462.696 256.133 462.963C254.533 458.428 253.333 453.76 252.667 448.958C254.8 449.091 257.067 449.225 259.2 449.225V445.623C258 445.623 256.667 445.623 255.467 445.623C254.4 444.289 253.733 442.689 253.333 440.822C253.6 441.889 255.867 444.156 256 442.956C251.467 439.488 253.867 429.484 259.333 428.15V424.682C258 425.216 256.667 426.149 255.6 427.216C248.4 428.417 244.8 434.953 245.2 442.155C238.267 452.292 248.267 456.694 240.4 464.83C239.333 428.95 240.4 392.937 239.867 356.924C245.2 358.524 250.533 359.858 256.133 360.392C256.133 357.057 256.533 349.721 254.533 346.787C255.067 346.787 255.6 346.787 256.133 346.92V345.453C255.467 345.586 254.933 345.72 254.267 345.986C253.6 344.119 252.533 342.385 251.867 340.651C253.2 339.184 254.667 337.983 256.267 337.317V332.915C250.533 333.582 251.467 325.979 256.267 325.846V321.044C254.933 320.244 255.2 318.109 256.267 316.909V298.369C252.133 300.37 241.067 304.371 245.333 310.64C247.2 317.309 239.333 321.177 239.467 327.846C239.2 315.575 238.8 303.304 238.4 291.166C291.067 293.967 344.133 293.967 396.667 291.166C395.867 318.376 395.067 345.586 394.4 372.796C393.733 372.796 393.067 372.796 392.4 372.796V373.73C393.067 373.73 393.733 373.597 394.4 373.463C392.133 452.559 389.067 589.81 388 653.3V654.1C388 655.701 387.867 661.17 388 662.77L387.333 694.649C276.8 696.249 161.467 687.046 52.1333 698.25C94.1333 702.518 136.267 700.517 178.267 697.45C248 696.116 318.133 710.921 387.333 695.716C385.867 779.08 384.533 870.58 382.267 953.544C274.8 952.744 162 952.877 54.9333 954.078C54.5333 738.531 47.0666 496.175 39.7333 277.695C99.4666 280.896 159.467 277.161 219.067 274.627C218.8 280.229 218.4 285.831 218.267 291.433C165.6 288.632 112.533 288.632 59.8666 291.433C112.533 294.234 165.6 294.234 218.267 291.433C218.8 424.816 217.6 559.399 227.2 692.381C229.2 553.396 222.267 413.611 219.867 274.627C277.733 274.36 339.6 276.761 397.6 274.893C397.467 280.362 397.2 285.964 397.067 291.433L396.667 291.033ZM239.6 334.115C239.733 336.383 242.133 339.451 239.733 341.185C239.733 338.784 239.733 336.516 239.6 334.115ZM250.4 448.424C250.4 448.424 250.533 448.424 250.667 448.424C250.667 448.691 250.667 448.958 250.8 449.225C250.8 448.958 250.533 448.691 250.4 448.424Z" fill="black"/>
<path d="M243.066 518.184C247.066 519.918 254.266 519.251 259.333 519.785V516.717C253.866 516.984 248.533 517.517 243.066 518.184Z" fill="black"/>
<path d="M24.5334 275.694C24.5334 275.694 24.4 275.694 24.2666 275.827C24.5334 275.827 24.6668 275.56 24.5334 275.694Z" fill="black"/>
<path d="M24.0002 276.095C24.0002 276.095 24.1336 276.095 24.267 276.095C24.267 276.095 24.267 275.962 24.267 275.828C24.0002 275.828 23.7334 276.095 24.0002 276.095Z" fill="black"/>
<path d="M205.067 520.718C198.667 449.358 204.8 377.332 196.666 306.105C196.4 420.148 197.333 535.924 205.333 649.833C208 607.15 206.666 563.667 204.933 520.718H205.067Z" fill="black"/>
<path d="M76.1338 526.854C67.8671 454.294 73.2004 381.067 66.1338 308.64C82.1338 313.309 98.5338 311.708 114.667 309.04C141.467 309.04 172.8 315.443 196.934 304.372C169.334 298.103 142.134 304.505 114.667 306.239C98.2671 303.972 81.6004 302.771 65.3338 307.573C64.6671 308.107 65.3338 308.64 66.0004 308.64C64.6671 424.683 68.1338 542.327 81.3338 657.836C82.8004 616.621 78.8004 569.803 76.2671 526.854H76.1338Z" fill="black"/>
<path d="M206.267 652.767C180.667 644.364 154.934 650.366 129.2 653.434C114.4 652.501 94.9335 651.567 83.2002 660.103C98.8002 662.904 114.134 659.837 129.334 656.235C154.267 654.901 183.467 661.837 206.267 652.767Z" fill="black"/>
<path d="M78.5331 810.425C171.333 811.359 270.8 812.026 363.733 809.892C363.066 787.483 366.266 741.733 363.733 720.259C274.4 718.925 168 719.192 78.6664 720.259C76.7997 748.936 78.1331 781.214 78.6664 810.292L78.5331 810.425ZM79.0664 803.089C86.9331 805.623 95.1997 806.424 103.466 804.957C95.8664 800.688 87.0664 799.888 79.0664 802.689C79.0664 799.621 79.0664 796.687 79.0664 793.619C82.3997 796.02 85.8664 796.02 89.1997 793.219C85.9997 790.418 82.3997 790.418 79.0664 792.685C79.0664 788.817 79.0664 784.949 79.0664 780.948H79.3331C94.6664 780.948 110.133 785.349 125.466 781.348C139.333 776.813 153.466 781.615 167.066 777.613C152.266 778.147 137.466 772.811 122.666 777.613C108.266 780.948 93.4664 777.346 79.0664 780.814C79.0664 775.879 79.0664 771.077 79.0664 766.142C100.133 768.143 121.2 767.209 142.133 763.475C121.066 761.474 99.8664 762.274 79.0664 766.009C79.0664 760.807 79.0664 755.738 79.0664 750.536C91.4664 751.47 104.133 755.738 116.4 752.137C104 750.003 91.4664 745.601 79.0664 750.136C79.0664 746.001 79.0664 741.867 79.0664 737.732C94.5331 740.133 109.6 741.2 125.2 740.933C110.4 735.464 94.5331 734.264 79.0664 737.332C79.0664 732.396 79.0664 727.328 79.0664 722.393C169.6 723.593 272.133 723.86 362.4 722.393V742.4C342.933 739.866 323.066 740.133 303.466 743.334C323.2 746.001 342.933 745.735 362.533 742.667V753.738C353.866 749.603 344 748.936 335.066 752.404C344.266 754.805 353.2 755.205 362.533 754.138C362.533 758.539 362.533 764.675 362.533 769.21C359.066 766.409 354.666 766.142 350.933 768.543C354.266 771.611 358.533 772.144 362.533 770.01V779.881C344 778.147 325.2 773.612 307.2 781.748C325.733 779.347 344.533 784.015 362.666 779.881V794.819C356.533 791.885 349.866 791.618 343.466 794.286C349.733 797.354 356.533 797.62 362.8 795.086V809.225C270.4 807.091 170.933 807.758 78.3997 808.691C78.3997 806.69 78.3997 804.823 78.3997 802.822L79.0664 803.089Z" fill="black"/>
<path d="M78.5334 918.599C170.133 919.533 271.733 920.2 363.733 918.066C363.2 894.724 366.133 850.974 363.733 828.432C274.4 827.099 168 827.365 78.6668 828.432C76.9334 857.11 78.1334 889.388 78.6668 918.466L78.5334 918.599ZM79.0668 916.998C79.0668 914.064 79.0668 911.13 79.0668 908.195C86.1334 912.73 94.8001 912.597 101.733 907.395C93.8668 906.728 86.9334 906.995 79.0668 907.795C79.0668 902.993 79.0668 898.192 79.0668 893.39C89.0668 895.657 99.7334 897.925 109.6 894.724C99.6001 892.056 89.3334 889.922 79.0668 893.123C79.0668 888.054 79.0668 883.119 79.0668 878.051C102.933 886.454 119.2 879.918 142.133 872.982C131.333 872.449 120.4 874.983 110.267 877.651C100.267 879.518 89.6001 876.85 79.0668 877.784C79.0668 872.982 79.0668 868.314 79.0668 863.512C86.8001 865.913 94.4001 865.913 102 862.845C94.6668 860.044 86.5334 860.178 79.0668 862.845C79.0668 858.043 79.0668 853.242 79.0668 848.44C92.4001 846.706 104.133 857.11 117.333 850.04C123.6 849.24 131.333 852.575 136.667 846.839C142.933 843.238 146.533 855.376 154.8 846.839C146.533 853.242 143.333 840.17 135.867 843.771C128.8 848.973 124.267 844.572 116.933 845.772C104.4 852.841 91.8668 843.105 79.2001 848.173C79.2001 842.304 79.2001 836.302 79.2001 830.433C169.067 831.634 272.533 831.9 362.533 830.433V842.037C359.467 839.236 354.933 839.103 351.867 842.037C355.467 844.572 358.8 844.972 362.667 843.371V851.641C346.667 848.04 327.6 843.238 313.867 855.509C329.867 848.44 346.133 854.175 362.667 851.908C362.667 856.176 362.667 865.513 362.8 869.648C355.467 865.646 346.133 864.713 338.933 869.648C346.933 870.581 354.933 871.515 362.8 870.181C362.8 873.649 362.8 879.785 362.933 883.386C355.2 881.652 347.867 878.051 340 878.584C337.067 879.385 334.667 882.452 331.733 881.785C327.867 879.518 322 878.718 317.733 879.385C308.667 879.385 298.533 873.516 290.133 880.051C299.467 876.05 308.267 883.253 317.6 883.519C323.067 882.986 326.267 883.786 331.067 886.054C334.667 887.121 337.6 883.386 340.4 882.319C347.6 881.652 355.333 883.92 362.667 883.653V884.32V895.257C355.467 891.656 347.733 891.656 340.533 895.257C347.867 897.525 355.2 897.525 362.667 895.524V906.195C358.267 903.66 353.067 904.194 349.067 907.395C353.6 910.063 358.667 909.529 362.8 906.461V916.865V917.532C270.133 915.398 170.8 916.065 78.2668 916.998H79.0668Z" fill="black"/>
<path d="M248 198.599C242 190.463 233.333 184.861 226.266 178.191C211.066 190.196 196.533 194.331 201.2 217.273L202.133 235.279C202.133 235.679 202.4 236.079 202.666 236.079C255.466 232.745 251.866 252.486 247.866 198.599H248ZM238.266 226.076C236.4 228.61 233.333 230.878 230.4 233.278C221.466 233.945 212.4 234.746 203.466 234.479C203.466 225.942 203.866 212.071 203.733 203.801C204.533 196.198 213.733 192.597 218.266 186.728C221.333 187.395 224.533 187.395 227.466 188.462C240.4 203.134 239.466 206.869 238.4 225.942L238.266 226.076Z" fill="black"/>
<path d="M262.933 232.745C263.6 233.812 264.533 233.946 265.2 233.946C270.933 233.946 276.667 235.013 282.267 235.279C284.533 235.146 288.533 236.613 289.867 233.546C292.8 216.072 293.6 209.137 277.6 199.133C256.8 213.005 262 208.336 262.933 232.745ZM263.733 229.544C264.667 224.075 265.2 218.34 264.533 212.871C268.4 209.403 272.267 205.802 275.867 201.8C283.2 213.005 282.533 218.873 281.333 231.678C277.333 230.878 262.4 236.213 263.733 229.677V229.544Z" fill="black"/>
<path d="M192.4 211.936C190.667 205.134 182.8 202.066 177.867 198.064C163.067 207.935 160.267 210.602 162.534 228.609C163.067 231.41 161.467 237.146 166.134 236.079C200.267 237.146 190.267 243.415 192.4 211.936ZM179.2 233.678C175.467 233.144 162.8 237.946 163.867 231.944C164.667 219.006 162.534 213.537 172.934 204.2C175.334 207.134 178.267 209.802 180.134 213.003C180.134 219.539 181.467 227.675 179.067 233.678H179.2Z" fill="black"/>
<path d="M259.333 630.092C239.467 630.759 239.867 631.692 259.333 633.16V630.092Z" fill="black"/>
<path d="M26.2666 228.477L-61.7334 247.417L-58.6667 281.429L24.2666 276.094" fill="white"/>
<path d="M26.2666 228.477C-2.80006 236.079 -32.0001 242.882 -61.3334 249.418L-59.7334 247.284C-58.8001 257.154 -57.6001 271.292 -56.8001 281.296L-58.8001 279.562C-31.2001 277.962 -3.46673 276.628 24.2666 276.094C-3.86673 279.162 -32.1334 281.429 -60.4001 283.564C-61.4667 272.093 -62.8001 257.287 -63.7334 245.95C-33.8667 239.547 -3.86673 233.545 26.2666 228.477Z" fill="black"/>
<path d="M262.133 285.562H251.733V671.038L262.533 671.305" fill="white"/>
<path d="M262.133 285.83C258.667 285.964 255.067 286.097 251.6 286.23L252.267 285.563C253.067 413.877 254.667 542.725 252.267 671.039L251.733 670.506C255.333 670.639 258.933 670.906 262.533 671.039V671.439C258.8 671.439 254.933 671.573 251.2 671.573C248.667 542.859 250.267 413.611 251.2 284.896C254.933 284.896 258.533 285.163 262.267 285.297V285.697L262.133 285.83Z" fill="black"/>
<path d="M382.266 305.438L262.133 285.564V671.307L376.533 654.634L382.266 305.438Z" fill="#D1CDCB"/>
<path d="M382.133 305.571C346.8 300.636 296.666 292.5 262 287.165L263.733 285.697C264.8 414.145 261.6 543.126 263.466 671.307L262 669.973C290.4 665.571 347.733 657.035 376.266 652.766L374.666 654.634C376 540.325 378.933 420.414 382.133 305.438V305.571ZM382.4 305.305C381.866 421.081 380.933 541.125 378.4 656.368C349.066 660.503 291.733 668.506 262.266 672.507L260.8 672.774C262.666 543.393 259.6 413.211 260.533 283.83C296.266 289.566 346.133 299.036 382.266 305.305H382.4Z" fill="black"/>
<path d="M27.3333 228.477C28.9333 244.482 27.8666 260.755 23.8666 276.494C22.2666 260.488 23.4666 244.216 27.3333 228.477Z" fill="black"/>
</g>
</g>
<defs>
<linearGradient id="paint0_linear_2144_5298" x1="665.467" y1="898.461" x2="794.267" y2="898.461" gradientUnits="userSpaceOnUse">
<stop stop-color="#EC5F6C"/>
<stop offset="0.6" stop-color="#C0434D"/>
<stop offset="1" stop-color="#A7333C"/>
</linearGradient>
<linearGradient id="paint1_linear_2144_5298" x1="240.533" y1="575.272" x2="305.733" y2="575.272" gradientUnits="userSpaceOnUse">
<stop stop-color="#FDE204"/>
<stop offset="0.7" stop-color="#F2A120"/>
<stop offset="1" stop-color="#EE882C"/>
</linearGradient>
<clipPath id="clip0_2144_5298">
<rect width="1920" height="1082" fill="white"/>
</clipPath>
<clipPath id="clip1_2144_5298">
<rect width="1920" height="1082" fill="white"/>
</clipPath>
</defs>
</svg>
