<svg width="194" height="188" viewBox="0 0 194 188" fill="none" xmlns="http://www.w3.org/2000/svg">
<g filter="url(#filter0_d_2183_2659)">
<circle cx="100" cy="93" r="90" fill="#B2D2DC"/>
</g>
<path d="M191.19 57.304C192.942 64.1578 192.982 71.11 193.074 78.2413C193.214 86.9063 192.538 95.4162 190.865 103.822C187.239 121.68 178.79 136.844 163.2 147.264C154.766 152.946 145.186 156.632 135.25 159.064C131.138 160.231 126.974 161.219 122.838 161.619C121.535 161.795 120.489 161.511 119.442 161.228C105.355 156.52 90.8846 152.502 76.4137 148.484C71.3605 147.016 66.2544 146.724 61.2012 145.256C59.9252 144.844 58.6492 144.432 57.6292 143.561C47.0452 135.538 39.3241 125.349 33.6226 113.426C29.3719 104.573 26.6024 95.4938 25.7998 85.8561C24.8996 73.1511 27.2666 61.0666 32.85 49.4234C39.6627 35.3037 50.4273 24.8986 63.7419 16.6715C71.9709 11.6284 80.785 7.96679 90.0319 5.14957C90.3895 5.04811 90.9767 5.07495 90.7735 4.35884L95.9589 2.88753C96.162 3.60364 96.6477 3.27238 97.0053 3.17092C103.186 1.80399 109.469 0.795115 115.954 0.50235C124.38 0.239319 132.908 0.334385 141.05 2.47334C151.514 5.30739 160.186 11.358 167.988 18.4292C173.801 23.937 178.694 30.2864 182.616 37.2981C186.104 43.4655 189.107 49.964 190.859 56.8177C190.91 56.9967 190.961 57.1757 191.011 57.3548L191.19 57.304ZM62.1501 142.472C68.4061 142.051 74.457 142.268 80.6602 143.023C94.4199 144.535 107.564 147.963 117.941 157.979C118.731 158.722 119.548 158.877 120.621 158.572C130.453 157.137 139.801 154.677 148.821 150.377C157.483 146.179 165.201 140.7 171.238 133.377C179.142 123.784 184.341 112.83 186.249 100.489C188.08 88.5567 188.506 76.4423 186.992 64.2983C186.826 56.2212 183.619 49.0065 179.877 41.944C173.791 30.7103 166.3 20.6493 154.87 14.4138C149.819 11.5913 144.666 8.41088 138.949 7.32508C122.791 4.17207 106.908 5.39034 91.505 10.3413C81.0573 13.6927 70.9652 18.2972 61.9174 24.5399C47.2212 34.7065 37.3201 48.1551 33.0554 65.8075C31.18 73.4969 31.0663 81.2667 31.9482 89.141C32.9317 97.3732 34.86 105.531 37.9891 113.154C42.7213 124.385 49.9589 133.551 58.704 141.902C60.0044 143.081 60.9229 143.594 62.6601 142.908L62.1501 142.472Z" fill="#070707"/>
<path d="M186.942 64.1193C188.455 76.2633 188.208 88.3269 186.198 100.31C184.29 112.651 179.091 123.605 171.187 133.198C164.972 140.572 157.483 146.179 148.77 150.198C139.751 154.498 130.453 157.137 120.57 158.393C119.497 158.698 118.68 158.543 117.89 157.8C107.334 147.834 94.3692 144.356 80.6095 142.844C74.457 142.268 68.3554 141.872 62.0993 142.293C55.6725 137.346 50.8305 131.176 46.5514 124.266C39.0375 112.083 34.104 98.7816 33.8703 84.3399C33.5877 68.3646 37.4908 53.5229 48.3347 41.3543C59.8694 28.216 74.8177 20.2992 90.8103 14.0204C97.2228 11.4271 104.042 10.266 110.861 9.10495C128.406 6.25446 144.102 10.5055 158.258 20.223C170.756 28.8634 178.729 41.3025 183.737 55.5499C184.55 58.4143 185.363 61.2788 186.891 63.9403L186.942 64.1193ZM92.5423 119.534C94.2694 125.621 96.0473 131.886 97.7745 137.973C98.6888 141.196 100.883 142.121 103.974 141.437C108.137 140.449 112.148 138.924 116.21 137.578C126.249 134.15 136.187 130.363 145.641 125.552C151.722 122.473 152.004 121.425 149.589 114.953C146.969 107.766 143.686 100.96 141.424 93.6704C140.002 88.6577 138.043 83.7972 135.241 79.3693C133.433 76.4006 132.157 75.9888 128.989 77.0811C125.515 78.4538 121.811 79.6983 118.387 81.2501C109.624 85.0907 100.606 88.0362 92.2759 92.7213C86.2962 96.1589 86.1682 96.3887 87.8181 102.884C89.214 108.485 90.6099 114.085 92.1847 119.635L92.5423 119.534ZM67.9119 79.7101C68.8811 80.4023 69.391 80.838 70.1306 81.4019C75.0274 85.0419 79.3188 83.8242 80.9361 77.949C82.0657 73.7596 82.2505 69.645 81.0314 65.3484C80.625 63.9162 80.373 61.6664 78.1766 62.0962C76.031 62.705 76.7686 64.6236 77.2258 66.2348C78.2417 69.8153 77.9553 73.5719 76.852 77.1734C76.1084 79.3188 74.8568 79.674 72.9692 78.4686C71.3112 77.3915 70.1387 75.9832 69.1451 74.5242C67.8712 72.7579 67.0828 70.6603 66.1664 68.7925C65.6828 67.7691 64.7136 67.0769 63.6916 67.5603C62.44 67.9155 62.3872 69.0911 62.5132 70.216C62.6656 70.7531 62.818 71.2901 63.0211 72.0062C63.7059 75.1004 64.4414 78.3736 63.4662 81.7454C63.0558 83.0225 62.9766 84.7859 61.3166 85.0635C59.8353 85.2903 59.1993 83.7298 58.3073 82.6288C56.0906 79.5825 54.4102 76.384 52.8578 72.9557C52.6546 72.2395 52.2219 71.3952 51.3278 71.6488C50.4338 71.9025 50.5091 72.8483 50.6615 73.3854C51.777 78.6786 53.6077 83.7689 57.5597 87.4835C60.7721 90.6342 64.0412 89.9001 66.2173 85.9941C67.2414 84.1561 67.7554 81.8824 68.0399 79.4804L67.9119 79.7101ZM121.782 30.5728C123.084 30.3967 124.051 32.4436 124.846 30.4772C125.563 28.9197 124.671 27.8186 123.523 27.1772C121.686 26.1508 119.541 26.7596 118.159 28.6992C117.212 30.1285 116.725 31.8144 116.645 33.5778C116.436 36.9257 116.942 40.0706 118.035 43.2423C118.899 46.2857 119.661 48.9711 116.058 50.5736C116.058 50.5736 115.88 50.6244 115.752 50.8541C115.317 51.3644 114.703 51.9254 115.264 52.54C115.697 53.3844 116.591 53.1308 117.306 52.9278C118.379 52.6234 119.529 51.9102 120.882 51.9131C121.085 52.6292 121.467 53.2946 121.798 53.7809C123.019 56.7229 124.291 59.8439 126.049 62.6337C126.711 63.6063 127.502 64.3493 128.881 63.7644C130.261 63.1795 130.314 62.0039 129.958 60.7507C129.806 60.2136 129.704 59.8555 129.373 59.3692C128.101 56.2482 126.344 53.4584 125.557 50.0062C127.703 49.3974 129.67 48.8393 131.535 47.9232C133.043 47.1085 134.091 46.0373 133.455 44.4768C132.947 42.6865 131.236 42.7851 129.627 43.2417C129.091 43.3939 128.554 43.5461 128.197 43.6476C126.817 44.2325 125.437 44.8173 123.7 45.5037C122.585 40.2105 119.86 35.3739 122.217 30.0626L121.782 30.5728ZM138.205 43.5157C139.323 47.4543 139.727 50.2412 141.026 52.7743C141.739 53.9261 142.81 54.9763 144.368 54.3406C145.799 53.9348 146.158 52.4787 145.931 50.9957C145.829 50.6377 145.677 50.1006 145.575 49.7426C144.203 44.9089 141.938 40.3288 139.315 35.8503C138.882 35.0059 138.449 34.1615 137.248 34.6957C136.354 34.9493 136.48 36.0742 136.684 36.7903C137.088 39.5772 137.799 42.0835 138.205 43.5157ZM88.9415 68.7137C88.9903 70.2474 89.7034 71.3991 90.059 72.6522C90.4654 74.0844 91.4081 75.3645 93.0173 74.9079C94.8054 74.4005 94.9355 72.8161 94.5291 71.3839C93.5903 67.3946 91.5787 63.7097 89.7459 59.9741C89.4919 59.0789 89.0592 58.2345 87.9864 58.5389C86.9136 58.8433 87.0395 59.9682 87.0639 60.7351C87.1106 63.6234 87.6938 66.3595 88.8134 68.9434L88.9415 68.7137ZM104.629 61.3608C106.009 60.7759 107.338 60.0119 108.157 58.8124C108.719 58.0723 108.874 57.2548 108.262 56.4611C107.651 55.6675 106.834 55.5123 106.119 55.7153C104.152 56.2734 102.746 57.4461 101.671 59.1051C101.031 60.2539 101.413 60.9193 102.638 61.152C103.455 61.3071 104.17 61.1042 104.757 61.131L104.629 61.3608ZM86.9765 50.8945C86.3913 49.513 85.2433 48.8715 83.9409 49.0476C83.0469 49.3013 82.484 50.0414 82.7888 51.1155C83.1952 52.5477 84.394 53.3682 85.8244 52.9623C86.8972 52.6579 87.2813 51.9687 86.9765 50.8945ZM134.883 28.4029C134.578 27.3288 134.146 26.4844 132.843 26.6605C131.77 26.9649 131.667 27.9615 131.921 28.8566C132.175 29.7517 132.53 31.005 134.012 30.7781C135.263 30.423 134.958 29.3488 134.883 28.4029Z" fill="#EA5E6B"/>
<path d="M186.942 64.1193C185.414 61.4578 184.78 58.5426 183.788 55.7289C178.78 41.4815 170.985 28.9917 158.308 20.402C144.152 10.6845 128.227 6.30518 110.911 9.28396C104.092 10.445 97.2736 11.606 90.8611 14.1993C74.8685 20.4781 59.9202 28.395 48.3855 41.5334C37.7712 53.8302 33.6893 68.7226 33.921 84.5189C34.1548 98.9605 39.0375 112.083 46.6022 124.445C50.8813 131.355 55.7233 137.525 62.1501 142.472C60.5917 143.108 59.4944 142.645 58.1941 141.467C49.4489 133.115 42.0326 124 37.4791 112.719C34.35 105.095 32.4217 96.9376 31.4382 88.7053C30.5563 80.8311 30.6701 73.0613 32.5454 65.3719C36.8609 47.8985 46.762 34.4499 61.4075 24.1042C70.634 17.8109 80.5473 13.2571 90.9951 9.90568C106.628 5.083 122.46 3.6857 138.439 6.88945C144.207 8.15427 149.309 11.1557 154.36 13.9781C165.84 20.3927 173.153 30.5044 179.367 41.5083C183.288 48.5201 186.316 55.7855 186.482 63.8627L186.942 64.1193Z" fill="#FDFDFD"/>
<path d="M92.5423 119.534C90.9676 113.984 89.3928 108.434 88.1757 102.783C86.475 96.1082 86.6538 96.0575 92.6335 92.6198C100.913 87.7558 109.931 84.8102 118.745 81.1486C122.168 79.5968 125.694 78.4031 129.347 76.9797C132.514 75.8874 133.79 76.2991 135.599 79.2679C138.401 83.6957 140.181 88.607 141.782 93.569C144.043 100.858 147.378 107.843 149.946 114.852C152.362 121.324 152.13 122.55 145.998 125.451C136.544 130.261 126.556 133.869 116.567 137.477C112.505 138.823 108.545 140.527 104.331 141.336C101.113 142.249 99.0464 141.094 98.1321 137.872C96.4049 131.785 94.627 125.519 92.8999 119.432L92.5423 119.534ZM101.298 138.134C102.907 137.678 104.209 137.502 105.64 137.096C118.004 133.007 130.317 128.74 142.044 123.091C149.02 119.757 148.124 121.366 145.785 114.485C143.115 107.118 139.858 99.7247 137.545 92.2563C136.529 88.6758 134.977 85.2475 133.297 82.0489C132.38 80.1811 131.155 79.9485 129.469 80.8138C122.213 83.8398 114.907 86.6868 107.6 89.5337C101.545 92.0256 95.4395 94.3383 89.4862 97.1882C94.1128 110.77 97.9734 124.376 101.706 138.212L101.298 138.134Z" fill="#070707"/>
<path d="M67.9119 79.7101C67.6275 82.1121 67.0625 84.2068 66.0893 86.2239C63.9132 90.1298 60.644 90.864 57.4316 87.7133C53.4288 83.8196 51.4701 78.9592 50.5333 73.6152C50.3301 72.8991 50.255 71.9532 51.1998 71.8785C52.0938 71.6249 52.5266 72.4693 52.7298 73.1854C54.2821 76.6137 55.9625 79.8122 58.1793 82.8586C58.8417 83.8313 59.7072 85.5201 61.1884 85.2933C62.8484 85.0157 62.9277 83.2522 63.3382 81.9751C64.3642 78.7824 63.4499 75.5599 62.8931 72.236C62.7407 71.6989 62.5883 71.1619 62.3851 70.4457C62.0804 69.3716 62.3628 68.3242 63.5636 67.7901C64.8152 67.4349 65.5548 67.9988 66.0384 69.0223C66.9547 70.8901 67.7431 72.9876 69.0171 74.754C70.0615 76.392 71.2338 77.8004 72.841 78.6984C74.7286 79.9037 76.1591 79.4979 76.7239 77.4032C77.8272 73.8017 77.9348 70.0958 77.0976 66.4645C76.6405 64.8533 75.9029 62.9347 78.0486 62.3259C80.1942 61.7171 80.4462 63.9669 80.9034 65.5781C82.0717 69.6957 81.9376 73.9894 80.8079 78.1788C79.0118 84.1047 74.7714 85.5014 70.0026 81.6316C69.3138 81.2468 68.753 80.6321 67.7838 79.9399L67.9119 79.7101Z" fill="#070707"/>
<path d="M121.782 30.5728C119.425 35.8841 122.15 40.7207 123.265 46.014C125.003 45.3276 126.382 44.7427 127.762 44.1578C128.298 44.0056 128.835 43.8534 129.192 43.7519C130.801 43.2953 132.384 43.4265 133.02 44.987C133.528 46.7773 132.659 47.7978 131.1 48.4334C129.235 49.3495 127.268 49.9076 125.122 50.5165C126.088 53.9179 127.666 56.7584 128.938 59.8794C129.091 60.4165 129.422 60.9028 129.524 61.2609C129.879 62.514 129.647 63.7404 128.447 64.2746C127.246 64.8088 126.277 64.1166 125.614 63.1439C123.857 60.3541 122.635 57.4122 121.364 54.2912C121.16 53.5751 120.778 52.9097 120.447 52.4233C119.043 52.2414 118.123 53.0829 116.871 53.438C116.156 53.641 115.441 53.8439 114.829 53.0502C114.447 52.3849 114.882 51.8746 115.317 51.3644C115.317 51.3644 115.445 51.1346 115.624 51.0839C119.175 49.3023 118.464 46.796 117.601 43.7525C116.737 40.7091 116.001 37.4359 116.211 34.088C116.29 32.3246 116.777 30.6388 117.724 29.2095C119.106 27.2699 121.43 26.6104 123.088 27.6874C124.287 28.5079 125.128 29.4298 124.411 30.9874C123.566 32.7748 122.65 30.907 121.347 31.0831L121.782 30.5728Z" fill="#070707"/>
<path d="M138.205 43.5157C137.799 42.0835 137.037 39.3982 136.684 36.7903C136.48 36.0742 136.354 34.9493 137.248 34.6957C138.321 34.3912 138.754 35.2357 139.315 35.8503C142.066 40.0991 144.153 44.7298 145.575 49.7426C145.677 50.1006 145.829 50.6377 145.931 50.9957C146.337 52.4279 145.748 53.7557 144.368 54.3406C142.759 54.7973 141.739 53.9261 141.026 52.7743C139.727 50.2412 139.144 47.505 138.205 43.5157Z" fill="#070707"/>
<path d="M88.9415 68.7137C87.8219 66.1298 87.4175 63.3429 87.1919 60.5053C87.1675 59.7385 86.8627 58.6643 88.1144 58.3092C89.1872 58.0048 89.6708 59.0282 89.874 59.7443C91.5279 63.5307 93.7183 67.1648 94.657 71.1541C95.1142 72.7653 94.9842 74.3498 93.1454 74.6781C91.3573 75.1854 90.5933 73.8547 90.187 72.4225C89.8314 71.1693 89.1182 70.0176 89.0694 68.4839L88.9415 68.7137Z" fill="#070707"/>
<path d="M104.629 61.3608C104.093 61.513 103.378 61.7159 102.51 61.3817C101.285 61.149 100.903 60.4837 101.543 59.3349C102.618 57.6759 104.202 56.4524 105.991 55.9451C106.885 55.6914 107.701 55.8465 108.134 56.6909C108.746 57.4845 108.591 58.3021 108.029 59.0421C107.21 60.2416 105.83 60.8265 104.501 61.5905L104.629 61.3608Z" fill="#070707"/>
<path d="M86.9765 50.8945C87.2813 51.9687 86.7184 52.7087 85.8244 52.9623C84.394 53.3682 83.1952 52.5477 82.7888 51.1155C82.5348 50.2204 83.0469 49.3013 83.9409 49.0476C85.3713 48.6418 86.3913 49.513 86.9765 50.8945Z" fill="#070707"/>
<path d="M134.883 28.4029C135.137 29.2981 135.442 30.3722 134.012 30.7781C132.76 31.1332 132.354 29.701 131.921 28.8566C131.667 27.9615 131.77 26.9649 132.843 26.6605C134.095 26.3053 134.4 27.3795 134.883 28.4029Z" fill="#070707"/>
<path d="M101.298 138.134C97.565 124.299 93.7044 110.693 89.0778 97.1106C95.0311 94.2608 101.137 91.948 107.192 89.4562C114.447 86.4302 121.805 83.7622 129.06 80.7362C130.976 79.9991 131.972 80.1036 132.888 81.9714C134.62 85.3489 136.121 88.5982 137.137 92.1787C139.5 99.8261 142.885 106.99 145.376 114.408C147.715 121.288 148.79 119.629 141.636 123.013C129.908 128.662 117.595 132.93 105.231 137.018C103.801 137.424 102.549 137.779 100.889 138.057L101.298 138.134ZM100.901 112.906C102.019 116.845 102.907 120.655 104.382 124.492C105.654 127.613 108.409 129.153 111.04 128.213C115.46 126.765 119.828 125.139 124.196 123.512C127.85 122.089 131.554 120.844 135.106 119.063C137.099 117.917 137.381 116.87 136.772 114.721C135.678 111.55 134.534 108.199 133.441 105.027C131.84 100.065 130.597 95.0018 127.973 90.5232C126.726 88.1691 125.629 87.7067 123.048 88.8257C120.953 89.6136 118.909 90.5804 116.865 91.5473C111.04 94.1674 105.292 96.3787 99.8486 99.6641C98.1622 100.53 97.8025 101.986 98.2597 103.597C99.1741 106.819 100.038 109.863 100.952 113.085L100.901 112.906Z" fill="#FDFDFD"/>
<path d="M100.901 112.906C99.9868 109.684 99.1233 106.64 98.209 103.418C97.7518 101.807 98.341 100.479 99.7979 99.4851C105.292 96.3787 111.168 93.9376 116.815 91.3682C118.859 90.4014 120.903 89.4345 122.997 88.6467C125.578 87.5276 126.624 87.811 127.923 90.3442C130.367 94.8735 131.789 99.8862 133.39 104.848C134.305 108.071 135.628 111.371 136.721 114.542C137.381 116.87 137.278 117.866 135.055 118.884C131.503 120.665 127.85 122.089 124.146 123.333C119.777 124.96 115.358 126.407 110.99 128.034C108.307 128.795 105.603 127.434 104.331 124.313C102.907 120.655 101.968 116.666 100.85 112.727L100.901 112.906ZM111.101 121.618C111.408 121.338 111.894 121.007 112.379 120.675C114.858 119.198 118.459 118.95 118.414 114.707C118.211 113.991 118.952 113.201 119.718 113.177C120.663 113.102 120.61 114.278 121.171 114.892C121.835 114.51 122.628 113.899 123.367 114.463C124.107 115.026 123.953 115.844 123.977 116.611C123.745 117.837 123.105 118.986 122.159 120.415C125.529 120.039 127.856 118.025 131.253 117.061C129.697 116.342 129.213 115.319 128.039 115.265C126.456 115.134 125.972 114.11 125.745 112.627C125.491 111.732 125.696 111.094 124.42 110.682C122.965 110.321 122.788 109.017 123.378 107.689C124.223 105.902 124.788 103.807 126.092 102.277C128.701 99.215 127.352 96.5028 125.773 93.6623C124.57 95.5511 123.014 94.8321 121.815 94.0116C120.667 93.3701 120.131 93.5224 119.058 93.8268C115.098 95.5307 111.138 97.2347 107.127 98.7596C105.518 99.2162 105.184 100.085 105.105 101.848C106.204 100.956 106.997 100.344 108.324 100.935C109.421 101.397 110.467 101.681 111.692 101.913C112.363 97.4674 114.254 95.9634 118.44 97.0971C118.544 96.1005 118.647 95.1039 119.72 94.7995C121.329 94.3429 121.659 96.1839 122.628 96.876C123.241 96.315 123.676 95.8048 124.595 96.318C125.283 96.7028 125.308 97.4697 125.103 98.1082C124.562 100.97 123.384 103.625 122.563 106.18C120.929 105.869 120.83 104.157 119.682 103.515C118.276 104.688 117.256 103.817 116.134 102.587C115.699 103.098 115.214 103.429 114.958 103.888C117.15 106.168 117.532 106.833 116.841 107.803C115.025 110.253 113.446 107.412 111.684 107.332C111.272 109.964 110.272 112.569 109.222 114.994C108.888 115.863 108.478 117.14 107.202 116.728C105.747 116.367 106.286 114.86 106.389 113.864C106.672 112.816 107.005 111.948 107.287 110.901C107.954 109.164 108.62 107.428 109.465 105.64C108.547 105.127 107.885 104.154 107.298 104.128C105.424 110.462 104.317 116.773 107.627 122.991C107.627 122.991 107.627 122.991 107.678 123.17C107.956 124.832 109.181 125.065 110.612 124.659C111.506 124.405 112.349 123.973 113.192 123.54C112.223 122.848 110.205 123.227 111.587 121.287L111.101 121.618ZM129.038 112.66C130.952 113.278 132.253 114.456 132.147 116.807C132.862 116.604 133.756 116.351 133.324 115.506C131.822 112.257 130.857 108.856 129.56 104.968C128.971 106.296 128.024 107.725 128.484 107.981C129.886 109.518 128.99 111.126 129.268 112.788L129.038 112.66ZM99.743 102.015C99.9462 102.731 100.149 103.448 100.991 104.37C101.222 103.143 101.555 102.275 101.71 101.457C100.765 101.532 100.229 101.684 99.5642 102.066L99.743 102.015Z" fill="#070707"/>
<path d="M111.101 121.618C109.72 123.558 111.609 123.409 112.706 123.871C111.812 124.125 111.02 124.736 110.126 124.99C108.874 125.345 107.521 125.342 107.192 123.501C107.192 123.501 107.192 123.501 107.141 123.322C103.831 117.104 104.76 110.844 106.812 104.459C107.578 104.435 108.189 105.228 108.98 105.971C108.313 107.708 107.647 109.445 106.802 111.232C106.469 112.1 106.007 113.198 105.904 114.195C105.621 115.242 105.211 116.519 106.716 117.059C107.992 117.471 108.403 116.194 108.736 115.326C109.787 112.9 110.607 110.346 111.199 107.663C112.96 107.744 114.539 110.584 116.355 108.134C117.046 107.165 116.664 106.499 114.472 104.22C114.779 103.939 115.214 103.429 115.648 102.919C116.591 104.199 117.79 105.019 119.196 103.846C120.344 104.488 120.444 106.201 122.077 106.511C122.847 103.778 124.255 101.25 124.617 98.4394C124.822 97.8009 124.798 97.034 124.109 96.6492C123.191 96.136 122.756 96.6462 122.142 97.2072C121.173 96.515 121.073 94.8023 119.235 95.1306C118.162 95.4351 118.058 96.4317 117.954 97.4283C113.948 96.2439 111.826 97.6195 111.207 102.244C110.16 101.961 108.935 101.728 107.838 101.266C106.562 100.854 105.719 101.287 104.619 102.179C104.699 100.416 105.083 99.7265 106.641 99.0909C110.652 97.5659 114.612 95.862 118.572 94.158C119.645 93.8536 120.36 93.6507 121.329 94.3429C122.477 94.9843 124.085 95.8823 125.287 93.9935C127.045 96.7833 128.394 99.4955 125.607 102.608C124.302 104.139 123.686 106.054 122.892 108.021C122.303 109.348 122.479 110.652 123.934 111.013C125.16 111.246 125.005 112.063 125.259 112.959C125.436 114.263 125.97 115.465 127.553 115.596C128.728 115.65 129.262 116.852 130.768 117.392C127.37 118.356 125.223 120.32 121.673 120.747C122.62 119.317 123.26 118.168 123.491 116.942C123.646 116.125 123.8 115.307 122.882 114.794C122.091 114.051 121.299 114.663 120.685 115.224C120.175 114.788 120.177 113.433 119.233 113.508C118.288 113.583 117.725 114.323 117.928 115.039C118.152 119.231 114.602 119.658 111.894 121.007C111.357 121.159 111.101 121.618 110.616 121.95C110.439 120.646 111.359 119.804 112.33 119.142C113.558 118.02 115.295 117.333 116.471 116.032C118.083 114.221 119.133 111.795 119.775 109.292C119.98 108.653 120.007 108.065 119.318 107.681C118.808 107.245 118.144 107.627 117.658 107.958C116.866 108.57 116.225 109.719 115.331 109.972C110.605 111.7 109.246 115.761 107.657 119.694C107.324 120.562 107.17 121.38 107.909 121.944C108.7 122.687 109.594 122.433 110.565 121.771L111.101 121.618Z" fill="#FDFDFD"/>
<path d="M129.038 112.66C128.939 110.947 129.656 109.39 128.254 107.853C127.974 107.546 128.92 106.117 129.331 104.839C130.627 108.727 131.592 112.129 133.094 115.378C133.399 116.452 132.633 116.476 131.917 116.679C132.074 114.507 130.901 113.099 128.809 112.532L129.038 112.66Z" fill="#FDFDFD"/>
<path d="M99.743 102.015C100.357 101.454 100.893 101.302 101.889 101.407C101.555 102.275 101.452 103.271 101.169 104.319C100.379 103.576 100.125 102.681 99.9218 101.965L99.743 102.015Z" fill="#FDFDFD"/>
<path d="M111.101 121.618C110.309 122.23 109.415 122.484 108.446 121.792C107.706 121.228 108.039 120.359 108.194 119.542C109.732 115.43 111.091 111.369 115.868 109.82C116.762 109.566 117.402 108.418 118.194 107.806C118.68 107.475 119.166 107.143 119.854 107.528C120.543 107.913 120.159 108.603 120.312 109.14C119.67 111.643 118.619 114.069 117.008 115.88C116.01 117.131 114.273 117.817 112.867 118.99C111.947 119.831 110.975 120.494 111.152 121.797L111.101 121.618Z" fill="#070707"/>
<defs>
<filter id="filter0_d_2183_2659" x="5" y="3" width="185" height="185" filterUnits="userSpaceOnUse" color-interpolation-filters="sRGB">
<feFlood flood-opacity="0" result="BackgroundImageFix"/>
<feColorMatrix in="SourceAlpha" type="matrix" values="0 0 0 0 0 0 0 0 0 0 0 0 0 0 0 0 0 0 127 0" result="hardAlpha"/>
<feOffset dx="-5" dy="5"/>
<feComposite in2="hardAlpha" operator="out"/>
<feColorMatrix type="matrix" values="0 0 0 0 0 0 0 0 0 0 0 0 0 0 0 0 0 0 1 0"/>
<feBlend mode="normal" in2="BackgroundImageFix" result="effect1_dropShadow_2183_2659"/>
<feBlend mode="normal" in="SourceGraphic" in2="effect1_dropShadow_2183_2659" result="shape"/>
</filter>
</defs>
</svg>
