<svg width="141" height="168" viewBox="0 0 141 168" fill="none" xmlns="http://www.w3.org/2000/svg">
<g clip-path="url(#clip0_2093_8792)">
<path d="M70.5644 167.098C109.224 167.098 140.564 135.746 140.564 97.0717C140.564 58.3975 109.224 27.0459 70.5644 27.0459C31.9045 27.0459 0.564453 58.3975 0.564453 97.0717C0.564453 135.746 31.9045 167.098 70.5644 167.098Z" fill="url(#paint0_linear_2093_8792)"/>
<mask id="mask0_2093_8792" style="mask-type:alpha" maskUnits="userSpaceOnUse" x="0" y="0" width="141" height="168">
<path d="M70.5644 167.489C109.224 167.489 140.564 136.137 140.564 97.4631C140.564 58.789 109.224 0 70.5644 0C31.9045 0 0.564453 58.789 0.564453 97.4631C0.564453 136.137 31.9045 167.489 70.5644 167.489Z" fill="url(#paint1_linear_2093_8792)"/>
</mask>
<g mask="url(#mask0_2093_8792)">
<path d="M122.64 50.2491C128.792 57.0395 133.776 64.997 137.064 73.5911C140.458 82.1852 142.049 91.5219 141.943 100.859C141.731 110.195 139.716 119.532 135.685 128.126C131.761 136.72 125.928 144.36 118.928 150.619C111.822 156.773 103.549 161.548 94.746 164.519C90.2915 166.004 85.7308 167.065 81.1702 167.595C76.6096 168.232 71.943 168.338 67.2763 168.126C48.8218 167.171 30.7915 159.001 17.9582 145.314C11.5946 138.524 6.39762 130.461 3.10974 121.654C-0.178133 112.848 -1.76899 103.405 -1.34475 93.9622C-0.920504 84.5194 1.30671 75.1826 5.23095 66.5885C9.15519 57.9944 14.9886 50.2491 21.9886 43.8832C28.9886 37.6233 37.2613 32.6366 46.2764 29.5597C55.1855 26.4828 64.7309 25.3157 74.0642 26.0584C83.3976 26.8011 92.5187 29.3475 100.791 33.4854C109.064 37.6233 116.488 43.3527 122.64 50.1431V50.2491ZM122.322 50.4613C119.246 47.0662 115.852 43.9893 112.14 41.3368C108.428 38.6843 104.504 36.3501 100.261 34.5464C91.8823 30.939 82.9733 28.9231 73.9582 28.817C55.9279 28.4987 38.2158 35.0769 25.0643 47.1723C11.9128 59.0554 3.64002 76.2436 2.68547 94.0683C2.15517 102.981 3.42792 111.999 6.29156 120.487C9.26125 128.975 13.7158 136.933 19.6552 143.723C25.5945 150.513 32.9128 156.243 41.0795 160.168C49.2461 164.094 58.2612 166.322 67.2763 166.747C71.8369 166.959 76.3976 166.641 80.8521 165.898C85.3067 165.155 89.6551 163.882 93.8975 162.29C102.276 159.107 110.019 154.121 116.488 147.967C123.064 141.813 128.367 134.598 132.291 126.535C132.822 125.58 133.246 124.519 133.67 123.458C134.094 122.397 134.519 121.336 134.943 120.381C135.367 119.32 135.685 118.259 136.004 117.198C136.322 116.137 136.64 115.076 136.958 114.015C138.125 109.665 138.867 105.209 139.291 100.753C140.034 91.7341 138.867 82.6096 136.11 74.0155C134.731 69.6654 132.822 65.5275 130.488 61.6018C128.155 57.6761 125.397 53.9626 122.428 50.5674L122.322 50.4613Z" fill="black"/>
<path d="M83.9499 44.5661C81.2586 40.2767 77.1045 37.8174 73.4184 34.9006C73.3014 35.015 73.1844 35.1865 73.0674 35.3009C73.0674 35.4725 73.1259 35.7013 73.1844 36.1016C70.4345 34.6146 67.8016 34.443 64.9347 35.4725C66.8655 32.8416 69.4399 33.528 72.1313 34.1571C69.2059 31.0687 66.0464 28.2662 64.2327 24.6059C63.6476 23.4049 63.1795 22.1466 62.9454 20.7168C58.6158 23.9768 53.1161 30.8971 52.4725 33.8711C55.8075 33.242 56.568 33.4708 57.6212 35.4153C42.8186 31.2402 51.2438 60.6373 57.2702 65.4987C59.669 68.0151 62.6529 68.9302 65.8124 68.873C70.376 68.873 75.2908 66.7569 79.0938 64.6408C76.7535 67.9008 74.0035 70.5316 70.7856 72.4762C68.5623 73.7916 66.1634 74.7639 63.472 75.393C61.9508 80.5403 58.9084 85.3445 61.4242 90.6062C61.8338 91.9217 62.2433 93.2371 62.6529 94.4954C65.3443 102.788 68.1527 111.081 71.7217 119.088C73.6525 114.799 74.4716 109.995 76.0513 105.476C77.8066 98.556 81.4341 92.2076 82.6043 85.1729C84.1255 78.5958 80.732 78.8817 80.966 73.62C80.2054 73.1625 79.1523 73.3341 78.8013 72.3618C79.1523 71.6183 80.1469 72.133 80.5565 71.4467C80.3225 68.7015 80.5565 65.9562 81.4341 63.3253C81.6097 63.3253 81.7266 63.3253 81.9022 63.3253V68.7015C84.1255 64.2404 84.0085 59.4362 84.067 54.3461C97.4654 60.8661 97.3483 37.1883 84.0084 44.509L83.9499 44.5661ZM54.4617 44.1086C53.116 42.8504 52.8235 40.677 53.7597 39.5332C56.3925 37.9318 56.334 42.6788 54.4617 44.1086ZM57.8552 49.7135C59.9615 45.8816 59.435 41.5349 60.4881 37.5314C60.6636 37.5314 60.8392 37.5314 60.9562 37.5886C61.0147 38.6753 61.0732 39.762 61.0147 40.7914C60.8977 43.937 60.3711 47.0254 59.0254 49.9994C59.6105 51.2005 61.1902 50.5142 61.7753 51.5437C61.3657 51.7724 60.8391 51.8296 60.3126 51.8296C58.9084 51.8296 57.3872 50.9145 57.7968 49.6563L57.8552 49.7135ZM68.6208 42.8504C67.3921 39.9907 70.7271 36.7308 71.0781 41.0774C71.3707 42.5644 69.7325 44.9093 68.6208 42.8504ZM89.6253 49.5991C89.4498 49.7135 89.3327 49.8851 89.1572 49.9994C89.1572 52.0012 88.6306 52.4015 86.1733 52.1728C86.5828 51.3721 87.8115 51.7152 88.104 50.8001C88.104 49.9995 87.1679 49.6563 86.6999 49.0844C84.184 46.5107 88.9817 45.9388 90.9709 45.8244C90.3274 47.6546 88.2796 46.911 87.1094 48.0549C89.0987 48.5124 91.2635 48.2265 92.0826 50.5714C90.9125 50.9717 90.5029 49.7135 89.6838 49.6563L89.6253 49.5991Z" fill="white"/>
<path d="M65.8124 68.873C62.7114 68.873 59.7275 68.0151 57.2702 65.4987C51.2438 60.6373 42.8186 31.2402 57.6212 35.4153C56.5681 33.528 55.749 33.2992 52.4725 33.8711C53.0576 30.8971 58.5573 23.9768 62.9454 20.7168C63.1795 22.1466 63.6476 23.4049 64.2327 24.6059C63.9401 30.0964 62.5359 35.4725 61.1317 40.8486C60.4881 43.1363 59.903 45.4812 59.318 47.7689C58.9669 49.2559 58.9084 51.3149 60.3711 51.8868C60.3711 51.8868 60.3711 51.8868 60.4296 51.8868C60.8392 52.0012 61.3073 52.0584 61.5998 52.3443C62.0679 52.7447 62.0678 53.4882 62.0678 54.1173C62.0678 55.8331 62.6529 57.892 64.3497 58.2352C63.6476 60.9804 63.3551 63.9545 64.4667 66.6425C64.8178 67.4432 65.2858 68.2439 65.8709 68.9302L65.8124 68.873Z" fill="#F4C6CC"/>
<path d="M70.7275 72.4189C68.9138 80.0256 66.1638 87.4606 62.6533 94.4953C62.2438 93.1799 61.8342 91.8644 61.4247 90.6062C58.9088 85.3445 61.9512 80.4831 63.4725 75.393C66.1638 74.7638 68.5627 73.7916 70.786 72.4761L70.7275 72.4189Z" fill="#F4C6CC"/>
<path d="M108.875 96.8972C108.875 97.1259 108.758 97.2975 108.699 97.5263C106.008 108.45 104.253 119.603 102.732 130.755C101.503 138.019 100.274 145.339 97.9924 152.374C97.2903 154.547 97.8754 156.664 98.402 158.78C99.2211 162.211 101.503 165.814 98.6359 168.96C96.5881 172.048 91.9075 170.504 88.4555 171.591C89.6842 169.589 91.849 168.56 92.7266 166.329C87.5194 168.331 88.8066 172.906 81.4346 171.591C82.6632 169.246 83.3653 166.729 85.5301 164.899C85.9397 166.672 85.4131 168.159 84.9451 169.932C90.2108 163.355 83.8919 158.951 80.3814 171.705C77.456 172.677 75.1741 170.561 72.4243 171.019C72.7168 166.729 72.5412 162.669 72.5412 158.494C75.4667 159.352 78.2751 161.01 81.4346 160.152C78.5091 159.352 75.5837 158.78 72.7753 157.235C74.8816 151.631 67.9776 153.461 72.7753 146.712C76.6953 147.627 80.3228 146.712 83.9504 145.225C82.3706 148.313 79.1527 148.943 76.4613 150.658C78.5091 151.688 81.3175 151.173 83.9504 149.4C82.7802 149.057 81.9611 150.144 80.7324 149.858C82.7802 147.97 85.5886 146.769 86.1737 143.338C81.8441 144.424 78.041 146.712 73.4774 145.511C75.1156 140.078 67.1585 136.646 69.2648 131.213C71.3126 125.322 73.0093 119.317 75.0571 113.426C76.9879 108.45 77.2804 100.1 84.4185 100.043C88.397 101.358 89.0991 107.077 92.4926 109.194C93.3702 109.022 93.3702 108.164 93.5457 107.592C94.4819 104.618 95.535 101.701 96.7052 98.7845C97.3488 97.1831 98.1679 95.6389 97.7583 93.9803C97.6413 93.5228 97.4658 93.0081 97.1147 92.5505C96.8807 92.2074 96.5882 91.8642 96.1786 91.4639C96.3541 91.4639 96.5297 91.5783 96.7637 91.6354C100.684 92.6077 110.981 92.8365 108.816 96.8972H108.875Z" fill="white"/>
<path d="M128.3 163.183C126.895 163.298 125.55 163.469 124.204 163.755C119.465 164.613 110.162 167.53 107.88 169.875C107.003 168.445 107.061 165.242 106.593 163.87C106.593 162.497 108.524 161.296 106.886 159.98C102.38 156.091 106.886 151.001 106.417 146.311C105.481 147.684 105.247 149.057 104.662 150.315C104.077 150.086 104.136 149.571 104.019 149.171C103.726 146.369 102.38 143.566 102.497 140.821C105.013 126.523 107.412 112.167 109.401 97.8692C109.46 97.3544 109.518 96.8397 109.635 96.325C116.832 93.6369 118.236 122.634 119.348 127.609C120.167 134.129 121.103 140.649 121.688 147.169C122.098 149.4 121.396 152.374 123.97 153.518C127.832 155.291 124.614 157.407 126.31 159.351C127.539 160.266 127.539 161.696 128.3 163.126V163.183Z" fill="white"/>
<path d="M108.875 96.897C108.875 97.1258 108.758 97.2974 108.699 97.5262C107.88 97.2402 105.95 96.5539 103.375 95.0097C100.274 93.1795 98.1678 93.8086 97.7583 93.9802H97.6998L97.1147 92.4932L96.7637 91.5781C100.684 92.5504 110.981 92.7792 108.816 96.8399L108.875 96.897Z" fill="#D1CDCB"/>
<path d="M124.204 163.756V158.894C124.204 158.894 123.385 157.007 122.215 156.263C121.045 155.52 117.3 152.603 118.002 149.057C118.763 145.511 114.433 108.393 113.497 104.275C112.736 100.901 110.22 98.6131 109.401 97.9268C109.46 97.412 109.518 96.8973 109.635 96.3826C116.832 93.6945 118.236 122.691 119.348 127.667C120.167 134.187 121.103 140.707 121.688 147.227C122.098 149.457 121.396 152.431 123.97 153.575C127.832 155.348 124.614 157.464 126.31 159.409C127.539 160.324 127.539 161.754 128.3 163.184C126.895 163.298 125.55 163.47 124.204 163.756Z" fill="#D1CDCB"/>
<path d="M71.722 145.168C68.036 144.367 64.35 143.337 60.7225 142.194C63.7649 144.539 67.5094 145.225 71.0784 146.426C71.0784 147.284 70.6104 147.913 70.2008 148.485C67.1584 152.546 73.3603 153.575 71.1955 156.492C67.6265 154.261 64.2329 151.859 61.1905 148.714C61.7756 152.26 67.7434 155.291 70.5518 157.407C70.7859 157.578 70.7859 157.578 70.7274 158.837C69.1477 158.665 67.5094 158.379 65.4616 158.436C67.2754 159.866 68.7966 159.351 70.7859 159.866C71.2539 163.526 70.9614 167.13 71.0199 170.79C68.8551 171.019 66.5733 170.104 64.7596 171.533C61.7171 172.163 58.2651 171.19 55.1642 170.733C55.6323 168.273 56.2758 165.871 55.8663 163.355C54.7546 165.643 54.6961 168.102 54.7546 170.561C50.1324 171.762 47.6751 165.299 47.2071 162.211C49.0793 162.897 49.6059 164.728 50.7761 166.1C50.1325 157.864 40.6541 158.722 49.6644 169.932C44.5742 171.019 43.3455 164.899 41.3562 161.582C39.2499 154.547 44.7497 146.769 41.6488 139.792C34.5108 125.322 37.6117 125.379 38.7819 111.024C38.3723 111.024 38.2553 111.252 38.1968 111.538C37.0851 118.459 33.1651 126.008 36.6756 132.757C38.2553 136.303 33.282 140.878 32.5214 144.825C27.7822 139.963 22.1069 140.421 16.1391 140.993C15.6125 140.993 15.086 141.107 14.5594 141.164C16.3146 138.533 12.9211 136.646 13.5062 133.272C17.3093 132.871 20.9368 132.585 24.8568 133.272C23.9207 135.788 21.1123 134.93 19.0645 135.216C18.6549 136.131 19.2986 136.303 19.7666 136.474C19.7666 136.474 19.8836 136.474 19.8836 136.532C23.3941 138.419 25.6175 138.934 27.6068 138.19C25.7345 137.618 24.3888 137.504 22.6921 136.474C23.8037 136.074 24.9154 135.788 25.676 135.045C25.91 134.816 26.144 134.473 26.3196 134.129C27.7238 129.726 17.8359 131.613 15.32 131.842C14.2084 132.356 13.7988 131.727 14.3838 130.698C19.2985 118.859 22.2825 105.476 30.0056 95.1813C30.5322 96.3251 31.0587 97.469 31.5853 98.5556C32.9895 101.587 34.3937 104.561 36.5585 107.192C35.9149 103.474 34.1012 100.214 32.58 96.7827C32.1704 95.8676 31.8194 95.0097 31.4683 94.0374C36.149 92.2072 40.8882 91.0062 46.0369 90.2627C46.1539 91.1206 46.2709 91.9213 46.4464 92.7792C47.4996 97.5834 49.8399 102.102 49.7814 107.192C49.8399 108.45 50.4835 108.736 51.5366 107.878C54.462 106.448 57.3875 100.786 60.8395 103.074C62.3022 104.275 64.5255 105.076 65.2861 106.906C67.0413 111.481 68.8551 115.999 70.6689 120.575C71.3125 124.521 68.153 128.353 67.5094 132.299C66.6903 136.017 70.4934 138.991 71.7806 142.308C72.4827 143.566 72.4241 143.623 71.6635 145.225L71.722 145.168Z" fill="white"/>
<path d="M56.0998 163.355C56.6849 165.185 56.9774 167.073 56.9774 168.96C56.9774 169.074 56.9774 169.189 57.0359 169.303C57.0944 169.418 57.27 169.475 57.4455 169.532C59.9028 170.275 62.5942 170.447 64.7005 171.934C64.4079 171.763 63.1793 171.934 62.8282 171.934C62.1261 171.934 61.4825 171.934 60.7804 171.934C59.4347 171.934 58.1476 171.82 56.8604 171.591C55.5732 171.362 55.3392 171.248 55.1637 170.333C54.9881 169.418 55.3391 168.274 55.5732 167.301C55.9242 165.986 56.3338 164.613 56.1583 163.184L56.0998 163.355Z" fill="white"/>
<path d="M70.9609 144.996C71.546 145.225 72.131 145.454 72.7161 145.625C75.115 146.369 77.7478 145.968 80.2051 145.568C82.2529 145.225 84.4763 144.825 85.9975 143.452C81.5508 143.795 77.0458 143.452 72.6576 142.594C72.3066 140.993 70.6683 139.963 69.6736 138.648C68.0939 136.474 68.211 133.558 68.679 130.927C68.328 133.043 68.0354 135.102 68.1524 137.218C68.2695 139.334 68.8545 141.45 70.2587 143.109C70.0832 142.88 67.3333 143.338 66.9238 143.338C65.8121 143.338 64.7004 143.338 63.5303 143.338C65.8706 144.253 68.562 144.138 70.9609 144.939V144.996Z" fill="#D1CDCB"/>
<path d="M61.4824 149C61.892 149.801 62.3016 150.601 62.7112 151.402C63.4718 152.775 64.2909 154.147 65.344 155.291C66.4557 156.435 67.8599 157.293 69.4396 157.465C68.3865 157.865 67.3333 158.322 66.2801 158.723C67.1578 159.009 68.0354 159.237 68.9715 159.409C69.8491 162.841 70.3757 166.387 70.6098 169.933C70.6098 170.562 70.7853 171.42 71.4288 171.591C71.1948 166.959 72.5405 162.097 71.4288 157.522C70.3757 156.835 68.4449 155.52 67.5673 154.662" fill="#D1CDCB"/>
<path d="M38.7235 111.881C38.7235 111.881 34.6279 125.493 35.9736 129.611C37.3193 133.672 42.468 139.906 42.468 142.823C42.468 145.739 39.7766 155.176 40.1277 158.093C40.4787 161.01 41.4733 166.443 42.468 167.416C43.4626 168.388 46.5051 170.447 46.5051 170.447L50.3081 171.019C50.3081 171.019 43.1701 167.93 42.9946 162.383C42.819 156.835 47.3827 145.11 45.803 140.992C44.2233 136.875 37.9629 130.526 37.6118 127.037C37.3193 123.549 38.6649 111.824 38.6649 111.824L38.7235 111.881Z" fill="#D1CDCB"/>
<path d="M34.0426 149.458L33.9256 149.572C32.8724 150.487 32.6384 151.745 32.4043 153.061C32.3458 153.518 32.2288 153.976 32.1118 154.434L31.9948 155.005L31.6437 154.548C29.7129 152.203 27.3726 150.888 24.7398 150.716C21.6973 150.487 18.3038 151.745 14.9688 154.205C14.5008 154.548 13.9742 154.948 13.5061 155.406L13.2722 155.635L13.0966 155.349C12.102 153.804 12.6285 152.546 13.0966 151.46C13.4477 150.544 13.7987 149.744 13.3891 148.829C12.8041 147.856 12.6286 146.713 12.453 145.626V145.226C12.3945 145.226 12.3945 145.226 12.3945 145.226C12.453 143.967 13.6232 143.052 15.7295 142.48C15.7295 142.48 15.7295 142.48 15.788 142.48C15.8465 142.48 15.905 142.48 16.022 142.48C17.8358 142.08 20.1176 141.908 22.3409 142.08C24.6813 142.251 27.0216 142.652 28.7183 143.395C29.7714 143.853 30.5906 144.425 31.0001 145.054L31.2927 145.569L30.7076 145.454C30.3565 145.454 30.0055 145.34 29.6545 145.283C28.2503 145.054 26.8461 144.882 25.3249 144.94C26.2025 145.168 27.1386 145.34 28.0162 145.454C30.6491 145.855 33.1065 146.198 34.1011 149.343V149.515L34.0426 149.458Z" fill="#D1CDCB"/>
<path d="M29.3034 143.338C29.0693 143.338 28.8353 143.281 28.5428 143.224C27.9577 143.166 27.3141 143.109 26.729 142.995C25.9099 142.881 25.0908 142.823 24.2132 142.823C21.8728 142.823 19.591 143.624 17.3677 144.368C16.5486 144.653 15.6709 144.939 14.9103 145.34C14.5008 145.569 14.0327 145.855 13.9157 146.312C13.7402 146.884 14.2082 147.513 14.6178 147.913C15.0858 148.371 15.554 148.829 15.6125 149.458C15.6125 150.201 14.9688 150.83 14.6178 151.459C14.5008 151.631 14.4423 151.803 14.5008 151.974C14.5008 152.089 14.6178 152.203 14.6763 152.26C15.0273 152.832 15.0273 153.461 14.9103 154.09C14.4423 154.433 13.9157 154.834 13.4476 155.291L13.2136 155.52L13.0381 155.234C12.0434 153.69 12.57 152.432 13.0381 151.345C13.3891 150.43 13.7402 149.629 13.3306 148.714C12.7455 147.742 12.57 146.598 12.3945 145.511V145.111C12.336 145.111 12.3359 145.111 12.3359 145.111C12.3944 143.853 13.5647 142.938 15.671 142.366C15.671 142.366 15.6709 142.366 15.7294 142.366C15.905 142.366 16.0805 142.366 16.256 142.309C17.6602 142.08 19.0644 142.08 20.4686 142.023C21.0537 142.023 21.6388 141.965 22.2239 141.908C23.043 141.908 23.8621 141.851 24.6227 141.908C26.0269 141.965 27.4311 142.309 28.6013 143.052L29.3034 143.338Z" fill="white"/>
<path d="M24.9154 133.1C23.9792 135.616 21.1709 134.758 19.1231 135.044C18.7135 135.959 19.3571 136.131 19.8252 136.303L17.0167 136.703C17.0167 136.703 16.4902 139.734 16.1977 140.821C15.6711 140.821 15.1445 140.935 14.6179 140.992C16.3732 138.362 12.9797 136.474 13.5648 133.1C17.3679 132.7 20.9953 132.414 24.9154 133.1Z" fill="white"/>
<path d="M19.0641 126.923C18.0109 128.811 22.2236 127.667 25.032 128.868C27.8989 130.126 30.0637 131.956 28.3084 133.443C27.6648 134.015 26.7287 134.473 25.7925 134.873C26.0266 134.644 26.2607 134.301 26.4362 133.958C27.8404 129.554 17.9525 131.442 15.4366 131.67C14.3249 132.185 13.9154 131.556 14.5005 130.526C19.4152 118.688 22.3991 105.304 30.1222 95.0098C30.6487 96.1536 31.1754 97.2975 31.7019 98.3841C29.0106 104.561 19.9417 125.265 19.0641 126.866V126.923Z" fill="#D1CDCB"/>
<path d="M46.5044 92.6649C43.2279 93.4656 34.1007 96.2109 32.5794 96.6684C32.1699 95.7533 31.8188 94.8954 31.4678 93.9231C36.1484 92.093 40.8876 90.8919 46.0364 90.1484C46.1534 91.0063 46.2704 91.807 46.4459 92.6649H46.5044Z" fill="#D1CDCB"/>
<path d="M88.7481 72.819C88.6896 72.819 88.631 72.819 88.631 72.7046C88.631 72.6474 88.631 72.5902 88.631 72.533C92.3171 69.9593 92.6681 66.5278 93.0192 62.8674V62.6387C92.4926 62.9246 92.3171 63.9541 92.083 65.2123C91.5565 68.1292 90.7373 72.4758 84.477 72.6474C84.4184 72.6474 84.36 72.6474 84.36 72.533C84.36 72.533 84.36 72.4186 84.36 72.3614C86.2907 70.7028 87.9289 69.1014 88.0459 66.6993C86.7003 68.8727 85.3545 70.8744 82.8387 71.9611C82.8387 71.9611 82.7217 71.9611 82.7217 71.9039C82.7217 71.8467 82.7217 71.7323 82.7217 71.7323C85.2961 66.1274 85.3546 60.8657 85.1205 56.4618V56.3475C85.1205 56.3475 85.1206 56.3475 85.2376 56.3475C86.1737 56.6334 87.0513 56.805 87.929 56.805C92.3756 56.805 95.184 52.9159 95.2425 49.1984C95.301 45.9956 93.3117 42.2209 87.3439 41.9349C87.2854 41.9349 87.2268 41.8777 87.2268 41.8205V41.4774C86.9928 39.304 86.7588 37.1307 85.7056 35.0718C85.4716 35.5865 85.7641 36.7876 86.0566 37.9314C86.4662 39.6472 86.8758 41.4774 86.1737 42.3353C85.9397 42.6784 85.5301 42.7928 85.0035 42.7928H84.8865C84.828 42.7928 84.7695 42.7928 84.7695 42.6784C84.0089 39.1325 82.7802 34.6714 79.7963 31.4115C80.2058 32.4409 80.6739 33.4132 81.142 34.3855C82.0781 36.3872 83.0727 38.4462 83.4238 40.6767V40.7911L83.0727 41.077C83.0727 41.077 83.0143 41.077 82.9557 41.077C82.8972 41.077 82.8972 41.077 82.8387 41.077C81.1419 39.3612 78.9187 37.5883 76.5783 35.7581C68.7967 29.6385 60.0205 22.7182 66.3394 13.2814C67.8606 12.3091 69.6159 11.8516 71.7807 11.8516C73.9455 11.8516 76.8709 12.4807 79.0942 13.0526C90.1523 16.3126 94.7744 28.609 97.2903 37.5883C99.6891 46.9679 103.083 63.6109 98.5774 69.6162C97.5243 70.9888 96.1201 71.7323 94.3649 71.8467C94.3649 71.8467 94.2478 71.8467 94.2478 71.7895C94.2478 71.7895 94.2478 71.6751 94.2478 71.6179C94.4233 71.3319 94.5989 70.9888 94.7744 70.7028C95.8276 68.9299 96.8807 67.0997 96.7637 64.8692C96.2371 65.1551 95.9446 65.9558 95.652 66.9853C94.8914 69.3302 93.8383 72.5902 88.6895 72.819H88.7481Z" fill="#564C47"/>
<path d="M71.9562 11.909C74.4135 11.909 76.9879 12.5381 79.2112 13.1101C89.9768 16.3128 94.5989 27.8658 97.2903 37.5313C99.1041 44.5088 105.54 70.989 94.4819 71.6182C95.6521 69.502 97.2318 67.3287 96.9978 64.6407C94.8915 65.2126 96.4127 72.3617 88.7481 72.6476C92.6682 69.9024 92.9022 66.1849 93.2532 62.4673C90.9129 62.8677 93.7213 72.2473 84.5355 72.5332C86.6418 70.7603 88.397 68.9873 88.28 66.2421C86.8758 68.5298 85.4716 70.7603 82.8387 71.8469C85.1791 66.7568 85.5887 61.8954 85.2376 56.4621C86.2323 56.8053 87.1099 56.9196 87.9875 56.9196C96.6467 56.9196 99.3966 42.2783 87.4609 41.7064C87.2269 39.3615 86.9929 36.9594 85.8227 34.7289C84.6525 35.7584 88.4555 42.5643 85.1206 42.5643C81.7856 42.5643 85.0621 42.5643 85.0036 42.5643C84.1259 38.332 82.7217 33.871 79.5038 30.6682C80.6739 33.9854 82.7802 37.0166 83.3653 40.5625C83.2483 40.6769 83.1313 40.7913 83.0143 40.8485C75.8177 33.4706 58.3823 25.4065 66.515 13.2244C68.0947 12.195 69.9669 11.7946 71.8977 11.7946M71.9562 11.623C69.7329 11.623 67.9191 12.0806 66.4564 13.0529C66.4564 13.0529 66.3979 13.0529 66.3979 13.1101C60.0205 22.6612 68.8552 29.6387 76.6369 35.7584C78.9772 37.5885 81.2005 39.3615 82.8973 41.0773C82.8973 41.1345 83.0142 41.1917 83.1313 41.1917C83.2483 41.1917 83.2483 41.1917 83.3068 41.1345L83.6579 40.8485C83.7164 40.7913 83.7749 40.6769 83.7749 40.6197C83.4239 38.332 82.4292 36.2731 81.4931 34.2713C81.142 33.585 80.8494 32.8415 80.4984 32.1552C83.0142 35.358 84.1259 39.3615 84.828 42.6787C84.828 42.7931 84.945 42.9074 85.1206 42.9074C85.1206 42.9074 85.1791 42.9074 85.2376 42.9074C85.8227 42.9074 86.2322 42.7359 86.5248 42.3927C87.2854 41.4776 86.8173 39.6475 86.4078 37.8745C86.2323 37.0738 85.9982 36.1587 85.9982 35.5868C86.8173 37.4741 87.0513 39.5331 87.2268 41.5348V41.878C87.2268 41.9924 87.4024 42.1067 87.5194 42.1067C93.3702 42.3927 95.3595 45.9958 95.2425 49.2558C95.1255 52.9162 92.4341 56.7481 88.046 56.7481C83.6579 56.7481 86.2907 56.5765 85.3546 56.2905C85.3546 56.2905 85.2961 56.2905 85.2376 56.2905C85.1791 56.2905 85.1206 56.2905 85.0621 56.3477C85.0036 56.4049 84.9451 56.5193 84.9451 56.5765C85.2376 60.9803 85.1206 66.1849 82.6047 71.7325C82.4877 71.7897 82.4292 71.9613 82.5462 72.0757C82.5462 72.1901 82.7217 72.2473 82.7802 72.2473C82.8387 72.2473 82.8388 72.2473 82.8973 72.2473C85.2376 71.275 86.6418 69.3876 87.8705 67.4431C87.578 69.4448 86.0567 70.8747 84.3014 72.3617C84.1844 72.4189 84.1844 72.5904 84.2429 72.7048C84.2429 72.8192 84.4185 72.8764 84.5355 72.8764C90.9129 72.7048 91.732 68.2438 92.2586 65.327C92.4341 64.4119 92.6097 63.554 92.9022 63.0965C92.5511 66.6424 92.2001 69.9596 88.5726 72.4761C88.4555 72.5332 88.3971 72.7048 88.4556 72.8192C88.4556 72.9336 88.6311 72.9908 88.7481 72.9908C94.0139 72.762 95.1255 69.3305 95.8861 67.0427C96.1786 66.1849 96.3542 65.4985 96.7052 65.1554C96.7052 67.2143 95.7106 68.9301 94.7744 70.5887C94.5989 70.8747 94.4234 71.2178 94.2478 71.5038C94.2478 71.6182 94.2478 71.7325 94.2478 71.7897C94.2478 71.8469 94.4234 71.9041 94.4819 71.9041C96.2957 71.7897 97.7584 71.0462 98.8115 69.6164C103.375 63.554 99.9817 46.8537 97.5244 37.4741C95.0085 28.4949 90.3863 16.1413 79.2697 12.8241C77.0464 12.2522 74.4135 11.623 71.9562 11.623Z" fill="#564C47"/>
<path d="M54.5202 73.4485C49.547 73.1053 48.3768 69.731 47.6162 66.1278C46.329 67.9008 46.5631 69.7882 46.9141 71.9043V72.0187C46.8556 72.0759 46.7386 72.1331 46.6801 72.2475C46.6801 72.2475 46.6215 72.2475 46.563 72.2475C46.5045 72.2475 46.5045 72.2475 46.446 72.2475C40.1857 66.757 41.7069 57.0914 43.1111 48.6269C43.5792 45.5957 44.0472 42.736 44.1642 40.2196C44.7493 21.4604 50.7757 11.9092 62.1263 11.9092C73.4769 11.9092 64.5251 12.0236 65.8123 12.1951C65.8708 12.1951 65.9293 12.2523 65.9293 12.3667C65.8708 12.8815 65.5782 13.2818 65.2857 13.625C65.1102 13.8537 64.9932 14.0253 64.8762 14.2541C64.8762 14.2541 64.8177 14.3113 64.7592 14.3113C64.5251 14.3113 64.3496 14.3113 64.1155 14.3113C57.9136 14.3113 54.3446 18.2004 51.7703 22.1467C52.0628 22.0323 52.2384 21.8035 52.4724 21.5175C52.5309 21.4032 52.6479 21.346 52.7064 21.2316C55.3393 18.3719 58.9083 15.112 63.1209 15.112C67.3335 15.112 63.7645 15.112 64.057 15.112C64.057 15.112 64.1741 15.112 64.1741 15.1692V15.2835C63.9401 15.8555 63.823 16.4846 63.706 17.0565C63.472 18.1432 63.2965 19.3442 62.1848 19.9162C58.4403 22.7186 55.2223 26.3217 52.4139 30.84C48.1428 36.2733 47.5577 47.5402 51.1267 57.0914C53.7011 64.0689 57.7967 68.4727 62.7114 69.5594C62.7699 69.5594 62.8284 69.6166 62.8284 69.6738C62.9454 70.7604 62.9454 71.2752 62.7114 71.6183C62.4188 71.9615 61.8922 72.0187 61.1316 72.0759C60.8391 72.0759 60.5465 72.1331 60.3125 72.1331C58.3817 72.1331 57.0946 71.1608 55.6904 70.1313C55.1638 69.731 54.5787 69.3306 53.9936 68.9303C53.7011 70.3601 54.1107 71.6183 54.8128 73.0481V73.1625C54.8128 73.1625 54.7542 73.2197 54.6957 73.2197L54.5202 73.4485Z" fill="#564C47"/>
<path d="M62.009 12.1375C63.1792 12.1375 64.4079 12.2519 65.6951 12.4235C65.5781 13.167 64.9929 13.6817 64.7004 14.3108C64.4664 14.3108 64.2908 14.3108 64.0568 14.3108C58.0305 14.3108 54.403 17.914 51.419 22.4894C52.1211 22.4894 52.4137 21.9175 52.7647 21.5171C55.3976 18.6575 58.9081 15.3975 63.0622 15.3975C67.2163 15.3975 63.6473 15.3975 63.9398 15.3975C63.1792 16.9417 63.5887 19.115 62.009 19.9729C57.9719 23.0041 54.8125 26.7217 52.1797 30.9539C44.5151 40.6195 49.3712 67.0425 62.5356 69.9021C62.7696 71.8467 62.6527 72.0183 60.9559 72.1326C60.6634 72.1326 60.3708 72.1898 60.1368 72.1898C57.4454 72.1898 55.9242 70.1881 53.7009 68.8727C53.3498 70.4169 53.7009 71.7895 54.52 73.3337C49.6053 72.9905 48.4351 69.6734 47.6745 65.8415C46.1533 67.786 46.3873 69.9021 46.7384 72.0183C46.6213 72.0754 46.5628 72.1898 46.5043 72.247C38.1376 64.8692 43.8714 49.9419 44.2225 40.3335C44.632 27.9799 47.4404 12.1947 62.009 12.1947M62.009 11.8516C55.3976 11.8516 50.4829 15.1115 47.499 21.4599C45.3342 26.0925 44.164 32.2693 43.9299 40.2763C43.8129 42.7928 43.4034 45.6524 42.8768 48.6837C41.5311 57.2054 39.9514 66.9281 46.2703 72.4758C46.2703 72.4758 46.3873 72.533 46.4458 72.533C46.5043 72.533 46.6214 72.533 46.6799 72.4186C46.7384 72.3614 46.7969 72.3042 46.9139 72.247C46.9724 72.1898 47.0309 72.0755 47.0309 71.9611C46.6799 70.0165 46.5044 68.2435 47.499 66.585C48.2596 70.0737 49.5467 73.3337 54.4614 73.6769C54.5784 73.6769 54.637 73.6769 54.6955 73.5625C54.6955 73.5053 54.754 73.3909 54.6955 73.2765C54.0519 71.9611 53.6423 70.76 53.8179 69.4446C54.3444 69.7877 54.871 70.1309 55.3391 70.5313C56.7433 71.5607 58.089 72.5902 60.0783 72.5902C62.0676 72.5902 60.6634 72.5902 60.9559 72.533C61.775 72.533 62.3016 72.4186 62.5941 72.0183C62.9452 71.6179 62.8867 70.9888 62.7697 69.9593C62.7697 69.8449 62.6526 69.7306 62.5356 69.7306C57.6794 68.6439 53.6424 64.2972 51.068 57.3197C47.5575 47.7686 48.084 36.5588 52.3551 31.1827C55.1635 26.6645 58.323 23.1185 62.0675 20.3161C63.1792 19.687 63.4132 18.4859 63.6473 17.3421C63.7643 16.7701 63.8813 16.141 64.1153 15.5691C64.1153 15.5119 64.1153 15.3975 64.1153 15.2831C64.1153 15.2259 63.9983 15.1687 63.8813 15.1115C63.5888 15.1115 63.2377 15.1115 62.9451 15.1115C58.7325 15.1115 55.2221 18.2571 52.5892 21.1168C55.1051 17.6852 58.44 14.5968 63.9398 14.5968C64.1739 14.5968 64.3494 14.5968 64.5834 14.5968C64.7004 14.5968 64.8174 14.5396 64.8759 14.4252C64.993 14.1965 65.1099 14.0249 65.2855 13.7961C65.578 13.453 65.8706 12.9954 65.9291 12.4807C65.9291 12.3091 65.8706 12.1947 65.6951 12.1375C64.4079 11.9088 63.1792 11.8516 61.9505 11.8516H62.009Z" fill="#564C47"/>
<path d="M35.1539 177.31C33.4572 180.341 29.2446 181.256 28.4255 184.688C28.4255 185.546 27.3138 186.232 26.9628 185.546C24.6809 179.483 10.639 159.866 15.6707 155.119C34.6274 142.537 25.9097 168.159 35.2125 177.31H35.1539Z" fill="white"/>
<path d="M92.1997 107.307C88.4551 102.274 86.1148 95.3535 79.1523 100.672C80.7321 94.0953 84.7691 87.7469 84.1256 80.5978C84.1256 78.3673 81.4926 76.3083 81.9607 73.9062C89.6253 77.2806 91.9071 87.5753 96.2952 93.9237C97.0558 97.6412 93.0188 102.903 92.2582 107.25L92.1997 107.307Z" fill="#D1CDCB"/>
<path d="M61.5993 77.623C60.3121 81.3978 58.6739 84.143 59.9026 88.0321C61.0727 93.351 62.8865 98.1552 63.9396 103.474C58.0303 98.2124 55.924 103.131 51.2433 106.448C51.4773 101.701 46.2701 91.864 48.1424 89.6907C52.472 84.6006 54.1688 78.8241 61.5993 77.6802V77.623Z" fill="#D1CDCB"/>
<path d="M129.47 166.043C128.475 167.015 127.071 167.473 126.193 168.788C127.773 168.788 128.592 167.473 129.938 167.13C130.874 168.903 131.166 170.904 131.517 172.906C128.826 174.908 125.725 175.88 122.683 176.91C117.885 176.452 114.608 180.627 110.045 181.6C107.704 179.369 108.875 176.052 107.821 173.307C107.353 171.133 107.704 170.676 109.752 169.703C112.327 168.445 129.119 162.04 129.411 166.043H129.47Z" fill="#D1CDCB"/>
<path d="M84.0084 73.7346C83.8914 74.1921 82.8968 73.6202 83.3064 73.2771C83.4819 72.9911 84.3595 73.4486 84.0084 73.7346Z" fill="white"/>
<path d="M46.7391 71.9609C47.0903 72.3041 46.5634 72.7616 46.5049 72.1897C46.5634 72.1325 46.6805 72.0181 46.7391 71.9609Z" fill="white"/>
<path d="M94.3064 72.1333C94.1893 72.1333 94.1307 72.0189 94.0137 72.0189C94.1307 71.7902 94.2478 71.9617 94.4234 72.0189C94.4234 72.0189 94.3649 72.1333 94.3064 72.1333Z" fill="white"/>
<path d="M72.9506 34.5576C73.1261 34.672 73.2431 34.7864 73.4186 34.9008C73.3016 35.0152 73.1846 35.1295 73.0676 35.3011C72.8921 35.1867 72.7165 35.0724 72.541 34.958C72.658 34.8436 72.8336 34.7292 72.9506 34.6148V34.5576Z" fill="white"/>
<path d="M72.482 34.9005C71.721 34.5001 72.482 33.8138 72.8917 34.5573C72.7747 34.6717 72.5991 34.7861 72.482 34.9005Z" fill="white"/>
<path d="M83.4235 40.6201C83.7747 41.0205 83.2479 41.5352 83.0723 40.9061C83.1893 40.7917 83.3064 40.6773 83.4235 40.6201Z" fill="white"/>
<path d="M60.9564 37.6461C61.249 41.9355 60.7809 46.1106 59.0841 50.1141C59.6692 51.3151 61.249 50.6288 61.8341 51.6583C60.3128 52.459 57.3289 51.5439 57.8555 49.7709C59.9618 45.939 59.4352 41.5924 60.4883 37.5889C60.6639 37.5889 60.8394 37.5889 60.9564 37.6461Z" fill="#141414"/>
<path d="M89.1575 49.9993C89.1575 52.001 88.6309 52.4014 86.1736 52.1726C86.5831 51.3719 87.8117 51.7723 88.1043 50.8C88.1043 49.9993 87.1682 49.6561 86.6416 49.0842C84.1257 46.5105 88.9234 45.9386 90.9127 45.8242C90.2691 47.6544 88.2213 46.9109 87.0512 48.0547C89.0405 48.5123 91.2053 48.2263 92.0244 50.5712C90.8542 50.9716 90.4447 49.7133 89.6256 49.6561C89.216 49.313 88.8064 49.5417 89.1575 50.0565V49.9993Z" fill="#141414"/>
<path d="M71.0784 41.0777C71.371 42.5647 69.7328 44.9096 68.6211 42.8507C67.3924 39.9339 70.7274 36.7311 71.0784 41.0777Z" fill="#141414"/>
<path d="M54.4618 44.1083C53.1161 42.8501 52.8236 40.6767 53.8182 39.5329C56.4511 37.9315 56.3926 42.6785 54.4618 44.1083Z" fill="#141414"/>
<path d="M89.1575 49.9991C88.8062 49.4843 89.216 49.2556 89.6258 49.5987C89.4502 49.7131 89.3331 49.8847 89.1575 49.9991Z" fill="white"/>
<path d="M68.5038 56.8053C68.0358 56.0046 67.5677 55.4327 66.7486 54.918C66.5731 55.4327 66.6316 55.8902 66.8072 56.3478C63.6477 57.4916 60.3712 56.9769 57.0947 57.2629C60.1372 58.5211 64.2913 58.9215 66.9242 56.5194C67.2752 57.2057 67.9773 57.7204 68.7964 57.6632C68.6794 57.3201 68.5624 57.0341 68.4454 56.7481L68.5038 56.8053Z" fill="black"/>
<path d="M150.708 228.955C147.958 211.054 136.256 217.116 132.336 206.135C130.464 196.241 130.991 186.061 129.118 176.224C130.874 175.137 133.799 174.451 133.097 171.82C132.395 166.558 129.06 161.925 127.773 157.064C129.06 153.003 123.326 152.717 123.677 148.943C122.682 135.617 119.874 122.52 118.236 109.251C117.066 103.989 117.651 94.8384 110.103 95.1244C110.513 91.2925 98.6355 90.3774 95.7101 89.6911C92.3166 83.9718 90.0933 77.2803 84.3595 73.9059C89.6253 71.9041 97.0558 76.1936 100.391 69.5021C105.481 56.0618 98.694 29.124 89.4497 18.143C83.3063 10.8796 75.2322 10.1932 66.2219 11.2227C47.7918 8.53466 43.5207 25.2349 42.9941 40.7341C42.3505 48.6839 36.2071 73.3912 48.5524 74.0775C48.8449 73.2768 47.6748 72.762 48.2013 72.0185C48.9034 71.7326 49.079 72.3045 49.3715 72.5905C51.1853 74.3634 53.5256 74.7066 55.9244 74.6494C58.4988 74.249 54.5787 72.3617 54.6957 71.1035C56.8606 72.9908 59.4349 73.6199 62.3018 73.4483C62.3018 74.6494 62.0093 75.6789 61.7752 76.7083C51.3023 77.1087 52.0629 86.1451 45.8025 89.0048C41.1218 89.3479 36.6752 90.4918 32.2871 92.036C23.3353 96.7258 20.8194 111.539 16.7238 120.118C15.3196 125.894 10.0539 132.128 12.9794 138.076C14.0325 139.792 13.857 141.05 12.1017 142.194C9.00079 144.367 12.2773 147.742 12.1017 150.373C9.29333 158.837 22.1652 178.111 26.1437 186.575C28.1915 191.437 23.2183 196.927 31.468 199.501C31.7605 199.272 31.819 198.929 31.8775 198.586C28.6595 197.156 27.4309 195.555 27.7819 193.038C29.0106 195.097 30.1223 196.927 32.4041 197.385C26.5533 226.324 34.6274 255.779 35.739 284.832C35.0954 311.256 35.7391 337.621 39.4251 363.816C39.6006 365.531 39.5421 365.76 41.8239 366.103C44.9834 366.389 48.1428 366.79 51.2437 367.076C45.6855 386.693 30.2978 390.868 14.208 399.618C9.76138 406.081 50.8342 397.96 54.0522 397.559C54.4617 398.646 54.3447 400.362 55.8074 400.476C59.8445 400.705 63.8816 400.819 67.8601 400.362C70.3175 400.305 69.8494 398.246 69.3228 396.473C66.5729 387.093 65.9878 377.427 65.5783 367.705C72.1312 367.419 70.844 362.214 71.0781 357.238C71.2536 315.373 70.142 273.451 73.0089 231.643C77.3385 276.368 89.4497 319.892 90.7954 364.902C89.8593 371.823 97.1728 370.45 102.38 371.251C103.258 377.027 102.965 382.632 102.79 388.408C101.678 394.356 110.747 425.755 119.465 417.462C126.895 402.192 118.528 386.178 114.842 371.136C118.236 370.564 124.028 369.821 124.964 366.275C125.315 351.462 123.326 336.763 122.331 322.008C118.353 298.101 116.481 274.08 113.965 249.945C111.741 223.465 104.018 197.614 98.2844 172.392C97.9334 171.019 99.6887 170.333 100.274 169.303C105.481 161.983 95.8856 158.322 101.678 145.282C102.614 146.541 104.077 153.461 103.609 155.005C102.673 157.636 105.188 159.237 106.242 161.296C104.311 163.641 105.657 167.073 106.944 169.589C104.779 172.106 107.236 175.309 106.944 178.225C107.061 180.856 108.406 182.343 110.864 183.03C114.725 194.468 121.512 204.992 123.326 217.002C123.56 223.408 129.118 227.411 132.453 232.387C133.565 234.503 136.49 233.473 136.9 231.3C137.134 230.671 136.724 229.928 137.427 229.298C140.527 229.47 149.889 244.855 149.011 235.818C150.064 235.304 150.415 234.389 150.24 233.188C150.415 231.758 151.351 230.442 150.708 228.898V228.955ZM147.665 222.778L87.4019 78.3669C90.7369 83.3999 93.3112 88.776 96.2951 93.9805C97.0558 97.7552 93.0187 102.96 92.2581 107.306C88.5136 102.273 86.1732 95.3531 79.2107 100.672C80.7905 94.0949 84.8275 87.7465 84.184 80.5974C84.184 78.3669 82.0191 77.1087 82.4287 74.7066C84.3595 75.6217 86.1732 76.4796 87.4019 78.3097L147.665 222.778ZM66.573 13.3388C73.7695 9.73571 83.8329 13.5104 88.6891 19.4585C96.0026 25.4065 108.465 71.1035 94.4814 71.6754C95.6516 69.5592 97.2313 67.3859 96.9973 64.6979C94.891 65.2698 96.4122 72.4189 88.7476 72.7048C92.6677 69.9596 92.9017 66.2421 93.2527 62.5246C90.9124 62.9249 93.7208 72.3045 84.535 72.5905C86.6413 70.8175 88.3966 69.0445 88.2795 66.2993C86.9924 68.3582 83.5404 71.275 82.8968 71.7898C85.3542 66.9284 85.6467 61.8382 85.2956 56.5193C96.0612 60.0081 100.625 42.4499 87.5189 41.7636C87.2849 39.4187 87.0509 37.0166 85.8807 34.7861C84.7105 35.8728 88.5721 42.7359 85.0616 42.6215C84.184 38.3892 82.7797 33.9282 79.5618 30.7254C80.732 34.0426 82.8382 37.0738 83.4233 40.6198C77.514 35.8156 57.7967 24.2626 66.6315 13.3388H66.573ZM60.9562 72.1329C57.7382 72.5905 56.1585 70.3027 53.7011 68.8729C53.3501 70.4171 53.7011 71.7898 54.5203 73.334C49.6056 72.9908 48.4354 69.6736 47.6747 65.8417C46.1535 67.7863 46.3876 69.9024 46.7386 72.0185C38.0209 64.6979 43.8132 50.1137 44.2227 40.3338C44.6323 27.0079 47.8503 9.62132 65.6953 12.481C65.5783 13.2245 64.9932 13.7392 64.7007 14.3683C58.2647 14.0824 54.5202 17.7999 51.4193 22.4897C55.1053 19.8016 58.4988 14.6543 63.9986 15.455C63.238 16.9992 63.6475 19.1725 62.0678 20.0304C58.0307 23.0616 54.8713 26.7791 52.2384 31.0114C44.5738 40.6769 49.43 67.1 62.5944 69.9596C62.8284 71.9041 62.7114 72.0757 61.0147 72.1901L60.9562 72.1329ZM63.4135 75.3929C70.0249 73.7915 75.1736 70.074 79.0352 64.6407C72.6578 68.1866 63.238 71.6754 57.2701 65.4986C51.1853 60.6372 42.8186 31.2402 57.6212 35.4152C56.568 33.5279 55.7489 33.2991 52.4725 33.871C53.0576 30.897 58.5573 23.9767 62.9454 20.7167C63.8815 26.4932 68.2697 30.0391 72.1313 34.0998C69.4399 33.4707 66.8655 32.8415 64.9347 35.4152C67.8016 34.3857 70.4345 34.5573 73.1844 36.0443C73.1259 35.644 73.0674 35.4152 73.0674 35.2436C72.8333 34.9577 71.9557 34.7289 72.3653 34.2714C72.6578 33.9854 72.8334 34.3286 73.0089 34.5001C76.8704 37.5314 81.2 40.0478 84.0084 44.5089C97.3483 37.1882 97.4653 60.866 84.0084 54.346C84.0084 59.4361 84.0084 64.2403 81.8436 68.7014V63.3252C81.6681 63.3252 81.5511 63.3252 81.3755 63.3252C80.4979 65.9561 80.3224 68.7014 80.4979 71.4466C80.0883 72.1329 79.0937 71.6182 78.7427 72.3617C79.0937 73.334 80.0884 73.1052 80.9075 73.6199C80.732 78.9388 84.0669 78.5957 82.5457 85.23C81.3755 92.3219 77.748 98.6131 75.9928 105.533C74.4131 109.994 73.5939 114.856 71.6632 119.145C67.5091 109.937 64.3496 100.272 61.3072 90.6634C58.7914 85.4016 61.8338 80.5402 63.355 75.4501L63.4135 75.3929ZM48.0843 89.6339C52.414 84.5437 54.1107 78.7673 61.5413 77.6234C55.7489 86.5455 62.0093 94.4953 63.8816 103.417C57.9723 98.1556 55.8659 103.074 51.1852 106.391C51.4193 101.644 46.2121 91.8072 48.0843 89.6339ZM20.0004 136.36C23.5109 138.248 25.7341 138.762 27.7234 138.019C25.8512 137.447 24.5055 137.333 22.8087 136.303C24.2714 135.788 25.7342 135.445 26.4363 133.958C27.8405 129.554 17.9525 131.442 15.4367 131.671C14.325 132.185 13.9155 131.556 14.5006 130.527C19.4153 118.688 22.3992 105.305 30.1223 95.01C32.1115 99.1279 33.7498 103.417 36.6752 107.078C35.8561 102.388 33.1647 98.4416 31.585 93.9233C36.2656 92.0932 41.0048 90.8921 46.1535 90.1486C46.7971 95.9251 49.9566 101.072 49.8981 107.078C49.9566 108.336 50.6002 108.622 51.6533 107.764C54.5788 106.334 57.5042 100.672 60.9562 102.96C67.4506 106.334 67.6261 114.57 70.7855 120.461C70.3175 132.128 63.121 129.383 71.8972 142.251C72.5993 143.509 72.5408 143.567 71.7802 145.168C68.0942 144.367 64.4081 143.338 60.7806 142.194C63.8231 144.539 67.5676 145.225 71.1366 146.426C71.1366 147.284 70.6685 147.913 70.2589 148.485C67.2165 152.546 73.4184 153.575 71.2536 156.492C67.6846 154.262 64.2912 151.86 61.2487 148.714C61.9508 153.632 71.7217 156.206 70.844 158.837C69.2643 158.665 67.6261 158.379 65.5783 158.437C67.392 159.866 68.9133 159.352 70.9026 159.866C71.3707 163.527 71.0781 167.13 71.1366 170.79C68.9718 171.019 66.69 170.104 64.8762 171.534C61.8338 172.163 58.3818 171.191 55.2223 170.733C55.6904 168.274 56.334 165.872 55.9244 163.355C54.8127 165.643 54.7543 168.102 54.8128 170.562C50.1906 171.763 47.7333 165.3 47.2652 162.211C49.1375 162.898 49.664 164.728 50.8342 166.1C50.1906 157.865 40.7123 158.723 49.7225 169.932C44.6323 171.019 43.4037 164.899 41.4144 161.582C39.3081 154.548 44.8079 146.769 41.7069 139.792C34.5689 125.322 37.6698 125.379 38.84 111.024C38.4304 111.024 38.3134 111.253 38.2549 111.539C37.1433 118.459 33.2232 126.008 36.7337 132.757C38.3134 136.303 33.3403 140.879 32.5796 144.825C27.4309 139.506 21.112 140.535 14.6175 141.164C16.3728 138.534 12.9794 136.646 13.5644 133.272C17.3675 132.929 20.9949 132.586 24.915 133.272C23.9789 135.788 21.1705 134.93 19.1227 135.216C18.6547 136.246 19.5323 136.303 20.0004 136.532V136.36ZM73.1844 201.16C73.0673 202.361 72.7749 203.447 71.1951 203.79C70.3175 196.584 69.4399 189.492 68.9133 182.172C70.4345 182.172 71.7802 182.057 73.1844 182.229C73.5354 188.463 73.7109 194.868 73.1844 201.16ZM71.6047 180.456C69.7324 180.284 65.7539 181.199 65.6368 178.511C66.1049 176.681 64.1741 172.163 67.275 172.334C69.7909 172.449 72.3068 172.506 74.7056 172.906C77.163 173.307 77.1629 173.25 77.2215 175.766C77.397 180.341 75.9343 180.799 71.6047 180.456ZM64.1741 176.281C64.0571 177.31 63.9986 178.283 63.9401 179.484C57.9722 179.083 52.0043 179.312 46.2705 177.539C44.5738 176.967 44.3398 176.624 44.6323 174.851C44.8664 173.593 44.6909 172.277 45.4515 171.019C51.7119 171.534 57.8552 172.678 64.2911 172.792C64.4081 174.107 64.2911 175.194 64.1156 176.224L64.1741 176.281ZM34.8614 190.064C34.8614 190.751 34.5104 191.265 34.1593 191.837C30.9999 191.837 30.5903 187.662 30.0053 185.317C29.7712 183.659 31.1169 182.858 32.17 181.771C32.1115 185.146 32.7551 187.147 34.8614 190.007V190.064ZM36.4997 178.111C36.6167 181.657 36.6167 181.714 38.5475 183.487C37.5528 185.203 36.6167 186.919 35.5636 188.692C32.1116 183.659 33.1647 181.371 36.4997 178.111ZM41.4729 175.537C39.7176 174.451 38.489 174.565 36.1486 175.995C32.9307 170.447 28.4255 162.497 32.4626 156.378C33.8668 155.062 33.1647 152.546 34.3349 151.059C36.0901 149.515 34.7444 147.799 33.6328 146.426C35.154 142.823 36.5582 139.392 38.0209 135.96C45.8025 147.227 32.5796 159.581 44.6323 169.475C42.9941 172.106 43.5207 175.194 42.8771 178.168C42.175 177.482 42.526 176.796 42.1165 176.109C40.6537 177.768 40.4197 180.056 39.2495 181.828C37.0262 179.369 37.9039 177.024 41.5314 175.537H41.4729ZM13.4474 150.944C15.0271 148.771 10.405 145.054 13.5644 143.452C19.0642 141.851 26.0267 140.993 30.6488 145.054C28.484 144.768 26.4947 144.31 23.9789 144.71C27.7234 146.369 32.3456 144.825 33.7498 149.343C32.2286 150.658 32.3456 152.546 31.8775 154.319C26.4947 147.799 19.0642 150.144 13.3304 155.12C12.6283 153.461 12.6868 152.145 13.5059 150.887L13.4474 150.944ZM27.6649 185.832C27.1384 185.946 27.0213 185.775 26.9628 185.603C23.6863 179.198 20.1174 172.906 17.0749 166.386C13.2134 157.75 12.6283 154.776 22.7502 151.86C31.702 149.343 27.7819 170.161 35.154 177.367C33.4572 180.399 29.2446 181.314 28.4255 184.745C28.367 185.374 28.016 185.718 27.7234 185.832H27.6649ZM28.4255 186.575C29.5372 189.492 29.9467 192.924 33.6912 193.61C33.2232 194.525 33.2817 195.326 32.7551 195.898C29.7127 195.154 27.1383 189.778 28.4255 186.575ZM36.4412 389.495C44.1058 384.405 50.2491 376.341 52.1214 367.419C56.2169 367.419 60.137 368.219 64.3496 367.876C64.6422 373.71 64.6422 379.258 65.3443 384.691C57.9723 388.237 41.8825 391.783 32.6381 391.954C33.8668 390.811 35.3295 390.353 36.4412 389.495ZM68.2112 399.161C64.1156 399.904 60.02 399.504 55.9244 399.504C55.3978 398.76 55.2808 398.188 55.2808 397.559C57.2701 396.759 65.2272 395.672 67.5676 395.901C67.8016 396.873 68.2697 397.845 68.2697 399.218L68.2112 399.161ZM65.5198 386.292C66.0464 388.923 66.573 391.554 67.158 394.299C50.0151 396.187 33.0477 401.62 15.6707 400.533C20.4099 397.616 25.8511 394.986 31.0584 393.041C42.9356 393.27 54.4617 389.781 65.5198 386.235V386.292ZM71.1366 235.361C68.6792 277.912 69.3814 320.578 69.2058 363.186C68.3282 363.301 67.7431 363.358 67.0996 363.415C67.0996 364.216 67.6456 364.673 68.7377 364.788C69.7909 368.906 44.4568 364.102 40.7122 364.216C40.6537 363.53 40.5953 363.072 40.5368 362.729C40.8293 362.043 41.4729 362.729 41.8239 362.157C41.9409 361.185 40.9463 361.585 40.3027 361.07C35.5635 331.387 38.4304 301.418 36.2071 271.621C34.2178 249.201 30.0638 226.553 32.8722 204.019C40.8878 203.276 48.8449 199.215 53.5256 192.981C52.4724 192.409 52.0629 193.267 51.5363 193.667C46.329 198.128 40.3027 202.017 33.2817 203.047C32.9307 201.617 33.6328 200.302 33.8083 198.986C42.526 197.213 50.0151 193.496 51.8874 189.893C51.1268 189.607 50.7757 190.179 50.3076 190.465C45.3929 193.896 40.2442 196.87 34.1008 197.842C35.7391 190.407 39.7761 184.231 43.8132 178.054C51.4778 181.886 60.3126 179.14 68.0357 182.114C68.1527 199.959 72.7163 217.402 71.0196 235.304L71.1366 235.361ZM119.113 415.117C115.895 424.268 107.061 406.767 107.061 403.336C111.39 408.712 117.475 408.426 120.284 401.906C120.752 406.424 120.401 410.828 119.113 415.117ZM117.651 385.606C120.284 391.611 121.98 399.332 116.773 404.537C115.252 406.138 113.438 406.31 111.332 404.994C107.47 402.592 104.954 399.275 104.486 394.642C103.316 386.864 105.656 379.315 103.316 371.594C106.71 371.594 109.811 371.765 112.97 371.594C114.901 376.169 115.252 381.202 117.651 385.663V385.606ZM103.609 199.787C102.38 199.901 101.619 199.272 100.859 199.043C100.625 196.298 99.8056 193.782 98.928 191.265C97.9334 188.234 93.9548 190.808 91.556 190.865C90.8539 189.95 90.0933 188.978 89.3327 187.948C89.3327 193.267 97.8749 200.759 103.96 202.075C96.6463 202.075 91.0294 197.042 87.636 191.151C90.0348 199.329 96.0611 203.104 104.369 203.79C114.316 251.832 117.3 301.247 122.858 349.975C123.209 354.15 123.268 358.382 123.268 362.557C123.268 363.244 123.502 364.044 122.682 364.559C122.331 364.788 122.331 365.417 122.682 365.589C123.619 366.103 122.975 366.732 123.15 367.304C113.906 371.193 103.316 370.164 93.7208 368.448C92.8432 368.219 92.4337 367.705 92.5507 366.79C92.7847 366.446 93.3698 366.79 93.5453 366.275C88.3966 313.028 76.6949 258.581 71.4291 204.534C77.6895 203.676 73.6525 187.147 74.5301 182.114C82.0777 180.513 89.6837 181.543 97.4068 179.598C100.157 186.061 101.561 192.867 103.667 199.673L103.609 199.787ZM99.6302 198.472C96.2952 196.756 94.1304 194.468 91.9656 191.608C94.0719 191.38 95.6516 190.979 97.4653 191.094C98.46 193.324 98.9281 195.669 99.6302 198.414V198.472ZM78.6842 173.307C85.2956 173.593 88.9231 171.419 87.6945 179.655C84.5935 180.227 81.5511 180.056 78.3331 180.284C78.9182 177.882 78.7427 175.652 78.6842 173.307ZM96.8802 178.34C94.2474 179.14 91.79 179.369 89.0987 179.712C88.8646 177.482 89.3912 175.251 88.221 173.078C91.0879 172.735 93.7208 172.392 96.5877 172.049C97.4068 174.05 96.8217 176.109 96.8802 178.283V178.34ZM97.9919 152.374C96.0611 157.636 101.795 162.841 99.3376 167.759C97.6409 172.163 92.4336 170.504 88.3965 171.648C89.6252 169.646 91.79 168.617 92.6677 166.386C87.4604 168.388 88.7476 172.964 81.3755 171.648C82.6042 169.303 83.3063 166.787 85.4711 164.957C85.8807 166.73 85.3541 168.217 84.886 169.99C90.1518 163.412 83.8329 159.009 80.3224 171.763C77.397 172.735 75.1152 170.619 72.3653 171.076C72.6578 166.787 72.4823 162.726 72.4823 158.551C75.4077 159.409 78.2161 161.068 81.3755 160.21C78.4501 159.409 75.5247 158.837 72.7163 157.293C74.7641 151.688 67.9186 153.518 72.7748 146.769C76.6949 147.684 80.3224 146.769 83.9499 145.282C82.3702 148.371 79.1523 149 76.4609 150.716C78.5672 151.745 81.317 151.23 83.9499 149.457C82.7797 149.114 81.9606 150.201 80.732 149.915C82.7797 148.028 85.5882 146.827 86.1732 143.395C81.8436 144.482 78.0406 146.827 73.4769 145.568C75.1151 140.135 67.158 136.703 69.2643 131.27C71.3121 125.379 73.0089 119.374 75.0567 113.483C76.9874 108.507 77.28 100.157 84.418 100.1C88.3966 101.416 89.0986 107.135 92.4921 109.251C93.3697 109.079 93.3698 108.222 93.5453 107.65C94.4814 104.676 95.5346 101.759 96.7047 98.8419C97.6409 96.497 98.9866 94.1521 96.1782 91.5212C99.5131 92.6651 111.098 92.7223 108.816 96.9545C103.901 115.199 103.492 134.301 97.9334 152.431L97.9919 152.374ZM106.593 163.87C106.593 162.497 108.523 161.296 106.885 160.038C102.38 156.149 106.885 151.059 106.417 146.369C105.481 147.742 105.247 149.114 104.662 150.373C104.018 150.201 104.135 149.629 104.018 149.229C103.726 146.426 102.38 143.681 102.497 140.879C105.13 126.066 107.587 111.196 109.635 96.3254C118.938 94.724 119.815 139.449 121.746 147.227C122.156 149.457 121.454 152.431 124.028 153.575C127.89 155.348 124.672 157.464 126.368 159.409C127.597 160.324 127.597 161.754 128.358 163.184C121.98 163.698 116.364 165.815 110.63 167.645C110.981 166.329 114.667 161.983 116.188 161.068C116.481 162.383 114.784 162.898 114.959 164.156C115.954 164.499 116.598 163.756 117.417 163.47C116.656 161.697 119.523 160.324 118.528 158.208C115.252 157.579 110.22 165.872 107.938 168.217C107.061 166.787 107.119 165.243 106.651 163.87H106.593ZM116.539 160.381C116.656 160.381 116.715 160.267 116.832 160.21C116.832 160.21 116.949 160.324 117.007 160.381C116.832 160.438 116.715 160.61 116.598 160.381H116.539ZM110.045 167.873C109.928 167.873 109.869 167.702 109.986 167.588C110.22 167.588 110.337 167.759 110.045 167.873ZM110.103 181.6C107.763 179.369 108.933 176.052 107.88 173.307C107.412 171.133 107.763 170.676 109.811 169.704C112.385 168.445 129.177 162.04 129.469 166.043C128.475 167.016 127.071 167.473 126.193 168.789C127.773 168.789 128.592 167.473 129.937 167.13C130.874 168.903 131.166 170.905 131.517 172.906C128.826 174.908 125.725 175.88 122.682 176.91C117.885 176.452 114.608 180.627 110.045 181.6H110.103ZM137.192 229.413C137.192 229.356 137.075 229.241 137.075 229.184L137.192 229.07C137.251 229.241 137.368 229.356 137.192 229.47V229.413ZM142.634 220.834C142.049 221.806 142.809 222.149 143.277 222.55C146.32 225.81 149.128 230.042 148.953 234.617C145.91 231.415 144.857 225.524 140.469 223.293C139.884 224.208 140.645 224.666 141.113 225.181C143.745 228.498 146.495 232.101 147.49 236.276C147.958 236.505 147.49 237.019 147.197 236.562C144.155 233.588 141.873 229.87 137.836 227.983C135.613 226.725 134.618 224.723 134.092 222.378C133.975 221.806 134.092 221.12 133.272 220.662C131.576 224.609 137.836 228.612 134.56 232.101C132.336 231.014 131.868 228.04 129.762 226.553C123.677 221.177 125.432 212.655 121.922 205.964C118.821 198.128 114.959 190.465 112.385 182.458C116.949 179.369 122.331 178.683 127.363 176.738C130.815 187.147 124.379 200.988 132.102 208.823C135.379 212.141 144.974 216.602 148.017 222.378C147.724 222.893 143.687 218.203 143.394 218.203C143.277 218.317 143.102 218.432 142.985 218.546C146.086 222.264 149.128 225.581 149.889 230.728C147.9 226.896 146.32 223.179 142.692 220.777L142.634 220.834Z" fill="#141414"/>
</g>
</g>
<defs>
<linearGradient id="paint0_linear_2093_8792" x1="0.564453" y1="97.0717" x2="140.67" y2="97.0717" gradientUnits="userSpaceOnUse">
<stop stop-color="#A25A9F"/>
<stop offset="0.6" stop-color="#693068"/>
<stop offset="1" stop-color="#501D50"/>
</linearGradient>
<linearGradient id="paint1_linear_2093_8792" x1="0.564453" y1="97.4632" x2="140.67" y2="97.4632" gradientUnits="userSpaceOnUse">
<stop stop-color="#A25A9F"/>
<stop offset="0.6" stop-color="#693068"/>
<stop offset="1" stop-color="#501D50"/>
</linearGradient>
<clipPath id="clip0_2093_8792">
<rect width="140" height="167.489" fill="white" transform="translate(0.564453)"/>
</clipPath>
</defs>
</svg>
