<svg width="343" height="957" viewBox="0 0 343 957" fill="none" xmlns="http://www.w3.org/2000/svg">
<path d="M315.666 501.964C322.466 509.3 329.533 519.97 328.199 529.974C322.866 522.638 319.799 513.035 312.999 506.232C312.066 505.165 311.266 503.431 309.266 503.564C307.933 505.565 309.799 506.632 310.733 507.833C315.266 513.702 319.933 519.97 322.999 526.906C323.933 529.04 324.733 531.308 325.266 533.576C324.999 533.842 324.866 534.109 324.599 534.242C317.666 527.307 312.466 518.637 303.266 514.368C298.199 511.434 295.933 506.766 294.733 501.297C294.466 499.963 294.733 498.362 292.866 497.295C288.999 506.499 303.399 515.836 295.799 523.972C290.733 521.171 289.266 513.968 284.333 510.367C274.333 500.897 273.666 487.292 271.666 474.354C275.399 473.42 279.266 472.753 283.133 471.953C285.266 471.419 287.399 470.886 289.399 470.219C297.266 479.422 309.666 482.623 318.066 491.293C317.266 492.627 316.599 491.827 315.799 491.693C314.999 490.76 314.599 491.693 314.866 492.494C321.933 501.164 328.866 508.9 330.599 520.904C326.066 511.968 322.466 503.298 314.199 497.696C312.866 499.963 314.733 500.763 315.666 501.697V501.964Z" fill="white"/>
<path d="M315.666 501.964C322.466 509.3 329.533 519.971 328.2 529.975C322.866 522.639 319.8 513.035 313 506.232C312.066 505.165 311.266 503.431 309.266 503.565C307.933 505.566 309.799 506.633 310.733 507.833C315.266 513.702 319.933 519.971 323 526.907C320.6 522.639 318.2 518.237 315.266 514.235C308.066 503.965 297.933 496.095 290.866 485.825C287.8 481.557 285.399 476.755 283.133 472.086C285.266 471.553 287.399 471.019 289.399 470.353C297.266 479.556 309.666 482.757 318.066 491.427C317.266 492.761 316.599 491.961 315.799 491.827C314.999 490.893 314.6 491.827 314.866 492.627C321.933 501.297 328.866 509.034 330.599 521.038C326.066 512.101 322.466 503.431 314.2 497.829C312.866 500.097 314.733 500.897 315.666 501.831V501.964Z" fill="#F4C6CC"/>
<path d="M173.799 86.3435C167.533 76.3398 158.199 70.3376 149.399 63.6685C149.133 63.9353 148.866 64.202 148.599 64.4688C148.999 65.0023 149.266 65.5358 148.866 66.6029C142.866 63.135 136.733 61.5344 129.666 66.3361C132.733 58.4666 141.399 59.9338 146.866 63.2683C147.133 63.0016 147.533 62.6014 147.799 62.3347C138.066 53.2646 128.066 44.8615 125.666 30.1895C122.733 32.8571 119.933 35.5248 117.399 38.3258C110.866 45.2617 105.399 52.7311 100.999 61.6678C106.066 60.7341 110.599 59.5336 113.666 64.4688C112.466 65.5359 111.666 64.8689 110.866 64.4688C104.199 62.2013 98.9994 65.0023 97.1327 71.6715C91.5327 92.8793 98.7328 116.355 111.533 133.694C116.333 139.963 123.399 142.631 130.866 143.031C140.866 143.431 151.799 139.563 159.399 134.228C160.199 133.561 161.133 132.494 162.199 132.894C162.199 132.894 162.199 132.627 162.466 132.627C162.466 132.894 162.599 133.027 162.733 133.294C162.733 133.294 162.866 133.294 162.999 133.428C155.799 142.364 147.133 150.634 136.599 155.169C133.133 156.636 129.399 157.837 125.533 158.37C125.533 166.64 126.733 174.643 130.333 181.846C131.266 183.713 132.466 185.58 133.666 187.448C140.599 195.717 137.399 205.187 141.133 214.924C143.666 205.588 139.533 193.717 148.999 188.781C162.333 182.913 165.666 166.773 165.933 153.702C164.333 152.635 162.066 152.901 161.666 150.767C162.733 149.434 164.866 150.501 165.666 148.767C164.999 141.164 166.066 132.627 168.599 129.693C169.266 134.095 168.333 138.229 168.999 142.364C173.666 131.96 173.399 120.756 173.533 109.419C204.466 123.557 203.533 69.2706 173.399 86.2102L173.799 86.3435ZM104.733 83.9427C100.733 78.3406 108.466 67.0031 109.666 78.6073C109.933 81.275 107.666 87.2772 104.733 83.9427ZM114.333 98.348C115.666 95.9471 116.466 93.4128 116.999 91.0119C118.733 84.076 118.599 76.8734 120.199 69.9375C120.599 69.9375 120.999 69.9375 121.399 70.0709C122.066 80.0746 121.133 89.8115 117.133 99.2817C118.466 101.816 121.933 100.482 123.399 102.75C120.999 103.95 116.999 103.417 115.133 101.549C114.333 100.749 113.933 99.6818 114.333 98.348ZM138.999 82.7422C135.666 76.6066 143.666 67.4032 144.333 78.474C144.866 81.5418 141.666 87.0105 138.999 82.7422ZM186.733 98.2146C184.599 102.483 184.599 106.084 178.466 103.417C183.799 102.083 184.866 100.482 180.066 96.8808C174.066 90.8786 185.266 88.7444 189.799 89.4113C187.933 93.2794 183.666 91.6788 181.133 93.9464C182.866 96.0805 185.666 94.4799 187.666 95.6803C189.666 96.7474 191.933 97.4143 191.799 100.482C189.266 100.882 188.599 98.2146 186.599 98.348L186.733 98.2146ZM162.466 132.894C162.466 133.161 162.733 133.428 163.133 133.428C163.133 133.428 163.133 133.428 163.133 133.294C162.866 133.161 162.733 133.027 162.466 132.894Z" fill="white"/>
<path d="M130.999 143.032C123.533 142.631 116.466 139.964 111.666 133.695C98.8658 116.488 91.5325 92.8797 97.2659 71.6718C99.1325 65.0027 104.466 62.2017 110.999 64.4692C111.799 64.7359 112.599 65.5362 113.799 64.4692C110.732 59.6674 106.199 60.7345 101.132 61.6681C105.399 52.8649 110.999 45.3955 117.533 38.3262C120.333 55.6659 120.199 73.5392 116.999 90.8789C116.466 93.8134 115.933 96.6144 115.266 99.5488C115.133 100.216 114.999 100.883 115.132 101.55C115.132 101.816 115.266 102.216 115.399 102.483C115.799 103.15 116.599 103.417 117.399 103.55C119.266 104.084 121.133 104.751 122.999 105.284C124.199 109.552 121.532 114.888 124.466 118.222C125.266 119.023 126.199 119.556 127.132 120.356C130.866 123.558 130.333 129.293 130.333 134.228C130.333 137.163 130.599 140.097 131.132 142.898L130.999 143.032Z" fill="#F4C6CC"/>
<path d="M138.866 161.305C138.866 163.039 138.466 164.773 137.933 166.374C136.199 171.976 133.666 177.178 130.466 182.113C126.866 174.91 125.666 166.907 125.666 158.638C129.533 157.971 133.266 156.904 136.733 155.437C137.799 157.304 138.733 159.305 138.866 161.439V161.305Z" fill="#F4C6CC"/>
<path d="M224.199 421.935C216.999 424.469 210.599 424.869 202.999 424.202C195.533 424.469 193.933 416.333 191.933 410.73C190.599 401.527 191.266 400.86 200.333 399.126C207.133 397.792 213.933 396.459 220.866 394.991C217.533 370.716 218.732 348.708 221.399 324.565C223.132 288.819 222.332 252.539 227.399 216.926C227.399 208.122 234.999 193.05 222.066 189.982C211.399 187.048 201.799 182.78 190.599 181.579C196.466 187.848 207.933 188.515 204.599 198.919C204.466 199.719 205.932 200.786 205.799 201.586C198.199 249.871 185.799 295.221 176.866 343.239C176.066 387.122 174.732 431.271 176.466 475.154C177.932 485.025 177.799 503.165 190.999 503.565C206.866 506.366 222.199 498.496 236.066 491.16C231.399 468.085 227.399 445.277 224.199 422.068V421.935ZM184.732 367.248C188.999 367.114 189.666 374.717 184.999 374.584C180.599 374.584 180.066 367.381 184.732 367.248Z" fill="#617893"/>
<path d="M202.733 198.119C198.2 244.003 185.533 288.552 177.4 333.902C177.133 333.902 177 333.902 176.733 333.902C177 289.753 173.933 245.603 171.8 201.587C172.733 193.45 178.6 187.315 180.733 179.445C187.933 182.913 194.733 186.915 201.533 191.05C203.8 192.517 203 195.451 202.6 198.252L202.733 198.119Z" fill="#617893"/>
<path d="M202.733 198.119C200.2 220.927 196.6 243.335 191.533 265.744C193.133 246.136 195.533 212.924 195.133 201.32C194.466 184.247 177.8 186.648 177.8 186.648L179.933 178.378C179.933 178.378 185.4 181.579 187.533 179.979C189.133 178.778 196.333 185.581 201.8 191.049C203.933 192.65 203.133 195.318 202.733 198.119Z" fill="#AEC2D3"/>
<path d="M99.2663 179.978C99.2663 179.978 99.2662 179.978 99.1328 179.978C99.1328 179.978 99.2662 179.978 99.3996 179.845L99.2663 179.978Z" fill="#282F39"/>
<path d="M112.066 364.713C111.799 404.195 109.932 443.676 108.332 483.157C112.466 517.436 76.8658 510.767 54.4658 508.233C51.3991 479.422 67.9325 388.589 73.6658 385.921C75.5325 360.979 78.0658 335.503 70.0658 311.36C59.9325 281.082 67.3991 250.271 69.7991 219.593C70.0658 218.259 69.5325 219.46 67.6658 221.727C65.5325 211.323 64.3325 201.186 62.7325 191.182C73.9325 183.58 86.5991 182.779 98.9991 180.245C68.4658 200.386 79.1325 200.119 86.9991 230.664C94.4658 263.876 99.3992 297.755 106.866 330.967C109.399 342.172 112.066 353.509 112.066 364.98V364.713Z" fill="#617893"/>
<path d="M108.466 483.157C112.599 517.436 76.9989 510.767 54.5989 508.233C53.9323 507.166 53.6656 503.431 53.9323 497.962C77.7989 502.497 99.1323 484.891 100.599 460.882C104.599 440.208 108.332 419.267 111.666 398.459C110.999 426.603 109.532 454.88 108.599 483.157H108.466Z" fill="#AEC2D3"/>
<path d="M230.866 493.694C219 500.497 185.933 513.435 180.2 494.628C172.2 458.081 175.933 419.266 176.066 382.053C180.466 416.199 179 454.213 193.4 485.824C203.4 495.028 217.933 493.694 230.733 493.694H230.866Z" fill="#AEC2D3"/>
<path d="M139 393.924C150.866 393.924 162.6 393.924 174.2 395.124C175.8 399.926 176.599 468.085 177.133 493.027C181.399 519.037 214.066 502.497 229.399 496.895C237.533 530.641 240.2 564.253 243 598.666C244.6 631.078 242.466 664.157 254.866 694.835C265.933 736.984 282.2 820.215 287 855.428C287 874.368 235.666 882.771 217.933 866.899C211.533 831.952 176.999 663.624 170.066 605.469C162.199 561.853 149.666 518.903 143.266 475.021C140.6 448.077 141.4 420.867 138.866 393.924H139Z" fill="#617893"/>
<path d="M240.599 757.125L261.399 871.568C261.399 871.568 252.866 880.371 233.133 871.568L252.866 865.966L193.399 507.033L199.133 505.699L240.599 757.125Z" fill="#AEC2D3"/>
<path d="M141.933 560.252C141.533 535.176 144.066 510.1 141.933 485.024C139.8 473.153 140.066 460.615 140.733 448.477C140.866 430.471 139.533 411.53 136.6 393.924C129.8 394.191 122.6 394.457 115.533 394.724C110.6 427.536 112.066 461.949 109.266 495.028C104.6 515.702 78.9995 511.701 62.8662 513.568C68.0662 626.943 73.2662 740.852 70.1995 854.361C70.4662 859.163 73.7995 857.295 75.2662 861.83C75.9329 863.564 120.466 866.765 140.733 860.63C137.799 760.993 137.666 660.289 141.666 560.385L141.933 560.252Z" fill="#617893"/>
<path d="M82.7324 517.437L95.7991 855.962L138.999 863.431L85.2658 862.898" fill="#AEC2D3"/>
<path d="M144.599 245.869C143.399 252.938 135.132 256.806 139.266 264.009C142.599 269.211 142.466 274.68 142.466 280.415C144.466 285.884 142.199 291.219 143.132 297.221C134.199 291.353 125.532 292.42 134.999 303.09C129.132 308.692 135.532 314.695 142.332 310.426C140.199 309.226 137.132 310.16 135.532 307.759C135.799 305.758 138.199 305.625 138.999 303.757C138.599 300.823 134.466 300.022 134.199 296.555C137.532 296.288 140.066 298.555 143.132 299.222C144.332 317.362 143.532 335.236 141.799 353.109C135.932 351.642 130.599 349.374 124.732 350.975C129.932 353.242 135.266 354.443 141.266 354.443C141.532 357.244 143.132 359.645 146.066 361.245C140.466 368.048 141.666 368.314 141.532 377.118C132.732 377.118 124.066 377.651 114.999 378.718C114.599 318.296 115.799 258.14 118.999 197.985C124.999 196.918 134.199 207.722 136.466 212.79C145.132 225.328 133.132 238 144.599 245.736V245.869ZM140.599 361.378C134.999 361.112 129.666 361.779 124.732 364.313C130.332 365.247 135.532 363.779 140.599 361.378Z" fill="white"/>
<path d="M172.6 378.185C163 376.985 153.533 377.118 143.666 376.851C144.066 372.983 142.333 368.582 145.933 366.047C148.466 364.18 150.866 360.845 147.4 358.845C144.6 356.977 144.2 354.71 144.6 351.509C147.133 326.166 146.333 300.423 145.533 275.347C152.066 274.28 157.8 270.945 163.266 267.077C158.466 266.144 151.266 271.612 146.066 274.147C141.533 260.542 138.2 262.009 147.133 249.604C150.866 242.535 140.466 241.334 143.133 233.065C144.6 221.994 145.533 210.79 146.6 199.586C146.6 198.252 146.2 196.651 147.933 195.984C154.6 199.986 158.066 209.456 163.933 214.925C166.333 217.859 169.133 209.323 170.6 207.189C171.8 213.591 173.666 366.047 172.733 378.052L172.6 378.185ZM149.666 279.882C153 283.217 157.133 283.483 161.4 283.75C158.066 280.949 153.8 280.416 149.666 279.882ZM157.666 296.955C153.933 297.489 150.466 298.956 148.2 302.024C152.066 301.49 155.133 299.623 157.666 296.955Z" fill="white"/>
<path d="M142.466 223.595C139.399 230.397 136.599 238.267 137.266 245.736C139.399 248.404 138.866 251.738 136.332 254.139C121.399 264.01 137.666 280.549 138.466 293.621C136.066 293.754 133.666 294.021 131.266 294.154C135.266 296.422 139.532 298.156 143.799 299.489C156.199 260.942 128.466 271.879 147.532 245.603C148.199 243.069 144.066 242.268 142.599 240.801C136.066 236.533 143.266 231.864 143.532 227.063" fill="#B3E1E5"/>
<path d="M144.467 339.904C137.267 358.978 154.6 358.711 146.333 365.113C138.6 367.914 140.6 372.316 140.333 378.985C152.067 376.984 164.067 378.852 175.933 378.985C173.933 368.315 174.2 357.244 174.467 346.44C162.733 365.38 171.533 377.785 150.467 372.183C149 364.58 159.267 359.778 157.933 352.442C156.733 349.374 152.067 349.508 149.933 346.973C146.867 339.771 148.733 330.967 145.533 323.498" fill="#B3E1E5"/>
<path d="M64.7332 381.253C65.1332 382.72 64.0666 384.721 63.9333 386.721C53.3999 391.256 42.1999 394.191 34.3333 403.928C21.1333 384.054 17.1333 360.312 12.3333 337.503C10.3333 330.034 12.8666 323.898 14.8666 316.829C14.4666 312.561 18.0666 309.76 19.2666 305.758C27.6666 278.548 34.3333 250.938 41.9333 223.461C45.2666 210.923 43.7999 191.316 60.8666 189.849C61.2666 201.986 64.5999 215.725 66.3332 227.062C67.2666 233.465 67.2665 239.067 66.4665 245.469C63.7999 261.075 64.8666 276.681 65.1332 292.153C62.4665 298.022 51.1333 324.832 52.3332 330.167C55.9333 345.106 60.7333 366.314 64.5999 381.119L64.7332 381.253Z" fill="#617893"/>
<path d="M20.5995 324.965C20.3328 329.767 38.9994 390.189 38.9994 390.189C38.9994 390.189 53.6661 387.655 60.7328 388.055C51.2661 391.923 41.2661 395.124 34.1995 403.928C20.9995 384.054 16.9995 360.312 12.1995 337.503C10.1995 330.034 12.7328 323.898 14.7328 316.829C14.3328 312.561 17.9327 309.76 19.1327 305.758C27.5327 278.548 34.1994 250.938 41.7994 223.461C45.1327 210.923 43.6661 191.316 60.7328 189.849C60.7328 192.783 61.1328 195.984 61.5328 199.052C42.8661 215.325 23.7994 313.894 20.4661 324.832L20.5995 324.965Z" fill="#AEC2D3"/>
<path d="M116.6 199.319C112.2 243.202 111.4 286.951 111 330.968C100.333 294.821 92.9997 256.807 85.1331 219.46C78.0664 186.914 82.8664 198.252 106.333 178.378C105.666 188.515 103 197.852 103.533 208.256C108.866 205.855 111.8 201.186 116.733 199.319H116.6Z" fill="#617893"/>
<path d="M112.066 316.696L110.599 336.036C103.532 301.89 88.1989 237.733 82.3323 203.054C81.9323 199.986 80.599 196.385 83.9323 194.517C91.799 189.049 98.4656 184.247 106.332 178.378C106.332 179.979 106.066 181.579 105.932 183.046C102.732 184.914 90.5989 192.516 88.9989 200.119C87.6656 209.723 107.532 296.021 112.199 316.829L112.066 316.696Z" fill="#AEC2D3"/>
<path d="M122.332 866.232C122.332 866.232 118.999 878.37 118.732 878.503C118.466 878.637 89.399 895.176 89.399 895.176C89.399 895.176 81.3991 896.644 73.5324 897.711C64.9991 898.911 56.7324 899.445 60.0657 896.777C66.4657 891.708 88.1991 865.565 88.1991 865.565C96.1991 865.565 114.199 865.966 122.332 866.099V866.232Z" fill="white"/>
<path d="M122.333 866.232C122.333 866.232 119 878.37 118.733 878.503C118.466 878.637 89.3998 895.176 89.3998 895.176C89.3998 895.176 81.3999 896.643 73.5332 897.711C85.2665 889.307 92.3331 876.636 101.8 865.832L122.333 866.099V866.232Z" fill="#F4C6CC"/>
<path d="M212.333 98.8819C206.599 63.0019 192.066 8.58179 147.533 8.18164C137.266 8.44841 131.799 9.78224 128.066 21.1198C128.866 19.2524 129.666 16.1846 126.466 16.4514C130.066 17.1183 132.199 14.3172 132.866 10.7159C81.1326 -2.08882 83.266 61.6681 78.866 95.4139C77.3993 112.754 70.7326 138.363 87.5326 151.568C92.1993 149.701 87.5326 142.498 90.0659 138.897C91.3992 146.233 96.8659 155.436 107.133 153.702C107.666 150.634 104.733 147.7 105.533 144.632C110.333 151.835 131.133 155.703 125.266 143.965C102.066 137.963 96.8659 107.952 93.9326 89.9452C89.7993 65.4028 108.733 41.6607 126.733 26.8552C126.333 44.7285 142.066 56.4662 155.133 67.0034C158.866 68.2038 171.399 84.8767 172.733 77.8074C173.666 79.6747 172.733 83.4094 174.999 83.943C176.999 83.943 178.866 83.1427 179.666 81.4087C203.266 82.7425 203.399 111.953 182.066 114.754C179.933 115.688 174.466 111.553 173.799 115.021C175.533 127.426 174.199 138.363 169.533 148.5C168.466 153.302 171.399 153.302 174.333 150.634C170.866 156.236 182.333 152.768 184.333 150.768C180.333 157.17 192.733 152.635 194.333 150.368C193.133 151.168 193.266 153.302 194.999 153.169C218.466 148.1 214.199 116.755 212.333 99.0152V98.8819Z" fill="#564C47"/>
<path d="M232.066 194.25C243.933 206.521 243.666 223.861 248.6 239.2C255.4 268.277 262.999 297.888 268.466 327.232C274.466 373.516 290.066 416.999 303.399 461.549C291.533 467.284 276.066 471.552 262.866 471.953C247.133 426.869 240.866 379.919 225.133 334.835C224.599 333.235 220.733 321.897 221.266 316.562C225.8 275.88 223.666 234.798 232.066 194.383V194.25Z" fill="#617893"/>
<path d="M277.132 868.767C279.666 876.503 282.733 883.839 283.533 891.442C285.266 904.913 275.266 926.388 259.933 913.183C244.733 901.845 248.199 895.176 246.466 877.97C257.799 880.104 268.066 875.702 277.132 868.767Z" fill="#F4C6CC"/>
<path d="M134.733 204.655C121.933 192.917 121.666 192.25 106.866 202.12C106.866 193.05 109.4 184.38 110.333 175.444C111.666 166.641 118.199 162.372 123.399 154.77C119.266 182.78 134.733 185.981 135.266 204.121C135.133 204.254 134.866 204.521 134.733 204.655Z" fill="#B3E1E5"/>
<path d="M115.133 392.724V381.12C134.333 381.52 153.533 379.919 172.866 382.054C173.533 385.388 173.133 388.589 173.133 391.791C153.799 392.324 134.733 390.19 115.133 392.724Z" fill="white"/>
<path d="M149.399 191.716C164.066 185.447 166.999 172.776 168.733 159.438C172.199 161.438 172.466 167.04 175.399 169.975C178.066 173.443 180.999 176.11 179.666 179.845C175.133 190.516 169.933 200.653 165.266 211.59C159.666 205.054 155.399 198.118 149.399 191.849V191.716Z" fill="#B3E1E5"/>
<path d="M194.599 403.394C203.799 400.993 213.266 398.992 221.933 396.191C223.399 403.394 223.133 411.53 224.066 418.866C206.466 426.069 190.733 428.203 194.733 403.394H194.599Z" fill="#617893"/>
<path d="M55.7999 406.595C55.2666 414.465 57.7999 420.734 62.7332 426.469C62.3332 427.536 61.9333 428.737 61.6666 429.67C52.7333 432.071 46.4666 410.33 55.9333 406.462L55.7999 406.595Z" fill="white"/>
<path d="M47.1331 417.399C49.7998 424.469 50.1998 432.738 59.6665 433.939C60.5998 435.673 59.6665 437.14 59.3998 438.474C50.4665 443.142 43.7998 423.402 46.9998 417.399H47.1331Z" fill="white"/>
<path d="M44.4665 416.333C43.2665 414.199 42.0665 412.465 41.5332 410.064C50.7332 407.396 53.5332 397.926 62.8665 395.125C59.3999 403.261 49.1331 404.595 47.1331 413.398C46.9998 414.866 46.0665 415.533 44.4665 416.333Z" fill="white"/>
<path d="M59.7992 392.591C53.7992 396.192 49.3992 401.661 43.6659 406.062C42.1992 404.729 41.3992 403.395 40.4658 401.661C46.0658 396.726 52.7325 394.191 59.7992 392.591Z" fill="white"/>
<path d="M66.0658 398.593C64.4658 404.862 62.9992 411.131 61.3992 417.4C56.3325 411.264 58.8658 404.328 66.0658 398.593Z" fill="white"/>
<path d="M44.999 431.938C50.7324 441.275 51.5324 441.809 58.3324 443.276C51.9324 447.277 45.2657 441.942 44.999 431.938Z" fill="white"/>
<path d="M92.5997 148.767C92.1994 149.701 91.399 149.434 91.2656 148.634C91.2656 147.033 92.3328 147.967 92.5997 148.767Z" fill="white"/>
<path d="M147.932 62.335C148.466 62.7351 149.132 63.0019 149.399 63.6688C149.132 63.9356 148.866 64.2023 148.599 64.4691C148.066 64.0689 147.532 63.6688 146.999 63.2686C147.266 63.0019 147.666 62.6017 147.932 62.335Z" fill="white"/>
<path d="M302.066 517.303C302.066 517.437 301.799 517.704 301.799 517.837C301.399 517.57 301.666 517.303 301.799 516.903C301.799 516.903 301.933 517.17 302.066 517.17V517.303Z" fill="white"/>
<path d="M108.866 149.567C110.734 150.368 108.866 152.502 108.199 150.501C108.466 150.234 108.599 149.968 108.866 149.567Z" fill="white"/>
<path d="M108.2 150.501C106.999 149.967 107.666 148.634 108.867 149.567C108.6 149.834 108.466 150.101 108.2 150.501Z" fill="white"/>
<path d="M99.2662 179.979C99.2662 179.979 99.2662 179.845 99.2662 179.712C99.1328 179.845 99.2662 179.979 99.3996 179.712V179.845L99.2662 179.979Z" fill="white"/>
<path d="M135.266 204.121C136.2 204.788 134.999 205.855 134.732 204.655C134.866 204.521 135.133 204.254 135.266 204.121Z" fill="white"/>
<path d="M184.732 367.248C188.999 367.114 189.666 374.717 184.999 374.584C180.599 374.584 180.066 367.381 184.732 367.248Z" fill="#141414"/>
<path d="M121.399 70.0709C122.066 80.0746 121.132 89.8115 117.132 99.2817C118.466 101.816 121.932 100.482 123.399 102.75C119.932 104.484 113.132 102.616 114.466 98.348C119.132 89.4114 118.332 79.4077 120.332 69.9375C120.732 69.9375 121.133 69.9375 121.533 70.0709H121.399Z" fill="#141414"/>
<path d="M185.799 99.415C184.999 104.083 183.266 105.284 178.466 103.416C183.799 102.083 184.866 100.482 180.066 96.8807C174.066 90.8785 185.266 88.7444 189.799 89.4113C187.933 93.2794 183.666 91.6788 181.133 93.9463C182.866 96.0804 185.666 94.4798 187.666 95.6803C189.666 96.7473 191.933 97.4143 191.799 100.482C189.266 100.882 188.6 98.2146 186.6 98.2146C185.266 97.4143 184.866 98.6147 185.666 99.5484L185.799 99.415Z" fill="#141414"/>
<path d="M144.333 78.4741C144.333 80.4749 143.933 84.343 141.133 84.343C136.999 83.6761 137.799 77.4071 139.399 74.7394C141.666 71.5382 144.866 74.7394 144.333 78.6075V78.4741Z" fill="#141414"/>
<path d="M109.8 78.6074C110.066 81.2751 107.8 87.2773 104.866 83.9427C100.866 78.3406 108.466 67.0031 109.8 78.6074Z" fill="#141414"/>
<path d="M146.999 63.2688C148.199 64.2025 149.533 64.7361 148.866 66.6034C142.866 63.1355 136.733 61.5349 129.666 66.3367C132.733 58.4671 141.399 59.9343 146.866 63.1355L146.999 63.2688Z" fill="#141414"/>
<path d="M163.267 133.428C162.733 133.562 162.066 132.895 162.733 132.628C162.733 132.895 163 133.161 163.133 133.428H163.267Z" fill="#141414"/>
<path d="M149.666 279.882C153.799 280.415 157.933 280.949 161.399 283.75C157.133 283.483 152.999 283.216 149.666 279.882Z" fill="#141414"/>
<path d="M157.666 296.955C155.133 299.756 152.066 301.623 148.199 302.024C150.599 298.822 153.933 297.489 157.666 296.955Z" fill="#141414"/>
<path d="M140.599 361.379C135.666 363.78 130.332 365.247 124.732 364.313C129.666 361.646 134.999 361.112 140.599 361.379Z" fill="#141414"/>
<path d="M99.5332 34.3242C100.2 34.3242 100.067 35.2579 99.5332 35.1245C99.5332 34.8578 99.6665 34.7244 99.7999 34.4576H99.6666L99.5332 34.3242Z" fill="#141414"/>
<path d="M185.799 99.4152C184.999 98.4815 185.399 97.4144 186.733 98.0813C186.466 98.4815 186.066 98.8816 185.799 99.4152Z" fill="white"/>
<path d="M138.466 114.354C137.399 112.486 136.332 111.153 134.466 109.952C134.066 111.153 134.199 112.22 134.599 113.287C127.399 115.954 119.932 114.754 112.466 115.421C119.399 118.355 128.866 119.289 134.866 113.687C135.666 115.287 137.266 116.488 139.132 116.355C138.866 115.554 138.599 114.887 138.333 114.22L138.466 114.354Z" fill="black"/>
<path d="M57.9332 447.944C32.1999 445.409 49.2665 426.336 39.1331 412.731C37.1331 410.063 33.3998 410.33 32.3332 406.728C25.5332 393.657 21.1331 379.518 17.1331 365.513C11.2665 347.507 6.99986 328.299 13.9332 310.026C25.5332 273.613 34.0665 236.265 44.9998 199.585C46.8665 190.248 54.9998 191.449 61.7998 187.981C76.1998 181.579 92.3332 179.444 107.4 174.509C108.866 165.573 116.467 160.904 121.533 153.835C118.067 152.635 114.467 153.301 111.933 151.301C109.8 153.035 112.866 153.835 111.8 155.702C105 157.836 97.6665 154.235 92.7332 149.567C91.1332 151.701 93.6665 152.901 93.3998 154.769C91.9332 156.636 90.1998 155.836 88.4665 154.769C70.5998 142.764 76.1998 116.621 77.7998 98.2144C81.6665 77.14 80.5999 54.9984 87.5332 34.5909C94.9999 12.7161 116.867 4.84655 138.333 8.58126C158.2 4.71317 174.733 10.582 187.933 26.0544C207.933 52.9977 222.867 111.819 211.667 143.965C208.333 152.101 199.933 154.502 191.933 153.035C188.333 155.035 184.867 152.901 181.267 153.168C177.4 155.436 173.533 151.301 170.066 153.835C175.533 160.637 177.4 172.108 186.333 175.176C199.533 181.045 222.6 181.712 231.933 191.716C246.067 193.183 259.133 281.616 264.867 298.955C269.267 320.03 273.4 341.104 277.667 362.179C285.933 395.924 298.6 428.336 307.133 462.082C303.666 465.55 298.6 466.217 294.2 468.751C301.8 481.023 318.467 483.423 326.067 496.228C328.733 499.696 331.533 503.297 330.2 508.233C329.933 509.166 330.733 510.367 331.133 511.3C332.733 515.702 334.733 520.104 331.933 524.905C331.266 526.639 332.733 529.974 330.867 531.174C328.733 532.375 329.133 534.109 329.266 535.976C330.066 539.177 326.866 540.645 324.6 538.244C316.333 532.642 311.933 520.37 302.2 517.836C301 521.171 301.533 526.239 296.867 527.306C294.333 527.973 292.333 526.373 291.267 524.505C274.333 503.431 271.933 501.83 267.8 474.487C263.133 474.754 261.8 471.953 260.466 468.084C257.266 458.481 253.4 449.144 250.2 439.541C239.533 404.594 234.867 366.98 222.867 332.834C219.8 346.306 222.6 362.312 223.4 376.451C227.4 412.731 232.067 449.011 239.667 484.757C242.867 494.628 237.4 493.427 230.466 497.829C250.6 561.986 239.533 630.811 255.533 695.368C267.667 737.384 279.267 779.666 285.4 823.149C287 839.688 296.2 854.094 279.933 866.232C288.467 879.17 303 967.469 269.533 943.86C249.933 927.188 242.066 902.378 244.466 877.169C214.866 868.899 219.267 872.767 214.333 843.69C190.067 730.715 171.4 616.006 145.933 503.431C142.467 609.07 139.133 714.842 142.2 820.615C141.4 834.353 145.8 848.225 145 861.563C145 867.699 147.533 874.101 144.2 880.103C139.133 889.84 138.466 901.045 133.8 910.648C110.6 909.581 115.533 916.517 115.8 894.242C97.1331 899.044 84.5998 918.251 63.7998 917.451C48.8665 917.451 32.0665 922.252 17.9332 917.451C19.5332 911.182 43.9332 899.577 50.7332 897.043C67.5332 891.708 76.0665 876.769 88.1999 866.232C82.7332 878.636 72.7332 886.372 62.7332 895.176C83.9332 892.241 101.533 876.369 119.4 866.365C54.4665 867.432 70.5998 859.696 68.3332 804.075C70.9998 706.706 64.4665 609.87 61.3998 512.501C56.8665 510.5 49.6665 513.168 50.4665 505.565C51.5331 485.824 55.5332 467.151 58.1999 447.41L57.9332 447.944ZM322.066 497.029C322.066 497.695 322.333 497.962 323 498.096C323.267 499.963 325.4 500.63 325.533 502.631C325.667 502.364 326.733 502.631 326.2 501.697C326.067 501.964 325.8 502.364 325.667 502.631C327.133 500.096 324.867 499.029 323.533 497.562C323.133 497.162 322.866 496.228 322.066 497.162C322.733 496.228 322.066 495.695 321.133 496.228C321.666 495.294 321 494.494 320.066 495.294C318.066 494.094 321.533 493.694 320.066 495.294C320.066 495.828 320.467 496.228 321 496.228C321 496.895 321.267 497.162 321.933 497.162L322.066 497.029ZM134.733 204.654C135 205.854 136.2 204.787 135.267 204.12C134.733 186.247 119.266 182.646 123.4 154.769C118.2 162.371 111.667 166.64 110.333 175.443C109.4 184.38 106.733 193.183 106.867 202.119C120.733 190.515 122.466 193.583 134.733 204.654ZM324.466 534.642C325.133 535.576 326.2 534.642 325.133 533.975C322.866 524.372 316.733 515.835 310.733 508.099C309.8 506.899 307.933 505.832 309.267 503.831C311.4 503.831 312.066 505.298 313.133 506.499C319.933 513.301 323 522.905 328.333 530.241C329.667 520.237 322.466 509.433 315.8 502.23C314.866 501.297 313 500.496 314.333 498.229C322.6 503.831 326.2 512.501 330.733 521.438C329 509.433 322.067 501.697 315 493.027C315.267 492.76 315.667 492.493 315.933 492.227C316.6 492.227 317.267 493.16 318.2 491.827C309.8 483.29 297.4 480.089 289.4 470.752C283.4 472.886 277.533 473.553 271.667 475.02C273.8 487.958 274.333 501.564 284.333 511.034C289.267 514.635 290.733 521.971 295.8 524.639C303.4 516.502 289 507.166 292.867 497.962C294.6 499.163 294.333 500.63 294.733 501.964C295.933 507.432 298.2 511.967 303.267 515.035C312.333 519.437 317.533 528.107 324.6 535.043L324.466 534.642ZM99.5332 34.3241H99.6665C105.667 24.0536 116.6 14.3167 129.4 16.1841C130.2 14.5835 132.333 13.2497 131.8 11.3823C102.866 5.51346 84.9998 32.5901 84.7332 58.5997C85.3998 83.4089 66.7331 134.895 89.1331 151.434C88.1998 145.965 87.2665 140.897 91.1331 136.228C92.5998 144.231 96.3332 154.368 106.333 153.168C105 149.833 103.933 146.899 105 142.631C110.2 147.566 115.133 152.234 122.6 150.1C122.6 148.233 123 146.499 122.2 144.898C94.3332 134.228 84.0665 77.6735 101.267 54.5983C107.133 44.8613 114.2 36.3249 123.267 29.2556C127.267 27.3882 126.466 22.0529 128.066 18.4516C117.8 16.851 108.6 25.5209 102.2 32.7235C101.533 33.5238 101.267 35.2578 99.5332 34.1907V34.3241ZM172.466 149.167C178.066 146.766 180.2 141.43 183.267 136.095C183.978 138.941 181.533 144.009 175.933 151.301C187.267 151.968 192.333 140.097 193 130.36C193 129.426 192.733 127.959 194.733 127.825C195.533 137.029 192.2 145.165 185.933 151.834C202.467 150.5 199 133.027 203.933 133.294C203.667 139.83 201 145.298 196.333 150.767C227.133 145.298 205.8 72.7383 198.867 52.8643C190.467 26.1878 163.666 1.64536 134.733 12.9829C115.666 40.7265 154.2 59.8002 170.466 76.6064C171 77.1399 171.533 77.8068 172.733 77.0066C171.266 68.8702 166.867 61.8009 163.933 54.0647C171.133 61.5342 174.333 71.8046 176.466 81.6749C177.933 81.6749 178.867 81.1414 179.667 80.2077C179.933 74.6057 178.6 69.0036 177.8 63.4015C181 68.3367 181.4 74.0721 182.066 79.5408C212.066 81.1414 201.533 122.49 176.466 113.82C178.2 125.958 177 137.296 172.066 147.966C171 148.5 171.4 149.7 172.733 148.9L172.466 149.167ZM163.267 133.427C153.667 145.298 141.4 155.969 125.8 158.503C125.8 169.041 127.667 178.911 133.933 187.581C140.867 195.851 137.666 205.321 141.4 215.191C143.933 205.854 139.8 193.983 149.267 189.048C162.6 183.179 165.933 167.04 166.2 153.968C164.6 152.901 162.333 153.168 161.933 151.034C163 149.7 165.133 150.767 166.066 149.033C165.266 141.43 166.467 132.894 169 129.959C169.667 134.361 168.733 138.496 169.4 142.631C174.066 132.227 173.8 121.023 173.933 109.685C204.867 123.824 203.933 69.5371 173.8 86.4767C167.533 76.473 158.2 70.4708 149.4 63.8017C139.4 54.1981 128.333 45.6616 125.933 30.3226C115.667 39.6594 107.267 49.3964 101.267 61.8009C106.333 60.8673 110.867 59.6668 113.933 64.602C112.733 65.669 111.933 65.0021 111.133 64.602C104.466 62.4678 99.2665 65.1355 97.3998 71.8046C91.6665 93.0125 98.9998 116.488 111.8 133.828C123.133 148.366 146.333 143.698 159.667 134.361C160.6 133.694 161.8 132.094 163.267 133.561V133.427ZM99.2665 179.978C87.1332 183.313 74.7332 185.847 62.8665 190.915C64.5999 200.919 65.6665 211.056 67.7998 221.46C69.6665 219.192 68.8665 216.258 71.1331 214.657C67.5331 246.669 61.1332 278.814 72.0665 310.693C81.1332 336.836 76.4665 364.313 73.2665 391.123C80.0665 390.189 86.3332 391.79 92.5999 392.723C94.4665 402.46 90.7332 411.93 88.9998 421.401C86.5998 430.871 72.5999 427.936 65.2665 426.469C62.0665 438.874 53.7999 501.697 54.5999 508.233C77.2665 509.967 109.266 515.835 108.466 483.157C109.266 432.605 115.4 380.852 107 330.7C98.8665 297.755 93.1332 264.142 85.3998 231.197C79.5332 198.918 67.5332 198.785 99.2665 179.978C98.9999 179.978 98.8665 179.978 99.1331 179.978C99.1331 179.978 99.1331 180.111 99.1331 180.245L99.2665 179.978ZM139.8 394.591C142.466 421.534 141.533 448.744 144.2 475.687C150.6 519.57 163.133 562.386 171 606.135C185.933 693.501 206.867 779.8 222.2 867.032C234.867 872.634 253.933 875.702 260.066 873.034C236.333 756.725 216.2 639.481 201.8 521.838C207.933 535.709 207.933 553.049 210.867 568.255C215.667 605.735 223.133 642.816 228.066 680.296C236.066 744.853 252.733 807.943 264.066 871.834C272.6 867.832 279.667 862.364 285.933 856.361C280.733 822.082 275.267 788.47 267 754.857C259.4 721.512 245.267 689.366 243.267 654.954C239.8 602.934 240.6 549.981 227.133 499.296C211.666 503.831 181.8 518.236 175.667 495.028C171.133 462.482 174.066 429.003 172.466 396.325C161.533 394.324 151 394.19 139.667 394.457L139.8 394.591ZM82.7332 514.635C86.3332 630.011 90.8665 745.654 85.6665 860.896C104.2 863.697 122.6 862.497 141 860.496C128.733 735.65 142.6 609.87 141.933 485.024C137 455.146 139.933 423.535 136.6 393.924C129.8 394.19 122.6 394.457 115.533 394.724C113 427.803 116.066 462.349 110.466 495.294C105.533 517.569 79.9332 512.367 62.9998 513.568C70.3332 612.538 73.3998 711.775 72.0665 811.011C72.0665 825.283 71.2665 839.422 72.0665 853.694C71.6665 861.03 78.8665 861.563 84.7332 861.163C82.7332 762.993 84.4665 664.824 81.1331 566.788C80.8665 551.449 80.9998 536.11 80.9998 520.771C80.9998 519.17 80.5999 517.303 82.5999 514.902L82.7332 514.635ZM201.4 188.915C206.733 191.582 207 196.251 205.8 201.453C197.666 264.409 175 326.032 177.267 389.789C177.267 424.602 175.533 460.082 180.2 494.494C185 514.235 223.667 495.428 235.933 490.893C231.267 467.818 227.266 445.009 224.066 421.801C210.066 425.669 192.466 431.271 191.8 410.597C190.466 401.393 191 400.726 200.2 398.992C207 397.658 213.8 396.325 220.733 394.857C213.933 353.375 220.867 312.16 221.933 270.545C222.2 252.538 223.8 234.531 225.667 216.658C225 208.388 232.867 192.916 221.933 189.982C213.8 187.047 205.267 185.313 197 182.646C195.267 182.112 197.8 186.914 201.267 188.915H201.4ZM232.066 194.25C228.6 234.131 224.6 273.346 222.6 313.227C221.267 320.43 223.8 326.832 226.2 333.368C241.133 378.985 246.733 426.602 264.867 471.152C278.067 470.752 290.333 467.151 302.2 461.282C295.267 432.738 285.8 405.528 277.267 377.518C265.933 331.901 258.867 285.217 246.867 239.6C242.067 224.261 241.533 207.588 232.066 194.117V194.25ZM34.1999 403.927C42.0665 394.19 53.5331 391.123 63.7998 386.721C60.9998 370.048 55.3999 353.776 51.9332 337.236C50.5999 332.034 48.4665 326.699 51.3998 321.63C42.1998 315.895 33.6665 318.429 25.1331 323.098C32.1998 313.761 42.4665 313.894 52.5999 317.495C51.3999 309.226 38.9999 311.36 39.9332 306.691C44.5999 305.758 47.6665 306.691 53.9332 311.493C57.6665 305.891 59.6665 298.822 62.8665 292.82C63.5332 291.352 63.2665 290.152 63.1331 288.685C61.1331 274.413 61.6665 260.274 63.3998 246.136C67.2665 227.996 60.5998 210.523 60.4665 192.249C44.4665 192.649 46.4665 212.657 41.7998 223.727C34.1998 251.071 27.5331 278.814 19.1331 306.025C17.9331 310.026 16.7332 313.894 16.9998 318.029C15.2665 324.965 12.9998 331.634 14.7332 338.97C19.2665 361.378 23.6665 383.386 34.0665 404.194L34.1999 403.927ZM172.6 378.185C173.533 366.047 171.666 213.724 170.466 207.321C168.6 213.19 166.466 220.393 161.4 212.123C156.733 207.321 153.533 199.052 147.8 195.984C146.066 196.651 146.6 198.251 146.466 199.585C145.4 210.789 144.467 221.994 143 233.064C140.333 241.334 150.6 242.534 147 249.604C138.067 262.008 141.533 260.674 145.933 274.146C151.133 271.612 158.333 266.277 163.133 267.077C157.666 270.945 151.933 274.279 145.4 275.347C146.2 300.422 147 326.165 144.466 351.508C144.2 354.576 144.467 356.843 147.267 358.844C150.733 360.845 148.333 364.179 145.8 366.047C142.333 368.581 143.933 372.983 143.533 376.851C153.267 377.117 162.866 376.851 172.466 378.185H172.6ZM144.6 245.869C133.133 238.266 145.133 225.461 136.466 212.923C134.2 207.722 125.133 196.918 119 198.118C115.667 258.14 114.6 318.429 115 378.851C124.067 377.918 132.733 377.117 141.533 377.251C141.533 368.448 140.333 368.047 146.066 361.378C143.133 359.778 141.533 357.377 141.267 354.576C135.267 354.576 129.933 353.375 124.733 351.108C130.6 349.507 136.066 351.641 141.8 353.242C143.533 335.369 144.333 317.495 143.133 299.355C140.066 298.555 137.667 296.421 134.2 296.688C134.467 300.156 138.467 300.956 139 303.89C138.2 305.758 135.8 305.891 135.533 307.892C137.133 310.293 140.2 309.226 142.333 310.56C135.4 314.828 129.133 308.959 135 303.224C125.667 292.553 134.2 291.486 143.133 297.355C142.333 291.352 144.6 286.017 142.466 280.548C142.466 274.813 142.466 269.344 139.133 264.142C135 256.94 143.266 253.072 144.466 246.002L144.6 245.869ZM111 330.967C111.4 286.951 112.333 243.068 116.6 199.318C111.667 201.319 108.866 205.854 103.4 208.255C102.866 197.718 105.533 188.381 106.2 178.377C98.3332 184.246 91.6665 189.181 83.7998 194.517C80.5998 196.517 81.7999 200.119 82.1999 203.053C92.9999 245.202 98.9998 289.485 110.733 330.834L111 330.967ZM176.733 333.768C177 333.768 177.133 333.768 177.4 333.768C185.666 288.418 196.333 243.601 202.733 197.985C203.4 190.248 186.2 184.78 180.733 179.178C178.866 187.314 174.067 193.716 173.533 201.586C176.2 245.469 176.733 289.618 176.733 333.635V333.768ZM277.133 868.766C268.066 875.702 257.8 880.104 246.466 877.969C248.2 895.176 244.867 901.845 259.933 913.182C275.133 926.387 285.267 904.913 283.533 891.441C282.733 883.838 279.666 876.502 277.133 868.766ZM68.7332 390.456C74.5998 358.711 76.3332 327.499 63.9332 297.355C61.2665 307.892 52.1998 318.029 54.0665 329.1C57.7998 347.373 62.8665 365.38 67.1331 383.386C70.0665 390.856 61.7998 388.989 64.9998 392.723C66.3332 391.923 67.5332 391.123 68.5999 390.456H68.7332ZM64.5999 422.601C71.6665 424.868 84.8665 427.803 87.1331 418.599C89.3998 410.863 91.9332 402.994 90.5999 394.724C83.3999 395.391 71.7998 390.589 69.3998 400.193C67.5332 407.796 64.1998 414.598 64.4665 422.601H64.5999ZM115.133 392.723C134.733 390.189 153.8 392.323 173.133 391.79C173.133 388.455 173.4 385.387 172.867 382.053C153.533 379.919 134.333 381.519 115.133 381.119V392.723ZM149.4 191.716C155.4 197.985 159.667 204.921 165.267 211.456C167.933 199.985 182.2 179.845 175.4 169.974C172.466 167.04 172.2 161.438 168.733 159.437C167 172.775 164.066 185.447 149.4 191.716ZM194.6 403.394C193.4 428.203 205.4 424.602 223.933 418.866C223 411.53 222.6 404.461 221.133 397.392C212.6 400.193 203.8 400.993 194.6 403.527V403.394ZM55.7998 406.595C46.3331 410.33 52.5999 432.205 61.5332 429.804C61.9332 428.737 62.3332 427.669 62.5999 426.602C57.6665 420.867 55.1332 414.465 55.6665 406.728L55.7998 406.595ZM47.1331 417.399C43.7998 423.401 50.5999 443.009 59.5332 438.474C59.5332 437.14 60.5998 435.806 59.7998 433.938C50.3331 432.738 49.7999 424.468 47.2665 417.399H47.1331ZM44.4665 416.332C45.9331 415.532 46.9998 414.865 47.1331 413.398C49.1331 404.594 59.3999 403.26 62.8665 395.124C53.5332 397.925 50.7332 407.395 41.5332 410.063C42.1999 412.464 43.2665 414.198 44.4665 416.332ZM59.7998 392.59C52.5998 394.19 46.0665 396.725 40.4665 401.66C41.3998 403.394 42.3332 404.728 43.6665 406.062C49.3998 401.66 53.7998 396.325 59.7998 392.59ZM66.0665 398.592C58.8665 404.328 56.4665 411.13 61.3998 417.399C62.9998 411.13 64.4665 404.861 66.0665 398.592ZM44.9998 431.938C45.2665 441.941 51.9332 447.277 58.3332 443.275C51.5332 441.808 50.7332 441.275 44.9998 431.938ZM302.066 517.303L301.8 517.036C301.666 517.436 301.266 517.703 301.8 517.97C301.8 517.836 302.066 517.569 302.066 517.436V517.303ZM172.466 78.8739C172.733 78.6072 172.733 78.4738 172.466 78.207C172.466 78.3404 172.333 78.4738 172.2 78.6071C172.2 78.6071 172.333 78.6071 172.466 78.7405V78.8739ZM318.867 492.493C318.733 492.493 318.467 492.76 318.333 492.76C318.6 493.16 318.866 492.894 319.133 492.76C319.133 492.76 319 492.627 318.867 492.493Z" fill="#141414"/>
</svg>
