<svg width="300" height="335" viewBox="0 0 300 335" fill="none" xmlns="http://www.w3.org/2000/svg">
<g clip-path="url(#clip0_2560_124448)">
<path d="M298.677 148.911C298.677 230.116 232.108 295.863 149.889 295.863C128.067 295.863 107.127 291.291 88.3903 282.801C78.0303 278.011 68.1111 272.351 59.0736 265.384C56.8694 263.643 54.6651 261.901 52.6813 260.159C39.8966 249.274 29.0957 236.429 20.7195 222.061C8.37563 200.508 1.10156 175.471 1.10156 148.911C1.10156 67.7064 67.6703 1.95898 149.889 1.95898C212.049 1.95898 265.172 39.4046 287.435 92.7427C294.709 109.942 298.677 129.1 298.677 148.911Z" fill="url(#paint0_linear_2560_124448)"/>
<path d="M271.344 88.3901C271.123 95.7921 271.123 103.412 270.682 111.032C270.462 119.087 270.021 127.142 269.58 135.415C269.139 142.817 268.919 150.219 268.478 157.621C268.258 165.458 267.817 173.296 267.376 181.351C266.935 189.406 266.715 197.461 266.274 205.516C265.833 213.572 265.392 221.409 265.172 229.464C265.172 231.423 264.951 233.165 264.951 235.125C264.951 239.261 264.51 243.18 264.29 247.316C263.188 248.84 261.865 250.364 260.322 251.888C260.322 251.453 260.322 250.799 260.543 250.364C260.543 249.711 260.763 248.84 260.763 247.969C260.763 246.445 261.645 244.704 261.204 242.744C259.441 244.921 257.898 247.098 256.355 249.058C255.693 249.711 255.252 250.364 254.591 250.799C253.93 251.235 253.93 250.799 253.709 250.146C255.032 248.405 256.134 246.445 257.236 244.486H257.457C257.457 244.486 258.338 242.962 258.779 242.091C261.865 239.261 262.306 235.778 262.086 231.859C260.543 233.165 259.44 234.689 258.559 236.213C255.473 239.696 252.607 243.397 249.521 246.881C247.537 249.275 245.333 251.453 242.909 253.63C242.909 253.194 242.468 252.976 242.909 252.541C243.349 251.888 243.79 251.235 244.231 250.799C250.183 243.397 255.693 235.778 261.645 228.593C262.086 227.94 262.306 227.505 262.306 226.852C262.526 222.28 262.747 217.926 262.967 213.354C263.408 205.081 263.849 197.026 264.29 188.753C264.51 187.882 264.29 187.011 264.29 185.923C263.188 187.447 262.086 188.535 260.983 189.841C260.983 190.277 260.322 190.93 259.661 190.059C260.543 188.318 261.424 186.576 262.526 184.834C264.51 182.439 265.392 179.827 264.731 176.344C263.629 177.65 262.526 178.738 261.865 180.262C259.44 182.439 257.898 185.052 255.693 187.229C255.252 187.664 254.812 188.318 254.371 188.753C253.93 189.188 253.709 188.971 253.269 188.753C253.489 187.882 253.93 187.229 254.591 186.576C257.457 182.222 260.763 178.085 264.069 174.167C264.731 173.296 265.392 172.643 265.392 171.554C265.612 165.676 265.833 159.58 266.274 153.484C266.715 144.994 267.155 136.286 267.596 127.795C267.596 127.577 267.596 127.142 267.155 127.142C266.715 127.577 266.274 128.23 265.833 128.884C264.069 131.714 262.086 134.544 260.102 137.156C259.661 137.592 259.22 138.68 258.338 138.245C259.881 134.326 262.306 131.061 264.51 127.36C264.731 126.706 265.392 126.271 265.392 125.618C268.478 122.57 268.037 119.087 267.596 115.386C266.715 116.91 265.833 118.216 264.731 119.74C260.983 124.529 257.677 129.537 254.15 134.326C249.742 140.204 245.554 145.865 241.366 151.743C240.925 152.396 240.704 153.049 239.602 153.484C239.161 152.614 240.263 151.96 240.263 151.307C241.586 148.913 243.129 146.736 244.672 144.341C251.946 133.455 259.881 123.005 267.376 112.338C268.037 111.467 268.478 110.596 268.478 109.29C268.698 103.412 269.139 97.5338 269.58 91.6557C269.58 90.1317 269.801 88.8255 270.021 87.3016C270.021 86.6484 270.241 86.6484 270.903 86.6484C271.344 87.0839 271.123 87.737 271.344 88.3901Z" fill="#1D1D1F"/>
<path d="M241.586 204.645C240.264 204.645 238.721 204.862 237.398 205.515C234.312 206.822 232.329 209.652 232.769 213.353C232.99 214.877 232.769 214.877 231.447 215.094C225.936 215.748 220.426 215.965 214.915 215.748C209.845 215.748 204.555 214.877 199.485 214.659C194.856 214.659 193.974 215.53 194.195 219.884C194.195 223.15 194.636 223.585 197.722 224.674C199.706 225.109 201.689 225.544 203.894 225.327C214.033 225.109 223.952 225.109 234.092 224.891C237.178 224.891 240.264 224.456 243.35 223.585C244.011 222.714 245.113 222.061 245.554 220.973C245.554 220.537 246.215 220.537 246.656 220.319C251.065 219.449 253.049 215.965 251.726 211.829C250.183 207.039 247.097 204.862 241.586 204.645ZM239.162 216.183C239.162 216.183 239.823 216.183 240.264 216.618C240.705 216.401 241.146 216.401 241.586 216.401H242.909C242.909 216.401 244.232 215.965 244.232 217.272C244.232 220.537 243.129 221.843 239.603 222.279C237.839 222.496 235.855 222.714 233.872 222.714C225.055 222.714 216.017 223.15 206.98 223.367C203.894 223.367 200.587 223.367 197.501 222.279C197.06 222.279 196.84 222.279 196.62 222.279C196.399 221.843 196.179 221.626 196.179 221.19C195.517 217.925 196.399 216.836 199.926 216.836C204.334 216.836 208.963 217.489 213.372 217.707C220.426 217.925 227.259 217.707 234.092 216.836C235.855 216.618 237.178 215.965 237.619 214.224C237.839 213.353 238.28 212.917 238.721 212.264C240.043 211.393 241.366 210.523 242.909 211.176C244.452 211.611 244.232 213.135 244.672 214.441C242.909 214.441 241.366 214.006 239.823 214.224C238.501 214.659 238.28 214.877 239.162 216.401V216.183ZM246.215 218.142C246.215 218.142 245.995 216.183 246.436 215.094C246.656 214.659 246.656 214.006 246.656 213.353C246.436 210.305 244.452 208.563 241.366 208.999C238.941 209.216 237.178 210.523 236.076 212.7C236.076 213.135 236.076 213.788 235.194 214.224C234.312 210.958 235.194 208.999 238.06 207.692C241.807 205.951 247.538 206.386 249.522 212.264C250.404 215.53 249.522 217.054 246.215 218.142Z" fill="#1D1D1F"/>
<path d="M197.721 224.674C199.705 225.11 201.689 225.545 203.893 225.545C214.033 225.11 223.952 225.11 234.092 224.892C237.177 224.892 240.263 224.457 243.349 223.586C245.113 226.198 244.672 227.94 241.586 229.029C238.941 229.899 236.075 230.117 233.21 230.117C223.731 230.553 214.253 230.77 204.775 230.77C203.232 230.77 201.468 230.77 199.925 230.335C197.721 229.899 197.06 229.029 197.28 226.852C197.28 226.198 197.942 225.545 197.721 224.674Z" fill="#636363"/>
<path d="M259.661 190.058C259.661 190.058 260.763 190.276 260.984 190.058C262.086 188.752 262.967 187.664 264.29 185.922C264.29 187.01 264.29 187.881 264.29 188.97C263.849 197.243 263.408 205.298 262.967 213.571C262.747 218.142 262.527 222.714 262.306 227.286C262.306 227.939 262.086 228.375 261.645 228.81C255.693 235.994 250.183 243.614 244.231 251.016C243.79 251.669 243.35 252.322 242.909 252.758C242.468 253.193 242.688 253.629 242.909 254.064C241.145 254.5 240.484 256.023 239.602 257.112C239.161 257.547 238.721 258.418 238.28 258.854C237.618 258.854 237.618 257.983 237.839 257.547C237.839 256.459 238.28 255.153 238.941 254.282C242.027 249.71 245.113 245.138 248.86 241.002C252.167 237.083 255.253 233.164 258.118 228.81C259.22 227.068 259.881 225.109 259.881 222.932C259.881 218.36 260.322 214.006 260.543 209.434C260.543 206.604 261.204 203.774 260.984 201.161C260.984 198.331 261.865 195.501 261.424 192.453C259.441 193.977 258.118 195.936 256.355 197.678C255.914 198.113 255.253 199.202 254.591 198.767C253.71 198.113 254.591 197.243 254.812 196.59C255.914 194.412 257.236 192.671 258.779 190.711C259 190.494 259.22 190.276 259.661 190.276V190.058Z" fill="#F8F8F8"/>
<path d="M270.683 86.6483C270.683 86.6483 269.801 86.6483 269.801 87.3014C269.801 88.8254 269.361 90.1316 269.361 91.6555C268.92 97.5336 268.699 103.412 268.259 109.29C268.259 110.378 267.818 111.467 267.156 112.338C259.662 123.005 251.727 133.455 244.452 144.341C242.91 146.518 241.367 148.912 240.044 151.307C239.383 151.089 239.162 151.307 238.721 151.743C238.06 152.396 237.399 153.049 236.738 153.702C235.856 153.049 236.297 152.613 236.738 151.96C237.84 149.13 239.603 146.735 241.146 144.123C246.436 135.632 252.388 127.577 258.339 119.522C260.323 116.692 262.748 114.079 264.952 111.467C265.393 111.031 265.834 110.596 265.834 109.725C265.834 108.637 266.275 107.33 266.275 106.242C266.275 102.105 266.936 97.969 267.377 93.8326C267.597 90.567 268.259 87.5191 268.699 84.2535C268.699 83.6004 269.14 82.9473 270.022 82.9473C270.904 82.9473 270.904 83.8181 270.904 84.4712C270.904 85.1243 270.904 85.7775 270.904 86.4306L270.683 86.6483Z" fill="#F8F8F8"/>
<path d="M258.118 138.245C258.118 138.245 259.441 137.809 259.882 137.374C262.086 134.761 263.849 131.931 265.833 129.101C266.274 128.448 266.715 128.012 266.935 127.359C267.597 127.359 267.376 127.795 267.376 128.013C266.935 136.503 266.494 145.211 266.054 153.702C265.833 159.798 265.392 165.676 265.172 171.772C265.172 172.86 264.511 173.513 263.849 174.166C260.543 178.085 257.237 182.221 254.151 186.576C253.71 187.229 253.049 187.882 252.828 188.753C251.946 188.753 251.506 189.406 251.065 190.059C250.403 191.147 249.522 192.018 248.42 192.671C247.758 191.801 248.199 191.147 248.42 190.494C249.742 187.882 251.506 185.487 253.269 183.092C256.134 179.391 258.78 175.473 262.086 171.989C262.306 171.772 262.747 171.336 262.747 170.901C262.747 170.03 263.188 169.159 263.188 168.288C263.188 160.886 263.629 153.484 263.849 146.082C263.849 142.599 263.849 138.898 264.511 135.415C263.849 135.197 263.849 135.85 263.629 136.068C261.645 139.116 259.22 141.728 257.237 144.776C257.237 144.994 256.796 145.211 256.575 145.429C256.355 145.647 256.134 146.082 255.694 145.864C255.253 145.647 255.253 144.994 255.473 144.776C255.694 143.47 256.575 142.381 257.237 141.293C257.677 140.422 258.339 139.769 258.118 138.68V138.245Z" fill="#F8F8F8"/>
<path d="M260.763 247.969C260.763 247.969 260.542 249.711 260.542 250.364C260.322 250.799 260.322 251.452 260.322 251.888C259.66 252.759 258.999 253.412 258.338 253.847V248.84H257.677C256.354 250.799 254.37 252.323 253.048 254.283C252.607 254.936 251.945 255.589 251.284 255.807C250.623 256.024 249.962 255.807 250.403 255.371C251.284 253.412 251.725 251.235 253.709 250.146C253.709 250.582 253.709 251.235 254.591 250.799C255.252 250.364 255.693 249.711 256.354 249.058C257.897 247.098 259.44 244.921 261.203 242.744C261.644 244.704 260.983 246.445 260.763 247.969Z" fill="#F4F3F4"/>
<path d="M241.586 204.645C240.043 204.645 238.721 205.08 237.178 205.734C234.092 207.04 232.108 209.87 232.549 213.571C232.549 215.095 232.549 215.095 231.226 215.313C231.006 213.136 230.786 210.741 231.667 208.564C232.99 204.645 235.635 203.557 240.044 203.121C241.146 203.121 241.807 203.557 241.586 204.863V204.645Z" fill="#F8F8F8"/>
<path d="M258.338 236.212C259.22 234.688 260.322 233.164 261.865 231.857C262.085 235.776 261.865 239.259 258.558 242.09C258.558 240.13 258.558 238.171 258.338 236.212Z" fill="#F4F3F4"/>
<path d="M264.73 119.958C265.612 118.434 266.714 117.127 267.596 115.604C267.816 119.305 268.257 122.788 265.392 125.618C264.951 124.747 264.951 123.659 264.951 122.57C264.951 121.699 264.951 120.611 264.73 119.74V119.958Z" fill="#F4F3F4"/>
<path d="M261.645 180.479C262.306 178.955 263.628 177.867 264.731 176.561C265.392 180.044 264.51 182.656 262.306 185.051C261.204 183.963 261.865 182.874 261.865 181.568C261.865 181.132 262.085 180.697 261.645 180.479Z" fill="#F4F3F4"/>
<path d="M186.48 83.8172C187.802 83.3817 188.243 84.2526 188.464 85.7765C189.566 83.5995 191.109 83.8172 192.652 84.0349C202.791 84.4703 213.151 84.4703 223.291 84.688C224.393 84.688 225.275 84.688 226.377 84.9057C226.377 85.3411 226.377 85.3411 226.377 85.5588C225.495 87.0828 224.173 87.3005 222.409 87.0828C220.426 86.8651 218.662 87.0828 216.678 86.8651C206.98 86.4296 197.501 86.2119 187.802 85.7765C187.141 85.7765 186.7 85.7765 186.039 85.5588C186.48 85.5588 186.7 85.5588 187.141 85.5588C187.362 85.5588 187.802 85.5588 187.802 85.1234C187.802 84.688 187.802 84.4703 187.141 84.4703C187.141 84.4703 186.7 84.4703 186.48 84.2526V83.8172Z" fill="#ECDB27"/>
<path d="M195.959 117.779C201.469 117.779 206.539 117.997 211.829 118.432C214.474 118.432 217.12 118.432 219.544 118.868C221.308 118.868 222.41 119.739 223.292 121.263C220.426 121.263 217.56 121.263 214.695 121.263C209.405 121.263 204.335 120.827 199.045 120.609C197.281 120.609 196.179 119.956 195.738 117.997L195.959 117.779Z" fill="#ECDB27"/>
<path d="M226.377 120.393C225.275 119.304 224.614 118.434 223.732 117.563C223.291 117.127 223.291 116.692 223.291 116.257C223.291 113.862 223.511 111.467 223.732 109.29C223.952 106.46 223.952 106.46 227.038 105.807C226.818 110.596 226.597 115.386 226.157 120.611L226.377 120.393Z" fill="#ECDB27"/>
<path d="M228.361 86.8652C228.361 86.8652 228.361 87.9538 228.361 88.3892C228.801 91.2194 227.038 92.5256 225.054 93.8319C224.393 89.6954 225.054 88.6069 228.581 87.0829L228.361 86.8652Z" fill="#ECDB27"/>
<path d="M187.802 119.522C185.378 119.739 183.394 119.522 181.19 119.304C180.308 119.304 180.528 118.651 180.528 118.215C180.528 117.78 180.528 117.127 181.19 117.127C182.733 117.127 184.496 117.127 186.039 117.127C187.141 117.127 187.141 118.651 187.802 119.304V119.522Z" fill="#ECDB27"/>
<path d="M182.952 85.1233C180.527 85.1233 178.103 85.1233 175.678 85.1233C175.237 85.1233 174.355 85.341 174.355 84.4702C174.355 83.5994 175.017 83.1639 175.898 83.3817C177.441 83.3817 178.764 83.3817 180.307 83.5994C180.968 83.5994 181.189 84.0348 181.409 84.4702C181.63 85.1233 182.291 85.341 182.732 84.4702C182.732 84.6879 182.732 84.9056 182.952 85.1233Z" fill="#DCCD30"/>
<path d="M227.479 99.4922C227.699 102.105 227.479 104.064 224.393 104.499C224.099 102.322 225.127 100.653 227.479 99.4922Z" fill="#ECDB27"/>
<path d="M194.856 119.957C193.754 119.957 192.431 119.957 191.329 119.957C190.154 119.957 189.419 119.232 189.125 117.78C190.668 117.563 192.211 117.78 193.754 117.78C194.195 117.78 194.415 117.78 194.195 118.433C194.195 119.087 194.856 119.522 194.856 120.393V119.957Z" fill="#ECDB27"/>
<path d="M227.699 94.7031C227.699 94.7031 227.699 96.2271 227.699 96.8802C227.699 97.5333 227.699 98.1864 226.597 97.751C225.936 97.751 225.495 98.6218 224.613 98.8396C224.172 96.2271 224.393 96.0094 227.699 94.7031Z" fill="#ECDB27"/>
<path d="M182.953 85.1245C182.953 85.1245 182.953 84.6891 182.732 84.4714C182.732 84.4714 182.732 84.0359 182.732 83.8182C182.732 83.8182 182.953 83.6005 183.173 83.3828C184.275 83.3828 185.378 83.3828 186.259 83.3828C186.259 83.3828 186.7 83.3828 186.921 83.6005C187.361 83.6005 187.582 83.8182 187.582 84.2536C187.582 84.4713 187.361 84.6891 186.921 84.6891C186.48 84.6891 186.259 84.6891 185.818 84.6891C184.716 84.6891 183.835 84.6891 182.732 84.6891L182.953 85.1245Z" fill="#F8E628"/>
<path d="M183.394 83.5996C183.394 83.5996 183.174 83.8173 182.953 84.035C182.953 83.8173 182.953 83.5996 183.394 83.5996Z" fill="#ECDB27"/>
<path d="M242.689 216.618C242.689 216.618 244.011 216.183 244.011 217.271C244.011 220.537 242.909 221.843 239.382 222.278C237.399 222.496 235.415 222.714 233.651 222.714C224.614 222.714 215.797 222.932 206.759 223.367C203.453 223.367 200.147 223.367 197.061 222.278C197.061 221.625 197.501 221.19 197.722 220.537C198.163 218.36 198.383 218.795 200.147 218.795C203.012 218.795 205.878 218.795 208.523 218.795C215.356 218.795 221.969 219.448 228.802 219.448C231.227 219.448 233.651 219.448 236.076 218.795C237.399 218.577 238.501 217.924 238.721 216.4C239.162 216.4 239.603 216.4 239.823 216.836C240.705 216.4 241.587 216.836 242.468 216.836L242.689 216.618Z" fill="#F8E628"/>
<path d="M238.941 216.183C238.721 217.707 237.619 218.142 236.296 218.577C233.871 219.013 231.447 219.23 229.022 219.23C222.189 219.23 215.576 218.36 208.743 218.577C205.877 218.577 203.012 218.577 200.367 218.577C198.603 218.577 198.383 218.36 197.942 220.319C197.942 220.972 197.501 221.408 197.281 222.061C197.06 222.061 196.619 222.061 196.399 221.843C196.399 221.625 195.958 221.19 195.958 220.754C195.297 217.271 195.958 216.183 199.705 216.4C204.334 216.4 208.743 217.053 213.372 217.271C220.205 217.489 227.038 217.271 233.871 216.4C235.635 216.4 236.957 215.529 237.398 213.788C237.398 213.135 238.059 212.482 238.721 212.046C239.823 210.958 241.366 210.304 242.909 210.74C244.452 211.175 244.231 212.699 244.672 214.005C243.129 214.005 241.586 213.57 240.043 214.005C238.5 214.441 238.5 214.659 239.162 216.183H238.941Z" fill="#F4F3F4"/>
<path d="M235.193 214.224C234.311 211.176 235.193 209.217 238.058 207.693C241.806 205.951 247.537 206.387 249.3 212.265C250.182 215.313 249.3 217.055 245.994 218.143C245.773 217.055 245.994 216.184 245.994 215.095C245.994 214.442 246.214 214.007 246.214 213.353C246.214 210.306 244.01 208.346 240.924 208.782C238.499 209.217 236.736 210.523 235.634 212.483C235.413 212.918 235.634 213.571 234.752 214.007L235.193 214.224Z" fill="#ECDB27"/>
<path d="M195.297 99.2742C194.636 97.9679 193.534 97.0971 192.432 96.0086C190.448 94.2669 187.582 94.7023 185.819 97.0971C185.158 98.4034 184.717 99.7096 184.717 101.451V102.322C185.158 105.37 187.582 107.329 190.227 107.329C194.195 107.329 196.84 102.975 195.297 99.2742ZM190.227 105.37C188.905 105.588 187.582 104.064 187.141 102.322V101.016C187.141 99.7096 187.362 98.6211 187.803 97.7502C188.905 96.444 190.227 96.444 191.33 97.5325C191.991 98.1857 192.432 98.8388 192.873 99.4919C193.313 100.145 193.313 101.016 193.313 101.669C193.313 103.411 191.77 105.37 190.227 105.37Z" fill="#1D1D1F"/>
<path d="M178.986 96.6615C178.986 99.7094 178.986 102.757 178.986 105.587C178.986 106.241 178.986 106.676 178.986 107.329C178.986 107.765 178.545 107.982 178.324 107.982C177.883 107.982 177.443 107.765 177.222 107.329C176.781 106.676 177.002 105.805 177.002 105.152C177.002 102.54 177.002 99.9271 177.002 97.3146C177.002 96.4437 176.781 96.226 175.9 96.226C175.238 96.226 174.357 96.226 173.695 96.226C173.034 96.226 172.152 96.226 172.152 95.3552C172.152 94.4844 173.034 94.4844 173.695 94.2667C175.459 94.049 177.222 94.2667 178.986 94.2667C180.088 94.2667 181.41 94.2667 182.512 94.7021C182.953 94.7021 183.394 95.1375 183.394 95.5729C183.394 96.226 182.733 96.226 182.292 96.226C181.41 96.226 180.308 96.226 179.206 96.226L178.986 96.6615Z" fill="#1D1D1F"/>
<path d="M205.436 96.6625C204.334 95.5739 203.012 94.9208 201.469 94.7031C199.485 94.2677 198.824 94.7031 198.824 96.6625C199.044 99.4927 198.824 102.105 198.383 104.935V106.242C198.383 106.242 198.603 106.895 199.044 106.895C199.485 107.112 199.926 106.895 200.146 106.459C200.146 105.806 200.146 105.153 200.146 104.5C200.367 103.411 200.367 102.323 200.367 101.017C202.13 101.234 203.453 101.234 204.775 100.581C206.318 99.4927 206.539 97.9687 205.216 96.6625H205.436ZM203.453 99.275C203.453 99.275 203.012 99.4927 202.791 99.4927C200.807 99.9281 200.587 99.9281 200.587 97.9687C200.587 97.3156 200.587 96.8802 201.028 96.4448C201.91 96.4448 202.791 96.8802 203.673 97.5333C204.775 98.1864 204.555 98.8395 203.453 99.275Z" fill="#242426"/>
<path d="M201.468 115.603C201.027 114.296 201.909 113.861 202.35 113.426C205.215 110.378 208.521 107.765 211.828 104.935C212.048 104.717 212.489 104.5 212.71 104.935C213.15 105.37 212.71 105.806 212.71 106.024C210.505 108.201 208.081 110.16 205.876 112.337C204.554 113.426 203.452 114.949 201.688 115.82L201.468 115.603Z" fill="#242426"/>
<path d="M186.92 101.235C186.92 99.9285 187.14 98.84 187.802 97.9691C188.904 96.6629 190.226 96.4452 191.328 97.9691C191.769 98.6223 192.21 99.2754 192.871 99.9285C193.312 100.582 193.533 101.235 193.312 102.106C193.312 103.847 191.769 105.807 190.226 105.807C188.904 105.807 187.581 104.5 187.14 102.541C187.14 102.106 187.14 101.452 187.14 101.235H186.92Z" fill="#F8F8F8"/>
<path d="M249.742 39.4054C212.05 4.79006 156.061 -8.70776 106.465 5.44318C85.7453 11.3213 67.0091 22.2066 51.1384 36.5753C52.9018 37.2284 54.4448 37.8815 56.2082 38.5346C56.2082 38.5346 56.4286 38.5346 56.4286 38.7523C57.3104 38.97 57.7512 39.6232 57.5308 40.7117C57.3104 45.2835 57.0899 49.6377 56.8695 54.2095C56.6491 55.7335 56.6491 57.0397 56.6491 58.5636C58.1921 58.7813 58.6329 59.6522 58.8533 60.7407C59.5146 62.4824 59.5146 64.224 59.5146 65.9657C59.5146 75.1094 59.0738 84.4708 57.9716 93.3967C57.7512 94.9207 57.5308 96.0092 56.2082 96.88C57.0899 99.2748 57.5308 101.887 57.5308 104.717C57.5308 107.112 57.7512 109.725 57.5308 112.337C57.0899 116.256 57.3104 120.392 57.0899 124.311C56.6491 128.012 57.0899 131.931 56.6491 135.632C56.2082 139.115 56.4286 142.598 55.7674 145.864V146.735C55.9878 151.089 55.5469 155.661 55.1061 160.233C54.8857 164.151 55.1061 168.07 54.6652 171.989C54.2244 174.819 54.2244 177.867 54.004 180.697C53.7835 183.745 53.3427 186.575 53.3427 189.623C53.1223 192.671 52.6814 195.501 52.6814 198.767C53.3427 197.896 54.004 197.461 54.4448 196.807C57.7512 192.453 61.278 187.881 65.0253 183.745C66.3478 182.221 67.8908 181.133 69.2134 179.609C69.6542 179.173 70.3155 178.738 70.9768 179.391C71.6381 179.826 71.4176 180.479 70.9768 181.133C70.7564 181.568 70.0951 182.221 69.8746 182.657C69.4338 183.092 68.7725 183.527 68.7725 184.18C69.4338 184.616 69.2134 185.051 68.7725 185.487C67.6704 187.228 66.5683 188.752 65.4661 190.276C61.0576 196.59 56.8695 203.121 51.5793 208.564C49.1546 211.394 47.6116 214.006 48.0525 217.707C48.2729 218.796 47.832 219.884 47.832 221.191C47.832 221.626 47.832 222.061 48.2729 222.279C48.9342 222.279 49.1546 221.844 49.375 221.626C50.0363 220.755 50.6976 220.102 51.3588 219.231C56.2082 213.789 61.278 208.346 66.3478 203.121C66.7887 202.686 67.2295 201.815 68.1112 202.468C69.6542 202.903 69.8746 202.903 69.2134 204.209C68.3317 205.951 67.0091 207.257 65.907 208.999C63.2619 212.482 60.8372 215.966 58.1921 219.449C56.4287 221.844 54.6652 224.021 52.6814 226.198C51.1384 227.722 50.918 228.157 52.0201 229.899C54.004 233.382 53.5631 237.083 53.3427 240.784C53.3427 241.655 53.1223 242.526 53.1223 243.614C53.3427 247.533 52.6814 251.234 52.6814 255.153C52.6814 255.588 52.461 256.241 52.2406 256.677C52.2406 257.765 51.7997 258.636 51.5793 259.507C51.5793 260.16 50.918 260.813 50.2567 261.031C50.0363 261.031 49.8159 261.249 49.5954 261.466C66.1274 276.706 86.1862 288.462 108.229 294.558C157.163 308.056 212.49 295.429 250.404 261.684C253.269 259.289 255.914 256.677 258.339 253.847V248.839H257.678C256.355 250.799 254.371 252.323 253.049 254.282C252.608 254.935 251.947 255.588 251.285 255.806C250.624 256.024 249.963 255.806 250.404 255.371C251.285 253.411 251.726 251.234 253.71 250.146C255.033 248.404 256.135 246.445 257.237 244.485H257.457C257.457 244.485 258.339 242.961 258.78 242.09C258.559 240.131 259 238.172 258.559 236.212C255.473 239.696 252.608 243.397 249.522 246.88C247.538 249.275 245.334 251.452 242.909 253.629C241.146 254.064 240.705 255.588 239.603 256.677C239.162 257.112 238.721 257.983 238.28 258.418C237.399 258.201 237.619 257.548 237.619 257.112C237.839 256.024 238.28 254.717 238.942 253.847C241.807 249.275 245.113 244.703 248.64 240.349C251.947 236.43 255.033 232.511 257.898 228.375C259 226.416 259.662 224.674 259.662 222.497C259.441 218.143 260.102 213.571 260.323 209.217C260.543 206.387 261.205 203.556 260.984 200.726C260.984 197.896 261.866 195.066 261.205 192.018C259.441 193.76 257.898 195.719 256.355 197.461C255.914 197.896 255.253 198.985 254.592 198.549C253.71 197.896 254.592 197.025 254.812 196.372C255.914 194.195 257.237 192.453 258.78 190.494C259 190.276 259.221 190.059 259.662 190.059C260.543 188.317 261.425 186.575 262.527 184.834C261.425 183.745 261.866 182.439 262.086 181.35C262.086 180.915 262.086 180.479 261.866 180.262C259.441 182.439 257.898 185.051 255.694 187.228C255.253 187.664 254.812 188.317 254.371 188.752C253.93 189.188 253.71 188.97 253.269 188.752C252.388 188.752 251.947 189.405 251.506 190.059C250.845 190.929 249.963 191.8 248.861 192.671C247.979 191.8 248.64 191.147 248.861 190.276C250.183 187.664 251.947 185.269 253.71 182.874C256.576 179.173 259.221 175.255 262.527 171.989C262.748 171.553 263.188 171.336 263.188 170.683C263.188 169.812 263.629 169.159 263.629 168.07C263.629 160.668 264.07 153.266 264.291 145.864C264.291 142.381 264.291 138.68 264.952 135.196C264.291 134.761 264.291 135.414 264.07 135.85C262.086 138.897 259.662 141.51 257.457 144.558C257.237 144.776 257.016 144.993 256.796 144.993C256.796 145.429 256.355 145.646 255.914 145.429C255.473 145.211 255.473 144.776 255.694 144.34C255.914 143.034 256.576 141.945 257.457 140.857C257.898 139.986 258.559 139.115 258.339 138.244C259.882 134.326 262.307 131.06 264.511 127.359C264.731 126.706 265.393 126.27 265.393 125.617C264.952 124.529 264.952 123.658 264.952 122.569C264.952 121.699 265.172 120.61 264.952 119.739C261.205 124.529 257.898 129.536 254.371 134.326C249.963 140.204 245.775 145.864 241.587 151.742C241.146 152.395 240.925 153.048 239.823 153.484C239.382 152.613 240.484 151.96 240.484 151.307C239.823 151.089 239.382 151.307 239.162 151.742C238.501 152.395 237.839 153.048 237.178 153.702C236.296 153.048 236.737 152.613 236.958 152.178C238.28 149.347 239.823 146.735 241.587 144.34C246.877 135.85 252.828 127.794 258.559 119.522C260.543 116.691 262.968 114.297 265.172 111.466C265.613 111.031 266.054 110.596 266.054 109.942C266.054 108.636 266.495 107.548 266.495 106.459C266.495 102.105 267.156 97.9686 267.597 93.8321C267.817 90.7843 268.479 87.5186 268.919 84.253C268.919 83.5999 269.14 82.9468 270.022 83.1645C270.903 83.1645 270.903 83.8176 270.903 84.4708C271.124 85.3416 271.124 85.9947 271.124 86.6478C271.565 87.0832 271.344 87.7364 271.565 88.3895C272.446 87.9541 272.226 87.3009 272.446 86.6478C272.667 82.2937 272.887 77.7218 273.108 73.3677C273.108 72.2792 273.328 71.4083 273.328 70.3198C273.328 69.2313 273.328 67.925 273.328 66.8365C266.495 56.822 258.559 47.6783 249.742 39.4054ZM231.006 84.4708C230.565 86.2124 230.786 87.9541 230.565 89.6957C230.124 99.7102 229.684 109.942 228.581 119.957C228.361 120.61 228.361 121.045 228.581 121.481C228.802 123.223 228.361 123.876 226.598 123.658C224.834 123.223 223.071 123.223 221.528 123.223C213.593 122.787 205.878 122.352 197.942 121.916C188.243 121.481 178.545 121.046 168.846 120.61C150.991 119.739 133.357 119.086 115.503 118.215C110.213 117.998 105.143 117.78 100.073 117.562C99.1913 117.344 98.3096 117.127 97.6483 117.562C96.5462 118.215 96.1054 117.562 96.1054 116.691C95.8849 116.038 95.8849 115.385 95.8849 114.514C96.1054 108.636 96.3258 102.758 96.5462 96.88C96.7666 91.6551 96.7666 86.6478 96.9871 81.4229C97.134 78.9555 98.53 77.7218 101.175 77.7218C111.756 77.7218 122.336 78.1573 133.137 78.375C139.97 78.5927 146.583 78.8104 153.416 79.0281C162.674 79.4635 171.932 79.6812 181.19 79.8989C189.566 80.1166 197.722 80.3343 206.098 80.7697C213.813 81.2052 221.307 81.8583 229.022 82.076C231.227 82.076 231.227 82.2937 231.006 84.4708ZM240.044 202.903C241.366 202.903 241.807 203.339 241.587 204.645C247.097 204.863 250.183 207.04 251.726 211.829C253.049 215.966 251.065 219.449 246.656 220.32C246.216 220.538 245.554 220.537 245.554 220.973C245.113 222.061 244.011 222.715 243.35 223.585C245.113 226.198 244.452 228.157 241.587 229.028C238.942 229.899 236.076 230.117 233.21 230.117C223.732 230.552 214.254 230.987 204.775 230.77C203.232 230.77 201.689 230.77 199.926 230.334C197.722 229.681 197.281 229.028 197.281 226.633C197.281 225.98 197.942 225.327 197.722 224.674C194.636 223.585 194.195 223.15 194.195 219.884C193.975 215.53 194.856 214.659 199.485 214.659C204.555 214.877 209.845 215.748 214.915 215.748C220.426 215.966 225.936 215.748 231.447 215.095C231.006 212.7 231.006 210.523 231.888 208.346C233.21 204.427 235.856 203.339 240.044 202.903Z" fill="#D3CCCD"/>
<path d="M39.0145 64.8763C39.0145 64.8763 38.3532 65.5294 38.1328 65.7471C38.5737 62.0461 38.7941 58.5628 38.7941 54.8618C38.7941 54.2087 38.7941 53.5556 38.7941 52.9024C39.0145 51.3785 39.2349 49.6368 39.2349 47.8952C39.6758 47.4598 39.8962 47.0243 40.3371 46.8066C40.3371 48.5483 39.8962 50.0722 39.8962 51.8139C39.8962 52.467 39.6758 52.9024 39.6758 53.5556C39.4554 57.2566 39.2349 61.1753 38.7941 64.8763H39.0145Z" fill="#636363"/>
<path d="M57.5298 40.7126C57.3094 45.2844 57.089 49.6386 56.8685 54.2104C56.6481 55.7344 56.6481 57.0406 56.6481 58.5646C55.3256 58.4194 54.5908 59 54.4439 60.3062C54.003 65.3135 53.5622 70.3207 53.1213 75.328C52.9009 81.6415 52.6804 87.7373 52.2396 94.0508C52.0192 96.881 51.7987 99.9289 51.7987 102.759C51.3579 108.637 50.917 114.515 50.4762 120.393C50.2558 124.53 50.2558 128.666 49.8149 132.803C49.8149 135.415 49.5945 138.028 49.3741 140.422C49.1536 144.776 48.9332 149.131 48.7128 153.485C48.7128 156.75 48.2719 160.016 48.0515 163.499C47.8311 169.377 47.3902 175.255 46.9494 181.134C46.7289 185.27 46.7289 189.189 46.2881 193.107C46.0677 195.938 46.0677 198.768 45.8472 201.816C45.6268 205.734 45.186 209.871 45.186 214.007C44.9655 217.491 44.7451 220.974 44.5247 224.457C44.5247 230.335 43.643 236.431 43.4225 242.527C43.4225 244.486 43.2021 246.446 43.2021 248.405C43.2021 250.582 43.2021 252.759 42.7613 254.936C38.7936 251.017 35.0463 246.663 31.5195 242.091C31.74 240.132 31.74 238.173 31.9604 235.996C31.9604 233.165 31.9604 230.335 32.4012 227.505C33.0625 217.491 33.5034 207.476 34.1646 197.679C34.6055 190.059 35.0464 182.657 35.4872 175.038C35.9281 166.983 36.3689 158.927 36.8098 150.872C37.2506 143.035 37.6915 135.415 38.1323 127.578C38.5732 119.74 39.2344 111.685 39.4549 103.848C40.1162 95.1393 40.557 86.2133 40.9979 77.5051C41.2183 69.4499 41.6591 61.3948 41.8796 53.5573V51.5979C42.1 49.4209 42.1 47.2438 42.1 45.0667C44.9655 42.0188 48.0515 39.1887 51.1375 36.5762C52.9009 37.2293 54.4439 37.8824 56.2073 38.5355C56.2073 38.5355 56.4277 38.5355 56.4277 38.7532C57.3094 38.9709 57.7502 39.6241 57.5298 40.7126Z" fill="#636363"/>
<path d="M39.2348 67.7071C39.2348 70.9727 39.0143 74.0206 38.7939 77.2862C38.3531 87.7362 37.9122 98.4038 37.2509 109.071C36.8101 118.433 36.1488 128.012 35.7079 137.373C35.2671 143.905 35.0467 150.436 34.6058 156.967C34.165 165.675 33.5037 174.601 33.0628 183.309C32.622 189.841 32.4016 196.372 31.9607 203.121C31.5199 211.611 30.8586 220.32 30.4177 228.81C30.4177 230.334 30.1973 232.076 30.1973 233.6C29.9769 235.777 29.7564 237.736 29.7564 239.696C28.8747 238.389 27.993 237.301 27.1113 235.995C27.1113 234.035 27.3318 232.076 27.3318 230.116C27.5522 226.198 27.7726 222.061 27.993 218.143C28.6543 208.346 29.3156 198.549 29.9769 188.752C30.4177 178.955 31.079 169.376 31.7403 159.797C32.1811 150.436 32.8424 141.074 33.5037 131.495C33.9445 122.134 34.6058 112.772 35.2671 103.411C35.9284 94.4851 36.3692 85.5591 37.0305 76.4154C37.2509 72.9321 37.6918 69.2311 38.1326 65.7478C38.3531 65.7478 38.3531 64.877 39.0143 64.877C39.4552 65.7478 39.2348 66.8363 39.2348 67.7071Z" fill="#171719"/>
<path d="M229.022 82.0768C221.307 82.0768 213.813 81.206 206.098 80.7706C197.722 80.3351 189.566 80.1174 181.19 79.8997C171.932 79.682 162.674 79.4643 153.416 79.0289C146.583 78.8112 139.97 78.5935 133.137 78.3758C122.336 78.1581 111.755 77.9404 101.175 77.7227C98.5299 77.7227 97.1339 78.9563 96.9869 81.4237C96.9869 86.6486 96.9869 91.6559 96.546 96.8809C96.3256 102.759 96.1052 108.637 95.8848 114.515C95.8848 115.386 95.8848 116.039 96.1052 116.692C96.1052 117.563 96.546 118.216 97.6482 117.563C98.3095 117.128 99.1912 117.345 100.073 117.563C105.143 117.781 110.212 117.998 115.503 118.216C133.357 119.087 150.991 119.74 168.846 120.611C178.545 121.046 188.243 121.482 197.942 121.917C205.877 122.353 213.592 122.788 221.528 123.223C223.071 123.223 224.834 123.223 226.597 123.659C228.361 123.876 228.802 123.223 228.581 121.482C228.361 121.046 228.361 120.611 228.581 119.958C229.683 109.943 230.124 99.711 230.565 89.6965C230.786 87.9549 230.565 86.2132 231.006 84.4716C231.226 82.2945 231.226 82.0768 229.022 82.0768ZM175.899 83.1653C177.442 83.1653 178.985 83.1653 180.308 83.1653C180.969 83.1653 181.19 83.6007 181.41 84.0362C181.851 84.6893 182.292 84.6893 182.733 84.2539C182.953 84.0362 182.953 83.8184 182.953 83.6007C182.953 83.383 183.174 83.1653 183.394 83.1653C184.496 83.1653 185.598 83.1653 186.7 83.383C188.023 82.9476 188.464 83.8185 188.684 85.3424C189.786 83.1653 191.329 83.6007 192.872 83.6007C203.012 84.0362 213.372 84.0362 223.512 84.2539C224.614 84.2539 225.495 84.2539 226.597 84.2539C226.597 84.4716 226.597 84.6893 226.377 84.907C225.495 86.4309 224.173 86.6486 222.409 86.4309C220.646 86.2132 218.662 86.2132 216.678 86.2132C207.2 85.7778 198.163 85.3424 188.684 85.1247H187.802C187.802 85.1247 186.7 84.907 186.039 84.6893H182.953C180.528 84.6893 178.104 84.6893 175.679 84.4716C175.238 84.4716 174.356 84.6893 174.356 83.8184C174.356 82.9476 175.018 82.5122 175.899 82.7299V83.1653ZM165.099 82.7299C167.303 82.9476 169.287 82.9476 171.491 82.9476C172.593 82.9476 172.814 83.6007 172.814 84.6893C170.168 84.6893 167.523 84.6893 165.099 84.6893C164.437 84.6893 163.996 84.4716 163.996 83.8184C164.217 83.1653 164.658 82.9476 165.099 82.9476V82.7299ZM140.631 81.8591C142.615 81.8591 144.599 81.8591 146.803 81.8591C151.212 82.0768 155.841 82.2945 160.47 82.2945C161.572 82.2945 162.233 82.7299 162.233 84.0362H160.249C153.857 83.8184 147.685 83.6007 141.293 83.1653H140.411C140.411 83.1653 139.97 82.5122 139.97 82.0768C139.75 81.4237 140.411 81.4237 140.631 81.6414V81.8591ZM132.916 81.6414H135.121C136.737 81.6414 137.766 82.2219 138.207 83.383C136.664 83.383 134.9 83.6007 133.357 82.9476C132.916 83.1653 132.476 83.1653 132.476 82.5122C132.476 82.0768 132.255 81.6414 132.916 81.6414ZM130.712 82.9476C126.744 83.1653 126.524 83.1653 125.642 81.4237C127.626 81.206 129.61 80.7706 130.712 82.9476ZM117.487 80.7706C119.03 80.9883 120.572 80.9883 122.115 81.206C123.218 81.206 123.658 81.8591 124.54 82.7299C119.691 82.5122 115.062 82.5122 110.433 82.2945C109.11 82.2945 107.788 82.0768 106.245 82.0768C104.481 82.2945 103.159 81.6414 102.057 80.1174C107.127 80.3351 112.417 80.5528 117.487 80.7706ZM98.9707 81.6414C100.293 82.2945 101.175 83.1653 102.057 83.8184C102.498 84.2539 102.498 84.6893 102.277 85.1247C102.057 87.9549 102.057 90.5674 101.616 93.1798C101.395 92.9621 101.395 92.7444 101.175 92.7444C98.7503 91.8736 98.5299 89.9142 98.9707 87.9549V81.6414ZM100.955 110.596C100.955 112.338 100.293 113.644 98.5299 114.515C98.089 114.08 98.3095 113.427 98.3095 112.773C98.5299 108.855 98.5299 104.718 98.7503 100.582C98.7503 99.4208 99.2646 98.8402 100.293 98.8402H101.175C101.175 98.8402 101.395 99.711 101.395 100.364C101.175 103.63 100.955 107.113 100.955 110.596ZM98.9707 93.833C98.9707 93.833 100.073 94.0507 100.514 94.0507C100.955 94.0507 101.395 94.0507 101.616 94.0507V93.3975C101.616 93.3975 101.836 93.6153 101.836 93.833H101.616C101.395 95.1392 101.616 96.01 101.395 97.0986C98.9707 97.3163 98.3095 97.3163 98.9707 93.833ZM109.11 116.039C106.686 116.039 104.261 116.039 101.616 115.604C102.057 114.733 102.277 114.297 103.379 114.297C105.804 114.515 108.229 114.297 110.874 114.733C110.433 115.604 109.992 116.039 109.11 116.039ZM142.395 117.563C140.411 117.563 138.427 117.345 136.443 117.345C130.271 117.345 124.099 116.692 117.927 116.474C116.605 116.474 115.282 116.257 113.96 116.257C113.519 116.257 113.078 116.039 113.078 115.386C113.078 114.733 113.519 114.733 113.96 114.733C115.723 114.733 117.266 114.951 119.03 114.951C122.115 115.168 125.201 115.168 128.287 115.386C132.916 115.386 137.325 115.604 141.954 115.821C142.395 115.821 143.056 115.604 143.497 115.821C143.497 116.474 143.276 117.345 142.395 117.345V117.563ZM154.518 117.998C151.432 117.998 148.126 117.781 145.04 117.781C145.04 116.474 145.481 115.821 146.803 115.821C149.228 115.821 151.653 115.821 154.077 115.821C155.179 116.039 155.179 116.474 155.179 117.128C155.179 117.563 154.739 117.781 154.518 117.781V117.998ZM114.841 112.991C114.841 112.991 113.96 112.773 113.078 112.773C113.96 111.685 114.401 111.032 115.062 110.379C115.282 109.943 115.282 109.508 115.062 109.29C114.621 108.855 114.18 108.855 113.739 109.29C113.078 109.943 112.417 110.379 112.196 111.25C111.535 112.991 110.212 113.209 108.229 112.556C109.551 111.25 110.653 110.161 111.755 108.855C112.196 108.419 113.078 107.766 112.417 107.331C111.755 106.678 111.315 107.548 110.874 107.984C109.551 109.072 108.229 110.161 107.347 111.685C106.906 112.556 106.245 112.991 105.363 112.773H103.82C103.82 112.773 102.718 112.556 102.718 111.903C102.938 111.25 102.938 110.379 102.938 109.726C103.379 101.67 103.6 93.6153 103.82 85.5601C103.82 84.399 104.408 83.891 105.584 84.0362C118.148 84.4716 130.492 85.1247 143.056 85.7778C155.4 86.2132 167.744 86.8663 180.308 87.3018C181.631 87.3018 183.174 87.5195 184.717 87.5195C184.055 89.0434 182.512 89.4788 182.292 91.0028C182.733 91.4382 183.174 91.2205 183.394 91.0028C184.276 90.5674 184.937 90.1319 185.378 89.4788C187.362 87.5195 189.566 87.3018 192.431 87.9549C191.329 89.2611 189.566 89.9142 189.125 91.6559C189.786 92.0913 190.227 91.6559 190.448 91.6559C191.55 90.7851 192.872 89.9142 193.754 89.0434C194.856 87.7372 196.399 88.1726 197.722 87.9549C198.603 87.9549 197.942 89.2611 198.824 88.8257C199.485 88.608 199.926 88.3903 200.587 88.1726H201.689C208.302 88.608 214.915 88.608 221.528 89.2611C222.63 89.4788 222.85 89.6965 222.85 90.7851C222.63 93.1798 222.63 95.3569 222.409 97.534C222.409 103.412 221.969 109.072 221.748 114.733C221.748 115.894 221.234 116.474 220.205 116.474C215.797 116.474 211.608 116.257 207.2 116.257C207.641 115.168 208.302 114.951 208.743 114.515C209.625 113.862 210.727 113.209 211.388 112.12C211.829 112.12 211.829 111.467 211.609 111.032C211.168 110.596 210.727 110.596 210.506 111.032C208.743 112.12 206.98 112.991 206.318 114.951C205.877 116.039 205.216 116.039 204.334 116.039C196.399 115.821 188.684 115.604 180.749 115.386C172.813 114.951 164.658 114.733 156.722 114.515C142.615 114.08 128.728 113.644 114.841 113.209V112.991ZM172.373 118.869C172.373 118.869 171.491 118.869 171.271 117.998C170.83 116.91 170.168 116.91 169.507 117.998C169.287 118.652 168.846 118.869 168.185 118.652C164.878 118.652 161.572 118.434 158.265 118.216C157.604 118.216 156.943 118.216 156.943 117.345C157.163 116.257 157.604 116.257 158.265 116.257C163.556 116.474 168.846 116.692 173.916 116.91H176.561C177.883 116.91 178.692 117.636 178.985 119.087C176.781 119.305 174.577 119.087 172.373 118.869ZM181.41 119.305C181.41 119.305 180.749 118.652 180.749 118.216C180.749 117.563 180.749 117.128 181.41 117.128C183.174 117.128 184.717 117.128 186.259 117.128C187.582 117.128 187.362 118.434 188.023 119.305C185.598 119.522 183.614 119.087 181.41 119.087V119.305ZM191.329 119.74C190.154 119.74 189.419 119.014 189.125 117.563C190.668 117.345 192.211 117.563 193.754 117.563C194.195 117.563 194.415 117.781 194.195 117.998C193.974 118.869 195.077 119.087 194.856 119.958C193.754 119.958 192.431 119.74 191.329 119.74ZM214.915 120.829C209.625 120.611 204.555 120.393 199.265 120.175C197.501 120.175 196.399 119.522 195.958 117.563C201.469 117.781 206.759 117.998 212.049 118.216C214.474 118.216 217.119 118.216 219.764 118.652C221.528 118.652 222.63 119.305 223.512 120.829H214.915ZM226.377 120.393C226.377 120.393 224.614 118.434 223.732 117.563C223.291 117.128 223.291 116.692 223.291 116.039C223.512 113.862 223.732 111.467 223.952 109.072C224.099 107.186 225.201 106.025 227.259 105.589C227.038 110.379 226.818 115.168 226.377 120.393ZM224.393 104.501C224.099 102.324 225.201 100.582 227.7 99.2756C227.7 101.888 227.479 103.847 224.393 104.501ZM227.92 96.8809C227.92 96.8809 227.92 98.1871 226.818 97.7517C225.936 97.534 225.495 98.6225 224.834 98.8402C224.393 96.2277 224.614 95.7923 227.92 94.7038V96.8809ZM228.361 88.3903C228.802 91.0028 227.038 92.5267 225.054 93.6153C224.393 89.4788 225.054 88.3903 228.361 86.8663C228.581 87.5195 228.361 87.9549 228.361 88.3903Z" fill="#171719"/>
<path d="M51.5788 208.563C56.869 203.12 61.0571 196.589 65.4656 190.275C66.5677 188.751 67.6699 187.228 68.772 185.486C69.2129 185.05 69.4333 184.615 68.772 184.18C64.3635 189.405 60.1754 194.847 55.7669 200.072C54.0035 202.467 52.24 204.644 50.2562 207.039C49.8154 207.474 49.3745 207.91 48.9337 208.563C48.4928 206.603 48.7132 204.862 48.7132 203.338C49.3745 192.452 50.0358 181.349 50.6971 170.464C51.1379 159.361 51.7992 148.04 52.4605 136.937C52.9013 125.834 53.5626 114.731 54.2239 103.846C54.2239 102.104 54.4443 100.362 54.4443 98.8385C54.2239 97.3146 55.1056 96.8792 56.2077 96.8792C57.5303 96.0084 57.7507 94.9198 57.9711 93.3959C59.0733 84.4699 59.5141 75.1085 59.5141 65.9648C59.5141 64.2232 59.5141 62.4815 58.8528 60.7399C58.6324 59.6513 58.1915 58.7805 56.6486 58.5628C55.326 58.4176 54.5913 58.9982 54.4443 60.3044C54.0035 65.3117 53.5626 70.319 53.1217 75.3262C52.9013 81.6397 52.6809 87.7355 52.24 94.049C52.0196 96.8792 51.7992 99.9271 51.7992 102.757C51.3583 108.635 50.9175 114.513 50.4766 120.392C50.2562 124.528 50.2562 128.664 49.8154 132.801C49.8154 135.413 49.5949 138.026 49.3745 140.421C49.1541 144.775 48.9337 149.129 48.7132 153.483C48.7132 156.749 48.2724 160.014 48.0519 163.497C47.8315 169.376 47.3907 175.254 46.9498 181.132C46.7294 185.268 46.7294 189.187 46.2885 193.106C46.0681 195.936 46.0681 198.766 45.8477 201.814C45.6273 205.733 45.1864 209.869 45.1864 214.005C44.966 217.489 44.7456 220.972 44.5251 224.455C44.5251 230.333 43.6434 236.429 43.423 242.525C43.423 244.484 43.2026 246.444 43.2026 248.403C43.2026 250.58 43.2026 252.757 42.7617 254.934C44.0843 256.241 45.1864 257.329 46.2885 258.418H46.509C46.509 258.418 47.1702 258.2 47.6111 258.2C48.9337 257.982 49.8154 256.894 49.8154 255.152V254.717C49.8154 252.975 50.2562 250.798 50.2562 249.056C50.4766 244.484 50.4766 239.913 50.0358 235.558C50.0358 233.599 49.5949 231.64 47.8315 230.116C47.1702 229.463 47.1702 227.721 48.2724 226.415C50.2562 224.02 52.24 221.625 54.2239 219.23C58.1915 214.659 61.9388 210.087 65.9065 205.515C66.5677 204.426 67.4494 203.556 68.1107 202.467C67.229 201.814 66.7882 202.685 66.3473 203.12C61.2775 208.345 56.2077 213.788 51.3583 219.23C50.6971 220.101 50.0358 220.754 49.3745 221.625C49.1541 221.843 48.9337 222.278 48.2724 222.278C47.8315 222.278 47.8315 221.625 47.8315 221.19C47.8315 219.884 48.2724 218.795 48.0519 217.706C47.6111 214.005 49.1541 211.393 51.5788 208.563ZM56.4281 60.5221C57.5303 63.7877 57.5303 66.4002 57.3098 69.2304C57.0894 75.1085 56.6486 80.9866 56.2077 87.0824C55.9873 89.4772 55.9873 91.8719 55.1056 94.4844C54.8852 93.1782 55.9873 62.2638 56.4281 60.5221ZM47.3907 252.54V254.281C47.3907 254.281 47.3907 254.717 47.3907 254.934C47.3907 255.37 46.9498 255.587 46.509 255.587C46.2885 255.37 46.0681 255.152 46.2885 254.934V251.233C46.509 246.226 46.9498 241.001 47.1702 235.994C48.0519 241.437 48.0519 247.097 47.6111 252.54H47.3907ZM48.0519 222.931C48.0519 222.931 47.8315 223.149 47.8315 222.931H48.0519Z" fill="#171719"/>
<path d="M68.7723 184.398C64.3638 189.405 60.1757 194.848 55.7671 200.291C54.0037 202.685 52.0199 204.863 50.2565 207.257C49.8156 207.693 49.3748 208.128 48.7135 208.781C48.2727 206.822 48.7135 205.298 48.7135 203.556C49.3748 192.671 50.0361 181.568 50.4769 170.683C51.1382 159.58 51.579 148.259 52.2403 137.156C52.9016 126.053 53.3425 115.167 54.0037 104.064C54.0037 102.323 54.4446 100.581 54.2242 99.057C54.2242 97.5331 54.8854 97.3154 55.9876 97.0977C56.8693 99.4924 57.3101 102.105 57.3101 104.935C57.3101 107.548 57.3101 110.16 57.3101 112.555C56.8693 116.474 57.3101 120.61 56.8693 124.529C56.4284 128.447 56.8693 132.148 56.4284 136.067C55.9876 139.55 56.4284 143.034 55.7671 146.299C55.7671 146.299 55.7671 146.735 55.7671 146.953C55.7671 151.524 55.3263 156.096 55.1059 160.668C54.8854 164.587 55.1059 168.505 54.4446 172.207C54.0037 175.037 54.0037 178.085 53.7833 180.915C53.5629 183.963 53.122 186.793 53.122 189.841C53.122 192.671 52.4608 195.719 52.4608 198.984C53.122 198.114 53.7833 197.678 54.2242 197.025C57.751 192.671 61.0574 188.099 64.8046 183.963C66.1272 182.439 67.6702 181.35 69.2131 179.826C69.654 179.391 70.3153 178.955 70.9766 179.391C71.6378 180.044 71.4174 180.697 70.9766 181.132C70.5357 181.786 70.0949 182.221 69.654 182.656C69.2131 183.092 68.5519 183.527 68.7723 184.398Z" fill="#F8F8F8"/>
<path d="M69.2137 204.21C68.332 205.952 67.0094 207.258 65.9073 209C63.2622 212.483 60.8375 215.967 58.1924 219.45C56.4289 221.845 54.6655 224.022 52.6817 226.199C51.1387 227.723 50.9183 228.158 52.0204 229.9C54.0043 233.383 53.5634 237.084 53.343 240.785C53.343 241.656 53.1226 242.527 53.1226 243.615C53.343 247.534 52.6817 251.235 52.6817 255.154C52.6817 255.589 52.4613 256.242 52.2408 256.678C52.2408 257.766 51.8 258.637 51.5796 259.508C51.5796 260.161 50.9183 260.814 50.257 261.032C50.0366 261.032 49.8162 261.25 49.5957 261.467C48.4936 260.596 47.6119 259.508 46.5098 258.419C46.7302 258.202 47.171 258.202 47.6119 258.202C48.9345 257.984 49.8162 256.895 49.8162 255.154V254.718C49.8162 252.977 50.257 250.8 50.257 249.058C50.4774 244.486 50.4774 239.914 50.0366 235.56C50.0366 233.601 49.5957 231.641 47.8323 230.118C47.171 229.464 47.171 227.723 48.2732 226.416C50.257 224.022 52.2408 221.627 54.2247 219.232C58.1924 214.66 61.9396 210.088 65.9073 205.517C66.5685 204.428 67.4503 203.557 68.1115 202.469C69.6545 202.904 69.8749 202.904 69.2137 204.21Z" fill="#F8F8F8"/>
<path d="M42.0997 45.0664C42.0997 47.2435 42.0997 49.4205 41.8793 51.5976V53.557C41.8793 61.3944 41.218 69.4496 40.9976 77.5047C40.5567 86.213 40.1159 95.139 39.4546 103.847C39.2342 111.685 38.5729 119.74 38.1321 127.577C37.6912 135.415 37.2503 143.034 36.8095 150.872C36.3686 158.927 35.9278 166.982 35.4869 175.037C35.0461 182.657 34.6052 190.059 34.1644 197.679C33.5031 207.476 33.0623 217.49 32.401 227.505C32.1805 230.335 31.9601 233.165 31.9601 235.995C31.7397 238.172 31.7397 240.132 31.5193 242.091C31.0784 241.22 30.4171 240.567 29.7559 239.696C29.7559 237.737 29.9763 235.778 30.1967 233.818C30.1967 232.077 30.4171 230.335 30.4171 228.811C30.858 220.32 31.5193 211.612 31.9601 203.122C32.401 196.373 32.6214 189.841 33.0623 183.31C33.5031 174.602 34.1644 165.676 34.6052 156.968C35.0461 150.437 35.2665 143.905 35.7074 137.374C36.1482 128.013 36.8095 118.434 37.2503 109.072C37.9116 98.4046 38.3525 87.7369 38.7933 77.287C38.7933 74.0214 39.2342 70.9735 39.2342 67.7079C39.2342 66.8371 39.4546 65.7486 39.0138 64.8777C39.4546 61.1767 39.675 57.258 39.8955 53.557C39.8955 52.9039 40.1159 52.4684 40.1159 51.8153C40.1159 50.0737 40.3363 48.5497 40.5567 46.8081C41.218 46.1549 41.6589 45.7195 42.0997 45.0664Z" fill="#F4F3F4"/>
<path d="M221.527 89.0421C214.914 88.389 208.301 88.389 201.688 87.9536H200.586C200.586 87.9536 199.484 88.389 198.823 88.6067C197.941 89.0421 198.823 87.7359 197.72 87.7359C196.398 87.9536 194.855 87.5182 193.753 88.8244C192.871 89.6952 191.549 90.5661 190.446 91.4369C190.226 91.4369 189.785 91.8723 189.124 91.4369C189.565 89.6952 191.328 89.0421 192.43 87.7359C189.565 87.0828 187.36 87.3005 185.377 89.2598C184.936 89.9129 184.274 90.3484 183.393 90.7838C183.172 91.0015 182.732 91.2192 182.291 90.7838C182.511 89.2598 184.054 88.8244 184.715 87.3005C183.172 87.3005 181.629 87.0828 180.307 87.0828C167.743 86.6473 155.399 85.9942 143.055 85.5588C130.49 84.9057 118.147 84.2526 105.582 83.8172C104.407 83.672 103.819 84.18 103.819 85.3411C103.819 93.3963 103.378 101.451 102.937 109.507C102.937 110.16 102.937 111.031 102.717 111.684C102.717 112.337 103.158 112.554 103.819 112.554H105.362C105.362 112.554 106.905 112.337 107.346 111.466C108.227 109.942 109.55 108.853 110.873 107.765C111.313 107.329 111.754 106.459 112.416 107.112C113.077 107.547 112.195 108.2 111.754 108.636C110.652 109.942 109.55 111.031 108.227 112.337C110.211 112.99 111.534 112.772 112.195 111.031C112.416 110.16 113.077 109.724 113.738 109.071C114.179 108.853 114.62 108.853 115.061 109.071C115.281 109.289 115.281 109.724 115.061 110.16C114.399 110.813 113.959 111.466 113.077 112.554C113.959 112.554 114.399 112.772 114.84 112.772C128.727 113.208 142.614 113.643 156.721 114.078C164.657 114.296 172.812 114.514 180.748 114.949C188.683 115.167 196.398 115.385 204.333 115.602C205.215 115.602 205.876 115.602 206.317 114.514C206.978 112.554 208.742 111.684 210.505 110.595C210.726 110.16 211.166 110.16 211.607 110.595C211.828 111.031 211.828 111.466 211.387 111.684C210.726 112.772 209.623 113.425 208.742 114.078C208.301 114.514 207.64 114.732 207.199 115.82C211.607 115.82 215.795 116.038 220.204 116.038C221.233 116.038 221.747 115.457 221.747 114.296C221.967 108.636 222.188 102.975 222.408 97.0973C222.629 94.9202 222.629 92.7431 222.849 90.3484C222.849 89.2598 222.629 89.0421 221.527 88.8244V89.0421ZM126.743 106.241C126.743 106.241 125.641 105.806 125.421 105.37C125.2 104.499 124.319 104.282 123.437 104.282H120.13C118.808 104.282 117.926 104.862 117.485 106.023C116.163 105.588 115.942 104.717 115.942 103.628C115.942 102.975 115.942 102.322 116.824 102.322C118.367 102.322 118.367 101.451 118.367 100.363C118.587 98.1858 119.028 96.2264 119.91 94.2671C120.571 92.9608 121.673 91.8723 123.216 91.6546C124.98 91.6546 125.421 92.09 125.421 93.614C125.641 96.2265 125.421 98.6212 125.421 101.234C125.421 101.887 125.421 102.322 126.082 102.758C127.184 102.975 127.405 104.064 127.405 104.935C127.405 105.37 127.184 106.023 126.743 106.241ZM139.969 103.846C139.969 103.846 139.969 104.935 139.087 105.152C138.426 105.152 138.205 104.499 137.985 103.846C137.765 103.193 137.985 102.322 137.985 101.669C137.985 100.581 137.985 99.4921 137.985 97.9681C136.883 98.8389 136.442 99.7098 135.781 100.581C134.899 101.887 134.017 102.975 132.695 104.064C131.593 104.935 130.49 104.499 130.49 102.975C130.711 99.9275 130.711 96.8796 130.931 93.8317C130.931 93.1786 130.931 92.5254 132.033 92.5254C132.695 92.7431 132.915 93.3963 132.915 94.0494V101.016C134.679 99.2743 136.001 97.5327 137.103 95.791C137.324 95.3556 137.544 94.9202 137.765 94.4848C138.205 94.0494 138.426 93.8317 139.087 94.0494C139.748 94.0494 139.748 94.7025 139.748 95.1379C139.969 96.2264 139.969 97.0973 139.969 97.9681C139.969 99.9275 139.969 101.887 139.748 103.846H139.969ZM147.243 100.581C147.243 100.581 145.7 100.145 145.259 101.016C145.259 101.669 145.259 102.322 145.259 102.975C145.259 103.628 145.259 104.499 145.259 105.152C145.259 105.588 145.039 105.806 144.377 106.023C143.716 106.023 143.496 105.588 143.496 104.935C143.275 103.628 143.496 102.322 143.496 101.016V99.7098C143.496 99.7098 143.496 96.8796 143.716 95.3556C143.716 93.614 144.818 92.9608 146.582 93.3963C148.786 93.8317 150.329 96.2265 150.329 98.1858C150.108 99.4921 149.227 100.145 147.463 100.581H147.243ZM155.178 104.499C155.178 104.499 156.721 104.935 157.603 105.588C155.84 106.676 154.297 106.023 152.754 105.588C152.092 105.152 151.872 104.499 152.092 104.064C152.092 101.234 152.092 98.4035 152.313 95.5733C152.533 94.0494 153.194 93.614 154.737 93.614C155.84 93.614 156.942 93.614 158.044 94.0494C158.485 94.0494 158.485 94.0494 158.485 94.7025C158.705 95.1379 158.264 95.3556 157.823 95.3556H156.06C154.884 95.3556 154.297 95.9362 154.297 97.0973C154.076 98.4035 154.517 99.0566 155.619 99.0566C156.721 99.0566 157.823 99.0566 158.705 99.9275C157.603 100.798 156.501 100.798 155.619 100.581C154.517 100.581 154.076 101.016 154.076 102.105C154.076 102.322 154.076 102.758 153.856 103.193C153.856 104.064 154.076 104.499 155.178 104.499ZM168.845 106.676C168.845 106.676 167.081 106.241 166.64 105.588C165.979 104.064 165.097 102.54 163.995 101.016C163.334 102.322 163.775 103.628 163.334 104.717V106.023C163.334 106.023 162.673 107.112 162.011 107.112C161.35 106.894 160.909 106.459 161.13 105.806V102.975C161.35 100.363 161.571 97.7504 162.011 95.1379V94.7025C162.011 94.7025 162.232 93.3963 162.893 93.614C163.554 93.614 163.775 94.2671 163.775 94.7025V97.7504C165.097 97.5327 165.538 96.6619 166.42 96.0087C166.64 95.791 166.861 95.3556 167.302 94.9202C167.522 94.7025 167.963 94.2671 168.404 94.7025C169.065 94.9202 168.845 95.5733 168.404 96.0087C168.404 96.6619 167.963 97.0973 167.522 97.5327C166.861 97.9681 166.2 98.6212 165.318 99.2743C166.861 101.016 167.963 102.54 168.624 104.499C169.065 105.152 169.506 106.241 168.624 106.676H168.845ZM182.07 96.4442H178.984V105.37C178.984 105.37 178.984 106.459 178.764 107.112C178.764 107.547 178.543 107.765 178.103 107.765C177.441 107.765 177.221 107.547 177 107.329C176.56 106.676 176.56 105.806 176.56 105.152C176.56 102.54 176.56 99.9275 176.56 97.315C176.56 96.4442 176.56 96.2265 175.457 96.2265H173.253C173.253 96.2265 171.71 96.2265 171.71 95.3556C171.49 94.4848 172.371 94.4848 173.033 94.2671C174.796 94.2671 176.78 94.2671 178.543 94.4848C179.646 94.4848 180.748 94.4848 182.07 94.9202C182.511 94.9202 182.952 95.1379 182.731 95.791C182.731 96.2265 182.291 96.4442 181.85 96.4442H182.07ZM190.226 107.329C187.581 107.329 185.156 105.37 184.715 102.322V101.451C184.715 99.7098 185.156 98.4035 185.817 97.0973C187.581 94.7025 190.446 94.2671 192.43 96.0087C193.532 97.0973 194.635 97.9681 195.296 99.2743C196.839 102.975 194.194 107.329 190.226 107.329ZM200.366 104.499C200.366 104.499 200.366 105.806 200.366 106.459C200.145 106.894 199.704 107.112 199.263 106.894C198.823 106.894 198.602 106.459 198.602 106.241V104.935C199.043 102.105 199.263 99.4921 199.043 96.6619C199.043 94.7025 199.704 94.2671 201.688 94.7025C203.231 94.9202 204.554 95.5733 205.656 96.6619C206.978 97.9681 206.758 99.492 205.215 100.581C203.892 101.234 202.57 101.234 200.806 101.016C200.806 102.322 200.806 103.411 200.586 104.499H200.366ZM212.489 105.588C210.285 107.765 208.081 109.724 205.656 111.901C204.333 112.99 203.231 114.514 201.468 115.385C201.247 114.078 201.909 113.643 202.349 113.208C205.215 109.942 208.521 107.329 211.828 104.717C212.048 104.499 212.269 104.064 212.709 104.499C213.15 104.935 212.93 105.37 212.709 105.588H212.489Z" fill="#FBFBFB"/>
<path d="M128.288 115.385C132.917 115.385 137.325 115.602 141.954 115.82C142.395 115.82 143.056 115.82 143.497 116.038C143.938 116.473 143.277 117.562 142.395 117.344C140.411 117.344 138.427 117.344 136.664 117.344C130.492 117.126 124.32 116.691 118.148 116.473C116.826 116.473 115.503 116.473 114.181 116.255C113.74 116.255 113.299 116.255 113.299 115.602C113.299 114.949 113.74 114.949 114.181 114.949C115.724 114.949 117.487 114.949 119.03 114.949C122.116 114.949 125.202 115.167 128.508 115.385H128.288Z" fill="#ECDB27"/>
<path d="M178.984 119.303C176.559 119.303 174.576 119.303 172.371 119.086C171.71 119.086 171.49 118.868 171.269 118.215C170.828 117.126 170.167 117.126 169.726 118.215C169.285 118.868 169.065 119.086 168.404 118.868C165.097 118.868 161.791 118.65 158.264 118.432C157.603 118.432 156.941 118.432 156.941 117.344C156.941 116.473 157.603 116.255 158.264 116.473C163.554 116.473 168.624 116.908 173.914 117.126C174.796 117.126 175.678 117.126 176.559 117.126C177.735 117.126 178.543 117.852 178.984 119.303Z" fill="#ECDB27"/>
<path d="M101.174 98.8388C101.174 98.8388 101.174 99.9273 101.174 100.363C101.174 103.846 100.734 107.329 100.734 110.595C100.734 112.337 100.072 113.643 98.3089 114.514C98.0885 114.078 98.3089 113.425 98.3089 112.772C98.3089 108.636 98.5293 104.499 98.7498 100.363C98.7498 98.6211 98.7498 98.6211 100.293 98.6211C100.513 98.6211 100.954 98.6211 101.174 98.6211V98.8388Z" fill="#ECDB27"/>
<path d="M162.013 84.4709C162.013 84.4709 160.69 84.4709 160.029 84.4709C153.637 84.2532 147.465 83.8178 141.072 83.6001C140.852 83.6001 140.411 83.6001 140.191 83.6001C139.75 83.6001 139.75 82.947 139.529 82.5116C139.529 82.0762 139.97 82.0762 140.411 82.0762C142.395 82.0762 144.379 82.0762 146.363 82.2939C150.991 82.2939 155.62 82.7293 160.249 82.7293C161.351 82.7293 162.013 83.1647 161.792 84.4709H162.013Z" fill="#ECDB27"/>
<path d="M101.836 80.334C107.126 80.5517 112.196 80.7694 117.266 80.9871C118.809 80.9871 120.352 81.2048 121.895 81.2048C122.997 81.2048 123.438 81.8579 124.319 82.7288C119.47 82.7288 114.841 82.5111 110.433 82.2933C109.11 82.2933 107.567 82.0756 106.244 82.2933C104.481 82.2933 103.158 81.8579 101.836 80.334Z" fill="#ECDB27"/>
<path d="M98.9703 87.9541V81.6406C100.293 82.2937 100.954 83.1646 102.056 83.8177C102.497 84.0354 102.277 84.6885 102.277 85.1239C101.836 87.9541 102.056 90.7843 101.395 93.3968C101.175 94.4853 101.395 95.7916 101.395 97.0978C98.7499 97.3155 98.309 97.0978 98.9703 94.0499C99.4111 94.0499 100.072 94.0499 100.513 94.0499C100.954 94.0499 101.615 94.0499 101.615 93.8322C101.615 93.3968 101.395 92.9614 101.175 92.7437C101.615 90.5666 100.293 89.2604 98.9703 87.9541Z" fill="#ECDB27"/>
<path d="M144.818 117.779C145.039 116.691 145.259 115.82 146.582 116.037C149.006 116.037 151.431 116.255 153.856 116.255C154.958 116.255 154.958 116.908 154.958 117.561C154.958 117.997 154.738 118.215 154.297 118.215C151.211 118.215 148.125 117.997 144.818 117.779Z" fill="#ECDB27"/>
<path d="M172.593 84.6879C169.948 84.6879 167.524 84.6879 164.878 84.4702C164.217 84.4702 163.776 84.4702 163.997 83.5993C163.997 82.9462 164.438 82.7285 165.099 82.7285C167.083 82.7285 169.287 82.7285 171.271 82.7285C172.593 82.7285 172.814 83.3816 172.593 84.4702V84.6879Z" fill="#ECDB27"/>
<path d="M110.653 114.949C110.653 114.949 109.771 116.255 109.11 116.255C106.685 116.255 104.04 116.255 101.615 115.82C101.836 114.949 102.277 114.514 103.158 114.514C105.583 114.514 108.008 114.514 110.653 114.949Z" fill="#DCCD30"/>
<path d="M98.9698 87.9531C100.292 89.2594 101.615 90.5656 101.174 92.7427C98.7494 91.8719 98.5289 90.1302 98.9698 87.9531Z" fill="#F4F3F4"/>
<path d="M130.492 82.9459C126.524 83.3813 126.304 83.1636 125.643 81.4219C127.406 81.4219 129.39 80.7688 130.492 82.9459Z" fill="#DCCD30"/>
<path d="M134.9 81.8574C136.516 81.8574 137.545 82.438 137.986 83.5991C136.222 83.5991 134.679 83.5991 132.916 83.1637C133.357 83.1637 133.577 83.1637 134.018 83.1637C135.561 83.3814 135.12 82.5105 134.679 81.8574H134.9Z" fill="#DCCD30"/>
<path d="M134.899 81.8574C134.899 81.8574 135.56 83.3814 134.238 83.1637C133.797 83.1637 133.577 83.1637 133.136 83.1637C133.136 83.1637 132.695 82.7282 132.254 82.7282C132.254 82.2928 132.034 81.8574 132.695 81.8574C133.356 81.8574 134.238 81.8574 134.899 81.8574Z" fill="#F4F3F4"/>
<path d="M132.475 82.5117C132.475 82.5117 133.136 82.5117 133.356 82.9471C132.915 82.9471 132.475 82.9471 132.475 82.5117Z" fill="#DCCD30"/>
<path d="M56.4289 60.7402C57.3106 63.7881 57.531 66.6183 57.3106 69.2308C57.0901 75.1089 56.6493 81.2047 56.2084 87.0828C56.2084 89.4775 55.988 92.09 55.1063 94.7025C54.6655 93.3963 55.988 62.4819 56.4289 60.7402Z" fill="#DCCD30"/>
<path d="M46.9498 235.994C47.8315 242.09 47.8315 248.186 47.1702 254.499C47.1702 254.717 47.1702 254.935 47.1702 255.152C47.1702 255.588 46.7294 255.588 46.2885 255.588C45.8477 255.588 45.8477 255.152 45.8477 254.935C45.8477 254.064 45.8477 252.975 45.8477 252.104C46.0681 246.662 46.5089 241.437 46.7294 235.994H46.9498Z" fill="#DCCD30"/>
<path d="M126.083 102.757C126.083 102.757 125.422 101.887 125.422 101.233C125.422 98.6209 125.642 96.2261 125.422 93.6137C125.422 92.0897 124.981 91.6543 123.217 91.6543C121.674 91.872 120.572 92.9605 119.911 94.2668C119.029 96.2261 118.588 98.1855 118.368 100.363C118.368 101.451 118.368 102.322 116.825 102.322C116.164 102.322 115.943 102.975 115.943 103.628C115.943 104.717 115.943 105.588 117.486 106.023C117.927 104.862 118.809 104.281 120.131 104.281H123.438C123.438 104.281 125.201 104.499 125.422 105.37C125.642 105.805 126.083 106.458 126.744 106.241C127.185 106.023 127.406 105.37 127.406 104.934C127.406 104.064 127.185 102.975 126.083 102.757ZM123.217 101.887C123.217 101.887 121.895 102.322 121.234 102.322C120.572 102.322 120.352 102.104 120.352 101.451C120.572 99.274 120.793 97.097 121.674 94.9199C121.895 94.4845 122.115 94.0491 122.556 93.8314C123.217 94.0491 123.217 94.2668 123.217 94.4845V101.887Z" fill="#242426"/>
<path d="M132.917 101.235C134.68 99.4929 136.003 97.7513 137.105 95.7919C137.325 95.3565 137.546 95.1388 137.766 94.7034C137.986 94.268 138.427 93.8325 139.089 94.0502C139.75 94.0502 139.75 94.7034 139.75 95.3565C139.75 96.2273 139.75 97.3159 139.75 98.1867C139.75 100.146 139.75 102.105 139.75 103.847C139.75 104.5 139.75 105.153 138.868 105.153C138.207 105.153 137.986 104.5 137.766 104.065C137.546 103.412 137.766 102.541 137.766 101.888C137.766 100.799 137.766 99.7106 137.766 98.1867C136.664 99.0575 136.223 99.9283 135.562 100.799C134.68 102.105 133.578 103.194 132.476 104.282C131.374 105.153 130.271 104.718 130.271 103.412C130.271 100.364 130.492 97.3158 130.712 94.268C130.712 93.6148 130.933 92.9617 131.814 93.1794C132.696 93.1794 132.696 93.8325 132.696 94.4857C132.696 96.6627 132.696 99.0575 132.696 101.67L132.917 101.235Z" fill="#1D1D1F"/>
<path d="M165.318 99.4921C166.861 101.016 167.963 102.758 168.845 104.499C169.065 105.37 169.726 106.241 168.845 106.894C167.743 107.33 167.302 106.459 166.861 105.588C165.979 104.064 165.318 102.54 163.995 101.234C163.555 102.54 163.995 103.629 163.555 104.717C163.555 105.153 163.555 105.588 163.555 106.023C163.555 106.676 163.114 107.112 162.232 107.112C161.571 107.112 161.13 106.459 161.35 105.806C161.35 104.935 161.35 103.846 161.35 102.975C161.571 100.363 161.791 97.7505 162.012 95.3557C162.012 95.3557 162.012 95.138 162.012 94.9203C162.012 94.2672 162.012 93.6141 163.114 93.8318C163.775 93.8318 163.775 94.4849 163.775 94.9203C163.775 95.7911 163.775 96.8797 163.775 97.9682C165.098 97.9682 165.538 96.8797 166.42 96.2265C166.861 96.0088 167.081 95.5734 167.302 95.3557C167.522 95.138 167.963 94.7026 168.404 94.9203C169.065 95.3557 168.845 95.7911 168.624 96.2265C168.624 96.8797 167.963 97.3151 167.522 97.7505C166.861 98.4036 166.2 98.839 165.318 99.7099V99.4921Z" fill="#242426"/>
<path d="M146.362 93.3962C144.598 92.9608 143.717 93.614 143.496 95.3556C143.276 96.8796 143.276 98.6212 143.276 99.7097V101.016C143.276 102.322 143.055 103.628 143.276 104.935C143.276 105.588 143.496 106.023 144.157 106.023C144.819 105.806 145.039 105.588 145.039 105.152C145.039 104.499 145.039 103.628 145.039 102.975C145.039 102.322 145.039 101.669 145.039 101.016C145.48 100.145 146.362 101.016 147.023 100.581C148.786 100.145 149.668 99.492 149.888 98.1858C149.888 96.2264 148.346 93.8317 146.141 93.3962H146.362ZM147.905 98.4035C147.905 98.4035 146.582 98.8389 145.921 98.8389C145.48 98.8389 145.26 98.6212 145.26 98.1858V94.9202C146.803 95.1379 147.243 95.791 147.684 96.6619C147.684 97.315 148.345 97.7504 147.684 98.4035H147.905Z" fill="#242426"/>
<path d="M158.707 99.9278C158.707 99.9278 156.502 100.799 155.621 100.581C154.518 100.581 154.078 101.016 154.078 101.887C154.078 102.323 154.078 102.54 154.078 102.976C154.078 103.847 154.078 104.282 155.18 104.5C156.061 104.5 156.943 104.717 157.825 105.588C156.061 106.677 154.298 106.024 152.755 105.588C152.094 105.37 152.094 104.717 152.094 104.064C152.094 101.234 152.094 98.4039 152.535 95.7914C152.535 94.2674 153.196 93.832 154.959 93.832C156.061 93.832 157.164 93.832 158.266 94.2674C158.486 94.2674 158.707 94.7029 158.707 94.9206C158.707 95.356 158.486 95.5737 158.045 95.5737C157.384 95.5737 156.943 95.5737 156.282 95.5737C155.106 95.5737 154.518 96.1542 154.518 97.3153C154.518 97.3153 154.518 97.3153 154.518 97.533C154.518 98.6216 154.518 99.057 155.841 99.057C156.723 99.057 157.825 99.057 158.927 99.9278H158.707Z" fill="#242426"/>
<path d="M122.556 94.0508C122.556 94.0508 122.997 94.4862 122.997 94.7039C122.997 97.3164 122.997 99.7112 122.997 102.106C122.336 102.759 121.675 102.541 121.013 102.541C120.352 102.541 119.911 102.324 120.132 101.671C120.352 99.4934 120.572 97.3164 121.454 95.1393C121.675 94.7039 121.895 94.0508 122.336 94.0508H122.556Z" fill="#F4F3F4"/>
<path d="M145.26 95.1376C146.582 95.1376 147.244 96.0084 147.684 96.8793C147.905 97.3147 148.346 97.9678 147.684 98.4032C147.244 99.0563 146.362 98.8386 145.701 98.8386C145.26 98.8386 145.26 98.6209 145.26 98.1855C145.26 97.097 145.26 96.0085 145.26 94.9199V95.1376Z" fill="#F4F3F4"/>
<path d="M200.806 96.4453C200.806 96.4453 202.79 96.8807 203.672 97.5339C204.554 98.187 204.554 99.0578 203.231 99.4932C203.231 99.4932 202.79 99.4932 202.57 99.4932C200.586 99.9286 200.586 99.9286 200.586 97.9693C200.586 97.5339 200.586 96.8807 200.806 96.4453Z" fill="#D3CCCD"/>
<path d="M298.015 127.577C294.268 106.024 285.671 85.1239 273.328 66.8365C266.494 56.822 258.559 47.6783 249.742 39.4054C212.049 4.79006 156.061 -8.70776 106.465 5.44318C85.7449 11.3213 67.0087 22.2066 51.138 36.5753C48.052 39.1877 44.966 42.0179 42.1005 45.0658C41.6596 45.7189 41.2188 46.1544 40.5575 46.8075C40.1167 47.0252 39.8962 47.4606 39.4554 47.896C23.3643 65.9657 11.4613 87.7364 5.06891 111.249C2.86464 119.304 1.54209 127.794 0.660382 136.067C-1.10303 156.967 1.32166 178.085 7.93445 198.114C12.343 211.612 18.9558 224.239 27.1115 235.995C27.9932 237.301 28.8749 238.389 29.7566 239.696C30.4179 240.567 31.0792 241.22 31.52 242.09C35.0469 246.662 38.7941 251.016 42.7618 254.935C44.0843 256.241 45.1865 257.33 46.2886 258.418H46.509C46.509 258.418 48.4929 260.596 49.595 261.466C66.1269 276.706 86.1857 288.462 108.228 294.558C157.163 308.056 212.49 295.429 250.403 261.684C253.269 259.289 255.914 256.677 258.339 253.847C259 253.411 259.661 252.758 260.322 251.887C261.865 250.363 263.188 248.839 264.29 247.315C287.655 220.102 300.44 184.834 299.999 149.347C299.779 141.945 299.117 134.761 298.015 127.577ZM264.951 235.124C262.747 238.389 260.543 241.22 257.457 244.268H257.236C254.591 247.533 251.726 250.581 248.64 253.411C248.199 253.629 247.758 254.064 247.317 254.5C244.672 256.895 241.807 259.289 238.721 261.684C205.877 286.72 162.894 296.953 121.674 289.551C96.1049 284.761 71.858 273.223 52.2401 256.677C51.3584 256.024 50.4767 255.153 49.8154 254.717C48.9337 253.847 48.052 253.194 47.3907 252.54C46.9499 252.105 46.509 251.67 46.0682 251.234C44.966 250.363 44.0843 249.275 43.2026 248.404C39.235 244.485 35.4877 240.349 31.9609 235.995C31.2996 235.342 30.8588 234.471 30.1975 233.818C29.3158 232.511 28.4341 231.423 27.3319 230.117C21.3804 221.844 16.3106 212.7 12.343 202.903C-2.20516 167.635 -1.76431 127.141 13.886 92.3082C20.0579 78.375 28.6545 65.748 38.7941 54.8626C39.235 54.4272 39.6758 53.9918 39.8962 53.5564L41.8801 51.597C46.509 46.8075 51.3584 42.671 56.4282 38.7523C79.3525 20.6827 107.787 9.1442 137.545 6.31401C159.808 4.35465 182.512 6.96713 203.452 14.8046C231.887 25.4722 256.355 45.2835 273.107 70.3198C281.924 83.8176 288.537 99.0571 292.284 114.95C294.709 126.27 295.811 137.809 295.591 149.13C294.709 179.826 284.128 210.523 264.951 235.124Z" fill="black"/>
</g>
<path d="M150.238 334.296C168.49 334.296 183.286 319.057 183.286 300.258C183.286 281.46 168.49 266.221 150.238 266.221C131.986 266.221 117.189 281.46 117.189 300.258C117.189 319.057 131.986 334.296 150.238 334.296Z" fill="white"/>
<path d="M169.999 272.714C176.939 278.048 182.416 285.83 184.283 295.012C186.3 304.106 183.986 314.25 178.277 321.617C172.567 329.05 163.97 333.509 155.225 334.646C146.48 335.892 137.311 333.837 129.861 328.634C122.368 323.541 116.934 314.993 115.491 305.637C113.92 296.302 116.149 286.246 121.752 278.594C127.292 270.943 136.037 265.784 145.101 265.128C154.164 264.319 163.037 267.402 169.999 272.714ZM169.744 273.064C162.803 267.708 153.612 266.177 145.546 268.079C137.481 270.003 130.264 274.725 125.552 281.458C120.818 288.126 118.526 296.652 119.609 304.959C120.67 313.244 124.83 321.136 131.304 326.601C137.757 332.067 146.629 334.646 155.013 333.16C163.419 331.717 170.763 326.295 175.305 319.343C179.953 312.392 182.14 303.953 181.524 295.406C180.887 286.902 176.77 278.288 169.744 273.064Z" fill="black"/>
<path d="M167.352 290.353L156.569 301.313C156.569 301.313 167.004 311.644 167.352 311.644C167.7 311.644 160.569 318.381 160.569 318.381L150.048 306.613L140.917 318.381C140.917 318.381 134.395 312.003 134.395 311.644C134.395 311.284 144.569 301.223 144.308 301.313C144.048 301.403 133.004 290.353 133.004 290.353L139.439 283.705L150.221 294.216L161.178 283.705L167.352 290.353Z" fill="#FC4E58"/>
<path d="M167.527 290.353C164.484 294.036 161.093 298.168 157.44 302.211V300.414C158.919 301.762 160.397 303.199 161.962 304.547C163.44 305.894 164.919 307.331 166.397 308.679L167.527 309.667C167.701 309.847 167.875 310.026 168.049 310.116H168.136C167.962 310.116 167.614 309.937 167.44 310.026C167.527 310.026 167.18 310.026 167.701 310.026C168.049 310.026 168.571 310.386 168.745 310.745C169.006 311.194 168.919 311.194 169.006 311.374C169.006 311.554 169.006 311.733 169.006 311.823C169.006 311.913 168.919 312.183 168.919 312.183V312.362L168.745 312.452V312.632V312.811C168.658 312.811 168.484 312.991 168.484 312.991C167.701 313.8 167.006 314.518 166.223 315.237C164.745 316.674 163.266 318.022 161.701 319.369C161.093 319.908 160.223 319.908 159.701 319.369C158.049 317.303 156.31 315.237 154.745 313.171C153.092 311.105 151.44 309.038 149.788 306.972H150.832C149.266 308.859 147.701 310.745 146.136 312.722C144.658 314.698 143.092 316.674 141.614 318.651C141.44 318.92 141.005 319.01 140.744 318.74C139.527 317.573 138.31 316.495 137.092 315.417L135.266 313.71C135.005 313.44 134.657 313.171 134.397 312.811C134.397 312.811 134.223 312.632 134.136 312.542V312.362C133.962 312.362 133.962 312.362 133.788 312.003C133.788 311.913 133.701 311.733 133.701 311.554C133.701 311.554 133.701 311.464 133.701 311.374C133.701 311.194 133.788 311.015 133.788 311.015V310.835L134.049 310.655L134.223 310.386C136.397 307.781 138.571 305.355 140.831 302.93L142.484 301.133C142.745 300.863 143.005 300.504 143.266 300.234V300.324C143.266 300.324 143.266 300.504 143.179 300.504C143.179 300.594 143.179 300.684 143.179 300.774C143.353 300.504 142.571 301.402 144.136 302.57C145.527 302.75 144.484 302.57 144.745 302.57C144.745 302.57 144.658 302.57 144.571 302.57C144.484 302.57 144.31 302.57 144.223 302.57C144.136 302.57 143.962 302.57 143.875 302.48C143.875 302.48 143.788 302.48 143.701 302.48L143.44 302.301H143.266C143.266 302.211 142.745 301.762 142.745 301.762C141.44 300.594 140.31 299.516 139.092 298.348L131.962 291.521C131.266 290.802 131.179 289.634 131.875 288.915C132.918 287.747 133.962 286.669 135.092 285.591C136.136 284.513 137.179 283.346 138.31 282.268C139.005 281.549 140.136 281.549 140.831 282.268L146.136 287.568L151.44 292.958H149.353L155.092 287.927C157.006 286.22 158.919 284.603 160.832 282.986C161.179 282.627 161.614 282.717 161.962 282.986C163.006 284.244 163.962 285.502 164.919 286.669L167.701 290.173L167.527 290.353ZM167.18 290.353L163.788 287.208C162.658 286.22 161.614 285.232 160.571 284.334H161.788C160.049 286.22 158.31 288.107 156.571 289.903L151.266 295.383C150.745 295.922 149.788 296.012 149.266 295.383L143.701 290.173L138.223 284.963H140.831C139.788 286.041 138.744 287.119 137.614 288.197C136.571 289.275 135.527 290.442 134.397 291.521V288.825L141.266 295.833C142.397 297 143.614 298.168 144.745 299.246L145.179 299.606C145.179 299.695 145.179 299.606 145.179 299.695C145.179 299.695 145.179 299.695 145.092 299.695C145.005 299.695 144.918 299.695 144.831 299.606C144.745 299.606 144.658 299.606 144.484 299.606C144.484 299.606 144.397 299.606 144.31 299.606C144.571 299.606 143.527 299.606 144.918 299.695C146.571 300.863 145.701 301.762 145.875 301.492C145.875 301.582 145.875 301.672 145.788 301.762L145.701 302.031L145.614 302.211L145.44 302.391C145.092 302.75 144.831 303.019 144.484 303.289L142.745 304.996C140.397 307.242 137.875 309.487 135.614 311.733L135.44 311.913C135.44 311.913 135.527 311.644 135.527 311.554V311.374C135.527 311.284 135.527 311.194 135.527 311.105C135.353 310.835 135.527 311.015 135.527 311.015C135.527 311.194 135.614 311.284 135.701 311.374C135.962 311.644 136.223 312.003 136.484 312.272L138.136 314.069C139.266 315.237 140.31 316.495 141.527 317.662H140.658C142.223 315.776 143.788 313.8 145.266 311.913C146.745 309.937 148.223 307.96 149.701 305.894C149.875 305.625 150.31 305.535 150.571 305.714C152.397 307.691 154.223 309.487 156.136 311.374C158.049 313.261 159.875 315.147 161.701 317.034H159.701C161.093 315.506 162.571 314.069 164.049 312.632L166.136 310.565C166.136 310.476 166.136 310.476 166.136 310.565C166.136 310.655 166.136 310.745 166.136 310.745C166.136 310.745 166.136 310.925 166.049 311.105C166.049 311.284 166.049 311.464 166.049 311.554C166.049 311.733 166.049 311.733 166.31 312.183C166.484 312.542 167.006 312.901 167.353 312.901C167.788 312.901 167.44 312.901 167.527 312.901C167.18 312.901 166.745 312.722 166.484 312.452L166.31 312.272C166.049 312.093 165.875 311.913 165.701 311.733L164.571 310.655C163.093 309.218 161.701 307.781 160.223 306.253C158.832 304.816 157.353 303.289 155.962 301.762C155.527 301.223 155.527 300.504 155.962 300.055C159.44 296.731 163.266 293.587 167.353 289.903L167.18 290.353Z" fill="black"/>
<defs>
<linearGradient id="paint0_linear_2560_124448" x1="1.10156" y1="148.911" x2="298.677" y2="148.911" gradientUnits="userSpaceOnUse">
<stop stop-color="#EE882B"/>
<stop offset="0.17" stop-color="#EF8F29"/>
<stop offset="0.43" stop-color="#F2A525"/>
<stop offset="0.74" stop-color="#F8C81F"/>
<stop offset="1" stop-color="#FEEB1A"/>
</linearGradient>
<clipPath id="clip0_2560_124448">
<rect width="300" height="300" fill="white"/>
</clipPath>
</defs>
</svg>
